<svg width="86" height="51" fill="none" xmlns="http://www.w3.org/2000/svg"><path d="M7.02 3.32a2.54 2.54 0 0 0-2.05-1 2.38 2.38 0 0 0-1.78.73 2.45 2.45 0 0 0-.7 1.78 2.6 2.6 0 0 0 .7 1.81 2.52 2.52 0 0 0 1.77.73c.76 0 1.45-.32 2.06-.97v2.82l-.24.09a6.5 6.5 0 0 1-1.96.37 4.84 4.84 0 0 1-3.36-1.36A4.75 4.75 0 0 1 0 4.82 4.7 4.7 0 0 1 3 .36 4.73 4.73 0 0 1 5.9.12c.36.07.73.2 1.12.35v2.85Z" fill="#2B354E"/><path d="M10.74 5.02 7.4.26h2.84l1.7 2.5 1.7-2.5h2.84l-3.36 4.76v4.4h-2.38v-4.4Z" fill="#2B354E"/><path d="M19.7 7.58h.52c.6 0 1.03-.08 1.3-.23.25-.16.38-.4.38-.75 0-.34-.13-.58-.39-.74a2.66 2.66 0 0 0-1.29-.23h-.52v1.95Zm0-3.72h.44c.74 0 1.12-.3 1.12-.9 0-.58-.38-.88-1.12-.88h-.44v1.78ZM17.32.26h3.55c.84 0 1.48.2 1.92.6.44.4.66 1 .66 1.76 0 .46-.09.84-.26 1.15-.16.3-.41.56-.75.77.34.06.63.16.86.3a1.79 1.79 0 0 1 .91 1.14 3.01 3.01 0 0 1-.13 1.93c-.15.33-.36.6-.63.84-.27.22-.6.4-.99.5-.39.12-.83.18-1.31.18h-3.83V.26Z" fill="#2B354E"/><path d="M30.96 2.27h-2.84v1.54h2.68v2.02h-2.68V7.4h2.84v2.02h-5.22V.26h5.22v2.01Z" fill="#2B354E"/><path d="M35.06 4.35h.45c.47 0 .83-.1 1.08-.29a1 1 0 0 0 .38-.84 1 1 0 0 0-.38-.84c-.25-.2-.61-.29-1.08-.29h-.45v2.26Zm5.24 5.08h-2.97L35.06 5.9v3.53h-2.38V.26h3.7c.52 0 .96.07 1.34.23a2.47 2.47 0 0 1 1.5 1.5 3.11 3.11 0 0 1-.32 2.8c-.33.43-.82.72-1.48.88l2.88 3.76Z" fill="#2B354E"/><path d="M4.88 18.02H9.6c0 .48-.02.92-.06 1.32a4.7 4.7 0 0 1-.94 2.39c-.29.36-.63.67-1.03.92a5.56 5.56 0 0 1-4.73.4 4.46 4.46 0 0 1-2.5-2.52A5.39 5.39 0 0 1 0 18.55c0-.71.11-1.36.34-1.96.24-.6.56-1.1.99-1.53.43-.42.94-.75 1.54-.98.6-.24 1.27-.36 2-.36.96 0 1.8.2 2.53.62a4.3 4.3 0 0 1 1.71 1.92l-2.26.94a2.3 2.3 0 0 0-.83-1.08 2.25 2.25 0 0 0-3.36 1.34 3.84 3.84 0 0 0-.02 2.25 2.17 2.17 0 0 0 1.22 1.43c.3.13.64.2 1.04.2.24 0 .46-.03.68-.08.22-.05.42-.14.59-.25.18-.12.32-.28.43-.46.12-.19.2-.42.24-.68H4.88v-1.85Z" fill="#2B354E"/><path d="M13.5 13.98v4.98c0 .27 0 .55.02.83.03.28.09.53.19.76.1.22.26.41.48.56.22.13.53.2.93.2s.7-.07.91-.2c.22-.15.38-.34.49-.56.1-.23.16-.48.18-.76.02-.28.04-.56.04-.82v-5h2.37v5.32c0 1.43-.33 2.47-.99 3.13-.65.66-1.65.98-3 .98-1.36 0-2.36-.32-3.02-.98-.66-.66-.98-1.7-.98-3.13v-5.31h2.38Z" fill="#2B354E"/><path d="m25.71 19.74-1.07-3.05-1.07 3.05h2.14Zm.64 1.82h-3.41l-.55 1.59h-2.54l3.5-9.17h2.6l3.48 9.17H26.9l-.54-1.6Z" fill="#2B354E"/><path d="M32.86 18.08h.45c.47 0 .83-.1 1.08-.3a1 1 0 0 0 .38-.83 1 1 0 0 0-.38-.84c-.25-.2-.6-.3-1.08-.3h-.45v2.27Zm5.24 5.07h-2.96l-2.28-3.53v3.53h-2.38v-9.17h3.7c.52 0 .96.07 1.35.23a2.47 2.47 0 0 1 1.5 1.5c.12.35.19.71.19 1.1 0 .7-.17 1.27-.51 1.7-.34.43-.83.73-1.49.88l2.88 3.76Z" fill="#2B354E"/><path d="M41.49 21.13h.54c.42 0 .79-.06 1.11-.2a2.3 2.3 0 0 0 1.33-1.33c.12-.32.18-.66.18-1.04 0-.36-.06-.7-.18-1.02a2.3 2.3 0 0 0-1.34-1.35 3 3 0 0 0-1.1-.2h-.54v5.14Zm-2.39-7.15h3.53c.62 0 1.2.12 1.75.38a4.64 4.64 0 0 1 2.4 2.46 4.39 4.39 0 0 1 0 3.48 4.64 4.64 0 0 1-2.4 2.47c-.53.25-1.12.38-1.75.38H39.1v-9.17Z" fill="#2B354E"/><path d="M51.05 13.98v9.17h-2.39v-9.17h2.39Z" fill="#2B354E"/><path d="m57.95 19.74-1.07-3.05-1.07 3.05h2.14Zm.63 1.82h-3.4l-.55 1.59h-2.54l3.49-9.17h2.6l3.5 9.17h-2.55l-.55-1.6Z" fill="#2B354E"/><path d="M62.72 23.15v-9.17h2.38l4.4 5.6v-5.6h2.38v9.17H69.5l-4.4-5.6v5.6h-2.38Z" fill="#2B354E"/><path d="M7.02 30.77a2.52 2.52 0 0 0-2.05-1.01 2.38 2.38 0 0 0-1.78.73 2.45 2.45 0 0 0-.7 1.78 2.6 2.6 0 0 0 .7 1.81 2.52 2.52 0 0 0 1.77.74c.76 0 1.45-.33 2.06-.98v2.82l-.24.09a6.5 6.5 0 0 1-1.96.38 4.84 4.84 0 0 1-3.36-1.37A4.75 4.75 0 0 1 0 32.26a4.7 4.7 0 0 1 3-4.45 4.73 4.73 0 0 1 2.9-.24c.36.07.73.19 1.12.35v2.85Z" fill="#2B354E"/><path d="M10.74 32.29a2.45 2.45 0 0 0 .76 1.8c.24.24.51.41.82.54a2.76 2.76 0 0 0 1.98 0 2.6 2.6 0 0 0 1.4-1.33c.14-.31.2-.65.2-1.01a2.45 2.45 0 0 0-.77-1.82c-.24-.22-.51-.4-.83-.52a2.6 2.6 0 0 0-3.36 1.33c-.13.3-.2.64-.2 1Zm-2.5 0a4.75 4.75 0 0 1 3.02-4.47 5.45 5.45 0 0 1 2.06-.38c.73 0 1.41.13 2.04.38a4.69 4.69 0 0 1 3.04 4.47 4.83 4.83 0 0 1-1.43 3.44c-.45.44-.99.78-1.61 1.03-.63.25-1.3.37-2.04.37-.75 0-1.44-.12-2.06-.37a4.87 4.87 0 0 1-2.64-2.56 4.83 4.83 0 0 1-.38-1.91Z" fill="#2B354E"/><path d="M19.9 36.87V27.7h2.39l4.4 5.6v-5.6h2.38v9.17h-2.38l-4.4-5.6v5.6h-2.38Z" fill="#2B354E"/><path d="M36.02 30.05a2.81 2.81 0 0 0-.77-.46 2 2 0 0 0-.76-.16c-.3 0-.56.07-.75.22-.2.14-.3.33-.3.57 0 .16.05.3.15.4.1.1.22.2.38.28.16.07.34.14.53.2l.6.18c.78.26 1.35.6 1.7 1.04.37.43.55 1 .55 1.7 0 .46-.08.89-.24 1.27a2.75 2.75 0 0 1-1.82 1.61 5.52 5.52 0 0 1-4.72-.8l1.03-1.93c.35.32.7.55 1.06.7.34.16.69.24 1.03.24.39 0 .68-.1.86-.27a.8.8 0 0 0 .22-.96.72.72 0 0 0-.24-.28 1.78 1.78 0 0 0-.45-.24c-.18-.08-.4-.16-.66-.25l-.91-.31a3.1 3.1 0 0 1-.8-.48 2.3 2.3 0 0 1-.55-.73c-.14-.3-.2-.67-.2-1.13 0-.45.07-.86.21-1.23a2.78 2.78 0 0 1 1.63-1.57 4 4 0 0 1 1.33-.21 6.07 6.07 0 0 1 2.85.74l-.96 1.86Z" fill="#2B354E"/><path d="M41.24 27.7v4.99c0 .27 0 .54.02.82.03.28.09.53.18.76.1.23.27.41.49.56.22.14.53.2.92.2.4 0 .7-.06.92-.2.22-.15.38-.33.48-.56.1-.23.17-.48.19-.76l.03-.82V27.7h2.37v5.32c0 1.42-.32 2.47-.98 3.12-.65.66-1.65.99-3 .99-1.36 0-2.37-.33-3.02-.99-.66-.65-.99-1.7-.99-3.12V27.7h2.39Z" fill="#2B354E"/><path d="M51.16 27.7v7.15H54v2.02h-5.24V27.7h2.39Z" fill="#2B354E"/><path d="M58.24 29.72v7.15h-2.39v-7.15H53.9V27.7h6.3v2.02h-1.95Z" fill="#2B354E"/><path d="M63.64 27.7v9.17h-2.38V27.7h2.38Z" fill="#2B354E"/><path d="M65.56 36.87V27.7h2.38l4.4 5.6v-5.6h2.37v9.17h-2.37l-4.4-5.6v5.6h-2.38Z" fill="#2B354E"/><path d="M81.27 31.74H86c0 .49-.02.93-.06 1.32a4.7 4.7 0 0 1-.94 2.39c-.29.36-.63.67-1.03.92s-.82.43-1.3.56a5.56 5.56 0 0 1-3.43-.16 4.46 4.46 0 0 1-2.5-2.51 5.39 5.39 0 0 1-.35-1.99c0-.71.11-1.36.34-1.95.24-.6.56-1.12.99-1.54.43-.42.94-.75 1.54-.98.6-.24 1.27-.36 2-.36.97 0 1.8.21 2.53.63a4.3 4.3 0 0 1 1.71 1.92l-2.26.93a2.3 2.3 0 0 0-.83-1.08 2.25 2.25 0 0 0-3.36 1.34 4.23 4.23 0 0 0-.02 2.25c.1.33.26.62.46.86.2.25.46.44.76.57a3.02 3.02 0 0 0 1.72.13c.22-.06.42-.15.59-.26.18-.12.32-.27.44-.46.1-.19.19-.41.23-.68h-1.96v-1.85Z" fill="#2B354E"/><path d="M4.88 45.46H9.6c0 .49-.02.93-.06 1.33a4.7 4.7 0 0 1-.94 2.38c-.29.37-.63.67-1.03.93a5.56 5.56 0 0 1-4.73.4 4.46 4.46 0 0 1-2.5-2.52A5.39 5.39 0 0 1 0 46c0-.72.11-1.37.34-1.96a4.35 4.35 0 0 1 2.53-2.52c.6-.23 1.27-.35 2-.35.96 0 1.8.2 2.53.62a4.3 4.3 0 0 1 1.7 1.91l-2.26.94c-.21-.5-.49-.87-.83-1.09a2.25 2.25 0 0 0-3.36 1.34 3.89 3.89 0 0 0-.02 2.25 2.17 2.17 0 0 0 1.22 1.44c.3.13.64.2 1.04.2.24 0 .46-.03.68-.08.22-.06.42-.14.59-.26.18-.12.32-.27.43-.46.12-.19.2-.41.24-.68H4.88v-1.85Z" fill="#2B354E"/><path d="M13.5 45.52h.45c.47 0 .83-.1 1.08-.29a1 1 0 0 0 .38-.84 1 1 0 0 0-.38-.84c-.25-.2-.6-.29-1.08-.29h-.45v2.26Zm5.24 5.07h-2.97l-2.27-3.52v3.52h-2.38v-9.17h3.7c.52 0 .96.08 1.34.23a2.47 2.47 0 0 1 1.5 1.51c.13.34.2.7.2 1.1 0 .7-.18 1.26-.52 1.7-.33.43-.82.72-1.48.88l2.88 3.75Z" fill="#2B354E"/><path d="M21.65 46a2.44 2.44 0 0 0 .77 1.82c.24.23.5.4.81.54a2.75 2.75 0 0 0 1.99 0 2.6 2.6 0 0 0 1.4-1.34c.13-.31.2-.65.2-1.01a2.44 2.44 0 0 0-.78-1.81c-.23-.23-.5-.4-.82-.53A2.6 2.6 0 0 0 21.86 45c-.14.3-.2.64-.2 1Zm-2.49 0a4.75 4.75 0 0 1 3.02-4.46 5.46 5.46 0 0 1 2.05-.37c.74 0 1.42.12 2.05.37a4.7 4.7 0 0 1 3.04 4.47 4.83 4.83 0 0 1-1.44 3.44c-.44.44-.98.78-1.6 1.03a5.5 5.5 0 0 1-2.05.37c-.74 0-1.43-.12-2.05-.37a4.87 4.87 0 0 1-2.64-2.56 4.83 4.83 0 0 1-.38-1.91Z" fill="#2B354E"/><path d="M33.2 41.42v4.99l.03.83c.03.27.09.52.18.75.1.23.27.41.49.56.22.14.53.2.92.2.4 0 .7-.06.92-.2.22-.15.38-.33.48-.56.1-.23.17-.48.19-.75l.03-.83v-4.99h2.37v5.32c0 1.43-.32 2.47-.98 3.12-.65.66-1.65.99-3 .99-1.36 0-2.37-.33-3.02-.99-.66-.65-.99-1.7-.99-3.12v-5.32h2.39Z" fill="#2B354E"/><path d="M43.13 45.63h.79c.87 0 1.3-.38 1.3-1.14.01-.76-.43-1.15-1.3-1.15h-.8v2.3Zm0 4.96h-2.39v-9.17h3.8c1.03 0 1.81.27 2.36.8a3 3 0 0 1 .82 2.27 3 3 0 0 1-.82 2.26c-.55.54-1.33.8-2.36.8h-1.41v3.04Z" fill="#2B354E"/></svg>