<svg xmlns="http://www.w3.org/2000/svg" fill="none" viewBox="0 0 141 166"><g fill="#375E74" clip-path="url(#a)"><path d="m101 58.3 5.7-8L58.3 57l-42-11.8 1.2 2 37.6 14.2 31.4.9 14.6-4.1Z"/><path d="m113.2 40-5.7 9L58 55.9l-38.7-11 37.5 7L113.2 40Z"/><path d="m114.4 38.9 12-17.8-69.3 25.5-37.5-2.9 36.7 7 58-11.8Z"/><path d="m141 .4-13.3 19L57 45l-39-2.5 38.7-.8L134 2.4l6.9-2Z"/><path d="M126.5 4.9 56.3 40l-39.6 1.2L126.5 4.9Zm-44 58.7-17.7 5.2L47 66 17.5 49.4v-1.2l37.6 14.6 27.4.8Z"/><path d="M62 69.2 49.3 73 39 67.6 17.5 51.8v-1.2L47 67.2l15 2Z"/><path d="m47.8 73.3-6.4 1.6-11.7-6L17.5 53 37 67.6l11 5.7Z"/><path d="m40.1 75.7-6 1.6-10.9-8.9-5.2-13 10.8 14.2 11.3 6.1Z"/><path d="m32.9 77.7-5.7 1.7-9.7-4.9-.4-17 5.3 11.7 10.5 8.5Zm-17.8 2.5V46.6l-8 8.9v6.4l-7.3 5.3-7.3-5.3v-6.4l-8-9v33.7l11.7 13.3v12.2h-2l.8 2.4 1.2-1.2h2.4l1.2 1.6L1 107h2.4l1.2 1.2.8-2.4h-2V93l11.7-13Zm-14-1.7v27.2H-1V78.5l-7.7-6.8V64l8.5 6 8.7-6.4V71L1 78.5Z"/><path d="m14.7 45.3-8 9-6-5.7v-4L5 38.4l9.7 6.8Zm.4 36.5L8 98.4l1 5.6-4.5-.9V94L15 81.9Z"/><path d="m7 21.5 5.3 4.8-8-11.3-9.3-5-10.5-8-4 2h2.8l4.8 6.8-1.6 27.6 13.3-7L13.5 40 7.1 21.4Zm-10-6.1-1.6-.4v-1.6l3.2 2.8-1.6-.8Zm4 93.9v45l5.3-2-5.3-43Zm1.6 1.7 6.5 50.5 8.9-5.2-15.4-45.4Zm1.6-.5 6.9 20.7 3.2-3.3-10-17.4Zm1.2-1.2 23 40.5 8.1-4.9-31-35.6Zm1.3-.8L26 130.8l4.5-4-23.8-18.3Zm.8-1.6L47.8 138l10.5-6.5-50.8-24.7Zm.4-1.2 42.3 20.2 8.5-6.5-50.8-13.7Z"/></g><defs><clipPath id="a"><path fill="#fff" d="M0 0h282v166H0z" transform="translate(-141)"/></clipPath></defs></svg>