<svg xmlns="http://www.w3.org/2000/svg" width="555" height="555" fill="none"><g clip-path="url(#a)"><g filter="url(#b)"><path fill="#2E3E68" fill-opacity=".38" d="M28.59 191.34c18.72-40.85 55.84-27.86 82-38.3 24.6-9.84 22.15-64.95 35.96-74.33C186.71 51.4 226 39.9 278.51 39.9c74.6 0 113.18 7.82 133.45 88.63 8.82 35.15 16.52-30.18 58.15-15.51 33.87 11.93 16.9 46.9 30.48 53.5 50.86 24.72 50.6 100.9 26.6 146.31-4.86 9.2-34.46-9.9-38.59-1.12-15.28 32.48 1.38 59.37-9.32 74.73-27.91 40.1 24.46 28.64-4.02 81.67-11.83 22.02-46.55 8.26-68.07 19.39-31.9 16.5-55.71 51.1-102.6 41.12-72.56-15.45-54.3-69.87-85.07-76.98-29.08-6.71-84.65 61.35-130.23.58-52.43-69.9-5-54.77-32.85-109.97-14.94-29.6-77.99-41.53-27.85-150.92Z"/></g><path stroke="#fff" stroke-linecap="round" stroke-linejoin="round" stroke-miterlimit="10" stroke-opacity=".86" stroke-width=".01" d="m33.25 164.5 67.95.24v-2.48l-67.94-.24v2.48Zm-21.4 11.28 67.94.24v-2.48l-67.94-.24v2.48Zm16.1 10.36 67.94.24.01-2.48-67.94-.24-.01 2.48Zm-13.11-31.71 67.95.24v-2.48l-67.94-.24v2.48Zm38.89 43.31 48.74.17v-2.32l-48.73-.17v2.32Z" opacity=".93"/><path stroke="#fff" stroke-linecap="round" stroke-linejoin="round" stroke-miterlimit="10" stroke-width=".01" d="m86.04 176.02 25.92.09.01-2.57-25.92-.09v2.57Zm3.54-21.47 25.92.1.01-2.57-25.92-.1v2.57Zm422.06 209.1-67.94-1.28-.04 2.48 67.93 1.28.05-2.48ZM435.75 96.02l-67.94-1.28-.04 2.47 67.93 1.29.05-2.48Zm-15.95-10.6-67.93-1.29-.04 2.48 67.93 1.29.05-2.48Zm110.1 288.59-67.94-1.28-.05 2.48 67.94 1.28.04-2.48ZM394.2 73.43l-48.73-.92-.04 2.31 48.73.92.04-2.31Zm-32.64 21.22-25.91-.5-.05 2.57 25.91.5.05-2.57Zm93.6 278.09-25.9-.49-.06 2.57 25.91.49.05-2.57Zm-214.68 80.92-67.94-1.28-.04 2.48 67.93 1.28.05-2.48Zm18.25 10.36-67.93-1.29-.05 2.48 67.93 1.29.05-2.48Z" opacity=".93"/><path d="m184 462.75-25.91-.5-.05 2.57 25.91.5.05-2.57Z" opacity=".93"/><g filter="url(#c)" opacity=".93"><path fill="url(#d)" d="m173.24 159.41-98.39.91s-23.75-9.74-13.7-32.59c10.05-22.84 37.4-4.65 37.4-4.65s-8.47-23.06 12.25-29.77c20.7-6.7 29.46 16.08 29.46 16.08s-7.53-31 18.36-37.1c25.89-6.08 31.37 25.9 31.37 25.9s11.27-20.41 31.37-12.8c20.1 7.62 10.05 33.51 10.05 33.51s31.38 1.22 30.77 24.37c-.61 23.15-62.44 16.44-62.44 16.44l-26.5-.3Z"/></g><g filter="url(#e)" opacity=".93"><path fill="url(#f)" d="m370.89 85.4-53.4.15s-22.73-1.62-16.06-17.05c6.67-15.43 19.91-7.63 19.91-7.63s.17-18.06 13.91-22.58c13.75-4.53 22.17 10.17 22.17 10.17s2.71-17.2 19.9-21.31c17.17-4.12 23.15 18.19 23.15 18.19s20.6-3.56 21.18 19.04c.57 22.6-33.18 21.23-33.18 21.23l-17.58-.2Z"/></g><g filter="url(#g)" opacity=".93"><path fill="url(#h)" d="m449.77 369.24-98.38.91s-23.76-9.74-13.7-32.59c10.05-22.84 37.4-4.65 37.4-4.65s-8.47-23.06 12.24-29.77c20.71-6.7 29.47 16.08 29.47 16.08s-7.54-31 18.35-37.1c25.9-6.08 31.38 25.9 31.38 25.9s11.27-20.41 31.37-12.8c20.1 7.62 10.05 33.5 10.05 33.5s31.37 1.23 30.76 24.38c-.6 23.15-62.44 16.44-62.44 16.44l-26.5-.3Z"/></g><path fill="#2B354E" fill-opacity=".93" d="m238.7 77-.14 17.9 24.56 10.22 2.92 1.22h27.98l27.67-11.71-.02-17.44-82.98-.2Z"/><path fill="#314370" d="M265.56 122.05h28.71l.03-15.83h-28.54l-.2 15.83Z"/><path fill="#2B354E" d="m271.37 122.05.53 32 8.78 3.64 8.33 4.24-.69-39.88h-16.95Z"/><path fill="#314370" d="M120.08 265.4c0-26.34 21.7-47.7 48.5-47.7 26.78 0 48.49 21.36 48.49 47.7 0 26.33-21.71 47.68-48.5 47.68-26.78 0-48.5-21.35-48.5-47.69Z" opacity=".93"/><path fill="#8CC2EE" fill-opacity=".55" d="M146.43 265.23a20.4 20.4 0 0 1 20.28-20.52c11.2 0 20.29 9.19 20.29 20.52a20.4 20.4 0 0 1-20.29 20.53c-11.2 0-20.28-9.2-20.28-20.53Z"/><path fill="#314370" d="m203.54 298.44 85.77-65.13s6.07-7.22 8.62-15.47c2.56-8.25 1.6-17.53 1.6-17.53l-83.4 55.72s.23 2.26.32 5.8c.09 3.68.04 8.74-.57 14.1-1.19 10.52-12.34 22.5-12.34 22.5Z"/><path fill="#2B354E" d="M179.96 217.65c31.7 13.63 31.94 48.23 31.94 48.23l96.74-66.52s.18-25.78-19.63-38.57-42.2-8.43-42.2-8.43l-115 64.16s16.44-12.5 48.15 1.13Z"/><path fill="#fff" d="M256.22 151.18a63.32 63.32 0 0 0-8.64.58c-.27.04-.6.05-.86.14-.2.07-.4.2-.6.3l-.88.5-2.19 1.22-7.4 4.13-22.94 12.79-54.19 30.22-18.07 10.08-5.73 3.2-.55.25a23.6 23.6 0 0 0-2.65 1.54c.16.27.3.56.47.82.01.02.03 0 .04-.01l.07-.04.02-.02.14-.07.55-.3c.51-.3 1.03-.58 1.54-.87l.4-.21c.66-.33 1.32-.67 2.01-.95a39.35 39.35 0 0 1 10.77-2.5c7.7-.74 15.5.45 22.88 2.68 1.85.56 0 0 9.36 3.43h.07c4.96 2.45 3.4 1.57 5.04 2.5a49.53 49.53 0 0 1 14.18 11.93 54.5 54.5 0 0 1 8.34 14.52 62.12 62.12 0 0 1 4 17.58l.04.88v.37c.13.15.22.34.39.45.07.05.16-.02.25-.03l.04-.02c.27-.13.55-.37.8-.54l1.11-.76 6.32-4.35 25.94-17.83 46.38-31.88 12.02-8.27 3.24-2.22.33-.23.32-.22c.09-.06.36-.2.4-.3.21-.43.12-.8.1-1.28a57.67 57.67 0 0 0-1.69-11.17c-2.24-8.84-6.64-17.24-13.53-23.33a45.38 45.38 0 0 0-10.26-6.69c-8.49-4.12-17.97-6.02-27.38-6.02Zm-.6.94c1.44-.01 2.88.03 4.33.1 8.71.5 17.39 2.66 25.1 6.79a42.36 42.36 0 0 1 8.7 6.03c6.83 6.26 11.04 14.86 13.07 23.8.5 2.2.87 4.43 1.11 6.67.13 1.2.22 2.41.23 3.62l-.75.52-3.25 2.23-12.34 8.5-52.9 36.36-20.78 14.3-5 3.44-.8.55-.05-.7a63.05 63.05 0 0 0-4.3-18.27c-3.63-9.02-9.45-17-17.29-22.8-2.12-1.56-.07-.04-10.49-6-.03-.01-.03-.04-.06-.05-9-3.34-5.96-2.4-9.01-3.34-8.75-2.7-18.15-3.97-27.23-2.37-1.2.21-2.41.5-3.6.81l2.15-1.2 32.71-18.24 48.03-26.8 16.12-8.99 5.06-2.83 1.76-.97.82-.46.1-.02.4-.07a44.54 44.54 0 0 1 3.8-.43c1.45-.1 2.9-.17 4.35-.18Z"/><g opacity=".93"><path fill="#1F273A" d="M131.97 216.42s-13.8 7.45-21.69 21.63c-7.9 14.17-7.03 33.83-7.03 33.83l17.24-.26s-3.22-17.03 8.35-33.58c4.48-6.4 12.8-13.7 21.58-16.88 13.9-5.04 32.63-2.07 32.63-2.07s-18.31-6.97-29.37-7.5c-11.05-.51-21.7 4.83-21.7 4.83Z"/><path fill="#fff" d="M153 211.07a43.3 43.3 0 0 0-12.6 1.72c-2.3.64-4.57 1.41-6.78 2.34-.5.2 0 0-1.87.84l-.05.06-.11.06-.46.27c-.57.34-1.14.7-1.7 1.05a63.07 63.07 0 0 0-5.64 4.14 57.97 57.97 0 0 0-13.41 15.38 51.83 51.83 0 0 0-5.58 14.67 84.92 84.92 0 0 0-2.04 19.8c0 .05 0 .46.02.5.1.14.2.3.32.43.05.05.53.02.6.02l1.07-.02 1.77-.02 10.25-.16 3.24-.04.47-.02c.05 0 .14 0 .16-.03.12-.16.2-.36.3-.54l-.04-.18-.08-.55-.07-.57a47.33 47.33 0 0 1 .48-12.44 47.7 47.7 0 0 1 8.57-20.26 44.64 44.64 0 0 1 3.79-4.45 51.49 51.49 0 0 1 9.34-7.63 38.47 38.47 0 0 1 7.63-3.82c5.21-1.87 10.77-2.62 16.28-2.84a92 92 0 0 1 12.74.4c.32.02.63.06.95.1l.8.08.5.07.43.06.32.04c.03 0 .15 0 .25.02.14.02.27.05.34.02.08-.04.2-.07.24-.16a1 1 0 0 0 .08-.5c-.01-.08-.09-.13-.13-.19-.05-.05-.16-.08-.27-.12h-.01l-.24-.11-.2-.07-.25-.1-.28-.1-.5-.17-.57-.21a185.08 185.08 0 0 0-9.16-3c-3.32-1-6.69-1.89-10.1-2.6a50.04 50.04 0 0 0-8.8-1.17Zm-2.05 1c3.6-.11 7.15.42 10.66 1.15 3.75.78 7.46 1.79 11.13 2.9 2.03.63 4.05 1.3 6.07 2-2.28-.2-4.57-.34-6.85-.38-4.34-.07-8.7.13-12.98.8-3.16.49-6.3 1.22-9.28 2.37a44.05 44.05 0 0 0-11.27 6.54 50.25 50.25 0 0 0-9.09 9.08 47.85 47.85 0 0 0-7.47 14.57 49.55 49.55 0 0 0-2.12 18.5c.04.48.1.96.17 1.44l.01.1-.84.02-.47.01-2.18.02-9.92.16-2.24.04h-.56l-.01-.25-.01-1.38a83.55 83.55 0 0 1 1.72-16.55c.97-4.69 2.4-9.32 4.57-13.6a52.02 52.02 0 0 1 10.06-13.43 64.64 64.64 0 0 1 11.65-9.06l.44-.25h.06l.26-.13a28.76 28.76 0 0 1 1.84-.81 54.66 54.66 0 0 1 4.03-1.48 46.3 46.3 0 0 1 12.62-2.37Z"/></g><path fill="#2B354E" d="M311.21 232.33v77.3l33.72-3.89-.67-71.5-33.05-1.9Z"/><path fill="#314370" d="m320.29 249.62-.06 39.84 1.05-.06s17.4 8.3 30.92 7.84c13.53-.47 23.19-9.7 23.19-9.7l-.11-15.27s-12.6 3.68-26.35-1.98c-13.74-5.66-28.64-20.67-28.64-20.67Z"/><path fill="#fff" d="M320.29 249.05a.56.56 0 0 0-.4.17c-.16.16-.17.38-.1.58v.02c.02.01.02.01-.04.11-.05.1 0 .21 0 .31v4.37l-.04 13.69-.02 15.56-.01 4.05v.93c0 .27-.05.63.1.87.22.37.65.3 1.01.27l.3-.02h.1l.22.1.7.32a99.83 99.83 0 0 0 8.27 3.25 81.11 81.11 0 0 0 13.4 3.53c3.35.55 6.76.82 10.14.53a36.97 36.97 0 0 0 14.15-4.39 44.01 44.01 0 0 0 6.47-4.28l.9-.77c.08-.07.3-.22.33-.3l.17-.35c.05-.1 0-.4 0-.53v-1.29l-.01-1.49-.02-2.14-.02-3.72-.03-4.94-.01-.92v-.36c-.02-.04 0-.1-.04-.12-.21-.15-.46-.24-.7-.36a19.72 19.72 0 0 1-.63.16l-.44.1-1.59.3a42.9 42.9 0 0 1-6.13.57 42.54 42.54 0 0 1-18.01-3.46 63.21 63.21 0 0 1-9.74-5.48 119 119 0 0 1-11.6-8.93 137.09 137.09 0 0 1-4.82-4.36l-1.16-1.11-.22-.23-.07-.07a.59.59 0 0 0-.41-.17Zm.54 1.91a140.92 140.92 0 0 0 10.76 9.3 97.99 97.99 0 0 0 9.73 6.76 53.41 53.41 0 0 0 8.27 4.14 42.62 42.62 0 0 0 9.96 2.49 45.7 45.7 0 0 0 14.15-.43l1.02-.23v.51l.01.41v1.64l.07 7.77c0 .96 0 1.93.02 2.89v1.08c-.66.6-1.36 1.18-2.08 1.72a42 42 0 0 1-5.2 3.31 34.9 34.9 0 0 1-17.04 4.38c-3.08-.05-6.15-.5-9.17-1.12a86.97 86.97 0 0 1-11.3-3.23 105.65 105.65 0 0 1-7.98-3.2c-.25-.1-.5-.27-.8-.3-.15-.01-.31.02-.48.04l.01-4.4.02-13.7.02-16.18.01-3.65Z"/><path fill="#1E2537" d="m338.63 249.63-18.25.08s14.82 14.96 28.56 20.58c13.74 5.62 27.97 1.65 27.97 1.65l-.06-8.76s-11.92 1.67-21.47-1.72c-9.56-3.38-16.75-11.83-16.75-11.83Z" opacity=".93"/><path fill="#9FB0DB" fill-opacity=".93" d="M374.4 257.12c0-1.85 9.39-3.24 19.65-3.24 10.26 0 18.58 1.49 18.58 3.33 0 1.85-8.32 3.34-18.58 3.34-10.26 0-19.64-1.6-19.64-3.44Zm.85 45.18c0-1.85 8.32-3.34 18.58-3.34 10.27 0 18.59 1.5 18.59 3.34 0 1.84-8.32 3.33-18.59 3.33-10.26 0-18.58-1.5-18.58-3.33Z" opacity=".93"/><path fill="#2B354E" d="m374.18 257.04.47 46.23s10.04 4.64 19.32 4.6c9.3-.04 18.45-5.57 18.45-5.57l.21-45.09s-9.29 3.34-18.58 3.34c-9.3 0-19.87-3.5-19.87-3.5Z"/><path fill="#314370" d="m382.6 259.19-.36-31.8 21.62 3.47-.14 28.69s-4.19.94-9.67 1c-5.49.05-11.45-1.37-11.45-1.37Z"/><path fill="#2B354E" d="M372.2 210.73s-.27 6.05 2.24 10.22c2.51 4.16 7.8 6.43 7.8 6.43l39.56 6.37 9.92-9.18-59.52-13.84Z" opacity=".93"/><path fill="#314370" d="M344.44 188.02s-1.18 5.36 2.14 9.92c3.32 4.57 11.13 8.34 11.13 8.34l104.86 27s-10.53-3.53-15.59-7.98c-5.05-4.45-9.15-12.24-9.15-12.24l-93.4-25.04Z"/><path fill="#2B354E" fill-opacity=".93" d="M430.13 190.63c0-24.22 19.47-43.86 43.49-43.86 24.01 0 35.66 15.31 35.66 39.54 0 2.28-2.72 46.64-38.47 48.12-24 .98-40.68-19.58-40.68-43.8Z"/><path fill="#fff" d="M473.42 146.3a43.66 43.66 0 0 0-23.2 6.79 44.62 44.62 0 0 0-19 25.76c-.7 2.6-.01.09-1.56 11.7 0 .03-.03.05-.03.08.11 3.41.04 2.28.11 3.41.13 1.99.38 3.96.73 5.92 2.06 11.3 8.13 22.06 17.74 28.61a36.7 36.7 0 0 0 13.18 5.6c4.35.9 8.86 1.01 13.26.42a33.45 33.45 0 0 0 15.83-6.26c9.75-7.1 15.04-18.88 17.62-30.35a79.6 79.6 0 0 0 1.3-7.35c.17-1.37.31-2.74.36-4.12a66.78 66.78 0 0 0-.34-7.18c-.8-7.77-3.17-15.64-8.23-21.74a28.97 28.97 0 0 0-4.07-4.04c-5.9-4.76-13.43-6.83-20.9-7.19a51 51 0 0 0-2.8-.06Zm-.96.97a47.9 47.9 0 0 1 3.71.04c3.63.17 7.25.74 10.7 1.85a29.38 29.38 0 0 1 12.1 7.38 29.98 29.98 0 0 1 4.94 6.84c3.24 6.11 4.54 13.1 4.82 19.96.05 1.06.1 2.14.06 3.2a47.95 47.95 0 0 1-.41 4.4 75.55 75.55 0 0 1-2.41 11.42c-3.19 10.88-9.17 21.58-19.35 27.29a34.34 34.34 0 0 1-13.14 4.08c-3.85.42-7.75.28-11.56-.47a35.3 35.3 0 0 1-6.78-2.04c-10.28-4.3-17.78-13.21-21.56-23.56a49.04 49.04 0 0 1-2.7-11.85c-.1-.98 0 0-.25-5.19l-.03-.06c.07-2.36.03-1.69.08-2.53a43.74 43.74 0 0 1 4.79-17.46 43.55 43.55 0 0 1 18.88-18.73 42.66 42.66 0 0 1 7.15-2.85 43.13 43.13 0 0 1 10.96-1.72Z"/><path fill="#8CC2EE" fill-opacity=".55" d="M460.13 190.66c0-8.7 7.03-15.77 15.7-15.77 8.68 0 15.27 6.57 15.27 15.27 0 8.71-6.6 16.27-15.26 16.27-8.68 0-15.7-7.06-15.7-15.77Z"/><path fill="#222B43" d="M505.16 136.14s-4.96-1.36-12.08-.42c-7.12.94-22.23 7.65-22.23 7.65l-11.63 6.97s18.07-9.67 36.01 2.4c15.54 10.45 14.05 33.57 14.05 33.57s11.87-22.85 7.89-35.15c-3.91-12.07-10.71-17.25-25.28-15.34-.44.06-3.7.97-8.16 2.4-8.75 2.8-22.62 8.47-32.44 19.82-16.65 19.22-13.46 55.02-13.46 55.02l-107.28-27.72s-13.5-26.24-2.2-49.2c11.3-22.96 36.03-23.84 36.03-23.84l140.78 23.84Z"/><path fill="#2B354E" d="M198.1 369.76c-3.69-11.13 14.94-27.32 41.6-36.17 26.68-8.86 51.29-7.01 54.98 4.1 3.7 11.13-14.93 27.32-41.6 36.18-26.67 8.85-51.28 7.01-54.97-4.11Z"/><path fill="#314370" d="M200.49 375.4c-3.7-11.13 14.93-27.32 41.6-36.18 26.67-8.85 51.28-7 54.97 4.11 3.7 11.13-14.93 27.32-41.6 36.18-26.67 8.85-51.28 7-54.97-4.11Z" opacity=".93"/><path fill="#2B354E" d="M227.34 363.6s9.19-7.6 20.9-11.74c11.7-4.16 25.92-4.86 25.92-4.86l-4.29 9.7s-9.1-1.3-18.1 1.87c-9 3.17-17.9 10.82-17.9 10.82l-6.53-5.78Z" opacity=".93"/><path fill="#314370" d="m237.91 366.26 18.9 43.98 31.9-.56-22.27-53.22s-6.3-.6-13.07 1.6c-6.77 2.2-15.46 8.2-15.46 8.2Z" opacity=".93"/><path fill="#2B354E" d="m328.77 425.82 59.97 2.09c1.14 0 2.06.92 2.06 2.06v62.97c0 1.13-.92 2.06-2.06 2.06l-59.61 6.42c-1.14 0-5.18-2.81-5.18-3.95l-.28-68.02c0-1.14 3.96-3.63 5.1-3.63Z" opacity=".93"/><path fill="#314370" d="M385.37 495.36s-.26 15.17-3.97 17-55.92 10.88-59.35 10.47c-3.42-.42-64.83-22.48-64.83-22.48l-5.53-16.75-6.07-60.66 78.17 6.1s-.88 53 .98 67.47c.29 2.24 2.6 2.93 2.98 2.98 2.85.39 57.62-4.13 57.62-4.13Z"/><path fill="#2B354E" d="M309.06 498.47c-1.94 1.65-77.62-14.42-77.86-16.61-.5-4.65-.63-49.73.29-67.79.18-3.7 6.5-4.2 6.5-4.2s166.55-1.75 169.43.02c2.2 1.36 11.21 82.82 8.64 86.77-.82 1.25-9.32.61-15.7.34-8.38-.36-15.03-.45-15.03-.45s-.22-1.16.54-1.24c1.2-.13 3.99-.43 4.38-.7.6-.42.55-1.67.55-1.67v-61.85c0-2.65-3.42-2.56-3.42-2.56l-64.15.47 3.98-19.6s-16.13 87.35-18.15 89.07Z" opacity=".98"/><path fill="#8CC2EE" fill-opacity=".52" d="M338.6 464.62c0-11.24 9.27-20.36 20.69-20.36 11.42 0 19.84 6.16 21.11 17.35 1 8.88-3.74 21.56-18.8 23.5-11.31 1.47-23-9.24-23-20.49Z"/><path fill="#8CC2EE" fill-opacity=".55" d="M345.94 464.37c0-7.38 6.14-13.36 13.72-13.36 7.58 0 13.72 5.98 13.72 13.36 0 7.39-6.14 13.37-13.72 13.37-7.58 0-13.72-5.98-13.72-13.37ZM23.62 317.16c0-20.68 17.53-37.44 39.16-37.44 21.63 0 39.16 16.76 39.16 37.44 0 20.68-17.53 37.45-39.16 37.45-21.63 0-39.16-16.77-39.16-37.45Zm110.1 154.57c0-20.68 17.54-37.44 39.16-37.44 21.63 0 39.16 16.76 39.16 37.44 0 20.68-17.53 37.45-39.16 37.45-21.62 0-39.16-16.77-39.16-37.45Zm-78.78-63.9c0-20.68 17.53-37.44 39.16-37.44 21.62 0 39.15 16.76 39.15 37.44 0 20.68-17.53 37.45-39.15 37.45-21.63 0-39.16-16.77-39.16-37.45Zm366.44-38.33c0-20.68 17.54-37.44 39.16-37.44 21.63 0 39.16 16.76 39.16 37.44 0 20.68-17.53 37.45-39.16 37.45-21.62 0-39.16-16.77-39.16-37.44Z"/><path fill="#2B354E" d="M50 319.06c0-6.81 5.68-12.34 12.7-12.34 3.27 0 6.26 1.2 8.51 3.18 1.08.95-6.46 6.84-5.76 8.1.96 1.73 9.95-1.05 9.95 1.06 0 6.81-5.69 12.34-12.7 12.34-7.02 0-12.7-5.53-12.7-12.34Z" opacity=".93"/><path d="M37.08 320.56s2.15-18.8 25.25-19.44c23.1-.64 25.84 19.36 25.84 19.36" opacity=".93"/><path d="M34.03 320.38s2.41-25.24 28.36-26.1c25.94-.86 29.03 26 29.03 26" opacity=".93"/><path d="M88.18 320.15s-1.93 16.91-24.98 17.65c-23.04.74-26.02-17.22-26.02-17.22" opacity=".93"/><path fill="#314370" d="M94.46 382.98s-2.95 6.03-8.3 10.14c-5.36 4.11-13.1 6.3-13.1 6.3s3.4 11.35 8.7 19.77a59.22 59.22 0 0 0 12.46 13.93s6.77-4.55 12.28-12.86c5.5-8.32 9.73-20.39 9.73-20.39s-7.72-2.38-13.16-6.6c-5.44-4.23-8.6-10.3-8.6-10.3Z"/><path fill="#9FB0DB" fill-opacity=".93" d="M91.11 406.86h6.62c1.14 0 2.06.93 2.06 2.06v6.35c0 1.14-.92 2.06-2.06 2.06H91.1a2.06 2.06 0 0 1-2.06-2.06v-6.35c0-1.13.92-2.06 2.06-2.06Z" opacity=".93"/><path d="M90.81 406.74s-1.4-5.59 3.7-5.72c5.09-.13 4 5.84 4 5.84" opacity=".93"/><path fill="#314370" fill-opacity=".93" d="M152.36 452.67h40.95c1.14 0 2.07.92 2.07 2.06v27.07c0 1.14-.93 2.07-2.06 2.07h-40.96a2.06 2.06 0 0 1-2.07-2.07v-27.07c0-1.14.93-2.06 2.07-2.06Z" opacity=".97"/><path d="M151.51 481.2h42.74a1.14 1.14 0 1 1 0 2.29h-42.74a1.14 1.14 0 0 1 0-2.3Z" opacity=".93"/><path fill="#2B354E" d="M169.52 483.87h8.4c1.14 0 2.07.92 2.07 2.06v2.66c0 1.14-.93 2.06-2.07 2.06h-8.4a2.06 2.06 0 0 1-2.06-2.06v-2.66c0-1.14.92-2.06 2.06-2.06Z" opacity=".93"/><path fill="#2B354E" d="M164.69 490.65h17.88a.98.98 0 0 1 0 1.97h-17.88a.98.98 0 0 1 0-1.97Z" opacity=".93"/><path fill="#314370" fill-opacity=".93" d="m448.3 383.62-5.22.08s-7.88-2.3-5.13-10.26c2.76-7.97 9.13-4.68 9.13-4.68s-1.97-5.23 4.24-7.6c6.22-2.36 8.96 4.37 8.96 4.37s.72-9.69 9.28-9.6c8.55.07 7.2 13.25 7.2 13.25s5.39 1.2 5.9 7.33c.5 6.13-5.33 7.68-5.33 7.68l-29.03-.57Z"/><path d="m455.13 383.75-.1-8.44-2.76-.06 7.17-5.9 6.7 5.94-2.47-.05v8.68l-8.54-.17Z" opacity=".93"/><path fill="#8CC2EE" fill-opacity=".55" d="M468.27 190.65c0-4.36 3.73-7.9 8.34-7.9 4.6 0 8.34 3.54 8.34 7.9s-3.73 7.9-8.34 7.9c-4.6 0-8.34-3.54-8.34-7.9ZM155.2 265.64c0-5.75 4.86-10.42 10.85-10.42 5.98 0 10.83 4.67 10.83 10.42 0 5.76-4.85 10.42-10.83 10.42-5.99 0-10.84-4.66-10.84-10.42Z"/><path d="m102.05 329.75 75.75.48m-44.57 76.26 121.42-1.28m-76.68-91.37 1.2 120.93m50.75-154.2 81.29-1.36m-18.17 77.53 130.38.82m37.58-25.5 1.22-99.52m-70.74 75.23-.86 101.46M288.7 144.08l36.64.2"/><path fill="#fff" d="M164.58 255c-.78.2-1.57.41-2.33.69a12.8 12.8 0 0 0-3.62 2.02 9.75 9.75 0 0 0-1.74 1.79 11.06 11.06 0 0 0-2.02 5.61c-.28 3.83 1.48 7.86 4.75 9.96.51.33 1.06.61 1.62.83 2.88 1.12 5.9.5 8.65-.7a13.4 13.4 0 0 0 4.6-3.18 10.88 10.88 0 0 1-3.7 2.55 12.85 12.85 0 0 1-5.67 1.06c-.9-.05-1.8-.23-2.64-.55-4.82-1.8-7-7.28-6.18-12.1.19-1.1.52-2.2 1.06-3.19 1.44-2.63 4.36-4.2 7.23-4.72.02 0 .04-.02.04-.04s-.03-.03-.05-.03Z"/><g opacity=".93"><path fill="#314370" d="M125.45 272.14c.18 1.7.46 3.28.98 4.9l-.98-4.9Z"/><path fill="#fff" d="M125.4 271.67a.48.48 0 0 0-.42.52c.18 1.7.47 3.36.98 5a.5.5 0 0 0 .62.33.5.5 0 0 0 .32-.63 25.4 25.4 0 0 1-.98-4.8.47.47 0 0 0-.52-.42Z"/></g><path fill="#fff" d="M127.48 279.28a.47.47 0 0 0-.3.6 43.98 43.98 0 0 0 7.76 14 44.15 44.15 0 0 0 7.67 7.18.5.5 0 0 0 .7-.1.5.5 0 0 0-.11-.7 42.79 42.79 0 0 1-10.68-11.34 43.56 43.56 0 0 1-4.45-9.35.47.47 0 0 0-.6-.3Zm172.35-78.7a.5.5 0 0 0-.38.07 24598.25 24598.25 0 0 0-47.58 31.17c-9.75 6.4-19.52 12.8-29.23 19.27a.48.48 0 0 0-.13.66c.15.22.44.28.65.13 10.88-7.24 21.82-14.4 32.75-21.56a41168.1 41168.1 0 0 1 44.1-28.84.5.5 0 0 0 .13-.68.5.5 0 0 0-.31-.22Zm4.5-2.66a.52.52 0 0 0-.38.08l-.3.2h-.01l-.28.2-.27.18-.96.63-.25.16-.07.04-.05.03a.47.47 0 1 0 .5.8h.02l.06-.05.02-.02.07-.03.29-.18 1.19-.74c.1-.06.4-.25.3-.2-.28.17-.01.01.3-.2a.5.5 0 0 0 .13-.69.5.5 0 0 0-.3-.21Zm-62.35 169.27a.48.48 0 0 0-.36.01.47.47 0 0 0-.23.63c3.24 6.94 6.41 13.92 9.53 20.92 2.3 5.16 4.6 10.34 6.7 15.58.1.26.39.38.65.28a.5.5 0 0 0 .27-.65 445.97 445.97 0 0 0-6.95-16.1 1509.7 1509.7 0 0 0-9.35-20.43.46.46 0 0 0-.26-.25Zm17.27 38.38a.47.47 0 0 0-.52.7l.53 1.1-.48-1.02a1 1 0 0 1 .06.11l.05.1.12.23c.18.35.35.7.51 1.07.07.14.15.28.21.43l.05.1.03.06c-.18-.36 0 0 0 .01a.5.5 0 0 0 .66.25.5.5 0 0 0 .24-.67V408a7.13 7.13 0 0 0-.59-1.1l.54 1.01-.06-.13a25.57 25.57 0 0 0-.75-1.44l-.19-.36-.07-.1-.05-.1a.5.5 0 0 0-.3-.22Zm-22.75 74.02a.48.48 0 0 0-.57.36c-.06.26.1.51.35.57l41.56 9.2a.5.5 0 0 0 .6-.38.5.5 0 0 0-.38-.6l-41.57-9.15Zm44.64 9.73a.48.48 0 0 0-.2.93l24.19 5.45a.5.5 0 1 0 .22-.97l-24.2-5.41Zm68.22-59.07-20.47.3a.47.47 0 0 0 0 .95l20.48-.26a.5.5 0 0 0 .49-.5.5.5 0 0 0-.5-.5Zm5.6-.15c-1.24.01-2.48.04-3.71.04a.47.47 0 0 0 0 .95l3.72.01a.5.5 0 0 0 .5-.49.5.5 0 0 0-.51-.5Zm32.34-.18c-10.19.03-20.38.09-30.56.12a.47.47 0 0 0-.47.48c0 .26.21.47.47.46l30.57-.07a.5.5 0 0 0 .5-.5.5.5 0 0 0-.5-.5Zm1.52 45.78a.47.47 0 0 0-.47.47l-.08 13.1c0 .28.23.5.5.5a.5.5 0 0 0 .5-.5c.02-4.36.01-8.73.03-13.1a.48.48 0 0 0-.48-.47Zm.08-13.03c-.27 0-.48.2-.49.47-.03 3.68-.09 7.36-.13 11.04a.5.5 0 1 0 1 0l.08-11.03c0-.26-.2-.48-.47-.48Z" opacity=".93"/><path d="m377 260.96.33 39.8m-62.93-65.92 22.16 1.4m2.43.24 2.91.25M241.66 96.2h76.17m-76.56-17.85v8.48m-.14 7.36v-5.42" opacity=".93"/><path fill="#fff" d="M374.66 212.63a.47.47 0 0 0-.45.49c.14 2.67.85 5.36 2.48 7.53.43.57.93 1.09 1.46 1.57.2.18.51.16.7-.05a.5.5 0 0 0-.04-.7c-.48-.44-.94-.9-1.33-1.42a12.62 12.62 0 0 1-2.32-6.98.47.47 0 0 0-.5-.44Zm5.65 10.19a.47.47 0 0 0-.17.86l.25.18c.3.2.64.45.56.4l-.48-.36.6.42c.08.07.33.23.24.19-.13-.07 0 0 .44.33a.5.5 0 0 0 .7-.1.5.5 0 0 0-.1-.71l-.85-.56c.13.08.25.17.4.24.09.04-.18-.12-.26-.18l-.15-.1-.5-.32-.09-.06a3.61 3.61 0 0 1-.24-.16.45.45 0 0 0-.35-.07Zm121.88-56.88a.47.47 0 0 0-.25.62 47.33 47.33 0 0 1 2.3 6.95c2.49 10.23 1.63 21.26-1.9 31.15a39.56 39.56 0 0 1-4.34 8.99 22.5 22.5 0 0 1-1.79 2.3c-.3.35-.6.7-.96 1a.5.5 0 0 0-.06.7c.18.2.5.23.7.05.48-.4.9-.87 1.3-1.34.64-.75 1.23-1.55 1.78-2.38a41.6 41.6 0 0 0 4.47-9.42c3.54-10.21 4.27-21.7 1.49-32.18a48.72 48.72 0 0 0-2.12-6.18.47.47 0 0 0-.62-.25Zm-138.6-50.5a.47.47 0 0 0-.17.93c28.64 5.04 57.27 10.1 85.9 15.15a.5.5 0 0 0 .59-.41.5.5 0 0 0-.41-.57l-85.91-15.1Zm89.4 15.9a.47.47 0 0 0-.55.39c-.05.25.12.5.38.54l8.61 1.59a.5.5 0 0 0 .57-.4.5.5 0 0 0-.4-.58l-8.61-1.54Zm11.67 2.23a.48.48 0 0 0-.55.4c-.04.25.13.5.4.54l16.5 2.78a.5.5 0 0 0 .58-.4.5.5 0 0 0-.41-.58l-16.52-2.74Zm-54.12 126.79c-.26 0-.48.2-.48.45-.03 1.87-.09 3.73-.12 5.59 0 .28.22.5.5.51a.5.5 0 0 0 .5-.5l.06-5.58c0-.26-.2-.47-.46-.47Zm-.31 31.78c-.26 0-.47.2-.48.46-.06 2.68-.15 5.36-.22 8.05a.5.5 0 0 0 1 .02c.06-2.68.1-5.37.17-8.05 0-.26-.2-.48-.47-.48Z" opacity=".93"/><path fill="#fff" d="M360.74 450.98a18.3 18.3 0 0 0-4.26.36c-.02 0-.04.02-.03.04 0 .02.02.03.05.03 2.6-.66 5.4-.56 7.93.4 2.23.85 4.22 2.42 5.6 4.37a14.11 14.11 0 0 1 2.33 5.98c.24 1.43.32 2.87.1 4.3a13.42 13.42 0 0 1-2 5.06 13.25 13.25 0 0 1-5.26 4.87c-4.61 2.27-10.37 1.42-14.35-1.75-.86-.68-1.6-1.48-2.24-2.36a13.46 13.46 0 0 0 3.14 3.2c3.95 2.85 9.37 3.94 13.95 2.01a13.72 13.72 0 0 0 6.45-5.92 13.7 13.7 0 0 0 1.72-4.9c.25-1.77.08-3.56-.35-5.3a13.65 13.65 0 0 0-2.88-5.67 13.92 13.92 0 0 0-5.73-3.92c-1.35-.5-2.76-.74-4.18-.8Zm-12.13 21.3-.29-.44c.1.14.19.3.3.44Zm-.29-.44c-.2-.3-.39-.6-.55-.93.16.32.36.62.56.93Zm-.55-.93Zm129-287.96c-.9 0-1.81.08-2.7.31a7.87 7.87 0 0 0-3.67 2.12 8.76 8.76 0 0 0-1.4 9.82 8.58 8.58 0 0 0 6.6 4.31c1.05.11 2.12 0 3.13-.32a8.7 8.7 0 0 0 3.1-1.73c1.12-.98 2-2.22 2.56-3.6.72-1.78.88-3.7.73-5.6.14 1.9-.05 3.8-.88 5.54a8.01 8.01 0 0 1-6.3 4.5 8.1 8.1 0 0 1-5.87-1.72 6.42 6.42 0 0 1-1.78-2.04c-1.5-2.85-1.15-6.96 1.06-9.34a6.93 6.93 0 0 1 3.67-2.02c.7-.15 1.42-.2 2.13-.2-.12 0-.25-.03-.38-.03Zm.38.04c.18 0 .35.03.52.04-.17-.01-.34-.04-.52-.04Zm.52.04c.6.04 1.21.1 1.8.23.02 0 .04 0 .04-.02s0-.04-.02-.05c-.6-.09-1.21-.12-1.82-.16ZM224.95 69.05a18.12 18.12 0 0 0-6.31 1.3c-5.32 2.18-9 6.87-11.62 11.82-2.5 4.7-4.2 9.77-5.68 14.87-2.05 7.07-3.57 14.28-5.51 21.38a96.4 96.4 0 0 1-1.3 4.4 48.73 48.73 0 0 1-2.93 7.5c-1.57 3.12-3.92 6.47-7.64 6.98-1 .14-2 .06-3-.12a9.88 9.88 0 0 1-2.5-.78 7.77 7.77 0 0 1-1.39-.84c-2.92-2.24-3.6-6.29-3.78-9.76-.12-2.38 0-4.77.18-7.15.26-3.6.68-7.16.94-10.76.2-2.68.32-5.4.08-8.09-.32-3.5-1.33-7.25-4.45-9.26a8.55 8.55 0 0 0-1.93-.92 8.58 8.58 0 0 0-2.38-.46c-2.32-.1-4.42 1-6.04 2.6a21.27 21.27 0 0 0-3.84 5.63c-.3.6-.59 1.22-.86 1.83a79.72 79.72 0 0 0-2.97 7.96c-1.33 4.13-2.48 8.3-3.7 12.47-.81 2.8-1.66 5.6-2.66 8.34a30.65 30.65 0 0 1-3.35 7.02c-.8 1.15-1.83 2.33-3.2 2.79-.39.13-.8 0-1.16-.19a6.87 6.87 0 0 1-1.63-1.25 26.77 26.77 0 0 1-2.59-2.99 82.46 82.46 0 0 1-2.72-3.8c-3.15-4.63-6.07-9.41-9.18-14.07a86.13 86.13 0 0 0-6.62-8.98 31.14 31.14 0 0 0-2.12-2.2c-.29-.26-.6-.52-.9-.76-1.2-.94-2.95-1.98-4.47-1.13a3 3 0 0 0-.63.48c-.34.33-.62.72-.85 1.14-.35.64-.6 1.33-.81 2.03a24.9 24.9 0 0 0-.79 3.82 58.9 58.9 0 0 0-.45 5.64c-.14 3.72-.06 7.45.06 11.16 0 .02.02.04.04.04s.03-.02.03-.03a134.2 134.2 0 0 1-.1-11.17c.07-2.05.21-4.1.52-6.14.19-1.23.43-2.46.82-3.65a9.1 9.1 0 0 1 .85-1.9c.24-.39.52-.75.86-1.04.2-.17.4-.3.64-.41 1.64-.75 3.49.56 4.68 1.58a16.9 16.9 0 0 1 1.6 1.55c.4.43.8.88 1.18 1.33a86.98 86.98 0 0 1 6.3 8.75c3.22 4.92 6.22 9.98 9.5 14.86a69 69 0 0 0 2.84 3.99 21.5 21.5 0 0 0 2.32 2.6c.74.69 1.88 1.6 2.96 1.26 1.5-.46 2.65-1.71 3.54-2.94a29.71 29.71 0 0 0 3.3-6.5c1.21-3.06 2.2-6.2 3.18-9.35 1.08-3.51 2.12-7.04 3.26-10.53.93-2.82 1.9-5.63 3.1-8.34.72-1.67 1.52-3.3 2.48-4.84.7-1.13 1.5-2.21 2.45-3.14 1.43-1.4 3.25-2.33 5.28-2.16a7.4 7.4 0 0 1 3.42 1.18c3.05 1.98 3.69 6.03 3.84 9.39.13 2.69-.05 5.39-.28 8.06-.28 3.25-.64 6.48-.88 9.73a47.95 47.95 0 0 0 0 8.85c.24 2.23.77 4.49 1.94 6.42 1.65 2.73 4.34 4.15 7.45 4.56.92.12 1.86.15 2.79.02 4.97-.7 7.8-5.52 9.6-9.73a67.34 67.34 0 0 0 1.92-5.3c.41-1.3.79-2.6 1.15-3.92 2.05-7.53 3.57-15.2 5.65-22.72 1.37-4.95 2.97-9.9 5.32-14.5 2.46-4.82 5.95-9.45 11.07-11.63a16.8 16.8 0 0 1 3.4-1.04c1.79-.35 3.6-.41 5.41-.27 1.76.14 3.5.46 5.18 1.04 1.11.38 2.19.87 3.2 1.46 5.5 3.22 8.63 9.14 10.81 14.9 3.44 9.08 5.02 18.75 8.64 27.76a45.88 45.88 0 0 0-.13-.38c-3.54-9.05-5.07-18.73-8.49-27.81-2.15-5.72-5.24-11.53-10.64-14.78a18.12 18.12 0 0 0-3.25-1.53 22.43 22.43 0 0 0-8.05-1.22Zm33.33 51.52Zm1.85 2.86Zm2.19 2.6v.02a21.48 21.48 0 0 0 0-.01Zm249.44 81.24c-2 .04-4 .17-5.97.35-5.73.53-11.4 1.5-17.04 2.6a.04.04 0 0 0-.03.05c0 .02.02.04.04.03 5.63-1.19 11.3-2.13 17.04-2.63a62.7 62.7 0 0 1 10.58-.15c2.25.19 4.53.53 6.62 1.4.88.37 1.72.84 2.43 1.47a5.88 5.88 0 0 1 1.79 2.96c.66 2.99-2 5.46-4.18 7.04a40.28 40.28 0 0 1-6.3 3.62 112.7 112.7 0 0 1-8.02 3.44c-7.56 2.95-15.31 5.4-22.85 8.4a75.9 75.9 0 0 0-5.84 2.57 23.65 23.65 0 0 0-4.23 2.57c-.96.77-1.94 1.76-2.16 3.02a2.1 2.1 0 0 0 0 .79c.25 1.2 1.64 1.68 2.69 1.94 1.3.32 2.64.44 3.96.53a93 93 0 0 0 4.1.16c4.8.07 9.6-.04 14.4.06 3.03.07 6.07.2 9.07.63 2.03.29 4.13.67 5.99 1.6.83.41 1.69.99 2.15 1.83.17.33.3.7.38 1.06.55 2.46-1.86 4.07-3.74 5.05a21.69 21.69 0 0 1-2 .93 76.51 76.51 0 0 1-8.09 2.55c-4.36 1.14-8.78 2.09-13.08 3.42a26.4 26.4 0 0 0-5.73 2.33 6.36 6.36 0 0 0-2.15 1.88 2.8 2.8 0 0 0-.33.7c-.17.62.04 1.23.4 1.73.6.87 1.53 1.5 2.44 2 .27.16.55.3.83.45l.89.45c2.39 1.24 4.78 2.48 7.13 3.8 1.74.98 3.49 2 5.12 3.16.95.67 1.9 1.4 2.64 2.3.37.44.7.96.83 1.54.38 1.72-1.42 3.12-2.64 3.99-.2.15-.46.31-.67.46a37.92 37.92 0 0 1-2.45 1.48c-3.33 1.9-6.78 3.6-10.16 5.4a279.4 279.4 0 0 0-12.51 7.03 269.3 269.3 0 0 1 12.52-7c3.39-1.79 6.84-3.49 10.2-5.35a52.26 52.26 0 0 0 2.81-1.7c.32-.21.63-.43.94-.66 1.06-.82 2.34-1.99 2.17-3.47a3.72 3.72 0 0 0-.89-1.86c-.74-.92-1.7-1.67-2.65-2.37a59.4 59.4 0 0 0-5.1-3.25 233.7 233.7 0 0 0-6.63-3.7l-1.3-.7-.81-.44c-.2-.12-.39-.24-.57-.37a5.54 5.54 0 0 1-1.76-1.69 1.4 1.4 0 0 1-.21-.9c.04-.24.16-.47.3-.67a6.58 6.58 0 0 1 2.6-1.96 32.04 32.04 0 0 1 5.47-1.94c4.26-1.19 8.6-2.05 12.9-3.1 2.54-.62 5.08-1.3 7.53-2.23.6-.22 1.2-.46 1.77-.72 2.4-1.1 5.28-2.81 5.4-5.76a5.27 5.27 0 0 0-.47-2.2c-1.13-2.5-4.24-3.48-6.7-4.04-.5-.11-1-.21-1.51-.3a68.83 68.83 0 0 0-9.66-.82c-4.74-.15-9.48-.04-14.22-.1a90.49 90.49 0 0 1-4.85-.14 26 26 0 0 1-3.11-.34 5.76 5.76 0 0 1-1.87-.6c-.23-.13-.4-.27-.38-.54.04-.45.3-.86.57-1.2a8.88 8.88 0 0 1 2.02-1.76 29.91 29.91 0 0 1 3.62-2.04c1.8-.88 3.64-1.67 5.5-2.43 6.8-2.8 13.76-5.2 20.58-7.95a100.3 100.3 0 0 0 12.16-5.68 41.82 41.82 0 0 0 3.6-2.31c.42-.32.83-.64 1.23-.98 1.86-1.6 3.77-3.86 3.26-6.49-.09-.46-.24-.9-.45-1.32-1.42-2.9-4.76-3.94-7.73-4.44-.55-.1-1.1-.18-1.67-.24a46.23 46.23 0 0 0-5.96-.23ZM435.65 459.9a8.36 8.36 0 0 0-2.46.2c-3.08.68-5.9 2.49-7.98 4.83a22.06 22.06 0 0 0-3.43 5.35 45.62 45.62 0 0 0-2.3 6.3c-1.52 5.04-2.5 10.25-4.2 15.24-1.32 3.8-3.11 7.61-6.15 10.35-.75.68-1.56 1.28-2.43 1.8l-.46.26a.74.74 0 0 1-.22.08c-.51.1-1.04-.63-1.26-.99-.06-.08-.11-.18-.16-.27a6.48 6.48 0 0 1-.34-.62l-.17-.35a30.3 30.3 0 0 1-1.27-3.37c-.5-1.55-.96-3.12-1.4-4.7-1.28-4.6-2.46-9.24-3.96-13.79-1.06-3.2-2.24-6.42-4-9.31a14.6 14.6 0 0 0-2.2-2.87 7.35 7.35 0 0 0-1.78-1.31 5.2 5.2 0 0 0-1.15-.44c-2.57-.61-5 1.04-6.76 2.74-.32.31-.63.63-.93.97a21.62 21.62 0 0 0-3 4.55 44.68 44.68 0 0 0-3.21 9.23c-.54 2.17-1.03 4.35-1.52 6.53a83.62 83.62 0 0 1-.23 1.08c.6-2.53 1.15-5.07 1.79-7.6.8-3.14 1.77-6.29 3.26-9.19a21.23 21.23 0 0 1 3.03-4.49 15 15 0 0 1 2.66-2.35c.63-.43 1.3-.8 2.04-1.05.47-.15.95-.25 1.44-.28 2.7-.12 4.63 2.14 5.93 4.22.2.31.38.64.56.96a48.08 48.08 0 0 1 3.68 9.49c1.45 4.87 2.54 9.84 3.85 14.75.44 1.67.9 3.33 1.47 4.96.34.96.72 1.92 1.22 2.8.53.95 1.4 2.08 2.63 1.87.55-.1 1.08-.47 1.54-.76.62-.38 1.21-.8 1.78-1.27 2.95-2.43 4.9-5.82 6.32-9.33 1.94-4.82 2.99-9.95 4.36-14.95a50.7 50.7 0 0 1 2.87-8.27c1.32-2.8 3.13-5.43 5.68-7.23.96-.68 2-1.23 3.09-1.66.6-.24 1.23-.43 1.87-.55a6.54 6.54 0 0 1 1.99-.12 5 5 0 0 1 1.08.26c2.24.83 3.3 3.4 3.88 5.52a21.07 21.07 0 0 1 .58 2.56c.1.63.2 1.26.28 1.9.31 2.46.44 4.95.51 7.43.12 3.54.1 7.08.17 10.61.05 2.56.14 5.12.39 7.66.21 2.1.5 4.25 1.28 6.21a5.78 5.78 0 0 0 2.15 2.89c1.12.68 2.49.6 3.73.45 3.28-.4 5.76-2.34 7.54-5.04 1.45-2.2 2.4-4.7 3.19-7.2 1.15-3.66 1.94-7.41 3.04-11.08a21.69 21.69 0 0 1 2.2-5.36c.58-.9 1.3-1.76 2.27-2.25.32-.16.68-.3 1.04-.33a3 3 0 0 1 1.62.41c.94.5 1.77 1.2 2.54 1.93a30.69 30.69 0 0 1 1.98 1.98c3.03 3.22 5.81 6.72 9.2 9.59a14.09 14.09 0 0 0 4.54 2.8c-1.7-.54-3.2-1.68-4.53-2.81-3.47-2.94-6.29-6.56-9.4-9.86l-1.1-1.14a15.07 15.07 0 0 0-3-2.47c-.52-.3-1.1-.55-1.7-.55-.43 0-.86.16-1.24.35a6.4 6.4 0 0 0-2.52 2.56 24.78 24.78 0 0 0-2.23 5.51c-1.08 3.52-1.9 7.11-3.06 10.6-.83 2.45-1.8 4.9-3.27 7.03a10.4 10.4 0 0 1-5.55 4.3c-.68.2-1.38.3-2.08.35-.95.06-1.96.09-2.79-.45-1.13-.73-1.68-2.14-2.04-3.36a29 29 0 0 1-.92-6.42c-.32-5.64-.07-11.3-.18-16.94a70.07 70.07 0 0 0-.61-8.89c-.1-.63-.2-1.25-.33-1.88-.65-3.11-1.96-6.93-5.3-8.03a6.23 6.23 0 0 0-1.45-.29Zm-64.57 37.43-.16.51.16-.5Zm-.16.51c-.24.73-.5 1.46-.78 2.17 0 .02 0 .04.02.05.02 0 .04 0 .05-.02.28-.72.48-1.46.71-2.2Z"/><path fill="#fff" fill-opacity=".1" d="M479.56 177.97c-.9 0-1.83.12-2.72.32-.44.1-.88.3-1.3.49-.53.23-1.04.49-1.55.76-2.18 1.2-4.15 2.72-6.2 4.1-.62.42-1.3.74-1.94 1.12a3.5 3.5 0 0 0-1.17 1c0 .02 0 .04.02.05.02.01.03 0 .04-.02.24-.38.6-.66.97-.91.67-.46 1.42-.77 2.1-1.22 2.64-1.74 5.19-3.75 8.2-4.82.24-.08.57-.2.81-.25.4-.1.82-.13 1.23-.16.5-.04 1-.06 1.5-.03.34.02.7.04 1.03.16.09.04.2.08.26.15l.05.1c0-.03-.03.05-.04.07l-.04.06-.1.13a18.17 18.17 0 0 1-1.38 1.34c-1.16 1.01-2.38 1.92-3.55 2.92a45.31 45.31 0 0 0-6.2 6.8c-.7.89-1.4 1.79-2.05 2.7-.54.76-1.12 1.63-1.17 2.57-.02.53.15 1.08.61 1.37.53.34 1.19.2 1.73-.02 1-.4 1.92-1.1 2.77-1.75l1.04-.84c.49-.4.95-.81 1.44-1.2.44-.33.93-.64 1.4-.95a69.9 69.9 0 0 1 2.78-1.8 30.8 30.8 0 0 1 5.84-2.87 15.6 15.6 0 0 1 3.84-.91 3.74 3.74 0 0 1 1.08.08c.41.14.35.33.19.69-.15.33-.35.63-.57.92a27.02 27.02 0 0 1-2.16 2.4 51.1 51.1 0 0 1-1.7 1.6c-.39.35-.79.7-1.16 1.06-1.46 1.48-2.95 2.93-4.37 4.44a76.35 76.35 0 0 0-3.18 3.61c1.69-2 3.53-3.86 5.43-5.66.83-.8 1.65-1.6 2.51-2.37.37-.33.77-.62 1.15-.94a41.9 41.9 0 0 0 2.04-1.75c.92-.83 1.95-1.75 2.58-2.82.25-.44.48-1.03.15-1.5-.34-.49-1.05-.61-1.6-.65-.99-.06-2 .13-2.97.33-4.26.91-8.04 3.18-11.6 5.58-1.38.92-2.57 2.08-3.93 3.03-.41.28-.84.57-1.29.8a3 3 0 0 1-.48.18l-.12.04v-.02a3.92 3.92 0 0 1 .39-1.04c.35-.65.82-1.23 1.25-1.82 1.38-1.9 2.77-3.82 4.29-5.63.86-1.02 1.75-2 2.71-2.93 1.19-1.15 2.45-2.22 3.62-3.4l.35-.37.32-.36c.32-.36.92-.94.57-1.45-.34-.5-1.24-.5-1.75-.5Zm-3.62 23.26-.17.2a41.36 41.36 0 0 0 .17-.2Zm-305.36 47.11c-.34 0-.68.08-.9.13-1.25.27-2.46.76-3.63 1.26-3.33 1.42-6.66 2.87-9.7 4.84-.1.06-.2.15-.29.21l.3-.2c3.02-1.94 6.32-3.33 9.64-4.68 1.2-.5 2.44-.99 3.73-1.23l.28-.05c.28-.04.99-.13 1.2.16.31.47-.28 1.27-.56 1.62-1 1.2-2.32 2.1-3.58 3a50.45 50.45 0 0 0-3.66 2.89 41.67 41.67 0 0 0-7.77 8.66c-.22.34-.5.65-.73.98a14.4 14.4 0 0 0-1.29 1.99c-.26.51-.42 1.13-.02 1.63.69.82 2 .28 2.78-.09a11.17 11.17 0 0 0 1.13-.61 21.18 21.18 0 0 0 1.43-.94c.39-.27.78-.56 1.16-.84a96.87 96.87 0 0 1 14.68-9.2c.54-.26 1.08-.53 1.63-.77a13.3 13.3 0 0 1 2.87-.9c.28-.05.57-.07.85-.06-.44.67-1 1.25-1.58 1.8-1.53 1.42-3.18 2.69-4.8 3.99a99.04 99.04 0 0 0-5.68 4.94 64.92 64.92 0 0 0-5.82 5.99 16.6 16.6 0 0 0-2.35 3.45c-.3.65-.53 1.4-.4 2.12.04.18.1.37.2.53.7 1.13 2.39.36 3.16-.29 1.29-1.08 2.57-2.18 3.9-3.22a41.8 41.8 0 0 1 9.07-5.64c.83-.36 1.68-.69 2.55-.95.44-.13.9-.23 1.34-.3.25-.02.5-.05.74-.04.55.03 1.03.25 1.03.87 0 .18-.03.35-.07.51a9.02 9.02 0 0 1-1.62 2.82c-.22.3-.46.6-.7.89-.55.66-1.14 1.28-1.69 1.94-.47.56-.9 1.15-1.34 1.74a54.42 54.42 0 0 0 .26-.3c.36-.48.73-.95 1.11-1.42.63-.74 1.3-1.43 1.91-2.17.44-.53.86-1.1 1.24-1.67a5.4 5.4 0 0 0 1-2.17c.07-.51-.15-.93-.65-1.09a2.01 2.01 0 0 0-.47-.08c-.25-.02-.52 0-.77.02a8.9 8.9 0 0 0-1.37.29c-3 .84-5.81 2.3-8.44 3.96a82.4 82.4 0 0 0-7.24 5.26c-.49.4-1.03.76-1.67.82-.38.03-.6-.07-.66-.45-.11-.76.32-1.53.7-2.14a22.71 22.71 0 0 1 3-3.69 89.4 89.4 0 0 1 6-5.64c1.3-1.13 2.6-2.25 3.94-3.32 1.16-.91 2.35-1.8 3.5-2.73a51.9 51.9 0 0 0 2.06-1.78c.24-.23.49-.45.72-.69l.5-.51c.5-.56 1.34-1.52 1-2.34a1 1 0 0 0-.31-.43c-.47-.37-1.28-.4-1.84-.34-1.37.15-2.7.61-3.95 1.16-.74.32-1.46.7-2.18 1.06a85.38 85.38 0 0 0-12.07 7.51c-1.52 1.13-2.95 2.35-4.55 3.37-.5.32-1.04.64-1.6.86-.18.07-.37.12-.56.15a.8.8 0 0 1-.14 0c.05-.25.17-.5.28-.7.15-.28.3-.5.46-.77.36-.58.77-1.13 1.15-1.7.2-.3.38-.6.57-.91 1.67-2.6 3.7-4.96 5.92-7.11a46.39 46.39 0 0 1 4.41-3.85 48.52 48.52 0 0 0 2.15-1.74 15.6 15.6 0 0 0 1.4-1.43c.35-.46.94-1.35.51-1.94-.16-.23-.48-.3-.81-.3Zm-14.52 6.44Zm-1.8 1.3c-1 .8-1.91 1.66-2.56 2.73-.01.02 0 .04.02.05h.05a10.2 10.2 0 0 1 2.49-2.77Zm19.69 24.3ZM361.9 453.52c-.34 0-.68.11-1 .22l-.4.14-.4.17c-.58.24-1.15.53-1.73.8-.57.27-1.16.51-1.72.8-.83.43-1.63.9-2.43 1.38-.2.11-.39.25-.59.37 1-.6 2-1.19 3.04-1.71.76-.38 1.54-.7 2.31-1.07.75-.34 1.51-.69 2.32-.9.22-.07.48-.12.72-.09.03.01.14.03.16.07.04.09-.13.22-.17.26-.2.19-.44.34-.67.5-.92.65-1.86 1.28-2.78 1.91a43.9 43.9 0 0 0-6.5 5.55c-.6.62-1.2 1.26-1.77 1.9-.22.25-.43.51-.66.75-.64.67-1.32 1.3-1.87 2.05-.21.29-.51.75-.3 1.12.33.55 1.23.05 1.6-.19l.33-.22.34-.22.33-.23c.98-.7 1.91-1.46 2.87-2.18 1.13-.85 2.3-1.66 3.51-2.4a34 34 0 0 1 7.33-3.44l1.17-.35c.38-.12.77-.26 1.16-.37l-.99.84c-.55.44-1.13.85-1.68 1.29-.72.57-1.4 1.17-2.12 1.74-1.82 1.49-3.66 2.95-5.46 4.48a49.7 49.7 0 0 0-4.81 4.54l-.49.56-.23.27-.25.18c-.25.2-.42.48-.36.82.02.08.04.2.1.26.12.14.17.25.32.32.74.38 1.67-.27 2.26-.67.13-.08.32-.22.45-.32.15-.1.3-.2.44-.32.8-.61 1.57-1.27 2.36-1.89a58.56 58.56 0 0 1 6.41-4.46c1.26-.73 2.6-1.45 3.97-1.95.68-.25 1.4-.43 2.1-.61.77-.2 1.56-.38 2.36-.48a2.34 2.34 0 0 1 .46 0c0 .07-.02.14-.05.2-.07.2-.2.37-.31.52a6.7 6.7 0 0 1-1.2 1.1c-.49.39-1.02.73-1.52 1.11-1 .76-1.96 1.58-2.93 2.38a89.86 89.86 0 0 0-7.66 6.83 9.75 9.75 0 0 0-1.4 1.68c-.13.21-.4.67-.17.91.26.27.88-.15 1.1-.3.07-.03.13-.08.2-.12l.2-.14.21-.14.42-.31.42-.31.38-.3c.3-.25.6-.52.92-.75.8-.63 1.67-1.2 2.53-1.77a35.16 35.16 0 0 1 .74-.5c-1 .62-1.97 1.29-2.94 1.96-1 .7-1.9 1.53-2.93 2.19l-.19.12-.18.11c-.16.1-.63.38-.8.2-.12-.14-.03-.36.04-.5l.15-.29.22-.3c.62-.83 1.4-1.52 2.13-2.23a78 78 0 0 1 6.65-5.53l2.23-1.7c.47-.35.92-.7 1.4-1 .89-.58 1.82-1.16 2.51-1.96.32-.37.61-.84.57-1.35-.06-.63-.8-.63-1.29-.59l-.54.05c-.87.1-1.73.3-2.58.5-.63.14-1.26.3-1.87.51-3.62 1.34-6.89 3.47-9.97 5.75l.95-.82c1.8-1.5 3.62-2.98 5.44-4.46.84-.7 1.67-1.4 2.52-2.09.56-.44 1.13-.86 1.68-1.3l.74-.62.46-.42c.47-.43 1.35-1.23 1.07-1.96-.23-.57-.89-.65-1.42-.58-.92.14-1.78.5-2.67.78-4 1.25-7.66 3.32-10.97 5.88-1.25.97-2.43 2.03-3.69 3-.35.28-.71.57-1.1.8l-.06.04c.2-.29.4-.56.62-.82.37-.44.77-.85 1.14-1.28.58-.67 1.1-1.38 1.69-2.04a45.18 45.18 0 0 1 5.56-5.36c.95-.76 1.95-1.45 2.94-2.16l.67-.48c.34-.25.7-.5 1.03-.78.1-.1.28-.24.26-.4-.02-.16-.26-.18-.39-.18Zm2.97 18.14c.2-.11.38-.23.58-.33-.2.1-.39.22-.58.33Zm.58-.33.64-.3-.64.3Zm.64-.3Zm-12.46-13.63-.14.08-.25.17.39-.25Zm-.39.25c-1.3.8-2.58 1.65-3.62 2.76-.02.01-.02.03 0 .05.01.01.03.02.05 0a15.93 15.93 0 0 1 3.57-2.81Z"/><path fill="#fff" fill-opacity=".14" d="M167.52 240.56a25.3 25.3 0 0 0-17.92 6.38 25.24 25.24 0 0 0-5.62 7.35 24.66 24.66 0 0 0-1.75 17.79 24.87 24.87 0 0 0 27.8 17.99 25.32 25.32 0 0 0 20.96-20.23 24.23 24.23 0 0 1-4.64 10.15 24.19 24.19 0 0 1-6.1 5.55 24.56 24.56 0 0 1-33.5-7.02 23.95 23.95 0 0 1-3.37-18.59 24.57 24.57 0 0 1 22.21-18.87 24.24 24.24 0 0 1 21.75 10.65c1.13 1.68 3.4 7.75 3.42 7.81a.04.04 0 0 0-.02.05l.12.67c-.02-.38-.03-.25-.05-.7 0-.01-.03-.03-.05-.03a44.7 44.7 0 0 0-1.29-3.9 25.11 25.11 0 0 0-21.95-15.05Zm23.34 19.68c.28 4.67.47 6.09.5 6.67.1-1.35.1-2.71-.03-4.06-.09-.89-.2-1.22-.47-2.6Zm.5 6.67c-.06.9-.16 1.78-.33 2.66.09-.49.2-.96.26-1.46.08-.62.09-.89.07-1.2Zm-.33 2.66-.04.26.04-.26Z"/><path fill="#fff" fill-opacity=".1" d="M359 440a25.67 25.67 0 0 0-17.23 7.3 24.93 24.93 0 0 0-4.06 5.22 24.2 24.2 0 0 0-2.93 8.02c-.1.58-.12.84-.12 1.13a23.05 23.05 0 0 1 5.17-11.91 24.08 24.08 0 0 1 5.53-4.91 25.03 25.03 0 0 1 24.06-1.5 24.4 24.4 0 0 1 5.7 3.75 23.05 23.05 0 0 1 3.71 30.6 24.8 24.8 0 0 1-28.12 9.3 24.25 24.25 0 0 1-12.86-10.24c-1.03-1.7-2.98-7.76-3-7.81.02.04.6 2.63 1.08 3.9 1.1 2.96 2.8 5.69 4.95 7.99a24.84 24.84 0 0 0 4.8 3.98 25.72 25.72 0 0 0 24.3 1.69 24.91 24.91 0 0 0 11.57-10.77 24.06 24.06 0 0 0-8.08-31.63 25.04 25.04 0 0 0-14.48-4.1Zm-24.14 28.95.02-.04c-.09-.73-.04-.36-.1-.72.01.4.02.27.02.74 0 .02.03.03.05.03v-.01Zm-.07-.76c-.04-4.57-.14-5.96-.13-6.52a22.54 22.54 0 0 0-.2 4c.05.85.15 1.26.33 2.52Z"/><path fill="#fff" d="M325.6 287.97a.47.47 0 0 0-.26.25c-.1.24 0 .52.25.62 1.16.5 2.28 1.1 3.45 1.6a.5.5 0 0 0 .66-.27.5.5 0 0 0-.26-.65c-1.17-.5-2.31-1.05-3.48-1.54a.49.49 0 0 0-.36-.01Zm5.4 2.32a.47.47 0 0 0 0 .87c1.94.82 4 1.44 6.03 2a58.2 58.2 0 0 0 8.15 1.72 46.13 46.13 0 0 0 5.43.41c.29.02.57.02.85.06a.5.5 0 1 0 .16-.98c-.32-.05-.65-.05-.97-.06l-1.34-.07a50.91 50.91 0 0 1-12.62-2.16c-1.8-.51-3.6-1.06-5.32-1.79a.48.48 0 0 0-.37 0Z" opacity=".93"/><path fill="#fff" fill-opacity=".1" d="M476.19 167.18a21.46 21.46 0 0 0-10.9 2.52c-8.28 4.37-13.2 13.45-12.94 22.74.1 3.25.83 6.5 2.2 9.46a22.52 22.52 0 0 0 4.95 6.88 20.7 20.7 0 0 0 17.4 5.44c1.47-.22 2.93-.6 4.34-1.12 6.47-2.4 11.5-7.74 13.98-14.11a23.59 23.59 0 0 1-12.14 12.84c-2.2.98-4.6 1.58-7.01 1.75a20.05 20.05 0 0 1-10.98-2.32 21.53 21.53 0 0 1-10.02-11.95 23.58 23.58 0 0 1-1.24-8.85c.43-8.84 5.74-17.15 13.88-20.8a20.48 20.48 0 0 1 11.73-1.6c1.75.28 3.46.8 5.07 1.53 6.32 2.86 12.41 20.62 12.44 20.7-.01 0-.03 0-.03.02l-.06 1.04.13-1.04c0-.02 0-.03-.03-.03a23.65 23.65 0 0 0-2.76-11.66 22.3 22.3 0 0 0-5.11-6.4 20.83 20.83 0 0 0-12.9-5.05Zm20.67 24.17c-.26 2.2-.37 3.28-.47 3.72.17-.78.32-1.58.4-2.38.05-.45.07-1.05.07-1.34Zm-.47 3.72-.21.9c.05-.2.13-.38.17-.57l.04-.33Zm-.21.9c-.1.41-.23.8-.35 1.2.07-.22.17-.43.23-.66.05-.17.07-.36.12-.53Zm-.35 1.2Z"/></g><defs><filter id="b" width="533.35" height="490.54" x="9.52" y="39.89" color-interpolation-filters="sRGB" filterUnits="userSpaceOnUse"><feFlood flood-opacity="0" result="BackgroundImageFix"/><feBlend in="SourceGraphic" in2="BackgroundImageFix" result="shape"/><feGaussianBlur result="effect1_foregroundBlur_1636_1659" stdDeviation=".01"/></filter><filter id="c" width="203.53" height="89.1" x="58.66" y="71.52" color-interpolation-filters="sRGB" filterUnits="userSpaceOnUse"><feFlood flood-opacity="0" result="BackgroundImageFix"/><feBlend in="SourceGraphic" in2="BackgroundImageFix" result="shape"/><feGaussianBlur result="effect1_foregroundBlur_1636_1659"/></filter><filter id="e" width="121.46" height="58.99" x="300.2" y="26.64" color-interpolation-filters="sRGB" filterUnits="userSpaceOnUse"><feFlood flood-opacity="0" result="BackgroundImageFix"/><feBlend in="SourceGraphic" in2="BackgroundImageFix" result="shape"/><feGaussianBlur result="effect1_foregroundBlur_1636_1659"/></filter><filter id="g" width="203.53" height="89.1" x="335.2" y="281.35" color-interpolation-filters="sRGB" filterUnits="userSpaceOnUse"><feFlood flood-opacity="0" result="BackgroundImageFix"/><feBlend in="SourceGraphic" in2="BackgroundImageFix" result="shape"/><feGaussianBlur result="effect1_foregroundBlur_1636_1659"/></filter><linearGradient id="d" x1="58.67" x2="262.19" y1="116.07" y2="116.07" gradientUnits="userSpaceOnUse"><stop stop-color="#E6E9F1" stop-opacity=".93"/><stop offset=".95" stop-color="#475879" stop-opacity=".93"/></linearGradient><linearGradient id="f" x1="300.2" x2="421.65" y1="56.13" y2="56.13" gradientUnits="userSpaceOnUse"><stop stop-color="#878E9E" stop-opacity=".93"/><stop offset=".98" stop-color="#DEE4F1" stop-opacity=".53"/></linearGradient><linearGradient id="h" x1="335.2" x2="546.81" y1="325.9" y2="324.11" gradientUnits="userSpaceOnUse"><stop offset=".03" stop-color="#4E5F8A" stop-opacity=".93"/><stop offset=".73" stop-color="#F1F4FC" stop-opacity=".93"/></linearGradient><clipPath id="a"><path fill="#fff" d="M0 0h555v555H0z"/></clipPath></defs></svg>