<svg id="epL40xBwMPV1" xmlns="http://www.w3.org/2000/svg" xmlns:xlink="http://www.w3.org/1999/xlink" viewBox="0 0 162 205" shape-rendering="geometricPrecision" text-rendering="geometricPrecision" project-id="48791e3895f74d048d3ba0e639f76722" export-id="a1e49581f7994f838e9b7458803e298d" cached="false"><path d="M80.0013,551.646c43.4347,0,78.6457-35.211,78.6457-78.646s-35.211-78.646-78.6457-78.646c-43.4349,0-78.64583,35.211-78.64583,78.646s35.21093,78.646,78.64583,78.646Z" transform="translate(.998765-387.2655)" fill="none" stroke="#fff" stroke-width="2.7084" stroke-miterlimit="10"/><path d="M49.6996,427.746h20.8625c.0212.427.0579.825.0583,1.222.0038,5.131.0172,10.262-.0126,15.392-.0047.814.1757,1.4.841,1.943c1.4602,1.19,2.8687,2.449,4.2302,3.752.3556.34.6422.938.6517,1.424.0591,3.017.1495,6.042-.0034,9.052-.1496,2.945,2.2896,4.668,4.6845,4.669c3.5841.001,7.1687-.035,10.7514.033.6381.012,1.3985.302,1.8815.72c3.8515,3.328,7.6503,6.718,11.4643,10.09.169.15.342.299.491.467c1.057,1.193,2.108,2.39,3.278,3.721-.733.741-1.695,1.618-2.531,2.603-.372.438-.61,1.076-.692,1.654-.116.814-.031,1.656-.029,2.486.003,1.533.041,1.576,1.605,1.858.371,1.549.312,1.607-1.267,1.764-4.951.494-9.9034.983-14.8493,1.53-.9185.102-1.4246-.113-1.6066-1.035-.0723-.366-.2952-.706-.3485-1.072-.2851-1.961-1.8209-2.883-3.2053-3.939-.5059-.386-1.0745-.723-1.4845-1.195-.8198-.944-1.642-1.778-3.0099-1.375-.6632-1.686-.7951-1.808-2.5886-1.759-.8238.022-1.3095-.255-1.8859-.883-.4792-.522-1.4339-.705-2.2114-.83-.8458-.137-1.7305-.036-2.5982-.036-2.2112,0-3.2937-1.061-3.254-3.28.0173-.964.0766-1.845-1.2722-1.862-.2077-.003-.4688-.233-.6093-.427-1.8071-2.5-3.7071-4.903-6.2359-6.743-.3213-.234-.5095-.766-.5687-1.187-.0232-.165.4482-.48.7453-.595c1.3054-.507.8932-1.63.8237-2.521-.0251-.32-.7098-.724-1.1601-.849-1.0329-.287-1.7894-.793-1.9485-1.896-.1449-1.003-.2761-2.02-.2676-3.03.0062-.747-.2211-1.218-.8865-1.517-.9244-.414-1.3124-1.111-1.5701-2.132-.2645-1.048-.9621-2.029-1.6267-2.923-.8963-1.206-1.4089-2.459-1.1969-3.974.1872-1.338-.1696-2.497-1.0671-3.54-.6357-.74-1.1361-1.596-1.6886-2.406-1.0996-1.611-1.1409-3.154.1135-4.628c1.4026-1.648,1.0359-3.442.6012-5.213-.2832-1.154-.8765-2.232-1.4077-3.533v0Z" transform="translate(.998765-387.2655)" fill="#fff"/><path d="M81.0782,445.173c.2319-1.627.3086-3.183.6903-4.66c1.317-5.095,7.3589-7.185,11.1527-3.878c2.085,1.818,2.6175,4.319,2.7539,6.941.027.518.0039,1.038.0039,1.583.2472.052.3862.098.5277.107c1.9057.12,2.9364.991,2.9604,2.857.0561,4.334.0241,8.669-.0504,13.003-.0273,1.585-1.1255,2.506-2.7352,2.515-4.9376.03-9.8751.059-14.8127.07-2.8401.007-3.7525-.897-3.7285-3.711.0328-3.843.0921-7.687.1544-11.53.043-2.652,1.1692-2.993,3.0833-3.297h.0002Zm2.4245.072c3.2704,0,6.1269.015,8.9825-.032.2099-.003.6061-.472.5865-.696-.1204-1.38-.1789-2.796-.5559-4.114-.5403-1.89-1.989-2.831-3.8893-2.86-1.9632-.03-3.5136.877-4.112,2.74-.486,1.513-.6522,3.129-1.0118,4.962Zm6.9249,13.899c-.144-1.078-.2248-2.081-.4271-3.058-.1356-.655-.0264-1.09.4561-1.596c1.0486-1.1.9134-2.753-.1903-3.721-1.0343-.907-2.5943-.832-3.5632.172-.9625.997-.991,2.681.0871,3.64.6167.548.6632,1.061.5216,1.774-.1793.902-.2599,1.823-.39,2.789h3.5058Z" transform="translate(.998765-387.2655)" fill="#fff"/><path d="M120.344,517.928c-1.949,0-3.796.034-5.64-.032-.313-.011-.765-.388-.888-.7-.328-.837-.564-1.721-.737-2.605-.126-.649-.448-.875-1.066-.865-1.847.027-3.694.063-5.54.036-.659-.009-.958.238-1.082.854-.119.589-.391,1.158-.44,1.749-.113,1.37-.84,1.686-2.109,1.591-1.536-.116-3.087-.027-4.799-.027.1325-.494.2249-.909.3553-1.313c2.1527-6.666,4.3137-13.329,6.4597-19.996.191-.592.423-.956,1.161-.937c2.111.052,4.224-.009,6.334.047.342.01.881.324.979.615c2.353,7.036,4.659,14.087,6.97,21.137.034.101.022.216.042.446Zm-11.119-18.274c-.795,3.18-1.537,6.151-2.287,9.149h4.646c-.784-3.04-1.542-5.983-2.359-9.149Z" transform="translate(.998765-387.2655)" fill="#fff"/><path d="M86.717,510.669v7.176h-5.8615v-22.063c1.1859,0,2.3412-.023,3.4952.005c2.1814.053,4.3793-.014,6.5392.237c3.7254.432,5.8133,2.869,5.9506,6.629.1384,3.792-1.9941,6.825-5.4641,7.548-1.4584.304-2.9792.309-4.6596.468h.0002Zm.0865-10.063v5.073c1.4395.118,2.7515.058,3.5488-1.264.5532-.918.6776-1.955.0445-2.878-.8824-1.289-2.2557-.848-3.5933-.931Z" transform="translate(.998765-387.2655)" fill="#fff"/><path d="M55.4867,501.536c-1.4729-.405-2.7907-.901-4.1527-1.114-2.5735-.403-4.3326.75-5.082,3.242-.6443,2.142-.648,4.325-.0274,6.476.648,2.245,2.464,3.461,4.9559,3.162c1.6631-.2,3.291-.692,5.0894-1.088c0,1.408.0222,2.895-.0247,4.379-.0068.214-.3064.527-.5368.61-3.4024,1.224-6.8504,1.487-10.2816.182-2.5117-.955-4.1476-2.814-4.9633-5.372-1.0128-3.177-1.0902-6.386-.1053-9.571c1.0908-3.528,3.4915-5.781,7.0737-6.631c3.342-.793,6.5751-.274,9.8044,1.217-.5976,1.539-1.1773,3.033-1.7498,4.508h.0002Z" transform="translate(.998765-387.2655)" fill="#fff"/><path d="M77.3325,497.085c-.5927,1.544-1.1675,3.042-1.7256,4.497-1.2599-.387-2.3846-.842-3.5536-1.07-3.1771-.62-4.9733.53-5.7946,3.664-.4957,1.89-.4904,3.81.0419,5.695.7193,2.547,2.4281,3.76,5.068,3.428c1.658-.209,3.2802-.702,5.0642-1.1c0,1.403.0274,2.854-.0264,4.303-.0092.247-.3201.614-.5701.701-3.6361,1.273-7.2973,1.555-10.8924-.087-2.4144-1.104-3.8226-3.124-4.5234-5.631-.8829-3.159-.9083-6.32.2099-9.44c1.2002-3.349,3.5673-5.411,7.0026-6.267c2.8941-.721,6.8423-.208,9.6995,1.307Z" transform="translate(.998765-387.2655)" fill="#fff"/><path d="M67.25,485.162c1.4509-1.757,3.1243-1.711,4.9643-.914.0628,1.073-.2747,1.814-1.5035,2.012-.8074.13-1.589.421-2.4766.667-.3347-.6-.6582-1.18-.9842-1.765Z" transform="translate(.998765-387.2655)" fill="#fff"/><path d="M81.0838,487.458c-.1038.579-.1506,1.289-1.1221,1.26-1.103-.032-2.4049-1.183-2.2405-2.197.0711-.438.6613-1.024,1.1074-1.121.9151-.198,2.2379,1.071,2.2552,2.058Z" transform="translate(.998765-387.2655)" fill="#fff"/><path d="M77.6641,491.453c.1379-.204.2772-.627.5552-.759.2778-.133.7765-.094,1.0326.082.521.359,1.0124.81,1.3813,1.32.2185.303.3747,1.013.2176,1.151-.3668.322-.9946.643-1.4183.544-1.0593-.247-1.4962-1.166-1.7684-2.338Z" transform="translate(.998765-387.2655)" fill="#fff"/><path d="M68.1227,576.094h-1.5687c-.0927-.451-.2551-.848-.487-1.189-.2278-.342-.5061-.629-.835-.861-.3247-.236-.6853-.413-1.0817-.531s-.8096-.177-1.2397-.177c-.7844,0-1.495.198-2.1317.594-.6326.397-1.1365.981-1.5118,1.753-.3711.771-.5566,1.718-.5566,2.84c0,1.121.1855,2.068.5566,2.84.3753.772.8792,1.356,1.5118,1.752.6367.396,1.3473.595,2.1317.595.4301,0,.8434-.059,1.2397-.178.3964-.118.757-.293,1.0817-.525.3289-.236.6072-.525.835-.866.2319-.346.3943-.742.487-1.189h1.5687c-.118.662-.3331,1.254-.6452,1.777s-.7.968-1.1638,1.335c-.4639.362-.9847.639-1.5624.828-.5735.19-1.1871.285-1.8407.285-1.1049,0-2.0874-.27-2.9477-.81-.8603-.539-1.5371-1.307-2.0305-2.302s-.7401-2.176-.7401-3.542c0-1.367.2467-2.547.7401-3.543.4934-.995,1.1702-1.762,2.0305-2.302s1.8428-.81,2.9477-.81c.6536,0,1.2672.095,1.8407.285.5777.19,1.0985.468,1.5624.835.4638.363.8518.805,1.1638,1.328.3121.519.5272,1.111.6452,1.778Zm12.9593,0h-1.5687c-.0928-.451-.2551-.848-.487-1.189-.2278-.342-.5061-.629-.835-.861-.3247-.236-.6853-.413-1.0817-.531s-.8096-.177-1.2398-.177c-.7843,0-1.4949.198-2.1316.594-.6326.397-1.1365.981-1.5118,1.753-.3711.771-.5567,1.718-.5567,2.84c0,1.121.1856,2.068.5567,2.84.3753.772.8792,1.356,1.5118,1.752.6367.396,1.3473.595,2.1316.595.4302,0,.8434-.059,1.2398-.178.3964-.118.757-.293,1.0817-.525.3289-.236.6072-.525.835-.866.2319-.346.3942-.742.487-1.189h1.5687c-.118.662-.3331,1.254-.6452,1.777s-.7.968-1.1639,1.335c-.4638.362-.9846.639-1.5623.828-.5736.19-1.1871.285-1.8408.285-1.1048,0-2.0874-.27-2.9476-.81-.8603-.539-1.5371-1.307-2.0305-2.302s-.7401-2.176-.7401-3.542c0-1.367.2467-2.547.7401-3.543.4934-.995,1.1702-1.762,2.0305-2.302.8602-.54,1.8428-.81,2.9476-.81.6537,0,1.2672.095,1.8408.285.5777.19,1.0985.468,1.5623.835.4639.363.8519.805,1.1639,1.328.3121.519.5272,1.111.6452,1.778ZM83.617,585v-12.955h4.3772c1.0163,0,1.847.184,2.4922.551.6494.362,1.1302.854,1.4422,1.474.3121.619.4681,1.311.4681,2.074c0,.764-.156,1.457-.4681,2.081-.3078.625-.7843,1.122-1.4295,1.493-.6452.367-1.4718.551-2.4796.551h-3.1375v-1.392h3.0869c.6958,0,1.2545-.12,1.6762-.361.4217-.24.7275-.565.9172-.974.194-.413.291-.879.291-1.398c0-.518-.097-.982-.291-1.391-.1897-.409-.4976-.73-.9235-.962-.4259-.236-.991-.354-1.6952-.354h-2.7579v11.563h-1.5687Zm10.516,0h-1.6446l4.7568-12.955h1.6193L103.621,585h-1.644l-3.8716-10.905h-.1012L94.133,585Zm.6073-5.06h6.6287v1.391h-6.6287v-1.391Z" transform="translate(.998765-387.2655)" fill="#fff"/></svg>
