<svg xmlns="http://www.w3.org/2000/svg" width="120" height="70" fill="none"><path fill="#fff" d="M60.08 62.17h1.08c1.2 0 1.81-.52 1.81-1.57s-.6-1.57-1.8-1.57h-1.1v3.14Zm0 6.83H56.8V56.38h5.22c1.41 0 2.5.37 3.24 1.1a4.14 4.14 0 0 1 1.14 3.12c0 1.34-.38 2.38-1.14 3.11-.75.74-1.83 1.1-3.24 1.1h-1.94V69ZM46.43 56.38v6.86l.03 1.14c.04.38.12.73.26 1.04.14.31.36.57.67.77.3.19.72.28 1.27.28.54 0 .96-.1 1.25-.28.3-.2.53-.46.67-.77.15-.31.23-.66.25-1.04.04-.39.05-.77.05-1.14v-6.86h3.26v7.32c0 1.96-.45 3.4-1.35 4.3-.9.9-2.27 1.35-4.13 1.35-1.87 0-3.25-.45-4.15-1.35-.9-.9-1.36-2.34-1.36-4.3v-7.32h3.28ZM30.54 62.7a3.36 3.36 0 0 0 1.05 2.49 4 4 0 0 0 1.12.73 3.79 3.79 0 0 0 2.73 0 3.57 3.57 0 0 0 1.93-1.84c.19-.42.28-.89.28-1.39a3.36 3.36 0 0 0-1.07-2.5 3.5 3.5 0 0 0-1.14-.71 3.58 3.58 0 0 0-4.62 1.82 3.4 3.4 0 0 0-.28 1.4Zm-3.43 0a6.53 6.53 0 0 1 4.15-6.15 7.5 7.5 0 0 1 2.83-.52 7.5 7.5 0 0 1 2.8.52 6.45 6.45 0 0 1 4.2 6.14 6.43 6.43 0 0 1-1.97 4.74 6.66 6.66 0 0 1-2.22 1.42c-.86.33-1.8.5-2.81.5a7.72 7.72 0 0 1-2.83-.5 6.7 6.7 0 0 1-3.63-3.53 6.65 6.65 0 0 1-.52-2.63Zm-7.79-.68h.62a2.4 2.4 0 0 0 1.5-.4c.34-.27.51-.65.51-1.15 0-.5-.17-.89-.52-1.16a2.4 2.4 0 0 0-1.49-.4h-.62v3.11ZM26.53 69h-4.08l-3.13-4.85V69h-3.28V56.38h5.1c.71 0 1.32.11 1.85.32a3.4 3.4 0 0 1 2.06 2.08c.17.47.26.97.26 1.5a3.7 3.7 0 0 1-.7 2.35c-.46.59-1.14.99-2.04 1.2L26.53 69ZM7.46 61.94h6.51c0 .67-.03 1.28-.08 1.82a6.46 6.46 0 0 1-1.3 3.28c-.4.5-.87.93-1.41 1.27-.54.34-1.13.6-1.78.77a7.64 7.64 0 0 1-4.73-.21 6.3 6.3 0 0 1-2.08-1.36 6.29 6.29 0 0 1-1.35-2.1 7.41 7.41 0 0 1-.49-2.73c0-.99.16-1.88.47-2.7a5.96 5.96 0 0 1 3.48-3.46 7.51 7.51 0 0 1 2.76-.49c1.32 0 2.47.29 3.47.86a5.9 5.9 0 0 1 2.36 2.64l-3.12 1.29a3.14 3.14 0 0 0-1.13-1.5 3.1 3.1 0 0 0-4.62 1.84 5.17 5.17 0 0 0-.24 1.62c0 .53.07 1.03.2 1.48.15.46.36.86.64 1.2.28.33.62.59 1.04.78a4.3 4.3 0 0 0 2.38.17 2.16 2.16 0 0 0 1.72-1.93h-2.7v-2.54Zm105.08-18h6.51a18 18 0 0 1-.08 1.82 6.44 6.44 0 0 1-1.29 3.28c-.4.5-.88.93-1.42 1.27-.54.34-1.13.6-1.78.77a7.64 7.64 0 0 1-4.73-.21 6.3 6.3 0 0 1-2.08-1.36 6.28 6.28 0 0 1-1.35-2.1 7.4 7.4 0 0 1-.49-2.73c0-.99.16-1.88.47-2.7a6.08 6.08 0 0 1 3.48-3.46 7.52 7.52 0 0 1 2.76-.49c1.32 0 2.47.29 3.47.86a5.89 5.89 0 0 1 2.36 2.64l-3.12 1.29a3.15 3.15 0 0 0-1.13-1.5 3.1 3.1 0 0 0-4.62 1.84 5.18 5.18 0 0 0-.23 1.62 5 5 0 0 0 .2 1.48 3 3 0 0 0 1.67 1.98 4.3 4.3 0 0 0 2.38.17 2.16 2.16 0 0 0 1.72-1.93h-2.7v-2.54ZM90.93 51V38.38h3.28l6.06 7.72v-7.72h3.26V51h-3.26l-6.06-7.71V51h-3.28ZM88.3 38.38V51H85V38.38h3.28Zm-7.44 2.78V51h-3.28v-9.84h-2.7v-2.78h8.68v2.78h-2.7Zm-9.74-2.78v9.84h3.93V51h-7.2V38.38h3.27Zm-13.64 0v6.86c0 .37 0 .75.03 1.14.03.38.12.73.25 1.04.15.31.37.57.67.77.3.19.73.28 1.27.28.55 0 .97-.1 1.26-.28.3-.2.52-.46.67-.77.14-.31.23-.66.25-1.04.03-.39.05-.77.05-1.14v-6.86h3.26v7.32c0 1.96-.45 3.4-1.35 4.3-.9.9-2.27 1.35-4.14 1.35-1.86 0-3.24-.45-4.15-1.35-.9-.9-1.35-2.34-1.35-4.3v-7.32h3.28Zm-7.18 3.23a3.57 3.57 0 0 0-2.1-.85c-.42 0-.77.1-1.04.3-.27.2-.4.46-.4.79 0 .22.07.4.2.55.13.14.3.27.52.38.22.1.47.2.74.27l.82.25a5 5 0 0 1 2.34 1.44c.5.6.75 1.37.75 2.33 0 .65-.11 1.23-.33 1.75-.22.53-.53.98-.96 1.36-.41.37-.92.65-1.54.85-.6.22-1.28.32-2.05.32a7.6 7.6 0 0 1-4.44-1.42l1.4-2.64c.5.43.98.75 1.46.97.48.2.96.31 1.42.31.54 0 .94-.12 1.2-.36a1.11 1.11 0 0 0 .3-1.33.99.99 0 0 0-.34-.38 2.45 2.45 0 0 0-.62-.34l-.9-.33c-.43-.13-.85-.28-1.26-.44-.4-.16-.76-.38-1.09-.65-.3-.27-.56-.6-.77-1a3.73 3.73 0 0 1-.28-1.56c0-.62.1-1.19.3-1.69a3.83 3.83 0 0 1 2.24-2.16c.55-.2 1.16-.3 1.83-.3.62 0 1.27.1 1.95.27.69.17 1.34.42 1.96.75l-1.3 2.56ZM28.14 51V38.38h3.28l6.05 7.72v-7.72h3.27V51h-3.27l-6.05-7.71V51h-3.28Zm-12.62-6.3a3.36 3.36 0 0 0 1.06 2.49c.32.3.7.55 1.12.73a3.79 3.79 0 0 0 2.73 0 3.57 3.57 0 0 0 1.92-1.84c.19-.42.28-.89.28-1.39a3.36 3.36 0 0 0-1.07-2.5c-.32-.3-.7-.54-1.13-.71a3.58 3.58 0 0 0-4.62 1.82c-.2.43-.29.89-.29 1.4Zm-3.43 0a6.53 6.53 0 0 1 4.15-6.15 7.5 7.5 0 0 1 2.83-.52c1.02 0 1.95.18 2.81.52a6.45 6.45 0 0 1 4.18 6.14 6.43 6.43 0 0 1-1.97 4.74 6.66 6.66 0 0 1-2.2 1.42c-.87.33-1.8.5-2.82.5a7.72 7.72 0 0 1-2.83-.5 6.7 6.7 0 0 1-3.63-3.53 6.65 6.65 0 0 1-.52-2.63Zm-1.69-2.1a3.5 3.5 0 0 0-2.8-1.39 3.28 3.28 0 0 0-2.44 1 3.36 3.36 0 0 0-.98 2.47 3.39 3.39 0 0 0 .97 2.48 3.47 3.47 0 0 0 2.43 1.01c1.05 0 2-.44 2.83-1.34v3.89l-.34.11a8.94 8.94 0 0 1-2.7.52 6.66 6.66 0 0 1-4.6-1.87 7.12 7.12 0 0 1-1.46-2.13 6.54 6.54 0 0 1-.56-2.7 6.48 6.48 0 0 1 4.12-6.12 6.5 6.5 0 0 1 4-.33c.49.1 1 .26 1.54.49v3.91ZM87.02 32V19.38h3.28l6.06 7.72v-7.72h3.26V32h-3.26l-6.06-7.71V32h-3.28Zm-6.55-4.68L79 23.12l-1.48 4.2h2.95Zm.87 2.49h-4.69L75.9 32h-3.5l4.8-12.62h3.59L85.59 32h-3.5l-.75-2.2ZM70.97 19.38V32H67.7V19.38h3.28Zm-13.15 9.84h.75a4.1 4.1 0 0 0 1.53-.27 3.16 3.16 0 0 0 1.82-1.84c.17-.43.25-.9.25-1.42 0-.5-.08-.97-.25-1.4a3.18 3.18 0 0 0-1.84-1.86 4.02 4.02 0 0 0-1.5-.27h-.76v7.06Zm-3.28-9.84h4.85c.86 0 1.67.18 2.41.52.76.35 1.42.81 1.98 1.4a6.21 6.21 0 0 1 1.34 6.78 6.38 6.38 0 0 1-3.3 3.4 5.7 5.7 0 0 1-2.43.52h-4.85V19.38Zm-8.58 5.64h.62a2.4 2.4 0 0 0 1.49-.4c.34-.27.51-.65.51-1.15 0-.5-.17-.89-.51-1.16a2.4 2.4 0 0 0-1.5-.4h-.61v3.11Zm7.2 6.98H49.1l-3.13-4.85V32h-3.28V19.38h5.1c.7 0 1.32.11 1.84.32a3.4 3.4 0 0 1 2.06 2.08c.18.47.27.97.27 1.5a3.7 3.7 0 0 1-.7 2.35c-.46.59-1.14.99-2.05 1.2L53.17 32Zm-17.04-4.68-1.47-4.2-1.47 4.2h2.94ZM37 29.8h-4.68l-.76 2.2h-3.5l4.8-12.62h3.58L41.24 32h-3.5L37 29.8ZM19.32 19.38v6.86c0 .37.01.75.04 1.14.03.38.11.73.25 1.04.14.31.37.57.67.77.3.19.72.28 1.27.28s.96-.1 1.25-.28c.3-.2.53-.46.67-.77.15-.31.23-.66.25-1.04.04-.39.05-.77.05-1.14v-6.86h3.27v7.32c0 1.96-.45 3.4-1.36 4.3-.9.9-2.27 1.35-4.13 1.35-1.86 0-3.25-.45-4.15-1.35-.9-.9-1.36-2.34-1.36-4.3v-7.32h3.28ZM7.46 24.94h6.51c0 .67-.03 1.28-.08 1.82a6.46 6.46 0 0 1-1.3 3.28c-.4.5-.87.93-1.41 1.27-.54.34-1.13.6-1.78.77a7.64 7.64 0 0 1-4.73-.21 6.3 6.3 0 0 1-2.08-1.36 6.29 6.29 0 0 1-1.35-2.1 7.41 7.41 0 0 1-.49-2.73c0-.99.16-1.88.47-2.7a5.96 5.96 0 0 1 3.48-3.46 7.51 7.51 0 0 1 2.76-.49c1.32 0 2.47.29 3.47.86a5.9 5.9 0 0 1 2.36 2.64l-3.12 1.29a3.14 3.14 0 0 0-1.13-1.5 3.1 3.1 0 0 0-4.62 1.84 5.17 5.17 0 0 0-.24 1.62c0 .53.07 1.03.2 1.48.15.46.36.86.64 1.2.28.33.62.59 1.04.78a4.3 4.3 0 0 0 2.38.17 2.16 2.16 0 0 0 1.72-1.93h-2.7v-2.54ZM48.98 6.02h.62a2.4 2.4 0 0 0 1.49-.4c.34-.27.52-.65.52-1.15 0-.5-.18-.89-.52-1.16a2.4 2.4 0 0 0-1.5-.4h-.61v3.11ZM56.19 13h-4.08l-3.13-4.85V13H45.7V.38h5.1c.7 0 1.32.11 1.84.32a3.4 3.4 0 0 1 2.06 2.08c.18.47.27.97.27 1.5a3.7 3.7 0 0 1-.7 2.35c-.46.59-1.14.99-2.04 1.2L56.19 13ZM43.34 3.16h-3.9v2.11h3.68v2.78h-3.68v2.17h3.9V13h-7.18V.38h7.18v2.78Zm-15.49 7.3h.72c.83 0 1.42-.1 1.78-.32.35-.21.53-.55.53-1.02s-.18-.81-.53-1.02a3.66 3.66 0 0 0-1.78-.32h-.72v2.68Zm0-5.12h.6c1.03 0 1.54-.41 1.54-1.22 0-.82-.5-1.23-1.53-1.23h-.6v2.45ZM24.57.38h4.89c1.16 0 2.04.28 2.64.84.6.56.9 1.36.9 2.41 0 .64-.11 1.17-.35 1.59a2.8 2.8 0 0 1-1.03 1.05c.47.1.86.23 1.19.42a2.46 2.46 0 0 1 1.25 1.57 4.14 4.14 0 0 1-.18 2.65c-.2.46-.5.84-.87 1.15-.37.32-.82.55-1.36.7-.53.16-1.14.24-1.8.24h-5.28V.38Zm-9.04 6.56L10.93.38h3.91l2.34 3.45L19.51.38h3.91l-4.61 6.56V13h-3.28V6.94ZM10.4 4.6a3.5 3.5 0 0 0-2.8-1.39 3.28 3.28 0 0 0-2.44 1 3.36 3.36 0 0 0-.98 2.47 3.39 3.39 0 0 0 .97 2.48 3.47 3.47 0 0 0 2.43 1.01c1.05 0 2-.44 2.83-1.34v3.89l-.34.11a8.94 8.94 0 0 1-2.7.52 6.66 6.66 0 0 1-4.6-1.87A7.12 7.12 0 0 1 1.3 9.35a6.54 6.54 0 0 1-.56-2.7A6.48 6.48 0 0 1 4.87.54a6.5 6.5 0 0 1 4-.33c.49.1 1 .26 1.54.49v3.9Z"/></svg>