<svg width="120" height="70" viewBox="0 0 120 70" fill="none" xmlns="http://www.w3.org/2000/svg">
<path d="M60.0754 62.1733H61.163C62.3677 62.1733 62.97 61.649 62.97 60.6005C62.97 59.552 62.3677 59.0277 61.163 59.0277H60.0754V62.1733ZM60.0754 69H56.7959V56.384H62.0163C63.4329 56.384 64.5149 56.7521 65.2623 57.4883C66.0208 58.2246 66.4001 59.2619 66.4001 60.6005C66.4001 61.9391 66.0208 62.9764 65.2623 63.7127C64.5149 64.4489 63.4329 64.817 62.0163 64.817H60.0754V69Z" fill="white"/>
<path d="M46.4313 56.384V63.2442C46.4313 63.6123 46.4425 63.9915 46.4648 64.3819C46.4983 64.7612 46.5819 65.107 46.7158 65.4193C46.8608 65.7317 47.0839 65.9882 47.3851 66.189C47.6862 66.3786 48.1101 66.4734 48.6567 66.4734C49.2033 66.4734 49.6216 66.3786 49.9116 66.189C50.2128 65.9882 50.4359 65.7317 50.5809 65.4193C50.7259 65.107 50.8095 64.7612 50.8319 64.3819C50.8653 63.9915 50.8821 63.6123 50.8821 63.2442V56.384H54.1448V63.6959C54.1448 65.6592 53.693 67.0925 52.7895 67.9961C51.8971 68.8996 50.5195 69.3514 48.6567 69.3514C46.7939 69.3514 45.4107 68.8996 44.5071 67.9961C43.6036 67.0925 43.1519 65.6592 43.1519 63.6959V56.384H46.4313Z" fill="white"/>
<path d="M30.5394 62.6921C30.5394 63.194 30.6343 63.6569 30.8239 64.0808C31.0135 64.5047 31.2701 64.8728 31.5936 65.1851C31.917 65.4975 32.2907 65.7429 32.7146 65.9213C33.1496 66.0887 33.607 66.1723 34.0866 66.1723C34.5663 66.1723 35.018 66.0887 35.4419 65.9213C35.877 65.7429 36.2562 65.4975 36.5797 65.1851C36.9143 64.8728 37.1765 64.5047 37.3661 64.0808C37.5557 63.6569 37.6506 63.194 37.6506 62.6921C37.6506 62.1901 37.5557 61.7272 37.3661 61.3033C37.1765 60.8794 36.9143 60.5113 36.5797 60.199C36.2562 59.8867 35.877 59.6468 35.4419 59.4795C35.018 59.301 34.5663 59.2118 34.0866 59.2118C33.607 59.2118 33.1496 59.301 32.7146 59.4795C32.2907 59.6468 31.917 59.8867 31.5936 60.199C31.2701 60.5113 31.0135 60.8794 30.8239 61.3033C30.6343 61.7272 30.5394 62.1901 30.5394 62.6921ZM27.1094 62.6921C27.1094 61.7551 27.2823 60.885 27.6281 60.0819C27.9739 59.2676 28.4535 58.5593 29.067 57.9569C29.6805 57.3545 30.4112 56.8861 31.2589 56.5514C32.1178 56.2056 33.0604 56.0327 34.0866 56.0327C35.1017 56.0327 36.0387 56.2056 36.8976 56.5514C37.7565 56.8861 38.4927 57.3545 39.1062 57.9569C39.7309 58.5593 40.2161 59.2676 40.5619 60.0819C40.9077 60.885 41.0806 61.7551 41.0806 62.6921C41.0806 63.6291 40.9077 64.5047 40.5619 65.319C40.2161 66.1221 39.7309 66.8249 39.1062 67.4272C38.4927 68.0296 37.7565 68.5037 36.8976 68.8494C36.0387 69.1841 35.1017 69.3514 34.0866 69.3514C33.0604 69.3514 32.1178 69.1841 31.2589 68.8494C30.4112 68.5037 29.6805 68.0296 29.067 67.4272C28.4535 66.8249 27.9739 66.1221 27.6281 65.319C27.2823 64.5047 27.1094 63.6291 27.1094 62.6921Z" fill="white"/>
<path d="M19.3234 62.0227H19.9425C20.5895 62.0227 21.0859 61.8889 21.4317 61.6212C21.7775 61.3534 21.9503 60.9686 21.9503 60.4666C21.9503 59.9647 21.7775 59.5799 21.4317 59.3121C21.0859 59.0444 20.5895 58.9106 19.9425 58.9106H19.3234V62.0227ZM26.5349 69H22.4523L19.3234 64.1477V69H16.0439V56.384H21.1472C21.85 56.384 22.4635 56.49 22.9877 56.7019C23.512 56.9027 23.9415 57.1816 24.2761 57.5385C24.6219 57.8955 24.8785 58.3082 25.0458 58.7767C25.2243 59.2452 25.3135 59.7472 25.3135 60.2826C25.3135 61.2419 25.0792 62.0227 24.6107 62.6251C24.1534 63.2163 23.473 63.6178 22.5694 63.8298L26.5349 69Z" fill="white"/>
<path d="M7.46247 61.9391H13.9712C13.9712 62.6084 13.9433 63.2163 13.8876 63.7629C13.8318 64.3095 13.7203 64.817 13.5529 65.2855C13.3187 65.9437 13.0008 66.5293 12.5992 67.0424C12.1976 67.5443 11.7236 67.9682 11.177 68.314C10.6416 68.6487 10.0504 68.9052 9.40339 69.0837C8.75642 69.2622 8.07598 69.3514 7.36208 69.3514C6.38047 69.3514 5.48252 69.1897 4.66822 68.8662C3.86509 68.5427 3.1735 68.0909 2.59345 67.5109C2.01341 66.9197 1.56164 66.2169 1.23816 65.4026C0.914673 64.5772 0.75293 63.6681 0.75293 62.6753C0.75293 61.6937 0.909095 60.7958 1.22143 59.9815C1.54491 59.156 1.99668 58.4533 2.57672 57.8732C3.16792 57.2932 3.87624 56.8414 4.70169 56.5179C5.52713 56.1945 6.4474 56.0327 7.46247 56.0327C8.77873 56.0327 9.93324 56.3172 10.926 56.8861C11.9188 57.4549 12.7052 58.3362 13.2852 59.5297L10.1731 60.8181C9.88304 60.1265 9.50378 59.6301 9.03528 59.3289C8.57794 59.0277 8.05367 58.8772 7.46247 58.8772C6.97167 58.8772 6.52548 58.972 6.12391 59.1616C5.72234 59.3401 5.37655 59.6022 5.08652 59.948C4.80766 60.2826 4.58456 60.6898 4.41724 61.1694C4.26108 61.6491 4.183 62.1845 4.183 62.7757C4.183 63.3112 4.24992 63.8075 4.38378 64.2649C4.52879 64.7222 4.74073 65.1182 5.0196 65.4529C5.29846 65.7875 5.64426 66.0496 6.05698 66.2393C6.46971 66.4177 6.94936 66.507 7.49594 66.507C7.81942 66.507 8.13175 66.4735 8.43293 66.4066C8.73411 66.3285 9.00182 66.2114 9.23607 66.0552C9.48147 65.8879 9.68226 65.6759 9.83842 65.4194C9.99459 65.1628 10.1006 64.8505 10.1563 64.4824H7.46247V61.9391Z" fill="white"/>
<path d="M112.544 43.9391H119.053C119.053 44.6084 119.025 45.2163 118.969 45.7629C118.913 46.3095 118.802 46.817 118.634 47.2855C118.4 47.9437 118.082 48.5293 117.681 49.0424C117.279 49.5444 116.805 49.9682 116.259 50.314C115.723 50.6487 115.132 50.9052 114.485 51.0837C113.838 51.2622 113.158 51.3514 112.444 51.3514C111.462 51.3514 110.564 51.1897 109.75 50.8662C108.947 50.5427 108.255 50.0909 107.675 49.5109C107.095 48.9197 106.643 48.2169 106.32 47.4027C105.996 46.5772 105.834 45.6681 105.834 44.6753C105.834 43.6937 105.991 42.7958 106.303 41.9815C106.626 41.156 107.078 40.4533 107.658 39.8732C108.249 39.2932 108.958 38.8414 109.783 38.5179C110.609 38.1945 111.529 38.0327 112.544 38.0327C113.86 38.0327 115.015 38.3172 116.008 38.8861C117 39.4549 117.787 40.3362 118.367 41.5297L115.255 42.8181C114.965 42.1265 114.585 41.6301 114.117 41.3289C113.659 41.0277 113.135 40.8772 112.544 40.8772C112.053 40.8772 111.607 40.972 111.205 41.1616C110.804 41.3401 110.458 41.6022 110.168 41.948C109.889 42.2826 109.666 42.6898 109.499 43.1694C109.343 43.6491 109.265 44.1845 109.265 44.7757C109.265 45.3111 109.331 45.8075 109.465 46.2649C109.61 46.7222 109.822 47.1182 110.101 47.4528C110.38 47.7875 110.726 48.0496 111.139 48.2393C111.551 48.4177 112.031 48.507 112.577 48.507C112.901 48.507 113.213 48.4735 113.514 48.4066C113.816 48.3285 114.083 48.2114 114.318 48.0552C114.563 47.8879 114.764 47.6759 114.92 47.4194C115.076 47.1628 115.182 46.8505 115.238 46.4824H112.544V43.9391Z" fill="white"/>
<path d="M90.9297 51V38.384H94.2092L100.266 46.0975V38.384H103.529V51H100.266L94.2092 43.2865V51H90.9297Z" fill="white"/>
<path d="M88.2941 38.384V51H85.0146V38.384H88.2941Z" fill="white"/>
<path d="M80.862 41.1615V51H77.5825V41.1615H74.8887V38.384H83.5559V41.1615H80.862Z" fill="white"/>
<path d="M71.1208 38.384V48.2225H75.0528V51H67.8413V38.384H71.1208Z" fill="white"/>
<path d="M57.4772 38.384V45.2442C57.4772 45.6123 57.4884 45.9915 57.5107 46.3819C57.5442 46.7612 57.6278 47.107 57.7617 47.4193C57.9067 47.7317 58.1298 47.9882 58.431 48.189C58.7321 48.3786 59.156 48.4734 59.7026 48.4734C60.2492 48.4734 60.6675 48.3786 60.9575 48.189C61.2587 47.9882 61.4818 47.7317 61.6268 47.4193C61.7718 47.107 61.8554 46.7612 61.8778 46.3819C61.9112 45.9915 61.928 45.6123 61.928 45.2442V38.384H65.1907V45.6959C65.1907 47.6592 64.7389 49.0925 63.8354 49.9961C62.943 50.8996 61.5654 51.3514 59.7026 51.3514C57.8398 51.3514 56.4566 50.8996 55.553 49.9961C54.6495 49.0925 54.1978 47.6592 54.1978 45.6959V38.384H57.4772Z" fill="white"/>
<path d="M50.3075 41.6134C49.9505 41.3233 49.5936 41.1114 49.2366 40.9776C48.8797 40.8325 48.5339 40.76 48.1992 40.76C47.7754 40.76 47.4296 40.8604 47.1618 41.0612C46.8941 41.262 46.7603 41.5241 46.7603 41.8476C46.7603 42.0707 46.8272 42.2548 46.9611 42.3998C47.0949 42.5448 47.2678 42.6731 47.4798 42.7846C47.7029 42.885 47.9483 42.9742 48.216 43.0523C48.4948 43.1304 48.7681 43.2141 49.0358 43.3033C50.1067 43.6603 50.8875 44.1399 51.3783 44.7423C51.8803 45.3335 52.1313 46.1087 52.1313 47.068C52.1313 47.715 52.0197 48.3006 51.7966 48.8249C51.5847 49.3491 51.2668 49.8009 50.8429 50.1802C50.4302 50.5483 49.9171 50.8327 49.3036 51.0335C48.7012 51.2454 48.0152 51.3514 47.2455 51.3514C45.6504 51.3514 44.1724 50.8773 42.8115 49.9292L44.217 47.2855C44.7078 47.7206 45.193 48.044 45.6727 48.256C46.1524 48.4679 46.6264 48.5739 47.0949 48.5739C47.6303 48.5739 48.0263 48.4512 48.2829 48.2058C48.5506 47.9604 48.6845 47.6815 48.6845 47.3692C48.6845 47.1796 48.651 47.0178 48.5841 46.884C48.5171 46.7389 48.4056 46.6107 48.2494 46.4991C48.0933 46.3764 47.8869 46.2649 47.6303 46.1645C47.3849 46.0641 47.0838 45.9525 46.7268 45.8298C46.3029 45.696 45.8846 45.551 45.4719 45.3948C45.0703 45.2275 44.7078 45.01 44.3843 44.7423C44.072 44.4745 43.8154 44.1399 43.6147 43.7383C43.425 43.3256 43.3302 42.8069 43.3302 42.1823C43.3302 41.5576 43.4306 40.9943 43.6314 40.4923C43.8433 39.9792 44.1334 39.5442 44.5015 39.1872C44.8807 38.8191 45.3381 38.5347 45.8735 38.3339C46.4201 38.1331 47.028 38.0327 47.6973 38.0327C48.3219 38.0327 48.9745 38.122 49.6549 38.3004C50.3354 38.4678 50.9879 38.7187 51.6126 39.0534L50.3075 41.6134Z" fill="white"/>
<path d="M28.1357 51V38.384H31.4152L37.4722 46.0975V38.384H40.735V51H37.4722L31.4152 43.2865V51H28.1357Z" fill="white"/>
<path d="M15.5228 44.6921C15.5228 45.194 15.6177 45.6569 15.8073 46.0808C15.9969 46.5047 16.2535 46.8728 16.577 47.1851C16.9004 47.4975 17.2741 47.7429 17.698 47.9213C18.133 48.0887 18.5904 48.1723 19.07 48.1723C19.5497 48.1723 20.0014 48.0887 20.4253 47.9213C20.8604 47.7429 21.2396 47.4975 21.5631 47.1851C21.8977 46.8728 22.1599 46.5047 22.3495 46.0808C22.5391 45.6569 22.634 45.194 22.634 44.6921C22.634 44.1901 22.5391 43.7272 22.3495 43.3033C22.1599 42.8794 21.8977 42.5113 21.5631 42.199C21.2396 41.8867 20.8604 41.6468 20.4253 41.4795C20.0014 41.301 19.5497 41.2118 19.07 41.2118C18.5904 41.2118 18.133 41.301 17.698 41.4795C17.2741 41.6468 16.9004 41.8867 16.577 42.199C16.2535 42.5113 15.9969 42.8794 15.8073 43.3033C15.6177 43.7272 15.5228 44.1901 15.5228 44.6921ZM12.0928 44.6921C12.0928 43.7551 12.2657 42.885 12.6115 42.0819C12.9573 41.2676 13.4369 40.5593 14.0504 39.9569C14.6639 39.3545 15.3946 38.8861 16.2423 38.5514C17.1012 38.2056 18.0438 38.0327 19.07 38.0327C20.0851 38.0327 21.0221 38.2056 21.881 38.5514C22.7399 38.8861 23.4761 39.3545 24.0896 39.9569C24.7143 40.5593 25.1995 41.2676 25.5453 42.0819C25.8911 42.885 26.064 43.7551 26.064 44.6921C26.064 45.6291 25.8911 46.5047 25.5453 47.319C25.1995 48.1221 24.7143 48.8249 24.0896 49.4272C23.4761 50.0296 22.7399 50.5037 21.881 50.8494C21.0221 51.1841 20.0851 51.3514 19.07 51.3514C18.0438 51.3514 17.1012 51.1841 16.2423 50.8494C15.3946 50.5037 14.6639 50.0296 14.0504 49.4272C13.4369 48.8249 12.9573 48.1221 12.6115 47.319C12.2657 46.5047 12.0928 45.6291 12.0928 44.6921Z" fill="white"/>
<path d="M10.4073 42.6006C9.64879 41.6747 8.7118 41.2118 7.59633 41.2118C7.10552 41.2118 6.64818 41.301 6.2243 41.4795C5.81158 41.658 5.45463 41.9034 5.15345 42.2157C4.85228 42.5169 4.61245 42.8794 4.43398 43.3033C4.26666 43.7272 4.183 44.1845 4.183 44.6753C4.183 45.1773 4.26666 45.6402 4.43398 46.0641C4.61245 46.488 4.85228 46.8561 5.15345 47.1684C5.46578 47.4807 5.82831 47.7261 6.24103 47.9046C6.65376 48.0831 7.09995 48.1723 7.5796 48.1723C8.62814 48.1723 9.57071 47.7261 10.4073 46.8338V50.7156L10.0727 50.8327C9.57071 51.0112 9.10221 51.1395 8.66718 51.2176C8.23215 51.3068 7.80269 51.3514 7.37881 51.3514C6.50875 51.3514 5.67215 51.1897 4.86901 50.8662C4.07703 50.5315 3.37428 50.0686 2.76077 49.4774C2.15842 48.8751 1.67319 48.1667 1.30509 47.3525C0.936982 46.527 0.75293 45.6291 0.75293 44.6586C0.75293 43.6881 0.931405 42.8013 1.28835 41.9982C1.65646 41.1839 2.14169 40.4867 2.74404 39.9067C3.35755 39.3155 4.06587 38.8582 4.86901 38.5347C5.67215 38.2 6.51432 38.0327 7.39555 38.0327C7.89751 38.0327 8.38831 38.0885 8.86796 38.2C9.35877 38.3004 9.87189 38.4622 10.4073 38.6853V42.6006Z" fill="white"/>
<path d="M87.0244 32V19.384H90.3039L96.3609 27.0975V19.384H99.6236V32H96.3609L90.3039 24.2865V32H87.0244Z" fill="white"/>
<path d="M80.4696 27.315L78.9972 23.1153L77.5248 27.315H80.4696ZM81.3397 29.8081H76.6547L75.9018 32H72.4048L77.2069 19.384H80.7875L85.5896 32H82.0926L81.3397 29.8081Z" fill="white"/>
<path d="M70.9738 19.384V32H67.6943V19.384H70.9738Z" fill="white"/>
<path d="M57.8205 29.2225H58.5734C59.1423 29.2225 59.6499 29.1332 60.096 28.9548C60.5422 28.7763 60.9159 28.5309 61.2171 28.2185C61.5294 27.9062 61.7637 27.5381 61.9198 27.1142C62.0872 26.6792 62.1708 26.2051 62.1708 25.692C62.1708 25.19 62.0872 24.7215 61.9198 24.2865C61.7525 23.8515 61.5127 23.4778 61.2004 23.1655C60.8992 22.8531 60.5255 22.6077 60.0793 22.4293C59.6331 22.2508 59.1312 22.1615 58.5734 22.1615H57.8205V29.2225ZM54.541 19.384H59.3933C60.2522 19.384 61.0554 19.5569 61.8027 19.9027C62.5612 20.2485 63.2194 20.7114 63.7771 21.2915C64.346 21.8604 64.7922 22.5297 65.1157 23.2993C65.4391 24.0578 65.6009 24.8554 65.6009 25.692C65.6009 26.5175 65.4391 27.315 65.1157 28.0847C64.8033 28.8432 64.3627 29.5125 63.7938 30.0925C63.2361 30.6726 62.578 31.1355 61.8194 31.4813C61.0721 31.8271 60.2634 32 59.3933 32H54.541V19.384Z" fill="white"/>
<path d="M45.9577 25.0227H46.5768C47.2238 25.0227 47.7201 24.8889 48.0659 24.6212C48.4117 24.3534 48.5846 23.9686 48.5846 23.4666C48.5846 22.9647 48.4117 22.5798 48.0659 22.3121C47.7201 22.0444 47.2238 21.9106 46.5768 21.9106H45.9577V25.0227ZM53.1692 32H49.0866L45.9577 27.1477V32H42.6782V19.384H47.7815C48.4842 19.384 49.0977 19.49 49.622 19.7019C50.1463 19.9027 50.5757 20.1816 50.9104 20.5385C51.2562 20.8955 51.5127 21.3082 51.6801 21.7767C51.8585 22.2452 51.9478 22.7472 51.9478 23.2826C51.9478 24.2419 51.7135 25.0227 51.245 25.6251C50.7877 26.2163 50.1072 26.6178 49.2037 26.8298L53.1692 32Z" fill="white"/>
<path d="M36.1229 27.315L34.6505 23.1153L33.1781 27.315H36.1229ZM36.993 29.8081H32.308L31.5551 32H28.0581L32.8602 19.384H36.4409L41.2429 32H37.746L36.993 29.8081Z" fill="white"/>
<path d="M19.3234 19.384V26.2442C19.3234 26.6123 19.3346 26.9915 19.3569 27.3819C19.3903 27.7612 19.474 28.107 19.6079 28.4193C19.7529 28.7317 19.976 28.9882 20.2771 29.189C20.5783 29.3786 21.0022 29.4734 21.5488 29.4734C22.0954 29.4734 22.5137 29.3786 22.8037 29.189C23.1049 28.9882 23.328 28.7317 23.473 28.4193C23.618 28.107 23.7016 27.7612 23.7239 27.3819C23.7574 26.9915 23.7741 26.6123 23.7741 26.2442V19.384H27.0369V26.6959C27.0369 28.6592 26.5851 30.0925 25.6816 30.9961C24.7892 31.8996 23.4116 32.3514 21.5488 32.3514C19.6859 32.3514 18.3028 31.8996 17.3992 30.9961C16.4957 30.0925 16.0439 28.6592 16.0439 26.6959V19.384H19.3234Z" fill="white"/>
<path d="M7.46247 24.9391H13.9712C13.9712 25.6084 13.9433 26.2163 13.8876 26.7629C13.8318 27.3095 13.7203 27.817 13.5529 28.2855C13.3187 28.9437 13.0008 29.5293 12.5992 30.0424C12.1976 30.5444 11.7236 30.9682 11.177 31.314C10.6416 31.6487 10.0504 31.9052 9.40339 32.0837C8.75642 32.2622 8.07598 32.3514 7.36208 32.3514C6.38047 32.3514 5.48252 32.1897 4.66822 31.8662C3.86509 31.5427 3.1735 31.0909 2.59345 30.5109C2.01341 29.9197 1.56164 29.2169 1.23816 28.4027C0.914673 27.5772 0.75293 26.6681 0.75293 25.6753C0.75293 24.6937 0.909095 23.7958 1.22143 22.9815C1.54491 22.156 1.99668 21.4533 2.57672 20.8732C3.16792 20.2932 3.87624 19.8414 4.70169 19.5179C5.52713 19.1945 6.4474 19.0327 7.46247 19.0327C8.77873 19.0327 9.93324 19.3172 10.926 19.886C11.9188 20.4549 12.7052 21.3362 13.2852 22.5297L10.1731 23.8181C9.88304 23.1265 9.50378 22.6301 9.03528 22.3289C8.57794 22.0277 8.05367 21.8772 7.46247 21.8772C6.97167 21.8772 6.52548 21.972 6.12391 22.1616C5.72234 22.3401 5.37655 22.6022 5.08652 22.948C4.80766 23.2826 4.58456 23.6898 4.41724 24.1694C4.26108 24.6491 4.183 25.1845 4.183 25.7757C4.183 26.3111 4.24992 26.8075 4.38378 27.2649C4.52879 27.7222 4.74073 28.1182 5.0196 28.4528C5.29846 28.7875 5.64426 29.0496 6.05698 29.2393C6.46971 29.4177 6.94936 29.507 7.49594 29.507C7.81942 29.507 8.13175 29.4735 8.43293 29.4066C8.73411 29.3285 9.00182 29.2114 9.23607 29.0552C9.48147 28.8879 9.68226 28.6759 9.83842 28.4194C9.99459 28.1628 10.1006 27.8505 10.1563 27.4824H7.46247V24.9391Z" fill="white"/>
<path d="M48.9802 6.02273H49.5992C50.2462 6.02273 50.7426 5.88887 51.0884 5.62116C51.4342 5.35344 51.6071 4.96861 51.6071 4.46665C51.6071 3.96469 51.4342 3.57985 51.0884 3.31214C50.7426 3.04442 50.2462 2.91057 49.5992 2.91057H48.9802V6.02273ZM56.1917 13H52.1091L48.9802 8.14769V13H45.7007V0.384033H50.804C51.5067 0.384033 52.1202 0.490003 52.6445 0.701941C53.1687 0.902726 53.5982 1.18159 53.9328 1.53854C54.2786 1.89549 54.5352 2.30822 54.7025 2.77671C54.881 3.24521 54.9702 3.74717 54.9702 4.28259C54.9702 5.2419 54.736 6.02273 54.2675 6.62508C53.8101 7.21628 53.1297 7.61785 52.2262 7.82979L56.1917 13Z" fill="white"/>
<path d="M43.3362 3.16155H39.4377V5.26978H43.1187V8.0473H39.4377V10.2225H43.3362V13H36.1582V0.384033H43.3362V3.16155Z" fill="white"/>
<path d="M27.8527 10.4567H28.5722C29.3976 10.4567 29.9888 10.3507 30.3458 10.1388C30.7027 9.92687 30.8812 9.58665 30.8812 9.11815C30.8812 8.64965 30.7027 8.30944 30.3458 8.0975C29.9888 7.88556 29.3976 7.77959 28.5722 7.77959H27.8527V10.4567ZM27.8527 5.33671H28.4551C29.4813 5.33671 29.9944 4.92957 29.9944 4.11528C29.9944 3.30098 29.4813 2.89384 28.4551 2.89384H27.8527V5.33671ZM24.5732 0.384033H29.459C30.6191 0.384033 31.5003 0.6629 32.1027 1.22063C32.705 1.77837 33.0062 2.58151 33.0062 3.63005C33.0062 4.26586 32.8891 4.79571 32.6548 5.21959C32.4317 5.63231 32.0859 5.98368 31.6174 6.27371C32.0859 6.36294 32.4819 6.50238 32.8054 6.69201C33.14 6.87048 33.4078 7.09358 33.6085 7.36129C33.8205 7.629 33.9711 7.93018 34.0603 8.26482C34.1495 8.59946 34.1942 8.95641 34.1942 9.33567C34.1942 9.92687 34.0882 10.4511 33.8763 10.9085C33.6755 11.3658 33.3854 11.7507 33.0062 12.063C32.6381 12.3753 32.1863 12.6096 31.6509 12.7657C31.1155 12.9219 30.5131 13 29.8438 13H24.5732V0.384033Z" fill="white"/>
<path d="M15.5271 6.94299L10.9258 0.384033H14.8411L17.1836 3.83083L19.5093 0.384033H23.4246L18.8066 6.94299V13H15.5271V6.94299Z" fill="white"/>
<path d="M10.4073 4.60056C9.64879 3.67472 8.7118 3.2118 7.59633 3.2118C7.10552 3.2118 6.64818 3.30104 6.2243 3.47951C5.81158 3.65799 5.45463 3.90339 5.15345 4.21572C4.85228 4.5169 4.61245 4.87943 4.43398 5.3033C4.26666 5.72718 4.183 6.18452 4.183 6.67533C4.183 7.17729 4.26666 7.64021 4.43398 8.06409C4.61245 8.48797 4.85228 8.85607 5.15345 9.1684C5.46578 9.48073 5.82831 9.72614 6.24103 9.90461C6.65376 10.0831 7.09995 10.1723 7.5796 10.1723C8.62814 10.1723 9.57071 9.72614 10.4073 8.83376V12.7156L10.0727 12.8327C9.57071 13.0112 9.10221 13.1395 8.66718 13.2176C8.23215 13.3068 7.80269 13.3514 7.37881 13.3514C6.50875 13.3514 5.67215 13.1897 4.86901 12.8662C4.07703 12.5315 3.37428 12.0686 2.76077 11.4774C2.15842 10.8751 1.67319 10.1667 1.30509 9.35245C0.936982 8.52701 0.75293 7.62906 0.75293 6.6586C0.75293 5.68814 0.931405 4.80134 1.28835 3.9982C1.65646 3.18391 2.14169 2.48675 2.74404 1.9067C3.35755 1.3155 4.06587 0.858162 4.86901 0.534675C5.67215 0.200035 6.51432 0.0327148 7.39555 0.0327148C7.89751 0.0327148 8.38831 0.0884884 8.86796 0.200035C9.35877 0.300427 9.87189 0.46217 10.4073 0.685264V4.60056Z" fill="white"/>
</svg>
