<svg xmlns="http://www.w3.org/2000/svg" xmlns:xlink="http://www.w3.org/1999/xlink" viewBox="0 0 610 470" shape-rendering="geometricPrecision" text-rendering="geometricPrecision"><g transform="translate(6.78 -62.48)" clip-path="url(#a)"><g><path d="m78.53 401.26 45.23-1.3" fill="none"/><path d="M69.93 401.5a4.46 4.46 0 1 0 8.91-.25 4.46 4.46 0 0 0-8.91.25Zm1.27-.03a3.19 3.19 0 1 1 6.38-.18 3.19 3.19 0 0 1-6.38.18Z" fill="#fff"/><path d="m75 405.13.28 27.93" fill="none"/><path d="m30.11 432.34 45.16.42" fill="none"/><path d="M21.51 432.26a4.46 4.46 0 1 0 8.93.09 4.46 4.46 0 0 0-8.93-.09Zm1.28.02a3.18 3.18 0 1 1 6.36.06 3.18 3.18 0 0 1-6.36-.06Z" fill="#fff"/><path d="M55.45 378.98h52.7" fill="none"/><path d="M110.17 349.62h27.28" fill="none"/><path d="M101.57 349.84a4.46 4.46 0 1 0 8.92-.06 4.46 4.46 0 0 0-8.92.06Zm1.27 0a3.19 3.19 0 1 1 6.37-.05 3.19 3.19 0 0 1-6.37.04Z" fill="#fff"/><path d="m104.95 293.42.48 51.86" fill="none"/><path d="M105.31 292.96h19.07" fill="none"/><path d="M29.53 317.99h74.73" fill="none"/><path d="M20.92 318.08a4.46 4.46 0 1 0 8.92 0 4.46 4.46 0 0 0-8.92 0Zm1.28 0a3.19 3.19 0 1 1 6.37-.01 3.19 3.19 0 0 1-6.37 0Z" fill="#fff"/><path d="M57.08 371.62h7.61" fill="none"/><path d="M64.62 318.03v53.66" fill="none"/><path d="M43.49 264.48v53.57" fill="none"/><path d="M86.56 261.63v16.86" fill="none"/><path d="M124.5 278.4H86.55" fill="none"/><path d="M151.68 309.92v33.26" fill="none"/><path d="M165.73 310v33.34" fill="none"/><path d="M179.52 309.66v33.35" fill="none"/><path d="M205.87 249.69h31.39" fill="none"/><path d="m229.83 264.03-25.15.35" fill="none"/><path d="m224.93 285.52-21.46.33" fill="none"/><path d="m237.93 228.91-.18 20.82" fill="none"/><path d="M238 220.3a4.46 4.46 0 1 0-.07 8.93 4.46 4.46 0 0 0 .08-8.92Zm0 1.28a3.19 3.19 0 1 1-.06 6.38 3.19 3.19 0 0 1 .06-6.38Z" fill="#fff"/><path d="M242.85 224.82h23.4" fill="none"/><path d="M266.12 203.57v21.25" fill="none"/><path d="M310.04 204.36v31.35" fill="none"/><path d="M288.16 235.62H310" fill="none"/><path d="M306.9 250.03h31.17" fill="none"/><path d="m338.4 185.52-.41 64.55" fill="none"/><path d="m375.38 185.12-36.98.46" fill="none"/><path d="m374.63 219.82.43-34.7" fill="none"/><path d="M374.52 228.42a4.46 4.46 0 1 0 .12-8.91 4.46 4.46 0 0 0-.12 8.91Zm.02-1.27a3.19 3.19 0 1 1 .08-6.37 3.19 3.19 0 0 1-.08 6.37Z" fill="#fff"/><path d="M378.95 224.32h16.77" fill="none"/><path d="m396.73 114.5-1.07 116.58" fill="none"/><path d="M396.81 105.9a4.46 4.46 0 1 0-.08 8.9 4.46 4.46 0 0 0 .08-8.9Zm0 1.27a3.19 3.19 0 1 1-.07 6.37 3.19 3.19 0 0 1 .06-6.37Z" fill="#fff"/><path d="M395.73 231.06h26.13" fill="none"/><path d="m422.08 231.06-.51 45.35" fill="none"/><path d="m302.13 292.98 63.92.35" fill="none"/><path d="m366.02 321.65-72.2 1" fill="none"/><path d="m306.09 307.93 31.56.43" fill="none"/><path d="m338.37 280.32-.18 27.63" fill="none"/><path d="M338.43 271.72a4.46 4.46 0 1 0-.06 8.92 4.46 4.46 0 0 0 .06-8.92Zm0 1.27a3.19 3.19 0 1 1-.05 6.38 3.19 3.19 0 0 1 .04-6.38Z" fill="#fff"/><path d="m489.8 357.88 69.67.41" fill="none"/><path d="M468.57 329.17h72.58" fill="none"/><path d="M467.8 336.04h21.93" fill="none"/><path d="m489.6 366.92.19-30.9" fill="none"/><path d="M554.5 258.42v31.05" fill="none"/><path d="M554.5 249.82a4.46 4.46 0 1 0 0 8.91 4.46 4.46 0 0 0 0-8.91Zm0 1.27a3.19 3.19 0 1 1 0 6.38 3.19 3.19 0 0 1 0-6.38Z" fill="#fff"/><path d="M469.02 278.65h27.92" fill="none"/><path d="M496.7 228.68v49.97" fill="none"/><path d="M510.52 228.44h-13.77" fill="none"/><path d="M519.12 228.43a4.46 4.46 0 1 0-8.92.01 4.46 4.46 0 0 0 8.92-.01Zm-1.27 0a3.19 3.19 0 1 1-6.38.01 3.19 3.19 0 0 1 6.38-.01Z" fill="#fff"/><path d="m432.17 227.45.38 40.24" fill="none"/><path d="M432.09 218.85a4.46 4.46 0 1 0 .08 8.91 4.46 4.46 0 0 0-.08-8.9Zm0 1.28a3.18 3.18 0 1 1 .07 6.36 3.18 3.18 0 0 1-.06-6.36Z" fill="#fff"/><path d="M410.85 222.83h16.97" fill="none"/><path d="m410.54 178.62.35 44.21" fill="none"/><path d="M410.47 170.01a4.46 4.46 0 1 0 .07 8.93 4.46 4.46 0 0 0-.07-8.93Zm.01 1.28a3.18 3.18 0 1 1 .06 6.36 3.18 3.18 0 0 1-.06-6.36Z" fill="#fff"/><path d="m414.99 174.62 50.48.81" fill="none"/><path d="M114.64 170.4h21.89" fill="none"/><path d="M123.9 199.24h12.77" fill="none"/><path d="M115.3 199.24a4.46 4.46 0 1 0 8.92 0 4.46 4.46 0 0 0-8.92 0Zm1.27 0a3.19 3.19 0 1 1 6.37 0 3.19 3.19 0 0 1-6.37 0Z" fill="#fff"/><path d="M136.5 170.41v28.83" fill="none"/><path d="M112.42 185.17h17.15" fill="none"/><path d="m169.88 192.5-40.14-.29" fill="none"/><path d="M129.63 184.83v7.38" fill="none"/><path d="M125.34 177.85h-11.67" fill="none"/><path d="M133.94 178.07a4.46 4.46 0 1 0-8.92-.1 4.46 4.46 0 0 0 8.92.1Zm-1.28 0a3.19 3.19 0 1 1-6.37-.08 3.19 3.19 0 0 1 6.37.07Z" fill="#fff"/><path d="m129.63 182.28.4 48.83" fill="none"/><path d="M119.5 203.16v28.05" fill="none"/><path d="m144.07 231.57-24.5.21" fill="none"/><path d="M143.92 242.9v-11.33" fill="none"/><path d="M158.33 165.07v12.41" fill="none"/><path d="M158.63 156.47a4.46 4.46 0 1 0-.13 8.92 4.46 4.46 0 0 0 .13-8.92Zm-.02 1.28a3.19 3.19 0 1 1-.1 6.37 3.19 3.19 0 0 1 .1-6.38Z" fill="#fff"/><path d="m169.53 178-11.18-.38" fill="none"/><path d="M169.74 220.73v-42.68" fill="none"/><path d="m151.68 221.38 18.25-.23" fill="none"/><path d="m152.13 243.52-.67-22.09" fill="none"/><path d="M172.92 228.15v15.42" fill="none"/><path d="M180.27 228.2h-7.3" fill="none"/><path d="M180.23 170.55v57.17" fill="none"/><path d="M187.26 170.7h-7.03" fill="none"/><path d="M187.43 199.02v-28.2" fill="none"/><path d="M201.5 199.59h-13.97" fill="none"/><path d="M194.66 163.62h7" fill="none"/><path d="M201.64 199.4v-35.78" fill="none"/><path d="M194.58 157.84v5.64" fill="none"/><path d="M194.66 149.24a4.46 4.46 0 1 0-.05 8.92 4.46 4.46 0 0 0 .05-8.92Zm0 1.27a3.19 3.19 0 1 1-.04 6.37 3.19 3.19 0 0 1 .03-6.37Z" fill="#fff"/><path d="m188.51 213.75 20.23.3" fill="none"/><path d="M209.05 206.43v7.42" fill="none"/><path d="M223.27 200.99v5.55" fill="none"/><path d="M223.4 192.38a4.46 4.46 0 1 0-.08 8.92 4.46 4.46 0 0 0 .08-8.92Zm-.02 1.28a3.19 3.19 0 1 1-.05 6.37 3.19 3.19 0 0 1 .05-6.37Z" fill="#fff"/><path d="M209.05 206.35h14.22" fill="none"/><path d="m187.87 213.6.38 29.72" fill="none"/><path d="m152.72 135.57 60.2-.59" fill="none"/><path d="M144.12 135.66a4.46 4.46 0 1 0 8.92-.1 4.46 4.46 0 0 0-8.92.1Zm1.27-.02a3.18 3.18 0 1 1 6.37-.06 3.18 3.18 0 0 1-6.37.06Z" fill="#fff"/><path d="M174.43 127.54h36.72" fill="none"/><path d="M165.83 127.63a4.46 4.46 0 1 0 8.92-.02 4.46 4.46 0 0 0-8.92.02Zm1.27 0a3.18 3.18 0 1 1 6.37-.02 3.18 3.18 0 0 1-6.37.02Z" fill="#fff"/><path d="m169.77 98.32.42 25.34" fill="none"/><path d="M302.3 85.08V98.5" fill="none"/><path d="M302.24 76.48a4.46 4.46 0 1 0 .06 8.93 4.46 4.46 0 0 0-.06-8.93Zm0 1.28a3.19 3.19 0 1 1 .05 6.37 3.19 3.19 0 0 1-.05-6.37Z" fill="#fff"/><path d="m331.22 98.23-28.81.33" fill="none"/><path d="M331.19 105.26v-7.03" fill="none"/><path d="M327.91 84.85v21.2" fill="none"/><path d="m441.1 185.72 30.53.32" fill="none"/><path d="M432.5 185.63a4.46 4.46 0 1 0 8.92.09 4.46 4.46 0 0 0-8.92-.1Zm1.27.01a3.18 3.18 0 1 1 6.37.06 3.18 3.18 0 0 1-6.37-.06Z" fill="#fff"/><path d="m436.75 190.01.18 9.56" fill="none"/><path d="M453.07 199.85h-16.13" fill="none"/><path d="M453.61 267.42v-67.57" fill="none"/><path d="M43.9 128.94v20.35" fill="none"/><path d="M43.88 120.33a4.46 4.46 0 1 0 .03 8.92 4.46 4.46 0 0 0-.03-8.92Zm0 1.28a3.19 3.19 0 1 1 .02 6.37 3.19 3.19 0 0 1-.02-6.37Z" fill="#fff"/><path d="M37.56 141.63h20.26" fill="none"/><path d="M28.96 141.73a4.46 4.46 0 1 0 8.92-.03 4.46 4.46 0 0 0-8.92.03Zm1.27 0a3.19 3.19 0 1 1 6.37-.02 3.19 3.19 0 0 1-6.37.02Z" fill="#fff"/><path d="m71.86 112.97-13.74 28.47" fill="none"/><path d="M32.22 480.32h529.72" fill="none"/><path d="M136.13 242h56.82c6.42 0 11.63 5.2 11.63 11.63v43.44c0 6.43-5.2 11.63-11.63 11.63h-56.82c-6.43 0-11.64-5.2-11.64-11.63v-43.44c0-6.42 5.21-11.63 11.64-11.63Z" fill="#2b354e"/><path d="M28.5 364.27h22.13a6.53 6.53 0 0 1 6.53 6.53v17.03c0 3.6-2.92 6.53-6.53 6.53H28.5a6.53 6.53 0 0 1-6.53-6.53V370.8a6.53 6.53 0 0 1 6.53-6.53Z" fill="#2b354e" fill-opacity=".68"/><path d="M23.4 149.52h91.13v114.92H23.4V149.52Z" fill="#2b354e"/><path d="M152 62.48h35.76v35.85h-35.75V62.48Z" fill="#2b354e" fill-opacity=".88"/><path d="M220.32 105.15h114.96c5.67 0 10.27 4.6 10.27 10.27v43.3c0 5.67-4.6 10.27-10.27 10.27H220.32c-5.67 0-10.27-4.6-10.27-10.27v-43.3c0-5.67 4.6-10.27 10.27-10.27Z" fill="#2b354e" fill-opacity=".97"/><path d="M361.27 264.72h107.3v90.48h-107.3v-90.48Z" fill="#2b354e"/><path d="M559.42 348.3h11.27a6 6 0 0 1 6 6.01v10.05a6 6 0 0 1-6 6.01h-11.27a6 6 0 0 1-6-6V354.3a6 6 0 0 1 6-6Z" fill="#2b354e" fill-opacity=".68"/><path d="m71.8 80.41 18.54 31.75-36.77.19L71.8 80.4Z" fill="#2b354e" fill-opacity=".8"/><path d="M231.89 117.36h92.03a7.2 7.2 0 0 1 7.2 7.21v.17a7.2 7.2 0 0 1-7.2 7.2h-92.03a7.2 7.2 0 0 1-7.2-7.2v-.17a7.2 7.2 0 0 1 7.2-7.2Z" fill="#8cc2ee" fill-opacity=".54"/><path d="M231.33 143.3h92.03a7.2 7.2 0 0 1 7.2 7.22v.16a7.2 7.2 0 0 1-7.2 7.21h-92.03a7.2 7.2 0 0 1-7.2-7.2v-.17a7.2 7.2 0 0 1 7.2-7.21Z" fill="#8cc2ee" fill-opacity=".54"/><path d="M503.75 91.67s-9.82 7.58-22.44 12.92c-12.62 5.34-28.04 8.44-28.04 8.44s-6.2 16.83 8.33 53.46c14.53 36.63 36.56 53.6 42.77 53.87 5.87.25 30.33-27.92 41.23-54.85 10.9-26.92 8.25-52.6 8.25-52.6s-17.69-3.5-30.21-8.82c-12.53-5.3-19.9-12.42-19.9-12.42Z" fill="#2b354e" fill-opacity=".68"/><path d="M528.75 312.44s-5.7 2.75-6.72 4.25c-1.01 1.5 6.22 5 6.22 5l23.68 13.72s1.94 1.04 3.95.6a23.06 23.06 0 0 0 4.25-1.48l39.1-23.57s2.61-1.63 2.95-3.31c.35-1.68-2.52-3.02-2.52-3.02l-25.56-14.22s-1.77-1.25-4.28-.31c-2.5.93-6.57 3.56-6.57 3.56" fill="#f1d244" fill-opacity=".4"/><path d="M528.75 312.44s-5.7 2.75-6.72 4.25c-1.01 1.5 6.22 5 6.22 5l23.68 13.72s1.94 1.04 3.95.6a23.06 23.06 0 0 0 4.25-1.48l39.1-23.57s2.61-1.63 2.95-3.31c.35-1.68-2.52-3.02-2.52-3.02l-25.56-14.22s-1.77-1.25-4.28-.31c-2.5.93-6.57 3.56-6.57 3.56" fill="none"/><path d="m507.12 296.52 28.59-16.07s1.37-.78 3.11-.54c1.74.23 3.84 1.48 3.84 1.48l40.83 19.83s3.58 1.65 2.69 4.42c-.4 1.24-4.29 3.62-4.29 3.62l-26.82 14.7s-2.77.87-3.96.5a18.3 18.3 0 0 1-2.52-1.08l-39.52-21.8s-2.91-1.33-3.4-2.6c-.49-1.27 1.45-2.46 1.45-2.46Z" fill="#8cc2ee" fill-opacity=".91"/><path d="m533.58 319.34 3.72-2.19" fill="none"/><path d="m572.64 295.72 1.58-.87" fill="none"/><path d="m543.58 325.74 4.3-2.76" fill="none"/><path d="m581.13 300.17 1.14-.62" fill="none"/><path d="m553.9 330.86 24.9-14.87" fill="none"/><path d="m581.62 314.05 10.78-6.56" fill="none"/><path d="m525.63 286.12 50.02 26.56" fill="none"/><path d="m532.08 283.18 50.13 25.88" fill="none"/><path d="m515.52 296.3 13.18 7.42" fill="none"/><path d="M520.36 293.52 542 306" fill="none"/><path d="m532.78 306.5 17.9 10.28" fill="none"/><path d="m558.74 308.56 5.8 3.22" fill="none"/><path d="M554.5 284.44v-2.7" fill="none"/><path d="M475.24 141.71h56.68v42.7h-56.68v-42.7Z" fill="#f1d244" fill-opacity=".94"/><path d="M483.48 141.71s-1.83-33.86 20.6-35.16c22.45-1.3 21.77 35.16 21.77 35.16h-7.24s1.75-27.18-13.84-27.72c-15.59-.54-14.26 27.72-14.26 27.72h-7.03Z" fill="#f1d244" fill-opacity=".94"/><path d="M497.86 155.73c0-3.41 2.94-6.17 6.57-6.17 3.63 0 6.57 2.76 6.57 6.17 0 3.4-2.94 6.17-6.57 6.17-3.63 0-6.57-2.76-6.57-6.17Z" fill="#2b354e"/><path d="m500.1 160.38-2.98 13.7 14.45-.34-2.97-13.24s-2.05 1.43-4.17 1.4c-2.12-.03-4.32-1.52-4.32-1.52Z" fill="#2b354e"/><path d="m361.27 273.79 107.3-.2" fill="none"/><path d="m461.55 267 4.62 4.24" fill="none"/><path d="m466.14 266.96-4.34 4.38" fill="none"/><path d="m375.76 287.03 83.4-.62" fill="none"/><path d="M376.59 321.96h83.76" fill="none"/><path d="m375.93 328.84 83.91-.32" fill="none"/><path d="M375.75 335.64h84.62" fill="none"/><path d="M383.07 302.72h69.42c2.3 0 4.16 1.86 4.16 4.16v.53c0 2.3-1.86 4.16-4.16 4.16h-69.42a4.16 4.16 0 0 1-4.16-4.16v-.53c0-2.3 1.86-4.16 4.16-4.16Z" fill="#8cc2ee" fill-opacity=".79"/><path d="M384.85 306.5c0-1.03.9-1.88 2-1.88s2 .85 2 1.89-.9 1.89-2 1.89-2-.85-2-1.9Z" fill="#f1d244" fill-opacity=".94"/><path d="m381.7 309.12 3.35-1.78" fill="none"/><path d="M151.82 264.89h22.94v20.61h-22.94v-20.6Z" fill="#f1d244"/><path d="M182.67 275.28h-7.9" fill="none"/><path d="M182.57 276.57h2.59l-.01-2.6-2.6.01.02 2.6Zm.42-2.16h1.73v1.72l-1.72.01v-1.73Z" fill="#fff"/><path d="M161.74 293.41v2.6l2.6-.01-.01-2.6-2.6.01Zm2.16.43v1.73h-1.72v-1.73h1.72Z" fill="#fff"/><path d="M164.3 256.98v-2.6l-2.59.01v2.6h2.6Zm-2.16-.43v-1.73h1.73v1.73h-1.73Z" fill="#fff"/><path d="M143.9 275.23h7.92" fill="none"/><path d="m144 274.01-2.59.03.03 2.59 2.59-.03-.03-2.59Zm-.4 2.16-1.74.02-.01-1.73 1.73-.01.01 1.72Z" fill="#fff"/><path d="M146.75 271.6h5.07" fill="none"/><path d="M146.86 270.31h-2.6v2.6h2.6v-2.6Zm-.44 2.16h-1.72v-1.73h1.72v1.73Z" fill="#fff"/><path d="M166.03 290.46v2.6h2.59v-2.6h-2.59Zm2.16.44v1.73l-1.73-.01v-1.73l1.73.01Z" fill="#fff"/><path d="m157.27 290.47.01 2.6 2.6-.02-.01-2.59-2.6.01Zm2.16.42.01 1.73h-1.73v-1.72h1.72Z" fill="#fff"/><path d="M168.27 259.92v-2.6l-2.6.02.01 2.6 2.6-.02Zm-2.16-.42v-1.73h1.72v1.72h-1.72Z" fill="#fff"/><path d="m159.9 259.94.01-2.6-2.6-.01v2.59l2.58.01Zm-2.16-.45v-1.73l1.74.01-.01 1.73-1.73-.01Z" fill="#fff"/><path d="M146.75 279.06h5.07" fill="none"/><path d="M146.86 277.76h-2.6v2.6h2.6v-2.6Zm-.44 2.16h-1.72v-1.73h1.72v1.73Z" fill="#fff"/><path d="M179.83 271.59h-5.07" fill="none"/><path d="M179.72 272.9h2.6v-2.6h-2.6v2.6Zm.44-2.17h1.73v1.73h-1.73v-1.73Z" fill="#fff"/><path d="M179.83 278.83h-5.07" fill="none"/><path d="M179.72 280.14h2.6v-2.58l-2.6-.01v2.59Zm.44-2.16h1.73v1.73h-1.74v-1.73Z" fill="#fff"/><path d="M158.64 270.06v9.83" fill="none"/><path d="M167.06 269.83v10.22" fill="none"/><path d="M156.3 271.7h12.66" fill="none"/><path d="M156.12 278.71h13.03" fill="none"/><path d="M162.95 267.5V283" fill="none"/><path d="M42.24 180.13h53.69c2.3 0 4.15 1.86 4.15 4.15v3.88c0 2.3-1.86 4.15-4.15 4.15H42.24a4.16 4.16 0 0 1-4.15-4.15v-3.88c0-2.3 1.86-4.15 4.15-4.15Z" fill="#8cc2ee" fill-opacity=".79"/><path d="M41.78 200.48h53.69c2.3 0 4.15 1.86 4.15 4.15v3.87c0 2.3-1.86 4.16-4.15 4.16H41.78a4.16 4.16 0 0 1-4.15-4.16v-3.87c0-2.3 1.86-4.15 4.15-4.15Z" fill="#8cc2ee" fill-opacity=".79"/><path d="M51.09 156.89h35.36v13.54H51.1v-13.54Z" fill="#fddf19" fill-opacity=".84"/><path d="M36.28 235.51h7.22v7.1h-7.22v-7.1Z" fill="#fddf19"/><path d="M50.84 235.51h7.1v7.29h-7.1v-7.29Z" fill="#fddf19"/><path d="M65.16 235.81h6.97v7.05h-6.97v-7.05Z" fill="#fddf19"/><path d="M79.6 235.79h7.16v6.98H79.6v-6.98Z" fill="#fddf19"/><path d="M93.77 235.69h7.28v7.1h-7.28v-7.1Z" fill="#fddf19"/><path d="M72.17 96.35v11.34" fill="none"/><path d="M70.57 91.58c0-.9.77-1.63 1.71-1.63.95 0 1.71.73 1.71 1.63 0 .9-.76 1.63-1.7 1.63-.95 0-1.72-.73-1.72-1.63Z" fill="#2b354e" fill-opacity=".68"/><path d="M6.74 191.98v6.84" fill="none"/><path d="M14.33 163.7v35.79" fill="none"/><path d="M6.65 142.52v42.29" fill="none"/><path d="M13.83 155.78v-8.67" fill="none"/><path d="M26.5 145.36v21.93" fill="none"/><path d="M26.84 199.16v-26.53" fill="none"/><path d="M32.34 154.37v20.68" fill="none"/><path d="M38.26 152.7v25.44" fill="none"/><path d="m38.26 198.57.29-16.19" fill="none"/><path d="M41.93 145.1v28.37" fill="none"/><path d="m32 198.32.43-17.51" fill="none"/><path d="M-6.78 147.78s1.38-14.72 8.6-23.27c7.21-8.55 15.93-8.26 15.93-8.26" fill="none"/><path d="M-.02 143.86s.61-23.2 20.85-21.27c14.66 1.4 16.27 24.66 16.27 24.66" fill="none"/><path d="M8.66 137.94s2.74-8.84 9.67-9.18 10.5 7.6 10.5 7.6" fill="none"/><path d="M13.24 143.27s2.14-5.76 6.03-5.8c3.9-.03 6.15 4.39 6.15 4.39" fill="none"/><path d="M21.67 116.25s8.28 1.3 13.47 7.33c5.2 6.01 6.96 15.94 6.96 15.94" fill="none"/><path d="M41.56 176.5v15.76" fill="none"/><path d="M54.84 164.4c-.76.73 2.3-4.39 4.34-3.89 1.92.47-1.48 7.8-2.85 6.3-1.07-1.16 3.15-4.7 3.95-3.65.37.48-.1 2.8-.58 2.4-.62-.53 2.73-3.74 4.07-3.08.36.18 1.25 2.09.36 1.98-.21-.02-.04-.49-.02-.56.35-1.16 2.05-2.98 3.37-2.88 2.16.16 1.68 2.84.8 4.04-.28.4-.56.77-.86 1.15-.14.17-.4.78-.34.57.35-1.4 4.35-8.98 6.64-7.03 1.19 1-2.3 6.77-1.5 7.31.17.12.73-.59.73-.6.6-.57 3.82-5.05 3.63-5.36-.23-.38-.55.72-.73 1.13-.3.66-1.24 2.77-.2 3.3 1.15.58 3.37-3.72 4.19-3.37.25.11.3.81.73 1 .21.09 4.45.06 3.1.36" fill="none"/><path d="M40.97 249.9h53.82" fill="none"/><path d="M57.81 217.86h21.6v3.15h-21.6v-3.15Z" fill="none"/><path d="M158.36 80.12c0-6.29 5.25-11.38 11.74-11.38s11.74 5.1 11.74 11.38-5.25 11.37-11.74 11.37c-6.48 0-11.74-5.1-11.74-11.37Z" fill="#2b354e" fill-opacity=".68"/><path d="M158.36 80.1h23.48" fill="none"/><path d="m170.1 68.74-.25 22.24" fill="none"/><path d="M163.2 71.2s3.33 2.72 6.84 2.73c3.52 0 6.92-2.92 6.92-2.92" fill="none"/><path d="M162.07 88.4s4.24-3.24 7.63-3.22 8.28 3.37 8.28 3.37" fill="none"/><path d="M170.03 68.74V91.5" fill="none"/><path d="M170.07 68.74v22.7" fill="none"/><path d="M169.97 68.74s-6.63 5.68-6.63 11.36c0 5.67 6.62 11.34 6.62 11.34" fill="none"/><path d="M170.16 68.88s6.01 5.6 5.97 11.23c-.03 5.63-6.1 11.29-6.1 11.29" fill="none"/><path d="M253.58 181.85c0-11.75 5.81-21.28 12.97-21.28s12.97 9.53 12.97 21.28c0 11.75-5.8 21.28-12.97 21.28s-12.97-9.53-12.97-21.28Z" fill="none"/><path d="M297.08 182.94c0-11.75 5.8-21.27 12.97-21.27s12.97 9.52 12.97 21.27-5.8 21.28-12.97 21.28-12.97-9.52-12.97-21.28Z" fill="none"/><path d="M264.68 180.98s-.81 4.4.06 5.27c1.1 1.1 3.67.44 4.61-.99 1.96-2.98 1.1-9.14-5-8.5-6.64.7-5.58 16.91.26 18.53 13.65 3.8 10.84-20.75 6.67-25.5s-8.98-2.34-11.64 1.86c-2.82 4.46-3.03 10.7-3.03 10.7" fill="none"/><path d="M309.62 179.28c-.22-.38-1.66 7.23 1.82 3.93 4.41-4.2-1.53-12.76-5.27-7.25-4.74 7 3 17.98 8.85 9.2 9.55-14.32-6.43-27.26-12.42-11.61-2.78 7.24-3.44 20.07 3.58 24.14 2.04 1.19 6 1.7 8.65-.7 2.66-2.42 3.5-7.75 3.5-7.75" fill="none"/><path d="M30.87 393.62s-3.02-.5-2.9-4.54c.12-4.04 5.13-4.45 5.13-4.45s-.3-6.28 6.7-6.08c6.99.19 7.5 8.1 7.5 8.1s4.16-1.25 4.85 2.66c.7 3.9-3.74 4.37-3.74 4.37l-17.54-.06Z" fill="#fddf19" fill-opacity=".84"/><path d="m37.5 393.64.69-5.95-2.73 1.08 4.08-5.78 4.33 5.86-3.12-1.09.76 5.87-4 .01Z" fill="#fff"/><path d="m287.14 127.4-.55-1.48-1.48.67.7-1.42-1.55-.53 1.55-.52-.7-1.43 1.48.68.55-1.49.55 1.49 1.49-.68-.71 1.43 1.55.52-1.55.53.7 1.42-1.48-.67-.55 1.48Z" fill="#2b354e"/><path d="m277.42 127.24-.55-1.48-1.48.67.7-1.42-1.54-.53 1.54-.52-.7-1.43 1.48.68.55-1.49.55 1.49 1.49-.68-.7 1.42 1.54.53-1.55.53.7 1.42-1.48-.67-.55 1.48Z" fill="#2b354e"/><path d="m267.98 127.29-.56-1.49-1.48.68.7-1.42-1.54-.53 1.55-.53-.7-1.42 1.48.67.55-1.48.55 1.48 1.48-.67-.7 1.42 1.54.53-1.55.53.71 1.42-1.48-.68-.55 1.49Z" fill="#2b354e"/><path d="m258.4 127.29-.55-1.49-1.48.68.7-1.42-1.55-.53 1.55-.53-.7-1.42 1.48.68.55-1.49.55 1.49 1.49-.68-.71 1.42 1.55.53-1.55.53.7 1.42-1.48-.68-.55 1.49Z" fill="#2b354e"/><path d="m248.2 127.11-.54-1.48-1.49.68.7-1.43-1.54-.52 1.55-.53-.7-1.42 1.47.67.55-1.48.56 1.48 1.48-.67-.7 1.42 1.54.53-1.55.52.71 1.43-1.48-.68-.55 1.48Z" fill="#2b354e"/><path d="m287.14 127.4-.55-1.48-1.48.67.7-1.42-1.55-.53 1.55-.52-.7-1.43 1.48.68.55-1.49.55 1.49 1.49-.68-.71 1.43 1.55.52-1.55.53.7 1.42-1.48-.67-.55 1.48Z" fill="#2b354e"/><path d="m307.63 127.62-.55-1.49-1.49.68.7-1.42-1.54-.53 1.55-.53-.7-1.42 1.47.67.55-1.48.56 1.48 1.48-.67-.7 1.42 1.54.53-1.55.53.7 1.42-1.47-.68-.56 1.49Z" fill="#2b354e"/><path d="m297.42 127.55-.55-1.49-1.49.68.71-1.42-1.55-.53 1.55-.53-.7-1.42 1.48.67.55-1.48.55 1.48 1.48-.67-.7 1.42 1.55.53-1.55.53.7 1.42-1.48-.68-.55 1.49Z" fill="#2b354e"/><path d="m238.83 127.13-.55-1.49-1.48.68.7-1.42-1.54-.53 1.54-.53-.7-1.42 1.48.67.55-1.48.55 1.48 1.49-.67-.7 1.42 1.54.53-1.55.53.7 1.42-1.48-.68-.55 1.49Z" fill="#2b354e"/><path d="m317.45 127.52-.55-1.49-1.48.68.7-1.42-1.54-.53 1.55-.53-.71-1.42 1.48.67.55-1.48.55 1.49 1.5-.68-.71 1.42 1.54.53-1.54.53.7 1.42-1.49-.68-.55 1.49Z" fill="#2b354e"/><path d="m286.93 153.1-.56-1.48-1.48.67.7-1.42-1.54-.53 1.55-.53-.7-1.42 1.48.68.55-1.49.55 1.49 1.48-.68-.7 1.42 1.54.53-1.55.53.71 1.42-1.48-.67-.55 1.48Z" fill="#2b354e"/><path d="m277.2 152.94-.54-1.49-1.49.68.7-1.42-1.54-.53 1.55-.53-.7-1.42 1.48.68.55-1.49.55 1.49 1.48-.68-.7 1.42 1.54.53-1.54.53.7 1.42-1.48-.68-.55 1.49Z" fill="#2b354e"/><path d="m267.76 152.98-.55-1.48-1.48.68.7-1.43-1.55-.52 1.55-.53-.7-1.42 1.48.67.55-1.48.55 1.48 1.49-.67-.71 1.42 1.55.53-1.55.52.7 1.43-1.48-.68-.55 1.48Z" fill="#2b354e"/><path d="m258.19 152.99-.56-1.49-1.48.68.7-1.42-1.54-.53 1.55-.53-.7-1.42 1.47.67.56-1.48.55 1.48 1.48-.67-.7 1.42 1.54.53-1.55.53.71 1.42-1.48-.68-.55 1.49Z" fill="#2b354e"/><path d="m247.99 152.81-.55-1.48-1.48.67.7-1.42-1.55-.53 1.55-.52-.7-1.43 1.48.68.55-1.48.55 1.48 1.49-.68-.71 1.43 1.55.52-1.55.53.7 1.42-1.48-.67-.55 1.48Z" fill="#2b354e"/><path d="m286.93 153.1-.56-1.48-1.48.67.7-1.42-1.54-.53 1.55-.53-.7-1.42 1.48.68.55-1.49.55 1.49 1.48-.68-.7 1.42 1.54.53-1.55.53.71 1.42-1.48-.67-.55 1.48Z" fill="#2b354e"/><path d="m307.41 153.31-.55-1.48-1.48.68.7-1.43-1.55-.52 1.55-.53-.7-1.42 1.48.67.55-1.48.55 1.48 1.48-.67-.7 1.42 1.55.53-1.55.52.7 1.43-1.48-.68-.55 1.48Z" fill="#2b354e"/><path d="m297.2 153.25-.54-1.49-1.49.68.7-1.43-1.54-.52 1.55-.53-.71-1.42 1.49.67.55-1.48.54 1.48 1.5-.67-.71 1.42 1.54.53-1.54.52.7 1.43-1.49-.68-.54 1.49Z" fill="#2b354e"/><path d="m238.62 152.82-.55-1.48-1.49.67.7-1.42-1.54-.53 1.55-.52-.7-1.43 1.48.68.55-1.48.55 1.48 1.48-.68-.7 1.43 1.55.53-1.55.52.7 1.42-1.48-.67-.55 1.48Z" fill="#2b354e"/><path d="m317.24 153.22-.55-1.49-1.48.68.7-1.43-1.55-.52 1.55-.53-.7-1.42 1.48.67.55-1.48.55 1.48 1.49-.67-.71 1.42 1.55.53-1.55.52.7 1.43-1.48-.68-.55 1.49Z" fill="#2b354e"/><path d="M324.16 80.51a3.92 3.92 0 1 1 7.85.02 3.92 3.92 0 0 1-7.85-.02Z" fill="none"/><path d="m318.63 83.03.13-4.73 2.7.71.94-1.71-2.31-1.7s.66-1 1.54-1.7 1.98-1.13 1.98-1.13l1.45 2.03 1.52-.55s-.94-2.22-.62-2.28a9.76 9.76 0 0 1 4.17.07c.13.03-.6 2.45-.6 2.45l1.96.72s.93-2.27 1.18-2.15c1.52.72 3.45 3.01 3.45 3.01l-2.02 1.5.6 1.8 2.6-.67s.26 1.04.24 2.03c-.02 1-.21 1.7-.21 1.7l-2.61-.15-.49 1.68 2.47.78s-.32.83-.84 1.6c-.52.76-1.22 1.46-1.22 1.46l-1.62-1.78-2.07 1.41.91 2.29s-2.56.85-3.98.85h-.4l.17-2.4-2.37-.7s-1.35 2.25-1.63 2.16c-2.07-.66-3.78-3.24-3.78-3.24l2.57-1.61-.84-1.78s-2.9.24-2.97-.01" fill="none"/><path d="M558.64 358.94c0-3.62 3-6.55 6.71-6.55 3.7 0 6.71 2.93 6.71 6.55 0 3.62-3 6.56-6.71 6.56a6.64 6.64 0 0 1-6.71-6.56Z" fill="#8cc2ee" fill-opacity=".54"/><path d="M565.3 357.64v7.86" fill="none"/><path d="M565.18 352.4v2.05" fill="none"/><path d="M330.16 142.9s6.03-9.54 18.56-9.56c12.53-.02 19.17 9.3 19.17 9.3" fill="none"/><path d="M330.3 148.58s6.19 10.07 18.74 10.03 18.56-10.1 18.56-10.1" fill="none"/><path d="M340.14 146.05c0-4.76 4.09-8.61 9.13-8.61 5.05 0 9.14 3.85 9.14 8.61s-4.1 8.61-9.14 8.61c-5.04 0-9.13-3.85-9.13-8.6Z" fill="#fddf19"/><path d="M458.84 95.9a14 14 0 0 0-5.62 1.32 11.9 11.9 0 0 0-5.02 4.54c-3.17 5.12-2.42 11.73-.68 17.2a51.27 51.27 0 0 0 3.1 7.33 65.24 65.24 0 0 0 2.98 5.13c1.8 2.81 3.8 5.46 5.85 8.1 1.91 2.46 3.84 4.91 5.8 7.34a1046.36 1046.36 0 0 0 41.09 47.39c2.72 2.94 5.45 5.88 8.23 8.77a208.4 208.4 0 0 0 6.47 6.5 162.3 162.3 0 0 0 3.98 3.61c3.7 3.3 7.5 6.49 11.48 9.43 2.85 2.1 5.8 4.12 8.96 5.72.59.29 1.18.57 1.78.83 2.45 1.04 5.88 2.13 8.36.6 2.55-1.56 2.92-5.22 2.9-7.91 0-.51-.01-1.02-.04-1.52a60.6 60.6 0 0 0-1.96-11.25 148.7 148.7 0 0 0-4.02-13.04 293.5 293.5 0 0 0-8.05-20.24 292.95 292.95 0 0 1 8.15 20.8c1.52 4.44 2.92 8.93 4.01 13.5.65 2.7 1.2 5.46 1.5 8.23a27.03 27.03 0 0 1 .2 3.88c-.04 2.9-.61 6.84-3.87 7.82-.49.14-1 .2-1.52.22a9.6 9.6 0 0 1-2.48-.3 20.28 20.28 0 0 1-3.92-1.44 56.44 56.44 0 0 1-9.18-5.7 161.26 161.26 0 0 1-12.43-10.28c-6.44-5.8-12.33-12.2-18.17-18.58a1051.4 1051.4 0 0 1-21.26-24.03 866.83 866.83 0 0 1-19.57-23.53 462.88 462.88 0 0 1-6.05-7.75c-1.76-2.31-3.5-4.63-5.08-7.08a64.96 64.96 0 0 1-3.28-5.65 50.28 50.28 0 0 1-3.14-7.69 32.2 32.2 0 0 1-.7-2.79c-1.1-5.39-.83-11.87 3.6-15.78a11.1 11.1 0 0 1 2.36-1.6 12.78 12.78 0 0 1 4-1.23c6.2-.86 12.5 2.1 17.35 5.72a42.2 42.2 0 0 1 5.6 4.97 55.51 55.51 0 0 1 3.53 4.09 69.9 69.9 0 0 1 3.8 5.35 70.2 70.2 0 0 0-3.68-5.44 56.28 56.28 0 0 0-3.47-4.17c-1-1.09-2.05-2.13-3.15-3.12-5.02-4.54-11.75-8.51-18.74-8.27Z" fill="#fff"/><path d="M545.8 95.42a26.75 26.75 0 0 0-18.72 7.45 35.45 35.45 0 0 0-6.78 9.15 35.18 35.18 0 0 1 6.95-8.96c5.21-4.7 12.17-7.37 19.22-6.9 1.67.12 3.35.41 4.95.92 2.36.75 4.37 1.94 5.64 4.13 1.64 2.82 1.62 6.28 1.1 9.4a30.4 30.4 0 0 1-1.9 6.46 54.85 54.85 0 0 1-5.64 10.3 107.65 107.65 0 0 1-4.68 6.24 302.01 302.01 0 0 1-5.99 7.23 626.25 626.25 0 0 1-16.06 18.14 782.86 782.86 0 0 1-22.45 23.46 480.28 480.28 0 0 1-21.2 20.16 209.58 209.58 0 0 1-11.33 9.44 76.68 76.68 0 0 1-8.67 5.94c-1.76 1-3.67 2-5.68 2.35a3.8 3.8 0 0 1-2.42-.22c-1.63-.86-1.54-3.3-1.36-4.85a20.1 20.1 0 0 1 .43-2.4 44.51 44.51 0 0 1 1.68-5.45c1.86-5.1 4.2-10.02 6.64-14.88a411.13 411.13 0 0 1 10.05-18.68 404.06 404.06 0 0 0-10.5 19.31c-2.39 4.77-4.7 9.6-6.52 14.63a59.87 59.87 0 0 0-1.37 4.33 28.48 28.48 0 0 0-.59 2.84c-.23 1.7-.38 4.39 1.42 5.35 1.04.55 2.32.37 3.4.1a23.1 23.1 0 0 0 5.52-2.5 83.48 83.48 0 0 0 8.9-6.16c3.65-2.82 7.19-5.8 10.66-8.85 7.34-6.45 14.4-13.2 21.33-20.07a787.84 787.84 0 0 0 23-23.83 619.4 619.4 0 0 0 16.07-17.98 289.3 289.3 0 0 0 5.74-6.86c1.64-2.04 3.25-4.11 4.74-6.27 2.1-3.02 4-6.2 5.47-9.58a31.84 31.84 0 0 0 2.47-8.24c.46-3.14.26-6.58-1.42-9.36a9.18 9.18 0 0 0-2.8-2.9c-.88-.58-1.88-1-2.88-1.34-2.07-.69-4.26-1-6.43-1.05Z" fill="#fff"/><path d="M509.2 138.68a252.58 252.58 0 0 0-43.48 4.22 190.14 190.14 0 0 0-26.22 6.73 125.04 125.04 0 0 0-11.82 4.64c-2.56 1.17-5.51 2.7-6.94 5.25a5.3 5.3 0 0 0-.58 1.44c-.77 3.15 1.56 5.99 3.74 7.94a27.03 27.03 0 0 0 2.92 2.27 45.66 45.66 0 0 0 4.73 2.84c4.22 2.27 8.67 4.12 13.17 5.76a159.52 159.52 0 0 0 26.16 7.03c3.16.53 6.35.94 9.56 1.01-3.2-.13-6.38-.6-9.53-1.2-3.83-.72-7.64-1.64-11.4-2.68a159.46 159.46 0 0 1-14.55-4.8c-4.3-1.65-8.55-3.5-12.6-5.7a48.36 48.36 0 0 1-5.88-3.74 19.6 19.6 0 0 1-3.92-3.76c-1.06-1.4-1.84-3.16-1.33-4.93.12-.42.3-.81.53-1.18a8.42 8.42 0 0 1 2.07-2.2 24.08 24.08 0 0 1 4.86-2.73c4.19-1.9 8.5-3.52 12.86-4.98a192 192 0 0 1 25.97-6.54 249.15 249.15 0 0 1 35.46-3.91c12.38-.49 24.8-.09 37.08 1.56 9.18 1.23 18.36 3.15 27.08 6.31a90.23 90.23 0 0 1 8.22 3.42 44.3 44.3 0 0 1 5.74 3.17c1.9 1.29 3.95 2.96 4.66 5.24 1.04 3.32-1.71 6.14-4.14 7.97a27.07 27.07 0 0 1-3.1 2.03 65.05 65.05 0 0 1-5.55 2.78 127.05 127.05 0 0 1-15.28 5.4 289.85 289.85 0 0 1-32.13 7.23c.1 0 .2 0 .28-.02a289.58 289.58 0 0 0 32.45-7.23c5.17-1.5 10.32-3.22 15.24-5.4a63.94 63.94 0 0 0 5.48-2.79 33.4 33.4 0 0 0 3.05-2.04c2.43-1.89 4.99-4.69 3.96-8.01-.8-2.61-3.37-4.56-5.58-5.95-1.58-1-3.27-1.87-4.95-2.68a88.91 88.91 0 0 0-9.26-3.83c-8.96-3.15-18.34-5.07-27.75-6.29-9.7-1.25-19.5-1.75-29.28-1.65Z" fill="#fff"/><path d="M31.82 480.44h530.42v43.1H31.82v-43.1Z" fill="#2b354e" fill-opacity=".86"/><path d="M31.95 508.05h530.2v15.49H31.95v-15.49Z" fill="#2b354e"/><path d="M561.97 480.11h.18-.18Z" fill="#2b354e"/><path d="M196.37 343.04s-64.71-17.6-97.16 36.02c-32.45 53.62 9.1 101.38 9.1 101.38h20.08s-3.6-47.72 13.39-82.07c17-34.35 54.59-55.34 54.59-55.34Z" fill="#2b354e"/><path d="M233.9 362.95s-7.34-14.78-16.46-19.38c-9.12-4.6-21.07-.54-21.07-.54S159.02 363.7 142 397.91c-17 34.2-13.66 81.95-13.66 81.95l145.67.58h46.11l27.35-105.15 9.92-2.95s-18.55-33.05-40.37-34.47c-21.82-1.42-28.47 12.31-28.47 12.31l-16.3 119.79c-39.4-108.57-38.35-107.02-38.35-107.02Z" fill="#fddf19"/><path d="M219.4 341.48s-21.47-11.12-8.78 19.04c12.69 30.16 62.01 106.77 62.01 106.77s-18.97-61.79-31.66-91.95c-12.69-30.16-21.56-33.86-21.56-33.86Z" fill="#f1d244"/><path d="M288.57 350.16c4.72-10.58 28.92-29.09 24.77.18-4.15 29.27-41.06 116.33-41.06 116.33s11.58-105.94 16.3-116.51Z" fill="#f1d244"/><path d="m184.38 417.45-2.92 30.94s26.97-4.75 53.5-1.72c26.53 3.02 40.73 10.04 40.73 10.04l.45 37.7s-98.39 6.27-129.98-.84c-31.59-7.1-30.92-39.95-20.14-75.57 10.78-35.62 70.35-74.96 70.35-74.96" fill="#ffd335"/><path d="m184.38 417.45-2.92 30.94s26.97-4.75 53.5-1.72c26.53 3.02 40.73 10.04 40.73 10.04l.45 37.7s-98.39 6.27-129.98-.84c-31.59-7.1-30.92-39.95-20.14-75.57 10.78-35.62 70.35-74.96 70.35-74.96" fill="none"/><path d="m389.23 372.59 64.2-.1-10.93-32.56-46.35.43-6.92 32.23Z" fill="#f1d244"/><path d="M237.09 366.67s12.26 6.14 24.29 5.82c12.03-.31 23.84-7.1 23.84-7.1l-11.52 90.44-5.03-1.9-31.58-87.26Z" fill="#fff"/><path d="M226.7 308.78s-4.08.22-3.55 4.43c.54 4.2 5.7 12.4 5.7 12.4s10.25 31.51 31.25 31.64c21 .12 34.04-35.43 34.04-35.43s6.8-10.74 4.77-14.81c-1.6-3.21-3.38-2.4-3.38-2.4s.54-10.91-3.82-19.52c-4.37-8.6-13.64-14.9-13.64-14.9s-8.63 6.76-19.86 10.3c-7.5 2.37-17.23.56-22.37 4.42-12.85 9.65-9.14 23.87-9.14 23.87Z" fill="#daa987"/><path d="m232.9 335.5-4.53 15.58s1.88 2.65 4 6.4c2.1 3.76 4.45 8.62 4.45 8.62s12.03 6.58 24.13 6.4c12.1-.17 24.27-7.1 24.27-7.1s.92-6.65 1.98-10.9c1.07-4.24 2.27-6.07 2.27-6.07l-1.96-12.88s-14.34 22.08-28.07 21.68c-13.74-.39-26.54-21.73-26.54-21.73Z" fill="#be9578"/><path d="M396.46 340.35s-20.31-49.79-9.93-52.02c6.6-1.43 5.38 9.12 9.86 14.4a183.28 183.28 0 0 1 11.09 14.58l-12.56-16.83s1.21-62.53 9.87-62.83c8.66-.3 5.49 44.32 5.49 44.32s.58-13.47 7.14-12.83c6.57.64 6.75 10.8 6.75 10.8s.65-8.97 7.15-9.1 5.25 15 5.25 15 1.86-12.2 8.25-11.12c8.43 1.43 6.78 11.55 6.64 13.71-1.12 16.76-8.84 51.83-8.84 51.83l-46.16.1Z" fill="#daa987"/><path d="M396.21 339.74h22.26s8.3-14.68 1.58-24.36c-6.72-9.67-9.45-1.17-15.24-5.18-5.78-4-6.55-5.31-9.95-11.66-3.22-6.03-4.42-11.53-8.68-10.12-8.75 2.9 2.56 30.46 2.56 30.46l7.47 20.86Z" fill="#be9578"/><path d="M410.28 281.96s-2.33 24.74 4.46 25.4c6.78.67 9.42-27.41 9.42-27.41s-2.49 28.37 3.43 28.08c5.92-.3 9.01-22.7 9.01-22.7s-3.08 23.5 3.12 23.74c6.2.24 11.84-21.8 11.84-21.8" fill="#daa987"/><path d="M410.28 281.96s-2.33 24.74 4.46 25.4c6.78.67 9.42-27.41 9.42-27.41s-2.49 28.37 3.43 28.08c5.92-.3 9.01-22.7 9.01-22.7s-3.08 23.5 3.12 23.74c6.2.24 11.84-21.8 11.84-21.8" fill="none"/><path d="M253.46 335.67c-2.87 1.52 10.02-2.03 8.46-4.89-1.6-2.94-6.46 3.83-8.46 4.89Z" fill="#952f2f"/><path d="M271.12 334.73c.3.1-4.63 1.14-6.73.3-2.92-1.17-3.63-6.15.4-5.64 1.55.2 2.63 3.19 3.85 4.17 1.14.91 1.2.76 2.48 1.17Z" fill="#952f2f"/><path d="M255.09 336.03c-.2 0 1.2 3.54 3.98 4.06s8.82.37 9.14-2.83c.28-2.73-10.89-1.08-13.12-1.23Z" fill="#952f2f"/><path d="M259.8 318.68c1.25 3.74 9.12 5.23 10.54 1.33 1.1-3.02-2.78-4.43-3.78-6.24a11.71 11.71 0 0 1-1.13-7c1.19-8.7 7.5-17.36 15.8-20.4 4.18-1.53 8.23-2.96 11.55.36" fill="none"/><path d="M282.31 305.62c-.25-.9-1 .16-.91.7.22 1.42 2.8 1.2 3.25.12.64-1.56-.24-2.27-1.76-2.16-.6.05-1.18.07-1.46.71-.38.87.51 2.61 1.56 2.08.53-.27 1.38-2.15.29-2.07-.3.03-.55.37-.66.62-.68 1.51 1.42 1.25 1.07.42" fill="none"/><path d="M250.64 304.52c.25-1.19-3.27-.14-1.92 1.13 1.52 1.44 4.12-.5 2.42-1.77-1.33-.99-3.42.5-2.87 2.15.41 1.25 2.48.86 3.05.04.28-.4-.23-.74-.62-1.34-.85-1.3-3.04.12-2.37 1.5.33.69 1.04.82 1.7.79.67-.03 1.46-1.35 1.54-1.75.23-1.14-1.93-2-2.96-.28-1.11 1.87 2.02 2.62 2.31.2.2-1.7-2.33-1.66-2.48-.3-.26 2.34 3.37.96 2.98-.15" fill="none"/><path d="M250.46 301.95a7.07 7.07 0 0 0-1.56.14 7.3 7.3 0 0 0-2.48.89c-.98.56-1.88 1.27-2.84 1.86a6.1 6.1 0 0 1-2.02.9c-1.55.3-3.04-.48-4.35-1.2 1.66.94 3.39 1.95 5.36 1.66a7.72 7.72 0 0 0 2.42-.82c.96-.48 1.84-1.14 2.82-1.57.57-.25 1.17-.4 1.76-.57.84-.26 1.76-.48 2.62-.16a5.48 5.48 0 0 1 2.53 2.02 9.47 9.47 0 0 0-.91-1.22 5.75 5.75 0 0 0-1.83-1.58c-.5-.23-1-.33-1.52-.35Zm4.26 3.15c.07.12.12.27.18.4-.06-.13-.1-.28-.18-.4Zm.18.4c.1.21.2.43.24.68 0 .02.02.04.04.04s.03-.03.02-.05c-.06-.25-.2-.45-.3-.67Z" fill="#fff"/><path d="M283.2 302.84c-1.87-.01-3.46 1.2-4.63 2.57-.36.41-.66.88-.99 1.31-.01.02 0 .04.01.05l.05-.01a5.33 5.33 0 0 1 2.28-2.25c1.92-1.01 3.97-.5 5.75.53.34.19.59.53.89.77.4.33.87.57 1.35.78 1.1.47 2.31.6 3.5.5a3.9 3.9 0 0 0 2-.67c.26-.2.45-.45.64-.72-.16.2-.33.4-.53.55-1.03.76-2.41.52-3.53.1a8.87 8.87 0 0 1-2.4-1.4c-.39-.3-.66-.72-1.05-1a6.86 6.86 0 0 0-3.34-1.1Z" fill="#fff"/><path d="M247.75 305.57c0-1.14.97-2.07 2.18-2.07 1.2 0 2.17.93 2.17 2.07 0 1.14-.97 2.06-2.17 2.06s-2.18-.92-2.18-2.06Z" fill="none"/><path d="M281.18 305.9a1.85 1.85 0 1 1 3.69 0 1.84 1.84 0 1 1-3.69 0Z" fill="none"/><path d="M236.88 301.42c2.97-6.17 11.39-9.43 17.68-7.3a10.6 10.6 0 0 1 5.14 4.3c.44.74 1.44 3.15 1.44 3.15" fill="none"/><path d="M270.4 302.69c3.11-6.3 10.39-10.93 17.69-8.27a8.2 8.2 0 0 1 5.36 5.54" fill="none"/><path d="M224.33 317.06s-19.03-36.77-2.6-57.78c16.43-21 38.49-28.64 61.87-26.5 23.38 2.14 34.03 8.76 35.13 31.48s-25.95 22.47-25.95 22.47-6.97.53-13.13-7.28c-3.63-4.6-2.15-8.83-2.15-8.83s-8.31 6.08-16.8 9.02c-8.48 2.95-17.13 2.76-17.13 2.76s-8.82.18-13.63 8.85c-2.4 4.32 1.58 19.1-3.3 17.89-4.87-1.22-2.31 7.92-2.31 7.92Z" fill="#952f2f"/><path d="M301.71 285.5s.06 6.45-.3 10.77c-.35 4.32-2.47 10.8-2.47 10.8s-.6-1.6-1.45-2.21c-.85-.61-1.96-.25-1.96-.25s.25-3.75-.43-8.22c-.69-4.47-2.3-9.66-2.3-9.66s2.28-.06 4.5-.36c2.24-.3 4.42-.87 4.42-.87Z" fill="#952f2f"/><path d="M295.7 256.21c-8.2-3.28-18.21 6.12-19.6 13.64-2.05 11.01 10.71 18.39 19.56 16.7 3.11-.59 10.83-2.81 13.3-4.98" fill="#952f2f"/><path d="M292.02 255.52c-2.4.02-4.76.85-6.84 2.03-1.02.58-2 1.26-2.9 2-3.82 3.08-7.01 7.6-7.05 12.66 0 .9.08 1.79.27 2.66 1.32 6.16 7.07 10.43 12.97 11.76 2 .45 4.06.6 6.09.33 1.41-.2 2.8-.61 4.17-1.02a61.93 61.93 0 0 0 6.39-2.24 14.76 14.76 0 0 0 3.85-2.13 14.37 14.37 0 0 1-3.87 2.11 48.2 48.2 0 0 1-6.43 2.04c-1.35.34-2.76.67-4.16.76-1.96.14-3.94-.15-5.81-.7-5.49-1.64-11-5.84-12-11.77-.16-.9-.2-1.83-.14-2.75.15-2.3.97-4.47 2.12-6.44a20.11 20.11 0 0 1 8.12-7.89 11.53 11.53 0 0 1 6.59-1.28c-.46-.06-.9-.13-1.37-.13Zm1.47.14c.74.1 1.47.29 2.2.58 0 .01.03 0 .04-.02l-.01-.04c-.72-.26-1.48-.42-2.23-.52Z" fill="#fff"/><path d="M229 272.97c7.4-11.74 24.93-12.92 36.2-19.35 5.53-3.15 11.1-9 17.5-10.17 6.16-1.12 11.17.52 15.2 5.37" fill="#952f2f"/><path d="M285.15 242.98c-.97.03-1.94.14-2.9.32a21.7 21.7 0 0 0-7.07 2.87c-3.78 2.25-7.12 5.17-11 7.25-3.52 1.9-7.33 3.24-11.08 4.6-4.09 1.49-8.17 3-12.06 4.97-3.43 1.74-6.76 3.82-9.43 6.63a25.4 25.4 0 0 0-2.64 3.33c-.01.02 0 .04.01.04s.04.02.05 0c3.14-5.1 8.38-8.14 13.83-10.26 7.27-2.82 15.06-4.38 21.95-8.13 3.65-1.98 6.78-4.76 10.17-7.13 2.35-1.65 4.91-3.2 7.75-3.8 1.44-.3 2.9-.46 4.37-.42.9.03 1.81.14 2.7.34.8.17 1.54.42 2.27.74a15.85 15.85 0 0 0-6.92-1.35Zm6.92 1.35.16.08-.16-.08Zm.16.08c.7.31 1.37.68 2 1.1-.23-.16-.44-.36-.69-.5-.42-.25-.87-.4-1.31-.6Zm2.24 1.27Z" fill="#fff"/><path d="M280.77 250.25Zm-1.6 2.69Zm-1.39 2.03a42.53 42.53 0 0 1-12.55 11 36.26 36.26 0 0 1-8.94 3.87c-4.28 1.13-8.68 1.53-13 2.47-3.5.76-6.94 1.96-9.77 4.22a17.87 17.87 0 0 0-6.1 9.46c-.88 3.5-.84 7.16-1.23 10.73 0 .02 0 .03.02.04.02 0 .05-.02.05-.04.1-1.48.2-2.95.32-4.43a31 31 0 0 1 1.04-6.25c.46-1.54 1.14-3 2.05-4.33.83-1.21 1.8-2.34 2.91-3.31 3.24-2.86 7.42-4.12 11.59-4.92 5-.96 10.15-1.36 14.91-3.29a40.83 40.83 0 0 0 11.58-7.41 48.47 48.47 0 0 0 7.12-7.8Z" fill="#fff"/><path d="M300.81 248.13c1.17.4 2.3.9 3.3 1.61 3.59 2.51 5.25 6.82 5.43 11.07.06 1.4-.03 2.79-.25 4.16-.97 6.24-4.72 13.06-11.16 14.91-1 .29-2.05.43-3.1.47-3.18.13-6.48-.71-8.18-3.63-2.04-3.5-1.11-8.42 1.3-11.5a8.64 8.64 0 0 1 2.37-2.11 9.4 9.4 0 0 0-3.03 2.78c-2.17 3.1-3.12 7.7-1.38 11.22 1.69 3.43 5.36 4.62 8.96 4.55 1.32-.03 2.63-.23 3.89-.63 7.06-2.26 10.84-9.93 11.17-16.92.05-1.27 0-2.55-.16-3.8-.52-4.1-2.35-8.19-5.84-10.58a12.98 12.98 0 0 0-3.32-1.6Zm-7.23 14.04c-.1 0-.2.05-.3.06.33-.03.66 0 1 .01-.24-.02-.47-.07-.7-.07Zm.7.07c.27.03.54.04.82.09.02 0 .03 0 .03-.02s0-.04-.02-.05c-.28-.04-.56 0-.83-.02Zm-1-.01c-.1 0-.2-.02-.29-.01-.21.02-.4.1-.62.15.3-.07.6-.12.9-.14Zm-.9.14c-.2.05-.39.09-.57.15.18-.06.37-.1.56-.14Zm-.57.15Z" fill="#fff"/><path d="M221.04 313.8c-3.3-.11-6.39 2.41-8.38 4.81-.43.51-.82 1.04-1.2 1.59-4.68 6.79-5.74 15.71-3.2 23.5 1.94 5.92 5.7 11.21 10.27 15.4a33.97 33.97 0 0 0 8.63 5.83c.7.32 1.4.61 2.13.87 3.26 1.13 7.65 1.78 10.3-.98.39-.4.72-.86.99-1.35.47-.84.76-1.78.94-2.73.34-1.77.3-3.6.13-5.4-.25-2.5-.8-4.98-1.47-7.4a42.03 42.03 0 0 1 1.34 7.03c.21 2.36.2 4.9-.72 7.11a5.78 5.78 0 0 1-3.44 3.44c-.59.2-1.21.29-1.83.31a9.9 9.9 0 0 1-2.93-.37 18.82 18.82 0 0 1-4.18-1.77 36.7 36.7 0 0 1-8.17-6.39c-4.04-4.08-7.48-9-9.34-14.48a29.22 29.22 0 0 1-.9-15.2c.58-2.83 1.61-5.6 3.16-8.05 2.02-3.17 5.82-6.68 9.9-5.2.55.2 1.08.5 1.56.86.6.45 1.13 1 1.6 1.6-.13-.18-.23-.4-.38-.57a8 8 0 0 0-1.79-1.54 6.18 6.18 0 0 0-3.02-.92Zm5.2 3.02c.14.19.26.4.39.59-.1-.14-.16-.3-.26-.43-.04-.05-.1-.1-.13-.16Zm.39.59a15.17 15.17 0 0 1 1.88 3.84c.01.03.05.05.09.04.03-.01.06-.05.04-.09-.53-1.32-1.2-2.6-2.01-3.79Z" fill="#2e71a5"/><path d="M303.95 311.88a7.39 7.39 0 0 0-1.82.16 9.1 9.1 0 0 0-2.22.82c-.27.15-.5.36-.75.52.7-.44 1.47-.8 2.27-1.03.7-.2 1.43-.3 2.16-.28 4.58.15 7.34 4.71 8.53 8.63.2.67.38 1.35.53 2.04.66 3.16.76 6.41.57 9.62a54.6 54.6 0 0 1-3.1 14.85 36.76 36.76 0 0 1-4.13 8.5 19.28 19.28 0 0 1-5.94 5.81 13.15 13.15 0 0 1-4.26 1.64c-.99.2-2 .26-3.01.2-4.74-.3-8.83-3.43-10.77-7.7a15.81 15.81 0 0 1-1.23-8.12 17.6 17.6 0 0 0 .1 5.32c1.12 5.99 5.58 11.07 11.67 12.23 1.5.28 3.04.3 4.55.09a15.1 15.1 0 0 0 5.23-1.8c2.5-1.4 4.64-3.44 6.35-5.74a35.88 35.88 0 0 0 5-10.1c2.52-7.54 3.36-15.84 1.12-23.57a29.78 29.78 0 0 0-1.85-4.73c-1.77-3.44-4.8-7.2-9-7.36Zm-23.18 35.66c.04-.33.1-.65.16-.97-.04.28-.11.56-.14.84l-.02.13Zm.16-.97c.06-.37.11-.74.2-1.11-.1.36-.13.74-.2 1.11Zm.2-1.11Zm18.03-32.08-.35.2c-.12.08-.2.18-.32.26l.67-.46Zm-.67.46c-.98.73-1.9 1.54-2.74 2.42-.03.04-.04.1 0 .13.03.03.1.02.13-.01.78-.96 1.62-1.81 2.61-2.54Z" fill="#034f8b"/><path d="M412.15 301.49c.34-4 2.17-5.44 3.57-5.36 1.4.09 3.05 1.76 2.7 5.76-.34 4-2.23 7.5-3.64 7.42-1.4-.08-2.98-3.83-2.63-7.82Z" fill="#224767"/><path d="M415.57 295.92c-.1.05-.18.24-.28.43.34-.06.7-.04 1.07.12a2.85 2.85 0 0 1 1.08.95c.77 1.14.9 2.63.83 3.97a13.4 13.4 0 0 1-1.79 6.28 5 5 0 0 1-.72.94c-.16.16-.33.3-.52.4-.83.46-1.52-.66-1.83-1.24l-.14-.3a8.3 8.3 0 0 1-.29-.67c-.23-.65.01 0-.64-5.3.12-.51.08-.44.16-.77-.2.27-.27.41-.52.72v.02h-.02c.22 3.84-.04 2.58.22 3.85a10.75 10.75 0 0 0 .9 2.62c.42.8 1.27 1.99 2.34 1.4.22-.12.43-.27.61-.46.23-.22.41-.46.59-.72a13.43 13.43 0 0 0 1.99-6.25c.13-1.57.05-3.35-.87-4.7a3.34 3.34 0 0 0-.67-.73 2.6 2.6 0 0 0-.75-.41c-.4-.14-.6-.2-.75-.15Zm-3.07 4.8c1.9-2.5 2.52-3.82 2.8-4.37-.9.15-1.65.94-2.08 1.74-.47.9-.28.75-.72 2.64Z" fill="#2b354e" fill-opacity=".86"/><path d="M437.4 304.35c.68-3.89 2.7-5.24 4.17-5.13 1.46.12 3.04 1.78 2.36 5.67-.68 3.88-2.93 7.25-4.4 7.13-1.46-.11-2.8-3.8-2.13-7.67Z" fill="#224767"/><path d="M442.44 299.28c-.1 0-.22.2-.33.31 1.07.42 1.64 1.7 1.76 2.81.09.82.03 1.65-.12 2.46a13.14 13.14 0 0 1-2.29 5.6 5.9 5.9 0 0 1-.83.9c-.18.15-.38.28-.6.38-.97.46-1.65-.85-1.95-1.55a7.03 7.03 0 0 1-.23-.64c-.2-.64 0-.01-.26-5.18l.26-.6c-.23.18-.31.3-.57.49-.01.02-.04.02-.05.06h-.01c-.13 3.3-.25 2.2-.14 3.3.08.81.25 1.62.52 2.39.36 1 1.25 2.7 2.6 2.07a3 3 0 0 0 .66-.43c.25-.2.47-.44.68-.69 1.4-1.68 2.2-3.9 2.57-6.04.25-1.43.3-3.05-.4-4.36-.16-.3-.36-.58-.6-.81-.35-.33-.52-.48-.67-.47Zm-4.6 4.48c2.92-2.37 3.85-3.7 4.27-4.17-.23-.09-.45-.2-.73-.2-.24 0-.5.05-.73.13-.35.12-.67.31-.96.54-1.2.97-.26.3-1.84 3.7Z" fill="#2b354e" fill-opacity=".86"/><path d="M425.15 303.12c.37-4.06 2.2-5.5 3.6-5.41 1.42.1 3.05 1.8 2.67 5.85-.37 4.06-2.28 7.6-3.69 7.51-1.4-.1-2.95-3.9-2.58-7.95Z" fill="#224767"/><path d="M428.6 297.49c-.1.04-.18.25-.27.43a1.85 1.85 0 0 1 1.54.44c.23.19.43.42.6.67.77 1.16.88 2.67.8 4.03-.11 2.17-.67 4.5-1.83 6.36-.2.34-.44.68-.73.96-.16.16-.33.28-.53.4-.82.45-1.5-.7-1.8-1.28l-.15-.3a6.7 6.7 0 0 1-.27-.69c-.24-.66 0 0-.62-5.38h-.01l.18-.78c-.21.27-.28.42-.53.73l-.01.02h-.01c.2 3.9-.05 2.6.2 3.9a11.29 11.29 0 0 0 .88 2.67c.41.82 1.26 2.03 2.34 1.44.22-.13.42-.29.6-.47.22-.23.42-.46.6-.72 1.22-1.8 1.83-4.2 2.02-6.34.15-1.58.08-3.38-.83-4.76a3.3 3.3 0 0 0-.66-.74 2.63 2.63 0 0 0-.76-.44c-.4-.14-.6-.21-.75-.15Zm-3.1 4.86c1.93-2.54 2.55-3.87 2.83-4.43-.9.16-1.65.95-2.08 1.76-.48.9-.3.76-.74 2.67Z" fill="#2b354e" fill-opacity=".86"/><path d="M217.52 306.47c0-12.93 10.08-23.42 22.5-23.42s22.52 10.49 22.52 23.42c0 12.93-10.08 23.42-22.51 23.42s-22.51-10.49-22.51-23.42Z" fill="#8cc2ee" fill-opacity=".37"/><path d="M267.34 305.38c0-12.94 10.08-23.42 22.51-23.42 12.44 0 22.51 10.48 22.51 23.42 0 12.93-10.07 23.42-22.5 23.42-12.44 0-22.52-10.49-22.52-23.42Z" fill="#8cc2ee" fill-opacity=".37"/><path d="m275.71 459 50.05-1.84-8 37.4-41.62-.25-.43-35.31Z" fill="#daa987"/><path d="M235.52 290.5a6.7 6.7 0 0 0-2.13.86 27.85 27.85 0 0 0-2.44 1.63c-.86.64-1.64 1.38-2.4 2.12-.44.42-.9.83-1.31 1.27-.5.55-.9 1.15-1.39 1.71-.92 1.08-1.92 2.08-2.78 3.21.95-1.06 2.03-1.97 3.03-2.97.62-.62 1.15-1.3 1.82-1.87a41.4 41.4 0 0 1 3.19-2.48 23.21 23.21 0 0 1 3.3-1.86 5.55 5.55 0 0 1 1.3-.36l.29.01c.64.1-.03.97-.2 1.22l-.16.22-.17.21-.17.2-.27.33-.34.44-.33.42-.75.88a56.88 56.88 0 0 0-5.7 8.13 30.29 30.29 0 0 0-2.03 4.22c-.18.47-.32.95-.47 1.43a7 7 0 0 0-.39 2.48c.07.94.62 1.73 1.59 1.9 1.78.32 3.1-1.6 4.11-2.74.3-.32.6-.64.88-.97 3.66-4.1 7-8.47 11.14-12.1a23.65 23.65 0 0 1 4.14-3.1c.36-.2.72-.35 1.1-.5.24-.1.37-.19.6-.04.53.37.05 1.4-.14 1.84-.66 1.54-1.43 3-2.34 4.4-1.52 2.38-3.24 4.62-4.63 7.07-1.22 2.15-2.11 4.44-3.1 6.69-.48 1.06-1.19 2.14-1.28 3.31-.04.56.1 1.19.6 1.5.39.24.9.17 1.31.08.86-.18 1.68-.57 2.49-.91l.58-.26 1.17-.52c1.56-.72 3.1-1.49 4.63-2.25 1.7-.84 3.41-1.66 5.07-2.59.83-.46 1.64-.97 2.45-1.45-.82.47-1.63.97-2.47 1.42-1.67.9-3.4 1.67-5.12 2.49-1.54.73-3.08 1.48-4.65 2.17a61 61 0 0 1-2.36.99c-.51.2-1.02.4-1.55.55-.68.19-1.5.3-1.75-.55a1.4 1.4 0 0 1-.06-.3c0-.28 0-.41.07-.7.18-.78.59-1.5.94-2.2.34-.7.64-1.4.96-2.1a48.12 48.12 0 0 1 3.24-6.27c1.54-2.41 3.37-4.63 4.85-7.09a26.57 26.57 0 0 0 1.22-2.26l.32-.68c.41-.9 1.03-2.3 0-3.03a1.3 1.3 0 0 0-.58-.25c-.37-.04-.83.2-1.17.33-.13.05-.27.1-.4.17a19.72 19.72 0 0 0-3.9 2.64c-4.44 3.57-8.04 7.99-11.85 12.19-.44.48-.9.95-1.34 1.44-.52.56-.99 1.14-1.56 1.65-.35.3-.88.7-1.38.6-.55-.1-.48-.8-.42-1.23a18.57 18.57 0 0 1 1.68-4.59 43.54 43.54 0 0 1 4.23-6.58c1.1-1.44 2.26-2.83 3.33-4.29.23-.3.43-.61.65-.92.65-.94 1.87-2.44 1.15-3.66-.44-.75-1.18-.88-1.95-.75Z" fill="#fff" fill-opacity=".31"/><path d="M293.81 284.93a3.9 3.9 0 0 0-1.87.36c-1.1.48-1.98 1.23-2.9 1.95-1.09.82-2.14 1.67-3.2 2.53a64.59 64.59 0 0 0-5.37 4.88c-2.61 2.69-4.93 5.73-6.24 9.27 2.55-5.53 7.6-9.6 12.46-13.05 1.1-.78 2.21-1.52 3.32-2.28.5-.34.97-.73 1.47-1.05a7.6 7.6 0 0 1 1.6-.83c.15-.05.3-.09.46-.1.02 0 .22.07.14.03l.02.02v.1c0 .1-.02.2-.04.3a6.3 6.3 0 0 1-.23.76c-.27.75-.6 1.46-.95 2.16-1.02 2-2.17 3.94-3.35 5.85-1.77 2.9-3.63 5.74-5.49 8.59-1.36 2.1-2.85 4.18-3.82 6.51a7.89 7.89 0 0 0-.73 2.88c-.01.2-.02.37-.01.56 0 .2.02.39.04.59.06.45.08 1.2.54 1.44.32.16.62.02.91-.12a8.3 8.3 0 0 0 1.68-1.14l.35-.3.36-.32a58.97 58.97 0 0 0 3.66-3.7c1.39-1.5 2.74-3.01 4.08-4.54 1.53-1.74 3.05-3.5 4.61-5.23 1.66-1.83 3.56-3.83 5.68-5.16.66-.41 1.9-1.21 2.47-.28a1.88 1.88 0 0 1 .21.83c.01.89-.37 1.8-.74 2.58-.73 1.52-1.72 2.87-2.61 4.28-.68 1.07-1.32 2.17-2 3.24-2.77 4.43-6.04 9.62-4.48 15.06-1.47-5.45 1.86-10.56 4.7-14.92.76-1.17 1.48-2.39 2.27-3.54 1.18-1.7 2.5-3.46 3.1-5.47.24-.8.37-1.76-.16-2.46-.79-1.03-2.16-.29-3.03.24-2.35 1.42-4.42 3.6-6.26 5.58l-1.65 1.8-2.23 2.44a322.89 322.89 0 0 1-3.22 3.51 77.55 77.55 0 0 1-4.67 4.7c-.58.52-1.17 1.03-1.81 1.47a6 6 0 0 1-.63.38l-.03.01-.03-.24a6.15 6.15 0 0 1-.07-.99 7.5 7.5 0 0 1 .71-2.74 25.9 25.9 0 0 1 2.25-3.9l1.96-2.9c1.72-2.54 3.45-5.07 5.12-7.65a93.82 93.82 0 0 0 3.44-5.68c.63-1.15 1.3-2.36 1.64-3.63.15-.52.24-1.12.02-1.63a1.65 1.65 0 0 0-1.45-1.05Z" fill="#fff" fill-opacity=".18"/><path d="m476.94 494.73-152.32-.16c-3.82 0-6.22-3.03-5.36-6.75l25.25-108.6a9.12 9.12 0 0 1 8.49-6.73l158.35.14c3.83 0 6.08 2.99 5.05 6.67l-30.66 108.77a9.65 9.65 0 0 1-8.8 6.66Z" fill="#303d5c"/><path d="m319.29 487.7-1.66 6.86 166.23.18 1.97-6.99-166.54-.04Z" fill="#446c8c"/><path d="M397.79 399.96s9.2-1.84 18.63-6.67c9.42-4.83 19.07-12.65 19.07-12.65s5.17 8.89 11.53 15.1a57.11 57.11 0 0 0 13.94 9.73l-13.13 53.55s-9.15 1.2-15.82 4.41c-6.68 3.21-16.35 9.81-16.35 9.81s-7.03-8.36-13.36-13.47c-6.58-5.31-14.9-8.79-14.9-8.79l10.39-51.02Z" fill="#2b354e" fill-opacity=".77"/><path d="M404.3 407.93s7.82-1.72 15.12-5.67c7.3-3.96 14.17-10.15 14.17-10.15s3.06 7.07 7.13 11.94c4.07 4.86 11.1 8.35 11.1 8.35l-9.92 37.53s-6 .76-11.96 3.9c-5.96 3.12-11.9 8.63-11.9 8.63s-5.59-7.45-10.93-11.82-10.44-5.66-10.44-5.66l7.62-37.05Z" fill="#2b354e" fill-opacity=".77"/><path d="M410.74 424.23a14.5 14.5 0 0 1 18.49-8.88c7.59 2.64 11.62 10.9 9 18.44s-10.9 11.51-18.5 8.87a14.5 14.5 0 0 1-9-18.43Z" fill="#f1d244" fill-opacity=".81"/><path d="m418.43 427.28 4.66 6.62" fill="none"/><path d="m439.67 417.39-16.23 16.71" fill="none"/><path d="M453.08 489.23a6.53 6.53 0 0 1 6.57-6.48c3.63 0 6.58 2.9 6.58 6.48a6.53 6.53 0 0 1-6.58 6.48 6.53 6.53 0 0 1-6.57-6.48Z" fill="none"/><path d="m472.21 491.1.07.03c2.18 1.02 1.99 1.83-.41 1.8h-.07c-2.4-.02-3.13 1.47-1.6 3.33l.04.06c1.52 1.86 1 2.5-1.16 1.44l-.05-.03c-2.16-1.07-3.46-.04-2.9 2.3l.02.07c.56 2.34-.19 2.7-1.67.8l-.04-.05c-1.48-1.9-3.1-1.53-3.6.82l-.02.07c-.5 2.35-1.33 2.35-1.85 0l-.01-.07c-.51-2.35-2.12-2.72-3.6-.82l-.05.05c-1.48 1.9-2.22 1.54-1.66-.8l.01-.07c.56-2.34-.73-3.37-2.89-2.3l-.06.03c-2.15 1.06-2.67.42-1.15-1.44l.04-.06c1.52-1.86.8-3.35-1.6-3.33h-.07c-2.4.03-2.59-.78-.41-1.8l.06-.03c2.18-1.02 2.18-2.68 0-3.7l-.06-.03c-2.18-1.02-2-1.82.41-1.8h.07c2.4.03 3.12-1.46 1.6-3.33l-.04-.05c-1.52-1.87-1-2.51 1.15-1.44l.06.02c2.16 1.07 3.5.1 2.9-2.3l-.02-.07c-.56-2.34.29-2.67 1.66-.8l.05.05c1.48 1.9 3.09 1.53 3.6-.82l.01-.07c.51-2.35 1.34-2.35 1.85 0l.02.07c.5 2.35 2.12 2.72 3.6.82l.04-.05c1.48-1.9 2.23-1.54 1.67.8l-.02.07c-.56 2.34.73 3.37 2.9 2.3l.05-.02c2.16-1.07 2.68-.43 1.16 1.44l-.05.05c-1.52 1.87-.8 3.36 1.6 3.33h.07c2.41-.02 2.6.78.41 1.8l-.06.03c-2.17 1.02-2.17 2.68 0 3.7Z" fill="none"/><path d="m514.08 483.85.12.06c4.32 1.89 3.95 3.38-.82 3.33h-.13c-4.77-.05-6.2 2.7-3.19 6.16l.1.1c3 3.44 1.98 4.64-2.3 2.66l-.11-.05c-4.28-1.97-6.85-.06-5.74 4.26l.03.12c1.11 4.33-.36 5-3.3 1.48l-.08-.1c-2.94-3.5-6.14-2.82-7.15 1.53l-.03.12c-1.01 4.35-2.66 4.35-3.67 0l-.03-.12c-1-4.35-4.21-5.03-7.15-1.52l-.08.1c-2.94 3.5-4.42 2.84-3.3-1.49l.03-.12c1.11-4.32-1.45-6.23-5.74-4.26l-.11.05c-4.28 1.98-5.3.78-2.29-2.67l.08-.1c3.02-3.44 1.6-6.2-3.18-6.15h-.13c-4.78.05-5.14-1.44-.82-3.33l.13-.06c4.32-1.88 4.32-4.94 0-6.83l-.13-.05c-4.32-1.9-3.96-3.38.82-3.33h.13c4.77.04 6.2-2.71 3.18-6.16l-.08-.1c-3.02-3.45-2-4.64 2.29-2.67l.11.06c4.28 1.97 6.94.18 5.74-4.27l-.03-.12c-1.12-4.33.57-4.93 3.3-1.48l.08.1c2.94 3.5 6.14 2.82 7.15-1.52l.03-.13c1.01-4.34 2.66-4.34 3.67 0l.03.12c1 4.35 4.21 5.03 7.15 1.53l.08-.1c2.94-3.5 4.41-2.85 3.3 1.48l-.03.12c-1.11 4.33 1.46 6.24 5.74 4.27l.12-.06c4.27-1.97 5.3-.78 2.28 2.67l-.09.1c-3 3.44-1.58 6.2 3.19 6.16h.13c4.77-.05 5.14 1.44.82 3.33l-.13.05c-4.32 1.89-4.32 4.95 0 6.83Z" fill="none"/><path d="M477.4 481.1c0-7.16 5.72-12.96 12.78-12.96s12.79 5.8 12.79 12.95c0 7.15-5.73 12.95-12.79 12.95s-12.78-5.8-12.78-12.95Z" fill="none"/><path d="M265.43 302.6a5.25 5.25 0 0 0-3.26 1.37.58.58 0 0 0-.04.82c.22.23.58.25.81.03 1.02-1 2.9-2.41 4.29-1.22.36.3.5.81.7 1.22-.14-.47-.2-1-.52-1.4a2.42 2.42 0 0 0-1.98-.83Z" fill="#fff"/><path d="m73.35 465.35 39.46-.17-4.05 29.27s-7.86 1.75-15.29 1.75a67.06 67.06 0 0 1-14.4-1.76l-5.72-29.1Z" fill="#303d5c"/><path d="M73.34 465.33c0-.96 8.84-1.74 19.74-1.74 10.9 0 19.74.78 19.74 1.74s-8.84 1.74-19.74 1.74c-10.9 0-19.74-.78-19.74-1.74Z" fill="#232d45"/><path d="M89.46 471.65c-2.59.34-3.06 3.26-3.2 5.4a29.82 29.82 0 0 0-.07 2.65v2.17a13.48 13.48 0 0 1-.29 3.2c-.08.33-.2.68-.43.95a.82.82 0 0 1-.18.16l-.07-.1a12.08 12.08 0 0 1-.78-1.58c-.48-1.17-.9-2.38-1.3-3.57-.69-2-1.32-4.05-2.14-6-.21-.49-.42-1-.73-1.43-.14-.18-.31-.4-.54-.46-.57-.15-.76.63-.85 1.03-.3 1.38-.27 2.86-.29 4.27.07-.7.14-1.4.24-2.1a21.79 21.79 0 0 1 .37-1.9c.04-.17.2-.78.4-.85l.13.14c.11.15.2.34.28.51.3.69.5 1.41.7 2.13l.14.5c.74 2.74 1.28 5.56 2.2 8.24l.25.67c.36.9 1 2.44 2.24 2.1 1.32-.36 1.79-1.89 1.95-3.07.37-2.77-.13-5.6.11-8.38.12-1.34.42-3.29 2.03-3.53.2-.04.42-.05.64-.02 1.15.18 1.39 1.77 1.5 2.68a12.78 12.78 0 0 1 .12 1.28l.03.95c.04 1.72-.01 3.44.08 5.16.07 1.3.2 2.64.6 3.88.5 1.47 1.44 2.74 2.98 3.17.2.05.41.09.63.06 1.04-.12 1.45-1.62 1.65-2.44l.1-.38.07-.4.16-.86c.54-3.32.68-6.7 1.45-9.98.2-.87.47-1.76.92-2.54.22-.37.5-.75.88-.96 1.02-.54 1.32 1 1.45 1.69l.07.43a21.04 21.04 0 0 1 .22 2.74l.05 1.63.02 1.06.01 1a47.22 47.22 0 0 0 .07 1.53l.03.36.05.33c.05.37.22 1.31.76.73a2.03 2.03 0 0 0 .33-.46l.3-.56c.16-.35.3-.72.44-1.07a136.08 136.08 0 0 0 1.75-5.02 121.26 121.26 0 0 1-1.84 4.98 20.83 20.83 0 0 1-.76 1.6 3.95 3.95 0 0 1-.32.44c-.44.46-.5-.6-.53-.82v-.16l-.02-.18-.02-.37-.01-.42-.01-.44c-.04-2.38.12-4.8-.23-7.17-.13-.9-.5-2.8-1.83-2.25-.53.21-.93.68-1.22 1.16a9.6 9.6 0 0 0-1 2.63c-.8 3.12-1.03 6.36-1.58 9.53a13.22 13.22 0 0 1-.78 3.09c-.13.28-.33.75-.68.82-.28.06-.64-.14-.89-.26-1.4-.68-1.93-2.32-2.17-3.75-.48-2.97-.06-6-.21-8.98-.08-1.62-.33-4.07-2.25-4.55-.39-.1-.8-.1-1.18-.04Z" fill="#fff"/><path d="M90.68 430.83a.08.08 0 0 0-.03.11 6.13 6.13 0 0 1 1.06 3.5c-.05 3.27-3.05 5.22-5.07 7.36-1.77 1.9-3.33 4.09-3.78 6.7-.72 4.22 2.52 7.45 4.95 10.42a33.32 33.32 0 0 1 3.3 4.68c-.85-1.57-1.83-3.06-2.67-4.64a23.5 23.5 0 0 1-2.09-5.48 9.82 9.82 0 0 1-.32-4.13c.26-1.32.93-2.52 1.64-3.65.8-1.27 1.68-2.52 2.4-3.84 1.3-2.33 2.3-5.06 1.84-7.76-.2-1.14-.68-2.17-1.11-3.23a.08.08 0 0 0-.12-.04Z" fill="#fff"/><path d="M97.25 436.64c-.04.01-.06.05-.04.1a6.49 6.49 0 0 1 .43 3.76c-.52 2.73-2.88 4.2-4.74 6-2.1 2.03-3.87 4.6-3.97 7.62-.02.44 0 .9.1 1.33.57 2.66 3.4 4.02 5.42 5.42.38.26.71.49 1.06.78.9.74 2.19 2 1.7 3.3a2.6 2.6 0 0 1-.55.84c.23-.25.44-.5.57-.83.45-1.12-.35-2.3-1-3.16-1.14-1.51-2.4-2.92-3.37-4.55-.4-.65-.88-1.46-.86-2.25 0-.32.08-.65.15-.96.16-.78.45-1.52.8-2.23 1-1.96 2.46-3.64 3.47-5.6.97-1.89 1.6-3.98 1.52-6.12-.04-1.16-.35-2.26-.57-3.4-.02-.04-.07-.07-.12-.05Z" fill="#fff"/><path d="M80.36 448.46c-.05-.02-.1 0-.12.05-.18.57-.49 1.08-.74 1.63-.67 1.46-1.28 3.03-.67 4.62.6 1.56 1.93 2.82 3.2 3.86.25.22.52.42.79.63.8.62 1.94 1.28 1.54 2.49a2.28 2.28 0 0 1-.77 1.09c-.28.24-.58.43-.9.62a7.64 7.64 0 0 0 1.86-1.3c1.7-1.75.72-4.43-.57-6.08a17.06 17.06 0 0 0-2.73-2.66 4.52 4.52 0 0 1-1.02-.93 3.4 3.4 0 0 1-.28-3.14c.05-.14.1-.29.17-.42.07-.12.18-.22.27-.34.02-.04 0-.1-.03-.12Z" fill="#fff"/><path d="M70 468.4a5.57 5.57 0 0 0-4.09 2.6 6 6 0 0 0-.77 3.66c.07.83.31 1.64.57 2.43.35 1.09.8 2.13 1.34 3.13 2.76 5.17 7.5 8.64 12.78 10.95-4.44-3.38-8.39-7.9-9.45-13.54a15 15 0 0 1-.27-2.31c-.02-.38-.05-.8.13-1.15.08-.15.18-.2.3-.28.4-.33.86-.57 1.32-.81 1.35-.7 2.84-1.2 4.24-.33.26.16.47.36.68.57a.7.7 0 1 0 1.03-.94 12.55 12.55 0 0 0-2.3-1.95c-1.18-.83-2.4-1.7-3.84-1.98a5.45 5.45 0 0 0-1.67-.04Z" fill="#303d5c"/></g><clipPath id="a"><rect width="620" height="524" rx="0" ry="0" fill="#fff"/></clipPath></g></svg>