<svg width="119" height="357" viewBox="0 0 119 357" fill="none" xmlns="http://www.w3.org/2000/svg">
<path d="M38.2558 236.642L38.2556 236.652C37.888 255.454 35.8621 274.187 32.2016 292.632C32.1943 292.627 32.1878 292.621 32.1827 292.616C32.1767 292.609 32.1742 292.604 32.1733 292.602C32.1732 292.602 32.173 292.601 32.1729 292.601C32.5532 288.51 32.9521 284.427 33.3506 280.348C35.0315 263.144 36.7063 246.001 36.958 228.58L36.458 228.573L36.958 228.58C38.0597 151.673 21.9428 75.309 2.31855 1.37926C2.33164 1.38079 2.34388 1.38431 2.35353 1.38917C2.36121 1.39305 2.3662 1.39718 2.36984 1.40128C2.3727 1.40449 2.37765 1.41091 2.38268 1.42353C8.72242 22.3809 14.7959 43.3765 19.745 64.7032L19.7457 64.706C28.7698 102.611 34.7043 141.185 37.4908 180.049C38.7498 198.886 39.0052 217.777 38.2558 236.642ZM2.26737 1.38493C2.26734 1.3849 2.2678 1.38461 2.26883 1.38416L2.26737 1.38493Z" fill="#FFC727" stroke="white"/>
<path d="M35.9891 210.99C35.9519 207.721 35.8672 203.288 35.6833 197.862C35.2633 185.47 34.3261 167.899 32.2572 147.191C28.1536 106.116 19.5997 52.7188 1.8096 2.9087C1.60687 3.43308 1.34456 4.11502 1.0305 4.93878C0.23081 7.03629 -0.904371 10.0531 -2.24589 13.7292C-4.92911 21.0819 -8.43689 31.0695 -11.7365 41.6123C-15.0368 52.1575 -18.1253 63.2469 -19.9733 72.8061C-20.8975 77.586 -21.5092 81.9724 -21.6844 85.7105C-21.8601 89.46 -21.5935 92.5087 -20.7975 94.6418C-17.5086 103.456 -12.476 108.765 -8.27861 111.87C-6.17828 113.424 -4.28498 114.427 -2.92099 115.041C-2.23908 115.348 -1.68983 115.558 -1.31364 115.689C-1.12556 115.755 -0.980791 115.802 -0.884394 115.832C-0.836197 115.847 -0.800098 115.857 -0.77673 115.864L-0.751308 115.871L-0.745911 115.873L-0.745464 115.873L35.9891 210.99ZM35.9891 210.99C34.9742 207.065 33.3141 203.812 31.2022 200.984C28.04 196.751 23.8797 193.495 19.4273 190.375C18.2626 189.559 17.078 188.751 15.8843 187.938C7.9221 182.513 -0.438473 176.816 -5.91352 166.381C-12.1946 154.409 -10.8533 141.995 -7.91302 132.532C-6.44384 127.804 -4.57922 123.827 -3.08182 121.032C-2.33336 119.635 -1.6773 118.534 -1.20934 117.784C-0.975378 117.41 -0.788492 117.122 -0.660652 116.93C-0.596735 116.833 -0.547585 116.761 -0.514698 116.713L-0.477757 116.659L-0.468786 116.646L-0.466738 116.643L-0.466339 116.642L-0.0572472 116.059L-0.745064 115.873L35.9891 210.99Z" fill="#FFC727" stroke="white"/>
<path d="M33.2515 169.771C33.2813 169.708 33.2969 169.638 33.2969 169.568C33.2969 169.498 33.2813 169.428 33.2515 169.365C29.346 117.814 19.6728 66.863 4.41332 17.4676C4.41332 17.324 4.12617 17.4676 4.1501 17.4676C10.0533 39.549 15.2626 61.758 19.7777 84.0946C15.7724 80.2942 10.8757 77.562 5.53813 76.1491V76.3167" stroke="white"/>
<mask id="path-4-inside-1_1281_1195" fill="white">
<path d="M9.36692 68.7307C3.981 65.3775 -2.17319 63.458 -8.51036 63.1545C-8.65395 63.1545 -8.67788 63.346 -8.51036 63.3699C-2.38536 64.5116 3.56153 66.459 9.17542 69.1615C9.39081 69.2572 9.5823 68.97 9.36692 68.7307Z"/>
</mask>
<path d="M9.36692 68.7307C3.981 65.3775 -2.17319 63.458 -8.51036 63.1545C-8.65395 63.1545 -8.67788 63.346 -8.51036 63.3699C-2.38536 64.5116 3.56153 66.459 9.17542 69.1615C9.39081 69.2572 9.5823 68.97 9.36692 68.7307Z" fill="#263238"/>
<path d="M9.36692 68.7307L10.1102 68.0617L10.0156 67.9565L9.89544 67.8818L9.36692 68.7307ZM-8.51036 63.1545L-8.46253 62.1557L-8.48643 62.1545H-8.51036V63.1545ZM-8.51036 63.3699L-8.32712 62.3869L-8.34795 62.383L-8.36893 62.38L-8.51036 63.3699ZM9.17542 69.1615L8.74167 70.0625L8.75538 70.0691L8.76928 70.0753L9.17542 69.1615ZM9.89544 67.8818C4.3647 64.4384 -1.95497 62.4673 -8.46253 62.1557L-8.55818 64.1534C-2.39141 64.4487 3.59731 66.3166 8.83839 69.5796L9.89544 67.8818ZM-8.51036 62.1545C-9.0935 62.1545 -9.59016 62.5972 -9.6253 63.1945C-9.64203 63.4789 -9.54771 63.7681 -9.34645 63.993C-9.14408 64.2192 -8.88434 64.3266 -8.65178 64.3599L-8.36893 62.38C-8.22013 62.4012 -8.02023 62.4758 -7.85599 62.6594C-7.69288 62.8417 -7.61501 63.0785 -7.62875 63.312C-7.65791 63.8076 -8.0708 64.1545 -8.51036 64.1545V62.1545ZM-8.6936 64.353C-2.65535 65.4785 3.2073 67.3983 8.74167 70.0625L9.60917 68.2604C3.91576 65.5197 -2.11536 63.5447 -8.32712 62.3869L-8.6936 64.353ZM8.76928 70.0753C9.41303 70.3614 10.0507 70.0379 10.315 69.5424C10.5829 69.0402 10.4668 68.458 10.1102 68.0617L8.62362 69.3997C8.48237 69.2427 8.37824 68.9238 8.55039 68.6011C8.62907 68.4536 8.76821 68.3113 8.96855 68.2345C9.18028 68.1533 9.40267 68.1682 9.58156 68.2477L8.76928 70.0753Z" fill="white" mask="url(#path-4-inside-1_1281_1195)"/>
<mask id="path-6-inside-2_1281_1195" fill="white">
<path d="M12.9805 148.664C8.83054 146.309 4.2771 144.751 -0.445401 144.069C-0.612926 144.069 -0.612926 144.308 -0.445401 144.332C4.17447 145.262 8.64401 146.824 12.8369 148.975C13.0044 149.071 13.148 148.759 12.9805 148.664Z"/>
</mask>
<path d="M12.9805 148.664C8.83054 146.309 4.2771 144.751 -0.445401 144.069C-0.612926 144.069 -0.612926 144.308 -0.445401 144.332C4.17447 145.262 8.64401 146.824 12.8369 148.975C13.0044 149.071 13.148 148.759 12.9805 148.664Z" fill="#263238"/>
<path d="M12.9805 148.664L13.4766 147.796L13.474 147.794L12.9805 148.664ZM-0.445401 144.069L-0.302514 143.079L-0.37359 143.069H-0.445401V144.069ZM-0.445401 144.332L-0.248167 143.352L-0.275938 143.346L-0.30398 143.342L-0.445401 144.332ZM12.8369 148.975L13.333 148.107L13.3134 148.095L13.2933 148.085L12.8369 148.975ZM13.474 147.794C9.21567 145.378 4.54331 143.779 -0.302514 143.079L-0.588288 145.059C4.01088 145.723 8.44541 147.24 12.4869 149.534L13.474 147.794ZM-0.445401 143.069C-0.742455 143.069 -1.04973 143.184 -1.27624 143.43C-1.48873 143.662 -1.57104 143.944 -1.57104 144.191C-1.57104 144.693 -1.21914 145.232 -0.586823 145.322L-0.30398 143.342C0.160813 143.409 0.428955 143.815 0.428955 144.191C0.428955 144.376 0.367578 144.597 0.19697 144.783C0.0123455 144.984 -0.23211 145.069 -0.445401 145.069V143.069ZM-0.642636 145.312C3.88707 146.224 8.26937 147.756 12.3804 149.865L13.2933 148.085C9.01864 145.892 4.46187 144.299 -0.248167 143.352L-0.642636 145.312ZM12.3407 149.843C12.6781 150.036 13.0727 150.039 13.4008 149.875C13.6852 149.732 13.8538 149.502 13.9423 149.31C14.0905 148.989 14.1996 148.209 13.4766 147.796L12.4843 149.532C12.2414 149.393 12.1076 149.161 12.0684 148.945C12.0337 148.754 12.0717 148.591 12.1263 148.472C12.1789 148.358 12.2907 148.194 12.5063 148.086C12.7656 147.956 13.0794 147.962 13.333 148.107L12.3407 149.843Z" fill="white" mask="url(#path-6-inside-2_1281_1195)"/>
<path d="M117.25 96.3763L117.252 96.3747C117.323 96.3251 117.381 96.3195 117.429 96.3274C117.484 96.3366 117.542 96.3681 117.584 96.4158C117.625 96.4631 117.637 96.5081 117.637 96.5377C117.636 96.5575 117.63 96.6115 117.545 96.6894C116.515 97.5552 115.483 98.4195 114.452 99.2837C102.155 109.584 89.8741 119.872 79.8597 132.656L79.8594 132.656C59.9353 158.156 51.8801 192.372 46.7815 223.49L46.7815 223.49C41.565 255.409 41.379 287.948 46.2301 319.925L46.7245 319.85L46.2301 319.925C46.2312 319.931 46.2296 319.938 46.2257 319.944C46.2218 319.949 46.216 319.953 46.2094 319.955C46.2072 319.955 46.205 319.955 46.2028 319.955C46.1983 319.955 46.1939 319.954 46.1901 319.951C46.1855 319.949 46.182 319.944 46.1799 319.94C42.2844 301.906 40.5145 283.478 40.9063 265.032L40.9064 265.03C41.5072 231.679 47.5687 198.651 58.8499 167.26L58.851 167.257C64.1552 152.209 72.3213 138.328 82.8987 126.382C93.1832 115.119 104.706 105.053 117.25 96.3763Z" fill="#FFC727" stroke="white"/>
<path d="M69.5139 210.031L69.5099 210.035C60.4236 219.334 52.34 229.56 45.3911 240.544C45.3937 240.503 45.3962 240.462 45.3989 240.42C45.4831 239.083 45.6229 237.13 45.8451 234.669C46.2896 229.747 47.0638 222.792 48.3824 214.668C51.0203 198.413 55.8333 177.499 64.5292 158.806C73.2171 140.132 86.9021 124.122 98.4312 112.772C104.193 107.099 109.411 102.596 113.188 99.5119C115.076 97.9699 116.603 96.7828 117.658 95.9819C117.959 95.7535 118.221 95.5564 118.442 95.3916C118.425 95.699 118.403 96.0697 118.378 96.4982C118.295 97.8814 118.171 99.8675 118.004 102.278C117.67 107.099 117.165 113.617 116.48 120.404C115.796 127.192 114.933 134.242 113.884 140.132C113.359 143.077 112.789 145.724 112.175 147.898C111.556 150.085 110.904 151.752 110.231 152.767C108.882 154.802 106.638 156.144 103.96 156.996C101.284 157.847 98.2248 158.192 95.318 158.269C92.4147 158.346 89.6855 158.155 87.6804 157.944C86.6785 157.839 85.859 157.729 85.2909 157.645C85.0069 157.603 84.7858 157.568 84.6363 157.543C84.5615 157.531 84.5046 157.521 84.4668 157.515L84.4243 157.508L84.414 157.506L84.4117 157.505L84.4112 157.505L84.3225 157.997L84.4112 157.505L84.1249 158.456L84.1248 158.457L84.1251 158.457L84.1269 158.457L84.1351 158.461L84.1691 158.476C84.1996 158.489 84.2454 158.51 84.3054 158.537C84.4255 158.591 84.6025 158.672 84.8277 158.78C85.2783 158.994 85.9214 159.312 86.6878 159.724C88.2222 160.55 90.243 161.749 92.2001 163.249C94.1606 164.752 96.0347 166.539 97.2979 168.533C98.5575 170.521 99.1947 172.689 98.7416 174.988C97.8014 179.758 94.2705 184.773 89.0358 190.504C85.6246 194.238 81.5318 198.235 77.0264 202.634C74.6258 204.978 72.1081 207.437 69.5139 210.031Z" fill="#FFC727" stroke="white"/>
<path d="M106.053 107.261C90.3062 122.745 74.4392 139.234 65.1536 159.576C61.9851 166.592 59.2204 173.784 56.8731 181.115V181.115C56.3944 182.599 55.9157 184.083 55.461 185.567C55.437 185.645 55.437 185.728 55.461 185.806C51.0573 201.009 47.5019 216.445 44.8113 232.043C44.8113 232.163 44.9549 232.21 44.9788 232.043C46.5823 224.241 48.3772 216.367 50.3635 208.494C50.4336 208.516 50.5088 208.516 50.5789 208.494C53.7125 207.187 57.0314 206.38 60.415 206.1C60.6304 206.1 60.6304 205.694 60.415 205.694C57.1119 205.85 53.8443 206.445 50.6986 207.465C52.5174 200.285 54.4798 193.321 56.7055 186.333C63.9845 184.581 71.4296 183.61 78.9145 183.437C78.9145 183.437 78.9145 183.317 78.9145 183.317C71.5806 182.965 64.2325 183.593 57.0645 185.184C57.4474 183.987 57.8542 182.791 58.2371 181.594C63.1118 180.485 68.0517 179.686 73.0272 179.201V179.057" stroke="white"/>
<mask id="path-11-inside-3_1281_1195" fill="white">
<path d="M105.526 141.317C103.054 140.954 100.55 140.866 98.0591 141.053C97.7719 141.053 97.7958 141.58 98.0591 141.58C100.452 141.58 102.989 141.58 105.454 141.58C105.693 141.604 105.717 141.317 105.526 141.317Z"/>
</mask>
<path d="M105.526 141.317C103.054 140.954 100.55 140.866 98.0591 141.053C97.7719 141.053 97.7958 141.58 98.0591 141.58C100.452 141.58 102.989 141.58 105.454 141.58C105.693 141.604 105.717 141.317 105.526 141.317Z" fill="#263238"/>
<path d="M105.526 141.317L105.381 142.306L105.453 142.317H105.526V141.317ZM98.0591 141.053V142.053H98.0967L98.1342 142.051L98.0591 141.053ZM105.454 141.58L105.554 140.585L105.504 140.58H105.454V141.58ZM105.671 140.327C103.126 139.954 100.548 139.863 97.9839 140.056L98.1342 142.051C100.552 141.868 102.982 141.954 105.381 142.306L105.671 140.327ZM98.0591 140.053C97.6333 140.053 97.2835 140.269 97.0776 140.568C96.8964 140.831 96.8479 141.118 96.8529 141.339C96.858 141.562 96.9195 141.831 97.0901 142.074C97.2772 142.339 97.6116 142.58 98.0591 142.58V140.58C98.3749 140.58 98.6076 140.755 98.7251 140.922C98.8262 141.065 98.8503 141.202 98.8524 141.294C98.8544 141.384 98.8373 141.539 98.7242 141.703C98.5863 141.903 98.3413 142.053 98.0591 142.053V140.053ZM98.0591 142.58C98.0637 142.58 98.0684 142.58 98.0731 142.58C98.0778 142.58 98.0824 142.58 98.0871 142.58C98.0918 142.58 98.0965 142.58 98.1011 142.58C98.1058 142.58 98.1105 142.58 98.1152 142.58C98.1198 142.58 98.1245 142.58 98.1292 142.58C98.1339 142.58 98.1386 142.58 98.1432 142.58C98.1479 142.58 98.1526 142.58 98.1573 142.58C98.162 142.58 98.1667 142.58 98.1713 142.58C98.176 142.58 98.1807 142.58 98.1854 142.58C98.1901 142.58 98.1948 142.58 98.1994 142.58C98.2041 142.58 98.2088 142.58 98.2135 142.58C98.2182 142.58 98.2229 142.58 98.2276 142.58C98.2322 142.58 98.2369 142.58 98.2416 142.58C98.2463 142.58 98.251 142.58 98.2557 142.58C98.2604 142.58 98.2651 142.58 98.2698 142.58C98.2744 142.58 98.2791 142.58 98.2838 142.58C98.2885 142.58 98.2932 142.58 98.2979 142.58C98.3026 142.58 98.3073 142.58 98.312 142.58C98.3167 142.58 98.3214 142.58 98.3261 142.58C98.3308 142.58 98.3355 142.58 98.3401 142.58C98.3448 142.58 98.3495 142.58 98.3542 142.58C98.3589 142.58 98.3636 142.58 98.3683 142.58C98.373 142.58 98.3777 142.58 98.3824 142.58C98.3871 142.58 98.3918 142.58 98.3965 142.58C98.4012 142.58 98.4059 142.58 98.4106 142.58C98.4153 142.58 98.42 142.58 98.4247 142.58C98.4294 142.58 98.4341 142.58 98.4388 142.58C98.4435 142.58 98.4482 142.58 98.4529 142.58C98.4576 142.58 98.4623 142.58 98.4671 142.58C98.4718 142.58 98.4765 142.58 98.4812 142.58C98.4859 142.58 98.4906 142.58 98.4953 142.58C98.5 142.58 98.5047 142.58 98.5094 142.58C98.5141 142.58 98.5188 142.58 98.5235 142.58C98.5282 142.58 98.5329 142.58 98.5377 142.58C98.5424 142.58 98.5471 142.58 98.5518 142.58C98.5565 142.58 98.5612 142.58 98.5659 142.58C98.5706 142.58 98.5753 142.58 98.5801 142.58C98.5848 142.58 98.5895 142.58 98.5942 142.58C98.5989 142.58 98.6036 142.58 98.6083 142.58C98.6131 142.58 98.6178 142.58 98.6225 142.58C98.6272 142.58 98.6319 142.58 98.6366 142.58C98.6413 142.58 98.6461 142.58 98.6508 142.58C98.6555 142.58 98.6602 142.58 98.6649 142.58C98.6697 142.58 98.6744 142.58 98.6791 142.58C98.6838 142.58 98.6885 142.58 98.6933 142.58C98.698 142.58 98.7027 142.58 98.7074 142.58C98.7121 142.58 98.7169 142.58 98.7216 142.58C98.7263 142.58 98.731 142.58 98.7357 142.58C98.7405 142.58 98.7452 142.58 98.7499 142.58C98.7546 142.58 98.7594 142.58 98.7641 142.58C98.7688 142.58 98.7735 142.58 98.7783 142.58C98.783 142.58 98.7877 142.58 98.7924 142.58C98.7972 142.58 98.8019 142.58 98.8066 142.58C98.8114 142.58 98.8161 142.58 98.8208 142.58C98.8255 142.58 98.8303 142.58 98.835 142.58C98.8397 142.58 98.8445 142.58 98.8492 142.58C98.8539 142.58 98.8587 142.58 98.8634 142.58C98.8681 142.58 98.8728 142.58 98.8776 142.58C98.8823 142.58 98.887 142.58 98.8918 142.58C98.8965 142.58 98.9012 142.58 98.906 142.58C98.9107 142.58 98.9155 142.58 98.9202 142.58C98.9249 142.58 98.9297 142.58 98.9344 142.58C98.9391 142.58 98.9439 142.58 98.9486 142.58C98.9533 142.58 98.9581 142.58 98.9628 142.58C98.9676 142.58 98.9723 142.58 98.977 142.58C98.9818 142.58 98.9865 142.58 98.9912 142.58C98.996 142.58 99.0007 142.58 99.0055 142.58C99.0102 142.58 99.0149 142.58 99.0197 142.58C99.0244 142.58 99.0292 142.58 99.0339 142.58C99.0387 142.58 99.0434 142.58 99.0481 142.58C99.0529 142.58 99.0576 142.58 99.0624 142.58C99.0671 142.58 99.0719 142.58 99.0766 142.58C99.0813 142.58 99.0861 142.58 99.0908 142.58C99.0956 142.58 99.1003 142.58 99.1051 142.58C99.1098 142.58 99.1146 142.58 99.1193 142.58C99.1241 142.58 99.1288 142.58 99.1336 142.58C99.1383 142.58 99.1431 142.58 99.1478 142.58C99.1526 142.58 99.1573 142.58 99.1621 142.58C99.1668 142.58 99.1716 142.58 99.1763 142.58C99.1811 142.58 99.1858 142.58 99.1906 142.58C99.1953 142.58 99.2001 142.58 99.2048 142.58C99.2096 142.58 99.2143 142.58 99.2191 142.58C99.2238 142.58 99.2286 142.58 99.2333 142.58C99.2381 142.58 99.2428 142.58 99.2476 142.58C99.2524 142.58 99.2571 142.58 99.2619 142.58C99.2666 142.58 99.2714 142.58 99.2761 142.58C99.2809 142.58 99.2856 142.58 99.2904 142.58C99.2952 142.58 99.2999 142.58 99.3047 142.58C99.3094 142.58 99.3142 142.58 99.319 142.58C99.3237 142.58 99.3285 142.58 99.3332 142.58C99.338 142.58 99.3428 142.58 99.3475 142.58C99.3523 142.58 99.357 142.58 99.3618 142.58C99.3666 142.58 99.3713 142.58 99.3761 142.58C99.3808 142.58 99.3856 142.58 99.3904 142.58C99.3951 142.58 99.3999 142.58 99.4047 142.58C99.4094 142.58 99.4142 142.58 99.419 142.58C99.4237 142.58 99.4285 142.58 99.4332 142.58C99.438 142.58 99.4428 142.58 99.4475 142.58C99.4523 142.58 99.4571 142.58 99.4618 142.58C99.4666 142.58 99.4714 142.58 99.4761 142.58C99.4809 142.58 99.4857 142.58 99.4905 142.58C99.4952 142.58 99.5 142.58 99.5048 142.58C99.5095 142.58 99.5143 142.58 99.5191 142.58C99.5238 142.58 99.5286 142.58 99.5334 142.58C99.5382 142.58 99.5429 142.58 99.5477 142.58C99.5525 142.58 99.5572 142.58 99.562 142.58C99.5668 142.58 99.5716 142.58 99.5763 142.58C99.5811 142.58 99.5859 142.58 99.5906 142.58C99.5954 142.58 99.6002 142.58 99.605 142.58C99.6097 142.58 99.6145 142.58 99.6193 142.58C99.6241 142.58 99.6288 142.58 99.6336 142.58C99.6384 142.58 99.6432 142.58 99.648 142.58C99.6527 142.58 99.6575 142.58 99.6623 142.58C99.6671 142.58 99.6718 142.58 99.6766 142.58C99.6814 142.58 99.6862 142.58 99.691 142.58C99.6957 142.58 99.7005 142.58 99.7053 142.58C99.7101 142.58 99.7149 142.58 99.7196 142.58C99.7244 142.58 99.7292 142.58 99.734 142.58C99.7388 142.58 99.7435 142.58 99.7483 142.58C99.7531 142.58 99.7579 142.58 99.7627 142.58C99.7674 142.58 99.7722 142.58 99.777 142.58C99.7818 142.58 99.7866 142.58 99.7914 142.58C99.7961 142.58 99.8009 142.58 99.8057 142.58C99.8105 142.58 99.8153 142.58 99.8201 142.58C99.8249 142.58 99.8296 142.58 99.8344 142.58C99.8392 142.58 99.844 142.58 99.8488 142.58C99.8536 142.58 99.8584 142.58 99.8632 142.58C99.8679 142.58 99.8727 142.58 99.8775 142.58C99.8823 142.58 99.8871 142.58 99.8919 142.58C99.8967 142.58 99.9015 142.58 99.9062 142.58C99.911 142.58 99.9158 142.58 99.9206 142.58C99.9254 142.58 99.9302 142.58 99.935 142.58C99.9398 142.58 99.9446 142.58 99.9494 142.58C99.9542 142.58 99.9589 142.58 99.9637 142.58C99.9685 142.58 99.9733 142.58 99.9781 142.58C99.9829 142.58 99.9877 142.58 99.9925 142.58C99.9973 142.58 100.002 142.58 100.007 142.58C100.012 142.58 100.016 142.58 100.021 142.58C100.026 142.58 100.031 142.58 100.036 142.58C100.04 142.58 100.045 142.58 100.05 142.58C100.055 142.58 100.06 142.58 100.064 142.58C100.069 142.58 100.074 142.58 100.079 142.58C100.084 142.58 100.088 142.58 100.093 142.58C100.098 142.58 100.103 142.58 100.108 142.58C100.112 142.58 100.117 142.58 100.122 142.58C100.127 142.58 100.132 142.58 100.136 142.58C100.141 142.58 100.146 142.58 100.151 142.58C100.156 142.58 100.16 142.58 100.165 142.58C100.17 142.58 100.175 142.58 100.18 142.58C100.184 142.58 100.189 142.58 100.194 142.58C100.199 142.58 100.204 142.58 100.208 142.58C100.213 142.58 100.218 142.58 100.223 142.58C100.228 142.58 100.232 142.58 100.237 142.58C100.242 142.58 100.247 142.58 100.252 142.58C100.256 142.58 100.261 142.58 100.266 142.58C100.271 142.58 100.276 142.58 100.28 142.58C100.285 142.58 100.29 142.58 100.295 142.58C100.3 142.58 100.305 142.58 100.309 142.58C100.314 142.58 100.319 142.58 100.324 142.58C100.329 142.58 100.333 142.58 100.338 142.58C100.343 142.58 100.348 142.58 100.353 142.58C100.357 142.58 100.362 142.58 100.367 142.58C100.372 142.58 100.377 142.58 100.381 142.58C100.386 142.58 100.391 142.58 100.396 142.58C100.401 142.58 100.406 142.58 100.41 142.58C100.415 142.58 100.42 142.58 100.425 142.58C100.43 142.58 100.434 142.58 100.439 142.58C100.444 142.58 100.449 142.58 100.454 142.58C100.458 142.58 100.463 142.58 100.468 142.58C100.473 142.58 100.478 142.58 100.483 142.58C100.487 142.58 100.492 142.58 100.497 142.58C100.502 142.58 100.507 142.58 100.511 142.58C100.516 142.58 100.521 142.58 100.526 142.58C100.531 142.58 100.535 142.58 100.54 142.58C100.545 142.58 100.55 142.58 100.555 142.58C100.56 142.58 100.564 142.58 100.569 142.58C100.574 142.58 100.579 142.58 100.584 142.58C100.588 142.58 100.593 142.58 100.598 142.58C100.603 142.58 100.608 142.58 100.613 142.58C100.617 142.58 100.622 142.58 100.627 142.58C100.632 142.58 100.637 142.58 100.641 142.58C100.646 142.58 100.651 142.58 100.656 142.58C100.661 142.58 100.666 142.58 100.67 142.58C100.675 142.58 100.68 142.58 100.685 142.58C100.69 142.58 100.695 142.58 100.699 142.58C100.704 142.58 100.709 142.58 100.714 142.58C100.719 142.58 100.723 142.58 100.728 142.58C100.733 142.58 100.738 142.58 100.743 142.58C100.748 142.58 100.752 142.58 100.757 142.58C100.762 142.58 100.767 142.58 100.772 142.58C100.777 142.58 100.781 142.58 100.786 142.58C100.791 142.58 100.796 142.58 100.801 142.58C100.805 142.58 100.81 142.58 100.815 142.58C100.82 142.58 100.825 142.58 100.83 142.58C100.834 142.58 100.839 142.58 100.844 142.58C100.849 142.58 100.854 142.58 100.859 142.58C100.863 142.58 100.868 142.58 100.873 142.58C100.878 142.58 100.883 142.58 100.888 142.58C100.892 142.58 100.897 142.58 100.902 142.58C100.907 142.58 100.912 142.58 100.916 142.58C100.921 142.58 100.926 142.58 100.931 142.58C100.936 142.58 100.941 142.58 100.945 142.58C100.95 142.58 100.955 142.58 100.96 142.58C100.965 142.58 100.97 142.58 100.974 142.58C100.979 142.58 100.984 142.58 100.989 142.58C100.994 142.58 100.999 142.58 101.003 142.58C101.008 142.58 101.013 142.58 101.018 142.58C101.023 142.58 101.028 142.58 101.032 142.58C101.037 142.58 101.042 142.58 101.047 142.58C101.052 142.58 101.057 142.58 101.061 142.58C101.066 142.58 101.071 142.58 101.076 142.58C101.081 142.58 101.086 142.58 101.09 142.58C101.095 142.58 101.1 142.58 101.105 142.58C101.11 142.58 101.115 142.58 101.119 142.58C101.124 142.58 101.129 142.58 101.134 142.58C101.139 142.58 101.144 142.58 101.148 142.58C101.153 142.58 101.158 142.58 101.163 142.58C101.168 142.58 101.173 142.58 101.177 142.58C101.182 142.58 101.187 142.58 101.192 142.58C101.197 142.58 101.202 142.58 101.206 142.58C101.211 142.58 101.216 142.58 101.221 142.58C101.226 142.58 101.231 142.58 101.236 142.58C101.24 142.58 101.245 142.58 101.25 142.58C101.255 142.58 101.26 142.58 101.265 142.58C101.269 142.58 101.274 142.58 101.279 142.58C101.284 142.58 101.289 142.58 101.294 142.58C101.298 142.58 101.303 142.58 101.308 142.58C101.313 142.58 101.318 142.58 101.323 142.58C101.327 142.58 101.332 142.58 101.337 142.58C101.342 142.58 101.347 142.58 101.352 142.58C101.357 142.58 101.361 142.58 101.366 142.58C101.371 142.58 101.376 142.58 101.381 142.58C101.386 142.58 101.39 142.58 101.395 142.58C101.4 142.58 101.405 142.58 101.41 142.58C101.415 142.58 101.419 142.58 101.424 142.58C101.429 142.58 101.434 142.58 101.439 142.58C101.444 142.58 101.449 142.58 101.453 142.58C101.458 142.58 101.463 142.58 101.468 142.58C101.473 142.58 101.478 142.58 101.482 142.58C101.487 142.58 101.492 142.58 101.497 142.58C101.502 142.58 101.507 142.58 101.511 142.58C101.516 142.58 101.521 142.58 101.526 142.58C101.531 142.58 101.536 142.58 101.541 142.58C101.545 142.58 101.55 142.58 101.555 142.58C101.56 142.58 101.565 142.58 101.57 142.58C101.574 142.58 101.579 142.58 101.584 142.58C101.589 142.58 101.594 142.58 101.599 142.58C101.604 142.58 101.608 142.58 101.613 142.58C101.618 142.58 101.623 142.58 101.628 142.58C101.633 142.58 101.638 142.58 101.642 142.58C101.647 142.58 101.652 142.58 101.657 142.58C101.662 142.58 101.667 142.58 101.671 142.58C101.676 142.58 101.681 142.58 101.686 142.58C101.691 142.58 101.696 142.58 101.701 142.58C101.705 142.58 101.71 142.58 101.715 142.58C101.72 142.58 101.725 142.58 101.73 142.58C101.734 142.58 101.739 142.58 101.744 142.58C101.749 142.58 101.754 142.58 101.759 142.58C101.764 142.58 101.768 142.58 101.773 142.58C101.778 142.58 101.783 142.58 101.788 142.58C101.793 142.58 101.798 142.58 101.802 142.58C101.807 142.58 101.812 142.58 101.817 142.58C101.822 142.58 101.827 142.58 101.831 142.58C101.836 142.58 101.841 142.58 101.846 142.58C101.851 142.58 101.856 142.58 101.861 142.58C101.865 142.58 101.87 142.58 101.875 142.58C101.88 142.58 101.885 142.58 101.89 142.58C101.895 142.58 101.899 142.58 101.904 142.58C101.909 142.58 101.914 142.58 101.919 142.58C101.924 142.58 101.929 142.58 101.933 142.58C101.938 142.58 101.943 142.58 101.948 142.58C101.953 142.58 101.958 142.58 101.963 142.58C101.967 142.58 101.972 142.58 101.977 142.58C101.982 142.58 101.987 142.58 101.992 142.58C101.996 142.58 102.001 142.58 102.006 142.58C102.011 142.58 102.016 142.58 102.021 142.58C102.026 142.58 102.03 142.58 102.035 142.58C102.04 142.58 102.045 142.58 102.05 142.58C102.055 142.58 102.06 142.58 102.064 142.58C102.069 142.58 102.074 142.58 102.079 142.58C102.084 142.58 102.089 142.58 102.094 142.58C102.098 142.58 102.103 142.58 102.108 142.58C102.113 142.58 102.118 142.58 102.123 142.58C102.128 142.58 102.132 142.58 102.137 142.58C102.142 142.58 102.147 142.58 102.152 142.58C102.157 142.58 102.162 142.58 102.166 142.58C102.171 142.58 102.176 142.58 102.181 142.58C102.186 142.58 102.191 142.58 102.196 142.58C102.2 142.58 102.205 142.58 102.21 142.58C102.215 142.58 102.22 142.58 102.225 142.58C102.23 142.58 102.234 142.58 102.239 142.58C102.244 142.58 102.249 142.58 102.254 142.58C102.259 142.58 102.264 142.58 102.268 142.58C102.273 142.58 102.278 142.58 102.283 142.58C102.288 142.58 102.293 142.58 102.298 142.58C102.302 142.58 102.307 142.58 102.312 142.58C102.317 142.58 102.322 142.58 102.327 142.58C102.332 142.58 102.336 142.58 102.341 142.58C102.346 142.58 102.351 142.58 102.356 142.58C102.361 142.58 102.366 142.58 102.37 142.58C102.375 142.58 102.38 142.58 102.385 142.58C102.39 142.58 102.395 142.58 102.4 142.58C102.404 142.58 102.409 142.58 102.414 142.58C102.419 142.58 102.424 142.58 102.429 142.58C102.434 142.58 102.438 142.58 102.443 142.58C102.448 142.58 102.453 142.58 102.458 142.58C102.463 142.58 102.468 142.58 102.472 142.58C102.477 142.58 102.482 142.58 102.487 142.58C102.492 142.58 102.497 142.58 102.502 142.58C102.506 142.58 102.511 142.58 102.516 142.58C102.521 142.58 102.526 142.58 102.531 142.58C102.536 142.58 102.54 142.58 102.545 142.58C102.55 142.58 102.555 142.58 102.56 142.58C102.565 142.58 102.57 142.58 102.575 142.58C102.579 142.58 102.584 142.58 102.589 142.58C102.594 142.58 102.599 142.58 102.604 142.58C102.609 142.58 102.613 142.58 102.618 142.58C102.623 142.58 102.628 142.58 102.633 142.58C102.638 142.58 102.643 142.58 102.647 142.58C102.652 142.58 102.657 142.58 102.662 142.58C102.667 142.58 102.672 142.58 102.677 142.58C102.681 142.58 102.686 142.58 102.691 142.58C102.696 142.58 102.701 142.58 102.706 142.58C102.711 142.58 102.715 142.58 102.72 142.58C102.725 142.58 102.73 142.58 102.735 142.58C102.74 142.58 102.745 142.58 102.749 142.58C102.754 142.58 102.759 142.58 102.764 142.58C102.769 142.58 102.774 142.58 102.779 142.58C102.784 142.58 102.788 142.58 102.793 142.58C102.798 142.58 102.803 142.58 102.808 142.58C102.813 142.58 102.818 142.58 102.822 142.58C102.827 142.58 102.832 142.58 102.837 142.58C102.842 142.58 102.847 142.58 102.852 142.58C102.856 142.58 102.861 142.58 102.866 142.58C102.871 142.58 102.876 142.58 102.881 142.58C102.886 142.58 102.89 142.58 102.895 142.58C102.9 142.58 102.905 142.58 102.91 142.58C102.915 142.58 102.92 142.58 102.924 142.58C102.929 142.58 102.934 142.58 102.939 142.58C102.944 142.58 102.949 142.58 102.954 142.58C102.959 142.58 102.963 142.58 102.968 142.58C102.973 142.58 102.978 142.58 102.983 142.58C102.988 142.58 102.993 142.58 102.997 142.58C103.002 142.58 103.007 142.58 103.012 142.58C103.017 142.58 103.022 142.58 103.027 142.58C103.031 142.58 103.036 142.58 103.041 142.58C103.046 142.58 103.051 142.58 103.056 142.58C103.061 142.58 103.065 142.58 103.07 142.58C103.075 142.58 103.08 142.58 103.085 142.58C103.09 142.58 103.095 142.58 103.099 142.58C103.104 142.58 103.109 142.58 103.114 142.58C103.119 142.58 103.124 142.58 103.129 142.58C103.134 142.58 103.138 142.58 103.143 142.58C103.148 142.58 103.153 142.58 103.158 142.58C103.163 142.58 103.168 142.58 103.172 142.58C103.177 142.58 103.182 142.58 103.187 142.58C103.192 142.58 103.197 142.58 103.202 142.58C103.206 142.58 103.211 142.58 103.216 142.58C103.221 142.58 103.226 142.58 103.231 142.58C103.236 142.58 103.24 142.58 103.245 142.58C103.25 142.58 103.255 142.58 103.26 142.58C103.265 142.58 103.27 142.58 103.274 142.58C103.279 142.58 103.284 142.58 103.289 142.58C103.294 142.58 103.299 142.58 103.304 142.58C103.309 142.58 103.313 142.58 103.318 142.58C103.323 142.58 103.328 142.58 103.333 142.58C103.338 142.58 103.343 142.58 103.347 142.58C103.352 142.58 103.357 142.58 103.362 142.58C103.367 142.58 103.372 142.58 103.377 142.58C103.381 142.58 103.386 142.58 103.391 142.58C103.396 142.58 103.401 142.58 103.406 142.58C103.411 142.58 103.415 142.58 103.42 142.58C103.425 142.58 103.43 142.58 103.435 142.58C103.44 142.58 103.445 142.58 103.449 142.58C103.454 142.58 103.459 142.58 103.464 142.58C103.469 142.58 103.474 142.58 103.479 142.58C103.483 142.58 103.488 142.58 103.493 142.58C103.498 142.58 103.503 142.58 103.508 142.58C103.513 142.58 103.517 142.58 103.522 142.58C103.527 142.58 103.532 142.58 103.537 142.58C103.542 142.58 103.547 142.58 103.551 142.58C103.556 142.58 103.561 142.58 103.566 142.58C103.571 142.58 103.576 142.58 103.581 142.58C103.585 142.58 103.59 142.58 103.595 142.58C103.6 142.58 103.605 142.58 103.61 142.58C103.615 142.58 103.619 142.58 103.624 142.58C103.629 142.58 103.634 142.58 103.639 142.58C103.644 142.58 103.649 142.58 103.654 142.58C103.658 142.58 103.663 142.58 103.668 142.58C103.673 142.58 103.678 142.58 103.683 142.58C103.688 142.58 103.692 142.58 103.697 142.58C103.702 142.58 103.707 142.58 103.712 142.58C103.717 142.58 103.722 142.58 103.726 142.58C103.731 142.58 103.736 142.58 103.741 142.58C103.746 142.58 103.751 142.58 103.756 142.58C103.76 142.58 103.765 142.58 103.77 142.58C103.775 142.58 103.78 142.58 103.785 142.58C103.789 142.58 103.794 142.58 103.799 142.58C103.804 142.58 103.809 142.58 103.814 142.58C103.819 142.58 103.823 142.58 103.828 142.58C103.833 142.58 103.838 142.58 103.843 142.58C103.848 142.58 103.853 142.58 103.857 142.58C103.862 142.58 103.867 142.58 103.872 142.58C103.877 142.58 103.882 142.58 103.887 142.58C103.891 142.58 103.896 142.58 103.901 142.58C103.906 142.58 103.911 142.58 103.916 142.58C103.921 142.58 103.925 142.58 103.93 142.58C103.935 142.58 103.94 142.58 103.945 142.58C103.95 142.58 103.955 142.58 103.959 142.58C103.964 142.58 103.969 142.58 103.974 142.58C103.979 142.58 103.984 142.58 103.989 142.58C103.993 142.58 103.998 142.58 104.003 142.58C104.008 142.58 104.013 142.58 104.018 142.58C104.023 142.58 104.027 142.58 104.032 142.58C104.037 142.58 104.042 142.58 104.047 142.58C104.052 142.58 104.056 142.58 104.061 142.58C104.066 142.58 104.071 142.58 104.076 142.58C104.081 142.58 104.086 142.58 104.09 142.58C104.095 142.58 104.1 142.58 104.105 142.58C104.11 142.58 104.115 142.58 104.12 142.58C104.124 142.58 104.129 142.58 104.134 142.58C104.139 142.58 104.144 142.58 104.149 142.58C104.154 142.58 104.158 142.58 104.163 142.58C104.168 142.58 104.173 142.58 104.178 142.58C104.183 142.58 104.187 142.58 104.192 142.58C104.197 142.58 104.202 142.58 104.207 142.58C104.212 142.58 104.217 142.58 104.221 142.58C104.226 142.58 104.231 142.58 104.236 142.58C104.241 142.58 104.246 142.58 104.251 142.58C104.255 142.58 104.26 142.58 104.265 142.58C104.27 142.58 104.275 142.58 104.28 142.58C104.284 142.58 104.289 142.58 104.294 142.58C104.299 142.58 104.304 142.58 104.309 142.58C104.314 142.58 104.318 142.58 104.323 142.58C104.328 142.58 104.333 142.58 104.338 142.58C104.343 142.58 104.347 142.58 104.352 142.58C104.357 142.58 104.362 142.58 104.367 142.58C104.372 142.58 104.377 142.58 104.381 142.58C104.386 142.58 104.391 142.58 104.396 142.58C104.401 142.58 104.406 142.58 104.41 142.58C104.415 142.58 104.42 142.58 104.425 142.58C104.43 142.58 104.435 142.58 104.44 142.58C104.444 142.58 104.449 142.58 104.454 142.58C104.459 142.58 104.464 142.58 104.469 142.58C104.473 142.58 104.478 142.58 104.483 142.58C104.488 142.58 104.493 142.58 104.498 142.58C104.503 142.58 104.507 142.58 104.512 142.58C104.517 142.58 104.522 142.58 104.527 142.58C104.532 142.58 104.536 142.58 104.541 142.58C104.546 142.58 104.551 142.58 104.556 142.58C104.561 142.58 104.565 142.58 104.57 142.58C104.575 142.58 104.58 142.58 104.585 142.58C104.59 142.58 104.595 142.58 104.599 142.58C104.604 142.58 104.609 142.58 104.614 142.58C104.619 142.58 104.624 142.58 104.628 142.58C104.633 142.58 104.638 142.58 104.643 142.58C104.648 142.58 104.653 142.58 104.657 142.58C104.662 142.58 104.667 142.58 104.672 142.58C104.677 142.58 104.682 142.58 104.686 142.58C104.691 142.58 104.696 142.58 104.701 142.58C104.706 142.58 104.711 142.58 104.716 142.58C104.72 142.58 104.725 142.58 104.73 142.58C104.735 142.58 104.74 142.58 104.745 142.58C104.749 142.58 104.754 142.58 104.759 142.58C104.764 142.58 104.769 142.58 104.774 142.58C104.778 142.58 104.783 142.58 104.788 142.58C104.793 142.58 104.798 142.58 104.803 142.58C104.807 142.58 104.812 142.58 104.817 142.58C104.822 142.58 104.827 142.58 104.832 142.58C104.836 142.58 104.841 142.58 104.846 142.58C104.851 142.58 104.856 142.58 104.861 142.58C104.865 142.58 104.87 142.58 104.875 142.58C104.88 142.58 104.885 142.58 104.89 142.58C104.894 142.58 104.899 142.58 104.904 142.58C104.909 142.58 104.914 142.58 104.919 142.58C104.923 142.58 104.928 142.58 104.933 142.58C104.938 142.58 104.943 142.58 104.948 142.58C104.952 142.58 104.957 142.58 104.962 142.58C104.967 142.58 104.972 142.58 104.977 142.58C104.981 142.58 104.986 142.58 104.991 142.58C104.996 142.58 105.001 142.58 105.006 142.58C105.01 142.58 105.015 142.58 105.02 142.58C105.025 142.58 105.03 142.58 105.035 142.58C105.039 142.58 105.044 142.58 105.049 142.58C105.054 142.58 105.059 142.58 105.064 142.58C105.068 142.58 105.073 142.58 105.078 142.58C105.083 142.58 105.088 142.58 105.092 142.58C105.097 142.58 105.102 142.58 105.107 142.58C105.112 142.58 105.117 142.58 105.121 142.58C105.126 142.58 105.131 142.58 105.136 142.58C105.141 142.58 105.146 142.58 105.15 142.58C105.155 142.58 105.16 142.58 105.165 142.58C105.17 142.58 105.175 142.58 105.179 142.58C105.184 142.58 105.189 142.58 105.194 142.58C105.199 142.58 105.203 142.58 105.208 142.58C105.213 142.58 105.218 142.58 105.223 142.58C105.228 142.58 105.232 142.58 105.237 142.58C105.242 142.58 105.247 142.58 105.252 142.58C105.257 142.58 105.261 142.58 105.266 142.58C105.271 142.58 105.276 142.58 105.281 142.58C105.285 142.58 105.29 142.58 105.295 142.58C105.3 142.58 105.305 142.58 105.31 142.58C105.314 142.58 105.319 142.58 105.324 142.58C105.329 142.58 105.334 142.58 105.338 142.58C105.343 142.58 105.348 142.58 105.353 142.58C105.358 142.58 105.363 142.58 105.367 142.58C105.372 142.58 105.377 142.58 105.382 142.58C105.387 142.58 105.391 142.58 105.396 142.58C105.401 142.58 105.406 142.58 105.411 142.58C105.416 142.58 105.42 142.58 105.425 142.58C105.43 142.58 105.435 142.58 105.44 142.58C105.444 142.58 105.449 142.58 105.454 142.58V140.58C105.449 140.58 105.444 140.58 105.44 140.58C105.435 140.58 105.43 140.58 105.425 140.58C105.42 140.58 105.416 140.58 105.411 140.58C105.406 140.58 105.401 140.58 105.396 140.58C105.391 140.58 105.387 140.58 105.382 140.58C105.377 140.58 105.372 140.58 105.367 140.58C105.363 140.58 105.358 140.58 105.353 140.58C105.348 140.58 105.343 140.58 105.338 140.58C105.334 140.58 105.329 140.58 105.324 140.58C105.319 140.58 105.314 140.58 105.31 140.58C105.305 140.58 105.3 140.58 105.295 140.58C105.29 140.58 105.285 140.58 105.281 140.58C105.276 140.58 105.271 140.58 105.266 140.58C105.261 140.58 105.257 140.58 105.252 140.58C105.247 140.58 105.242 140.58 105.237 140.58C105.232 140.58 105.228 140.58 105.223 140.58C105.218 140.58 105.213 140.58 105.208 140.58C105.203 140.58 105.199 140.58 105.194 140.58C105.189 140.58 105.184 140.58 105.179 140.58C105.175 140.58 105.17 140.58 105.165 140.58C105.16 140.58 105.155 140.58 105.15 140.58C105.146 140.58 105.141 140.58 105.136 140.58C105.131 140.58 105.126 140.58 105.121 140.58C105.117 140.58 105.112 140.58 105.107 140.58C105.102 140.58 105.097 140.58 105.092 140.58C105.088 140.58 105.083 140.58 105.078 140.58C105.073 140.58 105.068 140.58 105.064 140.58C105.059 140.58 105.054 140.58 105.049 140.58C105.044 140.58 105.039 140.58 105.035 140.58C105.03 140.58 105.025 140.58 105.02 140.58C105.015 140.58 105.01 140.58 105.006 140.58C105.001 140.58 104.996 140.58 104.991 140.58C104.986 140.58 104.981 140.58 104.977 140.58C104.972 140.58 104.967 140.58 104.962 140.58C104.957 140.58 104.952 140.58 104.948 140.58C104.943 140.58 104.938 140.58 104.933 140.58C104.928 140.58 104.923 140.58 104.919 140.58C104.914 140.58 104.909 140.58 104.904 140.58C104.899 140.58 104.894 140.58 104.89 140.58C104.885 140.58 104.88 140.58 104.875 140.58C104.87 140.58 104.865 140.58 104.861 140.58C104.856 140.58 104.851 140.58 104.846 140.58C104.841 140.58 104.836 140.58 104.832 140.58C104.827 140.58 104.822 140.58 104.817 140.58C104.812 140.58 104.807 140.58 104.803 140.58C104.798 140.58 104.793 140.58 104.788 140.58C104.783 140.58 104.778 140.58 104.774 140.58C104.769 140.58 104.764 140.58 104.759 140.58C104.754 140.58 104.749 140.58 104.745 140.58C104.74 140.58 104.735 140.58 104.73 140.58C104.725 140.58 104.72 140.58 104.716 140.58C104.711 140.58 104.706 140.58 104.701 140.58C104.696 140.58 104.691 140.58 104.686 140.58C104.682 140.58 104.677 140.58 104.672 140.58C104.667 140.58 104.662 140.58 104.657 140.58C104.653 140.58 104.648 140.58 104.643 140.58C104.638 140.58 104.633 140.58 104.628 140.58C104.624 140.58 104.619 140.58 104.614 140.58C104.609 140.58 104.604 140.58 104.599 140.58C104.595 140.58 104.59 140.58 104.585 140.58C104.58 140.58 104.575 140.58 104.57 140.58C104.565 140.58 104.561 140.58 104.556 140.58C104.551 140.58 104.546 140.58 104.541 140.58C104.536 140.58 104.532 140.58 104.527 140.58C104.522 140.58 104.517 140.58 104.512 140.58C104.507 140.58 104.503 140.58 104.498 140.58C104.493 140.58 104.488 140.58 104.483 140.58C104.478 140.58 104.473 140.58 104.469 140.58C104.464 140.58 104.459 140.58 104.454 140.58C104.449 140.58 104.444 140.58 104.44 140.58C104.435 140.58 104.43 140.58 104.425 140.58C104.42 140.58 104.415 140.58 104.41 140.58C104.406 140.58 104.401 140.58 104.396 140.58C104.391 140.58 104.386 140.58 104.381 140.58C104.377 140.58 104.372 140.58 104.367 140.58C104.362 140.58 104.357 140.58 104.352 140.58C104.347 140.58 104.343 140.58 104.338 140.58C104.333 140.58 104.328 140.58 104.323 140.58C104.318 140.58 104.314 140.58 104.309 140.58C104.304 140.58 104.299 140.58 104.294 140.58C104.289 140.58 104.284 140.58 104.28 140.58C104.275 140.58 104.27 140.58 104.265 140.58C104.26 140.58 104.255 140.58 104.251 140.58C104.246 140.58 104.241 140.58 104.236 140.58C104.231 140.58 104.226 140.58 104.221 140.58C104.217 140.58 104.212 140.58 104.207 140.58C104.202 140.58 104.197 140.58 104.192 140.58C104.187 140.58 104.183 140.58 104.178 140.58C104.173 140.58 104.168 140.58 104.163 140.58C104.158 140.58 104.154 140.58 104.149 140.58C104.144 140.58 104.139 140.58 104.134 140.58C104.129 140.58 104.124 140.58 104.12 140.58C104.115 140.58 104.11 140.58 104.105 140.58C104.1 140.58 104.095 140.58 104.09 140.58C104.086 140.58 104.081 140.58 104.076 140.58C104.071 140.58 104.066 140.58 104.061 140.58C104.056 140.58 104.052 140.58 104.047 140.58C104.042 140.58 104.037 140.58 104.032 140.58C104.027 140.58 104.023 140.58 104.018 140.58C104.013 140.58 104.008 140.58 104.003 140.58C103.998 140.58 103.993 140.58 103.989 140.58C103.984 140.58 103.979 140.58 103.974 140.58C103.969 140.58 103.964 140.58 103.959 140.58C103.955 140.58 103.95 140.58 103.945 140.58C103.94 140.58 103.935 140.58 103.93 140.58C103.925 140.58 103.921 140.58 103.916 140.58C103.911 140.58 103.906 140.58 103.901 140.58C103.896 140.58 103.891 140.58 103.887 140.58C103.882 140.58 103.877 140.58 103.872 140.58C103.867 140.58 103.862 140.58 103.857 140.58C103.853 140.58 103.848 140.58 103.843 140.58C103.838 140.58 103.833 140.58 103.828 140.58C103.823 140.58 103.819 140.58 103.814 140.58C103.809 140.58 103.804 140.58 103.799 140.58C103.794 140.58 103.789 140.58 103.785 140.58C103.78 140.58 103.775 140.58 103.77 140.58C103.765 140.58 103.76 140.58 103.756 140.58C103.751 140.58 103.746 140.58 103.741 140.58C103.736 140.58 103.731 140.58 103.726 140.58C103.722 140.58 103.717 140.58 103.712 140.58C103.707 140.58 103.702 140.58 103.697 140.58C103.692 140.58 103.688 140.58 103.683 140.58C103.678 140.58 103.673 140.58 103.668 140.58C103.663 140.58 103.658 140.58 103.654 140.58C103.649 140.58 103.644 140.58 103.639 140.58C103.634 140.58 103.629 140.58 103.624 140.58C103.619 140.58 103.615 140.58 103.61 140.58C103.605 140.58 103.6 140.58 103.595 140.58C103.59 140.58 103.585 140.58 103.581 140.58C103.576 140.58 103.571 140.58 103.566 140.58C103.561 140.58 103.556 140.58 103.551 140.58C103.547 140.58 103.542 140.58 103.537 140.58C103.532 140.58 103.527 140.58 103.522 140.58C103.517 140.58 103.513 140.58 103.508 140.58C103.503 140.58 103.498 140.58 103.493 140.58C103.488 140.58 103.483 140.58 103.479 140.58C103.474 140.58 103.469 140.58 103.464 140.58C103.459 140.58 103.454 140.58 103.449 140.58C103.445 140.58 103.44 140.58 103.435 140.58C103.43 140.58 103.425 140.58 103.42 140.58C103.415 140.58 103.411 140.58 103.406 140.58C103.401 140.58 103.396 140.58 103.391 140.58C103.386 140.58 103.381 140.58 103.377 140.58C103.372 140.58 103.367 140.58 103.362 140.58C103.357 140.58 103.352 140.58 103.347 140.58C103.343 140.58 103.338 140.58 103.333 140.58C103.328 140.58 103.323 140.58 103.318 140.58C103.313 140.58 103.309 140.58 103.304 140.58C103.299 140.58 103.294 140.58 103.289 140.58C103.284 140.58 103.279 140.58 103.274 140.58C103.27 140.58 103.265 140.58 103.26 140.58C103.255 140.58 103.25 140.58 103.245 140.58C103.24 140.58 103.236 140.58 103.231 140.58C103.226 140.58 103.221 140.58 103.216 140.58C103.211 140.58 103.206 140.58 103.202 140.58C103.197 140.58 103.192 140.58 103.187 140.58C103.182 140.58 103.177 140.58 103.172 140.58C103.168 140.58 103.163 140.58 103.158 140.58C103.153 140.58 103.148 140.58 103.143 140.58C103.138 140.58 103.134 140.58 103.129 140.58C103.124 140.58 103.119 140.58 103.114 140.58C103.109 140.58 103.104 140.58 103.099 140.58C103.095 140.58 103.09 140.58 103.085 140.58C103.08 140.58 103.075 140.58 103.07 140.58C103.065 140.58 103.061 140.58 103.056 140.58C103.051 140.58 103.046 140.58 103.041 140.58C103.036 140.58 103.031 140.58 103.027 140.58C103.022 140.58 103.017 140.58 103.012 140.58C103.007 140.58 103.002 140.58 102.997 140.58C102.993 140.58 102.988 140.58 102.983 140.58C102.978 140.58 102.973 140.58 102.968 140.58C102.963 140.58 102.959 140.58 102.954 140.58C102.949 140.58 102.944 140.58 102.939 140.58C102.934 140.58 102.929 140.58 102.924 140.58C102.92 140.58 102.915 140.58 102.91 140.58C102.905 140.58 102.9 140.58 102.895 140.58C102.89 140.58 102.886 140.58 102.881 140.58C102.876 140.58 102.871 140.58 102.866 140.58C102.861 140.58 102.856 140.58 102.852 140.58C102.847 140.58 102.842 140.58 102.837 140.58C102.832 140.58 102.827 140.58 102.822 140.58C102.818 140.58 102.813 140.58 102.808 140.58C102.803 140.58 102.798 140.58 102.793 140.58C102.788 140.58 102.784 140.58 102.779 140.58C102.774 140.58 102.769 140.58 102.764 140.58C102.759 140.58 102.754 140.58 102.749 140.58C102.745 140.58 102.74 140.58 102.735 140.58C102.73 140.58 102.725 140.58 102.72 140.58C102.715 140.58 102.711 140.58 102.706 140.58C102.701 140.58 102.696 140.58 102.691 140.58C102.686 140.58 102.681 140.58 102.677 140.58C102.672 140.58 102.667 140.58 102.662 140.58C102.657 140.58 102.652 140.58 102.647 140.58C102.643 140.58 102.638 140.58 102.633 140.58C102.628 140.58 102.623 140.58 102.618 140.58C102.613 140.58 102.609 140.58 102.604 140.58C102.599 140.58 102.594 140.58 102.589 140.58C102.584 140.58 102.579 140.58 102.575 140.58C102.57 140.58 102.565 140.58 102.56 140.58C102.555 140.58 102.55 140.58 102.545 140.58C102.54 140.58 102.536 140.58 102.531 140.58C102.526 140.58 102.521 140.58 102.516 140.58C102.511 140.58 102.506 140.58 102.502 140.58C102.497 140.58 102.492 140.58 102.487 140.58C102.482 140.58 102.477 140.58 102.472 140.58C102.468 140.58 102.463 140.58 102.458 140.58C102.453 140.58 102.448 140.58 102.443 140.58C102.438 140.58 102.434 140.58 102.429 140.58C102.424 140.58 102.419 140.58 102.414 140.58C102.409 140.58 102.404 140.58 102.4 140.58C102.395 140.58 102.39 140.58 102.385 140.58C102.38 140.58 102.375 140.58 102.37 140.58C102.366 140.58 102.361 140.58 102.356 140.58C102.351 140.58 102.346 140.58 102.341 140.58C102.336 140.58 102.332 140.58 102.327 140.58C102.322 140.58 102.317 140.58 102.312 140.58C102.307 140.58 102.302 140.58 102.298 140.58C102.293 140.58 102.288 140.58 102.283 140.58C102.278 140.58 102.273 140.58 102.268 140.58C102.264 140.58 102.259 140.58 102.254 140.58C102.249 140.58 102.244 140.58 102.239 140.58C102.234 140.58 102.23 140.58 102.225 140.58C102.22 140.58 102.215 140.58 102.21 140.58C102.205 140.58 102.2 140.58 102.196 140.58C102.191 140.58 102.186 140.58 102.181 140.58C102.176 140.58 102.171 140.58 102.166 140.58C102.162 140.58 102.157 140.58 102.152 140.58C102.147 140.58 102.142 140.58 102.137 140.58C102.132 140.58 102.128 140.58 102.123 140.58C102.118 140.58 102.113 140.58 102.108 140.58C102.103 140.58 102.098 140.58 102.094 140.58C102.089 140.58 102.084 140.58 102.079 140.58C102.074 140.58 102.069 140.58 102.064 140.58C102.06 140.58 102.055 140.58 102.05 140.58C102.045 140.58 102.04 140.58 102.035 140.58C102.03 140.58 102.026 140.58 102.021 140.58C102.016 140.58 102.011 140.58 102.006 140.58C102.001 140.58 101.996 140.58 101.992 140.58C101.987 140.58 101.982 140.58 101.977 140.58C101.972 140.58 101.967 140.58 101.963 140.58C101.958 140.58 101.953 140.58 101.948 140.58C101.943 140.58 101.938 140.58 101.933 140.58C101.929 140.58 101.924 140.58 101.919 140.58C101.914 140.58 101.909 140.58 101.904 140.58C101.899 140.58 101.895 140.58 101.89 140.58C101.885 140.58 101.88 140.58 101.875 140.58C101.87 140.58 101.865 140.58 101.861 140.58C101.856 140.58 101.851 140.58 101.846 140.58C101.841 140.58 101.836 140.58 101.831 140.58C101.827 140.58 101.822 140.58 101.817 140.58C101.812 140.58 101.807 140.58 101.802 140.58C101.798 140.58 101.793 140.58 101.788 140.58C101.783 140.58 101.778 140.58 101.773 140.58C101.768 140.58 101.764 140.58 101.759 140.58C101.754 140.58 101.749 140.58 101.744 140.58C101.739 140.58 101.734 140.58 101.73 140.58C101.725 140.58 101.72 140.58 101.715 140.58C101.71 140.58 101.705 140.58 101.701 140.58C101.696 140.58 101.691 140.58 101.686 140.58C101.681 140.58 101.676 140.58 101.671 140.58C101.667 140.58 101.662 140.58 101.657 140.58C101.652 140.58 101.647 140.58 101.642 140.58C101.638 140.58 101.633 140.58 101.628 140.58C101.623 140.58 101.618 140.58 101.613 140.58C101.608 140.58 101.604 140.58 101.599 140.58C101.594 140.58 101.589 140.58 101.584 140.58C101.579 140.58 101.574 140.58 101.57 140.58C101.565 140.58 101.56 140.58 101.555 140.58C101.55 140.58 101.545 140.58 101.541 140.58C101.536 140.58 101.531 140.58 101.526 140.58C101.521 140.58 101.516 140.58 101.511 140.58C101.507 140.58 101.502 140.58 101.497 140.58C101.492 140.58 101.487 140.58 101.482 140.58C101.478 140.58 101.473 140.58 101.468 140.58C101.463 140.58 101.458 140.58 101.453 140.58C101.449 140.58 101.444 140.58 101.439 140.58C101.434 140.58 101.429 140.58 101.424 140.58C101.419 140.58 101.415 140.58 101.41 140.58C101.405 140.58 101.4 140.58 101.395 140.58C101.39 140.58 101.386 140.58 101.381 140.58C101.376 140.58 101.371 140.58 101.366 140.58C101.361 140.58 101.357 140.58 101.352 140.58C101.347 140.58 101.342 140.58 101.337 140.58C101.332 140.58 101.327 140.58 101.323 140.58C101.318 140.58 101.313 140.58 101.308 140.58C101.303 140.58 101.298 140.58 101.294 140.58C101.289 140.58 101.284 140.58 101.279 140.58C101.274 140.58 101.269 140.58 101.265 140.58C101.26 140.58 101.255 140.58 101.25 140.58C101.245 140.58 101.24 140.58 101.236 140.58C101.231 140.58 101.226 140.58 101.221 140.58C101.216 140.58 101.211 140.58 101.206 140.58C101.202 140.58 101.197 140.58 101.192 140.58C101.187 140.58 101.182 140.58 101.177 140.58C101.173 140.58 101.168 140.58 101.163 140.58C101.158 140.58 101.153 140.58 101.148 140.58C101.144 140.58 101.139 140.58 101.134 140.58C101.129 140.58 101.124 140.58 101.119 140.58C101.115 140.58 101.11 140.58 101.105 140.58C101.1 140.58 101.095 140.58 101.09 140.58C101.086 140.58 101.081 140.58 101.076 140.58C101.071 140.58 101.066 140.58 101.061 140.58C101.057 140.58 101.052 140.58 101.047 140.58C101.042 140.58 101.037 140.58 101.032 140.58C101.028 140.58 101.023 140.58 101.018 140.58C101.013 140.58 101.008 140.58 101.003 140.58C100.999 140.58 100.994 140.58 100.989 140.58C100.984 140.58 100.979 140.58 100.974 140.58C100.97 140.58 100.965 140.58 100.96 140.58C100.955 140.58 100.95 140.58 100.945 140.58C100.941 140.58 100.936 140.58 100.931 140.58C100.926 140.58 100.921 140.58 100.916 140.58C100.912 140.58 100.907 140.58 100.902 140.58C100.897 140.58 100.892 140.58 100.888 140.58C100.883 140.58 100.878 140.58 100.873 140.58C100.868 140.58 100.863 140.58 100.859 140.58C100.854 140.58 100.849 140.58 100.844 140.58C100.839 140.58 100.834 140.58 100.83 140.58C100.825 140.58 100.82 140.58 100.815 140.58C100.81 140.58 100.805 140.58 100.801 140.58C100.796 140.58 100.791 140.58 100.786 140.58C100.781 140.58 100.777 140.58 100.772 140.58C100.767 140.58 100.762 140.58 100.757 140.58C100.752 140.58 100.748 140.58 100.743 140.58C100.738 140.58 100.733 140.58 100.728 140.58C100.723 140.58 100.719 140.58 100.714 140.58C100.709 140.58 100.704 140.58 100.699 140.58C100.695 140.58 100.69 140.58 100.685 140.58C100.68 140.58 100.675 140.58 100.67 140.58C100.666 140.58 100.661 140.58 100.656 140.58C100.651 140.58 100.646 140.58 100.641 140.58C100.637 140.58 100.632 140.58 100.627 140.58C100.622 140.58 100.617 140.58 100.613 140.58C100.608 140.58 100.603 140.58 100.598 140.58C100.593 140.58 100.588 140.58 100.584 140.58C100.579 140.58 100.574 140.58 100.569 140.58C100.564 140.58 100.56 140.58 100.555 140.58C100.55 140.58 100.545 140.58 100.54 140.58C100.535 140.58 100.531 140.58 100.526 140.58C100.521 140.58 100.516 140.58 100.511 140.58C100.507 140.58 100.502 140.58 100.497 140.58C100.492 140.58 100.487 140.58 100.483 140.58C100.478 140.58 100.473 140.58 100.468 140.58C100.463 140.58 100.458 140.58 100.454 140.58C100.449 140.58 100.444 140.58 100.439 140.58C100.434 140.58 100.43 140.58 100.425 140.58C100.42 140.58 100.415 140.58 100.41 140.58C100.406 140.58 100.401 140.58 100.396 140.58C100.391 140.58 100.386 140.58 100.381 140.58C100.377 140.58 100.372 140.58 100.367 140.58C100.362 140.58 100.357 140.58 100.353 140.58C100.348 140.58 100.343 140.58 100.338 140.58C100.333 140.58 100.329 140.58 100.324 140.58C100.319 140.58 100.314 140.58 100.309 140.58C100.305 140.58 100.3 140.58 100.295 140.58C100.29 140.58 100.285 140.58 100.28 140.58C100.276 140.58 100.271 140.58 100.266 140.58C100.261 140.58 100.256 140.58 100.252 140.58C100.247 140.58 100.242 140.58 100.237 140.58C100.232 140.58 100.228 140.58 100.223 140.58C100.218 140.58 100.213 140.58 100.208 140.58C100.204 140.58 100.199 140.58 100.194 140.58C100.189 140.58 100.184 140.58 100.18 140.58C100.175 140.58 100.17 140.58 100.165 140.58C100.16 140.58 100.156 140.58 100.151 140.58C100.146 140.58 100.141 140.58 100.136 140.58C100.132 140.58 100.127 140.58 100.122 140.58C100.117 140.58 100.112 140.58 100.108 140.58C100.103 140.58 100.098 140.58 100.093 140.58C100.088 140.58 100.084 140.58 100.079 140.58C100.074 140.58 100.069 140.58 100.064 140.58C100.06 140.58 100.055 140.58 100.05 140.58C100.045 140.58 100.04 140.58 100.036 140.58C100.031 140.58 100.026 140.58 100.021 140.58C100.016 140.58 100.012 140.58 100.007 140.58C100.002 140.58 99.9973 140.58 99.9925 140.58C99.9877 140.58 99.9829 140.58 99.9781 140.58C99.9733 140.58 99.9685 140.58 99.9637 140.58C99.9589 140.58 99.9542 140.58 99.9494 140.58C99.9446 140.58 99.9398 140.58 99.935 140.58C99.9302 140.58 99.9254 140.58 99.9206 140.58C99.9158 140.58 99.911 140.58 99.9062 140.58C99.9015 140.58 99.8967 140.58 99.8919 140.58C99.8871 140.58 99.8823 140.58 99.8775 140.58C99.8727 140.58 99.8679 140.58 99.8632 140.58C99.8584 140.58 99.8536 140.58 99.8488 140.58C99.844 140.58 99.8392 140.58 99.8344 140.58C99.8296 140.58 99.8249 140.58 99.8201 140.58C99.8153 140.58 99.8105 140.58 99.8057 140.58C99.8009 140.58 99.7961 140.58 99.7914 140.58C99.7866 140.58 99.7818 140.58 99.777 140.58C99.7722 140.58 99.7674 140.58 99.7627 140.58C99.7579 140.58 99.7531 140.58 99.7483 140.58C99.7435 140.58 99.7388 140.58 99.734 140.58C99.7292 140.58 99.7244 140.58 99.7196 140.58C99.7149 140.58 99.7101 140.58 99.7053 140.58C99.7005 140.58 99.6957 140.58 99.691 140.58C99.6862 140.58 99.6814 140.58 99.6766 140.58C99.6718 140.58 99.6671 140.58 99.6623 140.58C99.6575 140.58 99.6527 140.58 99.648 140.58C99.6432 140.58 99.6384 140.58 99.6336 140.58C99.6288 140.58 99.6241 140.58 99.6193 140.58C99.6145 140.58 99.6097 140.58 99.605 140.58C99.6002 140.58 99.5954 140.58 99.5906 140.58C99.5859 140.58 99.5811 140.58 99.5763 140.58C99.5716 140.58 99.5668 140.58 99.562 140.58C99.5572 140.58 99.5525 140.58 99.5477 140.58C99.5429 140.58 99.5382 140.58 99.5334 140.58C99.5286 140.58 99.5238 140.58 99.5191 140.58C99.5143 140.58 99.5095 140.58 99.5048 140.58C99.5 140.58 99.4952 140.58 99.4905 140.58C99.4857 140.58 99.4809 140.58 99.4761 140.58C99.4714 140.58 99.4666 140.58 99.4618 140.58C99.4571 140.58 99.4523 140.58 99.4475 140.58C99.4428 140.58 99.438 140.58 99.4332 140.58C99.4285 140.58 99.4237 140.58 99.419 140.58C99.4142 140.58 99.4094 140.58 99.4047 140.58C99.3999 140.58 99.3951 140.58 99.3904 140.58C99.3856 140.58 99.3808 140.58 99.3761 140.58C99.3713 140.58 99.3666 140.58 99.3618 140.58C99.357 140.58 99.3523 140.58 99.3475 140.58C99.3428 140.58 99.338 140.58 99.3332 140.58C99.3285 140.58 99.3237 140.58 99.319 140.58C99.3142 140.58 99.3094 140.58 99.3047 140.58C99.2999 140.58 99.2952 140.58 99.2904 140.58C99.2856 140.58 99.2809 140.58 99.2761 140.58C99.2714 140.58 99.2666 140.58 99.2619 140.58C99.2571 140.58 99.2524 140.58 99.2476 140.58C99.2428 140.58 99.2381 140.58 99.2333 140.58C99.2286 140.58 99.2238 140.58 99.2191 140.58C99.2143 140.58 99.2096 140.58 99.2048 140.58C99.2001 140.58 99.1953 140.58 99.1906 140.58C99.1858 140.58 99.1811 140.58 99.1763 140.58C99.1716 140.58 99.1668 140.58 99.1621 140.58C99.1573 140.58 99.1526 140.58 99.1478 140.58C99.1431 140.58 99.1383 140.58 99.1336 140.58C99.1288 140.58 99.1241 140.58 99.1193 140.58C99.1146 140.58 99.1098 140.58 99.1051 140.58C99.1003 140.58 99.0956 140.58 99.0908 140.58C99.0861 140.58 99.0813 140.58 99.0766 140.58C99.0719 140.58 99.0671 140.58 99.0624 140.58C99.0576 140.58 99.0529 140.58 99.0481 140.58C99.0434 140.58 99.0387 140.58 99.0339 140.58C99.0292 140.58 99.0244 140.58 99.0197 140.58C99.0149 140.58 99.0102 140.58 99.0055 140.58C99.0007 140.58 98.996 140.58 98.9912 140.58C98.9865 140.58 98.9818 140.58 98.977 140.58C98.9723 140.58 98.9676 140.58 98.9628 140.58C98.9581 140.58 98.9533 140.58 98.9486 140.58C98.9439 140.58 98.9391 140.58 98.9344 140.58C98.9297 140.58 98.9249 140.58 98.9202 140.58C98.9155 140.58 98.9107 140.58 98.906 140.58C98.9012 140.58 98.8965 140.58 98.8918 140.58C98.887 140.58 98.8823 140.58 98.8776 140.58C98.8728 140.58 98.8681 140.58 98.8634 140.58C98.8587 140.58 98.8539 140.58 98.8492 140.58C98.8445 140.58 98.8397 140.58 98.835 140.58C98.8303 140.58 98.8255 140.58 98.8208 140.58C98.8161 140.58 98.8114 140.58 98.8066 140.58C98.8019 140.58 98.7972 140.58 98.7924 140.58C98.7877 140.58 98.783 140.58 98.7783 140.58C98.7735 140.58 98.7688 140.58 98.7641 140.58C98.7594 140.58 98.7546 140.58 98.7499 140.58C98.7452 140.58 98.7405 140.58 98.7357 140.58C98.731 140.58 98.7263 140.58 98.7216 140.58C98.7169 140.58 98.7121 140.58 98.7074 140.58C98.7027 140.58 98.698 140.58 98.6933 140.58C98.6885 140.58 98.6838 140.58 98.6791 140.58C98.6744 140.58 98.6697 140.58 98.6649 140.58C98.6602 140.58 98.6555 140.58 98.6508 140.58C98.6461 140.58 98.6413 140.58 98.6366 140.58C98.6319 140.58 98.6272 140.58 98.6225 140.58C98.6178 140.58 98.6131 140.58 98.6083 140.58C98.6036 140.58 98.5989 140.58 98.5942 140.58C98.5895 140.58 98.5848 140.58 98.5801 140.58C98.5753 140.58 98.5706 140.58 98.5659 140.58C98.5612 140.58 98.5565 140.58 98.5518 140.58C98.5471 140.58 98.5424 140.58 98.5377 140.58C98.5329 140.58 98.5282 140.58 98.5235 140.58C98.5188 140.58 98.5141 140.58 98.5094 140.58C98.5047 140.58 98.5 140.58 98.4953 140.58C98.4906 140.58 98.4859 140.58 98.4812 140.58C98.4765 140.58 98.4718 140.58 98.4671 140.58C98.4623 140.58 98.4576 140.58 98.4529 140.58C98.4482 140.58 98.4435 140.58 98.4388 140.58C98.4341 140.58 98.4294 140.58 98.4247 140.58C98.42 140.58 98.4153 140.58 98.4106 140.58C98.4059 140.58 98.4012 140.58 98.3965 140.58C98.3918 140.58 98.3871 140.58 98.3824 140.58C98.3777 140.58 98.373 140.58 98.3683 140.58C98.3636 140.58 98.3589 140.58 98.3542 140.58C98.3495 140.58 98.3448 140.58 98.3401 140.58C98.3355 140.58 98.3308 140.58 98.3261 140.58C98.3214 140.58 98.3167 140.58 98.312 140.58C98.3073 140.58 98.3026 140.58 98.2979 140.58C98.2932 140.58 98.2885 140.58 98.2838 140.58C98.2791 140.58 98.2744 140.58 98.2698 140.58C98.2651 140.58 98.2604 140.58 98.2557 140.58C98.251 140.58 98.2463 140.58 98.2416 140.58C98.2369 140.58 98.2322 140.58 98.2276 140.58C98.2229 140.58 98.2182 140.58 98.2135 140.58C98.2088 140.58 98.2041 140.58 98.1994 140.58C98.1948 140.58 98.1901 140.58 98.1854 140.58C98.1807 140.58 98.176 140.58 98.1713 140.58C98.1667 140.58 98.162 140.58 98.1573 140.58C98.1526 140.58 98.1479 140.58 98.1432 140.58C98.1386 140.58 98.1339 140.58 98.1292 140.58C98.1245 140.58 98.1198 140.58 98.1152 140.58C98.1105 140.58 98.1058 140.58 98.1011 140.58C98.0965 140.58 98.0918 140.58 98.0871 140.58C98.0824 140.58 98.0778 140.58 98.0731 140.58C98.0684 140.58 98.0637 140.58 98.0591 140.58V142.58ZM105.355 142.575C105.944 142.634 106.526 142.264 106.637 141.629C106.685 141.349 106.632 141.018 106.414 140.742C106.181 140.446 105.841 140.317 105.526 140.317V142.317C105.306 142.317 105.035 142.223 104.844 141.98C104.668 141.757 104.63 141.496 104.666 141.286C104.704 141.069 104.825 140.869 105.011 140.736C105.204 140.597 105.409 140.57 105.554 140.585L105.355 142.575Z" fill="white" mask="url(#path-11-inside-3_1281_1195)"/>
<mask id="path-13-inside-4_1281_1195" fill="white">
<path d="M78.5546 189.875C74.5903 189.982 70.6764 190.792 66.9954 192.268C66.9954 192.268 66.9954 192.435 66.9954 192.412C70.8006 191.502 74.6536 191.143 78.5067 190.521C78.8896 190.377 78.8896 189.875 78.5546 189.875Z"/>
</mask>
<path d="M78.5546 189.875C74.5903 189.982 70.6764 190.792 66.9954 192.268C66.9954 192.268 66.9954 192.435 66.9954 192.412C70.8006 191.502 74.6536 191.143 78.5067 190.521C78.8896 190.377 78.8896 189.875 78.5546 189.875Z" fill="#263238"/>
<path d="M78.5546 189.875V188.875H78.5411L78.5275 188.875L78.5546 189.875ZM66.9954 192.268L66.5485 193.163L66.9504 193.363L67.3674 193.196L66.9954 192.268ZM66.9954 192.412L66.7629 191.439L65.9954 191.622V192.412H66.9954ZM78.5067 190.521L78.6661 191.508L78.7645 191.492L78.8578 191.457L78.5067 190.521ZM78.5275 188.875C74.4449 188.986 70.4142 189.82 66.6233 191.34L67.3674 193.196C70.9386 191.765 74.7357 190.979 78.5817 190.874L78.5275 188.875ZM66.9954 191.268C66.2883 191.561 65.9954 192.268 65.9954 192.268C65.9954 192.268 65.9954 192.268 65.9954 192.268C65.9954 192.268 65.9954 192.268 65.9954 192.268C65.9954 192.268 65.9954 192.268 65.9954 192.268C65.9954 192.268 65.9954 192.268 65.9954 192.268C65.9954 192.269 65.9954 192.269 65.9954 192.27C65.9954 192.271 65.9954 192.273 65.9954 192.275C65.9954 192.28 65.9954 192.286 65.9954 192.294C65.9954 192.309 65.9954 192.329 65.9954 192.349C65.9954 192.368 65.9954 192.387 65.9954 192.399C65.9954 192.406 65.9954 192.41 65.9954 192.412C65.9954 192.413 65.9954 192.413 65.9954 192.414C65.9954 192.414 65.9954 192.414 65.9954 192.414C65.9954 192.414 65.9954 192.414 65.9954 192.414C65.9954 192.414 65.9954 192.414 65.9954 192.414C65.9954 192.414 65.9954 192.414 65.9954 192.414C65.9954 192.414 66.9954 193.414 67.9954 192.414C67.9954 192.414 67.9954 192.414 67.9954 192.414C67.9954 192.414 67.9954 192.414 67.9954 192.414C67.9954 192.414 67.9954 192.413 67.9954 192.412H65.9954C65.9954 192.413 65.9954 192.414 65.9954 192.414C65.9954 192.414 65.9954 192.414 65.9954 192.414C66.9954 191.414 67.9954 192.414 67.9954 192.414C67.9954 192.414 67.9954 192.414 67.9954 192.414C67.9954 192.414 67.9954 192.414 67.9954 192.414C67.9954 192.414 67.9954 192.414 67.9954 192.414C67.9954 192.413 67.9954 192.413 67.9954 192.412C67.9954 192.41 67.9954 192.405 67.9954 192.399C67.9954 192.387 67.9954 192.368 67.9954 192.349C67.9954 192.329 67.9954 192.309 67.9954 192.294C67.9954 192.286 67.9954 192.28 67.9954 192.275C67.9954 192.273 67.9954 192.271 67.9954 192.27C67.9954 192.269 67.9954 192.269 67.9954 192.268C67.9954 192.268 67.9954 192.268 67.9954 192.268C67.9954 192.268 67.9954 192.268 67.9954 192.268C67.9954 192.268 67.9954 192.268 67.9954 192.268C67.9954 192.268 67.9954 192.268 67.9954 192.268C67.9954 192.268 67.7025 192.975 66.9954 193.268V191.268ZM67.2278 193.384C70.9885 192.485 74.7214 192.145 78.6661 191.508L78.3473 189.534C74.5858 190.141 70.6127 190.519 66.7629 191.439L67.2278 193.384ZM78.8578 191.457C79.4274 191.244 79.7764 190.728 79.799 190.186C79.8102 189.917 79.7404 189.591 79.5106 189.315C79.2637 189.019 78.9096 188.875 78.5546 188.875V190.875C78.3671 190.875 78.1387 190.793 77.974 190.596C77.8265 190.419 77.7955 190.228 77.8008 190.102C77.8114 189.847 77.9689 189.655 78.1556 189.585L78.8578 191.457Z" fill="white" mask="url(#path-13-inside-4_1281_1195)"/>
<path d="M70.4645 173.598C70.4644 173.598 70.4642 173.598 70.4641 173.598H70.4645Z" fill="#263238" stroke="white"/>
<path d="M-65.2385 149.562L-65.2301 149.565L-65.2215 149.568C-53.0667 153.681 -41.4198 159.164 -30.5057 165.912C-19.1985 173.1 -9.38885 182.409 -1.61774 193.324L-1.61652 193.326C14.7613 216.127 27.2996 241.454 35.5019 268.303L35.5022 268.304C39.8367 282.385 42.5972 296.901 43.7348 311.586C40.1389 285.378 32.5779 259.865 21.3073 235.923L21.3072 235.922C9.93651 211.817 -4.46709 186.081 -26.4995 170.038L-26.5001 170.037C-37.4123 162.115 -49.5123 156.691 -61.6481 151.252C-62.8769 150.701 -64.1061 150.15 -65.3344 149.596L-65.3596 149.585C-65.3484 149.573 -65.3356 149.564 -65.3232 149.558C-65.3133 149.554 -65.3037 149.551 -65.2933 149.551C-65.2833 149.551 -65.2655 149.552 -65.2385 149.562ZM-65.3896 149.636C-65.3897 149.636 -65.3896 149.635 -65.3893 149.634L-65.3896 149.636Z" fill="#FFC727" stroke="white"/>
<path d="M-23.963 192.031L-23.9629 192.031L-23.9628 192.031L-23.9632 192.031L-24.5012 191.197L-24.5013 191.197L-24.5016 191.197L-24.5034 191.198L-24.5112 191.202L-24.5436 191.217C-24.5726 191.231 -24.6162 191.252 -24.6738 191.279C-24.7888 191.333 -24.9594 191.413 -25.1793 191.512C-25.6193 191.71 -26.2565 191.988 -27.042 192.304C-28.6144 192.937 -30.7751 193.72 -33.1349 194.326C-35.4981 194.934 -38.0396 195.357 -40.3796 195.285C-42.7228 195.213 -44.8105 194.646 -46.3298 193.326C-47.0893 192.667 -47.9894 191.477 -48.9886 189.853C-49.9815 188.239 -51.05 186.234 -52.1534 183.977C-54.36 179.463 -56.6926 173.97 -58.8237 168.647C-60.9542 163.325 -62.8803 158.18 -64.274 154.365C-64.9708 152.458 -65.5344 150.883 -65.9236 149.786C-66.018 149.52 -66.1022 149.282 -66.1755 149.074C-65.9958 149.143 -65.7929 149.221 -65.5679 149.309C-64.5298 149.713 -63.0197 150.321 -61.1356 151.134C-57.3672 152.758 -52.1045 155.198 -46.1314 158.457C-34.1794 164.979 -19.411 174.769 -8.07422 187.857C3.27499 200.958 11.9813 216.744 17.8532 229.267C20.7879 235.526 23.012 240.965 24.5021 244.837C25.203 246.659 25.7414 248.134 26.1149 249.185C18.0126 241.98 9.17816 235.639 -0.245117 230.268L-0.249603 230.266C-2.87128 228.807 -5.4042 227.434 -7.82301 226.122C-12.5689 223.549 -16.8754 221.214 -20.551 218.94C-26.1086 215.502 -30.1039 212.272 -31.9499 208.695C-32.8315 206.987 -32.8188 205.12 -32.2625 203.237C-31.7043 201.347 -30.607 199.472 -29.3715 197.8C-28.1387 196.132 -26.785 194.688 -25.7371 193.659C-25.2138 193.145 -24.7683 192.737 -24.4544 192.457C-24.2975 192.318 -24.1735 192.21 -24.0894 192.138C-24.073 192.124 -24.0582 192.112 -24.0449 192.1C-24.0239 192.083 -24.0068 192.068 -23.9938 192.057L-23.9699 192.037L-23.9642 192.032L-23.963 192.031Z" fill="#FFC727" stroke="white"/>
<path d="M25.33 242.741C7.06985 208.47 -17.293 177.454 -50.6782 156.992C-41.9635 162.611 -33.7842 169.02 -26.2436 176.138C-33.0355 175.765 -39.8055 177.193 -45.8679 180.278V180.494" stroke="white"/>
<path d="M73.7456 363.768H-7.50668L4.16648 278.276L4.16654 278.275L7.09937 256.643H59.1162L62.0725 278.276L62.0725 278.276L73.7456 363.768Z" fill="#C7C7C7" stroke="white"/>
<path d="M59.1172 256.643L61.996 277.708H4.24448L7.10042 256.643H59.1172Z" fill="#A6A6A6" stroke="white"/>
<path d="M-0.400879 266.676V248.985H66.6141V266.676H-0.400879Z" fill="#C7C7C7" stroke="white"/>
</svg>
