<svg width="191" height="56" viewBox="0 0 191 56" fill="none" xmlns="http://www.w3.org/2000/svg">
<path d="M54.0312 29.2695C54.0312 32.0977 53.2617 34.2617 51.7227 35.7617C50.1914 37.2539 47.9844 38 45.1016 38H40.3555V20.8672H45.6055C48.2695 20.8672 50.3398 21.6055 51.8164 23.082C53.293 24.5586 54.0312 26.6211 54.0312 29.2695ZM51.9219 29.3398C51.9219 27.1055 51.3594 25.4219 50.2344 24.2891C49.1172 23.1562 47.4531 22.5898 45.2422 22.5898H42.3477V36.2773H44.7734C47.1484 36.2773 48.9336 35.6953 50.1289 34.5312C51.3242 33.3594 51.9219 31.6289 51.9219 29.3398ZM68.6562 31.5664C68.6562 33.6602 68.1289 35.2969 67.0742 36.4766C66.0195 37.6484 64.5625 38.2344 62.7031 38.2344C61.5547 38.2344 60.5352 37.9648 59.6445 37.4258C58.7539 36.8867 58.0664 36.1133 57.582 35.1055C57.0977 34.0977 56.8555 32.918 56.8555 31.5664C56.8555 29.4727 57.3789 27.8438 58.4258 26.6797C59.4727 25.5078 60.9258 24.9219 62.7852 24.9219C64.582 24.9219 66.0078 25.5195 67.0625 26.7148C68.125 27.9102 68.6562 29.5273 68.6562 31.5664ZM58.8711 31.5664C58.8711 33.207 59.1992 34.457 59.8555 35.3164C60.5117 36.1758 61.4766 36.6055 62.75 36.6055C64.0234 36.6055 64.9883 36.1797 65.6445 35.3281C66.3086 34.4688 66.6406 33.2148 66.6406 31.5664C66.6406 29.9336 66.3086 28.6953 65.6445 27.8516C64.9883 27 64.0156 26.5742 62.7266 26.5742C61.4531 26.5742 60.4922 26.9922 59.8438 27.8281C59.1953 28.6641 58.8711 29.9102 58.8711 31.5664ZM82.5664 38L80.2109 30.4648C80.0625 30.0039 79.7852 28.957 79.3789 27.3242H79.2852C78.9727 28.6914 78.6992 29.7461 78.4648 30.4883L76.0391 38H73.7891L70.2852 25.1562H72.3242C73.1523 28.3828 73.7812 30.8398 74.2109 32.5273C74.6484 34.2148 74.8984 35.3516 74.9609 35.9375H75.0547C75.1406 35.4922 75.2773 34.918 75.4648 34.2148C75.6602 33.5039 75.8281 32.9414 75.9688 32.5273L78.3242 25.1562H80.4336L82.7305 32.5273C83.168 33.8711 83.4648 35 83.6211 35.9141H83.7148C83.7461 35.6328 83.8281 35.1992 83.9609 34.6133C84.1016 34.0273 84.918 30.875 86.4102 25.1562H88.4258L84.875 38H82.5664ZM99.5469 38V29.6914C99.5469 28.6445 99.3086 27.8633 98.832 27.3477C98.3555 26.832 97.6094 26.5742 96.5938 26.5742C95.25 26.5742 94.2656 26.9375 93.6406 27.6641C93.0156 28.3906 92.7031 29.5898 92.7031 31.2617V38H90.7578V25.1562H92.3398L92.6562 26.9141H92.75C93.1484 26.2812 93.707 25.793 94.4258 25.4492C95.1445 25.0977 95.9453 24.9219 96.8281 24.9219C98.375 24.9219 99.5391 25.2969 100.32 26.0469C101.102 26.7891 101.492 27.9805 101.492 29.6211V38H99.5469ZM107.445 38H105.5V19.7656H107.445V38ZM122.656 31.5664C122.656 33.6602 122.129 35.2969 121.074 36.4766C120.02 37.6484 118.562 38.2344 116.703 38.2344C115.555 38.2344 114.535 37.9648 113.645 37.4258C112.754 36.8867 112.066 36.1133 111.582 35.1055C111.098 34.0977 110.855 32.918 110.855 31.5664C110.855 29.4727 111.379 27.8438 112.426 26.6797C113.473 25.5078 114.926 24.9219 116.785 24.9219C118.582 24.9219 120.008 25.5195 121.062 26.7148C122.125 27.9102 122.656 29.5273 122.656 31.5664ZM112.871 31.5664C112.871 33.207 113.199 34.457 113.855 35.3164C114.512 36.1758 115.477 36.6055 116.75 36.6055C118.023 36.6055 118.988 36.1797 119.645 35.3281C120.309 34.4688 120.641 33.2148 120.641 31.5664C120.641 29.9336 120.309 28.6953 119.645 27.8516C118.988 27 118.016 26.5742 116.727 26.5742C115.453 26.5742 114.492 26.9922 113.844 27.8281C113.195 28.6641 112.871 29.9102 112.871 31.5664ZM133.977 38L133.59 36.1719H133.496C132.855 36.9766 132.215 37.5234 131.574 37.8125C130.941 38.0938 130.148 38.2344 129.195 38.2344C127.922 38.2344 126.922 37.9062 126.195 37.25C125.477 36.5938 125.117 35.6602 125.117 34.4492C125.117 31.8555 127.191 30.4961 131.34 30.3711L133.52 30.3008V29.5039C133.52 28.4961 133.301 27.7539 132.863 27.2773C132.434 26.793 131.742 26.5508 130.789 26.5508C129.719 26.5508 128.508 26.8789 127.156 27.5352L126.559 26.0469C127.191 25.7031 127.883 25.4336 128.633 25.2383C129.391 25.043 130.148 24.9453 130.906 24.9453C132.438 24.9453 133.57 25.2852 134.305 25.9648C135.047 26.6445 135.418 27.7344 135.418 29.2344V38H133.977ZM129.582 36.6289C130.793 36.6289 131.742 36.2969 132.43 35.6328C133.125 34.9688 133.473 34.0391 133.473 32.8438V31.6836L131.527 31.7656C129.98 31.8203 128.863 32.0625 128.176 32.4922C127.496 32.9141 127.156 33.5742 127.156 34.4727C127.156 35.1758 127.367 35.7109 127.789 36.0781C128.219 36.4453 128.816 36.6289 129.582 36.6289ZM148.18 36.2773H148.074C147.176 37.582 145.832 38.2344 144.043 38.2344C142.363 38.2344 141.055 37.6602 140.117 36.5117C139.188 35.3633 138.723 33.7305 138.723 31.6133C138.723 29.4961 139.191 27.8516 140.129 26.6797C141.066 25.5078 142.371 24.9219 144.043 24.9219C145.785 24.9219 147.121 25.5547 148.051 26.8203H148.203L148.121 25.8945L148.074 24.9922V19.7656H150.02V38H148.438L148.18 36.2773ZM144.289 36.6055C145.617 36.6055 146.578 36.2461 147.172 35.5273C147.773 34.8008 148.074 33.6328 148.074 32.0234V31.6133C148.074 29.793 147.77 28.4961 147.16 27.7227C146.559 26.9414 145.594 26.5508 144.266 26.5508C143.125 26.5508 142.25 26.9961 141.641 27.8867C141.039 28.7695 140.738 30.0195 140.738 31.6367C140.738 33.2773 141.039 34.5156 141.641 35.3516C142.242 36.1875 143.125 36.6055 144.289 36.6055Z" fill="#2B354E"/>
<path d="M22.1883 1H11.5942H11C5.47715 1 1 5.47715 1 11V14.5M167.117 1H180C185.523 1 190 5.47715 190 11V14.5M167.117 55H180C185.523 55 190 50.5228 190 45V41.5M11.5942 55H11C5.47715 55 1 50.5228 1 45V41.5" stroke="#2B354E"/>
<path d="M167.117 1.1H180C185.468 1.1 189.9 5.53238 189.9 11V14.5V45C189.9 50.4676 185.468 54.9 180 54.9H11.5942H11C5.53238 54.9 1.1 50.4676 1.1 45V14.5V11C1.1 5.53238 5.53238 1.1 11 1.1H156.522H167.117Z" stroke="#2B354E" stroke-width="0.2"/>
</svg>
