<svg xmlns="http://www.w3.org/2000/svg" xmlns:vectornator="http://vectornator.io" xml:space="preserve" stroke-linecap="round" stroke-linejoin="round" stroke-miterlimit="10" clip-rule="evenodd" viewBox="0 0 2000 2000"><defs><filter id="b" width="2114.39" height="2140.82" x="-102.54" y="-73.38" color-interpolation-filters="sRGB" filterUnits="userSpaceOnUse"><feDropShadow dx="0" dy="0" flood-color="#fff" flood-opacity="1" in="SourceGraphic" result="Shadow" stdDeviation="4.94"/><feGaussianBlur in="Shadow" result="Blur" stdDeviation="50"/></filter><filter id="c" width="136.12" height="856.38" x="1598.47" y="234.54" color-interpolation-filters="sRGB" filterUnits="userSpaceOnUse"><feDropShadow dx="10.44" dy="4.69" flood-color="#161b28" flood-opacity="1" in="SourceGraphic" result="Shadow" stdDeviation="7.57"/></filter><filter id="d" width="336.75" height="866.91" x="1284.81" y="234.52" color-interpolation-filters="sRGB" filterUnits="userSpaceOnUse"><feDropShadow dx="-.47" dy="11.43" flood-color="#161b28" flood-opacity="1" in="SourceGraphic" result="Shadow" stdDeviation="7.57"/></filter><filter id="e" width="243.37" height="185.24" x="1344.79" y="287.18" color-interpolation-filters="sRGB" filterUnits="userSpaceOnUse"><feDropShadow dx="10.49" dy="4.11" flood-color="#161b28" flood-opacity="1" in="SourceGraphic" result="Shadow" stdDeviation="6.8"/></filter><filter id="f" width="241.84" height="466.35" x="1345.52" y="527.68" color-interpolation-filters="sRGB" filterUnits="userSpaceOnUse"><feDropShadow dx="10.49" dy="4.11" flood-color="#161b28" flood-opacity="1" in="SourceGraphic" result="Shadow" stdDeviation="6.8"/></filter><filter id="g" width="105.69" height="232.25" x="1221.99" y="293.29" color-interpolation-filters="sRGB" filterUnits="userSpaceOnUse"><feDropShadow dx="-.05" dy=".16" flood-color="#161b28" flood-opacity="1" in="SourceGraphic" result="Shadow" stdDeviation="12.28"/></filter><filter id="h" width="599.47" height="244.51" x="673.13" y="309.02" color-interpolation-filters="sRGB" filterUnits="userSpaceOnUse"><feDropShadow dx="-1.31" dy="4.04" flood-color="#161b28" flood-opacity="1" in="SourceGraphic" result="Shadow" stdDeviation="12.28"/></filter><filter id="i" width="346.03" height="341.73" x="146.44" y="1040.67" color-interpolation-filters="sRGB" filterUnits="userSpaceOnUse"><feDropShadow dx="0" dy="0" flood-color="#fff" flood-opacity="1" in="SourceGraphic" result="Shadow" stdDeviation="16.05"/></filter><filter id="j" width="400.16" height="395.51" x="70.78" y="549.93" color-interpolation-filters="sRGB" filterUnits="userSpaceOnUse"><feDropShadow dx="0" dy="0" flood-color="#fff" flood-opacity="1" in="SourceGraphic" result="Shadow" stdDeviation="16.05"/></filter><filter id="k" width="346.77" height="334.6" x="309.93" y="134.08" color-interpolation-filters="sRGB" filterUnits="userSpaceOnUse"><feDropShadow dx="0" dy="0" flood-color="#fff" flood-opacity="1" in="SourceGraphic" result="Shadow" stdDeviation="16.05"/></filter><filter id="l" width="400.16" height="395.51" x="1101.47" y="1503.13" color-interpolation-filters="sRGB" filterUnits="userSpaceOnUse"><feDropShadow dx="0" dy="0" flood-color="#fff" flood-opacity="1" in="SourceGraphic" result="Shadow" stdDeviation="16.05"/></filter><filter id="m" width="400.16" height="395.51" x="1495.15" y="1107.9" color-interpolation-filters="sRGB" filterUnits="userSpaceOnUse"><feDropShadow dx="0" dy="0" flood-color="#fff" flood-opacity="1" in="SourceGraphic" result="Shadow" stdDeviation="16.05"/></filter><filter id="n" width="673.99" height="1082.37" x="570.35" y="545.96" color-interpolation-filters="sRGB" filterUnits="userSpaceOnUse"><feDropShadow dx="-7.32" dy="11.38" flood-color="#2b354e" flood-opacity="1" in="SourceGraphic" result="Shadow" stdDeviation="7.83"/></filter><filter id="o" width="564.66" height="837.93" x="633.78" y="631.84" color-interpolation-filters="sRGB" filterUnits="userSpaceOnUse"><feDropShadow dx="0" dy="0" flood-color="#fff" flood-opacity="1" in="SourceGraphic" result="Shadow" stdDeviation="7.32"/></filter><filter id="p" width="370.29" height="384.82" x="741.73" y="827.87" color-interpolation-filters="sRGB" filterUnits="userSpaceOnUse"><feDropShadow dx="9.81" dy="4.41" flood-color="#161b28" flood-opacity="1" in="SourceGraphic" result="Shadow" stdDeviation="2.44"/></filter><filter id="q" width="147.46" height="254.36" x="840.44" y="879.11" color-interpolation-filters="sRGB" filterUnits="userSpaceOnUse"><feDropShadow dx="0" dy="0" flood-color="#fff" flood-opacity="1" in="SourceGraphic" result="Shadow" stdDeviation="6.8"/></filter><filter id="r" width="304.47" height="99.2" x="736.3" y="1239.1" color-interpolation-filters="sRGB" filterUnits="userSpaceOnUse"><feDropShadow dx="0" dy="0" flood-color="#2b354e" flood-opacity="1" in="SourceGraphic" result="Shadow" stdDeviation="5"/></filter><filter id="s" width="35.05" height="621.43" x="1341.74" y="943.83" color-interpolation-filters="sRGB" filterUnits="userSpaceOnUse"><feDropShadow dx="0" dy="0" flood-color="#fff" flood-opacity="1" in="SourceGraphic" result="Shadow" stdDeviation="6.8"/></filter><filter id="t" width="417.35" height="35.01" x="1131.97" y="1262.33" color-interpolation-filters="sRGB" filterUnits="userSpaceOnUse"><feDropShadow dx="0" dy="0" flood-color="#fff" flood-opacity="1" in="SourceGraphic" result="Shadow" stdDeviation="6.8"/></filter><filter id="u" width="250.35" height="32.3" x="440.62" y="1195.47" color-interpolation-filters="sRGB" filterUnits="userSpaceOnUse"><feDropShadow dx="0" dy="0" flood-color="#fff" flood-opacity="1" in="SourceGraphic" result="Shadow" stdDeviation="6.8"/></filter><filter id="v" width="913.2" height="33.84" x="416.97" y="705.55" color-interpolation-filters="sRGB" filterUnits="userSpaceOnUse"><feDropShadow dx="0" dy="0" flood-color="#fff" flood-opacity="1" in="SourceGraphic" result="Shadow" stdDeviation="6.8"/></filter><filter id="w" width="33.34" height="501.33" x="922.72" y="410.71" color-interpolation-filters="sRGB" filterUnits="userSpaceOnUse"><feDropShadow dx="0" dy="0" flood-color="#fff" flood-opacity="1" in="SourceGraphic" result="Shadow" stdDeviation="6.8"/></filter><filter id="x" width="747.93" height="32.87" x="603.82" y="268.43" color-interpolation-filters="sRGB" filterUnits="userSpaceOnUse"><feDropShadow dx="0" dy="0" flood-color="#fff" flood-opacity="1" in="SourceGraphic" result="Shadow" stdDeviation="6.8"/></filter><filter id="y" width="32.2" height="320.95" x="467.18" y="416.82" color-interpolation-filters="sRGB" filterUnits="userSpaceOnUse"><feDropShadow dx="0" dy="0" flood-color="#fff" flood-opacity="1" in="SourceGraphic" result="Shadow" stdDeviation="6.8"/></filter><filter id="z" width="43.59" height="753.13" x="1642.88" y="409.42" color-interpolation-filters="sRGB" filterUnits="userSpaceOnUse"><feDropShadow dx="0" dy="0" flood-color="#fff" flood-opacity="1" in="SourceGraphic" result="Shadow" stdDeviation="6.8"/></filter><filter id="A" width="258.13" height="33.38" x="1428.32" y="410.78" color-interpolation-filters="sRGB" filterUnits="userSpaceOnUse"><feDropShadow dx="0" dy="0" flood-color="#fff" flood-opacity="1" in="SourceGraphic" result="Shadow" stdDeviation="6.8"/></filter><filter id="B" width="75.11" height="94.78" x="1644.46" y="1301.95" color-interpolation-filters="sRGB" filterUnits="userSpaceOnUse"><feDropShadow dx="0" dy="0" flood-color="#fff" flood-opacity="1" in="SourceGraphic" result="Shadow" stdDeviation="6.8"/></filter><filter id="C" width="49.4" height="49.18" x="1203.62" y="1680.26" color-interpolation-filters="sRGB" filterUnits="userSpaceOnUse"><feDropShadow dx="0" dy="0" flood-color="#fff" flood-opacity="1" in="SourceGraphic" result="Shadow" stdDeviation="6.8"/></filter><filter id="D" width="66.23" height="43.93" x="1172.36" y="1657.75" color-interpolation-filters="sRGB" filterUnits="userSpaceOnUse"><feDropShadow dx="0" dy="0" flood-color="#fff" flood-opacity="1" in="SourceGraphic" result="Shadow" stdDeviation="6.8"/></filter><filter id="E" width="55.96" height="38.03" x="1177.6" y="1626.49" color-interpolation-filters="sRGB" filterUnits="userSpaceOnUse"><feDropShadow dx="0" dy="0" flood-color="#fff" flood-opacity="1" in="SourceGraphic" result="Shadow" stdDeviation="6.8"/></filter><filter id="F" width="51.72" height="56.69" x="1191.81" y="1577.3" color-interpolation-filters="sRGB" filterUnits="userSpaceOnUse"><feDropShadow dx="0" dy="0" flood-color="#fff" flood-opacity="1" in="SourceGraphic" result="Shadow" stdDeviation="6.8"/></filter><filter id="G" width="35.48" height="49.77" x="1236.41" y="1569.21" color-interpolation-filters="sRGB" filterUnits="userSpaceOnUse"><feDropShadow dx="0" dy="0" flood-color="#fff" flood-opacity="1" in="SourceGraphic" result="Shadow" stdDeviation="6.8"/></filter><filter id="H" width="44.81" height="79.57" x="1265.7" y="1548.66" color-interpolation-filters="sRGB" filterUnits="userSpaceOnUse"><feDropShadow dx="0" dy="0" flood-color="#fff" flood-opacity="1" in="SourceGraphic" result="Shadow" stdDeviation="6.8"/></filter><filter id="I" width="42.65" height="44.35" x="1289.5" y="1589.32" color-interpolation-filters="sRGB" filterUnits="userSpaceOnUse"><feDropShadow dx="0" dy="0" flood-color="#fff" flood-opacity="1" in="SourceGraphic" result="Shadow" stdDeviation="6.8"/></filter><filter id="J" width="40.45" height="43.28" x="1274.66" y="1686.17" color-interpolation-filters="sRGB" filterUnits="userSpaceOnUse"><feDropShadow dx="0" dy="0" flood-color="#fff" flood-opacity="1" in="SourceGraphic" result="Shadow" stdDeviation="6.8"/></filter><filter id="K" width="61.86" height="49.18" x="1289.75" y="1669.55" color-interpolation-filters="sRGB" filterUnits="userSpaceOnUse"><feDropShadow dx="0" dy="0" flood-color="#fff" flood-opacity="1" in="SourceGraphic" result="Shadow" stdDeviation="6.8"/></filter><filter id="L" width="63.17" height="33" x="1299.58" y="1639.6" color-interpolation-filters="sRGB" filterUnits="userSpaceOnUse"><feDropShadow dx="0" dy="0" flood-color="#fff" flood-opacity="1" in="SourceGraphic" result="Shadow" stdDeviation="6.8"/></filter><filter id="M" width="69.01" height="32.44" x="118.97" y="724.11" color-interpolation-filters="sRGB" filterUnits="userSpaceOnUse"><feDropShadow dx="0" dy="0" flood-color="#fff" flood-opacity="1" in="SourceGraphic" result="Shadow" stdDeviation="6.8"/></filter><filter id="N" width="60.01" height="33.04" x="141.94" y="770.44" color-interpolation-filters="sRGB" filterUnits="userSpaceOnUse"><feDropShadow dx="0" dy="0" flood-color="#fff" flood-opacity="1" in="SourceGraphic" result="Shadow" stdDeviation="6.8"/></filter><filter id="O" width="69.7" height="32.82" x="273.13" y="666.49" color-interpolation-filters="sRGB" filterUnits="userSpaceOnUse"><feDropShadow dx="0" dy="0" flood-color="#fff" flood-opacity="1" in="SourceGraphic" result="Shadow" stdDeviation="6.8"/></filter><filter id="P" width="394.74" height="238.16" x="382.12" y="1471.71" color-interpolation-filters="sRGB" filterUnits="userSpaceOnUse"><feDropShadow dx="0" dy="0" flood-color="#fff" flood-opacity="1" in="SourceGraphic" result="Shadow" stdDeviation="6.8"/></filter><filter id="Q" width="455.15" height="170.96" x="1446.85" y="225.99" color-interpolation-filters="sRGB" filterUnits="userSpaceOnUse"><feDropShadow dx="0" dy="0" flood-color="#fff" flood-opacity="1" in="SourceGraphic" result="Shadow" stdDeviation="6.8"/></filter><filter id="R" width="116.94" height="385.96" x="201.95" y="266.13" color-interpolation-filters="sRGB" filterUnits="userSpaceOnUse"><feDropShadow dx="0" dy="0" flood-color="#fff" flood-opacity="1" in="SourceGraphic" result="Shadow" stdDeviation="6.8"/></filter><filter id="S" width="319.07" height="110.84" x="725.87" y="1234.1" color-interpolation-filters="sRGB" filterUnits="userSpaceOnUse"><feDropShadow dx="0" dy="0" flood-color="#fff" flood-opacity="1" in="SourceGraphic" result="Shadow" stdDeviation="6.8"/></filter></defs><clipPath id="a"><path d="M0 0h2000v2000H0z"/></clipPath><g vectornator:layerName="Слой 2" clip-path="url(#a)"><path vectornator:shadowAngle="-.34" vectornator:shadowColor="#ffffff" vectornator:shadowOffset="0" vectornator:shadowOpacity="1" vectornator:shadowRadius="9.88" fill="#2b354e" fill-opacity=".6" stroke="#2b354e" stroke-width="2.74" d="M33.71 997.03c0-515.92 412.32-934.16 920.95-934.16 508.62 0 920.94 418.24 920.94 934.16s-412.32 934.15-920.94 934.15c-508.63 0-920.95-418.23-920.95-934.15Z" filter="url(#b)"/></g><g vectornator:layerName="Слой 3"><path fill="#d0ac88" d="M1274.6 631.71c30.96 40.81-5.47 95.8-39.96 138.73-34.49 42.93-77.13 73.98-97.99 32.99-20.86-41 39.56-123.33 39.56-123.33s67.44-89.2 98.39-48.39Z"/><path fill="#fff" fill-opacity=".67" d="M1252.94 621a40.22 40.22 0 0 0-12.22 2.6c-5.85 2.14-11.31 5.26-16.5 8.68-7 4.6-13.52 9.91-19.75 15.5a298.54 298.54 0 0 0-19.22 18.97 239.45 239.45 0 0 0-10.66 12.1c-2.71 3.34-5.2 6.88-7.68 10.4a345.27 345.27 0 0 0-12.38 18.84c-8.46 13.83-16.05 28.34-21.28 43.72-4.93 14.52-8.36 31.16-4.16 46.28a45.95 45.95 0 0 0 4.38 10.38 48.72 48.72 0 0 0 5.69 8.1 35.5 35.5 0 0 0 7.68 6.62c2.03 1.28 4.2 2.3 6.47 3.06 15.22 5.07 31.35-2.9 43.5-11.66 2.41-1.74 4.78-3.56 7.07-5.47 2.79-2.33 5.49-4.76 8.12-7.28 14.86-14.22 27.25-30.84 38.78-47.8a328 328 0 0 0 18.5-30.38c5.24-9.85 9.87-20.06 13.1-30.75 3.54-11.78 5.13-24.38 2.93-36.57 2.27 13.7-.58 27.85-5.59 40.7-4.28 10.96-10.11 21.25-16.6 31.05-8.4 12.7-18.02 24.61-27.9 36.2a341.02 341.02 0 0 1-21.5 23.27c-2.97 2.9-6.03 5.71-9.16 8.44-2.56 2.24-5.17 4.4-7.87 6.47a119.44 119.44 0 0 1-12.07 8.12c-8.7 5.02-20.32 9.58-30.12 4.91a22 22 0 0 1-4.16-2.63 30 30 0 0 1-5.96-6.56 39.17 39.17 0 0 1-5.04-9.81c-2.21-6.65-2.39-13.86-1.72-20.78.99-10.09 3.78-19.95 7.16-29.47 4.79-13.48 10.9-26.48 17.69-39.06a363.58 363.58 0 0 1 10.28-17.9c1.65-2.7 3.29-5.39 5.09-7.98 3.5-5.03 7.39-9.82 11.32-14.53a232.66 232.66 0 0 1 20-21.28c2.86-2.66 5.83-5.24 8.87-7.69a138.5 138.5 0 0 1 6.59-4.97 99.55 99.55 0 0 1 5.38-3.53c7.35-4.45 16.36-8.43 25.16-8.15-.75-.03-1.48-.19-2.22-.16Zm2.22.16Zm1.96.15Zm2.88.47Zm3.78 1.28c.41.17.82.24 1.22.44 1.56.77 9.14 7.78 9.44 8.06-.07.1-.11.22-.03.32 2 2.96 1.43 2.19 2 2.96-.77-1.61-.64-1.23-1.6-3.28-.08-.11-.26-.15-.37-.06v.03c-.19-.23-1.82-2.26-2.85-3.28a25.48 25.48 0 0 0-6.56-4.78c-.4-.2-.84-.23-1.25-.4Zm12.63 11.78c5.89 12.44 7.35 15.1 7.87 16.82-.11-.42-.16-.84-.28-1.25a48.8 48.8 0 0 0-4.41-10.85c-.94-1.66-2.29-3.48-3.18-4.72Zm7.87 16.82a51.7 51.7 0 0 1 1.03 4.56c-.18-1.02-.22-2.05-.47-3.06-.17-.75-.44-1.1-.56-1.5Z"/><path vectornator:shadowAngle=".42" vectornator:shadowColor="#161b28" vectornator:shadowOffset="11.44" vectornator:shadowOpacity="1" vectornator:shadowRadius="15.15" fill="#2b354e" stroke="#2b354e" stroke-width="2.74" d="m1605.48 246.37 102.15 94.68-7.16 625.14-95.92 103.52.93-823.35Z" filter="url(#c)"/><path vectornator:shadowAngle="1.61" vectornator:shadowColor="#161b28" vectornator:shadowOffset="11.44" vectornator:shadowOpacity="1" vectornator:shadowRadius="15.15" fill="#283862" fill-opacity=".81" stroke="#2b354e" stroke-width="2.74" d="M1309.23 239.6h288.85c4.1 0 7.43 3.34 7.43 7.44v819.01a7.44 7.44 0 0 1-7.43 7.44h-288.85a7.44 7.44 0 0 1-7.44-7.44v-819a7.44 7.44 0 0 1 7.44-7.44Z" filter="url(#d)"/><path vectornator:shadowAngle=".37" vectornator:shadowColor="#161b28" vectornator:shadowOffset="11.27" vectornator:shadowOpacity="1" vectornator:shadowRadius="13.61" fill="#f1d244" fill-opacity=".59" stroke="#2b354e" stroke-width="2.74" d="M1356.7 298.04h198.56a7.44 7.44 0 0 1 7.44 7.43V445.9c0 4.1-3.33 7.43-7.44 7.43H1356.7a7.43 7.43 0 0 1-7.43-7.43V305.47c0-4.1 3.33-7.43 7.43-7.43Z" filter="url(#e)"/><path vectornator:shadowAngle=".37" vectornator:shadowColor="#161b28" vectornator:shadowOffset="11.27" vectornator:shadowOpacity="1" vectornator:shadowRadius="13.61" fill="#f1d244" fill-opacity=".46" stroke="#2b354e" stroke-width="2.74" d="M1357.79 538.54h196.32c4.3 0 7.79 3.33 7.79 7.43v421.54c0 4.1-3.49 7.44-7.79 7.44h-196.32c-4.3 0-7.78-3.33-7.78-7.44V545.97c0-4.1 3.48-7.43 7.78-7.43Z" filter="url(#f)"/><path vectornator:shadowAngle="1.88" vectornator:shadowColor="#161b28" vectornator:shadowOffset=".17" vectornator:shadowOpacity="1" vectornator:shadowRadius="24.56" fill="#2b354e" stroke="#2b354e" stroke-width="2.74" d="M1255.4 319.06h38.96a7.43 7.43 0 0 1 7.43 7.43V492c0 4.1-3.32 7.44-7.43 7.44h-38.96a7.43 7.43 0 0 1-7.43-7.44V326.5c0-4.1 3.33-7.43 7.43-7.43Z" filter="url(#g)"/><path vectornator:shadowAngle="1.88" vectornator:shadowColor="#161b28" vectornator:shadowOffset="4.25" vectornator:shadowOpacity="1" vectornator:shadowRadius="24.56" fill="#38476b" stroke="#2b354e" stroke-width="2.74" d="M707.92 330.92h532.62c4.1 0 7.43 3.32 7.43 7.43v109.51c0 4.1-3.33 7.44-7.43 7.44H821.43l-117.87 68.26c-4.1 0-3.07-71.6-3.07-75.7V338.35c0-4.1 3.33-7.43 7.43-7.43Z" filter="url(#h)"/><path vectornator:shadowAngle="1.88" vectornator:shadowColor="#ffffff" vectornator:shadowOffset="0" vectornator:shadowOpacity="1" vectornator:shadowRadius="32.1" fill="#2b354e" fill-opacity=".8" stroke="#fff" stroke-width="7.38" d="M182.23 1211.54c0-74.6 61.44-135.08 137.23-135.08 75.79 0 137.22 60.48 137.22 135.08 0 74.6-61.44 135.07-137.22 135.07-75.8 0-137.23-60.47-137.23-135.07Z" filter="url(#i)"/><path fill="#d0ac88" stroke="#fff" stroke-opacity=".67" stroke-width="7.75" d="M1144.93 1421.42s-37 137.35-100.3 227.86c-63.29 90.5-149.24 148.86-149.24 148.86l-205.77-116.76 53-135.88 402.31-124.08Z"/><path vectornator:shadowAngle="1.88" vectornator:shadowColor="#ffffff" vectornator:shadowOffset="0" vectornator:shadowOpacity="1" vectornator:shadowRadius="32.1" fill="#2b354e" fill-opacity=".83" stroke="#fff" stroke-width="7.38" d="M106.57 747.69c0-89.45 73.56-161.97 164.29-161.97 90.74 0 164.3 72.52 164.3 161.97s-73.56 161.96-164.3 161.96c-90.74 0-164.3-72.51-164.3-161.96Z" filter="url(#j)"/><path vectornator:shadowAngle="1.88" vectornator:shadowColor="#ffffff" vectornator:shadowOffset="0" vectornator:shadowOpacity="1" vectornator:shadowRadius="32.1" fill="#2b354e" fill-opacity=".81" stroke="#fff" stroke-width="7.38" d="M345.71 301.38c0-72.64 61.61-131.52 137.6-131.52 76 0 137.6 58.88 137.6 131.52 0 72.63-61.6 131.5-137.6 131.5-75.99 0-137.6-58.87-137.6-131.5Z" filter="url(#k)"/><path vectornator:shadowAngle="1.88" vectornator:shadowColor="#ffffff" vectornator:shadowOffset="0" vectornator:shadowOpacity="1" vectornator:shadowRadius="32.1" fill="#2b354e" fill-opacity=".67" stroke="#fff" stroke-width="7.38" d="M1137.26 1700.89c0-89.45 73.56-161.97 164.29-161.97 90.74 0 164.29 72.52 164.29 161.97s-73.55 161.96-164.29 161.96c-90.73 0-164.29-72.51-164.29-161.96Z" filter="url(#l)"/><path fill="#c09e7b" d="M526.28 1588.69s-48.63-278.82-19.98-458.08c28.66-179.27 74.78-262.3 118.36-275.23 43.57-12.92 76.52 150.8 76.52 150.8l-58.96 137.67s108.16 54.6 123.38 230.59c15.2 176-74.35 307.86-74.35 307.86l-164.97-93.61Z"/><path fill="#fff" fill-opacity=".67" d="M628.34 850.78c-4.22.3-8.28 1.82-12.15 3.63-8.73 4.07-16.36 10.2-23.03 17.09-10.79 11.12-19.37 24.28-26.75 37.84-10.91 20.03-19.35 41.37-26.57 62.97-12.24 36.67-20.93 74.47-28 112.44a1054.5 1054.5 0 0 0-9.21 56.91 699.84 699.84 0 0 0-4.1 41.56c-2.46 35.22-2.7 70.56-1.87 105.84 1.02 43.61 4 87.17 8 130.6a2464.9 2464.9 0 0 0 15.46 129.65c1.5 10.26 2.96 20.52 4.57 30.75.36 2.29 0 0 1.4 8.66.02.11.11.21.22.19.07-.02.07-.11.1-.16.02-.04.1-.05.09-.09-.1-.56-.1-.4-.13-.57l-.28-1.65c-.42-2.43-.8-4.85-1.22-7.28-1.65-9.93-3.27-19.88-4.71-29.85a2278.74 2278.74 0 0 1-14.53-123.9c-3.9-43.76-6.53-87.63-7.22-131.57-.59-36.8.2-73.69 3.4-110.37a692.67 692.67 0 0 1 4.78-41.25c2.8-18.92 6.38-37.76 10.2-56.5 7.38-36.36 16.27-72.53 28.21-107.69 7-20.63 15.1-41 25.28-60.28 7.3-13.81 15.73-27.3 26.4-38.78 6.84-7.34 14.77-14.04 24.07-18 3.4-1.45 6.98-2.78 10.72-2.22 7.56 1.14 13.72 8.15 18 13.88 4.4 5.9 8.04 12.38 11.31 18.96A282.17 282.17 0 0 1 672.81 920c6.97 18.95 12.61 38.35 17.6 57.9a745.13 745.13 0 0 1 6.12 25.91l.4 1.94-.4.97-1.34 3.09c-1.52 3.54-3.02 7.09-4.53 10.63-4.5 10.49-8.96 21-13.44 31.5a71757.1 71757.1 0 0 0-28.28 66.34c-2.5 5.86-4.98 11.73-7.47 17.6l-.78 1.84c-.26.62-.55 1.23-.82 1.84l-.37.94c-.3.72-1.13 2.35-1.06 3.09.06.61-.02 1.26.28 1.79.42.75 1.19 1.27 1.78 1.9.26.28 1.1.56 1.5.78a137.44 137.44 0 0 1 10.31 6.6 205.68 205.68 0 0 1 29.1 25c27.98 28.69 48.64 64.26 61.93 101.96 12.1 34.34 18.75 70.3 21.1 106.6 3.68 56.83-3.1 114.11-18.78 168.81a529.77 529.77 0 0 1-32.72 85.59 435.29 435.29 0 0 1-14.6 27.63 294.59 294.59 0 0 1-5.12 8.5c-.5.79-.97 1.57-1.47 2.34l-.44.69-.12.19h-.03c-.1-.05-.17-.11-.25-.16l-.85-.47-2.34-1.31-11.6-6.53-3.28-1.88-36.15-20.4c-24.24-13.7-48.47-27.43-72.69-41.16l-22.25-12.59 26.1 14.81a226988.49 226988.49 0 0 1 112.47 64.06l8.3 4.75 1.88 1.07c.15.08.55.43.81.37.33-.07.73-.98.85-1.15a338.1 338.1 0 0 0 2.56-4 360.2 360.2 0 0 0 9.1-15.54 515.8 515.8 0 0 0 31.55-68.96c23.79-63.51 36.11-131.6 33.57-199.47-1.5-40.03-8.03-79.92-21.38-117.75-13.15-37.3-33.48-72.46-60.93-101.07-9.8-10.21-20.51-19.64-32.2-27.65a127.06 127.06 0 0 0-6.96-4.5l-.38-.22c1.16-2.64 2.3-5.3 3.44-7.94l9.1-21.16a65215.49 65215.49 0 0 0 39.68-92.28l3.82-8.84 1.34-3.16c.15-.36.39-.7.47-1.09.16-.79.14-1.58.22-2.37.02-.25-.11-.61-.16-.85l-.34-1.69c-.4-1.91-.83-3.8-1.25-5.72a733.5 733.5 0 0 0-4.1-17.3c-5.15-20.73-11.03-41.37-18.43-61.41-4.1-11.09-8.54-22.06-13.97-32.57-3.55-6.85-7.5-13.56-12.28-19.62-5.53-6.99-12.8-13.98-22-15.31a19.93 19.93 0 0 0-4.29-.13Z"/><path vectornator:shadowAngle="1.88" vectornator:shadowColor="#ffffff" vectornator:shadowOffset="0" vectornator:shadowOpacity="1" vectornator:shadowRadius="32.1" fill="#2b354e" fill-opacity=".82" stroke="#fff" stroke-width="7.38" d="M1530.94 1305.66c0-89.45 73.56-161.97 164.29-161.97 90.74 0 164.29 72.52 164.29 161.97s-73.55 161.96-164.29 161.96c-90.73 0-164.29-72.51-164.29-161.96Z" filter="url(#m)"/><path fill="#2b354e" d="M90.34 1954.45 475.73 1560l436.77 247.86-61.97 178.33"/><path fill="#fff" d="M476.34 1557.62a3.18 3.18 0 0 0-1.43.07c-1.21.33-2.54 1.95-3.35 2.78l-.75.75-5.25 5.4-20.28 20.85a30655.6 30655.6 0 0 0-75.72 78.12c-93.03 96.34-185.24 193.43-279.31 288.75-.05.06-.05.17 0 .22.05.05.14.06.19 0a12940.1 12940.1 0 0 1 65.47-67.06c76.2-77.65 153.11-154.57 229.59-231.94 23.22-23.49 46.36-47.05 69.5-70.62l16.6-16.94 3.77-3.84.82-.85c3.99 2.2 7.91 4.5 11.87 6.75l25.6 14.53a38107.31 38107.31 0 0 0 290.72 163.38c26.85 14.95 53.71 29.89 80.53 44.91 6.84 3.83 13.69 7.65 20.53 11.5l1.72.96 3.43 1.91c.38.21 1.21.48 1.32.94.06.25-.17.6-.25.84l-.5 1.44-.91 2.72-3.1 9.03a43701.45 43701.45 0 0 1-56.62 163.97c15.38-44.2 30.78-88.38 46.28-132.53 3.95-11.25 7.91-22.48 11.88-33.72l3.22-9.19.5-1.37c.16-.48.41-1 .25-1.5-.24-.71-1.06-1-1.66-1.35-.57-.32-1.12-.67-1.69-1l-1.72-.97-1.68-.97-15.32-8.81a27460.08 27460.08 0 0 1-64.59-37.22 43183.12 43183.12 0 0 0-255.13-146.59 40907.64 40907.64 0 0 0-71.65-40.69c-5.69-3.22-11.37-6.46-17.06-9.69l-1.72-.97c-1.2-.67-2.64-1.73-4.1-2Z"/><path vectornator:shadowAngle="2.14" vectornator:shadowColor="#2b354e" vectornator:shadowOffset="13.53" vectornator:shadowOpacity="1" vectornator:shadowRadius="15.66" fill="#28334d" stroke="#2b354e" stroke-width="2.74" d="M739.26 551.74 1221 612.4c8.55 1.08 14.58 8.7 13.48 17.04l-126.96 957.22c-1.1 8.33-8.93 14.21-17.48 13.14l-481.75-60.67c-8.55-1.07-14.58-8.7-13.48-17.03l126.96-957.23c1.1-8.33 8.93-14.2 17.48-13.13Z" filter="url(#n)"/><path vectornator:shadowAngle="1.88" vectornator:shadowColor="#ffffff" vectornator:shadowOffset="0" vectornator:shadowOpacity="1" vectornator:shadowRadius="14.63" fill="#8cc2ee" fill-opacity=".5" d="m769.36 646.57 403.06 46.8c7.15.83 12.2 6.71 11.27 13.14l-106.21 738.41c-.93 6.42-7.47 10.96-14.63 10.13l-403.05-46.8c-7.15-.83-12.2-6.71-11.28-13.14l106.22-738.4c.92-6.43 7.47-10.97 14.62-10.14Z" filter="url(#o)"/><path fill="#28334d" stroke="#2b354e" stroke-width="2.74" d="M912.89 622.23 1052.71 638a7.52 7.52 0 0 1 6.57 8.33l-1.98 18.1a7.46 7.46 0 0 1-8.21 6.67l-139.82-15.76a7.52 7.52 0 0 1-6.57-8.34l1.98-18.1a7.46 7.46 0 0 1 8.21-6.67Z"/><path fill="#d0ac88" d="M1229.91 1318.41c31.59 47.57-29.59 93.18-85.4 127.35-55.8 34.17-119.67 54.69-137.81 9.32-18.15-45.37 81.27-112.26 81.27-112.26s110.35-71.99 141.94-24.41Z"/><path fill="#fff" fill-opacity=".67" d="M1196.25 1302.09c-11.92-.3-23.86 2.22-35.25 5.6-15.03 4.45-29.55 10.6-43.62 17.47a393.6 393.6 0 0 0-19.63 10.28 195.33 195.33 0 0 0-10.56 6.18 375.87 375.87 0 0 0-31.13 23.13c-10.61 8.79-20.76 18.18-29.87 28.53-2.65 3-5.21 6.1-7.63 9.28a129.44 129.44 0 0 0-5.59 7.97c-8.24 12.79-14.94 28.92-9.75 44.16a46.34 46.34 0 0 0 6.4 12.25 40.66 40.66 0 0 0 6.69 7.18c15.29 12.83 37.31 11.55 55.53 7.19 3.44-.82 6.82-1.75 10.19-2.81 29.86-9.42 56.92-26.02 82.56-43.66a408.45 408.45 0 0 0 29.75-22.28c8.36-6.93 16.41-14.32 23.57-22.5 9.76-11.15 18.51-24.73 20.25-39.62-1.97 16.05-12.32 30.34-23.28 41.75-16.35 17-36.4 30.51-56.38 42.87-22.13 13.7-45.09 26.44-69.72 35.06-3.89 1.37-7.81 2.6-11.78 3.69-3.21.88-6.45 1.66-9.72 2.31-16.17 3.24-35.87 3.92-48.62-8.37a35.88 35.88 0 0 1-5.38-6.59 37.51 37.51 0 0 1-4.9-11.1c-1.82-7.58-.27-15.51 2.5-22.65 4.6-11.9 12.46-22.46 20.71-32.07 9.92-11.53 21.01-22.06 32.57-31.93a338.14 338.14 0 0 1 24.62-19.38c2.95-2.08 6.08-3.95 9.16-5.84 5.58-3.43 11.24-6.7 17-9.81 14.47-7.83 29.53-14.82 45.22-19.85 9.28-2.98 18.88-5.3 28.62-6.06 4.84-.38 40.86 15.83 41.03 15.91-.01.04-.06.08-.03.12.94 1.56.52.89.94 1.56-.36-.96-.28-.67-.69-1.75-.05-.07-.14-.08-.22-.03-.17-.21-5.48-6.85-9.31-9.4-7.13-4.77-15.78-6.57-24.25-6.79Zm34.47 17.97c5.4 14.3 6.67 16.98 7.06 18.53-.2-1.3-.22-2.62-.53-3.9a45.82 45.82 0 0 0-3.94-10.31c-.78-1.5-1.44-2.47-2.59-4.32Zm7.06 18.53c.23 1.49.56 2.94.63 4.44-.05-.83.03-1.66-.07-2.5-.1-.91-.44-1.45-.56-1.94Zm.63 4.44.03 1.06c-.01-.22.04-.43.03-.65-.01-.14-.06-.27-.06-.41Zm.03 1.06Z"/><path fill="#d0ac88" d="M1250.24 881.8c42.61 34.78 5.32 89.07-31.13 132.03-36.46 42.97-84.28 75.72-114.69 39.82-30.4-35.91 32.57-117.76 32.57-117.76s70.63-88.86 113.25-54.09Z"/><path fill="#fff" fill-opacity=".67" d="M1227 873.69c-12.15.09-24.34 5.53-34.53 11.56-2.61 1.54-5.15 3.2-7.66 4.9-11.85 8.07-22.75 17.6-32.9 27.7-3.55 3.52-7 7.14-10.38 10.84-1.9 2.08-3.82 4.17-5.59 6.37a196.26 196.26 0 0 0-7.06 9.44 293.4 293.4 0 0 0-11.13 16.84c-6.86 11.17-13.06 22.85-17.69 35.13a135.49 135.49 0 0 0-2.81 8.31c-4.71 15.57-6.89 34.17 2.97 48.28a47.1 47.1 0 0 0 19.56 15.88c17.81 7.39 37.25.27 52.69-9.32 2.66-1.65 5.24-3.41 7.78-5.24 9.53-6.91 18.24-14.89 26.34-23.41a321.93 321.93 0 0 0 19.53-22.85c4.46-5.65 8.8-11.4 12.97-17.28 3.1-4.36 6.11-8.76 8.97-13.28a220.6 220.6 0 0 0 7.1-11.93 166.4 166.4 0 0 0 4.56-8.94c7.54-15.93 12.89-34.72 7.06-51.9 6.09 18.3-.76 38.13-9.5 54.37a163.78 163.78 0 0 1-5.06 8.72 213.93 213.93 0 0 1-6.69 10.09 286.2 286.2 0 0 1-9.53 12.81 437.85 437.85 0 0 1-12.53 15.16 382.14 382.14 0 0 1-16.5 18.12 227.78 227.78 0 0 1-23.59 21.19 156.66 156.66 0 0 1-8.85 6.34 119.15 119.15 0 0 1-7.53 4.66c-12.41 7.01-27.55 12.59-41.81 8.22a35.63 35.63 0 0 1-6.13-2.53 39.18 39.18 0 0 1-7.75-5.47 38.45 38.45 0 0 1-7.65-9.03c-3.7-6.31-4.84-13.75-4.63-20.97.31-10.79 3.32-21.42 7.09-31.47 4.47-11.88 10.2-23.3 16.54-34.28 4.74-8.23 9.83-16.3 15.4-24 1.63-2.25 3.47-4.35 5.25-6.47 3.52-4.18 7.18-8.25 10.94-12.22 9.89-10.43 20.57-20.24 32.41-28.44 2.47-1.71 5-3.33 7.59-4.87 14.4-8.56 55.5-2.96 55.87-2.9.01.03-.03.06 0 .09 1.51 1.36.8.75 1.5 1.37-.68-.86-.51-.62-1.28-1.6-.06-.05-.16-.03-.22.04-.22-.15-6.98-4.81-11.06-6.19a36.67 36.67 0 0 0-12.06-1.84Zm24.62 9.6c10.15 12.76 12.01 14.72 12.79 16.05-.39-.78-.63-1.64-1.07-2.4a47.66 47.66 0 0 0-7.12-9.5c-1.43-1.49-2.45-2.27-4.6-4.16Zm12.79 16.05c.78 1.6 1.6 3.2 2.18 4.88-.42-1.2-.74-2.39-1.28-3.56-.26-.57-.71-.99-.9-1.32Zm2.18 4.88.19.56c-.03-.08-.03-.17-.06-.25l-.13-.31Z"/><path fill="none" stroke="#2b354e" stroke-width="2.74" d="m1413.14 538.54 4.15 436.4m69.47-436.4 4.15 436.4m-140.9-334.6h211.89m-211.89 118.15h211.89m-211.89 105.96h211.89"/><path fill="#420b75" fill-opacity=".34" d="m1708.64 1273.21 26.02-.15s-7.84-51.8 22.2-53.79c30.04-1.99 28.71 22.56 28.71 22.56l24.37.09s3.24-47.9-53.68-45.62c-56.91 2.28-47.62 76.91-47.62 76.91Z"/><path fill="#fff" d="M1763.12 1194.59c-12.75-.42-25.36 1.76-35.56 9.91-9.23 7.38-14.77 18.26-17.78 29.5-2.62 9.77-3.55 19.96-3.37 30.06.03 2.19.11 4.38.28 6.56.05.73.14 1.47.22 2.19l.06.6c.05.39.27.68.53.93.36.36.8.63 1.34.57.07-.01.1-.08.16-.1.04-.03.12-.09.44 0 .48.14 1 .01 1.5 0l2.65-.03 6.44-.03 11.85-.06h1.4c.26 0 1.81.04 1.94-.13.41-.53.69-1.17 1.03-1.75.06-.1-.08-.62-.09-.75-.08-.59-.16-1.16-.22-1.75a116.2 116.2 0 0 1-.6-10.75c-.01-2.53.07-5.09.25-7.62.16-2.15.38-4.28.72-6.41 1.46-9.08 5.14-19.58 14.41-23.28 2.84-1.13 5.84-1.43 8.87-1.47 6.25-.08 12.92 1.08 17.75 5.31a18.37 18.37 0 0 1 4.1 5.22 22.24 22.24 0 0 1 2.47 9.19c.01.28-.07 1.06.03 1.25.25.49.41 1 .75 1.44.12.15.37.15.56.22.41.14 1.01.06 1.44.06h3.43l4.57.03 6.09.03h3.06c1.53.01 3.04.03 4.57.03.26 0 1.86.08 2-.06.44-.45.79-.98 1.18-1.47.09-.11.04-1.4.03-1.56v-.97c-.01-.54-.06-1.11-.09-1.66a51.11 51.11 0 0 0-.97-7.28c-2.41-11.76-8.84-22.12-19.15-28.44-8.46-5.17-18.48-7.2-28.29-7.53Zm-3.37 3.32c14.11-.07 28.86 3.25 38.5 14.28 4.41 5.04 7.3 11.28 8.81 17.78a43.96 43.96 0 0 1 1.19 10.31c-.45 0-.9-.03-1.34-.03h-6.1l-10.65-.03-1.54-.03h-1.46c-.03-.43-.05-.86-.1-1.28a24.37 24.37 0 0 0-4.75-12.29c-6.16-7.96-17.05-9.85-26.56-8.87-2.14.22-4.25.7-6.25 1.5-11.54 4.61-15.53 17.83-16.81 29.13a82.87 82.87 0 0 0-.41 4.96 107.22 107.22 0 0 0 .53 18v.13h-2.34l-1.41.03-9.9.03-7.54.06h-1.43c-.05-.57-.12-1.14-.16-1.71a117.24 117.24 0 0 1 .75-23.54c2.01-14.89 7.42-30.64 19.91-39.96a38.73 38.73 0 0 1 6.62-4c7.02-3.34 14.73-4.44 22.44-4.47Z"/><path fill="#f1d244" fill-opacity=".54" stroke="#2b354e" stroke-width="2.74" d="m295.48 643.45 80.21 22.28a7.43 7.43 0 0 1 5.18 9.15l-38.2 137.5a7.43 7.43 0 0 1-9.15 5.17l-80.2-22.28a7.43 7.43 0 0 1-5.18-9.15l38.2-137.5a7.43 7.43 0 0 1 9.14-5.17Z"/><path fill="#f1d244" fill-opacity=".75" stroke="#fff" stroke-width="2.74" d="m163.34 677.94 105.94-26.97c5.23-1.33 10.63 1.49 12.08 6.28l50.3 166.89c1.45 4.8-1.62 9.77-6.84 11.1L218.88 862.2c-5.22 1.33-10.63-1.48-12.07-6.28l-50.3-166.88c-1.45-4.8 1.61-9.77 6.83-11.1Z"/><path fill="#303d5c" fill-opacity=".52" d="m826.62 846.4 221.41 25.59c18.73 2.16 32.32 20.29 30.35 40.48l-23.55 242.11c-1.97 20.2-18.74 34.82-37.47 32.65l-221.41-25.58c-18.73-2.17-32.32-20.3-30.35-40.49l23.55-242.11c1.97-20.2 18.74-34.82 37.47-32.65Z"/><path vectornator:shadowAngle=".42" vectornator:shadowColor="#161b28" vectornator:shadowOffset="10.76" vectornator:shadowOpacity="1" vectornator:shadowRadius="4.87" fill="#1f2739" fill-opacity=".93" d="m794.2 828.42 294.66 38.52c5.34.7 9.1 5.59 8.4 10.93l-41.45 317.05a9.76 9.76 0 0 1-10.93 8.41l-294.66-38.53a9.74 9.74 0 0 1-8.4-10.92l41.45-317.06a9.75 9.75 0 0 1 10.92-8.4Z" filter="url(#p)"/><path fill="#d0ac88" d="M1231.13 1114.14c28.76 51.48-25.07 102.35-74.27 140.63-49.2 38.28-105.75 61.78-122.52 12.49-16.77-49.29 70.8-124.06 70.8-124.06s97.22-80.54 125.99-29.06Z"/><path fill="#fff" fill-opacity=".67" d="M1200.47 1096.88c-7.44-.02-15.07 1.57-21.91 3.65a157.55 157.55 0 0 0-16.06 6.06 203.08 203.08 0 0 0-10.53 5.03 296.86 296.86 0 0 0-31.72 19.04c-5.4 3.68-10.87 7.42-15.94 11.56a245.19 245.19 0 0 0-10.81 9.56 376.95 376.95 0 0 0-17.88 17.66c-11.79 12.47-22.86 25.89-31.71 40.65-10.53 17.57-19.37 39.37-11.91 59.75a53.88 53.88 0 0 0 5.5 11.1 40.02 40.02 0 0 0 7.22 8.31 35.52 35.52 0 0 0 6.4 4.41c15.25 8.13 34.06 4.13 49.32-1.82a142.5 142.5 0 0 0 9.25-4c3.71-1.75 7.35-3.64 10.93-5.65 19.63-11 37.33-25.08 54.26-39.81a363.92 363.92 0 0 0 28.74-27.63c8.05-8.73 15.62-18.02 21.85-28.16 8.61-14.01 14.85-30.11 13.59-46.81a14.87 14.87 0 0 0-.56-3.56c2.58 19.68-5.43 38.54-16.62 54.44-8.8 12.48-19.54 23.53-30.85 33.75-11.76 10.62-24.27 20.44-37 29.87a302.86 302.86 0 0 1-31.34 20.56 198.12 198.12 0 0 1-12.35 6.44 160.75 160.75 0 0 1-10.53 4.56 106.53 106.53 0 0 1-8.65 3c-12.79 3.83-28.2 5.73-39.85-2.28a30.66 30.66 0 0 1-5-4.31 38.82 38.82 0 0 1-6.28-9.25 44.93 44.93 0 0 1-4.25-12.53c-1.34-7.97-.11-16.17 2.19-23.85 3.16-10.52 8.32-20.43 14.19-29.68 8.75-13.82 18.95-26.64 29.93-38.75a320.37 320.37 0 0 1 23.88-24.03c2.03-1.82 4.21-3.47 6.34-5.16 3.74-2.95 7.57-5.82 11.44-8.59a257.55 257.55 0 0 1 32.03-19.85c4.02-2.06 8.09-3.99 12.25-5.75a121.8 121.8 0 0 1 8.88-3.37c14.01-4.7 31.52-7.65 44.43 1.53-6.19-4.42-13.44-6.08-20.87-6.09Zm20.87 6.09c1.71 1.21 9.59 10.9 9.72 11.06-.05.05-.1.12-.06.19.91 1.85.45.94.91 1.84-.35-1.11-.28-.74-.66-2-.04-.07-.11-.1-.19-.06-.09-.15-1.75-2.94-2.81-4.31a32.9 32.9 0 0 0-6.87-6.72h-.04Zm10.57 13.09c4.34 14.08 6.06 18.4 6.59 20.16-.12-.94-.14-1.87-.31-2.81a56.83 56.83 0 0 0-3.28-11.22c-.87-2.12-1.48-3.14-3-6.13Z"/><path fill="none" stroke="#fff" stroke-width="1.2" d="m807 894.69 33.7-29.65m190.27 25.33 25.69 37.87m-274.89 165.23 28.34 43.05m184.41 25.23 34.94-33.26"/><path fill="#303d5c" fill-opacity=".52" stroke="#8cc2ee" stroke-opacity=".74" stroke-width="1.2" d="m814.35 904.62 226.61 28.46m-237.7 64.17 226.6 28.46m-223.74-57.77 226.6 28.46m-221.88-59.8 112.48 14.13 114.12 14.33m-191.88-86.22-26.53 244.39m-21.93-64.27 226.6 28.46m-223.72-59.47 226.61 28.46m-232.22 32.31 226.6 28.45m-63.46-224.41-26.53 244.4m-2.76-248.07-26.53 244.39m-.46-247.78-26.54 244.39m-1.82-247.96-26.53 244.4m139.49-230.21-26.53 244.39m56.22-240.91-26.53 244.4"/><g vectornator:shadowAngle=".37" vectornator:shadowColor="#ffffff" vectornator:shadowOffset="0" vectornator:shadowOpacity="1" vectornator:shadowRadius="13.61" filter="url(#q)"><path fill="#fff" d="M929.13 892.9a39.58 39.58 0 0 0-13.07 3.48c-6.68 2.95-12.81 7.17-18.43 11.8a123.4 123.4 0 0 0-21.7 23.04c-9.28 12.92-14.66 28.37-17.9 43.84a191.04 191.04 0 0 0-3.19 55.22c1.24 14.56 4.07 29.09 9.16 42.81 5.43 14.62 13.68 28.95 26.38 38.38a51.62 51.62 0 0 0 11 6.25c1.38.57 2.78 1.09 4.25 1.44 8.06 1.93 16.08-1.14 23.12-4.91a62.06 62.06 0 0 0 10.94-7.22c8.83-7.47 15.34-17.42 20.25-27.81 4.76-10.1 8.1-20.85 10.4-31.75a180.09 180.09 0 0 0 3.85-41.06c-.32-15.07-2.45-30.28-7.47-44.53-4.04-11.47-10.1-22.55-19.19-30.79-4.34-3.94-9.43-7.4-15.1-9.12a25.6 25.6 0 0 0-6.5-1.13c-14.22-.53-24.9 11.32-31.77 22.44a89.64 89.64 0 0 0-2.6 4.5c-8.01 14.84-12.76 31.52-15.34 48.13-2.08 13.37-2.83 27.17-.97 40.62 1.82 13.19 6.63 28.9 19.9 34.69 1.88.82 3.85 1.37 5.88 1.62 11.32 1.44 20.73-6.94 26.97-15.4a72.1 72.1 0 0 0 3.31-4.91c6.2-10.04 10.38-21.37 12.88-32.87 1.9-8.78 2.87-17.87 2.18-26.85-.76-10-3.76-20.22-11.43-27.12a20.57 20.57 0 0 0-4.63-3.22 14.3 14.3 0 0 0-3.93-1.28c-8.13-1.37-14.29 5.46-17.97 11.81a61.47 61.47 0 0 0-6.03 15.1c-2.4 9.02-3.5 18.79-1.97 28.06a31.29 31.29 0 0 0 3.78 11.06 12.01 12.01 0 0 0 3.15 3.66c.65.46 1.39.81 2.16 1 4.88 1.18 8.31-4.48 10.06-8.13.4-.82.76-1.62 1.1-2.47a53.06 53.06 0 0 0 2.38-7.78c.42-1.94.76-3.92.87-5.91.12-2.25.03-6.05-2.94-6.4a3.1 3.1 0 0 0-1.1.06c-.32.08-.64.21-.93.37-2.22 1.21-3.73 3.79-5.03 5.85a1.88 1.88 0 0 0 3.18 2 18.66 18.66 0 0 1 3.03-3.88c.09.91.06 1.85-.03 2.75a33.4 33.4 0 0 1-.47 3.19 47.81 47.81 0 0 1-1.21 4.78 45.01 45.01 0 0 1-2.22 5.81c-.24.49-.51 1.05-.78 1.54-1.05 1.89-3.54 6.14-6.13 3.96a7.36 7.36 0 0 1-1.19-1.34c-3.32-4.56-4.31-10.76-4.56-16.22a69.02 69.02 0 0 1 1.97-19.03 62 62 0 0 1 5.28-14.6c3.09-5.85 9.02-13.86 16.69-11.09a13.6 13.6 0 0 1 3.65 2.07c8.3 6.31 11.05 17.16 11.6 27.09.53 9.75-.84 19.61-3.31 29.03-2.49 9.45-6.14 18.7-11.28 27.03a67.47 67.47 0 0 1-3.13 4.66c-5.55 7.53-14.28 15.7-24.47 13.78a17.86 17.86 0 0 1-3.9-1.22c-10.47-4.56-14.87-16.52-16.91-26.94-.38-1.92-.7-3.84-.94-5.78-1.82-14.31-.73-29.04 1.88-43.18 2.69-14.63 7.07-29.2 14.15-42.32a88.13 88.13 0 0 1 3.53-5.97c6.14-9.5 15.77-19.91 28.13-19.03 1.66.12 3.3.46 4.9.94 5.7 1.73 10.78 5.43 15 9.53 8.18 7.95 13.61 18.37 17.25 29.06 5.15 15.1 7.08 31.23 6.97 47.13a177.44 177.44 0 0 1-4.28 37.78 139 139 0 0 1-9.65 28.69c-4.69 9.92-10.85 19.45-19.28 26.59a60.83 60.83 0 0 1-11.44 7.38c-5.94 3.07-12.72 5.64-19.47 4.03a32.46 32.46 0 0 1-6.78-2.69 50.44 50.44 0 0 1-9.85-6.56c-10.9-9.23-18.04-22.28-22.84-35.56-4.75-13.14-7.4-26.98-8.6-40.88a187.43 187.43 0 0 1 3.1-54.19c3.14-14.98 8.35-30 17.34-42.53a119.64 119.64 0 0 1 19.44-21c6.3-5.38 13.2-10.19 20.9-13.34 6.72-2.75 14.7-3.91 21.29-.22 1.9 1.06 3.5 2.46 5 4.03a1.8 1.8 0 0 0 2.53.06c.71-.67.74-1.79.06-2.5a25.05 25.05 0 0 0-5.84-4.68 23.1 23.1 0 0 0-13.1-2.72Z"/></g><path vectornator:shadowAngle="1.88" vectornator:shadowColor="#2b354e" vectornator:shadowOffset="0" vectornator:shadowOpacity="1" vectornator:shadowRadius="10.01" fill="#2b354e" stroke="#2b354e" stroke-width="2.74" d="m757.26 1250.53 267.97 35.36a4.8 4.8 0 0 1 4.13 5.38l-4.16 31.49a4.8 4.8 0 0 1-5.38 4.12l-267.97-35.36a4.79 4.79 0 0 1-4.13-5.38l4.16-31.49a4.8 4.8 0 0 1 5.38-4.12Z" filter="url(#r)"/><path fill="#420b75" fill-opacity=".34" d="M1628.59 1283.08h110.05c7.92 0 14.33 6.42 14.33 14.33v99.48c0 7.92-6.41 14.34-14.33 14.34h-110.05a14.34 14.34 0 0 1-14.33-14.34v-99.48c0-7.91 6.42-14.33 14.33-14.33Z"/><path fill="#fff" d="M1628.53 1281.25c-.22.17-.28.18-.5.34-.3.12-.56.25-.75.5-13.78 10.18-12.46 4.39-14.28 11.03-.67 2.44-.56 4.91-.56 7.41v93.25c0 2.13-.09 4.28.34 6.38a16.23 16.23 0 0 0 9.53 11.62c1.65.7 3.41 1.1 5.19 1.22 3.19.21 6.49.03 9.69.03h18.9c18.92 0 37.84-.02 56.75-.03h20.63c2.43 0 4.93.17 7.34-.16 2.09-.28 4.15-.96 5.97-2.03a16.05 16.05 0 0 0 7.81-11.72c.31-2.25.16-4.61.16-6.87v-9.31l-.03-71.5v-9.35c0-2.26.15-4.59-.16-6.84a16.12 16.12 0 0 0-13.75-13.72c-1.29-.18-2.57-.16-3.87-.16h-108.16c-.09-.01-.15-.09-.25-.09Zm.35 3.56h104.59c2.26 0 4.62-.18 6.87.13a12.64 12.64 0 0 1 10.78 10.78c.29 2.09.1 4.24.1 6.34v91.72c0 1.6.09 3.23-.13 4.81a12.63 12.63 0 0 1-11.59 10.85c-1.43.09-2.88 0-4.31 0h-84.25l-17.19-.03c-2.26 0-4.6.21-6.84-.1a12.52 12.52 0 0 1-10.72-10.72c-.29-2.08-.13-4.27-.13-6.37v-15.53l.03-68.41v-7.75c0-1.59-.12-3.23.1-4.81a12.61 12.61 0 0 1 4.75-8.22c.85-.66.01.01 7.72-2.59.08-.01.13-.08.22-.1Z"/><path fill="#420b75" fill-opacity=".34" d="M1789.04 1392.2c.19 0 .34.16.34.34v.78c0 .18-.15.33-.34.33a.34.34 0 0 1-.34-.33v-.78c0-.18.15-.34.34-.34Z"/><path fill="none" stroke="#fff" stroke-width="2.74" d="M224.33 664.05 241.76 720m13.49-21.25-12.08-40.62"/><path fill="none" stroke="#fff" stroke-width="9.31" d="m575.74 263.81-91.27-64.86-92.98 66.74 20.21-.05 72.6-49.03 76.2 49.82.18 15.74h-74.6l-76.92.7.03 34.06 77.25-16.4 74.6 13.8.36 31.83-75.67-30.25-76.4 16.44-.14 32.07 75.47-27.82 76.31 28.92V389l-152.72-.19"/><path fill="#fff" stroke="#fff" stroke-width="2.74" d="M309.69 1281.77c0-5.75 4.68-10.41 10.45-10.41s10.45 4.66 10.45 10.41c0 5.74-4.68 10.4-10.45 10.4a10.43 10.43 0 0 1-10.45-10.4Z"/><path fill="none" stroke="#fff" stroke-width="6.34" d="M293.45 1257.23s6.06-20.24 25.58-21.34c19.53-1.09 27.88 23.15 27.88 23.15"/><path fill="none" stroke="#fff" stroke-width="6.34" d="M274.02 1236.44s9.87-32.88 45.9-33c36.02-.11 46.76 32.84 46.76 32.84"/><path fill="none" stroke="#fff" stroke-width="6.34" d="M257.75 1214.36s21-41.59 62.72-41.15c41.71.44 65.64 43.58 65.64 43.58"/><path fill="none" stroke="#fff" stroke-width="6.34" d="M235.63 1198.67s28.78-57.59 84.61-56.8c55.84.78 85.19 54.9 85.19 54.9"/><path vectornator:shadowAngle=".37" vectornator:shadowColor="#ffffff" vectornator:shadowOffset="0" vectornator:shadowOpacity="1" vectornator:shadowRadius="13.61" fill="none" stroke="#fff" stroke-dasharray="11 14 15 9" stroke-width="4.92" d="m1357.81 959.9 2.92 589.3" filter="url(#s)"/><path vectornator:shadowAngle=".37" vectornator:shadowColor="#ffffff" vectornator:shadowOffset="0" vectornator:shadowOpacity="1" vectornator:shadowRadius="13.61" fill="none" stroke="#fff" stroke-dasharray="11 14 15 9" stroke-width="4.92" d="m1148.04 1281.28 385.22-2.88" filter="url(#t)"/><path vectornator:shadowAngle=".37" vectornator:shadowColor="#ffffff" vectornator:shadowOffset="0" vectornator:shadowOpacity="1" vectornator:shadowRadius="13.61" fill="none" stroke="#fff" stroke-dasharray="11 14 15 9" stroke-width="4.92" d="m456.68 1211.54 218.22.17" filter="url(#u)"/><path vectornator:shadowAngle=".37" vectornator:shadowColor="#ffffff" vectornator:shadowOffset="0" vectornator:shadowOpacity="1" vectornator:shadowRadius="13.61" fill="none" stroke="#fff" stroke-dasharray="11 14 15 9" stroke-width="4.92" d="m433.03 721.61 881.08 1.71" filter="url(#v)"/><path vectornator:shadowAngle=".37" vectornator:shadowColor="#ffffff" vectornator:shadowOffset="0" vectornator:shadowOpacity="1" vectornator:shadowRadius="13.61" fill="none" stroke="#fff" stroke-dasharray="11 14 15 9" stroke-width="4.92" d="m939.99 426.78-1.21 469.2" filter="url(#w)"/><path vectornator:shadowAngle=".37" vectornator:shadowColor="#ffffff" vectornator:shadowOffset="0" vectornator:shadowOpacity="1" vectornator:shadowRadius="13.61" fill="none" stroke="#fff" stroke-dasharray="11 14 15 9" stroke-width="4.92" d="m619.88 285.23 715.81-.73" filter="url(#x)"/><path vectornator:shadowAngle=".37" vectornator:shadowColor="#ffffff" vectornator:shadowOffset="0" vectornator:shadowOpacity="1" vectornator:shadowRadius="13.61" fill="none" stroke="#fff" stroke-dasharray="11 14 15 9" stroke-width="4.92" d="m483.31 432.89-.06 288.82" filter="url(#y)"/><path vectornator:shadowAngle=".37" vectornator:shadowColor="#ffffff" vectornator:shadowOffset="0" vectornator:shadowOpacity="1" vectornator:shadowRadius="13.61" fill="none" stroke="#fff" stroke-dasharray="11 14 15 9" stroke-width="4.92" d="m1670.41 425.49-11.47 721" filter="url(#z)"/><path vectornator:shadowAngle=".37" vectornator:shadowColor="#ffffff" vectornator:shadowOffset="0" vectornator:shadowOpacity="1" vectornator:shadowRadius="13.61" fill="none" stroke="#fff" stroke-dasharray="11 14 15 9" stroke-width="4.92" d="m1444.39 428.1 226-1.26" filter="url(#A)"/><g vectornator:shadowAngle=".37" vectornator:shadowColor="#ffffff" vectornator:shadowOffset="0" vectornator:shadowOpacity="1" vectornator:shadowRadius="13.61" filter="url(#B)"><path fill="#fff" d="M1682.47 1315.69a10.67 10.67 0 0 0-7.78 3.34c-2.32 2.41-.5.9-2.57 11.44-.53.71-.82 1.55-.46 2.44 1.65 3.07 1.17 2.26 1.65 3.09a454.9 454.9 0 0 0 4.19 7.09l2.47 4.07a515.5 515.5 0 0 1-18.28 27.37c-.81 1.15-1.62 2.27-2.44 3.41l-.63.87c.25 1.22.24 2.51.72 3.66.14.31.65.24.97.34.49.16 1.16.06 1.66.07h1.25l4.53.03 27.56.15 5.75.03h1.13c.45.01 1.02.09 1.47-.03.27-.07.72.01.84-.25.56-1.15.71-2.43 1.06-3.65l-.56-.91-1.81-2.94-3.5-5.72c-4.31-7.04-8.6-14.11-12.88-21.18l-.87-1.44c1.99-3.29 4-6.56 5.78-9.97a72.8 72.8 0 0 0 2.34-4.88c.41-.95.82-1.9.97-2.93.32-2.11-.18-4.29-1.09-6.19a12.95 12.95 0 0 0-11.47-7.31Zm-.78 5c3.43-.44 6.74 1.77 8 4.9.37.94.67 2.12.4 3.13-.19.73-.59 1.43-.9 2.12a70.18 70.18 0 0 1-1.44 3.04c-1.4 2.74-2.96 5.44-4.53 8.09l-.16.22-3.15-5.25c-.78-1.31-1.53-2.59-2.29-3.91-.3-.53.01-.01-1.12-2.06-.02-.05-.07-.05-.09-.09-.3-3.63-.52-2.67-.29-4 .52-2.89 2.47-5.8 5.57-6.19Zm1.22 31.31c2.77 4.57 5.55 9.16 8.34 13.72l6.69 10.94.75 1.25-4.5-.03-22.57-.07-6.03-.03 1.82-2.56a697.33 697.33 0 0 0 15.5-23.22Z"/></g><path fill="#420b75" fill-opacity=".34" d="M1204.24 1658.76c0-34.8 28.33-63 63.27-63 34.95 0 63.27 28.2 63.27 63 0 34.79-28.32 63-63.27 63-34.94 0-63.27-28.21-63.27-63Z"/><path fill="none" stroke="#fff" stroke-width="2.74" d="M1210.5 1658.45c0-31.25 25.15-56.59 56.18-56.59s56.18 25.34 56.18 56.59c0 31.26-25.15 56.59-56.18 56.59s-56.18-25.33-56.18-56.59Zm49.85 52.59-.31 20.93m-6.51 3.57c0-4.97 3.57-9 7.98-9s7.99 4.03 7.99 9c0 4.96-3.58 8.99-7.99 8.99s-7.98-4.03-7.98-8.99Z"/><path fill="none" stroke="#fff" stroke-width="3.94" d="M1290.94 1773.13c0-18.2 15.81-32.96 35.31-32.96s35.31 14.76 35.31 32.96c0 18.2-15.81 32.96-35.31 32.96s-35.31-14.76-35.31-32.96Z"/><path fill="none" stroke="#fff" stroke-width="2.74" d="m1264.4 1737.82 43.16 46.87m-4.15.28a4.12 4.12 0 0 1 4.17-4.07c2.3 0 4.16 1.82 4.16 4.07a4.11 4.11 0 0 1-4.16 4.07 4.12 4.12 0 0 1-4.17-4.07Zm99.61-110.84-66.54 67.45m5.66 2.11 56.69-58.38"/><path fill="none" stroke="#fff" stroke-width="3.43" d="m1356.5 1756.12 22.56-23.03.14-6.53 5.84-.23.45-8.38 7.57-.25-1.26-8.33 8.02-.97-2.29-9.87 8.2-.1-.83-3.71 6.2-3.45.12-5.96 4.05-3.09.87-21.76-13.38 13.94"/><path fill="none" stroke="#fff" stroke-width="2.74" d="m1376.91 1741.86-18.06 18.59m23.49-24.29-2.91 2.99m23.4-58.13 8.46-8.62m-108.5 87.62s2.56-8.29 16.43-12.48c13.87-4.2 22.86 4.35 22.86 4.35"/><path vectornator:shadowAngle=".37" vectornator:shadowColor="#ffffff" vectornator:shadowOffset="0" vectornator:shadowOpacity="1" vectornator:shadowRadius="13.61" fill="none" stroke="#fff" stroke-dasharray="11 14 15 9" stroke-width="4.92" d="m1219.68 1713.38 17.27-17.05" filter="url(#C)"/><path vectornator:shadowAngle=".37" vectornator:shadowColor="#ffffff" vectornator:shadowOffset="0" vectornator:shadowOpacity="1" vectornator:shadowRadius="13.61" fill="none" stroke="#fff" stroke-dasharray="11 14 15 9" stroke-width="4.92" d="m1188.42 1685.62 34.1-11.81" filter="url(#D)"/><path vectornator:shadowAngle=".37" vectornator:shadowColor="#ffffff" vectornator:shadowOffset="0" vectornator:shadowOpacity="1" vectornator:shadowRadius="13.61" fill="none" stroke="#fff" stroke-dasharray="11 14 15 9" stroke-width="4.92" d="m1193.67 1642.55 23.83 5.9" filter="url(#E)"/><path vectornator:shadowAngle=".37" vectornator:shadowColor="#ffffff" vectornator:shadowOffset="0" vectornator:shadowOpacity="1" vectornator:shadowRadius="13.61" fill="none" stroke="#fff" stroke-dasharray="11 14 15 9" stroke-width="4.92" d="m1207.88 1593.37 19.59 24.56" filter="url(#F)"/><path vectornator:shadowAngle=".37" vectornator:shadowColor="#ffffff" vectornator:shadowOffset="0" vectornator:shadowOpacity="1" vectornator:shadowRadius="13.61" fill="none" stroke="#fff" stroke-dasharray="11 14 15 9" stroke-width="4.92" d="m1252.47 1585.28 3.35 17.64" filter="url(#G)"/><path vectornator:shadowAngle=".37" vectornator:shadowColor="#ffffff" vectornator:shadowOffset="0" vectornator:shadowOpacity="1" vectornator:shadowRadius="13.61" fill="none" stroke="#fff" stroke-dasharray="11 14 15 9" stroke-width="4.92" d="m1294.44 1564.73-12.67 47.44" filter="url(#H)"/><path vectornator:shadowAngle=".37" vectornator:shadowColor="#ffffff" vectornator:shadowOffset="0" vectornator:shadowOpacity="1" vectornator:shadowRadius="13.61" fill="none" stroke="#fff" stroke-dasharray="11 14 15 9" stroke-width="4.92" d="m1316.09 1605.39-10.53 12.22" filter="url(#I)"/><path vectornator:shadowAngle=".37" vectornator:shadowColor="#ffffff" vectornator:shadowOffset="0" vectornator:shadowOpacity="1" vectornator:shadowRadius="13.61" fill="none" stroke="#fff" stroke-dasharray="11 14 15 9" stroke-width="4.92" d="m1290.73 1702.23 8.32 11.15" filter="url(#J)"/><path vectornator:shadowAngle=".37" vectornator:shadowColor="#ffffff" vectornator:shadowOffset="0" vectornator:shadowOpacity="1" vectornator:shadowRadius="13.61" fill="none" stroke="#fff" stroke-dasharray="11 14 15 9" stroke-width="4.92" d="m1305.81 1685.62 29.73 17.05" filter="url(#K)"/><path vectornator:shadowAngle=".37" vectornator:shadowColor="#ffffff" vectornator:shadowOffset="0" vectornator:shadowOpacity="1" vectornator:shadowRadius="13.61" fill="none" stroke="#fff" stroke-dasharray="11 14 15 9" stroke-width="4.92" d="m1315.65 1656.54 31.04-.87" filter="url(#L)"/><path vectornator:shadowAngle=".37" vectornator:shadowColor="#ffffff" vectornator:shadowOffset="0" vectornator:shadowOpacity="1" vectornator:shadowRadius="13.61" fill="none" stroke="#fff" stroke-dasharray="11 14 15 9" stroke-width="4.92" d="m135.04 740.48 36.88-.3" filter="url(#M)"/><path vectornator:shadowAngle=".37" vectornator:shadowColor="#ffffff" vectornator:shadowOffset="0" vectornator:shadowOpacity="1" vectornator:shadowRadius="13.61" fill="none" stroke="#fff" stroke-dasharray="11 14 15 9" stroke-width="4.92" d="m185.88 786.5-27.88.91" filter="url(#N)"/><path vectornator:shadowAngle=".37" vectornator:shadowColor="#ffffff" vectornator:shadowOffset="0" vectornator:shadowOpacity="1" vectornator:shadowRadius="13.61" fill="none" stroke="#fff" stroke-dasharray="11 14 15 9" stroke-width="4.92" d="m289.2 683.25 37.57-.7" filter="url(#O)"/><g vectornator:shadowAngle=".37" vectornator:shadowColor="#ffffff" vectornator:shadowOffset="0" vectornator:shadowOpacity="1" vectornator:shadowRadius="13.61" filter="url(#P)"><path fill="#fff" d="M487.28 1489.28c-1.08-.11-2.2-.06-3.28.13-2.95.5-5.73 1.83-8.31 3.31a72.32 72.32 0 0 0-10.35 7.44 243.4 243.4 0 0 0-19.15 18.31c-7.43 7.76-14.6 15.74-21.94 23.59a450.39 450.39 0 0 1-5.72 6.03c1.95-1.97 3.97-3.87 5.88-5.87 7.4-7.78 14.67-15.67 22.21-23.31 5.85-5.93 11.86-11.75 18.32-17a75.35 75.35 0 0 1 11.44-7.97 25.23 25.23 0 0 1 7.09-2.75c2.26-.45 4.7-.38 6.69.9.38.25.89.59 1.15.97.55.78.48 2.01.44 2.91a33.4 33.4 0 0 1-.9 5.91c-1.62 7.16-4.08 14.12-6.54 21.03-5.54 15.56-11.7 30.89-17.37 46.4a409.7 409.7 0 0 0-7.69 22.63c-1.79 5.93-3.6 12.09-4 18.31-.18 2.92.02 6 1.97 8.34 4.6 5.55 12.76 3.68 18.6 1.53a59.3 59.3 0 0 0 3.37-1.37 90.3 90.3 0 0 0 8.37-4.19c19.19-10.56 36.3-24.43 54.72-36.18 1.45-.93 2.9-1.81 4.38-2.69a73.57 73.57 0 0 1 8.34-4.44c3.3-1.44 6.34-2.28 9.75-.5 4.86 2.53 5.32 9.86 5.28 14.63 0 .77-.05 1.69-.1 2.46a74.8 74.8 0 0 1-.8 8.1c-2.8 19.03-9.47 37.23-14.2 55.81-1.21 4.8-2.55 9.82-2.59 14.81-.01 2.1.28 4.46 1.82 6.03 1.27 1.3 3.03 1.54 4.75 1.79 1.15.16 2.33.25 3.5.28 7.3.15 14.23-2.55 20.37-6.32 5.17-3.17 9.89-7.09 14.4-11.12 4.35-3.87 8.55-7.89 12.82-11.84 2.36-2.2 4.8-4.26 7.25-6.35.89-.75 1.76-1.57 2.69-2.28.86-.67 1.82-1.25 2.72-1.87 1.53-1.06 3.02-2.19 4.59-3.19 5.15-3.29 11.47-5.41 17.63-5 2.92.19 5.82.97 8.53 2.09 1.7.71 3.34 1.59 4.8 2.72.9.68 1.7 1.45 2.41 2.31 5.34 6.42 3.33 15.94 1.7 23.31l-1 4.44a127.6 127.6 0 0 0-1.2 5.75c-1 5.66-1.62 12.42 2.6 16.97 2.26 2.44 5.4 4.16 8.5 5.28 6.63 2.41 13.96 2.47 20.9 1.85a130.3 130.3 0 0 0 20.63-3.82 327.72 327.72 0 0 0 25.63-7.9c6.69-2.31 13.33-4.84 20.12-6.85-6.8 2-13.43 4.49-20.13 6.78-9.2 3.16-18.51 6.14-28 8.38a117.13 117.13 0 0 1-20.46 3.19c-7 .38-14.5-.06-20.88-3.25-2.4-1.21-4.87-2.82-6.47-5.03-3.7-5.13-2.1-12.57-.78-18.22.45-1.94.95-3.85 1.44-5.78 2.04-8.11 4.66-18.29-.63-25.75a15.88 15.88 0 0 0-2.47-2.75 22.04 22.04 0 0 0-4.96-3.29 30.56 30.56 0 0 0-9-2.81c-6.81-.97-13.54.94-19.53 4.1-2.03 1.06-3.92 2.42-5.85 3.65-.97.62-2 1.21-2.94 1.88-1.64 1.18-3.2 2.52-4.78 3.78-10.66 8.44-20.2 18.68-31.93 25.69-5.34 3.18-11.32 5.69-17.63 5.65a26.74 26.74 0 0 1-5.13-.65 14 14 0 0 1 .13-4.6c.24-1.59.57-3.18.94-4.75 1.18-5.1 2.68-10.11 4.18-15.12 2.97-9.86 6.07-19.68 8.63-29.66a165.98 165.98 0 0 0 4.1-20.31c.24-1.91.42-3.83.52-5.75.48-8.46-.42-19.25-8.87-23.69a16.08 16.08 0 0 0-8.84-1.81c-2.75.27-5.42 1.32-7.91 2.47a91.7 91.7 0 0 0-9.31 5.12 366.03 366.03 0 0 0-18.4 12.28c-10.95 7.65-21.77 15.53-33.1 22.6a133.89 133.89 0 0 1-11.78 6.65 47.4 47.4 0 0 1-8.72 3.47c-2.58.7-6.38 1.51-8.28-.97-.45-.58-.42-1.66-.44-2.34-.07-1.99.18-4 .5-5.97 1.17-7.35 3.32-14.58 5.5-21.69 6.83-22.34 15.15-44.23 21.84-66.62 1.8-6.01 3.64-12.14 4.47-18.38.29-2.16.69-4.95-.4-6.96-.56-1.03-1.7-1.73-2.72-2.22a9.1 9.1 0 0 0-3.13-.88Zm-68.75 58.81c-.75.77-1.52 1.5-2.28 2.25.76-.75 1.54-1.48 2.28-2.25Zm-2.28 2.25c-1.8 1.8-3.57 3.6-5.47 5.28-1.06.95-2.26 2.03-3.53 2.97a55.15 55.15 0 0 0 4.34-3.59c1.64-1.47 3.1-3.11 4.66-4.66Zm-9 8.25a14.3 14.3 0 0 1-4 2.22c-.35.12-.72.17-1.1.19.1 0 .12.08.23.06.32-.04.6-.12.9-.22a14.31 14.31 0 0 0 3.97-2.25Zm-5.1 2.41c-.21.01-.32-.08-.5-.12.15.03.17.15.35.15.05 0 .1-.03.16-.03Zm-.5-.12c-.33-.08-.67-.13-.84-.35.16.22.52.27.85.35Zm-.84-.35c-.06-.09-.05-.23-.1-.34.05.1.04.25.1.34Zm-.1-.34c-.1-.28-.23-.56-.21-.91-.02.37.1.62.22.91Zm-.21-.91c.02-.41.22-.76.34-1.19-.12.44-.32.76-.34 1.19Zm.34-1.19c.17-.59.3-1.26.47-1.62.15-.31.28-.63.44-.94-.15.3-.33.6-.47.91-.19.41-.27 1.06-.44 1.65Zm11.85-12.71c-3.42.2-6.55 3.7-8.44 6.18-.5.66-.93 1.28-1.38 1.97a22.5 22.5 0 0 0-1.12 1.97 25.1 25.1 0 0 1 1.88-2.91c1.91-2.63 5.44-6.73 9.09-6.87.1-.01.16-.09.15-.19 0-.1-.08-.16-.18-.15Z"/></g><g vectornator:shadowAngle=".37" vectornator:shadowColor="#ffffff" vectornator:shadowOffset="0" vectornator:shadowOpacity="1" vectornator:shadowRadius="13.61" filter="url(#Q)"><path fill="#fff" d="M1496.34 243.66c-1.2-.05-2.41.06-3.59.28-8.83 1.65-14.05 10.45-17.19 18.1a82.79 82.79 0 0 0-3.25 9.52c-2.69 9.59-4.17 19.47-5.25 29.35-1.53 13.97-2 28.1-1.87 42.15.06 6.6.26 13.2.65 19.78.15 2.4.32 4.8.6 7.2.15 1.33.31 2.67.68 3.96.03.1.13.15.22.13.1-.03.16-.13.13-.22-.48-1.54-.65-3.16-.85-4.75-.25-2.1-.45-4.2-.62-6.32-.52-6.57-.71-13.18-.75-19.78a343.3 343.3 0 0 1 2.28-43.12c1.14-9.5 2.72-19 5.44-28.19a75.5 75.5 0 0 1 4-10.78c3.42-7.42 9.1-15.81 18.19-15.94 2.51-.03 4.97.56 7.31 1.44 1.63.61 3.21 1.4 4.69 2.34 9.1 5.8 12.74 16.82 14.56 26.9 1.42 7.9 1.9 15.92 2.19 23.92.34 9.75.36 19.52.68 29.28.3 9.01.89 18.13 2.94 26.93 1.91 8.24 5.41 16.7 12.38 21.91 2.32 1.74 4.97 3.2 7.87 3.63 8.84 1.27 14.91-7.42 18.63-14.13a84.7 84.7 0 0 0 2.06-3.97 123.1 123.1 0 0 0 2.62-5.81c.89-2.1 1.75-4.25 2.57-6.38 5.76-15 10.27-30.44 15.56-45.62 3.35-9.63 6.9-19.3 11.69-28.31 3-5.68 6.63-11.58 11.84-15.5a26.89 26.89 0 0 1 6.91-3.6c2.07-.76 4.27-1.3 6.5-1.31 8.94-.03 12.68 10.04 14.68 17.22a119.67 119.67 0 0 1 1.82 8.06c2.72 14.52 3.35 29.36 4.78 44.03.63 6.48 1.37 13 2.68 19.38.32 1.51.66 3 1.07 4.5 1.71 6.27 4.86 14.3 12.06 15.72 3.8.74 7.69-.62 10.94-2.54 6.57-3.88 10.91-10.62 14.03-17.4 2.9-6.32 5.02-12.95 6.94-19.63 2.17-7.6 4.08-15.3 6.37-22.87.46-1.52.87-3.03 1.38-4.53.46-1.38 1.07-2.77 1.59-4.13.52-1.37 1-2.74 1.56-4.1 2.04-4.86 5.14-10.25 9.63-13.27a16.3 16.3 0 0 1 4.28-1.97c2.02-.64 4.1-1.13 6.22-1.22a14.2 14.2 0 0 1 4.25.44c7.21 1.93 9.93 10.23 11.34 16.69.26 1.16.46 2.28.66 3.46.3 1.8.56 3.62.78 5.44.3 2.45.53 4.92.75 7.38.27 2.95.53 5.9.84 8.84.11 1.02.24 2.23.38 3.25.13.95.29 2.08.47 3.03.19 1.1.33 1.65.59 2.72.61 2.54 1.65 6.1 4.44 6.97 1.81.57 3.83.57 5.72.53a85.6 85.6 0 0 0 8.71-.72c8.73-1.08 17.36-2.8 25.97-4.53 19.52-3.94 38.93-8.47 58.38-12.69a792.9 792.9 0 0 1 19.84-4.1c2.3-.42 4.59-.87 6.91-1.24-2.76.44-5.52.95-8.25 1.47a916.85 916.85 0 0 0-20.22 4.15c-18.89 4.05-37.73 8.34-56.72 11.94-9.01 1.71-18.08 3.4-27.22 4.31a71.1 71.1 0 0 1-8.28.44c-1.49-.02-3.1-.09-4.53-.56-2.57-.85-3.43-5.25-3.88-7.53l-.21-1.38a74.5 74.5 0 0 1-.72-6.19c-.1-1.14-.2-2.29-.28-3.43-.23-3.04-.4-6.09-.63-9.13-.14-1.87-.3-3.73-.5-5.6-.2-1.82-.45-3.64-.75-5.46-1.37-8.26-4.39-18.48-13.69-20.72-1.38-.33-2.8-.48-4.22-.47-2.36.03-4.72.48-7 1.13-9.36 2.67-14.14 11.33-17.65 19.75-.72 1.73-1.5 3.43-2.16 5.19-.71 1.9-1.29 3.88-1.93 5.8-4.16 12.43-7.14 25.3-12.44 37.32-2.87 6.5-6.65 13.49-12.88 17.34-2.19 1.36-5.25 2.79-7.9 2.04-2.96-.84-4.55-4.2-5.57-6.82-2.47-6.34-3.28-13.56-4-20.28-1.38-12.9-1.9-25.85-3.31-38.75-.92-8.45-2.08-17.01-4.72-25.12-2.51-7.74-6.96-16.07-15.31-18.5a17.83 17.83 0 0 0-4.34-.7c-4.26-.15-8.47 1.1-12.32 2.82-3 1.35-5.76 3-8.21 5.22-4.13 3.72-7.32 8.4-10.07 13.19-5.16 9-8.9 18.77-12.34 28.53-4.99 14.12-9.14 28.52-14 42.69a200.03 200.03 0 0 1-6.56 17.09 61.25 61.25 0 0 1-5.57 10.16c-2.19 3.12-5.59 7.03-9.87 6.12-1.38-.3-2.66-1-3.85-1.75a21.6 21.6 0 0 1-6.15-6.06c-4.95-7.22-6.7-16.77-7.81-25.28-2.03-15.45-1.95-31.08-3.16-46.6-.74-9.5-1.83-19.15-4.75-28.28-2.7-8.41-7.37-16.59-15.41-20.87a27.24 27.24 0 0 0-5.25-2.13c-1.72-.5-3.45-.84-5.25-.9Z"/></g><g vectornator:shadowAngle=".37" vectornator:shadowColor="#ffffff" vectornator:shadowOffset="0" vectornator:shadowOpacity="1" vectornator:shadowRadius="13.61" filter="url(#R)"><path fill="#fff" d="M278.66 290.03c1.72 1.89 3.38 3.83 4.96 5.85a52 52 0 0 1 4.75 7 22.6 22.6 0 0 1 2.32 5.65c.26 1.1.4 2.25.34 3.38-.28 6.4-6.92 10.1-11.75 13l-2.75 1.65c-1.45.87-2.9 1.74-4.31 2.66a55.65 55.65 0 0 0-5.66 4.15 34.4 34.4 0 0 0-6.72 7.54c-3.81 5.92-5.42 13.21-4.96 20.21 1.18 18.19 16.44 31.4 26.4 45.32 5.15 7.19 9.43 15.29 9.69 24.31.07 2.65-.2 5.3-.72 7.9a43.82 43.82 0 0 1-4.31 12.13c-2.18 4.02-5.97 6.4-10.31 7.5-1.93.5-3.97.62-5.94.88-1.57.2-3.08.2-4.66.21-2.28.04-4.56 0-6.84-.06-2.37-.06-4.73-.14-7.1-.19-10.35-.19-22.7.18-29.53 9.25a21.23 21.23 0 0 0-2.37 4.04 17.35 17.35 0 0 0-1.66 6.37c-.4 9 7.38 16.11 14 21 5.17 3.82 10.72 7.06 16.31 10.19 10.32 5.78 21.06 10.8 31.28 16.75 5.33 3.1 10.89 6.43 15.1 11 1.75 1.9 3.5 4.3 3.5 7a6.4 6.4 0 0 1-.97 3.44c-.38.55-.97.95-1.5 1.34-1.07.79-2.22 1.5-3.38 2.16-4.69 2.68-9.61 4.94-14.5 7.25-10.31 4.87-20.69 9.67-30.68 15.18-6.5 3.59-13 7.42-18.63 12.28a33.8 33.8 0 0 0-5.6 5.97 15.95 15.95 0 0 0-2.21 4.38c-.27.86-.45 1.72-.5 2.62-.32 6.1 5.15 10.35 9.88 13.1a74.62 74.62 0 0 0 10.37 4.78c7.13 2.79 14.22 5.64 21.31 8.5 3.41 1.37 6.83 2.76 10.38 3.75 3.12.87 6.32 1.45 9.5 2.1l.78.15a112.3 112.3 0 0 1-10.25-2.31c-3.54-1-6.95-2.41-10.35-3.82-7.07-2.92-14.1-5.9-21.18-8.8a71.86 71.86 0 0 1-10.22-4.95c-4.52-2.75-10.02-7.2-8.97-13.18.14-.8.4-1.6.72-2.35a16.48 16.48 0 0 1 2.53-3.9c2-2.4 4.42-4.42 6.94-6.25 6.97-5.08 14.83-8.9 22.65-12.47 10.49-4.8 21.27-8.96 31.85-13.53 3.5-1.52 7.04-3.03 10.37-4.91 1.8-1.01 3.76-2.17 5.03-3.84a11.88 11.88 0 0 0 2.25-6.53c.29-7.04-5.64-12.77-10.71-16.79-1.03-.8-2.1-1.59-3.16-2.34a170.16 170.16 0 0 0-16.19-9.88c-10.71-5.93-21.79-11.35-32.1-18-4.84-3.12-9.82-6.55-13.46-11.09-1.74-2.16-3.3-4.81-3.19-7.69.07-1.55.63-3.03 1.31-4.4 3.5-7.02 11.32-8.36 18.47-8.75 2.82-.16 5.65-.16 8.47-.13l7.06.1c2.36.02 4.71-.1 7.07-.2.63-.01 1.24 0 1.87-.05 1.13-.1 2.25-.34 3.38-.5 1.1-.17 2.24-.28 3.34-.5 4.96-1 9.82-3.49 13.06-7.44a20.15 20.15 0 0 0 2.44-3.78 48.21 48.21 0 0 0 4.63-15.19c.38-2.98.44-5.99.12-8.97-1.75-16.38-14.14-28.1-24.38-39.87-7.07-8.15-13.97-17.31-15.06-28.41-.63-6.44.55-13.2 3.75-18.84a32.73 32.73 0 0 1 6.9-8.32 59.57 59.57 0 0 1 6.95-5.15c1.38-.9 2.8-1.8 4.21-2.66 5.17-3.16 12.81-7.14 13.07-14.12.04-1.15-.1-2.3-.38-3.41a22.7 22.7 0 0 0-2.37-5.66 53.6 53.6 0 0 0-4.78-7c-1.6-2-3.27-3.93-5-5.8Zm3.3 341.69c3.43.7 6.84 1.45 10.26 2.19.1.02.2-.06.22-.16.02-.1-.03-.17-.13-.19-3.43-.63-6.9-1.2-10.34-1.84Z"/></g><g vectornator:shadowAngle=".37" vectornator:shadowColor="#ffffff" vectornator:shadowOffset="0" vectornator:shadowOpacity="1" vectornator:shadowRadius="13.61" filter="url(#S)"><path fill="#fff" d="M753.19 1248.97c-1.1.47-2.27.79-3.28 1.41-.28.16-.3.58-.44.87-.24.49-.3 1.13-.4 1.66-.4 1.77-.78 3.54-1.16 5.31l-.41 1.84c-1.19 5.44-2.36 10.9-3.53 16.35l-1 4.59-.56 2.59-1.35 6.32c-.1.49-.31 1.09-.28 1.59.03.38-.15.83.1 1.12.82.99 1.96 1.69 2.93 2.54.13.11 1.58.19 1.78.22l4.53.53c5.41.64 10.81 1.3 16.22 1.93 21.11 2.49 42.25 4.84 63.38 7.1 23.57 2.51 47.15 4.81 70.72 7.31 40.65 4.31 81.27 9.04 121.81 14.31-39.87-5.27-79.73-10.41-119.53-16.15-24.13-3.49-48.25-7.15-72.38-10.6a5189.48 5189.48 0 0 0-60.84-8.34l-16.47-2.16-4.56-.59 4.87-22.38 1.88-8.62.31-1.38c1.37.17 2.73.31 4.1.47a4446.1 4446.1 0 0 0 59.66 6.78c37.11 3.98 74.31 7.27 111.46 11 27.78 2.79 55.53 5.87 83.28 8.94 4.18.46 8.35 1.04 12.53 1.5.1.01.21-.06.22-.15.01-.1-.09-.21-.19-.22a904.12 904.12 0 0 1-30.71-3.25 3725.88 3725.88 0 0 1-31.6-3.91c-46.38-5.92-92.6-13.02-138.94-19.28a5594 5594 0 0 0-53.18-6.91l-14.25-1.75-3.5-.44c-.17-.02-1.09-.21-1.22-.15Z"/></g></g></svg>