<svg xmlns="http://www.w3.org/2000/svg" width="360" height="64" fill="none"><g fill="#595959" clip-path="url(#a)"><path d="M135 22.95c-.12.86-.19 1.74-.37 2.6-1.22 5.85-4.27 10.41-9.78 13.01a15.78 15.78 0 0 1-17.93-3.34 18.72 18.72 0 0 1-5.3-12.24 19.9 19.9 0 0 1 3.34-12.73c2.56-3.78 6.08-6.26 10.65-6.94 6.39-.94 11.63 1.18 15.55 6.3a18.98 18.98 0 0 1 3.75 10.04c.02.15.06.29.09.43v2.87Zm-5.34-1.45c0-1.5-.18-2.97-.6-4.41-1.05-3.65-4.33-8.07-9.84-8.42-3.87-.25-7.1 1.03-9.5 4.1-3.46 4.42-3.82 11.38-.9 16.18 2.12 3.46 5.2 5.33 9.28 5.42a10.4 10.4 0 0 0 8.79-4.23c1.99-2.54 2.76-5.47 2.77-8.64ZM27.07 64V51.06h.7v2.03c.29-.41.5-.81.81-1.14a4.02 4.02 0 0 1 6.29.76 6.3 6.3 0 0 1 .07 6.17c-.74 1.45-2.1 1.95-3.68 1.93-1.54-.02-2.75-.58-3.47-2.05V64h-.72Zm.71-7.87c.04.29.09.85.2 1.4.32 1.47 1.27 2.4 2.6 2.62 1.58.26 2.98-.26 3.65-1.5a5.6 5.6 0 0 0-.08-5.75c-.67-1.13-1.78-1.56-3.07-1.48a3.1 3.1 0 0 0-2.8 1.91 6.7 6.7 0 0 0-.5 2.8Zm-5.91-46.09-5.09 2.48-.26-.41c-.35-.54-.67-1.1-1.07-1.6a4.94 4.94 0 0 0-6.14-1.1c-1.31.75-2.24 3.04-.72 4.48.8.76 1.66 1.46 2.58 2.07 2.3 1.53 4.73 2.89 6.96 4.51 5.28 3.84 5.88 9.76 3.7 13.94-1.62 3.1-4.34 4.77-7.79 5.24-1.84.26-3.67.14-5.48-.32A10.44 10.44 0 0 1 3 35.77 19.8 19.8 0 0 1 .1 30.8l5.1-2.36.19.36c.3.64.57 1.28.89 1.9 1.2 2.37 3.17 3.47 5.8 3.48 1.55 0 2.96-.35 4.07-1.47a4.76 4.76 0 0 0 .82-5.25 7.67 7.67 0 0 0-3.19-3.41c-2.24-1.36-4.51-2.65-6.74-4.02-2.09-1.3-3.78-2.97-4.5-5.38A8.54 8.54 0 0 1 7.87 4.02c3.4-1.31 6.8-1.12 9.9 1.01.6.42 1.17.95 1.62 1.53.87 1.1 1.63 2.27 2.49 3.48Zm19.59-6.77L56.74 39.4c-.16.02-.28.05-.38.05l-4.95.01c-.29 0-.43-.1-.53-.35l-5.56-14.02-3.74-9.34c-.02-.06-.06-.12-.15-.28-.28.72-.54 1.34-.8 1.96L35.9 29.44c-1.23 3.14-2.5 6.27-3.71 9.42-.18.46-.4.62-.9.61-1.66-.04-3.33-.01-5.08-.01L41.46 3.27ZM86.5 39.46V9.02h-8.02V3.49h21.5v5.5h-7.87v30.47h-5.6Zm-11.27 0H61.31V3.48h5.56V33.9h8.36v5.56ZM83.5 59.2v.43c0 .75-.38 1.16-1.15 1.23-.95.08-1.42-.2-1.89-1.11a5.03 5.03 0 0 1-4.9.81c-1.24-.46-1.8-1.45-1.72-2.87.07-1.18.78-2.04 2.1-2.35 1.1-.25 2.24-.36 3.36-.55.47-.08.92-.21 1.1-.72.2-.58-.05-1.2-.64-1.44a3.2 3.2 0 0 0-2.58.01c-.52.23-.78.67-.87 1.24h-2.12a2.86 2.86 0 0 1 1.34-2.43 5.1 5.1 0 0 1 3.19-.73c.76.05 1.54.22 2.25.5 1.03.4 1.51 1.26 1.5 2.37v4.56c0 .65.35 1 1.02 1.06Zm-3.19-3.27c-.8.13-1.6.24-2.38.39a5.4 5.4 0 0 0-1.24.36c-.55.25-.75.74-.72 1.32.03.56.41.83.9 1 .94.32 1.85.24 2.7-.29.41-.25.7-.63.73-1.11.04-.58.01-1.15.01-1.67Zm32.54 1.64h1.73l.27.02a3.97 3.97 0 0 1-2.78 3.01c-1.95.64-4.1.1-5.25-1.31-1.61-1.99-1.46-5.5.35-7.29a4.4 4.4 0 0 1 4.65-1.07c1.83.56 2.77 1.93 3.12 3.74.08.4.06.8.1 1.2.02.35-.11.45-.47.45-2.07-.02-4.13 0-6.2 0h-.48c-.1 1.3.67 2.46 1.8 2.76 1.41.37 2.47-.13 3.16-1.51Zm-.05-2.65c-.02-1.45-1.11-2.57-2.45-2.55a2.5 2.5 0 0 0-2.46 2.55h4.9Zm13.41 2.6h2.06l.07.15c.16.85.7 1.37 1.54 1.44.64.05 1.31-.03 1.95-.14.46-.08.8-.4.83-.93a1 1 0 0 0-.7-1.07c-.83-.27-1.68-.43-2.51-.68-.61-.18-1.25-.33-1.8-.63-1.67-.9-1.74-3.3-.1-4.23a5.55 5.55 0 0 1 5.38-.15c.94.46 1.41 1.29 1.56 2.38h-2.07c-.07 0-.17-.11-.2-.2-.23-.67-.75-1-1.42-1.04a6.54 6.54 0 0 0-1.55.13c-.38.07-.68.32-.72.76-.03.45.23.76.6.9.52.2 1.05.35 1.58.5.76.2 1.55.35 2.3.6 1.02.35 1.7 1.03 1.8 2.17.08 1.14-.35 2.07-1.36 2.62a5.92 5.92 0 0 1-5.72.11 2.79 2.79 0 0 1-1.52-2.7Zm-1.64-3.85-2-.01c-.1 0-.23-.11-.27-.2-.24-.66-.73-1-1.39-1.02a5.2 5.2 0 0 0-1.75.2c-.71.23-.77 1.1-.12 1.45.53.3 1.14.44 1.72.6.77.23 1.57.37 2.33.63 1.07.36 1.75 1.08 1.8 2.25a2.6 2.6 0 0 1-1.44 2.59 6 6 0 0 1-5.49.14c-1.13-.52-1.66-1.5-1.68-2.8l1.97.01c.07 0 .17.13.18.2.17.88.76 1.34 1.58 1.41.63.05 1.28-.03 1.9-.15.47-.08.8-.42.84-.93.04-.53-.26-.9-.72-1.07-.66-.23-1.35-.37-2.02-.57-.72-.2-1.45-.36-2.14-.65-.94-.4-1.38-1.18-1.4-2.2a2.26 2.26 0 0 1 1.35-2.24 5.84 5.84 0 0 1 4.87-.18c1.1.44 1.71 1.3 1.88 2.54Z"/><path d="m41.52 43.03-4.29-10.99h8.5l-4.21 10.99Zm50 13.97h2.11a4.36 4.36 0 0 1-1.7 3.08 4.72 4.72 0 0 1-7.28-2.73 6.63 6.63 0 0 1 .15-3.53c.68-2.1 2.35-3.16 4.6-3.12 1.1.02 2.15.27 3.01 1a3.44 3.44 0 0 1 1.22 2.45h-2.08s-.05-.05-.06-.09c-.32-1.07-.9-1.57-1.95-1.67-1.04-.1-2 .36-2.44 1.25a4.83 4.83 0 0 0-.14 4 2.28 2.28 0 0 0 2.43 1.53c.99-.05 1.71-.69 2.03-1.8l.1-.37Zm12.7-2.83h-2.05c-.02-.03-.06-.04-.06-.06-.31-1.12-.92-1.64-2-1.73a2.38 2.38 0 0 0-2.48 1.42 4.9 4.9 0 0 0-.03 3.91 2.3 2.3 0 0 0 2.44 1.46c.96-.07 1.69-.72 1.99-1.79.03-.11.05-.23.1-.37h2.12a4.43 4.43 0 0 1-1.69 3.06 5.03 5.03 0 0 1-6.19-.58 5.09 5.09 0 0 1-1.24-4.02c.05-.69.19-1.4.44-2.04a4.37 4.37 0 0 1 4.46-2.73c.88.05 1.72.2 2.5.65a3.39 3.39 0 0 1 1.7 2.82ZM70.3 60.58h-.67v-1.9l-.08-.03-.2.3c-.96 1.53-2.38 2.02-4.1 1.83a3.6 3.6 0 0 1-3.14-2.58 6.56 6.56 0 0 1 .29-5.37c.77-1.48 2.1-2.08 3.72-2.03 1.5.05 2.67.68 3.34 2.09l.13.15V47.3h.71v13.27Zm-7.97-4.78c.15.7.23 1.4.46 2.08a3.18 3.18 0 0 0 2.72 2.29c1.4.18 2.59-.26 3.3-1.5a5.43 5.43 0 0 0-.02-5.77c-.65-1.1-1.72-1.54-2.98-1.49-1.3.06-2.27.68-2.85 1.86-.4.8-.52 1.64-.63 2.53Zm-4.27 1.58h.65a3.75 3.75 0 0 1-3.55 3.4c-2.72.22-4.54-1.3-4.8-4.02a6.59 6.59 0 0 1 .64-3.81 3.91 3.91 0 0 1 3.96-2.15c1.84.17 3.1 1.16 3.58 2.9.2.68.24 1.41.37 2.19h-7.85c-.12 1.91.9 3.8 2.65 4.22 1.99.47 3.5-.44 4.35-2.73Zm.01-2.1c.07-2.18-1.6-3.95-3.59-3.88-1.84.07-3.6 2.09-3.38 3.87h6.97Zm-42.22 2.14h.63c.09.32.14.65.26.95a2.74 2.74 0 0 0 2.2 1.76c.88.17 1.77.1 2.6-.25.72-.3 1.18-.79 1.22-1.6.04-.87-.37-1.46-1.16-1.73-.87-.29-1.79-.45-2.68-.7a9.72 9.72 0 0 1-1.52-.52c-.88-.4-1.25-1.15-1.25-2.1 0-.94.44-1.64 1.3-2a5.26 5.26 0 0 1 4.12-.08c1.09.43 1.7 1.5 1.59 2.66h-.6c-.03-.02-.06-.04-.06-.07-.22-1.49-.82-2.09-2.34-2.3-.76-.1-1.5-.01-2.2.3-.68.28-1.1.77-1.1 1.53 0 .75.4 1.27 1.08 1.5.92.3 1.88.48 2.8.73.51.14 1.03.27 1.49.5 1.6.82 1.71 3.13.23 4.13-1.33.9-3.89.91-5.22.03a3.1 3.1 0 0 1-1.4-2.74ZM5.48 60.57h-.67v-9.52h.67v1.88c.3-.4.52-.78.83-1.09a4.13 4.13 0 0 1 4.6-.63 2.77 2.77 0 0 1 1.4 2.13c.06.41.1.83.1 1.25v5.97h-.72v-6.11c0-.21 0-.42-.02-.63-.15-1.05-.55-1.94-1.68-2.26a3.31 3.31 0 0 0-3.47.87A3.96 3.96 0 0 0 5.5 55.2c-.02 1.61 0 3.23 0 4.83v.54Zm38.4-9.52h.66V53c.84-1.46 2.13-2 3.74-2.04v.66c-.3.03-.6.03-.89.09a3.34 3.34 0 0 0-2.77 3.1c-.07 1.73-.04 3.48-.06 5.22v.54h-.69v-9.52ZM.78 60.58H.13v-9.53h.65v9.53Zm39.09 0h-.65v-9.52h.65v9.52ZM.77 49.2H.12v-1.88h.65v1.87Zm38.45-1.9h.66v1.88h-.66V47.3Z"/></g><rect width="152" height="59.89" x="208" fill="#595959" rx="7.6"/><path fill="#fff" d="M210.13 9.58c0-4.2 3.4-7.6 7.6-7.6h46.97v56.24h-46.97a7.6 7.6 0 0 1-7.6-7.6V9.58Z"/><g clip-path="url(#b)"><path fill="#83C041" d="M236.5 17.18c-2.07-1.43-2.65-2.34-2.65-4.15 0-1.55.75-2.7 2.2-3.4a4 4 0 0 1 1.92-.36c1.5 0 2.45.34 3.27 1.16.8.79 1.02 1.49.96 3.05-.06 1.05-.13 1.31-.52 1.87a8.52 8.52 0 0 1-1.63 1.48c-.65.45-1.21.9-1.26.97-.06.08-.35.14-.65.14-.43 0-.82-.19-1.64-.76Z"/><path fill="#F04B54" d="M229.12 31.72c-1.44-.4-2.8-1.5-3.16-2.52a10.9 10.9 0 0 1-.17-2.16c0-1.37.05-1.7.28-1.94l.55-.7c.85-1.24 3.45-1.3 5.74-.14.72.36.8.38.96.15.1-.14.3-.24.44-.24.17 0 .24-.14.24-.5 0-.28.08-.58.19-.69.13-.13.13-.18 0-.18-.11 0-.19-.21-.19-.53 0-.52.02-.53.63-.53.48 0 .63.06.7.3.04.17.2.3.36.3.23 0 .29.11.29.54 0 .45-.05.53-.37.53-.27 0-.38.09-.42.35a.44.44 0 0 1-.35.38c-.35.04-.53.85-.85 3.68-.2 1.8-.8 3.16-1.6 3.66-.67.41-2.25.53-3.27.24Z"/><path fill="#AA59A3" d="M242.29 40.3c-1-.61-2.22-2.25-2.75-3.67-.85-2.34-1.13-4.4-1.13-8.62v-3.39h.6c.31 0 .85.1 1.17.22.36.12.92.16 1.45.12l.87-.06.14.58c.09.33.2 1.07.24 1.67.15 1.91.76 3.08 1.81 3.55.53.25.68.26 1.26.08a6 6 0 0 0 2.25-1.28c.18-.2.47-.32.8-.32.48 0 .5.03.5.57 0 .48-.11.67-.81 1.36-.46.45-1 .84-1.22.9-.36.1-.4.17-.4.88 0 .5-.13 1.16-.37 1.72-.37.91-.76 2.4-1.14 4.21-.28 1.32-.76 1.76-1.93 1.76-.6 0-1.04-.09-1.34-.28Z"/><path fill="#E35685" d="M230.9 40.26c-.4-.31-.55-.7-1.14-3.26-.18-.76-.48-1.81-.7-2.34a5.62 5.62 0 0 1-.38-1.68c0-.71-.01-.71-.9-1.27a3.86 3.86 0 0 1-1.3-1.22c-.43-.73-.52-1.61-.15-1.61.12 0 .22.1.22.21 0 .1.32.49.7.85 1.48 1.36 3.47 1.83 4.66 1.1.86-.55 1.42-1.84 1.62-3.79l.2-1.74c.03-.11-.05-.19-.14-.2-.1 0-.2-.06-.2-.15 0-.08.43-.16.96-.17a5.5 5.5 0 0 0 1.37-.18c.24-.11.7-.19 1.02-.19h.58l.1 1.63c.14 2 0 5.2-.3 7-.58 3.4-1.76 5.8-3.38 6.86-.9.6-2.18.67-2.84.15Z"/><path fill="#F16668" d="M225.78 28.93a8.87 8.87 0 0 1-.21-1.83V26h-.49c-.42 0-.62-.16-1.4-1.1-.5-.61-1.6-1.75-2.44-2.54l-1.54-1.41.05-1.08c.04-1.05.06-1.1.56-1.43.77-.53 1.46-.69 3.28-.76 1.16-.05 2.05 0 2.92.16a24.3 24.3 0 0 1 7.87 3.38c.6.36 1.22.76 1.42.85.53.27.44.93-.23 1.66-.32.33-.71.88-.88 1.21-.18.34-.35.58-.38.54a10.57 10.57 0 0 1-2.45-.78c-1.55-.71-2.69-.94-3.48-.7-.79.23-1.46.82-1.7 1.46-.12.35-.23.47-.3.33-.22-.33-.13 2.4.1 3.14.14.47.1.71-.14.71-.28 0-.4-.12-.56-.71Z"/><path fill="#92CB70" d="M238.87 20.7c0-.73-.43-1.93-.84-2.3-.47-.45-.53-1.15-.09-1 .17.05.34.02.38-.06.06-.07.62-.51 1.28-.97 1.46-1.02 2.03-1.8 2.13-2.9a2.96 2.96 0 0 0-.95-2.6A4.03 4.03 0 0 0 238 9.73c-.56 0-.65-.05-.65-.32 0-.32.06-.32 1.34-.26.72.05 1.7.21 2.15.37.82.28.87.28 1.33.03a9.46 9.46 0 0 1 2.03-.58c.88-.17 1.98-.5 2.51-.76a3.82 3.82 0 0 1 2.08-.46c.95 0 1.16.05 1.48.38.32.35.33.46.27 1.9a5.08 5.08 0 0 1-.7 2.78c-1.12 2.27-3.25 4.21-7.63 6.93-1.76 1.11-2.32 1.39-2.77 1.39-.53 0-.57-.03-.57-.43Z"/><path fill="#34BAED" d="M249.05 29.72c0-.03.1-.35.24-.7.2-.46.23-.92.17-1.8-.12-1.84-.77-2.85-2.1-3.2-.82-.23-1.68-.05-3.19.62-.71.33-1.6.65-2 .73l-.69.12-.26-.58a4.4 4.4 0 0 0-.77-1.06c-.41-.4-.52-.62-.52-1.07 0-.53.06-.59 1.19-1.32 2.5-1.6 4.9-2.73 7.17-3.39 1.1-.3 1.63-.36 3.57-.36 2.09 0 2.36.03 3.09.36 1.05.47 1.25.78 1.25 1.92v.91l-1.65 1.6c-.9.88-2 2.02-2.44 2.55-.67.79-.89.94-1.28.94h-.49l-.01 1.22c-.02 1.56-.38 2.58-.91 2.58-.2 0-.37-.03-.37-.07Z"/><path fill="#F7AE56" d="M235.14 20.5a72.82 72.82 0 0 1-3.45-2.21c-3-2-4.5-3.5-5.47-5.48a4.89 4.89 0 0 1-.7-2.85c-.06-1.43-.03-1.6.26-1.89.27-.27.5-.32 1.52-.32s1.35.08 2.16.44c.53.26 1.6.57 2.34.7a11 11 0 0 1 2.08.56c.69.3.73.3 1.45.07.4-.16 1.23-.3 1.83-.35.92-.08 1.1-.05 1.1.13 0 .15-.26.3-.7.41-1.46.37-2.55 1.22-3 2.33-.7 1.62.05 3.04 2.5 4.76.64.45 1.22.9 1.28.98.06.1-.03.32-.2.5-.47.52-.76 1.2-.88 2.06-.1.76-.13.79-.58.79-.29 0-.91-.26-1.54-.63Z"/><g clip-path="url(#c)"><path fill="#32A0DA" d="M247.52 31.64a6.46 6.46 0 0 0 1.56-1.48c.1-.2-.04-.13-.42.2-1.28 1.13-2.97 1.6-4.12 1.16-1.16-.44-1.81-1.62-1.98-3.63-.12-1.46-.33-2.22-.6-2.22-.39 0-.24-.42.2-.53.23-.05 1-.37 1.7-.68 2.04-.95 4-1 5.08-.14.75.6 1.05 1.43 1.13 3.14a7.4 7.4 0 0 1-.12 2.18 4.12 4.12 0 0 1-1.96 1.96c-.73.36-.99.4-.47.04Z"/></g></g><path fill="#444" d="M220.25 49.4h-2.4v-5.29h2.57c.65 0 1.1.2 1.38.56.16.23.24.5.24.81 0 .32-.08.58-.25.78a1.1 1.1 0 0 1-.4.3c.27.1.48.25.61.47.14.21.21.47.21.77a1.54 1.54 0 0 1-1.22 1.53c-.23.05-.48.07-.75.07Zm-.03-2.33h-1.32v1.41h1.3c.23 0 .42-.03.54-.1.24-.1.36-.33.36-.65 0-.28-.12-.47-.34-.57a1.32 1.32 0 0 0-.54-.09Zm.55-1c.14-.1.21-.25.21-.47 0-.25-.1-.41-.28-.49a2.02 2.02 0 0 0-.63-.08h-1.17v1.16h1.3c.23 0 .42-.04.57-.13Zm4.8 2.78-.07.1a1.42 1.42 0 0 1-.6.45c-.16.06-.33.09-.53.09-.58 0-.97-.21-1.17-.63a2.38 2.38 0 0 1-.17-1.01v-2.36h1.05v2.36c0 .22.02.39.08.5.09.2.27.3.55.3.34 0 .58-.14.71-.43.07-.15.1-.35.1-.6v-2.13h1.04v3.91h-1v-.55Zm3.77-.18v.77l-.48.01c-.49.02-.82-.06-1-.25-.1-.11-.16-.3-.16-.54v-2.4h-.55v-.74h.55v-1.09h1v1.1h.64v.72h-.63v2.07c0 .16.02.26.06.3.04.04.16.06.37.06h.2Zm2.45 0v.77l-.48.01c-.49.02-.82-.06-1-.25a.8.8 0 0 1-.17-.54v-2.4h-.54v-.74h.54v-1.09h1.02v1.1h.63v.72h-.63v2.07c0 .16.02.26.06.3.04.04.16.06.37.06h.2Zm4.01-.42a1.3 1.3 0 0 1-.37.7c-.33.39-.8.58-1.4.58-.5 0-.94-.16-1.32-.48-.38-.32-.57-.84-.57-1.57 0-.67.17-1.2.51-1.55.35-.37.8-.55 1.34-.55.33 0 .62.06.88.19.26.12.48.31.65.57.15.24.25.5.3.81.02.18.03.44.03.78h-2.68c.01.39.14.67.37.82.14.1.3.15.5.15.22 0 .39-.06.52-.18a.85.85 0 0 0 .2-.27h1.04Zm-1.02-1.2a.88.88 0 0 0-.24-.61.75.75 0 0 0-.55-.21.7.7 0 0 0-.55.22c-.13.15-.21.35-.25.6h1.6Zm3.72-.62c-.4 0-.68.14-.82.4-.08.15-.12.39-.12.7v1.87h-1.03v-3.91h.97v.68a2 2 0 0 1 .42-.53 1.12 1.12 0 0 1 .79-.24h.09v1.05a2.76 2.76 0 0 0-.3-.02Zm2.76-2.35v.83a2.82 2.82 0 0 0-.3 0c-.16 0-.26.04-.3.13a1.1 1.1 0 0 0-.04.41v.07h.67v.73h-.67v3.15h-1.02v-3.15h-.57v-.73h.56v-.25c0-.41.09-.72.27-.93.17-.19.5-.28 1.01-.28a2.58 2.58 0 0 1 .4.02Zm1.65.03v5.29h-1.02v-5.29h1.02Zm2.58 4.26.8-2.88h1.1l-1.35 3.85c-.26.74-.47 1.2-.61 1.37-.16.18-.46.27-.91.27a5.27 5.27 0 0 1-.47-.01v-.82h.42c.1-.02.17-.04.23-.09a.51.51 0 0 0 .17-.25c.05-.13.07-.2.06-.24l-1.44-4.08h1.14l.86 2.88Zm3.59 1.03h-1.03v-5.29h1.61l.96 4.16.96-4.16h1.59v5.29h-1.03v-3.58a42.27 42.27 0 0 1 0-.86l-1 4.44h-1.07l-1-4.44a43.17 43.17 0 0 0 .01.86v3.58Zm9.36 0h-1.34l-1-1.8-1.06 1.8h-1.29l1.7-2.7-1.62-2.59h1.32l.95 1.72.97-1.72h1.28l-1.62 2.55 1.71 2.74Z"/><path fill="#fff" d="M281.77 26.15a4.07 4.07 0 0 1-2.86 1.03 4.31 4.31 0 0 1-3.39-1.39 5.53 5.53 0 0 1-1.23-3.8c0-1.75.46-3.1 1.4-4.04a4.18 4.18 0 0 1 3.1-1.23c1.68 0 2.91.55 3.69 1.65.43.62.66 1.24.7 1.87h-2.1a2.83 2.83 0 0 0-.52-1.09c-.38-.43-.94-.65-1.69-.65s-1.35.3-1.8.92a4.4 4.4 0 0 0-.65 2.6c0 1.12.23 1.96.7 2.52a2.2 2.2 0 0 0 1.76.83c.73 0 1.3-.24 1.68-.71.2-.26.38-.65.52-1.16h2.07a4.5 4.5 0 0 1-1.38 2.65Zm9.93-3.62h-4.85v2.57h5.53v1.8h-7.57v-10h7.33v1.77h-5.29v2.12h4.85v1.73Zm6.55.45h-2.16v3.92h-2.04v-10h4.9c.7.01 1.24.1 1.62.26.38.16.7.39.96.7a2.73 2.73 0 0 1 .7 1.9 3 3 0 0 1-.36 1.39c-.24.45-.63.78-1.18.97.46.18.78.45.97.79.2.34.3.86.3 1.56v.67c0 .46.01.77.05.93.05.26.18.45.38.57v.25h-2.3l-.13-.54a4.99 4.99 0 0 1-.1-.86v-.93c-.01-.63-.13-1.06-.36-1.27-.22-.21-.64-.32-1.25-.32Zm1.27-1.81c.41-.2.62-.57.62-1.13 0-.6-.2-1.01-.6-1.22a2.28 2.28 0 0 0-1.02-.18h-2.43v2.69h2.37c.47 0 .82-.06 1.06-.16Zm11.78-4.26v1.77h-3v8.22h-2.1v-8.22h-3V16.9h8.1Zm1.06 0h2.07v9.99h-2.07v-10Zm11.1 1.77h-5v2.3h4.38v1.73h-4.38v4.19h-2.08v-9.98h7.08v1.76Zm1.24-1.77h2.08v9.99h-2.08v-10Zm10.98 5.62h-4.85v2.57h5.53v1.8h-7.57v-10h7.32v1.77h-5.28v2.12h4.85v1.73Zm6.61 4.37h-4.3v-10h4.3c.62 0 1.13.08 1.54.22.7.23 1.27.65 1.7 1.26.35.5.59 1.04.72 1.62.12.57.19 1.13.19 1.65 0 1.33-.27 2.45-.8 3.37a3.6 3.6 0 0 1-3.35 1.87Zm1.55-7.44c-.32-.54-.95-.82-1.9-.82H340v6.52h1.93c.98 0 1.67-.48 2.06-1.45.2-.54.31-1.17.31-1.9 0-1.02-.15-1.8-.47-2.35Zm-69.28 13.41h2.07v9.99h-2.07v-9.99Zm12.1 9.99h-2.09l-4.08-7.1v7.1h-1.94v-9.99h2.19l3.98 6.97v-6.97h1.94v9.99Zm5.58-1.45c.49 0 .89-.05 1.2-.16.58-.2.87-.6.87-1.16a.85.85 0 0 0-.43-.76 4.66 4.66 0 0 0-1.36-.47l-1.06-.24a6.68 6.68 0 0 1-2.16-.76c-.67-.46-1-1.18-1-2.16 0-.9.32-1.64.97-2.23.65-.6 1.6-.9 2.87-.9 1.05 0 1.95.29 2.69.85a2.97 2.97 0 0 1 1.17 2.42h-2c-.04-.6-.3-1.02-.8-1.28a2.64 2.64 0 0 0-1.2-.25c-.54 0-.97.11-1.3.33-.31.22-.47.52-.47.9 0 .36.15.63.47.8.2.12.64.26 1.3.42l1.72.41c.76.18 1.33.43 1.71.73.6.47.9 1.15.9 2.04 0 .91-.36 1.67-1.06 2.27-.7.6-1.68.9-2.95.9-1.3 0-2.32-.29-3.07-.88a2.97 2.97 0 0 1-1.12-2.46h2a2 2 0 0 0 .37 1.03c.33.4.92.61 1.74.61Zm12.89-8.54v1.77h-3v8.22h-2.1v-8.22h-3v-1.77h8.1Zm6.04 7.93h-3.68l-.69 2.06h-2.18l3.56-9.99h2.36l3.54 9.99h-2.26l-.65-2.06Zm-.58-1.72-1.25-3.93-1.29 3.93h2.54Zm4.76-6.21h2.09v8.2h4.95v1.79h-7.04v-9.99Zm8.49 0h2.08v8.2h4.95v1.79h-7.03v-9.99Zm15.43 5.63h-4.85v2.56h5.53v1.8h-7.57v-9.99h7.33v1.77h-5.29v2.12h4.85v1.73Zm6.55.44h-2.16v3.92h-2.04v-9.99h4.9c.7.01 1.24.1 1.62.26.38.16.7.39.96.7a2.75 2.75 0 0 1 .7 1.9 3 3 0 0 1-.36 1.39c-.24.45-.63.78-1.18.97.46.18.79.45.97.79.2.34.3.86.3 1.56v.67c0 .46.01.77.05.93.05.26.18.45.38.57v.25h-2.3l-.13-.54a4.89 4.89 0 0 1-.1-.86v-.93c-.01-.63-.13-1.06-.36-1.27-.22-.21-.64-.32-1.25-.32Zm1.27-1.81c.41-.2.62-.57.62-1.13 0-.6-.2-1.01-.6-1.22a2.28 2.28 0 0 0-1.02-.18h-2.43v2.69h2.37c.47 0 .82-.06 1.06-.16Z"/><defs><clipPath id="a"><path fill="#fff" d="M0 0h135v61H0z" transform="translate(0 3)"/></clipPath><clipPath id="b"><path fill="#fff" d="M0 0h36.5v32.86H0z" transform="translate(219.7 7.75)"/></clipPath><clipPath id="c"><path fill="#fff" d="M0 0h8.35v8.18H0z" transform="translate(241.74 23.71)"/></clipPath></defs></svg>