<svg width="964" height="566" fill="none" xmlns="http://www.w3.org/2000/svg"><g clip-path="url(#a)" fill="#fff"><path d="m136.5 197.4-19.3-27.6 165.5 23.5 143.4-40-4 6.8-128.3 48.4-107.6 2.7-49.7-13.8Z"/><path d="m95.2 135.3 19.3 30.4L284 189 416.5 152l-128.3 23.4-193-40Z"/><path d="M91 131.1 49.6 70.4l237.3 87 128.2-9.7-125.5 23.5-198.6-40Z"/><path d="m0 0 45.5 64.9 241.4 87 133.7-8.3-132.4-2.8L23.4 7 0 0Z"/><path d="m49.6 15.2 240 120 135.2 4.2L49.6 15.2ZM200 215.4l60.7 17.9 60.6-9.7L422 167V163l-128.2 49.7-93.8 2.8Z"/><path d="m270.3 234.7 42.8 12.4 35.8-18 73.1-53.8v-4.1l-100.7 56.6-51 6.9Z"/><path d="m318.6 248.5 22 5.5 40-20.7 41.4-53.8-66.2 49.7-37.2 19.3Z"/><path d="m344.8 256.8 20.7 5.5 37.2-30.4 18-44.2-37.3 48.4-38.6 20.7Z"/><path d="m369.6 263.7 19.3 5.5 33.1-16.6 1.4-58-18 40-35.8 29ZM827.5 198.8l19.3-27.6-165.5 23.4-143.4-40 4 7 128.3 48.2 107.6 2.8 49.7-13.8Z"/><path d="M868.8 136.7 849.5 167 680 190.5l-132.4-37.3 128.3 23.5 193-40Z"/><path d="m873 132.5 41.4-60.7-237.3 87L549 149l125.5 23.5 198.6-40Z"/><path d="m964 1.4-45.5 64.9-241.4 87-133.7-8.3 132.4-2.8 264.8-134L964 1.5Z"/><path d="m914.4 16.6-240 120-135.2 4.2L914.4 16.6ZM764 216.7l-60.7 18-60.6-9.7L542 168.4v-4.1L670.2 214l93.8 2.7Z"/><path d="m693.7 236-42.8 12.5-35.8-18-73.1-53.8v-4.1l100.7 56.6 51 6.9Z"/><path d="m645.4 249.9-22 5.5-40-20.7-41.4-53.9 66.2 49.7 37.2 19.4Z"/><path d="m619.2 258.2-20.7 5.5-37.2-30.4-18-44.2 37.3 48.3 38.6 20.8Z"/><path d="m594.4 265-19.3 5.6L542 254l-1.4-58 18 40 35.8 29ZM533.7 273.3V158.8L506.1 189v22.1l-24.8 18-24.8-18v-22l-27.6-30.4v114.5l40 45.6v41.4H462l2.8 8.3 4.1-4.2h8.3l4.1 5.6 4.1-5.6h8.3l4.2 4.2 2.7-8.3h-6.9v-42.8l40-44.2Zm-48.3-5.5v92.5h-6.8v-92.5l-26.3-23.5v-26.2l29 20.7 29.7-22v25.5l-25.6 25.5Z"/><path d="m430.3 154.6 27.6 30.4 20.7-19.3v-13.8L463.4 131l-33.1 23.5ZM532.3 154.6 504.8 185 484 165.7v-13.8l15.1-20.8 33.1 23.5ZM428.9 278.9l24.8 56.6-4.1 19.3 15.2-2.8v-31.7l-35.9-41.4ZM533.7 278.9 509 335.5l4.1 19.3L498 352v-31.7l35.8-41.4Z"/><path d="m506.1 73.2 18 16.5-27.6-38.6-31.7-16.6L428.9 7l-13.8 6.9h9.7l16.5 23.5-5.5 93.8 45.5-23.4 46.9 29-22-63.5Zm-34.4-20.7L466 51v-5.5l11 9.6-5.4-2.7ZM237.2 419.7l41.4 26.2 177.9-85.6-219.3 59.4ZM326.9 429.3l24.8 18 107.5-81.5L327 429.3ZM324 474.9l29 18 109-123-138 105ZM371 481.8l24.8 11 69-118.7L371 481.8ZM390.3 513.5l27.6 16.6 52.4-154.6-80 138ZM474.4 378.3 451 445.9l13.8 4.1 9.6-71.7ZM480 372.7 457.8 555l20.7 11 1.3-193.3ZM485.4 372.7V526l18-7-18-146.3ZM491 378.3l22 172.5 30.4-18L491 378.4ZM496.5 376.9l23.4 70.4 11-11-34.4-59.4ZM500.6 372.7l78.6 138 27.6-16.5-106.2-121.5ZM504.8 370l66.2 75.9 15.1-13.8-81.3-62.1ZM507.5 364.4l138 106.3 35.8-22-173.8-84.3ZM508.9 360.3l144.8 69 29-22-173.8-47Z"/></g><defs><clipPath id="a"><path fill="#fff" d="M0 0h964v566H0z"/></clipPath></defs></svg>