<svg width="1738" height="274" viewBox="0 0 1738 274" fill="none" xmlns="http://www.w3.org/2000/svg">
<path d="M13.9824 32.9334H30.3947V71.9681H38.5662V87.2214H13.9824V32.9334ZM89.9498 68.8481H73.5375V29.8134H65.366V14.5601H89.9498V68.8481Z" fill="#BACCDB"/>
<path d="M10.1738 10.816H62.0422V55.3974L42.0981 29.6747H10.1738V10.816ZM93.6895 91.0347H41.8211V46.4534L61.7652 72.176H93.6895" fill="#125580"/>
<g clip-path="url(#clip0_3215_3325)">
<mask id="mask0_3215_3325" style="mask-type:luminance" maskUnits="userSpaceOnUse" x="207" y="20" width="130" height="64">
<path d="M207.377 20.1317V83.8682H272.425L336.101 20.1317H207.377Z" fill="white"/>
</mask>
<g mask="url(#mask0_3215_3325)">
<path d="M336.101 20.1317H207.377V83.887H336.101V20.1317Z" fill="url(#paint0_linear_3215_3325)"/>
</g>
<mask id="mask1_3215_3325" style="mask-type:luminance" maskUnits="userSpaceOnUse" x="197" y="-137" width="376" height="378">
<path d="M573 -136.235H197V240.235H573V-136.235Z" fill="white"/>
</mask>
<g mask="url(#mask1_3215_3325)">
<path d="M283.763 32.1036H271.092V62.2589L260.019 32.0848H249.04L239.583 57.3083C238.568 50.9459 232.007 48.7436 226.837 47.1059C223.415 46.0142 219.806 44.3953 219.843 42.6071C219.862 41.1389 221.78 39.7836 225.577 39.9906C228.134 40.1224 230.371 40.3295 234.846 42.4942L239.245 34.8142C235.165 32.7248 229.507 31.4259 224.882 31.4071H224.863C219.467 31.4071 214.974 33.1577 212.192 36.0377C210.255 38.0518 209.203 40.6118 209.165 43.4353C209.09 47.3318 210.519 50.0801 213.508 52.2824C216.046 54.1459 219.279 55.3506 222.118 56.2353C225.634 57.3271 228.51 58.2683 228.473 60.3012C228.454 61.0354 228.172 61.7318 227.645 62.2777C226.762 63.1812 225.427 63.5201 223.566 63.5577C219.975 63.633 217.305 63.0683 213.075 60.5648L209.165 68.3577C213.395 70.7671 218.396 72.1789 223.509 72.1789H224.167C228.604 72.0848 232.195 70.8236 235.071 68.5083C235.241 68.3765 235.391 68.2448 235.541 68.113L234.263 71.5201H245.769L247.705 65.6471C249.717 66.3436 252.029 66.7201 254.473 66.7201C256.917 66.7201 259.098 66.3624 261.072 65.7036L262.933 71.5201H281.695V59.3412H285.794C295.701 59.3412 301.548 54.2965 301.548 45.8448C301.548 36.433 295.871 32.1036 283.763 32.1036ZM254.473 57.9295C252.988 57.9295 251.615 57.6659 250.412 57.2142L254.435 44.5271H254.511L258.459 57.2518C257.274 57.6659 255.921 57.9295 254.473 57.9295ZM284.497 50.6259H281.695V40.4047H284.497C288.219 40.4047 291.189 41.6471 291.189 45.4495C291.189 49.2518 288.219 50.6259 284.497 50.6259Z" fill="white"/>
<path d="M287.864 79.6894C287.864 77.7317 289.33 76.2447 291.21 76.2447C293.09 76.2447 294.538 77.7317 294.538 79.6894C294.538 81.647 293.071 83.1341 291.21 83.1341C289.349 83.1341 287.864 81.6658 287.864 79.6894ZM291.21 83.8117C293.447 83.8117 295.365 82.0611 295.365 79.6705C295.365 77.28 293.447 75.567 291.21 75.567C288.973 75.567 287.018 77.3176 287.018 79.6705C287.018 82.0235 288.935 83.8117 291.21 83.8117ZM290.345 80.0094H291.172L292.413 82.0611H293.222L291.868 79.9717C292.582 79.8964 293.109 79.52 293.109 78.6541C293.109 77.7129 292.545 77.2988 291.436 77.2988H289.631V82.0423H290.345V79.9906V80.0094ZM290.345 79.407V77.9388H291.323C291.812 77.9388 292.357 78.0517 292.357 78.6353C292.357 79.3694 291.812 79.407 291.21 79.407H290.345Z" fill="#2F65AE"/>
<path d="M397.502 71.2378C397.426 68.7342 397.426 66.2307 397.483 63.746H378.795C378.513 62.9931 378.645 58.4566 378.683 57.346C384.454 48.8378 390.583 40.6684 396.374 32.179H405.567V56.9884H412.259V63.746L405.623 63.8025V71.2566H397.52L397.502 71.2378ZM387.368 56.9884H397.445L397.483 42.2119C393.911 46.9931 390.564 51.9437 387.368 56.9884Z" fill="#108ECE"/>
<path d="M356.556 71.2378C363.85 59.2472 369.866 46.4472 376.014 33.8542C376.146 33.5907 377.386 32.3295 377.612 32.179H385.508C385.47 32.5178 385.452 32.8566 385.414 33.1766C385.057 33.6284 384.549 34.0048 384.286 34.5319C379.718 43.8684 374.942 52.8848 370.054 62.0519C369.96 62.2589 370.092 62.5225 369.979 62.7295C368.438 65.5342 366.576 68.2637 365.242 71.2378H356.537H356.556Z" fill="#108ECE"/>
<path d="M483.869 71.1246C483.005 68.1882 482.008 65.2705 480.974 62.3905H467.513L464.468 71.1246H456.459C459.636 63.3694 461.779 55.614 464.524 47.9529C465.351 47.3317 469.262 35.0776 469.882 33.1764C470.033 32.7058 470.54 32.367 470.879 32.047H478.549C482.365 43.7176 487.479 55.727 490.863 67.4164C491.013 67.9435 491.841 68.9035 492.01 69.4305C492.047 69.6564 492.029 69.8823 492.047 70.1082L492.141 71.1246H483.869ZM477.609 56.1976H478.85C477.252 51.9246 475.654 47.3505 474.244 43.0211C473.078 45.5246 471.537 49.3458 470.728 51.9999C470.427 52.9035 469.882 55.2564 469.751 56.1976H477.609Z" fill="#108ECE"/>
<path d="M336.796 71.8025C335.649 71.6519 333.769 70.9554 332.773 70.466C332.322 70.2401 329.746 68.7154 329.427 68.4331C327.227 66.6072 326.475 64.7248 324.727 62.9366C325.328 62.1836 325.873 61.4495 326.738 61.0542C328.129 60.4142 329.032 59.5107 330.103 59.0213C330.479 58.8331 330.912 58.7577 331.344 58.7766C332.378 59.7177 333.751 62.0707 335.461 63.5766C335.461 63.5766 337.999 64.913 338.15 64.913C340.594 65.2142 343.113 65.3648 345.519 64.913C346.365 64.7436 348.189 62.8425 348.433 62.0519C349.129 59.7366 347.963 58.1366 346.196 57.1201C343.057 55.313 338.281 54.8425 334.785 53.6754C334.315 53.5248 332.547 52.5836 332.096 52.3766C329.991 51.3413 327.847 49.5154 327.039 47.313C326.362 45.4872 326.4 43.906 326.381 41.9483C326.381 41.5154 326.851 39.0119 327.077 38.5977C327.772 37.2989 329.521 35.1719 330.761 34.2307C331.307 33.8166 334.108 32.273 334.785 32.2354C335.687 32.1978 338.733 31.5577 338.808 31.5577C339.033 31.5577 339.259 31.5577 339.485 31.5577C341.534 31.4448 343.752 32.1036 346.196 32.2542C346.196 32.2542 351.235 34.626 351.554 34.9083C353.096 36.2072 354.825 37.7695 355.991 39.4072C354.525 41.0072 351.836 43.153 350.031 44.226C349.749 43.9248 349.467 43.6236 349.185 43.3225C349.185 42.6448 348.001 41.553 347.512 41.1766C346.892 40.6872 344.185 39.1625 343.489 39.0683C341.665 38.8048 339.259 38.7483 337.454 39.1248C336.383 39.3507 334.879 40.913 334.653 41.986C334.521 42.6072 334.954 44.2636 335.217 44.6778C335.33 44.8283 336.627 46.1836 336.796 46.2401C340.199 47.7648 343.827 48.8189 347.531 49.6472C348.076 49.7601 351.705 51.3036 352.231 51.7177C354.337 53.393 355.728 54.9742 356.593 57.4213C356.818 58.0613 356.781 62.8048 356.593 63.4636C356.329 64.3483 355.164 66.7954 354.581 67.4919C354.261 67.8495 351.742 69.7883 351.554 69.8825C347.08 72.4801 341.797 72.386 336.815 71.8777" fill="#108ECE"/>
<path d="M447.022 71.1435C446.947 65.5529 447.022 59.9623 447.022 54.3717H431.681V71.1435H423.973C423.541 70.9741 422.977 70.56 422.977 70.0894C422.827 57.4211 422.977 44.7529 422.977 32.0847L431.7 32.0282V46.9176H447.041V32.1223H455.294V71.1435H447.041H447.022Z" fill="#108ECE"/>
<path d="M518.238 71.1246C512.88 62.8611 507.352 54.6917 501.806 46.5599L500.885 46.5035L500.848 71.1246H493.365V32.047L501.919 32.1035C507.033 40.6305 512.974 48.7058 518.181 57.2705V32.0846H526.246V70.1082C526.04 70.5599 525.72 71.0682 525.231 71.1246C522.956 71.3129 520.569 71.1246 518.275 71.1246" fill="#108ECE"/>
<path d="M554.446 71.1247C553.487 68.2071 552.529 65.2894 551.532 62.3906H537.996C536.981 65.2518 535.947 68.2636 535.026 71.1247H527.205C531.755 58.0424 536.417 45.0542 541.079 32.0659C543.617 32.0659 546.155 32.0659 548.693 32.0659C549.107 32.3483 549.539 32.7247 549.709 33.2141C553.619 44.7341 557.811 57.7224 562.436 68.7906C562.681 69.3741 562.662 70.4847 562.643 71.1436H554.465L554.446 71.1247ZM547.998 56.1977H548.975C549.013 55.5765 549.088 54.6165 548.844 53.9953C547.584 50.6071 546.494 47.4447 545.497 43.9247C545.253 43.04 544.971 42.193 544.651 43.04C543.016 47.3694 541.512 51.7365 540.083 56.1789H547.998V56.1977Z" fill="#108ECE"/>
</g>
</g>
<path d="M690.65 81.5C687.15 81 681.3 79.15 678.4 77.7L676 76.5L678.7 71.4C680.2 68.55 681.7 66.2 682 66.1C682.3 66 683.6 66.4 684.9 67.05C688.85 68.9 691.45 69.5 695.9 69.5C700.45 69.5 702.4 68.8 703.5 66.7C705.1 63.75 702.9 61.9 694.75 59.25C685.05 56.1 679.55 52.4 677.3 47.5C676.5 45.8 676.3 44.25 676.3 41C676.3 36.6 676.3 36.55 679.4 31.9C681.05 29.35 685 26.8 689.6 25.25C696.3 23.05 705.75 23.65 714.75 26.85C717.75 27.9 718.75 28.5 718.7 29.1C718.65 29.6 717.4 32.1 715.95 34.75C714.05 38.1 713 39.45 712.5 39.3C712.1 39.15 710.2 38.5 708.3 37.75C700.55 34.85 691.5 35.9 691.5 39.75C691.5 41.9 694.65 43.8 702.9 46.7C712.65 50.1 716.9 53 719 57.65L719.95 59.7L720.95 57.35C721.5 56.1 723.4 51.15 725.2 46.4C731.55 29.45 732.95 25.9 733.55 25.2C734 24.65 735.65 24.5 740.7 24.5C744.3 24.5 747.75 24.65 748.35 24.8C749.15 25 749.75 26.05 750.75 28.9C752.15 32.85 760.3 54.9 763.15 62.5L764.75 66.75L765 45.75L765.25 24.75L777.25 24.8C786.2 24.85 790.2 25.05 792.9 25.65C800.15 27.25 804.55 30.25 807 35.25C808.6 38.6 809 46.5 807.8 50.65C806.35 55.65 802.15 59.95 796.65 62C794.45 62.85 792.15 63.2 787 63.4L780.25 63.75L780.1 72.4L780 81H766.6H753.25L752.05 76.95L750.8 72.9L748.8 73.3C746.55 73.8 737.1 73.9 733.55 73.5L731.35 73.25L730.05 77.15L728.8 81H720.65C715.8 81 712.5 80.8 712.5 80.5C712.5 80.25 712.75 79.45 713.1 78.75C713.8 77.15 713.3 76.6 712.1 77.65C710.7 78.95 705.9 80.85 702.75 81.45C699.5 82.05 694.6 82.05 690.65 81.5ZM746.1 60.6C746.55 60.15 746.5 59.45 745.9 57.4C742.55 46.35 741.35 42.95 741.05 43.3C740.85 43.55 740.1 45.65 739.35 48C738.65 50.35 737.45 54.05 736.8 56.25C736.1 58.45 735.7 60.4 735.9 60.55C737 61.6 745.05 61.65 746.1 60.6ZM789.7 50.3C793.25 48.8 794.8 44.5 793.05 40.85C791.6 37.9 789.2 36.8 784.05 36.75H780.25L780.1 43.9L779.95 51H784C786.3 51 788.75 50.7 789.7 50.3Z" fill="#999999"/>
<path d="M838.5 44.1C836.15 42.95 835.55 41 835.55 34.65L835.5 29.5H837.25H839V34.4C839 40.15 839.6 41.5 842.2 41.5C844.9 41.5 845.45 40.4 845.6 34.75L845.75 29.75L847.4 29.6L849 29.45V36.95V44.5H847.25C846.1 44.5 845.5 44.25 845.5 43.8C845.5 43.25 845.1 43.3 843.65 44.05C841.35 45.2 840.7 45.25 838.5 44.1Z" fill="#999999"/>
<path d="M853.85 44.1999C851.2 43.3999 850.45 42.3499 851.6 41.1499C852.3 40.4999 852.55 40.4999 853.95 41.2499C856.2 42.3999 859.2 42.0999 859.4 40.6999C859.55 39.7999 858.95 39.3999 855.9 38.1999C852.75 36.9499 852.2 36.5499 851.85 35.1499C851.2 32.9499 851.7 31.3999 853.45 30.3499C855.25 29.2999 857.95 29.2499 860.25 30.1999C862.05 30.9499 862.45 31.8499 861.45 32.8499C861.05 33.2499 860.45 33.1999 859.2 32.6999C857.05 31.7999 856.25 31.7999 855.25 32.7999C854.15 33.8999 854.9 34.6499 858.45 35.9499C862.1 37.2499 862.6 37.8499 862.4 40.5499C862.15 44.1499 858.55 45.6999 853.85 44.1999Z" fill="#999999"/>
<path d="M891.801 44.5C886.001 42.75 884.951 33.65 890.151 30.5C894.901 27.55 901.351 31.1 900.901 36.4L900.751 38.25L895.651 38.4C890.051 38.55 889.501 38.9 891.651 40.9C893.051 42.2 895.751 42.35 897.401 41.2C898.451 40.45 898.651 40.45 899.501 41.25C900.701 42.35 900.401 42.85 897.801 44.05C895.601 45.05 894.101 45.15 891.801 44.5ZM897.501 35.05C897.501 33.9 895.251 32 893.901 32C892.851 32 890.001 34.55 890.001 35.45C890.001 35.8 891.401 36 893.751 36C897.101 36 897.501 35.9 897.501 35.05Z" fill="#999999"/>
<path d="M906.5 44.7C904.3 43.9 902 42.8 902 42.55C902 42.4 902.35 41.85 902.75 41.3C903.4 40.4 903.55 40.4 905.2 41.2C907.55 42.3 909.85 42.25 910.45 41.05C911.1 39.85 910.6 39.4 907.3 38.3C903.8 37.15 903 36.3 903 33.65C903 31.75 903.2 31.35 904.65 30.5C906.55 29.3 909.35 29.2 911.75 30.2C913.65 31 913.9 31.55 912.75 32.5C912.15 33 911.55 33 909.75 32.5C907.4 31.85 906 32.3 906 33.75C906 34.3 910.3 36.5 911.4 36.5C912.2 36.5 914 38.8 914 39.9C914 41.4 913.1 43.2 912 43.9C910.85 44.6 907.55 45.1 906.5 44.7Z" fill="#999999"/>
<path d="M917.799 44.1C915.049 43.15 914.649 42.65 915.649 41.3C916.299 40.45 916.399 40.45 917.899 41.2C920.449 42.55 923.499 42.15 923.499 40.5C923.499 39.85 922.549 39.2 919.949 38.25C917.349 37.25 916.299 36.55 915.949 35.65C915.149 33.45 915.449 32.15 917.099 30.75C918.549 29.5 918.999 29.4 921.649 29.65C925.199 29.95 926.699 31 925.399 32.3C924.749 32.95 924.349 33 922.649 32.5C921.149 32.05 920.399 32 919.549 32.45C917.949 33.3 918.949 34.7 921.849 35.7C926.149 37.15 927.399 39.35 925.749 42.5C925.249 43.5 924.399 44.1 923.099 44.45C920.749 45.15 920.749 45.15 917.799 44.1Z" fill="#999999"/>
<path d="M817.6 34.65L817.75 24.75H823C829.05 24.8 831.2 25.45 832.3 27.65C833.25 29.45 832.9 32 831.5 33.25C830.5 34.15 830.5 34.2 832.25 35.6C833.7 36.8 834 37.4 834 38.95C834 41.4 832.5 43.3 830.1 44C829.1 44.25 825.85 44.5 822.85 44.5H817.5L817.6 34.65ZM829.55 40.45C830.85 39.15 830.6 37.45 829 36.65C828.3 36.3 826.25 36 824.4 36H821V38.75V41.5H824.75C827.85 41.5 828.65 41.35 829.55 40.45ZM828.6 32.15C829.7 31.15 829.75 30.1 828.65 28.9C828 28.2 827.1 28 824.4 28H821V30.5V33H824.35C826.75 33 827.95 32.75 828.6 32.15Z" fill="#999999"/>
<path d="M865 37V29.5H866.75H868.5V37V44.5H866.75H865V37Z" fill="#999999"/>
<path d="M871.5 37.05V29.5H872.9C873.65 29.5 874.55 29.75 874.9 30.1C875.35 30.55 875.8 30.55 876.75 30.1C878.35 29.35 880.6 29.35 882.15 30.05C884.25 31 884.7 32.4 884.9 38.65L885.1 44.5H883.3H881.5V39.5C881.5 35.15 881.35 34.35 880.5 33.5C879.25 32.25 877.45 32.2 876.05 33.4C875.15 34.15 875 34.9 874.9 39.25L874.75 44.25L873.15 44.4L871.5 44.55V37.05Z" fill="#999999"/>
<path d="M865.05 26.4C864.4 24.7 864.9 24 866.85 24C868.5 24 868.55 24.05 868.4 25.65C868.3 27 868 27.3 866.85 27.4C865.8 27.55 865.4 27.3 865.05 26.4Z" fill="#999999"/>
<path d="M826.501 81.05C822.001 79.6 817.801 75.85 815.851 71.6C814.251 68.1 814.351 61.2 816.001 57.75C817.701 54.3 821.351 50.8 824.851 49.45C829.151 47.75 835.251 47.8 839.051 49.6C842.701 51.25 845.751 54.05 847.401 57.2C848.601 59.45 848.751 60.3 848.751 64.75C848.751 70.5 848.001 72.45 844.201 76.5C841.051 79.85 837.901 81.15 832.251 81.3C829.801 81.4 827.201 81.3 826.501 81.05ZM837.351 73.2C840.251 70.9 841.601 67.9 841.401 64.2C841.051 58.65 837.201 54.9 831.751 54.8C823.601 54.7 819.201 64.5 824.301 71.3C827.201 75.25 833.651 76.15 837.351 73.2Z" fill="#F1AA00"/>
<path d="M885.601 80.7499C882.751 79.4999 880.601 77.4999 879.251 74.8499C876.701 69.6999 878.001 62.1999 882.051 58.7999C884.801 56.4499 886.751 55.8999 891.051 56.0999C894.351 56.2499 895.251 56.4499 897.101 57.7499C899.801 59.6499 901.801 63.5499 902.251 67.8999L902.601 70.9999H893.801C887.751 70.9999 885.001 71.1499 885.001 71.5499C885.001 72.5999 887.001 74.8999 888.501 75.4999C890.451 76.2999 893.551 75.8999 895.451 74.4999L897.001 73.4499L898.951 75.0999C900.751 76.5499 900.901 76.8499 900.301 77.7499C899.951 78.2999 898.501 79.3499 897.001 80.1499C894.801 81.2499 893.701 81.4999 890.801 81.4999C888.851 81.4499 886.501 81.1499 885.601 80.7499ZM895.001 65.6999C895.001 64.0999 893.001 62.0499 891.151 61.6999C888.301 61.1499 885.001 63.4999 885.001 65.9999C885.001 66.2999 887.151 66.4999 890.001 66.4999C894.251 66.4999 895.001 66.3999 895.001 65.6999Z" fill="#F1AA00"/>
<path d="M852 68.5V56H855.5H859V57.5C859 58.35 859.25 59 859.5 59C859.8 59 860 58.8 860 58.6C860 58.35 860.85 57.7 861.95 57.1C864.65 55.6 868.75 55.6 871 57.15C874.4 59.4 874.75 60.65 874.9 71.4L875.1 81H871.3H867.5V72.75C867.5 65.15 867.4 64.4 866.5 63.5C864.95 61.95 861.85 62 860.25 63.55C859.35 64.45 859.25 65.3 859.1 72.75L858.95 81H855.45H852V68.5Z" fill="#F1AA00"/>
<path d="M1047.8 76.2344C1043.15 75.8562 1038.43 74.55 1034.11 72.4359L1031.72 71.2672L1031.99 70.614C1032.26 69.9609 1036.84 60.9031 1036.96 60.7828C1037 60.7484 1037.48 60.9547 1038.01 61.264C1040.64 62.725 1043.44 63.8594 1045.53 64.289C1047.27 64.65 1051.29 64.8047 1052.93 64.5812C1054.55 64.3406 1055.58 63.8937 1056.36 63.0515C1057.37 62.0031 1057.81 60.8 1057.59 59.7344C1057.44 58.9265 1056.31 57.7922 1054.99 57.0875C1054.34 56.7437 1051.93 55.85 1049.66 55.0937C1043.37 52.9969 1040.23 51.5531 1037.36 49.4219C1033.41 46.4656 1031.51 42.3062 1031.79 37.1328C1031.9 34.8125 1032.25 33.4719 1033.19 31.4609C1034.09 29.5015 1035.46 27.7484 1037.12 26.4078C1041.07 23.2109 1045.65 21.6469 1051.64 21.4578C1055.73 21.3203 1059.18 21.7328 1063.69 22.8844C1066.8 23.6922 1071.38 25.3422 1071.97 25.875C1072.08 25.9953 1071.5 27.164 1070.07 29.6562C1069.88 29.9828 1068.97 31.5812 1068.05 33.1797C1067.15 34.7953 1066.34 36.1531 1066.27 36.2219C1066.22 36.2906 1065.74 36.1531 1065.23 35.9125C1064.72 35.6719 1063.49 35.1562 1062.51 34.7953C1057.23 32.7672 1051.08 32.3547 1048.14 33.8672C1046.94 34.4687 1046.09 35.5515 1046.09 36.4453C1046.09 38.3531 1049.63 40.6047 1055.83 42.65C1063.35 45.125 1066.26 46.6031 1068.99 49.4047C1070.65 51.1062 1071.45 52.3609 1072.08 54.2859C1072.34 55.025 1072.58 55.6609 1072.61 55.7125C1072.7 55.7812 1073.38 53.9937 1076.84 44.6953C1077.6 42.6156 1078.43 40.45 1078.65 39.8828C1078.85 39.3156 1079.31 38.0781 1079.67 37.1328C1080.01 36.1875 1080.53 34.8297 1080.78 34.125C1081.06 33.4203 1081.55 32.0969 1081.88 31.2031C1082.22 30.3094 1083.09 27.9547 1083.84 25.9609L1085.19 22.3515L1092.61 22.3L1100.03 22.2656L1102.01 27.714C1103.99 33.1625 1108.42 45.2453 1111.84 54.5781C1112.83 57.2765 1113.87 60.1812 1114.16 61.0234L1114.71 62.5703L1114.76 42.4094L1114.79 22.2484L1125.7 22.3172C1137.01 22.3859 1137.8 22.4375 1141.51 23.2109C1148.92 24.7578 1153.38 28.6078 1155.08 34.9156C1155.5 36.514 1155.54 36.8578 1155.54 40.4844C1155.55 45.2453 1155.28 46.6203 1153.69 49.714C1151.01 54.9562 1145.64 58.0844 1138.05 58.8578C1137.08 58.9609 1134.69 59.0469 1132.72 59.0469H1129.15V67.2109V75.375L1116.49 75.3406L1103.82 75.289L1102.69 71.6797C1102.06 69.7031 1101.48 67.9844 1101.41 67.864C1101.33 67.7094 1101 67.7437 1100.16 67.9844C1095.79 69.239 1089.53 69.239 1084.89 67.9844C1083.79 67.6922 1083.59 67.675 1083.43 67.8984C1083.35 68.0187 1082.73 69.7719 1082.07 71.7828C1081.42 73.7766 1080.82 75.4094 1080.75 75.3922C1080.66 75.3922 1077.23 75.375 1073.09 75.375C1066.03 75.375 1065.57 75.3578 1065.57 75.0828C1065.59 74.9109 1065.88 74 1066.26 73.0547C1066.62 72.1094 1066.89 71.3016 1066.85 71.2844C1066.82 71.25 1066.29 71.6109 1065.66 72.075C1061.33 75.375 1055.18 76.8015 1047.8 76.2344ZM1094.11 56.9844C1096.28 56.7437 1097.7 56.3484 1097.7 55.9531C1097.7 55.5578 1092.78 39.5906 1092.59 39.4015C1092.46 39.264 1092.17 40.1062 1089.84 47.5312C1089.26 49.3703 1088.44 51.9484 1088.03 53.2547C1087.62 54.5609 1087.28 55.7469 1087.28 55.8672C1087.28 56.0047 1087.41 56.1765 1087.59 56.2797C1087.98 56.4859 1090.25 56.9672 1091.21 57.0359C1091.64 57.0703 1092.1 57.1047 1092.23 57.1219C1092.37 57.139 1093.23 57.0703 1094.11 56.9844ZM1137.05 46.689C1138.5 46.2078 1138.89 46.0015 1139.73 45.2453C1141.27 43.8531 1141.92 42.0656 1141.73 39.7281C1141.56 37.4765 1140.52 35.7234 1138.74 34.7609C1137.23 33.9359 1135.52 33.6094 1132.19 33.489L1129.15 33.3859V40.2953V47.2219L1132.53 47.1531C1135.39 47.0844 1136.07 47.0156 1137.05 46.689Z" fill="#8B8C8E"/>
<path d="M1182.95 41.1203C1181.45 40.6906 1180.3 39.5047 1179.84 37.9234C1179.62 37.15 1179.57 36.05 1179.57 31.9422V26.9062H1181.19H1182.81V31.2547C1182.81 33.8672 1182.88 35.8609 1183 36.2734C1183.24 37.15 1184.11 37.9922 1185.02 38.25C1185.91 38.4906 1187.34 38.1297 1187.89 37.5281C1188.85 36.4797 1188.88 36.2563 1188.93 31.4266L1188.98 26.9062H1190.61H1192.21V33.9531V41H1190.59C1189.41 41 1188.97 40.9484 1188.95 40.7938C1188.95 40.6734 1188.95 40.2266 1188.97 39.7969L1189 39.0406L1188.15 39.8312C1187.68 40.2781 1187 40.7594 1186.64 40.9141C1185.74 41.2922 1183.94 41.3953 1182.95 41.1203Z" fill="#8B8C8E"/>
<path d="M1198.28 41.1375C1197.72 41.0859 1196.83 40.8625 1196.3 40.6734C1195.26 40.2781 1193.75 39.35 1193.75 39.0921C1193.75 38.8515 1194.98 37.0468 1195.14 37.0468C1195.22 37.0468 1195.67 37.2703 1196.11 37.5625C1197.29 38.2843 1198.3 38.6109 1199.48 38.6281C1200.81 38.6281 1201.41 38.3875 1201.68 37.7171C1202.16 36.5656 1201.68 36.1531 1198.81 35.2421C1195.41 34.1421 1194.44 33.1968 1194.44 30.9796C1194.44 29.1921 1195.17 28.0234 1196.79 27.2156C1197.87 26.7 1200.08 26.5968 1201.6 26.9921C1202.49 27.2156 1204.21 27.9375 1204.5 28.2125C1204.64 28.3328 1203.27 30.5328 1203.1 30.4468C1201.44 29.7078 1200.5 29.4156 1199.56 29.3468C1198.54 29.2781 1198.4 29.3125 1197.89 29.7421C1196.73 30.7218 1197.41 31.5812 1200.18 32.5609C1202.91 33.5234 1203.61 33.9187 1204.35 34.9843C1204.71 35.5 1204.78 35.775 1204.78 36.875C1204.76 38.7484 1204.06 39.9171 1202.42 40.7765C1201.77 41.1031 1199.65 41.2921 1198.28 41.1375Z" fill="#8B8C8E"/>
<path d="M1232.65 41.1546C1230.72 40.6906 1228.63 38.8859 1227.9 37.0468C1227.57 36.2562 1227.51 35.775 1227.51 33.9359C1227.51 31.7875 1227.51 31.7875 1228.16 30.4812C1228.86 29.0375 1229.97 27.8859 1231.23 27.2843C1233.74 26.0984 1237.06 26.5968 1238.84 28.4359C1240.14 29.7765 1240.92 31.8906 1240.92 34.0906V35.1562H1235.79C1231.81 35.1562 1230.67 35.2078 1230.67 35.3796C1230.67 35.4828 1230.86 35.9812 1231.08 36.4625C1231.74 37.9062 1232.91 38.5937 1234.67 38.5937C1235.78 38.5937 1237.23 38.0437 1237.97 37.3562C1238.41 36.9437 1238.67 37.0468 1239.64 38.0781L1240.32 38.8L1239.55 39.4875C1238.61 40.3296 1237.83 40.7421 1236.53 41.0859C1235.45 41.3609 1233.69 41.3953 1232.65 41.1546ZM1237.67 32.6296C1237.67 32.114 1236.89 30.6187 1236.38 30.1546C1235.03 28.9171 1232.82 29.1062 1231.62 30.5328C1231.06 31.1859 1230.67 32.0453 1230.67 32.5781C1230.67 32.9046 1230.77 32.9218 1234.17 32.9218C1237.4 32.9218 1237.67 32.9046 1237.67 32.6296Z" fill="#8B8C8E"/>
<path d="M1258.1 41.1718C1257.64 41.1031 1256.87 40.8968 1256.39 40.7421C1255.57 40.4499 1253.57 39.3499 1253.57 39.1609C1253.57 39.0406 1254.78 37.2359 1254.94 37.1328C1255.02 37.0812 1255.64 37.3562 1256.34 37.7171C1258.47 38.8687 1260.54 38.989 1261.4 37.9921C1262.3 36.9265 1261.62 36.1531 1259 35.3281C1256.75 34.6062 1255.81 34.1249 1255.14 33.3687C1253.79 31.8218 1254.08 29.1578 1255.74 27.7828C1257.38 26.4249 1260.61 26.3734 1263.45 27.6796C1263.93 27.9031 1264.34 28.1781 1264.34 28.2984C1264.34 28.4703 1263.41 30.2578 1263.21 30.4984C1263.17 30.5328 1262.59 30.3093 1261.93 29.9999C1260.32 29.2609 1258.71 29.1234 1257.89 29.639C1257.43 29.9312 1257.33 30.1031 1257.33 30.5843C1257.33 31.3062 1257.79 31.7187 1259.09 32.1999C1259.58 32.3718 1260.58 32.7328 1261.33 33.0078C1263.79 33.8843 1264.69 34.9499 1264.69 36.9265C1264.69 39.2984 1263.28 40.8109 1260.7 41.1546C1259.96 41.2578 1259.26 41.3265 1259.16 41.3265C1259.04 41.3093 1258.58 41.2406 1258.1 41.1718Z" fill="#8B8C8E"/>
<path d="M1244.77 40.8109C1243.57 40.4327 1242.14 39.6593 1241.9 39.2812C1241.78 39.0749 1241.9 38.7484 1242.36 38.0265C1242.7 37.4937 1243.06 37.0468 1243.14 37.0468C1243.23 37.0468 1243.57 37.2359 1243.91 37.4765C1245.13 38.3015 1246.67 38.6968 1248.31 38.6109C1248.97 38.5765 1249.81 37.8031 1249.81 37.2187C1249.81 36.4624 1249.01 35.9296 1246.85 35.2421C1243.9 34.314 1242.85 33.5234 1242.46 31.9077C1242.03 30.0859 1242.85 28.264 1244.53 27.3531C1246.22 26.4249 1249.35 26.5796 1251.57 27.6968C1252.01 27.9374 1252.37 28.2296 1252.37 28.3671C1252.37 28.7281 1251.35 30.5156 1251.16 30.5156C1251.07 30.5156 1250.82 30.4124 1250.61 30.2749C1249.95 29.8452 1248.13 29.3124 1247.33 29.3124C1245.98 29.3124 1245.21 29.9827 1245.4 30.9624C1245.49 31.4609 1246.44 31.9937 1248.43 32.664C1250.63 33.4031 1251.67 34.0218 1252.32 35.0015C1252.72 35.6031 1252.78 35.8952 1252.78 36.8577C1252.78 38.7999 1251.89 40.1234 1250.12 40.8452C1249.06 41.2921 1246.15 41.2749 1244.77 40.8109Z" fill="#8B8C8E"/>
<path d="M1162.48 31.6328V22.2656H1167.06C1173.21 22.2656 1174.46 22.5578 1175.94 24.2422C1177.46 25.9953 1177.29 28.9516 1175.59 30.4641C1175.26 30.7562 1174.88 31.0312 1174.75 31.1C1174.63 31.1516 1174.59 31.2375 1174.7 31.2891C1177.28 32.6125 1178.17 33.9703 1177.98 36.2906C1177.81 38.6453 1176.39 40.1063 1173.72 40.7422C1172.9 40.9312 1171.45 41 1167.57 41H1162.48V31.6328ZM1172.85 37.8031C1173.89 37.4594 1174.18 37.1844 1174.54 36.2563C1174.88 35.3625 1174.78 34.8469 1174.1 34.0734C1173.33 33.1797 1172.47 33.0078 1168.89 33.0078H1165.81L1165.78 35.3281C1165.74 36.6 1165.76 37.7516 1165.81 37.8719C1165.93 38.2156 1171.79 38.1641 1172.85 37.8031ZM1172.37 29.7422C1173.23 29.2266 1173.64 28.5906 1173.65 27.6969C1173.67 26.7516 1173.24 26.0984 1172.29 25.6172C1171.72 25.325 1171.21 25.2734 1168.99 25.2391C1167.54 25.2047 1166.2 25.2219 1166.03 25.2906C1165.76 25.3766 1165.72 25.6 1165.72 27.6625C1165.72 28.9172 1165.78 30 1165.86 30.0688C1165.93 30.1375 1167.3 30.1719 1168.89 30.1375C1171.41 30.0859 1171.86 30.0344 1172.37 29.7422Z" fill="#8B8C8E"/>
<path d="M1206.91 33.9531V26.9062H1208.54H1210.16V33.9531V41H1208.54H1206.91V33.9531Z" fill="#8B8C8E"/>
<path d="M1213.03 40.8281C1213.01 40.7422 1213 37.5625 1213.03 33.7813L1213.06 26.9063H1214.69H1216.31V27.8688V28.8313L1217.01 28.1094C1218 27.0953 1219.03 26.6656 1220.5 26.6656C1222.74 26.6656 1224.19 27.4906 1225.04 29.261C1225.45 30.0688 1225.45 30.2063 1225.51 35.5516L1225.56 41H1223.93H1222.31L1222.26 36.2219L1222.21 31.4266L1221.73 30.8078C1221.11 30 1220.38 29.6219 1219.4 29.6047C1218.29 29.5875 1217.29 30.1547 1216.74 31.0828L1216.31 31.8391V36.411V41H1214.7C1213.78 41 1213.06 40.9313 1213.03 40.8281Z" fill="#8B8C8E"/>
<path d="M1206.74 23.2109V21.75H1208.53H1210.33V23.2109V24.6719H1208.53H1206.74V23.2109Z" fill="#8B8C8E"/>
<path d="M1192.98 82.3531C1192.42 82.2156 1191.48 81.9062 1190.9 81.6484C1189.6 81.0812 1189.58 80.9266 1190.39 79.225C1190.69 78.5719 1191.14 77.6266 1191.38 77.1453C1191.6 76.6469 1191.87 76.2344 1191.97 76.2344C1192.08 76.2344 1192.54 76.4063 1193 76.5953C1194.11 77.0938 1195.46 77.1109 1196.09 76.6469C1196.83 76.0969 1197.05 75.5297 1196.76 74.9281C1196.62 74.6531 1196.16 73.4672 1195.72 72.2812C1194.66 69.5141 1194.25 68.4484 1192.66 64.375C1191.94 62.5359 1190.93 59.9406 1190.42 58.6172C1189.92 57.2937 1189.15 55.3344 1188.73 54.2687C1188.3 53.1859 1187.94 52.2406 1187.94 52.1547C1187.94 52.0516 1189.39 52.0172 1191.48 52.0344L1195 52.0859L1197.6 59.9062L1200.2 67.7266L1201.43 63.8594C1202.09 61.7281 1202.76 59.6828 1202.9 59.3047C1203.02 58.9266 1203.6 57.1219 1204.18 55.3172L1205.24 52H1208.64C1211.39 52 1212.04 52.0516 1212.04 52.2406C1212.04 52.3609 1211.58 53.7359 1211 55.2828C1210.42 56.8297 1209.73 58.6859 1209.48 59.3906C1209.01 60.6625 1205.32 70.4766 1203.75 74.6875C1202.59 77.7469 1202.09 78.8297 1201.31 79.8609C1199.84 81.8031 1198.54 82.4219 1195.8 82.525C1194.66 82.5594 1193.63 82.5078 1192.98 82.3531Z" fill="#FFB70D"/>
<path d="M1308 82.4046C1305.49 82.1468 1301.7 81.0125 1300.72 80.2047C1300.38 79.9297 1300.36 79.8781 1300.6 79.4828C1300.76 79.2593 1301.24 78.2281 1301.7 77.214C1302.14 76.1828 1302.6 75.3062 1302.72 75.2547C1302.82 75.2203 1303.32 75.375 1303.78 75.6156C1306.23 76.8531 1309.63 77.489 1311.97 77.1281C1314.82 76.6812 1316.43 75.3062 1316.94 72.8828C1317.2 71.6797 1317.37 70.0468 1317.23 70.0468C1317.16 70.0468 1316.62 70.5109 1315.98 71.0781C1314.69 72.2812 1313.22 73.0547 1311.76 73.3297C1310.28 73.6047 1307.37 73.4328 1306.17 73.0031C1303.27 71.9547 1300.93 69.6343 1299.97 66.85C1298.43 62.3812 1299.32 57.5859 1302.24 54.6125C1304.26 52.5672 1306.62 51.6047 1309.63 51.5875C1312.38 51.5703 1314.24 52.275 1316.19 54.0797L1317.15 54.9562V53.4781V52H1320.5H1323.83L1323.76 62.6218C1323.69 74.3609 1323.69 74.4468 1322.56 76.8359C1321.95 78.1422 1320.6 79.7406 1319.47 80.514C1318.48 81.2015 1316.6 81.9062 1315.1 82.1812C1313.32 82.4906 1309.85 82.5937 1308 82.4046ZM1313.18 67.7437C1317.54 66.6093 1318.62 60.7312 1314.96 58.1531C1313.85 57.3797 1312.58 57.0875 1310.89 57.1906C1307.25 57.4312 1304.98 61.1093 1306.33 64.5984C1307.32 67.1593 1310.26 68.5172 1313.18 67.7437Z" fill="#FFB70D"/>
<path d="M1251.6 75.4781C1249.31 74.7391 1247.33 73.4156 1245.88 71.6625C1244.03 69.4453 1242.96 65.5609 1243.31 62.45C1243.66 59.6312 1244.41 57.7578 1246.03 55.7125C1247.18 54.2859 1248.31 53.4094 1250 52.6187C1253.23 51.1234 1256.82 51.1578 1260.06 52.7219C1262.82 54.0453 1264.85 56.6922 1265.72 60.0781C1265.99 61.1609 1266.1 62.0719 1266.11 63.7562L1266.13 66.0078L1258.06 66.0594C1252.34 66.0766 1249.98 66.1453 1249.98 66.2828C1249.98 66.8156 1251.09 68.7234 1251.72 69.2562C1252.89 70.2531 1254.05 70.6141 1255.96 70.5281C1257.79 70.4594 1258.83 70.0812 1260.29 68.9469C1260.75 68.5859 1261.23 68.3453 1261.36 68.3969C1261.86 68.5859 1264.85 71.3531 1264.85 71.6109C1264.85 72.1094 1262.7 73.9656 1261.29 74.6703C1259.41 75.6156 1258 75.8906 1255.16 75.8734C1253.21 75.8734 1252.59 75.7875 1251.6 75.4781ZM1259.48 61.0062C1259.35 59.975 1258.37 58.3594 1257.55 57.8094C1256.1 56.8125 1254.39 56.6578 1252.89 57.3797C1252.36 57.6375 1251.72 58.05 1251.48 58.3078C1250.9 58.9266 1249.98 60.7828 1249.98 61.35V61.7969H1254.78H1259.6L1259.48 61.0062Z" fill="#FFB70D"/>
<path d="M1274.42 75.6328C1273.02 75.3234 1271.55 74.7906 1270.23 74.1203C1269.11 73.5531 1267.58 72.5047 1267.58 72.2812C1267.58 71.9719 1270.2 68.1562 1270.42 68.1562C1270.54 68.1562 1271.09 68.4312 1271.63 68.7578C1275.7 71.2328 1280.4 71.3875 1280.4 69.0328C1280.4 68.0187 1279.67 67.4859 1277.33 66.7984C1273.31 65.6125 1271.57 64.7531 1270.23 63.3094C1268.99 61.9515 1268.71 61.0234 1268.81 58.5484C1268.92 56.3828 1269.28 55.489 1270.66 54.0797C1273.14 51.5703 1277.7 50.9344 1282.2 52.4984C1283.8 53.0656 1285.87 54.1312 1285.87 54.389C1285.87 54.5094 1285.61 55.0594 1285.29 55.5922C1284.97 56.125 1284.47 57.0359 1284.18 57.6203C1283.89 58.2047 1283.58 58.7375 1283.48 58.789C1283.38 58.8578 1282.66 58.6 1281.89 58.2219C1279.5 57.0359 1277.05 56.5375 1275.89 56.9844C1274.85 57.3797 1274.45 58.3765 1275.04 59.1844C1275.39 59.7 1276.13 60.0609 1279 61.0922C1284.23 62.9828 1285.87 64.3406 1286.4 67.2109C1286.9 69.8922 1285.65 72.9172 1283.46 74.3781C1281.96 75.375 1280.5 75.7531 1277.84 75.8219C1276.23 75.8734 1275.19 75.8047 1274.42 75.6328Z" fill="#FFB70D"/>
<path d="M1162.48 60.0781V44.764L1170.9 44.8156C1178.97 44.8844 1179.36 44.9015 1180.56 45.2625C1183.33 46.1047 1185.16 47.514 1186.11 49.5594C1186.63 50.6594 1186.66 50.814 1186.66 52.7734C1186.66 54.75 1186.64 54.8875 1186.11 55.9531C1185.57 57.0703 1183.91 58.9437 1183.29 59.15C1182.8 59.3047 1182.93 59.5109 1183.72 59.8203C1184.71 60.2156 1186.42 61.4703 1186.98 62.2094C1187.87 63.3781 1188.3 64.5984 1188.4 66.214C1188.59 69.3594 1187.7 71.525 1185.55 73.1578C1184.47 73.9828 1183.57 74.4125 1181.87 74.9109C1180.75 75.2547 1180.22 75.2718 1171.59 75.3406L1162.48 75.3922V60.0781ZM1179.74 69.0844C1181.24 68.3797 1181.91 67.1937 1181.69 65.5953C1181.55 64.6328 1180.87 63.8594 1179.7 63.3265C1178.83 62.9312 1178.61 62.914 1173.98 62.8625L1169.14 62.7937V66.0593C1169.14 67.8468 1169.19 69.3594 1169.28 69.4281C1169.35 69.4969 1171.55 69.5312 1174.18 69.4968C1178.61 69.4453 1179.02 69.4109 1179.74 69.0844ZM1177.35 56.9672C1178.35 56.7437 1179.31 56.0906 1179.69 55.4031C1179.86 55.0594 1179.98 54.4406 1179.98 53.8562C1179.99 53.0312 1179.93 52.8078 1179.46 52.2234C1179.12 51.8109 1178.59 51.4328 1178.01 51.1922C1177.16 50.8312 1176.82 50.814 1173.12 50.7969H1169.14V53.9765V57.1562H1172.87C1174.9 57.1562 1176.92 57.0703 1177.35 56.9672Z" fill="#FFB70D"/>
<path d="M1213.75 75.3406C1213.75 75.3062 1213.75 68.4484 1213.75 60.0781V44.8672H1220.79C1225.76 44.8672 1228.19 44.9359 1228.98 45.0906C1234.1 46.0531 1238.12 48.9234 1240.2 53.1C1241.2 55.0766 1241.61 56.7094 1241.73 59.0984C1241.96 63.9625 1240.67 67.5375 1237.5 70.7344C1235.79 72.4703 1234.65 73.2438 1232.55 74.1203C1229.78 75.2719 1229.95 75.2547 1221.49 75.3234C1217.23 75.375 1213.75 75.375 1213.75 75.3406ZM1228.7 68.8781C1231.61 67.8641 1233.33 66.0938 1234.31 63.1719C1234.84 61.5734 1234.84 58.7719 1234.31 57.0531C1233.76 55.3344 1232.43 53.4953 1231.04 52.5672C1229.16 51.2953 1228.22 51.0891 1224.05 51.0031L1220.41 50.9344V60.0266C1220.41 65.0453 1220.46 69.1875 1220.55 69.2562C1220.62 69.3422 1222.24 69.3594 1224.17 69.325C1227.16 69.2562 1227.83 69.1875 1228.7 68.8781Z" fill="#FFB70D"/>
<path d="M1289.63 67.314V59.2531L1292.42 57.0359C1293.94 55.8156 1295.44 54.6469 1295.75 54.4234L1296.3 54.0453V64.7015V75.375H1292.96H1289.63V67.314Z" fill="#FFB70D"/>
<path d="M1328.37 75.2547C1328.31 75.2031 1328.25 69.9438 1328.25 63.5672V52H1331.59H1334.92V53.461C1334.92 54.2688 1334.95 54.9219 1335 54.9219C1335.06 54.9219 1335.53 54.475 1336.1 53.9078C1337.81 52.1891 1340.17 51.3125 1342.52 51.5531C1344.64 51.7766 1346.06 52.4125 1347.38 53.7531C1348.35 54.7328 1348.61 55.1453 1349.16 56.6234C1349.51 57.5516 1349.53 57.9125 1349.58 66.4891L1349.63 75.375H1346.3H1342.97L1342.92 67.95L1342.87 60.5078L1342.42 59.6484C1341.77 58.411 1340.83 57.8266 1339.36 57.7063C1338.68 57.6547 1337.96 57.7235 1337.59 57.8438C1336.7 58.136 1335.79 58.9781 1335.36 59.9063C1335.02 60.6453 1335 61.0063 1334.95 68.0359L1334.9 75.375H1331.69C1329.93 75.375 1328.42 75.3234 1328.37 75.2547Z" fill="#FFB70D"/>
<path d="M1353.72 55.0937V53.0312H1352.95C1352.11 53.0312 1351.81 52.7218 1352.18 52.2578C1352.47 51.914 1355.55 51.8968 1356.03 52.2406C1356.54 52.6187 1356.23 53.0312 1355.45 53.0312C1354.61 53.0312 1354.56 53.1687 1354.57 55.1797C1354.59 56.0218 1354.59 56.8297 1354.59 56.95C1354.57 57.0531 1354.39 57.1562 1354.15 57.1562H1353.72V55.0937Z" fill="#FFB70D"/>
<path d="M1357.14 54.664V52.1719H1357.63C1358.04 52.1719 1358.22 52.3265 1358.75 53.2031C1359.1 53.7703 1359.45 54.2344 1359.53 54.2344C1359.62 54.2344 1359.92 53.8047 1360.21 53.289C1360.78 52.3094 1361.26 51.8969 1361.68 52.0687C1361.87 52.1375 1361.92 52.6531 1361.92 54.664V57.1734L1361.46 57.1219L1360.98 57.0703L1361.05 55.575C1361.09 54.6297 1361.04 54.0625 1360.93 54.0625C1360.85 54.0625 1360.52 54.4578 1360.21 54.9219C1359.91 55.4031 1359.58 55.7812 1359.46 55.7812C1359.34 55.7812 1359.04 55.4031 1358.76 54.9219C1358.47 54.4578 1358.18 54.0969 1358.08 54.114C1357.99 54.1484 1357.94 54.8015 1357.98 55.6609L1358.03 57.1562H1357.58H1357.14V54.664Z" fill="#FFB70D"/>
<path d="M1294.5 50.6938C1293.66 50.1781 1292.18 49.3188 1291.2 48.7688L1289.44 47.7891L1289.49 45.6406C1289.53 44.4547 1289.6 43.5094 1289.68 43.5438C1289.75 43.5609 1291.3 43.5781 1293.13 43.5781H1296.47V47.6172C1296.47 50.7453 1296.41 51.6563 1296.26 51.6391C1296.14 51.6391 1295.35 51.2094 1294.5 50.6938Z" fill="#FFB70D"/>
<g clip-path="url(#clip1_3215_3325)">
<path d="M1458 9.02979L1519.72 30.9551V61.0739C1519.72 63.5006 1517.31 65.1992 1515.01 64.3856L1502.09 59.7893V42.7457C1502.09 39.0915 1499.8 35.8227 1496.38 34.538L1490.36 32.2969C1489.22 31.8687 1487.98 32.7109 1487.98 33.9385V54.7933L1458 44.1446V9.02979Z" fill="url(#paint1_linear_3215_3325)"/>
<path d="M1519.72 37.4642C1519.72 41.147 1517.41 44.4444 1513.92 45.7148L1473.87 60.2746V95.3609L1519.72 78.6885V37.4642Z" fill="black" fill-opacity="0.24"/>
<path d="M1519.72 38.8632C1519.72 42.5459 1517.41 45.8433 1513.92 47.1137L1473.87 61.6735V96.7598L1519.72 80.0874V38.8632Z" fill="black" fill-opacity="0.32"/>
<path d="M1519.72 37.1074C1519.72 40.7902 1517.41 44.0876 1513.92 45.358L1473.87 59.9178V95.0041L1519.72 78.3316V37.1074Z" fill="url(#paint2_linear_3215_3325)"/>
<path opacity="0.5" d="M1519.72 37.1074C1519.72 40.7902 1517.41 44.0876 1513.92 45.358L1473.87 59.9178V95.0041L1519.72 78.3316V37.1074Z" fill="url(#paint3_linear_3215_3325)"/>
<path opacity="0.5" d="M1502.09 49.6688L1487.97 54.8076V75.3911C1487.97 76.6187 1489.2 77.4609 1490.35 77.0327L1496.38 74.7773C1499.82 73.4927 1502.09 70.2238 1502.09 66.5696V49.6688Z" fill="#B0ADFF"/>
<path d="M1556.85 48.529H1554.69V36.0942C1554.69 35.1125 1554.76 33.9204 1554.88 32.4946H1554.83C1554.62 33.3361 1554.43 33.9204 1554.27 34.2944L1547.9 48.529H1546.84L1540.5 34.3879C1540.31 33.9672 1540.13 33.3361 1539.94 32.4946H1539.89C1539.96 33.2426 1539.99 34.4347 1539.99 36.1176V48.529H1537.87V29.9937H1540.76L1546.47 42.9193C1546.92 43.901 1547.2 44.649 1547.31 45.1398H1547.39C1547.76 44.1347 1548.07 43.3634 1548.28 42.8726L1554.1 29.9937H1556.83V48.529H1556.85Z" fill="black"/>
<path d="M1562.54 31.9336C1562.16 31.9336 1561.83 31.7934 1561.57 31.5363C1561.31 31.2792 1561.17 30.9519 1561.17 30.5546C1561.17 30.1572 1561.31 29.83 1561.57 29.5729C1561.83 29.3158 1562.16 29.1755 1562.54 29.1755C1562.94 29.1755 1563.26 29.3158 1563.52 29.5729C1563.78 29.83 1563.92 30.1572 1563.92 30.5546C1563.92 30.9286 1563.78 31.2558 1563.52 31.5129C1563.26 31.7934 1562.94 31.9336 1562.54 31.9336ZM1563.59 48.529H1561.46V35.2994H1563.59V48.529Z" fill="black"/>
<path d="M1576.96 47.9213C1575.93 48.529 1574.73 48.8329 1573.32 48.8329C1571.42 48.8329 1569.89 48.2252 1568.74 46.9864C1567.56 45.7476 1567 44.1582 1567 42.2181C1567 40.0444 1567.63 38.2914 1568.88 36.9591C1570.12 35.6268 1571.82 34.9723 1573.91 34.9723C1575.08 34.9723 1576.11 35.1827 1577.01 35.6268V37.8005C1576.02 37.1227 1574.96 36.7721 1573.84 36.7721C1572.47 36.7721 1571.37 37.2629 1570.5 38.2212C1569.63 39.1796 1569.18 40.4651 1569.18 42.0311C1569.18 43.5738 1569.58 44.8126 1570.41 45.7008C1571.23 46.589 1572.33 47.0565 1573.7 47.0565C1574.85 47.0565 1575.95 46.6825 1576.96 45.9112V47.9213Z" fill="black"/>
<path d="M1587.13 37.4265C1586.76 37.146 1586.22 37.0058 1585.51 37.0058C1584.6 37.0058 1583.84 37.4265 1583.23 38.2913C1582.62 39.1328 1582.32 40.3014 1582.32 41.774V48.529H1580.18V35.2995H1582.32V38.0342H1582.36C1582.67 37.0993 1583.14 36.3747 1583.75 35.8604C1584.38 35.3462 1585.07 35.0891 1585.84 35.0891C1586.4 35.0891 1586.83 35.1592 1587.11 35.2761V37.4265H1587.13Z" fill="black"/>
<path d="M1594.65 48.8328C1592.68 48.8328 1591.1 48.2251 1589.95 46.9863C1588.78 45.7475 1588.19 44.1113 1588.19 42.0778C1588.19 39.8573 1588.8 38.1277 1590.02 36.8655C1591.24 35.6267 1592.89 34.9956 1594.98 34.9956C1596.95 34.9956 1598.5 35.6033 1599.63 36.8188C1600.73 38.0342 1601.3 39.7171 1601.3 41.8675C1601.3 43.9711 1600.69 45.6774 1599.49 46.9396C1598.29 48.2017 1596.67 48.8328 1594.65 48.8328ZM1594.79 36.772C1593.43 36.772 1592.35 37.2395 1591.55 38.1511C1590.75 39.086 1590.35 40.3482 1590.35 41.9843C1590.35 43.5504 1590.75 44.7892 1591.55 45.7008C1592.35 46.6123 1593.43 47.0564 1594.79 47.0564C1596.18 47.0564 1597.23 46.6123 1597.96 45.7241C1598.71 44.8359 1599.07 43.5738 1599.07 41.9376C1599.07 40.2781 1598.69 39.0159 1597.96 38.1043C1597.23 37.2161 1596.18 36.772 1594.79 36.772Z" fill="black"/>
<path d="M1603.86 48.0381V45.7709C1605.01 46.6123 1606.3 47.0564 1607.69 47.0564C1609.57 47.0564 1610.48 46.4253 1610.48 45.1865C1610.48 44.8359 1610.41 44.5321 1610.25 44.2983C1610.08 44.0412 1609.87 43.8309 1609.59 43.6439C1609.31 43.4569 1609 43.2933 1608.63 43.1297C1608.25 42.9894 1607.85 42.8258 1607.43 42.6622C1606.84 42.4284 1606.32 42.1947 1605.88 41.961C1605.43 41.7272 1605.06 41.4467 1604.75 41.1663C1604.44 40.8624 1604.23 40.5352 1604.07 40.1612C1603.93 39.7872 1603.83 39.3431 1603.83 38.8289C1603.83 38.1978 1603.97 37.6602 1604.26 37.1694C1604.54 36.7019 1604.91 36.2812 1605.41 35.9773C1605.9 35.6734 1606.42 35.4163 1607.03 35.2527C1607.64 35.0891 1608.27 34.9956 1608.91 34.9956C1610.06 34.9956 1611.09 35.1826 1612.01 35.5799V37.7303C1611.02 37.0992 1609.89 36.772 1608.63 36.772C1608.23 36.772 1607.87 36.8188 1607.55 36.9122C1607.22 37.0057 1606.96 37.1226 1606.72 37.2862C1606.49 37.4498 1606.32 37.6368 1606.18 37.8706C1606.07 38.1043 1606 38.3614 1606 38.6185C1606 38.9691 1606.07 39.2496 1606.18 39.4834C1606.3 39.7171 1606.49 39.9275 1606.75 40.1144C1606.98 40.3014 1607.29 40.4651 1607.64 40.6053C1607.99 40.7455 1608.39 40.9092 1608.81 41.0728C1609.4 41.3065 1609.94 41.5169 1610.39 41.774C1610.86 42.0077 1611.26 42.2882 1611.59 42.5687C1611.91 42.8725 1612.17 43.1998 1612.34 43.5971C1612.53 43.9945 1612.6 44.4386 1612.6 44.9762C1612.6 45.6306 1612.46 46.1916 1612.15 46.6825C1611.87 47.1733 1611.47 47.5707 1611 47.8745C1610.51 48.2017 1609.97 48.4355 1609.33 48.5757C1608.7 48.7393 1608.04 48.8095 1607.33 48.8095C1606.07 48.8328 1604.87 48.5757 1603.86 48.0381Z" fill="black"/>
<path d="M1621.52 48.8328C1619.55 48.8328 1617.98 48.2251 1616.82 46.9863C1615.65 45.7475 1615.06 44.1113 1615.06 42.0778C1615.06 39.8573 1615.67 38.1277 1616.89 36.8655C1618.12 35.6267 1619.76 34.9956 1621.85 34.9956C1623.82 34.9956 1625.38 35.6033 1626.5 36.8188C1627.61 38.0342 1628.17 39.7171 1628.17 41.8675C1628.17 43.9711 1627.56 45.6774 1626.36 46.9396C1625.14 48.2017 1623.54 48.8328 1621.52 48.8328ZM1621.69 36.772C1620.32 36.772 1619.24 37.2395 1618.45 38.1511C1617.65 39.086 1617.25 40.3482 1617.25 41.9843C1617.25 43.5504 1617.65 44.7892 1618.45 45.7008C1619.24 46.6123 1620.32 47.0564 1621.69 47.0564C1623.07 47.0564 1624.13 46.6123 1624.86 45.7241C1625.61 44.8359 1625.96 43.5738 1625.96 41.9376C1625.96 40.2781 1625.59 39.0159 1624.86 38.1043C1624.11 37.2161 1623.05 36.772 1621.69 36.772Z" fill="black"/>
<path d="M1637.64 30.7884C1637.21 30.5546 1636.74 30.4378 1636.23 30.4378C1634.75 30.4378 1634 31.3727 1634 33.2426V35.2761H1637.12V37.0759H1634V48.5056H1631.88V37.0759H1629.6V35.2761H1631.88V33.1257C1631.88 31.7467 1632.28 30.6481 1633.08 29.8301C1633.88 29.0353 1634.89 28.6146 1636.09 28.6146C1636.74 28.6146 1637.26 28.6847 1637.64 28.8484V30.7884Z" fill="black"/>
<path d="M1646.05 48.3887C1645.56 48.6692 1644.87 48.8095 1644.05 48.8095C1641.73 48.8095 1640.55 47.5239 1640.55 44.9294V37.0992H1638.27V35.2995H1640.55V32.0505L1642.69 31.3727V35.2995H1646.05V37.0992H1642.69V44.5554C1642.69 45.4436 1642.83 46.0747 1643.14 46.4487C1643.44 46.8227 1643.93 47.0097 1644.64 47.0097C1645.18 47.0097 1645.65 46.8694 1646.03 46.5656V48.3887H1646.05Z" fill="black"/>
<path d="M1537.85 76.8112V58.2759H1542.99C1549.55 58.2759 1552.84 61.2911 1552.84 67.3215C1552.84 70.1731 1551.92 72.4871 1550.11 74.2167C1548.28 75.9464 1545.86 76.8112 1542.78 76.8112H1537.85ZM1540.03 60.2393V74.8478H1542.8C1545.25 74.8478 1547.15 74.1934 1548.51 72.8844C1549.88 71.5755 1550.56 69.729 1550.56 67.3449C1550.56 62.6 1548.02 60.2159 1542.95 60.2159H1540.03V60.2393Z" fill="black"/>
<path d="M1566.81 63.5817L1560.7 78.9382C1559.62 81.6729 1558.07 83.052 1556.1 83.052C1555.54 83.052 1555.09 83.0052 1554.71 82.8883V80.9951C1555.18 81.1587 1555.58 81.2288 1555.98 81.2288C1557.06 81.2288 1557.86 80.5977 1558.4 79.3122L1559.46 76.8112L1554.27 63.605H1556.64L1560.23 73.796C1560.28 73.9362 1560.38 74.2634 1560.52 74.801H1560.59C1560.63 74.5907 1560.73 74.2634 1560.85 73.8193L1564.63 63.605H1566.81V63.5817Z" fill="black"/>
<path d="M1580.13 76.8112H1578V69.2615C1578 66.4567 1576.96 65.0542 1574.89 65.0542C1573.84 65.0542 1572.94 65.4516 1572.24 66.2463C1571.53 67.041 1571.18 68.0461 1571.18 69.2615V76.8112H1569.04V63.5817H1571.18V65.7788H1571.23C1572.24 64.0959 1573.7 63.2778 1575.6 63.2778C1577.06 63.2778 1578.16 63.7453 1578.93 64.6803C1579.71 65.6152 1580.09 66.9709 1580.09 68.7239V76.8112H1580.13Z" fill="black"/>
<path d="M1593.66 76.8111H1591.53V74.7543H1591.48C1590.56 76.3437 1589.18 77.1384 1587.39 77.1384C1586.08 77.1384 1585.02 76.7878 1584.29 76.0866C1583.56 75.3853 1583.16 74.4738 1583.16 73.3051C1583.16 70.8275 1584.62 69.4017 1587.55 68.9809L1591.55 68.42C1591.55 66.1761 1590.63 65.0542 1588.8 65.0542C1587.2 65.0542 1585.75 65.5918 1584.45 66.6903V64.4932C1585.77 63.6751 1587.27 63.2544 1588.96 63.2544C1592.09 63.2544 1593.66 64.8906 1593.66 68.1862V76.8111ZM1591.55 70.1029L1588.33 70.547C1587.34 70.6872 1586.59 70.921 1586.1 71.2716C1585.61 71.6222 1585.35 72.2299 1585.35 73.1181C1585.35 73.7726 1585.58 74.2868 1586.05 74.7075C1586.52 75.1282 1587.13 75.3152 1587.91 75.3152C1588.96 75.3152 1589.83 74.9412 1590.51 74.2167C1591.2 73.4921 1591.55 72.5571 1591.55 71.4118V70.1029Z" fill="black"/>
<path d="M1616.57 76.8112H1614.45V69.2147C1614.45 67.7422 1614.22 66.6904 1613.77 66.0359C1613.32 65.3815 1612.55 65.0542 1611.47 65.0542C1610.55 65.0542 1609.78 65.475 1609.14 66.293C1608.51 67.1111 1608.18 68.1162 1608.18 69.2615V76.8112H1606.04V68.9576C1606.04 66.3632 1605.03 65.0542 1603.01 65.0542C1602.07 65.0542 1601.3 65.4516 1600.71 66.2229C1600.1 66.9942 1599.79 68.0227 1599.79 69.2615V76.8112H1597.66V63.5817H1599.79V65.6853H1599.84C1600.78 64.0725 1602.17 63.2778 1603.98 63.2778C1604.89 63.2778 1605.67 63.5349 1606.35 64.0258C1607.03 64.54 1607.48 65.1945 1607.73 66.0126C1608.72 64.1894 1610.2 63.2778 1612.15 63.2778C1615.09 63.2778 1616.54 65.0776 1616.54 68.6772V76.8112H1616.57Z" fill="black"/>
<path d="M1621.69 60.2159C1621.31 60.2159 1620.98 60.0756 1620.73 59.8185C1620.47 59.5614 1620.33 59.2342 1620.33 58.8368C1620.33 58.4395 1620.47 58.1122 1620.73 57.8551C1620.98 57.598 1621.31 57.4578 1621.69 57.4578C1622.09 57.4578 1622.42 57.598 1622.68 57.8551C1622.96 58.1122 1623.07 58.4395 1623.07 58.8368C1623.07 59.2108 1622.93 59.538 1622.68 59.7951C1622.42 60.0756 1622.09 60.2159 1621.69 60.2159ZM1622.72 76.8112H1620.58V63.5817H1622.72V76.8112Z" fill="black"/>
<path d="M1636.11 76.2034C1635.08 76.8111 1633.88 77.115 1632.47 77.115C1630.57 77.115 1629.04 76.5073 1627.89 75.2685C1626.71 74.0297 1626.15 72.4403 1626.15 70.5002C1626.15 68.3265 1626.78 66.5735 1628.03 65.2412C1629.27 63.9089 1630.97 63.2544 1633.06 63.2544C1634.23 63.2544 1635.27 63.4648 1636.16 63.9089V66.0826C1635.17 65.4048 1634.11 65.0542 1632.99 65.0542C1631.62 65.0542 1630.52 65.545 1629.65 66.5033C1628.78 67.4617 1628.34 68.7472 1628.34 70.3133C1628.34 71.8559 1628.73 73.0947 1629.56 73.9829C1630.38 74.8711 1631.48 75.3386 1632.85 75.3386C1634 75.3386 1635.1 74.9646 1636.11 74.1933V76.2034Z" fill="black"/>
<path d="M1638.53 76.3204V74.0531C1639.68 74.8946 1640.97 75.3387 1642.36 75.3387C1644.24 75.3387 1645.16 74.7076 1645.16 73.4688C1645.16 73.1182 1645.09 72.8143 1644.92 72.5806C1644.76 72.3235 1644.55 72.1131 1644.26 71.9261C1643.98 71.7391 1643.68 71.5755 1643.3 71.4119C1642.92 71.2716 1642.52 71.108 1642.1 70.9444C1641.51 70.7107 1641 70.4769 1640.55 70.2432C1640.11 70.0095 1639.73 69.729 1639.42 69.4485C1639.12 69.1446 1638.91 68.8174 1638.74 68.4434C1638.6 68.0694 1638.51 67.6253 1638.51 67.1111C1638.51 66.48 1638.65 65.9424 1638.93 65.4516C1639.21 64.9607 1639.59 64.5634 1640.08 64.2595C1640.58 63.9557 1641.09 63.6986 1641.7 63.5349C1642.31 63.3713 1642.95 63.2778 1643.58 63.2778C1644.73 63.2778 1645.77 63.4648 1646.68 63.8622V66.0126C1645.7 65.3815 1644.57 65.0542 1643.3 65.0542C1642.9 65.0542 1642.55 65.101 1642.22 65.1945C1641.89 65.288 1641.63 65.4048 1641.4 65.5685C1641.16 65.7321 1641 65.9191 1640.86 66.1528C1640.74 66.3865 1640.67 66.6436 1640.67 66.9008C1640.67 67.2514 1640.74 67.5318 1640.86 67.7656C1640.97 67.9993 1641.16 68.2097 1641.4 68.3967C1641.63 68.5837 1641.94 68.7473 1642.29 68.8875C1642.64 69.0278 1643.04 69.1914 1643.46 69.355C1644.05 69.5887 1644.59 69.7991 1645.04 70.0562C1645.51 70.2899 1645.91 70.5704 1646.24 70.8509C1646.57 71.1548 1646.82 71.482 1646.99 71.8794C1647.18 72.2767 1647.25 72.7208 1647.25 73.2584C1647.25 73.9129 1647.11 74.4738 1646.8 74.9647C1646.52 75.4555 1646.12 75.8529 1645.65 76.1567C1645.16 76.484 1644.62 76.7177 1643.98 76.8579C1643.35 77.0216 1642.69 77.0917 1641.98 77.0917C1640.72 77.1151 1639.54 76.858 1638.53 76.3204Z" fill="black"/>
<path d="M1657.46 76.1333V73.8427C1658.73 74.8478 1660.17 75.3386 1661.79 75.3386C1663.08 75.3386 1664.11 75.0114 1664.89 74.3803C1665.66 73.7259 1666.04 72.861 1666.04 71.7625C1666.04 69.3316 1664.3 68.1395 1660.85 68.1395H1659.32V66.3398H1660.78C1663.85 66.3398 1665.38 65.1945 1665.38 62.9272C1665.38 60.8236 1664.21 59.7718 1661.86 59.7718C1660.54 59.7718 1659.32 60.2159 1658.15 61.1041V59.0472C1659.34 58.346 1660.75 57.9954 1662.37 57.9954C1663.95 57.9954 1665.19 58.4161 1666.13 59.2342C1667.07 60.0522 1667.54 61.1274 1667.54 62.413C1667.54 64.8439 1666.3 66.4099 1663.81 67.1111V67.1579C1665.15 67.2981 1666.23 67.7656 1667 68.5603C1667.8 69.355 1668.2 70.3834 1668.2 71.5755C1668.2 73.235 1667.59 74.5907 1666.39 75.5958C1665.19 76.6242 1663.62 77.1384 1661.65 77.1384C1659.91 77.115 1658.5 76.7878 1657.46 76.1333Z" fill="black"/>
<path d="M1682.23 58.4863V60.4964C1681.26 60.0056 1680.25 59.7484 1679.2 59.7484C1677.55 59.7484 1676.21 60.473 1675.23 61.9456C1674.24 63.4181 1673.75 65.3815 1673.75 67.8357H1673.79C1674.66 66.0827 1676.07 65.2179 1678.04 65.2179C1679.67 65.2179 1680.96 65.7321 1681.92 66.7839C1682.88 67.8124 1683.35 69.2148 1683.35 70.9444C1683.35 72.7676 1682.81 74.2401 1681.71 75.3855C1680.6 76.5308 1679.22 77.1151 1677.5 77.1151C1675.62 77.1151 1674.17 76.3671 1673.11 74.8946C1672.05 73.4221 1671.51 71.3418 1671.51 68.6538C1671.51 65.4049 1672.22 62.8104 1673.6 60.8704C1674.99 58.9304 1676.85 57.972 1679.12 57.972C1680.44 57.972 1681.47 58.1357 1682.23 58.4863ZM1677.57 67.0177C1676.47 67.0177 1675.58 67.3916 1674.9 68.1396C1674.22 68.8876 1673.86 69.7524 1673.86 70.7575C1673.86 72.0196 1674.19 73.0948 1674.87 74.0064C1675.55 74.8946 1676.45 75.3621 1677.57 75.3621C1678.66 75.3621 1679.52 74.9647 1680.18 74.1934C1680.84 73.4221 1681.17 72.417 1681.17 71.2249C1681.17 69.916 1680.86 68.8876 1680.23 68.1396C1679.62 67.3916 1678.73 67.0177 1677.57 67.0177Z" fill="black"/>
<path d="M1686.57 76.3671V74.1232C1687.84 74.9413 1689.13 75.3621 1690.45 75.3621C1691.76 75.3621 1692.82 74.9881 1693.62 74.2401C1694.42 73.4922 1694.82 72.5105 1694.82 71.295C1694.82 70.0796 1694.39 69.1213 1693.57 68.4434C1692.75 67.7656 1691.57 67.415 1690.05 67.415C1689.53 67.415 1688.54 67.4617 1687.13 67.5786V58.2759H1696.15V60.1925H1689.15V65.6152C1689.72 65.5918 1690.26 65.5685 1690.73 65.5685C1692.73 65.5685 1694.25 66.0593 1695.36 67.0644C1696.44 68.0695 1697 69.4251 1697 71.1548C1697 72.9546 1696.41 74.3804 1695.24 75.4789C1694.06 76.5775 1692.47 77.1151 1690.42 77.1151C1688.71 77.1151 1687.42 76.858 1686.57 76.3671Z" fill="black"/>
</g>
<path d="M72.1539 202.024L83.6381 231.28H78.7424L76.0887 224.479L76.0429 224.388H63.4149L60.8527 231.28H55.957L66.9379 202.024H72.1539ZM74.3043 219.824L69.7747 208.322L69.5917 207.866L65.1993 219.596L65.1078 219.87H74.3043V219.824Z" fill="#000033"/>
<path d="M124.909 231.006V209.326H120.288V224.708L120.242 224.844C120.196 224.936 118.869 227.309 115.987 227.309C112.647 227.309 111.183 224.89 111.183 222.517V209.281H106.607V224.16C106.607 228.222 109.902 231.508 113.974 231.508C117.177 231.508 119.281 229.911 120.288 228.404V230.96H124.909V231.006Z" fill="#000033"/>
<path d="M95.6257 208.916C99.835 208.916 102.397 210.696 103.907 212.749L100.796 215.625C99.6063 213.936 97.9134 213.069 95.8087 213.069C91.8739 213.069 89.2659 216.036 89.2659 220.235C89.2659 224.434 91.8739 227.446 95.8087 227.446C97.9134 227.446 99.5605 226.533 100.796 224.89L103.907 227.765C102.397 229.819 99.835 231.599 95.6257 231.599C89.0371 231.599 84.416 226.807 84.416 220.235C84.416 213.662 89.0371 208.916 95.6257 208.916Z" fill="#000033"/>
<path d="M211.519 209.372H207.035V230.96H211.519V209.372Z" fill="#000033"/>
<path d="M206.578 203.21V202.526C206.578 201.157 207.402 200.152 209.278 200.152C211.154 200.152 211.931 201.157 211.931 202.526V203.21C211.931 204.58 211.154 205.584 209.278 205.584C207.402 205.584 206.578 204.58 206.578 203.21Z" fill="#000033"/>
<path d="M198.252 203.941H193.768V209.372H190.84V213.343H193.677L193.768 226.99C193.768 229.18 195.552 231.006 197.794 231.006H201.958V226.716H198.252V213.343H202.644V209.372H198.252V203.941Z" fill="#000033"/>
<path d="M182.191 209.418V212.019C181.001 210.422 178.439 208.824 175.236 208.824C169.151 208.824 164.713 213.617 164.713 220.189C164.713 225.894 168.327 231.691 175.191 231.691C180.04 231.691 182.191 228.45 182.191 228.45V231.006H186.72V209.372L182.191 209.418ZM175.923 227.674C172.171 227.674 169.426 224.571 169.426 220.28C169.426 215.99 172.171 212.841 175.923 212.841C179.217 212.841 182.557 215.168 182.557 220.326C182.511 223.84 180.452 227.674 175.923 227.674Z" fill="#000033"/>
<path d="M254.3 209.418V212.019C253.065 210.422 250.548 208.824 247.346 208.824C241.26 208.824 236.822 213.617 236.822 220.189C236.822 225.894 240.437 231.691 247.3 231.691C252.15 231.691 254.3 228.45 254.3 228.45V231.006H258.83V209.372L254.3 209.418ZM248.032 227.674C244.28 227.674 241.535 224.571 241.535 220.28C241.535 215.99 244.28 212.841 248.032 212.841C251.326 212.841 254.666 215.168 254.666 220.326C254.62 223.84 252.562 227.674 248.032 227.674Z" fill="#000033"/>
<path d="M226.436 208.916C230.646 208.916 233.208 210.696 234.718 212.749L231.606 215.625C230.417 213.936 228.724 213.069 226.619 213.069C222.684 213.069 220.076 216.036 220.076 220.235C220.076 224.434 222.684 227.446 226.619 227.446C228.724 227.446 230.371 226.533 231.606 224.89L234.718 227.765C233.208 229.819 230.646 231.599 226.436 231.599C219.848 231.599 215.227 226.807 215.227 220.235C215.227 213.662 219.848 208.916 226.436 208.916Z" fill="#000033"/>
<path d="M154.099 208.733C150.759 208.733 148.105 210.878 147.007 212.841C145.817 210.422 143.301 208.733 140.373 208.733C137.17 208.733 135.065 210.33 134.059 211.837V209.281H129.438V230.96H134.059V215.579L134.104 215.442C134.15 215.351 135.477 212.978 138.359 212.978C141.7 212.978 143.164 215.397 143.164 217.77V231.006H147.739V216.081C147.739 215.99 147.739 215.899 147.739 215.807L147.785 215.579L147.831 215.442C147.876 215.351 149.203 212.978 152.086 212.978C155.426 212.978 156.89 215.397 156.89 217.77V231.006H161.465V216.081C161.465 212.065 158.171 208.733 154.099 208.733Z" fill="#000033"/>
<path d="M148.974 254.694V244.927H145.451V243.42H154.144V244.927H150.667V254.694H148.974Z" fill="#94949B"/>
<path d="M168.786 246.341C171.257 246.341 172.766 248.258 172.766 250.769V251.134H166.315C166.452 252.503 167.459 253.69 169.106 253.69C169.975 253.69 170.936 253.37 171.531 252.731L172.217 253.735C171.394 254.511 170.25 254.968 168.923 254.968C166.498 254.968 164.668 253.233 164.668 250.677C164.714 248.258 166.407 246.341 168.786 246.341ZM166.315 250.038H171.302C171.257 248.943 170.524 247.619 168.832 247.619C167.139 247.619 166.361 248.897 166.315 250.038Z" fill="#94949B"/>
<path d="M179.035 249.08C179.035 245.611 181.597 243.238 184.846 243.238C187.088 243.238 188.46 244.288 189.33 245.611L187.911 246.387C187.317 245.429 186.219 244.744 184.846 244.744C182.558 244.744 180.774 246.524 180.774 249.08C180.774 251.636 182.558 253.416 184.846 253.416C186.173 253.416 187.317 252.731 187.911 251.773L189.33 252.549C188.415 253.872 187.042 254.922 184.846 254.922C181.597 254.922 179.035 252.549 179.035 249.08Z" fill="#94949B"/>
<path d="M191.205 254.694V243.42H192.715V254.694H191.205Z" fill="#94949B"/>
<path d="M194.729 250.632C194.729 248.304 196.33 246.341 198.846 246.341C201.363 246.341 202.964 248.258 202.964 250.632C202.964 253.005 201.409 254.922 198.846 254.922C196.284 254.922 194.729 253.005 194.729 250.632ZM201.363 250.632C201.363 249.08 200.448 247.711 198.846 247.711C197.245 247.711 196.33 249.08 196.33 250.632C196.33 252.184 197.245 253.553 198.846 253.553C200.448 253.553 201.363 252.184 201.363 250.632Z" fill="#94949B"/>
<path d="M210.239 254.694V253.598C210.239 253.598 209.37 254.922 207.54 254.922C205.984 254.922 204.703 253.644 204.703 252.092V246.57H206.213V251.818C206.213 253.188 207.174 253.598 208.226 253.598C209.187 253.598 209.782 253.051 210.239 252.457V246.57H211.749V254.739L210.239 254.694Z" fill="#94949B"/>
<path d="M227.625 254.694V243.42H235.632V245.474H230.05V247.939H235.54V249.993H230.05V252.594H235.632V254.694H227.625Z" fill="#94949B"/>
<path d="M244.646 254.694L242.45 250.632H240.665V254.694H238.24V243.42H243.502C245.881 243.42 247.299 244.972 247.299 247.072C247.299 249.171 246.064 250.13 244.829 250.404L247.345 254.694H244.646ZM243.182 245.52H240.665V248.624H243.182C244.142 248.624 244.875 248.03 244.875 247.072C244.875 246.113 244.142 245.52 243.182 245.52Z" fill="#94949B"/>
<path d="M249.77 254.694V243.42H255.031C257.502 243.42 258.829 245.063 258.829 247.072C258.829 249.08 257.456 250.677 255.031 250.677H252.149V254.739L249.77 254.694ZM254.757 245.52H252.194V248.624H254.757C255.718 248.624 256.404 248.03 256.404 247.072C256.404 246.113 255.718 245.52 254.757 245.52Z" fill="#94949B"/>
<path d="M157.575 243.42V247.665C157.575 247.665 158.444 246.341 160.275 246.341C161.83 246.341 163.111 247.619 163.111 249.171V254.694H161.601V249.445C161.601 248.076 160.641 247.665 159.588 247.665C158.627 247.665 158.033 248.213 157.575 248.806V254.694H156.02V243.42H157.575Z" fill="#94949B"/>
<path d="M219.846 243.42V247.711C219.206 246.844 218.245 246.341 217.147 246.341C214.996 246.341 213.486 248.03 213.486 250.632C213.486 253.233 214.996 254.922 217.147 254.922C218.245 254.922 219.206 254.374 219.846 253.553V254.739H221.356V243.466L219.846 243.42ZM217.558 253.461C216.049 253.461 215.179 252.184 215.179 250.632C215.179 249.08 216.14 247.802 217.558 247.802C218.977 247.802 219.938 249.08 219.938 250.632C219.938 252.184 219.023 253.461 217.558 253.461Z" fill="#94949B"/>
<path d="M45.2504 218.409V231.28H32.3479C28.7791 231.28 25.5763 229.819 23.2429 227.492C20.9094 225.164 19.4453 221.923 19.4453 218.409C19.4453 217.907 19.4911 217.405 19.5368 216.903C21.916 219.869 25.5306 221.741 29.6027 221.741H35.6879V215.625C35.6879 211.563 33.812 207.957 30.838 205.584C31.2955 205.538 31.7988 205.492 32.3021 205.492C39.4397 205.538 45.2504 211.289 45.2504 218.409Z" fill="url(#paint4_linear_3215_3325)"/>
<path d="M23.1963 227.492C25.5297 229.819 28.7782 231.28 32.3013 231.28H27.2683C22.3269 231.28 17.7973 229.272 14.5488 226.031C11.3003 222.791 9.28711 218.318 9.28711 213.343C9.28711 203.439 17.3398 195.406 27.2683 195.406C30.1966 195.406 32.9876 196.136 35.4583 197.368C33.7196 196.501 31.6607 195.999 29.6018 195.999C26.033 195.999 22.8302 197.46 20.4968 199.787C18.1633 202.115 16.6992 205.356 16.6992 208.87C16.6992 210.376 16.9737 211.837 17.4313 213.206C17.9346 214.575 18.6209 215.807 19.4902 216.903C19.4444 217.405 19.3987 217.907 19.3987 218.409C19.4445 221.969 20.8628 225.164 23.1963 227.492Z" fill="url(#paint5_linear_3215_3325)"/>
<path d="M45.2488 213.343V218.409C45.2488 211.289 39.4838 205.538 32.3462 205.538C25.7119 205.538 20.2672 210.513 19.5351 216.903C18.6658 215.807 17.9337 214.575 17.4762 213.206C16.9729 211.837 16.7441 210.422 16.7441 208.87C16.7441 205.31 18.2083 202.115 20.5417 199.787C22.8751 197.46 26.1237 195.999 29.6467 195.999C31.7056 195.999 33.7188 196.501 35.5032 197.368H35.5489C41.2682 200.335 45.2488 206.405 45.2488 213.343Z" fill="url(#paint6_linear_3215_3325)"/>
<g clip-path="url(#clip2_3215_3325)">
<path fill-rule="evenodd" clip-rule="evenodd" d="M422.082 192.204C422.082 230.867 422.082 230.867 422.082 230.867C422.082 240.366 416.291 246.208 406.472 246.208C396.654 246.208 390.908 240.366 390.908 230.867C390.908 192.204 390.908 192.204 390.908 192.204C377.832 192.204 377.832 192.204 377.832 192.204C377.832 229.351 377.832 229.351 377.832 229.351C377.832 246.431 389.415 257.981 406.518 257.981C423.847 257.981 435.203 246.431 435.203 229.351C435.203 192.204 435.203 192.204 435.203 192.204H422.082Z" fill="#72808A"/>
<path fill-rule="evenodd" clip-rule="evenodd" d="M479.77 191.178C462.757 191.178 451.355 202.595 451.355 219.942C451.355 257.491 451.355 257.491 451.355 257.491C464.296 257.491 464.296 257.491 464.296 257.491C464.296 218.426 464.296 218.426 464.296 218.426C464.296 208.704 470.042 202.996 479.77 202.996C489.497 202.996 495.244 208.704 495.244 218.426C495.244 257.491 495.244 257.491 495.244 257.491C508.184 257.491 508.184 257.491 508.184 257.491C508.184 219.942 508.184 219.942 508.184 219.942C508.184 202.595 496.782 191.178 479.77 191.178Z" fill="#72808A"/>
<path d="M540.535 192.204H527.504V257.491H540.535V192.204Z" fill="#72808A"/>
<path fill-rule="evenodd" clip-rule="evenodd" d="M557.729 192.204V204.289H577.139V257.491H589.988V204.289H609.399V192.204H557.729Z" fill="#72808A"/>
<path fill-rule="evenodd" clip-rule="evenodd" d="M659.983 192.204C646.092 192.204 646.092 192.204 646.092 192.204C614.692 235.862 614.692 235.862 614.692 235.862C613.968 237.2 613.561 238.895 613.742 240.411C614.149 241.927 614.918 243.265 616.231 244.201C617.181 244.959 618.538 245.361 619.669 245.361C643.423 245.182 643.423 245.182 643.423 245.182C643.423 257.535 643.423 257.535 643.423 257.535C655.413 257.535 655.413 257.535 655.413 257.535C655.413 235.149 655.413 235.149 655.413 235.149C629.895 235.149 629.895 235.149 629.895 235.149L659.983 192.204Z" fill="#BFD22B"/>
</g>
<path d="M760.781 232.258C760.781 231.734 760.898 231.34 761.133 231.074C761.375 230.801 761.719 230.664 762.164 230.664C762.617 230.664 762.969 230.801 763.219 231.074C763.477 231.34 763.605 231.734 763.605 232.258C763.605 232.766 763.477 233.156 763.219 233.43C762.961 233.703 762.609 233.84 762.164 233.84C761.766 233.84 761.434 233.719 761.168 233.477C760.91 233.227 760.781 232.82 760.781 232.258ZM767.9 232.258C767.9 231.734 768.017 231.34 768.251 231.074C768.493 230.801 768.837 230.664 769.283 230.664C769.736 230.664 770.087 230.801 770.337 231.074C770.595 231.34 770.724 231.734 770.724 232.258C770.724 232.766 770.595 233.156 770.337 233.43C770.079 233.703 769.728 233.84 769.283 233.84C768.884 233.84 768.552 233.719 768.286 233.477C768.029 233.227 767.9 232.82 767.9 232.258ZM775.018 232.258C775.018 231.734 775.135 231.34 775.37 231.074C775.612 230.801 775.956 230.664 776.401 230.664C776.854 230.664 777.206 230.801 777.456 231.074C777.713 231.34 777.842 231.734 777.842 232.258C777.842 232.766 777.713 233.156 777.456 233.43C777.198 233.703 776.846 233.84 776.401 233.84C776.003 233.84 775.67 233.719 775.405 233.477C775.147 233.227 775.018 232.82 775.018 232.258ZM790.316 233.5L789.93 231.672H789.836C789.195 232.477 788.555 233.023 787.914 233.312C787.281 233.594 786.488 233.734 785.535 233.734C784.262 233.734 783.262 233.406 782.535 232.75C781.816 232.094 781.457 231.16 781.457 229.949C781.457 227.355 783.531 225.996 787.68 225.871L789.859 225.801V225.004C789.859 223.996 789.64 223.254 789.203 222.777C788.773 222.293 788.082 222.051 787.129 222.051C786.058 222.051 784.847 222.379 783.496 223.035L782.898 221.547C783.531 221.203 784.222 220.934 784.972 220.738C785.73 220.543 786.488 220.445 787.246 220.445C788.777 220.445 789.91 220.785 790.644 221.465C791.387 222.145 791.758 223.234 791.758 224.734V233.5H790.316ZM785.922 232.129C787.133 232.129 788.082 231.797 788.769 231.133C789.465 230.469 789.812 229.539 789.812 228.344V227.184L787.867 227.266C786.32 227.32 785.203 227.562 784.515 227.992C783.836 228.414 783.496 229.074 783.496 229.973C783.496 230.676 783.707 231.211 784.129 231.578C784.558 231.945 785.156 232.129 785.922 232.129ZM805.286 233.5V225.191C805.286 224.145 805.048 223.363 804.571 222.848C804.095 222.332 803.349 222.074 802.333 222.074C800.989 222.074 800.005 222.438 799.38 223.164C798.755 223.891 798.443 225.09 798.443 226.762V233.5H796.497V220.656H798.079L798.396 222.414H798.489C798.888 221.781 799.446 221.293 800.165 220.949C800.884 220.598 801.685 220.422 802.568 220.422C804.114 220.422 805.278 220.797 806.06 221.547C806.841 222.289 807.232 223.48 807.232 225.121V233.5H805.286ZM820.702 231.777H820.596C819.698 233.082 818.354 233.734 816.565 233.734C814.885 233.734 813.577 233.16 812.639 232.012C811.709 230.863 811.245 229.23 811.245 227.113C811.245 224.996 811.713 223.352 812.651 222.18C813.588 221.008 814.893 220.422 816.565 220.422C818.307 220.422 819.643 221.055 820.573 222.32H820.725L820.643 221.395L820.596 220.492V215.266H822.541V233.5H820.959L820.702 231.777ZM816.811 232.105C818.139 232.105 819.1 231.746 819.694 231.027C820.295 230.301 820.596 229.133 820.596 227.523V227.113C820.596 225.293 820.291 223.996 819.682 223.223C819.08 222.441 818.116 222.051 816.787 222.051C815.647 222.051 814.772 222.496 814.162 223.387C813.561 224.27 813.26 225.52 813.26 227.137C813.26 228.777 813.561 230.016 814.162 230.852C814.764 231.688 815.647 232.105 816.811 232.105ZM845.438 227.066C845.438 229.16 844.911 230.797 843.856 231.977C842.802 233.148 841.345 233.734 839.485 233.734C838.337 233.734 837.317 233.465 836.427 232.926C835.536 232.387 834.849 231.613 834.364 230.605C833.88 229.598 833.638 228.418 833.638 227.066C833.638 224.973 834.161 223.344 835.208 222.18C836.255 221.008 837.708 220.422 839.567 220.422C841.364 220.422 842.79 221.02 843.845 222.215C844.907 223.41 845.438 225.027 845.438 227.066ZM835.653 227.066C835.653 228.707 835.981 229.957 836.638 230.816C837.294 231.676 838.259 232.105 839.532 232.105C840.806 232.105 841.77 231.68 842.427 230.828C843.091 229.969 843.423 228.715 843.423 227.066C843.423 225.434 843.091 224.195 842.427 223.352C841.77 222.5 840.798 222.074 839.509 222.074C838.235 222.074 837.274 222.492 836.626 223.328C835.978 224.164 835.653 225.41 835.653 227.066ZM853.729 232.129C854.073 232.129 854.405 232.105 854.725 232.059C855.045 232.004 855.299 231.949 855.487 231.895V233.383C855.276 233.484 854.963 233.566 854.549 233.629C854.143 233.699 853.776 233.734 853.448 233.734C850.963 233.734 849.721 232.426 849.721 229.809V222.168H847.881V221.23L849.721 220.422L850.541 217.68H851.666V220.656H855.393V222.168H851.666V229.727C851.666 230.5 851.85 231.094 852.217 231.508C852.584 231.922 853.088 232.129 853.729 232.129ZM867.574 233.5V225.191C867.574 224.145 867.335 223.363 866.859 222.848C866.382 222.332 865.636 222.074 864.621 222.074C863.269 222.074 862.281 222.441 861.656 223.176C861.039 223.91 860.73 225.113 860.73 226.785V233.5H858.785V215.266H860.73V220.785C860.73 221.449 860.699 222 860.636 222.438H860.753C861.136 221.82 861.679 221.336 862.382 220.984C863.093 220.625 863.902 220.445 864.808 220.445C866.378 220.445 867.554 220.82 868.335 221.57C869.125 222.312 869.519 223.496 869.519 225.121V233.5H867.574ZM879.673 233.734C877.774 233.734 876.274 233.156 875.173 232C874.079 230.844 873.532 229.238 873.532 227.184C873.532 225.113 874.04 223.469 875.055 222.25C876.079 221.031 877.45 220.422 879.169 220.422C880.778 220.422 882.052 220.953 882.989 222.016C883.927 223.07 884.395 224.465 884.395 226.199V227.43H875.548C875.587 228.938 875.966 230.082 876.684 230.863C877.411 231.645 878.43 232.035 879.743 232.035C881.126 232.035 882.493 231.746 883.845 231.168V232.902C883.157 233.199 882.505 233.41 881.887 233.535C881.278 233.668 880.54 233.734 879.673 233.734ZM879.145 222.051C878.114 222.051 877.29 222.387 876.673 223.059C876.063 223.73 875.704 224.66 875.595 225.848H882.309C882.309 224.621 882.036 223.684 881.489 223.035C880.942 222.379 880.161 222.051 879.145 222.051ZM894.303 220.422C894.873 220.422 895.385 220.469 895.838 220.562L895.568 222.367C895.037 222.25 894.568 222.191 894.162 222.191C893.123 222.191 892.232 222.613 891.49 223.457C890.756 224.301 890.389 225.352 890.389 226.609V233.5H888.443V220.656H890.049L890.272 223.035H890.365C890.842 222.199 891.416 221.555 892.088 221.102C892.76 220.648 893.498 220.422 894.303 220.422ZM911.048 233.734C909.188 233.734 907.747 233.164 906.723 232.023C905.708 230.875 905.2 229.254 905.2 227.16C905.2 225.012 905.715 223.352 906.747 222.18C907.786 221.008 909.262 220.422 911.176 220.422C911.794 220.422 912.411 220.488 913.028 220.621C913.645 220.754 914.13 220.91 914.481 221.09L913.883 222.742C913.454 222.57 912.985 222.43 912.477 222.32C911.969 222.203 911.52 222.145 911.13 222.145C908.52 222.145 907.215 223.809 907.215 227.137C907.215 228.715 907.532 229.926 908.165 230.77C908.805 231.613 909.751 232.035 911.001 232.035C912.071 232.035 913.169 231.805 914.294 231.344V233.066C913.434 233.512 912.352 233.734 911.048 233.734ZM923.932 220.422C924.502 220.422 925.014 220.469 925.467 220.562L925.197 222.367C924.666 222.25 924.197 222.191 923.791 222.191C922.752 222.191 921.861 222.613 921.119 223.457C920.385 224.301 920.018 225.352 920.018 226.609V233.5H918.072V220.656H919.678L919.9 223.035H919.994C920.471 222.199 921.045 221.555 921.717 221.102C922.389 220.648 923.127 220.422 923.932 220.422ZM930.534 233.5H928.589V220.656H930.534V233.5ZM928.425 217.176C928.425 216.73 928.534 216.406 928.753 216.203C928.972 215.992 929.245 215.887 929.573 215.887C929.886 215.887 930.155 215.992 930.382 216.203C930.609 216.414 930.722 216.738 930.722 217.176C930.722 217.613 930.609 217.941 930.382 218.16C930.155 218.371 929.886 218.477 929.573 218.477C929.245 218.477 928.972 218.371 928.753 218.16C928.534 217.941 928.425 217.613 928.425 217.176ZM939.528 232.129C939.872 232.129 940.204 232.105 940.524 232.059C940.844 232.004 941.098 231.949 941.286 231.895V233.383C941.075 233.484 940.762 233.566 940.348 233.629C939.942 233.699 939.575 233.734 939.247 233.734C936.762 233.734 935.52 232.426 935.52 229.809V222.168H933.68V221.23L935.52 220.422L936.34 217.68H937.465V220.656H941.192V222.168H937.465V229.727C937.465 230.5 937.649 231.094 938.016 231.508C938.383 231.922 938.887 232.129 939.528 232.129ZM946.529 233.5H944.584V220.656H946.529V233.5ZM944.42 217.176C944.42 216.73 944.529 216.406 944.748 216.203C944.967 215.992 945.24 215.887 945.568 215.887C945.881 215.887 946.15 215.992 946.377 216.203C946.603 216.414 946.717 216.738 946.717 217.176C946.717 217.613 946.603 217.941 946.377 218.16C946.15 218.371 945.881 218.477 945.568 218.477C945.24 218.477 944.967 218.371 944.748 218.16C944.529 217.941 944.42 217.613 944.42 217.176ZM956.507 233.734C954.648 233.734 953.206 233.164 952.183 232.023C951.167 230.875 950.659 229.254 950.659 227.16C950.659 225.012 951.175 223.352 952.206 222.18C953.245 221.008 954.722 220.422 956.636 220.422C957.253 220.422 957.87 220.488 958.487 220.621C959.105 220.754 959.589 220.91 959.94 221.09L959.343 222.742C958.913 222.57 958.444 222.43 957.937 222.32C957.429 222.203 956.98 222.145 956.589 222.145C953.98 222.145 952.675 223.809 952.675 227.137C952.675 228.715 952.991 229.926 953.624 230.77C954.265 231.613 955.21 232.035 956.46 232.035C957.53 232.035 958.628 231.805 959.753 231.344V233.066C958.894 233.512 957.812 233.734 956.507 233.734ZM971.43 233.5L971.043 231.672H970.95C970.309 232.477 969.668 233.023 969.028 233.312C968.395 233.594 967.602 233.734 966.649 233.734C965.375 233.734 964.375 233.406 963.649 232.75C962.93 232.094 962.571 231.16 962.571 229.949C962.571 227.355 964.645 225.996 968.793 225.871L970.973 225.801V225.004C970.973 223.996 970.754 223.254 970.317 222.777C969.887 222.293 969.196 222.051 968.243 222.051C967.172 222.051 965.961 222.379 964.61 223.035L964.012 221.547C964.645 221.203 965.336 220.934 966.086 220.738C966.844 220.543 967.602 220.445 968.36 220.445C969.891 220.445 971.024 220.785 971.758 221.465C972.5 222.145 972.871 223.234 972.871 224.734V233.5H971.43ZM967.035 232.129C968.246 232.129 969.196 231.797 969.883 231.133C970.578 230.469 970.926 229.539 970.926 228.344V227.184L968.981 227.266C967.434 227.32 966.317 227.562 965.629 227.992C964.95 228.414 964.61 229.074 964.61 229.973C964.61 230.676 964.821 231.211 965.243 231.578C965.672 231.945 966.27 232.129 967.035 232.129ZM979.556 233.5H977.611V215.266H979.556V233.5ZM996.781 233.734C994.883 233.734 993.383 233.156 992.281 232C991.188 230.844 990.641 229.238 990.641 227.184C990.641 225.113 991.149 223.469 992.164 222.25C993.188 221.031 994.559 220.422 996.277 220.422C997.887 220.422 999.16 220.953 1000.1 222.016C1001.04 223.07 1001.5 224.465 1001.5 226.199V227.43H992.656C992.695 228.938 993.074 230.082 993.793 230.863C994.52 231.645 995.539 232.035 996.852 232.035C998.235 232.035 999.602 231.746 1000.95 231.168V232.902C1000.27 233.199 999.613 233.41 998.996 233.535C998.387 233.668 997.649 233.734 996.781 233.734ZM996.254 222.051C995.223 222.051 994.399 222.387 993.781 223.059C993.172 223.73 992.813 224.66 992.703 225.848H999.418C999.418 224.621 999.145 223.684 998.598 223.035C998.051 222.379 997.27 222.051 996.254 222.051ZM1014.34 233.5V225.191C1014.34 224.145 1014.1 223.363 1013.63 222.848C1013.15 222.332 1012.4 222.074 1011.39 222.074C1010.04 222.074 1009.06 222.438 1008.43 223.164C1007.81 223.891 1007.5 225.09 1007.5 226.762V233.5H1005.55V220.656H1007.13L1007.45 222.414H1007.54C1007.94 221.781 1008.5 221.293 1009.22 220.949C1009.94 220.598 1010.74 220.422 1011.62 220.422C1013.17 220.422 1014.33 220.797 1015.11 221.547C1015.9 222.289 1016.29 223.48 1016.29 225.121V233.5H1014.34ZM1025.16 232.129C1025.51 232.129 1025.84 232.105 1026.16 232.059C1026.48 232.004 1026.73 231.949 1026.92 231.895V233.383C1026.71 233.484 1026.4 233.566 1025.98 233.629C1025.58 233.699 1025.21 233.734 1024.88 233.734C1022.4 233.734 1021.15 232.426 1021.15 229.809V222.168H1019.32V221.23L1021.15 220.422L1021.98 217.68H1023.1V220.656H1026.83V222.168H1023.1V229.727C1023.1 230.5 1023.28 231.094 1023.65 231.508C1024.02 231.922 1024.52 232.129 1025.16 232.129ZM1035.64 233.734C1033.75 233.734 1032.25 233.156 1031.14 232C1030.05 230.844 1029.5 229.238 1029.5 227.184C1029.5 225.113 1030.01 223.469 1031.03 222.25C1032.05 221.031 1033.42 220.422 1035.14 220.422C1036.75 220.422 1038.02 220.953 1038.96 222.016C1039.9 223.07 1040.37 224.465 1040.37 226.199V227.43H1031.52C1031.56 228.938 1031.94 230.082 1032.66 230.863C1033.38 231.645 1034.4 232.035 1035.71 232.035C1037.1 232.035 1038.46 231.746 1039.82 231.168V232.902C1039.13 233.199 1038.48 233.41 1037.86 233.535C1037.25 233.668 1036.51 233.734 1035.64 233.734ZM1035.12 222.051C1034.09 222.051 1033.26 222.387 1032.64 223.059C1032.04 223.73 1031.68 224.66 1031.57 225.848H1038.28C1038.28 224.621 1038.01 223.684 1037.46 223.035C1036.91 222.379 1036.13 222.051 1035.12 222.051ZM1050.27 220.422C1050.85 220.422 1051.36 220.469 1051.81 220.562L1051.54 222.367C1051.01 222.25 1050.54 222.191 1050.13 222.191C1049.1 222.191 1048.2 222.613 1047.46 223.457C1046.73 224.301 1046.36 225.352 1046.36 226.609V233.5H1044.42V220.656H1046.02L1046.24 223.035H1046.34C1046.81 222.199 1047.39 221.555 1048.06 221.102C1048.73 220.648 1049.47 220.422 1050.27 220.422ZM1060.91 233.734C1060.07 233.734 1059.31 233.582 1058.61 233.277C1057.92 232.965 1057.35 232.488 1056.88 231.848H1056.74C1056.83 232.598 1056.88 233.309 1056.88 233.98V239.266H1054.93V220.656H1056.51L1056.78 222.414H1056.88C1057.38 221.711 1057.96 221.203 1058.62 220.891C1059.29 220.578 1060.05 220.422 1060.91 220.422C1062.61 220.422 1063.92 221.004 1064.85 222.168C1065.78 223.332 1066.24 224.965 1066.24 227.066C1066.24 229.176 1065.77 230.816 1064.82 231.988C1063.89 233.152 1062.58 233.734 1060.91 233.734ZM1060.63 222.074C1059.32 222.074 1058.37 222.438 1057.78 223.164C1057.19 223.891 1056.89 225.047 1056.88 226.633V227.066C1056.88 228.871 1057.18 230.164 1057.78 230.945C1058.38 231.719 1059.35 232.105 1060.67 232.105C1061.78 232.105 1062.65 231.656 1063.28 230.758C1063.91 229.859 1064.23 228.621 1064.23 227.043C1064.23 225.441 1063.91 224.215 1063.28 223.363C1062.65 222.504 1061.77 222.074 1060.63 222.074ZM1076.23 220.422C1076.8 220.422 1077.31 220.469 1077.77 220.562L1077.5 222.367C1076.96 222.25 1076.5 222.191 1076.09 222.191C1075.05 222.191 1074.16 222.613 1073.42 223.457C1072.68 224.301 1072.32 225.352 1072.32 226.609V233.5H1070.37V220.656H1071.98L1072.2 223.035H1072.29C1072.77 222.199 1073.34 221.555 1074.02 221.102C1074.69 220.648 1075.43 220.422 1076.23 220.422ZM1082.83 233.5H1080.89V220.656H1082.83V233.5ZM1080.72 217.176C1080.72 216.73 1080.83 216.406 1081.05 216.203C1081.27 215.992 1081.54 215.887 1081.87 215.887C1082.18 215.887 1082.45 215.992 1082.68 216.203C1082.91 216.414 1083.02 216.738 1083.02 217.176C1083.02 217.613 1082.91 217.941 1082.68 218.16C1082.45 218.371 1082.18 218.477 1081.87 218.477C1081.54 218.477 1081.27 218.371 1081.05 218.16C1080.83 217.941 1080.72 217.613 1080.72 217.176ZM1095.96 229.996C1095.96 231.191 1095.52 232.113 1094.63 232.762C1093.74 233.41 1092.49 233.734 1090.88 233.734C1089.17 233.734 1087.85 233.465 1086.89 232.926V231.121C1087.51 231.434 1088.17 231.68 1088.87 231.859C1089.58 232.039 1090.27 232.129 1090.92 232.129C1091.94 232.129 1092.72 231.969 1093.27 231.648C1093.81 231.32 1094.09 230.824 1094.09 230.16C1094.09 229.66 1093.87 229.234 1093.43 228.883C1093 228.523 1092.16 228.102 1090.9 227.617C1089.71 227.172 1088.85 226.785 1088.35 226.457C1087.85 226.121 1087.47 225.742 1087.22 225.32C1086.98 224.898 1086.86 224.395 1086.86 223.809C1086.86 222.762 1087.28 221.938 1088.14 221.336C1088.99 220.727 1090.15 220.422 1091.64 220.422C1093.02 220.422 1094.37 220.703 1095.69 221.266L1095 222.848C1093.71 222.316 1092.55 222.051 1091.5 222.051C1090.58 222.051 1089.88 222.195 1089.41 222.484C1088.94 222.773 1088.71 223.172 1088.71 223.68C1088.71 224.023 1088.8 224.316 1088.97 224.559C1089.15 224.801 1089.43 225.031 1089.82 225.25C1090.21 225.469 1090.96 225.785 1092.07 226.199C1093.6 226.754 1094.62 227.312 1095.15 227.875C1095.69 228.438 1095.96 229.145 1095.96 229.996ZM1105.28 233.734C1103.39 233.734 1101.89 233.156 1100.78 232C1099.69 230.844 1099.14 229.238 1099.14 227.184C1099.14 225.113 1099.65 223.469 1100.67 222.25C1101.69 221.031 1103.06 220.422 1104.78 220.422C1106.39 220.422 1107.66 220.953 1108.6 222.016C1109.54 223.07 1110.01 224.465 1110.01 226.199V227.43H1101.16C1101.2 228.938 1101.58 230.082 1102.3 230.863C1103.02 231.645 1104.04 232.035 1105.36 232.035C1106.74 232.035 1108.11 231.746 1109.46 231.168V232.902C1108.77 233.199 1108.12 233.41 1107.5 233.535C1106.89 233.668 1106.15 233.734 1105.28 233.734ZM1104.76 222.051C1103.73 222.051 1102.9 222.387 1102.28 223.059C1101.68 223.73 1101.32 224.66 1101.21 225.848H1107.92C1107.92 224.621 1107.65 223.684 1107.1 223.035C1106.55 222.379 1105.77 222.051 1104.76 222.051ZM1129.3 229.996C1129.3 231.191 1128.85 232.113 1127.96 232.762C1127.07 233.41 1125.82 233.734 1124.21 233.734C1122.51 233.734 1121.18 233.465 1120.22 232.926V231.121C1120.84 231.434 1121.5 231.68 1122.21 231.859C1122.92 232.039 1123.6 232.129 1124.26 232.129C1125.27 232.129 1126.05 231.969 1126.6 231.648C1127.15 231.32 1127.42 230.824 1127.42 230.16C1127.42 229.66 1127.2 229.234 1126.76 228.883C1126.33 228.523 1125.49 228.102 1124.23 227.617C1123.04 227.172 1122.19 226.785 1121.68 226.457C1121.18 226.121 1120.8 225.742 1120.55 225.32C1120.31 224.898 1120.19 224.395 1120.19 223.809C1120.19 222.762 1120.62 221.938 1121.47 221.336C1122.32 220.727 1123.49 220.422 1124.97 220.422C1126.35 220.422 1127.71 220.703 1129.03 221.266L1128.33 222.848C1127.05 222.316 1125.88 222.051 1124.83 222.051C1123.91 222.051 1123.21 222.195 1122.74 222.484C1122.28 222.773 1122.04 223.172 1122.04 223.68C1122.04 224.023 1122.13 224.316 1122.3 224.559C1122.48 224.801 1122.76 225.031 1123.15 225.25C1123.55 225.469 1124.3 225.785 1125.4 226.199C1126.93 226.754 1127.96 227.312 1128.49 227.875C1129.03 228.438 1129.3 229.145 1129.3 229.996ZM1131.15 220.656H1133.24L1136.05 227.98C1136.67 229.652 1137.05 230.859 1137.2 231.602H1137.29C1137.39 231.203 1137.61 230.523 1137.93 229.562C1138.25 228.594 1139.32 225.625 1141.11 220.656H1143.2L1137.68 235.281C1137.13 236.727 1136.49 237.75 1135.76 238.352C1135.03 238.961 1134.14 239.266 1133.07 239.266C1132.48 239.266 1131.89 239.199 1131.32 239.066V237.508C1131.75 237.602 1132.23 237.648 1132.76 237.648C1134.09 237.648 1135.05 236.898 1135.62 235.398L1136.33 233.57L1131.15 220.656ZM1154.29 229.996C1154.29 231.191 1153.84 232.113 1152.95 232.762C1152.06 233.41 1150.81 233.734 1149.2 233.734C1147.5 233.734 1146.17 233.465 1145.22 232.926V231.121C1145.84 231.434 1146.5 231.68 1147.2 231.859C1147.91 232.039 1148.59 232.129 1149.25 232.129C1150.27 232.129 1151.05 231.969 1151.59 231.648C1152.14 231.32 1152.41 230.824 1152.41 230.16C1152.41 229.66 1152.2 229.234 1151.76 228.883C1151.33 228.523 1150.49 228.102 1149.23 227.617C1148.03 227.172 1147.18 226.785 1146.67 226.457C1146.17 226.121 1145.8 225.742 1145.55 225.32C1145.31 224.898 1145.18 224.395 1145.18 223.809C1145.18 222.762 1145.61 221.938 1146.46 221.336C1147.31 220.727 1148.48 220.422 1149.97 220.422C1151.35 220.422 1152.7 220.703 1154.02 221.266L1153.33 222.848C1152.04 222.316 1150.87 222.051 1149.83 222.051C1148.9 222.051 1148.21 222.195 1147.74 222.484C1147.27 222.773 1147.04 223.172 1147.04 223.68C1147.04 224.023 1147.12 224.316 1147.29 224.559C1147.47 224.801 1147.76 225.031 1148.15 225.25C1148.54 225.469 1149.29 225.785 1150.4 226.199C1151.92 226.754 1152.95 227.312 1153.48 227.875C1154.02 228.438 1154.29 229.145 1154.29 229.996ZM1162.33 232.129C1162.68 232.129 1163.01 232.105 1163.33 232.059C1163.65 232.004 1163.9 231.949 1164.09 231.895V233.383C1163.88 233.484 1163.57 233.566 1163.15 233.629C1162.75 233.699 1162.38 233.734 1162.05 233.734C1159.57 233.734 1158.33 232.426 1158.33 229.809V222.168H1156.49V221.23L1158.33 220.422L1159.15 217.68H1160.27V220.656H1164V222.168H1160.27V229.727C1160.27 230.5 1160.46 231.094 1160.82 231.508C1161.19 231.922 1161.69 232.129 1162.33 232.129ZM1172.82 233.734C1170.92 233.734 1169.42 233.156 1168.32 232C1167.22 230.844 1166.68 229.238 1166.68 227.184C1166.68 225.113 1167.18 223.469 1168.2 222.25C1169.22 221.031 1170.59 220.422 1172.31 220.422C1173.92 220.422 1175.19 220.953 1176.13 222.016C1177.07 223.07 1177.54 224.465 1177.54 226.199V227.43H1168.69C1168.73 228.938 1169.11 230.082 1169.83 230.863C1170.55 231.645 1171.57 232.035 1172.89 232.035C1174.27 232.035 1175.64 231.746 1176.99 231.168V232.902C1176.3 233.199 1175.65 233.41 1175.03 233.535C1174.42 233.668 1173.68 233.734 1172.82 233.734ZM1172.29 222.051C1171.26 222.051 1170.43 222.387 1169.82 223.059C1169.21 223.73 1168.85 224.66 1168.74 225.848H1175.45C1175.45 224.621 1175.18 223.684 1174.63 223.035C1174.09 222.379 1173.3 222.051 1172.29 222.051ZM1197.96 233.5V225.145C1197.96 224.121 1197.74 223.355 1197.3 222.848C1196.86 222.332 1196.18 222.074 1195.26 222.074C1194.05 222.074 1193.16 222.422 1192.58 223.117C1192 223.812 1191.71 224.883 1191.71 226.328V233.5H1189.77V225.145C1189.77 224.121 1189.55 223.355 1189.11 222.848C1188.67 222.332 1187.99 222.074 1187.06 222.074C1185.84 222.074 1184.95 222.441 1184.38 223.176C1183.81 223.902 1183.53 225.098 1183.53 226.762V233.5H1181.59V220.656H1183.17L1183.49 222.414H1183.58C1183.95 221.789 1184.46 221.301 1185.13 220.949C1185.8 220.598 1186.55 220.422 1187.38 220.422C1189.38 220.422 1190.7 221.148 1191.31 222.602H1191.41C1191.79 221.93 1192.34 221.398 1193.07 221.008C1193.8 220.617 1194.63 220.422 1195.56 220.422C1197.01 220.422 1198.09 220.797 1198.81 221.547C1199.54 222.289 1199.9 223.48 1199.9 225.121V233.5H1197.96ZM1212.93 229.996C1212.93 231.191 1212.48 232.113 1211.59 232.762C1210.7 233.41 1209.45 233.734 1207.84 233.734C1206.14 233.734 1204.81 233.465 1203.86 232.926V231.121C1204.47 231.434 1205.13 231.68 1205.84 231.859C1206.55 232.039 1207.23 232.129 1207.89 232.129C1208.9 232.129 1209.69 231.969 1210.23 231.648C1210.78 231.32 1211.05 230.824 1211.05 230.16C1211.05 229.66 1210.83 229.234 1210.4 228.883C1209.97 228.523 1209.12 228.102 1207.87 227.617C1206.67 227.172 1205.82 226.785 1205.31 226.457C1204.81 226.121 1204.44 225.742 1204.19 225.32C1203.94 224.898 1203.82 224.395 1203.82 223.809C1203.82 222.762 1204.25 221.938 1205.1 221.336C1205.95 220.727 1207.12 220.422 1208.6 220.422C1209.99 220.422 1211.34 220.703 1212.66 221.266L1211.97 222.848C1210.68 222.316 1209.51 222.051 1208.46 222.051C1207.54 222.051 1206.85 222.195 1206.38 222.484C1205.91 222.773 1205.67 223.172 1205.67 223.68C1205.67 224.023 1205.76 224.316 1205.93 224.559C1206.11 224.801 1206.4 225.031 1206.79 225.25C1207.18 225.469 1207.93 225.785 1209.04 226.199C1210.56 226.754 1211.59 227.312 1212.12 227.875C1212.66 228.438 1212.93 229.145 1212.93 229.996Z" fill="#375E74"/>
<defs>
<linearGradient id="paint0_linear_3215_3325" x1="271.56" y1="20.1129" x2="271.56" y2="83.8682" gradientUnits="userSpaceOnUse">
<stop stop-color="#10B8EC"/>
<stop offset="0.1" stop-color="#18AAE2"/>
<stop offset="0.29" stop-color="#1E92D1"/>
<stop offset="0.34" stop-color="#208CCD"/>
<stop offset="0.57" stop-color="#2677BC"/>
<stop offset="0.8" stop-color="#2F69B1"/>
<stop offset="1" stop-color="#2F65AE"/>
</linearGradient>
<linearGradient id="paint1_linear_3215_3325" x1="1478.31" y1="10.0467" x2="1494.57" y2="52.8448" gradientUnits="userSpaceOnUse">
<stop stop-color="#0B53CE"/>
<stop offset="1" stop-color="#7252AA"/>
</linearGradient>
<linearGradient id="paint2_linear_3215_3325" x1="1496.8" y1="91.9304" x2="1496.8" y2="40.9808" gradientUnits="userSpaceOnUse">
<stop stop-color="#2266E3"/>
<stop offset="1" stop-color="#AE7FE2"/>
</linearGradient>
<linearGradient id="paint3_linear_3215_3325" x1="1519.72" y1="66.0575" x2="1502.16" y2="66.0575" gradientUnits="userSpaceOnUse">
<stop stop-color="#94B9FF"/>
<stop offset="0.2878" stop-color="#94B9FF" stop-opacity="0.5236"/>
<stop offset="1" stop-color="#538FFF" stop-opacity="0"/>
</linearGradient>
<linearGradient id="paint4_linear_3215_3325" x1="22.9837" y1="227.51" x2="42.1529" y2="215.916" gradientUnits="userSpaceOnUse">
<stop stop-color="#00649C"/>
<stop offset="0.11" stop-color="#0875AC"/>
<stop offset="0.37" stop-color="#1A9ACF"/>
<stop offset="0.62" stop-color="#28B5E9"/>
<stop offset="0.83" stop-color="#30C6F9"/>
<stop offset="1" stop-color="#33CCFF"/>
</linearGradient>
<linearGradient id="paint5_linear_3215_3325" x1="27.3666" y1="193.752" x2="18.6973" y2="230.253" gradientUnits="userSpaceOnUse">
<stop stop-color="#00649C"/>
<stop offset="0.11" stop-color="#0875AC"/>
<stop offset="0.37" stop-color="#1A9ACF"/>
<stop offset="0.62" stop-color="#28B5E9"/>
<stop offset="0.83" stop-color="#30C6F9"/>
<stop offset="1" stop-color="#33CCFF"/>
</linearGradient>
<linearGradient id="paint6_linear_3215_3325" x1="44.8546" y1="213.125" x2="18.1062" y2="203.764" gradientUnits="userSpaceOnUse">
<stop stop-color="#00649C"/>
<stop offset="0.11" stop-color="#0875AC"/>
<stop offset="0.37" stop-color="#1A9ACF"/>
<stop offset="0.62" stop-color="#28B5E9"/>
<stop offset="0.83" stop-color="#30C6F9"/>
<stop offset="1" stop-color="#33CCFF"/>
</linearGradient>
<clipPath id="clip0_3215_3325">
<rect width="376" height="64" fill="white" transform="translate(197 20)"/>
</clipPath>
<clipPath id="clip1_3215_3325">
<rect width="239" height="83" fill="white" transform="translate(1458 10.5)"/>
</clipPath>
<clipPath id="clip2_3215_3325">
<rect width="295" height="66" fill="white" transform="translate(371 191)"/>
</clipPath>
</defs>
</svg>
