<svg width="115" height="176" fill="none" xmlns="http://www.w3.org/2000/svg"><path fill="#595959" d="M8 0h100v139.99H8z"/><path d="M57.5 175.25 7.7 139.19h99.6l-49.8 36.06Z" fill="#595959"/><path d="M35.95 92.32v4.9h.34c.53 0 .96-.08 1.3-.24a2 2 0 0 0 .84-.8c.23-.37.38-.88.45-1.52h.31v5.99h-.3c-.12-1.13-.42-1.88-.92-2.24a2.75 2.75 0 0 0-1.68-.54h-.34v3.65c0 .6.03.99.1 1.14.07.15.2.29.39.4.2.12.47.17.8.17h.4v.33H31.4v-.33h.4c.35 0 .62-.06.83-.18a.8.8 0 0 0 .36-.42c.06-.15.1-.52.1-1.11v-7.84c0-.61-.04-1-.1-1.15a.86.86 0 0 0-.4-.4c-.2-.1-.46-.17-.79-.17h-.4v-.32h10.06v3.42h-.36c-.08-.8-.3-1.4-.63-1.79a2.73 2.73 0 0 0-1.46-.81c-.35-.1-1-.14-1.95-.14h-1.11Zm10.54 2.77c.71 0 1.38.19 2 .56.6.37 1.07.89 1.39 1.57.32.68.48 1.42.48 2.23 0 1.17-.3 2.14-.89 2.93a3.5 3.5 0 0 1-2.96 1.42 3.4 3.4 0 0 1-2.85-1.3 4.8 4.8 0 0 1-1-3.01c0-1.18.33-2.2 1.01-3.08a3.37 3.37 0 0 1 2.82-1.32Zm.03.63c-.3 0-.56.11-.77.34-.21.22-.35.67-.42 1.34-.07.66-.1 1.58-.1 2.76 0 .63.04 1.22.12 1.76.07.42.2.73.42.95.2.22.45.33.72.33a1 1 0 0 0 .66-.22c.22-.2.38-.48.45-.84.12-.56.18-1.68.18-3.37 0-1-.06-1.68-.17-2.05a1.57 1.57 0 0 0-.5-.82.92.92 0 0 0-.59-.18Zm8.5-.38v1.86a5.94 5.94 0 0 1 1.43-1.69c.41-.28.8-.42 1.19-.42.33 0 .59.1.78.31.2.2.3.48.3.85 0 .4-.1.7-.29.92a.87.87 0 0 1-.68.32c-.32 0-.59-.1-.81-.3l-.4-.33a.39.39 0 0 0-.21-.05.74.74 0 0 0-.48.19c-.24.2-.43.48-.55.85-.19.57-.28 1.2-.28 1.88v2.38c0 .34.03.55.07.65.07.16.17.27.3.35.15.07.38.11.71.13v.32h-4.44v-.32c.36-.03.6-.13.72-.29.13-.17.2-.61.2-1.33v-4.54c0-.47-.03-.77-.07-.9a.7.7 0 0 0-.26-.36c-.1-.07-.3-.13-.59-.16v-.32h3.36Zm7.77-3.7v4.52a3.11 3.11 0 0 1 2.27-1.07c.56 0 1.09.17 1.59.5.5.33.89.8 1.17 1.41.28.6.42 1.31.42 2.1 0 .9-.18 1.72-.54 2.45-.35.73-.83 1.3-1.43 1.68a3.73 3.73 0 0 1-3.23.36 3.34 3.34 0 0 1-1.02-.68l-1.37.88h-.3V93.34c0-.47-.02-.76-.06-.88a.66.66 0 0 0-.28-.36 1.3 1.3 0 0 0-.63-.14v-.32h3.41Zm0 5.3v3.66c0 .75.02 1.22.05 1.43.06.34.2.62.42.84.23.21.51.32.86.32.3 0 .55-.09.76-.26.22-.17.4-.5.54-1 .14-.51.22-1.42.22-2.73 0-1.26-.16-2.13-.48-2.6a1.06 1.06 0 0 0-.92-.5c-.5 0-.99.28-1.45.85Zm13.8 2.21h-4.51c.05 1.1.34 1.95.87 2.59.4.48.9.73 1.46.73.35 0 .67-.1.96-.3.28-.2.6-.55.92-1.06l.3.2c-.45.9-.94 1.55-1.48 1.93a3.2 3.2 0 0 1-1.87.56 3.12 3.12 0 0 1-2.77-1.4c-.5-.76-.75-1.7-.75-2.82 0-1.37.36-2.46 1.1-3.27a3.43 3.43 0 0 1 2.61-1.22c.84 0 1.56.35 2.17 1.03.61.68.94 1.7.99 3.03Zm-2.16-.59c0-.94-.06-1.59-.16-1.94-.1-.35-.26-.62-.48-.8a.73.73 0 0 0-.49-.16c-.3 0-.55.15-.75.45a3.84 3.84 0 0 0-.51 2.15v.3h2.39Zm8.39-3.45.13 2.8h-.3a4.37 4.37 0 0 0-1.11-1.7c-.38-.3-.76-.46-1.15-.46a.85.85 0 0 0-.61.25.73.73 0 0 0-.26.55c0 .16.06.31.18.46.19.24.71.65 1.57 1.24a6.3 6.3 0 0 1 1.7 1.48c.28.4.41.86.41 1.36 0 .46-.11.91-.34 1.35a2.4 2.4 0 0 1-.97 1.01c-.41.23-.87.35-1.38.35-.39 0-.91-.12-1.57-.37-.18-.06-.3-.1-.36-.1-.2 0-.35.15-.48.45h-.3l-.13-2.96h.3c.26.78.62 1.36 1.08 1.74.46.39.9.58 1.3.58.29 0 .51-.08.7-.25a.85.85 0 0 0 .26-.63c0-.29-.08-.53-.26-.73-.18-.2-.57-.52-1.18-.94a9.22 9.22 0 0 1-1.74-1.42 2.48 2.48 0 0 1-.58-1.59c0-.63.22-1.2.65-1.71.44-.52 1.07-.78 1.9-.78.45 0 .88.11 1.3.33.15.09.28.13.38.13.1 0 .19-.02.25-.06.07-.05.17-.17.31-.38h.3Z" fill="#F0F8FC"/><path d="M37 110.07v20.3" stroke="#F0F8FC"/><path d="M46.62 113.55c.46.1.8.25 1.03.47.32.3.47.66.47 1.1 0 .33-.1.64-.3.94-.22.3-.5.52-.87.66a5 5 0 0 1-1.66.2h-3.12v-.17h.24c.28 0 .48-.09.6-.27.08-.11.11-.35.11-.72v-4.28c0-.41-.04-.67-.14-.78-.13-.14-.31-.21-.56-.21h-.25v-.18h2.86c.53 0 .96.04 1.28.11.49.12.86.33 1.12.63a1.52 1.52 0 0 1 .08 1.92c-.2.26-.5.45-.9.58Zm-2.56-.26a4.02 4.02 0 0 0 .92.06c.48 0 .84-.05 1.07-.15.24-.1.43-.26.55-.47.13-.21.2-.44.2-.7 0-.38-.16-.71-.48-.98-.31-.28-.78-.41-1.38-.41-.33 0-.62.03-.88.1v2.55Zm0 3.16c.38.09.75.13 1.12.13.59 0 1.04-.13 1.35-.4.3-.26.46-.59.46-.98 0-.26-.07-.5-.21-.74a1.4 1.4 0 0 0-.68-.56c-.32-.14-.71-.2-1.18-.2a10.91 10.91 0 0 0-.86.03v2.72Zm8.84-4v2.72c0 .51.01.83.04.95.02.11.06.2.11.24.06.04.12.07.2.07.1 0 .21-.03.34-.09l.07.17-1.34.55h-.22v-.94c-.39.41-.68.68-.88.78-.2.11-.42.16-.64.16-.25 0-.47-.07-.66-.21-.18-.15-.3-.33-.38-.56-.07-.23-.1-.55-.1-.97v-2a.99.99 0 0 0-.07-.43.44.44 0 0 0-.2-.19 1.13 1.13 0 0 0-.49-.06v-.18h1.57v2.99c0 .42.07.69.21.82.15.13.32.2.53.2.14 0 .3-.05.47-.14.18-.08.4-.25.64-.5v-2.53c0-.26-.05-.43-.14-.52-.1-.09-.29-.14-.58-.14v-.18h1.52Zm3.97-.13v1.53h-.16c-.12-.48-.28-.8-.48-.98-.19-.17-.43-.26-.73-.26a.81.81 0 0 0-.56.18c-.14.12-.2.26-.2.4 0 .19.05.34.15.47.1.14.3.28.62.43l.7.34c.67.33 1 .75 1 1.28 0 .4-.15.73-.46.98-.31.25-.65.38-1.03.38-.28 0-.59-.05-.94-.15a.94.94 0 0 0-.27-.05c-.07 0-.13.04-.17.13h-.16v-1.6h.16c.09.46.26.8.52 1.03.26.23.55.35.87.35.22 0 .4-.07.54-.2.15-.13.22-.3.22-.48a.75.75 0 0 0-.24-.56 4.05 4.05 0 0 0-.94-.58 2.8 2.8 0 0 1-.93-.64 1.1 1.1 0 0 1-.22-.7c0-.37.12-.68.37-.93.26-.24.59-.37.99-.37.17 0 .38.04.64.12.16.05.27.07.33.07a.2.2 0 0 0 .12-.04.46.46 0 0 0 .1-.15h.16Zm2.15-2.33c.13 0 .25.04.34.14.1.1.15.21.15.35 0 .13-.05.25-.15.35a.48.48 0 0 1-.7 0 .48.48 0 0 1-.14-.35c0-.14.05-.25.14-.35.1-.1.22-.14.36-.14Zm.4 2.33v3.6c0 .28.02.47.06.56.04.09.1.16.18.2.08.05.23.07.44.07v.18h-2.17v-.18a1 1 0 0 0 .44-.06.42.42 0 0 0 .17-.21c.05-.1.07-.29.07-.56v-1.73c0-.48-.01-.8-.04-.94-.03-.1-.06-.17-.11-.21a.3.3 0 0 0-.2-.07c-.1 0-.2.03-.33.08l-.07-.18 1.35-.55h.21Zm2.55.95c.52-.63 1.02-.95 1.5-.95.24 0 .45.07.62.19.18.12.32.32.42.6.08.2.11.5.11.9v1.9c0 .3.02.48.07.58.04.09.1.15.17.2a1 1 0 0 0 .45.06v.18h-2.22v-.18h.1c.2 0 .35-.03.43-.09a.5.5 0 0 0 .18-.28c.01-.05.02-.2.02-.46v-1.83c0-.41-.06-.7-.16-.89-.1-.18-.29-.28-.54-.28-.38 0-.77.22-1.15.64v2.36c0 .3.01.49.05.56.05.1.1.16.19.2.08.05.24.07.48.07v.18h-2.2v-.18h.09c.23 0 .38-.05.46-.17.08-.11.12-.34.12-.66v-1.66c0-.54-.01-.87-.04-.98-.02-.12-.06-.2-.11-.24a.3.3 0 0 0-.2-.07c-.1 0-.2.03-.33.08l-.07-.18 1.35-.55h.2v.95Zm4.44.87c0 .66.16 1.19.49 1.56.32.38.7.57 1.14.57.3 0 .55-.08.77-.24.21-.16.4-.44.54-.83l.15.1c-.06.44-.26.85-.6 1.22a1.6 1.6 0 0 1-1.23.55c-.53 0-1-.21-1.38-.63a2.42 2.42 0 0 1-.57-1.69c0-.76.2-1.36.59-1.79.4-.43.88-.64 1.48-.64.5 0 .9.17 1.23.5.32.33.48.77.48 1.32h-3.09Zm0-.28h2.07a1.91 1.91 0 0 0-.1-.6.96.96 0 0 0-.36-.44.9.9 0 0 0-.5-.15c-.28 0-.52.1-.73.31-.22.21-.34.5-.38.88Zm6.59-1.54v1.53h-.17c-.12-.48-.28-.8-.47-.98-.2-.17-.44-.26-.74-.26a.81.81 0 0 0-.55.18c-.14.12-.21.26-.21.4 0 .19.05.34.15.47.1.14.31.28.62.43l.71.34c.66.33 1 .75 1 1.28 0 .4-.16.73-.47.98-.3.25-.65.38-1.03.38-.27 0-.59-.05-.94-.15a.94.94 0 0 0-.26-.05c-.08 0-.14.04-.18.13h-.16v-1.6h.16c.1.46.27.8.52 1.03.26.23.55.35.87.35.22 0 .4-.07.55-.2.14-.13.21-.3.21-.48a.75.75 0 0 0-.24-.56 4.06 4.06 0 0 0-.94-.58 2.8 2.8 0 0 1-.93-.64 1.1 1.1 0 0 1-.22-.7c0-.37.13-.68.38-.93.25-.24.58-.37.98-.37.17 0 .39.04.64.12.16.05.28.07.33.07a.2.2 0 0 0 .12-.04.46.46 0 0 0 .1-.15H73Zm3.9 0v1.53h-.17c-.12-.48-.28-.8-.48-.98-.19-.17-.43-.26-.73-.26a.81.81 0 0 0-.56.18c-.14.12-.2.26-.2.4 0 .19.05.34.15.47.1.14.3.28.62.43l.7.34c.67.33 1 .75 1 1.28 0 .4-.16.73-.46.98-.31.25-.65.38-1.03.38-.28 0-.6-.05-.94-.15a.94.94 0 0 0-.27-.05c-.07 0-.13.04-.17.13h-.16v-1.6h.16c.09.46.26.8.52 1.03.26.23.55.35.87.35.22 0 .4-.07.54-.2.15-.13.22-.3.22-.48a.75.75 0 0 0-.24-.56 4.06 4.06 0 0 0-.94-.58 2.8 2.8 0 0 1-.93-.64 1.1 1.1 0 0 1-.22-.7c0-.37.12-.68.37-.93.26-.24.58-.37.99-.37.17 0 .38.04.63.12.17.05.28.07.34.07a.2.2 0 0 0 .12-.04.46.46 0 0 0 .1-.15h.16Zm-28.88 8.84.15 2.25h-.15a2.83 2.83 0 0 0-.86-1.46 2.1 2.1 0 0 0-1.35-.44c-.44 0-.84.11-1.2.33-.35.23-.63.58-.83 1.07-.2.49-.3 1.1-.3 1.82 0 .6.1 1.12.28 1.56.2.44.48.77.87 1 .38.24.83.36 1.32.36.43 0 .8-.1 1.14-.27a3.8 3.8 0 0 0 1.08-1.1l.15.1a3.48 3.48 0 0 1-1.16 1.29c-.44.27-.97.41-1.58.41-1.1 0-1.94-.4-2.54-1.22a3.49 3.49 0 0 1-.68-2.14c0-.66.15-1.27.45-1.82a3.3 3.3 0 0 1 2.92-1.74c.48 0 .95.11 1.42.35.13.07.23.1.29.1.09 0 .16-.03.23-.09a.76.76 0 0 0 .18-.36h.17Zm3.15 2.16c.68 0 1.22.26 1.63.78.35.44.52.94.52 1.5 0 .41-.1.82-.28 1.23-.2.4-.46.71-.8.92-.34.21-.71.31-1.12.31a1.9 1.9 0 0 1-1.61-.8 2.5 2.5 0 0 1-.5-1.52c0-.41.1-.82.3-1.22a2.08 2.08 0 0 1 1.86-1.2Zm-.15.32c-.17 0-.35.05-.52.16-.18.1-.32.28-.42.53-.11.26-.16.6-.16 1 0 .65.12 1.2.38 1.68.26.47.6.7 1.03.7.31 0 .57-.12.78-.38.2-.26.3-.71.3-1.34 0-.8-.17-1.42-.5-1.88a1.06 1.06 0 0 0-.9-.47Zm6.88-.18v2.7c0 .52.01.84.04.96.02.11.06.2.11.24.06.04.12.07.2.07.1 0 .21-.03.34-.09l.07.17-1.34.55h-.22v-.94c-.39.41-.68.68-.88.78-.2.11-.42.16-.64.16-.25 0-.47-.07-.66-.21-.18-.15-.3-.33-.38-.56-.07-.23-.1-.55-.1-.97v-2a.99.99 0 0 0-.07-.43.44.44 0 0 0-.2-.19 1.13 1.13 0 0 0-.49-.06v-.18h1.57v2.99c0 .42.07.69.21.82.15.13.32.2.53.2.14 0 .3-.05.47-.14.18-.08.4-.25.64-.5v-2.53c0-.26-.05-.43-.14-.52-.1-.09-.29-.14-.58-.14v-.18h1.52Zm2.39.81c.52-.63 1.02-.95 1.5-.95.24 0 .45.07.63.19.17.12.31.32.41.6.08.2.11.5.11.9v1.9c0 .3.03.48.07.58.04.09.1.15.17.2a1 1 0 0 0 .45.06v.18H61.4v-.18h.1c.2 0 .35-.03.43-.09a.5.5 0 0 0 .18-.28c.01-.05.02-.2.02-.46v-1.83c0-.41-.06-.7-.16-.89-.1-.18-.29-.28-.54-.28-.38 0-.77.22-1.15.64v2.36c0 .3.01.49.05.56.05.1.1.16.19.2.08.05.24.07.48.07v.18h-2.2v-.18h.09c.23 0 .38-.05.46-.17.08-.11.12-.34.12-.66v-1.66c0-.54-.01-.87-.04-.98-.02-.12-.06-.2-.11-.24a.3.3 0 0 0-.2-.07c-.1 0-.2.03-.33.08l-.07-.18 1.35-.55h.2v.95Zm7.5 1.96a2.44 2.44 0 0 1-.72 1.36c-.35.32-.74.47-1.16.47-.51 0-.95-.2-1.33-.63-.38-.43-.57-1-.57-1.73 0-.7.21-1.28.63-1.72.42-.44.92-.66 1.5-.66.44 0 .8.12 1.09.36.28.23.42.47.42.72a.4.4 0 0 1-.12.3c-.08.08-.19.11-.33.11-.2 0-.34-.06-.43-.18-.06-.07-.1-.2-.12-.4a.63.63 0 0 0-.2-.43.7.7 0 0 0-.47-.15.97.97 0 0 0-.78.36c-.27.32-.4.74-.4 1.27s.13 1 .4 1.41c.26.41.61.61 1.06.61.32 0 .6-.1.86-.32.18-.15.35-.42.52-.82l.14.07Zm1.77-5.25c.14 0 .26.05.35.15.1.1.15.21.15.35 0 .13-.05.25-.15.35-.1.1-.21.15-.35.15a.48.48 0 0 1-.35-.15.48.48 0 0 1-.14-.35c0-.14.04-.25.14-.35.1-.1.21-.14.35-.14Zm.4 2.34v3.6c0 .28.03.47.07.56.04.09.1.16.18.2.08.05.23.07.44.07v.18h-2.18v-.18a1 1 0 0 0 .44-.06.42.42 0 0 0 .18-.21c.05-.1.07-.29.07-.56v-1.73c0-.48-.02-.8-.05-.94-.02-.1-.05-.17-.1-.21a.3.3 0 0 0-.2-.07c-.1 0-.2.03-.34.08l-.06-.18 1.34-.55h.22Zm2.79-2.33v5.93c0 .28.02.46.06.55.04.1.1.17.19.21.08.05.24.07.47.07v.18h-2.2v-.18c.21 0 .35-.02.43-.06a.42.42 0 0 0 .17-.21c.05-.1.07-.29.07-.56v-4.06c0-.5-.01-.82-.04-.93-.02-.12-.06-.2-.11-.24a.28.28 0 0 0-.19-.06c-.08 0-.2.02-.32.07l-.09-.17 1.34-.55h.22ZM30.3 61.75c.76 0 1.43.3 2 .88.57.59.85 1.32.85 2.2 0 .9-.28 1.65-.85 2.25-.58.6-1.27.9-2.08.9-.82 0-1.5-.3-2.07-.88a3.14 3.14 0 0 1-.83-2.26c0-.95.32-1.72.96-2.32a2.85 2.85 0 0 1 2.01-.77Zm-.1.32c-.53 0-.95.2-1.28.59-.4.5-.6 1.21-.6 2.16 0 .98.21 1.72.63 2.25.32.4.74.6 1.26.6.56 0 1.02-.22 1.39-.66.36-.44.55-1.12.55-2.06 0-1.02-.2-1.78-.6-2.29-.33-.4-.77-.6-1.34-.6Zm5.16 2.06v2.65c0 .37.04.61.12.71.11.13.25.2.44.2h.36v.15h-2.4v-.16h.18a.6.6 0 0 0 .32-.08c.1-.06.16-.14.2-.24.03-.1.05-.3.05-.58v-2.65h-.78v-.31h.78v-.27c0-.4.07-.74.2-1.02s.32-.5.59-.67c.26-.17.56-.26.9-.26.3 0 .58.1.84.3.17.13.26.28.26.44 0 .1-.04.18-.12.25a.34.34 0 0 1-.25.12.41.41 0 0 1-.21-.07 1.24 1.24 0 0 1-.27-.31 1.1 1.1 0 0 0-.3-.33.57.57 0 0 0-.3-.08.54.54 0 0 0-.35.1.6.6 0 0 0-.2.34c-.04.15-.06.54-.06 1.17v.29h1.04v.31h-1.04Zm2.83 0v2.65c0 .37.04.61.12.71.11.13.25.2.44.2h.36v.15h-2.4v-.16h.18a.6.6 0 0 0 .32-.08c.1-.06.16-.14.2-.24.03-.1.05-.3.05-.58v-2.65h-.78v-.31h.78v-.27c0-.4.07-.74.2-1.02s.32-.5.59-.67c.26-.17.56-.26.9-.26.3 0 .58.1.84.3.17.13.26.28.26.44 0 .1-.04.18-.12.25a.34.34 0 0 1-.25.12.41.41 0 0 1-.21-.07 1.24 1.24 0 0 1-.27-.31 1.1 1.1 0 0 0-.3-.33.57.57 0 0 0-.3-.08.54.54 0 0 0-.35.1.6.6 0 0 0-.2.34c-.04.15-.06.54-.06 1.17v.29h1.04v.31h-1.04Zm2.45-2.54c.12 0 .22.05.3.13.1.09.14.2.14.32s-.04.22-.13.31a.42.42 0 0 1-.31.13.43.43 0 0 1-.32-.13.43.43 0 0 1-.13-.31c0-.13.04-.23.13-.32.08-.08.19-.13.32-.13Zm.36 2.1v3.24c0 .25.02.42.05.5.04.09.1.15.17.2.07.03.2.05.4.05v.16h-1.96v-.16c.2 0 .32-.02.4-.05.06-.04.11-.1.15-.2.04-.08.06-.25.06-.5v-1.55c0-.44-.01-.72-.04-.85-.02-.1-.05-.16-.1-.2a.27.27 0 0 0-.17-.05.88.88 0 0 0-.3.07l-.07-.16 1.22-.5h.2Zm4.54 2.62c-.11.53-.32.94-.64 1.23-.32.28-.67.42-1.05.42-.46 0-.86-.19-1.2-.57-.34-.38-.5-.9-.5-1.56 0-.63.18-1.14.56-1.54.37-.4.83-.6 1.35-.6.4 0 .72.11.98.32.25.21.38.43.38.65 0 .12-.03.2-.1.28-.08.06-.18.1-.3.1-.18 0-.31-.06-.4-.17-.05-.06-.08-.18-.1-.35a.57.57 0 0 0-.17-.4.63.63 0 0 0-.43-.13c-.3 0-.53.11-.7.33-.25.28-.36.66-.36 1.14 0 .48.11.9.35 1.27.23.37.55.55.95.55.3 0 .55-.1.78-.3.16-.13.32-.37.47-.73l.13.06Zm1.6-4.72c.12 0 .23.05.31.13.09.09.13.2.13.32s-.04.22-.13.31a.42.42 0 0 1-.31.13.43.43 0 0 1-.32-.13.43.43 0 0 1-.13-.31c0-.13.04-.23.13-.32.09-.08.2-.13.32-.13Zm.36 2.1v3.24c0 .25.02.42.06.5.04.09.09.15.16.2.07.03.2.05.4.05v.16h-1.96v-.16c.2 0 .33-.02.4-.05.06-.04.12-.1.15-.2.04-.08.07-.25.07-.5v-1.55c0-.44-.02-.72-.04-.85-.02-.1-.06-.16-.1-.2a.27.27 0 0 0-.18-.05.88.88 0 0 0-.3.07l-.06-.16 1.21-.5h.2Zm3.4 3.57c-.41.32-.67.5-.78.56-.15.07-.32.1-.5.1-.28 0-.51-.09-.7-.28a1.05 1.05 0 0 1-.26-.75c0-.2.04-.37.13-.51.12-.2.33-.39.63-.56.3-.18.79-.4 1.48-.65v-.15c0-.4-.06-.68-.2-.83-.12-.15-.3-.22-.55-.22a.62.62 0 0 0-.43.14.45.45 0 0 0-.17.35v.25c0 .14-.03.24-.1.31a.35.35 0 0 1-.27.11c-.1 0-.2-.03-.26-.11a.45.45 0 0 1-.1-.31c0-.25.12-.49.38-.7.26-.2.62-.31 1.09-.31.35 0 .65.06.88.18.17.09.3.23.38.42.05.13.08.39.08.78v1.36c0 .39 0 .62.02.71.01.09.04.14.07.17.03.03.07.05.12.05.04 0 .09-.01.12-.03l.36-.32v.24c-.33.44-.64.66-.94.66a.43.43 0 0 1-.35-.15c-.08-.1-.13-.27-.13-.5Zm0-.28v-1.54c-.44.18-.73.3-.86.38-.23.12-.4.26-.5.4-.1.14-.14.3-.14.46 0 .21.06.39.19.53.12.14.27.2.43.2.23 0 .52-.14.88-.43Zm3.1-5.39v5.34c0 .25.02.42.06.5.04.08.1.15.17.2a1 1 0 0 0 .42.05v.16h-1.97v-.16c.19 0 .31-.02.38-.05.07-.04.12-.1.16-.2.04-.08.05-.25.05-.5v-3.65c0-.46 0-.74-.03-.84-.02-.1-.05-.18-.1-.21a.25.25 0 0 0-.17-.06.82.82 0 0 0-.29.07l-.07-.16 1.2-.49h.2Zm6.78 6.25-2.3-5.01v3.98c0 .36.03.6.11.68.11.13.28.19.52.19h.2v.16h-2.07v-.16h.21c.26 0 .43-.08.54-.23.06-.1.1-.3.1-.64v-3.9c0-.26-.03-.45-.1-.57a.48.48 0 0 0-.22-.2c-.1-.07-.28-.1-.53-.1v-.16h1.7l2.15 4.67 2.13-4.67h1.69v.17h-.2c-.26 0-.44.07-.55.22-.06.1-.1.31-.1.65v3.89c0 .36.04.6.13.68.1.13.28.19.51.19h.2v.16h-2.52v-.16h.2c.26 0 .44-.08.54-.23.07-.1.1-.3.1-.64v-3.98l-2.3 5.01h-.14Zm5.28-2.5c0 .59.14 1.06.43 1.4.3.34.64.5 1.04.5.26 0 .49-.06.68-.2.2-.15.36-.4.5-.75l.13.08c-.06.4-.24.77-.54 1.1-.3.33-.66.5-1.1.5-.5 0-.9-.2-1.25-.57a2.18 2.18 0 0 1-.52-1.52c0-.69.18-1.22.53-1.6.36-.4.8-.59 1.33-.59.45 0 .83.15 1.12.45.29.3.43.7.43 1.2h-2.78Zm0-.26h1.86a1.72 1.72 0 0 0-.09-.55.87.87 0 0 0-.33-.38.81.81 0 0 0-.45-.14c-.25 0-.46.09-.66.28-.19.19-.3.45-.33.79Zm4.52-.53.51-.5c.14-.11.28-.2.43-.26.15-.06.3-.1.45-.1a1 1 0 0 1 .65.23c.19.14.3.36.37.63.3-.35.56-.58.76-.69.21-.1.43-.16.64-.16.22 0 .4.05.57.16.17.11.3.3.4.54.06.17.1.44.1.8v1.73c0 .25.01.43.05.52.03.06.08.12.16.17.08.04.21.06.4.06v.16h-2v-.16h.09a.7.7 0 0 0 .4-.1.4.4 0 0 0 .15-.22l.01-.43V65.2c0-.33-.03-.56-.11-.7-.12-.18-.3-.28-.55-.28-.16 0-.32.04-.47.12a2.5 2.5 0 0 0-.57.43v2.16c0 .28.01.45.04.52.04.06.1.12.18.17.08.04.23.06.43.06v.16h-2.03v-.16c.22 0 .37-.02.46-.08a.4.4 0 0 0 .17-.23c.02-.05.02-.2.02-.44V65.2c0-.33-.04-.56-.14-.7a.62.62 0 0 0-.54-.29.97.97 0 0 0-.47.13 1.8 1.8 0 0 0-.56.43v2.16c0 .27.01.44.05.52.04.08.1.14.16.18.07.03.22.05.44.05v.16h-1.99v-.16c.18 0 .31-.02.39-.05a.4.4 0 0 0 .16-.2c.04-.08.06-.25.06-.5V65.4c0-.44-.01-.72-.04-.85-.02-.1-.05-.17-.1-.2a.27.27 0 0 0-.18-.06.85.85 0 0 0-.29.07l-.07-.16 1.22-.5h.19v.86Zm6.9-.04c.4-.54.82-.81 1.27-.81.41 0 .77.17 1.08.53.3.35.46.83.46 1.44 0 .72-.23 1.3-.7 1.73a1.96 1.96 0 0 1-2.09.44 3.3 3.3 0 0 1-.74-.39v-4.17c0-.45 0-.73-.03-.84-.02-.1-.06-.18-.1-.21a.27.27 0 0 0-.18-.06.9.9 0 0 0-.3.07l-.07-.16 1.21-.49h.2v2.92Zm0 .28v2.41c.16.15.31.26.47.33.16.08.33.11.5.11.26 0 .5-.14.74-.44.23-.29.34-.71.34-1.27 0-.52-.11-.92-.34-1.2-.23-.27-.5-.4-.79-.4-.15 0-.3.03-.46.11-.12.06-.27.18-.45.35Zm4.08.54c0 .6.14 1.07.44 1.4.29.35.63.52 1.03.52.26 0 .5-.07.69-.22.2-.14.36-.4.49-.74l.13.08c-.06.4-.24.77-.53 1.1-.3.33-.67.5-1.11.5-.49 0-.9-.2-1.25-.57a2.18 2.18 0 0 1-.51-1.52c0-.69.17-1.22.53-1.6.35-.4.8-.59 1.33-.59.45 0 .82.15 1.1.45.3.3.44.7.44 1.2h-2.78Zm0-.25h1.87a1.72 1.72 0 0 0-.1-.55.87.87 0 0 0-.33-.38.81.81 0 0 0-.45-.14c-.24 0-.46.09-.65.28-.2.19-.3.45-.34.79Zm4.5-1.38v.9c.34-.6.69-.9 1.04-.9.16 0 .3.05.4.15.1.1.16.2.16.34a.4.4 0 0 1-.12.29.37.37 0 0 1-.27.11c-.1 0-.22-.05-.35-.15-.12-.1-.22-.15-.28-.15-.05 0-.1.03-.17.09-.13.12-.27.32-.4.6v1.92c0 .22.02.4.08.5.03.09.1.15.2.2.1.06.23.08.42.08v.16H84.7v-.16c.21 0 .36-.03.46-.1a.38.38 0 0 0 .16-.22c.01-.05.02-.19.02-.42v-1.56c0-.47-.01-.75-.03-.84a.31.31 0 0 0-.1-.2.29.29 0 0 0-.2-.06c-.09 0-.2.02-.3.07l-.05-.16 1.22-.5h.18ZM49.8 55.74h-5.46v-.15a29.8 29.8 0 0 0 3.04-4.02c.36-.68.54-1.36.54-2.01 0-.48-.14-.88-.44-1.2-.3-.31-.66-.47-1.09-.47-.7 0-1.24.35-1.63 1.05l-.25-.09c.24-.87.62-1.52 1.12-1.94.5-.42 1.08-.63 1.73-.63.47 0 .9.11 1.29.33.39.22.69.52.9.9.23.38.34.74.34 1.07 0 .6-.17 1.22-.51 1.85-.46.84-1.47 2.01-3.01 3.52h2c.49 0 .8-.02.96-.06.15-.04.27-.1.36-.2.1-.1.23-.31.38-.63h.25l-.52 2.68Zm7.69-4.63c0 .92-.13 1.79-.4 2.59a3.15 3.15 0 0 1-1.52 1.96c-.32.18-.68.28-1.08.28-.44 0-.85-.12-1.2-.35a3.22 3.22 0 0 1-.96-.97c-.2-.31-.38-.73-.53-1.24a8.69 8.69 0 0 1 .13-4.94c.23-.7.59-1.23 1.06-1.6a2.4 2.4 0 0 1 1.5-.56c.54 0 1.04.19 1.5.56.48.36.82.85 1.04 1.47.3.86.46 1.79.46 2.8Zm-2.1-.01c0-1.63-.02-2.57-.04-2.84-.04-.63-.15-1.06-.32-1.29-.12-.14-.3-.22-.56-.22-.2 0-.35.06-.46.17-.17.16-.28.44-.34.85a51 51 0 0 0-.1 4.21c0 1.32.05 2.2.14 2.64.07.33.17.54.3.65.13.11.3.17.5.17.23 0 .4-.08.52-.22.19-.26.3-.65.32-1.19l.03-2.93Zm8.4 4.64h-5.45v-.15a29.8 29.8 0 0 0 3.04-4.02c.36-.68.54-1.36.54-2.01 0-.48-.14-.88-.44-1.2-.3-.31-.66-.47-1.09-.47-.7 0-1.24.35-1.63 1.05l-.25-.09c.24-.87.62-1.52 1.12-1.94.5-.42 1.08-.63 1.73-.63.47 0 .9.11 1.29.33.39.22.69.52.9.9.23.38.34.74.34 1.07 0 .6-.17 1.22-.51 1.85-.46.84-1.47 2.01-3.01 3.52h2c.49 0 .8-.02.96-.06.15-.04.27-.1.36-.2.1-.1.23-.31.38-.63h.25l-.52 2.68Zm7.7-4.63c0 .92-.13 1.79-.4 2.59a3.15 3.15 0 0 1-1.52 1.96c-.32.18-.68.28-1.08.28-.44 0-.85-.12-1.2-.35a3.22 3.22 0 0 1-.96-.97c-.2-.31-.38-.73-.53-1.24a8.69 8.69 0 0 1 .13-4.94c.23-.7.59-1.23 1.06-1.6a2.4 2.4 0 0 1 1.5-.56c.54 0 1.04.19 1.5.56.48.36.82.85 1.04 1.47.3.86.46 1.79.46 2.8Zm-2.1-.01c0-1.63-.02-2.57-.04-2.84-.04-.63-.15-1.06-.32-1.29-.12-.14-.3-.22-.56-.22-.2 0-.35.06-.46.17-.17.16-.28.44-.34.85a51 51 0 0 0-.1 4.21c0 1.32.05 2.2.14 2.64.07.33.17.54.3.65.13.11.3.17.5.17.23 0 .4-.08.52-.22.19-.26.3-.65.32-1.19l.03-2.93Z" fill="#F0F8FC"/></svg>