<svg xmlns="http://www.w3.org/2000/svg" width="85" height="85" fill="none"><circle cx="42.5" cy="42.5" r="42" stroke="#fff"/><path fill="#fff" d="M23.2 24.73v4.2h.3c.45 0 .82-.08 1.1-.21.29-.14.53-.36.72-.68.2-.33.33-.76.4-1.3h.26v5.11h-.27c-.09-.96-.35-1.6-.78-1.9a2.3 2.3 0 0 0-1.43-.47h-.3v3.12c0 .52.03.85.09.98s.17.24.33.34c.18.1.4.14.69.14h.34v.28h-5.33v-.28h.34c.3 0 .53-.05.71-.15a.68.68 0 0 0 .3-.36 3 3 0 0 0 .08-.95v-6.7c0-.53-.02-.85-.08-.98a.73.73 0 0 0-.34-.34 1.3 1.3 0 0 0-.67-.15h-.34v-.28h8.6v2.92h-.31a2.7 2.7 0 0 0-.54-1.52c-.29-.33-.7-.57-1.25-.7a8.1 8.1 0 0 0-1.67-.12h-.95Zm9.02 2.37c.61 0 1.18.16 1.7.48a3 3 0 0 1 1.2 1.34c.28.58.41 1.22.41 1.91a4 4 0 0 1-.76 2.5 3 3 0 0 1-2.53 1.22 2.9 2.9 0 0 1-2.44-1.1 4.1 4.1 0 0 1-.86-2.59c0-1 .3-1.88.87-2.63a2.89 2.89 0 0 1 2.4-1.13Zm.03.54c-.26 0-.48.1-.66.29-.18.19-.3.57-.36 1.14s-.09 1.36-.09 2.37c0 .54.04 1.04.1 1.5.06.36.18.63.36.82.18.18.39.27.62.27.22 0 .41-.06.56-.18.2-.17.33-.41.4-.72.1-.47.14-1.44.14-2.88 0-.86-.04-1.44-.14-1.76-.1-.32-.24-.55-.42-.7a.79.79 0 0 0-.51-.15Zm7.27-.33v1.6c.46-.73.87-1.21 1.22-1.45a1.8 1.8 0 0 1 1.02-.36c.28 0 .5.09.67.27.17.17.25.4.25.73 0 .33-.08.6-.24.78a.75.75 0 0 1-.6.28 1 1 0 0 1-.68-.26c-.2-.17-.31-.27-.35-.29a.33.33 0 0 0-.17-.04.63.63 0 0 0-.42.16c-.2.17-.36.42-.46.73a5.11 5.11 0 0 0-.24 1.61v2.04c0 .29.02.47.06.55a.7.7 0 0 0 .26.3c.12.06.32.1.6.11v.27h-3.8v-.27c.31-.02.52-.1.62-.25.11-.14.17-.52.17-1.13V28.8c0-.4-.02-.65-.06-.76a.6.6 0 0 0-.22-.31c-.1-.07-.26-.11-.5-.14v-.28h2.87Zm6.64-3.16v3.87c.6-.61 1.24-.92 1.94-.92.49 0 .94.15 1.36.43.43.28.76.68 1 1.2a4.7 4.7 0 0 1-.1 3.9 3.19 3.19 0 0 1-4 1.74 3.03 3.03 0 0 1-.86-.58l-1.16.76h-.26V25.6c0-.4-.02-.66-.05-.76a.56.56 0 0 0-.24-.3 1.1 1.1 0 0 0-.54-.12v-.28h2.91Zm0 4.54v3.13c0 .63.02 1.04.05 1.21.05.3.17.54.36.73.2.18.43.27.73.27.26 0 .47-.08.65-.22.19-.15.34-.43.46-.87.13-.43.19-1.2.19-2.33 0-1.07-.14-1.81-.4-2.21a.9.9 0 0 0-.8-.44c-.43 0-.84.24-1.24.73Zm11.8 1.89h-3.85c.05.93.3 1.67.75 2.2.34.42.76.63 1.24.63.3 0 .58-.08.82-.25.25-.17.51-.47.8-.9l.25.16a4.2 4.2 0 0 1-1.27 1.65c-.46.32-.99.48-1.6.48-1.04 0-1.83-.4-2.36-1.2a4.24 4.24 0 0 1-.65-2.4c0-1.18.31-2.11.95-2.8a2.94 2.94 0 0 1 2.23-1.05c.71 0 1.33.3 1.85.88.52.58.8 1.45.85 2.6Zm-1.84-.5c0-.81-.05-1.37-.14-1.67a1.3 1.3 0 0 0-.4-.68.63.63 0 0 0-.42-.14c-.26 0-.48.13-.64.38-.3.45-.45 1.06-.45 1.84v.26h2.05Zm7.18-2.96.11 2.4h-.25a3.73 3.73 0 0 0-.96-1.46c-.33-.26-.65-.4-.98-.4-.2 0-.38.08-.52.22a.63.63 0 0 0-.22.47c0 .14.05.27.15.4.16.2.6.55 1.34 1.05.74.5 1.23.92 1.46 1.27.23.35.35.74.35 1.17 0 .39-.1.77-.3 1.15-.19.37-.47.66-.82.86-.36.2-.75.3-1.18.3-.34 0-.79-.1-1.35-.31a1.12 1.12 0 0 0-.3-.09c-.17 0-.3.13-.42.38h-.25L59.04 32h.26c.22.67.53 1.16.92 1.5.4.32.77.49 1.12.49a.8.8 0 0 0 .59-.22.73.73 0 0 0 .23-.54.93.93 0 0 0-.22-.62 5.89 5.89 0 0 0-1.01-.8 7.9 7.9 0 0 1-1.49-1.22c-.33-.41-.5-.86-.5-1.36 0-.54.2-1.03.56-1.47.38-.44.92-.66 1.63-.66.38 0 .74.1 1.1.28a.7.7 0 0 0 .33.11.4.4 0 0 0 .22-.05c.05-.04.14-.15.26-.32h.26ZM17.82 42.98c.66 0 1.23.25 1.71.75.49.5.73 1.13.73 1.88 0 .78-.24 1.42-.73 1.93s-1.08.77-1.77.77c-.7 0-1.3-.25-1.78-.75a2.69 2.69 0 0 1-.7-1.94c0-.8.27-1.47.82-1.98a2.44 2.44 0 0 1 1.72-.66Zm-.08.27c-.45 0-.82.17-1.1.51-.34.42-.5 1.04-.5 1.85a3 3 0 0 0 .53 1.92c.27.34.63.51 1.08.51.48 0 .87-.19 1.18-.56.32-.37.47-.96.47-1.77 0-.87-.17-1.52-.51-1.95a1.39 1.39 0 0 0-1.15-.5Zm4.41 1.77v2.26c0 .32.03.53.1.61.1.11.22.17.38.17h.3v.13h-2.05v-.13h.16a.5.5 0 0 0 .27-.08.38.38 0 0 0 .17-.2c.03-.09.05-.25.05-.5v-2.26h-.67v-.27h.67v-.23c0-.34.05-.63.16-.87a1.38 1.38 0 0 1 1.27-.8c.27 0 .51.09.73.26.15.11.22.24.22.38a.3.3 0 0 1-.1.21.3.3 0 0 1-.2.1.35.35 0 0 1-.2-.06 1.06 1.06 0 0 1-.23-.27.94.94 0 0 0-.25-.27.49.49 0 0 0-.26-.08.46.46 0 0 0-.3.1.5.5 0 0 0-.17.28c-.03.13-.05.46-.05 1v.25h.89v.27h-.89Zm2.56 0v2.26c0 .32.04.53.1.61.1.11.23.17.38.17h.31v.13h-2.05v-.13h.15c.1 0 .2-.03.28-.08a.38.38 0 0 0 .16-.2c.04-.09.05-.25.05-.5v-2.26h-.67v-.27h.67v-.23c0-.34.06-.63.17-.87.1-.24.28-.43.5-.57.23-.15.49-.23.77-.23.26 0 .5.09.72.26.15.11.22.24.22.38a.3.3 0 0 1-.1.21.3.3 0 0 1-.2.1.35.35 0 0 1-.19-.06 1.06 1.06 0 0 1-.23-.27.94.94 0 0 0-.26-.27.49.49 0 0 0-.26-.08.46.46 0 0 0-.3.1.5.5 0 0 0-.16.28c-.04.13-.06.46-.06 1v.25h.9v.27h-.9Zm2.1-2.17c.1 0 .2.03.26.1.08.08.12.17.12.28 0 .1-.04.2-.12.27a.36.36 0 0 1-.26.1c-.1 0-.2-.03-.27-.1a.37.37 0 0 1-.12-.27c0-.11.04-.2.11-.27a.37.37 0 0 1 .28-.11Zm.3 1.8v2.76c0 .22.02.36.05.44.04.07.08.12.14.15.07.04.18.06.34.06v.13h-1.67v-.13c.17 0 .28-.02.34-.05.05-.04.1-.09.13-.16.04-.08.06-.22.06-.44V46.1c0-.38-.02-.62-.04-.73-.02-.08-.04-.13-.08-.16a.23.23 0 0 0-.16-.05.75.75 0 0 0-.25.05l-.05-.13 1.03-.42h.17ZM31 46.88c-.1.46-.28.8-.55 1.05s-.57.37-.9.37c-.39 0-.73-.17-1.02-.5a1.92 1.92 0 0 1-.43-1.33c0-.54.16-.98.48-1.32.32-.33.7-.5 1.16-.5.34 0 .62.09.83.27.22.18.33.36.33.55a.3.3 0 0 1-.1.24.36.36 0 0 1-.25.08c-.15 0-.26-.04-.33-.14-.05-.05-.07-.15-.09-.3a.49.49 0 0 0-.15-.34.54.54 0 0 0-.36-.11c-.26 0-.46.1-.61.28-.2.24-.3.57-.3.97 0 .41.1.77.3 1.09.2.31.47.47.82.47a1 1 0 0 0 .66-.25c.14-.12.27-.33.4-.63l.1.05Zm1.37-4.03c.1 0 .2.03.27.1.07.08.11.17.11.28 0 .1-.04.2-.11.27a.36.36 0 0 1-.27.1c-.1 0-.2-.03-.27-.1a.37.37 0 0 1-.11-.27c0-.11.03-.2.1-.27a.37.37 0 0 1 .28-.11Zm.31 1.8v2.76c0 .22.02.36.05.44a.3.3 0 0 0 .14.15c.06.04.17.06.34.06v.13h-1.68v-.13c.17 0 .28-.02.34-.05.06-.04.1-.09.14-.16.03-.08.05-.22.05-.44V46.1c0-.38-.01-.62-.04-.73-.01-.08-.04-.13-.08-.16a.23.23 0 0 0-.15-.05.75.75 0 0 0-.26.05l-.05-.13 1.04-.42h.16Zm2.9 3.05c-.34.27-.57.43-.66.47-.13.06-.28.1-.43.1a.78.78 0 0 1-.59-.25.9.9 0 0 1-.23-.64c0-.17.04-.32.11-.44.1-.17.28-.33.54-.48.25-.15.68-.33 1.27-.55v-.14c0-.34-.06-.57-.17-.7-.1-.13-.26-.2-.47-.2a.53.53 0 0 0-.38.13.38.38 0 0 0-.14.3v.22c0 .11-.02.2-.08.26a.3.3 0 0 1-.23.1.3.3 0 0 1-.23-.1.39.39 0 0 1-.09-.27c0-.21.11-.41.33-.6.22-.17.53-.26.93-.26.3 0 .56.05.75.15.15.08.26.2.33.37.05.1.07.32.07.66V47c0 .32 0 .53.02.6.01.07.03.12.06.15.03.02.06.04.1.04a.2.2 0 0 0 .1-.03c.06-.03.16-.12.3-.28v.22c-.27.37-.54.56-.8.56a.37.37 0 0 1-.29-.13c-.07-.08-.1-.23-.11-.43Zm0-.25v-1.31c-.37.15-.61.26-.72.32-.2.1-.34.22-.43.34a.67.67 0 0 0-.13.4c0 .18.06.33.16.45a.5.5 0 0 0 .38.18c.19 0 .44-.13.75-.38Zm2.66-4.6v4.56c0 .22.02.36.05.43.03.07.08.13.14.16.07.04.2.06.37.06v.13h-1.7v-.13c.16 0 .27-.02.32-.05.06-.04.1-.09.14-.16.03-.08.05-.22.05-.44V44.3c0-.4-.01-.63-.03-.72-.02-.09-.04-.15-.08-.18a.22.22 0 0 0-.15-.05.7.7 0 0 0-.25.06l-.06-.13 1.02-.42h.17Zm5.8 5.34-1.97-4.29v3.4c0 .32.03.52.1.6.09.1.24.15.44.15h.18v.14H41v-.14h.18c.22 0 .37-.06.46-.2.06-.07.08-.26.08-.54v-3.33c0-.23-.02-.4-.07-.5a.4.4 0 0 0-.2-.17 1 1 0 0 0-.45-.08v-.14h1.45l1.85 4 1.81-4h1.45v.14h-.18c-.22 0-.37.07-.46.2-.06.08-.08.26-.08.55v3.33c0 .31.03.5.1.58.1.11.24.16.44.16h.18v.14H45.4v-.14h.18c.22 0 .37-.06.46-.2.06-.07.09-.26.09-.54v-3.4l-1.97 4.28h-.13Zm4.51-2.14c0 .5.12.9.38 1.2.25.29.54.43.88.43a1 1 0 0 0 .59-.18c.16-.13.3-.34.42-.64l.11.08c-.05.34-.2.65-.46.94-.25.28-.57.42-.95.42a1.4 1.4 0 0 1-1.06-.48c-.3-.33-.44-.76-.44-1.3 0-.6.15-1.05.45-1.38.3-.33.68-.5 1.14-.5.39 0 .7.13.95.39.25.25.37.59.37 1.02h-2.38Zm0-.22h1.6a1.47 1.47 0 0 0-.08-.47.74.74 0 0 0-.28-.33.7.7 0 0 0-.4-.12c-.2 0-.39.08-.55.24a1.1 1.1 0 0 0-.29.68Zm3.87-.45.44-.43c.11-.1.24-.17.37-.22a.9.9 0 0 1 .38-.08c.22 0 .4.06.56.18.15.13.26.31.31.55.26-.3.48-.5.66-.6.17-.09.36-.13.54-.13.19 0 .35.04.49.14s.25.24.34.46c.05.14.08.37.08.68v1.48c0 .22.02.37.05.45.02.05.07.1.14.14a.7.7 0 0 0 .33.06v.13h-1.7v-.13h.07a.6.6 0 0 0 .35-.09c.05-.04.1-.1.12-.2.01-.03.02-.16.02-.36v-1.48c0-.28-.04-.48-.1-.6-.1-.15-.26-.23-.48-.23a.9.9 0 0 0-.4.1c-.13.06-.3.19-.48.37l-.01.04v1.79c0 .24.02.39.05.44.02.06.07.11.15.15.07.04.2.06.37.06v.13h-1.74v-.13c.19 0 .32-.03.39-.07a.35.35 0 0 0 .15-.2 2 2 0 0 0 .02-.38v-1.48c0-.28-.04-.48-.13-.6a.53.53 0 0 0-.46-.24.83.83 0 0 0-.4.1c-.2.12-.37.24-.48.38v1.84c0 .23.01.38.04.44.04.07.08.12.14.16a1 1 0 0 0 .38.05v.13h-1.7v-.13c.15 0 .26-.02.33-.05a.34.34 0 0 0 .14-.16c.03-.08.05-.22.05-.44v-1.3c0-.38-.01-.63-.04-.74-.01-.08-.04-.13-.08-.16a.23.23 0 0 0-.15-.05.72.72 0 0 0-.26.05l-.05-.13 1.04-.42h.16v.73Zm5.91-.04c.33-.46.7-.7 1.08-.7.35 0 .66.16.92.46.27.3.4.71.4 1.24 0 .61-.2 1.1-.61 1.48a1.68 1.68 0 0 1-1.78.37c-.2-.07-.41-.18-.63-.33V44.3c0-.39-.01-.63-.03-.72-.02-.09-.05-.15-.09-.18a.23.23 0 0 0-.15-.05.77.77 0 0 0-.26.06l-.05-.13 1.03-.42h.17v2.5Zm0 .24v2.06c.13.13.26.22.4.29a1 1 0 0 0 .42.1c.22 0 .44-.13.63-.38.2-.25.3-.62.3-1.1 0-.44-.1-.78-.3-1.01-.2-.24-.42-.36-.67-.36a.87.87 0 0 0-.4.1c-.1.05-.22.15-.38.3Zm3.49.47c0 .5.12.9.37 1.2.25.29.54.43.88.43.23 0 .42-.06.59-.18.17-.13.3-.34.42-.64l.11.08c-.05.34-.2.65-.45.94-.26.28-.57.42-.95.42a1.4 1.4 0 0 1-1.07-.48c-.3-.33-.44-.76-.44-1.3 0-.6.15-1.05.45-1.38.3-.33.69-.5 1.14-.5.39 0 .7.13.95.39.25.25.37.59.37 1.02h-2.37Zm0-.22h1.59a1.47 1.47 0 0 0-.08-.47.74.74 0 0 0-.28-.33.7.7 0 0 0-.39-.12c-.2 0-.4.08-.56.24-.16.16-.26.39-.28.68Zm3.84-1.18v.77c.3-.52.59-.77.9-.77.13 0 .24.04.33.12.1.09.14.18.14.3 0 .1-.03.17-.1.24a.31.31 0 0 1-.23.1.53.53 0 0 1-.3-.12c-.1-.1-.19-.14-.24-.14-.04 0-.1.03-.15.08-.1.1-.23.27-.35.5v1.66c0 .19.03.33.08.43.03.07.09.12.17.17.08.04.2.07.36.07v.13H64.5v-.13c.18 0 .3-.03.4-.09.06-.04.1-.1.13-.19l.01-.36v-1.34c0-.4 0-.64-.02-.71a.27.27 0 0 0-.1-.17.25.25 0 0 0-.15-.05.74.74 0 0 0-.27.05l-.03-.13 1.04-.42h.15ZM36.84 66.2h-4.67v-.13c1.43-1.7 2.3-2.85 2.6-3.44.31-.58.46-1.16.46-1.72 0-.41-.12-.75-.38-1.02-.25-.27-.56-.4-.93-.4-.6 0-1.06.3-1.4.9l-.21-.08c.21-.75.53-1.3.96-1.66a2.28 2.28 0 0 1 2.58-.26c.34.19.6.44.78.77.19.32.28.63.28.91a3.3 3.3 0 0 1-.43 1.58c-.4.72-1.25 1.73-2.58 3.02h1.71c.42 0 .7-.02.82-.05a.7.7 0 0 0 .32-.18c.08-.08.19-.26.32-.53h.21l-.44 2.3Zm6.57-3.96c0 .79-.1 1.53-.33 2.21-.13.42-.31.77-.54 1.04a2.7 2.7 0 0 1-.76.64c-.28.16-.6.24-.93.24-.38 0-.72-.1-1.03-.3-.31-.2-.58-.47-.82-.83a4.06 4.06 0 0 1-.45-1.06 7.43 7.43 0 0 1 .11-4.22c.2-.6.5-1.06.9-1.37.41-.32.84-.48 1.3-.48.45 0 .88.16 1.28.47.4.31.7.74.88 1.27a7 7 0 0 1 .4 2.39Zm-1.8-.01c0-1.4 0-2.2-.02-2.43-.04-.54-.13-.91-.28-1.1-.1-.13-.26-.19-.47-.19-.17 0-.3.05-.4.14-.15.14-.24.38-.3.73a43.6 43.6 0 0 0 .05 5.86c.06.28.14.46.25.56.1.1.25.14.43.14.2 0 .34-.06.44-.19.16-.22.26-.55.28-1.01l.02-2.51Zm7.2 3.97h-4.66v-.13a25.5 25.5 0 0 0 2.6-3.44c.3-.58.46-1.16.46-1.72 0-.41-.13-.75-.38-1.02s-.56-.4-.93-.4c-.6 0-1.07.3-1.4.9l-.21-.08c.2-.75.53-1.3.95-1.66.43-.36.93-.54 1.49-.54.4 0 .77.1 1.1.28.33.19.59.44.78.77.18.32.28.63.28.91a3.3 3.3 0 0 1-.44 1.58c-.39.72-1.25 1.73-2.57 3.02h1.7c.43 0 .7-.02.83-.05a.7.7 0 0 0 .31-.18c.09-.08.2-.26.33-.53h.2l-.44 2.3Zm6.58-3.96c0 .79-.11 1.53-.33 2.21-.14.42-.32.77-.54 1.04a2.7 2.7 0 0 1-.76.64c-.29.16-.6.24-.93.24-.38 0-.73-.1-1.04-.3a2.8 2.8 0 0 1-.81-.83 4.06 4.06 0 0 1-.46-1.06 7.43 7.43 0 0 1 .11-4.22c.2-.6.5-1.06.91-1.37.4-.32.84-.48 1.29-.48.46 0 .89.16 1.29.47.4.31.7.74.88 1.27a7 7 0 0 1 .39 2.39Zm-1.8-.01c0-1.4 0-2.2-.02-2.43-.04-.54-.14-.91-.29-1.1-.1-.13-.25-.19-.47-.19-.17 0-.3.05-.4.14-.14.14-.24.38-.29.73a43.58 43.58 0 0 0 .04 5.86c.06.28.14.46.25.56.11.1.26.14.44.14.2 0 .34-.06.43-.19.17-.22.26-.55.29-1.01l.02-2.51Z"/></svg>