<svg xmlns="http://www.w3.org/2000/svg" fill="none" viewBox="0 0 322 167"><path fill="#375E74" d="M0 0h323v167H0z"/><path fill="#F0F8FC" d="M121.9 38.9v8.7h.6c1 0 1.7 0 2.3-.4a4 4 0 0 0 1.5-1.4c.4-.7.7-1.6.8-2.7h.6v10.7h-.6c-.2-2-.7-3.4-1.6-4a5 5 0 0 0-3-1h-.6v6.5l.1 2c.2.4.4.6.7.8.4.2.9.3 1.5.3h.7v.6h-11.2v-.6h.7a3 3 0 0 0 1.5-.3c.3-.2.5-.4.7-.8l.1-2v-14l-.1-2c-.2-.3-.4-.6-.8-.8-.3-.2-.8-.3-1.4-.3h-.7v-.5h18v6h-.6a5.6 5.6 0 0 0-1.1-3.1 4.9 4.9 0 0 0-2.7-1.5 17 17 0 0 0-3.5-.2h-2Zm18.8 5c1.3 0 2.5.3 3.6 1 1.1.6 2 1.5 2.5 2.7.6 1.3.9 2.6.9 4 0 2.1-.5 3.9-1.6 5.3a6.3 6.3 0 0 1-5.3 2.5 6 6 0 0 1-5.1-2.3 8.6 8.6 0 0 1-1.8-5.4c0-2.1.6-4 1.8-5.5a6 6 0 0 1 5-2.4Zm.1 1c-.5 0-1 .3-1.4.7-.4.4-.6 1.2-.7 2.4a54.1 54.1 0 0 0 0 8c.1.8.4 1.4.8 1.8.3.4.8.6 1.2.6.5 0 1-.2 1.2-.4.4-.4.7-.9.8-1.5a36.3 36.3 0 0 0 0-9.7c-.1-.7-.4-1.2-.8-1.5a2 2 0 0 0-1.1-.3Zm15.2-.6v3.3a12 12 0 0 1 2.6-3c.7-.5 1.4-.8 2.1-.8.6 0 1 .2 1.4.6.4.3.6.9.6 1.5 0 .7-.2 1.3-.6 1.7-.3.3-.7.5-1.2.5s-1-.1-1.4-.5l-.8-.6h-.3c-.3 0-.6 0-.9.3-.4.3-.7.8-1 1.5-.3 1-.5 2.1-.5 3.4v4.3c0 .5 0 .9.2 1 0 .4.3.6.5.7l1.3.2v.6h-8v-.6c.7 0 1-.2 1.3-.5.2-.3.4-1 .4-2.4v-8.1c0-.8 0-1.4-.2-1.6 0-.3-.2-.5-.4-.7l-1-.2v-.6h6Zm14-6.6v8a5.6 5.6 0 0 1 4-1.9c1 0 2 .3 2.9 1 .8.5 1.5 1.4 2 2.5a9 9 0 0 1 .8 3.7c0 1.6-.3 3.1-1 4.4a7.3 7.3 0 0 1-2.5 3 6.7 6.7 0 0 1-5.8.7 6 6 0 0 1-1.8-1.3l-2.5 1.6h-.5V40.7l-.1-1.6a1 1 0 0 0-.5-.6c-.3-.2-.6-.2-1.2-.3v-.5h6.1Zm0 9.5v9.1c.1.6.4 1 .8 1.5.4.3.9.5 1.5.5s1-.1 1.4-.4c.4-.3.7-1 1-1.8.2-1 .3-2.6.3-5 0-2.2-.2-3.7-.8-4.6a2 2 0 0 0-1.7-.9c-.9 0-1.7.5-2.6 1.6Zm24.7 4h-8.1a7 7 0 0 0 1.5 4.5 3 3 0 0 0 2.7 1.3 3 3 0 0 0 1.7-.5c.5-.3 1-1 1.6-1.9l.6.4a9 9 0 0 1-2.7 3.4c-1 .7-2 1-3.3 1-2.2 0-3.9-.8-5-2.5-.9-1.3-1.3-3-1.3-5 0-2.5.6-4.4 2-5.9a6.2 6.2 0 0 1 4.6-2.2 5 5 0 0 1 3.9 1.9c1 1.2 1.7 3 1.8 5.4Zm-4-1.1c0-1.7 0-2.9-.2-3.5-.2-.7-.5-1.1-.8-1.5l-1-.2c-.5 0-1 .2-1.3.8-.6.9-.9 2.2-.9 3.8v.6h4.3Zm15.1-6.2.3 5h-.6a7.8 7.8 0 0 0-2-3c-.7-.6-1.3-.9-2-.9-.4 0-.8.2-1.1.5-.3.2-.5.6-.5 1l.3.8 2.9 2.2c1.5 1 2.5 2 3 2.7.5.7.7 1.5.7 2.4 0 .8-.2 1.6-.6 2.4-.4.8-1 1.4-1.7 1.8a5 5 0 0 1-2.5.6c-.7 0-1.6-.2-2.8-.6l-.6-.2c-.4 0-.7.3-1 .8h-.4l-.3-5.3h.5a6.9 6.9 0 0 0 2 3.1c.8.7 1.6 1 2.3 1 .5 0 1 0 1.3-.4.3-.3.4-.7.4-1.1 0-.5-.1-1-.4-1.3-.3-.4-1-1-2.1-1.7-1.6-1.1-2.7-2-3.2-2.6-.6-.8-1-1.8-1-2.8 0-1.1.4-2.2 1.2-3a4 4 0 0 1 3.4-1.5 5 5 0 0 1 2.3.6l.7.3c.2 0 .3 0 .4-.2.2 0 .3-.3.6-.6h.5ZM53.3 101a3 3 0 0 1 1.8.8c.6.5.9 1.2.9 2a3 3 0 0 1-.6 1.7c-.4.5-.9.9-1.5 1.1a9 9 0 0 1-3 .4h-5.6v-.3h.4c.5 0 .9-.2 1.1-.5.1-.2.2-.6.2-1.3v-7.7c0-.7 0-1.2-.2-1.4-.3-.2-.6-.3-1-.3h-.5V95h5.1l2.3.2c.9.3 1.6.6 2 1.2a2.7 2.7 0 0 1 .2 3.4c-.4.5-1 .8-1.6 1Zm-4.6-.5a7.2 7.2 0 0 0 1.6.1c.9 0 1.5 0 2-.3a2 2 0 0 0 1-.8c.2-.4.3-.8.3-1.3 0-.7-.3-1.2-.9-1.7-.5-.5-1.4-.8-2.4-.8a6 6 0 0 0-1.6.2v4.6Zm0 5.6a7 7 0 0 0 2 .3 4 4 0 0 0 2.4-.7c.6-.5.8-1.1.8-1.8 0-.5 0-.9-.3-1.3-.3-.5-.7-.8-1.3-1a4 4 0 0 0-2-.4 22 22 0 0 0-1.6 0v5ZM64.5 99v6.5l.3.5.3.1.7-.1v.3l-2.3 1H63v-1.8c-.7.8-1.2 1.3-1.6 1.5l-1.1.2c-.5 0-.9 0-1.2-.3a2 2 0 0 1-.7-1 6 6 0 0 1-.2-1.8v-3.6l-.1-.7c0-.2-.2-.3-.4-.4a2 2 0 0 0-.8 0V99h2.8v5.3c0 .8.1 1.3.4 1.5.2.3.5.4.9.4l.9-.3a2 2 0 0 0 1-.9v-4.5c0-.5 0-.8-.2-1l-1-.2V99h2.7Zm7.1-.2v2.7h-.2c-.3-.9-.6-1.5-.9-1.8-.3-.3-.8-.4-1.3-.4-.4 0-.8 0-1 .3-.3.2-.4.4-.4.7 0 .3.1.6.3.8.2.3.5.5 1 .8l1.4.6c1.2.6 1.7 1.4 1.7 2.3 0 .7-.2 1.3-.8 1.8-.5.4-1.1.6-1.8.6-.5 0-1 0-1.7-.2l-.5-.1c-.1 0-.2 0-.3.2h-.3v-2.8h.3c.2.8.5 1.4 1 1.8.4.4 1 .6 1.5.6.4 0 .7 0 1-.3.2-.3.4-.5.4-.9s-.2-.7-.5-1c-.3-.3-.8-.6-1.7-1a5 5 0 0 1-1.6-1.2 2 2 0 0 1-.4-1.2c0-.7.2-1.2.7-1.7.4-.4 1-.6 1.7-.6.3 0 .7 0 1.2.2h.8l.2-.2h.2Zm3.9-4.2c.2 0 .4 0 .6.2l.3.6c0 .3-.1.5-.3.7-.2.2-.4.2-.6.2-.3 0-.5 0-.6-.2a.9.9 0 0 1-.3-.7c0-.2 0-.4.2-.6.2-.2.4-.2.7-.2Zm.7 4.2v6.4l.1 1c0 .2.2.3.3.4h.8v.4h-3.9v-.3l.8-.1c.2-.1.3-.2.3-.4l.2-1V102l-.1-1.7-.2-.4h-1v-.3l2.3-1h.4Zm4.6 1.6c.9-1 1.8-1.6 2.7-1.6.4 0 .8 0 1 .3.4.2.6.6.8 1 .2.4.2 1 .2 1.7v3.4l.1 1 .4.4h.7v.4h-4v-.3h.3c.3 0 .6 0 .7-.2.2-.1.3-.3.3-.5v-4c0-.7 0-1.2-.2-1.6-.2-.3-.5-.5-1-.5-.7 0-1.3.4-2 1.2v5.2l.4.4h.9v.4h-4v-.3h.2c.4 0 .7-.1.8-.3l.2-1.2v-4.7c0-.3-.2-.4-.2-.5h-1l-.1-.3 2.4-1h.4v1.7Zm8 1.6c0 1.2.2 2.1.8 2.8.6.7 1.3 1 2 1 .6 0 1-.1 1.4-.4.4-.3.7-.8 1-1.5l.3.2a5 5 0 0 1-1.1 2.2 3 3 0 0 1-2.2 1c-1 0-1.8-.4-2.5-1.2-.7-.7-1-1.7-1-3 0-1.4.3-2.4 1-3.2.7-.8 1.6-1.2 2.7-1.2a3 3 0 0 1 2.2 1c.6.5.9 1.3.9 2.3h-5.6Zm0-.5h3.6l-.1-1c-.2-.4-.4-.7-.7-.9l-.9-.2c-.5 0-1 .2-1.3.5a3 3 0 0 0-.7 1.6Zm11.7-2.7v2.7h-.3c-.2-.9-.5-1.5-.8-1.8-.4-.3-.8-.4-1.3-.4s-.8 0-1 .3c-.3.2-.4.4-.4.7 0 .3 0 .6.3.8.2.3.5.5 1 .8l1.4.6c1.1.6 1.7 1.4 1.7 2.3 0 .7-.3 1.3-.8 1.8-.6.4-1.2.6-1.8.6-.5 0-1.1 0-1.7-.2l-.5-.1c-.1 0-.2 0-.3.2h-.3v-2.8h.3c.1.8.5 1.4 1 1.8.4.4.9.6 1.5.6.4 0 .7 0 1-.3.2-.3.3-.5.3-.9s-.1-.7-.4-1c-.3-.3-.8-.6-1.7-1a5 5 0 0 1-1.6-1.2 2 2 0 0 1-.4-1.2c0-.7.2-1.2.6-1.7.5-.4 1-.6 1.8-.6.3 0 .7 0 1.1.2h.9l.1-.2h.3Zm7 0v2.7h-.3c-.2-.9-.5-1.5-.8-1.8-.4-.3-.8-.4-1.4-.4-.4 0-.7 0-1 .3a1 1 0 0 0-.3.7c0 .3 0 .6.3.8.1.3.5.5 1 .8l1.3.6c1.2.6 1.8 1.4 1.8 2.3 0 .7-.3 1.3-.8 1.8-.6.4-1.2.6-1.9.6-.5 0-1 0-1.6-.2l-.5-.1c-.2 0-.3 0-.3.2h-.3v-2.8h.3c.1.8.4 1.4.9 1.8.5.4 1 .6 1.5.6.4 0 .8 0 1-.3.3-.3.4-.5.4-.9s-.1-.7-.4-1c-.3-.3-.9-.6-1.7-1a5 5 0 0 1-1.7-1.2 2 2 0 0 1-.4-1.2c0-.7.3-1.2.7-1.7.5-.4 1-.6 1.8-.6.3 0 .7 0 1.1.2h.8l.2-.2h.3Zm-51.7 17 .3 4.1h-.3a5 5 0 0 0-1.6-2.6c-.6-.5-1.4-.8-2.4-.8-.8 0-1.5.2-2.1.6a4 4 0 0 0-1.5 2c-.4.8-.6 1.9-.6 3.2 0 1 .2 2 .6 2.8.3.7.8 1.4 1.5 1.8a4.8 4.8 0 0 0 4.4.1c.6-.3 1.3-1 2-2l.2.2c-.6 1-1.3 1.8-2 2.3-.8.5-1.8.8-2.9.8-2 0-3.5-.8-4.5-2.2a5.8 5.8 0 0 1-1.3-3.8c0-1.2.3-2.3.8-3.3a6 6 0 0 1 5.2-3.1c1 0 1.8.2 2.6.6l.5.2c.2 0 .3 0 .5-.2l.3-.6h.3Zm5.6 4c1.2 0 2.2.4 3 1.3.6.8.9 1.7.9 2.7 0 .8-.2 1.5-.5 2.2-.4.8-.9 1.3-1.5 1.7-.6.4-1.2.5-2 .5-1.2 0-2.1-.4-2.8-1.4-.6-.8-1-1.7-1-2.7 0-.8.2-1.5.6-2.2a3.7 3.7 0 0 1 3.3-2.1Zm-.2.5c-.4 0-.7.1-1 .3a2 2 0 0 0-.7 1 6.2 6.2 0 0 0 .4 4.8c.4.8 1 1.2 1.8 1.2.6 0 1-.2 1.4-.7.4-.4.6-1.2.6-2.4 0-1.4-.3-2.5-1-3.3-.4-.6-.9-.9-1.5-.9Zm12.3-.3v6.5l.3.5.3.1.6-.1.1.3-2.4 1H72v-1.8c-.6.8-1.2 1.3-1.5 1.5l-1.2.2c-.4 0-.8 0-1.1-.3a2 2 0 0 1-.7-1 6 6 0 0 1-.2-1.8v-3.6l-.1-.7-.4-.4a2 2 0 0 0-.9 0v-.4h2.8v5.3c0 .8.2 1.3.4 1.5.3.3.6.4 1 .4l.8-.3c.3-.1.7-.4 1.1-.9v-4.5c0-.5 0-.8-.2-1l-1-.2v-.3h2.7Zm4.3 1.4c.9-1 1.8-1.6 2.6-1.6.5 0 .9 0 1.2.3.3.2.5.6.7 1 .2.4.2 1 .2 1.7v3.4l.1 1 .3.4h.8v.4h-4v-.3h.2c.4 0 .7 0 .8-.2.2-.1.3-.3.3-.5v-4c0-.7 0-1.2-.2-1.6-.2-.3-.5-.5-1-.5-.7 0-1.4.4-2 1.2v5.2l.4.4h.9v.4h-4v-.3h.2c.4 0 .7-.1.8-.3l.2-1.2v-4.7l-.3-.5h-.9l-.1-.3 2.4-1h.4v1.7Zm13.4 3.6c-.2 1-.7 1.8-1.3 2.4a3 3 0 0 1-2 .8 3 3 0 0 1-2.5-1.1c-.6-.8-1-1.8-1-3.1s.4-2.3 1.1-3c.8-.9 1.7-1.2 2.8-1.2a3 3 0 0 1 1.9.6c.5.4.8.8.8 1.3 0 .2-.1.4-.3.5-.1.2-.3.2-.6.2s-.6 0-.7-.3l-.2-.7c0-.4-.2-.6-.4-.8-.2-.2-.5-.3-.8-.3-.6 0-1 .3-1.4.7-.5.6-.8 1.3-.8 2.3 0 1 .3 1.8.7 2.5.5.7 1.2 1 2 1 .5 0 1-.1 1.5-.5a4 4 0 0 0 1-1.5l.2.2Zm3.2-9.4c.2 0 .4 0 .6.2l.3.6c0 .3-.1.5-.3.7-.2.2-.4.2-.6.2-.3 0-.5 0-.7-.2a.9.9 0 0 1-.2-.7c0-.2 0-.4.2-.6l.7-.2Zm.7 4.2v6.4l.1 1c0 .2.2.3.3.4h.8v.4h-3.9v-.3l.8-.1c.1-.1.3-.2.3-.4l.1-1v-4.8l-.2-.4h-1l-.1-.3 2.4-1h.4Zm5-4.2v11.6l.4.4h.9v.4h-4v-.3l.8-.1.3-.4.1-1v-9l-.2-.4h-1l-.1-.3 2.4-1h.4Zm73.9 5.1c1.3 0 2.5.5 3.5 1.6 1 1 1.6 2.4 1.6 4 0 1.5-.5 2.9-1.6 4a5 5 0 0 1-3.7 1.6 5 5 0 0 1-3.7-1.6c-1-1-1.5-2.4-1.5-4 0-1.7.6-3.1 1.7-4.2 1-1 2.2-1.4 3.6-1.4Zm-.2.6c-1 0-1.7.3-2.3 1-.7 1-1 2.2-1 4 0 1.7.3 3 1 4 .6.7 1.4 1 2.3 1a3 3 0 0 0 2.5-1.2c.6-.7 1-2 1-3.7 0-1.8-.4-3.1-1.1-4a3 3 0 0 0-2.4-1.1Zm9.2 3.7v4.7c0 .7 0 1.1.2 1.3.2.2.5.3.8.3h.7v.3h-4.3v-.3h.3l.6-.1.3-.4.1-1V125h-1.4v-.6h1.4v-.5c0-.7.1-1.3.4-1.8.2-.5.5-.9 1-1.2a3 3 0 0 1 1.6-.5c.6 0 1 .2 1.5.6.3.2.5.5.5.8 0 .1 0 .3-.2.4-.1.2-.3.2-.4.2h-.4l-.5-.7a2 2 0 0 0-.6-.5 1 1 0 0 0-.5-.2 1 1 0 0 0-.6.2 1 1 0 0 0-.4.6v2.6h1.8v.6H183Zm5 0v4.7c0 .7.2 1.1.3 1.3.2.2.5.3.8.3h.6v.3h-4.3v-.3h.4l.5-.1.4-.4V125h-1.3v-.6h1.4v-.5c0-.7.1-1.3.3-1.8a4 4 0 0 1 1-1.2c.6-.3 1.1-.5 1.7-.5.5 0 1 .2 1.5.6.3.2.5.5.5.8l-.2.4c-.2.2-.3.2-.5.2h-.4l-.4-.7a2 2 0 0 0-.6-.5 1 1 0 0 0-.5-.2 1 1 0 0 0-.6.2 1 1 0 0 0-.4.6l-.1 2.1v.5h1.8v.6h-1.8Zm4.5-4.6c.2 0 .4.1.5.3.2.1.3.3.3.5l-.3.6c-.1.2-.3.2-.5.2-.3 0-.4 0-.6-.2a.8.8 0 0 1-.2-.6c0-.2 0-.4.2-.5.2-.2.3-.3.6-.3Zm.6 3.8v5.8l.1.9c0 .2.2.3.3.3l.7.1v.3h-3.5v-.3h.7l.3-.4.1-.9v-4.3c0-.2-.1-.3-.2-.3l-.3-.1h-.6v-.2l2-.9h.4Zm8.1 4.7a4 4 0 0 1-1 2.2c-.7.5-1.3.7-2 .7-.8 0-1.5-.3-2.1-1a4 4 0 0 1-1-2.8c0-1.1.4-2 1-2.7.8-.7 1.6-1.1 2.5-1.1.7 0 1.3.2 1.8.6.4.3.6.7.6 1.1 0 .2 0 .4-.2.5l-.5.2c-.3 0-.5 0-.7-.3l-.2-.6a1 1 0 0 0-.3-.7 1 1 0 0 0-.7-.3c-.6 0-1 .2-1.3.6-.4.5-.7 1.2-.7 2 0 1 .3 1.7.7 2.3.4.7 1 1 1.7 1 .5 0 1-.2 1.4-.5.3-.2.5-.7.8-1.3h.2Zm3-8.5.5.3.2.5c0 .2 0 .4-.2.6-.2.2-.4.2-.6.2-.2 0-.4 0-.5-.2a.8.8 0 0 1-.3-.6c0-.2 0-.4.2-.5l.6-.3Zm.6 3.8v6.7c.1.2.2.3.4.3l.7.1v.3h-3.5v-.3h.7l.3-.4v-5.2c0-.2-.1-.3-.2-.3l-.3-.1h-.5l-.1-.2 2.1-.9h.4Zm6 6.4-1.3 1-1 .2a2 2 0 0 1-1.2-.5c-.3-.4-.5-.8-.5-1.4l.3-.9c.2-.4.6-.7 1.1-1l2.7-1.2v-.2c0-.8-.2-1.2-.4-1.5-.2-.3-.5-.4-1-.4-.3 0-.6 0-.8.3-.2.1-.3.3-.3.6v.4l-.1.6-.5.2c-.2 0-.4 0-.5-.2a.8.8 0 0 1-.2-.6c0-.4.3-.9.7-1.2a3 3 0 0 1 2-.6c.6 0 1.1.1 1.5.3.3.2.6.4.7.8l.2 1.4v3.7l.1.3h.5l.6-.6v.5c-.6.8-1.2 1.2-1.7 1.2-.2 0-.5-.1-.6-.3-.2-.2-.2-.5-.2-1Zm0-.5v-2.8l-1.5.7-.9.7-.2.8c0 .4 0 .7.3 1 .2.2.5.4.8.4.4 0 1-.3 1.6-.8Zm5.6-9.7v9.6l.1.9.3.3.8.1v.3H214v-.3h.7l.3-.4.1-.9v-8l-.2-.4-.3-.1h-.6v-.2l2-.9h.4Zm12.1 11.2-4-9v7.2l.1 1.2c.2.2.5.3 1 .3h.3v.3h-3.7v-.3h.4c.4 0 .8-.1 1-.4l.1-1.1v-7l-.1-1-.4-.4-1-.2v-.2h3l4 8.3 3.7-8.3h3v.2h-.3c-.5 0-.8.2-1 .5-.1.1-.2.5-.2 1.1v7c0 .6.1 1 .3 1.2.2.2.5.3.9.3h.3v.3h-4.5v-.3h.4c.4 0 .8-.1 1-.4l.1-1.1v-7.2l-4 9h-.4Zm9.5-4.5c0 1.1.3 2 .8 2.6.5.6 1.1.9 1.8.9a2 2 0 0 0 1.3-.4c.3-.3.6-.7.8-1.4l.3.2c-.1.7-.4 1.4-1 2-.5.6-1.2.8-2 .8a3 3 0 0 1-2.2-1c-.6-.6-1-1.5-1-2.7 0-1.2.4-2.2 1-2.9.7-.7 1.5-1 2.4-1 .8 0 1.5.3 2 .8s.8 1.2.8 2.1h-5Zm0-.4h3.3l-.1-1c-.1-.3-.3-.5-.6-.7-.3-.2-.5-.2-.8-.2-.5 0-.8.1-1.2.5-.3.3-.5.8-.6 1.4Zm8.1-1 1-.9.7-.4.8-.2c.5 0 .8.1 1.2.4.3.3.5.6.6 1.1.6-.6 1-1 1.4-1.2.4-.2.7-.3 1.1-.3.4 0 .8.1 1 .3.4.2.6.5.8 1l.1 1.4v3.1l.1 1 .3.2.7.1v.3h-3.5v-.3h.1l.7-.1c.2-.1.2-.3.3-.4v-3.9c0-.6 0-1-.2-1.2-.2-.4-.5-.6-1-.6l-.8.3-1 .7v4.9l.4.2.8.1v.3H248v-.3l.8-.1c.2 0 .3-.2.3-.4v-3.9c0-.6 0-1-.2-1.3-.2-.3-.5-.5-1-.5l-.8.3c-.4.2-.8.4-1 .7v3.9l.1 1 .3.2.8.1v.3h-3.6v-.3h.7l.3-.4.1-.9v-4.3l-.2-.3-.4-.1h-.5l-.1-.2 2.2-.9h.3v1.5Zm12.4 0c.7-1 1.4-1.5 2.2-1.5.8 0 1.4.3 2 1 .5.6.8 1.4.8 2.5a4 4 0 0 1-1.3 3.1 3.5 3.5 0 0 1-3.7.8c-.4-.1-.9-.4-1.3-.7V122l-.3-.4-.3-.1h-.5l-.1-.2 2.1-.9h.4v5.3Zm0 .5v4.3l.8.6.9.2c.5 0 1-.3 1.3-.8.4-.5.6-1.3.6-2.3 0-1-.2-1.6-.6-2.1-.4-.5-.9-.8-1.4-.8-.3 0-.5 0-.8.2-.2.1-.5.3-.8.7Zm7.3 1c0 1 .2 1.8.8 2.5.5.6 1.1.9 1.8.9a2 2 0 0 0 1.2-.4c.4-.3.7-.7 1-1.4l.2.2c-.1.7-.5 1.4-1 2-.5.6-1.2.8-2 .8a3 3 0 0 1-2.2-1c-.6-.6-1-1.5-1-2.7 0-1.2.4-2.2 1-2.9a3 3 0 0 1 2.4-1c.8 0 1.5.3 2 .8s.8 1.2.8 2.1h-5Zm0-.5h3.3l-.1-1-.6-.7c-.3-.2-.6-.2-.8-.2-.5 0-.9.1-1.2.5-.4.3-.6.8-.6 1.4Zm8-2.5v1.6c.6-1 1.3-1.6 1.9-1.6.3 0 .5 0 .7.3.2.1.3.3.3.6 0 .2 0 .4-.2.5l-.5.2c-.2 0-.4 0-.6-.3l-.5-.2-.3.1c-.3.2-.5.6-.8 1v3.5c0 .4 0 .7.2 1l.4.3.7.1v.3h-3.7v-.3l.8-.1c.2-.1.3-.2.3-.4v-5.1l-.2-.3-.3-.1h-.6v-.2l2.1-.9h.3ZM178.4 109h-9.7v-.3c3-3.5 4.8-6 5.4-7.2a7 7 0 0 0 1-3.6 3 3 0 0 0-.8-2.1c-.6-.6-1.2-.9-2-.9-1.2 0-2.2.7-2.9 2l-.5-.2a6.8 6.8 0 0 1 2-3.5c1-.8 2-1.1 3.2-1.1.8 0 1.6.1 2.3.5.7.4 1.2 1 1.6 1.7.4.6.6 1.3.6 1.9a7 7 0 0 1-1 3.3 26 26 0 0 1-5.3 6.3h3.6l1.7-.1c.3 0 .5-.2.6-.4l.7-1.1h.5l-1 4.8Zm13.8-8.3a15 15 0 0 1-.7 4.6 5.7 5.7 0 0 1-2.7 3.5 4 4 0 0 1-2 .5 4 4 0 0 1-2.1-.6c-.7-.4-1.2-1-1.7-1.7a9 9 0 0 1-1-2.2 15.6 15.6 0 0 1 .2-8.8 6.6 6.6 0 0 1 2-3c.8-.6 1.7-1 2.6-1 1 0 1.9.4 2.7 1 .9.7 1.5 1.6 1.9 2.7.5 1.5.8 3.2.8 5Zm-3.8 0v-5.1c-.1-1.1-.3-2-.6-2.3-.2-.3-.5-.4-1-.4-.3 0-.6.1-.8.3-.3.3-.5.8-.6 1.5a91.4 91.4 0 0 0 0 12.3c.2.6.3 1 .6 1.2.2.2.5.2.9.2s.7 0 .9-.3c.3-.5.5-1.2.6-2.2v-5.2Zm15.1 8.3h-9.8v-.3c3-3.5 4.8-6 5.5-7.2.6-1.2 1-2.4 1-3.6a3 3 0 0 0-.8-2.1c-.6-.6-1.2-.9-2-.9-1.2 0-2.2.7-3 2l-.4-.2a6.8 6.8 0 0 1 2-3.5c1-.8 2-1.1 3.1-1.1.9 0 1.7.1 2.3.5.7.4 1.3 1 1.7 1.7.4.6.6 1.3.6 1.9a7 7 0 0 1-1 3.3 32 32 0 0 1-5.3 6.3h3.5l1.8-.1c.2 0 .5-.2.6-.4l.7-1.1h.4l-.9 4.8Zm13.8-8.3a15 15 0 0 1-.7 4.6c-.3 1-.7 1.6-1.1 2.2-.5.6-1 1-1.6 1.4a4 4 0 0 1-2 .4 4 4 0 0 1-2.1-.6c-.7-.4-1.3-1-1.8-1.7l-1-2.2a17.5 17.5 0 0 1 .3-8.9c.4-1.2 1-2.2 2-2.8.8-.7 1.7-1 2.6-1 1 0 1.9.3 2.7 1a5 5 0 0 1 1.9 2.6c.5 1.5.8 3.2.8 5Zm-3.8 0v-5.1c-.1-1.1-.3-2-.6-2.3-.2-.3-.6-.4-1-.4s-.6.1-.9.3c-.3.3-.5.8-.6 1.5a91.4 91.4 0 0 0 .1 12.3c.1.6.3 1 .5 1.2.3.2.6.2 1 .2s.7 0 .9-.3c.3-.5.5-1.2.6-2.2v-5.2Z"/><path stroke="#F0F8FC" stroke-width="1.8" d="M142 94.8v36.4"/></svg>