<svg width="160" height="196" viewBox="0 0 160 196" fill="none" xmlns="http://www.w3.org/2000/svg">
<path d="M80.9721 3.13602L80.0063 2.58862L79.0405 3.13602L46.3448 21.6673L46.3313 21.675L46.3178 21.6829L13.9209 40.7316L12.9639 41.2943L12.9551 42.4044L12.6563 79.9844L12.6562 80L12.6563 80.0156L12.9551 117.595L12.9639 118.706L13.9209 119.269L46.3178 138.317L46.3313 138.325L46.3448 138.332L79.0405 156.864L80.0063 157.411L80.9721 156.864L113.668 138.332L113.681 138.325L113.694 138.317L146.092 119.269L147.048 118.706L147.058 117.595L147.356 80.0156L147.357 80L147.356 79.9844L147.058 42.4044L147.048 41.2943L146.092 40.7316L113.694 21.6829L113.681 21.675L113.668 21.6673L80.9721 3.13602Z" stroke="white" stroke-width="3.91713"/>
<path fill-rule="evenodd" clip-rule="evenodd" d="M79.8973 23.2336L77.3242 31.1529L81.2839 32.4395L79.8973 23.2336Z" fill="white"/>
<path fill-rule="evenodd" clip-rule="evenodd" d="M79.8982 23.2351L82.4714 31.1545L78.5117 32.441L79.8982 23.2351Z" fill="white"/>
<path fill-rule="evenodd" clip-rule="evenodd" d="M87.8304 28.9939H79.5039V33.1574L87.8304 28.9939Z" fill="white"/>
<path fill-rule="evenodd" clip-rule="evenodd" d="M87.8248 28.9971L81.0879 33.8915L78.6406 30.5232L87.8248 28.9971Z" fill="white"/>
<path fill-rule="evenodd" clip-rule="evenodd" d="M84.7988 38.2936L82.2253 30.3743L78.2656 31.6608L84.7988 38.2936Z" fill="white"/>
<path fill-rule="evenodd" clip-rule="evenodd" d="M84.7954 38.2951L78.0586 33.4008L80.5058 30.0325L84.7954 38.2951Z" fill="white"/>
<path fill-rule="evenodd" clip-rule="evenodd" d="M71.9805 28.9985H80.3074V33.162L71.9805 28.9985Z" fill="white"/>
<path fill-rule="evenodd" clip-rule="evenodd" d="M71.9844 29L78.721 33.8945L81.1682 30.5261L71.9844 29Z" fill="white"/>
<path fill-rule="evenodd" clip-rule="evenodd" d="M75 38.2968L77.5731 30.3774L81.5328 31.664L75 38.2968Z" fill="white"/>
<path fill-rule="evenodd" clip-rule="evenodd" d="M75.0039 38.2967L81.7404 33.4022L79.2933 30.0339L75.0039 38.2967Z" fill="white"/>
<path fill-rule="evenodd" clip-rule="evenodd" d="M79.8974 123.14L77.3242 131.06L81.2839 132.346L79.8974 123.14Z" fill="white"/>
<path fill-rule="evenodd" clip-rule="evenodd" d="M79.8982 123.139L82.4714 131.059L78.5117 132.345L79.8982 123.139Z" fill="white"/>
<path fill-rule="evenodd" clip-rule="evenodd" d="M87.8272 128.899H79.5V133.063L87.8272 128.899Z" fill="white"/>
<path fill-rule="evenodd" clip-rule="evenodd" d="M87.8208 128.901L81.0839 133.796L78.6367 130.427L87.8208 128.901Z" fill="white"/>
<path fill-rule="evenodd" clip-rule="evenodd" d="M84.7948 138.208L82.2214 130.289L78.2617 131.575L84.7948 138.208Z" fill="white"/>
<path fill-rule="evenodd" clip-rule="evenodd" d="M84.7914 138.211L78.0547 133.317L80.5019 129.949L84.7914 138.211Z" fill="white"/>
<path fill-rule="evenodd" clip-rule="evenodd" d="M71.9727 128.909H80.2995V133.072L71.9727 128.909Z" fill="white"/>
<path fill-rule="evenodd" clip-rule="evenodd" d="M71.9766 128.91L78.7131 133.804L81.1603 130.436L71.9766 128.91Z" fill="white"/>
<path fill-rule="evenodd" clip-rule="evenodd" d="M75.0039 138.208L77.5771 130.289L81.5367 131.575L75.0039 138.208Z" fill="white"/>
<path fill-rule="evenodd" clip-rule="evenodd" d="M75.0078 138.215L81.7443 133.32L79.2972 129.952L75.0078 138.215Z" fill="white"/>
<path fill-rule="evenodd" clip-rule="evenodd" d="M29.9325 73.1924L27.3594 81.1121L31.319 82.3982L29.9325 73.1924Z" fill="white"/>
<path fill-rule="evenodd" clip-rule="evenodd" d="M29.9334 73.1941L32.5065 81.1138L28.5469 82.3999L29.9334 73.1941Z" fill="white"/>
<path fill-rule="evenodd" clip-rule="evenodd" d="M37.8503 78.9363H29.5234V83.0991L37.8503 78.9363Z" fill="white"/>
<path fill-rule="evenodd" clip-rule="evenodd" d="M37.8517 78.9395L31.1151 83.8336L28.668 80.4652L37.8517 78.9395Z" fill="white"/>
<path fill-rule="evenodd" clip-rule="evenodd" d="M34.8258 88.2492L32.2526 80.3301L28.293 81.617L34.8258 88.2492Z" fill="white"/>
<path fill-rule="evenodd" clip-rule="evenodd" d="M34.8304 88.2493L28.0938 83.3552L30.541 79.9868L34.8304 88.2493Z" fill="white"/>
<path fill-rule="evenodd" clip-rule="evenodd" d="M22.0039 78.9434H30.3307V83.107L22.0039 78.9434Z" fill="white"/>
<path fill-rule="evenodd" clip-rule="evenodd" d="M22.0078 78.9393L28.7444 83.8335L31.1916 80.4651L22.0078 78.9393Z" fill="white"/>
<path fill-rule="evenodd" clip-rule="evenodd" d="M25.0352 88.2492L27.6083 80.3301L31.568 81.617L25.0352 88.2492Z" fill="white"/>
<path fill-rule="evenodd" clip-rule="evenodd" d="M25.0391 88.2524L31.7757 83.3583L29.3284 79.9899L25.0391 88.2524Z" fill="white"/>
<path fill-rule="evenodd" clip-rule="evenodd" d="M50.0234 44.9822L56.76 40.0878L54.3128 36.7195L50.0234 44.9822Z" fill="white"/>
<path fill-rule="evenodd" clip-rule="evenodd" d="M50.0156 44.9854L52.5888 37.066L56.5485 38.3526L50.0156 44.9854Z" fill="white"/>
<path fill-rule="evenodd" clip-rule="evenodd" d="M47.0039 35.6704L53.7405 40.5649L56.1877 37.1966L47.0039 35.6704Z" fill="white"/>
<path fill-rule="evenodd" clip-rule="evenodd" d="M47.0078 35.675H55.3346V39.8385L47.0078 35.675Z" fill="white"/>
<path fill-rule="evenodd" clip-rule="evenodd" d="M54.9286 29.9102L52.3555 37.8294L56.3151 39.116L54.9286 29.9102Z" fill="white"/>
<path fill-rule="evenodd" clip-rule="evenodd" d="M54.9256 29.907L57.4987 37.8263L53.5391 39.1128L54.9256 29.907Z" fill="white"/>
<path fill-rule="evenodd" clip-rule="evenodd" d="M59.8108 44.9807L53.0742 40.0863L55.5214 36.718L59.8108 44.9807Z" fill="white"/>
<path fill-rule="evenodd" clip-rule="evenodd" d="M59.8141 44.9777L57.2409 37.0583L53.2812 38.345L59.8141 44.9777Z" fill="white"/>
<path fill-rule="evenodd" clip-rule="evenodd" d="M62.8362 35.675L56.0996 40.5694L53.6523 37.2011L62.8362 35.675Z" fill="white"/>
<path fill-rule="evenodd" clip-rule="evenodd" d="M62.8346 35.6794H54.5078V39.8429L62.8346 35.6794Z" fill="white"/>
<path fill-rule="evenodd" clip-rule="evenodd" d="M41.5289 63.2723L38.9557 55.353L34.9961 56.6396L41.5289 63.2723Z" fill="white"/>
<path fill-rule="evenodd" clip-rule="evenodd" d="M41.5295 63.274L34.793 58.3795L37.2401 55.0112L41.5295 63.274Z" fill="white"/>
<path fill-rule="evenodd" clip-rule="evenodd" d="M31.7383 63.283L38.4749 58.3886L36.0277 55.0203L31.7383 63.283Z" fill="white"/>
<path fill-rule="evenodd" clip-rule="evenodd" d="M31.7305 63.2816L34.3037 55.3623L38.2633 56.6489L31.7305 63.2816Z" fill="white"/>
<path fill-rule="evenodd" clip-rule="evenodd" d="M28.7109 53.9771L35.4475 58.8715L37.8948 55.5032L28.7109 53.9771Z" fill="white"/>
<path fill-rule="evenodd" clip-rule="evenodd" d="M28.7109 53.9834H37.0378V58.1468L28.7109 53.9834Z" fill="white"/>
<path fill-rule="evenodd" clip-rule="evenodd" d="M44.5627 53.9574L37.8261 58.8518L35.3789 55.4835L44.5627 53.9574Z" fill="white"/>
<path fill-rule="evenodd" clip-rule="evenodd" d="M44.5652 53.9619H36.2383V58.1253L44.5652 53.9619Z" fill="white"/>
<path fill-rule="evenodd" clip-rule="evenodd" d="M36.6404 48.2092L39.2135 56.1286L35.2539 57.4151L36.6404 48.2092Z" fill="white"/>
<path fill-rule="evenodd" clip-rule="evenodd" d="M36.6395 48.2122L34.0664 56.1315L38.026 57.4181L36.6395 48.2122Z" fill="white"/>
<path fill-rule="evenodd" clip-rule="evenodd" d="M44.5457 103.922H36.2188V108.086L44.5457 103.922Z" fill="white"/>
<path fill-rule="evenodd" clip-rule="evenodd" d="M44.547 103.92L37.8105 108.815L35.3633 105.447L44.547 103.92Z" fill="white"/>
<path fill-rule="evenodd" clip-rule="evenodd" d="M41.521 113.236L38.9479 105.317L34.9883 106.603L41.521 113.236Z" fill="white"/>
<path fill-rule="evenodd" clip-rule="evenodd" d="M41.5217 113.236L34.7852 108.342L37.2323 104.973L41.5217 113.236Z" fill="white"/>
<path fill-rule="evenodd" clip-rule="evenodd" d="M31.7305 113.23L38.4671 108.335L36.0198 104.967L31.7305 113.23Z" fill="white"/>
<path fill-rule="evenodd" clip-rule="evenodd" d="M31.7305 113.227L34.3036 105.307L38.2633 106.594L31.7305 113.227Z" fill="white"/>
<path fill-rule="evenodd" clip-rule="evenodd" d="M36.6209 98.1663L39.194 106.086L35.2344 107.372L36.6209 98.1663Z" fill="white"/>
<path fill-rule="evenodd" clip-rule="evenodd" d="M36.6278 98.168L34.0547 106.088L38.0143 107.374L36.6278 98.168Z" fill="white"/>
<path fill-rule="evenodd" clip-rule="evenodd" d="M28.7109 103.927H37.0378V108.09L28.7109 103.927Z" fill="white"/>
<path fill-rule="evenodd" clip-rule="evenodd" d="M28.707 103.925L35.4436 108.82L37.8908 105.452L28.707 103.925Z" fill="white"/>
<path fill-rule="evenodd" clip-rule="evenodd" d="M62.8425 122.211H54.5156V126.375L62.8425 122.211Z" fill="white"/>
<path fill-rule="evenodd" clip-rule="evenodd" d="M62.8478 122.211L56.1113 127.105L53.6641 123.737L62.8478 122.211Z" fill="white"/>
<path fill-rule="evenodd" clip-rule="evenodd" d="M59.7985 131.514L57.2253 123.595L53.2656 124.881L59.7985 131.514Z" fill="white"/>
<path fill-rule="evenodd" clip-rule="evenodd" d="M59.803 131.515L53.0664 126.62L55.5136 123.253L59.803 131.515Z" fill="white"/>
<path fill-rule="evenodd" clip-rule="evenodd" d="M50.0195 131.52L56.7561 126.625L54.3089 123.257L50.0195 131.52Z" fill="white"/>
<path fill-rule="evenodd" clip-rule="evenodd" d="M50.0117 131.52L52.5849 123.6L56.5446 124.887L50.0117 131.52Z" fill="white"/>
<path fill-rule="evenodd" clip-rule="evenodd" d="M54.9217 116.45L57.4949 124.37L53.5352 125.657L54.9217 116.45Z" fill="white"/>
<path fill-rule="evenodd" clip-rule="evenodd" d="M54.9247 116.449L52.3516 124.368L56.3113 125.655L54.9247 116.449Z" fill="white"/>
<path fill-rule="evenodd" clip-rule="evenodd" d="M47.0039 122.206H55.3307V126.37L47.0039 122.206Z" fill="white"/>
<path fill-rule="evenodd" clip-rule="evenodd" d="M47.0039 122.206L53.7404 127.1L56.1877 123.733L47.0039 122.206Z" fill="white"/>
<path fill-rule="evenodd" clip-rule="evenodd" d="M129.863 73.1941L132.437 81.1138L128.477 82.3999L129.863 73.1941Z" fill="white"/>
<path fill-rule="evenodd" clip-rule="evenodd" d="M129.858 73.1956L127.285 81.1153L131.245 82.4015L129.858 73.1956Z" fill="white"/>
<path fill-rule="evenodd" clip-rule="evenodd" d="M121.941 78.9448H130.269V83.1085L121.941 78.9448Z" fill="white"/>
<path fill-rule="evenodd" clip-rule="evenodd" d="M121.941 78.9409L128.678 83.8351L131.126 80.4667L121.941 78.9409Z" fill="white"/>
<path fill-rule="evenodd" clip-rule="evenodd" d="M124.965 88.2509L127.539 80.3318L131.498 81.6187L124.965 88.2509Z" fill="white"/>
<path fill-rule="evenodd" clip-rule="evenodd" d="M124.969 88.2572L131.706 83.363L129.258 79.9946L124.969 88.2572Z" fill="white"/>
<path fill-rule="evenodd" clip-rule="evenodd" d="M137.784 78.9448H129.457V83.1085L137.784 78.9448Z" fill="white"/>
<path fill-rule="evenodd" clip-rule="evenodd" d="M137.785 78.9409L131.048 83.8351L128.602 80.4667L137.785 78.9409Z" fill="white"/>
<path fill-rule="evenodd" clip-rule="evenodd" d="M134.755 88.2509L132.182 80.3318L128.223 81.6187L134.755 88.2509Z" fill="white"/>
<path fill-rule="evenodd" clip-rule="evenodd" d="M134.752 88.254L128.016 83.3598L130.462 79.9915L134.752 88.254Z" fill="white"/>
<path fill-rule="evenodd" clip-rule="evenodd" d="M109.779 44.9778L103.043 40.0834L105.49 36.7151L109.779 44.9778Z" fill="white"/>
<path fill-rule="evenodd" clip-rule="evenodd" d="M109.775 44.9748L107.202 37.0554L103.242 38.3421L109.775 44.9748Z" fill="white"/>
<path fill-rule="evenodd" clip-rule="evenodd" d="M112.794 35.6719L106.057 40.5663L103.609 37.198L112.794 35.6719Z" fill="white"/>
<path fill-rule="evenodd" clip-rule="evenodd" d="M112.788 35.6765H104.461V39.84L112.788 35.6765Z" fill="white"/>
<path fill-rule="evenodd" clip-rule="evenodd" d="M104.867 29.9116L107.44 37.831L103.48 39.1175L104.867 29.9116Z" fill="white"/>
<path fill-rule="evenodd" clip-rule="evenodd" d="M104.87 29.9084L102.297 37.8278L106.257 39.1144L104.87 29.9084Z" fill="white"/>
<path fill-rule="evenodd" clip-rule="evenodd" d="M99.9805 44.9822L106.717 40.0878L104.27 36.7195L99.9805 44.9822Z" fill="white"/>
<path fill-rule="evenodd" clip-rule="evenodd" d="M99.9766 44.9792L102.55 37.0598L106.51 38.3464L99.9766 44.9792Z" fill="white"/>
<path fill-rule="evenodd" clip-rule="evenodd" d="M96.9531 35.678L103.69 40.5724L106.137 37.2041L96.9531 35.678Z" fill="white"/>
<path fill-rule="evenodd" clip-rule="evenodd" d="M96.9531 35.6826H105.28V39.8461L96.9531 35.6826Z" fill="white"/>
<path fill-rule="evenodd" clip-rule="evenodd" d="M118.277 63.2663L120.85 55.3469L124.81 56.6336L118.277 63.2663Z" fill="white"/>
<path fill-rule="evenodd" clip-rule="evenodd" d="M118.277 63.2678L125.014 58.3734L122.567 55.0051L118.277 63.2678Z" fill="white"/>
<path fill-rule="evenodd" clip-rule="evenodd" d="M128.065 63.2724L121.328 58.3781L123.776 55.0098L128.065 63.2724Z" fill="white"/>
<path fill-rule="evenodd" clip-rule="evenodd" d="M128.076 63.2709L125.503 55.3516L121.543 56.6381L128.076 63.2709Z" fill="white"/>
<path fill-rule="evenodd" clip-rule="evenodd" d="M131.082 53.9558L124.346 58.8503L121.898 55.482L131.082 53.9558Z" fill="white"/>
<path fill-rule="evenodd" clip-rule="evenodd" d="M131.08 53.9589H122.754V58.1223L131.08 53.9589Z" fill="white"/>
<path fill-rule="evenodd" clip-rule="evenodd" d="M115.25 53.9512L121.987 58.8456L124.434 55.4773L115.25 53.9512Z" fill="white"/>
<path fill-rule="evenodd" clip-rule="evenodd" d="M115.254 53.9558H123.581V58.1192L115.254 53.9558Z" fill="white"/>
<path fill-rule="evenodd" clip-rule="evenodd" d="M123.171 48.2031L120.598 56.1225L124.557 57.409L123.171 48.2031Z" fill="white"/>
<path fill-rule="evenodd" clip-rule="evenodd" d="M123.172 48.2063L125.745 56.1257L121.785 57.4122L123.172 48.2063Z" fill="white"/>
<path fill-rule="evenodd" clip-rule="evenodd" d="M115.25 103.924H123.577V108.087L115.25 103.924Z" fill="white"/>
<path fill-rule="evenodd" clip-rule="evenodd" d="M115.25 103.922L121.987 108.817L124.434 105.449L115.25 103.922Z" fill="white"/>
<path fill-rule="evenodd" clip-rule="evenodd" d="M118.273 113.242L120.847 105.322L124.807 106.609L118.273 113.242Z" fill="white"/>
<path fill-rule="evenodd" clip-rule="evenodd" d="M118.273 113.244L125.01 108.349L122.563 104.98L118.273 113.244Z" fill="white"/>
<path fill-rule="evenodd" clip-rule="evenodd" d="M128.065 113.236L121.328 108.342L123.776 104.973L128.065 113.236Z" fill="white"/>
<path fill-rule="evenodd" clip-rule="evenodd" d="M128.064 113.234L125.49 105.315L121.531 106.601L128.064 113.234Z" fill="white"/>
<path fill-rule="evenodd" clip-rule="evenodd" d="M123.167 98.168L120.594 106.088L124.553 107.374L123.167 98.168Z" fill="white"/>
<path fill-rule="evenodd" clip-rule="evenodd" d="M123.164 98.1694L125.737 106.089L121.777 107.376L123.164 98.1694Z" fill="white"/>
<path fill-rule="evenodd" clip-rule="evenodd" d="M131.092 103.928H122.766V108.092L131.092 103.928Z" fill="white"/>
<path fill-rule="evenodd" clip-rule="evenodd" d="M131.098 103.927L124.362 108.822L121.914 105.453L131.098 103.927Z" fill="white"/>
<path fill-rule="evenodd" clip-rule="evenodd" d="M96.9688 122.209H105.296V126.373L96.9688 122.209Z" fill="white"/>
<path fill-rule="evenodd" clip-rule="evenodd" d="M96.9648 122.208L103.701 127.102L106.148 123.734L96.9648 122.208Z" fill="white"/>
<path fill-rule="evenodd" clip-rule="evenodd" d="M99.9961 131.52L102.569 123.6L106.529 124.887L99.9961 131.52Z" fill="white"/>
<path fill-rule="evenodd" clip-rule="evenodd" d="M100 131.518L106.737 126.624L104.289 123.255L100 131.518Z" fill="white"/>
<path fill-rule="evenodd" clip-rule="evenodd" d="M109.787 131.512L103.051 126.618L105.497 123.25L109.787 131.512Z" fill="white"/>
<path fill-rule="evenodd" clip-rule="evenodd" d="M109.786 131.511L107.213 123.592L103.254 124.878L109.786 131.511Z" fill="white"/>
<path fill-rule="evenodd" clip-rule="evenodd" d="M104.886 116.469L102.312 124.388L106.272 125.675L104.886 116.469Z" fill="white"/>
<path fill-rule="evenodd" clip-rule="evenodd" d="M104.887 116.471L107.46 124.391L103.5 125.678L104.887 116.471Z" fill="white"/>
<path fill-rule="evenodd" clip-rule="evenodd" d="M112.804 122.211H104.477V126.375L112.804 122.211Z" fill="white"/>
<path fill-rule="evenodd" clip-rule="evenodd" d="M112.808 122.209L106.072 127.103L103.625 123.735L112.808 122.209Z" fill="white"/>
<path d="M90.1408 76.5643H89.3759V74.119C89.3759 68.9837 85.1982 64.8057 80.0647 64.8057C74.9288 64.8057 70.7518 68.9837 70.7518 74.1186V76.5639H69.9871C68.4218 76.5639 67.1523 77.8327 67.1523 79.3982V92.8499C67.1523 94.4146 68.4222 95.6852 69.9871 95.6852H90.1408C91.7055 95.6852 92.9753 94.4146 92.9753 92.8499V79.3982C92.9753 77.833 91.7063 76.5643 90.1408 76.5643ZM85.2927 76.5643H74.8348V74.119C74.8348 71.2352 77.1802 68.89 80.0647 68.89C82.9467 68.89 85.2927 71.2352 85.2927 74.119V76.5643Z" fill="white"/>
<path d="M66.3986 183.25C66.2619 182.832 66.0817 182.457 65.8579 182.125C65.6384 181.79 65.3753 181.504 65.0687 181.268C64.7663 181.031 64.4224 180.851 64.0371 180.727C63.6518 180.603 63.2292 180.54 62.7693 180.54C62.0153 180.54 61.3297 180.735 60.7123 181.125C60.095 181.514 59.6041 182.088 59.2395 182.846C58.8749 183.604 58.6926 184.534 58.6926 185.636C58.6926 186.738 58.877 187.669 59.2457 188.427C59.6145 189.185 60.1137 189.759 60.7434 190.148C61.3732 190.538 62.0816 190.732 62.8688 190.732C63.5979 190.732 64.2401 190.577 64.7953 190.266C65.3546 189.951 65.7896 189.508 66.1003 188.936C66.4152 188.36 66.5726 187.683 66.5726 186.904L67.0449 187.004H63.2168V185.636H68.0641V187.004C68.0641 188.052 67.8404 188.963 67.3929 189.738C66.9496 190.513 66.3365 191.113 65.5534 191.54C64.7746 191.963 63.8797 192.174 62.8688 192.174C61.7419 192.174 60.7517 191.909 59.8983 191.379C59.0489 190.848 58.3861 190.094 57.9096 189.116C57.4373 188.139 57.2012 186.979 57.2012 185.636C57.2012 184.63 57.3358 183.724 57.6051 182.921C57.8785 182.113 58.2638 181.425 58.761 180.857C59.2582 180.29 59.8465 179.855 60.5259 179.552C61.2054 179.25 61.9532 179.099 62.7693 179.099C63.4405 179.099 64.0661 179.2 64.6461 179.403C65.2303 179.602 65.7502 179.886 66.206 180.255C66.6658 180.619 67.0491 181.056 67.3556 181.566C67.6622 182.071 67.8735 182.633 67.9895 183.25H66.3986ZM74.6313 192H70.7037V179.273H74.8053C76.0399 179.273 77.0963 179.528 77.9746 180.037C78.853 180.543 79.5262 181.27 79.9944 182.218C80.4625 183.163 80.6966 184.294 80.6966 185.612C80.6966 186.937 80.4604 188.079 79.9881 189.036C79.5158 189.989 78.8281 190.722 77.9249 191.236C77.0218 191.745 75.9239 192 74.6313 192ZM72.2449 190.633H74.5318C75.5841 190.633 76.4562 190.43 77.1481 190.024C77.84 189.618 78.3558 189.04 78.6955 188.29C79.0353 187.54 79.2051 186.647 79.2051 185.612C79.2051 184.584 79.0373 183.7 78.7017 182.958C78.3662 182.212 77.8649 181.64 77.1978 181.243C76.5308 180.841 75.7001 180.64 74.7058 180.64H72.2449V190.633ZM83.2818 192V179.273H87.5822C88.5807 179.273 89.3969 179.453 90.0308 179.813C90.6688 180.17 91.1411 180.652 91.4477 181.261C91.7542 181.87 91.9075 182.55 91.9075 183.3C91.9075 184.05 91.7542 184.731 91.4477 185.344C91.1452 185.957 90.6771 186.446 90.0432 186.811C89.4093 187.171 88.5973 187.352 87.6071 187.352H84.5247V185.984H87.5574C88.241 185.984 88.7899 185.866 89.2042 185.63C89.6185 185.394 89.9189 185.075 90.1053 184.673C90.2959 184.267 90.3912 183.809 90.3912 183.3C90.3912 182.79 90.2959 182.334 90.1053 181.933C89.9189 181.531 89.6165 181.216 89.198 180.988C88.7796 180.756 88.2244 180.64 87.5325 180.64H84.823V192H83.2818ZM94.3902 192V179.273H98.6906C99.685 179.273 100.501 179.443 101.139 179.782C101.777 180.118 102.249 180.58 102.556 181.168C102.863 181.756 103.016 182.426 103.016 183.175C103.016 183.925 102.863 184.59 102.556 185.17C102.249 185.75 101.779 186.206 101.145 186.537C100.511 186.865 99.7015 187.028 98.7155 187.028H95.2354V185.636H98.6658C99.3452 185.636 99.8921 185.537 100.306 185.338C100.725 185.139 101.027 184.857 101.214 184.493C101.404 184.124 101.5 183.685 101.5 183.175C101.5 182.666 101.404 182.22 101.214 181.839C101.023 181.458 100.719 181.164 100.3 180.957C99.8818 180.746 99.3287 180.64 98.6409 180.64H95.9314V192H94.3902ZM100.381 186.283L103.513 192H101.723L98.6409 186.283H100.381Z" fill="white"/>
</svg>
