<?xml version="1.0" encoding="UTF-8" standalone="no"?>
<svg xmlns="http://www.w3.org/2000/svg" id="animEye" shape-rendering="geometricPrecision" text-rendering="geometricPrecision" viewBox="0 0 1200 390" style="white-space: pre;">
    <style>
@keyframes Circle_t { 0% { transform: translate(595.216px,195px) scale(1,1); animation-timing-function: cubic-bezier(0.333,0,0.667,1); } 50% { transform: translate(595.216px,195px) scale(0,1); animation-timing-function: cubic-bezier(0.333,0,0.667,1); } 99.15% { transform: translate(595.216px,195px) scale(1,1); } 100% { transform: translate(595.216px,195px) scale(1,1); } }
    </style>
    <g id="Ellipse" transform="translate(600,195)">
        <g id="Group-1" opacity="1">
            <path id="Path-1" fill="none" d="M586.06,0C586.06,25.349,570.263,49.902,540.749,72.592C511.274,95.256,468.465,115.771,415.361,133.042C309.167,167.576,162.317,188.975,0,188.975C-162.316,188.975,-309.168,167.576,-415.359,133.042C-468.468,115.771,-511.273,95.256,-540.751,72.592C-570.263,49.902,-586.06,25.349,-586.06,0C-586.06,-25.349,-570.263,-49.902,-540.751,-72.592C-511.273,-95.257,-468.468,-115.771,-415.359,-133.042C-309.168,-167.576,-162.316,-188.975,0,-188.975C162.317,-188.975,309.167,-167.576,415.361,-133.042C468.465,-115.771,511.274,-95.257,540.749,-72.592C570.263,-49.902,586.06,-25.349,586.06,0Z" stroke="#ffffff" stroke-opacity="1" stroke-width="3" stroke-miterlimit="4" stroke-linecap="butt" stroke-linejoin="miter"/>
        </g>
    </g>
    <g id="Circle" transform="translate(595.216,195)" style="animation: 2s linear infinite both Circle_t;">
        <g id="Group-1-2" opacity="1">
            <path id="Ellipse-Path-1" fill="none" d="M0,-188.974C104.368,-188.974,188.974,-104.368,188.974,0C188.974,104.368,104.368,188.974,0,188.974C-104.368,188.974,-188.974,104.368,-188.974,0C-188.974,-104.368,-104.368,-188.974,0,-188.974Z" stroke="#ffffff" stroke-opacity="1" stroke-width="3" stroke-miterlimit="4" stroke-linecap="butt" stroke-linejoin="miter"/>
        </g>
    </g>
</svg>
