<svg width="246" height="80" viewBox="0 0 246 80" fill="none" xmlns="http://www.w3.org/2000/svg">
<path d="M245.5 40C245.5 45.2986 242.198 50.4306 236.029 55.1734C229.868 59.9108 220.92 64.1987 209.82 67.8088C187.623 75.0271 156.928 79.5 123 79.5C89.0723 79.5 58.3769 75.0271 36.1805 67.8088C25.0796 64.1987 16.1323 59.9108 9.97071 55.1734C3.80207 50.4306 0.5 45.2986 0.5 40C0.5 34.7014 3.80207 29.5694 9.97071 24.8266C16.1323 20.0892 25.0796 15.8013 36.1805 12.1912C58.3769 4.97289 89.0723 0.5 123 0.5C156.928 0.5 187.623 4.97289 209.82 12.1912C220.92 15.8013 229.868 20.0892 236.029 24.8266C242.198 29.5694 245.5 34.7014 245.5 40Z" stroke="white"/>
<circle cx="122" cy="40" r="39.5" stroke="white"/>
</svg>
