<?xml version="1.0" encoding="UTF-8" standalone="no"?>
<svg xmlns="http://www.w3.org/2000/svg" id="animTriangle" shape-rendering="geometricPrecision" text-rendering="geometricPrecision" viewBox="0 0 800 900" style="white-space: pre;">
    <style>
@keyframes dotted_mo { 0% { offset-distance: 0%; animation-timing-function: cubic-bezier(0.457,0,0.667,1); } 25% { offset-distance: 50%; } 50.425% { offset-distance: 50%; animation-timing-function: cubic-bezier(0.482,0,0.667,1); } 71.25% { offset-distance: 100%; } 100% { offset-distance: 100%; } }
    </style>
    <g id="dotted" style="transform: translate(-60.724px,0.25px); animation: 4s linear infinite both dotted_mo; offset-path: path('M340,450C360,450,440,450,460,450C460,450,460,450,460,450C440,450,360,450,340,450L340,450'); offset-rotate: 0deg;">
        <g id="Group-1" opacity="1">
            <path id="Path-1" fill="none" d="M336.086,-88.018C336.086,-88.018,337.642,-87.239,337.642,-87.239C308.59,-29.191,286.38,24.974,268.452,74.718C268.452,74.718,266.816,74.126,266.816,74.126C247.043,128.99,232.48,178.487,219.724,221.844C217.671,228.819,215.666,235.637,213.692,242.292C213.692,242.292,215.36,242.786,215.36,242.786C193.467,316.619,175.532,370.699,142.16,400.935C142.16,400.935,140.991,399.644,140.991,399.644C121.249,417.534,95.963,426.987,60.726,426.987C25.854,426.987,0.419,417.534,-19.664,399.724C-19.664,399.724,-20.82,401.029,-20.82,401.029C-54.85,370.849,-73.884,316.925,-96.059,243.799C-96.059,243.799,-94.394,243.294,-94.394,243.294C-97.34,233.58,-100.342,223.521,-103.444,213.132C-115.702,172.069,-129.508,125.826,-147.476,75.111C-147.476,75.111,-149.116,75.692,-149.116,75.692C-166.837,25.673,-188.614,-28.704,-216.977,-86.811C-216.977,-86.811,-215.414,-87.574,-215.414,-87.574C-227.743,-112.833,-241.315,-138.797,-256.338,-165.411C-256.329,-188.486,-255.61,-209.564,-254.221,-228.812C-254.221,-228.812,-255.957,-228.937,-255.957,-228.937C-252.009,-283.67,-242.654,-323.723,-228.768,-352.881C-228.768,-352.881,-227.197,-352.133,-227.197,-352.133C-216.162,-375.306,-202.28,-391.442,-186.027,-402.57C-169.764,-413.705,-151.029,-419.892,-130.193,-423.017C-130.193,-423.017,-130.451,-424.738,-130.451,-424.738C-98.102,-429.589,-60.984,-427.083,-20.757,-424.367C-14.917,-423.973,-9.014,-423.574,-3.048,-423.193C-3.048,-423.193,-3.16,-421.456,-3.16,-421.456C17.459,-420.138,38.83,-419.027,60.726,-419.027C82.622,-419.027,103.993,-420.138,124.608,-421.456C124.608,-421.456,124.496,-423.193,124.496,-423.193C130.462,-423.574,136.368,-423.973,142.205,-424.367C182.433,-427.083,219.55,-429.589,251.902,-424.738C251.902,-424.738,251.644,-423.017,251.644,-423.017C272.479,-419.892,291.215,-413.705,307.476,-402.57C323.73,-391.442,337.61,-375.306,348.647,-352.133C348.647,-352.133,350.217,-352.881,350.217,-352.881C364.104,-323.723,373.46,-283.67,377.407,-228.937C377.407,-228.937,375.67,-228.812,375.67,-228.812C377.059,-209.567,377.779,-188.492,377.786,-165.42C362.475,-138.924,348.64,-113.109,336.086,-88.018Z" stroke="#ffffff" stroke-opacity="1" stroke-width="2" stroke-miterlimit="4" stroke-linecap="butt" stroke-linejoin="miter" stroke-dasharray="42 42"/>
        </g>
    </g>
    <g id="triangle" transform="translate(340,450) translate(60.724,-0.62)">
        <g id="Group-1-2" opacity="1">
            <path id="Path-1-2" fill="none" d="M256.34,-165.42C166.465,-9.922,127.604,122.154,98.27,221.851C93.683,237.444,89.329,252.246,85.048,266.224C69.191,317.987,54.419,358.176,32.76,385.45C11.226,412.56,-17.186,426.987,-60.724,426.987C-104.252,426.987,-133.149,412.264,-155.281,384.761C-177.535,357.108,-193.017,316.459,-209.345,264.4C-214.377,248.358,-219.484,231.252,-224.89,213.139C-254.5,113.947,-293.111,-15.398,-377.787,-165.411C-377.754,-247.045,-368.841,-303.617,-352.864,-342.589C-336.892,-381.55,-313.871,-402.907,-285.508,-414.199C-257.03,-425.537,-223.004,-426.798,-184.891,-425.166C-171.241,-424.581,-157.049,-423.624,-142.423,-422.637C-116.367,-420.879,-88.932,-419.027,-60.724,-419.027C-32.515,-419.027,-5.081,-420.879,20.974,-422.637C35.599,-423.624,49.793,-424.581,63.444,-425.166C101.556,-426.798,135.582,-425.537,164.06,-414.199C192.423,-402.907,215.443,-381.55,231.415,-342.589C247.391,-303.618,256.305,-247.049,256.34,-165.42Z" stroke="#ffffff" stroke-opacity="1" stroke-width="3" stroke-miterlimit="4" stroke-linecap="butt" stroke-linejoin="miter"/>
        </g>
    </g>
</svg>
