<svg width="887" height="1783" viewBox="0 0 887 1783" fill="none" xmlns="http://www.w3.org/2000/svg">
<circle cx="378.5" cy="508.5" r="508" stroke="#F2C94C"/>
<path d="M886.5 305.5C886.5 333.119 864.333 355.5 837 355.5C809.667 355.5 787.5 333.119 787.5 305.5C787.5 277.881 809.667 255.5 837 255.5C864.333 255.5 886.5 277.881 886.5 305.5Z" fill="#F2C94C" stroke="#F2C94C"/>
<circle cx="347" cy="1400" r="382.5" stroke="#F2C94C"/>
<path d="M705.5 1192.5C705.5 1220.12 683.333 1242.5 656 1242.5C628.667 1242.5 606.5 1220.12 606.5 1192.5C606.5 1164.88 628.667 1142.5 656 1142.5C683.333 1142.5 705.5 1164.88 705.5 1192.5Z" fill="#F2C94C" stroke="#F2C94C"/>
</svg>
