<svg xmlns="http://www.w3.org/2000/svg" shape-rendering="geometricPrecision" text-rendering="geometricPrecision" viewBox="0 0 1077 448"><path fill="#f2f2f2" d="M32.6 65.61v3.69H6.78v-3.69H32.6Zm40.39 0a14 14 0 0 1-9.51 3.69l-27.18-.04v-3.65h36.69Zm38.42 0-1.3 3.69-1.27-3.69h2.57Zm-12.36 0v3.69H80.59v-3.69h18.46Zm40.6 0v3.69H121.2v-3.69h18.45Zm-62.48-7.04c-.32 1.3-.82 2.54-1.49 3.69H36.3v-3.69h40.87Zm36.71 0-1.3 3.69h-4.92l-1.3-3.69h7.52Zm-14.83 0v3.69H80.59v-3.69h18.46Zm40.6 0v3.69H121.2v-3.69h18.45Zm-107.04 0v3.69H6.77v-3.69H32.6Zm-7.38-7.04v3.69H14.15v-3.69h11.08Zm29.53 0v3.69H43.68v-3.69h11.08Zm22.32 0c.33 1.2.5 2.44.5 3.69H65.15v-3.69h11.92Zm39.28 0-1.3 3.69h-9.87l-1.3-3.69h12.47Zm-17.31 0v3.69H87.98v-3.69h11.07Zm33.22 0v3.69H121.2v-3.69h11.07ZM25.23 44.5v3.69H14.15V44.5h11.08Zm73.82 0v3.69H87.98V44.5h11.07Zm33.22 0v3.69H121.2V44.5h11.07Zm-59.67 0a14.14 14.14 0 0 1 3.08 3.69h-32V44.5H72.6Zm46.23 0-1.3 3.69h-14.81l-1.3-3.69h17.4Zm-9.74-7.04 1.03 2.98 1.04-2.98h21.11v3.69H121.2v-3.39l-1.2 3.39h-19.76l-1.19-3.39v3.39H87.98v-3.69h21.1Zm-65.4 0h31.99a14 14 0 0 1-3.08 3.69H43.68v-3.69Zm-18.46 0v3.69H14.15v-3.69h11.08Zm0-7.04v3.69H14.15v-3.69h11.08Zm29.53 0v3.69H43.68v-3.69h11.08Zm22.81 0c0 1.25-.16 2.49-.49 3.69H65.16v-3.69h12.41Zm29.07 0 1.28 3.69H87.98v-3.69h18.66Zm25.63 0v3.69h-19.94l1.28-3.69h18.66Zm-99.66-7.04v3.69H6.77v-3.69H32.6Zm43.07 0c.67 1.15 1.17 2.4 1.49 3.69H36.3v-3.69h39.38Zm63.97 0v3.69h-24.87l1.28-3.69h23.6Zm-35.47 0 1.29 3.69H80.59v-3.69h23.6Zm-71.57-7.04v3.69H6.77v-3.69H32.6Zm30.87 0c3.52 0 6.91 1.31 9.5 3.69H36.3v-3.69h27.18Zm76.17 0v3.69h-22.42l1.28-3.69h21.14Zm-37.92 0 1.29 3.69H80.59v-3.69h21.14ZM319.96 39.6a4.45 4.45 0 0 0-2.83 4.26c0 1.33.56 2.35 1.66 3.07 1.05.67 2.14.84 3.3.5 1.32-.38 2.22-1.32 2.7-2.82.22-.7.33-1.46.33-2.32v-3.73c-.94.03-1.81.12-2.63.28-.83.15-1.67.41-2.53.77Zm2-29.91a33.22 33.22 0 1 0-.01 66.44 33.22 33.22 0 0 0 .02-66.44Zm2.66 19.48c-.53-.81-1.49-1.22-2.87-1.22l-.4.02c-.81.17-1.59.5-2.28.95-1.15.93-2 2.17-2.47 3.57l-6.97-.62c0-.91.18-1.83.52-2.73a8.8 8.8 0 0 1 1.59-2.6c.71-.83 1.56-1.55 2.56-2.18s2.2-1.12 3.59-1.5c2.88-.76 5.92-.76 8.8 0 1.27.4 2.3.86 3.07 1.42a8.68 8.68 0 0 1 2.99 3.89c.2.6.3 1.16.3 1.69v13.53c0 .48.1.97.31 1.47.22.5.47.95.76 1.33a10.6 10.6 0 0 0 1.68 1.8l.3.25-5.38 5.15c-1.1-1-2.19-2.02-3.24-3.08l-.45-.46a4.66 4.66 0 0 1-.6-.76c-.6.9-1.37 1.7-2.3 2.36a9.88 9.88 0 0 1-3.02 1.46c-1.07.3-2.18.48-3.31.53a8.55 8.55 0 0 1-3.26-.48c-1-.35-1.94-.86-2.79-1.5a6.59 6.59 0 0 1-1.96-2.6 9.05 9.05 0 0 1-.74-3.74c0-1.3.23-2.47.66-3.54.4-1 .97-1.9 1.71-2.68a11.2 11.2 0 0 1 2.52-1.9c.99-.56 1.96-1 2.9-1.31a27.29 27.29 0 0 1 8.27-1.36V31.4c0-1-.16-1.74-.49-2.23ZM338 57.32c-.2.24-.55.58-1.04 1a25.54 25.54 0 0 1-5.6 3.26 25 25 0 0 1-4.46 1.34c-1.79.38-3.6.57-5.43.56a25.34 25.34 0 0 1-10.6-2.47 36 36 0 0 1-7.23-4.79c-.7-.63-1.37-1.3-1.99-2.02a1 1 0 0 1-.23-.38c-.03-.1-.03-.2.02-.27a.52.52 0 0 1 .2-.16.55.55 0 0 1 .54.06 67.7 67.7 0 0 0 7.11 3.8 30.75 30.75 0 0 0 18.93 2.08c3-.62 6.1-1.65 9.27-3.1.23-.1.44-.11.61-.07s.26.18.26.4c0 .2-.12.47-.36.76Zm4.45-2.15c-.14.82-.37 1.6-.68 2.35a6.93 6.93 0 0 1-2 2.85c-.27.22-.48.28-.62.21s-.14-.26 0-.55c.33-.69.68-1.62 1.05-2.8.37-1.17.42-1.92.16-2.26a.86.86 0 0 0-.38-.26c-.2-.07-.41-.12-.63-.14l-.7-.06c-.53-.01-1.05 0-1.58.04-.6.07-1.22.12-1.83.17l-.2.02-.16.02h-.24l-.07-.02-.05-.03-.04-.07c-.1-.24.28-.55 1.12-.92.83-.37 1.65-.6 2.44-.69.85-.1 1.7-.12 2.55-.02.98.09 1.58.27 1.8.55.18.26.2.8.06 1.6Zm400.58-28.62c0-1.07 1.03-1.53 2.7-1.53 1.65 0 2.72.4 2.72 1.53 0 1.38-1.68 1.53-2.71 1.53-1.68 0-2.71-.43-2.71-1.53Zm7 0c0-2.1-1.58-3.57-4.3-3.57-1.94 0-4.28.97-4.28 3.57 0 2.48 2.06 3.6 4.29 3.6 2.25 0 4.29-1.12 4.29-3.6Zm-7 9.9v-1.5c0-.92.58-1.25 1.06-1.25.52 0 1.07.37 1.07 1.25v1.5h-2.13Zm3.59 0V35l3.32-1.28v-2.17l-3.69 1.56a2.27 2.27 0 0 0-2.16-1.47c-1.55 0-2.52 1.01-2.52 3.03v3.72h8.37v-1.95h-3.32Zm-1.95 3.82c-2 .21-3.22 1.28-3.22 3.39 0 2.53 1.97 3.76 4.29 3.76 2.28 0 4.29-1.23 4.29-3.7 0-1.93-1.13-3.27-3.04-3.45l-.13 1.9c.8.11 1.59.54 1.59 1.46 0 1.46-1.46 1.62-2.62 1.62-1 0-2.83-.13-2.83-1.53 0-1.07.85-1.4 1.8-1.4l-.13-2.05Zm5.24 9.07h-8.37v1.95h8.37v-1.95Zm0 8.43v1.34l-6.82 2.02v.06h6.82v1.65h-8.37v-3.08l5.02-1.47-5.02-1.53v-3.08h8.37v1.95h-6.82v.06l6.82 2.08Zm-172.3 5.07h-31.66c-2.47-9.13-7.65-28.4-7.65-28.4h-.09v28.4h-12.94V23.6h22.47c2.38 9.04 7.34 27.67 7.34 27.67h.09V23.6h12.97v5.95a18.33 18.33 0 0 0-5.09 13.02c0 7.73 4.33 17.29 14.56 20.28ZM731.49 23.6v39.25h-13.58V32.11h-.18l-7.8 30.73h-12.5l-7.8-30.73h-.18v30.73H665.7l-2.37-8.46h-12.75l-2.38 8.46h-22.68s-.76-5.77-.97-7.24c-.67-4.86-2.13-6.05-5.03-6.05h-3.95v13.26h-23.23a58.38 58.38 0 0 0 16.2-6.66l-4.88-18.54-12.96 3.42 2.76 10.5a12.3 12.3 0 0 1-5.35 1.54c-6.18 0-9.13-6.24-9.13-11.58 0-8.65 8.76-11.95 16.5-11.95 1.8 0 4.1.16 4.44.19l-1.58-6.14h27.03c10.8 0 15 5.13 15 10.63 0 8.28-7.88 9.83-9.37 10.11-.03 0-.03.24 0 .24 3.14.62 5.45 2.14 6.94 4.8-.06-.12 8.25-23.61 9.01-25.78h20.76l8.77 24.62h.12V23.59h22.35s5.17 21.5 5.2 21.5l5.09-21.5h22.25Zm-227.13 0h15.04s-.03 26.09-.03 39.25h-15.04l.03-39.25Zm152.49 8.43-4.2 12.95h8.67l-4.23-12.95h-.24Zm-41.22 8.7h4.47c3.65 0 5.18-1.89 5.18-4.21 0-2.96-2.53-4.12-5.18-4.12h-4.47v8.34Zm292.62-15.08c-2.8.5-5.27 2.13-6.85 4.5a13.74 13.74 0 0 0-2 5.32c-.32 1.82-.24 4.36.23 6.81.75 3.86 2.86 7.99 5.84 11.43a21.83 21.83 0 0 0 8.78 5.83c3.07 1 6.5.93 9.55-.16a23.24 23.24 0 0 0 6.12-3.56 22.5 22.5 0 0 0 2.9-2.97c.03-.07.2-.3.38-.53a24.4 24.4 0 0 0 4.6-9.48c.53-2.37.79-4.86.6-5.78-.06-.28-.18-1-.27-1.59-.78-5.02-3.6-8.42-8.05-9.65-.69-.19-1.07-.22-2.84-.22-1.9-.01-2.14.01-3.15.27a19.1 19.1 0 0 0-4.92 2.03l-.36.22-1.18-.61c-1.5-.8-2.53-1.2-4-1.6a10 10 0 0 0-3.02-.33c-1.01-.02-2.07.02-2.36.07Zm4.15 3.53c.8.17 1.76.5 2.73.91l.59.27-1.1 1.14c-.45.44-.87.91-1.26 1.4-.09.15-.47.68-.85 1.2a24.98 24.98 0 0 0-3.28 6.04c-.19.5-.38.97-.43 1.03a11.7 11.7 0 0 0-.67 2.45c-.25 1.24-.28 1.5-.28 3.89 0 2.02.03 2.69.16 3.2.09.35.14.64.1.64-.1-.01-1.28-1.49-1.86-2.32-2.62-3.76-3.98-8.67-3.46-12.56.19-1.39.77-3.23 1.33-4.14a7.45 7.45 0 0 1 3.57-2.95 9.46 9.46 0 0 1 4.71-.2Zm16.95.06c3.98 1.06 6.12 5.42 5.39 10.96-.4 3.06-1.5 5.98-3.23 8.53-.65.97-1.96 2.64-2.02 2.58 0-.32.04-.64.11-.95.35-2.27.28-4.6-.2-6.84a15.2 15.2 0 0 0-1.27-3.95 19.4 19.4 0 0 0-.75-1.66c-.4-.83-.67-1.04-1.06-.89-.13.04-1.8 1.07-3.75 2.28-1.3.82-2.63 1.62-3.96 2.4-.2.1-.38.23-.54.38-.22.25-.07.9.29 1.4l.67.97c.34.5.53.65.81.65.12 0 2.47-1.45 4.3-2.67l.98-.64c.16-.09.46.86.82 2.54.77 3.72.16 7.46-1.6 9.78a6.76 6.76 0 0 1-5.91 2.63 6.2 6.2 0 0 1-4.57-2.02c-.55-.49-1-1.08-1.31-1.75-1.4-2.93-1.6-5.81-.64-9.69 1.5-6.08 6.36-11.75 11.76-13.68.68-.23 1.9-.52 2.72-.63a11 11 0 0 1 2.96.27Zm26.49 3.43c-1.1.11-2.05.27-2.31.4l-1.21.5a9.65 9.65 0 0 0-3.61 2.45 7.21 7.21 0 0 0-1.62 2.06 10.47 10.47 0 0 0-1.18 5.69c.1 1.87.55 3.44 1.45 4.94a11.7 11.7 0 0 0 2.64 2.72c1.06.74 2.7 1.5 3.73 1.73 1 .23 3.23.22 4.3-.02a10.38 10.38 0 0 0 4.42-2.37l.48-.48v1.01c0 .82.04 1.07.2 1.33l.2.34h1.41c.78 0 1.48-.04 1.53-.08.33-.22.35-.54.35-4.62 0-3.58-.02-4.12-.17-4.25-.13-.14-.65-.16-4.14-.16h-4l-.2.26c-.19.24-.22.42-.22 1.44 0 1.14.02 1.16.28 1.42.28.24.34.26 1.6.26.72 0 1.3.04 1.3.09 0 .19-.98.95-1.68 1.3-.97.47-2.2.7-3.38.61a5.67 5.67 0 0 1-5.37-4.37 7.48 7.48 0 0 1-.18-1.94c0-1.12.04-1.38.29-2.1a5.96 5.96 0 0 1 3.72-3.85 8.1 8.1 0 0 1 3.53-.15 5.78 5.78 0 0 1 3.79 2.65c.45.8.57.84 1.35.58 1.4-.49 2.8-1.1 2.9-1.24.14-.2-.2-1-.81-1.96a8.3 8.3 0 0 0-4.2-3.35 20 20 0 0 1-1-.41c-.45-.24-3.21-.52-4.2-.43Zm28.4.46-.26.2v9.58c0 8.64.02 9.6.16 9.82l.16.25 4.54-.01c4.68 0 4.84-.01 6.38-.43 3.23-.86 5.29-2.49 6.52-5.12.71-1.52.86-2.32.88-4.48 0-2.24-.16-3-.97-4.66-1.27-2.59-3.44-4.19-6.79-4.99-1.46-.33-2.05-.38-6.27-.38-3.97 0-4.08.01-4.35.22Zm9.73 4.02a6.13 6.13 0 0 1 3.98 3.76c.26.85.34 2.13.2 3.05-.09.68-.3 1.34-.6 1.96-.04.02-.26.33-.48.65a5.2 5.2 0 0 1-3.2 2.22c-.68.18-1.14.2-3.2.2h-2.38v-5.96c0-3.29.03-6.01.08-6.05a19 19 0 0 1 2.53-.03c1.83.02 2.62.08 3.07.2Zm37.14-4.17c-.4.16-.4.3-.41 3.92v3.52l-.52-.48c-1.68-1.58-4.8-1.7-7.13-.29-.34.2-.89.66-1.24 1-2.16 2.14-2.7 5.88-1.27 8.8a6.96 6.96 0 0 0 6.53 3.91 4.51 4.51 0 0 0 3.2-1.44l.43-.41v.48c0 .28.08.6.17.74.16.26.17.26 1.84.26 1.38 0 1.7-.03 1.84-.17s.16-1.16.16-9.8c0-9.57 0-9.65-.2-9.88-.21-.21-.3-.22-1.73-.21-.85 0-1.6.03-1.67.05Zm-2.37 9.73a4.2 4.2 0 0 1 1.74 1.77c.23.49.27.7.27 1.54 0 .9-.03 1.03-.34 1.66a3.12 3.12 0 0 1-2.95 1.82c-2.03 0-3.45-1.6-3.32-3.74.06-.97.42-1.74 1.13-2.42.76-.74 1.27-.92 2.34-.87.39.03.87.12 1.13.24Zm18.43-9.54-.25.24v3.5c0 1.91-.03 3.48-.05 3.48-.03 0-.25-.2-.51-.45a5.05 5.05 0 0 0-2.02-1.1 8.8 8.8 0 0 0-3.27.04 6.96 6.96 0 0 0-3.57 2.36c-.26.34-.49.65-.54.68-.14.1-.43.72-.68 1.49a8.6 8.6 0 0 0-.38 3.45c.13.92.54 2.33.83 2.78a8.84 8.84 0 0 0 2.96 2.86 5.8 5.8 0 0 0 2.76.86 4.7 4.7 0 0 0 3.89-1.4c.24-.24.46-.4.5-.4s.07.18.07.41c0 .43.14.8.35.94.15.1 3.26.1 3.42 0 .31-.2.34-.7.34-9.96 0-9.9.01-9.78-.46-9.97a14.7 14.7 0 0 0-1.66-.06c-1.44 0-1.49 0-1.73.25Zm-2.29 9.53c.65.33 1.29.95 1.58 1.55.17.33.35.62.41.66s.1.5.1 1.03c0 .85-.03 1.01-.3 1.55-.67 1.3-1.53 1.92-2.83 2a3.04 3.04 0 0 1-3.1-1.81c-.31-.63-.34-.76-.34-1.66.01-.85.04-1.05.29-1.54.29-.59.43-.77 1.01-1.32.76-.7 2.28-.92 3.18-.46Zm23.15-6.75a2.5 2.5 0 0 0-.07.77c0 .55.03.7.15.7s.16-.12.16-.44v-.43l.2.33c.11.18.24.33.29.33s.17-.15.26-.33l.16-.33v.43c.01.37.04.44.22.44.19 0 .21-.05.18-.75-.02-.65-.05-.74-.23-.74-.13 0-.28.14-.42.4l-.23.39-.12-.36c-.07-.2-.19-.39-.27-.42-.19-.07-.19-.07-.28.01Zm-94.17 2.84a7.22 7.22 0 0 0-5.55 4.62c-.16.45-.32.87-.37.95-.26.33-.27 3.1 0 3.44.05.07.15.3.22.53a7.53 7.53 0 0 0 3.85 4.25c.08 0 .2.07.25.15.06.07.47.24.91.38 1.05.32 2.88.33 4.03.05a9.9 9.9 0 0 0 3.17-1.68c2.4-2.03 3.13-5.34 1.87-8.42a7.1 7.1 0 0 0-3.57-3.66 8.8 8.8 0 0 0-4.8-.6Zm2.54 3.91c.2.08.5.23.66.37 1.36 1.14 1.62 1.61 1.63 2.95 0 .78-.04.95-.33 1.53a3.47 3.47 0 0 1-2.5 1.84c-1.4.28-2.9-.48-3.6-1.86a4.05 4.05 0 0 1-.08-2.8c.38-.8.98-1.48 1.74-1.94.78-.36 1.67-.4 2.48-.09Zm33.29-4c-.69.11-1.36.3-2 .56a6.38 6.38 0 0 0-3.71 3.97 7.75 7.75 0 0 0-.47 3.25c.07 1.18.28 1.94.79 2.97a6.47 6.47 0 0 0 3.06 3.08c.24.1.43.2.43.26 0 .27 2.12.65 3.12.57a4.48 4.48 0 0 0 3.13-1.44l.43-.41v.48c0 .28.07.6.16.74.17.26.18.26 1.9.26 1.52 0 1.73-.03 1.88-.18.15-.18.17-.8.17-6.8 0-6.27-.01-6.62-.19-6.77-.16-.15-.45-.18-1.82-.18-1.99 0-2.1.04-2.1.84v.53l-.51-.48a4.63 4.63 0 0 0-2.26-1.15 6 6 0 0 0-2.01-.1Zm2.67 3.97c.25.08.63.35 1.09.8.62.6.72.74.92 1.42.56 1.8-.15 3.56-1.73 4.3-.83.38-1.98.37-2.81-.03a3.35 3.35 0 0 1-1.56-1.6c-.18-.38-.22-.66-.22-1.54 0-.95.03-1.14.26-1.58.39-.8 1.3-1.62 1.95-1.8a3.4 3.4 0 0 1 2.1.03Zm39.78-3.51c-.34.2-.3.56.21 2.22 2.79 9.01 3.46 11.08 3.62 11.32.19.28.22.28 1.28.28.83 0 1.07.03 1.03.13-.02.07-.12.38-.2.7-.35 1.2-.91 1.66-2.02 1.67a2.3 2.3 0 0 1-1.44-.38c-.84-.44-1.21-.47-1.51-.16a7.07 7.07 0 0 0-1.26 2.13c0 .38.4.75 1.27 1.18a7.4 7.4 0 0 0 6.14-.02 5.95 5.95 0 0 0 2.06-2.17c.4-.76.52-1.14 1.04-2.99.19-.7.79-2.77 1.32-4.6 1.53-5.22 2.54-8.76 2.54-8.94a.55.55 0 0 0-.16-.32c-.13-.13-.46-.17-1.9-.17-1.55 0-1.75.03-1.92.19-.2.2-.32.57-1.25 4.17-1 3.82-1.59 5.99-1.65 5.99-.04 0-.83-2.72-2.22-7.68-.16-.66-.38-1.31-.66-1.93-.21-.7-.3-.74-2.35-.74-.99.01-1.88.07-1.97.12Z"/><path fill="#a5cce2" d="M50.92 163.8H19.59v-31.57h31.33v31.58Z"/><path fill="#6990a6" d="M85.5 163.8H54.19v-31.57h31.33v31.58Z"/><path fill="#194056" d="M50.92 198.68H19.59V167.1h31.33v31.58Z"/><path fill="#f2f2f2" d="M85.5 198.68H54.19V167.1h31.33v31.58Zm251.01-7.08h-4.77v-18.9h4.77v18.9Zm38.48-13.49c-.2-.1-1.73-1-4.01-1-3.09 0-5.23 2.14-5.23 5.04 0 2.8 2.05 5.05 5.23 5.05 2.24 0 3.8-.9 4-1v5.07c-.59.16-2.22.67-4.34.67-5.37 0-10.08-3.7-10.08-9.8 0-5.64 4.26-9.78 10.08-9.78 2.24 0 3.9.54 4.35.68v5.07Zm-49.8 0c-.2-.1-1.73-1-4.01-1-3.1 0-5.23 2.14-5.23 5.04 0 2.8 2.05 5.05 5.23 5.05 2.24 0 3.8-.9 4-1v5.07c-.59.16-2.22.67-4.35.67-5.36 0-10.07-3.7-10.07-9.8 0-5.64 4.27-9.78 10.07-9.78 2.25 0 3.9.54 4.35.68v5.07Zm64.8-.93a4.89 4.89 0 0 0-4.93 4.97c0 2.75 2.1 4.97 4.94 4.97a4.9 4.9 0 0 0 4.94-4.97 4.9 4.9 0 0 0-4.94-4.97Zm10 4.97c0 5.4-4.18 9.79-9.99 9.79-5.82 0-9.99-4.38-9.99-9.8 0-5.4 4.17-9.78 9.99-9.78 5.81 0 9.99 4.39 9.99 9.79Zm-45.38-5.16c-.07-.02-2.08-.57-3.73-.57-1.91 0-2.95.64-2.95 1.55 0 1.15 1.4 1.55 2.18 1.8l1.32.42c3.1.98 4.5 3.1 4.5 5.4 0 4.76-4.17 6.35-7.82 6.35-2.54 0-4.92-.47-5.15-.51v-4.36c.42.1 2.42.7 4.5.7 2.38 0 3.47-.69 3.47-1.76 0-.96-.94-1.51-2.13-1.88l-1.01-.33c-2.66-.84-4.88-2.4-4.88-5.53 0-3.54 2.65-5.91 7.05-5.91 2.32 0 4.5.56 4.65.6v4.03Zm-48.91-24.61a2.37 2.37 0 1 0-4.74 0v4.96a2.38 2.38 0 0 0 4.74 0v-4.97Zm13.01-6.52a2.37 2.37 0 1 0-4.73 0v11.48a2.37 2.37 0 0 0 4.73 0v-11.48Zm13.02-8.91a2.37 2.37 0 1 0-4.74 0v25.1a2.37 2.37 0 1 0 4.74 0v-25.1Zm13.01 8.91a2.37 2.37 0 1 0-4.74 0v11.48a2.37 2.37 0 1 0 4.74 0v-11.48Zm13 6.51a2.37 2.37 0 0 0-4.73 0v4.97a2.37 2.37 0 0 0 4.73 0v-4.97Zm13.01-6.5a2.36 2.36 0 0 0-4.72 0v11.47a2.37 2.37 0 0 0 4.73 0v-11.48Zm13.03-8.92a2.37 2.37 0 0 0-4.73 0v25.1a2.37 2.37 0 1 0 4.73 0v-25.1Zm13.01 8.91a2.37 2.37 0 1 0-4.75 0v11.48a2.36 2.36 0 0 0 2.36 2.37c1.34 0 2.4-1.06 2.4-2.37v-11.48Zm13 6.51a2.37 2.37 0 0 0-4.73 0v4.97a2.37 2.37 0 1 0 4.73 0v-4.97Zm-2.73 36.74v.3h-.85v2.2h-.34v-2.2h-.85v-.3h2.04Zm.17 0h.54l.75 2.05h.01l.72-2.04h.54v2.48h-.36v-2.04h-.01l-.76 2.04h-.33l-.73-2.04h-.02v2.04h-.35v-2.49Zm271.07 25.51a49.24 49.24 0 0 0 49.22-49.26 49.24 49.24 0 0 0-49.22-49.25 49.24 49.24 0 0 0-34.81 84.07 49.24 49.24 0 0 0 34.81 14.44Z"/><path fill="#375e74" d="m710.3 169.55-2.46.76.56.22-.86.54c.1-.5.18-1 .25-1.5l1.34-1.13.03.6 1.51-2.07-2.32 1.07.57.15-1.07.9c.07-.62.13-1.25.17-1.87l1.32-1.47.11.59 1.22-2.25-2.17 1.37.6.06-1.05 1.14.02-1.18c0-2.87-.42-5.73-1.24-8.5-1.34.13-2.68-.3-3.33-.42 1.72 1 2.31 2.1 2.57 3.34-1.38.3-3.2-.14-4.21-.93.98.86 1.6 2.21 1.64 3.6a4.92 4.92 0 0 1-3.68-1.55c.62.69 1.4 2.43 1.21 3.67a5.49 5.49 0 0 1-3.32-1.83c.63 1.39.92 2.5.85 3.75a5.48 5.48 0 0 1-3.12-1.56c.51 1.26.7 2.53.58 3.58a5.03 5.03 0 0 1-3.02-2.3c.41 1.13.67 2.6.4 3.47a3.94 3.94 0 0 1-2.5-2.21c.58 1.25.5 2.7.31 3.44a2.92 2.92 0 0 1-1.44-.8l-.04.66c-.05.8-.22 1.6-.5 2.36l.32.38c.6.64 1.43 1.26 2.08 1.47-.28.04-.66.28-1.05.33.43.48 1.3.6 1.85 1.15-.42.05-.52.35-1.04.3.98.75 1.88.78 2.38.84.2.02.86.08 1.27.01.6-.08 1.2.2 1.44.34.36.22.34.72.27.97a.68.68 0 0 1-.38.47c-.16.05-.26.06-.1-.06.14-.1.27-.73-.06-.98a1.6 1.6 0 0 0-.97-.3c-.44.02-1.12.06-1.44.03-.3-.04-.49.36-.53.52-.1.4-.23.88-.8.64-.7-.4-1.69-.37-2.83-.83.16.35.1.66.27 1.05-1.02-.25-1.28-.77-2.25-1.1.17.34.12.62.34.95-.82-.14-1.58-.87-2.71-1.18l-.1.04a59 59 0 0 0-1.14.35c.8.9 1.47 2.03 1.78 3.38 0 0-.57.01-1.4-.28.24.77.38 1.57.4 2.38 0 0-.64-.12-1.51-.66.08.83.04 1.67-.12 2.5 0 0-.74-.31-1.6-1.2-.1.86-.33 1.7-.67 2.5s-.67-.45-1.36-1.52c-.29.86-.7 1.68-1.23 2.42s-.73-.77-1.22-2.32c-.67 1-1.3 1.42-1.3 1.42a9.15 9.15 0 0 1-.66-2.5c-.45.5-1 .9-1.6 1.2a8.55 8.55 0 0 1-.12-2.5c-.87.54-1.51.66-1.51.66.01-.81.15-1.61.4-2.38-.84.3-1.4.28-1.4.28a8.4 8.4 0 0 1 1.83-3.44l-.97-.3-.1-.03c-1.14.3-1.9 1.04-2.71 1.18.21-.33.17-.6.33-.96-.96.34-1.22.86-2.24 1.11.17-.4.1-.7.27-1.05-.94.47-2.23.78-2.8.9-.64.14-.67-.8-.88-1.01-.09-.1-.6-.13-.8-.1-.32.06-.93.03-1.39.02-.45 0-.77.13-1 .31-.34.24-.18.9-.04 1 .16.12.06.1-.1.06a.69.69 0 0 1-.38-.47c-.06-.25-.09-.75.28-.95.23-.15.84-.44 1.43-.35 1.4.13 2.79-.24 3.92-1.06-.51.05-.61-.25-1.04-.3.55-.56 1.43-.67 1.86-1.15-.39-.05-.73-.36-1.01-.4.86-.48 1.43-.75 2.03-1.4l.33-.37a8.35 8.35 0 0 1-.5-2.37l-.05-.63c-.2.23-.64.47-1.34.72-.33-.8-.17-2.29.25-3.44-.6 1.17-1.28 1.94-2.43 2.28-.28-.86-.11-2.36.3-3.5a5.01 5.01 0 0 1-2.95 2.41c-.1-1.04 0-2.42.5-3.68a5.47 5.47 0 0 1-3.11 1.56c-.04-1.3.26-2.6.85-3.75a5.72 5.72 0 0 1-3.5 1.68c.09-1.07.84-2.54 1.28-3.4a6.83 6.83 0 0 1-3.58 1.44 6.8 6.8 0 0 1 1.65-3.6 6.06 6.06 0 0 1-4.06 1.08 5.47 5.47 0 0 1 2.24-3.34c-.64.13-1.81.4-3.15.27a29.58 29.58 0 0 0-1.24 8.36c-.67-.53-1.14-.66-1.6-1.12.09.63.17.98.24 1.75.12 1.4.66 2.2 1.53 2.7l.15 1.2a4.76 4.76 0 0 0-2.67-.67c.7 2.28 1.7 2.45 3.04 2.66l.15.63a4.9 4.9 0 0 0-2.55.08 4.11 4.11 0 0 0 3.1 1.9l.01.03a5.2 5.2 0 0 0-2.7.46c1.13.98 2.24 1.35 3.3 1.24l.17.42c-.84.22-1.58.65-2 1.06.84.29 1.73.4 2.61.34l.03.06c-.48.37-.9.97-1.16 1.9.63-.16 1.28-.2 1.92-.4l.4.72a3.43 3.43 0 0 0-.26 2.36c.54-.13.99-.34 1.36-.61l.38.56c-.16.98.1 1.98.72 2.76.26-.29.5-.6.7-.93a29.6 29.6 0 0 0 50.46-8.7l1.34-.58-.1.6 1.94-1.69-2.51.52.52.28-1.03.42c.18-.52.35-1.05.5-1.58l1.48-.81-.05.6 1.78-1.86-2.45.75.55.23-1.18.64c.16-.57.3-1.16.42-1.75l1.12-.7-.05.59 1.77-1.86Z"/><path fill="#375e74" d="M666.42 155.42a8.9 8.9 0 0 1-2-1.4c-2.15-1.96-2.66-4.02-2.02-6.38.37-1.41.95-2.12.75-3.59-.11-.84-.7-1.51-1.3-2.08-1.44-1.38-3.14-2.23-5.65-3.08-1.55-.53-6.07-1.93-8.06-3.73-.45 1.32.5 3.09 1.66 3.32a3.3 3.3 0 0 0-2.29 1.21 5.6 5.6 0 0 0 3.56 1.84 5.67 5.67 0 0 0-1.53 1.69 8.7 8.7 0 0 0 4.18.97c-.54.44-1 .96-1.37 1.55.9.42 2.67 1.02 4.35 1.14-.62.3-1.5 1.36-1.96 2.02.94.42 2.99.67 4.26.8a6.78 6.78 0 0 0-2.38 2.3c.92.43 2.65.93 4.06.88a5.62 5.62 0 0 0-1.42 2.27c1.07.22 2.19.22 3.5.05-.8 1-1.11 2.33-1.22 3.27 1.2 0 2.4-.3 3.46-.86-.22.8-.17 1.9.18 2.68.41-.1.9-.27 1.42-.55l-.18-4.32Zm43.1-17.83c-2 1.8-5.18 2.29-8.52 3.4-2.52.83-4.09 1.31-6.34 3.11a2.88 2.88 0 0 0-1.2 2.57c.08 1.44.32 2.06.36 4.07a4.84 4.84 0 0 1-1.08 3.28 8 8 0 0 1-2.2 1.73c-.04 1.23-.1 2.46-.17 3.9.53.28 1.2.54 1.61.64.35-.78.4-1.88.18-2.69 1 .6 2.4.84 3.46.87a6.72 6.72 0 0 0-1.22-3.28c1.3.18 2.43.18 3.5-.04a5.7 5.7 0 0 0-1.42-2.27c1.4 0 2.78-.31 4.06-.89a6.78 6.78 0 0 0-2.38-2.29c1.27-.13 3.37-.38 4.32-.8a7.71 7.71 0 0 0-2.02-2.02 13.8 13.8 0 0 0 4.35-1.14 6.33 6.33 0 0 0-1.36-1.55c1.57-.1 3.07-.4 4.17-.97a5.66 5.66 0 0 0-1.53-1.69c3.37-.94 3.42-2.62 3.43-3.94Z"/><path fill="#375e74" d="M695.34 141.15a29.44 29.44 0 0 0-16.85-5.27 29.5 29.5 0 0 0-15.57 4.43c1.18.91 1.87 1.88 2.04 2.88.15.87.25 1.93-.25 3.47-.54 1.64-.84 3.33.37 5.03a6.4 6.4 0 0 0 4.06 2.69c1.8-.32 3.62-.55 5.44-.7.25-.79.96-1.48 1.7-2.04 1.04-.82.81-1.53.56-2.09-.2-.43-.57-.78-1.1-1.06-.48-.25-2.22-.43-2.17.68-.28-.4-.5-.95-.34-1.64.23-.97 1.81-1.21 2.2-1.19-.3-.25-.11-.67.58-.86a8 8 0 0 1 2.4-.25c1.59.04 1.84.43 2.64 1.14.97.86 2.25 1.16 2.76.64-.37.83-1.52 1.27-2.26 1.14.37 1.14.5 2.13.62 3.33.06.55.18 1.47.32 2.21 2.12.18 4.26.47 6.11.83a4.7 4.7 0 0 0 2.28-1.5c.69-.8 1.31-1.79 1.05-4.3-.07-.7-.42-2.5-.37-3.36.1-1.93 1.54-3.18 3.78-4.2Z"/><path fill="#375e74" d="M675.7 146.44c.3.22.46.25.56.23 0 .05.1.12.13.14.06.06.1.1.11.17.13-.06.49-.2.81-.31.33-.13.78-.26.78-.26-1.4-.3-1.62.13-2.4.03Zm41.94 5.77a3.34 3.34 0 0 0 1.8-4.4 3.32 3.32 0 0 0-4.45-1.64 3.34 3.34 0 0 0-1.8 4.39 3.34 3.34 0 0 0 4.45 1.65Zm-2.08-4.75c1.38-.6 2.95-.33 3.35.58.4.93-.46 2.28-1.84 2.88s-2.97.33-3.37-.59c-.4-.91.47-2.26 1.86-2.87Zm-.36 9.3-.66-2.63.4-.11.19.74 5.56-1.42-.19-.73.41-.1 1.01 3.98.27-.07.13.52-1.54.4-.13-.52.7-.18-.5-2-2.29.58.4 1.54.65-.17.14.52-1.9.48-.14-.52.68-.17-.4-1.54-2.55.65.17.64-.4.1Zm-77.8-7.06-.25.8 3.6 1.07c1.08.32 1.64.9 1.78 1.83.07.47.03.97-.11 1.47-.47 1.54-1.62 2.3-2.93 1.9l-3.86-1.15-.22.73-.4-.12.8-2.68.4.12-.22.72 3.57 1.06c.96.29 1.45.25 1.86-.16.19-.21.33-.47.41-.74.35-1.15-.13-2.02-1.3-2.37l-3.55-1.06-.24.8-.41-.13.66-2.21.4.11Zm6.3 1.55a.68.68 0 0 1-.87.36.67.67 0 1 1 .88-.36Zm1.25-2.85-.27.48-1.56-.88.27-.48.64.37c.53-.22.8-.45 1.05-.88.3-.54.2-1.1-.25-1.36-.4-.22-.8-.13-1.79.39-.47.32-1 .55-1.55.68-.37.08-.78 0-1.17-.22-.95-.54-1.2-1.6-.6-2.66.2-.34.4-.58.72-.83l-.26-.15.27-.47 1.48.84-.26.47-.6-.34c-.44.23-.66.42-.84.74-.25.45-.13.98.28 1.21.35.2.68.12 1.68-.42l.9-.47c.26-.12.55-.2.87-.21.36-.02.69.07 1.03.25.99.56 1.28 1.68.7 2.7-.28.5-.59.8-1.05 1.07l.3.17Zm2.61-4.52a.65.65 0 1 1-.65-.65c.36 0 .65.3.65.66Zm15.42-12.82-4.22 2.17-.19-.37.68-.35-2.63-5.1-.68.34-.19-.37 3.65-1.88-.12-.25.47-.25.73 1.41-.47.24-.33-.63-1.84.95 1.07 2.09 1.42-.73-.31-.6.48-.26.9 1.75-.48.25-.32-.62-1.42.73 1.13 2.2 1.93-1-.34-.66.47-.24.61 1.18Zm4.06-1.47-2.74.91-.13-.4.72-.24-1.81-5.45-.72.24-.13-.4 2.87-.95c1.17-.4 2.17.07 2.53 1.16.34 1.03-.28 2.18-1.4 2.55-.15.05-.26.08-.52.11l-.16-.46c.14-.02.19-.03.27-.06.64-.21.85-.8.57-1.64-.3-.89-.8-1.24-1.48-1.01l-.57.19 1.77 5.32.8-.27.13.4Zm8.1-2.22-.41.07-3.53-5.85-.6.1-1.44 6.72-.61.1.07.42 2.03-.35-.07-.42-.78.14.36-1.7 2.39-.41.88 1.48-.69.12.07.41 2.4-.41-.07-.42Zm-4.85-1.41.57-2.63 1.36 2.3-1.93.33Zm11.74 1.42h-.42c-.2 0-.32-.1-.55-.44l-1.4-2.18c.93-.29 1.4-.86 1.4-1.76 0-.53-.16-.96-.49-1.3-.36-.35-.84-.48-1.7-.49h-2.93v.42h.75v5.75h-.77v.4l2.8.02v-.42h-.76l.01-2.52h.27l1.49 2.35c.34.53.44.6 1.02.6h1.27v-.43Zm-4.05-5.6h.62c.71 0 1.13.45 1.12 1.26 0 .78-.47 1.33-1.16 1.33h-.59l.01-2.6Zm8.55 6.82-3.16-.54.07-.4.95.15.93-5.5-1.7-.28-.14.81-.54-.09.28-1.67.54.09-.04.27 4.65.8.05-.28.54.09-.28 1.67-.54-.09.14-.81-1.7-.3-.92 5.5.94.16-.07.42Zm9.32 3.15-2.77-1.08.15-.39.79.31 1.55-4.02-3.78 3.7-.53-5.28-1.53 3.94.79.3-.16.39-2.14-.83.15-.4.78.3 2.08-5.35-.78-.3.14-.4 1.65.65.53 5.17 3.62-3.57 1.83.72-.15.39-.78-.3-2.07 5.35.78.3-.15.4Zm4.85 3.17-4-2.55.23-.36.63.41 3.1-4.84-.64-.4.22-.36 3.46 2.21.15-.24.45.3-.85 1.33-.44-.28.38-.6-1.74-1.13-1.27 1.99 1.35.86.36-.57.46.28-1.06 1.66-.46-.29.38-.59-1.34-.85-1.33 2.07 1.82 1.17.4-.62.45.28-.71 1.12Zm-45.5.28-.64.47-3.24-4.4.68-.51c.94-.69 2.49-.27 3.35.91.93 1.27.87 2.79-.14 3.53Zm1.29-4.36a3.27 3.27 0 0 0-4.64-.66l-2.5 1.84.24.34.61-.45 3.4 4.62c.15.07.31.13.47.18l1.66-1.22a3.1 3.1 0 0 0 1.35-2.07 3.4 3.4 0 0 0-.6-2.58Zm52.7 2.72-.29.3.59.53-2.82 3.1.71-5.58-1.46-1.34-.28.31.53.49-.11.59-3.53 3.86-.6-.55-.3.3 1.67 1.53.29-.31-.59-.54 2.94-3.22-.63 5.12c.6-.16 1.26-.33 1.96-.53l.17-.05 2.5-2.75.63.56.28-.3-1.67-1.53Zm6.7 7.25-.22.17-2.86-3.76.22-.17-.33-.44-1.35 1.03.33.44.66-.5 1.04 1.37-4.42 3.39-.23-.3c-.13.06-.25.13-.39.18l1.65 2.15.33-.25-.58-.76 4.43-3.4 1.04 1.38-.66.5.33.43 1.35-1.03-.34-.43Zm-29.13 68.48-.54.12-.38-1.75.53-.12.16.72c.51.25.87.3 1.35.2.6-.13.96-.58.85-1.09-.1-.44-.45-.7-1.48-1.08a4.74 4.74 0 0 1-1.54-.7 1.7 1.7 0 0 1-.61-1.02c-.24-1.07.4-1.96 1.59-2.22.38-.08.7-.09 1.1-.01l-.07-.3.53-.11.36 1.67-.52.11-.15-.67c-.35-.16-.73-.2-1.11-.14-.5.12-.82.57-.72 1.02.09.39.36.58 1.43.98l.95.35c.28.12.53.3.74.5.25.27.4.57.5.96.23 1.1-.4 2.06-1.55 2.31-.56.12-1 .1-1.5-.07l.08.34Zm10.13-3.19-4.42 1.74-.15-.4.7-.27-2.1-5.35-.7.28-.15-.39 3.82-1.5-.1-.26.5-.2.58 1.48-.5.2-.25-.68-1.94.76.87 2.2 1.48-.6-.25-.62.5-.2.72 1.82-.5.21-.26-.65-1.48.58.9 2.3 2.01-.8-.27-.68.5-.2.49 1.23Zm6.64-4.04c-.56.7-.95 1.07-1.6 1.46-1.8 1.09-3.81.66-4.84-1.04a3.38 3.38 0 0 1 1.21-4.75c.55-.34.98-.5 1.6-.58l-.21-.36.47-.28.92 1.53-.46.28-.34-.55c-.69-.04-1.02.03-1.47.3-1.18.72-1.41 2.21-.55 3.63.84 1.38 2.4 1.9 3.57 1.2.43-.27.68-.55.93-1.04l-.4-.65.48-.28.7 1.13Zm3-10.3-.62.57 2.53 2.77c.76.83.94 1.61.59 2.48-.2.46-.49.87-.86 1.2-1.2 1.1-2.56 1.14-3.49.13l-2.71-2.98-.56.5-.28-.3 2.05-1.88.29.3-.55.51 2.5 2.75c.68.74 1.12.96 1.68.82.27-.08.53-.22.74-.42.88-.8.92-1.8.1-2.7l-2.5-2.74-.61.56-.29-.32 1.7-1.56.3.31Zm11.2-5.82-1.33 2.46-.37-.2.36-.67-5.05-2.73-.37.66-.35-.2 1.32-2.45.37.2-.36.65 5.05 2.74.36-.66.36.2Zm2.54-5.97-1.13 3.01-.39-.15.34-.9-5.21-1.97-.62 1.61.78.3-.2.51-1.58-.6.2-.51.26.1 1.66-4.43-.26-.1.2-.5 1.58.59-.2.51-.77-.29-.6 1.6 5.21 1.97.34-.9.4.15Zm1.77-7.34-.54 2.75-.41-.08.14-.74-2.7-.53-3.31 1.37-.12.62-.41-.09.53-2.74.41.08-.14.73 2.41-.97-1.88-1.72-.16.83-.41-.08.44-2.28.4.08-.13.7 2.37 2.16 2.95.58.15-.74.4.07Zm-13.62 16.83.37-.5c.42-.58 1.04-.63 1.68-.15.63.47.79 1.17.38 1.72l-.35.48-2.08-1.55Zm6.9.08-.24.33c-.12.16-.26.2-.68.18l-2.59-.16c.33-.93.14-1.64-.58-2.18-.37-.3-.85-.43-1.33-.37-.5.07-.88.38-1.4 1.07l-1.75 2.36.33.25.46-.6 4.6 3.42-.44.6.33.25 1.67-2.24-.34-.25-.45.6-2.01-1.5.16-.21 2.77.2c.62.04.73 0 1.08-.48l.76-1.02-.34-.25Zm-78.98-10.73-.66-2.72.4-.1.19.73 2.54-.62-.77-3.15-2.55.62.18.73-.4.1-.66-2.72.4-.1.18.74 5.58-1.36-.18-.74.4-.1.66 2.71-.4.1-.18-.72-2.46.6.77 3.15 2.46-.6-.18-.73.41-.1.66 2.71-.4.1-.18-.73-5.58 1.36.18.74-.4.1Zm5.95 6.23a3.33 3.33 0 0 0 1.74-4.41 3.33 3.33 0 0 0-4.47-1.59 3.34 3.34 0 0 0-1.75 4.42 3.34 3.34 0 0 0 4.48 1.58Zm-2.15-4.72c1.37-.62 2.95-.37 3.37.54.41.92-.43 2.28-1.8 2.9-1.38.63-2.97.38-3.38-.54-.42-.9.43-2.27 1.81-2.9Zm4.68 14.2-1.73-2.4.33-.24.5.67 3.48-2.53-5.2 1.06 2.43-4.72-3.42 2.47.5.68-.34.25-1.36-1.87.34-.24.5.67 4.64-3.37-.49-.68.34-.24 1.03 1.42-2.36 4.64 4.98-1.04 1.16 1.6-.34.25-.5-.68-4.64 3.38.5.67-.35.25Zm5.19 5.1-3.5-3.22.3-.3.55.5 3.9-4.22-.56-.51.28-.3 3.02 2.78.18-.2.4.36-1.07 1.16-.39-.35.49-.53-1.53-1.4-1.6 1.72 1.18 1.08.46-.5.4.36-1.33 1.45-.4-.36.47-.52-1.17-1.08-1.67 1.81 1.6 1.47.5-.54.38.36-.89.98Zm5.93 4.07-3.9-2.63.24-.34.62.42 3.2-4.77-.62-.42.23-.35 2.32 1.56-.24.35-.61-.42-3.11 4.63 1.76 1.19.4-.62.45.3-.74 1.1Zm7.19 3.06-.38-.18.39-6.82-.56-.25-4.98 4.73-.56-.25-.17.38 1.88.85.17-.38-.73-.33 1.26-1.2 2.2 1-.1 1.73-.63-.29-.18.38 2.21 1 .18-.37Zm-3.21-3.9 1.95-1.86-.17 2.66-1.78-.8Zm10.1 6.25-.67-.16-2.24-5.56-1.01 4.24.76.18-.1.4-2.18-.51.1-.42.8.2 1.22-5.1-.2-.56-.7-.17.1-.4 1.93.45 2.07 5.23.98-4.06-.77-.19.1-.4 2.19.52-.1.4-.82-.19-1.46 6.1Zm6.23.5c.97.03 1.69-.21 2.34-.79.7-.63 1.1-1.47 1.14-2.4a3.28 3.28 0 0 0-3.24-3.39l-3.1-.12-.02.43.76.02-.2 5.74-.76-.03-.02.43 3.1.1Zm-.76-5.84.84.04c1.17.04 2.12 1.33 2.07 2.8-.06 1.56-1.05 2.71-2.3 2.67l-.81-.03.2-5.48Z"/><path fill="#f2f2f2" d="M678.48 180.32h-.31c-.16-1-.88-1.6-1.94-1.93-.8-.25-1.96-.63-4.44-1.38-2.88-.9-4.35-3.2-4.55-6.12-.27-4.11-.69-11.34-.84-15.95a55.9 55.9 0 0 1 12.08-1.42c4.04 0 8.84.63 12.09 1.42a553.6 553.6 0 0 1-.84 15.95c-.2 2.91-1.67 5.23-4.55 6.12-2.48.75-3.64 1.13-4.44 1.38-1.06.33-1.78.94-1.94 1.94h-.32Z"/><path fill="#375e74" d="m677.66 169.82-.59-.3-.38-.99-.86-.38-.97-.87-.58.64-.86.2-.46.73-.7.74-.93.5-.66 1.1-.37.5-.63.5-.35-.38-.38.36-.47.87a6.66 6.66 0 0 1-.48-2.2c-.13-1.94-.27-4.36-.41-6.85 3.47-.72 7-1.11 10.54-1.17v7.53c-.15-.09-.3-.16-.46-.53Zm.46 3.63h-9.48a5.43 5.43 0 0 0 3.37 2.87c1.17.36 2.35.72 3.52 1.1l.93.29c.62.17 1.2.5 1.66.95v-5.21m10.01-3.67c.26-.2.56-.45.95-.59l.18-2.81-.35.26c-.45.37-1.02.83-2.01.83-.93 0-1.54-.37-2.02-.67-.4-.25-.72-.44-1.18-.44-.51 0-.95.26-1.42.54-.5.3-1.07.65-1.77.65a3.3 3.3 0 0 1-1.66-.45v2.66l.28.17c.43.26.8.48 1.38.48.36 0 .72-.21 1.14-.47a3.9 3.9 0 0 1 2.05-.71c.81 0 1.34.32 1.82.62.43.26.8.48 1.38.48.55 0 .86-.24 1.23-.55Zm-7.62 6.07a3.3 3.3 0 0 1-1.66-.45v3.26c.37-.38.9-.72 1.66-.95l.93-.3 3.52-1.09c.49-.15.94-.35 1.34-.6-.5-.11-1-.32-1.42-.62-.4-.24-.72-.43-1.18-.43-.51 0-.95.26-1.42.54-.5.3-1.07.64-1.77.64Zm7.62-10.16c.31-.25.69-.55 1.2-.67l.06-1.03a56.6 56.6 0 0 0-10.54-1.17v2.84l.28.17c.43.26.8.5 1.38.5.36 0 .72-.23 1.14-.48.56-.34 1.2-.72 2.05-.72.81 0 1.34.33 1.82.62.43.26.8.49 1.38.49.55 0 .86-.25 1.23-.56Zm-9.28 5.5v2.78l.28.16c.43.27.8.5 1.38.5.36 0 .72-.22 1.14-.47.56-.34 1.2-.72 2.05-.72.81 0 1.34.32 1.82.61.43.27.8.5 1.38.5.45 0 .73-.17 1.03-.4.6-.9.96-2.01 1.05-3.31v-.16l-.07.06c-.45.36-1.02.82-2.01.82a3.6 3.6 0 0 1-2.02-.66c-.4-.25-.72-.44-1.18-.44-.51 0-.95.26-1.42.54-.5.3-1.07.64-1.77.64a3.2 3.2 0 0 1-1.66-.45Z"/><path fill="#375e74" d="M667.54 163.27c-.15-2.78-.29-5.57-.37-7.77a55.8 55.8 0 0 1 11.32-1.27c3.5 0 7.95.5 11.3 1.27-.07 2.2-.2 5-.36 7.77a56.96 56.96 0 0 0-10.95-1.17c-3.59 0-7.77.5-10.94 1.17Z"/><path fill="#f2f2f2" d="m669.75 157.33.12-.6-.55-.25.6-.06.06-.6.25.55.59-.12-.45.4.3.54-.52-.31-.4.45Zm3.68-.49-.5-.33-.43.44.15-.6-.54-.27.6-.04.1-.6.21.57.6-.1-.47.4.28.53Zm2.77-.21-.49-.36-.45.42.19-.59-.53-.3h.6l.13-.6.19.58.6-.07-.49.36.25.56Zm2.77-.06-.47-.38-.47.38.22-.57-.51-.34.6.04.16-.6.15.6.6-.04-.5.34.22.57Zm7.88.31-.53.31.3-.53-.44-.4.59.12.25-.56.06.6.6.07-.55.25.12.6-.4-.46Zm-3.01-.58-.47-.39.6.1.22-.57.09.6.6.04-.54.28.16.59-.43-.44-.51.34.28-.55Zm-2.8-.23-.48-.36.6.07.2-.58.12.6h.6l-.53.3.18.59-.44-.42-.5.36.25-.56Zm-10.9 5.75.13-.6-.54-.25.6-.06.06-.6.25.55.59-.12-.45.4.3.54-.53-.32-.4.46Zm3.6-.46-.51-.33-.43.43.16-.59-.54-.28.6-.03.1-.6.22.57.6-.1-.48.39.28.54Zm2.66-.19-.5-.36-.44.41.18-.58-.52-.3h.6l.13-.6.18.57.6-.06-.48.36.25.56Zm2.66-.05-.47-.38-.47.38.22-.57-.5-.34.6.04.15-.6.15.6.6-.04-.5.34.22.57Zm7.57.28-.52.3.3-.52-.45-.41.59.12.24-.55.07.6.6.06-.55.25.13.6-.41-.45Zm-2.9-.56-.48-.39.6.1.22-.57.09.6.6.03-.54.28.16.6-.43-.44-.5.33.27-.54Zm-2.7-.22-.48-.36.6.07.19-.58.12.6h.6l-.52.3.18.59-.45-.42-.49.36.25-.56Zm-9.56-1.45.14-.6-.54-.26.6-.05.08-.6.23.56.59-.1-.46.4.29.53-.51-.32-.42.44Zm-2.65.42.12-.6-.55-.25.6-.06.05-.61.26.55.59-.12-.45.4.3.54-.52-.3-.4.45Zm6.23-.8-.5-.34-.44.42.17-.59-.53-.29.6-.01.11-.6.2.57.6-.08-.47.38.26.55Zm2.65-.12-.48-.37-.46.4.2-.58-.52-.32.6.01.14-.59.18.58.6-.04-.5.35.24.56Zm2.65.04-.46-.4-.47.36.23-.56-.5-.35.6.05.18-.59.14.6.6-.01-.51.31.2.59Zm7.55.44-.53.3.31-.52-.44-.42.59.14.26-.56.04.6.6.09-.55.23.11.6-.4-.46Zm-2.9-.62-.46-.4.6.11.23-.56.08.6.6.05-.54.26.14.6-.42-.45-.51.33.28-.54Zm-2.67-.27-.48-.38.6.08.2-.57.11.6.6.02-.53.29.17.58-.44-.42-.5.35.27-.55Zm-30.79 14c.9-1.27 2.57-1.54 1.82-4.95-1.9.84-2.8 3.2-1.82 4.95Zm-.12-8.51a3.91 3.91 0 0 0-1.86 2.21c.64.74.91 1.65.88 2.47 1.17-1.06 1.57-2.9.98-4.68Zm1.13 11.78c.08 0 .06 0-.03-.03-.9-.5-1.52-.67-2.75-.5 1.15.08 1.96.24 2.78.53Zm3.74 4.13-.03.08c-.04 1.38.84 2.91-.73 5.09-.08.26-.18.82.63-.14 1.6-1.9.24-3.45.13-5.03Zm-3.2 2.16c.14-.86.7-1.88 1.54-2.57.59-.49.92-.66.43-.15-.74.77-1.6 2.03-1.96 2.72Zm1.83 2.34c-.31-.81-.04-2.1.31-2.95.24-.59.84-1.48 1.03-1.56a12.3 12.3 0 0 0-1.34 4.5Zm-2.67-11.25a.55.55 0 0 0-.09-.2.56.56 0 0 0-1.02.19c-.05.22.05.45.24.58a.57.57 0 0 0 .87-.35.56.56 0 0 0 0-.22Zm4.9.77c.02-.85-.1-1.72-.01-2.7-1.68 1.23-2.25 3.38-1.55 4.88a.58.58 0 0 0-.59.25c-.09.13-.12.29-.09.44a.59.59 0 0 0 1.15-.23.6.6 0 0 0-.26-.38c-.28-1.33-.05-2.99.65-3.69a10.9 10.9 0 0 0-.36 4.18c.28-.31.48-.61.63-.91.04.25.1.51.2.79a4 4 0 0 1 1.8-3.43 7.8 7.8 0 0 0-1.65 3.76c.7-.9 2.3-1.16 2.42-4.68-.8.25-1.78.84-2.34 1.72Zm1.1 3.61a.6.6 0 0 0-1.1-.22.61.61 0 1 0 1.11.22Zm-.2 1.85a.61.61 0 0 0-1.11-.22.61.61 0 1 0 1.11.22Z"/><path fill="#f2f2f2" d="M654.51 170.12a3.84 3.84 0 0 0-1.45 3.48h-.15a.47.47 0 0 0-.3.2c-.07.1-.1.24-.07.37a.47.47 0 0 0 .71.3c.11.32.27.62.46.9-.12-.4-.2-.82-.24-1.24v-.15l-.01-.03c-.07-.97.08-1.98.62-2.7-.17 1.06-.42 3.1-.18 4.38.37-1.36 2.32-1.95.61-5.5Zm4.96 8a.48.48 0 0 0-.56-.37.48.48 0 0 0-.3.2c-.07.1-.1.23-.07.35.06.26.3.43.56.38.12-.03.23-.1.3-.2.07-.11.1-.24.07-.36Zm-2.62-.1a.44.44 0 0 0-.6-.3.44.44 0 0 0-.27.4c0 .08.03.17.07.24a.44.44 0 0 0 .8-.33Zm-5.99-6.02a.4.4 0 0 0-.39-.33 4.14 4.14 0 0 0-2.97-1.87c.8.38 2.02 1.13 2.86 1.88a.4.4 0 0 0-.3.46.41.41 0 0 0 .74.16.4.4 0 0 0 .06-.3Zm.02-2.79a.51.51 0 0 0-.64-.38c-.33-1.32-.65-2.33-2.13-3.35.73.95 1.6 2.34 2.07 3.36a.51.51 0 1 0 .7.37Zm1.5 5.13a.4.4 0 0 0-.6-.27.4.4 0 0 0-.12.1c-1.3-1.16-2.21-1.16-2.9-1.2.41.16 1.91.59 2.87 1.26a.4.4 0 0 0 .68.42.3.3 0 0 0 .07-.15.43.43 0 0 0 0-.16Zm1.1 1.65a.58.58 0 0 0-1.06-.2c-.08.12-.1.27-.08.43a.58.58 0 0 0 .69.45.58.58 0 0 0 .46-.68Zm.86 1a.41.41 0 0 0-.17-.26.4.4 0 0 0-.3-.07.39.39 0 0 0-.3.23 5.62 5.62 0 0 0-3.43.6 16.5 16.5 0 0 1 3.4-.53.49.49 0 0 0 0 .17.42.42 0 0 0 .61.27.4.4 0 0 0 .18-.41Zm1.17.69a.52.52 0 0 0-.23-.34.52.52 0 0 0-.8.54h-.04c-.85-.04-2.26.19-3.12 1.21.89-.52 2.3-1.06 3.14-1.17h.03c.07.26.33.43.6.38a.53.53 0 0 0 .42-.63Zm7.4 2.65a10.66 10.66 0 0 1 4.13 6.36c-.3-.22-.87-.45-1.22-.38-.33-2.1-1.47-4-3.18-5.28.07-.32.17-.55.27-.7Zm-1.84 1.88c.57.23.86.15 1-.06.31-.43.16-1-.03-1.1.05.17.04.36 0 .57-.03.17-.12.44-.44.4a1.8 1.8 0 0 1-.66-.22c-.13-.09-.13-.32-.06-.51.04-.1.08-.23.2-.33-.2.05-.32.15-.47.27s-.38.14-.5 0a1.96 1.96 0 0 1-.33-.43c-.13-.31.27-.55.5-.67-.4 0-.47.16-.79.1-.33-.05-.41-.57-.41-.74 0-.13.16-.25.34-.3.18-.04.4-.02.52-.01l-.03-.29c-.32-.07-.96.04-1.08.22-.15.23-.11.35.01.76.12.4.21.53.47.57.07 0 .2.03.36-.03a.37.37 0 0 0-.18.2c-.04.1-.11.28.2.65.27.33.53.45.75.33.13-.07.18-.15.24-.2l-.1.27c-.05.31.19.44.5.56Z"/><path fill="#f2f2f2" d="M660.65 179.71c.16-.2.56-.23.79-.09a1.5 1.5 0 0 0-.09 1c-.56-.08-.67-.63-.7-.91Zm.9-.03c.32-.03.45-.2.5-.36.07-.16.25-.25.25-.01s0 .35-.13.42a.67.67 0 0 1-.63-.05Zm.16.53c-.03.18-.1.35-.2.5-.1.13-.21.2-.3.28.15.12.37.19.55.18s.19-.04.18-.1c-.04-.3-.11-.59-.23-.86Zm33.57-.8c.15.3.17.78.08 1 .57-.08.67-.62.7-.9-.16-.21-.56-.23-.78-.1Zm-.1.06c-.34-.02-.46-.19-.52-.35s-.24-.26-.24-.01c0 .24 0 .35.13.41.14.07.38.1.63-.05Zm.03 1.04a1.3 1.3 0 0 1-.2-.51c-.08.12-.2.55-.24.85 0 .08 0 .1.18.11.2 0 .4-.05.56-.17-.1-.08-.21-.15-.3-.28Z"/><path fill="#f2f2f2" d="m705.11 171.47.58.16-8.67 6.84-.2.16-.03.01c0 .1 0 .2-.02.29.12-.01.29-.01.43.03.2.05.34.17.34.3 0 .17-.1.7-.43.74-.32.04-.39-.1-.79-.12.22.12.62.36.47.67-.05.12-.15.25-.32.43-.13.13-.36.1-.5-.02-.16-.12-.27-.23-.47-.28.12.1.16.24.19.33.07.2.06.43-.07.51-.19.12-.5.2-.67.21-.31.03-.4-.25-.42-.42a1.3 1.3 0 0 1 .01-.57c-.2.1-.36.66-.07 1.1.14.21.42.3 1 .1.31-.11.56-.23.5-.55-.01-.1-.05-.2-.08-.28.06.06.1.14.22.21.23.13.5.01.77-.3.32-.37.26-.55.22-.65a.36.36 0 0 0-.17-.2c.15.06.28.05.35.03.26-.02.36-.16.49-.55.13-.4.17-.52.03-.76-.06-.1-.27-.18-.5-.22l8.6-6.79.01.6 1.55-2.05-2.35 1.03Zm-4.62 2.1 6.1-7.73.17.57 1.02-2.35-2.04 1.55.6.03-5.53 7-1.32 2.01v.01c.34-.36.67-.72 1-1.1Z"/><path fill="#f2f2f2" d="m699.77 175.87 1.57-1.25 5.08-4.7.07.6 1.37-2.18-2.25 1.22.59.12-5.1 4.73-1.33 1.46Zm5.64-1.11-7.16 3.59-.29.23c.05.04.1.08.13.13l.03.06 7.44-3.72-.1.6 1.93-1.7-2.51.54.53.27Zm-10.81 7.59a.78.78 0 0 1-.29-.16l-1.28 2.65-.46.16-1.52 2.91.74-.22.26.72 1.44-2.95-.17-.47 1.28-2.64Z"/><path fill="#f2f2f2" d="m699.58 177.3 1.64-.83 4.76-3.1-.03.6 1.71-1.9-2.42.81.56.21-5.18 3.39-1.04.82Zm-5.57 4.34a1.3 1.3 0 0 1-.04-.44l-1.7 1.86-.5.04-.04.04-2.37 2.37h.12-.01.03l.58-.03.1.57 1.96-2.58.38-.08 1.5-1.75Zm3.14-3.7.86-.69 8.36-9.14.11.59 1.2-2.27-2.15 1.4.6.06-8.75 9.58-.23.47Zm-7.48 6.25 3.11-2.2.89-.96-3.9 2.57h.01l-.49-.1-.28.18-2.5 1.56.7.14.1.53 2-1.74.36.02Zm-2.58.28 1.25-.77 1.16-.8.4.08s2.83-1.75 3.52-2.2l.06-.04.02-.01-3.72 1.85-.47-.14-2.96 1.4.66.25.08.38Zm14.04-17.2.58-.1-5.34 10.84.1.06a.8.8 0 0 1 .17.14l5.37-10.9.27.54.52-2.51-1.67 1.93Zm.64 1.83.6-.03-3.36 5.1-1.12 2.26.05-.06 4.7-7.12.2.56.83-2.43-1.9 1.72ZM39.6 285.14h-.69c-3.6 0-6.12.23-7.53.68-1.42.46-2.13 1.24-2.13 2.35 0 .8.36 1.39 1.08 1.78.73.4 1.81.6 3.26.6 1.94 0 3.43-.43 4.46-1.28 1.03-.84 1.55-2.06 1.55-3.66v-.47Zm.22 6.4a8.77 8.77 0 0 1-4.14 2.75c-1.82.64-3.98.96-6.48.96-2.88 0-5.1-.57-6.68-1.7a5.6 5.6 0 0 1-2.36-4.82c0-1.3.3-2.46.9-3.5a6.97 6.97 0 0 1 2.64-2.52c.92-.54 2.2-.93 3.85-1.16 1.64-.23 4.24-.35 7.8-.35h4.25c0-.1 0-.21.02-.32l.03-.27c0-1.16-.37-2.04-1.1-2.64-.74-.61-1.8-.91-3.2-.91-1.58 0-2.76.2-3.53.6a2.51 2.51 0 0 0-1.38 1.93h-8.8a6.33 6.33 0 0 1 3.8-5.15c2.25-1.11 5.6-1.67 10.06-1.67 4.29 0 7.45.67 9.48 2 2.02 1.32 3.04 3.38 3.04 6.18v10.95c0 .6.03 1.14.1 1.59s.18.87.34 1.27h-8.09a5.2 5.2 0 0 1-.41-1.3c-.1-.5-.14-1.01-.14-1.52v-.4Zm-21.16-26.82c0 3.38-2.9 6.11-6.48 6.11s-6.48-2.73-6.48-6.1c0-3.38 2.9-6.12 6.48-6.12s6.48 2.74 6.48 6.11Zm81.92 26.19c1.88 0 3.37-.58 4.5-1.73a6.38 6.38 0 0 0 1.68-4.64c0-2.2-.56-3.89-1.66-5.1-1.11-1.2-2.66-1.8-4.65-1.8-1.95 0-3.48.57-4.58 1.73s-1.64 2.77-1.64 4.85c0 2.19.54 3.85 1.62 4.99 1.09 1.13 2.66 1.7 4.73 1.7ZM85.6 302.78v-24.72a44.23 44.23 0 0 0-.36-4.85h8.8c.18 1.1.27 2.21.27 3.33v.66a12 12 0 0 1 4.34-3.39 13.16 13.16 0 0 1 5.57-1.16c3.6 0 6.42 1 8.44 3.02s3.04 4.82 3.04 8.42c0 3.42-1.05 6.12-3.14 8.12-2.09 1.99-4.92 2.99-8.52 2.99-1.94 0-3.72-.3-5.33-.9-1.62-.6-3.09-1.5-4.4-2.7v11.18H85.6Zm-18.38-11.81c1.87 0 3.37-.58 4.5-1.73a6.39 6.39 0 0 0 1.67-4.64c0-2.2-.55-3.9-1.66-5.1-1.1-1.2-2.65-1.8-4.65-1.8-1.94 0-3.47.57-4.57 1.73s-1.65 2.77-1.65 4.85c0 2.19.54 3.85 1.63 4.99 1.08 1.13 2.66 1.7 4.73 1.7Zm-14.99 11.87v-24.73c0-1.62-.11-3.24-.35-4.84h8.8c.17 1.1.26 2.21.27 3.33v.66a12 12 0 0 1 4.34-3.39 13.19 13.19 0 0 1 5.57-1.16c3.6 0 6.41 1 8.44 3.02 2.02 2.02 3.03 4.82 3.03 8.42 0 3.42-1.04 6.12-3.13 8.12-2.09 1.99-4.93 2.99-8.52 2.99-1.94 0-3.72-.3-5.34-.9s-3.08-1.5-4.39-2.7v11.18h-8.72ZM15.9 273.36H7.2v21.42h8.71v-21.42Zm318.36 24.02v-33.2H333v33.2h1.25Zm109.71.11v-33.21h-1.26v33.21h1.26Zm-73.61-24.01h-2.85V281h2.85c1.26.05 2.5-.3 3.49-.95.5-.35.9-.79 1.15-1.28.24-.5.34-1.04.27-1.58.08-.52 0-1.05-.25-1.53s-.66-.9-1.17-1.22c-.98-.65-2.23-1-3.5-.95Zm-23.94 10.26h8.02l-4-7.5-4.02 7.5Z"/><path fill="#f2f2f2" d="M333.35 265.23v31.52h110.62v-31.52H333.35Zm25.62 26.13-3.1-5.08h-11l-2.85 5.08h-3.62l12.03-21.37 12.16 21.37h-3.62Zm18.11-10.9a7.16 7.16 0 0 1-2.84 2.01 9.1 9.1 0 0 1-3.88.74h-2.85v8.15h-3.37v-20.2h6.22c1.33-.04 2.65.2 3.88.73a6.56 6.56 0 0 1 2.84 2.12c.7.96 1.06 2.06 1.04 3.17 0 1.17-.36 2.32-1.04 3.28Zm17.73-2.75-6.73 14.07-10.35-20.73h3.88l6.6 13.85 6.47-13.85 7.5 13.75 6.73-13.75h3.23l-10.22 20.73-7.11-14.07Zm41.14 7.4c-.54 1.3-1.33 2.5-2.33 3.5a12.8 12.8 0 0 1-3.88 2.32 14.3 14.3 0 0 1-5.05.85 15.5 15.5 0 0 1-5.04-.74 12 12 0 0 1-4.14-2.22 9.3 9.3 0 0 1-3.62-7.62 9.31 9.31 0 0 1 3.62-7.61 12 12 0 0 1 4.14-2.22 15.5 15.5 0 0 1 5.04-.74c1.45-.05 2.9.13 4.27.52 1.26.29 2.44.75 3.5 1.38 1.03.7 1.95 1.53 2.71 2.43l-2.2 1.7a7.67 7.67 0 0 0-3.36-2.65 12.65 12.65 0 0 0-9.83.1 9 9 0 0 0-3.5 3.04 6.88 6.88 0 0 0-1.16 4.05 7 7 0 0 0 1.3 4.23 8.93 8.93 0 0 0 3.36 2.86c1.52.63 3.2.96 4.91.95a11.7 11.7 0 0 0 3.37-.42c.93-.32 1.8-.75 2.58-1.27a6.46 6.46 0 0 0 1.69-1.9c.53-.68.88-1.44 1.03-2.23h-8.28v-2.32h11.65c0 1.36-.26 2.72-.78 4.02Z"/><path fill="#f2f2f2" d="M445.52 265.13v-1.06H330.51v1.06h2.33v31.73h-2.33v.95h115.01v-.95h-1.16v-31.73h1.16Zm-2.33 31.73H334.13v-31.73h109.06v31.73Zm222.87-15.36a2.23 2.23 0 0 1 0-3.13 2.2 2.2 0 0 1 3.12 0c.57.58.8 1.43.56 2.2-.02.06 0 .1.03.14l1.08 1.09c.05.05.13.05.18 0l.04-.04a3.93 3.93 0 0 0-4.6-5.59 3.93 3.93 0 0 0-.68 7.2c1.14.62 2.52.62 3.66.01.07-.02.08-.11.05-.18l-.03-.03-1.1-1.09c-.03-.03-.09-.05-.13-.03-.76.25-1.6.03-2.18-.54Zm.02 5.26a2.2 2.2 0 0 1 3.12 0c.86.87.86 2.27 0 3.14a2.2 2.2 0 0 1-2.2.56.13.13 0 0 0-.13.03l-1.08 1.08a.15.15 0 0 0 0 .2c.01.03.01.03.03.03a3.9 3.9 0 0 0 5.28-1.63 3.93 3.93 0 0 0-4.6-5.59 3.9 3.9 0 0 0-2.3 5.59c.04.07.12.08.19.05l.03-.04 1.08-1.08c.03-.03.05-.08.03-.14a2.18 2.18 0 0 1 .55-2.2Z"/><path fill="#f2f2f2" d="M676.03 290.54a2.21 2.21 0 0 1-.02-4.42c.81 0 1.57.44 1.94 1.17.02.05.07.06.12.06h1.54c.08 0 .13-.06.13-.13v-.03a3.89 3.89 0 0 0-4.88-2.6 3.92 3.92 0 1 0 4.88 4.9.14.14 0 0 0-.1-.17h-1.57c-.05 0-.1.04-.12.07a2.16 2.16 0 0 1-1.92 1.15Zm-2.21-10.59a2.2 2.2 0 0 1 2.2-2.22 2.2 2.2 0 0 1 1.04 4.15c-.05.02-.07.07-.07.12v1.54c0 .07.07.14.13.14h.04a3.92 3.92 0 1 0-2.3 0c.07.01.16-.02.17-.1V282c0-.05-.03-.1-.06-.12a2.2 2.2 0 0 1-1.15-1.93Zm-4-8.39a2.21 2.21 0 1 1-3.26-1.95c.06-.02.07-.07.07-.12v-1.54a.13.13 0 0 0-.13-.14h-.04a3.92 3.92 0 1 0 2.3 0 .14.14 0 0 0-.17.1v1.58c0 .05.03.1.07.12a2.2 2.2 0 0 1 1.16 1.95Zm16.16 15.2c.86.87.86 2.27 0 3.14a2.2 2.2 0 0 1-3.12 0 2.22 2.22 0 0 1-.56-2.2c.02-.06 0-.1-.03-.14l-1.08-1.1c-.05-.05-.13-.05-.2 0-.02.01-.02.01-.02.03a3.93 3.93 0 0 0 4.6 5.59 3.93 3.93 0 0 0 .68-7.2 3.9 3.9 0 0 0-3.66-.01c-.07.03-.08.11-.05.18 0 .02.02.02.04.03l1.07 1.09c.04.03.09.05.14.03a2.23 2.23 0 0 1 2.2.56Z"/><path fill="#f2f2f2" d="M685.98 281.5a2.2 2.2 0 0 1-3.12 0 2.23 2.23 0 0 1 0-3.13 2.2 2.2 0 0 1 2.2-.56c.05.02.1 0 .13-.03l1.08-1.09a.16.16 0 0 0 0-.2l-.03-.02a3.9 3.9 0 0 0-5.28 1.63 3.9 3.9 0 1 0 6.89 0c-.03-.07-.11-.1-.18-.05-.02 0-.02.02-.03.02l-1.08 1.08a.13.13 0 0 0-.04.14c.24.8.04 1.64-.54 2.22Zm-1.52-7.72a2.22 2.22 0 1 1-.01-4.43c.8 0 1.55.44 1.94 1.17.01.05.07.07.12.07h1.53c.09 0 .14-.07.14-.13v-.04a3.89 3.89 0 0 0-4.88-2.6 3.91 3.91 0 1 0 4.88 4.9c.01-.06-.02-.15-.1-.16h-1.56c-.05 0-.1.03-.12.06a2.3 2.3 0 0 1-1.94 1.16Z"/><path fill="#f2f2f2" d="M674.48 270a2.2 2.2 0 0 1 3.12 0 2.22 2.22 0 0 1-2.2 3.69.13.13 0 0 0-.13.04l-1.08 1.08a.13.13 0 0 0 0 .19l.03.03a3.9 3.9 0 0 0 5.28-1.63 3.93 3.93 0 0 0-4.6-5.58 3.9 3.9 0 0 0-2.3 5.58c.04.07.12.09.19.06.02 0 .02-.02.03-.02l1.08-1.09a.13.13 0 0 0 .04-.13 2.2 2.2 0 0 1 .54-2.22Zm21.92 2.25c0-.24.2-.42.43-.44h2.14c.24.02.42.2.44.44v15.33c0 .23-.2.44-.44.44h-2.14a.47.47 0 0 1-.44-.44v-15.33Zm6.6 13.51.83-1.44a.53.53 0 0 1 .73-.19l.05.04c.12.07 1.99 1.44 3.47 1.44 1.2 0 2.1-.78 2.1-1.78 0-1.19-1-2-2.94-2.78-2.14-.88-4.32-2.27-4.32-5 0-2.07 1.52-4.44 5.18-4.44 1.65.03 3.27.57 4.6 1.56.24.18.31.5.14.76l-.88 1.32c-.18.27-.52.46-.8.27-.2-.12-1.95-1.27-3.21-1.27-1.32 0-2.03.88-2.03 1.63 0 1.08.87 1.83 2.74 2.6 2.23.9 4.82 2.23 4.82 5.23 0 2.4-2.06 4.6-5.3 4.6-2.9 0-4.6-1.38-5.07-1.82-.19-.25-.3-.36-.1-.73Zm11.56 1.66 7.17-15.57a.43.43 0 0 1 .39-.26h.24c.16-.02.32.09.38.26l7.1 15.57c.1.2.04.46-.16.56a.52.52 0 0 1-.22.05h-2a.67.67 0 0 1-.68-.45l-1.13-2.5h-6.89l-1.13 2.5a.67.67 0 0 1-.67.45h-2.01a.41.41 0 0 1-.44-.37c0-.08.02-.17.05-.24Zm9.97-4.93-2.3-5.1h-.08l-2.26 5.1h4.64Zm14.55-10.89a7.84 7.84 0 0 1 5.58 2.14c.19.16.22.43.07.61l-.04.05-1.4 1.46a.39.39 0 0 1-.52.07c-.02-.02-.05-.03-.07-.07a5.48 5.48 0 0 0-3.54-1.37 5.25 5.25 0 0 0-5.15 5.39 5.23 5.23 0 0 0 8.7 4.03c.16-.15.4-.15.57 0l1.43 1.5c.17.18.15.45-.02.62a7.87 7.87 0 0 1-5.6 2.24 8.3 8.3 0 0 1-8.43-8.19 8.3 8.3 0 0 1 8.15-8.47c.08-.02.16-.02.27-.02Zm6.86 15.82 7.17-15.57a.43.43 0 0 1 .39-.26h.24c.16-.02.32.09.38.26l7.1 15.57c.1.2.04.44-.16.56a.54.54 0 0 1-.24.05h-2a.64.64 0 0 1-.66-.45l-1.13-2.5h-6.9l-1.13 2.5a.67.67 0 0 1-.68.45h-2a.41.41 0 0 1-.45-.37l.07-.24Zm9.96-4.93-2.31-5.1h-.07l-2.26 5.1h4.64Zm7.67 2.97a1.36 1.36 0 1 1 .01 2.74 1.36 1.36 0 0 1-.01-2.74Zm0 2.5a1.14 1.14 0 1 0 0-2.28 1.14 1.14 0 0 0 0 2.28Zm-.47-1.76c0-.03.03-.06.07-.06h.54c.23-.02.44.15.47.38v.04a.4.4 0 0 1-.3.42l.23.44c.02.04 0 .09-.03.1h-.17c-.03 0-.05-.03-.07-.05l-.22-.47h-.28v.46c0 .03-.04.06-.07.06h-.1a.07.07 0 0 1-.07-.06v-1.26Zm.6.58c.13 0 .23-.09.23-.2v-.02c0-.12-.09-.22-.2-.22h-.41v.44h.39Zm231.16-.4c2.94 0 5.32-2.8 5.32-6.25 0-3.44-2.38-6.24-5.32-6.24s-5.33 2.8-5.33 6.24c0 3.45 2.39 6.25 5.33 6.25Z"/><path fill="#f2f2f2" d="m988.27 285.48-.51 2.98a8.46 8.46 0 0 0 3.13 2.7c1.21.6 2.53.84 3.84.71 6.09-.44 12.55-8.47 13.57-25.41 0 0-3.3 17.39-9.9 21.4-6.58 4.01-10.13-2.38-10.13-2.38Zm22.56-12.63h-1.14v-6.54h1.14v6.54Zm4.56-6.39c.42.16.77.47 1.02.89l.38 1.04c0 .3.13.74.13 1.04.04.79-.14 1.57-.51 2.23a2.3 2.3 0 0 1-.75.88c-.31.2-.67.31-1.03.3h-2.4v-6.53h3.16v.15Zm-2.02 1.04v4.16h1.01c.24 0 .48-.1.68-.25.2-.16.36-.38.46-.64a3 3 0 0 0 .25-1.2c.03-.57-.1-1.14-.38-1.63-.12-.3-.5-.44-1.01-.44h-1.01Zm8.74 0h-2.79v1.33h2.67v1.2h-2.67v1.63h2.92v1.19h-4.06v-6.54h3.93v1.19Zm1.4-1.2h1.27l2.15 4.62v-4.61h1.01v6.54h-1.14l-2.15-4.6v4.6h-1.14v-6.54Zm9.89 0v1.2h-1.65v5.35h-1.14v-5.35h-1.65v-1.2h4.44Zm2.15 6.55h-1.14v-6.54h1.14v6.54Zm5.33-6.55v1.2h-1.53v5.35h-1.26v-5.35h-1.53v-1.2h4.32Zm4.18 0h1.39l-1.9 4.02v2.53h-1.14v-2.53l-1.9-4.01h1.39l1.14 2.82 1.02-2.82Zm-31.69 8.93h1.64v6.54H1014v-5.5l-1.01 5.5h-1.15l-1.01-5.5v5.5h-1.14v-6.54h1.65l1.01 5.05 1.02-5.05Zm4.69 0h1.26l1.91 6.54h-1.27l-.26-1.34h-2.02l-.38 1.34h-1.27l2.03-6.54Zm-.13 4.01h1.39l-.63-2.53-.76 2.53Zm4.44-4.01h1.14l2.15 4.6v-4.6h1.14v6.54h-1.14l-2.28-4.61v4.6h-1.01v-6.53Zm7.35 0h1.39l1.91 6.54h-1.27l-.38-1.34h-2.03l-.38 1.34h-1.14l1.9-6.54Zm0 4.01h1.39l-.76-2.53-.63 2.53Zm7.99-1.94c0-.2-.06-.4-.18-.57a.76.76 0 0 0-.46-.31h-.63a1 1 0 0 0-.58.13c-.17.11-.33.27-.44.46a2.88 2.88 0 0 0-.38 1.78 2.7 2.7 0 0 0 .38 1.64c.29.28.65.44 1.02.44l1.01-.3c.23-.27.37-.64.38-1.03h-1.27v-1.2h2.29v3.58h-.76v-1.05l-.64.75-1.14.3a2 2 0 0 1-.97-.22c-.32-.16-.59-.4-.8-.68a3.9 3.9 0 0 1-.76-2.52c-.05-.86.22-1.7.76-2.38.22-.34.51-.61.84-.8a2 2 0 0 1 1.06-.24c.65 0 1.27.26 1.77.74.43.37.67.92.64 1.49h-1.14Zm6.71-.88h-2.91v1.33h2.66v1.2h-2.66v1.63h3.04v1.19h-4.18v-6.54h4.05v1.19Zm5.08-1.19h1.64v6.54H1050v-5.5l-1.01 5.5h-1.14l-1.02-5.5v5.5h-1.01v-6.54h1.65l1.01 5.05 1.02-5.05Zm7.09 1.19h-2.91v1.33h2.66v1.2h-2.66v1.63h3.04v1.19h-4.18v-6.54h4.05v1.19Zm1.4-1.19h1.14l2.28 4.6v-4.6h1.02v6.54h-1.15l-2.28-4.61v4.6h-1.01v-6.53Zm9.89 0v1.19h-1.65v5.35h-1.14v-5.35h-1.65v-1.2h4.44Zm-57.05 15.46h-1.14v-6.55h1.14v6.55Zm1.4-6.55h1.14l2.28 4.61v-4.6h1.01v6.54h-1.14l-2.28-4.61v4.6h-1.01v-6.54Zm6.71 4.46c.01.28.1.54.26.75.12.3.5.3.88.3h.77a.69.69 0 0 0 .29-.3c.07-.14.1-.3.09-.45 0-.3 0-.44-.13-.6l-.76-.29h-.64l-1.26-.45a2.2 2.2 0 0 1 0-2.82 1.94 1.94 0 0 1 1.64-.6c.85 0 1.63.48 2 1.25a2 2 0 0 1 .16.84h-1.14a.84.84 0 0 0-.09-.45.7.7 0 0 0-.29-.3h-1.4c-.25.15-.38.3-.38.6s.13.44.26.44c.1.11.22.2.35.24.13.06.27.07.41.06l1.01.3.89.44c.36.35.54.84.51 1.34a2.2 2.2 0 0 1-.51 1.49 2.9 2.9 0 0 1-1.65.6c-.63 0-1.24-.2-1.77-.6a2 2 0 0 1-.48-.74 2.5 2.5 0 0 1-.16-.9l1.14-.14Zm8.62-4.46v1.2h-1.64v5.35h-1.14v-5.36h-1.65v-1.19h4.43Zm2.03 6.55h-1.14v-6.55h1.14v6.55Zm5.45-6.55v1.2h-1.64v5.35h-1.15v-5.36h-1.64v-1.19h4.43Zm1.02 0h1.27v4.02c0 .44 0 .74.12.89.13.15.38.6.89.6.18.02.36-.03.52-.14a1 1 0 0 0 .37-.46c.12-.15.12-.45.12-.9v-4h1.14v4a5 5 0 0 1-.25 1.64c-.22.34-.51.61-.84.8-.33.18-.7.26-1.06.24-.37.05-.74-.02-1.07-.2-.35-.2-.64-.49-.83-.84a2.96 2.96 0 0 1-.38-1.63v-4.02Zm9.89 0v1.2h-1.65v5.35h-1.14v-5.36h-1.65v-1.19h4.44Zm5.07 1.19h-2.92v1.34h2.66v1.2h-2.66v1.63h3.04v1.19h-4.05v-6.55h3.93v1.2Zm-40.03 7.4.21.05a.63.63 0 0 1-.65.53.75.75 0 0 1-.42-.1.67.67 0 0 1-.25-.3 1.19 1.19 0 0 1 .01-.87.72.72 0 0 1 .66-.38c.3 0 .55.19.62.47l-.2.05a.5.5 0 0 0-.16-.25.43.43 0 0 0-.27-.08.5.5 0 0 0-.3.08.45.45 0 0 0-.17.24c-.04.1-.05.2-.05.3 0 .14.02.26.05.36.04.1.11.17.19.22a.5.5 0 0 0 .57-.02.53.53 0 0 0 .16-.3Zm1.23.18.2.03a.5.5 0 0 1-.17.27c-.09.06-.2.1-.33.1a.53.53 0 0 1-.4-.16.6.6 0 0 1-.15-.43c0-.2.05-.35.15-.45a.5.5 0 0 1 .39-.16c.15 0 .28.05.37.15.1.1.15.25.15.44v.06h-.86c0 .1.04.2.11.29.06.06.14.1.24.1.07 0 .13-.02.18-.06a.4.4 0 0 0 .12-.18Zm-.64-.31h.64c0-.1-.03-.17-.07-.22a.3.3 0 0 0-.24-.11.33.33 0 0 0-.23.09.38.38 0 0 0-.1.24Zm1.09.68v-1.15h.17v.17c.08-.13.22-.2.37-.2.07 0 .13.02.19.04.06.03.1.06.13.1s.05.09.06.14l.01.2v.7h-.19v-.7a.4.4 0 0 0-.03-.18.17.17 0 0 0-.08-.09.22.22 0 0 0-.13-.04.33.33 0 0 0-.22.08c-.06.06-.09.16-.09.3v.63h-.19Zm1.66-.17.03.17a.87.87 0 0 1-.15.02.35.35 0 0 1-.17-.04.2.2 0 0 1-.08-.08 1 1 0 0 1-.02-.24v-.66h-.15v-.15h.15v-.28l.19-.12v.4h.2v.15h-.2v.68l.01.1.03.04.07.01h.09Zm.97-.2.21.03c-.03.1-.1.2-.18.27-.09.06-.2.1-.33.1a.53.53 0 0 1-.4-.16.6.6 0 0 1-.15-.43c0-.2.05-.35.15-.45a.5.5 0 0 1 .39-.16c.15 0 .28.05.38.15.09.1.14.25.14.44v.06h-.86c0 .1.04.2.11.29.07.06.15.1.24.1.07 0 .13-.02.18-.06a.4.4 0 0 0 .12-.18Zm-.63-.31h.64a.4.4 0 0 0-.08-.22.3.3 0 0 0-.24-.11.3.3 0 0 0-.22.09.33.33 0 0 0-.1.24Zm1.08.68v-1.15h.17v.18a.52.52 0 0 1 .13-.17.22.22 0 0 1 .12-.03c.07 0 .14.02.2.06l-.06.18a.3.3 0 0 0-.15-.04.17.17 0 0 0-.11.04.16.16 0 0 0-.07.1.57.57 0 0 0-.04.23v.6h-.19Zm1.4 0v-1h-.17v-.15h.17v-.12l.02-.17c.02-.05.05-.1.1-.12a.35.35 0 0 1 .2-.05c.05 0 .11 0 .18.02l-.03.17a.58.58 0 0 0-.11-.01c-.06 0-.1 0-.13.03-.02.03-.03.08-.03.15v.1h.22v.15h-.22v1h-.2Zm.5-.57c0-.22.06-.37.18-.48.1-.08.22-.12.36-.12a.5.5 0 0 1 .38.15c.1.1.16.25.16.43 0 .15-.03.26-.07.35a.48.48 0 0 1-.2.2.52.52 0 0 1-.27.07.52.52 0 0 1-.39-.16c-.1-.1-.15-.25-.15-.44Zm.2 0c0 .14.03.25.1.33.06.07.15.1.24.1s.17-.03.24-.1c.07-.1.1-.22.09-.34 0-.14-.03-.25-.09-.32a.32.32 0 0 0-.24-.11.3.3 0 0 0-.24.1c-.07.08-.1.19-.1.34Zm1.1.57v-1.15h.18v.18a.4.4 0 0 1 .12-.17.23.23 0 0 1 .13-.03.4.4 0 0 1 .2.06l-.07.18a.3.3 0 0 0-.14-.04.2.2 0 0 0-.19.14.82.82 0 0 0-.03.23v.6h-.2Zm1.42 0v-1.58h.21v1.58h-.21Zm1.3 0v-.14a.35.35 0 0 1-.32.17.43.43 0 0 1-.25-.08.47.47 0 0 1-.18-.21.77.77 0 0 1-.01-.62.5.5 0 0 1 .17-.22.49.49 0 0 1 .26-.07c.07 0 .13.01.18.04.06.03.1.07.14.11v-.56h.19v1.58h-.18Zm-.62-.57c0 .15.04.25.1.33.06.07.13.1.22.1.08 0 .15-.03.21-.1s.09-.17.09-.32-.03-.27-.09-.34a.27.27 0 0 0-.22-.11.28.28 0 0 0-.22.1c-.06.07-.09.19-.09.34Zm1.89.2.2.03a.5.5 0 0 1-.17.27c-.09.06-.2.1-.33.1a.53.53 0 0 1-.4-.16.6.6 0 0 1-.15-.43c0-.2.05-.35.15-.45a.5.5 0 0 1 .39-.16c.15 0 .28.05.38.15.09.1.14.25.14.44v.06h-.86c0 .1.04.2.11.29.06.06.14.1.24.1.07 0 .13-.02.18-.06a.4.4 0 0 0 .12-.18Zm-.64-.31h.65a.4.4 0 0 0-.08-.22.3.3 0 0 0-.24-.11.3.3 0 0 0-.22.09c-.07.06-.1.14-.11.24Zm1.09.68v-1.15h.18v.17a.4.4 0 0 1 .36-.2c.07 0 .13.02.19.04.06.03.1.06.13.1s.05.09.06.14l.01.2v.7h-.19v-.7c0-.06 0-.12-.02-.18a.28.28 0 0 0-.08-.09.28.28 0 0 0-.14-.04.35.35 0 0 0-.22.08c-.06.06-.09.16-.09.3v.63h-.19Zm1.66-.17.03.17a.87.87 0 0 1-.15.02.35.35 0 0 1-.17-.04.28.28 0 0 1-.08-.08 1 1 0 0 1-.02-.24v-.66h-.14v-.15h.14v-.28l.19-.12v.4h.2v.15h-.2v.68l.01.1.04.04.06.01h.09Zm.19-1.2v-.22h.2v.23h-.2Zm0 1.37v-1.15h.2v1.15h-.2Zm.92-.17.03.17a.87.87 0 0 1-.15.02.35.35 0 0 1-.17-.04.28.28 0 0 1-.08-.08 1 1 0 0 1-.02-.24v-.66h-.14v-.15h.14v-.28l.19-.12v.4h.2v.15h-.2v.68l.01.1.04.04.06.01h.09Zm.18.61-.02-.18a.4.4 0 0 0 .11.02.2.2 0 0 0 .17-.08l.06-.15.01-.05-.43-1.15h.21l.24.67.08.26.08-.26.25-.67h.19l-.44 1.17c-.04.13-.08.21-.11.26a.36.36 0 0 1-.11.14.29.29 0 0 1-.16.05l-.13-.03Zm2.5-1.06v-.19h.67v.59c-.1.08-.21.14-.32.19a.95.95 0 0 1-.76-.04.68.68 0 0 1-.29-.3.98.98 0 0 1 0-.85.68.68 0 0 1 .28-.3c.12-.06.26-.1.42-.1a1 1 0 0 1 .31.06c.09.04.16.1.22.16.05.07.09.15.12.26l-.19.05a1.02 1.02 0 0 0-.09-.19.43.43 0 0 0-.15-.11.64.64 0 0 0-.47 0 .44.44 0 0 0-.17.12.84.84 0 0 0-.1.15.9.9 0 0 0 .01.67c.05.1.12.17.22.22a.6.6 0 0 0 .29.07c.17 0 .34-.06.47-.17v-.3h-.47Zm.88.05c0-.22.06-.37.18-.48.1-.08.22-.12.36-.12.16 0 .29.05.39.15s.15.25.15.43a.7.7 0 0 1-.07.35.46.46 0 0 1-.19.2.56.56 0 0 1-.28.07.52.52 0 0 1-.39-.16c-.1-.1-.15-.25-.15-.44Zm.2 0c0 .14.04.25.1.33.06.07.15.1.24.1a.3.3 0 0 0 .24-.1c.07-.08.1-.19.1-.34 0-.14-.03-.25-.1-.32a.3.3 0 0 0-.24-.11.3.3 0 0 0-.24.1.5.5 0 0 0-.1.34Zm1.43.57-.44-1.15h.21l.24.69.08.23.07-.22.25-.7h.2l-.43 1.15h-.18Zm1.57-.37.2.03a.5.5 0 0 1-.17.27c-.09.06-.2.1-.33.1a.53.53 0 0 1-.4-.16.6.6 0 0 1-.15-.43c0-.2.05-.35.15-.45a.5.5 0 0 1 .39-.16c.15 0 .28.05.37.15.1.1.15.25.15.44v.06h-.86c0 .1.04.2.11.29.06.06.14.1.24.1.07 0 .13-.02.18-.06a.4.4 0 0 0 .12-.18Zm-.64-.31h.65a.4.4 0 0 0-.08-.22.3.3 0 0 0-.24-.11.33.33 0 0 0-.23.09.38.38 0 0 0-.1.24Zm1.09.68v-1.15h.17v.18a.52.52 0 0 1 .13-.17.2.2 0 0 1 .12-.03c.07 0 .13.02.2.06l-.07.18a.25.25 0 0 0-.14-.04.17.17 0 0 0-.11.04.22.22 0 0 0-.08.1.82.82 0 0 0-.03.23v.6h-.19Zm.74 0v-1.15h.17v.17c.08-.13.22-.2.37-.2.07 0 .13.02.19.04.06.03.1.06.13.1s.05.09.06.14l.01.2v.7h-.19v-.7a.4.4 0 0 0-.03-.18.17.17 0 0 0-.08-.09.24.24 0 0 0-.13-.04.31.31 0 0 0-.22.08c-.06.06-.09.16-.09.3v.63h-.19Zm1.98-.14a.62.62 0 0 1-.42.17c-.13 0-.23-.03-.29-.1a.3.3 0 0 1-.11-.23c0-.06.02-.1.04-.16a.39.39 0 0 1 .1-.1.5.5 0 0 1 .14-.07l.18-.03c.15-.02.27-.04.34-.07v-.05c0-.08-.01-.13-.05-.17-.05-.04-.12-.06-.22-.06a.39.39 0 0 0-.21.05c-.04.03-.07.08-.09.17l-.19-.03c0-.07.04-.14.08-.2a.4.4 0 0 1 .17-.11.84.84 0 0 1 .5 0c.06 0 .1.03.14.08.03.03.05.08.06.13l.01.18v.26l.01.34.05.14h-.2a.55.55 0 0 1-.04-.14Zm-.02-.44c-.07.03-.17.06-.31.08a.65.65 0 0 0-.17.04.15.15 0 0 0-.08.06.16.16 0 0 0 .03.22c.04.04.1.05.17.05a.4.4 0 0 0 .2-.04c.06-.04.1-.08.13-.14.02-.04.03-.1.03-.2v-.07Zm.5.58v-1.15h.18v.17a.4.4 0 0 1 .36-.2c.07 0 .14.02.19.04.06.03.11.06.13.1l.07.14.01.2v.7h-.2v-.7c0-.06 0-.12-.02-.18a.2.2 0 0 0-.08-.09.3.3 0 0 0-.35.04c-.06.06-.09.16-.09.3v.63h-.2Zm1.98-.42.2.02a.52.52 0 0 1-.16.31.49.49 0 0 1-.32.12.48.48 0 0 1-.38-.16c-.1-.1-.14-.25-.14-.44a.8.8 0 0 1 .06-.32c.04-.1.1-.17.18-.21a.59.59 0 0 1 .28-.07.5.5 0 0 1 .31.1.4.4 0 0 1 .15.26l-.19.03a.3.3 0 0 0-.1-.18.23.23 0 0 0-.16-.05.3.3 0 0 0-.24.1c-.06.07-.09.18-.09.33 0 .16.03.27.08.34.06.07.14.1.24.1a.3.3 0 0 0 .19-.06.34.34 0 0 0 .09-.22Zm1.15.05.2.03c-.03.1-.09.2-.18.27a.5.5 0 0 1-.32.1.53.53 0 0 1-.4-.16.6.6 0 0 1-.15-.43c0-.2.05-.35.15-.45a.5.5 0 0 1 .38-.16.5.5 0 0 1 .38.15c.1.1.15.25.15.44v.06h-.86c.01.12.04.22.11.29.06.06.14.1.24.1.07 0 .13-.02.18-.06a.4.4 0 0 0 .12-.18Zm-.64-.31h.64a.4.4 0 0 0-.07-.22.3.3 0 0 0-.24-.11.32.32 0 0 0-.23.09.38.38 0 0 0-.1.24ZM85.19 390.19h-5.1v-.09c.9-1.06 2.12-2.52 2.81-3.69.37-.63.56-1.05.56-1.71s-.59-1.5-1.38-1.5c-.58 0-1.17.24-1.8 1.07v-1.45a2.92 2.92 0 0 1 1.88-.75c1.45 0 2.45 1.02 2.45 2.5 0 1.47-.7 2.4-2.49 4.53h3.07v1.09Zm2.77-5.67v-.75h.65c.27 0 .46.15.46.37s-.2.38-.52.38h-.59Zm-.4 1.42h.4v-1.08h.24c.33 0 .44.12.75.68l.22.4h.5l-.3-.5c-.21-.33-.37-.55-.58-.62a.72.72 0 0 0 .7-.72c0-.27-.2-.66-.82-.66h-1.1v2.5Zm2.97-1.3a1.95 1.95 0 1 1-3.89.03 1.95 1.95 0 0 1 3.9-.03Zm.39 0a2.34 2.34 0 1 0-4.67-.3 2.34 2.34 0 0 0 4.67.3Zm-67.06-2.2H20.2v25.4h3.65v-25.4Zm18.04 5.58c-2.16-2.04-4.24-2.64-5.96-2.64-2.34 0-4.02 1.24-4.02 3.02 0 4.87 10.99 4.8 10.99 12.89 0 3.98-3.03 6.89-7.11 6.89-2.76 0-5-.74-7.12-2.35v-4.62c1.86 2.38 4.21 3.7 6.7 3.7 2.84 0 4.14-1.8 4.14-3.23 0-5.24-10.98-5.84-10.98-12.79 0-4.15 3.04-6.79 7.7-6.79 1.93 0 3.88.6 5.67 1.79v4.13Zm25.9.08c-3.14-1.82-5.82-2.65-8.76-2.65-5.81 0-10.14 4.15-10.14 9.73 0 5.57 4.18 9.65 10.29 9.65 2.86 0 5.99-1 8.85-2.87v3.99c-2.5 1.3-5.2 2.23-9.2 2.23-9.53 0-13.7-7.34-13.7-12.66 0-7.75 5.84-13.42 13.93-13.42 2.61 0 5.25.64 8.72 2.08v3.93Z"/><path fill="#f2f2f2" d="M7.42 395.81c0 7.37 4.41 14.02 11.48 18.7.57-.4 1.2-.8 1.86-1.17-5.33-4.59-8.58-10.74-8.58-17.53 0-7.35 3.83-13.98 9.97-18.65-.64-.31-1.23-.62-1.79-.95-7.92 4.71-12.94 11.75-12.94 19.6Zm58.29-19.58c-.56.32-1.17.63-1.79.94 6.13 4.68 9.94 11.3 9.94 18.64 0 6.77-3.25 12.94-8.55 17.52.67.37 1.27.77 1.86 1.16 7.04-4.67 11.45-11.31 11.45-18.68 0-7.85-5.01-14.87-12.91-19.58Z"/><g clip-path="url(#a)"><path fill="#f2f2f2" d="m257.46 432.6.23.08-.62 1.73-.23-.09.62-1.72Zm-3.46-1.47.22.11.2 1.7.62-1.28.22.11-.8 1.65-.22-.11-.2-1.7-.63 1.28-.22-.11.81-1.65Zm-5.65-1.19.5.33.88-1.38.2.14-.89 1.37.5.33-.12.17-1.18-.8.11-.16Zm-3.16-3.37.6.51.42-.5-.7-.6.12-.15.89.75-1.16 1.43-.88-.75.12-.15.7.59.37-.46-.6-.52.12-.15Zm-3.12-2.97.3.32.54-.52.16.18-1.33 1.28-.41-.44a.73.73 0 0 1-.23-.45c0-.15.06-.29.19-.42a.5.5 0 0 1 .28-.13c.1-.02.2 0 .31.05l.27-.86h.01l.18.18-.27.81Zm.16.46-.26-.27a.41.41 0 0 0-.26-.15.3.3 0 0 0-.26.1.3.3 0 0 0-.11.25c0 .1.04.19.13.28l.25.28.5-.49Zm-3.26-5.24.14.2-.6 1.6 1.14-.85.14.2-1.47 1.1-.14-.2.6-1.6-1.15.84-.14-.2 1.48-1.1Zm-3.42-4.42.36.68.5-.07.12.22-1.95.25-.1-.19 1.3-1.5.12.22-.35.39Zm.15.71-.29-.56-.62.7.91-.14Zm-3.27-5.01.22.54 1.52-.6.08.22-1.52.61.22.55-.19.07-.51-1.32.18-.07Zm.3-3.8.06.23-1.75.53-.07-.23 1.76-.53Zm-1.77-3.49c.17-.03.33-.03.48 0 .14.04.25.1.34.2.1.1.15.22.18.36a.7.7 0 0 1-.29.71 1.1 1.1 0 0 1-.43.18l-.13.03a1.1 1.1 0 0 1-.48 0 .69.69 0 0 1-.53-.56.69.69 0 0 1 .3-.72c.12-.08.27-.14.44-.18l.12-.02Zm-.08.26a.82.82 0 0 0-.47.23c-.1.1-.13.23-.1.39.03.15.1.26.24.32.13.07.3.08.5.04l.13-.02a.9.9 0 0 0 .47-.22c.1-.12.13-.25.1-.4a.42.42 0 0 0-.23-.33.82.82 0 0 0-.5-.03l-.14.02Zm.09-6.57v.24l-1.37.98 1.41-.06.01.25-1.84.07v-.24l1.38-.99-1.42.06-.01-.24 1.84-.07Zm-.34-5.66-.08.77.46.22-.03.25-1.75-.9.02-.2 1.9-.5-.03.24-.5.12Zm-.27.67.06-.62-.89.22.83.4Zm1.13-5.33.2-.85.19.05-.25 1.08-1.78-.43.05-.24 1.59.39Zm1.81-7.31-.29.71.38.35-.1.23-1.42-1.38.09-.2 1.95.1-.1.22-.5-.03Zm-.44.56.24-.57-.91-.06.67.63Zm2.27-5.26c-.15.15-.29.24-.4.28a.41.41 0 0 1-.35-.04.45.45 0 0 1-.23-.34.7.7 0 0 1 .1-.46.8.8 0 0 1 .23-.25c.1-.06.19-.1.29-.1s.2.02.28.07l-.12.22a.32.32 0 0 0-.28-.05.42.42 0 0 0-.22.21c-.06.1-.09.2-.08.29.02.08.06.14.14.2.07.03.14.04.21 0 .08-.02.17-.1.28-.2.12-.11.21-.19.3-.24a.51.51 0 0 1 .25-.07c.08 0 .16.02.24.07.13.07.2.18.22.33.02.14-.02.3-.12.47-.06.1-.13.2-.23.27s-.2.1-.3.12c-.1 0-.2-.02-.28-.07l.12-.21c.1.05.19.06.28.02.1-.03.18-.11.25-.23a.5.5 0 0 0 .07-.3.26.26 0 0 0-.13-.2.24.24 0 0 0-.22-.01.8.8 0 0 0-.3.22Zm2.37-3.96c-.18.13-.32.21-.45.24a.41.41 0 0 1-.34-.08.45.45 0 0 1-.18-.36c0-.16.05-.32.15-.45.07-.1.16-.18.25-.23.1-.05.2-.07.3-.06.1 0 .2.04.27.1l-.14.2a.33.33 0 0 0-.27-.07c-.1.01-.18.07-.25.18-.07.1-.1.19-.1.27 0 .09.04.16.11.22.06.04.13.05.2.03.11-.04.22-.1.31-.17.13-.1.23-.17.33-.2a.39.39 0 0 1 .25-.05c.08 0 .16.04.23.1.12.08.18.2.19.35 0 .15-.06.3-.17.46a.87.87 0 0 1-.26.24.5.5 0 0 1-.31.08c-.1 0-.2-.03-.28-.1l.14-.2c.09.07.18.1.28.07s.2-.1.27-.21c.08-.1.11-.2.11-.29a.26.26 0 0 0-.1-.2.24.24 0 0 0-.23-.06c-.07.02-.18.09-.32.2Zm3.5-4.47c.13.13.22.26.27.4a.7.7 0 0 1 .04.4.72.72 0 0 1-.2.36.7.7 0 0 1-.33.2.7.7 0 0 1-.4-.02 1.08 1.08 0 0 1-.4-.25l-.08-.1a1.14 1.14 0 0 1-.27-.4.71.71 0 0 1 .15-.76.66.66 0 0 1 .74-.18c.13.06.27.15.4.27l.08.08Zm-.25.1a.82.82 0 0 0-.45-.26.43.43 0 0 0-.38.14c-.1.1-.14.24-.12.38.02.15.1.3.25.44l.1.1c.14.15.3.23.44.25.15.02.27-.02.38-.13a.5.5 0 0 0 .13-.39.83.83 0 0 0-.26-.44l-.1-.1Zm4.85-4.04c.1.16.13.33.1.49a.72.72 0 0 1-.29.42.64.64 0 0 1-.55.13.93.93 0 0 1-.53-.37l-.1-.14c-.1-.14-.17-.28-.2-.42a.7.7 0 0 1 .26-.72c.13-.11.3-.17.47-.16.16.02.3.1.43.24l-.19.15c-.1-.1-.2-.16-.3-.17s-.19.02-.29.1a.44.44 0 0 0-.18.36c0 .15.06.3.19.47l.1.14c.1.14.24.25.4.3a.4.4 0 0 0 .37-.07.5.5 0 0 0 .19-.26c.02-.1 0-.21-.08-.35l.2-.15Zm3.58-1.95-.21.13-.96-1.57.2-.13.97 1.57Zm2.5-2.15-.69.34.06.51-.22.12-.19-1.97.19-.1 1.44 1.33-.23.11-.36-.35Zm-.71.13.56-.28-.66-.63.1.91Zm4.99-3.39-.56.2.57 1.54-.23.09-.56-1.54-.55.21-.07-.19 1.33-.5.07.19Zm3.87.49-.23.07-.49-1.77.24-.07.48 1.77Zm3.47-1.77c.02.18.02.34-.02.48a.7.7 0 0 1-.2.35.7.7 0 0 1-.37.17.71.71 0 0 1-.4-.04.71.71 0 0 1-.3-.25 1.1 1.1 0 0 1-.17-.44l-.02-.13a1.1 1.1 0 0 1 .01-.48c.04-.14.1-.26.2-.35a.7.7 0 0 1 .37-.17c.27-.06.55.06.7.3a1 1 0 0 1 .17.45l.02.11Zm-.26-.07a.82.82 0 0 0-.22-.47.43.43 0 0 0-.39-.12.43.43 0 0 0-.32.24.81.81 0 0 0-.06.5l.02.13c.04.21.11.37.22.47.1.1.23.14.39.12.15-.03.26-.1.33-.23.06-.13.08-.3.05-.5l-.02-.14Zm6.28.23h-.24l-.95-1.4.03 1.42h-.25l-.03-1.83h.24l.96 1.4-.03-1.43h.24l.03 1.84Zm7.68-.28-.76-.13-.13.8-.24-.04.3-1.81 1.12.19-.04.2-.88-.15-.1.62.76.13-.03.2Zm4.96.86c-.04.15-.12.3-.22.42-.1.11-.2.19-.34.22a.71.71 0 0 1-.73-.23.73.73 0 0 1-.17-.37c-.02-.14 0-.3.05-.46l.03-.13c.05-.17.13-.31.23-.42a.7.7 0 0 1 .33-.22.7.7 0 0 1 .4 0c.28.07.48.31.5.6.02.15 0 .3-.05.48l-.03.1Zm-.2-.19c.07-.2.07-.38.02-.51a.44.44 0 0 0-.3-.28.42.42 0 0 0-.4.06.8.8 0 0 0-.26.42l-.04.13a.84.84 0 0 0-.02.52c.05.14.15.23.3.28a.4.4 0 0 0 .4-.06c.11-.08.2-.22.27-.43l.03-.13Zm5.3 2.21-.4-.19-.3.68-.22-.1.75-1.68.56.26c.18.09.3.2.37.33.06.13.06.28-.02.45a.49.49 0 0 1-.2.23c-.1.05-.2.07-.32.06l.07.9v.01l-.24-.1-.06-.85Zm-.31-.37.33.16c.11.05.21.06.3.04a.3.3 0 0 0 .2-.19c.05-.1.05-.2.02-.28a.43.43 0 0 0-.23-.2l-.34-.16-.28.63Zm7.05 4.35a.67.67 0 0 1-.43.25.7.7 0 0 1-.48-.15.66.66 0 0 1-.3-.5 1 1 0 0 1 .2-.62l.1-.14c.1-.15.2-.25.33-.32a.67.67 0 0 1 .75.04c.16.11.26.25.3.4a.7.7 0 0 1-.1.5l-.2-.15c.06-.1.08-.22.07-.34a.42.42 0 0 0-.18-.25.42.42 0 0 0-.4-.07.78.78 0 0 0-.38.33l-.1.15c-.1.13-.15.3-.16.46 0 .15.06.26.18.35.11.08.21.11.3.1.1 0 .2-.07.3-.18l.2.14Zm3.7 2.7-.31-.3-.5.56-.18-.17 1.23-1.37.44.41c.15.14.24.28.26.43a.51.51 0 0 1-.15.42.48.48 0 0 1-.27.16c-.1.02-.2.01-.31-.03l-.2.87-.01.02-.2-.18.2-.83Zm-.18-.45.27.25a.4.4 0 0 0 .28.13.3.3 0 0 0 .24-.11c.08-.09.1-.18.1-.27a.44.44 0 0 0-.15-.27l-.28-.25-.46.52Zm3.85 3.65 1-.24.18.21-1.28.28-.51.45-.16-.18.52-.45.45-1.25.18.21-.38.98Zm2.79 3.76-.6.4-.13-.2 1.52-1.04.37.56c.11.17.16.33.13.49a.53.53 0 0 1-.24.37c-.14.1-.29.13-.43.1a.76.76 0 0 1-.38-.32l-.24-.37Zm.16-.12.24.37c.08.1.15.17.24.2.1.02.18 0 .28-.07a.35.35 0 0 0 .16-.24.4.4 0 0 0-.08-.29l-.24-.38-.6.41Zm3.64 4.8-.26-.53-1.45.77-.11-.22 1.45-.76-.27-.53.18-.09.64 1.27-.18.1Zm1.31 4.64c-.15.07-.3.1-.47.08a.68.68 0 0 1-.38-.13.7.7 0 0 1-.23-.33.7.7 0 0 1 .17-.75c.1-.1.23-.19.4-.25l.12-.05c.16-.06.32-.09.47-.08a.7.7 0 0 1 .38.14c.1.08.18.19.23.32a.7.7 0 0 1-.17.76c-.1.1-.24.19-.41.25l-.11.04Zm.03-.27c.2-.07.34-.17.42-.3a.4.4 0 0 0 .04-.4.42.42 0 0 0-.28-.28.8.8 0 0 0-.5.04l-.13.05a.84.84 0 0 0-.42.3.44.44 0 0 0-.05.4c.06.15.15.25.29.29.13.04.3.02.5-.05l.13-.05Zm.79 5.29.19.85-.2.05-.24-1.09 1.8-.41.05.24-1.6.36Zm1.67 5.03c-.18.01-.33 0-.48-.05a.68.68 0 0 1-.47-.6.71.71 0 0 1 .07-.39.7.7 0 0 1 .27-.3c.13-.07.28-.11.45-.13l.13-.02c.18-.01.34 0 .48.05a.68.68 0 0 1 .48.6c.04.28-.1.56-.35.69-.13.07-.28.11-.46.13l-.12.02Zm.1-.26a.8.8 0 0 0 .48-.18c.11-.1.16-.23.14-.38a.43.43 0 0 0-.2-.34.81.81 0 0 0-.5-.09l-.14.01a.83.83 0 0 0-.48.19c-.1.1-.16.24-.14.38.01.16.08.27.2.35.12.07.29.1.5.08l.14-.02Zm-.5 6.5a.57.57 0 0 1-.19-.27 1.06 1.06 0 0 1-.05-.39.8.8 0 0 1 .13-.4c.07-.1.18-.19.3-.25.14-.05.3-.08.46-.07h.16c.28.02.5.1.64.23s.21.32.2.55a.7.7 0 0 1-.17.46.64.64 0 0 1-.42.2v-.25c.25-.03.38-.17.4-.41a.43.43 0 0 0-.16-.38.83.83 0 0 0-.5-.15h-.14a.78.78 0 0 0-.5.1.45.45 0 0 0-.2.38c0 .1 0 .17.02.24a.4.4 0 0 0 .1.18l.4.01.03-.42.2.01-.04.66-.67-.03Zm-.5 4.61.03-.24 1.82.28-.03.24-1.82-.28Zm-.05 3.65a.69.69 0 0 1-.38-.32.72.72 0 0 1-.04-.5c.04-.2.17-.36.35-.45.18-.09.4-.1.65-.04l.17.05c.16.04.3.1.41.2.22.17.31.45.24.72a.66.66 0 0 1-.27.42.67.67 0 0 1-.49.09l.06-.24c.15.02.26 0 .34-.05a.41.41 0 0 0 .17-.26.44.44 0 0 0-.08-.4.8.8 0 0 0-.44-.25l-.18-.04a.8.8 0 0 0-.49 0 .4.4 0 0 0-.25.3.5.5 0 0 0 .01.32c.07.1.17.18.28.22l-.06.23Zm-2.09 6.63.18-.4-.68-.3.1-.23 1.67.77-.24.56a.75.75 0 0 1-.32.37c-.14.07-.28.06-.45-.01a.5.5 0 0 1-.23-.21.56.56 0 0 1-.07-.32l-.88.07h-.02l.1-.24.84-.06Zm.36-.31-.15.34a.4.4 0 0 0-.03.3c.03.1.09.16.18.2.1.05.2.06.28.02.1-.05.16-.13.2-.23l.15-.34-.63-.29Zm-2.52 5.27.4-.69-.56-.34-.46.8-.17-.1.58-1 1.57.94-.58 1-.17-.1.46-.8-.5-.3-.4.7-.17-.11Zm-2.16 3.42c.17-.13.31-.2.44-.23.13-.02.24.01.34.09.12.09.17.2.18.36a.7.7 0 0 1-.16.45.76.76 0 0 1-.25.22c-.18.1-.4.08-.57-.04l.14-.2c.09.07.18.1.27.08.1-.02.18-.08.26-.19.07-.1.1-.18.1-.27a.27.27 0 0 0-.11-.21.23.23 0 0 0-.21-.04.9.9 0 0 0-.3.17c-.13.1-.24.16-.33.2a.52.52 0 0 1-.26.04.45.45 0 0 1-.23-.1.44.44 0 0 1-.18-.35c0-.15.06-.3.17-.46.08-.1.17-.18.27-.24a.6.6 0 0 1 .31-.08c.1 0 .2.04.28.1l-.15.2a.31.31 0 0 0-.28-.06c-.1.02-.19.1-.27.2s-.11.2-.11.29c0 .08.03.15.1.2.08.06.15.08.23.06.07-.02.18-.08.32-.19Zm-3.27 4.06.54-.58-.46-.46-.63.68-.15-.14.8-.85 1.31 1.28-.79.84-.14-.14.62-.66-.42-.41-.54.57-.14-.13Zm-3.56 3.05.6-.5-.17-.48.2-.16.6 1.9-.17.13-1.69-1 .2-.16.43.27Zm.66-.29-.48.4.77.47-.29-.87Zm-4.61 3.64.37-.23-.4-.63.21-.13.96 1.57-.51.32c-.18.11-.34.16-.48.14s-.26-.11-.36-.26a.5.5 0 0 1-.07-.3c0-.12.04-.21.12-.31l-.78-.44.21-.15.73.42Zm.47-.06-.32.2a.42.42 0 0 0-.19.23c-.03.1-.01.19.04.28.06.1.13.15.22.16.1.02.2 0 .3-.07l.31-.2-.36-.6Zm-5.36 2.8a.69.69 0 0 1 .01-.5.7.7 0 0 1 .37-.35c.2-.1.4-.1.57-.01.19.09.33.25.44.48l.07.17c.07.15.1.3.1.44a.7.7 0 0 1-.42.65.65.65 0 0 1-.5.05.67.67 0 0 1-.36-.33l.22-.1c.08.12.16.2.25.23.1.03.2.02.3-.04a.44.44 0 0 0 .27-.3.8.8 0 0 0-.08-.5l-.08-.17a.8.8 0 0 0-.3-.38.4.4 0 0 0-.4-.01.47.47 0 0 0-.24.21c-.04.09-.04.2 0 .35l-.22.1Zm-5.29 1.49.23-.07.24.81.89-.27-.25-.81.23-.08.53 1.77-.23.07-.23-.76-.88.27.22.76-.23.07-.52-1.76Zm1.46-38.29h-13.1v13.85h13.1v-13.85Zm-13.94 0h-13.1v13.85h13.1v-13.85Zm0-14.85h-13.1v13.95h13.1v-13.95Zm13.94 0h-13.1v13.95h13.1v-13.95Zm1.05-.87h15.84a35.63 35.63 0 0 0-15.83-16.36v16.36Zm0 14.86h19.22c0-4.83-1-9.6-2.95-14h-16.26v14Zm-29.14 14.64v-13.78h-19.64c.12 4.8 1.27 9.5 3.38 13.78h16.26Zm0-28.63h-16.68a34.6 34.6 0 0 0-2.96 14h19.64v-14Zm0-.87v-16.58a34.98 34.98 0 0 0-16.26 16.58h16.26Zm0 30.58h-15.84c3.43 6.83 9 12.3 15.84 15.5v-15.5Zm14.15-50.39c-4.5.04-8.95.99-13.1 2.8v17.01h13.1v-19.8Zm34 35.53h-19v13.78h15.83c2.04-4.3 3.12-9 3.17-13.78Zm-19.01 14.86v15.29a34.52 34.52 0 0 0 15.42-15.29h-15.42Zm-14.15-50.39v19.81h13.1v-16.8a37.6 37.6 0 0 0-13.1-3Zm-.84 69.12V409.7h-13.1v15.93a29.92 29.92 0 0 0 13.1 2.8Zm13.94-18.73h-13.1v18.73c4.54 0 9-1.03 13.1-3.01V409.7Z"/><path fill="#375e74" d="M248.59 382.35h-1.27v-1.5h1.27v1.5Zm0 9.48h-1.27v-8.19h1.27v8.19Zm33.15-17.01-1.48.86h-3.38l-1.47-.86-1.06-1.3a3.07 3.07 0 0 1-.42-1.5v-.86c.04-.53.19-1.04.42-1.51l1.06-1.3 1.47-.85h3.38l1.48.86-1.05 1.07c-.15-.35-.47-.6-.85-.64h-2.53l-.85.43-.63.86c-.17.33-.25.7-.21 1.08v.86c-.04.37.04.74.21 1.07l.63.87.85.64h2.53l.85-.43 1.05.65Zm-13.72 31.22h-1.27v-1.08l-1.06.86h-2.95l-1.27-.86-.85-1.29a3.3 3.3 0 0 1-.2-1.5v-.87c-.04-.51.03-1.02.2-1.5l.85-1.3 1.27-.86h2.95l1.06.86v-.86h1.27v8.4Zm-1.27-3.88v-.86a2.4 2.4 0 0 0-.21-1.07c-.21-.22-.21-.44-.43-.87l-.84-.43h-2.11c-.34 0-.65.16-.85.43l-.42.87c-.15.33-.22.7-.21 1.07v.86a2 2 0 0 0 .21 1.08c.06.32.2.62.42.86l.85.43h2.11l.85-.43c.2-.21.2-.65.42-.86.17-.33.24-.7.2-1.08Zm25.76 10.98h-1.26l-.85.65-.63.65c0 .43-.21.64-.21 1.07v4.74h-1.27v-8.4h1.27v1.3l1.26-.87 1.27-.43h.42v1.3Z"/><path fill="#f2f2f2" d="M269.92 434.46c1.16 0 2.1-.96 2.1-2.15 0-1.2-.94-2.16-2.1-2.16-1.17 0-2.12.97-2.12 2.16s.95 2.15 2.12 2.15Z"/><clipPath id="a"><path fill="#fff" d="M228.31 351.35h87.85v87.85h-87.85Z"/></clipPath></g><path fill="none" stroke="#f2f2f2" stroke-miterlimit="10" stroke-width=".18" d="M472.1 395.71c9.59 0 17.36-7.43 17.36-16.6s-7.77-16.6-17.35-16.6-17.35 7.43-17.35 16.6 7.77 16.6 17.35 16.6Z"/><path fill="#f2f2f2" d="M495 428.04h43.37l-31.56-52.11-19.75 33.03-.56-15.9a16.5 16.5 0 0 1-5.8 4.55 17.23 17.23 0 0 1-7.3 1.64v28.8h17.17l16.05-25.8 8.3 13.43h-12.91l-7.02 12.36ZM456.79 392v35.87h13.66v-28.62a18.2 18.2 0 0 1-7.72-2.09c-2.35-1.24-4.38-3-5.94-5.16Z"/><path fill="none" stroke="#f2f2f2" stroke-miterlimit="10" stroke-width=".18" d="M468.05 395.54a24.7 24.7 0 0 1-5.35-12.55c-1.3-7.94 5.35-17.84 5.35-17.84s8.49 28.62 8.67 30.03m7.75-4.41s1.85-12.01-6.82-19.79c-5.54-4.94-9.6-5.83-9.6-5.83s16.42-.53 21.4 11.66m-31.18-7.59c2.58-3.54 9.78-4.07 9.78-4.07s-.19-1.76.18-2.12"/><path fill="none" stroke="#f2f2f2" stroke-miterlimit="10" stroke-width=".18" d="M472.1 362.5c-1.62.38-3.06 1.32-4.05 2.65s-2.4-1.41-3.88-.7m-7.75 21.73s10.34 4.59 18.46 2.47 14.02-5.83 14.58-10.78"/><path fill="none" stroke="#f2f2f2" stroke-miterlimit="10" stroke-width=".18" d="M454.76 379.1s9.04 6.72 19.75 3.19c10.7-3.54 12.92-11.3 12.92-11.3"/><path fill="none" stroke="#f2f2f2" stroke-miterlimit="10" stroke-width=".18" d="M456.42 372.04s4.8 6 15.13 3.71c10.34-2.3 9.6-10.6 9.6-10.6a20.15 20.15 0 0 0-6.64-1.23 17.9 17.9 0 0 0-12.28 4.97 16.42 16.42 0 0 0-5.07 11.8c.03 2.65.71 5.24 2 7.58a16.86 16.86 0 0 0 5.38 5.86"/><path fill="none" stroke="#f2f2f2" stroke-miterlimit="10" stroke-width=".18" d="M461.59 392.18s10.15 2.3 16.6-.35a29.63 29.63 0 0 0 10.53-7.6m26.94-2.47a2.9 2.9 0 0 0 2.96-2.83 2.9 2.9 0 0 0-2.96-2.82 2.9 2.9 0 0 0-2.95 2.82 2.9 2.9 0 0 0 2.95 2.83Z"/><g clip-path="url(#b)"><g fill="#f2f2f2"><path d="M726.77 448.3c-28.35 0-51.33-23.61-51.33-52.73s22.98-52.73 51.33-52.73 51.33 23.6 51.33 52.73c0 29.12-22.98 52.73-51.33 52.73Zm0-97.35c-23.99 0-43.43 19.98-43.43 44.62s19.44 44.61 43.43 44.61c23.98 0 43.43-19.97 43.43-44.61s-19.45-44.62-43.43-44.62Z"/><path d="M743.73 432.5c-1.67 0-7.76-11.02-8.58-14.17-1.7-6.58-1.34-9.36-1.24-10.25.32-2.71 2.9-4.07 3.06-7.74.05-1.14.61-6.8 1.06-11.23a7.43 7.43 0 0 1-3.2-1.52c2.95 4.02-1.38 8.84-7.68 15.25-6.68 6.81-21.51 13.13-21.51 13.13s6.2-15.11 12.88-21.92c4.91-5 8.87-8.79 12.25-8.79.96 0 1.86.3 2.73.96a7.7 7.7 0 0 1-1.5-3.25c-4.34.46-9.9 1.03-11.02 1.08-3.6.16-4.93 2.8-7.6 3.12-.3.03-.84.1-1.69.1-1.56 0-4.18-.23-8.38-1.37-3.35-.9-15.87-8.15-13.65-9.06 1.13-.47 4.72-.78 9.46-.78 4.55 0 10.16.29 15.64 1.02 6.84.9 13.1 2.05 17.37 2.9.07-.23.15-.46.25-.68l-4.36-2.13s-3.49-4.07-3.12-4.35a.09.09 0 0 1 .06-.02c.54 0 3.33 3.25 3.6 3.62l2.63.9-1.23-1.1s-1.7-6.38-1.25-6.53h.02c.46 0 2 5.54 2.13 5.94.3.26 1.31.67 2.59 1.42l-1.34-3.5s.6-5.79 1.06-5.79c.46.1-.08 4.82-.2 5.41l2.22 3.47a5.6 5.6 0 0 1 2.02-.36c.8 0 1.62.16 2.42.47-1.02-2.23-.94-4.54.42-5.93a3.6 3.6 0 0 1 1.53-.92 2 2 0 0 1 2-1.7c1.18.03 2.13.96 2.17 2.14.65-1.38 1.42-3.24 1.37-3.84-.13-1.37-1.68-3.78-1.7-3.8a.34.34 0 0 1 .1-.47.32.32 0 0 1 .18-.06c.11 0 .22.06.28.16.07.1 1.66 2.57 1.8 4.1.08.88-.9 3.09-1.44 4.22a9.58 9.58 0 0 1 3.8 3.87c1.06-.53 3.1-1.48 4.02-1.48h.11c1.5.15 3.93 1.77 4.03 1.84.16.1.2.3.1.47a.33.33 0 0 1-.28.15.32.32 0 0 1-.18-.06c-.02-.01-2.4-1.6-3.73-1.72h-.07c-.65 0-2.4.75-3.7 1.4.52.02 1.05.23 1.46.65.83.85.85 2.2.05 3.02-.3.3-.68.5-1.08.57-.18.6-.48 1.12-.9 1.56a3.98 3.98 0 0 1-2.92 1.13c-.93 0-1.93-.24-2.9-.7a6.5 6.5 0 0 1 .1 4.51l3.4 2.27c.42-.09 2.9-.4 4.33-.4.56 0 .96.05.99.19.09.46-5.68 1.09-5.68 1.09l-3.44-1.37c.74 1.3 1.13 2.34 1.4 2.64.4.14 5.97 1.74 5.83 2.19-.02.05-.12.07-.28.07-1.23 0-6.13-1.34-6.13-1.34l-1.08-1.26c.42 1.26.8 2.47.88 2.68.38.28 3.81 3.34 3.53 3.73-.01.01-.03.02-.07.02-.6 0-4.2-3.2-4.2-3.2l-2.1-4.44c-.21.1-.43.19-.66.26.83 4.34 1.96 10.72 2.85 17.68 1.46 11.39 1.13 23.32.23 25.57-.07.18-.18.27-.32.27Zm22.42 8.8h-2.43v6.7h-1.64v-6.7h-2.4v-1.34h6.47v1.34Zm3.09-1.34 2.04 5.83 2.03-5.83h2.16V448h-1.65v-2.2l.16-3.8-2.14 6h-1.13l-2.14-5.99.16 3.8V448h-1.64v-8.04h2.15Z"/></g><clipPath id="b"><path fill="#fff" d="M674.56 342.55h107.05V448H674.56Z"/></clipPath></g><path fill="#f2f2f2" d="M930.48 377.64s20.14-8.86 20.91-9.39v54.54s-12.3-5.54-17.13-18.88-3.78-26.27-3.78-26.27Z"/><path fill="#375e74" d="M972.22 377.64s-20.16-8.86-20.93-9.39v54.54s12.32-5.54 17.15-18.88 3.78-26.27 3.78-26.27Z"/><path fill="#f2f2f2" d="M934.26 403.91c-4.86-13.34-3.78-26.27-3.78-26.27s20.14-8.86 20.91-9.39"/><path fill="#375e74" d="M939.2 394.75v-7.28c0-5.3 2.8-10.16 7.3-12.3 1.54-.73 3.23-1.1 4.94-1.1v3.68a7.66 7.66 0 0 0-4.42 1.08 9.82 9.82 0 0 0-4.58 8.17c-.13 4.18 0 4.76 0 4.76l-3.24 2.99Z"/><path fill="#f2f2f2" d="M963.68 394.75v-7.28c0-5.3-2.8-10.16-7.3-12.3a11.48 11.48 0 0 0-4.94-1.1v3.68c1.54-.1 3.08.27 4.42 1.08a9.82 9.82 0 0 1 4.58 8.17c.13 4.18 0 4.76 0 4.76l3.24 2.99Z"/><path fill="#375e74" d="M951.42 404.1a.92.92 0 0 1-.9-.65 1.1 1.1 0 0 1-.08-.4v-10.77c0-.27.1-.54.28-.74.18-.2.43-.3.7-.3h.02v-5.82c-3.5.16-6.82 1.78-9.25 4.5a15.29 15.29 0 0 0-3.79 10.15c0 3.79 1.36 7.42 3.79 10.15a13.22 13.22 0 0 0 9.25 4.51V404.1h-.02Z"/><path fill="#f2f2f2" d="M951.42 385.42v5.81c.26 0 .5.11.69.3.18.2.28.47.28.75v10.77c0 .28-.1.55-.28.75-.19.2-.43.3-.7.3v10.63c3.57-.19 6.9-1.81 9.26-4.5a15.29 15.29 0 0 0 3.78-10.16c0-3.78-1.35-7.41-3.78-10.14a13.22 13.22 0 0 0-9.25-4.51Zm32.71-9.19c0 .25-.05.5-.13.74-.1.22-.23.41-.39.58-.15.2-.35.33-.56.42-.22.1-.46.15-.7.14-.3.01-.59-.07-.85-.22a2.03 2.03 0 0 1-.61-.64c-.15.27-.37.5-.62.65a1.5 1.5 0 0 1-.85.2 1.3 1.3 0 0 1-.67-.13 1.24 1.24 0 0 1-.56-.42 2.2 2.2 0 0 1-.39-.58 2.35 2.35 0 0 1-.13-.74V374h.6v2.27c-.01.17.02.33.1.47.04.16.12.3.23.42.11.1.24.2.38.25a.8.8 0 0 0 .44.1.9.9 0 0 0 .46-.1c.14-.06.26-.15.36-.25.13-.1.22-.26.26-.42.07-.14.1-.3.1-.47V374h.6v2.27c-.01.17.02.33.1.47.04.16.12.3.23.42.11.1.24.2.38.25a.8.8 0 0 0 .44.1c.16.01.32-.02.47-.1.13-.06.25-.15.35-.25.13-.1.22-.26.26-.42.06-.15.1-.3.1-.47V374h.6v2.22Zm4.21 0c0 .25-.04.5-.13.74-.1.23-.22.43-.38.61s-.35.31-.57.39c-.21.1-.45.15-.69.14a1.4 1.4 0 0 1-.67-.14 1.4 1.4 0 0 1-.56-.39 2.4 2.4 0 0 1-.39-.6 2.2 2.2 0 0 1-.13-.75v-.4c0-.25.05-.5.13-.74a3 3 0 0 1 .38-.6c.16-.18.36-.32.57-.4.43-.21.94-.21 1.37 0 .2.08.4.22.56.4a3 3 0 0 1 .38.6c.09.24.13.5.13.75v.39Zm-.59 0v-.4c0-.17-.03-.35-.1-.52a.93.93 0 0 0-.23-.41.91.91 0 0 0-.39-.25.83.83 0 0 0-.46-.11.8.8 0 0 0-.44.1.92.92 0 0 0-.38.26.95.95 0 0 0-.24.41c-.07.17-.1.35-.1.53v.39c0 .18.03.36.1.52.05.16.13.3.24.42.1.11.24.2.38.25a.8.8 0 0 0 .44.1c.16.02.32-.02.46-.1a.92.92 0 0 0 .39-.25c.1-.12.19-.26.23-.42.07-.16.1-.34.1-.52Zm7.75 1.82h-.6v-2.27a.96.96 0 0 0-.1-.47 1 1 0 0 0-.23-.41.91.91 0 0 0-.39-.25.8.8 0 0 0-.44-.11.9.9 0 0 0-.46.1.88.88 0 0 0-.36.26 1 1 0 0 0-.26.41c-.07.15-.1.3-.1.47v2.27h-.59v-2.27a.97.97 0 0 0-.1-.47c-.05-.15-.13-.3-.23-.41a.93.93 0 0 0-.39-.25.8.8 0 0 0-.44-.11 1.14 1.14 0 0 0-.82.36 1 1 0 0 0-.26.41c-.07.15-.1.3-.1.47v2.27h-.6v-2.21c.01-.26.06-.5.14-.75.1-.22.23-.42.38-.6.16-.18.36-.3.57-.4.22-.1.45-.16.7-.16.3 0 .58.08.84.25.25.16.47.39.62.66a1.6 1.6 0 0 1 1.46-.91c.24 0 .47.05.67.17.22.07.41.2.57.38a3 3 0 0 1 .38.61c.09.24.13.5.13.75v2.21Zm4.21-1.71h-2.93c.01.16.06.32.13.47a.9.9 0 0 0 .25.38c.1.11.21.2.34.25.29.11.61.11.9 0 .14-.06.27-.16.38-.27l.42.41c-.16.18-.36.31-.57.39-.21.1-.44.15-.67.14-.24.01-.48-.04-.7-.14-.2-.09-.4-.22-.56-.39a2.38 2.38 0 0 1-.38-.6 2.2 2.2 0 0 1-.13-.75v-.4c0-.25.04-.5.13-.74.1-.22.23-.42.38-.6.16-.18.36-.3.57-.4.36-.2.8-.22 1.18-.08.17.05.33.13.46.25.15.09.29.21.39.36.23.26.37.6.39.94.02.17.02.33.02.5v.28Zm-.62-.61a2 2 0 0 0-.05-.42 1.3 1.3 0 0 0-.43-.55c-.32-.24-.74-.3-1.11-.14a.97.97 0 0 0-.34.25c-.1.11-.2.24-.25.39-.07.14-.12.3-.13.47h2.31Zm4.86 2.32h-.59v-2.27c0-.16-.04-.32-.1-.47s-.15-.3-.26-.41a1 1 0 0 0-.36-.25.93.93 0 0 0-.46-.11c-.15 0-.3.03-.44.1a.93.93 0 0 0-.38.26c-.1.13-.19.26-.26.41a1.5 1.5 0 0 0-.08.47v2.27h-.59v-2.21a1.9 1.9 0 0 1 1.05-1.74c.44-.22.95-.22 1.39-.01.21.1.41.22.57.4.15.18.28.38.38.6.09.24.13.5.13.75v2.21Zm4.58-4.56h-.59v-.8h.59v.8Zm0 4.56h-.59v-4.04h.59v4.04Zm4.4 0h-.62v-2.27c0-.16-.02-.32-.08-.47a2.16 2.16 0 0 0-.25-.41.96.96 0 0 0-.39-.25.79.79 0 0 0-.44-.11.93.93 0 0 0-.46.1 1.1 1.1 0 0 0-.36.26c-.11.12-.2.26-.26.41-.05.15-.08.31-.07.47v2.27h-.62v-2.21c0-.26.05-.51.15-.75.14-.46.48-.82.93-1 .22-.1.45-.17.69-.16.47 0 .92.2 1.24.56.17.16.3.37.38.6.11.24.16.49.16.75v2.21Zm-31.45 4.18c.36.33.57.8.59 1.28h-.7a1.5 1.5 0 0 0-.43-.86 1.37 1.37 0 0 0-.98-.33c-.23-.01-.46.04-.67.14-.2.1-.39.25-.54.44-.3.39-.46 1-.46 1.77-.02.57.13 1.13.41 1.6.28.41.76.64 1.26.61.23.02.45-.04.66-.15.2-.11.37-.28.5-.48a2 2 0 0 0 .3-.89h.7a2.56 2.56 0 0 1-.6 1.47c-.84.89-2.24.95-3.16.14-.53-.53-.8-1.33-.8-2.41a3.4 3.4 0 0 1 .6-2.02c.4-.59 1.09-.92 1.8-.88a2 2 0 0 1 1.51.57Zm1.15-.41h.83l1.49 2.68 1.5-2.68h.81l-1.98 3.32v2.27h-.7v-2.27l-1.95-3.32Zm5.2 0h2.24c.61 0 1.05.2 1.3.58.16.23.25.52.24.8.01.32-.1.62-.28.86a.97.97 0 0 1-.42.33c.22.08.42.2.6.36.24.28.37.65.36 1.02 0 .36-.12.71-.34.98-.3.44-.8.66-1.49.66h-2.21v-5.6Zm1.98 2.35c.24.03.48-.02.7-.14a.72.72 0 0 0 .31-.3c.07-.13.1-.29.1-.44a.72.72 0 0 0-.1-.45.65.65 0 0 0-.34-.27 1.4 1.4 0 0 0-.7-.12h-1.26v1.72h1.29Zm.23 2.58c.18.02.35 0 .52-.08.17-.06.31-.17.43-.31.1-.18.16-.4.16-.61a.85.85 0 0 0-.49-.83c-.23-.1-.48-.14-.72-.14h-1.42v1.97h1.52Zm2.7-4.93h3.78v.69h-3.08v1.69h2.82v.64h-2.82v1.9h3.13v.67h-3.83v-5.6Zm4.84 0h2.36c.33-.02.66.05.95.2.49.21.72.66.72 1.3.06.56-.22 1.1-.72 1.35.18.06.34.18.47.33.12.22.17.47.15.72v.75l.05.47c.02.07.05.13.09.2.04.05.09.1.14.13v.14h-.82l-.08-.2c0-.08-.02-.21-.02-.44l-.05-.94a.86.86 0 0 0-.08-.42.67.67 0 0 0-.28-.3c-.2-.09-.41-.13-.62-.1h-1.54v2.4h-.72v-5.6Zm2.28 2.55c.27.01.54-.05.78-.2.2-.2.3-.5.28-.78a.95.95 0 0 0-.09-.46.78.78 0 0 0-.32-.34 1 1 0 0 0-.54-.13h-1.67v1.9h1.57Zm3.32 1.24c.01.27.08.54.21.78.23.36.61.55 1.18.55.24 0 .47-.05.69-.14.42-.16.62-.44.62-.83a.76.76 0 0 0-.06-.36.74.74 0 0 0-.2-.3 3.62 3.62 0 0 0-.82-.33l-.69-.17a2.7 2.7 0 0 1-.93-.36 1.2 1.2 0 0 1-.49-1.06c0-.22.04-.45.11-.67.08-.21.2-.4.36-.57.37-.33.85-.5 1.33-.47.49-.01.96.13 1.37.42.18.16.33.36.42.6.1.24.14.5.12.75h-.65c-.02-.25-.1-.49-.23-.69-.2-.28-.54-.41-1.03-.41a1.2 1.2 0 0 0-.46.04c-.15.05-.29.13-.41.23a.82.82 0 0 0-.26.64c0 .24.11.47.31.61.29.14.61.25.93.3l.69.17c.28.08.55.2.8.36.15.13.27.3.35.5s.12.42.11.63c0 .63-.21 1.07-.62 1.33-.42.29-.91.43-1.41.42a2 2 0 0 1-1.47-.56c-.18-.17-.32-.4-.41-.64-.1-.24-.14-.5-.13-.77h.67Zm4.42-3.79h3.79v.69h-3.09v1.69h2.85v.64h-2.85v1.9h3.14v.67h-3.84v-5.6Zm8.44.41c.35.33.57.79.59 1.27h-.67a1.43 1.43 0 0 0-.49-.88 1.27 1.27 0 0 0-.92-.3c-.24-.01-.47.03-.68.13s-.4.26-.56.45c-.3.39-.46 1-.46 1.77a2.7 2.7 0 0 0 .44 1.6c.14.21.33.38.54.48.22.11.46.15.69.13.23.02.46-.04.66-.15s.37-.28.5-.48c.17-.27.28-.57.33-.89h.67a2.58 2.58 0 0 1-.59 1.47 2.1 2.1 0 0 1-1.64.72c-.56 0-1.1-.2-1.52-.58-.52-.53-.8-1.33-.8-2.41-.03-.73.19-1.45.62-2.02.41-.56 1.07-.9 1.77-.89.57-.04 1.12.17 1.52.58Zm2.31-.41v3.46c0 .34.07.69.21 1 .2.4.63.64 1.08.6.58 0 .99-.22 1.23-.66.12-.3.17-.62.16-.94v-3.46h.72v3.13c.03.55-.06 1.1-.26 1.6-.31.67-.92 1-1.8 1-.87 0-1.46-.33-1.77-1-.2-.5-.29-1.05-.26-1.6v-3.13h.69Zm4.56 0h2.36c.33-.02.65.05.95.2.49.21.72.66.72 1.3 0 .28-.06.57-.18.82-.13.23-.32.4-.54.53.17.07.32.18.44.33.13.21.19.47.18.72v.75c0 .16.02.32.05.47.05.17.1.28.23.33v.14h-.87a1.3 1.3 0 0 1-.05-.2c-.03-.14-.04-.29-.03-.44l-.05-.94c-.03-.36-.13-.6-.36-.72-.2-.1-.4-.13-.62-.1h-1.54v2.4h-.69v-5.6Zm2.28 2.55c.27.01.53-.05.75-.2a.8.8 0 0 0 .23-.35.88.88 0 0 0 .05-.42.82.82 0 0 0-.08-.47.81.81 0 0 0-.3-.34c-.18-.1-.37-.14-.57-.13h-1.67v1.9h1.59Zm3.01-2.55h.72v5.6h-.72v-5.6Zm5.63 0v.66h-1.74v4.93h-.72v-4.93h-1.75v-.66h4.21Zm.24 0h.82l1.49 2.68 1.49-2.68h.83l-1.96 3.32v2.27h-.69v-2.27l-1.98-3.32Zm-64.94 10.82h9.1v3.57h-2.7l3.4 12.71 5.43-14.06 1.95.05 5.5 14.01 3.32-12.65h-3.03v-3.82h9.28v3.82h-2.29l-5.89 21.04h-2.13l-5.74-14.98-5.88 15.04h-2.24l-5.89-20.99h-2.19v-3.74Z"/><path fill="#f2f2f2" d="m998.22 402.89-.85 3.48h2.19s-1.86 7.4-1.5 8.45.42 2.52 3.78 2.38c3.37-.14 3.73-4.63 3.73-4.63l-1.57-.71s-.61 2.32-1.64 2.63c-1.03.3.38-5.1 1.08-8.25l.82-3.38-6.04.03Zm4.52-1.49c1.24 0 2.24-1.09 2.24-2.42s-1-2.4-2.24-2.4c-1.23 0-2.23 1.07-2.23 2.4s1 2.41 2.23 2.41Z"/><path fill="#f2f2f2" d="M1023.01 410.28a7.99 7.99 0 0 1-3.62 2.68c-1.4.51-2.94.59-4.39.22a7.85 7.85 0 0 1-3.83-2.3 9.22 9.22 0 0 1-1.9-8.87 8.67 8.67 0 0 1 2.51-3.88 7.47 7.47 0 0 1 8.37-1.17c-.13.74 0 1.5.36 2.15a3 3 0 0 0 1.11 1.15c.93.54 2.1.49 2.96-.15a3.25 3.25 0 0 0 .72-4.42c-.3-.45-.72-.8-1.21-1.03-2.57-1.96-3.86-2.74-7.33-2.74-2.02 0-4.02.55-5.79 1.6a12.43 12.43 0 0 0-4.37 4.39c-2.21 3.8-2.5 8.4-.76 12.44a12.78 12.78 0 0 0 3.79 4.97 11.28 11.28 0 0 0 11.48 1.63c1.91-.81 3.58-2.1 4.86-3.74l-2.96-2.93Z"/><path fill="#f2f2f2" d="M1022.21 402.94v3.55h1.36l4.63 9.46s-.56 2.33-1.67 2.47c0 0-1.49-2.25-3.08.27 0 0-.49 2.1 1.41 2.72 1.9.6 4.19.33 5.81-3.19 1.78-4.03 3.5-8.08 5.17-12.15h1.54v-3.32h-6.61v3.32h1.68l-2.34 6.12-2.6-6.04h1.62v-3.38s-6.22.03-6.87-.05c-.02 0-.05.2-.05.22Z"/><path fill="#f2f2f2" d="M1046.95 396.35s-.75 3.32 1.31 3.63c2.06.3 3.19-.75 3.24-2.35.05-1.61-1.34-5.3-6.32-5.4-4.99-.11-8.93 2.54-8.75 6.67.18 4.12 2.14 6.04 7.1 7.95 4.96 1.9 4.37 6.64.64 7.08s-3.96-1.02-3.96-1.02 1.42-3.63-2.41-3.88c-3.84-.25-3.25 5.79-.73 6.73 2.53.94 4.09 2.63 8.11 2.05 4.01-.58 6.58-3.32 6.58-6.43 0-3.1-.9-7.14-8.41-9.1-7.51-1.97-1.41-8.34 3.6-5.93Zm-85.63-218.19c0 1-.82 1.9-2.03 1.9h-2.02v-13.99c.23-3.72 1.67-6.69 7.7-6.9 2.6.03 4.5 1 5.6 2.23 1.2 1.45 1.71 3.27 1.71 5.56 0 2.36-.6 4.27-1.8 5.74a5.76 5.76 0 0 1-4.59 2.13c-2.8 0-4.17-1.1-4.55-1.3-.02.13-.02 4.63-.02 4.63Zm6.82-11.03c0-1.45-.27-4.55-3.47-4.55-3.03 0-3.35 3.01-3.35 4.55 0 3.9 2.35 4.38 3.47 4.38 2.9.01 3.35-2.88 3.35-4.38Zm-26.05 6.07c1.34 1.07 3.37 1.6 6.07 1.6 2.6 0 4.64-.5 6.07-1.56a5.6 5.6 0 0 0 2.14-4.7 4.9 4.9 0 0 0-.65-2.57 4.63 4.63 0 0 0-2-1.8 9.08 9.08 0 0 0-1.56-.55c-.73-.21-4.36-1.14-4.73-1.24-2.01-.46-3.3-1.08-3.3-2.21.1-2.18 2.25-2.35 3.44-2.35 1.23 0 2.2.23 2.91.72 1.28.93 1.13 2.13 1.13 2.13h4.05a6.04 6.04 0 0 0-2.15-4.53c-1.28-1.07-3.15-1.58-5.58-1.58-2.58 0-4.55.5-5.9 1.5a5.18 5.18 0 0 0-2.03 4.32c0 2.35 1.18 3.73 2.26 4.36.65.36 2.13.93 4.04 1.28l1.61.33c2.8.64 4.4 1.44 4.34 2.75-.02.78-.31 1.38-.95 1.78-.57.36-1.55.6-2.79.6a5.88 5.88 0 0 1-3.28-.77c-.75-.44-1.2-1.22-1.36-2.35h-4.16c.12 2.15.91 3.75 2.38 4.84Zm38.4-10.73c2.56-.03 2.95 2.01 3.03 3.02h-6.06s-.06-2.97 3.03-3.02Zm.18 9c-1.02-.05-2.98-.23-3.16-3.46h10.3v-1.16c-.05-2.43-.68-4.25-1.9-5.6-1.29-1.34-3.15-2.01-5.52-2.01-2.26 0-4.03.68-5.3 2.06-1.22 1.34-1.85 3.21-1.85 5.59 0 2.49.63 4.42 1.9 5.76 1.26 1.38 3.03 2.06 5.3 2.06a7.9 7.9 0 0 0 4.64-1.28 6.13 6.13 0 0 0 2.5-3.57H984c-.53 1.4-1.87 1.69-3.33 1.61Zm69.15 3h-4.13v-9.57c0-1.1-.48-2.59-2.8-2.59-2.3 0-2.76 1.69-2.76 2.6v9.54h-4.18v-8.77c0-2.54.79-4.1 2.12-5.11 1.3-1 2.97-1.33 4.69-1.4.9 0 1.8.08 2.69.27.86.19 1.67.56 2.39 1.13a5.54 5.54 0 0 1 2.11-1.04c.83-.22 1.68-.34 2.54-.35 5.1-.03 7.16 2.17 7.32 2.86v12.41h-2.36c-.6 0-2.03-.38-2.03-1.9v-7.65c0-1.07-.39-2.59-2.8-2.59-2.4 0-2.81 1.69-2.81 2.6v9.55Zm-50.62-4.62h3.9s-1.04 4.86-6.97 4.86c-5.9 0-7.36-4.45-7.36-7.38 0-2.93.54-7.93 7.13-8.1 6.08-.09 7.08 4.85 7.08 4.85h-4.17s-.4-1.67-2.89-1.61c-2.48.05-3.12 2.24-3.12 4.32s.54 4.68 3.3 4.68c2.64.08 2.88-1.25 3.1-1.62Zm21.73-10.3h4.17v9.51s-.14 2.56 2.74 2.56c2.72 0 2.8-2.3 2.8-2.46v-7.76s.13-1.85 1.95-1.85h2.18v8.84c-.03.48.53 6.33-6.91 6.3-7.38 0-6.86-5.91-6.91-6.25v-8.89Zm-12.76 3.98h2.45v-3.92h-2.43v-2.52c0-.68-.4-1.9-1.96-1.9h-2.15v16.46c0 1.7.7 2.73 2.24 2.73h1.85Zm6.83 10.88v-7.66c0-1.1.27-1.93.82-2.45.55-.5 1.4-.78 2.57-.78h1.36v-4s-2.16-.04-3.71.4c-.96.25-1.86.66-2.65 1.22a5.99 5.99 0 0 0-1.88 2.37 8.8 8.8 0 0 0-.67 3.66v7.2h4.16v.05Zm46-12.37v12.41l8.71-6.2"/></svg>