<svg xmlns="http://www.w3.org/2000/svg" fill="none" viewBox="0 0 318 250"><path fill="#F2F2F2" d="M13.72 30.3v1.96H0V30.3h13.72Zm21.43 0a7.43 7.43 0 0 1-5.05 1.96l-14.43-.02V30.3h19.48Zm20.4 0-.7 1.96-.67-1.96h1.36Zm-6.57 0v1.96h-9.8V30.3h9.8Zm21.56 0v1.96h-9.8V30.3h9.8Zm-33.17-3.73a7.42 7.42 0 0 1-.79 1.96h-20.9v-1.96h21.69Zm19.49 0-.7 1.96h-2.6l-.7-1.96h4Zm-7.88 0v1.96h-9.8v-1.96h9.8Zm21.56 0v1.96h-9.8v-1.96h9.8Zm-56.82 0v1.96H0v-1.96h13.72ZM9.8 22.83v1.96H3.92v-1.96H9.8Zm15.67 0v1.96H19.6v-1.96h5.88Zm11.85 0c.18.64.26 1.3.26 1.96H31v-1.96h6.33Zm20.85 0-.69 1.96h-5.24l-.69-1.96h6.62Zm-9.19 0v1.96h-5.87v-1.96h5.87Zm17.64 0v1.96h-5.88v-1.96h5.88ZM9.8 19.1v1.96H3.92V19.1H9.8Zm39.18 0v1.96h-5.87V19.1h5.87Zm17.64 0v1.96h-5.88V19.1h5.88Zm-31.68 0a7.5 7.5 0 0 1 1.64 1.96H19.59V19.1h15.35Zm24.54 0-.68 1.96h-7.87l-.69-1.96h9.24Zm-5.17-3.73.55 1.58.55-1.58h11.2v1.95h-5.87v-1.8l-.63 1.8H49.6l-.63-1.8v1.8H43.1v-1.95h11.2Zm-34.72 0h16.99a7.5 7.5 0 0 1-1.64 1.95H19.6v-1.95Zm-9.8 0v1.95H3.93v-1.95H9.8Zm0-3.74v1.96H3.93v-1.96H9.8Zm15.68 0v1.96H19.6v-1.96h5.88Zm12.11 0c0 .66-.08 1.32-.26 1.96H31v-1.96h6.6Zm15.43 0 .68 1.96H43.11v-1.96H53Zm13.6 0v1.96H56.04l.68-1.96h9.9Zm-52.9-3.74v1.96H0V7.88h13.72Zm22.87 0c.36.61.62 1.27.79 1.96h-21.7V7.88h20.91Zm33.96 0v1.96h-13.2L58 7.88h12.53Zm-18.83 0 .68 1.96H39.2V7.88h12.5Zm-38-3.73V6.1H0V4.15h13.72Zm16.4 0c1.86 0 3.66.7 5.04 1.95H15.68V4.15H30.1Zm40.43 0V6.1h-11.9l.68-1.95h11.22Zm-20.13 0 .68 1.95H39.2V4.15h11.2Zm104.64 12.29c-.45.2-.82.48-1.1.87-.26.38-.4.85-.4 1.4 0 .7.3 1.24.88 1.62.56.36 1.14.45 1.75.27.7-.2 1.18-.7 1.43-1.5a4 4 0 0 0 .18-1.24V15.9a6.83 6.83 0 0 0-2.74.55ZM156.12.57a17.64 17.64 0 1 0 0 35.27 17.64 17.64 0 0 0 0-35.27Zm1.4 10.34c-.28-.43-.79-.65-1.52-.65-.05 0-.12 0-.2.02-.1 0-.27.06-.51.14-.25.1-.49.21-.7.36-.22.15-.46.4-.72.72a4.1 4.1 0 0 0-.6 1.18l-3.7-.33a4.41 4.41 0 0 1 1.12-2.83c.38-.44.83-.83 1.36-1.16.52-.33 1.16-.6 1.9-.8a9.15 9.15 0 0 1 4.67 0 4.6 4.6 0 0 1 3.22 2.81c.1.33.16.63.16.9v7.19a2.78 2.78 0 0 0 .57 1.48 6.82 6.82 0 0 0 .89.96l.16.13-2.86 2.74a43.12 43.12 0 0 1-1.72-1.64l-.23-.24c-.1-.1-.2-.23-.32-.4a5.25 5.25 0 0 1-2.83 2.03c-.57.16-1.15.25-1.76.27a4.5 4.5 0 0 1-1.72-.25 5.36 5.36 0 0 1-1.48-.8 3.5 3.5 0 0 1-1.05-1.38 4.8 4.8 0 0 1-.39-1.98 4.67 4.67 0 0 1 2.6-4.31c.52-.3 1.04-.53 1.54-.7a13.48 13.48 0 0 1 3.14-.65c.42-.03.83-.06 1.25-.07V12.1c0-.54-.1-.93-.26-1.19Zm7.11 14.94c-.11.13-.3.3-.56.53a13.6 13.6 0 0 1-2.97 1.73 13.7 13.7 0 0 1-5.25 1 13.42 13.42 0 0 1-7.8-2.58 11.91 11.91 0 0 1-2.72-2.35.54.54 0 0 1-.12-.18.19.19 0 0 1 .01-.15.28.28 0 0 1 .1-.08.3.3 0 0 1 .3.03c1.6.95 2.86 1.62 3.77 2.02a16.32 16.32 0 0 0 10.05 1.1c1.6-.33 3.23-.87 4.91-1.65a.55.55 0 0 1 .33-.03c.1.02.14.1.14.21 0 .11-.06.25-.19.4Zm2.36-1.14c-.07.44-.2.85-.36 1.25a3.69 3.69 0 0 1-1.07 1.51c-.14.12-.25.15-.32.11-.08-.04-.08-.13 0-.29.17-.36.36-.86.55-1.48.2-.62.23-1.02.09-1.2a.45.45 0 0 0-.2-.14 1.3 1.3 0 0 0-.34-.08l-.37-.03a4.04 4.04 0 0 0-.84.02 34.03 34.03 0 0 1-.97.1h-.1l-.1.01h-.16l-.02-.02-.02-.04c-.05-.13.15-.29.6-.49a5.46 5.46 0 0 1 2.64-.37c.52.04.84.14.96.29.1.13.1.42.03.85Z"/><path fill="#A5CCE2" d="M258.32 17.33H241.7V.57h16.63v16.76Z"/><path fill="#6990A6" d="M276.69 17.33h-16.63V.57h16.63v16.76Z"/><path fill="#194056" d="M258.32 35.84H241.7V19.08h16.63v16.76Z"/><path fill="#F2F2F2" d="M276.69 35.84h-16.63V19.08h16.63v16.76ZM126.7 55.46c0-.57.55-.81 1.44-.81.88 0 1.44.2 1.44.8 0 .74-.89.82-1.44.82-.89 0-1.43-.23-1.43-.81Zm3.72 0c0-1.12-.84-1.9-2.28-1.9-1.03 0-2.28.52-2.28 1.9 0 1.31 1.1 1.91 2.28 1.91 1.2 0 2.28-.6 2.28-1.91Zm-3.71 5.25v-.8c0-.48.3-.66.56-.66.28 0 .57.2.57.67v.79h-1.14Zm1.9 0v-.76l1.76-.68v-1.15l-1.95.82a1.2 1.2 0 0 0-1.15-.78c-.82 0-1.34.54-1.34 1.61v1.98h4.44V60.7h-1.76Zm-1.03 2.03c-1.07.11-1.72.68-1.72 1.8 0 1.34 1.06 2 2.28 2 1.22 0 2.28-.66 2.28-1.97 0-1.02-.6-1.74-1.61-1.83l-.07 1c.42.07.84.3.84.78 0 .78-.78.86-1.39.86-.53 0-1.5-.06-1.5-.81 0-.57.45-.75.95-.75l-.06-1.08Zm2.78 4.81h-4.45v1.04h4.45v-1.04Zm0 4.48v.71l-3.62 1.07v.03h3.62v.88h-4.45v-1.64l2.67-.78-2.67-.8v-1.64h4.45v1.03h-3.62v.04l3.62 1.1ZM38.9 74.72H22.09l-4.06-15.08H18v15.08h-6.87V53.88h11.92c1.26 4.8 3.9 14.7 3.9 14.7H27v-14.7h6.88v3.17a9.73 9.73 0 0 0-2.7 6.9c0 4.1 2.3 9.18 7.73 10.77Zm81.68-20.84v20.84h-7.2V58.41h-.1l-4.14 16.31h-6.64l-4.14-16.31h-.1v16.31h-12.6l-1.26-4.5h-6.77l-1.26 4.5H64.33s-.4-3.06-.52-3.84c-.35-2.58-1.13-3.21-2.66-3.21h-2.1v7.03H46.72a31 31 0 0 0 8.6-3.53l-2.6-9.84-6.88 1.81 1.47 5.58c-.43.3-1.85.81-2.84.81-3.28 0-4.85-3.3-4.85-6.14 0-4.6 4.66-6.34 8.76-6.34.95 0 2.18.08 2.36.1l-.84-3.27h14.35c5.74 0 7.97 2.73 7.97 5.65 0 4.4-4.19 5.22-4.98 5.36-.02 0-.02.13 0 .13a5.07 5.07 0 0 1 3.68 2.55c-.03-.07 4.38-12.54 4.79-13.69h11.02l4.65 13.07h.07V53.88h11.86s2.74 11.42 2.76 11.42l2.7-11.42h11.81Zm-120.56 0H8l-.02 20.84H0l.02-20.84Zm80.94 4.48-2.23 6.87h4.6l-2.24-6.87h-.13Zm-21.88 4.62h2.37c1.94 0 2.75-1 2.75-2.24 0-1.57-1.34-2.19-2.75-2.19h-2.37v4.43Zm112.5 1.06c1.88 0 3.4-1.8 3.4-4.04 0-2.23-1.52-4.04-3.4-4.04-1.89 0-3.41 1.81-3.41 4.04s1.52 4.04 3.4 4.04Z"/><path fill="#F2F2F2" d="m167.35 63.47-.32 1.92a5.44 5.44 0 0 0 2 1.75c.78.38 1.63.54 2.47.46 3.9-.29 8.03-5.48 8.68-16.45 0 0-2.1 11.26-6.33 13.86-4.22 2.6-6.5-1.54-6.5-1.54Zm14.45-8.18h-.72v-4.23h.73v4.23Zm2.93-4.14c.26.11.49.31.65.58l.24.67c0 .2.08.49.08.68.03.5-.08 1.02-.32 1.44a1.5 1.5 0 0 1-.48.57c-.2.13-.43.2-.66.2h-1.54v-4.23h2.03v.1Zm-1.3.68v2.7h.65c.16-.01.3-.07.44-.17a1 1 0 0 0 .3-.42 2 2 0 0 0 .15-.77 1.9 1.9 0 0 0-.24-1.05c-.08-.2-.32-.3-.65-.3h-.65Zm5.6 0h-1.78v.86h1.7v.77h-1.7v1.06h1.86v.77h-2.6v-4.23h2.52v.77Zm.9-.77h.8l1.39 2.98v-2.98h.65v4.23h-.73l-1.38-2.98v2.98h-.73v-4.23Zm6.33 0v.77h-1.06v3.46h-.73v-3.46h-1.05v-.77h2.84Zm1.38 4.23h-.73v-4.23h.73v4.23Zm3.41-4.23v.77h-.98v3.46h-.8v-3.46h-.98v-.77h2.76Zm2.68 0h.9l-1.23 2.6v1.63h-.73v-1.63l-1.21-2.6h.89l.73 1.83.65-1.83Zm-20.3 5.77h1.06v4.23h-.65V57.5l-.65 3.56h-.73l-.65-3.56v3.56h-.73v-4.23h1.05l.65 3.27.65-3.27Zm3.01 0h.8l1.22 4.23h-.8l-.17-.86h-1.3l-.24.86h-.81l1.3-4.23Zm-.09 2.6h.9l-.4-1.64-.5 1.64Zm2.85-2.6h.73l1.38 2.98v-2.98h.73v4.23h-.73l-1.47-2.98v2.98h-.65v-4.23Zm4.7 0h.9l1.21 4.23h-.8l-.25-.86h-1.3l-.24.86h-.73l1.21-4.23Zm0 2.6h.9l-.49-1.64-.4 1.64Zm5.12-1.25a.64.64 0 0 0-.11-.38.47.47 0 0 0-.3-.2h-.4a.64.64 0 0 0-.37.09.79.79 0 0 0-.28.3c-.2.33-.29.74-.25 1.15-.03.37.06.75.25 1.06.18.18.41.28.65.28l.65-.19c.14-.18.23-.42.24-.67h-.81v-.77h1.46v2.3h-.49v-.67l-.4.49-.73.19c-.22 0-.43-.04-.63-.14s-.37-.25-.51-.44a2.58 2.58 0 0 1-.49-1.63c-.01-.29.02-.57.1-.84.1-.26.22-.5.39-.7.14-.22.33-.4.54-.52.21-.11.44-.17.68-.16.41 0 .81.17 1.13.48.13.11.24.26.3.43.08.16.11.35.11.54h-.73Zm4.3-.58h-1.86v.86h1.7v.77h-1.7v1.06h1.94v.77h-2.68v-4.23h2.6v.77Zm3.25-.77h1.06v4.23h-.73V57.5l-.65 3.56h-.74l-.64-3.56v3.56h-.65v-4.23h1.05l.65 3.27.65-3.27Zm4.55.77h-1.87v.86h1.7v.77h-1.7v1.06h1.95v.77h-2.68v-4.23h2.6v.77Zm.89-.77h.73l1.46 2.98v-2.98h.65v4.23h-.73l-1.46-2.98v2.98h-.65v-4.23Zm6.33 0v.77h-1.05v3.46h-.73V57.6h-1.06v-.77h2.84Zm-36.54 10h-.72V62.6h.73v4.23Zm.9-4.23h.73l1.46 2.98V62.6h.65v4.23h-.73l-1.46-2.98v2.98h-.65V62.6Zm4.3 2.89c0 .17.07.34.16.48.09.19.33.19.57.19h.5c.07-.04.13-.1.18-.2a.55.55 0 0 0 .05-.28c0-.2 0-.29-.08-.39l-.48-.19h-.41l-.81-.29a1.46 1.46 0 0 1-.25-1.39c.05-.16.14-.31.25-.43.14-.15.31-.26.5-.33.17-.06.36-.08.55-.06a1.4 1.4 0 0 1 1.28.8c.07.17.1.36.1.55h-.73a.58.58 0 0 0-.05-.29.44.44 0 0 0-.19-.2h-.9c-.16.1-.24.2-.24.4 0 .18.08.28.16.28.07.07.15.12.23.16.09.03.17.04.26.03l.65.2.57.28c.11.1.2.23.26.39.06.15.08.31.06.48.01.18-.01.36-.07.52-.06.17-.14.32-.25.44-.31.24-.68.38-1.06.39-.4 0-.8-.14-1.13-.39a1.3 1.3 0 0 1-.3-.47 1.34 1.34 0 0 1-.1-.59l.72-.1Zm5.52-2.89v.77h-1.05v3.46h-.73v-3.46h-1.06v-.77h2.84Zm1.3 4.23h-.73V62.6h.73v4.23Zm3.49-4.23v.77h-1.05v3.46h-.73v-3.46h-1.06v-.77h2.84Zm.65 0h.82v2.6c0 .29 0 .48.08.57.08.1.24.39.56.39a.5.5 0 0 0 .34-.09c.1-.07.18-.17.23-.3.08-.1.08-.28.08-.57v-2.6h.74v2.6c0 .36-.06.72-.17 1.06-.14.21-.32.4-.54.5-.2.13-.44.18-.67.17-.24.03-.48-.02-.7-.14-.2-.12-.4-.3-.52-.53a1.97 1.97 0 0 1-.25-1.06v-2.6Zm6.34 0v.77h-1.06v3.46h-.73v-3.46h-1.05v-.77h2.84Zm3.24.77h-1.86v.87h1.7V65h-1.7v1.05h1.95v.77h-2.6V62.6h2.51v.77Zm-25.77 4.55.1.03a.37.37 0 0 1-.12.21.35.35 0 0 1-.22.07.4.4 0 0 1-.22-.05.36.36 0 0 1-.13-.16.58.58 0 0 1 0-.46.34.34 0 0 1 .15-.15.42.42 0 0 1 .2-.05c.09 0 .16.02.21.07.06.04.1.1.12.18l-.1.02a.26.26 0 0 0-.1-.13.23.23 0 0 0-.13-.04.27.27 0 0 0-.16.04.25.25 0 0 0-.1.13.52.52 0 0 0-.02.16c0 .07 0 .13.03.19.02.05.05.1.1.12.04.02.09.04.14.04.06 0 .12-.02.16-.06a.28.28 0 0 0 .09-.16Zm.65.1.1.01a.26.26 0 0 1-.09.15.28.28 0 0 1-.17.05.28.28 0 0 1-.21-.08.32.32 0 0 1-.08-.23c0-.1.03-.18.08-.24a.27.27 0 0 1 .2-.09c.09 0 .15.03.2.09.05.05.08.13.08.23v.03h-.46c0 .07.03.12.06.15a.18.18 0 0 0 .23.03.2.2 0 0 0 .06-.1Zm-.34-.17h.34a.2.2 0 0 0-.04-.11.16.16 0 0 0-.13-.06.17.17 0 0 0-.12.05.19.19 0 0 0-.05.12Zm.58.37v-.61h.09v.09c.04-.07.11-.1.2-.1l.1.01c.03.02.05.03.06.06a.2.2 0 0 1 .04.07v.48h-.1v-.37l-.01-.1a.1.1 0 0 0-.05-.05.13.13 0 0 0-.07-.02.17.17 0 0 0-.11.05c-.03.02-.05.08-.05.16v.33h-.1Zm.88-.1.01.1h-.08l-.08-.01a.1.1 0 0 1-.05-.05.38.38 0 0 1-.01-.12v-.35h-.08v-.08h.08v-.15l.1-.06v.2h.1v.09h-.1v.41l.03.02.03.01h.05Zm.52-.1.1.01a.26.26 0 0 1-.1.15.28.28 0 0 1-.16.05.28.28 0 0 1-.22-.08.32.32 0 0 1-.08-.23c0-.1.03-.18.08-.24a.27.27 0 0 1 .2-.09c.1 0 .16.03.2.09.06.05.09.13.09.23v.03h-.46c0 .07.02.12.06.15.03.04.07.06.13.06a.2.2 0 0 0 .1-.03.2.2 0 0 0 .06-.1Zm-.34-.17h.34a.2.2 0 0 0-.04-.11.16.16 0 0 0-.13-.06.17.17 0 0 0-.12.05.19.19 0 0 0-.05.12Zm.57.37v-.61h.1v.1a.27.27 0 0 1 .06-.1.12.12 0 0 1 .07-.02.2.2 0 0 1 .1.04l-.03.1a.15.15 0 0 0-.08-.03.1.1 0 0 0-.1.08.39.39 0 0 0-.01.12v.32h-.1Zm.75 0v-.53h-.1v-.08h.1v-.16a.13.13 0 0 1 .06-.06.19.19 0 0 1 .1-.03l.1.01-.01.1-.06-.01c-.04 0-.06 0-.07.02l-.02.07v.06h.12v.08h-.12v.53h-.1Zm.26-.3c0-.12.03-.2.1-.26a.28.28 0 0 1 .19-.07c.08 0 .15.03.2.09.06.05.08.13.08.22a.4.4 0 0 1-.03.19.24.24 0 0 1-.1.1.3.3 0 0 1-.15.04.28.28 0 0 1-.21-.08.35.35 0 0 1-.08-.24Zm.1 0c0 .07.02.13.06.17.03.04.07.06.13.06.05 0 .09-.02.12-.06.04-.04.06-.1.06-.18 0-.08-.02-.13-.06-.17a.16.16 0 0 0-.12-.06c-.06 0-.1.02-.13.06-.04.04-.05.1-.05.17Zm.6.3v-.61h.09v.1a.26.26 0 0 1 .06-.1.11.11 0 0 1 .07-.02.2.2 0 0 1 .1.04l-.03.1a.15.15 0 0 0-.08-.03.1.1 0 0 0-.1.08.39.39 0 0 0-.01.12v.32h-.1Zm.74 0v-.84h.12v.84h-.12Zm.7 0v-.08a.2.2 0 0 1-.18.1.24.24 0 0 1-.13-.05.27.27 0 0 1-.1-.11.4.4 0 0 1-.03-.17c0-.06.01-.11.03-.16a.24.24 0 0 1 .23-.16.2.2 0 0 1 .17.09v-.3h.1v.84h-.1Zm-.33-.3c0 .07.01.13.05.17a.15.15 0 0 0 .23 0c.03-.04.05-.1.05-.17a.3.3 0 0 0-.05-.18.15.15 0 0 0-.12-.06.15.15 0 0 0-.12.06c-.03.03-.04.1-.04.17Zm1 .1.1.01a.26.26 0 0 1-.09.15.28.28 0 0 1-.17.05.28.28 0 0 1-.21-.08.32.32 0 0 1-.08-.23c0-.1.03-.18.08-.24a.27.27 0 0 1 .2-.09c.09 0 .15.03.2.09.06.05.08.13.08.23v.03h-.45c0 .07.02.12.05.15a.18.18 0 0 0 .23.03.2.2 0 0 0 .06-.1Zm-.34-.17h.34a.2.2 0 0 0-.04-.11.16.16 0 0 0-.13-.06.17.17 0 0 0-.12.05.19.19 0 0 0-.05.12Zm.58.37v-.61h.1v.09c.04-.07.1-.1.19-.1l.1.01.07.06a.2.2 0 0 1 .03.07v.48h-.1v-.37l-.01-.1a.1.1 0 0 0-.04-.05.13.13 0 0 0-.08-.02.17.17 0 0 0-.11.05c-.03.02-.05.08-.05.16v.33h-.1Zm.88-.1.01.1h-.08l-.08-.01a.1.1 0 0 1-.05-.05.38.38 0 0 1 0-.12v-.35h-.08v-.08h.07v-.15l.1-.06v.2h.1v.09h-.1v.41l.03.02.03.01h.05Zm.1-.62v-.12h.1v.12h-.1Zm0 .72v-.61h.1v.6h-.1Zm.49-.1.01.1h-.08l-.08-.01a.1.1 0 0 1-.05-.05.38.38 0 0 1-.01-.12v-.35h-.08v-.08h.08v-.15l.1-.06v.2h.1v.09h-.1v.41l.03.02.03.01h.05Zm.1.33-.02-.1.06.02c.03 0 .04 0 .06-.02a.1.1 0 0 0 .03-.03.52.52 0 0 0 .04-.1l-.23-.61h.11l.13.35.04.14.05-.14.13-.35h.1l-.23.62a1.2 1.2 0 0 1-.06.14.21.21 0 0 1-.06.07.15.15 0 0 1-.09.03c-.02 0-.04 0-.07-.02Zm1.32-.56v-.1h.36v.31a.64.64 0 0 1-.17.1.5.5 0 0 1-.4-.02.36.36 0 0 1-.16-.15.52.52 0 0 1 0-.45.34.34 0 0 1 .15-.17.46.46 0 0 1 .22-.05c.06 0 .12.01.16.03.05.02.1.05.12.08.03.04.05.09.06.14l-.1.03a.31.31 0 0 0-.04-.1.2.2 0 0 0-.08-.06.34.34 0 0 0-.25 0 .24.24 0 0 0-.1.06.27.27 0 0 0-.04.08.43.43 0 0 0-.04.17c0 .08.02.14.04.2a.35.35 0 0 0 .27.15c.05 0 .1-.02.14-.04a.37.37 0 0 0 .1-.06v-.15h-.24Zm.47.02c0-.11.03-.2.1-.25a.29.29 0 0 1 .19-.07c.08 0 .15.03.2.09.06.05.08.13.08.22a.4.4 0 0 1-.03.19.25.25 0 0 1-.1.1.3.3 0 0 1-.15.04.28.28 0 0 1-.21-.08.35.35 0 0 1-.08-.24Zm.1 0c0 .08.02.14.06.18.03.04.07.06.13.06.05 0 .09-.02.12-.06.04-.04.06-.1.06-.18 0-.08-.02-.13-.06-.17a.16.16 0 0 0-.12-.06c-.06 0-.1.02-.13.06-.04.04-.05.1-.05.17Zm.76.3-.23-.6h.11l.13.36.04.13c0-.04.02-.07.04-.12l.13-.37h.11l-.23.6h-.1Zm.84-.19.1.01a.26.26 0 0 1-.09.15.28.28 0 0 1-.17.05.28.28 0 0 1-.22-.08.32.32 0 0 1-.07-.23c0-.1.02-.18.08-.24a.27.27 0 0 1 .2-.09c.08 0 .15.03.2.09.05.05.08.13.08.23v.03h-.46c0 .07.03.12.06.15.03.04.08.06.13.06a.2.2 0 0 0 .1-.03.2.2 0 0 0 .06-.1Zm-.34-.17h.34a.2.2 0 0 0-.04-.11.16.16 0 0 0-.13-.06.17.17 0 0 0-.12.05.19.19 0 0 0-.05.12Zm.57.37v-.61h.1v.1a.26.26 0 0 1 .06-.1.11.11 0 0 1 .07-.02.2.2 0 0 1 .1.04l-.03.1a.15.15 0 0 0-.08-.03.1.1 0 0 0-.1.08.39.39 0 0 0-.01.12v.32h-.1Zm.4 0v-.61h.09v.09c.05-.07.1-.1.2-.1l.1.01c.03.02.05.03.06.06l.04.07v.48h-.1v-.37l-.01-.1a.1.1 0 0 0-.05-.05.13.13 0 0 0-.07-.02.17.17 0 0 0-.11.05c-.03.02-.05.08-.05.16v.33h-.1Zm1.05-.08a.38.38 0 0 1-.11.07.31.31 0 0 1-.11.02c-.07 0-.12-.01-.16-.05a.16.16 0 0 1-.05-.12.17.17 0 0 1 .07-.14.26.26 0 0 1 .07-.04l.1-.01a.92.92 0 0 0 .18-.04v-.03c0-.04 0-.07-.03-.08-.03-.03-.06-.04-.12-.04-.05 0-.08 0-.1.03-.03.01-.04.04-.06.09l-.1-.02.05-.1a.2.2 0 0 1 .1-.06.4.4 0 0 1 .13-.03l.13.02.07.05.03.07v.23l.01.19.03.07h-.11a.21.21 0 0 1-.02-.08Zm-.01-.23a.74.74 0 0 1-.17.04.37.37 0 0 0-.09.02.08.08 0 0 0-.04.04.1.1 0 0 0 .02.12l.09.02c.04 0 .07 0 .1-.03a.17.17 0 0 0 .07-.07.25.25 0 0 0 .02-.1v-.04Zm.27.3v-.6h.09v.09c.04-.07.1-.1.2-.1l.1.01c.02.02.05.03.06.06a.2.2 0 0 1 .03.07l.01.1v.38h-.1v-.37l-.01-.1a.1.1 0 0 0-.05-.05.14.14 0 0 0-.07-.02.17.17 0 0 0-.11.05c-.03.02-.05.08-.05.16v.33h-.1Zm1.05-.22.1.02a.26.26 0 0 1-.09.16.25.25 0 0 1-.16.06.26.26 0 0 1-.2-.08.34.34 0 0 1-.08-.23c0-.07 0-.13.03-.18a.23.23 0 0 1 .1-.1.3.3 0 0 1 .15-.05c.06 0 .12.02.16.06.04.03.07.08.08.14l-.1.01a.16.16 0 0 0-.05-.09.13.13 0 0 0-.09-.03c-.05 0-.1.02-.13.06-.03.03-.05.1-.05.17 0 .08.02.14.05.18.03.04.07.06.13.06.03 0 .07-.02.1-.04a.18.18 0 0 0 .05-.12Zm.6.03.11.01a.26.26 0 0 1-.1.15.28.28 0 0 1-.17.05.28.28 0 0 1-.2-.08.32.32 0 0 1-.09-.23c0-.1.03-.18.08-.24a.27.27 0 0 1 .2-.09c.09 0 .16.03.2.09.06.05.09.13.09.23v.03h-.46c0 .07.02.12.06.15.03.04.07.06.12.06.04 0 .07-.01.1-.03a.2.2 0 0 0 .06-.1Zm-.33-.17h.34a.2.2 0 0 0-.04-.11.16.16 0 0 0-.13-.06.17.17 0 0 0-.12.05.19.19 0 0 0-.05.12Zm56.96-17.1s10.68-4.7 11.1-4.98v28.95s-6.53-2.94-9.1-10.02c-2.56-7.08-2-13.95-2-13.95Z"/><path fill="#375E74" d="M275.78 50.75s-10.7-4.7-11.11-4.98v28.95s6.54-2.94 9.1-10.02c2.57-7.08 2.01-13.95 2.01-13.95Z"/><path fill="#F2F2F2" d="M255.63 64.7c-2.58-7.08-2-13.95-2-13.95s10.68-4.7 11.1-4.98"/><path fill="#375E74" d="M258.25 59.83v-3.86c0-2.8 1.5-5.4 3.88-6.53a6.1 6.1 0 0 1 2.62-.58v1.95a4.07 4.07 0 0 0-2.35.57 5.21 5.21 0 0 0-2.43 4.34c-.07 2.22 0 2.53 0 2.53l-1.72 1.58Z"/><path fill="#F2F2F2" d="M271.25 59.83v-3.86c0-2.8-1.49-5.4-3.88-6.53a6.1 6.1 0 0 0-2.62-.58v1.95c.82-.05 1.63.15 2.35.57a5.22 5.22 0 0 1 2.43 4.34c.07 2.22 0 2.53 0 2.53l1.72 1.58Z"/><path fill="#375E74" d="M264.74 64.8a.49.49 0 0 1-.37-.16.57.57 0 0 1-.15-.4v-5.71a.57.57 0 0 1 .15-.4.51.51 0 0 1 .37-.16h.01v-3.09a7.02 7.02 0 0 0-4.91 2.4 8.11 8.11 0 0 0-2.01 5.38c0 2.01.72 3.94 2 5.39a7.02 7.02 0 0 0 4.92 2.4V64.8h-.01Z"/><path fill="#F2F2F2" d="M264.74 54.88v3.09a.5.5 0 0 1 .36.16c.1.1.15.25.15.4v5.71c0 .15-.05.3-.15.4a.5.5 0 0 1-.36.16v5.64a7.02 7.02 0 0 0 4.9-2.4 8.12 8.12 0 0 0 2.02-5.38c0-2-.72-3.93-2.01-5.38a7.02 7.02 0 0 0-4.91-2.4ZM282.1 50c0 .14-.02.27-.07.4-.05.11-.12.22-.2.3a.74.74 0 0 1-.3.23.75.75 0 0 1-.37.07.8.8 0 0 1-.45-.12c-.13-.08-.25-.2-.33-.33a.88.88 0 0 1-.33.34.8.8 0 0 1-.45.11.74.74 0 0 1-.35-.07.66.66 0 0 1-.3-.22.96.96 0 0 1-.2-.31 1.21 1.21 0 0 1-.08-.4v-1.17h.32v1.2c0 .09.01.18.05.25a.54.54 0 0 0 .33.35c.07.05.15.07.23.06.09 0 .17-.01.25-.06a.55.55 0 0 0 .19-.13.46.46 0 0 0 .13-.22.51.51 0 0 0 .06-.25v-1.2h.31v1.2c0 .09.02.18.06.25.02.09.06.16.12.22s.13.1.2.13c.08.05.16.07.24.06.08 0 .17-.01.24-.06a.57.57 0 0 0 .2-.13.46.46 0 0 0 .13-.22.73.73 0 0 0 .06-.25v-1.2h.31V50Zm2.24 0c0 .14-.02.27-.07.4-.05.12-.12.23-.2.32a.74.74 0 0 1-.3.2.76.76 0 0 1-.37.08.74.74 0 0 1-.36-.07.75.75 0 0 1-.3-.2c-.08-.1-.15-.21-.2-.33a1.19 1.19 0 0 1-.07-.4v-.2c0-.14.02-.27.07-.4.05-.12.12-.22.2-.32a.6.6 0 0 1 .3-.2.77.77 0 0 1 .72 0c.12.03.22.1.3.2.09.1.15.2.21.32.04.13.07.26.07.4v.2Zm-.32 0v-.2c0-.1-.01-.2-.05-.28a.55.55 0 0 0-.12-.22.48.48 0 0 0-.2-.13.44.44 0 0 0-.25-.06.43.43 0 0 0-.24.06.52.52 0 0 0-.33.35.64.64 0 0 0-.05.28v.2c0 .1.02.2.06.28a.52.52 0 0 0 .32.35c.07.05.16.07.24.06.08 0 .17-.01.24-.06a.48.48 0 0 0 .2-.13c.06-.06.1-.13.13-.22a.65.65 0 0 0 .05-.28Zm4.11.97h-.31v-1.2a.52.52 0 0 0-.06-.25.55.55 0 0 0-.12-.22.49.49 0 0 0-.2-.13.42.42 0 0 0-.24-.06.48.48 0 0 0-.24.06.46.46 0 0 0-.2.13.53.53 0 0 0-.13.22.51.51 0 0 0-.05.25v1.2h-.32v-1.2a.51.51 0 0 0-.05-.25.53.53 0 0 0-.12-.22.49.49 0 0 0-.2-.13.42.42 0 0 0-.24-.06.48.48 0 0 0-.25.06.57.57 0 0 0-.19.13.54.54 0 0 0-.13.22.52.52 0 0 0-.06.25v1.2h-.31V49.8c0-.14.02-.27.06-.4.06-.12.13-.22.21-.32a.87.87 0 0 1 .3-.2.81.81 0 0 1 .82.04c.13.08.25.2.33.35a.84.84 0 0 1 .77-.49c.13 0 .25.03.36.1.11.03.22.1.3.2.08.1.15.2.2.32.05.13.07.26.07.4v1.17Zm2.24-.91h-1.55c0 .09.03.17.06.25.03.08.08.15.14.2.05.06.11.1.18.14a.66.66 0 0 0 .48 0 .76.76 0 0 0 .2-.15l.22.22a.75.75 0 0 1-.3.2.74.74 0 0 1-.36.08.76.76 0 0 1-.37-.07.87.87 0 0 1-.3-.2c-.08-.1-.15-.21-.2-.33a1.19 1.19 0 0 1-.07-.4v-.2c0-.14.03-.27.07-.4.06-.12.12-.22.2-.32a.87.87 0 0 1 .3-.2.8.8 0 0 1 .63-.04c.1.01.18.06.25.12.08.05.15.11.2.2a.85.85 0 0 1 .2.5c.02.08.02.17.02.25v.15Zm-.33-.32c0-.08 0-.15-.02-.22a.68.68 0 0 0-.23-.3.6.6 0 0 0-.6-.07.67.67 0 0 0-.31.34.74.74 0 0 0-.06.25h1.22Zm2.58 1.23h-.31v-1.2a.73.73 0 0 0-.2-.47.57.57 0 0 0-.18-.13.5.5 0 0 0-.25-.06.42.42 0 0 0-.23.06.51.51 0 0 0-.2.13c-.06.07-.1.14-.14.22a.73.73 0 0 0-.04.25v1.2h-.32V49.8a1.04 1.04 0 0 1 .28-.72.82.82 0 0 1 .28-.2.84.84 0 0 1 .37-.1c.13 0 .26.03.37.1.11.04.21.1.3.2.08.1.15.2.2.32.05.13.07.26.07.4v1.17Zm2.43-2.42h-.31v-.43h.31v.43Zm0 2.42h-.31v-2.14h.31v2.14Zm2.34 0h-.33v-1.2a.73.73 0 0 0-.04-.25 1.14 1.14 0 0 0-.14-.22.51.51 0 0 0-.2-.13.42.42 0 0 0-.23-.06.5.5 0 0 0-.25.06.57.57 0 0 0-.2.13.73.73 0 0 0-.13.22.73.73 0 0 0-.04.25v1.2h-.33V49.8a1 1 0 0 1 .09-.4.9.9 0 0 1 .19-.32c.08-.1.19-.16.3-.2a.77.77 0 0 1 .37-.1c.12 0 .25.03.37.1.1.04.2.1.28.2.1.09.16.2.2.32a1 1 0 0 1 .09.4v1.17ZM280.7 53.2a1.04 1.04 0 0 1 .31.68h-.37a.79.79 0 0 0-.23-.47.73.73 0 0 0-.52-.17.76.76 0 0 0-.35.07.81.81 0 0 0-.3.23c-.16.21-.24.53-.24.95 0 .3.07.6.22.85.08.1.18.2.3.25.11.06.24.08.37.07.12 0 .24-.02.35-.08.1-.06.2-.15.26-.26a1 1 0 0 0 .17-.47h.37c-.03.3-.14.57-.32.78a1.21 1.21 0 0 1-1.68.07c-.28-.27-.42-.7-.42-1.27-.01-.39.1-.77.31-1.08a1.21 1.21 0 0 1 .96-.47 1.08 1.08 0 0 1 .8.3Zm.6-.23h.44l.8 1.43.79-1.43h.44l-1.06 1.76v1.21h-.36v-1.2l-1.04-1.77Zm2.76 0h1.2c.32 0 .55.1.69.31a.7.7 0 0 1 .12.43.7.7 0 0 1-.15.45.55.55 0 0 1-.22.18c.12.04.23.1.32.19.06.07.11.16.15.25.03.1.04.2.04.3 0 .18-.06.37-.18.5-.16.24-.42.36-.8.36h-1.17v-2.97Zm1.06 1.25a.7.7 0 0 0 .37-.07.38.38 0 0 0 .16-.16.42.42 0 0 0 .05-.24.4.4 0 0 0-.05-.23.35.35 0 0 0-.18-.15.82.82 0 0 0-.37-.06h-.67v.91h.69Zm.12 1.37a.56.56 0 0 0 .5-.2.66.66 0 0 0 .03-.6.4.4 0 0 0-.2-.17.95.95 0 0 0-.38-.08h-.76v1.05h.8Zm1.43-2.62h2v.37h-1.63v.9h1.5v.33h-1.5v1.02h1.67v.35h-2.04v-2.97Zm2.57 0h1.25c.18 0 .35.03.51.1.26.12.38.36.38.7a.78.78 0 0 1-.09.42.7.7 0 0 1-.29.3c.1.03.18.09.25.17.06.12.09.25.08.38v.4c.01.1.01.2.03.25 0 .04.02.07.04.1l.08.08v.07h-.44l-.04-.1-.01-.24-.03-.5a.4.4 0 0 0-.04-.22.37.37 0 0 0-.15-.16.63.63 0 0 0-.33-.06h-.82v1.28h-.38v-2.97Zm1.21 1.35c.15.01.29-.02.41-.1.06-.05.1-.11.12-.19a.5.5 0 0 0 .03-.22.41.41 0 0 0-.22-.43.53.53 0 0 0-.28-.07h-.89v1.01h.83Zm1.76.66c.01.15.05.3.11.42.13.19.33.29.63.29.13 0 .25-.02.37-.07.22-.1.33-.24.33-.44a.47.47 0 0 0-.14-.36 2.03 2.03 0 0 0-.44-.17l-.36-.1a1.31 1.31 0 0 1-.5-.18.6.6 0 0 1-.2-.24.66.66 0 0 1-.06-.32.91.91 0 0 1 .25-.66 1 1 0 0 1 .71-.25c.26-.01.51.07.72.22.1.08.18.2.23.32a.9.9 0 0 1 .06.4h-.34a.8.8 0 0 0-.12-.37c-.11-.15-.29-.22-.55-.22a.59.59 0 0 0-.46.15.45.45 0 0 0-.14.34c0 .06.01.13.04.18.03.06.07.1.12.14.16.08.32.13.5.16l.36.09c.15.04.3.1.43.19.08.07.14.17.19.27.04.1.06.22.05.33 0 .34-.1.57-.32.7-.23.16-.5.24-.76.23-.28.01-.56-.1-.77-.3a.96.96 0 0 1-.29-.74h.35Zm2.35-2.01h2v.37h-1.63v.9h1.52v.33h-1.52v1.02h1.67v.35h-2.04v-2.97Zm4.48.23a.97.97 0 0 1 .31.67H299a.78.78 0 0 0-.26-.47.68.68 0 0 0-.5-.16.77.77 0 0 0-.35.07.82.82 0 0 0-.3.23c-.16.21-.24.53-.24.95-.01.3.07.6.23.85.07.1.17.2.29.25.11.06.24.08.36.07.13 0 .25-.02.35-.08.11-.06.2-.15.27-.26.09-.14.15-.3.18-.47h.35c-.02.3-.13.57-.31.78a1.07 1.07 0 0 1-.87.38c-.3.01-.59-.1-.81-.3a1.8 1.8 0 0 1-.43-1.28c-.01-.4.1-.77.33-1.08a1.18 1.18 0 0 1 .94-.47 1.01 1.01 0 0 1 .81.31Zm1.23-.23v1.84c0 .18.03.36.1.53.06.1.15.2.25.25.1.06.22.08.33.07.31 0 .53-.12.66-.35.06-.16.08-.33.08-.5v-1.84h.38v1.66a2 2 0 0 1-.14.85c-.16.36-.49.53-.95.53-.47 0-.78-.17-.94-.53-.1-.26-.16-.56-.14-.85v-1.66h.37Zm2.41 0h1.26c.17 0 .35.03.5.1.26.12.39.36.39.7 0 .15-.03.3-.1.44a.77.77 0 0 1-.29.27c.1.04.17.1.24.18.07.11.1.25.1.38v.4c0 .08 0 .17.02.25.03.09.06.15.12.18v.07h-.46a.91.91 0 0 1-.03-.1c-.01-.08-.02-.16-.01-.24l-.03-.5c-.01-.19-.07-.32-.19-.38a.63.63 0 0 0-.33-.06h-.82v1.28h-.37v-2.97Zm1.22 1.35c.14.01.28-.02.4-.1a.47.47 0 0 0 .14-.41.43.43 0 0 0-.04-.25.42.42 0 0 0-.16-.18.58.58 0 0 0-.3-.07h-.89v1.01h.85Zm1.6-1.35h.38v2.97h-.38v-2.97Zm2.99 0v.35h-.93v2.62h-.38v-2.62h-.93v-.35h2.24Zm.11 0h.44l.8 1.43.79-1.43h.44l-1.04 1.76v1.21h-.37v-1.2l-1.05-1.77Zm-34.46 5.75h4.83v1.9h-1.43l1.8 6.74 2.88-7.47 1.04.03 2.92 7.44 1.76-6.72h-1.6v-2.03h4.92v2.03h-1.22l-3.12 11.17h-1.13l-3.05-7.95-3.13 7.98h-1.18L275.3 60.7h-1.16v-1.98Z"/><path fill="#F2F2F2" d="m289.58 64.15-.45 1.86h1.16s-.98 3.92-.8 4.48c.2.56.23 1.34 2.01 1.26 1.8-.07 1.98-2.45 1.98-2.45l-.83-.38s-.33 1.23-.87 1.4c-.55.15.2-2.71.57-4.39l.44-1.79-3.21.01Zm2.4-.79c.66 0 1.19-.57 1.19-1.28 0-.7-.53-1.28-1.19-1.28-.65 0-1.19.58-1.19 1.28 0 .7.54 1.28 1.2 1.28Z"/><path fill="#F2F2F2" d="M302.74 68.08a4.26 4.26 0 0 1-1.92 1.42c-.75.27-1.56.31-2.33.12a4.17 4.17 0 0 1-2.03-1.23 4.9 4.9 0 0 1-1-4.7c.24-.8.7-1.52 1.32-2.06a3.98 3.98 0 0 1 4.45-.62 1.75 1.75 0 0 0 .19 1.14c.13.26.34.47.58.6a1.44 1.44 0 0 0 1.57-.07c.23-.16.42-.4.54-.66a1.75 1.75 0 0 0-.16-1.69 1.55 1.55 0 0 0-.64-.54c-1.36-1.04-2.05-1.45-3.89-1.45-1.07 0-2.13.29-3.07.84a6.61 6.61 0 0 0-2.32 2.33 7.24 7.24 0 0 0-.4 6.6 6.8 6.8 0 0 0 2 2.65 5.97 5.97 0 0 0 6.1.87c1-.42 1.89-1.1 2.58-2l-1.57-1.55Z"/><path fill="#F2F2F2" d="M302.32 64.18v1.88h.72l2.46 5.03s-.3 1.23-.9 1.3c0 0-.78-1.18-1.63.16 0 0-.26 1.11.75 1.44 1.01.32 2.23.17 3.09-1.7.86-1.86 2.74-6.45 2.74-6.45h.82v-1.76h-3.5v1.76h.88l-1.24 3.25-1.38-3.2h.86v-1.8s-3.3.02-3.65-.02l-.02.11Z"/><path fill="#F2F2F2" d="M315.45 60.69s-.4 1.76.7 1.92c1.09.16 1.69-.4 1.71-1.25.03-.85-.7-2.8-3.35-2.86-2.65-.06-4.74 1.35-4.65 3.54.1 2.19 1.14 3.2 3.77 4.22 2.64 1.01 2.32 3.52.34 3.76-1.98.23-2.1-.55-2.1-.55s.75-1.92-1.28-2.05c-2.04-.14-1.72 3.07-.38 3.57 1.33.5 2.17 1.4 4.3 1.09 2.13-.31 3.49-1.77 3.49-3.41 0-1.65-.48-3.8-4.46-4.84-3.99-1.04-.75-4.42 1.9-3.14ZM23.36 130.9c-9.97 0-18.05-8.3-18.05-18.53 0-10.24 8.08-18.54 18.05-18.54 9.96 0 18.04 8.3 18.04 18.54 0 10.24-8.08 18.54-18.04 18.54Zm0-34.22c-8.44 0-15.27 7.03-15.27 15.69s6.83 15.69 15.27 15.69c8.43 0 15.27-7.03 15.27-15.7 0-8.65-6.84-15.68-15.27-15.68Z"/><path fill="#F2F2F2" d="M29.32 125.36c-.59 0-2.73-3.88-3.02-4.99-.6-2.31-.47-3.29-.43-3.6.1-.96 1.02-1.43 1.07-2.72.02-.4.22-2.4.38-3.95a2.61 2.61 0 0 1-1.13-.54c1.04 1.42-.48 3.11-2.7 5.37-2.35 2.39-7.56 4.61-7.56 4.61s2.18-5.31 4.53-7.7c1.72-1.76 3.12-3.1 4.3-3.1.34 0 .66.11.96.34a2.7 2.7 0 0 1-.52-1.14c-1.53.16-3.49.36-3.88.38-1.27.06-1.73.98-2.67 1.1-.1 0-.3.03-.6.03-.54 0-1.47-.08-2.94-.48-1.18-.32-5.58-2.87-4.8-3.19.4-.16 1.66-.27 3.32-.27 1.6 0 3.58.1 5.5.36 2.4.32 4.61.72 6.11 1.02l.09-.24-1.54-.75s-1.22-1.43-1.09-1.53h.02c.2 0 1.17 1.14 1.27 1.27l.92.31-.43-.39s-.6-2.24-.44-2.3c.17 0 .7 1.96.75 2.1.1.1.47.23.91.5l-.47-1.24s.22-2.03.38-2.03c.16.03-.03 1.7-.07 1.9l.78 1.22a2.34 2.34 0 0 1 1.56.04c-.36-.78-.33-1.6.14-2.08.16-.16.34-.26.54-.33a.7.7 0 0 1 .7-.6c.2 0 .4.08.54.24.15.14.22.33.23.52.23-.49.5-1.14.48-1.35a4.18 4.18 0 0 0-.6-1.34.12.12 0 0 1 .04-.16.12.12 0 0 1 .06-.02c.04 0 .08.02.1.05.03.04.58.9.63 1.45.03.3-.31 1.08-.5 1.48a3.37 3.37 0 0 1 1.33 1.36 4.87 4.87 0 0 1 1.46-.52 4.3 4.3 0 0 1 1.41.64c.06.04.07.11.04.17a.12.12 0 0 1-.16.03c-.01 0-.85-.56-1.32-.6h-.02c-.23 0-.84.26-1.3.49a.7.7 0 0 1 .51.23c.3.3.3.77.02 1.06a.7.7 0 0 1-.38.2c-.06.2-.17.4-.32.55-.26.27-.62.4-1.02.4-.33 0-.68-.09-1.02-.25.2.53.21 1.1.03 1.59l1.2.8a10.2 10.2 0 0 1 1.52-.15c.2 0 .34.02.35.07.03.16-2 .38-2 .38l-1.2-.48c.25.46.39.82.48.93.14.05 2.1.61 2.05.77 0 .02-.04.03-.1.03-.43 0-2.15-.48-2.15-.48l-.38-.44.31.94c.13.1 1.34 1.18 1.24 1.31l-.02.01a9.04 9.04 0 0 1-1.48-1.12l-.74-1.57-.23.1c.3 1.52.69 3.77 1 6.21.51 4 .4 8.2.08 9-.02.06-.06.09-.11.09Zm7.88 3.09h-.85v2.36h-.58v-2.36h-.85v-.47h2.28v.47Zm1.09-.47.72 2.05.71-2.05h.76v2.83h-.58v-.78l.06-1.33-.76 2.1h-.4l-.75-2.1.06 1.33v.78h-.58v-2.83h.76Zm55.16-24.78a5.56 5.56 0 0 0-3.64 2.4 7.29 7.29 0 0 0-1.06 2.82c-.17.97-.13 2.32.12 3.61a13.6 13.6 0 0 0 3.1 6.07 11.58 11.58 0 0 0 4.66 3.1 8 8 0 0 0 5.07-.09c1-.35 2.35-1.14 3.25-1.89a11.87 11.87 0 0 0 1.74-1.86 12.94 12.94 0 0 0 2.44-5.03c.28-1.26.42-2.58.32-3.07-.03-.15-.1-.53-.14-.84-.41-2.66-1.91-4.47-4.27-5.12a4.9 4.9 0 0 0-1.51-.12c-1.01 0-1.14 0-1.68.14-.88.23-1.82.62-2.6 1.08l-.2.12-.62-.33a8.92 8.92 0 0 0-2.12-.84 5.3 5.3 0 0 0-1.61-.18 9.9 9.9 0 0 0-1.25.04Zm2.2 1.88c.43.1.93.26 1.45.49l.31.14-.58.6a8.78 8.78 0 0 0-1.12 1.38c-.72.98-1.34 2.1-1.74 3.2a6.36 6.36 0 0 0-.58 1.85c-.14.66-.15.8-.15 2.07a7.63 7.63 0 0 0 .13 2.04 9.9 9.9 0 0 1-.98-1.23c-1.4-2-2.11-4.6-1.84-6.67.1-.73.41-1.71.7-2.2a3.96 3.96 0 0 1 1.9-1.56 5.03 5.03 0 0 1 2.5-.1Zm9 .03c2.11.57 3.24 2.88 2.86 5.82-.22 1.63-.78 3.1-1.72 4.53-.34.51-1.04 1.4-1.07 1.37-.01-.01.02-.23.06-.5.18-1.14.15-2.36-.1-3.64a8.09 8.09 0 0 0-.68-2.1c-.1-.25-.28-.64-.4-.88-.21-.44-.35-.55-.56-.46-.07.02-.96.56-2 1.2a70.98 70.98 0 0 1-2.38 1.48c-.11.13-.04.48.15.75l.36.5c.18.27.28.35.43.35.06 0 1.31-.77 2.28-1.42.25-.16.49-.32.53-.33.08-.05.24.45.43 1.34.4 1.98.08 3.96-.85 5.2a3.6 3.6 0 0 1-3.14 1.4 3.29 3.29 0 0 1-2.43-1.08 2.9 2.9 0 0 1-.69-.93c-.75-1.56-.84-3.09-.34-5.14.8-3.23 3.38-6.24 6.24-7.27a8.68 8.68 0 0 1 1.45-.33c.35-.04 1.16.03 1.57.14Zm14.06 1.82c-.58.06-1.09.15-1.23.21l-.64.27a5.2 5.2 0 0 0-1.92 1.3c-.5.5-.64.69-.85 1.1-.5.96-.68 1.85-.63 3.01.05 1 .29 1.83.77 2.63.24.4.94 1.12 1.4 1.44.56.4 1.43.8 1.98.92.53.12 1.71.12 2.29-.01a5.5 5.5 0 0 0 2.34-1.26l.25-.25v.53c0 .44.02.57.11.71l.1.18h.76c.4 0 .78-.02.8-.04.18-.12.2-.29.2-2.45 0-1.9-.02-2.2-.1-2.26-.07-.08-.35-.09-2.2-.09h-2.12l-.1.14c-.1.13-.12.23-.12.77 0 .6 0 .61.15.75.15.13.18.14.84.14.39 0 .7.02.7.04 0 .1-.53.5-.9.7-.51.25-1.16.36-1.79.32a3.01 3.01 0 0 1-2.85-2.32c-.07-.24-.1-.55-.1-1.03 0-.6.03-.73.16-1.11a3.16 3.16 0 0 1 1.97-2.05c.45-.15 1.33-.2 1.88-.08.84.18 1.6.72 2 1.41.25.42.31.45.73.3a7.52 7.52 0 0 0 1.53-.65c.08-.11-.1-.53-.43-1.04a4.41 4.41 0 0 0-2.22-1.78l-.53-.22a8.29 8.29 0 0 0-2.23-.23Zm15.08.25-.15.1v5.09c0 4.58.02 5.1.1 5.21l.08.14 2.4-.01c2.5 0 2.57 0 3.4-.23a4.88 4.88 0 0 0 3.92-5.1 4.5 4.5 0 0 0-.51-2.47c-.68-1.37-1.83-2.22-3.6-2.65-.78-.17-1.1-.2-3.34-.2-2.1 0-2.16 0-2.3.12Zm5.16 2.13c.75.21 1.29.6 1.75 1.28.14.21.3.53.36.72a4 4 0 0 1 .1 1.62c-.05.4-.23.98-.3 1.03a2.3 2.3 0 0 0-.26.35c-.42.61-.96 1-1.7 1.18-.36.1-.61.11-1.7.11h-1.27v-3.17c0-1.74.02-3.19.04-3.2a7.4 7.4 0 0 1 1.35-.02c.97 0 1.4.04 1.63.1Zm19.71-2.2c-.2.07-.21.15-.22 2.07v1.87l-.27-.26c-.89-.84-2.55-.9-3.78-.15-.18.1-.48.35-.66.53a4.18 4.18 0 0 0-.68 4.67 3.7 3.7 0 0 0 3.47 2.08 2.4 2.4 0 0 0 1.7-.77l.23-.22v.26c0 .15.04.31.09.4.08.13.09.13.97.13.74 0 .9-.02.98-.09.07-.07.09-.62.09-5.2 0-5.08 0-5.13-.11-5.24-.11-.12-.16-.13-.92-.12-.45 0-.85.02-.89.03Zm-1.25 5.16c.33.15.75.57.92.93.12.26.14.38.14.82 0 .48-.01.55-.18.88-.31.63-.86.97-1.56.97-1.08 0-1.83-.85-1.76-1.99.03-.51.22-.92.6-1.28.4-.4.67-.49 1.24-.46.2.01.46.06.6.13Zm9.78-5.07-.13.13v1.85c0 1.02-.02 1.85-.03 1.85-.02 0-.13-.1-.27-.24a2.7 2.7 0 0 0-1.07-.58c-.36-.1-1.32-.1-1.74.02-.73.2-1.48.7-1.9 1.26l-.28.36a4.45 4.45 0 0 0-.56 2.62 5 5 0 0 0 .44 1.47c.45.67.95 1.17 1.57 1.52.52.3.89.42 1.47.46a2.5 2.5 0 0 0 2.06-.75c.13-.12.24-.21.26-.21.02 0 .04.1.04.22 0 .22.08.42.19.5a10 10 0 0 0 1.81 0c.17-.11.18-.38.18-5.3 0-5.24 0-5.18-.24-5.28a7.81 7.81 0 0 0-.88-.03c-.77 0-.8 0-.92.13Zm-1.22 5.06c.35.17.69.5.84.82.1.17.19.33.22.35.03.02.05.27.05.55 0 .45-.01.53-.16.82-.35.7-.8 1.02-1.5 1.06a1.62 1.62 0 0 1-1.64-.96c-.17-.33-.19-.4-.19-.88.01-.45.03-.56.16-.82.15-.31.23-.4.54-.7a1.7 1.7 0 0 1 1.69-.24Zm12.3-3.58c-.03.01-.05.2-.05.4 0 .3.02.37.09.37.06 0 .08-.06.08-.23V109l.1.18c.07.1.13.17.16.17s.09-.08.13-.17l.1-.18v.23c0 .2.01.23.1.23.11 0 .12-.02.1-.4 0-.34-.02-.38-.12-.38-.07 0-.15.07-.22.2l-.12.21-.06-.19c-.04-.1-.1-.2-.15-.22-.1-.03-.1-.03-.15 0Zm-50 1.5a3.83 3.83 0 0 0-2.94 2.46 4.2 4.2 0 0 1-.2.5 4.05 4.05 0 0 0 0 1.83c.03.03.08.16.12.28.13.42.46.96.81 1.34a4.14 4.14 0 0 0 1.36.99c.04.04.25.13.49.2.56.17 1.53.18 2.14.03a5.25 5.25 0 0 0 1.68-.9 3.85 3.85 0 0 0-.9-6.4 4.67 4.67 0 0 0-2.56-.33Zm1.35 2.08c.11.04.27.12.35.2.73.6.87.85.87 1.56 0 .41-.02.5-.18.81a1.8 1.8 0 0 1-3.24-.01 2.15 2.15 0 0 1-.04-1.48c.13-.35.6-.86.93-1.03.36-.2.86-.2 1.31-.05Zm17.68-2.12c-.56.11-.75.16-1.07.3a3.39 3.39 0 0 0-1.97 2.1 4.2 4.2 0 0 0 .17 3.3 3.46 3.46 0 0 0 1.63 1.64c.12.05.23.1.23.13 0 .14 1.12.35 1.65.3a2.32 2.32 0 0 0 1.66-.76l.23-.22v.26c0 .15.04.31.09.4.09.13.1.13 1 .13.81 0 .93-.01 1-.1.08-.1.1-.42.1-3.6 0-3.33-.01-3.52-.1-3.6-.1-.08-.25-.1-.98-.1-1.05 0-1.1.03-1.1.45v.28l-.28-.25a2.49 2.49 0 0 0-1.2-.61 3.2 3.2 0 0 0-1.06-.05Zm1.4 2.1c.15.04.35.19.59.42.33.32.38.4.49.76.3.96-.08 1.89-.92 2.28-.44.2-1.05.2-1.5-.01a1.8 1.8 0 0 1-.82-.85c-.1-.2-.12-.35-.12-.82 0-.5.02-.6.14-.84.21-.42.7-.86 1.03-.95.45-.11.69-.11 1.12.01Zm21.13-1.86c-.18.1-.17.3.1 1.18 1.49 4.78 1.84 5.88 1.93 6 .1.16.11.16.68.16.44 0 .57.01.55.06-.02.04-.07.2-.11.38-.19.63-.48.88-1.07.88-.34 0-.43-.02-.77-.2-.44-.23-.64-.25-.8-.08a3.8 3.8 0 0 0-.67 1.13c0 .2.22.4.68.62.95.47 2.38.46 3.26-.01.38-.21.87-.72 1.09-1.15.21-.4.28-.6.55-1.59l.7-2.44a132.1 132.1 0 0 0 1.35-4.75.3.3 0 0 0-.09-.16c-.06-.08-.24-.1-1-.1-.83 0-.93.02-1.02.1-.11.11-.17.3-.67 2.22a51.14 51.14 0 0 1-.87 3.18c-.02 0-.44-1.44-1.18-4.08a5.5 5.5 0 0 0-.35-1.02c-.1-.38-.16-.4-1.25-.4-.52.01-1 .04-1.04.07Zm76.63 15.87h-2.53v-10.04h2.53v10.04Zm20.42-7.16c-.1-.05-.92-.54-2.13-.54-1.63 0-2.77 1.14-2.77 2.68 0 1.5 1.09 2.68 2.77 2.68 1.2 0 2.02-.47 2.13-.53v2.7c-.31.08-1.18.35-2.3.35-2.85 0-5.35-1.97-5.35-5.2 0-3 2.26-5.2 5.35-5.2 1.18 0 2.06.3 2.3.36v2.7Zm-26.43 0c-.1-.05-.92-.54-2.13-.54-1.64 0-2.78 1.14-2.78 2.68 0 1.5 1.1 2.68 2.78 2.68 1.19 0 2.02-.47 2.13-.53v2.7c-.32.08-1.18.35-2.31.35-2.85 0-5.35-1.97-5.35-5.2 0-3 2.27-5.2 5.35-5.2 1.19 0 2.07.3 2.3.36v2.7Zm34.4-.5a2.6 2.6 0 0 0-2.62 2.64 2.6 2.6 0 0 0 2.62 2.64 2.6 2.6 0 0 0 2.62-2.64 2.6 2.6 0 0 0-2.62-2.64Zm5.3 2.64c0 2.87-2.21 5.2-5.3 5.2a5.15 5.15 0 0 1-5.3-5.2c0-2.87 2.21-5.2 5.3-5.2s5.3 2.33 5.3 5.2Zm-24.08-2.73a8.6 8.6 0 0 0-1.98-.31c-1.02 0-1.57.34-1.57.82 0 .61.74.82 1.16.96l.7.22c1.64.52 2.4 1.65 2.4 2.87 0 2.52-2.22 3.37-4.16 3.37-1.35 0-2.61-.25-2.74-.28v-2.3c.23.05 1.29.37 2.4.37 1.25 0 1.83-.37 1.83-.94 0-.5-.5-.8-1.13-1l-.54-.17c-1.4-.45-2.58-1.28-2.58-2.94 0-1.88 1.4-3.14 3.74-3.14 1.23 0 2.4.3 2.47.32v2.14Zm-25.97-13.07a1.26 1.26 0 0 0-2.5 0v2.63a1.26 1.26 0 0 0 2.5 0v-2.63Zm6.91-3.46a1.26 1.26 0 0 0-2.14-.9 1.3 1.3 0 0 0-.37.9v6.1a1.26 1.26 0 1 0 2.51 0v-6.1Zm6.91-4.73a1.26 1.26 0 0 0-2.51 0v13.33a1.26 1.26 0 0 0 2.51 0V97.23Zm6.9 4.73a1.26 1.26 0 1 0-2.5 0v6.1a1.26 1.26 0 0 0 2.14.88c.23-.24.37-.56.37-.89v-6.1Zm6.9 3.46a1.25 1.25 0 0 0-2.5 0v2.63a1.25 1.25 0 0 0 2.5 0v-2.63Zm6.92-3.46a1.26 1.26 0 0 0-1.26-1.22 1.25 1.25 0 0 0-1.25 1.22v6.1a1.25 1.25 0 0 0 2.5 0v-6.1Zm6.9-4.73a1.25 1.25 0 1 0-2.5 0v13.33a1.28 1.28 0 0 0 .35.92 1.25 1.25 0 0 0 2.16-.92V97.23Zm6.92 4.73c0-.7-.56-1.26-1.27-1.26a1.25 1.25 0 0 0-1.25 1.26v6.1c0 .69.56 1.25 1.25 1.25.7 0 1.27-.56 1.27-1.26v-6.1Zm6.9 3.46a1.25 1.25 0 1 0-2.51 0v2.63a1.26 1.26 0 1 0 2.5 0v-2.63Zm-1.46 19.5v.15h-.44v1.17h-.19v-1.16h-.45v-.16h1.09Zm.1 0h.29l.4 1.08.38-1.08h.29v1.32h-.2v-1.08l-.4 1.08h-.18l-.39-1.08v1.08H284v-1.32Zm-241.53 45.7h-2.7v-.04c.46-.57 1.11-1.34 1.48-1.96.2-.34.3-.56.3-.9 0-.36-.31-.8-.74-.8-.3 0-.62.13-.95.56v-.76c.33-.28.66-.4 1-.4.77 0 1.3.54 1.3 1.32s-.38 1.28-1.32 2.4h1.63v.58Zm1.47-3v-.4h.34c.14 0 .25.08.25.2 0 .11-.11.2-.28.2h-.31Zm-.21.75h.2v-.57h.13c.18 0 .24.06.4.36l.12.2h.27l-.17-.26c-.1-.17-.2-.29-.3-.33a.38.38 0 0 0 .27-.1.38.38 0 0 0 .1-.28c0-.14-.1-.34-.44-.34h-.58v1.32Zm1.57-.69a1.04 1.04 0 1 1-2.07.02 1.04 1.04 0 0 1 2.07-.02Zm.2 0a1.24 1.24 0 1 0-2.47 0 1.24 1.24 0 0 0 2.47 0Zm-35.6-1.17H7.98v13.49h1.94v-13.49Zm9.59 2.96a4.57 4.57 0 0 0-3.16-1.4c-1.25 0-2.14.66-2.14 1.6 0 2.6 5.83 2.55 5.83 6.85 0 2.11-1.6 3.65-3.77 3.65a5.94 5.94 0 0 1-3.78-1.24v-2.45c.99 1.26 2.23 1.95 3.56 1.95 1.5 0 2.2-.95 2.2-1.7 0-2.78-5.84-3.1-5.84-6.8 0-2.2 1.62-3.6 4.1-3.6 1.02 0 2.05.32 3 .95v2.2Zm13.74.05a8.86 8.86 0 0 0-4.65-1.4c-3.08 0-5.38 2.2-5.38 5.15 0 2.96 2.22 5.13 5.46 5.13 1.52 0 3.18-.54 4.7-1.52V179a9.9 9.9 0 0 1-4.88 1.18c-5.06 0-7.27-3.89-7.27-6.72 0-4.1 3.1-7.12 7.39-7.12 1.39 0 2.79.34 4.63 1.1v2.1Z"/><path fill="#F2F2F2" d="M1.18 173.62c0 3.9 2.34 7.44 6.1 9.92.3-.2.63-.42.98-.61-2.82-2.44-4.55-5.7-4.55-9.31 0-3.9 2.03-7.42 5.3-9.9a15.1 15.1 0 0 1-.96-.5c-4.2 2.5-6.87 6.23-6.87 10.4Zm30.95-10.4c-.3.18-.62.34-.95.5 3.25 2.49 5.27 6 5.27 9.9 0 3.6-1.72 6.87-4.54 9.3.36.2.68.4 1 .62 3.73-2.49 6.07-6.01 6.07-9.92 0-4.17-2.66-7.9-6.85-10.4Z"/><g clip-path="url(#a)"><path fill="#F2F2F2" d="m94.13 194.12.33-.92.13.05-.34.92-.12-.05Zm-1.93-.82.42-.88.12.06.1.9.33-.67.12.05-.43.88-.12-.06-.1-.9-.33.68-.12-.06Zm-2.38-1.25.53-.82.1.07-.53.82-.1-.07Zm-.26-.17.06-.1.62.43-.06.09-.62-.42Zm-1.46-2.2.07-.08.39.34-.07.08-.4-.34Zm-.18 1 .62-.76.1.08-.62.76-.1-.08Zm-.05-.6.06-.09.34.3-.06.08-.34-.3Zm-.32.28.07-.08.39.33-.07.08-.39-.33Zm-1.45-1.28-.22-.23a.47.47 0 0 1-.1-.16.26.26 0 0 1-.01-.16.3.3 0 0 1 .08-.14.26.26 0 0 1 .23-.07c.04 0 .09.02.13.05l.03.01.2.23-.07.07-.15-.17a.26.26 0 0 0-.1-.07.17.17 0 0 0-.1 0 .19.19 0 0 0-.08.05.2.2 0 0 0-.05.08.15.15 0 0 0 0 .1c0 .03.03.07.06.1l.13.14.63-.6.1.1-.71.67Zm.31-1.1-.16.49-.09-.1.15-.48.1.1Zm-2.57-1.53.78-.58.08.1-.32.85.6-.44.08.1-.79.58-.07-.1.32-.85-.6.45-.08-.1Zm-1.52-2.48.94-.13.06.12-1.04.13-.04-.08.08-.03Zm.66-.66-.63.71-.08.05-.04-.08.7-.8.05.12Zm-.3.19.09-.05.25.49-.1.05-.25-.5Zm-1.52-1.94.9-.37.05.12-.9.37-.05-.12Zm-.12-.3.1-.03.28.7-.1.04-.28-.7Zm-.68-1.77.94-.29.03.13-.93.28-.04-.12Zm-.06-2.13.05-.01a.62.62 0 0 1 .2-.01.4.4 0 0 1 .16.05.3.3 0 0 1 .12.1c.03.04.05.1.06.15v.17a.36.36 0 0 1-.08.14.44.44 0 0 1-.13.1.66.66 0 0 1-.18.07l-.06.01a.64.64 0 0 1-.2.01.44.44 0 0 1-.16-.05.35.35 0 0 1-.18-.26.39.39 0 0 1 0-.16l.07-.14a.4.4 0 0 1 .14-.1.62.62 0 0 1 .18-.07Zm.08.11-.06.02a.61.61 0 0 0-.15.04.33.33 0 0 0-.1.07.22.22 0 0 0-.06.1.26.26 0 0 0 0 .11c0 .04.02.08.04.1.02.03.05.06.09.07.03.02.07.03.12.03h.15l.06-.02c.06 0 .11-.02.15-.05a.34.34 0 0 0 .1-.07.24.24 0 0 0 .06-.2.25.25 0 0 0-.04-.11.21.21 0 0 0-.09-.07.32.32 0 0 0-.12-.03l-.15.01Zm-1-3.45.98-.03v.13l-.73.52.75-.03v.13l-.97.03v-.13l.73-.52-.75.03v-.13Zm.15-2.93.85.41-.01.13-.93-.47v-.09l.09.02Zm.91-.18-.92.23-.08-.01v-.09l1.01-.26v.13Zm-.36-.02.1.01-.05.54h-.1l.05-.55Zm.66-2.85.1.03-.1.47-.1-.02.1-.48Zm-.94.25.94.23-.03.12-.94-.23.03-.12Zm1.16-3.78.69.66-.05.12-.75-.73.03-.08.08.03Zm.92.1-.94-.05-.08-.03.03-.08 1.04.05-.05.12Zm-.34-.12.1.04-.21.5-.1-.03.21-.51Zm1.31-2.49a.14.14 0 0 0-.05-.03h-.06a.29.29 0 0 0-.07.05l-.1.08a.99.99 0 0 1-.1.09.45.45 0 0 1-.1.05.22.22 0 0 1-.2-.02.25.25 0 0 1-.11-.17v-.12l.05-.13a.37.37 0 0 1 .13-.14c.05-.03.1-.04.15-.04.05 0 .1.01.14.04l-.06.1a.2.2 0 0 0-.1-.02c-.03 0-.06 0-.09.03a.25.25 0 0 0-.08.09.27.27 0 0 0-.03.1l.01.1a.15.15 0 0 0 .11.07l.06-.01.07-.04a.79.79 0 0 0 .08-.08.96.96 0 0 1 .12-.1.4.4 0 0 1 .1-.05.24.24 0 0 1 .1 0 .2.2 0 0 1 .1.03.23.23 0 0 1 .11.18v.12a.51.51 0 0 1-.14.23.39.39 0 0 1-.1.08.28.28 0 0 1-.13.02.26.26 0 0 1-.12-.03l.06-.11.09.02.07-.01a.24.24 0 0 0 .07-.05.4.4 0 0 0 .1-.18c0-.04 0-.07-.02-.1a.14.14 0 0 0-.06-.06Zm1.27-2.08a.16.16 0 0 0-.05-.03H84a.27.27 0 0 0-.08.04.92.92 0 0 0-.1.06.97.97 0 0 1-.1.08.45.45 0 0 1-.12.04.22.22 0 0 1-.2-.04.24.24 0 0 1-.09-.18c0-.04 0-.08.02-.12a.43.43 0 0 1 .06-.12c.05-.06.1-.1.15-.13a.28.28 0 0 1 .3.03l-.08.1a.2.2 0 0 0-.1-.04c-.03 0-.06 0-.1.02a.26.26 0 0 0-.08.08.28.28 0 0 0-.05.1v.1l.06.06.05.02h.06l.07-.03.09-.07a.85.85 0 0 1 .13-.08.4.4 0 0 1 .1-.04.2.2 0 0 1 .1 0c.04 0 .07.02.1.04a.24.24 0 0 1 .1.2l-.03.11a.51.51 0 0 1-.16.22.38.38 0 0 1-.11.06c-.04.02-.08.02-.13.02a.25.25 0 0 1-.12-.05l.08-.1.08.03h.08l.07-.05a.35.35 0 0 0 .06-.07.3.3 0 0 0 .05-.1v-.09a.14.14 0 0 0-.05-.07Zm1.54-2.35.04.05c.05.05.1.1.12.15.03.06.05.11.05.16 0 .06 0 .11-.02.16a.4.4 0 0 1-.08.14.36.36 0 0 1-.28.12.41.41 0 0 1-.17-.05.61.61 0 0 1-.16-.12l-.04-.04a.65.65 0 0 1-.12-.16.44.44 0 0 1-.05-.16c0-.06 0-.1.02-.16a.4.4 0 0 1 .08-.13.34.34 0 0 1 .29-.12c.05 0 .1.02.16.04l.16.12Zm-.05.14-.04-.05a.6.6 0 0 0-.12-.1.32.32 0 0 0-.12-.03h-.1a.26.26 0 0 0-.1.07.24.24 0 0 0-.07.2.3.3 0 0 0 .05.12.3.3 0 0 0 .1.13l.04.04.12.1.12.04.1-.01a.24.24 0 0 0 .1-.07.26.26 0 0 0 .06-.1.22.22 0 0 0 0-.1.33.33 0 0 0-.04-.12.63.63 0 0 0-.1-.12Zm2.44-2.11.1-.09c.03.06.05.11.05.17a.3.3 0 0 1-.02.16.4.4 0 0 1-.13.16.34.34 0 0 1-.3.07.41.41 0 0 1-.14-.06.6.6 0 0 1-.13-.14l-.06-.07a.6.6 0 0 1-.09-.17.42.42 0 0 1-.02-.16c0-.05.01-.1.04-.15a.4.4 0 0 1 .1-.13.38.38 0 0 1 .18-.08.3.3 0 0 1 .16.02c.05.02.1.06.14.1l-.1.08a.37.37 0 0 0-.1-.07.18.18 0 0 0-.1-.02.24.24 0 0 0-.1.06.24.24 0 0 0-.1.2c0 .03 0 .07.02.11l.07.13.06.07c.03.04.06.08.1.1a.2.2 0 0 0 .1.06c.03.01.07.02.1.01.04 0 .07-.02.1-.05a.28.28 0 0 0 .1-.1.17.17 0 0 0 0-.1.39.39 0 0 0-.03-.12Zm1.5-1.95.5.83-.1.07-.51-.84.1-.06Zm1.4-.81.1.95-.11.06-.1-1.05.07-.04.04.08Zm.63.68-.68-.65-.04-.08.08-.04.76.7-.12.07Zm-.17-.32.04.1-.48.24-.05-.09.49-.25Zm1.93-1.59.33.92-.12.04-.33-.91.12-.05Zm.29-.11.03.1-.7.27-.04-.1.7-.27Zm1.84-.58.26.94-.13.04-.25-.94.12-.04Zm2.09-.06.01.06v.2a.3.3 0 0 1-.05.16.34.34 0 0 1-.1.11.38.38 0 0 1-.16.06.36.36 0 0 1-.3-.07.43.43 0 0 1-.1-.14.62.62 0 0 1-.06-.19l-.01-.06a.64.64 0 0 1 0-.2.3.3 0 0 1 .05-.16.35.35 0 0 1 .1-.1.4.4 0 0 1 .32-.06c.05.01.1.03.14.07a.4.4 0 0 1 .1.13c.03.05.05.12.06.19Zm-.12.08v-.06a.58.58 0 0 0-.05-.15.32.32 0 0 0-.07-.1.22.22 0 0 0-.1-.06.25.25 0 0 0-.1 0 .24.24 0 0 0-.1.04.24.24 0 0 0-.08.08.34.34 0 0 0-.03.12v.16l.01.06.05.15c.02.04.04.08.07.1a.24.24 0 0 0 .2.06c.05 0 .08-.02.11-.04a.23.23 0 0 0 .07-.08.34.34 0 0 0 .03-.12v-.16Zm3.32-.91.02.97h-.13l-.5-.74.01.75h-.13l-.02-.97h.13l.51.74-.02-.75h.13Zm3.79.22-.16.96-.12-.02.15-.96.13.02Zm.33.5-.01.1-.44-.07.02-.1.43.07Zm.14-.42-.02.1-.5-.08.02-.1.5.08Zm2.51.92-.02.06a.62.62 0 0 1-.09.18.43.43 0 0 1-.11.12.35.35 0 0 1-.15.05.4.4 0 0 1-.16-.01.38.38 0 0 1-.23-.2.46.46 0 0 1-.04-.17c0-.06 0-.13.03-.2l.02-.06a.63.63 0 0 1 .08-.18.43.43 0 0 1 .12-.12.35.35 0 0 1 .3-.03c.06.01.11.04.15.07l.1.13c.01.05.03.1.03.17l-.03.2Zm-.14.03.01-.06.03-.16c0-.05 0-.09-.02-.12a.23.23 0 0 0-.16-.15.23.23 0 0 0-.21.03.34.34 0 0 0-.08.1.55.55 0 0 0-.06.14l-.02.06a.57.57 0 0 0-.02.15l.01.13.06.09.1.05c.04.02.08.02.11.01.04 0 .07-.02.1-.04a.32.32 0 0 0 .09-.1.61.61 0 0 0 .06-.13Zm2.75.42.29.14c.06.03.11.07.15.11.04.04.06.09.07.14 0 .05 0 .1-.03.16a.27.27 0 0 1-.08.1.26.26 0 0 1-.1.06h-.19l-.28-.13.05-.1.2.1c.05.02.08.03.12.02.04 0 .07 0 .1-.03a.19.19 0 0 0 .05-.07.22.22 0 0 0 .02-.1.14.14 0 0 0-.04-.09.28.28 0 0 0-.1-.07l-.17-.08-.36.79-.12-.06.4-.89Zm.1 1.14-.02-.5.12.05.04.5-.13-.05Zm3.46 1.59.11.08a.4.4 0 0 1-.14.1.3.3 0 0 1-.16.03.4.4 0 0 1-.18-.08.37.37 0 0 1-.14-.42.63.63 0 0 1 .08-.17l.06-.08c.03-.06.08-.1.12-.14.05-.03.1-.06.15-.07a.2.2 0 0 1 .15 0c.05 0 .1.03.15.06.06.04.1.1.13.14.03.06.03.11.03.17a.4.4 0 0 1-.05.17l-.1-.08a.34.34 0 0 0 .03-.11c0-.04 0-.08-.02-.1a.24.24 0 0 0-.08-.1.22.22 0 0 0-.21-.03.3.3 0 0 0-.1.05.59.59 0 0 0-.1.11l-.05.08a.6.6 0 0 0-.07.12.37.37 0 0 0-.02.12c0 .04 0 .07.02.1.02.04.04.07.08.1s.08.05.12.05c.03 0 .07 0 .1-.02a.38.38 0 0 0 .1-.08Zm2.2.83.24.22c.06.05.1.1.12.15.02.06.02.1.02.16a.3.3 0 0 1-.08.14.26.26 0 0 1-.22.09.32.32 0 0 1-.13-.03l-.03-.02-.23-.2.07-.08.17.15c.03.03.07.05.1.06h.1a.18.18 0 0 0 .07-.05.21.21 0 0 0 .05-.1v-.09a.27.27 0 0 0-.08-.1l-.14-.13-.58.65-.1-.09.66-.73Zm-.23 1.12.13-.5.1.1-.12.49-.1-.09Zm2.26.76-.2.51.53-.13.1.11-.68.15-.27.24-.08-.1.27-.24.24-.66.1.12Zm1.42 2.7-.15-.22.09-.06.14.22.09.09c.03.02.06.02.1.02a.2.2 0 0 0 .09-.04.22.22 0 0 0 .06-.07.17.17 0 0 0 .02-.1.24.24 0 0 0-.04-.12l-.13-.19-.72.5-.07-.11.8-.56.2.3c.05.07.07.13.08.18 0 .06 0 .11-.03.16a.29.29 0 0 1-.1.12.3.3 0 0 1-.16.06.25.25 0 0 1-.14-.04.47.47 0 0 1-.13-.14Zm1.85 1.97-.87.46-.06-.12.87-.45.05.11Zm.13.28-.09.05-.34-.67.1-.05.33.67Zm.67 2.51-.06.01a.63.63 0 0 1-.2.05c-.06 0-.11 0-.16-.03a.34.34 0 0 1-.13-.08.4.4 0 0 1-.06-.45.46.46 0 0 1 .1-.13l.18-.1.06-.02a.63.63 0 0 1 .2-.04c.05 0 .1 0 .16.03.05.01.1.04.13.08a.4.4 0 0 1 .1.3c0 .05-.01.1-.04.15a.44.44 0 0 1-.11.13.62.62 0 0 1-.17.1Zm-.1-.1.05-.03a.6.6 0 0 0 .14-.07.32.32 0 0 0 .09-.09.24.24 0 0 0 .04-.1.27.27 0 0 0-.08-.2.22.22 0 0 0-.1-.06.32.32 0 0 0-.12-.01.6.6 0 0 0-.15.03l-.05.03a.6.6 0 0 0-.14.07.34.34 0 0 0-.1.09.24.24 0 0 0-.03.1c0 .04 0 .07.02.11a.2.2 0 0 0 .06.1.2.2 0 0 0 .09.05l.12.01c.05 0 .1-.02.16-.04Zm.58 3.24-.1.02-.11-.47.1-.03.1.48Zm.74-.65-.95.22-.02-.13.94-.22.03.13Zm.11 2.86h-.06a.34.34 0 0 1-.2 0 .41.41 0 0 1-.16-.06.34.34 0 0 1-.1-.11.39.39 0 0 1-.05-.16c0-.06 0-.11.02-.16a.38.38 0 0 1 .22-.23.63.63 0 0 1 .19-.05h.06c.07-.02.14-.01.2 0s.1.03.15.07a.35.35 0 0 1 .16.26c0 .06 0 .12-.02.17a.33.33 0 0 1-.08.13.41.41 0 0 1-.14.1.67.67 0 0 1-.2.04Zm-.08-.12h.06l.16-.04a.32.32 0 0 0 .1-.06.23.23 0 0 0 .06-.1c.02-.03.02-.06.02-.1a.25.25 0 0 0-.04-.11.23.23 0 0 0-.08-.08.3.3 0 0 0-.11-.04h-.22l-.15.04a.34.34 0 0 0-.11.07.24.24 0 0 0-.06.09.25.25 0 0 0-.01.1.21.21 0 0 0 .11.18c.03.03.07.04.12.05h.15Zm.15 3.47-.35-.02a.35.35 0 0 1-.06-.06.35.35 0 0 1-.05-.1.55.55 0 0 1 .02-.35.37.37 0 0 1 .25-.2.59.59 0 0 1 .2-.02h.07a.6.6 0 0 1 .2.04c.05.02.1.04.14.08.04.04.07.08.08.13a.42.42 0 0 1-.02.35.3.3 0 0 1-.11.11.39.39 0 0 1-.16.05v-.13a.3.3 0 0 0 .1-.03.18.18 0 0 0 .08-.07.24.24 0 0 0 .03-.12c0-.04 0-.08-.02-.12a.22.22 0 0 0-.07-.08.33.33 0 0 0-.1-.05.63.63 0 0 0-.15-.03h-.08l-.15.01a.34.34 0 0 0-.12.05.25.25 0 0 0-.07.09.28.28 0 0 0-.03.1v.12l.03.07.03.04h.22l.01-.22h.1l-.01.36Zm.35 2.58-.97-.14.02-.13.97.15-.02.13Zm-.96 1.68-.03.12a.42.42 0 0 1-.15-.09.32.32 0 0 1-.08-.15.42.42 0 0 1 0-.2l.07-.14a.36.36 0 0 1 .12-.1.59.59 0 0 1 .34-.02l.1.03a.6.6 0 0 1 .17.07.4.4 0 0 1 .12.11.36.36 0 0 1 .05.31.37.37 0 0 1-.08.17.3.3 0 0 1-.14.09.41.41 0 0 1-.18 0l.03-.12h.12l.1-.05a.25.25 0 0 0 .05-.12.23.23 0 0 0-.05-.22.31.31 0 0 0-.1-.06.58.58 0 0 0-.13-.06l-.09-.02a.58.58 0 0 0-.13-.02c-.05 0-.09 0-.12.02a.22.22 0 0 0-.1.06.22.22 0 0 0-.05.1.28.28 0 0 0 0 .13c0 .04.03.07.05.1a.4.4 0 0 0 .1.06Zm-.47 3.57-.13.29a.47.47 0 0 1-.1.16.25.25 0 0 1-.14.06.3.3 0 0 1-.17-.03.27.27 0 0 1-.15-.19.33.33 0 0 1 0-.13v-.04l.12-.28.1.05-.1.2a.25.25 0 0 0-.02.12c0 .04.01.07.03.1l.08.05a.2.2 0 0 0 .1.02c.03 0 .06-.01.08-.03a.26.26 0 0 0 .07-.1l.08-.18-.8-.36.06-.12.89.4Zm-1.12.11.5-.03-.06.12-.49.04.05-.13Zm-1.04 2.49-.09-.06.26-.44.1.05-.27.45Zm1 .02-.84-.5.06-.11.84.5-.07.11Zm-.58.15-.09-.05.23-.39.09.05-.23.4Zm.33.27-.1-.05.27-.44.09.05-.26.44Zm-1.86 1.57.06.03h.06l.07-.03.1-.07.12-.07a.49.49 0 0 1 .1-.05h.1c.04 0 .07.02.1.04a.24.24 0 0 1 .1.2l-.03.11a.44.44 0 0 1-.06.12c-.04.06-.1.1-.14.13a.3.3 0 0 1-.16.02.27.27 0 0 1-.14-.05l.08-.1.09.04c.03 0 .06 0 .1-.02a.25.25 0 0 0 .09-.08.28.28 0 0 0 .05-.1v-.1a.15.15 0 0 0-.06-.06.1.1 0 0 0-.05-.02h-.06a.29.29 0 0 0-.07.03.82.82 0 0 0-.1.06.85.85 0 0 1-.12.09.4.4 0 0 1-.11.04.23.23 0 0 1-.2-.05.24.24 0 0 1-.09-.2c0-.03 0-.07.03-.11a.5.5 0 0 1 .16-.22.41.41 0 0 1 .11-.06.28.28 0 0 1 .13-.01.2.2 0 0 1 .12.05l-.08.1a.18.18 0 0 0-.08-.03h-.08a.24.24 0 0 0-.07.04.35.35 0 0 0-.06.07.31.31 0 0 0-.06.1v.1l.05.06Zm-1.75 1.9-.07-.08.36-.37.07.07-.35.38Zm.96.25-.7-.68.1-.1.7.68-.1.1Zm-.58.01-.08-.07.3-.33.08.07-.3.33Zm.25.34-.07-.08.35-.37.07.08-.35.37Zm-1.69 1.6-.3-.9.1-.09.32 1-.07.06-.05-.07Zm-.77-.53.8.5.06.06-.06.06-.9-.53.1-.09Zm.24.28-.06-.09.42-.35.07.09-.43.34Zm-1.5 1.95-.27.18a.44.44 0 0 1-.18.07c-.05 0-.1 0-.15-.03a.3.3 0 0 1-.11-.11.27.27 0 0 1-.02-.24.36.36 0 0 1 .06-.12l.03-.03.25-.16.06.09-.2.12a.25.25 0 0 0-.08.09.18.18 0 0 0 0 .19.2.2 0 0 0 .08.06c.02.02.05.03.09.02a.3.3 0 0 0 .11-.04l.17-.1-.46-.75.11-.07.51.83Zm-1-.52.44.25-.11.07-.43-.24v-.01l.1-.07Zm-2.09 1.62-.12.05a.42.42 0 0 1-.02-.17c.01-.06.03-.1.07-.16a.41.41 0 0 1 .16-.12l.15-.03c.05 0 .1 0 .15.03.04.02.09.05.13.1l.1.15.04.1a.6.6 0 0 1 .05.17.4.4 0 0 1-.01.17.36.36 0 0 1-.21.23.4.4 0 0 1-.19.04.29.29 0 0 1-.15-.05.41.41 0 0 1-.12-.14l.12-.05.08.1c.02.01.06.03.1.03.03 0 .07 0 .11-.03a.27.27 0 0 0 .1-.07.23.23 0 0 0 .04-.1.3.3 0 0 0 0-.12.5.5 0 0 0-.04-.13l-.04-.1a.62.62 0 0 0-.07-.1.35.35 0 0 0-.09-.09.23.23 0 0 0-.1-.03c-.03 0-.07 0-.11.02a.28.28 0 0 0-.1.08.18.18 0 0 0-.05.1c0 .03 0 .07.02.12Zm-2.67 1.35-.03-.1.5-.16.03.1-.5.16Zm.6.25-.27-.93.12-.04.28.93-.13.04Zm-.59.18-.28-.93.13-.04.27.94-.12.03Zm.48-21.32H102v7.35h6.95v-7.34Zm-7.39 0h-6.96v7.35h6.95v-7.34Zm0-7.88h-6.96v7.4h6.95v-7.4Zm7.39 0H102v7.4h6.95v-7.4Zm.56-.46h8.41a18.92 18.92 0 0 0-8.4-8.69v8.7Zm0 7.89h10.2c0-2.56-.53-5.1-1.56-7.43h-8.64v7.43Zm-15.47 7.77v-7.31H83.61c.06 2.54.67 5.04 1.8 7.31h8.62Zm0-15.2h-8.85a18.36 18.36 0 0 0-1.57 7.43h10.42v-7.43Zm0-.46v-8.8a18.57 18.57 0 0 0-8.63 8.8h8.63Zm0 16.24h-8.4a17.98 17.98 0 0 0 8.4 8.22V181Zm7.52-26.75c-2.4.01-4.76.52-6.96 1.48v9.03h6.95v-10.51Zm18.05 18.85h-10.1v7.32h8.41a17.53 17.53 0 0 0 1.68-7.31Zm-10.1 7.9v8.1a18.32 18.32 0 0 0 8.19-8.1h-8.19Zm-7.5-26.75v10.51h6.94v-8.91a19.96 19.96 0 0 0-6.95-1.6Zm-.45 36.69v-9.95h-6.96v8.46a15.87 15.87 0 0 0 6.95 1.49Zm7.39-9.94H102v9.94c2.4 0 4.78-.55 6.95-1.6v-8.35Z"/><path fill="#375E74" d="M89.77 166.48h-.67v-.8h.67v.8Zm0 5.03h-.67v-4.35h.67v4.34Zm17.6-9.03-.78.45h-1.8l-.78-.45-.56-.69a1.63 1.63 0 0 1-.22-.8v-.46c.02-.28.1-.55.22-.8l.56-.68.78-.46h1.8l.78.46-.56.57a.56.56 0 0 0-.45-.34h-1.34l-.45.22-.33.46c-.1.18-.13.38-.12.57v.46a1 1 0 0 0 .11.57l.34.46.45.34h1.34l.45-.23.56.35Zm-7.28 16.57h-.68v-.57l-.56.46h-1.57l-.67-.46-.45-.69c-.1-.25-.13-.53-.1-.8v-.46c-.03-.27.01-.54.1-.8l.45-.68.67-.46h1.57l.56.46v-.46h.68v4.46Zm-.68-2.06v-.46c.01-.2-.03-.39-.1-.57-.12-.11-.12-.22-.23-.45l-.45-.23h-1.12a.55.55 0 0 0-.45.23l-.22.45c-.08.18-.12.38-.12.57v.46c-.01.2.03.4.12.57.03.17.1.33.22.46l.45.23h1.12l.45-.23c.11-.11.11-.34.22-.46.1-.17.13-.37.11-.57Zm13.69 5.83h-.68l-.45.34-.34.35c0 .23-.1.34-.1.57v2.51h-.68v-4.46h.67v.7l.67-.47.68-.23h.22v.7Z"/><path fill="#F2F2F2" d="M101.1 194.14c.62 0 1.12-.52 1.12-1.15 0-.63-.5-1.14-1.12-1.14-.62 0-1.12.51-1.12 1.14 0 .63.5 1.15 1.12 1.15Z"/></g><g clip-path="url(#b)"><path stroke="#F2F2F2" stroke-miterlimit="10" stroke-width=".1" d="M169 173.57c5.08 0 9.2-3.95 9.2-8.82 0-4.86-4.12-8.81-9.2-8.81-5.09 0-9.21 3.95-9.21 8.81 0 4.87 4.12 8.82 9.2 8.82Z"/><path fill="#F2F2F2" d="M181.15 190.73h23.02l-16.75-27.66-10.49 17.53-.29-8.44a8.77 8.77 0 0 1-3.08 2.41c-1.2.57-2.53.87-3.88.87v15.29h9.11l8.53-13.7 4.4 7.13h-6.85l-3.72 6.57Zm-20.28-19.13v19.03h7.25v-15.19a9.62 9.62 0 0 1-4.1-1.1 9.17 9.17 0 0 1-3.15-2.74Z"/><path stroke="#F2F2F2" stroke-miterlimit="10" stroke-width=".1" d="M166.84 173.47a13.1 13.1 0 0 1-2.84-6.65c-.68-4.22 2.84-9.47 2.84-9.47s4.5 15.19 4.6 15.94m4.12-2.35s.98-6.37-3.62-10.5c-2.94-2.63-5.1-3.1-5.1-3.1s8.72-.28 11.37 6.2"/><path stroke="#F2F2F2" stroke-miterlimit="10" stroke-width=".1" d="M161.65 159.5c1.37-1.87 5.2-2.15 5.2-2.15s-.1-.94.1-1.13"/><path stroke="#F2F2F2" stroke-miterlimit="10" stroke-width=".1" d="M169 155.94c-.87.2-1.64.7-2.16 1.4 0 0-1.27-.74-2.05-.37m-4.12 11.53s5.49 2.44 9.8 1.32c4.3-1.13 7.44-3.1 7.74-5.72"/><path stroke="#F2F2F2" stroke-miterlimit="10" stroke-width=".1" d="M159.79 164.75s4.8 3.57 10.48 1.7c5.68-1.88 6.86-6.01 6.86-6.01"/><path stroke="#F2F2F2" stroke-miterlimit="10" stroke-width=".1" d="M160.67 161s2.55 3.2 8.03 1.97c5.5-1.22 5.1-5.62 5.1-5.62a9.51 9.51 0 0 0-10.05 1.99 8.72 8.72 0 0 0-2.69 6.26c.02 1.4.38 2.78 1.06 4.02a8.96 8.96 0 0 0 2.86 3.1"/><path stroke="#F2F2F2" stroke-miterlimit="10" stroke-width=".1" d="M163.41 171.7s5.4 1.21 8.82-.2c2.15-.92 4.06-2.3 5.59-4.03m14.3-1.31c.86 0 1.57-.67 1.57-1.5s-.7-1.5-1.57-1.5c-.87 0-1.57.67-1.57 1.5s.7 1.5 1.57 1.5Z"/></g><path fill="#F2F2F2" d="M255.03 175.68h-.36c-1.91 0-3.25.12-4 .36s-1.13.66-1.13 1.25a1 1 0 0 0 .58.94c.38.21.96.32 1.73.32 1.02 0 1.81-.23 2.36-.68.55-.45.82-1.1.82-1.94v-.25Zm.12 3.4a4.66 4.66 0 0 1-2.2 1.46c-.96.33-2.1.5-3.43.5a6 6 0 0 1-3.55-.9 2.97 2.97 0 0 1-1.26-2.56 3.6 3.6 0 0 1 1.89-3.2 5.61 5.61 0 0 1 2.04-.61c.87-.12 2.25-.18 4.14-.18h2.25c0-.05 0-.1.02-.17v-.15c0-.61-.19-1.08-.58-1.4-.38-.32-.95-.48-1.69-.48-.84 0-1.47.1-1.88.31-.4.22-.65.56-.73 1.03h-4.66a3.36 3.36 0 0 1 2-2.73c1.2-.6 2.98-.89 5.35-.89 2.27 0 3.95.35 5.03 1.06 1.07.7 1.61 1.8 1.61 3.28v5.81c0 .33.02.6.06.85.03.24.1.46.18.67h-4.3c-.1-.2-.17-.44-.22-.68a4.42 4.42 0 0 1-.07-.81v-.22Zm-11.23-14.24c0 1.79-1.54 3.24-3.44 3.24s-3.44-1.45-3.44-3.24c0-1.8 1.54-3.25 3.44-3.25s3.44 1.46 3.44 3.25Zm43.48 13.9c1 0 1.8-.3 2.39-.92.6-.61.9-1.44.9-2.46 0-1.17-.3-2.07-.89-2.7a3.18 3.18 0 0 0-2.47-.97c-1.03 0-1.84.31-2.42.93a3.59 3.59 0 0 0-.88 2.57c0 1.16.29 2.04.87 2.65.57.6 1.4.9 2.5.9Zm-7.95 6.3v-13.12a16.4 16.4 0 0 0-.19-2.58h4.68a11.61 11.61 0 0 1 .14 1.77v.35a6.37 6.37 0 0 1 2.3-1.8c.9-.4 1.88-.61 2.96-.61 1.91 0 3.4.53 4.48 1.6 1.07 1.07 1.6 2.56 1.6 4.47 0 1.81-.55 3.25-1.66 4.3-1.1 1.07-2.61 1.6-4.52 1.6a8.1 8.1 0 0 1-2.83-.48 7.06 7.06 0 0 1-2.33-1.44v5.94h-4.63Zm-9.75-6.27c.99 0 1.79-.3 2.38-.92.6-.61.9-1.43.9-2.46 0-1.16-.3-2.06-.89-2.7a3.18 3.18 0 0 0-2.47-.97 3.2 3.2 0 0 0-2.42.93 3.6 3.6 0 0 0-.88 2.57c0 1.16.29 2.04.87 2.65.57.6 1.4.9 2.5.9Zm-7.96 6.3v-13.12a16.94 16.94 0 0 0-.19-2.57h4.68a11.61 11.61 0 0 1 .14 1.76v.35a6.38 6.38 0 0 1 2.3-1.8 7 7 0 0 1 2.96-.61c1.91 0 3.4.53 4.48 1.6 1.07 1.07 1.6 2.56 1.6 4.47 0 1.81-.55 3.25-1.66 4.31-1.1 1.06-2.61 1.59-4.52 1.59a8.1 8.1 0 0 1-2.83-.48 7.06 7.06 0 0 1-2.33-1.44v5.94h-4.63Zm-19.28-15.65h-4.63v11.37h4.63v-11.37Z"/><g fill="#F2F2F2" clip-path="url(#c)"><path d="M2.95 238.7v-17.64H2.3v17.63h.66Zm58.24.05v-17.63h-.67v17.63h.67ZM22.11 226h-1.5v4h1.5c.68.02 1.34-.16 1.86-.5.27-.19.47-.42.6-.69.14-.26.19-.55.15-.83.05-.28 0-.56-.13-.81a1.67 1.67 0 0 0-.62-.65 3.17 3.17 0 0 0-1.86-.5ZM9.4 231.45h4.27l-2.13-3.99-2.13 3.99Z"/><path d="M2.47 221.62v16.73H61.2v-16.73H2.47Zm13.6 13.87-1.65-2.7H8.58l-1.5 2.7H5.14l6.39-11.34 6.45 11.34h-1.92Zm9.61-5.78c-.38.45-.9.82-1.5 1.06-.64.28-1.35.42-2.07.4h-1.5v4.32h-1.8v-10.72h3.3c.72-.02 1.43.11 2.06.4.63.24 1.15.63 1.51 1.11.38.51.57 1.1.55 1.69a3 3 0 0 1-.55 1.74Zm9.41-1.46-3.57 7.47-5.5-11h2.07l3.5 7.35 3.43-7.36 3.99 7.3 3.57-7.3h1.71l-5.42 11-3.78-7.46Zm21.84 3.93c-.27.67-.7 1.3-1.24 1.85a6.75 6.75 0 0 1-4.73 1.69 8.27 8.27 0 0 1-2.68-.4 6.4 6.4 0 0 1-2.2-1.18 4.95 4.95 0 0 1-1.92-4.04 4.94 4.94 0 0 1 1.92-4.04 6.36 6.36 0 0 1 2.2-1.18c.85-.28 1.76-.4 2.68-.4a7.3 7.3 0 0 1 2.26.29c.67.15 1.3.4 1.86.73.55.37 1.03.8 1.44 1.29l-1.17.9a4.07 4.07 0 0 0-1.78-1.4 6.73 6.73 0 0 0-5.22.06 4.7 4.7 0 0 0-1.86 1.6c-.43.66-.64 1.4-.62 2.15-.02.79.22 1.56.7 2.25a4.74 4.74 0 0 0 1.78 1.51c.8.34 1.7.51 2.6.5.61.02 1.22-.06 1.8-.22a6 6 0 0 0 1.37-.67c.37-.29.67-.63.89-1.01.28-.36.47-.76.55-1.18h-4.4v-1.24h6.18c0 .73-.13 1.45-.4 2.14Z"/><path d="M62.01 221.57V221H.96v.56H2.2v16.84H.96v.5h61.05v-.5h-.61v-16.84h.6Zm-1.23 16.84H2.88v-16.84h57.9v16.84Z"/></g><path fill="#F2F2F2" d="M97.46 229.36a1.18 1.18 0 0 1 0-1.66 1.18 1.18 0 0 1 1.95 1.17c0 .02 0 .05.02.07l.57.57c.03.03.07.03.1 0l.02-.01a2.09 2.09 0 0 0-.86-2.82 2.07 2.07 0 0 0-2.8.86 2.09 2.09 0 0 0 .86 2.82c.6.32 1.33.32 1.94 0 .03-.02.04-.06.03-.1l-.02-.02-.58-.57a.07.07 0 0 0-.08-.02c-.4.13-.85.02-1.15-.29Zm.01 2.79a1.17 1.17 0 0 1 1.65 1.66c-.3.31-.75.43-1.16.3-.03 0-.05 0-.07.02l-.57.58c-.03.02-.03.07 0 .1l.01.01c1.01.54 2.27.16 2.8-.86a2.09 2.09 0 0 0-.85-2.82 2.07 2.07 0 0 0-2.8.87 2.1 2.1 0 0 0 0 1.95c.01.03.06.04.1.03l.01-.02.57-.58c.02-.02.03-.04.02-.07-.13-.41-.02-.86.29-1.17Z"/><path fill="#F2F2F2" d="M102.75 234.16a1.17 1.17 0 0 1 0-2.35c.42 0 .83.23 1.02.62.01.03.04.03.06.03h.82c.04 0 .07-.03.07-.07v-.01a2.06 2.06 0 0 0-2.59-1.38 2.08 2.08 0 0 0 1.22 3.97c.66-.2 1.17-.72 1.37-1.37.01-.04 0-.08-.05-.1h-.84a.08.08 0 0 0-.06.04c-.2.38-.59.62-1.02.62Zm-1.17-5.63c0-.65.52-1.18 1.16-1.18a1.17 1.17 0 0 1 .56 2.2c-.03.02-.04.04-.04.07v.82c0 .04.04.07.07.07h.02a2.08 2.08 0 0 0 1.37-2.6 2.06 2.06 0 0 0-2.59-1.38 2.08 2.08 0 0 0 0 3.98c.04.01.08 0 .1-.05v-.84a.08.08 0 0 0-.04-.06c-.37-.2-.61-.6-.61-1.03Zm-2.12-4.45a1.17 1.17 0 1 1-1.73-1.04c.02 0 .03-.03.03-.06v-.82a.07.07 0 0 0-.07-.07h-.02a2.08 2.08 0 0 0 1.22 3.98 2.08 2.08 0 0 0 0-3.98c-.03 0-.08 0-.09.05v.84c0 .03.02.06.04.06.38.21.62.6.62 1.04Zm8.57 8.07a1.17 1.17 0 0 1-1.65 1.66c-.3-.3-.42-.75-.3-1.16a.08.08 0 0 0-.02-.08l-.57-.58c-.03-.03-.07-.03-.1 0-.02 0-.02 0-.02.02a2.09 2.09 0 0 0 .86 2.81c1.02.54 2.27.16 2.8-.86a2.09 2.09 0 0 0-.85-2.82 2.06 2.06 0 0 0-1.95 0 .08.08 0 0 0-.02.1l.02.02.57.58c.02.01.04.02.07.01.41-.11.86 0 1.16.3Zm0-2.79c-.45.46-1.2.46-1.65 0a1.18 1.18 0 0 1 0-1.66c.3-.31.75-.43 1.16-.3.03 0 .06 0 .07-.02l.58-.57a.08.08 0 0 0 0-.11l-.02-.01a2.07 2.07 0 0 0-2.8.86 2.09 2.09 0 0 0 .86 2.82c1 .54 2.26.15 2.8-.87a2.1 2.1 0 0 0 0-1.95c-.02-.03-.06-.05-.1-.03l-.02.01-.57.58c-.02.02-.03.04-.02.07.13.42.02.88-.28 1.18Zm-.8-4.1a1.17 1.17 0 0 1-.01-2.35c.43 0 .82.23 1.03.62 0 .03.03.04.06.04h.82c.04 0 .07-.04.07-.08v-.01a2.06 2.06 0 0 0-2.59-1.38 2.08 2.08 0 0 0 1.22 3.98 2.1 2.1 0 0 0 1.37-1.38c0-.04-.01-.08-.06-.09h-.81a.08.08 0 0 0-.07.04c-.2.36-.6.6-1.03.6Z"/><path fill="#F2F2F2" d="M101.93 223.25c.45-.46 1.2-.46 1.65 0 .46.46.46 1.2 0 1.67-.3.3-.75.42-1.16.3-.03-.02-.05 0-.07.01l-.57.58a.07.07 0 0 0 0 .1l.01.01c1.02.54 2.27.16 2.8-.86a2.09 2.09 0 0 0-.85-2.82 2.07 2.07 0 0 0-2.8.87 2.1 2.1 0 0 0 0 1.95c.01.04.06.04.1.03v-.01l.58-.58c.02-.02.03-.04.02-.07-.13-.42-.02-.87.29-1.18Zm11.63 1.2c0-.13.1-.23.23-.24h1.14c.13.01.22.11.23.24v8.13c0 .13-.1.24-.23.24h-1.14a.25.25 0 0 1-.23-.24v-8.13Zm3.51 7.17.44-.77a.28.28 0 0 1 .38-.1l.03.02c.06.04 1.06.77 1.85.77.63 0 1.1-.42 1.1-.95 0-.63-.52-1.06-1.55-1.47-1.14-.47-2.3-1.2-2.3-2.66 0-1.1.81-2.35 2.76-2.35.87.01 1.73.3 2.44.82.13.1.16.27.07.4l-.46.71c-.1.15-.28.24-.43.15a3.92 3.92 0 0 0-1.7-.68c-.7 0-1.08.47-1.08.86 0 .58.46.97 1.45 1.38 1.18.48 2.56 1.19 2.56 2.78 0 1.27-1.09 2.44-2.81 2.44a3.95 3.95 0 0 1-2.7-.96c-.1-.14-.16-.2-.05-.4Zm6.13.88 3.81-8.27a.23.23 0 0 1 .2-.13h.13c.1-.01.17.04.2.13l3.78 8.27c.05.1.02.24-.1.3a.27.27 0 0 1-.1.02h-1.07a.36.36 0 0 1-.36-.24l-.6-1.32h-3.66l-.6 1.32a.36.36 0 0 1-.35.24h-1.07a.22.22 0 0 1-.23-.2c0-.04 0-.08.02-.12Zm5.3-2.62-1.23-2.7h-.03l-1.2 2.7h2.46Zm7.72-5.78c1.1-.03 2.16.38 2.96 1.14.1.08.12.22.04.32l-.02.03-.74.78a.2.2 0 0 1-.28.03l-.04-.03a2.91 2.91 0 0 0-1.88-.73 2.79 2.79 0 0 0-2.73 2.86 2.78 2.78 0 0 0 4.61 2.14.22.22 0 0 1 .3 0l.77.79c.09.1.08.24-.01.33a4.4 4.4 0 0 1-7.45-3.16 4.4 4.4 0 0 1 4.32-4.5h.15Zm3.64 8.4 3.8-8.27a.23.23 0 0 1 .21-.13h.13c.09-.01.17.04.2.13l3.78 8.27c.05.1.01.24-.1.3a.28.28 0 0 1-.12.02h-1.06a.34.34 0 0 1-.35-.24l-.6-1.32h-3.67l-.6 1.32a.36.36 0 0 1-.35.24h-1.07a.22.22 0 0 1-.23-.2l.03-.12Zm5.29-2.62-1.23-2.7h-.04l-1.2 2.7h2.47Zm4.07 1.58c.4 0 .73.32.73.73a.72.72 0 1 1-1.45 0c0-.4.33-.73.72-.73Zm0 1.33a.6.6 0 0 0 0-1.2.6.6 0 0 0-.6.6c0 .33.27.6.6.6Zm-.25-.94c0-.01.02-.03.04-.03h.28c.13-.01.24.08.25.2v.02c.01.11-.06.2-.16.23l.13.23c0 .02 0 .05-.02.06h-.09c-.02 0-.03-.02-.04-.03l-.11-.25h-.16v.24c0 .02-.01.03-.03.03H149a.04.04 0 0 1-.04-.03v-.67Zm.32.3c.06 0 .12-.04.12-.1 0-.07-.05-.13-.1-.13h-.23v.24h.21Zm53.81 17.1a19.39 19.39 0 1 0 0-38.78 19.39 19.39 0 0 0 0 38.78Z"/><path fill="#375E74" d="m215.7 231.5-.96.3.22.08-.34.22.1-.6.53-.44.01.23.6-.8-.92.41.22.06-.42.35.07-.73.52-.58.04.23.49-.88-.86.54.24.02-.42.45.01-.46c0-1.14-.16-2.26-.49-3.35-.53.05-1.05-.12-1.3-.17.67.4.9.83 1 1.32a2.22 2.22 0 0 1-1.66-.37 2 2 0 0 1 .65 1.42 1.94 1.94 0 0 1-1.45-.61c.25.27.55.96.48 1.44a2.16 2.16 0 0 1-1.31-.72 3 3 0 0 1 .34 1.48 2.15 2.15 0 0 1-1.23-.62c.2.5.27 1 .23 1.41-.54-.18-.9-.4-1.2-.9.17.44.27 1.03.16 1.37a1.56 1.56 0 0 1-.98-.87c.23.49.2 1.06.12 1.35a1.14 1.14 0 0 1-.56-.31l-.02.26c-.03.33-.1.64-.2.92l.13.15c.24.26.56.5.82.58-.11.02-.26.11-.42.13.17.2.52.24.73.45-.16.03-.2.15-.4.12.38.3.73.31.93.33.08.01.34.04.5.01a1 1 0 0 1 .56.13c.15.09.14.28.11.38a.27.27 0 0 1-.15.19c-.06.02-.1.02-.04-.02.06-.04.11-.3-.02-.4a.6.6 0 0 0-.38-.1h-.57c-.12-.01-.2.14-.2.21-.05.15-.1.35-.32.25-.28-.16-.67-.14-1.12-.33.07.14.04.26.1.42-.4-.1-.5-.3-.88-.44.07.14.05.25.14.38-.33-.06-.62-.35-1.07-.46h-.04l-.45.15c.32.35.58.8.7 1.33 0 0-.22 0-.55-.11.1.3.15.62.16.94 0 0-.25-.05-.6-.27.03.33.02.66-.04.99 0 0-.3-.12-.63-.47-.04.33-.13.66-.26.98 0 0-.27-.18-.54-.6-.12.34-.28.66-.49.96 0 0-.28-.3-.48-.92-.26.4-.5.56-.5.56a3.6 3.6 0 0 1-.27-.98c-.34.35-.63.47-.63.47a3.34 3.34 0 0 1-.05-.99c-.34.22-.6.27-.6.27.01-.32.07-.64.17-.94-.33.11-.56.1-.56.1.13-.54.49-1.1.72-1.34l-.38-.12-.04-.01c-.44.11-.74.4-1.06.46.08-.13.06-.24.13-.38-.38.14-.48.34-.88.44.06-.16.04-.28.1-.41-.37.18-.88.3-1.1.35-.25.05-.27-.32-.35-.4-.03-.03-.23-.05-.32-.04-.12.02-.36.01-.54.01a.6.6 0 0 0-.4.12c-.13.1-.07.36 0 .4.05.04.01.04-.05.02a.27.27 0 0 1-.15-.19c-.02-.1-.03-.29.11-.37.1-.06.33-.17.57-.14a2.3 2.3 0 0 0 1.54-.42c-.2.03-.24-.1-.4-.12.2-.21.55-.26.72-.45-.15-.02-.28-.14-.4-.15.34-.2.57-.3.8-.56l.13-.14c-.1-.29-.17-.6-.2-.93l-.01-.25c-.09.09-.25.18-.53.28-.13-.31-.07-.9.1-1.35-.24.46-.5.76-.96.9a2.5 2.5 0 0 1 .12-1.38c-.3.5-.63.76-1.16.95-.05-.41 0-.96.2-1.46-.42.4-.77.53-1.23.62a3.1 3.1 0 0 1 .33-1.48c-.3.37-.9.62-1.38.67.04-.43.34-1 .51-1.34-.44.31-.9.53-1.4.56.05-.48.27-1 .64-1.42-.44.33-1.1.5-1.6.43.12-.53.45-1.04.88-1.31-.25.05-.71.15-1.24.1a11.62 11.62 0 0 0-.49 3.3c-.26-.22-.44-.27-.63-.45.04.25.07.39.1.7.05.54.26.86.6 1.06l.06.47c-.25-.17-.6-.27-1.05-.27.27.9.67.97 1.2 1.05l.05.25a1.92 1.92 0 0 0-1 .03c.27.41.63.66 1.22.75v.01a2.1 2.1 0 0 0-1.06.18c.45.39.88.53 1.3.49l.07.16c-.33.1-.62.26-.79.42.35.11.7.17 1.03.14l.01.02c-.19.15-.35.38-.46.75.25-.07.5-.08.76-.16.05.1.1.2.16.28-.14.26-.18.58-.1.93.2-.05.38-.13.53-.24l.15.22c-.05.41.04.82.28 1.1l.28-.37a11.65 11.65 0 0 0 19.87-3.42l.53-.24-.04.23.76-.66-.99.2.21.12-.4.16.2-.62.57-.32-.02.24.7-.73-.96.29.22.09-.47.25.17-.69.44-.28-.02.24.7-.73Z"/><path fill="#375E74" d="M198.43 225.93a3.51 3.51 0 0 1-.79-.55c-.84-.77-1.04-1.58-.8-2.51.15-.56.38-.83.3-1.41-.04-.33-.28-.6-.51-.83a5.58 5.58 0 0 0-2.22-1.2c-.62-.21-2.4-.77-3.18-1.48-.18.53.2 1.22.66 1.31-.4.04-.75.25-.9.48.3.35.9.71 1.4.72-.23.16-.51.48-.6.67.42.23 1.11.42 1.64.38-.22.18-.42.4-.54.61.35.17 1.05.4 1.71.45-.24.12-.6.54-.77.8a7.4 7.4 0 0 0 1.68.31c-.36.19-.74.56-.94.9.36.18 1.04.37 1.6.35-.28.27-.46.59-.56.9.42.08.86.08 1.38.01-.31.4-.44.92-.48 1.3.41-.02.97-.11 1.36-.35-.09.32-.07.76.07 1.06.16-.04.35-.1.56-.22l-.07-1.7Zm16.97-7.02c-.78.71-2.04.9-3.36 1.34-.99.33-1.6.52-2.5 1.23-.25.2-.49.5-.46 1 .03.57.12.82.14 1.61a1.9 1.9 0 0 1-.43 1.3c-.25.28-.57.52-.86.68l-.07 1.53c.2.1.47.21.64.25.13-.3.15-.74.07-1.06a3 3 0 0 0 1.36.34 2.67 2.67 0 0 0-.48-1.28c.51.06.96.06 1.38-.02a2.2 2.2 0 0 0-.57-.9c.56.02 1.24-.17 1.6-.35-.2-.34-.57-.71-.93-.9a7.3 7.3 0 0 0 1.7-.31 3.06 3.06 0 0 0-.8-.8 5.56 5.56 0 0 0 1.72-.45c-.13-.2-.32-.43-.54-.6a4.2 4.2 0 0 0 1.64-.4c-.1-.18-.37-.5-.6-.66 1.33-.37 1.35-1.03 1.35-1.55Z"/><path fill="#375E74" d="M209.82 220.32a11.6 11.6 0 0 0-12.77-.34c.46.36.74.74.8 1.14.06.34.1.76-.1 1.37-.2.64-.32 1.3.15 1.98.48.67 1.1.96 1.6 1.05.71-.12 1.43-.21 2.14-.27.1-.31.38-.58.67-.8.41-.33.32-.6.22-.83a.9.9 0 0 0-.43-.42c-.19-.1-.87-.17-.85.27a.76.76 0 0 1-.14-.64c.1-.39.71-.48.87-.47-.12-.1-.05-.27.23-.34.33-.1.64-.1.94-.1.63.02.72.17 1.04.45.38.34.89.46 1.09.25-.15.33-.6.5-.9.45.15.45.2.84.25 1.31.03.22.07.58.13.87.83.07 1.67.19 2.4.33.3-.09.62-.27.9-.6.27-.3.52-.7.42-1.68-.03-.28-.17-1-.15-1.33.04-.76.6-1.25 1.49-1.65Z"/><path fill="#375E74" d="M202.08 222.4c.12.08.19.1.22.09 0 .02.05.04.05.05l.05.07.32-.12.3-.1c-.55-.12-.63.05-.94 0Zm16.52 2.27c.69-.3 1-1.07.7-1.73a1.3 1.3 0 0 0-1.74-.65c-.69.3-1 1.07-.72 1.73.3.66 1.07.95 1.76.65Zm-.82-1.87c.54-.24 1.16-.13 1.32.23.16.36-.18.9-.72 1.13-.55.24-1.17.13-1.33-.23-.16-.36.18-.9.73-1.13Zm-.14 3.66-.26-1.04.16-.04.07.3 2.2-.56-.08-.3.16-.03.4 1.56.1-.02.05.2-.6.16-.05-.2.27-.07-.2-.8-.9.23.16.61.26-.06.05.2-.75.19-.05-.2.26-.07-.15-.61-1 .25.06.26-.16.04ZM187 223.68l-.1.32 1.42.42c.42.13.65.35.7.72.03.18.01.38-.04.58-.19.6-.64.9-1.16.75l-1.51-.46-.1.29-.15-.05.31-1.05.16.05-.08.28 1.4.42c.38.11.57.1.73-.07a.76.76 0 0 0 .17-.29c.13-.45-.06-.8-.52-.93l-1.4-.42-.09.31-.16-.04.26-.88.16.05Zm2.49.61a.27.27 0 0 1-.35.14.27.27 0 0 1-.14-.34c.06-.14.21-.2.34-.14a.27.27 0 0 1 .15.34Zm.48-1.12-.1.19-.62-.35.1-.19.26.15a.78.78 0 0 0 .42-.35c.11-.21.07-.44-.1-.53-.16-.1-.32-.05-.7.15-.4.22-.46.24-.62.27-.14.03-.3 0-.46-.09-.37-.21-.47-.63-.23-1.05a1 1 0 0 1 .28-.32l-.1-.06.1-.19.59.33-.1.19-.24-.14c-.18.1-.26.17-.33.3-.1.17-.05.38.1.47.14.08.27.05.67-.16l.35-.19a.8.8 0 0 1 .74.02c.4.22.51.66.29 1.06a1 1 0 0 1-.42.42l.12.07Zm1.03-1.78a.26.26 0 1 1-.51 0c0-.14.11-.25.26-.25.14 0 .25.1.25.25Zm6.07-5.05-1.66.86-.07-.15.26-.14-1.03-2-.27.13-.07-.15 1.44-.74-.05-.1.18-.1.29.56-.19.1-.12-.26-.73.38.42.82.56-.29-.12-.23.19-.1.35.69-.19.1-.12-.25-.56.29.44.86.76-.39-.13-.26.19-.1.23.47Zm1.6-.58-1.07.36-.06-.16.28-.09-.7-2.15-.29.1-.05-.16 1.13-.37c.46-.16.85.02 1 .45.13.4-.12.86-.55 1a.96.96 0 0 1-.21.05l-.06-.18.1-.02c.26-.09.34-.32.23-.65-.12-.35-.32-.49-.59-.4l-.22.08.7 2.1.31-.11.05.15Zm3.2-.87-.17.03-1.39-2.3-.23.03-.57 2.65-.24.04.03.16.8-.14-.03-.16-.31.06.14-.67.94-.17.35.59-.27.04.03.17.94-.17-.03-.16Zm-1.92-.56.23-1.03.53.9-.76.13Zm4.63.56h-.17c-.08 0-.12-.03-.22-.17l-.55-.86c.37-.11.55-.34.55-.7a.7.7 0 0 0-.19-.5c-.14-.14-.33-.2-.66-.2h-1.16v.17h.3v2.26h-.3l-.01.16h1.1v-.16h-.3v-.99h.11l.6.93c.12.2.16.23.4.23h.5v-.17Zm-1.6-2.2h.25c.28 0 .44.18.44.5 0 .3-.19.52-.46.52h-.23v-1.03Zm3.37 2.68-1.25-.21.03-.16.38.06.36-2.16-.67-.12-.05.32-.22-.03.12-.66.21.04-.02.1 1.83.31.02-.1.22.03-.12.66-.2-.03.05-.33-.67-.11-.37 2.17.38.06-.03.16Zm3.67 1.24-1.1-.42.07-.16.3.13.62-1.59-1.5 1.46-.2-2.08-.6 1.55.3.12-.05.15-.85-.32.06-.16.3.12.83-2.1-.31-.13.06-.15.65.25.2 2.04 1.43-1.4.72.27-.06.16-.3-.12-.82 2.1.3.13-.05.15Zm1.9 1.25-1.57-1 .1-.14.24.16 1.22-1.91-.25-.16.09-.14 1.36.87.06-.1.18.12-.34.53-.17-.11.15-.24-.69-.44-.5.78.53.34.15-.23.18.11-.42.66-.18-.11.15-.24-.53-.33-.52.81.71.46.16-.24.18.11-.28.44Zm-17.9.11-.26.19-1.28-1.74.27-.2c.37-.27.98-.1 1.32.36.37.5.34 1.1-.06 1.4Zm.5-1.72a1.29 1.29 0 0 0-1.83-.25l-.99.72.1.13.24-.17 1.34 1.82.19.07.65-.48c.31-.23.47-.48.53-.82.06-.36-.02-.72-.23-1.02Zm20.75 1.07-.11.13.23.2-1.11 1.22.28-2.2-.58-.52-.1.12.2.2-.04.22-1.39 1.53-.24-.22-.11.12.65.6.12-.13-.23-.2 1.15-1.27-.25 2.01.78-.2.06-.02.99-1.09.25.22.1-.12-.65-.6Zm2.64 2.86-.08.06-1.13-1.47.08-.07-.13-.17-.53.4.13.18.26-.2.41.54-1.74 1.33-.09-.12-.15.08.65.84.13-.1-.23-.3 1.74-1.33.41.54-.26.2.13.17.53-.4-.13-.18Zm-11.47 26.97-.21.04-.15-.69.2-.04.07.28c.2.1.34.12.53.08.24-.05.38-.23.34-.43-.04-.17-.18-.27-.59-.42a1.87 1.87 0 0 1-.6-.28.66.66 0 0 1-.25-.4c-.09-.42.16-.77.63-.88.15-.03.27-.03.43 0l-.02-.12.2-.04.15.66-.2.04-.07-.26c-.18-.07-.3-.09-.43-.06-.2.05-.33.22-.29.4.04.16.15.23.56.39l.38.14c.11.04.2.11.29.2.1.1.16.22.2.37.09.44-.16.81-.61.91-.22.05-.4.04-.6-.03l.04.14Zm3.99-1.26-1.74.69-.06-.16.28-.1-.83-2.11-.28.1-.06-.15 1.5-.59-.03-.1.2-.08.22.58-.2.08-.1-.26-.76.3.34.86.59-.23-.1-.25.2-.08.28.72-.2.08-.1-.26-.58.23.35.9.8-.3-.11-.28.2-.07.19.48Zm2.61-1.6c-.22.29-.37.43-.63.59-.7.42-1.5.25-1.9-.41-.4-.67-.2-1.46.48-1.88.21-.13.38-.19.63-.22l-.09-.14.19-.12.36.6-.18.12-.14-.22c-.27-.02-.4.01-.57.12-.47.28-.56.87-.22 1.43.33.54.94.75 1.4.47.17-.1.27-.22.37-.4l-.16-.26.2-.12.26.45Zm1.19-4.04-.25.22 1 1.09c.3.33.37.63.23.97-.08.19-.2.35-.34.48-.47.43-1 .45-1.37.05l-1.07-1.17-.22.2-.11-.13.8-.74.12.13-.22.2.99 1.08c.27.29.44.38.66.32.1-.03.2-.09.29-.17.35-.31.36-.7.04-1.06l-.99-1.08-.23.22-.12-.12.67-.62.11.13Zm4.4-2.3-.52.97-.15-.08.15-.26-2-1.08-.14.26-.14-.07.52-.97.15.08-.14.25 1.99 1.08.14-.25.14.07Zm1-2.35-.44 1.19-.15-.06.13-.36-2.05-.77-.24.63.3.12-.07.2-.63-.24.08-.2.1.04.66-1.74-.1-.04.07-.2.62.23-.07.2-.3-.1-.25.62 2.06.78.13-.36.16.06Zm.7-2.89-.21 1.08-.16-.03.05-.29-1.06-.2-1.3.53-.05.24-.16-.03.2-1.08.17.03-.06.29.95-.38-.74-.68-.06.33-.16-.03.17-.9.16.03-.05.28.93.85 1.16.22.06-.29.16.03Zm-5.36 6.63.15-.2c.16-.22.4-.24.65-.06.25.19.32.46.16.68l-.14.19-.82-.61Zm2.72.03-.1.13c-.05.06-.1.08-.27.07l-1.02-.06c.13-.37.06-.65-.23-.86a.69.69 0 0 0-.52-.15c-.2.03-.35.15-.55.43l-.69.92.13.1.18-.24 1.82 1.35-.18.24.13.1.66-.88-.14-.1-.17.24-.8-.6.07-.08 1.09.08c.25.01.29 0 .43-.19l.3-.4-.14-.1Zm-31.1-4.23-.27-1.07.16-.03.08.28 1-.24-.3-1.24-1 .24.06.29-.16.03-.26-1.06.16-.04.07.29 2.2-.54-.07-.29.16-.04.26 1.07-.16.04-.07-.29-.97.24.3 1.24.97-.24-.07-.28.16-.04.26 1.07-.16.04-.07-.3-2.2.54.08.3-.16.03Zm2.34 2.46c.68-.31.98-1.08.68-1.74a1.3 1.3 0 0 0-1.76-.62 1.32 1.32 0 0 0-.69 1.73c.3.66 1.09.94 1.77.63Zm-.85-1.86c.54-.25 1.16-.15 1.33.21.16.36-.17.9-.71 1.15-.54.24-1.17.14-1.33-.22-.17-.36.17-.9.71-1.14Zm1.84 5.6-.68-.95.13-.1.2.27 1.37-1-2.04.42.95-1.86-1.35.97.2.27-.13.1-.54-.74.13-.1.2.27 1.83-1.33-.2-.27.14-.1.4.57-.92 1.83 1.95-.41.46.63-.13.1-.2-.27-1.82 1.33.19.26-.13.1Zm2.05 2-1.38-1.27.12-.12.21.2 1.54-1.66-.22-.2.1-.12 1.2 1.1.07-.09.16.15-.42.45-.16-.14.2-.2-.6-.56-.63.68.46.43.18-.2.16.14-.53.57-.16-.14.19-.2-.46-.42-.66.7.63.59.2-.22.15.15-.35.38Zm2.33 1.6-1.53-1.03.09-.14.25.17 1.26-1.88-.25-.16.1-.14.9.61-.09.14-.24-.17-1.23 1.83.7.46.16-.24.18.12-.3.43Zm2.83 1.2-.15-.06.16-2.69-.22-.1-1.96 1.87-.22-.1-.07.15.74.33.07-.15-.3-.13.5-.47.87.4-.04.67-.25-.11-.07.15.87.4.07-.15Zm-1.26-1.53.77-.73-.07 1.05-.7-.32Zm3.98 2.46-.27-.06-.88-2.2-.4 1.68.3.07-.03.16-.87-.2.04-.17.32.08.48-2-.08-.23-.27-.06.03-.17.77.19.81 2.05.38-1.6-.3-.07.04-.16.86.2-.04.17-.32-.08-.57 2.4Zm2.45.2c.38.01.67-.08.92-.31.28-.25.44-.58.45-.94a1.29 1.29 0 0 0-1.27-1.34l-1.23-.05v.17h.3l-.09 2.27-.3-.01v.16l1.22.05Zm-.3-2.3.33.01c.46.02.84.53.82 1.1-.03.62-.42 1.08-.9 1.06l-.33-.01.08-2.16Z"/><path fill="#F2F2F2" d="M203.18 235.74h-.12c-.07-.4-.35-.63-.77-.76l-1.75-.55c-1.13-.34-1.7-1.26-1.79-2.4-.1-1.62-.27-4.47-.33-6.28 1.28-.32 3.17-.56 4.76-.56 1.6 0 3.48.24 4.76.56-.06 1.8-.22 4.66-.33 6.28-.08 1.14-.66 2.06-1.8 2.4l-1.74.55c-.42.13-.7.37-.76.76h-.13Z"/><path fill="#375E74" d="m202.86 231.6-.24-.11-.15-.4-.33-.14-.39-.34-.22.25-.34.08-.19.28-.27.3-.37.2-.26.43-.14.19-.25.2-.14-.15-.15.14-.18.34c-.1-.25-.16-.45-.2-.86l-.15-2.7c1.25-.27 2.85-.45 4.15-.46v2.96c-.06-.03-.12-.06-.18-.2Zm.18 1.43h-3.74a2.11 2.11 0 0 0 1.33 1.13l1.39.44.36.11c.3.1.51.23.66.38v-2.06m3.94-1.44c.1-.08.22-.18.37-.23l.07-1.11-.13.1c-.18.15-.4.33-.8.33-.36 0-.6-.15-.8-.27-.15-.1-.27-.17-.46-.17-.2 0-.37.1-.55.22-.2.11-.43.25-.7.25-.28 0-.49-.09-.66-.18v1.05l.12.07c.16.1.3.19.54.19.14 0 .28-.09.45-.19.22-.13.47-.28.8-.28.32 0 .53.13.72.24.17.1.31.2.54.2.22 0 .34-.1.49-.22Zm-3 2.39c-.28 0-.49-.09-.66-.18v1.28c.15-.14.36-.28.66-.37l.36-.11 1.39-.44c.2-.06.37-.13.53-.23a1.57 1.57 0 0 1-.56-.25c-.16-.1-.28-.17-.47-.17-.2 0-.37.1-.55.22-.2.12-.43.25-.7.25Zm3-4c.12-.1.27-.22.47-.27l.03-.4a22.23 22.23 0 0 0-4.16-.46v1.12l.12.06c.16.1.3.2.54.2.14 0 .28-.1.45-.19.22-.13.47-.28.8-.28.32 0 .53.13.72.24.17.1.31.2.54.2.22 0 .34-.1.49-.22Zm-3.66 2.17v1.09l.12.06c.16.1.3.2.54.2.14 0 .28-.09.45-.19.22-.13.47-.28.8-.28.32 0 .53.13.72.24.17.1.31.2.54.2.18 0 .3-.07.4-.16a2.6 2.6 0 0 0 .43-1.37l-.03.03c-.18.14-.4.32-.8.32-.36 0-.6-.14-.8-.26-.15-.1-.27-.18-.45-.18-.2 0-.38.1-.56.22-.2.12-.43.25-.7.25a1.3 1.3 0 0 1-.66-.17Z"/><path fill="#375E74" d="m198.87 229.02-.15-3.05c1.33-.3 3.08-.5 4.46-.5s3.13.2 4.45.5l-.14 3.05c-1.25-.26-2.9-.46-4.31-.46-1.41 0-3.06.2-4.31.46Z"/><path fill="#F2F2F2" d="m199.74 226.69.05-.24-.22-.1.24-.02.02-.24.1.22.23-.05-.18.16.12.21-.2-.12-.16.18Zm1.45-.2-.2-.13-.17.18.06-.24-.2-.1.23-.02.03-.24.09.22.23-.03-.18.15.11.21Zm1.1-.08-.2-.14-.18.16.07-.23-.2-.12h.23l.05-.24.08.23.23-.02-.19.14.1.22Zm1.08-.02-.18-.15-.19.15.09-.23-.2-.13.23.01.07-.23.06.23.23-.01-.2.13.1.23Zm3.1.12-.2.12.12-.2-.18-.17.23.05.1-.22.02.24.24.02-.22.1.05.24-.16-.18Zm-1.18-.23-.19-.15.24.04.09-.23.03.24.24.01-.21.11.06.24-.17-.18-.2.13.1-.2Zm-1.1-.09-.2-.14.25.02.07-.22.05.23h.23l-.2.12.07.23-.18-.16-.19.14.1-.22Zm-4.3 2.26.06-.23-.22-.1.24-.03.03-.23.09.22.23-.05-.17.16.11.2-.2-.12-.16.18Zm1.42-.18-.2-.13-.17.17.06-.23-.2-.11.23-.01.04-.24.08.22.24-.03-.19.15.11.21Zm1.05-.07-.2-.14-.17.16.07-.23-.2-.12h.23l.05-.24.08.23.23-.03-.19.15.1.22Zm1.05-.02-.19-.15-.18.15.08-.23-.2-.13.24.01.06-.23.06.23h.24l-.2.12.09.23Zm2.98.1-.2.13.11-.2-.18-.17.23.05.1-.22.03.24.23.02-.21.1.05.24-.16-.18Zm-1.15-.21-.18-.15.23.03.09-.22.03.24h.24l-.21.12.06.23-.17-.17-.2.13.11-.21Zm-1.06-.09-.19-.14.24.03.07-.23.05.23h.24l-.2.12.06.23-.17-.16-.2.14.1-.22Zm-3.76-.57.05-.23-.21-.1.24-.03.03-.24.09.23.23-.04-.18.15.11.21-.2-.12-.16.17Zm-1.04.17.04-.24-.22-.1.24-.02.02-.24.1.22.23-.05-.17.16.12.2-.2-.11-.16.18Zm2.45-.32-.2-.13-.17.16.07-.23-.21-.11h.24l.04-.25.08.23.23-.03-.19.15.1.21Zm1.04-.05-.19-.14-.18.15.08-.22-.2-.13h.23l.06-.23.07.23.23-.02-.2.14.1.22Zm1.05.02-.18-.16-.2.14.1-.22-.2-.14.24.02.07-.23.05.24h.24l-.2.12.08.23Zm2.97.17-.21.12.12-.2-.17-.17.23.05.1-.21.02.23.24.04-.22.09.04.24-.15-.19Zm-1.14-.24-.19-.16.24.04.1-.22.02.24.24.02-.21.1.05.24-.16-.18-.2.13.1-.21Zm-1.06-.1-.18-.16.23.03.08-.22.04.23.24.01-.2.12.06.23-.17-.17-.2.14.1-.22Zm-12.12 5.5c.35-.5 1.01-.6.72-1.94-.75.32-1.1 1.26-.72 1.94Zm-.05-3.35c-.24.1-.58.44-.73.87.25.3.36.65.35.98.46-.42.62-1.15.38-1.85Zm.45 4.64h-.01c-.36-.2-.6-.27-1.09-.2.45.03.77.09 1.1.2Zm1.47 1.63-.01.03c-.02.54.33 1.15-.29 2-.03.1-.07.33.25-.05.63-.75.1-1.36.05-1.98Zm-1.26.85c.06-.34.28-.74.6-1.01.24-.2.37-.26.18-.06-.3.3-.63.8-.78 1.07Zm.72.92c-.12-.32-.01-.83.12-1.16.1-.23.33-.58.4-.62-.25.4-.53 1.47-.52 1.78Zm-1.05-4.43a.2.2 0 0 0-.04-.08.2.2 0 0 0-.06-.06.21.21 0 0 0-.08-.03h-.08a.22.22 0 0 0-.08.4.22.22 0 0 0 .24 0 .24.24 0 0 0 .06-.06.22.22 0 0 0 .04-.17Zm1.93.3c0-.33-.04-.67 0-1.06-.67.48-.9 1.33-.62 1.92a.2.2 0 0 0-.08 0 .23.23 0 0 0-.18.27.23.23 0 0 0 .45 0 .23.23 0 0 0-.1-.24c-.11-.52-.02-1.17.25-1.45a4.29 4.29 0 0 0-.14 1.65c.11-.13.2-.24.25-.36.01.1.04.2.08.3.01-.5.18-1 .7-1.34a3 3 0 0 0-.64 1.48c.28-.35.9-.46.95-1.84-.32.1-.7.33-.92.67Zm.44 1.43a.24.24 0 0 0-.37-.16.24.24 0 0 0-.1.25.24.24 0 0 0 .47-.1Zm-.09.72a.25.25 0 0 0-.1-.15.25.25 0 0 0-.18-.03.24.24 0 0 0-.19.28.24.24 0 1 0 .47-.1Z"/><path fill="#F2F2F2" d="M193.74 231.72a1.5 1.5 0 0 0-.57 1.38h-.06a.18.18 0 0 0-.12.08.18.18 0 0 0-.03.14.19.19 0 0 0 .28.12c.05.12.1.24.18.35a2.9 2.9 0 0 1-.1-.55v-.01c-.02-.38.04-.78.25-1.06a6.16 6.16 0 0 0-.07 1.72c.14-.53.91-.77.24-2.17Zm1.95 3.15a.2.2 0 0 0-.22-.14.19.19 0 0 0-.12.08.19.19 0 0 0-.03.13c.03.1.13.17.23.15.04 0 .09-.04.11-.08.03-.04.04-.09.03-.14Zm-1.03-.03a.18.18 0 0 0-.05-.1.17.17 0 0 0-.09-.04l-.1.01a.16.16 0 0 0-.07.06.17.17 0 0 0 0 .2.18.18 0 0 0 .18.07.17.17 0 0 0 .13-.2Zm-2.36-2.38a.15.15 0 0 0-.05-.09.15.15 0 0 0-.1-.04c-.24-.32-.6-.68-1.17-.73.32.15.8.44 1.13.74a.16.16 0 0 0-.12.18c0 .04.03.08.06.1a.16.16 0 0 0 .25-.16Zm.01-1.1a.21.21 0 0 0-.09-.13.21.21 0 0 0-.07-.02h-.09c-.13-.51-.26-.91-.84-1.31a8 8 0 0 1 .82 1.32.2.2 0 0 0-.1.09.2.2 0 0 0 0 .2l.06.06a.21.21 0 0 0 .15.03.2.2 0 0 0 .13-.08.2.2 0 0 0 .03-.16Zm.6 2.03a.15.15 0 0 0-.07-.1.16.16 0 0 0-.18-.01.16.16 0 0 0-.04.04c-.52-.46-.87-.46-1.15-.47.17.06.76.23 1.13.5a.13.13 0 0 0-.01.09.16.16 0 0 0 .18.13.16.16 0 0 0 .1-.06.15.15 0 0 0 .03-.06v-.06Zm.43.64a.23.23 0 0 0-.28-.18.23.23 0 0 0-.14.1c-.03.05-.05.11-.03.17a.22.22 0 0 0 .18.18h.09c.12-.02.2-.15.18-.27Zm.33.4a.15.15 0 0 0-.06-.1.17.17 0 0 0-.06-.03h-.06c-.06 0-.1.04-.12.09a2.2 2.2 0 0 0-1.35.23c.46-.1.94-.2 1.34-.2v.06a.16.16 0 0 0 .28.07.16.16 0 0 0 .03-.12Zm.46.27a.21.21 0 0 0-.25-.16.2.2 0 0 0-.16.24h-.01c-.33-.02-.89.07-1.23.47.35-.2.9-.41 1.24-.46h.01c.01.05.05.1.09.13.05.02.1.03.15.02.05 0 .1-.04.13-.09a.2.2 0 0 0 .03-.15Zm2.92 1.04a4.2 4.2 0 0 1 1.62 2.5c-.12-.08-.34-.17-.48-.14a3.2 3.2 0 0 0-1.25-2.08.83.83 0 0 1 .1-.28Zm-.73.75c.23.08.34.05.4-.03.12-.17.06-.4-.01-.43v.22c-.02.07-.05.18-.18.16a.7.7 0 0 1-.26-.09c-.05-.03-.05-.12-.02-.2a.28.28 0 0 1 .07-.13c-.07.02-.12.06-.18.1-.06.05-.15.06-.2 0a.78.78 0 0 1-.12-.16c-.06-.13.1-.22.2-.26-.17 0-.2.06-.32.04-.13-.03-.16-.23-.16-.3 0-.05.06-.1.13-.12a.7.7 0 0 1 .2 0 .52.52 0 0 1 0-.11c-.13-.03-.38.01-.43.08-.06.1-.04.14 0 .3.05.16.09.21.19.23.03 0 .08 0 .14-.02a.14.14 0 0 0-.07.08c-.02.04-.04.11.08.26.1.13.21.18.3.13.05-.03.06-.06.09-.08a.68.68 0 0 0-.04.1c-.02.13.07.18.2.23Z"/><path fill="#F2F2F2" d="M196.16 235.5c.06-.08.22-.1.3-.04a.6.6 0 0 0-.03.4c-.22-.03-.26-.25-.27-.36Zm.35-.01c.13-.01.18-.08.2-.14.03-.07.1-.1.1 0 0 .09 0 .13-.06.16a.27.27 0 0 1-.24-.02Zm.06.2a.5.5 0 0 1-.08.2c-.03.06-.08.08-.11.12.06.04.14.07.22.06.06 0 .07-.01.06-.04a1.1 1.1 0 0 0-.09-.34Zm13.22-.3c.06.1.07.3.04.39.22-.04.26-.25.27-.36-.06-.08-.22-.1-.3-.04Zm-.04.02c-.13-.01-.18-.08-.2-.14-.03-.07-.1-.1-.1 0 0 .09 0 .13.06.16a.3.3 0 0 0 .24-.02Zm.02.4a.52.52 0 0 1-.09-.2 1.4 1.4 0 0 0-.09.34c0 .03 0 .04.08.04.07 0 .15-.02.21-.07l-.11-.1Z"/><path fill="#F2F2F2" d="m213.67 232.25.22.06-3.4 2.7-.09.07h-.01v.11l.16.01c.08.02.13.07.13.12 0 .07-.03.28-.17.3-.12.01-.15-.05-.3-.06.08.06.24.15.18.27a.63.63 0 0 1-.13.17c-.05.05-.14.04-.2 0-.06-.06-.1-.1-.18-.12.05.04.06.1.08.13.02.08.02.17-.03.2a.7.7 0 0 1-.27.08c-.12.02-.15-.1-.16-.16a.51.51 0 0 1 0-.23c-.08.04-.14.27-.02.44.05.08.16.12.39.04.12-.05.22-.1.2-.22a.56.56 0 0 0-.03-.11c.02.02.03.06.08.08.1.05.2 0 .3-.12.13-.14.1-.21.09-.25a.14.14 0 0 0-.07-.08c.06.02.11.02.14.01.1 0 .14-.06.2-.22.05-.16.06-.2 0-.3-.02-.03-.1-.06-.2-.08l3.4-2.67v.23l.6-.8-.91.4Zm-1.82.83 2.4-3.05.06.23.4-.92-.8.6.24.02-2.18 2.76-.52.79.4-.43Z"/><path fill="#F2F2F2" d="m211.56 233.99.62-.5 2-1.85.03.24.54-.86-.89.48.23.05-2 1.86-.53.58Zm2.22-.44-2.81 1.41c-.05.04-.1.07-.12.1a.2.2 0 0 1 .05.05l.01.02 2.93-1.47-.04.24.76-.67-.99.21.22.1Zm-4.25 2.99a.3.3 0 0 1-.12-.07l-.5 1.05-.18.06-.6 1.15.29-.09.1.29.57-1.17-.07-.18.5-1.04Z"/><path fill="#F2F2F2" d="m211.49 234.55.64-.33 1.88-1.22-.01.24.67-.75-.95.32.22.08-2.04 1.34-.41.32Zm-2.2 1.7a.55.55 0 0 1-.01-.16l-.67.73-.2.01-.01.02-.94.93h.05l.24-.01.04.23.77-1.02.15-.03.58-.7Zm1.24-1.45.34-.27 3.3-3.6.04.23.47-.89-.85.55.23.03-3.44 3.77-.1.18Zm-2.94 2.46 1.22-.86.35-.38-1.53 1.01-.2-.04-.1.07-.99.62.28.05.03.21.8-.68h.14Zm-1.02.12.5-.31.45-.31.16.03 1.38-.87.03-.01v-.01l-1.46.73-.19-.06-1.16.56.26.1.03.15Zm5.53-6.78.23-.04-2.1 4.27.03.02.07.06 2.11-4.3.11.22.2-1-.65.77Zm.25.72.23-.01-1.32 2-.44.9.02-.03 1.85-2.8.08.22.33-.95-.75.67Zm98.77 1.9v-5.87l3.72 2.74-3.72 3.13Zm-49.14 2.75a71.1 71.1 0 0 1-.06-4.02c.01-4.17 0-4.02.43-4.57.11-.15.2-.32.18-.38-.05-.12.26-.41.37-.34.04.02.22-.09.4-.25.31-.29.62-.43.75-.34.04.01.43-.01.86-.07.53-.07.82-.08.9-.02.06.04.23.06.39.03.16-.02.29-.01.29.03s.1.1.23.13c.13.04.27.11.31.17.05.06.24.18.44.28.2.1.35.23.35.3 0 .05.1.19.2.3.25.24.55 1.27.55 1.85 0 .24.04.47.1.53.06.07.06.12-.02.22-.07.09-.09.26-.06.54.03.23.02.44-.02.46-.04.03-.06.1-.03.15.02.07-.02.23-.1.36-.06.13-.12.29-.12.36 0 .06-.1.21-.2.35-.12.13-.2.3-.17.36.04.08 0 .13-.07.13s-.22.1-.33.23a2 2 0 0 1-.69.43 4 4 0 0 0-.6.28c-.05.04-.17.05-.27.01-.09-.02-.17-.01-.17.03 0 .1-.56.06-.68-.05a.39.39 0 0 0-.25-.1c-.08 0-.37-.1-.64-.21-.28-.12-.51-.2-.54-.2-.02 0-.05.6-.06 1.31-.03 1.3-.04 1.34-.24 1.53-.16.15-.31.2-.79.21-.31.02-.61 0-.64-.03Zm3.68-4.12c0-.05.07-.06.16-.03.1.03.17.02.17-.04 0-.13.35-.5.47-.5.06 0 .15-.15.2-.33a7.13 7.13 0 0 0-.05-2.36c.07-.24-.4-.8-.66-.8a.53.53 0 0 1-.33-.17.54.54 0 0 0-.33-.17c-.1 0-.32.08-.5.17-.19.1-.38.17-.43.17-.06 0-.22.21-.37.47-.24.42-.29.57-.31 1.22-.04.74.1 1.63.24 1.63.04 0 .07.06.07.13s.1.16.2.2c.11.04.22.14.25.2.03.08.14.18.24.22.26.1.98.1.98 0Zm-8.56 1.64c-.05-.06-.31-.13-.6-.16a2.48 2.48 0 0 1-.65-.14 1 1 0 0 0-.37-.08c-.12 0-.27-.09-.36-.2-.08-.1-.2-.18-.25-.15-.06.02-.1-.04-.1-.13 0-.12-.07-.19-.19-.2-.12-.02-.18-.08-.18-.18 0-.07-.04-.14-.1-.14-.08 0-.12-.07-.1-.15a.67.67 0 0 0-.1-.36c-.18-.27-.34-.91-.27-1.14.04-.17.08-.18.93-.18h.91v.25c-.01.14.06.33.15.44.1.1.2.25.23.33.02.1.12.18.21.2.1.03.17.08.17.11 0 .18.86.35 1.52.32.6-.03.74-.07 1.11-.3.32-.2.42-.31.39-.43-.03-.08 0-.18.05-.2.17-.11.1-.53-.12-.67-.12-.07-.2-.19-.2-.25 0-.17-.38-.38-.67-.38-.14 0-.25-.03-.25-.07 0-.03-.13-.06-.3-.07a.84.84 0 0 1-.44-.14 6 6 0 0 0-1.71-.45 1.29 1.29 0 0 1-.86-.45.36.36 0 0 0-.26-.15c-.17 0-.4-.23-.31-.3.03-.03 0-.16-.06-.28-.07-.11-.14-.27-.18-.34l-.16-.33c-.44-.76.34-2.42 1.4-2.98.2-.1.38-.18.44-.18s.11-.03.11-.08c0-.04.12-.09.25-.09.14 0 .25-.02.25-.05 0-.09 1.75-.05 2.3.04.23.04.5.13.57.22.08.08.2.11.29.09.1-.04.18 0 .25.12.05.1.16.17.24.17.17 0 .4.22.3.3-.02.03.02.1.1.16.18.13.55 1.27.5 1.55-.02.17-.06.2-.69.22-.82.03-1-.02-1.08-.26a.93.93 0 0 0-.19-.34c-.06-.07-.1-.16-.07-.2.09-.09-.12-.26-.25-.21a.2.2 0 0 1-.23-.07c-.05-.07-.23-.16-.4-.19s-.31-.09-.31-.13c0-.05-.17-.08-.38-.08-.2 0-.37.03-.37.07 0 .1-.34.22-.72.25-.06 0-.11.06-.11.13 0 .06-.08.14-.16.17-.19.06-.28.37-.16.51.07.09.07.15 0 .21-.14.14-.12.2.11.3.12.05.2.15.2.22s.07.1.18.07c.1-.02.18.01.21.1.03.07.13.13.23.13a7 7 0 0 0 2.05.58c.1 0 .3.07.48.17.18.09.52.21.75.26.24.06.43.15.43.2 0 .06.11.2.25.3.43.38.58.78.63 1.67.01.48 0 .83-.05.86-.04.02-.06.11-.04.2.04.1 0 .19-.11.26-.1.06-.18.18-.18.25 0 .09-.03.15-.08.15-.04 0-.1.1-.13.21-.03.12-.1.2-.17.2s-.12.07-.12.14c0 .08-.05.12-.1.1-.06-.03-.16.03-.21.11a.4.4 0 0 1-.32.16 1 1 0 0 0-.37.08c-.09.05-.38.11-.65.14-.29.03-.55.1-.6.16-.06.08-.27.12-.57.12-.3 0-.52-.04-.58-.12Zm36.87-.13a6.5 6.5 0 0 1-1.01-.12c-.12-.04-.2-.02-.2.03 0 .15-.13.1-.33-.12-.11-.1-.25-.2-.3-.2-.06 0-.11-.03-.11-.07 0-.04-.19-.25-.4-.49-.4-.4-.42-.45-.5-1.12-.07-.45-.1-1.5-.08-2.9l.02-2.2.8-.03c.6-.02.82 0 .89.1.06.07.1.92.12 2.6.02 2.34.03 2.5.19 2.7.09.11.22.19.28.17.07-.02.17.03.23.1.06.1.15.13.24.1s.18 0 .22.05c.06.08.1.08.12 0 .03-.06.13-.07.29-.04.16.03.24 0 .24-.06s.06-.08.12-.05c.08.03.13 0 .13-.08s.07-.15.17-.18c.14-.04.2-.18.17-.39a.4.4 0 0 1 .1-.2c.12-.12.14-.5.14-2.34 0-1.89.03-2.22.14-2.35.11-.12.28-.15.85-.15h.71l-.02 2.56c0 1.41-.06 2.66-.1 2.8-.05.13-.08.34-.08.46 0 .15-.1.3-.33.5-.19.16-.34.34-.34.4s-.05.12-.1.13a12.29 12.29 0 0 0-1.41.45l-.86-.06Zm-22.77-.16c-.27-.1-.57-.24-.67-.33-.1-.1-.2-.15-.24-.13-.08.1-.32-.15-.27-.27.02-.07-.01-.13-.08-.16s-.12-.1-.12-.15c0-.05-.1-.17-.21-.28-.11-.11-.2-.26-.2-.34.03-.2-.08-.73-.23-1.14a2.9 2.9 0 0 1 .04-1.58c.05-.09.15-.41.22-.73.08-.3.21-.64.3-.74.07-.1.12-.24.1-.29-.02-.06.02-.1.1-.1.07 0 .13-.06.13-.11 0-.15.3-.43.4-.36.03.02.13-.03.2-.12.23-.26.77-.35 1.93-.31 1.1.04 1.5.13 1.86.45.31.29.42.36.52.36.05 0 .07.05.05.12-.02.06 0 .14.06.16.14.05.45.92.51 1.44.04.22.1.44.14.5.03.04.07.3.09.53l.02.45-2.33.03c-2.35.02-2.66.06-2.45.31.05.07.08.17.05.24-.02.06.01.14.08.16.07.04.11.11.09.17-.11.27.29.72.64.72a.3.3 0 0 1 .21.12c.07.08.25.12.55.12.29 0 .47-.04.54-.12a.4.4 0 0 1 .26-.13c.08 0 .18-.05.2-.12.1-.25.56-.38 1.2-.36.6.03.62.04.6.23-.03.27-.2.67-.3.67-.04 0-.04.04-.01.1.07.1-.28.48-.47.48a.38.38 0 0 0-.25.14c-.25.31-.83.47-1.82.5a3.6 3.6 0 0 1-1.44-.13Zm2.55-4.33c.07-.28-.13-.93-.32-1.03l-.39-.24a1.15 1.15 0 0 0-1.11 0c-.34.21-.7.58-.7.7 0 .06-.06.2-.13.3-.28.4-.15.43 1.29.43 1.25 0 1.32 0 1.36-.16Zm4.56 4.32c-.3-.07-.56-.18-.58-.23-.01-.05-.08-.07-.15-.04-.06.02-.14-.04-.19-.15a2.77 2.77 0 0 0-.43-.58c-.2-.2-.37-.44-.38-.54-.03-.4-.27-1.4-.35-1.48-.14-.14-.12-.76.04-.9.1-.08.12-.19.08-.41-.03-.18-.02-.33.03-.37.07-.04.06-.09 0-.17-.07-.08-.05-.16.08-.33.1-.13.18-.29.18-.37 0-.08.09-.22.2-.33.11-.1.19-.23.16-.27-.07-.1.3-.5.44-.45.06.03.1.01.1-.02 0-.04.18-.18.4-.3.35-.2.46-.21 1.4-.21 1.22 0 1.78.1 2.04.37.1.11.22.19.28.16.11-.04.6.44.52.53-.03.02 0 .12.08.2.08.09.19.28.25.43l.15.41c.05.13 0 .15-.62.15-.82 0-1.27-.12-1.38-.37-.04-.1-.13-.17-.2-.15-.06.02-.2-.06-.3-.17-.18-.15-.23-.17-.38-.07-.14.08-.21.09-.38 0-.17-.1-.21-.08-.43.12-.13.14-.28.21-.32.19-.13-.08-.42.58-.48 1.04-.02.22-.08.42-.13.44-.1.07-.1.49 0 .6.1.11.26.72.26 1 0 .32.45.8.88.94.35.12 1.13.07 1.18-.07.02-.05.07-.1.1-.1.05 0 .2-.1.33-.25.23-.24.28-.24 1-.24.4 0 .76.03.79.08.07.1-.12.75-.22.75-.04 0-.07.05-.07.1 0 .06-.12.2-.26.3-.13.1-.28.28-.32.4-.04.1-.14.2-.23.2-.08 0-.37.07-.64.16-.62.2-1.77.2-2.53 0Zm29 .03a.34.34 0 0 0-.23-.11c-.2-.01-.47-.4-.35-.53.06-.05.09-.75.09-2.16 0-1.94 0-2.08-.18-2.38a1.3 1.3 0 0 0-1.08-.67c-.4 0-.98.24-.99.4a.1.1 0 0 1-.1.1c-.06 0-.17.15-.25.34-.14.3-.15.6-.13 2.7l.03 2.37-.83-.02-.84-.03-.02-2c-.02-1.78-.03-2.03-.15-2.03-.1 0-.13-.08-.1-.46.03-.25.02-.48-.03-.5-.04-.03-.05-.12-.03-.21.03-.1.02-.16-.06-.16-.06 0-.21-.12-.35-.25-.21-.22-.3-.25-.71-.25-.34 0-.5.04-.6.13a.84.84 0 0 1-.3.21c-.1.04-.17.11-.15.15a16.8 16.8 0 0 0-.12 2.86c.01 1.67-.01 2.35-.09 2.44-.06.08-.31.12-.98.12h-.88l.02-2.06c0-1.14.04-2.44.07-2.92.05-.8.07-.86.28-1.07.14-.13.22-.26.2-.3-.07-.1.24-.4.37-.35.07.03.22-.07.34-.2.2-.2.3-.24 1.04-.33a7.35 7.35 0 0 1 1.29-.06c.72.08 1.34.22 1.34.3 0 .03.09.12.2.2.2.12.24.12.46 0 .13-.06.25-.15.27-.2 0-.04.25-.13.52-.17.28-.06.56-.12.63-.16.14-.07 1.5.04 2.1.16.44.1 1.24.56 1.49.87.13.16.15.46.15 3.2 0 2.33-.03 3.02-.1 3.04-.3.1-1.16.09-1.25-.01Zm-23.35-.04c-.3-.09-.59-.44-.59-.74a.5.5 0 0 0-.12-.33c-.11-.1-.13-.62-.11-4.07l.02-3.95.57-.03c.3-.02.69.02.85.07.28.09.58.44.5.58-.03.04-.01.1.04.12.04.03.08.34.08.68v.61h.4c.21 0 .43.04.47.07.06.03.08.36.04.89l-.04.83-.43.03-.44.02v2.57c0 1.74-.02 2.59-.1 2.62-.13.08-.85.1-1.14.03Zm2.47-2.1c-.02-2.55-.02-2.6.14-2.87l.22-.44c.05-.13.12-.23.16-.23.05 0 .08-.04.08-.09 0-.15.61-.66 1-.84l.81-.37c.24-.12.47-.18.5-.17.05.03.33.05.63.06l.55.02v1.8h-.6c-.37 0-.69.05-.81.13l-.38.2c-.24.1-.45.4-.4.55.03.07 0 .17-.04.23-.06.07-.1.81-.11 2.1l-.03 1.99-.85.04-.85.04-.02-2.16Z"/><defs><clipPath id="a"><path fill="#fff" d="M0 0h46.63v46.63H0z" transform="translate(79.01 150.02)"/></clipPath><clipPath id="b"><path fill="#fff" d="M0 0h46.63v37.23H0z" transform="translate(158.03 154.72)"/></clipPath><clipPath id="c"><path fill="#fff" d="M0 0h62.7v19.59H0z" transform="translate(0 220.05)"/></clipPath></defs></svg>