<svg xmlns="http://www.w3.org/2000/svg" fill="none" viewBox="0 0 318 253"><path fill="#F2F2F2" d="M13.72 29.73v1.96H0v-1.96h13.72Zm21.43 0a7.43 7.43 0 0 1-5.05 1.96l-14.43-.02v-1.94h19.48Zm20.4 0-.7 1.96-.67-1.96h1.36Zm-6.57 0v1.96h-9.8v-1.96h9.8Zm21.56 0v1.96h-9.8v-1.96h9.8ZM37.37 26a7.42 7.42 0 0 1-.79 1.96h-20.9V26h21.69Zm19.49 0-.7 1.96h-2.6l-.7-1.96h4Zm-7.88 0v1.96h-9.8V26h9.8Zm21.56 0v1.96h-9.8V26h9.8Zm-56.82 0v1.96H0V26h13.72ZM9.8 22.26v1.96H3.92v-1.96H9.8Zm15.67 0v1.96H19.6v-1.96h5.88Zm11.85 0c.18.64.26 1.3.26 1.96H31v-1.96h6.33Zm20.85 0-.69 1.96h-5.24l-.69-1.96h6.62Zm-9.19 0v1.96h-5.87v-1.96h5.87Zm17.64 0v1.96h-5.88v-1.96h5.88ZM9.8 18.52v1.96H3.92v-1.96H9.8Zm39.18 0v1.96h-5.87v-1.96h5.87Zm17.64 0v1.96h-5.88v-1.96h5.88Zm-31.68 0a7.5 7.5 0 0 1 1.64 1.96H19.59v-1.96h15.35Zm24.54 0-.68 1.96h-7.87l-.69-1.96h9.24Zm-5.17-3.73.55 1.58.55-1.58h11.2v1.95h-5.87v-1.8l-.63 1.8H49.6l-.63-1.8v1.8H43.1V14.8h11.2Zm-34.72 0h16.99a7.5 7.5 0 0 1-1.64 1.95H19.6V14.8Zm-9.8 0v1.95H3.93V14.8H9.8Zm0-3.74v1.96H3.93v-1.96H9.8Zm15.68 0v1.96H19.6v-1.96h5.88Zm12.11 0c0 .66-.08 1.32-.26 1.96H31v-1.96h6.6Zm15.43 0 .68 1.96H43.11v-1.96H53Zm13.6 0v1.96H56.04l.68-1.96h9.9Zm-52.9-3.74v1.96H0V7.31h13.72Zm22.87 0c.36.61.62 1.27.79 1.96h-21.7V7.31h20.91Zm33.96 0v1.96h-13.2L58 7.31h12.53Zm-18.83 0 .68 1.96H39.2V7.31h12.5Zm-38-3.73v1.95H0V3.58h13.72Zm16.4 0c1.86 0 3.66.7 5.04 1.95H15.68V3.58H30.1Zm40.43 0v1.95h-11.9l.68-1.95h11.22Zm-20.13 0 .68 1.95H39.2V3.58h11.2Zm112.69 12.3a2.36 2.36 0 0 0-1.5 2.26c0 .7.3 1.25.89 1.63.55.36 1.13.45 1.75.27.7-.2 1.18-.7 1.43-1.5a4 4 0 0 0 .18-1.24v-1.97a6.81 6.81 0 0 0-2.74.55ZM164.18 0a17.64 17.64 0 1 0 0 35.27 17.64 17.64 0 0 0 0-35.27Zm1.41 10.34c-.28-.43-.79-.65-1.52-.65-.05 0-.12 0-.21.02-.09 0-.26.06-.5.14a3.1 3.1 0 0 0-.71.36 4.05 4.05 0 0 0-1.31 1.9l-3.7-.33a4.14 4.14 0 0 1 1.11-2.83c.38-.44.83-.83 1.36-1.16a7.2 7.2 0 0 1 1.9-.8 9.15 9.15 0 0 1 4.68 0 4.62 4.62 0 0 1 3.22 2.81c.1.33.15.63.15.9v7.19c0 .25.06.51.17.78.12.27.25.5.4.7a6.83 6.83 0 0 0 .9.96l.15.13-2.85 2.74a45.55 45.55 0 0 1-1.72-1.64l-.24-.24c-.1-.1-.2-.23-.32-.4a5.25 5.25 0 0 1-2.83 2.03c-.56.16-1.15.25-1.75.27-.6.03-1.18-.06-1.73-.25a5.35 5.35 0 0 1-1.48-.8 3.5 3.5 0 0 1-1.04-1.38 4.82 4.82 0 0 1-.4-1.98c0-.69.13-1.31.36-1.88a4.4 4.4 0 0 1 .9-1.42c.37-.38.82-.72 1.34-1.01.53-.3 1.04-.53 1.55-.7a13.53 13.53 0 0 1 3.13-.65c.42-.03.84-.06 1.25-.07v-1.55c0-.54-.09-.93-.26-1.19Zm7.1 14.94c-.1.13-.29.3-.55.53a13.51 13.51 0 0 1-2.97 1.73 13.73 13.73 0 0 1-5.25 1.01 13.48 13.48 0 0 1-7.8-2.58 12.17 12.17 0 0 1-2.72-2.35.54.54 0 0 1-.13-.2c-.01-.05 0-.1.02-.14a.28.28 0 0 1 .1-.08.29.29 0 0 1 .29.03c1.61.95 2.87 1.62 3.78 2.02a16.32 16.32 0 0 0 10.04 1.1c1.6-.33 3.24-.87 4.92-1.65a.55.55 0 0 1 .33-.03c.09.02.13.1.13.21 0 .11-.06.25-.18.4Zm2.36-1.14c-.07.44-.19.85-.35 1.25a3.68 3.68 0 0 1-1.07 1.51c-.14.12-.25.15-.33.11-.07-.04-.07-.13 0-.29.18-.36.36-.86.56-1.48.2-.62.22-1.02.08-1.2a.46.46 0 0 0-.2-.14c-.08-.04-.2-.06-.33-.08l-.37-.03a4.04 4.04 0 0 0-.84.02 34.71 34.71 0 0 1-.97.1h-.1l-.1.01h-.16l-.02-.02-.02-.04c-.06-.13.14-.29.59-.49.44-.2.87-.32 1.3-.36a5.7 5.7 0 0 1 1.35-.01c.52.04.84.14.96.29.09.13.1.42.02.85Z"/><path fill="#A5CCE2" d="M274.44 16.76H257.8V0h16.63v16.76Z"/><path fill="#6990A6" d="M292.8 16.76h-16.63V0h16.63v16.76Z"/><path fill="#194056" d="M274.44 35.27H257.8V18.5h16.63v16.76Z"/><path fill="#F2F2F2" d="M292.8 35.27h-16.63V18.5h16.63v16.76ZM126.7 54.86c0-.57.55-.8 1.44-.8.88-.01 1.44.2 1.44.8 0 .73-.89.81-1.44.81-.89 0-1.43-.22-1.43-.8Zm3.72 0c0-1.12-.84-1.9-2.28-1.9-1.03 0-2.28.52-2.28 1.9 0 1.31 1.1 1.91 2.28 1.91 1.2 0 2.28-.6 2.28-1.9Zm-3.71 5.26v-.8c0-.49.3-.66.56-.66.28 0 .57.19.57.66v.8h-1.14Zm1.9 0v-.77l1.76-.68v-1.15l-1.95.83a1.2 1.2 0 0 0-1.15-.78c-.82 0-1.34.53-1.34 1.6v1.98h4.44v-1.03h-1.76Zm-1.03 2.02c-1.07.12-1.72.68-1.72 1.8 0 1.35 1.06 2 2.28 2 1.22 0 2.28-.65 2.28-1.97 0-1.02-.6-1.73-1.61-1.83l-.07 1c.42.07.84.3.84.79 0 .77-.78.86-1.39.86-.53 0-1.5-.07-1.5-.82 0-.56.45-.74.95-.74l-.06-1.09Zm2.78 4.82h-4.45V68h4.45v-1.04Zm0 4.47v.72l-3.62 1.07v.03h3.62v.88h-4.45v-1.64l2.67-.78-2.67-.81v-1.64h4.45v1.04h-3.62v.03l3.62 1.1Zm-91.46 2.7H22.09l-4.06-15.09H18v15.09h-6.87V53.29h11.92c1.26 4.8 3.9 14.69 3.9 14.69H27v-14.7h6.88v3.17a9.73 9.73 0 0 0-2.7 6.9c0 4.11 2.3 9.19 7.73 10.78Zm81.68-20.84v20.84h-7.2V57.8h-.1l-4.14 16.32h-6.64L98.36 57.8h-.1v16.32h-12.6l-1.26-4.5h-6.77l-1.26 4.5H64.33s-.4-3.07-.52-3.85c-.35-2.58-1.13-3.2-2.66-3.2h-2.1v7.03H46.72a31 31 0 0 0 8.6-3.54l-2.6-9.84-6.88 1.82 1.47 5.58c-.43.3-1.85.8-2.84.8-3.28 0-4.85-3.3-4.85-6.14 0-4.59 4.66-6.34 8.76-6.34.95 0 2.18.08 2.36.1l-.84-3.26h14.35c5.74 0 7.97 2.72 7.97 5.64 0 4.4-4.19 5.22-4.98 5.37-.02 0-.02.13 0 .13a5.07 5.07 0 0 1 3.68 2.54c-.03-.06 4.38-12.53 4.79-13.68h11.02l4.65 13.07h.07V53.29h11.86s2.74 11.41 2.76 11.41l2.7-11.41h11.81Zm-120.56 0H8l-.02 20.84H0l.02-20.84Zm80.94 4.47-2.23 6.88h4.6l-2.24-6.88h-.13ZM59.08 62.4h2.37c1.94 0 2.75-1.01 2.75-2.24 0-1.58-1.34-2.2-2.75-2.2h-2.37v4.44Zm108.05 4.8c1.89 0 3.41-1.8 3.41-4.04 0-2.23-1.52-4.04-3.4-4.04-1.89 0-3.41 1.8-3.41 4.04 0 2.23 1.52 4.04 3.4 4.04Z"/><path fill="#F2F2F2" d="m162.91 66.62-.32 1.93a5.43 5.43 0 0 0 2 1.74c.78.39 1.62.55 2.46.47 3.9-.29 8.04-5.48 8.7-16.45 0 0-2.12 11.25-6.34 13.85-4.22 2.6-6.5-1.54-6.5-1.54Zm14.46-8.17h-.74V54.2h.74v4.24Zm2.92-4.14c.26.1.49.3.65.58l.24.67c0 .2.08.48.08.67.03.51-.08 1.02-.32 1.45-.12.23-.28.43-.48.56-.2.14-.43.2-.66.2h-1.54v-4.23h2.03v.1Zm-1.3.67v2.7h.65c.15 0 .3-.06.44-.16a.9.9 0 0 0 .29-.42 2 2 0 0 0 .16-.77c.02-.37-.07-.75-.24-1.06-.08-.19-.33-.29-.65-.29h-.65Zm5.61 0h-1.8v.87h1.71v.77h-1.7v1.06h1.86v.77h-2.6V54.2h2.52v.77Zm.88-.77h.82l1.38 2.99v-3h.65v4.24h-.74l-1.38-2.99v2.99h-.73V54.2Zm6.34 0v.77h-1.06v3.47h-.73v-3.47h-1.06v-.77h2.85Zm1.38 4.24h-.73V54.2h.73v4.24Zm3.4-4.24v.77h-.97v3.47h-.8v-3.47h-.98v-.77h2.76Zm2.69 0h.89l-1.22 2.6v1.64h-.73V56.8l-1.22-2.6h.9l.73 1.83.65-1.83Zm-20.3 5.78h1.05v4.23h-.64v-3.56l-.66 3.56h-.73l-.64-3.56v3.56h-.74v-4.23h1.06l.65 3.27.65-3.27Zm3.01 0h.8l1.22 4.23h-.8l-.17-.87h-1.3l-.24.87h-.82l1.3-4.23Zm-.09 2.6h.9l-.41-1.64-.49 1.63Zm2.84-2.6h.73l1.39 2.98v-2.98h.72v4.23h-.72l-1.47-2.98v2.98h-.65v-4.23Zm4.71 0h.9l1.21 4.23h-.8l-.25-.87h-1.3l-.25.87h-.72l1.21-4.23Zm0 2.6h.9l-.5-1.64-.4 1.63Zm5.12-1.26a.65.65 0 0 0-.12-.38.48.48 0 0 0-.29-.2h-.4a.64.64 0 0 0-.37.1.8.8 0 0 0-.28.29c-.2.33-.3.75-.25 1.15-.03.38.06.76.25 1.06.18.18.4.28.65.3l.64-.2c.15-.18.24-.42.25-.67h-.81V62h1.46v2.3h-.49v-.67l-.4.48-.73.2c-.22 0-.43-.05-.63-.14a1.5 1.5 0 0 1-.51-.44 2.58 2.58 0 0 1-.49-1.64c-.01-.28.02-.56.1-.83.09-.26.22-.5.39-.7.14-.23.33-.4.54-.52.21-.12.44-.17.68-.16.41 0 .81.17 1.13.48.13.11.23.25.3.42.08.17.11.35.1.54h-.72Zm4.3-.57h-1.87v.86h1.7v.77h-1.7v1.06h1.95v.77h-2.68v-4.23h2.6v.77Zm3.25-.77h1.05v4.23h-.73v-3.56l-.65 3.56h-.73l-.65-3.56v3.56h-.65v-4.23h1.06l.65 3.27.65-3.27Zm4.55.77h-1.87v.86h1.7v.77h-1.7v1.06h1.95v.77h-2.68v-4.23h2.6v.77Zm.89-.77h.73l1.46 2.98v-2.98h.65v4.23h-.73l-1.46-2.98v2.98h-.65v-4.23Zm6.33 0v.77h-1.05v3.46h-.73v-3.46h-1.06v-.77h2.84Zm-36.53 10h-.74v-4.23h.74v4.23Zm.89-4.23h.73l1.46 2.98v-2.98h.65v4.23h-.73L178.9 67v2.98h-.65v-4.23Zm4.3 2.88c0 .18.06.35.16.48.09.2.33.2.57.2h.49a.46.46 0 0 0 .19-.2.55.55 0 0 0 .05-.28c0-.2 0-.3-.08-.39l-.48-.2h-.41l-.81-.28a1.46 1.46 0 0 1-.25-1.39c.05-.16.14-.31.25-.44.14-.14.3-.25.49-.32.18-.07.37-.09.56-.06a1.4 1.4 0 0 1 1.28.8c.07.17.1.36.1.54h-.73c0-.1-.01-.2-.06-.28a.44.44 0 0 0-.18-.2h-.9c-.16.1-.24.2-.24.39s.08.29.16.29a.65.65 0 0 0 .49.19l.65.2.57.28c.11.1.2.23.26.38.05.15.08.32.06.49a1.34 1.34 0 0 1-.32.96c-.32.24-.68.37-1.06.38-.4 0-.8-.13-1.13-.38a1.55 1.55 0 0 1-.4-1.06l.72-.1Zm5.52-2.88v.77h-1.05v3.46h-.73v-3.46h-1.06v-.77h2.84Zm1.3 4.23h-.73v-4.23h.73v4.23Zm3.49-4.23v.77h-1.05v3.46h-.73v-3.46h-1.06v-.77h2.84Zm.65 0h.81v2.6c0 .28 0 .47.09.57.08.1.24.39.56.39a.5.5 0 0 0 .34-.09c.1-.07.18-.17.23-.3.08-.1.08-.29.08-.58v-2.6h.73v2.6c0 .37-.05.72-.16 1.06-.14.22-.33.4-.54.51-.21.12-.44.18-.68.17-.23.02-.47-.02-.68-.14-.22-.12-.4-.3-.53-.54a1.98 1.98 0 0 1-.25-1.06v-2.6Zm6.33 0v.77h-1.05v3.46h-.73v-3.46H197v-.77h2.84Zm3.25.77h-1.86v.86h1.7v.77h-1.7v1.06h1.94v.77h-2.6v-4.23h2.52v.77Zm-25.78 4.55.12.03a.38.38 0 0 1-.13.2.35.35 0 0 1-.22.08.4.4 0 0 1-.22-.06.35.35 0 0 1-.13-.16.57.57 0 0 1-.05-.22c0-.09.02-.17.05-.23a.34.34 0 0 1 .15-.15.42.42 0 0 1 .2-.05c.08 0 .16.02.21.06.06.05.1.1.12.18l-.1.03a.26.26 0 0 0-.1-.13.23.23 0 0 0-.13-.05.28.28 0 0 0-.16.05.25.25 0 0 0-.1.13.49.49 0 0 0-.02.16c0 .07 0 .13.03.18.02.06.05.1.1.12.04.03.09.04.14.04.06 0 .11-.01.16-.05a.27.27 0 0 0 .08-.16Zm.66.1.1.01a.26.26 0 0 1-.09.15.28.28 0 0 1-.17.05.28.28 0 0 1-.22-.08.32.32 0 0 1-.07-.24c0-.1.02-.18.08-.23a.27.27 0 0 1 .2-.09c.08 0 .15.03.2.08.05.06.08.14.08.24v.03h-.46c0 .06.03.11.06.15.03.04.08.05.13.05.04 0 .07 0 .1-.03a.2.2 0 0 0 .06-.1Zm-.34-.17h.34a.21.21 0 0 0-.04-.11.16.16 0 0 0-.13-.06.16.16 0 0 0-.12.04.2.2 0 0 0-.05.13Zm.58.36v-.6h.09v.08c.04-.07.1-.1.2-.1a.2.2 0 0 1 .1.02l.06.05a.2.2 0 0 1 .04.08v.47h-.1V71l-.01-.1a.1.1 0 0 0-.05-.04.14.14 0 0 0-.07-.02.17.17 0 0 0-.11.04c-.03.03-.05.08-.05.16v.33h-.1Zm.88-.09.01.1a.4.4 0 0 1-.08 0c-.03 0-.06 0-.09-.02a.1.1 0 0 1-.04-.04.35.35 0 0 1-.01-.12v-.36h-.08v-.08h.08v-.15l.1-.06v.21h.1v.08h-.1v.42l.02.02h.09Zm.52-.1.1.01a.26.26 0 0 1-.1.15.28.28 0 0 1-.17.05.28.28 0 0 1-.2-.08.32.32 0 0 1-.09-.24c0-.1.03-.18.08-.23a.27.27 0 0 1 .2-.09c.09 0 .16.03.2.08.06.06.09.14.09.24v.03h-.46c0 .06.02.11.06.15.03.04.07.05.12.05.04 0 .07 0 .1-.03a.2.2 0 0 0 .06-.1Zm-.34-.17h.34a.21.21 0 0 0-.04-.11.16.16 0 0 0-.13-.06.16.16 0 0 0-.12.04.2.2 0 0 0-.06.13Zm.57.36v-.6h.1v.09a.26.26 0 0 1 .06-.09.11.11 0 0 1 .06-.02.2.2 0 0 1 .11.03l-.03.1a.15.15 0 0 0-.08-.02.1.1 0 0 0-.06.02.11.11 0 0 0-.04.05.42.42 0 0 0-.02.13v.31h-.1Zm.75 0v-.53h-.1v-.08h.1v-.16a.13.13 0 0 1 .06-.06.2.2 0 0 1 .1-.02.5.5 0 0 1 .1 0l-.02.1h-.06l-.06.01c-.02.02-.02.04-.02.08v.05h.12v.08h-.12v.53h-.1Zm.26-.3c0-.11.03-.2.1-.25a.29.29 0 0 1 .19-.07c.08 0 .15.03.2.08a.3.3 0 0 1 .08.23.5.5 0 0 1-.03.19.25.25 0 0 1-.1.1.3.3 0 0 1-.16.04.28.28 0 0 1-.2-.08c-.06-.06-.08-.14-.08-.24Zm.1 0c0 .08.02.14.06.18.03.03.07.05.13.05.05 0 .09-.02.12-.06.04-.03.05-.1.05-.17 0-.08-.01-.14-.05-.18a.16.16 0 0 0-.13-.05.17.17 0 0 0-.12.05c-.04.04-.06.1-.06.18Zm.6.3v-.6h.08v.09a.24.24 0 0 1 .07-.09.12.12 0 0 1 .07-.02.2.2 0 0 1 .1.03l-.03.1a.15.15 0 0 0-.08-.02.1.1 0 0 0-.06.02.11.11 0 0 0-.04.05.42.42 0 0 0-.02.13v.31h-.1Zm.74 0v-.84h.11v.84h-.1Zm.7 0v-.07a.2.2 0 0 1-.18.09.24.24 0 0 1-.13-.04.27.27 0 0 1-.1-.11.44.44 0 0 1 0-.33.24.24 0 0 1 .23-.16.2.2 0 0 1 .1.02.2.2 0 0 1 .07.06v-.3h.1v.84h-.1Zm-.33-.3c0 .08.01.14.05.18.03.03.07.05.11.05.05 0 .09-.02.12-.05.03-.04.05-.1.05-.17a.33.33 0 0 0-.05-.19.15.15 0 0 0-.24 0c-.03.04-.04.1-.04.18Zm1 .1.1.02a.26.26 0 0 1-.09.15.28.28 0 0 1-.17.05.28.28 0 0 1-.21-.08.32.32 0 0 1-.08-.24c0-.1.02-.18.08-.23a.27.27 0 0 1 .2-.09c.08 0 .15.03.2.08.05.06.08.14.08.24v.03h-.46c0 .06.03.11.06.15.03.04.08.05.13.05.04 0 .07 0 .1-.03a.2.2 0 0 0 .06-.1Zm-.34-.16h.34a.21.21 0 0 0-.04-.11.16.16 0 0 0-.13-.06.16.16 0 0 0-.12.04.2.2 0 0 0-.05.13Zm.58.36v-.6h.09v.08c.04-.07.1-.1.2-.1a.2.2 0 0 1 .1.02.1.1 0 0 1 .06.05.2.2 0 0 1 .04.08v.47h-.1V71l-.01-.1a.1.1 0 0 0-.05-.04.14.14 0 0 0-.07-.02.17.17 0 0 0-.11.04c-.03.03-.05.08-.05.16v.33h-.1Zm.88-.09.01.1a.4.4 0 0 1-.08 0c-.03 0-.06 0-.08-.02a.1.1 0 0 1-.05-.04.35.35 0 0 1-.01-.12v-.36h-.08v-.08h.08v-.15l.1-.06v.21h.1v.08h-.1v.42l.03.02h.08Zm.1-.63v-.12h.1v.12h-.1Zm0 .72v-.6h.1v.6h-.1Zm.49-.09.01.1h-.08c-.03 0-.06 0-.09-.02a.1.1 0 0 1-.04-.04.35.35 0 0 1-.01-.12v-.36h-.08v-.08h.08v-.15l.1-.06v.21h.1v.08h-.1v.42l.02.02h.09Zm.1.33-.02-.1.06.01.05-.01a.1.1 0 0 0 .04-.03.49.49 0 0 0 .04-.1l-.23-.62h.11l.13.36.04.14.04-.14.13-.36h.1l-.22.62-.06.14a.2.2 0 0 1-.07.08.15.15 0 0 1-.08.02.2.2 0 0 1-.07-.01Zm1.32-.57v-.1h.36v.32a.65.65 0 0 1-.17.1.5.5 0 0 1-.4-.02.35.35 0 0 1-.16-.16.52.52 0 0 1 0-.45.35.35 0 0 1 .15-.16.47.47 0 0 1 .22-.05c.06 0 .11 0 .16.03.05.02.1.05.12.08a.3.3 0 0 1 .06.14l-.1.03a.31.31 0 0 0-.04-.1.18.18 0 0 0-.09-.06.34.34 0 0 0-.25 0 .25.25 0 0 0-.08.06.3.3 0 0 0-.06.08.45.45 0 0 0-.03.17c0 .08.01.14.04.19.03.05.06.09.11.11.05.03.1.04.16.04.05 0 .1-.01.14-.03a.37.37 0 0 0 .1-.06v-.16h-.24Zm.47.03c0-.11.03-.2.1-.25a.28.28 0 0 1 .19-.07c.08 0 .15.03.2.08.05.06.08.13.08.23a.4.4 0 0 1-.04.19.25.25 0 0 1-.1.1.3.3 0 0 1-.14.04.28.28 0 0 1-.21-.08c-.06-.06-.08-.14-.08-.24Zm.1 0c0 .08.02.14.06.18.03.03.07.05.13.05.05 0 .09-.02.12-.06.04-.03.05-.1.05-.17 0-.08-.01-.14-.05-.18a.16.16 0 0 0-.13-.05.17.17 0 0 0-.12.05c-.04.04-.06.1-.06.18Zm.76.3-.23-.6h.1l.14.36.04.12a.3.3 0 0 1 .04-.11l.13-.38h.1l-.22.61h-.1Zm.84-.2.1.02a.26.26 0 0 1-.09.15.28.28 0 0 1-.17.05.28.28 0 0 1-.22-.08.32.32 0 0 1-.08-.24c0-.1.03-.18.08-.23a.27.27 0 0 1 .21-.09c.08 0 .15.03.2.08.05.06.08.14.08.24v.03h-.46c0 .06.02.11.06.15.03.04.07.05.13.05.03 0 .07 0 .1-.03a.2.2 0 0 0 .06-.1Zm-.34-.16h.34a.21.21 0 0 0-.04-.11.16.16 0 0 0-.13-.06.16.16 0 0 0-.12.04.2.2 0 0 0-.05.13Zm.57.36v-.6h.1v.09a.24.24 0 0 1 .06-.09.12.12 0 0 1 .07-.02.2.2 0 0 1 .1.03l-.03.1a.15.15 0 0 0-.08-.02.1.1 0 0 0-.06.02.11.11 0 0 0-.04.05.42.42 0 0 0-.01.13v.31h-.1Zm.4 0v-.6h.09v.08c.04-.07.1-.1.2-.1a.2.2 0 0 1 .1.02l.06.05a.2.2 0 0 1 .03.08l.01.1v.37h-.1V71c0-.04 0-.07-.02-.1a.1.1 0 0 0-.04-.04.13.13 0 0 0-.07-.02.17.17 0 0 0-.11.04c-.04.03-.05.08-.05.16v.33h-.1Zm1.05-.07a.32.32 0 0 1-.22.09.25.25 0 0 1-.16-.05.16.16 0 0 1-.06-.13c0-.03.01-.05.03-.08a.17.17 0 0 1 .05-.06.25.25 0 0 1 .07-.03.7.7 0 0 1 .1-.02.97.97 0 0 0 .18-.03v-.03c0-.04-.01-.07-.03-.09a.21.21 0 0 0-.12-.03c-.05 0-.08 0-.1.02-.03.02-.04.05-.06.1l-.1-.02a.26.26 0 0 1 .05-.1.2.2 0 0 1 .09-.07.4.4 0 0 1 .14-.02c.05 0 .1 0 .12.02.04.01.06.03.08.05l.03.07v.23l.01.18c0 .03.01.05.03.07h-.11a.24.24 0 0 1-.02-.07Zm-.01-.23a.77.77 0 0 1-.17.04.4.4 0 0 0-.09.02.1.1 0 0 0-.04.03.1.1 0 0 0-.02.05c0 .03.02.05.04.07.02.02.05.03.09.03.04 0 .07-.01.1-.03a.16.16 0 0 0 .07-.07.25.25 0 0 0 .02-.1v-.04Zm.26.3v-.6h.1v.08c.04-.07.1-.1.2-.1a.2.2 0 0 1 .1.02l.06.05a.2.2 0 0 1 .03.08.6.6 0 0 1 0 .1v.37h-.1v-.47a.1.1 0 0 0-.05-.04.13.13 0 0 0-.07-.02.17.17 0 0 0-.11.04c-.04.03-.05.08-.05.16v.33h-.1Zm1.06-.22.1.01a.25.25 0 0 1-.25.22.26.26 0 0 1-.2-.07c-.06-.06-.08-.14-.08-.24 0-.06 0-.12.03-.17a.22.22 0 0 1 .1-.11.3.3 0 0 1 .15-.04c.06 0 .12.02.16.05.04.03.07.08.08.14l-.1.02a.17.17 0 0 0-.05-.1.13.13 0 0 0-.1-.02c-.04 0-.09.01-.12.05s-.05.1-.05.18c0 .08.02.14.05.18.03.03.07.05.12.05.04 0 .08 0 .1-.03a.18.18 0 0 0 .06-.12Zm.6.03.11.01a.26.26 0 0 1-.1.15.28.28 0 0 1-.17.05.28.28 0 0 1-.21-.08.32.32 0 0 1-.08-.24c0-.1.03-.18.08-.23a.27.27 0 0 1 .2-.09c.09 0 .16.03.2.08.06.06.08.14.08.24v.03h-.45c0 .06.02.11.06.15.03.04.07.05.12.05.04 0 .07 0 .1-.03a.2.2 0 0 0 .06-.1Zm-.34-.17h.34a.21.21 0 0 0-.03-.11.16.16 0 0 0-.13-.06.16.16 0 0 0-.12.04.2.2 0 0 0-.06.13Zm52.52-16.96s10.69-4.7 11.1-4.98v28.95s-6.53-2.94-9.1-10.02c-2.56-7.09-2-13.95-2-13.95Z"/><path fill="#375E74" d="M266.9 54.05s-10.7-4.7-11.11-4.98v28.95s6.53-2.94 9.1-10.02c2.57-7.09 2-13.95 2-13.95Z"/><path fill="#F2F2F2" d="M246.75 68c-2.58-7.09-2-13.95-2-13.95s10.68-4.7 11.09-4.98"/><path fill="#375E74" d="M249.37 63.13v-3.86c0-2.8 1.49-5.4 3.88-6.53a6.1 6.1 0 0 1 2.62-.58v1.95a4.07 4.07 0 0 0-2.35.57 5.21 5.21 0 0 0-2.43 4.34c-.07 2.22 0 2.53 0 2.53l-1.72 1.58Z"/><path fill="#F2F2F2" d="M262.37 63.13v-3.86c0-2.8-1.5-5.4-3.88-6.53a6.1 6.1 0 0 0-2.62-.58v1.95c.81-.05 1.63.15 2.34.57a5.22 5.22 0 0 1 2.44 4.34c.06 2.22 0 2.53 0 2.53l1.72 1.58Z"/><path fill="#375E74" d="M255.85 68.1a.49.49 0 0 1-.36-.16.57.57 0 0 1-.16-.4v-5.71a.6.6 0 0 1 .16-.4.51.51 0 0 1 .36-.16h.02v-3.09a7.02 7.02 0 0 0-4.91 2.4 8.11 8.11 0 0 0-2.01 5.38c0 2 .72 3.94 2 5.39a7.02 7.02 0 0 0 4.92 2.4V68.1h-.02Z"/><path fill="#F2F2F2" d="M255.85 58.18v3.09a.5.5 0 0 1 .37.16c.1.1.15.25.15.4v5.71c0 .15-.05.3-.15.4a.5.5 0 0 1-.37.16v5.64a7.02 7.02 0 0 0 4.91-2.4 8.12 8.12 0 0 0 2.01-5.38c0-2-.72-3.93-2-5.38a7.02 7.02 0 0 0-4.92-2.4Zm17.37-4.88c0 .14-.03.27-.07.4-.05.11-.12.22-.2.3a.74.74 0 0 1-.3.23.75.75 0 0 1-.38.07.8.8 0 0 1-.45-.12 1 1 0 0 1-.32-.33.88.88 0 0 1-.33.34.8.8 0 0 1-.45.11.74.74 0 0 1-.36-.07.66.66 0 0 1-.3-.22c-.08-.1-.15-.2-.2-.31a1.21 1.21 0 0 1-.07-.4v-1.17h.31v1.2c0 .09.02.17.06.25.02.08.06.16.12.22s.13.1.2.13c.08.05.16.07.24.06.08 0 .17-.01.24-.06a.55.55 0 0 0 .2-.13.46.46 0 0 0 .13-.22.51.51 0 0 0 .06-.25v-1.2h.31v1.2c0 .09.02.17.05.25.03.08.07.16.13.22s.13.1.2.13c.07.05.15.07.23.06.09 0 .17-.01.25-.06a.57.57 0 0 0 .2-.13.46.46 0 0 0 .13-.22.74.74 0 0 0 .05-.25v-1.2h.32v1.17Zm2.23 0c0 .14-.02.27-.06.4-.06.12-.12.23-.2.32a.74.74 0 0 1-.3.2.76.76 0 0 1-.38.08.74.74 0 0 1-.35-.07.75.75 0 0 1-.3-.2 1.3 1.3 0 0 1-.2-.33 1.21 1.21 0 0 1-.08-.4v-.2c0-.14.03-.27.07-.4.06-.12.13-.23.2-.32.1-.1.2-.17.3-.21a.77.77 0 0 1 .72 0c.13.04.23.11.31.2a1.09 1.09 0 0 1 .27.73v.2Zm-.3 0v-.2c0-.1-.02-.2-.06-.28a.55.55 0 0 0-.13-.22.49.49 0 0 0-.2-.14.44.44 0 0 0-.25-.05.43.43 0 0 0-.23.05.52.52 0 0 0-.33.35.64.64 0 0 0-.05.29v.2c0 .1.02.2.05.28a.52.52 0 0 0 .33.35c.07.05.15.07.23.06.09 0 .17-.01.25-.06a.49.49 0 0 0 .2-.13c.06-.06.1-.14.13-.22a.65.65 0 0 0 .05-.28Zm4.1.97h-.31v-1.2a.52.52 0 0 0-.06-.25.55.55 0 0 0-.12-.22.49.49 0 0 0-.2-.14.42.42 0 0 0-.24-.05.48.48 0 0 0-.24.05.46.46 0 0 0-.2.14.53.53 0 0 0-.13.22.51.51 0 0 0-.06.25v1.2h-.31v-1.2a.51.51 0 0 0-.06-.25.53.53 0 0 0-.12-.22.5.5 0 0 0-.2-.14.42.42 0 0 0-.23-.05.48.48 0 0 0-.25.05.57.57 0 0 0-.2.14.54.54 0 0 0-.13.22.52.52 0 0 0-.05.25v1.2h-.32V53.1c0-.14.03-.27.07-.4.06-.12.13-.23.2-.32a.87.87 0 0 1 .3-.2.81.81 0 0 1 .82.04c.14.08.25.2.33.35a.84.84 0 0 1 .78-.49c.13 0 .25.03.36.1.11.03.21.1.3.2.08.1.15.2.2.32.05.13.07.26.07.4v1.17Zm2.24-.91h-1.56c.01.09.03.17.07.25.03.08.08.15.14.2.05.06.1.1.18.14a.66.66 0 0 0 .47 0 .76.76 0 0 0 .2-.15l.23.22a.75.75 0 0 1-.3.2.74.74 0 0 1-.36.08.76.76 0 0 1-.37-.07.87.87 0 0 1-.3-.2c-.08-.1-.15-.21-.2-.33a1.19 1.19 0 0 1-.07-.4v-.2c0-.14.02-.27.07-.4.05-.12.12-.23.2-.32a.87.87 0 0 1 .3-.21.8.8 0 0 1 .63-.04c.09.02.17.07.25.13a.6.6 0 0 1 .2.19.85.85 0 0 1 .2.5c.02.09.02.18.02.26v.15Zm-.33-.32a.78.78 0 0 0-.03-.22.69.69 0 0 0-.23-.3.6.6 0 0 0-.58-.07.67.67 0 0 0-.31.34.74.74 0 0 0-.08.25h1.23Zm2.58 1.23h-.31v-1.2a.73.73 0 0 0-.2-.47.57.57 0 0 0-.19-.14.5.5 0 0 0-.24-.05.42.42 0 0 0-.23.05.52.52 0 0 0-.2.14c-.06.06-.1.14-.14.22a.73.73 0 0 0-.05.25v1.2h-.3V53.1a1.04 1.04 0 0 1 .26-.72.82.82 0 0 1 .3-.21.84.84 0 0 1 .36-.09.8.8 0 0 1 .37.09c.11.05.21.12.3.2a1.09 1.09 0 0 1 .27.73v1.17Zm2.43-2.42h-.31v-.43h.31v.43Zm0 2.42h-.31v-2.14h.31v2.14Zm2.33 0h-.32v-1.2a.73.73 0 0 0-.04-.25 1.14 1.14 0 0 0-.14-.22.52.52 0 0 0-.2-.14.42.42 0 0 0-.24-.05.5.5 0 0 0-.24.05.57.57 0 0 0-.2.14.71.71 0 0 0-.13.22.73.73 0 0 0-.04.25v1.2h-.33V53.1a1 1 0 0 1 .08-.4.9.9 0 0 1 .2-.32c.08-.1.18-.17.3-.21a.77.77 0 0 1 .36-.09c.13 0 .26.03.37.09a.92.92 0 0 1 .5.53 1 1 0 0 1 .07.4v1.17Zm-16.69 2.23c.1.08.17.18.22.3.06.11.09.24.1.37h-.37a.79.79 0 0 0-.24-.46.73.73 0 0 0-.51-.18.75.75 0 0 0-.36.08.81.81 0 0 0-.29.23c-.16.2-.24.53-.24.94-.01.3.07.6.22.86.07.1.18.2.3.25.11.06.24.08.37.07.12 0 .24-.02.34-.08.11-.06.2-.15.27-.26.09-.14.14-.3.16-.47h.37c-.02.3-.13.57-.31.78a1.21 1.21 0 0 1-1.68.07c-.29-.28-.42-.7-.42-1.27-.02-.39.1-.77.31-1.08.11-.15.26-.27.43-.36a.94.94 0 0 1 .52-.1c.15-.02.3 0 .44.06.14.05.26.13.37.24Zm.62-.23h.43l.8 1.43.78-1.43h.44l-1.05 1.76v1.2h-.37v-1.2l-1.03-1.76Zm2.75 0h1.19c.33 0 .56.1.7.3.08.13.12.28.12.44a.7.7 0 0 1-.15.45.55.55 0 0 1-.22.18c.12.04.22.1.31.19a.74.74 0 0 1 .2.54c0 .2-.06.38-.18.52-.17.23-.42.35-.8.35h-1.17v-2.97Zm1.05 1.25c.13.01.26-.01.37-.07a.38.38 0 0 0 .17-.16.42.42 0 0 0 .05-.24.39.39 0 0 0-.05-.24.35.35 0 0 0-.18-.14.81.81 0 0 0-.37-.06h-.67v.91h.68Zm.13 1.37a.56.56 0 0 0 .5-.2c.06-.1.09-.22.08-.33.01-.1 0-.2-.06-.27a.4.4 0 0 0-.2-.17.95.95 0 0 0-.38-.08h-.75v1.05h.8Zm1.43-2.62h2v.37h-1.63v.9h1.5v.33h-1.5v1.02h1.66v.35h-2.03v-2.97Zm2.57 0h1.25c.18 0 .35.03.5.1.27.12.39.36.39.7a.78.78 0 0 1-.09.42.7.7 0 0 1-.3.3c.1.03.19.09.25.17.07.12.1.25.08.38v.4l.03.25a.28.28 0 0 0 .12.18v.07h-.43l-.04-.1-.02-.24-.02-.5a.4.4 0 0 0-.04-.22.37.37 0 0 0-.16-.16.63.63 0 0 0-.32-.06h-.82v1.28h-.38v-2.97Zm1.21 1.35c.14.01.29-.02.41-.1.05-.05.1-.11.12-.19a.52.52 0 0 0 .03-.22c0-.09 0-.18-.05-.25a.41.41 0 0 0-.17-.18.53.53 0 0 0-.29-.07h-.88v1.01h.83Zm1.76.66c0 .15.04.29.11.42.12.19.33.29.63.29.13 0 .25-.03.37-.07.22-.1.32-.24.32-.44 0-.07 0-.14-.03-.2a.45.45 0 0 0-.1-.16 2.02 2.02 0 0 0-.44-.17l-.37-.1a1.26 1.26 0 0 1-.49-.18.61.61 0 0 1-.2-.24.66.66 0 0 1-.06-.32.91.91 0 0 1 .25-.66 1 1 0 0 1 .7-.25c.26-.01.52.07.73.22.1.08.18.2.23.32a.9.9 0 0 1 .06.4h-.34a.82.82 0 0 0-.13-.37c-.1-.15-.28-.22-.54-.22a.59.59 0 0 0-.47.15.45.45 0 0 0-.14.34c0 .06.02.12.05.18.03.06.07.1.12.14.16.08.32.13.5.16l.36.09c.15.04.3.1.42.19a.68.68 0 0 1 .25.6c0 .33-.11.57-.33.7a1.2 1.2 0 0 1-.75.23c-.28.01-.56-.1-.78-.3a.97.97 0 0 1-.28-.75h.35Zm2.35-2.01h2v.37h-1.63v.9h1.51v.33h-1.51v1.02h1.66v.35h-2.03v-2.97Zm4.48.23a.97.97 0 0 1 .31.67h-.35a.78.78 0 0 0-.27-.47.67.67 0 0 0-.49-.16.77.77 0 0 0-.36.07.82.82 0 0 0-.29.23c-.16.2-.25.53-.25.94 0 .3.08.6.24.86a.7.7 0 0 0 .65.32c.12 0 .24-.02.35-.08.1-.06.2-.15.27-.26.08-.14.14-.3.17-.47h.36c-.02.3-.13.57-.32.78a1.07 1.07 0 0 1-.87.38c-.3.01-.58-.1-.8-.3-.28-.29-.43-.71-.43-1.28-.01-.4.1-.77.33-1.08a1.17 1.17 0 0 1 .94-.47 1.01 1.01 0 0 1 .8.31Zm1.22-.23v1.84c0 .18.04.36.11.53.06.1.14.2.25.25.1.06.21.08.33.07.3 0 .53-.12.65-.35.06-.16.1-.33.08-.5v-1.84h.39v1.66c.01.3-.04.58-.14.85-.16.36-.5.53-.95.53-.47 0-.78-.17-.95-.53-.1-.27-.15-.56-.13-.85v-1.66h.37Zm2.42 0h1.26c.17 0 .34.03.5.1.26.12.38.36.38.7a.9.9 0 0 1-.1.43.77.77 0 0 1-.28.28c.1.04.17.1.23.18.07.11.1.25.1.38v.4c0 .08 0 .17.03.25.02.09.05.15.12.18v.07h-.46a.9.9 0 0 1-.03-.1c-.01-.08-.02-.16-.01-.24l-.03-.5c-.02-.19-.07-.32-.2-.38a.62.62 0 0 0-.32-.06h-.82v1.28h-.37v-2.97Zm1.22 1.35c.13.01.27-.02.4-.1a.47.47 0 0 0 .14-.41.43.43 0 0 0-.04-.25.42.42 0 0 0-.16-.18.58.58 0 0 0-.3-.07h-.89v1.01h.85Zm1.59-1.35h.38v2.97h-.38v-2.97Zm2.99 0v.35h-.93v2.62h-.38v-2.62h-.93v-.35h2.24Zm.13 0h.43l.8 1.43.79-1.43h.43l-1.04 1.76v1.2h-.36v-1.2l-1.05-1.76Zm-34.47 5.75h4.83v1.9h-1.43l1.8 6.74 2.88-7.47 1.04.03 2.92 7.44 1.76-6.72h-1.61v-2.03h4.93v2.03h-1.22l-3.13 11.17h-1.13l-3.04-7.95-3.13 7.98h-1.19L266.43 64h-1.16v-1.98Z"/><path fill="#F2F2F2" d="m280.7 67.45-.45 1.86h1.16s-.99 3.92-.8 4.48c.2.56.22 1.33 2.01 1.26 1.79-.07 1.98-2.45 1.98-2.45l-.83-.39s-.33 1.24-.88 1.4c-.54.16.2-2.7.58-4.38l.43-1.8-3.2.02Zm2.4-.79c.65 0 1.19-.57 1.19-1.28 0-.7-.54-1.28-1.19-1.28-.66 0-1.19.58-1.19 1.28 0 .7.53 1.28 1.19 1.28Z"/><path fill="#F2F2F2" d="M293.86 71.38a4.26 4.26 0 0 1-1.92 1.42c-.75.27-1.56.31-2.33.12a4.17 4.17 0 0 1-2.04-1.23 4.9 4.9 0 0 1-1-4.7c.25-.8.71-1.52 1.32-2.06a3.98 3.98 0 0 1 4.45-.62 1.75 1.75 0 0 0 .19 1.14c.14.26.34.47.59.6a1.44 1.44 0 0 0 1.57-.07c.23-.17.41-.4.53-.66a1.75 1.75 0 0 0-.15-1.69 1.55 1.55 0 0 0-.64-.54c-1.37-1.04-2.05-1.46-3.9-1.46-1.06 0-2.12.3-3.06.85a6.61 6.61 0 0 0-2.32 2.33 7.25 7.25 0 0 0 1.6 9.25 5.97 5.97 0 0 0 6.1.87c1-.43 1.89-1.1 2.58-2l-1.57-1.55Z"/><path fill="#F2F2F2" d="M293.43 67.48v1.88h.73l2.45 5.03s-.3 1.23-.88 1.3c0 0-.8-1.18-1.64.15 0 0-.26 1.12.75 1.44 1 .33 2.22.18 3.08-1.69.86-1.86 2.75-6.45 2.75-6.45h.82v-1.76h-3.51v1.76h.89l-1.25 3.25-1.38-3.2h.87v-1.8s-3.3.02-3.65-.02l-.03.11Z"/><path fill="#F2F2F2" d="M306.56 63.99s-.4 1.76.7 1.92c1.1.16 1.7-.4 1.72-1.25.03-.85-.7-2.8-3.36-2.86-2.65-.06-4.73 1.35-4.64 3.54.1 2.19 1.13 3.2 3.77 4.22 2.63 1 2.32 3.52.34 3.76-1.98.23-2.1-.55-2.1-.55s.75-1.92-1.29-2.05c-2.03-.14-1.71 3.07-.38 3.57 1.34.5 2.17 1.4 4.3 1.08 2.13-.3 3.5-1.76 3.5-3.4 0-1.65-.48-3.8-4.47-4.84-3.98-1.04-.75-4.42 1.91-3.14ZM27.32 134.2c-9.97 0-18.05-8.3-18.05-18.53 0-10.24 8.08-18.54 18.05-18.54s18.05 8.3 18.05 18.54c0 10.24-8.08 18.54-18.05 18.54Zm0-34.22c-8.44 0-15.27 7.02-15.27 15.69 0 8.66 6.83 15.68 15.27 15.68 8.43 0 15.27-7.02 15.27-15.68 0-8.67-6.84-15.69-15.27-15.69Z"/><path fill="#F2F2F2" d="M33.28 128.66c-.59 0-2.73-3.88-3.01-4.99-.6-2.31-.48-3.29-.44-3.6.11-.96 1.02-1.43 1.08-2.72.01-.4.21-2.4.37-3.95a2.61 2.61 0 0 1-1.12-.54c1.03 1.42-.5 3.11-2.7 5.37-2.36 2.39-7.57 4.61-7.57 4.61s2.18-5.31 4.53-7.7c1.73-1.76 3.12-3.1 4.3-3.1.34 0 .66.11.97.34a2.7 2.7 0 0 1-.53-1.14c-1.53.16-3.48.36-3.88.38-1.26.06-1.73.98-2.67 1.1-.1 0-.3.03-.6.03-.54 0-1.46-.08-2.94-.48-1.18-.32-5.58-2.87-4.8-3.19.4-.16 1.66-.27 3.33-.27 1.6 0 3.57.1 5.5.36 2.4.32 4.6.72 6.1 1.02l.1-.24-1.54-.75s-1.23-1.43-1.1-1.53h.02c.2 0 1.17 1.14 1.27 1.27l.92.3-.43-.38s-.6-2.24-.44-2.3c.17 0 .7 1.96.75 2.1.11.1.47.23.92.5l-.47-1.24s.2-2.03.37-2.03c.16.03-.03 1.7-.07 1.9l.78 1.22a2.34 2.34 0 0 1 1.56.04c-.36-.78-.33-1.6.15-2.08.15-.16.33-.27.54-.33a.7.7 0 0 1 .7-.6.78.78 0 0 1 .76.75c.23-.48.5-1.13.48-1.34a4.18 4.18 0 0 0-.6-1.34.12.12 0 0 1 .04-.16.12.12 0 0 1 .07-.02c.03 0 .07.01.1.05.02.04.58.9.63 1.44.02.31-.32 1.09-.51 1.49a3.37 3.37 0 0 1 1.33 1.36 4.87 4.87 0 0 1 1.46-.52c.53.05 1.38.62 1.42.64.05.04.07.11.03.17a.12.12 0 0 1-.16.03c-.01 0-.84-.56-1.31-.6h-.03c-.23 0-.84.26-1.3.49a.7.7 0 0 1 .51.23c.3.3.3.77.02 1.06a.7.7 0 0 1-.38.2c-.06.2-.17.4-.32.55-.26.27-.62.4-1.02.4-.33 0-.68-.09-1.02-.25.2.53.21 1.1.03 1.59.56.36 1.11.73 1.2.8a10.2 10.2 0 0 1 1.52-.15c.2 0 .34.02.35.07.03.16-2 .38-2 .38l-1.2-.48c.25.46.4.82.49.93.13.05 2.1.61 2.04.77 0 .02-.04.03-.1.03-.42 0-2.15-.48-2.15-.48l-.38-.44.31.94c.13.1 1.34 1.18 1.24 1.31l-.02.01a9.04 9.04 0 0 1-1.48-1.12l-.73-1.57-.24.1c.3 1.52.7 3.77 1 6.21.52 4 .4 8.2.09 9-.03.06-.07.09-.12.09Zm7.89 3.09h-.86v2.35h-.58v-2.35h-.84v-.47h2.28v.47Zm1.08-.47.72 2.05.71-2.05h.76v2.82h-.58v-.77l.06-1.33-.76 2.1h-.4l-.74-2.1.05 1.33v.77h-.57v-2.82h.75Zm63.92-24.78a5.56 5.56 0 0 0-3.64 2.4 7.3 7.3 0 0 0-1.06 2.82c-.17.97-.13 2.32.12 3.61.4 2.06 1.52 4.25 3.1 6.07a11.59 11.59 0 0 0 4.66 3.1 8 8 0 0 0 5.07-.09c1-.35 2.35-1.14 3.25-1.89a11.91 11.91 0 0 0 1.74-1.86 12.95 12.95 0 0 0 2.44-5.03c.28-1.26.42-2.58.32-3.07-.03-.14-.1-.53-.14-.84-.42-2.66-1.91-4.47-4.27-5.13-.37-.1-.57-.1-1.51-.1a4.92 4.92 0 0 0-1.68.13c-.88.23-1.82.62-2.6 1.08l-.2.12-.63-.33a8.88 8.88 0 0 0-2.11-.84 5.33 5.33 0 0 0-1.61-.18c-.54-.01-1.1.01-1.25.04Zm2.2 1.88c.43.1.93.26 1.45.49l.31.14-.58.6a8.63 8.63 0 0 0-1.12 1.38 13.3 13.3 0 0 0-1.74 3.2 6.27 6.27 0 0 0-.58 1.85c-.14.66-.15.8-.15 2.07a7.57 7.57 0 0 0 .13 2.04 9.9 9.9 0 0 1-.98-1.23c-1.4-2-2.11-4.6-1.84-6.67.1-.73.41-1.71.7-2.2a3.95 3.95 0 0 1 1.9-1.56 5.02 5.02 0 0 1 2.5-.1Zm9 .03c2.11.56 3.24 2.88 2.86 5.82-.22 1.63-.78 3.1-1.72 4.53-.34.51-1.04 1.4-1.07 1.37-.01-.02.02-.23.06-.5.18-1.14.15-2.36-.1-3.64a7.99 7.99 0 0 0-.68-2.1c-.1-.25-.28-.64-.4-.88-.21-.44-.35-.55-.56-.47-.07.03-.96.57-2 1.21a73.6 73.6 0 0 1-2.38 1.48c-.11.13-.04.48.15.74l.36.52c.18.26.28.34.43.34.06 0 1.3-.77 2.28-1.42.25-.16.48-.32.52-.33.09-.05.25.45.44 1.34.4 1.98.08 3.96-.85 5.2a3.59 3.59 0 0 1-3.14 1.4 3.29 3.29 0 0 1-2.43-1.08 2.9 2.9 0 0 1-.7-.93c-.74-1.56-.83-3.09-.33-5.14.8-3.23 3.38-6.24 6.24-7.27a8.88 8.88 0 0 1 1.45-.33c.35-.04 1.16.03 1.57.14Zm14.06 1.82c-.58.06-1.09.15-1.23.21l-.64.27a5.2 5.2 0 0 0-1.92 1.3c-.5.5-.64.69-.85 1.1-.5.96-.69 1.85-.63 3.01.05 1 .29 1.83.77 2.63.24.4.93 1.12 1.4 1.44.56.4 1.43.8 1.98.92.53.12 1.71.12 2.28-.01.78-.17 1.8-.72 2.34-1.26l.26-.25v.53c0 .44.02.57.1.71l.12.18h.75c.4 0 .78-.02.8-.04.18-.12.2-.29.2-2.45 0-1.9-.02-2.2-.1-2.26-.07-.08-.35-.09-2.2-.09h-2.12l-.1.14c-.1.13-.12.23-.12.76 0 .6 0 .62.15.76.15.13.18.14.84.14.39 0 .7.02.7.04 0 .1-.53.5-.9.7-.51.25-1.16.36-1.79.32a3.01 3.01 0 0 1-2.85-2.32 3.8 3.8 0 0 1-.1-1.03c0-.6.02-.73.16-1.11a3.16 3.16 0 0 1 1.97-2.05 4.3 4.3 0 0 1 1.87-.08 3.1 3.1 0 0 1 2.02 1.4c.24.43.3.46.72.31a7.57 7.57 0 0 0 1.53-.65c.07-.11-.1-.53-.43-1.04a4.41 4.41 0 0 0-2.23-1.78l-.52-.22a8.24 8.24 0 0 0-2.23-.23Zm15.08.25-.15.1v5.09c0 4.58.02 5.1.1 5.2l.08.14h2.4c2.5 0 2.57 0 3.4-.23a4.88 4.88 0 0 0 3.92-5.1c0-1.19-.08-1.58-.51-2.47-.68-1.37-1.83-2.22-3.6-2.65-.78-.17-1.1-.2-3.34-.2-2.1 0-2.16 0-2.3.12Zm5.16 2.13c.75.2 1.28.6 1.75 1.28.14.21.3.53.36.72a4 4 0 0 1-.2 2.65c-.04.02-.15.18-.26.35-.42.61-.96 1-1.7 1.18-.36.1-.61.11-1.7.11h-1.27v-3.17c0-1.74.02-3.19.04-3.21.03-.03.63-.03 1.35-.02.97.01 1.4.05 1.63.11Zm19.71-2.21c-.2.08-.21.16-.22 2.08v1.87l-.27-.26c-.89-.84-2.55-.9-3.78-.15-.19.1-.48.35-.67.53a4.18 4.18 0 0 0-.67 4.67 3.7 3.7 0 0 0 3.47 2.08 2.39 2.39 0 0 0 1.7-.77l.23-.22v.26c0 .15.04.31.08.4.1.13.1.13.98.13.74 0 .9-.02.98-.09.07-.08.08-.62.08-5.2 0-5.08 0-5.13-.1-5.25-.11-.11-.16-.12-.92-.11-.45 0-.85.02-.89.03Zm-1.25 5.16c.33.16.75.58.92.94.12.26.14.38.14.82 0 .48-.01.55-.18.88-.31.63-.86.97-1.56.97-1.08 0-1.83-.85-1.76-1.99.03-.51.22-.92.6-1.28.4-.4.67-.49 1.24-.46.2 0 .46.06.6.12Zm9.78-5.06-.14.13v1.85c0 1.02 0 1.85-.02 1.85l-.27-.24a2.69 2.69 0 0 0-1.07-.58c-.36-.1-1.32-.1-1.74.02-.73.2-1.48.69-1.9 1.25l-.28.36a4.44 4.44 0 0 0-.56 2.62c.06.5.28 1.24.44 1.48.45.67.95 1.17 1.57 1.52.52.3.89.41 1.46.46a2.5 2.5 0 0 0 2.07-.75c.13-.12.24-.21.26-.21.02 0 .04.1.04.22 0 .22.08.42.19.5.08.05 1.73.05 1.81 0 .17-.11.18-.38.18-5.3 0-5.24 0-5.18-.24-5.28a7.81 7.81 0 0 0-.88-.03c-.77 0-.8 0-.92.13Zm-1.22 5.06c.35.17.69.5.84.82.09.18.19.33.22.35.03.02.05.27.05.55 0 .45-.01.53-.16.82-.35.7-.8 1.02-1.5 1.06a1.62 1.62 0 0 1-1.65-.96c-.16-.33-.18-.4-.18-.88 0-.45.02-.56.16-.82.15-.31.23-.4.54-.7.4-.37 1.2-.49 1.69-.24Zm12.3-3.58c-.03.01-.05.2-.05.4 0 .3.02.37.09.37.06 0 .08-.06.08-.23v-.23l.1.18c.07.1.13.17.16.17s.09-.08.13-.17l.1-.18v.23c0 .2.01.23.1.23.1 0 .12-.02.1-.4 0-.34-.02-.38-.12-.38-.07 0-.15.07-.22.2l-.12.21-.06-.19c-.04-.1-.1-.2-.15-.22-.1-.04-.1-.04-.15 0Zm-50 1.5a3.83 3.83 0 0 0-2.94 2.46 4 4 0 0 1-.2.5 4.05 4.05 0 0 0 0 1.82c.03.04.08.17.12.29.13.42.46.96.81 1.34a4.15 4.15 0 0 0 1.36.99c.04.04.25.13.49.2a4.8 4.8 0 0 0 2.14.03 5.27 5.27 0 0 0 1.68-.9 3.85 3.85 0 0 0-.9-6.4 4.67 4.67 0 0 0-2.56-.33Zm1.35 2.08c.11.04.27.12.35.2.72.6.86.85.87 1.56 0 .41-.02.5-.18.81-.24.5-.72.85-1.32.98a1.8 1.8 0 0 1-1.92-.99 2.15 2.15 0 0 1-.04-1.48c.13-.35.59-.86.93-1.03.36-.2.86-.2 1.31-.05Zm17.67-2.12a5.1 5.1 0 0 0-1.06.3 3.4 3.4 0 0 0-1.97 2.1 4.19 4.19 0 0 0 .17 3.3 3.45 3.45 0 0 0 1.63 1.64c.12.05.22.1.22.13 0 .14 1.13.35 1.66.3a2.32 2.32 0 0 0 1.66-.76l.23-.22v.26c0 .15.04.31.09.4.09.13.1.13 1 .13.81 0 .92-.01 1-.1.08-.1.1-.42.1-3.6 0-3.33-.01-3.52-.1-3.6-.1-.08-.25-.1-.98-.1-1.05 0-1.11.03-1.11.45v.28l-.27-.25a2.48 2.48 0 0 0-1.2-.61c-.33-.08-.82-.1-1.07-.05Zm1.42 2.1c.13.04.34.19.58.42.33.32.38.4.49.76.3.95-.08 1.89-.92 2.28-.44.2-1.05.2-1.5-.01a1.82 1.82 0 0 1-.82-.85c-.1-.2-.12-.35-.12-.82 0-.5.02-.6.14-.84.21-.42.7-.86 1.03-.95.45-.11.69-.11 1.12.01Zm21.12-1.86c-.18.1-.17.3.1 1.18 1.49 4.78 1.84 5.88 1.93 6 .1.16.11.16.68.16.44 0 .57.01.55.06-.02.04-.07.2-.11.38-.19.63-.48.88-1.07.88-.34 0-.43-.02-.77-.2-.44-.23-.64-.25-.8-.08a3.8 3.8 0 0 0-.67 1.13c0 .2.22.4.68.62.95.47 2.38.46 3.25-.01.4-.21.88-.72 1.1-1.15.21-.4.28-.6.55-1.59l.7-2.44a130 130 0 0 0 1.35-4.75.3.3 0 0 0-.09-.17c-.06-.06-.24-.08-1-.08-.83 0-.94 0-1.02.1-.11.1-.17.3-.67 2.2a50.65 50.65 0 0 1-.87 3.19c-.02 0-.44-1.44-1.18-4.08a5.42 5.42 0 0 0-.35-1.02c-.11-.38-.16-.4-1.25-.4-.52.01-1 .04-1.04.07Zm85.39 15.87h-2.54V119.5h2.54v10.04Zm20.42-7.16a4.3 4.3 0 0 0-2.13-.54c-1.64 0-2.77 1.14-2.77 2.68 0 1.5 1.08 2.68 2.77 2.68 1.19 0 2.02-.47 2.13-.53v2.69c-.32.09-1.18.36-2.3.36-2.86 0-5.36-1.97-5.36-5.2 0-3 2.26-5.2 5.35-5.2 1.19 0 2.07.3 2.31.36v2.7Zm-26.44 0c-.1-.06-.91-.54-2.12-.54-1.65 0-2.78 1.14-2.78 2.68 0 1.5 1.09 2.68 2.78 2.68 1.19 0 2.01-.47 2.12-.53v2.69c-.31.09-1.18.36-2.3.36-2.85 0-5.35-1.97-5.35-5.2 0-3 2.26-5.2 5.34-5.2 1.2 0 2.07.3 2.31.36v2.7Zm34.4-.5a2.6 2.6 0 0 0-2.61 2.64 2.6 2.6 0 0 0 2.62 2.64 2.6 2.6 0 0 0 2.62-2.64 2.6 2.6 0 0 0-2.62-2.64Zm5.31 2.64c0 2.87-2.21 5.2-5.3 5.2a5.15 5.15 0 0 1-5.3-5.2c0-2.87 2.21-5.2 5.3-5.2s5.3 2.33 5.3 5.2Zm-24.09-2.74c-.04 0-1.1-.3-1.98-.3-1.01 0-1.56.34-1.56.82 0 .61.74.82 1.16.96l.7.22c1.64.52 2.39 1.65 2.39 2.87 0 2.52-2.22 3.37-4.16 3.37-1.34 0-2.6-.25-2.73-.28v-2.3c.22.05 1.28.37 2.4.37 1.25 0 1.83-.37 1.83-.94 0-.5-.5-.8-1.13-1l-.54-.17c-1.41-.45-2.59-1.28-2.59-2.94 0-1.88 1.41-3.14 3.74-3.14 1.24 0 2.4.3 2.47.32v2.14Zm-25.96-13.07a1.26 1.26 0 0 0-2.51 0v2.64a1.26 1.26 0 0 0 2.51 0v-2.64Zm6.91-3.45a1.26 1.26 0 0 0-2.52 0v6.09a1.26 1.26 0 1 0 2.52 0v-6.1Zm6.9-4.73a1.26 1.26 0 0 0-2.5 0v13.32a1.26 1.26 0 0 0 2.5 0v-13.32Zm6.91 4.73a1.26 1.26 0 1 0-2.51 0v6.09a1.26 1.26 0 1 0 2.51 0v-6.1Zm6.9 3.45a1.26 1.26 0 0 0-2.5 0v2.64a1.25 1.25 0 0 0 2.5 0v-2.64Zm6.91-3.45a1.26 1.26 0 0 0-2.13-.87c-.23.23-.37.54-.37.87v6.09a1.25 1.25 0 0 0 2.5 0v-6.1Zm6.91-4.73a1.25 1.25 0 1 0-2.5 0v13.32a1.28 1.28 0 0 0 .35.93 1.25 1.25 0 0 0 2.15-.93v-13.32Zm6.92 4.73c0-.7-.57-1.26-1.27-1.26a1.25 1.25 0 0 0-1.26 1.26v6.09c0 .7.56 1.26 1.26 1.26s1.26-.56 1.26-1.26v-6.1Zm6.9 3.45a1.26 1.26 0 0 0-2.52 0v2.64a1.25 1.25 0 1 0 2.51 0v-2.64Zm-1.46 19.51v.15h-.44v1.17h-.19v-1.17h-.45v-.15h1.08Zm.1 0h.28l.4 1.08.39-1.08h.28v1.32h-.19v-1.09l-.4 1.09h-.18l-.39-1.09v1.09h-.2v-1.32Zm-254.16 45.7h-2.7v-.04c.47-.57 1.12-1.34 1.49-1.96.2-.34.3-.56.3-.91s-.32-.8-.74-.8c-.3 0-.62.13-.96.57v-.76c.34-.28.66-.4 1-.4.77 0 1.3.54 1.3 1.32s-.37 1.28-1.32 2.4h1.63v.58Zm1.48-3v-.4h.34c.14 0 .24.07.24.2 0 .11-.1.2-.27.2h-.32Zm-.22.75h.21v-.57h.13c.17 0 .23.06.4.36l.12.2h.26l-.16-.26c-.11-.17-.2-.29-.3-.33a.38.38 0 0 0 .26-.11.37.37 0 0 0 .1-.27c0-.14-.1-.34-.43-.34h-.59v1.32Zm1.58-.7a1.03 1.03 0 1 1-2.07.03 1.03 1.03 0 0 1 2.07-.02Zm.2 0a1.23 1.23 0 0 0-2.11-.87 1.24 1.24 0 1 0 2.11.88Zm-35.59-1.16h-1.94v13.49h1.94v-13.49Zm9.58 2.96a4.57 4.57 0 0 0-3.17-1.4c-1.24 0-2.14.66-2.14 1.6 0 2.6 5.84 2.55 5.84 6.84 0 2.12-1.6 3.66-3.78 3.66a5.92 5.92 0 0 1-3.77-1.24v-2.45a4.54 4.54 0 0 0 3.55 1.95c1.5 0 2.2-.95 2.2-1.7 0-2.78-5.83-3.1-5.83-6.8 0-2.2 1.61-3.6 4.09-3.6a5.4 5.4 0 0 1 3 .95v2.2Zm13.74.05a8.86 8.86 0 0 0-4.65-1.41c-3.09 0-5.38 2.2-5.38 5.16s2.22 5.13 5.46 5.13c1.52 0 3.18-.54 4.7-1.52v2.11a9.9 9.9 0 0 1-4.88 1.18c-5.06 0-7.28-3.89-7.28-6.72 0-4.11 3.1-7.12 7.4-7.12 1.38 0 2.78.34 4.63 1.1v2.09Z"/><path fill="#F2F2F2" d="M10.04 176.92c0 3.9 2.34 7.44 6.1 9.92.3-.2.63-.42.98-.62-2.83-2.43-4.55-5.7-4.55-9.3 0-3.9 2.03-7.42 5.29-9.9-.34-.17-.65-.33-.95-.5-4.2 2.5-6.87 6.23-6.87 10.4Zm30.94-10.4c-.3.18-.62.34-.95.5 3.25 2.49 5.28 6 5.28 9.9 0 3.6-1.73 6.87-4.54 9.3.35.2.67.4.99.62 3.73-2.49 6.08-6.01 6.08-9.92 0-4.17-2.67-7.9-6.86-10.4Z"/><g clip-path="url(#a)"><path fill="#F2F2F2" d="m104.61 197.42.33-.92.12.05-.33.92-.12-.05Zm-1.94-.82.43-.88.11.06.1.9.34-.68.12.06-.43.88-.12-.06-.1-.9-.34.68-.11-.06Zm-2.37-1.25.52-.82.1.07-.52.82-.1-.07Zm-.27-.17.06-.1.63.43-.06.09-.63-.42Zm-1.46-2.2.07-.08.4.33-.07.09-.4-.34Zm-.17 1 .62-.76.1.08-.62.76-.1-.09Zm-.06-.6.07-.09.34.3-.07.08-.34-.3Zm-.31.28.07-.08.39.33-.07.08-.4-.33Zm-1.46-1.28-.22-.23a.46.46 0 0 1-.1-.16.25.25 0 0 1 0-.16.31.31 0 0 1 .19-.2.26.26 0 0 1 .12-.01c.04 0 .08.02.12.04l.04.02.2.23-.07.07-.16-.17a.24.24 0 0 0-.1-.07.17.17 0 0 0-.17.04.22.22 0 0 0-.06.09.15.15 0 0 0 0 .1l.07.1.13.14.63-.6.09.1-.7.67Zm.32-1.1-.16.49-.1-.1.16-.48.1.1Zm-2.58-1.53.79-.58.07.1-.32.85.6-.44.08.1-.78.58-.08-.1.32-.85-.6.45-.08-.1Zm-1.51-2.47.94-.14.06.12-1.04.13-.04-.08.08-.03Zm.66-.67-.64.71-.07.05-.04-.08.69-.8.06.12Zm-.31.19.1-.05.25.49-.1.05-.25-.5Zm-1.52-1.94.9-.37.05.12-.9.36-.05-.11Zm-.1-.3.09-.04.27.7-.1.05-.27-.7Zm-.69-1.78.93-.28.04.13-.94.28-.03-.13Zm-.07-2.12.06-.01a.65.65 0 0 1 .2-.01.3.3 0 0 1 .16.05.35.35 0 0 1 .17.25.36.36 0 0 1-.07.3.45.45 0 0 1-.13.11.63.63 0 0 1-.19.07l-.06.01a.68.68 0 0 1-.2 0 .42.42 0 0 1-.16-.04.35.35 0 0 1-.17-.26.4.4 0 0 1 0-.16c.01-.05.04-.1.07-.14a.42.42 0 0 1 .13-.1.65.65 0 0 1 .19-.07Zm.08.11-.06.01a.6.6 0 0 0-.15.05.33.33 0 0 0-.1.07.23.23 0 0 0-.05.1.26.26 0 0 0 0 .11c0 .04.02.08.04.1.02.03.05.06.08.07l.12.03h.16l.06-.02c.06 0 .1-.02.15-.04a.36.36 0 0 0 .1-.08.24.24 0 0 0 .05-.1v-.1a.26.26 0 0 0-.04-.11.22.22 0 0 0-.08-.07.34.34 0 0 0-.12-.03l-.16.01Zm-.99-3.45.98-.04v.13l-.73.53.75-.03v.12l-.97.04v-.13l.73-.52-.75.03-.01-.13Zm.14-2.94.86.42-.02.13-.93-.47.01-.09.09.01Zm.92-.17-.92.23-.09-.01.01-.09 1.01-.26-.01.13Zm-.36-.02h.1l-.05.55h-.1l.05-.55Zm.66-2.85.1.03-.11.47-.1-.03.1-.47Zm-.95.25.95.22-.03.13-.95-.23.03-.12Zm1.16-3.78.7.66-.06.12-.75-.74.04-.07.07.03Zm.92.1-.94-.05-.08-.03.04-.08 1.03.05-.05.12Zm-.33-.12.1.04-.22.5-.1-.04.22-.5Zm1.31-2.49a.17.17 0 0 0-.06-.03h-.05a.28.28 0 0 0-.08.05l-.08.08-.11.09a.49.49 0 0 1-.1.05.22.22 0 0 1-.2-.02.24.24 0 0 1-.08-.07.25.25 0 0 1-.03-.1v-.12c0-.04.02-.08.05-.13a.38.38 0 0 1 .13-.14.3.3 0 0 1 .15-.04c.05 0 .1.01.14.04l-.06.1a.18.18 0 0 0-.1-.02c-.03 0-.06 0-.09.03a.25.25 0 0 0-.08.09.27.27 0 0 0-.04.1c0 .04 0 .07.02.1a.1.1 0 0 0 .06.05l.05.02.06-.01.07-.04a.9.9 0 0 0 .08-.07.9.9 0 0 1 .11-.1.38.38 0 0 1 .1-.06.2.2 0 0 1 .1 0 .25.25 0 0 1 .18.1c.02.04.04.07.04.1v.13a.5.5 0 0 1-.14.23.38.38 0 0 1-.1.08.25.25 0 0 1-.25-.01l.06-.12c.03.02.05.03.08.03l.08-.01a.24.24 0 0 0 .07-.05.36.36 0 0 0 .09-.19l-.01-.08a.14.14 0 0 0-.06-.07Zm1.27-2.08a.14.14 0 0 0-.06-.03.1.1 0 0 0-.06 0 .3.3 0 0 0-.07.03.95.95 0 0 0-.1.07l-.11.08a.4.4 0 0 1-.11.04.22.22 0 0 1-.2-.04.24.24 0 0 1-.1-.18l.03-.12a.44.44 0 0 1 .2-.25.28.28 0 0 1 .3.03l-.08.1a.19.19 0 0 0-.09-.04c-.03 0-.06 0-.1.02a.25.25 0 0 0-.09.08.27.27 0 0 0-.05.1v.1l.06.06.05.02h.06c.03 0 .05-.02.08-.04a.82.82 0 0 0 .09-.06.93.93 0 0 1 .12-.08.37.37 0 0 1 .11-.04.24.24 0 0 1 .2.05l.07.08.02.1c0 .04 0 .08-.02.12a.5.5 0 0 1-.16.22.36.36 0 0 1-.12.06.25.25 0 0 1-.24-.04l.08-.1.08.04.07-.01c.03 0 .05-.02.08-.04a.37.37 0 0 0 .11-.17v-.1a.14.14 0 0 0-.05-.06Zm1.53-2.35.05.04c.05.06.09.1.12.16s.04.11.05.17c0 .05 0 .1-.02.15a.39.39 0 0 1-.09.14.38.38 0 0 1-.13.1.34.34 0 0 1-.15.02.44.44 0 0 1-.16-.05.61.61 0 0 1-.16-.12l-.05-.04a.63.63 0 0 1-.12-.16.44.44 0 0 1-.05-.16.36.36 0 0 1 .1-.3.38.38 0 0 1 .14-.09c.05-.02.1-.03.16-.02.05 0 .1.02.16.04l.15.12Zm-.04.14-.05-.05a.56.56 0 0 0-.12-.1.32.32 0 0 0-.11-.03h-.1a.25.25 0 0 0-.1.07.25.25 0 0 0-.06.1.24.24 0 0 0-.01.1c0 .04.02.08.04.12l.1.13.04.04a.6.6 0 0 0 .13.1l.12.04c.03 0 .07 0 .1-.02a.24.24 0 0 0 .1-.06.26.26 0 0 0 .05-.1.23.23 0 0 0 .01-.1.34.34 0 0 0-.04-.12.66.66 0 0 0-.1-.12Zm2.43-2.11.1-.09c.03.06.05.11.06.17 0 .05 0 .1-.02.16a.41.41 0 0 1-.13.16.34.34 0 0 1-.3.07.43.43 0 0 1-.14-.06.62.62 0 0 1-.13-.14l-.06-.07a.62.62 0 0 1-.1-.17.43.43 0 0 1-.02-.16c0-.05.02-.1.04-.15a.4.4 0 0 1 .11-.13.38.38 0 0 1 .17-.08c.06 0 .12 0 .17.02.05.02.1.06.14.1l-.1.08a.35.35 0 0 0-.1-.07.18.18 0 0 0-.1-.02.25.25 0 0 0-.11.06.26.26 0 0 0-.08.09.24.24 0 0 0-.02.1l.03.12c.01.04.04.08.07.13l.06.07.09.1c.03.03.07.05.1.06.04.01.07.02.11.01.04 0 .07-.02.1-.05a.28.28 0 0 0 .1-.1.17.17 0 0 0 0-.1.38.38 0 0 0-.04-.12Zm1.5-1.96.51.84-.1.07-.52-.84.11-.06Zm1.4-.8.11.95-.12.06-.1-1.05.08-.04.03.08Zm.64.68-.68-.65-.04-.08.07-.04.77.7-.12.06Zm-.18-.32.05.1-.49.24-.04-.1.48-.24Zm1.93-1.59.34.92-.12.04-.34-.91.12-.05Zm.3-.11.03.1-.7.27-.04-.1.7-.27Zm1.84-.58.25.94-.12.03-.26-.94.13-.03Zm2.09-.06v.06c.02.07.02.14.01.2a.3.3 0 0 1-.05.16.35.35 0 0 1-.1.11.39.39 0 0 1-.16.06.4.4 0 0 1-.16 0 .35.35 0 0 1-.14-.08.42.42 0 0 1-.1-.13.6.6 0 0 1-.07-.19v-.06a.6.6 0 0 1-.01-.2c0-.06.03-.11.05-.16a.35.35 0 0 1 .26-.17h.17c.05.02.1.04.13.08.05.03.08.08.1.13.03.05.06.12.07.19Zm-.12.08-.01-.06c0-.06-.02-.1-.04-.15a.3.3 0 0 0-.07-.1.22.22 0 0 0-.1-.06.25.25 0 0 0-.1 0 .25.25 0 0 0-.11.04.23.23 0 0 0-.07.08.33.33 0 0 0-.04.12l.01.16.01.06.04.15c.02.04.05.08.08.1a.24.24 0 0 0 .2.06c.04 0 .08-.02.1-.04a.22.22 0 0 0 .08-.08.34.34 0 0 0 .03-.12v-.16Zm3.32-.91.02.97h-.13l-.5-.74v.75h-.12l-.02-.97h.13l.5.74v-.75h.12Zm3.79.22-.16.96-.13-.02.16-.96.13.02Zm.33.5-.02.1-.43-.07.02-.1.43.07Zm.14-.42-.02.1-.5-.08.02-.1.5.08Zm2.5.92-.02.06a.67.67 0 0 1-.08.18.44.44 0 0 1-.12.12.33.33 0 0 1-.14.05l-.16-.01a.38.38 0 0 1-.24-.2.44.44 0 0 1-.03-.17c0-.07 0-.13.03-.2l.01-.06a.62.62 0 0 1 .09-.18.41.41 0 0 1 .12-.12c.04-.03.09-.04.14-.05.05 0 .1 0 .16.02.06.01.1.04.15.07a.4.4 0 0 1 .12.3c0 .06 0 .12-.03.2Zm-.14.02.02-.06.03-.15c0-.05 0-.09-.02-.12a.23.23 0 0 0-.06-.1.26.26 0 0 0-.1-.05.23.23 0 0 0-.21.03.33.33 0 0 0-.08.1.53.53 0 0 0-.06.14l-.02.06a.57.57 0 0 0-.03.15c0 .05 0 .09.02.13l.06.09.1.05c.04.01.07.02.11.01.04 0 .07-.02.1-.04a.33.33 0 0 0 .08-.1.64.64 0 0 0 .06-.14Zm2.75.43.3.14c.06.03.11.07.15.11.03.04.06.09.06.14 0 .05 0 .1-.03.16a.26.26 0 0 1-.18.16.33.33 0 0 1-.13 0h-.04l-.28-.14.04-.1.21.1c.04.03.08.03.12.03.03 0 .06 0 .09-.03a.19.19 0 0 0 .06-.07.23.23 0 0 0 .02-.1.15.15 0 0 0-.04-.09.28.28 0 0 0-.1-.07l-.18-.09-.36.8-.11-.06.4-.89Zm.11 1.14-.03-.5.13.05.03.5-.13-.05Zm3.46 1.59.1.08a.4.4 0 0 1-.13.1.3.3 0 0 1-.16.03.4.4 0 0 1-.19-.08.37.37 0 0 1-.15-.26l.01-.16a.64.64 0 0 1 .09-.17l.05-.08c.04-.06.08-.1.13-.14a.4.4 0 0 1 .14-.07c.05-.01.1-.02.16 0 .05 0 .1.03.15.06.06.04.1.1.13.14a.5.5 0 0 1 .03.17c0 .05-.03.11-.06.17l-.1-.08a.37.37 0 0 0 .04-.11c0-.04 0-.08-.02-.1a.24.24 0 0 0-.08-.1.26.26 0 0 0-.11-.05l-.1.01a.33.33 0 0 0-.1.06.63.63 0 0 0-.1.11l-.06.08a.6.6 0 0 0-.06.12.37.37 0 0 0-.03.12c0 .04.01.07.03.1.01.04.04.07.07.1l.12.05c.04 0 .07 0 .1-.02a.36.36 0 0 0 .1-.08Zm2.2.83.24.22c.05.05.09.1.11.15.02.06.03.1.02.16a.3.3 0 0 1-.08.14.25.25 0 0 1-.22.1.34.34 0 0 1-.12-.05l-.04-.01-.22-.2.07-.08.17.15a.2.2 0 0 0 .1.06h.1a.18.18 0 0 0 .07-.05.21.21 0 0 0 .05-.1v-.09a.27.27 0 0 0-.08-.1l-.14-.13-.58.65-.1-.09.65-.73Zm-.23 1.12.12-.5.1.1-.11.49-.1-.1Zm2.26.76-.2.51.53-.13.1.11-.68.15-.28.24-.08-.1.27-.24.24-.66.1.12Zm1.41 2.7-.14-.22.08-.06.15.22.09.09c.03.02.06.02.09.02a.22.22 0 0 0 .16-.11.17.17 0 0 0 .02-.1.24.24 0 0 0-.05-.12l-.12-.19-.72.5-.07-.11.8-.56.2.3c.04.06.06.12.07.18 0 .06 0 .11-.02.16a.3.3 0 0 1-.1.12.3.3 0 0 1-.16.06.25.25 0 0 1-.15-.04.45.45 0 0 1-.13-.14Zm1.85 1.97-.86.46-.06-.12.86-.45.06.11Zm.14.28-.1.05-.33-.67.09-.05.34.67Zm.66 2.5-.06.02a.63.63 0 0 1-.19.05.4.4 0 0 1-.16-.03.34.34 0 0 1-.13-.08.4.4 0 0 1-.11-.3c0-.05.02-.1.04-.15a.43.43 0 0 1 .11-.13.77.77 0 0 1 .18-.1l.06-.02a.63.63 0 0 1 .19-.04c.06 0 .11 0 .16.02.06.02.1.05.13.09a.4.4 0 0 1 .11.3c0 .05-.02.1-.04.15a.42.42 0 0 1-.11.13.6.6 0 0 1-.18.09Zm-.1-.1.06-.02.14-.07a.33.33 0 0 0 .09-.09.24.24 0 0 0 .02-.22.24.24 0 0 0-.06-.09.24.24 0 0 0-.1-.05.35.35 0 0 0-.12-.01l-.15.03-.06.02a.56.56 0 0 0-.14.08.34.34 0 0 0-.09.09.24.24 0 0 0-.02.21l.06.1a.2.2 0 0 0 .1.05c.03.01.07.02.12.01.05 0 .1-.02.15-.04Zm.58 3.25-.1.02-.1-.48.1-.02.1.48Zm.75-.65-.95.22-.03-.13.95-.22.03.13Zm.1 2.86h-.06a.45.45 0 0 1-.2 0 .43.43 0 0 1-.15-.06.34.34 0 0 1-.1-.12.4.4 0 0 1-.05-.15c-.01-.06 0-.11.01-.16.02-.05.04-.1.08-.14a.42.42 0 0 1 .14-.1.64.64 0 0 1 .2-.04h.06c.07-.02.13-.01.2 0l.15.06c.04.04.08.07.1.12.03.05.05.1.05.15l-.01.17a.33.33 0 0 1-.09.13.43.43 0 0 1-.13.1.6.6 0 0 1-.2.04Zm-.07-.12h.06l.15-.04a.32.32 0 0 0 .11-.06.22.22 0 0 0 .06-.1.26.26 0 0 0 .01-.1.25.25 0 0 0-.03-.11.23.23 0 0 0-.08-.08.32.32 0 0 0-.12-.04h-.21l-.16.04a.36.36 0 0 0-.1.07.24.24 0 0 0-.06.09.25.25 0 0 0-.02.1c0 .05.02.09.04.12s.04.05.08.07l.11.04h.16Zm.15 3.47-.35-.02a.34.34 0 0 1-.11-.17.56.56 0 0 1 .02-.34.37.37 0 0 1 .1-.13.52.52 0 0 1 .15-.07.62.62 0 0 1 .2-.02h.07c.07 0 .14.02.2.04.05.02.1.04.13.08a.3.3 0 0 1 .09.13c.02.05.03.1.02.17 0 .07-.02.13-.05.18a.3.3 0 0 1-.1.11.38.38 0 0 1-.16.05v-.13c.04 0 .07-.01.1-.03a.2.2 0 0 0 .07-.07.25.25 0 0 0 .04-.12c0-.04 0-.08-.02-.12a.22.22 0 0 0-.07-.08.33.33 0 0 0-.1-.06.63.63 0 0 0-.16-.02h-.07l-.15.01a.33.33 0 0 0-.12.05.24.24 0 0 0-.07.09.26.26 0 0 0-.03.1v.12c0 .03.02.05.03.07 0 .02.02.03.03.04h.22v-.22h.11l-.02.36Zm.34 2.59-.96-.15.02-.13.96.15-.02.13Zm-.96 1.67-.03.12a.41.41 0 0 1-.14-.1.32.32 0 0 1-.09-.14.42.42 0 0 1 0-.2c.02-.05.04-.1.08-.14a.35.35 0 0 1 .11-.1l.16-.04c.06 0 .12 0 .19.02l.1.03a.6.6 0 0 1 .16.07c.05.03.1.07.12.11a.36.36 0 0 1 .06.31.38.38 0 0 1-.09.17.3.3 0 0 1-.14.09.41.41 0 0 1-.18 0l.04-.12h.12l.09-.05a.25.25 0 0 0 .05-.12.23.23 0 0 0-.05-.21.33.33 0 0 0-.09-.08.56.56 0 0 0-.13-.05l-.1-.02a.58.58 0 0 0-.13-.02c-.04 0-.08 0-.12.02a.21.21 0 0 0-.14.16.28.28 0 0 0 0 .13c0 .04.02.07.05.1l.1.06Zm-.46 3.56-.14.3a.46.46 0 0 1-.1.16.24.24 0 0 1-.14.06c-.05 0-.1 0-.16-.03a.27.27 0 0 1-.15-.19.33.33 0 0 1 0-.13v-.04l.12-.28.1.05-.1.2a.26.26 0 0 0-.02.12c0 .04 0 .07.03.1l.07.05c.04.02.07.03.1.02l.09-.03a.28.28 0 0 0 .07-.1l.08-.18-.8-.36.06-.12.88.4Zm-1.12.12.5-.03-.06.12-.5.04.06-.13Zm-1.04 2.49-.1-.06.27-.44.09.05-.26.45Zm.99.02-.84-.5.07-.11.83.5-.06.11Zm-.57.15-.1-.05.23-.39.1.05-.23.4Zm.33.27-.1-.05.26-.44.1.05-.26.44Zm-1.86 1.57c.02.02.03.03.05.03h.06c.03 0 .05-.01.08-.03a.92.92 0 0 0 .1-.07l.11-.07a.43.43 0 0 1 .11-.05h.1a.2.2 0 0 1 .1.05.24.24 0 0 1 .09.18c0 .04 0 .08-.02.12a.45.45 0 0 1-.06.12c-.05.06-.1.1-.15.13a.28.28 0 0 1-.3-.03l.08-.1a.2.2 0 0 0 .1.04c.03 0 .06 0 .09-.02a.27.27 0 0 0 .1-.08.28.28 0 0 0 .04-.1v-.1a.16.16 0 0 0-.05-.06.14.14 0 0 0-.06-.03h-.06a.36.36 0 0 0-.07.04.99.99 0 0 0-.09.06.78.78 0 0 1-.13.09.37.37 0 0 1-.1.04.2.2 0 0 1-.1 0 .24.24 0 0 1-.1-.05.24.24 0 0 1-.1-.2l.03-.11a.49.49 0 0 1 .07-.13.45.45 0 0 1 .1-.1.38.38 0 0 1 .1-.05.3.3 0 0 1 .13-.01c.04 0 .09.02.12.05l-.07.1a.2.2 0 0 0-.08-.03h-.08a.23.23 0 0 0-.07.04.35.35 0 0 0-.07.07.32.32 0 0 0-.05.1v.1c0 .02.02.04.05.06Zm-1.75 1.9-.07-.08.35-.37.08.07-.36.38Zm.96.25-.7-.68.1-.1.69.68-.09.1Zm-.59.01-.07-.07.3-.33.08.07-.3.33Zm.26.34-.08-.08.35-.37.08.08-.35.37Zm-1.7 1.6-.3-.9.1-.1.32 1.01-.06.06-.06-.07Zm-.76-.53.8.5.06.06-.07.06-.9-.53.11-.09Zm.24.27-.07-.08.43-.35.06.09-.42.34Zm-1.5 1.96-.28.17a.45.45 0 0 1-.17.08c-.05 0-.1 0-.15-.03a.29.29 0 0 1-.12-.11.27.27 0 0 1-.02-.24.35.35 0 0 1 .07-.12l.02-.03.26-.16.06.09-.2.12a.25.25 0 0 0-.08.08.18.18 0 0 0 0 .19.2.2 0 0 0 .07.07c.03.02.06.02.1.02.03 0 .07-.02.1-.04l.17-.1-.45-.75.1-.07.52.83Zm-1-.53.44.25-.12.08-.43-.24v-.01l.11-.07Zm-2.09 1.63-.12.05a.42.42 0 0 1-.02-.17c0-.06.03-.1.06-.16a.42.42 0 0 1 .16-.12l.16-.04c.05 0 .1.01.14.04a.4.4 0 0 1 .13.1c.04.04.07.09.1.15l.04.09a.6.6 0 0 1 .05.18.4.4 0 0 1 0 .16.35.35 0 0 1-.08.14.41.41 0 0 1-.14.1.38.38 0 0 1-.18.04.29.29 0 0 1-.16-.05.41.41 0 0 1-.11-.14l.11-.05.08.1c.03.01.06.03.1.03.03 0 .07 0 .12-.03a.25.25 0 0 0 .1-.07.24.24 0 0 0 .04-.1.3.3 0 0 0 0-.12.53.53 0 0 0-.04-.13l-.04-.1a.6.6 0 0 0-.07-.11.33.33 0 0 0-.09-.08.23.23 0 0 0-.1-.04c-.04 0-.08 0-.12.03a.29.29 0 0 0-.1.08.18.18 0 0 0-.04.1c0 .03 0 .07.02.12Zm-2.68 1.35-.02-.1.5-.16.03.1-.5.16Zm.61.25-.28-.94.13-.03.27.93-.12.04Zm-.6.18-.27-.93.12-.04.28.94-.12.03Zm.49-21.32h-6.95v7.35h6.95v-7.34Zm-7.4 0h-6.95v7.35h6.95v-7.34Zm0-7.88h-6.95v7.4h6.95v-7.4Zm7.4 0h-6.95v7.4h6.95v-7.4Zm.56-.46h8.4a18.91 18.91 0 0 0-8.4-8.69v8.7Zm0 7.89h10.2c0-2.56-.53-5.1-1.57-7.43h-8.63v7.43Zm-15.47 7.77v-7.31H94.08c.07 2.54.68 5.04 1.8 7.31h8.63Zm0-15.2h-8.86a18.36 18.36 0 0 0-1.57 7.43h10.43v-7.43Zm0-.46v-8.8a18.57 18.57 0 0 0-8.63 8.8h8.63Zm0 16.24h-8.4a17.98 17.98 0 0 0 8.4 8.22v-8.23Zm7.51-26.75c-2.39.01-4.75.52-6.95 1.48v9.03h6.95v-10.51Zm18.05 18.85h-10.09v7.32h8.4a17.54 17.54 0 0 0 1.69-7.31Zm-10.09 7.9v8.1a18.33 18.33 0 0 0 8.18-8.1h-8.18Zm-7.51-26.75v10.51h6.95v-8.91a19.96 19.96 0 0 0-6.95-1.6Zm-.45 36.69v-9.95h-6.95v8.46a15.9 15.9 0 0 0 6.95 1.49Zm7.4-9.94h-6.95v9.94c2.4 0 4.78-.55 6.95-1.6v-8.35Z"/><path fill="#375E74" d="M100.25 169.78h-.67v-.8h.67v.8Zm0 5.03h-.67v-4.35h.67v4.34Zm17.6-9.03-.78.45h-1.8l-.78-.45-.56-.7a1.62 1.62 0 0 1-.23-.8v-.45c.03-.28.1-.55.23-.8l.56-.68.78-.46h1.8l.78.46-.56.57a.56.56 0 0 0-.45-.34h-1.34l-.45.22-.34.46c-.09.18-.13.38-.11.57v.46a1 1 0 0 0 .11.57l.34.46.45.34h1.34l.45-.23.56.34Zm-7.29 16.57h-.67v-.57l-.56.45h-1.57l-.67-.45-.45-.69c-.1-.25-.14-.53-.11-.8v-.46a2 2 0 0 1 .11-.8l.45-.68.67-.46h1.57l.56.46v-.46h.67v4.46Zm-.67-2.06v-.46c0-.2-.03-.39-.11-.57-.11-.11-.11-.23-.23-.45l-.44-.23h-1.13a.55.55 0 0 0-.44.22l-.23.46a1.3 1.3 0 0 0-.11.57v.46a1 1 0 0 0 .11.57c.03.17.11.33.23.46l.44.23h1.13l.44-.23c.12-.11.12-.34.23-.46a1 1 0 0 0 .11-.57Zm13.68 5.83h-.68l-.44.34-.34.35c0 .22-.11.34-.11.57v2.51h-.67v-4.45h.67v.68l.67-.46.67-.22h.23v.68Z"/><path fill="#F2F2F2" d="M111.57 197.44c.62 0 1.12-.52 1.12-1.15 0-.63-.5-1.14-1.12-1.14-.62 0-1.12.51-1.12 1.14 0 .63.5 1.15 1.12 1.15Z"/></g><g clip-path="url(#b)"><path stroke="#F2F2F2" stroke-miterlimit="10" stroke-width=".1" d="M181.1 176.87c5.08 0 9.2-3.95 9.2-8.82s-4.12-8.81-9.2-8.81c-5.1 0-9.22 3.94-9.22 8.81 0 4.87 4.13 8.82 9.21 8.82Z"/><path fill="#F2F2F2" d="M193.24 194.03h23.02l-16.75-27.66-10.48 17.53-.3-8.44a8.75 8.75 0 0 1-3.07 2.41 9.12 9.12 0 0 1-3.88.87v15.29h9.11l8.52-13.7 4.41 7.13h-6.85l-3.73 6.57Zm-20.28-19.13v19.03h7.25v-15.19a9.62 9.62 0 0 1-4.1-1.1 9.18 9.18 0 0 1-3.15-2.74Z"/><path stroke="#F2F2F2" stroke-miterlimit="10" stroke-width=".1" d="M178.94 176.77a13.1 13.1 0 0 1-2.84-6.65c-.69-4.22 2.84-9.47 2.84-9.47s4.5 15.19 4.6 15.94"/><path stroke="#F2F2F2" stroke-miterlimit="10" stroke-width=".1" d="M187.66 174.24s.98-6.37-3.63-10.5c-2.94-2.63-5.1-3.1-5.1-3.1s8.73-.28 11.37 6.2"/><path stroke="#F2F2F2" stroke-miterlimit="10" stroke-width=".1" d="M173.75 162.8c1.37-1.87 5.19-2.16 5.19-2.16s-.1-.93.1-1.12"/><path stroke="#F2F2F2" stroke-miterlimit="10" stroke-width=".1" d="M181.1 159.24c-.88.2-1.64.7-2.16 1.4 0 0-1.28-.74-2.06-.37m-4.11 11.53s5.48 2.44 9.8 1.32c4.3-1.13 7.44-3.1 7.73-5.72"/><path stroke="#F2F2F2" stroke-miterlimit="10" stroke-width=".1" d="M171.88 168.05s4.8 3.57 10.49 1.7c5.68-1.88 6.86-6.01 6.86-6.01"/><path stroke="#F2F2F2" stroke-miterlimit="10" stroke-width=".1" d="M172.77 164.3s2.54 3.2 8.03 1.97c5.49-1.22 5.1-5.63 5.1-5.63a9.52 9.52 0 0 0-10.05 1.99 8.72 8.72 0 0 0-2.7 6.27c.02 1.4.39 2.78 1.07 4.01a8.94 8.94 0 0 0 2.86 3.11"/><path stroke="#F2F2F2" stroke-miterlimit="10" stroke-width=".1" d="M175.51 175s5.39 1.21 8.82-.2a15.6 15.6 0 0 0 5.58-4.03m14.31-1.31c.86 0 1.56-.67 1.56-1.5s-.7-1.5-1.56-1.5c-.87 0-1.57.67-1.57 1.5s.7 1.5 1.56 1.5Z"/></g><path fill="#F2F2F2" d="M268.75 178.97h-.36c-1.92 0-3.25.13-4 .37-.76.24-1.14.66-1.14 1.25 0 .42.2.73.58.94.39.21.96.31 1.73.31 1.03 0 1.82-.22 2.37-.67.55-.45.82-1.1.82-1.94v-.26Zm.12 3.4a4.66 4.66 0 0 1-2.2 1.47c-.97.33-2.11.5-3.44.5-1.53 0-2.71-.3-3.55-.9a2.97 2.97 0 0 1-1.25-2.56 3.59 3.59 0 0 1 1.88-3.2 5.74 5.74 0 0 1 2.04-.61c.88-.12 2.26-.18 4.15-.18h2.25l.01-.17.01-.15c0-.61-.2-1.08-.58-1.4-.39-.32-.95-.48-1.7-.48-.84 0-1.46.1-1.87.31-.4.21-.65.56-.73 1.03h-4.67a3.36 3.36 0 0 1 2.01-2.74c1.2-.58 2.98-.88 5.34-.88 2.28 0 3.96.35 5.04 1.06 1.07.7 1.61 1.8 1.61 3.28v5.81c0 .33.02.6.05.85.04.24.1.46.19.67h-4.3a2.8 2.8 0 0 1-.22-.68 4.43 4.43 0 0 1-.07-.81v-.22Zm-11.23-14.23c0 1.79-1.54 3.24-3.44 3.24s-3.44-1.45-3.44-3.24c0-1.8 1.54-3.24 3.44-3.24s3.44 1.45 3.44 3.24Zm43.48 13.9c1 0 1.8-.3 2.39-.92.6-.62.89-1.44.89-2.47 0-1.16-.3-2.06-.88-2.7a3.19 3.19 0 0 0-2.47-.96c-1.04 0-1.84.31-2.43.92a3.6 3.6 0 0 0-.87 2.58c0 1.16.29 2.04.86 2.64.58.6 1.41.91 2.51.91Zm-7.95 6.3v-13.13a16.4 16.4 0 0 0-.2-2.57h4.68a11.5 11.5 0 0 1 .14 1.77v.35a6.39 6.39 0 0 1 2.3-1.8c.9-.4 1.89-.61 2.96-.61 1.92 0 3.41.53 4.48 1.6 1.08 1.07 1.61 2.56 1.61 4.47 0 1.81-.55 3.25-1.66 4.3-1.1 1.06-2.61 1.6-4.52 1.6a8.11 8.11 0 0 1-2.83-.48 7.03 7.03 0 0 1-2.34-1.44v5.94h-4.62Zm-9.76-6.27c1 0 1.8-.3 2.39-.92a3.4 3.4 0 0 0 .89-2.46c0-1.16-.3-2.07-.88-2.7a3.18 3.18 0 0 0-2.47-.97 3.2 3.2 0 0 0-2.43.93 3.59 3.59 0 0 0-.87 2.57c0 1.16.28 2.04.86 2.65.58.6 1.41.9 2.51.9Zm-7.95 6.3v-13.12a17.54 17.54 0 0 0-.2-2.57h4.68a11.5 11.5 0 0 1 .14 1.76v.35a6.4 6.4 0 0 1 2.3-1.8 7 7 0 0 1 2.96-.61c1.92 0 3.4.53 4.48 1.6 1.08 1.07 1.61 2.56 1.61 4.47 0 1.81-.55 3.25-1.66 4.3-1.1 1.07-2.61 1.6-4.52 1.6a8.1 8.1 0 0 1-2.83-.48 7.03 7.03 0 0 1-2.34-1.44v5.94h-4.62Zm-19.29-15.65h-4.62v11.37h4.62v-11.37Z"/><g fill="#F2F2F2" clip-path="url(#c)"><path d="M2.95 241.99v-17.63H2.3V242h.66Zm58.24.06v-17.63h-.67v17.63h.67ZM22.11 229.3h-1.5v3.99h1.5c.68.02 1.34-.16 1.86-.5.27-.19.47-.42.6-.69.14-.26.19-.55.15-.83.05-.28 0-.56-.13-.82a1.67 1.67 0 0 0-.62-.64 3.17 3.17 0 0 0-1.86-.5ZM9.4 234.75h4.27l-2.13-3.99-2.13 3.99Z"/><path d="M2.47 224.92v16.73H61.2v-16.73H2.47Zm13.6 13.87-1.65-2.7H8.58l-1.5 2.7H5.14l6.39-11.34 6.45 11.34h-1.92Zm9.61-5.78c-.38.45-.9.82-1.5 1.06-.64.28-1.35.42-2.07.4h-1.5v4.32h-1.8v-10.72h3.3c.72-.02 1.43.11 2.06.39.63.25 1.15.64 1.51 1.12.38.51.57 1.1.55 1.69a3 3 0 0 1-.55 1.74Zm9.41-1.46L31.52 239l-5.5-11h2.07l3.5 7.36 3.43-7.36 3.99 7.3 3.57-7.3h1.71l-5.42 11-3.78-7.46Zm21.84 3.93c-.27.67-.7 1.3-1.24 1.85a6.75 6.75 0 0 1-4.73 1.68 8.27 8.27 0 0 1-2.68-.39 6.38 6.38 0 0 1-2.2-1.18 4.95 4.95 0 0 1-1.92-4.04 4.94 4.94 0 0 1 1.92-4.04 6.36 6.36 0 0 1 2.2-1.18 8.3 8.3 0 0 1 2.68-.4 7.3 7.3 0 0 1 2.26.29c.67.15 1.3.4 1.86.73.55.37 1.03.8 1.44 1.29l-1.17.9a4.07 4.07 0 0 0-1.78-1.4 6.73 6.73 0 0 0-5.22.06 4.7 4.7 0 0 0-1.86 1.6c-.43.66-.64 1.4-.62 2.15-.02.79.22 1.56.7 2.25a4.74 4.74 0 0 0 1.78 1.51c.8.34 1.7.51 2.6.5.61.02 1.22-.06 1.8-.22a6 6 0 0 0 1.37-.67c.37-.29.67-.63.89-1.01.28-.36.47-.76.55-1.18h-4.4v-1.24h6.18c0 .73-.13 1.45-.4 2.14Z"/><path d="M62.01 224.87v-.56H.96v.56H2.2v16.84H.96v.5h61.05v-.5h-.61v-16.84h.6Zm-1.23 16.84H2.88v-16.84h57.9v16.84Z"/></g><path fill="#F2F2F2" d="M95.14 232.66a1.18 1.18 0 0 1 0-1.66 1.18 1.18 0 0 1 1.95 1.17c0 .02 0 .05.02.07l.57.57c.03.03.08.03.1 0l.02-.02a2.09 2.09 0 0 0-.86-2.81 2.07 2.07 0 0 0-2.8.86 2.09 2.09 0 0 0 .86 2.82c.6.32 1.33.32 1.94 0 .04-.02.05-.06.03-.1l-.02-.02-.58-.57a.07.07 0 0 0-.07-.02c-.4.13-.86.02-1.16-.29Zm.01 2.79a1.17 1.17 0 1 1 1.66 1.66c-.3.3-.76.43-1.17.3-.03 0-.05 0-.07.02L95 238a.08.08 0 0 0 0 .11l.01.01c1.02.54 2.27.15 2.8-.86a2.09 2.09 0 0 0-.85-2.82 2.07 2.07 0 0 0-2.8.87 2.1 2.1 0 0 0 0 1.95c.01.03.06.04.1.02l.01-.01.57-.58a.07.07 0 0 0 .02-.07c-.13-.41-.02-.87.29-1.17Z"/><path fill="#F2F2F2" d="M100.43 237.46a1.17 1.17 0 0 1 0-2.35c.42 0 .83.23 1.02.62.01.03.04.03.07.03h.81c.05 0 .07-.03.07-.07v-.02a2.06 2.06 0 0 0-2.59-1.37 2.08 2.08 0 0 0 1.22 3.97c.66-.2 1.18-.72 1.37-1.37.01-.04 0-.08-.05-.1h-.83a.07.07 0 0 0-.07.04c-.2.38-.59.62-1.02.62Zm-1.17-5.63c0-.65.52-1.18 1.16-1.18a1.17 1.17 0 0 1 .56 2.2c-.03.02-.04.04-.04.07v.82c0 .03.04.07.08.07h.01a2.08 2.08 0 0 0-1.22-3.98 2.08 2.08 0 0 0 0 3.98c.04.01.09 0 .1-.05v-.84a.08.08 0 0 0-.04-.06c-.37-.2-.61-.6-.61-1.03Zm-2.12-4.45a1.17 1.17 0 1 1-1.73-1.04c.03 0 .03-.03.03-.06v-.82a.07.07 0 0 0-.07-.07h-.01a2.08 2.08 0 0 0 1.21 3.98 2.08 2.08 0 0 0 0-3.98c-.03-.01-.08 0-.09.05v.84c0 .03.02.05.04.06.38.21.62.6.62 1.04Zm8.58 8.07c.45.46.45 1.2 0 1.66a1.18 1.18 0 0 1-1.95-1.17c0-.02 0-.05-.02-.07l-.58-.58c-.02-.03-.07-.03-.1 0l-.01.02a2.09 2.09 0 0 0 .86 2.81c1 .54 2.26.15 2.8-.86a2.07 2.07 0 0 0-2.8-2.82c-.04.02-.05.06-.03.1l.02.02.57.57c.02.02.05.03.07.02.41-.12.86 0 1.17.3Zm0-2.79c-.46.46-1.2.46-1.66 0a1.18 1.18 0 0 1 0-1.66c.3-.31.75-.43 1.16-.3.03 0 .06 0 .08-.02l.57-.58a.08.08 0 0 0 0-.1l-.02-.01a2.09 2.09 0 0 0-1.94 3.68c1 .54 2.26.15 2.8-.87a2.1 2.1 0 0 0 0-1.95c-.02-.03-.06-.05-.1-.03l-.02.01-.57.58c-.02.02-.03.04-.02.07.13.42.02.87-.28 1.18Zm-.81-4.1a1.17 1.17 0 0 1 0-2.35c.42 0 .81.23 1.02.62.01.03.04.03.06.03h.82c.04 0 .07-.03.07-.07v-.01a2.06 2.06 0 0 0-2.59-1.38 2.08 2.08 0 0 0 1.22 3.97c.65-.2 1.17-.71 1.37-1.37 0-.04 0-.08-.05-.1H106a.08.08 0 0 0-.07.04c-.2.37-.6.6-1.03.62Zm-5.31-2.01c.47-.46 1.2-.46 1.67 0 .45.46.45 1.2 0 1.66-.3.31-.76.43-1.17.3-.02 0-.05 0-.07.02l-.57.58a.07.07 0 0 0 0 .1l.01.01c1.02.54 2.27.16 2.8-.86a2.09 2.09 0 0 0-.85-2.82 2.07 2.07 0 0 0-2.8.87 2.1 2.1 0 0 0 0 1.95c.01.03.06.04.1.03l.01-.01.57-.58a.07.07 0 0 0 .02-.07c-.13-.42-.02-.87.29-1.18Zm11.64 1.2c0-.13.1-.23.23-.24h1.14c.13.01.23.11.23.24v8.13c0 .13-.1.24-.23.24h-1.14a.25.25 0 0 1-.23-.24v-8.13Zm3.51 7.17.44-.77a.28.28 0 0 1 .39-.1l.02.02c.07.04 1.06.77 1.85.77.63 0 1.1-.42 1.1-.95 0-.63-.52-1.06-1.55-1.47-1.14-.47-2.3-1.2-2.3-2.66 0-1.1.81-2.35 2.76-2.35.88.01 1.73.3 2.44.82.13.1.16.27.07.4l-.46.71c-.1.14-.28.24-.43.14-.1-.06-1.03-.67-1.7-.67-.7 0-1.08.47-1.08.86 0 .58.46.97 1.45 1.38 1.19.48 2.56 1.19 2.56 2.78 0 1.27-1.09 2.44-2.8 2.44a3.95 3.95 0 0 1-2.7-.97c-.1-.13-.17-.18-.06-.38Zm6.14.88 3.8-8.27a.23.23 0 0 1 .2-.13h.13c.1-.01.17.04.21.13l3.77 8.27c.05.1.02.24-.09.3a.28.28 0 0 1-.12.02h-1.06a.36.36 0 0 1-.36-.24l-.6-1.32h-3.65l-.6 1.32a.36.36 0 0 1-.36.24h-1.07a.22.22 0 0 1-.23-.2c0-.04 0-.08.03-.12Zm5.29-2.62-1.23-2.7h-.03l-1.2 2.7h2.46Zm7.72-5.78c1.1-.03 2.17.38 2.96 1.14.1.08.12.22.04.32l-.02.03-.74.77a.2.2 0 0 1-.28.04l-.04-.04a2.9 2.9 0 0 0-1.88-.72 2.79 2.79 0 0 0-2.73 2.86 2.78 2.78 0 0 0 4.61 2.14.22.22 0 0 1 .3 0l.77.79c.09.1.08.24 0 .33a4.2 4.2 0 0 1-2.98 1.19 4.4 4.4 0 0 1-4.48-4.35 4.4 4.4 0 0 1 4.33-4.5h.14Zm3.64 8.4 3.81-8.27a.23.23 0 0 1 .2-.13h.13c.1-.01.17.04.2.13l3.78 8.27c.05.1.02.23-.1.3a.29.29 0 0 1-.12.02h-1.06a.34.34 0 0 1-.35-.24l-.6-1.32h-3.67l-.6 1.32a.36.36 0 0 1-.35.24h-1.07a.22.22 0 0 1-.23-.2l.03-.12Zm5.29-2.62-1.23-2.7h-.03l-1.2 2.7h2.46Zm4.07 1.58c.4 0 .73.32.73.73a.72.72 0 1 1-1.45 0c0-.41.33-.73.72-.73Zm0 1.33a.6.6 0 0 0 .6-.6.6.6 0 1 0-1.2 0c0 .33.27.6.6.6Zm-.25-.94c0-.02.02-.03.04-.03h.28c.13-.01.24.08.25.2v.02c.01.1-.06.2-.16.23l.13.23c0 .02 0 .04-.02.05h-.09c-.02 0-.03-.01-.03-.02l-.12-.26h-.15v.25c0 .02-.02.03-.04.03h-.05c-.02 0-.04-.01-.04-.03v-.67Zm.32.3c.07 0 .12-.04.12-.1 0-.07-.04-.13-.1-.13h-.23v.24h.21Zm51.5 17.09a19.39 19.39 0 1 0-.01-38.78 19.39 19.39 0 0 0 .01 38.78Z"/><path fill="#375E74" d="m211.07 234.8-.97.3.22.08-.33.22.1-.6.52-.44.01.23.6-.8-.92.41.23.06-.42.35c.03-.24.05-.49.06-.73l.53-.58.04.23.48-.88-.85.53.23.03-.41.45v-.46c0-1.14-.16-2.26-.48-3.35-.53.05-1.06-.12-1.31-.17.67.4.9.83 1 1.32a2.21 2.21 0 0 1-1.65-.37 2 2 0 0 1 .65 1.42 1.94 1.94 0 0 1-1.45-.61c.24.27.55.95.47 1.44a2.16 2.16 0 0 1-1.3-.72c.24.55.36.99.33 1.48a2.15 2.15 0 0 1-1.23-.62c.2.5.28 1 .23 1.41a2 2 0 0 1-1.19-.9c.16.44.27 1.03.16 1.37a1.54 1.54 0 0 1-.99-.88c.23.5.2 1.06.13 1.36a1.15 1.15 0 0 1-.57-.31l-.02.25a3.3 3.3 0 0 1-.2.93c.05.05.1.1.13.15.24.26.57.5.82.58-.1.02-.26.11-.41.13.17.2.51.24.72.45-.16.02-.2.14-.4.12.38.3.74.3.93.33.08.01.34.04.5.01.24-.04.48.08.57.13.14.09.13.28.1.38a.27.27 0 0 1-.14.19c-.06.02-.1.02-.04-.02.05-.04.1-.3-.03-.4a.6.6 0 0 0-.38-.1h-.57c-.11-.01-.19.14-.2.2-.05.16-.1.35-.32.26-.27-.16-.66-.14-1.11-.33.06.14.03.26.1.42-.4-.1-.5-.3-.88-.44.06.14.04.25.13.38-.32-.06-.62-.35-1.07-.47l-.04.02-.44.14c.31.35.57.8.7 1.33 0 0-.23 0-.56-.11.1.3.15.62.16.93 0 0-.25-.04-.6-.26.04.33.02.66-.04.99 0 0-.29-.12-.63-.47a3.6 3.6 0 0 1-.26.98s-.27-.18-.54-.6a3.8 3.8 0 0 1-.48.96s-.29-.3-.49-.92c-.26.4-.5.56-.5.56a3.64 3.64 0 0 1-.27-.98c-.34.35-.63.47-.63.47a3.37 3.37 0 0 1-.04-.99c-.35.22-.6.26-.6.26 0-.31.06-.63.16-.93-.33.11-.55.1-.55.1.12-.54.48-1.1.72-1.35l-.38-.11-.04-.02c-.45.12-.75.41-1.07.47.08-.13.07-.24.13-.38-.38.13-.48.34-.88.44.07-.16.04-.28.1-.42-.37.19-.87.31-1.1.36-.25.05-.26-.32-.34-.4-.04-.04-.24-.05-.32-.04-.13.02-.37.01-.54 0a.6.6 0 0 0-.4.13c-.13.1-.07.36-.01.4.06.04.02.04-.04.02a.27.27 0 0 1-.15-.19c-.03-.1-.04-.3.1-.37.1-.06.34-.17.57-.14a2.32 2.32 0 0 0 1.54-.42c-.2.02-.24-.1-.4-.12.21-.21.56-.26.72-.45-.15-.02-.28-.14-.4-.16.35-.18.57-.3.8-.55l.13-.14c-.1-.29-.17-.6-.2-.93v-.25c-.1.09-.26.18-.54.28-.13-.31-.07-.9.1-1.36-.24.47-.5.77-.95.9-.12-.34-.05-.93.1-1.37-.3.5-.61.76-1.15.94-.04-.4 0-.95.2-1.45-.41.4-.77.53-1.23.62-.03-.49.1-.93.34-1.48-.3.37-.92.62-1.38.67.03-.43.33-1 .5-1.34-.43.3-.9.53-1.4.56.06-.48.27-1 .64-1.42-.43.33-1.1.5-1.6.43a2.2 2.2 0 0 1 .89-1.32c-.26.05-.72.16-1.25.11a11.64 11.64 0 0 0-.48 3.3c-.27-.22-.45-.27-.63-.45l.1.7c.04.54.25.86.6 1.06l.06.46c-.26-.16-.6-.26-1.06-.26.28.9.67.97 1.2 1.05l.06.25a1.91 1.91 0 0 0-1 .03c.26.41.63.66 1.22.75-.36-.02-.75.03-1.07.2.45.38.89.52 1.3.48l.07.16c-.33.1-.62.26-.78.42.34.11.7.17 1.02.14l.01.02c-.19.15-.35.38-.45.75.25-.07.5-.08.75-.16.05.1.1.2.16.28-.13.26-.18.58-.1.93.21-.05.39-.13.53-.24l.16.22c-.06.41.04.82.28 1.1.1-.12.2-.25.27-.38a11.66 11.66 0 0 0 19.87-3.42l.53-.23-.04.23.76-.66-.98.2.2.11-.4.17.2-.62.58-.32-.02.23.7-.72-.97.29.22.09-.47.25c.07-.22.12-.45.17-.69l.44-.28-.02.24.7-.73Z"/><path fill="#375E74" d="M193.8 229.23a3.47 3.47 0 0 1-.8-.55c-.84-.77-1.04-1.58-.8-2.51.16-.56.38-.83.3-1.41-.04-.33-.27-.6-.5-.82a5.57 5.57 0 0 0-2.23-1.22c-.61-.2-2.4-.76-3.18-1.47-.17.53.2 1.22.66 1.31-.4.04-.74.25-.9.48.3.35.9.71 1.4.72-.23.16-.51.48-.6.67.43.23 1.11.42 1.64.38-.22.18-.41.4-.54.61.36.17 1.05.4 1.71.45-.24.12-.59.54-.77.8a7.5 7.5 0 0 0 1.68.31 2.7 2.7 0 0 0-.94.9c.36.18 1.05.37 1.6.35a2.2 2.2 0 0 0-.56.9c.42.08.87.08 1.38.02-.31.39-.44.91-.48 1.28a3 3 0 0 0 1.36-.34c-.08.32-.06.75.07 1.06.17-.04.36-.1.56-.22l-.07-1.7Zm16.97-7.02c-.79.71-2.04.9-3.36 1.34-1 .33-1.61.52-2.5 1.23-.25.2-.5.5-.47 1 .03.57.13.82.14 1.61a1.9 1.9 0 0 1-.42 1.29c-.25.28-.58.53-.87.69l-.06 1.53c.2.1.47.21.63.25.14-.3.15-.74.07-1.06a3 3 0 0 0 1.36.34 2.64 2.64 0 0 0-.48-1.29c.51.07.96.07 1.38-.01a2.3 2.3 0 0 0-.56-.9c.56.02 1.24-.17 1.6-.35-.2-.34-.58-.71-.94-.9a7.3 7.3 0 0 0 1.7-.31 3.06 3.06 0 0 0-.8-.8 5.57 5.57 0 0 0 1.72-.45c-.12-.2-.32-.43-.54-.6a4.19 4.19 0 0 0 1.65-.4 2.6 2.6 0 0 0-.6-.66c1.32-.37 1.34-1.03 1.35-1.55Z"/><path fill="#375E74" d="M205.18 223.62a11.6 11.6 0 0 0-12.76-.34c.46.36.73.74.8 1.14.06.34.1.76-.1 1.37-.21.64-.33 1.3.15 1.97.47.68 1.08.96 1.6 1.06.7-.12 1.42-.21 2.14-.27.1-.31.38-.58.66-.8.42-.33.33-.6.23-.83a.91.91 0 0 0-.44-.42c-.19-.1-.87-.17-.85.27a.76.76 0 0 1-.14-.64c.1-.39.72-.48.87-.47-.12-.1-.04-.26.23-.34.33-.1.64-.1.95-.1.62.02.72.17 1.03.45.39.34.9.46 1.09.25-.14.33-.6.5-.89.45.15.45.2.84.25 1.31.02.22.06.58.12.87.84.07 1.68.19 2.4.33.31-.1.63-.27.9-.6.28-.3.52-.7.42-1.69-.03-.27-.17-.98-.15-1.32.05-.76.6-1.25 1.5-1.66Z"/><path fill="#375E74" d="M197.45 225.7c.11.08.18.1.22.09 0 .02.04.04.05.05.02.02.04.04.04.07a5.55 5.55 0 0 1 .63-.22c-.55-.12-.64.05-.94 0Zm16.51 2.27c.69-.3 1-1.07.7-1.73a1.3 1.3 0 0 0-1.74-.65c-.69.3-1 1.07-.71 1.73.29.66 1.07.95 1.75.65Zm-.82-1.87c.55-.24 1.17-.13 1.32.23.16.36-.18.9-.72 1.13-.55.24-1.17.13-1.33-.23-.16-.36.19-.9.73-1.13Zm-.14 3.66-.26-1.04.16-.04.07.3 2.2-.56-.08-.3.16-.03.4 1.56.1-.02.06.2-.6.16-.06-.2.28-.07-.2-.8-.9.23.15.61.26-.06.05.2-.74.19-.06-.2.27-.07-.16-.61-1 .25.06.26-.16.04Zm-30.64-2.78-.1.31 1.42.43c.43.12.65.35.7.72.03.18.02.38-.04.58-.18.6-.63.9-1.15.75l-1.52-.46-.09.29-.16-.05.32-1.05.16.04-.09.29 1.4.42c.38.1.58.1.74-.07a.74.74 0 0 0 .16-.3c.14-.44-.05-.78-.51-.92l-1.4-.42-.1.31-.16-.04.26-.88.16.05Zm2.49.61a.27.27 0 0 1-.35.14.26.26 0 1 1 .35-.14Zm.49-1.12-.1.19-.62-.35.1-.19.25.15a.78.78 0 0 0 .42-.35c.12-.21.08-.44-.1-.54-.15-.08-.32-.04-.7.16-.4.21-.46.24-.61.27a.64.64 0 0 1-.46-.09c-.38-.21-.47-.63-.24-1.05.08-.13.16-.23.28-.32l-.1-.06.1-.19.59.33-.1.19-.24-.14c-.17.1-.26.17-.33.3-.1.17-.05.38.11.47.14.08.27.05.66-.16.2-.1.3-.17.36-.19a.82.82 0 0 1 .74.02c.4.22.5.66.28 1.06a.98.98 0 0 1-.41.42l.12.07Zm1.03-1.78c0 .14-.12.26-.26.26a.25.25 0 0 1-.26-.26c0-.14.12-.26.26-.26s.26.12.26.26Zm6.07-5.05-1.66.86-.08-.15.27-.14-1.04-2-.26.13-.08-.15 1.44-.74-.05-.1.19-.1.28.56-.18.1-.13-.26-.73.38.43.82.56-.29-.13-.23.2-.1.34.69-.18.1-.13-.25-.56.29.45.86.76-.39-.14-.26.19-.1.24.47Zm1.6-.58-1.08.36-.06-.16.29-.1-.71-2.14-.29.1-.05-.16 1.13-.38c.46-.15.86.03 1 .46.13.4-.11.86-.55 1a.98.98 0 0 1-.2.05l-.07-.18c.05 0 .07-.02.1-.03.26-.08.34-.31.23-.64-.11-.35-.31-.49-.58-.4l-.23.07.7 2.1.32-.1.05.15Zm3.19-.87-.17.03-1.38-2.31-.24.04-.57 2.65-.24.04.03.16.8-.14-.03-.16-.3.05.14-.67.94-.16.34.59-.27.04.03.16.94-.16-.02-.16Zm-1.91-.56.22-1.03.53.9-.75.13Zm4.62.56h-.16c-.08 0-.13-.03-.22-.17l-.56-.86c.37-.12.56-.34.56-.7 0-.2-.06-.37-.2-.5-.14-.14-.32-.2-.66-.2h-1.16v.17h.3v2.26h-.3v.16h1.1v-.16h-.3v-1l.1.01.6.93c.13.2.17.23.4.23h.5v-.17Zm-1.6-2.2h.25c.28 0 .44.17.44.49 0 .3-.19.53-.46.53h-.23v-1.03Zm3.37 2.68-1.24-.21.03-.16.37.06.37-2.17-.67-.1-.06.31-.21-.03.1-.66.22.03-.02.11 1.84.31.02-.1.2.03-.1.66-.22-.04.06-.32-.67-.11-.36 2.16.37.07-.03.16Zm3.67 1.24-1.09-.42.06-.16.31.13.61-1.59-1.49 1.46-.2-2.08-.6 1.55.3.12-.06.15-.84-.32.06-.16.3.12.82-2.11-.3-.12.05-.15.65.25.2 2.04 1.43-1.4.73.27-.06.16-.31-.12-.82 2.1.31.13-.06.15Zm1.91 1.25-1.57-1 .09-.15.25.17 1.22-1.91-.26-.16.1-.14 1.35.87.06-.1.18.12-.33.53-.18-.11.15-.24-.68-.44-.5.78.53.34.14-.23.18.11-.42.66-.18-.11.15-.24-.53-.34-.52.82.72.46.15-.24.18.11-.28.44Zm-17.91.11-.26.19-1.27-1.74.27-.2c.37-.27.97-.1 1.31.36.37.5.35 1.1-.05 1.39Zm.5-1.72a1.29 1.29 0 0 0-1.82-.26l-1 .73.1.13.25-.18 1.33 1.82.2.08.64-.49c.31-.22.48-.47.54-.81.06-.36-.03-.72-.24-1.02Zm20.75 1.07-.1.13.22.2-1.1 1.22.27-2.2-.57-.52-.11.12.2.19-.04.23-1.39 1.53-.24-.22-.1.12.65.6.1-.13-.22-.2 1.16-1.27-.25 2.01.77-.2.07-.02.98-1.09.25.22.11-.12-.66-.6Zm2.65 2.86-.1.06-1.12-1.47.09-.07-.13-.17-.53.4.13.18.26-.2.4.54-1.74 1.33-.08-.12-.16.07.65.85.13-.1-.23-.3 1.75-1.33.4.54-.25.2.13.17.53-.41-.13-.17Zm-11.48 26.97-.2.04-.16-.69.21-.04.06.28c.2.1.35.12.53.08.24-.05.38-.23.34-.43-.04-.17-.18-.27-.58-.43a1.88 1.88 0 0 1-.61-.27.67.67 0 0 1-.24-.4c-.1-.42.16-.77.62-.88.15-.03.28-.03.44 0l-.03-.12.2-.04.15.66-.2.04-.06-.26c-.19-.07-.3-.09-.44-.06-.2.05-.32.22-.28.4.03.16.14.23.56.39l.38.14c.1.04.2.11.28.2.1.1.17.22.2.37.1.44-.16.81-.6.91-.23.05-.4.04-.6-.03l.03.14Zm4-1.26-1.75.69-.06-.16.28-.1-.83-2.11-.28.1-.05-.15 1.5-.59-.04-.1.2-.08.23.58-.2.08-.1-.26-.76.3.34.86.58-.23-.1-.25.2-.08.28.72-.2.08-.1-.26-.58.23.36.9.79-.3-.1-.28.2-.07.18.48Zm2.6-1.6a1.9 1.9 0 0 1-.63.58c-.7.43-1.5.26-1.9-.4-.4-.67-.2-1.47.48-1.88.22-.13.38-.19.63-.22l-.08-.14.18-.12.36.6-.18.12-.13-.22c-.28-.02-.4.01-.58.12-.47.28-.56.87-.22 1.43.33.54.94.75 1.4.47.18-.1.28-.22.37-.41l-.15-.25.19-.12.27.45Zm1.19-4.05-.25.23 1 1.09c.3.33.37.63.23.97-.07.18-.19.35-.34.48-.47.43-1 .45-1.37.05l-1.07-1.17-.22.2-.11-.13.81-.74.11.13-.22.2 1 1.08c.26.29.43.37.65.32a.75.75 0 0 0 .3-.17c.34-.31.36-.7.03-1.06l-.98-1.08-.24.22-.11-.13.67-.6.1.11Zm4.4-2.29-.52.97-.14-.08.14-.26-1.99-1.08-.14.26-.14-.08.52-.96.14.08-.14.25 2 1.08.13-.26.15.08Zm1.01-2.35-.45 1.19-.15-.06.13-.36-2.05-.77-.24.63.3.12-.07.2-.62-.24.07-.2.1.04.66-1.74-.1-.04.07-.2.63.23-.08.2-.3-.11-.24.63 2.05.78.13-.36.16.06Zm.7-2.89-.22 1.08-.16-.03.06-.29-1.06-.2-1.31.53-.05.24-.16-.03.21-1.08.16.03-.05.29.95-.38-.75-.68-.06.33-.16-.03.18-.9.16.03-.06.28.93.84 1.16.23.06-.29.16.03Zm-5.37 6.63.15-.2c.16-.23.4-.25.66-.06.25.19.31.46.15.68l-.14.19-.82-.61Zm2.72.03-.1.13c-.04.06-.1.08-.26.07l-1.02-.06c.13-.37.05-.65-.23-.86a.69.69 0 0 0-.52-.15c-.2.03-.35.15-.55.42l-.7.93.14.1.18-.24 1.81 1.35-.18.24.13.1.66-.88-.13-.1-.18.24-.8-.6.07-.08 1.1.08c.24.01.28 0 .42-.2l.3-.4-.14-.1Zm-31.1-4.23-.26-1.07.16-.04.07.29 1-.25-.3-1.23-1 .24.06.29-.15.04-.27-1.07.16-.04.08.29 2.2-.54-.08-.29.16-.04.26 1.07-.16.04-.07-.29-.97.24.3 1.24.98-.24-.08-.28.17-.04.25 1.07-.15.03-.08-.28-2.2.53.08.3-.16.03Zm2.34 2.46c.69-.31.98-1.08.69-1.74a1.31 1.31 0 0 0-1.76-.62 1.32 1.32 0 0 0-.7 1.73c.3.66 1.09.94 1.77.63Zm-.84-1.86c.54-.25 1.16-.15 1.32.21.16.36-.17.9-.7 1.15-.55.24-1.18.14-1.34-.22-.16-.36.17-.9.72-1.14Zm1.84 5.59-.69-.94.14-.1.2.27 1.36-1-2.04.41.95-1.86-1.34.98.2.27-.14.1-.53-.74.13-.1.2.27 1.82-1.33-.2-.27.14-.1.4.57-.92 1.83 1.96-.41.46.63-.14.1-.2-.27-1.82 1.33.2.26-.14.1Zm2.04 2-1.37-1.26.1-.12.23.2 1.53-1.66-.22-.2.11-.12 1.2 1.1.06-.09.16.15-.42.45-.15-.14.19-.2-.6-.56-.63.68.46.43.18-.2.16.14-.52.57-.16-.14.18-.2-.46-.43-.66.72.63.57.2-.2.15.13-.35.39Zm2.34 1.61-1.54-1.03.1-.14.24.17 1.26-1.88-.24-.17.09-.13.9.6-.08.15-.25-.17-1.22 1.83.7.46.15-.24.18.12-.3.43Zm2.83 1.2-.15-.06.15-2.69-.22-.1-1.96 1.87-.22-.1-.07.14.74.34.07-.15-.29-.13.5-.47.87.4-.04.67-.25-.11-.07.15.87.4.07-.16Zm-1.27-1.53.77-.73-.07 1.05-.7-.32Zm3.98 2.46-.27-.06-.88-2.2-.4 1.68.3.07-.03.16-.86-.2.03-.17.32.08.48-2-.08-.23-.27-.07.04-.16.76.19.81 2.05.39-1.6-.3-.07.03-.16.87.2-.04.17-.32-.08-.58 2.4Zm2.45.2c.39.01.67-.08.93-.31.27-.25.43-.58.44-.94a1.29 1.29 0 0 0-1.27-1.34l-1.22-.05v.17h.29l-.08 2.27-.3-.01v.16l1.21.05Zm-.3-2.3.33.01c.47.02.84.53.82 1.1-.02.62-.41 1.08-.9 1.06l-.33-.01.08-2.16Z"/><path fill="#F2F2F2" d="M198.54 239.04h-.12c-.06-.4-.35-.63-.76-.76l-1.75-.55c-1.14-.35-1.71-1.26-1.8-2.4-.1-1.63-.26-4.47-.32-6.29a22 22 0 0 1 4.75-.56 22 22 0 0 1 4.76.56c-.06 1.82-.22 4.67-.33 6.28-.08 1.15-.66 2.06-1.79 2.41l-1.75.55c-.42.13-.7.37-.76.76h-.13Z"/><path fill="#375E74" d="m198.22 234.9-.23-.11-.15-.4-.34-.14-.38-.34-.23.25-.34.08-.18.28-.27.3-.38.19-.25.44-.15.19-.25.2-.14-.15-.15.14-.18.34a2.5 2.5 0 0 1-.19-.86l-.16-2.7c1.25-.27 2.85-.45 4.15-.46v2.96c-.06-.03-.12-.06-.18-.2Zm.18 1.43h-3.73a2.13 2.13 0 0 0 1.33 1.13l1.38.44.37.11c.3.1.5.23.65.38v-2.06m3.94-1.44c.1-.08.22-.18.38-.23l.07-1.11c-.05.02-.09.06-.14.1-.18.15-.4.33-.8.33-.36 0-.6-.15-.79-.27a.79.79 0 0 0-.46-.17c-.2 0-.38.1-.56.22-.2.11-.42.25-.7.25-.28 0-.49-.09-.65-.18v1.05l.1.06c.18.1.32.2.55.2.14 0 .28-.09.45-.19.22-.13.47-.28.8-.28.33 0 .54.13.72.24.17.1.32.2.55.2.21 0 .33-.1.48-.22Zm-3 2.39c-.28 0-.49-.09-.65-.18v1.28c.14-.14.35-.28.65-.37l.37-.11 1.38-.44c.2-.06.37-.14.53-.24a1.57 1.57 0 0 1-.56-.24.79.79 0 0 0-.46-.17c-.2 0-.38.1-.56.22-.2.11-.42.25-.7.25Zm3-4c.13-.1.27-.22.48-.27l.02-.4a22.21 22.21 0 0 0-4.15-.46v1.12l.1.06c.18.1.32.2.55.2.14 0 .28-.1.45-.19.22-.13.47-.28.8-.28.33 0 .54.13.72.24.17.1.32.2.55.2.21 0 .33-.1.48-.22Zm-3.65 2.16v1.1l.1.06c.18.1.32.2.55.2.14 0 .28-.1.45-.19.22-.13.47-.28.8-.28.33 0 .54.13.72.24.17.1.32.2.55.2a.6.6 0 0 0 .4-.16 2.6 2.6 0 0 0 .42-1.37l-.03.02c-.18.15-.4.33-.8.33-.36 0-.6-.15-.79-.26-.15-.1-.28-.18-.46-.18-.2 0-.38.1-.56.22-.2.12-.42.25-.7.25a1.3 1.3 0 0 1-.65-.18Z"/><path fill="#375E74" d="m194.23 232.32-.14-3.05c1.32-.3 3.08-.5 4.45-.5 1.38 0 3.14.2 4.46.5a166 166 0 0 1-.15 3.05c-1.24-.26-2.9-.46-4.3-.46-1.42 0-3.07.2-4.32.46Z"/><path fill="#F2F2F2" d="m195.1 229.99.05-.24-.22-.1.24-.02.03-.24.1.22.22-.05-.17.16.12.2-.2-.11-.17.18Zm1.46-.2-.2-.13-.17.18.06-.24-.22-.1.24-.02.04-.24.08.22.24-.03-.19.15.12.21Zm1.09-.08-.2-.14-.17.16.07-.23-.2-.12h.23l.05-.24.07.23.24-.02-.2.14.1.22Zm1.08-.03-.18-.15-.19.16.09-.23-.2-.13.24.01.06-.23.06.23.24-.01-.2.13.08.22Zm3.1.13-.2.12.12-.2-.18-.17.24.05.1-.22.02.24.23.02-.21.1.05.24-.16-.18Zm-1.18-.23-.18-.15.23.04.09-.23.03.24.24.01-.21.11.06.24-.17-.18-.2.13.11-.21Zm-1.1-.09-.19-.14.24.02.07-.22.05.23h.24l-.2.12.06.23-.17-.16-.2.14.1-.22Zm-4.29 2.26.05-.23-.22-.1.24-.03.03-.23.1.22.22-.05-.17.16.12.2-.21-.12-.16.18Zm1.41-.18-.2-.13-.16.17.06-.23-.21-.11.23-.01.04-.24.09.22.23-.03-.19.15.11.21Zm1.05-.07-.2-.15-.17.17.08-.23-.21-.12h.24l.04-.24.08.23.24-.03-.2.15.1.22Zm1.05-.02-.19-.15-.18.15.09-.23-.2-.13.23.01.06-.23.07.23.23-.01-.2.13.1.23Zm2.98.1-.2.13.11-.21-.17-.16.23.05.1-.22.02.24.24.02-.22.1.05.23-.16-.17Zm-1.14-.21-.19-.16.24.04.08-.22.04.24h.24l-.22.12.06.23-.16-.17-.2.13.1-.21Zm-1.06-.09-.2-.14.24.03.08-.23.05.23h.24l-.21.12.07.23-.18-.16-.2.14.1-.22Zm-3.77-.57.06-.23-.22-.11.24-.02.03-.24.1.23.22-.05-.18.16.12.21-.2-.12-.17.17Zm-1.04.16.05-.23-.22-.1.23-.03.03-.23.1.21.23-.04-.18.16.12.2-.2-.12-.16.19Zm2.45-.3-.2-.14-.17.16.07-.23-.21-.11.24-.01.04-.24.08.23.24-.03-.2.15.11.21Zm1.05-.06-.2-.14-.17.15.07-.22-.2-.13h.24l.05-.23.07.23.24-.02-.2.14.1.22Zm1.04.02-.18-.16-.19.14.1-.22-.2-.14.23.02.07-.23.06.24h.24l-.2.12.07.23Zm2.97.17-.2.12.11-.2-.17-.17.23.05.1-.22.02.24.24.03-.22.1.05.24-.16-.19Zm-1.14-.24-.18-.16.23.04.1-.22.03.24.23.02-.21.1.06.24-.17-.18-.2.13.11-.21Zm-1.05-.11-.19-.15.24.03.07-.22.05.23.24.01-.21.12.06.23-.17-.17-.2.14.1-.22Zm-12.13 5.51c.36-.5 1.02-.6.72-1.94-.75.32-1.1 1.26-.72 1.94Zm-.04-3.35c-.24.1-.58.43-.74.87.26.3.36.65.35.98.46-.42.62-1.15.39-1.85Zm.44 4.64h-.01a1.5 1.5 0 0 0-1.08-.2 4 4 0 0 1 1.09.2Zm1.47 1.63-.01.03c-.01.54.34 1.15-.29 2-.03.1-.07.33.25-.05.63-.75.1-1.36.05-1.98Zm-1.25.85c.05-.34.27-.74.6-1.01.23-.2.36-.26.17-.06-.3.3-.63.8-.77 1.07Zm.72.92c-.13-.32-.02-.83.12-1.16.1-.23.33-.58.4-.61-.26.4-.54 1.46-.52 1.77Zm-1.06-4.43a.23.23 0 0 0-.1-.14.2.2 0 0 0-.07-.04.23.23 0 0 0-.23.1.2.2 0 0 0-.03.08v.09a.22.22 0 0 0 .34.14.23.23 0 0 0 .1-.23Zm1.93.3c.01-.33-.04-.67 0-1.06-.66.48-.89 1.33-.61 1.92a.2.2 0 0 0-.09 0 .23.23 0 0 0-.15.1.23.23 0 1 0 .42.17v-.09a.23.23 0 0 0-.1-.15c-.1-.52-.02-1.17.26-1.45a4.3 4.3 0 0 0-.14 1.65c.1-.13.19-.25.25-.36 0 .1.03.2.07.3.02-.5.19-1 .7-1.34a3.1 3.1 0 0 0-.64 1.48c.28-.35.91-.46.96-1.84-.32.1-.7.33-.93.67Zm.44 1.43a.24.24 0 0 0-.28-.2.23.23 0 0 0-.16.1.23.23 0 0 0-.03.2c.02.12.15.2.28.18a.24.24 0 0 0 .19-.28Zm-.08.72a.24.24 0 0 0-.29-.19.24.24 0 0 0-.15.1.24.24 0 1 0 .44.09Z"/><path fill="#F2F2F2" d="M189.1 235.02c-.48.41-.62.92-.57 1.37a.18.18 0 0 0-.12.03.2.2 0 0 0-.08.12v.08a.19.19 0 0 0 .28.12c.04.12.1.24.18.35a2.9 2.9 0 0 1-.1-.49v-.07c-.03-.38.03-.78.24-1.07a6.12 6.12 0 0 0-.07 1.73c.15-.53.92-.77.24-2.17Zm1.96 3.15a.19.19 0 0 0-.08-.12c-.04-.03-.1-.04-.14-.03a.2.2 0 0 0-.12.08.19.19 0 0 0-.03.14c.02.1.12.17.22.15.05 0 .1-.04.12-.08.03-.04.04-.1.03-.14Zm-1.04-.03a.17.17 0 0 0-.04-.1.17.17 0 0 0-.26.03.17.17 0 0 0 0 .2.17.17 0 0 0 .3-.13Zm-2.35-2.38a.16.16 0 0 0-.06-.09.16.16 0 0 0-.1-.04 1.63 1.63 0 0 0-1.17-.73c.32.14.8.44 1.13.74a.16.16 0 0 0-.12.18.16.16 0 0 0 .19.13c.04 0 .08-.03.1-.07a.16.16 0 0 0 .03-.12Zm0-1.1a.19.19 0 0 0-.03-.07.21.21 0 0 0-.05-.06.21.21 0 0 0-.15-.03l-.02.01c-.13-.51-.26-.91-.84-1.32.3.38.63.93.82 1.33a.2.2 0 0 0-.1.09.2.2 0 0 0 0 .2.2.2 0 0 0 .14.1h.08a.2.2 0 0 0 .12-.1c.03-.04.05-.1.03-.15Zm.6 2.03a.16.16 0 0 0-.29-.07c-.51-.46-.87-.46-1.14-.47.16.06.75.22 1.13.5a.16.16 0 0 0 .05.2c.03.02.07.03.12.02l.05-.02a.17.17 0 0 0 .05-.04.17.17 0 0 0 .02-.06v-.06Zm.43.64a.23.23 0 0 0-.42-.08.24.24 0 0 0-.03.17.23.23 0 0 0 .1.15.23.23 0 0 0 .17.03c.13-.02.2-.15.18-.27Zm.33.4a.16.16 0 0 0-.18-.13c-.05 0-.1.04-.12.09a2.2 2.2 0 0 0-1.35.23c.46-.1.94-.2 1.34-.2v.06a.16.16 0 0 0 .24.1.16.16 0 0 0 .07-.16Zm.47.27a.21.21 0 0 0-.03-.08.2.2 0 0 0-.13-.09.2.2 0 0 0-.25.24h-.02c-.33 0-.88.08-1.22.48.35-.2.9-.41 1.23-.46h.01c.02.05.05.1.1.12.04.03.1.04.14.03.06-.01.1-.04.14-.09.03-.04.04-.1.03-.15Zm2.91 1.04a4.2 4.2 0 0 1 1.63 2.5c-.12-.08-.35-.17-.48-.14a3.2 3.2 0 0 0-1.26-2.08.87.87 0 0 1 .11-.28Zm-.72.75c.22.08.34.05.4-.03.11-.17.06-.4-.02-.44a.6.6 0 0 1 0 .23c-.02.06-.05.17-.17.16a.7.7 0 0 1-.27-.09c-.05-.03-.05-.12-.02-.2.02-.04.03-.1.08-.13-.08.02-.12.06-.19.1-.06.05-.14.06-.2 0a.76.76 0 0 1-.12-.16c-.05-.13.1-.22.2-.26-.16 0-.19.06-.31.03-.13-.02-.17-.22-.17-.29 0-.05.06-.1.14-.12a.7.7 0 0 1 .2 0 .46.46 0 0 1-.01-.11c-.13-.03-.38.01-.43.08-.06.1-.04.14 0 .3.05.15.1.21.2.22.02 0 .07.02.13 0a.14.14 0 0 0-.06.07c-.02.04-.05.11.07.26.1.13.21.18.3.13l.1-.08a.6.6 0 0 0-.04.1c-.03.13.07.18.19.22Z"/><path fill="#F2F2F2" d="M191.52 238.8c.06-.08.22-.1.31-.04a.58.58 0 0 0-.03.4c-.23-.03-.27-.25-.28-.36Zm.35-.01c.13-.01.18-.08.2-.14.03-.07.1-.1.1-.01 0 .1 0 .14-.05.17a.27.27 0 0 1-.25-.02Zm.07.2a.52.52 0 0 1-.08.2l-.12.11c.06.05.15.07.22.07s.07-.01.07-.04a1.4 1.4 0 0 0-.1-.34Zm13.22-.3c.06.1.06.3.03.39.22-.04.26-.25.28-.36a.26.26 0 0 0-.31-.04Zm-.04.02c-.13-.02-.18-.08-.2-.14-.03-.07-.1-.1-.1-.01 0 .1 0 .14.05.16.06.03.15.04.25-.01Zm.01.4a.5.5 0 0 1-.08-.2 1.4 1.4 0 0 0-.1.34c0 .03 0 .04.08.04.07 0 .16-.02.22-.07-.04-.03-.09-.06-.12-.1Z"/><path fill="#F2F2F2" d="m209.03 235.55.23.06-3.41 2.7-.09.06-.01.12.16.01c.08.02.14.07.14.12 0 .07-.04.27-.17.3-.13.01-.15-.05-.31-.06.09.05.24.15.19.27a.66.66 0 0 1-.13.17c-.06.05-.14.04-.2-.01s-.1-.09-.18-.11c.04.04.06.1.07.13.03.08.02.17-.03.2a.73.73 0 0 1-.26.08c-.13.01-.16-.1-.17-.16a.53.53 0 0 1 0-.23c-.07.04-.14.27-.02.44.05.08.17.12.4.04.11-.05.21-.1.2-.22a.56.56 0 0 0-.04-.11c.02.02.04.06.09.08.08.05.19 0 .3-.12.12-.14.1-.21.08-.25a.14.14 0 0 0-.06-.08c.06.02.1.02.14.01.1 0 .14-.06.19-.22.05-.16.07-.2 0-.3-.01-.03-.1-.06-.19-.08l3.39-2.67v.23l.61-.8-.92.4Zm-1.82.83 2.4-3.05.07.23.4-.92-.8.6.23.02-2.17 2.76-.53.79.4-.43Z"/><path fill="#F2F2F2" d="m206.93 237.29.61-.5 2-1.85.03.24.54-.86-.88.48.23.05-2.01 1.86-.52.58Zm2.22-.44-2.82 1.41-.12.1c.03 0 .04.02.05.04l.02.03 2.93-1.47-.04.24.76-.67-1 .21.22.1Zm-4.26 2.99a.3.3 0 0 1-.11-.07l-.5 1.05-.19.06-.6 1.15.3-.09.1.28.56-1.16-.06-.18.5-1.04Z"/><path fill="#F2F2F2" d="m206.85 237.85.65-.33 1.87-1.22-.01.23.67-.74-.95.32.22.08-2.04 1.34-.4.32Zm-2.2 1.7v-.17l-.68.74-.2.01-.01.02-.93.93h.05l.23-.01.04.23.77-1.02.15-.03.59-.7Zm1.24-1.45.34-.27 3.3-3.6.04.23.47-.89-.84.55.23.02-3.44 3.77-.1.19Zm-2.94 2.46 1.22-.86.35-.38-1.53 1v.01l-.19-.04-.11.07-.98.61.27.06.04.21.79-.69.14.01Zm-1.02.11.5-.3.45-.31.16.03 1.39-.87.02-.02-1.46.73-.18-.06-1.17.56.26.1.03.14Zm5.53-6.77.23-.04-2.1 4.27a4.39 4.39 0 0 0 .1.08l2.12-4.3.1.22.21-1-.66.77Zm.25.72.24-.01-1.32 2-.44.9.02-.03 1.85-2.8.08.22.32-.96-.75.68Zm49.94 4.31a1 1 0 0 1-1.01 1h-1v-7.44c.1-1.98.82-3.56 3.84-3.67 1.3 0 2.25.53 2.8 1.18.6.77.86 1.74.86 2.96 0 1.26-.3 2.28-.9 3.06a2.8 2.8 0 0 1-2.3 1.13c-1.4 0-2.08-.58-2.27-.7l-.02 2.48Zm3.4-5.88c0-.77-.13-2.42-1.73-2.42-1.5 0-1.67 1.6-1.67 2.42 0 2.08 1.19 2.34 1.74 2.34 1.44 0 1.68-1.54 1.68-2.34h-.01Zm-13 3.24c.66.57 1.69.86 3.03.86 1.3 0 2.32-.27 3.03-.83a3.07 3.07 0 0 0 1.07-2.5c0-.5-.09-.95-.31-1.37a2.37 2.37 0 0 0-1-.96 4.7 4.7 0 0 0-.78-.3l-2.38-.65c-1-.25-1.65-.58-1.65-1.2.06-1.14 1.13-1.23 1.72-1.23.63 0 1.1.12 1.47.38.63.5.56 1.13.56 1.13h2.03c-.01-.92-.4-1.8-1.09-2.41-.63-.57-1.56-.84-2.78-.84a4.7 4.7 0 0 0-2.96.8 2.83 2.83 0 0 0-1 2.3c0 1.25.59 1.98 1.13 2.32.32.2 1.06.5 2.02.68l.8.18c1.4.34 2.2.77 2.16 1.46 0 .42-.15.74-.47.95-.28.2-.78.32-1.4.32a2.8 2.8 0 0 1-1.63-.41c-.38-.24-.6-.65-.69-1.25h-2.08c.06 1.14.47 2 1.2 2.57Zm19.2-5.7c1.27-.02 1.48 1.06 1.5 1.6h-3.01s-.04-1.58 1.5-1.6h.01Zm.1 4.79c-.53-.03-1.5-.13-1.6-1.85h5.17v-.61a4.63 4.63 0 0 0-.96-3 3.58 3.58 0 0 0-2.76-1.06 3.3 3.3 0 0 0-2.65 1.1c-.6.7-.93 1.7-.93 2.98 0 1.32.31 2.35.95 3.06a3.3 3.3 0 0 0 2.66 1.1c.92 0 1.7-.23 2.31-.68a3.26 3.26 0 0 0 1.25-1.9H269c-.25.74-.93.9-1.64.86Zm34.56 1.59h-2.08v-5.1c0-.58-.23-1.37-1.4-1.37-1.13 0-1.38.9-1.38 1.38v5.08h-2.09v-4.67c0-1.35.4-2.18 1.06-2.72.69-.5 1.51-.76 2.36-.75.44 0 .9.05 1.33.15.44.1.85.3 1.2.6.3-.26.66-.45 1.05-.55.43-.12.85-.18 1.28-.2 2.55 0 3.57 1.16 3.65 1.54v6.6h-1.18c-.3 0-1-.2-1-1.01v-4.07c0-.58-.2-1.38-1.4-1.38s-1.4.9-1.4 1.38v5.09Zm-25.3-2.46h1.94s-.51 2.59-3.49 2.59c-2.94 0-3.68-2.37-3.68-3.93s.27-4.22 3.57-4.32a3.37 3.37 0 0 1 3.55 2.59h-2.1s-.2-.9-1.44-.86c-1.23.03-1.56 1.2-1.56 2.3 0 1.1.28 2.5 1.66 2.5 1.31.04 1.44-.67 1.55-.87Zm10.87-5.48h2.07v5.06s-.06 1.36 1.38 1.36a1.3 1.3 0 0 0 1.4-1.3V230s.06-.98.97-.98h1.1v4.7c-.02.26.25 3.38-3.46 3.36-3.7 0-3.44-3.15-3.46-3.33v-4.73Zm-6.4 2.12h1.24v-2.1h-1.22v-1.33c0-.37-.2-1.01-.99-1.01h-1.06v8.76c0 .9.34 1.45 1.12 1.45h.91v-5.77Zm3.43 5.8v-4.1c0-.58.13-1.01.4-1.3.27-.26.7-.41 1.28-.41h.69v-2.12s-1.07-.03-1.86.2a4.4 4.4 0 0 0-1.32.65c-.41.34-.74.77-.94 1.26a4.95 4.95 0 0 0-.33 1.95v3.84h2.07v.03Zm23-6.6v6.6l4.35-3.3"/><defs><clipPath id="a"><path fill="#fff" d="M89.49 153.32h46.63v46.63H89.49z"/></clipPath><clipPath id="b"><path fill="#fff" d="M170.12 158.02h46.63v37.23h-46.63z"/></clipPath><clipPath id="c"><path fill="#fff" d="M0 223.35h62.7v19.6H0z"/></clipPath></defs></svg>