<svg width="353" height="378" fill="none" xmlns="http://www.w3.org/2000/svg"><path fill="#fff" d="M0 0h353v378H0z"/><g clip-path="url(#a)"><path d="M92.7 182.9v-1.2c0 .4.2.8.3 1.1 0 .2.2.2.3.3l1 1 1.8 1 1.8 2.7.8.7-.4-.5.8-.2h-.7c.3-.2.7-.2 1-.3h-1.2c.4-.2.9-.3 1.3-.3.3-.1.6 0 .8 0l-.6-.2h-1l1-.2.8.2-.6-.4h-.7l.7-.2.7.4-.5-.6h-.6l.7-.2.7.6-.5-.8-.6-.1h.7l.6.7-.4-1-.6-.2h.7l.6 1.1c0-.4-.2-.8-.3-1.1l-.2-.2-.6-.2 1 .2c0 .4.2.8.4 1.2 0-.5-.2-1-.3-1.4l-.8-.5 1 .4.4 1.4-.3-1.5-.8-.7 1 .6.4 1.4-.2-1.5-1-.9 1.1.8.3 1.4-.1-1.5-.9-1c.4.2.7.5 1 .9.2.4.2 1 .3 1.4l-.1-1.5-.8-1.2 1 1 .1 1.3v-1.4l-.8-1.1 1 1.1v1-1l-.5-1.3.6 1 .1.7c0-.2.1-.5 0-.8l-.2-1 .4 1 .3-1v1l.6-1-.4 1 1-.8-1 1.6c-.2.2-.5.5-.6.8l-.5 1.6-.2.2-1.2.5-.4.4-1 .1h1l.6.3c.2 0 .3 0 .4.3l.1.3c.2.2.4.3.4.6 0 .2-.2.3-.3.3 0-.2-.1-.5-.3-.3l.1.3-.4-.1h-.9l.6.1-1.7 2 .6-.5v1l.6.6.2.3c0-.2 0-.3-.2-.4h.2l.3.3c0-.2 0-.3-.2-.4l1.6-.3 1 .6c.2.1.2.4.1.6 0 .2-.3.2-.5.2-.6 0-1.2 0-1.9.2l.5-.5-1.2.7-1 .5.6-.7c-.6.5-1.2 1-1.9 1.3-.3.2-.7.4-1 .4-.3 0-.6-.2-.8-.3l-.6-.2c-.1-.1-.1-.4 0-.4l.7-.3.8.4c.2.1.2.3.2.4l-.1-.4-1.4-.8a58.4 58.4 0 0 1 2.4-.6l-.6-.4a20.5 20.5 0 0 1-.2-.4l-.1-.7v.8l-.4.2v-1l-.1 1-.5.1.2-1-.4 1-.5.1.4-1.2-.5 1.2H95.5l.6-1.2-.8 1.3h-.5l.8-1.3-1 1.2-.5.6.2-.3 1.1-1.9 2-.8c.4-.1.7-.5.8-.9l-.3.5-.7.4-.2-.3.3-.3-.7.5-.2-.3 1-.8-1.5.9v-.4l1.2-.9-1.7 1v-.3l1.4-1-1.8 1v-.5l1.4-.8-1.8.8v-.4l1.5-.6-1.8.5v-.5c.5 0 1-.2 1.4-.3l-1.8.2v-.3c.5 0 1 0 1.4-.2h-1.8v-.3h1.4l-2.6-.2.5-.2-1.1-.4h.5l-1-.7h.7l-.7-.8.3.1-.4-.6-.1-.5.4.4.7.5-.6-1v-.6c.1.2.2.5.5.7l.6.6c-.2-.5-.5-.8-.5-1.3l-.1-.8.5 1 1 .8-.7-1v-.3Zm.6.5c.1.4.4.7.6 1 0 .2.2.2.3.3l1.1.4-1.2-.6c-.3-.4-.5-.8-.8-1Zm-.6.5.6 1c.2 0 .4 0 .6.2l.9.2-1.4-.6-.7-.8Zm-.7.4.8 1c.6 0 1.2.2 1.7.4-.5-.3-1-.4-1.6-.6l-.9-.8Zm-.4.4.8 1 2.1.4c-.6-.3-1.3-.4-2-.6l-.9-.8Zm3.3 1v-.2.4l.7-.5-.7.3Zm.2.5a33.4 33.4 0 0 0-.1.2l.9-.6-.8.4Zm-3.3-.4c.3.2.6.4 1 .4.6 0 1.1.2 1.7.3l-2.7-.7Zm3.5.9v-.2.3l.9-.6-1 .5Zm-2.8-.2 1.2.3h1l-2.2-.3Zm3.1.6v-.3.4l1-.6-1 .5Zm.5.3v-.2.4l.8-.6c-.3 0-.6.3-.8.4Zm.5.3a32.6 32.6 0 0 1-.1.2l.7-.5-.6.3Zm.4.3v-.2.4l.5-.4-.5.2Zm2.6 0v.2l.2-.1h-.2Zm.7 0V188.4l.3-.2h-.3Zm-3 .5.4-.3-.3.1v-.1.3Zm3.6-.3v.2l.2-.2h-.2Zm-2 .2h.2v.2l.2-.2H99Zm2.8.1c0 .1.2.2.3 0v-.1l-.1.1c-.1 0 0-.1 0-.2l-.2.2Zm-2 0h.2l-.1.2.3-.2a3 3 0 0 0-.4 0Zm-2 .1v-.1.3l.4-.3a4 4 0 0 0-.4.1Zm2.7 0h.2l-.1.2.3-.2h-.4Zm1.8 0v.2c.2 0 .3.2.4.5 0-.3-.2-.5-.4-.6Zm-4.4.4v-.1.2l.4-.3-.4.2Zm1.3 0h.1v.2l.3-.3h-.4Zm-.7 0h.2v.2l.2-.2h-.4Zm1.4 0 .2.1v.2l.2-.3a6 6 0 0 0-.4 0Zm2 0v.3c0-.2 0-.2.2-.2 0 0-.2-.2-.3 0Zm-1.3.3v.2l.3-.3h-.3Zm-2.6 0v.2l.2-.2H98Zm.6.3h.2v.2c0-.1 0-.2.2-.3h-.4Zm.7 0h.2v.3l.2-.4a4 4 0 0 0-.4.2Zm.7.1h.2v.3c0-.1 0-.3.2-.4l-.4.1Zm.7.2v.1l.2-.2h-.2Zm-2 .3h.2v.2c0-.1 0-.2.2-.3a5 5 0 0 0-.4 0Zm.7.1h.2v.3c0-.2.2-.3.3-.4l-.5.1Zm.8 0 .1.1v.1l.2-.2h-.3Zm-2 .1.1.2.2-.2h-.3Zm.7.3h.2v.3c0-.1 0-.3.2-.4a4 4 0 0 0-.4.1Zm-1 .1v.1h.1c0-.1 0-.1-.1 0Zm1.9 0 .1.1v.2l.2-.3h-.3Zm-1.4.1h.1v.2l.2-.2h-.3Zm.9.3v.1l.2-.2h-.2Zm-2.5 0v.2l.2-.2h-.2Zm.6 0v.2l.2-.2h-.2Zm.6.1v.2l.2-.2H98Zm.7 0v.2l.2-.1h-.2Zm.3.3.2.9c0 .3.4.4.6.7l-.2-.4h.2l.2.3-.1-.3.4-.1c-.2-.1-.4-.3-.7-.3l-.6-.8Zm2.7 1.1c.4 0 .8 0 1.1-.2-.4 0-.8 0-1.1.2Zm-1-.2.3.4c0-.2-.1-.4-.3-.4Zm1 .4h.6c.3 0 .7 0 1-.2l-1.5.2Zm-2.5 0 .3.4c0-.2-.1-.4-.3-.4Zm1.4.3c.3 0 .6 0 .8-.2-.3 0-.6 0-.8.2Zm-2.3.4-.8.3.8-.2.9-.4-1 .3Zm.9 0-1.2.6 1-.4 1.2-.5-1 .4Zm-2.5 1.1 1 .3-.8-.3.3-.2c-.2 0-.4 0-.5.2Z" fill="#fff"/><path d="M42 179h15.8v6.2h-.3l-.7-1.9-1-2.2c-.3-.5-.6-1-1-1.2-.6-.4-1.2-.5-1.8-.6h-1.7v15.4c0 .6.1 1.3.5 1.8.3.6 1 .8 1.5 1h.8v.3h-8.5v-.2c.6-.1 1.1-.2 1.6-.5a2 2 0 0 0 1-1.2c.2-.4.2-1 .2-1.5v-15.1h-2c-.7.1-1.3.4-1.8.9-.6.6-1 1.4-1.4 2.2l-1 2.8h-.3V179ZM109 179a12915.5 12915.5 0 0 0 8.7.2c-.5 0-1.1.2-1.6.5-.4.2-.8.5-1 1-.2.4-.2 1-.2 1.5v13.9c0 .6.3 1.2.8 1.6.5.5 1.3.6 2 .7v.2H109v-.2c.6 0 1.1-.2 1.6-.4a2 2 0 0 0 1.1-1.2c.2-.4.2-.9.2-1.3V181.3c-.2-.6-.4-1-.8-1.4-.6-.5-1.3-.6-2-.7v-.2ZM118.3 179h6.4c.6 1.1 1.3 2 2 3l3.8 4.7 5.5 6.9v-9.8c0-1 0-2-.5-2.9-.2-.5-.6-1-1-1.3-.7-.3-1.3-.3-2-.4v-.2h17.3c1.5.1 3 .4 4.3 1a9 9 0 0 1 4.3 3.8 10.2 10.2 0 0 1-1.2 11.5 9.6 9.6 0 0 1-5.4 3c-1.5.4-3 .3-4.6.3H140v-.2c.4 0 .9 0 1.3-.2.5-.2 1-.5 1.2-1 .3-.5.4-1.1.4-1.7v-12.4c0-1-.2-2.2-.9-3-.6-.7-1.6-1-2.5-1-.7 0-1.4.2-2 .7-.6.5-1 1.3-1.1 2l-.1 2.2v15h-.2l-8.1-10.1-5.4-6.7v9.9c0 1.3.1 2.5.5 3.7.1.6.4 1.2.8 1.6.6.6 1.5.8 2.3 1v.2h-7.2v-.2l1.8-.6c.6-.5 1-1.2 1.3-2 .3-1.2.4-2.5.4-3.8V182c-.7-.8-1.4-1.5-2.2-2.1-.5-.4-1.1-.7-1.8-.8-.1 0-.2 0-.1-.2Zm27.5.2v16.2c0 .5 0 1 .2 1.6.1.5.4 1 .9 1.2.4.2 1 .2 1.5.2 1.3 0 2.5-.2 3.7-.7 1-.5 1.8-1.3 2.4-2.3.7-1 1.1-2.1 1.3-3.3a16.6 16.6 0 0 0-.2-7.5c-.4-1.1-.9-2.1-1.6-3a6.6 6.6 0 0 0-2.5-1.8c-1-.5-2.1-.6-3.2-.6h-2.5ZM160.2 179H176v5.6h-.1l-1-2-.8-1.3c-.4-.6-1-1.1-1.6-1.4-.8-.4-1.6-.6-2.5-.7h-3.7v9.2h2.8c.6-.1 1.2-.2 1.7-.6.5-.3.8-.9 1-1.4.4-.7.6-1.5.8-2.2h.1v8.6h-.1c-.3-.8-.5-1.7-.9-2.4-.2-.6-.6-1.1-1.2-1.4-.7-.3-1.5-.3-2.2-.4h-2v7c0 .6 0 1.2.3 1.8.3.4.6.7 1 .9.7.2 1.3.1 2 .1 1 0 2.2 0 3.2-.6.6-.2 1.2-.7 1.6-1.2.4-.5.8-1 1-1.6l1.1-1.9h.2v5.5h-16.4v-.2c.5 0 1 0 1.5-.3.5-.2.9-.5 1.1-1 .3-.6.3-1.1.3-1.6v-12.9c0-.6 0-1.2-.2-1.8a2 2 0 0 0-.8-1c-.6-.4-1.2-.5-1.8-.6v-.2ZM178.8 179h7.3c1.3 0 2.6 0 3.8.5 1 .4 2 1 2.7 1.9.8.8 1.2 2 1.3 3.2 0 1.4-.4 2.8-1.3 3.9-.7.7-1.5 1.2-2.4 1.6-1.1.5-2.3.6-3.5.6h-1v-.1c1.2 0 2.5-.4 3.3-1.3.9-.9 1.3-2.1 1.5-3.3.1-1.3 0-2.7-.4-3.9-.4-.9-1-1.7-1.7-2.2-.5-.3-1.1-.6-1.7-.7h-2v16c0 .7 0 1.4.4 2 .2.4.7.6 1.1.8l1.8.4v.2h-9.2v-.2c.6 0 1.2-.2 1.8-.5a2 2 0 0 0 1-1.2V182.4c0-.7 0-1.4-.3-2-.4-.6-1-1-1.7-1l-.8-.2v-.2ZM194.6 179h15.7v5.6h-.1l-1.5-2.8c-.5-.9-1.2-1.7-2.2-2a9.6 9.6 0 0 0-3.8-.6h-2.1v9.2h2.3c.6 0 1.1-.1 1.7-.3.5-.2 1-.6 1.2-1 .6-.9.8-2 1-2.9h.2v8.6h-.1c-.3-1-.6-2-1.1-2.9l-1-1-2-.3h-2.2v7c0 .6 0 1.3.4 1.9.3.4.7.7 1.2.9h1.7a7 7 0 0 0 3.6-.8c.9-.5 1.5-1.3 2-2.1l1.4-2.4h.1v5.5h-16.4v-.2l1.5-.3c.6-.2 1-.7 1.2-1.3.2-.5.2-1 .2-1.6v-12.3c0-.7 0-1.4-.2-2a2 2 0 0 0-.8-1.2c-.6-.3-1.2-.4-1.9-.5v-.2ZM212.4 179h6.4c.6 1.1 1.3 2 2 3l4 5 5.3 6.6v-9.1c0-1 0-1.8-.2-2.7l-.6-1.5c-.3-.4-.8-.7-1.3-.9l-1.3-.2-.1-.2h17.3c1.5.1 3 .4 4.3 1a9 9 0 0 1 4.3 4c1.8 3.2 1.6 7.6-.6 10.6a9.3 9.3 0 0 1-4.2 3.2c-1.4.6-3 .8-4.5.8H234v-.2c.5 0 .9 0 1.3-.2.5-.2 1-.5 1.2-1 .3-.5.4-1.1.4-1.7v-12.2c0-1-.1-2.3-.8-3.1-.7-.8-1.7-1-2.7-1a3 3 0 0 0-2.3 1c-.4.5-.6 1.1-.7 1.7l-.1 1.9V199h-.2l-8.3-10.3-5.2-6.5v9.6c.1 1.3.1 2.7.5 4 .2.7.6 1.5 1.2 1.9.5.4 1 .5 1.6.7a2888.8 2888.8 0 0 1-7 .2c0-.2.2-.2.3-.2.6-.2 1.3-.4 1.8-.8.6-.5 1-1.2 1.2-2 .3-1.5.3-3 .3-4.5v-9a12 12 0 0 0-2.3-2.2 5 5 0 0 0-1.8-.7v-.2Zm27.6.2v16.3c0 .6 0 1.2.2 1.8.2.4.5.8 1 1 .5.2 1 .1 1.6.1.9 0 1.8-.1 2.6-.4 1-.4 1.9-1 2.6-1.7.8-1 1.4-2 1.7-3.2.4-1.3.5-2.7.6-4a15 15 0 0 0-.5-4 9 9 0 0 0-1.4-3.1 6.7 6.7 0 0 0-2.5-2 8 8 0 0 0-3.5-.8H240ZM254.3 179H270v5.6h-.1l-1.4-2.8c-.6-.9-1.4-1.7-2.3-2a9.5 9.5 0 0 0-3.6-.6h-2.3v9.2h2.4l1.6-.3c.5-.2 1-.6 1.2-1 .6-.9.8-2 1.1-2.9h.1v8.6h-.1c-.3-1-.5-2-1-2.9l-1.2-1c-.5-.2-1.1-.2-1.7-.3h-2.4v7c0 .6 0 1.3.4 1.8.2.5.7.8 1.1 1h1.8a7 7 0 0 0 3.6-.7c.9-.6 1.6-1.4 2-2.3l1.3-2.1c0-.1 0-.3.2-.3v5.6h-16.4v-.2c.6 0 1.1-.1 1.6-.3.4-.2.8-.6 1-1 .3-.6.3-1.1.3-1.6v-13l-.1-1.7a2 2 0 0 0-1-1c-.5-.4-1.1-.5-1.8-.6v-.2ZM272.1 179h6.5c.5 1 1.2 2 2 3l3.8 4.8 5.5 6.8-.1-9.5c0-.8 0-1.6-.2-2.3-.2-.8-.6-1.6-1.3-2-.6-.5-1.3-.6-2-.6v-.2h7.2v.2c-.4 0-.9 0-1.3.2-.5.2-1 .5-1.3.9a4 4 0 0 0-.7 1.6c-.2 1.3-.1 2.5-.2 3.8V199h-.1l-13.5-16.8v9.8c0 1.4 0 2.8.5 4 .2.8.7 1.5 1.3 1.8.6.3 1.1.5 1.7.6v.2h-7.2v-.2c.5-.1 1-.2 1.6-.5.4-.2.9-.6 1.1-1.1a7 7 0 0 0 .8-2.9v-11.8l-.3-.3a8.3 8.3 0 0 0-2.6-2.2l-1.2-.4v-.2ZM294.5 179h16.4v6.4h-.1l-1.2-3.1c-.4-1-1-1.9-1.7-2.5-.8-.5-1.7-.6-2.5-.6h-1.1v16c0 .5 0 1.1.2 1.7.2.5.6 1 1.1 1.2l1.5.3v.2h-8.8v-.2l1.5-.3c.5-.2.9-.6 1.1-1 .2-.5.3-1.1.3-1.6v-16.3H299c-.8.2-1.5.6-2 1.2a9 9 0 0 0-1.5 2.7l-.8 2c0 .2 0 .3-.2.3V179ZM58.8 179h4.4v8.1c.4-.7 1-1.4 1.8-1.8a4 4 0 0 1 2.4-.7c1 0 2 .4 2.6 1.1.7.7 1 1.7 1.2 2.6v7.5c0 .4 0 .9.4 1.2.3.4.8.4 1.2.6v.2h-6v-.2c.5-.2 1-.2 1.3-.6.2-.3.3-.7.3-1v-5.2c0-.8 0-1.7-.2-2.5-.1-.7-.5-1.3-1-1.6-.8-.4-1.6-.5-2.3-.3-.6.2-1.2.6-1.7 1v8.5c0 .4 0 .9.4 1.2.3.3.8.4 1.2.5v.2h-6v-.2c.4-.2 1-.2 1.3-.6.2-.3.3-.7.3-1.1v-15c0-.3 0-.8-.4-1-.3-.4-.8-.5-1.2-.6v-.3ZM76.7 185.4c.8-.5 1.7-.8 2.7-.8 1 0 2 .2 2.8.7.8.4 1.5 1.2 1.9 2 .3.8.4 1.6.4 2.3h-8c0 1.3 0 2.5.4 3.6a5 5 0 0 0 1.8 2.4 4 4 0 0 0 5.8-1.6l.2.1c-.1.9-.6 1.6-1.1 2.2-.8 1-2 1.6-3.1 1.9-1 .1-2 0-3-.3-.9-.3-1.7-1-2.4-1.7a8.4 8.4 0 0 1-.5-8.7c.5-.9 1.2-1.6 2-2.1Zm2-.4c-.6.2-1.1.7-1.4 1.3-.5 1-.7 2-.8 3h5.2c0-1 0-2.1-.4-3a2 2 0 0 0-1-1.2c-.4-.3-1-.3-1.6 0Z" fill="#110F0D"/><path d="M97.6 179a9 9 0 0 1 7.5 2.9 10 10 0 0 1-2.6 15.7 8.7 8.7 0 0 1-8 .2 9.5 9.5 0 0 1-3.1-2.5 10.1 10.1 0 0 1-1-11.5 9.3 9.3 0 0 1 7.2-4.8Zm-4.9 3.9.1.3.6 1-1-.8-.4-1v.8c.1.5.4.8.6 1.3l-.6-.6-.6-.7.1.5c0 .4.4.7.6 1-.3 0-.5-.2-.7-.4l-.4-.4.1.5.4.6h-.3l.7.7h-.7l1 .6h-.5l1.1.5-.5.2 2.6.2h-1.4v.3h1.8l-1.3.2v.3l1.7-.2-1.4.3v.5l1.8-.5-1.5.6v.4l1.8-.8-1.4.8v.4l1.8-1-1.5 1 .1.4 1.7-1-1.3 1 .1.3 1.5-.9-1 .8.2.3.7-.5-.3.3.2.3.7-.4.3-.5c0 .4-.4.8-.7.9l-2 .8c-.5.6-.9 1.3-1.2 1.9l-.2.3.6-.6 1-1.2-1 1.4.6-.1.8-1.3-.6 1.2H96.1l.5-1.2-.4 1.2h.5l.4-1.1-.2 1h.5l.1-1v.9l.4-.2v-.8l.1.7h.1l.1.4c.3 0 .4.2.6.4h-.2c-.7.1-1.5.3-2.2.6l1.4.8c.1 0 .2.3 0 .4v-.4l-1-.4-.6.3c-.1 0-.1.3 0 .4l.6.2.8.3c.3 0 .7-.2 1-.4.7-.3 1.3-.8 2-1.3l-.8.7 1.1-.5 1.2-.7-.5.5 2-.2c.1 0 .3 0 .4-.2.1-.2 0-.5-.1-.6l-1-.6c-.6 0-1.1.2-1.6.3l.2.4a1 1 0 0 0-.3-.4h-.2l.2.5c0-.2-.1-.3-.2-.3l-.6-.5v-1l-.6.4 1.7-2-.6-.1h.9c.1 0 .3.1.4 0l-.1-.2c.2-.2.4.2.3.3.1 0 .3-.1.3-.3 0-.3-.2-.4-.4-.6v-.3c-.2-.2-.3-.3-.5-.3l-.6-.3h-1l1-.1.4-.4 1.2-.5.2-.2.5-1.6.5-.8 1.1-1.6-1 .8.4-1-.7 1v-1c0 .4 0 .7-.2 1l-.4-1 .2 1c.1.3 0 .6 0 .8l-.1-.7-.6-1 .5 1.3v1-1l-1-1.1.7 1.2.1.1v1.2l-.1-1.2-1-1.1.8 1.2v1.5c0-.5 0-1-.2-1.4l-1-1 .9 1 .1 1.6c0-.5-.2-1-.3-1.4l-1-.8.9.9.2 1.5-.4-1.4-1-.6.8.7.3 1.5-.4-1.4-1-.4.8.5.3 1.4-.5-1.2-.9-.2.6.2s.2 0 .2.2l.3 1.1-.6-1h-.7l.6.1.4 1-.6-.8h-.7l.6.2.5.8-.7-.6-.7.2h.6l.5.6-.7-.4-.7.2h.7l.5.4-.6-.2-1 .2h1l.5.3c-.2 0-.5-.2-.8-.1l-1.3.2 1.2.1-1 .2h.7c-.2.2-.5.2-.8.3l.4.5-.8-.7-1.8-2.7-1.7-1-1.1-1c-.1 0-.3-.1-.3-.3l-.4-1 .1 1Z" fill="#ED1B2F"/><path d="m93.3 183.4.8 1 1.2.7c-.4 0-.7-.3-1.1-.4-.1 0-.3 0-.3-.2l-.6-1ZM92.7 184l.7.7 1.4.6-.9-.2-.6-.3-.6-.9ZM92 184.3l.9.8c.5.2 1.1.3 1.6.6l-1.7-.5-.8-1ZM91.6 184.7l1 .8c.6.2 1.3.3 1.9.6a38 38 0 0 1-2-.5l-.9-.9ZM95 185.7l.6-.3-.7.5v-.4.2ZM95 186.2l.9-.4-1 .6.1-.4v.2ZM91.8 185.8l2.7.6-1.7-.2c-.4 0-.7-.2-1-.4ZM95.3 186.7l.9-.5-1 .6v-.3.2ZM92.5 186.5l2.2.3h-1l-1.2-.3ZM95.6 187c.3 0 .6-.3 1-.4l-1 .6v-.4.3ZM96 187.4l.9-.4-.9.6v-.4.2ZM96.6 187.7l.6-.3-.7.5v-.4.2ZM97 188l.5-.2-.6.4v-.4l.1.2ZM99.6 188h.2l-.1.2-.1-.1ZM100.3 188h.3l-.3.3v-.2ZM97.3 188.5v-.3l.1.1.3-.1a3 3 0 0 1-.4.3ZM101 188.2h.1l-.1.2v-.2ZM99 188.4h.3l-.3.2.1-.1-.1-.1ZM101.7 188.5l.1-.2v.2l.2-.1v.2h-.3ZM99.7 188.5h.4l-.3.2v-.2ZM97.7 188.6l.4-.1-.5.3v-.3.1ZM100.4 188.6h.4l-.3.2v-.2ZM102.2 188.7c.2.1.4.3.4.6 0-.3-.2-.4-.4-.5v-.1ZM97.8 189l.4-.2-.4.3a17 17 0 0 1 0-.1ZM99 189l.5-.1-.3.3v-.2h-.1ZM98.4 189h.4l-.3.2v-.1ZM99.8 189h.4l-.3.3.1-.2h-.2ZM101.7 189h.3c-.1 0-.3.1-.3.3v-.3ZM100.5 189.3h.3c-.1 0-.2 0-.3.2v-.2ZM97.9 189.3h.2l-.2.2v-.2ZM98.5 189.6l.4-.1-.3.3v-.2h-.1ZM99.2 189.7l.4-.2c0 .2-.2.3-.3.4v-.2h-.1ZM99.9 189.7h.4l-.3.3v-.2h-.1ZM100.6 189.9a53.8 53.8 0 0 1 0 .1v-.1ZM98.6 190.2l.4-.1-.3.3v-.2h-.1ZM99.3 190.3l.5-.1-.3.4v-.2h-.2ZM100.1 190.3h.3l-.2.2v-.1ZM98.1 190.4h.3l-.2.2v-.2ZM98.8 190.7h.4l-.3.3v-.2h-.1ZM97.8 190.8h.1s0 .2-.1.1ZM99.7 190.9h.3s-.2 0-.2.2v-.2h-.1ZM98.3 191h.3l-.3.1.1-.1h-.1ZM99.2 191.2h.2l-.1.1-.1-.1ZM96.7 191.2h.2l-.2.2v-.2ZM97.3 191.2ZM98 191.3h.1l-.1.2v-.2ZM98.6 191.3h.2l-.2.2v-.2ZM99 191.6l.5.8c.3 0 .5.2.7.3h-.4l.1.4-.2-.3h-.2l.2.4c-.2-.3-.5-.4-.6-.7l-.2-.9ZM101.6 192.7c.3-.2.7-.2 1.1-.2l-1.1.2ZM100.6 192.5c.2 0 .3.2.3.4l-.3-.4ZM101.7 193l1.5-.3-1 .2h-.5ZM99 193c.3 0 .4.1.4.3l-.3-.4ZM100.5 193.2l.8-.2-.8.2ZM98.2 193.6l.9-.3-.9.4-.8.2.8-.3ZM99 193.7l1.1-.4-1.2.5-1 .4 1.2-.5ZM96.6 194.7c0-.2.3-.1.5-.2l-.3.2.7.3-1-.3Z" fill="#E41C29"/></g><defs><clipPath id="a"><path fill="#fff" transform="translate(42 179)" d="M0 0h269v20H0z"/></clipPath></defs></svg>