<svg xmlns="http://www.w3.org/2000/svg" fill="none" viewBox="0 0 373 29"><g clip-path="url(#a)"><path fill="#fff" d="M70.36 5.92c-.06-.53-.13-1.06-.17-1.6.2.51.36 1.03.54 1.53.05.2.21.31.35.44.52.49 1.02 1 1.54 1.47.77.47 1.6.84 2.36 1.32.87 1.23 1.69 2.5 2.55 3.74.33.34.7.65 1.06.95-.14-.23-.3-.44-.46-.65.35-.1.71-.18 1.06-.31l-.97-.07c.46-.13.93-.18 1.4-.3-.57-.07-1.15-.07-1.71-.17l1.87-.33c.38-.09.74.12 1.12.17-.28-.15-.56-.31-.85-.42-.44-.01-.88.03-1.32.02.46-.12.93-.21 1.4-.29.32.06.6.22.92.3-.26-.19-.52-.38-.8-.54-.32-.06-.65-.03-.98-.07.36-.07.72-.15 1.08-.18.32.12.62.32.94.44a11.5 11.5 0 0 0-.75-.75c-.28-.06-.59 0-.88-.03.34-.12.7-.18 1.04-.26.3.26.6.53.9.77-.21-.36-.45-.72-.68-1.08-.26-.05-.51-.1-.77-.17l.96-.06c.3.36.57.75.88 1.1l-.6-1.38c-.29-.1-.57-.19-.84-.3.35 0 .7.05 1.05.07.27.48.52.98.8 1.45-.14-.54-.31-1.07-.48-1.61-.02-.12-.14-.13-.21-.17-.29-.1-.58-.2-.85-.33.42.05.83.15 1.25.22.24.58.44 1.18.7 1.75-.13-.66-.3-1.3-.44-1.95-.36-.23-.74-.42-1.07-.68.43.15.86.35 1.29.52.22.64.4 1.3.64 1.94-.11-.71-.26-1.42-.38-2.13-.4-.32-.82-.6-1.19-.94.48.25.93.54 1.4.8.19.68.33 1.37.56 2.04-.1-.72-.21-1.44-.34-2.16-.37-.44-.84-.78-1.23-1.22.5.33.97.7 1.46 1.05.14.7.29 1.38.41 2.08 0-.74-.1-1.47-.18-2.2-.39-.51-.84-.96-1.24-1.46.5.42 1 .85 1.45 1.32.15.65.19 1.33.35 1.99-.02-.71-.09-1.42-.13-2.12-.4-.55-.8-1.08-1.17-1.64.48.5.93 1 1.38 1.53.1.54.15 1.1.22 1.65h.04c-.03-.52-.04-1.05-.06-1.58 0-.1-.02-.2-.07-.27-.33-.56-.69-1.1-1-1.66.43.53.83 1.1 1.23 1.65.11.42.1.86.21 1.28-.01-.46-.01-.92-.06-1.37-.23-.6-.52-1.18-.74-1.79.3.47.55.98.83 1.47.2.28.15.64.23.97.03-.38.1-.77 0-1.13-.12-.48-.24-.96-.34-1.45.22.48.38 1 .59 1.48.13-.47.22-.95.34-1.42.04.47-.06.94-.06 1.4.33-.45.6-.97.96-1.42-.2.45-.42.89-.61 1.34.5-.35.96-.75 1.46-1.09l-1.51 2.17c-.25.4-.6.74-.74 1.2l-.77 2.23a.54.54 0 0 1-.28.33c-.53.24-1.06.45-1.6.68-.21.1-.35.32-.54.46-.5.1-1 .1-1.48.21.5.06.99-.01 1.48.04.28.08.54.22.82.33.22.1.46.17.6.39.1.13.1.3.12.45.2.26.54.49.5.87-.01.27-.26.4-.46.5.15-.28-.11-.8-.41-.53l.25.45a.73.73 0 0 1-.6-.16h-1.2c.24.08.49.12.73.17-.74.96-1.53 1.9-2.27 2.86.3-.22.53-.49.8-.73.01.49-.07.97 0 1.45.25.24.5.48.78.7.14.1.21.26.3.41a.6.6 0 0 0-.23-.53l.24-.06c.16.13.27.3.38.49 0-.22-.06-.46-.28-.52.74-.13 1.46-.33 2.2-.46l1.44.9c.23.15.36.51.2.77-.15.25-.46.3-.71.3-.88.02-1.75.12-2.61.27.22-.22.45-.42.66-.66-.54.37-1.07.74-1.65 1.01-.52.23-1.03.46-1.54.71.32-.34.67-.65.97-1.01-.85.66-1.67 1.4-2.66 1.82-.47.2-.91.54-1.43.5-.4-.06-.75-.25-1.12-.38-.25-.1-.51-.17-.73-.31-.19-.14-.2-.48 0-.6.28-.14.58-.2.87-.3l1.23.57c.19.1.2.34.2.54a.5.5 0 0 0-.2-.64c-.6-.38-1.22-.74-1.83-1.12 1-.32 1.99-.64 3-.92l.3.12c-.25-.23-.48-.49-.8-.61l-.14-.4-.17-.09-.21-.96c0 .35.04.7.06 1.03l-.52.32c0-.44.01-.88-.01-1.32-.09.46-.11.93-.17 1.39l-.7.14c.07-.5.17-1 .23-1.5-.19.5-.3 1.02-.46 1.53l-.69.05c.16-.55.37-1.08.5-1.64-.27.51-.48 1.06-.74 1.58-.03.1-.15.07-.22.09l-.48.03c.26-.57.54-1.12.79-1.7-.4.57-.74 1.16-1.12 1.73l-.72.12c.39-.62.8-1.22 1.17-1.86-.48.53-.9 1.11-1.36 1.66-.23.27-.43.59-.7.81-.05-.17.08-.3.15-.43.54-.87 1.04-1.76 1.6-2.62.94-.41 1.92-.76 2.87-1.17.5-.16.92-.61.94-1.18-.1.24-.17.5-.36.68-.28.29-.67.36-1.02.5l-.17-.37c.13-.12.25-.24.37-.38-.33.2-.65.43-.98.64l-.22-.47c.43-.36.89-.66 1.3-1.05-.68.4-1.33.84-1.99 1.25l-.17-.5c.6-.45 1.24-.85 1.83-1.32-.8.43-1.58.92-2.37 1.37l-.12-.46c.68-.47 1.37-.9 2.03-1.39-.84.41-1.65.9-2.49 1.33l-.06-.56 2.03-1.16c-.85.31-1.68.73-2.52 1.1l-.02-.54c.68-.3 1.38-.55 2.05-.88-.83.2-1.65.48-2.49.71l.03-.58c.64-.17 1.29-.3 1.92-.5-.82.11-1.63.24-2.45.36l.07-.51c.6-.09 1.21-.1 1.8-.23-.83 0-1.66.03-2.5.03l.05-.42c.66 0 1.32 0 1.98-.02-1.19-.16-2.4-.2-3.59-.31.2-.1.42-.17.63-.25-.5-.23-1.03-.4-1.53-.64l.66-.06c-.43-.31-.9-.58-1.32-.9l.96.05c-.34-.37-.72-.7-1.05-1.07l.53.1c-.18-.3-.46-.53-.56-.88l-.24-.73c.2.2.33.46.54.65.34.22.68.43 1.03.62-.26-.49-.7-.9-.77-1.47l-.17-.81c.28.36.45.82.81 1.1.29.23.56.49.84.72-.22-.59-.69-1.09-.72-1.75-.04-.35-.11-.7-.13-1.06.25.42.4.9.67 1.32.43.4.87.78 1.32 1.15-.27-.5-.58-.99-.86-1.48-.08-.12-.08-.27-.1-.4Zm.72.76c.26.51.57 1 .85 1.5.08.2.29.23.45.3.52.2 1.02.45 1.54.62-.55-.38-1.18-.6-1.75-.95-.38-.47-.68-1.02-1.09-1.47Zm-.8.73c.25.43.54.84.83 1.24.28.15.6.22.88.33.4.13.78.3 1.18.4-.6-.34-1.25-.55-1.87-.86-.37-.34-.65-.78-1.03-1.1Zm-.9.48c.33.45.68.9 1.05 1.31.8.23 1.61.47 2.43.65-.74-.34-1.55-.52-2.3-.84-.41-.35-.75-.8-1.18-1.12Zm-.57.65c.35.45.75.85 1.14 1.25.95.23 1.9.46 2.85.64-.89-.33-1.82-.52-2.72-.83-.44-.33-.82-.74-1.27-1.06Zm4.6 1.38-.09-.3v.52c.33-.23.69-.43 1-.7-.32.13-.6.32-.91.48Zm.15.72a41 41 0 0 0-.07-.3c-.03.17-.03.34-.03.52.43-.29.88-.54 1.29-.87-.41.2-.8.43-1.19.65ZM69 10.09c.46.23.95.44 1.46.5l2.3.37.01-.06c-1.26-.26-2.5-.57-3.77-.8Zm4.89 1.18-.04-.23h-.05v.44c.45-.3.93-.57 1.35-.93-.43.22-.84.48-1.26.72Zm-3.86-.3c.51.23 1.05.4 1.6.41.48.02.95.15 1.42.1-1-.19-2-.36-3.02-.5Zm4.35.83-.08-.31c-.03.17-.03.35-.02.53.45-.3.91-.56 1.34-.9-.43.2-.83.45-1.24.68Zm.61.46-.08-.31a9 9 0 0 0-.02.53c.4-.27.82-.51 1.2-.82-.38.18-.73.4-1.1.6Zm.65.44-.07-.32-.03.54c.34-.23.7-.42 1.01-.7-.31.14-.6.32-.9.48Zm.65.42-.1-.28v.5c.26-.17.53-.34.77-.55-.23.1-.45.21-.67.33Zm3.57.08c0 .07.03.15.08.2a.34.34 0 0 0 .19-.17c-.04-.1-.2-.08-.27-.03Zm.92 0 .17.09-.07.2.35-.31c-.15 0-.3 0-.45.02Zm-4.07.56c.2-.13.4-.26.59-.42l-.48.21-.07-.22-.04.43Zm5-.4c.02.06.03.18.04.25l.25-.21-.28-.05Zm-2.74.25.2.13a9.2 9.2 0 0 0-.1.23l.42-.35-.52-.01Zm3.85.21c.01.19.3.24.37.07.03-.07.01-.15.02-.22l-.17.2c-.17-.02-.06-.21-.06-.32-.08.07-.2.14-.16.27Zm-2.78-.08.2.12-.1.22c.15-.1.29-.22.42-.34a4.1 4.1 0 0 0-.52 0Zm-2.81.27-.09-.22-.02.43c.23-.15.47-.3.68-.47-.2.07-.39.17-.57.26Zm3.77-.07.2.12-.1.23c.15-.11.29-.22.42-.35H81Zm2.52.13-.08.1c.25.19.51.37.58.7.03-.36-.27-.58-.5-.8Zm-6.1.43a7.3 7.3 0 0 0-.05-.14l-.03.35c.18-.13.36-.26.53-.41l-.44.2Zm1.7-.05.26.1-.1.3.46-.5c-.21.02-.42.06-.62.1Zm-.85.09.19.06-.07.21.32-.35-.44.08Zm1.9.07.26.08-.08.29c.15-.16.29-.32.41-.5l-.59.13Zm2.66-.06c-.09.09-.06.22-.02.32.03-.22.2-.29.4-.29-.12-.06-.27-.15-.38-.03Zm-1.77.32.18.09-.05.2.31-.31-.44.02Zm-3.6.12-.02.27.4-.32a.89.89 0 0 1-.38.05Zm.89.32.21.08-.04.22.33-.4-.5.1Zm.91.12.29.05-.04.28c.13-.16.25-.34.37-.53a6.4 6.4 0 0 0-.62.2Zm1 .11.25.05-.06.25.35-.43a7.5 7.5 0 0 0-.54.13Zm1 .17.08.2.2-.24-.29.04Zm-2.78.44.22.05-.04.25.32-.45c-.17.04-.34.1-.5.15Zm1 .23c.1 0 .19.02.28.04l-.03.3.35-.56-.6.21Zm1.1 0 .18.09-.05.19.3-.35-.43.07Zm-2.76.14c.1.06.14.15.15.27.08-.1.17-.19.26-.27h-.41Zm.94.4.22.07-.05.25.34-.44-.5.13Zm-1.45.11a.17.17 0 0 0 .04.2c.09.02.18-.08.2-.16-.05-.08-.17-.07-.24-.04Zm2.66.08.2.07-.06.21.3-.35-.44.07Zm-1.96.07.2.1-.08.2.35-.3H78Zm1.3.37c.02.07.05.14.09.2.06-.08.12-.16.2-.24-.1 0-.2.02-.3.04Zm-3.45 0c.04.09.05.18.02.27l.28-.26h-.3Zm.83 0a.3.3 0 0 1 .03.26l.28-.25h-.31Zm.85.2c-.01.06.02.15.08.2a.31.31 0 0 0 .18-.17c-.04-.1-.2-.08-.26-.04Zm.9.04.07.27.27-.26-.35-.01Zm.49.42c.06.4.11.8.2 1.18.16.44.63.62.82 1.04a.54.54 0 0 0-.27-.54l.28-.04c.15.13.26.3.38.45a.6.6 0 0 0-.25-.5l.6-.15c-.3-.16-.59-.45-.96-.41-.27-.34-.52-.7-.8-1.03Zm3.7 1.48a6.35 6.35 0 0 0 1.56-.32c-.53.03-1.07.1-1.56.32Zm-1.39-.24c.2.14.33.34.46.54.03-.3-.17-.56-.46-.54Zm1.49.56c.25.05.51-.01.77-.05.45-.08.92-.12 1.37-.25-.73-.02-1.44.16-2.14.3Zm-3.6.01c.19.14.32.32.44.51.04-.28-.16-.55-.43-.5Zm1.93.41c.41-.05.84-.13 1.23-.31-.42.03-.86.1-1.23.31Zm-3.16.53c-.36.13-.72.25-1.06.44.38-.05.73-.22 1.1-.33.4-.16.83-.27 1.22-.47-.43.05-.84.22-1.26.36Zm1.22.1c-.56.22-1.14.4-1.66.73.5-.15.97-.37 1.46-.55.56-.23 1.14-.4 1.69-.65-.51.08-1 .3-1.49.46Zm-3.45 1.44c.45.16.88.33 1.33.46-.33-.2-.68-.34-1.03-.5l.44-.27c-.24.1-.58.06-.74.31Z"/><path fill="#110F0D" d="M-.1.54h21.95v8.58l-.37-.02c-.31-.86-.64-1.71-.96-2.57-.41-1.08-.8-2.17-1.39-3.15a5.12 5.12 0 0 0-1.51-1.67 4.88 4.88 0 0 0-2.39-.76C14.47.9 13.7.93 12.93.92v21.6c0 .87.1 1.8.6 2.52.5.74 1.34 1.13 2.17 1.28l1.05.19v.37H5v-.37c.76-.14 1.55-.21 2.24-.6a2.72 2.72 0 0 0 1.37-1.69c.2-.68.22-1.4.21-2.1V.91C7.92.92 7 .88 6.1 1c-.9.12-1.8.49-2.5 1.15a8.9 8.9 0 0 0-1.9 3.18C1.2 6.58.75 7.86.26 9.12h-.35V.53Zm92.91 0h12.21v.2c-.79.17-1.6.3-2.33.71-.54.3-1 .76-1.27 1.35-.32.7-.37 1.48-.37 2.24v16.92c.01.84-.04 1.7.05 2.53.09.82.41 1.63 1.03 2.14.82.7 1.89.88 2.9 1.09v.19H92.8v-.19c.76-.17 1.54-.28 2.24-.65a2.87 2.87 0 0 0 1.49-1.69c.2-.58.24-1.21.25-1.83V6.25c-.02-.86.05-1.72-.1-2.57a3.05 3.05 0 0 0-1.02-1.87c-.8-.7-1.87-.87-2.86-1.07v-.2Zm12.93 0h8.95c.8 1.53 1.84 2.9 2.88 4.25 1.68 2.19 3.42 4.33 5.13 6.5l7.7 9.66-.12-13.68c0-1.37-.06-2.79-.58-4.07a3.45 3.45 0 0 0-1.53-1.79c-.83-.44-1.77-.54-2.67-.67v-.2h19.05c1.65 0 3.3-.03 4.95.02 2.01.1 4.05.46 5.91 1.32a12.48 12.48 0 0 1 5.94 5.34 14.4 14.4 0 0 1 1.65 8.44 13.56 13.56 0 0 1-3.26 7.69 13.3 13.3 0 0 1-7.47 4.2c-2.1.47-4.24.34-6.37.36h-10.16l.03-.18c.57-.13 1.17-.18 1.73-.39a3.1 3.1 0 0 0 1.75-1.36c.39-.7.48-1.54.48-2.34V6.24c-.01-1.46-.24-3.04-1.19-4.15A4.3 4.3 0 0 0 135.1.74c-1 0-2.03.24-2.83.9a4.59 4.59 0 0 0-1.51 2.85c-.19 1-.15 2.02-.15 3.03V28.5h-.25c-3.77-4.7-7.52-9.43-11.29-14.14l-7.43-9.32.1 13.81c.01 1.75.06 3.54.54 5.22.24.82.6 1.62 1.2 2.22.83.86 2 1.14 3.08 1.43v.19h-9.96v-.19c.86-.23 1.75-.43 2.5-.94.92-.6 1.5-1.64 1.8-2.71.5-1.74.53-3.58.52-5.38V4.86a17.93 17.93 0 0 0-2.93-2.95 6.57 6.57 0 0 0-2.56-1.13c-.14 0-.21-.09-.2-.24Zm38.26.2v22.73c0 .75.03 1.5.22 2.23.16.7.58 1.33 1.19 1.66.65.37 1.42.37 2.14.36 1.74.02 3.5-.27 5.08-1.08a8.92 8.92 0 0 0 3.42-3.14c.9-1.4 1.47-3.01 1.81-4.66a23.32 23.32 0 0 0-.37-10.51 12.03 12.03 0 0 0-2.2-4.18 9.17 9.17 0 0 0-3.47-2.58 11 11 0 0 0-4.42-.83H144Zm19.94-.2h21.75v7.74l-.18.01c-.5-.93-.98-1.87-1.46-2.81-.31-.59-.61-1.2-1-1.73a6.29 6.29 0 0 0-2.29-2.03 9.2 9.2 0 0 0-3.35-.89c-1.74-.15-3.48-.07-5.22-.1v12.95c1.31-.04 2.63-.01 3.93-.13a4.9 4.9 0 0 0 2.32-.7 4.48 4.48 0 0 0 1.5-2c.42-.99.7-2.04 1-3.07h.19v12h-.18c-.36-1.14-.66-2.3-1.18-3.38a3.83 3.83 0 0 0-1.73-1.9c-.97-.46-2.07-.47-3.12-.52-.9-.03-1.82-.04-2.73-.06v9.71c.02.9.1 1.82.5 2.62.3.58.82 1.01 1.4 1.22.85.32 1.76.24 2.64.25 1.52 0 3.09-.16 4.5-.82.86-.4 1.63-1 2.26-1.75.57-.66 1.03-1.42 1.45-2.19.5-.89 1-1.76 1.48-2.65.05-.11.13-.16.26-.16v7.76h-22.74l.03-.19c.65-.13 1.32-.18 1.94-.44.7-.27 1.32-.8 1.64-1.52.3-.69.38-1.45.38-2.2V5.6c-.01-.84.05-1.72-.22-2.53a2.7 2.7 0 0 0-1.25-1.55c-.76-.46-1.65-.58-2.49-.79l-.03-.19Zm25.76 0h10.05c1.8-.03 3.63.09 5.34.73a8.7 8.7 0 0 1 3.77 2.55 7.44 7.44 0 0 1 1.74 4.5c.12 1.98-.55 4-1.83 5.43a8.65 8.65 0 0 1-3.24 2.29c-1.57.65-3.27.9-4.95.88h-1.36v-.23c1.7.02 3.46-.53 4.67-1.83a7.89 7.89 0 0 0 1.96-4.55c.2-1.82.1-3.72-.54-5.44a5.95 5.95 0 0 0-4.74-4.02c-.86-.15-1.73-.1-2.6-.11V23.3c.02.87.03 1.78.44 2.56.33.61.94.98 1.55 1.21.79.3 1.6.46 2.42.64v.19H189.7v-.19c.83-.18 1.7-.32 2.45-.77a2.88 2.88 0 0 0 1.32-1.73c.23-.74.2-1.54.2-2.3V5.27c.01-.97-.03-2-.55-2.84a3.69 3.69 0 0 0-2.36-1.47L189.7.74l.01-.2Zm21.93 0h21.75v7.75h-.18c-.68-1.27-1.31-2.56-2-3.81a6.68 6.68 0 0 0-3.1-2.93c-1.65-.72-3.47-.8-5.24-.81h-2.97v12.94c1.09-.03 2.18-.02 3.28-.08a7.91 7.91 0 0 0 2.25-.38c.7-.25 1.3-.76 1.7-1.41.78-1.2 1.08-2.66 1.52-4.02l.17-.03v12.01l-.17.03c-.43-1.36-.77-2.77-1.5-3.98a3.4 3.4 0 0 0-1.51-1.36c-.81-.36-1.7-.4-2.56-.47-1.06-.04-2.12-.04-3.18-.07v9.8c0 .9.11 1.85.56 2.64a2.65 2.65 0 0 0 1.75 1.24c.76.17 1.54.1 2.3.12 1.7-.01 3.47-.22 4.98-1.13a8.18 8.18 0 0 0 2.82-3.05c.64-1.11 1.25-2.24 1.9-3.35l.17-.03v7.75h-22.74l.03-.19c.69-.14 1.4-.2 2.06-.5a2.92 2.92 0 0 0 1.66-1.81c.24-.73.25-1.5.24-2.26V5.92c-.02-.96.08-1.95-.23-2.88a2.69 2.69 0 0 0-1.18-1.48c-.78-.5-1.69-.62-2.55-.83l-.03-.19Zm24.61 0h8.94a30.4 30.4 0 0 0 2.85 4.23c1.78 2.3 3.6 4.56 5.41 6.84l7.44 9.34-.1-12.8c-.02-1.23.01-2.48-.22-3.7a5.3 5.3 0 0 0-.86-2.13 3.4 3.4 0 0 0-1.72-1.2c-.6-.18-1.23-.28-1.85-.36-.13 0-.18-.07-.16-.22h18.8c1.72 0 3.44-.02 5.17.02 2.03.1 4.08.46 5.96 1.32 2.5 1.07 4.68 3 6.03 5.5a14.62 14.62 0 0 1-.93 15 12.95 12.95 0 0 1-5.8 4.46 16.7 16.7 0 0 1-6.23 1.07h-12.73l.02-.19c.6-.12 1.22-.18 1.8-.4a3.05 3.05 0 0 0 1.69-1.36 5 5 0 0 0 .47-2.33V6.56c.01-1.53-.17-3.2-1.14-4.41-.88-1.1-2.31-1.46-3.62-1.4a4.1 4.1 0 0 0-3.3 1.5c-.5.66-.8 1.5-.93 2.33-.14.86-.13 1.74-.13 2.61v21.32l-.3-.04c-3.8-4.8-7.62-9.57-11.44-14.36l-7.23-9.07.1 13.4c0 1.87.01 3.78.52 5.59a4.73 4.73 0 0 0 1.68 2.66c.68.5 1.5.72 2.29.94.15.05.4.03.35.28h-10c-.04-.24.2-.23.34-.27.84-.23 1.72-.47 2.42-1.04a5.1 5.1 0 0 0 1.65-2.88c.51-2.03.42-4.15.43-6.23-.02-4.22.02-8.44-.02-12.65a16.62 16.62 0 0 0-3.12-3.07 6.92 6.92 0 0 0-2.53-1.04v-.2Zm38.24.2v22.82c0 .85.06 1.73.35 2.54.23.62.7 1.13 1.3 1.37.73.31 1.54.24 2.31.25a11.1 11.1 0 0 0 3.65-.63 8.63 8.63 0 0 0 3.55-2.42 11.5 11.5 0 0 0 2.37-4.47c.53-1.83.75-3.75.77-5.66.02-1.88-.15-3.77-.63-5.58a12.56 12.56 0 0 0-1.98-4.32 9.3 9.3 0 0 0-3.38-2.86A11.07 11.07 0 0 0 277.9.74h-3.43Zm19.97-.2h21.73v7.74l-.18.01c-.68-1.26-1.3-2.55-2-3.8a6.66 6.66 0 0 0-3.16-2.97 13 13 0 0 0-4.95-.78h-3.2v12.94c1.1-.03 2.19-.02 3.28-.08a7.85 7.85 0 0 0 2.26-.39c.7-.25 1.3-.76 1.7-1.42.77-1.2 1.07-2.64 1.51-4l.17-.03v12.01l-.17.02c-.43-1.35-.76-2.77-1.5-3.98a3.42 3.42 0 0 0-1.5-1.35c-.78-.34-1.63-.4-2.46-.46-1.1-.05-2.2-.05-3.3-.08v9.79c.01.9.12 1.82.54 2.6a2.6 2.6 0 0 0 1.6 1.24c.82.23 1.67.16 2.5.17a9.74 9.74 0 0 0 4.9-1.1 8.19 8.19 0 0 0 2.91-3.14l1.69-3c.08-.15.15-.36.35-.33v7.76h-22.74l.03-.19c.7-.14 1.44-.2 2.1-.52.65-.27 1.2-.8 1.5-1.46.29-.68.36-1.44.36-2.19V5.44c0-.79.03-1.6-.22-2.35a2.7 2.7 0 0 0-1.28-1.59c-.77-.44-1.64-.57-2.48-.76v-.2Zm24.61 0h8.95c.78 1.47 1.78 2.8 2.78 4.12 1.75 2.27 3.56 4.5 5.34 6.76l7.59 9.53-.11-13.35c-.02-1.08-.1-2.16-.35-3.2a4.65 4.65 0 0 0-1.74-2.87 5.93 5.93 0 0 0-2.7-.8v-.2h9.9v.2c-.6.1-1.2.15-1.78.35-.68.23-1.31.64-1.75 1.24-.52.66-.8 1.49-.98 2.31-.36 1.7-.26 3.47-.28 5.2V28.5h-.25c-6.25-7.81-12.47-15.64-18.72-23.46l.11 13.72c0 1.88.04 3.8.62 5.6a4.4 4.4 0 0 0 1.9 2.53c.7.42 1.51.61 2.3.83v.19h-9.96v-.19c.71-.2 1.45-.37 2.12-.71a3.96 3.96 0 0 0 1.63-1.61 10 10 0 0 0 1-4c.12-2.02.04-4.04.06-6.07V4.87c-.12-.2-.29-.34-.42-.51-1.04-1.2-2.14-2.41-3.57-3.08-.52-.27-1.1-.4-1.66-.55l-.03-.19Zm31.05 0h22.8v8.93l-.18-.03c-.58-1.45-1.08-2.93-1.68-4.37-.56-1.3-1.28-2.59-2.41-3.4-1-.71-2.23-.93-3.4-.93h-1.6v22.33c0 .84 0 1.7.3 2.49a2.9 2.9 0 0 0 1.58 1.65c.66.3 1.39.38 2.1.5v.2H355.4v-.2c.68-.11 1.38-.18 2.03-.47a2.94 2.94 0 0 0 1.55-1.46c.31-.7.39-1.47.39-2.23V.74c-1.03.02-2.06-.07-3.08.14-1.06.2-2.06.75-2.79 1.6a12.52 12.52 0 0 0-2.02 3.82l-1.06 2.81c-.07.16-.1.4-.31.36L350.1.54ZM23.3.54h6.09v11.33a7.85 7.85 0 0 1 2.5-2.6 5.4 5.4 0 0 1 3.3-.93c1.34.05 2.7.55 3.67 1.57a6.42 6.42 0 0 1 1.57 3.67c.12.82.1 1.65.1 2.48v7.97c0 .57.07 1.2.46 1.64.44.53 1.13.66 1.74.84v.37h-8.28v-.37c.6-.17 1.27-.3 1.72-.8.35-.41.47-.99.47-1.52v-7.17c-.01-1.18.08-2.39-.25-3.53a3.73 3.73 0 0 0-1.57-2.23 3.71 3.71 0 0 0-3.08-.33c-.87.26-1.63.79-2.35 1.35v11.83c-.01.62.13 1.3.6 1.72.44.4 1.04.51 1.59.68v.37H23.3v-.37c.61-.18 1.3-.3 1.74-.84.37-.41.46-1 .45-1.55V3.28c.01-.56-.1-1.17-.5-1.58-.45-.49-1.1-.61-1.69-.78V.54Zm24.77 8.89a7.34 7.34 0 0 1 3.77-1.09 7.44 7.44 0 0 1 3.9.93 6.21 6.21 0 0 1 2.62 2.96c.45.99.62 2.09.62 3.18-3.72 0-7.44-.02-11.15 0-.12 1.7.05 3.45.63 5.04a6.93 6.93 0 0 0 2.37 3.3 5.55 5.55 0 0 0 3.7 1 5.43 5.43 0 0 0 4.4-3.2l.33.14a7.43 7.43 0 0 1-1.62 3.09 7.4 7.4 0 0 1-4.29 2.54 8.2 8.2 0 0 1-4.07-.33 7.17 7.17 0 0 1-3.33-2.44 9.8 9.8 0 0 1-1.81-4.34 11.86 11.86 0 0 1 1.14-7.78 8.14 8.14 0 0 1 2.8-3Zm2.83-.51a3.6 3.6 0 0 0-1.96 1.82 12.6 12.6 0 0 0-1.11 4.25H55c0-1.47.05-3-.52-4.38a2.84 2.84 0 0 0-1.28-1.57 3.02 3.02 0 0 0-2.31-.12Z"/><path fill="#ED1B2F" d="M77.15.56c1.94-.18 3.92.1 5.74.84 1.7.7 3.25 1.77 4.54 3.12a14.1 14.1 0 0 1 1.32 17.68 13.47 13.47 0 0 1-4.85 4.4c-3.39 1.84-7.58 2-11.02.25a13.13 13.13 0 0 1-4.42-3.51 14.4 14.4 0 0 1-1.3-16.13 12.94 12.94 0 0 1 10-6.65Zm-6.8 5.36c.02.13.02.28.1.4.28.5.59.98.86 1.48-.45-.37-.89-.76-1.32-1.15-.26-.42-.42-.9-.67-1.32.02.36.09.7.14 1.06.02.66.49 1.16.71 1.75-.28-.23-.55-.49-.84-.72-.36-.28-.53-.74-.8-1.1.04.27.1.54.16.8.07.59.51.99.77 1.48-.35-.2-.7-.4-1.03-.62-.2-.19-.34-.45-.54-.65l.24.73c.1.35.38.58.56.88l-.53-.1c.33.38.7.7 1.05 1.07-.32-.01-.64-.04-.96-.04.43.31.89.58 1.32.89l-.66.06c.5.23 1.03.4 1.53.64l-.63.25c1.2.12 2.4.15 3.6.3-.67.03-1.33.02-2 .03l-.03.42c.83 0 1.66-.04 2.5-.03-.6.13-1.2.14-1.8.23l-.08.5 2.45-.35c-.63.2-1.28.33-1.92.5l-.03.58c.84-.23 1.66-.5 2.5-.7-.68.32-1.38.56-2.06.87l.02.53c.84-.36 1.67-.78 2.52-1.09-.67.4-1.35.78-2.03 1.16l.06.56c.84-.43 1.65-.92 2.5-1.33-.67.48-1.36.92-2.04 1.39l.12.46c.79-.45 1.57-.94 2.37-1.37-.6.47-1.22.87-1.83 1.32l.17.5c.66-.41 1.31-.85 1.98-1.25-.4.39-.86.7-1.3 1.05l.23.47c.33-.21.65-.44.98-.64-.12.14-.24.26-.37.38l.17.37c.35-.14.74-.21 1.02-.5.2-.17.26-.44.36-.68a1.35 1.35 0 0 1-.94 1.18c-.95.41-1.93.76-2.88 1.17-.55.86-1.05 1.75-1.59 2.62-.07.13-.2.26-.15.43.27-.22.47-.54.7-.8.46-.56.88-1.14 1.36-1.67-.37.64-.78 1.24-1.17 1.86l.72-.12c.38-.57.72-1.16 1.12-1.72-.25.57-.53 1.12-.8 1.7l.49-.04c.07-.02.2.02.22-.1.26-.51.47-1.06.75-1.57-.14.56-.35 1.09-.5 1.64l.68-.05c.16-.51.27-1.04.46-1.53-.06.5-.16 1-.23 1.5l.7-.14c.06-.46.08-.93.17-1.4.02.45 0 .89 0 1.33l.53-.32c-.02-.34-.06-.68-.06-1.03.08.32.13.64.2.96l.18.09.14.4c.31.12.55.38.8.6l-.3-.11c-1.01.28-2 .6-3 .92l1.84 1.12c.2.13.3.4.19.64 0-.2-.01-.44-.2-.54-.4-.2-.82-.39-1.23-.58-.29.1-.6.18-.87.32-.2.11-.19.45 0 .59.22.14.48.21.73.31.37.13.73.32 1.12.38.52.04.96-.3 1.43-.5.99-.43 1.81-1.16 2.66-1.82-.3.36-.65.67-.97 1.01.5-.25 1.02-.48 1.54-.7.58-.28 1.11-.65 1.65-1.02-.21.24-.44.44-.66.66a17.5 17.5 0 0 1 2.6-.27c.26 0 .57-.05.72-.3.16-.26.03-.62-.2-.77l-1.44-.9c-.74.13-1.46.33-2.2.46.22.06.29.3.28.52-.1-.18-.22-.36-.38-.49l-.24.06a.6.6 0 0 1 .24.53c-.1-.15-.17-.32-.31-.42-.28-.2-.53-.45-.79-.69-.06-.48.02-.96.01-1.45-.27.24-.5.51-.8.73.74-.97 1.53-1.9 2.27-2.86-.24-.05-.49-.1-.73-.17h1.2c.17.15.38.19.6.16l-.25-.45c.3-.27.56.25.41.52.2-.1.45-.22.47-.5.03-.37-.3-.6-.51-.86-.03-.15-.03-.32-.12-.45-.14-.22-.38-.3-.6-.4-.28-.1-.54-.24-.82-.32-.5-.05-.99.02-1.48-.04.49-.1.99-.11 1.48-.21.19-.14.33-.36.55-.46.53-.23 1.06-.44 1.59-.68a.54.54 0 0 0 .28-.33l.77-2.23c.14-.46.49-.8.74-1.2.5-.72 1.01-1.44 1.5-2.17-.5.34-.96.74-1.45 1.09.19-.45.42-.89.6-1.34-.34.45-.62.97-.95 1.43 0-.47.1-.94.06-1.41-.12.47-.2.95-.34 1.42-.21-.49-.37-1-.59-1.48.1.49.22.97.33 1.45.1.36.04.75 0 1.13-.07-.33-.03-.7-.22-.97-.28-.49-.52-1-.83-1.47.22.6.51 1.18.74 1.79.05.45.05.91.06 1.37-.12-.42-.1-.86-.21-1.28-.4-.56-.8-1.12-1.24-1.65.32.56.68 1.1 1.01 1.66.05.08.07.18.07.27.02.53.03 1.06.06 1.58h-.04c-.07-.55-.12-1.1-.22-1.65A33.4 33.4 0 0 0 83 5.83c.37.56.78 1.1 1.17 1.64.04.7.1 1.4.13 2.12-.16-.66-.2-1.34-.35-2-.45-.46-.95-.9-1.45-1.31.4.5.85.95 1.24 1.45.08.74.18 1.47.18 2.2-.12-.69-.27-1.38-.4-2.07-.5-.35-.97-.72-1.47-1.05.39.44.86.78 1.23 1.22.13.72.24 1.44.34 2.16-.23-.67-.37-1.36-.56-2.04-.47-.26-.92-.55-1.4-.8.37.34.8.62 1.19.94.12.71.27 1.42.38 2.13-.24-.64-.42-1.3-.64-1.94-.43-.17-.86-.37-1.3-.52.34.26.72.45 1.08.68l.45 1.95c-.27-.57-.47-1.17-.71-1.75-.42-.07-.83-.17-1.25-.22.27.13.56.22.85.33.07.04.2.05.2.17.18.54.35 1.07.5 1.61-.3-.47-.54-.97-.81-1.45-.35-.02-.7-.08-1.05-.07.27.11.55.2.83.3.2.46.42.92.6 1.38-.3-.35-.57-.74-.87-1.1l-.96.06c.26.08.51.12.77.17.23.36.47.72.68 1.08-.3-.24-.6-.51-.9-.77-.34.08-.7.14-1.04.26.3.03.6-.03.88.03.26.24.5.5.75.75-.33-.12-.62-.32-.94-.44-.36.03-.72.1-1.08.18.33.04.66.01.98.07.28.16.54.35.8.54-.31-.08-.6-.24-.92-.3a16 16 0 0 0-1.4.29c.44.01.88-.03 1.32-.02.3.11.57.27.85.42-.38-.05-.74-.26-1.12-.17l-1.87.33c.56.1 1.14.1 1.7.18-.46.11-.93.16-1.4.29l.98.07c-.35.13-.7.2-1.06.31.16.21.32.42.46.65-.37-.3-.73-.61-1.06-.95-.86-1.24-1.68-2.51-2.55-3.74-.77-.48-1.6-.85-2.36-1.32-.52-.48-1.02-.98-1.54-1.47-.14-.13-.3-.24-.35-.44-.18-.5-.34-1.02-.54-1.52.04.53.11 1.06.17 1.59Z"/><path fill="#E41C29" d="M71.08 6.68c.41.45.7 1 1.1 1.47.56.35 1.2.57 1.74.95-.52-.17-1.02-.42-1.54-.61-.16-.08-.37-.11-.45-.31-.28-.5-.6-.99-.85-1.5Zm-.81.73c.38.33.66.77 1.03 1.11.62.3 1.27.52 1.87.85-.4-.09-.78-.26-1.18-.39-.29-.11-.6-.18-.88-.33-.3-.4-.58-.8-.84-1.24Zm-.89.48c.43.32.77.77 1.18 1.12.75.32 1.56.5 2.3.84-.82-.18-1.63-.42-2.43-.65a19.4 19.4 0 0 1-1.05-1.31Zm-.57.65c.45.32.83.73 1.27 1.06.9.3 1.83.5 2.72.83-.96-.18-1.9-.4-2.85-.64-.39-.4-.79-.8-1.14-1.25Zm4.6 1.38c.3-.16.6-.35.91-.48-.31.27-.67.47-1 .7v-.53l.09.3Zm.15.72c.4-.22.78-.46 1.19-.65-.4.33-.86.58-1.29.87 0-.18 0-.35.03-.52l.07.3ZM69 10.1c1.26.23 2.51.54 3.77.8l-.01.06-2.3-.37c-.51-.06-1-.27-1.46-.5Zm4.89 1.17c.42-.24.83-.5 1.26-.72-.42.36-.9.62-1.35.93v-.44h.05l.04.23Zm-3.86-.3c1.01.15 2.02.32 3.02.5-.47.06-.94-.07-1.41-.09a4.43 4.43 0 0 1-1.6-.4Zm4.35.83c.41-.23.81-.47 1.24-.67-.43.33-.9.6-1.34.89 0-.18 0-.36.02-.53l.08.31Zm.62.46c.36-.2.71-.42 1.1-.6-.39.3-.8.55-1.21.82a9 9 0 0 1 .02-.53l.08.3Zm.64.44c.3-.16.6-.34.91-.48-.3.28-.67.47-1.01.7 0-.18 0-.36.03-.54l.07.32Zm.65.42c.22-.12.44-.23.67-.33-.24.21-.51.38-.77.55v-.5l.1.28Zm3.57.08c.07-.05.23-.07.27.03a.34.34 0 0 1-.19.16.22.22 0 0 1-.08-.2Zm.92 0 .45-.02-.35.3.07-.2-.17-.08Zm-4.07.56.04-.43.07.22c.16-.07.32-.15.48-.2a4 4 0 0 1-.59.41Zm5.01-.41.28.05-.25.2-.03-.25Zm-2.75.25.52.02a8.2 8.2 0 0 1-.42.35l.1-.23-.2-.13Zm3.85.22c-.04-.13.08-.2.16-.27 0 .1-.11.3.06.32l.17-.2c0 .07.01.15-.02.22-.07.17-.36.12-.37-.07Zm-2.78-.08h.52c-.13.12-.27.24-.42.34l.1-.22-.2-.12Zm-2.81.27c.18-.1.38-.19.57-.26-.21.18-.45.32-.68.47l.02-.43.09.22Zm3.77-.07h.52a6.6 6.6 0 0 1-.41.35l.1-.23-.21-.12Zm2.52.13c.23.22.53.44.5.8-.07-.33-.33-.51-.58-.7l.08-.1Zm-6.09.43.44-.2a4.9 4.9 0 0 1-.53.4l.03-.34.06.14Zm1.69-.05c.2-.04.4-.08.62-.1l-.46.5.1-.3-.26-.1Zm-.85.09.44-.08-.32.35.07-.2c-.05-.02-.14-.06-.2-.07Zm1.9.07c.2-.05.4-.1.6-.13a5.6 5.6 0 0 1-.42.5l.08-.3-.26-.07Zm2.66-.06c.11-.12.26-.03.38.03-.2 0-.37.07-.4.3-.04-.11-.07-.24.02-.33Zm-1.77.32.44-.02-.31.3.05-.2-.18-.08Zm-3.6.12c.13.02.25-.01.37-.05l-.39.32.02-.27Zm.89.32.5-.1-.33.4c0-.06.03-.17.04-.22l-.21-.08Zm.91.12c.2-.08.41-.14.62-.2a5.5 5.5 0 0 1-.37.53l.04-.28-.29-.05Zm1 .11c.18-.05.36-.1.54-.13-.11.15-.23.3-.35.43l.06-.25-.25-.05Zm.99.17.29-.04-.2.25a6.65 6.65 0 0 1-.09-.2Zm-2.77.44c.16-.06.33-.1.5-.15-.1.15-.2.3-.32.45l.04-.25-.22-.05Zm1 .23a7 7 0 0 1 .6-.22c-.1.19-.23.38-.35.55l.03-.3c-.1 0-.19-.02-.28-.04Zm1.1 0 .44-.07-.31.35.05-.2-.18-.08Zm-2.76.14h.4a6.7 6.7 0 0 0-.25.27.36.36 0 0 0-.15-.27Zm.94.41c.17-.05.34-.1.51-.13-.1.15-.22.3-.34.44l.05-.25-.22-.06Zm-1.46.1c.08-.03.2-.04.26.04-.03.08-.12.18-.21.15a.17.17 0 0 1-.04-.19Zm2.67.08.45-.07-.31.35.06-.2-.2-.08Zm-1.96.07h.47l-.35.3.08-.2-.2-.1Zm1.29.37.3-.04c-.08.08-.14.16-.2.25a7.18 7.18 0 0 1-.1-.21Zm-3.44 0 .3.01-.28.26a.41.41 0 0 0-.02-.27Zm.83 0 .31.01-.28.25a.3.3 0 0 0-.03-.26Zm.85.19c.07-.04.22-.06.26.04a.31.31 0 0 1-.18.16.23.23 0 0 1-.08-.2Zm.89.05.35.01-.27.26-.08-.27Zm.5.41c.28.34.53.7.8 1.04.37-.04.65.25.97.4l-.61.16c.16.11.25.3.25.5-.12-.15-.23-.32-.38-.45l-.28.04c.19.11.3.31.27.54-.2-.42-.66-.6-.83-1.04-.08-.39-.13-.78-.19-1.18Zm3.7 1.49a4.65 4.65 0 0 1 1.56-.32c-.5.18-1.04.26-1.56.32Zm-1.39-.24c.3-.02.5.25.46.54a1.8 1.8 0 0 0-.46-.54Zm1.49.56c.7-.14 1.41-.32 2.14-.3-.45.13-.92.17-1.37.25-.26.04-.52.1-.77.05Zm-3.59.01c.27-.04.47.23.43.51a1.6 1.6 0 0 0-.43-.5Zm1.92.41c.37-.2.8-.28 1.23-.31-.4.18-.82.26-1.23.31Zm-3.16.53c.42-.14.83-.3 1.26-.36-.39.2-.82.3-1.23.47-.36.1-.7.28-1.09.33.34-.19.7-.3 1.06-.44Zm1.22.09c.5-.17.98-.38 1.49-.46-.55.26-1.13.42-1.69.65-.49.18-.96.4-1.46.55.52-.32 1.1-.5 1.66-.74Zm-3.45 1.45c.16-.25.5-.22.74-.31-.14.1-.29.18-.44.26.35.17.7.32 1.03.51-.45-.13-.88-.3-1.33-.46Z"/></g><defs><clipPath id="a"><path fill="#fff" d="M0 0h373v28H0z" transform="translate(0 .5)"/></clipPath></defs></svg>