<svg width="330" height="51" viewBox="0 0 330 51" fill="none" xmlns="http://www.w3.org/2000/svg">
<g clip-path="url(#clip0_3063_1078)">
<path d="M11.9173 7.0734H16.4751C16.7102 7.0734 16.8944 7.05451 17.0291 7.01553C17.1625 6.97655 17.2972 6.8797 17.4318 6.7238L17.9102 5.87813C18.0106 5.7423 18.0614 5.63482 18.0614 5.55687C18.0614 5.36317 17.8936 5.26514 17.5582 5.26514H4.91691C4.68187 5.26514 4.49762 5.28522 4.36297 5.32419C4.22951 5.36317 4.09486 5.46002 3.96022 5.61592L3.48187 6.46159C3.38148 6.59742 3.33069 6.70372 3.33069 6.78167C3.33069 6.97655 3.49841 7.0734 3.83502 7.0734H9.47478V22.8234C9.47478 23.271 9.35313 23.6206 9.10982 23.8734C8.86651 24.1262 8.56061 24.2915 8.19092 24.3695L8.14013 24.3978C7.92163 24.4569 7.77872 24.5832 7.71257 24.7769L7.56139 25.2447C7.56139 25.2836 7.55313 25.3214 7.53659 25.3604C7.53659 25.3805 7.53659 25.3994 7.53659 25.4195C7.53659 25.5163 7.56966 25.5848 7.6358 25.6238C7.70313 25.6628 7.78817 25.6817 7.88856 25.6817H13.1764C13.3783 25.6817 13.5212 25.6132 13.6039 25.4773L13.8059 24.9529C13.839 24.875 13.8567 24.8065 13.8567 24.7486C13.8567 24.5738 13.7468 24.4663 13.5295 24.4273C12.874 24.2714 12.4417 24.1014 12.2315 23.9171C12.0224 23.7329 11.9173 23.3679 11.9173 22.8234L11.9173 7.0734Z" fill="black"/>
<path d="M23.6516 8.12341C23.6516 7.65687 23.7744 7.29782 24.0165 7.04506C24.261 6.7923 24.5681 6.6364 24.9366 6.57734L24.9862 6.549C25.2047 6.48994 25.3476 6.36356 25.415 6.16986L25.5662 5.70333C25.5662 5.66435 25.5744 5.62537 25.591 5.5864C25.591 5.56632 25.591 5.54742 25.591 5.52734C25.591 5.43049 25.5579 5.36317 25.4906 5.32419C25.4232 5.28522 25.3394 5.26514 25.239 5.26514H19.95C19.7492 5.26514 19.6063 5.33364 19.5224 5.46947L19.3217 5.99506C19.2874 6.07183 19.2709 6.14034 19.2709 6.19821C19.2709 6.37419 19.3807 6.48049 19.5992 6.51947C20.2536 6.67538 20.6858 6.84545 20.8949 7.02971C21.1051 7.21514 21.2102 7.57892 21.2102 8.12341V22.8234C21.2102 23.271 21.0886 23.6206 20.8453 23.8734C20.6008 24.1262 20.2949 24.2915 19.9264 24.3695L19.8756 24.3978C19.6571 24.4569 19.5142 24.5832 19.4469 24.7769L19.2957 25.2447C19.2957 25.2836 19.2874 25.3214 19.2709 25.3604C19.2709 25.3805 19.2709 25.3994 19.2709 25.4195C19.2709 25.5163 19.3039 25.5848 19.3713 25.6238C19.4386 25.6628 19.5224 25.6817 19.6228 25.6817H24.9106C25.1126 25.6817 25.2543 25.6132 25.3394 25.4773L25.5402 24.9529C25.5744 24.875 25.591 24.8065 25.591 24.7486C25.591 24.5738 25.4823 24.4663 25.2638 24.4273C24.6095 24.2714 24.1772 24.1014 23.9669 23.9171C23.7567 23.7329 23.6516 23.3679 23.6516 22.8234V15.1817H32.2382V22.8234C32.2382 23.271 32.1177 23.6206 31.8732 23.8734C31.6299 24.1262 31.324 24.2915 30.9543 24.3695L30.9036 24.3978C30.6862 24.4569 30.5433 24.5833 30.476 24.777L30.3248 25.2447C30.3248 25.2836 30.3165 25.3214 30.3 25.3604C30.3 25.3805 30.3 25.3994 30.3 25.4195C30.3 25.5163 30.3331 25.5848 30.4004 25.6238C30.4677 25.6628 30.5516 25.6817 30.652 25.6817H35.9398C36.1417 25.6817 36.2835 25.6132 36.3685 25.4773L36.5693 24.9529C36.6024 24.875 36.6201 24.8065 36.6201 24.7486C36.6201 24.5738 36.5114 24.4663 36.2929 24.4273C35.6386 24.2714 35.2063 24.1014 34.9961 23.9171C34.7858 23.7329 34.6807 23.3679 34.6807 22.8234V8.12341C34.6807 7.65687 34.8036 7.29782 35.0457 7.04506C35.289 6.7923 35.5949 6.6364 35.9658 6.57734L36.0154 6.549C36.2339 6.48994 36.3768 6.36356 36.4441 6.16986L36.5941 5.70333C36.5941 5.66435 36.6024 5.62537 36.6201 5.5864C36.6201 5.56632 36.6201 5.54742 36.6201 5.52734C36.6201 5.43049 36.587 5.36317 36.5197 5.32419C36.4524 5.28522 36.3685 5.26514 36.2669 5.26514H30.9791C30.7784 5.26514 30.6354 5.33364 30.5516 5.46947L30.3496 5.99506C30.3165 6.07183 30.3 6.14033 30.3 6.19821C30.3 6.37419 30.4099 6.48049 30.6272 6.51947C31.2827 6.67537 31.7138 6.84545 31.924 7.0297C32.1331 7.21514 32.2382 7.57892 32.2382 8.1234V13.5199H23.6516L23.6516 8.12341Z" fill="black"/>
<path d="M42.8646 6.84073H46.5402C47.0103 6.84073 47.3882 6.98128 47.6729 7.26357C47.9587 7.54467 48.2363 7.90963 48.5044 8.35727C48.6886 8.68798 48.8233 8.85333 48.9071 8.85333C48.9249 8.85333 48.9402 8.85333 48.9579 8.85333C48.9745 8.83325 48.9839 8.8238 48.9839 8.8238L49.4363 8.38561C49.5201 8.28876 49.5615 8.20136 49.5615 8.12341V5.99506C49.5615 5.50844 49.3193 5.26514 48.8315 5.26514H38.9871C38.7851 5.26514 38.6434 5.37262 38.5583 5.5864L38.3575 6.08246C38.3575 6.10136 38.3481 6.13088 38.3315 6.16986C38.3315 6.20884 38.3315 6.22774 38.3315 6.22774C38.3315 6.38364 38.5004 6.50057 38.8359 6.57734C39.3898 6.67537 39.7926 6.85962 40.0441 7.13246C40.2957 7.40411 40.4221 7.81277 40.4221 8.35726V23.6691C40.4221 24.5632 40.5225 25.123 40.7245 25.3462C40.9252 25.5695 41.2701 25.6817 41.7556 25.6817H49.5367C49.8898 25.6817 50.1709 25.6179 50.38 25.4915C50.5902 25.3651 50.6953 25.1856 50.6953 24.9529V22.2978C50.6953 22.1431 50.6445 22.0557 50.5441 22.0356L49.9146 21.8029C49.8473 21.8029 49.7304 21.9482 49.5615 22.2399C49.2437 22.7655 48.8741 23.2073 48.4548 23.5675C48.0343 23.9265 47.4213 24.1073 46.6158 24.1073H44.4C43.813 24.1073 43.4103 23.9419 43.1918 23.6112C42.9733 23.2805 42.8646 22.5411 42.8646 21.3943V15.386H47.85C48.2528 15.386 48.5221 15.2502 48.6567 14.9773L49.0075 14.2486C49.0418 14.1907 49.0595 14.1317 49.0595 14.0738C49.0595 13.899 48.9331 13.8116 48.6803 13.8116H42.8646L42.8646 6.84073Z" fill="black"/>
<path d="M60.1441 9.85373C60.1441 9.12027 60.3272 8.55452 60.6945 8.15767C61.063 7.76082 61.5248 7.51633 62.0835 7.42421L62.159 7.37814C62.4898 7.2872 62.7047 7.08759 62.8063 6.78287L63.0354 6.0494C63.0354 5.98798 63.0472 5.92657 63.0732 5.86633C63.0732 5.83562 63.0732 5.80491 63.0732 5.7742C63.0732 5.62184 63.0224 5.51436 62.9209 5.45294C62.8193 5.39271 62.6929 5.362 62.5394 5.362H54.5504C54.2468 5.362 54.0307 5.4683 53.9031 5.68208L53.5996 6.50767C53.5488 6.62932 53.5228 6.7368 53.5228 6.82893C53.5228 7.10295 53.6882 7.27184 54.0189 7.33208C55.0075 7.57657 55.6606 7.84468 55.9772 8.13523C56.2949 8.4246 56.4531 8.99743 56.4531 9.85373V37.3994C56.4531 38.3467 56.3894 39.2786 56.263 40.1951C56.1354 41.1116 55.9713 41.8298 55.7681 42.3494C55.5909 42.8077 55.3311 43.2211 54.9874 43.5872C54.6461 43.9534 54.2716 44.1979 53.8665 44.3207V46.1998C54.6768 46.1998 55.4504 46.0392 56.1874 45.7179C56.922 45.3979 57.5882 44.8628 58.1835 44.114C58.7799 43.3652 59.2559 42.3341 59.6102 41.0207C59.9657 39.7061 60.1441 38.1175 60.1441 36.2538L60.1441 9.85373Z" fill="black"/>
<path d="M71.3988 8.049H76.2826C76.9086 8.049 77.4106 8.27104 77.7897 8.71396C78.1677 9.15687 78.5362 9.72971 78.8929 10.4325C79.1386 10.9521 79.3181 11.212 79.4291 11.212C79.4515 11.212 79.474 11.212 79.4964 11.212C79.5189 11.1813 79.5283 11.1659 79.5283 11.1659L80.1319 10.4785C80.2429 10.3262 80.2984 10.188 80.2984 10.0663V6.72025C80.2984 5.95608 79.976 5.57458 79.3287 5.57458H66.2444C65.9775 5.57458 65.7873 5.7423 65.6763 6.07892L65.4082 6.85726C65.4082 6.88797 65.3964 6.93403 65.3751 6.99545C65.3751 7.05687 65.3751 7.0864 65.3751 7.0864C65.3751 7.33088 65.5972 7.51514 66.0436 7.63679C66.7795 7.78915 67.3157 8.0797 67.6499 8.50726C67.9842 8.936 68.1519 9.57734 68.1519 10.4325V34.4951C68.1519 35.9006 68.2865 36.7793 68.5535 37.1313C68.8216 37.4821 69.2787 37.6581 69.9259 37.6581H80.2653C80.733 37.6581 81.1074 37.5588 81.3862 37.3604C81.6661 37.162 81.8043 36.8785 81.8043 36.5124V32.3419C81.8043 32.0974 81.7381 31.9592 81.6035 31.9285L80.7673 31.5624C80.6787 31.5624 80.5216 31.7915 80.2984 32.2498C79.8744 33.0742 79.3842 33.7699 78.8267 34.3356C78.2692 34.9002 77.4555 35.1825 76.3842 35.1825H73.4397C72.6578 35.1825 72.1228 34.9238 71.8334 34.4041C71.5429 33.8844 71.3988 32.7234 71.3988 30.9211V21.4781H78.0236C78.5586 21.4781 78.9153 21.2644 79.0937 20.8368L79.5626 19.6911C79.6074 19.599 79.6299 19.5081 79.6299 19.4159C79.6299 19.1407 79.4622 19.0037 79.1279 19.0037H71.3988L71.3988 8.049Z" fill="black"/>
<path d="M89.7684 8.04901H92.7472C94.0192 8.04901 95.0113 8.50019 95.7259 9.40137C96.4393 10.3026 96.8078 11.8226 96.8291 13.9616C96.8291 16.3451 96.3885 18.1486 95.5086 19.3699C94.6275 20.5923 93.483 21.2041 92.0775 21.2041H89.7684V8.04901ZM103.087 36.3293C102.418 35.9006 101.576 34.6403 100.56 32.5474C99.5456 30.4545 98.068 27.1923 96.1263 22.762L95.9598 22.3498C97.1633 21.4025 98.1507 20.127 98.9208 18.5218C99.6909 16.9179 100.076 15.2608 100.076 13.5494C100.053 10.8305 99.4617 8.82144 98.3019 7.52222C97.142 6.22419 95.5133 5.57458 93.4168 5.57458H84.6153C84.3483 5.57458 84.1582 5.7423 84.0472 6.07892L83.779 6.85726C83.779 6.88797 83.7684 6.93403 83.746 6.99545C83.746 7.05687 83.746 7.0864 83.746 7.0864C83.746 7.33088 83.9692 7.51514 84.4145 7.63679C85.1515 7.78915 85.6865 8.0797 86.0208 8.50726C86.3562 8.936 86.5228 9.57734 86.5228 10.4325V33.1664C86.5228 33.8691 86.3621 34.4195 86.0373 34.8164C85.7137 35.2132 85.3074 35.4731 84.8161 35.5959L84.7499 35.642C84.4594 35.7329 84.2704 35.9313 84.1806 36.2372L83.9798 36.9707C83.9798 37.0321 83.9692 37.0923 83.9468 37.1538C83.9468 37.1845 83.9468 37.2152 83.9468 37.2459C83.9468 37.3983 83.9916 37.5057 84.0802 37.566C84.17 37.6274 84.281 37.6581 84.4145 37.6581H91.442C91.7101 37.6581 91.8991 37.5506 92.0102 37.3368L92.2794 36.5124C92.3243 36.3896 92.3456 36.2833 92.3456 36.1912C92.3456 35.916 92.2003 35.7483 91.9109 35.6868C91.0405 35.4423 90.4665 35.1754 90.1865 34.8849C89.909 34.5943 89.7684 34.0215 89.7684 33.1664V23.6786H93.2491L98.3361 36.5585L98.368 36.6033C98.4802 36.9093 98.5983 37.162 98.72 37.3604C98.8428 37.5589 99.0165 37.6581 99.2385 37.6581H103.087V36.3293Z" fill="black"/>
<path d="M108.777 10.0663C108.777 9.33285 108.938 8.76711 109.261 8.37026C109.585 7.97341 109.992 7.72892 110.483 7.63679L110.55 7.59073C110.84 7.49978 111.029 7.30018 111.118 6.99545L111.32 6.26199C111.32 6.20057 111.331 6.13915 111.353 6.07892C111.353 6.04821 111.353 6.0175 111.353 5.98679C111.353 5.83443 111.308 5.72695 111.218 5.66553C111.13 5.60529 111.019 5.57458 110.884 5.57458H103.857C103.59 5.57458 103.401 5.68088 103.288 5.89466L103.02 6.72026C102.975 6.84191 102.953 6.94939 102.953 7.04152C102.953 7.31553 103.099 7.48443 103.389 7.54467C104.259 7.78915 104.833 8.05726 105.112 8.34782C105.391 8.63719 105.53 9.21002 105.53 10.0663V25.4206C105.53 27.2537 105.681 28.9344 105.981 30.4616C106.284 31.9899 106.768 33.334 107.438 34.495C108.106 35.656 109.017 36.5655 110.165 37.2222C111.313 37.8801 112.703 38.2084 114.331 38.2084C115.469 38.2084 116.529 37.9793 117.51 37.521C118.492 37.0627 119.373 36.3293 120.153 35.3206C120.934 34.312 121.548 32.9749 121.994 31.3096C122.44 29.6442 122.663 27.6352 122.663 25.2824V10.0663C122.663 9.33286 122.825 8.76711 123.149 8.37026C123.472 7.97341 123.879 7.72892 124.37 7.6368L124.436 7.59074C124.727 7.49979 124.916 7.30018 125.005 6.99546L125.206 6.26199C125.206 6.20058 125.217 6.13916 125.239 6.07892C125.239 6.04821 125.239 6.01751 125.239 5.9868C125.239 5.83444 125.194 5.72695 125.106 5.66554C125.016 5.6053 124.905 5.57459 124.772 5.57459H118.916C118.648 5.57459 118.457 5.68089 118.346 5.89467L118.079 6.72026C118.035 6.84192 118.012 6.9494 118.012 7.04152C118.012 7.31554 118.156 7.48444 118.447 7.54467C119.317 7.78916 119.891 8.05727 120.17 8.34782C120.449 8.63719 120.588 9.21003 120.588 10.0663V25.3746C120.588 28.6439 120.098 31.0805 119.116 32.6856C118.134 34.2896 116.562 35.0916 114.398 35.0916C113.394 35.0916 112.529 34.8093 111.805 34.2435C111.08 33.6778 110.494 32.9148 110.048 31.9522C109.601 30.9896 109.278 29.9349 109.077 28.7892C108.876 27.6435 108.777 26.4742 108.777 25.2825L108.777 10.0663Z" fill="black"/>
<path d="M139.93 11.5782C139.952 11.5486 139.975 11.5179 139.997 11.4872C140.086 11.3042 140.131 11.166 140.131 11.075V7.68289C140.131 7.28604 140.014 6.96478 139.78 6.72029C139.545 6.47581 139.172 6.21596 138.659 5.94077C137.543 5.33014 136.293 5.02423 134.91 5.02423C133.862 5.02423 132.892 5.26163 131.999 5.73525C131.107 6.20888 130.349 6.8266 129.724 7.59076C129.099 8.35494 128.62 9.18053 128.286 10.0664C127.951 10.9522 127.784 11.8073 127.784 12.6329C127.784 13.5801 127.899 14.4506 128.134 15.2455C128.369 16.0404 128.681 16.7431 129.072 17.3538C129.462 17.9644 129.863 18.4923 130.277 18.9353C130.689 19.3782 131.23 19.9203 131.9 20.5616C132.234 20.8675 132.435 21.066 132.501 21.1581C132.568 21.2195 132.736 21.3872 133.003 21.6624C133.74 22.3652 134.342 22.9605 134.81 23.4494C135.279 23.9384 135.747 24.5266 136.215 25.214C136.684 25.9014 137.058 26.6585 137.336 27.4829C137.615 28.3085 137.754 29.1943 137.754 30.1416C137.711 31.7916 137.281 33.1593 136.467 34.2435C135.652 35.3278 134.587 35.8711 133.271 35.8711C132.423 35.8711 131.665 35.6266 130.995 35.1376C130.326 34.6487 129.835 33.9152 129.522 32.9372C129.278 32.3561 129.032 31.5471 128.788 30.5077C128.564 29.6219 128.374 29.179 128.218 29.179L127.315 29.5912C127.159 29.6833 127.081 29.8971 127.081 30.2325C127.081 30.3246 127.091 30.4475 127.114 30.5998C127.114 30.7829 127.114 30.9058 127.114 30.966V35.4128C127.114 36.0235 127.192 36.4132 127.348 36.5809C127.504 36.7487 128.006 37.0168 128.854 37.3829C130.148 37.9333 131.587 38.2085 133.171 38.2085C134.13 38.2085 135.066 38.0243 135.982 37.6581C136.896 37.292 137.733 36.7333 138.49 35.9857C139.25 35.2369 139.852 34.2967 140.297 33.1664C140.744 32.0361 140.967 30.7522 140.967 29.316C140.901 26.9325 140.426 25.0085 139.545 23.5416C138.664 22.0747 137.186 20.3939 135.111 18.4995C133.661 17.1554 132.607 15.9943 131.949 15.0164C131.291 14.0384 130.962 12.9235 130.962 11.6703C130.962 11.5487 130.962 11.4105 130.962 11.2581C130.984 11.0443 130.995 10.8908 130.995 10.7998C131.13 9.66835 131.554 8.76717 132.267 8.09513C132.98 7.42308 133.773 7.08647 134.643 7.08647C135.423 7.08647 136.065 7.28608 136.566 7.68293C137.068 8.07978 137.486 8.73647 137.822 9.65419C137.889 9.80655 137.934 9.9282 137.956 10.0203C138.223 10.7538 138.451 11.342 138.641 11.7849C138.832 12.2278 138.982 12.4499 139.094 12.4499C139.116 12.4499 139.127 12.4345 139.127 12.4038C139.149 12.4038 139.161 12.4038 139.161 12.4038L139.93 11.5782Z" fill="black"/>
<path d="M150.202 25.4206L154.15 11.5781L158.033 25.4206H150.202ZM166.7 36.2832C166.7 35.9159 166.542 35.6714 166.231 35.5498C165.985 35.4577 165.795 35.3821 165.661 35.3206C164.993 35.1069 164.569 34.8931 164.389 34.6793C164.256 34.5258 164.134 34.312 164.022 34.0368C163.91 33.7616 163.776 33.3494 163.62 32.8002C163.553 32.6159 163.465 32.3266 163.352 31.9285C161.836 26.8876 160.52 22.4336 159.404 18.5679C158.289 14.7034 157.24 10.7998 156.26 6.85733C156.125 6.00221 155.846 5.57465 155.422 5.57465H150.604C150.157 5.57465 149.889 5.72701 149.8 6.03291L149.634 6.67425C149.566 6.79709 149.533 6.91874 149.533 7.04158C149.533 7.19394 149.6 7.31559 149.733 7.40772C149.868 7.49984 150.079 7.60614 150.37 7.72898C150.927 7.94276 151.306 8.17189 151.507 8.41638L151.641 8.55339C151.841 8.79788 152.004 9.05063 152.126 9.30929C152.249 9.56914 152.31 9.89748 152.31 10.2955C152.31 10.6924 152.244 11.1353 152.109 11.6243L145.952 32.8003C145.596 33.8384 145.294 34.5105 145.05 34.8164C144.803 35.1223 144.325 35.3821 143.61 35.5959H143.577C143.086 35.779 142.807 35.9928 142.74 36.2373L142.573 36.8325C142.528 36.9861 142.506 37.1077 142.506 37.1999C142.506 37.5058 142.874 37.6581 143.61 37.6581H148.63C148.808 37.6581 148.942 37.605 149.03 37.4975C149.12 37.3912 149.198 37.2459 149.265 37.0629C149.288 36.9707 149.298 36.9247 149.298 36.9247L149.499 36.4664C149.499 36.4357 149.511 36.3896 149.533 36.3294C149.555 36.2987 149.566 36.268 149.566 36.2373C149.566 36.0542 149.343 35.8404 148.897 35.5959C148.563 35.4128 148.3 35.2286 148.11 35.0455C147.921 34.8625 147.826 34.6026 147.826 34.266C147.826 34.0522 147.86 33.8384 147.927 33.6247L149.566 27.8951H158.735L160.141 33.1664C160.252 33.5632 160.307 33.9306 160.307 34.266C160.307 34.6947 160.219 35.0077 160.041 35.2062C159.862 35.4046 159.616 35.5652 159.303 35.6869C158.992 35.8711 158.813 36.0235 158.768 36.1451L158.467 37.0168C158.422 37.1077 158.4 37.1999 158.4 37.292C158.4 37.5365 158.568 37.6581 158.902 37.6581H165.528C165.706 37.6581 165.862 37.6357 165.997 37.5896C166.13 37.5436 166.231 37.4444 166.297 37.292L166.7 36.2832Z" fill="black"/>
<path d="M169.978 36.9706C169.978 37.032 169.967 37.0923 169.945 37.1537C169.945 37.1844 169.945 37.2151 169.945 37.2458C169.945 37.3982 169.989 37.5057 170.078 37.5659C170.167 37.6273 170.279 37.658 170.414 37.658H184.636C185.103 37.658 185.476 37.5588 185.756 37.3604C186.035 37.162 186.175 36.8785 186.175 36.5123V32.3419C186.175 32.0974 186.107 31.9592 185.974 31.9285L185.138 31.5624C185.048 31.5624 184.892 31.7915 184.667 32.2498C184.245 33.0742 183.754 33.7698 183.196 34.3356C182.638 34.9002 181.825 35.1824 180.753 35.1824H177.809C177.028 35.1824 176.493 34.9238 176.202 34.4041C175.912 33.8844 175.768 32.7234 175.768 30.921V10.0663C175.768 9.33285 175.928 8.76711 176.253 8.37026C176.576 7.97341 176.983 7.72892 177.473 7.63679L177.541 7.59073C177.831 7.49978 178.02 7.30018 178.109 6.99545L178.311 6.26199C178.311 6.20057 178.321 6.13915 178.344 6.07892C178.344 6.04821 178.344 6.0175 178.344 5.98679C178.344 5.83443 178.299 5.72695 178.21 5.66553C178.121 5.60529 178.01 5.57458 177.876 5.57458H170.849C170.58 5.57458 170.391 5.68088 170.279 5.89466L170.011 6.72026C169.967 6.84191 169.945 6.94939 169.945 7.04152C169.945 7.31553 170.09 7.48443 170.38 7.54467C171.25 7.78915 171.824 8.05726 172.104 8.34782C172.382 8.63719 172.522 9.21002 172.522 10.0663V33.1663C172.522 33.8691 172.359 34.4195 172.037 34.8163C171.713 35.2132 171.306 35.473 170.815 35.5958L170.748 35.6419C170.459 35.7329 170.269 35.9313 170.179 36.2372L169.978 36.9706Z" fill="black"/>
<path d="M192.399 8.049H197.283C197.909 8.049 198.411 8.27104 198.79 8.71396C199.168 9.15687 199.536 9.72971 199.893 10.4325C200.139 10.9521 200.318 11.212 200.429 11.212C200.452 11.212 200.474 11.212 200.497 11.212C200.519 11.1813 200.528 11.1659 200.528 11.1659L201.132 10.4785C201.243 10.3262 201.299 10.188 201.299 10.0663V6.72025C201.299 5.95608 200.976 5.57458 200.329 5.57458H187.245C186.978 5.57458 186.787 5.7423 186.676 6.07892L186.408 6.85726C186.408 6.88797 186.397 6.93403 186.375 6.99545C186.375 7.05687 186.375 7.0864 186.375 7.0864C186.375 7.33088 186.597 7.51514 187.044 7.63679C187.78 7.78915 188.316 8.0797 188.65 8.50726C188.984 8.936 189.152 9.57734 189.152 10.4325V34.4951C189.152 35.9006 189.287 36.7793 189.554 37.1313C189.822 37.4821 190.279 37.6581 190.926 37.6581H201.265C201.733 37.6581 202.108 37.5588 202.386 37.3604C202.666 37.162 202.804 36.8785 202.804 36.5124V32.3419C202.804 32.0974 202.738 31.9592 202.604 31.9285L201.767 31.5624C201.679 31.5624 201.522 31.7915 201.299 32.2498C200.874 33.0742 200.384 33.7699 199.827 34.3356C199.269 34.9002 198.456 35.1825 197.384 35.1825H194.44C193.658 35.1825 193.123 34.9238 192.834 34.4041C192.543 33.8844 192.399 32.7234 192.399 30.9211V21.4781H199.024C199.559 21.4781 199.915 21.2644 200.094 20.8368L200.563 19.6911C200.608 19.599 200.63 19.5081 200.63 19.4159C200.63 19.1407 200.462 19.0037 200.128 19.0037H192.399L192.399 8.049Z" fill="black"/>
<path d="M230.946 10.4325C230.946 9.57735 231.091 8.96554 231.382 8.5994C231.671 8.23326 232.095 7.97341 232.653 7.81987L232.72 7.77381C233.144 7.62145 233.4 7.40767 233.49 7.13247L233.69 6.30806C233.69 6.24664 233.701 6.18522 233.724 6.12381C233.724 6.06357 233.724 6.01751 233.724 5.9868C233.724 5.7116 233.556 5.57459 233.222 5.57459H229.373C229.106 5.57459 228.855 5.67381 228.62 5.87223C228.386 6.07066 228.169 6.46042 227.968 7.04152L219.336 31.4242L211.204 7.45372C210.914 6.59742 210.663 6.07065 210.451 5.87222C210.239 5.6738 209.854 5.57458 209.296 5.57458H204.846C204.578 5.57458 204.388 5.68088 204.277 5.89466L204.01 6.72025C203.965 6.84191 203.942 6.94939 203.942 7.04151C203.942 7.31553 204.166 7.51514 204.612 7.63679C205.014 7.75963 205.481 8.01829 206.018 8.41632C206.553 8.81317 207.077 9.39427 207.59 10.1573V33.1664C207.59 33.8691 207.428 34.4195 207.104 34.8164C206.781 35.2132 206.374 35.4731 205.883 35.5959L205.816 35.642C205.526 35.7329 205.337 35.9313 205.247 36.2372L205.047 36.9707C205.047 37.0321 205.036 37.0923 205.014 37.1538C205.014 37.1845 205.014 37.2152 205.014 37.2459C205.014 37.3983 205.057 37.5057 205.147 37.566C205.236 37.6274 205.348 37.6581 205.481 37.6581H211.337C211.604 37.6581 211.794 37.5506 211.907 37.3368L212.173 36.5124C212.218 36.3896 212.241 36.2833 212.241 36.1912C212.241 35.916 212.097 35.7483 211.806 35.6868C210.936 35.4423 210.362 35.1754 210.083 34.8849C209.803 34.5943 209.665 34.0215 209.665 33.1664V13.3664H209.731L217.428 36.1912C217.74 37.1691 217.986 37.6581 218.163 37.6581H218.834C219.012 37.6581 219.223 37.3215 219.469 36.6494L227.634 13.3663H227.7V33.1663C227.7 33.8691 227.54 34.4195 227.215 34.8163C226.891 35.2132 226.485 35.473 225.994 35.5959L225.926 35.6419C225.637 35.7329 225.447 35.9313 225.358 36.2372L225.157 36.9707C225.157 37.0321 225.147 37.0923 225.124 37.1537C225.124 37.1844 225.124 37.2152 225.124 37.2459C225.124 37.3982 225.169 37.5057 225.258 37.5659C225.347 37.6274 225.459 37.6581 225.592 37.6581H232.62C232.888 37.6581 233.077 37.5506 233.188 37.3368L233.456 36.5124C233.501 36.3896 233.523 36.2833 233.523 36.1911C233.523 35.9159 233.378 35.7482 233.088 35.6868C232.218 35.4423 231.644 35.1754 231.364 34.8848C231.085 34.5943 230.946 34.0215 230.946 33.1663V10.4325Z" fill="black"/>
<path d="M250.817 7.83874H253.686C255.081 7.83874 256.223 8.38205 257.112 9.4663C258 10.5505 258.446 12.2088 258.446 14.4387C258.446 16.762 257.956 18.6021 256.978 19.9628C255.997 21.3222 254.596 22.0013 252.774 22.0013C252.527 22.0013 252.403 22.0935 252.403 22.2765C252.403 22.3687 252.426 22.475 252.471 22.5978L252.943 23.6513C253.033 23.6513 253.167 23.6513 253.348 23.6513C253.528 23.6513 253.662 23.6513 253.753 23.6513C254.765 23.6513 255.745 23.4529 256.691 23.0561C257.635 22.6592 258.485 22.071 259.238 21.2761C259.993 20.4813 260.589 19.4584 261.028 18.2124C261.467 16.9604 261.697 15.5159 261.72 13.8659C261.72 12.4072 261.528 11.1317 261.146 10.0462C260.764 8.97023 260.246 8.08322 259.593 7.39582C258.941 6.71669 258.198 6.20409 257.365 5.86865C256.532 5.53204 255.667 5.36432 254.765 5.36432H245.618C245.347 5.36432 245.156 5.53204 245.044 5.86865L244.773 6.647C244.773 6.6777 244.763 6.72377 244.74 6.78518C244.74 6.8466 244.74 6.87613 244.74 6.87613C244.74 7.12062 244.965 7.30487 245.416 7.42652C246.159 7.57889 246.697 7.86944 247.035 8.297C247.374 8.72574 247.542 9.36708 247.542 10.2222V32.9561C247.542 33.6589 247.379 34.2092 247.053 34.6061C246.727 35.0029 246.316 35.2628 245.82 35.3856L245.752 35.4317C245.461 35.5226 245.269 35.7211 245.178 36.027L244.976 36.7604C244.976 36.8218 244.965 36.8821 244.943 36.9435C244.943 36.9742 244.943 37.0049 244.943 37.0356C244.943 37.188 244.987 37.2955 245.078 37.3557C245.168 37.4171 245.28 37.4478 245.416 37.4478H252.504C252.774 37.4478 252.965 37.3403 253.079 37.1266L253.348 36.3022C253.393 36.1793 253.415 36.073 253.415 35.9809C253.415 35.7057 253.27 35.538 252.976 35.4766C252.098 35.2321 251.52 34.9652 251.239 34.6746C250.956 34.3841 250.817 33.8112 250.817 32.9561V7.83874Z" fill="black"/>
<path d="M276.335 37.9982C278.091 37.9982 279.745 37.5778 281.298 36.738C282.851 35.897 284.212 34.7053 285.382 33.1628C286.553 31.6191 287.459 29.7931 288.1 27.6848C288.741 25.5766 289.061 23.2699 289.061 20.7648C289.061 18.5644 288.774 16.4939 288.202 14.5533C287.628 12.614 286.817 10.9096 285.771 9.44388C284.724 7.97695 283.498 6.83837 282.092 6.02813C280.685 5.21908 279.16 4.81396 277.517 4.81396C275.581 4.81396 273.82 5.27223 272.234 6.18876C270.648 7.1053 269.303 8.3738 268.2 9.99309C267.098 11.6124 266.253 13.462 265.668 15.5396C265.084 17.6171 264.791 19.7868 264.791 22.0474C264.791 24.523 265.133 26.7612 265.82 28.762C266.507 30.764 267.413 32.4518 268.537 33.8266C269.663 35.2025 270.907 36.2407 272.267 36.9435C273.629 37.6463 274.985 37.9982 276.335 37.9982ZM277.213 35.5226C275.84 35.5226 274.602 35.1565 273.5 34.423C272.397 33.6896 271.463 32.6502 270.699 31.3061C269.933 29.962 269.353 28.3805 268.959 26.5628C268.566 24.7439 268.368 22.7655 268.368 20.6266C268.368 18.6104 268.576 16.7691 268.993 15.1037C269.41 13.4384 270.001 12.0258 270.765 10.8648C271.531 9.70255 272.431 8.81672 273.466 8.20609C274.502 7.59428 275.615 7.28956 276.809 7.28956C279.419 7.28956 281.518 8.5498 283.104 11.0703C284.69 13.5907 285.484 16.9911 285.484 21.2679C285.484 22.9486 285.315 24.6293 284.977 26.31C284.641 27.9907 284.128 29.5261 283.442 30.9163C282.755 32.3065 281.883 33.4226 280.826 34.2624C279.768 35.1021 278.564 35.5226 277.213 35.5226Z" fill="black"/>
<path d="M303.579 11.3678C303.601 11.3383 303.624 11.3076 303.646 11.2769C303.736 11.0938 303.782 10.9556 303.782 10.8647V7.47256C303.782 7.07571 303.663 6.75445 303.428 6.50997C303.192 6.26548 302.815 6.00564 302.296 5.73044C301.171 5.11981 299.91 4.8139 298.516 4.8139C297.457 4.8139 296.479 5.05131 295.578 5.52493C294.678 5.99855 293.914 6.61627 293.283 7.38044C292.654 8.14461 292.169 8.9702 291.832 9.85603C291.494 10.7419 291.326 11.597 291.326 12.4226C291.326 13.3698 291.443 14.2403 291.679 15.0352C291.917 15.83 292.231 16.5328 292.625 17.1434C293.019 17.7541 293.424 18.282 293.841 18.7249C294.257 19.1679 294.802 19.71 295.478 20.3513C295.816 20.6572 296.018 20.8556 296.085 20.9478C296.152 21.0092 296.321 21.1769 296.592 21.4521C297.334 22.1549 297.942 22.7501 298.414 23.2391C298.886 23.7281 299.359 24.3163 299.832 25.0037C300.305 25.6911 300.682 26.4482 300.963 27.2726C301.244 28.0982 301.386 28.984 301.386 29.9312C301.34 31.5812 300.906 32.949 300.085 34.0332C299.263 35.1175 298.19 35.6608 296.862 35.6608C296.007 35.6608 295.242 35.4163 294.566 34.9273C293.892 34.4383 293.395 33.7049 293.08 32.7269C292.833 32.1458 292.585 31.3368 292.338 30.2974C292.113 29.4116 291.921 28.9687 291.764 28.9687L290.853 29.3809C290.695 29.473 290.616 29.6868 290.616 30.0222C290.616 30.1143 290.628 30.2372 290.649 30.3895C290.649 30.5726 290.649 30.6954 290.649 30.7557V35.2025C290.649 35.8131 290.729 36.2029 290.887 36.3706C291.044 36.5383 291.551 36.8064 292.406 37.1726C293.711 37.723 295.162 37.9982 296.76 37.9982C297.728 37.9982 298.673 37.8139 299.596 37.4478C300.519 37.0816 301.362 36.523 302.127 35.7753C302.893 35.0265 303.501 34.0864 303.951 32.9561C304.4 31.8257 304.625 30.5419 304.625 29.1057C304.558 26.7222 304.08 24.7982 303.192 23.3313C302.302 21.8643 300.81 20.1836 298.717 18.2891C297.255 16.945 296.192 15.784 295.529 14.8061C294.865 13.8281 294.532 12.7131 294.532 11.46C294.532 11.3383 294.532 11.2002 294.532 11.0478C294.555 10.834 294.566 10.6805 294.566 10.5895C294.701 9.45802 295.129 8.55684 295.849 7.8848C296.569 7.21276 297.368 6.87614 298.246 6.87614C299.033 6.87614 299.68 7.07575 300.187 7.4726C300.692 7.86945 301.115 8.52614 301.452 9.44386C301.52 9.59622 301.565 9.71788 301.588 9.81C301.857 10.5435 302.088 11.1317 302.28 11.5746C302.471 12.0175 302.623 12.2395 302.736 12.2395C302.758 12.2395 302.769 12.2242 302.769 12.1935C302.792 12.1935 302.803 12.1935 302.803 12.1935L303.579 11.3678Z" fill="black"/>
<path d="M318.533 8.20605H324.644C324.958 8.20605 325.206 8.17534 325.387 8.11393C325.566 8.05251 325.746 7.90015 325.927 7.65566L326.568 6.32692C326.703 6.11314 326.77 5.94424 326.77 5.82259C326.77 5.51668 326.546 5.36432 326.096 5.36432H309.149C308.834 5.36432 308.586 5.39503 308.406 5.45526C308.225 5.51668 308.046 5.67022 307.866 5.91353L307.225 7.24345C307.09 7.45723 307.022 7.62495 307.022 7.74778C307.022 8.05251 307.247 8.20605 307.697 8.20605H315.259V32.9561C315.259 33.6588 315.096 34.2092 314.769 34.6061C314.443 35.0029 314.033 35.2627 313.538 35.3856L313.47 35.4316C313.178 35.5226 312.986 35.721 312.896 36.0269L312.694 36.7604C312.694 36.8218 312.683 36.882 312.659 36.9435C312.659 36.9742 312.659 37.0049 312.659 37.0356C312.659 37.1879 312.705 37.2954 312.795 37.3557C312.885 37.4171 312.997 37.4478 313.132 37.4478H320.221C320.491 37.4478 320.683 37.3403 320.795 37.1265L321.065 36.3021C321.11 36.1793 321.133 36.073 321.133 35.9809C321.133 35.7057 320.986 35.5379 320.694 35.4765C319.817 35.232 319.237 34.9651 318.956 34.6746C318.675 34.384 318.533 33.8112 318.533 32.9561L318.533 8.20605Z" fill="black"/>
<path d="M51.1357 27.5903H7.13733V38.5946H51.1357V27.5903Z" fill="#E90606"/>
</g>
<defs>
<clipPath id="clip0_3063_1078">
<rect width="330" height="50" fill="white" transform="translate(0 0.506836)"/>
</clipPath>
</defs>
</svg>
