<svg width="148" height="40" fill="none" xmlns="http://www.w3.org/2000/svg"><path d="M28.4 13.7A10.2 10.2 0 0 0 13 12.6a10.1 10.1 0 0 0-2.9 7.3c0 1.6.2 3 .7 4.2a10.2 10.2 0 0 0 5.3 5.5c1.3.6 2.6.9 4 .9 3 0 5.9-1.4 8.3-4V38l-1 .3a26 26 0 0 1-7.9 1.6A19.3 19.3 0 0 1 1.6 28 20 20 0 0 1 0 19.9 19.8 19.8 0 0 1 12.1 1.5 18.8 18.8 0 0 1 24 .5c1.4.3 3 .8 4.5 1.5v11.7ZM52.6 17.7h19.2c0 2-.1 3.9-.3 5.5a19.7 19.7 0 0 1-3.8 9.9 17 17 0 0 1-9.4 6.1 22 22 0 0 1-14-.7 18 18 0 0 1-10-10.4c-1-2.4-1.4-5.2-1.4-8.2 0-2.9.4-5.6 1.3-8 1-2.5 2.3-4.6 4-6.4 1.8-1.7 3.9-3 6.3-4S49.6 0 52.6 0a17.6 17.6 0 0 1 17.1 10.5l-9.1 3.9c-.9-2.1-2-3.6-3.3-4.5a9 9 0 0 0-11.6 1.9c-.9 1-1.6 2.2-2 3.6-.5 1.5-.7 3-.7 4.9 0 1.6.2 3 .6 4.4.4 1.4 1 2.6 1.8 3.6a8.6 8.6 0 0 0 7.3 3.2c1 0 1.9-.1 2.8-.3.9-.3 1.7-.6 2.3-1.1.8-.5 1.4-1.1 1.8-2 .5-.7.8-1.6 1-2.7h-8v-7.7ZM104.6 13.7a10.2 10.2 0 0 0-15.4-1.1 10.1 10.1 0 0 0-2.9 7.3 10.7 10.7 0 0 0 2.9 7.5c.9 1 2 1.7 3.2 2.2 1.2.6 2.5.9 4 .9 3 0 5.8-1.4 8.2-4V38l-1 .3a26 26 0 0 1-7.9 1.6 19.3 19.3 0 0 1-17.9-12 20 20 0 0 1-1.6-8.1A19.8 19.8 0 0 1 88.3 1.5a18.8 18.8 0 0 1 11.8-1c1.5.3 3 .8 4.5 1.5v11.7ZM128.8 17.7H148c0 2 0 3.9-.2 5.5a19.8 19.8 0 0 1-3.8 9.9 17 17 0 0 1-9.5 6.1 22 22 0 0 1-13.9-.7 18 18 0 0 1-10-10.4c-1-2.4-1.5-5.2-1.5-8.2 0-2.9.4-5.6 1.4-8 1-2.5 2.2-4.6 4-6.4 1.7-1.7 3.8-3 6.2-4 2.4-1 5.1-1.5 8.1-1.5A17.6 17.6 0 0 1 146 10.5l-9 3.9c-1-2.1-2-3.6-3.4-4.5a9 9 0 0 0-11.6 1.9c-.9 1-1.5 2.2-2 3.6-.5 1.5-.7 3-.7 4.9 0 1.6.2 3 .6 4.4.4 1.4 1 2.6 1.8 3.6a8.6 8.6 0 0 0 7.3 3.2c1 0 2-.1 2.8-.3.9-.3 1.7-.6 2.4-1.1.7-.5 1.3-1.1 1.7-2 .5-.7.8-1.6 1-2.7h-8v-7.7Z" fill="#FFF"/></svg>