<svg width="500" height="545" fill="none" xmlns="http://www.w3.org/2000/svg"><path d="m462.45 162.45-.31-39.77" stroke="#000" stroke-miterlimit="10" stroke-linecap="round" stroke-linejoin="round"/><path d="m459.46 162.22.05 6 5.99-.05-.05-6-6 .06Zm5 .96.03 4-4 .03-.03-4 4-.03Z" fill="#000"/><path d="M451.52 122.2h10.33" stroke="#000" stroke-miterlimit="10" stroke-linecap="round" stroke-linejoin="round"/><path d="m460.2 26.89.3 95.35" stroke="#000" stroke-miterlimit="10" stroke-linecap="round" stroke-linejoin="round"/><path d="m429.1 26.48 31.06-.16" stroke="#000" stroke-miterlimit="10" stroke-linecap="round" stroke-linejoin="round"/><path d="M487.55 100.32h-27.12" stroke="#000" stroke-miterlimit="10" stroke-linecap="round" stroke-linejoin="round"/><path d="M487.3 103.31h6v-5.99h-6v6Zm1-4.99h4v4h-4v-4Z" fill="#000"/><path d="m493.69 56.16-62.88-.5" stroke="#000" stroke-miterlimit="10" stroke-linecap="round" stroke-linejoin="round"/><path d="m493.41 59.15 6 .05.04-6-5.99-.04-.05 5.99Zm1.04-4.98 4 .03-.04 3.99-4-.03.04-4Z" fill="#000"/><path d="m149.1 3.56 172.42.73" stroke="#000" stroke-miterlimit="10" stroke-linecap="round" stroke-linejoin="round"/><path d="m148.7 31.1.42-27.54" stroke="#000" stroke-miterlimit="10" stroke-linecap="round" stroke-linejoin="round"/><path d="m184.36 61 49.77-.3" stroke="#000" stroke-miterlimit="10" stroke-linecap="round" stroke-linejoin="round"/><path d="m233.35 116.4.3-55.7" stroke="#000" stroke-miterlimit="10" stroke-linecap="round" stroke-linejoin="round"/><path d="m193.92 116.15 79.23.82" stroke="#000" stroke-miterlimit="10" stroke-linecap="round" stroke-linejoin="round"/><path d="M193.97 111.53v34.2" stroke="#000" stroke-miterlimit="10" stroke-linecap="round" stroke-linejoin="round"/><path d="M197 111.78v-6h-6v6h6Zm-5-1v-4h4v4h-4Z" fill="#000"/><path d="m266.93 68.75-.2-64.7" stroke="#000" stroke-miterlimit="10" stroke-linecap="round" stroke-linejoin="round"/><path d="m263.93 68.5.02 6 6-.02-.03-6-5.99.03Zm5 .99.01 4h-4V69.5l4-.01Z" fill="#000"/><path d="m296.09 37.35 26.33.15" stroke="#000" stroke-miterlimit="10" stroke-linecap="round" stroke-linejoin="round"/><path d="m296.36 34.36-6-.04-.03 5.99 6 .03.03-5.98Zm-1.03 4.98-4-.02.03-4 4 .03-.03 4Z" fill="#000"/><path d="m224.25 161.33 25.84.28" stroke="#000" stroke-miterlimit="10" stroke-linecap="round" stroke-linejoin="round"/><path d="M250.54 200.82v-39.2" stroke="#000" stroke-miterlimit="10" stroke-linecap="round" stroke-linejoin="round"/><path d="m253.09 200.95-2.55-.15" stroke="#000" stroke-miterlimit="10" stroke-linecap="round" stroke-linejoin="round"/><path d="M283.92 200.78h17.52" stroke="#000" stroke-miterlimit="10" stroke-linecap="round" stroke-linejoin="round"/><path d="m301.15 83.18.31 116.28" stroke="#000" stroke-miterlimit="10" stroke-linecap="round" stroke-linejoin="round"/><path d="m273.23 129.6.33-12.25" stroke="#000" stroke-miterlimit="10" stroke-linecap="round" stroke-linejoin="round"/><path d="M319.96 82.84H301" stroke="#000" stroke-miterlimit="10" stroke-linecap="round" stroke-linejoin="round"/><path d="M301.37 166.67h5.68" stroke="#000" stroke-miterlimit="10" stroke-linecap="round" stroke-linejoin="round"/><path d="m320.69 150.29-13.17-.18" stroke="#000" stroke-miterlimit="10" stroke-linecap="round" stroke-linejoin="round"/><path d="M307.28 166.8v-16.46" stroke="#000" stroke-miterlimit="10" stroke-linecap="round" stroke-linejoin="round"/><path d="M363.59 167.87v10.55" stroke="#000" stroke-miterlimit="10" stroke-linecap="round" stroke-linejoin="round"/><path d="M385.83 178.55v60.84" stroke="#000" stroke-miterlimit="10" stroke-linecap="round" stroke-linejoin="round"/><path d="m363.59 178.33 22.24.27" stroke="#000" stroke-miterlimit="10" stroke-linecap="round" stroke-linejoin="round"/><path d="M352.08 200.9h33.77" stroke="#000" stroke-miterlimit="10" stroke-linecap="round" stroke-linejoin="round"/><path d="m352.32 197.96-5.99.01.02 5.99 5.98-.01v-6Zm-.99 5h-3.99v-4h3.99v4Z" fill="#000"/><path d="m53.72 65.51 34.18.17" stroke="#000" stroke-miterlimit="10" stroke-linecap="round" stroke-linejoin="round"/><path d="m53.99 62.52-6-.03-.02 6 5.99.02.03-5.99Zm-1.03 4.99-3.99-.02.02-4 4 .02-.03 4Z" fill="#000"/><path d="m64.3 137.19.51-71.62" stroke="#000" stroke-miterlimit="10" stroke-linecap="round" stroke-linejoin="round"/><path d="m76.3 99.15-11.72-.17" stroke="#000" stroke-miterlimit="10" stroke-linecap="round" stroke-linejoin="round"/><path d="m76 102.14 5.99.1.09-6-6-.09-.08 6Zm1.07-4.97 4 .06-.07 3.99-3.99-.06.06-4Z" fill="#000"/><path d="m93.24 219.93-.41 14.77" stroke="#000" stroke-miterlimit="10" stroke-linecap="round" stroke-linejoin="round"/><path d="m104.19 224.43-11.36 10.2" stroke="#000" stroke-miterlimit="10" stroke-linecap="round" stroke-linejoin="round"/><path d="m103.91 289.1.77-64.46" stroke="#000" stroke-miterlimit="10" stroke-linecap="round" stroke-linejoin="round"/><path d="m117.35 178.43 17.22.14" stroke="#000" stroke-miterlimit="10" stroke-linecap="round" stroke-linejoin="round"/><path d="m126.65 257.16-.16-78.66" stroke="#000" stroke-miterlimit="10" stroke-linecap="round" stroke-linejoin="round"/><path d="m143.75 257.38-17.1-.26" stroke="#000" stroke-miterlimit="10" stroke-linecap="round" stroke-linejoin="round"/><path d="M137.44 295v-20.37" stroke="#000" stroke-miterlimit="10" stroke-linecap="round" stroke-linejoin="round"/><path d="M152.56 274.7H137.5" stroke="#000" stroke-miterlimit="10" stroke-linecap="round" stroke-linejoin="round"/><path d="m126.74 294.63.23-26.17" stroke="#000" stroke-miterlimit="10" stroke-linecap="round" stroke-linejoin="round"/><path d="m104.16 268.54 22.85-.38" stroke="#000" stroke-miterlimit="10" stroke-linecap="round" stroke-linejoin="round"/><path d="m143.46 274.75.2-17.38" stroke="#000" stroke-miterlimit="10" stroke-linecap="round" stroke-linejoin="round"/><path d="m104.28 258.07-62.5-.54" stroke="#000" stroke-miterlimit="10" stroke-linecap="round" stroke-linejoin="round"/><path d="m41.58 324.89.19-67.19" stroke="#000" stroke-miterlimit="10" stroke-linecap="round" stroke-linejoin="round"/><path d="M56.43 319.38H41.6" stroke="#000" stroke-miterlimit="10" stroke-linecap="round" stroke-linejoin="round"/><path d="M93.15 104.8v32.81" stroke="#000" stroke-miterlimit="10" stroke-linecap="round" stroke-linejoin="round"/><path d="M110.02 103v34.7" stroke="#000" stroke-miterlimit="10" stroke-linecap="round" stroke-linejoin="round"/><path d="M93.16 116.2h16.94" stroke="#000" stroke-miterlimit="10" stroke-linecap="round" stroke-linejoin="round"/><path d="m158.68 308.8 102.87-.9" stroke="#000" stroke-miterlimit="10" stroke-linecap="round" stroke-linejoin="round"/><path d="M194.47 324.73h68.03" stroke="#000" stroke-miterlimit="10" stroke-linecap="round" stroke-linejoin="round"/><path d="M194.25 319.45v49.13" stroke="#000" stroke-miterlimit="10" stroke-linecap="round" stroke-linejoin="round"/><path d="m197.36 319.7.01-5.98-5.99-.02-.01 6h5.99Zm-4.99-1 .01-4 4 .01-.02 4-3.99-.01Z" fill="#000"/><path d="m22.37 398.85-19.39-.3" stroke="#000" stroke-miterlimit="10" stroke-linecap="round" stroke-linejoin="round"/><path d="m3.53 483.01-.34-84.45" stroke="#000" stroke-miterlimit="10" stroke-linecap="round" stroke-linejoin="round"/><path d="m.53 482.78.03 5.99 5.99-.03-.03-5.99-5.99.03Zm5 .98.01 3.99-3.99.01-.02-3.99 4-.01Z" fill="#000"/><path d="m195.25 477.59-191.46.44" stroke="#000" stroke-miterlimit="10" stroke-linecap="round" stroke-linejoin="round"/><path d="M65.18 484.81v-47.78" stroke="#000" stroke-miterlimit="10" stroke-linecap="round" stroke-linejoin="round"/><path d="M62.22 484.56v6l6-.01-.01-6-5.99.01Zm5 1v4h-4v-4h4Z" fill="#000"/><path d="M52.77 448.68h157.76" stroke="#000" stroke-miterlimit="10" stroke-linecap="round" stroke-linejoin="round"/><path d="M53.02 445.69h-6v5.99h6v-6Zm-1 4.99h-4v-4h4v4Z" fill="#000"/><path d="m14.36 285.6 112.46.18" stroke="#000" stroke-miterlimit="10" stroke-linecap="round" stroke-linejoin="round"/><path d="M14.6 282.6H8.63l-.01 5.99h5.99v-5.98Zm-1 5-4-.01.02-4 3.99.01v4Z" fill="#000"/><path d="m14.47 111.06 50.03-.38" stroke="#000" stroke-miterlimit="10" stroke-linecap="round" stroke-linejoin="round"/><path d="m14.7 108.06-6 .05.05 5.99 5.99-.05-.05-5.98Zm-.97 5-3.99.03-.03-3.99 4-.03.02 4Z" fill="#000"/><path d="m19.2 285.6.26 87.58" stroke="#000" stroke-miterlimit="10" stroke-linecap="round" stroke-linejoin="round"/><path d="M25.21 373.39h-5.42" stroke="#000" stroke-miterlimit="10" stroke-linecap="round" stroke-linejoin="round"/><path d="m278.71 339.75-.21 25.1" stroke="#000" stroke-miterlimit="10" stroke-linecap="round" stroke-linejoin="round"/><path d="M239.64 364.47h38.86" stroke="#000" stroke-miterlimit="10" stroke-linecap="round" stroke-linejoin="round"/><path d="m238.4 398.03 1.16-33.23" stroke="#000" stroke-miterlimit="10" stroke-linecap="round" stroke-linejoin="round"/><path d="m250.04 308-.34 88.37" stroke="#000" stroke-miterlimit="10" stroke-linecap="round" stroke-linejoin="round"/><path d="M323.92 336.53v12.91" stroke="#000" stroke-miterlimit="10" stroke-linecap="round" stroke-linejoin="round"/><path d="M346.5 336.58v13.05" stroke="#000" stroke-miterlimit="10" stroke-linecap="round" stroke-linejoin="round"/><path d="m410.23 257.32 37.8.24" stroke="#000" stroke-miterlimit="10" stroke-linecap="round" stroke-linejoin="round"/><path d="M420.13 189.41v-10.86" stroke="#000" stroke-miterlimit="10" stroke-linecap="round" stroke-linejoin="round"/><path d="m459.33 190.11.19-11.68" stroke="#000" stroke-miterlimit="10" stroke-linecap="round" stroke-linejoin="round"/><path d="M435.42 177.81a4.94 4.94 0 0 1 5.03-4.84 4.94 4.94 0 0 1 5.02 4.84 4.94 4.94 0 0 1-5.02 4.85 5.1 5.1 0 0 1-2.82-.83 4.8 4.8 0 0 1-2.2-4.02Z" stroke="#000" stroke-miterlimit="10" stroke-linecap="round" stroke-linejoin="round"/><path d="M459.6 178.4h-14.17" stroke="#000" stroke-miterlimit="10" stroke-linecap="round" stroke-linejoin="round"/><path d="M420 178.19h14.75" stroke="#000" stroke-miterlimit="10" stroke-linecap="round" stroke-linejoin="round"/><path d="m420.06 240.46.16 11.04" stroke="#000" stroke-miterlimit="10" stroke-linecap="round" stroke-linejoin="round"/><path d="m459.14 240.62.29 11" stroke="#000" stroke-miterlimit="10" stroke-linecap="round" stroke-linejoin="round"/><path d="m420.7 251.22 38.72.57" stroke="#000" stroke-miterlimit="10" stroke-linecap="round" stroke-linejoin="round"/><path d="m448.26 319.16-.16-67.54" stroke="#000" stroke-miterlimit="10" stroke-linecap="round" stroke-linejoin="round"/><path d="m425.56 280.04.14-28.75" stroke="#000" stroke-miterlimit="10" stroke-linecap="round" stroke-linejoin="round"/><path d="m422.57 279.77-.03 6 5.99.02.03-5.99-6-.03Zm4.98 1.02-.02 4-3.99-.02.02-4 4 .02Z" fill="#000"/><path d="M335.04 359.9v38.15" stroke="#000" stroke-miterlimit="10" stroke-linecap="round" stroke-linejoin="round"/><path d="M346.56 398.18h-11.54" stroke="#000" stroke-miterlimit="10" stroke-linecap="round" stroke-linejoin="round"/><path d="m346.4 443.28.21-44.94" stroke="#000" stroke-miterlimit="10" stroke-linecap="round" stroke-linejoin="round"/><path d="m312.36 409.94 133.19-.61" stroke="#000" stroke-miterlimit="10" stroke-linecap="round" stroke-linejoin="round"/><path d="m312.22 444.21.2-34.26" stroke="#000" stroke-miterlimit="10" stroke-linecap="round" stroke-linejoin="round"/><path d="m351.98 427.18-70.49-.16" stroke="#000" stroke-miterlimit="10" stroke-linecap="round" stroke-linejoin="round"/><path d="m351.72 430.17 6 .02v-6h-5.98l-.02 5.98Zm1.01-4.99 4 .01-.01 4-4-.01.01-4Z" fill="#000"/><path d="m274.97 457.26 10.36-.16" stroke="#000" stroke-miterlimit="10" stroke-linecap="round" stroke-linejoin="round"/><path d="m288.62 476.51 102.82-.2" stroke="#000" stroke-miterlimit="10" stroke-linecap="round" stroke-linejoin="round"/><path d="m391.9 447.95-.37 27.82" stroke="#000" stroke-miterlimit="10" stroke-linecap="round" stroke-linejoin="round"/><path d="m413.96 319.34 33.95-.22" stroke="#000" stroke-miterlimit="10" stroke-linecap="round" stroke-linejoin="round"/><path d="M414.2 314.32c-.05 3.6-.35 32.4-.35 32.4" stroke="#000" stroke-miterlimit="10" stroke-linecap="round" stroke-linejoin="round"/><path d="m417.18 314.6.06-6-5.99-.06-.06 6 6 .06Zm-4.98-1.05.04-4 4 .05-.04 3.99-4-.04Z" fill="#000"/><path d="M369.6 337.32v139" stroke="#000" stroke-miterlimit="10" stroke-linecap="round" stroke-linejoin="round"/><path d="m351.68 449.04 18.02-.43" stroke="#000" stroke-miterlimit="10" stroke-linecap="round" stroke-linejoin="round"/><path d="M165.85 99.36v41.6" stroke="#000" stroke-miterlimit="10" stroke-linecap="round" stroke-linejoin="round"/><path d="M328.6 173.76v59.85" stroke="#000" stroke-miterlimit="10" stroke-linecap="round" stroke-linejoin="round"/><path d="M295.65 340.05v86.6" stroke="#000" stroke-miterlimit="10" stroke-linecap="round" stroke-linejoin="round"/><path d="m249.91 341.55-77.48.26" stroke="#000" stroke-miterlimit="10" stroke-linecap="round" stroke-linejoin="round"/><path d="M172.09 330.4v35.78" stroke="#000" stroke-miterlimit="10" stroke-linecap="round" stroke-linejoin="round"/><path d="m175.08 330.63-.01-5.99-6 .02.02 6 6-.03Zm-5-.98v-4h3.99l.01 3.99-4 .01Z" fill="#000"/><path d="m211.19 290.62-.15 17.72" stroke="#000" stroke-miterlimit="10" stroke-linecap="round" stroke-linejoin="round"/><path d="M87.06 29.08h97.45v75.84H87.06V29.08Z" fill="#2B354E"/><path d="M90.8 32.32h89.83v68.88H90.8V32.32Z" fill="#3E507D" fill-opacity=".4"/><path d="M98.13 37.89h34.84v23.2H98.13v-23.2Z" fill="#2B354E"/><path d="M132.65 139.36h90.28v73.46h-90.28v-73.46Z" fill="#2B354E"/><path d="M139.24 144.92h78.15v61.82h-78.15v-61.82Z" fill="#2B354E"/><g filter="url(#a)"><path d="M219.01 176.83c0-2.4.47-4.34 1.04-4.34.57 0 1.03 1.94 1.03 4.34s-.46 4.33-1.03 4.33c-.57 0-1.04-1.94-1.04-4.33Z" fill="#000" fill-opacity=".4"/><path d="M219.01 176.83c0-2.4.47-4.34 1.04-4.34.57 0 1.03 1.94 1.03 4.34s-.46 4.33-1.03 4.33c-.57 0-1.04-1.94-1.04-4.33Z" stroke="#000" stroke-miterlimit="10" stroke-linecap="round" stroke-linejoin="round"/></g><path d="M11.97 136.63h105.5v82.3H11.97v-82.3Z" fill="#28334C"/><path d="M20.12 144.3H111v66.71H20.12v-66.7Z" fill="#2B354E"/><path d="M55.36 294.4h101.97v78.22H55.36V294.4Z" fill="#171C2A" fill-opacity=".93"/><g filter="url(#b)"><path d="M64.03 303.3h83.87v69.32H64.03v-69.33Z" fill="#2B354E"/></g><path d="M64.4 346.51c0-23.87 18.78-43.22 41.95-43.22 23.16 0 41.94 19.35 41.94 43.22 0 23.87-18.78 43.22-41.94 43.22-23.17 0-41.94-19.35-41.94-43.22Z" fill="#2B354E"/><path d="M99.41 346.76a7.55 7.55 0 0 1 7.52-7.58c4.14 0 7.51 3.4 7.51 7.58a7.55 7.55 0 0 1-7.52 7.59 7.55 7.55 0 0 1-7.51-7.59Z" fill="#37466B"/><path d="M30.44 364.25h196.32v70.89H30.44v-70.88Z" fill="#2B354E"/><path d="M55.36 368.57h161.81v61.88H55.37v-61.88Z" fill="#445172" fill-opacity=".4"/><path d="M285.07 442.68h68.25v26.56h-68.25v-26.56Z" fill="#2B354E" stroke="#000" stroke-miterlimit="10" stroke-linecap="round" stroke-linejoin="round"/><path d="M379.63 421.29h24.32v26.19h-24.31v-26.2Z" fill="#2B354E" stroke="#000" stroke-miterlimit="10" stroke-linecap="round" stroke-linejoin="round"/><path d="m403.6 421.29 45.27-1.17v16.68l.11.39-44.9 10.53-.47-26.43Z" fill="#2B354E" stroke="#000" stroke-miterlimit="10" stroke-linecap="round" stroke-linejoin="round"/><path d="m450.88 462.01 19.76-25.13 3.34 2.62-19.76 25.14-3.34-2.63Z" fill="#000" fill-opacity=".4" stroke="#000" stroke-miterlimit="10" stroke-linecap="round" stroke-linejoin="round"/><path d="m425.66 442.66.15 14.33" stroke="#000" stroke-miterlimit="10" stroke-linecap="round" stroke-linejoin="round"/><path d="m460.45 449.84-34.02 7.36" stroke="#000" stroke-miterlimit="10" stroke-linecap="round" stroke-linejoin="round"/><path d="M381.55 374.05c0-15.16 12.5-27.46 27.93-27.46 15.42 0 27.92 12.3 27.92 27.46 0 15.17-12.5 27.47-27.92 27.47-15.43 0-27.93-12.3-27.93-27.47Z" fill="#293658" stroke="#000" stroke-miterlimit="10" stroke-linecap="round" stroke-linejoin="round"/><path d="M388.04 373.78a21.18 21.18 0 0 1 21.14-21.22c11.67 0 21.13 9.5 21.13 21.22A21.18 21.18 0 0 1 409.18 395a21.18 21.18 0 0 1-21.14-21.22Z" fill="#CBD6F2" fill-opacity=".4" stroke="#000" stroke-miterlimit="10" stroke-linecap="round" stroke-linejoin="round"/><path d="M258.53 231.65h150.5v107.1h-150.5v-107.1Z" fill="#293658"/><path d="M315.08 349.63h40.48v9.67h-40.48v-9.67Z" fill="#2B354E" stroke="#000" stroke-miterlimit="10" stroke-linecap="round" stroke-linejoin="round"/><path d="M152.94 247.56h81.29v42.52h-81.28v-42.52Z" fill="#2B354E"/><path d="M158.32 251.3h59.88v34.35h-59.88V251.3Z" fill="#293658"/><path d="M222.23 253.96h6.26v6.74h-6.26v-6.74Z" fill="#F1D244"/><path d="M222.26 276.34h6.27v6.74h-6.27v-6.74Z" fill="#F1D244"/><path d="M222.27 265.16h6.27v6.74h-6.27v-6.74Z" fill="#F1D244"/><path d="M253.8 186.8h29.31v30.1H253.8v-30.1Z" fill="#2B354E" stroke="#000" stroke-miterlimit="10" stroke-linecap="round" stroke-linejoin="round"/><path d="M255.2 147.63c0-10.31 8.07-18.67 18.04-18.67 9.97 0 18.05 8.35 18.05 18.66s-8.08 18.67-18.05 18.67-18.05-8.36-18.05-18.66Z" fill="#2B354E" stroke="#000" stroke-miterlimit="10" stroke-linecap="round" stroke-linejoin="round"/><path d="M320.69 0h107.98v173.94H320.7V.01Z" fill="#2B354E"/><g filter="url(#c)"><path d="M334.21 15.66h82.29v31.78h-82.3V15.66Z" fill="#18223C"/></g><path d="M334.98 53.7h12.5v34.47h-12.5V53.7Z" fill="#8CC2EE" fill-opacity=".79"/><path d="M352.17 54.25h13.27v33.78h-13.27V54.25Z" fill="#8CC2EE" fill-opacity=".79"/><path d="M369.42 60h12.73v27.85h-12.73V59.99Z" fill="#8CC2EE" fill-opacity=".79"/><path d="M335.24 121.97h83.63v13.75h-83.63v-13.75Z" fill="#000" fill-opacity=".4" stroke="#000" stroke-miterlimit="10" stroke-linecap="round" stroke-linejoin="round"/><path d="M335.5 145.47h83.33v13.76H335.5v-13.75Z" fill="#000" fill-opacity=".4" stroke="#000" stroke-miterlimit="10" stroke-linecap="round" stroke-linejoin="round"/><path d="M335.4 98.74h83.55v13.75H335.4V98.74Z" fill="#000" fill-opacity=".4" stroke="#000" stroke-miterlimit="10" stroke-linecap="round" stroke-linejoin="round"/><path d="M409.56 61.68H390.9" stroke="#000" stroke-miterlimit="10" stroke-linecap="round" stroke-linejoin="round"/><path d="M416.05 61.67a3.5 3.5 0 1 0-6.98 0 3.5 3.5 0 0 0 6.98 0Z" fill="#000"/><path d="M408.6 82.53h-18.66" stroke="#000" stroke-miterlimit="10" stroke-linecap="round" stroke-linejoin="round"/><path d="M415.09 82.52a3.5 3.5 0 1 0-7 .01 3.5 3.5 0 0 0 7-.01Z" fill="#000"/><path d="M408.71 71.3h-18.66" stroke="#000" stroke-miterlimit="10" stroke-linecap="round" stroke-linejoin="round"/><path d="M415.2 71.29a3.5 3.5 0 1 0-7 .01 3.5 3.5 0 0 0 7-.01Z" fill="#000"/><path d="M268.4 238.32h130.81v90.26h-130.8v-90.26Z" fill="#000" fill-opacity=".4"/><path d="M420.63 188.34a9.67 9.67 0 0 1 9.66 9.67v32.51a9.67 9.67 0 0 1-19.33 0v-32.51a9.66 9.66 0 0 1 9.67-9.67Z" fill="#2B354E" stroke="#000" stroke-miterlimit="10" stroke-linecap="round" stroke-linejoin="round"/><path d="M459.35 188.48a9.66 9.66 0 0 1 9.66 9.67v32.5a9.66 9.66 0 1 1-19.33 0v-32.5a9.67 9.67 0 0 1 9.67-9.67Z" fill="#2B354E" stroke="#000" stroke-miterlimit="10" stroke-linecap="round" stroke-linejoin="round"/><path d="m449.07 399.12 17.55 14.56a5.05 5.05 0 1 1-6.45 7.78L442.6 406.9a5.05 5.05 0 1 1 6.46-7.78Z" fill="#2B354E" stroke="#000" stroke-miterlimit="10" stroke-linecap="round" stroke-linejoin="round"/><path d="m432.97 390.36 11.24 7.86c.35.27-1.16.44-1.44.77l-1.4 1.67c-.29.33-.18 1.83-.52 1.56l-10.5-8.77a.75.75 0 0 1-.12-1.09l1.6-1.89a.83.83 0 0 1 1.14-.11Z" fill="#F1D244" fill-opacity=".9" stroke="#000" stroke-miterlimit="10" stroke-linecap="round" stroke-linejoin="round"/><path d="m45.7 38.42 41.36-.41v12.74l-41.36.23a6.28 6.28 0 1 1 0-12.56Z" fill="#F1D244" fill-opacity=".69"/><path d="M166.5 68c-2.97.06-6.95.12-11.45.1-5.46-.04-7.48 5.08-20.05 5.18-12.58.1-12.56-3.8-21-5.03a76.9 76.9 0 0 0-10.14-.76" stroke="#000" stroke-miterlimit="10" stroke-linecap="round" stroke-linejoin="round"/><path d="m104.27 64.48-5.99.17.17 5.98 5.99-.16-.17-6Z" fill="#000"/><path d="m166.1 71 5.98-.2-.2-5.98-5.98.2.2 5.98Z" fill="#000"/><path d="M166.49 75.45c-2.97.07-6.95.13-11.45.1-5.46-.04-7.48 5.09-20.05 5.19-12.58.1-12.56-3.81-21-5.04a64.78 64.78 0 0 0-10.15-.8" stroke="#000" stroke-miterlimit="10" stroke-linecap="round" stroke-linejoin="round"/><path d="m104.23 71.88-5.98.22.22 5.99 5.98-.22-.22-5.99Z" fill="#000"/><path d="m166.09 78.46 5.98-.2-.2-5.99-5.98.2.2 5.99Z" fill="#000"/><path d="M104.02 87.68c2.97-.04 6.95-.06 11.45.01 5.46.1 7.53-5.01 20.1-4.99 12.58.03 12.52 3.94 20.96 5.25 3.82.59 7.38.8 10.13.86" stroke="#000" stroke-miterlimit="10" stroke-linecap="round" stroke-linejoin="round"/><path d="m166.21 91.81 5.99-.1-.1-6-6 .11.11 5.99Z" fill="#000"/><path d="m104.45 84.67-5.99.14.15 6 5.98-.15-.14-5.99Z" fill="#000"/><path d="M104.19 95.1c2.96-.03 6.94-.05 11.44.02 5.46.1 7.53-5.01 20.1-4.99 12.59.03 12.52 3.93 20.96 5.24 3.82.6 7.38.81 10.13.87" stroke="#000" stroke-miterlimit="10" stroke-linecap="round" stroke-linejoin="round"/><path d="m166.38 99.24 5.98-.1-.1-6-6 .11.12 5.99Z" fill="#000"/><path d="m104.62 92.1-6 .14.15 6 5.99-.15-.14-5.99Z" fill="#000"/><path d="M27.75 148.61v19.07" stroke="#000" stroke-miterlimit="10" stroke-linecap="round" stroke-linejoin="round"/><path d="M27.54 184.52v21.71" stroke="#000" stroke-miterlimit="10" stroke-linecap="round" stroke-linejoin="round"/><path d="M31.33 148.33h10.4" stroke="#000" stroke-miterlimit="10" stroke-linecap="round" stroke-linejoin="round"/><path d="M42.11 152.63H31.36" stroke="#000" stroke-miterlimit="10" stroke-linecap="round" stroke-linejoin="round"/><path d="M41.95 168.02H31.2" stroke="#000" stroke-miterlimit="10" stroke-linecap="round" stroke-linejoin="round"/><path d="M41.94 163.61H31.2" stroke="#000" stroke-miterlimit="10" stroke-linecap="round" stroke-linejoin="round"/><path d="M42.05 160.3H31.3"/><path d="M42.03 156.24H31.28" stroke="#000" stroke-miterlimit="10" stroke-linecap="round" stroke-linejoin="round"/><path d="M41.93 192.5H31.18" stroke="#000" stroke-miterlimit="10" stroke-linecap="round" stroke-linejoin="round"/><path d="M41.9 188.59H31.15" stroke="#000" stroke-miterlimit="10" stroke-linecap="round" stroke-linejoin="round"/><path d="M41.95 184.56H31.2" stroke="#000" stroke-miterlimit="10" stroke-linecap="round" stroke-linejoin="round"/><path d="M42.14 199.53H31.4"/><path d="M42.2 195.96H31.45" stroke="#000" stroke-miterlimit="10" stroke-linecap="round" stroke-linejoin="round"/><path d="M42.05 203.68H31.29" stroke="#000" stroke-miterlimit="10" stroke-linecap="round" stroke-linejoin="round"/><path d="M42.15 206.46H31.4" stroke="#000" stroke-miterlimit="10" stroke-linecap="round" stroke-linejoin="round"/><path d="m47.9 164.72.3 21.7" stroke="#000" stroke-miterlimit="10" stroke-linecap="round" stroke-linejoin="round"/><path d="M61.83 164.73H51.08" stroke="#000" stroke-miterlimit="10" stroke-linecap="round" stroke-linejoin="round"/><path d="M62 173.09H51.25"/><path d="M61.93 168.95H51.18" stroke="#000" stroke-miterlimit="10" stroke-linecap="round" stroke-linejoin="round"/><path d="M62.25 177.2H51.49" stroke="#000" stroke-miterlimit="10" stroke-linecap="round" stroke-linejoin="round"/><path d="M62.25 181.79H51.49" stroke="#000" stroke-miterlimit="10" stroke-linecap="round" stroke-linejoin="round"/><path d="M62.24 186.23H51.5" stroke="#000" stroke-miterlimit="10" stroke-linecap="round" stroke-linejoin="round"/><path d="M80.86 148.22v58.56"/><path d="m85.25 148.7 16.72.16" stroke="#000" stroke-miterlimit="10" stroke-linecap="round" stroke-linejoin="round"/><path d="m85.48 157.88 16.71.17"/><path d="m85.03 152.99 16.72.16" stroke="#000" stroke-miterlimit="10" stroke-linecap="round" stroke-linejoin="round"/><path d="m86.1 176.54 16.72.17"/><path d="m85.81 171.69 16.72.16" stroke="#000" stroke-miterlimit="10" stroke-linecap="round" stroke-linejoin="round"/><path d="m85.83 166.96 16.71.17" stroke="#000" stroke-miterlimit="10" stroke-linecap="round" stroke-linejoin="round"/><path d="m85.52 162.56 16.71.17" stroke="#000" stroke-miterlimit="10" stroke-linecap="round" stroke-linejoin="round"/><path d="m85.77 194.76 16.72.17" stroke="#000" stroke-miterlimit="10" stroke-linecap="round" stroke-linejoin="round"/><path d="m86.02 190.16 16.72.17" stroke="#000" stroke-miterlimit="10" stroke-linecap="round" stroke-linejoin="round"/><path d="m85.95 186.28 16.71.17" stroke="#000" stroke-miterlimit="10" stroke-linecap="round" stroke-linejoin="round"/><path d="m86.38 181.34 16.72.17" stroke="#000" stroke-miterlimit="10" stroke-linecap="round" stroke-linejoin="round"/><path d="m86.4 203.32 16.71.16" stroke="#000" stroke-miterlimit="10" stroke-linecap="round" stroke-linejoin="round"/><path d="m86.04 199.23 16.72.16" stroke="#000" stroke-miterlimit="10" stroke-linecap="round" stroke-linejoin="round"/><path d="m85.7 207.13 16.7.17" stroke="#000" stroke-miterlimit="10" stroke-linecap="round" stroke-linejoin="round"/><path d="M84.06 309.9s2.5 2.8 3.64 7.3c.88 3.46-1.27 8.05 3.45 15.74 4.76 7.76 11.12 7.87 11.12 7.87"/><path d="M68.86 328.32s2.08.3 4.5 3.69c3.94 5.54 2.18 9.57 8.13 13.03 7.75 4.51 17.93 1.35 17.93 1.35"/><path d="M112.23 341.39s1.04-6.7 5.9-10.84c4.86-4.15 9.3-1.85 13.54-5.74 4.24-3.88 3.4-9.79 3.4-9.79"/><path d="M148.22 343.9h0" stroke="#000" stroke-miterlimit="10" stroke-linecap="round" stroke-linejoin="round"/><path d="M148.22 343.9s-4.44 4.7-10.43 4.37c-5.98-.32-7.66-5-13.5-5.38-5.84-.38-9.85 3.87-9.85 3.87"/><path d="M102.27 352.72s-5.46 3.05-7.51 5.93c-2.06 2.89-.72 5.6-.72 5.6"/><path d="M111.73 352.6s-1.73 3.33-.62 6.25c1.12 2.91 5.1 5.4 5.1 5.4"/><path d="M149.49 150.5h10.92" stroke="#000" stroke-miterlimit="10" stroke-linecap="round" stroke-linejoin="round"/><path d="M160.49 153.26h-10.87" stroke="#000" stroke-miterlimit="10" stroke-linecap="round" stroke-linejoin="round"/><path d="M160.52 155.97h-10.94"/><path d="M143.06 150.34h3.5" stroke="#000" stroke-miterlimit="10" stroke-linecap="round" stroke-linejoin="round"/><path d="M143.08 155.78h3.5" stroke="#000" stroke-miterlimit="10" stroke-linecap="round" stroke-linejoin="round"/><path d="M143.02 152.88h3.5" stroke="#000" stroke-miterlimit="10" stroke-linecap="round" stroke-linejoin="round"/><path d="M163.51 150.58h.91" stroke="#000" stroke-miterlimit="10" stroke-linecap="round" stroke-linejoin="round"/><path d="M166.35 150.53h.99" stroke="#000" stroke-miterlimit="10" stroke-linecap="round" stroke-linejoin="round"/><path d="M168.94 150.57h.95" stroke="#000" stroke-miterlimit="10" stroke-linecap="round" stroke-linejoin="round"/><path d="M169.08 153.54h.95" stroke="#000" stroke-miterlimit="10" stroke-linecap="round" stroke-linejoin="round"/><path d="M166.23 153.54h.95" stroke="#000" stroke-miterlimit="10" stroke-linecap="round" stroke-linejoin="round"/><path d="M163.4 153.53h.94" stroke="#000" stroke-miterlimit="10" stroke-linecap="round" stroke-linejoin="round"/><path d="M166.09 156.03h.95" stroke="#000" stroke-miterlimit="10" stroke-linecap="round" stroke-linejoin="round"/><path d="M163.14 156.05h.95" stroke="#000" stroke-miterlimit="10" stroke-linecap="round" stroke-linejoin="round"/><path d="M149.4 158.58h10.92" stroke="#000" stroke-miterlimit="10" stroke-linecap="round" stroke-linejoin="round"/><path d="M160.4 161.34h-10.87" stroke="#000" stroke-miterlimit="10" stroke-linecap="round" stroke-linejoin="round"/><path d="M160.43 164.04h-10.94" stroke="#000" stroke-miterlimit="10" stroke-linecap="round" stroke-linejoin="round"/><path d="M142.96 158.41h3.51" stroke="#000" stroke-miterlimit="10" stroke-linecap="round" stroke-linejoin="round"/><path d="M142.99 163.85h3.5" stroke="#000" stroke-miterlimit="10" stroke-linecap="round" stroke-linejoin="round"/><path d="M142.93 160.95h3.5" stroke="#000" stroke-miterlimit="10" stroke-linecap="round" stroke-linejoin="round"/><path d="M163.42 158.65h.91" stroke="#000" stroke-miterlimit="10" stroke-linecap="round" stroke-linejoin="round"/><path d="M166.26 158.6h.99" stroke="#000" stroke-miterlimit="10" stroke-linecap="round" stroke-linejoin="round"/><path d="M168.84 158.64h.95" stroke="#000" stroke-miterlimit="10" stroke-linecap="round" stroke-linejoin="round"/><path d="M168.98 161.61h.95" stroke="#000" stroke-miterlimit="10" stroke-linecap="round" stroke-linejoin="round"/><path d="M166.14 161.61h.95" stroke="#000" stroke-miterlimit="10" stroke-linecap="round" stroke-linejoin="round"/><path d="M163.3 161.6h.95" stroke="#000" stroke-miterlimit="10" stroke-linecap="round" stroke-linejoin="round"/><path d="M166 164.1h.95" stroke="#000" stroke-miterlimit="10" stroke-linecap="round" stroke-linejoin="round"/><path d="M163.05 164.12h.95" stroke="#000" stroke-miterlimit="10" stroke-linecap="round" stroke-linejoin="round"/><path d="M149.14 170.23h10.93" stroke="#000" stroke-miterlimit="10" stroke-linecap="round" stroke-linejoin="round"/><path d="M160.14 172.98h-10.87" stroke="#000" stroke-miterlimit="10" stroke-linecap="round" stroke-linejoin="round"/><path d="M160.17 175.69h-10.94" stroke="#000" stroke-miterlimit="10" stroke-linecap="round" stroke-linejoin="round"/><path d="M142.7 170.06h3.52" stroke="#000" stroke-miterlimit="10" stroke-linecap="round" stroke-linejoin="round"/><path d="M142.73 175.5h3.5" stroke="#000" stroke-miterlimit="10" stroke-linecap="round" stroke-linejoin="round"/><path d="M142.67 172.6h3.5" stroke="#000" stroke-miterlimit="10" stroke-linecap="round" stroke-linejoin="round"/><path d="M163.17 170.3h.9" stroke="#000" stroke-miterlimit="10" stroke-linecap="round" stroke-linejoin="round"/><path d="M166 170.25h.99" stroke="#000" stroke-miterlimit="10" stroke-linecap="round" stroke-linejoin="round"/><path d="M168.59 170.3h.95" stroke="#000" stroke-miterlimit="10" stroke-linecap="round" stroke-linejoin="round"/><path d="M168.73 173.26h.95" stroke="#000" stroke-miterlimit="10" stroke-linecap="round" stroke-linejoin="round"/><path d="M165.88 173.26h.95" stroke="#000" stroke-miterlimit="10" stroke-linecap="round" stroke-linejoin="round"/><path d="M163.04 173.25h.96" stroke="#000" stroke-miterlimit="10" stroke-linecap="round" stroke-linejoin="round"/><path d="M165.74 175.75h.95" stroke="#000" stroke-miterlimit="10" stroke-linecap="round" stroke-linejoin="round"/><path d="M162.8 175.77h.94" stroke="#000" stroke-miterlimit="10" stroke-linecap="round" stroke-linejoin="round"/><path d="M149.02 183.12h10.92" stroke="#000" stroke-miterlimit="10" stroke-linecap="round" stroke-linejoin="round"/><path d="M160.01 185.88h-10.86"/><path d="M160.05 188.58H149.1" stroke="#000" stroke-miterlimit="10" stroke-linecap="round" stroke-linejoin="round"/><path d="M142.58 182.96h3.51" stroke="#000" stroke-miterlimit="10" stroke-linecap="round" stroke-linejoin="round"/><path d="M142.6 188.4h3.52" stroke="#000" stroke-miterlimit="10" stroke-linecap="round" stroke-linejoin="round"/><path d="M142.55 185.49h3.5" stroke="#000" stroke-miterlimit="10" stroke-linecap="round" stroke-linejoin="round"/><path d="M163.04 183.2h.91" stroke="#000" stroke-miterlimit="10" stroke-linecap="round" stroke-linejoin="round"/><path d="M165.88 183.15h.99" stroke="#000" stroke-miterlimit="10" stroke-linecap="round" stroke-linejoin="round"/><path d="M168.47 183.18h.94" stroke="#000" stroke-miterlimit="10" stroke-linecap="round" stroke-linejoin="round"/><path d="M168.6 186.15h.95" stroke="#000" stroke-miterlimit="10" stroke-linecap="round" stroke-linejoin="round"/><path d="M165.76 186.15h.95" stroke="#000" stroke-miterlimit="10" stroke-linecap="round" stroke-linejoin="round"/><path d="M162.92 186.14h.95" stroke="#000" stroke-miterlimit="10" stroke-linecap="round" stroke-linejoin="round"/><path d="M165.62 188.64h.95" stroke="#000" stroke-miterlimit="10" stroke-linecap="round" stroke-linejoin="round"/><path d="M162.67 188.66h.95" stroke="#000" stroke-miterlimit="10" stroke-linecap="round" stroke-linejoin="round"/><path d="M148.95 191.57h10.92" stroke="#000" stroke-miterlimit="10" stroke-linecap="round" stroke-linejoin="round"/><path d="M159.94 194.33h-10.86" stroke="#000" stroke-miterlimit="10" stroke-linecap="round" stroke-linejoin="round"/><path d="M159.98 197.03h-10.94" stroke="#000" stroke-miterlimit="10" stroke-linecap="round" stroke-linejoin="round"/><path d="M142.51 191.4h3.51" stroke="#000" stroke-miterlimit="10" stroke-linecap="round" stroke-linejoin="round"/><path d="M142.54 196.85h3.5" stroke="#000" stroke-miterlimit="10" stroke-linecap="round" stroke-linejoin="round"/><path d="M142.48 193.94h3.5" stroke="#000" stroke-miterlimit="10" stroke-linecap="round" stroke-linejoin="round"/><path d="M162.97 191.65h.91" stroke="#000" stroke-miterlimit="10" stroke-linecap="round" stroke-linejoin="round"/><path d="M165.8 191.6h1" stroke="#000" stroke-miterlimit="10" stroke-linecap="round" stroke-linejoin="round"/><path d="M168.4 191.64h.94" stroke="#000" stroke-miterlimit="10" stroke-linecap="round" stroke-linejoin="round"/><path d="M168.53 194.6h.95" stroke="#000" stroke-miterlimit="10" stroke-linecap="round" stroke-linejoin="round"/><path d="M165.69 194.6h.95" stroke="#000" stroke-miterlimit="10" stroke-linecap="round" stroke-linejoin="round"/><path d="M162.85 194.6h.95" stroke="#000" stroke-miterlimit="10" stroke-linecap="round" stroke-linejoin="round"/><path d="M165.55 197.1h.95" stroke="#000" stroke-miterlimit="10" stroke-linecap="round" stroke-linejoin="round"/><path d="M162.6 197.11h.95" stroke="#000" stroke-miterlimit="10" stroke-linecap="round" stroke-linejoin="round"/><path d="M206.96 155.9h-10.93" stroke="#000" stroke-miterlimit="10" stroke-linecap="round" stroke-linejoin="round"/><path d="m195.98 153.06 10.87.18" stroke="#000" stroke-miterlimit="10" stroke-linecap="round" stroke-linejoin="round"/><path d="M195.97 150.44h10.94" stroke="#000" stroke-miterlimit="10" stroke-linecap="round" stroke-linejoin="round"/><path d="M213.4 156.1h-3.52" stroke="#000" stroke-miterlimit="10" stroke-linecap="round" stroke-linejoin="round"/><path d="M213.4 150.67h-3.5" stroke="#000" stroke-miterlimit="10" stroke-linecap="round" stroke-linejoin="round"/><path d="M213.45 153.57h-3.51" stroke="#000" stroke-miterlimit="10" stroke-linecap="round" stroke-linejoin="round"/><path d="M192.93 155.8h-.9" stroke="#000" stroke-miterlimit="10" stroke-linecap="round" stroke-linejoin="round"/><path d="M190.1 155.82h-1" stroke="#000" stroke-miterlimit="10" stroke-linecap="round" stroke-linejoin="round"/><path d="M187.51 155.77h-.95" stroke="#000" stroke-miterlimit="10" stroke-linecap="round" stroke-linejoin="round"/><path d="M187.4 152.8h-.96" stroke="#000" stroke-miterlimit="10" stroke-linecap="round" stroke-linejoin="round"/><path d="M190.24 152.82h-.95" stroke="#000" stroke-miterlimit="10" stroke-linecap="round" stroke-linejoin="round"/><path d="M193.08 152.86h-.95" stroke="#000" stroke-miterlimit="10" stroke-linecap="round" stroke-linejoin="round"/><path d="M190.4 150.33h-.95" stroke="#000" stroke-miterlimit="10" stroke-linecap="round" stroke-linejoin="round"/><path d="M193.35 150.34h-.95" stroke="#000" stroke-miterlimit="10" stroke-linecap="round" stroke-linejoin="round"/><path d="M206.96 164.39h-10.93" stroke="#000" stroke-miterlimit="10" stroke-linecap="round" stroke-linejoin="round"/><path d="m195.98 161.55 10.87.17" stroke="#000" stroke-miterlimit="10" stroke-linecap="round" stroke-linejoin="round"/><path d="M195.97 158.93h10.94" stroke="#000" stroke-miterlimit="10" stroke-linecap="round" stroke-linejoin="round"/><path d="M213.39 164.59h-3.5" stroke="#000" stroke-miterlimit="10" stroke-linecap="round" stroke-linejoin="round"/><path d="M213.4 159.15h-3.5" stroke="#000" stroke-miterlimit="10" stroke-linecap="round" stroke-linejoin="round"/><path d="M213.45 162.05h-3.51" stroke="#000" stroke-miterlimit="10" stroke-linecap="round" stroke-linejoin="round"/><path d="M192.93 164.28h-.9" stroke="#000" stroke-miterlimit="10" stroke-linecap="round" stroke-linejoin="round"/><path d="M190.1 164.3h-1" stroke="#000" stroke-miterlimit="10" stroke-linecap="round" stroke-linejoin="round"/><path d="M187.51 164.25h-.95" stroke="#000" stroke-miterlimit="10" stroke-linecap="round" stroke-linejoin="round"/><path d="M187.4 161.28h-.96" stroke="#000" stroke-miterlimit="10" stroke-linecap="round" stroke-linejoin="round"/><path d="M190.24 161.3h-.95" stroke="#000" stroke-miterlimit="10" stroke-linecap="round" stroke-linejoin="round"/><path d="M193.08 161.34h-.95" stroke="#000" stroke-miterlimit="10" stroke-linecap="round" stroke-linejoin="round"/><path d="M190.4 158.82h-.95" stroke="#000" stroke-miterlimit="10" stroke-linecap="round" stroke-linejoin="round"/><path d="M193.35 158.82h-.95" stroke="#000" stroke-miterlimit="10" stroke-linecap="round" stroke-linejoin="round"/><path d="M207.26 173.22h-10.92"/><path d="m196.28 170.38 10.87.17" stroke="#000" stroke-miterlimit="10" stroke-linecap="round" stroke-linejoin="round"/><path d="M196.27 167.76h10.94" stroke="#000" stroke-miterlimit="10" stroke-linecap="round" stroke-linejoin="round"/><path d="M213.7 173.42h-3.52" stroke="#000" stroke-miterlimit="10" stroke-linecap="round" stroke-linejoin="round"/><path d="M213.7 167.98h-3.5" stroke="#000" stroke-miterlimit="10" stroke-linecap="round" stroke-linejoin="round"/><path d="M213.75 170.89h-3.51" stroke="#000" stroke-miterlimit="10" stroke-linecap="round" stroke-linejoin="round"/><path d="M193.24 173.12h-.92" stroke="#000" stroke-miterlimit="10" stroke-linecap="round" stroke-linejoin="round"/><path d="M190.4 173.14h-.99" stroke="#000" stroke-miterlimit="10" stroke-linecap="round" stroke-linejoin="round"/><path d="M187.81 173.08h-.95" stroke="#000" stroke-miterlimit="10" stroke-linecap="round" stroke-linejoin="round"/><path d="M187.7 170.12h-.95" stroke="#000" stroke-miterlimit="10" stroke-linecap="round" stroke-linejoin="round"/><path d="M190.54 170.13h-.95" stroke="#000" stroke-miterlimit="10" stroke-linecap="round" stroke-linejoin="round"/><path d="M193.38 170.17h-.95" stroke="#000" stroke-miterlimit="10" stroke-linecap="round" stroke-linejoin="round"/><path d="M190.7 167.65h-.95" stroke="#000" stroke-miterlimit="10" stroke-linecap="round" stroke-linejoin="round"/><path d="M193.65 167.65h-.95" stroke="#000" stroke-miterlimit="10" stroke-linecap="round" stroke-linejoin="round"/><path d="M207.36 181.9h-10.92" stroke="#000" stroke-miterlimit="10" stroke-linecap="round" stroke-linejoin="round"/><path d="m196.39 179.06 10.86.17" stroke="#000" stroke-miterlimit="10" stroke-linecap="round" stroke-linejoin="round"/><path d="M196.38 176.44h10.93" stroke="#000" stroke-miterlimit="10" stroke-linecap="round" stroke-linejoin="round"/><path d="M213.8 182.1h-3.51" stroke="#000" stroke-miterlimit="10" stroke-linecap="round" stroke-linejoin="round"/><path d="M213.81 176.66h-3.5" stroke="#000" stroke-miterlimit="10" stroke-linecap="round" stroke-linejoin="round"/><path d="M213.85 179.57h-3.5" stroke="#000" stroke-miterlimit="10" stroke-linecap="round" stroke-linejoin="round"/><path d="M193.34 181.8h-.91" stroke="#000" stroke-miterlimit="10" stroke-linecap="round" stroke-linejoin="round"/><path d="M190.5 181.82h-.98" stroke="#000" stroke-miterlimit="10" stroke-linecap="round" stroke-linejoin="round"/><path d="M187.92 181.76h-.95" stroke="#000" stroke-miterlimit="10" stroke-linecap="round" stroke-linejoin="round"/><path d="M187.8 178.8h-.95" stroke="#000" stroke-miterlimit="10" stroke-linecap="round" stroke-linejoin="round"/><path d="M190.65 178.82h-.95" stroke="#000" stroke-miterlimit="10" stroke-linecap="round" stroke-linejoin="round"/><path d="M193.48 178.85h-.95" stroke="#000" stroke-miterlimit="10" stroke-linecap="round" stroke-linejoin="round"/><path d="M190.8 176.33h-.94" stroke="#000" stroke-miterlimit="10" stroke-linecap="round" stroke-linejoin="round"/><path d="M193.75 176.34h-.95" stroke="#000" stroke-miterlimit="10" stroke-linecap="round" stroke-linejoin="round"/><path d="M207.55 190.94h-10.93" stroke="#000" stroke-miterlimit="10" stroke-linecap="round" stroke-linejoin="round"/><path d="m196.57 188.1 10.87.17" stroke="#000" stroke-miterlimit="10" stroke-linecap="round" stroke-linejoin="round"/><path d="M196.56 185.48h10.94"/><path d="M213.98 191.13h-3.5" stroke="#000" stroke-miterlimit="10" stroke-linecap="round" stroke-linejoin="round"/><path d="M214 185.7h-3.51" stroke="#000" stroke-miterlimit="10" stroke-linecap="round" stroke-linejoin="round"/><path d="M214.04 188.6h-3.51" stroke="#000" stroke-miterlimit="10" stroke-linecap="round" stroke-linejoin="round"/><path d="M193.53 190.83h-.91" stroke="#000" stroke-miterlimit="10" stroke-linecap="round" stroke-linejoin="round"/><path d="M190.69 190.85h-1" stroke="#000" stroke-miterlimit="10" stroke-linecap="round" stroke-linejoin="round"/><path d="M188.1 190.8h-.95" stroke="#000" stroke-miterlimit="10" stroke-linecap="round" stroke-linejoin="round"/><path d="M187.99 187.83h-.95" stroke="#000" stroke-miterlimit="10" stroke-linecap="round" stroke-linejoin="round"/><path d="M190.83 187.85h-.95" stroke="#000" stroke-miterlimit="10" stroke-linecap="round" stroke-linejoin="round"/><path d="M193.67 187.89h-.95" stroke="#000" stroke-miterlimit="10" stroke-linecap="round" stroke-linejoin="round"/><path d="M191 185.37h-.96" stroke="#000" stroke-miterlimit="10" stroke-linecap="round" stroke-linejoin="round"/><path d="M193.94 185.37h-.95" stroke="#000" stroke-miterlimit="10" stroke-linecap="round" stroke-linejoin="round"/><path d="M207.53 199.28h-10.92" stroke="#000" stroke-miterlimit="10" stroke-linecap="round" stroke-linejoin="round"/><path d="m196.56 196.44 10.86.18" stroke="#000" stroke-miterlimit="10" stroke-linecap="round" stroke-linejoin="round"/><path d="M196.54 193.82h10.94" stroke="#000" stroke-miterlimit="10" stroke-linecap="round" stroke-linejoin="round"/><path d="M213.96 199.48h-3.5" stroke="#000" stroke-miterlimit="10" stroke-linecap="round" stroke-linejoin="round"/><path d="M213.98 194.05h-3.5" stroke="#000" stroke-miterlimit="10" stroke-linecap="round" stroke-linejoin="round"/><path d="M214.02 196.95h-3.5" stroke="#000" stroke-miterlimit="10" stroke-linecap="round" stroke-linejoin="round"/><path d="M193.5 199.18h-.9" stroke="#000" stroke-miterlimit="10" stroke-linecap="round" stroke-linejoin="round"/><path d="M190.67 199.2h-.99" stroke="#000" stroke-miterlimit="10" stroke-linecap="round" stroke-linejoin="round"/><path d="M188.09 199.15h-.96" stroke="#000" stroke-miterlimit="10" stroke-linecap="round" stroke-linejoin="round"/><path d="M187.97 196.18h-.95" stroke="#000" stroke-miterlimit="10" stroke-linecap="round" stroke-linejoin="round"/><path d="M190.81 196.2h-.94" stroke="#000" stroke-miterlimit="10" stroke-linecap="round" stroke-linejoin="round"/><path d="M193.65 196.24h-.95" stroke="#000" stroke-miterlimit="10" stroke-linecap="round" stroke-linejoin="round"/><path d="M190.97 193.71h-.94" stroke="#000" stroke-miterlimit="10" stroke-linecap="round" stroke-linejoin="round"/><path d="M193.92 193.72h-.95" stroke="#000" stroke-miterlimit="10" stroke-linecap="round" stroke-linejoin="round"/><path d="M162.32 45.1H151.4" stroke="#000" stroke-miterlimit="10" stroke-linecap="round" stroke-linejoin="round"/><path d="m151.35 42.26 10.87.17"/><path d="M168.76 45.3h-3.51" stroke="#000" stroke-miterlimit="10" stroke-linecap="round" stroke-linejoin="round"/><path d="M168.78 39.87h-3.51"/><path d="M168.81 42.77h-3.5" stroke="#000" stroke-miterlimit="10" stroke-linecap="round" stroke-linejoin="round"/><path d="M148.3 45h-.9" stroke="#000" stroke-miterlimit="10" stroke-linecap="round" stroke-linejoin="round"/><path d="M145.47 45.02h-1" stroke="#000" stroke-miterlimit="10" stroke-linecap="round" stroke-linejoin="round"/><path d="M142.88 44.97h-.95" stroke="#000" stroke-miterlimit="10" stroke-linecap="round" stroke-linejoin="round"/><path d="M142.76 42h-.95" stroke="#000" stroke-miterlimit="10" stroke-linecap="round" stroke-linejoin="round"/><path d="M145.61 42.02h-.95" stroke="#000" stroke-miterlimit="10" stroke-linecap="round" stroke-linejoin="round"/><path d="M148.45 42.06h-.95" stroke="#000" stroke-miterlimit="10" stroke-linecap="round" stroke-linejoin="round"/><path d="M145.77 39.53h-.95" stroke="#000" stroke-miterlimit="10" stroke-linecap="round" stroke-linejoin="round"/><path d="M148.72 39.54h-.95" stroke="#000" stroke-miterlimit="10" stroke-linecap="round" stroke-linejoin="round"/><path d="M162.51 54.08H151.6" stroke="#000" stroke-miterlimit="10" stroke-linecap="round" stroke-linejoin="round"/><path d="m151.54 51.23 10.87.18" stroke="#000" stroke-miterlimit="10" stroke-linecap="round" stroke-linejoin="round"/><path d="M168.95 54.28h-3.51" stroke="#000" stroke-miterlimit="10" stroke-linecap="round" stroke-linejoin="round"/><path d="M168.97 48.85h-3.51"/><path d="M169 51.75h-3.5" stroke="#000" stroke-miterlimit="10" stroke-linecap="round" stroke-linejoin="round"/><path d="M148.49 53.97h-.91" stroke="#000" stroke-miterlimit="10" stroke-linecap="round" stroke-linejoin="round"/><path d="M145.65 53.98h-.99"/><path d="M143.07 53.93h-.95" stroke="#000" stroke-miterlimit="10" stroke-linecap="round" stroke-linejoin="round"/><path d="M142.95 50.96H142" stroke="#000" stroke-miterlimit="10" stroke-linecap="round" stroke-linejoin="round"/><path d="M145.8 50.98h-.95" stroke="#000" stroke-miterlimit="10" stroke-linecap="round" stroke-linejoin="round"/><path d="M148.64 51.02h-.95"/><path d="M145.96 48.5h-.95" stroke="#000" stroke-miterlimit="10" stroke-linecap="round" stroke-linejoin="round"/><path d="M148.9 48.5h-.94" stroke="#000" stroke-miterlimit="10" stroke-linecap="round" stroke-linejoin="round"/><path d="M257.79 201.49a10.9 10.9 0 0 1 11.01-10.8 10.9 10.9 0 0 1 11.01 10.8 10.9 10.9 0 0 1-11.01 10.79 10.9 10.9 0 0 1-11.01-10.8Z" fill="#F1D244" fill-opacity=".69" stroke="#000" stroke-miterlimit="10" stroke-linecap="round" stroke-linejoin="round"/><path d="M264.12 201.5c0-1.81.27-3.3.62-3.3.34 0 .62 1.49.62 3.3 0 1.83-.28 3.3-.62 3.3-.35 0-.62-1.47-.62-3.3Z" stroke="#000" stroke-miterlimit="10" stroke-linecap="round" stroke-linejoin="round"/><path d="M272.11 201.53c0-1.82.28-3.3.62-3.3.34 0 .62 1.48.62 3.3 0 1.82-.28 3.3-.62 3.3-.34 0-.62-1.48-.62-3.3Z" stroke="#000" stroke-miterlimit="10" stroke-linecap="round" stroke-linejoin="round"/><path d="m273.33 161.05-6.4-11.07-6.39-11.08h25.58l-6.4 11.08-6.39 11.07Z" fill="#F1D244" fill-opacity=".69" stroke="#000" stroke-miterlimit="10" stroke-linecap="round" stroke-linejoin="round"/><path d="M439.75 107.94c6.12 0 11.07 4.96 11.07 11.08v32.63c0 6.11-4.95 11.07-11.07 11.07-2.97 0-11.08-.19-11.08-.19v-54.5s9.79-.09 11.08-.09Z" stroke="#000" stroke-miterlimit="10" stroke-linecap="round" stroke-linejoin="round"/><path d="M428.96 116.73h14.83c.16 0 .29.13.29.28v36.14c0 .16-.13.29-.29.29h-14.83a.28.28 0 0 1-.29-.29v-36.14c0-.15.13-.28.29-.28Z" stroke="#000" stroke-miterlimit="10" stroke-linecap="round" stroke-linejoin="round"/><path d="M428.67 122.3h5.36v26.92h-5.36V122.3Z" stroke="#000" stroke-miterlimit="10" stroke-linecap="round" stroke-linejoin="round"/><path d="M37.9 399.33c0-3.48 2.2-6.3 4.92-6.3 2.71 0 4.92 2.82 4.92 6.3s-2.2 6.3-4.92 6.3c-2.72 0-4.93-2.82-4.93-6.3Z" fill="#F1D244" fill-opacity=".69" stroke="#000" stroke-miterlimit="10" stroke-linecap="round" stroke-linejoin="round"/><path d="M25.14 384.26h2.64a2.66 2.66 0 0 1 2.66 2.66v24.26c0 1.47-1.2 2.66-2.66 2.66h-2.64a2.66 2.66 0 0 1-2.66-2.66v-24.26c0-1.47 1.2-2.66 2.66-2.66Z" stroke="#000" stroke-miterlimit="10" stroke-linecap="round" stroke-linejoin="round"/><path d="M23.5 371.53h5.61c.73 0 1.33.34 1.33.76v2.25c0 .42-.6.76-1.33.76H23.5c-.73 0-1.33-.34-1.33-.76v-2.25c0-.42.6-.76 1.33-.76Z" fill="#2B354E" stroke="#000" stroke-miterlimit="10" stroke-linecap="round" stroke-linejoin="round"/><path d="M292.22 455.9a6.3 6.3 0 0 1 6.38-6.21 6.3 6.3 0 0 1 6.38 6.2 6.3 6.3 0 0 1-6.38 6.22 6.3 6.3 0 0 1-6.38-6.21Z" fill="#171C2A" fill-opacity=".93" stroke="#000" stroke-miterlimit="10" stroke-linecap="round" stroke-linejoin="round"/><path d="M312.43 455.69a6.3 6.3 0 0 1 6.38-6.21 6.3 6.3 0 0 1 6.38 6.2 6.3 6.3 0 0 1-6.38 6.21 6.3 6.3 0 0 1-6.38-6.2Z" fill="#F1D244" fill-opacity=".69" stroke="#000" stroke-miterlimit="10" stroke-linecap="round" stroke-linejoin="round"/><path d="M332.22 455.53a6.3 6.3 0 0 1 6.38-6.2 6.3 6.3 0 0 1 6.38 6.2 6.3 6.3 0 0 1-6.38 6.2 6.3 6.3 0 0 1-6.38-6.2Z" fill="#F1D244" fill-opacity=".69" stroke="#000" stroke-miterlimit="10" stroke-linecap="round" stroke-linejoin="round"/><path d="M298.6 462.1v25.54" stroke="#000" stroke-miterlimit="10" stroke-linecap="round" stroke-linejoin="round"/><path d="M317.4 454.24v3.18" stroke="#000" stroke-miterlimit="10" stroke-linecap="round" stroke-linejoin="round"/><path d="M320.63 454.27v3.1" stroke="#000" stroke-miterlimit="10" stroke-linecap="round" stroke-linejoin="round"/><path d="M336.65 454.29v2.58" stroke="#000" stroke-miterlimit="10" stroke-linecap="round" stroke-linejoin="round"/><path d="m308.69 56.4.21-2.94s-5.96-2.1-5.91-2.6c.25-2.75.72-3.87 2.5-6.31.39-.53 5.59 2.89 5.59 2.89l2.34-2.62s-4.41-4.45-4.1-4.73c1.8-1.58 3.07-2.76 5.36-3.6.73-.26 3.07 5.6 3.84 5.43.5-.12 2.17-.57 2.17-.57s-.55-6.01-.12-6.05a19.7 19.7 0 0 1 1.57-.06c2.23 0 3.55.1 5.54.8.48.16-1.6 5.85-1.13 6.05.59.26 3.74 1.5 3.74 1.5s2.73-5.03 3.37-4.55a19.74 19.74 0 0 1 4.71 4.97c.5.74-4.03 3.78-4.03 3.78l1.24 3.19s5.45-1.04 5.56-.4c.2 1.13.52 3.21.52 4.4 0 1.48-.16 1.73-.47 3.12-.2.93-5.57-.7-5.57-.7l-1.6 4.68s5.27 2.44 4.93 2.92c-.88 1.26-3.28 4.6-4.36 5.6-.7.64-4.2-4.3-4.2-4.3s-1.96 1.24-2.5 1.52c-.47.25 2.24 5.25 1.74 5.46a16.8 16.8 0 0 1-6.76 1.22c-.61 0-.52-5.62-.52-5.62l-3.77-.68s-1.8 5.65-2.35 5.5c-2.8-.79-4.69-1.9-6.83-3.76-.61-.54 3.7-4.8 3.7-4.8l-2.34-3s-5.49 2.8-5.8 2.21a19.74 19.74 0 0 1-2.1-6.3c-.16-1 5.83-1.65 5.83-1.65Z" fill="#28334C"/><path d="M340.62 454.36v2.76" stroke="#000" stroke-miterlimit="10" stroke-linecap="round" stroke-linejoin="round"/><path d="M314 54.96a8.73 8.73 0 0 1 8.64-8.82 8.73 8.73 0 0 1 8.64 8.82 8.73 8.73 0 0 1-8.64 8.82 8.73 8.73 0 0 1-8.64-8.82Z" fill="#000" fill-opacity=".4"/><path d="m339.21 32.97.1-1.43s-2.95-1.02-2.92-1.27a4.97 4.97 0 0 1 1.24-3.08c.19-.26 2.77 1.4 2.77 1.4l1.15-1.27s-2.18-2.17-2.02-2.3c.89-.78 1.52-1.35 2.65-1.76.36-.13 1.52 2.73 1.9 2.65l1.08-.28s-.27-2.93-.06-2.95l.78-.03c1.1 0 1.76.05 2.74.39.24.08-.79 2.85-.56 2.95.3.13 1.85.73 1.85.73s1.36-2.45 1.68-2.22c.91.67 1.7 1.49 2.33 2.43.25.36-2 1.84-2 1.84l.62 1.55s2.7-.5 2.75-.19c.1.55.26 1.57.26 2.15 0 .72-.08.84-.23 1.52-.1.45-2.76-.35-2.76-.35l-.8 2.3s2.62 1.18 2.45 1.41c-.44.62-1.63 2.24-2.16 2.73-.35.32-2.08-2.09-2.08-2.09s-.98.6-1.24.74c-.24.12 1.1 2.56.86 2.66a8.4 8.4 0 0 1-3.35.6c-.3 0-.26-2.75-.26-2.75l-1.87-.32s-.9 2.75-1.16 2.68a8.1 8.1 0 0 1-3.38-1.84c-.3-.26 1.83-2.33 1.83-2.33l-1.16-1.47s-2.72 1.37-2.88 1.08a9.57 9.57 0 0 1-1.04-3.08c-.07-.49 2.9-.8 2.9-.8Z" fill="#28334C"/><path d="M342.57 32.32a3.44 3.44 0 0 1 3.49-3.38c1.93 0 3.49 1.5 3.49 3.38a3.44 3.44 0 0 1-3.5 3.38 3.44 3.44 0 0 1-3.48-3.38Z" fill="#000" fill-opacity=".4"/><path d="M358.81 20.82h5.57v26.62h-5.57V20.82Z" fill="#FDDF19" stroke="#000" stroke-miterlimit="10" stroke-linecap="round" stroke-linejoin="round"/><path d="M366.95 23.9h5.41v23.54h-5.4V23.9Z" fill="#171C2A" stroke="#000" stroke-miterlimit="10" stroke-linecap="round" stroke-linejoin="round"/><path d="M374.5 20.52h5.37v26.92h-5.38V20.52Z" fill="#FDDF19" stroke="#000" stroke-miterlimit="10" stroke-linecap="round" stroke-linejoin="round"/><path d="M382.54 20.52h5.37v26.92h-5.37V20.52Z" fill="#F1D244" stroke="#000" stroke-miterlimit="10" stroke-linecap="round" stroke-linejoin="round"/><path d="M390.29 20.52h5.37v26.92h-5.38V20.52Z" fill="#F1D244" stroke="#000" stroke-miterlimit="10" stroke-linecap="round" stroke-linejoin="round"/><path d="M398.12 20.52h5.37v26.92h-5.38V20.52Z" fill="#171C2A" stroke="#000" stroke-miterlimit="10" stroke-linecap="round" stroke-linejoin="round"/><path d="M406.16 31.9h5.37v15.54h-5.37V31.9Z" fill="#F1D244" stroke="#000" stroke-miterlimit="10" stroke-linecap="round" stroke-linejoin="round"/><path d="M341.26 121.97h4.95v13.75h-4.95v-13.75Z" fill="#171C2A" stroke="#000" stroke-miterlimit="10" stroke-linecap="round" stroke-linejoin="round"/><path d="M352.6 121.97h4.95v13.75h-4.94v-13.75Z" fill="#171C2A" stroke="#000" stroke-miterlimit="10" stroke-linecap="round" stroke-linejoin="round"/><path d="M364.3 121.97h4.95v13.75h-4.94v-13.75Z" fill="#171C2A" stroke="#000" stroke-miterlimit="10" stroke-linecap="round" stroke-linejoin="round"/><path d="M375.86 121.97h4.95v13.75h-4.95v-13.75Z" fill="#171C2A" stroke="#000" stroke-miterlimit="10" stroke-linecap="round" stroke-linejoin="round"/><path d="M387.01 121.97h4.95v13.75H387v-13.75Z" fill="#171C2A" stroke="#000" stroke-miterlimit="10" stroke-linecap="round" stroke-linejoin="round"/><path d="M397.62 121.97h4.95v13.75h-4.95v-13.75Z" fill="#171C2A" stroke="#000" stroke-miterlimit="10" stroke-linecap="round" stroke-linejoin="round"/><path d="M408.25 121.97h4.95v13.75h-4.95v-13.75Z" fill="#171C2A" stroke="#000" stroke-miterlimit="10" stroke-linecap="round" stroke-linejoin="round"/><path d="m408.12 104.8-62.38.21" stroke="#000" stroke-miterlimit="10" stroke-linecap="round" stroke-linejoin="round"/><path d="m346.1 104.66-2.84-2.82-.36-.35-.35.36-2.81 2.83-.35.35.35.36 2.83 2.8.36.36.35-.35 2.82-2.84.35-.35-.36-.35Zm-.71.7v-.7l-2.82 2.83h.7l-2.82-2.81v.7l2.81-2.83h-.7l2.83 2.82Z" fill="#000"/><path d="m407.77 105.15 2.84 2.82.35.35.35-.35 2.81-2.84.36-.35-.36-.35-2.83-2.82-.36-.35-.35.35-2.81 2.84-.35.35.35.35Zm.7-.7v.7l2.82-2.83h-.7l2.83 2.81v-.7l-2.82 2.83h.71l-2.83-2.82Z" fill="#000"/><path d="m409.33 151.77-62.38.22" stroke="#000" stroke-miterlimit="10" stroke-linecap="round" stroke-linejoin="round"/><path d="m347.3 151.63-2.83-2.81-.36-.35-.35.35-2.81 2.83-.35.36.35.35 2.83 2.81.36.36.35-.36 2.81-2.83.35-.36-.35-.35Zm-.7.71v-.7l-2.82 2.83h.7l-2.83-2.82v.7l2.82-2.83h-.7l2.83 2.82Z" fill="#000"/><path d="m408.98 152.13 2.83 2.81.36.35.35-.35 2.81-2.83.36-.36-.36-.35-2.83-2.81-.36-.35-.35.35-2.81 2.83-.36.36.36.35Zm.7-.71v.7l2.82-2.83h-.7l2.83 2.82v-.7l-2.82 2.83h.7l-2.82-2.82Z" fill="#000"/><path d="m268.4 250.83 130.81-.18"/><path d="M334.02 308.4h53.94v8.68h-53.94v-8.69Z"/><path d="m330.72 263.6 21.53 33.08-40.2-.09 18.67-32.99Z" fill="#F1D244" stroke="#000" stroke-miterlimit="10" stroke-linecap="round" stroke-linejoin="round"/><path d="M329.81 275.02h2.8v13.04h-2.8v-13.04Z" fill="#18223C"/><path d="M329.8 292.24c0-.77.66-1.4 1.47-1.4.81 0 1.47.63 1.47 1.4 0 .78-.66 1.4-1.47 1.4-.81 0-1.47-.62-1.47-1.4Z" fill="#18223C"/><path d="M296.25 540.19s-18.85-38.33-20.3-73.74c-1.45-35.4 12.2-35.46 10.26-71.1-.94-17.25-12.15-36.22-23.58-45.85-15.76-13.27-46.25-10.47-46.25-10.47l28.77 52.45-14.52 9.86-5.94 4.04L201.04 360s-5.65 15.9-6.7 31.18c-1.04 15.29 2.28 32.06 2.28 32.06l10.85-6.56-17.28 10.73s20.92 17.65 37.8 45.94c16.89 28.3 29.74 67.23 29.74 67.23l38.52-.4Z" fill="#2B354E"/><path d="M221.77 338.14a90.85 90.85 0 0 0-4.83.2l-.47.04c-.02 0-.13 0-.15.02-.19.18-.42.32-.57.54-.05.08 0 .2.02.29l.02.05c.12.3.32.6.47.87l.87 1.57 4 7.26 17.2 31.25c1.48 2.66 2.95 5.32 4.41 7.99l1.55 2.8.16.29c-.46.34-.95.64-1.41.96l-3.18 2.16-8.6 5.87-4.64 3.16-1.57 1.08-.19.12-.1-.21-.54-1.02c-.56-1.07-1.1-2.13-1.67-3.2l-7.98-15.25-10.13-19.38c-.75-1.42-1.5-2.83-2.23-4.25l-.64-1.22c-.05-.1-.1-.25-.18-.34-.03-.04-.05-.12-.1-.1-.22.02-.42.12-.63.19-.03 0-.06.17-.07.18l-.18.54a151.1 151.1 0 0 0-3.67 13.09 109.72 109.72 0 0 0-2.76 17.47 117.9 117.9 0 0 0 .66 20.66c.32 2.95.72 5.9 1.2 8.84.12.67.22 1.35.35 2.01l.1.5c0 .02 0 .1.02.13l-2.21 1.37-3.12 1.94-.46.3c-.14.08-.29.17-.43.27-.04.02-.12.06-.12.1 0 .12.04.23.06.34 0 .03.13.11.16.13l.37.32 1.09.98c1.5 1.35 2.97 2.74 4.41 4.16a204.82 204.82 0 0 1 16.32 18.08 198.09 198.09 0 0 1 15.47 22.16 241.35 241.35 0 0 1 9.5 17.63c3.38 6.9 6.5 13.9 9.47 20.98a477.8 477.8 0 0 1 10.17 26.53l.53 1.57.12.34c0 .03.02.11.06.14.05.03.19 0 .22 0h.56l1.77-.02 36-.43-25.77.23-8.44.08-2.91.02-1.1.01h-.26v-.03l-.05-.13-.14-.4-.38-1.13a366.67 366.67 0 0 0-4.62-12.79 449.17 449.17 0 0 0-11.6-27.92c-4.16-9.1-8.7-18.07-13.9-26.62-5-8.2-10.63-16.01-16.75-23.41a204.07 204.07 0 0 0-17.7-18.85l-1.48-1.34-.52-.46 1.09-.68 2.33-1.43 9.88-6.13 2.9-1.79.52-.31.14-.08.03-.03.02-.01c.02-.03.07-.05.07-.05-.1-.17-.23-.31-.35-.46l-.02.02-.16.08-.34.22-.59.35-1.6.96-6.03 3.64-1.1.66-.58.35c-.05-.24-.1-.48-.13-.72a136.15 136.15 0 0 1-1.25-8.75 125.48 125.48 0 0 1-.87-20.16c.36-7.58 1.79-15.1 3.69-22.42a152.6 152.6 0 0 1 2.78-9.47l.06-.18.04.06.3.6.64 1.22 3 5.8 14.26 27.45 3.99 7.69.35.68.19.35c.1.18.23.53.38.7.2.2.52.25.78.12.42-.22.8-.55 1.19-.81l1.7-1.15 5.7-3.86 8.63-5.84 2.27-1.54.45-.3c.21-.15.44-.28.56-.52a.75.75 0 0 0 .04-.5c-.06-.21-.26-.51-.36-.7l-.2-.34-.19-.36-.18-.35-2.5-4.58-11.33-20.73-9.3-17.03-3.08-5.63-1.03-1.9h.13l2.08-.1a102.36 102.36 0 0 1 18.17 1 67.4 67.4 0 0 1 11.98 2.86 40.75 40.75 0 0 1 10.39 5.17 42 42 0 0 1 5.83 5.16 69.18 69.18 0 0 1 7.3 9.04c4.95 7.27 8.85 15.5 10.84 24.1.49 2.12.85 4.28 1.07 6.45.26 2.6.31 5.25.33 7.88a87.3 87.3 0 0 1-1.05 14.52c-.2 1.21-.48 2.42-.73 3.62-.16.76-.3 1.53-.48 2.28-.22.89-.5 1.76-.74 2.64l-.58 2.05c-.23.75-.48 1.49-.72 2.23-.85 2.64-1.75 5.26-2.54 7.91a79.26 79.26 0 0 0-3.01 14.9c-.39 3.8-.5 7.61-.42 11.43.1 5.55.6 11.08 1.43 16.56 1.8 11.97 5.02 23.72 8.99 35.15a258.11 258.11 0 0 0 6.71 17.3c.51 1.2 1.4 3.09 2.36 5.15a236.22 236.22 0 0 1-14.78-44.6c-2.7-12.29-4.23-24.97-3.3-37.55a77.1 77.1 0 0 1 2.93-16.15c.92-3.14 2.01-6.22 3.05-9.32.29-.84.6-1.67.86-2.52.25-.8.46-1.6.7-2.38.23-.8.49-1.6.7-2.4.21-.88.37-1.77.56-2.65.2-.88.41-1.76.58-2.65.2-.97.34-1.94.47-2.92.58-4.18.76-8.41.72-12.62-.04-3.8-.2-7.6-.84-11.35a64.51 64.51 0 0 0-4.56-14.83 78.37 78.37 0 0 0-10.6-17.54 63.82 63.82 0 0 0-5.62-6.19 38.94 38.94 0 0 0-5.73-4.62c-6.27-4.07-13.64-6.12-20.95-7.3a97.86 97.86 0 0 0-17.18-1.16Zm72.99 198.75.1.28 1.4 3.02-1.5-3.3Z" fill="#F1D244"/><path d="m217.17 429.91 29.7-19.9 5.65 11.24 8.46 16.83-7.05-13.23s-.3-1.54-1.27-2.68c-.72-.84-2.03-1.17-2.64-1.93-2.16-2.7-3.42-3.3-.16 4.18.95 2.17-5.6-4.66-6.42-4.24-1.87.95 4.32 7.3 3.02 8.47-1.3 1.17-6.28-4.68-8.22-3.81-1.94.86 2.02 6.42.47 7.28-1.56.86-5.39-4.44-6.7-3.87-1.3.58 1.48 6.23.16 7.31-1.31 1.08-3.9-3.85-5.4-2.99-1.52.87.67 5.3.67 5.3l-2.93 2.38-7.34-10.25 17.07 24.44 3.93 4.86s-2.55-3.62-4.1-5.56c-.73-.92 1.13-2.38 1.55-2.62 1.33-.77 3.07 2.4 4.49 1.5 1.4-.9-.74-4.06.2-4.6.95-.55 3.01 1.98 4.05 1.48 1.03-.5-.7-5.55.4-6.07 1.11-.53 3.57 3.16 4.72 3.15 1.14 0-1.17-5.16-.14-5.79 1.02-.63 3.67 3.01 4.85 1.97 1.17-1.03-1.02-5.46-.15-6.12.86-.65 2.76 3.57 3.98 3.09 1.22-.48.9-5.02.9-5.02l3.72 6.16-24.4 18.48" fill="#171C2A" fill-opacity=".93"/><path d="M249.79 481.91c-.06-2.53 12.4-26.35 13.69-21.27 6.84 27.02 23.06 79.1 23.06 79.1l-18.3.27s-18.08-42.7-18.45-58.1Z" fill="#000" fill-opacity=".4" stroke="#000" stroke-miterlimit="10" stroke-linecap="round" stroke-linejoin="round"/><path d="M216.96 468.52s37.78 9.24 41.42 16.59c3.65 7.35-49.56 9.78-49.56 9.78s58.95-7.36 65.33 3.88c6.38 11.25-25.46 17.58-25.46 17.58s.58.7 8.46 1.68c12.48 1.55 28.48 5.67 27.8 16.56-1.11 17.76-46.11 12.88-46.11 12.88s-44.26 0-44.41-14.5c-.16-14.5 55.54-15.1 54.43-16.2-1.11-1.12-61.37 9.23-64.2-4.55-2.82-13.78 24.67-17.2 24.67-17.2s-27.94-.13-26.3-11.2c.85-5.69 5.05-19.42 12.51-26.19 7.04-6.39 17.99-4.7 17.99-4.7" fill="#C5A27E"/><path d="M211.12 452.12c-1.34-.05-2.68 0-4.01.15-2.98.3-5.95 1.07-8.59 2.5-2.92 1.58-5.23 4-7.15 6.67a50.63 50.63 0 0 0-6.23 12.26 59.98 59.98 0 0 0-2.34 7.97c-.3 1.38-.62 2.81-.35 4.23.47 2.5 2.5 4.27 4.63 5.45 1.7.93 3.53 1.58 5.39 2.1 2.63.74 5.32 1.22 8.03 1.57 1.23.15 2.47.22 3.7.32-1.88.42-3.76.9-5.6 1.5a44.78 44.78 0 0 0-6.15 2.49c-3.84 1.97-7.82 5.01-8.51 9.57-.1.7-.13 1.4-.07 2.11.07 1.02.27 2.03.78 2.94a8.2 8.2 0 0 0 3.5 3.06c2.43 1.25 5.19 1.84 7.87 2.26 4.67.72 9.42.84 14.13.8 2.83-.02 5.65-.13 8.47-.28l-2.3.4c-4.7.9-9.43 2-13.86 3.85-.63.27-1.25.55-1.86.85-3.01 1.5-6.51 3.9-6.78 7.6a7.56 7.56 0 0 0 .97 4.13c.57.99 1.34 1.86 2.2 2.6a18.84 18.84 0 0 0 4.18 2.69 46.64 46.64 0 0 0 10.58 3.43 114.2 114.2 0 0 0 14.62 2.13 169.25 169.25 0 0 0 11.11.6l.94.01h.41l.07.01.23.03a94.92 94.92 0 0 0 3 .25c2.09.14 4.17.23 6.26.29 6.28.15 12.64-.04 18.84-1.07a42.08 42.08 0 0 0 6.07-1.37c4.86-1.44 10.34-4.1 11.87-9.35a10.55 10.55 0 0 0-.04-5.95c-1.09-3.54-4.07-6.05-7.2-7.8a38.52 38.52 0 0 0-8.1-3.22 79.18 79.18 0 0 0-11.02-2.25c-2.25-.32-4.52-.56-6.75-.98l-1.04-.23a102.84 102.84 0 0 0 8.93-2.57 49.54 49.54 0 0 0 9.25-4.09c1.69-1 3.35-2.17 4.62-3.69a7.47 7.47 0 0 0 1.65-3.21 6.45 6.45 0 0 0-2.55-6.34 16.07 16.07 0 0 0-5.34-2.44 53.1 53.1 0 0 0-10.05-1.7c-4.28-.38-8.58-.45-12.88-.43 1.87-.33 3.74-.67 5.6-1.11 1.41-.34 2.83-.72 4.2-1.21.93-.33 1.86-.71 2.7-1.22.85-.5 1.75-1.2 1.97-2.2.26-1.27-.8-2.4-1.65-3.2a18.2 18.2 0 0 0-3.12-2.21 46.18 46.18 0 0 0-4.24-2.18c-5-2.3-10.24-4.08-15.47-5.74a275.38 275.38 0 0 0-17.54-4.96.6.6 0 0 0-.72.44.6.6 0 0 0 .44.72c5.87 1.44 11.7 3.1 17.46 4.93 5.1 1.62 10.2 3.36 15.07 5.57 1.5.68 2.98 1.4 4.4 2.24a18.5 18.5 0 0 1 2.66 1.85c.5.43 1 .92 1.33 1.5.16.26.28.55.2.86-.12.39-.44.69-.74.93-.62.48-1.34.83-2.06 1.13-1.29.54-2.62.93-3.97 1.28a72 72 0 0 1-4.82 1.07c-3.66.7-7.36 1.2-11.05 1.66l-.83.08a340.53 340.53 0 0 0-23.74 1.87l-.67.08-1.14.14-.09.01h-.03c-.1.01-.2.02-.21.05l-.02.03-.61-.02-.43-.01-.73-.04-1.14-.06a109.54 109.54 0 0 1-3.07-.26 62.2 62.2 0 0 1-8.15-1.3 28.58 28.58 0 0 1-6.1-2.1c-1.96-.97-4.05-2.42-4.6-4.66a6.52 6.52 0 0 1 .04-2.75 59.84 59.84 0 0 1 2.53-9.05c1.6-4.4 3.65-8.74 6.47-12.5a19.97 19.97 0 0 1 5.87-5.5 21.67 21.67 0 0 1 8.59-2.62 28.75 28.75 0 0 1 6.2.04c.34.05.65-.18.7-.52a.63.63 0 0 0-.52-.71 19 19 0 0 0-2.5-.2Zm32.84 41c4.2-.02 8.41.07 12.6.4 2.92.24 5.85.58 8.7 1.22 1.9.43 3.8.97 5.51 1.87 1.8.94 3.18 2.24 3.55 4.32a4.58 4.58 0 0 1-.27 2.53 8.16 8.16 0 0 1-2.15 2.9 24.46 24.46 0 0 1-6.15 3.9 68.62 68.62 0 0 1-10.84 3.92c-1.72.5-3.46.94-5.2 1.33l-.53.12c-.34.07-.85.1-1.03.44h-.77l-.52.04-.6.05-.87.08c-4.66.41-9.31.94-13.97 1.37a274.3 274.3 0 0 1-18.88 1.17c-4.8.11-9.62.07-14.39-.5-2.85-.32-5.77-.8-8.44-1.92a8.53 8.53 0 0 1-3.65-2.55 5.37 5.37 0 0 1-.95-2.9 8.44 8.44 0 0 1 1.93-5.93 17.6 17.6 0 0 1 5.6-4.33 44.28 44.28 0 0 1 9.82-3.62 64.58 64.58 0 0 1 6.74-1.36l.1-.02h.02c.1-.01.2-.02.25-.05l.2-.15.13-.01.56-.03.67-.04c3.1-.18 6.18-.38 9.27-.62 4.6-.35 9.21-.8 13.8-1.34 3.25-.15 6.5-.26 9.76-.28Zm5.35 24.11c.39.13.78.25 1.17.34 2.82.64 5.7.92 8.56 1.33a74.7 74.7 0 0 1 11.22 2.4 35.3 35.3 0 0 1 7.39 3.05c2.82 1.62 5.53 3.96 6.4 7.21a9.15 9.15 0 0 1-1.28 7.53 11.69 11.69 0 0 1-2.84 2.8 21.84 21.84 0 0 1-5.45 2.68 46.4 46.4 0 0 1-8.49 1.98c-6.63.98-13.39 1.08-20.07.8-1.6-.07-3.2-.16-4.78-.29-.76-.06-1.5-.16-2.26-.2-.75-.04-1.5-.02-2.24-.03-1.57-.05-3.12-.1-4.68-.2-6.23-.33-12.48-.96-18.6-2.2-3.98-.8-8-1.83-11.66-3.63a17.46 17.46 0 0 1-3.9-2.5 8.98 8.98 0 0 1-1.93-2.3 6.3 6.3 0 0 1-.81-3.43c.19-2.69 2.59-4.6 4.74-5.85a24.98 24.98 0 0 1 2.52-1.26 49.14 49.14 0 0 1 4.34-1.62 95.59 95.59 0 0 1 7.8-2.01c1.97-.42 3.94-.78 5.92-1.1a299.77 299.77 0 0 1 22.57-2.57l1.84-.16 1.34-.13.76-.07.67-.07.42-.06c.36-.05 1.04-.12 1.33-.44Z" fill="#000"/><path d="M280.22 469.82c-29.2-17-72.28-23.94-71.02-11.69 1.26 12.25 62 47.33 62 47.33s-9.77 22.74-.7 38.94c9.08 16.2 49.06 26.6 49.06 26.6-6.4-14.06 4.06-33.9-5.53-63.9-9.6-30-29.47-34.75-33.81-37.28Z" fill="#D0AC88"/><path d="M220.08 451.6c-1.12.02-2.25.09-3.36.22-1.4.18-2.8.45-4.1.96-.75.28-1.47.65-2.1 1.13a5.29 5.29 0 0 0-1.6 2.12c-1.06 2.79.92 5.7 2.57 7.8a33 33 0 0 0 2.22 2.55c.58.62 1.17 1.21 1.78 1.8 4.53 4.44 9.56 8.37 14.63 12.15a385.64 385.64 0 0 0 23.28 15.93 592.25 592.25 0 0 0 15.22 9.38l.76.45-.24.63a66.32 66.32 0 0 0-3.6 14.95c-.7 5.79-.53 11.74 1.12 17.36a27.28 27.28 0 0 0 3.22 7.18 31.1 31.1 0 0 0 7.06 7.36 73.18 73.18 0 0 0 13.17 7.93c6.21 3 12.68 5.48 19.24 7.61a176.03 176.03 0 0 0 9.32 2.75l.5.13s.1.04.12.03c.4-.18.88-.23 1.2-.53.17-.16.08-.46.1-.69.02-.14-.24-.58-.26-.64l-.19-.43c-.35-.85-.64-1.73-.88-2.62-1-3.69-1.12-7.57-1.05-11.38.08-4 .35-8 .5-12 .15-3.78.2-7.57.05-11.36a93.18 93.18 0 0 0-3.82-23 82.3 82.3 0 0 0-3.74-10.12 58.86 58.86 0 0 0-10.06-15.58 48.73 48.73 0 0 0-8.86-7.61l-.36-.21c1.25.82 2.47 1.7 3.64 2.65 7.42 5.97 12.75 14.11 16.25 22.9a84.48 84.48 0 0 1 5.18 19.92c.64 4.77.88 9.59.8 14.4-.07 4.37-.41 8.73-.76 13.1-.29 3.67-.6 7.35-.56 11.04.03 2.6.24 5.21.85 7.75.15.6.34 1.2.53 1.8l-.02-.02c-1.13-.34-2.25-.7-3.38-1.05-3.41-1.1-6.8-2.3-10.15-3.6-6.65-2.55-13.23-5.47-19.34-9.16-3.8-2.3-7.52-4.92-10.5-8.24a21.1 21.1 0 0 1-2.11-2.74c-1.22-1.88-2.1-4-2.76-6.15-1.57-5.14-1.72-10.63-1.14-15.94a67 67 0 0 1 3.13-13.87l.4-1.11.4-1.07c.24-.6.48-1.12.05-1.79-.24-.36-.6-.54-.97-.75l-.71-.4-3.05-1.8a719.7 719.7 0 0 1-11.15-6.7 526.82 526.82 0 0 1-22.63-14.6c-5.54-3.81-11.03-7.73-16.09-12.16a51.32 51.32 0 0 1-5.1-5c-.34-.41-.7-.83-1.02-1.25-1.3-1.72-2.79-4.14-1.5-6.27.18-.3.42-.59.68-.83.4-.37.84-.67 1.32-.93.79-.42 1.64-.71 2.5-.94a23.6 23.6 0 0 1 3.91-.63c2.22-.2 4.46-.18 6.68-.06 3.58.2 7.15.68 10.67 1.32 6.14 1.1 12.19 2.69 18.1 4.62a144.68 144.68 0 0 1 18.6 7.5l-.5-.25a151.77 151.77 0 0 0-18.56-7.54 141.85 141.85 0 0 0-19.39-5.04 83.42 83.42 0 0 0-10.78-1.31 47.07 47.07 0 0 0-3.36-.05Zm52.58 14.18c1.61.8 0 0 7.52 4.1.03.02.08.01.1-.02v-.02a.1.1 0 0 0-.02-.09c-3.27-1.79-2.18-1.21-3.27-1.79a166.6 166.6 0 0 0-4.33-2.18Zm7.62 4.06c.07.04.5.28.75.4l.46.2a25.9 25.9 0 0 1-1.2-.6Zm11.64 6Zm-9.4-4.93c.86.38 1.71.77 2.56 1.17-.22-.1-.43-.23-.65-.33l-1.9-.84Zm2.56 1.17Z" fill="#000"/><path d="M383.6 434.74c0-4.81 3.64-8.71 8.12-8.71 4.49 0 8.12 3.9 8.12 8.71 0 4.82-3.63 8.72-8.12 8.72-4.48 0-8.12-3.9-8.12-8.72Z" fill="#000" fill-opacity=".4"/><g filter="url(#d)"><path d="M385.23 434.69a6.45 6.45 0 0 1 6.38-6.53 6.46 6.46 0 0 1 6.39 6.53c0 1.96-.85 3.72-2.19 4.92a6.29 6.29 0 0 1-4.2 1.6 6.46 6.46 0 0 1-6.38-6.52Z" fill="#445172" fill-opacity=".4"/><path d="M385.23 434.69a6.45 6.45 0 0 1 6.38-6.53 6.46 6.46 0 0 1 6.39 6.53c0 1.96-.85 3.72-2.19 4.92a6.29 6.29 0 0 1-4.2 1.6 6.46 6.46 0 0 1-6.38-6.52Z"/></g><path d="M104.56 346.5a2.58 2.58 0 0 1 2.57-2.6 2.58 2.58 0 0 1 2.58 2.6 2.58 2.58 0 0 1-2.58 2.58 2.58 2.58 0 0 1-2.57-2.58Z" fill="#F1D244"/><path d="m407.09 201.49 26.4.3"/><path d="m433.83 206.78-27.36.16"/><path d="M433.22 223.56h-26.08"/><path d="M433.99 229.05h-27.67"/><path d="M447 201.07h24.27"/><path d="M472.38 206.62h-25.82"/><path d="m447.05 223.51 24.3.23"/><path d="M471.55 229.25h-25.6"/><path d="M69.73 328.14c-.19-1.06 2.45-3.3 3-4 2.8-3.5 5.97-6.6 9.3-9.6.37-.34 2.6-2.3 3.13-2.14.03 0 .03.08.02.1-.86 1.63-2.56 2.7-3.75 4.04a50.7 50.7 0 0 0-7.7 11.07c-.11.23-1.6 3-1.57 3.02.7.42 3.05-2.67 3.26-2.93 2.37-2.9 12.16-10.84 12.24-10.63.15.41-8.5 9.77-10.2 12.85-.18.32-2.17 4.05-2.04 4.07.64.1 2.22-2.18 2.63-2.55 2.4-2.14 9.83-9.14 9.9-8.98.22.61-2.28 3.37-2.54 3.63-2.36 2.32-4.83 4.88-6.55 7.72-.22.36-2.13 3.01-1.57 3.54.31.29 2.03-2.03 2.13-2.12 2.2-2.15 4.35-4.26 6.65-6.3.02-.01 1.69-1.4 1.97-1.02.4.53-1.47 2.23-1.67 2.46-2.19 2.61-4.51 5.36-6.25 8.28-.57.96-1.1 2-1.52 3.03a67.3 67.3 0 0 0 2.53-2.41c2.04-2.38 4.2-4.59 6.35-6.85.57-.6 1.71-2.27 2-1.49.17.46-2.15 2.77-2.36 3.05-1.87 2.46-3.82 4.92-5.37 7.6-.33.56-.6 1.14-.92 1.7-.12.2-.43.64-.2.67.32.05 6.96-7.9 7.72-8.67.97-1 1.02-1.18 2-2.06.35-.3-7.49 8.3-7.2 11.48.02.15 3.08-3.1 3.21-3.26a95.2 95.2 0 0 1 5.94-6.19c-.55.84-1.15 1.64-1.71 2.46-.51.74-5.19 7.95-4.94 8.4.03.06.1-.06.14-.1.54-.67 1.03-1.37 1.58-2.03.63-.75 5.67-6.77 6.5-6.29.23.14 0 .56-.09.81-.47 1.29-4.55 8.29-4.36 8.88.15.5 1.48-2.23 1.83-2.62l.8-.95c1.37-1.65 2.68-3.34 4.35-4.69.23-.18-4.24 7.19-3.82 8.32.25.67.96-1.04 1.37-1.62 1.24-1.8 2.46-3.8 4.03-5.35.24-.24.68-.8.88-.52.2.29-3.37 6.76-3.04 6.22.8-1.34 1.74-2.76 2.98-3.74.12-.1.36-.33.42-.19.37 1-1.99 3-1.58 3.74.08.15.98-1.22 1-1.26.21-.4 1.43-3.16 1.98-3 .36.11-.42 1.29-.19 1.5"/><path d="M94.11 364.49c2.88.22 5.93.6 8.82.56 1.8-.02 3.57-.38 5.34-.58 1.43-.16 2.99-.3 4.41-.38 10.72-.57-17.82-.65-18.64-2.05-.78-1.35 3.12.03 4.68.06 1.1.01 12.52.65 12.78-1.23.07-.53-2.49-.69-2.69-.71-3.95-.44-7.92-.7-11.88-1.05-.2-.02-1.8.05-1.8-.36 0-.4.54-.52.83-.52 2.15.02 12.6 1.5 14.23-.42.07-.08-2.15-.84-2.33-.89-.46-.13-8.81-1.75-8.76-1.85.38-.78 9.58.2 11.2.2" fill="#2B354E"/><path d="M94.11 364.49c2.88.22 5.93.6 8.82.56 1.8-.02 3.57-.38 5.34-.58 1.43-.16 2.99-.3 4.41-.38 10.72-.57-17.82-.65-18.64-2.05-.78-1.35 3.12.03 4.68.06 1.1.01 12.52.65 12.78-1.23.07-.53-2.49-.69-2.69-.71-3.95-.44-7.92-.7-11.88-1.05-.2-.02-1.8.05-1.8-.36 0-.4.54-.52.83-.52 2.15.02 12.6 1.5 14.23-.42.07-.08-2.15-.84-2.33-.89-.46-.13-8.81-1.75-8.76-1.85.38-.78 9.58.2 11.2.2"/><path d="M116.3 344.61c-.53-1.35-2.9-8.02-1.63-9.1.8-.69.72 1.98.95 3 .15.7 1.17 5.81 2.11 5.89.08 0-.53-2.58-.53-2.59a35.74 35.74 0 0 1-1.04-8.4s.05-.98.23-.97c.21.02.27.77.27.77.24 1.4 2.58 10.04 2.92 10.12 1.32.3-.24-2.69-.47-4.02-.5-2.93-.91-5.91-.67-8.88.04-.41.3-.62.36-.3.49 2.99.94 5.86 1.84 8.77.26.82.74 4.75 1.28 4.08a21.2 21.2 0 0 0-.16-2.1c-.4-3.51-.88-6.92-.86-10.48 0-.55-.26-1.67.28-1.62.1 0 .71 6.25.77 6.58.36 2 1.03 7.52 1.91 7.6.46.05-.67-9.08-.63-11.83.02-.92-.16-3.45.44-2.74.06.06 1.17 9.6 1.28 10.12.17.8.37 1.6.55 2.4.08.38 1.03 2.6.78 2.3-1-1.18-2.09-14.89-1.23-15.61 1.23-1.05.44 2.82.65 4.42a61.2 61.2 0 0 0 1.63 8.06c.24.88.7 2.47.92 3.35.13.53-1.47-8.61-1.14-13.32.08-1.12.58-2.68.62-2.34.56 4.35 1.35 8.67 2.39 12.94a99.9 99.9 0 0 0 1.5 5.3c.16.53-3.9-17.63-2.14-19.11.64-.54 1.15 5.48 1.53 7.03a60.52 60.52 0 0 0 3.07 9.89 93 93 0 0 0 1.99 4.11l-.69-1.85a69.95 69.95 0 0 1-1.57-4.74 60.8 60.8 0 0 1-1.94-10.5c-.14-1.38-.34-4.33-.57-5.7-.1-.57 1.28 5.12 1.58 6.1a99.48 99.48 0 0 0 4.67 11.85c.53 1.19 1.24 2.23 1.8 3.38.27.53.39 1.94.84 1.56.48-.4-1.53-4.91-1.6-5.15-1.44-4.51-2.34-9.08-3.9-13.55a86.4 86.4 0 0 1-1.43-4.48c-.03-.12-.07-1.98-.07-1.98 1.06.84 2.03 4.4 2.6 5.48 2.16 4.19 4.88 8.3 6.78 12.59.09.2 2.84 5.1 3 4.97.49-.41-2.5-6.25-2.81-6.84-1.1-2.05-9.35-18.16-8.5-17.75.23.11 1.6 2.44 3.53 5.61.73 1.2 1.1 1.76 1.81 3 .9 1.57 1.75 3.18 2.65 4.76 1.63 2.85 3.28 6.74 5.34 9.18.5.6-.48-1.5-.77-2.22-.51-1.28-1.31-2.44-1.9-3.69-1.97-4.11-4.36-7.82-6.68-11.74-.08-.13-3.66-6.6-3.52-6.6 1.17 0 3.8 4.8 4.27 5.47 1.62 2.36 5.64 9.01 8.1 11.07.5.43-2.81-5.11-3.8-6.44-.89-1.2-8.32-12.16-8.17-12.6.03-.08 1.77 2.33 1.9 2.51 1.51 2.02 2.94 4.04 4.68 5.86.34.35 1.96 2.25 1.78 2.03"/><path d="M403.66 357.63c-.52.08-1.06.58-1.38.88l-.38.38c-.08.1-.18.19-.27.28l-.27.3a20.86 20.86 0 0 0-1.16 1.43 57.12 57.12 0 0 0-3.03 4.46 60.94 60.94 0 0 0-2.37 4.12c-.43.84-.86 1.69-1.2 2.57-.17.42-.35.9-.33 1.35 0 .03.03.05.05.05.03 0 .06-.03.06-.06-.04-.44.13-.91.28-1.33.31-.89.72-1.74 1.16-2.58a54.3 54.3 0 0 1 6.09-9.24 20.38 20.38 0 0 1 1.13-1.22 5 5 0 0 1 1.36-1.06c.17-.07.38-.15.55-.07.55.26.58 1.06.57 1.57-.03 1.32-.4 2.63-.75 3.89-1.25 4.39-3.06 8.6-4.38 12.96a20.27 20.27 0 0 0-.4 1.64c-.16.82-.39 2.2.53 2.68.7.36 1.48-.03 2.04-.47a9.54 9.54 0 0 0 1.48-1.59c.5-.64.98-1.31 1.43-2 2.45-3.72 4.46-7.7 6.84-11.47a24.7 24.7 0 0 1 2.11-2.99c.23-.26.55-.6.9-.82v.06a12.9 12.9 0 0 1-.32 2.18c-.36 1.76-.82 3.5-1.3 5.24-1.46 5.28-3.15 10.5-4.7 15.77-.35 1.2-.71 2.4-.98 3.62-.1.46-.23 1.03.12 1.4.51.55 1.43.15 1.94-.18.64-.4 1.17-.97 1.67-1.53a26.5 26.5 0 0 0 1.78-2.31c2.94-4.19 5.3-8.74 7.99-13.09a47.98 47.98 0 0 1 2.09-3.12 9.23 9.23 0 0 1 .78-.88l.25-.2c.52-.35.5.51.5.83v.26l-.02.31-.02.35-.04.38-.05.42-.1.7-.13.78-.17.88a147.62 147.62 0 0 1-2.49 10.02c-.49 1.7-.98 3.42-1.44 5.14.57-2.08 1.22-4.14 1.82-6.2.8-2.75 1.55-5.5 2.2-8.28.35-1.5.74-3.07.8-4.63.02-.42.04-1.3-.5-1.45-.44-.12-.95.39-1.22.66-.78.79-1.42 1.71-2.06 2.61-2.72 3.87-5.16 7.92-7.9 11.78-1 1.38-2 2.78-3.19 4.01-.2.23-.45.41-.68.61l.05-.16c.47-1.55.98-3.09 1.48-4.62 1.78-5.43 3.6-10.86 4.98-16.4a54.65 54.65 0 0 0 .73-3.45c.17-1.1.43-2.63-.66-3.36-.14-.1-.3-.17-.46-.22-1.36-.44-2.57.86-3.34 1.8l-.33.43-.51.7a57.22 57.22 0 0 0-2.9 4.77c-1.36 2.43-2.65 4.91-4.03 7.34a28.93 28.93 0 0 1-2.7 4.15c-.26.32-.55.66-.9.88a1.1 1.1 0 0 1-.18.09l-.04-.17a4.1 4.1 0 0 1 .05-.86c.13-1.06.41-2.08.68-3.1 1.04-4.06 2.48-8 3.41-12.08.3-1.31.64-2.72.53-4.08-.05-.5-.18-1.1-.65-1.37a.75.75 0 0 0-.5-.1Zm16.02 30.7-.09.3a74.66 74.66 0 0 0 .1-.3Z" fill="#fff" fill-opacity=".46"/><path d="M360.83 57.03c-.12 0-.23.03-.34.06-.15.04-.3.09-.43.15-.24.1-.47.24-.7.38-.38.24-.72.5-1.06.79-.4.34-.78.69-1.16 1.04l.9-.79c.37-.3.75-.59 1.16-.84a6.05 6.05 0 0 1 1.2-.57c.1-.03.22-.04.33-.05.66-.02.41.84.3 1.22l-.1.3a7.75 7.75 0 0 1-.27.68l-.17.38a21.88 21.88 0 0 1-.63 1.24c-1.57 2.88-3.52 5.58-4.82 8.6-.43 1-1.03 2.58-.1 3.46.73.69 1.75.35 2.48-.15.61-.42 1.15-.94 1.67-1.47.74-.75 1.43-1.53 2.14-2.3.5-.54 1-1.07 1.52-1.58.08-.08.18-.14.27-.22-.1.36-.21.72-.36 1.05-.3.69-.65 1.36-1.02 2.01-.2.36-.42.71-.6 1.08a58.57 58.57 0 0 0-3.08 7.86 197.2 197.2 0 0 0-2.57 8.76 61.96 61.96 0 0 1 4.44-11.95 46.74 46.74 0 0 1 2.37-4c.17-.25.36-.48.53-.72a22.72 22.72 0 0 0 1.64-2.62c.48-.97 1.02-2.42.11-3.33a1.5 1.5 0 0 0-.47-.32c-.1-.05-.21-.07-.33-.1-.85-.13-1.7.53-2.28 1.07-1.4 1.28-2.61 2.75-3.94 4.1-.33.33-.65.65-1 .94l.03-.24c.27-.97.66-1.9 1.03-2.84a248.31 248.31 0 0 1 1.72-4.1 114.15 114.15 0 0 0 1.47-3.65l.24-.63a12.88 12.88 0 0 0 .32-1.1c.12-.47.34-1.57-.44-1.6Zm-3.7 2.42-.52.46.08-.06c.16-.12.3-.27.45-.4Zm-.52.46c-.26.2-.53.39-.81.56-.03.02-.03.05-.01.07.01.02.05.04.07.02.27-.2.5-.44.75-.65Z" fill="#fff" fill-opacity=".46"/><path d="M378.8 62.26c-.47 0-.87.33-1.19.63-.6.59-1.13 1.28-1.66 1.93-.75.93-1.47 1.9-2.3 2.75-.02.03-.03.06 0 .07.02.02.05.02.07 0 .47-.68 1.03-1.28 1.6-1.86a14.1 14.1 0 0 1 2.04-1.77 4.9 4.9 0 0 1 1.05-.59h.06l-.07.35c-.07.3-.16.59-.26.88-.37 1.08-.77 2.15-1.16 3.23a65.19 65.19 0 0 0-1.62 4.97c-.42 1.58-.72 3.19-1.08 4.78-.23 1-.5 1.98-.7 2.98a7.8 7.8 0 0 0-.24 1.82c0-.88.25-1.76.53-2.59a31.05 31.05 0 0 1 2.14-4.7 39.7 39.7 0 0 0 3.37-8.18 18.64 18.64 0 0 0 .46-2.42c.06-.78.07-2.27-1.05-2.28Z" fill="#fff" fill-opacity=".46"/><path d="M344.5 58.82c-.3.05-.64.4-.8.54l-.19.2c-.4.43-.74.92-1.09 1.4a11.17 11.17 0 0 1 1.55-1.67l.26-.18.15-.08c.39-.14.33.3.3.55a12.82 12.82 0 0 1-.92 3.26c-.57 1.39-1.3 2.7-2.02 4.02a52.14 52.14 0 0 0-2.34 4.79c-.36.87-.68 1.77-.92 2.7-.37 1.36-.6 2.78-.83 4.18l-.22 1.5c-.06.44-.1.9-.17 1.34-.1.57-.23 1.14-.3 1.72-.03.2-.08.47-.02.66.03.09.05.18.1.25.08.09.18.16.29.2.1.03.2 0 .3 0 .14-.03.28-.18.36-.3l.24-.37c.31-.49.6-.98.9-1.49.78-1.35 1.53-2.74 2.45-4.01.7-.98 1.48-1.87 2.36-2.68a22.2 22.2 0 0 0-2.43 2.61c-.9 1.12-1.7 2.3-2.6 3.41l-.37.45c.43-1.28.77-2.59 1.1-3.9.41-1.65.8-3.3 1.39-4.9.6-1.63 1.32-3.2 1.95-4.82a31.9 31.9 0 0 0 1.48-4.79c.24-1.14.41-2.3.46-3.46.02-.27.1-.84-.15-1.06a.33.33 0 0 0-.28-.07Zm-2.16 2.25-.3.39c-.18.26-.39.52-.53.8 0 .04 0 .07.03.08.03.01.06-.01.07-.04.15-.45.45-.85.73-1.23Z" fill="#fff" fill-opacity=".46"/><path d="M130.77 375.34c-1.2-.13-2.58.7-3.5 1.32a26.79 26.79 0 0 0-1.67 1.22 50.35 50.35 0 0 0-2.88 2.4 188.03 188.03 0 0 0-10.02 9.73 646.7 646.7 0 0 0-12.41 13.14c-2.86 3.09-5.7 6.19-8.55 9.29-.95 1.03-1.9 2.06-2.87 3.08l-.94.97-.26.25a1.88 1.88 0 0 1-.5-.84 6.4 6.4 0 0 1-.08-2.58c.16-1.22.48-2.43.83-3.6a74.85 74.85 0 0 1 1.66-4.83c1.02-2.75 2.15-5.46 3.2-8.2.66-1.74 1.3-3.5 1.8-5.3a23.36 23.36 0 0 0 .48-2.1c.17-1.02.34-2.65-.58-3.4-.64-.5-1.58-.4-2.33-.21-1.62.4-3.15 1.25-4.58 2.1a63.1 63.1 0 0 0-5.73 3.84c-1.45 1.08-2.85 2.24-4.28 3.36a59.38 59.38 0 0 1-6 4.17c-.04.03-.05.08-.03.13.03.04.08.05.13.02 3.34-2.1 6.33-4.67 9.44-7.06a64.74 64.74 0 0 1 5.5-3.8 34 34 0 0 1 3.09-1.71c.61-.3 1.24-.57 1.9-.78a6.3 6.3 0 0 1 1.28-.28c.28-.03.56-.03.84.02 1.6.32 1.38 2.37 1.18 3.57a16.11 16.11 0 0 1-.37 1.63l-.4 1.35a78.83 78.83 0 0 1-2.04 5.44c-1.6 3.93-3.38 7.82-4.7 11.86a22.2 22.2 0 0 0-1 4.1c-.09.71-.12 1.44.02 2.15.1.54.32 1.07.7 1.47.2.2.36.33.64.35.15 0 .4-.25.51-.35.42-.37.81-.77 1.2-1.16 1.55-1.52 3.06-3.08 4.58-4.62a922.25 922.25 0 0 1 18.83-18.7 307.2 307.2 0 0 1 7.36-6.85c1.86-1.67 3.74-3.32 5.7-4.86.97-.77 1.96-1.52 3.03-2.17.27-.16.56-.32.84-.45-.02.35-.07.7-.16 1.05-.3 1.2-.82 2.33-1.35 3.44a91.3 91.3 0 0 1-5.56 9.44c-2.83 4.39-5.76 8.73-8.48 13.2-1.82 3-3.61 6.06-4.9 9.33-.24.63-.46 1.27-.65 1.93-.13.45-.24.92-.33 1.38-.32 1.73-.26 3.65.88 5.07.3.36.65.72 1.09.92 1.31.59 2.59-.6 3.49-1.4l.5-.45c2.7-2.49 5.2-5.2 7.7-7.86 4.71-5 9.33-10.09 13.99-15.15 1.7-1.86 3.4-3.7 5.13-5.55 1.21-1.3 2.43-2.6 3.71-3.85.54-.51 1.12-.97 1.67-1.48 1.93-1.78 3.54-3.87 5.38-5.75a15 15 0 0 1 1.86-1.7c.27-.2.56-.38.88-.47.15.2.17.6.15.78a9.1 9.1 0 0 1-.54 2.29 35.2 35.2 0 0 1-1.57 3.73 94.8 94.8 0 0 1-2.19 4.25c-2.3 4.26-4.79 8.43-7.2 12.64a135.9 135.9 0 0 0-4.77 8.8 39.1 39.1 0 0 0-1.46 3.33c-.28.76-.52 1.55-.63 2.36-.11.8-.09 1.72.54 2.32 1.15 1.11 2.94.39 4.07-.36a12.2 12.2 0 0 0 1.37-1.05 27.38 27.38 0 0 0 2.26-2.16l1.2-1.3a145.4 145.4 0 0 0 6.44-7.9c2.4-3.1 4.78-6.2 7.22-9.28a114.3 114.3 0 0 1 6.83-7.99 33.9 33.9 0 0 1 4.23-3.88 10.5 10.5 0 0 1 2.94-1.62c1.07-.35 2.7-.33 3.23.88.13.28.18.59.19.9a7.9 7.9 0 0 1-.53 2.77c-.5 1.5-1.17 2.92-1.88 4.33-1.46 2.88-3.1 5.67-4.74 8.47 1.15-1.94 2.3-3.86 3.4-5.82a56.85 56.85 0 0 0 2.73-5.39c.5-1.17 1-2.41 1.13-3.7.05-.42.05-.85-.05-1.27a1.95 1.95 0 0 0-.27-.66 1.98 1.98 0 0 0-.91-.7c-1-.4-2.12-.15-3.07.26-.67.29-1.3.67-1.9 1.08-.96.65-1.86 1.4-2.72 2.18a85.77 85.77 0 0 0-7.53 8.06c-4.54 5.32-8.76 10.9-13.39 16.14a66.44 66.44 0 0 1-3.78 4c-.78.76-1.6 1.5-2.5 2.13a9.69 9.69 0 0 1-1.05.64c-.47.24-1.35.63-1.86.24-.23-.18-.16-.64-.13-.88.08-.65.3-1.28.53-1.88a32.13 32.13 0 0 1 1.63-3.47c.68-1.27 1.4-2.52 2.13-3.76 2.45-4.15 5.06-8.2 7.59-12.28 1.68-2.71 3.33-5.44 4.83-8.25a32.82 32.82 0 0 0 2.7-6.13c.3-1.02.54-2.14.33-3.2-.29-1.47-1.5-2.77-3.07-2.67-.71.04-1.36.3-1.97.65-1.08.63-2 1.5-2.88 2.36-1.26 1.24-2.43 2.56-3.64 3.84-.68.72-1.37 1.44-2.14 2.07-1.62 1.3-3.06 2.82-4.5 4.31a473.02 473.02 0 0 0-5.26 5.54c-4.47 4.77-8.9 9.58-13.38 14.34a295.4 295.4 0 0 1-5.46 5.73 90.56 90.56 0 0 1-3.6 3.55c0-.72.14-1.43.33-2.11.39-1.37.96-2.67 1.57-3.95a69.09 69.09 0 0 1 2.7-5.07c2.84-4.88 5.96-9.58 8.95-14.37a98.65 98.65 0 0 0 5.52-9.68c.64-1.33 1.22-2.7 1.6-4.13.2-.79.35-1.6.34-2.41-.02-.83-.2-1.78-.85-2.35a1.95 1.95 0 0 0-1.13-.5Zm39.03 27.52c-.87 1.48-1.75 2.96-2.59 4.47l-.74 1.38c1.06-1.99 2.19-3.92 3.33-5.85Zm-3.33 5.85Z" fill="#fff" fill-opacity=".38"/><path d="M178.75 254.68c-.08-.03-.18.04-.24.09-.19.13-.35.29-.51.45-.74.73-1.44 1.51-2.14 2.28l-.7.78a685.5 685.5 0 0 0-7.08 8.12c-.59.69-1.16 1.38-1.76 2.06-.53.61-1.08 1.2-1.56 1.86-.02.02-.01.05.01.07.02.01.05.01.07-.01.38-.55.81-1.06 1.23-1.58.78-.95 1.59-1.88 2.4-2.81 1.8-2.07 3.62-4.12 5.47-6.14a133.14 133.14 0 0 1 4.26-4.42l.39-.34.09-.06.01.03a2.44 2.44 0 0 1 .3.92c.07.68-.07 1.39-.25 2.05-.6 2.13-1.7 4.1-2.78 6.02-1.13 2-2.33 3.99-3.44 6a22.67 22.67 0 0 0-2.16 4.85c-.31 1.12-.47 2.47.29 3.46.2.27.48.54.83.63.58.13 1.1-.39 1.48-.76.95-.96 1.78-2.06 2.61-3.12 3.45-4.42 6.65-9.02 10.25-13.3a29.5 29.5 0 0 1 3.26-3.48 6.35 6.35 0 0 1 1.06-.74c.02.04.05.07.06.11.07.2.07.41.06.61-.04.56-.2 1.12-.4 1.64-.58 1.66-1.44 3.22-2.28 4.75-1.14 2.06-2.32 4.09-3.42 6.17a27.41 27.41 0 0 0-2.28 5.28 6.31 6.31 0 0 0-.19 3.44c.12.42.33.88.66 1.17.91.8 2-.33 2.56-1a18.3 18.3 0 0 0 .9-1.19l.49-.72.65-1.04c.28-.45.52-.94.82-1.38 2.76-4.1 5.8-8.11 9.55-11.36a30.1 30.1 0 0 1 1.84-1.46l.63-.45.64-.41c.2-.13.3-.2.5-.31.47-.27 1.49-.8 1.81-.04.04.09.06.19.08.29a5.8 5.8 0 0 1-.05 1.32c-.08.46-.2.92-.32 1.38-.17.6-.38 1.21-.59 1.82-.35 1-.74 2-1.14 3-.63 1.56-1.3 3.11-1.94 4.67l-.3.79.47-1.2c.67-1.58 1.36-3.16 2.01-4.76a55 55 0 0 0 1.3-3.42c.2-.62.4-1.25.54-1.9.08-.34.14-.68.17-1.03.02-.23.03-.46 0-.7a1.53 1.53 0 0 0-.14-.41c-.43-.82-1.64-.2-2.2.12l-.32.2-.33.2a24.25 24.25 0 0 0-2.24 1.56 46.1 46.1 0 0 0-6.53 6.27 86.04 86.04 0 0 0-4.25 5.25c-.26.35-.47.72-.71 1.08-.6.88-1.22 1.76-1.92 2.57-.28.34-.59.68-.93.96-.05.05-.14.09-.21.13l-.07-.13a2.84 2.84 0 0 1-.1-1.36c.16-1.43.8-2.81 1.43-4.09 1.38-2.78 3.06-5.4 4.62-8.07a34.36 34.36 0 0 0 2.67-5.32c.11-.32.22-.66.3-1 .31-1.19.4-2.6-.54-3.56-.2-.2-.42-.35-.68-.44-.63-.23-1.29-.02-1.84.3a12.2 12.2 0 0 0-2.75 2.37 62.96 62.96 0 0 0-3.78 4.48 235.86 235.86 0 0 0-5.55 7.48c-1.16 1.61-2.31 3.24-3.51 4.84a37.65 37.65 0 0 1-1.63 2.03c-.09-.2-.14-.4-.15-.62-.03-.8.2-1.63.46-2.38.89-2.61 2.22-5.06 3.47-7.52a101 101 0 0 0 2.39-4.91c.56-1.3 1.1-2.64 1.34-4.03.15-.8.2-1.69-.14-2.45-.07-.17-.18-.47-.38-.53Zm19.73 19.99-.2.48-.02.1.22-.58Zm-.22.58-.08.2a4.95 4.95 0 0 0 .08-.2Z" fill="#fff" fill-opacity=".32"/><path d="M102.24 52.68c11.5-32.09 11.25 23.3 13.9-4.4.76-7.86 2.63 13.09 6.38 2.17 2.24-6.5 6.78 6.84 8.5 2.2" fill="#2B354E"/><path d="M46.09 46.61c-.06-.28 6.54-5.05 5.49-6.02-.34-.3-6.99 5.97-3.31 7.38 1.24.47 3.8-2.03 4.6-2.92.46-.53 1.59-1.84.88-1.92-.92-.11-2.34 3.69-1.5 4.2.57.35 3.8-2.7 3.76-3.5-.05-1.22-2.76 2.7-1.67 3.27 1.2.63 2.28-2.36 3.22-2.82.48-.23-.47 2.41.76 2.4 3.34 0 5.27-5.79 8.87-3.58 2.96 1.82-.47 5.56-.72 4.22-.56-3.06 14.87-2.74 15.39-2.7.55.03 1.1.17 1.66.25" stroke="#000" stroke-miterlimit="10" stroke-linecap="round" stroke-linejoin="round"/><path d="M276.95 486.58c-.03 0-.06.04-.06.07l.13.78a14.86 14.86 0 0 1-1.27 6.58c-.56 1.25-1.24 2.44-1.9 3.65-.73 1.33-1.44 2.68-2.11 4.04a44.71 44.71 0 0 0-2.88 6.84c-.49 1.63-.78 3.3-.95 5-.28 2.73-.27 5.5.25 8.2-.34-1.95-.38-3.9.03-5.83.48-2.2 1.5-4.24 2.52-6.24 1.26-2.5 2.57-4.98 3.7-7.55.57-1.31 1.1-2.66 1.48-4.05.68-2.46 1-5.04 1.14-7.6.07-1.27 0-2.55 0-3.83a.07.07 0 0 0-.08-.06Z" fill="#000"/><path d="M214.53 469.44a12.1 12.1 0 0 0-3.14.38c-2.12.54-4 1.69-6 2.56 0 0-.02.02-.01.03a15.06 15.06 0 0 1 5.79-1.68c2.1-.27 4.2-.37 6.3-.03.98.16 1.95.4 2.85.83.97.46 1.8 1.13 2.56 1.89a13.58 13.58 0 0 0-5.22-3.47 10 10 0 0 0-3.13-.5Z" fill="#000"/><path d="m391.32 431.62-.18.1c-.36.22-.69.5-1.03.74l-1 .76c-.51.4-1.03.77-1.57 1.14h.01l1.58-1.13 1.01-.73c.34-.24.68-.5 1.04-.7.04-.03.23-.15.28-.1.05.04-.05.24-.07.27-.09.22-.2.43-.3.64-.57 1.03-1.17 2.06-1.75 3.08-.16.28-.64.64-.44 1 .04.07.1.13.17.16.37.17 1.02-.37 1.28-.59 1.07-.85 2.01-1.87 3.09-2.72.17-.14.35-.27.54-.4a2.03 2.03 0 0 1 .72-.34c.32-.04.19.18.1.42-.12.35-.28.68-.44 1a39.01 39.01 0 0 1-1.36 2.47c-.52.9-1.1 1.76-1.63 2.65.54-.9 1.12-1.75 1.66-2.63a79.57 79.57 0 0 0 1.62-2.75l.15-.29c.14-.28.58-1.07-.02-1.1-.07 0-.15 0-.22.02-.11.02-.24.07-.35.12-.13.06-.25.14-.38.21-1.16.72-2.13 1.73-3.15 2.63-.35.3-.7.62-1.1.86-.04.03-.34.2-.4.14-.07-.06.1-.24.13-.3.19-.25.33-.48.48-.77.51-.98 1.04-1.96 1.5-2.96.1-.22.22-.45.27-.68.01-.07.02-.17-.04-.22-.06-.04-.13-.03-.2 0Z" fill="#fff" fill-opacity=".46"/><path d="M359.16 304.44c-.42.03-.76.57-1 .85l-.3.38-.35.41c-.12.15-.25.3-.36.46l-.32.39c-.83.95-1.69 1.89-2.55 2.82-2.3 2.49-4.63 4.95-7.15 7.22-.99.88-2 1.79-3.15 2.45-.28.17-.87.52-1.21.42-.25-.07-.35-.65-.37-.85-.08-.85.11-1.73.32-2.53a26.7 26.7 0 0 1 1.56-4.25c.5-.4.97-.8 1.44-1.22.48-.44.91-.94 1.37-1.4a35.35 35.35 0 0 1-2.8 2.57c.13-.26.23-.52.35-.78a24.46 24.46 0 0 1 2.22-3.86c.2-.28.42-.57.67-.81.42-.38.99-.71 1.48-.95.15-.07.74-.35.87-.14.1.17-.06.48-.13.63a8.57 8.57 0 0 1-1.07 1.58c-.44.54-.91 1.06-1.4 1.57.42-.42.86-.8 1.24-1.25.5-.56 1-1.16 1.35-1.84.1-.2.29-.6.1-.81-.25-.29-.91.05-1.17.17-.48.24-1 .51-1.4.87-.35.3-.64.68-.92 1.04a30.22 30.22 0 0 0-2.94 5.06l-.06.13c-.28.2-.54.43-.83.61a9.16 9.16 0 0 1 0 .01c.29-.18.55-.4.82-.6a21.9 21.9 0 0 0-1.78 5.12c-.13.86-.2 2.5.92 2.77.56.13 1.16-.13 1.65-.37.96-.48 1.84-1.16 2.68-1.83a62.5 62.5 0 0 0 4.85-4.4l.09-.1c-.22.4-.45.8-.63 1.2-.1.25-.2.5-.28.76-.26.76-.46 1.7-.02 2.45.1.17.25.32.43.43.72.41 1.55-.2 2.08-.64l.44-.38c1.62-1.53 2.94-3.36 4.35-5.08.37-.45.74-.91 1.15-1.34l-.14.26c-.35.62-.7 1.23-.9 1.9-.04.12-.07.3-.07.41 0 .64.66.9 1.22.88 1.19-.04 1.94-1.43 2.51-2.28.18-.26.5-.8.86-.87l.1-.01c.12.02.24.05.37.06l.38.06 1.17.12c1.21.12 2.44.18 3.66.24 2.56.11 5.14.17 7.7.45-2.55-.3-5.13-.43-7.69-.6a62.62 62.62 0 0 1-3.65-.31 26.9 26.9 0 0 1-1.53-.23c-.16-.03-.31-.07-.47-.07-.45-.01-.8.45-1.03.76l-.46.63c-.5.69-1.3 1.9-2.33 1.51-.32-.13-.36-.23-.24-.58l.12-.36.2-.38c.31-.6.7-1.14 1.03-1.73.17-.3.4-.72.06-.99a.45.45 0 0 0-.21-.08c-.3-.05-.56.16-.77.33-.38.31-.71.68-1.04 1.04-1.47 1.62-2.84 3.34-4.39 4.88a8.1 8.1 0 0 1-1.48 1.26c-.06.04-.35.21-.46.2-.18-.3-.13-.67-.06-1 .19-.85.62-1.66 1.05-2.4a48.73 48.73 0 0 1 4.36-6.11l.58-.7c.11-.15.23-.28.36-.41l.5-.58.31-.38c.33-.4 1.18-1.18.58-1.7a.6.6 0 0 0-.44-.16Zm17.1 8.16c1.08.13 2.15.28 3.22.5-.18-.04-.36-.1-.54-.12-.89-.17-1.79-.29-2.69-.38Zm3.22.5.32.07-.32-.07Zm.32.07Zm-37.7.54c-.15.1-.42.18-.65.28.09-.04.2-.05.27-.08.14-.06.24-.11.38-.2Zm-.65.28c-.24.1-.5.22-.75.24.26-.02.5-.12.75-.24Zm-.75.24c-.34.02-.64-.1-.75-.52 0-.02-.03-.03-.05-.03-.01 0-.02.03-.01.05.13.44.45.53.81.5Z" fill="#fff" fill-opacity=".15"/><path d="M202.4 374.64c-.02 0-.04 0-.05.02-.2 1.3-.45 2.6-.7 3.9-.77 4.22-1.63 8.43-1.85 12.73-.19 3.62-.05 7.28.52 10.87.4 2.5 1.03 4.95 1.76 7.37a78.33 78.33 0 0 0 2.57 7.25c-.82-2-1.52-4.04-2.03-6.14-.66-2.7-1-5.45-1.24-8.2a112.3 112.3 0 0 1-.37-12.57c.1-5.1.3-10.2 1.42-15.19 0-.02-.01-.04-.03-.04Z" fill="#141E37"/><path d="m230.78 346.68-.02.04c0 .02 0 .03.02.03.88.04 1.76.1 2.63.2-.87-.1-1.75-.2-2.63-.27Zm2.63.27Zm.33.03c.66.08 1.31.18 1.97.28-.66-.1-1.31-.2-1.97-.28Zm1.97.28Zm1.3.22a41.08 41.08 0 0 1 12.43 4.45c12.67 7.02 20.93 20.31 24.84 33.95a78.42 78.42 0 0 1 2.81 16.38c.3 4.7.16 9.44-.5 14.1-.56 3.94-1.52 7.88-3.49 11.37a24.63 24.63 0 0 1-4.1 5.32 25.35 25.35 0 0 0 4.15-5.3c2-3.48 3.03-7.4 3.72-11.34a71.4 71.4 0 0 0 .54-21.12c-2.02-15.94-9.64-31.9-23.32-40.98a45.92 45.92 0 0 0-8.47-4.42 45.9 45.9 0 0 0-8.61-2.4ZM269 433.05Z" fill="#141E37"/><defs><filter id="a" x="218.51" y="171.99" width="3.07" height="9.68" filterUnits="userSpaceOnUse" color-interpolation-filters="sRGB"><feFlood flood-opacity="0" result="BackgroundImageFix"/><feBlend in="SourceGraphic" in2="BackgroundImageFix" result="shape"/><feGaussianBlur result="effect1_foregroundBlur_1491_1886"/></filter><filter id="b" x="64.03" y="303.29" width="83.87" height="69.33" filterUnits="userSpaceOnUse" color-interpolation-filters="sRGB"><feFlood flood-opacity="0" result="BackgroundImageFix"/><feBlend in="SourceGraphic" in2="BackgroundImageFix" result="shape"/><feGaussianBlur result="effect1_foregroundBlur_1491_1886"/></filter><filter id="c" x="334.2" y="15.65" width="82.31" height="31.81" filterUnits="userSpaceOnUse" color-interpolation-filters="sRGB"><feFlood flood-opacity="0" result="BackgroundImageFix"/><feBlend in="SourceGraphic" in2="BackgroundImageFix" result="shape"/><feGaussianBlur stdDeviation=".01" result="effect1_foregroundBlur_1491_1886"/></filter><filter id="d" x="385.22" y="428.16" width="12.78" height="13.06" filterUnits="userSpaceOnUse" color-interpolation-filters="sRGB"><feFlood flood-opacity="0" result="BackgroundImageFix"/><feBlend in="SourceGraphic" in2="BackgroundImageFix" result="shape"/><feGaussianBlur result="effect1_foregroundBlur_1491_1886"/></filter></defs></svg>