<svg id="ebotypGDWJj1" xmlns="http://www.w3.org/2000/svg" xmlns:xlink="http://www.w3.org/1999/xlink" viewBox="0 0 300 270" shape-rendering="geometricPrecision" text-rendering="geometricPrecision"><defs><path id="ebotypGDWJj2" d="M140.78,109.44c-.27.04-.05.02-.52.56.397965-.001896.794217-.052267,1.18-.15-.100087-.270695-.373716-.43653-.66-.4Zm.66.41c0,.04.03.06.03.1.07.49,0,0-1.22.07l.01-.02h-.01c-.015299-.097005-.102002-.166368-.2-.16-.1,0-.15.09-.16.18l-.01.02c.14.47.04.32.14.47.48.8,1.76.52,1.82-.42.03-.41-.02-.35-.4-.24Z"/></defs><g transform="translate(-53.099995-67.42728)"><path d="M63.8,81.44l259.34.12-3.79,155.73-253.26,1.47" fill="#5086b2" fill-opacity="0.79"/><path d="M63.45,81.34l189.94.1l50.9.01l13.68.01h4.56c.06,0,.14-.01.2.02.08.05.04.2.04.29v.3l-.02.6v.3l-.01.3-.13,5.27-.54,22.05-2.26,93.15-.62,25.36-.15,6.27-.03,1.3-.01.27c0,.07.02.2-.06.25-.05.03-.13.01-.2.01h-.49l-.98.01-3.64.02c-21.703394.115998-43.40673.242664-65.11.38L65.73,238.66l183.1-1.06l50.7-.29l14.1-.08l3.88-.02h1.24c.06,0,.14,0,.19-.03.08-.04.06-.17.06-.24v-.26l.05-1.57.14-6.01.62-25.36l2.27-93.38.53-21.82.13-5.27.01-.6.02-.9c0-.09.04-.24-.04-.29-.06-.03-.14-.02-.2-.02h-18.49l-50.65-.03-189.94-.09Z" fill="#2b354e"/><path d="M65.62,238.65l253.42-3.54.72,14.46-253.3.84" fill="#3b496b" fill-opacity="0.92"/><path d="M298.66,249.64l-38.26.13-193.94.64l193.69-.64l38.51-.13Z" fill="#2b354e"/><path d="M66.15,246.21L319.53,245l.23,4.4-253.3,1.02-.31-4.2Z" fill="#3b496b" fill-opacity="0.92"/><path d="M319.53,244.99h-.12.12Zm0,0v.1-.09Zm.05.84l.01.41.07,1.17c-.029432-.526523-.056099-1.053197-.08-1.58Zm-.32,3.57h-1.72h1.72Zm-239.62.95l-9.14.04-2.97.02l2.76-.01l9.35-.05Z" fill="#2b354e"/><path d="M80.83,247.11v.19-.19Z" fill="#3b496b" fill-opacity="0.92"/><path d="M319.84,249.45l-86.54.45c-.025549-.002857-.0511.005348-.070209.022546s-.02995.041746-.029791.067454c0,.04.05.08.1.08l86.54-.45c.05,0,.08-.04.08-.08.002884-.022889-.004253-.045909-.019579-.063152s-.037352-.027029-.060421-.026848Z" fill="#fff"/><path d="M136.34,282.74c-.13,38.4.66,37.72.66,37.72l8.67-.29.08-38.25" fill="#2b354e"/><path d="M136.34,282.74c-.13,38.4.66,37.72.66,37.72l8.67-.29.08-38.25" fill="none"/><path d="M132.04,234c-.69,4.94-3.85,19.16,2.82,28.79c3.3,4.77,8.44,8.66,13.25,11.55c3.904591,2.347658,8.010873,4.342233,12.27,5.96-6.49.43-20.36,4.2-31.01,2.37-10.08-1.74-17-8.94-21.52-13.5-13.5-13.67-3.11-36.06-3.11-36.06" fill="#2b354e"/><path d="M132.04,234c-.69,4.94-3.85,19.16,2.82,28.79c3.3,4.77,8.44,8.66,13.25,11.55c3.904591,2.347658,8.010873,4.342233,12.27,5.96-6.49.43-20.36,4.2-31.01,2.37-10.08-1.74-17-8.94-21.52-13.5-13.5-13.67-3.11-36.06-3.11-36.06" fill="none"/><path d="M118.82,325.24l3.82-2.37l7.83-2.54l6.4-.12l2.81,3.99l8.94,1.5c0,0-28.72.56-29.8-.46Z" fill="#5086b2" fill-opacity="0.79"/><path d="M163.46,325.72l-3.96-3.47-8.81-1.95-5.1-.13-8.62.2l2.95,4.1l8.5,1.2l15.04.05Zm79.74-37.05c.27,5.3-2.05,17.55.96,21.93.67.97,28.96-.16,30.72-1.29c3.32-2.13-1.98-16.96-.88-20.24" fill="#2b354e"/><path d="M245.81,310.4c0,1.68.7,3.52,1.18,5.1.11.37.2,1.3.58,1.48.3.14.92-.04,1.26,0c1.45.13,2.91.06,4.36.18c4.28.34,8.63.72,12.93.37.85-.07,4.51.48,5.01.08.4-.32.44-1.61.5-2.08.12-.94.33-1.86.37-2.81.04-1.08-.08-2.12.26-3.15M137,320.36c-6.25.16-6.8-.64-12.61,1.94-.72.32-5.76,2.63-5.1,3.05.32.2,9.64.5,9.97.49c4.22-.1,15.49.02,17.42-.41m-36.17-73.28c-3.3,1.8,6.2,19.73,20.68,24.76c4.33,1.5,11.44,3.5,15.93,3.38c2.17-.06,3.26-.23,6.89-.98" fill="#3b496b"/><path d="M74.37,89.72l28.35.34c0,0-.91,28.64-.9,28.92c0,.29-27.45.17-27.45.17" opacity="0.88" fill="#3b496b"/><path d="M78.71,93.49c9.8.15,14.52.1,14.75.25.08.04.16,3.3.01,3.3-.48.04-13.27-.04-13.63.07-.08.02-.1.24-.44.87-.04.07-.56.75-.64.78m19.72,1.68c-.02-.53-12.6-.67-12.67-.58-.06.1-.03,2.55,0,2.65.1.25,10.73-.01,11.18.5.43.48.83,2.92.88,2.72.33-1.31.6-2.78.6-2.96.04-1.1.06-1.36.01-2.33Z" fill="#f1d244"/><path d="M111.42,177.05h79.12c.18,0,.33.15.33.33v50.11c0,.19-.15.34-.33.34h-79.12c-.090174,0-.176654-.035821-.240416-.099584s-.099584-.150242-.099584-.240416v-50.1c0-.2.16-.34.34-.34Z" fill="#3b496b"/><path d="M110.73,88.75l11.3.2-.07,6.22L111,95.2" opacity="0.88" fill="#2b354e"/><path d="M112.33,90.28v3.5l8.4.02-5.25-3.79-1.29,1.96m-7.88,14.65" opacity="0.88" fill="#5086b2" fill-opacity="0.79"/><path d="M106.38,106.58l.1,5.19l4.92-.07.11-5.05m2.39.14l-.1,4.94l10.25-.14.18-4.58" fill="#5086b2" fill-opacity="0.79"/><path d="M353.1,131.15L64.07,79.59c.409999.073336.819998.146669,1.23.22m136.96,90.21h-.01v-.03c0,0,0-.02.03-.03l.09.01c.04.02.09.06.12.14s.04.2-.03.37c-.112898.234392-.314365.414273-.56.5" opacity="0.88" fill="#5086b2" fill-opacity="0.79"/><path d="M135.28,94.24l98.96-.19.78,84.02-98.5-.78c0,0,.45-22.94.27-44.55-.12-14.09-.88-38.5-1.51-38.5Z" fill="#5086b2" fill-opacity="0.79"/><path d="M215.02,92.6h.27v.19h-.27v-.19Z" opacity="0.88" fill="#5086b2" fill-opacity="0.79"/><path d="M135.1,102.25h98.07v4.47h-98.07v-4.47Z" fill="#2b354e"/><path d="M223.66,109.3h48.22c2.59,0,4.7,1.94,4.7,4.33s-2.11,4.32-4.7,4.32h-48.22c-2.59,0-4.7-1.94-4.7-4.32c0-2.39,2.11-4.32,4.7-4.32Z" fill="#fddf19"/><path d="M271.77,109.3h-.64l.74.01h-.1Zm.1.01c.34.01.69.04,1.03.1l-.08-.01c-.313675-.055909-.631406-.08601-.95-.09Zm1.03.1c.19.05.37.12.55.18-.16-.05-.31-.13-.48-.16l-.07-.01Zm.55.18c.2.07.4.13.6.22-.2-.1-.4-.15-.6-.22Zm.6.22c.17.09.33.2.5.31-.17-.1-.33-.22-.5-.3Zm.5.31c.16.1.33.2.49.33-.16-.13-.33-.22-.5-.33Zm.49.33c.15.12.26.28.4.42-.13-.14-.25-.3-.4-.42Zm.4.42c.15.17.31.32.44.5-.13-.18-.3-.33-.44-.5Zm.44.5l.08.15-.08-.15Zm.28.49l.12.3-.12-.3Zm.12.3l.09.22-.01-.04-.08-.18Zm.09.22c.013771.033157.027105.066493.04.1l-.04-.1Zm.14.6c.01.06.03.11.03.17c0-.06-.02-.11-.03-.17Zm-52.85-3.67c0,0-1.04.08-1.54.24-1.415241.429957-2.531447,1.523764-2.99,2.93-.054319.219694-.0878.44402-.1.67.2-.49,4.63-3.84,4.63-3.84Zm-4.63,3.84l-.03.04-.01.2c0-.08.02-.16.04-.24Zm-.04.25l-.02.08.01.14.01-.22Zm.03.8c0,.05,0,.1.02.16l.03.12-.05-.28Zm.05.28l.03.16.07.2c-.038951-.118368-.072321-.238501-.1-.36Zm.37,1.01l.1.2.06.1c-.057561-.097687-.110943-.197778-.16-.3Zm.16.3l.09.14c.06.1.15.18.23.27-.114831-.133587-.221684-.27383-.32-.42Zm.32.41c.06.08.12.17.2.24-.08-.07-.14-.16-.2-.24Zm.2.24c.11.13.24.24.37.35-.13-.11-.26-.22-.38-.35Zm.37.35l.19.17c.01.02.04.03.06.04-.1-.06-.17-.14-.25-.21Zm.25.21c.02.02.03.04.06.05-.020139-.016499-.040139-.033167-.06-.05Zm.52.32l.28.16-.28-.16Zm2.21.62h.79-.8Zm52.95-3.24c-.05.2-.12.38-.2.55l.04-.07c.06-.15.12-.31.16-.48Zm-.2.55l-.06.13.04-.07.02-.06Zm-.6.97c-.15.19-.34.34-.52.5.19-.16.37-.31.52-.5Zm-.52.5l-.31.29c.11-.09.2-.2.31-.3Zm-.31.29c-.21.15-.45.27-.68.39.23-.12.47-.24.68-.39Zm-.68.39c-.11.05-.21.13-.32.17.11-.04.2-.12.32-.17Zm-1.44.49c-.45.07-.9.06-1.36.06h.19c.4,0,.78,0,1.17-.06Z"/><path d="M223.29,123.47h30.93c1.336173,0,2.570848.71284,3.238935,1.87s.668087,2.58284,0,3.74-1.902762,1.87-3.238935,1.87h-30.93c-2.065545,0-3.74-1.674455-3.74-3.74s1.674455-3.74,3.74-3.74Z" fill="#fddf19"/><path d="M253.93,123.46h-.92.73c.066721-.00213.133399-.005464.2-.01Zm-30.64,0c0,0-1.08.12-1.57.35-1.381372.651894-2.231096,2.074687-2.15,3.6-.02-1.53,3.72-3.94,3.72-3.94Zm-3.72,3.95l-.01.05.02.13-.01-.18Zm0,.18l.01.12.04.2-.04-.32Zm.23.93l.04.14.04.08c-.02872-.07257-.055397-.145932-.08-.22Zm.08.22l.06.14.15.25c-.073981-.126117-.140754-.256326-.2-.39Zm.21.38l.16.25-.16-.25Zm.4.54l.15.19.05.04-.2-.23Zm.2.23l.04.04c.09.09.2.15.29.23-.11-.09-.23-.17-.33-.27Zm.33.27c.09.06.17.14.27.2-.1-.06-.18-.14-.27-.2Zm35.91-5.52c.08.08.14.18.2.27-.06-.1-.12-.19-.2-.27Zm.2.27c.1.11.2.22.27.34l-.01-.03-.25-.31Zm.27.34c.1.17.17.36.24.55-.06-.16-.1-.33-.2-.48c0-.02-.02-.04-.04-.06Zm.24.55c.07.16.15.32.2.49l-.02-.08c-.04-.14-.12-.27-.18-.41Zm.2.49c.04.17.06.34.08.51-.02-.16-.03-.31-.07-.47l-.02-.04Zm.08.51l.03.18-.03-.18Zm-.29,1.91l-.04.1.03-.04.01-.07Zm-.04.1c-.08.17-.2.33-.3.49.09-.14.2-.27.27-.42l.03-.07Zm-.3.49c-.06.08-.11.19-.18.27l.18-.27Zm-.18.27c-.13.16-.29.3-.44.43.15-.14.3-.27.44-.43Zm-.44.43l-.2.18.2-.18Zm-1.82.9c-.37.06-.74.05-1.11.05h.23c.3,0,.59,0,.88-.05Z"/><path d="M207.42,113.74c0-2.2,1.97-4,4.4-4c2.42,0,4.39,1.8,4.39,4s-1.97,4-4.4,4c-2.42,0-4.39-1.8-4.39-4Z" fill="#fddf19"/><path d="M211.68,109.75c-.12,0-.24.03-.36.05.17-.02.33-.04.5-.04l-.14-.01Zm.14.01c.16,0,.33.02.5.04-.17-.02-.33-.04-.5-.04Zm.5.04l.46.06c-.155258-.029809-.312233-.049848-.47-.06Zm.46.06c.16.03.31.08.47.13-.16-.05-.31-.1-.47-.13Zm.47.13l.45.15-.45-.15Zm.45.15c-.003333.000005-.006667.000005-.01,0Zm.49.27l.34.2-.34-.2Zm.34.2c.15.11.28.24.41.36-.13-.12-.26-.25-.4-.36Zm.41.36c.13.12.26.23.37.37l-.1-.14c-.09-.09-.18-.15-.27-.23Zm.37.37l.18.23c-.05-.06-.07-.12-.12-.17l-.06-.06Zm.18.23l.17.25-.17-.25Zm.17.25l.14.26-.14-.26Zm.14.26l.14.3-.02-.08-.12-.22Zm.14.3c.05.1.07.22.1.32-.03-.09-.04-.18-.08-.27l-.02-.05Zm.1.32c.04.12.08.23.1.35-.02-.12-.06-.23-.1-.35Zm.1,1.73l-.08.29.08-.3Zm-.08.29l-.12.39.02-.06.1-.33Zm-.12.39l-.14.3.12-.24.02-.06Zm-.14.3l-.13.23.13-.24Zm-.13.23c-.05.1-.12.18-.18.27.06-.09.13-.17.18-.27Zm-.18.27l-.2.24.09-.07.1-.17Zm-.2.24c-.1.13-.22.24-.35.35l.26-.22.1-.13Zm-.35.35c-.13.12-.25.25-.39.35.14-.1.26-.22.4-.34Zm-.39.35c-.13.1-.27.17-.4.24.13-.08.27-.15.4-.24Zm-.4.24c-.15.09-.3.18-.45.24.15-.06.3-.15.45-.24Zm-.45.24c-.14.06-.29.1-.44.15.15-.04.3-.09.44-.15Zm-1.42.35c.003333-.000005.006667-.000005.01,0Zm-.46.03l-.48-.03.48.03Zm-.48-.03l-.49-.06c.17.03.33.05.5.06Zm-1.4-.35c-.16-.06-.3-.15-.45-.24.14.09.29.18.45.24Zm-.45-.24c-.14-.08-.28-.15-.41-.24.13.1.27.17.4.24Zm-.41-.24c-.14-.1-.27-.23-.4-.34.13.11.26.24.4.34Zm-.4-.34c-.12-.12-.25-.23-.36-.37l.1.14.27.22Zm-.36-.37l-.08-.1.01.04.07.06Zm-.08-.1c-.23-.32-.82-2.3-.82-2.3s.12,1.06.34,1.55c.13.27.3.52.48.75Zm-.82-2.3c0,0,.6-2,.83-2.3-.19.23-.36.47-.49.74-.22.5-.34,1.56-.34,1.56Zm.83-2.3l.06-.1-.06.06v.03Zm.06-.1c.11-.13.25-.25.38-.37-.09.08-.19.14-.26.23l-.12.15Zm.38-.37c.13-.12.26-.25.4-.36-.14.11-.27.24-.4.36Zm.4-.36l.35-.2-.34.2Zm.35-.2c.157748-.105617.325166-.196023.5-.27-.18.07-.34.17-.5.27Zm.5-.27c.14-.06.3-.1.44-.15l-.45.15Zm.44-.15c.16-.05.31-.1.47-.13-.16.03-.3.08-.47.13Zm.47-.13"/><path d="M149.7,165.44l12-13.53Z" fill="#fddf19"/><path d="M161.7,151.9l-12,13.54l12-13.53Z"/><path d="M162.03,151.2c-.04-.03-.1-.03-.13,0l-12.15,14.07c-.03.03-.02.08.01.11.04.03.09.03.12,0l12.16-14.05c.016493-.018307.024759-.042576.022869-.067144s-.01377-.047287-.032869-.062856Z"/><path d="M161.9,151.35l1.75,13.63Z" fill="#f1d244"/><path d="M161.89,151.27c-.023069-.000181-.045094.009606-.060421.026848s-.022463.040263-.019579.063152l1.75,13.62c0,.05.05.09.1.08.05,0,.09-.05.08-.1l-1.76-13.62c-.002166-.023411-.014521-.044685-.033783-.058168s-.043478-.01781-.066217-.011832Z"/><path d="M182.05,142.15c-.042238-.026779-.097764-.018236-.13.02l-18.38,22.8c-.029258.039848-.025008.095096.01.13.04.03.1.02.12-.02l18.39-22.8c.016493-.018307.024759-.042576.022869-.067144s-.01377-.047287-.032869-.062856Z" opacity="0.88"/><path d="M181.83,142.29c-.029207.03085-.029207.07915,0,.11l5.42,5.57c.04.03.1.03.13,0s.04-.1,0-.13l-5.43-5.55c-.034164-.030557-.085836-.030557-.12,0Z" opacity="0.88"/><path d="M193.94,141.49l-6.69,6.35c-.030557.034164-.030557.085836,0,.12.04.04.1.04.13,0c2.23-2.1,4.45-4.23,6.68-6.34.03-.04.03-.1,0-.13-.034164-.030557-.085836-.030557-.12,0Zm-9.4,3.45l-.06.06-.05.05c.03.03.07.03.1,0s.04-.08,0-.1Z"/><path d="M149.52,165.47c0-.15.13-.27.28-.27.151878,0,.275.123122.275.275s-.123122.275-.275.275c-.074261,0-.14548-.0295-.19799-.08201s-.08201-.123729-.08201-.19799Z" fill="#fddf19"/><path d="M163.23,164.97c.030099-.183705.188846-.318559.375-.318559s.344901.134854.375.318559c0,.2-.17.37-.38.37-.09813,0-.192241-.038982-.26163-.10837s-.10837-.1635-.10837-.26163Z" fill="#f1d244"/><path d="M78.71,93.49c9.8.15,14.52.1,14.75.25.08.04.16,3.3.01,3.3-.48.04-13.27-.04-13.63.07-.08.02-.1.24-.44.87-.04.07-.56.75-.64.78" opacity="0.88" fill="#f1d244"/><path d="M161.55,151.23c0-.2.17-.36.38-.36.2,0,.38.16.38.36s-.17.37-.38.37c-.099851.0027-.196552-.035087-.268118-.10477s-.111918-.165342-.111882-.26523Zm25.39-3.31c0-.2.17-.36.38-.36.2,0,.38.16.38.36s-.17.37-.38.37c-.099851.0027-.196552-.035087-.268118-.10477s-.111918-.165342-.111882-.26523Zm-5.34-5.52c0-.2.16-.37.37-.37.2,0,.38.17.38.37s-.17.37-.38.37c-.099851.0027-.196552-.035087-.268118-.10477s-.111918-.165342-.111882-.26523Zm11.82-.63c0-.2.17-.37.38-.37.2,0,.38.17.38.37s-.17.37-.38.37c-.099851.0027-.196552-.035087-.268118-.10477s-.111918-.165342-.111882-.26523Z" fill="#f1d244"/><path d="M182.73,158.24l2.9,2.63m9.08-.32l-16.12,5.2m4.18-7.57l11.93,2.31m-16,5.23l6.92-4.85M74.34,89.64l28.38.44m-.91,28.84l-27.33.23m28.24-29.09l-.93,28.86" fill="none"/><path d="M74.31,89.6v29.55Z" fill="#f1d244"/><path d="M74.31,89.6v29.55" fill="none"/><path d="M96.43,125.04h32.5c1.756265,0,3.18,1.423735,3.18,3.18s-1.423735,3.18-3.18,3.18h-32.5c-1.136105,0-2.185909-.606105-2.753961-1.59s-.568052-2.196105,0-3.18s1.617856-1.59,2.753961-1.59Z" fill="#f1d244"/><path d="M96.17,127.91c0-.5.41-.9.91-.9s.92.4.92.9-.41.9-.92.9c-.238695,0-.467613-.094821-.636396-.263604s-.263604-.397701-.263604-.636396Z" fill="#f1d244"/><path d="M96.28,128.55l-.96.83m13.48-21.24v2.17m-1.17-1.16h2.33m5,.14h7.66" fill="none"/><path d="M286.87,156.46l2.17-2.24l15.65-1.42-.73,22.1-17.07-.64-.02-17.8Z" fill="#3b496b" fill-opacity="0.92"/><path d="M288.83,157.01l-1.92-.6l2.1-2.16-.18,2.76Zm10.71,14.83l5.75-.2.18,4.91-5.77.41" fill="#3b496b" fill-opacity="0.92"/><path d="M299.54,171.84l5.75-.2.18,4.91-5.77.41" fill="none"/><path d="M299.63,171.83v4.97-4.97Zm5.63-.2l.3,5.29-5.82.02-.08-5.08" fill="#fddf19"/><path d="M305.26,171.63l.3,5.29-5.82.02-.08-5.08" fill="none"/><path d="M278.8,121.98c0-4.1,3.51-7.41,7.85-7.41s7.85,3.32,7.85,7.4c0,4.1-3.51,7.42-7.85,7.42-4.33,0-7.85-3.32-7.85-7.41Zm6.69-.8" fill="#fddf19" fill-opacity="0.69"/><path d="M280.99,122.3c-.001786-1.968533,1.046763-3.788486,2.75067-4.7743s3.804307-.98772,5.51-.005s2.757544,2.800767,2.75933,4.7693c.002761,3.043089-2.461911,5.512239-5.505,5.515s-5.512239-2.461911-5.515-5.505Z" fill="#fddf19" fill-opacity="0.69"/><path d="M283.33,128.8c0,.09.13,1.73.1,1.76-.16.14-.33.18-.25.47.06.22.85-.08.69.28-.17.36-.9.15-.82.53.07.4,1.09.08,1.18.57.06.29-.87.26-.97.49-.25.56.64.37.84.6.15.18-.4.33-.28.47.06.07,1.33.1,1.53.12.76.1,1.61.09,2.38.01.56-.05,1.13.04,1.68.04.32,0,1.02.13,1.22-.22.19-.33-.63-.46-.58-.59.1-.21.88.01.88-.38c0-.05.01-.14-.04-.19-.24-.2-.77-.1-1.07-.1-.05,0-.25,0-.2-.1.25-.44,1.33-.2,1.44-.5.14-.36-1.15-.68-1.18-.79-.05-.21.39-.24.48-.4.15-.26-.4-.28-.4-.44c0-.13.17-.22.2-.34.03-.15.12-1.27.06-1.37" fill="#2b354e"/><path d="M284.25,133.82c.03-.02.06-.06.09-.05.02.01-.14.4-.15.46-.07.2-.1.65.02.86.18.3,1.31.24,1.65.3.49.08,1.07,0,1.55-.05.54-.05,1.08,0,1.61-.08.26-.04.63.03.86-.11.22-.13.1-1.26-.08-1.35" fill="#2b354e"/><path d="M285.97,135.17c-.04,0-.07-.04-.1-.04-.09,0,0,.16.01.24.03.19.06.44.24.55.33.2,2.05.22,2.34-.02.3-.24.24-.73.2-1.05" fill="#2b354e"/><path d="M259.56,269.18c0,0,22.73-49.42,24.57-27.91c1.84,21.5-24.57,27.9-24.57,27.9Z" fill="#f1d244"/><path d="M259.08,271.08c0,0,28.18-33.96,24.57-15.24-3.6,18.72-24.57,15.24-24.57,15.24Z" fill="#f1d244"/><path d="M259.28,278.9c0,0,2.7.33,2.13-1.04-1.99-4.87,38.88-17.99,29.72-4.28-12.86,19.27-31.85,5.31-31.85,5.31Zm-.95,3.9c0,0-17.15,4.62-18.38-13.08-1.22-17.7,18.38,13.07,18.38,13.07Z" fill="#f1d244"/><path d="M248.94,264.41c2.83.48,15.59,22.53,7.57,18.72-12.19-5.78-10.4-19.2-7.57-18.72Zm4.56-2.38c0,0-16.61,2.3-14.77-16.65c1.28-13.28,8.02.23,11.94,9.5c1.67,3.96,2.83,7.15,2.83,7.15Z" fill="#f1d244"/><path d="M259.9,257l-2.72-24.51Z" fill="#fddf19"/><path d="M259.45,257.7c.27-.47-18.51-20.01-4.08-25.87c14.43-5.85,3.8,26.35,4.08,25.87Z" fill="#f1d244"/><path d="M255,263.94c0,0,3.14-13.13-4.54-14.27s4.54,14.27,4.54,14.27ZM96.91,187.47c0,0,9.7-13.27.08-13.25-9.45.03-.08,13.25-.08,13.25Z" fill="#f1d244"/><path d="M94.74,177.93c0-1.18,1.03-2.14,2.31-2.14s2.31.96,2.31,2.14c0,1.19-1.03,2.15-2.3,2.15-1.29,0-2.32-.96-2.32-2.15Z" fill="#3b496b"/><path d="M205.31,135.12h74.57v57.43h-74.58v-57.43Z" fill="#5086b2" fill-opacity="0.79"/><path d="M209.3,135.12h70.58v57.43h-74.58v-57.43" fill="none"/><path d="M205.31,135.12c-.053759.772053.32765,1.50961.98874,1.911997s1.491429.402388,2.15252,0s1.042499-1.139944.98874-1.911997c-.075536-1.084801-.977572-1.926212-2.065-1.926212s-1.989464.841411-2.065,1.926212Zm.6,0c-.066146-.566122.198681-1.119921.680875-1.423827s1.096056-.303905,1.57825,0s.747021.857705.680875,1.423827c-.063261.767651-.704747,1.358448-1.475,1.358448s-1.411739-.590797-1.475-1.358448Z" fill="#2b354e"/><path d="M205.31,140.06l74.57-.12m-3.63-3.34l2.33,1.98m-.11-2.01l-2.19,2.03" fill="none"/><path d="M138.37,83.7h26.8c4.282968,0,7.755,3.472032,7.755,7.755s-3.472032,7.755-7.755,7.755h-26.8c-4.280207,0-7.75-3.469793-7.75-7.75s3.469793-7.75,7.75-7.75Z" fill="#2b354e"/><path d="M156.62,85.7h10.97v11.38h-10.97v-11.38Zm-22.38,2.64c0-.386599.313401-.7.7-.7s.7.313401.7.7-.313401.7-.7.7-.7-.313401-.7-.7Zm27.31,62.89c0-.2.17-.36.38-.36.2,0,.38.16.38.36s-.17.37-.38.37c-.099851.0027-.196552-.035087-.268118-.10477s-.111918-.165342-.111882-.26523Z" fill="#f1d244"/><path d="M161.55,151.23c0-.2.17-.36.38-.36.2,0,.38.16.38.36s-.17.37-.38.37c-.099851.0027-.196552-.035087-.268118-.10477s-.111918-.165342-.111882-.26523ZM134.23,94.92c0-.39.31-.7.7-.7.39-.01.7.3.7.68.01.39-.3.7-.69.7-.378922.000155-.689174-.301233-.7-.68Zm-.07-3.4c0-.386599.313401-.7.7-.7s.7.313401.7.7-.313401.7-.7.7-.7-.313401-.7-.7Z" fill="#f1d244"/><path d="M138.5,88.27h13.1m-13.21,6.79l12.79.14m-12.74-3.6h12.79m8.2-1.36c.08-.29.5-1.43,2.3-1.21c1.81.22,1.37.68,1.49,1.54.02.12-.01.88.04.91.2.1.43-.4.6-.51.19-.11.8.15.82.35.04.24-.42.87-.55,1.03-.16.22-.17.34-.39.3-.04-.01-.25-.15-.18-.22.01-.01.03.18.03.19c0,.13-.06,1.15-.31,1.35-.66.53-3.38.75-3.7.52-.22-.17-.13-1.53-.07-1.93.02-.16-.6-.11-.6-.27c0-.34.52-.82.49-1.17-.03-.37-.01-.52.03-.88Zm0,0c.02-.14-1.4-.35-.47-2.02.42-.74,2.15-1.39,3.11-1.27c1.094279.076831,2.08107.6861,2.64,1.63.11.27.63,1.07.65,2.1.028538.719811-.170946,1.430252-.57,2.03-.22.3-.55.5-.84.73-.073818.080035-.128524.17577-.16.28.03.23.48,1.08.39,1.23-.05.08-2.67.94-3.38.94-.17,0-.73-1.35-.74-1.31-.05.18-.05,1.03-.19,1.17-.2.21-2.75,1.35-2.28,1.24.47-.12,6.36-2.07,6.59-2.04.2.04,2.74,1.96,2.9,2.04m-5.95,21.57h35.55M162.5,133.42h32.22m1.96-14.82l-1.93,14.57M161.08,118.6l1.35,14.83m8.76-8.13h21.16m-10.22,2.43h9.92m-19.41,2.72l19.39-.22m-26.81-9.95h.02l-.01.04c-.014639.018307-.036571.029273-.06.03-.03,0-.08,0-.13-.05-.068083-.065649-.107596-.155453-.11-.25-.005814-.193149.066255-.380528.2-.52m-.73.75h.02v.05c-.016772.021177-.043098.03246-.07.03-.04776-.001392-.093617-.01903-.13-.05-.069011-.064997-.108704-.155208-.11-.25-.008552-.196573.063716-.388082.2-.53m-23.5-9.76v20.72m4.63-20.79v20.9" fill="none"/><path d="M148.98,109.92l-.66,20.64Zm.75-.35c-.1,0-.17.08-.17.18l-.03,21.03c0,.1.07.19.18.19.102782-.005023.184977-.087218.19-.19l.01-21.03c0-.1-.08-.18-.18-.18Zm-9.67.46c0-.43.36-.77.8-.77s.8.34.8.77c0,.42-.36.76-.8.76-.206888.005373-.40743-.071696-.557474-.214238s-.237289-.338871-.242526-.545762Z" fill="#f1d244"/><use xlink:href="#ebotypGDWJj2" fill="none"/><path d="M140.06,110.03c0-.43.36-.77.8-.77s.8.34.8.77c0,.42-.36.76-.8.76-.206888.005373-.40743-.071696-.557474-.214238s-.237289-.338871-.242526-.545762Z" fill="#f1d244"/><use xlink:href="#ebotypGDWJj2" fill="none"/><path d="M148.92,123.63c0-.42.36-.77.8-.77s.8.35.8.77-.36.77-.8.77c-.208589.005366-.410631-.073065-.560966-.217762s-.236428-.343597-.239034-.552238Z" fill="#f1d244"/><path d="M149.64,123.05c-.27.03-.05.02-.52.55.57-.01.95-.07,1.18-.14-.096463-.274665-.371028-.445228-.66-.41Zm.66.4c0,.04.03.07.03.1.07.5,0,0-1.22.07l.01-.02h-.02c-.015299-.097005-.102002-.166368-.2-.16-.1.01-.17.1-.16.2.13.47.04.32.13.47.48.8,1.77.52,1.83-.42.02-.4-.03-.34-.4-.23Z" fill="#2b354e"/><path d="M144.7,116.64c0-.43.36-.77.8-.77s.8.34.8.77c0,.42-.36.76-.8.76-.206888.005373-.40743-.071696-.557474-.214238s-.237289-.338871-.242526-.545762Z" fill="#f1d244"/><path d="M145.41,116.05c-.26.03-.04.02-.51.56.394684-.001707.78765-.052088,1.17-.15-.100087-.270695-.373716-.43653-.66-.4Zm.66.41l.04.1c.06.49,0,0-1.23.06l.02-.01h-.02c-.005019-.047862-.028995-.091721-.066573-.121783s-.085631-.043827-.133427-.038217c-.1,0-.17.1-.16.2.13.47.04.32.13.47.48.79,1.77.52,1.83-.42.03-.41-.03-.35-.4-.24Z" fill="#2b354e"/><path d="M79.32,167.13c0-.43.36-.77.8-.77s.8.34.8.76c0,.43-.36.77-.8.77-.206888.005373-.40743-.071696-.557474-.214238s-.237289-.338871-.242526-.545762Z" fill="#f1d244"/><path d="M80.04,166.54c-.27.03-.05.02-.52.56.397965-.001896.794217-.052267,1.18-.15-.100087-.270695-.373716-.43653-.66-.4Zm.66.41c0,.04.03.06.03.1.07.49,0,0-1.22.06l.01-.01h-.01c-.019295-.094625-.103448-.161947-.2-.16-.1,0-.18.1-.17.2.13.47.04.32.13.47.48.79,1.77.51,1.83-.42.02-.41-.03-.35-.4-.24Z" fill="#2b354e"/><path d="M79.2,172.03c0-.42.36-.76.8-.76s.8.34.8.76c0,.43-.36.77-.8.77-.208589.005366-.410631-.073065-.560966-.217762s-.236428-.343597-.239034-.552238Z" fill="#f1d244"/><path d="M79.91,171.45c-.26.03-.05.03-.5.56.391404-.001504.781088-.051894,1.16-.15-.096463-.274665-.371028-.445228-.66-.41Zm.66.41c.01.03.04.06.04.1.06.48,0,0-1.22.06l.01-.02-.02.01c-.005019-.047862-.028995-.091721-.066573-.121783s-.085631-.043827-.133427-.038217c-.09,0-.15.08-.16.18l-.01.02c.14.47.04.31.14.46.48.8,1.77.53,1.82-.41.03-.41-.02-.35-.4-.24Z" fill="#2b354e"/><path d="M79.2,169.57c0-.42.35-.77.79-.77s.8.35.8.77-.36.77-.8.77c-.208589.005366-.410631-.073065-.560966-.217762s-.236428-.343597-.239034-.552238Z" fill="#f1d244"/><path d="M79.9,168.99c-.26.03-.04.02-.5.55.394155-.000387.786881-.04738,1.17-.14-.097235-.278753-.377536-.450281-.67-.41Zm.67.4c0,.04.02.07.03.1.06.49,0,0-1.21.07v-.02h-.02c-.005019-.047862-.028995-.091721-.066573-.121783s-.085631-.043827-.133427-.038217c-.09.01-.15.09-.15.18c0,.01-.02.01-.01.02.13.47.04.32.13.47.48.8,1.77.52,1.83-.42.02-.4-.03-.35-.4-.23Zm140.67,49.68c-.1.02,17.06.24,17.06.24l-7.21,22.42c0,0-15.52-1.95-16.4-2.14-.35-.08.06.1.06-.3c0-.22-.07-.54-.09-.55" fill="#2b354e"/><path d="M222.03,220.2c-.07.02,13.93.2,13.93.2l-5.98,19.44c0,0-12.88-1.7-13.6-1.86" fill="#3b496b" fill-opacity="0.92"/><path d="M205.44,232.28c.33.76,1.05,7.53,1.18,7.69.34.41,1.3.67,1.8.76c1.46.27,3.36.42,4.82.01.45-.12,1.13-.35,1.35-.8.4-.81.64-6.9.76-7.48" fill="#f1d244"/><path d="M205.42,232.2c.11.6,3.67,1.73,6.12,1.34c1.22-.19,3.74-.55,3.78-1.1.03-.27-2.2-.6-4.56-.72-2.34-.12-4.81-.02-5.35.55" fill="#3b496b"/><path d="M214.73,234.69c.44-.45.6-.54,1.17-.82.55-.28,3-1.6,3.08.52.09,2.12-2.5,3.54-3.2,3.9-.2.1-.64.16-.83.16s-.15-.41.02-.5c.24-.13.08-.05.31-.2.47-.28,2.1-1.69,1.63-2.39-.45-.65-1.35-.15-1.8.15-.34.22.21-.11-.15.07" fill="#f1d244"/><path d="M221.54,238.68c0-.5.53-.92,1.2-.92.65,0,1.18.41,1.18.92c0,.5-.53.92-1.19.92s-1.19-.41-1.19-.92Z" fill="#fddf19"/><path d="M223.27,221.49l10.41.23-3.3,10.6c0,0-10.2-.74-10.23-.81.983587-3.357305,2.023735-6.69778,3.12-10.02Z" fill="none"/><path d="M223.99,222.71l4.1.14-.4,1.32-4.06-.23.36-1.23Zm2.81,2.17l4.87.22-.55,1.33-4.72-.34.4-1.21Zm-3.95,1.78l4.67.27-.43,1.67-4.74-.3.5-1.64Z" fill="#2b354e"/><path d="M264.74,87.45h17.5v8.83h-17.5v-8.83Z" fill="#3b496b" fill-opacity="0.92"/><path d="M259.36,92.42h18.14v9.78h-18.14v-9.78Zm-46.02,83.56h40.3v10.73h-40.3v-10.73Zm.19-31.98h9.9v9.26h-9.9v-9.26Z" fill="#3b496b" fill-opacity="0.92"/><path d="M253.97,162.3c0-4.77,4.03-8.64,9.01-8.64c4.97,0,9,3.87,9,8.65s-4.03,8.65-9,8.65c-4.98,0-9-3.88-9-8.65ZM128.92,139.5l10.3.03.2-1.43l3.42.1-.11,11.37-13.97-.16.16-9.92Z" fill="#fddf19"/><path d="M139.53,137.92c-.07,0-.13,0-.19.04-.12.09-.12.28-.14.42l-.03.22-.02.2-.03.17-.05.37v.01h-2.07l-4.27-.02h-2.36l-.84-.01h-.59l-.02-.01c-.1,0-.2.08-.2.18c0,.17.03.09,0,.18v.52l-.02.93-.04,2.73-.04,2.42-.03,1.35-.01.87-.01.42v.38c0,.02-.02.1,0,.11.03.06.05.12.1.17.02.03.22.02.26.02l.56.01h.57l1.12.02l1.93.02l3.28.04l4.72.05l1.18.02c.13,0,.38.03.5-.06.13-.1.11-.28.12-.43v-1.22l.05-4.34.03-4.2.01-.3v-.66c0-.13.04-.33-.06-.44-.1-.12-.33-.1-.47-.1h-.38l-.26-.01-2.31-.07Zm.04.36h.24l.62.02l1.67.05.56.02v.82l-.03,1.68-.05,4.92-.02,2.55v.91l-.01.13h-.45l-1.16-.02-3.14-.04-3.63-.04-3.53-.03c-.57-.01-1.13,0-1.7-.03l.01-.38.04-2l.08-5.25.03-1.4v-.52h.14c.1.02.2,0,.3,0h.57l2.07.01l4.83.02h1.66c.15,0,.39.03.54,0c.25-.05.22-.38.25-.57l.02-.2.04-.28.04-.3.01-.07ZM117.15,153.4l.4-2.2h11.93v18.72h-14.18l-.35-16.59l2.21.08Z" fill="#3b496b" fill-opacity="0.92"/><path d="M117.63,151.03c-.3.02-.3.4-.34.62l-.03.17-.03.17-.06.35-.08.38-.06.4-.02.1h-.01c-.07-.02-.13,0-.2-.01l-.48-.02-.92-.03h-.2c-.03,0-.24-.02-.25-.01-.06.04-.13.07-.19.13-.02.01,0,.26,0,.29v.55l.06,2.33.2,9.58.06,2.85v.26l.01.26v.26c.01.1,0,.2.05.28.1.21.4.16.6.16h13.51c.1,0,.2,0,.28-.05.14-.1.13-.27.13-.43v-18.12c0-.15.01-.34-.14-.43-.1-.06-.31-.04-.42-.04h-11.48Zm.07.35h11.6v18.35h-13.83v-.34l-.02-.77-.05-2.6-.17-7.51-.04-2.07-.03-1.3c-.012107-.536625-.022107-1.073296-.03-1.61h.1l.54.02.54.02.47.01.37.01c.1,0,.18-.07.19-.17v-.12c.02-.03.02-.07.03-.11l.06-.31.15-.82.1-.59.02-.09Z" fill="#3b496b"/><path d="M117.51,151.1c-.042348-.005423-.085186.005286-.12.03l-2.54,2.1c-.041416.031204-.067364.078753-.071194.130467s.014827.102568.051194.139533c.06.07.18.09.26.02l2.52-2.11c.057818-.046352.08132-.1234.059217-.19413s-.085295-.120687-.159217-.12587Z" fill="#3b496b"/><path d="M125.9,153.25h2.22v2.72h-2.22v-2.72Z" fill="#5086b2" fill-opacity="0.79"/><path d="M125.9,153.06c-.1,0-.18.08-.18.19c0,.19.02.1,0,.19-.02.08,0,.17,0,.25v2.12c0,.03-.02.13,0,.16.04.06.07.12.12.17.02.02.27.02.31.02h1.69c.14,0,.3.01.4-.1.09-.1.06-.3.06-.43v-2.04c0-.1.02-.3-.05-.4-.09-.14-.26-.12-.4-.12h-1.95Zm.19.36h.1c.08.02.18,0,.27,0h1.48v2.37h-1.85v-2.37Z" fill="#3b496b" fill-opacity="0.92"/><path d="M117.82,155.22h6.91Z" fill="#5086b2" fill-opacity="0.79"/><path d="M124.73,155.03l-6.9.1c-.1,0-.19.08-.18.18c0,.1.08.18.17.17l6.92-.07c.1,0,.18-.1.18-.2s-.09-.18-.2-.18Z" fill="#3b496b" fill-opacity="0.92"/><path d="M126.35,158.8h-8.15" fill="none"/><path d="M117.51,158.89c-.023756.141047.038243.282779.157947.361072s.274403.078292.394106,0s.181703-.220025.157947-.361072c-.038939-.161743-.183635-.275739-.35-.275739s-.311061.113996-.35.275739Zm.1,0c0-.14.11-.26.25-.26.136745.000109.248029.110065.249779.246799s-.106681.249503-.243378.253114-.250931-.103278-.256401-.239913Zm9.42-.09c0-.1933-.1567-.35-.35-.35s-.35.1567-.35.35.1567.35.35.35.35-.1567.35-.35Zm-.1,0c0,.14-.11.25-.25.26-.068019.002723-.134207-.022409-.183277-.069592s-.076777-.112334-.076723-.180408c0-.15.11-.26.25-.26s.26.11.26.25Z" fill="#6ea4d0"/><path d="M126.4,162.97h-8.16" fill="none"/><path d="M117.56,163.05c0,.1933.1567.35.35.35s.35-.1567.35-.35-.1567-.35-.35-.35-.35.1567-.35.35Zm.1,0c0-.14.11-.26.25-.26s.25.12.26.25c.002761.140833-.109167.257239-.25.26s-.257239-.109167-.26-.25Zm9.42-.09c0-.196061-.158939-.355-.355-.355s-.355.158939-.355.355c0,.1933.1567.35.35.35s.35-.1567.35-.35Zm-.1,0c0,.140833-.114167.255-.255.255s-.255-.114167-.255-.255c0-.138071.111929-.25.25-.25s.25.111929.25.25Z" fill="#6ea4d0"/><path d="M126.4,161.56h-8.16" fill="none"/><path d="M117.56,161.64c0,.2.16.36.36.35.191902-.005485.343568-.164531.339937-.356477s-.161203-.345141-.353176-.343365-.346683.157862-.346761.349842Zm.1,0c0-.138071.111929-.25.25-.25s.25.111929.25.25-.111929.25-.25.25-.25-.111929-.25-.25Zm9.42-.09c0-.2-.17-.35-.36-.35-.2,0-.36.16-.35.36c0,.1933.1567.35.35.35s.35-.1567.35-.35Zm-.1,0c0,.14-.12.26-.26.26-.136745-.000109-.248029-.110065-.249779-.246799s.106681-.249503.243378-.253114.250931.103278.256401.239913Z" fill="#6ea4d0"/><path d="M126.37,160.12h-8.15" fill="none"/><path d="M117.54,160.2c-.034898.144958.023172.296427.146031.380904s.285079.084477.407938,0s.180929-.235946.146031-.380904c-.038939-.161743-.183635-.275739-.35-.275739s-.311061.113996-.35.275739Zm.1,0c0-.138071.111929-.25.25-.25s.25.111929.25.25-.111929.25-.25.25-.25-.111929-.25-.25Zm9.42-.09c.023756-.141047-.038243-.282779-.157947-.361072s-.274403-.078292-.394106,0-.181703.220025-.157947.361072c.038939.161743.183635.275739.35.275739s.311061-.113996.35-.275739Zm-.1,0c0,.14-.12.26-.26.26-.138071,0-.25-.111929-.25-.25s.111929-.25.25-.25.25.111929.25.25Z" fill="#6ea4d0"/><path d="M122.83,168.48h4.6m4.65-4.05v-.2M123.64,168c.52-.1,1.06-.96,1.15-1.44.03-.15.05-.62-.13-.68-.27-.09-.54.38-.62.56-.300945.699388-.431197,1.460335-.38,2.22.02.14.06.58.24.64.11.04.31-.13.39-.2.37-.28.45-.8.63-1.22.05-.13.22-.42.1-.57-.14-.14-.32.16-.36.25-.1.21-.3.75-.13.95.05.05.54-.38.58-.45c0,0,.09-.3,0-.26-.07.04-.08.34.04.34.14,0,.31-.24.39-.22.55.1,1.11-.13,1.68.03" fill="none"/><path d="M74.79,142.16h29.93c.19,0,.34.15.34.34v11.25c0,.19-.15.34-.34.34h-29.92c-.090174,0-.176654-.035821-.240416-.099584s-.099584-.150242-.099584-.240416v-11.25c0-.19.15-.34.34-.34Z" fill="#6ea4d0"/><path d="M76.7,147.62h3.73c.2,0,.34.16.34.34v3.7c0,.19-.15.34-.34.34h-3.73c-.18386-.00541-.33008-.15606-.33-.34v-3.7c0-.19.15-.34.33-.34Zm22.6.03h3.73c.2,0,.34.15.34.34v3.7c0,.19-.15.34-.34.34h-3.73c-.18386-.00541-.33008-.15606-.33-.34v-3.69c0-.19.15-.34.33-.34Zm-5.69-.03h3.73c.19,0,.34.16.34.34v3.7c0,.19-.15.34-.34.34h-3.73c-.090174,0-.176654-.035821-.240416-.099584s-.099584-.150242-.099584-.240416v-3.7c0-.19.16-.34.34-.34Zm-5.66,0h3.73c.18,0,.34.16.34.34v3.7c0,.19-.16.34-.34.34h-3.73c-.090174,0-.176654-.035821-.240416-.099584s-.099584-.150242-.099584-.240416v-3.7c0-.19.15-.34.34-.34Zm-5.61,0h3.73c.19,0,.34.16.34.34v3.7c0,.19-.15.34-.34.34h-3.73c-.090174,0-.176654-.035821-.240416-.099584s-.099584-.150242-.099584-.240416v-3.7c0-.19.15-.34.34-.34Z" fill="#3b496b"/><path d="M76.57,144.72h26.58Z" fill="#f1d244"/><path d="M76.57,144.72h26.58" fill="none"/><path d="M80.09,144.83c0-.37.32-.67.73-.67.4,0,.72.3.72.67c0,.38-.32.68-.72.68s-.73-.3-.73-.68Z" fill="#f1d244"/><path d="M77.25,151.83c-.042559-.261614-.042559-.528386,0-.79.03-.24.07-.7.47-.96.25-.17.64-.13.95-.26.43-.17.53-.48.53-.68c0-.27-.06-.68-.63-.67-.58.01-.58.5-.57.68.03.25.2.54.54.65.44.16.87.1,1.14.38.46.5.41,1.43.42,1.62m19.82.23c-.042385-.261628-.042385-.528372,0-.79.03-.24.07-.7.47-.96.25-.17.65-.13.95-.26.43-.18.53-.48.53-.69c0-.27-.05-.67-.63-.66-.57.01-.58.5-.57.67.03.26.2.55.54.66.45.16.87.1,1.14.38.46.5.41,1.43.42,1.62m-8.6,0c-.041482-.258345-.041482-.521655,0-.78.03-.25.07-.71.47-.97.25-.17.64-.13.94-.26.44-.18.54-.48.54-.68c0-.27-.06-.68-.63-.67-.58.02-.58.5-.57.68.02.25.2.54.54.65.44.16.87.1,1.14.38.46.5.4,1.43.42,1.62m-8.5.03c-.041482-.258345-.041482-.521655,0-.78.03-.25.07-.71.46-.97.25-.17.65-.13.95-.26.43-.18.53-.48.53-.68c0-.27-.05-.68-.63-.67-.57.02-.58.5-.56.68.02.25.2.54.53.65.45.16.88.1,1.14.38.46.5.41,1.43.42,1.62m-8.48.03c-.041312-.258359-.041312-.521641,0-.78.03-.25.07-.71.47-.97.25-.17.64-.13.94-.26.44-.18.54-.48.54-.68c0-.27-.06-.68-.63-.67-.58.02-.59.5-.57.68.02.25.2.54.54.65.44.16.87.1,1.14.38.46.5.4,1.43.42,1.62m-5.05,41.26l21.5-.11" fill="none"/><path d="M88.1,193.2c-.049886-.662287.275187-1.296764.841867-1.643155s1.279585-.34639,1.846266,0s.891753.980868.841867,1.643155c0,.977544-.792456,1.77-1.77,1.77s-1.77-.792456-1.77-1.77Z" fill="#f1d244"/><path d="M89.94,191.25c-.37099-.017125-.739042.073152-1.06.26-.2.12-.08.1-.89,1.54-.05.03-.09.08-.08.15.15.75.05.51.15.75.353826.834926,1.23419,1.31813,2.128528,1.16828s1.569119-.893621,1.631472-1.79828c.029916-.524991-.152376-1.039985-.505909-1.429247s-.848652-.620142-1.374091-.640753Zm0,.35c.615913.022602,1.162465.401285,1.4.97.06.17.1.34.11.51.08,1.26,0,0-3.17.1.1-.56.03-.42.12-.6.27-.65.9-1,1.54-.98Z" fill="#2b354e"/><path d="M254.14,96.72h1.12m.89-.07l17.27.13m.02-12.34v12.23m.06-13.79v.85m-14.05,8.66h5.15m.18-4.94l.14,8.83m17.33-.13h-17.33m17.2-8.7h-17.2m17.28,0v8.68M259.36,92.4v9.73m-.01.07l18.02.1m.23-6.13l-.14,6.15m4.77-10.7h4.83m.7.01h.92m-16.16,10.64h.12m-.01,0v3.1m-.03.65v.83m.81-10.25v2.76m-.45-2.59h3.07m-2.65,2.6h2.73m-.1-2.6v2.6m-15.18.58h3.18m.53.07h3.22m-6.98,1.17h4.9m.71-.03h3.66" fill="none"/><path d="M278.56,89.1c-.62-.03-1.35.11-1.63.73-.09.21-.1.44-.11.66c0,.16,0,.31.03.46.14.66.65.9,1.25.99.65.1,1.43.03,1.63.8.03.09.04.18.04.28c0,.68-.64,1.15-1.28,1.12-.267945-.036274-.522438-.139447-.74-.3-.21-.13-.58-.38-.58-.67c0-.1-.09-.18-.19-.18s-.19.09-.18.2c.01.43.4.75.75.97.25.16.53.3.83.34.15.02.31,0,.46-.03.54-.1,1.03-.41,1.22-.94.119457-.322631.119457-.677369,0-1-.25-.67-.79-.82-1.44-.9-.51-.06-1.22-.07-1.4-.68-.026421-.114797-.039839-.232202-.04-.35-.01-.25,0-.53.15-.75.32-.45,1.17-.46,1.65-.33.12.03.23.12.32.2.21.18.44.45.36.74-.03.1.03.2.12.22.1.02.2-.03.22-.12.13-.49-.2-.93-.57-1.2-.256174-.174469-.560103-.265298-.87-.26Z" fill="#2b354e"/><path d="M278.54,94.15c-.1,0-.18.07-.18.17v.18l-.01.22v.12l-.01.14v.19c0,.1.07.18.18.18.1,0,.19-.07.19-.18v-.85c0-.1-.07-.17-.17-.17Zm-.14-5.9c-.1,0-.19.09-.18.2l.01.17v.14l.01.1.02.24v.18c.01.1.1.18.2.17.09,0,.17-.09.16-.18v-.18l-.02-.35v-.14l-.01-.17c0-.1-.1-.18-.2-.18Zm-3.13,2.53c-.06-.01-.12,0-.11.04c0,.1,0,0-.32,0-.1,0-.19.09-.18.19c0,.1.09.19.19.19h.31c0,.1.21-.02.31-.02s.32.1.32,0s0,0,.3,0c.1,0,.18-.09.18-.19s-.08-.17-.18-.17h-.31c-.01-.1-.2,0-.31,0l-.2-.04Zm-.94.04l-4.04.03c-.06788,0-.130605.036214-.164545.095s-.03394.131214,0,.19.096665.095.164545.095l4.04-.05c.1,0,.18-.08.18-.18s-.08-.18-.18-.18Zm-4.56,0c-1.07.04-2.14.03-3.2.03-.110457,0-.2.089543-.2.2c0,.1.09.18.2.18c1.07,0,2.14-.02,3.21-.05.099411-.002761.177761-.085589.175-.185s-.085589-.177761-.185-.175Zm6.12,1.41l-9.49.01c-.1,0-.18.08-.18.18s.08.17.18.17l9.49.01c.1,0,.19-.08.19-.18s-.09-.2-.19-.2Zm-.05.99l-9.45.15c-.1,0-.17.08-.17.18s.08.18.18.17l9.45-.13c.102782-.005023.184977-.087218.19-.19c0-.1-.1-.18-.2-.18Zm-9.21-3.43c-.072479-.017449-.148214.011586-.190452.073016s-.042238.142539,0,.203968.117973.090465.190452.073016l9.3.02c.1,0,.18-.08.18-.19c0-.1-.09-.18-.19-.18h-9.3Zm20.26,23.47c-2.494601-.07974-4.910296.880019-6.67,2.65-.650624.659276-1.190869,1.418996-1.6,2.25-.41.84-.02.07-.83,3.8-.01.03-.03.04-.03.07.78,3.31.3,2.27.78,3.31.791434,1.703945,2.119086,3.101842,3.78,3.98c3.609726,1.918969,8.057077,1.185934,10.86-1.79c2.979306-3.168795,3.027164-8.093907.11-11.32-1.629274-1.831897-3.94888-2.90109-6.4-2.95Zm-.68.36c2.35-.1,4.71.73,6.45,2.44c1.414197,1.410463,2.267206,3.287082,2.4,5.28.174275,2.950323-1.280155,5.759406-3.79,7.32-3.310899,2.102668-7.619349,1.729979-10.52-.91-.65-.6-1.2-1.3-1.63-2.08-.44-.8,0,0-.99-3.66.59-3.2.17-2.19.59-3.2.677802-1.668854,1.886867-3.067713,3.44-3.98c1.228657-.733204,2.6205-1.149039,4.05-1.21Zm.39-3.79c-.1,0-.18.08-.18.18l.04,2.32c0,.1.09.18.2.18.1,0,.17-.08.17-.19l-.05-2.31c0-.1-.08-.18-.18-.18Z" fill="#2b354e"/><path d="M297.84,121.1l-2.07.15c-.1,0-.17.08-.17.18.01.1.1.17.2.17l2.06-.12c.1,0,.19-.1.18-.2c0-.1-.1-.18-.2-.18Zm-3.89-8.12c-.05,0-.1.03-.13.07l-1.23,1.62c-.044198.077472-.024996.175628.045138.230733s.170047.05054.234862-.010733l1.25-1.61c.031869-.037907.046713-.087269.041036-.136466s-.031372-.093881-.071036-.123534c-.039504-.031395-.089873-.045786-.14-.04Zm-17.03,10.17l-2.36.03c-.072479-.017449-.148214.011586-.190452.073016s-.042238.142539,0,.203968.117973.090465.190452.073016h2.36c.1,0,.19-.09.18-.2c0-.1-.08-.18-.18-.18Zm2.96,5.01c-.047012-.005338-.094121.009157-.13.04l-1.95,1.65c-.041416.031204-.067364.078753-.071194.130467s.014827.102568.051194.139533c.073805.07281.191012.077151.27.01l1.93-1.66c.036243-.030766.057947-.075303.059847-.122806s-.016177-.093631-.049847-.127194c-.030773-.034717-.073763-.056211-.12-.06Zm1.67,1.59c-.04896.009859-.092069.038598-.12.08l-.05.07c-.011603.02428-.024972.047677-.04.07l-.07.11-.22.32-.01.02-.1.15-.13.18-.17.25c-.028389.082649.003259.174003.076691.221379s.16971.038553.233309-.021379l.17-.24.12-.18.1-.16.22-.34.07-.12c.032946-.046942.06628-.09361.1-.14.029685-.058879.0248-.129278-.012733-.183493s-.101707-.083567-.167267-.076507Zm-3.9-4.25c-.04306-.01303-.089439-.009462-.13.01l-.1.05-.07.04-.21.11-.35.2-.43.22-.15.08-.16.09c-.091127.052467-.122467.168873-.07.26s.168873.122467.26.07l.15-.09.16-.09.22-.12.6-.34c.10608-.057764.212752-.114434.32-.17.040842-.022898.070431-.061628.081787-.107053s.003474-.093523-.021787-.132947c-.021631-.038682-.057513-.067388-.1-.08Zm18.69-8.46c-.044349-.008181-.090161-.001133-.13.02l-.05.02-.04.03-.28.17-.08.06-.12.07-.15.1c-.08773.05568-.11446.171507-.06.26.061651.079857.173127.101295.26.05l.15-.1.11-.07.1-.06.2-.14.07-.04.03-.02c-.1.06,0,0,.05-.04.08-.05.1-.16.05-.24-.02663-.03626-.065874-.061233-.11-.07Zm-5.89-5.54c-.091094-.034351-.192992.009952-.23.1-.03.1,0,.04-.03.1v.03l-.04.1-.1.3-.05.13-.06.16-.07.22c-.043017.067399-.039235.154518.009461.217936s.131885.089563.208105.065404.12916-.09345.132434-.17334l.07-.21.06-.17.04-.13.1-.3.02-.1.03-.06.02-.06c.026969-.090857-.021133-.187061-.11-.22Zm-8.35.06c-.068835-.016193-.140775.00942-.18389.065469s-.049417.132152-.01611.194531l.03.06c.01119.019383.021208.039418.03.06l.06.1.14.26.01.02.02.03.07.13.1.18.12.23c.05.08.16.11.25.06.044895-.021358.078958-.060333.09411-.107685s.010046-.098861-.01411-.142315l-.13-.23-.1-.16-.07-.14-.18-.3c-.019391-.036996-.039394-.073667-.06-.11l-.03-.06c.09.16,0,0-.04-.06-.022399-.038024-.057987-.066494-.1-.08Zm-6.69,8.53c-.096179-.012002-.184592.054308-.2.15-.01.1.05.18.15.2l.09.01h.04l.1.02.32.06c.103259.017126.206593.033793.31.05l.24.03c.1.01.2-.05.21-.16.011951-.101674-.058801-.194536-.16-.21l-.23-.03h-.02l-.16-.03-.14-.01-.31-.05-.11-.01-.07-.01-.06-.01Zm17.24,8.63c-.05,0-.1,0-.13.03-.039842.026473-.067508.067716-.07689.114622s.000294.095618.02689.135378l.06.08.05.06.08.12.18.25.07.1.1.15.14.19.18.26c.06.08.18.1.26.04.09-.06.1-.18.05-.26l-.33-.44-.11-.16-.25-.34c-.04-.04-.05-.07-.08-.12-.018395-.021543-.038457-.041605-.06-.06l-.05-.07c-.023936-.040812-.063798-.069803-.11-.08Zm2.56-3.09c-.044291.014973-.080461.047525-.1.09-.04.09,0,.2.08.24l2.26,1.1c.09.04.2,0,.25-.1.04-.08,0-.2-.09-.24l-2.26-1.08c-.043048-.023342-.094071-.026986-.14-.01Zm-45.34,53.3l-32.97.16c-.1,0-.18.08-.18.17c0,.1.09.18.19.18l32.96-.13c.104934,0,.19-.085066.19-.19s-.085066-.19-.19-.19Zm-6.51,1.97l-26.43.3c-.1,0-.18.08-.18.18s.09.17.18.17l26.44-.28c.1,0,.18-.08.18-.19c0-.1-.09-.18-.19-.18Zm-.09,2.23l-26.08.08c-.1,0-.18.08-.18.18s.09.18.18.18l26.08-.06c.1,0,.19-.09.19-.2c0-.1-.09-.18-.19-.18Z" fill="#2b354e"/><path d="M216.69,146.05c-.04558.018294-.081706.05442-.1.1l-1.9,3.75c-.04.09,0,.2.08.24.09.05.2.01.24-.08l1.9-3.74c.045454-.09425.010576-.207605-.08-.26-.045143-.016867-.094857-.016867-.14,0Z" fill="#fff"/><path d="M216.75,146.04c-.099672.033404-.156473.138267-.13.24l1.32,3.75c.03.09.13.14.22.1.1-.03.14-.13.11-.22l-1.29-3.76c-.037036-.090296-.13646-.137847-.23-.11Z" fill="#fff"/><path d="M219.72,147.44c-.048144.005179-.091795.030642-.12.07l-1.69,2.22c-.049761.052757-.065149.12924-.039664.197137s.087399.115364.159584.122348.142051-.027733.18008-.089485l1.67-2.24c.028116-.035701.040768-.081174.035132-.126266s-.029093-.086052-.065132-.113734c-.035879-.030843-.082988-.045338-.13-.04Z" fill="#fff"/><path d="M219.94,147.4c-.05,0-.1,0-.14.04-.084248.058877-.106401.174075-.05.26l1.76,2.45c.06.08.17.1.25.04.08-.05.1-.16.04-.24l-1.74-2.47c-.030351-.036922-.072921-.061755-.12-.07Z" fill="#fff"/><path d="M273.98,161.7l-10.7.18c-.1,0-.18.07-.18.17s.08.17.18.17l10.7-.14c.1,0,.2-.09.2-.19-.005333-.106533-.093333-.190133-.2-.19Z" fill="#2b354e"/><path d="M263.25,161.9c-.1,0-.17.07-.17.17l.04,11.3c0,.1.08.2.18.2s.19-.1.19-.2l-.06-11.3c0-.1-.08-.17-.18-.17Zm1-.04c-.1,0-.19.08-.19.18l-.03,4.52c0,.1.08.19.18.19.106667.000133.194667-.083467.2-.19v-4.52c0-.1-.07-.18-.17-.18Zm41,9.59l-5.6.25c-.1,0-.17.08-.16.18c0,.1.08.17.18.17l5.6-.23c.1,0,.19-.09.18-.19c0-.1-.1-.18-.2-.18Z" fill="#2b354e"/><path d="M299.56,171.66c-.1,0-.18.09-.18.18l.17,5.02c0,.1.09.18.19.18s.19-.09.18-.2l-.18-5c0-.1-.09-.18-.18-.18Zm5.74-.24c-.1,0-.18.1-.18.19l.25,5.15c0,.1.08.19.19.18.1,0,.19-.09.18-.19l-.27-5.16c0-.1-.08-.17-.18-.17Z" fill="#2b354e"/><path d="M305.56,176.7l-5.78.06c-.1,0-.18.08-.18.18s.08.17.18.17l5.78-.03c.1,0,.19-.09.19-.19s-.09-.19-.2-.19ZM270.5,158.25c-.31.03-.67.16-.88.4-.16.18-.27.4-.23.64.04.2.24.43.46.33.13-.05.14-.15.12-.23v.03-.09h-.01l-.04-.04c-.02-.02-.03-.03-.05-.03h.03l-.01-.01h-.04l-.06-.02.04.02-.05-.01-.02.01v-.01h-.01l-.01-.08c.01-.13.1-.25.2-.33.296922-.215358.671005-.29526,1.03-.22c1.47.25,2.32,1.84,2.6,3.17.11754.578838.151218,1.171573.1,1.76-.097014,1.194329-.422939,2.358833-.96,3.43-1.217048,2.354461-3.075241,4.316658-5.36,5.66-.7.44-1.45.83-2.21,1.18-.092837.045056-.136154.153347-.1.25.05.09.16.13.26.09c1.214137-.553301,2.36989-1.226653,3.45-2.01c2.4-1.77,4.38-4.27,5.08-7.2.406762-1.546428.265419-3.186002-.4-4.64-.22232-.46744-.52721-.890899-.9-1.25-.531601-.537764-1.264349-.827961-2.02-.8Zm-.75.98l.01.01h.03-.04Zm.15.04l.02.01-.01-.01h-.01Zm.07.12v-.02.02Zm-.3-.09v.01h-.01Zm-.03.08c0,.02-.01.05,0,.07-.01-.03,0-.05,0-.07Zm0,.04v.03-.03Zm.3.08l-.03.03c.010673-.009303.020697-.019327.03-.03Zm-.08.06h-.06.06Zm32.17,8.74v.1c-.24.07-.47.19-.65.37-.36.34-.59.78-.77,1.23-.215385.530045-.366462,1.083996-.45,1.65-.01.1.05.18.15.2.1,0,.19-.06.2-.16.09-.6.26-1.2.51-1.75.15-.33.34-.66.6-.91.24-.23.52-.36.84-.37h.1c.29.03.53.16.72.37.29.3.45.7.57,1.09.16.48.25,1,.28,1.52c0,.1.1.18.2.18s.18-.1.18-.2c-.032153-.621689-.156859-1.235105-.37-1.82-.127828-.380585-.331995-.731072-.6-1.03-.159193-.165315-.354197-.291896-.57-.37v-.1h-.94Zm-2.11-11.6l-8.17.22c-.1,0-.17.09-.17.18c0,.1.08.18.18.18l8.17-.2c.1-.01.18-.1.18-.2s-.09-.18-.2-.18Zm2.57,3.05l-12.9.02c-.1,0-.18.08-.18.18s.08.18.18.18h12.9c.1,0,.18-.09.18-.2c0-.1-.08-.18-.19-.18Zm.31,3.47h-13.52c-.1,0-.18.08-.18.18s.08.18.18.18h13.51c.1,0,.19-.07.19-.17s-.09-.2-.19-.2Zm-13.67,3.23c-.1,0-.17.08-.17.18s.08.18.18.18l13.46.07c.1,0,.2-.08.2-.19c0-.1-.1-.18-.2-.19l-13.47-.05Zm.42,3.27c-.09925.00448-.180166.081136-.19.18c0,.1.08.17.18.17l9.71.15c.1,0,.19-.07.19-.18.000133-.106667-.083467-.194667-.19-.2l-9.7-.12ZM245.76,310.4c-.043914.011691-.081319.040478-.103865.079934s-.028357.086297-.016135.130066l1.75,6.42c.03.1.13.15.23.13.1-.03.16-.13.13-.23l-1.76-6.42c-.015851-.045133-.049015-.0821-.092169-.102739s-.092747-.023251-.137831-.007261Zm26.53-1.01c-.096179-.012002-.184592.054308-.2.15l-1.14,8.04c-.02.1.05.2.15.21.1.02.2-.06.22-.16l1.12-8.04c.012002-.096179-.054308-.184592-.15-.2Z" fill="#2b354e"/><path d="M247.57,316.8c-.1,0-.17.07-.17.17s.07.18.17.18l23.48.68c.1,0,.2-.08.2-.18s-.08-.18-.19-.19l-23.49-.66Zm27.32-8.27c-.048309-.008708-.098024.003891-.136355.034556s-.061536.076402-.063645.125444c-.5,4.84-1.02,9.67-1.53,14.51-.01.1.06.2.17.2.1.02.19-.05.2-.15l1.52-14.53c.005602-.046745-.008432-.093719-.038757-.129731s-.074227-.057834-.121243-.060269Z" fill="#2b354e"/><path d="M260.44,317.17c-.1,0-.18.07-.18.17l-.22,5.89c0,.1.07.2.18.2.106667.000133.194667-.083467.2-.19l.2-5.9c0-.09-.08-.17-.18-.17Zm-15.98-7.29c-.048357.009499-.090705.03841-.117163.079987s-.034713.092184-.022837.140013l3.03,13.2c.02.1.12.16.22.14s.17-.13.14-.23l-3.04-13.19c-.024542-.092097-.116622-.149099-.21-.13Zm14.99-52.48c-.1,0-.18.08-.18.18l-.53,31.78c0,.1.07.19.18.19.1,0,.19-.08.19-.19l.51-31.78c0-.1-.07-.17-.17-.17Z" fill="#2b354e"/><path d="M272.07,276.7l-1.35.21-2.28.36c-1.3.2-2.61.38-3.9.64-1.76.34-3.5.77-5.25,1.08-.050681.007356-.096247.03486-.126369.076277s-.042248.093241-.033631.143723c.02.1.12.17.22.16c1.76-.32,3.5-.76,5.25-1.1l1.56-.27l2.56-.41l2.22-.35l1.17-.18c.1-.01.17-.1.15-.2-.015408-.095692-.103821-.162002-.2-.15Z" fill="#2b354e"/><path d="M259.44,270.97c.3-.07,4.36-3.23,4.72-3.5c1.5-1.12,10.35-7.69,10.63-8.03m-17.2-21.58c.17,2.24,1.9,19.88,1.85,20.23m6.16,3.37c-.3.18-3.84,5.12-4.33,5.83-.44.63-1.99,2.48-2.04,2.58l.35-.45m-8.2,3.51l7.64,10.18m-7.11-29.19l3.1,9.97M243.09,249.7l16.04,19.24M282.24,127.5l.98-4.61-3.24-3.42l4.68-.5l2.25-4.13l1.92,4.3l4.63.86-3.5,3.15.61,4.67-4.08-2.35-4.25,2.02Zm3.31-6.7l1.07-1.51m.06,4.75v-4.74m-1.31,4.75h2.78m-58.25,26.1h26.78m-29.88,3.21h29.85m-42.88,3.16l39.72.13m-39.59,3.27l36.29.1m-36.59,3.42l36.46-.11m-36.16,3.15l36.07.31m-36.21,3.03l36.22.18M146.72,138.27h50.08v34h-50.08v-34Zm160.29,84.4v-27.71" fill="none"/><path d="M307.1,190.97c-.73954,0-1.422903.39454-1.792673,1.035s-.36977,1.42954,0,2.07s1.053133,1.035,1.792673,1.035c1.143229,0,2.07-.926771,2.07-2.07s-.926771-2.07-2.07-2.07Zm0,.6c.555961-.045816,1.090453.22487,1.38251.700154s.292057,1.074409,0,1.549692-.826549.74597-1.38251.700154c-.817381,0-1.48-.662619-1.48-1.48s.662619-1.48,1.48-1.48Zm-.1,35.09c1.140468.005523,2.069477-.914532,2.075-2.055s-.914532-2.069477-2.055-2.075c-1.140468-.002761-2.067239.919532-2.07,2.06s.919532,2.067239,2.06,2.07Zm0-.6c-.556171.041883-1.088658-.232465-1.37739-.709659s-.284672-1.076187.010504-1.549423.831334-.740338,1.386886-.690918c.767476.065813,1.356154.709317,1.353543,1.479605s-.595638,1.409787-1.363543,1.470395Z" fill="#2b354e"/><path d="M82.66,166.73h4m-4.19,5.51h4m-3.97-2.77h3.96m220.6,25.67v.56m-6.98,26.91v-27.72" fill="none"/><path d="M300.17,190.91c-1.140468-.005523-2.069477.914532-2.075,2.055s.914532,2.069477,2.055,2.075s2.069477-.914532,2.075-2.055-.914532-2.069477-2.055-2.075Zm0,.6c.566329-.06419,1.119196.202528,1.421443.685743s.300158,1.097052-.005368,1.578199-.860196.744099-1.426075.676058c-.767651-.063261-1.358448-.704747-1.358448-1.475s.590797-1.411739,1.358448-1.475Zm-.1,35.09c.73954,0,1.422903-.39454,1.792673-1.035s.36977-1.42954,0-2.07-1.053133-1.035-1.792673-1.035c-1.084801.075536-1.926212.977572-1.926212,2.065s.841411,1.989464,1.926212,2.065Zm0-.6c-.555961.045816-1.090453-.22487-1.38251-.700154s-.292057-1.074409,0-1.549692.826549-.74597,1.38251-.700154c.767651.063261,1.358448.704747,1.358448,1.475s-.590797,1.411739-1.358448,1.475Z" fill="#2b354e"/><path d="M120.26,183.52h26.67v25.3h-26.67v-25.3Z" fill="none"/><path d="M116.6,213.42h33.45v6.67h-33.44v-6.67Zm83.34-14.5h89v17.42h-89v-17.42Z" fill="#3b496b"/><path d="M177.05,183.3h5.94c.19,0,.34.16.34.34v5.82c0,.18-.16.33-.34.33h-5.94c-.18394.00008-.33459-.14614-.34-.33v-5.82c0-.18.15-.33.34-.33Zm.05,30.29h5.94c.18,0,.34.15.34.33v5.82c0,.18-.16.33-.34.33h-5.94c-.18394.00008-.33459-.14614-.34-.33v-5.82c0-.18.15-.33.34-.33Zm-.07-10.06h5.94c.2,0,.34.15.34.34v5.8c0,.2-.15.34-.34.34h-5.94c-.180047-.005222-.324778-.149953-.33-.33v-5.81c0-.2.15-.34.34-.34Zm.01-9.83h5.94c.19,0,.34.16.34.35v5.8c0,.2-.15.35-.34.35h-5.94c-.18386-.00541-.33008-.15606-.33-.34v-5.81c0-.19.15-.34.33-.34Z" fill="none"/><path d="M176.78,195.38c.137234-.174964.295036-.332766.47-.47l1.2-.9c.04-.03.3-.27.39-.2v.03c-.03.2-.37.5-.49.64-.4.49-.79.99-1.16,1.5-.09.13-.22.36-.3.5l-.19.34c.15-.01.34-.33.43-.41l.24-.25c.67-.63,1.36-1.22,2.07-1.8.28-.22.55-.38.84-.57.1-.06.12-.1.23-.13.02,0-.63.7-.63.7-.07.16.39-.38.27-.26-.29.29-.59.56-.86.86-.627453.693913-1.199225,1.436213-1.71,2.22-.2.29-.42.55-.6.83l-.17.29c.06.08.2-.1.28-.17l.64-.6c1.05-.96,2.01-2,3.12-2.9.28-.22.6-.47.9-.66.02,0,.33-.16.35-.09.02.08-.12.16-.14.17l-.24.2c-.225498.190215-.442381.390415-.65.6-1.00061,1.034065-1.935758,2.129524-2.8,3.28l-.9,1.16c-.14.2-.14.23-.26.44-.031283.054587-.064641.10796-.1.16.48-.5,1-.96,1.5-1.43.81-.75,1.57-1.52,2.44-2.2.44-.34.84-.7,1.23-1.08.11-.11.26-.18.39-.28.08-.05.2-.23.23-.18.03.06-.14.26-.16.28-.2.28-.48.49-.69.76-.79,1.01-1.63,1.99-2.41,3.01-.26.35-.57.65-.82,1-.04.06-.17.14-.1.18.13.1.4-.24.46-.29.25-.26.49-.54.75-.78.77-.73,1.68-1.3,2.53-1.92.16-.12.36-.47.61-.43.02,0-.1.1-.1.1-.07.07-.12.16-.17.24-.2.26-.4.54-.61.79-.29.33-.44.69-.7,1.03-.24.3-.48.51-.67.83-.06.1-.3.38-.26.5.01.03.08.01.09.01.22-.06.47-.32.65-.45.16-.13.28-.29.44-.41.16-.14.37-.13.54-.23.22-.14.4-.29.63-.41.05-.03.23-.24.3-.23.1.01-.12.27-.14.31-.1.2-.17.4-.3.58-.08.1-.2.16-.28.27-.08.1-.12.2-.2.31-.022708.031632-.042776.065078-.06.1" fill="none"/><path d="M120.27,203.04c-.079565,0-.155871.031607-.212132.087868s-.087868.132567-.087868.212132c0,.16.13.3.29.3l26.66.25c.18,0,.32-.14.32-.31.000084-.172898-.137186-.314597-.31-.32l-26.66-.22Zm2.78,2.59l-2.79.05c-.079565,0-.155871.031607-.212132.087868s-.087868.132567-.087868.212132c.01.16.14.3.3.29.94,0,1.87,0,2.8-.02.171208,0,.31-.138792.31-.31s-.138792-.31-.31-.31Zm6.73-.06l-2.95.01c-.079565,0-.155871.031607-.212132.087868s-.087868.132567-.087868.212132c0,.16.13.3.3.3l2.95.02c.17,0,.31-.14.31-.31.002695-.082229-.027407-.162157-.083677-.222178s-.134091-.095212-.216323-.097822Zm3.68,0c-.079565,0-.155871.031607-.212132.087868s-.087868.132567-.087868.212132c0,.16.12.29.29.3c1.01,0,2.03.03,3.04.04.17,0,.32-.14.32-.31.002709-.083936-.028752-.165379-.087184-.225697s-.138837-.094347-.222816-.094303l-3.04-.01Zm6.54-.11c-.079565,0-.155871.031607-.212132.087868s-.087868.132567-.087868.212132c0,.17.13.3.29.3l3.21.05c.08297.005544.164519-.023598.225183-.080471s.095002-.136374.094817-.219529c.002709-.083936-.028752-.165379-.087184-.225697s-.138837-.094347-.222816-.094303c-1.07-.02-2.14-.02-3.22-.03Z" fill="#2b354e"/><path d="M78.1,113.23l20.35.21M77.8,115.2l20.6.19" fill="none"/><path d="M113.2,233.45c-.42,0,3.53-6.22,9.03-11.46s10.43-5.15,11.5-5.24c2.9-.24,5.03,1.1,7.92,1.37c2.04.2,2.2-2.21,8.4-1.14s10.05,5.97,10.56,6.52c1.1,1.18,4.9,5.97,5.77,7.23.78,1.14,6.19,10.73,7.66,9.8.37-.23,19.51-10.5,21.84-11.28.77-.26,2.58,2.74,2.95,3.34.47.76,1.35,1.62,1.08,2.64-.26.98-25.04,15.91-25.64,16.11-.77.26-1.87.36-2.7.31-.48-.03-1.42-.77-1.77-.97-.67-.4-7.19-5.99-7.82-6.75-.4-.48-8.2-9.5-8.5-9.42-.36.12.04,4.93,0,5.33-.26,2.6-.06,9.22-.06,11.84c0,1.52,0,9.9-.23,12.48-.15,1.63-7.67,1.96-8.42,1.96-1.97,0-5.8.4-6.71.5-.3.04-4.16-4.34-4.62-5.2-1.22-2.23-2.93-9.62-2.75-14.12s.2-4.6.41-6.87c1.19-12.6,1.99-6.02.91-6.23-.7-.13-16.42-.75-18.82-.75Z" fill="#f1d244"/><path d="M161.15,305.43l2.5-3.15l5.22,1.63l5.2,11.4-12.92-9.88Zm20.17,15.81l1.88,3.25l12.02-6.4-9.16.93-4.74,2.22Zm-27.95-61.79l32.65,5.16-16.36,38.37-5.2-1.56l6.48-29.22-17.74-8.13.17-4.62Z" fill="#2b354e"/><path d="M170.92,272.3c-.17-2.18.17,2.18,0,0s.17,2.18,0,0-17.72-8.24-17.72-8.24l.1.28-15.41,2.19c0,0,2.47,2.66,6.21,5.42c4.7,3.48,11.19,7.25,14.8,7.76c6.5.93,9.72,2.99,9.72,2.99m5.15,10.63l8.78-20.59l3.37,44.19-4.74,1.7-7.4-25.3Z" fill="#3b496b"/><path d="M134.95,216.74c0,0,3.62,1.4,6.7,1.38c3.06,0,5.12-1.19,5.12-1.19l-1.36-5.5-10.6-1.47-.57-12.12l9.06-4.25c0,0,1.91-.66,3.63.15c1.7.8,3.13,2.94,3.13,2.94s1.8,13.34-2,14.45c-3.83,1.11-13.25-1.18-13.25-1.18m62.08,19.89c0,0,3.49-5.17,4.87-6.56c1.4-1.38-1.04,3.56-1.04,3.56s5.72-5.48,6.23-5.25c.51.22-4.77,5.28-4.77,5.28s5.92-5.44,6.08-4.87c.16.56-4.4,5.22-4.4,5.22s4.24-4.35,4.58-3.69c.35.67-4.92,5.17-4.92,5.17s4.61-3.31,3.72-1.85c-.9,1.45-7.31,7.68-7.31,7.68l-3.04-4.69Z" fill="#daa987"/><path d="M206.8,221.5c-.08.03-.16.08-.21.11-.31.18-.6.41-.88.63-1.160928.950315-2.288283,1.940919-3.38,2.97l-1.14,1.07-.18.16c.394298-.818094.754606-1.652139,1.08-2.5.08-.22.22-.55.2-.8-.03-.16-.16-.22-.3-.15-.23.11-.41.35-.58.54-.28.31-.54.64-.8.97-1.212832,1.556259-2.366974,3.157381-3.46,4.8l-.32.46-.02.04v.03c0,.03-.02.04,0,.07l.87,1.34l1.54,2.38.5.76c.03.04.12.25.22.24.06,0,.11-.09.15-.12l.28-.26l1.13-1.13c1.52-1.5,3.03-3,4.46-4.58l.34-.37.3-.35c.26-.3.54-.61.74-.96.07-.11.16-.28.07-.4-.1-.12-.29-.06-.4-.02-.3.1-.57.26-.83.41-.51.3-1,.63-1.48.95l.54-.48c.95-.87,1.93-1.76,2.76-2.76l.2-.24.15-.22c.1-.14.28-.42.17-.6-.17-.27-.6,0-.78.11l-.1.08-.1.07c-.4.28-.78.59-1.14.91.581984-.652723,1.135822-1.330007,1.66-2.03l.19-.29c.06-.12.22-.49-.07-.47-.03,0-.07,0-.1.02-.33.11-.63.36-.9.56l-.31.24c-.75606.585637-1.489908,1.199401-2.2,1.84.63-.64,1.25-1.28,1.82-1.97l.2-.24.16-.21c.08-.1.33-.45.17-.58-.06-.06-.14-.05-.22-.03Zm.08.17c-.03.16-.16.31-.25.43-.23.31-.5.6-.75.9-1.133474,1.24488-2.314344,2.445765-3.54,3.6l-.17.16-.01.01-.04.03c-.02.03-.04.04-.03.05.04.05.1.06.15.1v-.01l.11-.1.15-.13.53-.49.28-.25.3-.27c1.188616-1.081616,2.419579-2.115759,3.69-3.1.252804-.196749.520246-.37393.8-.53l.07-.01-.01.03c-.113234.231571-.247109.452464-.4.66-.28.38-.59.74-.89,1.09-.987597,1.135948-2.01146,2.239851-3.07,3.31l.13.13c1.143869-1.159708,2.345389-2.261101,3.6-3.3.18-.13.37-.27.58-.36.06-.03.16-.09.24-.06.04,0,.02.09.01.11-.03.12-.1.22-.17.32-.26.4-.6.76-.94,1.11-.94,1-1.95,1.92-2.97,2.82l-.66.58c-.04967.028445-.093726.065723-.13.11l-.01.01h-.01c-.02.02-.05.05-.04.07.03.04.08.07.12.1l.04-.02.03-.03.15-.1.31-.22c.550549-.384109,1.110729-.754227,1.68-1.11l.5-.3c.29872-.169409.609569-.316478.93-.44h.06l-.01.08c-.04.09-.09.16-.14.24-.15.23-.33.43-.5.64-.69.8-1.4,1.57-2.14,2.32-1.070116,1.116228-2.156905,2.216351-3.26,3.3l-.61.6c-.175546.174472-.352216.347809-.53.52l-.12.11-.03-.04-.03-.06-.1-.15-.11-.18-.29-.44-.43-.66-.74-1.14-1.22-1.87.04-.05.09-.12.4-.6c.4-.6.81-1.17,1.22-1.75.752841-1.080697,1.543326-2.134677,2.37-3.16.286236-.348413.593474-.679028.92-.99l.06-.03.01.05-.01.12-.06.26c-.07.23-.16.46-.25.69-.28.71-.6,1.4-.93,2.1l-.07.17-.07.13c-.04.08-.16.24,0,.27.03,0,.05-.03.09-.06v.01l.01-.02.11-.08.07-.07.83-.78c1.04-.97,2.1-1.93,3.17-2.86.539637-.463297,1.103784-.897256,1.69-1.3.061295-.04314.128711-.076848.2-.1Z" fill="#fff"/><path d="M140.74,203.74c-.05.06-.42-1.96-.6-2.05-.277886.047325-.547387.134913-.8.26-.02.03.05.04.07.07.19.32.35,1.69.44,1.94.02.07-.35-.17-.44-.26-.25-.25-.58,0-.59,0-.02-.01-.12-.26-.14-.3-.28-.34-.92-.46-1.2-.1-.33.38-.56,1.27-.37,1.75.32.8,1.4.41,1.86,1.02.11.16.01.55.04.74.03.24.16.46.22.69.12.51-.44,1.46-.66,1.9-.06.1.44.2-.86,1.16s-1.68-.43-2.58-.9c-.89-.48-.6-1.48-.73-1.5-.59-.1-1.35.14-1.72-.59-.1-.19.79-2,.68-2.42-.13-.5-.66-.06-.75-.65-.05-.37,1.04-.8.88-1.06-.2-.34-2.38-.77-2.85-2.54-.301267-1.468781-.242944-2.988627.17-4.43.19-.3-.03.55,1.22-.17s2.72-.72,1.53-.86c-1.19-.13-.2-2.71,1.41-4.61s4.4.8,4.62.74c0,0,.33-.1.33-.07c0,.09-.6,1.4-.33.07.27-1.34,1.65-.9,1.97-1.09c1.18-.67,1.3.16,2.63-.08c2.03-.37,3.7-.21,4.87,1.6.33.52-.01,1.11.54,1.45.62.37,1.69.73,2.34.97.19.07.5.26.44.51-.06.26-.58,1.13-2.3,1.45s-2.43.43-2.67.45c-1.53.1-2.69-.36-4.06.33-.43.22-2.2,1.97-2.29,2.34-.13.59.1,3.69-.32,4.24ZM120.2,229.9h-.76Z" fill="#2b354e"/><path d="M210.97,203.5h21.9c.35,0,.63.17.63.38v5.75c0,.22-.28.4-.63.4h-21.9c-.35,0-.63-.18-.63-.4v-5.75c0-.21.28-.39.63-.39Zm67.62-.2h-34.15" fill="none"/><path d="M244.5,203.32l-.5-.5-.06-.06-.06.06-.5.5-.06.06.06.07.5.5.06.06.06-.06.5-.5.06-.07-.06-.06Zm-.12.12v-.12l-.5.5h.13l-.5-.5v.13l.5-.5h-.13l.5.5Zm34.14-.08l.5.5.07.06.06-.06.5-.5.06-.07-.06-.06-.5-.5-.06-.06-.07.07-.5.5-.06.06.06.06Zm.13-.13v.13l.5-.5h-.13l.5.5v-.13l-.5.5h.13l-.5-.5Z" fill="#fff"/><path d="M279.2,210.01l-34.66-.13" fill="none"/><path d="M244.58,209.83l-.38-.38-.05-.05-.05.04-.39.39-.05.05.05.05.39.38.05.05.04-.05.4-.38.04-.05-.05-.05Zm-.1.1v-.1l-.38.39h.1l-.39-.39v.1l.39-.39h-.1l.39.39Zm34.66.13l.39.39.05.05.05-.05.38-.38.05-.05-.05-.05-.38-.39-.05-.05-.05.05-.39.39-.04.04.04.05Zm.1-.1v.1l.39-.38h-.1l.39.38v-.1l-.4.4h.1l-.38-.4Z" fill="#fff"/><path d="M83.3,291.86v-41.36" fill="none"/><path d="M83.3,294.11c.441985.040993.869104-.171657,1.102788-.549047s.233684-.854517,0-1.231906-.660803-.59004-1.102788-.549047c-.601727.055809-1.061949.56069-1.061949,1.165s.460222,1.109191,1.061949,1.165Zm0-.33c-.461158,0-.835-.373842-.835-.835s.373842-.835.835-.835.835.373842.835.835-.373842.835-.835.835Z" fill="#fff"/><path d="M78.68,274.66l.3-24.14" fill="none"/><path d="M78.66,276.91c.441211.046257.870633-.161001,1.108908-.535209s.244415-.85099.015853-1.231209-.652505-.598464-1.094761-.563582c-.602841.047548-1.070122.546652-1.077907,1.151314s.446491,1.115633,1.047907,1.178686Zm0-.33c-.298317-.003573-.572067-.166024-.718131-.42616s-.142253-.578437.01-.835.429814-.412413.728131-.40884c.461158.005523.830523.383842.825.845s-.383842.830523-.845.825Z" fill="#fff"/><path d="M66.46,250.27h34.42M331.59,136.52h-37.35" fill="none"/><path d="M333.84,136.59c.040993-.441985-.171657-.869104-.549047-1.102788s-.854517-.233684-1.231906,0-.59004.660803-.549047,1.102788c.055809.601727.56069,1.061949,1.165,1.061949s1.109191-.460222,1.165-1.061949Zm-.33,0c0,.461158-.373842.835-.835.835s-.835-.373842-.835-.835.373842-.835.835-.835.835.373842.835.835Z" fill="#fff"/><path d="M296.84,146.24l6.56-6.03m21.09-.01h-21.05" fill="none"/><path d="M326.74,140.2c.040993-.441985-.171657-.869104-.549047-1.102788s-.854517-.233684-1.231906,0-.59004.660803-.549047,1.102788c.055809.601727.56069,1.061949,1.165,1.061949s1.109191-.460222,1.165-1.061949Zm-.33,0c0,.461158-.373842.835-.835.835s-.835-.373842-.835-.835.373842-.835.835-.835.835.373842.835.835Z" fill="#fff"/><path d="M73.3,89.8v-9.77m3.33,6.64v-9.92m-3.31-.03h3.23m-6.6-15.84v25.61" fill="none"/><path d="M70.02,58.63c-.441985-.040993-.869104.171657-1.102788.549047s-.233684.854517,0,1.231906.660803.59004,1.102788.549047c.601727-.055809,1.061949-.56069,1.061949-1.165s-.460222-1.109191-1.061949-1.165Zm0,.33c.298317,0,.573973.15915.723131.4175s.149159.57665,0,.835-.424814.4175-.723131.4175c-.461158,0-.835-.373842-.835-.835s.373842-.835.835-.835Z" fill="#fff"/><path d="M89.97,250.28v13.16m-17.46-.03l17.29.1" fill="none"/><path d="M70.26,263.4c-.001786.418001.219564.805202.58067,1.01575s.807107.212453,1.17.005.587544-.592749.58933-1.01075c.002761-.646173-.518827-1.172239-1.165-1.175s-1.172239.518827-1.175,1.165Zm.34,0c0-.29653.158197-.570536.415-.718801s.573197-.148265.83,0s.415.422271.415.718801c0,.458396-.371604.83-.83.83s-.83-.371604-.83-.83Z" fill="#fff"/><path d="M62.56,260h20.74" fill="none"/><path d="M60.3,259.98c-.001786.418001.219564.805202.58067,1.01575s.807107.212453,1.17.005.587544-.592749.58933-1.01075c-.05317-.602011-.556093-1.064461-1.160442-1.067055s-1.111223.455523-1.169558,1.057055Zm.34,0c0-.29653.158197-.570536.415-.718801s.573197-.148265.83,0s.415.422271.415.718801c0,.458396-.371604.83-.83.83s-.83-.371604-.83-.83Z" fill="#fff"/><path d="M90.07,203.29l21.01.15" fill="none"/><path d="M90.12,202.76l-1.06-.01-.01,1.06l1.06.01.01-1.06Zm-.18.88h-.71v-.71h.71v.71Z" fill="#fff"/><path d="M77.47,206.56l33.53.23" fill="none"/><path d="M77.52,206.03h-1.07v1.06h1.06v-1.06Zm-.19.89h-.7v-.72h.7v.72Z" fill="#fff"/><path d="M91.2,213.3h19.88" fill="none"/><path d="M91.25,212.77h-1.07v1.06h1.07v-1.06Zm-.18.88h-.71v-.7h.71v.7Z" fill="#fff"/><path d="M129.75,160.46l6.9.14m-13.35,9.6v6.77M195.56,90h-22.76" fill="none"/><path d="M195.52,90.54h1.06v-1.06h-1.07v1.06Zm.17-.89h.7v.71h-.7v-.7Z" fill="#fff"/><path d="M220.23,94.08l.12-8.55m8.65.43l-8.54-.11" fill="none"/><path d="M228.95,86.48l1.06.02.01-1.06-1.06-.02-.01,1.06Zm.19-.88l.7.01v.7h-.71v-.7Z" fill="#fff"/><path d="M225.77,88.15h-5.43" fill="none"/><path d="M225.72,88.7h1.06v-1.05h-1.05v1.05Zm.18-.88h.7v.7h-.7v-.7Z" fill="#fff"/><path d="M220.26,92.3h-4.97M86.62,119.26v22.6m13.34-5.23l-13.34.14m46.76,23.77v-10.8M99.97,135.7v-3.91" fill="none"/><path d="M99.44,135.65v1.06h1.06v-1.05h-1.06Zm.89.18v.71h-.71v-.7h.7Z" fill="#fff"/><path d="M102.4,99.94l33.47.23m55.1,86.53h13.97m0-3.31h-4.84m-.07.04v13.2m5.64.07h-5.63" fill="none"/><path d="M205.63,197.23h1.06v-1.06h-1.06v1.06Zm.18-.88h.7v.7h-.7v-.7Z" fill="#fff"/><path d="M206.16,197.27v1.56m87.05-24.13v5.22m-12.95.05h12.95m-6.48,6.15v-6.12" fill="none"/><path d="M286.2,186.08v1.06h1.06v-1.06h-1.06Zm.88.18v.7h-.7v-.7h.7Z" fill="#fff"/><path d="M289.99,194.44v-14.47" fill="none"/><path d="M289.46,194.4v1.06h1.06v-1.06h-1.06Zm.88.18v.7h-.7v-.7h.7Z" fill="#fff"/><path d="M243.33,104.47v30.26" fill="none"/><path d="M243.86,104.51v-1.06h-1.06v1.06h1.06Zm-.88-.18v-.7h.7v.7h-.7Z" fill="#fff"/><path d="M246.66,114.38v20.36" fill="none"/><path d="M247.28,114.43v-1.06h-1.06v1.05h1.06Zm-.89-.18v-.71h.71v.7h-.7Z" fill="#fff"/><path d="M153.2,264c1.17.18,7.56,2.87,7.94,3.03.47.2,8.98,3.88,9.65,4.96.43.67-3.17,15.13-3.4,16.18-.11.53-2.85,12.98-2.9,13.55-.02.38-.65.24-.68.61c0,.03.42-.48.44-.46.06.05.37-.26.4-.29.26-.19.47.06.22.04" fill="none"/><path d="M134.71,209.33c-.05,0-.09.04-.09.1l.08,2.97.05,1.94.02,1.06.01.59.01.4v.28h-.06l-.14-.02-.17-.02-.33-.02c-.537681-.023549-1.076392-.000127-1.61.07-1.388139.160119-2.74373.531052-4.02,1.1-1.203939.505092-2.35322,1.131668-3.43,1.87-2.091334,1.507512-4.000759,3.252505-5.69,5.2-2.406754,2.633475-4.544059,5.501082-6.38,8.56-.024593.044646-.01167.100645.03.13.04.03.1.02.13-.03c1.755924-2.927732,3.788561-5.680331,6.07-8.22c1.78-2,3.73-3.97,5.95-5.49c1.14-.79,2.4-1.46,3.69-1.98c1.353963-.538744,2.778697-.878928,4.23-1.01.44618-.029487.89382-.029487,1.34,0l.24.02c.1.01.22.07.32,0c.03-.02.01-.2.01-.25v-.59l-.02-.6-.03-1.06-.04-1.93-.07-2.98c-.005154-.05129-.048452-.090258-.1-.09Zm-11.19,16.8c-.83.78-1.52,1.68-2.25,2.55-.54.66-1.1,1.3-1.62,1.97-.75.96-1.45,1.95-2.14,2.95-.026779.042238-.018236.097764.02.13.04.03.1.02.13-.02.7-1,1.4-1.99,2.13-2.95.52-.67,1.08-1.31,1.62-1.96.72-.87,1.4-1.77,2.23-2.54.032009-.037422.032009-.092578,0-.13-.03-.03-.08-.03-.12,0Z" fill="#fff"/><path d="M207.75,232.59c-.37-.34-.84-.65-.92-1.18-.26-1.65,1.53-3.41,3.16-3.19.8.1,1.23.77,1.12,1.55-.04.24-.12.63-.4.7-.53.15-.64-1.2-.6-1.49.115623-.911711.595395-1.737785,1.33-2.29.68-.44,1.8-.29,2.31.36.16.2.25.48.3.7.12.5.09,1.03.05,1.53-.044566.740707-.263881,1.460337-.64,2.1m34.19,60.22c-.57,3.99-5.93,16.46,1.88,17.32c4.09.45,7.5-9.18,5.05-9.23-3.9-.07,2.86,10.19,6.71,9.58c3.07-.5,5.09-10.82,2.6-8.96-1.79,1.34,3.24,9.51,6.4,7.88c6.7-3.47.74-13.43-1.27-17.47M64.3,163.26c-3.92,7.15-21.24,4.9-6.37-16.95c6.68-9.84,21.23-28,38.35-41.68c21.29-17,45.68-28.94,53.7-31.23c14.47-4.14,28.7-1.07,11.55,7.9" fill="none"/><path d="M64.59,163.98l-.17-.82-.02-.1-.1.04-.77.33c-.032711.025231-.044045.069491-.027487.107338s.056756.059562.097487.052662l.77-.33-.12-.06.17.82c-.000506.037454.02224.071306.057108.084992s.074567.004346.099674-.023452.030372-.068241.013218-.10154Z" fill="#fff" fill-opacity="0.81"/><path d="M63.4,160.47c-.4-.06-.41.5-.4.76l.02.2.02.21c.12.81.53,1.85,1.48,1.93.11,0,.22,0,.33-.02.316284-.061288.606057-.218394.83-.45.66-.63.87-1.59.9-2.47.000258-.051548-.03871-.094846-.09-.1-.055228,0-.1.044772-.1.1.019474.814429-.245763,1.610141-.75,2.25-.13.15-.28.26-.45.35-.112534.071334-.238432.118971-.37.14-.86.16-1.36-.69-1.53-1.4-.084044-.377177-.114344-.764341-.09-1.15.1-.39.45,0,.57.15l.09.13.09.14c.3.51.5,1.14.38,1.74-.01.05.02.1.07.1.05.01.1-.02.1-.06.132686-.849762-.141322-1.712517-.74-2.33-.059533-.061686-.126751-.11546-.2-.16-.049315-.029409-.103507-.049731-.16-.06ZM133.06,320.3c-1.70903-.074426-3.420871.053123-5.1.38-1.2.26-2.39.65-3.52,1.16-1.86.84-3.54,2-5.09,3.32-.017726.016976-.027751.040456-.027751.065s.010025.048024.027751.065c.035556.026667.084444.026667.12,0c1.51929-1.329949,3.219561-2.437651,5.05-3.29c1.120929-.499281,2.290482-.881313,3.49-1.14c3.8-.82,7.7-.28,11.41.67c2.77.71,5.46,1.65,8.18,2.5c2.79.87,5.61,1.65,8.53,1.92.048276.000974.090353-.032688.1-.08c0-.05-.04-.1-.09-.1-2.9-.27-5.7-1.05-8.48-1.92-4.74-1.48-9.6-3.31-14.6-3.55Zm-26.14-73.9c-.045827.01-.07629.053519-.07.1.934604,3.962033,2.344838,7.796527,4.2,11.42c3.72,7.15,9.31,13.39,16.37,17.36c4.648135,2.612183,9.813005,4.172226,15.13,4.57.05,0,.1-.03.1-.09c0-.05-.04-.1-.09-.1-5.289074-.390409-10.427345-1.940426-15.05-4.54-7.02-3.95-12.6-10.16-16.3-17.29-1.850459-3.605941-3.254158-7.424138-4.18-11.37-.004684-.021583-.018082-.04027-.03702-.051633s-.041732-.014391-.06298-.008367Z" fill="#fff"/><path d="M305.75,75.81c-1.44,0-2.88.12-4.3.31-3.151606.350201-6.212248,1.275512-9.03,2.73-3.9,2-7.26,4.87-10.56,7.73-.035008.034904-.039258.090152-.01.13.03.04.09.04.12,0c3.29-2.84,6.64-5.7,10.53-7.7c2.799346-1.443709,5.839557-2.362212,8.97-2.71c1.95-.26,3.93-.4,5.9-.24c1.12.09,2.25.28,3.32.66.65.24,1.28.54,1.85.94.38.27.73.57,1.04.92c1.9,2.12,1.8,5.18,1.19,7.78-.55622,2.207909-1.385973,4.337719-2.47,6.34-.818078,1.555012-1.726292,3.060911-2.72,4.51-2.63-.2-5.31-.03-7.86.68-.43.12-.85.26-1.27.42-2.31.85-4.82,2.47-5.35,5.06-.18113.85734-.132838,1.747294.14,2.58.15.52.37,1.02.63,1.5.15.28.32.55.6.73.8.54,1.91.16,2.7-.2.17-.09.34-.17.5-.27c1.011298-.580373,1.959701-1.264027,2.83-2.04c1.170346-1.03089,2.272656-2.13654,3.3-3.31c1.393982-1.565998,2.686609-3.219358,3.87-4.95c5.281918.348025,10.313913,2.376942,14.36,5.79c2.516495,2.209544,4.482051,4.976389,5.74,8.08c1.20698,3.135207,1.764914,6.482811,1.64,9.84-.08,4.36-.9,8.67-2,12.88-.634154,2.38091-1.361379,4.73605-2.18,7.06-1.346112,3.855153-2.854117,7.651856-4.52,11.38-3.82,8.6-8.26,16.9-12.92,25.06-2.61149,4.620569-5.332255,9.178519-8.16,13.67-7.210787,11.514997-15.454802,22.349702-24.63,32.37-8.22,8.85-17.37,16.96-27.62,23.4-.72.46-1.46.9-2.2,1.35-.6.36-1.2.72-1.82,1.02-1.572765.735767-3.185258,1.383435-4.83,1.94-5.147768,1.789353-10.372989,3.347576-15.66,4.67-3.234489.811738-6.500493,1.492294-9.79,2.04-1.267792.196293-2.541851.349714-3.82.46-.731946.056476-1.465885.083165-2.2.08-.640102-.00724-1.278681-.064077-1.91-.17-.68-.14-1.65-.44-1.74-1.25-.01-.14,0-.28.02-.42.042743-.166603.096187-.330277.16-.49.12-.25.26-.49.41-.71.3-.43.65-.82,1-1.2.566982-.575063,1.164514-1.119184,1.79-1.63c1.054818-.88153,2.145756-1.718917,3.27-2.51.038236-.032236.046779-.087762.02-.13-.032236-.038236-.087762-.046779-.13-.02-1.127505.791041-2.221775,1.628425-3.28,2.51-.7.58-1.36,1.18-1.98,1.84-.34.37-.67.77-.94,1.19-.18.27-.33.56-.43.86-.07.2-.1.4-.1.62.03,1.04,1.2,1.4,2.06,1.56.373621.064782.751106.104869,1.13.12.609546.033288,1.220454.033288,1.83,0c1.010224-.038658,2.018034-.125423,3.02-.26c1.447475-.184597,2.888298-.418063,4.32-.7c2.47-.45,4.91-1,7.34-1.6c5.290088-1.327078,10.518581-2.888619,15.67-4.68c1.651446-.55991,3.270595-1.210909,4.85-1.95.7-.34,1.37-.75,2.03-1.15.81-.48,1.62-.98,2.41-1.48c10.1-6.41,19.13-14.43,27.25-23.19c9.186497-10.025444,17.440605-20.866911,24.66-32.39c3.104864-4.941436,6.085794-9.959668,8.94-15.05c4.280416-7.446115,8.21135-15.087745,11.78-22.9c2.936233-6.345564,5.337897-12.925053,7.18-19.67c1.048673-3.857792,1.678972-7.817273,1.88-11.81.09-2.52-.06-5.07-.64-7.53-.700241-2.912821-1.993868-5.649864-3.8-8.04-4.05-5.36-10.46-8.42-17.08-9.03-.09,0-.18,0-.26-.02.970801-1.427942,1.858925-2.910375,2.66-4.44c1.090892-2.011885,1.927312-4.151643,2.49-6.37.62-2.66.71-5.79-1.23-7.95-.316317-.352744-.671964-.66813-1.06-.94-.587923-.402902-1.226869-.725738-1.9-.96-1.14-.4-2.35-.6-3.56-.7-.48-.03-.95-.05-1.44-.05Zm1.4,21.5c.6-.01,1.2,0,1.8.03.18,0,.35.03.52.05-1.163837,1.697835-2.432994,3.32102-3.8,4.86-1.077611,1.230231-2.240485,2.38308-3.48,3.45-.989941.864586-2.085308,1.60043-3.26,2.19-.69.3-1.67.61-2.36.15-.31-.21-.48-.55-.64-.87-.241746-.461358-.432858-.947521-.57-1.45-.210629-.807951-.227759-1.654186-.05-2.47.58-2.44,3-3.96,5.2-4.78c2.13718-.740052,4.378587-1.134999,6.64-1.17Z" fill="#fff" fill-opacity="0.7"/><path d="M176.72,249.99l61.89-.1M153.73,234.7c0,0,3.4,3.45,6.72,7.46c1.95,2.35,6.14,5.94,6.31,6.1l2.13,1.81c0,0,1.97,1.55,2.67,1.58s1.74.05,2.58-.25s2.6-1.41,2.6-1.41l12.11-7.42l8.25-5.27l2.8-2.01.04-.19m-.04-.61v.77" fill="none"/><path d="M153.81,234.78c-.3-.3-.36-.32-.42-.13-.17.51-.03,2.32-.03,4.12c0,2.09-.02,4.48-.04,5.52-.02,1.81.17,5.03.08,9.23-.04,1.93-.04,4.06-.1,6.14-.04,1.65-.18,3.3-.03,4.6" fill="none"/><path d="M153.25,264.2c-1.708327.203112-3.41206.443168-5.11.72-3.4.54-6.79,1.16-10.22,1.52-.023411.002166-.044685.014521-.058168.033783s-.01781.043478-.011832.066217c0,.04.04.07.09.07c3.43-.36,6.82-.98,10.23-1.52.85-.14,1.7-.28,2.55-.4s1.7-.22,2.56-.32c.043331-.013575.072077-.05464.07-.1c0-.05-.05-.08-.1-.08Z" fill="#fff"/><path d="M79.34,106.07c7.18.12,10.63.08,10.8.19.05.04.11,2.5,0,2.51-.35.03-9.72-.03-9.98.05-.06.02-.08.19-.32.66-.03.06-.4.58-.47.6" fill="#f1d244"/><path d="M145.4,211.38c-.05.02-.07.07-.06.12l.63,2.68.32,1.32.19.8.07.28c.01.07.07.18.03.24c0,.02-.08.06-.08.06l-.16.1-.16.1c-.28105.148072-.575753.268632-.88.36-.914488.307474-1.866547.489139-2.83.54-1.01.06-2.03,0-3.03-.15-.77-.11-1.52-.3-2.27-.47-.78-.19-1.57-.38-2.31-.71-.047125-.022727-.103803-.005288-.13.04-.021212.049725.000934.107305.05.13.84.38,1.75.58,2.65.79.75.17,1.5.35,2.26.45c1.01.13,2.04.17,3.06.1c1.155139-.094619,2.286881-.378399,3.35-.84l.34-.18.16-.1c.05-.04.1-.07.14-.13.06-.11.01-.25-.02-.37l-.07-.28-.07-.3-.12-.5-.27-1.14-.68-2.87c-.017014-.039378-.057248-.063518-.1-.06Zm18.38,90.94l5.04,1.58.57-1-4.6-1.39c0,0-1.1.78-1.01.81Z" fill="#fff"/><path d="M164.79,301.42c-.08.02-.12.06-.19.1l-.22.16-.2.15-.24.2c-.07.05,0,0-.25.24v.02l.02.03c0,.03,0,.06.02.08h.03c.02.03.13.05.16.06l.43.13l1.96.61l1.44.46.46.14.24.07.18.06c.08.02.18.08.26.02.06-.05.1-.17.14-.22l.09-.16.14-.26c.06-.1.26-.38.15-.49-.04-.03-.1-.04-.14-.06-.090754-.020323-.180804-.04367-.27-.07l-.12-.04-1.01-.3-1.06-.32-1.01-.31-.5-.15-.24-.07c-.06-.02-.22-.09-.27-.08Zm0,.2h.02l.11.03.33.1.68.2l2.35.71.67.2c.08.03.2.08.3.1l-.02.02-.04.09-.1.15-.22.42-.08.15h-.02c-.02-.02-.04-.02-.07-.03l-.2-.06-.23-.07-1-.31-2.39-.75-.84-.26-.1-.03c.03304-.040896.073817-.074877.12-.1l.44-.34.22-.16.07-.06Zm16.78,16.88l3.9-1.4.35,2.03-4.08,1.91-.17-2.54Z" fill="#fff"/><path d="M185.38,317.03l-.15.05-.2.08-.22.07-.51.19-.93.33-1.8.65-.03.01c-.02,0-.01.03-.02.04-.02.02-.05.03-.05.06l.07.96.08,1.06.02.4.01.12.1.08.16-.06.3-.15l1.35-.63l1.62-.76.44-.2c.06-.03.2-.08.25-.14.06-.08.02-.2,0-.3l-.03-.21-.06-.32-.04-.27-.09-.5-.03-.18-.02-.1c0-.06-.01-.2-.07-.25-.04-.04-.1-.04-.15-.03Zm.02.18v.02l.03.1.06.38.17,1l.04.25.02.1v.01c-.3.12-.6.29-.9.43l-1.76.82-.92.43-.29.13-.02.02-.02-.2-.04-.62-.1-1.52.27-.1.5-.18l1.62-.58.3-.11.3-.11.22-.08.2-.07.24-.08.08-.04Z" fill="#fff"/><path d="M181.55,318.41c-.045827.01-.07629.053519-.07.1h-.01v.01c.02.05.06.08.1.07.05,0,.08-.05.08-.1v-.02.01c-.02-.04-.05-.08-.1-.07Z" fill="#fff"/><path d="M86.73,283.17v-32.62" fill="none"/><path d="M86.72,286.62c.639505.001786,1.231386-.337735,1.552685-.89067s.323206-1.235279.005-1.79-.90818-.897544-1.547685-.89933c-.934108.069965-1.656303.848276-1.656303,1.785s.722195,1.715035,1.656303,1.785Zm0-.51c-.706924-.002761-1.277761-.578076-1.275-1.285s.578076-1.277761,1.285-1.275c.706924,0,1.28.573076,1.28,1.28s-.573076,1.28-1.28,1.28Z" fill="#fff"/><path d="M153.5,250.08h15.35M328.94,229.1c-.98,7.8-8.3,20.89-17.95,13.9-8.66-6.25,16.34-8.03,10.27,5.79-5.58,12.7-19.49-6.5-26.75-2.22-5.18,3.06,3.62,9.99,7.87,10.04" fill="none"/><path d="M302.23,256.62l-.42.65l1.19-.7-1.28-.53.5.58Zm27.25-26.94l-.45-.7-.06-.1-.08.08-.6.58c-.030557.034164-.030557.085836,0,.12.03.04.08.04.12,0l.6-.57-.13-.02.45.7c.028276.036506.077871.048905.12.03.040258-.025703.053426-.078376.03-.12Z" fill="#fff"/><path d="M84.72,220.73c-4.18,2.36-19.58,4.51-15.72,1.03c1.96-1.76,13.65,9.9,5.3,12.9-5.2,1.88-12.05-6.47-16.67-2.73-10.27,8.33,5.31,18.86,8.4,18.75" fill="none"/><path d="M65.9,250.76l-.04.78.67-1.21-1.37.19.73.24Zm18.69-29.95l-.05.78.7-1.2-1.38.16.73.26Z" fill="#fff"/></g></svg>
