<svg width="740" height="469" viewBox="0 0 740 469" fill="none" xmlns="http://www.w3.org/2000/svg">
<path d="M381.106 268.116L381.289 268.597L381.786 268.728C425.061 280.178 457 319.699 457 366.667C457 422.655 411.698 468 355.819 468H102.181C46.3024 468 1 422.655 1 366.667C1 319.598 33.0396 280.077 76.4171 268.677L76.9156 268.547L77.0981 268.065C100.367 206.63 159.656 163 229.102 163C298.547 163 357.837 206.681 381.106 268.116Z" stroke="#375E74" stroke-width="2"/>
<path d="M647.517 127.476L647.699 127.956L648.197 128.087C700.443 141.874 739 189.455 739 246C739 313.404 684.311 368 616.847 368H311.153C243.689 368 189 313.404 189 246C189 189.334 227.678 141.752 280.048 128.026L280.547 127.896L280.729 127.414C308.803 53.4981 380.335 1 464.123 1C547.911 1 619.443 53.5591 647.517 127.476Z" fill="#F2F2F2" stroke="#375E74" stroke-width="2"/>
</svg>
