<svg width="310" height="316" viewBox="0 0 310 316" fill="none" xmlns="http://www.w3.org/2000/svg">
<path d="M249.445 157.134L247.942 158L249.445 158.866L301.502 188.884C308.635 193.039 311.14 202.07 306.997 209.162L306.995 209.165L275.349 263.83C275.349 263.83 275.348 263.83 275.348 263.83C271.187 270.951 262.141 273.454 255.037 269.316L255.033 269.314L202.972 239.294L201.472 238.429V240.16V300.2C201.472 308.336 194.8 315 186.648 315H123.352C115.2 315 108.528 308.336 108.528 300.2V240.16V238.429L107.028 239.294L54.9771 269.308C54.9758 269.309 54.9745 269.31 54.9733 269.31C47.8483 273.309 38.8042 270.935 34.6526 263.832C34.6522 263.831 34.6517 263.83 34.6513 263.83L3.01101 209.175C3.01003 209.173 3.00904 209.172 3.00806 209.17C-0.994661 202.058 1.38143 193.03 8.49629 188.885C8.49684 188.885 8.4974 188.884 8.49795 188.884L60.5553 158.866L62.0576 158L60.5553 157.134L8.49795 127.116C8.49698 127.115 8.496 127.115 8.49502 127.114C1.36415 122.959 -1.13928 113.929 3.00321 106.838L3.00519 106.835L34.6513 52.1705C34.6515 52.17 34.6518 52.1696 34.652 52.1692C36.6371 48.7722 39.8826 46.2921 43.6862 45.2664C47.4889 44.241 51.5431 44.752 54.9711 46.6885C54.9723 46.6892 54.9735 46.6899 54.9747 46.6905L107.028 76.7063L108.528 77.571V75.84V15.8C108.528 7.66372 115.2 1 123.352 1H186.648C194.8 1 201.472 7.66372 201.472 15.8V75.84V77.571L202.972 76.7063L255.025 46.6905C255.027 46.6898 255.028 46.689 255.029 46.6882C258.457 44.7519 262.511 44.241 266.314 45.2664C270.118 46.2923 273.364 48.7728 275.349 52.1705L306.989 106.825C306.99 106.827 306.991 106.829 306.992 106.831C310.995 113.943 308.618 122.97 301.503 127.115C301.503 127.115 301.502 127.116 301.502 127.116L249.445 157.134ZM182.174 193.142L182.184 193.147L182.193 193.153L256.249 235.813L256.749 234.946L257.615 235.445L273.439 207.953L273.938 207.086L273.072 206.587L199.034 163.938C199.031 163.937 199.028 163.935 199.025 163.933C194.438 161.149 194.481 154.521 199.015 151.915L199.015 151.915L273.072 109.255L273.94 108.754L273.438 107.887L257.614 80.553L257.114 79.6894L256.249 80.1875L182.193 122.847L182.184 122.853L182.174 122.858C177.648 125.598 171.824 122.179 171.824 116.92V31.6V30.6H170.824H139.176H138.176V31.6V116.92C138.176 122.316 132.359 125.622 127.806 123.005L53.7506 80.3455L52.8859 79.8474L52.386 80.711L36.5619 108.045L36.0598 108.912L36.9282 109.413L110.975 152.067C115.562 154.851 115.519 161.479 110.985 164.085L110.985 164.085L36.9282 206.745L36.0598 207.246L36.5619 208.113L52.386 235.447L52.8859 236.311L53.7506 235.813L127.807 193.153L127.816 193.147L127.826 193.142C132.352 190.402 138.176 193.821 138.176 199.08V284.4V285.4H139.176H170.824H171.824V284.4V199.08C171.824 193.68 177.633 190.393 182.174 193.142Z" stroke="#375E74" stroke-width="2"/>
</svg>
