<svg width="88" height="88" viewBox="0 0 88 88" fill="none" xmlns="http://www.w3.org/2000/svg">
<path d="M7.33398 25.6667V18.3333C7.33398 16.3167 8.05265 14.5909 9.48998 13.156C10.9273 11.7211 12.6531 11.0024 14.6673 11H73.334C75.3507 11 77.0777 11.7187 78.515 13.156C79.9523 14.5933 80.6698 16.3191 80.6673 18.3333V25.6667H73.334V18.3333H14.6673V25.6667H7.33398ZM29.334 77V69.6667H14.6673C12.6507 69.6667 10.9249 68.9492 9.48998 67.5143C8.0551 66.0794 7.33643 64.3524 7.33398 62.3333V55H14.6673V62.3333H73.334V55H80.6673V62.3333C80.6673 64.35 79.9499 66.077 78.515 67.5143C77.0801 68.9517 75.3531 69.6691 73.334 69.6667H58.6673V77H29.334ZM17.6007 40.3333L27.134 30.8L22.0007 25.6667L7.33398 40.3333L22.0007 55L27.134 49.8667L17.6007 40.3333ZM70.4007 40.3333L60.8673 49.8667L66.0007 55L80.6673 40.3333L66.0007 25.6667L60.8673 30.8L70.4007 40.3333Z" fill="#375E74"/>
</svg>
