<svg width="88" height="88" viewBox="0 0 88 88" fill="none" xmlns="http://www.w3.org/2000/svg">
<path d="M43.9994 33C41.082 33 38.2841 34.1589 36.2212 36.2218C34.1583 38.2847 32.9994 41.0826 32.9994 44C32.9994 46.9174 34.1583 49.7153 36.2212 51.7782C38.2841 53.8411 41.082 55 43.9994 55C46.9167 55 49.7146 53.8411 51.7775 51.7782C53.8404 49.7153 54.9994 46.9174 54.9994 44C54.9994 41.0826 53.8404 38.2847 51.7775 36.2218C49.7146 34.1589 46.9167 33 43.9994 33ZM43.9994 62.3333C39.1371 62.3333 34.4739 60.4018 31.0357 56.9636C27.5976 53.5255 25.666 48.8623 25.666 44C25.666 39.1377 27.5976 34.4745 31.0357 31.0364C34.4739 27.5982 39.1371 25.6667 43.9994 25.6667C48.8617 25.6667 53.5248 27.5982 56.963 31.0364C60.4011 34.4745 62.3327 39.1377 62.3327 44C62.3327 48.8623 60.4011 53.5255 56.963 56.9636C53.5248 60.4018 48.8617 62.3333 43.9994 62.3333ZM43.9994 16.5C25.666 16.5 10.0093 27.9033 3.66602 44C10.0093 60.0967 25.666 71.5 43.9994 71.5C62.3327 71.5 77.9894 60.0967 84.3327 44C77.9894 27.9033 62.3327 16.5 43.9994 16.5Z" fill="#375E74"/>
</svg>
