<svg width="88" height="88" viewBox="0 0 88 88" fill="none" xmlns="http://www.w3.org/2000/svg">
<path d="M10.999 63.25V77H24.749L65.3024 36.41L51.5524 22.66L10.999 63.25ZM82.9024 67.32L67.319 82.9033L48.2524 63.8367L54.7424 57.3467L58.409 61.0133L67.4657 51.92L72.6724 57.1267L67.319 62.3333L71.2057 66L76.4124 60.8667L82.9024 67.32ZM24.2357 39.71L5.0957 20.68L20.679 5.09666L27.1324 11.5867L18.0757 20.68L21.999 24.5667L31.019 15.4733L36.2257 20.68L31.019 25.85L34.6857 29.5167L24.2357 39.71ZM75.9357 25.6667C77.3657 24.2367 77.3657 22 75.9357 20.4967L67.3557 12.0633C65.999 10.6333 63.6157 10.6333 62.1857 12.0633L55.439 18.7733L69.189 32.5233L75.9357 25.6667Z" fill="#375E74"/>
</svg>
