<svg width="640" height="641" viewBox="0 0 640 641" fill="none" xmlns="http://www.w3.org/2000/svg">
<path d="M177.884 133.117C177.884 133.117 135.428 152.825 117.459 192.088C106.791 215.422 100.658 237.204 103.563 261.152C112.048 331.061 169.045 302.228 169.045 302.228C169.045 302.228 329.877 207.265 341.344 193.133C352.811 179 368.429 162.948 374.531 132.041C380.634 101.134 379.373 85.0974 366.015 73.6072C352.642 62.1324 329.447 80.9652 329.447 80.9652C329.447 80.9652 329.324 53.7605 306.804 47.5853C284.285 41.4101 264.318 67.2784 264.318 67.2784C264.318 67.2784 244.35 52.4087 217.373 69.2139C190.412 86.0344 177.869 133.086 177.869 133.086L177.884 133.117Z" fill="#3A7CAB"/>
<path d="M188.645 147.556C188.645 147.556 168.109 159.138 152.599 174.668C136.075 191.228 111.111 231.428 120.519 267.251C132.478 312.812 165.849 290.062 165.849 290.062C165.849 290.062 183.111 279.97 206.799 265.837C250.116 240 314.906 200.66 334.981 184.807C353.519 170.183 359.622 149.906 363.234 139.153C369.168 121.488 370.382 98.2004 363.234 89.6903C349.907 73.8068 322.607 105.712 322.607 105.712C322.607 105.712 321.27 71.2107 301.303 66.0186C281.335 60.8265 265.41 86.4951 265.41 86.4951C265.41 86.4951 250.377 68.4457 226.736 83.0388C198.775 100.305 188.645 147.541 188.645 147.541V147.556Z" fill="#213D5A"/>
<path d="M162.036 306.591C162.036 306.591 130.725 310.4 125.083 307.466C92.7109 290.692 38.4343 247.035 29.2729 232.719C20.1115 218.402 9.81264 187.311 30.395 139.153C50.9774 90.9961 111.095 88.9223 111.095 88.9223C111.095 88.9223 106.438 32.5928 139.194 15.1117C163.358 2.20829 189.443 18.8598 189.443 18.8598C189.443 18.8598 210.164 -1.7549 230.316 1.14837C243.966 3.1146 269.744 22.5158 269.744 22.5158C269.744 22.5158 273.94 21.4405 278.321 23.0688C291.264 27.8769 363.233 71.7178 363.233 71.7178C363.233 71.7178 351.582 68.5687 343.927 72.4858C336.272 76.4029 329.677 80.7962 329.677 80.7962C329.677 80.7962 327.51 53.9602 306.805 47.6007C286.099 41.2258 264.318 67.2937 264.318 67.2937C264.318 67.2937 242.952 53.1614 216.451 69.8283C189.951 86.4952 177.869 133.117 177.869 133.117C177.869 133.117 115.676 176.097 105.761 224.9C94.9244 278.265 123.054 297.835 124.807 299.494C129.218 303.718 139.763 306.637 148.371 307.328C155.98 307.942 162.021 306.575 162.021 306.575L162.036 306.591Z" fill="#244261"/>
<path d="M191.888 21.6403L265.44 66.0341L191.888 21.6403Z" fill="#2B354E"/>
<path d="M191.95 21.5481C191.95 21.5481 191.827 21.5174 191.781 21.5788C191.75 21.6403 191.75 21.717 191.812 21.7478C193.887 22.823 195.839 24.0673 197.791 25.3269C200.128 26.8477 202.418 28.4299 204.662 30.0889C207.414 32.1166 210.073 34.2518 212.824 36.3102C216.222 38.8448 219.772 41.1951 223.385 43.4378C228.104 46.3564 232.9 49.1675 237.834 51.7175C242.43 54.0985 247.195 56.1415 251.822 58.4611C256.479 60.7806 260.968 63.3766 265.441 66.0341C261.014 63.3306 256.618 60.5502 252.406 57.5087C248.194 54.4825 244.167 51.2259 239.909 48.2766C235.359 45.0968 230.64 42.1628 225.859 39.3517C222.201 37.2012 218.466 35.1735 214.623 33.3455C211.533 31.8708 208.397 30.5037 205.323 29.0136C202.633 27.7079 200.005 26.3254 197.407 24.8507C195.547 23.8062 193.718 22.7616 191.965 21.5481H191.95Z" fill="#1E374C"/>
<path d="M259.599 15.8491L317.887 54.2368L259.599 15.8491Z" fill="#2B354E"/>
<path d="M259.614 15.8491C268.268 21.5328 276.892 27.2779 285.546 32.9769C296.321 40.0738 307.127 47.1399 317.918 54.2368C307.143 47.1399 296.383 39.997 285.592 32.9154C276.938 27.2164 268.268 21.5789 259.614 15.8645V15.8491Z" fill="#1A243B"/>
<path d="M110.081 88.1235C115.4 91.5491 120.733 94.9593 126.021 98.4463C127.558 99.4601 129.065 100.52 130.602 101.549C132.677 102.932 134.783 104.299 136.812 105.743C139.994 108.016 142.93 110.582 146.004 112.993C148.863 115.251 151.876 117.371 154.966 119.307C156.072 119.998 157.241 120.628 158.394 121.258C160.177 122.241 161.975 123.209 163.774 124.176C168.569 126.772 173.381 129.353 178.192 131.934C173.857 128.616 169.522 125.313 165.172 122.026C163.543 120.797 161.898 119.553 160.269 118.339C159.224 117.556 158.194 116.772 157.087 116.05C154.043 114.038 150.877 112.164 147.618 110.505C144.144 108.723 140.593 107.11 137.196 105.159C135.029 103.915 132.923 102.548 130.802 101.242C129.234 100.274 127.635 99.3219 126.067 98.3541C120.703 94.99 115.4 91.5491 110.081 88.1235Z" fill="#1F3548"/>
<path d="M143.652 543.875C156.595 535.949 297.336 449.849 297.336 449.849L216.113 410.893L215.022 260.906L194.809 253.441" stroke="#43E8FE" stroke-width="0.9" stroke-linejoin="round"/>
<path d="M142.068 539.958L134.951 544.305L139.301 551.418L146.418 547.071L142.068 539.958ZM144.512 546.61L139.762 549.513L136.857 544.766L141.607 541.863L144.512 546.594V546.61Z" fill="#43E8FE"/>
<path d="M184.493 552.57C197.221 543.983 330.399 454.181 330.399 454.181L227.795 406.608L227.026 253.702L206.813 246.851" stroke="#2B354E" stroke-width="0.9" stroke-linejoin="round"/>
<path d="M185.693 551.771L178.868 550.45L177.546 557.27L184.371 558.591L185.693 551.771Z" fill="#2B354E"/>
<path d="M179.238 495.856C187.939 490.649 265.441 444.335 265.441 444.335L203.633 414.058L203.479 268.418L183.189 261.813" stroke="#2B354E" stroke-width="0.9" stroke-linejoin="round"/>
<path d="M180.467 495.119L173.719 493.429L172.028 500.157L178.776 501.847L180.467 495.103V495.119Z" fill="#2B354E"/>
<path d="M354.363 451.124C343.388 446.378 240.445 401.83 240.445 401.83L240.66 245.468L212.73 237.173" stroke="#2B354E" stroke-width="0.9" stroke-linejoin="round"/>
<path d="M353.395 451.247L355.439 456.409L355.701 457.054L356.346 456.793L361.511 454.75L362.157 454.488L361.895 453.843L359.851 448.667L359.59 448.021L358.944 448.283L353.764 450.326L353.118 450.587L353.379 451.232L353.395 451.247ZM354.686 450.74L354.302 451.647L359.467 449.604L358.575 449.22L360.619 454.381L361.004 453.49L355.824 455.533L356.73 455.917L354.686 450.74Z" fill="#2B354E"/>
<path d="M294.261 579.145C306.082 569.82 434.064 468.851 434.064 468.851L259.598 392.706L258.446 234.623L232.591 228.663" stroke="#1E374C" stroke-width="0.9" stroke-linejoin="round"/>
<path d="M292.233 575.443L285.685 580.604L290.849 587.148L297.398 581.987L292.233 575.443ZM295.445 581.756L291.08 585.197L287.637 580.834L292.002 577.394L295.445 581.756Z" fill="#1E374C"/>
<path d="M336.963 414.703C329.938 411.815 271.681 387.79 271.681 387.79L270.42 227.265L244.089 220.553" stroke="#2B354E" stroke-width="0.9" stroke-linejoin="round"/>
<path d="M336.009 414.841L338.146 419.972L338.407 420.617L339.053 420.356L344.187 418.221L344.833 417.96L344.571 417.314L342.435 412.184L342.173 411.539L341.528 411.8L336.394 413.935L335.748 414.196L336.009 414.841ZM337.285 414.304L336.916 415.21L342.05 413.075L341.143 412.706L343.28 417.837L343.649 416.93L338.515 419.066L339.422 419.434L337.285 414.304Z" fill="#2B354E"/>
<path d="M573.376 427.499C565.505 424.135 496.933 394.872 496.933 394.872L429.468 441.324L284.838 380.724L284.777 218.325L248.792 208.955" stroke="#43E8FE" stroke-width="0.9" stroke-linejoin="round"/>
<path d="M571.101 431.047L578.771 434.319L582.045 426.654L574.375 423.382L571.101 431.047ZM575.113 425.21L580.231 427.391L578.049 432.507L572.93 430.325L575.113 425.21Z" fill="#43E8FE"/>
<path d="M521.066 357.667C511.797 364.257 425.947 425.179 425.947 425.179L297.657 373.596L296.889 210.66L270.772 204.746" stroke="#2B354E" stroke-width="0.9" stroke-linejoin="round"/>
<path d="M519.898 358.496L526.754 359.664L527.922 352.813L521.067 351.645L519.914 358.496H519.898Z" fill="#2B354E"/>
<path d="M401.83 339.372C398.418 341.645 371.087 359.925 371.087 359.925L320.623 361.615L320.269 195.345L297.335 190.383" stroke="#43E8FE" stroke-width="0.9" stroke-linejoin="round"/>
<path d="M403.583 343.227L410.515 338.588L405.873 331.66L398.94 336.299L403.583 343.227ZM400.862 336.683L405.489 333.596L408.578 338.22L403.952 341.307L400.862 336.683Z" fill="#43E8FE"/>
<path d="M472.985 370.493L478.473 371.4L479.149 371.507L479.257 370.816L480.164 365.332L480.271 364.641L479.58 364.533L474.092 363.627L473.416 363.52L473.293 364.211L472.386 369.695L472.278 370.386L472.97 370.493H472.985ZM473.216 369.126L473.785 369.925L474.692 364.441L473.892 365.01L479.38 365.916L478.811 365.117L477.904 370.601L478.704 370.033L473.216 369.126Z" fill="#2B354E"/>
<path d="M236.144 182.242L234.499 198.893L274.203 212.457L274.127 190.521L236.144 182.257V182.242Z" fill="#213D5A"/>
<path d="M315.061 171.366L314.923 190.521L274.173 212.426L274.127 190.521L315.061 171.381V171.366Z" fill="#3A6CA1"/>
<path d="M232.255 179.83L269.992 165.068L274.219 163.424L315.076 171.381L274.157 190.521L232.27 179.845L232.255 179.83Z" fill="#2F557D"/>
<path d="M299.382 184.622L312.294 178.739L299.382 184.622Z" fill="#2F557D"/>
<path d="M311.756 178.294C307.452 180.26 303.164 182.226 298.86 184.177C298.814 184.223 299.029 184.469 299.336 184.699C299.628 184.945 299.905 185.099 299.951 185.053C304.255 183.086 308.544 181.12 312.848 179.169C312.894 179.123 312.679 178.877 312.371 178.647C312.079 178.401 311.802 178.248 311.756 178.294Z" fill="#23D4FE"/>
<path d="M313.262 183.363L300.703 189.492L313.262 183.363Z" fill="#2F557D"/>
<path d="M312.724 182.933C308.543 184.976 304.346 187.019 300.165 189.062C300.119 189.108 300.334 189.354 300.642 189.584C300.949 189.815 301.226 189.984 301.257 189.937C305.438 187.894 309.619 185.851 313.815 183.808C313.846 183.762 313.646 183.516 313.339 183.286C313.031 183.04 312.755 182.887 312.724 182.933Z" fill="#23D4FE"/>
<path d="M279.475 191.52L279.521 205.852L279.475 191.52Z" fill="#2F557D"/>
<path d="M278.906 191.105C278.906 195.882 278.937 200.66 278.952 205.437C278.922 205.483 279.137 205.714 279.444 205.944C279.752 206.174 280.044 206.313 280.074 206.267C280.074 201.489 280.044 196.712 280.028 191.935C280.059 191.888 279.844 191.673 279.536 191.428C279.229 191.197 278.937 191.044 278.906 191.09V191.105Z" fill="#43E8FE"/>
<path d="M284.578 189.492L284.624 203.824L284.578 189.492Z" fill="#2F557D"/>
<path d="M284.025 189.077C284.025 193.855 284.041 198.632 284.056 203.409C284.025 203.455 284.256 203.67 284.548 203.916C284.84 204.162 285.132 204.3 285.163 204.254C285.163 199.477 285.132 194.7 285.117 189.922C285.147 189.876 284.932 189.661 284.625 189.431C284.317 189.2 284.041 189.047 284.01 189.093L284.025 189.077Z" fill="#43E8FE"/>
<path d="M289.392 187.418L289.438 201.75L289.392 187.418Z" fill="#2F557D"/>
<path d="M288.837 187.004C288.837 191.781 288.852 196.558 288.868 201.336C288.837 201.382 289.052 201.597 289.36 201.842C289.667 202.073 289.959 202.227 289.99 202.18C289.99 197.403 289.959 192.626 289.944 187.848C289.974 187.802 289.759 187.587 289.452 187.357C289.144 187.126 288.868 186.973 288.837 187.019V187.004Z" fill="#43E8FE"/>
<path d="M293.727 185.175L293.773 199.507L293.727 185.175Z" fill="#2F557D"/>
<path d="M293.172 184.745C293.172 189.523 293.187 194.3 293.203 199.077C293.172 199.124 293.402 199.354 293.71 199.584C294.017 199.815 294.294 199.953 294.325 199.907C294.325 195.13 294.294 190.368 294.279 185.59C294.309 185.544 294.094 185.314 293.787 185.083C293.479 184.853 293.203 184.699 293.172 184.745Z" fill="#43E8FE"/>
<path d="M236.896 156.588L238.033 177.526L274.217 186.359L274.141 164.423L236.896 156.573V156.588Z" fill="#213D5A"/>
<path d="M315.062 147.679V167.864L274.174 186.358L274.128 164.453L315.062 147.694V147.679Z" fill="#3A6CA1"/>
<path d="M234.453 153.639L274.203 137.325L315.061 147.664L274.127 164.423L234.438 153.624L234.453 153.639Z" fill="#2F557D"/>
<path d="M300.351 159.092L308.528 155.359L313.263 153.193" fill="#2F557D"/>
<path d="M312.725 152.763C308.421 154.73 304.117 156.696 299.813 158.647C299.767 158.693 299.982 158.939 300.289 159.169C300.597 159.415 300.873 159.568 300.904 159.522C305.208 157.556 309.512 155.59 313.816 153.639C313.847 153.593 313.647 153.347 313.34 153.117C313.032 152.871 312.756 152.717 312.725 152.763Z" fill="#23D4FE"/>
<path d="M313.262 157.295L300.703 163.424L313.262 157.295Z" fill="#2F557D"/>
<path d="M312.724 156.85C308.543 158.893 304.346 160.936 300.165 162.979C300.119 163.025 300.334 163.271 300.642 163.501C300.949 163.731 301.226 163.9 301.257 163.854C305.438 161.811 309.619 159.768 313.815 157.725C313.846 157.679 313.646 157.433 313.339 157.203C313.031 156.957 312.755 156.803 312.724 156.85Z" fill="#23D4FE"/>
<path d="M279.476 165.452L279.522 179.784L279.476 165.452Z" fill="#2F557D"/>
<path d="M278.907 165.022C278.907 169.799 278.938 174.561 278.953 179.338C278.923 179.384 279.138 179.615 279.445 179.845C279.753 180.076 280.045 180.229 280.075 180.183C280.075 175.406 280.045 170.629 280.029 165.851C280.06 165.805 279.845 165.575 279.537 165.344C279.23 165.114 278.938 164.976 278.907 165.022Z" fill="#43E8FE"/>
<path d="M284.579 163.409L284.625 177.741L284.579 163.409Z" fill="#2F557D"/>
<path d="M284.026 162.994C284.026 167.771 284.041 172.533 284.057 177.311C284.026 177.357 284.257 177.587 284.549 177.818C284.841 178.048 285.133 178.186 285.164 178.14C285.164 173.363 285.133 168.601 285.117 163.824C285.148 163.777 284.933 163.547 284.626 163.317C284.318 163.086 284.041 162.948 284.011 162.994H284.026Z" fill="#43E8FE"/>
<path d="M289.392 161.35L289.438 175.683L289.392 161.35Z" fill="#2F557D"/>
<path d="M288.837 160.936C288.837 165.713 288.852 170.475 288.868 175.252C288.837 175.298 289.052 175.529 289.36 175.759C289.667 175.99 289.959 176.128 289.99 176.082C289.99 171.304 289.959 166.542 289.944 161.765C289.974 161.719 289.759 161.489 289.452 161.258C289.144 161.028 288.868 160.89 288.837 160.936Z" fill="#43E8FE"/>
<path d="M293.728 159.092L293.774 173.424L293.728 159.092Z" fill="#2F557D"/>
<path d="M293.173 158.662C293.173 163.439 293.188 168.217 293.204 172.994C293.173 173.04 293.403 173.255 293.711 173.486C294.018 173.716 294.295 173.87 294.326 173.824C294.326 169.046 294.295 164.269 294.28 159.492C294.31 159.446 294.095 159.215 293.788 158.985C293.48 158.754 293.204 158.616 293.173 158.662Z" fill="#43E8FE"/>
<path d="M237.097 129.537L234.422 150.551L274.234 160.352L274.157 138.416L237.081 129.537H237.097Z" fill="#213D5A"/>
<path d="M315.06 123.746L315.09 143.946L274.202 160.321L274.156 138.416L315.06 123.746Z" fill="#3A6CA1"/>
<path d="M232.947 128.569C235.56 127.94 274.173 116.204 274.173 116.204L315.092 123.731L274.173 138.431C274.173 138.431 231.594 128.892 232.947 128.569Z" fill="#2F557D"/>
<path d="M299.411 132.532L307.389 129.537L313.292 127.31" fill="#2F557D"/>
<path d="M312.769 126.88C308.142 128.615 303.5 130.351 298.873 132.087C298.827 132.133 299.042 132.379 299.35 132.609C299.642 132.855 299.934 133.009 299.965 132.963C304.592 131.227 309.218 129.491 313.845 127.755C313.876 127.709 313.676 127.463 313.369 127.233C313.061 126.987 312.8 126.834 312.769 126.88Z" fill="#23D4FE"/>
<path d="M313.308 132.533L300.75 137.402L313.308 132.533Z" fill="#2F557D"/>
<path d="M312.772 132.087C308.59 133.715 304.409 135.344 300.213 136.972C300.182 137.018 300.382 137.264 300.69 137.494C300.997 137.74 301.258 137.894 301.289 137.848C305.47 136.219 309.651 134.591 313.848 132.978C313.878 132.932 313.678 132.686 313.371 132.456C313.064 132.21 312.802 132.056 312.772 132.103V132.087Z" fill="#23D4FE"/>
<path d="M279.552 140.382L279.598 154.714L279.552 140.382Z" fill="#2F557D"/>
<path d="M278.983 139.967C278.983 144.745 279.014 149.507 279.03 154.284C278.999 154.33 279.214 154.561 279.521 154.791C279.829 155.021 280.121 155.16 280.152 155.114C280.152 150.336 280.121 145.574 280.105 140.797C280.136 140.751 279.921 140.52 279.614 140.29C279.306 140.06 279.014 139.921 278.983 139.967Z" fill="#43E8FE"/>
<path d="M284.658 139.23L284.704 153.562L284.658 139.23Z" fill="#2F557D"/>
<path d="M284.104 138.815C284.104 143.593 284.119 148.37 284.134 153.147C284.104 153.193 284.334 153.408 284.626 153.639C284.918 153.869 285.21 154.023 285.241 153.977C285.241 149.199 285.226 144.422 285.21 139.645C285.241 139.599 285.01 139.368 284.718 139.138C284.411 138.907 284.134 138.769 284.104 138.815Z" fill="#43E8FE"/>
<path d="M289.451 137.464L289.497 151.796L289.451 137.464Z" fill="#2F557D"/>
<path d="M288.914 137.049C288.914 141.826 288.929 146.588 288.945 151.365C288.914 151.411 289.145 151.642 289.452 151.872C289.76 152.103 290.036 152.241 290.067 152.195C290.067 147.418 290.036 142.656 290.021 137.878C290.052 137.832 289.836 137.602 289.529 137.371C289.221 137.141 288.945 137.003 288.914 137.049Z" fill="#43E8FE"/>
<path d="M293.804 135.928V141.565L293.85 150.26" fill="#2F557D"/>
<path d="M293.249 135.497C293.249 140.275 293.264 145.052 293.28 149.829C293.249 149.876 293.48 150.091 293.787 150.336C294.094 150.567 294.371 150.72 294.402 150.674C294.402 145.897 294.371 141.12 294.356 136.342C294.387 136.296 294.171 136.066 293.879 135.835C293.572 135.605 293.295 135.467 293.264 135.513L293.249 135.497Z" fill="#43E8FE"/>
<path d="M237.328 108.554L237.128 127.356L274.127 134.637L274.204 114.069L237.328 108.554Z" fill="#213D5A"/>
<path d="M314.555 120.198L274.066 134.606L274.128 114.391L314.893 104.76L314.555 120.213V120.198Z" fill="#3A6CA1"/>
<path d="M237.328 108.615L276.833 102.855L315.108 104.714L274.389 114.33L237.344 108.615H237.328Z" fill="#2F557D"/>
<path d="M299.644 114.468L313.263 110.505L299.644 114.468Z" fill="#2F557D"/>
<path d="M312.741 110.059C308.191 111.38 303.656 112.701 299.121 114.022C299.075 114.069 299.291 114.314 299.598 114.545C299.89 114.79 300.151 114.944 300.197 114.898C304.732 113.577 309.282 112.271 313.817 110.95C313.847 110.904 313.647 110.658 313.34 110.428C313.033 110.182 312.771 110.013 312.741 110.059Z" fill="#23D4FE"/>
<path d="M313.17 115.067L299.858 119.291L313.17 115.067Z" fill="#2F557D"/>
<path d="M312.632 114.637C308.19 116.05 303.748 117.448 299.321 118.846C299.275 118.892 299.49 119.138 299.797 119.368C300.089 119.614 300.366 119.783 300.412 119.737C304.854 118.324 309.297 116.91 313.724 115.513C313.755 115.466 313.555 115.221 313.247 114.99C312.94 114.744 312.663 114.591 312.632 114.637Z" fill="#23D4FE"/>
<path d="M279.509 115.113L279.555 129.445L279.509 115.113Z" fill="#2F557D"/>
<path d="M278.954 114.683C278.954 119.46 278.985 124.238 279 129.015C278.969 129.061 279.185 129.291 279.492 129.522C279.8 129.752 280.076 129.891 280.107 129.845C280.107 125.067 280.092 120.305 280.076 115.528C280.107 115.482 279.876 115.251 279.569 115.021C279.262 114.791 278.985 114.637 278.954 114.683Z" fill="#43E8FE"/>
<path d="M284.502 114.314L284.548 128.646L284.502 114.314Z" fill="#2F557D"/>
<path d="M283.934 113.9C283.934 118.677 283.964 123.454 283.98 128.232C283.949 128.278 284.164 128.508 284.472 128.738C284.779 128.969 285.056 129.107 285.086 129.061C285.086 124.284 285.071 119.522 285.056 114.744C285.086 114.698 284.871 114.468 284.564 114.237C284.256 114.007 283.964 113.853 283.934 113.9Z" fill="#43E8FE"/>
<path d="M289.423 112.855L289.469 127.187L289.423 112.855Z" fill="#2F557D"/>
<path d="M288.868 112.44C288.868 117.218 288.899 121.98 288.914 126.757C288.884 126.803 289.099 127.033 289.406 127.264C289.714 127.494 290.006 127.648 290.036 127.602C290.036 122.824 290.006 118.047 289.99 113.27C290.021 113.224 289.806 112.993 289.498 112.763C289.191 112.532 288.899 112.394 288.868 112.44Z" fill="#43E8FE"/>
<path d="M293.759 111.242L293.805 125.574L293.759 111.242Z" fill="#2F557D"/>
<path d="M293.204 110.827C293.204 115.605 293.235 120.382 293.25 125.159C293.219 125.205 293.435 125.42 293.742 125.666C294.05 125.897 294.342 126.05 294.372 126.004C294.372 121.227 294.342 116.449 294.326 111.672C294.357 111.626 294.142 111.396 293.834 111.165C293.527 110.935 293.235 110.797 293.204 110.843V110.827Z" fill="#43E8FE"/>
<path d="M187.6 194.991V213.471L224.091 235.207L224.015 213.271L187.6 194.991Z" fill="#213D5A"/>
<path d="M264.949 194.131L264.826 213.287L224.076 235.192L224.03 213.287L264.964 194.146L264.949 194.131Z" fill="#3A6FA4"/>
<path d="M187.6 194.991L224.091 186.189L264.949 194.146L224.03 213.286L187.615 194.991H187.6Z" fill="#2F557D"/>
<path d="M249.27 207.388L262.182 201.504L249.27 207.388Z" fill="#2F557D"/>
<path d="M261.643 201.059C257.339 203.025 253.02 204.991 248.716 206.942C248.67 206.988 248.9 207.234 249.208 207.465C249.515 207.71 249.792 207.864 249.823 207.818C254.127 205.852 258.431 203.885 262.735 201.935C262.781 201.888 262.566 201.643 262.258 201.412C261.951 201.166 261.674 201.013 261.643 201.059Z" fill="#23D4FE"/>
<path d="M263.15 206.128L250.592 212.257L263.15 206.128Z" fill="#2F557D"/>
<path d="M262.613 205.683C258.432 207.726 254.25 209.769 250.054 211.812C250.008 211.858 250.223 212.104 250.531 212.334C250.838 212.58 251.115 212.734 251.145 212.687C255.326 210.644 259.508 208.601 263.704 206.558C263.75 206.512 263.535 206.266 263.227 206.036C262.92 205.79 262.643 205.637 262.613 205.683Z" fill="#23D4FE"/>
<path d="M229.363 214.285L229.409 228.617L229.363 214.285Z" fill="#2F557D"/>
<path d="M228.795 213.87C228.795 218.648 228.826 223.425 228.841 228.202C228.81 228.248 229.025 228.463 229.333 228.709C229.64 228.955 229.917 229.093 229.948 229.047C229.948 224.27 229.932 219.492 229.917 214.715C229.948 214.669 229.733 214.439 229.425 214.208C229.118 213.978 228.826 213.84 228.795 213.886V213.87Z" fill="#43E8FE"/>
<path d="M234.469 212.257L234.515 226.589L234.469 212.257Z" fill="#2F557D"/>
<path d="M233.914 211.843C233.914 216.62 233.929 221.382 233.945 226.159C233.914 226.205 234.129 226.436 234.437 226.666C234.744 226.897 235.036 227.05 235.067 227.004C235.067 222.227 235.036 217.449 235.021 212.672C235.052 212.626 234.836 212.396 234.529 212.165C234.221 211.935 233.945 211.796 233.914 211.843Z" fill="#43E8FE"/>
<path d="M239.278 210.184L239.324 224.516L239.278 210.184Z" fill="#2F557D"/>
<path d="M238.71 209.769C238.71 214.546 238.741 219.308 238.756 224.085C238.725 224.131 238.941 224.362 239.248 224.592C239.555 224.823 239.847 224.976 239.878 224.93C239.878 220.153 239.847 215.376 239.832 210.598C239.863 210.552 239.648 210.322 239.34 210.091C239.033 209.861 238.741 209.723 238.71 209.769Z" fill="#43E8FE"/>
<path d="M243.614 207.925L243.66 222.257L243.614 207.925Z" fill="#2F557D"/>
<path d="M243.06 207.511C243.06 212.288 243.075 217.065 243.09 221.843C243.06 221.889 243.275 222.119 243.582 222.35C243.89 222.58 244.182 222.718 244.212 222.672C244.212 217.895 244.182 213.117 244.166 208.34C244.197 208.294 243.982 208.079 243.674 207.849C243.367 207.618 243.09 207.465 243.06 207.511Z" fill="#43E8FE"/>
<path d="M187.614 172.118V191.166L224.091 209.124L224.014 187.188L187.614 172.118Z" fill="#213D5A"/>
<path d="M264.949 170.444V190.629L224.061 209.124L224.015 187.219L264.949 170.46V170.444Z" fill="#3A6FA4"/>
<path d="M187.6 172.103L224.091 160.091L264.949 170.429L224.03 187.188L187.615 172.103H187.6Z" fill="#2F557D"/>
<path d="M250.238 181.857L258.416 178.125L263.15 175.959" fill="#2F557D"/>
<path d="M262.613 175.529C258.309 177.495 254.005 179.446 249.701 181.397C249.654 181.443 249.87 181.689 250.177 181.919C250.485 182.149 250.761 182.318 250.792 182.272C255.096 180.306 259.4 178.355 263.704 176.404C263.75 176.358 263.535 176.112 263.227 175.882C262.92 175.636 262.643 175.483 262.613 175.529Z" fill="#23D4FE"/>
<path d="M263.15 180.06L250.592 186.189L263.15 180.06Z" fill="#2F557D"/>
<path d="M262.613 179.615C258.432 181.658 254.25 183.701 250.054 185.744C250.008 185.79 250.223 186.036 250.531 186.266C250.838 186.512 251.115 186.666 251.145 186.62C255.326 184.577 259.508 182.533 263.704 180.49C263.75 180.444 263.535 180.199 263.227 179.968C262.92 179.722 262.643 179.569 262.613 179.615Z" fill="#23D4FE"/>
<path d="M229.363 188.217L229.409 202.549L229.363 188.217Z" fill="#2F557D"/>
<path d="M228.795 187.802C228.795 192.58 228.826 197.342 228.841 202.119C228.81 202.165 229.025 202.395 229.333 202.626C229.64 202.856 229.917 202.995 229.948 202.948C229.948 198.171 229.932 193.409 229.917 188.632C229.948 188.586 229.733 188.355 229.425 188.125C229.118 187.894 228.826 187.756 228.795 187.802Z" fill="#43E8FE"/>
<path d="M234.469 186.174L234.515 200.506L234.469 186.174Z" fill="#2F557D"/>
<path d="M233.914 185.759C233.914 190.537 233.929 195.314 233.945 200.091C233.914 200.137 234.129 200.368 234.437 200.598C234.744 200.829 235.036 200.967 235.067 200.921C235.067 196.143 235.036 191.381 235.021 186.604C235.052 186.558 234.836 186.328 234.529 186.097C234.221 185.867 233.945 185.713 233.914 185.759Z" fill="#43E8FE"/>
<path d="M239.278 184.116L239.324 198.448L239.278 184.116Z" fill="#2F557D"/>
<path d="M238.71 183.686C238.71 188.463 238.741 193.24 238.756 198.018C238.725 198.064 238.941 198.294 239.248 198.524C239.555 198.755 239.847 198.893 239.878 198.847C239.878 194.07 239.847 189.308 239.832 184.53C239.863 184.484 239.648 184.254 239.34 184.023C239.033 183.793 238.741 183.639 238.71 183.686Z" fill="#43E8FE"/>
<path d="M243.614 181.858L243.66 196.19L243.614 181.858Z" fill="#2F557D"/>
<path d="M243.06 181.443C243.06 186.22 243.075 190.982 243.09 195.759C243.06 195.805 243.275 196.036 243.582 196.266C243.89 196.497 244.182 196.635 244.212 196.589C244.212 191.812 244.182 187.05 244.166 182.272C244.197 182.226 243.982 181.996 243.674 181.765C243.367 181.535 243.09 181.397 243.06 181.443Z" fill="#43E8FE"/>
<path d="M187.646 148.293V169.046L224.138 183.117L224.061 161.181L187.6 148.17L187.646 148.293Z" fill="#213D5A"/>
<path d="M264.948 146.511L264.979 166.711L224.091 183.086L224.045 161.181L264.948 146.511Z" fill="#3A6FA4"/>
<path d="M188.798 147.003L224.045 138.969L264.964 146.496L224.045 161.197L187.584 148.17C187.584 148.17 188.66 147.633 188.691 147.525C188.737 147.341 188.798 147.003 188.798 147.003Z" fill="#2F557D"/>
<path d="M249.3 155.298L257.278 152.302L263.18 150.075" fill="#2F557D"/>
<path d="M262.658 149.63C258.031 151.365 253.389 153.117 248.762 154.852C248.716 154.899 248.931 155.144 249.239 155.375C249.546 155.605 249.823 155.774 249.853 155.728C254.48 153.992 259.107 152.241 263.734 150.505C263.78 150.459 263.565 150.213 263.257 149.983C262.965 149.737 262.689 149.584 262.658 149.63Z" fill="#23D4FE"/>
<path d="M263.196 155.298L250.638 160.167L263.196 155.298Z" fill="#2F557D"/>
<path d="M262.658 154.868C258.477 156.496 254.296 158.109 250.1 159.737C250.054 159.783 250.269 160.029 250.576 160.26C250.869 160.505 251.145 160.659 251.176 160.613C255.357 158.985 259.538 157.372 263.734 155.743C263.781 155.697 263.565 155.452 263.258 155.221C262.951 154.975 262.689 154.822 262.658 154.868Z" fill="#23D4FE"/>
<path d="M229.44 163.148L229.487 177.48L229.44 163.148Z" fill="#2F557D"/>
<path d="M228.872 162.718C228.872 167.495 228.903 172.272 228.918 177.05C228.887 177.096 229.103 177.326 229.41 177.556C229.718 177.787 230.01 177.925 230.04 177.879C230.04 173.102 230.01 168.34 229.994 163.562C230.025 163.516 229.81 163.286 229.502 163.055C229.195 162.825 228.903 162.671 228.872 162.718Z" fill="#43E8FE"/>
<path d="M234.546 161.996L234.592 176.328L234.546 161.996Z" fill="#2F557D"/>
<path d="M233.991 161.581C233.991 166.358 234.007 171.12 234.022 175.897C233.991 175.943 234.222 176.174 234.529 176.404C234.837 176.635 235.113 176.773 235.144 176.727C235.144 171.95 235.113 167.188 235.098 162.41C235.129 162.364 234.914 162.134 234.606 161.903C234.299 161.673 234.022 161.535 233.991 161.581Z" fill="#43E8FE"/>
<path d="M239.357 160.229L239.404 174.561L239.357 160.229Z" fill="#2F557D"/>
<path d="M238.803 159.799C238.803 164.576 238.818 169.353 238.834 174.131C238.803 174.177 239.018 174.407 239.325 174.638C239.633 174.868 239.925 175.006 239.956 174.96C239.956 170.183 239.925 165.406 239.909 160.628C239.94 160.582 239.725 160.367 239.418 160.137C239.11 159.906 238.833 159.753 238.803 159.799Z" fill="#43E8FE"/>
<path d="M243.689 158.693V164.33L243.736 173.025" fill="#2F557D"/>
<path d="M243.136 158.278C243.136 163.055 243.152 167.817 243.167 172.595C243.136 172.641 243.367 172.871 243.659 173.102C243.967 173.332 244.243 173.47 244.274 173.424C244.274 168.647 244.243 163.885 244.228 159.108C244.259 159.061 244.043 158.831 243.736 158.601C243.429 158.37 243.152 158.232 243.121 158.278H243.136Z" fill="#43E8FE"/>
<path d="M189.013 146.957L224.014 157.402L224.09 136.834L193.809 130.382C193.809 130.382 192.517 133.777 191.257 137.894C189.996 142.011 189.013 146.972 189.013 146.972V146.957Z" fill="#213D5A"/>
<path d="M264.979 124.975L264.948 142.794L223.968 157.387L224.029 137.172L260.736 126.25L264.994 124.99L264.979 124.975Z" fill="#3A6FA4"/>
<path d="M196.099 124.56L222.569 118.539L264.994 124.975L224.275 137.095L193.824 130.382L196.115 124.576L196.099 124.56Z" fill="#2F557D"/>
<path d="M248.469 134.007L262.088 130.044L248.469 134.007Z" fill="#2F557D"/>
<path d="M261.566 129.614C257.031 130.935 252.481 132.241 247.947 133.562C247.901 133.608 248.116 133.854 248.423 134.084C248.715 134.33 248.992 134.483 249.023 134.437C253.557 133.116 258.107 131.811 262.642 130.49C262.688 130.444 262.473 130.198 262.165 129.967C261.873 129.722 261.596 129.568 261.566 129.614Z" fill="#23D4FE"/>
<path d="M263.15 134.668L249.869 138.969L263.15 134.668Z" fill="#2F557D"/>
<path d="M262.612 134.222C258.185 135.651 253.758 137.095 249.331 138.524C249.285 138.57 249.501 138.815 249.808 139.046C250.115 139.276 250.392 139.445 250.423 139.399C254.85 137.971 259.277 136.527 263.704 135.098C263.75 135.052 263.535 134.806 263.227 134.576C262.935 134.33 262.643 134.176 262.612 134.222Z" fill="#23D4FE"/>
<path d="M229.395 137.879L229.441 152.211L229.395 137.879Z" fill="#2F557D"/>
<path d="M228.84 137.464C228.84 142.241 228.871 147.018 228.886 151.796C228.855 151.842 229.07 152.072 229.378 152.303C229.685 152.533 229.962 152.671 229.993 152.625C229.993 147.848 229.977 143.07 229.962 138.293C229.993 138.247 229.762 138.032 229.455 137.802C229.147 137.571 228.871 137.418 228.84 137.464Z" fill="#43E8FE"/>
<path d="M234.391 137.08L234.437 151.412L234.391 137.08Z" fill="#2F557D"/>
<path d="M233.836 136.665C233.836 141.442 233.867 146.219 233.882 150.997C233.851 151.043 234.066 151.258 234.374 151.504C234.681 151.749 234.958 151.888 234.989 151.842C234.989 147.064 234.973 142.287 234.958 137.51C234.989 137.464 234.758 137.249 234.466 137.018C234.159 136.788 233.882 136.634 233.851 136.68L233.836 136.665Z" fill="#43E8FE"/>
<path d="M239.311 135.62L239.357 149.952L239.311 135.62Z" fill="#2F557D"/>
<path d="M238.756 135.205C238.756 139.983 238.787 144.745 238.802 149.522C238.771 149.568 238.986 149.799 239.294 150.029C239.601 150.259 239.878 150.398 239.909 150.352C239.909 145.574 239.893 140.812 239.878 136.035C239.909 135.989 239.694 135.758 239.386 135.528C239.079 135.298 238.787 135.159 238.756 135.205Z" fill="#43E8FE"/>
<path d="M243.644 134.007L243.69 148.339L243.644 134.007Z" fill="#2F557D"/>
<path d="M243.089 133.592C243.089 138.37 243.12 143.132 243.135 147.909C243.104 147.955 243.319 148.186 243.627 148.416C243.934 148.646 244.226 148.785 244.257 148.739C244.257 143.961 244.226 139.199 244.211 134.422C244.242 134.376 244.027 134.145 243.719 133.915C243.412 133.685 243.12 133.546 243.089 133.592Z" fill="#43E8FE"/>
<path d="M140.562 226.835V245.315L177.054 267.051L176.977 245.115L140.562 226.835Z" fill="#213D5A"/>
<path d="M217.912 225.99L217.789 245.146L177.039 267.051L176.993 245.146L217.927 226.006L217.912 225.99Z" fill="#3A6FA4"/>
<path d="M140.562 226.835L177.054 218.018L217.912 225.975L176.993 245.115L140.578 226.82L140.562 226.835Z" fill="#2F557D"/>
<path d="M202.232 239.247L215.144 233.364L202.232 239.247Z" fill="#2F557D"/>
<path d="M214.607 232.903C210.303 234.869 205.999 236.835 201.695 238.786C201.649 238.832 201.864 239.078 202.171 239.309C202.479 239.554 202.755 239.708 202.786 239.662C207.09 237.696 211.394 235.729 215.698 233.778C215.744 233.732 215.529 233.487 215.222 233.256C214.914 233.01 214.637 232.857 214.607 232.903Z" fill="#23D4FE"/>
<path d="M216.113 237.988L203.555 244.117L216.113 237.988Z" fill="#2F557D"/>
<path d="M215.575 237.542C211.394 239.585 207.213 241.628 203.017 243.671C202.971 243.717 203.186 243.963 203.493 244.193C203.801 244.439 204.078 244.593 204.108 244.547C208.289 242.504 212.47 240.461 216.667 238.418C216.713 238.372 216.498 238.126 216.19 237.895C215.883 237.65 215.606 237.496 215.575 237.542Z" fill="#23D4FE"/>
<path d="M182.327 246.144L182.373 260.476L182.327 246.144Z" fill="#2F557D"/>
<path d="M181.759 245.714C181.759 250.492 181.79 255.269 181.805 260.046C181.774 260.092 181.989 260.323 182.297 260.553C182.604 260.784 182.881 260.922 182.912 260.876C182.912 256.098 182.896 251.336 182.881 246.559C182.912 246.513 182.696 246.283 182.389 246.052C182.082 245.822 181.79 245.668 181.759 245.714Z" fill="#43E8FE"/>
<path d="M187.432 244.116L187.478 258.448L187.432 244.116Z" fill="#2F557D"/>
<path d="M186.877 243.687C186.877 248.464 186.892 253.241 186.908 258.019C186.877 258.065 187.092 258.295 187.4 258.525C187.707 258.756 187.999 258.894 188.03 258.848C188.03 254.071 187.999 249.293 187.984 244.516C188.014 244.47 187.799 244.255 187.492 244.024C187.184 243.794 186.908 243.64 186.877 243.687Z" fill="#43E8FE"/>
<path d="M192.241 242.043L192.287 256.375L192.241 242.043Z" fill="#2F557D"/>
<path d="M191.673 241.613C191.673 246.39 191.704 251.167 191.719 255.945C191.688 255.991 191.903 256.221 192.211 256.452C192.518 256.682 192.81 256.82 192.841 256.774C192.841 251.997 192.81 247.22 192.795 242.442C192.826 242.396 192.611 242.181 192.303 241.935C191.996 241.705 191.704 241.551 191.673 241.597V241.613Z" fill="#43E8FE"/>
<path d="M196.577 239.785L196.623 254.117L196.577 239.785Z" fill="#2F557D"/>
<path d="M196.022 239.37C196.022 244.147 196.038 248.909 196.053 253.687C196.022 253.733 196.238 253.963 196.545 254.194C196.853 254.424 197.145 254.562 197.175 254.516C197.175 249.739 197.145 244.977 197.129 240.2C197.16 240.153 196.945 239.923 196.637 239.693C196.33 239.462 196.053 239.324 196.022 239.37Z" fill="#43E8FE"/>
<path d="M140.578 203.962V223.01L177.055 240.967L176.978 219.032L140.578 203.962Z" fill="#213D5A"/>
<path d="M217.912 202.288V222.472L177.024 240.967L176.978 219.062L217.912 202.303V202.288Z" fill="#3A6FA4"/>
<path d="M140.562 203.962L177.054 191.95L217.912 202.288L176.993 219.047L140.578 203.962H140.562Z" fill="#2F557D"/>
<path d="M203.201 213.701L211.379 209.968L216.113 207.802" fill="#2F557D"/>
<path d="M215.575 207.373C211.271 209.339 206.967 211.305 202.663 213.256C202.617 213.302 202.833 213.548 203.14 213.778C203.447 214.009 203.724 214.178 203.755 214.131C208.059 212.165 212.363 210.199 216.667 208.248C216.713 208.202 216.498 207.956 216.19 207.726C215.883 207.48 215.606 207.326 215.575 207.373Z" fill="#23D4FE"/>
<path d="M216.113 211.904L203.555 218.033L216.113 211.904Z" fill="#2F557D"/>
<path d="M215.575 211.458C211.394 213.502 207.213 215.545 203.017 217.588C202.971 217.634 203.186 217.879 203.493 218.11C203.801 218.356 204.078 218.509 204.108 218.463C208.289 216.42 212.47 214.377 216.667 212.334C216.713 212.288 216.498 212.042 216.19 211.812C215.883 211.566 215.606 211.412 215.575 211.458Z" fill="#23D4FE"/>
<path d="M182.327 220.061L182.373 234.393L182.327 220.061Z" fill="#2F557D"/>
<path d="M181.759 219.646C181.759 224.423 181.79 229.201 181.805 233.978C181.774 234.024 181.989 234.239 182.297 234.485C182.604 234.731 182.881 234.869 182.912 234.823C182.912 230.046 182.896 225.268 182.881 220.491C182.912 220.445 182.696 220.214 182.389 219.984C182.082 219.754 181.79 219.615 181.759 219.661V219.646Z" fill="#43E8FE"/>
<path d="M187.432 218.033L187.478 232.365L187.432 218.033Z" fill="#2F557D"/>
<path d="M186.877 217.618C186.877 222.396 186.892 227.158 186.908 231.935C186.877 231.981 187.092 232.212 187.4 232.442C187.707 232.672 187.999 232.826 188.03 232.78C188.03 228.003 187.999 223.225 187.984 218.448C188.014 218.402 187.799 218.171 187.492 217.941C187.184 217.711 186.908 217.572 186.877 217.618Z" fill="#43E8FE"/>
<path d="M192.241 215.959L192.287 230.291L192.241 215.959Z" fill="#2F557D"/>
<path d="M191.673 215.545C191.673 220.322 191.704 225.084 191.719 229.861C191.688 229.907 191.903 230.138 192.211 230.368C192.518 230.599 192.81 230.752 192.841 230.706C192.841 225.929 192.81 221.151 192.795 216.374C192.826 216.328 192.611 216.098 192.303 215.867C191.996 215.637 191.704 215.499 191.673 215.545Z" fill="#43E8FE"/>
<path d="M196.577 213.701L196.623 228.033L196.577 213.701Z" fill="#2F557D"/>
<path d="M196.022 213.286C196.022 218.064 196.038 222.841 196.053 227.619C196.022 227.665 196.238 227.895 196.545 228.125C196.853 228.356 197.145 228.494 197.175 228.448C197.175 223.671 197.145 218.893 197.129 214.116C197.16 214.07 196.945 213.855 196.637 213.624C196.33 213.394 196.053 213.24 196.022 213.286Z" fill="#43E8FE"/>
<path d="M140.379 189.523V200.368L177.101 214.976L177.024 193.041L146.589 181.289C146.589 181.289 144.867 183.532 143.561 185.16C142.254 186.788 140.379 189.523 140.379 189.523Z" fill="#213D5A"/>
<path d="M217.913 178.371L217.944 198.571L177.056 214.946L177.01 193.041L217.913 178.371Z" fill="#3A6FA4"/>
<path d="M177.023 170.813L217.942 178.34L177.023 193.041L146.557 181.32L148.785 178.555L177.023 170.813Z" fill="#2F557D"/>
<path d="M202.265 187.157L210.242 184.162L216.145 181.95" fill="#2F557D"/>
<path d="M215.623 181.489C210.996 183.225 206.354 184.96 201.727 186.696C201.681 186.742 201.896 186.988 202.203 187.219C202.511 187.449 202.788 187.618 202.818 187.572C207.445 185.836 212.072 184.1 216.699 182.364C216.745 182.318 216.53 182.073 216.222 181.842C215.93 181.596 215.653 181.443 215.623 181.489Z" fill="#23D4FE"/>
<path d="M216.161 187.157L203.603 192.027L216.161 187.157Z" fill="#2F557D"/>
<path d="M215.623 186.712C211.442 188.34 207.261 189.968 203.065 191.581C203.019 191.627 203.234 191.873 203.541 192.104C203.849 192.334 204.11 192.503 204.141 192.457C208.322 190.829 212.503 189.2 216.699 187.587C216.745 187.541 216.53 187.295 216.223 187.065C215.915 186.819 215.654 186.666 215.623 186.712Z" fill="#23D4FE"/>
<path d="M182.403 195.007L182.449 209.339L182.403 195.007Z" fill="#2F557D"/>
<path d="M181.835 194.577C181.835 199.354 181.866 204.116 181.881 208.893C181.85 208.939 182.066 209.17 182.373 209.4C182.68 209.631 182.972 209.784 183.003 209.738C183.003 204.961 182.972 200.183 182.957 195.406C182.988 195.36 182.773 195.13 182.465 194.899C182.158 194.669 181.866 194.53 181.835 194.577Z" fill="#43E8FE"/>
<path d="M187.509 193.839L187.555 208.171L187.509 193.839Z" fill="#2F557D"/>
<path d="M186.954 193.425C186.954 198.202 186.969 202.979 186.985 207.757C186.954 207.803 187.185 208.018 187.492 208.263C187.8 208.509 188.076 208.648 188.107 208.601C188.107 203.824 188.076 199.047 188.061 194.269C188.092 194.223 187.876 194.008 187.569 193.778C187.262 193.547 186.985 193.394 186.954 193.44V193.425Z" fill="#43E8FE"/>
<path d="M192.32 192.073L192.366 206.405L192.32 192.073Z" fill="#2F557D"/>
<path d="M191.766 191.658C191.766 196.435 191.781 201.197 191.796 205.975C191.766 206.021 191.981 206.251 192.288 206.482C192.596 206.712 192.888 206.85 192.918 206.804C192.918 202.027 192.888 197.265 192.872 192.488C192.903 192.442 192.688 192.211 192.381 191.981C192.073 191.75 191.796 191.612 191.766 191.658Z" fill="#43E8FE"/>
<path d="M196.654 190.537V196.174L196.7 204.869" fill="#2F557D"/>
<path d="M196.101 190.122C196.101 194.899 196.117 199.677 196.132 204.454C196.101 204.5 196.332 204.715 196.624 204.946C196.931 205.176 197.208 205.33 197.239 205.283C197.239 200.506 197.208 195.729 197.193 190.951C197.223 190.905 197.008 190.69 196.701 190.46C196.393 190.229 196.117 190.076 196.086 190.122H196.101Z" fill="#43E8FE"/>
<path d="M163.251 164.668C163.251 164.668 159.331 168.14 155.704 171.688C152.076 175.221 148.817 178.555 148.817 178.555L176.993 189.262L177.07 168.693L163.267 164.684L163.251 164.668Z" fill="#213D5A"/>
<path d="M217.944 156.819L217.913 174.638L176.933 189.231L176.994 169.016L213.701 158.094L217.959 156.834L217.944 156.819Z" fill="#3A6FA4"/>
<path d="M186.139 149.046L217.958 156.834L177.239 168.954L163.267 164.684C163.267 164.684 168.831 160.398 173.688 157.049C178.561 153.7 186.139 149.046 186.139 149.046Z" fill="#2F557D"/>
<path d="M201.434 165.867L215.053 161.903L201.434 165.867Z" fill="#2F557D"/>
<path d="M214.531 161.458C209.996 162.779 205.446 164.1 200.911 165.421C200.865 165.467 201.081 165.713 201.388 165.943C201.68 166.189 201.957 166.343 201.988 166.297C206.522 164.976 211.072 163.654 215.607 162.333C215.653 162.287 215.438 162.042 215.13 161.811C214.838 161.565 214.561 161.412 214.531 161.458Z" fill="#23D4FE"/>
<path d="M216.114 166.512L202.833 170.813L216.114 166.512Z" fill="#2F557D"/>
<path d="M215.576 166.066C211.149 167.495 206.722 168.939 202.295 170.367C202.249 170.413 202.464 170.659 202.772 170.89C203.079 171.12 203.356 171.289 203.387 171.243C207.814 169.814 212.241 168.37 216.668 166.942C216.714 166.896 216.499 166.65 216.191 166.42C215.899 166.174 215.607 166.02 215.576 166.066Z" fill="#23D4FE"/>
<path d="M182.359 169.738L182.406 184.07L182.359 169.738Z" fill="#2F557D"/>
<path d="M181.805 169.323C181.805 174.1 181.835 178.862 181.851 183.639C181.82 183.685 182.035 183.916 182.343 184.146C182.65 184.377 182.927 184.515 182.958 184.469C182.958 179.691 182.942 174.93 182.927 170.152C182.958 170.106 182.727 169.876 182.42 169.645C182.112 169.415 181.835 169.277 181.805 169.323Z" fill="#43E8FE"/>
<path d="M187.354 168.939L187.401 183.271L187.354 168.939Z" fill="#2F557D"/>
<path d="M186.8 168.524C186.8 173.301 186.831 178.063 186.846 182.841C186.815 182.887 187.03 183.117 187.338 183.348C187.645 183.578 187.922 183.716 187.953 183.67C187.953 178.893 187.937 174.131 187.922 169.353C187.953 169.307 187.722 169.077 187.43 168.847C187.123 168.616 186.846 168.478 186.815 168.524H186.8Z" fill="#43E8FE"/>
<path d="M192.273 167.479L192.32 181.812L192.273 167.479Z" fill="#2F557D"/>
<path d="M191.719 167.049C191.719 171.827 191.749 176.604 191.765 181.381C191.734 181.427 191.949 181.643 192.257 181.873C192.564 182.103 192.856 182.257 192.887 182.211C192.887 177.434 192.856 172.656 192.841 167.879C192.872 167.833 192.656 167.602 192.349 167.372C192.042 167.142 191.749 167.003 191.719 167.049Z" fill="#43E8FE"/>
<path d="M196.608 165.866L196.655 180.198L196.608 165.866Z" fill="#2F557D"/>
<path d="M196.054 165.437C196.054 170.214 196.084 174.991 196.1 179.769C196.069 179.815 196.284 180.03 196.592 180.26C196.899 180.49 197.191 180.644 197.222 180.598C197.222 175.821 197.191 171.043 197.176 166.266C197.207 166.22 196.991 166.005 196.684 165.774C196.377 165.544 196.084 165.39 196.054 165.437Z" fill="#43E8FE"/>
<path d="M557.129 398.85L561.295 438.498L603.166 404.042L599.892 368.281L557.144 398.866L557.129 398.85Z" fill="#2B354E"/>
<path d="M559.896 400.801L563.431 432.599L601.014 403.197L598.278 373.443L559.896 400.801Z" fill="url(#paint0_linear_2103_2530)"/>
<path d="M558.19 399.188L562.233 437.637L603.244 405.102L599.955 369.003L558.19 399.188Z" fill="#303D5D"/>
<path opacity="0.5" d="M559.928 401.216L563.463 433.029L601.062 403.627L598.249 373.274L559.928 401.216Z" fill="#6DE4FF"/>
<path d="M561.279 438.375L596.434 458.59L637.414 422.46L628.745 418.021L603.197 404.918L561.279 438.39V438.375Z" fill="#2B354E"/>
<path d="M562.954 437.883L565.244 439.22L594.419 456.101L597.279 457.76L639.074 421.984L630.404 417.529L603.934 405.148L562.954 437.883Z" fill="#303D5D"/>
<path d="M567.475 437.622L604.059 408.021L621.613 417.084L585.29 447.852L567.475 437.622Z" fill="#2F557D" stroke="#2B354E" stroke-width="0.44" stroke-linejoin="round"/>
<path d="M600.292 439.972L612.989 429.219L620.69 432.86L607.839 443.92L600.292 439.972Z" fill="#2F557D" stroke="#2B354E" stroke-width="0.06" stroke-linejoin="round"/>
<g opacity="0.17">
<path d="M559.988 401.677L563.17 429.143L600.769 454.765L618.769 432.783L619.414 431.984L638.936 408.128L618.523 359.879L559.988 401.677Z" fill="url(#paint1_linear_2103_2530)"/>
</g>
<path d="M639.566 423.075C625.793 434.949 612.036 446.808 598.263 458.667C598.263 458.667 598.309 458.759 598.401 458.836C598.493 458.912 598.586 458.958 598.586 458.928C612.358 447.069 626.116 435.195 639.889 423.321C639.889 423.305 639.842 423.244 639.75 423.167C639.658 423.09 639.566 423.044 639.55 423.059L639.566 423.075Z" fill="#C9F9FF"/>
<path d="M182.803 253.425L182.987 253.471L183.141 253.625L183.187 253.809L183.141 254.009L182.987 254.163L182.803 254.209L182.603 254.163L182.465 254.009L182.403 253.809L182.465 253.625L182.603 253.471L182.803 253.425Z" fill="url(#paint2_linear_2103_2530)"/>
<path d="M182.803 253.425L182.987 253.471L183.141 253.625L183.187 253.809L183.141 254.009L182.987 254.163L182.803 254.209L182.603 254.163L182.465 254.009L182.403 253.809L182.465 253.625L182.603 253.471L182.803 253.425Z" stroke="#C9F9FF" stroke-width="0.9" stroke-linejoin="round"/>
<path d="M182.803 253.425L182.987 253.471L183.141 253.625L183.187 253.809L183.141 254.009L182.987 254.163L182.803 254.209L182.603 254.163L182.465 254.009L182.403 253.809L182.465 253.625L182.603 253.471L182.803 253.425Z" fill="url(#paint3_linear_2103_2530)"/>
<path d="M182.803 253.425L182.987 253.471L183.141 253.625L183.187 253.809L183.141 254.009L182.987 254.163L182.803 254.209L182.603 254.163L182.465 254.009L182.403 253.809L182.465 253.625L182.603 253.471L182.803 253.425Z" stroke="#C9F9FF" stroke-width="0.9" stroke-linejoin="round"/>
<path d="M182.802 253.948H182.818V253.963V253.979H182.802V253.994L182.787 253.979L182.771 253.963L182.787 253.948H182.802Z" fill="url(#paint4_linear_2103_2530)"/>
<path d="M182.802 253.948H182.818V253.963V253.979H182.802V253.994L182.787 253.979L182.771 253.963L182.787 253.948H182.802Z" stroke="#C9F9FF" stroke-width="0.9" stroke-linejoin="round"/>
<path d="M197.314 221.904L197.329 221.92V221.935H197.314V221.95L197.299 221.935H197.283V221.92L197.299 221.904H197.314Z" fill="url(#paint5_linear_2103_2530)"/>
<path d="M197.314 221.904L197.329 221.92V221.935H197.314V221.95L197.299 221.935H197.283V221.92L197.299 221.904H197.314Z" stroke="#C9F9FF" stroke-width="0.9" stroke-linejoin="round"/>
<path d="M230.04 171.888H230.055V171.904V171.919H230.04H230.024H230.009V171.904V171.888H230.024H230.04Z" fill="url(#paint6_linear_2103_2530)"/>
<path d="M230.04 171.888H230.055V171.904V171.919H230.04H230.024H230.009V171.904V171.888H230.024H230.04Z" stroke="#C9F9FF" stroke-width="0.9" stroke-linejoin="round"/>
<path d="M244.073 190.399H244.088V190.414V190.429V190.445H244.073H244.058V190.429V190.414V190.399H244.073Z" fill="url(#paint7_linear_2103_2530)"/>
<path d="M244.073 190.399H244.088V190.414V190.429V190.445H244.073H244.058V190.429V190.414V190.399H244.073Z" stroke="#C9F9FF" stroke-width="0.9" stroke-linejoin="round"/>
<path d="M279.981 121.765V121.734V121.672V121.58V121.488V121.411V121.38V121.411V121.488V121.58V121.672V121.734V121.765Z" stroke="#C9F9FF" stroke-width="0.9" stroke-linejoin="round"/>
<path d="M302.93 136.696H302.946V136.711H302.961L302.946 136.726V136.742H302.93H302.915V136.726V136.711V136.696H302.93Z" fill="url(#paint8_linear_2103_2530)"/>
<path d="M302.93 136.696H302.946V136.711H302.961L302.946 136.726V136.742H302.93H302.915V136.726V136.711V136.696H302.93Z" stroke="#C9F9FF" stroke-width="0.9" stroke-linejoin="round"/>
<path d="M243.398 320.324C243.429 318.772 242.245 317.497 240.754 317.466C239.263 317.436 238.034 318.665 238.003 320.201C237.972 321.752 239.156 323.027 240.647 323.058C242.138 323.089 243.367 321.86 243.398 320.308V320.324ZM242.937 342.72C242.968 341.169 241.784 339.894 240.293 339.863C238.802 339.832 237.572 341.061 237.542 342.613C237.511 344.164 238.694 345.439 240.185 345.47C241.677 345.501 242.906 344.272 242.937 342.72ZM243.168 331.522C243.198 329.97 242.015 328.695 240.524 328.665C239.033 328.634 237.803 329.863 237.772 331.414C237.741 332.966 238.925 334.241 240.416 334.272C241.907 334.302 243.137 333.073 243.168 331.522Z" fill="#43E8FE"/>
<path d="M312.83 226.282C312.861 224.731 311.677 223.456 310.186 223.425C308.695 223.394 307.465 224.623 307.434 226.175C307.404 227.726 308.587 229.001 310.078 229.032C311.569 229.063 312.799 227.834 312.83 226.282ZM312.369 248.679C312.399 247.127 311.216 245.852 309.725 245.822C308.234 245.791 307.004 247.02 306.973 248.571C306.942 250.123 308.126 251.398 309.617 251.429C311.108 251.459 312.338 250.23 312.369 248.679ZM312.599 237.481C312.63 235.929 311.446 234.654 309.955 234.623C308.464 234.593 307.235 235.822 307.204 237.373C307.173 238.925 308.357 240.2 309.848 240.23C311.339 240.261 312.568 239.032 312.599 237.481Z" fill="#43E8FE"/>
<path d="M305.405 475.979C306.62 475.026 306.85 473.29 305.928 472.123C305.006 470.956 303.269 470.787 302.054 471.739C300.84 472.691 300.609 474.427 301.532 475.595C302.454 476.762 304.191 476.931 305.405 475.979ZM287.882 489.881C289.096 488.913 289.327 487.192 288.405 486.025C287.482 484.857 285.745 484.673 284.546 485.641C283.332 486.593 283.101 488.329 284.024 489.497C284.946 490.664 286.683 490.848 287.882 489.881ZM296.644 482.922C297.858 481.97 298.089 480.234 297.151 479.066C296.229 477.899 294.492 477.715 293.293 478.682C292.078 479.65 291.848 481.37 292.77 482.538C293.692 483.705 295.429 483.89 296.644 482.922Z" fill="#2BC3CF"/>
<path d="M471.201 397.038C472.477 396.177 472.846 394.472 472.031 393.228C471.201 391.984 469.495 391.677 468.203 392.537C466.928 393.397 466.559 395.102 467.373 396.346C468.203 397.591 469.91 397.898 471.201 397.038ZM452.617 409.48C453.908 408.62 454.261 406.915 453.447 405.671C452.632 404.426 450.91 404.119 449.635 404.979C448.343 405.84 447.99 407.545 448.805 408.789C449.635 410.033 451.341 410.34 452.617 409.48ZM461.901 403.259C463.177 402.399 463.546 400.694 462.731 399.449C461.916 398.205 460.195 397.898 458.904 398.758C457.628 399.618 457.259 401.323 458.074 402.568C458.888 403.812 460.61 404.119 461.901 403.259Z" fill="#43E8FE"/>
<path d="M305.405 475.979C306.62 475.026 306.85 473.29 305.928 472.123C305.006 470.956 303.269 470.787 302.054 471.739C300.84 472.691 300.609 474.427 301.532 475.595C302.454 476.762 304.191 476.931 305.405 475.979ZM287.882 489.881C289.096 488.913 289.327 487.192 288.405 486.025C287.482 484.857 285.745 484.673 284.546 485.641C283.332 486.593 283.101 488.329 284.024 489.497C284.946 490.664 286.683 490.848 287.882 489.881ZM296.644 482.922C297.858 481.97 298.089 480.234 297.151 479.066C296.229 477.899 294.492 477.715 293.293 478.682C292.078 479.65 291.848 481.37 292.77 482.538C293.692 483.705 295.429 483.89 296.644 482.922Z" fill="#43E8FE"/>
<path d="M205.814 344.702C205.783 343.181 204.569 341.983 203.078 341.998C201.587 342.029 200.403 343.273 200.434 344.779C200.465 346.284 201.679 347.498 203.17 347.467C204.661 347.436 205.845 346.207 205.814 344.687V344.702ZM206.152 366.607C206.122 365.086 204.907 363.888 203.416 363.903C201.925 363.934 200.742 365.178 200.772 366.684C200.803 368.189 202.017 369.403 203.508 369.372C205 369.341 206.183 368.097 206.152 366.592V366.607ZM205.983 355.654C205.953 354.134 204.738 352.936 203.247 352.951C201.756 352.982 200.572 354.226 200.603 355.731C200.619 357.237 201.848 358.45 203.339 358.419C204.83 358.389 206.014 357.16 205.999 355.639L205.983 355.654Z" fill="#43E8FE"/>
<path d="M326.955 554.183L326.079 594.199L267.114 566.364L267.283 530.342L326.955 554.183Z" fill="#2B354E"/>
<path d="M323.559 556.533L322.591 588.669L269.852 565.197L270.021 535.227L323.575 556.533H323.559Z" fill="url(#paint9_linear_2103_2530)"/>
<path d="M325.602 554.674L324.757 593.492L267.145 567.439L267.283 531.079L325.618 554.69L325.602 554.674Z" fill="#303D5D"/>
<path opacity="0.5" d="M323.543 556.963L322.59 589.083L269.835 565.627L270.004 535.043L323.543 556.963Z" fill="#6DE4FF"/>
<path d="M326.08 594.06L282.256 619.514L224.274 589.882L235.142 584.137L267.161 567.209L326.08 594.06Z" fill="#2B354E"/>
<path d="M323.82 593.83L320.961 595.504L284.607 616.734L281.041 618.823L222.015 589.667L232.882 583.922L266.208 567.593L323.804 593.845L323.82 593.83Z" fill="#303D5D"/>
<path d="M317.856 594.276L266.392 570.45L244.396 582.125L295.644 607.133L317.856 594.26V594.276Z" fill="#2F557D" stroke="#2B354E" stroke-width="0.44" stroke-linejoin="round"/>
<path d="M275.047 601.603L257.139 592.847L247.439 597.64L265.593 606.672L275.047 601.603Z" fill="#2F557D" stroke="#2B354E" stroke-width="0.06" stroke-linejoin="round"/>
<g opacity="0.17">
<path d="M323.543 557.409L322.514 585.197L276.123 616.38L249.96 597.286L249.007 596.595L220.616 575.888L241.844 524.827L323.543 557.409Z" fill="url(#paint10_linear_2103_2530)"/>
</g>
<path d="M221.215 590.85C221.215 590.85 221.246 590.911 221.307 590.988C221.369 591.05 221.43 591.096 221.445 591.096C240.89 600.773 260.351 610.466 279.795 620.144C279.795 620.144 279.765 620.082 279.703 620.005C279.642 619.944 279.565 619.898 279.55 619.898C260.105 610.22 240.66 600.527 221.215 590.85Z" fill="#C9F9FF"/>
<path d="M170.522 541.986L169.984 581.956L114.462 553.722L114.37 517.73L170.522 541.986Z" fill="#2B354E"/>
<path d="M167.355 544.321L166.679 576.411L117.014 552.585L116.952 522.631L167.355 544.306V544.321Z" fill="url(#paint11_linear_2103_2530)"/>
<path d="M169.259 542.478L168.737 581.249L114.491 554.797L114.353 518.468L169.259 542.478Z" fill="#303D5D"/>
<path opacity="0.5" d="M167.34 544.751L166.679 576.841L117.014 553.015L116.952 522.462L167.34 544.751Z" fill="#6DE4FF"/>
<path d="M169.984 581.833L129.049 606.949L74.4346 576.933L84.5951 571.28L114.508 554.598L169.984 581.848V581.833Z" fill="#2B354E"/>
<path d="M167.877 581.587L165.202 583.231L131.247 604.184L127.911 606.242L72.3125 576.687L82.473 571.034L113.631 554.951L167.861 581.603L167.877 581.587Z" fill="#303D5D"/>
<path d="M162.267 581.987L113.801 557.823L93.249 569.329L141.515 594.69L162.267 581.987Z" fill="#2F557D" stroke="#2B354E" stroke-width="0.44" stroke-linejoin="round"/>
<path d="M122.146 589.007L105.284 580.128L96.2148 584.859L113.308 593.999L122.146 588.992V589.007Z" fill="#2F557D" stroke="#2B354E" stroke-width="0.06" stroke-linejoin="round"/>
<g opacity="0.17">
<path d="M167.339 545.197L166.586 572.939L123.269 603.769L98.5824 584.506L97.6909 583.799L70.8984 562.908L90.4509 512.047L167.339 545.197Z" fill="url(#paint12_linear_2103_2530)"/>
</g>
<path d="M71.5586 577.885C71.5586 577.885 71.5893 577.962 71.6508 578.023C71.7123 578.085 71.7738 578.116 71.7892 578.116C90.1119 587.931 108.435 597.747 126.742 607.563C126.742 607.563 126.711 607.486 126.65 607.425C126.588 607.363 126.527 607.317 126.512 607.317C108.189 597.501 89.866 587.701 71.5586 577.885Z" fill="#C9F9FF"/>
<path d="M384.016 301.737L388.181 341.368L430.053 306.913L426.764 271.152L384.016 301.721V301.737Z" fill="#2B354E"/>
<path d="M386.768 303.688L390.304 335.485L427.887 306.084L425.135 276.329L386.753 303.688H386.768Z" fill="url(#paint13_linear_2103_2530)"/>
<path d="M385.076 302.09L389.119 340.539L430.13 308.004L426.84 271.89L385.076 302.074V302.09Z" fill="#303D5D"/>
<path opacity="0.5" d="M386.814 304.117L390.35 335.915L427.933 306.514L425.135 276.16L386.814 304.117Z" fill="#6DE4FF"/>
<path d="M388.166 341.261L423.321 361.476L464.301 325.347L455.631 320.892L430.084 307.789L388.166 341.261Z" fill="#2B354E"/>
<path d="M389.826 340.769L392.117 342.09L421.292 358.972L424.151 360.631L465.946 324.855L457.276 320.4L430.806 308.019L389.826 340.754V340.769Z" fill="#303D5D"/>
<path d="M394.361 340.508L430.945 310.907L448.5 319.97L412.177 350.723L394.361 340.508Z" fill="#2F557D" stroke="#2B354E" stroke-width="0.44" stroke-linejoin="round"/>
<path d="M427.179 342.859L439.876 332.106L447.577 335.746L434.726 346.806L427.179 342.859Z" fill="#2F557D" stroke="#2B354E" stroke-width="0.06" stroke-linejoin="round"/>
<g opacity="0.17">
<path d="M386.858 304.563L390.056 332.029L427.654 357.651L445.639 335.669L446.3 334.871L465.822 311.015L445.408 262.765L386.858 304.563Z" fill="url(#paint14_linear_2103_2530)"/>
</g>
<path d="M466.438 325.961C452.665 337.82 438.908 349.679 425.135 361.553C425.135 361.553 425.196 361.645 425.273 361.707C425.365 361.784 425.442 361.83 425.442 361.814C439.215 349.955 452.988 338.081 466.761 326.207C466.761 326.207 466.699 326.13 466.607 326.069C466.515 325.992 466.423 325.946 466.423 325.961H466.438Z" fill="#C9F9FF"/>
<defs>
<linearGradient id="paint0_linear_2103_2530" x1="572.081" y1="405.928" x2="613.592" y2="401.541" gradientUnits="userSpaceOnUse">
<stop stop-color="#1B7BCD"/>
<stop offset="1" stop-color="#1BC4D0"/>
</linearGradient>
<linearGradient id="paint1_linear_2103_2530" x1="571.388" y1="415.31" x2="617.814" y2="401.951" gradientUnits="userSpaceOnUse">
<stop stop-color="#303D5D"/>
<stop offset="1" stop-color="#86E9F0"/>
</linearGradient>
<linearGradient id="paint2_linear_2103_2530" x1="179.281" y1="253.042" x2="180.052" y2="253.042" gradientUnits="userSpaceOnUse">
<stop stop-color="#2B354E" stop-opacity="0.92"/>
<stop offset="1" stop-color="#3388C3" stop-opacity="0.29"/>
</linearGradient>
<linearGradient id="paint3_linear_2103_2530" x1="179.281" y1="253.042" x2="180.052" y2="253.042" gradientUnits="userSpaceOnUse">
<stop stop-color="#2B354E" stop-opacity="0.92"/>
<stop offset="1" stop-color="#3388C3" stop-opacity="0.29"/>
</linearGradient>
<linearGradient id="paint4_linear_2103_2530" x1="179.645" y1="253.189" x2="179.686" y2="253.189" gradientUnits="userSpaceOnUse">
<stop stop-color="#2B354E" stop-opacity="0.92"/>
<stop offset="1" stop-color="#3388C3" stop-opacity="0.29"/>
</linearGradient>
<linearGradient id="paint5_linear_2103_2530" x1="194.157" y1="221.145" x2="194.198" y2="221.145" gradientUnits="userSpaceOnUse">
<stop stop-color="#2B354E" stop-opacity="0.92"/>
<stop offset="1" stop-color="#3388C3" stop-opacity="0.29"/>
</linearGradient>
<linearGradient id="paint6_linear_2103_2530" x1="226.883" y1="171.129" x2="226.923" y2="171.129" gradientUnits="userSpaceOnUse">
<stop stop-color="#2B354E" stop-opacity="0.92"/>
<stop offset="1" stop-color="#3388C3" stop-opacity="0.29"/>
</linearGradient>
<linearGradient id="paint7_linear_2103_2530" x1="240.918" y1="189.639" x2="240.958" y2="189.639" gradientUnits="userSpaceOnUse">
<stop stop-color="#2B354E" stop-opacity="0.92"/>
<stop offset="1" stop-color="#3388C3" stop-opacity="0.29"/>
</linearGradient>
<linearGradient id="paint8_linear_2103_2530" x1="299.77" y1="135.937" x2="299.811" y2="135.937" gradientUnits="userSpaceOnUse">
<stop stop-color="#2B354E" stop-opacity="0.92"/>
<stop offset="1" stop-color="#3388C3" stop-opacity="0.29"/>
</linearGradient>
<linearGradient id="paint9_linear_2103_2530" x1="339.585" y1="561.971" x2="285.6" y2="563.923" gradientUnits="userSpaceOnUse">
<stop stop-color="#1B7BCD"/>
<stop offset="1" stop-color="#1BC4D0"/>
</linearGradient>
<linearGradient id="paint10_linear_2103_2530" x1="322.027" y1="571.892" x2="260.256" y2="559.853" gradientUnits="userSpaceOnUse">
<stop stop-color="#303D5D"/>
<stop offset="1" stop-color="#86E9F0"/>
</linearGradient>
<linearGradient id="paint11_linear_2103_2530" x1="187.523" y1="549.846" x2="137.21" y2="551.401" gradientUnits="userSpaceOnUse">
<stop stop-color="#1B7BCD"/>
<stop offset="1" stop-color="#1BC4D0"/>
</linearGradient>
<linearGradient id="paint12_linear_2103_2530" x1="180.87" y1="559.331" x2="123.342" y2="548.785" gradientUnits="userSpaceOnUse">
<stop stop-color="#303D5D"/>
<stop offset="1" stop-color="#86E9F0"/>
</linearGradient>
<linearGradient id="paint13_linear_2103_2530" x1="398.969" y1="308.815" x2="440.48" y2="304.427" gradientUnits="userSpaceOnUse">
<stop stop-color="#1B7BCD"/>
<stop offset="1" stop-color="#1BC4D0"/>
</linearGradient>
<linearGradient id="paint14_linear_2103_2530" x1="398.274" y1="318.196" x2="444.699" y2="304.837" gradientUnits="userSpaceOnUse">
<stop stop-color="#303D5D"/>
<stop offset="1" stop-color="#86E9F0"/>
</linearGradient>
</defs>
</svg>
