<svg xmlns="http://www.w3.org/2000/svg" fill="none" viewBox="0 0 400 400"><g filter="url(#a)"><path fill="#7D98DB" fill-opacity=".25" d="M45.58 162.1c41.17-42.37 131.58-13.94 156.02-24.74 24.44-10.8 74.02-34 108.5-19.68 34.47 14.31 40.32 57.55 42.9 75.73 2.58 18.17 35.34 48.15 20.88 79.33-14.46 31.18-103.33 75.45-186.53 76.82-83.2 1.37-100.06-43.48-146.26-71.36-46.2-27.87-36.69-73.73 4.49-116.1Z"/></g><path fill="#252E46" d="M54.93 136.63H86.3v43.42l-14.11-.11.04 15.79 14.07.23V228l-14.23-.1.08 15.99 14.15.1v60.46l-30.44-4.38-.27-56.15-11.77.06-.02-16.2h11.7l-.15-31.95-11.7-.08.17-15.78 11.55.17-.45-43.52Z"/><path fill="#fff" d="m54.93 136.61-.01.01.01.02h31.13c.06 0 .15-.03.2.03.06.07.03.21.03.3v6.44l-.02 18.66v13.23l-.01 3.4v1.01c0 .08.02.21-.03.28-.02.03-.1.02-.13.02l-.24-.01h-.44l-2.43-.03-8.15-.08-1.99-.01h-.44c-.08 0-.17-.02-.24.04-.06.07-.05.18-.05.27v2.95l.01 9.14v3.2c0 .11-.02.25.1.31.06.04.14.03.21.03l.22.01.61.01 1.95.04 7.78.15 2.16.03.76.01.17.01h.04l.04.01v2.37l-.01 4.76-.03 14.02-.01 7.27v3.31h-1.46l-3.87-.04-6.43-.06h-1.14l-.38-.01h-.38c-.17 0-.37-.03-.5.1-.14.13-.1.43-.1.6v.5l.01 2.75.04 8.5v3.24c0 .13-.01.38.03.51.11.3.64.22.87.22l2.21.02 8.4.07 2.21.02h.43v6.37l-.01 13v40.56l-.2-.03-.7-.1-2.14-.3a15789.03 15789.03 0 0 0-20.22-2.9l-4.52-.66c-.73-.1-1.45-.22-2.18-.3v-2.76c-.03-3.1-.04-6.21-.06-9.31l-.2-33.32-.06-8.3v-1.88c0-.2.01-.43-.2-.52-.11-.04-.24-.03-.35-.03h-1.87l-5.4.05-2.86.01h-.32l-.63.01h-.17v-4.65l-.04-8.57v-2.69c.06-.02.16-.01.23-.01h2.39l6.21-.02h2.43c.14 0 .33.02.4-.12.03-.07.02-.15.02-.23v-.73l-.02-1.62-.04-6.25-.1-15.62-.03-5.13v-1.5l-.01-.64v-.14c-.03-.17-.3-.12-.42-.12h-.37l-1.46-.01h-.36l-6.94-.04h-1.83c-.08 0-.3.03-.32-.07-.02-.05-.01-.1-.01-.15v-.48l.02-1.3.04-4.1.03-4.11.03-2.37.01-1.48v-.86l.01-.42v-.21c0-.05 0-.11.02-.15.05-.08.24-.04.32-.04h.34l.32.01h.62l1.08.03 1.77.02 3.23.05 2.91.04h.62c.05 0 .25.02.3 0h.02v-.86c-.02-.72-.02-1.45-.03-2.18l-.43-40.47.3 29.1.1 9.75.03 3.21v1.43h-.6l-.93-.02-3.48-.05-4.9-.08h-.6l-.33-.01h-.34c-.1 0-.24-.04-.32.02-.07.04-.05.13-.05.2l-.01.21v.64l-.03 2.64-.1 8.03-.02 2.66c0 .42-.04.85-.02 1.28 0 .19.27.15.4.15h.36l1.47.01h.36l6.94.06 1.83.01c.07 0 .29-.02.32.04v2.49l.03 6.48.05 15.39.01 5.14v1.64c0 .2.03.41 0 .62h-2.86l-6.52-.01h-1.86c-.12 0-.26-.03-.37.03-.16.09-.12.37-.12.52v15.72c.06.21.29.2.47.2h1.9l6.78-.03h2.6c.02.57 0 1.14 0 1.7v3.02l.04 9.36.1 28.4.04 10.12.01 2.5v.43c0 .19-.03.46.11.6.13.12.41.12.58.15l.24.03.23.04.24.03 2.85.41 11.42 1.65 11.41 1.64 2.62.39.24.03.24.03c.18.03.46.11.62 0 .19-.14.14-.45.14-.65v-47l-.01-9.92v-2.59c0-.22.05-.55-.17-.67-.13-.08-.38-.05-.51-.05h-.44l-1.55-.02-6.41-.03-3.98-.03h-1.11v-1.28l-.01-2.25-.05-8.24-.02-2.75v-1.04h.92l.39.01 3.98.02 6.7.04h1.37c.19 0 .7.09.8-.15.05-.09.04-.19.04-.28v-2.25l-.02-6.26-.03-15.78v-5l-.02-1.76c0-.2.03-.46 0-.67-.04-.23-.31-.21-.5-.22h-.38l-1.13-.01-6.5-.1-3.7-.05-1.34-.02h-.51s-.04-.02-.04 0v-3.12l-.04-6.41-.02-4.2v-1.89c.01-.03.1-.01.13-.01h.68l2.42.02 8.16.05 1.99.01h.44c.08 0 .17.03.23-.05s.03-.22.03-.33v-4.41l-.02-13.57-.01-18.66v-6.1c0-.1.02-.23-.04-.3-.05-.07-.15-.05-.21-.05H54.93Z"/><path fill="#2B354E" fill-opacity=".99" d="M86.3 136.36h7.78l23.84-35.68 25.98 35.68-.33 154.9-57.27 13.16v-60.38l-14.26-.1.01-15.98 14.25.11V195.9l-14.19-.19.02-15.94 14.17.1v-43.5Z"/><path fill="#F1D244" d="M117.96 100.74c-.1-.06-.17.1-.22.17l-.32.48-1.6 2.4-6.18 9.25-11.32 16.97-2.81 4.22 3.5-5.26 12.75-19.05 4.56-6.83 1.13-1.68.16-.24.18-.26c.03-.05.06-.13.11-.15.07-.02.14.11.17.16l.23.32.4.54 2.2 3.02 9.57 13.19 9.54 13.14 2.79 3.83.7.96.17.24c.05.08.14.13.17.22s0 .19 0 .28v.3l-.02.9v2.95l-.04 10-.14 33.03c-.09 23.83-.17 47.66-.23 71.5l-.07 23.95c0 2.69 0 5.38-.02 8.07v3.69h-.03l-.22.06-.68.15-3.13.73-8.05 1.85a80934.4 80934.4 0 0 0-40.04 9.22l-3.36.76-1.12.27-.15.03v-6.07l-.02-12.73c0-12.82-.02-25.64-.05-38.45v-2.37c0-.17.05-.48-.1-.6-.12-.08-.38-.05-.5-.05h-.82l-1.12-.01h-1.86l-4.74-.04-3.38-.02h-1.76v-5.35l-.02-6.98v-2.25c0-.37-.03-.75 0-1.12h1.14l2.09.02 8.22.04 1.91.01h.39c.14.01.33.04.43-.08.06-.07.04-.17.04-.26v-7.04c-.02-6.12-.03-12.23-.03-18.35l-.01-4.77v-1.52c0-.07.01-.17-.04-.24-.05-.07-.16-.06-.24-.06h-.66l-2-.03-8.2-.1-2.43-.02h-.44c-.05 0-.15.02-.18-.03s-.01-.14-.01-.2v-15.43c0-.06-.02-.16.02-.2.04-.05.13-.03.18-.03l.44.01h.23l1.99.01 8.19.05 2.44.02h.67c.03-.03 0-.2 0-.23v-2.63l-.01-40.65v29.1l-.01 9.74v4.54c0 .03-.03.13 0 .11h-.65l-.89-.01-3.1-.03-7.3-.04-1.78-.02h-.22c-.1 0-.22-.02-.24.1-.03.21 0 .46 0 .66v1.5l-.01 4.23v4.48l-.01 2.25v2.48c0 .08-.02.2.05.26.05.04.13.03.2.03h.44l.44.01.89.02 1.33.01 2.43.03 4.22.06 3.1.05h.88c.05 0 .14-.01.17.03.03.03.01.11.01.16v5.06l-.03 14.58v9.05l-.01 2.26v.75l-.01.14c-.02.03-.23.02-.28.02l-.77-.01-2.19-.02-8.2-.08-2.06-.02h-.21c-.12 0-.39-.04-.49.06-.08.08-.07.2-.07.3v1.5l-.02 4.49c0 2.5 0 5-.02 7.49v1.74c0 .18-.05.5.13.6.12.07.27.05.4.05h.38l1.92.03 6.3.05 4.02.04h.82l.26.01v6.67l-.02 13.2-.03 29.96v9.91c0 .16-.05.43.05.57.16.2.47.08.68.03l.22-.05 2.47-.56 9.84-2.26 32-7.35 8.94-2.05 2.46-.57.23-.05.22-.05c.14-.04.39-.07.5-.17.2-.16.14-.48.14-.7v-.26l.01-2.09.01-8.58.07-36.2c.03-24.98.04-49.95.05-74.92v-32.03c0-.1.03-.21 0-.32-.03-.1-.12-.17-.19-.26l-.17-.24-.7-.95-2.44-3.35-8.06-11.03-10.64-14.58-2.65-3.64-.78-1.07-.2-.27c-.05-.07-.1-.17-.17-.21ZM86.3 136.38h2.19l3.4-.01h1.94c.08 0 .16 0 .23-.03-.07.03-.16.02-.23.02H91.9l-5.59-.01-.01.01.01.01Zm7.76-.05c.09-.05.14-.16.2-.24l.19-.28.18-.27.7-1.06-.89 1.33-.18.27c-.06.09-.11.2-.2.25Z"/><path fill="#252E46" d="m143.82 201.32 29.13 1.36 1.82 83.47-30.83-4.6-.12-80.23Z"/><path fill="#2B354E" d="m172.95 202.74 2.1-.16 1.03-.08 4.37-.35 5.79-.45 5.82-.46 11.66-17.2 12.44 17.2 12.01-.32-.28 74.98-53.08 10.19-1.86-83.35Z"/><path fill="#2B354E" d="m232.55 202.48-4.24-.13-.02-1.07-12.19-.13-12.32-17.03-11.8 18.7-19.6.9-1.03 1.67-27.53-1.23v-27.17l16.77-12.53 43.22-.33 28.74 38.35Z"/><path fill="#21283B" d="m79.93 100.6-34.29 43.23 43.47.73 30.53-45.33-39.7 1.38Z"/><path fill="#F1D244" d="M119.64 99.15h-.15l-.45.02-1.84.07a5572.53 5572.53 0 0 1-27.26 1.02l-10 .35 3.72-.13 6.5-.22 20-.66 7.2-.22 1.5-.05.53-.01h.1l-.06.07-.27.4-.41.61-1.44 2.12-4.5 6.6a9526.16 9526.16 0 0 0-15.92 23.44l-5.3 7.86-1.77 2.6-.58.87-.23.35-.04.05-.02.03c.09-.06-.08-.03-.12-.03h-.3l-.88-.02-2.33-.04-7.46-.12c-7.4-.12-14.82-.24-22.23-.34l-6.76-.08-2.22-.02-.64-.01.23-.3.23-.3 1.37-1.74 5.92-7.55a6376.9 6376.9 0 0 1 17.57-22.3l5.82-7.35-6.02 7.57c-5.77 7.25-11.56 14.5-17.37 21.74l-6.17 7.69-1.62 2.02-.23.3c-.1.1-.24.24-.2.4.05.2.27.17.44.18h.33l.98.02.32.01.64.02 7.6.16c7.62.15 15.23.28 22.85.41l7.2.12 2.32.05h.3c.16 0 .41.03.58-.01.27-.06.44-.42.58-.63l.11-.17 1.14-1.69 4.36-6.49a8723.16 8723.16 0 0 0 23-34.4l.4-.62.41-.61.2-.3.28-.42c.05-.07.1-.13.13-.2v-.01c-.01-.04-.05-.07-.07-.11Zm-39.7 1.46v-.01h-.02l-1.05 1.33-1.72 2.18 2.8-3.5h-.01Z"/><g filter="url(#b)"><path fill="#384463" fill-opacity=".96" d="m95.72 198.2 15.73.06-.04 26.45-15.54.42-.15-26.92Z"/></g><g filter="url(#c)"><path fill="#384463" fill-opacity=".96" d="m96.01 147.46 15.74.05-.52 26.49-15.22.14v-26.68Z"/></g><g filter="url(#d)"><path fill="#384463" fill-opacity=".96" d="m120.36 147.26 15.73.05-.37 26.66-15.36-.03v-26.68Z"/></g><g filter="url(#e)"><path fill="#384463" fill-opacity=".96" d="m120.43 198.02 15.74.05-.04 26.45-15.7.18v-26.68Z"/></g><g filter="url(#f)"><path fill="#466882" fill-opacity=".47" d="m206.18 240.54 17.9-.06-.02 15.3-5.55.23-.8.03-11.59.5.06-16Z"/></g><path fill="#2B354E" d="m241.64 275.84 62.07 11.71 1.36-138.63-20.7-.31-.08-20.34-23.46-.4-.57 20.01h-19.6l.98 127.96Z"/><path fill="#fff" d="M260.9 127.65c-.38.06-.31.54-.32.82v.3l-.01.3v.28l-.03.55v.53c-.1 3.13-.18 6.25-.26 9.38l-.14 5.38-.05 1.88-.02.61h-2.26l-4.3.01-9.8.02h-2.77l-.32.01-.12.16v.26l.01.75.03 3.25.11 11.44.44 44.78.56 67.46-.17-22.48c-.11-14.82-.21-29.65-.3-44.48-.1-13.53-.17-27.07-.25-40.61l-.07-13.73c0-1.48-.02-2.95-.03-4.42v-2.06h1.67l5.21.02 9.5.01 2.45.01h.3c.16 0 .33.01.44-.12.08-.1.08-.22.08-.34v-.27l.02-.27v-.27l.1-2.95.32-11.28.1-3.22.03-1.17v-.1c.98 0 1.96.04 2.94.06l5.93.1 6.31.13 3.34.05 2.03.04 1.3.02.68.01.48.01v1.67l.01 1.1v2.16l.02 3.36.02 5.97.02 4.32v.91c0 .2-.06.6.11.76.16.16.5.1.7.11h.28l.27.01 2.23.04 10.43.16 4.54.07 1.44.02h.62l.07.02v.55l-.02 1.36-.05 6.22a22796.64 22796.64 0 0 0-.58 66.07l-.37 48.47-.09 11.91-.02 2.98-.01.54c0 .05.02.18-.02.2-.03.03-.1 0-.13 0a7.4 7.4 0 0 0-.22-.05l-.62-.11-2.92-.55a23213.9 23213.9 0 0 1-42.86-8.06c-3.34-.63-6.67-1.25-10-1.89-1.12-.2 0 0-5.26-1l-.02.01.02.02 2.13.4 3.34.63 10.11 1.9 31.33 5.93 11.4 2.17 2.71.51.42.09.2.03.21.05c.07 0 .15.04.2 0 .08-.06.07-.2.07-.28v-.81l.03-2.7.14-11.92.58-48.2c.22-17.86.42-35.74.6-53.6l.15-15.17.05-4.33v-1.35a.65.65 0 0 0-.02-.31c-.14-.3-.6-.22-.85-.23h-.3l-2.75-.05-12.37-.19-3.25-.04-1.11-.02h-.04v-2.88l-.03-5.43-.02-5.03-.01-2.93-.01-1.63v-1.65c0-.19.03-.51-.1-.66-.14-.15-.33-.14-.51-.14h-.36l-.35-.01-.67-.01-.97-.02-2.02-.03-3.55-.06-5.73-.1-6.3-.1c-.74 0-1.48-.02-2.21-.03h-.32l-.32-.01h-.24Z"/><path fill="#26304A" d="m303.26 288.45 32.34-12.78.34-124.98-30.66-1.66-2.02 139.42Z"/><path fill="#26304A" d="m284.7 128.47 27.34 4.24-.1 16.68-27.24-1.06v-19.86Z"/><path fill="#252E46" d="m239.55 239.88-7.09 7.13-.02 1.96 55.67 5.79v-2.39l15.78-7.73-64.34-4.76Z"/><path fill="#F1D244" d="m239.54 239.88-3.53 3.56-2.03 2.04-1.34 1.33-.1.14c.15-.18.33-.34.5-.51l.95-.96 5.57-5.59v-.01h-.02Zm-7 7.07-.08.07c-.03.09-.01.24-.01.31v.47l-.01.44v.52c-.01.06-.02.14.02.19.04.05.13.04.2.05l.22.02.2.02.43.05.84.1 1.83.19 1.16.12 5.02.54 10.45 1.15c8.14.9 16.29 1.8 24.44 2.67l7.47.8 2.24.23.38.04.37.04c.12.01.25.04.38.02.37-.06.27-.58.27-.84v-1.62h.02l.08-.05.24-.12.69-.34 3.51-1.71 4.99-2.45 2.93-1.44 1.48-.73 1.27-.63.21-.1c.07-.04.18-.07.23-.12.03-.03.1-.05.08-.09-.03-.13-.12-.23-.19-.35l-.18-.01-.43-.03-.5-.04-.83-.06-4.94-.35c-4.73-.34-9.46-.66-14.19-.98-5.57-.38-11.14-.75-16.7-1.14-5.97-.41-11.94-.84-17.9-1.27l-5.29-.39a5376.73 5376.73 0 0 1 23.18 1.77l16.46 1.31 15.04 1.19 4.3.33 1.06.08-.9.44-2.92 1.43c-3.19 1.56-6.38 3.11-9.56 4.68l-.66.32-.46.23c-.15.07-.41.17-.52.3-.15.18-.1.47-.1.68v1.59h-.1l-.37-.05-.37-.04-2.24-.23-10.51-1.07c-9.18-.92-18.36-1.79-27.55-2.7l-6.78-.67-2.2-.23-1.56-.15-2.03-.2-.84-.1-.43-.04-.22-.02c-.05 0-.15 0-.18-.05-.04-.04-.02-.12-.02-.17v-1.52c.01-.11 0-.2.07-.29Z"/><path fill="#252E46" d="m254.14 267.26 33.75 4.06.23 21.27-34.98-6.87 1-18.46Z"/><path fill="#F1D244" d="m254.14 267.24-.02.02h.02l2.26.27 4.92.6c5.12.63 10.24 1.27 15.35 1.93l7.35.95 2.49.33.9.11.23.03h.05v.15l.01.34v1.8l.03 4.67.08 9.38.04 3.06.01 1.4c-.08 0-.16-.02-.24-.04l-1.55-.3-3.92-.76c-4.01-.78-8.03-1.56-12.04-2.32l-7.03-1.32-4.29-.8-2.35-.45-1.4-.27-.95-.17-.47-.09-.3-.06-.1-.02h-.03v-.05l.01-.05v-.14l.01-.17.02-.34.03-.57.04-.9.08-1.54.13-2.59.63-12.06c-.42 7.5-.27 5.03-.42 7.54l-.25 4.52-.17 2.83-.09 1.49-.05 1-.04.5-.01.29c0 .08-.06.23 0 .32.01.02.22.05.26.06l.23.04.24.05.23.05.47.1.94.19 1.87.38c1.02.2 2.03.42 3.05.63l5 1.03a2477.9 2477.9 0 0 0 19.35 3.9l2.51.5c.09 0 .18.03.27.05.2.04.52.15.7.02.2-.15.14-.53.14-.74v-.57l-.01-.29v-.28l-.01-.57-.08-6.64a1520 1520 0 0 0-.07-5.23l-.05-3.08-.03-1.88-.02-1.2v-.31l-.01-.33c0-.17 0-.37-.15-.48-.11-.07-.36-.07-.48-.08l-.23-.03-.45-.05-.91-.1-1.36-.16-2.27-.25-3.9-.43a2123.35 2123.35 0 0 1-18.4-2.11l-5.8-.7Z"/><path fill="#26304A" d="m288.18 271.28 15.26-1.99.28 18.98-15.66 4.73.06-.02.06-21.7Z"/><path fill="#F1D244" d="m303.22 269.22-.2.04-.2.02-.42.06-.61.1c-.41.05-.82.1-1.23.17l-2.2.3-3.76.52-6.42.84-.01.01h.01v.01l1.55-.2 2.36-.31c2.6-.34 5.19-.66 7.78-.97l2.35-.28.82-.1c.07 0 .15 0 .22-.02h.06l.02-.01c.02.14 0 .35 0 .48v4.29a1036.9 1036.9 0 0 0 .1 12.57l.02 1.02v.32c-.43.12-.85.26-1.28.39l-2.7.81a1066.67 1066.67 0 0 0-10.74 3.33l-.45.14v-.2l-.02-1.17c-.02-1.86 0-.02-.09-20.1-.13 15.13-.05 10.1-.12 15.15l-.07 4.33-.03 1.56v.65c0-.05.04-.07.07-.1l.09.28h.02l.02-.01.12-.03.32-.1.98-.28a1117.74 1117.74 0 0 0 11.52-3.41l1.96-.59.25-.07c.14-.05.4-.1.52-.2.2-.16.14-.48.13-.7v-.52l-.01-.5v-.52a1080.13 1080.13 0 0 0-.24-10.93l-.08-2.62-.04-1.45-.02-.79-.02-.55v-.3c-.01-.11.01-.28-.1-.35-.07-.04-.16-.02-.23 0Z"/><path fill="#8CC2EE" fill-opacity=".37" d="M249.82 155.84h16.1v20.23h-16.1v-20.23Zm-.32 28.09h16.1v20.23h-16.1v-20.23Zm28.49-28.01h16.1v20.24H278v-20.24Zm-.49 28.18h16.1v20.23h-16.1v-20.24Zm-28.41 28.41h15.8l.05 20.92-15.85-.69v-20.23Zm28.34-.23h16.1l.12 21.64-16.02-.64-.2-21Z"/><path fill="#21283B" fill-opacity=".91" d="m103.9 299.93.13-46.64 20.94-.86-.11 42.7M44.37 228.2h27.68v15.78H44.37V228.2Zm-.49-48.15h27.89v15.64l-28.05.07.16-15.7Z"/><g filter="url(#g)"><path fill="#384463" fill-opacity=".96" d="M110.02 125.6a7.91 7.91 0 0 1 7.79-8.03 7.9 7.9 0 0 1 7.78 8.03 7.91 7.91 0 0 1-7.78 8.03c-4.3 0-7.79-3.6-7.79-8.03Z"/></g><g filter="url(#h)"><path fill="#364771" fill-opacity=".92" d="m180.87 242.63 19.7-.62.18 38.83-19.56 3.73-.32-41.94Z"/></g><path fill="#1C2438" fill-opacity=".9" d="m243.83 276 .2-20.1 8.14.5-.13 21.36"/><path fill="#2B354E" fill-opacity=".73" d="m101.32 311.92 126.85-28.1 59.78 11.66-95.07 33.83-91.56-17.39Z"/><path fill="#2B354E" d="M159.1 153.7h13.23v30.29H159.1v-30.3Z"/><path fill="#F1D244" d="M171.92 153.65h-.62l-2.28.02-9.92.01-.01.01.01.02 3.3-.01c2.21 0 4.42 0 6.63.02l2.48.02h.61c.04 0 .12-.01.15.02s.01.1.01.15v.26l-.01 1.18-.05 4.26a1859.02 1859.02 0 0 0-.15 22.72l.01 1.4h-3.47l-6.82.03-1.86.02h-.63v-1.08l-.03-2.75c-.04-3.93 0-.03-.17-26.23-.05 14.87-.01 9.93-.05 14.9-.03 3.78-.08 7.56-.12 11.33l-.02 3.13-.01.68c0 .03-.02.22 0 .24l.13.2c.02.01.24 0 .28 0l.62.01h1.65l8.06.04h2.07c.22 0 .68.07.82-.17.09-.14.06-.4.06-.56v-5.91a1729.32 1729.32 0 0 0-.2-22.25v-1.42c-.01-.08 0-.18-.05-.24-.06-.06-.15-.04-.22-.04h-.2Z"/><path fill="#2B354E" d="M156.47 153.6h18.28v2.55h-18.28v-2.56Z"/><path fill="#2B354E" fill-opacity=".62" d="M172.53 103.68s-21.7 1.73-20.02-8.47c1.67-10.2 19.9-7.16 19.9-7.16s1.3-17.66 15.6-15.95c14.3 1.71 12.08 12.03 12.08 12.03s24.5-4.67 28.3 5.87c3.8 10.54-24.4 13.5-24.4 13.5l-31.46.18Zm-107.3 15.46s-5.46-8.58-11.56-8.53c-6.1.06-12.83 8.75-12.83 8.75s-13.37-1.33-15.98 2.81c-2.62 4.14 15.38 5.84 15.38 5.84l17.68.35 7.31-9.22Zm250.54-18.79c-13.14-.5-14.65 8-14.65 8s-17.17.38-25.23 3.25c-8.07 2.87-14.03 5.15-7.03 8.21 7 3.06 35.04 4.04 35.04 4.04l35.83.02s18.72.7 15.9-8.7c-2.82-9.4-24.13-3.9-24.13-3.9s-2.59-10.43-15.73-10.92Z"/><path fill="#26304A" d="M42.27 303.96c0-4.36 4.96-4.35 11.04-4.35 6.08 0 10.98 0 10.98 4.35 0 1.46-4.89 8.04-4.89 8.04l-11.26-.1s-5.87-4.93-5.87-7.94Z"/><path fill="#364771" d="M45.16 272.78c-.73-8.33 1.06-15.6 4.02-16.24 2.95-.65 5.95 5.58 6.68 13.91.74 8.33-1.06 15.6-4.02 16.25-2.95.64-5.94-5.59-6.68-13.92Z"/><path fill="#F1D244" d="M49.48 256.34c-.17.02-.35.05-.52.11a3.3 3.3 0 0 0-1.55 1.23 9.7 9.7 0 0 0-1.4 3.02 5.84 5.84 0 0 0-.3 1.59 17.83 17.83 0 0 1 .9-2.79c.12-.27.25-.54.4-.8.5-.9 1.27-1.93 2.37-2.05 1.23-.13 2.24 1.01 2.86 1.93a9.5 9.5 0 0 1 .77 1.34 22.73 22.73 0 0 1 1.62 4.6c.57 2.29.9 4.63 1.06 6.99.15 2.3.13 4.61-.13 6.9a21.76 21.76 0 0 1-1 4.7c-.1.3-.22.59-.35.88-.45 1.02-1.2 2.33-2.4 2.6-1.32.31-2.45-.88-3.14-1.85a8.94 8.94 0 0 1-.65-1.05c-.92-1.67-2.85-10.87-2.86-10.9 0 .02.14 1.36.23 2.03.26 1.9.64 3.79 1.22 5.62a18.63 18.63 0 0 0 1.96 4.38c.68 1 1.77 2.16 3.1 2.02 1.39-.15 2.3-1.58 2.84-2.72a11.48 11.48 0 0 0 .6-1.55c.53-1.62.82-3.3.99-4.99a38.79 38.79 0 0 0-1.48-14.85 17.55 17.55 0 0 0-1.72-3.87l-.51-.75c-.7-.9-1.73-1.85-2.91-1.77Zm-4.32 16.45h.02l-.02-.2-.01.2h.01Zm0-.2c.54-7.54.5-9.38.56-10.3a25.2 25.2 0 0 0-.39 2.08c-.3 2.1-.38 4.24-.3 6.35.03.63.03.43.13 1.87Z"/><path fill="#364771" d="M56.83 284.37c1.87-6.77 5.62-11.64 8.37-10.88 2.75.76 3.47 6.86 1.6 13.63-1.87 6.77-5.62 11.64-8.37 10.88-2.75-.76-3.47-6.86-1.6-13.63Z"/><path fill="#F1D244" d="M64.86 273.29c-.25-.02-.5 0-.75.05a3.7 3.7 0 0 0-.97.38c-.5.28-.95.64-1.35 1.04a15.34 15.34 0 0 0-2.77 3.92 6.3 6.3 0 0 0-.42.96c.1-.2.18-.41.29-.62a18.09 18.09 0 0 1 2.41-3.57c.19-.2.38-.4.59-.59 1-.93 2.55-1.87 3.87-.95.2.13.37.3.52.48.22.27.4.56.54.87.24.53.4 1.1.52 1.66.3 1.5.32 3.04.21 4.55a29.4 29.4 0 0 1-1.23 6.41 27.98 27.98 0 0 1-2.1 5.13 16.84 16.84 0 0 1-2.36 3.35c-.95.99-2.47 2.1-3.87 1.34-.21-.11-.4-.26-.57-.42a3.72 3.72 0 0 1-.6-.82 6.77 6.77 0 0 1-.61-1.6 15.44 15.44 0 0 1-.35-4.85c.08-1.26.97-5.62.97-5.63 0 0-.3 1.1-.42 1.66a27.85 27.85 0 0 0-.61 4.34 18.12 18.12 0 0 0 .23 4.24c.31 1.51 1.1 3.51 2.92 3.59a4.1 4.1 0 0 0 1.77-.5 7 7 0 0 0 1.4-1.1 15.25 15.25 0 0 0 2.67-3.7 28.04 28.04 0 0 0 2.48-6.57c.45-1.83.74-3.7.8-5.58a16.4 16.4 0 0 0-.4-4.2c-.36-1.39-1.17-3.13-2.8-3.27Zm-8.03 11.09v-.01h.01l.11-.36-.13.35v.02h.01Zm.12-.37a189 189 0 0 0 1.65-4.37c-.48 1-.9 2.02-1.26 3.07-.15.43-.2.63-.39 1.3Z"/><path fill="#364771" fill-opacity=".92" d="M41.41 290.02c-2.68-5.24-2.83-10.53-.32-11.82 2.5-1.28 6.71 1.93 9.4 7.17 2.68 5.24 2.83 10.53.32 11.81-2.5 1.29-6.71-1.92-9.4-7.16Z"/><path fill="#F1D244" d="M42.49 277.76a2.74 2.74 0 0 0-2.3 1.03c-.2.26-.37.54-.5.84-.2.47-.31.97-.38 1.48-.05.4-.02.62.06.97.07-1.5.5-3.37 2.09-3.87.2-.07.43-.11.65-.12.37-.02.73.03 1.08.13.49.13.94.35 1.37.6a11.9 11.9 0 0 1 2.88 2.47c1.2 1.36 2.18 2.9 2.98 4.52.7 1.4 1.26 2.89 1.61 4.41a13 13 0 0 1 .37 3.06c-.02 1.52-.43 3.5-2.1 3.99-.23.06-.45.1-.68.1-.32.01-.63-.03-.94-.1-.5-.12-.97-.33-1.42-.57-1.04-.57-5.83-6.65-5.84-6.67.01.02 1.72 2.95 2.85 4.24.69.78 1.45 1.52 2.31 2.12 1.34.94 3.28 1.76 4.75.6a2.95 2.95 0 0 0 1.01-1.4c.2-.49.32-1.01.4-1.54.14-1.2.03-2.43-.2-3.62a19.9 19.9 0 0 0-2-5.5 19.8 19.8 0 0 0-2.74-3.96 12.9 12.9 0 0 0-2.38-2.11 6.03 6.03 0 0 0-2.93-1.1Zm-1.07 12.27V290l-.07-.19.05.2.02.01Zm-.07-.2c-1.33-5.65-1.82-7.09-1.98-7.75l-.02.28c-.01.96.11 1.92.31 2.85.35 1.64.08.27 1.69 4.61Z"/><path fill="#1C2438" d="M158.45 262.67h5.66v48.97s-1.47.85-2.89.85c-1.41 0-2.77-.85-2.77-.85v-48.97Z"/><path fill="#1C2438" d="M152.84 261.39c0-17.63 4.19-31.92 9.35-31.92 5.16 0 9.35 14.29 9.35 31.92 0 17.62-4.19 31.91-9.35 31.91-5.16 0-9.35-14.29-9.35-31.91Z"/><path fill="#FDDF19" d="M162.03 229.43c-1.68.1-2.95 1.64-3.78 2.95a13.7 13.7 0 0 0-.93 1.7 21.5 21.5 0 0 0-1.1 2.67c-.28.8-.41 1.2-.52 1.73a38.03 38.03 0 0 1 1.41-3.84 20.42 20.42 0 0 1 1.19-2.23c.84-1.32 2.17-2.9 3.9-2.9 1.72 0 3.02 1.59 3.86 2.91a15.72 15.72 0 0 1 1.43 2.81c.21.51.4 1.02.6 1.55 1.2 3.4 1.91 6.98 2.42 10.54.72 5.02 1 10.1.95 15.16a98.3 98.3 0 0 1-1.08 13.88 50.86 50.86 0 0 1-2.52 10.28 27.17 27.17 0 0 1-1.25 2.8c-.17.3-.35.62-.54.92-.87 1.37-2.24 3-4.04 2.9-1.65-.08-2.92-1.61-3.74-2.9a14.54 14.54 0 0 1-.93-1.68 24.43 24.43 0 0 1-1.1-2.67c-1.21-3.4-3.42-24.62-3.42-24.62s.03 2.89.1 4.33c.14 3.87.5 7.74 1.13 11.56.52 3.07 1.2 6.13 2.27 9.06a27.38 27.38 0 0 0 1.37 3.12c.17.32.35.63.55.93.85 1.36 2.18 2.94 3.93 2.95 1.67 0 2.97-1.45 3.82-2.73a14.08 14.08 0 0 0 .94-1.64 22.8 22.8 0 0 0 1.24-2.94 55.2 55.2 0 0 0 2.5-10.8c.7-4.94.96-9.95.92-14.94-.05-4.8-.4-9.61-1.17-14.35a50.28 50.28 0 0 0-2.48-9.84 28.18 28.18 0 0 0-1.27-2.8 15.9 15.9 0 0 0-.54-.93c-.89-1.4-2.3-3.05-4.13-2.94Zm-9.19 31.96h.01v-.11l-.01.1c0 .01 0 0 0 0Zm.01-.11c2.52-18.32 2.53-21.19 2.85-22.79-.7 2.3-1.21 4.65-1.61 7.01a91 91 0 0 0-1.16 11.56c-.06 1.4 0 .28-.08 4.22Z"/><path fill="#1C2438" fill-opacity=".85" d="M142.2 266.23c-2.83-13.3-.61-25.28 4.94-26.73 5.55-1.46 12.34 8.15 15.17 21.46 2.82 13.3.6 25.28-4.95 26.73-5.56 1.46-12.35-8.15-15.17-21.46Z"/><path fill="#FDDF19" d="M148.36 239.3a4.57 4.57 0 0 0-1.75.32c-.46.19-.88.44-1.27.75a7.34 7.34 0 0 0-1.5 1.65 13.11 13.11 0 0 0-1.86 4.53c.06-.23.1-.46.18-.68.13-.43.27-.85.43-1.27.84-2.16 2.3-4.58 4.73-5.1a4.44 4.44 0 0 1 2.3.09c.7.2 1.37.53 1.99.93.94.62 1.77 1.4 2.51 2.23 1.8 2 3.18 4.35 4.32 6.76a52.23 52.23 0 0 1 3.97 12.3 51.2 51.2 0 0 1 .99 12.72 27.3 27.3 0 0 1-1.43 7.8 12.45 12.45 0 0 1-1.5 2.97 6.9 6.9 0 0 1-1.5 1.58c-.4.28-.82.52-1.28.68-2.73.96-5.4-1-7.17-2.9a19.61 19.61 0 0 1-1.93-2.41l.15.26a22.58 22.58 0 0 0 1.94 2.37c1.6 1.68 3.88 3.35 6.34 2.92a5.2 5.2 0 0 0 2.29-1.1 7.62 7.62 0 0 0 1.48-1.71c.62-.97 1.09-2.03 1.45-3.12.94-2.8 1.28-5.8 1.35-8.75.1-4.36-.43-8.75-1.4-13a51.28 51.28 0 0 0-3.32-10.03 32.94 32.94 0 0 0-3.25-5.68 21.48 21.48 0 0 0-1.94-2.31c-1.4-1.4-3.28-2.76-5.32-2.8Zm.23 42.95c-1.27-1.82-6.4-16.02-6.4-16.02s.5 2.17.78 3.25a50.53 50.53 0 0 0 2.57 7.27 34.37 34.37 0 0 0 3.05 5.5Zm-6.4-16.02v-.04.04Zm0-.04c.13-15.76-.34-18.27-.2-19.64-.12.42-.24.85-.33 1.27a34.59 34.59 0 0 0-.69 6.6c-.04 2.85.2 5.7.62 8.52.17 1.09.02.1.6 3.25Z"/><path fill="#1C2438" fill-opacity=".9" d="M161.72 269.2c3.82-12.81 11.23-22.48 16.54-21.6 5.31.88 6.52 11.97 2.7 24.78-3.82 12.81-11.23 22.48-16.54 21.6-5.32-.88-6.53-11.98-2.7-24.78Z"/><path fill="#FDDF19" d="M177.93 247.51c-.47-.03-.94 0-1.4.1-.64.15-1.25.4-1.83.71a12.91 12.91 0 0 0-3.66 3.09 13.48 13.48 0 0 1 3.51-2.92 7.12 7.12 0 0 1 2-.8 4.53 4.53 0 0 1 2.34.11c2.04.7 3.06 2.96 3.57 4.9a16.2 16.2 0 0 1 .45 2.28 31.55 31.55 0 0 1-.09 8.24c-.4 3.37-1.16 6.7-2.18 9.94a54.44 54.44 0 0 1-5.07 11.58c-1.4 2.35-3 4.63-5 6.5-.8.74-1.67 1.43-2.63 1.95-.62.33-1.29.6-1.98.73-.45.08-.92.11-1.37.06-2.46-.3-3.73-2.71-4.35-4.86a14.86 14.86 0 0 1-.48-2.24 23.5 23.5 0 0 1-.18-1.63c.01.18 0 .35.02.53a21.55 21.55 0 0 0 .47 2.88c.52 2.09 1.6 4.56 3.85 5.24a4.73 4.73 0 0 0 2.22.06 7.22 7.22 0 0 0 2.02-.8c.97-.55 1.86-1.26 2.66-2.03 2.1-2 3.77-4.43 5.21-6.92a55.76 55.76 0 0 0 5.23-12.6c.9-3.2 1.57-6.47 1.85-9.78.18-2.1.22-4.22-.01-6.32a21.02 21.02 0 0 0-.52-2.85c-.55-2.02-1.64-4.35-3.82-5a4.05 4.05 0 0 0-.83-.15Zm-18.35 37.74v-.1.1Zm0-.1c-.14-2.13 2.14-15.94 2.14-15.95 0 0-.6 2.1-.86 3.16a52.06 52.06 0 0 0-1.2 7.05 34.5 34.5 0 0 0-.09 5.75Zm11.46-33.74a31.81 31.81 0 0 0-3.98 5.4 52.43 52.43 0 0 0-4.32 9.25c-.36 1.02-.04.12-1 3.1 7.69-14.07 8.53-16.6 9.3-17.75Zm-9.3 17.75-.03.03.02-.03Z"/><path fill="#1C2438" d="M312.6 264.5h4.03v35.54s-1 .86-2 .86c-1.01 0-2.02-.86-2.02-.86v-35.55Z"/><path fill="#1E2638" d="M306.74 244.1c0-18.3 4.86-33.12 10.85-33.12 6 0 10.85 14.83 10.85 33.12 0 18.3-4.86 33.13-10.85 33.13-6 0-10.85-14.83-10.85-33.13Z"/><path fill="#F1D244" d="M317.4 210.84c-2.1.12-3.7 1.95-4.75 3.6a16.47 16.47 0 0 0-1.2 2.16 43.4 43.4 0 0 0-2.54 7.46 70.83 70.83 0 0 0-1.4 7.65c-.06.49-.05.64-.08.9.23-1.82.5-3.65.86-5.45.6-3.04 1.4-6.07 2.6-8.93a25.97 25.97 0 0 1 1.6-3.21c.2-.33.41-.64.63-.95 1.04-1.44 2.56-2.97 4.47-2.96 2.17.02 3.82 2.02 4.87 3.7a19.99 19.99 0 0 1 1.3 2.51c.24.54.46 1.09.67 1.64a54.26 54.26 0 0 1 2.74 11.06 94.47 94.47 0 0 1 1 16.34c-.11 4.9-.55 9.83-1.48 14.65a46.26 46.26 0 0 1-2.77 9.57 24.18 24.18 0 0 1-1.45 2.81c-1.08 1.75-2.8 3.82-5.06 3.72-2.11-.1-3.73-2.03-4.77-3.67a18.77 18.77 0 0 1-1.2-2.2c-.25-.53-.49-1.06-.7-1.6a54.53 54.53 0 0 1-3.17-12.9c-.4-2.88-.83-12.6-.83-12.63 0 .02.03 2.99.1 4.48.18 4.18.61 8.35 1.4 12.46a48.33 48.33 0 0 0 2.53 8.97 27.62 27.62 0 0 0 1.58 3.25c.2.33.4.65.63.97 1.06 1.52 2.62 3.1 4.6 3.1 2.3.02 4.04-2.01 5.16-3.78a19.15 19.15 0 0 0 1.36-2.53c.25-.54.48-1.09.7-1.64a53.5 53.5 0 0 0 2.84-11.13 92.56 92.56 0 0 0 1.03-16.44 85.46 85.46 0 0 0-1.53-14.71 45.32 45.32 0 0 0-2.88-9.63 19.38 19.38 0 0 0-1.5-2.86c-1.16-1.82-2.99-3.91-5.37-3.78Zm-10.66 33.27.01-.01.01-.68c-.02.4 0 .25-.04.68l.02.01Zm.02-.7c.56-8.98.54-9.63.67-10.8a89.12 89.12 0 0 0-.6 7c-.05 1.27-.03 1.36-.07 3.8Z"/><path fill="#1E2638" fill-opacity=".85" d="M298.74 260.5c-2.35-12.61-.13-23.61 4.96-24.56 5.1-.95 11.12 8.51 13.47 21.12 2.35 12.62.13 23.61-4.96 24.56-5.09.95-11.12-8.5-13.47-21.12Z"/><path fill="#F1D244" d="M304.53 235.73a4.02 4.02 0 0 0-1.65.32c-.42.18-.81.43-1.16.72-.48.4-.9.89-1.24 1.41-.54.8-.95 1.69-1.27 2.6a26.6 26.6 0 0 0-1.37 7.63c-.04.83-.04 1.2-.02 1.62.05-2.07.23-4.14.66-6.17a21.83 21.83 0 0 1 .95-3.25c.85-2.14 2.45-4.67 5.07-4.59.43.02.86.1 1.26.24a6.8 6.8 0 0 1 1.76.95 12.5 12.5 0 0 1 2.23 2.18 28.17 28.17 0 0 1 3.93 6.79 52.6 52.6 0 0 1 3.39 11.71c.58 3.38.89 6.83.8 10.26a32.8 32.8 0 0 1-.7 6.07 22.04 22.04 0 0 1-.78 2.7c-.74 1.97-2.08 4.26-4.36 4.61-.26.04-.52.05-.78.04a4.47 4.47 0 0 1-1.28-.26 6.7 6.7 0 0 1-1.63-.89 12.1 12.1 0 0 1-2.13-1.96c-1.78-2.05-7.47-17.94-7.47-17.95 0 0 .41 2.05.66 3.07.6 2.48 1.36 4.93 2.33 7.29a33.6 33.6 0 0 0 2.83 5.54 22.43 22.43 0 0 0 1.88 2.49c1.43 1.59 3.5 3.24 5.8 2.84a4.58 4.58 0 0 0 1.97-.93c.54-.44 1-.98 1.38-1.57.6-.89 1.04-1.87 1.39-2.88a28.34 28.34 0 0 0 1.33-7.86c.18-4.11-.24-8.24-1.04-12.27a50.5 50.5 0 0 0-3.01-9.94 32.17 32.17 0 0 0-2.92-5.46 22.8 22.8 0 0 0-1.78-2.26c-1.28-1.39-3.06-2.8-5.03-2.84Zm-5.8 24.78.02-.02-.05-.3.02.31h.02Zm-.03-.32c-.58-7.87-.82-9.28-.88-10.16v.05a50.9 50.9 0 0 0 .42 7.3c.13.94.11.68.46 2.8Z"/><path fill="#1E2638" fill-opacity=".63" d="M316.74 259.3c3.2-10.32 8.6-17.8 12.08-16.73 3.48 1.08 3.7 10.31.51 20.62-3.2 10.31-8.6 17.8-12.08 16.72-3.48-1.08-3.7-10.3-.51-20.62Z"/><path fill="#F1D244" d="M328.15 242.34c-.3 0-.59.05-.87.14-.46.13-.9.36-1.3.63-.63.42-1.2.95-1.72 1.5a25.96 25.96 0 0 0-3.9 5.76c-.19.37-.22.5-.31.7.78-1.52 1.65-3 2.67-4.38a20.29 20.29 0 0 1 1.92-2.24c.25-.25.52-.48.8-.7.98-.78 2.39-1.55 3.64-.93a2.95 2.95 0 0 1 1 .92c.27.39.47.82.63 1.27.26.73.4 1.5.5 2.27.3 2.14.17 4.34-.09 6.48-.4 3.4-1.19 6.74-2.23 10a52.88 52.88 0 0 1-3.15 7.74 32.9 32.9 0 0 1-2.64 4.4 20.14 20.14 0 0 1-1.73 2.07 9 9 0 0 1-.79.72c-.96.8-2.34 1.59-3.6 1a2.38 2.38 0 0 1-.47-.3 3.2 3.2 0 0 1-.57-.6 5.3 5.3 0 0 1-.66-1.28c-.28-.74-.44-1.5-.56-2.28a25.55 25.55 0 0 1 0-6.52c.22-2 2-9.38 2.01-9.4 0 .01-.5 1.68-.72 2.53a51.37 51.37 0 0 0-1.22 6.02 33.77 33.77 0 0 0-.34 5.2 21.38 21.38 0 0 0 .27 2.96c.05.3.12.6.2.9.36 1.34 1.11 2.94 2.64 3.19.2.03.4.04.6.03.36-.03.7-.12 1.02-.25.48-.18.91-.45 1.33-.75.6-.43 1.14-.95 1.65-1.5 1.5-1.6 2.69-3.5 3.72-5.43a51.06 51.06 0 0 0 3.89-9.59 50.4 50.4 0 0 0 1.76-8.25c.21-1.72.32-3.46.25-5.19a20.05 20.05 0 0 0-.31-2.74c-.06-.3-.13-.6-.22-.9-.43-1.48-1.33-3.2-3.1-3.2Zm-11.42 16.97.02-.02.14-.4-.17.4.01.02Zm.16-.43c2.64-6.5 2.77-7.02 3.16-7.81l-.04.07a48.77 48.77 0 0 0-2.43 5.64c-.25.69-.27.8-.7 2.1Z"/><path fill="#21283B" d="m118.35 101.34 1.36-2.08 28.36 43.49-2.68.54-1.5.06-.1-2.54-25.44-39.47Z"/><g filter="url(#i)"><path fill="#466882" fill-opacity=".47" d="m205.98 211.06 17.85-.1-.16 16.1-17.8.67.1-16.67Z"/></g><g filter="url(#j)"><path fill="#466882" fill-opacity=".47" d="m180.42 210.98 20.17-.03-.13 17-20.2-.04.16-16.93Z"/></g><path fill="#F1D244" d="M243.81 138.07c-.06 1.86-.09 3.72-.2 5.57-.06 1.33-.18 2.65-.27 3.97a.3.3 0 0 0 .28.33.3.3 0 0 0 .33-.28c.04-.54.09-1.08.1-1.62 0-1.06-.03-2.12-.06-3.18l-.18-4.8Z"/><path fill="#F1D244" d="M261.46 127.36a20.58 20.58 0 0 1-2.14 4.46 14.38 14.38 0 0 1-7.2 5.86c-.84.3-1.73.5-2.62.61a17.5 17.5 0 0 1-5.36-.18.3.3 0 0 0-.35.25.3.3 0 0 0 .25.36c1.68.3 3.37.42 5.07.19 1.08-.15 2.15-.43 3.17-.83a14.81 14.81 0 0 0 7.16-6.18 20.97 20.97 0 0 0 2.02-4.54Z"/><path fill="#F1D244" d="M257.3 134.37c-.02.13-.05.25-.05.38s.03.25.06.37l.11.35.06.17c.07.2.25.71.06.9-.08.09-.22 0-.29-.03-.23-.14-.42-.34-.64-.48-.1-.07-.32-.19-.38 0-.06.18.07.46.13.63.1.29.2.56.26.86.02.08.1.42-.04.45-.13.04-.28-.06-.39-.13l-.18-.12-.79-.56c-.12-.08-.37-.28-.53-.17-.15.1-.07.34-.04.47.1.44.26.85.36 1.29l.01.12.02.11c.01.05.04.35-.06.35-.24.01-.47-.25-.62-.4-.26-.27-.5-.56-.76-.84-.13-.13-.34-.38-.56-.35-.33.03-.34.63-.33.85l.01.34.04.36.04.37.04.35a7.72 7.72 0 0 1 .04.81l-.01.07v.01l-.15-.01a.6.6 0 0 1-.24-.17 5.56 5.56 0 0 1-.62-1.13l-.15-.32c-.16-.36-.4-.91-.86-.95-.17 0-.38.26-.42.42l-.05.32-.07.31c-.09.54-.12 1.07-.22 1.6-.05.22-.09.48-.22.67h-.03a.32.32 0 0 1-.12-.08 3.29 3.29 0 0 1-.32-.6c-.18-.5-.26-1.06-.48-1.56-.1-.2-.24-.41-.48-.46-.48-.08-.75.63-.92.96l-.09.2-.15.36-.01.02-.01-.06-.1-.57-.15-1.06a.31.31 0 0 0-.36-.25.3.3 0 0 0-.26.35l.11.7.08.51.06.42.06.33c.05.28.08.84.46.87.36.02.5-.54.6-.8l.09-.22.14-.34.3-.59.07-.14v.02c.05.08.06.11.09.2l.23.69a7.63 7.63 0 0 0 .34.92c.18.36.62.9 1.1.64.3-.17.4-.73.45-1.04.09-.54.12-1.08.2-1.62.02-.2.07-.39.09-.58l.02-.04.03-.04.03.02a.7.7 0 0 1 .12.14c.12.15.2.33.29.5.23.48.43.98.76 1.4.06.08.15.17.23.23.17.14.45.25.67.16.3-.13.22-.68.19-.92-.06-.58-.18-1.15-.2-1.73a.94.94 0 0 1 .08-.57l.14.08c.13.11.25.25.37.37.32.34.62.73 1.01.97.14.09.34.17.5.08.22-.13.16-.48.12-.68-.08-.44-.24-.87-.37-1.3-.04-.12-.1-.28-.07-.41h.02l.11.04c.15.06.29.16.42.25.32.22.63.48.98.63.12.05.26.1.37.01.16-.13.1-.4.05-.56-.09-.36-.24-.7-.36-1.06-.04-.1-.1-.27-.06-.39.04-.13.28.05.33.09.23.16.45.38.72.48.07.03.16.03.22-.04.19-.2 0-.72-.07-.93l-.07-.17-.12-.36c-.03-.12-.06-.24-.06-.36 0-.13.02-.25.03-.38Zm27.04-6.43a.3.3 0 0 0-.19.13.3.3 0 0 0 .09.43c.78.5 1.55 1.05 2.32 1.57 3.66 2.49 7.2 5.15 10.66 7.89a280.69 280.69 0 0 0-6.51-5.4 72.03 72.03 0 0 0-6.13-4.58.3.3 0 0 0-.24-.04Z"/><path fill="#fff" d="M284.38 127.91a.32.32 0 0 0-.38.23.3.3 0 0 0 .22.38c2.83.68 5.74.87 8.6 1.33l3.8.62c5.13.8 10.28 1.53 15.42 2.21-4.78-.75-9.57-1.54-14.33-2.4-1.95-.34-3.9-.73-5.84-1.1-2.5-.45-5.03-.68-7.5-1.27Z"/><path fill="#F1D244" d="m311.96 132.67 2.93 3.7c.55.71 1.09 1.43 1.65 2.13.3.38.63.76.95 1.13.11.13.31.14.44.03a.3.3 0 0 0 .03-.44c-.32-.37-.63-.75-.96-1.11-.6-.67-1.23-1.3-1.84-1.97-1.08-1.15-2.14-2.31-3.2-3.47Z"/><path fill="#F1D244" d="M297.22 137.97c.87.12 1.75.17 2.62.24l3.5.25c3.53.25 7.06.5 10.57.87 1.23.13 2.46.24 3.68.42a.3.3 0 0 0 .35-.26.3.3 0 0 0-.26-.35c-2.3-.36-4.64-.46-6.97-.57-2.85-.14-5.7-.24-8.55-.35l-3.03-.13c-.63-.03-1.27-.05-1.9-.12Z"/><path fill="#F1D244" d="M297.18 137.86a.31.31 0 0 0-.27.35 36 36 0 0 1 .23 4.28c0 1.45-.08 2.9-.02 4.35.03.56.1 1.13.14 1.7-.01-.57-.04-1.14-.03-1.7.01-.58.06-1.16.1-1.73.11-1.74.35-3.49.33-5.24 0-.58-.06-1.16-.14-1.74a.3.3 0 0 0-.34-.27Zm20.42 1.5a.3.3 0 0 0-.3.3c.01 1.62.12 3.22.17 4.82.05 1.6.05 3.2.02 4.8.16-1.86.27-3.73.34-5.6.03-.8.08-1.6.1-2.41 0-.54 0-1.07-.02-1.6 0-.18-.14-.32-.31-.31Zm-17.34-1.33c-.36 0-.59.31-.74.6-.13.26-.22.53-.33.8l-.05-.12-.19-.38c-.11-.23-.21-.5-.37-.71a.31.31 0 0 0-.44-.04.3.3 0 0 0-.04.43c.03 0 .08.15.09.16l.16.34.23.47.1.2.14.28c.07.1.18.22.3.25.43.07.63-.6.74-.87l.08-.22c.07-.16.13-.32.22-.46l.08-.1c.08.04.14.16.17.23.1.17.17.34.25.51.24.49.66 1.3 1.33 1.02.44-.18.62-.89.86-1.26.08-.13.2-.3.37-.3.23 0 .43.33.55.49.26.34.5.71.8 1.02.17.16.38.3.62.25.56-.12.54-.91.7-1.33.02-.07.03-.15.1-.2.05-.05.14-.05.21-.07l-.02.01.1.02c.04.01.08.03.11.06.13.09.22.22.3.35.18.3.3.64.52.92.05.07.09.16.16.2.1.08.23.12.35.16.05.02.12.01.17 0 .53-.09.63-.94.77-1.35.05-.16.14-.45.36-.48.22-.02.39.35.46.5l.2.46c.17.37.43.93.93.85.56-.09.67-.96.8-1.38.06-.15.14-.36.3-.41.21-.07.38.35.44.47.11.25.2.5.32.75.1.21.2.4.43.49.65.23.77-.56.93-.98.06-.16.14-.4.33-.42.19-.03.35.18.44.3.22.28.38.6.6.87.15.18.3.23.45.2-.22.05-.44-.27-.54-.42-.06-.1-.2-.3-.25-.4-.14-.21-.4-.68-.71-.65-.17.02-.27.18-.34.32-.14.27-.19.57-.34.83-.1.19-.27.3-.48.24-.29-.1-.37-.39-.47-.64-.1-.26-.2-.52-.32-.76-.11-.2-.3-.47-.58-.36-.41.17-.5.93-.64 1.3-.08.18-.2.42-.44.43-.27.01-.42-.3-.53-.5l-.2-.47c-.14-.33-.36-.94-.82-.9-.55.05-.67.9-.81 1.3-.05.13-.1.28-.2.39a.28.28 0 0 1-.11.09.14.14 0 0 1-.04 0h-.02c-.08-.03-.17-.04-.24-.1-.04-.03-.05-.09-.08-.13l-.11-.16c-.08-.13-.14-.27-.2-.4-.17-.35-.35-.75-.72-.91-.1-.05-.26-.1-.37-.07-.13.04-.27.06-.37.15-.1.09-.16.22-.22.35-.09.2-.12.44-.18.66-.03.13-.07.35-.23.4-.03.01-.17-.12-.19-.14-.16-.18-.3-.37-.44-.56-.32-.45-.7-1.24-1.36-1.15-.52.07-.78.62-1 1.03-.07.14-.13.29-.22.41-.03.05-.09.12-.15.11-.14-.02-.25-.25-.31-.35l-.1-.2c-.23-.43-.46-1.32-1.06-1.32Zm15.39 2.58h.02l.04-.02-.06.02Zm.06-.02c.07-.03.14-.03.22-.1.1-.1.18-.2.26-.3l.33-.48.46-.76-.47.75a6.35 6.35 0 0 1-.6.76.77.77 0 0 1-.2.13Z"/><path fill="#fff" fill-opacity=".24" d="M259.78 157.54c-.16.01-.32.07-.44.12-.48.2-.9.51-1.32.81-.5.37-1.01.69-1.51 1.04-.9.62-1.77 1.26-2.62 1.95-.1.09-.2.2-.31.28.1-.09.2-.19.32-.28a35.3 35.3 0 0 1 2.64-1.9c.45-.3.91-.58 1.36-.87.48-.32.95-.67 1.5-.88l.2-.07c.12-.03.34-.05.4.08.1.23-.21.64-.34.8-.52.7-1.2 1.3-1.84 1.89-.57.52-1.03 1.14-1.48 1.77a51.45 51.45 0 0 0-2.07 3.15c-.34.55-.66 1.12-1.04 1.65-.1.15-.24.3-.36.43-.43.46-1.28 1.24-.74 1.93.37.47 1.02.04 1.36-.23l.24-.21a8.96 8.96 0 0 0 .63-.62c.34-.36.64-.78 1-1.12.15-.15.32-.28.48-.41a52.5 52.5 0 0 1 3.42-2.57 10.89 10.89 0 0 1 1.4-.75c.1-.04.2-.07.32-.08.55-.07.35.6.24.9l-.06.15-.07.16-.08.16a9.57 9.57 0 0 1-.39.67l-.2.33c-.26.39-.54.76-.79 1.15-.24.36-.45.75-.66 1.12-.29.5-.56 1.01-.84 1.52-.38.7-.72 1.42-1.02 2.16.33-.8.73-1.58 1.15-2.34.53-.94 1.07-1.9 1.7-2.78.2-.25.38-.5.56-.75a12.61 12.61 0 0 0 .81-1.33c.05-.1.1-.2.13-.31.12-.36.23-.95-.28-1.05a.86.86 0 0 0-.22-.01c-.3.02-.58.13-.84.25-.43.19-.83.43-1.23.67a31.2 31.2 0 0 0-3.44 2.46c-.15.12-.3.23-.44.36-.2.2-.39.44-.59.65-.36.41-.74.81-1.16 1.17-.17.14-.36.28-.57.36-.03.01-.13.05-.16.01-.18-.24.07-.55.23-.74.26-.31.56-.6.8-.92.25-.3.44-.66.64-.99 1.08-1.76 2.11-3.57 3.4-5.2.44-.56.99-1.02 1.47-1.55a13.05 13.05 0 0 0 .6-.7c.2-.27.43-.56.52-.9.03-.12.05-.28-.02-.4-.09-.15-.23-.2-.39-.19Zm-2.67 14.23c-.05.14-.13.27-.18.41l-.04.14.22-.55Zm-.22.55-.1.27a12.37 12.37 0 0 0 .1-.27Zm-3.31-10.58c-.2.16-.4.32-.57.5a12.92 12.92 0 0 1 .57-.49Zm-.77.7c-.04.03-.09.06-.12.1l-.06.07.18-.18Zm-.18.17-.24.28c.08-.1.15-.2.24-.28Zm-.24.28c-.1.12-.2.22-.28.35v.02h.03a3 3 0 0 1 .25-.37Zm34.09-3.75c-.07 0-.13.02-.2.03l-.35.12-.44.2c-.26.14-.5.29-.75.44-.38.24-.75.5-1.12.76l-.21.2a14.69 14.69 0 0 1 1.93-1.27l.32-.16.29-.13c.24-.09.79-.29.88.1.07.26-.05.56-.14.8-.21.57-.5 1.1-.8 1.6-1.16 1.98-2.53 3.82-3.78 5.73-.08.12-.2.32-.3.45l-.24.42-.22.36-.12.22c-.16.3-.48.95 0 1.14.26.1.51-.1.7-.26.4-.34.75-.77 1.1-1.18.72-.83 1.41-1.69 2.13-2.53.72-.85 1.47-1.68 2.33-2.4a11.45 11.45 0 0 1 2.23-1.39c.03 0 .13-.04.15 0 .23.48.04 1.1-.13 1.57-.39 1.14-1.04 2.16-1.6 3.22-.4.73-.7 1.52-1.02 2.29a17.4 17.4 0 0 0-1.41 5.16c.17-1.85.81-3.63 1.57-5.31.33-.72.64-1.46 1.04-2.14.65-1.1 1.4-2.15 1.82-3.37.16-.49.31-1.09.08-1.59-.25-.53-1.01-.05-1.35.12-.09.05-.17.1-.25.13l-.25.14-.25.15c-1.85 1.16-3.23 2.94-4.6 4.6-.46.55-.92 1.09-1.39 1.62a5.68 5.68 0 0 1-.65.64l.04-.14.18-.35c.3-.57.64-1.11.98-1.66l.2-.33c.75-1.19 1.5-2.37 2.21-3.58a31.46 31.46 0 0 0 1.48-2.75l.16-.41c.14-.36.46-1.3-.25-1.26Zm-3.07 1.74-.23.19.23-.19Zm-.23.19Zm-.61.56c-.03.03-.08.06-.1.1l-.21.25.3-.35Zm-.31.35c-.13.15-.27.28-.38.43v.02h.01l.37-.45Zm-22.27 23.24c-.36-.07-.85.21-1.1.36a6.17 6.17 0 0 0-.7.46l-.48.35-.65.48c-.61.45-1.14 1-1.72 1.49-.56.48-1.17.92-1.74 1.38l1.46-1.12c.54-.42 1.04-.9 1.57-1.32.46-.36.96-.68 1.44-1.01.47-.32.97-.67 1.53-.82.17-.05.43-.09.5.12.12.3-.03.77-.12 1.05-.27.83-.67 1.6-1.06 2.37a98.59 98.59 0 0 1-3.13 5.5l-1.14 1.9c-.2.35-.42.69-.59 1.04-.29.61-.7 1.14-1.05 1.72-.2.34-.38.72-.43 1.11-.04.3-.02.87.3 1.04.2.1.46.04.66-.04a4.58 4.58 0 0 0 1.8-1.21l.42-.42.4-.43c.84-.85 1.73-1.65 2.6-2.46 1.94-1.85 3.92-3.65 5.95-5.42-1.92 1.66-3.8 3.35-5.7 5.02l-1.72 1.51c-.44.38-.9.76-1.31 1.16-.66.61-1.3 1.3-2.12 1.69-.2.1-.4.18-.62.23-.02 0-.15.02-.16 0-.27-.77.28-1.5.7-2.1.2-.3.4-.58.57-.89l.4-.74c1.67-2.83 3.46-5.6 4.8-8.62a16.8 16.8 0 0 0 .78-2.15c.04-.16.06-.32.07-.48 0-.1 0-.2-.02-.3a.66.66 0 0 0-.09-.24.46.46 0 0 0-.3-.21Zm-6.6 4.71c-.2.16-.38.31-.55.48.17-.17.36-.32.54-.48Zm-.55.48Zm33.7-2.61c-.18-.03-.46.22-.58.31a26.5 26.5 0 0 0-1.95 1.73l-.47.47c.6-.58 1.23-1.16 1.88-1.69l.2-.15c.22-.17.44-.35.69-.49.07-.04.2-.14.25-.04.06.12.01.28-.02.4-.12.37-.4.66-.64.96-.88 1.09-1.81 2.13-2.66 3.24l-.2.27-.18.25-.16.23c-.15.23-.55.77-.12.95.16.07.37-.06.5-.15.38-.24.73-.53 1.07-.82 1.02-.87 2-1.79 3.08-2.59.27-.2.54-.4.84-.55.12-.06.28-.15.42-.14.08 0 .04.25.03.3-.03.27-.11.52-.2.77-.38 1.08-.96 2.07-1.46 3.1a89.15 89.15 0 0 0-2.4 5.16c-.36.9-.66 1.81-1 2.72.34-.9.64-1.83 1.03-2.7a59.68 59.68 0 0 1 3.4-6.47l.3-.54a7.4 7.4 0 0 0 .75-1.87c.06-.24.1-.54-.06-.75-.33-.44-1.04 0-1.37.19l-.19.12-.18.12c-1.18.82-2.23 1.82-3.32 2.75-.22.19-.44.38-.68.56l.26-.4c.27-.4.56-.79.85-1.18.66-.89 1.34-1.78 1.97-2.69.2-.3.41-.58.47-.96a.58.58 0 0 0 0-.27c-.03-.1-.09-.14-.15-.15Zm-3.26 2.77-.36.34-.06.08.42-.42Zm-.42.42c-.13.13-.28.26-.37.42l.01.02h.01c.09-.17.23-.3.35-.44Zm-21.18 23.91c-.17-.04-.37 0-.52.03-.37.09-.75.22-1.05.44-.29.2-.53.47-.77.72-1.78 1.83-3.38 3.82-5.2 5.6-.45.43-.91.87-1.43 1.2-.11.06-.39.23-.53.21-.07-.01-.1-.14-.12-.19-.05-.2.02-.3.13-.47.22-.34.46-.67.7-1 .8-1.16 1.62-2.33 2.35-3.54-.87 1.37-1.86 2.66-2.84 3.96l-.2.27c-.24.32-.48.55-.3.97.03.07.07.14.14.18.15.1.37.02.52-.04.46-.2.86-.5 1.25-.82 1.53-1.24 2.87-2.73 4.21-4.18.47-.5.92-1.01 1.4-1.5.27-.3.55-.59.86-.85a2.31 2.31 0 0 1 1.26-.5h.01l-.02.07-.04.13c-.04.14-.1.27-.15.4-.18.43-.41.84-.66 1.22-.79 1.2-1.79 2.25-2.68 3.37-.45.56-.84 1.15-1.24 1.75l-1.2 1.86c-1.56 2.44-3.02 5-3.76 7.81.75-2.83 2.23-5.33 3.88-7.72.47-.68.95-1.34 1.43-2 .25-.34.5-.69.77-1.02.33-.4.68-.79 1.03-1.18.97-1.07 2-2.16 2.67-3.46.17-.32.32-.67.43-1.03.03-.12.08-.25.05-.38-.05-.2-.2-.29-.38-.32Zm-6.44 3c.13-.2.27-.4.38-.6l.2-.37.08-.17a6.88 6.88 0 0 1-.29.53l-.11.2-.26.41Zm.66-2.02-.1.02-.2.08a3.85 3.85 0 0 0-.36.2h.02l.34-.2.2-.07a.68.68 0 0 1 .12-.02h-.02Zm.02 0c.05 0 .08.02.1.04-.02-.01-.03-.04-.08-.04h-.02Zm.1.04c.03.01.06.01.07.03-.01-.02-.04-.02-.07-.03Zm.1.2Zm-.1.34-.05.15-.03.08.07-.15.01-.08Zm33.75-1.94c-.3.02-.63.14-.88.26-.67.32-1.28.77-1.86 1.22-.62.48-1.23.99-1.84 1.5l-1.09.9c-.1.07-.18.15-.28.2-.06.04-.09.05-.09.03.03.05.27-.12.28-.12l.05-.05.06-.04.07-.04.3-.24.55-.43a24.17 24.17 0 0 1 3.78-2.5l.22-.1.2-.07c.22-.08.75-.24.9.07.14.35.05.78-.04 1.13-.17.62-.46 1.2-.76 1.76-1.21 2.21-2.8 4.2-4.13 6.34-.2.31-.4.64-.58.97l-.28.58c-.12.23-.26.45-.37.69-.11.22-.2.5-.07.73.01.03.04.07.07.08.07.05.2.01.28-.01.24-.09.48-.22.7-.35.58-.32 1.12-.7 1.67-1.05-.55.35-1.1.7-1.69 1.01-.22.12-.46.25-.7.32-.06.02-.17.06-.23.02-.03-.02-.05-.08-.06-.11-.07-.2.03-.42.13-.6l.07-.13c.1-.17.23-.34.33-.52.11-.19.2-.38.32-.57.24-.39.5-.75.78-1.12 1.03-1.4 2.11-2.76 3.08-4.2.5-.75.98-1.53 1.38-2.34.3-.62.6-1.3.63-2 .01-.28-.02-.58-.15-.83-.16-.32-.44-.4-.75-.4Zm-6.04 4.11.06-.1.06-.1a5.14 5.14 0 0 1 .29-.36 20.1 20.1 0 0 1 .87-1.03H285c-.33.4-.68.79-1 1.2l-.15.18-.07.1-.04.07v.04Zm-89.1-5.14c-.23-.05-.49.12-.67.23-.7.45-1.35 1-1.98 1.54-1.07.92-2.1 1.87-3.14 2.83a20.9 20.9 0 0 1-3.34 2.7 8.4 8.4 0 0 1-1.5.72h-.08l.01-.05.1-.24c.1-.18.21-.34.34-.5a9.4 9.4 0 0 1 1.22-1.22c.8-.69 1.64-1.33 2.41-2.05.46-.42.9-.87 1.25-1.39.26-.38.47-.81.52-1.27.01-.12.05-.31-.02-.42-.1-.17-.4.12-.46.18-.2.18-.38.38-.59.54-.1.08-.21.14-.32.2-.72.4-1.47.76-2.2 1.14l1.54-.76c.32-.16.66-.3.96-.5.15-.1.28-.23.4-.35.15-.13.3-.28.46-.39.01 0 .12-.08.15-.03.03.06.01.19.01.22 0 .11-.01.2-.04.31-.1.51-.4.97-.74 1.36-.41.49-.89.91-1.38 1.32-.91.75-1.9 1.42-2.78 2.2-.43.4-.88.83-1.13 1.37-.1.22-.2.53.06.68.2.11.47.03.67-.04a8.19 8.19 0 0 0 1.54-.75c1.2-.72 2.25-1.66 3.28-2.61l1.98-1.8c.72-.65 1.46-1.3 2.22-1.9a12.39 12.39 0 0 1 1-.72l.08-.03-.01.04-.05.13a2.9 2.9 0 0 1-.19.34c-.34.53-.77 1-1.19 1.47-1.55 1.72-3.26 3.3-4.78 5.04-.36.4-.74.83-.99 1.31-.08.16-.2.4-.07.56.16.2.55.1.75.04.4-.11.8-.28 1.18-.45.32-.14.64-.28.94-.47.63-.38 1.17-.88 1.74-1.33.58-.45 1.17-.87 1.76-1.3.55-.4 1.11-.81 1.7-1.16l-.17.1c-.6.36-1.19.78-1.76 1.2-.52.38-1.04.73-1.55 1.12-.3.22-.58.46-.87.68a7.05 7.05 0 0 1-2.24 1.21 7.93 7.93 0 0 1-.98.3l-.17.01c-.45 0-.05-.5.06-.67l.07-.1.08-.09.08-.1.18-.21.21-.24.23-.25.24-.25.27-.27c1.55-1.57 3.2-3.03 4.68-4.66.44-.5.95-1.03 1.23-1.64.1-.24.18-.54 0-.76a.36.36 0 0 0-.22-.12Zm-8.64 3.05c-.3.15-.59.3-.87.47l-.29.2c.38-.23.76-.47 1.16-.67Zm-1.16.68c-.1.07-.22.12-.32.2-.21.14-.4.31-.58.47.29-.23.59-.47.9-.67Zm-.9.67c-.13.11-.28.2-.4.3v.02h.01c.13-.11.26-.2.39-.32Zm32.37-5.35c-.2-.01-.42.01-.55.03-.77.1-1.46.52-2.09.95-.52.36-1.02.76-1.52 1.17-1.1.91-2.15 1.95-3.42 2.65v.02h.02c1.24-.72 2.3-1.76 3.42-2.65.5-.4 1-.8 1.53-1.14.42-.28.85-.54 1.32-.71.4-.16.87-.25 1.3-.2.11.02.33.06.31.22a3.48 3.48 0 0 1-.6 1.47c-.33.52-.73 1-1.14 1.47-1.5 1.67-3.3 3.05-4.74 4.77-.36.44-.7.9-1.07 1.32-.22.25-.5.44-.7.7-.07.08-.14.2-.11.3a.3.3 0 0 0 .08.16.2.2 0 0 0 .13.07c.1.04.29-.02.37-.04.21-.05.41-.1.61-.17a10.7 10.7 0 0 0 2.66-1.44c1.44-1 2.73-2.2 4.03-3.37l1.93-1.66.95-.87c.26-.23.54-.43.81-.65.24-.18.49-.41.77-.53 0 .12-.01.23-.04.35-.09.33-.24.64-.4.94-.45.85-1.04 1.62-1.64 2.36-1.3 1.62-2.75 3.12-4.18 4.62l-.98 1.03c-.14.15-.3.31-.44.48l-.13.17.14-.17.13-.14.15-.16.16-.17.17-.19.38-.4.43-.43.46-.47c1.63-1.66 3.3-3.31 4.71-5.15a7.73 7.73 0 0 0 1.29-2.14c.06-.2.2-.65.03-.82-.18-.16-.46.02-.62.12-.23.14-.44.3-.66.46-.27.2-.54.39-.8.6l-.97.84c-.53.45-1.08.88-1.6 1.34-1.06.9-2.09 1.84-3.18 2.7a16 16 0 0 1-2.96 1.96c-.28.13-.57.25-.87.35l.02-.02c.25-.24.44-.5.66-.78l.77-.97c.65-.8 1.38-1.51 2.1-2.24a27.4 27.4 0 0 0 3.02-3.36c.23-.32.44-.65.63-1a4.26 4.26 0 0 0 .37-1.09.7.7 0 0 0 0-.25c-.05-.16-.24-.22-.44-.24Zm-3.51 11.82-.12.14.12-.14Zm-.13.16a.94.94 0 0 0-.14.22v.02a.67.67 0 0 1 .14-.24Zm-.14.24-.01.03.02.04a.14.14 0 0 1 0-.07Zm.01.07c.02.08.08.15.14.19a.38.38 0 0 1-.14-.19Zm1.79.14h-.33l-.37.06-.17.03c.29-.04.57-.1.87-.1Zm-1.62.05Zm.31.08c.09 0 .17 0 .25-.02l-.25.02Zm5.35 16.12c-.23-.05-.54.15-.71.27a4.42 4.42 0 0 0-.4.3l-.24.22-.24.2-.25.22-.47.45c-.61.57-1.22 1.14-1.87 1.68-.5.42-1.01.83-1.54 1.2-.52.38-1.07.7-1.6 1.03l-.02.02h.02c.54-.34 1.08-.67 1.6-1.03.54-.38 1.05-.78 1.56-1.2.66-.52 1.28-1.09 1.91-1.64.47-.41.93-.82 1.44-1.18.18-.13.47-.35.72-.34.2 0 .09.46.06.56-.14.59-.4 1.11-.77 1.59-.87 1.11-2.02 1.98-2.97 3.02-.33.37-.6.77-.88 1.18l-1.12 1.75c-.11.18-.22.34-.36.49-.3.3-.65.57-.88.94-.18.3-.24.69 0 .97.44.54 1.22-.14 1.6-.43l.3-.23c.14-.1.3-.18.44-.27.73-.48 1.41-1.03 2.1-1.57 1.13-.88 2.24-1.78 3.4-2.62a19.6 19.6 0 0 1 1.24-.82l.33-.16.2-.07c.43-.11.11.47.03.64l-.06.11-.06.12-.08.13-.08.14-.1.15-.21.34-.26.36-.28.42-1.2 1.6c-.69.92-1.34 1.87-2 2.82.7-1 1.4-2 2.14-2.97.42-.54.85-1.08 1.26-1.63a22.34 22.34 0 0 0 .63-.89l.19-.28.14-.26.12-.22c.11-.21.36-.75-.1-.74l-.12.01-.22.07c-.12.04-.23.1-.35.16a10.72 10.72 0 0 0-1.3.77c-1.76 1.16-3.41 2.47-5.15 3.68l-.91.58c-.23.15-.45.32-.68.48-.13.1-.27.2-.42.25-.03.01-.12.05-.15.02-.16-.23.11-.5.25-.65.25-.26.53-.49.75-.77.27-.32.47-.7.7-1.06.42-.7.84-1.42 1.36-2.05.78-.96 1.73-1.76 2.53-2.7.55-.64.97-1.26 1.18-2.08.06-.23.12-.49.1-.73a.49.49 0 0 0-.06-.2.31.31 0 0 0-.2-.15Zm-100.8-119.26a.57.57 0 0 0-.11.03c-.2.1-.37.24-.54.38l-.61.55-.92.87c-.54.5-1.08 1-1.64 1.47v.02h.02a24.84 24.84 0 0 1 2.52-2.12 14.12 14.12 0 0 1 1.16-.78l.06-.03-.06.13-.22.4c-.22.37-.46.73-.7 1.1-.85 1.3-1.76 2.6-2.46 4-.14.29-.25.59-.37.89-.07.16-.15.31-.2.47-.05.12-.13.31-.03.42.07.07.18.06.27.06.21.02.43 0 .64-.03.79-.14 1.52-.44 2.3-.6-.82.16-1.6.5-2.43.54-.17.01-.34.01-.5-.01l-.13-.02c-.02 0-.04 0-.05-.02-.05-.08.09-.3.12-.37.22-.4.42-.8.66-1.18l.24-.35c.96-1.44 2-2.84 2.84-4.34.1-.2.21-.38.3-.58.06-.11.1-.23.14-.34.08-.24.1-.65-.3-.56Zm3.29 4.4c-.83.8-1.77 1.48-2.57 2.33-.39.41-.77.85-1.12 1.3-.36.45-.68.92-1.06 1.35-.3.35-.65.66-1 .97.7-.62 1.44-1.17 2.13-1.8a13.59 13.59 0 0 0 1.85-2.03c.28-.36.53-.75.82-1.1a7.9 7.9 0 0 1 .97-1.02h-.02Zm-11.51 21.7c-.3.06-.62.23-.85.35l-.31.17-.23.13-.48.3-.52.34a78.05 78.05 0 0 0-6.7 5.2l-.98.82c-.2.17-.4.33-.55.54l-.06.08c-.04.06-.23.35-.35.3-.13-.06-.02-.2.03-.28l.3-.37.23-.31c.06-.1.12-.17.19-.26l.2-.26.21-.27.23-.26c.81-.97 1.71-1.86 2.66-2.69-.19.17-.4.32-.58.5a27.65 27.65 0 0 0-2.81 2.92l-.2.25-.18.24a3.1 3.1 0 0 1-.17.2c-.15.17-.55.58-.18.74.24.12.45-.18.57-.33.2-.25.44-.43.68-.62.28-.2.55-.42.82-.63 2.18-1.68 4.36-3.38 6.65-4.92l.52-.35.5-.3c.14-.1.3-.18.44-.27.28-.16.57-.31.87-.41.13-.05.29-.12.32 0 .05.17-.09.35-.18.48-.25.35-.57.65-.89.94a24.93 24.93 0 0 0-4.79 6.1c-.66 1.12-1.28 2.24-1.91 3.37-1.73 3.1-3.4 6.21-5.15 9.3 1.96-3.46 3.88-6.94 5.97-10.31 1.1-1.78 2.18-3.58 3.5-5.2.6-.76 1.27-1.48 1.96-2.16l1.2-1.16c.37-.36.99-.99.76-1.56-.15-.34-.43-.4-.74-.35Zm-4.48 1.68c-.34.2-.66.44-.98.67a12.66 12.66 0 0 1 1-.66h-.02Zm-.98.67c-.13.1-.27.18-.4.27.13-.1.27-.18.4-.27Zm-.4.27Zm30.41-.44a134.35 134.35 0 0 0-8.38 9.47l-.4.5c-.48.55-1 1.05-1.42 1.65-.26.37-.54.85-.48 1.32.04.31.25.52.5.69.58.37 1.26.35 1.88.1.7-.28 1.31-.78 1.87-1.28.9-.8 1.72-1.7 2.61-2.51a5.2 5.2 0 0 1 1.7-1.16c.2-.07.43-.1.64-.06a1 1 0 0 1 .2.05l.08.04h.02l-.01.02-.02.05c-.03.04-.06.09-.1.12-.06.08-.14.16-.22.23l-.71.6c-.34.3-.6.66-.9 1.01l-1.04 1.27c-1.25 1.5-2.52 3.01-3.61 4.63-.3.44-.6.9-.81 1.38-.1.22-.2.47-.2.71.01.36.3.4.6.39-.1 0-.18 0-.26-.02-.55-.1-.19-.86-.04-1.16l.12-.22.15-.24a9.47 9.47 0 0 1 .52-.79c1.49-2.06 3.3-3.88 4.97-5.8.2-.22.38-.46.6-.66.33-.3.7-.54 1.02-.84.22-.2.48-.5.4-.82-.08-.27-.43-.38-.67-.43-.63-.12-1.26.18-1.78.53-.57.39-1.08.87-1.58 1.35-.67.65-1.31 1.34-2 1.96a8.53 8.53 0 0 1-1.73 1.22c-.16.07-.34.12-.52.15-.36.05-.72-.04-1.02-.25a.52.52 0 0 1-.21-.23.71.71 0 0 1 0-.44c.1-.31.28-.6.46-.86.39-.56.88-1.04 1.29-1.59.54-.73 1.09-1.48 1.65-2.2a84.52 84.52 0 0 1 6.83-7.88Zm-8.2 19.22c.16-.02.33-.03.46-.07a9.71 9.71 0 0 0 1.64-.67c.55-.27 1.08-.56 1.61-.85v-.01l-.01-.01c-.6.34-1.2.68-1.83.97a11.44 11.44 0 0 1-1.55.58c-.1.03-.22.05-.33.06Zm-18.23 30.48c-.2.02-.43.18-.57.28-.6.41-1.12.92-1.63 1.42-.47.47-.95.94-1.37 1.45-.7.84-1.32 1.74-1.98 2.61l-.48.64.83-1.05 1.16-1.49c.26-.32.5-.63.8-.92a28.93 28.93 0 0 1 2.23-2.05 7.6 7.6 0 0 1 .8-.54l.17-.07h.09a.7.7 0 0 1 .04.21c0 .16-.02.31-.05.46-.13.56-.4 1.08-.66 1.58-1.11 2.13-2.54 4.08-3.8 6.13l-.3.51-.27.47-.22.42c-.16.32-.48.95-.27 1.3.29.47 1.01.13 1.35-.06a6 6 0 0 0 .63-.42c1.15-.84 2.16-1.89 3.3-2.75l.29-.21.3-.22c.15-.1.54-.36.74-.28.06.02.07.13.07.18-.02.18-.08.35-.13.51-.28.77-.67 1.5-1.06 2.21-.1.21-.24.46-.36.66-1.22 2.22-2.55 4.37-3.82 6.56-.34.58-.67 1.18-.99 1.78.33-.6.67-1.19 1.02-1.77 1.3-2.17 2.69-4.29 4-6.45.51-.87 1.04-1.74 1.45-2.66.13-.3.34-.76.23-1.08-.22-.64-1.02-.24-1.4 0-1.03.68-1.95 1.53-2.91 2.32-.47.39-.95.78-1.47 1.1-.19.12-.38.23-.59.29a.52.52 0 0 1-.17.02h-.04v-.04l.01-.09a7.92 7.92 0 0 1 .48-1.08c.44-.8.94-1.58 1.43-2.36.7-1.12 1.42-2.23 2.07-3.38.41-.72.8-1.45 1.1-2.22.18-.43.34-.9.33-1.37 0-.17-.04-.4-.2-.5a.3.3 0 0 0-.18-.05Zm-5.16 19.32-.2.35-.06.13.26-.48Zm-.26.48-.09.15-.24.5c.1-.22.22-.44.33-.65Zm-.62-13.4a50.2 50.2 0 0 0-1.26 1.67l1.27-1.67Zm-1.26 1.67c-.23.31-.48.6-.7.93v.02l.02-.01c.21-.32.45-.63.68-.94Zm1.48 12.52Zm27.83-20.23c-.28.04-.51.24-.7.46-.45.5-.73 1.14-1.18 1.64-.27.29-.58.53-.87.8a69.4 69.4 0 0 0-1.63 1.5l-.5.53.75-.75c.5-.47 1-.92 1.5-1.36.26-.23.54-.44.78-.7.39-.41.67-.93 1.02-1.38a3.2 3.2 0 0 1 .39-.42c.2-.18.48-.3.75-.2.07.03.13.06.17.13.1.17.04.4 0 .58-.14.5-.4.99-.66 1.44l-.3.5c-1.31 2.14-2.88 4.12-4.38 6.13-.31.42-.62.85-.9 1.3-.12.2-.29.39-.4.61-.12.28-.1.64.19.8.38.21.97-.13 1.28-.32l.18-.1a26.7 26.7 0 0 0 .55-.37c1.74-1.2 3.31-2.64 4.99-3.94.28-.22.57-.44.86-.64.24-.17.5-.33.77-.42.15-.04.29-.09.44-.1.05-.01.09 0 .14 0 .08.63-.23 1.36-.47 1.92a29.55 29.55 0 0 1-1.88 3.54c-1.59 2.65-3.35 5.2-5.1 7.76-.53.77-1.06 1.55-1.57 2.33.57-.85 1.16-1.7 1.75-2.53 1.93-2.74 3.93-5.43 5.7-8.27.69-1.13 1.43-2.34 1.84-3.6.1-.34.19-.69.18-1.04 0-.12 0-.25-.07-.36-.11-.2-.36-.23-.57-.2-.46.04-.88.23-1.26.47-.66.42-1.27.9-1.88 1.4-.83.65-1.65 1.34-2.48 2-.66.53-1.33 1.05-2.04 1.52a5.27 5.27 0 0 1-1 .5.49.49 0 0 1-.1.02h-.03c.02.01-.01-.02-.01-.04l.04-.12.16-.27c.21-.32.4-.65.62-.96.6-.87 1.22-1.72 1.83-2.58.67-.96 1.33-1.92 1.95-2.92.45-.7.89-1.43 1.26-2.18.21-.42.43-.86.52-1.33.04-.19.06-.42-.04-.59-.07-.1-.19-.15-.3-.18a.67.67 0 0 0-.3-.02Zm-5.78 21.27-.23.34-.13.21c.12-.18.23-.37.36-.55Zm-.36.55c-.36.55-.72 1.1-1 1.67.28-.58.64-1.12 1-1.67Zm1.26-16.89-.2.2c-.04.05-.1.1-.13.16.1-.13.22-.24.33-.36Zm.32.35-.3.16c-.07.03-.4.2-.48.14.06.06.27-.03.3-.05l.19-.08.3-.16c0-.01 0-.02-.01-.01Zm-.78.3c-.02-.02-.02-.07.03-.16l-.05.1c0 .03 0 .05.02.06Z"/><path fill="#F1D244" d="M232.6 248.58a.3.3 0 0 0-.3.33 179 179 0 0 1 .36 10.1c.04 4.73-.07 9.47-.1 14.2.12-3.8.29-7.6.42-11.4.1-2.96.19-5.94.13-8.9-.03-1.35-.1-2.7-.2-4.04a.3.3 0 0 0-.32-.29Zm.96.2a.8.8 0 0 0-.24.11.3.3 0 0 0-.09.43.3.3 0 0 0 .4.1l.01.05.03.18c.02.2.02.4.02.6v.59c.01.56-.02 1.62.75 1.72.63.07.98-.78 1.15-1.24l.13-.35.13-.34.13-.3c.04-.12.1-.24.19-.34l.06.03c.05.03.09.08.13.13.13.17.22.35.3.54l.09.18.16.37.16.37c.2.41.52 1.06 1.08 1.05a.9.9 0 0 0 .52-.2c.39-.28.54-.76.7-1.2.06-.2.2-.64.43-.74.09-.03.18.04.24.09.17.14.3.32.42.5.32.46.58.97.98 1.37.15.14.33.28.55.3.28.02.52-.16.7-.36.34-.35.54-.8.87-1.15.18-.21.4-.37.7-.3.72.15.94 1.15 1.13 1.74a10.6 10.6 0 0 0 .33.85c.14.27.37.57.7.64.41.09.75-.26 1-.54.38-.47.67-1 1.04-1.5.18-.24.4-.48.72-.51.42-.04.62.33.76.68.2.51.4 1.3 1.07 1.32.6.01.89-.84 1.12-1.26.1-.19.23-.38.45-.43.26-.06.48.16.64.33.25.27.44.59.7.85.14.13.29.25.48.25.52 0 .62-.73.78-1.08.04-.1.07-.2.14-.28.06-.06.15-.08.23-.11.1-.05.27.19.3.24.19.31.24.68.39 1 .05.12.09.24.17.33.06.07.15.1.23.13h.08c.23-.02.43-.11.52-.33.04-.11.04-.33.17-.38.1-.04.2 0 .29.04-.02 0-.03-.02-.05-.03-.08-.03-.16-.06-.24-.03-.14.05-.14.27-.2.39-.08.21-.27.29-.5.3-.01 0-.03.02-.05 0-.08-.02-.17-.05-.22-.11-.08-.1-.12-.22-.16-.33-.16-.35-.2-.77-.42-1.09-.05-.08-.21-.24-.34-.19-.08.04-.18.06-.24.12-.09.08-.13.2-.17.3-.1.2-.15.42-.24.62-.1.2-.23.4-.47.39-.27 0-.48-.3-.62-.49-.27-.33-.7-1.09-1.23-.98-.33.07-.5.4-.64.67-.12.2-.21.43-.35.62-.13.19-.3.37-.54.37-.33-.02-.53-.29-.66-.57-.26-.57-.37-1.54-1.2-1.48-.52.04-.83.5-1.11.89-.23.31-.44.65-.67.96-.18.23-.56.73-.9.64-.29-.06-.46-.4-.56-.64l-.11-.32c-.26-.75-.44-1.94-1.3-2.28-.87-.36-1.36.49-1.8 1.1-.13.17-.43.62-.69.59-.15-.02-.29-.18-.38-.29l-.2-.26c-.14-.2-.26-.42-.4-.63l-.2-.33c-.24-.36-.61-.9-1.12-.8-.63.13-.79 1.03-1.01 1.52-.1.18-.33.59-.6.54-.08 0-.17-.1-.22-.17l-.16-.26-.15-.31c-.21-.48-.38-.98-.64-1.44-.14-.23-.34-.46-.62-.53-.63-.17-.86.54-1.04 1l-.13.34-.2.5-.07.16c-.07.15-.15.32-.26.45-.01.01-.07.08-.1.08-.1-.04-.13-.17-.14-.27-.04-.15-.05-.31-.06-.46v-.97l-.01-.38c-.02-.43-.1-1.25-.75-1.08Zm54.55 5.76a.3.3 0 0 0-.31.3c-.03 1.15-.07 2.31-.07 3.47 0 2.03.03 4.05.05 6.08.03 3.54.06 7.09.11 10.63.07-3.54.14-7.08.24-10.62l.2-6.09c.05-1.15.05-2.3.08-3.46a.3.3 0 0 0-.3-.31Z"/><path fill="#F1D244" d="M261.13 252.67c-.27-.04-.38.37-.44.55-.11.38-.23 1.1-.65 1.24.4-.12.56-.75.66-1.1l.04-.13c.04-.15.15-.54.38-.5.11.01.16.21.2.3l.06.19c.14.37.25.8.49 1.13.06.09.18.22.3.2.2-.04.3-.3.37-.46.13-.3.21-.65.4-.93.08-.15.26-.36.45-.28.19.07.31.32.4.47l.13.26c.2.4.36.84.64 1.19.11.14.26.27.44.3.25.05.47-.12.62-.3.27-.31.46-.68.7-1.01.07-.1.3-.44.47-.4.25.05.34.5.37.7.09.52.01 1.53.7 1.7.3.06.53-.36.65-.55.24-.38.43-.79.7-1.14.1-.12.28-.37.47-.34.09.01.14.14.16.2l.07.18.07.2c.12.4.3 1.2.84 1.2.63-.01.9-.82 1.24-1.22.15-.19.36-.35.62-.31h.06l.21.13c.06.03.13.06.18.1.05.05.07.12.1.18.04.06.09.12.12.2.07.15.11.31.16.47.18.55.38 1.36 1.08 1.42.69.06 1.18-.84 1.45-1.33l.28-.51.04-.06.03.14.07.5c.08.49.2 1.25.82 1.3.67.07.85-.57 1.1-1.05.13-.25.29-.49.58-.52.44-.04.7.35.87.7.26.5.47 1.35 1.06 1.59.42.17.9-.04 1.15-.4.32-.46.47-1.32 1.14-1.4h.3c.52.06.78.53 1.01.94.14.25.28.5.45.72.65.86 1.52 1.1 2.56 1.09a.3.3 0 0 0 .3-.32.3.3 0 0 0-.3-.3c-.72.01-1.46-.12-1.94-.7-.57-.67-.82-1.74-1.77-2a1.79 1.79 0 0 0-.48-.06c-.67 0-1.09.37-1.39.94-.14.28-.33.96-.74.94-.28 0-.48-.5-.57-.7l-.06-.14c-.3-.66-.7-1.46-1.54-1.44-.57.02-.9.44-1.13.93-.1.22-.24.76-.59.7-.17-.03-.24-.28-.28-.41-.11-.4-.11-.83-.23-1.22-.07-.2-.2-.46-.45-.4-.22.03-.36.35-.45.53-.22.4-.42.84-.72 1.2-.12.15-.31.36-.54.35-.43-.03-.61-.69-.71-1.01a4 4 0 0 0-.37-.88c-.05-.08-.1-.18-.16-.24-.08-.07-.17-.1-.26-.15l-.22-.13a.72.72 0 0 0-.32-.05c-.56.02-.87.57-1.14.98l-.12.2c-.12.18-.26.38-.5.38-.2.01-.33-.3-.4-.45-.12-.3-.2-.61-.32-.9-.07-.17-.18-.35-.37-.38-.43-.09-.8.54-.98.83l-.15.27-.15.27-.14.25-.13.2c-.07.1-.17.28-.31.23-.3-.1-.37-.47-.4-.74-.08-.5-.04-1.26-.54-1.56-.27-.17-.54.15-.69.34-.26.36-.46.77-.74 1.11-.1.13-.26.27-.44.27-.24 0-.43-.3-.54-.47-.29-.45-.46-.98-.76-1.43-.1-.14-.24-.29-.42-.3-.19-.02-.34.12-.45.26-.18.25-.27.56-.37.85l-.07.19c-.05.11-.12.33-.25.39-.18.08-.36-.28-.41-.4-.17-.33-.28-.69-.42-1.04-.05-.11-.1-.32-.24-.34Zm-1.09 1.8Zm-.14.02a.7.7 0 0 1-.23-.05 1.16 1.16 0 0 1-.24-.12l.08.07a1 1 0 0 0 .3.12l.09-.02Zm-.47-.17c-.1-.07-.19-.15-.26-.25-.15-.2-.27-.44-.4-.65.13.22.24.45.39.66.07.1.17.17.27.24Z"/><path fill="#fff" d="M203.98 164.5c-2.6 3-5.15 6.06-7.7 9.1-3.74 4.47-7.45 8.94-11.14 13.44a782.45 782.45 0 0 0-7.4 9.15 167.45 167.45 0 0 0-6.35 8.4.31.31 0 0 0 .5.36c1.73-2.48 3.59-4.87 5.43-7.27 2.68-3.49 5.39-6.95 8.12-10.4a1339.3 1339.3 0 0 1 18.54-22.78Z"/><path fill="#fff" d="M144.17 204.18c2.16.21 4.33.33 6.5.45a702.48 702.48 0 0 0 15.66.72c1 .03 2 .04 3 .04.81 0 1.62-.02 2.43-.08a.3.3 0 0 0 .28-.33.3.3 0 0 0-.33-.28c-1.59.11-3.19.07-4.78.07-2.36 0-4.71-.01-7.07-.05a541.6 541.6 0 0 1-9.19-.24c-2.16-.08-4.34-.14-6.5-.3Z"/><path fill="#FDDF19" d="M203.93 259c-.4.7-.9 1.4-1.56 1.87-.38.27-.83.45-1.3.41-.33-.03-.65-.27-.9-.45-.21-.16-.42-.32-.63-.5l-.43-.34c-.53-.41-1.42-1.07-2.06-.5-.1.08-.18.18-.25.3a3.48 3.48 0 0 0-.38 1.36c-.02.4.24.68.52.92.28.23.66.44 1.03.34.3-.09.5-.36.61-.64.15-.4.17-.9.02-1.3-.13-.33-.45-.56-.8-.39a1.1 1.1 0 0 0-.33.28c-.1.13-.1.32.04.43.13.12.31.1.43-.03l.05-.05.03-.02.02.05a1.22 1.22 0 0 1 .02.56c-.03.2-.11.6-.4.54a1.4 1.4 0 0 1-.6-.38.48.48 0 0 1-.13-.18c-.05-.13-.02-.28 0-.4.05-.36.1-.77.33-1.05.4-.49 1.2.07 1.56.32l.34.23.45.33c.13.1.3.22.44.3.2.14.4.26.63.35.55.22 1.15.03 1.62-.3a5.5 5.5 0 0 0 1.63-2.07Z"/><path fill="#fff" d="M143.57 291.24c-3.25.66-6.48 1.39-9.72 2.1l-14.39 3.23c-11.08 2.5-22.17 4.96-33.23 7.56a.31.31 0 0 0-.23.38c.04.16.2.27.37.23 12.7-2.97 25.36-6.06 38.05-9.06 3.9-.93 7.8-1.84 11.7-2.75 2.48-.58 4.96-1.16 7.45-1.7Z"/><path fill="#FDDF19" d="M122.14 276.61c-.22 0-.42.15-.6.25a.31.31 0 0 0-.1.43c.06.11.18.14.3.12l-.04.03c-.2.13-.67.33-.7.61-.02.07 0 .13.03.2.13.34.5.28.78.22.1-.02.28-.1.35.02.16.28-.37.4-.5.57-.15.22.05.44.19.6-.1-.14-.28-.38-.13-.55.2-.2.74-.19.65-.61-.09-.4-.46-.3-.76-.28-.07 0-.14 0-.2-.02-.05-.02-.08-.16-.05-.06l.02-.02.08-.05.13-.06.33-.13c.3-.13.7-.33.72-.71 0-.09-.01-.2-.05-.28a.44.44 0 0 0-.23-.23.48.48 0 0 0-.22-.05Z"/><path fill="#fff" d="M84.83 108.43c-1.64 2.13-3.3 4.25-4.98 6.35-1.3 1.63-2.63 3.2-3.93 4.83a118.1 118.1 0 0 0-3.24 4.23 163.99 163.99 0 0 0-7.62 11.79c1.6-2.43 3.26-4.81 4.98-7.16 1.18-1.6 2.38-3.18 3.55-4.78.96-1.32 1.92-2.63 2.86-3.96 1.11-1.57 2.21-3.15 3.36-4.7.89-1.19 1.8-2.36 2.69-3.54l2.33-3.06Zm15.75-7.66Zm-4.99 6.63-.37.52.37-.52Zm-.37.52c-.85 1.16-1.7 2.33-2.53 3.5l-2.63 3.8c-1.3 1.84-2.63 3.66-3.92 5.52-.94 1.35-1.85 2.73-2.75 4.1a713.67 713.67 0 0 1-3.05 4.6 54.84 54.84 0 0 0-4.7 8.02 52.67 52.67 0 0 1 4.69-7.26c1.21-1.66 2.47-3.28 3.6-5 1.02-1.55 2-3.11 2.98-4.69 1.18-1.92 2.35-3.85 3.59-5.74a189 189 0 0 1 4.72-6.85Z"/><path fill="#F1D244" d="M156.59 177.53c-.54.57-1.08 1.13-1.6 1.7-.74.8-1.44 1.61-2.19 2.39-.48.5-1 .95-1.5 1.42-.42.41-.82.85-1.2 1.3-.45.51-.85 1.07-1.27 1.61-.53.7-1.08 1.4-1.63 2.09.72-.67 1.44-1.34 2.14-2.03.42-.4.86-.81 1.25-1.25.39-.44.75-.9 1.1-1.38.4-.56.77-1.14 1.2-1.69.3-.38.62-.75.94-1.12a88.08 88.08 0 0 1 2.76-3.04Zm29.6-10.33c-.48.63-.94 1.27-1.43 1.88-.37.45-.76.9-1.15 1.34-.26.3-.51.6-.79.88-.54.58-1.14 1.1-1.72 1.64-.43.41-.85.84-1.24 1.3-.39.44-.73.93-1.08 1.41-.58.8-1.13 1.62-1.67 2.46a60.5 60.5 0 0 1 2-2.17c.5-.5.98-.98 1.43-1.5.33-.38.64-.76.94-1.16.35-.48.68-.98 1.04-1.46.72-.93 1.51-1.81 2.25-2.74.48-.61.94-1.25 1.42-1.87Zm-31.4 140.05c-.32.02-.55.53-.66.78l-.1.23-.09.23c-.31.8-.56 1.63-.82 2.46-.14.43-.26.9-.48 1.3.3-.45.47-1.03.67-1.53.28-.71.54-1.43.87-2.13l.1-.21c.12-.23.23-.47.4-.67.02-.03.08-.11.13-.12.09 0 .16.24.18.32.09.33.1.68.13 1.02.04.78.04 1.57.16 2.35.06.41.13.92.47 1.21.1.08.2.14.32.17.69.14.8-.7.85-1.17l.02-.32.02-.33a6.22 6.22 0 0 1 .1-.73l.03-.07h.09c.04.02.08.06.1.1.12.15.2.32.26.5.12.3.2.61.34.92.09.22.22.47.44.59.13.07.32.05.46.05.31 0 .63-.03.95-.05.42-.03.85-.1 1.27-.09.5.01 1 .07 1.49.08 1.77.07 3.54-.02 5.31-.15-.78.05-1.57.09-2.35.1-1.38.03-2.76 0-4.14-.17-.67-.08-1.35-.04-2.02-.06-.23-.01-.54.01-.76-.06l-.07-.06c-.12-.17-.18-.4-.23-.58l-.14-.55c-.15-.53-.44-1.3-1.13-1.16-.56.12-.6.91-.64 1.34l-.02.33-.01.16c-.02.18-.03.37-.07.54l-.04.17-.01.02c-.2-.16-.28-.62-.32-.83l-.05-.25c-.14-.85-.16-1.72-.31-2.57-.07-.36-.2-1.14-.7-1.11Zm20.44 4.09c-1.77.14-3.54.32-5.31.48 1.77-.15 3.54-.34 5.3-.48Zm-5.31.48-1.9.16 1.9-.16Z"/><path fill="#fff" d="M314.5 299.58a.56.56 0 0 0-.22.06.64.64 0 0 0-.23.2c-.06.1-.07.21-.1.32l-.04.27c-.17-.28-.34-.6-.71-.62a.46.46 0 0 0-.2.05.57.57 0 0 0-.13.08c-.16.14-.22.37-.31.57-.04.07-.08.15-.18.15-.12 0-.2-.13-.25-.22-.11-.19-.17-.41-.27-.6-.12-.24-.28-.24-.41 0l-.08.17-.1.27-.17.53.24-.51a5.48 5.48 0 0 1 .2-.36c.12-.2.12-.17.18.04l.08.27c.08.27.18.62.48.7.44.14.59-.29.78-.57a.3.3 0 0 1 .1-.12h.02l.01.02c.01 0 .14.08.07.05-.02 0 .02.04.03.06l.04.08.17.32c.12.23.3.62.62.59.37-.05.4-.56.43-.84l.01-.1c.06.1.12.2.2.3.07.08.15.17.25.23s.2.08.31.1c.2.05.47 0 .67-.04.51-.08 1.01-.22 1.51-.34.3-.07.6-.14.9-.17.46-.05.93-.02 1.4 0l1.33.09.54.02c-.9-.07-1.78-.19-2.67-.22-.82-.02-1.63.1-2.44.14-.3.02-.6.02-.88 0h-.24c-.18-.05-.24-.23-.32-.39-.12-.21-.23-.48-.5-.56-.03-.01-.07-.03-.11-.02Zm7.17 1.05c.58.04 1.15.08 1.73.08-.58 0-1.15-.03-1.73-.08Zm1.73.08Z"/><path fill="#F1D244" d="m186.32 174.72-2.1 2.64c-.32.4-.63.8-.96 1.19-.4.47-.82.93-1.23 1.39l-2.06 2.3c-2.03 2.22-4.29 4.22-6.35 6.41a101.85 101.85 0 0 0-6.86 8.4 112.7 112.7 0 0 1 4.13-4.59c1.14-1.2 2.3-2.38 3.41-3.6 1.4-1.54 2.7-3.16 4.06-4.72.54-.63 1.1-1.23 1.66-1.85.69-.77 1.34-1.56 2.02-2.34.41-.46.83-.92 1.23-1.4.33-.39.64-.8.95-1.2l2.1-2.63Z"/><path fill="#fff" d="M50.54 301.96a1.2 1.2 0 0 0-.38.03c-.5.13-.6.6-.58 1.05.02.49.16.97.2 1.45.05.45.02.82-.47.92-1.3.27-2.05-1.04-2.72-1.92-.29-.38-.67-.88-1.2-.93a1.3 1.3 0 0 0-.44.06c-.14.04-.27.08-.4.16-.95.54-.29 1.74.22 2.36a4.84 4.84 0 0 0 .52.54 3.59 3.59 0 0 1-1-1.65c-.14-.57.04-.98.62-1.12.13-.03.26-.06.39-.05.21 0 .4.15.54.3.24.26.43.57.62.87l.13.2c.63.98 1.39 1.97 2.67 1.85.14-.02.29-.05.43-.1a.94.94 0 0 0 .33-.2c.65-.52.39-1.53.24-2.22-.04-.18-.09-.38-.1-.56l-.01-.3c0-.28.34-.27.53-.26l.18.01c.1 0 .22.02.32.04 1.3.29 1.46 1.72 1.8 2.77.25.76.62 1.34 1.48 1.39a2.2 2.2 0 0 0 1-.18c.81-.43.81-1.46 1.23-2.2-.2.35-.32.75-.47 1.15-.18.47-.45.91-.95 1.08a1.97 1.97 0 0 1-1.21 0c-.86-.28-1-1.33-1.17-2.08-.2-.93-.47-1.85-1.43-2.26a2.64 2.64 0 0 0-.92-.2Zm7.3 1.53c-.15.02-.3.06-.43.12l-.06.04c.32-.15.65-.18.97-.14a1.9 1.9 0 0 0-.48-.02Zm-.49.16-.04.01c-.1.05-.17.12-.24.18.08-.07.17-.14.28-.19Zm-.28.19Zm1.29-.33c.3.04.6.15.9.28l-.12-.07c-.25-.1-.52-.17-.78-.2Zm.9.28c.6.28 1.17.67 1.78.96-.59-.28-1.12-.66-1.7-.94l-.08-.02Z"/><path fill="#F1D244" d="M64.24 279a72.34 72.34 0 0 1-3.42 7.73c-.45.84-.93 1.68-1.46 2.47-1.23 1.85-2.79 3.46-3.96 5.36a9.94 9.94 0 0 0-.86 1.68 3 3 0 0 0-.18.58c-.14.9.24 1.79.33 2.67.02.17.17.3.34.27.17-.02.3-.17.28-.34-.07-.56-.23-1.1-.31-1.66a2.81 2.81 0 0 1-.03-.84c.05-.32.2-.64.34-.94.27-.62.6-1.22.96-1.8 1.1-1.75 2.48-3.32 3.55-5.1 1.9-3.16 3.17-6.63 4.42-10.09Zm-15.7 10.36c.22.57.44 1.14.69 1.7.71 1.62 1.56 3.19 2.13 4.87a14 14 0 0 1 .69 3.33c.01.17.16.3.33.28.17 0 .3-.16.29-.33a9.53 9.53 0 0 0-.97-3.65 37.55 37.55 0 0 0-1.52-2.96 49.36 49.36 0 0 1-1.64-3.24Zm1.91-16c.26 3.11.28 6.31 1.12 9.35.1.34.2.7.35 1.03.17.4.4.77.62 1.15.39.65.89 1.35 1 2.12.12.81-.06 1.66-.24 2.46a13.47 13.47 0 0 0-.4 2.46c-.17 2.38.15 4.75.34 7.11.02.17.17.3.34.28a.3.3 0 0 0 .28-.33c-.12-1.45-.28-2.9-.38-4.37-.07-1-.1-1.99-.05-2.99.05-.9.26-1.78.4-2.68.1-.66.2-1.34.08-2-.15-.81-.69-1.53-1.12-2.21-.22-.36-.45-.72-.63-1.1a7.62 7.62 0 0 1-.37-1 26.29 26.29 0 0 1-.9-4.8c-.16-1.5-.28-3-.44-4.48Z"/><path fill="#FDDF19" d="M181.88 253.7a14 14 0 0 0-3.62 2.57 11.97 11.97 0 0 0-2.84 4.83 24.01 24.01 0 0 0-.72 3.09c-.28 1.57-.45 3.16-.7 4.73a22.34 22.34 0 0 1-1.65 5.98 16.61 16.61 0 0 1-2.88 4.09c-1.04 1.15-2.15 2.25-3.07 3.5a18.25 18.25 0 0 0-2.8 5.81 25.18 25.18 0 0 0-.64 3.22h.01a17.37 17.37 0 0 1 3.6-8.9c.83-1.03 1.81-1.94 2.75-2.88a17.3 17.3 0 0 0 3.37-4.38c1.44-2.93 1.79-6.19 2.13-9.4.3-2.78.66-5.66 2.2-8.08.37-.57.79-1.1 1.25-1.6a13.44 13.44 0 0 1 3.6-2.57Zm-33.91-5.5v.02c.17.22.31.44.46.67-.15-.23-.28-.46-.44-.68h-.02Zm.46.69.3.46-.3-.46Zm.3.46Zm.28.5.33.66-.13-.3-.2-.35Zm.33.66c1.24 2.75 1.37 5.8 1.17 8.78-.2 2.94-.65 5.84-.8 8.78-.1 2.2-.01 4.46.56 6.6a10.63 10.63 0 0 0 2.3 4.35c1.12 1.28 2.52 2.34 3.33 3.86.93 1.77.9 3.8.64 5.73.26-1.93.3-3.97-.58-5.75-.78-1.55-2.14-2.67-3.2-4a10.75 10.75 0 0 1-2-4.02 23.4 23.4 0 0 1-.52-7.04c.16-3.41.67-6.8.58-10.23-.06-2.24-.38-4.5-1.25-6.59l-.23-.47Zm13.48-9.64-.01.01-.07.54c.03-.17.05-.35.1-.53l-.02-.02Zm-.08.55Zm-.08.71c-.02.16-.05.31-.06.47-.11 2.03.12 4.06.18 6.09.04 1.5 0 3 .01 4.5.02 1.12.06 2.24.07 3.37 0 1.2-.03 2.4-.07 3.6.05-1.43.13-2.86.24-4.28.13-1.72.25-3.44.26-5.17 0-.68.01-1.36-.03-2.04-.13-2.18-.75-4.36-.6-6.54Z"/><path fill="#F1D244" d="M329.03 249.52c-1.7 2.32-4 4.1-5.94 6.2-1.3 1.41-2.48 3.03-2.9 4.94-.46 1.98.27 3.9.82 5.78.4 1.36.74 2.79.33 4.18a3.8 3.8 0 0 1-.82 1.5c-.32.34-.69.63-1.05.93a7.8 7.8 0 0 0-1.4 1.4 7.63 7.63 0 0 0-1.25 3.46c.2-1.31.59-2.6 1.47-3.6.7-.8 1.67-1.27 2.42-2.01a4.2 4.2 0 0 0 1.06-1.8 6.96 6.96 0 0 0-.18-3.8c-.5-1.93-1.37-3.9-.95-5.94a11.21 11.21 0 0 1 2.42-4.65c1.86-2.31 4.21-4.2 5.97-6.59ZM316.8 278.1Zm-11.12-33.88-.02.01v.02c1.41 1.07 1.57 3.02 1.48 4.66-.13 2.36-.8 4.67-1.4 6.95-.25.9-.5 1.8-.68 2.72-.2.96-.36 2.13.32 2.96.12.15.27.28.44.4.97.66 2.46.62 3.13 1.68.1.18.19.37.24.56.3 1.06.11 2.2-.26 3.21-.38 1.04-.93 2.02-1.09 3.12-.25 1.74.58 3.31 1.48 4.74.41.65.86 1.31 1.56 1.69a2.61 2.61 0 0 1 0-.01 4.82 4.82 0 0 1-1.67-1.97c-.75-1.29-1.39-2.7-1.16-4.22.16-1.09.74-2.03 1.17-3.02.34-.8.57-1.63.57-2.5 0-1.15-.3-2.13-1.35-2.72-.44-.24-.92-.38-1.39-.54-.68-.24-1.36-.55-1.57-1.3a2.6 2.6 0 0 1-.1-.75c0-.6.12-1.2.24-1.77.15-.74.32-1.47.49-2.2a36.64 36.64 0 0 0 1.1-7.03c.04-1.66-.15-3.57-1.53-4.69Zm5.88 32.96Zm.78.13.11.01 1.08.12-1.19-.13Zm4.66-59.35h-.02v.03c.31.15.6.33.88.52-.28-.2-.56-.38-.86-.55Zm.86.55Zm.63.5.19.15-.02-.02-.17-.13Zm.19.15c.27.27.52.57.73.89.9 1.39.95 3.08.65 4.66a23.07 23.07 0 0 1-1.37 4.19c-.57 1.43-1.2 2.85-1.7 4.3a14.66 14.66 0 0 0-.76 3.22c-.4 3.46.21 6.9 1.08 10.24.23.92.52 1.81.79 2.72a54.7 54.7 0 0 1-.61-2.38c-.82-3.54-1.25-7.26-.72-10.88.07-.45.15-.9.26-1.36.3-1.19.77-2.34 1.21-3.48.78-2 1.6-4.01 1.96-6.14.35-2.11.19-4.26-1.39-5.86l-.13-.12Zm-.58 30.22c.3 1.1.62 2.18.96 3.26-.34-1.08-.64-2.17-.96-3.26Z"/><path fill="#fff" d="M223.77 279.74c-.36.29-.66.62-.93.98a5.62 5.62 0 0 1 .94-.98h-.01Zm-.93.98-.05.05c-.12.16-.21.35-.32.52.12-.2.23-.4.37-.57Zm-.37.57-.7 1.1c.22-.38.46-.74.7-1.1Zm-1.01 1.61a8.9 8.9 0 0 1-.76 1.06 9.82 9.82 0 0 1-2.65 2.06c-1.6.9-3.41 1.58-5.22 1.86-2.28.36-4.56-.16-6.7-.9-1.9-.67-3.75-1.49-5.64-2.16-.29-.1-.57-.22-.85-.3-.36-.12-.72-.2-1.08-.3a12.6 12.6 0 0 0-6.36-.33c-1.68.43-2.94 1.65-3.94 3-1.05 1.42-1.87 2.98-2.9 4.41a9.14 9.14 0 0 1-2.4 2.45 7.79 7.79 0 0 1-4.82 1.32c-.9-.08-1.78-.33-2.65-.56a11.76 11.76 0 0 0-3.98-.54 5.6 5.6 0 0 0-2.08.68c-1.24.64-2.33 1.53-3.62 2.06-1.63.67-3.37.63-5.1.45 1.73.18 3.48.23 5.1-.42 1.3-.52 2.4-1.4 3.65-2.03a5.53 5.53 0 0 1 2.06-.62c1.16-.08 2.39.2 3.5.5 1.02.29 2.03.63 3.1.75 1.77.2 3.55-.33 5.06-1.26a9.43 9.43 0 0 0 2.55-2.52c.98-1.33 1.78-2.79 2.75-4.13.97-1.34 2.18-2.62 3.84-3.04.6-.15 1.21-.22 1.82-.25a12.9 12.9 0 0 1 3.66.37l.85.22.85.23 1.05.36c1.97.67 3.89 1.5 5.89 2.1 2 .61 4.1.98 6.2.65a17 17 0 0 0 5.77-2.21 9.58 9.58 0 0 0 2.3-1.9c.29-.33.52-.69.75-1.06Zm96.42-184.64c-.82.01-1.63.06-2.44.14-1.77.17-3.53.49-5.2 1.06a10.8 10.8 0 0 0-4.52 2.75 6.3 6.3 0 0 0-1.23 2c-.65 1.68-.85 3.79-2.55 4.78-.27.16-.56.29-.85.38-1.3.4-2.7.17-3.99-.19-2.1-.6-4.03-1.65-6.14-2.2-1.93-.5-3.95-.68-5.94-.7-2.82-.01-5.67.31-8.36 1.17a24.47 24.47 0 0 0-5.2 2.4c-.34.21-.67.45-1 .7-1.48 1.13-3.1 2.87-2.8 4.9.04.3.12.6.25.88.16.38.39.74.65 1.06.43.54.95 1 1.5 1.4.94.68 1.97 1.21 3.03 1.68a28.7 28.7 0 0 0 8.61 2.14c.28.03.57.03.85.06a29.99 29.99 0 0 1-9.01-2.07 17.07 17.07 0 0 1-3.18-1.71 7.98 7.98 0 0 1-1.72-1.56 4.38 4.38 0 0 1-.69-1.22 3.5 3.5 0 0 1-.19-.85c-.16-1.98 1.53-3.65 3-4.71a16.27 16.27 0 0 1 3.52-1.94c.64-.28 1.3-.53 1.96-.75a26.6 26.6 0 0 1 8.78-1.21c1.95.03 3.93.22 5.82.73.97.26 1.9.64 2.82 1.02 1.23.5 2.47 1.02 3.77 1.34a7.2 7.2 0 0 0 3.8.09c.39-.12.76-.3 1.1-.52 1.72-1.1 1.94-3.17 2.63-4.92.27-.69.63-1.3 1.13-1.85a10.58 10.58 0 0 1 4.63-2.7c1.98-.64 4.06-.93 6.12-1.03 1.15-.06 2.3-.07 3.45-.01.7.04 1.4.13 2.09.28 3.44.74 7.11 2.93 8.19 6.48.15.5.24 1 .28 1.5.05.62-.2 1.25-.43 1.8-.36.85-.8 1.68-1.04 2.57-.23.88-.15 1.74.54 2.39.22.2.46.35.71.48.43.22.9.38 1.38.48 2.97.6 5.35-1.68 7.86-2.82 1.3-.6 2.73-.94 4.13-1.18 1.9-.33 3.87-.43 5.8-.2 1.15.15 2.31.43 3.37.93.45.22.88.47 1.24.82 1.67 1.6 1.75 4.35 1.22 6.45a8.53 8.53 0 0 1-1.33 2.86 6.48 6.48 0 0 1-1.75 1.52 19.64 19.64 0 0 1-8.15 2.68c-4.3.55-8.66.23-12.98-.02 4.32.25 8.67.58 12.98.04a19.81 19.81 0 0 0 8.18-2.65 6.5 6.5 0 0 0 1.77-1.53 7.64 7.64 0 0 0 1.42-3.15c.48-2.08.36-4.73-1.26-6.3-.37-.36-.8-.63-1.27-.86a11.57 11.57 0 0 0-3.7-1 20.68 20.68 0 0 0-5.86.2c-1.34.23-2.7.56-3.94 1.11-2.48 1.1-4.95 3.43-7.86 2.68-.37-.1-.73-.23-1.07-.41a2.73 2.73 0 0 1-.61-.42c-.72-.69-.58-1.62-.26-2.47.26-.69.59-1.35.88-2.02.2-.49.4-.99.46-1.52.03-.27.01-.54-.02-.82a7.54 7.54 0 0 0-.35-1.57c-1.23-3.56-4.91-5.76-8.43-6.53-.71-.16-1.43-.26-2.16-.3-.81-.05-1.63-.06-2.44-.04Zm-35.33 24.4.1.02.33.02-.43-.03Zm.43.04Zm2.86.18c3.2.12 6.4.06 9.6.12v-.03c-3.2-.04-6.4.03-9.6-.09Zm-95.13-52.45a14.1 14.1 0 0 0-3.39.26c-.76.15-1.52.36-2.26.62-3.6 1.27-7.2 3.99-8.24 7.82-.66 2.41-.48 4.98-1.26 7.37a6.05 6.05 0 0 1-1.15 2.14c-.2.21-.4.44-.65.58-.7.4-1.69.11-2.37-.13-1.41-.52-2.66-1.37-3.94-2.14-2.31-1.4-5.11-2.42-7.78-1.44-.5.18-.97.43-1.4.71a9.23 9.23 0 0 0-2 1.82c-.58.7-1.1 1.47-1.44 2.33-.2.48-.33 1-.4 1.51-.3 2.47 1.1 4.68 2.84 6.3.88.84 1.9 1.52 2.94 2.14a16.1 16.1 0 0 1-3.12-2.35c-1.62-1.6-2.88-3.72-2.58-6.08.06-.5.2-1.01.39-1.49a8.6 8.6 0 0 1 1.45-2.3c.52-.6 1.1-1.17 1.75-1.63.5-.34 1.05-.63 1.62-.83 2.75-.97 5.56.2 7.88 1.67 1.28.81 2.56 1.68 4.01 2.16.71.23 1.6.42 2.3.03.35-.2.64-.52.89-.83.5-.6.84-1.32 1.1-2.06.78-2.31.66-4.8 1.27-7.15 1-3.92 4.74-6.62 8.42-7.81.72-.23 1.45-.41 2.2-.54.96-.16 1.93-.23 2.9-.18a8.1 8.1 0 0 1 3.45.86c3.4 1.8 4.32 6.2 3.42 9.68-.16.63-.4 1.22-.55 1.85-.51 2.07-.54 4.9 1.58 6.1.38.2.8.34 1.22.43a6.1 6.1 0 0 0 3.76-.71c1.11-.53 2.14-1.22 3.19-1.87.73-.46 1.47-.93 2.28-1.26 1.4-.59 2.96-.81 4.47-.88 2.61-.11 5.3.26 7.74 1.21 1.33.52 2.63 1.23 3.65 2.25a8.88 8.88 0 0 1 2.38 4.73c.05.42.06.84.01 1.26-.3 2.61-2.66 4.3-4.86 5.36a19.74 19.74 0 0 1-2.47 1 30.1 30.1 0 0 1-4.18 1.1c-1.09.22-2.19.4-3.3.54-1.85.25-3.9.44-5.85.21.8.1 1.62.14 2.43.12a48.3 48.3 0 0 0 9.5-1.46 29.28 29.28 0 0 0 3.26-1.11c2.55-1.09 5.43-2.91 5.69-5.95.03-.44 0-.9-.06-1.33a7.92 7.92 0 0 0-.71-2.21 9 9 0 0 0-1.65-2.45 10.87 10.87 0 0 0-3.72-2.34 19.4 19.4 0 0 0-8.28-1.3c-1.43.08-2.88.31-4.21.85-.83.34-1.6.81-2.36 1.28-1.03.64-2.05 1.31-3.15 1.83-1.06.5-2.27.9-3.46.66a3.6 3.6 0 0 1-1.22-.48c-1.66-1.07-1.64-3.42-1.28-5.12.07-.33.16-.67.27-1 .19-.59.39-1.17.5-1.78.63-3.17-.13-6.88-2.75-8.97a6.9 6.9 0 0 0-1.34-.84 8.8 8.8 0 0 0-3.38-.76Zm15.92 32.36a7.87 7.87 0 0 1-.68-.08c.22.04.45.06.68.08Zm-.68-.08Zm-.73-.17Zm-.74-.22Zm-.86-.32a7.6 7.6 0 0 1-1.11-.64 10.78 10.78 0 0 1-.01.02c.36.24.74.44 1.12.62Zm-43.4-1.68.39.25.6.32c-.34-.18-.67-.38-1-.57Zm1 .57c.15.08.3.18.45.25l.2.08c-.23-.1-.44-.22-.66-.33Zm.64.33Zm1.86.77Zm.52.19c.63.2 1.26.4 1.9.54l.17.03a18.7 18.7 0 0 1-2.07-.58Zm2.07.57.12.03a17.2 17.2 0 0 0-.12-.03Zm1.13.2Zm1.33.13Zm-119.6 7.04a13 13 0 0 0-1.4.12c-3.5.5-7.05 2.41-8.69 5.65-.68 1.33-1.28 3-.98 4.52.05.22.12.43.2.64-.73-.4-1.52-.74-2.3-1.01a22.21 22.21 0 0 0-7.59-1.17c-1.2.08-2.53.35-3.4 1.25-.36.38-.61.85-.73 1.36a3.74 3.74 0 0 0 .06 1.85c.57 1.81 2.65 2.6 4.3 3.05l.73.2 1.03.24c1.91.45 3.84.76 5.8.91 4.18.33 8.38.08 12.57.14 1.42.03 2.83.15 4.24.2-1.41-.05-2.82-.19-4.24-.22-3.92-.08-7.86.08-11.78-.24a36.9 36.9 0 0 1-6.2-1.02l-1.7-.45c-.36-.1-.73-.2-1.08-.33-1.53-.54-3.27-1.45-3.37-3.28-.01-.32.01-.64.08-.94.1-.4.29-.77.56-1.06.85-.94 2.27-1.14 3.46-1.19a17.6 17.6 0 0 1 3.96.36c1.17.22 2.34.52 3.46.93.9.34 1.79.75 2.6 1.29a6.52 6.52 0 0 0 .43.65c.21.26.68.74 1.05.48a.38.38 0 0 0 .16-.24c.03-.21-.33-.48-.48-.62l-.14-.13-.14-.12a5.74 5.74 0 0 0-.5-.36 3.8 3.8 0 0 1-.65-1.92c-.02-1.1.35-2.18.8-3.17a8.9 8.9 0 0 1 1-1.75 11.59 11.59 0 0 1 6.67-4.08c1.27-.3 2.58-.4 3.88-.27a7.3 7.3 0 0 1 3.25.98c.65.43 1.1 1.08 1.5 1.74a15.31 15.31 0 0 1 1.55 3.43c.26.87.47 1.79.42 2.7-.02.5-.14 1-.42 1.42a4.4 4.4 0 0 1-.54.65l.11-.1c.2-.2.39-.43.53-.67.27-.45.35-.98.36-1.49.02-.93-.2-1.86-.48-2.74-.38-1.2-.9-2.36-1.55-3.42a5.1 5.1 0 0 0-1.4-1.63 7.82 7.82 0 0 0-3.58-1.1 11.2 11.2 0 0 0-1.42-.04Zm7.43 11.19Zm-.75.6c-.1.07-.22.13-.33.19.11-.06.22-.12.33-.2Zm-.33.19Zm-.58.3-.45.18c.15-.05.3-.12.45-.19Zm-.45.18-.3.1.3-.1Zm-.3.1Zm-1.33.34-.32.06.32-.06Zm-.32.06c-.5.1-1 .17-1.5.23l.3-.04 1.03-.15.17-.04Zm.47 4.98.48.03h.08l-.56-.03Zm.56.03h.25a15.78 15.78 0 0 0-.25 0Zm1.3-.05.24-.01h-.24Zm.24-.01a4.54 4.54 0 0 0 1.52-.4v-.02h-.01c-.47.23-.98.35-1.5.42Z"/><path fill="#F1D244" d="M76.24 195.77a.1.1 0 0 0-.1.1l-.06 31.89c0 .05.04.1.1.1a.1.1 0 0 0 .1-.1l.05-31.9a.1.1 0 0 0-.1-.1Zm7.76.15a.1.1 0 0 0-.09.1l.04 31.97c0 .06.05.1.1.1a.1.1 0 0 0 .1-.1l-.05-31.98a.1.1 0 0 0-.1-.1Z"/><path fill="#F1D244" d="M76.22 199.9a.1.1 0 0 0 0 .2l7.8.02a.1.1 0 0 0 .1-.1.1.1 0 0 0-.1-.1l-7.8-.01Zm7.8 3.98-7.8.02a.1.1 0 0 0-.1.1c0 .05.04.1.1.1l7.8-.03a.1.1 0 0 0 .1-.1.1.1 0 0 0-.1-.09Zm-7.81 3.94a.1.1 0 0 0-.1.1c0 .05.05.1.1.1l7.81.08a.1.1 0 0 0 .1-.1.1.1 0 0 0-.1-.09l-7.8-.1Zm7.81 4.12-7.81.06a.1.1 0 0 0 0 .19l7.82-.05a.1.1 0 1 0 0-.2Zm-7.82 3.89a.1.1 0 0 0-.1.1c0 .05.05.1.1.1l7.83.03a.1.1 0 1 0 0-.2l-7.83-.03Zm7.84 4.07-7.85.08a.1.1 0 0 0-.1.1c0 .05.05.09.1.09l7.85-.07a.1.1 0 0 0 .1-.1.1.1 0 0 0-.1-.1Zm-7.86 4a.1.1 0 0 0-.1.09c0 .05.05.1.1.1l7.86.03a.1.1 0 1 0 0-.2l-7.86-.03Z"/><path fill="#fff" d="M50.87 152.4Zm-.21.18-.04.1.04-.1Zm-.04.1-.05.16.05-.16Zm-.05.16c0 .1 0 .19.02.3-.01-.1-.03-.2-.02-.3Zm.02.3v.2l.03.15-.03-.36Zm.07.57.05.22.03.1-.08-.32Zm.08.33.03.12.08.24-.1-.36Zm.11.36.07.26.06.16-.13-.42Zm.13.42.04.11c.16.49.36.96.54 1.44-.2-.52-.4-1.03-.58-1.55Zm.58 1.55.43 1.15.08.2c-.18-.45-.34-.9-.5-1.35Zm.57 1.52c.47 1.16.94 2.32 1.4 3.5-.45-1.18-.93-2.34-1.4-3.5Zm3 7.83c.41 1.2.8 2.41 1.14 3.64l-.1-.41c-.3-1.09-.67-2.16-1.04-3.23Zm1.14 3.64.15.61-.13-.53-.02-.08Zm.15.61Zm.57 2.52Zm.22 1.42c.06.47.1.95.13 1.43v-.18c-.03-.42-.08-.84-.13-1.25Zm.13 1.43v.25-.25Zm0 .25c.1 2.4-.25 4.98-1.87 6.85-1.88 2.16-4.76 2.66-7.48 2.84a29.9 29.9 0 0 1-6.34-.25 37.6 37.6 0 0 1-5.2-1.2c-1.77-.53-3.51-1.16-5.3-1.64-1.4-.37-2.84-.63-4.3-.48-3.77.39-6.42 3.69-8.37 6.65a44.66 44.66 0 0 0-2.7 4.73 18.88 18.88 0 0 0-1.34 3.85 16.55 16.55 0 0 0-.4 3.12c-.15 4.2 1.42 8.2 3.5 11.78 2.26 3.9 5.1 7.41 7.74 11.04 2 2.73 3.94 5.58 5.23 8.72a16 16 0 0 1 1.3 6.53 13.1 13.1 0 0 1-.16 1.75c-.07.44-.18.87-.24 1.31-.12.85-.16 1.7-.17 2.56-.02 1.66.1 3.32.28 4.97a72.3 72.3 0 0 0 1.06 6.49 119.9 119.9 0 0 0 5.99 19.67 123.27 123.27 0 0 0 11.82 22.96 85.04 85.04 0 0 0 8.85 11.28 58.07 58.07 0 0 0 10.12 8.66 40.66 40.66 0 0 0 10.61 5.08c2.51.75 5.1 1.21 7.71 1.38a21.6 21.6 0 0 0 3.16 9.7c3.84 6.05 10.5 9.58 17.23 11.51a59.8 59.8 0 0 0 13.17 2.14c.86.05 1.72.06 2.59.08a62.06 62.06 0 0 1-15.95-2.33c-6.61-1.91-13.2-5.5-16.96-11.46a21.42 21.42 0 0 1-3.09-9.62 33.18 33.18 0 0 0 6.76-.26 15.6 15.6 0 0 0 3.2-.92 38.49 38.49 0 0 0 11.59-7.52 23.82 23.82 0 0 0 4.38-5.42c1.1-1.96 1.85-4.25 1.46-6.52a8.31 8.31 0 0 0-2.32-4.3c-1.89-2.01-4.3-3.52-7.15-3.48-1.92.04-3.74.77-5.34 1.78a23.22 23.22 0 0 0-6.08 6.04 40.28 40.28 0 0 0-4.56 8.12 29.2 29.2 0 0 0-1.95 6.33 22.7 22.7 0 0 0-.28 3.9c0 .59.07 1.17.11 1.75-2.95-.2-5.88-.8-8.69-1.75a41.05 41.05 0 0 1-9.84-5 56.93 56.93 0 0 1-8.59-7.28 83.95 83.95 0 0 1-10.1-12.75A123.98 123.98 0 0 1 39 274.71c-2.52-6.35-4.6-12.9-6.01-19.6a72.35 72.35 0 0 1-1.08-6.43 39.6 39.6 0 0 1-.3-4.92c.01-.84.05-1.69.17-2.52.06-.44.16-.87.23-1.3.1-.6.15-1.2.16-1.8a16.3 16.3 0 0 0-1.37-6.67 41.42 41.42 0 0 0-4.95-8.29c-2.75-3.78-5.76-7.4-8.13-11.45-2.08-3.54-3.65-7.5-3.53-11.67.03-1.04.16-2.07.39-3.1a24.09 24.09 0 0 1 3.05-7.03c.35-.59.71-1.17 1.1-1.74 1.9-2.87 4.46-6.02 8.12-6.4 1.55-.17 3.1.14 4.58.55 1.68.46 3.32 1.04 4.98 1.53 1.72.51 3.46.94 5.22 1.2 2.2.32 4.42.39 6.63.22 2.64-.2 5.4-.74 7.21-2.84 1.63-1.88 1.97-4.45 1.86-6.86Zm48.41 120.58c2.84-.04 5.22 1.56 7.06 3.6 1 1.12 1.78 2.4 2.03 3.91.39 2.3-.45 4.62-1.63 6.58a24.42 24.42 0 0 1-4.44 5.27 38.39 38.39 0 0 1-8.21 5.77c-1.15.6-2.33 1.14-3.55 1.57-.81.28-1.65.53-2.5.66a33.6 33.6 0 0 1-6.71.24c-.04-.58-.1-1.17-.1-1.75 0-1.3.07-2.6.3-3.88.38-2.16 1.1-4.26 1.96-6.28a40.09 40.09 0 0 1 4.58-8.05c1.75-2.37 3.82-4.62 6.37-6.13a9.81 9.81 0 0 1 4.84-1.51Zm45.17 46.67Zm-7.41 2.63-.96.22.96-.22Zm-.96.22Zm-2.9.65-.94.17c.31-.06.63-.1.94-.17Zm-.94.17c-.98.17-1.97.34-2.95.47l.63-.07c.78-.12 1.55-.27 2.32-.4Zm-2.95.47c-.56.08-1.13.14-1.7.2l1.48-.16.22-.04Zm-1.7.2Zm-4.4.4Zm-2.52.08-.53.02.53-.02Zm-.53.02ZM273 111.44Zm-1.1 4.02c-.2.49-.43.96-.68 1.43l.12-.22c.2-.4.38-.8.55-1.2Zm-.68 1.43Zm-2.17 3.1c-.18.21-.35.44-.54.64.19-.2.36-.43.54-.64Zm-.54.64Zm-1.22 1.16-.51.46.5-.46Zm-.51.46Zm-1.45 1.1-.34.25.34-.25Zm-.34.25Zm-1.77 1.1a32.3 32.3 0 0 1-6.24 2.67 45.74 45.74 0 0 1-11.33 2c-2.01.12-4.03.12-6.04 0a40.3 40.3 0 0 1-7.87-1.19c-1.62-.43-3.22-.97-4.8-1.5a60.28 60.28 0 0 0-7.7-2.14c-2.55-.47-5.26-.65-7.78.11a10.25 10.25 0 0 0-4.26 2.51c-.26-.16-.5-.36-.78-.52a38 38 0 0 0-8.34-3.65 36.93 36.93 0 0 0-10.87-1.65c-3.31 0-6.78.51-9.81 1.9a21.16 21.16 0 0 0-5.58 3.8 25.65 25.65 0 0 0-6 8.47 26.38 26.38 0 0 1 6.32-8.67 20.72 20.72 0 0 1 5.3-3.5c3.02-1.36 6.48-1.82 9.77-1.8 3.65.03 7.29.67 10.77 1.77a38.2 38.2 0 0 1 8.23 3.68c.23.14.44.31.67.46a21.02 21.02 0 0 0-5.02 8c-.87 2.58-1.1 5.5.18 8a7.66 7.66 0 0 0 2.2 2.64c2.84 2.19 7.4 2.58 10.14 0 .31-.29.59-.61.83-.97 1.14-1.66 1.32-3.77 1.03-5.73a17.4 17.4 0 0 0-1.04-3.67c-.22-.57-.45-1.14-.72-1.7a8.44 8.44 0 0 0-.92-1.48 17.27 17.27 0 0 0-1.9-1.97 30.47 30.47 0 0 0-4.07-3.14 9.9 9.9 0 0 1 4.23-2.42c2.39-.69 4.94-.52 7.36-.1 2.7.49 5.31 1.33 7.91 2.16 1.67.53 3.33 1.08 5.03 1.48 2.53.6 5.15.9 7.75 1.02a52.76 52.76 0 0 0 10.84-.64c1.21-.2 2.41-.45 3.6-.74a35.3 35.3 0 0 0 8.91-3.49Zm-55.94 3.01c1.49 1 2.92 2.08 4.22 3.32.94.89 1.85 1.81 2.45 2.98.34.66.6 1.35.87 2.05.39 1.03.72 2.09.9 3.18.31 1.9.2 3.97-.93 5.6-.27.4-.6.76-.97 1.08-2.76 2.33-7.21 1.7-9.76-.64-.47-.44-.9-.93-1.24-1.48-1.63-2.57-1.38-5.7-.4-8.45a20.92 20.92 0 0 1 4.86-7.64Zm-41.5 7.86Zm-.7 1.76-.11.33.12-.33Zm-.11.33Zm-.47 1.56Zm-.2.8Zm-.23 1.21Zm-.15 1.19-.09.99.09-1Zm-.09.99Zm.01 1.58c.01.21 0 .42.02.62-.02-.2 0-.41-.02-.62Zm.02.62Zm.25 1.78.06.48c.2.93.5 1.83.86 2.71h.02v-.01a17 17 0 0 1-.87-2.7l-.07-.48Zm175.78 3.22c-.01.13.05.26.1.38.01.02.03.03.03.05-.06-.13-.14-.28-.13-.43Zm.13.43.02.04c.06.13.14.25.22.37l-.24-.4Zm.24.41.19.34.08.13-.27-.47Zm1.95 3.01c.7 1.03 1.35 2.08 2.01 3.13-.6-.97-1.21-1.94-1.84-2.89l-.17-.24Zm2.01 3.13c.37.58.76 1.14 1.12 1.73-.36-.59-.75-1.15-1.12-1.73Zm1.3 2.04Zm2.54 4.52Zm1.39 2.88Zm1.21 2.96Zm.96 3 .1.42-.1-.42Zm.1.42c.23.88.44 1.76.59 2.66l-.05-.33c-.14-.78-.33-1.56-.54-2.33Zm.59 2.66.09.69c-.03-.2-.04-.4-.08-.6l-.01-.1Zm.09.69c.05.4.11.8.14 1.2-.03-.4-.09-.8-.14-1.2Zm.14 1.2.04.7-.04-.7Zm.04.7c.1 1.73.05 3.47-.09 5.2a42.47 42.47 0 0 1-2.36 11.24c-.3.84-.64 1.66-1.01 2.47a21.74 21.74 0 0 1-4.16 6.29c-.2.2-.43.41-.65.6l-.7-.85a40.58 40.58 0 0 0-5.02-5.03c-.4-.32-.8-.62-1.2-.91-1.99-1.4-4.52-2.65-7-1.97-.38.1-.74.25-1.08.43-.57.3-1.09.7-1.55 1.14-.68.67-1.26 1.46-1.75 2.28a7.16 7.16 0 0 0-.78 1.8c-.1.36-.15.73-.15 1.1.02 1.88 1.6 2.98 3.18 3.6 1.47.57 3.04.83 4.6.96 1.9.17 3.81.15 5.7-.05 1-.1 2.03-.24 2.97-.64a9.98 9.98 0 0 0 2.67-1.71c1.69 2.04 3.3 4.15 4.84 6.3l2.42 3.42c.56.79 1.1 1.59 1.73 2.31.83.95 1.78 1.77 2.8 2.5 2.76 1.98 5.89 3.37 8.87 4.95 3.9 2.08 7.64 4.53 10.05 8.33a21.28 21.28 0 0 1 2.93 9.02c.36 3.05.32 6.14.08 9.2-.3 3.87-.93 7.71-1.75 11.51-.8 3.72-1.8 7.4-2.99 11.01a91.1 91.1 0 0 1-2.99 7.97 39.59 39.59 0 0 1-2.57 5.1 39.74 39.74 0 0 1-4.92 6 32.55 32.55 0 0 1-9.87 6.78c-2.76 1.27-5.63 2.26-8.42 3.46-2.33 1-4.6 2.14-6.7 3.57a31.53 31.53 0 0 0-3.53 2.8c-.97.9-1.88 1.85-2.86 2.75a34.33 34.33 0 0 1-6.68 4.97c-2.32 1.27-4.9 2.13-7.58 1.97-2.27-.13-4.4-1-6.35-2.14-2.46-1.42-4.68-3.22-7.06-4.76a22.32 22.32 0 0 0-5-2.51 13.95 13.95 0 0 0-6.13-.62c-1.26.16-2.5.48-3.7.92a15.9 15.9 0 0 0-4.38 2.34c-4.62 3.62-5.93 9.72-7.1 15.15l-.59 2.6c-.17.71-.34 1.4-.54 2.1-.7 2.4-1.73 5.11-4.02 6.4a5.84 5.84 0 0 1-2.79.73 6.02 6.02 0 0 1-3.14-1.43 22.79 22.79 0 0 1-4.16-4.55 84.95 84.95 0 0 1-3.92-5.93c-2.72-4.42-5.23-8.97-8.18-13.24a46.71 46.71 0 0 0-2.5-3.3c-.32-.37-.65-.73-.99-1.08-1.44-1.48-3.55-3.23-5.78-2.6-1.54.45-2.63 1.83-3.3 3.21a17.16 17.16 0 0 0-1.16 3.44c-.3 1.25-.51 2.51-.69 3.78-.6 4.32-.81 8.68-1.24 13.01-.23 2.3-.5 4.59-.97 6.84a21.78 21.78 0 0 1-1.72 5.36 8.26 8.26 0 0 1-2.16 2.82 7 7 0 0 1-1.66.95c-1.02.45-2.1.72-3.2.86-1.35.16-2.7.1-4.05-.05-2.22-.25-4.4-.79-6.57-1.29-1.56-.35-3.13-.7-4.73-.9-2.16-.27-4.43-.25-6.47.62a8.99 8.99 0 0 0-3.14 2.32c-.34.37-.64.78-.93 1.2l-.22.34-.03.04c-.04-.23 0-.47.03-.7l.13-.97.39-2.91a84.8 84.8 0 0 0 .1-1.02c-.17 1.46-.38 2.92-.58 4.38-.04.33-.09.65-.11.97 0 .05-.04.24.03.27.03.01.05-.03.06-.05l.11-.17.11-.17c.29-.41.6-.81.93-1.19a8.92 8.92 0 0 1 3.42-2.42 11.5 11.5 0 0 1 4.87-.62c2.03.13 4.04.58 6.02 1.04 2.18.5 4.35 1.04 6.58 1.3 1.45.17 2.93.22 4.39.01a11.2 11.2 0 0 0 3.21-.94 7 7 0 0 0 1.38-.83 8.67 8.67 0 0 0 2.35-3.17c.75-1.6 1.22-3.33 1.58-5.05a67.8 67.8 0 0 0 1.02-7.1c.44-4.25.67-8.52 1.27-12.74.22-1.53.49-3.05.9-4.53.27-1 .61-1.98 1.1-2.9.64-1.21 1.65-2.4 3.02-2.79 1.98-.56 3.88.92 5.2 2.22a18.48 18.48 0 0 1 1.61 1.79 37.45 37.45 0 0 1 2.3 3.13c2.87 4.2 5.32 8.68 7.97 13.02a78.93 78.93 0 0 0 4.25 6.42 20.71 20.71 0 0 0 4.21 4.44 6.1 6.1 0 0 0 3.04 1.26 6.24 6.24 0 0 0 3.02-.76c2.5-1.4 3.6-4.37 4.33-6.99l.37-1.4c.24-1 .46-1.99.68-2.98 1.16-5.3 2.43-11.34 6.95-14.87a15.3 15.3 0 0 1 4.26-2.26 15.4 15.4 0 0 1 5.12-1c.72 0 1.44.05 2.15.16 4.4.69 7.96 3.58 11.5 6.05 2.77 1.94 5.82 3.74 9.27 3.95 1.15.07 2.31-.05 3.44-.3a18.17 18.17 0 0 0 5.3-2.25 37.11 37.11 0 0 0 5.9-4.53c.97-.9 1.88-1.85 2.85-2.74a31.2 31.2 0 0 1 3.82-3c1.97-1.3 4.1-2.36 6.27-3.29 2.8-1.2 5.67-2.2 8.43-3.48a32.99 32.99 0 0 0 10-6.87 40.21 40.21 0 0 0 4.98-6.1 39.89 39.89 0 0 0 2.6-5.17 90.44 90.44 0 0 0 2.99-8.01 111.9 111.9 0 0 0 3.23-12.32 81.4 81.4 0 0 0 1.47-10.32c.25-3.26.27-6.55-.17-9.8a21.5 21.5 0 0 0-2.75-8.28 19.07 19.07 0 0 0-4.11-4.71 35.94 35.94 0 0 0-6.29-4.03c-2.97-1.57-6.1-2.93-8.85-4.89a16.27 16.27 0 0 1-2.78-2.46c-.64-.71-1.17-1.5-1.72-2.28l-2.44-3.42a114.1 114.1 0 0 0-4.87-6.3c.49-.43.95-.89 1.38-1.38a24.84 24.84 0 0 0 4.2-7.36 42.02 42.02 0 0 0 2.6-11.9c.14-1.72.17-3.46.07-5.2Zm-21.2 16.98c2.25-.17 4.47 1.06 6.22 2.35.4.3.8.63 1.2.95a41.72 41.72 0 0 1 4.68 4.77l.7.87a9.8 9.8 0 0 1-2.87 1.78c-.61.23-1.27.35-1.92.45-2.15.3-4.36.33-6.52.13a17 17 0 0 1-4.58-.96c-1.56-.61-3.1-1.7-3.11-3.53 0-.37.05-.73.14-1.08.16-.63.45-1.22.77-1.77.49-.81 1.06-1.6 1.74-2.26.45-.44.97-.82 1.53-1.12a5.36 5.36 0 0 1 2.02-.58ZM188.13 324.82a34.84 34.84 0 0 0 2.4.17c-.8-.09-1.6-.15-2.4-.17Zm4.33.46.36.08-.36-.08Zm.36.08c.57.11 1.13.24 1.68.4l-.54-.15c-.37-.1-.75-.18-1.14-.25Zm-7.11-.53Zm-4.03.53c-.06.01-.11.01-.16.03-.31.09-.64.2-.9.4-.12.07-.23.18-.25.32-.04.34.51.61.77.73.99.44 2.09.65 3.14.85h.01v-.02c-1.05-.2-2.16-.4-3.14-.85-.25-.1-.8-.37-.76-.7.02-.18.19-.3.32-.39.3-.18.63-.28.97-.37Zm12.87.42Zm.96.35Zm.68.32Zm.37.21Zm.49.33.32.3-.32-.3Zm.32.3c.14.14.3.26.41.42l-.07-.12c-.1-.11-.23-.2-.34-.3Zm.41.42c.06.07.1.15.15.22l-.1-.17-.05-.05Zm.15.22Zm.3.54.11.24-.1-.24Zm.11.24.16.38-.05-.15-.1-.23Zm.16.38c.11.29.19.58.28.87l-.16-.57-.12-.3Zm.28.87c.1.35.2.68.28 1.03-.07-.35-.18-.68-.28-1.03Zm.28 1.03.07.37-.07-.37Zm.07.37c.1.46.17.92.23 1.39l-.02-.27c-.05-.38-.14-.75-.2-1.12Zm.26 1.84Zm.18 4.3a57.3 57.3 0 0 1-.14 2.9c.06-.76.11-1.53.14-2.3v-.6Zm29.49-62.09a19.66 19.66 0 0 1 .01.02l-.01-.02Zm-1.68.63Zm-1.7.5-.63.14.63-.14Zm-.63.14c-3.46.85-7.05 1.21-10.53 1.89-.72.14-1.44.3-2.15.47-1.05.26-2.08.56-3.14.8-.89.2-1.86.4-2.77.38a1.4 1.4 0 0 1-.66-.12 1.4 1.4 0 0 1-.46-.56c-.23-.41-.4-.86-.6-1.28-.22-.41-.53-.91-1.07-.83-.53.08-1 .67-1.3 1.06-.53.66-1 1.37-1.58 1.98a2.3 2.3 0 0 1-.97.66c-.28.08-.58.11-.87.17a596.12 596.12 0 0 0-7.32 1.49c-5.65 1.18-11.3 2.42-16.93 3.67a387.21 387.21 0 0 1 16.46-3.26l6.04-1.09 1.84-.33c.3-.06.61-.1.91-.18.56-.15 1-.58 1.39-1 .45-.5.85-1.05 1.26-1.58.23-.3.47-.61.76-.86.11-.1.24-.2.38-.23.2-.03.33.2.42.33l.13.23.12.27.14.28.06.15c.22.48.47 1.06.95 1.33.17.1.36.14.55.16.2.02.39.03.58.02.58-.02 1.16-.12 1.72-.23 1.14-.23 2.25-.55 3.36-.88 1.17-.35 2.35-.64 3.54-.9 3.23-.7 6.53-1.2 9.74-2Z"/><path fill="#F1D244" d="M189.72 228.56c-1.25 0-2.49.06-3.73.14-1.66.11-3.32.26-4.98.3h-.02c0 .01 0 .02.02.02 2-.16 4.02-.07 6.02 0a123.26 123.26 0 0 0 6.83.02c1.18-.03 2.36-.09 3.53-.12 1.18-.02 2.36-.02 3.54-.02a90.65 90.65 0 0 1-3.54-.08c-1.24-.06-2.49-.15-3.73-.2a92.3 92.3 0 0 0-3.94-.06Zm29.42-1.07a58.26 58.26 0 0 0-4.18.03c-.88.04-1.77.11-2.65.21-1.73.2-3.45.5-5.19.68l.01.02c1.85-.31 3.72-.33 5.58-.35a166.8 166.8 0 0 0 6.06-.19c1-.05 2.01-.13 3.02-.18a97.8 97.8 0 0 1 3.33-.12c-.98.02-1.98.03-2.96 0-1-.02-2.01-.08-3.02-.1Zm4.46 27.99c-1.9.04-3.79.05-5.68.13a121.4 121.4 0 0 0-6.02.48c-1.76.18-3.52.38-5.29.27h-.01l.01.02c.47 0 .94.02 1.4.03 1.9.05 3.8.11 5.68-.01 1.3-.08 2.6-.21 3.9-.37 1.06-.13 2.12-.29 3.18-.4.94-.08 1.88-.13 2.82-.15Zm-19.81-80.51a3.07 3.07 0 0 0-1.34.36 6.75 6.75 0 0 0-2.68 3.08c-1.31 3.06-.16 6.63 1.36 9.38l.14.24c-1.17.3-2.34.62-3.44 1.13-.67.32-1.29.75-1.9 1.15a23.15 23.15 0 0 0-2.7 2.04c.91-.8 1.91-1.5 2.93-2.14.62-.4 1.22-.8 1.9-1.08 1.05-.45 2.17-.71 3.28-.99.24.42.49.83.74 1.23a27.4 27.4 0 0 0 3.77 4.88 14.98 14.98 0 0 0 4.63 3.1c.85.3 1.75.41 2.56.81.25.12.48.27.67.47.24.25.37.58.6.84.22.25.52.4.84.49.5.13 1.03.15 1.54.2.87.1 1.74.16 2.61.22 1.96.12 3.93.18 5.89.3-.4-.02-.79-.07-1.18-.1-1.57-.08-3.14-.13-4.71-.25l-1.56-.12-1.3-.17c-.42-.05-.85-.07-1.26-.19-.3-.09-.57-.22-.77-.46-.2-.24-.31-.53-.5-.77a2.4 2.4 0 0 0-.8-.6c-.8-.43-1.7-.58-2.54-.9a8.98 8.98 0 0 1-1.21-.6c-2.95-1.7-4.97-4.36-6.74-7.19l-.8-1.3a19.8 19.8 0 0 0 1.71-.51 6.22 6.22 0 0 0 3.23-2.34c.55-.86.76-1.9.83-2.9a9.87 9.87 0 0 0-1.2-5.5c-.57-.96-1.47-1.8-2.6-1.81Zm21.4 25.71Zm1.58.12c.47.04.94.08 1.4.14.01 0 .02 0 .02-.02-.48-.06-.95-.08-1.42-.12Zm-35.4-6.61-1.78 1.91 1.78-1.91Zm12.51-18.75c1.12.05 1.94 1.12 2.42 2.08.75 1.52 1.07 3.38.94 5.06a5.53 5.53 0 0 1-.7 2.46 6.17 6.17 0 0 1-3.28 2.4c-.5.19-1 .3-1.52.45l-.05-.1c-.27-.47-.51-.94-.73-1.43-1.16-2.52-1.88-5.64-.51-8.22a6.35 6.35 0 0 1 2.22-2.39 2.15 2.15 0 0 1 1.21-.31Zm46.5 88.85a.32.32 0 0 0-.23.08c-.04.04.01.05-.04.04-.02 0-.1.11-.1.12a1 1 0 0 0-.13.35c-.04.26 0 .62.26.77.14.08.3.05.44-.02.31-.17.42-.57.3-.9-.05-.1-.13-.21-.26-.23 0-.04 0-.08-.03-.11a.3.3 0 0 0-.21-.1Zm.28.3.02.01c.17.21.02.7-.28.7v-.02l.02-.1c.02-.09.06-.16.09-.24l.06-.12c.07-.06.1-.14.1-.23Z"/><path fill="#fff" d="M246.8 277.58c-1.7 0-3.4.1-5.1.24-.78.06-1.58.08-2.36.18l-.22.04-.22.03c-.06.01-.2.09-.21.15-.02.13.27.17.35.19.45.08.91.12 1.37.17 1.85.17 3.7.34 5.51.72.42.09.83.18 1.23.32.15.06.32.12.44.24.04.02.1.1.07.14-.08.1-.27.13-.38.16a7 7 0 0 1-1.02.1c-1.42.08-2.86.03-4.28-.01-.46-.01-.93-.04-1.4-.03-1.15.01-2.32.15-3.47.3-1.96.28-3.9.73-5.8 1.28a38.5 38.5 0 0 1 8.7-1.5c.91-.04 1.83.01 2.74.04 1.28.03 2.57.08 3.85-.02.3-.02.6-.04.89-.13.08-.02.19-.06.24-.13.1-.15-.09-.3-.2-.36-.29-.18-.64-.27-.97-.36l-.3-.07-.32-.07a43.66 43.66 0 0 0-5.19-.72c-.48-.05-.97-.1-1.44-.17-.12-.02-.24-.03-.35-.06l-.07-.02h.01l.04-.02.01-.01c.32-.04.64-.09.96-.11.4-.04.8-.03 1.19-.07l2.38-.16c2.82-.15 5.7-.23 8.49.3a.1.1 0 0 0 .1-.07c.01-.05-.01-.1-.06-.1a25.22 25.22 0 0 0-5.2-.4Zm-15.49 4.22Z"/><defs><filter id="a" width="367.26" height="236.51" x="10.33" y="113.11" color-interpolation-filters="sRGB" filterUnits="userSpaceOnUse"><feFlood flood-opacity="0" result="BackgroundImageFix"/><feBlend in="SourceGraphic" in2="BackgroundImageFix" result="shape"/><feGaussianBlur result="effect1_foregroundBlur_1_3747" stdDeviation=".02"/></filter><filter id="b" width="15.74" height="26.93" x="95.71" y="198.21" color-interpolation-filters="sRGB" filterUnits="userSpaceOnUse"><feFlood flood-opacity="0" result="BackgroundImageFix"/><feBlend in="SourceGraphic" in2="BackgroundImageFix" result="shape"/><feGaussianBlur result="effect1_foregroundBlur_1_3747"/></filter><filter id="c" width="15.74" height="26.68" x="96.01" y="147.46" color-interpolation-filters="sRGB" filterUnits="userSpaceOnUse"><feFlood flood-opacity="0" result="BackgroundImageFix"/><feBlend in="SourceGraphic" in2="BackgroundImageFix" result="shape"/><feGaussianBlur result="effect1_foregroundBlur_1_3747"/></filter><filter id="d" width="15.74" height="26.71" x="120.36" y="147.26" color-interpolation-filters="sRGB" filterUnits="userSpaceOnUse"><feFlood flood-opacity="0" result="BackgroundImageFix"/><feBlend in="SourceGraphic" in2="BackgroundImageFix" result="shape"/><feGaussianBlur result="effect1_foregroundBlur_1_3747"/></filter><filter id="e" width="15.74" height="26.68" x="120.43" y="198.02" color-interpolation-filters="sRGB" filterUnits="userSpaceOnUse"><feFlood flood-opacity="0" result="BackgroundImageFix"/><feBlend in="SourceGraphic" in2="BackgroundImageFix" result="shape"/><feGaussianBlur result="effect1_foregroundBlur_1_3747"/></filter><filter id="f" width="17.97" height="16.06" x="206.12" y="240.48" color-interpolation-filters="sRGB" filterUnits="userSpaceOnUse"><feFlood flood-opacity="0" result="BackgroundImageFix"/><feBlend in="SourceGraphic" in2="BackgroundImageFix" result="shape"/><feGaussianBlur result="effect1_foregroundBlur_1_3747"/></filter><filter id="g" width="15.57" height="16.06" x="110.02" y="117.56" color-interpolation-filters="sRGB" filterUnits="userSpaceOnUse"><feFlood flood-opacity="0" result="BackgroundImageFix"/><feBlend in="SourceGraphic" in2="BackgroundImageFix" result="shape"/><feGaussianBlur result="effect1_foregroundBlur_1_3747"/></filter><filter id="h" width="19.89" height="42.57" x="180.87" y="242.01" color-interpolation-filters="sRGB" filterUnits="userSpaceOnUse"><feFlood flood-opacity="0" result="BackgroundImageFix"/><feBlend in="SourceGraphic" in2="BackgroundImageFix" result="shape"/><feGaussianBlur result="effect1_foregroundBlur_1_3747"/></filter><filter id="i" width="17.97" height="16.78" x="205.87" y="210.96" color-interpolation-filters="sRGB" filterUnits="userSpaceOnUse"><feFlood flood-opacity="0" result="BackgroundImageFix"/><feBlend in="SourceGraphic" in2="BackgroundImageFix" result="shape"/><feGaussianBlur result="effect1_foregroundBlur_1_3747"/></filter><filter id="j" width="20.33" height="17" x="180.26" y="210.94" color-interpolation-filters="sRGB" filterUnits="userSpaceOnUse"><feFlood flood-opacity="0" result="BackgroundImageFix"/><feBlend in="SourceGraphic" in2="BackgroundImageFix" result="shape"/><feGaussianBlur result="effect1_foregroundBlur_1_3747"/></filter></defs></svg>