<svg width="692" height="831" fill="none" xmlns="http://www.w3.org/2000/svg"><path d="m558.32 273.45-6.48 4.32-3.08-.92-8.33 1.85-7.1.92-24.97 17.9-6.17-4.94-1.85 3.7-8.01-.62-27.14 9.26-7.71 475.03-24.06-492-11.71-3.7-5.86 1.54-18.81-16.04-21.59 7.71-6.48-.61v3.08l-8.01.62-23.13 279.16-12.95-254.18-6.17.93-9.25-4.94-14.8 13.58-4.01-2.16-19.43 15.42-5.55-4.01-12.03-1.85-4.93 78.04-22.82-91.92-6.48-4.94-6.17-2.47-15.1-16.96-21.6-9.56-26.2-15.43" stroke="#007BCA" stroke-miterlimit="10"/><path d="m558.75 272.25-6.35 4.26-3.02-.93-8.18 1.85-6.94.9-24.48 17.52-6.04-4.78-1.82 3.6-7.87-.58-26.58 9.07-9.44 464.42-1.88-37.08-7.7-139.7-7.56-138.53-4.32-75.73-5.09-89.48-11.5-3.55-5.74 1.54-18.53-15.55-21.19 7.62-6.38-.55v3.02l-7.9.65-15.38 172.8-8.91 99.79-.5-8.8-8.48-145.53-5.4-93.58-6.04.86-9.1-4.84-14.55 13.14-3.95-2.13-19.12 14.93-5.45-3.95-11.82-1.85-5.33 75.79-22.85-90.1-6.39-4.88-6.07-2.43-14.86-16.66-21.22-9.44-25.78-15.18" stroke="#027ECA" stroke-miterlimit="10"/><path d="m559.18 271.08-6.23 4.13-2.96-.86-7.99 1.79-6.81.92-24 17.12-5.91-4.66-1.82 3.55-7.68-.55-26.03 8.91-11.16 453.75-1.91-36.43-8.4-135.41-8.16-135.88-4.84-73.82-5.7-87.45-11.33-3.42-5.64 1.54-18.23-15.05-20.81 7.56-6.23-.53-.06 2.96-7.71.65-16.2 169.31-9.3 96.74-.53-8.6-9.37-141.38-5.86-91.67-5.95.83-8.95-4.81-14.34 12.74-3.85-2.1-18.81 14.47-5.37-3.89-11.6-1.88-5.7 73.54-22.94-88.31-6.26-4.75-5.95-2.41-14.68-16.35-20.85-9.32-25.32-14.96" stroke="#0581CA" stroke-miterlimit="10"/><path d="m559.61 269.87-6.1 4.08-2.9-.87-7.83 1.8-6.63.89-23.53 16.75-5.83-4.5-1.76 3.45-7.52-.53-25.5 8.73-12.83 443.14-2-35.81-9.05-131.13-8.81-133.23-5.37-71.93-6.32-85.41-11.07-3.24-5.55 1.51-17.92-14.53-20.45 7.44-6.13-.47-.06 2.9-7.59.68-16.96 165.83-9.68 93.65-.59-8.45-10.24-137.14-6.38-89.8-5.83.77-8.76-4.72-14.12 12.31-3.8-2.06-18.5 13.97-5.27-3.83-11.38-1.88-6.1 71.29-23.01-86.5-6.14-4.68-5.86-2.38-14.43-16.04-20.47-9.2-24.9-14.7" stroke="#0785C9" stroke-miterlimit="10"/><path d="m560.01 268.7-5.95 3.95-2.83-.8-7.65 1.73-6.5.9-23.04 16.37-5.7-4.38-1.74 3.36-7.37-.5-24.94 8.62-14.56 432.46-2.04-35.16L448 568.4l-9.44-130.54-5.9-70.05-6.93-83.38-10.89-3.11-5.46 1.48-17.6-14-20.08 7.37-6.01-.44-.07 2.84-7.46.71L340.4 441.6l-10.06 90.6-.61-8.28-11.1-132.94-6.88-87.92-5.74.75-8.6-4.66-13.88 11.87-3.73-2.03-18.2 13.48-5.17-3.74-11.17-1.9-6.47 69-23.07-84.68-6.04-4.6-5.74-2.34-14.25-15.73-20.07-9.04-24.46-14.5" stroke="#0988C9" stroke-miterlimit="10"/><path d="m560.45 267.5-5.83 3.89-2.78-.8-7.5 1.72-6.35.87-22.54 16.03-5.58-4.25-1.7 3.27-7.21-.47-24.4 8.43-16.28 421.85-2.06-34.55-10.4-122.55-10.08-127.89-6.41-68.17-7.56-81.34-10.67-2.96-5.33 1.48-17.33-13.51-19.68 7.28-5.92-.37-.1 2.77-7.27.71-18.56 158.86-10.46 87.51-.68-8.11-11.96-128.75-7.37-86-5.61.68-8.45-4.57L280.72 310l-3.67-1.97L259.19 321l-5.09-3.67-10.94-1.92-6.88 66.75-23.13-82.85-5.92-4.53-5.64-2.32-14-15.39-19.74-8.94-24-14.22" stroke="#0C8BC9" stroke-miterlimit="10"/><path d="m560.88 266.33-5.7 3.76-2.72-.74-7.31 1.67-6.23.89-22.05 15.64-5.46-4.13-1.7 3.2-7.02-.43-23.84 8.24-18.01 411.21-2.1-33.9-11.07-118.26-10.73-125.24-6.94-66.29-8.14-79.27-10.49-2.84-5.24 1.48-16.99-13.02-19.33 7.22-5.77-.34-.12 2.71-7.16.75-19.33 155.34-10.86 84.45-.7-7.95-12.84-124.53-7.86-84.12-5.52.62-8.3-4.47-13.41 11-3.6-1.94-17.55 12.5-5-3.61-10.73-1.91-7.28 64.46-23.16-81.06-5.86-4.41-5.52-2.28-13.78-15.12-19.34-8.82-23.56-13.97" stroke="#0E8EC9" stroke-miterlimit="10"/><path d="m561.3 265.12-5.57 3.7-2.65-.74-7.16 1.67-6.07.87-21.56 15.26-5.33-3.98-1.67 3.12-6.88-.4-23.28 8.08-19.7 400.57-2.16-33.28L447.52 546l-11.35-122.55-7.46-64.4-8.8-77.28-10.26-2.68-5.12 1.48-16.71-12.52-18.94 7.12-5.67-.28-.16 2.66-7 .77-20.13 151.85-11.23 81.34-.74-7.74-13.7-120.33-8.38-82.24-5.4.59-8.14-4.44-13.16 10.61-3.55-1.91-17.24 12-4.9-3.55-10.52-1.91-7.65 62.21-23.25-79.24-5.73-4.35-5.4-2.25-13.57-14.8-18.96-8.68-23.13-13.75" stroke="#1192C8" stroke-miterlimit="10"/><path d="m561.74 263.95-5.46 3.58-2.59-.68-6.97 1.6-5.95.87-21.06 14.9-5.24-3.86-1.6 3.06-6.73-.37-22.76 7.9-21.4 389.92-2.22-32.63-12.4-109.7-12-119.9-7.98-62.52-9.37-75.2-10.09-2.56-5.02 1.48-16.41-12-18.56 7.03-5.56-.28-.15 2.63-6.88.77-20.9 148.37-11.63 78.29-.77-7.6-14.56-116.13-8.88-80.32-5.3.52-7.99-4.35-12.95 10.21-3.46-1.91-16.92 11.5-4.81-3.48-10.3-1.91-8.05 59.96-23.29-77.42-5.64-4.29-5.3-2.22-13.36-14.47-18.6-8.57-22.66-13.51" stroke="#1395C8" stroke-miterlimit="10"/><path d="m562.14 262.75-5.3 3.51-2.53-.67-6.82 1.6-5.76.83-20.63 14.53-5.1-3.7-1.56 2.96-6.57-.34-22.2 7.74-23.13 379.3-2.25-32.03-13.08-105.4-12.64-117.25-8.51-60.6-10-73.2-9.83-2.38-4.94 1.45-16.13-11.5-18.16 6.93-5.43-.21-.18 2.56-6.72.8-21.71 144.85-12 75.24-.83-7.4-15.45-111.95-9.38-78.44-5.18.46-7.83-4.25-12.7 9.77-3.4-1.88-16.62 11.02-4.72-3.4-10.11-1.94-8.42 57.71-23.34-75.63-5.52-4.17-5.19-2.22-13.13-14.16-18.23-8.42-22.23-13.3" stroke="#1598C8" stroke-miterlimit="10"/><path d="m562.57 261.55-5.18 3.42-2.46-.62-6.63 1.54-5.65.87-20.13 14.13-4.97-3.58-1.57 2.9-6.38-.31-21.65 7.56-24.86 368.64-2.28-31.37-13.75-101.11-13.26-114.57-9.04-58.76-10.6-71.16-9.66-2.22-4.81 1.45-15.82-11.01-17.82 6.87-5.3-.18-.23 2.47-6.56.83-22.48 141.4-12.4 72.15-.86-7.25-16.32-107.75-9.87-76.53-5.08.44-7.65-4.2-12.5 9.35-3.32-1.85-16.32 10.54-4.62-3.36-9.9-1.94-8.79 55.46-23.4-73.81-5.43-4.1-5.09-2.17-12.89-13.88-17.85-8.3-21.8-13.04" stroke="#189BC8" stroke-miterlimit="10"/><path d="m563 260.37-5.05 3.33-2.4-.61-6.48 1.54-5.5.83-19.64 13.76-4.84-3.42-1.54 2.77-6.23-.27-21.1 7.4-26.57 358.03-2.32-30.75-14.43-96.83-13.9-111.9-9.57-56.86-11.22-69.13-9.44-2.1-4.71 1.43-15.52-10.5-17.42 6.8-5.21-.13-.22 2.4-6.44.87-23.29 137.88-12.76 69.1-.9-7.1-17.17-103.52-10.4-74.64-4.93.37-7.52-4.14-12.28 8.95-3.24-1.82-16 10.06-4.53-3.28-9.69-1.97-9.19 53.18-23.46-72-5.3-4-5-2.13-12.68-13.58-17.48-8.17-21.34-12.8" stroke="#1A9EC8" stroke-miterlimit="10"/><path d="m563.44 259.17-4.97 3.24-2.31-.56-6.3 1.52-5.36.8-19.15 13.38-4.72-3.3-1.5 2.72-6.05-.25-20.57 7.25-28.28 347.36-2.4-30.1-15.08-92.54-14.53-109.26-10.11-54.97-11.81-67.09-9.26-1.94-4.59 1.42-15.23-10-17.06 6.73-5.09-.1-.21 2.35-6.3.9-24.08 134.39-13.17 66.01-.95-6.9-18.01-99.33-10.89-72.77-4.84.34-7.37-4.07-12.02 8.51-3.18-1.79-15.7 9.56-4.44-3.2-9.47-1.98-9.55 50.93-23.53-70.18-5.22-3.94-4.87-2.1-12.46-13.23-17.11-8.06-20.9-12.58" stroke="#1CA2C7" stroke-miterlimit="10"/><path d="m563.87 258-4.84 3.14-2.25-.55-6.14 1.48-5.21.83-18.66 12.99-4.63-3.15-1.44 2.63-5.9-.22-20.04 7.06-29.97 336.75-2.44-29.49-15.76-88.25-15.17-106.6-10.6-53.09-12.47-65.02-9.03-1.82-4.5 1.42-14.93-9.47-16.65 6.6-4.97-.03-.27 2.28-6.14.9L327 407.28l-13.56 62.96-1-6.75-18.9-95.13-11.38-70.86-4.71.28-7.22-3.98-11.78 8.08-3.14-1.75-15.36 9.06-4.35-3.11-9.25-2-9.96 48.67-23.6-68.36-5.08-3.85-4.78-2.1-12.24-12.93-16.75-7.92-20.44-12.34" stroke="#1FA5C7" stroke-miterlimit="10"/><path d="m564.3 256.8-4.72 3.05-2.19-.53-5.95 1.49-5.09.8-18.16 12.64-4.5-3.05-1.45 2.56-5.7-.18-19.5 6.88-31.7 326.1-2.46-28.8-16.44-84-15.82-103.92-11.13-51.2-13.05-63.03-8.82-1.63-4.4 1.38-14.63-8.97-16.3 6.54h-4.85l-.28 2.22-6.01.93-25.63 127.42-13.97 59.87-1.01-6.57-19.77-90.93-11.87-68.97-4.63.21-7.06-3.88-11.56 7.64-3.06-1.72-15.05 8.6-4.25-3.08-9.04-2-10.36 46.42-23.62-66.57-5-3.76-4.65-2.04-12.03-12.65-16.38-7.8-20-12.1" stroke="#21A8C7" stroke-miterlimit="10"/><path d="m564.73 255.62-4.6 2.96-2.12-.49-5.8 1.42-4.9.8-17.7 12.28-4.38-2.9-1.42 2.47-5.55-.16-18.94 6.73-33.42 315.46-2.5-28.2-17.12-79.7-16.43-101.27-11.66-49.32-13.7-60.95-8.6-1.51-4.31 1.38-14.31-8.48-15.91 6.45-4.75.06-.28 2.16-5.86.96-26.46 123.9-14.3 56.82-1.09-6.41L288 363.37l-12.4-67.06-4.5.15-6.9-3.85-11.32 7.25-3-1.67-14.73 8.08-4.16-3.02-8.82-2-10.74 44.17-23.71-64.75-4.87-3.7-4.57-2-11.8-12.31-15.98-7.68-19.58-11.85" stroke="#23ABC7" stroke-miterlimit="10"/><path d="m565.13 254.42-4.44 2.87-2.06-.46-5.62 1.42-4.78.77-17.2 11.9-4.26-2.77-1.39 2.4-5.4-.12-18.37 6.54-35.13 304.82-2.59-27.54-17.76-75.42-17.08-98.62-12.19-47.4-14.27-58.96-8.42-1.35-4.2 1.38-14.03-7.99-15.54 6.4-4.6.08-.33 2.1-5.7.96-27.24 120.42-14.7 53.77-1.12-6.24-21.5-82.54-12.88-65.15-4.41.1-6.72-3.77-11.1 6.82-2.94-1.64-14.43 7.6-4.07-2.94-8.6-2-11.13 41.89-23.75-62.96-4.78-3.58-4.47-2-11.56-12-15.64-7.56-19.12-11.6" stroke="#26AFC6" stroke-miterlimit="10"/><path d="m565.57 253.25-4.32 2.77-2-.43-5.47 1.36-4.62.8-16.71 11.5-4.14-2.61-1.35 2.3-5.25-.08-17.82 6.38-36.85 294.18-2.62-26.92-18.44-71.1-17.74-95.97-12.7-45.56-14.9-56.88-8.2-1.23-4.1 1.38-13.72-7.5-15.14 6.3-4.5.16-.35 2.03-5.58.99-28 116.94-15.1 50.68-1.15-6.08-22.39-78.32-13.38-63.26-4.29.06-6.57-3.7-10.88 6.38-2.84-1.6-14.12 7.1-3.98-2.88-8.39-2-11.53 39.64-23.8-61.14-4.7-3.52-4.31-1.97-11.38-11.7-15.24-7.4-18.68-11.38" stroke="#28B2C6" stroke-miterlimit="10"/><path d="m566 252.05-4.2 2.68-1.94-.4-5.27 1.35-4.5.78-16.23 11.13-4.03-2.5-1.33 2.22-5.06-.06-17.3 6.23-38.55 283.54-2.65-26.28-19.12-66.81-18.35-93.31-13.23-43.65-15.5-54.87-8.03-1.08-3.97 1.35-13.42-6.94-14.8 6.2-4.38.19-.34 1.97-5.46 1.02-28.8 113.42-15.48 47.63-1.17-5.92-23.25-74.1-13.88-61.38h-4.2l-6.4-3.61-10.65 5.95-2.77-1.57-13.79 6.63-3.91-2.8-8.17-2.04-11.9 37.35-23.88-59.31-4.6-3.43-4.22-1.91-11.13-11.38-14.86-7.31-18.26-11.14" stroke="#2BB5C6" stroke-miterlimit="10"/><path d="m566.43 250.84-4.07 2.62-1.88-.37-5.12 1.3-4.35.77-15.73 10.77-3.91-2.35-1.3 2.13-4.9-.03-16.75 6.05-40.27 272.92-2.68-25.66-19.8-62.53-19-90.65-13.75-41.77-16.13-52.84-7.77-.9-3.89 1.33L372 265.2l-14.4 6.1-4.3.25-.36 1.91-5.27 1.02-29.6 109.97-15.89 44.54-1.23-5.74-24.09-69.93-14.4-59.47-4.07-.06-6.26-3.55-10.42 5.56-2.69-1.55-13.47 6.14-3.83-2.74-7.95-2.04-12.3 35.1-23.94-57.5-4.47-3.36-4.1-1.88-10.92-11.07-14.52-7.19-17.8-10.89" stroke="#2DB8C6" stroke-miterlimit="10"/><path d="m566.86 249.67-3.95 2.53-1.82-.37-4.93 1.3-4.23.74-15.23 10.4-3.8-2.23-1.26 2.07h-4.75L510.7 270l-42 262.25-2.74-25.01L445.5 449l-19.64-87.98-14.28-39.91-16.71-50.77-7.59-.77-3.8 1.32-12.82-5.95-14.03 6.05-4.13.27-.4 1.85-5.16 1.05-30.37 106.45-16.28 41.46-1.27-5.55-24.94-65.7-14.93-57.6-3.95-.09-6.1-3.48-10.18 5.12-2.62-1.51-13.17 5.64-3.73-2.68-7.74-2.04L199 327.03l-24-55.67-4.38-3.28-4-1.88-10.7-10.76-14.13-7.03-17.36-10.68" stroke="#2FBBC6" stroke-miterlimit="10"/><path d="m567.3 248.47-3.83 2.43-1.76-.3-4.78 1.23-4.07.77-14.74 10-3.67-2.07-1.23 1.97-4.6.03-15.63 5.71-43.7 251.64-2.8-24.4-21.13-53.95-20.26-85.32-14.8-38-17.37-48.77-7.37-.61-3.67 1.32-12.55-5.46-13.63 5.96-4.04.34-.43 1.78-5 1.08-31.14 102.97-16.65 38.37-1.33-5.37-25.84-61.53-15.39-55.68-3.85-.16-5.95-3.39-9.94 4.69-2.59-1.48-12.82 5.15-3.64-2.6-7.53-2.06-13.07 30.6-24.06-53.89-4.25-3.17-3.92-1.85-10.45-10.43-13.75-6.94-16.93-10.43" stroke="#32BFC5" stroke-miterlimit="10"/><path d="m567.7 247.3-3.68 2.34-1.7-.3-4.62 1.22-3.88.75-14.28 9.62-3.55-1.94-1.23 1.9-4.41.07-15.08 5.55-45.43 240.97-2.83-23.75-21.8-49.66-20.91-82.67-15.33-36.12-17.95-46.7-7.18-.5-3.58 1.33-12.21-4.96-13.3 5.89-3.9.37-.44 1.73-4.84 1.07L313.59 373l-17.02 35.32-1.36-5.21-26.7-57.31-15.92-53.8-3.73-.18-5.77-3.33-9.74 4.25-2.5-1.45-12.52 4.7-3.55-2.57-7.3-2.07L194 319.7l-24.08-52.07-4.17-3.11-3.79-1.8-10.27-10.14-13.38-6.79-16.47-10.2" stroke="#34C2C5" stroke-miterlimit="10"/><path d="m568.13 246.1-3.55 2.24-1.64-.24-4.44 1.2-3.76.71-13.78 9.25-3.46-1.79-1.17 1.82-4.25.1-14.56 5.36-47.12 230.37-2.87-23.14-22.48-45.38-21.52-79.98-15.85-34.24-18.6-44.7-6.97-.33-3.45 1.32-11.94-4.47-12.89 5.8-3.82.4-.43 1.7-4.72 1.1-32.75 95.97-17.42 32.26-1.4-5.02-27.56-53.12-16.4-51.92-3.65-.24-5.6-3.27-9.5 3.88-2.44-1.44-12.21 4.19-3.46-2.47-7.09-2.1-13.85 26.1-24.17-50.28-4.04-3-3.7-1.78-10.03-9.84-13-6.66-16.05-9.97" stroke="#36C5C5" stroke-miterlimit="10"/><path d="m568.56 244.92-3.43 2.16-1.57-.25-4.29 1.17-3.6.71-13.3 8.92-3.33-1.7-1.14 1.73-4.1.15-14 5.19-48.84 219.71-2.94-22.48-23.12-41.09-22.17-77.33-16.38-32.36-19.18-42.63-6.75-.21-3.4 1.32-11.62-3.95-12.52 5.7-3.67.44-.5 1.64-4.56 1.1-33.52 92.51-17.82 29.19-1.42-4.88-28.44-48.92-16.93-50-3.51-.31-5.46-3.18-9.25 3.46-2.38-1.4-11.9 3.68-3.36-2.4-6.88-2.1-14.24 23.84-24.21-48.46-3.95-2.93-3.58-1.76-9.83-9.5-12.62-6.57-15.6-9.72" stroke="#39C8C5" stroke-miterlimit="10"/><path d="m568.99 243.72-3.3 2.06-1.51-.18-4.1 1.14-3.49.7-12.8 8.52-3.2-1.54-1.14 1.64-3.92.15-13.45 5.06-50.54 209.08-3-21.88-23.8-36.8L421.92 337l-16.9-30.48-19.8-40.6-6.53-.03-3.27 1.27-11.35-3.42-12.12 5.61-3.57.5-.5 1.57-4.4 1.14-34.33 88.99-18.23 26.13-1.45-4.72-29.32-44.7-17.4-48.12-3.42-.34-5.3-3.11-9.04 3.02-2.28-1.36-11.6 3.18-3.26-2.31-6.66-2.1-14.62 21.53-24.3-46.64-3.83-2.84-3.48-1.7-9.6-9.22-12.26-6.41-15.18-9.47" stroke="#3BCBC5" stroke-miterlimit="10"/><path d="m569.42 242.54-3.18 1.98-1.45-.19-3.94 1.11-3.33.71-12.34 8.15-3.05-1.42-1.11 1.57-3.76.19-12.9 4.87-52.26 198.43-3.03-21.22-24.48-32.51-23.44-72-17.42-28.59-20.42-38.56-6.35.1-3.17 1.26-11.01-2.93-11.78 5.55-3.46.53-.5 1.5-4.28 1.18-35.12 85.5-18.6 23.05-1.5-4.54-30.17-40.5-17.91-46.24-3.3-.4-5.15-3.02-8.8 2.6-2.21-1.34-11.29 2.72-3.18-2.28-6.44-2.1-15.02 19.28-24.33-44.82-3.73-2.78-3.4-1.66-9.37-8.92-11.87-6.3-14.74-9.21" stroke="#3ECFC4" stroke-miterlimit="10"/><path d="m569.82 241.34-3.02 1.88-1.39-.15-3.76 1.1-3.18.69-11.87 7.77-2.93-1.26-1.08 1.48-3.6.21-12.34 4.72-54 187.8-3.05-20.61-25.17-28.23-24.08-69.34-17.95-26.71-21.03-36.52-6.13.25-3.06 1.26-10.73-2.44-11.38 5.46-3.33.59-.55 1.45-4.14 1.17-35.9 82.02-18.96 19.99-1.57-4.38-31.02-36.3-18.41-44.33-3.21-.47-5-2.96-8.54 2.2-2.16-1.3-10.97 2.22-3.09-2.22-6.26-2.1-15.39 17.03-24.39-43-3.6-2.69-3.28-1.66-9.16-8.58-11.5-6.17-14.3-9" stroke="#40D2C4" stroke-miterlimit="10"/><path d="m570.25 240.14-2.9 1.82-1.32-.13-3.6 1.05-3.03.71-11.38 7.38-2.84-1.15-1.01 1.42-3.46.25-11.81 4.53-55.7 177.16-3.1-19.96-25.82-23.94-24.73-66.69-18.47-24.8-21.62-34.52-5.95.4-2.93 1.27-10.45-1.94-10.98 5.4-3.24.61-.56 1.39-4 1.2-36.67 78.54-19.37 16.9-1.6-4.2-31.89-32.1-18.93-42.45-3.09-.5-4.8-2.9-8.36 1.76-2.07-1.26-10.67 1.73-3-2.13-6.03-2.13-15.76 14.78-24.46-41.21-3.54-2.6-3.15-1.63-8.91-8.27-11.17-6.04-13.84-8.76" stroke="#42D5C4" stroke-miterlimit="10"/><path d="m570.68 238.97-2.77 1.7-1.27-.1-3.42 1.05-2.9.68-10.88 7-2.72-.99-1.01 1.33-3.27.28-11.26 4.35-57.42 166.54-3.14-19.35-26.5-19.64-25.34-64.04-19-22.92-22.26-32.45-5.74.52-2.84 1.27-10.14-1.42-10.61 5.28-3.12.67-.55 1.3-3.86 1.26-37.5 75.02-19.73 13.85-1.63-4.04-32.8-27.88-19.4-40.57-2.98-.55-4.66-2.8-8.11 1.32-2.04-1.24-10.33 1.24-2.9-2.07-5.82-2.13-16.16 12.52-24.52-39.38-3.42-2.54-3.02-1.57-8.73-7.99-10.76-5.92-13.42-8.51" stroke="#45D8C4" stroke-miterlimit="10"/><path d="m571.12 237.76-2.66 1.64-1.2-.06-3.27.98-2.74.68-10.4 6.63-2.59-.83-.98 1.23-3.12.31-10.7 4.2-59.11 155.86-3.21-18.66-27.17-15.39-26-61.35-19.52-21.04-22.85-30.44-5.52.7-2.74 1.24-9.84-.93-10.24 5.22-3.02.7-.58 1.24-3.7 1.26-38.27 71.54-20.14 10.8-1.67-3.86-33.64-23.72-19.92-38.65-2.87-.59-4.5-2.75-7.87.9-1.97-1.2-10.02.77-2.8-2-5.62-2.17-16.56 10.28-24.55-37.6-3.33-2.41-2.93-1.58-8.48-7.65-10.39-5.8-12.98-8.3" stroke="#47DCC3" stroke-miterlimit="10"/><path d="m571.55 236.6-2.53 1.5-1.14-.03-3.09.99-2.62.65-9.9 6.26-2.46-.71-.96 1.14-2.96.37-10.14 4.01-60.85 145.26-3.24-18.05-27.84-11.1-26.65-58.7-20.04-19.16-23.47-28.38-5.3.83-2.66 1.24-9.52-.43-9.87 5.12-2.87.77-.62 1.17-3.57 1.3-39.04 68.04-20.54 7.71-1.7-3.7-34.5-19.5-20.42-36.76-2.78-.65-4.34-2.68-7.65.5-1.88-1.18-9.72.28-2.74-1.95-5.37-2.16-16.93 8.02L147 250.84l-3.2-2.34-2.84-1.54-8.27-7.35-10.02-5.67-12.52-8.05" stroke="#49DFC3" stroke-miterlimit="10"/><path d="m571.98 235.39-2.4 1.45h-1.09l-2.92.92-2.47.68-9.4 5.86-2.35-.55-.93 1.05-2.8.37-9.62 3.85-62.54 134.65-3.3-17.43-28.5-6.82-27.26-56.05-20.57-17.27-24.08-26.34-5.12.98-2.53 1.2-9.25.1-9.47 5.06-2.77.8-.62 1.11-3.42 1.33-39.84 64.53-20.94 4.65-1.76-3.54-35.37-15.3-20.91-34.86-2.65-.7-4.2-2.6-7.4.06-1.82-1.14-9.4-.21-2.65-1.86-5.15-2.19-17.33 5.74L144.47 249l-3.11-2.28-2.71-1.51-8.05-7.04-9.65-5.52-12.1-7.83" stroke="#4CE2C3" stroke-miterlimit="10"/><path d="m572.38 234.22-2.25 1.32-1.02.03-2.74.93-2.32.65-8.94 5.52-2.22-.46-.92.98-2.63.4-9.06 3.7L476 371.27l-3.33-16.78-29.17-2.53-27.9-53.37-21.1-15.39-24.7-24.3-4.9 1.1-2.44 1.2-8.95.6-9.1 4.96-2.64.86-.65 1.05-3.27 1.33-40.65 61.07-21.27 1.58-1.82-3.36-36.24-11.11-21.4-32.98-2.53-.74-4.07-2.52-7.15-.38-1.76-1.07-9.1-.71-2.56-1.82-4.93-2.2-17.7 3.5-24.76-32.15-3-2.19-2.62-1.45-7.83-6.75-9.28-5.4-11.63-7.6" stroke="#4EE5C3" stroke-miterlimit="10"/><path d="m572.81 233.01-2.16 1.27-.92.06-2.6.9-2.15.61-8.45 5.15-2.13-.3-.86.89-2.44.43-8.54 3.52L476.6 358.9l-3.4-16.17-29.84 1.76-28.53-50.71-21.62-13.51L367.9 258l-4.72 1.26-2.32 1.2-8.63 1.12-8.73 4.87-2.53.9-.67.98-3.15 1.36-41.41 57.56-21.68-1.51-1.85-3.18-37.1-6.88-21.93-31.1-2.4-.8-3.89-2.43-6.97-.8-1.66-1.05-8.8-1.2-2.46-1.76-4.72-2.2-18.1 1.24-24.8-30.32-2.9-2.1-2.49-1.45-7.62-6.41-8.9-5.31-11.2-7.34" stroke="#50E8C3" stroke-miterlimit="10"/><path d="m573.24 231.81-2.03 1.17-.9.1-2.37.86-2.04.62-7.95 4.78-2-.19-.84.84-2.28.46-7.99 3.36-67.69 102.69-3.42-15.52-30.53 6.05-29.17-48.06-22.14-11.6-25.94-20.27-4.47 1.42-2.25 1.2-8.33 1.61-8.35 4.78-2.4.96-.72.92-2.96 1.4-42.22 54.06-22.07-4.6-1.89-2.98-37.96-2.72-22.42-29.18-2.3-.83-3.74-2.4-6.72-1.21-1.6-1.02-8.49-1.7-2.37-1.66-4.5-2.2-18.5-1.04-24.86-28.53-2.78-2-2.4-1.43-7.4-6.1-8.52-5.16-10.76-7.09" stroke="#53ECC2" stroke-miterlimit="10"/><path d="m573.67 230.64-1.9 1.08-.84.12-2.22.83-1.88.62-7.46 4.38-1.88-.03-.8.74-2.14.5-7.43 3.17-69.41 92.08-3.49-14.9-31.17 10.33-29.82-45.37-22.67-9.75-26.52-18.2-4.29 1.57-2.13 1.18-8.04 2.1-7.96 4.71-2.31.99-.71.86-2.84 1.4-42.99 50.58-22.48-7.65-1.91-2.84-38.85 1.51-22.92-27.3-2.19-.89-3.57-2.31-6.48-1.64-1.54-.99-8.17-2.19-2.29-1.6-4.28-2.19-18.88-3.3-24.91-26.71-2.69-1.95-2.3-1.39-7.16-5.8-8.17-5.02-10.3-6.85" stroke="#55EFC2" stroke-miterlimit="10"/><path d="m574.1 229.25-1.78 1.02-.77.12-2.04.8-1.76.62-6.97 4.01-1.75.1-.8.67-1.95.53-6.9 2.99-71.12 81.43-3.51-14.25-31.86 14.62-30.44-42.72-23.19-7.87-27.16-16.16-4.07 1.73-2 1.17-7.78 2.6-7.59 4.62-2.19 1.05-.7.8-2.72 1.42-43.79 47.07-22.85-10.7-1.94-2.69-39.72 5.74-23.4-25.42-2.1-.95-3.43-2.23-6.26-2.06-1.48-.96-7.83-2.65-2.19-1.54-4.07-2.22-19.27-5.56-24.98-24.92-2.56-1.82-2.2-1.36-6.93-5.49-7.8-4.9-9.87-6.63" stroke="#58F2C2" stroke-miterlimit="10"/><path d="m574.54 225.61-1.67.9-.7.18-1.89.77-1.6.62-6.48 3.6-1.63.25-.77.59-1.8.55-6.34 2.84-72.84 70.8-3.55-13.64-32.53 18.91-31.09-40.07-23.71-5.95-27.75-14.13-3.9 1.85-1.9 1.17-7.43 3.12-7.22 4.53-2.07 1.08-.77.74-2.56 1.45-44.56 43.59-23.25-13.8-1.97-2.49-40.59 9.93-23.93-23.5-1.97-1.02-3.27-2.16-6.01-2.47-1.42-.95-7.52-3.15-2.1-1.48-3.86-2.22-19.64-7.8-25.04-23.1-2.47-1.77-2.1-1.32-6.72-5.19-7.4-4.78-9.43-6.38" stroke="#5AF5C2" stroke-miterlimit="10"/><path d="m578.98 223.36-1.51.8-.65.19-1.73.77-1.45.58-5.98 3.27-1.54.37-.71.5-1.63.58-5.8 2.69-74.54 60.12-3.64-13-33.18 23.2-31.73-37.38-24.24-4.07-28.37-12.1-3.67 2.01-1.79 1.14-7.15 3.61-6.85 4.44-1.94 1.15-.77.67-2.4 1.48-45.37 40.1-23.65-16.87-2.04-2.31-41.41 14.1-24.46-21.6-1.85-1.05-3.11-2.1-5.8-2.9-1.32-.92-7.22-3.64-2-1.39-3.64-2.25-20.05-10.06-25.1-21.28-2.38-1.7-1.97-1.26-6.47-4.87-7.07-4.66-8.97-6.17" stroke="#5CF9C1" stroke-miterlimit="10"/><path d="m585.3 220.64-1.39.71-.58.25-1.54.71-1.3.59-5.55 2.86-1.39.53-.7.4-1.46.62-5.24 2.53-76.26 49.5-3.67-12.36-33.86 27.48-32.35-34.73-24.76-2.2-28.99-10.05-3.48 2.13-1.7 1.14-6.85 4.13-6.44 4.38-1.85 1.14-.77.65-2.29 1.48-46.16 36.62-23.99-19.93-2.1-2.16-42.3 18.32-24.92-19.74-1.76-1.08-2.96-2.03-5.55-3.3-1.27-.9-6.9-4.13-1.92-1.33-3.42-2.25-20.44-12.34-25.14-19.46-2.28-1.6-1.85-1.24-6.3-4.56-6.65-4.54-8.54-5.92" stroke="#5FFCC1" stroke-miterlimit="10"/><path d="m591.62 217.93-95.29 47.5-3.7-11.72-34.54 31.77-33-32.08-25.28-.3-29.6-8.03-69.08 48.74-26.52-24.98-43.17 22.51-118.42-82.97" stroke="#61FFC1" stroke-miterlimit="10"/><path d="m585.64 219.97-95.32 44.66-3.88-11.63-34.73 30.26-33.21-32.02-25.23-.68-15.6-4.4-13.78-3.3-68.22 49.66-26.21-23.45-4.9 2.66-38.18 18.69-58.78-41.37-58.46-38.86" fill="#1672FF"/><path d="m585.64 219.97-95.32 44.66-3.88-11.63-34.73 30.26-33.21-32.02-25.23-.68-15.6-4.4-13.78-3.3-68.22 49.66-26.21-23.45-4.9 2.66-38.18 18.69-58.78-41.37-58.46-38.86" stroke="#62FEC2" stroke-miterlimit="10"/><path d="m579.66 222.03-95.35 41.83-4.04-11.54-34.94 28.75-33.4-31.95-25.2-1.12-15.57-4.53-13.56-2.87-67.39 50.62-25.93-21.9-4.81 2.71-38.15 17.5-58.83-41.65-57.27-35.87" fill="#1672FF"/><path d="m579.66 222.03-95.35 41.83-4.04-11.54-34.94 28.75-33.4-31.95-25.2-1.12-15.57-4.53-13.56-2.87-67.39 50.62-25.93-21.9-4.81 2.71-38.15 17.5-58.83-41.65-57.27-35.87" stroke="#63FEC3" stroke-miterlimit="10"/><path d="m573.67 224.07-95.38 38.99-4.22-11.45-35.13 27.24-33.6-31.9-25.11-1.47-15.57-4.7-13.39-2.4-66.51 51.57-25.63-20.41-4.75 2.83-38.12 16.23-58.9-41.86-56.03-32.91" fill="#1672FF"/><path d="m573.67 224.07-95.38 38.99-4.22-11.45-35.13 27.24-33.6-31.9-25.11-1.47-15.57-4.7-13.39-2.4-66.51 51.57-25.63-20.41-4.75 2.83-38.12 16.23-58.9-41.86-56.03-32.91" stroke="#64FDC4" stroke-miterlimit="10"/><path d="m567.66 226.1-95.35 36.19-4.44-11.36-35.3 25.73-33.84-31.86-25.04-1.86-15.54-4.84-13.17-1.97-65.65 52.53-25.38-18.88-4.69 2.9-38.08 15-58.93-42.11-54.83-29.92" fill="#1672FF"/><path d="m567.66 226.1-95.35 36.19-4.44-11.36-35.3 25.73-33.84-31.86-25.04-1.86-15.54-4.84-13.17-1.97-65.65 52.53-25.38-18.88-4.69 2.9-38.08 15-58.93-42.11-54.83-29.92" stroke="#65FCC5" stroke-miterlimit="10"/><path d="m561.68 228.14-95.38 33.34-4.63-11.26-35.5 24.22-34.04-31.77-24.98-2.28-15.5-4.97-12.99-1.51-64.79 53.45-25.07-17.33-4.63 2.96-38.05 13.76-59-42.35-53.59-26.93" fill="#1672FF"/><path d="m561.68 228.14-95.38 33.34-4.63-11.26-35.5 24.22-34.04-31.77-24.98-2.28-15.5-4.97-12.99-1.51-64.79 53.45-25.07-17.33-4.63 2.96-38.05 13.76-59-42.35-53.59-26.93" stroke="#67FCC6" stroke-miterlimit="10"/><path d="m555.7 230.2-95.42 30.51-4.77-11.16-35.71 22.7-34.23-31.74-24.95-2.65-15.51-5.16-12.77-1.01-63.93 54.38-24.8-15.8-4.52 3.06-38.03 12.52-59.05-42.6-52.4-23.96" fill="#1672FF"/><path d="m555.7 230.2-95.42 30.51-4.77-11.16-35.71 22.7-34.23-31.74-24.95-2.65-15.51-5.16-12.77-1.01-63.93 54.38-24.8-15.8-4.52 3.06-38.03 12.52-59.05-42.6-52.4-23.96" stroke="#68FBC7" stroke-miterlimit="10"/><path d="m549.71 232.18-95.44 27.67-4.96-11.07-35.9 21.19-34.45-31.68-24.88-3.03-15.48-5.3-12.55-.59-63.1 55.34-24.48-14.28-4.5 3.15L196 284.87l-59.11-42.85-51.16-20.98" fill="#1672FF"/><path d="m549.71 232.18-95.44 27.67-4.96-11.07-35.9 21.19-34.45-31.68-24.88-3.03-15.48-5.3-12.55-.59-63.1 55.34-24.48-14.28-4.5 3.15L196 284.87l-59.11-42.85-51.16-20.98" stroke="#69FAC8" stroke-miterlimit="10"/><path d="m547.74 232.15-95.47 24.86-5.12-10.98-36.08 19.68-34.7-31.62-24.79-3.42-15.45-5.46-12.37-.12-62.23 56.29-24.2-12.74-4.44 3.18-37.93 10.05-59.18-43.06-49.93-17.98" fill="#1672FF"/><path d="m547.74 232.15-95.47 24.86-5.12-10.98-36.08 19.68-34.7-31.62-24.79-3.42-15.45-5.46-12.37-.12-62.23 56.29-24.2-12.74-4.44 3.18-37.93 10.05-59.18-43.06-49.93-17.98" stroke="#6AFAC9" stroke-miterlimit="10"/><path d="m550.08 230.2-95.47 22.03-5.33-10.89L413 259.48l-34.88-31.53-24.76-3.82-15.42-5.62-12.18.34-61.37 57.26-23.93-11.23-4.34 3.27-37.9 8.82-59.21-43.3-48.73-15.03" fill="#1672FF"/><path d="m550.08 230.2-95.47 22.03-5.33-10.89L413 259.48l-34.88-31.53-24.76-3.82-15.42-5.62-12.18.34-61.37 57.26-23.93-11.23-4.34 3.27-37.9 8.82-59.21-43.3-48.73-15.03" stroke="#6BF9CA" stroke-miterlimit="10"/><path d="m552.46 230.45-95.54 19.19-5.49-10.8-36.48 16.63-35.06-31.5-24.7-4.19-15.42-5.74-11.96.77L267.27 273l-23.62-9.69-4.29 3.37-37.87 7.58-59.27-43.55-47.52-12.03" fill="#1672FF"/><path d="m552.46 230.45-95.54 19.19-5.49-10.8-36.48 16.63-35.06-31.5-24.7-4.19-15.42-5.74-11.96.77L267.27 273l-23.62-9.69-4.29 3.37-37.87 7.58-59.27-43.55-47.52-12.03" stroke="#6CF8CB" stroke-miterlimit="10"/><path d="m554.8 230.7-95.53 16.35-5.7-10.7-36.64 15.1-35.31-31.42-24.64-4.6-15.36-5.9-11.78 1.24-59.67 59.13-23.35-8.17-4.22 3.46-37.8 6.35-59.37-43.8-46.29-9.07" fill="#1672FF"/><path d="m554.8 230.7-95.53 16.35-5.7-10.7-36.64 15.1-35.31-31.42-24.64-4.6-15.36-5.9-11.78 1.24-59.67 59.13-23.35-8.17-4.22 3.46-37.8 6.35-59.37-43.8-46.29-9.07" stroke="#6DF8CC" stroke-miterlimit="10"/><path d="m557.15 230.92-95.57 13.5-5.86-10.57-36.85 13.6-35.5-31.37-24.57-4.97-15.36-6.07-11.6 1.7-58.8 60.08L250 260.2l-4.16 3.51-37.78 5.13-59.4-44.05-45.08-6.08" fill="#1672FF"/><path d="m557.15 230.92-95.57 13.5-5.86-10.57-36.85 13.6-35.5-31.37-24.57-4.97-15.36-6.07-11.6 1.7-58.8 60.08L250 260.2l-4.16 3.51-37.78 5.13-59.4-44.05-45.08-6.08" stroke="#6EF7CD" stroke-miterlimit="10"/><path d="m559.5 231.16-95.6 10.68-6.05-10.5-37.04 12.1-35.7-31.31-24.52-5.37-15.33-6.2-11.38 2.16-57.94 61.02-22.76-5.12-4.1 3.6-37.75 3.86-59.45-44.26-43.85-3.09" fill="#1672FF"/><path d="m559.5 231.16-95.6 10.68-6.05-10.5-37.04 12.1-35.7-31.31-24.52-5.37-15.33-6.2-11.38 2.16-57.94 61.02-22.76-5.12-4.1 3.6-37.75 3.86-59.45-44.26-43.85-3.09" stroke="#70F6CE" stroke-miterlimit="10"/><path d="m561.83 231.4-95.6 7.84-6.22-10.4-37.22 10.59-35.93-31.25-24.46-5.77-15.32-6.35-11.16 2.62-57.12 61.94-22.48-3.58-4 3.67-37.72 2.66-59.52-44.52-42.62-.12" fill="#1672FF"/><path d="m561.83 231.4-95.6 7.84-6.22-10.4-37.22 10.59-35.93-31.25-24.46-5.77-15.32-6.35-11.16 2.62-57.12 61.94-22.48-3.58-4 3.67-37.72 2.66-59.52-44.52-42.62-.12" stroke="#71F6CF" stroke-miterlimit="10"/><path d="m564.18 231.66-95.63 5-6.42-10.31-37.4 9.07-36.14-31.19-24.4-6.17-15.26-6.5-11 3.08-56.26 62.9-22.17-2.04-3.95 3.73-37.68 1.42-59.55-44.76-41.41 2.87" fill="#1672FF"/><path d="m564.18 231.66-95.63 5-6.42-10.31-37.4 9.07-36.14-31.19-24.4-6.17-15.26-6.5-11 3.08-56.26 62.9-22.17-2.04-3.95 3.73-37.68 1.42-59.55-44.76-41.41 2.87" stroke="#72F5D0" stroke-miterlimit="10"/><path d="m566.52 231.9-95.63 2.16-6.6-10.2-37.62 7.55-36.32-31.13-24.34-6.56-15.26-6.67-10.8 3.55-55.38 63.85-21.9-.52-3.88 3.82-37.65.19-59.61-45-40.21 5.82" fill="#1672FF"/><path d="m566.52 231.9-95.63 2.16-6.6-10.2-37.62 7.55-36.32-31.13-24.34-6.56-15.26-6.67-10.8 3.55-55.38 63.85-21.9-.52-3.88 3.82-37.65.19-59.61-45-40.21 5.82" stroke="#73F4D1" stroke-miterlimit="10"/><path d="m568.9 231.6-95.7-.65-6.75-10.15-37.8 6.07-36.58-31.09-24.27-6.9-15.23-6.82-10.58 3.97-54.55 64.81-21.59.99-3.82 3.92-37.62-1.05-59.67-45.25-38.98 8.82" fill="#1672FF"/><path d="m568.9 231.6-95.7-.65-6.75-10.15-37.8 6.07-36.58-31.09-24.27-6.9-15.23-6.82-10.58 3.97-54.55 64.81-21.59.99-3.82 3.92-37.62-1.05-59.67-45.25-38.98 8.82" stroke="#74F4D2" stroke-miterlimit="10"/><path d="m571.24 231.22-95.72-3.48-6.94-10.06-38 4.57-36.75-31.03-24.24-7.31-15.2-6.98-10.36 4.45-53.7 65.73-21.3 2.56-3.76 3.98-37.56-2.31-59.77-45.47-37.74 11.78" fill="#1672FF"/><path d="m571.24 231.22-95.72-3.48-6.94-10.06-38 4.57-36.75-31.03-24.24-7.31-15.2-6.98-10.36 4.45-53.7 65.73-21.3 2.56-3.76 3.98-37.56-2.31-59.77-45.47-37.74 11.78" stroke="#75F3D3" stroke-miterlimit="10"/><path d="m573.58 230.85-95.72-6.32-7.12-9.96-38.2 3.05-36.98-30.97-24.15-7.71-15.17-7.13-10.2 4.9-52.83 66.7-21.03 4.07-3.7 4.07-37.5-3.55-59.8-45.71-36.54 14.78" fill="#1672FF"/><path d="m573.58 230.85-95.72-6.32-7.12-9.96-38.2 3.05-36.98-30.97-24.15-7.71-15.17-7.13-10.2 4.9-52.83 66.7-21.03 4.07-3.7 4.07-37.5-3.55-59.8-45.71-36.54 14.78" stroke="#76F2D4" stroke-miterlimit="10"/><path d="m575.93 230.48-95.75-9.16-7.31-9.87L434.5 213l-37.19-30.9-24.11-8.12-15.14-7.25-10 5.34-51.96 67.65-20.75 5.58-3.64 4.13-37.47-4.75-59.85-45.96-35.31 17.77" fill="#1672FF"/><path d="m575.93 230.48-95.75-9.16-7.31-9.87L434.5 213l-37.19-30.9-24.11-8.12-15.14-7.25-10 5.34-51.96 67.65-20.75 5.58-3.64 4.13-37.47-4.75-59.85-45.96-35.31 17.77" stroke="#77F2D5" stroke-miterlimit="10"/><path d="m578.27 230.08-95.75-11.97-7.5-9.77-38.57.03-37.4-30.85-24.03-8.51-15.14-7.4-9.78 5.82L298.97 236l-20.44 7.1-3.58 4.23-37.44-5.99-59.91-46.2-34.08 20.72" fill="#1672FF"/><path d="m578.27 230.08-95.75-11.97-7.5-9.77-38.57.03-37.4-30.85-24.03-8.51-15.14-7.4-9.78 5.82L298.97 236l-20.44 7.1-3.58 4.23-37.44-5.99-59.91-46.2-34.08 20.72" stroke="#79F1D6" stroke-miterlimit="10"/><path d="m580.62 229.71-95.79-14.8-7.68-9.69-38.76-1.48-37.59-30.78-24-8.89-15.1-7.59-9.6 6.3-50.26 69.5-20.14 8.66-3.51 4.29-37.4-7.22-59.96-46.45-32.9 23.72" fill="#1672FF"/><path d="m580.62 229.71-95.79-14.8-7.68-9.69-38.76-1.48-37.59-30.78-24-8.89-15.1-7.59-9.6 6.3-50.26 69.5-20.14 8.66-3.51 4.29-37.4-7.22-59.96-46.45-32.9 23.72" stroke="#7AF1D7" stroke-miterlimit="10"/><path d="m582.96 229.34-95.82-17.64-7.83-9.6-38.95-3.02-37.8-30.69-23.93-9.28-15.08-7.72-9.4 6.73-49.41 70.45-19.86 10.18-3.45 4.38-37.38-8.48-60.01-46.7-31.67 26.7" fill="#1672FF"/><path d="m582.96 229.34-95.82-17.64-7.83-9.6-38.95-3.02-37.8-30.69-23.93-9.28-15.08-7.72-9.4 6.73-49.41 70.45-19.86 10.18-3.45 4.38-37.38-8.48-60.01-46.7-31.67 26.7" stroke="#7BF0D8" stroke-miterlimit="10"/><path d="M585.33 228.97 489.5 208.5l-8.05-9.5-39.13-4.53-38.03-30.67-23.86-9.65-15.05-7.87-9.2 7.2-48.56 71.4-19.59 11.7-3.36 4.46-37.34-9.71-60.07-46.95-30.44 29.7" fill="#1672FF"/><path d="M585.33 228.97 489.5 208.5l-8.05-9.5-39.13-4.53-38.03-30.67-23.86-9.65-15.05-7.87-9.2 7.2-48.56 71.4-19.59 11.7-3.36 4.46-37.34-9.71-60.07-46.95-30.44 29.7" stroke="#7CEFD9" stroke-miterlimit="10"/><path d="m587.67 228.57-95.87-23.29-8.2-9.4-39.35-6.05-38.21-30.6-23.8-10.06-15.06-8.02-9 7.65-47.68 72.37-19.3 13.23-3.3 4.54-37.31-10.95-60.14-47.2-29.2 32.7" fill="#1672FF"/><path d="m587.67 228.57-95.87-23.29-8.2-9.4-39.35-6.05-38.21-30.6-23.8-10.06-15.06-8.02-9 7.65-47.68 72.37-19.3 13.23-3.3 4.54-37.31-10.95-60.14-47.2-29.2 32.7" stroke="#7DEFDA" stroke-miterlimit="10"/><path d="m590.02 228.2-95.88-26.13-8.38-9.31-39.54-7.56-38.45-30.54-23.75-10.45-15.01-8.18-8.8 8.12-46.84 73.29-19 14.77-3.23 4.6-37.25-12.16-60.2-47.44-28 35.66" fill="#1672FF"/><path d="m590.02 228.2-95.88-26.13-8.38-9.31-39.54-7.56-38.45-30.54-23.75-10.45-15.01-8.18-8.8 8.12-46.84 73.29-19 14.77-3.23 4.6-37.25-12.16-60.2-47.44-28 35.66" stroke="#7EEEDB" stroke-miterlimit="10"/><path d="m592.36 227.83-95.9-28.96-8.57-9.23-39.72-9.07-38.64-30.47-23.69-10.83-14.98-8.33-8.6 8.55-46.02 74.24-18.69 16.3-3.17 4.68-37.22-13.39-60.26-47.69-26.8 38.65" fill="#1672FF"/><path d="m592.36 227.83-95.9-28.96-8.57-9.23-39.72-9.07-38.64-30.47-23.69-10.83-14.98-8.33-8.6 8.55-46.02 74.24-18.69 16.3-3.17 4.68-37.22-13.39-60.26-47.69-26.8 38.65" stroke="#7FEDDC" stroke-miterlimit="10"/><path d="m594.7 227.46-95.93-31.8-8.73-9.13-39.93-10.58-38.86-30.42-23.62-11.22-14.96-8.49-8.42 9-45.11 75.21-18.44 17.83-3.08 4.75-37.2-14.65-60.31-47.9-25.57 41.6" fill="#1672FF"/><path d="m594.7 227.46-95.93-31.8-8.73-9.13-39.93-10.58-38.86-30.42-23.62-11.22-14.96-8.49-8.42 9-45.11 75.21-18.44 17.83-3.08 4.75-37.2-14.65-60.31-47.9-25.57 41.6" stroke="#80EDDD" stroke-miterlimit="10"/><path d="m597.05 227.1-95.94-34.65-8.94-9.04-40.09-12.09-39.07-30.35-23.56-11.63-14.96-8.64-8.2 9.5-44.28 76.13-18.13 19.34-3.03 4.84-37.16-15.88-60.35-48.15-24.36 44.6" fill="#1672FF"/><path d="m597.05 227.1-95.94-34.65-8.94-9.04-40.09-12.09-39.07-30.35-23.56-11.63-14.96-8.64-8.2 9.5-44.28 76.13-18.13 19.34-3.03 4.84-37.16-15.88-60.35-48.15-24.36 44.6" stroke="#82ECDE" stroke-miterlimit="10"/><path d="m599.4 226.69-95.97-37.45-9.1-8.94-40.3-13.6-39.3-30.3-23.49-12.03-14.93-8.76-7.98 9.93-43.42 77.06-17.86 20.88-2.96 4.94-37.13-17.12-60.4-48.4-23.14 47.6" fill="#1672FF"/><path d="m599.4 226.69-95.97-37.45-9.1-8.94-40.3-13.6-39.3-30.3-23.49-12.03-14.93-8.76-7.98 9.93-43.42 77.06-17.86 20.88-2.96 4.94-37.13-17.12-60.4-48.4-23.14 47.6" stroke="#83EBDF" stroke-miterlimit="10"/><path d="m601.77 226.32-96-40.32-9.31-8.82-40.5-15.11-39.46-30.26-23.47-12.4-14.87-8.92-7.83 10.37-42.56 78.04-17.54 22.4-2.9 4.99-37.1-18.35-60.47-48.62-21.9 50.56" fill="#1672FF"/><path d="m601.77 226.32-96-40.32-9.31-8.82-40.5-15.11-39.46-30.26-23.47-12.4-14.87-8.92-7.83 10.37-42.56 78.04-17.54 22.4-2.9 4.99-37.1-18.35-60.47-48.62-21.9 50.56" stroke="#84EBE0" stroke-miterlimit="10"/><path d="m604.11 225.09-96.03-43.16-9.46-8.73-40.68-16.62-39.72-30.2-23.37-12.77-14.87-9.1-7.61 10.85-41.7 78.97-17.27 23.94-2.83 5.06-37.07-19.59-60.53-48.86-20.66 53.52" fill="#1672FF"/><path d="m604.11 225.09-96.03-43.16-9.46-8.73-40.68-16.62-39.72-30.2-23.37-12.77-14.87-9.1-7.61 10.85-41.7 78.97-17.27 23.94-2.83 5.06-37.07-19.59-60.53-48.86-20.66 53.52" stroke="#85EAE1" stroke-miterlimit="10"/><path d="m606.46 223.82-96.06-45.96-9.65-8.64-40.87-18.13-39.9-30.14-23.34-13.17-14.84-9.26-7.4 11.32-40.86 79.9-16.99 25.47-2.74 5.16-37.04-20.83-60.57-49.1-19.48 56.5" fill="#1672FF"/><path d="m606.46 223.82-96.06-45.96-9.65-8.64-40.87-18.13-39.9-30.14-23.34-13.17-14.84-9.26-7.4 11.32-40.86 79.9-16.99 25.47-2.74 5.16-37.04-20.83-60.57-49.1-19.48 56.5" stroke="#86E9E2" stroke-miterlimit="10"/><path d="m608.8 222.59-96.06-48.8-9.84-8.55-41.07-19.65-40.12-30.07-23.26-13.57-14.83-9.38-7.18 11.75-40.03 80.85-16.68 27-2.72 5.24-36.94-22.06L219.4 146l-18.26 59.5" fill="#1672FF"/><path d="m608.8 222.59-96.06-48.8-9.84-8.55-41.07-19.65-40.12-30.07-23.26-13.57-14.83-9.38-7.18 11.75-40.03 80.85-16.68 27-2.72 5.24-36.94-22.06L219.4 146l-18.26 59.5" stroke="#87E9E3" stroke-miterlimit="10"/><path d="m611.14 221.35-96.09-51.63-10.02-8.46-41.23-21.16-40.34-30-23.22-13.98-14.77-9.53-7.03 12.21-39.13 81.8-16.4 28.54-2.66 5.3-36.91-23.28-60.72-49.6-17.02 62.46" fill="#1672FF"/><path d="m611.14 221.35-96.09-51.63-10.02-8.46-41.23-21.16-40.34-30-23.22-13.98-14.77-9.53-7.03 12.21-39.13 81.8-16.4 28.54-2.66 5.3-36.91-23.28-60.72-49.6-17.02 62.46" stroke="#88E8E4" stroke-miterlimit="10"/><path d="m613.49 220.12-96.1-54.47-10.2-8.36-41.45-22.68-40.55-29.95-23.13-14.37-14.77-9.69-6.81 12.68-38.3 82.76-16.1 30.04-2.6 5.4-36.87-24.52-60.75-49.85-15.82 65.46" fill="#1672FF"/><path d="m613.49 220.12-96.1-54.47-10.2-8.36-41.45-22.68-40.55-29.95-23.13-14.37-14.77-9.69-6.81 12.68-38.3 82.76-16.1 30.04-2.6 5.4-36.87-24.52-60.75-49.85-15.82 65.46" stroke="#89E7E5" stroke-miterlimit="10"/><path d="m615.83 218.88-96.12-57.3-10.36-8.27-41.66-24.19-40.74-29.92-23.1-14.71-14.74-9.84-6.6 13.1-37.44 83.7-15.81 31.58-2.53 5.5-36.86-25.8-60.8-50.06-14.6 68.45" fill="#1672FF"/><path d="m615.83 218.88-96.12-57.3-10.36-8.27-41.66-24.19-40.74-29.92-23.1-14.71-14.74-9.84-6.6 13.1-37.44 83.7-15.81 31.58-2.53 5.5-36.86-25.8-60.8-50.06-14.6 68.45" stroke="#8BE7E6" stroke-miterlimit="10"/><path d="m618.2 217.65-96.18-60.15-10.54-8.17-41.82-25.73-40.95-29.83-23.04-15.11-14.74-10-6.41 13.6-36.58 84.62L332.4 200l-2.44 5.52-36.81-27-60.88-50.3-13.35 71.4" fill="#1672FF"/><path d="m618.2 217.65-96.18-60.15-10.54-8.17-41.82-25.73-40.95-29.83-23.04-15.11-14.74-10-6.41 13.6-36.58 84.62L332.4 200l-2.44 5.52-36.81-27-60.88-50.3-13.35 71.4" stroke="#8CE6E7" stroke-miterlimit="10"/><path d="m620.55 216.39-96.18-62.96-10.74-8.08-42.03-27.24-41.17-29.77-22.97-15.51-14.68-10.15-6.23 14.07-35.74 85.56-15.23 34.64-2.38 5.62-36.79-28.23-60.93-50.55-12.15 74.4" fill="#1672FF"/><path d="m620.55 216.39-96.18-62.96-10.74-8.08-42.03-27.24-41.17-29.77-22.97-15.51-14.68-10.15-6.23 14.07-35.74 85.56-15.23 34.64-2.38 5.62-36.79-28.23-60.93-50.55-12.15 74.4" stroke="#8DE5E8" stroke-miterlimit="10"/><path d="m622.9 215.15-96.22-65.8-10.92-7.98-42.21-28.75-41.36-29.7L409.28 67 394.6 56.73l-6.01 14.5-34.88 86.52-14.96 36.15-2.31 5.7-36.76-29.45-60.97-50.8-10.94 77.36" fill="#1672FF"/><path d="m622.9 215.15-96.22-65.8-10.92-7.98-42.21-28.75-41.36-29.7L409.28 67 394.6 56.73l-6.01 14.5-34.88 86.52-14.96 36.15-2.31 5.7-36.76-29.45-60.97-50.8-10.94 77.36" stroke="#8EE5E9" stroke-miterlimit="10"/><path d="M625.24 213.92 396.42 50.74l-56.74 145.9-97.76-81.74-9.71 80.36" fill="#1672FF"/><path d="M625.24 213.92 396.42 50.74l-56.74 145.9-97.76-81.74-9.71 80.36" stroke="#8FE4EA" stroke-miterlimit="10"/><path d="M625.42 213.95 396.05 54.81l-58.78 142.4-98.18-79.72-11.23 78.42" fill="#1672FF"/><path d="M625.42 213.95 396.05 54.81l-58.78 142.4-98.18-79.72-11.23 78.42" stroke="#92E5EB" stroke-miterlimit="10"/><path d="M625.6 214.01 395.66 58.91l-60.81 138.85-98.56-77.7-12.77 76.46" fill="#1672FF"/><path d="M625.6 214.01 395.66 58.91l-60.81 138.85-98.56-77.7-12.77 76.46" stroke="#94E5EB" stroke-miterlimit="10"/><path d="M625.8 214.04 395.27 63l-62.84 135.3-98.99-75.67-14.3 74.53" fill="#1672FF"/><path d="M625.8 214.04 395.27 63l-62.84 135.3-98.99-75.67-14.3 74.53" stroke="#97E6EC" stroke-miterlimit="10"/><path d="M625.98 214.07 394.9 67.06l-64.92 131.8-99.35-73.62-15.85 72.58" fill="#1672FF"/><path d="M625.98 214.07 394.9 67.06l-64.92 131.8-99.35-73.62-15.85 72.58" stroke="#9AE7EC" stroke-miterlimit="10"/><path d="M626.16 214.13 394.51 71.16l-66.92 128.3-99.8-71.66-17.35 70.67" fill="#1672FF"/><path d="M626.16 214.13 394.51 71.16l-66.92 128.3-99.8-71.66-17.35 70.67" stroke="#9DE7ED" stroke-miterlimit="10"/><path d="M626.35 214.17 394.14 75.23l-68.99 124.78L225 130.39l-18.9 68.7" fill="#1672FF"/><path d="M626.35 214.17 394.14 75.23l-68.99 124.78L225 130.39l-18.9 68.7" stroke="#9FE8ED" stroke-miterlimit="10"/><path d="M626.53 214.2 393.77 79.3l-71.02 121.26-100.6-67.58-20.44 66.75" fill="#1672FF"/><path d="M626.53 214.2 393.77 79.3l-71.02 121.26-100.6-67.58-20.44 66.75" stroke="#A2E9EE" stroke-miterlimit="10"/><path d="M626.72 214.23 393.37 83.4 320.3 201.1l-100.96-65.57-21.99 64.84" fill="#1672FF"/><path d="M626.72 214.23 393.37 83.4 320.3 201.1l-100.96-65.57-21.99 64.84" stroke="#A5E9EE" stroke-miterlimit="10"/><path d="M626.9 214.29 393 87.48l-75.1 114.2-101.39-63.55-23.5 62.86" fill="#1672FF"/><path d="M626.9 214.29 393 87.48l-75.1 114.2-101.39-63.55-23.5 62.86" stroke="#A8EAEF" stroke-miterlimit="10"/><path d="M627.09 214.32 392.63 91.58l-77.16 110.65-101.76-61.5-25.04 60.91" fill="#1672FF"/><path d="M627.09 214.32 392.63 91.58l-77.16 110.65-101.76-61.5-25.04 60.91" stroke="#AAEBEF" stroke-miterlimit="10"/><path d="M627.27 214.35 392.23 95.65l-79.16 107.13-102.2-59.5-26.55 59.01" fill="#1672FF"/><path d="M627.27 214.35 392.23 95.65l-79.16 107.13-102.2-59.5-26.55 59.01" stroke="#ADEBF0" stroke-miterlimit="10"/><path d="M627.46 214.41 391.86 99.73l-81.23 103.6-102.57-57.46-28.12 57.04" fill="#1672FF"/><path d="M627.46 214.41 391.86 99.73l-81.23 103.6-102.57-57.46-28.12 57.04" stroke="#B0ECF0" stroke-miterlimit="10"/><path d="M627.64 214.44 391.45 103.83l-83.23 100.06-103-55.43-29.63 55.1" fill="#1672FF"/><path d="M627.64 214.44 391.45 103.83l-83.23 100.06-103-55.43-29.63 55.1" stroke="#B3EDF1" stroke-miterlimit="10"/><path d="M627.83 214.47 391.08 107.9l-85.26 96.55-103.4-53.43-31.18 53.18" fill="#1672FF"/><path d="M627.83 214.47 391.08 107.9l-85.26 96.55-103.4-53.43-31.18 53.18" stroke="#B5EDF1" stroke-miterlimit="10"/><path d="m628.01 214.54-237.3-102.57-87.33 93.07-103.8-51.42-32.69 51.2" fill="#1672FF"/><path d="m628.01 214.54-237.3-102.57-87.33 93.07-103.8-51.42-32.69 51.2" stroke="#B8EEF2" stroke-miterlimit="10"/><path d="m628.2 214.57-237.89-98.5-89.33 89.52-104.2-49.41-34.26 49.29" fill="#1672FF"/><path d="m628.2 214.57-237.89-98.5-89.33 89.52-104.2-49.41-34.26 49.29" stroke="#BBEFF2" stroke-miterlimit="10"/><path d="m628.38 214.6-238.44-94.45-91.4 86-104.6-47.38-35.77 47.34" fill="#1672FF"/><path d="m628.38 214.6-238.44-94.45-91.4 86-104.6-47.38-35.77 47.34" stroke="#BDEFF3" stroke-miterlimit="10"/><path d="m628.57 214.66-239-90.44-93.44 82.48-105-45.34-37.31 45.4" fill="#1672FF"/><path d="m628.57 214.66-239-90.44-93.44 82.48-105-45.34-37.31 45.4" stroke="#C0F0F3" stroke-miterlimit="10"/><path d="m628.75 214.7-239.58-86.38-95.47 78.94-105.4-43.34-38.83 43.46" fill="#1672FF"/><path d="m628.75 214.7-239.58-86.38-95.47 78.94-105.4-43.34-38.83 43.46" stroke="#C3F1F4" stroke-miterlimit="10"/><path d="M628.94 214.72 388.8 132.4l-97.5 75.42-105.81-41.3-40.37 41.52" fill="#1672FF"/><path d="M628.94 214.72 388.8 132.4l-97.5 75.42-105.81-41.3-40.37 41.52" stroke="#C6F1F4" stroke-miterlimit="10"/><path d="m629.1 214.75-240.67-78.29-99.57 71.9-106.2-39.26-41.92 39.58" fill="#1672FF"/><path d="m629.1 214.75-240.67-78.29-99.57 71.9-106.2-39.26-41.92 39.58" stroke="#C8F2F5" stroke-miterlimit="10"/><path d="m629.28 214.81-241.25-74.24-101.58 68.35-106.6-37.26-43.45 37.63" fill="#1672FF"/><path d="m629.28 214.81-241.25-74.24-101.58 68.35-106.6-37.26-43.45 37.63" stroke="#CBF2F5" stroke-miterlimit="10"/><path d="m629.46 214.84-241.8-70.2-103.64 64.84L177 174.25l-44.96 35.69" fill="#1672FF"/><path d="m629.46 214.84-241.8-70.2-103.64 64.84L177 174.25l-44.96 35.69" stroke="#CEF3F6" stroke-miterlimit="10"/><path d="M629.65 214.88 387.29 148.7l-105.68 61.35-107.44-33.22-46.47 33.75" fill="#1672FF"/><path d="M629.65 214.88 387.29 148.7l-105.68 61.35-107.44-33.22-46.47 33.75" stroke="#D1F4F6" stroke-miterlimit="10"/><path d="M629.83 214.94 386.9 152.8l-107.71 57.8-107.81-31.2-48.02 31.8" fill="#1672FF"/><path d="M629.83 214.94 386.9 152.8l-107.71 57.8-107.81-31.2-48.02 31.8" stroke="#D3F4F7" stroke-miterlimit="10"/><path d="m630.02 214.97-243.5-58.09-109.75 54.3-108.24-29.19-49.56 29.86" fill="#1672FF"/><path d="m630.02 214.97-243.5-58.09-109.75 54.3-108.24-29.19-49.56 29.86" stroke="#D6F5F7" stroke-miterlimit="10"/><path d="m630.2 215-244.05-54.04-111.78 50.77-108.65-27.15-51.1 27.92" fill="#1672FF"/><path d="m630.2 215-244.05-54.04-111.78 50.77-108.65-27.15-51.1 27.92" stroke="#D9F6F8" stroke-miterlimit="10"/><path d="m630.39 215.06-244.64-50-113.82 47.22-109.05-25.13-52.6 26" fill="#1672FF"/><path d="m630.39 215.06-244.64-50-113.82 47.22-109.05-25.13-52.6 26" stroke="#DBF6F8" stroke-miterlimit="10"/><path d="m630.57 215.1-245.19-45.97-115.86 43.71-109.44-23.1-54.15 24.02" fill="#1672FF"/><path d="m630.57 215.1-245.19-45.97-115.86 43.71-109.44-23.1-54.15 24.02" stroke="#DEF7F9" stroke-miterlimit="10"/><path d="M630.76 215.12 385 173.2l-117.92 40.2-109.85-21.07-55.7 22.08" fill="#1672FF"/><path d="M630.76 215.12 385 173.2l-117.92 40.2-109.85-21.07-55.7 22.08" stroke="#E1F8F9" stroke-miterlimit="10"/><path d="M630.94 215.18 384.61 177.3l-119.93 36.65-110.24-19.06-57.24 20.17" fill="#1672FF"/><path d="M630.94 215.18 384.61 177.3l-119.93 36.65-110.24-19.06-57.24 20.17" stroke="#E4F8FA" stroke-miterlimit="10"/><path d="m631.13 214.97-246.89-33.84-122 33.16-110.64-17.06-58.75 18.23" fill="#1672FF"/><path d="m631.13 214.97-246.89-33.84-122 33.16-110.64-17.06-58.75 18.23" stroke="#E6F9FA" stroke-miterlimit="10"/><path d="m631.31 214.72-247.47-29.8-124 29.62-111.05-15.03-60.29 16.3" fill="#1672FF"/><path d="m631.31 214.72-247.47-29.8-124 29.62-111.05-15.03-60.29 16.3" stroke="#E9FAFB" stroke-miterlimit="10"/><path d="m631.5 214.44-248.03-25.72-126.07 26.06-111.44-12.98-61.8 14.34" fill="#1672FF"/><path d="m631.5 214.44-248.03-25.72-126.07 26.06-111.44-12.98-61.8 14.34" stroke="#ECFAFB" stroke-miterlimit="10"/><path d="M631.68 214.2 383.1 192.48 255 215.06l-111.85-10.98-63.37 12.4" fill="#1672FF"/><path d="M631.68 214.2 383.1 192.48 255 215.06l-111.85-10.98-63.37 12.4" stroke="#EFFBFC" stroke-miterlimit="10"/><path d="M631.87 213.95 382.7 196.28 252.56 215.3l-112.25-8.95-64.88 10.46" fill="#1672FF"/><path d="M631.87 213.95 382.7 196.28 252.56 215.3l-112.25-8.95-64.88 10.46" stroke="#F1FCFC" stroke-miterlimit="10"/><path d="m632.05 213.67-249.72-13.6-132.17 15.52-112.65-6.95-66.43 8.52" fill="#1672FF"/><path d="m632.05 213.67-249.72-13.6-132.17 15.52-112.65-6.95-66.43 8.52" stroke="#F4FCFD" stroke-miterlimit="10"/><path d="m632.24 213.43-250.28-9.6-134.24 12-113.05-4.9-67.94 6.57" fill="#1672FF"/><path d="m632.24 213.43-250.28-9.6-134.24 12-113.05-4.9-67.94 6.57" stroke="#F7FDFD" stroke-miterlimit="10"/><path d="m632.42 213.15-250.86-5.52-136.25 8.48-113.45-2.9-69.5 4.63" fill="#1672FF"/><path d="m632.42 213.15-250.86-5.52-136.25 8.48-113.45-2.9-69.5 4.63" stroke="#FAFEFE" stroke-miterlimit="10"/><path d="m632.6 212.9-251.41-1.48-138.28 4.94-113.88-.87L58 218.18" fill="#1672FF"/><path d="m632.6 212.9-251.41-1.48-138.28 4.94-113.88-.87L58 218.18" stroke="#FCFEFE" stroke-miterlimit="10"/><path d="m632.8 213.92-579.14 5.86" stroke="#fff" stroke-miterlimit="10"/><path d="M685.32 215.36 6.68 218.33l678.64-2.97Z" fill="#030157"/><path d="M685.32 215.36 6.68 218.33" stroke="#82CAFF" stroke-miterlimit="10"/><path d="m607.5 213.76-523.3 5.87 523.32-5.87Z" fill="#030058"/><path d="m607.5 213.76-523.3 5.87" stroke="#7FC9FF" stroke-miterlimit="10"/><path d="M248.86 402.85a1.23 1.23 0 1 0 0-2.46 1.23 1.23 0 0 0 0 2.46Z" fill="#fff"/><path d="M338.29 560.79a1.23 1.23 0 1 0 0-2.47 1.23 1.23 0 0 0 0 2.47Z" fill="#fff"/><path d="M457.63 780.72a1.23 1.23 0 1 0 0-2.47 1.23 1.23 0 0 0 0 2.47Z" fill="#fff"/></svg>