<svg width="739" height="637" fill="none" xmlns="http://www.w3.org/2000/svg"><g clip-path="url(#a)"><path d="M486.11 347.36Zm0 0Z" fill="#fff"/><path d="M486.23 347.38h-.12"/><path d="M486.17 347.33h.06"/><path d="M486.21 347.26v.07"/><path d="M486.21 347.26Zm0 0Z" fill="#fff"/><path d="M486.21 347.26h.05"/><path d="M486.19 347.2Zm0 0Z" fill="#fff"/><path d="M486.21 347.28h-.02"/><path d="M486.78 347.32h.04"/><path d="M486.82 347.36v-.04"/><path d="M486.86 347.36h-.04"/><path d="M486.86 347.36Zm0 0Z" fill="#fff"/><path d="M486.65 347.21Zm0 0Z" fill="#fff"/><path d="M486.67 347.23v.05"/><path d="M486.67 347.23Zm0 0Z" fill="#fff"/><path d="M486.48 347.3v.03"/><path d="M486.48 347.3Zm0 0Z" fill="#fff"/><path d="M486.48 347.3h-.07"/><path d="M486.2 347.41h.03"/><path d="M486.11 347.45h.03"/><path d="M486.1 347.45h.01Zm.01 0Z" fill="#fff"/><path d="M486.14 347.47h.03"/><path d="M486.14 347.47Zm0 0Z" fill="#fff"/><path d="M486.14 347.45v.02"/><path d="M486.16 347.47v.06"/><path d="M486.13 347.53h.03"/><path d="M486.13 347.53Zm0 0Z" fill="#fff"/><path d="M486.23 347.33v.12"/><path d="M486.23 347.32v.01Zm0 0Z" fill="#fff"/><path d="M486.23 347.33h.32"/><path d="M486.79 347.54h.04"/><path d="M486.88 347.52h-.05"/><path d="M486.88 347.52Zm0 0Z" fill="#fff"/><path d="M486.85 347.55h-.06"/><path d="M486.85 347.55Zm0 0Z" fill="#fff"/><path d="M486.83 347.56h-.05"/><path d="M486.83 347.56Zm0 0Z" fill="#fff"/><path d="M486.23 347.48v.14"/><path d="M486.18 347.56h.05"/><path d="M486.18 347.56Zm0 0Z" fill="#fff"/><path d="M486.2 347.58h.03"/><path d="M486.19 347.58Zm0 0Z" fill="#fff"/><path d="M486.78 347.57h.1"/><path d="M486.9 347.64h-.02.02Z" fill="#2B354E"/><path d="M486.9 347.64h-.02"/><path d="M486.9 347.64Zm0 0Z" fill="#fff"/><path d="M486.54 347.24h.08v.1h-.09v-.1Z" fill="#8CC2EE" fill-opacity=".84"/><path d="M486.54 347.24h.08v.1h-.09v-.1"/><path d="M486.54 347.24Zm0 0Z" fill="#fff"/><path d="M486.26 347.35h.42v.3h-.42v-.3Z" fill="#2B354E" fill-opacity=".67"/><path d="M486.28 347.36h.39v.28h-.4v-.27Z" fill="#2B354E" fill-opacity=".67"/><path d="M486.16 347.66h.64v.12h-.64v-.12Z" fill="#2B354E" fill-opacity=".67"/><path d="M486.17 347.77h.6v.01h-.6v-.01Z" fill="#2B354E" fill-opacity=".67"/><path d="M486.28 347.36h.38v.02h-.38v-.02Z" fill="#F1D244"/><path d="M486.34 347.45h.28v.02h-.28l-.01-.01.01-.01Z" fill="#F1D244" fill-opacity=".43"/><path d="M486.53 347.26Z" fill="#F1D244"/><path d="M486.34 347.45h.05v.01h-.06v-.01Z" fill="#8CC2EE"/><path d="M486.4 347.47h.22v.12h-.23v-.12Z" fill="#8CC2EE" fill-opacity=".5"/><path d="M486.37 347.46h.01Z" fill="#F1D244"/><path d="M486.37 347.47v-.01"/><path d="M486.4 347.49h.22"/><path d="M486.4 347.51h.22"/><path d="M486.4 347.53h.22"/><path d="M486.4 347.55h.16"/><path d="M486.4 347.57h.22"/><path d="M486.53 347.28h.24l.01.03v.34h-.24v-.35h-.01l-.02.02v-.03l.02-.01Z" fill="#2B354E" fill-opacity=".89"/><path d="m486.56 347.65.01-.03-.01-.02h.26v.05h-.26Z" fill="#2B354E" fill-opacity=".87"/><path d="M486.57 347.3h.09v.11h-.09v-.11Z" fill="#232C43"/><path d="M486.72 347.35h.05v.02h-.05v-.02Z" fill="#F1D244" fill-opacity=".76"/><path d="M486.76 347.38h.05v.02h-.05v-.01Z" fill="#F1D244" fill-opacity=".97"/><path d="M486.74 347.37h.05v.01h-.07v-.01Z" fill="#F1D244" fill-opacity=".8"/><path d="m486.73 347.4.1.06-.07.13-.1-.05.07-.13Z" fill="#232C43"/><path d="m486.68 347.42.12.02-.03.15-.12-.02.03-.15Z" fill="#1C263F"/><path d="M486.57 347.61h-.04v-.11h.11l.01.01v.09h-.1l.02.01Z" fill="#224767"/><path d="M486.29 347.15h.15c.01 0 .02.01.02.03v.08c0 .02 0 .03-.02.03h-.15a.02.02 0 0 1-.03-.03v-.08c0-.02.01-.03.03-.03Z" fill="#2B354E" fill-opacity=".95"/><path d="M486.38 347.22c0-.02.02-.04.03-.04.02 0 .04.02.04.04 0 .01-.02.03-.04.03a.03.03 0 0 1-.03-.03Z" fill="#2B354E" fill-opacity=".95"/><path d="M486.29 347.2h.08v.01h-.08v-.01Z" fill="#19202F"/><path d="M486.42 347.17v-.01.01Z" fill="#2B354E" fill-opacity=".67"/><path d="M486.44 347.17v-.01h.01v.01Z" fill="#2B354E" fill-opacity=".67"/><path d="M486.43 347.17v-.01.01Z" fill="#2B354E" fill-opacity=".67"/><path d="M486.3 347.26h.06v.05h-.07v-.05Z" fill="#F1D244"/><path d="M486.1 347.29h.05l.02.01v.05h-.07l-.01-.02v-.03l.01-.01Z" fill="#2B354E" fill-opacity=".67"/><path d="M486.17 347.45h.1v.03h-.1v-.03Z" fill="#2B354E" fill-opacity=".67"/><path d="M486.1 347.59c0-.02.01-.03.03-.03.02 0 .04.01.04.03 0 .02-.02.03-.04.03a.03.03 0 0 1-.03-.03Z" fill="#507694"/><path d="M486.1 347.59a.02.02 0 0 1 .06 0l-.03.02c-.01 0-.02 0-.02-.02Z" fill="#2B354E" fill-opacity=".91"/><path d="M486.83 347.32c0-.01 0-.03.02-.03s.03.02.03.03c0 .02-.01.03-.03.03a.03.03 0 0 1-.02-.03Z" fill="#2B354E" fill-opacity=".67"/><path d="M486.2 347.4h.01v.02h-.02v-.01l.01-.01Z" fill="#F1D244"/><path d="M486.15 347.4h.02l-.01.01v.01h-.01v-.02Z" fill="#F1D244"/><path d="M486.18 347.4h.01v.02h-.01l-.01-.01v-.01Z" fill="#F1D244"/><path d="M486.47 347.16h.02v.1h-.01v-.1Z" fill="#F1D244"/><path d="M486.47 347.27h.02v.01h-.02Z" fill="#F1D244"/><path d="M486.69 347.2c0-.01.01-.03.03-.03.02 0 .04.02.04.04s-.01.02-.02.03v.02h-.03v-.02s-.02-.01-.02-.03Z" fill="#F1D244"/><path d="M486.41 347.74h.19v.02h-.19v-.02Z" fill="#2B354E" fill-opacity=".67"/><path d="M486.4 347.69h.02v.01h-.02v-.01Z" fill="#2B354E" fill-opacity=".67"/><path d="M486.52 347.69h.02v.01h-.02v-.01Z" fill="#2B354E" fill-opacity=".67"/><path d="M486.5 347.71h.02v.01h-.02v-.01Z" fill="#2B354E" fill-opacity=".67"/><path d="M486.46 347.71h.02v.01h-.02v-.01Z" fill="#2B354E" fill-opacity=".67"/><path d="M486.42 347.71h.02v.01h-.02v-.01Z" fill="#2B354E" fill-opacity=".67"/><path d="M486.48 347.69h.02v.01h-.02v-.01Z" fill="#2B354E" fill-opacity=".67"/><path d="M486.44 347.69h.02v.01h-.02v-.01Z" fill="#2B354E" fill-opacity=".67"/><path d="M486.38 347.71h.02v.01h-.02Z" fill="#2B354E" fill-opacity=".67"/><path d="M486.58 347.71h.02v.01h-.02v-.01Z" fill="#2B354E" fill-opacity=".67"/><path d="M486.54 347.71h.02v.01h-.02Z" fill="#2B354E" fill-opacity=".67"/><path d="M486.56 347.69h.02v.01h-.02v-.01Z" fill="#2B354E" fill-opacity=".67"/><path d="M486.6 347.34c0-.01 0-.02.02-.02 0 0 .02 0 .02.02l-.02.02c-.01 0-.02 0-.02-.02Z" fill="#F1D244"/><path d="M486.62 347.37c.02 0 .03.03.03.03h-.06s0-.03.03-.03Z" fill="#F1D244"/><path d="M486.7 347.42v.06l.01-.01.01-.05h-.02Z" fill="#F1D244"/><path d="M486.1 347.31h.01v.01Z" fill="#F1D244"/><path d="M486.14 347.31h.01v.01Z" fill="#F1D244"/><path d="M486.12 347.31h.01v.01Z" fill="#F1D244"/><path d="m486.77 347.96-.08-.21.14-.07.14.06-.2.22Z" fill="#2B354E"/><path d="M486.7 347.74h-.03l-.04-.03c-.02 0-.05-.04-.02-.04l.06.03v-.02l-.02-.03c-.03-.02-.07-.02-.06-.03h.08l.01.01a.1.1 0 0 1 .02.01h-.02c0-.01-.1-.04-.09-.06l.08.01.06.04-.05-.03c-.04-.02-.08-.03-.07-.04.02-.01.05 0 .09.02a.1.1 0 0 1 .06.04l-.04-.04-.04-.01s.07 0 .1.03c.04.02.05.08.05.08l-.13.06Z" fill="#DAA987"/><path d="m486.14 347.65.15.1-.03.18-.24-.2.12-.08Z" fill="#2B354E"/><path d="m486.16 347.66.1-.06h.1-.05l-.03.02.03-.01.04-.01s.08-.02.09 0l-.05.01h-.03l-.06.03.07-.02h.08l-.07.02-.05.02.05-.02h.09l-.06.02a.74.74 0 0 0-.09.03l.03.02c.02 0 .05-.03.06 0l-.05.04c-.03.01-.07 0-.07 0l-.13-.1Z" fill="#DAA987"/><path d="M486.57 347.3h.01-.01Z" fill="#F1D244"/><path d="M486.65 347.3h.02-.02Z" fill="#F1D244"/><path d="M486.57 347.4h.01v.02h-.01v-.02Z" fill="#F1D244"/><path d="M486.65 347.4h.02v.02h-.02v-.02Z" fill="#F1D244"/><path d="M486.71 347.26v.03h.03v-.03h-.03Z" fill="#2B354E"/><path d="M486.74 347.26h-.03v.03h.03v-.03Zm0 0v.03h-.03v-.03h.02Z" fill="#fff"/><path d="M486.72 347.26v-.05h.02c-.01-.02-.01.02-.01.04" fill="#2B354E"/><path d="M486.73 347.2v.01h-.02.01v.04-.03.03h.01v-.03h.01v-.02Zm0 0 .01.01h-.01Zm-.02 0 .01.02-.01-.01Z" fill="#fff"/><path d="M486.42 347.2c-.01.01-.03-.01 0-.01.01 0-.02.04 0 .03.02 0 .01-.02 0-.01Z" fill="#2B354E"/><path d="M486.41 347.19v.02l.01.01h.02v-.01h-.02v-.02Zm0 0h.01v.01h-.01v-.01Zm.01.02h.01v.01h-.01v-.01Z" fill="#fff"/><path d="M486.4 347.2v.03h.02v-.02h-.02v-.01Zm.02.01v.01h-.01Z" fill="#fff"/><path d="M486.4 347.23c0 .01 0 0 0 0h.03v.01-.01h-.02Z" fill="#fff"/><path d="m486.36 347.26-.01.01-.01.01h-.01v.01h-.01l-.01-.02h-.02.01l.01.01h.01v.01h.01l.02-.02h.01Z" fill="#fff"/><path d="m486.32 347.29-.03.02.03-.02Z" fill="#fff"/><path d="m486.33 347.29.03.02-.03-.02Z" fill="#fff"/><path d="m486.18 347.47.02-.01h.06"/><path d="M486.8 347.4Z" fill="#F1D244"/><path d="M486.79 347.42Z" fill="#F1D244"/><path d="M486.78 347.41Z" fill="#F1D244"/><path d="M486.53 347.26Z" fill="#F1D244"/><path d="M486.57 347.26h.01-.01Z" fill="#F1D244"/><path d="M486.56 347.23Z" fill="#F1D244"/><path d="M486.18 347.49v.05"/><path d="M486.25 347.54h-.07"/><path d="M486.25 347.54v-.03"/><path d="M486.19 347.5v.04"/><path d="M486.2 347.51v.03"/><path d="M486.2 347.52v.02"/><path d="M486.22 347.5v.03"/><path d="M486.23 347.51v.03"/><path d="M486.24 347.5v.04"/><path d="M486.4 347.18h-.12"/><path d="M486.37 347.23h-.1"/><path d="M486.38 347.25h-.1"/><path d="M486.73 347.44h.05"/><path d="M486.78 347.46h-.04"/><path d="M486.7 347.5h.07"/><path d="M486.68 347.49h.02-.02Zm0 0h.01Z" fill="#fff"/><path d="m486.69 347.52.07.01"/><path d="M486.68 347.52h.01-.01Zm0 0Z" fill="#fff"/><path d="m486.68 347.54.07.02"/><path d="M486.67 347.54h.01Zm0 0h.01Z" fill="#fff"/><path d="M486.68 347.31h.08"/><path d="M486.76 347.33h-.08"/><path d="M486.56 347.44h.11"/><path d="M486.67 347.46h-.1"/><path d="M486.63 347.48h-.07"/><path d="M486.85 347.3v.03-.03Z"/><path d="M486.85 347.34Z"/><path d="M486.13 347.55h.01-.01Z" fill="#F1D244" fill-opacity=".97"/><path d="M486.16 347.56v.01Z" fill="#F1D244" fill-opacity=".97"/><path d="M486.13 347.59h.01-.01Z" fill="#F1D244" fill-opacity=".97"/><path d="M486.15 347.59h-.02v-.02"/><path d="M486.13 347.57Z" fill="#fff"/><path d="M486.15 347.59Z" fill="#fff"/><path d="M486.4 347.48h.12-.11Z" fill="#2B354E"/><path d="M486.47 347.5h-.06.06Z" fill="#2B354E"/><path d="M486.48 347.5h.03-.03Z" fill="#2B354E"/><path d="M486.46 347.52h-.05.05Z" fill="#2B354E"/><path d="M486.51 347.54h-.1.1Z" fill="#2B354E"/><path d="M486.41 347.56h.1-.1Z" fill="#2B354E"/><path d="M486.45 347.58h.06-.06Z" fill="#2B354E"/><path d="M486.4 347.58h.04-.03Z" fill="#2B354E"/><path d="m486.7 347.77.16-.09.12.06-.2.23" fill="#1C263F"/><path d="m486.11 347.66.19.14-.04.14-.24-.2.1-.08Z" fill="#1C263F"/><path d="m486.87 347.75-.05-.05"/><path d="M486.87 347.75Zm0 0Z" fill="#fff"/><path d="m486.1 347.74.05-.05"/><path d="M486.1 347.74h-.01Zm0 0Z" fill="#fff"/><path d="M486.23 347.5a.09.09 0 0 0-.07.04v.01l-.02.01v.02l-.01.03v.06c0 .04 0 .07.02.1l.01.02.02.01v.01l.02.01.02.01.01.01h.01l.01.01h.08l.04-.02h.01v-.02h.01l.01-.02.02-.02h.05v.02h-.02v.03h.03v-.04h.03c.01 0 .02 0 .02.02 0-.01 0-.02-.02-.02h-.04v-.01h-.05l-.02.02-.01.02-.01.01-.01.01a.14.14 0 0 1-.04.02h-.09l-.02-.02-.02-.01h-.01l-.01-.02-.02-.01v-.02a.2.2 0 0 1-.04-.1v-.06l.01-.03.01-.01.01-.02a.09.09 0 0 1 .07-.04h.01a.07.07 0 0 1 .04.01h-.02l-.02-.01Zm.24.28h.01v.04h-.02v-.03l.01-.01Z" fill="#fff" fill-opacity=".38"/><path d="M486.61 347.19a.28.28 0 0 0-.1.01l-.02.01h.02a.28.28 0 0 1 .1-.02h.07l.02.01a.2.2 0 0 1 .13.1.2.2 0 0 1 0 .04v.05l-.01-.01h-.03a.08.08 0 0 0-.04.02l-.01.02-.02.02v.04h.02v.01h.02c.02 0 .04 0 .05-.02a.1.1 0 0 0 .02-.03v-.05h.01a.1.1 0 0 1 .03.06v.11l-.02.04v.01a.2.2 0 0 1-.08.09h-.02l-.03.01-.03.01a.2.2 0 0 1-.04 0c-.04 0-.07 0-.1-.02l-.02-.02-.02-.02v-.05c0-.01 0-.02.02-.03a.04.04 0 0 1 .03 0l.02.01-.02-.01h-.03c-.02 0-.02.02-.03.03v.04l.01.01.02.02.02.02c.03.02.06.03.1.03h.04l.04-.02h.02a.2.2 0 0 0 .1-.1v-.01l.01-.03.01-.03a.46.46 0 0 0 0-.09.1.1 0 0 0-.03-.06v-.04l-.01-.04-.01-.03-.01-.01-.03-.03a.24.24 0 0 0-.1-.05.27.27 0 0 0-.07 0Zm.19.18h.02l.01.02v.05l-.02.03a.06.06 0 0 1-.05.02h-.02l-.01-.01v-.06a.17.17 0 0 1 .02-.02l.03-.02h.02Z" fill="#fff" fill-opacity=".55"/><path d="M486.22 347.22h-.02l-.01.01-.01.02.01.06v.01l.01.01.01.01.02.02-.02.01-.02.01h.02l.02-.02a.16.16 0 0 0 .05.03.26.26 0 0 0 .09.02.27.27 0 0 0 .13-.02l.02-.02.02-.01h-.02c0 .02-.01.02-.02.03l-.05.01a.34.34 0 0 1-.13 0l-.04-.01-.03-.02-.02-.01a.12.12 0 0 0 .02-.05v-.03a.12.12 0 0 0 0-.03v-.01l-.03-.02Zm0 0c.01 0 .02 0 .02.02v.02l.01.02v.03l-.02.05-.02-.02v-.01l-.01-.01h-.01c-.01-.02-.02-.04-.01-.06v-.02l.02-.01.01-.01Z" fill="#fff" fill-opacity=".38"/></g><path d="M532.35 172.52c-46.44 0-46.44 12.57-92.9 12.57-46.45 0-46.45-12.57-92.88-12.57-46.44 0-46.46 12.57-92.9 12.57l6.81-28.46 38.25-25.66 30.91-73.08 43.47-15.98L420.25 0l53.95 48.72 12.57 51.85 38.25 50.3 7.33 21.65Z" fill="#2B354E"/><path opacity=".7" d="M532.35 172.52c-46.44 0-46.44 12.57-92.9 12.57-46.45 0-46.45-12.57-92.88-12.57-46.44 0-46.46 12.57-92.9 12.57l6.81-28.46 38.25-25.66 30.91-73.08 43.47-15.98L420.25 0l53.95 48.72 12.57 51.85 38.25 50.3 7.33 21.65Z" fill="#fff"/><path opacity=".8" d="m329.64 57.9 3.66 49.23L369.45 66l3.66-24.09-43.47 15.98Z" fill="#fff"/><path opacity=".5" d="m373.1 130.97-39.8-23.84L369.45 66h31.94l-28.28 64.97Z" fill="#fff"/><path opacity=".7" d="m373.1 130.97-39.8-23.84-17.28 16.5-11.79 31.7 68.88-24.36Z" fill="#fff"/><path opacity=".4" d="m373.1 130.97 34.78-1.03-30.75 31.75-72.9-6.37 68.88-24.35Z" fill="#fff"/><path opacity=".2" d="m441.9 148.63-34.02-18.69-22.42 23.15 45.8 15.94 10.64-20.4Z" fill="#fff"/><path opacity=".6" d="m373.1 130.97 52.57-23.84L420.25 0 401.4 66l-28.28 64.97Z" fill="#fff"/><path d="m373.1 130.97 52.57-23.84 47.37 39.02-45.97-16.75-53.96 1.57Z" fill="#fff"/><path opacity=".4" d="m407.88 129.94 71.14 39.09-5.98-22.88-45.97-16.75-19.19.54Z" fill="#fff"/><path opacity=".8" d="m459.29 59.46-36.71-13.4L420.25 0l53.95 48.72-14.91 10.74Z" fill="#fff"/><path d="m459.29 59.46-36.71-13.4 1.77 35.14 54.67 7.8-19.73-29.54Z" fill="#fff"/><path opacity=".3" d="m473.04 146.15-47.37-39.02-1.32-25.93 54.67 7.8-5.98 57.15Z" fill="#fff"/><path opacity=".6" d="m474.12 135.68 50.9 15.18-38.25-50.29L479.02 89l-4.9 46.7Z" fill="#fff"/><path opacity=".6" d="M474.21 48.72 459.3 59.46l27.5 41.11-12.58-51.85Z" fill="#fff"/><path opacity=".3" d="m420.25 0-47.14 41.91-3.67 24.1h31.95L420.25 0Z" fill="#fff"/><path opacity=".5" d="m329.64 57.9-30.91 73.07 5.5 24.35 11.79-31.7 17.28-16.5-3.66-49.23Z" fill="#fff"/><path opacity=".8" d="m260.48 156.63 43.75-1.3-5.5-24.36-38.25 25.66Z" fill="#fff"/><path d="M532.35 172.52c-46.44 0-46.44 12.57-92.9 12.57-46.45 0-46.45-12.57-92.88-12.57-46.44 0-46.46 12.57-92.9 12.57l6.81 162.03 38.25 113.86 39.98 19.89h35.1l49.41 17.11 39.82-27.23 23.73-40.17 28.65-67.37 16.93-190.7Z" fill="#2B354E"/><path opacity=".2" d="M532.35 172.52c-46.44 0-46.44 12.57-92.9 12.57-46.45 0-46.45-12.57-92.88-12.57-46.44 0-46.46 12.57-92.9 12.57l6.81 162.03 38.25 113.86 39.98 19.89h35.1l49.41 17.11 39.82-27.23 23.73-40.17 28.65-67.37 16.93-190.7Z" fill="#375E74"/><path opacity=".4" d="m260.48 347.12 43.75-36.49L316 447.35l-17.28 13.63-38.25-113.86Z" fill="#375E74"/><path opacity=".3" d="m352.58 288.92-48.35 21.71 11.79 136.72 94.63-54.48-58.06-103.95Z" fill="#375E74"/><path opacity=".5" d="m352.58 288.92 79.73 51.57 15.13 56.32-36.79-3.94-58.07-103.95Z" fill="#375E74"/><path opacity=".3" d="m434 236.95-1.7 103.54 15.14 56.32 44.63-55.91L434 236.95Z" fill="#375E74"/><path opacity=".2" d="m434 236.95 65.58-10.66 23.98 45.21-31.5 69.4L434 236.95Z" fill="#375E74"/><path opacity=".1" d="m499.58 226.3 23.98 45.2 5-56.35-28.98 11.14Z" fill="#375E74"/><path opacity=".2" d="m434 236.95-1.7 103.54-79.72-51.57L397.21 233l36.8 3.95Z" fill="#375E74"/><path opacity=".1" d="m299.58 213.33 4.65 97.3 48.35-21.71L397.21 233l-97.63-19.67Z" fill="#375E74"/><path opacity=".05" d="m299.58 213.33-22.6-22.13 81.32 2.15L397.21 233l-97.63-19.67Z" fill="#375E74"/><path opacity=".1" d="m434 236.95 65.58-10.66-141.27-32.94L397.2 233l36.8 3.95Z" fill="#375E74"/><path opacity=".05" d="m528.56 215.15-28.98 11.14-87.75-20.46 93.55-19.08 23.18 28.4Z" fill="#375E74"/><path opacity=".2" d="m299.58 213.33 4.65 97.3-43.75 36.5-3.2-76.33 42.3-57.47Z" fill="#375E74"/><path opacity=".1" d="m299.58 213.33-22.6-22.13-22.58 10.95 2.87 68.65 42.3-57.47Z" fill="#375E74"/><path opacity=".4" d="m515.42 363.18-48.54 35.72-19.44-2.09 44.63-55.91 23.35 22.28Z" fill="#375E74"/><path opacity=".5" d="m466.88 398.9 19.9 31.68 28.64-67.4-48.54 35.72Z" fill="#375E74"/><path opacity=".3" d="m492.07 340.9 31.49-69.4-8.14 91.68-23.35-22.28Z" fill="#375E74"/><path opacity=".5" d="m338.7 480.87 71.95-88-94.63 54.48-17.3 13.63 39.99 19.89Z" fill="#375E74"/><path opacity=".7" d="m338.7 480.87 71.95-88 21.65 65.3-60.06 22.7h-33.53Z" fill="#375E74"/><path opacity=".4" d="m466.88 398.9-56.23-6.03 21.65 65.3 54.47-27.59-19.9-31.68Z" fill="#375E74"/><path opacity=".5" d="m432.3 458.18 30.74 12.57 23.75-40.17-54.49 27.6Z" fill="#375E74"/><path opacity=".8" d="m423.22 497.98 39.82-27.23-30.73-12.57-60.07 22.69 50.98 17.11Z" fill="#375E74"/><path d="M219.52 147.65v-.36c14.26 0 50.5-8.25 50.5-22.8h.74c0 13.84-33.46 23.1-51.24 23.16Z" fill="#2B354E"/><path d="M270.27 151.7a1.58 1.58 0 0 0-1.5 1.49v23.46a1.47 1.47 0 0 0 .93 1.38 1.57 1.57 0 0 0 2.14-1.38v-23.46a1.57 1.57 0 0 0-1.57-1.5Z" fill="#2B354E"/><path d="M270.27 122a.54.54 0 0 0-.53.53v39.76a.54.54 0 0 0 1.06 0v-39.76a.53.53 0 0 0-.53-.54Z" fill="#2B354E"/><path d="M219.42 146.92a.53.53 0 0 0-.38.15.55.55 0 0 0-.16.38v27.28a.53.53 0 1 0 1.07 0v-27.28a.53.53 0 0 0-.53-.53Z" fill="#2B354E"/><path opacity=".4" d="M234.05 147.64h-6.24v26.9h6.24v-26.9Z" fill="#fff"/><path d="M202.35 164.83c10.83 16.06 22.84 20.26 56.58 20.26 14.84 0 37.2-4.2 37.2-20.26-6.2 4.37-17.75 9.16-39.3 9.16-23.4 0-34.91-13.5-54.48-9.16Z" fill="#2B354E"/><path opacity=".4" d="M202.35 164.83c10.83 16.06 22.84 20.26 56.58 20.26 14.84 0 37.2-4.2 37.2-20.26-6.2 4.37-17.75 9.16-39.3 9.16-23.4 0-34.91-13.5-54.48-9.16Z" fill="#fff"/><path d="M256.91 175.56c-11.1 0-19.74-2.98-27.34-5.6-9-3.15-16.78-5.8-26.87-3.59a1.57 1.57 0 0 1-1.67-2.38 1.56 1.56 0 0 1 1-.7c11-2.39 19.5.57 28.56 3.7 7.75 2.67 15.72 5.43 26.32 5.43 21.25 0 32.56-4.82 38.3-8.88a1.57 1.57 0 0 1 2.2.4 1.57 1.57 0 0 1-.38 2.18c-8.9 6.27-22.4 9.44-40.12 9.44Z" fill="#2B354E"/><path d="M272.5 123.8h-4.46a.25.25 0 0 1-.27-.27.25.25 0 0 1 .08-.18.25.25 0 0 1 .09-.05.27.27 0 0 1 .1-.02h4.46a.27.27 0 0 1 .27.25.27.27 0 0 1-.27.27Z" fill="#2B354E"/><path d="M284.8 169.17a13.52 13.52 0 0 1-8.68-3.43c-3.73-3.14-6.05-7.85-6.05-10.43h.37c0 2.47 2.27 7.04 5.91 10.13a12.7 12.7 0 0 0 10.39 3.15v.39c-.64.11-1.29.18-1.93.19Z" fill="#2B354E"/><path d="M625.25 185.87a153.8 153.8 0 0 1-46.66-6.28c-15-4.46-30.6-6.58-46.25-6.29a152.59 152.59 0 0 0-46.23 6.29 153.9 153.9 0 0 1-46.66 6.28 153.89 153.89 0 0 1-46.65-6.28 152.6 152.6 0 0 0-46.24-6.29 152.76 152.76 0 0 0-46.24 6.29 153.73 153.73 0 0 1-46.64 6.28c-15.78.31-31.51-1.8-46.65-6.28-15-4.45-30.6-6.57-46.24-6.29a.79.79 0 1 1 0-1.57 153.7 153.7 0 0 1 46.65 6.29c15 4.45 30.6 6.57 46.24 6.28 15.64.29 31.23-1.83 46.23-6.28a153.83 153.83 0 0 1 46.65-6.29c15.78-.31 31.51 1.8 46.65 6.29 15 4.45 30.6 6.57 46.25 6.28 15.64.29 31.24-1.83 46.24-6.28a153.66 153.66 0 0 1 46.64-6.29 153.77 153.77 0 0 1 46.66 6.29c15 4.45 30.6 6.57 46.25 6.28a.78.78 0 0 1 .79.79.78.78 0 0 1-.79.78Z" fill="#2B354E"/><path d="M503.2 198.54c-2.81.05-5.63-.33-8.34-1.13a29.6 29.6 0 0 0-15.87 0 31.43 31.43 0 0 1-16.7 0 25.96 25.96 0 0 0-7.94-1.09.79.79 0 0 1 0-1.57 28.1 28.1 0 0 1 8.35 1.13 29.6 29.6 0 0 0 15.87 0 31.42 31.42 0 0 1 16.7 0c2.58.77 5.25 1.14 7.94 1.09a.79.79 0 0 1 .55 1.34.79.79 0 0 1-.55.23Z" fill="#fff"/><path d="M309.8 202.39c-1.44.03-2.88-.16-4.27-.57a14.32 14.32 0 0 0-7.74 0c-1.4.41-2.83.6-4.28.57-1.44.03-2.89-.16-4.27-.57a12.56 12.56 0 0 0-3.87-.53.78.78 0 0 1-.79-.79.79.79 0 0 1 .8-.78c1.44-.03 2.88.17 4.26.58 2.54.7 5.2.7 7.74 0 2.8-.78 5.76-.78 8.56 0 1.25.37 2.56.55 3.87.52a.8.8 0 0 1 .78.78.79.79 0 0 1-.78.79Z" fill="#fff"/><path d="M360.74 188.64a27.8 27.8 0 0 1-8.36-1.13 25.96 25.96 0 0 0-7.86-1.09.79.79 0 0 1-.78-.78.79.79 0 0 1 .78-.79c2.83-.05 5.64.33 8.35 1.13a29.63 29.63 0 0 0 15.88 0c2.71-.8 5.53-1.18 8.35-1.13a.79.79 0 0 1 0 1.57c-2.66-.04-5.31.33-7.86 1.09a27.8 27.8 0 0 1-8.5 1.13Z" fill="#fff"/><path d="M65.06 62.96c-1.27-2.6-3.98-3.34-6.6-3.34-3.1.03-6.5 1.44-6.5 4.9 0 3.77 3.17 4.68 6.6 5.09 2.23.24 3.89.89 3.89 2.47 0 1.82-1.87 2.52-3.87 2.52-2.04 0-3.98-.82-4.72-2.66l-2.64 1.36c1.24 3.08 3.88 4.13 7.32 4.13 3.74 0 7.05-1.6 7.05-5.35 0-4-3.26-4.92-6.77-5.35-2.01-.24-3.74-.65-3.74-2.11 0-1.25 1.13-2.24 3.48-2.24 1.82 0 3.4.92 3.98 1.88l2.52-1.3Zm3.35 2.2v6.22c0 3.68 2.07 5.81 4.9 5.81 1.66 0 2.78-.57 4-1.77l.2 1.6h2.62V65.17h-2.9v6.05c0 1.8-1.23 3.3-3.03 3.3-1.87 0-2.86-1.36-2.86-3.16v-6.2h-2.93Zm14.3 0V77h2.93v-6.24c0-2.18 1.41-3 2.95-3 .96 0 1.51.26 2.11.77l1.32-2.55a4.49 4.49 0 0 0-3.05-1.12c-1.2 0-2.42.21-3.33 1.68l-.22-1.37h-2.71ZM97.01 77v-9.1h3.47v-2.56H97v-.8c0-1.44.77-2.1 1.78-2.1.6 0 1.18.2 1.8.62l1.08-2.19a5.7 5.7 0 0 0-3.07-.96c-2.38 0-4.51 1.47-4.51 4.63v.8h-2.21v2.56h2.2V77H97Zm15.07-10.2c-.67-1.18-2.18-1.92-3.76-1.92-3.46-.02-6.17 2.11-6.17 6.2 0 4.14 2.59 6.3 6.1 6.28 1.31-.02 3.16-.7 3.83-2.09l.15 1.73h2.76V65.17h-2.81l-.1 1.63Zm-3.5.7c4.6 0 4.6 7.17 0 7.17-1.94 0-3.5-1.34-3.5-3.6 0-2.25 1.56-3.57 3.5-3.57Zm17.33 6.07c-.72.72-1.66.98-2.6.98-1.82 0-3.35-1.2-3.35-3.45 0-2.07 1.44-3.5 3.4-3.5.82 0 1.69.3 2.38.93l1.85-1.95a5.62 5.62 0 0 0-4.27-1.75c-3.43 0-6.29 2.07-6.29 6.27 0 4.2 2.86 6.26 6.29 6.26a6.1 6.1 0 0 0 4.56-1.87l-1.97-1.92Zm15.46-1.44c.45-4.87-2.02-7.32-5.98-7.32-3.84 0-6.29 2.59-6.29 6.19 0 3.8 2.43 6.31 6.5 6.31 1.8 0 3.85-.62 5.1-1.92l-1.88-1.85c-.67.7-2.08 1.1-3.16 1.1-2.07 0-3.34-1.05-3.53-2.51h9.24Zm-9.2-2.43c.44-1.53 1.73-2.3 3.32-2.3 1.68 0 2.88.77 3.07 2.3h-6.38Zm40.71-9.5h-3.55l-3.84 12.12-4.2-12.12h-2.06l-4.08 12.12-3.96-12.12h-3.55L153.8 77h2.7l2.03-5.23 1.75-5.35 1.78 5.3 2.09 5.28h2.69l6.04-16.8Zm11.47 11.93c.46-4.87-2.01-7.32-5.97-7.32-3.84 0-6.3 2.59-6.3 6.19 0 3.8 2.43 6.31 6.51 6.31 1.8 0 3.84-.62 5.09-1.92l-1.87-1.85c-.67.7-2.09 1.1-3.17 1.1-2.06 0-3.34-1.05-3.53-2.51h9.24Zm-9.19-2.43c.43-1.53 1.73-2.3 3.31-2.3 1.68 0 2.88.77 3.07 2.3h-6.38Zm18-2.08c1.87 0 3.36 1.32 3.36 3.45a3.33 3.33 0 0 1-3.36 3.48 3.35 3.35 0 0 1-3.43-3.48 3.38 3.38 0 0 1 3.43-3.45Zm-6.55-7.4V77h2.73l.2-1.63c.9 1.41 2.37 1.9 3.81 1.9 3.48 0 6.1-2.31 6.1-6.2 0-4.08-2.57-6.19-6.03-6.19-1.24 0-3.19.67-3.88 1.9v-6.56h-2.93Z" fill="#0166A3"/><path d="M61.34 91.32a5.83 5.83 0 0 0-4.1-1.68c-3.4 0-5.8 2.29-5.78 5.8 0 3.05 1.97 5.7 5.78 5.7a5.8 5.8 0 0 0 4.22-1.8v-4.2h-4.72v.76h3.9v3.13c-.95.88-2.2 1.3-3.4 1.3-3.26 0-4.94-2.27-4.94-4.91-.02-2.6 1.66-5 4.94-5a5.2 5.2 0 0 1 3.6 1.44l.5-.54Zm5.97 9.8a3.86 3.86 0 0 0 4.02-4.06c0-2.5-1.8-4.1-4.02-4.1a3.92 3.92 0 0 0-4.02 4.1c0 2.52 1.8 4.05 4.02 4.05Zm0-.78a3.12 3.12 0 0 1-3.25-3.28c0-2.04 1.46-3.37 3.25-3.37 1.8 0 3.25 1.33 3.25 3.37a3.12 3.12 0 0 1-3.25 3.28Zm9.47.77a3.86 3.86 0 0 0 4.01-4.05c0-2.5-1.79-4.1-4.01-4.1a3.92 3.92 0 0 0-4.02 4.1c0 2.52 1.8 4.05 4.02 4.05Zm0-.77a3.12 3.12 0 0 1-3.25-3.28c0-2.04 1.46-3.37 3.25-3.37s3.25 1.33 3.25 3.37a3.12 3.12 0 0 1-3.25 3.28Zm11.4-6.67a4.01 4.01 0 0 0-2.24-.72c-2.05 0-3.7 1.4-3.7 3.86 0 2.11 1.41 3.82 3.7 3.82 1.47 0 3 .67 3 2.37 0 1.68-1.41 2.38-3 2.38-1.58 0-2.96-.76-2.96-2.38h-.78c0 2 1.65 3.15 3.74 3.15 2.1 0 3.76-1.02 3.76-3.15 0-1.36-.77-2.34-2.16-2.83a3.74 3.74 0 0 0 2.13-3.36 3.7 3.7 0 0 0-.98-2.69l.77-.9-.5-.44-.78.9Zm-2.24.07c1.63 0 2.96 1.07 2.96 3.07a3.03 3.03 0 0 1-2.96 3.04c-1.8 0-2.93-1.41-2.93-3.04 0-2.07 1.32-3.07 2.93-3.07Zm5.35-3.94V101h.78V89.8h-.78Zm6.53 11.31c1.27 0 2.64-.51 3.41-1.52l-.56-.45c-.6.79-1.8 1.2-2.85 1.2a3.11 3.11 0 0 1-3.21-2.92h7.12c.3-3.1-1.68-4.45-3.9-4.45a3.97 3.97 0 0 0-4.02 4.08 3.87 3.87 0 0 0 4.01 4.06Zm-3.21-4.38a3.16 3.16 0 0 1 3.21-3.04c1.9 0 3.19 1.09 3.2 3.04h-6.41Zm8.98 3.79c0 .3.18.5.39.58l-.5 1.32h.7l.63-1.63c.03-.1.05-.17.05-.27 0-.83-1.27-.83-1.27 0Zm8.77-4.83h3.84c1.5 0 3.08.62 3.1 2.37 0 1.77-1.8 2.1-3.22 2.1h-3.72V95.7Zm0-5.15h3.72c1.4 0 2.87.68 2.87 2.32 0 1.6-1.4 2.01-2.75 2.01h-3.84v-4.33Zm3.72-.74h-4.59V101h4.6c1.91 0 4.06-.62 4.06-2.93 0-1.3-.8-2.43-2.2-2.81a2.46 2.46 0 0 0 1.81-2.4c0-2.13-1.79-3.06-3.68-3.06Zm6.77 3.26V101h-.78v-7.94h.78Zm-1-2.54c0 .83 1.26.83 1.26 0s-1.27-.83-1.27 0Zm3.25 2.58v7.9h.78v-4.4c0-1.63 1.14-2.86 2.77-2.88 1.71-.02 2.82.94 2.82 2.74V101h.78v-4.56c0-2.2-1.46-3.49-3.57-3.49-1.1.02-2.2.47-2.81 1.55v-1.4h-.77Zm14.79.57a4.01 4.01 0 0 0-2.24-.72c-2.05 0-3.72 1.4-3.72 3.86 0 2.11 1.43 3.82 3.72 3.82 1.47 0 2.99.67 2.99 2.37 0 1.68-1.41 2.38-3 2.38-1.58 0-2.95-.76-2.95-2.38h-.79c0 2 1.65 3.15 3.75 3.15s3.76-1.02 3.76-3.15c0-1.36-.77-2.34-2.16-2.83a3.74 3.74 0 0 0 2.12-3.36 3.7 3.7 0 0 0-.97-2.69l.77-.9-.52-.44-.76.9Zm-2.24.07c1.63 0 2.96 1.07 2.96 3.07a3.03 3.03 0 0 1-2.96 3.04c-1.81 0-2.93-1.41-2.93-3.04 0-2.07 1.31-3.07 2.93-3.07Zm5.18 6.78c0 .3.17.5.38.58l-.5 1.32h.7l.63-1.63c.04-.1.05-.17.05-.27 0-.83-1.26-.83-1.26 0Zm11.29.48h.86v-4.48l4.39-6.7v-.02h-1.01l-3.8 5.89-3.8-5.89h-1v.02l4.36 6.7V101Zm11.48-7.9v1.72a3.59 3.59 0 0 0-3.23-1.82 3.93 3.93 0 0 0-4.02 4.05 3.96 3.96 0 0 0 4.02 4.08 3.7 3.7 0 0 0 3.23-1.81V101h.79v-7.9h-.79Zm-3.23.65c4.4 0 4.4 6.61 0 6.61a3.17 3.17 0 0 1-3.23-3.31c0-1.99 1.44-3.3 3.23-3.3Zm6.15-3.95V101h.78v-4.34c0-1.64 1.16-2.92 2.82-2.92 1.78 0 2.54 1.1 2.54 2.73V101h.77v-4.53c0-2.06-1.1-3.49-3.3-3.49a3.18 3.18 0 0 0-2.86 1.59V89.8h-.75Zm12.6 11.31a3.86 3.86 0 0 0 4.02-4.05c0-2.5-1.8-4.1-4.02-4.1a3.92 3.92 0 0 0-4.01 4.1 3.86 3.86 0 0 0 4.01 4.05Zm0-.77a3.12 3.12 0 0 1-3.25-3.28c0-2.04 1.46-3.37 3.25-3.37 1.8 0 3.25 1.33 3.25 3.37a3.12 3.12 0 0 1-3.25 3.28Zm9.47.77a3.86 3.86 0 0 0 4.02-4.05c0-2.5-1.8-4.1-4.02-4.1a3.92 3.92 0 0 0-4.02 4.1c0 2.52 1.8 4.05 4.02 4.05Zm0-.77a3.12 3.12 0 0 1-3.25-3.28c0-2.04 1.46-3.37 3.25-3.37 1.8 0 3.25 1.33 3.25 3.37a3.12 3.12 0 0 1-3.25 3.28Zm5.9-10.54v8.94h.82V89.8h-.82Zm-.2 10.64c0 .83 1.27.83 1.27 0s-1.26-.83-1.26 0Zm3.09.08c0 .3.17.5.38.58l-.5 1.32h.7l.63-1.63c.03-.1.05-.17.05-.27 0-.83-1.26-.83-1.26 0Zm14.55-7.42v1.72A3.59 3.59 0 0 0 210.7 93a3.93 3.93 0 0 0-4.02 4.05 3.96 3.96 0 0 0 4.02 4.08 3.7 3.7 0 0 0 3.23-1.81V101h.78v-7.9h-.78Zm-3.23.65c4.4 0 4.4 6.61 0 6.61a3.17 3.17 0 0 1-3.23-3.31c0-1.99 1.44-3.3 3.23-3.3Zm6.15-.65v7.9h.78v-4.4c0-1.63 1.14-2.86 2.77-2.88 1.71-.02 2.82.94 2.82 2.74V101h.78v-4.56c0-2.2-1.46-3.49-3.57-3.49-1.1.02-2.2.47-2.81 1.55v-1.4h-.77Zm12.77.62a3.17 3.17 0 0 1 3.23 3.31c0 1.97-1.37 3.33-3.23 3.33-1.78 0-3.23-1.12-3.23-3.31 0-2.23 1.45-3.33 3.23-3.33Zm3.25-3.92v5.02c-.64-1.28-1.92-1.85-3.28-1.85-2.21 0-3.97 1.47-3.97 4.08 0 2.62 1.74 4.08 3.95 4.08 1.35 0 2.64-.67 3.3-1.87V101h.77V89.8h-.77Zm11.08 11.31a3.86 3.86 0 0 0 4.02-4.05c0-2.5-1.8-4.1-4.02-4.1a3.92 3.92 0 0 0-4.02 4.1c0 2.52 1.8 4.05 4.02 4.05Zm0-.77a3.12 3.12 0 0 1-3.25-3.28c0-2.04 1.46-3.37 3.25-3.37 1.8 0 3.25 1.33 3.25 3.37a3.12 3.12 0 0 1-3.25 3.28Zm6.7-9.55v2.3h-1.68v.66h1.68v4.82c0 1.55.55 2.54 2.23 2.54.5 0 .99-.16 1.49-.4l-.28-.64c-.4.2-.83.32-1.21.32-1.23 0-1.46-.75-1.46-1.82v-4.82h2.69v-.65h-2.69v-2.4l-.77.08Zm5.26-.99V101h.78v-4.34c0-1.64 1.16-2.92 2.82-2.92 1.78 0 2.55 1.1 2.55 2.73V101h.76v-4.53c0-2.06-1.1-3.49-3.3-3.49a3.18 3.18 0 0 0-2.86 1.59V89.8h-.75Zm12.52 11.31c1.27 0 2.64-.51 3.41-1.52l-.56-.45c-.6.79-1.8 1.2-2.85 1.2a3.11 3.11 0 0 1-3.21-2.92h7.12c.3-3.1-1.68-4.45-3.9-4.45a3.97 3.97 0 0 0-4.02 4.08 3.87 3.87 0 0 0 4.01 4.06Zm-3.21-4.38a3.16 3.16 0 0 1 3.21-3.04c1.9 0 3.19 1.09 3.2 3.04h-6.41Zm9.14-3.63v7.9h.79v-4.6a2.63 2.63 0 0 1 3.95-2.28l.35-.64a3.09 3.09 0 0 0-1.7-.46c-1 0-2.12.41-2.62 1.48l-.03-1.4h-.74Zm12.17.92a4.14 4.14 0 0 0-2.94-1.05c-1.6-.02-3.15.65-3.14 2.2.02 1.59 1.54 1.88 3.08 2.13 1.3.21 2.6.44 2.57 1.57-.05 1.25-1.5 1.5-2.46 1.5-1.06 0-2.24-.4-2.9-1.34l-.57.51c.68 1.06 2.06 1.59 3.45 1.59 1.4 0 3.2-.47 3.25-2.21.08-1.84-1.86-2.08-3.26-2.32-1-.18-2.37-.38-2.4-1.44-.04-1 1.15-1.47 2.38-1.46.88 0 1.66.13 2.46.84l.48-.52Z" fill="#0166A3"/><path d="M7.56 205.2H.96V222h6.6c5.88 0 8.47-4.3 8.4-8.54-.07-4.16-2.64-8.26-8.4-8.26Zm-3.46 3h3.46c3.65 0 5.18 2.62 5.26 5.23.07 2.74-1.44 5.52-5.26 5.52H4.1V208.2Zm25.99 8.93c.45-4.87-2.02-7.32-5.98-7.32-3.84 0-6.29 2.59-6.29 6.19 0 3.8 2.43 6.31 6.5 6.31 1.8 0 3.85-.62 5.1-1.92l-1.88-1.85c-.67.7-2.09 1.1-3.17 1.1-2.06 0-3.33-1.05-3.52-2.51h9.24Zm-9.2-2.43c.44-1.53 1.73-2.3 3.32-2.3 1.68 0 2.88.77 3.07 2.3h-6.39Zm23.19 2.43c.45-4.87-2.02-7.32-5.98-7.32-3.84 0-6.29 2.59-6.29 6.19 0 3.8 2.43 6.31 6.5 6.31 1.8 0 3.85-.62 5.1-1.92l-1.88-1.85c-.67.7-2.08 1.1-3.16 1.1-2.07 0-3.34-1.05-3.53-2.51h9.24Zm-9.2-2.43c.44-1.53 1.73-2.3 3.32-2.3 1.68 0 2.88.77 3.07 2.3H34.9Zm18 4.76a3.28 3.28 0 0 1-3.35-3.36c0-1.85 1.24-3.36 3.36-3.36 2.1 0 3.36 1.5 3.36 3.36a3.28 3.28 0 0 1-3.36 3.36Zm-3.62 7.48v-6.33c.84 1.3 2.7 1.68 3.94 1.68 3.8 0 5.97-2.74 5.97-6.2 0-3.47-2.42-6.19-6.07-6.19a4.7 4.7 0 0 0-3.84 1.9l-.19-1.63h-2.73v16.77h2.92ZM90.6 205.2h-3.55l-3.84 12.12L79 205.2h-2.06l-4.08 12.12-3.96-12.12h-3.55L71.5 222h2.7l2.03-5.23 1.75-5.35 1.78 5.3 2.09 5.28h2.69l6.04-16.8Zm11.47 11.93c.46-4.87-2.01-7.32-5.97-7.32-3.84 0-6.3 2.59-6.3 6.19 0 3.8 2.43 6.31 6.51 6.31 1.8 0 3.84-.62 5.1-1.92l-1.88-1.85c-.67.7-2.09 1.1-3.17 1.1-2.06 0-3.33-1.05-3.53-2.51h9.24Zm-9.19-2.43c.43-1.53 1.73-2.3 3.31-2.3 1.68 0 2.88.77 3.08 2.3h-6.39Zm18-2.08c1.87 0 3.36 1.32 3.36 3.45a3.33 3.33 0 0 1-3.36 3.48 3.35 3.35 0 0 1-3.43-3.48 3.38 3.38 0 0 1 3.43-3.45Zm-6.55-7.4V222h2.74l.19-1.63c.9 1.41 2.37 1.9 3.81 1.9 3.48 0 6.1-2.31 6.1-6.2 0-4.08-2.57-6.19-6.02-6.19-1.25 0-3.2.67-3.9 1.9v-6.56h-2.92Z" fill="#0166A3"/><path d="M10.8 247h.85v-11.2h-1.06l-4.24 6.53-4.29-6.53H1.04V247h.86v-9.95l4.32 6.56h.3l4.28-6.56V247Zm6.74.11c1.27 0 2.64-.51 3.41-1.52l-.56-.45c-.6.79-1.8 1.2-2.85 1.2a3.11 3.11 0 0 1-3.21-2.92h7.12c.3-3.1-1.68-4.45-3.9-4.45a3.97 3.97 0 0 0-4.02 4.08 3.87 3.87 0 0 0 4.01 4.06Zm-3.21-4.38a3.16 3.16 0 0 1 3.21-3.04c1.9 0 3.19 1.09 3.2 3.04h-6.41Zm12.71-3.01a3.17 3.17 0 0 1 3.23 3.31c0 1.97-1.37 3.33-3.23 3.33-1.77 0-3.23-1.12-3.23-3.31 0-2.23 1.46-3.33 3.23-3.33Zm3.25-3.92v5.02c-.64-1.28-1.92-1.85-3.28-1.85-2.2 0-3.97 1.47-3.97 4.08 0 2.62 1.75 4.08 3.95 4.08 1.35 0 2.64-.67 3.3-1.87V247h.77v-11.2h-.77Zm3.81 3.26V247h-.78v-7.94h.78Zm-1-2.54c0 .83 1.26.83 1.26 0s-1.27-.83-1.27 0Zm9.2 8.85c-.64.64-1.5.97-2.35.97-1.8 0-3.3-1.16-3.3-3.3 0-2.12 1.5-3.29 3.3-3.29.85 0 1.73.3 2.37.95l.5-.5a4.11 4.11 0 0 0-2.87-1.18c-2.29 0-4.07 1.53-4.07 4.03s1.84 4.03 4.07 4.03c1.04 0 2.08-.38 2.88-1.18l-.53-.53Zm8.94-6.27v1.72a3.59 3.59 0 0 0-3.23-1.82 3.93 3.93 0 0 0-4.02 4.05 3.96 3.96 0 0 0 4.02 4.08 3.7 3.7 0 0 0 3.23-1.81V247h.79v-7.9h-.79Zm-3.23.65c4.4 0 4.4 6.61 0 6.61a3.17 3.17 0 0 1-3.23-3.31c0-1.99 1.44-3.3 3.23-3.3Zm6.15-3.95V247h.79v-11.2h-.79Zm12.51 6.91c2.45 0 3.65-1.6 3.63-3.42-.01-1.75-1.24-3.49-3.68-3.49H61.7V247h.86v-4.24h3.06l3.87 4.24h1.13l-3.95-4.29Zm-4.11-6.11h4.06a2.58 2.58 0 0 1 2.74 2.67c-.02 1.57-.88 2.67-2.83 2.67h-3.97v-5.34Zm12.93 10.51c1.27 0 2.64-.51 3.41-1.52l-.56-.45c-.59.79-1.8 1.2-2.85 1.2a3.11 3.11 0 0 1-3.21-2.92h7.12c.3-3.1-1.68-4.45-3.9-4.45a3.97 3.97 0 0 0-4.02 4.08c0 2.51 1.8 4.06 4.01 4.06Zm-3.21-4.38a3.16 3.16 0 0 1 3.21-3.04c1.9 0 3.19 1.09 3.2 3.04h-6.41Zm15.1 2.64c-.64.64-1.5.97-2.35.97-1.8 0-3.3-1.16-3.3-3.3 0-2.12 1.5-3.29 3.3-3.29.84 0 1.72.3 2.36.95l.52-.5a4.11 4.11 0 0 0-2.88-1.18c-2.3 0-4.07 1.53-4.07 4.03s1.84 4.03 4.07 4.03c1.04 0 2.08-.38 2.88-1.18l-.53-.53Zm5.93 1.74a3.86 3.86 0 0 0 4.02-4.05c0-2.5-1.8-4.1-4.02-4.1a3.92 3.92 0 0 0-4.02 4.1c0 2.52 1.8 4.05 4.02 4.05Zm0-.77a3.12 3.12 0 0 1-3.25-3.28c0-2.04 1.46-3.37 3.25-3.37 1.8 0 3.25 1.33 3.25 3.37a3.12 3.12 0 0 1-3.25 3.28Zm5.82-7.24v7.9h.78v-4.6a2.63 2.63 0 0 1 3.96-2.28l.35-.64a3.09 3.09 0 0 0-1.7-.46c-1 0-2.13.41-2.62 1.48l-.03-1.4h-.74Zm9.83.62a3.17 3.17 0 0 1 3.24 3.31c0 1.97-1.38 3.33-3.24 3.33-1.77 0-3.23-1.12-3.23-3.31 0-2.23 1.46-3.33 3.23-3.33Zm3.25-3.92v5.02c-.64-1.28-1.92-1.85-3.28-1.85-2.2 0-3.97 1.47-3.97 4.08 0 2.62 1.75 4.08 3.96 4.08 1.34 0 2.64-.67 3.3-1.87V247h.76v-11.2h-.77Zm8.93 4.22a4.14 4.14 0 0 0-2.94-1.05c-1.6-.02-3.15.65-3.14 2.2.02 1.59 1.54 1.88 3.08 2.13 1.3.21 2.6.44 2.57 1.57-.05 1.25-1.5 1.5-2.46 1.5-1.06 0-2.24-.4-2.9-1.34l-.57.51c.68 1.06 2.06 1.59 3.45 1.59 1.4 0 3.2-.47 3.25-2.21.08-1.84-1.86-2.08-3.27-2.32-.99-.18-2.36-.38-2.4-1.44-.03-1 1.16-1.47 2.39-1.46.88 0 1.66.13 2.46.84l.48-.52ZM1.02 259.8V271H8.2v-.82H1.9V259.8h-.87Zm12.22 11.31c1.27 0 2.64-.51 3.41-1.52l-.56-.45c-.59.79-1.8 1.2-2.85 1.2a3.11 3.11 0 0 1-3.21-2.92h7.12c.3-3.1-1.68-4.45-3.9-4.45a3.97 3.97 0 0 0-4.02 4.08c0 2.51 1.8 4.06 4.01 4.06Zm-3.21-4.38a3.16 3.16 0 0 1 3.21-3.04c1.9 0 3.19 1.09 3.2 3.04h-6.41Zm14.73-3.06a4.01 4.01 0 0 0-2.24-.72c-2.05 0-3.71 1.4-3.71 3.86 0 2.11 1.42 3.82 3.71 3.82 1.47 0 3 .67 3 2.37 0 1.68-1.42 2.38-3 2.38s-2.96-.76-2.96-2.38h-.78c0 2 1.64 3.15 3.74 3.15 2.1 0 3.76-1.02 3.76-3.15 0-1.36-.77-2.34-2.16-2.83a3.74 3.74 0 0 0 2.13-3.36 3.7 3.7 0 0 0-.98-2.69l.77-.9-.51-.44-.77.9Zm-2.24.07c1.63 0 2.96 1.07 2.96 3.07a3.03 3.03 0 0 1-2.96 3.04c-1.8 0-2.93-1.41-2.93-3.04 0-2.07 1.31-3.07 2.93-3.07Zm12.16-.64v1.72a3.59 3.59 0 0 0-3.23-1.82 3.93 3.93 0 0 0-4.02 4.05 3.96 3.96 0 0 0 4.02 4.08 3.7 3.7 0 0 0 3.23-1.81V271h.78v-7.9h-.78Zm-3.23.65c4.4 0 4.4 6.61 0 6.61a3.17 3.17 0 0 1-3.23-3.31c0-1.99 1.44-3.3 3.23-3.3Zm6.15-3.95V271h.78v-11.2h-.78Zm11.23 0h-3.8V271h3.8c3.92 0 5.74-2.88 5.68-5.73-.06-2.75-1.89-5.47-5.68-5.47Zm0 .82c3.23 0 4.77 2.32 4.82 4.65.04 2.4-1.5 4.9-4.82 4.9H45.9v-9.55h2.93Zm11.3 10.5a3.86 3.86 0 0 0 4-4.06 3.9 3.9 0 0 0-4-4.1 3.92 3.92 0 0 0-4.02 4.1 3.86 3.86 0 0 0 4.01 4.05Zm0-.78a3.12 3.12 0 0 1-3.26-3.28c0-2.04 1.46-3.37 3.25-3.37 1.8 0 3.25 1.33 3.25 3.37a3.12 3.12 0 0 1-3.25 3.28Zm11.76-.97c-.64.64-1.5.97-2.35.97-1.79 0-3.3-1.16-3.3-3.3 0-2.12 1.51-3.29 3.3-3.29.85 0 1.73.3 2.37.95l.51-.5a4.11 4.11 0 0 0-2.88-1.18c-2.29 0-4.06 1.53-4.06 4.03s1.84 4.03 4.06 4.03c1.04 0 2.08-.38 2.88-1.18l-.53-.53Zm9.27 1.63v-7.92h-.79v4.4c0 1.63-1.13 2.86-2.77 2.88-1.7.02-2.81-.94-2.81-2.74v-4.54H74v4.56c0 2.2 1.46 3.49 3.57 3.49a3.18 3.18 0 0 0 2.82-1.55V271h.77Zm14.56 0v-4.74a3.18 3.18 0 0 0-3.31-3.32c-1.22 0-2.45.65-2.93 1.95-.46-1.41-1.73-1.95-2.93-1.95-1.02 0-2.03.43-2.57 1.47l-.02-1.31h-.74v7.9h.79v-4.69c0-1.52 1.02-2.62 2.53-2.62 1.5 0 2.54 1.1 2.54 2.62V271h.78v-4.69c0-1.52 1.04-2.64 2.55-2.64 1.5 0 2.53 1.07 2.53 2.6V271h.78Zm5.78.11c1.26 0 2.64-.51 3.4-1.52l-.56-.45c-.59.79-1.8 1.2-2.84 1.2a3.11 3.11 0 0 1-3.22-2.92h7.12c.3-3.1-1.68-4.45-3.9-4.45a3.97 3.97 0 0 0-4.02 4.08c0 2.51 1.8 4.06 4.02 4.06Zm-3.22-4.38a3.16 3.16 0 0 1 3.22-3.04c1.9 0 3.18 1.09 3.2 3.04h-6.42Zm9.15-3.63v7.9h.78v-4.4c0-1.63 1.14-2.86 2.77-2.88 1.71-.02 2.81.94 2.81 2.74V271h.79v-4.56c0-2.2-1.46-3.49-3.57-3.49a3.2 3.2 0 0 0-2.82 1.55v-1.4h-.76Zm9.9-2.3v2.3h-1.68v.65h1.68v4.82c0 1.55.54 2.54 2.22 2.54.5 0 1-.16 1.49-.4l-.27-.64c-.4.2-.84.32-1.22.32-1.23 0-1.46-.75-1.46-1.82v-4.82h2.7v-.65h-2.7v-2.39l-.76.08Zm11.16 3.22a4.14 4.14 0 0 0-2.95-1.05c-1.6-.02-3.15.65-3.13 2.2.01 1.59 1.53 1.88 3.07 2.13 1.3.21 2.6.44 2.58 1.57-.05 1.25-1.5 1.5-2.47 1.5-1.06 0-2.24-.4-2.9-1.34l-.57.51c.69 1.06 2.06 1.59 3.45 1.59 1.4 0 3.2-.47 3.25-2.21.08-1.84-1.85-2.08-3.26-2.32-1-.18-2.37-.38-2.4-1.44-.03-1 1.15-1.47 2.38-1.46.88 0 1.67.13 2.47.84l.48-.52ZM8.99 285.54c-1.1-1.64-2.5-1.9-4.1-1.9-1.83 0-4.3.74-4.25 3.1 0 2.07 2.1 2.48 4.14 2.88 1.84.36 3.7.72 3.68 2.4 0 1.99-2.19 2.37-3.56 2.37-1.38 0-3.14-.67-3.83-2.03l-.77.38c.87 1.72 2.85 2.44 4.6 2.44 1.87 0 4.41-.61 4.43-3.14 0-2.42-2.24-2.8-4.4-3.22-1.89-.35-3.43-.68-3.43-2.1 0-1.8 2.08-2.28 3.4-2.28 1.26.02 2.57.2 3.39 1.52l.7-.42Zm6.19 8.85c-1.81 0-3.2-1.39-3.2-3.33 0-1.93 1.36-3.32 3.2-3.32 1.79 0 3.23 1.08 3.23 3.3 0 2.23-1.44 3.35-3.23 3.35Zm-3.27 3.9v-5.11a3.57 3.57 0 0 0 3.27 1.96c2.22 0 4.01-1.44 4.01-4.1 0-2.54-1.7-3.98-3.84-4.06-1.53 0-2.8.79-3.42 1.99v-1.87h-.77v11.2h.75Zm12.77-3.18c1.27 0 2.64-.51 3.41-1.52l-.56-.45c-.6.79-1.8 1.2-2.85 1.2a3.11 3.11 0 0 1-3.21-2.92h7.12c.3-3.1-1.68-4.45-3.9-4.45a3.97 3.97 0 0 0-4.02 4.08 3.87 3.87 0 0 0 4.01 4.06Zm-3.21-4.38a3.16 3.16 0 0 1 3.21-3.04c1.9 0 3.19 1.09 3.2 3.04h-6.41Zm15.1 2.64c-.64.64-1.5.97-2.36.97-1.79 0-3.3-1.16-3.3-3.3 0-2.12 1.51-3.29 3.3-3.29.85 0 1.73.3 2.37.95l.51-.5a4.11 4.11 0 0 0-2.88-1.18c-2.28 0-4.06 1.53-4.06 4.03s1.84 4.03 4.06 4.03c1.04 0 2.08-.38 2.88-1.18l-.52-.53Zm2.9-6.3V295h-.78v-7.94h.79Zm-1-2.55c0 .83 1.26.83 1.26 0s-1.26-.83-1.26 0ZM43.3 295v-7.15h2.6v-.69h-2.6v-.7c0-1.38.57-1.99 1.57-1.99.48 0 .78.15 1.21.4l.39-.57a2.59 2.59 0 0 0-1.57-.55c-1.75 0-2.37 1.14-2.37 2.7v.71h-1.62v.69h1.62V295h.77Zm5.07-7.94V295h-.78v-7.94h.78Zm-1-2.54c0 .83 1.26.83 1.26 0s-1.27-.83-1.27 0Zm9.2 8.85c-.64.64-1.5.97-2.35.97-1.8 0-3.3-1.16-3.3-3.3 0-2.12 1.5-3.29 3.3-3.29.85 0 1.73.3 2.37.95l.51-.5a4.11 4.11 0 0 0-2.88-1.18c-2.29 0-4.06 1.53-4.06 4.03s1.84 4.03 4.06 4.03c1.04 0 2.08-.38 2.88-1.18l-.53-.53Zm11.67-2.66c2.45 0 3.65-1.6 3.63-3.42-.01-1.75-1.25-3.49-3.68-3.49h-4.93V295h.87v-4.24h3.05l3.88 4.24h1.13l-3.95-4.29Zm-4.11-6.11h4.06a2.58 2.58 0 0 1 2.74 2.67c-.02 1.57-.88 2.67-2.83 2.67h-3.97v-5.34Zm12.93 10.51c1.27 0 2.64-.51 3.41-1.52l-.56-.45c-.6.79-1.8 1.2-2.85 1.2a3.11 3.11 0 0 1-3.21-2.92h7.12c.3-3.1-1.68-4.45-3.9-4.45a3.97 3.97 0 0 0-4.02 4.08 3.87 3.87 0 0 0 4.01 4.06Zm-3.21-4.38a3.16 3.16 0 0 1 3.21-3.04c1.9 0 3.19 1.09 3.2 3.04h-6.41Zm13.16 3.66c-1.8 0-3.2-1.39-3.2-3.33 0-1.93 1.36-3.32 3.2-3.32 1.8 0 3.23 1.08 3.23 3.3 0 2.23-1.44 3.35-3.23 3.35Zm-3.26 3.9v-5.11a3.57 3.57 0 0 0 3.26 1.96c2.23 0 4.02-1.44 4.02-4.1 0-2.54-1.7-3.98-3.84-4.06-1.54 0-2.8.79-3.43 1.99v-1.87H83v11.2h.76Zm12.85-3.18a3.86 3.86 0 0 0 4.01-4.05c0-2.5-1.79-4.1-4.01-4.1a3.92 3.92 0 0 0-4.02 4.1c0 2.52 1.8 4.05 4.02 4.05Zm0-.77a3.12 3.12 0 0 1-3.25-3.28c0-2.04 1.45-3.37 3.25-3.37 1.79 0 3.24 1.33 3.24 3.37a3.12 3.12 0 0 1-3.24 3.28Zm5.82-7.24v7.9h.78v-4.6a2.63 2.63 0 0 1 3.95-2.28l.36-.64a3.09 3.09 0 0 0-1.7-.46c-1 0-2.13.41-2.63 1.48l-.03-1.4h-.73Zm7.8-2.3v2.3h-1.68v.65h1.68v4.82c0 1.55.55 2.54 2.23 2.54.5 0 .99-.16 1.48-.4l-.27-.64c-.4.2-.83.32-1.21.32-1.23 0-1.46-.75-1.46-1.82v-4.82h2.69v-.65H111v-2.39l-.77.08Zm11.16 3.22a4.14 4.14 0 0 0-2.94-1.05c-1.6-.02-3.15.65-3.14 2.2.02 1.59 1.54 1.88 3.08 2.13 1.3.21 2.6.44 2.57 1.57-.05 1.25-1.5 1.5-2.46 1.5-1.06 0-2.24-.4-2.9-1.34l-.57.51c.68 1.06 2.06 1.59 3.45 1.59 1.4 0 3.2-.47 3.25-2.21.08-1.84-1.86-2.08-3.27-2.32-.99-.18-2.36-.38-2.4-1.44-.03-1 1.16-1.47 2.39-1.46.88 0 1.66.13 2.46.84l.48-.52ZM9.7 316.9a5 5 0 0 1-3.5 1.43c-3.23 0-4.9-2.27-4.93-4.9-.01-2.69 1.67-4.99 4.93-4.99a4.9 4.9 0 0 1 3.49 1.42l.6-.5a5.77 5.77 0 0 0-4.09-1.69c-3.84 0-5.79 2.8-5.76 5.8.02 3.02 1.99 5.66 5.76 5.66 1.47 0 2.96-.56 4.08-1.68l-.57-.55Zm5.95 2.21a3.86 3.86 0 0 0 4.01-4.05c0-2.5-1.79-4.1-4.01-4.1a3.92 3.92 0 0 0-4.02 4.1c0 2.52 1.8 4.05 4.02 4.05Zm0-.77a3.12 3.12 0 0 1-3.25-3.28c0-2.04 1.46-3.37 3.25-3.37s3.25 1.33 3.25 3.37a3.12 3.12 0 0 1-3.25 3.28Zm18.31.66v-4.74a3.18 3.18 0 0 0-3.3-3.32c-1.22 0-2.46.65-2.94 1.95-.46-1.41-1.72-1.95-2.92-1.95-1.03 0-2.04.43-2.58 1.47l-.02-1.31h-.73v7.9h.78v-4.69c0-1.52 1.03-2.62 2.53-2.62 1.5 0 2.54 1.1 2.54 2.62V319h.79v-4.69c0-1.52 1.04-2.64 2.54-2.64s2.53 1.07 2.53 2.6V319h.78Zm6.07-.6c-1.8 0-3.2-1.4-3.2-3.34 0-1.93 1.36-3.32 3.2-3.32 1.8 0 3.23 1.08 3.23 3.3 0 2.23-1.44 3.35-3.23 3.35Zm-3.26 3.9v-5.12a3.57 3.57 0 0 0 3.26 1.96c2.22 0 4.02-1.44 4.02-4.1 0-2.54-1.7-3.98-3.84-4.06-1.54 0-2.8.79-3.43 1.99v-1.87H36v11.2h.76Zm12.77-3.19c1.26 0 2.64-.51 3.4-1.52l-.56-.45c-.59.79-1.8 1.2-2.84 1.2a3.11 3.11 0 0 1-3.22-2.92h7.12c.3-3.1-1.68-4.45-3.9-4.45a3.97 3.97 0 0 0-4.02 4.08c0 2.51 1.8 4.06 4.02 4.06Zm-3.22-4.38a3.16 3.16 0 0 1 3.22-3.04c1.9 0 3.18 1.09 3.2 3.04H46.3Zm9.84-5.94v2.3h-1.68v.66h1.68v4.82c0 1.55.55 2.54 2.23 2.54.5 0 .99-.16 1.49-.4l-.28-.64c-.4.2-.83.32-1.21.32-1.23 0-1.46-.75-1.46-1.82v-4.82h2.69v-.65h-2.69v-2.39l-.77.08Zm6.05 2.27V319h-.79v-7.94h.79Zm-1.01-2.54c0 .83 1.26.83 1.26 0s-1.26-.83-1.26 0Zm4.3.27v2.3h-1.7v.66h1.68v4.82c0 1.55.55 2.54 2.23 2.54.5 0 .99-.16 1.48-.4l-.27-.64c-.4.2-.83.32-1.21.32-1.24 0-1.46-.75-1.46-1.82v-4.82h2.69v-.65h-2.69v-2.39l-.77.08Zm8.9 10.32a3.86 3.86 0 0 0 4.01-4.05c0-2.5-1.79-4.1-4.01-4.1a3.92 3.92 0 0 0-4.02 4.1c0 2.52 1.8 4.05 4.02 4.05Zm0-.77a3.12 3.12 0 0 1-3.25-3.28c0-2.04 1.46-3.37 3.25-3.37s3.25 1.33 3.25 3.37a3.12 3.12 0 0 1-3.25 3.28Zm5.82-7.24v7.9H81v-4.6a2.63 2.63 0 0 1 3.95-2.28l.36-.64a3.09 3.09 0 0 0-1.7-.46c-1 0-2.13.41-2.62 1.48l-.04-1.4h-.73Zm14.29 6.94-3.46-10.24h-.91l3.92 11.23h.93l1.79-5.28 1.4-4.4 1.41 4.43 1.78 5.25h.93l3.95-11.23h-.93l-3.47 10.24-3.42-10.24h-.48l-3.44 10.24Zm15.34 1.07c1.26 0 2.64-.51 3.4-1.52l-.55-.45c-.6.79-1.81 1.2-2.85 1.2a3.11 3.11 0 0 1-3.22-2.92h7.12c.3-3.1-1.68-4.45-3.9-4.45a3.97 3.97 0 0 0-4.02 4.08c0 2.51 1.8 4.06 4.02 4.06Zm-3.22-4.38a3.16 3.16 0 0 1 3.22-3.04c1.9 0 3.18 1.09 3.2 3.04h-6.42Zm13.17-3.01c1.77 0 3.23 1.1 3.23 3.33 0 2.19-1.46 3.31-3.23 3.31-1.86 0-3.23-1.36-3.23-3.33s1.4-3.31 3.23-3.31Zm-4.02-3.92V319h.77v-1.74a3.72 3.72 0 0 0 3.3 1.87c2.2 0 3.95-1.46 3.95-4.08 0-2.61-1.76-4.08-3.97-4.08-1.36 0-2.64.57-3.28 1.85v-5.02h-.77Zm15.84 4.22a4.14 4.14 0 0 0-2.94-1.05c-1.6-.02-3.15.65-3.14 2.2.02 1.59 1.54 1.88 3.07 2.13 1.3.21 2.61.44 2.58 1.57-.05 1.25-1.5 1.5-2.46 1.5-1.06 0-2.24-.4-2.9-1.34l-.58.51c.7 1.06 2.07 1.59 3.46 1.59 1.4 0 3.2-.47 3.25-2.21.08-1.84-1.86-2.08-3.27-2.32-.99-.18-2.36-.38-2.4-1.44-.03-1 1.16-1.47 2.39-1.46.88 0 1.66.13 2.46.84l.48-.52Zm2.87-.96V319h-.79v-7.94h.79Zm-1.01-2.54c0 .83 1.26.83 1.26 0s-1.26-.83-1.26 0Zm4.3.27v2.3h-1.69v.66h1.68v4.82c0 1.55.55 2.54 2.23 2.54.5 0 .99-.16 1.49-.4l-.28-.64c-.4.2-.83.32-1.21.32-1.23 0-1.46-.75-1.46-1.82v-4.82h2.69v-.65h-2.69v-2.39l-.77.08Zm8.82 10.32c1.26 0 2.64-.51 3.4-1.52l-.55-.45c-.6.79-1.81 1.2-2.85 1.2a3.11 3.11 0 0 1-3.22-2.92h7.12c.3-3.1-1.68-4.45-3.9-4.45a3.97 3.97 0 0 0-4.02 4.08c0 2.51 1.8 4.06 4.02 4.06Zm-3.22-4.38a3.16 3.16 0 0 1 3.22-3.04c1.9 0 3.18 1.09 3.2 3.04h-6.42Zm15.06-2.7a4.14 4.14 0 0 0-2.95-1.06c-1.6-.02-3.15.65-3.13 2.2.01 1.59 1.53 1.88 3.07 2.13 1.3.21 2.6.44 2.57 1.57-.05 1.25-1.5 1.5-2.46 1.5-1.06 0-2.24-.4-2.9-1.34l-.57.51c.69 1.06 2.06 1.59 3.45 1.59 1.4 0 3.2-.47 3.25-2.21.08-1.84-1.85-2.08-3.26-2.32-1-.18-2.37-.38-2.4-1.44-.03-1 1.15-1.47 2.38-1.46.88 0 1.67.13 2.47.84l.48-.52Z" fill="#0166A3"/><path d="M562.56 264.2h-6.6V281h6.6c5.88 0 8.47-4.3 8.4-8.54-.07-4.16-2.64-8.26-8.4-8.26Zm-3.46 3h3.46c3.65 0 5.18 2.62 5.26 5.23.07 2.74-1.44 5.52-5.26 5.52h-3.46V267.2Zm23.26 3.6c-.68-1.18-2.19-1.92-3.77-1.92-3.46-.02-6.17 2.11-6.17 6.2 0 4.14 2.6 6.3 6.1 6.28 1.32-.02 3.16-.7 3.84-2.09l.14 1.73h2.76v-11.83h-2.8l-.1 1.63Zm-3.5.7c4.6 0 4.6 7.17 0 7.17-1.95 0-3.51-1.34-3.51-3.6 0-2.25 1.56-3.57 3.5-3.57Zm8.88-2.33V281h2.93v-6.24c0-2.18 1.42-3 2.95-3 .96 0 1.51.26 2.11.77l1.32-2.55a4.49 4.49 0 0 0-3.04-1.12c-1.2 0-2.43.21-3.34 1.68l-.22-1.37h-2.7Zm10.34-4.95V281H601v-5.35l4.64 5.35h3.52v-.22l-5.5-6.04 4.83-5.4v-.17H605l-3.99 4.75v-9.7h-2.92Zm41.68-.02h-3.55l-3.84 12.12-4.2-12.12h-2.07l-4.08 12.12-3.96-12.12h-3.55l6.17 16.8h2.69l2.04-5.23 1.75-5.35 1.77 5.3 2.1 5.28h2.68l6.05-16.8Zm11.47 11.93c.45-4.87-2.02-7.32-5.98-7.32-3.84 0-6.29 2.59-6.29 6.19 0 3.8 2.43 6.31 6.5 6.31 1.8 0 3.85-.62 5.1-1.92l-1.88-1.85c-.67.7-2.08 1.1-3.16 1.1-2.07 0-3.34-1.05-3.53-2.51h9.24Zm-9.2-2.43c.44-1.53 1.73-2.3 3.32-2.3 1.68 0 2.88.77 3.07 2.3h-6.38Zm18-2.08c1.88 0 3.37 1.32 3.37 3.45a3.33 3.33 0 0 1-3.37 3.48 3.35 3.35 0 0 1-3.43-3.48 3.38 3.38 0 0 1 3.43-3.45Zm-6.55-7.4V281h2.74l.2-1.63c.9 1.41 2.37 1.9 3.8 1.9 3.49 0 6.1-2.31 6.1-6.2 0-4.08-2.57-6.19-6.02-6.19-1.25 0-3.2.67-3.89 1.9v-6.56h-2.93Z" fill="#0166A3"/><path d="m565.86 306-5.02-11.2h-.94l-5.03 11.2h.93l1.22-2.75h6.68l1.24 2.75h.92Zm-8.5-3.55 3-6.82 3 6.82h-6Zm15.58 1.92c-.64.64-1.5.97-2.35.97-1.8 0-3.3-1.16-3.3-3.3 0-2.12 1.5-3.29 3.3-3.29.85 0 1.73.3 2.37.95l.5-.5a4.11 4.11 0 0 0-2.87-1.18c-2.29 0-4.07 1.53-4.07 4.03s1.85 4.03 4.07 4.03c1.04 0 2.08-.38 2.88-1.18l-.53-.53Zm8.94-6.27v1.72a3.59 3.59 0 0 0-3.23-1.82 3.93 3.93 0 0 0-4.01 4.05c0 2.41 1.8 4.08 4.01 4.08a3.7 3.7 0 0 0 3.23-1.81V306h.79v-7.9h-.79Zm-3.23.65c4.4 0 4.4 6.61 0 6.61a3.17 3.17 0 0 1-3.23-3.31c0-1.99 1.44-3.3 3.23-3.3Zm9.72-.03a3.17 3.17 0 0 1 3.23 3.31c0 1.97-1.37 3.33-3.23 3.33-1.78 0-3.23-1.12-3.23-3.31 0-2.23 1.45-3.33 3.23-3.33Zm3.25-3.92v5.02c-.64-1.28-1.92-1.85-3.28-1.85-2.21 0-3.97 1.47-3.97 4.08 0 2.62 1.74 4.08 3.95 4.08 1.35 0 2.64-.67 3.3-1.87V306h.77v-11.2h-.77Zm6.77 11.31c1.26 0 2.64-.51 3.4-1.52l-.56-.45c-.59.79-1.8 1.2-2.84 1.2a3.11 3.11 0 0 1-3.22-2.92h7.12c.3-3.1-1.68-4.45-3.9-4.45a3.97 3.97 0 0 0-4.02 4.08c0 2.51 1.8 4.06 4.02 4.06Zm-3.22-4.38a3.16 3.16 0 0 1 3.22-3.04c1.9 0 3.18 1.09 3.2 3.04h-6.42Zm21.49 4.27v-4.74a3.18 3.18 0 0 0-3.31-3.32c-1.22 0-2.45.65-2.93 1.95-.47-1.41-1.73-1.95-2.93-1.95a2.8 2.8 0 0 0-2.58 1.47l-.01-1.31h-.74v7.9h.79v-4.69c0-1.52 1.02-2.62 2.52-2.62s2.55 1.1 2.55 2.62V306h.78v-4.69c0-1.52 1.04-2.64 2.55-2.64 1.5 0 2.52 1.07 2.52 2.6V306h.79Zm2.99-7.94V306h-.79v-7.94h.79Zm-1.01-2.54c0 .83 1.26.83 1.26 0s-1.26-.83-1.26 0Zm9.2 8.85c-.63.64-1.5.97-2.34.97-1.8 0-3.3-1.16-3.3-3.3 0-2.12 1.5-3.29 3.3-3.29.84 0 1.72.3 2.36.95l.52-.5a4.11 4.11 0 0 0-2.88-1.18c-2.3 0-4.07 1.53-4.07 4.03s1.84 4.03 4.07 4.03c1.04 0 2.08-.38 2.88-1.18l-.53-.53Zm7.55 1.63v-11.2h-.85V306h.85Zm2.32-7.9v7.9h.78v-4.4c0-1.63 1.14-2.86 2.77-2.88 1.71-.02 2.82.94 2.82 2.74V306h.78v-4.56c0-2.2-1.46-3.49-3.57-3.49-1.1.02-2.2.47-2.81 1.55v-1.4h-.77Zm10.78 7.9v-7.15h2.61v-.69h-2.6v-.7c0-1.38.57-1.99 1.56-1.99.48 0 .79.15 1.22.4l.38-.57a2.59 2.59 0 0 0-1.56-.55c-1.75 0-2.37 1.14-2.37 2.7v.71h-1.62v.69h1.62V306h.76Zm7.44.11a3.86 3.86 0 0 0 4.02-4.05c0-2.5-1.8-4.1-4.02-4.1a3.92 3.92 0 0 0-4.01 4.1 3.86 3.86 0 0 0 4.01 4.05Zm0-.77a3.12 3.12 0 0 1-3.24-3.28c0-2.04 1.45-3.37 3.24-3.37 1.8 0 3.25 1.33 3.25 3.37a3.12 3.12 0 0 1-3.25 3.28Zm5.83-7.24v7.9h.78v-4.6a2.63 2.63 0 0 1 3.95-2.28l.35-.64a3.09 3.09 0 0 0-1.7-.46c-1 0-2.12.41-2.62 1.48l-.03-1.4h-.74Zm18.76 7.9v-4.74a3.18 3.18 0 0 0-3.31-3.32c-1.22 0-2.45.65-2.93 1.95-.47-1.41-1.73-1.95-2.93-1.95a2.8 2.8 0 0 0-2.58 1.47l-.01-1.31h-.74v7.9h.78v-4.69c0-1.52 1.03-2.62 2.53-2.62 1.5 0 2.55 1.1 2.55 2.62V306h.78v-4.69c0-1.52 1.04-2.64 2.55-2.64 1.5 0 2.52 1.07 2.52 2.6V306h.79Zm9.02-7.9v1.72a3.59 3.59 0 0 0-3.23-1.82 3.93 3.93 0 0 0-4.02 4.05 3.96 3.96 0 0 0 4.02 4.08 3.7 3.7 0 0 0 3.23-1.81V306h.78v-7.9h-.78Zm-3.23.65c4.4 0 4.4 6.61 0 6.61a3.17 3.17 0 0 1-3.23-3.31c0-1.99 1.44-3.3 3.23-3.3Zm6.84-2.96v2.3h-1.68v.66h1.68v4.82c0 1.55.55 2.54 2.23 2.54.5 0 .99-.16 1.49-.4l-.28-.64c-.4.2-.83.32-1.21.32-1.23 0-1.46-.75-1.46-1.82v-4.82h2.69v-.65h-2.69v-2.39l-.77.08Zm6.05 2.27V306h-.79v-7.94h.79Zm-1.01-2.54c0 .83 1.26.83 1.26 0s-1.26-.83-1.26 0Zm7.07 10.6a3.86 3.86 0 0 0 4.02-4.06c0-2.5-1.8-4.1-4.02-4.1a3.92 3.92 0 0 0-4.01 4.1 3.86 3.86 0 0 0 4.01 4.05Zm0-.78a3.12 3.12 0 0 1-3.25-3.28c0-2.04 1.46-3.37 3.25-3.37 1.8 0 3.25 1.33 3.25 3.37a3.12 3.12 0 0 1-3.25 3.28Zm5.82-7.24v7.9h.79v-4.4c0-1.63 1.13-2.86 2.76-2.88 1.72-.02 2.82.94 2.82 2.74V306h.78v-4.56c0-2.2-1.45-3.49-3.56-3.49-1.1.02-2.21.47-2.82 1.55v-1.4h-.77ZM565.8 330h.85v-11.2h-1.06l-4.24 6.53-4.29-6.53h-1.02V330h.86v-9.95l4.32 6.56h.3l4.28-6.56V330Zm10.31 0v-7.92h-.78v4.4c0 1.63-1.14 2.86-2.77 2.88-1.71.02-2.82-.94-2.82-2.74v-4.54h-.78v4.56c0 2.2 1.45 3.49 3.57 3.49 1.1-.02 2.2-.47 2.81-1.55V330h.77Zm2.07-11.2V330h.78v-11.2h-.78Zm4 1v2.3h-1.67v.65h1.68v4.82c0 1.55.54 2.54 2.22 2.54.5 0 1-.16 1.49-.4l-.27-.64c-.4.2-.84.32-1.22.32-1.23 0-1.46-.75-1.46-1.82v-4.82h2.7v-.65h-2.7v-2.39l-.76.08Zm6.05 2.26V330h-.79v-7.94h.79Zm-1.01-2.54c0 .83 1.26.83 1.26 0s-1.26-.83-1.26 0Zm3.25-.72V330h.79v-11.2h-.79Zm3.76 3.26V330h-.79v-7.94h.79Zm-1.01-2.54c0 .83 1.26.83 1.26 0s-1.26-.83-1.26 0Zm3.25 2.58v7.9h.79v-4.4c0-1.63 1.13-2.86 2.77-2.88 1.7-.02 2.81.94 2.81 2.74V330h.79v-4.56c0-2.2-1.46-3.49-3.57-3.49-1.1.02-2.21.47-2.82 1.55v-1.4h-.77Zm14.8.57a4.01 4.01 0 0 0-2.25-.72c-2.05 0-3.71 1.4-3.71 3.86 0 2.11 1.42 3.82 3.71 3.82 1.47 0 3 .67 3 2.37 0 1.68-1.41 2.38-3 2.38-1.58 0-2.96-.76-2.96-2.38h-.78c0 2 1.64 3.15 3.74 3.15 2.1 0 3.76-1.02 3.76-3.15 0-1.36-.77-2.34-2.16-2.83a3.74 3.74 0 0 0 2.13-3.36 3.7 3.7 0 0 0-.98-2.69l.77-.9-.51-.44-.77.9Zm-2.25.07c1.63 0 2.96 1.07 2.96 3.07a3.03 3.03 0 0 1-2.96 3.04c-1.8 0-2.93-1.41-2.93-3.04 0-2.07 1.31-3.07 2.93-3.07ZM621.5 330v-7.92h-.78v4.4c0 1.63-1.14 2.86-2.77 2.88-1.71.02-2.82-.94-2.82-2.74v-4.54h-.78v4.56c0 2.2 1.45 3.49 3.57 3.49 1.1-.02 2.2-.47 2.81-1.55V330h.77Zm8.88-7.9v1.72a3.59 3.59 0 0 0-3.23-1.82 3.93 3.93 0 0 0-4.01 4.05c0 2.41 1.8 4.08 4.01 4.08a3.7 3.7 0 0 0 3.23-1.81V330h.79v-7.9h-.79Zm-3.23.65c4.4 0 4.4 6.61 0 6.61a3.17 3.17 0 0 1-3.23-3.31c0-1.99 1.44-3.3 3.23-3.3Zm6.15-3.95V330h.79v-11.2h-.79Zm11.23 0h-3.79V330h3.8c3.91 0 5.74-2.88 5.67-5.73-.06-2.75-1.88-5.47-5.68-5.47Zm0 .82c3.24 0 4.77 2.32 4.82 4.65.05 2.4-1.49 4.9-4.82 4.9h-2.92v-9.55h2.92ZM659 322.1v1.72a3.59 3.59 0 0 0-3.23-1.82 3.93 3.93 0 0 0-4.01 4.05c0 2.41 1.8 4.08 4.01 4.08a3.7 3.7 0 0 0 3.23-1.81V330h.79v-7.9H659Zm-3.23.65c4.4 0 4.4 6.61 0 6.61a3.17 3.17 0 0 1-3.23-3.31c0-1.99 1.44-3.3 3.23-3.3Zm6.85-2.96v2.3h-1.68v.66h1.68v4.82c0 1.55.54 2.54 2.22 2.54.5 0 1-.16 1.49-.4l-.27-.64c-.4.2-.83.32-1.22.32-1.23 0-1.45-.75-1.45-1.82v-4.82h2.68v-.65h-2.68v-2.39l-.77.08Zm12.07 2.3v1.73a3.59 3.59 0 0 0-3.23-1.82 3.93 3.93 0 0 0-4.02 4.05 3.96 3.96 0 0 0 4.02 4.08 3.7 3.7 0 0 0 3.23-1.81V330h.78v-7.9h-.78Zm-3.23.66c4.4 0 4.4 6.61 0 6.61a3.17 3.17 0 0 1-3.23-3.31c0-1.99 1.44-3.3 3.23-3.3Zm10-.03c1.78 0 3.24 1.1 3.24 3.33 0 2.19-1.46 3.31-3.23 3.31-1.86 0-3.23-1.36-3.23-3.33s1.4-3.31 3.23-3.31Zm-4-3.92V330h.76v-1.74a3.72 3.72 0 0 0 3.3 1.87c2.2 0 3.95-1.46 3.95-4.08 0-2.61-1.76-4.08-3.97-4.08-1.36 0-2.64.57-3.28 1.85v-5.02h-.77Zm16.75 3.3v1.72a3.59 3.59 0 0 0-3.24-1.82 3.93 3.93 0 0 0-4.01 4.05c0 2.41 1.8 4.08 4.01 4.08a3.7 3.7 0 0 0 3.24-1.81V330h.78v-7.9h-.78Zm-3.24.65c4.4 0 4.4 6.61 0 6.61a3.17 3.17 0 0 1-3.23-3.31c0-1.99 1.44-3.3 3.23-3.3Zm12.06.27a4.14 4.14 0 0 0-2.95-1.05c-1.6-.02-3.15.65-3.13 2.2.01 1.59 1.53 1.88 3.07 2.13 1.3.21 2.6.44 2.58 1.57-.05 1.25-1.5 1.5-2.47 1.5-1.05 0-2.24-.4-2.9-1.34l-.57.51c.69 1.06 2.06 1.59 3.46 1.59 1.39 0 3.2-.47 3.24-2.21.08-1.84-1.85-2.08-3.26-2.32-1-.18-2.37-.38-2.4-1.44-.03-1 1.15-1.47 2.38-1.46.88 0 1.67.13 2.47.84l.48-.52Zm5.65 7.1c1.26 0 2.64-.52 3.4-1.53l-.56-.45c-.59.79-1.8 1.2-2.84 1.2a3.11 3.11 0 0 1-3.22-2.92h7.12c.3-3.1-1.68-4.45-3.9-4.45a3.97 3.97 0 0 0-4.02 4.08c0 2.51 1.8 4.06 4.02 4.06Zm-3.22-4.4a3.16 3.16 0 0 1 3.22-3.03c1.9 0 3.18 1.09 3.2 3.04h-6.42ZM556.9 343.67h6.67v-.86h-7.54v11.22h.87v-5.08h6.45v-.81h-6.45v-4.47Zm9.21 2.4V354h-.78v-7.94h.78Zm-1-2.54c0 .83 1.26.83 1.26 0s-1.27-.83-1.27 0Zm3.25 2.58v7.9h.78v-4.4c0-1.63 1.14-2.86 2.77-2.88 1.71-.02 2.82.94 2.82 2.74V354h.78v-4.56c0-2.2-1.46-3.49-3.57-3.49-1.1.02-2.2.47-2.81 1.55v-1.4h-.77Zm16.02 0v1.72a3.59 3.59 0 0 0-3.23-1.82 3.93 3.93 0 0 0-4.02 4.05c0 2.41 1.8 4.08 4.02 4.08a3.7 3.7 0 0 0 3.23-1.81V354h.78v-7.9h-.78Zm-3.23.65c4.4 0 4.4 6.61 0 6.61a3.17 3.17 0 0 1-3.24-3.31c0-1.99 1.44-3.3 3.24-3.3Zm6.15-.65v7.9h.78v-4.4c0-1.63 1.14-2.86 2.77-2.88 1.71-.02 2.81.94 2.81 2.74V354h.79v-4.56c0-2.2-1.46-3.49-3.57-3.49a3.2 3.2 0 0 0-2.82 1.55v-1.4h-.76Zm15.15 6.27c-.64.64-1.5.97-2.35.97-1.8 0-3.3-1.16-3.3-3.3 0-2.12 1.5-3.29 3.3-3.29.85 0 1.73.3 2.37.95l.5-.5a4.11 4.11 0 0 0-2.87-1.18c-2.29 0-4.07 1.53-4.07 4.03s1.85 4.03 4.07 4.03c1.04 0 2.08-.38 2.88-1.18l-.53-.53Zm2.91-6.3V354h-.78v-7.94h.78Zm-1-2.55c0 .83 1.26.83 1.26 0s-1.27-.83-1.27 0Zm10.06 2.58v1.72a3.59 3.59 0 0 0-3.23-1.82 3.93 3.93 0 0 0-4.01 4.05c0 2.41 1.8 4.08 4.01 4.08a3.7 3.7 0 0 0 3.24-1.81V354h.78v-7.9h-.79Zm-3.23.65c4.4 0 4.4 6.61 0 6.61a3.17 3.17 0 0 1-3.23-3.31c0-1.99 1.44-3.3 3.23-3.3Zm6.15-3.95V354h.79v-11.2h-.79Zm12.51 6.91c2.45 0 3.65-1.6 3.64-3.42a3.46 3.46 0 0 0-3.68-3.49h-4.93V354h.86v-4.24h3.06l3.87 4.24h1.14l-3.96-4.29Zm-4.1-6.11h4.06a2.58 2.58 0 0 1 2.73 2.67c-.01 1.57-.88 2.67-2.83 2.67h-3.97v-5.34Zm12.93 10.51c1.26 0 2.64-.51 3.4-1.52l-.56-.45c-.59.79-1.8 1.2-2.84 1.2a3.11 3.11 0 0 1-3.22-2.92h7.12c.3-3.1-1.68-4.45-3.9-4.45a3.97 3.97 0 0 0-4.02 4.08c0 2.51 1.8 4.06 4.02 4.06Zm-3.22-4.38a3.16 3.16 0 0 1 3.22-3.04c1.9 0 3.18 1.09 3.2 3.04h-6.42Zm15.1 2.64c-.64.64-1.5.97-2.35.97-1.8 0-3.3-1.16-3.3-3.3 0-2.12 1.5-3.29 3.3-3.29.85 0 1.73.3 2.37.95l.5-.5a4.11 4.11 0 0 0-2.87-1.18c-2.29 0-4.07 1.53-4.07 4.03s1.85 4.03 4.07 4.03c1.04 0 2.08-.38 2.88-1.18l-.53-.53Zm5.93 1.74a3.86 3.86 0 0 0 4.02-4.05c0-2.5-1.8-4.1-4.02-4.1a3.92 3.92 0 0 0-4.01 4.1 3.86 3.86 0 0 0 4.01 4.05Zm0-.77a3.12 3.12 0 0 1-3.25-3.28c0-2.04 1.46-3.37 3.25-3.37 1.8 0 3.25 1.33 3.25 3.37a3.12 3.12 0 0 1-3.25 3.28Zm5.82-7.24v7.9h.79v-4.6a2.63 2.63 0 0 1 3.95-2.28l.35-.64a3.09 3.09 0 0 0-1.7-.46c-1 0-2.12.41-2.62 1.48l-.03-1.4h-.74Zm9.84.62a3.17 3.17 0 0 1 3.23 3.31c0 1.97-1.38 3.33-3.23 3.33-1.78 0-3.24-1.12-3.24-3.31 0-2.23 1.46-3.33 3.24-3.33Zm3.24-3.92v5.02c-.64-1.28-1.92-1.85-3.28-1.85-2.2 0-3.96 1.47-3.96 4.08 0 2.62 1.74 4.08 3.95 4.08 1.34 0 2.64-.67 3.3-1.87V354h.76v-11.2h-.77Zm8.94 4.22a4.14 4.14 0 0 0-2.95-1.05c-1.6-.02-3.15.65-3.13 2.2.01 1.59 1.53 1.88 3.07 2.13 1.3.21 2.6.44 2.57 1.57-.04 1.25-1.5 1.5-2.46 1.5-1.06 0-2.24-.4-2.9-1.34l-.57.51c.68 1.06 2.06 1.59 3.45 1.59 1.4 0 3.2-.47 3.25-2.21.08-1.84-1.86-2.08-3.26-2.32-1-.18-2.37-.38-2.4-1.44-.03-1 1.15-1.47 2.38-1.46.88 0 1.66.13 2.47.84l.48-.52Zm-118.98 21.3a5.83 5.83 0 0 0-4.1-1.68c-3.4 0-5.8 2.29-5.78 5.8 0 3.05 1.97 5.7 5.78 5.7a5.8 5.8 0 0 0 4.22-1.8v-4.2h-4.72v.76h3.9v3.13c-.95.88-2.2 1.3-3.4 1.3-3.26 0-4.94-2.27-4.94-4.91-.02-2.6 1.66-5 4.94-5a5.2 5.2 0 0 1 3.6 1.44l.5-.54Zm5.97 9.8a3.86 3.86 0 0 0 4.02-4.06c0-2.5-1.8-4.1-4.02-4.1a3.92 3.92 0 0 0-4.02 4.1c0 2.52 1.8 4.05 4.02 4.05Zm0-.78a3.12 3.12 0 0 1-3.25-3.28c0-2.04 1.46-3.37 3.25-3.37 1.8 0 3.25 1.33 3.25 3.37a3.12 3.12 0 0 1-3.25 3.28Zm8.22.66h.87l3.31-7.9h-.86l-2.88 6.99-2.88-7h-.87l3.31 7.91Zm9.04.11c1.27 0 2.64-.51 3.41-1.52l-.56-.45c-.6.79-1.8 1.2-2.85 1.2a3.11 3.11 0 0 1-3.21-2.92h7.12c.3-3.1-1.68-4.45-3.9-4.45a3.97 3.97 0 0 0-4.02 4.08 3.87 3.87 0 0 0 4.01 4.06Zm-3.21-4.38a3.16 3.16 0 0 1 3.21-3.04c1.9 0 3.19 1.09 3.2 3.04h-6.41Zm9.14-3.63v7.9h.79v-4.6a2.63 2.63 0 0 1 3.95-2.28l.35-.64a3.09 3.09 0 0 0-1.7-.46c-1 0-2.12.41-2.62 1.48l-.03-1.4h-.74Zm6.27 0v7.9h.78v-4.4c0-1.63 1.14-2.86 2.77-2.88 1.71-.02 2.82.94 2.82 2.74V378h.78v-4.56c0-2.2-1.45-3.49-3.56-3.49-1.1.02-2.21.47-2.82 1.55v-1.4h-.77Zm21.7 7.9v-4.74a3.18 3.18 0 0 0-3.31-3.32c-1.22 0-2.45.65-2.93 1.95-.46-1.41-1.73-1.95-2.93-1.95-1.02 0-2.03.43-2.57 1.47l-.02-1.31h-.74v7.9h.79v-4.69c0-1.52 1.02-2.62 2.53-2.62 1.5 0 2.54 1.1 2.54 2.62V378h.78v-4.69c0-1.52 1.04-2.64 2.55-2.64 1.5 0 2.53 1.07 2.53 2.6V378h.78Zm5.77.11c1.27 0 2.64-.51 3.41-1.52l-.56-.45c-.59.79-1.8 1.2-2.85 1.2a3.11 3.11 0 0 1-3.21-2.92h7.12c.3-3.1-1.68-4.45-3.9-4.45a3.97 3.97 0 0 0-4.02 4.08c0 2.51 1.8 4.06 4.01 4.06Zm-3.21-4.38a3.16 3.16 0 0 1 3.22-3.04c1.9 0 3.18 1.09 3.2 3.04h-6.42Zm9.15-3.63v7.9h.78v-4.4c0-1.63 1.14-2.86 2.77-2.88 1.71-.02 2.81.94 2.81 2.74V378h.79v-4.56c0-2.2-1.46-3.49-3.57-3.49-1.1.02-2.2.47-2.81 1.55v-1.4h-.77Zm9.9-2.3v2.3h-1.68v.65h1.68v4.82c0 1.55.54 2.54 2.22 2.54.5 0 1-.16 1.49-.4l-.27-.64c-.4.2-.84.32-1.22.32-1.23 0-1.46-.75-1.46-1.82v-4.82h2.7v-.65h-2.7v-2.39l-.76.08Zm14.8 5.91c2.44 0 3.64-1.6 3.63-3.42a3.46 3.46 0 0 0-3.68-3.49h-4.93V378h.86v-4.24h3.06l3.87 4.24h1.14l-3.96-4.29Zm-4.12-6.11h4.07a2.58 2.58 0 0 1 2.73 2.67c-.01 1.57-.88 2.67-2.83 2.67h-3.97v-5.34Zm12.94 10.51c1.26 0 2.64-.51 3.4-1.52l-.55-.45c-.6.79-1.81 1.2-2.85 1.2a3.11 3.11 0 0 1-3.22-2.92h7.12c.3-3.1-1.68-4.45-3.9-4.45a3.97 3.97 0 0 0-4.02 4.08c0 2.51 1.8 4.06 4.02 4.06Zm-3.22-4.38a3.16 3.16 0 0 1 3.22-3.04c1.9 0 3.18 1.09 3.2 3.04h-6.42Zm15.05-2.7a4.14 4.14 0 0 0-2.94-1.06c-1.6-.02-3.15.65-3.14 2.2.02 1.59 1.54 1.88 3.08 2.13 1.3.21 2.6.44 2.57 1.57-.05 1.25-1.5 1.5-2.46 1.5-1.06 0-2.24-.4-2.9-1.34l-.57.51c.68 1.06 2.06 1.59 3.45 1.59 1.4 0 3.2-.47 3.25-2.21.08-1.84-1.86-2.08-3.26-2.32-1-.18-2.37-.38-2.4-1.44-.04-1 1.15-1.47 2.38-1.46.88 0 1.66.13 2.46.84l.48-.52Zm5.73 7.08a3.86 3.86 0 0 0 4.02-4.05c0-2.5-1.8-4.1-4.02-4.1a3.92 3.92 0 0 0-4.01 4.1 3.86 3.86 0 0 0 4.01 4.05Zm0-.77a3.12 3.12 0 0 1-3.25-3.28c0-2.04 1.46-3.37 3.25-3.37 1.8 0 3.25 1.33 3.25 3.37a3.12 3.12 0 0 1-3.25 3.28Zm12.96.66v-7.92h-.79v4.4c0 1.63-1.13 2.86-2.76 2.88-1.71.02-2.82-.94-2.82-2.74v-4.54h-.78v4.56c0 2.2 1.45 3.49 3.56 3.49a3.18 3.18 0 0 0 2.82-1.55V378h.77Zm2.07-7.9v7.9h.78v-4.6a2.63 2.63 0 0 1 3.95-2.28l.35-.64a3.09 3.09 0 0 0-1.7-.46c-1 0-2.12.41-2.62 1.48l-.03-1.4h-.73Zm12.21 6.27c-.64.64-1.5.97-2.35.97-1.79 0-3.3-1.16-3.3-3.3 0-2.12 1.51-3.29 3.3-3.29.85 0 1.73.3 2.37.95l.51-.5a4.11 4.11 0 0 0-2.88-1.18c-2.29 0-4.06 1.53-4.06 4.03s1.84 4.03 4.06 4.03c1.04 0 2.08-.38 2.88-1.18l-.53-.53Zm6.01 1.74c1.26 0 2.64-.51 3.4-1.52l-.55-.45c-.6.79-1.8 1.2-2.85 1.2a3.11 3.11 0 0 1-3.22-2.92h7.13c.3-3.1-1.68-4.45-3.9-4.45a3.97 3.97 0 0 0-4.02 4.08 3.87 3.87 0 0 0 4.01 4.06Zm-3.22-4.38a3.16 3.16 0 0 1 3.22-3.04c1.9 0 3.19 1.09 3.2 3.04h-6.42Zm15.06-2.7a4.14 4.14 0 0 0-2.95-1.06c-1.6-.02-3.15.65-3.13 2.2.01 1.59 1.53 1.88 3.07 2.13 1.3.21 2.6.44 2.57 1.57-.04 1.25-1.5 1.5-2.46 1.5-1.06 0-2.24-.4-2.9-1.34l-.57.51c.69 1.06 2.06 1.59 3.45 1.59 1.4 0 3.2-.47 3.25-2.21.08-1.84-1.85-2.08-3.26-2.32-1-.18-2.37-.38-2.4-1.44-.03-1 1.15-1.47 2.38-1.46.88 0 1.67.13 2.47.84l.48-.52Zm-169.16 19.6c-3.77 0-5.65 2.75-5.65 5.75 0 2.96 1.9 5.81 5.65 5.81 3.76 0 5.63-2.83 5.65-5.77.02-3.03-1.87-5.8-5.65-5.8Zm0 .8c3.22 0 4.82 2.38 4.82 4.97 0 2.53-1.62 5-4.82 5-3.18 0-4.78-2.47-4.8-5-.01-2.64 1.59-4.98 4.8-4.98Zm7.55 2.67v7.9h.78v-4.6a2.63 2.63 0 0 1 3.96-2.28l.35-.64a3.09 3.09 0 0 0-1.7-.46c-1 0-2.13.41-2.62 1.48l-.03-1.4h-.74Zm11.85.57a4.01 4.01 0 0 0-2.24-.72c-2.05 0-3.71 1.4-3.71 3.86 0 2.11 1.42 3.82 3.7 3.82 1.48 0 3 .67 3 2.37 0 1.68-1.4 2.38-3 2.38-1.58 0-2.95-.76-2.95-2.38h-.78c0 2 1.64 3.15 3.74 3.15 2.1 0 3.76-1.02 3.76-3.15 0-1.36-.77-2.34-2.16-2.83a3.74 3.74 0 0 0 2.13-3.36 3.7 3.7 0 0 0-.98-2.69l.77-.9-.51-.44-.77.9Zm-2.24.07c1.63 0 2.96 1.07 2.96 3.07a3.03 3.03 0 0 1-2.96 3.04c-1.8 0-2.93-1.41-2.93-3.04 0-2.07 1.31-3.07 2.93-3.07Zm12.16-.64v1.72a3.59 3.59 0 0 0-3.23-1.82 3.93 3.93 0 0 0-4.02 4.05c0 2.41 1.8 4.08 4.02 4.08a3.7 3.7 0 0 0 3.23-1.81V402h.78v-7.9h-.78Zm-3.23.65c4.4 0 4.4 6.61 0 6.61a3.17 3.17 0 0 1-3.24-3.31c0-1.99 1.45-3.3 3.24-3.3Zm6.15-.65v7.9h.78v-4.4c0-1.63 1.14-2.86 2.77-2.88 1.71-.02 2.81.94 2.81 2.74V402h.79v-4.56c0-2.2-1.46-3.49-3.57-3.49-1.1.02-2.2.47-2.81 1.55v-1.4h-.77Zm9.98-.04V402h-.78v-7.94h.78Zm-1-2.54c0 .83 1.26.83 1.26 0s-1.26-.83-1.26 0Zm3.01 3.28h4.79l-5.05 6.93v.27h6.21v-.74h-4.99l5-6.86v-.3h-5.96v.7Zm14.4-.7v1.72a3.59 3.59 0 0 0-3.23-1.82 3.93 3.93 0 0 0-4.02 4.05 3.96 3.96 0 0 0 4.02 4.08 3.7 3.7 0 0 0 3.23-1.81V402h.78v-7.9h-.78Zm-3.23.65c4.4 0 4.4 6.61 0 6.61a3.17 3.17 0 0 1-3.23-3.31c0-1.99 1.44-3.3 3.23-3.3Zm6.85-2.96v2.3h-1.68v.66h1.68v4.82c0 1.55.54 2.54 2.22 2.54.5 0 1-.16 1.49-.4l-.27-.64c-.4.2-.84.32-1.22.32-1.23 0-1.46-.75-1.46-1.82v-4.82h2.7v-.65h-2.7v-2.39l-.76.08Zm6.04 2.27V402h-.79v-7.94h.79Zm-1.01-2.54c0 .83 1.26.83 1.26 0s-1.26-.83-1.26 0Zm7.07 10.6a3.86 3.86 0 0 0 4.02-4.06c0-2.5-1.8-4.1-4.02-4.1a3.92 3.92 0 0 0-4.01 4.1 3.86 3.86 0 0 0 4.01 4.05Zm0-.78a3.12 3.12 0 0 1-3.24-3.28c0-2.04 1.45-3.37 3.24-3.37 1.8 0 3.25 1.33 3.25 3.37a3.12 3.12 0 0 1-3.25 3.28Zm5.82-7.24v7.9h.79v-4.4c0-1.63 1.13-2.86 2.77-2.88 1.7-.02 2.81.94 2.81 2.74V402h.79v-4.56c0-2.2-1.46-3.49-3.57-3.49-1.1.02-2.21.47-2.82 1.55v-1.4h-.77Zm13.66 3.28h5.6v-.84h-5.6v.84Zm17.9-2.36a4.14 4.14 0 0 0-2.94-1.05c-1.6-.02-3.15.65-3.13 2.2.01 1.59 1.53 1.88 3.07 2.13 1.3.21 2.6.44 2.57 1.57-.04 1.25-1.5 1.5-2.46 1.5-1.06 0-2.24-.4-2.9-1.34l-.57.51c.69 1.06 2.06 1.59 3.45 1.59 1.4 0 3.2-.47 3.25-2.21.08-1.84-1.86-2.08-3.26-2.32-1-.18-2.37-.38-2.4-1.44-.03-1 1.15-1.47 2.38-1.46.88 0 1.66.13 2.47.84l.47-.52Zm6.1 6.37c-1.8 0-3.2-1.39-3.2-3.33 0-1.93 1.36-3.32 3.2-3.32 1.8 0 3.23 1.08 3.23 3.3 0 2.23-1.44 3.35-3.23 3.35Zm-3.26 3.9v-5.11a3.57 3.57 0 0 0 3.26 1.96c2.23 0 4.02-1.44 4.02-4.1 0-2.54-1.7-3.98-3.84-4.06-1.54 0-2.8.79-3.43 1.99v-1.87h-.76v11.2h.75Zm12.77-3.18c1.26 0 2.64-.51 3.4-1.52l-.56-.45c-.59.79-1.8 1.2-2.84 1.2a3.11 3.11 0 0 1-3.22-2.92h7.12c.3-3.1-1.68-4.45-3.9-4.45a3.97 3.97 0 0 0-4.02 4.08c0 2.51 1.8 4.06 4.02 4.06Zm-3.22-4.38a3.16 3.16 0 0 1 3.22-3.04c1.9 0 3.18 1.09 3.2 3.04h-6.42Zm15.1 2.64c-.64.64-1.5.97-2.35.97-1.8 0-3.3-1.16-3.3-3.3 0-2.12 1.5-3.29 3.3-3.29.85 0 1.73.3 2.37.95l.5-.5a4.11 4.11 0 0 0-2.87-1.18c-2.29 0-4.07 1.53-4.07 4.03s1.84 4.03 4.07 4.03c1.04 0 2.08-.38 2.88-1.18l-.53-.53Zm2.91-6.3V402h-.78v-7.94h.78Zm-1-2.55c0 .83 1.26.83 1.26 0s-1.27-.83-1.27 0Zm4.83 10.48v-7.15h2.61v-.69h-2.6v-.7c0-1.38.57-1.99 1.56-1.99.48 0 .78.15 1.22.4l.38-.57a2.59 2.59 0 0 0-1.57-.55c-1.74 0-2.37 1.14-2.37 2.7v.71h-1.61v.69h1.61V402h.77Zm5.08-7.94V402h-.79v-7.94h.79Zm-1.01-2.54c0 .83 1.26.83 1.26 0s-1.26-.83-1.26 0Zm9.2 8.85c-.63.64-1.5.97-2.35.97-1.79 0-3.3-1.16-3.3-3.3 0-2.12 1.51-3.29 3.3-3.29.85 0 1.73.3 2.37.95l.51-.5a4.11 4.11 0 0 0-2.88-1.18c-2.28 0-4.06 1.53-4.06 4.03s1.84 4.03 4.06 4.03c1.04 0 2.08-.38 2.88-1.18l-.52-.53Zm-164.54 9.73v7.9h.78v-4.6a2.63 2.63 0 0 1 3.96-2.28l.35-.64a3.09 3.09 0 0 0-1.7-.46c-1 0-2.13.41-2.62 1.48l-.03-1.4h-.74Zm9.83 8.01c1.27 0 2.64-.51 3.41-1.52l-.56-.45c-.59.79-1.8 1.2-2.85 1.2a3.11 3.11 0 0 1-3.21-2.92h7.12c.3-3.1-1.68-4.45-3.9-4.45a3.97 3.97 0 0 0-4.02 4.08 3.87 3.87 0 0 0 4.01 4.06Zm-3.21-4.38a3.16 3.16 0 0 1 3.21-3.04c1.9 0 3.19 1.09 3.2 3.04h-6.41Zm13.16 3.66c-1.8 0-3.2-1.39-3.2-3.33 0-1.93 1.36-3.32 3.2-3.32 1.8 0 3.23 1.08 3.23 3.3 0 2.23-1.44 3.35-3.23 3.35Zm-3.26 3.9v-5.11a3.57 3.57 0 0 0 3.26 1.96c2.23 0 4.02-1.44 4.02-4.1 0-2.54-1.7-3.98-3.84-4.06-1.54 0-2.8.79-3.43 1.99v-1.87h-.76v11.2h.75Zm12.85-3.18a3.86 3.86 0 0 0 4.01-4.05c0-2.5-1.79-4.1-4.01-4.1a3.92 3.92 0 0 0-4.02 4.1c0 2.52 1.8 4.05 4.02 4.05Zm0-.77a3.12 3.12 0 0 1-3.25-3.28c0-2.04 1.46-3.37 3.25-3.37s3.25 1.33 3.25 3.37a3.12 3.12 0 0 1-3.25 3.28Zm11.72-6.32a4.14 4.14 0 0 0-2.94-1.05c-1.6-.02-3.15.65-3.14 2.2.02 1.59 1.54 1.88 3.07 2.13 1.3.21 2.61.44 2.58 1.57-.05 1.25-1.5 1.5-2.46 1.5-1.06 0-2.24-.4-2.9-1.34l-.58.51c.7 1.06 2.07 1.59 3.46 1.59 1.4 0 3.2-.47 3.25-2.21.08-1.84-1.86-2.08-3.27-2.32-.99-.18-2.36-.38-2.4-1.44-.03-1 1.16-1.47 2.39-1.46.88 0 1.66.13 2.46.84l.48-.52Zm2.87-.96V418h-.79v-7.94h.79Zm-1.01-2.54c0 .83 1.26.83 1.26 0s-1.26-.83-1.26 0Zm4.3.27v2.3h-1.69v.66h1.68v4.82c0 1.55.55 2.54 2.23 2.54.5 0 .99-.16 1.49-.4l-.28-.64c-.4.2-.83.32-1.21.32-1.24 0-1.46-.75-1.46-1.82v-4.82h2.69v-.65h-2.69v-2.39l-.77.08Zm8.9 10.32a3.86 3.86 0 0 0 4.01-4.05c0-2.5-1.79-4.1-4.01-4.1a3.92 3.92 0 0 0-4.02 4.1c0 2.52 1.8 4.05 4.02 4.05Zm0-.77a3.12 3.12 0 0 1-3.25-3.28c0-2.04 1.46-3.37 3.25-3.37s3.25 1.33 3.25 3.37a3.12 3.12 0 0 1-3.25 3.28Zm5.82-7.24v7.9h.78v-4.6a2.63 2.63 0 0 1 3.96-2.28l.35-.64a3.09 3.09 0 0 0-1.7-.46c-1 0-2.13.41-2.62 1.48l-.03-1.4h-.74Zm7.05-.04V418h-.79v-7.94h.79Zm-1.01-2.54c0 .83 1.26.83 1.26 0s-1.26-.83-1.26 0Zm6.82 10.6c1.27 0 2.64-.52 3.41-1.53l-.56-.45c-.59.79-1.8 1.2-2.85 1.2a3.11 3.11 0 0 1-3.21-2.92h7.12c.3-3.1-1.68-4.45-3.9-4.45a3.97 3.97 0 0 0-4.02 4.08 3.87 3.87 0 0 0 4.01 4.06Zm-3.21-4.4a3.16 3.16 0 0 1 3.21-3.03c1.9 0 3.19 1.09 3.2 3.04h-6.41Zm15.05-2.7a4.14 4.14 0 0 0-2.94-1.05c-1.6-.02-3.16.65-3.14 2.2.02 1.59 1.54 1.88 3.07 2.13 1.3.21 2.61.44 2.58 1.57-.05 1.25-1.5 1.5-2.47 1.5-1.05 0-2.24-.4-2.9-1.34l-.57.51c.69 1.06 2.07 1.59 3.46 1.59 1.39 0 3.2-.47 3.25-2.21.08-1.84-1.86-2.08-3.27-2.32-.99-.18-2.37-.38-2.4-1.44-.03-1 1.15-1.47 2.39-1.46.88 0 1.66.13 2.46.84l.48-.52Z" fill="#0166A3"/><path d="M100.52 534h3.17v-13.92h5.33v-2.88H95.19v2.88h5.33V534Zm18.32-17.14c-5.81 0-8.64 4.44-8.64 8.86 0 4.42 2.73 8.66 8.64 8.66 5.9 0 8.57-4.34 8.61-8.68.05-4.4-2.83-8.84-8.61-8.84Zm0 2.88c3.96 0 5.54 3.17 5.5 6-.05 2.76-1.54 5.74-5.5 5.74s-5.45-2.95-5.52-5.71c-.07-2.83 1.56-6.03 5.52-6.03Zm25.85 14.04-5.09-5.73c3.2-.65 4.25-2.98 4.25-5.28 0-2.9-2.09-5.55-6.05-5.57l-8-.02V534h3.18v-5.62h3.05l4.9 5.62h3.76v-.22Zm-6.89-13.63c2 0 2.88 1.35 2.88 2.69 0 1.34-.86 2.69-2.88 2.69h-4.82v-5.38h4.82Zm25.56 10.73h-9.43v-3.8h9.1v-2.94h-9.1v-3.87h9.43v-3.07h-12.58V534h12.58v-3.12Zm13.87 3.12v-6.22c0-3.72-2.23-5.8-5.01-5.8-1.5 0-2.7.6-3.9 1.77l-.18-1.6h-2.62V534h2.9v-6.05c0-1.8 1.23-3.31 3.03-3.31 1.87 0 2.86 1.37 2.86 3.17V534h2.92Zm10.7-3.43c-.72.72-1.65.98-2.59.98-1.82 0-3.36-1.2-3.36-3.45 0-2.07 1.44-3.5 3.4-3.5.83 0 1.69.3 2.38.93l1.85-1.95a5.62 5.62 0 0 0-4.27-1.75c-3.43 0-6.29 2.07-6.29 6.27 0 4.2 2.86 6.26 6.3 6.26a6.1 6.1 0 0 0 4.55-1.87l-1.97-1.92Zm3.26-8.4V534h2.93v-6.24c0-2.18 1.41-3 2.95-3 .96 0 1.5.26 2.1.77l1.33-2.55a4.49 4.49 0 0 0-3.05-1.12c-1.2 0-2.42.21-3.33 1.68l-.22-1.37h-2.71Zm19.84 0-2.16 5.18-1.22 3.27-1.13-3.34-1.8-5.11h-3.4l4.72 11.64-2.2 5.13h3.2l7.23-16.77h-3.24Zm11.32 9.29c-2 0-3.36-1.52-3.36-3.36 0-1.85 1.25-3.36 3.36-3.36s3.36 1.5 3.36 3.36a3.28 3.28 0 0 1-3.36 3.36Zm-3.63 7.48v-6.33c.84 1.3 2.7 1.68 3.94 1.68 3.8 0 5.98-2.74 5.98-6.2 0-3.47-2.43-6.19-6.08-6.19a4.7 4.7 0 0 0-3.84 1.9l-.19-1.63h-2.73v16.77h2.92Zm13.28-19.8v3.05h-2.21v2.52h2.2v5.11c0 2.96 1.69 4.42 4.25 4.32a6.54 6.54 0 0 0 2.43-.5l-.82-2.5c-.43.22-.96.36-1.41.36-.92 0-1.54-.55-1.54-1.68v-5.1h3.29v-2.53h-3.27v-3.36l-2.92.31Zm20.12 9.99c.45-4.87-2.02-7.32-5.98-7.32-3.84 0-6.29 2.59-6.29 6.19 0 3.8 2.43 6.31 6.5 6.31 1.8 0 3.85-.62 5.1-1.92l-1.88-1.85c-.67.7-2.08 1.1-3.16 1.1-2.07 0-3.34-1.05-3.53-2.51h9.24Zm-9.2-2.43c.44-1.53 1.73-2.3 3.32-2.3 1.68 0 2.88.77 3.07 2.3h-6.38Zm17.19-2.08a3.37 3.37 0 0 1 3.43 3.45 3.35 3.35 0 0 1-3.43 3.48 3.33 3.33 0 0 1-3.36-3.48c0-2.13 1.49-3.45 3.36-3.45Zm3.62-7.4v6.56c-.7-1.23-2.64-1.9-3.88-1.9-3.46 0-6.03 2.11-6.03 6.2 0 3.88 2.62 6.18 6.1 6.18 1.44 0 2.9-.48 3.81-1.9l.2 1.64h2.73v-16.78h-2.93Zm23.44 2.74c-1.28-2.6-3.99-3.34-6.6-3.34-3.1.03-6.5 1.44-6.5 4.9 0 3.77 3.16 4.68 6.6 5.09 2.22.24 3.88.89 3.88 2.47 0 1.82-1.87 2.52-3.86 2.52-2.04 0-3.99-.82-4.73-2.66l-2.64 1.36c1.25 3.08 3.89 4.13 7.32 4.13 3.74 0 7.05-1.6 7.05-5.35 0-4-3.26-4.92-6.76-5.35-2.02-.24-3.75-.65-3.75-2.11 0-1.25 1.13-2.24 3.48-2.24 1.83 0 3.41.92 3.99 1.88l2.52-1.3Zm5.69 2.16V534h-2.93v-11.88h2.93Zm-3.2-3.29c0 2.28 3.46 2.28 3.46 0s-3.45-2.28-3.45 0Zm7.05.31v3.05h-2.21v2.52h2.2v5.11c0 2.96 1.69 4.42 4.25 4.32a6.54 6.54 0 0 0 2.43-.5l-.82-2.5c-.43.22-.96.36-1.41.36-.91 0-1.54-.55-1.54-1.68v-5.1h3.29v-2.53h-3.26v-3.36l-2.93.31Zm20.12 9.99c.46-4.87-2.02-7.32-5.98-7.32-3.84 0-6.29 2.59-6.29 6.19 0 3.8 2.43 6.31 6.5 6.31 1.8 0 3.85-.62 5.1-1.92l-1.88-1.85c-.67.7-2.08 1.1-3.16 1.1-2.07 0-3.34-1.05-3.53-2.51h9.24Zm-9.2-2.43c.44-1.53 1.74-2.3 3.32-2.3 1.68 0 2.88.77 3.07 2.3h-6.38Zm20.81-3.3c-1.36-1.2-2.75-1.57-4.6-1.57-2.16 0-5 .96-5 3.7 0 2.69 2.67 3.5 4.9 3.67 1.68.1 2.35.43 2.35 1.25 0 .86-1.03 1.44-2.13 1.41-1.32-.02-3.24-.72-4.08-1.65l-1.44 2.09c1.73 1.8 3.6 2.1 5.47 2.1 3.38 0 5.09-1.8 5.09-3.88 0-3.14-2.83-3.65-5.07-3.8-1.5-.09-2.2-.52-2.2-1.29 0-.74.76-1.17 2.15-1.17 1.13 0 2.1.26 2.93 1.05l1.63-1.92Z" fill="#0166A3"/><path d="M99.74 547.8h-3.8V559h3.8c3.92 0 5.74-2.88 5.68-5.73-.07-2.75-1.9-5.47-5.68-5.47Zm0 .82c3.23 0 4.76 2.32 4.81 4.65.05 2.4-1.49 4.9-4.81 4.9H96.8v-9.55h2.93Zm7.48 2.48v7.9h.79v-4.6a2.63 2.63 0 0 1 3.95-2.28l.35-.64a3.09 3.09 0 0 0-1.7-.46c-1 0-2.12.41-2.62 1.48l-.03-1.4h-.74Zm13.56 7.9v-7.92H120v4.4c0 1.63-1.14 2.86-2.77 2.88-1.71.02-2.82-.94-2.82-2.74v-4.54h-.78v4.56c0 2.2 1.46 3.49 3.57 3.49 1.1-.02 2.2-.47 2.81-1.55V559h.77Zm7.65-7.33a4.01 4.01 0 0 0-2.24-.72c-2.05 0-3.7 1.4-3.7 3.86 0 2.11 1.42 3.82 3.7 3.82 1.48 0 3 .67 3 2.37 0 1.68-1.41 2.38-3 2.38-1.58 0-2.96-.76-2.96-2.38h-.78c0 2 1.65 3.15 3.74 3.15 2.1 0 3.76-1.02 3.76-3.15 0-1.36-.76-2.34-2.16-2.83a3.74 3.74 0 0 0 2.13-3.36 3.7 3.7 0 0 0-.97-2.69l.76-.9-.5-.44-.78.9Zm-2.24.07c1.64 0 2.96 1.07 2.96 3.07a3.03 3.03 0 0 1-2.96 3.04c-1.8 0-2.92-1.41-2.92-3.04 0-2.07 1.3-3.07 2.92-3.07Zm13.08 7.26h.86v-10.42h4.05v-.76h-8.96v.76h4.05V559Zm4.75-7.9v7.9h.78v-4.6a2.63 2.63 0 0 1 3.96-2.28l.35-.64a3.09 3.09 0 0 0-1.7-.46c-1 0-2.13.41-2.62 1.48l-.03-1.4h-.74Zm13.08 0v1.72a3.59 3.59 0 0 0-3.23-1.82 3.93 3.93 0 0 0-4.02 4.05 3.96 3.96 0 0 0 4.02 4.08 3.7 3.7 0 0 0 3.23-1.81V559h.79v-7.9h-.79Zm-3.23.65c4.4 0 4.4 6.61 0 6.61a3.17 3.17 0 0 1-3.23-3.31c0-1.99 1.44-3.3 3.23-3.3Zm7.73 7.25v-7.15h2.61v-.69h-2.6v-.7c0-1.38.57-1.99 1.56-1.99.48 0 .79.15 1.22.4l.38-.57a2.59 2.59 0 0 0-1.56-.55c-1.75 0-2.37 1.14-2.37 2.7v.71h-1.62v.69h1.62V559h.76Zm6.04 0v-7.15h2.6v-.69h-2.6v-.7c0-1.38.57-1.99 1.56-1.99.48 0 .79.15 1.22.4l.38-.57a2.59 2.59 0 0 0-1.56-.55c-1.75 0-2.37 1.14-2.37 2.7v.71h-1.62v.69h1.62V559h.77Zm5.07-7.94V559h-.78v-7.94h.78Zm-1-2.54c0 .83 1.26.83 1.26 0s-1.27-.83-1.27 0Zm9.2 8.85c-.64.64-1.5.97-2.35.97-1.8 0-3.3-1.16-3.3-3.3 0-2.12 1.5-3.29 3.3-3.29.85 0 1.73.3 2.37.95l.5-.5a4.11 4.11 0 0 0-2.87-1.18c-2.29 0-4.07 1.53-4.07 4.03s1.84 4.03 4.07 4.03c1.04 0 2.08-.38 2.88-1.18l-.53-.53Zm2.13-9.57V559h.76v-3.87l4.24 3.87h1v-.05l-4.47-4.13 4-3.7v-.02h-1.04l-3.73 3.45v-6.75h-.76Zm7.8 3.26V559h-.79v-7.94h.79Zm-1.01-2.54c0 .83 1.26.83 1.26 0s-1.26-.83-1.26 0Zm3.25 2.58v7.9h.79v-4.4c0-1.63 1.13-2.86 2.76-2.88 1.72-.02 2.82.94 2.82 2.74V559h.79v-4.56c0-2.2-1.46-3.49-3.57-3.49-1.1.02-2.21.47-2.82 1.55v-1.4h-.77Zm14.79.57a4.01 4.01 0 0 0-2.24-.72c-2.05 0-3.71 1.4-3.71 3.86 0 2.11 1.42 3.82 3.71 3.82 1.47 0 3 .67 3 2.37 0 1.68-1.42 2.38-3 2.38s-2.96-.76-2.96-2.38h-.78c0 2 1.64 3.15 3.74 3.15 2.1 0 3.76-1.02 3.76-3.15 0-1.36-.77-2.34-2.16-2.83a3.74 3.74 0 0 0 2.13-3.36 3.7 3.7 0 0 0-.98-2.69l.77-.9-.51-.44-.77.9Zm-2.24.07c1.63 0 2.96 1.07 2.96 3.07a3.03 3.03 0 0 1-2.96 3.04c-1.8 0-2.93-1.41-2.93-3.04 0-2.07 1.31-3.07 2.93-3.07Zm-104.7 20.86c3.73 0 3.73 5.74 0 5.74H96.9v-5.74h4.05Zm0 6.53c4.87 0 4.87-7.33 0-7.33h-4.9V583h.86v-3.87h4.05Zm5.07-4.03v7.9h.79v-4.6a2.63 2.63 0 0 1 3.95-2.28l.35-.64a3.09 3.09 0 0 0-1.7-.46c-1 0-2.12.41-2.62 1.48l-.03-1.4h-.73Zm7.06-.04V583h-.79v-7.94h.79Zm-1.01-2.54c0 .83 1.26.83 1.26 0s-1.26-.83-1.26 0Zm5.81 10.48h.87l3.3-7.9h-.86l-2.88 6.99-2.88-7h-.86l3.31 7.91Zm12.29-7.9v1.72a3.59 3.59 0 0 0-3.23-1.82 3.93 3.93 0 0 0-4.02 4.05c0 2.41 1.8 4.08 4.02 4.08a3.7 3.7 0 0 0 3.23-1.81V583h.78v-7.9h-.78Zm-3.23.65c4.4 0 4.4 6.61 0 6.61a3.17 3.17 0 0 1-3.23-3.31c0-1.99 1.44-3.3 3.23-3.3Zm6.84-2.96v2.3h-1.68v.66h1.68v4.82c0 1.55.55 2.54 2.23 2.54.5 0 .99-.16 1.49-.4l-.28-.64c-.4.2-.83.32-1.21.32-1.23 0-1.46-.75-1.46-1.82v-4.82h2.69v-.65h-2.69v-2.39l-.77.08Zm8.83 10.32c1.26 0 2.64-.51 3.4-1.52l-.55-.45c-.6.79-1.81 1.2-2.85 1.2a3.11 3.11 0 0 1-3.22-2.92h7.12c.3-3.1-1.68-4.45-3.9-4.45a3.97 3.97 0 0 0-4.02 4.08c0 2.51 1.8 4.06 4.02 4.06Zm-3.22-4.38a3.16 3.16 0 0 1 3.22-3.04c1.9 0 3.18 1.09 3.2 3.04h-6.42Zm22.37 2.17a5 5 0 0 1-3.5 1.43c-3.23 0-4.9-2.27-4.93-4.9-.02-2.69 1.66-4.99 4.93-4.99a4.9 4.9 0 0 1 3.49 1.42l.59-.5a5.77 5.77 0 0 0-4.08-1.69c-3.84 0-5.8 2.8-5.76 5.8.02 3.02 1.98 5.66 5.76 5.66 1.47 0 2.96-.56 4.08-1.68l-.58-.55Zm5.94 2.21a3.86 3.86 0 0 0 4.02-4.05c0-2.5-1.8-4.1-4.02-4.1a3.92 3.92 0 0 0-4.01 4.1 3.86 3.86 0 0 0 4.01 4.05Zm0-.77a3.12 3.12 0 0 1-3.24-3.28c0-2.04 1.45-3.37 3.24-3.37 1.8 0 3.25 1.33 3.25 3.37a3.12 3.12 0 0 1-3.25 3.28ZM186 583v-4.74a3.18 3.18 0 0 0-3.31-3.32c-1.22 0-2.45.65-2.93 1.95-.46-1.41-1.73-1.95-2.93-1.95-1.02 0-2.03.43-2.57 1.47l-.02-1.31h-.74v7.9h.79v-4.69c0-1.52 1.02-2.62 2.53-2.62 1.5 0 2.54 1.1 2.54 2.62V583h.78v-4.69c0-1.52 1.05-2.64 2.55-2.64 1.5 0 2.53 1.07 2.53 2.6V583h.78Zm14.7 0v-4.74a3.18 3.18 0 0 0-3.3-3.32c-1.22 0-2.46.65-2.94 1.95-.46-1.41-1.72-1.95-2.92-1.95-1.03 0-2.04.43-2.58 1.47l-.02-1.31h-.73v7.9h.78v-4.69c0-1.52 1.03-2.62 2.53-2.62 1.5 0 2.54 1.1 2.54 2.62V583h.79v-4.69c0-1.52 1.04-2.64 2.54-2.64s2.53 1.07 2.53 2.6V583h.78Zm9 0v-7.92h-.78v4.4c0 1.63-1.14 2.86-2.77 2.88-1.71.02-2.81-.94-2.81-2.74v-4.54h-.79v4.56c0 2.2 1.46 3.49 3.57 3.49a3.2 3.2 0 0 0 2.82-1.55V583h.76Zm2.07-7.9v7.9h.78v-4.4c0-1.63 1.14-2.86 2.77-2.88 1.72-.02 2.82.94 2.82 2.74V583h.78v-4.56c0-2.2-1.45-3.49-3.56-3.49-1.1.02-2.21.47-2.82 1.55v-1.4h-.77Zm9.99-.04V583h-.79v-7.94h.79Zm-1.01-2.54c0 .83 1.26.83 1.26 0s-1.26-.83-1.26 0Zm9.2 8.85c-.63.64-1.5.97-2.34.97-1.8 0-3.3-1.16-3.3-3.3 0-2.12 1.5-3.29 3.3-3.29.84 0 1.72.3 2.36.95l.52-.5a4.11 4.11 0 0 0-2.89-1.18c-2.28 0-4.06 1.53-4.06 4.03s1.84 4.03 4.06 4.03c1.05 0 2.09-.38 2.89-1.18l-.53-.53Zm8.95-6.27v1.72a3.59 3.59 0 0 0-3.23-1.82 3.93 3.93 0 0 0-4.02 4.05c0 2.41 1.8 4.08 4.02 4.08a3.7 3.7 0 0 0 3.23-1.81V583h.78v-7.9h-.78Zm-3.23.65c4.4 0 4.4 6.61 0 6.61a3.17 3.17 0 0 1-3.23-3.31c0-1.99 1.44-3.3 3.23-3.3Zm6.84-2.96v2.3h-1.68v.66h1.68v4.82c0 1.55.55 2.54 2.23 2.54.5 0 .99-.16 1.49-.4l-.28-.64c-.4.2-.83.32-1.21.32-1.23 0-1.46-.75-1.46-1.82v-4.82h2.69v-.65h-2.69v-2.39l-.77.08Zm6.05 2.27V583h-.79v-7.94h.78Zm-1.01-2.54c0 .83 1.26.83 1.26 0s-1.26-.83-1.26 0Zm7.07 10.6a3.86 3.86 0 0 0 4.02-4.06c0-2.5-1.8-4.1-4.02-4.1a3.92 3.92 0 0 0-4.01 4.1 3.86 3.86 0 0 0 4.01 4.05Zm0-.78a3.12 3.12 0 0 1-3.25-3.28c0-2.04 1.46-3.37 3.25-3.37 1.8 0 3.25 1.33 3.25 3.37a3.12 3.12 0 0 1-3.25 3.28Zm5.82-7.24v7.9h.79v-4.4c0-1.63 1.13-2.86 2.76-2.88 1.72-.02 2.82.94 2.82 2.74V583h.79v-4.56c0-2.2-1.46-3.49-3.57-3.49-1.1.02-2.21.47-2.82 1.55v-1.4h-.77Zm15.11.92a4.14 4.14 0 0 0-2.94-1.05c-1.6-.02-3.16.65-3.14 2.2.02 1.59 1.54 1.88 3.07 2.13 1.3.21 2.61.44 2.58 1.57-.05 1.25-1.5 1.5-2.47 1.5-1.05 0-2.24-.4-2.9-1.34l-.57.51c.69 1.06 2.07 1.59 3.46 1.59 1.39 0 3.2-.47 3.25-2.21.08-1.84-1.86-2.08-3.27-2.32-.99-.18-2.37-.38-2.4-1.44-.03-1 1.15-1.47 2.39-1.46.88 0 1.66.13 2.46.84l.48-.52ZM100.94 596.6c3.72 0 3.72 5.74 0 5.74h-4.05v-5.74h4.05Zm0 6.53c4.86 0 4.86-7.33 0-7.33h-4.92V607h.87v-3.87h4.05Zm8.71 3.98a3.86 3.86 0 0 0 4.02-4.05c0-2.5-1.8-4.1-4.02-4.1a3.92 3.92 0 0 0-4.01 4.1 3.86 3.86 0 0 0 4.01 4.05Zm0-.77a3.12 3.12 0 0 1-3.25-3.28c0-2.04 1.46-3.37 3.25-3.37 1.8 0 3.25 1.33 3.25 3.37a3.12 3.12 0 0 1-3.25 3.28Zm5.82-10.54V607h.79v-11.2h-.79Zm3.76 3.26V607h-.79v-7.94h.79Zm-1.01-2.54c0 .83 1.26.83 1.26 0s-1.26-.83-1.26 0Zm4.3.27v2.3h-1.69v.66h1.68v4.82c0 1.55.55 2.54 2.23 2.54.5 0 .99-.16 1.49-.4l-.28-.64c-.4.2-.83.32-1.21.32-1.23 0-1.46-.75-1.46-1.82v-4.82h2.69v-.65h-2.69v-2.39l-.77.08Zm6.04 2.27V607h-.79v-7.94h.79Zm-1.01-2.54c0 .83 1.26.83 1.26 0s-1.26-.83-1.26 0Zm9.2 8.85c-.64.64-1.5.97-2.35.97-1.79 0-3.3-1.16-3.3-3.3 0-2.12 1.51-3.29 3.3-3.29.85 0 1.73.3 2.37.95l.51-.5a4.11 4.11 0 0 0-2.88-1.18c-2.29 0-4.06 1.53-4.06 4.03s1.84 4.03 4.06 4.03c1.04 0 2.08-.38 2.88-1.18l-.53-.53Zm8.95-6.27v1.72a3.59 3.59 0 0 0-3.24-1.82 3.93 3.93 0 0 0-4.01 4.05c0 2.41 1.8 4.08 4.01 4.08a3.7 3.7 0 0 0 3.24-1.81V607h.78v-7.9h-.78Zm-3.24.65c4.4 0 4.4 6.61 0 6.61a3.17 3.17 0 0 1-3.23-3.31c0-1.99 1.44-3.3 3.23-3.3Zm6.15-3.95V607h.79v-11.2h-.79Zm12.43.8c3.73 0 3.73 5.74 0 5.74H157v-5.74h4.04Zm0 6.53c4.87 0 4.87-7.33 0-7.33h-4.9V607h.86v-3.87h4.04Zm5.07-4.03v7.9h.79v-4.6a2.63 2.63 0 0 1 3.95-2.28l.35-.64a3.09 3.09 0 0 0-1.7-.46c-1 0-2.12.41-2.62 1.48l-.03-1.4h-.74Zm9.92 8.01a3.86 3.86 0 0 0 4.01-4.05c0-2.5-1.79-4.1-4.01-4.1a3.92 3.92 0 0 0-4.02 4.1c0 2.52 1.8 4.05 4.02 4.05Zm0-.77a3.12 3.12 0 0 1-3.25-3.28c0-2.04 1.46-3.37 3.25-3.37s3.25 1.33 3.25 3.37a3.12 3.12 0 0 1-3.25 3.28Zm6.7-9.55v2.3h-1.68v.66h1.68v4.82c0 1.55.55 2.54 2.23 2.54.5 0 .99-.16 1.48-.4l-.27-.64c-.4.2-.83.32-1.21.32-1.24 0-1.46-.75-1.46-1.82v-4.82h2.69v-.65h-2.69v-2.39l-.77.08Zm8.83 10.32c1.26 0 2.64-.51 3.4-1.52l-.56-.45c-.59.79-1.8 1.2-2.84 1.2a3.11 3.11 0 0 1-3.22-2.92h7.12c.3-3.1-1.68-4.45-3.9-4.45a3.97 3.97 0 0 0-4.02 4.08c0 2.51 1.8 4.06 4.02 4.06Zm-3.22-4.38a3.16 3.16 0 0 1 3.22-3.04c1.9 0 3.18 1.09 3.2 3.04h-6.42Zm15.05-2.7a4.14 4.14 0 0 0-2.94-1.06c-1.6-.02-3.15.65-3.14 2.2.02 1.59 1.54 1.88 3.07 2.13 1.3.21 2.61.44 2.58 1.57-.05 1.25-1.5 1.5-2.46 1.5-1.06 0-2.24-.4-2.9-1.34l-.57.51c.68 1.06 2.06 1.59 3.45 1.59 1.4 0 3.2-.47 3.25-2.21.08-1.84-1.86-2.08-3.26-2.32-1-.18-2.37-.38-2.4-1.44-.04-1 1.15-1.47 2.38-1.46.88 0 1.66.13 2.46.84l.48-.52Zm3.12-3.24v2.3h-1.68v.66h1.68v4.82c0 1.55.55 2.54 2.23 2.54.5 0 .99-.16 1.49-.4l-.28-.64c-.4.2-.83.32-1.21.32-1.23 0-1.46-.75-1.46-1.82v-4.82h2.69v-.65h-2.69v-2.39l-.77.08Zm11.17 3.23a4.14 4.14 0 0 0-2.95-1.05c-1.6-.02-3.15.65-3.13 2.2.01 1.59 1.53 1.88 3.07 2.13 1.3.21 2.6.44 2.57 1.57-.05 1.25-1.5 1.5-2.46 1.5-1.06 0-2.24-.4-2.9-1.34l-.57.51c.69 1.06 2.06 1.59 3.45 1.59 1.4 0 3.2-.47 3.25-2.21.08-1.84-1.85-2.08-3.26-2.32-1-.18-2.37-.38-2.4-1.44-.03-1 1.15-1.47 2.38-1.46.88 0 1.67.13 2.47.84l.48-.52ZM96.88 631v-11.2h-.84V631h.85Zm2.33-11.2V631h.78v-11.2h-.78Zm2.97 0V631h.78v-11.2h-.78Zm6.53 11.31c1.27 0 2.64-.51 3.41-1.52l-.56-.45c-.59.79-1.8 1.2-2.85 1.2a3.11 3.11 0 0 1-3.21-2.92h7.12c.3-3.1-1.68-4.45-3.9-4.45a3.97 3.97 0 0 0-4.02 4.08 3.87 3.87 0 0 0 4.01 4.06Zm-3.21-4.38a3.16 3.16 0 0 1 3.21-3.04c1.9 0 3.19 1.09 3.2 3.04h-6.41Zm14.73-3.06a4.01 4.01 0 0 0-2.24-.72c-2.05 0-3.71 1.4-3.71 3.86 0 2.11 1.42 3.82 3.71 3.82 1.47 0 3 .67 3 2.37 0 1.68-1.42 2.38-3 2.38s-2.96-.76-2.96-2.38h-.78c0 2 1.64 3.15 3.74 3.15 2.1 0 3.76-1.02 3.76-3.15 0-1.36-.77-2.34-2.16-2.83a3.74 3.74 0 0 0 2.13-3.36 3.7 3.7 0 0 0-.98-2.69l.77-.9-.51-.44-.77.9Zm-2.24.07c1.63 0 2.96 1.07 2.96 3.07a3.03 3.03 0 0 1-2.96 3.04c-1.8 0-2.93-1.41-2.93-3.04 0-2.07 1.31-3.07 2.93-3.07Zm12.16-.64v1.72a3.59 3.59 0 0 0-3.23-1.82 3.93 3.93 0 0 0-4.02 4.05c0 2.41 1.8 4.08 4.02 4.08a3.7 3.7 0 0 0 3.23-1.81V631h.78v-7.9h-.78Zm-3.23.65c4.4 0 4.4 6.61 0 6.61a3.17 3.17 0 0 1-3.23-3.31c0-1.99 1.44-3.3 3.23-3.3Zm6.15-3.95V631h.78v-11.2h-.78Zm8.38 11.2v-11.2h-.85V631h.85Zm2.32-7.9v7.9h.78v-4.4c0-1.63 1.14-2.86 2.77-2.88 1.72-.02 2.82.94 2.82 2.74V631h.78v-4.56c0-2.2-1.45-3.49-3.56-3.49-1.1.02-2.21.47-2.82 1.55v-1.4h-.77Zm10.79 7.9v-7.15h2.6v-.69h-2.6v-.7c0-1.38.57-1.99 1.57-1.99.48 0 .78.15 1.21.4l.39-.57a2.59 2.59 0 0 0-1.57-.55c-1.75 0-2.37 1.14-2.37 2.7v.71h-1.62v.69h1.62V631h.77Zm7.44.11a3.86 3.86 0 0 0 4.01-4.05c0-2.5-1.79-4.1-4.01-4.1a3.92 3.92 0 0 0-4.02 4.1c0 2.52 1.8 4.05 4.02 4.05Zm0-.77a3.12 3.12 0 0 1-3.25-3.28c0-2.04 1.46-3.37 3.25-3.37s3.25 1.33 3.25 3.37a3.12 3.12 0 0 1-3.25 3.28Zm5.82-7.24v7.9h.78v-4.6a2.63 2.63 0 0 1 3.95-2.28l.36-.64a3.09 3.09 0 0 0-1.7-.46c-1 0-2.13.41-2.62 1.48l-.04-1.4h-.73Zm18.76 7.9v-4.74a3.18 3.18 0 0 0-3.31-3.32c-1.22 0-2.45.65-2.93 1.95-.47-1.41-1.73-1.95-2.93-1.95-1.02 0-2.03.43-2.57 1.47l-.02-1.31h-.74v7.9h.79v-4.69c0-1.52 1.02-2.62 2.53-2.62 1.5 0 2.54 1.1 2.54 2.62V631h.78v-4.69c0-1.52 1.04-2.64 2.55-2.64 1.5 0 2.52 1.07 2.52 2.6V631h.79Zm9.02-7.9v1.72a3.59 3.59 0 0 0-3.23-1.82 3.93 3.93 0 0 0-4.02 4.05 3.96 3.96 0 0 0 4.02 4.08 3.7 3.7 0 0 0 3.23-1.81V631h.79v-7.9h-.79Zm-3.23.65c4.4 0 4.4 6.61 0 6.61a3.17 3.17 0 0 1-3.23-3.31c0-1.99 1.44-3.3 3.23-3.3Zm6.85-2.96v2.3h-1.68v.66h1.68v4.82c0 1.55.54 2.54 2.22 2.54.5 0 1-.16 1.49-.4l-.27-.64c-.4.2-.84.32-1.22.32-1.23 0-1.45-.75-1.45-1.82v-4.82h2.68v-.65H200v-2.39l-.77.08Zm6.04 2.27V631h-.79v-7.94h.79Zm-1.01-2.54c0 .83 1.26.83 1.26 0s-1.26-.83-1.26 0Zm7.07 10.6a3.86 3.86 0 0 0 4.02-4.06c0-2.5-1.8-4.1-4.02-4.1a3.92 3.92 0 0 0-4.01 4.1c0 2.52 1.8 4.05 4.01 4.05Zm0-.78a3.12 3.12 0 0 1-3.24-3.28c0-2.04 1.45-3.37 3.24-3.37 1.8 0 3.25 1.33 3.25 3.37a3.12 3.12 0 0 1-3.25 3.28Zm5.83-7.24v7.9h.78v-4.4c0-1.63 1.14-2.86 2.77-2.88 1.71-.02 2.81.94 2.81 2.74V631h.79v-4.56c0-2.2-1.46-3.49-3.57-3.49a3.2 3.2 0 0 0-2.82 1.55v-1.4h-.76Z" fill="#0166A3"/><defs><clipPath id="a"><path fill="#fff" transform="translate(486 347)" d="M0 0h1v1H0z"/></clipPath></defs></svg>