<svg width="88" height="88" viewBox="0 0 88 88" fill="none" xmlns="http://www.w3.org/2000/svg">
<path d="M78.76 49.0359C77.8184 48.3107 76.7219 47.813 75.5561 47.5816C74.3903 47.3502 73.1869 47.3915 72.0397 47.7022L70.5547 48.0459C78.0312 41.0953 81.8125 34.2066 81.8125 27.5C81.8125 18.7825 74.8034 11.6875 66.1856 11.6875C63.7552 11.6723 61.3547 12.2235 59.1744 13.2975C56.9942 14.3716 55.0941 15.9388 53.625 17.875C52.1559 15.9388 50.2558 14.3716 48.0756 13.2975C45.8953 12.2235 43.4948 11.6723 41.0644 11.6875C32.4466 11.6875 25.4375 18.7825 25.4375 27.5C25.4375 31.4119 26.6853 35.2309 29.3184 39.3113C27.1601 39.6441 25.1651 40.6597 23.6259 42.2091L15.6475 50.1875H5.5C4.22365 50.1875 2.99957 50.6945 2.09705 51.5971C1.19453 52.4996 0.6875 53.7236 0.6875 55V68.75C0.6875 70.0264 1.19453 71.2504 2.09705 72.153C2.99957 73.0555 4.22365 73.5625 5.5 73.5625H41.25C41.4192 73.5625 41.5877 73.5418 41.7519 73.5006L63.7519 68.0006C63.856 67.9731 63.9583 67.9387 64.0578 67.8975L77.4022 62.2188L77.5156 62.1672C78.6955 61.578 79.7059 60.6981 80.4518 59.6104C81.1976 58.5228 81.6543 57.2631 81.7788 55.9502C81.9033 54.6373 81.6915 53.3143 81.1633 52.1058C80.6352 50.8974 79.8081 49.8433 78.76 49.0428V49.0359ZM41.0644 15.8125C43.3327 15.7822 45.5584 16.4295 47.4567 17.6713C49.3551 18.9132 50.8397 20.6933 51.7206 22.7838C51.876 23.162 52.1404 23.4856 52.48 23.7133C52.8198 23.941 53.2195 24.0626 53.6284 24.0626C54.0374 24.0626 54.4371 23.941 54.7768 23.7133C55.1165 23.4856 55.3809 23.162 55.5362 22.7838C56.4172 20.6933 57.9018 18.9132 59.8001 17.6713C61.6985 16.4295 63.9242 15.7822 66.1925 15.8125C72.4212 15.8125 77.6875 21.1647 77.6875 27.5C77.6875 34.4575 72.1256 42.2813 61.6 50.1016L56.4884 51.2772C56.9982 49.9246 57.1724 48.4686 56.9959 47.034C56.8195 45.5994 56.2977 44.229 55.4754 43.0403C54.6531 41.8516 53.5547 40.8801 52.2745 40.209C50.9943 39.538 49.5704 39.1875 48.125 39.1875H34.2616C31.0612 34.9491 29.5625 31.2159 29.5625 27.5C29.5625 21.1647 34.8287 15.8125 41.0644 15.8125ZM4.8125 68.75V55C4.8125 54.8177 4.88493 54.6428 5.01386 54.5139C5.1428 54.3849 5.31766 54.3125 5.5 54.3125H14.4375V69.4375H5.5C5.31766 69.4375 5.1428 69.3651 5.01386 69.2361C4.88493 69.1072 4.8125 68.9323 4.8125 68.75ZM75.7212 58.4375L62.59 64.0303L40.9956 69.4375H18.5625V53.1059L26.5409 45.1241C27.1143 44.5477 27.7963 44.0908 28.5474 43.7799C29.2985 43.4689 30.1039 43.3101 30.9169 43.3125H48.125C49.4014 43.3125 50.6254 43.8195 51.5279 44.7221C52.4305 45.6246 52.9375 46.8486 52.9375 48.125C52.9375 49.4014 52.4305 50.6254 51.5279 51.528C50.6254 52.4305 49.4014 52.9375 48.125 52.9375H38.5C37.953 52.9375 37.4284 53.1548 37.0416 53.5416C36.6548 53.9284 36.4375 54.453 36.4375 55C36.4375 55.547 36.6548 56.0716 37.0416 56.4584C37.4284 56.8452 37.953 57.0625 38.5 57.0625H49.5C49.655 57.0627 49.8095 57.0454 49.9606 57.0109L72.9919 51.7138L73.0744 51.6931C73.9412 51.4568 74.8648 51.5491 75.6678 51.9522C76.4707 52.3554 77.0964 53.041 77.4247 53.8774C77.7529 54.7138 77.7605 55.642 77.4461 56.4836C77.1317 57.3253 76.5174 58.0212 75.7212 58.4375Z" fill="#375E74"/>
</svg>
