<svg xmlns="http://www.w3.org/2000/svg" width="277" height="623" fill="none"><path fill="#375E74" d="M18.98 121H17.5l-2.59-8.6a27.98 27.98 0 0 1-.65-2.5 20 20 0 0 1-.61 2.55L11.13 121H9.66l-3.42-12.85h1.58l2.03 7.94c.28 1.11.49 2.12.61 3.02.16-1.07.4-2.12.7-3.15l2.31-7.81h1.58l2.42 7.88c.28.91.52 1.94.71 3.08.11-.83.32-1.84.63-3.04l2.03-7.92h1.58L18.98 121Zm6.69 0h-1.46v-9.63h1.46V121Zm-1.58-12.24c0-.34.08-.58.24-.73a.85.85 0 0 1 .62-.24c.23 0 .44.08.6.24.18.16.26.4.26.73 0 .32-.08.57-.25.73a.86.86 0 0 1-.61.24.85.85 0 0 1-.62-.23c-.16-.17-.24-.42-.24-.74ZM35.36 121v-6.23c0-.79-.18-1.37-.54-1.76-.36-.39-.92-.58-1.68-.58-1 0-1.75.27-2.21.82-.47.54-.7 1.44-.7 2.7V121h-1.47v-9.63h1.19l.24 1.32h.07c.3-.48.72-.84 1.25-1.1.54-.27 1.14-.4 1.8-.4 1.17 0 2.04.28 2.63.84.58.56.87 1.45.87 2.69V121h-1.45Zm11.02-1.3h-.08c-.68.99-1.68 1.48-3.03 1.48a3.59 3.59 0 0 1-2.94-1.3c-.7-.86-1.05-2.08-1.05-3.67a5.8 5.8 0 0 1 1.06-3.7 3.55 3.55 0 0 1 2.93-1.32c1.31 0 2.31.48 3.01 1.42h.11l-.06-.69-.03-.68v-3.92h1.46V121h-1.19l-.2-1.3Zm-2.92.25c1 0 1.72-.27 2.16-.8.45-.55.68-1.43.68-2.63v-.31c0-1.36-.23-2.34-.69-2.92-.45-.58-1.17-.88-2.17-.88-.85 0-1.51.34-1.97 1a5 5 0 0 0-.67 2.82c0 1.23.22 2.16.67 2.78a2.3 2.3 0 0 0 1.99.94Zm15.71-3.78c0 1.58-.4 2.8-1.18 3.69a4.19 4.19 0 0 1-3.28 1.32c-.86 0-1.63-.2-2.3-.61a4 4 0 0 1-1.54-1.74 6.07 6.07 0 0 1-.55-2.66c0-1.57.4-2.79 1.18-3.66a4.16 4.16 0 0 1 3.27-1.32c1.35 0 2.42.45 3.2 1.35.8.9 1.2 2.1 1.2 3.63Zm-7.34 0c0 1.23.25 2.17.74 2.82.5.64 1.22.96 2.17.96.96 0 1.68-.31 2.17-.95.5-.65.75-1.59.75-2.83 0-1.22-.25-2.15-.74-2.78-.5-.64-1.23-.96-2.2-.96-.95 0-1.67.31-2.16.94a4.57 4.57 0 0 0-.73 2.8ZM69.62 121l-1.77-5.65a48 48 0 0 1-.62-2.36h-.07a32.06 32.06 0 0 1-.62 2.38L64.71 121h-1.69l-2.62-9.63h1.52l1.42 5.53c.33 1.26.52 2.11.56 2.55h.07a19.65 19.65 0 0 1 .69-2.55l1.76-5.53h1.59l1.72 5.53c.33 1 .55 1.85.67 2.54h.07c.02-.22.08-.54.18-.98.1-.44.72-2.8 1.84-7.1H74L71.34 121H69.6Zm12.35-2.63c0 .9-.33 1.59-1 2.08a4.7 4.7 0 0 1-2.81.73 6.1 6.1 0 0 1-2.99-.61v-1.35a7.29 7.29 0 0 0 3.02.75 3.5 3.5 0 0 0 1.76-.36c.41-.25.62-.62.62-1.11 0-.38-.17-.7-.5-.96a7.45 7.45 0 0 0-1.9-.95c-.89-.34-1.53-.63-1.9-.87a2.7 2.7 0 0 1-.85-.86 2.23 2.23 0 0 1-.28-1.13c0-.78.32-1.4.96-1.85a4.44 4.44 0 0 1 2.63-.69 7.7 7.7 0 0 1 3.04.63l-.52 1.2c-.96-.4-1.84-.6-2.62-.6a3 3 0 0 0-1.57.32 1 1 0 0 0-.53.9c0 .25.07.47.2.65a2 2 0 0 0 .64.52c.3.17.85.4 1.69.71a6.3 6.3 0 0 1 2.3 1.26c.41.42.61.95.61 1.6ZM46.04 16.82v25.4H79.6V11.25l-33.57 5.56Zm0 56.45 33.57 5.46V47.8H46.04v25.48ZM10.55 42.2h28.38V17.75l-28.38 4.7V42.2Zm0 25.52 28.38 4.62V47.8H10.55v19.94ZM152.79 121l-4.36-11.4h-.07c.08.91.12 1.98.12 3.23V121h-1.38v-12.85h2.25l4.07 10.6h.07l4.1-10.6h2.24V121h-1.5v-8.28c0-.95.04-1.98.13-3.1h-.08L154 121h-1.2Zm16.27 0-.29-1.37h-.07c-.48.6-.96 1.01-1.44 1.23a4.4 4.4 0 0 1-1.78.32c-.96 0-1.7-.25-2.25-.74-.54-.5-.81-1.2-.81-2.1 0-1.95 1.56-2.97 4.67-3.06l1.63-.05v-.6c0-.76-.16-1.31-.5-1.67-.31-.36-.83-.55-1.55-.55-.8 0-1.7.25-2.72.74l-.45-1.12a6.84 6.84 0 0 1 3.26-.82c1.15 0 2 .25 2.55.76.56.51.84 1.33.84 2.46V121h-1.09Zm-3.3-1.03c.92 0 1.63-.25 2.14-.75.53-.5.79-1.2.79-2.09v-.87l-1.46.06a5.3 5.3 0 0 0-2.52.55c-.5.32-.76.81-.76 1.48 0 .53.16.93.47 1.2a2 2 0 0 0 1.35.42Zm11.25 1.2c-1.4 0-2.48-.42-3.24-1.28-.77-.86-1.15-2.08-1.15-3.64 0-1.62.39-2.86 1.16-3.74a4.2 4.2 0 0 1 3.32-1.32 6.56 6.56 0 0 1 2.48.5l-.44 1.24a6.56 6.56 0 0 0-2.07-.45c-1.96 0-2.94 1.25-2.94 3.75 0 1.18.24 2.09.72 2.72.48.63 1.19.95 2.12.95.8 0 1.63-.17 2.47-.52v1.3c-.64.33-1.45.5-2.43.5Zm6.19-.17h-1.46v-9.63h1.46V121Zm-1.59-12.24c0-.34.09-.58.25-.73a.85.85 0 0 1 .62-.24c.23 0 .43.08.6.24.17.16.26.4.26.73 0 .32-.09.57-.26.73a.86.86 0 0 1-.6.24.85.85 0 0 1-.62-.23 1.05 1.05 0 0 1-.25-.74ZM192.88 121v-6.23c0-.79-.18-1.37-.53-1.76-.36-.39-.92-.58-1.68-.58-1.01 0-1.75.27-2.22.82-.47.54-.7 1.44-.7 2.7V121h-1.46v-9.63h1.19l.23 1.32h.07c.3-.48.72-.84 1.26-1.1.54-.27 1.14-.4 1.8-.4 1.16 0 2.04.28 2.62.84.59.56.88 1.45.88 2.69V121h-1.46Zm7.58-1.03a5.17 5.17 0 0 0 1.32-.17v1.11a4.96 4.96 0 0 1-1.53.26c-1.87 0-2.8-.98-2.8-2.94v-5.73h-1.38v-.7l1.38-.6.62-2.06h.84v2.23h2.8v1.13h-2.8v5.67a2 2 0 0 0 .41 1.34c.28.3.66.46 1.14.46Zm11.56-3.8c0 1.58-.4 2.8-1.18 3.69a4.19 4.19 0 0 1-3.28 1.32c-.86 0-1.63-.2-2.3-.61a4 4 0 0 1-1.54-1.74 6.06 6.06 0 0 1-.55-2.66c0-1.57.4-2.79 1.18-3.66a4.16 4.16 0 0 1 3.27-1.32c1.35 0 2.42.45 3.2 1.35.8.9 1.2 2.1 1.2 3.63Zm-7.33 0c0 1.23.24 2.17.73 2.82.5.64 1.22.96 2.18.96.95 0 1.67-.31 2.17-.95.5-.65.74-1.59.74-2.83 0-1.22-.25-2.15-.74-2.78-.5-.64-1.23-.96-2.2-.96-.95 0-1.67.31-2.16.94a4.57 4.57 0 0 0-.72 2.8Zm16.12 2.2c0 .9-.34 1.59-1 2.08a4.7 4.7 0 0 1-2.82.73 6.1 6.1 0 0 1-2.99-.61v-1.35a7.3 7.3 0 0 0 3.03.75 3.5 3.5 0 0 0 1.75-.36c.41-.25.62-.62.62-1.11 0-.38-.17-.7-.5-.96a7.45 7.45 0 0 0-1.9-.95c-.89-.34-1.53-.63-1.9-.87a2.71 2.71 0 0 1-.85-.86 2.22 2.22 0 0 1-.27-1.13c0-.78.31-1.4.95-1.85a4.44 4.44 0 0 1 2.63-.69 7.7 7.7 0 0 1 3.04.63l-.52 1.2c-.96-.4-1.84-.6-2.62-.6a3 3 0 0 0-1.57.32 1 1 0 0 0-.53.9c0 .25.07.47.2.65.13.19.35.36.64.52.3.17.86.4 1.69.71a6.2 6.2 0 0 1 2.3 1.26c.41.42.62.95.62 1.6Zm8.97 2.63v-6.23c0-.79-.18-1.37-.54-1.76-.36-.39-.92-.58-1.68-.58-1.01 0-1.75.28-2.22.83-.46.55-.7 1.45-.7 2.7V121h-1.45v-13.68h1.46v4.14c0 .5-.03.92-.08 1.24h.1c.28-.46.69-.82 1.22-1.09.53-.27 1.13-.4 1.81-.4 1.18 0 2.06.28 2.65.84.6.56.89 1.45.89 2.67V121h-1.46Zm20.51-6.44c0 2.05-.52 3.67-1.56 4.85a5.47 5.47 0 0 1-4.33 1.77c-1.9 0-3.36-.58-4.4-1.74-1.02-1.16-1.53-2.8-1.53-4.9 0-2.1.52-3.71 1.55-4.86 1.03-1.16 2.5-1.73 4.4-1.73 1.84 0 3.28.58 4.32 1.76 1.03 1.17 1.55 2.79 1.55 4.85Zm-10.24 0c0 1.74.37 3.06 1.11 3.96.74.9 1.82 1.35 3.24 1.35 1.42 0 2.5-.45 3.22-1.35.73-.9 1.09-2.22 1.09-3.96 0-1.73-.36-3.04-1.09-3.93-.72-.9-1.79-1.35-3.2-1.35-1.43 0-2.52.45-3.26 1.36-.74.9-1.1 2.2-1.1 3.92Zm20.37 3.02c0 1.13-.41 2.01-1.23 2.65-.82.63-1.94.95-3.34.95-1.53 0-2.7-.2-3.52-.6v-1.43a9.31 9.31 0 0 0 3.57.72c1 0 1.75-.2 2.25-.57.5-.38.75-.9.75-1.58 0-.44-.09-.8-.27-1.09a2.42 2.42 0 0 0-.9-.79c-.41-.24-1.05-.51-1.9-.82a6.13 6.13 0 0 1-2.57-1.52 3.37 3.37 0 0 1-.76-2.3c0-.98.37-1.77 1.11-2.36a4.64 4.64 0 0 1 2.96-.87 8.7 8.7 0 0 1 3.52.7l-.46 1.3a7.96 7.96 0 0 0-3.1-.67 3 3 0 0 0-1.85.51c-.45.34-.67.81-.67 1.42 0 .44.08.8.25 1.1.16.28.44.54.82.78.4.23 1 .5 1.8.78 1.34.48 2.27 1 2.77 1.55.51.55.77 1.26.77 2.14ZM271.6 121h-1.7l-3.45-5.65-3.52 5.65h-1.58l4.27-6.72-3.98-6.13h1.65l3.2 5.09 3.2-5.09h1.6l-3.98 6.08 4.29 6.77Zm-42.91-73.92c-.04-6 2.68-10.5 8.16-13.84-3.06-4.4-7.7-6.81-13.82-7.28-5.8-.45-12.13 3.38-14.45 3.38-2.45 0-8.06-3.22-12.47-3.22-9.1.14-18.78 7.26-18.78 21.75 0 4.28.78 8.7 2.34 13.25 2.1 6 9.64 20.68 17.5 20.44 4.12-.1 7.02-2.92 12.38-2.92 5.2 0 7.88 2.92 12.47 2.92 7.94-.11 14.75-13.46 16.74-19.47-10.64-5.02-10.07-14.7-10.07-15Zm-9.24-26.8c4.46-5.3 4.05-10.11 3.92-11.84-3.94.23-8.49 2.68-11.08 5.7-2.86 3.23-4.54 7.23-4.18 11.73 4.26.33 8.14-1.86 11.34-5.6ZM39.28 287h-1.46v-9.63h1.46V287Zm-1.59-12.24c0-.34.09-.58.25-.73a.85.85 0 0 1 .62-.24c.23 0 .43.08.6.24.17.16.26.4.26.73a1 1 0 0 1-.26.74.86.86 0 0 1-.6.23.85.85 0 0 1-.62-.24c-.16-.16-.25-.4-.25-.73Zm16.05 5.8c0 2.05-.52 3.67-1.56 4.85a5.47 5.47 0 0 1-4.33 1.77c-1.9 0-3.36-.58-4.39-1.74-1.03-1.16-1.54-2.8-1.54-4.9 0-2.1.52-3.71 1.55-4.86 1.03-1.16 2.5-1.73 4.4-1.73 1.84 0 3.28.58 4.32 1.76 1.03 1.17 1.55 2.79 1.55 4.85Zm-10.24 0c0 1.74.37 3.06 1.11 3.96.75.9 1.82 1.35 3.24 1.35 1.42 0 2.5-.45 3.22-1.35.73-.9 1.1-2.22 1.1-3.96 0-1.73-.37-3.04-1.1-3.93-.72-.9-1.79-1.35-3.2-1.35-1.43 0-2.51.46-3.26 1.36-.74.9-1.1 2.2-1.1 3.92Zm20.37 3.02c0 1.13-.41 2.01-1.23 2.65-.82.63-1.94.95-3.34.95-1.53 0-2.7-.2-3.52-.6v-1.43a9.31 9.31 0 0 0 3.57.72c1 0 1.75-.2 2.25-.57.5-.38.76-.9.76-1.58 0-.44-.1-.8-.28-1.09a2.42 2.42 0 0 0-.9-.79 11.8 11.8 0 0 0-1.9-.82 6.13 6.13 0 0 1-2.57-1.52 3.37 3.37 0 0 1-.76-2.3c0-.98.37-1.77 1.12-2.35a4.64 4.64 0 0 1 2.95-.88 8.7 8.7 0 0 1 3.52.7l-.46 1.3a7.95 7.95 0 0 0-3.1-.67 3 3 0 0 0-1.85.51c-.45.34-.67.81-.67 1.42 0 .44.08.8.25 1.1.16.28.44.54.82.78.4.23 1 .5 1.8.78 1.34.48 2.27 1 2.77 1.55.51.55.77 1.26.77 2.14Zm18.07-111.95H20.06a8.44 8.44 0 0 0-8.43 8.43v61.88a8.44 8.44 0 0 0 8.43 8.44h61.88a8.44 8.44 0 0 0 8.44-8.44v-61.88a8.44 8.44 0 0 0-8.44-8.44Zm-47.99 61.96a3.5 3.5 0 1 1-6.08-3.52l2.51-4.34c2.83-.86 5.15-.2 6.97 2l-3.4 5.86Zm24.42-9.47H26.39a3.53 3.53 0 0 1-3.52-3.52 3.53 3.53 0 0 1 3.52-3.52h8.97l11.5-19.9-3.61-6.22a3.52 3.52 0 0 1 3.94-5.14c.9.24 1.67.82 2.14 1.63l1.56 2.7 1.57-2.7a3.52 3.52 0 0 1 6.52 2.22c-.06.45-.21.9-.44 1.3l-15.08 26.12h10.91c3.55 0 5.54 4.16 4 7.03Zm17.24 0h-5.1l3.45 5.95a3.52 3.52 0 0 1-1.29 4.8 3.52 3.52 0 0 1-4.8-1.28c-5.78-10-10.1-17.53-13-22.52-2.94-5.1-.85-10.2 1.25-11.91l10.35 17.93h9.14a3.52 3.52 0 0 1 0 7.03ZM190.19 287l-1.6-4.09h-5.15l-1.58 4.09h-1.51l5.08-12.9h1.25l5.06 12.9h-1.55Zm-2.06-5.43-1.5-3.98c-.2-.5-.4-1.13-.6-1.86a16.5 16.5 0 0 1-.55 1.86l-1.51 3.98h4.16Zm11.75 5.43v-6.23c0-.79-.18-1.37-.54-1.76-.36-.39-.92-.58-1.68-.58-1 0-1.75.27-2.21.82-.47.54-.7 1.44-.7 2.7V287h-1.47v-9.63h1.2l.23 1.32h.07c.3-.48.72-.84 1.25-1.1a4 4 0 0 1 1.8-.4c1.17 0 2.04.28 2.63.85.58.55.88 1.44.88 2.68V287h-1.46Zm11.02-1.3h-.08c-.67.99-1.68 1.48-3.03 1.48a3.59 3.59 0 0 1-2.94-1.3c-.7-.86-1.04-2.08-1.04-3.67 0-1.59.35-2.82 1.05-3.7a3.55 3.55 0 0 1 2.93-1.32c1.31 0 2.31.48 3.01 1.43h.11l-.06-.7-.03-.68v-3.92h1.46V287h-1.19l-.2-1.3Zm-2.92.25c1 0 1.72-.26 2.16-.8.45-.55.68-1.42.68-2.63v-.31c0-1.36-.23-2.34-.69-2.92-.45-.58-1.17-.88-2.17-.88-.85 0-1.51.34-1.97 1a5 5 0 0 0-.67 2.82c0 1.23.22 2.16.67 2.78a2.3 2.3 0 0 0 1.99.94Zm11.8-8.76c.42 0 .8.04 1.15.1l-.2 1.36c-.4-.09-.76-.13-1.06-.13-.78 0-1.45.31-2 .95a3.47 3.47 0 0 0-.83 2.36V287h-1.46v-9.63h1.2l.17 1.78h.07c.36-.63.79-1.1 1.3-1.45a2.9 2.9 0 0 1 1.65-.5Zm11.26 4.99c0 1.56-.4 2.8-1.19 3.68a4.18 4.18 0 0 1-3.27 1.32c-.86 0-1.63-.2-2.3-.61a4 4 0 0 1-1.54-1.74 6.07 6.07 0 0 1-.55-2.65c0-1.58.4-2.8 1.18-3.67a4.16 4.16 0 0 1 3.27-1.32c1.35 0 2.42.45 3.2 1.35.8.9 1.2 2.1 1.2 3.63Zm-7.34 0c0 1.22.25 2.16.74 2.8.5.65 1.22.97 2.17.97.96 0 1.68-.31 2.17-.95.5-.65.75-1.59.75-2.82 0-1.23-.25-2.16-.75-2.8-.49-.63-1.22-.95-2.19-.95-.95 0-1.67.31-2.16.94a4.57 4.57 0 0 0-.73 2.8Zm11.37 4.82h-1.46v-9.63h1.46V287Zm-1.58-12.24c0-.34.08-.58.24-.73a.86.86 0 0 1 .62-.24c.23 0 .43.08.6.24.17.16.26.4.26.73a1 1 0 0 1-.26.74.86.86 0 0 1-.6.23.86.86 0 0 1-.62-.24c-.16-.16-.24-.4-.24-.73Zm11.23 10.95h-.08c-.67.98-1.68 1.47-3.02 1.47a3.59 3.59 0 0 1-2.95-1.3c-.7-.86-1.04-2.08-1.04-3.67 0-1.59.35-2.82 1.05-3.7a3.55 3.55 0 0 1 2.94-1.32c1.3 0 2.3.48 3 1.43h.12l-.07-.7-.03-.68v-3.92h1.46V287h-1.19l-.2-1.3Zm-2.92.24c1 0 1.72-.26 2.16-.8.45-.55.68-1.42.68-2.63v-.31c0-1.36-.23-2.34-.69-2.92-.45-.58-1.17-.88-2.17-.88-.85 0-1.5.34-1.97 1a5 5 0 0 0-.67 2.82c0 1.23.22 2.16.67 2.78a2.3 2.3 0 0 0 1.99.94Zm-51.42-84v20.35c0 2.7-2.13 4.87-4.84 4.87-2.69 0-5.29-2.18-5.29-4.87v-20.35c0-2.66 2.6-4.84 5.29-4.84a4.85 4.85 0 0 1 4.84 4.84Zm1.9 27.6a5.2 5.2 0 0 0 5.2 5.2h3.5l.05 10.74c0 6.48 9.7 6.44 9.7 0v-10.74h6.54v10.74c0 6.45 9.76 6.47 9.76 0v-10.74h3.55a5.2 5.2 0 0 0 5.16-5.2V198h-43.47v31.54Zm43.59-33.25h-43.8c0-7.52 4.5-14.06 11.19-17.47l-3.36-6.2c-.5-.86.76-1.4 1.18-.67l3.4 6.26a23.74 23.74 0 0 1 19.05 0l3.39-6.24c.44-.76 1.67-.2 1.18.67l-3.36 6.18c6.62 3.41 11.12 9.95 11.12 17.47Zm-30-9.75a1.84 1.84 0 0 0-1.85-1.85c-1 0-1.8.85-1.8 1.85s.81 1.84 1.8 1.84c1.03 0 1.84-.84 1.84-1.84Zm19.93 0a1.84 1.84 0 0 0-1.8-1.85 1.84 1.84 0 0 0 0 3.7c.99 0 1.8-.85 1.8-1.85Zm16.66 10.56a4.82 4.82 0 0 0-4.84 4.84v20.36c0 2.7 2.19 4.87 4.84 4.87 2.7 0 5.29-2.19 5.29-4.87v-20.36c0-2.7-2.6-4.83-5.29-4.83ZM29.04 452v-12.85h1.5v11.5h5.66V452h-7.16Zm10.59 0h-1.46v-9.63h1.46V452Zm-1.58-12.24c0-.34.08-.58.24-.73a.85.85 0 0 1 .62-.24c.23 0 .43.08.6.24.17.16.26.4.26.73a1 1 0 0 1-.26.74.86.86 0 0 1-.6.23.85.85 0 0 1-.62-.24c-.16-.16-.24-.4-.24-.73ZM49.3 452v-6.23c0-.79-.17-1.37-.53-1.76-.36-.39-.92-.58-1.68-.58-1 0-1.75.27-2.22.82-.46.54-.7 1.44-.7 2.7V452h-1.46v-9.63h1.19l.24 1.32h.07c.3-.48.71-.84 1.25-1.1.54-.27 1.14-.4 1.8-.4 1.17 0 2.04.28 2.62.85.59.55.88 1.44.88 2.68V452H49.3Zm5.84-9.63v6.25c0 .78.18 1.37.54 1.75.35.4.91.58 1.68.58 1 0 1.74-.27 2.2-.82.47-.55.7-1.45.7-2.7v-5.06h1.46V452h-1.2l-.21-1.3h-.08c-.3.48-.72.85-1.25 1.1-.53.25-1.13.38-1.8.38-1.18 0-2.06-.28-2.65-.84-.58-.56-.87-1.45-.87-2.67v-6.3h1.48Zm12 4.7-3.34-4.7h1.66l2.54 3.69 2.53-3.7h1.64l-3.35 4.7 3.53 4.94H70.7l-2.7-3.9-2.73 3.9h-1.65l3.53-4.93Z"/><g clip-path="url(#a)"><path fill="#375E74" d="M52.89 331c-.59 0-1.18.03-1.8.08-15.85 1.25-11.65 18.03-11.88 23.62-.3 4.09-1.13 7.32-3.94 11.33-3.33 3.94-7.99 10.31-10.2 16.94-1.03 3.12-1.53 6.33-1.06 9.35-.18.13-.33.3-.43.5-.97 1-1.69 2.25-2.48 3.15-.74.74-1.81 1-2.99 1.5-1.17.5-2.47 1-3.23 2.55a4.91 4.91 0 0 0-.5 2.26c0 .73.1 1.5.2 2 .23 1.5.44 2.73.15 3.64-.94 2.55-1.04 4.3-.4 5.57.66 1.26 2.01 1.76 3.52 2.26 3.05.74 7.16.5 10.42 2.24 3.46 1.75 7 2.51 9.8 1.77a6.7 6.7 0 0 0 4.53-3.54c2.2-.02 4.62-1.02 8.47-1.26 2.62-.23 5.9 1 9.67.74.1.52.23.75.44 1.26v.02a7.06 7.06 0 0 0 7.07 4c2.89-.23 5.96-2 8.45-4.9 2.38-2.85 6.32-4.06 8.92-5.62 1.31-.75 2.36-1.76 2.44-3.21.08-1.5-.75-3.05-2.67-5.16v-.36l-.01-.02c-.65-.74-.94-2-1.28-3.47-.32-1.5-.67-2.94-1.84-3.92-.24-.2-.47-.25-.72-.5-.2-.15-.45-.23-.7-.25 1.6-4.79.98-9.55-.67-13.84-1.99-5.3-5.49-9.9-8.14-13.07-3-3.76-5.92-7.34-5.86-12.62.1-8.08.9-23-13.29-23.03l.01-.01Zm1.98 12.77h.06c.79 0 1.47.24 2.18.74.72.5 1.24 1.24 1.64 2 .4.97.6 1.71.63 2.7l.01-.2v.39l-.01-.1-.02-.08c0 .91-.18 1.82-.55 2.65-.17.48-.45.9-.8 1.26-.1-.06-.21-.11-.33-.16-.4-.18-.75-.23-1.07-.5a5.1 5.1 0 0 0-.82-.24c.18-.22.54-.5.69-.75.19-.47.3-.98.32-1.5v-.08a4.48 4.48 0 0 0-.23-1.5c-.16-.5-.37-.75-.68-1.24-.32-.25-.63-.5-1-.5h-.06c-.36 0-.67.1-.99.5a3 3 0 0 0-.76 1.24c-.2.48-.32.98-.34 1.5v.07c0 .34.03.67.07 1.01-.73-.25-1.64-.51-2.28-.76l-.06-.75v-.07a6.7 6.7 0 0 1 .56-2.88c.3-.82.86-1.53 1.61-2a3.7 3.7 0 0 1 2.23-.74Zm-11.1.22h.13c.52 0 1 .18 1.5.5.55.49.99 1.08 1.28 1.74.34.75.53 1.51.59 2.5v.02c.01.5.01.77-.02 1v.3l-.3.1c-.57.2-1.03.5-1.48.75.04-.34.04-.68 0-1v-.06c-.03-.5-.14-.75-.3-1.25a2.36 2.36 0 0 0-.63-1 .94.94 0 0 0-.67-.24h-.09c-.26.01-.48.14-.69.5-.24.28-.4.63-.45 1-.1.4-.13.82-.09 1.25v.04c.05.52.13.77.3 1.26.12.39.33.73.62 1 .05.05.08.08.14.09-.27.22-.44.27-.66.51-.15.1-.3.24-.5.27a9.47 9.47 0 0 1-1.02-1.5 6.55 6.55 0 0 1-.59-2.51 6.67 6.67 0 0 1 1.36-4.51c.49-.5.97-.75 1.57-.75Zm5.13 6.4c1.25 0 2.75.24 4.56 1.5 1.1.75 1.97 1.01 3.96 1.74a4.25 4.25 0 0 1 1.8 1.51v-.5a2.13 2.13 0 0 1 .06 1.76c-.47 1.17-1.94 2.42-4 3.16v.02c-1 .5-1.88 1.24-2.9 1.74-1.04.5-2.22 1.1-3.8 1a4.49 4.49 0 0 1-1.68-.25 9.27 9.27 0 0 1-1.2-.75c-.73-.5-1.36-1.24-2.3-1.74v-.01h-.01c-1.51-.93-2.32-1.92-2.58-2.67-.25-1-.02-1.75.73-2.25.83-.5 1.42-1.01 1.8-1.26.4-.28.54-.38.66-.49h.02v-.01a6.86 6.86 0 0 1 3.15-2.26c.5-.13 1.1-.23 1.74-.23Zm10.5 8.03a89.96 89.96 0 0 0 6.51 16.77c1.07 2 3.21 6.23 4.13 11.34.59-.01 1.23.07 1.92.25 2.43-6.27-2.03-13-4.07-14.88-.83-.75-.88-1.25-.47-1.25 2.22 2 5.11 5.9 6.17 10.33.48 2 .6 4.15.09 6.27.24.1.5.23.76.25 3.87 2 5.3 3.51 4.61 5.77v-.16c-.21-.02-.45 0-.67 0h-.06c.57-1.76-.69-3.1-4-4.6-3.42-1.5-6.16-1.26-6.63 1.74a3.1 3.1 0 0 0-.06.52c-.27.08-.53.18-.79.23-1.61 1.01-2.48 2.52-2.97 4.45-.49 2-.63 4.34-.77 7.02a29.35 29.35 0 0 1-1.2 5.07c-5.62 4.02-13.43 5.77-20.05 1.26a9.96 9.96 0 0 0-1.5-2 5.4 5.4 0 0 0-1.05-1.25 6.5 6.5 0 0 0 1.75-.25c.53-.26.95-.71 1.18-1.26.4-1 0-2.61-1.3-4.37-1.29-1.74-3.49-3.72-6.7-5.7-2.37-1.49-3.7-3.26-4.32-5.23-.61-2-.53-4.07-.06-6.16.93-4.01 3.28-7.92 4.8-10.37.39-.24.13.51-1.54 3.66-1.49 2.81-4.28 9.36-.46 14.44.15-3.7.97-7.36 2.43-10.78 2.1-4.79 6.53-13.13 6.89-19.75.17.14.8.5 1.08.76.8.5 1.42 1.24 2.21 1.74a4.5 4.5 0 0 0 3.28 1.26l.41.01a8.1 8.1 0 0 0 3.74-1c1.08-.5 1.96-1.25 2.78-1.5h.01a7.2 7.2 0 0 0 3.92-2.63Zm8.2 33.6c.14 2.24 1.29 4.66 3.3 5.16 2.2.5 5.38-1.25 6.71-2.87l.8-.03c1.18-.03 2.16.03 3.17 1l.01.01c.78.75 1.15 2 1.47 3.28.32 1.51.57 2.93 1.54 4 1.81 1.98 2.41 3.4 2.39 4.28-.06.98-.71 1.47-1.88 2.22-2.36 1.51-6.55 2.67-9.21 5.9-2.32 2.76-5.15 4.27-7.64 4.46a5.6 5.6 0 0 1-5.9-3.37l-.02-.01c-.79-1.5-.45-3.84.2-6.33.67-2.5 1.62-5.05 1.75-7.12.13-2.68.28-5 .72-6.81.45-1.75 1.16-3 2.42-3.68l.16-.09Zm-40.57.18h.05c.2 0 .4.01.58.06 1.41.2 2.66 1.25 3.84 2.81l3.42 6.24v.02c.92 1.99 2.84 3.98 4.46 6.14 1.63 2.23 2.89 4.24 2.74 5.88v.03c-.22 2.79-1.8 4.3-4.21 4.85-2.42.5-5.7 0-8.99-1.74-3.63-2-7.95-1.76-10.72-2.26-1.37-.25-2.28-.76-2.7-1.5-.42-.75-.43-2.27.46-4.62v-.01c.44-1.26.12-2.83-.1-4.2-.2-1.5-.3-2.66.16-3.53.6-1.26 1.5-1.49 2.6-2 1.1-.5 2.4-.75 3.42-1.76h.01v-.01c.96-1 1.68-2.24 2.51-3.14.7-.76 1.42-1.26 2.47-1.26Zm26.86-34.03c-1.63.75-3.55 2-5.58 2-2.04 0-3.64-.99-4.8-1.74-.58-.5-1.05-1-1.4-1.26-.62-.5-.54-1.25-.28-1.25.4.05.48.5.75.76.37.25.8.74 1.34 1.24 1.1.75 2.57 1.76 4.38 1.76 1.82 0 3.96-1.01 5.25-1.76.73-.5 1.67-1.24 2.43-1.74.58-.51.56-1.01 1.04-1.01.48.06.13.5-.54 1.24-.7.52-1.75 1.26-2.6 1.76Zm-4.06-5.94v-.07a.2.2 0 0 1 .12-.2c.26-.16.67-.1.96.02.24 0 .6.25.57.5-.03.19-.32.26-.51.26-.2 0-.35-.16-.53-.26-.19-.06-.56-.04-.61-.25Zm-2.07 0c-.07.22-.42.19-.61.25-.18.1-.33.26-.53.26s-.5-.08-.52-.26c-.02-.25.33-.5.56-.5.31-.12.69-.18.98-.02.06.04.14.12.1.2v.07h.02Z"/></g><path fill="#375E74" d="m204.88 452-1.6-4.09h-5.15l-1.59 4.09h-1.5l5.07-12.9h1.26l5.05 12.9h-1.54Zm-2.07-5.43-1.5-3.98c-.19-.5-.38-1.13-.59-1.86a17.5 17.5 0 0 1-.55 1.86l-1.52 3.98h4.16Zm16.6 5.43h-1.48l-2.6-8.6a27.6 27.6 0 0 1-.64-2.5 19.9 19.9 0 0 1-.62 2.55l-2.51 8.55h-1.48l-3.42-12.85h1.58l2.03 7.94c.28 1.11.49 2.12.62 3.02.16-1.07.4-2.12.7-3.15l2.3-7.81h1.59l2.41 7.88c.29.91.52 1.94.72 3.08.1-.83.32-1.85.63-3.04l2.02-7.92h1.58L219.4 452Zm12.7-3.42c0 1.13-.42 2.01-1.24 2.65-.81.63-1.93.95-3.34.95a8.2 8.2 0 0 1-3.51-.6v-1.43a9.3 9.3 0 0 0 3.57.72c1 0 1.74-.2 2.25-.57.5-.38.75-.9.75-1.58 0-.44-.09-.8-.27-1.09a2.41 2.41 0 0 0-.9-.79c-.41-.24-1.05-.51-1.9-.82a6.13 6.13 0 0 1-2.57-1.52 3.37 3.37 0 0 1-.76-2.3c0-.98.37-1.77 1.11-2.35a4.64 4.64 0 0 1 2.96-.88 8.7 8.7 0 0 1 3.52.7l-.47 1.3a7.95 7.95 0 0 0-3.09-.67 3 3 0 0 0-1.85.51c-.45.34-.67.81-.67 1.42 0 .44.08.8.24 1.1.17.28.44.54.83.78.4.23 1 .5 1.8.78 1.34.48 2.27 1 2.77 1.55.51.55.76 1.26.76 2.14Zm7.2-75.02a14.66 14.66 0 0 1-5.7-1.16l-.63-.15h-.45c-.38 0-.57.26-.57.79v1.23c-.05.24-.05.48 0 .72.2.3.46.55.79.71a16.39 16.39 0 0 0 6.6 1.43c1.27.03 2.54-.14 3.75-.53 1-.26 1.93-.74 2.74-1.39a6.78 6.78 0 0 0 1.84-2.17 6.7 6.7 0 0 0 .63-2.93 5.77 5.77 0 0 0-1.12-3.49 8.06 8.06 0 0 0-3.75-2.4l-3.56-1.12a7.5 7.5 0 0 1-2.74-1.35 2.45 2.45 0 0 1-.75-1.76 2.47 2.47 0 0 1 1.16-2.25 6.83 6.83 0 0 1 3.34-.68c1.64-.04 3.27.3 4.76.98.3.15.63.25.97.3.38 0 .57-.3.57-.83v-1.35c0-.29-.07-.58-.23-.82a2.1 2.1 0 0 0-.75-.6 5.87 5.87 0 0 0-1.05-.45c-.46-.17-.94-.3-1.42-.42l-1.65-.37a12.8 12.8 0 0 0-1.84 0 10.6 10.6 0 0 0-3.11.41c-.95.28-1.84.72-2.63 1.31a6.03 6.03 0 0 0-1.76 2.03c-.46.85-.7 1.8-.68 2.77a6 6 0 0 0 1.24 3.75 7.8 7.8 0 0 0 3.98 2.56l3.75 1.12c.93.22 1.79.65 2.51 1.28.45.47.7 1.1.67 1.76a2.7 2.7 0 0 1-1.3 2.36c-1.12.56-2.36.8-3.6.71Zm-21.78-18.19a1.8 1.8 0 0 0-.5-.97c-.27-.2-.62-.3-.97-.26H214c-.34-.02-.69.07-.97.26-.28.26-.45.6-.5.98l-3.74 16.5-4.28-16.5a1.8 1.8 0 0 0-.52-.98s-.49-.26-.98-.26h-2.44c-.4 0-.6.22-.6.63.04.35.12.69.23 1.02l5.85 19.27c.08.34.23.67.45.94.3.17.63.25.97.23h2.14c.35.02.7-.06 1.01-.23.24-.3.4-.64.45-1.01l3.75-16.05 3.75 16.08c.04.37.2.72.46.98.29.2.65.3 1 .26h2.15c.33.02.66-.07.93-.26.28-.25.47-.6.53-.98l6.04-19.27a3 3 0 0 0 0-.6v-.41a.57.57 0 0 0-.64-.64h-2.33c-.34-.01-.68.08-.97.26-.23.29-.4.62-.49.98l-3.75 16.91-3.97-16.88Zm-26.9 8c-.88-.12-1.76-.19-2.66-.2a9.07 9.07 0 0 0-6.1 1.95 6.45 6.45 0 0 0-2.26 5.14 6.38 6.38 0 0 0 1.84 4.8 6.83 6.83 0 0 0 4.99 1.8 9.28 9.28 0 0 0 7.5-3.45 8.73 8.73 0 0 0 1.65 2.63.98.98 0 0 0 1.07.21.98.98 0 0 0 .31-.21l1.58-1.05a1.04 1.04 0 0 0 .49-.75 1 1 0 0 0 0-.6c-.3-.57-.57-1.16-.79-1.76a7.5 7.5 0 0 1-.26-2.25v-7.92a8.25 8.25 0 0 0-2.06-6.15 9.07 9.07 0 0 0-6.94-2.06c-1.27 0-2.53.16-3.75.49a14.7 14.7 0 0 0-3.15 1.12c-.27.12-.5.3-.68.53a1.4 1.4 0 0 0 0 .86v1.24c0 .52 0 .75.53.75.13.03.27.03.41 0l.86-.3a16.3 16.3 0 0 1 2.36-.94c.89-.22 1.8-.33 2.7-.34 1.45-.15 2.9.27 4.05 1.16a5.47 5.47 0 0 1 1.17 3.98v1.84l-2.85-.53Zm2.93 3.37v1.01c0 .73-.08 1.46-.26 2.18a3.9 3.9 0 0 1-.86 1.6 5.17 5.17 0 0 1-2.37 1.58 7.6 7.6 0 0 1-2.54.45 3.53 3.53 0 0 1-2.63-.9 3.43 3.43 0 0 1-.9-2.66 3.45 3.45 0 0 1 1.24-2.85 5.7 5.7 0 0 1 3.75-1.01h2.32c.76.16 1.51.36 2.25.6Zm49.54 20.51a73.8 73.8 0 0 1-28.31 5.77 75.01 75.01 0 0 1-37.13-9.82c-.9-.56-1.61.38-.82 1.09A55.05 55.05 0 0 0 214 398.5a54 54 0 0 0 30.38-9.26c1.27-1.17.1-2.7-1.28-1.99Z"/><path fill="#375E74" d="M237.93 383.73c-.72.52-.6 1.23.18 1.12 2.67-.34 8.55-1.01 9.6.34 1.05 1.35-1.16 6.86-2.17 9.33-.3.75.37 1.06 1.05.5a14.6 14.6 0 0 0 4.61-12.53 14.78 14.78 0 0 0-13.27 1.24ZM44.18 617l-1.6-4.09h-5.15L35.85 617h-1.51l5.08-12.9h1.26l5.05 12.9h-1.55Zm-2.06-5.43-1.5-3.98c-.19-.5-.39-1.13-.6-1.86-.12.56-.3 1.18-.55 1.86l-1.51 3.98h4.16ZM53.44 617h-6.99v-1l5.26-7.5h-4.93v-1.13h6.53v1.13l-5.19 7.37h5.32V617Zm3.63-9.63v6.25c0 .78.18 1.37.53 1.75.36.4.92.58 1.68.58 1.01 0 1.75-.27 2.2-.82.48-.55.71-1.45.71-2.7v-5.06h1.46V617h-1.2l-.21-1.3h-.08c-.3.48-.72.85-1.25 1.1-.53.25-1.13.38-1.81.38-1.17 0-2.05-.28-2.64-.84-.58-.56-.87-1.45-.87-2.67v-6.3h1.48Zm14.08-.18c.43 0 .8.04 1.15.1l-.2 1.36c-.4-.09-.75-.13-1.06-.13-.78 0-1.45.32-2 .95a3.47 3.47 0 0 0-.83 2.36V617h-1.46v-9.63h1.2l.17 1.78h.07c.36-.63.8-1.1 1.3-1.45a2.9 2.9 0 0 1 1.66-.5Zm7.02 9.99a4.44 4.44 0 0 1-3.38-1.3 5.05 5.05 0 0 1-1.23-3.62 5.6 5.6 0 0 1 1.15-3.7 3.82 3.82 0 0 1 3.08-1.37c1.2 0 2.16.4 2.87 1.2.7.79 1.05 1.83 1.05 3.13v.93h-6.63c.03 1.13.31 1.99.85 2.57.54.59 1.3.88 2.3.88a7.8 7.8 0 0 0 3.07-.65v1.3a7.45 7.45 0 0 1-3.13.63Zm-.4-8.77c-.77 0-1.39.25-1.85.76a3.5 3.5 0 0 0-.8 2.1h5.03c0-.93-.2-1.63-.62-2.12-.4-.5-1-.74-1.76-.74Z"/><path fill="#375E74" fill-rule="evenodd" d="m99.46 572.95-22.5-67.5a5.63 5.63 0 0 0-5.63-3.82H44.67a5.63 5.63 0 0 0-5.34 3.82l-22.79 67.5a5.62 5.62 0 0 0 5.63 7.42h16.48a5.63 5.63 0 0 0 5.29-3.82l3.43-10.01 16.87 12.77a5.62 5.62 0 0 0 3.38 1.07h26.32a5.62 5.62 0 0 0 5.52-7.43Zm-31.62 3.71c-.4 0-.8-.14-1.12-.4L34.94 552.7l-.5-.4H51.3l.45-1.17 5.62-14.24 12.6 37.3a1.91 1.91 0 0 1-2.14 2.47Zm26.27 0H73.2c.42-1.2.42-2.5 0-3.71l-22.78-67.5h20.92a1.91 1.91 0 0 1 1.8 1.3l22.78 67.5a1.91 1.91 0 0 1-1.8 2.41Z" clip-rule="evenodd"/><path fill="#375E74" d="M171.44 610.27h4.37v6.25a14.22 14.22 0 0 1-4.52.66c-1.94 0-3.46-.58-4.54-1.74-1.09-1.16-1.63-2.78-1.63-4.87 0-1.33.27-2.5.8-3.5.54-1 1.31-1.78 2.32-2.3 1-.54 2.19-.8 3.54-.8 1.37 0 2.65.25 3.83.75l-.58 1.32a8.56 8.56 0 0 0-3.34-.74 4.8 4.8 0 0 0-3.67 1.4 5.42 5.42 0 0 0-1.32 3.88c0 1.73.42 3.04 1.27 3.94.85.9 2.1 1.35 3.73 1.35.9 0 1.76-.1 2.61-.31v-3.96h-2.87v-1.33Zm15.56 1.9c0 1.58-.4 2.8-1.19 3.69a4.19 4.19 0 0 1-3.28 1.32c-.86 0-1.63-.2-2.3-.61a4 4 0 0 1-1.54-1.74 6.07 6.07 0 0 1-.54-2.66 5.3 5.3 0 0 1 1.17-3.66 4.16 4.16 0 0 1 3.27-1.32c1.35 0 2.42.45 3.21 1.35.8.9 1.2 2.1 1.2 3.63Zm-7.34 0c0 1.24.24 2.17.74 2.82.49.64 1.21.96 2.17.96.95 0 1.68-.32 2.17-.95.5-.65.74-1.59.74-2.83 0-1.22-.24-2.15-.74-2.78-.5-.64-1.22-.96-2.2-.96-.95 0-1.67.31-2.15.94-.49.63-.73 1.56-.73 2.8Zm18.22 0c0 1.58-.4 2.8-1.19 3.69a4.18 4.18 0 0 1-3.28 1.32c-.86 0-1.62-.2-2.3-.61a4 4 0 0 1-1.54-1.74 6.07 6.07 0 0 1-.54-2.66 5.3 5.3 0 0 1 1.17-3.66 4.16 4.16 0 0 1 3.27-1.32c1.35 0 2.42.45 3.21 1.35.8.9 1.2 2.1 1.2 3.63Zm-7.34 0c0 1.24.24 2.17.74 2.82.49.64 1.21.96 2.17.96.95 0 1.68-.32 2.17-.95.5-.65.75-1.59.75-2.83 0-1.22-.25-2.15-.75-2.78-.5-.64-1.22-.96-2.19-.96-.96 0-1.68.31-2.16.94-.49.63-.73 1.56-.73 2.8Zm17.79-4.8v.92l-1.79.21c.17.2.31.48.44.81.13.33.2.7.2 1.12 0 .94-.33 1.7-.97 2.25a3.9 3.9 0 0 1-2.66.85 4.1 4.1 0 0 1-.8-.07c-.63.33-.94.74-.94 1.24 0 .26.11.46.33.59.22.12.59.18 1.12.18h1.7a3.8 3.8 0 0 1 2.4.66c.56.44.84 1.08.84 1.92 0 1.06-.42 1.87-1.28 2.43-.85.56-2.1.84-3.74.84a5.13 5.13 0 0 1-2.92-.7 2.27 2.27 0 0 1-1.02-1.99c0-.58.19-1.09.56-1.52.38-.42.9-.71 1.58-.87a1.56 1.56 0 0 1-.62-.51 1.4 1.4 0 0 1-.25-.82c0-.35.1-.66.28-.92.2-.27.49-.52.9-.77-.5-.2-.91-.55-1.23-1.05a3.1 3.1 0 0 1-.47-1.68c0-1.06.32-1.87.95-2.44a3.87 3.87 0 0 1 2.7-.86c.5 0 .95.06 1.36.18h3.33Zm-7.68 11.25c0 .52.22.91.66 1.18.43.27 1.06.4 1.88.4 1.23 0 2.13-.18 2.72-.55.6-.36.89-.85.89-1.48 0-.52-.16-.89-.49-1.1a3.9 3.9 0 0 0-1.81-.29h-1.75a2.3 2.3 0 0 0-1.55.48c-.37.31-.55.76-.55 1.36Zm.79-8.17c0 .68.19 1.19.57 1.53.38.35.9.52 1.59.52 1.42 0 2.13-.7 2.13-2.07 0-1.45-.72-2.17-2.16-2.17-.68 0-1.21.18-1.58.55-.37.37-.55.92-.55 1.64Zm10.32 6.55h-1.45v-13.68h1.45V617Zm7.17.18a4.44 4.44 0 0 1-3.38-1.3 5.04 5.04 0 0 1-1.23-3.62 5.6 5.6 0 0 1 1.14-3.7 3.82 3.82 0 0 1 3.09-1.37c1.2 0 2.16.4 2.86 1.2.7.79 1.06 1.83 1.06 3.13v.93h-6.64c.03 1.13.32 1.99.86 2.57.54.59 1.3.88 2.29.88 1.04 0 2.06-.22 3.08-.65v1.3a7.46 7.46 0 0 1-3.13.63Zm-.4-8.77c-.77 0-1.39.25-1.85.76a3.5 3.5 0 0 0-.81 2.1h5.03c0-.93-.2-1.63-.61-2.12-.41-.5-1-.74-1.76-.74Zm16.83-3.1a4.2 4.2 0 0 0-3.35 1.4 5.68 5.68 0 0 0-1.22 3.87c0 1.68.4 2.98 1.18 3.9.8.91 1.92 1.37 3.38 1.37.9 0 1.91-.16 3.06-.49v1.31c-.89.34-1.99.5-3.3.5-1.89 0-3.35-.57-4.38-1.72-1.02-1.15-1.54-2.78-1.54-4.9 0-1.32.25-2.48.74-3.47a5.3 5.3 0 0 1 2.14-2.3 6.52 6.52 0 0 1 3.31-.81c1.35 0 2.53.24 3.53.73l-.63 1.29a6.8 6.8 0 0 0-2.92-.69Zm7.1 11.69H241v-13.68h1.46V617Zm11.4-4.83c0 1.58-.4 2.8-1.18 3.69a4.19 4.19 0 0 1-3.28 1.32c-.86 0-1.63-.2-2.3-.61a4 4 0 0 1-1.54-1.74 6.06 6.06 0 0 1-.55-2.66c0-1.57.4-2.79 1.18-3.66a4.16 4.16 0 0 1 3.27-1.32c1.35 0 2.42.45 3.2 1.35.8.9 1.2 2.1 1.2 3.63Zm-7.34 0c0 1.24.25 2.17.74 2.82.5.64 1.22.96 2.17.96.96 0 1.68-.32 2.17-.95.5-.65.75-1.59.75-2.83 0-1.22-.25-2.15-.75-2.78-.49-.64-1.22-.96-2.18-.96-.96 0-1.68.31-2.17.94a4.57 4.57 0 0 0-.73 2.8Zm11.28-4.8v6.25c0 .78.18 1.37.54 1.75.35.4.91.58 1.68.58 1 0 1.74-.27 2.2-.82.47-.55.7-1.45.7-2.7v-5.06h1.46V617h-1.2l-.21-1.3h-.08c-.3.48-.71.85-1.25 1.1-.53.25-1.13.38-1.8.38-1.18 0-2.06-.28-2.65-.84-.58-.56-.87-1.45-.87-2.67v-6.3h1.48Zm16.24 8.34h-.08c-.67.98-1.68 1.47-3.02 1.47a3.59 3.59 0 0 1-2.94-1.3c-.7-.86-1.05-2.08-1.05-3.67 0-1.59.35-2.82 1.06-3.7a3.55 3.55 0 0 1 2.93-1.32c1.3 0 2.3.48 3 1.42h.12l-.06-.69-.04-.68v-3.92h1.46V617h-1.18l-.2-1.3Zm-2.92.24c1 0 1.72-.27 2.17-.8.45-.55.67-1.42.67-2.63v-.31c0-1.37-.22-2.34-.68-2.92-.45-.58-1.18-.88-2.17-.88-.86 0-1.51.34-1.97 1a5 5 0 0 0-.68 2.82c0 1.23.23 2.16.68 2.78a2.3 2.3 0 0 0 1.99.94Zm-21.95-83.49a29.37 29.37 0 0 0-8.85-14.27l-.13.13.02-.15a29.3 29.3 0 0 0-47.64 14.29c.11-.05.24-.05.37-.09a21.17 21.17 0 0 0-1.15 34.37l.02-.02-.02.1a21.04 21.04 0 0 0 12.78 4.24h16.2l.1.1h16.27a21.17 21.17 0 0 0 12.03-38.7Zm-12.03 25.67h-16.28l-.02.02v-.12h-16.27a8.13 8.13 0 1 1 7.42-11.5l9.44-9.43a21.13 21.13 0 0 0-12.73-7.88c.07-.03.13-.09.19-.08a16.26 16.26 0 0 1 22.24-1.69h.17a16.25 16.25 0 0 1 5.84 12.78v1.62a8.14 8.14 0 0 1 0 16.28Z"/><defs><clipPath id="a"><path fill="#fff" d="M0 0h90v90H0z" transform="translate(6 331)"/></clipPath></defs></svg>