<svg xmlns="http://www.w3.org/2000/svg" width="580" height="1821" fill="none"><path fill="#595959" d="M26.7 124.4c-1.9 0-3.4.6-4.5 1.9a8 8 0 0 0-1.6 5.1c0 2.3.5 4 1.6 5.2 1 1.3 2.5 1.9 4.5 1.9a16 16 0 0 0 4-.7v1.8a13 13 0 0 1-4.3.6c-2.6 0-4.5-.7-5.9-2.3a9.5 9.5 0 0 1-2-6.5c0-1.8.3-3.3 1-4.6a7.2 7.2 0 0 1 2.8-3.1 9 9 0 0 1 4.4-1c1.8 0 3.4.2 4.7 1l-.8 1.6a9 9 0 0 0-4-.9ZM36.9 140h-2v-18.2h2V140Zm15.9-6.4a7 7 0 0 1-1.6 4.9 5.6 5.6 0 0 1-4.4 1.7 5.3 5.3 0 0 1-5.1-3.1 8 8 0 0 1-.7-3.5 7 7 0 0 1 1.6-5 6 6 0 0 1 4.3-1.7c1.8 0 3.3.6 4.3 1.8a7 7 0 0 1 1.6 4.9Zm-9.8 0a6 6 0 0 0 1 3.7c.7.9 1.6 1.3 2.9 1.3 1.3 0 2.2-.4 2.9-1.3a6 6 0 0 0 1-3.7 6 6 0 0 0-1-3.7c-.7-.9-1.6-1.3-3-1.3-1.2 0-2.2.4-2.8 1.2-.7.9-1 2.1-1 3.8Zm12.4 12.2c-.8 0-1.4-.1-1.8-.3v-1.6l1.6.2c.6 0 1-.1 1.3-.5.3-.3.4-.8.4-1.5v-15h2V142c0 2.5-1.2 3.8-3.5 3.8Zm1.4-22.1c0-.5 0-.8.3-1 .2-.2.5-.3.8-.3.3 0 .6 0 .8.3.3.2.4.5.4 1 0 .4-.1.7-.4 1-.2.2-.5.3-.8.3-.3 0-.6-.1-.8-.3-.2-.3-.3-.6-.3-1Zm8.8 3.5v8.3c0 1 .2 1.8.7 2.3a3 3 0 0 0 2.2.8c1.4 0 2.3-.4 3-1.1.6-.7.9-2 .9-3.6v-6.7h2V140h-1.7l-.2-1.7h-.2c-.4.6-1 1-1.6 1.4-.7.4-1.5.5-2.4.5-1.6 0-2.8-.3-3.5-1-.8-.8-1.2-2-1.2-3.6v-8.4h2Zm19.5-.3c.5 0 1 0 1.5.2l-.3 1.8c-.5-.2-1-.2-1.4-.2-1 0-2 .4-2.7 1.3-.7.8-1 1.9-1 3.1v6.9h-2v-12.8h1.6l.2 2.3h.1c.5-.8 1-1.4 1.7-1.9s1.4-.7 2.3-.7Zm10 13.3a6 6 0 0 1-4.5-1.7 6.7 6.7 0 0 1-1.6-4.8 8 8 0 0 1 1.5-5c1-1.2 2.4-1.8 4.1-1.8 1.6 0 3 .6 3.9 1.6a6 6 0 0 1 1.4 4.2v1.2H91c0 1.5.4 2.7 1.1 3.5a4 4 0 0 0 3.1 1.1c1.4 0 2.8-.3 4.1-.8v1.7a10 10 0 0 1-4.2.8Zm-.5-11.6c-1 0-1.8.3-2.5 1-.6.6-1 1.6-1 2.7h6.7c0-1.2-.3-2.1-.8-2.8-.6-.6-1.4-1-2.4-1Zm7.7 17.2c-.7 0-1.3-.1-1.8-.3v-1.6l1.6.2c.6 0 1-.1 1.4-.5.3-.3.4-.8.4-1.5v-15h2V142c0 2.5-1.2 3.8-3.6 3.8Zm1.4-22.1c0-.5.2-.8.4-1 .2-.2.5-.3.8-.3.3 0 .6 0 .8.3.2.2.3.5.3 1 0 .4 0 .7-.3 1-.2.2-.5.3-.8.3-.3 0-.6-.1-.8-.3-.2-.3-.4-.6-.4-1Zm15.3 12.8c0 1.2-.5 2.1-1.4 2.8-.8.6-2 1-3.7 1-1.7 0-3-.3-4-.9v-1.8a9.6 9.6 0 0 0 4 1c1 0 1.8-.1 2.4-.5.5-.3.8-.8.8-1.4 0-.5-.2-1-.6-1.3-.5-.4-1.3-.8-2.6-1.3-1.2-.4-2-.8-2.5-1.1-.5-.4-1-.8-1.2-1.2a3 3 0 0 1-.3-1.5c0-1 .4-1.9 1.3-2.5.8-.6 2-.9 3.5-.9 1.3 0 2.7.3 4 .9l-.7 1.5a9.3 9.3 0 0 0-3.5-.7 4 4 0 0 0-2 .4c-.5.3-.8.7-.8 1.2l.3.9.8.7 2.3.9c1.5.6 2.5 1.1 3 1.7.6.5.9 1.2.9 2.1Z"/><g clip-path="url(#a)"><path fill="#595959" d="M60.5 89.8a45 45 0 0 1 0-89.5v4.5a40.5 40.5 0 0 0 0 80.4v4.6ZM67.6.2v4.6a40.5 40.5 0 0 1 31.8 60 39.9 39.9 0 0 1-31.8 20.4v4.6a44.4 44.4 0 0 0 35.7-22.9A45 45 0 0 0 67.6.2ZM47.9 41.5l1.3-3.2c-7.3-3-14.6-.4-14.5 8.8 0 3.1.8 6 2.8 7.7 2.9 2.5 8 2.6 11.2.8V52c-6 3-10 1-9.9-5.2 0-2.6.8-5.1 2.8-6 2.5-1 6.3.6 6.3.6Zm11.9-11.7h-4v26.6h4V29.8Zm10.4 5s2.3.1 2.3-2.3c0-2.5-2.3-2.2-2.3-2.2S68 30 68 32.5s2.2 2.2 2.2 2.2Zm2 2.7h-4v21.2c0 2.6-1.6 3.6-5 2.5v3.2c4.8 1.3 9.1 0 9-5.5V37.5Zm19.5 4 1.3-3c-6-2.7-13.7-1.5-13.6 3.8 0 6.5 10 5.4 10 9.1-.2 4-8.3 1.8-10 .8v3.5c.9.6 12.5 3.6 13.8-3.5 1.3-7.6-9.9-6.7-9.9-10 0-3.5 7.4-1.1 8.4-.6Z"/></g><path fill="#595959" d="M279.3 132.9v7.1h-2v-17.1h4.8c2 0 3.6.4 4.6 1.2 1 .8 1.5 2 1.5 3.6 0 2.3-1.1 3.8-3.4 4.6l4.6 7.7h-2.3l-4.2-7.1h-3.6Zm0-1.7h2.8c1.4 0 2.4-.3 3-.9.7-.5 1-1.4 1-2.5s-.3-2-1-2.4c-.6-.5-1.7-.8-3.2-.8h-2.6v6.6Zm15.1-4v8.3c0 1 .3 1.8.8 2.3.4.5 1.2.8 2.2.8a4 4 0 0 0 3-1.1c.6-.7.9-2 .9-3.6v-6.7h2V140h-1.7l-.3-1.7c-.5.6-1 1-1.7 1.4-.7.4-1.5.5-2.4.5-1.6 0-2.8-.3-3.6-1-.7-.8-1.1-2-1.1-3.6v-8.4h2Zm22 9.3c0 1.2-.5 2.1-1.4 2.8-.9.6-2.1 1-3.7 1-1.7 0-3-.3-4-.9v-1.8a9.6 9.6 0 0 0 4 1c1 0 1.8-.1 2.4-.5.5-.3.8-.8.8-1.4 0-.5-.2-1-.7-1.3a10 10 0 0 0-2.5-1.3l-2.6-1.1c-.5-.4-.8-.8-1-1.2a3 3 0 0 1-.4-1.5 3 3 0 0 1 1.2-2.5 6 6 0 0 1 3.5-.9c1.4 0 2.8.3 4.1.9l-.7 1.5a9.3 9.3 0 0 0-3.5-.7 4 4 0 0 0-2 .4c-.6.3-.8.7-.8 1.2l.3.9.8.7 2.3.9c1.5.6 2.5 1.1 3 1.7.6.5.9 1.2.9 2.1Zm8 2.1a7 7 0 0 0 1.8-.2v1.5l-1 .2-1 .1c-2.6 0-3.8-1.3-3.8-3.9v-7.6h-1.8v-1l1.8-.8.8-2.7h1.1v3h3.8v1.5h-3.8v7.5c0 .8.2 1.4.6 1.8.4.4.9.6 1.5.6Z"/><g clip-path="url(#b)"><path fill="#595959" d="m342.8 44-3.7-2.4-.1-1 3.2-3a1.3 1.3 0 0 0-.4-2.2l-4.1-1.5-.3-1.1 2.5-3.6a1.3 1.3 0 0 0-.2-1.7l-.6-.3-4.4-.7-.5-1 1.8-4a1.3 1.3 0 0 0 0-1.2 1.3 1.3 0 0 0-1.2-.6l-4.4.2-.7-.8 1-4.3a1.3 1.3 0 0 0-1.5-1.6l-4.3 1-.8-.6.2-4.4a1.3 1.3 0 0 0-1.9-1.3l-4 1.9-1-.5-.6-4.4a1.3 1.3 0 0 0-2-.8l-3.6 2.5c-.4 0-.7-.2-1-.3l-1.6-4a1.3 1.3 0 0 0-2.1-.5l-3 3.2h-1.1L300 1.1a1.3 1.3 0 0 0-2.2 0l-2.3 3.7-1.1.1-3-3.2a1.3 1.3 0 0 0-2.1.4l-1.6 4.1-1 .3-3.6-2.5a1.3 1.3 0 0 0-2 .8l-.7 4.4-1 .5-4-1.9a1.3 1.3 0 0 0-1.8 1.3l.2 4.4-.9.6-4.2-1a1.3 1.3 0 0 0-1.6 1.6l1 4.3-.7.8-4.3-.2a1.3 1.3 0 0 0-1.3 1.9l1.9 4-.6 1-4.3.6a1.3 1.3 0 0 0-.8 2l2.5 3.6-.3 1-4 1.6a1.3 1.3 0 0 0-.5 2.1l3.2 3-.1 1.1-3.7 2.3a1.3 1.3 0 0 0 0 2.2l3.7 2.3v1l-3.1 3a1.3 1.3 0 0 0 .4 2.2l4.1 1.6.3 1-2.5 3.6a1.3 1.3 0 0 0-.2 1.2 1.3 1.3 0 0 0 1 .8l4.3.7.6 1-1.9 4a1.3 1.3 0 0 0 .6 1.6l.7.2 4.3-.2.7.8-1 4.3a1.3 1.3 0 0 0 1.6 1.6l4.2-1 .9.6-.2 4.4a1.3 1.3 0 0 0 1.8 1.2l4-1.8 1 .6.7 4.3a1.3 1.3 0 0 0 1.4 1c.2 0 .4 0 .6-.2l3.6-2.6 1 .4 1.6 4a1.3 1.3 0 0 0 1.6.8c.2 0 .4-.1.5-.3l3-3.2 1 .1 2.4 3.7a1.3 1.3 0 0 0 2.2 0l2.3-3.7 1-.1 3 3.2a1.3 1.3 0 0 0 2.2-.4l1.5-4.1 1.1-.4 3.5 2.6a1.3 1.3 0 0 0 2-.8l.8-4.3 1-.6 4 1.8a1.3 1.3 0 0 0 1.8-1.2l-.2-4.4.8-.6 4.3 1a1.3 1.3 0 0 0 1.6-1.6l-1-4.3.6-.8 4.4.2a1.3 1.3 0 0 0 1.2-1.9l-1.8-4 .5-1 4.4-.6a1.3 1.3 0 0 0 .8-2l-2.5-3.6.3-1 4-1.6a1.3 1.3 0 0 0 .5-2.1l-3.2-3v-1.1l3.8-2.3a1.3 1.3 0 0 0 0-2.2Zm-25 30.9c-3.4-.8-2.3-6 1.2-5.2a2.6 2.6 0 1 1-1.1 5.2Zm-1.2-8.6a2.4 2.4 0 0 0-2.9 1.8l-1.3 6.2a32.3 32.3 0 0 1-27-.1L284 68a2.4 2.4 0 0 0-2.9-1.8l-5.4 1.1c-1-1-2-2.1-2.8-3.3h26.5c.3 0 .5 0 .5-.3v-9.4c0-.3-.2-.3-.5-.3h-7.8v-6h8.4c.8 0 4.1.2 5.2 4.5.3 1.3 1 5.5 1.6 7 .5 1.5 2.5 4.5 4.7 4.5h13.7l-3 3.5-5.6-1.2Zm-36.7 8.4a2.7 2.7 0 0 1-3.2-3 2.6 2.6 0 0 1 2-2.1 2.6 2.6 0 1 1 1.2 5.1ZM269.8 34a2.6 2.6 0 1 1-4.8 2c-1.3-3.1 3.3-5.2 4.8-2.1Zm-3.1 7.3 5.7-2.5c1.2-.5 1.7-2 1.2-3.2l-1.2-2.6h4.6v20.7h-9.2c-1.2-4-1.6-8.2-1.1-12.4Zm25-2v-6.1h10.9c.6 0 4 .7 4 3.2 0 2.2-2.6 3-4.8 3h-10.2Zm39.8 5.5-.1 2.4h-3.3c-.4 0-.5.2-.5.6v1.5c0 3.6-2 4.4-3.8 4.6-1.7.2-3.6-.7-3.8-1.8-1-5.6-2.7-6.8-5.3-8.9 3.2-2 6.6-5 6.6-9.2 0-4.4-3-7.2-5-8.6-3-1.9-6.2-2.3-7-2.3h-34.5A32.3 32.3 0 0 1 293 12.9l4 4.2a2.4 2.4 0 0 0 3.4.1l4.6-4.3a32.5 32.5 0 0 1 22.2 15.8l-3 7a2.4 2.4 0 0 0 1.1 3.2l6 2.7.2 3.2ZM297 9.2c2.6-2.5 6.2 1.3 3.7 3.8-2.5 2.2-6-1.4-3.7-3.8ZM328 34a2.6 2.6 0 0 1 3.4-1.3A2.6 2.6 0 1 1 328 34Z"/></g><path fill="#595959" d="M52.2 341.9c0 1.7-.6 3-1.7 4a8 8 0 0 1-5.1 1.4h-2v6.7h-2v-17.1h4.4c4.3 0 6.4 1.6 6.4 5Zm-8.8 3.7h1.8c1.7 0 3-.3 3.8-1 .8-.5 1.2-1.4 1.2-2.6 0-1.2-.4-2-1.1-2.6-.8-.5-2-.8-3.5-.8h-2.2v7Zm18.3 8.6a6 6 0 0 1-4.5-1.7 6.7 6.7 0 0 1-1.7-4.8 8 8 0 0 1 1.6-5 5 5 0 0 1 4-1.8 5 5 0 0 1 3.9 1.6 6 6 0 0 1 1.4 4.2v1.2h-8.8c0 1.5.4 2.7 1.1 3.5a4 4 0 0 0 3 1.1c1.4 0 2.8-.3 4.2-.8v1.7a10 10 0 0 1-4.2.8Zm-.5-11.6c-1 0-1.9.3-2.5 1-.6.6-1 1.6-1 2.7h6.6c0-1.2-.2-2.1-.8-2.8a3 3 0 0 0-2.3-1Zm15.1-1.7c.6 0 1.1 0 1.6.2l-.3 1.8-1.4-.2c-1 0-2 .4-2.7 1.3-.7.8-1.1 1.9-1.1 3.1v6.9h-2v-12.8h1.7l.2 2.3c.6-.8 1.1-1.4 1.8-1.9s1.4-.7 2.2-.7ZM83 354h-2v-18.2h2V354Z"/><g clip-path="url(#c)"><path fill="#595959" d="M60.6 214c-.5 0-.7 2.6-.9 11-.2 10.7-.3 11-2 14.6-1.3 3-6 10-7.6 11.4a39 39 0 0 0-5.9 9 24.9 24.9 0 0 0-.1 19c2 4.5 4.7 8 9.2 12 3.5 3 4.6 3.4 5.2 2 .1-.5-.7-2.2-1.9-3.9a63.3 63.3 0 0 1-4.4-7.7c-5.2-11-2.6-20 3.4-30.2 3.3-5.2 5.3-9.9 6-14.4.8-5.7 0-22.8-1-22.8Zm-2.8 4.6c-.7 0-.9 1-.9 5.3 0 3-.3 6.2-.6 7.3-1.2 3.4-4.3 6.5-13 12.7a46.4 46.4 0 0 0-13.7 14c-6.3 12.4-.8 27.4 12.8 35 6 3.4 11.1 4.7 11.1 2.9 0-.5-.2-.9-.4-.9a34 34 0 0 1-4.7-2.7c-10.1-6.6-14.8-14.8-14-24.3.5-7.2 3.2-11.6 14.2-23 9.4-10 10-11.2 10-20 0-5.3 0-6.3-.8-6.3Zm5.7 2.3c-.4 0-.6 3.4-.6 11v10.9l-2.8 10.5a53 53 0 0 0-1.3 29c2.1 8.3 3 9.9 5.9 10.7 1.3.4 3.3 1.3 4.6 2.2 2.7 1.8 5.2 1.6 10.1-1 7.2-3.6 12-8.2 15.3-14.7 2.8-6.2 3.2-14 .3-20.1-2.7-5.3-7.1-9.6-16.4-15.7-8.1-5.4-9.8-6.9-11.8-10-1.2-1.9-1.4-2.7-1.2-5.4.2-1.8.5-3.7.8-4.3.3-.8.2-1-.8-.6-1 .3-1.3 0-1.6-1.1-.2-1-.4-1.4-.5-1.4Zm2.6 17.2a46.4 46.4 0 0 0 8.3 7.5c10.8 8.2 19.8 16.5 15.3 30.8a31.3 31.3 0 0 1-7.3 11.6c-2 2.2-4.8 4-5.8 4l2.5-3.5a30 30 0 0 0 6.7-21.3c-.6-6.7-5.8-14.9-14-22-3.5-3-5.7-5.8-5.7-7Zm-4 58.1c-.8 0-1.2 1.3-1.2 4.2 0 3.5.1 3.7 1.3 3.6 1.2-.2 1.3-.6 1.5-3.4 0-2.3-.1-3.4-.7-4-.4-.2-.7-.4-1-.4Zm-4 1c-.5 0-.8.6-1.2 1.7-.3.9-1 1.8-1.4 2-1.2.4-1 2 .3 2 .6 0 1.5-.4 2-.9 1.6-1.6 2.1-3 1.4-4-.4-.5-.8-.7-1-.7Zm7.8.3c-1.2 0-1 2.3.2 3.9 1.1 1.5 3.4 2.1 3.4 1 0-1-3-4.9-3.6-4.9Z"/></g><path fill="#595959" d="M273.7 341.9c0 1.7-.6 3-1.8 4a8 8 0 0 1-5 1.4h-2.1v6.7h-2v-17.1h4.5c4.2 0 6.4 1.6 6.4 5Zm-8.9 3.7h1.8c1.8 0 3-.3 3.8-1 .8-.5 1.2-1.4 1.2-2.6 0-1.2-.4-2-1.1-2.6-.7-.5-1.9-.8-3.5-.8h-2.2v7Zm18.8-4.7c.5 0 1 0 1.5.2l-.3 1.8-1.4-.2c-1 0-2 .4-2.7 1.3-.7.8-1 1.9-1 3.1v6.9h-2v-12.8h1.6l.2 2.3h.1c.5-.8 1-1.4 1.7-1.9s1.5-.7 2.3-.7Zm15.7 6.7a7 7 0 0 1-1.6 4.9 5.6 5.6 0 0 1-4.4 1.7 5.3 5.3 0 0 1-5.1-3.1 8 8 0 0 1-.7-3.5 7 7 0 0 1 1.6-5 6 6 0 0 1 4.3-1.7c1.8 0 3.3.6 4.3 1.8a7 7 0 0 1 1.6 4.9Zm-9.8 0c0 1.6.3 2.9 1 3.7.7.9 1.6 1.3 2.9 1.3 1.3 0 2.2-.4 2.9-1.3a6 6 0 0 0 1-3.7 6 6 0 0 0-1-3.7c-.7-.9-1.6-1.3-3-1.3-1.2 0-2.2.4-2.8 1.2-.7.9-1 2.1-1 3.8Zm15.9 6.4h-2v-18.2h2V354Zm16-6.4c0 2-.6 3.7-1.7 4.9a5.6 5.6 0 0 1-4.3 1.7c-1.2 0-2.2-.2-3-.8a5.3 5.3 0 0 1-2.2-2.3 8 8 0 0 1-.7-3.5 7 7 0 0 1 1.6-5 6 6 0 0 1 4.3-1.7c1.8 0 3.3.6 4.3 1.8a7 7 0 0 1 1.6 4.9Zm-9.9 0a6 6 0 0 0 1 3.7c.7.9 1.6 1.3 3 1.3 1.2 0 2.1-.4 2.8-1.3a6 6 0 0 0 1-3.7 6 6 0 0 0-1-3.7c-.7-.9-1.6-1.3-3-1.3-1.2 0-2.1.4-2.8 1.2-.6.9-1 2.1-1 3.8Zm24.5-6.4v1.2l-2.4.3a4 4 0 0 1 .8 2.5c0 1.3-.4 2.3-1.3 3-.8.8-2 1.2-3.5 1.2l-1-.1c-.9.4-1.3 1-1.3 1.6 0 .4.1.6.4.8.3.2.8.3 1.5.3h2.3a5 5 0 0 1 3.2.8c.7.6 1.1 1.5 1.1 2.6 0 1.4-.6 2.5-1.7 3.2a9.1 9.1 0 0 1-5 1.2c-1.7 0-3-.3-3.9-1a3 3 0 0 1-1.3-2.6c0-.8.2-1.5.7-2 .5-.6 1.2-1 2.1-1.2a2 2 0 0 1-.8-.7 2 2 0 0 1-.3-1c0-.6 0-1 .3-1.3a4 4 0 0 1 1.2-1c-.7-.3-1.2-.8-1.6-1.4-.4-.7-.6-1.4-.6-2.3 0-1.4.4-2.5 1.2-3.2a5 5 0 0 1 3.6-1.2c.7 0 1.3.1 1.8.3h4.5Zm-10.3 15c0 .7.3 1.2 1 1.5.5.4 1.3.6 2.4.6a7 7 0 0 0 3.6-.8c.8-.4 1.2-1.1 1.2-2 0-.6-.2-1.1-.6-1.4-.4-.3-1.3-.4-2.4-.4h-2.4a3 3 0 0 0-2 .6c-.5.5-.8 1-.8 1.9Zm1-11c0 1 .3 1.6.8 2.1a3 3 0 0 0 2.2.7c1.9 0 2.8-1 2.8-2.8 0-1.9-1-2.9-2.9-2.9-.9 0-1.6.3-2 .8-.6.5-.8 1.2-.8 2.2Z"/><g clip-path="url(#d)"><path fill="#595959" d="M325.5 288.1a39.4 39.4 0 1 0-53-58.2 39.4 39.4 0 0 0 53 58.2Z"/><path fill="#fff" d="M310 231.7c-5-4.3-11.5-6.6-18.2-6.5-13.7 0-27.2 10.5-28.2 30.9-1.1 22 13.3 36.2 33.7 36.2 30.2 0 47-27.6 28.2-57.4 13.2 29.8-1.5 48.6-20.3 48.6-15.3 0-27-10.3-27-29 0-27.3 20.3-29.1 31.9-22.8Z"/><path fill="#AEAEAE" d="M317.8 243.3c-.8-2.7-1.8-7.8 1.8-10.9a10.5 10.5 0 0 0-10.8 4.3 25.8 25.8 0 0 0-21 0 10.5 10.5 0 0 0-10.9-4.3c3.7 3.1 2.6 8.5 1.8 11a29.6 29.6 0 0 0-7.5 19.9c0 6.1 3.9 13 4.7 22.4l5-4.3a33 33 0 0 0 17.4 4 33 33 0 0 0 17.5-4l5 4.3c.7-9.3 4.7-16.3 4.7-22.4 0-7.4-2.7-14.5-7.7-20Z"/><path fill="#595959" d="M284.2 292.4a4.6 4.6 0 1 1 9 0v.1a6.3 6.3 0 1 0-9 .4v-.5Zm27.8 0a4.6 4.6 0 1 0-9 0v.1a6.3 6.3 0 1 1 9 .4v-.5Z"/><path fill="#595959" d="M277.5 265.8c-.4 1.8-2.8 2.4-2.8 2.4a3.8 3.8 0 0 1-1.6-3.3c0 1.8.3 3.5 1.3 5 1.4-1 2.5-2.5 3-4.1Zm4.6.9c-.3 1.9-2.7 2.5-2.7 2.5a3.8 3.8 0 0 1-1.6-3.4c-.1 1.8.3 3.6 1.3 5 1.4-1 2.5-2.4 3-4.1Zm-3.3 4.3c-.3 1.8-2.7 2.4-2.7 2.4a3.8 3.8 0 0 1-1.6-3.3 8 8 0 0 0 1.3 5 8 8 0 0 0 3-4.2Zm4.7.9c-.3 1.9-2.7 2.5-2.7 2.5a3.8 3.8 0 0 1-1.6-3.4c-.1 1.8.3 3.6 1.2 5 1.5-1 2.6-2.4 3.1-4.1Zm-3.3 4.3c-.3 1.9-2.7 2.5-2.7 2.5a3.8 3.8 0 0 1-1.6-3.3c-.1 1.7.3 3.5 1.3 5a8 8 0 0 0 3-4.2Zm6.6-8.6c-.4 2-2.7 2.5-2.7 2.5a3.8 3.8 0 0 1-1.6-3.3c-.2 1.7.3 3.5 1.2 5 1.5-1 2.6-2.5 3.1-4.2Zm32.3-1.9c.4 2 2.8 2.5 2.8 2.5a3.8 3.8 0 0 0 1.6-3.3c0 1.8-.3 3.5-1.3 5a8.2 8.2 0 0 1-3-4.1Zm-4.6 1c.3 1.9 2.7 2.5 2.7 2.5a3.8 3.8 0 0 0 1.6-3.4c.1 1.8-.3 3.6-1.3 5a8.2 8.2 0 0 1-3-4.1Zm3.3 4.3c.3 1.8 2.7 2.4 2.7 2.4a3.8 3.8 0 0 0 1.6-3.3 8 8 0 0 1-1.3 5 8.2 8.2 0 0 1-3-4.2Zm-4.7.9c.4 1.9 2.7 2.5 2.7 2.5a3.8 3.8 0 0 0 1.6-3.4c.1 1.8-.3 3.6-1.2 5a8.2 8.2 0 0 1-3.1-4.1Zm3.3 4.3c.3 1.9 2.7 2.5 2.7 2.5a3.8 3.8 0 0 0 1.6-3.3c.1 1.7-.3 3.5-1.3 5a8.2 8.2 0 0 1-3-4.2Zm-6.6-8.6c.4 2 2.7 2.5 2.7 2.5a3.8 3.8 0 0 0 1.6-3.3c.2 1.7-.3 3.5-1.2 5a8.2 8.2 0 0 1-3.1-4.2Z" opacity=".5"/><path fill="#fff" d="M285.9 264.3a10.7 10.7 0 1 0 0-21.4 10.7 10.7 0 0 0 0 21.4Z"/><path fill="#BDBFC1" d="M288.1 259.9a5.2 5.2 0 1 0 0-10.5 5.2 5.2 0 0 0 0 10.5Z"/><path fill="#595959" d="M288.1 258a3.3 3.3 0 1 0 0-6.7 3.3 3.3 0 0 0 0 6.7Z"/><path fill="#fff" d="M286.6 254.5a1 1 0 1 0 0-2 1 1 0 0 0 0 2Zm24 9.8a10.7 10.7 0 1 0 0-21.5 10.7 10.7 0 0 0 0 21.5Z"/><path fill="#BDBFC1" d="M312.8 259.9a5.2 5.2 0 1 0 0-10.5 5.2 5.2 0 0 0 0 10.5Z"/><path fill="#595959" d="M312.8 258a3.3 3.3 0 1 0 0-6.7 3.3 3.3 0 0 0 0 6.7Z"/><path fill="#fff" d="M311.3 254.5a1 1 0 1 0 0-2 1 1 0 0 0 0 2Z"/><path fill="#595959" d="M298.2 274.5c0-4 6-9.6 6-13.7a6 6 0 0 0-12 0c0 4.1 6 9.8 6 13.7Z"/></g><path fill="#595959" d="M47.3 743.4c0 1.5-.5 2.7-1.6 3.6a7.5 7.5 0 0 1-4.5 1.2c-2 0-3.6-.2-4.7-.8v-1.9a12.3 12.3 0 0 0 4.8 1 5 5 0 0 0 3-.8c.7-.5 1-1.2 1-2 0-.7-.1-1.1-.4-1.5a2 2 0 0 0-1.2-1c-.5-.4-1.4-.8-2.5-1.2a8.2 8.2 0 0 1-3.4-2c-.7-.8-1-1.8-1-3a4 4 0 0 1 1.4-3.2c1-.8 2.3-1.2 4-1.2 1.7 0 3.3.3 4.7 1l-.6 1.7a11 11 0 0 0-4.2-.9 4 4 0 0 0-2.4.7c-.6.4-1 1-1 1.9 0 .6.2 1 .4 1.4.2.4.6.8 1.1 1 .5.4 1.3.7 2.4 1.1 1.8.7 3 1.3 3.7 2a4 4 0 0 1 1 3Zm14.4 4.6-2.3-7.5-.9-3.2a43 43 0 0 1-.9 3.2l-2.4 7.5H53l-3.5-12.8h2a4522 4522 0 0 1 2.6 10.7h.1a26.2 26.2 0 0 1 1-3.4l2.3-7.3h2.1l2.3 7.3.9 3.4.3-1.3 2.5-9.4h2L64 748h-2.3Zm10.9 0h-2v-12.8h2V748Zm-2.1-16.3c0-.5 0-.8.3-1 .2-.2.5-.3.8-.3.3 0 .6 0 .8.3.3.2.4.5.4 1 0 .4-.1.7-.4 1-.2.2-.5.3-.8.3-.3 0-.6-.1-.8-.3-.2-.3-.3-.6-.3-1Zm12.7 5H80V748h-2v-11.3h-2.3v-1l2.3-.6v-.7c0-3.2 1.4-4.8 4.1-4.8.7 0 1.5.2 2.4.4l-.5 1.6a8 8 0 0 0-1.9-.4c-.7 0-1.3.3-1.6.8-.4.5-.5 1.2-.5 2.3v.9h3.2v1.5Zm7.2 10a7 7 0 0 0 1.8-.3v1.5l-1 .2-1 .1c-2.5 0-3.8-1.3-3.8-3.9v-7.6h-1.8v-1l1.8-.8.8-2.7h1.2v3H92v1.5h-3.7v7.5c0 .8.2 1.4.5 1.8.4.4.9.6 1.5.6Z"/><g clip-path="url(#e)"><path fill="#595959" d="M91.4 669.3c.2-.4.2-.8.5-1.3 5-19.7-7-42.9-27.6-55a48.4 48.4 0 0 1 8.4 43l-1.7-1s-20.4-12.6-42.2-34.7c-.7-.6 11.8 17.7 25.6 32.2-6.5-3.8-25-17-36.6-27.8 1.3 2.3 3.2 4.6 5 7a215.7 215.7 0 0 0 37.5 39c-10.7 6.6-25.6 7-40.8 0-3.8-1.6-7-3.7-10.5-6.2a61.6 61.6 0 0 0 28 23.7c14 6.1 28.4 5.7 38.7 0h.2c.4-.2.8-.4 1.2-.8 5-2.5 15-5.3 20.4 5.3 1.5 2.9 4.2-10.8-6-23.4Z"/></g><path fill="#595959" d="M58.1 1137.4c0 1.5-.5 2.7-1.6 3.6a7.5 7.5 0 0 1-4.5 1.2c-2 0-3.6-.2-4.6-.8v-1.9a12.7 12.7 0 0 0 4.7 1 5 5 0 0 0 3-.8c.7-.5 1-1.2 1-2 0-.7-.1-1.2-.3-1.5a3 3 0 0 0-1.2-1c-.6-.4-1.4-.8-2.6-1.2a8.1 8.1 0 0 1-3.4-2c-.7-.8-1-1.8-1-3 0-1.4.5-2.4 1.5-3.2a6 6 0 0 1 3.9-1.2c1.7 0 3.3.3 4.7 1l-.6 1.7c-1.4-.6-2.8-.9-4.1-.9a4 4 0 0 0-2.5.7c-.6.4-1 1-1 1.9 0 .6.2 1 .4 1.4.2.4.6.8 1.1 1 .5.4 1.3.7 2.4 1.1 1.8.7 3 1.3 3.7 2a4 4 0 0 1 1 3Zm19.1-4c0 2.2-.4 4-1.3 5.5a6.6 6.6 0 0 1-3.7 3l4 4.2h-2.9l-3.3-3.9h-.6c-2.6 0-4.5-.7-5.9-2.3a9.6 9.6 0 0 1-2-6.5c0-2.8.7-5 2-6.5a7.4 7.4 0 0 1 5.9-2.3c2.4 0 4.4.8 5.8 2.3a10 10 0 0 1 2 6.5Zm-13.6 0c0 2.3.5 4 1.5 5.3 1 1.2 2.4 1.8 4.3 1.8s3.3-.6 4.3-1.8c1-1.2 1.4-3 1.4-5.3s-.5-4-1.4-5.2c-1-1.2-2.4-1.8-4.3-1.8-2 0-3.4.6-4.3 1.8a8 8 0 0 0-1.5 5.2Zm18.2 8.6v-17.1h2v15.3h7.5v1.8h-9.5Zm15.7-81v-33.7h-5.6v39.4h22.5v-5.6H97.5Zm-16.9-33.7H69.4a5.6 5.6 0 0 0-5.7 5.6v28.2a5.6 5.6 0 0 0 5.7 5.6h2.8v5.6a5.6 5.6 0 0 0 5.6 5.6h5.6v-5.6h-5.6v-5.6h2.8a5.6 5.6 0 0 0 5.7-5.6v-28.2a5.6 5.6 0 0 0-5.7-5.6Zm-11.2 33.8v-28.2h11.2v28.2H69.4Zm-16.9 5.6H35.6v-5.6h16.9v-11.3H41.2a5.6 5.6 0 0 1-5.6-5.6v-11.3a5.6 5.6 0 0 1 5.6-5.6h17v5.6h-17v11.3h11.3a5.6 5.6 0 0 1 5.6 5.6v11.3a5.6 5.6 0 0 1-5.6 5.6ZM37.6 553.6v7.1h-2v-17.1h4.7c2 0 3.6.4 4.6 1.2 1 .8 1.5 2 1.5 3.6 0 2.3-1.1 3.8-3.4 4.6l4.7 7.7h-2.4l-4.2-7.1h-3.5Zm0-1.7h2.7c1.4 0 2.4-.3 3.1-.8.7-.6 1-1.4 1-2.6 0-1.1-.4-2-1-2.4-.7-.5-1.8-.8-3.2-.8h-2.6v6.6Zm15-4v8.3c0 1 .3 1.8.8 2.4.5.5 1.2.7 2.2.7 1.4 0 2.3-.3 3-1 .6-.8.9-2 .9-3.7V548h2v12.8h-1.7l-.2-1.7h-.1a5 5 0 0 1-1.7 1.5 6 6 0 0 1-2.4.5c-1.6 0-2.8-.4-3.5-1.2-.8-.7-1.2-1.9-1.2-3.5V548h2Zm19.7-.2c1.7 0 3 .5 4 1.7a8.6 8.6 0 0 1 1.3 4.9c0 2.1-.5 3.7-1.4 5a4.7 4.7 0 0 1-4 1.7c-.8 0-1.5-.2-2.2-.5a4 4 0 0 1-1.7-1.4H68l-.4 1.6h-1.4v-18.2h2v4.4l-.1 2.7c1-1.3 2.3-2 4-2Zm-.3 1.6c-1.3 0-2.3.4-2.9 1.1-.6.8-.8 2-.8 3.9 0 1.8.3 3 .9 3.9.6.7 1.5 1.1 2.8 1.1 1.2 0 2.1-.4 2.7-1.3.6-.8.9-2.1.9-3.7 0-1.7-.3-3-.9-3.8-.6-.8-1.5-1.2-2.7-1.2Zm7.7-1.4h2l2.9 7.3 1.2 3.6.7-2 3.2-9h2l-5.5 14.7a7.2 7.2 0 0 1-1.9 3 4 4 0 0 1-2.7 1c-.6 0-1.2 0-1.7-.2v-1.6l1.4.2c1.3 0 2.3-.8 2.9-2.3l.7-1.8-5.2-13ZM92.6 401c11.4 2 14.6 9.8 14.3 18l.1-.2-5.1 67-66.5 4.6c-5.5-.2-17.8-.7-18.4-17.9l6.2-11.2 10.5 24.6 2 4.4L46.1 456H46h.1l34.7 11-5.2-20.3-3.7-14.6 33-2.2-2.3-1.9L79 408.6l13.7-7.6ZM17 472.3v.1-.1Zm19.2-52.5c13.4-13.3 30.6-21.1 37.2-14.4 6.6 6.6-.4 22.8-13.7 36-13.4 13.3-30.4 21.6-37 15-6.6-6.7.1-23.4 13.5-36.6Zm241.5 121.1h4.9c2.2 0 3.9.3 4.9 1 1 .7 1.5 1.7 1.5 3.2a4 4 0 0 1-.8 2.5 4 4 0 0 1-2.5 1.3v.1c2.6.5 3.9 1.8 3.9 4.1 0 1.6-.5 2.8-1.6 3.6-1 .9-2.5 1.3-4.3 1.3h-6v-17.1Zm2 7.3h3.3c1.4 0 2.4-.2 3-.7.6-.4 1-1.1 1-2.2 0-1-.4-1.6-1-2-.8-.5-1.9-.7-3.4-.7h-2.9v5.6Zm0 1.7v6.4h3.6c1.4 0 2.4-.3 3.1-.8.7-.5 1-1.4 1-2.5 0-1-.3-1.9-1-2.4s-1.8-.7-3.3-.7h-3.4Zm21.9 8.1-.4-1.8c-.7.8-1.4 1.3-2 1.6-.6.3-1.4.4-2.4.4-1.3 0-2.3-.3-3-1-.7-.6-1-1.5-1-2.8 0-2.5 2-3.9 6.2-4l2.1-.1v-.8c0-1-.2-1.7-.6-2.2-.4-.5-1.1-.7-2-.7-1.2 0-2.4.3-3.7 1l-.6-1.6a9.2 9.2 0 0 1 4.3-1c1.6 0 2.7.3 3.4 1 .8.6 1.1 1.7 1.1 3.2v8.8h-1.4Zm-4.4-1.4a4 4 0 0 0 2.9-1 4 4 0 0 0 1-2.8v-1.1h-2a7 7 0 0 0-3.3.8c-.7.4-1 1-1 2 0 .7.2 1.2.6 1.6.4.3 1 .5 1.8.5Zm18.9-2.1c0 1.2-.5 2.1-1.4 2.8-.9.6-2.1 1-3.7 1-1.7 0-3-.3-4-.9v-1.8a9.6 9.6 0 0 0 4 1c1 0 1.8-.1 2.4-.5.5-.3.8-.8.8-1.4 0-.5-.2-1-.7-1.3a10 10 0 0 0-2.5-1.3l-2.6-1.1c-.4-.4-.8-.8-1-1.2a3 3 0 0 1-.4-1.5 3 3 0 0 1 1.2-2.5 6 6 0 0 1 3.5-.9c1.4 0 2.8.3 4.1.9l-.7 1.5a9.3 9.3 0 0 0-3.5-.7 4 4 0 0 0-2 .4c-.6.3-.8.7-.8 1.2l.3.9.8.6c.4.3 1.2.6 2.3 1 1.5.6 2.5 1.1 3 1.7.6.5.9 1.2.9 2.1Zm12.7 3.5v-8.3c0-1-.3-1.8-.8-2.4-.4-.5-1.2-.7-2.2-.7-1.4 0-2.3.3-3 1-.6.8-.9 2-.9 3.7v6.7h-2v-18.2h2v7.1a4 4 0 0 1 1.7-1.4c.7-.4 1.5-.6 2.4-.6 1.6 0 2.7.4 3.5 1.2.8.7 1.2 1.9 1.2 3.5v8.4h-2Z"/><g clip-path="url(#f)"><path fill="#F2F2F2" d="M262.5 426.4 241 412.3a7.5 7.5 0 0 0-8.3 0l-21.5 14.1c-1.3.9-2.4 2-3.1 3.5-.7 1.4-1.1 3-1.1 4.7v28.3c0 1.6.4 3.2 1.1 4.7a9.1 9.1 0 0 0 3 3.4l21.6 14.2a7.5 7.5 0 0 0 8.3 0l21.5-14.2a9.6 9.6 0 0 0 4.1-8.1v-28.3c0-1.7-.3-3.3-1-4.7a9.1 9.1 0 0 0-3.1-3.5Z"/><path fill="#595959" d="M262.5 426.4 241 412.3a7.5 7.5 0 0 0-8.3 0l-21.5 14.1c-1.3.9-2.4 2-3.1 3.5-.7 1.4-1.1 3-1.1 4.7v28.3c0 1.6.4 3.2 1.1 4.7a9.1 9.1 0 0 0 3 3.4l21.6 14.2a7.5 7.5 0 0 0 8.3 0l21.5-14.2a9.6 9.6 0 0 0 4.1-8.1v-28.3c0-1.7-.3-3.3-1-4.7a9.1 9.1 0 0 0-3.1-3.5Zm-29 57.3-21.6-14.1c-1-.7-1.9-1.7-2.5-2.9-.6-1.1-1-2.5-1-3.8v-28.3c0-1.4.4-2.7 1-3.9a7.5 7.5 0 0 1 2.5-2.8l21.5-14.2a6.2 6.2 0 0 1 6.8 0l21.5 14.2c.9.5 1.6 1.3 2.2 2.3.6 1 1 2 1.1 3.1-.7-1.7-2.3-2.1-4.2-1l-20.3 14c-2.6 1.6-4.4 3.5-4.4 6.9v27.7c0 2 .7 3.4 1.8 3.8a6 6 0 0 1-4.5-1Z"/><path fill="#F2F2F2" d="m256.9 465.6-5.4 3.5-.2.2v1.8c0 .2 0 .3.2.2l5.4-3.7c.2-.1.2-.3.2-.5v-1.3c0-.2-.1-.3-.2-.2Zm-11.5-13.1c.2 0 .4 0 .4.3v2c.6-.2 1.3-.3 2-.2.2 0 .2.2.2.5l-.4 1.8-.2.4h-.4c-.7 0-1.4 0-2 .4a3 3 0 0 0-1.5 2.4c0 1 .5 1.3 2 1.3 2 0 2.8 1 2.9 3.2 0 1.2-.3 2.3-.8 3.3-.4 1-1 2-1.9 2.7v2.4l-.3.2-1 .7c-.2.1-.4 0-.4-.2v-2c-.9.4-1.8.5-2.4.2l-.2-.4.4-1.9.2-.3.1-.1a.2.2 0 0 1 .2 0c.8.2 1.6 0 2.3-.3.5-.3.9-.7 1.2-1.2.3-.5.5-1.1.5-1.7 0-1-.5-1.5-1.7-1.5-1.6 0-3-.3-3-2.8 0-1.1.2-2.2.6-3.2.4-1 1-1.8 1.8-2.5v-2.4l.3-.3 1-.8Z"/><path fill="#595959" d="M330.6 432.5a11.6 11.6 0 0 1 11.2 2.2 10.2 10.2 0 0 1 3.4 7.5 1.2 1.2 0 0 1-.3.8 1 1 0 0 1-.8.4h-3.8a1 1 0 0 1-.7-.3l-.4-.7c0-.7-.2-1.4-.5-2.1-.2-.6-.6-1-1-1.5l-1.4-1a5.7 5.7 0 0 0-3.7 0c-.5.1-1 .4-1.4.7a3 3 0 0 0-1 1.2c-.2.5-.4 1-.3 1.6 0 .5.1 1 .4 1.6l1.2 1.2 1.9 1a46.5 46.5 0 0 0 4.3 1.5 19 19 0 0 1 4.2 2.5 9.8 9.8 0 0 1 3 4.2 9.2 9.2 0 0 1-.6 7 9.2 9.2 0 0 1-2.6 3 11 11 0 0 1-3.4 1.7 13.2 13.2 0 0 1-7.9-.2c-1.3-.4-2.5-1-3.6-2a9.8 9.8 0 0 1-3.8-7.7 1.2 1.2 0 0 1 .3-.7c.2-.3.5-.4.8-.4h3.7c.3 0 .6.1.7.3.2.2.4.4.4.7.1.8.3 1.5.6 2.1a5 5 0 0 0 2.9 2.5c1.3.4 2.7.5 4 .1.5-.1 1-.4 1.5-.7a4 4 0 0 0 1-1.2c.3-.4.4-1 .4-1.5 0-.7-.2-1.3-.5-1.8s-.7-1-1.2-1.3a51.3 51.3 0 0 0-4-1.8 28 28 0 0 1-3.3-1.3c-1-.5-2.1-1.1-3-1.9-1-.8-1.9-1.7-2.5-2.9a8 8 0 0 1-1-4 8 8 0 0 1 1-4 9.5 9.5 0 0 1 2.4-3c1-.8 2.2-1.4 3.4-1.8Zm-19.3-.2.7.2.4.6 9.1 30.5a1.2 1.2 0 0 1-.1 1l-.4.4a1 1 0 0 1-.5.1h-3.7a1 1 0 0 1-.6-.2c-.2-.1-.3-.4-.4-.6l-2-7h-8.1l-2.1 7c0 .2-.2.4-.4.6a1 1 0 0 1-.6.2h-3.7a1 1 0 0 1-.5-.1l-.4-.4-.2-.5v-.5l9.4-30.5c0-.2.2-.4.4-.6l.6-.2h3.1Zm41.2 0c.3 0 .5.2.7.4.2.2.3.5.3.8v12h9.7v-12c0-.3.1-.6.4-.8.2-.3.4-.4.7-.4h3.5c.3 0 .6.2.8.4.2.2.3.5.3.8V464c0 .3-.1.6-.4.8a1 1 0 0 1-.7.3h-3.5a1 1 0 0 1-.8-.3c-.2-.3-.3-.5-.3-.8v-13h-9.7v13c0 .3-.1.6-.3.8a1 1 0 0 1-.8.3H349a1 1 0 0 1-.7-.3c-.2-.3-.3-.5-.3-.8v-30.5c0-.3.1-.6.3-.8.2-.3.5-.4.8-.4h3.5Zm-67.6 0c1.2 0 2.5.2 3.7.6 1.2.3 2.4.8 3.4 1.6a8.4 8.4 0 0 1 3.4 7.1 7.7 7.7 0 0 1-3.1 6.2l.2.2a8.2 8.2 0 0 1 3.2 4.3 9.5 9.5 0 0 1-.5 7.2 9.2 9.2 0 0 1-2.4 3 10.5 10.5 0 0 1-7.3 2.6h-9.3a1 1 0 0 1-.7-.3l-.4-.8v-30.5c0-.3.2-.6.4-.8.2-.3.5-.4.7-.4h8.7Zm.9 18.6H281v8.6h4.6c.6 0 1.2 0 1.8-.3a5 5 0 0 0 1.5-.9c.4-.3.8-.8 1-1.3a4 4 0 0 0 .4-1.8l-.3-1.8c-.3-.5-.6-1-1-1.3-.4-.4-.8-.7-1.4-.9a6 6 0 0 0-1.8-.3Zm24-7.5-2.4 8.1h4.7l-2.3-8.1Zm-24.9-5.5H281v7.4h4c.6 0 1.2 0 1.8-.3.5-.1 1-.4 1.4-.7a4 4 0 0 0 1-1.2l.3-1.5c0-.6 0-1.1-.3-1.6a3 3 0 0 0-1-1.1 5.8 5.8 0 0 0-3.3-1Zm14.6 32.4c.2.2.3.4.3.7l.1.8v1.3l-.4.6c0 .2-.2.4-.4.5l-.7.2c-.2 0-.5 0-.7-.2l-.5-.5a2 2 0 0 1-.2-.6 3 3 0 0 1-.1-.8v-.5a3.1 3.1 0 0 1 .1-1l.2-.5.3-.3a1.3 1.3 0 0 1 .9-.3c.2 0 .4 0 .6.2.2 0 .4.2.5.4Zm50.8-.6.5.1c.2 0 .4.2.5.3a1.3 1.3 0 0 1 .4 1h-.7v-.3l-.2-.3-.2-.1h-.4a1 1 0 0 0-.3 0 .7.7 0 0 0-.3.3l-.1.3v.2l.3.2.3.2.3.1.5.2c.2 0 .3.2.4.3.2.1.3.3.3.4l.1.5a1.1 1.1 0 0 1-.4 1l-.5.2a2 2 0 0 1-1.3-.1 1.6 1.6 0 0 1-.6-.5c-.2-.2-.2-.5-.2-.8h.7v.4l.2.3.3.1a1.1 1.1 0 0 0 .7 0h.2l.2-.3v-.3a.6.6 0 0 0-.2-.5l-.3-.1a3 3 0 0 0-.3-.2l-.5-.1a2 2 0 0 1-.5-.3l-.3-.4a1 1 0 0 1-.1-.5 1.1 1.1 0 0 1 .4-1l.5-.2h.6Zm-21.7 0 .6.1a1.3 1.3 0 0 1 .7.7l.2.6h-.7l-.1-.3c0-.1 0-.2-.2-.3l-.2-.1h-.7a1 1 0 0 0-.3.4l-.1.4v1.8c0 .1 0 .3.2.5l.2.3h1.1v-1.1h-.7v-.5h1.5v1.6a1.6 1.6 0 0 1-.6.5l-.4.1h-.4a1.4 1.4 0 0 1-1.2-.5 2 2 0 0 1-.3-.7 3 3 0 0 1-.1-.8V471l.4-.7.5-.4.6-.2Zm-26.6 0v3.5l.2.3.2.2h.6l.2-.2.2-.3v-3.4h.7v3.6a1.4 1.4 0 0 1-.8.8l-.6.1h-.6l-.4-.4-.3-.5a2 2 0 0 1-.1-.6v-3h.7Zm58.2 0v.7h-2v1.3h1.7v.6h-1.7v1.4h2v.6h-2.7v-4.5h2.7Zm-73.3 0v.7h-2v1.3h1.7v.6h-1.8v1.4h2v.6h-2.7v-4.5h2.8Zm30.2 0v.7h-2v1.3h1.7v.6H315v1.4h2v.6h-2.7v-4.5h2.8Zm-23 0 .6.2c.1 0 .3 0 .4.2.2 0 .3.2.3.4l.2.5-.2.6c-.1.1-.3.3-.5.3l.3.2.3.2.2.7c0 .2 0 .4-.2.5 0 .2-.1.4-.3.5l-.4.2a2 2 0 0 1-.6.1h-1.5v-4.5h1.4Zm39.2 0 1.3 4.6h-.7l-.3-1h-1.3l-.3 1h-.7l1.3-4.5h.7Zm5.2 0v.7h-1v3.3h1v.6H336v-.6h.9v-3.3h-1v-.6h2.6Zm-13.9 0 1.4 4.6h-.7l-.3-1h-1.3l-.3 1h-.8l1.4-4.5h.6Zm42.2 0v4h2v.6h-2.7v-4.5h.7Zm-4.3 0v4h2v.6h-2.7v-4.5h.7Zm-55.5 0 .6.2c.2 0 .4 0 .5.2l.3.4.1.6v.4a1.2 1.2 0 0 1-.7.8l.9 2h-.8l-.8-1.8h-.7v1.8h-.7v-4.5h1.3Zm33.8 0 1.4 3.2v-3.1h.8v4.5h-.8l-1.4-3.1v3h-.7v-4.4h.7Zm-30.2 0 1.4 3.2v-3.1h.7v4.5h-.7l-1.4-3.1v3h-.7v-4.4h.7Zm43.1 0v2h1.5v-2h.7v4.6h-.7v-2h-1.5v2h-.6v-4.5h.6Zm-75.2 0v.7h-1.3v3.9h-.7v-4h-1.3v-.5h3.3Zm1.9 0v2h1.5v-2h.6v4.6h-.6v-2h-1.5v2h-.7v-4.5h.7Zm18 .6c-.2 0-.3 0-.4.2l-.3.3v.4l-.1.5v1.1l.1.5.3.3.4.1h.4l.2-.4.2-.5v-1.6c0-.1 0-.3-.2-.4l-.2-.3a.6.6 0 0 0-.4-.2Zm-4.2 2h-.8v1.4h1.1l.2-.2a.7.7 0 0 0 .3-.5l-.1-.3-.1-.3-.3-.1a1 1 0 0 0-.3 0Zm27-.3v.6H319v-.6h2.4Zm3.1-1.2-.5 1.8h1l-.5-1.8Zm8.7 0-.5 1.8h1l-.5-1.8Zm-26-.4h-.6v1.5h.9l.3-.2.2-.2v-.7a.7.7 0 0 0-.4-.4h-.4Zm-13 0h-.6v1.3h1l.2-.2a.6.6 0 0 0 .3-.5l-.1-.3-.2-.2h-.2l-.3-.1Z"/></g><path fill="#595959" d="M298.3 735.9c0 1.7-.6 3-1.8 4a8 8 0 0 1-5 1.4h-2v6.7h-2v-17.1h4.4c4.3 0 6.4 1.6 6.4 5Zm-8.9 3.7h1.8c1.8 0 3-.3 3.9-.9.8-.6 1.2-1.5 1.2-2.7 0-1.2-.4-2-1.2-2.6a6 6 0 0 0-3.4-.8h-2.3v7Zm26.2 8.4h-2v-8h-9v8h-2v-17.1h2v7.3h9v-7.3h2V748Zm16.3-12.1c0 1.7-.6 3-1.7 4a8 8 0 0 1-5.1 1.4h-2v6.7h-2v-17.1h4.4c4.3 0 6.4 1.6 6.4 5Zm-8.8 3.7h1.8c1.7 0 3-.3 3.8-.9.8-.6 1.2-1.5 1.2-2.7 0-1.2-.4-2-1.1-2.6-.8-.5-2-.8-3.5-.8H323v7Zm-19.1-131c-25.2 0-45 10.7-45 24.4s19.8 24.4 45 24.4 45-10.7 45-24.4-19.8-24.4-45-24.4Zm-4.7 7.5h5l-1.6 7.5h4.4c2.8 0 4.6.4 5.7 1.4 1 1 1.3 2.5 1 4.7l-2 9h-5l1.8-8.4c.2-1 .1-1.9-.3-2.3-.4-.4-1.2-.6-2.4-.6h-4l-2.4 11.2h-4.9l4.7-22.5Zm-21.6 7.5h10c4.8 0 7.7 3.2 6.6 8-1.3 5.5-4.9 7-11.3 7h-3.1l-1 5.6h-5l3.9-20.6Zm39.4 0h10c4.8 0 7.7 3.2 6.5 8-1.3 5.5-4.8 7-11.2 7h-3.1l-1 5.6h-5l3.8-20.6Zm-35 3.8-1.5 7.5h3.2c2.8 0 5.4-.3 5.8-4.5.1-1.6-.5-3-3.7-3H282Zm39.3 0-1.4 7.5h3.2c2.7 0 5.3-.3 5.8-4.5.1-1.6-.5-3-3.8-3h-3.8ZM58.8 959.5a4 4 0 0 1-1.7-.3v-1.7c.6.2 1.1.2 1.7.2.8 0 1.4-.2 1.8-.7.4-.4.6-1.1.6-2v-17.1h2v17c0 1.4-.4 2.6-1.1 3.4-.8.8-1.9 1.2-3.3 1.2Zm19.3-9c0 1.4-.5 2.6-1.6 3.5-1 .8-2.6 1.2-4.4 1.2-2 0-3.6-.2-4.7-.8v-1.9a12.3 12.3 0 0 0 4.7 1 5 5 0 0 0 3-.8c.7-.5 1-1.2 1-2 0-.7 0-1.1-.3-1.5a3 3 0 0 0-1.2-1c-.6-.4-1.4-.8-2.6-1.2a8.2 8.2 0 0 1-3.4-2c-.7-.8-1-1.8-1-3 0-1.4.5-2.4 1.5-3.2 1-.8 2.3-1.2 4-1.2 1.6 0 3.2.3 4.6 1l-.6 1.7c-1.4-.6-2.8-.9-4.1-.9a4 4 0 0 0-2.5.7c-.6.4-.9 1-.9 1.9 0 .6.1 1 .3 1.4.3.4.6.8 1.1 1 .6.4 1.4.7 2.4 1.1 1.8.7 3 1.3 3.7 2a4 4 0 0 1 1 3Z"/><path stroke="#595959" stroke-linecap="round" stroke-linejoin="round" stroke-width="7.5" d="m99 810-7.5 54.4-22.5 7.5-22.5-7.5L39 810h60Z"/><path stroke="#595959" stroke-linecap="round" stroke-linejoin="round" stroke-width="7.5" d="M52.1 825h11.3v30l-7.5-3.8m30-26.2h-9.4a1.9 1.9 0 0 0-1.9 1.9V838a1.9 1.9 0 0 0 1.9 1.9h5.3a1.9 1.9 0 0 1 1.9 2.1l-1.6 11-7.5 1.9"/><path fill="#595959" d="M276 942.9c0 1.7-.6 3-1.7 4a8 8 0 0 1-5.1 1.4h-2v6.7h-2v-17.1h4.4c4.3 0 6.4 1.6 6.4 5Zm-8.8 3.7h1.8c1.7 0 3-.3 3.8-.9.8-.6 1.2-1.5 1.2-2.7 0-1.2-.4-2-1.1-2.6-.8-.5-2-.8-3.5-.8h-2.2v7Zm10.8-4.4h2.1l2.8 7.3 1.2 3.6.7-2 3.2-9h2l-5.4 14.7a7.2 7.2 0 0 1-2 3 4 4 0 0 1-2.6 1l-1.8-.2V959l1.4.1c1.4 0 2.3-.7 2.9-2.2l.7-1.8-5.2-13Zm19 11.4a7 7 0 0 0 1.8-.2v1.5l-1 .2-1 .1c-2.5 0-3.8-1.3-3.8-3.9v-7.6h-1.8v-1l1.8-.8.8-2.7h1.2v3h3.7v1.5H295v7.5c0 .8.2 1.4.5 1.8.4.4.9.6 1.5.6Zm14 1.4v-8.3c0-1-.3-1.8-.7-2.4-.5-.5-1.3-.7-2.3-.7-1.3 0-2.3.3-3 1-.6.8-.9 2-.9 3.7v6.7h-2v-18.2h2v7.1a4 4 0 0 1 1.7-1.4c.7-.4 1.5-.6 2.4-.6 1.6 0 2.8.4 3.5 1.2.8.7 1.2 1.9 1.2 3.5v8.4h-2Zm17.7-6.4c0 2-.5 3.7-1.5 4.9a5.6 5.6 0 0 1-4.4 1.7c-1.2 0-2.2-.2-3-.8a5.3 5.3 0 0 1-2.1-2.3 8 8 0 0 1-.8-3.5 7 7 0 0 1 1.6-5c1-1 2.5-1.7 4.4-1.7 1.8 0 3.2.6 4.2 1.8a7 7 0 0 1 1.6 4.9Zm-9.8 0c0 1.6.4 2.9 1 3.7.7.9 1.7 1.3 3 1.3 1.2 0 2.2-.4 2.8-1.3a6 6 0 0 0 1-3.7 6 6 0 0 0-1-3.7c-.6-.9-1.6-1.3-2.9-1.3-1.3 0-2.2.4-2.9 1.2-.6.9-1 2.1-1 3.8Zm22.8 6.4v-8.3c0-1-.3-1.8-.7-2.4-.5-.5-1.3-.7-2.3-.7-1.3 0-2.3.3-3 1-.6.8-.9 2-.9 3.7v6.7h-2v-12.8h1.7l.3 1.7a4 4 0 0 1 1.7-1.5c.8-.3 1.6-.5 2.4-.5 1.6 0 2.8.4 3.5 1.1.8.8 1.2 2 1.2 3.6v8.4h-2Z"/><g fill="#595959" clip-path="url(#g)"><path d="M297.7 795c-22.9 0-21.4 10-21.4 10v10.3H298v3h-30.5S253 816.8 253 840s12.8 22.3 12.8 22.3h7.6v-10.7s-.4-12.8 12.5-12.8h21.7s12.1.2 12.1-11.8v-20s1.9-12-22-12Zm-12 7a4 4 0 0 1 3.9 3.9 4 4 0 1 1-7.9 0 4 4 0 0 1 4-4Z"/><path d="M298.3 885c22.9 0 21.4-10 21.4-10v-10.3H298v-3h30.5S343 863.2 343 840s-12.8-22.3-12.8-22.3h-7.6v10.7s.4 12.8-12.5 12.8h-21.7s-12.1-.2-12.1 11.8v20s-1.9 12 22 12Zm12-7a4 4 0 0 1-3.9-3.9 4 4 0 1 1 7.9 0 4 4 0 0 1-4 4Z"/></g><path fill="#595959" d="M284.2 1146.5h-1l-.8-.3v-1.7l.8.2h1c.4 0 .8 0 1.2-.2.4-.2.7-.5.9-.9.2-.4.3-1 .3-1.7v-17h2v16.8c0 1.1-.2 2-.5 2.7-.4.7-.9 1.2-1.5 1.6a6 6 0 0 1-2.4.5Zm14.2-17.5c1.5 0 2.7.3 3.4 1 .7.7 1.1 1.8 1.1 3.3v8.7h-1.4l-.4-1.9-1.2 1.2-1.4.7a6.3 6.3 0 0 1-4-.2c-.5-.3-1-.7-1.4-1.2a4 4 0 0 1-.5-2.1c0-1.3.5-2.3 1.6-3 1-.7 2.5-1 4.6-1.1l2.2-.1v-.8c0-1-.2-1.9-.7-2.3-.5-.5-1.2-.7-2-.7a7 7 0 0 0-2 .3l-1.7.7-.6-1.5 2-.7c.8-.3 1.6-.3 2.4-.3Zm2.6 6.7h-2a8 8 0 0 0-3.4.8c-.6.5-1 1.2-1 2 0 .7.3 1.3.7 1.6.5.4 1 .6 1.8.6a4 4 0 0 0 2.8-1c.7-.6 1-1.6 1-2.8v-1.2Zm9.5 6.3-5-12.8h2.2l2.8 7.7a40.7 40.7 0 0 1 1 3.3l.6-1.5.6-1.8 2.8-7.7h2l-4.8 12.8h-2.2Zm14.7-13c1.5 0 2.6.3 3.4 1 .7.7 1 1.8 1 3.3v8.7h-1.3l-.4-1.9h-.1l-1.1 1.2-1.4.7a6.3 6.3 0 0 1-4-.2 4 4 0 0 1-1.4-1.2 4 4 0 0 1-.5-2.1c0-1.3.5-2.3 1.5-3 1-.7 2.6-1 4.7-1.1l2.2-.1v-.8c0-1-.3-1.9-.7-2.3-.5-.5-1.2-.7-2-.7-.7 0-1.4.1-2 .3l-1.7.7-.6-1.5 2-.7c.7-.3 1.5-.3 2.4-.3Zm2.6 6.7h-2a8 8 0 0 0-3.4.8c-.6.5-1 1.2-1 2 0 .7.3 1.3.7 1.6.4.4 1 .6 1.8.6a4 4 0 0 0 2.8-1c.7-.6 1-1.6 1-2.8v-1.2Zm-34.3-68c-11.6 3.2 7 9.9 21.7 3.7-1.4-.5-2.8-1.2-4-2a43.5 43.5 0 0 1-15.7.7c-4.9-.6-2-2.4-2-2.4Zm20-6.3a60.9 60.9 0 0 1-20.1 1c-5-.6-1.7-3-1.7-3-12.8 4.3 7 9 24.9 3.8-1.2-.4-2.2-1-3.1-1.8Zm6.8-36.5s-25.8 6.4-13.5 20.6a5.5 5.5 0 0 1-.9 8s9.2-4.8 5-10.8c-4.2-6-7-8.3 9.4-17.8Z"/><path fill="#595959" d="M326.3 1073.8s2.1 1.7-2.3 3c-8.5 2.6-35.4 3.4-42.8 0-2.7-1.1 2.3-2.7 3.7-3 .9-.3 1.7-.4 2.6-.4-3-2-19.3 4.2-8.3 6 30.2 5.1 55-2.1 47.1-5.6Zm-10.3-18.3 3.4-1.9s-5.6 1-11.2 1.5c-6 .6-12 .7-18 .2-9-1.1 4.7-4.5 4.7-4.5a26 26 0 0 0-11.9 2.8c-7.7 3.8 19.1 5.5 33 1.9Zm3.4 9.1c0 .2-.2.3-.3.4 18.8-5 12-17.5 3-14.3-.6.2-1 .5-1.3 1 0 0 .5-.3 1.6-.5 4.6-1 11 6-3 13.4Zm-16-13.8c-2.8-6.3-12.3-11.8 0-21.5 15.3-12 7.5-19.8 7.5-19.8 3.1 12.4-11.3 16.2-16.3 23.9-3.5 5.3 1.7 11 8.8 17.3Z"/><path fill="#595959" d="M319.9 1082a116 116 0 0 1-34.3.5s1.7 1.4 10.7 2c13.5.8 34.3-.5 34.8-6.9 0 0-1 2.4-11.2 4.4Zm168.9-937.6c-1.9 0-3.4.6-4.5 1.9a8 8 0 0 0-1.6 5.1c0 2.3.5 4 1.6 5.2 1 1.3 2.5 1.9 4.5 1.9a16 16 0 0 0 4-.7v1.8a13 13 0 0 1-4.3.6c-2.5 0-4.5-.7-5.9-2.3a9.5 9.5 0 0 1-2-6.5c0-1.8.3-3.3 1-4.6a7.1 7.1 0 0 1 2.8-3.1 9 9 0 0 1 4.4-1c1.8 0 3.4.3 4.7 1l-.8 1.6a9 9 0 0 0-3.9-.9Zm13.8 6.3h4.9v1.6h-4.9v5H501v-5h-4.8v-1.6h4.8v-5h1.6v5Zm14.5 0h4.8v1.6h-4.8v5h-1.6v-5h-4.9v-1.6h4.9v-5h1.6v5Z"/><path fill="#D3D3D3" fill-rule="evenodd" d="M504 31.8a13.2 13.2 0 0 0-11.5 19.8l23-13.2c-2.3-4-6.6-6.6-11.5-6.6Z" clip-rule="evenodd"/><path fill="#D3D3D3" fill-rule="evenodd" d="M477.4 45a26.6 26.6 0 0 1 49.7-13.3l16-9.2a7.3 7.3 0 0 0-2.9-2.9l-32-18.4a7.8 7.8 0 0 0-8.5.1l-31.8 18.3a7.4 7.4 0 0 0-3.9 6.9v37a8 8 0 0 0 1 4l16-9.3a26.5 26.5 0 0 1-3.6-13.2Z" clip-rule="evenodd"/><path fill="#5C5C5C" d="M492.5 51.6a13.2 13.2 0 0 0 23-.1l-11.3-6.6-11.7 6.7Z"/><path fill="#5C5C5C" d="M504 71.6c-9.8 0-18.4-5.4-23-13.4l-16 9.3a7.6 7.6 0 0 0 2.9 2.9l31.8 18.3a7.9 7.9 0 0 0 8.5 0c10.7-6 21.3-12.2 32-18.3a7.6 7.6 0 0 0 3-3l-16-9.2A26.6 26.6 0 0 1 504 71.6Z"/><path fill="#ADADAD" d="M544 26.5a8 8 0 0 0-.9-4l-39 22.4 39 22.6a8 8 0 0 0 1-4v-37Zm-13.2 20h-3v3h-3v-3h-3.1v-3h3v-3.1h3v3h3.1v3Zm11.1 0h-3v3h-3v-3h-3.1v-3h3v-3.1h3v3h3.1v3Z"/><path fill="#fff" d="M538.9 40.4h-3v3h-3.1v3.1h3v3h3v-3h3.1v-3h-3v-3.1Zm-11.1 0h-3v3h-3.1v3.1h3v3h3v-3h3.1v-3h-3v-3.1Z"/><path fill="#fff" d="M515.6 51.5a13.2 13.2 0 1 1-.1-13.1l11.6-6.7a26.6 26.6 0 1 0 0 26.5l-11.5-6.7Z"/><path fill="#595959" d="M497 335.4c-1.9 0-3.4.6-4.5 1.9a8 8 0 0 0-1.6 5.1c0 2.3.5 4 1.6 5.2 1 1.3 2.5 1.9 4.5 1.9a16 16 0 0 0 4-.7v1.8a13 13 0 0 1-4.3.6c-2.5 0-4.5-.7-5.9-2.3a9.5 9.5 0 0 1-2-6.5c0-1.8.3-3.3 1-4.6a7.2 7.2 0 0 1 2.8-3.1 9 9 0 0 1 4.4-1c1.8 0 3.4.3 4.7 1l-.8 1.6a9 9 0 0 0-3.9-.9Zm17.7 5-.8 4h3.3v1.6h-3.6l-1 5H511l1-5h-3.5l-1 5h-1.6l1-5h-3.1v-1.6h3.3l.8-4h-3.2V339h3.5l1-5.1h1.6l-1 5h3.6l1-5h1.5l-1 5h3.2v1.6h-3.4Zm-6 4h3.6l.8-4h-3.6l-.8 4Z"/><path fill="#9E9E9E" d="M530.2 234.5a6 6 0 0 0-.7-3 5.5 5.5 0 0 0-2-2L504 216.1a5.7 5.7 0 0 0-6.3 0l-23.2 13.4a5.4 5.4 0 0 0-2.8 5v27c0 1.1.2 2 .7 3 .5.8 1.2 1.5 2.1 2L498 280c2 1.3 4 1.3 6.2 0l23.3-13.4a5.4 5.4 0 0 0 2.8-5v-27Z"/><path fill="#777" d="m501 248-28.5 16.4a5 5 0 0 0 2 2.1l23.3 13.4c2.1 1.2 4.1 1.3 6.2 0l23.4-13.4c1-.5 1.6-1.2 2.1-2.1l-28.4-16.5Z"/><path fill="#777" d="M492.6 252.8a9.7 9.7 0 0 0 16.8 0l-8.3-4.9-8.5 4.9Z"/><path fill="#818181" d="M530.2 234.5a6 6 0 0 0-.7-3L501.1 248l28.4 16.5c.5-.8.7-1.8.7-2.9v-27Z"/><path fill="#fff" d="M509.4 252.7a9.7 9.7 0 1 1 0-9.5l8.4-4.9a19.4 19.4 0 1 0 0 19.3l-8.4-4.9Zm10.7-9.3h-2v9.3h2v-9.3Zm4.3 0h-2v9.3h2v-9.3Z"/><path fill="#fff" d="M526 245h-9.4v1.9h9.3v-2Zm0 4.2h-9.4v2h9.3v-2Z"/><path fill="#595959" d="M502.4 752.4c0 2.8-.7 5-2.1 6.5a7.3 7.3 0 0 1-5.8 2.3c-2.5 0-4.5-.7-5.9-2.3a9.5 9.5 0 0 1-2-6.5c0-2.8.7-5 2-6.5a7.4 7.4 0 0 1 6-2.3c2.4 0 4.3.8 5.7 2.3 1.4 1.6 2 3.8 2 6.5Zm-13.7 0c0 2.3.5 4 1.5 5.3 1 1.2 2.4 1.8 4.3 1.8s3.3-.6 4.3-1.8c1-1.2 1.4-3 1.4-5.3s-.4-4-1.4-5.2c-1-1.2-2.4-1.8-4.3-1.8s-3.3.6-4.3 1.8a8 8 0 0 0-1.5 5.2Zm18.2-8.5h4.8c2.3 0 4 .3 5 1s1.5 1.7 1.5 3.2c0 1-.3 1.9-.9 2.5a4 4 0 0 1-2.4 1.3v.1c2.6.5 3.9 1.8 3.9 4.1 0 1.6-.5 2.8-1.6 3.6-1 .9-2.5 1.3-4.3 1.3h-6v-17.1Zm2 7.3h3.3c1.4 0 2.4-.2 3-.7.6-.4 1-1.1 1-2.2 0-1-.4-1.6-1-2-.8-.5-1.9-.7-3.4-.7H509v5.6Zm0 1.7v6.4h3.6c1.4 0 2.4-.3 3-.8.8-.5 1.1-1.4 1.1-2.5 0-1-.3-1.9-1-2.4s-1.8-.7-3.3-.7H509Zm11.8 12.6a4 4 0 0 1-1.7-.3v-1.7c.5.2 1 .2 1.7.2.8 0 1.4-.2 1.8-.7.4-.4.6-1.1.6-2v-17.1h2v17c0 1.4-.4 2.6-1.2 3.4-.7.8-1.8 1.2-3.2 1.2Zm8.3-10v-1.8h5.7v1.8H529Zm14.6 5.7c-1.8 0-3.3-.5-4.3-1.7a7.1 7.1 0 0 1-1.5-4.8c0-2.2.5-3.8 1.5-5 1-1.2 2.5-1.8 4.5-1.8a8.8 8.8 0 0 1 3.3.7l-.6 1.6a8.7 8.7 0 0 0-2.8-.6c-2.6 0-4 1.7-4 5a6 6 0 0 0 1 3.7c.7.8 1.6 1.2 2.9 1.2 1 0 2.1-.2 3.3-.7v1.8a7 7 0 0 1-3.3.6Z"/><g fill="#595959" clip-path="url(#h)"><path d="M510.4 611h3.5l.5.2 5.7.6a44.1 44.1 0 0 1 24 13 44 44 0 0 1 12.5 26.3l.4 3.1v3.4l-.2 1.2c-.3 2-.4 4-.8 6a44.4 44.4 0 0 1-16.5 26.6 43.8 43.8 0 0 1-22.7 9.2l-3.2.4H510l-1-.2c-2.3-.3-4.7-.5-6.9-1a44.8 44.8 0 0 1-26-17c-5-6.5-8-13.9-8.8-22.1l-.4-3v-3.6l.2-.7c.2-1.8.3-3.7.6-5.5a44 44 0 0 1 12.8-23.9 44.5 44.5 0 0 1 26.7-12.6l3.1-.4Zm-41.1 45a43.3 43.3 0 0 0 42.6 42.7 42.8 42.8 0 0 0 42.8-42.8 42.8 42.8 0 0 0-42.5-42.6 43 43 0 0 0-43 42.6Z"/><path d="M546.8 643v25c0 1-.2 1.2-1 1.1h-4.4c-.7 0-1-.2-.9-.9V667h2.5c.8 0 1-.2 1-1v-19.8c0-.8-.2-1.1-1-1h-2.4V643h6.2Zm-63.4 24v2h-6.1l-.1-.9V644c0-.8.1-1 1-1h4.4c1 0 .8.5.8 1 0 .6.1 1.2-.8 1.2h-1.8c-.6-.1-.8.1-.8.8v19.7c0 .8.4 1.2 1.3 1.2h2Zm24.7-11.6c1.3.5 2.2 1.2 2.6 2.5.6 1.9-.3 3.8-2.3 4.5-1 .4-2.2.6-3.3.7h-4v-14c2.4-.3 4.7-.7 7 .2 1.2.4 2.1 1.3 2.2 2.7.1 1.4-.5 2.4-1.8 3.1l-.4.3Zm-4.6 3.5v1.9c0 .2.3.5.5.5 1 0 2 0 2.9-.3 1-.3 1.3-1.2 1.3-2.2 0-1-.5-1.7-1.4-2-.6-.2-1.3-.3-2-.3-1.3 0-1.3 0-1.3 1.3v1.1Zm1.5-8.4c-.6.2-1.4-.3-1.5.7v3l.5.5c.9 0 1.8-.1 2.7-.4.7-.2 1.1-.9 1.1-1.8 0-.8-.5-1.4-1.2-1.7l-1.6-.3Zm-19.6 5.2.6-2.9c1.1-3 3.9-4.5 7.2-4.1 2.7.3 5 2.7 5.4 5.6.2 1.6.1 3.2-.4 4.7-1 2.9-3.6 4.4-7 4.2a6.3 6.3 0 0 1-5.5-5.1c-.2-.7-.2-1.4-.3-2.4Zm11 .2c-.4-1.2-.7-2.5-1.3-3.6-1.3-2.4-4.5-2.4-6-.1a7.3 7.3 0 0 0 0 7.4 3.5 3.5 0 0 0 6-.1c.6-1 .8-2.3 1.3-3.6Zm41.9 4.9c0 .6.2 1.2.3 1.7-2.5 1.5-7 .8-9-1.4a7.8 7.8 0 0 1-.3-9.6c2.2-3 6.5-3.5 9.5-2.2l-.5 1.8c-2.7-.7-5.4-1-7 1.8a5.6 5.6 0 0 0 .1 6.4c1.8 2.4 4.3 2.2 6.9 1.5Zm-26.2.2 1.2.2c1.9 0 2.7-.7 2.8-2.6V650c0-.4.1-1.1.3-1.1h2l.2.4c0 3.4 0 6.7-.2 10-.1 3-2.3 4-4.8 3.9l-1.8-.3.3-2Zm13.9-4.4v1.6h-5l-.3-.9c0-.2.3-.6.4-.6h4.8Z"/></g><path fill="#595959" d="M503.4 930.9h2.2l-6.2 17.1h-2l-6.1-17.1h2l4 11a31 31 0 0 1 1 3.8c.4-1.3.7-2.6 1.2-3.8l3.9-11Zm5.2 0h4.9c2.3 0 3.9.3 5 1 1 .7 1.4 1.7 1.4 3.2a4 4 0 0 1-.8 2.5 4 4 0 0 1-2.5 1.3v.1c2.6.5 4 1.8 4 4.1 0 1.6-.6 2.8-1.7 3.6-1 .9-2.4 1.3-4.3 1.3h-6v-17.1Zm2 7.3h3.3c1.4 0 2.4-.2 3-.7.7-.4 1-1.1 1-2.2 0-1-.4-1.6-1-2-.7-.5-1.8-.7-3.3-.7h-3v5.6Zm0 1.7v6.4h3.6c1.4 0 2.4-.3 3.1-.8.7-.5 1-1.4 1-2.5 0-1-.3-1.9-1-2.4s-1.8-.7-3.3-.7h-3.4Zm24 3.5c0 1.6-.6 2.7-1.7 3.6a7 7 0 0 1-4.4 1.2c-2 0-3.6-.2-4.7-.8v-1.9a12.3 12.3 0 0 0 4.8 1 5 5 0 0 0 3-.8c.6-.5 1-1.2 1-2 0-.7-.1-1.1-.4-1.5a2 2 0 0 0-1.2-1c-.5-.4-1.4-.8-2.5-1.2a8.2 8.2 0 0 1-3.5-2 5 5 0 0 1-1-3c0-1.4.5-2.4 1.5-3.2 1-.8 2.3-1.2 4-1.2 1.7 0 3.2.3 4.7 1l-.7 1.7c-1.4-.6-2.8-.9-4-.9a4 4 0 0 0-2.6.7c-.6.4-.9 1-.9 1.9a2.9 2.9 0 0 0 1.4 2.4c.6.4 1.4.7 2.5 1.1 1.8.7 3 1.3 3.7 2a4 4 0 0 1 1 3Zm26.4-65.1h-90V828h90v50.4Zm-84.3-44.8v39.2h78.6v-39.2h-78.6Z"/><path fill="#595959" d="M510.4 864.3v-22.6c3 .1 5.9-.1 8.7.4 4.7 1 6.9 6.6 4.2 10.4-.2.2-.3.8-.1 1 3 4.1.3 10.5-5.4 10.8-2.4.2-4.8 0-7.4 0Zm5.6-8.3v2.6c1.8.1 2.8-.4 2.8-1.3 0-1-1-1.5-2.8-1.3Zm0-8.4v2.6c1.8.2 2.8-.4 2.8-1.3 0-1-1-1.5-2.7-1.3Zm-25.2-5.8h5.4c.1 4 2 7.3 3 11 .9-3.7 2.7-7 2.8-10.9h5.8c-.2 1.5-.2 3-.6 4.3-1.7 5.8-3.6 11.5-5.4 17.3-.2.7-.5 1-1.2.9h-3.2c-.3 0-.7-.4-.8-.6-2-6-4-12-5.8-18.1-.3-1.2 0-2.5 0-3.9Zm36.5 15.8h5.5c0 .9.6 1.2 1.4 1 .5 0 1-.3 1.3-.7.4-.6 0-1.2-.5-1.6-.3-.2-.8-.4-1.2-.4a7 7 0 0 1-6.6-6.8 7.1 7.1 0 0 1 6.4-7.2 6.8 6.8 0 0 1 7.6 5.2l.1 1.5H536c-.5-.4-.8-.9-1.2-1-.8-.3-1.7.4-1.9 1-.1.8.6 1.5 1.5 1.7l2.3.4a7 7 0 0 1 4.4 8.1 7 7 0 0 1-7.7 5.5c-3.7-.5-5.8-2.5-6.1-6v-.7ZM492.1 1142h-2.3l-6.3-8.3-1.8 1.6v6.7h-2v-17.1h2v8.5l7.8-8.5h2.4l-7 7.4 7.2 9.7Zm13.9-6.4a7 7 0 0 1-1.6 4.9 5.6 5.6 0 0 1-4.4 1.7 5.4 5.4 0 0 1-5.1-3.1 8 8 0 0 1-.7-3.5 7 7 0 0 1 1.6-5 6 6 0 0 1 4.3-1.7c1.8 0 3.3.6 4.3 1.8a7 7 0 0 1 1.6 4.9Zm-9.8 0c0 1.6.3 2.9 1 3.7.7.9 1.6 1.3 2.9 1.3 1.3 0 2.2-.4 2.9-1.3a6 6 0 0 0 1-3.7 6 6 0 0 0-1-3.8c-.7-.8-1.6-1.2-3-1.2-1.2 0-2.2.4-2.8 1.2-.7.9-1 2.1-1 3.8Zm18 5a6.5 6.5 0 0 0 1.8-.2v1.5l-.9.2-1 .1c-2.6 0-3.8-1.3-3.8-3.9v-7.6h-1.9v-1l1.9-.8.8-2.7h1.1v3h3.8v1.5h-3.8v7.5c0 .8.2 1.4.6 1.8.3.4.9.6 1.5.6Zm7 1.4h-1.9v-18.2h2v18.2Zm6.9 0h-2v-12.8h2v12.8Zm-2.1-16.3c0-.5 0-.8.3-1 .2-.2.5-.3.8-.3.3 0 .6 0 .8.3.3.2.4.5.4 1 0 .4-.1.7-.4 1-.2.2-.5.3-.8.3-.3 0-.6-.1-.8-.3-.2-.3-.3-.6-.3-1Zm15.7 16.3v-8.3c0-1-.2-1.8-.7-2.4-.5-.5-1.2-.7-2.2-.7-1.4 0-2.4.3-3 1-.6.8-1 2-1 3.7v6.7H533v-12.8h1.6l.3 1.7h.1a4 4 0 0 1 1.7-1.5 6 6 0 0 1 2.4-.5c1.5 0 2.7.4 3.5 1.1.8.8 1.2 2 1.2 3.6v8.4h-2Z"/><g clip-path="url(#i)"><path fill="#595959" d="M555 1073a13 13 0 0 1-18.6 1l-30.6-27.8-.5-.5 24.2-13.4 24.5 22.3a13 13 0 0 1 1 18.5Zm-53.4-68.4v-2.6a14 14 0 1 0-28 0v18l28-15.4Zm-28.2 58.5v.8a14.1 14.1 0 0 0 28.3 0v-16.5l-28.3 15.7Zm83.5-67.7a13 13 0 0 0-17.8-5.1l-65 36v30l77.7-43.1a13 13 0 0 0 5.1-17.8Z"/></g><path fill="#595959" d="M16.8 1339h-2v-15.4H9.3v-1.7h12.9v1.7h-5.4v15.4Zm6.4-12.8h2l2.9 7.3c.6 1.7 1 2.9 1.1 3.6h.1l.6-2 3.2-9h2.1l-5.5 14.7a7.2 7.2 0 0 1-2 3 4 4 0 0 1-2.6 1 8 8 0 0 1-1.8-.2v-1.6l1.5.2c1.3 0 2.3-.8 2.8-2.3l.7-1.8-5.1-13Zm20.8 13c-.8 0-1.6-.1-2.3-.4-.7-.3-1.3-.8-1.7-1.5h-.2l.2 2.2v5.3h-2v-18.6h1.6l.3 1.7a4.5 4.5 0 0 1 4-2c1.8 0 3.1.6 4 1.8 1 1.1 1.4 2.8 1.4 4.9 0 2-.4 3.7-1.4 4.9a4.8 4.8 0 0 1-4 1.7Zm-.3-11.6c-1.3 0-2.3.3-2.8 1-.6.8-1 2-1 3.5v.5c0 1.8.4 3 1 3.9.6.7 1.5 1.1 2.9 1.1a3 3 0 0 0 2.6-1.3c.6-1 1-2.2 1-3.8a6 6 0 0 0-1-3.6 3 3 0 0 0-2.7-1.3Zm15.2 11.6c-2 0-3.4-.5-4.5-1.7a6.7 6.7 0 0 1-1.7-4.8c0-2 .5-3.7 1.6-5a5 5 0 0 1 4-1.8c1.7 0 3 .5 3.9 1.6a6 6 0 0 1 1.4 4.2v1.2h-8.8c0 1.5.4 2.7 1 3.5a4 4 0 0 0 3.2 1.1c1.3 0 2.7-.3 4-.8v1.7a10.1 10.1 0 0 1-4.1.8Zm-.5-11.7c-1 0-1.9.4-2.5 1a5 5 0 0 0-1.1 2.8h6.7c0-1.2-.3-2.1-.8-2.8a3 3 0 0 0-2.3-1Zm19.2 7c0 1.5-.5 2.6-1.6 3.5a7.5 7.5 0 0 1-4.5 1.2c-2 0-3.6-.2-4.7-.8v-1.9a12.7 12.7 0 0 0 4.8 1 5 5 0 0 0 3-.8c.7-.5 1-1.2 1-2 0-.7-.1-1.2-.4-1.5a2 2 0 0 0-1.2-1c-.5-.4-1.4-.8-2.5-1.2a8.1 8.1 0 0 1-3.4-2c-.7-.8-1-1.8-1-3a4 4 0 0 1 1.4-3.2c1-.8 2.3-1.2 4-1.2 1.7 0 3.2.3 4.7 1l-.6 1.7a11 11 0 0 0-4.2-.9 4 4 0 0 0-2.4.7c-.6.4-1 1-1 1.9 0 .6.2 1 .4 1.4.2.4.6.8 1.1 1 .5.4 1.3.7 2.4 1.1 1.8.7 3 1.3 3.7 2a4 4 0 0 1 1 3Zm9 4.7c-1.8 0-3.2-.5-4.2-1.7a7 7 0 0 1-1.6-4.8c0-2.2.5-3.9 1.6-5 1-1.2 2.5-1.8 4.4-1.8a9 9 0 0 1 3.3.7l-.6 1.6a9 9 0 0 0-2.7-.5c-2.7 0-4 1.6-4 5a6 6 0 0 0 1 3.6c.6.8 1.6 1.2 2.8 1.2 1.1 0 2.2-.2 3.3-.7v1.8a7 7 0 0 1-3.2.6Zm13-13.3c.5 0 1 0 1.5.2l-.3 1.8c-.5-.2-1-.2-1.4-.2-1 0-2 .4-2.7 1.3-.7.8-1 1.8-1 3.1v6.9h-2v-12.8h1.6l.2 2.3h.1c.5-.8 1-1.4 1.7-1.9.7-.4 1.5-.7 2.3-.7Zm6.6 13.1h-2v-12.8h2v12.8Zm-2.1-16.3c0-.5 0-.8.3-1 .2-.2.5-.3.8-.3.3 0 .6 0 .8.3.2.2.4.5.4 1 0 .4-.2.7-.4 1-.2.2-.5.3-.8.3-.3 0-.6-.1-.8-.3-.2-.3-.3-.6-.3-1Zm12.9 16.5c-.9 0-1.6-.1-2.3-.4-.7-.3-1.3-.8-1.7-1.5h-.2l.2 2.2v5.3h-2v-18.6h1.6l.3 1.7a4.5 4.5 0 0 1 4-2c1.8 0 3.1.6 4 1.8 1 1.1 1.4 2.8 1.4 4.9 0 2-.5 3.7-1.4 4.9a4.8 4.8 0 0 1-4 1.7Zm-.3-11.6c-1.3 0-2.3.3-2.8 1-.6.8-1 2-1 3.5v.5c0 1.8.4 3 1 3.9.6.7 1.5 1.1 2.8 1.1a3 3 0 0 0 2.7-1.3c.6-1 .9-2.2.9-3.8 0-1.6-.3-2.8-1-3.6a3 3 0 0 0-2.6-1.3Zm13.9 10a6.5 6.5 0 0 0 1.8-.2v1.5l-1 .2-1 .1c-2.6 0-3.8-1.3-3.8-3.9v-7.6h-1.9v-1l1.9-.8.8-2.7h1.1v3h3.8v1.5h-3.8v7.5c0 .8.2 1.4.6 1.8.4.4.9.6 1.5.6Zm-31.4-141.3H44.8a6.6 6.6 0 0 0-6.5 6.5v54.4a6.6 6.6 0 0 0 6.6 6.5h54.3a6.6 6.6 0 0 0 6.5-6.5v-54.4a6.7 6.7 0 0 0-4-6c-.8-.4-1.7-.5-2.5-.5Zm-21.8 37.5H69v24.1h-6.8v-24.2h-8.4v-5.4h23.6v5.5Zm21.8 19.8a6.5 6.5 0 0 1-2.6 2.7 12 12 0 0 1-3.7 1.5 22.7 22.7 0 0 1-12.9-1.2v-6.4l-.2-.3h.2v.3c1.2.9 2.4 1.6 3.8 2a11.6 11.6 0 0 0 6.5.6l1.5-.7a3 3 0 0 0 1-1 2.6 2.6 0 0 0-.3-2.7 3 3 0 0 0-1.3-1.2c-.6-.5-1.3-.8-2-1.2l-2.5-1c-2-.8-3.7-2.1-5.1-3.8a7.5 7.5 0 0 1-1.7-5 8 8 0 0 1 .9-4 9.3 9.3 0 0 1 6.2-4.1 25.4 25.4 0 0 1 8.5-.2c1.2.1 2.3.4 3.3.8v6.2c-.4-.4-1-.7-1.5-1a13.3 13.3 0 0 0-3.7-1h-1.7l-2.1.3c-.6.1-1.1.3-1.6.6a2 2 0 0 0-1 1c-.2.3-.4.7-.4 1.2 0 .4.2.9.4 1.3.3.4.7.8 1.1 1 .6.5 1.2.8 1.8 1.1l2.3 1 3.2 1.6c.9.5 1.7 1.1 2.4 1.9.7.6 1.2 1.4 1.6 2.3a9.3 9.3 0 0 1-.4 7.3Zm188.1 85.4-5.8-15.2h-.1l.2 4.3v10.9h-1.9v-17.1h3l5.4 14.1h.1l5.5-14.1h3v17.1h-2v-11c0-1.3 0-2.7.2-4.2h-.1l-5.9 15.2h-1.6Zm22.4 0-.4-1.8c-.7.8-1.3 1.3-2 1.6-.6.3-1.4.4-2.4.4-1.2 0-2.2-.3-3-1-.7-.6-1-1.5-1-2.8 0-2.5 2-3.9 6.2-4l2.2-.1v-.8c0-1-.3-1.8-.7-2.2-.4-.5-1.1-.8-2-.8-1.1 0-2.3.4-3.7 1l-.6-1.5a8.7 8.7 0 0 1 4.4-1c1.5 0 2.6.3 3.4 1 .7.7 1 1.7 1 3.2v8.8h-1.4Zm-4.4-1.4a4 4 0 0 0 2.9-1c.7-.6 1-1.6 1-2.8v-1.1h-2a7 7 0 0 0-3.3.8c-.7.4-1 1-1 2 0 .7.2 1.2.6 1.6.5.4 1 .5 1.8.5Zm14.8 0a6.5 6.5 0 0 0 1.7-.2v1.5l-1 .2-1 .1c-2.5 0-3.8-1.3-3.8-3.9v-7.6h-1.8v-1l1.8-.8.9-2.7h1v3h3.8v1.5H318v7.5c0 .8.2 1.4.5 1.8.4.4 1 .6 1.6.6Zm7 1.4h-2v-18.2h2v18.2Zm12.7 0-.4-1.8c-.7.8-1.4 1.3-2 1.6-.6.3-1.4.4-2.4.4-1.3 0-2.3-.3-3-1-.7-.6-1-1.5-1-2.8 0-2.5 2-3.9 6.2-4l2.1-.1v-.8c0-1-.2-1.8-.6-2.2-.4-.5-1.1-.8-2-.8a9 9 0 0 0-3.7 1l-.6-1.5a8.7 8.7 0 0 1 4.3-1c1.6 0 2.7.3 3.4 1 .8.7 1.1 1.7 1.1 3.2v8.8h-1.4Zm-4.4-1.4a4 4 0 0 0 2.9-1 4 4 0 0 0 1-2.8v-1.1h-2a7 7 0 0 0-3.3.8c-.7.4-1 1-1 2 0 .7.2 1.2.6 1.6.4.4 1 .5 1.8.5ZM352 1326c1.6 0 3 .5 3.9 1.7 1 1.1 1.4 2.8 1.4 4.9 0 2-.5 3.7-1.4 4.9a4.8 4.8 0 0 1-4 1.7c-.8 0-1.5-.1-2.2-.4-.7-.3-1.3-.8-1.8-1.5h-.1l-.4 1.7H346v-18.2h2v4.4l-.2 2.7h.1c1-1.3 2.3-2 4-2Zm-.3 1.6c-1.4 0-2.3.4-2.9 1.1-.6.8-.9 2-.9 3.9 0 1.8.3 3 1 3.9.5.7 1.5 1.1 2.8 1.1 1.2 0 2.1-.4 2.7-1.3.6-.9.9-2.1.9-3.8 0-1.6-.3-2.9-1-3.7-.5-.8-1.4-1.2-2.6-1.2Zm164.5-7.7h2.2l-6.2 17.1h-2l-6.1-17.1h2.1l4 11a31 31 0 0 1 1 3.8l1.1-3.8 4-11Zm5.3 0h4.8c2.3 0 4 .3 5 1s1.5 1.7 1.5 3.2c0 1-.3 1.9-.9 2.5a4 4 0 0 1-2.5 1.3v.1c2.6.5 4 1.8 4 4.1 0 1.6-.6 2.8-1.6 3.6-1 .9-2.5 1.3-4.3 1.3h-6v-17.1Zm2 7.3h3.2c1.5 0 2.5-.2 3-.7.7-.4 1-1.1 1-2.2 0-1-.3-1.6-1-2-.7-.5-1.8-.7-3.3-.7h-3v5.6Zm0 1.7v6.4h3.5c1.4 0 2.5-.3 3.2-.8.7-.5 1-1.4 1-2.5 0-1-.3-1.9-1-2.4-.8-.5-1.9-.7-3.3-.7h-3.4Zm24 3.5c0 1.5-.6 2.7-1.7 3.6a7.5 7.5 0 0 1-4.5 1.2c-2 0-3.6-.2-4.7-.8v-1.9a12 12 0 0 0 4.8 1 5 5 0 0 0 3-.8c.7-.5 1-1.2 1-2 0-.7-.1-1.2-.4-1.5-.2-.4-.6-.8-1.1-1-.6-.4-1.5-.8-2.6-1.2a8.2 8.2 0 0 1-3.4-2c-.7-.8-1-1.8-1-3 0-1.4.5-2.4 1.5-3.2a6 6 0 0 1 3.9-1.2c1.7 0 3.3.3 4.7 1l-.6 1.7c-1.4-.6-2.8-.9-4.2-.9a4 4 0 0 0-2.4.7c-.6.4-1 1-1 1.9 0 .6.2 1 .4 1.4.2.4.6.8 1.1 1 .5.4 1.3.7 2.4 1.1 1.8.7 3 1.3 3.7 2a4 4 0 0 1 1 3Zm-50.9-125.9h-9.2l-13.1 33.8-13.1-33.8H452l18 43.6h8.5l18-43.6Zm12.8 24.6H522c3.4 0 8.2 2 8.2 6s-4.8 5.2-8.2 5.2h-12.5V1231Zm0-17.2H522c5.2 0 6.9 3.4 6.9 5.4 0 2.4-1.7 4.6-6.9 4.6h-12.5v-10Zm12.5-7.4h-20.6v43.4H522c9 0 16.3-3.1 16.3-12.8 0-2.7-1.9-8.1-7-9.7 4-1.8 5.7-5 5.7-8.3 0-8.8-6.4-12.6-15-12.6Zm56.6 7.1c-3.2-6.7-10.2-8.6-17-8.6-8 0-16.8 3.7-16.8 12.7 0 9.7 8.2 12 17 13 5.8.7 10 2.4 10 6.5 0 4.7-4.7 6.5-9.9 6.5-5.3 0-10.3-2.1-12.2-6.9l-6.8 3.5c3.2 8 10 10.7 18.9 10.7 9.7 0 18.2-4.2 18.2-13.8 0-10.4-8.4-12.7-17.5-13.9-5.2-.6-9.6-1.6-9.6-5.4 0-3.2 2.9-5.8 9-5.8 4.7 0 8.7 2.4 10.2 4.9l6.5-3.4ZM39.6 1582h-2v-17.1h9.6v1.7h-7.6v6.3h7.1v1.8h-7v7.3Zm22-6.4c0 2-.6 3.7-1.6 4.9a5.6 5.6 0 0 1-4.4 1.7 5 5 0 0 1-3-.8 5.4 5.4 0 0 1-2.1-2.3c-.5-1-.7-2.2-.7-3.5a7 7 0 0 1 1.5-5c1-1 2.5-1.7 4.4-1.7 1.8 0 3.2.6 4.3 1.8a7 7 0 0 1 1.6 4.9Zm-9.8 0c0 1.6.3 2.9 1 3.7.6.9 1.6 1.3 2.9 1.3 1.2 0 2.2-.4 2.9-1.3a6 6 0 0 0 1-3.7 6 6 0 0 0-1-3.8c-.7-.8-1.7-1.2-3-1.2-1.2 0-2.2.4-2.8 1.2-.7.9-1 2.1-1 3.8Zm19.8-6.7c.5 0 1 0 1.5.2l-.3 1.8c-.5-.2-1-.2-1.4-.2-1 0-2 .4-2.6 1.3-.8.8-1.1 1.8-1.1 3.1v6.9h-2v-12.8h1.6l.2 2.3h.1c.5-.8 1-1.5 1.8-1.9.6-.4 1.4-.7 2.2-.7Zm8.8 11.7a6.5 6.5 0 0 0 1.7-.2v1.5l-1 .2-1 .1c-2.5 0-3.7-1.3-3.7-3.9v-7.6h-1.9v-1l1.9-.8.8-2.7h1.1v3H82v1.5h-3.7v7.5c0 .8.2 1.4.6 1.8.3.4.8.6 1.5.6Zm10.9-11.7c.6 0 1 0 1.5.2l-.2 1.8c-.6-.2-1-.2-1.5-.2-1 0-1.9.4-2.6 1.3-.8.8-1.1 1.8-1.1 3.1v6.9h-2v-12.8H87l.3 2.3c.5-.8 1.1-1.5 1.8-1.9.6-.4 1.4-.7 2.2-.7Zm12.5 13.1-.3-1.8h-.1c-.7.8-1.3 1.3-2 1.6-.6.3-1.4.4-2.3.4-1.3 0-2.3-.3-3-1-.8-.6-1.1-1.5-1.1-2.8 0-2.5 2-3.9 6.2-4l2.2-.1v-.8c0-1-.2-1.8-.7-2.2-.4-.5-1-.8-2-.8-1.1 0-2.3.4-3.7 1l-.6-1.5a8.7 8.7 0 0 1 4.4-1c1.5 0 2.6.3 3.4 1 .7.6 1 1.7 1 3.2v8.8h-1.4Zm-4.4-1.4c1.3 0 2.2-.3 2.9-1 .7-.6 1-1.6 1-2.8v-1.1h-2a7 7 0 0 0-3.3.8c-.6.4-1 1-1 2 0 .7.2 1.2.7 1.6.4.4 1 .5 1.7.5Zm19.4 1.4v-8.3c0-1-.2-1.8-.7-2.4-.5-.5-1.2-.7-2.2-.7-1.4 0-2.4.3-3 1-.6.8-1 2-1 3.7v6.7H110v-12.8h1.6l.3 1.7h.1a4 4 0 0 1 1.7-1.5 6 6 0 0 1 2.4-.5c1.5 0 2.7.4 3.5 1.1.8.8 1.2 2 1.2 3.6v8.4h-2Zm-11.5-150H50.7a16.8 16.8 0 0 0-16.7 16.7v56.6a16.7 16.7 0 0 0 16.7 16.7h56.6a16.8 16.8 0 0 0 16.7-16.7v-56.6a16.8 16.8 0 0 0-16.7-16.7Zm4.4 24.3v14.6h-3.4l-4-.2c-.4-.1-.5-.2-.7-3.2-.3-3.8-.5-5.4-1.1-8-1.4-5.4-4.1-8.4-8.7-9.2-1.9-.3-10.2-.7-17-.7H72v21.9l2.5-.2c2.8-.1 5-.5 6.1-1a6.3 6.3 0 0 0 3-3c.5-1.2 1-3 1.2-5.7l.4-2.4c0-.4 0-.4 3.8-.4h3.8v34.9h-7.7l-.1-2a29 29 0 0 0-1.8-8.8c-1.2-2.3-3.5-3.3-8-3.6-1 0-1.8 0-2.6-.2H72v10.9c.1 11.6.2 12 1 13 1 1 1.5 1 10.6 1.4.2 0 .3.9.3 3.9v3.9H46.3v-4c0-3.5 0-3.8.3-3.8l4.1-.2c3.4-.2 3.9-.3 4.7-.7.5-.2 1-.6 1.3-1.2.4-.8.4-1 .4-25.4 0-23 0-24.7-.4-25.3a3.5 3.5 0 0 0-2-1.6c-.4-.1-2.5-.3-4.6-.3l-3.8-.1v-7.8h65.4v14.5Zm177.7 116.8c0-.5.1-.9.3-1.2.3-.2.6-.4 1-.4.5 0 .9.2 1.1.4.3.3.4.7.4 1.2s-.1 1-.4 1.2c-.2.3-.6.4-1 .4s-.8-.1-1-.4c-.3-.2-.4-.6-.4-1.2Zm21 1.3h-2.2l-9.4-14.4.1 4.6v9.8h-1.8v-17.2h2.2l9.4 14.3a127.2 127.2 0 0 1 0-4.4v-9.9h1.8v17.2Zm15 0H316v-17.2h9.6v1.8H318v5.5h7.1v1.8H318v6.3h7.6v1.8Zm9.9 0h-2V1559h-5.5v-1.8h12.9v1.8h-5.4v15.4Zm41.9-135.6c0-.3-.1-.5-.3-.6l-.8-.2h-.6v1.6h.7c.7 0 1-.2 1-.8Zm.9 3.4h-.8l-.5-1.1c-.3-.6-.6-.9-.9-.9h-.4v2h-.7v-4.8h1.4c.5 0 1 .2 1.3.4.3.3.4.6.4 1 0 .3-.1.5-.3.8-.2.2-.5.4-1 .4.3.1.6.4.9 1l.6 1.2Zm1.5-2.3a3 3 0 0 0-1-2.4c-.6-.6-1.4-1-2.3-1a3.2 3.2 0 0 0-3.3 3.4c0 1 .3 1.7 1 2.4.6.6 1.4 1 2.3 1 .9 0 1.7-.4 2.3-1 .7-.7 1-1.5 1-2.4Zm.4 0c0 1-.3 1.9-1 2.6a4 4 0 0 1-2.7 1c-1.1 0-2-.3-2.7-1-.7-.7-1-1.5-1-2.6 0-1 .3-2 1-2.7.7-.7 1.6-1 2.7-1a3.7 3.7 0 0 1 3.7 3.6Zm-102 13.3h-2.3v-13.3c0-1 0-2.3.2-3.8a13 13 0 0 1-.7 2l-6.7 15.1h-1.1l-6.8-15a11 11 0 0 1-.6-2.1l.1 3.9v13.2H258v-19.8h3l6 13.8 1 2.4 1-2.4 6.2-13.8h2.9v19.8Zm7.1 0H283v-14.1h2.2v14.1Zm.4-19.2c0 .4-.1.8-.4 1-.3.4-.7.5-1 .5-.5 0-.8-.1-1.1-.4-.3-.3-.4-.6-.4-1a1.4 1.4 0 0 1 .9-1.4l.5-.1a1.4 1.4 0 0 1 1.5 1.4Zm13.7 18.5a7 7 0 0 1-3.9 1c-2 0-3.6-.6-4.9-2a7.1 7.1 0 0 1-1.8-5 8 8 0 0 1 2-5.6 7 7 0 0 1 5.3-2.2c1.3 0 2.4.3 3.3.8v2.3c-1-.8-2.2-1.1-3.4-1.1-1.4 0-2.6.5-3.5 1.5-.9 1-1.4 2.4-1.4 4 0 1.7.5 3 1.3 4 .9 1 2 1.4 3.5 1.4a6 6 0 0 0 3.5-1.2v2.1Zm10.7-11.1c-.4-.3-1-.5-1.7-.5-1 0-1.7.4-2.3 1.3-.7.9-1 2.2-1 3.8v7.2h-2.3V1439h2.2v2.9a5 5 0 0 1 1.6-2.4c.7-.5 1.4-.8 2.2-.8l1.3.2v2.4Zm12.6 4.8c0-1.8-.4-3.2-1.2-4.2-.8-.9-2-1.3-3.3-1.3-1.4 0-2.6.4-3.4 1.3a6 6 0 0 0-1.3 4.2c0 1.7.4 3 1.2 4 .9 1 2 1.4 3.5 1.4 1.4 0 2.6-.5 3.3-1.4.8-1 1.2-2.3 1.2-4Zm2.3-.1c0 2.2-.6 4-1.9 5.4a7 7 0 0 1-5.1 2c-2.1 0-3.8-.7-5-2a7.4 7.4 0 0 1-1.9-5.2c0-2.5.7-4.3 2.1-5.7a7 7 0 0 1 5.1-1.9c2.1 0 3.8.7 5 2a7.8 7.8 0 0 1 1.7 5.4Zm11.2 3.3c0 1.2-.4 2.1-1.3 2.9a6 6 0 0 1-3.9 1.2c-1.3 0-2.5-.3-3.5-.8v-2.4c1.1.9 2.4 1.3 3.7 1.3 1.8 0 2.7-.6 2.7-2 0-.5-.2-1-.6-1.3-.4-.4-1.2-.8-2.3-1.3-1.2-.5-2-1-2.6-1.6-.5-.7-.8-1.5-.8-2.6s.4-2.1 1.3-2.9c1-.8 2.2-1.2 3.6-1.2 1.1 0 2.1.3 3 .7v2.3a5 5 0 0 0-3.2-1c-.7 0-1.3.1-1.8.5a2 2 0 0 0-.6 1.4c0 .7.2 1.2.5 1.5.4.3 1 .7 2.1 1.2 1.2.5 2.1 1 2.6 1.5.7.7 1 1.6 1 2.6Zm13.8-3.2c0-1.8-.4-3.2-1.3-4.2-.8-.9-1.9-1.3-3.3-1.3s-2.5.4-3.4 1.3a6 6 0 0 0-1.3 4.2c0 1.7.4 3 1.3 4 .8 1 2 1.4 3.4 1.4 1.5 0 2.6-.5 3.4-1.4.8-1 1.2-2.3 1.2-4Zm2.3-.1c0 2.2-.7 4-2 5.4a6.5 6.5 0 0 1-5 2c-2.2 0-3.8-.7-5-2a7.4 7.4 0 0 1-1.9-5.2c0-2.5.7-4.3 2-5.7a7 7 0 0 1 5.2-1.9c2 0 3.7.7 4.9 2a7.8 7.8 0 0 1 1.8 5.4Zm10-11.8a3 3 0 0 0-1.6-.4c-1.6 0-2.4 1-2.4 3v2.2h3.3v1.9h-3.3v12.2H356V1441h-2.4v-2h2.4v-2.2a5 5 0 0 1 1.4-3.7c.9-.7 1.9-1.1 3-1.1.8 0 1.3 0 1.7.3v2Zm8.8 18.8c-.5.3-1.2.4-2.1.4-2.5 0-3.7-1.4-3.7-4.2v-8.3h-2.4v-2h2.4v-3.4l2.3-.7v4.2h3.5v1.9h-3.5v8c0 1 .1 1.6.4 2 .4.4.9.6 1.6.6.6 0 1-.2 1.5-.5v2ZM249 1508.3a4 4 0 0 1-1.1 2.9 4 4 0 0 1-3 1.2c-1 0-2-.5-2.7-1.3a4 4 0 0 1-1.2-2.8 4 4 0 0 1 1.2-3 4 4 0 0 1 2.8-1.1c1 0 2 .4 2.9 1.2a4 4 0 0 1 1.1 2.9Zm50.5 3.2h-7.3l-26.7-41.3c-.7-1-1.2-2-1.6-3.2h-.3c.2 1 .3 3.5.3 7v37.5h-6v-51.8h7.8l26 40.7 2 3.4h.2c-.3-1.5-.4-4-.4-7.6v-36.5h6v51.8Zm38.9 0H311v-51.8h26.2v5.5H317v17.2h18.7v5.5H317v18.1h21.4v5.5Zm41.5-46.3H365v46.3h-6v-46.3h-15v-5.5h36v5.5ZM485.2 1580l-2.4-6h-7.2l-2.3 6H472l6.8-17.2h1l6.6 17.2h-1.2Zm-2.7-7.2-2.4-6.4-.2-.6a46.6 46.6 0 0 0-.6-1.6l-.3.8-.2.8-.3.7-2.4 6.3h6.4Zm14 3.9c0 .7-.2 1.4-.5 2-.4.4-1 .8-1.7 1.1a10.6 10.6 0 0 1-6.8-.4v-1.2a9.8 9.8 0 0 0 4.1 1c1.4 0 2.3-.2 2.9-.6.6-.5.8-1.1.8-1.9 0-.5-.1-.9-.4-1.2-.3-.4-.7-.7-1.2-.9l-2-.7-2-.8a5 5 0 0 1-1.4-1c-.4-.5-.6-1-.6-1.8 0-1 .5-1.9 1.3-2.4.8-.6 1.9-.9 3.3-.9a9.6 9.6 0 0 1 4 .8l-.5 1c-.5-.2-1-.4-1.7-.5-.6-.2-1.2-.3-1.9-.3-1 0-1.8.2-2.4.6-.6.4-.9.9-.9 1.6 0 .5.2 1 .4 1.3l1.2.8a65.5 65.5 0 0 0 4 1.5c.6.2 1 .6 1.5 1 .3.5.5 1 .5 1.9Zm11.2 0c0 .7-.2 1.4-.6 2a4 4 0 0 1-1.6 1.1 10.6 10.6 0 0 1-6.8-.4v-1.2a9.8 9.8 0 0 0 4.1 1c1.3 0 2.3-.2 2.9-.6.5-.5.8-1.1.8-1.9 0-.5-.1-.9-.4-1.2-.3-.4-.7-.7-1.2-.9l-2-.7-2-.8c-.6-.3-1.1-.6-1.5-1-.3-.5-.5-1-.5-1.8 0-1 .4-1.9 1.3-2.4.8-.6 1.9-.9 3.3-.9a9.6 9.6 0 0 1 3.9.8l-.4 1c-.5-.2-1-.4-1.7-.5-.6-.2-1.3-.3-1.9-.3-1 0-1.8.2-2.4.6-.6.4-1 .9-1 1.6 0 .5.2 1 .5 1.3l1.2.8a64.4 64.4 0 0 0 4 1.5c.6.2 1 .6 1.4 1 .4.5.6 1 .6 1.9Zm8-9.7c1.1 0 2 .3 2.8.8.7.5 1.2 1.2 1.6 2 .3 1 .5 2 .5 3.1v.8h-9.2a6 6 0 0 0 1.2 4c.8 1 2 1.5 3.5 1.5a9.5 9.5 0 0 0 4-.9v1.1a9.1 9.1 0 0 1-4 .8c-1.3 0-2.4-.2-3.3-.8a5 5 0 0 1-2-2.2c-.4-1-.6-2.2-.6-3.5 0-1.2.2-2.4.6-3.4.5-1 1-1.8 1.9-2.4a5 5 0 0 1 3-.9Zm0 1c-1.2 0-2.2.4-3 1.3-.7.8-1.1 2-1.3 3.5h8a7 7 0 0 0-.4-2.5c-.3-.7-.7-1.3-1.2-1.7-.6-.4-1.2-.6-2-.6Zm21.6-1a4 4 0 0 1 2.9 1c.7.8 1 2 1 3.5v8.5h-1.1v-8.5c0-1.2-.3-2-.8-2.6-.6-.6-1.3-.8-2.2-.8-1.2 0-2.1.3-2.8 1-.7.7-1 1.8-1 3.4v7.5H532v-8.5c0-.8-.1-1.4-.4-2a2 2 0 0 0-1-1 4 4 0 0 0-3.6.1c-.6.3-1 .8-1.3 1.5-.3.6-.5 1.5-.5 2.5v7.4H524v-12.7h1l.1 2h.1a4.4 4.4 0 0 1 2.2-2c.5-.2 1.1-.3 1.8-.3 1 0 1.7.2 2.3.6.7.4 1.1 1 1.4 1.9a4 4 0 0 1 1.6-1.8 5 5 0 0 1 2.7-.7Zm9.2-5.2v5.2a52.2 52.2 0 0 1 0 2.7c.3-.8.8-1.4 1.6-2 .7-.4 1.7-.7 2.8-.7 1.7 0 3 .6 3.9 1.7.9 1.1 1.3 2.7 1.3 4.9 0 1.3-.2 2.5-.6 3.5-.4 1-1 1.7-1.8 2.3a5 5 0 0 1-3 .8c-1.1 0-2-.2-2.7-.7a4 4 0 0 1-1.5-1.7l-.3 2.2h-.9v-18.2h1.2Zm4.3 6.2c-1 0-1.8.3-2.5.7-.6.4-1 1-1.4 1.9a9 9 0 0 0-.4 3v.2a7 7 0 0 0 1 4c.6 1 1.6 1.4 3 1.4 1.5 0 2.6-.5 3.3-1.5.7-1 1.1-2.3 1.1-4.1a7 7 0 0 0-1-4.2 3.7 3.7 0 0 0-3.1-1.4Zm10 12h-1.2v-18.2h1.2v18.2Zm2.2-12.7h1.2l3.1 8a35.4 35.4 0 0 1 1.2 3.4 121.6 121.6 0 0 1 1.2-3.3l3-8.1h1.3l-5.8 15c-.3.8-.6 1.5-1 2a3 3 0 0 1-2.8 1.5h-.8a5 5 0 0 1-.6-.2v-1a6.4 6.4 0 0 0 1.3.2 2 2 0 0 0 1.1-.3l1-.8.7-1.5.8-2.3-5-12.6Zm-39.9-122.7h18c.6 0 .9.2 1.1.7l18 31c.3.5.3.8 0 1.3l-18 31c-.3.6-.6.8-1.2.8h-36c-.5 0-.8-.2-1.1-.7l-18-31.1c-.3-.4-.3-.8 0-1.2l18-31.2c.3-.5.6-.6 1.1-.6h18.1Zm22.2 25.4-.4 10v6.6c0 .3-.1.7.4.7h3.1v-21.9h-3.7c-.5 0-.7.2-.9.7l-3 10.2-.3.7-.3-.8-3-10.1c0-.3-.3-.6-.5-.6h-4l-.1.8v20.6l.3.3h3.3l-.4-16.9v.6l3 9.2c.5 1.5.5 1.4 2 1.5.6 0 .9-.2 1-.8l3-8.7.5-2.1Zm-32.6 17.2v-.4l-7-20.9c0-.2-.3-.5-.6-.5h-3.4c-.5 0-.8.1-1 .7l-6.5 20.3-.3.8h2.4c1.1 0 1.8-.5 2.1-1.6l1.3-4.2h6.7c.4 0 .5.2.6.5l1.4 4.8c0 .2.3.5.4.5h3.9Zm1.1-2.8.2.2a11.3 11.3 0 0 0 7.2 3 9 9 0 0 0 6.7-1.8c3-2.3 3.1-7.5-.4-9.5a19 19 0 0 0-2-1l-5.4-2.4c-1-.4-1.4-1.2-1.3-2.3.2-1 .8-1.6 1.8-1.8.9-.2 1.8-.3 2.7-.2 1.5 0 2.9.8 4.1 1.7l2-2.4-.2-.3-.7-.6a10 10 0 0 0-6.7-2c-2.1.1-4 .8-5.6 2.4-2.1 2.3-2 6 .5 8 .7.6 1.6 1 2.5 1.5l5.5 2.5c1 .5 1.4 1.4 1.3 2.5-.2 1-.9 1.6-1.8 2a7 7 0 0 1-3.9 0 10 10 0 0 1-4.2-2.2l-2.3 2.7Z"/><path fill="#595959" d="M505.9 1478.1h-5.3l2.6-9.5 2.7 9.5ZM74.7 1800.2h5.8v8.3a18.8 18.8 0 0 1-6 .9c-2.6 0-4.6-.8-6-2.3a9.1 9.1 0 0 1-2.2-6.5c0-1.8.4-3.4 1-4.7a7.2 7.2 0 0 1 3.2-3 8.8 8.8 0 0 1 4.7-1.1c1.8 0 3.5.3 5 1l-.7 1.7c-1.5-.6-3-1-4.4-1-2.1 0-3.8.7-5 1.9a7.2 7.2 0 0 0-1.7 5.2c0 2.3.6 4 1.7 5.2 1.1 1.2 2.8 1.8 5 1.8a14 14 0 0 0 3.5-.4v-5.3h-3.9v-1.7Zm25.6.3c0 2.8-.7 5-2.1 6.5a7.3 7.3 0 0 1-5.8 2.4c-2.5 0-4.5-.8-5.8-2.3a9.6 9.6 0 0 1-2.1-6.6c0-2.8.7-5 2-6.5a7.4 7.4 0 0 1 6-2.3c2.4 0 4.3.8 5.7 2.4 1.4 1.5 2 3.7 2 6.4Zm-13.7 0c0 2.4.5 4.1 1.5 5.3 1 1.2 2.4 1.8 4.3 1.8s3.3-.6 4.3-1.8c1-1.2 1.5-3 1.5-5.3s-.5-4-1.5-5.2c-1-1.2-2.4-1.8-4.3-1.8s-3.3.6-4.3 1.8a8 8 0 0 0-1.5 5.2Z"/><path fill="#595959" fill-rule="evenodd" d="m88.9 1683.4-16.8 4.4c-1.5.4-1.6.5-3-1a13.4 13.4 0 0 0-4.6-3.8 17.4 17.4 0 0 0-18.1 1.5 21.3 21.3 0 0 0-10.2 19c0 8 5.6 14.6 13.5 15.7 6.8 1 12.5-1.5 17-6.6.9-1 1.7-2.3 2.7-3.7H50c-2.1 0-2.6-1.3-2-3 1.4-3 3.8-8.3 5.2-10.9.3-.6 1-1.6 2.5-1.6h36.4c-.2 2.7-.2 5.4-.6 8.1a42.6 42.6 0 0 1-8.2 19.6 41.7 41.7 0 0 1-28.5 17 35.4 35.4 0 0 1-27-6.6 31.4 31.4 0 0 1-12.6-22.2 39.2 39.2 0 0 1 8.5-29.3 44.4 44.4 0 0 1 28-17.3 34 34 0 0 1 26.5 5c5.3 3.4 9 8.2 11.6 14 .6 1 .2 1.4-1 1.7Z" clip-rule="evenodd"/><path fill="#595959" d="M122 1738.7a37.5 37.5 0 0 1-24.4-8.8 31.4 31.4 0 0 1-10.8-19.3 38.2 38.2 0 0 1 8-30.2 42 42 0 0 1 28-16.7 37 37 0 0 1 28.6 5.1 31.1 31.1 0 0 1 14 22.3 38.6 38.6 0 0 1-11.4 34 45.8 45.8 0 0 1-24 12.7c-2.7.5-5.4.6-8 1Zm23.8-40.4c-.1-1.3-.1-2.3-.3-3.3a16.5 16.5 0 0 0-20.4-13.3c-9.3 2.1-15.3 8-17.5 17.4-1.8 7.8 2 15.7 9.2 19 5.5 2.3 11 2 16.3-.7a21.9 21.9 0 0 0 12.7-19Zm167.6 110.6v7.1h-2v-17.1h4.7c2.1 0 3.7.4 4.7 1.2 1 .8 1.5 2 1.5 3.6 0 2.3-1.1 3.8-3.4 4.6l4.6 7.7h-2.3l-4.2-7.1h-3.6Zm0-1.7h2.8c1.4 0 2.4-.3 3-.9.7-.5 1-1.4 1-2.5s-.3-2-1-2.4c-.6-.5-1.7-.8-3.2-.8h-2.6v6.6Z"/><path fill="#595959" fill-rule="evenodd" d="M314 1753c-32 0-57.9-17.4-57.9-38.8s26-38.7 57.9-38.7c32 0 57.8 17.3 57.8 38.7 0 21.4-25.9 38.8-57.8 38.8Zm8.8-62.4c-24.2 0-44 11.9-44 26.5s19.8 26.5 44 26.5c24.3 0 42.2-8.1 42.2-26.5s-17.9-26.5-42.2-26.5Z" clip-rule="evenodd"/><path fill="#828282" fill-rule="evenodd" d="M344.2 1735.5s3.5 1 5.6 2c.7.4 1.9 1.1 2.8 2 .8 1 1.3 2 1.3 2l13.8 23.2h-22.3l-10.5-19.6s-2.1-3.7-3.4-4.7c-1.1-1-1.6-1.2-2.7-1.2h-5.3v25.5h-19.7v-65.2h39.6s18 .4 18 17.5c0 17.2-17.2 18.5-17.2 18.5Zm-8.5-21.8h-12v11h12s5.5 0 5.5-5.6c0-5.7-5.5-5.4-5.5-5.4Z" clip-rule="evenodd"/><path fill="#595959" d="M488.6 539.9h2.1l-6.2 17.1h-2l-6-17.1h2l4 11c.4 1.3.8 2.6 1 3.8a31 31 0 0 1 1.1-3.8l4-11Zm18.2 17.1h-2v-8h-9v8h-2v-17.1h2v7.3h9v-7.3h2V557Zm19.1-8.7c0 2.8-.8 5-2.3 6.5-1.5 1.5-3.7 2.2-6.6 2.2h-4.8v-17.1h5.3c2.6 0 4.7.7 6.2 2.2a8.4 8.4 0 0 1 2.2 6.2Zm-2.1 0c0-2.2-.6-3.9-1.7-5s-2.8-1.7-5-1.7h-2.9v13.7h2.5c2.3 0 4.1-.6 5.3-1.8 1.2-1.1 1.8-2.9 1.8-5.2Zm6.7 8.7v-17.1h2v15.3h7.5v1.8h-9.5Z"/><g clip-path="url(#j)"><path fill="#595959" d="M530.5 487.6h-43a8.4 8.4 0 0 1-8.3-8.4v-42.9c0-4.6 3.8-8.3 8.3-8.3h43c4.5 0 8.3 3.7 8.3 8.3v43c0 4.5-3.8 8.3-8.3 8.3Zm-7-44.5h-28.2v28.2h28.1V443ZM496 413h-5.3v12.6h5.3V413Zm10.5 0h-5.3v12.6h5.3V413Zm10.5 0h-5v12.6h5.2V413Zm10.5 0h-5.2v12.6h5.2V413Zm-50.8 58H464v5.2h12.8V471Zm0-10.6H464v5.3h12.8v-5.3Zm0-10.5H464v5.2h12.8V450Zm0-10.5H464v5.2h12.8v-5.2ZM554 471h-12.8v5.2H554V471Zm0-10.6h-12.8v5.3H554v-5.3Zm0-10.5h-12.8v5.2H554V450Zm0-10.5h-12.8v5.2H554v-5.2Zm-58 51h-5.2V503h5.3v-12.6Zm10.6 0h-5.3V503h5.3v-12.6Zm10.5 0H512V503h5.2v-12.6Zm10.5 0h-5.2V503h5.2v-12.6Zm-37-54.7c0-2.2-2.3-3.6-4.2-2.5a2.8 2.8 0 1 0 4.2 2.5Z"/></g><path fill="#595959" d="m272 1242.4 24-9.1c2.3-3 5-5.8 8-8.3 2-1 5.8-.4 12.6-8.4 6.6-7.7 8.7-14.3 11.8-14.3 4.9 0 8.5 9.9 14 24.9 3.8 11.4 8.4 22.7 13.6 33.6-5.7-5-10.6-10.3-16.1-10.2-5.2.1-10.9 5.9-17.2 13.3-5 5.8-11.6 9.9-14.1 9.8 0 0-6.7-17.6-12.3-20.5a8.3 8.3 0 0 0-7.1.5l-17.2-11.4Z"/><path fill="#757575" d="M325.4 1204.3c-2 2.5-4.4 7.2-8.8 12.3-6.8 8-10.5 7.4-12.5 8.4-3 2.5-5.8 5.3-8.2 8.3l10 6.8c8.3-10.8 12.8-22.4 16.3-30 .9-2 2-4 3.2-5.8Z"/><path fill="#717B94" d="M328.4 1202.3c-6.5 0-11 32.3-35.2 50.3 6.8-1 12.7 14.7 15.4 21.1 12-1.9 21.6-23.4 31.3-23 5.5.1 10.4 5.2 16.1 10.1-13-25.6-19.1-58.5-27.6-58.5Z"/><defs><clipPath id="a"><path fill="#fff" d="M19 0h90v90H19z"/></clipPath><clipPath id="b"><path fill="#fff" d="M254 0h90v90h-90z"/></clipPath><clipPath id="c"><path fill="#fff" d="M17 214h90v90H17z"/></clipPath><clipPath id="d"><path fill="#fff" d="M254 214h90v90h-90z"/></clipPath><clipPath id="e"><path fill="#fff" d="M9 608h90v90H9z"/></clipPath><clipPath id="f"><path fill="#fff" d="M207 411h162v76H207z"/></clipPath><clipPath id="g"><path fill="#fff" d="M253 795h90v90h-90z"/></clipPath><clipPath id="h"><path fill="#fff" d="M467 611h90v90h-90z"/></clipPath><clipPath id="i"><path fill="#fff" d="M471 988h90v90h-90z"/></clipPath><clipPath id="j"><path fill="#fff" d="M464 413h90v90h-90z"/></clipPath></defs></svg>