<svg width="632" height="428" viewBox="0 0 632 428" fill="none" xmlns="http://www.w3.org/2000/svg">
<path d="M298.277 40.3252H410.222C413.185 40.3252 415.587 42.5789 415.587 45.3591V316.16C415.587 318.942 413.185 321.195 410.222 321.195H298.277C295.314 321.195 292.912 318.942 292.912 316.16V45.3591C292.912 42.5789 295.314 40.3252 298.277 40.3252Z" fill="#2B354E" fill-opacity="0.463964" stroke="white" stroke-width="0.00174282" stroke-miterlimit="10" stroke-linecap="square" stroke-linejoin="round"/>
<path d="M453.315 42.9136H558.37C558.512 42.9136 558.625 43.0271 558.625 43.1674V172.637C558.625 172.776 558.512 172.891 558.37 172.891H453.315C453.176 172.891 453.063 172.776 453.063 172.637V43.1674C453.063 43.0271 453.176 42.9136 453.315 42.9136Z" fill="#2B354E" fill-opacity="0.542793"/>
<path d="M38.8225 132.007H101.992C102.132 132.007 102.246 132.119 102.246 132.26V168.507C102.246 168.648 102.132 168.761 101.992 168.761H93.6824L94.5972 181.12L77.3558 168.761H38.8225C38.6823 168.761 38.5687 168.648 38.5687 168.507V132.26C38.5687 132.119 38.6823 132.007 38.8225 132.007Z" fill="#8CC2EE" stroke="white" stroke-width="0.00174282" stroke-miterlimit="10" stroke-linecap="square" stroke-linejoin="round"/>
<path opacity="0.8" d="M397.272 61.7747H541.664C541.803 61.7747 541.916 61.8886 541.916 62.0288V338.431C541.916 338.57 541.803 338.682 541.664 338.682H397.272C397.133 338.682 397.021 338.57 397.021 338.431V62.0288C397.021 61.8886 397.133 61.7747 397.272 61.7747Z" fill="#2B354E"/>
<path d="M397.295 61.7747H541.641C541.792 61.7747 541.916 61.8886 541.916 62.0288V85.5743C541.916 85.7153 541.792 85.8281 541.641 85.8281H397.295C397.141 85.8281 397.021 85.7153 397.021 85.5743V62.0288C397.021 61.8886 397.141 61.7747 397.295 61.7747Z" fill="#F2C94C"/>
<path d="M411.662 240.21H527.124C527.263 240.21 527.38 240.325 527.38 240.464V276.154C527.38 276.293 527.263 276.406 527.124 276.406H411.662C411.523 276.406 411.41 276.293 411.41 276.154V240.464C411.41 240.325 411.523 240.21 411.662 240.21Z" fill="#F2C94C"/>
<path d="M458.203 376.421C458.267 376.421 458.32 376.474 458.32 376.542V376.779C458.32 376.843 458.267 376.899 458.203 376.899C458.136 376.899 458.083 376.843 458.083 376.779V376.542C458.083 376.474 458.136 376.421 458.203 376.421Z" fill="#F2C94C"/>
<path opacity="0.7" d="M135.003 99.3752H371.55C376.183 99.3752 379.935 103.13 379.935 107.76V225.081C379.935 229.712 376.183 233.466 371.55 233.466H135.003C130.373 233.466 126.62 229.712 126.62 225.081V107.76C126.62 103.13 130.373 99.3752 135.003 99.3752Z" fill="#2B354E"/>
<path d="M131.151 83.9932H375.416C377.912 83.9932 379.935 85.5141 379.935 87.3884V105.999C379.935 107.873 377.912 109.394 375.416 109.394H131.151C128.654 109.394 126.632 107.873 126.632 105.999V87.3884C126.632 85.5141 128.654 83.9932 131.151 83.9932Z" fill="#717B94"/>
<path d="M158.377 118.36H355.394C355.657 118.36 355.871 118.572 355.871 118.837V139.158C355.871 139.423 355.657 139.636 355.394 139.636H158.377C158.114 139.636 157.9 139.423 157.9 139.158V118.837C157.9 118.572 158.114 118.36 158.377 118.36Z" fill="#F2C94C" stroke="white" stroke-width="0.00053" stroke-miterlimit="10" stroke-linecap="square" stroke-linejoin="round"/>
<path d="M296.277 152.598H350.855V204.712H296.277V152.598Z" fill="#2B354E" fill-opacity="0.788289" stroke="white" stroke-width="0.00053" stroke-miterlimit="10" stroke-linecap="square" stroke-linejoin="round"/>
<path d="M228.131 152.405H282.711V204.52H228.131V152.405Z" fill="#2B354E" fill-opacity="0.788289" stroke="white" stroke-width="0.00053" stroke-miterlimit="10" stroke-linecap="square" stroke-linejoin="round"/>
<path d="M161.603 153.002H216.183V205.116H161.603V153.002Z" fill="#2B354E" fill-opacity="0.788289" stroke="white" stroke-width="0.00053" stroke-miterlimit="10" stroke-linecap="square" stroke-linejoin="round"/>
<path d="M157.497 118.412H185.487V139.635H157.497V118.412Z" fill="#2B354E" fill-opacity="0.7883" stroke="white" stroke-width="0.00053" stroke-miterlimit="10" stroke-linecap="square" stroke-linejoin="round"/>
<path d="M429.766 129.632H510.133V222.647H429.766V129.632Z" fill="#717B94" stroke="white" stroke-width="0.00053" stroke-miterlimit="10" stroke-linecap="square" stroke-linejoin="round"/>
<path d="M502.646 124.509H516.273V139.923H502.646V124.509Z" fill="#F2C94C"/>
<path d="M422.949 212.444H436.579V227.858H422.949V212.444Z" fill="#F2C94C"/>
<path d="M503.319 213.743H516.949V229.155H503.319V213.743Z" fill="#F2C94C"/>
<path d="M422.949 124.834H436.579V140.246H422.949V124.834Z" fill="#F2C94C"/>
<path d="M202.467 39.5107H230.204C237.324 39.5107 243.096 45.2109 243.096 52.2425C243.096 59.2741 237.324 64.9742 230.204 64.9742H202.467C195.347 64.9742 189.576 59.2741 189.576 52.2425C189.576 45.2109 195.347 39.5107 202.467 39.5107Z" fill="#8CC2EE"/>
<path d="M203.072 40.1682C209.906 40.1682 215.446 45.5518 215.446 52.1923C215.446 58.8328 209.906 64.216 203.072 64.216C196.238 64.216 190.698 58.8328 190.698 52.1923C190.698 45.5518 196.238 40.1682 203.072 40.1682Z" fill="#717B94" stroke="white" stroke-width="0.00053" stroke-miterlimit="10" stroke-linecap="square" stroke-linejoin="round"/>
<path d="M423.972 299.142H426.943C431.571 299.142 435.327 302.895 435.327 307.527V310.689C435.327 315.322 431.571 319.074 426.943 319.074H423.972C419.34 319.074 415.587 315.322 415.587 310.689V307.527C415.587 302.895 419.34 299.142 423.972 299.142Z" fill="#717B94" stroke="white" stroke-width="0.00053" stroke-miterlimit="10" stroke-linecap="square" stroke-linejoin="round"/>
<path d="M506.128 298.86H509.099C513.731 298.86 517.483 302.617 517.483 307.245V310.411C517.483 315.04 513.731 318.792 509.099 318.792H506.128C501.5 318.792 497.743 315.04 497.743 310.411V307.245C497.743 302.617 501.5 298.86 506.128 298.86Z" fill="#717B94" stroke="white" stroke-width="0.00053" stroke-miterlimit="10" stroke-linecap="square" stroke-linejoin="round"/>
<path d="M477.214 298.954H480.184C484.816 298.954 488.569 302.711 488.569 307.339V310.501C488.569 315.134 484.816 318.886 480.184 318.886H477.214C472.585 318.886 468.829 315.134 468.829 310.501V307.339C468.829 302.711 472.585 298.954 477.214 298.954Z" fill="#717B94" stroke="white" stroke-width="0.00053" stroke-miterlimit="10" stroke-linecap="square" stroke-linejoin="round"/>
<path d="M449.796 299.424H452.77C457.399 299.424 461.151 303.177 461.151 307.805V310.971C461.151 315.6 457.399 319.356 452.77 319.356H449.796C445.167 319.356 441.415 315.6 441.415 310.971V307.805C441.415 303.177 445.167 299.424 449.796 299.424Z" fill="#717B94" stroke="white" stroke-width="0.00053" stroke-miterlimit="10" stroke-linecap="square" stroke-linejoin="round"/>
<path d="M111.818 52.8291H169.507V123.325H111.818V52.8291Z" fill="#8CC2EE" fill-opacity="0.790086" stroke="white" stroke-width="0.00177" stroke-miterlimit="10" stroke-linecap="square" stroke-linejoin="round"/>
<path d="M423.228 252.862C422.581 250.277 425.957 247.403 428.007 246.433C429.15 245.891 430.454 245.393 431.143 246.762C432.105 248.692 430.642 251.858 429.492 253.357C429.251 253.669 427.774 255.101 427.183 254.509C426.198 253.524 429.266 251.379 429.657 251.048C432.639 248.538 435.688 246.021 439.877 246.267C443.193 246.463 441.513 250.507 440.539 252.037C440.306 252.4 440.099 253.218 439.712 253.026C438.572 252.456 441.599 249.422 442.02 249.07C445.062 246.534 450.717 244.953 452.736 249.399C453.533 251.151 451.014 252.655 450.428 251.871C449.33 250.409 451.571 248.642 452.571 248.081C455.41 246.491 459.181 245.446 462.463 245.938C464.261 246.207 467.299 247.869 466.75 250.059C466.471 251.178 465.355 252.088 464.441 252.697C464.118 252.911 463.212 253.242 463.287 252.862C463.433 252.137 464.204 251.689 464.772 251.213C465.404 250.681 466.047 250.157 466.75 249.728C470.442 247.487 475.353 246.002 479.609 247.422C481.011 247.888 481.752 248.335 482.741 249.399C483.061 249.745 483.38 250.119 483.564 250.554C484.914 253.701 478.158 254.385 478.62 252.531C479.105 250.587 481.613 249.13 483.234 248.41C486.715 246.863 492.671 245.06 496.093 247.751C498.559 249.689 496.916 252.913 494.28 253.52C493.765 253.639 492.039 253.936 492.468 252.862C494.262 248.373 502.421 246.436 506.151 249.234C506.41 249.429 507.467 250.55 507.632 250.883C507.862 251.336 507.606 252.009 507.963 252.366C508.05 252.454 508.189 252.264 508.294 252.202C509.012 251.77 509.681 251.251 510.437 250.883C511.832 250.204 513.231 249.49 514.724 249.07C517.671 248.239 520.728 247.585 523.789 247.585" stroke="white" stroke-width="0.00053" stroke-miterlimit="10" stroke-linecap="square" stroke-linejoin="round"/>
<path d="M428.134 264.93C427.469 264.494 429.116 262.693 429.45 262.354C431.567 260.238 437.918 257.752 438.677 262.7C439.05 265.122 438.384 267.13 436.831 268.528C436.35 268.965 435.192 269.799 435.117 269.044C434.902 266.776 437.279 264.554 438.546 263.727C441.306 261.933 444.814 260.963 447.901 261.497C448.495 261.602 449.074 261.851 449.615 262.185C451.95 263.633 450.83 266.607 449.089 267.844C448.784 268.058 447.69 268.683 447.506 267.844C447.145 266.19 449.352 264.896 450.142 264.415C450.912 263.949 451.702 263.539 452.514 263.212C456.402 261.659 460.121 261.136 463.715 263.9C464.163 264.242 465.061 264.945 465.43 265.614C466.298 267.194 460.925 267.4 461.343 266.13C461.67 265.137 462.689 264.832 463.452 264.415C464.272 263.967 465.106 263.558 465.956 263.212C466.953 262.813 467.953 262.373 468.987 262.185C471.171 261.787 477.026 263.712 477.556 267.502C477.83 269.468 473.796 269.743 474.258 267.329C474.653 265.28 477.744 264.419 478.872 264.073C481.884 263.144 486.068 262.418 488.625 265.272C488.817 265.487 490.265 267.167 489.678 267.844C488.855 268.799 487.287 269.119 486.253 269.386C485.903 269.476 485.159 269.675 485.196 269.216C485.264 268.457 486.268 266.637 486.516 266.299C488.7 263.306 492.239 261.839 495.344 261.67C496.209 261.625 497.236 262.042 497.98 262.527C498.555 262.903 500.146 264.046 499.958 265.272C499.792 266.348 497.499 267.731 497.322 267.156C496.965 266.002 499.307 265.152 499.695 264.93C500.575 264.415 501.417 263.783 502.33 263.385C506.256 261.681 509.335 261.038 513.4 259.956" stroke="white" stroke-width="0.00053" stroke-miterlimit="10" stroke-linecap="square" stroke-linejoin="round"/>
<path d="M456.413 161.524C456.413 154.266 462.568 148.381 470.156 148.381C477.748 148.381 483.899 154.266 483.899 161.524C483.899 168.783 477.748 174.668 470.156 174.668C462.568 174.668 456.413 168.783 456.413 161.524Z" fill="#F2C94C" stroke="white" stroke-width="0.00053" stroke-miterlimit="10" stroke-linecap="square" stroke-linejoin="round"/>
<path d="M443.727 207.507C443.727 207.507 444.859 180.484 470.502 180.561C496.145 180.638 496.42 207.507 496.42 207.507H443.727Z" fill="#F2C94C" stroke="white" stroke-width="0.00053" stroke-miterlimit="10" stroke-linecap="square" stroke-linejoin="round"/>
<path d="M369.016 28.186H385.932C390.271 28.186 393.791 31.1602 393.791 34.8292V54.5056C393.791 58.1747 390.271 61.1488 385.932 61.1488H369.016C364.673 61.1488 361.154 58.1747 361.154 54.5056V34.8292C361.154 31.1602 364.673 28.186 369.016 28.186Z" fill="#F2C94C"/>
<path d="M281.276 62.4115C281.276 59.7941 283.455 57.6724 286.144 57.6724C288.83 57.6724 291.009 59.7941 291.009 62.4115C291.009 65.0284 288.83 67.1502 286.144 67.1502C283.455 67.1502 281.276 65.0284 281.276 62.4115Z" fill="#F2C94C" stroke="#717B94" stroke-width="0.00053" stroke-miterlimit="10" stroke-linecap="square" stroke-linejoin="round"/>
<path d="M281.276 62.4115C281.276 59.7941 283.455 57.6724 286.144 57.6724C288.83 57.6724 291.009 59.7941 291.009 62.4115C291.009 65.0284 288.83 67.1502 286.144 67.1502C283.455 67.1502 281.276 65.0284 281.276 62.4115Z" fill="#F2C94C" stroke="#717B94" stroke-width="0.00053" stroke-miterlimit="10" stroke-linecap="square" stroke-linejoin="round"/>
<path d="M322.178 62.1571C322.178 59.5397 324.359 57.418 327.047 57.418C329.732 57.418 331.912 59.5397 331.912 62.1571C331.912 64.7744 329.732 66.8962 327.047 66.8962C324.359 66.8962 322.178 64.7744 322.178 62.1571Z" fill="#F2C94C" stroke="#717B94" stroke-width="0.00053" stroke-miterlimit="10" stroke-linecap="square" stroke-linejoin="round"/>
<path d="M308.756 62.475C308.756 59.8576 310.935 57.7358 313.624 57.7358C316.312 57.7358 318.489 59.8576 318.489 62.475C318.489 65.0923 316.312 67.2141 313.624 67.2141C310.935 67.2141 308.756 65.0923 308.756 62.475Z" fill="#F2C94C" stroke="#717B94" stroke-width="0.00053" stroke-miterlimit="10" stroke-linecap="square" stroke-linejoin="round"/>
<path d="M295.207 62.5387C295.207 59.9213 297.386 57.7996 300.075 57.7996C302.761 57.7996 304.94 59.9213 304.94 62.5387C304.94 65.156 302.761 67.2778 300.075 67.2778C297.386 67.2778 295.207 65.156 295.207 62.5387Z" fill="#F2C94C" stroke="#717B94" stroke-width="0.00053" stroke-miterlimit="10" stroke-linecap="square" stroke-linejoin="round"/>
<path d="M48.8225 150.342C48.8225 147.829 50.9202 145.792 53.5075 145.792C56.0951 145.792 58.1924 147.829 58.1924 150.342C58.1924 152.854 56.0951 154.89 53.5075 154.89C50.9202 154.89 48.8225 152.854 48.8225 150.342Z" fill="#F2C94C" stroke="#717B94" stroke-width="0.00053" stroke-miterlimit="10" stroke-linecap="square" stroke-linejoin="round"/>
<path d="M80.4163 150.039C80.4163 147.528 82.5136 145.49 85.1012 145.49C87.6885 145.49 89.7862 147.528 89.7862 150.039C89.7862 152.551 87.6885 154.589 85.1012 154.589C82.5136 154.589 80.4163 152.551 80.4163 150.039Z" fill="#F2C94C" stroke="#717B94" stroke-width="0.00053" stroke-miterlimit="10" stroke-linecap="square" stroke-linejoin="round"/>
<path d="M64.7197 150.241C64.7197 147.729 66.817 145.691 69.4047 145.691C71.9919 145.691 74.0896 147.729 74.0896 150.241C74.0896 152.754 71.9919 154.79 69.4047 154.79C66.817 154.79 64.7197 152.754 64.7197 150.241Z" fill="#F2C94C" stroke="#717B94" stroke-width="0.00053" stroke-miterlimit="10" stroke-linecap="square" stroke-linejoin="round"/>
<path d="M170.488 127.068C170.488 124.712 172.434 122.802 174.833 122.802C177.232 122.802 179.177 124.712 179.177 127.068C179.177 129.422 177.232 131.332 174.833 131.332C172.434 131.332 170.488 129.422 170.488 127.068Z" fill="#F2C94C" stroke="white" stroke-width="0.00053" stroke-miterlimit="10" stroke-linecap="square" stroke-linejoin="round"/>
<path d="M165.679 134.003L171.554 129.863" stroke="white" stroke-width="0.00053" stroke-miterlimit="10" stroke-linecap="square" stroke-linejoin="round"/>
<path d="M206.225 167.236C205.191 169.386 194.704 191.206 194.704 191.206L189.506 162.62L184.255 194.075L173.265 173.177L168.662 194.562" stroke="white" stroke-width="0.00053" stroke-miterlimit="10" stroke-linecap="square" stroke-linejoin="round"/>
<path d="M206.075 167.55L206.879 169.097L206.83 165.978L204.364 167.888L206.075 167.55Z" fill="white"/>
<path d="M270.965 163.126C267.682 163.126 239.883 163.126 239.883 163.126" stroke="white" stroke-width="0.00053" stroke-miterlimit="10" stroke-linecap="square" stroke-linejoin="round"/>
<path d="M240.078 162.051L237.687 162.06L237.696 164.452L240.088 164.442L240.078 162.051Z" fill="white"/>
<path d="M270.771 164.322L273.162 164.312L273.153 161.921L270.762 161.93L270.771 164.322Z" fill="white"/>
<path d="M271.083 176.45C267.823 176.45 240.294 176.45 240.294 176.45" stroke="white" stroke-width="0.00053" stroke-miterlimit="10" stroke-linecap="square" stroke-linejoin="round"/>
<path d="M240.494 175.254H238.102V177.645H240.494V175.254Z" fill="white"/>
<path d="M270.884 177.645H273.275V175.254H270.884V177.645Z" fill="white"/>
<path d="M271.107 169.494C267.817 169.494 239.945 169.494 239.945 169.494" stroke="white" stroke-width="0.00053" stroke-miterlimit="10" stroke-linecap="square" stroke-linejoin="round"/>
<path d="M240.14 168.377L237.749 168.383L237.754 170.774L240.146 170.768L240.14 168.377Z" fill="white"/>
<path d="M270.91 170.689L273.301 170.684L273.296 168.292L270.904 168.298L270.91 170.689Z" fill="white"/>
<path d="M306.025 159.582L307.157 161.87L309.683 162.237L307.856 164.019L308.288 166.536L306.029 165.348L303.769 166.538L304.199 164.021L302.37 162.241L304.897 161.872L306.025 159.582Z" fill="#2B354E" fill-opacity="0.788289" stroke="white" stroke-width="0.00053" stroke-miterlimit="10" stroke-linecap="square" stroke-linejoin="round"/>
<path d="M306.147 170.994L307.279 173.282L309.805 173.648L307.978 175.431L308.41 177.948L306.151 176.76L303.891 177.95L304.321 175.433L302.492 173.652L305.019 173.284L306.147 170.994Z" fill="#2B354E" fill-opacity="0.788289" stroke="white" stroke-width="0.00053" stroke-miterlimit="10" stroke-linecap="square" stroke-linejoin="round"/>
<path d="M325.25 159.46L326.378 161.748L328.904 162.115L327.077 163.897L327.513 166.414L325.25 165.226L322.99 166.416L323.422 163.899L321.595 162.119L324.118 161.75L325.25 159.46Z" fill="#2B354E" fill-opacity="0.788289" stroke="white" stroke-width="0.00053" stroke-miterlimit="10" stroke-linecap="square" stroke-linejoin="round"/>
<path d="M315.562 159.456L316.692 161.746L319.219 162.113L317.391 163.895L317.827 166.41L315.566 165.224L313.306 166.412L313.736 163.897L311.907 162.115L314.434 161.746L315.562 159.456Z" fill="#2B354E" fill-opacity="0.788289" stroke="white" stroke-width="0.00053" stroke-miterlimit="10" stroke-linecap="square" stroke-linejoin="round"/>
<path d="M335.319 170.75L336.447 173.037L338.974 173.404L337.146 175.186L337.579 177.704L335.319 176.515L333.059 177.706L333.492 175.188L331.66 173.408L334.187 173.039L335.319 170.75Z" fill="#2B354E" fill-opacity="0.788289" stroke="white" stroke-width="0.00053" stroke-miterlimit="10" stroke-linecap="square" stroke-linejoin="round"/>
<path d="M325.494 170.81L326.622 173.099L329.149 173.466L327.321 175.248L327.754 177.764L325.494 176.577L323.234 177.766L323.667 175.25L321.835 173.468L324.362 173.099L325.494 170.81Z" fill="#2B354E" fill-opacity="0.788289" stroke="white" stroke-width="0.00053" stroke-miterlimit="10" stroke-linecap="square" stroke-linejoin="round"/>
<path d="M315.789 170.994L316.921 173.282L319.448 173.648L317.621 175.431L318.053 177.948L315.791 176.76L313.533 177.95L313.964 175.433L312.135 173.652L314.661 173.284L315.789 170.994Z" fill="#2B354E" fill-opacity="0.788289" stroke="white" stroke-width="0.00053" stroke-miterlimit="10" stroke-linecap="square" stroke-linejoin="round"/>
<path d="M366.786 34.6672L388.827 54.708" stroke="white" stroke-width="0.00177" stroke-miterlimit="10" stroke-linecap="round" stroke-linejoin="round"/>
<path d="M388.154 34.5571L366.621 55.7583" stroke="white" stroke-width="0.00177" stroke-miterlimit="10" stroke-linecap="round" stroke-linejoin="round"/>
<path d="M515.137 94.4421L527.173 107.183" stroke="white" stroke-width="0.00177" stroke-miterlimit="10" stroke-linecap="round" stroke-linejoin="round"/>
<path d="M514.366 118.023L527.101 107.394" stroke="white" stroke-width="0.00177" stroke-miterlimit="10" stroke-linecap="round" stroke-linejoin="round"/>
<path d="M111.992 52.8291L169.507 123.133" stroke="white" stroke-width="0.00177" stroke-miterlimit="10" stroke-linecap="square" stroke-linejoin="round"/>
<path d="M169.057 52.8291L112.152 123.325" stroke="white" stroke-width="0.00177" stroke-miterlimit="10" stroke-linecap="square" stroke-linejoin="round"/>
<path opacity="0.9" d="M72.3597 188.925H406.857V392.101H72.3597V188.925Z" fill="#2B354E"/>
<path d="M99.2081 211.025H136.095C140.726 211.025 144.478 214.777 144.478 219.408V256.297C144.478 260.926 140.726 264.678 136.095 264.678H99.2081C94.5777 264.678 90.8241 260.926 90.8241 256.297V219.408C90.8241 214.777 94.5777 211.025 99.2081 211.025Z" fill="#2B354E" fill-opacity="0.7883" stroke="white" stroke-width="0.00174282" stroke-miterlimit="10" stroke-linecap="square" stroke-linejoin="round"/>
<path d="M94.5984 341.608H199.692V366.788H94.5984V341.608Z" fill="#F2C94C"/>
<path d="M160.368 233.466C160.368 219.725 172.005 208.586 186.361 208.586C200.716 208.586 212.354 219.725 212.354 233.466C212.354 247.207 200.716 258.346 186.361 258.346C172.005 258.346 160.368 247.207 160.368 233.466Z" fill="#F2C94C" stroke="white" stroke-width="0.00174282" stroke-miterlimit="10" stroke-linecap="square" stroke-linejoin="round"/>
<path d="M226.837 233.466C226.837 219.725 238.474 208.586 252.83 208.586C267.186 208.586 278.823 219.725 278.823 233.466C278.823 247.207 267.186 258.346 252.83 258.346C238.474 258.346 226.837 247.207 226.837 233.466Z" fill="#F2C94C" stroke="white" stroke-width="0.00174282" stroke-miterlimit="10" stroke-linecap="square" stroke-linejoin="round"/>
<path d="M301.259 210.976H385.425C387.305 210.976 388.827 212.497 388.827 214.375C388.827 216.253 387.305 217.776 385.425 217.776H301.259C299.381 217.776 297.86 216.253 297.86 214.375C297.86 212.497 299.381 210.976 301.259 210.976Z" fill="#F2C94C" stroke="white" stroke-width="0.00174282" stroke-miterlimit="10" stroke-linecap="square" stroke-linejoin="round"/>
<path d="M301.511 223.128H385.195C387.072 223.128 388.591 224.768 388.591 226.789C388.591 228.81 387.072 230.449 385.195 230.449H301.511C299.635 230.449 298.112 228.81 298.112 226.789C298.112 224.768 299.635 223.128 301.511 223.128Z" fill="#F2C94C" stroke="white" stroke-width="0.00174282" stroke-miterlimit="10" stroke-linecap="square" stroke-linejoin="round"/>
<path d="M302.079 237.653H385.21C386.985 237.653 388.425 239.061 388.425 240.798C388.425 242.537 386.985 243.945 385.21 243.945H302.079C300.304 243.945 298.866 242.537 298.866 240.798C298.866 239.061 300.304 237.653 302.079 237.653Z" fill="#2B354E" fill-opacity="0.7883" stroke="white" stroke-width="0.00174282" stroke-miterlimit="10" stroke-linecap="square" stroke-linejoin="round"/>
<path d="M169.035 233.466C169.035 224.034 176.929 216.388 186.667 216.388C196.404 216.388 204.298 224.034 204.298 233.466C204.298 242.898 196.404 250.544 186.667 250.544C176.929 250.544 169.035 242.898 169.035 233.466Z" fill="#2B354E" fill-opacity="0.7883" stroke="white" stroke-width="0.00174282" stroke-miterlimit="10" stroke-linecap="square" stroke-linejoin="round"/>
<path d="M235.485 233.466C235.485 224.034 243.377 216.388 253.116 216.388C262.854 216.388 270.748 224.034 270.748 233.466C270.748 242.898 262.854 250.544 253.116 250.544C243.377 250.544 235.485 242.898 235.485 233.466Z" fill="#2B354E" fill-opacity="0.7883" stroke="white" stroke-width="0.00174282" stroke-miterlimit="10" stroke-linecap="square" stroke-linejoin="round"/>
<path d="M161.449 237.631C159.219 238.747 168.875 234.231 168.875 236.724C168.875 238.129 161.532 241.298 162.842 242.936C163.778 244.105 170.283 239.792 170.462 240.862C170.497 241.075 164.419 247.262 164.906 247.324C165.922 247.45 172.701 243.925 172.785 244.603C173.007 246.38 168.394 249.719 169.441 251.291C170.383 252.702 176.333 246.235 176.923 248.002C177.164 248.726 173.663 254.87 174.429 255.088C176.293 255.62 179.234 248.743 180.437 249.704C181.409 250.48 177.999 256.278 179.869 256.902C180.992 257.275 182.793 250.3 184.573 250.894C186.034 251.381 184.186 256.071 185.425 256.846C187.359 258.053 187.542 250.477 188.882 250.666C190.19 250.854 190.189 257.042 192.339 256.504C194.185 256.045 191.856 249.76 192.792 249.76C193.687 249.76 195.359 256.519 197.836 255.032C199.899 253.793 193.633 248.644 195.966 248.061C198.378 247.457 201.166 253.733 202.102 253.265C203.036 252.796 197.242 247.175 199.707 246.19C200.013 246.068 204.627 250.924 204.92 250.044C205.873 247.187 201.427 245.352 201.427 243.248C201.427 242.746 208.398 246.173 208.955 245.062C210.406 242.159 203.07 241.253 203.505 239.956C203.907 238.749 212.096 239.556 212.096 236.974C212.096 236.001 205.42 236.48 204.471 236.48C203.035 236.48 206.648 235.442 207.868 234.685C209.549 233.641 210.908 232.741 211.794 230.844C212.886 228.503 204.807 231.227 204.807 231.227C204.807 231.227 211.423 226.629 211.026 225.598C210.476 224.168 203.881 229.573 203.181 227.473C202.739 226.149 209.141 224.239 208.945 222.669C208.635 220.192 202.488 225.67 201.668 224.489C200.931 223.427 207.791 221.816 207.302 219.609C207.114 218.768 200.711 220.883 199.748 221.365" stroke="white" stroke-width="0.00144813" stroke-miterlimit="10" stroke-linecap="square" stroke-linejoin="round"/>
<path d="M245.526 210.201C246.205 211.066 247.211 211.615 247.807 212.568C247.843 212.623 248.734 214.078 248.446 214.097C247.416 214.163 245.094 212.068 244.291 211.594C243.861 211.341 242.795 210.444 242.955 210.918C243.02 211.113 248.476 216.563 247.718 216.674C246.528 216.851 240.15 212.649 239.689 213.382C239.328 213.956 245.167 217.332 244.757 218.581C244.716 218.705 242.742 217.633 242.682 217.601C241.063 216.734 239.187 215.858 237.358 215.556C237.204 215.529 236.939 215.373 236.89 215.522C236.831 215.699 240.529 217.872 240.973 218.238C241.439 218.626 242.716 219.475 242.133 219.637C240.518 220.086 236.185 215.853 233.673 216.704C233.581 216.734 233.568 217.494 233.568 217.494C233.568 217.494 240.315 220.976 240.054 221.773C240.018 221.884 237.1 220.861 236.952 220.816C235.606 220.406 232.667 219.239 231.31 219.925C230.808 220.179 232.252 220.553 232.772 220.765C233.231 220.951 233.684 221.151 234.145 221.335C234.562 221.5 238.967 222.897 238.713 223.672C238.61 223.986 238.042 223.672 237.721 223.585C236.905 223.369 231.043 221.429 230.924 222.196C230.832 222.799 237.715 224.138 237.234 225.112C236.846 225.894 229.973 223.376 229.334 224.672C229.227 224.89 229.505 224.978 229.623 225.067C230.994 226.084 235.299 226.446 235.871 228.133C236.021 228.577 235.066 228.627 234.991 228.624C233.579 228.577 228.185 226.655 227.492 227.68C227.211 228.091 227.354 228.577 227.445 228.607C228.157 228.842 235.634 230.522 235.686 230.872C235.779 231.498 227.762 229.673 227.104 230.56C226.629 231.201 227.826 231.297 228.61 231.447C229.176 231.554 229.74 231.656 230.306 231.763C230.889 231.872 231.473 231.97 232.054 232.096C232.778 232.254 234.929 232.335 235.497 232.812C235.818 233.081 233.447 233.085 233.032 233.136C232.584 233.19 232.131 233.192 231.682 233.233C229.738 233.408 228.866 232.703 226.995 233.269C226.822 233.322 226.206 233.983 227.922 234.279C229.62 234.568 234.098 234.322 235.579 235.254C235.749 235.361 233.712 235.739 233.53 235.816C231.769 236.567 229.473 235.76 227.663 236.531C227.296 236.687 229.17 237.035 229.99 237.114C231.697 237.279 234.431 236.971 235.955 237.931C236.012 237.967 236.03 238.063 236.01 238.129C235.607 239.353 229.266 238.697 228.15 240.345C227.93 240.672 228.292 240.774 228.531 240.83C231.077 241.426 233.852 241.223 236.44 241.387C236.596 241.396 236.775 241.336 236.908 241.421C237.442 241.757 235.777 242.005 235.166 242.167C234.825 242.257 228.875 243.547 230.422 244.568C231.968 245.587 234.865 244.431 236.399 244.07C237.113 243.902 237.694 243.803 238.414 243.773C238.649 243.761 239.191 243.6 239.117 243.823C238.864 244.594 233.667 246.869 232.803 248.824C232.515 249.475 234.203 248.527 234.852 248.238C236.134 247.666 237.213 246.922 238.553 246.455C239.275 246.203 240.84 245.038 240.747 245.795C240.614 246.903 237.211 248.943 236.517 249.922C236.363 250.14 235.989 250.52 236.215 250.663C237.647 251.563 240.621 246.976 242.035 247.717C242.255 247.831 241.909 248.211 241.751 248.403C241.471 248.741 238.102 253.5 238.822 253.496C240.413 253.488 247.559 244.878 243.908 250.967C243.667 251.366 243.411 251.757 243.21 252.178C242.964 252.693 242.768 253.229 242.569 253.765C242.336 254.398 241.813 255.169 241.785 255.899C241.763 256.47 242.584 255.692 242.973 255.276C243.184 255.053 243.376 254.812 243.564 254.571C243.953 254.075 248.102 249.268 248.331 249.721C248.564 250.183 247.482 252.996 247.359 253.417C247.19 254.002 246.98 254.571 246.792 255.15C246.508 256.011 245.233 257.489 246.107 257.245C248.548 256.568 249.854 253.855 250.738 251.889C250.911 251.501 250.922 250.717 251.343 250.768C251.507 250.789 251.21 257.504 251.272 258.117C251.279 258.188 251.005 258.121 251.264 257.925C252.691 256.857 253.62 254.246 254.127 252.701C254.317 252.124 254.475 251.535 254.695 250.969C254.757 250.806 254.855 250.379 254.962 250.516C255.594 251.321 254.985 255.852 255.065 256.963C255.086 257.226 254.97 257.718 255.233 257.737C256.84 257.854 257.323 252.165 257.47 251.279C257.564 250.71 257.278 249.501 257.538 250.016C257.966 250.862 258.111 251.64 258.376 252.535C258.666 253.515 258.929 254.505 259.273 255.466C259.957 257.376 261.134 255.649 261.412 254.43C261.585 253.661 260.888 249.324 261.726 248.899C262.288 248.615 261.941 250.138 262.078 250.753C262.179 251.204 262.341 251.642 262.48 252.082C262.589 252.426 264.911 257.106 265.622 254.994C265.919 254.114 264.783 251.343 264.417 250.02C264.247 249.411 263.49 247.741 263.939 248.185C264.144 248.388 267.981 255.524 268.526 253.297C268.902 251.761 263.928 247.113 264.184 246.707C264.356 246.433 264.8 246.933 265.067 247.117C265.975 247.745 269.833 251.9 271.192 251.074C272.157 250.49 266.862 246.658 266.56 246.408C266.368 246.25 265.885 245.976 266.088 245.833C266.59 245.483 271.519 248.403 272.44 248.395C273.63 248.386 267.761 244.848 267.25 244.117C267.077 243.868 267.823 244.327 268.1 244.455C268.711 244.743 269.825 245.224 270.408 245.453C271.226 245.771 273.536 247.027 274.486 246.73C274.702 246.662 269.378 243.229 269.117 242.812C268.795 242.297 270.354 242.755 270.936 242.928C271.181 243 275.093 244.008 274.866 243.558C274.302 242.442 272.228 241.819 271.217 241.342C270.651 241.075 269.034 240.543 269.628 240.342C271.546 239.691 274.939 243.244 276.733 242.071C277.06 241.857 276.259 241.43 275.935 241.212C274.616 240.317 273.172 239.71 271.728 239.052C271.39 238.898 270.427 238.535 270.788 238.445C272.053 238.133 274.298 239.178 275.567 239.411C276.078 239.507 277.402 240.056 277.116 239.62C276.259 238.309 272.828 237.567 271.465 236.749C271.247 236.617 270.694 236.326 270.921 236.211C271.705 235.815 277.248 237.939 277.5 237.17C277.941 235.824 272.175 234.702 271.991 234.044C271.933 233.831 273.662 234.177 273.685 234.181C274.473 234.311 276.648 234.923 277.36 234.307C278.252 233.534 271.722 232.697 271.044 232.462C270.756 232.363 273.264 232.306 275.01 232.517C275.208 232.54 276.144 232.594 276.362 232.6C276.928 232.615 277.464 232.566 278.018 232.483" stroke="white" stroke-width="0.00150482" stroke-miterlimit="10" stroke-linecap="square" stroke-linejoin="round"/>
<path d="M193.15 227.668C192.578 228.862 187.444 239.575 187.444 239.575L178.202 231.404L176.171 240.81" stroke="white" stroke-width="0.00174282" stroke-miterlimit="10" stroke-linecap="square" stroke-linejoin="round"/>
<path d="M192.653 228.704L195.304 233.788L195.133 223.532L187.03 229.823L192.653 228.704Z" fill="white"/>
<path d="M242.823 240.648L263.516 224.582L242.823 240.648Z" fill="#2B354E" fill-opacity="0.7883"/>
<path d="M259.891 227.398C258.002 228.862 242.823 240.648 242.823 240.648" stroke="white" stroke-width="0.00174282" stroke-miterlimit="10" stroke-linecap="square" stroke-linejoin="round"/>
<path d="M258.985 228.101L259.081 233.833L263.514 224.583L253.454 226.585L258.985 228.101Z" fill="white"/>
<path d="M96.365 229.364H138.881" stroke="white" stroke-width="0.00053" stroke-miterlimit="10" stroke-linecap="square" stroke-linejoin="round"/>
<path d="M90.5745 220.556H144.23" stroke="white" stroke-width="0.00053" stroke-miterlimit="10" stroke-linecap="square" stroke-linejoin="round"/>
<path d="M101.053 225.501V252.513" stroke="white" stroke-width="0.00053" stroke-miterlimit="10" stroke-linecap="square" stroke-linejoin="round"/>
<path d="M107.203 225.552L107.203 252.257" stroke="white" stroke-width="0.00053" stroke-miterlimit="10" stroke-linecap="square" stroke-linejoin="round"/>
<path d="M114.02 225.243V252.462" stroke="white" stroke-width="0.00053" stroke-miterlimit="10" stroke-linecap="square" stroke-linejoin="round"/>
<path d="M120.735 225.241L120.52 252.012" stroke="white" stroke-width="0.00053" stroke-miterlimit="10" stroke-linecap="square" stroke-linejoin="round"/>
<path d="M127.723 225.279L127.321 252.734" stroke="white" stroke-width="0.00053" stroke-miterlimit="10" stroke-linecap="square" stroke-linejoin="round"/>
<path d="M134.255 225.08L134.018 252.616" stroke="white" stroke-width="0.00053" stroke-miterlimit="10" stroke-linecap="square" stroke-linejoin="round"/>
<path d="M97.4602 234.342L137.351 234.538" stroke="white" stroke-width="0.00053" stroke-miterlimit="10" stroke-linecap="square" stroke-linejoin="round"/>
<path d="M97.5391 239.383L137.116 239.657" stroke="white" stroke-width="0.00053" stroke-miterlimit="10" stroke-linecap="square" stroke-linejoin="round"/>
<path d="M97.2975 244.084L136.8 244.526" stroke="white" stroke-width="0.00053" stroke-miterlimit="10" stroke-linecap="square" stroke-linejoin="round"/>
<path d="M114.136 235.79C114.121 235.818 114.039 235.867 114.047 235.833C114.093 235.647 114.783 235.247 114.894 235.143C115.065 234.984 116.366 233.825 116.568 234.027C116.646 234.106 115.838 235.235 115.787 235.299C115.167 236.051 114.729 236.875 114.159 237.662C114.137 237.693 113.552 238.539 113.936 238.488C114.6 238.399 115.091 237.713 115.519 237.262C116.278 236.461 117.071 235.662 117.928 234.965C118.258 234.696 118.665 234.31 119.088 234.183C119.131 234.171 119.202 234.143 119.222 234.183C119.305 234.35 118.418 235.218 118.285 235.365C117.365 236.382 116.548 237.424 115.809 238.578C115.78 238.623 114.949 239.606 115.252 239.693C115.603 239.793 116.759 238.409 116.969 238.176C117.812 237.236 118.632 236.294 119.579 235.455C119.822 235.239 120.206 234.85 120.582 234.897C120.667 234.908 120.612 235.062 120.605 235.076C120.366 235.482 119.929 235.863 119.623 236.213C118.786 237.17 117.851 238.061 117.103 239.091C117.051 239.161 116.466 239.806 116.724 239.96C117.099 240.185 117.57 239.535 117.772 239.358C118.425 238.781 119.125 238.236 119.802 237.685C119.808 237.679 120.379 237.17 120.493 237.285C120.616 237.407 120.307 237.706 120.27 237.753C119.913 238.204 119.624 238.712 119.266 239.157C119.232 239.2 118.766 239.674 118.909 239.781C119.063 239.896 119.93 239.099 120.069 239.001C120.255 238.869 121.34 238.533 120.805 238.8" fill="#2B354E" fill-opacity="0.7883"/>
<path d="M114.136 235.79C114.121 235.818 114.039 235.867 114.047 235.833C114.093 235.647 114.783 235.247 114.894 235.143C115.065 234.984 116.366 233.825 116.568 234.027C116.646 234.106 115.838 235.235 115.787 235.299C115.167 236.051 114.729 236.875 114.159 237.662C114.137 237.693 113.552 238.539 113.936 238.488C114.6 238.399 115.091 237.713 115.519 237.262C116.278 236.461 117.071 235.662 117.928 234.965C118.258 234.696 118.665 234.31 119.088 234.183C119.131 234.171 119.202 234.143 119.222 234.183C119.305 234.35 118.418 235.218 118.285 235.365C117.365 236.382 116.548 237.424 115.809 238.578C115.78 238.623 114.949 239.606 115.252 239.693C115.603 239.793 116.759 238.409 116.969 238.176C117.812 237.236 118.632 236.294 119.579 235.455C119.822 235.239 120.206 234.85 120.582 234.897C120.667 234.908 120.612 235.062 120.605 235.076C120.366 235.482 119.929 235.863 119.623 236.213C118.786 237.17 117.851 238.061 117.103 239.091C117.051 239.161 116.466 239.806 116.724 239.96C117.099 240.185 117.57 239.535 117.772 239.358C118.425 238.781 119.125 238.236 119.802 237.685C119.808 237.679 120.379 237.17 120.493 237.285C120.616 237.407 120.307 237.706 120.27 237.753C119.913 238.204 119.624 238.712 119.266 239.157C119.232 239.2 118.766 239.674 118.909 239.781C119.063 239.896 119.93 239.099 120.069 239.001C120.255 238.869 121.34 238.533 120.805 238.8" stroke="white" stroke-width="0.000475" stroke-miterlimit="10" stroke-linecap="square" stroke-linejoin="round"/>
<path d="M131.972 229.144C131.36 228.285 130.294 228.761 129.668 229.419C128.331 230.821 126.991 234.651 129.511 235.672C131.606 236.519 133.922 234.089 133.732 232.036C133.565 230.235 131.495 230.97 130.606 231.763C130.121 232.194 129.684 232.707 129.393 233.288" stroke="white" stroke-width="0.000475" stroke-miterlimit="10" stroke-linecap="square" stroke-linejoin="round"/>
<path d="M101.412 240.204C101.166 240.45 103.562 239.283 103.796 239.305C103.93 239.317 103.695 239.561 103.601 239.657C103.345 239.913 103.024 240.095 102.741 240.321C102.458 240.548 100.971 241.759 101.178 242.276C101.263 242.488 101.886 242.048 102.311 241.806C103.447 241.157 104.56 240.377 105.789 239.93C105.991 239.856 106.263 239.621 106.415 239.774C106.486 239.847 105.972 240.296 105.516 240.672C104.249 241.716 102.822 242.539 101.568 243.603C101.456 243.699 101.209 243.776 101.256 243.917C101.315 244.096 101.552 243.887 102.272 243.447C102.531 243.289 102.793 243.133 103.054 242.979C103.819 242.522 106.673 240.507 107.509 240.672C107.775 240.727 107.075 240.999 106.844 241.142C106.595 241.296 106.347 241.452 106.102 241.61C105.705 241.868 103.171 243.513 103.171 243.838C103.171 244.056 103.612 243.761 103.796 243.643C103.964 243.536 104.133 243.432 104.304 243.331C105.085 242.87 105.895 242.323 106.727 241.962C106.896 241.889 107.31 241.704 107.274 241.885C107.162 242.447 104.666 243.564 104.539 244.073C104.506 244.203 104.813 244.163 105.398 243.917C105.855 243.724 106.623 243.056 107.118 243.056C107.223 243.056 107.036 243.255 106.962 243.331C106.827 243.464 105.894 244.148 106.375 243.957" stroke="white" stroke-width="0.000475" stroke-miterlimit="10" stroke-linecap="square" stroke-linejoin="round"/>
<path d="M121.07 245.794C121.237 245.626 123.741 243.774 124.04 244.073C124.228 244.261 123.422 245.038 123.376 245.089C122.442 246.139 121.478 247.147 120.562 248.215C120.435 248.363 120.072 248.546 120.21 248.685C120.444 248.918 121.55 248.05 121.656 247.982C123.012 247.102 124.282 246.126 125.799 245.519C126.186 245.365 126.637 245.021 127.01 245.207C127.158 245.28 126.615 245.846 126.541 245.91C126.259 246.151 125.959 246.367 125.682 246.613C124.169 247.954 122.631 249.343 121.265 250.834C120.994 251.129 120.278 251.528 120.562 251.811C120.783 252.033 122.366 250.873 122.594 250.717C123.926 249.804 125.591 247.905 127.245 247.668C127.323 247.657 126.546 248.444 126.346 248.606C126.065 248.835 125.767 249.042 125.486 249.272C124.436 250.125 123.38 250.969 122.321 251.811C122.319 251.811 121.213 252.541 121.265 252.75C121.301 252.891 121.564 252.735 121.695 252.671C122.199 252.428 122.689 252.155 123.18 251.889C124.381 251.236 125.526 250.651 126.815 250.21C127.281 250.048 127.714 249.841 127.714 249.935C127.714 251.165 123.312 252.562 123.102 253.609C123.059 253.827 123.502 253.417 123.688 253.297C123.934 253.137 124.178 252.973 124.431 252.827C125.051 252.468 126.578 251.475 127.362 251.811C128.051 252.107 125.067 253.859 125.955 253.725C126.14 253.699 126.321 253.654 126.502 253.609C126.634 253.575 126.763 253.53 126.893 253.492" stroke="white" stroke-width="0.000475" stroke-miterlimit="10" stroke-linecap="square" stroke-linejoin="round"/>
<path d="M82.6128 310.136H91.8921" stroke="white" stroke-width="0.00174282" stroke-miterlimit="10" stroke-linecap="square" stroke-linejoin="round"/>
<path d="M94.5465 310.073H105.173" stroke="white" stroke-width="0.00174282" stroke-miterlimit="10" stroke-linecap="square" stroke-linejoin="round"/>
<path d="M82.0037 307.512H91.9271" stroke="white" stroke-width="0.00174282" stroke-miterlimit="10" stroke-linecap="square" stroke-linejoin="round"/>
<path d="M81.532 305.35H91.8961" stroke="white" stroke-width="0.00174282" stroke-miterlimit="10" stroke-linecap="square" stroke-linejoin="round"/>
<path d="M81.5586 302.59H91.9091" stroke="white" stroke-width="0.00174282" stroke-miterlimit="10" stroke-linecap="square" stroke-linejoin="round"/>
<path d="M81.5232 299.827H91.9982" stroke="white" stroke-width="0.00174282" stroke-miterlimit="10" stroke-linecap="square" stroke-linejoin="round"/>
<path d="M81.3951 297.356H91.9773" stroke="white" stroke-width="0.00174282" stroke-miterlimit="10" stroke-linecap="square" stroke-linejoin="round"/>
<path d="M81.5732 295.13H91.7392" stroke="white" stroke-width="0.00174282" stroke-miterlimit="10" stroke-linecap="square" stroke-linejoin="round"/>
<path d="M81.8229 292.675H91.8376" stroke="white" stroke-width="0.00174282" stroke-miterlimit="10" stroke-linecap="square" stroke-linejoin="round"/>
<path d="M80.8673 289.934H91.6969" stroke="white" stroke-width="0.00174282" stroke-miterlimit="10" stroke-linecap="square" stroke-linejoin="round"/>
<path d="M83.556 285.963H91.7957" stroke="white" stroke-width="0.00174282" stroke-miterlimit="10" stroke-linecap="square" stroke-linejoin="round"/>
<path d="M82.3389 283.369H91.8577" stroke="white" stroke-width="0.00174282" stroke-miterlimit="10" stroke-linecap="square" stroke-linejoin="round"/>
<path d="M83.3729 280.478H91.678" stroke="white" stroke-width="0.00174282" stroke-miterlimit="10" stroke-linecap="square" stroke-linejoin="round"/>
<path d="M83.244 276.898H91.4762" stroke="white" stroke-width="0.00174282" stroke-miterlimit="10" stroke-linecap="square" stroke-linejoin="round"/>
<path d="M81.7358 274.458H91.5122" stroke="white" stroke-width="0.00174282" stroke-miterlimit="10" stroke-linecap="square" stroke-linejoin="round"/>
<path d="M94.2664 307.553H105.248" stroke="white" stroke-width="0.00174282" stroke-miterlimit="10" stroke-linecap="square" stroke-linejoin="round"/>
<path d="M107.42 305.215H118.468" stroke="white" stroke-width="0.00174282" stroke-miterlimit="10" stroke-linecap="square" stroke-linejoin="round"/>
<path d="M94.1013 302.692H105.235" stroke="white" stroke-width="0.00174282" stroke-miterlimit="10" stroke-linecap="square" stroke-linejoin="round"/>
<path d="M94.0947 299.924H105.128" stroke="white" stroke-width="0.00174282" stroke-miterlimit="10" stroke-linecap="square" stroke-linejoin="round"/>
<path d="M107.331 299.932H118" stroke="white" stroke-width="0.00174282" stroke-miterlimit="10" stroke-linecap="square" stroke-linejoin="round"/>
<path d="M94.0453 295.209H104.715" stroke="white" stroke-width="0.00174282" stroke-miterlimit="10" stroke-linecap="square" stroke-linejoin="round"/>
<path d="M94.0167 292.885H104.988" stroke="white" stroke-width="0.00174282" stroke-miterlimit="10" stroke-linecap="square" stroke-linejoin="round"/>
<path d="M93.953 289.9H104.675" stroke="white" stroke-width="0.00174282" stroke-miterlimit="10" stroke-linecap="square" stroke-linejoin="round"/>
<path d="M93.9888 285.933H104.483" stroke="white" stroke-width="0.00174282" stroke-miterlimit="10" stroke-linecap="square" stroke-linejoin="round"/>
<path d="M93.9861 283.313H104.816" stroke="white" stroke-width="0.00174282" stroke-miterlimit="10" stroke-linecap="square" stroke-linejoin="round"/>
<path d="M93.9287 280.707H104.579" stroke="white" stroke-width="0.00174282" stroke-miterlimit="10" stroke-linecap="square" stroke-linejoin="round"/>
<path d="M93.9655 277.094H104.687" stroke="white" stroke-width="0.00174282" stroke-miterlimit="10" stroke-linecap="square" stroke-linejoin="round"/>
<path d="M93.891 274.725H104.674" stroke="white" stroke-width="0.00174282" stroke-miterlimit="10" stroke-linecap="square" stroke-linejoin="round"/>
<path d="M106.918 274.74H116.772" stroke="white" stroke-width="0.00174282" stroke-miterlimit="10" stroke-linecap="square" stroke-linejoin="round"/>
<path d="M106.924 277.112H117.96" stroke="white" stroke-width="0.00174282" stroke-miterlimit="10" stroke-linecap="square" stroke-linejoin="round"/>
<path d="M106.894 280.639H118.539" stroke="white" stroke-width="0.00174282" stroke-miterlimit="10" stroke-linecap="square" stroke-linejoin="round"/>
<path d="M106.939 286.012H118.811" stroke="white" stroke-width="0.00174282" stroke-miterlimit="10" stroke-linecap="square" stroke-linejoin="round"/>
<path d="M106.82 283.219L119.248 283.418" stroke="white" stroke-width="0.00174282" stroke-miterlimit="10" stroke-linecap="square" stroke-linejoin="round"/>
<path d="M107.388 293.769H118.11" stroke="white" stroke-width="0.00174282" stroke-miterlimit="10" stroke-linecap="square" stroke-linejoin="round"/>
<path d="M107.365 291.784H118.087" stroke="white" stroke-width="0.00174282" stroke-miterlimit="10" stroke-linecap="square" stroke-linejoin="round"/>
<path d="M107.388 289.825H118.11" stroke="white" stroke-width="0.00174282" stroke-miterlimit="10" stroke-linecap="square" stroke-linejoin="round"/>
<path d="M107.314 295.728H117.983" stroke="white" stroke-width="0.00174282" stroke-miterlimit="10" stroke-linecap="square" stroke-linejoin="round"/>
<path d="M94.1013 302.692H105.235" stroke="white" stroke-width="0.00174282" stroke-miterlimit="10" stroke-linecap="square" stroke-linejoin="round"/>
<path d="M107.298 302.68H118.432" stroke="white" stroke-width="0.00174282" stroke-miterlimit="10" stroke-linecap="square" stroke-linejoin="round"/>
<path d="M107.573 307.542H118.563" stroke="white" stroke-width="0.00174282" stroke-miterlimit="10" stroke-linecap="square" stroke-linejoin="round"/>
<path d="M107.625 310.027H118.251" stroke="white" stroke-width="0.00174282" stroke-miterlimit="10" stroke-linecap="square" stroke-linejoin="round"/>
<path d="M369.328 115.581L412.621 116.432" stroke="white" stroke-width="0.00174282" stroke-miterlimit="10" stroke-linecap="square" stroke-linejoin="round"/>
<path d="M364.846 136.267L415.587 136.733" stroke="white" stroke-width="0.00174282" stroke-miterlimit="10" stroke-linecap="square" stroke-linejoin="round"/>
<path d="M52.8541 117.722C52.8541 118.613 52.8543 132.006 52.8543 132.006" stroke="white" stroke-width="0.00174282" stroke-miterlimit="10" stroke-linecap="square" stroke-linejoin="round"/>
<path d="M52.7483 108.877C50.2148 108.907 48.1859 110.986 48.2164 113.519C48.2465 116.051 50.3246 118.081 52.8577 118.051C55.3909 118.021 57.4201 115.942 57.3897 113.409C57.3596 110.875 55.2814 108.847 52.7483 108.877ZM52.7637 110.187C54.5734 110.166 56.0575 111.616 56.0793 113.425C56.1007 115.235 54.6516 116.718 52.8423 116.741C51.0326 116.762 49.5484 115.312 49.5269 113.503C49.5051 111.693 50.9544 110.21 52.7637 110.187Z" fill="white"/>
<path d="M54.3757 168.76L54.0406 214.384" stroke="white" stroke-width="0.00174282" stroke-miterlimit="10" stroke-linecap="square" stroke-linejoin="round"/>
<path d="M54.0415 214.268L71.6951 226.007" stroke="white" stroke-width="0.00174282" stroke-miterlimit="10" stroke-linecap="square" stroke-linejoin="round"/>
<path d="M49.0854 181.499L72.3598 203.394" stroke="white" stroke-width="0.00174282" stroke-miterlimit="10" stroke-linecap="square" stroke-linejoin="round"/>
<path d="M30.7917 181.73L48.5363 181.379" stroke="white" stroke-width="0.00174282" stroke-miterlimit="10" stroke-linecap="square" stroke-linejoin="round"/>
<path d="M29.5996 157.565C29.6782 159.94 30.3986 181.763 30.3986 181.763" stroke="white" stroke-width="0.00174282" stroke-miterlimit="10" stroke-linecap="square" stroke-linejoin="round"/>
<path d="M29.3077 148.723C26.7757 148.806 24.7908 150.927 24.8746 153.459C24.9581 155.991 27.0784 157.975 29.6104 157.892C32.1423 157.807 34.1272 155.689 34.0438 153.156C33.9599 150.624 31.8397 148.639 29.3077 148.723ZM29.3509 150.032C31.1595 149.974 32.674 151.391 32.7338 153.2C32.7936 155.008 31.3757 156.522 29.5671 156.582C27.7586 156.642 26.244 155.224 26.1842 153.416C26.1245 151.607 27.5424 150.092 29.3509 150.032Z" fill="white"/>
<path d="M261.833 53.2844C261.879 56.4549 262.266 83.3332 262.266 83.3332" stroke="white" stroke-width="0.00174282" stroke-miterlimit="10" stroke-linecap="square" stroke-linejoin="round"/>
<path d="M261.706 44.439C259.173 44.4751 257.148 46.5581 257.186 49.0912C257.222 51.6243 259.305 53.6483 261.839 53.6122C264.371 53.5758 266.396 51.4927 266.359 48.9596C266.323 46.4265 264.24 44.4025 261.706 44.439ZM261.724 45.7493C263.535 45.7234 265.022 47.1691 265.048 48.9784C265.075 50.7877 263.629 52.2756 261.82 52.3015C260.01 52.3275 258.523 50.8817 258.496 49.0724C258.47 47.2631 259.916 45.7753 261.724 45.7493Z" fill="white"/>
<path d="M496.303 61.1229L496.018 24.6355" stroke="white" stroke-width="0.00174282" stroke-miterlimit="10" stroke-linecap="square" stroke-linejoin="round"/>
<path d="M543.66 24.3199C538.366 24.3199 495.984 24.3198 495.984 24.3198" stroke="white" stroke-width="0.00174282" stroke-miterlimit="10" stroke-linecap="square" stroke-linejoin="round"/>
<path d="M542.593 233.295H563.762" stroke="white" stroke-width="0.00174282" stroke-miterlimit="10" stroke-linecap="square" stroke-linejoin="round"/>
<path d="M453.718 342.303L489.874 349.725" stroke="white" stroke-width="0.00174282" stroke-miterlimit="10" stroke-linecap="square" stroke-linejoin="round"/>
<path d="M446.968 349.113L490.614 357.479" stroke="white" stroke-width="0.00174282" stroke-miterlimit="10" stroke-linecap="square" stroke-linejoin="round"/>
<path d="M441.719 357.193L490.19 367.01" stroke="white" stroke-width="0.00174282" stroke-miterlimit="10" stroke-linecap="square" stroke-linejoin="round"/>
<path d="M486.309 377.437L458.579 371.68" stroke="white" stroke-width="0.00174282" stroke-miterlimit="10" stroke-linecap="square" stroke-linejoin="round"/>
<path d="M560.595 290.069L567.269 297.83" stroke="#2B354E" stroke-opacity="0.7883" stroke-width="0.00174282" stroke-miterlimit="10" stroke-linecap="round" stroke-linejoin="round"/>
<path d="M551.312 314.645H580.666" stroke="#2B354E" stroke-opacity="0.7883" stroke-width="0.00174282" stroke-miterlimit="10" stroke-linecap="round" stroke-linejoin="round"/>
<path d="M551.572 320.86L579.896 319.92" stroke="#2B354E" stroke-opacity="0.7883" stroke-width="0.00174282" stroke-miterlimit="10" stroke-linecap="round" stroke-linejoin="round"/>
<path d="M580.599 326.447L563.325 326.932" stroke="#2B354E" stroke-opacity="0.7883" stroke-width="0.00174282" stroke-miterlimit="10" stroke-linecap="round" stroke-linejoin="round"/>
<path d="M581.46 334.761L552.639 335.528" stroke="#2B354E" stroke-opacity="0.7883" stroke-width="0.00174282" stroke-miterlimit="10" stroke-linecap="round" stroke-linejoin="round"/>
<path d="M106.568 80.6675C104.483 80.5114 102.387 80.7465 100.352 81.2071C97.8105 81.7823 95.3579 82.7092 93.0087 83.8278C91.4095 84.5892 89.8439 85.4408 88.3553 86.4015C85.7357 88.0916 83.3342 90.1145 81.2936 92.4758C79.9848 93.991 78.8334 95.636 77.8626 97.3863C71.4868 108.888 73.8514 122.96 79.1786 134.364C80.9003 138.051 82.9736 141.576 85.3123 144.903C87.0276 147.344 88.873 149.701 90.8816 151.906C100.975 162.995 114.758 171.827 130.091 172.599C131.326 172.662 132.568 172.658 133.805 172.611C132.568 172.656 131.328 172.65 130.091 172.586C114.78 171.793 101.037 162.921 91.0463 151.765C88.8099 149.269 86.7426 146.59 84.901 143.787C82.7506 140.517 80.8195 137.101 79.2373 133.518C74.4143 122.592 72.3151 109.268 78.1567 98.2906C79.07 96.5742 80.1555 94.9574 81.3993 93.4628C83.3368 91.1353 85.6368 89.1369 88.144 87.4468C89.9721 86.2135 91.9201 85.1644 93.925 84.2508C95.8839 83.3578 97.9188 82.5907 100.011 82.0775C102.131 81.5567 104.327 81.2898 106.509 81.4533C107.817 81.553 109.116 81.8087 110.351 82.2523C115.537 84.1154 118.574 88.7835 120.198 93.8388C119.31 94.2618 118.476 94.7976 117.695 95.3898C116.435 96.3448 115.276 97.4333 114.182 98.5726C111.99 100.857 110.044 103.38 108.377 106.07C106.91 108.439 105.644 110.966 104.829 113.637C103.755 117.155 103.423 121.422 106.286 124.212C106.988 124.896 107.827 125.43 108.718 125.833C109.383 126.135 110.074 126.361 110.798 126.468C115.179 127.111 118.16 123.058 119.751 119.523C119.954 119.074 120.128 118.657 120.304 118.196C121.148 115.989 121.713 113.667 122.078 111.334C122.363 109.514 122.528 107.677 122.571 105.835C122.606 104.389 122.568 102.94 122.454 101.5C122.258 99.0144 121.806 96.3956 121.032 93.8726C122.103 93.4647 123.27 93.2297 124.381 92.9571C126.342 92.4758 128.314 92.0622 130.303 91.7106C136.966 90.5356 143.734 90.0148 150.489 89.7855C164.698 89.2986 178.944 90.1615 193.153 89.9246C178.326 90.1521 163.472 89.1444 148.644 89.6915C142.057 89.934 135.456 90.4642 128.963 91.641C127.118 91.9757 125.285 92.3667 123.465 92.816C122.622 93.0247 121.758 93.2315 120.938 93.5323C119.525 89.1162 117.071 85.0517 113.077 82.6753C112.298 82.2129 111.476 81.8181 110.622 81.5135C109.32 81.0454 107.946 80.769 106.568 80.6675ZM208.24 89.1613C203.292 89.6238 198.335 89.8457 193.377 89.9246C198.336 89.84 203.292 89.6257 208.24 89.1613ZM120.304 94.226C120.75 95.683 121.094 97.1645 121.326 98.6215C121.504 99.7363 121.636 100.855 121.714 101.981C121.812 103.395 121.841 104.818 121.796 106.235C121.743 107.901 121.579 109.569 121.326 111.217C120.975 113.5 120.428 115.763 119.611 117.925C119.365 118.574 119.102 119.217 118.8 119.841C117.285 122.973 114.548 126.47 110.645 125.752C109.934 125.62 109.257 125.359 108.613 125.035C107.932 124.691 107.294 124.261 106.744 123.731C103.826 120.915 104.483 116.404 105.663 112.943C106.451 110.633 107.569 108.435 108.836 106.352C110.542 103.547 112.547 100.913 114.828 98.5501C115.976 97.3619 117.194 96.2339 118.541 95.2713C119.096 94.8765 119.691 94.5306 120.304 94.226ZM146.565 170.026C145.208 170.524 143.833 170.951 142.44 171.317C143.835 170.956 145.217 170.563 146.576 170.073C146.588 170.069 146.593 170.046 146.589 170.037C146.584 170.028 146.576 170.022 146.565 170.026ZM142.1 171.423C141.355 171.612 140.588 171.712 139.833 171.859C140.588 171.712 141.354 171.611 142.1 171.423ZM139.833 171.859C138.945 172.028 138.064 172.229 137.165 172.34C137.302 172.323 137.439 172.323 137.577 172.304C138.34 172.205 139.081 172.004 139.833 171.859ZM137.165 172.34C136.14 172.464 135.106 172.541 134.074 172.586C134.992 172.545 135.911 172.502 136.825 172.398C136.939 172.385 137.05 172.353 137.165 172.34Z" fill="white" fill-opacity="0.756756"/>
<path d="M487.445 15.8416C483.88 15.8408 480.316 16.0766 476.8 16.6289C469.31 17.805 461.802 20.5419 456.131 25.6646C453.958 24.9197 451.747 24.2677 449.514 23.7492C438.264 21.139 426.664 19.9411 415.121 20.7062C407.906 21.1845 400.781 22.505 393.832 24.4662C401.826 22.2384 410.071 20.9694 418.377 20.7179C428.826 20.4017 439.279 21.6711 449.435 24.1019C451.586 24.6174 453.706 25.266 455.801 25.9935C455.229 26.5278 454.665 27.0644 454.135 27.6506C453.037 28.8598 452.029 30.1585 451.161 31.5396C449.77 33.7437 448.705 36.1786 448.198 38.7426C447.935 40.092 447.818 41.4686 447.882 42.8432C448.296 52 456.177 59.4049 464.648 61.7252C469.359 63.0156 474.83 62.8103 478.631 59.3989C479.195 58.8928 479.71 58.3273 480.158 57.7185C480.895 56.7255 481.47 55.6216 481.899 54.4639C482.395 53.1227 482.715 51.7097 482.801 50.2809C483.158 44.6146 479.771 39.8266 475.695 36.2512C472.228 33.2124 468.179 30.8443 464.028 28.8726C461.741 27.7863 459.41 26.8125 457.023 25.9586C462.824 20.8826 470.435 18.2961 477.996 17.2399C485.016 16.2593 492.179 16.4751 499.195 17.3809C508.478 18.5796 517.645 21.0033 526.312 24.5366C532.595 27.0979 538.788 30.2645 544.089 34.5359C545.804 35.9158 547.409 37.4386 548.921 39.0362C553.391 43.7629 557.027 49.3138 559.212 55.4625C560.72 59.6978 561.513 64.1854 561.494 68.6805C561.475 72.4499 560.889 76.2042 559.753 79.7969C557.546 86.7905 553.26 93.0152 547.605 97.6456C548.139 97.2113 548.691 96.8034 549.203 96.3409C557.272 89.0427 561.859 78.5185 561.656 67.6355C561.573 63.0848 560.682 58.5672 559.073 54.3112C556.802 48.3095 553.162 42.9019 548.744 38.2726C547.368 36.8306 545.928 35.4458 544.386 34.1832C539.092 29.8569 532.828 26.6034 526.538 23.9962C517.468 20.237 507.85 17.6907 498.101 16.5112C494.574 16.0844 491.009 15.8423 487.445 15.8416ZM547.605 97.6456C546.872 98.2453 546.112 98.8168 545.338 99.3602C546.116 98.8187 546.868 98.2434 547.605 97.6456ZM545.338 99.3602C545.112 99.5162 544.883 99.6666 544.653 99.8189C544.8 99.7211 544.958 99.6365 545.101 99.5369C545.183 99.4805 545.255 99.4166 545.338 99.3602ZM544.653 99.8189C543.935 100.3 543.198 100.761 542.446 101.193C543.198 100.761 543.931 100.3 544.653 99.8189ZM542.446 101.193C542.108 101.389 541.758 101.573 541.412 101.757C541.758 101.571 542.104 101.391 542.446 101.193ZM541.412 101.757C540.686 102.148 539.953 102.528 539.201 102.874C539.953 102.53 540.683 102.148 541.412 101.757ZM539.201 102.874C538.915 103.005 538.622 103.113 538.333 103.239C538.622 103.113 538.915 103.005 539.201 102.874ZM538.333 103.239C537.52 103.59 536.712 103.94 535.877 104.237C536.107 104.156 536.344 104.088 536.569 104.002C537.171 103.776 537.746 103.492 538.333 103.239ZM535.877 104.237C535.671 104.31 535.46 104.367 535.253 104.436C535.46 104.367 535.674 104.31 535.877 104.237ZM535.253 104.436C534.418 104.72 533.569 104.972 532.719 105.201C533.569 104.974 534.415 104.72 535.253 104.436ZM532.719 105.201C532.467 105.267 532.219 105.339 531.967 105.401C532.08 105.372 532.193 105.359 532.305 105.329C532.444 105.293 532.58 105.237 532.719 105.201ZM531.967 105.401C530.561 105.75 529.147 106.03 527.722 106.235C529.151 106.03 530.561 105.745 531.967 105.401ZM527.722 106.235C527.459 106.273 527.188 106.295 526.925 106.329C527.192 106.295 527.459 106.273 527.722 106.235ZM526.925 106.329C525.902 106.455 524.883 106.529 523.857 106.587C524.883 106.527 525.906 106.455 526.925 106.329ZM523.857 106.587C522.699 106.655 521.54 106.66 520.379 106.645C521.54 106.664 522.699 106.653 523.857 106.587ZM520.379 106.645C519.664 106.636 518.946 106.651 518.228 106.611C518.946 106.649 519.66 106.638 520.379 106.645ZM518.228 106.611C517.356 106.564 516.491 106.44 515.622 106.352C516.491 106.444 517.356 106.561 518.228 106.611ZM515.622 106.352C514.712 106.256 513.799 106.188 512.896 106.047C512.885 106.045 512.874 106.059 512.87 106.07C512.87 106.081 512.885 106.092 512.896 106.092C513.799 106.23 514.712 106.26 515.622 106.352ZM393.832 24.4662C391.234 25.1998 388.662 26.0289 386.124 26.9572C388.666 26.0323 391.23 25.1912 393.832 24.4662ZM456.669 26.2872C459.452 27.2934 462.181 28.4627 464.813 29.7889C468.705 31.7486 472.484 34.0734 475.706 37.0269C479.436 40.4474 482.512 44.9688 482.158 50.2455C482.064 51.6101 481.756 52.9497 481.275 54.2289C480.865 55.3253 480.308 56.368 479.605 57.3072C479.079 58.0167 478.462 58.6668 477.774 59.2225C474.164 62.1343 469.137 62.208 464.851 61.0206C456.507 58.7104 448.672 51.269 448.645 42.1732C448.642 40.8433 448.807 39.5066 449.115 38.2135C449.717 35.7139 450.86 33.3669 452.3 31.2459C453.214 29.9017 454.244 28.638 455.379 27.4742C455.789 27.0524 456.237 26.6798 456.669 26.2872ZM385.831 27.0512C385.188 27.2881 384.53 27.4833 383.891 27.7325C379.653 29.3869 375.547 31.3188 371.543 33.4432C376.149 31.006 380.916 28.8568 385.831 27.0512ZM371.543 33.4432C369.997 34.2633 368.471 35.1119 366.959 35.9929C368.475 35.1138 369.994 34.2614 371.543 33.4432ZM366.959 35.9929C366.249 36.4065 365.561 36.8475 364.858 37.2735C365.557 36.8498 366.252 36.4042 366.959 35.9929ZM364.858 37.2735C362.481 38.7095 360.135 40.1958 357.841 41.7622C360.131 40.1947 362.485 38.7117 364.858 37.2735ZM357.841 41.7622C355.025 43.69 352.269 45.7008 349.569 47.7899C352.269 45.702 355.025 43.687 357.841 41.7622Z" fill="white" fill-opacity="0.72973"/>
</svg>
