<svg id="eotqDY8IV9U1" xmlns="http://www.w3.org/2000/svg" xmlns:xlink="http://www.w3.org/1999/xlink" viewBox="0 0 350 300" shape-rendering="geometricPrecision" text-rendering="geometricPrecision"><g transform="translate(-18.528278-46.828286)"><path d="M139.35,190.14c0,0-11.26-2.27-23.23-15.93s-23.17-39.31-35.41-53.64c-12.25-14.32-23.63-14.75-23.63-14.75l22.4-11.03l78.2-37.75c0,0,7.85.65,13.57,12.84c5.71,12.19,9.28,35.91,9.28,35.91l-36.82-1.62-5.3,5.53c1.04,80.6.94,80.44.94,80.44Z" fill="#948128"/><path d="M71.15,92.82L131.4,63.58c0,0,6.71-2.93,15.56,7.47s15.26,34.02,15.26,34.02l-18.94-.45-4.4,4.59.4,70.66c0,0-17.63-10.03-30.59-29.64-12.95-19.6-11.83-30.44-21.21-44.79-9.39-14.35-16.33-12.62-16.33-12.62Z" fill="#948128"/><path d="M261.14,221.3h67.05l5.29,93.7-5.07-.54-5.61,4.73-9.91-.55-6.94-79.16-45.25-1.44.44-16.73Z" fill="#2b354e"/><path d="M251.55,232.9l54.98,2.8l6.98,82.98-6.28,2.75-4.44,3.7-62.14-8.18l10.9-84.04Z" fill="#303c59"/><path d="M141.74,246.1l48.1,36.8c2.693954,2.16903,3.248868,6.053424,1.27,8.89l-18.36,26.5c-.890076,1.357287-2.302419,2.28545-3.90145,2.563955s-3.242007-.117513-4.53855-1.093955l-48.1-36.8c-2.699914-2.169949-3.255225-6.061497-1.27-8.9l18.35-26.5c.891666-1.358722,2.30673-2.28697,3.908177-2.563669s3.24594.122914,4.541823,1.103669Z" fill="#fddf19" fill-opacity="0.72"/><path d="M148.63,103.02h92.42c6.627417,0,12,5.372583,12,12v191.57c0,6.627417-5.372583,12-12,12h-92.42c-6.627417,0-12-5.372583-12-12v-191.57c0-6.627417,5.372583-12,12-12Z" fill="#2b354e"/><path d="M144.63,111.54h100.77v196.72h-100.77v-196.72Z" fill="#303d5c"/><path d="M169.2,107.69h52.85c2.126296,0,3.85,1.723704,3.85,3.85s-1.723704,3.85-3.85,3.85h-52.85c-2.126296,0-3.85-1.723704-3.85-3.85s1.723704-3.85,3.85-3.85Zm-5.21,104.73h61.32c4.680613,0,8.475,3.794387,8.475,8.475s-3.794387,8.475-8.475,8.475h-61.32c-4.567352-.156913-8.188839-3.904953-8.188839-8.475s3.621487-8.318087,8.188839-8.475Z" fill="#556fb1"/><path d="M169.04,162.14h51.43v50.28h-51.43v-50.28Z" fill="#8cc2ee" fill-opacity="0.78"/><path d="M247.87,157.37h57c4.3,0,7.78,3.48,7.78,7.78v27.9c.000004,4.303919-3.486085,7.794482-7.79,7.8h-57c-2.066037-.00265-4.046401-.825923-5.505435-2.288707s-2.277219-3.445256-2.274565-5.511293v-27.9c0-4.3,3.49-7.78,7.79-7.78Z" fill="#2b354e"/><path d="M240.08,165.48h72.57v27.63h-72.57v-27.63Z" fill="#2b354e"/><path d="M248.66,169.05h19.86v4.2h-19.86v-4.2Z" fill="#8cc2ee" fill-opacity="0.72"/><path d="M248.54,177.22h31.58v4.17h-31.58v-4.17Z" fill="#8cc2ee" fill-opacity="0.88"/><path d="M215.73,120.47h72.67v28.66h-72.67v-28.66Z" fill="#948128"/><path d="M208.65,124.73h86.61v20.99h-86.6v-20.99Z" fill="#f1d244" fill-opacity="0.59"/><path d="M116.1,282.1h63.04c3.96,0,7.17,3.2,7.17,7.16v30.22c-.005517,3.955976-3.21402,7.160004-7.17,7.16h-63.04c-3.95598.000004-7.164483-3.204024-7.17-7.16v-30.22c0-1.901602.755409-3.72532,2.100044-5.069956s3.168354-2.100044,5.069956-2.100044Z" fill="#8cc2ee" fill-opacity="0.92"/><path d="M81.8,98.22l-6.1,3.31c0,0,1.41,1.93.88,3.7-.54,1.77-3.03,3.4-3.03,3.4s4.57,2.37,10,9.6c5.42,7.24,5.5,7.93,12.99,20.03c7.48,12.12,9.66,18.78,19.68,30.37c10.03,11.59,20.42,15.99,20.42,15.99v-6.68c0,0-9.35-5.85-16.93-13.96-7.57-8.12-13.1-15.7-18.26-26.53-5.15-10.83-6.18-19.04-11.17-27.38-5-8.34-8.49-11.85-8.49-11.85Z" fill="#f1d244" fill-opacity="0.59"/><path d="M91.73,88.88l40.52-19.57c0,0,2.18,2.11,4.63,2.5c2.46.38,5.2-.96,5.2-.96s5.03,5.62,8.85,13.62s6.44,18.37,6.44,18.37-3.37.16-7.75.2c-1.84.01-4.18.04-7.85,2.1-4.87,2.75-4.83,8.64-4.83,8.64l-.3,56.9c0,0-10.13-5.57-15.08-11.78-4.96-6.22-7.8-10.96-12.9-20.53-5.12-9.58-7.09-21.36-11.4-29.75s-7.81-9.8-7.81-9.8s3.15-1.95,3.73-4.43c.57-2.49-1.45-5.51-1.45-5.51Z" fill="#f1d244" fill-opacity="0.66"/><path d="M144.73,68.66l8.65-4.82c0,0,.96,3.06,4,4.33c3.04,1.28,7.33-.28,7.33-.28s3.28,1.9,6.18,10.68c2.9,8.79,5.4,24.45,5.4,24.45h-14.67c0,0-4.35-13.49-8.61-22.4-4.27-8.9-8.28-11.96-8.28-11.96Z" fill="#f1d244" fill-opacity="0.47"/><path d="M185.7,255.85c0-6.12,4.78-11.08,10.67-11.08s10.66,4.96,10.66,11.08-4.77,11.09-10.66,11.09-10.66-4.97-10.66-11.09Z" fill="#f3d300" fill-opacity="0.89"/><path d="M108.94,293.86h77.37v11.22h-77.37v-11.22Z" fill="#303d5c" fill-opacity="0.92"/><path d="M118.88,309.45h11.12c1.2,0,2.16.97,2.16,2.17v5.21c0,1.2-.96,2.17-2.16,2.17h-11.1c-1.2,0-2.17-.97-2.17-2.17v-5.21c0-1.2.97-2.17,2.16-2.17Z" fill="#303d5c" fill-opacity="0.57"/><path d="M116.75,331.3h28.28v6.17h-28.28v-6.17Zm39.89-6.38h28.28v6.18h-28.28v-6.18Zm-4,6.18h28.28v6.17h-28.28v-6.17Z" fill="#fddf19"/><path d="M204.62,308.2c1.67-7.8,5.92-14.45,11.36-20.24c3.49-3.71,10.54-5.68,11.5-10.22c1.29-6.14-7.76-18.37-6.35-18.53.43-.05,5.21-2.94,8.75,2.16.43.62,1.6-2.97,2.19-3.13c1.76-.46,3.57,1.27,3.77,1.27.8,0,4.15-2.13,5.35-.97.67.66-1.45,4.66-.41,3.46c3.7-4.27,7.21-1.02,8.24-.9c1.19.15-6.44,11.87-4.42,17.06c1,2.55,3.63,6.16,5.87,8.77c2.22,2.59,9.47,8.86,11.83,17.18c2.85,10.03,1.15,20.81-.34,23.14-2.98,4.68-8.2,6.87-11.28,6.62-1.55-.12-2.52-.93-3.4-.2-4.96,4.1-25.77,2.1-29.92-1.09-3.32-2.55-2.72,4.43-8.74-2.1-6.02-6.54-5.66-14.48-4-22.28Z" fill="#3d4d76"/><path d="M285.74,174.66c.081957-3.593333,3.056465-6.442599,6.65-6.37c3.593535-.072599,6.568043,2.776667,6.65,6.37-.076528,3.597271-3.052647,6.452555-6.65,6.38-3.597353.072555-6.573472-2.782729-6.65-6.38Z" fill="#948128" fill-opacity="0.83"/><path d="M291.42,174.52c.081957-3.593333,3.056465-6.442599,6.65-6.37c3.597403-.078196,6.578068,2.77268,6.66,6.37-.036734,1.729342-.759147,3.373214-2.008228,4.569781s-2.922447,1.847751-4.651772,1.810219c-3.597353.072555-6.573472-2.782729-6.65-6.38Z" fill="#f1d244" fill-opacity="0.97"/><path d="M248.85,185.43l39.7-.22m11.95,4.17h-51.97" fill="none"/><path d="M227.4,275.51c-.86-.13-1.45-.09-1.16.8.04.1.11.2.2.28.95.85-.54.55-.83,1.71-.27,1.09,1.3.1.47,1.17-.16.2-.39.69.08.75c3.14.4,6.64.4,9.81.5c2.69.09,4.96,1.1,7.74.47.52-.11,2.03-.46,2.13-1.12.04-.24-.16-.43-.32-.57-.443559-.396828-.754283-.920519-.89-1.5-.07-.72.3-1.36-.35-1.87-.41-.33.43-1.24-.03-1.35l-16.85.73Z" fill="#fddf19"/><path d="M244.1,274.6l-1.58.07-3.86.17-11.27.48c-.037796.00563-.072819.023141-.1.05-1.25.4-1.23-.2-1.3.47l.03.3c.02.1.04.2.09.3.08.19.25.3.38.45.04.04.1.13.09.15-.02.06-.13.11-.18.14l-.33.2c-.26432.172945-.467298.424918-.58.72-.08.24-.15.59.05.8.123955.102255.279316.15875.44.16l.15.02-.04.08c-.04.07-.1.14-.15.2-.18.26-.39.71-.06.94.08.05.17.08.26.1l.4.04.6.07c1.01.1,2.05.17,3.07.21c1.38.07,2.76.1,4.15.13.75.02,1.51.02,2.26.09c1.7.14,3.37.6,5.08.64c1.213361.020623,2.418098-.207392,3.54-.67.3-.15.64-.36.75-.7.16-.47-.24-.72-.5-1.01-.32-.34-.6-.76-.67-1.22-.06-.45.1-.9,0-1.34-.041778-.186416-.131385-.358739-.26-.5-.07-.07-.2-.13-.22-.24-.04-.36.35-.72.2-1.08l-.05-.05.01-.02-.1-.07-.01-.02-.02-.02c-.02,0-.02.02-.03.02-.069506-.041214-.149219-.062008-.23-.06Zm.07.37h.02v.1c-.08.22-.18.47-.2.71-.016841.115784.000539.233966.05.34.05.1.11.14.18.21.12.1.2.24.24.4.1.42-.06.86,0,1.3.07.53.4,1.03.75,1.42.14.15.52.4.44.64-.1.3-.54.48-.79.58-.802203.312238-1.650045.491265-2.51.53-.2.01-.44.02-.64.01-1.7-.03-3.36-.48-5.06-.63-.9-.08-1.8-.08-2.7-.1-1.44-.03-2.9-.07-4.34-.14-.88-.05-1.76-.1-2.64-.2l-.79-.1-.1-.03c-.06-.1.02-.24.07-.33.11-.2.46-.52.33-.77-.1-.18-.3-.18-.47-.2-.07,0-.19,0-.23-.08-.07-.12.04-.41.09-.51.14-.28.38-.44.64-.6.17-.1.38-.21.41-.44.012868-.112829-.01555-.226501-.08-.32-.11-.16-.3-.27-.4-.44-.051794-.102864-.082399-.215083-.09-.33-.03-.25.09-.33.33-.35.1-.01,0,0,.7.04l.03.01l4.6-.2l8.57-.37l2.83-.12.59-.02.17-.01Z" fill="#fff"/><path d="M107.04,88.91c-.14,2.47,3.88,2.7,7.25,4.27c1.540669.662927,2.637488,2.065047,2.91,3.72.2,3-1.89,5.99-5.6,6.64-.22.04.02,3.4.02,3.4l-2.65.03c0,0,.37-3.31-.04-3.35-3.16-.27-4.38-1.77-4.85-2.45-.96-1.38-.53-3.02-.53-3.02l2.7-.55c0,0,.14,2.54,2.48,3.03.27.06.34-6.39.34-6.39l2.39.99c0,0-.11,5.49.1,5.39c1.48-.7,1.77-1.86,1.84-2.86.3-4.25-10.34-2.86-10-8.69.031519-.646939.152675-1.286372.36-1.9.77-2.22,3-3.53,5.33-3.78.15-.02.13-3.44.13-3.44l2.4-.04-.02,2.36c0,.66-.02,1.2.1,1.22c6.17.67,4.9,5.06,4.9,5.06l-2.56-.07c0,0-.36-1.87-2.5-2.32-.18-.04-.09,5.83-.09,5.83l-.81-.2-1.16-.36c0,0,.13-5.29-.13-5.22-1.14.28-2.12,1.05-2.31,2.7Z" fill="#fddf19"/><path d="M111.37,79.73l-.65.01h-.3l-.3.01h-.3l-.3.01c-.14,0-.29,0-.4.09-.1.1-.08.22-.08.34v.64l-.03,1.65c-.01.24-.02.5-.07.74l-.17.02c-.297005.04494-.590911.108397-.88.19-.668429.174147-1.30832.443574-1.9.8-1.602882.944887-2.63299,2.623026-2.75,4.48-.08.85,0,1.7.41,2.45.654933,1.035092,1.626403,1.831207,2.77,2.27.8.36,1.63.65,2.46.94v.88c-.033142,1.634705-.10316,3.268454-.21,4.9l-.04.27c-.497063-.123883-.948207-.387629-1.3-.76-.471361-.494075-.775676-1.123691-.87-1.8l-.03-.27-.16-.17c-.01-.01-.3.06-.34.07l-.3.05-.77.16-.65.13-.38.08c-.11.02-.35.03-.42.13-.08.1-.08.26-.1.36-.026887.198798-.036923.399512-.03.6-.018225.985401.327082,1.943003.97,2.69c1.198576,1.287756,2.861668,2.043707,4.62,2.1l.01.03c0,.04.02.07.03.1v.11c.03.15.04.34.04.48-.003517.815835-.05695,1.630691-.16,2.44l.11.18c.02.03.3.02.36.02h.28l.92-.02h.85l.33-.01c.24-.04.14-.43.13-.56l-.01-.15-.02-.35c-.03-.6-.06-1.2-.06-1.8c0-.2.01-.38.04-.57.2-.02.41-.08.6-.13.37-.1.72-.22,1.07-.37c2.461728-1.016274,4.049222-3.437202,4-6.1-.020154-.502784-.142651-.996174-.36-1.45-.46932-.987141-1.225626-1.809667-2.17-2.36-.5-.3-1.04-.5-1.57-.71-.56-.21-1.12-.39-1.68-.58.04-.12.02-.29.02-.4v-.56c-.01352-1.40669-.006853-2.813501.02-4.22l.02-.4.01-.03.08.02.33.11c.715018.286756,1.291764.838426,1.61,1.54.05.1.09.22.13.34l.03.12.13.15c.03.02.31,0,.37,0l.31.02h.32l.65.03h.32l.32.02c.07,0,.35.03.4-.01l.1-.12c.02-.03.03-.11.04-.14.131878-.646868.104422-1.316108-.08-1.95-.51-1.8-2.22-2.67-3.93-3.04-.329827-.07109-.663831-.121191-1-.15l-.02-.2v-.68l.01-1.85v-.52c0-.03.03-.12.01-.15-.03-.05-.05-.11-.09-.16s-.29-.03-.35-.03Zm-.04.37h.1v1.1c-.013334.599903-.016668,1.199986-.01,1.8c0,.18-.03.47.12.6.09.09.2.08.32.1.596253.077272,1.18498.204384,1.76.38.72.24,1.42.6,1.96,1.15.78.8,1.1,2.03.86,3.13-.47-.03-.96-.03-1.43-.04l-.65-.02h-.17v-.02l-.1-.27c-.361839-.882467-1.081666-1.569575-1.98-1.89-.21-.07-.5-.21-.71-.08-.08.05-.09.26-.1.34-.03.37-.04.74-.04,1.1-.02.89-.01,1.77-.01,2.64c0,.55,0,1.1.02,1.64l-.38-.1c-.414902-.094339-.822591-.217983-1.22-.37v-.25l.02-.69c.01-1.12.03-2.24-.02-3.36-.01-.25-.02-.5-.08-.74-.02-.07-.05-.17-.12-.2-.12-.05-.2-.01-.3.02-.25.07-.5.16-.73.28-.96.52,0,.01-1.58,2.52v.03c-.03.26.01.52.1.77.36,1.1,1.66,1.64,2.72,2.02l.35.13l1.42.47c.72.24,1.44.49,2.14.78.45.19.9.38,1.3.65.729672.474954,1.325319,1.129133,1.73,1.9.21.4.37.84.4,1.3.118492,2.352197-1.132132,4.561245-3.21,5.67-.632609.343937-1.313668.590063-2.02.73-.1.02-.23.02-.32.09-.14.1-.14.51-.14.67-.01166.8778.021717,1.75562.1,2.63v.06h-.6l-1.66.02.02-.24.07-.81c.03-.53.06-1.06.03-1.59-.01-.19-.03-.43-.15-.59-.13-.17-.39-.13-.57-.15-.394518-.05156-.785321-.128385-1.17-.23-1.06725-.258441-2.036492-.821226-2.79-1.62-.730635-.786691-1.081278-1.853229-.96-2.92c0-.07,0-.13.02-.19l.02-.14v-.02h.01l.2-.03.48-.1c.44-.1.89-.18,1.33-.27l.38-.07c.055229.416641.176765.821761.36,1.2.34.72.92,1.32,1.67,1.62.18.07.55.23.74.13.08-.05.1-.2.12-.28.05-.27.07-.55.1-.82.08-1.13.1-2.25.13-3.38l.03-1.45v-.33c.49.19.97.4,1.45.6l.46.18.13.05v.2l-.02.67c-.010572,1.2067-.003904,2.41349.02,3.62v.23l.01.2.02.18c.01.09.06.4.24.36.1-.02.18-.07.27-.11.226554-.122602.440863-.26659.64-.43.170643-.142463.324924-.303452.46-.48.341654-.474434.555195-1.028953.62-1.61.09-.62.05-1.22-.28-1.76-.377944-.551866-.895557-.993562-1.5-1.28-.65-.34-1.34-.6-2.04-.85-1.35-.48-2.75-.9-4-1.62-1.12-.66-2-1.58-2.13-2.92-.04-.44,0-.88.06-1.31.077605-.592349.246261-1.169152.5-1.71.596165-1.150538,1.576124-2.056205,2.77-2.56.52-.24,1.07-.4,1.62-.5.2-.04.38-.05.57-.1.043-.008281.083842-.025298.12-.05.07-.05.08-.17.09-.25.04-.25.05-.5.06-.76.02-.55.02-1.11.03-1.67v-.7h.12l.6-.01l1.2-.02Zm-2.1,6.33c.05.28.07.56.08.84.035144.879554.041814,1.760015.02,2.64l-.02.7v.43l-.01.12c-.3-.18-.14-.38-2.08-2.23v-.01c.050489-1.138884.810842-2.12334,1.9-2.46.04,0,.08-.02.11-.03Zm-2,2.5c0,0-.13,1.27-.01.02v-.01Zm4.4,6.54c.5.28,1.02.62,1.33,1.12.28.47.3,1,.22,1.53-.05613.519388-.245595,1.01544-.55,1.44-.254369.336803-.582849.610536-.96.8l-.02-.22c-.028708-.396001-.042052-.792965-.04-1.19c0-.91,0-1.82.02-2.73v-.75Z" fill="#fff"/><path d="M89.22,147.24c.38,3.53,6.21,2.9,11.43,4.34c3.12.85,4.73,3.2,5.06,4.57c1,4.22-1.31,8.95-6.5,10.75-.32.1.81,4.83.81,4.83l-3.8.67c0,0-.24-4.8-.83-4.74-4.62.36-6.72-1.48-7.56-2.34-1.7-1.72-1.48-4.15-1.48-4.15l3.77-1.41c0,0,.79,3.57,4.27,3.7.4.02-1-9.14-1-9.14l3.67.83c0,0,1.12,7.81,1.4,7.62c1.97-1.34,2.12-3.05,1.98-4.5-.55-6.09-15.55-1.6-16.42-9.93-.1-1-.08-1.93.07-2.78.6-3.34,3.5-5.72,6.78-6.64.22-.06-.61-4.9-.61-4.9l3.46-.63c0,0,.27,1.88.52,3.35.15.93.23,1.71.41,1.7c9.04-.51,8.25,6.02,8.25,6.02l-3.71.5c0,0-.95-2.56-4.13-2.7-.28,0,1.23,8.3,1.23,8.3l-1.22-.08-1.75-.24c0,0-1.04-7.53-1.4-7.38-1.803255.661584-2.919112,2.471752-2.7,4.38Z" fill="#fddf19"/><path d="M93.72,133.2l-.1.02-.26.04-.7.13-1.95.35-.18.03c-.12.03-.39.03-.44.18-.04.1.02.29.03.38l.12.72c.14.86.28,1.73.4,2.6.045054.375139.071752.752255.08,1.13l-.1.03-.41.13c-.55.18-1.09.4-1.6.67-2.25,1.17-4.13,3.17-4.65,5.7-.171262.838463-.228446,1.696223-.17,2.55.04.67.14,1.33.38,1.96.13.35.3.7.51,1.01c1.42,2.16,4.28,2.86,6.66,3.32.49.1.98.18,1.47.26l.41.07.01.05.02.1.02.11.02.13c0,.06,0,.1.02.16l.05.34.06.41c.27,1.86.54,3.72.74,5.59.05.47.1.95.12,1.43v.38l-.01.1h-.08c-.195682-.017879-.389629-.051318-.58-.1-.549135-.116375-1.067255-.348165-1.52-.68-.814862-.621651-1.410353-1.486865-1.7-2.47-.07-.19-.05-.32-.23-.44-.05-.04-.25.06-.3.08l-.21.07-.99.37-.24.1-1,.37-.5.19-.3.11-.1.04c-.06.02-.25.07-.3.13-.06.1-.05.19-.05.3-.018421.361495.005069.723907.07,1.08.201999,1.385293.915537,2.644687,2,3.53c1.97,1.65,4.64,2.07,7.13,1.87l.04.05.03.05.05.12c.07.2.11.4.15.6l.05.24.05.28c.13.83.2,1.66.26,2.5l.03.54c0,.04-.01.16.01.2l.1.15c.05.05.28-.02.35-.03l.24-.04l1.66-.3l1.2-.2c.14-.03.34-.05.48-.1.23-.07.07-.42.04-.55l-.03-.18-.05-.21-.06-.24c-.230713-.965534-.42419-1.939588-.58-2.92l-.06-.5c-.005637-.083238-.005637-.166762,0-.25c1.891503-.616144,3.56051-1.774018,4.8-3.33c1.645049-2.061557,2.303017-4.740951,1.8-7.33-.145235-.693955-.431113-1.350795-.84-1.93-.944685-1.319213-2.270861-2.317335-3.8-2.86-.73-.26-1.5-.42-2.25-.57-.86-.18-1.73-.3-2.6-.43l.03-.06v-.04l-.03-.12v-.09c-.02-.03-.02-.07-.03-.1l-.05-.26-.15-.9c-.261248-1.464177-.507927-2.930916-.74-4.4-.08-.59-.18-1.18-.23-1.76-.013619-.116328-.023624-.233051-.03-.35v-.05h.03l.54.07c.835438.148159,1.611967.52949,2.24,1.1.38316.363085.701115.78928.94,1.26.01.04.03.12.05.14.04.03.08.08.13.1.04.04.18,0,.23,0l.44-.07.2-.02.58-.08.96-.14.42-.05.34-.05.18-.02.21-.03c.08-.01.25-.01.31-.07s.05-.05.07-.13c.02-.06.02-.14.02-.2.03547-1.165099-.27793-2.31423-.9-3.3-1.36-2.06-3.89-2.69-6.2-2.74-.43,0-.86,0-1.29.03v-.02l-.04-.08-.05-.25-.16-.97-.42-2.62-.1-.64-.02-.17c0-.01,0-.13-.02-.15l-.18-.15Zm-.16.4v.04l.05.32.15.92.36,2.34.15.84c.03.14.06.3.14.42.13.2.32.14.53.13l.8-.01c1.17,0,2.37.14,3.48.55c2.051111.665852,3.458305,2.554137,3.51,4.71l-.01.43-.07.02-.57.07-1.83.25-.69.1-.26.03v-.02c-.208507-.448069-.496494-.854639-.85-1.2-.700754-.720942-1.610196-1.203646-2.6-1.38-.25-.04-.53-.1-.78-.08-.09,0-.12.03-.18.1-.07.1-.05.28-.04.4.02.33.06.67.1,1c.18,1.38.42,2.76.66,4.13l.33,1.95.12.68v.02l-.37-.02-.6-.05c-.43-.04-.87-.12-1.3-.18l-.3-.04-.03-.18c-.284717-2.001159-.618149-3.995084-1-5.98-.06-.32-.12-.64-.24-.94-.03-.1-.1-.25-.21-.28-.2-.05-.4.1-.57.19-.26.13-.5.29-.74.46-.87.66-.58.5-.83,1.54.377206-.735377.989763-1.32329,1.74-1.67l.19-.1.06-.02.05.1.06.21.14.59c.316739,1.694792.603451,3.395058.86,5.1l.12.85.02.07-.47-.1c-1.15-.3-2.54-.75-3.05-1.94-.1-.22-.04-.11-.18-.7c0,.04,0,.08-.01-.02v-.03c-.02-.35,0-.7.05-1.06l.02-.12c-.13.37-.2.65-.43,1.19c0,.01,0,0,0,0v.04c.02.36.14.7.32,1.03.72,1.35,2.48,1.81,3.88,2.1h.01c.01.02.06.02.11.03l.13.02h.03c.23.05.46.1.7.13l2.15.34c.88.13,1.74.27,2.6.44.74.15,1.48.3,2.2.56c1.372832.487741,2.577066,1.358815,3.47,2.51.4.52.74,1.12.9,1.76.739551,3.366482-.563774,6.853758-3.33,8.91-.835406.641477-1.76241,1.153857-2.75,1.52-.14.05-.3.07-.4.17-.07.07-.08.2-.09.28c0,.22.03.44.05.66.12.85.3,1.7.49,2.53.07.36.16.72.24,1.07l.06.26-.53.1-.47.07c-.8.15-1.61.31-2.42.43l-.02-.24c-.01-.27-.04-.54-.06-.8-.07-.95-.16-1.89-.37-2.81-.05-.24-.16-.68-.39-.81-.14-.09-.31-.04-.46-.03l-.54.02c-.64.01-1.3-.02-1.93-.1-1.647907-.18568-3.196677-.881403-4.43-1.99-.972-.882319-1.560555-2.109672-1.64-3.42l-.03-.3.01-.42.11-.04.4-.15.5-.18.64-.24l1.4-.53.42-.16v.02c.147764.501937.366653.980125.65,1.42.792533,1.317093,2.194116,2.147521,3.73,2.21.059623.004937.118325-.017076.16-.06.1-.1.1-.27.1-.39.02-.32-.01-.63-.04-.95l-.04-.43c-.155028-1.537465-.345078-3.071196-.57-4.6l-.3-2.07-.08-.56v-.02h.06c.030089.018677.064598.02903.1.03l.19.05.33.07l1.65.37.68.15.27.06.01.03.02.19.11.7.33,2.13c.18,1.18.37,2.36.62,3.53.06.28.12.58.23.85.03.08.07.19.16.22.17.06.31-.1.44-.2.47853-.363751.891171-.806833,1.22-1.31.52-.85.67-1.83.62-2.8-.00351-.738159-.24165-1.456081-.68-2.05-.57178-.658164-1.311369-1.14892-2.14-1.42-1.05-.4-2.16-.62-3.26-.82l-1.17-.2c-1.62-.26-3.25-.52-4.8-1.05-1.68-.56-3.29-1.49-4-3.2-.312846-.806402-.46897-1.665086-.46-2.53-.01-.86.07-1.73.32-2.56.600132-1.80353,1.813946-3.339376,3.43-4.34.875436-.56803,1.828715-1.005932,2.83-1.3.14-.04.22-.04.32-.14.05-.06.05-.18.05-.26c0-.22-.01-.43-.03-.65-.1-.86-.23-1.73-.37-2.59l-.17-1.09-.05-.27h.03l.1-.02.18-.03.25-.05.42-.07l1.56-.28.55-.11Zm-4.09,12.44c.17-.46.34-.9.4-1.16-.192199.363793-.32712.755062-.4,1.16Zm-.07,1.21v.02-.03.01Zm7.87,8.1c1.18.38,2.35.98,2.8,2.13.176804.493311.254951,1.016557.23,1.54.050213,1.362449-.593544,2.657493-1.71,3.44l-.07.05-.06-.17c-.1-.36-.16-.73-.24-1.1-.276369-1.430354-.516446-2.867482-.72-4.31l-.14-.94-.06-.42-.03-.21Z" fill="#fff"/><path d="M126.56,121.84c-.22,4.78,7.81,5.15,14.6,8.14c4.03,1.78,5.73,5.25,5.88,7.15.46,5.82-3.67,11.65-11.1,12.97-.44.09.1,6.6.1,6.6l-5.3.12c0,0,.69-6.44-.13-6.5-6.33-.47-8.79-3.35-9.76-4.67-1.94-2.65-1.11-5.84-1.11-5.84l5.4-1.1c0,0,.31,4.92,5,5.82.55.1.57-12.4.57-12.4l4.8,1.86c0,0-.12,10.65.3,10.46c2.96-1.39,3.51-3.63,3.64-5.58.54-8.24-20.74-5.35-20.17-16.65.07-1.35.3-2.58.7-3.68c1.5-4.33,5.94-6.91,10.59-7.45.3-.03.2-6.67.2-6.67l4.82-.12c0,0-.02,2.57,0,4.58.01,1.27-.04,2.33.2,2.35c12.37,1.19,9.91,9.72,9.91,9.72l-5.14-.09c0,0-.74-3.6-5.02-4.45-.38-.07-.09,11.32-.09,11.32l-1.63-.37-2.32-.68c0,0,.17-10.26-.35-10.13-2.566356.494696-4.462083,2.679532-4.59,5.29Z" fill="#fddf19"/><path d="M135.36,104.13h-.55l-.63.02-1.3.03-1.56.04-.26.01h-.15c-.06,0-.17-.01-.23.03-.14.11-.09.29-.09.45l.01.75c.00887,1.573568-.011133,3.147166-.06,4.72-.01.2-.03.4-.06.59l-.02.14-.21.03-.58.1c-.58.1-1.16.23-1.73.4-1.6806.468067-3.258068,1.24832-4.65,2.3-2.465793,1.859649-3.981658,4.715627-4.14,7.8-.071261.678133-.071261,1.361867,0,2.04.121633,1.112403.516714,2.177404,1.15,3.1c1.3,1.88,3.43,3.05,5.5,3.9c1.55.63,3.14,1.16,4.74,1.69v.9l-.01.37v.27l-.01.6c-.03,2.53-.06,5.08-.2,7.6-.035227.735852-.101954,1.469858-.2,2.2l-.04.12-.18-.04c-1.031226-.224392-1.975723-.741781-2.72-1.49-.734031-.759753-1.272774-1.686253-1.57-2.7-.129073-.414655-.222742-.839512-.28-1.27l-.01-.14-.11-.15c-.05-.04-.33.03-.4.05l-.28.06-1.78.36-1.44.3-.71.14-.42.09c-.06,0-.1.02-.16.03l-.15.03c-.06.01-.2.02-.25.07-.1.12-.1.28-.12.42-.038054.208397-.06476.418706-.08.63-.085897.991565.005531,1.990503.27,2.95.29.99.8,1.87,1.47,2.66c1.417087,1.626317,3.270059,2.813052,5.34,3.42c1.338369.385537,2.711818.636778,4.1.75.03,0,.1.23.11.26.06234.424277.102395.85153.12,1.28.03,1.2-.06,2.4-.16,3.6l-.08.89c-.01.15-.06.28.03.42.06.08.28.05.36.04h.62l2.13-.05l1.56-.04.6-.01h.18c.23-.06.13-.43.12-.57l-.01-.1-.02-.26-.02-.28-.03-.34c-.104954-1.330768-.158327-2.665101-.16-4c0-.28,0-.54.04-.8c0-.09.01-.16.03-.24l.02-.04c.954842-.170829,1.892074-.428568,2.8-.77c4.14-1.56,7.42-5.01,8.22-9.44.16-.84.22-1.71.18-2.57-.14-2.86-2.25-5.45-4.59-6.91-.86-.53-1.78-.92-2.72-1.28-1.421734-.542123-2.862683-1.032446-4.32-1.47h-.02c.07-.13.04-.34.04-.44v-.31l-.01-.29-.01-.33-.01-.5c-.05-2.32-.09-4.63-.06-6.94-.005884-.750804.020808-1.50151.08-2.25l.03-.14.11.03c.24.06.49.12.72.2c1.211102.406438,2.268572,1.174239,3.03,2.2.355669.508704.632145,1.0684.82,1.66.01.04.02.15.05.18l.11.14c.04.04.33.02.4.02h.31l.64.02.65.01l1.28.03h.64l.32.02h.67c.05,0,.3.03.34,0l.14-.12c.03-.03.04-.16.05-.19l.01-.09c.326956-1.70237.06604-3.465313-.74-5-1.58-2.83-4.88-4.01-7.9-4.5-.477889-.073305-.958178-.130006-1.44-.17-.024107-.064583-.040879-.131671-.05-.2-.02-.18-.02-.38-.03-.57-.02-.81-.02-1.64-.02-2.45v-2.96l.02-.42v-.15c-.05-.06-.08-.13-.13-.18-.02-.02-.26,0-.3,0Zm.05.36l-.01.12v4.89c0,.38,0,.76.03,1.14c0,.19.01.4.1.57.11.26.38.22.63.25.47.05.94.11,1.41.2c1.7.3,3.42.8,4.89,1.75c2.406265,1.459091,3.66314,4.251262,3.16,7.02l-.04.23-.02.1h-.5l-1.28-.02c-1.03-.02-2.05-.02-3.07-.06l-.02-.09-.14-.37c-.684175-1.775004-2.13719-3.143413-3.95-3.72-.333254-.124807-.678375-.215276-1.03-.27-.09,0-.13.01-.19.07-.11.1-.12.42-.14.56-.05.52-.06,1.04-.06,1.56-.04,1.9-.02,3.8.01,5.7l.05,2.56.02.7v.11h-.03l-.16-.03-.29-.07-.57-.13c-.46-.1-.9-.24-1.35-.37-.4-.12-.79-.22-1.18-.35v-.23l.01-.78.02-2.4c0-1.68-.01-3.37-.1-5.06-.013571-.42964-.060377-.857585-.14-1.28-.03-.13-.07-.32-.2-.39-.14-.08-.32.01-.46.05-.477068.137212-.939335.321449-1.38.55-1.13.6-.97.6-1.27,1.47l.3-.34c.616998-.581788,1.364594-1.007026,2.18-1.24l.44-.13.03.1.04.26c.06.4.08.82.1,1.23.091871,1.891847.121887,3.786192.09,5.68l-.02,1.28v1.1c-.237656-.074551-.471301-.161334-.7-.26-1.58-.65-3.5-1.64-3.83-3.5-.05-.24-.01-.14-.05-.74v-.06c.04-.31.1-.61.17-.92l-.47.78-.05.1c0-.07.14-1.97,0,0v.02c-.04.44.02.87.15,1.3.61,1.97,2.87,2.95,4.63,3.61l.22.08v.01c.03.04.26.09.3.1l.07.02.7.25c2.23.74,4.5,1.37,6.7,2.17c1.769627.554708,3.411409,1.455479,4.83,2.65c1.034268.928696,1.853335,2.071977,2.4,3.35.24.56.43,1.17.47,1.77.07.96.03,1.9-.14,2.85-.749175,3.74429-3.210943,6.920525-6.65,8.58-1.241478.622453-2.56449,1.066824-3.93,1.32-.1.02-.24.02-.33.1-.12.08-.14.27-.16.4-.05.3-.05.63-.06.94-.01,1.35.08,2.7.17,4.03l.07.99.01.19c-.38.02-.78.01-1.16.02l-2.6.06-1.14.02v-.08l.05-.45c.038354-.439605.071689-.879634.1-1.32.08-1.14.14-2.29.07-3.43-.02-.31-.08-.92-.34-1.14-.16-.12-.41-.1-.58-.1-1.133651-.106626-2.255062-.317519-3.35-.63-2.160967-.573926-4.096488-1.791038-5.55-3.49-1.406214-1.673314-1.943327-3.91067-1.45-6.04l.5-.1.41-.09.58-.11l1.1-.23l1.83-.37.58-.12.1-.02.01.1c.092626.690652.284612,1.364285.57,2c.792406,1.918267,2.500272,3.306378,4.54,3.69.08,0,.12,0,.18-.05.17-.11.19-.43.22-.6.09-.57.12-1.14.15-1.71.13-2.08.16-4.17.2-6.25l.03-2.8v-.9l.05.02.13.05.25.1.46.17l2.65,1.02.9.35v1.3l-.01,2.9c0,1.6,0,3.23.1,4.83l.02.43.04.36c.02.15.04.58.2.67.18.1.42-.09.57-.17.722858-.388293,1.375286-.895361,1.93-1.5.822452-1.010141,1.311563-2.250388,1.4-3.55.16157-.971498-.000026-1.969175-.46-2.84-.694329-1.066407-1.675157-1.915534-2.83-2.45-1.386898-.693652-2.828407-1.272263-4.31-1.73-2.63-.88-5.34-1.63-7.8-2.94-2.05-1.1-3.92-2.64-4.51-4.99-.253456-1.150431-.280627-2.33919-.08-3.5.16-1.15.47-2.3.98-3.36c1.162989-2.218118,3.046233-3.974403,5.34-4.98c1.388754-.650011,2.869522-1.081761,4.39-1.28.16-.02.3,0,.42-.1.08-.06.1-.2.11-.3.05-.28.07-.58.08-.87.06-1.17.07-2.34.06-3.52v-1.49l-.01-.41v-.02h.1l.27-.01.78-.02l3.3-.08Zm-8.5,16.44c.78-1.3,1.08-2,1.25-2.46-.58.65-1,1.44-1.22,2.29l-.03.17Zm-.17.95v.03l.01-.05-.01.02Zm8.96,12.34c.14.07.28.12.42.2c1.021499.47901,1.905494,1.20822,2.57,2.12.62.95.66,1.95.51,3.05-.13.94-.4,1.87-.95,2.66-.588898.847584-1.397972,1.518356-2.34,1.94l-.02.02-.03-.12c-.016862-.122926-.030201-.24631-.04-.37-.04-.45-.05-.9-.07-1.36-.072164-1.965784-.095504-3.933057-.07-5.9v-1.05l.01-.63v-.4l.01-.16Z" fill="#fff"/><path d="M231.23,303.73c-.13,2.46,3.88,2.7,7.26,4.27c1.536799.665607,2.629474,2.067245,2.9,3.72.21,3-1.88,5.98-5.6,6.63-.22.04.02,3.41.02,3.41l-2.65.03c0,0,.38-3.32-.03-3.35-3.16-.28-4.38-1.77-4.86-2.46-.95-1.38-.53-3.02-.53-3.02l2.7-.54c0,0,.14,2.54,2.48,3.03.28.05.34-6.39.34-6.39l2.4.98c0,0-.12,5.5.1,5.4c1.48-.7,1.76-1.86,1.84-2.87.3-4.24-10.34-2.86-10-8.68.04-.7.16-1.33.35-1.9.78-2.22,3-3.53,5.33-3.78.16-.02.14-3.44.14-3.44l2.4-.04-.02,2.36c0,.66-.03,1.2.1,1.21c6.17.68,4.9,5.07,4.9,5.07l-2.57-.08c0,0-.35-1.86-2.49-2.32-.19-.04-.09,5.84-.09,5.84l-.82-.2-1.15-.36c0,0,.13-5.29-.13-5.23-1.15.28-2.13,1.05-2.32,2.7Z" fill="#fddf19"/><path d="M235.56,294.55h-.64l-.3.01h-.3l-.3.02h-.3c-.14,0-.29-.02-.4.08-.1.1-.09.23-.09.35v.64c0,.55,0,1.1-.03,1.65-.01.24-.01.5-.06.74l-.17.02-.3.05-.58.13c-.67.18-1.32.45-1.9.81-1.59881.94422-2.628048,2.617199-2.75,4.47-.09.85,0,1.7.4,2.46.661276,1.031118,1.635586,1.823183,2.78,2.26.8.37,1.62.66,2.46.95v.59l-.01.28c-.02,1.25-.05,2.5-.11,3.75-.02.39-.05.78-.1,1.17c0,.08-.02.17-.04.26-1.004183-.258051-1.786863-1.044567-2.04-2.05-.045488-.151089-.082215-.304678-.11-.46l-.03-.14c0-.03,0-.16-.02-.18l-.16-.17-.25.05-.47.1-.68.13-.68.13-.34.07c-.08.02-.35.04-.4.1-.14.16-.14.43-.15.6-.04145.523076-.000962,1.049417.12,1.56.163684.557654.446921,1.072941.83,1.51c1.197181,1.292403,2.859503,2.0552,4.62,2.12l.02.03.02.1.02.11c.02.15.02.34.02.47.01.82-.06,1.64-.15,2.45.04.06.06.13.11.19h.73l.99-.01h.33l.33-.01c.11,0,.24.02.35,0c.08-.03.11-.13.16-.2v-.06l-.02-.18v-.13l-.01-.15-.02-.34c-.03-.6-.07-1.2-.06-1.8c0-.2,0-.39.04-.57.57366-.103496,1.133851-.271218,1.67-.5c2.467063-1.015329,4.056221-3.442767,4-6.11-.03-.5-.16-1-.37-1.45-.467793-.982388-1.220438-1.801238-2.16-2.35-.5-.3-1.04-.51-1.58-.72-.55-.21-1.1-.39-1.67-.57.04-.14.02-.3.02-.42v-.55c-.02-1.01-.02-2.02-.01-3.03c0-.4,0-.8.02-1.2l.03-.38v-.04l.08.03.34.11c.83051.333943,1.466107,1.024649,1.73,1.88l.03.12.14.15c.03.02.3,0,.36,0l.32.02h.32l.64.02.33.02h.32c.06,0,.35.04.4,0l.1-.13c.043118-.170806.073205-.344639.09-.52.05-.52.01-1.05-.13-1.56-.52-1.8-2.22-2.68-3.93-3.04-.329625-.074373-.663625-.127813-1-.16-.010629-.066211-.017307-.132996-.02-.2v-.68l.01-1.84v-.52c0-.03.02-.12,0-.15-.02-.06-.04-.12-.08-.16-.04-.06-.3-.03-.36-.03Zm.08.36v.29l-.02.81c0,.6-.02,1.21,0,1.81c0,.18-.03.46.11.6.1.08.22.07.33.09l.36.05c.47.08.95.17,1.4.33.72.25,1.42.6,1.96,1.15.78.81,1.1,2.03.86,3.14-.48-.04-.96-.03-1.44-.04l-.64-.02h-.18v-.02c-.095713-.322336-.244412-.626492-.44-.9-.396988-.581266-.96747-1.022252-1.63-1.26-.21-.07-.5-.21-.71-.08-.08.05-.1.25-.1.33-.04.37-.04.75-.05,1.12-.02,1-.01,2,0,2.99v1.1l.01.17h-.01c-.535893-.119656-1.063626-.2733-1.58-.46v-.25c.034041-1.349785.034041-2.700215,0-4.05-.02-.25-.02-.5-.08-.74-.02-.07-.06-.17-.13-.2-.12-.05-.19-.02-.3.01-.25.07-.49.17-.72.29-.94.5-.06.06-1.53,2.43l-.05.09-.01.02.01.03c-.01.26.02.5.1.75.36,1.1,1.65,1.64,2.7,2.02l.36.13l1.42.47c.72.24,1.44.48,2.14.77.45.19.9.39,1.3.66.734516.472244,1.334026,1.126881,1.74,1.9.2.4.37.84.4,1.3.116588,2.354407-1.138258,4.564027-3.22,5.67-.62574.343459-1.300139.589614-2,.73-.1.02-.24.02-.33.08-.15.11-.14.52-.15.68-.01.67.03,1.33.06,2l.04.62v.06l-1.13.02-1.13.01.03-.25.06-.81c.04-.53.06-1.05.03-1.58-.001394-.1632-.028389-.32517-.08-.48-.1-.27-.38-.23-.63-.27-.288619-.033761-.575575-.080475-.86-.14-1.134794-.222906-2.17846-.776049-3-1.59-.816472-.824036-1.204352-1.980288-1.05-3.13l.03-.24.12-.03.45-.09l1.35-.27.44-.09h.04l.07.35c.07.29.16.57.28.83.35.73.93,1.33,1.68,1.63.18.07.54.24.73.14.09-.05.1-.2.13-.28.05-.27.07-.55.09-.82.08-1.13.11-2.26.14-3.38l.02-1.45v-.34l1.46.6.45.19.14.05-.01.12v.49l-.02,1.33.01,2.26c.01.27.01.55.04.82.01.1.01.2.06.3.13.28.47.03.63-.07.4-.24.75-.56,1.02-.94.3-.44.46-.96.53-1.49.09-.66.04-1.3-.35-1.86-.4-.6-1.06-1-1.7-1.3-1.87-.92-3.97-1.29-5.77-2.34-1.13-.67-2-1.58-2.13-2.92-.088758-1.037678.101112-2.080238.55-3.02.594797-1.151581,1.575192-2.05765,2.77-2.56.52-.24,1.07-.4,1.63-.51.19-.04.38-.04.57-.08.040262-.012556.077645-.032947.11-.06.07-.05.08-.17.1-.25.051375-.809067.081386-1.619349.09-2.43l-.01-.7h.12l.6-.01l1.2-.02h.12Zm-2.2,6.34c.04.27.06.56.07.84.027008.879793.027008,1.760207,0,2.64v.69l-.01.44v.12c-.3-.18-.13-.38-2.09-2.25.067854-1.175863.882186-2.175637,2.02-2.48Zm-2.02,2.5c0-.01-.13,1.3,0,.01v-.01Zm4.4,6.54c.51.28,1.02.62,1.33,1.12.29.47.3.99.23,1.52-.058306.523586-.251238,1.023142-.56,1.45-.250733.336362-.575875.610166-.95.8l-.03-.22-.02-.6v-.6c-.02-.9-.01-1.82,0-2.73l.01-.67v-.07Zm-59.16-94.33c-.311404.02938-.575141.241944-.67.54-.88,2.8-1.78,5.59-2.67,8.38-.13.44.11.9.55,1.03.44.14.9-.1,1.04-.53.86-2.8,1.7-5.61,2.57-8.41.062655-.197583.044089-.41198-.051599-.595852s-.260628-.322094-.458401-.384148c-.1-.03-.21-.04-.31-.03Z" fill="#fff"/><path d="M177.04,215.61c-.261746-.040246-.526033.055064-.701846.253106s-.239133.471761-.168154.726894c.77,2.93,1.52,5.87,2.3,8.8.144025.406794.575749.635356.993145.52579s.681198-.520705.606855-.94579c-.8-2.93-1.6-5.85-2.38-8.78-.080862-.30612-.336682-.53439-.65-.58Z" fill="#fff"/><path d="M175.98,221.11c-.394357.020871-.712724.329745-.74552.72329s.230057.750854.61552.83671c.85.08,1.69.16,2.54.16.420642-.046381.739033-.401808.739033-.825s-.318391-.778619-.739033-.825c-.8,0-1.6,0-2.4-.07Z" fill="#fff"/><path d="M181.1,216.76c0,0,1.63,3.2,2.44,3.43.15.04,2.5-3.33,2.5-3.33l.28-.16-2.85,3.46.03,4.7" fill="#556fb1"/><path d="M186.15,215.8c-.06,0-.1.03-.16.04-.1.04-.3.14-.38.21-.1.08-.22.15-.3.25-.08.08-.13.18-.2.28l-.22.3-.21.32-.16.22-.34.42-.82.97-.33-.5c-.41-.62-.79-1.29-1.13-1.95-.239411-.41616-.763334-.571123-1.190601-.352149s-.607423.734778-.409399,1.172149c.53,1.02,1.1,2.03,1.82,2.93.12.16.26.32.4.46l.01.49c0,1.27.02,2.53.03,3.8.002761.519148.425852.937761.945.935s.937761-.425852.935-.945l-.02-3.13-.01-1.03v-.1c.03-.05.08-.08.12-.13.35-.44.68-.9,1.01-1.36l.44-.53.45-.55.2-.25c.15-.19.51-.57.56-.82.02-.1.05-.19.03-.28-.04-.18-.08-.38-.2-.53-.147237-.15142-.32915-.264686-.53-.33-.1-.04-.23-.02-.34-.01Zm10.12.21c-.135697.004775-.268748.038891-.39.1-.58.26-.92,1.1-1.1,1.65-.391309,1.294982-.507127,2.657551-.34,4-.039092,1.043226.103013,2.08533.42,3.08.11.3.34.83.68.97.1.04.2.1.3.1.16,0,.35,0,.5-.09.16-.07.29-.22.4-.36.06-.08.08-.2.1-.3.07-.23-.06-.51-.12-.74l-.06-.28c-.206593-.874863-.34699-1.764045-.42-2.66c0-.27,0-.53.03-.8.03-.3.1-.6.16-.9.16.43.31.86.49,1.29.32.79.66,1.57,1.06,2.32.26.49.56.97.9,1.4.55.68,1.4,1.2,2.25.72.15-.09.28-.2.39-.32.35892-.470242.602143-1.018349.71-1.6.05-.35.01-.73-.01-1.08-.03-.46-.05-.92-.05-1.37-.022149-1.267404.314088-2.515296.97-3.6.276142-.441828.141828-1.023858-.3-1.3s-1.023858-.141828-1.3.3c-.57.9-1,2.02-1.15,3.08-.095882.702326-.129346,1.411767-.1,2.12l.07,1.16v.32c0,.02.01.04,0,.07v.03c-.01.08-.04.15-.07.22l-.29-.4c-.28-.45-.53-.92-.75-1.39-.388237-.816753-.738609-1.650972-1.05-2.5l-.6-1.63-.17-.53-.06-.18-.01-.03-.01-.02v-.01l-.03-.1c-.024724-.068918-.054816-.135789-.09-.2-.2-.35-.57-.56-.96-.54Zm11.23.31c-.158214.013583-.310017.068784-.44.16-.18.03-.43.07-.64.16-1.034353.46222-1.863336,1.287644-2.33,2.32-.9,1.92-.73,4.52,1,5.94.595746.494542,1.321342.807,2.09.9c1.531184.186007,3.065125-.324084,4.18-1.39c1.46-1.58,1.14-4.04.09-5.74-.59-.96-.27-.28-3.19-1.93-.151762-.204787-.385696-.332719-.64-.35l-.12-.07Zm.09,1.89h.02c.53.03.37,0,.53.03.31.08.6.24.85.44.421253.336567.765626.759362,1.01,1.24.49.94.77,2.38-.02,3.24-.14.15-.3.27-.47.38-.632729.373632-1.369729.531561-2.1.45-.286528-.037627-.56414-.12565-.82-.26-1.48-.78-1.49-2.86-.78-4.17.28-.53.08-.08,1.78-1.35Zm15.27-2.19c-.376832.05584-.683866.331383-.78.7-.451028,1.629189-.954625,3.243366-1.51,4.84l-.32.8-.17-.88-.17-1-.15-.8-.13-.56c-.2-.82-.56-2.02-1.6-2.03-.95-.02-1.36.95-1.54,1.72-.27,1.08-.4,2.18-.6,3.28-.05.27-.11.55-.18.82l-.05-.1c-.22-.5-.4-1.01-.55-1.53-.425583-1.455792-.782642-2.930746-1.07-4.42-.100397-.480728-.567637-.792222-1.05-.7-.480163.09582-.795632.557916-.71,1.04.22,1.16.48,2.31.78,3.45.26.97.55,1.94.94,2.87.33.78.9,1.85,1.9,1.77.7-.05,1.1-.63,1.34-1.21.174098-.47457.307905-.962964.4-1.46l.31-1.81.07-.33.02.13c.18,1.01.32,2.03.57,3.03l.07.3c.05.17.07.35.14.5.08.16.22.28.32.42.1.13.24.3.38.38.09.05.16.1.26.13.11.03.23.03.35.04.19.03.48-.12.63-.23.42-.31.68-.83.9-1.3l.17-.38c.370935-.892396.704557-1.799849,1-2.72.38-1.18.74-2.37,1.07-3.57.088374-.307054.014721-.637974-.19554-.878562s-.528337-.357894-.84446-.311438Zm-53.39-.32c-.76,0-1.55.08-2.3.26-.307403.030244-.568984.236874-.66958.528922s-.021755.615937.201814.829076.550854.276427.837766.162002l.1-.01v1.63l.01.34v1.83c-.02,1.26-.05,2.51-.06,3.77-.038496.315879.106996.625961.374541.798243s.610037.176435.88168.010687.424607-.472211.393779-.78893l.04-3.26c.695227-.028133,1.385626-.128676,2.06-.3.78-.2,1.58-.6,2-1.33.22-.41.28-.86.26-1.32-.004228-1.181045-.701015-2.249713-1.78-2.73-.739712-.311812-1.537551-.461833-2.34-.44Zm-.2,1.59c.28,0,.55-.02.82,0c.4.04.82.13,1.18.32.5.27.73.75.75,1.3c0,.18.02.38-.09.53-.22.31-.67.45-1.02.54-.526871.131334-1.067069.201795-1.61.21c0-.59.02-1.18,0-1.77c0-.38-.02-.75-.03-1.13Z" fill="#fff"/><path d="M227.1,127.57l-.2,14.72c0,0,10.97,1.61,10.98-3.61c0-5.23-10.39-3.62-10.13-3.62c3.69,0,8.96-.33,8.98-4.39.01-4.06-9.64-3.1-9.64-3.1Zm19.52.45c0,0-2,15.38,6.14,14.97c8.16-.4,6.85-14.96,6.85-14.96m6.58.13c0-.4,6.57,7.41,8.26,7.75.28.06,6.63-7.82,6.63-7.82" fill="none"/><path d="M274.26,135.86v7.7Z" fill="#556fb1"/><path d="M274.26,135.86v7.7M183.7,169.51h24.28m-35.36,7.73h12.26m3.9.16l27.65.13m-44,7.72h3.68m2.24-.03l5.72.13m5.19.1h15.06m3.28-.15l8.48-.12m-43.35,8.01h3.64m2.38.11h5.21m4.84.08h27.59m-43.88,7.69h3.74m2.49-.14h5.1m4.7.17l11.3.19m3.5.18l12.68-.17m-43.78,7.78h4.21m7.58.16h-5.18m9.21.09h16.48m2.28,0h9.23M137.01,309.58h44.45m-.49,8.19l-44.24-.52m-.12-3.89l19.8.35m24.87-.12l-20.85-.33m-35.3-53.92l11.5,8.6M129.53,253l7.1,5.5m82.09,49.76c0-8.68,6.91-15.72,15.44-15.72c8.52,0,15.43,7.04,15.43,15.72s-6.91,15.72-15.43,15.72c-8.53,0-15.44-7.04-15.44-15.72Zm90.61-85.29c-1.26-8.63-5.26-25.93-16.86-25.09-11.45.83-14.64,16.8-15.53,24.99" fill="none"/><path d="M276.6,227.63c.88066.064308,1.728731-.346096,2.224753-1.076615s.564637-1.670173.18-2.465-1.164093-1.324077-2.044753-1.388385c-1.361382-.099411-2.545589.923618-2.645,2.285s.923618,2.545589,2.285,2.645Zm.05-.7c-.642503-.02901-1.218709-.404258-1.505057-.980154s-.237772-1.261801.126883-1.791592.987995-.820086,1.628174-.758254c.955461.092283,1.663226.929334,1.595414,1.886842s-.886484,1.686455-1.845414,1.643158Zm33.22.79c.918717-.051234,1.73355-.606918,2.116691-1.4435s.271603-1.81653-.289744-2.545609-1.480216-1.087431-2.386947-.930891c-1.295027.223577-2.1908,1.418559-2.042178,2.724313s1.290032,2.268861,2.602178,2.195687Zm-.08-.7c-.628787.071453-1.247931-.197976-1.624205-.706795s-.452513-1.179727-.2-1.76.795418-.981752,1.424205-1.053205c.972021-.110457,1.849543.587979,1.96,1.56s-.587979,1.849543-1.56,1.96Z" fill="#fff"/><path d="M287.7,235.95c-.61-7.51-3.16-21.35-13.7-22.16-10.5-.8-14.44,12.34-15.81,19.66" fill="none"/><path d="M257.5,238.18c.902337.186269,1.833561-.143056,2.418183-.855183s.726264-1.68966.367814-2.538436-1.157901-1.428873-2.075997-1.506381c-1.303856-.101369-2.462353.827167-2.647303,2.121814s.667218,2.51042,1.947303,2.778186Zm.1-.7c-.646398-.066988-1.204106-.482809-1.452805-1.083198s-.148391-1.288781.261299-1.793232s1.062871-.74383,1.701506-.62357c.925645.180069,1.547582,1.054227,1.414222,1.987746s-.975184,1.598568-1.914222,1.512254Zm30.27,3.25c1.369666-.052467,2.437467-1.205334,2.385-2.575s-1.205334-2.437467-2.575-2.385c-1.369666.055228-2.435228,1.210334-2.38,2.58s1.210334,2.435228,2.58,2.38Zm-.02-.7c-.980305.035899-1.804101-.729695-1.84-1.71s.729695-1.804101,1.71-1.84c.977544-.035899,1.799101.727456,1.835,1.705s-.727456,1.799101-1.705,1.835Z" fill="#fff"/><path d="M120.55,331.3v6.17m3.86-6.17l-.11,6.17m4.14-6.17v6.17m3.99-6.17v6.17m4.04-6.17v6.17m3.92-6.17v6.17m16.11-6.37v6.17m3.86-6.17l-.12,6.17m4.16-6.17v6.17m3.97-6.17v6.17m4.04-6.17v6.17m3.92-6.17v6.17M161,324.92v6.18m3.87-6.18l-.12,6.18m4.15-6.18v6.18m3.98-6.18v6.18m4.04-6.18v6.18m3.92-6.18v6.18m10.75-76.8l4.68,4.62m9.57-13.62l-9.68,13.51" fill="none"/><path d="M219.35,111.61c0-.96.83-1.74,1.84-1.74s1.83.78,1.83,1.74-.82,1.74-1.83,1.74c-.474789.013448-.935456-.162361-1.280565-.488713s-.546358-.776488-.559435-1.251287Zm95.58,39.26c-.062568-1.053029.463679-2.053979,1.366625-2.59939s2.033803-.545412,2.93675,0s1.429193,1.546361,1.366625,2.59939c-.089151,1.500418-1.331936,2.671551-2.835,2.671551s-2.745849-1.171133-2.835-2.671551ZM119.56,230.22c0-1.33,1.1-2.41,2.46-2.41c1.343729-.011116,2.443524,1.066326,2.46,2.41c0,1.34-1.1,2.42-2.46,2.42-.647135.005326-1.269878-.24665-1.731222-.700493s-.723495-1.072372-.728778-1.719507Z" fill="#2b354e"/><path d="M114.96,228.73c0,0,1.32-2.75,3.88-3.92s6.38-.75,6.38-.75m-14.51,1.79c0,0,2.15-4.1,5.82-5.68s8.86-.65,8.86-.65M107,222.64c0,0,3.12-5.38,7.66-7.38c4.55-2,10.53-.63,10.53-.63m191.87-69.39c0,0,2.5-.1,4.27,1.24c1.78,1.34,2.85,4.13,2.85,4.13m-6.55-9.36c0,0,3.78-.01,6.26,1.94s3.67,5.88,3.67,5.88m-8.91-11.56c0,0,5.05.18,8.16,2.59c3.1,2.4,4.25,7.03,4.25,7.03" fill="none"/><path d="M306.14,235.68c-.13.46-.17.95-.22,1.43-.09.76-.16,1.52-.23,2.28-.18,2.07-.32,4.15-.47,6.22-.17,2.62-.36,5.24-.48,7.86-.2,4.32-.3,8.64-.44,12.97-.46488,14.558062-.861551,29.118221-1.19,43.68-.04,2.26-.12,4.52-.1,6.78.001678,1.11046.028351,2.220741.08,3.33.07,1.5.17,2.98.2,4.48-.02-1.5-.1-2.99-.17-4.48-.041964-1.109496-.061968-2.219713-.06-3.33c0-2.38.1-4.76.17-7.14.12-3.97.24-7.95.38-11.93.36-11.04.76-22.08,1.23-33.12.16-3.74.35-7.48.5-11.22.1-2.55.15-5.1.24-7.65.07-2.24.15-4.48.26-6.72.04-.73.09-1.45.15-2.18.03-.42.05-.85.15-1.26Z" fill="#fff"/><path d="M327.46,222.31l-1.05,14.95-2.08,32.1c0,0-1.43,29.72-1.43,49.75" fill="#2b354e"/><path d="M327.46,222.31l-.94,10.85c-.24,2.8-.49,5.6-.68,8.4-.1,1.52-.2,3.05-.28,4.57l-.45,7.42-.64,10.63c-.1,1.72-.24,3.44-.32,5.17-.33,6.95-.55,13.92-.76,20.87-.29,9.63-.52,19.26-.49,28.89.04-10.49.38-20.97.79-31.45.214729-5.424422.454732-10.847814.72-16.27.03-.67.05-1.35.1-2.02l1.27-18.33c.21-3.14.46-6.3.64-9.44.1-1.44.16-2.88.24-4.32l.8-14.97ZM212.12,318.75c-.19,3.73.05,7.73,2.06,11c.644504,1.047548,1.462897,1.97754,2.42,2.75c1,.71,2.2,1.14,3.37,1.45-1.090734-.497038-2.107118-1.143216-3.02-1.92-.4-.33-.82-.65-1.2-1.03-.800493-.819623-1.465473-1.761397-1.97-2.79-1.45-2.91-1.7-6.26-1.66-9.46Zm42.32-1.71c-.87,3.17-1.6,6.4-2.92,9.44-.766066,1.744029-1.73977,3.389252-2.9,4.9-.24.32-.5.64-.74.98-.43.6-.85,1.21-1.4,1.72-.4.4-.89.73-1.47.8.78.03,1.48-.43,2.05-.9.530908-.430406,1.010708-.920272,1.43-1.46.3-.4.59-.83.87-1.24c1.17-1.73,2.1-3.6,2.8-5.57c1-2.82,1.58-5.77,2.28-8.67Zm-24.39-36.58c-.076609.032417-.137583.093391-.17.17-.507264,1.173378-1.044102,2.333749-1.61,3.48-.46.92-.91,1.85-1.33,2.8-.1.23-.21.46-.3.7-.2.49-.35.99-.52,1.48.385755-.959611.829919-1.894694,1.33-2.8.75-1.35,1.63-2.63,2.36-3.99.24-.46.45-.93.65-1.41.070007-.16571-.005603-.356961-.17-.43-.07697-.031136-.16303-.031136-.24,0Zm3.86.01c-.08224.02118-.152688.074182-.195827.147333s-.055434.160448-.034173.242667c.12.47.15.97.18,1.45.08,1.73-.3,3.44-.38,5.16.21-1.43.61-2.83.83-4.26.170699-.828314.167294-1.683073-.01-2.51-.02118-.08224-.074182-.152688-.147333-.195827s-.160448-.055434-.242667-.034173Zm4.39.38c-.168238.052718-.262142.231583-.21.4.14.45.27.91.43,1.36.25.67.53,1.33.81,1.99.632857,1.54477,1.413131,3.024947,2.33,4.42-.697426-1.236038-1.27666-2.53513-1.73-3.88-.45-1.35-.8-2.73-1.23-4.08-.052718-.168238-.231583-.262142-.4-.21Zm2.85-20.29l-.67.89c-.12.17-.25.34-.34.53-.24.58-.43,1.2-.62,1.8-.452875,1.491269-.767535,3.021054-.94,4.57.338841-1.881155.930888-3.707755,1.76-5.43l.35-.7c.11-.24.16-.53.23-.8l.23-.86Zm-5.17-1.32c-.165669.007526-.319482.088094-.42.22-.16.21-.15.41-.15.66v.53l.01.31.01.46v.72l.02.94c0,.33,0,.67.02,1c.1-1.1.24-2.2.4-3.3l.12-.9c.02-.1-.06-.23.02-.32.1-.13.32-.16.47-.2-.16-.06-.33-.13-.5-.12Zm-6.97.78c.14.31.26.63.35.96.06.22.1.44.18.66.07.22.17.43.25.65.17.46.31.93.44,1.4.41,1.5.68,3.06,1.32,4.5-.52-1.49-.68-3.05-.95-4.58-.09-.5-.18-1-.3-1.48-.07-.24-.11-.48-.21-.7-.08-.19-.27-.45-.38-.62-.2-.28-.45-.54-.7-.79Z" fill="#fff"/><path d="M226.98,276.86c4.1,1.46,12.49-.24,16.99-.36Z" fill="#fddf19"/><path d="M243.97,276.5c-1.09.03-2.17.12-3.25.2-2.46.2-4.91.43-7.37.58-1.57.1-3.22.2-4.8-.04c1.08.2,2.18.28,3.27.3c2.23.04,4.46-.2,6.67-.48c1.82-.23,3.64-.5,5.48-.56Zm-17,.35v.01c.000001-.003333.000001-.006667,0-.01Z" fill="#fff"/><path d="M227.19,278.74c2.88-.43,5.8.4,8.69-.03Z" fill="#fddf19"/><path d="M230.45,278.54c-1.090125-.014348-2.179804.052503-3.26.2c1.56-.22,3.13.05,4.7.14.84.04,1.7.05,2.55-.02.48-.03.96-.1,1.44-.15-.48.04-.97.1-1.45.1-.36,0-.72-.04-1.08-.07-.97-.06-1.93-.17-2.9-.2Z" fill="#fff"/><path d="M238.43,278.65c1.85-.08,3.7-.23,5.56-.25Z" fill="#fddf19"/><path d="M241.2,278.38c-.93.04-1.84.23-2.77.26v.01c.85-.05,1.7.03,2.56,0c1-.05,2-.23,3-.26-.93.02-1.86-.06-2.79-.01Zm17.44-31.27c-.17,0-.34.04-.49.1-.2.09-.37.2-.53.34-.614238.557861-1.087214,1.253616-1.38,2.03-.1.28-.16.59-.24.89-.130975.512638-.244375,1.029607-.34,1.55.2-.77.43-1.52.69-2.27.13-.38.37-.73.6-1.04.32-.44.7-.85,1.18-1.1.354597-.206978.808313-.111914,1.05.22.06.08.13.15.15.25.1.34.06.75.05,1.1-.02.49-.06.98-.09,1.46-.05.86-.1,1.73-.09,2.6c0,.72.05,1.47.2,2.18.2.9.67,1.9,1.68,2.02.407446.041915.818642-.027193,1.19-.2.58011-.362531,1.044921-.882842,1.34-1.5.7-1.21,1.2-2.54,1.8-3.8.236143-.547107.531219-1.066843.88-1.55.13-.17.31-.4.55-.42s.45.44.5.6c.22.64.2,1.36.21,2.02v1.17c.02,1.7.11,4.02,1.98,4.75.22.09.46.16.7.18c1.28.12,2.02-1.02,2.5-2.06.64-1.39,1-2.89,1.7-4.25.36-.67.85-1.34,1.6-1.56.53-.15.89.5,1.08.87.117746.233534.221269.473973.31.72.06.12.11.27.16.4l.42,1.08c.6,1.52,1.47,3.47,3.32,3.69.78.09,1.6-.1,2.2-.64.35-.33.6-.75.8-1.18.7-1.46,1-3.43,2.66-4.15.472923-.203026.985965-.295374,1.5-.27.86.07,1.34.68,1.71,1.38.46.87.79,1.81,1.5,2.51.699314.671818,1.549874,1.165692,2.48,1.44c2.4.65,4.79-.52,6.7-1.9-1.91,1.34-4.3,2.49-6.68,1.81-.394828-.108827-.774455-.266725-1.13-.47-.464038-.266243-.891035-.592374-1.27-.97-.76-.76-1.06-1.8-1.57-2.72-.37-.67-.92-1.2-1.71-1.28-.553408-.032497-1.107045.059776-1.62.27-1.48.62-1.97,2.18-2.53,3.55-.23.58-.5,1.19-.94,1.64-.56.57-1.4.76-2.16.62-.801066-.180825-1.489992-.688454-1.9-1.4-.71-1.09-1.07-2.37-1.54-3.58l-.16-.38c-.3-.7-.82-1.74-1.75-1.5-.9.25-1.49,1-1.92,1.78-.7,1.29-1.08,2.7-1.68,4.04-.38.84-1,2.06-2.11,1.88-.179812-.029398-.354764-.08323-.52-.16-1.33-.61-1.41-2.42-1.42-3.68v-1.63c.01-.36.01-.73-.01-1.1-.05-.78-.2-1.8-1-2.19-.84-.4-1.52.45-1.93,1.08l-.22.37c-.84,1.47-1.39,3.08-2.27,4.53-.35.58-.8,1.28-1.57,1.23-.69-.04-.94-.97-1.07-1.51l-.04-.23c-.113643-.705018-.183775-1.416363-.21-2.13-.019997-.476404-.029999-.953176-.03-1.43v-1.07l-.01-.73c-.01-.83.05-1.81-.86-2.21-.126206-.055746-.26208-.086318-.4-.09Zm-1.92,18.5c-.143064-.003978-.279828.05886-.37.17-.057132.069785-.104253.147198-.14.23-.05.1-.1.2-.12.3-.108505.517799-.182005,1.04232-.22,1.57.078792-.51378.192386-1.021615.34-1.52l.14-.28c.035098-.062515.078865-.119749.13-.17.33-.31.75.31.9.54l.14.2.14.23.14.24.21.4.3.6c.55,1.1,1.05,2.23,1.63,3.32.33.6.67,1.2,1.07,1.76.46.63,1.16,1.35,2.02,1.22c1.01915-.215827,1.915129-.817925,2.5-1.68.9-1.18,1.45-2.58,2.2-3.84.64-1.05,1.47-2.1,2.82-2.02.1,0,.23,0,.33.05.24.12.34.47.4.71.13.46.18.93.23,1.4l.05.42c.11,1.15.2,2.35.65,3.42.210798.570464.595606,1.060219,1.1,1.4.26.15.54.24.83.32c1,.28,2.02.14,2.91-.4.51-.32.96-.74,1.36-1.18.93-1.01,1.66-2.18,2.57-3.2.677293-.902775,1.639038-1.550984,2.73-1.84c1.360336-.353243,2.807121-.093844,3.96.71c1.2.84,2.13,2.13,3.57,2.6c1.9.62,4.02-.47,5.6-1.44.000002-.006667.000002-.013333,0-.02-1.58.93-3.7,1.98-5.56,1.34-1.33-.46-2.2-1.64-3.27-2.48-.362911-.283896-.759188-.522334-1.18-.71-.937958-.393214-1.971059-.501046-2.97-.31-.39.06-.77.16-1.13.32-.79.36-1.43.96-2.01,1.6-.86.94-1.57,2-2.43,2.95-.423617.494579-.919149.922692-1.47,1.27-.79.47-1.67.57-2.54.3-.293753-.071882-.571733-.197312-.82-.37-.432375-.369842-.736863-.866822-.87-1.42-.27-.87-.34-1.8-.4-2.7l-.1-1.04c-.07-.72-.18-1.89-.91-2.26-.186396-.081121-.386772-.125272-.59-.13-1.23-.1-2.18.54-2.92,1.47-1.02,1.28-1.6,2.84-2.54,4.17-.5.72-1.16,1.42-2.05,1.63-.1.03-.2.05-.3.03-.17761-.043962-.342166-.129668-.48-.25-.367141-.300788-.687335-.654686-.95-1.05l-.18-.26c-.335937-.489619-.656102-.989876-.96-1.5-.569398-.932402-1.126116-1.872488-1.67-2.82-.114004-.185014-.230683-.368367-.35-.55l-.25-.37-.23-.32c-.2-.26-.6-.74-1-.76ZM153.26,218.22c.906028,1.790993,1.661952,3.654046,2.26,5.57.528421,1.678061.821218,3.421382.87,5.18.01,1.08-.1,2.16-.38,3.2-.16.6-.38,1.2-.65,1.75-1.9,3.96-6.22,6.03-10.18,7.37-1.660451.573316-3.34936,1.060629-5.06,1.46-1.22.3-2.44.58-3.66.85-1.55.35-3.1.68-4.66,1.02-2.01.46-4.02.93-6,1.53-1.5.45-2.98.97-4.4,1.64-1.24.6-2.44,1.3-3.47,2.22-.27.24-.52.5-.75.77-1.136037-.270697-2.302588-.391722-3.47-.36-1.46.03-2.92.22-4.33.6-1.241633.292603-2.413779.826015-3.45,1.57-1.937587,1.562916-3.656308,3.379177-5.11,5.4-1.976455,2.74218-3.362341,5.86468-4.07,9.17-1.65,7.83.8,15.97,4.49,22.87c1.436074,2.699002,3.088128,5.277411,4.94,7.71-1.858683-2.632211-3.487996-5.419107-4.87-8.33-2.71-5.67-4.44-11.9-4.12-18.23.13-2.59.6-5.15,1.53-7.57.57-1.5,1.3-2.92,2.17-4.27c1.41195-2.201342,3.144343-4.179775,5.14-5.87.34-.29.68-.55,1.06-.77.77-.44,1.62-.75,2.47-1c1.5-.42,3.08-.62,4.63-.61.86,0,1.72.11,2.56.3-1.049744,1.799979-1.30334,3.955541-.7,5.95.27.83.88,1.95,1.92,1.82.32057-.0497.619553-.192238.86-.41.24-.2.46-.45.64-.7c1.02-1.4,1.93-3.46,1.03-5.12-.3481-.575218-.832319-1.056003-1.41-1.4-.447516-.256308-.924286-.45776-1.42-.6.23-.26.48-.5.74-.73c1.257105-1.034701,2.667232-1.867958,4.18-2.47c1.972261-.807359,4.001025-1.469131,6.07-1.98c3.7-.97,7.48-1.7,11.2-2.64c2.336986-.560455,4.635147-1.27195,6.88-2.13c3.5-1.39,7.08-3.46,8.75-7c.31-.65.55-1.34.72-2.05.25-1.08.32-2.18.28-3.29-.100546-1.721843-.426665-3.42304-.97-5.06-.608332-1.844398-1.364104-3.636851-2.26-5.36Zm-36.03,33.27c.19.05.38.07.56.13.6.21,1.16.5,1.63.92.18.17.34.35.47.56.83,1.3.16,2.93-.55,4.12-.3.5-.84,1.35-1.5,1.4-.56.04-.95-.62-1.13-1.04-.193022-.420929-.317914-.869863-.37-1.33-.24-1.6,0-3.38.9-4.76Zm154.13-54.45c.3,1.7.22,3.44-.11,5.14-.432511,2.224368-1.219179,4.364916-2.33,6.34-.4.73-.83,1.44-1.31,2.13-2.22,3.16-5.34,6.18-9.4,6.44h-.14c.08-.26.2-.5.26-.78.25-1.02.43-2.08.47-3.13.03-.64,0-1.29-.16-1.91-.08-.33-.2-.66-.38-.95-.13-.2-.29-.37-.47-.52-.79-.62-1.86-.44-2.7-.02-.34.16-.66.36-.95.6-1.42,1.1-2.78,3.24-1.93,5.07.12.25.27.48.45.68.25.29.55.53.87.73.72.43,1.54.68,2.36.83.47.1.96.15,1.44.18-.74,1.83-1.9,3.5-3.1,5.04-2.06,2.63-4.4,5.07-6.21,7.88-1.42,2.19-2.52,4.68-2.38,7.34.03.59.11,1.16.25,1.73.24.95.61,1.86,1.09,2.72.8541,1.489206,1.907117,2.855101,3.13,4.06-1.20807-1.220476-2.244261-2.599822-3.08-4.1-.45-.85-.82-1.76-1.04-2.7-.130805-.564785-.207816-1.14069-.23-1.72-.11-2.98,1.34-5.75,3.07-8.1.51-.69,1.03-1.37,1.58-2.03c1.5-1.83,3.1-3.56,4.55-5.43c1.12-1.44,2.17-3,2.86-4.7.24,0,.48.02.73,0c3.36-.27,6.37-2.35,8.47-4.9c2.375969-3.033256,3.926257-6.629923,4.5-10.44.27-1.82.28-3.69-.16-5.48Zm-14.97,12.93c.55656-.076963,1.107056.176812,1.41.65.12.18.21.38.28.6.12.35.17.72.2,1.09.048045,1.624103-.168105,3.245223-.64,4.8-.48569-.002875-.970445-.042992-1.45-.12-.729285-.095888-1.438365-.308612-2.1-.63-.29361-.149025-.563263-.341153-.8-.57-.152272-.148031-.283497-.316269-.39-.5-.73-1.28.08-2.86.96-3.83.396165-.422568.850775-.786256,1.35-1.08.35-.2.76-.37,1.18-.41ZM245.38,81.84c-4.65-.02-9.34.8-13.7,2.12-3.720436,1.139604-7.315541,2.654038-10.73,4.52-2.450057,1.340355-4.790641,2.871766-7,4.58-4.07,3.16-7.72,7-10.1,11.59c2.44-4.65,6.17-8.47,10.3-11.65c5.463822-4.101615,11.632073-7.168794,18.2-9.05c2.4-.69,4.85-1.2,7.32-1.5c6.03-.76,12.32-.34,17.96,2.06c2.07.89,4.03,2.03,5.8,3.42c1.843715,1.475624,3.478635,3.194645,4.86,5.11-1.81962.47904-3.575421,1.173974-5.23,2.07-.97.54-1.9,1.14-2.74,1.86-.914878.734579-1.60451,1.711846-1.99,2.82-.09.3-.15.61-.16.92-.08,1.78,1.14,3.25,2.5,4.23c2.06157,1.443956,4.534129,2.18397,7.05,2.11c1.076988-.013094,2.133132-.298631,3.07-.83.34-.21.66-.47.93-.77c1.61-1.8,1.1-4.5.33-6.55-.762644-1.911287-1.745977-3.726928-2.93-5.41c2.632985-.614026,5.342127-.836418,8.04-.66c4.55.3,9,1.65,12.83,4.16c6.58,4.32,10.62,11.41,12.53,18.9c1.06268,4.113575,1.563894,8.352021,1.49,12.6-.18,9.58-3.2,19.42-9.8,26.55c7.83-8.05,11.04-19.86,10.48-30.88-.158151-3.440721-.735757-6.849267-1.72-10.15-2.02-6.65-5.82-12.9-11.55-17-4.183992-2.93559-9.114797-4.62427-14.22-4.87-2.84-.17-5.72.08-8.49.78-2.549519-3.517095-5.939319-6.339636-9.86-8.21-4.224381-1.935379-8.8236-2.915317-13.47-2.87Zm23.3,11.76c.91,1.3,1.74,2.66,2.4,4.1.2.44.4.89.56,1.35.68,1.83,1.2,4.34-.18,5.99-.17.2-.37.38-.58.54-1.031537.693221-2.258468,1.036762-3.5.98-2.3,0-4.82-.81-6.64-2.24-1.26-.98-2.3-2.43-1.93-4.1.319573-1.111583.985114-2.09238,1.9-2.8.88-.76,1.89-1.38,2.92-1.91c1.603742-.82996,3.298421-1.470917,5.05-1.91ZM88.72,126.5c-2.511616,2.122989-4.710088,4.5908-6.53,7.33-3.633909,5.570494-5.383101,12.160634-4.99,18.8.58,9.92,5.9,19.8,14.8,24.61c2.796935,1.508618,5.866953,2.443562,9.03,2.75c2.18.2,4.4,0,6.54-.44c3.84-.8,7.4-2.44,10.7-4.53-3.548194,2.033948-7.450882,3.374437-11.5,3.95-2.84271.336651-5.720503.228692-8.53-.32-2.83852-.586171-5.537641-1.713351-7.95-3.32-8.32-5.46-12.92-15.54-12.8-25.35.088064-6.034482,1.94475-11.910511,5.34-16.9c1.679153-2.429041,3.658119-4.636479,5.89-6.57ZM149.3,77.08c-2.881955.007783-5.718061.72196-8.26,2.08-2.598739,1.461797-4.874487,3.434793-6.69,5.8c1.707092-2.125585,3.787865-3.921691,6.14-5.3c1.218233-.685406,2.514113-1.222559,3.86-1.6c5.12-1.44,10.6-.3,15.16,2.3c2.183205,1.230537,4.146639,2.815478,5.81,4.69.909182,1.00062,1.661092,2.133543,2.23,3.36.6,1.35.96,3.18-.08,4.42-.2.23-.42.43-.66.6-.41.27-.87.48-1.34.63-.7.22-1.43.34-2.16.4-1.21.1-2.43.06-3.64-.05c1.011721.188295,2.033393.318508,3.06.39.39.02.77.03,1.16.01c1.95-.06,4.28-.67,4.98-2.74.111603-.333062.178848-.679374.2-1.03.015094-.561495-.059166-1.12182-.22-1.66-.362535-1.18678-.931218-2.300452-1.68-3.29-1.288237-1.725912-2.840646-3.237824-4.6-4.48-3.82-2.78-8.53-4.55-13.26-4.53ZM308.64,274.9c3.489211,5.480216,5.383301,11.823859,5.47,18.32.17,11.65-5.38,23.07-14.08,30.7-4.508485,4.03269-9.942452,6.890503-15.82,8.32-1.561681.350203-3.145315.594096-4.74.73-2.12.2-4.25.23-6.37.03-4.260503-.436053-8.403562-1.656594-12.22-3.6c3.595504,2.081656,7.534082,3.504014,11.63,4.2c2.16.34,4.36.46,6.54.34c1.56-.08,3.12-.34,4.64-.68c3.351887-.764888,6.575339-2.011154,9.57-3.7c11.038333-6.320543,18.628217-17.291877,20.65-29.85.87-5.7.4-11.58-1.47-17.03-.958076-2.733007-2.233459-5.344186-3.8-7.78Z" fill="#fff"/><path d="M102.17,287.83c.44.66.7,1.4,1,2.12.15.37.32.73.5,1.1-.04.03.14.2.39.38.24.17.46.28.49.24-.17-.36-.34-.71-.49-1.08-.3-.75-.58-1.51-1.03-2.19.03-.04-.14-.2-.38-.36-.24-.15-.45-.25-.48-.2Zm-2.58-5.79c.37.99.85,1.93,1.25,2.9-.03.04.16.22.4.4.25.17.47.28.5.24-.4-.97-.88-1.91-1.25-2.9.03-.03-.15-.2-.4-.39-.24-.17-.47-.29-.5-.25Zm-1.12-5.93c.06.81.24,1.6.4,2.4-.04.04.14.23.39.41.25.19.48.3.5.26-.15-.8-.32-1.58-.38-2.39.03-.04-.14-.22-.4-.4-.24-.2-.47-.32-.5-.28ZM98,269.8c.05,1.06.08,2.14.14,3.2-.03.05.15.23.4.42s.48.3.51.27c-.06-1.07-.1-2.14-.14-3.2.03-.05-.14-.24-.4-.43-.24-.19-.47-.3-.5-.27Zm1.56-6.03c-.4.98-.63,2-.84,3.03-.03.04.15.23.4.42s.47.31.5.27c.186394-1.030388.467589-2.041351.84-3.02.03-.04-.15-.23-.4-.43-.25-.19-.47-.31-.5-.27ZM92.87,179.5c-.03.03.1.2.3.4.2.18.37.3.4.28.84.36,1.73.57,2.6.87.02-.03-.12-.22-.33-.41-.21-.2-.41-.33-.45-.3-.83-.28-1.7-.48-2.52-.84Zm4.25.93c-.03.03.12.23.35.43s.44.33.47.29l2.91.53c.03-.04-.12-.22-.35-.42s-.44-.33-.47-.3c-.98-.18-1.94-.37-2.91-.53Zm8.29.56c-1.16.03-2.31.03-3.47.03-.03.04.13.23.37.43.23.2.45.33.48.3c1.16,0,2.32,0,3.48-.04.03-.04-.13-.23-.37-.43s-.46-.33-.49-.3Zm5.39-1.25c-1.1.4-2.24.62-3.4.72-.04.03.13.23.37.43s.46.33.5.3c1.17-.1,2.3-.32,3.41-.73.03-.04-.14-.23-.38-.43s-.47-.33-.5-.29Zm4.03-2.07c-.684815.485844-1.454851.838635-2.27,1.04-.04.04.13.23.37.43s.47.32.5.29c.825242-.198957,1.60555-.551792,2.3-1.04.03-.04-.15-.24-.4-.43-.24-.2-.47-.33-.5-.3ZM61.89,101.29c-1.23.4-2.47.8-3.64,1.35-.73.34-1.45.7-2.16,1.07-.44.23-.87.47-1.29.73-.25.16-.5.32-.73.51-.22.19-.61.52-.46.86.04.1.13.2.2.28l.21.2.27.2c.67.5,1.52.61,2.32.75l.86.15c.4.08.82.15,1.22.24.42.09.83.2,1.24.31.64.2,1.25.43,1.83.77.02-.02-.07-.16-.2-.32-.13-.15-.26-.25-.29-.23-1.77-1.05-3.76-1.32-5.75-1.69-.347322-.057562-.691184-.134347-1.03-.23.06-.2.27-.39.4-.5.61-.55,1.37-.93,2.1-1.31.7-.38,1.42-.73,2.15-1.07c1.17-.55,2.4-.95,3.63-1.35.03-.04-.14-.24-.38-.44-.25-.2-.47-.32-.5-.28Zm90.42-42.95l-.66.33.45-.21-.22.12-.44.23c-.07.03-.3.15-.23.1.14-.09,0,0-.22.1-.02.02.07.13.2.23.14.11.26.18.28.16l.66-.34c-.15.08-.3.15-.44.24l.23-.1c.223816-.112868.44393-.232931.66-.36-.16.07,0,0,.21-.12.02-.02-.07-.12-.2-.23-.13-.1-.26-.17-.28-.15Zm2.09-1.04l-.66.26.43-.19-.22.09-.43.18c-.07.03-.29.11-.21.09l-.22.08c-.02.02.07.13.2.23.14.11.25.18.27.16l.22-.09.22-.09.43-.17.22-.09c-.14.07,0,0,.22-.07.02-.02-.08-.13-.2-.23-.14-.11-.26-.18-.28-.16Zm1.96-1.1l-.7.35c.15-.08.31-.16.48-.22.08-.03-.16.08-.23.13l-.48.23-.24.12c.15-.1,0,0-.25.1-.01.02.08.13.21.23.13.11.26.18.28.16.080698-.031633.160716-.064974.24-.1l.24-.12.48-.24c.08-.04.31-.15.23-.12-.17.06,0,0,.22-.14.02-.02-.08-.13-.2-.24-.14-.1-.26-.17-.28-.15Zm22.96,37.99c.23.9.4,1.8.55,2.72-.02.02.08.13.21.23.14.1.26.16.28.14-.14384-.920819-.327344-1.835002-.55-2.74.02-.02-.08-.12-.22-.22-.13-.1-.25-.15-.27-.13Zm.77,3.8l.13.9-.1-.6.04.3.1.58.05.3.04.3c-.02.02.08.12.22.22.13.1.26.16.27.14l-.04-.3-.05-.3-.1-.58-.04-.3c.04.2,0,0-.04-.3.02-.02-.07-.12-.2-.22-.14-.1-.27-.16-.28-.14Zm.49,2.95l.03.16.02.13.07.36.03.15.05.27c-.02.02.08.13.21.23.14.1.26.16.28.14l-.05-.27-.03-.15-.06-.37-.03-.12-.01-.08-.02-.09c.02-.02-.08-.12-.21-.22-.14-.1-.26-.16-.28-.14Zm67.64-18.03c-.01.02.07.12.19.23.11.1.22.17.24.15.7.23,1.42.36,2.13.54.02-.02-.07-.12-.19-.23-.12-.1-.23-.18-.25-.16-.7-.17-1.42-.3-2.12-.53Zm-3.27-.03c-.02.02.07.12.2.23.12.1.23.18.25.16l1,.02c-.23,0-.45-.01-.66.02-.11.02.22.02.33.03.272903.019355.546706.022694.82.01h.17l.16-.02c-.28-.03,0,0,.17-.02.02-.02-.07-.13-.2-.23-.13-.11-.25-.18-.27-.16-.056566.007495-.113239.014163-.17.02l-.16.01-.17.01c-.26.02-.54,0-.8-.01-.12,0-.44-.01-.33-.03.21-.04,0,0-.34-.05Zm-1.29.09l-1,.07.83-.04c.06,0-.1.02-.16.03l-.33.02-.66.02-.33.02-.33.03c-.02.02.07.12.2.23.13.1.25.18.26.16l.6-.05h.07c.27,0,.55,0,.82-.03l.17-.02.16-.02c-.27.01,0,0,.17-.03.02-.02-.07-.12-.2-.23-.14-.1-.26-.18-.27-.16Zm-3.21.22c-.69.1-1.36.24-2.01.47-.02.02.07.12.2.23.14.1.26.18.27.15.66-.22,1.33-.35,2-.46.03-.02-.07-.13-.2-.24-.13-.1-.24-.17-.26-.15Zm-3.49.66c-.68.2-1.36.36-2.05.53-.02.02.08.13.2.24.14.1.26.18.28.16.68-.17,1.36-.34,2.04-.54.02-.02-.07-.13-.2-.23-.14-.11-.26-.18-.27-.16Zm65.71,44.23c.05,1.12-.06,2.2-.34,3.28-.02.02.08.13.21.23.14.1.26.18.28.15.28-1.08.38-2.17.34-3.29.01-.02-.08-.12-.22-.22-.13-.1-.25-.17-.27-.15Zm-.55,4.54c-.15,1-.34,1.98-.58,2.97-.01.02.09.13.22.23.14.1.26.17.28.14.23-.98.42-1.97.57-2.97.01-.02-.08-.12-.22-.23-.13-.1-.25-.16-.27-.14Zm-.86,4.3l-.52,2.27c-.02.02.08.13.21.23s.26.17.27.14c.19-.75.36-1.5.53-2.27.02-.02-.08-.12-.22-.22-.13-.1-.26-.17-.27-.15Zm-1.07,3.91c-.18.66-.42,1.28-.7,1.9-.02.02.08.13.21.23s.26.17.28.15c.28-.62.52-1.24.7-1.9.02-.03-.08-.13-.22-.23-.13-.1-.26-.17-.27-.15ZM272.33,203c.07.85-.3,1.63-.54,2.41-.01.02.08.13.22.23.13.1.25.17.27.15.25-.79.61-1.57.54-2.41.02-.03-.08-.13-.21-.23-.14-.1-.26-.17-.28-.14Zm-1,3.78c-.28.85-.66,1.66-1.03,2.48-.02.02.08.13.21.23.14.1.26.18.28.15.37-.82.75-1.63,1.03-2.48.02-.03-.08-.13-.21-.24-.14-.1-.26-.17-.28-.14Zm1.44-6.28l-.08.72.04-.47-.03.24-.04.47-.03.24-.03.24c-.02.03.08.13.22.23.13.1.26.16.27.14l.03-.23.06-.48-.04.24.05-.48.03-.24c-.01.16,0,0,.04-.24.01-.02-.08-.12-.22-.22-.13-.1-.25-.18-.27-.15Zm-3.19,133.34c-.02.02.06.13.19.24.12.1.24.18.26.16.67.06,1.32.18,1.98.32.02-.02-.06-.12-.19-.22-.12-.11-.23-.18-.25-.16-.65916-.153759-1.327059-.267302-2-.34Zm3.32.58c-.01.03.08.13.21.24.13.1.25.18.27.16.74-.1,1.45.1,2.16.25.02-.02-.07-.12-.19-.23-.12-.1-.23-.18-.25-.16-.72-.15-1.45-.36-2.2-.26Zm3.91.46c-.02.02.07.12.2.23s.25.19.27.17c.77,0,1.54.04,2.32.08.02-.02-.07-.12-.2-.23-.13-.1-.24-.18-.26-.16-.77-.04-1.55-.09-2.33-.09Zm6.81-.75c-1.03.27-2.07.5-3.13.53-.02.02.07.13.2.23.13.11.24.18.26.16c1.064012-.05123,2.11812-.229153,3.14-.53.02-.02-.07-.12-.2-.23s-.25-.18-.27-.16Zm3.48-1.25c-.72.28-1.42.66-2.19.77-.02.02.08.13.2.24.14.1.26.17.28.15.77-.1,1.46-.5,2.19-.77.01-.02-.08-.13-.21-.23-.13-.11-.25-.18-.27-.16Z" fill="#fff"/></g></svg>
