<svg xmlns="http://www.w3.org/2000/svg" width="609" height="609" fill="none" viewBox="0 0 609 609"><path fill="#D6CA04" d="M212.16 289.5s-17.15-3.48-35.37-24.27c-18.22-20.8-35.28-59.85-53.92-81.66-18.64-21.8-35.96-22.46-35.96-22.46l34.1-16.79 119.04-57.47s11.97.99 20.68 19.54c8.7 18.56 14.13 54.68 14.13 54.68l-56.06-2.48-8.06 8.42c1.57 122.7 1.42 122.48 1.42 122.48Z"/><path fill="#D6CA04" d="m108.33 141.32 91.73-44.52s10.22-4.46 23.69 11.38c13.47 15.83 23.22 51.8 23.22 51.8l-28.83-.7-6.69 7 .61 107.58s-26.85-15.28-46.57-45.13c-19.73-29.86-18.02-46.34-32.3-68.2-14.3-21.85-24.86-19.21-24.86-19.21Z"/><path fill="#2B354E" d="M397.59 336.94h102.09l8.04 142.66-7.7-.84-8.56 7.21-15.09-.84-10.56-120.53-68.9-2.18.68-25.48Z"/><path fill="#303C59" d="m382.99 354.6 83.7 4.25 10.63 126.33-9.56 4.2L461 495l-94.61-12.44 16.6-127.96Z"/><path fill="#FDDF19" fill-opacity=".72" d="m215.8 374.68 73.23 56.02c4.08 3.13 4.95 9.2 1.93 13.55l-27.94 40.36c-3.02 4.35-8.77 5.35-12.86 2.22l-73.23-56.02c-4.08-3.12-4.95-9.19-1.93-13.54l27.94-40.36c3.02-4.35 8.77-5.35 12.86-2.23Z"/><path fill="#2B354E" d="M226.3 156.84H367a18.27 18.27 0 0 1 18.26 18.27v291.67A18.27 18.27 0 0 1 367 485.04H226.3a18.27 18.27 0 0 1-18.27-18.26V175.1a18.27 18.27 0 0 1 18.27-18.27Z"/><path fill="#303D5C" d="M220.2 169.81h153.44v299.52H220.2V169.8Z"/><path fill="#556FB1" d="M257.62 163.95h80.44a5.86 5.86 0 1 1 0 11.72h-80.44a5.86 5.86 0 0 1 0-11.72Zm-7.95 159.45h93.36a12.9 12.9 0 0 1 0 25.81h-93.36a12.9 12.9 0 0 1 0-25.8Z"/><path fill="#8CC2EE" fill-opacity=".78" d="M257.36 246.85h78.3v76.55h-78.3v-76.55Z"/><path fill="#2B354E" d="M377.38 239.6h86.78c6.54 0 11.85 5.3 11.85 11.85v42.48c0 6.55-5.3 11.86-11.85 11.86h-86.78a11.86 11.86 0 0 1-11.86-11.86v-42.48c0-6.55 5.3-11.85 11.86-11.85Z"/><path fill="#2B354E" d="M365.52 251.94h110.49v42.07H365.52v-42.07Z"/><path fill="#8CC2EE" fill-opacity=".72" d="M378.58 257.38h30.25v6.4h-30.25v-6.4Z"/><path fill="#8CC2EE" fill-opacity=".88" d="M378.4 269.81h48.09v6.36H378.4v-6.36Z"/><path fill="#D6CA04" d="M328.45 183.41H439.1v43.65H328.45V183.4Z"/><path fill="#F1D244" fill-opacity=".59" d="M317.68 189.9h131.86v31.96H317.68V189.9Z"/><path fill="#8CC2EE" fill-opacity=".92" d="M176.77 429.49h95.97a10.9 10.9 0 0 1 10.91 10.9v46.01a10.9 10.9 0 0 1-10.91 10.91h-95.97a10.9 10.9 0 0 1-10.9-10.9v-46.02a10.9 10.9 0 0 1 10.9-10.9Z"/><path fill="#F1D244" fill-opacity=".59" d="m124.53 149.54-9.29 5.04s2.16 2.93 1.35 5.63c-.82 2.7-4.6 5.17-4.6 5.17s6.95 3.61 15.2 14.63c8.26 11.02 8.4 12.06 19.78 30.5 11.4 18.44 14.72 28.58 29.98 46.23 15.26 17.64 31.08 24.34 31.08 24.34V270.9s-14.23-8.9-25.77-21.25c-11.53-12.36-19.95-23.9-27.8-40.4-7.84-16.48-9.4-28.98-17.01-41.67-7.6-12.7-12.92-18.05-12.92-18.05Z"/><path fill="#F1D244" fill-opacity=".66" d="m139.66 135.32 61.7-29.8s3.3 3.22 7.05 3.8c3.74.6 7.92-1.44 7.92-1.44s7.65 8.55 13.47 20.72c5.81 12.18 9.8 27.97 9.8 27.97s-5.13.25-11.8.3c-2.81.03-6.36.06-11.95 3.2-7.41 4.19-7.36 13.17-7.36 13.17l-.46 86.6s-15.41-8.45-22.96-17.92c-7.54-9.47-11.86-16.67-19.65-31.25-7.78-14.58-10.77-32.52-17.34-45.3-6.57-12.77-11.9-14.93-11.9-14.93s4.81-2.95 5.68-6.73c.87-3.78-2.2-8.4-2.2-8.4Z"/><path fill="#F1D244" fill-opacity=".47" d="m220.36 104.54 13.16-7.34s1.46 4.65 6.1 6.6c4.62 1.94 11.15-.44 11.15-.44s5 2.9 9.41 16.27 8.23 37.22 8.23 37.22h-22.35s-6.61-20.54-13.1-34.1c-6.5-13.56-12.6-18.2-12.6-18.2Z"/><path fill="#F3D300" fill-opacity=".89" d="M282.74 389.53c0-9.32 7.27-16.87 16.23-16.87s16.23 7.55 16.23 16.87-7.26 16.88-16.23 16.88c-8.96 0-16.23-7.56-16.23-16.88Z"/><path fill="#303D5C" fill-opacity=".92" d="M165.86 447.4h117.79v17.09H165.86V447.4Z"/><path fill="#303D5C" fill-opacity=".57" d="M181 471.14h16.91a3.3 3.3 0 0 1 3.3 3.3v7.94a3.3 3.3 0 0 1-3.3 3.3h-16.9a3.3 3.3 0 0 1-3.3-3.3v-7.94a3.3 3.3 0 0 1 3.3-3.3Z"/><path fill="#FDDF19" d="M177.75 504.4h43.05v9.4h-43.05v-9.4Zm60.74-9.7h43.05v9.4h-43.06v-9.4Z"/><path fill="#D6CA04" d="M232.4 504.1h43.05v9.4H232.4v-9.4Z"/><path fill="#3D4D76" d="M311.54 469.24c2.53-11.87 9.01-22.01 17.3-30.82 5.3-5.65 16.04-8.66 17.5-15.56 1.96-9.35-11.81-27.98-9.67-28.21.66-.08 7.93-4.48 13.32 3.29.66.95 2.44-4.53 3.33-4.76 2.68-.72 5.44 1.93 5.74 1.93 1.22 0 6.33-3.25 8.15-1.49 1.03 1.01-2.21 7.1-.62 5.27 5.62-6.5 10.98-1.54 12.54-1.36 1.81.22-9.8 18.06-6.73 25.96 1.52 3.9 5.53 9.39 8.94 13.37 3.39 3.93 14.43 13.48 18.02 26.15 4.33 15.26 1.74 31.69-.53 35.23-4.53 7.12-12.49 10.46-17.17 10.08-2.36-.2-3.84-1.42-5.18-.3-7.55 6.24-39.23 3.2-45.56-1.66-5.04-3.88-4.14 6.74-13.3-3.21s-8.61-22.04-6.08-33.9Z"/><path fill="#948128" fill-opacity=".83" d="M435.04 265.92c0-5.36 4.54-9.7 10.13-9.7 5.59 0 10.12 4.34 10.12 9.7 0 5.36-4.53 9.7-10.12 9.7-5.6 0-10.13-4.34-10.13-9.7Z"/><path fill="#F1D244" fill-opacity=".97" d="M443.69 265.71c0-5.36 4.53-9.7 10.13-9.7 5.6 0 10.13 4.34 10.13 9.7 0 5.36-4.54 9.7-10.13 9.7-5.6 0-10.13-4.34-10.13-9.7Z"/><path fill="#FDDF19" d="M346.22 419.46c-1.3-.19-2.2-.13-1.77 1.22.06.17.17.31.3.43 1.45 1.3-.81.84-1.25 2.6-.41 1.66 1.98.16.71 1.79-.24.31-.6 1.04.12 1.13 4.77.61 10.1.6 14.94.76 4.09.14 7.54 1.68 11.79.73.78-.18 3.08-.7 3.23-1.7.06-.38-.25-.67-.48-.88a4.42 4.42 0 0 1-1.36-2.29c-.11-1.1.45-2.06-.54-2.85-.62-.49.65-1.87-.04-2.05l-25.65 1.11Z"/><path fill="#fff" d="m371.65 418.08-2.42.1-5.88.26-17.14.74a.27.27 0 0 0-.16.07c-1.9.6-1.88-.3-1.97.72a2.22 2.22 0 0 0 .17.9c.13.3.39.46.59.7.05.06.13.19.12.23-.03.09-.2.17-.27.21l-.5.31c-.4.28-.71.63-.88 1.09-.13.37-.23.9.08 1.2.18.18.42.24.66.26l.24.03v.01l-.06.1c-.07.12-.15.22-.23.33-.29.38-.6 1.07-.1 1.42.12.08.25.12.4.14l.6.08.9.09c1.56.16 3.14.26 4.7.33 2.1.1 4.2.14 6.3.2 1.15.02 2.32.03 3.46.13 2.6.22 5.12.92 7.73.97a13.5 13.5 0 0 0 5.38-1.02c.46-.22.98-.55 1.16-1.06.24-.71-.38-1.09-.78-1.54a3.68 3.68 0 0 1-1.01-1.86c-.1-.68.15-1.36 0-2.03-.07-.29-.2-.55-.4-.77-.1-.11-.3-.2-.33-.36-.07-.55.54-1.1.29-1.65-.01-.03-.05-.05-.07-.08l.02-.02-.14-.12-.03-.03-.03-.02c-.02 0-.02.02-.04.03a.66.66 0 0 0-.36-.1Zm.1.56h.02l.02.01-.01.13v.01c-.13.34-.28.73-.32 1.09a.9.9 0 0 0 .09.52c.07.14.17.21.28.31.18.17.3.37.36.6.16.65-.1 1.33 0 1.98.1.82.6 1.58 1.14 2.17.22.23.8.6.67.98-.14.44-.83.72-1.2.88-1.16.49-2.6.74-3.82.8-.3.02-.67.03-.97.02-2.6-.04-5.13-.74-7.71-.95-1.36-.12-2.74-.12-4.1-.16-2.21-.05-4.42-.1-6.63-.21a71.08 71.08 0 0 1-4.01-.31l-1.2-.14a.5.5 0 0 1-.16-.05c-.1-.15.04-.38.11-.5.18-.3.71-.8.5-1.19-.15-.27-.44-.26-.7-.3-.11 0-.3 0-.36-.11-.11-.2.06-.63.13-.79.21-.41.59-.67.98-.9.27-.16.58-.33.63-.67a.71.71 0 0 0-.13-.49c-.17-.25-.45-.4-.6-.67a1.3 1.3 0 0 1-.14-.5c-.05-.39.13-.5.5-.54.15-.02-.01 0 1.06.07l.05.01 7-.3 13.05-.56 4.32-.2c.3 0 .6-.02.89-.03l.26-.01Z"/><path fill="#FDDF19" d="M162.97 135.37c-.21 3.75 5.9 4.1 11.04 6.5 3.06 1.43 4.33 4.17 4.43 5.66.3 4.57-2.87 9.12-8.53 10.1-.34.06.03 5.2.03 5.2l-4.03.04s.56-5.05-.06-5.1c-4.81-.43-6.66-2.7-7.4-3.75-1.45-2.1-.8-4.6-.8-4.6l4.12-.82s.2 3.87 3.77 4.61c.41.09.51-9.72.51-9.72l3.65 1.49s-.18 8.36.14 8.21c2.27-1.06 2.7-2.82 2.81-4.35.47-6.46-15.74-4.36-15.22-13.23.06-1.06.24-2.02.54-2.88 1.18-3.4 4.57-5.38 8.12-5.77.23-.03.2-5.24.2-5.24l3.66-.05s-.03 2.01-.03 3.59c0 1-.05 1.83.14 1.85 9.4 1.03 7.47 7.71 7.47 7.71l-3.9-.11s-.55-2.84-3.8-3.53c-.29-.07-.14 8.88-.14 8.88l-1.24-.3-1.76-.55s.2-8.05-.2-7.96c-1.75.43-3.24 1.6-3.52 4.12Z"/><path fill="#fff" d="m169.56 121.4-1 .01h-.9l-.46.02h-.46c-.2.01-.44 0-.6.14-.15.14-.13.33-.13.52v.97c0 .84-.02 1.68-.05 2.52-.01.36-.03.75-.1 1.12a24.49 24.49 0 0 0-.7.11l-.9.2c-1 .27-2 .68-2.9 1.23a8.56 8.56 0 0 0-4.17 6.82 6.3 6.3 0 0 0 .62 3.73c.89 1.65 2.56 2.7 4.21 3.45 1.22.55 2.49 1 3.75 1.44v1.34c-.04 1.9-.09 3.8-.19 5.7-.03.59-.06 1.18-.13 1.77-.02.13-.03.27-.06.4a4.1 4.1 0 0 1-1.99-1.15 4.95 4.95 0 0 1-1.12-1.96 5.9 5.9 0 0 1-.2-.78l-.04-.41c-.08-.09-.15-.19-.24-.26-.03-.03-.47.08-.53.1l-.44.08-1.18.24-1 .2-.58.11c-.16.03-.53.06-.63.2-.11.15-.12.4-.14.55a6.56 6.56 0 0 0 .16 2.68c.23.86.69 1.64 1.26 2.32 1.71 2.03 4.43 3.04 7.03 3.22l.02.04.04.15.02.17.05.72c.01 1.24-.1 2.49-.24 3.72.05.1.1.2.16.28.04.04.47.03.54.03l.43-.01 1.4-.02 1.3-.01c.16 0 .35.02.5-.01.37-.07.21-.66.2-.86l-.02-.23-.03-.52c-.05-.91-.1-1.83-.09-2.75 0-.29.02-.57.07-.86.3-.04.63-.13.91-.2.56-.15 1.1-.33 1.62-.56a9.85 9.85 0 0 0 6.1-9.3 5.68 5.68 0 0 0-.56-2.2 8.27 8.27 0 0 0-3.3-3.59 15.9 15.9 0 0 0-2.39-1.08c-.84-.33-1.7-.6-2.56-.88.07-.2.04-.45.04-.63v-.42l-.01-.41a223.7 223.7 0 0 1 .04-6.44l.03-.6.01-.05.12.03c.17.05.35.1.51.18a4.54 4.54 0 0 1 2.64 2.85c0 .02.03.17.05.19l.2.22c.05.03.48.02.56.02l.48.02h.49c.32.02.65.03.98.03l.48.02.5.01c.1 0 .53.05.6 0l.16-.19c.03-.04.05-.17.06-.21a6.35 6.35 0 0 0-.12-2.96c-.79-2.74-3.38-4.08-6-4.63-.49-.1-1-.2-1.5-.24-.02-.1-.04-.2-.04-.31-.02-.35 0-.68 0-1.03 0-.93 0-1.87.02-2.8v-.8c0-.05.04-.19.01-.23-.04-.08-.07-.17-.13-.24-.06-.08-.45-.05-.54-.05Zm-.06.55h.16v.43l-.01 1.25c-.01.92-.03 1.83-.02 2.75 0 .26-.03.7.19.9.13.13.31.12.49.14a14.69 14.69 0 0 1 2.68.58c1.1.38 2.16.92 2.98 1.76a5.33 5.33 0 0 1 1.32 4.76c-.73-.04-1.47-.03-2.2-.06l-.97-.02-.27-.01v-.02l-.16-.41a5.1 5.1 0 0 0-3-2.87c-.33-.12-.76-.33-1.08-.14-.13.08-.13.4-.15.52-.05.57-.06 1.13-.07 1.69a134.68 134.68 0 0 0 .02 6.5l-.58-.13a18.2 18.2 0 0 1-1.86-.57v-.03l.01-.36.02-1.05c.03-1.7.04-3.42-.03-5.12a5.26 5.26 0 0 0-.12-1.12c-.03-.1-.07-.26-.18-.3-.19-.1-.3-.03-.47.02-.38.1-.75.24-1.1.43-1.46.78-.01.01-2.4 3.83 0 .04 0 0-.01.03v.02c-.04.4.02.79.15 1.17.56 1.67 2.53 2.5 4.14 3.07l.54.2 2.16.73c1.1.36 2.2.74 3.26 1.18.69.28 1.36.58 1.99.99a7.74 7.74 0 0 1 2.63 2.9c.31.6.56 1.27.61 1.96a9.26 9.26 0 0 1-4.9 8.65 10.83 10.83 0 0 1-3.06 1.1c-.15.03-.35.04-.49.14-.22.16-.21.78-.22 1.02a39.17 39.17 0 0 0 .15 4v.1h-.91c-.84.01-1.69.01-2.53.03l.03-.37.1-1.23c.06-.8.1-1.62.05-2.42-.01-.29-.03-.66-.22-.9-.2-.25-.59-.2-.87-.23-.6-.08-1.2-.19-1.78-.35a8.64 8.64 0 0 1-4.25-2.46 5.61 5.61 0 0 1-1.46-4.45c0-.1.01-.2.03-.29 0-.08.02-.14.03-.22v-.02h.01l.3-.06.74-.15 2.02-.4.58-.11a6.24 6.24 0 0 0 .55 1.82 4.82 4.82 0 0 0 2.54 2.47c.28.11.84.35 1.12.2.13-.07.17-.3.2-.43.07-.4.1-.83.14-1.24.13-1.72.17-3.43.2-5.14l.04-2.21.01-.5c.74.28 1.47.6 2.2.9l.7.28.2.08v.3l-.02 1.02a213.63 213.63 0 0 0 .02 5.5v.37l.03.3.02.27c.02.13.1.6.37.55.14-.03.27-.1.4-.17a6.04 6.04 0 0 0 .97-.65 4.56 4.56 0 0 0 1.66-3.19 3.9 3.9 0 0 0-.43-2.68 5.77 5.77 0 0 0-2.28-1.94c-.99-.53-2.05-.92-3.1-1.3-2.06-.73-4.2-1.36-6.1-2.47-1.7-1-3.03-2.4-3.24-4.44a8.19 8.19 0 0 1 .09-2c.13-.9.35-1.79.75-2.6a8.45 8.45 0 0 1 4.22-3.9c.8-.35 1.63-.6 2.48-.76.29-.06.58-.07.86-.14a.48.48 0 0 0 .18-.08c.1-.08.12-.27.14-.38.06-.39.07-.78.08-1.16.04-.85.05-1.7.05-2.55 0-.35.02-.7 0-1.06h.18l.91-.02c.62 0 1.23-.02 1.84-.03Zm-3.2 9.64c.08.42.1.85.12 1.28a66.5 66.5 0 0 1 .03 4.02l-.02 1.06-.01.66-.01.17c-.45-.26-.21-.57-3.17-3.4a4.13 4.13 0 0 1 2.9-3.74l.16-.05Zm-3.05 3.82c0-.02-.19 1.91 0 .02v-.02Zm6.7 9.95c.78.42 1.56.94 2.03 1.7.44.72.45 1.52.34 2.33a4.68 4.68 0 0 1-.84 2.2 4.1 4.1 0 0 1-1.46 1.2 25.88 25.88 0 0 1-.09-2.14c-.02-1.39 0-2.77.02-4.16v-1.13Z"/><path fill="#FDDF19" d="M135.84 224.18c.58 5.37 9.45 4.41 17.4 6.6 4.74 1.3 7.2 4.88 7.7 6.97 1.52 6.4-2 13.61-9.9 16.35-.48.17 1.25 7.35 1.25 7.35l-5.8 1.03s-.36-7.3-1.26-7.22c-7.03.55-10.22-2.25-11.51-3.55-2.6-2.63-2.25-6.33-2.25-6.33l5.74-2.15s1.2 5.43 6.5 5.64c.62.03-1.53-13.91-1.53-13.91l5.59 1.25s1.7 11.9 2.13 11.6c3-2.04 3.23-4.63 3.03-6.84-.84-9.27-23.68-2.43-25-15.13a14.7 14.7 0 0 1 .1-4.22c.9-5.09 5.32-8.72 10.33-10.1.33-.1-.94-7.49-.94-7.49l5.26-.95s.42 2.87.8 5.1c.23 1.42.36 2.61.63 2.6 13.77-.78 12.55 9.16 12.55 9.16l-5.65.76s-1.44-3.9-6.27-4.1c-.44-.02 1.87 12.63 1.87 12.63l-1.86-.13-2.66-.36s-1.6-11.47-2.15-11.24c-2.41 1.02-4.28 3.03-4.1 6.68Z"/><path fill="#fff" d="m142.69 202.8-.16.03-.39.06-1.05.2-2.98.53-.28.05c-.19.04-.59.05-.67.27-.06.16.03.44.06.57l.18 1.1c.2 1.32.42 2.63.59 3.95a17.6 17.6 0 0 1 .14 1.72l-.16.05a17.6 17.6 0 0 0-3.06 1.23c-3.43 1.78-6.28 4.82-7.09 8.69a14.64 14.64 0 0 0-.24 3.86c.06 1.02.21 2.03.57 2.99.2.54.46 1.06.78 1.54 2.16 3.3 6.5 4.35 10.13 5.05.75.15 1.5.28 2.25.4l.63.1v.08l.03.15.03.18.03.2.03.22.08.54.09.62c.41 2.83.82 5.66 1.12 8.5.08.73.16 1.45.2 2.18v.58l-.03.15h-.11a6.02 6.02 0 0 1-3.2-1.18 7.35 7.35 0 0 1-2.18-2.72c-.16-.34-.3-.69-.41-1.04-.1-.3-.08-.5-.35-.68-.07-.05-.38.1-.46.13l-.32.11-1.5.56-.37.14-1.53.58-.76.28-.44.17-.16.06c-.1.03-.4.1-.45.2-.1.15-.08.28-.09.47a6.5 6.5 0 0 0 .02.79 9.16 9.16 0 0 0 .82 3.27 8.56 8.56 0 0 0 2.32 2.94c3 2.52 7.06 3.16 10.86 2.85l.05.08.04.07.08.19c.11.3.17.6.24.92l.07.36.07.42c.2 1.26.3 2.54.4 3.8l.05.82c0 .07-.02.25.02.3.04.08.08.17.14.24.08.08.43-.02.53-.04l.37-.06 2.53-.45 1.81-.32c.23-.04.53-.06.75-.14.35-.12.1-.65.06-.85-.02-.09-.03-.19-.06-.28l-.07-.3-.09-.38a58.67 58.67 0 0 1-.97-5.21v-.37a15.75 15.75 0 0 0 7.3-5.08 13.7 13.7 0 0 0 2.76-11.15 7.9 7.9 0 0 0-1.3-2.94 9.8 9.8 0 0 0-1.45-1.7 12.1 12.1 0 0 0-4.34-2.66c-1.1-.39-2.26-.63-3.4-.86-1.32-.27-2.65-.46-3.97-.66l.05-.09v-.06l-.04-.18-.02-.14-.03-.16-.08-.39-.24-1.37c-.39-2.23-.77-4.46-1.1-6.7-.14-.89-.28-1.78-.37-2.68a8.59 8.59 0 0 1-.04-.6h.05a6.87 6.87 0 0 1 3 .88 6.5 6.5 0 0 1 2.65 2.82c.02.05.05.17.09.2l.19.17c.07.05.28 0 .36-.02l.66-.1.3-.03.9-.12 1.45-.2.65-.09.5-.07c.1 0 .2-.02.29-.03l.31-.05c.12-.02.38-.02.48-.1.09-.1.06-.08.1-.2.03-.09.03-.22.03-.31a8.46 8.46 0 0 0-.48-3.2 8.05 8.05 0 0 0-.89-1.83c-2.06-3.14-5.91-4.08-9.45-4.16-.65-.02-1.3-.01-1.95.03l-.01-.02-.05-.13-.08-.38c-.1-.49-.17-.97-.25-1.46l-.63-3.99-.15-.99-.04-.26c0-.01 0-.2-.03-.22l-.27-.23Zm-.24.6v.06l.08.49.21 1.4.56 3.57c.07.42.13.85.22 1.27.05.22.1.46.22.65.2.29.5.21.8.2.4-.02.8-.02 1.21-.02 1.8 0 3.63.22 5.32.84a7.74 7.74 0 0 1 5.34 7.17c0 .22 0 .44-.02.66l-.1.02-.87.11-2.79.38-1.05.14-.4.05v-.03a6.5 6.5 0 0 0-1.29-1.82 7.3 7.3 0 0 0-3.97-2.1c-.37-.06-.79-.14-1.17-.12-.14 0-.2.04-.27.14-.12.15-.08.44-.07.61.03.51.09 1.02.15 1.53.28 2.1.64 4.2 1 6.3l.51 2.96.19 1.04v.03l-.57-.04-.91-.07c-.66-.06-1.33-.18-1.99-.27l-.45-.06v-.02l-.04-.27-.12-.79-.35-2.34c-.3-2-.63-4-1.05-5.97-.1-.48-.2-.97-.37-1.42-.05-.15-.15-.4-.33-.44-.29-.08-.62.16-.86.29-.4.2-.77.44-1.13.71-1.32 1-.89.76-1.27 2.34a5.62 5.62 0 0 1 2.66-2.55l.29-.14a.57.57 0 0 1 .1-.04l.06.15.1.33.2.9c.22 1.04.41 2.1.6 3.15.25 1.53.49 3.07.71 4.6l.2 1.3.01.1c-.23-.05-.47-.09-.7-.15-1.76-.44-3.88-1.14-4.65-2.94-.15-.34-.06-.18-.28-1.07v-.07a7.33 7.33 0 0 1 .07-1.62c0-.06.03-.12.04-.18-.2.56-.32.98-.67 1.8v.02l-.01.02h.01v.03c.04.55.22 1.07.48 1.57 1.1 2.06 3.79 2.76 5.92 3.2h.01c.02.02.1.02.17.03l.2.04h.04l1.07.2c1.09.19 2.19.35 3.28.51 1.33.2 2.65.41 3.96.68 1.12.23 2.25.47 3.33.85a11.62 11.62 0 0 1 5.3 3.82c.6.8 1.13 1.7 1.36 2.69 1.22 5.13-.95 10.38-5.07 13.56a15.95 15.95 0 0 1-4.18 2.3c-.21.09-.46.11-.62.27-.1.1-.12.29-.12.42-.01.34.03.67.08 1 .17 1.3.45 2.58.73 3.86l.37 1.63.1.4-.81.13-.73.13c-1.22.22-2.45.47-3.68.66l-.02-.38c-.02-.4-.06-.82-.1-1.22a32.28 32.28 0 0 0-.56-4.28c-.07-.36-.25-1.03-.6-1.23-.2-.13-.47-.06-.69-.04l-.83.03c-.98.02-1.97-.02-2.94-.16a12.11 12.11 0 0 1-6.74-3.02 7.67 7.67 0 0 1-2.5-5.2l-.04-.47.01-.63.17-.07.61-.22.76-.28.98-.37 2.12-.8.65-.24v.03l.2.56c.2.55.47 1.09.78 1.59a6.95 6.95 0 0 0 5.69 3.38c.1 0 .17-.03.24-.1.14-.14.15-.41.16-.59.01-.48-.03-.97-.07-1.45l-.06-.66a154.1 154.1 0 0 0-.87-7l-.46-3.14-.12-.87v-.03l.1.02.14.04.29.07.5.11 2.52.56 1.04.23.41.1.01.04.04.28.16 1.07c.16 1.08.32 2.16.5 3.24.28 1.8.57 3.6.95 5.38.09.43.17.88.34 1.3.04.12.12.28.25.32.25.09.47-.15.66-.3a7.95 7.95 0 0 0 1.87-2 7.38 7.38 0 0 0 .94-4.25 5.3 5.3 0 0 0-1.03-3.13 7.33 7.33 0 0 0-3.26-2.16c-1.6-.6-3.3-.94-4.97-1.24l-1.78-.3c-2.46-.41-4.94-.8-7.3-1.6-2.57-.87-5.01-2.28-6.1-4.88a10.33 10.33 0 0 1-.7-3.85c-.01-1.31.11-2.64.5-3.9a12.36 12.36 0 0 1 5.2-6.6 16.38 16.38 0 0 1 4.33-1.99c.2-.06.33-.06.47-.21.09-.1.09-.28.09-.4a8 8 0 0 0-.06-.98c-.13-1.32-.34-2.63-.55-3.94l-.27-1.67-.06-.4.04-.02.15-.03.27-.04.38-.07.64-.11 2.37-.43.85-.16Zm-6.22 18.95c.25-.7.5-1.37.6-1.77a6.09 6.09 0 0 0-.6 1.77Zm-.12 1.84.01.03v-.05.02Zm11.98 12.34c1.8.58 3.59 1.48 4.27 3.23.3.74.35 1.56.35 2.35a6.11 6.11 0 0 1-2.6 5.23l-.11.08-.1-.25c-.14-.56-.24-1.12-.35-1.69a131.6 131.6 0 0 1-1.1-6.56l-.22-1.42-.1-.65c0-.1-.02-.21-.04-.32Z"/><path fill="#FDDF19" d="M192.7 185.5c-.35 7.28 11.89 7.84 22.2 12.4 6.15 2.7 8.73 8 8.96 10.88.7 8.86-5.58 17.73-16.88 19.75-.68.13.14 10.06.14 10.06l-8.07.17s1.05-9.8-.19-9.9c-9.65-.71-13.39-5.1-14.86-7.1-2.96-4.04-1.7-8.9-1.7-8.9l8.23-1.68s.47 7.5 7.62 8.86c.83.16.86-18.86.86-18.86l7.32 2.82s-.2 16.22.44 15.92c4.5-2.1 5.35-5.52 5.54-8.5.82-12.53-31.58-8.14-30.7-25.34.1-2.06.46-3.92 1.05-5.6 2.3-6.6 9.05-10.52 16.13-11.34.47-.06.31-10.16.31-10.16l7.34-.18s-.04 3.9 0 6.97c.01 1.94-.07 3.54.3 3.58 18.83 1.81 15.09 14.8 15.09 14.8l-7.82-.14s-1.13-5.5-7.65-6.77c-.58-.12-.13 17.23-.13 17.23l-2.5-.56-3.53-1.04s.27-15.61-.53-15.42c-3.49.86-6.45 3.16-6.98 8.05Z"/><path fill="#fff" d="m206.08 158.53-.84.02-.96.02-1.98.05-2.36.06-.4.01h-.23c-.1 0-.27-.02-.35.05-.21.17-.13.43-.13.67v1.15c.02 1.57.03 3.15 0 4.73a57.4 57.4 0 0 1-.09 2.45c-.02.3-.04.6-.08.9l-.04.22v.01l-.31.04c-.3.04-.59.1-.89.15-.89.15-1.77.34-2.63.6-2.55.73-4.98 1.9-7.07 3.52a15.9 15.9 0 0 0-5.01 6.38 18.84 18.84 0 0 0-1.31 8.6c.19 1.69.79 3.31 1.76 4.71 1.98 2.86 5.21 4.64 8.36 5.93 2.37.97 4.8 1.78 7.22 2.58v1.38l-.02.55v1.32c-.05 3.87-.09 7.74-.3 11.6-.05.86-.1 1.74-.2 2.6l-.12.72-.05.2-.28-.06a8.36 8.36 0 0 1-4.14-2.27 9.94 9.94 0 0 1-2.38-4.1 11.71 11.71 0 0 1-.43-1.95c0-.04 0-.18-.02-.2-.06-.09-.1-.17-.17-.24-.07-.06-.5.05-.6.07l-.44.1-2.7.55-2.2.44-1.08.22-.64.14-.23.04-.24.05c-.1.02-.3.03-.37.1-.16.18-.15.43-.2.65a8.32 8.32 0 0 0-.12.95 12.04 12.04 0 0 0 .4 4.5 11.5 11.5 0 0 0 2.25 4.04 17.2 17.2 0 0 0 8.14 5.21 29.8 29.8 0 0 0 6.24 1.15c.05 0 .16.35.17.4.12.47.14.95.16 1.43l.02.5a52.98 52.98 0 0 1-.36 6.84c-.02.23-.1.44.05.65.08.12.41.07.54.06.31 0 .63 0 .94-.02l3.24-.06 2.39-.06.89-.02c.1 0 .2.01.28 0 .35-.08.2-.66.19-.87l-.02-.16-.03-.38-.03-.44-.04-.5a78.86 78.86 0 0 1-.25-6.1c0-.41.02-.82.06-1.23l.06-.35c0-.02 0-.04.02-.06.44-.05.88-.16 1.31-.26 1-.24 1.99-.54 2.95-.9 6.3-2.39 11.3-7.64 12.52-14.38.24-1.29.33-2.6.27-3.91-.2-4.35-3.41-8.31-6.98-10.53-1.3-.8-2.72-1.4-4.15-1.95a95.85 95.85 0 0 0-6.58-2.24h-.02c.1-.18.06-.51.06-.66l-.01-.22v-.26l-.01-.44-.02-.5v-.77c-.08-3.52-.14-7.04-.1-10.56 0-.9.02-1.8.07-2.7.02-.24.03-.49.06-.73 0-.07.02-.13.04-.2l.17.04a9.53 9.53 0 0 1 4.36 2.17 8.94 8.94 0 0 1 2.6 4c.02.07.03.24.07.3.06.06.1.14.17.2.06.05.5.03.6.03h.48l.98.03.98.02 1.95.03.98.02.48.01 1.02.02c.07 0 .47.04.52 0l.21-.2c.04-.03.06-.24.07-.27l.03-.15a11.62 11.62 0 0 0-.28-5.6c-.21-.7-.5-1.37-.85-2-2.4-4.32-7.43-6.12-12.04-6.85-.72-.12-1.45-.21-2.18-.28a1.4 1.4 0 0 1-.08-.28c-.03-.3-.04-.59-.04-.88-.03-1.24-.03-2.5-.03-3.74v-4.49l.02-.66c0-.04.02-.19 0-.22-.06-.1-.12-.19-.2-.27-.02-.03-.39-.01-.44-.01Zm.08.56-.01.17-.01 2.58.02 4.86c0 .59-.01 1.17.03 1.75.01.28.02.6.15.87.18.39.58.33.96.37.72.08 1.44.18 2.16.3 2.6.46 5.2 1.24 7.43 2.67a10.33 10.33 0 0 1 4.91 10c-.02.23-.06.46-.1.7l-.05.35-.04.16h-.12l-.63-.02c-.65-.01-1.31-.01-1.96-.03-1.56-.03-3.12-.03-4.68-.1l-.02-.12c-.06-.2-.14-.38-.21-.57a9.56 9.56 0 0 0-6.02-5.66 7.9 7.9 0 0 0-1.56-.4c-.14-.02-.2 0-.3.1-.16.16-.18.64-.2.85-.08.79-.1 1.58-.1 2.37-.06 2.9-.02 5.79.02 8.68l.08 3.9.03 1.08v.16l-.06-.01-.23-.05-.45-.1-.86-.2c-.7-.15-1.38-.36-2.07-.56-.6-.18-1.2-.34-1.78-.53v-.36l.01-1.18c.02-1.21.03-2.43.03-3.64 0-2.57-.02-5.15-.16-7.72-.03-.65-.07-1.31-.2-1.95-.05-.2-.1-.48-.3-.6-.22-.1-.5.03-.7.08-.74.21-1.45.49-2.12.84-1.7.9-1.46.92-1.93 2.24.15-.17.3-.36.46-.52.42-.38.88-.72 1.36-1.01a9.75 9.75 0 0 1 1.97-.88l.66-.19.04.16.07.38c.08.62.12 1.25.15 1.88a134.35 134.35 0 0 1 .13 8.64l-.02 1.96v1.52l-.02.16-1.06-.4c-2.4-1-5.32-2.5-5.83-5.33-.06-.37-.01-.22-.06-1.14-.01.07-.03.08-.01-.04v-.04c.06-.48.16-.94.26-1.4l-.7 1.19h-.02l-.07.14c0-.1.22-2.99-.02.02 0 .01 0 0 0 0-.05.68.05 1.34.25 1.99.93 3 4.36 4.5 7.05 5.5.1.05.22.08.33.12v.02c.04.06.39.13.46.15l.1.03 1.08.38c3.4 1.13 6.83 2.09 10.2 3.3 2.67.97 5.21 2.1 7.34 4.04a14.55 14.55 0 0 1 3.66 5.1c.36.86.65 1.78.72 2.7.1 1.45.04 2.9-.22 4.33-1.05 5.75-4.96 10.49-10.13 13.08a22.57 22.57 0 0 1-5.97 2c-.15.02-.38.03-.52.14-.17.13-.2.42-.23.62-.07.47-.08.95-.09 1.43-.02 2.05.12 4.1.26 6.14l.1 1.5.02.29c-.59.03-1.19.02-1.78.04l-3.95.08-1.74.03.01-.11.07-.69c.06-.67.12-1.34.16-2 .12-1.75.2-3.5.1-5.24-.03-.47-.12-1.4-.52-1.72-.23-.19-.63-.15-.88-.17l-1.14-.13a26.19 26.19 0 0 1-3.96-.82 16.79 16.79 0 0 1-8.44-5.31 10.57 10.57 0 0 1-2.35-8.44c.03-.25.07-.5.13-.76.26-.04.52-.1.77-.16l.62-.12.87-.18 1.68-.35 2.79-.57.88-.18.15-.03.02.16a10.61 10.61 0 0 0 .87 3.04 9.35 9.35 0 0 0 6.92 5.62c.1.01.18 0 .27-.07.25-.18.28-.66.33-.92.13-.86.18-1.74.23-2.6.2-3.17.25-6.35.3-9.52l.05-4.27v-1.36c.03 0 .05.02.07.03l.21.07.38.16.7.26 4.02 1.55 1.4.54v.51l-.03 1.47v4.4c0 2.45 0 4.92.15 7.37 0 .22.02.42.03.64l.06.55c.03.23.06.9.31 1.02.27.14.63-.13.86-.25a9.52 9.52 0 0 0 2.93-2.28 9.73 9.73 0 0 0 2.15-5.41 6.85 6.85 0 0 0-.71-4.33c-.96-1.69-2.64-2.84-4.31-3.73a43.15 43.15 0 0 0-6.57-2.63c-4-1.34-8.12-2.49-11.86-4.48-3.13-1.66-5.97-4.02-6.87-7.6a13.86 13.86 0 0 1-.13-5.31 17 17 0 0 1 1.5-5.12c1.68-3.43 4.7-6 8.12-7.6a22.68 22.68 0 0 1 6.7-1.94c.23-.03.44 0 .63-.15.12-.1.15-.32.17-.46.08-.43.1-.88.12-1.32.1-1.78.1-3.57.1-5.36l-.02-2.27v-.66h.15l.41-.01 1.2-.03c1.66-.05 3.33-.08 5-.12Zm-12.94 25.03c1.19-2 1.64-3.04 1.9-3.75a8.41 8.41 0 0 0-1.85 3.48l-.05.27Zm-.26 1.44v.04c.01-.02.01-.07.02-.06l-.02.02Zm13.64 18.8c.21.1.44.17.64.28 1.5.8 2.99 1.8 3.92 3.24.94 1.45 1 2.98.77 4.64a9.27 9.27 0 0 1-1.44 4.06 8.64 8.64 0 0 1-2.57 2.4c-.32.2-.65.39-1 .56l-.03.01-.04-.17a9.67 9.67 0 0 1-.07-.56c-.06-.7-.07-1.39-.1-2.08a181.05 181.05 0 0 1-.1-8.99v-1.59l.01-.96v-.6l.01-.24Z"/><path fill="#FDDF19" d="M352.05 462.43c-.2 3.75 5.91 4.1 11.05 6.5 3.06 1.43 4.32 4.17 4.43 5.66.3 4.57-2.88 9.11-8.53 10.1-.34.06.02 5.19.02 5.19l-4.03.05s.57-5.05-.05-5.1c-4.82-.43-6.67-2.7-7.4-3.75-1.45-2.1-.8-4.6-.8-4.6l4.12-.82s.2 3.87 3.77 4.6c.41.1.51-9.71.51-9.71l3.64 1.49s-.17 8.36.15 8.2c2.26-1.06 2.7-2.81 2.81-4.35.47-6.45-15.74-4.35-15.23-13.22.07-1.06.25-2.02.55-2.88 1.18-3.4 4.57-5.39 8.12-5.77.23-.03.2-5.24.2-5.24l3.66-.06s-.03 2.02-.03 3.6c0 1-.05 1.83.14 1.85 9.4 1.02 7.47 7.7 7.47 7.7l-3.9-.1s-.55-2.85-3.8-3.54c-.3-.06-.14 8.89-.14 8.89l-1.24-.3-1.77-.56s.2-8.05-.2-7.95c-1.74.43-3.23 1.6-3.52 4.12Z"/><path fill="#fff" d="m358.64 448.45-.98.01-.45.01-.47.01-.46.01h-.45c-.2 0-.43-.02-.6.13-.14.15-.13.34-.13.53v.98c-.01.83-.02 1.67-.05 2.5-.02.38-.02.76-.09 1.13l-.27.04-.45.07-.89.2c-1.01.28-2 .68-2.9 1.23a8.54 8.54 0 0 0-4.18 6.81 6.5 6.5 0 0 0 .62 3.74c.9 1.64 2.57 2.7 4.23 3.45 1.22.56 2.47 1 3.74 1.44v.9l-.01.43c-.04 1.9-.07 3.8-.17 5.7-.04.6-.08 1.19-.15 1.78l-.05.4a4.39 4.39 0 0 1-2-1.14 4.98 4.98 0 0 1-1.29-2.68l-.03-.21c-.01-.05 0-.25-.04-.27-.08-.09-.15-.18-.24-.26-.02-.01-.36.06-.38.07l-.72.14-1.03.2c-.34.08-.7.14-1.04.21l-.51.1c-.13.03-.55.07-.63.16-.2.24-.2.65-.22.92a7.31 7.31 0 0 0 .19 2.36c.24.87.7 1.63 1.27 2.31 1.7 2.03 4.42 3.04 7.03 3.22l.02.05.03.14.03.18c.03.22.04.52.04.72.02 1.24-.1 2.5-.24 3.72.06.1.1.2.17.29.03.02.14.02.18.02l.43-.01h.5l1.51-.02.5-.01.51-.01c.17 0 .37.03.53 0 .12-.04.18-.2.24-.3v-.09l-.03-.28v-.2l-.02-.22-.02-.53c-.05-.91-.1-1.82-.1-2.74 0-.29.02-.58.06-.87.31-.03.63-.12.92-.2.55-.14 1.1-.33 1.63-.56a9.83 9.83 0 0 0 6.08-9.3 5.74 5.74 0 0 0-.56-2.2 8.25 8.25 0 0 0-3.29-3.58 16.1 16.1 0 0 0-2.4-1.1c-.83-.31-1.68-.59-2.54-.87.06-.2.03-.46.03-.63v-.83a238.2 238.2 0 0 1-.02-4.63c0-.6.02-1.2.04-1.8l.04-.6.01-.05c.04 0 .07.03.11.03.18.06.35.11.52.18a4.51 4.51 0 0 1 2.63 2.85c.01.02.03.18.05.2l.22.21c.04.04.46.02.54.02l.49.02h.5l.96.04.5.02h.49c.1 0 .53.06.6 0l.16-.2c.04-.04.04-.17.05-.21l.09-.58c.08-.8.02-1.6-.2-2.37-.79-2.74-3.37-4.08-5.99-4.63-.5-.1-1.01-.2-1.52-.24l-.03-.3v-1.05c0-.93 0-1.86.02-2.8v-.8c0-.04.03-.18 0-.22-.03-.08-.06-.18-.12-.25-.06-.08-.45-.04-.55-.04Zm.12.55-.01.44-.02 1.24c0 .92-.02 1.84-.01 2.76 0 .26-.04.7.18.9.14.13.33.11.5.14l.55.08c.72.11 1.44.26 2.13.5 1.1.37 2.16.91 2.98 1.76a5.34 5.34 0 0 1 1.32 4.76c-.73-.04-1.47-.03-2.2-.05l-.97-.03-.27-.01-.01-.02a4.69 4.69 0 0 0-.66-1.37 5.08 5.08 0 0 0-2.5-1.91c-.31-.12-.75-.33-1.07-.14-.13.08-.14.4-.15.52-.06.56-.06 1.13-.08 1.7a157.4 157.4 0 0 0 0 4.55l.01 1.67.01.26h-.02l-.4-.1a19.9 19.9 0 0 1-2-.6v-.37a124.21 124.21 0 0 0-.01-6.18c-.02-.37-.02-.76-.12-1.12-.03-.1-.08-.26-.19-.3-.18-.09-.29-.04-.46.01-.38.1-.75.26-1.09.44-1.44.77-.1.09-2.33 3.7l-.09.13v.05c0 .02.02.03.01.04-.02.38.02.76.14 1.13.56 1.68 2.53 2.5 4.13 3.07.18.07.38.15.55.2.71.26 1.44.49 2.16.73 1.1.36 2.19.73 3.25 1.17.69.28 1.37.6 2 1a7.68 7.68 0 0 1 2.63 2.9c.3.6.56 1.28.6 1.96a9.26 9.26 0 0 1-4.9 8.65 10.75 10.75 0 0 1-3.05 1.1c-.15.03-.36.04-.5.14-.22.16-.2.78-.22 1.02-.02 1.02.04 2.03.1 3.04 0 .32.03.64.05.96v.09l-1.72.03c-.57 0-1.14.02-1.72.01l.04-.38.1-1.23c.05-.8.09-1.6.05-2.41-.02-.25-.04-.5-.13-.73-.16-.42-.58-.35-.96-.4-.44-.06-.88-.13-1.31-.23a8.94 8.94 0 0 1-4.55-2.4 5.68 5.68 0 0 1-1.62-4.79l.05-.35v-.02l.19-.03.67-.14 2.06-.4.68-.14h.06l.1.53c.11.44.24.86.44 1.27a4.84 4.84 0 0 0 2.54 2.47c.29.12.83.36 1.12.21.13-.07.16-.3.2-.43.07-.4.1-.83.13-1.24.13-1.71.17-3.44.21-5.15l.04-2.2v-.51c.75.28 1.48.6 2.22.9l.7.29.2.08a8 8 0 0 1-.02.17v.75l-.03 2.03c0 1.15 0 2.3.02 3.45.01.4.02.82.06 1.24.01.15.02.32.08.46.21.43.72.04.98-.11a5 5 0 0 0 1.54-1.43c.45-.68.7-1.46.8-2.26a3.87 3.87 0 0 0-.52-2.84 6.5 6.5 0 0 0-2.59-2c-2.84-1.38-6.04-1.94-8.79-3.55-1.71-1-3.04-2.4-3.24-4.43a8.1 8.1 0 0 1 .08-2.02c.13-.9.37-1.78.76-2.59a8.42 8.42 0 0 1 4.22-3.9c.79-.35 1.62-.61 2.47-.77.29-.05.59-.06.87-.12a.5.5 0 0 0 .18-.09c.1-.08.12-.27.13-.38.06-.39.07-.78.09-1.17.03-.85.04-1.69.05-2.53v-1.07h.18l.9-.02c.62 0 1.24-.02 1.84-.03h.18Zm-3.36 9.65c.08.42.1.86.11 1.28.03.77.03 1.55.03 2.32v1.7l-.03 1.05v.67l-.01.18c-.46-.27-.2-.58-3.18-3.42a4.16 4.16 0 0 1 2.92-3.73l.16-.05Zm-3.07 3.8s-.2 1.99 0 .03v-.02Zm6.71 9.97c.78.42 1.55.94 2.02 1.7.44.72.46 1.5.35 2.32-.1.79-.36 1.56-.85 2.2a4.14 4.14 0 0 1-1.45 1.22l-.04-.33-.04-.92v-.9c-.02-1.4-.01-2.78 0-4.16l.02-1.02v-.1Z"/><path fill="#556FB1" d="M275.73 330.02s2.48 4.87 3.71 5.22c.22.06 3.8-5.07 3.8-5.07l.43-.25-4.34 5.27.05 7.16"/><path d="m345.75 194.23-.3 22.41s16.71 2.45 16.72-5.5c.01-7.96-15.81-5.51-15.42-5.51 5.61 0 13.64-.5 13.67-6.68.02-6.18-14.67-4.72-14.67-4.72Zm29.73.68s-3.06 23.41 9.35 22.8c12.42-.61 10.43-22.78 10.43-22.78m10.01.2c0-.6 10 11.28 12.58 11.8.42.08 10.09-11.9 10.09-11.9"/><path fill="#556FB1" d="M417.56 206.85v11.72-11.72Z"/><path d="M417.56 206.85v11.72m-137.87 39.52h36.96m-53.84 11.76h18.67m5.93.23 42.1.21m-66.98 11.76h5.6m3.41-.05 8.7.2m7.91.15h22.93m5-.23 12.9-.18m-65.99 12.19h5.54m3.62.16h7.93m7.36.13h42m-66.79 11.71h5.69m3.8-.21h7.76m7.15.27 17.2.27m5.35.27 19.3-.25m-66.66 11.84h6.4m11.54.24h-7.87m14.01.15h25.1m3.46-.01h14.05M208.6 471.34h67.67m-.75 12.46-67.35-.8m-.17-5.9 30.13.53m37.87-.19-31.75-.5m-53.73-82.09 17.5 13.08m-10.82-22.74 10.83 8.38M333 469.33c0-13.22 10.52-23.94 23.5-23.94S380 456.1 380 469.33c0 13.21-10.52 23.93-23.5 23.93S333 482.54 333 469.33Zm137.96-129.86c-1.93-13.13-8.01-39.47-25.68-38.2-17.43 1.27-22.29 25.57-23.64 38.05"/><path fill="#fff" d="M421.13 346.57a3.77 3.77 0 1 0 .54-7.51 3.77 3.77 0 0 0-.54 7.51Zm.08-1.07a2.69 2.69 0 1 1 .37-5.37 2.69 2.69 0 0 1-.37 5.37Zm50.57 1.2a3.77 3.77 0 1 0-.85-7.5 3.77 3.77 0 0 0 .85 7.5Zm-.12-1.07a2.7 2.7 0 1 1-.6-5.35 2.7 2.7 0 0 1 .6 5.35Z"/><path d="M438.01 359.24c-.92-11.45-4.8-32.5-20.84-33.74-15.99-1.23-21.99 18.79-24.08 29.93"/><path fill="#fff" d="M392.06 362.63a3.77 3.77 0 1 0 1.07-7.47 3.77 3.77 0 0 0-1.07 7.47Zm.15-1.07a2.7 2.7 0 1 1 .77-5.33 2.7 2.7 0 0 1-.77 5.33Zm46.08 4.95a3.77 3.77 0 1 0-.3-7.54 3.77 3.77 0 0 0 .3 7.54Zm-.04-1.08a2.7 2.7 0 1 1-.2-5.39 2.7 2.7 0 0 1 .2 5.4Z"/><path d="M183.53 504.4v9.4m5.89-9.4-.18 9.4m6.32-9.4v9.4m6.06-9.4v9.4m6.15-9.4v9.4m5.97-9.4v9.4m24.52-9.7v9.4m5.89-9.4-.18 9.4m6.32-9.4v9.4m6.06-9.4v9.4m6.15-9.4v9.4m5.96-9.4v9.4m-23.34-18.8v9.4m5.89-9.4-.18 9.4m6.32-9.4v9.4m6.05-9.4v9.4m6.16-9.4v9.4m5.97-9.4v9.4m16.36-116.92 7.13 7.03m14.58-20.74-14.75 20.57"/><path fill="#2B354E" d="M333.97 169.93a2.72 2.72 0 0 1 2.79-2.65c1.54 0 2.8 1.18 2.8 2.65a2.72 2.72 0 0 1-2.8 2.64 2.72 2.72 0 0 1-2.8-2.64Zm145.51 59.77a4.32 4.32 0 1 1 8.64 0 4.32 4.32 0 0 1-8.64 0ZM182.03 350.52a3.71 3.71 0 0 1 3.74-3.69 3.71 3.71 0 0 1 3.75 3.69 3.72 3.72 0 0 1-3.75 3.68 3.72 3.72 0 0 1-3.74-3.68Z"/><path d="M175.02 348.24s2-4.2 5.91-5.97c3.91-1.78 9.71-1.14 9.71-1.14m-22.08 2.73s3.27-6.23 8.86-8.65c5.59-2.41 13.5-1 13.5-1m-28 4.75s4.73-8.18 11.66-11.23c6.92-3.05 16.02-.96 16.02-.96m292.13-105.65s3.79-.15 6.5 1.9c2.7 2.04 4.33 6.28 4.33 6.28m-9.96-14.24s5.74-.03 9.52 2.94c3.78 2.98 5.6 8.95 5.6 8.95m-13.57-17.58s7.69.27 12.41 3.93c4.73 3.66 6.49 10.71 6.49 10.71"/><path fill="#fff" d="M466.1 358.83c-.2.7-.25 1.44-.34 2.16a136.5 136.5 0 0 0-.34 3.48c-.28 3.15-.5 6.32-.72 9.47-.26 3.99-.55 7.98-.73 11.96-.3 6.59-.46 13.17-.67 19.75a7078.68 7078.68 0 0 0-1.81 66.5c-.07 3.44-.18 6.9-.16 10.33 0 1.69.04 3.38.12 5.07.1 2.27.26 4.54.31 6.81-.03-2.27-.16-4.54-.25-6.8-.07-1.7-.1-3.39-.1-5.08.01-3.62.15-7.25.26-10.87.17-6.05.37-12.1.57-18.16.56-16.81 1.16-33.62 1.88-50.43.24-5.69.53-11.38.76-17.08.15-3.88.23-7.77.36-11.65.1-3.4.23-6.82.4-10.22.06-1.12.13-2.22.23-3.33.05-.64.08-1.3.23-1.91Z"/><path fill="#2B354E" d="m498.55 338.47-1.59 22.76-3.17 48.87s-2.18 45.25-2.18 75.74"/><path fill="#fff" d="m498.55 338.47-1.43 16.52c-.36 4.26-.73 8.52-1.03 12.79-.16 2.32-.3 4.64-.43 6.96l-.68 11.29-.98 16.18c-.16 2.62-.36 5.25-.48 7.88-.5 10.58-.83 21.18-1.15 31.78-.45 14.65-.8 29.31-.75 43.97.06-15.96.57-31.92 1.2-47.88.24-6.15.5-12.3.78-18.44l.3-6.32c.06-1.03.09-2.07.16-3.09l1.93-27.9c.34-4.78.7-9.58 1-14.37.13-2.2.23-4.4.34-6.59l1.22-22.78ZM322.96 485.3c-.3 5.68.06 11.77 3.12 16.74a16.47 16.47 0 0 0 3.7 4.2 15.52 15.52 0 0 0 5.12 2.2 19.6 19.6 0 0 1-3.07-1.74c-.52-.37-1.01-.78-1.51-1.18-.63-.51-1.26-1-1.83-1.57a16.47 16.47 0 0 1-3-4.25c-2.21-4.43-2.6-9.52-2.53-14.4Zm64.42-2.61c-1.32 4.83-2.43 9.76-4.44 14.37a36.06 36.06 0 0 1-4.41 7.46c-.38.5-.77.98-1.13 1.5-.66.9-1.3 1.84-2.12 2.62a4 4 0 0 1-2.25 1.2c1.18.06 2.25-.64 3.12-1.35.8-.65 1.55-1.4 2.17-2.22.47-.61.9-1.27 1.33-1.9a37.35 37.35 0 0 0 4.26-8.47c1.53-4.3 2.4-8.79 3.47-13.21ZM350.25 427a.48.48 0 0 0-.26.26 114.1 114.1 0 0 1-2.45 5.3c-.7 1.4-1.39 2.81-2.02 4.25-.16.37-.33.71-.47 1.08-.3.74-.52 1.5-.79 2.25.32-.73.6-1.46.95-2.18.33-.7.7-1.4 1.08-2.08 1.14-2.05 2.48-4 3.59-6.08.37-.7.7-1.42 1-2.15a.5.5 0 0 0-.26-.65.5.5 0 0 0-.37 0Zm5.88.01a.49.49 0 0 0-.35.6c.18.71.23 1.47.27 2.21.13 2.63-.45 5.23-.58 7.85.32-2.18.93-4.3 1.27-6.48a9.3 9.3 0 0 0-.02-3.82.49.49 0 0 0-.59-.36Zm6.68.59a.49.49 0 0 0-.32.6c.21.7.42 1.39.66 2.07.38 1.02.8 2.03 1.23 3.03 1 2.35 2.12 4.62 3.54 6.74a34.47 34.47 0 0 1-2.62-5.92c-.7-2.05-1.22-4.15-1.88-6.21a.48.48 0 0 0-.6-.32Zm4.34-30.9c-.34.45-.69.9-1.02 1.36-.18.25-.39.51-.51.8-.38.89-.66 1.82-.94 2.74a38.5 38.5 0 0 0-1.44 6.96 32.3 32.3 0 0 1 2.68-8.27l.53-1.05c.17-.38.24-.82.35-1.22l.35-1.31Zm-7.88-2.01a.85.85 0 0 0-.63.33c-.25.33-.23.63-.22 1.02v.8l.01.48.01.69.01 1.1.02 1.42.03 1.54c.16-1.69.37-3.37.6-5.04l.2-1.35c.02-.15-.1-.36.03-.5.16-.2.49-.24.71-.31-.25-.08-.5-.2-.77-.18Zm-10.6 1.2c.21.47.4.95.53 1.45.1.33.16.67.27 1 .11.34.27.66.4 1 .25.7.46 1.4.66 2.13.62 2.29 1.04 4.65 2 6.84-.79-2.25-1.03-4.63-1.44-6.97-.13-.75-.28-1.5-.47-2.24-.09-.37-.16-.74-.31-1.08a8.66 8.66 0 0 0-1.64-2.13Z"/><path fill="#FDDF19" d="M345.57 421.51c6.24 2.23 19.02-.36 25.87-.54l-25.87.54Z"/><path fill="#fff" d="M371.44 420.97c-1.65.05-3.3.19-4.95.31-3.74.29-7.47.66-11.22.88-2.38.14-4.9.3-7.3-.06 1.65.29 3.32.42 4.98.45 3.39.06 6.8-.3 10.15-.72 2.77-.36 5.54-.76 8.34-.86Zm-25.87.53-.01.01.01.01a19.26 19.26 0 0 0 0-.02Z"/><path fill="#FDDF19" d="M345.9 424.38c4.38-.65 8.83.6 13.23-.04l-13.24.04Z"/><path fill="#fff" d="M350.86 424.07a33.38 33.38 0 0 0-4.97.32c2.38-.35 4.77.07 7.16.2 1.29.06 2.6.08 3.88-.02.74-.06 1.47-.16 2.2-.23-.73.06-1.48.15-2.2.15-.56 0-1.1-.07-1.66-.1-1.46-.1-2.94-.27-4.41-.32Z"/><path fill="#FDDF19" d="M363.01 424.24c2.82-.12 5.64-.34 8.47-.38l-8.47.38Z"/><path fill="#fff" d="M367.23 423.83c-1.42.06-2.8.36-4.22.4l-.01.01.01.01c1.3-.08 2.6.05 3.9-.01 1.53-.08 3.04-.34 4.57-.38-1.42.02-2.84-.1-4.25-.03Zm26.55-47.6c-.26 0-.51.06-.75.16-.29.12-.55.3-.8.5a7.97 7.97 0 0 0-2.1 3.08c-.16.45-.25.91-.37 1.37-.2.78-.37 1.58-.51 2.37a37 37 0 0 1 1.04-3.47c.2-.57.56-1.1.92-1.59a5.53 5.53 0 0 1 1.8-1.67 1.2 1.2 0 0 1 1.6.34c.08.12.18.23.22.38.15.53.09 1.14.07 1.68-.03.74-.08 1.48-.13 2.23a60.97 60.97 0 0 0-.14 3.94c0 1.11.07 2.24.3 3.33.3 1.36 1.03 2.89 2.57 3.08a3.44 3.44 0 0 0 1.8-.31c.92-.46 1.54-1.42 2.04-2.28 1.08-1.85 1.82-3.88 2.74-5.8.39-.81.79-1.64 1.34-2.34.2-.27.48-.63.84-.65.37-.03.7.67.77.91.33.97.3 2.07.32 3.08v1.77c.03 2.59.17 6.13 3.01 7.25.34.13.7.23 1.06.26 1.96.19 3.08-1.55 3.8-3.13.98-2.11 1.53-4.4 2.61-6.47.54-1.03 1.28-2.04 2.44-2.38.79-.23 1.34.77 1.62 1.33a13.55 13.55 0 0 1 .48 1.08l.25.62c.2.55.42 1.1.63 1.64.93 2.32 2.24 5.29 5.06 5.62a4.22 4.22 0 0 0 3.34-.97 5.6 5.6 0 0 0 1.23-1.8c1.07-2.22 1.53-5.22 4.04-6.32a5.17 5.17 0 0 1 2.3-.4c1.3.1 2.02 1.03 2.6 2.1.7 1.32 1.2 2.76 2.28 3.82a9.2 9.2 0 0 0 3.77 2.19c3.67 1 7.3-.8 10.2-2.88-2.9 2.02-6.54 3.78-10.16 2.75a7.89 7.89 0 0 1-1.73-.73 9.2 9.2 0 0 1-1.93-1.47c-1.15-1.15-1.61-2.75-2.38-4.14-.57-1.02-1.41-1.83-2.62-1.95a4.4 4.4 0 0 0-1.2.04c-.44.08-.86.2-1.26.37-2.25.95-3 3.32-3.85 5.41-.36.88-.76 1.8-1.44 2.5a3.7 3.7 0 0 1-3.29.94 4.47 4.47 0 0 1-2.87-2.13c-1.1-1.66-1.64-3.61-2.36-5.45l-.24-.59c-.45-1.05-1.25-2.65-2.66-2.26-1.37.37-2.27 1.5-2.92 2.7-1.06 1.96-1.65 4.11-2.56 6.14-.59 1.28-1.52 3.15-3.22 2.87a3.04 3.04 0 0 1-.8-.25c-2.02-.93-2.14-3.69-2.16-5.6v-1.07l.02-1.4c0-.56 0-1.12-.03-1.68-.07-1.2-.3-2.76-1.51-3.34-1.29-.62-2.33.69-2.94 1.65-.11.17-.25.38-.34.56-1.28 2.23-2.12 4.7-3.46 6.9-.53.88-1.23 1.95-2.4 1.87-1.04-.07-1.43-1.49-1.61-2.3l-.07-.36-.13-.74a34.16 34.16 0 0 1-.24-4.67v-1.64l-.01-1.1c-.02-1.27.08-2.77-1.3-3.37-.2-.08-.41-.13-.62-.13Zm-2.93 28.17a.7.7 0 0 0-.56.25c-.09.1-.16.22-.22.34l-.18.48a6.7 6.7 0 0 0-.18.88c-.07.5-.12 1-.15 1.5a15.4 15.4 0 0 1 .52-2.31 2.86 2.86 0 0 1 .41-.7c.5-.47 1.15.49 1.38.83l.2.31.21.35.22.37.32.6.46.9c.83 1.68 1.6 3.4 2.49 5.06.49.93 1 1.84 1.62 2.69.7.96 1.77 2.06 3.08 1.86 1.58-.24 2.87-1.32 3.81-2.57 1.36-1.8 2.2-3.92 3.35-5.84.96-1.6 2.22-3.2 4.28-3.08.16 0 .35.01.5.08.38.18.53.72.63 1.09.19.7.26 1.41.34 2.13l.06.64c.18 1.74.3 3.56 1 5.2.35.85.88 1.64 1.68 2.13a5 5 0 0 0 1.25.49 5.5 5.5 0 0 0 4.44-.62 9.79 9.79 0 0 0 2.07-1.79c1.4-1.54 2.53-3.31 3.9-4.88 1.16-1.33 2.4-2.41 4.17-2.79a7.33 7.33 0 0 1 6.03 1.09c1.83 1.27 3.24 3.23 5.43 3.95 2.9.94 6.13-.71 8.53-2.2a27.69 27.69 0 0 0-.01-.02c-2.4 1.41-5.63 3.02-8.46 2.03-2.02-.7-3.35-2.5-4.98-3.76a8.66 8.66 0 0 0-1.79-1.1c-1.42-.63-3-.72-4.52-.47-.6.1-1.17.25-1.72.5a9.63 9.63 0 0 0-3.07 2.43c-1.3 1.44-2.39 3.06-3.7 4.5a9.9 9.9 0 0 1-2.24 1.93c-1.2.7-2.53.86-3.87.47a3.75 3.75 0 0 1-1.24-.58 4.17 4.17 0 0 1-1.32-2.16 18.4 18.4 0 0 1-.62-4.12c-.04-.52-.08-1.05-.14-1.57-.1-1.1-.27-2.88-1.4-3.44a2.41 2.41 0 0 0-.88-.2c-1.87-.15-3.33.82-4.46 2.24-1.55 1.94-2.43 4.31-3.86 6.34-.77 1.1-1.76 2.17-3.12 2.49-.15.03-.31.07-.46.04a1.75 1.75 0 0 1-.73-.38 7.24 7.24 0 0 1-1.45-1.6l-.27-.4c-.52-.73-1-1.5-1.46-2.27a179.78 179.78 0 0 1-2-3.4 74.46 74.46 0 0 0-1.07-1.74l-.38-.56-.36-.5c-.31-.39-.92-1.13-1.5-1.15ZM231.1 327.95c.8 1.4 1.52 2.85 2.24 4.29a95.8 95.8 0 0 0-2.23-4.3Zm2.24 4.29a54.78 54.78 0 0 1 3.44 8.49c.76 2.55 1.28 5.2 1.32 7.87.02 1.65-.15 3.3-.57 4.89-.25.91-.58 1.8-1 2.66-2.9 6.03-9.47 9.17-15.5 11.22a73.5 73.5 0 0 1-3.28 1.04c-1.47.42-2.94.81-4.42 1.18-1.85.45-3.7.88-5.57 1.3-2.36.52-4.73 1.02-7.1 1.55a131.2 131.2 0 0 0-9.13 2.32 47.82 47.82 0 0 0-6.7 2.5c-1.89.9-3.71 1.98-5.28 3.37-.4.37-.79.77-1.14 1.19a20.35 20.35 0 0 0-5.28-.55c-2.23.04-4.46.33-6.6.91-1.85.5-3.74 1.2-5.26 2.38-.93.72-1.79 1.54-2.64 2.34a42.3 42.3 0 0 0-5.14 5.9c-1.8 2.5-3.3 5.2-4.43 8.06a36.78 36.78 0 0 0-1.76 5.9c-2.51 11.92 1.23 24.31 6.83 34.81a86.25 86.25 0 0 0 7.52 11.75 86.76 86.76 0 0 1-7.41-12.69c-4.12-8.64-6.76-18.13-6.27-27.76.2-3.94.92-7.83 2.33-11.52a35.62 35.62 0 0 1 3.3-6.5 40.1 40.1 0 0 1 5.83-7.1c.65-.64 1.32-1.25 2-1.85a10.7 10.7 0 0 1 1.62-1.16 16.4 16.4 0 0 1 3.76-1.52c2.28-.64 4.68-.95 7.05-.94 1.3 0 2.6.17 3.9.45a11.42 11.42 0 0 0-1.06 9.07c.4 1.26 1.32 2.97 2.9 2.76.21-.02.4-.07.59-.16.26-.1.5-.27.72-.45.38-.31.7-.69 1-1.08 1.53-2.1 2.93-5.26 1.55-7.78a4.9 4.9 0 0 0-.63-.89c-.43-.5-.96-.9-1.52-1.24-.67-.4-1.4-.69-2.15-.92.35-.4.72-.77 1.12-1.11 1.87-1.62 4.1-2.8 6.36-3.76 2.98-1.27 6.1-2.2 9.24-3.02 5.65-1.47 11.39-2.6 17.05-4.02a87.1 87.1 0 0 0 10.49-3.24c5.32-2.11 10.77-5.27 13.32-10.64.47-1 .83-2.06 1.08-3.13.38-1.64.5-3.33.43-5a30.06 30.06 0 0 0-1.46-7.73 55.2 55.2 0 0 0-3.45-8.15Zm-54.86 50.66c.29.08.59.1.86.2.9.31 1.77.75 2.47 1.4.28.25.53.53.73.85 1.25 1.98.24 4.46-.85 6.26-.46.76-1.27 2.07-2.28 2.14-.85.05-1.44-.94-1.72-1.6a6.58 6.58 0 0 1-.41-1.27l-.15-.74c-.37-2.43 0-5.15 1.35-7.24Zm234.66-82.91c.47 2.6.33 5.24-.16 7.82a32.21 32.21 0 0 1-1.53 5.32 35.01 35.01 0 0 1-4.02 7.58c-3.38 4.82-8.12 9.41-14.3 9.82h-.22c.13-.4.3-.78.4-1.2a24 24 0 0 0 .71-4.77c.04-.97 0-1.96-.23-2.9-.13-.5-.31-1-.6-1.44a3.3 3.3 0 0 0-.7-.8c-1.2-.95-2.83-.66-4.11-.04-.52.26-1 .56-1.45.92-2.17 1.69-4.24 4.93-2.94 7.72.18.38.4.73.68 1.04.38.44.84.8 1.33 1.1a10.7 10.7 0 0 0 3.59 1.28c.72.14 1.46.23 2.2.26a32.4 32.4 0 0 1-4.73 7.68c-3.13 4-6.68 7.72-9.45 12-2.16 3.33-3.83 7.12-3.63 11.18.05.88.18 1.76.4 2.63a16.9 16.9 0 0 0 1.64 4.13 28.8 28.8 0 0 0 4.78 6.19 28.8 28.8 0 0 1-4.7-6.24 16.85 16.85 0 0 1-1.57-4.12c-.2-.85-.32-1.73-.36-2.6-.17-4.55 2.04-8.77 4.68-12.34a78 78 0 0 1 2.4-3.1c2.27-2.78 4.71-5.42 6.92-8.26a30.3 30.3 0 0 0 4.36-7.16c.37 0 .74.03 1.11 0 5.12-.41 9.7-3.58 12.9-7.45a33.71 33.71 0 0 0 5.7-10.83c.5-1.66.9-3.35 1.16-5.07.4-2.77.42-5.62-.26-8.35Zm-22.79 19.69a2.2 2.2 0 0 1 2.15.99c.19.28.33.58.43.9.17.54.26 1.1.3 1.67a22.87 22.87 0 0 1-.98 7.3c-.74 0-1.47-.05-2.2-.17a10.4 10.4 0 0 1-3.21-.97c-.44-.23-.86-.5-1.2-.85a3.5 3.5 0 0 1-.6-.77c-1.11-1.94.13-4.35 1.46-5.83a9.06 9.06 0 0 1 2.06-1.65c.53-.3 1.16-.56 1.8-.62ZM373.58 124.6a71.77 71.77 0 0 0-20.85 3.22c-2.43.74-4.8 1.59-7.15 2.53a82.8 82.8 0 0 0-19.85 11.34c-6.2 4.8-11.74 10.64-15.38 17.64 3.73-7.08 9.4-12.9 15.7-17.74a85.16 85.16 0 0 1 27.7-13.78 73.52 73.52 0 0 1 11.14-2.29c9.19-1.15 18.77-.51 27.36 3.15a39.19 39.19 0 0 1 8.81 5.2 39.72 39.72 0 0 1 7.42 7.79 35.95 35.95 0 0 0-7.97 3.16c-1.47.8-2.9 1.72-4.18 2.82a9.52 9.52 0 0 0-3.02 4.29c-.14.45-.23.93-.25 1.4-.12 2.7 1.74 4.95 3.82 6.45a17.8 17.8 0 0 0 10.73 3.2 9.71 9.71 0 0 0 4.66-1.26 6.42 6.42 0 0 0 1.42-1.17c2.46-2.74 1.67-6.85.5-9.98-.2-.56-.43-1.12-.68-1.67a40.12 40.12 0 0 0-3.78-6.56c4-.95 8.15-1.27 12.24-1a40.33 40.33 0 0 1 19.55 6.33c10.01 6.58 16.16 17.37 19.06 28.77a71.62 71.62 0 0 1 2.26 19.18c-.25 14.59-4.86 29.57-14.9 40.43 11.92-12.26 16.8-30.24 15.96-47.01a64.45 64.45 0 0 0-2.63-15.46c-3.07-10.13-8.87-19.64-17.58-25.87a41.14 41.14 0 0 0-21.65-7.43c-4.33-.26-8.72.12-12.93 1.19a39.6 39.6 0 0 0-15.01-12.5c-6.42-3.05-13.44-4.34-20.52-4.37Zm35.49 17.9a41.3 41.3 0 0 1 3.65 6.24c.31.68.6 1.36.86 2.06 1.02 2.8 1.83 6.6-.29 9.12-.26.3-.56.58-.88.83-1.5 1.13-3.48 1.5-5.32 1.5-3.51 0-7.34-1.25-10.12-3.43-1.9-1.5-3.5-3.7-2.94-6.24.38-1.72 1.6-3.14 2.9-4.26a22.78 22.78 0 0 1 4.45-2.91 35.42 35.42 0 0 1 7.69-2.9Zm-274 50.1a53.05 53.05 0 0 0-9.94 11.16 47.26 47.26 0 0 0-7.6 28.62c.89 15.1 9 30.15 22.54 37.47a36.35 36.35 0 0 0 13.75 4.2c3.32.3 6.7 0 9.95-.69 5.85-1.21 11.28-3.72 16.3-6.9-5.45 3-11.32 5.25-17.52 6.02a41.95 41.95 0 0 1-12.97-.49 34.5 34.5 0 0 1-12.1-5.05c-12.67-8.3-19.68-23.66-19.5-38.6a46.95 46.95 0 0 1 8.13-25.73 53.4 53.4 0 0 1 8.96-10Zm92.25-75.24a26.84 26.84 0 0 0-12.58 3.17 33.62 33.62 0 0 0-10.2 8.82 34.09 34.09 0 0 1 9.35-8.06 26.67 26.67 0 0 1 5.88-2.45c7.8-2.18 16.15-.45 23.08 3.51a34.44 34.44 0 0 1 8.86 7.14 20.35 20.35 0 0 1 3.38 5.1c.91 2.07 1.47 4.85-.12 6.75-.29.34-.63.65-1 .9a7.8 7.8 0 0 1-2.03.96 15.5 15.5 0 0 1-3.3.62c-1.85.16-3.7.08-5.54-.08a28.26 28.26 0 0 0 6.42.6c2.98-.09 6.51-1.01 7.58-4.16.17-.5.28-1.05.3-1.58.05-.84-.1-1.7-.33-2.52a16.02 16.02 0 0 0-2.56-5 31.12 31.12 0 0 0-7-6.84c-5.82-4.22-13-6.91-20.2-6.88Zm242.59 301.18a53.27 53.27 0 0 1 8.32 27.89c.26 17.73-8.19 35.12-21.43 46.74-6.89 6.04-15.14 10.6-24.1 12.66-2.37.55-4.78.9-7.21 1.11-3.23.3-6.47.35-9.7.05a52.88 52.88 0 0 1-18.6-5.47 53.1 53.1 0 0 0 17.71 6.38c3.29.52 6.63.71 9.95.53 2.38-.13 4.75-.52 7.07-1.04a54.2 54.2 0 0 0 14.57-5.63c16.58-9.27 28.6-26.69 31.44-45.46a54.61 54.61 0 0 0-2.24-25.93 56.4 56.4 0 0 0-5.78-11.83Z"/><path fill="#fff" d="M155.56 438.22c.66 1 1.06 2.12 1.51 3.23.24.56.49 1.11.76 1.66-.05.06.22.33.6.6.37.26.7.42.75.35-.27-.54-.52-1.07-.75-1.63-.46-1.15-.88-2.3-1.56-3.34.03-.06-.22-.3-.59-.54-.36-.24-.68-.39-.72-.33Zm-3.94-8.81c.57 1.5 1.3 2.94 1.91 4.42-.04.06.24.33.61.6.38.26.71.43.76.37-.62-1.48-1.34-2.91-1.9-4.4.04-.07-.23-.34-.6-.6-.39-.28-.73-.45-.78-.39Zm-1.69-9.03c.08 1.24.35 2.44.59 3.65-.05.07.22.35.6.63s.73.45.78.4c-.24-1.21-.5-2.41-.6-3.64.05-.06-.21-.34-.6-.63-.37-.29-.72-.47-.77-.41Zm-.72-9.62c.07 1.63.11 3.27.21 4.9-.04.06.23.33.61.62s.73.47.77.41c-.1-1.63-.14-3.25-.2-4.88.04-.06-.22-.35-.6-.64-.39-.29-.74-.47-.79-.4Zm2.36-9.17c-.6 1.5-.95 3.04-1.27 4.61-.05.06.23.35.6.64.39.3.73.48.78.42.32-1.57.66-3.12 1.26-4.6.05-.07-.22-.36-.6-.65-.38-.3-.72-.48-.77-.42Zm-10.17-128.3c-.04.05.16.31.45.6.3.28.57.48.62.43 1.27.56 2.63.88 3.94 1.33.05-.05-.17-.33-.5-.63-.32-.3-.63-.5-.67-.45-1.28-.44-2.6-.74-3.84-1.28Zm6.46 1.41c-.05.05.19.35.54.65.34.3.67.5.72.45 1.48.25 2.95.54 4.42.81.05-.06-.18-.35-.53-.65-.34-.3-.67-.5-.72-.44-1.48-.28-2.95-.57-4.43-.82Zm12.64.85c-1.77.05-3.54.06-5.3.05-.05.06.2.35.56.66.36.3.7.5.74.44 1.77 0 3.53 0 5.3-.04.04-.06-.2-.36-.57-.66-.36-.3-.69-.5-.74-.45Zm8.2-1.89c-1.69.62-3.41.93-5.2 1.08-.04.06.21.36.58.66.36.3.7.5.75.45a19.6 19.6 0 0 0 5.2-1.1c.05-.06-.2-.35-.58-.65-.37-.3-.7-.5-.76-.44Zm6.13-3.16a10.2 10.2 0 0 1-3.46 1.58c-.05.06.2.35.57.66.37.3.71.5.76.43 1.28-.26 2.4-.87 3.5-1.57.04-.07-.22-.36-.6-.66-.37-.3-.72-.5-.77-.44ZM94.22 154.21c-1.87.62-3.75 1.22-5.53 2.06-1.11.51-2.2 1.05-3.29 1.62-.67.36-1.33.72-1.97 1.13-.38.23-.76.48-1.1.77-.34.28-.94.8-.71 1.3.07.17.2.31.32.44l.31.3.4.3c1.03.75 2.32.93 3.54 1.15l1.3.23c.63.1 1.25.23 1.87.36.63.13 1.27.29 1.89.47.97.3 1.9.65 2.77 1.17.04-.03-.1-.25-.3-.48-.2-.24-.4-.4-.43-.36-2.7-1.6-5.72-2-8.75-2.56-.53-.1-1.06-.21-1.57-.35.08-.3.4-.6.6-.77.93-.83 2.09-1.42 3.18-2a75.65 75.65 0 0 1 3.29-1.63c1.78-.84 3.66-1.44 5.53-2.06.04-.06-.21-.35-.58-.65-.38-.3-.72-.5-.77-.44ZM231.9 88.82l-1.01.51c.22-.11.45-.23.68-.33.12-.05-.22.13-.33.19l-.67.34c-.11.06-.45.23-.35.16.21-.13 0 0-.34.16-.03.03.11.19.31.35.2.16.4.27.42.24l1.01-.52c-.22.12-.45.23-.67.36-.1.07.23-.1.35-.16a17.5 17.5 0 0 0 1-.53c-.24.1 0 0 .33-.18.03-.03-.11-.19-.31-.35-.2-.17-.4-.27-.42-.24Zm3.16-1.58-1 .39c.22-.09.45-.18.66-.28l-.33.13-.66.27-.32.14-.33.13c-.03.03.1.19.31.35.2.16.38.27.4.24l.34-.13.34-.14.65-.26.34-.14c-.22.1-.01 0 .33-.11.02-.03-.12-.19-.32-.35-.2-.17-.38-.27-.4-.24Zm3-1.68-1.07.54c.24-.12.48-.24.73-.34.13-.04-.23.13-.35.2l-.73.36c-.12.05-.48.24-.37.17.23-.15 0 0-.37.16-.03.03.11.19.32.35.2.16.39.27.41.24a9.85 9.85 0 0 0 .38-.16c-.12.07.24-.12.36-.17.23-.11.5-.24.73-.37.12-.06.48-.23.35-.19-.25.1 0 0 .34-.2.03-.04-.12-.2-.32-.37-.2-.16-.38-.26-.4-.22Zm34.96 57.84c.35 1.37.6 2.75.83 4.15-.03.03.12.19.32.34.2.16.4.25.42.21a49.3 49.3 0 0 0-.82-4.16c.02-.03-.13-.18-.34-.33-.2-.15-.38-.24-.4-.2Zm1.16 5.79.2 1.36-.15-.9.07.44.15.9.07.46.06.45c-.02.03.13.19.34.34.2.15.39.24.41.21l-.06-.45-.08-.45-.15-.9a3.7 3.7 0 0 1-.06-.46c.06.3 0 0-.05-.45.02-.04-.12-.18-.33-.34-.2-.15-.4-.25-.42-.21Zm.76 4.49.04.25.03.2.1.55.05.22.08.41c-.03.04.12.2.32.35.2.15.4.24.42.2l-.07-.4-.05-.23-.1-.55c0-.07-.02-.13-.03-.2a2.23 2.23 0 0 1-.04-.25c.02-.03-.13-.18-.34-.33-.2-.16-.39-.26-.42-.22Zm102.98-27.45c-.02.03.1.19.28.35.18.16.34.26.37.23 1.06.34 2.16.55 3.25.82.02-.03-.1-.19-.3-.35-.17-.16-.34-.27-.37-.24-1.08-.27-2.17-.47-3.23-.8Zm-4.98-.05c-.03.03.1.18.3.35.18.16.35.28.38.25l1.51.03c-.33 0-.67-.02-1 .03-.16.03.34.03.5.04.42.03.84.04 1.26.02h.25c.09-.02.34-.03.25-.04-.42-.03 0 0 .27-.03.02-.03-.12-.18-.32-.35-.2-.16-.38-.27-.4-.24a9.2 9.2 0 0 1-.26.03l-.25.02-.25.02c-.4.02-.82.01-1.24-.02-.16-.01-.65-.02-.49-.05.33-.05 0 0-.51-.06Zm-1.97.15-1.5.1c.41-.02.83-.05 1.25-.06l-.25.03-.5.04-1.01.03c-.17 0-.67.04-.5.03l-.5.05c-.04.03.1.19.3.35.2.16.38.27.4.24l.9-.07h.11c.42-.01.84-.01 1.26-.05l.25-.02.25-.03c-.42.01 0 0 .26-.05.02-.03-.12-.19-.32-.35-.2-.17-.38-.27-.4-.24Zm-4.89.32a17.9 17.9 0 0 0-3.06.72c-.02.03.12.19.32.35.2.16.38.27.4.24 1-.35 2.02-.54 3.06-.7.02-.04-.12-.2-.32-.37-.2-.16-.37-.27-.4-.24Zm-5.31 1.01c-1.03.3-2.07.56-3.12.81-.02.03.12.2.32.36.2.17.38.27.4.24 1.05-.25 2.09-.5 3.12-.8.02-.04-.12-.2-.32-.37-.2-.16-.38-.27-.4-.24ZM460.81 195c.08 1.7-.09 3.35-.51 5-.03.03.12.2.32.35.2.16.4.26.42.23.43-1.65.59-3.31.51-5.02.03-.03-.11-.18-.32-.34-.2-.15-.4-.25-.42-.22Zm-.83 6.91a49.99 49.99 0 0 1-.88 4.52c-.03.03.13.2.33.35.21.16.4.26.42.22.36-1.5.64-3 .87-4.52.02-.03-.12-.2-.33-.35-.2-.16-.39-.25-.41-.22Zm-1.32 6.55c-.26 1.15-.51 2.3-.79 3.45-.02.04.12.2.33.35.2.16.39.26.41.22.28-1.14.54-2.3.8-3.45.03-.03-.12-.19-.33-.34-.2-.16-.39-.26-.42-.23Zm-1.62 5.95c-.28 1-.63 1.96-1.07 2.9-.03.03.12.2.32.35.2.16.4.26.42.23.44-.95.8-1.9 1.08-2.9.02-.04-.13-.19-.34-.35-.2-.15-.39-.26-.41-.22Zm-42.41 94.67c.1 1.28-.45 2.47-.82 3.66-.03.03.12.2.32.35.2.16.4.26.42.22.37-1.2.93-2.39.82-3.67.03-.04-.12-.19-.33-.34-.2-.16-.39-.26-.41-.22Zm-1.53 5.74c-.43 1.3-1 2.53-1.57 3.78-.03.03.12.2.32.35.21.16.4.27.42.23.56-1.25 1.15-2.48 1.57-3.79.03-.03-.11-.19-.32-.35-.2-.16-.4-.26-.42-.22Zm2.19-9.55c-.13 1.09-.15 1.34-.12 1.1l.06-.73-.04.36-.07.73-.04.36-.05.37c-.02.03.13.19.34.34.2.16.39.25.42.22l.03-.36c.05-.38.1-.89.09-.72l-.05.36.08-.73.03-.37c-.01.25 0 0 .06-.36.03-.03-.12-.18-.32-.34-.2-.16-.4-.26-.42-.23Zm-4.86 203.01c-.03.03.1.19.3.35.18.16.37.28.4.25 1.01.1 2 .28 3 .5.04-.04-.1-.19-.28-.35-.18-.16-.36-.28-.39-.25-1-.21-2-.4-3.03-.5Zm5.07.88c-.03.03.12.19.31.35.2.17.39.28.41.25 1.13-.16 2.2.16 3.3.38.02-.03-.11-.18-.3-.34-.19-.17-.35-.28-.38-.25-1.1-.23-2.2-.55-3.34-.39Zm5.95.7c-.03.03.1.18.3.35.2.16.38.28.4.25 1.18 0 2.36.07 3.54.13.03-.03-.11-.19-.3-.35-.2-.17-.37-.28-.4-.25-1.18-.06-2.36-.13-3.54-.13Zm10.35-1.14c-1.56.4-3.13.76-4.76.8-.02.03.11.2.3.36.2.16.38.26.4.23a20.6 20.6 0 0 0 4.8-.8c.02-.03-.12-.2-.32-.36-.2-.16-.38-.27-.41-.23Zm5.31-1.91c-1.1.42-2.16 1-3.33 1.17-.03.04.11.2.31.36.2.17.39.27.41.24 1.18-.17 2.23-.76 3.33-1.18.03-.03-.11-.19-.31-.35-.2-.16-.38-.27-.41-.24Z"/></svg>