<svg id="erZ6AbWKHtE1" xmlns="http://www.w3.org/2000/svg" xmlns:xlink="http://www.w3.org/1999/xlink" viewBox="0 0 2000 2000" shape-rendering="geometricPrecision" text-rendering="geometricPrecision"><g clip-rule="evenodd"><path d="M361.2,661.6L359.9,869" clip-rule="evenodd" fill="none" stroke="#fff" stroke-width="3.5" stroke-linecap="round" stroke-linejoin="round" stroke-miterlimit="10"/><path d="M361.3,637.8c-4.675582-.439815-9.198434,1.799462-11.683292,5.784433s-2.50529,9.031764-.05278,13.036724s6.957082,6.280785,11.636072,5.878843c6.394137-.54928,11.31262-5.886664,11.338602-12.304297s-4.849123-11.794668-11.238602-12.395703Zm0,3.5c4.88772.027614,8.827614,4.01228,8.8,8.9s-4.01228,8.827614-8.9,8.8c-4.88772,0-8.85-3.96228-8.85-8.85s3.96228-8.85,8.85-8.85Z" clip-rule="evenodd" fill="#fff" stroke-linecap="round" stroke-linejoin="round" stroke-miterlimit="10"/><path d="M399,784.1v84.9" clip-rule="evenodd" fill="none" stroke="#fff" stroke-width="3.5" stroke-linecap="round" stroke-linejoin="round" stroke-miterlimit="10"/><path d="M399,760.2c-4.430093,0-8.523669,2.363426-10.738716,6.2s-2.215046,8.563427,0,12.4s6.308622,6.2,10.738716,6.2c6.848331,0,12.399999-5.551669,12.399999-12.4s-5.551668-12.4-12.399999-12.4Zm0,3.5c3.161801,0,6.083425,1.6868,7.664325,4.425s1.5809,6.111801,0,8.85-4.502525,4.425-7.664325,4.425c-4.860106,0-8.8-3.939894-8.8-8.8s3.939894-8.8,8.8-8.8Z" clip-rule="evenodd" fill="#fff" stroke-linecap="round" stroke-linejoin="round" stroke-miterlimit="10"/><path d="M584.6,601.4l37.5.2" clip-rule="evenodd" fill="none" stroke="#fff" stroke-width="3.5" stroke-linecap="round" stroke-linejoin="round" stroke-miterlimit="10"/><path d="M560.7,601.2c-.055228,6.848331,5.451669,12.444772,12.3,12.5s12.444772-5.451669,12.5-12.3-5.451669-12.444772-12.3-12.5-12.444772,5.451669-12.5,12.3Zm3.6,0c.035726-3.161801,1.75554-6.064365,4.511602-7.614325s6.129664-1.51184,8.850001.1s4.374124,4.552524,4.338397,7.714325c-.027614,4.88772-4.01228,8.827614-8.9,8.8s-8.827614-4.01228-8.8-8.9Z" clip-rule="evenodd" fill="#fff" stroke-linecap="round" stroke-linejoin="round" stroke-miterlimit="10"/><path d="M800,602.1l19.4-.3m.5,38.3l.3-38.1m-39.7,77L819,640.6m1.4,79.2l-39.8-40.6m39.3,121l.3-79.3m-180,20l180-1.1M627.6,702.5l12,38.2" clip-rule="evenodd" fill="none" stroke="#fff" stroke-width="3.5" stroke-linecap="round" stroke-linejoin="round" stroke-miterlimit="10"/><path d="M620.5,679.7c-6.544574,2.043454-10.193454,9.005426-8.15,15.55s9.005426,10.193454,15.55,8.15s10.193454-9.005426,8.15-15.55-9.005426-10.193454-15.55-8.15Zm1,3.4c3.036758-.946754,6.347924-.2015,8.686216,1.955033s3.348466,5.396714,2.65,8.5-2.999458,5.598213-6.036216,6.544967c-4.69442,1.463555-9.686445-1.15558-11.15-5.85s1.15558-9.686445,5.85-11.15Z" clip-rule="evenodd" fill="#fff" stroke-linecap="round" stroke-linejoin="round" stroke-miterlimit="10"/><path d="M570.2,778.3L820,780" clip-rule="evenodd" fill="none" stroke="#fff" stroke-width="3.5" stroke-linecap="round" stroke-linejoin="round" stroke-miterlimit="10"/><path d="M546.3,778.2c-.027614,6.848331,5.501669,12.422386,12.35,12.45s12.422386-5.501669,12.45-12.35-5.501669-12.422386-12.35-12.45-12.422386,5.501669-12.45,12.35Zm3.5,0c.027614-4.88772,4.01228-8.827614,8.9-8.8s8.827614,4.01228,8.8,8.9-4.01228,8.827614-8.9,8.8-8.827614-4.01228-8.8-8.9Z" clip-rule="evenodd" fill="#fff" stroke-linecap="round" stroke-linejoin="round" stroke-miterlimit="10"/><path d="M860.6,703.8l.2,94.8" clip-rule="evenodd" fill="none" stroke="#fff" stroke-width="3.5" stroke-linecap="round" stroke-linejoin="round" stroke-miterlimit="10"/><path d="M860.5,680c-4.677556-.421332-9.191736,1.836111-11.660704,5.831264s-2.468968,9.042318,0,13.037472s6.983148,6.252596,11.660704,5.831264c6.848331,0,12.399999-5.551669,12.399999-12.4s-5.551668-12.4-12.399999-12.4Zm0,3.5c3.161801,0,6.083425,1.6868,7.664325,4.425s1.5809,6.111801,0,8.85-4.502525,4.425-7.664325,4.425c-4.88772,0-8.85-3.96228-8.85-8.85s3.96228-8.85,8.85-8.85Z" clip-rule="evenodd" fill="#fff" stroke-linecap="round" stroke-linejoin="round" stroke-miterlimit="10"/><path d="M360.2,1024.3l.2,96m237-.2h-237m240-40l-.5,122.2m122.2-122l-121.5-.6m64.9,61.3l56.7-.7" clip-rule="evenodd" fill="none" stroke="#fff" stroke-width="3.5" stroke-linecap="round" stroke-linejoin="round" stroke-miterlimit="10"/><path d="M641.6,1141.3c.110457,6.848331,5.751669,12.310457,12.6,12.2s12.310457-5.751669,12.2-12.6-5.751669-12.310457-12.6-12.2-12.310457,5.751669-12.2,12.6Zm3.5,0c-.05359-3.161801,1.583691-6.112015,4.295096-7.739325s6.085006-1.68449,8.85-.15s4.501314,4.427524,4.554904,7.589325c.055228,4.88772-3.86228,8.894771-8.75,8.95s-8.894771-3.86228-8.95-8.75Z" clip-rule="evenodd" fill="#fff" stroke-linecap="round" stroke-linejoin="round" stroke-miterlimit="10"/><path d="M419.9,1201.7l.5-177.4" clip-rule="evenodd" fill="none" stroke="#fff" stroke-width="3.5" stroke-linecap="round" stroke-linejoin="round" stroke-miterlimit="10"/><path d="M419.8,1225.6c4.430093,0,8.523669-2.363426,10.738716-6.2s2.215046-8.563427,0-12.4-6.308622-6.2-10.738716-6.2c-6.848331,0-12.399999,5.551669-12.399999,12.4s5.551668,12.4,12.399999,12.4Zm0-3.5c-4.915334-.027614-8.877614-4.034666-8.85-8.95s4.034666-8.877614,8.95-8.85c4.915334,0,8.899999,3.984666,8.899999,8.9s-3.984665,8.9-8.899999,8.9Z" clip-rule="evenodd" fill="#fff" stroke-linecap="round" stroke-linejoin="round" stroke-miterlimit="10"/><path d="M240.5,1079v-51.8" clip-rule="evenodd" fill="none" stroke="#fff" stroke-width="3.5" stroke-linecap="round" stroke-linejoin="round" stroke-miterlimit="10"/><path d="M240.5,1103c4.430093,0,8.523669-2.363426,10.738716-6.2s2.215046-8.563427,0-12.4-6.308622-6.2-10.738716-6.2c-6.391377.575705-11.28757,5.932747-11.28757,12.35s4.896193,11.774295,11.28757,12.35Zm0-3.6c-3.161801,0-6.083425-1.6868-7.664325-4.425s-1.5809-6.111801,0-8.85s4.502525-4.425,7.664325-4.425c4.88772,0,8.85,3.96228,8.85,8.85s-3.96228,8.85-8.85,8.85Z" clip-rule="evenodd" fill="#fff" stroke-linecap="round" stroke-linejoin="round" stroke-miterlimit="10"/><path d="M600.5,1382l.9-58.5" clip-rule="evenodd" fill="none" stroke="#fff" stroke-width="3.5" stroke-linecap="round" stroke-linejoin="round" stroke-miterlimit="10"/><path d="M600.1,1406c6.848331.110457,12.489543-5.351669,12.6-12.2s-5.351669-12.489543-12.2-12.6-12.489543,5.351669-12.6,12.2s5.351669,12.489543,12.2,12.6Zm0-3.6c-3.161801-.05359-6.054835-1.789909-7.589325-4.554904s-1.47731-6.138595.15-8.85s4.577524-4.348686,7.739325-4.295096c4.88772.055229,8.805228,4.06228,8.75,8.95s-4.06228,8.805228-8.95,8.75Z" clip-rule="evenodd" fill="#fff" stroke-linecap="round" stroke-linejoin="round" stroke-miterlimit="10"/><path d="M800.3,1320.6l60-.3m-.1-62.3l.2,61.6m-60,76.8l-.2-75.6M740,1315l.5-57" clip-rule="evenodd" fill="none" stroke="#fff" stroke-width="3.5" stroke-linecap="round" stroke-linejoin="round" stroke-miterlimit="10"/><path d="M739.8,1338.9c6.848331.055228,12.444772-5.451669,12.5-12.3s-5.451669-12.444772-12.3-12.5-12.444772,5.451669-12.5,12.3s5.451669,12.444772,12.3,12.5Zm0-3.5c-3.161801-.035726-6.064365-1.75554-7.614325-4.511602s-1.51184-6.129664.1-8.850001s4.552524-4.374124,7.714325-4.338397c4.88772.055229,8.805228,4.06228,8.75,8.95s-4.06228,8.805228-8.95,8.75Z" clip-rule="evenodd" fill="#fff" stroke-linecap="round" stroke-linejoin="round" stroke-miterlimit="10"/><path d="M800.4,1519.9l.8-46" clip-rule="evenodd" fill="none" stroke="#fff" stroke-width="3.5" stroke-linecap="round" stroke-linejoin="round" stroke-miterlimit="10"/><path d="M800,1543.8c6.848331.110457,12.489543-5.351669,12.6-12.2s-5.351669-12.489543-12.2-12.6-12.489543,5.351669-12.6,12.2s5.351669,12.489543,12.2,12.6Zm0-3.5c-3.389209.275224-6.639041-1.404761-8.37428-4.329043s-1.652585-6.581731.212986-9.424639s5.187979-4.374368,8.561294-3.946318c4.521624.552735,7.895999,4.430436,7.818802,8.985064s-3.581044,8.31575-8.118802,8.714936Z" clip-rule="evenodd" fill="#fff" stroke-linecap="round" stroke-linejoin="round" stroke-miterlimit="10"/><path d="M1161.3,1258l-1.3,104m51.1,27.4l-51-27.4m134.6,30.1l65.4,1m1-233l-.5,232.2m118.5-231.5l-195.6-1.6m196.3,51.3v-49.7m-119.2,199.5l39,.2m1,93.7l-.2-93" clip-rule="evenodd" fill="none" stroke="#fff" stroke-width="3.5" stroke-linecap="round" stroke-linejoin="round" stroke-miterlimit="10"/><path d="M1400.6,1478.1c4.677556.421332,9.191736-1.836111,11.660704-5.831264s2.468968-9.042318,0-13.037472-6.983148-6.252596-11.660704-5.831264c-4.677556-.421332-9.191736,1.836111-11.660704,5.831264s-2.468968,9.042318,0,13.037472s6.983148,6.252596,11.660704,5.831264Zm0-3.5c-3.161801,0-6.083425-1.6868-7.664325-4.425s-1.5809-6.111801,0-8.85s4.502525-4.425,7.664325-4.425c4.88772,0,8.85,3.96228,8.85,8.85s-3.96228,8.85-8.85,8.85Z" clip-rule="evenodd" fill="#fff" stroke-linecap="round" stroke-linejoin="round" stroke-miterlimit="10"/><path d="M1515.7,1179.7l-35.8.2" clip-rule="evenodd" fill="none" stroke="#fff" stroke-width="3.5" stroke-linecap="round" stroke-linejoin="round" stroke-miterlimit="10"/><path d="M1539.6,1179.5c-.055228-6.848331-5.651669-12.355228-12.5-12.3s-12.355228,5.651669-12.3,12.5s5.651669,12.355228,12.5,12.3s12.355228-5.651669,12.3-12.5Zm-3.5,0c.035727,3.161801-1.618061,6.102485-4.338397,7.714325s-6.093938,1.64996-8.85.1-4.475876-4.452524-4.511603-7.614325c-.027614-4.88772,3.91228-8.872386,8.8-8.9s8.872386,3.91228,8.9,8.8Z" clip-rule="evenodd" fill="#fff" stroke-linecap="round" stroke-linejoin="round" stroke-miterlimit="10"/><path d="M1380.1,1063.9l-.2,96" clip-rule="evenodd" fill="none" stroke="#fff" stroke-width="3.5" stroke-linecap="round" stroke-linejoin="round" stroke-miterlimit="10"/><path d="M1380.1,1040c-4.430093,0-8.523669,2.363426-10.738716,6.2s-2.215046,8.563427,0,12.4s6.308622,6.2,10.738716,6.2c6.848331,0,12.399999-5.551669,12.399999-12.4s-5.551668-12.4-12.399999-12.4Zm0,3.5c3.179664,0,6.117795,1.69633,7.707627,4.45s1.589832,6.146331,0,8.9-4.527963,4.45-7.707627,4.45c-4.915334,0-8.899999-3.984666-8.899999-8.9s3.984665-8.9,8.899999-8.9Z" clip-rule="evenodd" fill="#fff" stroke-linecap="round" stroke-linejoin="round" stroke-miterlimit="10"/><path d="M1480.4,1042.8l.6-74" clip-rule="evenodd" fill="none" stroke="#fff" stroke-width="3.5" stroke-linecap="round" stroke-linejoin="round" stroke-miterlimit="10"/><path d="M1480.2,1066.6c4.673078.457382,9.203665-1.763958,11.703839-5.738375s2.54103-9.020098.105542-13.034479-6.929509-6.308795-11.609381-5.927146c-6.397748.521744-11.33973,5.839792-11.391704,12.258569s4.803244,11.816155,11.191704,12.441431Zm0-3.5c-3.161801-.035726-6.064365-1.75554-7.614325-4.511602s-1.51184-6.129664.1-8.850001s4.552524-4.374124,7.714325-4.338397c4.88772.027614,8.827614,4.01228,8.8,8.9s-4.01228,8.827614-8.9,8.8Z" clip-rule="evenodd" fill="#fff" stroke-linecap="round" stroke-linejoin="round" stroke-miterlimit="10"/><path d="M1520.4,1006.3l.3-37.6" clip-rule="evenodd" fill="none" stroke="#fff" stroke-width="3.5" stroke-linecap="round" stroke-linejoin="round" stroke-miterlimit="10"/><path d="M1520.2,1030.2c6.848331.055228,12.444772-5.451669,12.5-12.3s-5.451669-12.444772-12.3-12.5-12.444772,5.451669-12.5,12.3s5.451669,12.444772,12.3,12.5Zm0-3.6c-3.161801-.035726-6.064365-1.75554-7.614325-4.511602s-1.51184-6.129664.1-8.850001s4.552524-4.374124,7.714325-4.338397c4.88772.027614,8.827614,4.01228,8.8,8.9s-4.01228,8.827614-8.9,8.8Z" clip-rule="evenodd" fill="#fff" stroke-linecap="round" stroke-linejoin="round" stroke-miterlimit="10"/><path d="M1755.4,740.3l-70.4-.2" clip-rule="evenodd" fill="none" stroke="#fff" stroke-width="3.5" stroke-linecap="round" stroke-linejoin="round" stroke-miterlimit="10"/><path d="M1779.3,740.4c0-4.430094-2.363426-8.523669-6.2-10.738716s-8.563427-2.215046-12.4,0-6.2,6.308623-6.2,10.738716c0,6.848331,5.551669,12.399999,12.4,12.399999s12.4-5.551668,12.4-12.399999Zm-3.6,0c.340803,3.38814-1.281522,6.673748-4.178772,8.463044s-6.5615,1.768594-9.438347-.053324-4.461945-5.125647-4.082881-8.50972c.481691-4.525095,4.299339-7.957928,8.85-7.957928s8.368309,3.432833,8.85,7.957928Z" clip-rule="evenodd" fill="#fff" stroke-linecap="round" stroke-linejoin="round" stroke-miterlimit="10"/><path d="M1718.3,799.8l-33.3.3" clip-rule="evenodd" fill="none" stroke="#fff" stroke-width="3.5" stroke-linecap="round" stroke-linejoin="round" stroke-miterlimit="10"/><path d="M1742.2,799.6c-.055228-6.848331-5.651669-12.355228-12.5-12.3s-12.355228,5.651669-12.3,12.5s5.651669,12.355228,12.5,12.3s12.355228-5.651669,12.3-12.5Zm-3.6,0c.035727,3.161801-1.618061,6.102485-4.338397,7.714325s-6.093938,1.64996-8.85.1-4.475876-4.452524-4.511603-7.614325c-.027614-4.88772,3.91228-8.872386,8.8-8.9s8.872386,3.91228,8.9,8.8Z" clip-rule="evenodd" fill="#fff" stroke-linecap="round" stroke-linejoin="round" stroke-miterlimit="10"/><path d="M1561.3,442.5l-1.5,140.4" clip-rule="evenodd" fill="none" stroke="#fff" stroke-width="3.5" stroke-linecap="round" stroke-linejoin="round" stroke-miterlimit="10"/><path d="M1561.6,418.6c-4.670049-.474019-9.207431,1.729626-11.722338,5.693122s-2.576168,9.007317-.158268,13.030725s6.900422,6.336606,11.580606,5.976153c6.402206-.493078,11.368912-5.792099,11.446896-12.212791s-4.758555-11.838781-11.146896-12.487209Zm0,3.5c3.1618.05359,6.054835,1.789909,7.589325,4.554904s1.47731,6.138595-.15,8.85-4.577525,4.348686-7.739325,4.295096c-4.88772-.055228-8.805228-4.06228-8.75-8.95s4.06228-8.805228,8.95-8.75Z" clip-rule="evenodd" fill="#fff" stroke-linecap="round" stroke-linejoin="round" stroke-miterlimit="10"/><path d="M1478.4,501l-.4,81.9" clip-rule="evenodd" fill="none" stroke="#fff" stroke-width="3.5" stroke-linecap="round" stroke-linejoin="round" stroke-miterlimit="10"/><path d="M1478.5,477c-6.848331,0-12.4,5.551669-12.4,12.4s5.551669,12.4,12.4,12.4s12.4-5.551669,12.4-12.4-5.551669-12.4-12.4-12.4Zm0,3.6c4.88772,0,8.85,3.96228,8.85,8.85s-3.96228,8.85-8.85,8.85-8.85-3.96228-8.85-8.85s3.96228-8.85,8.85-8.85Z" clip-rule="evenodd" fill="#fff" stroke-linecap="round" stroke-linejoin="round" stroke-miterlimit="10"/><path d="M921.4,596.5l.2,62.7" clip-rule="evenodd" fill="none" stroke="#fff" stroke-width="3.5" stroke-linecap="round" stroke-linejoin="round" stroke-miterlimit="10"/><path d="M921.4,572.6c-4.430093,0-8.523669,2.363426-10.738716,6.2s-2.215046,8.563427,0,12.4s6.308622,6.2,10.738716,6.2c6.848331,0,12.399999-5.551669,12.399999-12.4s-5.551668-12.4-12.399999-12.4Zm0,3.5c3.161801,0,6.083425,1.6868,7.664325,4.425s1.5809,6.111801,0,8.85-4.502525,4.425-7.664325,4.425c-4.88772,0-8.85-3.96228-8.85-8.85s3.96228-8.85,8.85-8.85Z" clip-rule="evenodd" fill="#fff" stroke-linecap="round" stroke-linejoin="round" stroke-miterlimit="10"/><path d="M921.6,659.2l138.8,3m-.8,136.4l.7-136.5m39.8,136.5v-79.3m-40-40.7l41,40.6m-81.6-213.7l-.9,293" clip-rule="evenodd" fill="none" stroke="#fff" stroke-width="3.5" stroke-linecap="round" stroke-linejoin="round" stroke-miterlimit="10"/><path d="M1019.6,481.6c-6.848331,0-12.4,5.551669-12.4,12.4s5.551669,12.4,12.4,12.4s12.4-5.551669,12.4-12.4-5.551669-12.4-12.4-12.4Zm0,3.6c3.386426-.360481,6.681658,1.243097,8.487609,4.130374s1.805951,6.551975,0,9.439252-5.101183,4.490855-8.487609,4.130374c-4.525095-.481691-7.957928-4.299339-7.957928-8.85s3.432833-8.368309,7.957928-8.85Z" clip-rule="evenodd" fill="#fff" stroke-linecap="round" stroke-linejoin="round" stroke-miterlimit="10"/><path d="M1283.6,999.5l135.6,1.8m.5,77.5l.2-77m40.3,98l-40.6-20.8m156.9,21.5l-116.6-1" clip-rule="evenodd" fill="none" stroke="#fff" stroke-width="3.5" stroke-linecap="round" stroke-linejoin="round" stroke-miterlimit="10"/><path d="M1600.4,1100.8c.082843-6.848331-5.401669-12.467157-12.25-12.55s-12.467157,5.401669-12.55,12.25c-.055228,6.848331,5.451669,12.444772,12.3,12.5s12.444772-5.451669,12.5-12.3Zm-3.5,0c-.035726,3.161801-1.75554,6.064365-4.511602,7.614325s-6.129664,1.51184-8.850001-.1-4.374124-4.552524-4.338397-7.714325c.027614-4.88772,4.01228-8.827614,8.9-8.8s8.827614,4.01228,8.8,8.9Z" clip-rule="evenodd" fill="#fff" stroke-linecap="round" stroke-linejoin="round" stroke-miterlimit="10"/></g><g transform="matrix(1.115044 0 0 1.118076-114.24696-116.583871)" clip-rule="evenodd"><path d="M733,798.6h539.8c6,0,10.8,4.8,10.8,10.8v437.8c0,6-4.8,10.8-10.8,10.8h-539.8c-5.964675,0-10.8-4.835325-10.8-10.8v-437.8c0-6,4.8-10.8,10.8-10.8Z" clip-rule="evenodd" fill="#242d43" stroke-linecap="round" stroke-linejoin="round" stroke-miterlimit="10"/><path d="M759.5,825.4h480.6c6,0,10.8,4.8,10.8,10.8v381.8c0,6-4.8,10.9-10.8,10.9h-480.6c-2.881749.000124-5.644035-1.151447-7.672327-3.19852s-3.154356-4.819855-3.127673-7.70148v-381.7c0-6,4.8-10.8,10.8-10.8Z" clip-rule="evenodd" fill="#2b3754" stroke-linecap="round" stroke-linejoin="round" stroke-miterlimit="10"/><path d="M917.6,1258h178.2c0,0-26.5,7.3-25.4,27s25.4,78.7,25.4,78.7h-178.2c0,0,28.9-48,28.9-74.4s-29-31.3-29-31.3Z" clip-rule="evenodd" fill="#303d5c" stroke-linecap="round" stroke-linejoin="round" stroke-miterlimit="10"/><path d="M870.6,1031.6c-.266085-36.634592,14.045894-71.871516,39.781775-97.94504s60.783276-40.843546,97.418225-41.05496c75.8,0,137.3,62.2,137.3,139s-61.5,139.1-137.3,139.1c-76.247989-.550447-137.643376-62.751313-137.2-139Z" clip-rule="evenodd" fill="#3b4d77" fill-opacity="0.7" stroke-linecap="round" stroke-linejoin="round" stroke-miterlimit="10"/><path d="M1433.6,1267.7c-.389203-31.774002,25.026646-57.861045,56.8-58.3c31.734091.493514,57.089541,26.564462,56.7,58.3.445184,31.774351-24.926361,57.906596-56.7,58.4-15.276942-.210706-29.844305-6.482282-40.496686-17.43473s-16.516967-25.688369-16.303314-40.96527Z" clip-rule="evenodd" fill="#2b354e" stroke="#fddf19" stroke-width="3.5" stroke-linecap="round" stroke-linejoin="round" stroke-miterlimit="10"/><path d="M668.8,1396.4h214.4c20.636677,1.048682,36.830863,18.086695,36.830863,38.75s-16.194186,37.701318-36.830863,38.75h-214.5c-20.636677-1.048682-36.830863-18.086695-36.830863-38.75s16.194186-37.701318,36.830863-38.75Z" clip-rule="evenodd" fill="#303d5c" fill-opacity="0.6" stroke-linecap="round" stroke-linejoin="round" stroke-miterlimit="10"/><g clip-rule="evenodd"><path d="M500.5,1202.3h193.4v121.2h-193.4v-121.2Z" clip-rule="evenodd" fill="#303d5c" fill-opacity="0.6" stroke-linecap="round" stroke-linejoin="round" stroke-miterlimit="10"/><path d="M524.4,1202.3h169.5v121.2h-193.4v-121.2" clip-rule="evenodd" fill="none" stroke="#fff" stroke-width="3.5" stroke-linecap="round" stroke-linejoin="round" stroke-miterlimit="10"/><path d="M500.5,1202.3c0,4.430094,2.363426,8.523669,6.2,10.738716s8.563427,2.215046,12.4,0s6.2-6.308623,6.2-10.738716c0-6.848331-5.551669-12.4-12.4-12.4s-12.4,5.551669-12.4,12.4Zm3.5,0c0-3.1618,1.6868-6.083425,4.425-7.664325s6.1118-1.5809,8.85,0s4.425,4.502524,4.425,7.664325c0,4.88772-3.96228,8.85-8.85,8.85s-8.85-3.96228-8.85-8.85Z" clip-rule="evenodd" fill="#fff" stroke-linecap="round" stroke-linejoin="round" stroke-miterlimit="10"/></g><path d="M197.2,869h652.3v155.3h-652.3v-155.3Z" clip-rule="evenodd" fill="#303d5c" fill-opacity="0.6" stroke="#8cc2ee" stroke-width="3.5" stroke-opacity="0.8" stroke-linecap="round" stroke-linejoin="round" stroke-miterlimit="10"/><path d="M1183.5,582.9h501.5v385.8h-501.5v-385.8Z" clip-rule="evenodd" fill="#3b4d77" fill-opacity="0.8" stroke-linecap="round" stroke-linejoin="round" stroke-miterlimit="10"/><path d="M1262.7,723.7h115.5v114h-115.5v-114Z" clip-rule="evenodd" fill="#2b354e" stroke-linecap="round" stroke-linejoin="round" stroke-miterlimit="10"/><path d="M1520.3,628.5h82.5v82h-82.5v-82Z" clip-rule="evenodd" fill="#2b354e" stroke-linecap="round" stroke-linejoin="round" stroke-miterlimit="10"/><path d="M1519.8,742.1h82.4v82h-82.4v-82Z" clip-rule="evenodd" fill="#2b354e" stroke-linecap="round" stroke-linejoin="round" stroke-miterlimit="10"/><path d="M1521.2,855.6h82.5v82h-82.5v-82Z" clip-rule="evenodd" fill="#2b354e" stroke-linecap="round" stroke-linejoin="round" stroke-miterlimit="10"/><path d="M1253.2,1315l35,64.6l34.9,64.6-71-.7-71-.7l36-63.9l36-63.9Z" clip-rule="evenodd" fill="#2b354e" stroke-linecap="round" stroke-linejoin="round" stroke-miterlimit="10"/><path d="M711.4,690.8L601.9,581.4L711.3,471.9L820.8,581.4L711.4,690.8Z" clip-rule="evenodd" fill="#303d5c" fill-opacity="0.6" stroke="#8cc2ee" stroke-width="3.5" stroke-opacity="0.8" stroke-linecap="round" stroke-linejoin="round" stroke-miterlimit="10"/><path d="M639.1,659.9l.4-140.8l140.4.3-.3,140.7L639,660Z" clip-rule="evenodd" fill="#303d5c" fill-opacity="0.6" stroke="#8cc2ee" stroke-width="3.5" stroke-opacity="0.8" stroke-linecap="round" stroke-linejoin="round" stroke-miterlimit="10"/><path d="M1557.7,695.2c0-3.6,3.1-6.5,7-6.5c3.7,0,6.8,3,6.8,6.5c0,3.6-3,6.5-6.9,6.5-1.777169.053842-3.502865-.60091-4.797042-1.820063s-2.050699-2.90272-2.102958-4.679937Zm-1.4-56.4h15.3l-2,42.9h-10.7l-2.6-43Z" clip-rule="evenodd" fill="#f1d244" stroke="#fff" stroke-width="3.5" stroke-linecap="round" stroke-linejoin="round" stroke-miterlimit="10"/><path d="M1554.2,808c0-3.6,3-6.5,6.9-6.5c3.8,0,6.8,3,6.8,6.5c0,3.6-3,6.5-6.8,6.5-3.9,0-7-2.9-7-6.5Z" clip-rule="evenodd" fill="#fddf19" stroke="#fff" stroke-width="3.5" stroke-linecap="round" stroke-linejoin="round" stroke-miterlimit="10"/><path d="M1552.8,751.6h15.2l-2,42.9h-10.6l-2.6-43Zm1,171c0-3.5,3-6.4,6.8-6.4s7,2.9,7,6.5-3.2,6.5-7,6.5-6.9-3-6.9-6.5Zm-1.5-56.4h15.3l-2,43h-10.7l-2.6-43Z" clip-rule="evenodd" fill="#f1d244" stroke="#fff" stroke-width="3.5" stroke-linecap="round" stroke-linejoin="round" stroke-miterlimit="10"/><path d="M1378.2,779.9h141.6" clip-rule="evenodd" fill="none" stroke="#fff" stroke-width="3.5" stroke-linecap="round" stroke-linejoin="round" stroke-miterlimit="10"/><path d="M1480.1,680.5l-39.8,97.2" clip-rule="evenodd" fill="none" stroke="#fff" stroke-width="3.5" stroke-linecap="round" stroke-linejoin="round" stroke-miterlimit="10"/><path d="M1520.3,679.7h-39.7" clip-rule="evenodd" fill="none" stroke="#fff" stroke-width="3.5" stroke-linecap="round" stroke-linejoin="round" stroke-miterlimit="10"/><path d="M1440.4,779.9l38.4,100.3" clip-rule="evenodd" fill="none" stroke="#fff" stroke-width="3.5" stroke-linecap="round" stroke-linejoin="round" stroke-miterlimit="10"/><path d="M1521.2,880.4l-42.1-.2" clip-rule="evenodd" fill="none" stroke="#fff" stroke-width="3.5" stroke-linecap="round" stroke-linejoin="round" stroke-miterlimit="10"/><path d="M1281.2,700.7l77.1.5" clip-rule="evenodd" fill="none" stroke="#fff" stroke-width="3.5" stroke-linecap="round" stroke-linejoin="round" stroke-miterlimit="10"/><path d="M1360.2,680h-78.8" clip-rule="evenodd" fill="none" stroke="#fff" stroke-width="3.5" stroke-linecap="round" stroke-linejoin="round" stroke-miterlimit="10"/><path d="M1361.3,662.3l-80.7-1.7" clip-rule="evenodd" fill="none" stroke="#fff" stroke-width="3.5" stroke-linecap="round" stroke-linejoin="round" stroke-miterlimit="10"/><path d="M1360.3,640.1l-79-.3" clip-rule="evenodd" fill="none" stroke="#fff" stroke-width="3.5" stroke-linecap="round" stroke-linejoin="round" stroke-miterlimit="10"/><path d="M1460.3,1274l28.2,25" clip-rule="evenodd" fill="none" stroke="#fddf19" stroke-width="3.5" stroke-linecap="round" stroke-linejoin="round" stroke-miterlimit="10"/><path d="M1520.8,1240.5l-31.5,58" clip-rule="evenodd" fill="#fddf19" stroke="#fddf19" stroke-width="3.5" stroke-linecap="round" stroke-linejoin="round" stroke-miterlimit="10"/><path d="M1249,1353.6h7.5v56.7h-7.6v-56.7Zm-1.4,71.8c0-2.7,2.3-5,5.2-5s5.2,2.3,5.2,5-2.3,5-5.2,5c-1.352679.026783-2.660569-.485015-3.635815-1.422752s-1.537922-2.224559-1.564185-3.577248Z" clip-rule="evenodd" fill="#f1d244" stroke="#fff" stroke-width="3.5" stroke-linecap="round" stroke-linejoin="round" stroke-miterlimit="10"/><path d="M668.3,1416.4v28.5m-1.1,8.5c0-.5.4-.9,1-.9s1,.4,1,1-.5.8-1,.8-1-.4-1-.9Z" clip-rule="evenodd" fill="none" stroke="#fff" stroke-width="3.5" stroke-linecap="round" stroke-linejoin="round" stroke-miterlimit="10"/><path d="M700,1451.2l-2.7-7-7.3,2.2l3.8-6.4-6.3-4.2l7.5-1.1-.5-7.4l5.6,5l5.6-5-.6,7.4l7.5,1.1-6.2,4.2l3.7,6.4-7.2-2.1-2.8,6.9Z" clip-rule="evenodd" fill="#f1d244" stroke="#fff" stroke-width="3.5" stroke-linecap="round" stroke-linejoin="round" stroke-miterlimit="10"/><path d="M875.7,1451.8l-2.8-6.9-7.3,2.2l3.8-6.4-6.2-4.2l7.5-1.2-.6-7.4l5.6,5l5.6-5-.6,7.4l7.5,1.2-6.2,4.1l3.8,6.5-7.3-2.2-2.8,6.9Z" clip-rule="evenodd" fill="#303d5c" fill-opacity="0.6" stroke="#fff" stroke-width="3.5" stroke-linecap="round" stroke-linejoin="round" stroke-miterlimit="10"/><path d="M832,1451.6l-2.8-7-7.3,2.3l3.8-6.5-6.3-4.2l7.6-1-.6-7.5l5.6,5l5.6-5-.6,7.4l7.6,1.1-6.3,4.2l3.8,6.5-7.3-2.2-2.8,6.9Z" clip-rule="evenodd" fill="#303d5c" fill-opacity="0.6" stroke="#fff" stroke-width="3.5" stroke-linecap="round" stroke-linejoin="round" stroke-miterlimit="10"/><path d="M786.6,1451.6l-2.8-6.9-7.2,2.2l3.7-6.4-6.2-4.2l7.5-1.2-.6-7.3l5.6,5l5.6-5-.6,7.3l7.6,1.2-6.3,4.2l3.8,6.4-7.3-2.2-2.8,7Z" clip-rule="evenodd" fill="#f1d244" stroke="#fff" stroke-width="3.5" stroke-linecap="round" stroke-linejoin="round" stroke-miterlimit="10"/><path d="M742.8,1451.5l-2.8-7-7.3,2.2l3.8-6.4-6.2-4.2l7.5-1.1-.6-7.4l5.6,5l5.6-5-.6,7.4l7.6,1.1-6.3,4.2l3.8,6.4-7.3-2.1-2.8,6.9Z" clip-rule="evenodd" fill="#f1d244" stroke="#fff" stroke-width="3.5" stroke-linecap="round" stroke-linejoin="round" stroke-miterlimit="10"/><path d="M271,886.8h28.6L294.8,969h-18L271,886.8Z" clip-rule="evenodd" fill="#fddf19" stroke="#fff" stroke-width="3.5" stroke-linecap="round" stroke-linejoin="round" stroke-miterlimit="10"/><path d="M271.8,994c0-7.4,6.2-13.5,13.7-13.5s13.7,6,13.7,13.5-6.2,13.5-13.7,13.5c-3.606973.026619-7.076779-1.380767-9.646048-3.912529s-4.027528-5.980496-4.053952-9.587471Z" clip-rule="evenodd" fill="#fddf19" stroke="#fff" stroke-width="3.5" stroke-linecap="round" stroke-linejoin="round" stroke-miterlimit="10"/><path d="M700,540h19.3l-2.8,60.4h-13.3L700,540Zm.3,83.3c0-5.6,4.3-10.1,9.7-10.1s9.6,4.5,9.6,10.1-4.3,10.2-9.6,10.2-9.7-4.6-9.7-10.2Z" clip-rule="evenodd" fill="#fddf19" stroke="#fff" stroke-width="3.5" stroke-linecap="round" stroke-linejoin="round" stroke-miterlimit="10"/><g clip-rule="evenodd"><path d="M808.4,908.5L758,979.3l-35.7-60.2-22.2,60-20.7-37.7-41,35.4-19.6-55.5-39.9,38.2-20.4-40.9-39.3,62.7L480.6,905l-19.2,75.3-41.3-40.5-39.8,38.5-38.9-58.6" clip-rule="evenodd" fill="none" stroke="#fff" stroke-width="3.5" stroke-linecap="round" stroke-linejoin="round" stroke-miterlimit="10"/><path d="M806.6,911l4.7,14.8l4.3-27.4-24.4,13l15.4-.4Z" clip-rule="evenodd" fill="#fff" stroke-linecap="round" stroke-linejoin="round" stroke-miterlimit="10"/></g><path d="M1280.8,740.8l81.6-.5m-2.7,20l-80-.2m59.7,19.7l-59.2.6m60,19.5l-60.7,1m83.8,18.2l-83.3,1.3M600.2,1269.7l92-67.4m-175.9,11.3l82.7,56m-96,54l79.2-65.4m111.7,63l-76.7-64" clip-rule="evenodd" fill="none" stroke="#fff" stroke-width="3.5" stroke-linecap="round" stroke-linejoin="round" stroke-miterlimit="10"/><path d="M959.7,1002.3h104.3v95.1h-104.3v-95.1Z" clip-rule="evenodd" fill="none" stroke="#fff" stroke-width="3.5" stroke-linecap="round" stroke-linejoin="round" stroke-miterlimit="10"/><path d="M969.8,1002.3c0,0,2.8-53.4,42.5-53.7c39.6-.4,40.4,53.7,40.4,53.7h-17.5c0,0,.6-34.8-22-34.5s-24.4,34.5-24.4,34.5h-19Z" clip-rule="evenodd" fill="none" stroke="#fff" stroke-width="3.5" stroke-linecap="round" stroke-linejoin="round" stroke-miterlimit="10"/><path d="M1011.6,1041.6l9.3,15.8l9.3,15.8-18.4.2-18.3.1l9-16l9-15.9ZM997.8,1029c0-6.8,6.1-12.4,13.7-12.4c7.5,0,13.6,5.6,13.6,12.4s-6.1,12.5-13.6,12.5c-7.6,0-13.7-5.6-13.7-12.4Z" clip-rule="evenodd" fill="#f1d244" stroke="#fff" stroke-width="3.5" stroke-linecap="round" stroke-linejoin="round" stroke-miterlimit="10"/><path d="M913,1362.3h186.4v10.7h-186.4v-10.7Z" clip-rule="evenodd" fill="#29344f" stroke-linecap="round" stroke-linejoin="round" stroke-miterlimit="10"/><path d="M1055.5,1428.6h.2v.6h-.3v-.6Z" clip-rule="evenodd" fill="#29344f" stroke-linecap="round" stroke-linejoin="round" stroke-miterlimit="10"/><path d="M502.3,1202.3c0-5.8,4.8-10.5,10.6-10.5c5.79899,0,10.5,4.70101,10.5,10.5s-4.70101,10.5-10.5,10.5c-2.802059.026687-5.498537-1.067767-7.48935-3.039799s-3.110777-4.658015-3.11065-7.460201Z" clip-rule="evenodd" fill="#303d5c" fill-opacity="0.6" stroke="#fddf19" stroke-width="3.5" stroke-linecap="round" stroke-linejoin="round" stroke-miterlimit="10"/><path d="M337.7,923.4c-.0536-2.324595.825568-4.573915,2.441319-6.246029s3.833614-2.627862,6.158681-2.653971c2.307432.02637,4.509864.968362,6.12271,2.618715s2.503965,3.873857,2.47729,6.181285c.0536,2.324595-.825568,4.573915-2.441319,6.246029s-3.833614,2.627862-6.158681,2.653971c-2.307432-.02637-4.509864-.968362-6.12271-2.618715s-2.503965-3.873857-2.47729-6.181285Zm113.5,57c-.000315-4.766094,3.834221-8.645217,8.6-8.7c2.307432.02637,4.509864.968362,6.12271,2.618715s2.503965,3.873857,2.47729,6.181285c.026675,2.307428-.864445,4.530931-2.47729,6.181285s-3.815278,2.592345-6.12271,2.618715c-2.307432-.02637-4.509864-.968362-6.12271-2.618715s-2.503965-3.873857-2.47729-6.181285ZM611.4,916c-.026675-2.307428.864445-4.530931,2.47729-6.181285s3.815278-2.592345,6.12271-2.618715c2.307432.02637,4.509864.968362,6.12271,2.618715s2.503965,3.873857,2.47729,6.181285c.026675,2.307428-.864445,4.530931-2.47729,6.181285s-3.815278,2.592345-6.12271,2.618715c-2.307432-.02637-4.509864-.968362-6.12271-2.618715s-2.503965-3.873857-2.47729-6.181285Zm102.2.3c-.026675-2.307428.864445-4.530931,2.47729-6.181285s3.815278-2.592345,6.12271-2.618715c4.765738.109257,8.556045,4.033339,8.5,8.8.026675,2.307428-.864445,4.530931-2.47729,6.181285s-3.815278,2.592345-6.12271,2.618715c-2.307432-.02637-4.509864-.968362-6.12271-2.618715s-2.503965-3.873857-2.47729-6.181285Z" clip-rule="evenodd" fill="#2b354e" stroke="#fddf19" stroke-width="3.5" stroke-linecap="round" stroke-linejoin="round" stroke-miterlimit="10"/><g clip-rule="evenodd"><path d="M694.5,492.3c-32.479642,14.726378-63.0392,33.36435-91,55.5-36,27.4-69.4,58-101.3,90-56.382217,56.995666-108.7728,117.806165-156.8,182-23.593147,31.095287-46.269556,62.875607-68,95.3-17.320983,25.830519-33.861783,52.175744-49.6,79-17.346546,29.211362-33.135284,59.320118-47.3,90.2-10.206458,21.615892-18.342785,44.149835-24.3,67.3-1.621443,6.82004-2.823693,13.73298-3.6,20.7-1.3,14.1-.6,31.3,11.4,40.9c1.695882,1.341927,3.541518,2.482867,5.5,3.4c6.477575,2.83806,13.543805,4.072935,20.6,3.6c12.4-.4,24.6-3.8,36.2-7.8c17.721975-6.357324,34.937742-14.045919,51.5-23c21.465847-11.464372,42.450304-23.80817,62.9-37c43.074104-27.721237,85.16645-56.939062,126.2-87.6c50.606787-37.680978,100.645745-76.118631,150.1-115.3c27.8-21.9,55.5-43.9,83.5-65.6c10.228686-7.959604,20.529107-15.826592,30.9-23.6c4.6-3.4,9.3-7,14-10.3-4.697492,3.391237-9.364348,6.824709-14,10.3-10.873811,8.136059-21.674248,16.369725-32.4,24.7-27.5,21.3-54.9,42.9-82.3,64.3-49.822782,39.358598-100.26237,77.930049-151.3,115.7-40.740323,30.355841-82.532673,59.273612-125.3,86.7-20.451467,13.095713-41.436085,25.33952-62.9,36.7-16.473305,8.811694-33.588657,16.366517-51.2,22.6-11.486498,4.324262-23.551357,6.919217-35.8,7.7-6.8.2-13.8-.5-20-3.5-2-1-4-2.3-5.8-3.8-10-8.6-11.2-23-10.4-35.3.286207-4.767848.88752-9.511539,1.8-14.2.7-3.9,1.6-7.7,2.5-11.5c5.9-23.9,15.4-47,25.7-69.3c13.8-30,29.5-58.9,46.3-87.2c35.4-60,75-117.3,117.2-172.7c30.750721-40.395982,63.006757-79.623592,96.7-117.6c18.090465-20.502085,36.662303-40.574341,55.7-60.2c32.8-33.6,67.2-66,104.3-94.8c28-21.9,57.8-42,90.4-56.4Z" clip-rule="evenodd" fill="#fff" stroke-linecap="round" stroke-linejoin="round" stroke-miterlimit="10"/></g><g clip-rule="evenodd"><path d="M1335.6,347.7c-7.5587.048217-15.070367,1.193493-22.3,3.4-16.8,4.7-32.6,13-47.6,21.9-21.075927,12.917769-41.134281,27.426645-60,43.4l-54.2,45.5c-56.788424,47.322393-112.372808,96.071264-166.7,146.2-16.026193,14.828897-31.860839,29.863476-47.5,45.1-15.466629,15.235144-30.701708,30.703584-45.7,46.4-30.260436,31.570627-59.703513,63.914665-88.3,97c25.5104-28.542333,51.65015-56.515866,78.4-83.9c19.018462-19.315161,38.253005-38.416363,57.7-57.3c28.8-28.2,58-55.8,87.8-82.8c44.7-40.5,90.5-79.8,136.5-118.7c14.3-12.1,28.6-24.3,43-36.3c18.75961-16.033756,38.717788-30.609577,59.7-43.6c14.8-9,30.5-17.1,47.2-22c15-4.2,34.2-6.5,46.3,5.5c2.06624,2.016388,3.849186,4.303942,5.3,6.8c9,15.9,6.1,35.8.8,52.4-2.275317,7.087004-5.0489,14.004253-8.3,20.7-6,12.8-13,25-20.5,37-10.6,16.9-22,33.3-33.2,49.8-6.173832,8.882892-12.174958,17.884581-18,27c5.861064-9.114297,11.895496-18.115935,18.1-27c11.4-16.4,22.9-32.7,33.5-49.6c9.819885-15.505624,18.412723-31.755116,25.7-48.6c1.198004-2.996892,2.298582-6.031818,3.3-9.1c5.3-16.5,8.2-35.8-.1-51.8-1.331411-2.646752-3.013191-5.102151-5-7.3-1.424496-1.491886-2.999551-2.832358-4.7-4-6.2-4.4-13.6-6-21.2-6.1Z" clip-rule="evenodd" fill="#fff" stroke-linecap="round" stroke-linejoin="round" stroke-miterlimit="10"/></g><g clip-rule="evenodd"><path d="M1462.4,982.3c-33.1,33.1-65,67.4-97.4,101.2-41.1,43-82.8,85.4-126,126.4-23.718786,22.523588-47.924507,44.528789-72.6,66-12.4,10.8-25,21.3-37.7,32l-35.6,29.8c-49.366096,41.603493-99.508249,82.277315-150.4,122-30.531835,23.803257-61.67563,46.810986-93.4,69-24.8,17.2-50,33.8-76.1,49-19.234754,11.448824-39.174582,21.669238-59.7,30.6-15.04505,6.816419-30.86016,11.785922-47.1,14.8-5.250956.927377-10.568253,1.429009-15.9,1.5-3,0-6,0-9-1-1.651606-.446142-3.233345-1.119222-4.7-2-8.6-5.2-9.8-17-9.6-26c.2-10.2,2.3-20.3,4.8-30.1c3.554707-13.475738,7.89547-26.73176,13-39.7c12.022075-30.592174,25.709204-60.503558,41-89.6c17.030403-32.976609,35.412668-65.237318,55.1-96.7c11.071331-17.957632,22.847164-35.471265,35.3-52.5c4.14005-5.584712,8.476087-11.021436,13-16.3-.397113.336783-.797128.670129-1.2,1-4.612339,5.387505-9.048023,10.923772-13.3,16.6-12.491451,16.772065-24.333528,34.018132-35.5,51.7-20.886186,32.670083-40.337991,66.23529-58.3,100.6-15.007307,28.034465-28.298432,56.954352-39.8,86.6-5.242089,13.60023-9.584779,27.530243-13,41.7-2.3,9.7-4,19.7-3.8,29.7.2,9,2.1,19.2,10,24.7c3.029758,1.917265,6.443403,3.146177,10,3.6c7.458441.36698,14.934723-.068857,22.3-1.3c16.39964-3.117463,32.375946-8.152013,47.6-15c21.1-9.1,41.4-20,61.2-31.7c27.569062-16.468224,54.457889-34.04938,80.6-52.7c29.673901-21.04419,58.848638-42.783537,87.5-65.2c51.4-40,101.6-81.5,151.4-123.5l35.4-29.8c12.2-10.3,24.5-20.6,36.5-31.1c24.643592-21.538619,48.815971-43.610501,72.5-66.2c43.1-41,84.7-83.6,125.8-126.7c32.2-33.8,64-68.2,97-101.4Z" clip-rule="evenodd" fill="#fff" stroke-linecap="round" stroke-linejoin="round" stroke-miterlimit="10"/></g><g clip-rule="evenodd"><path d="M1804,655.6c-2.689524.229022-5.361646.62984-8,1.2-3.931626.857319-7.805841,1.959466-11.6,3.3-15.736523,5.833699-30.658603,13.66443-44.4,23.3-22.605881,15.275371-42.767851,33.88642-59.8,55.2c16.86965-20.140745,36.575374-37.724314,58.5-52.2c14.083798-9.746701,29.3797-17.613165,45.5-23.4c4.048591-1.422386,8.192129-2.558517,12.4-3.4c9.2-1.8,21.3-2.7,28.5,4.5c1.163008,1.129001,2.171738,2.406726,3,3.8.88258,1.571973,1.55499,3.252999,2,5c.774208,2.870042,1.177492,5.827454,1.2,8.8.2,9-2,17.8-4.8,26.2-2.823146,8.257777-6.060584,16.368059-9.7,24.3-6.141864,13.572241-12.779663,26.91455-19.9,40-9.255415,17.164815-18.924912,34.103108-29,50.8-19.469203,32.082342-39.912034,63.563634-61.3,94.4-24.936308,36.390638-51.118493,71.911691-78.5,106.5-18.5,23.2-37.7,46-58,67.8-15.665692,17.351995-32.649647,33.466693-50.8,48.2c18.247737-14.655915,35.332222-30.703963,51.1-48c20.8-22,40.3-45.3,59.3-68.9c25.731564-32.190462,50.411231-65.207854,74-99c22.958432-32.625788,44.869589-65.976103,65.7-100c10.208479-16.659809,20.011362-33.56478,29.4-50.7c7.055611-12.763624,13.6597-25.77168,19.8-39c3.874431-8.349168,7.3124-16.894021,10.3-25.6c2.8-8.4,5-17.1,5.1-26c.092527-3.571843-.311329-7.139236-1.2-10.6-.640831-2.408695-1.652965-4.702865-3-6.8-.779839-1.193067-1.684982-2.299352-2.7-3.3-6-6-14.7-7-23-6.4Z" clip-rule="evenodd" fill="#fff" stroke-linecap="round" stroke-linejoin="round" stroke-miterlimit="10"/></g><g clip-rule="evenodd"><path d="M1112.3,909.3c-5.936877-.058441-11.812311,1.205461-17.2,3.7-1.215875.532421-2.41636,1.099316-3.6,1.7-8.790829,4.58169-16.874195,10.40845-24,17.3-12.950485,12.479174-24.212716,26.598987-33.5,42c9.200952-14.249324,20.078728-27.342943,32.4-39c8.685694-8.266484,18.689693-15.025943,29.6-20c8.4-3.4,20.9-6,27.1,2.8c2.3,3.2,3,7.4,3,11.2.2,8-2.2,16-5.2,23.3-5.723427,13.346141-13.007501,25.967393-21.7,37.6-7.864986,11.053471-16.450277,21.576299-25.7,31.5-7.740902,8.164519-15.849287,15.972593-24.3,23.4-11.282453,9.921754-22.923547,19.428091-34.9,28.5-12.200999,9.312652-24.707891,18.217559-37.5,26.7-11.184136,7.483899-22.659763,14.522729-34.4,21.1-7.292231,4.102927-14.766557,7.873457-22.4,11.3-4.9,2.2-9.8,4.1-15,5.7-1.486984.447306-2.987733.847506-4.5,1.2-1.058635.268644-2.125888.502105-3.2.7-4.5.7-11.3,1-13.7-3.7-.306072-.569113-.541162-1.173629-.7-1.8l-.3-3c0-1.5.3-3,.7-4.6.716002-2.847977,1.686574-5.625822,2.9-8.3c3.582738-7.849063,7.831621-15.37661,12.7-22.5c5.997333-9.037015,12.335221-17.843343,19-26.4c10.266868-13.13753,20.870384-26.008464,31.8-38.6-11.358722,12.930993-22.36281,26.169244-33,39.7-6.869278,8.727448-13.374833,17.735138-19.5,27-4.6,7-9,14.2-12.2,22-1.11677,2.578799-1.987307,5.257376-2.6,8-.396028,1.770852-.530789,3.590125-.4,5.4c0,1,.3,1.9.6,2.8c2.5,6,10.6,5.5,15.8,4.6c2.36839-.411101,4.706867-.979017,7-1.7c5.110885-1.555001,10.120487-3.425253,15-5.6c7.661825-3.399,15.169196-7.136002,22.5-11.2c11.802406-6.54675,23.34454-13.552092,34.6-21c14.179385-9.267072,28.021626-19.040028,41.5-29.3c10.74506-8.186064,21.217411-16.724032,31.4-25.6c9.454236-8.182241,18.466946-16.861147,27-26c4-4.2,7.8-8.6,11.4-13c5.9219-7.150802,11.527287-14.557921,16.8-22.2c7.6-11,14.5-22.7,19.2-35.2c3.06057-7.338814,4.493489-15.253986,4.2-23.2-.3-3.7-1.3-7.6-3.5-10.6-.95246-1.329685-2.098475-2.509406-3.4-3.5-2.870881-2.040158-6.27982-3.188066-9.8-3.3Z" clip-rule="evenodd" fill="#fff" stroke-linecap="round" stroke-linejoin="round" stroke-miterlimit="10"/></g><g clip-rule="evenodd"><path d="M890.5,909.8c-4.3,0-8.7,1-10.9,5-.4.8-.8,1.8-1,2.7-.300486,1.581674-.367867,3.198811-.2,4.8.2,2.4.8,4.7,1.5,6.9c1.650963,5.048381,3.759729,9.935361,6.3,14.6c2.930308,5.535174,6.099969,10.940281,9.5,16.2c10.471504,16.728094,22.455018,32.46064,35.8,47c17.394895,19.861847,35.266768,39.300844,53.6,58.3c18.8,19.6,38,38.9,58,57.2c8.882001,8.160452,18.054595,15.99885,27.5,23.5c6.4,5,13,10,20,14c2.09003,1.274175,4.261354,2.409945,6.5,3.4l2.8,1.1c3.4,1.2,8.2,2.2,10.7-1.1c2.2-3,1.8-7.6,1.3-11-1.606024-8.341413-4.190553-16.464222-7.7-24.2-4.8-11.7-10.3-23-16.1-34.1-4-7.7-8-15.2-11.8-23-3.5-7.3-6.3-14.7-9.2-22.2-1.882901-4.88655-3.816338-9.753478-5.8-14.6c2.08939,5.177906,4.122842,10.378208,6.1,15.6c2,5.3,4,10.6,6.2,15.8c3.8,8.6,8.3,17,12.6,25.4c5.19327,10.007076,10.062467,20.17903,14.6,30.5c4.155199,9.156915,7.50129,18.659814,10,28.4l.4,2.5.3,2.3c.2,3,.2,7.8-3,9.5-2,1-4.5.6-6.6,0-3.9-1-7.5-3-10.9-5-6.4-3.8-12.4-8.3-18.3-12.9-6.660202-5.273299-13.163043-10.742354-19.5-16.4-13.465912-12.076427-26.571644-24.548548-39.3-37.4-14.377537-14.397303-28.480085-29.066619-42.3-44-11.776184-12.676765-23.344395-25.54515-34.7-38.6-7.651965-8.653307-15.054988-17.523597-22.2-26.6-2.840158-3.756028-5.574564-7.590865-8.2-11.5-3.350668-4.855426-6.584923-9.790166-9.7-14.8-3.486517-5.500023-6.690667-11.174038-9.6-17-1.401498-2.907269-2.669486-5.87703-3.8-8.9-.626386-1.771111-1.160438-3.573534-1.6-5.4-.8-3.8-1.6-9.5,2.3-11.8.625303-.36027,1.298732-.629642,2-.8c1.14085-.313903,2.316892-.481909,3.5-.5c2,0,4,.3,6,.7c2.815421.620592,5.587851,1.422259,8.3,2.4c8.049153,2.955293,15.870219,6.498169,23.4,10.6c10.758424,5.781604,21.206116,12.123654,31.3,19c17.653925,11.716771,34.160688,25.076201,49.3,39.9-14.088702-14.550378-29.487013-27.77284-46-39.5-14.52919-10.838591-30.028345-20.312156-46.3-28.3-4.108912-1.916905-8.314572-3.619196-12.6-5.1-2.702234-.933685-5.478877-1.636209-8.3-2.1-1.387441-.259109-2.790505-.426141-4.2-.5Z" clip-rule="evenodd" fill="#fff" stroke-linecap="round" stroke-linejoin="round" stroke-miterlimit="10"/></g><g clip-rule="evenodd"><path d="M962.5,1002.3c-5.5,0-11,.5-16.6,1-8.5.7-17,1.6-25.5,2.7-9.851736,1.265186-19.657439,2.866117-29.4,4.8-8.785059,1.662111-17.466307,3.832423-26,6.5-7.762107,2.152099-15.077112,5.674138-21.6,10.4-2.981338,2.168582-5.161309,5.262734-6.2,8.8-.6,2.4-.3,5,.6,7.2c2,5,6.7,8.4,11.5,10.7c2.759018,1.36228,5.637899,2.466966,8.6,3.3c10.1,3,20.7,4.2,31.3,5c14.109831.998062,28.258805,1.331764,42.4,1c19.216827-.495497,38.421086-1.395696,57.6-2.7l16.3-.8l8-.2c3.2-.1,6.4-.4,9.6-.7c15.376071-1.373614,30.714435-3.14086,46-5.3c20-2.7,40-5.9,59.7-9.7c9.352236-1.74888,18.655616-3.749607,27.9-6c7.041515-1.72467,13.984925-3.827722,20.8-6.3c3.969453-1.297359,7.764532-3.077352,11.3-5.3c1.630673-.977634,2.948852-2.39988,3.8-4.1c1.4-3.7-2.8-6.2-5.5-7.6-3.437946-1.578139-7.021564-2.817334-10.7-3.7-4.540819-1.281089-9.147532-2.31593-13.8-3.1-34-6.3-68.6-4.2-102.8-3c34.2-1,68.9-3,102.7,3.5c5,1,10,2,15,3.5c3.1.9,6.3,2,9.3,3.4c2.3,1.2,6.4,3.5,5.1,6.7-.7,1.8-2.5,3.1-4,4.1-3.685924,2.179688-7.612138,3.924672-11.7,5.2-6.502371,2.224061-13.110384,4.126368-19.8,5.7-9.210264,2.252936-18.480393,4.253684-27.8,6-18.751008,3.467581-37.591016,6.4353-56.5,8.9-15.721239,2.150903-31.492594,3.918095-47.3,5.3-3.6.3-7.2.6-10.8.7l-7.4.1-12.5.6c-19.3,1-38.6,2.1-58,2.5-14.8.2-29.7.1-44.6-1-10.57115-.580551-21.057184-2.222135-31.3-4.9-1.5151-.416671-3.015928-.883596-4.5-1.4-1.355149-.477087-2.689659-1.010891-4-1.6-4.5-2-9.3-5-11.2-9.9-.616206-1.484954-.823386-3.107864-.6-4.7.6-4,4-7.1,7.1-9.3c6.330171-4.179806,13.236212-7.413854,20.5-9.6c7.816648-2.573271,15.760475-4.742803,23.8-6.5c10.92252-2.404899,21.929997-4.406258,33-6c8.10956-1.184689,16.244993-2.184947,24.4-3c4.6-.6,9.2-1,13.8-1.2Z" clip-rule="evenodd" fill="#fff" stroke-linecap="round" stroke-linejoin="round" stroke-miterlimit="10"/></g><g clip-rule="evenodd"><path d="M1713.7,1182l-57,51.3c-33.034877,29.571419-66.573115,58.575661-100.6,87-31.844453,26.949429-64.736541,52.635948-98.6,77-12.885962,9.280069-26.129385,18.053419-39.7,26.3-8.2423,5.000809-16.755347,9.541101-25.5,13.6-5.171235,2.408161-10.520415,4.414104-16,6-3.189956.97943-6.475147,1.616355-9.8,1.9-2.1.1-4.4,0-6.5-.4-1.2-.3-2.4-.7-3.5-1.3-6.6-3.8-6.8-13-6.2-19.6.335984-2.925902.83678-5.830518,1.5-8.7c2.4-11.2,6.5-22,10.8-32.6c6.332959-15.384386,13.305702-30.497557,20.9-45.3c10.8-21.3,22.4-42.2,34.3-63-12.760553,20.75194-24.932079,41.860366-36.5,63.3-7.474843,13.693421-14.348059,27.706774-20.6,42-4.638368,10.524216-8.35237,21.432005-11.1,32.6-.853433,3.422825-1.48805,6.89652-1.9,10.4-.8,7.3-.6,16.6,5.6,21.7c5.9,5,15,3.7,21.8,1.9l3.7-1c1.684708-.54865,3.352162-1.148934,5-1.8c11.251927-4.4842,22.092736-9.938064,32.4-16.3c12.959048-7.82873,25.602328-16.168625,37.9-25c35.8-25.4,70-53.2,103.5-81.5c33.619464-28.43984,66.757498-57.443954,99.4-87c19-17,37.8-34.4,56.7-51.6Z" clip-rule="evenodd" fill="#fff" stroke-linecap="round" stroke-linejoin="round" stroke-miterlimit="10"/></g><g clip-rule="evenodd"><path d="M1222,894.4c-.994113,0-1.8.805887-1.8,1.8s.805887,1.8,1.8,1.8l218.3.5c.504088.027231.99829-.147266,1.373523-.484975s.600642-.810863.626477-1.315025c.029192-.538853-.17213-1.0647-.553715-1.446285s-.907432-.582907-1.446285-.553715l-218.3-.3Z" clip-rule="evenodd" fill="#fff" stroke-linecap="round" stroke-linejoin="round" stroke-miterlimit="10"/></g><g clip-rule="evenodd"><path d="M1223.4,940.9c-.494468-.027514-.978427.149912-1.337943.490505s-.562822.814263-.562057,1.309495c0,1,.9,2,2,2l217,.8c1,0,1.8-.8,1.8-1.8-.053129-.954859-.843666-1.701477-1.8-1.7l-217-1.1Z" clip-rule="evenodd" fill="#fff" stroke-linecap="round" stroke-linejoin="round" stroke-miterlimit="10"/></g><g clip-rule="evenodd"><path d="M1328.2,898.2l-.1.1c-.259508.078445-.476045.258892-.6.5-.4,1,0,.6-.5,1-.3.4-.4.9-.6,1.3l-.6,1.3-2.7,6-1.5,3.1-.3.8-1,.1-3.9.7c-.8,0-1.6.2-2.4.4-.7,0-1.3.2-2,.3l-1.8.3-1.5.2c-.9.2-2.2.2-2.4,1.4c0,.9.7,1.5,1.3,2l1.2,1.2l5,4.8l2.3,2.3.6.6.2.2v.9l-.4,1.8-.3,2.4-1.2,7.9c-.1.9-.5,2.1.4,2.7.9.5,1.9-.3,2.7-.7l1.6-1l6.6-3.6l1.8-1c.3-.2.7-.6,1-.5.4,0,.8.3,1.1.5l1.7.9l1.7.8l6.7,3.5c.9.5,2,1.2,2.9.3.5-.7.2-1.5.1-2.2l-.3-1.7-1.6-8.7-.4-2.3v-.3c.2-.4.6-.7.9-1l1.3-1.4l1.3-1.4l5.3-5.5c.7-.7,1.8-1.7,1-2.7-.5-.7-1.4-.7-2.2-.8l-1.8-.2-7.5-1-1.9-.3c-.3,0-.9,0-1.2-.2s-.5-.8-.6-1.1l-1-1.7-.8-1.8-2.5-5.1-1.6-3.3-.1-.2c-.111708-.272195-.327805-.488292-.6-.6-.257215-.100407-.542785-.100407-.8,0Zm.4,3.8l.7,1.3l1.7,3.4l1.7,3.5.9,1.7c.3.6.6,1.3,1.2,1.8.6.6,1.5.6,2.4.7l1.8.3l1.9.2l1.9.3l3.7.5l1.5.2-1,1.2-1.4,1.3-5.3,5.5c-.6.6-1.3,1.2-1.5,2-.2.7.2,2.3.3,3l.1.6l1.2,6.3.6,3.4-1.3-.7-1.7-.8-3.4-1.8-1.6-.9c-1.4-.7-3.2-2-4.8-1.5l-1.3.7-1.7,1-6.6,3.7-1.3.7l1.5-9.7c.2-1.3.9-3.4,0-4.5s-2-2-3-3l-5.4-5.2-.7-.7l4.2-.7l4-.6l2.8-.5c.4,0,1.5-.1,1.7-.3c1.2-.9,1.5-2.1,2.1-3.5l.7-1.5l1.2-2.6l2.2-4.7v-.1Z" clip-rule="evenodd" fill="#fff" stroke-linecap="round" stroke-linejoin="round" stroke-miterlimit="10"/></g><g clip-rule="evenodd"><path d="M1415.8,898.1c-.3.1-.6.3-.7.6-.5,1,0,.5-.4,1-.4.3-.5.9-.7,1.3l-.6,1.3-2.7,6-1.5,3.1-.3.8-1,.1-3.9.7-2.4.3-2,.4-1.8.3-1.4.2c-1,.2-2.3.2-2.5,1.4c0,.9.8,1.5,1.3,2l1.2,1.2l5,4.8l2.3,2.3.6.6.2.2v.9l-.3,1.8-.4,2.4-1.2,7.9c-.1.9-.5,2,.4,2.6s2-.2,2.7-.6l1.6-1l6.6-3.7l1.8-1c.3-.1.7-.5,1-.4.4,0,.8.3,1.1.5l1.7.8l1.7,1l6.7,3.4c.9.5,2,1.3,3,.3.4-.7.2-1.5,0-2.3l-.3-1.6-1.6-8.7-.4-2.3v-.3c.2-.4.6-.7.9-1l1.3-1.4l1.3-1.4l5.3-5.5c.8-.7,1.9-1.7,1-2.8-.5-.6-1.4-.6-2.1-.7l-2-.2-7.4-1-1.8-.3c-.4,0-1,0-1.3-.2s-.5-.8-.6-1.1l-.9-1.7-.8-1.8-2.6-5.1-1.6-3.3c-.087851-.309934-.307148-.565781-.6-.7h-.2c-.2-.1-.5-.2-.7-.1Zm.5,3.8l.6,1.3l1.7,3.4c.570577,1.131374,1.137247,2.264714,1.7,3.4l.9,1.7c.3.7.6,1.4,1.2,1.9.7.6,1.5.6,2.4.7l1.8.3l1.9.2l1.8.3l3.8.5l1.5.2-1.1,1.1-1.3,1.4-5.3,5.5c-.6.6-1.3,1.2-1.5,2-.2.7.2,2.3.3,2.9l.1.7l1.2,6.4.6,3.3-1.3-.7c-1.664729-.870387-3.3314-1.737056-5-2.6l-1.7-.9c-1.4-.7-3.2-2-4.8-1.5l-1.3.7-1.7,1-6.6,3.7-1.2.6l1.4-9.6c.2-1.3.9-3.4,0-4.5l-3-3-5.4-5.2-.7-.7l4.2-.6l4-.7l2.8-.5c.4,0,1.5-.1,1.8-.3c1.1-.9,1.4-2.1,2-3.5l.7-1.5l1.2-2.6l2.2-4.7v-.1Z" clip-rule="evenodd" fill="#fff" stroke-linecap="round" stroke-linejoin="round" stroke-miterlimit="10"/></g><g clip-rule="evenodd"><path d="M1284.2,898.3h-.1c-.279145.101026-.498974.320855-.6.6-.4,1,0,.5-.5,1-.3.3-.4.9-.6,1.3l-.6,1.3-2.7,6-1.5,3-.3.8-1,.2-3.9.6-2.4.4-2,.3-1.8.4-1.5.2c-.9.2-2.2.2-2.4,1.4c0,.9.7,1.5,1.3,2l1.2,1.1l4.9,4.8l2.4,2.4.6.6.2.1v1l-.4,1.8-.3,2.4-1.2,7.8c-.1,1-.5,2.1.4,2.7.9.5,1.9-.2,2.7-.7l1.6-.9l6.6-3.7l1.8-1c.3-.2.7-.5,1-.5.4,0,.8.4,1.1.5l1.7,1l1.7.8l6.7,3.5c.9.4,2,1.2,2.9.2.5-.6.2-1.5.1-2.2l-.3-1.6-1.6-8.7-.4-2.4v-.3l.9-1l1.3-1.3l1.3-1.4l5.3-5.5c.7-.8,1.8-1.7,1-2.8-.5-.6-1.4-.6-2.2-.7l-1.8-.3-7.5-1-1.9-.2c-.3,0-.9,0-1.2-.2s-.5-.8-.6-1.2l-1-1.7-.8-1.7-2.5-5.2-1.6-3.2c-.080444-.369194-.344751-.67126-.7-.8-.257215-.100407-.542785-.100407-.8,0Zm.4,3.7l.7,1.3l1.7,3.4l1.7,3.5.9,1.7c.3.7.6,1.4,1.2,1.9s1.5.6,2.3.7c1.267016.163998,2.533686.330665,3.8.5l1.9.3l3.7.5l1.5.2-1,1.1-1.4,1.4-5.3,5.5c-.6.6-1.3,1.2-1.5,2-.2.7.2,2.2.3,2.8l.1.8l1.2,6.3.6,3.4-1.3-.7-1.7-.9-3.4-1.7-1.6-1c-1.4-.6-3.2-2-4.8-1.4l-1.3.7-1.7,1-6.6,3.6-1.3.7c.6-3.2,1-6.4,1.5-9.7.2-1.2.9-3.3,0-4.5l-3-3-5.4-5.1-.7-.7l4.2-.7l4-.7l2.8-.4c.4,0,1.5-.1,1.7-.3c1.2-1,1.5-2.2,2.1-3.5l.7-1.6l1.2-2.6l2.2-4.6v-.2Z" clip-rule="evenodd" fill="#fff" stroke-linecap="round" stroke-linejoin="round" stroke-miterlimit="10"/></g><g clip-rule="evenodd"><path d="M1372,898.2c-.2,0-.5.3-.6.6-.5,1,0,.5-.4,1-.4.3-.5.8-.7,1.3l-.6,1.3-2.7,6-1.4,3-.4.8-1,.2-3.9.6-2.4.4-2,.3-1.8.3-1.4.3c-1,.1-2.3.2-2.4,1.4-.1.9.7,1.4,1.2,2l1.2,1.1l5,4.8l2.3,2.4.6.6.2.1v1l-.3,1.8-.4,2.4-1.2,7.8c-.1.9-.5,2.1.4,2.7c1,.6,2-.2,2.7-.7l1.7-.9l6.6-3.7l1.8-1c.2-.2.6-.5,1-.5.3,0,.7.4,1,.5l1.7.9l1.7.9l6.7,3.5c.9.4,2,1.2,3,.2.5-.6.2-1.5,0-2.2l-.3-1.6-1.6-8.7-.4-2.4v-.3c.2-.4.6-.6.9-1l1.3-1.3l1.3-1.4l5.4-5.5c.7-.8,1.8-1.7,1-2.8-.6-.6-1.5-.6-2.2-.7l-2-.3-7.4-1-1.8-.2c-.4,0-1,0-1.2-.2-.4-.3-.5-.8-.7-1.2l-.9-1.7-.8-1.7-2.6-5.2-1.6-3.2c-.06466-.322766-.270471-.599611-.560923-.754519s-.635014-.171595-.939077-.045481Zm.6,3.7l.6,1.3l1.7,3.5l1.7,3.4.9,1.7c.3.7.6,1.4,1.2,1.9.7.5,1.5.6,2.4.7l1.8.3l2,.2l1.8.3l3.7.5l1.5.2-1,1.1-1.4,1.4-5.3,5.5c-.6.6-1.3,1.2-1.5,2-.2.7.2,2.2.3,2.9l.2.7l1,6.3.7,3.4-1.3-.7-1.7-.9-3.3-1.7-1.7-.9c-1.4-.7-3.2-2-4.8-1.5l-1.3.7-1.7.9-6.6,3.7-1.2.7l1.5-9.7c.1-1.3.8-3.4-.1-4.5l-3-3-5.4-5.1-.6-.7l4.1-.7l4-.7l2.8-.4c.4,0,1.5-.1,1.8-.3c1.1-1,1.4-2.2,2-3.5l.7-1.6l1.2-2.5l2.2-4.7v-.2Z" clip-rule="evenodd" fill="#fff" stroke-linecap="round" stroke-linejoin="round" stroke-miterlimit="10"/></g><g clip-rule="evenodd"><path d="M1241.3,897.6c-.3.1-.5.3-.6.6-.5,1-.1.5-.5,1-.3.3-.4.9-.6,1.3l-.6,1.3-2.8,6-1.4,3.1-.3.8h-.1l-1,.1-3.8.7-2.4.3-2,.4-1.8.3-1.5.2c-.9.2-2.3.2-2.4,1.4-.1.9.7,1.5,1.3,2l1.1,1.2l5,4.8l2.4,2.3.6.6.2.2v.4l-.1.5-.3,1.8-.4,2.4-1.1,7.9c-.2.8-.6,2,.4,2.6.9.6,1.9-.2,2.7-.6l1.6-1l6.6-3.7l1.8-1c.3-.1.7-.5,1-.4.4,0,.8.3,1.1.5l1.7.8l1.7,1l6.7,3.4c.9.5,2,1.2,2.8.2.6-.6.3-1.4.2-2.2l-.3-1.6-1.6-8.7-.4-2.3c-.025444-.135183-.058835-.268748-.1-.4l1-1l1.2-1.3l1.4-1.4l5.3-5.5c.7-.7,1.8-1.7,1-2.8-.6-.6-1.5-.6-2.2-.7l-1.9-.2-7.4-1-2-.3c-.3,0-.8,0-1.1-.2-.4-.2-.5-.8-.7-1.2l-.8-1.7-.9-1.7-2.6-5.1-1.6-3.3c-.060223-.347418-.283342-.644909-.6-.8-.288639-.11676-.611361-.11676-.9,0Zm.5,3.7c.792201,1.603888,1.59221,3.203907,2.4,4.8.562949,1.135189,1.129618,2.268528,1.7,3.4l.8,1.8c.3.6.6,1.3,1.2,1.8.7.6,1.6.6,2.4.7l1.9.3l1.8.2l2,.3l3.6.5l1.6.2-1.1,1.1-1.4,1.4-5.3,5.5c-.6.6-1.3,1.2-1.5,2-.2.7.2,2.3.3,2.9l.2.7l1.1,6.3.6,3.4-1.3-.7-1.6-.8-3.4-1.8-1.7-.9c-1.3-.7-3.1-2-4.8-1.5l-1.3.7-1.6,1-6.6,3.7-1.3.6l1.5-9.6c.2-1.3.8-3.4,0-4.5l-3-3-5.4-5.2-.7-.7l4.2-.7l4-.6l2.7-.5c.4,0,1.6-.1,1.8-.3c1.2-.9,1.4-2.1,2-3.5l.8-1.5l1.2-2.6l2.1-4.7.1-.2Z" clip-rule="evenodd" fill="#fff" stroke-linecap="round" stroke-linejoin="round" stroke-miterlimit="10"/></g><g clip-rule="evenodd"><path d="M1240.2,598.3l-38,.1c-.994113,0-1.8.805887-1.8,1.8s.805887,1.8,1.8,1.8h38c1,0,1.9-.7,1.9-1.8s-.8-1.9-1.9-1.9Z" clip-rule="evenodd" fill="#fff" stroke-linecap="round" stroke-linejoin="round" stroke-miterlimit="10"/></g><g clip-rule="evenodd"><path d="M1200.2,599c-.521726-.000723-1.020794.213123-1.380132.591374s-.547328.887623-.519868,1.408626l1.2,37.8c0,1,.9,1.7,1.8,1.7.994113,0,1.8-.805887,1.8-1.8l-1-37.9c-.025835-.504162-.251245-.977316-.626477-1.315025s-.869435-.512206-1.373523-.484975Z" clip-rule="evenodd" fill="#fff" stroke-linecap="round" stroke-linejoin="round" stroke-miterlimit="10"/></g><g clip-rule="evenodd"><path d="M1666.6,598.6l-26.1.2c-1,0-1.8.8-1.8,1.8s.8,1.7,1.8,1.7l26,.1c1.1,0,2-.8,2-1.9.000723-.521726-.213123-1.020794-.591374-1.380132s-.887623-.547328-1.408626-.519868Z" clip-rule="evenodd" fill="#fff" stroke-linecap="round" stroke-linejoin="round" stroke-miterlimit="10"/></g><g clip-rule="evenodd"><path d="M1667.5,599.4c-1,0-1.8.8-1.8,1.9c0,8.6.2,17.1.3,25.7c0,1,.8,1.8,1.8,1.8.994113,0,1.8-.805887,1.8-1.8l-.2-25.7c.02746-.521003-.160529-1.030375-.519868-1.408626s-.858406-.592097-1.380132-.591374Z" clip-rule="evenodd" fill="#fff" stroke-linecap="round" stroke-linejoin="round" stroke-miterlimit="10"/></g><g clip-rule="evenodd"><path d="M1667,930.3c-1,0-1.8.8-1.8,1.7l-.1,23.4c.201129.859303.967472,1.466987,1.85,1.466987s1.648871-.607684,1.85-1.466987v-23.3c0-1-.8-1.8-1.8-1.8Z" clip-rule="evenodd" fill="#fff" stroke-linecap="round" stroke-linejoin="round" stroke-miterlimit="10"/></g><g clip-rule="evenodd"><path d="M1666,954l-27.7.7c-1,0-1.7.8-1.7,1.8s.9,1.8,1.8,1.8l27.7-.6c.854982-.223216,1.443221-1.006395,1.419347-1.889712s-.653557-1.633579-1.519347-1.810288Z" clip-rule="evenodd" fill="#fff" stroke-linecap="round" stroke-linejoin="round" stroke-miterlimit="10"/></g></g></svg>
