<svg width="224" height="55" viewBox="0 0 224 55" fill="none" xmlns="http://www.w3.org/2000/svg">
<path d="M54.3477 30.875V38H52.3555V20.8672H57.0547C59.1562 20.8672 60.707 21.2695 61.707 22.0742C62.7148 22.8789 63.2188 24.0898 63.2188 25.707C63.2188 27.9727 62.0703 29.5039 59.7734 30.3008L64.4258 38H62.0703L57.9219 30.875H54.3477ZM54.3477 29.1641H57.0781C58.4844 29.1641 59.5156 28.8867 60.1719 28.332C60.8281 27.7695 61.1562 26.9297 61.1562 25.8125C61.1562 24.6797 60.8203 23.8633 60.1484 23.3633C59.4844 22.8633 58.4141 22.6133 56.9375 22.6133H54.3477V29.1641ZM72.3242 38.2344C70.4258 38.2344 68.9258 37.6562 67.8242 36.5C66.7305 35.3438 66.1836 33.7383 66.1836 31.6836C66.1836 29.6133 66.6914 27.9688 67.707 26.75C68.7305 25.5312 70.1016 24.9219 71.8203 24.9219C73.4297 24.9219 74.7031 25.4531 75.6406 26.5156C76.5781 27.5703 77.0469 28.9648 77.0469 30.6992V31.9297H68.1992C68.2383 33.4375 68.6172 34.582 69.3359 35.3633C70.0625 36.1445 71.082 36.5352 72.3945 36.5352C73.7773 36.5352 75.1445 36.2461 76.4961 35.668V37.4023C75.8086 37.6992 75.1562 37.9102 74.5391 38.0352C73.9297 38.168 73.1914 38.2344 72.3242 38.2344ZM71.7969 26.5508C70.7656 26.5508 69.9414 26.8867 69.3242 27.5586C68.7148 28.2305 68.3555 29.1602 68.2461 30.3477H74.9609C74.9609 29.1211 74.6875 28.1836 74.1406 27.5352C73.5938 26.8789 72.8125 26.5508 71.7969 26.5508ZM88.2734 38L87.8867 36.1719H87.793C87.1523 36.9766 86.5117 37.5234 85.8711 37.8125C85.2383 38.0938 84.4453 38.2344 83.4922 38.2344C82.2188 38.2344 81.2188 37.9062 80.4922 37.25C79.7734 36.5938 79.4141 35.6602 79.4141 34.4492C79.4141 31.8555 81.4883 30.4961 85.6367 30.3711L87.8164 30.3008V29.5039C87.8164 28.4961 87.5977 27.7539 87.1602 27.2773C86.7305 26.793 86.0391 26.5508 85.0859 26.5508C84.0156 26.5508 82.8047 26.8789 81.4531 27.5352L80.8555 26.0469C81.4883 25.7031 82.1797 25.4336 82.9297 25.2383C83.6875 25.043 84.4453 24.9453 85.2031 24.9453C86.7344 24.9453 87.8672 25.2852 88.6016 25.9648C89.3438 26.6445 89.7148 27.7344 89.7148 29.2344V38H88.2734ZM83.8789 36.6289C85.0898 36.6289 86.0391 36.2969 86.7266 35.6328C87.4219 34.9688 87.7695 34.0391 87.7695 32.8438V31.6836L85.8242 31.7656C84.2773 31.8203 83.1602 32.0625 82.4727 32.4922C81.793 32.9141 81.4531 33.5742 81.4531 34.4727C81.4531 35.1758 81.6641 35.7109 82.0859 36.0781C82.5156 36.4453 83.1133 36.6289 83.8789 36.6289ZM102.477 36.2773H102.371C101.473 37.582 100.129 38.2344 98.3398 38.2344C96.6602 38.2344 95.3516 37.6602 94.4141 36.5117C93.4844 35.3633 93.0195 33.7305 93.0195 31.6133C93.0195 29.4961 93.4883 27.8516 94.4258 26.6797C95.3633 25.5078 96.668 24.9219 98.3398 24.9219C100.082 24.9219 101.418 25.5547 102.348 26.8203H102.5L102.418 25.8945L102.371 24.9922V19.7656H104.316V38H102.734L102.477 36.2773ZM98.5859 36.6055C99.9141 36.6055 100.875 36.2461 101.469 35.5273C102.07 34.8008 102.371 33.6328 102.371 32.0234V31.6133C102.371 29.793 102.066 28.4961 101.457 27.7227C100.855 26.9414 99.8906 26.5508 98.5625 26.5508C97.4219 26.5508 96.5469 26.9961 95.9375 27.8867C95.3359 28.7695 95.0352 30.0195 95.0352 31.6367C95.0352 33.2773 95.3359 34.5156 95.9375 35.3516C96.5391 36.1875 97.4219 36.6055 98.5859 36.6055ZM122.562 38L116.75 22.8125H116.656C116.766 24.0156 116.82 25.4453 116.82 27.1016V38H114.98V20.8672H117.98L123.406 35H123.5L128.973 20.8672H131.949V38H129.957V26.9609C129.957 25.6953 130.012 24.3203 130.121 22.8359H130.027L124.168 38H122.562ZM147.453 31.5664C147.453 33.6602 146.926 35.2969 145.871 36.4766C144.816 37.6484 143.359 38.2344 141.5 38.2344C140.352 38.2344 139.332 37.9648 138.441 37.4258C137.551 36.8867 136.863 36.1133 136.379 35.1055C135.895 34.0977 135.652 32.918 135.652 31.5664C135.652 29.4727 136.176 27.8438 137.223 26.6797C138.27 25.5078 139.723 24.9219 141.582 24.9219C143.379 24.9219 144.805 25.5195 145.859 26.7148C146.922 27.9102 147.453 29.5273 147.453 31.5664ZM137.668 31.5664C137.668 33.207 137.996 34.457 138.652 35.3164C139.309 36.1758 140.273 36.6055 141.547 36.6055C142.82 36.6055 143.785 36.1797 144.441 35.3281C145.105 34.4688 145.438 33.2148 145.438 31.5664C145.438 29.9336 145.105 28.6953 144.441 27.8516C143.785 27 142.812 26.5742 141.523 26.5742C140.25 26.5742 139.289 26.9922 138.641 27.8281C137.992 28.6641 137.668 29.9102 137.668 31.5664ZM156.734 24.9219C157.305 24.9219 157.816 24.9688 158.27 25.0625L158 26.8672C157.469 26.75 157 26.6914 156.594 26.6914C155.555 26.6914 154.664 27.1133 153.922 27.957C153.188 28.8008 152.82 29.8516 152.82 31.1094V38H150.875V25.1562H152.48L152.703 27.5352H152.797C153.273 26.6992 153.848 26.0547 154.52 25.6016C155.191 25.1484 155.93 24.9219 156.734 24.9219ZM166.098 38.2344C164.199 38.2344 162.699 37.6562 161.598 36.5C160.504 35.3438 159.957 33.7383 159.957 31.6836C159.957 29.6133 160.465 27.9688 161.48 26.75C162.504 25.5312 163.875 24.9219 165.594 24.9219C167.203 24.9219 168.477 25.4531 169.414 26.5156C170.352 27.5703 170.82 28.9648 170.82 30.6992V31.9297H161.973C162.012 33.4375 162.391 34.582 163.109 35.3633C163.836 36.1445 164.855 36.5352 166.168 36.5352C167.551 36.5352 168.918 36.2461 170.27 35.668V37.4023C169.582 37.6992 168.93 37.9102 168.312 38.0352C167.703 38.168 166.965 38.2344 166.098 38.2344ZM165.57 26.5508C164.539 26.5508 163.715 26.8867 163.098 27.5586C162.488 28.2305 162.129 29.1602 162.02 30.3477H168.734C168.734 29.1211 168.461 28.1836 167.914 27.5352C167.367 26.8789 166.586 26.5508 165.57 26.5508Z" fill="#2B354E"/>
<path d="M25 1H12.5H10C4.47715 1 0 5.47715 0 11V14.5M196 1H213C218.523 1 223 5.47715 223 11V14.5M196 55H213C218.523 55 223 50.5228 223 45V41.5M12.5 55H10C4.47715 55 0 50.5228 0 45V41.5" stroke="#2B354E"/>
<path d="M196 1.1H213C218.468 1.1 222.9 5.53238 222.9 11V14.5V45C222.9 50.4676 218.468 54.9 213 54.9H12.5H10C4.53238 54.9 0.1 50.4676 0.1 45V14.5V11C0.1 5.53238 4.53238 1.1 10 1.1H183.5H196Z" stroke="#2B354E" stroke-width="0.2"/>
</svg>
