<svg xmlns="http://www.w3.org/2000/svg" fill="none" viewBox="0 0 512 666"><rect width="512" height="666" fill="#2B354E" rx="10"/><path fill="#F2F2F2" d="m67.48 246-.93-3.06h-4.68l-.93 3.06H58l4.54-12.9h3.33l4.55 12.9h-2.94Zm-1.58-5.34a2475 2475 0 0 1-1.46-4.7l-.23-.87c-.19.75-.74 2.6-1.66 5.57h3.35Zm8.27 5.34-3.74-9.83h2.8l1.9 5.6a10 10 0 0 1 .4 2.01h.05c.03-.56.16-1.23.4-2l1.88-5.6h2.8L76.93 246h-2.75Zm14.15 0-.52-1.34h-.07a4 4 0 0 1-1.4 1.2c-.47.2-1.09.32-1.86.32-.94 0-1.68-.27-2.23-.81-.54-.54-.8-1.3-.8-2.3 0-1.05.35-1.82 1.08-2.3a6.3 6.3 0 0 1 3.3-.83l1.71-.06v-.43c0-1-.5-1.5-1.53-1.5-.78 0-1.7.25-2.77.72l-.88-1.81a8 8 0 0 1 3.76-.89 4.7 4.7 0 0 1 3.03.86c.7.58 1.05 1.45 1.05 2.62V246h-1.87Zm-.79-4.55-1.04.03c-.78.03-1.36.17-1.74.42-.38.26-.57.66-.57 1.18 0 .76.44 1.14 1.3 1.14.62 0 1.12-.18 1.49-.54.37-.36.56-.83.56-1.42v-.81Zm5.32-7.82c0-.87.48-1.3 1.46-1.3.97 0 1.46.43 1.46 1.3 0 .42-.13.75-.37.98-.24.23-.6.34-1.1.34-.97 0-1.45-.44-1.45-1.32Zm2.8 12.37h-2.69v-9.83h2.68V246Zm5.5 0h-2.69v-13.68h2.69V246Zm9.06 0-.52-1.34h-.07a4 4 0 0 1-1.4 1.2c-.47.2-1.1.32-1.86.32-.95 0-1.69-.27-2.23-.81s-.81-1.3-.81-2.3c0-1.05.36-1.82 1.09-2.3.73-.5 1.83-.78 3.3-.83l1.7-.06v-.43c0-1-.5-1.5-1.52-1.5-.79 0-1.71.25-2.77.72l-.89-1.81a8 8 0 0 1 3.76-.89 4.7 4.7 0 0 1 3.03.86c.7.58 1.06 1.45 1.06 2.62V246h-1.87Zm-.8-4.55-1.03.03c-.78.03-1.36.17-1.74.42-.38.26-.57.66-.57 1.18 0 .76.43 1.14 1.3 1.14.62 0 1.11-.18 1.48-.54.38-.36.57-.83.57-1.42v-.81Zm10.9-5.46c1.16 0 2.07.45 2.73 1.36.65.9.98 2.14.98 3.72 0 1.62-.34 2.88-1.02 3.77a3.28 3.28 0 0 1-2.76 1.34 3.26 3.26 0 0 1-2.71-1.26h-.19l-.44 1.08h-2.05v-13.68h2.68v3.19c0 .4-.04 1.05-.1 1.94h.1a3.1 3.1 0 0 1 2.78-1.46Zm-.86 2.14c-.66 0-1.14.2-1.45.62-.3.4-.46 1.07-.47 2.01v.3c0 1.05.15 1.8.46 2.26.32.46.82.69 1.5.69.55 0 .99-.26 1.3-.76.34-.51.5-1.25.5-2.22 0-.96-.16-1.69-.5-2.17a1.54 1.54 0 0 0-1.34-.73Zm9.47 7.87h-2.68v-13.68h2.68V246Zm6.89-8.1a1.7 1.7 0 0 0-1.34.54c-.32.36-.5.87-.55 1.53h3.76a2.22 2.22 0 0 0-.52-1.53 1.75 1.75 0 0 0-1.35-.54Zm.38 8.28a5.07 5.07 0 0 1-3.71-1.31c-.9-.88-1.34-2.11-1.34-3.71 0-1.65.41-2.92 1.23-3.82a4.4 4.4 0 0 1 3.42-1.35c1.4 0 2.47.4 3.25 1.19a4.49 4.49 0 0 1 1.16 3.27v1.3h-6.34c.03.77.25 1.36.67 1.79a2.4 2.4 0 0 0 1.78.64 7.37 7.37 0 0 0 3.33-.77v2.07c-.47.24-.97.4-1.5.52s-1.18.18-1.95.18Zm16.26 0a3.26 3.26 0 0 1-2.72-1.26h-.14c.1.82.14 1.3.14 1.42v3.98h-2.68v-14.15h2.18l.38 1.28h.12a3.1 3.1 0 0 1 2.79-1.46c1.16 0 2.07.45 2.72 1.34.66.9.99 2.15.99 3.74 0 1.05-.16 1.96-.47 2.73a3.8 3.8 0 0 1-1.3 1.77c-.58.4-1.25.6-2.01.6Zm-.8-8.05c-.66 0-1.14.2-1.44.62-.3.4-.47 1.07-.48 2.01v.3c0 1.05.16 1.8.47 2.26.31.46.81.69 1.5.69 1.2 0 1.8-1 1.8-2.98 0-.96-.16-1.69-.46-2.17-.29-.48-.75-.73-1.38-.73Zm10.86-.23a1.7 1.7 0 0 0-1.33.54c-.33.36-.51.87-.56 1.53h3.76a2.22 2.22 0 0 0-.52-1.53 1.75 1.75 0 0 0-1.35-.54Zm.38 8.28a5.07 5.07 0 0 1-3.71-1.31c-.9-.88-1.34-2.11-1.34-3.71 0-1.65.41-2.92 1.23-3.82a4.4 4.4 0 0 1 3.42-1.35c1.4 0 2.47.4 3.25 1.19a4.49 4.49 0 0 1 1.16 3.27v1.3h-6.34c.03.77.25 1.36.68 1.79.42.43 1.01.64 1.77.64a7.36 7.36 0 0 0 3.33-.77v2.07c-.47.24-.97.4-1.5.52s-1.18.18-1.95.18Zm11.67-10.2c.36 0 .67.04.9.09l-.2 2.51a3.06 3.06 0 0 0-.79-.09c-.85 0-1.52.22-2 .66a2.4 2.4 0 0 0-.71 1.85v5h-2.68v-9.83h2.03l.4 1.66h.12c.3-.56.72-1 1.23-1.33a3.05 3.05 0 0 1 1.7-.51Zm18.04-2.83v8.31c0 .95-.22 1.79-.65 2.5a4.11 4.11 0 0 1-1.83 1.64c-.8.39-1.75.58-2.85.58-1.65 0-2.94-.43-3.85-1.27a4.52 4.52 0 0 1-1.37-3.48v-8.28h2.71v7.87c0 .99.2 1.71.6 2.18.4.46 1.06.7 1.98.7.89 0 1.53-.24 1.93-.7.4-.47.61-1.2.61-2.2v-7.85h2.72Zm9.79 9.93c0 1.01-.35 1.78-1.06 2.3-.7.53-1.74.8-3.14.8-.71 0-1.32-.05-1.82-.15a7.1 7.1 0 0 1-1.42-.43v-2.21a9.47 9.47 0 0 0 3.33.83c.97 0 1.46-.28 1.46-.85a.69.69 0 0 0-.2-.5 2.67 2.67 0 0 0-.66-.46c-.32-.17-.74-.36-1.27-.59a8.05 8.05 0 0 1-1.67-.87 2.6 2.6 0 0 1-.77-.93 3.14 3.14 0 0 1-.24-1.29c0-.87.34-1.54 1.01-2.02a4.94 4.94 0 0 1 2.89-.72c1.18 0 2.33.26 3.45.77l-.8 1.94c-.5-.21-.96-.39-1.39-.52-.43-.14-.86-.2-1.3-.2-.8 0-1.2.2-1.2.64 0 .24.13.44.38.62a10 10 0 0 0 1.68.78c.77.31 1.33.6 1.7.87a2.57 2.57 0 0 1 1.04 2.19Zm6.16-5.18a1.7 1.7 0 0 0-1.34.54c-.32.36-.5.87-.55 1.53h3.76a2.22 2.22 0 0 0-.52-1.53 1.75 1.75 0 0 0-1.35-.54Zm.38 8.28a5.07 5.07 0 0 1-3.71-1.31c-.9-.88-1.34-2.11-1.34-3.71 0-1.65.41-2.92 1.23-3.82a4.4 4.4 0 0 1 3.42-1.35c1.39 0 2.47.4 3.24 1.19a4.45 4.45 0 0 1 1.16 3.27v1.3h-6.33c.03.77.25 1.36.67 1.79.42.43 1.02.64 1.78.64a7.38 7.38 0 0 0 3.33-.77v2.07c-.47.24-.97.4-1.5.52-.54.12-1.19.18-1.95.18Zm11.67-10.2c.36 0 .66.04.9.09l-.2 2.51a3.06 3.06 0 0 0-.79-.09c-.86 0-1.52.22-2 .66a2.4 2.4 0 0 0-.72 1.85v5h-2.68v-9.83h2.03l.4 1.66h.13c.3-.56.72-1 1.23-1.33a3.05 3.05 0 0 1 1.7-.51ZM59.62 295v-11.42h.8v10.67h5.44v.75h-6.24Zm15.04-4.26c0 1.39-.33 2.47-1 3.25a3.48 3.48 0 0 1-2.78 1.17 3.45 3.45 0 0 1-3.27-2.09 5.63 5.63 0 0 1-.46-2.33c0-1.38.33-2.46 1-3.23a3.47 3.47 0 0 1 2.77-1.17c1.17 0 2.08.4 2.74 1.18.67.79 1 1.86 1 3.22Zm-6.7 0c0 1.17.26 2.08.77 2.74a2.6 2.6 0 0 0 2.18.97 2.6 2.6 0 0 0 2.17-.97c.51-.66.77-1.57.77-2.74 0-1.17-.26-2.08-.78-2.72a2.63 2.63 0 0 0-2.18-.97 2.6 2.6 0 0 0-2.17.97 4.3 4.3 0 0 0-.76 2.72Zm12.4-4.4c.36 0 .74.04 1.16.11l-.15.75a4.55 4.55 0 0 0-1.1-.14c-.73 0-1.32.31-1.79.92-.46.62-.7 1.4-.7 2.33V295h-.76v-8.5h.65l.08 1.54h.05c.35-.63.73-1.06 1.12-1.31.4-.26.88-.39 1.44-.39Zm6.32 8.82c-1.23 0-2.2-.38-2.9-1.14a4.6 4.6 0 0 1-1.02-3.2c0-1.35.33-2.44 1-3.25a3.3 3.3 0 0 1 2.7-1.23c1 0 1.78.35 2.36 1.05.58.7.87 1.65.87 2.84v.63h-6.12c.01 1.17.28 2.06.81 2.67.54.62 1.3.92 2.3.92.48 0 .9-.03 1.27-.1s.84-.21 1.4-.44v.7a6.02 6.02 0 0 1-2.67.55Zm-.23-8.13c-.81 0-1.47.27-1.97.81a3.8 3.8 0 0 0-.86 2.33h5.25c0-.98-.22-1.75-.64-2.3a2.11 2.11 0 0 0-1.78-.84Zm16.2 7.97v-5.57c0-.83-.17-1.43-.5-1.81-.32-.38-.81-.57-1.48-.57-.87 0-1.51.24-1.93.72-.41.48-.62 1.23-.62 2.25V295h-.8v-5.8c0-1.44-.65-2.15-1.96-2.15-.9 0-1.54.26-1.95.78-.4.51-.6 1.34-.6 2.48V295h-.78v-8.5h.64l.17 1.17h.04a2.4 2.4 0 0 1 1-.98c.44-.23.91-.35 1.43-.35 1.34 0 2.2.5 2.58 1.51h.03a2.9 2.9 0 0 1 1.11-1.12c.47-.26 1-.39 1.6-.39.92 0 1.62.25 2.08.75.46.5.7 1.28.7 2.36V295h-.77Zm8.44 0h-.78v-8.5h.78v8.5Zm-.89-10.85c0-.5.17-.75.5-.75a.4.4 0 0 1 .37.2c.1.12.14.3.14.55 0 .23-.05.42-.14.55a.42.42 0 0 1-.38.2c-.32 0-.49-.25-.49-.75Zm7.37 11c-1.3 0-2.26-.48-2.86-1.46h-.05l.02.65c.02.39.03.81.03 1.27v3.23h-.77v-12.33h.65l.15 1.2h.05c.58-.9 1.52-1.37 2.8-1.37 1.14 0 2.01.38 2.61 1.14.6.75.9 1.84.9 3.28 0 1.4-.3 2.48-.94 3.25a3.17 3.17 0 0 1-2.59 1.15Zm-.01-.68c.86 0 1.54-.32 2.01-.97.48-.65.72-1.55.72-2.71 0-2.5-.9-3.74-2.7-3.74-1 0-1.72.27-2.18.82-.47.54-.7 1.42-.7 2.65v.25c0 1.33.22 2.28.67 2.85.44.56 1.17.85 2.18.85Zm11.17-1.68c0 .76-.28 1.34-.86 1.76-.58.4-1.4.6-2.46.6a5.87 5.87 0 0 1-2.7-.52v-.83c.85.42 1.75.64 2.7.64a3.5 3.5 0 0 0 1.9-.42c.44-.28.66-.65.66-1.11 0-.43-.18-.79-.53-1.08-.34-.3-.9-.58-1.7-.86a9.6 9.6 0 0 1-1.79-.79c-.34-.22-.6-.47-.78-.75a1.93 1.93 0 0 1-.26-1.02c0-.64.27-1.14.8-1.51a3.92 3.92 0 0 1 2.24-.56c.92 0 1.79.18 2.61.52l-.29.7a6.13 6.13 0 0 0-2.32-.51 3.3 3.3 0 0 0-1.64.34c-.41.23-.62.55-.62.95 0 .45.16.8.47 1.07.32.26.94.56 1.86.89a8.9 8.9 0 0 1 1.67.75c.35.22.6.47.78.75.18.28.26.6.26.99Zm2.86-6.28v5.5c0 .85.18 1.47.54 1.87.36.38.92.57 1.68.57 1 0 1.75-.25 2.22-.76.48-.51.72-1.34.72-2.5v-4.68h.77V295h-.66l-.14-1.17h-.05c-.55.88-1.53 1.33-2.94 1.33-1.94 0-2.9-1.04-2.9-3.1v-5.55h.76Zm19.38 8.49v-5.57c0-.83-.16-1.43-.49-1.81-.32-.38-.81-.57-1.48-.57-.87 0-1.51.24-1.93.72-.42.48-.63 1.23-.63 2.25V295h-.78v-5.8c0-1.44-.66-2.15-1.97-2.15-.9 0-1.54.26-1.95.78-.4.51-.6 1.34-.6 2.48V295h-.78v-8.5h.64l.16 1.17h.05a2.4 2.4 0 0 1 1-.98 3 3 0 0 1 1.43-.35c1.34 0 2.2.5 2.58 1.51h.03a2.9 2.9 0 0 1 1.1-1.12c.48-.26 1-.39 1.6-.39.93 0 1.63.25 2.09.75.46.5.7 1.28.7 2.36V295h-.77Zm10.78-8.66c.62 0 1.15.12 1.6.34.44.22.84.6 1.2 1.15h.04a39.6 39.6 0 0 1-.04-1.93v-3.06h.76V295h-.5l-.2-1.3h-.06a3.14 3.14 0 0 1-2.78 1.46c-1.18 0-2.07-.37-2.7-1.1-.61-.73-.92-1.79-.92-3.19 0-1.46.3-2.59.92-3.36.62-.78 1.5-1.17 2.68-1.17Zm0 .7c-.93 0-1.63.33-2.1.98a4.9 4.9 0 0 0-.69 2.84c0 2.4.94 3.6 2.8 3.6.96 0 1.67-.27 2.12-.83.44-.55.67-1.47.67-2.75v-.14c0-1.31-.22-2.25-.67-2.83-.44-.57-1.15-.86-2.13-.86Zm13.44 3.7c0 1.39-.33 2.47-1 3.25a3.49 3.49 0 0 1-2.78 1.17 3.44 3.44 0 0 1-3.27-2.09 5.63 5.63 0 0 1-.46-2.33c0-1.38.34-2.46 1-3.23a3.46 3.46 0 0 1 2.77-1.17c1.17 0 2.08.4 2.75 1.18.66.79 1 1.86 1 3.22Zm-6.7 0c0 1.17.26 2.08.77 2.74a2.6 2.6 0 0 0 2.18.97 2.6 2.6 0 0 0 2.17-.97c.51-.66.77-1.57.77-2.74 0-1.17-.26-2.08-.78-2.72a2.63 2.63 0 0 0-2.18-.97 2.6 2.6 0 0 0-2.17.97c-.5.64-.76 1.55-.76 2.72Zm9.83 4.26h-.77v-12.16h.77V295Zm9.88-4.26c0 1.39-.34 2.47-1.01 3.25a3.49 3.49 0 0 1-2.78 1.17 3.44 3.44 0 0 1-3.27-2.09 5.63 5.63 0 0 1-.46-2.33c0-1.38.34-2.46 1-3.23a3.46 3.46 0 0 1 2.77-1.17c1.17 0 2.08.4 2.75 1.18.66.79 1 1.86 1 3.22Zm-6.7 0c0 1.17.25 2.08.76 2.74a2.6 2.6 0 0 0 2.18.97 2.6 2.6 0 0 0 2.17-.97c.51-.66.77-1.57.77-2.74 0-1.17-.26-2.08-.78-2.72a2.63 2.63 0 0 0-2.18-.97 2.6 2.6 0 0 0-2.17.97c-.5.64-.76 1.55-.76 2.72Zm12.4-4.4c.35 0 .73.04 1.15.11l-.15.75a4.55 4.55 0 0 0-1.1-.14c-.73 0-1.32.31-1.78.92-.47.62-.7 1.4-.7 2.33V295h-.77v-8.5h.65l.08 1.54h.06c.34-.63.72-1.06 1.11-1.31.4-.26.88-.39 1.44-.39Zm12.3 6.45c0 .76-.29 1.34-.86 1.76-.58.4-1.4.6-2.47.6a5.87 5.87 0 0 1-2.7-.52v-.83c.86.42 1.76.64 2.7.64.84 0 1.48-.14 1.91-.42.44-.28.66-.65.66-1.11 0-.43-.18-.79-.53-1.08-.34-.3-.9-.58-1.7-.86a9.6 9.6 0 0 1-1.79-.79c-.34-.22-.6-.47-.78-.75a1.93 1.93 0 0 1-.26-1.02c0-.64.27-1.14.8-1.51a3.92 3.92 0 0 1 2.24-.56c.92 0 1.79.18 2.61.52l-.29.7a6.13 6.13 0 0 0-2.32-.51c-.7 0-1.24.11-1.65.34-.4.23-.6.55-.6.95 0 .45.15.8.46 1.07.32.26.94.56 1.85.89.77.27 1.33.52 1.68.75.34.22.6.47.78.75.18.28.26.6.26.99Zm2.96 2.21h-.77v-8.5h.77v8.5Zm-.88-10.85c0-.5.16-.75.5-.75a.4.4 0 0 1 .37.2c.1.12.14.3.14.55 0 .23-.05.42-.14.55a.42.42 0 0 1-.38.2c-.33 0-.49-.25-.49-.75Zm5.98 10.32c.49 0 .91-.04 1.28-.13v.63c-.38.12-.8.19-1.3.19-.75 0-1.3-.2-1.66-.6-.36-.4-.53-1.04-.53-1.9v-5.48h-1.26v-.45l1.26-.36.39-1.92h.4v2.06h2.49v.67h-2.5v5.38c0 .65.12 1.13.35 1.44.23.31.59.47 1.08.47Zm12.43.53-.2-1.34h-.06a4.2 4.2 0 0 1-1.32 1.16 3.6 3.6 0 0 1-1.6.34c-.83 0-1.48-.22-1.94-.64a2.3 2.3 0 0 1-.7-1.78c0-.83.35-1.47 1.04-1.93.69-.46 1.69-.7 3-.72l1.61-.05v-.56c0-.81-.16-1.42-.49-1.83-.33-.41-.86-.62-1.59-.62-.78 0-1.6.22-2.44.66l-.29-.67a6.46 6.46 0 0 1 2.77-.66c.93 0 1.62.24 2.08.73.47.48.7 1.24.7 2.26V295h-.57Zm-3.13-.55c.9 0 1.62-.25 2.14-.77a2.9 2.9 0 0 0 .8-2.16v-.84l-1.5.06a5.72 5.72 0 0 0-2.55.56c-.5.32-.75.8-.75 1.47 0 .54.16.95.48 1.25.33.29.79.43 1.38.43Zm17.06.55v-5.57c0-.83-.16-1.43-.48-1.81-.32-.38-.82-.57-1.48-.57-.87 0-1.52.24-1.93.72-.42.48-.63 1.23-.63 2.25V295h-.79v-5.8c0-1.44-.65-2.15-1.97-2.15-.89 0-1.53.26-1.94.78-.4.51-.61 1.34-.61 2.48V295h-.77v-8.5h.64l.16 1.17h.05c.23-.42.56-.75 1-.98.43-.23.9-.35 1.43-.35 1.33 0 2.2.5 2.57 1.51h.04a2.9 2.9 0 0 1 1.1-1.12c.47-.26 1-.39 1.6-.39.93 0 1.62.25 2.08.75.47.5.7 1.28.7 2.36V295h-.76Zm6.95.16c-1.23 0-2.2-.38-2.89-1.14a4.6 4.6 0 0 1-1.03-3.2c0-1.35.33-2.44 1-3.25a3.3 3.3 0 0 1 2.7-1.23c1 0 1.78.35 2.36 1.05.58.7.87 1.65.87 2.84v.63h-6.12c.01 1.17.28 2.06.81 2.67.54.62 1.3.92 2.3.92.49 0 .9-.03 1.27-.1s.84-.21 1.4-.44v.7a6.02 6.02 0 0 1-2.67.55Zm-.23-8.13c-.81 0-1.47.27-1.97.81a3.83 3.83 0 0 0-.86 2.33h5.25c0-.98-.22-1.75-.64-2.3a2.11 2.11 0 0 0-1.78-.84Zm7.82 7.44c.5 0 .92-.04 1.28-.13v.63c-.37.12-.8.19-1.3.19-.74 0-1.3-.2-1.66-.6-.35-.4-.53-1.04-.53-1.9v-5.48h-1.25v-.45l1.25-.36.4-1.92h.4v2.06h2.48v.67h-2.49v5.38c0 .65.12 1.13.35 1.44.22.31.58.47 1.07.47Zm4-1.33.1.17a26 26 0 0 1-1.36 3.75h-.5c.4-1.43.68-2.74.85-3.92h.91Zm10.1 2.02a3.64 3.64 0 0 1-2.85-1.15 4.63 4.63 0 0 1-1.03-3.2c0-1.41.36-2.5 1.07-3.29a3.76 3.76 0 0 1 2.93-1.18c.74 0 1.44.13 2.11.39l-.2.68a6.18 6.18 0 0 0-1.92-.36c-1.04 0-1.83.32-2.37.97-.54.64-.8 1.56-.8 2.77 0 1.14.26 2.04.8 2.7.54.64 1.29.96 2.25.96.77 0 1.49-.13 2.15-.41v.72c-.54.26-1.25.4-2.13.4Zm11.25-4.42c0 1.39-.34 2.47-1.01 3.25a3.48 3.48 0 0 1-2.78 1.17 3.44 3.44 0 0 1-3.27-2.09 5.63 5.63 0 0 1-.46-2.33c0-1.38.34-2.46 1.01-3.23a3.47 3.47 0 0 1 2.77-1.17c1.16 0 2.08.4 2.74 1.18.66.79 1 1.86 1 3.22Zm-6.7 0c0 1.17.25 2.08.76 2.74.52.65 1.24.97 2.18.97a2.6 2.6 0 0 0 2.17-.97c.52-.66.77-1.57.77-2.74 0-1.17-.25-2.08-.78-2.72a2.63 2.63 0 0 0-2.18-.97 2.6 2.6 0 0 0-2.17.97c-.5.64-.75 1.55-.75 2.72Zm14.97 4.26v-5.5c0-.86-.18-1.48-.54-1.87-.36-.39-.91-.58-1.67-.58-1.01 0-1.76.25-2.23.77-.47.51-.7 1.34-.7 2.5V295h-.78v-8.5h.66l.14 1.17h.05c.55-.88 1.54-1.33 2.95-1.33 1.92 0 2.89 1.04 2.89 3.1V295h-.77Zm8.78-2.21c0 .76-.29 1.34-.87 1.76-.57.4-1.4.6-2.46.6a5.87 5.87 0 0 1-2.7-.52v-.83c.86.42 1.76.64 2.7.64.84 0 1.48-.14 1.91-.42.44-.28.66-.65.66-1.11 0-.43-.18-.79-.53-1.08-.34-.3-.9-.58-1.7-.86a9.6 9.6 0 0 1-1.79-.79c-.34-.22-.6-.47-.78-.75a1.93 1.93 0 0 1-.26-1.02c0-.64.27-1.14.8-1.51a3.92 3.92 0 0 1 2.24-.56c.92 0 1.79.18 2.61.52l-.29.7a6.14 6.14 0 0 0-2.32-.51c-.7 0-1.24.11-1.65.34-.4.23-.6.55-.6.95 0 .45.15.8.46 1.07.32.26.94.56 1.85.89a8.9 8.9 0 0 1 1.68.75c.35.22.6.47.78.75.17.28.26.6.26.99Zm5.62 2.37c-1.24 0-2.2-.38-2.9-1.14a4.6 4.6 0 0 1-1.02-3.2c0-1.35.33-2.44 1-3.25a3.3 3.3 0 0 1 2.7-1.23c1 0 1.78.35 2.36 1.05.58.7.87 1.65.87 2.84v.63h-6.12c.01 1.17.28 2.06.81 2.67.54.62 1.3.92 2.3.92.48 0 .9-.03 1.27-.1s.84-.21 1.4-.44v.7a6.03 6.03 0 0 1-2.67.55Zm-.23-8.13c-.81 0-1.47.27-1.97.81a3.8 3.8 0 0 0-.86 2.33h5.25c0-.98-.22-1.75-.64-2.3a2.11 2.11 0 0 0-1.78-.84Zm8.97 8.13a3.64 3.64 0 0 1-2.85-1.15 4.63 4.63 0 0 1-1.03-3.2c0-1.41.36-2.5 1.07-3.29a3.76 3.76 0 0 1 2.93-1.18c.73 0 1.44.13 2.1.39l-.2.68a6.2 6.2 0 0 0-1.92-.36c-1.04 0-1.83.32-2.36.97-.54.64-.8 1.56-.8 2.77 0 1.14.26 2.04.8 2.7.53.64 1.28.96 2.25.96a5.4 5.4 0 0 0 2.14-.41v.72c-.54.26-1.25.4-2.13.4Zm6.46-.7c.5 0 .92-.03 1.28-.12v.63c-.37.12-.8.19-1.3.19-.74 0-1.3-.2-1.66-.6-.35-.4-.53-1.04-.53-1.9v-5.48h-1.26v-.45l1.26-.36.4-1.92h.4v2.06h2.48v.67h-2.49v5.38c0 .65.12 1.13.35 1.44.22.31.58.47 1.07.47Zm6.55.7c-1.24 0-2.2-.38-2.9-1.14a4.6 4.6 0 0 1-1.02-3.2c0-1.35.33-2.44 1-3.25a3.3 3.3 0 0 1 2.7-1.23c1 0 1.78.35 2.36 1.05.58.7.87 1.65.87 2.84v.63h-6.12c.01 1.17.28 2.06.81 2.67.54.62 1.3.92 2.3.92.48 0 .9-.03 1.27-.1s.84-.21 1.4-.44v.7a6.03 6.03 0 0 1-2.67.55Zm-.23-8.13c-.81 0-1.47.27-1.97.81a3.8 3.8 0 0 0-.86 2.33h5.25c0-.98-.22-1.75-.64-2.3a2.11 2.11 0 0 0-1.78-.84Zm7.82 7.44c.5 0 .92-.04 1.29-.13v.63c-.38.12-.81.19-1.3.19-.75 0-1.3-.2-1.67-.6-.35-.4-.53-1.04-.53-1.9v-5.48h-1.25v-.45l1.25-.36.4-1.92h.4v2.06h2.48v.67h-2.49v5.38c0 .65.12 1.13.34 1.44.23.31.6.47 1.08.47Zm3.8-7.96v5.5c0 .85.17 1.47.53 1.87.36.38.92.57 1.67.57 1.01 0 1.76-.25 2.23-.76.48-.51.72-1.34.72-2.5v-4.68h.76V295h-.65l-.14-1.17h-.05c-.55.88-1.53 1.33-2.94 1.33-1.94 0-2.9-1.04-2.9-3.1v-5.55h.76Zm12.1-.17c.36 0 .75.04 1.16.11l-.15.75a4.56 4.56 0 0 0-1.1-.14c-.73 0-1.32.31-1.78.92-.47.62-.7 1.4-.7 2.33V295h-.77v-8.5h.65l.08 1.54h.06c.35-.63.72-1.06 1.11-1.31.4-.26.88-.39 1.44-.39Zm12.2 8.66-.19-1.34h-.06a4.2 4.2 0 0 1-1.32 1.16 3.6 3.6 0 0 1-1.6.34c-.83 0-1.48-.22-1.94-.64a2.3 2.3 0 0 1-.7-1.78c0-.83.35-1.47 1.03-1.93.7-.46 1.7-.7 3-.72l1.62-.05v-.56c0-.81-.16-1.42-.5-1.83-.32-.41-.85-.62-1.58-.62-.78 0-1.6.22-2.44.66l-.3-.67a6.47 6.47 0 0 1 2.77-.66c.94 0 1.63.24 2.09.73.46.48.7 1.24.7 2.26V295h-.57Zm-3.12-.55c.9 0 1.62-.25 2.14-.77a2.9 2.9 0 0 0 .79-2.16v-.84l-1.49.06a5.72 5.72 0 0 0-2.55.56c-.5.32-.76.8-.76 1.47 0 .54.16.95.49 1.25.32.29.79.43 1.38.43Zm9.56-8.1c.62 0 1.15.1 1.6.33.44.22.84.6 1.2 1.15h.05a40.9 40.9 0 0 1-.05-1.93v-3.06h.76V295h-.5l-.2-1.3h-.06a3.14 3.14 0 0 1-2.78 1.46c-1.17 0-2.07-.37-2.69-1.1-.62-.73-.93-1.79-.93-3.19 0-1.46.3-2.59.92-3.36a3.22 3.22 0 0 1 2.68-1.17Zm0 .7c-.93 0-1.62.32-2.1.97-.45.65-.69 1.6-.69 2.84 0 2.4.94 3.6 2.8 3.6.97 0 1.67-.27 2.12-.83.44-.55.67-1.47.67-2.75v-.14c0-1.31-.22-2.25-.67-2.83-.43-.57-1.14-.86-2.13-.86Zm7.2 7.95h-.78v-8.5h.78v8.5Zm-.88-10.85c0-.5.16-.75.49-.75a.4.4 0 0 1 .37.2c.1.12.14.3.14.55 0 .23-.04.42-.14.55a.42.42 0 0 1-.37.2c-.33 0-.5-.25-.5-.75Zm7.36 11c-1.3 0-2.26-.48-2.86-1.46h-.05l.02.65c.02.39.03.81.03 1.27v3.23h-.77v-12.33h.66l.14 1.2h.05c.58-.9 1.52-1.37 2.8-1.37 1.14 0 2.02.38 2.62 1.14.6.75.9 1.84.9 3.28a5 5 0 0 1-.95 3.25 3.17 3.17 0 0 1-2.59 1.15Zm-.01-.68c.87 0 1.54-.32 2.01-.97.48-.65.72-1.55.72-2.71 0-2.5-.9-3.74-2.7-3.74-1 0-1.72.27-2.18.82-.46.54-.7 1.42-.7 2.65v.25c0 1.33.22 2.28.67 2.85.44.56 1.17.85 2.18.85Zm6.68.53h-.77v-8.5h.77v8.5Zm-.88-10.85c0-.5.17-.75.5-.75a.4.4 0 0 1 .37.2c.1.12.14.3.14.55 0 .23-.05.42-.14.55a.42.42 0 0 1-.38.2c-.32 0-.49-.25-.49-.75Zm9 8.64c0 .76-.29 1.34-.87 1.76-.57.4-1.4.6-2.46.6a5.87 5.87 0 0 1-2.7-.52v-.83c.85.42 1.75.64 2.7.64.84 0 1.48-.14 1.9-.42.45-.28.67-.65.67-1.11 0-.43-.18-.79-.53-1.08-.34-.3-.9-.58-1.7-.86a9.29 9.29 0 0 1-1.79-.79c-.34-.22-.6-.47-.78-.75a1.93 1.93 0 0 1-.26-1.02c0-.64.27-1.14.8-1.51a3.92 3.92 0 0 1 2.24-.56c.92 0 1.79.18 2.6.52l-.28.7a6.13 6.13 0 0 0-2.32-.51c-.7 0-1.24.11-1.65.34-.4.23-.6.55-.6.95 0 .45.15.8.46 1.07.32.26.94.56 1.85.89.77.27 1.32.52 1.67.75.35.22.61.47.79.75.17.28.26.6.26.99Zm5.58 2.37a3.64 3.64 0 0 1-2.85-1.15 4.62 4.62 0 0 1-1.03-3.2c0-1.41.35-2.5 1.07-3.29a3.76 3.76 0 0 1 2.93-1.18c.73 0 1.43.13 2.1.39l-.2.68a6.18 6.18 0 0 0-1.92-.36c-1.04 0-1.83.32-2.37.97-.53.64-.8 1.56-.8 2.77 0 1.14.27 2.04.8 2.7.54.64 1.29.96 2.25.96.78 0 1.5-.13 2.15-.41v.72c-.54.26-1.25.4-2.13.4Zm5-.16h-.78v-8.5h.77v8.5Zm-.9-10.85c0-.5.17-.75.5-.75.16 0 .29.06.38.2.09.12.14.3.14.55 0 .23-.05.42-.14.55a.42.42 0 0 1-.38.2c-.33 0-.5-.25-.5-.75Zm9.67 10.85v-5.5c0-.86-.19-1.48-.54-1.87-.36-.39-.92-.58-1.68-.58-1.01 0-1.76.25-2.23.77-.47.51-.7 1.34-.7 2.5V295h-.78v-8.5h.66l.15 1.17h.05c.55-.88 1.53-1.33 2.94-1.33 1.93 0 2.9 1.04 2.9 3.1V295h-.77Zm10.14-8.5v.55l-1.76.1a3 3 0 0 1 .7 1.93 2.6 2.6 0 0 1-.82 1.99 3.1 3.1 0 0 1-2.19.76c-.38 0-.65-.02-.8-.05a1.9 1.9 0 0 0-.71.57c-.16.22-.25.45-.25.7 0 .27.1.47.31.6.2.12.56.18 1.04.18h1.48c.93 0 1.63.19 2.12.56.49.37.74.92.74 1.65 0 .9-.37 1.58-1.1 2.07a5.5 5.5 0 0 1-3.1.73 4.3 4.3 0 0 1-2.49-.61 1.99 1.99 0 0 1-.87-1.72c0-.59.18-1.07.54-1.45.36-.4.86-.65 1.48-.8a1.55 1.55 0 0 1-.62-.45c-.15-.2-.23-.44-.23-.7 0-.57.36-1.07 1.09-1.5-.5-.2-.88-.52-1.16-.95a2.75 2.75 0 0 1-.41-1.5c0-.85.27-1.53.8-2.04a3.05 3.05 0 0 1 2.19-.78 4 4 0 0 1 1.3.17h2.72Zm-6.88 9.94c0 1.16.87 1.75 2.6 1.75 2.23 0 3.35-.71 3.35-2.13 0-.52-.18-.89-.53-1.12a3.19 3.19 0 0 0-1.7-.34h-1.38c-1.56 0-2.34.61-2.34 1.84Zm.65-7.28c0 .65.2 1.16.6 1.53.4.36.93.54 1.6.54.7 0 1.24-.18 1.62-.54.38-.36.57-.88.57-1.56 0-.73-.2-1.27-.59-1.63a2.27 2.27 0 0 0-1.62-.55c-.68 0-1.21.2-1.6.59-.39.38-.58.92-.58 1.62Zm-355.94 28c-1.23 0-2.2-.38-2.89-1.14a4.6 4.6 0 0 1-1.03-3.2c0-1.35.33-2.44 1-3.25a3.3 3.3 0 0 1 2.7-1.23c1 0 1.78.35 2.36 1.05.58.7.87 1.65.87 2.84v.63h-6.12c.01 1.17.28 2.06.81 2.67.54.62 1.3.92 2.3.92.49 0 .91-.03 1.27-.1.37-.07.84-.21 1.4-.44v.7a6.02 6.02 0 0 1-2.67.55Zm-.23-8.13c-.81 0-1.47.27-1.96.81a3.8 3.8 0 0 0-.87 2.33h5.25c0-.98-.21-1.75-.64-2.3a2.11 2.11 0 0 0-1.78-.84Zm6.36 7.97h-.78v-12.16h.78V317Zm3.62 0h-.77v-8.5h.77v8.5Zm-.88-10.85c0-.5.16-.75.5-.75.15 0 .28.06.37.2.09.12.14.3.14.55 0 .23-.05.42-.14.55a.42.42 0 0 1-.38.2c-.33 0-.5-.25-.5-.75Zm5.98 10.32c.48 0 .91-.04 1.28-.13v.63c-.38.12-.81.19-1.3.19-.75 0-1.3-.2-1.66-.6-.36-.4-.54-1.04-.54-1.9v-5.48h-1.25v-.45l1.25-.36.4-1.92h.4v2.06h2.49v.67h-2.5v5.38c0 .65.12 1.13.35 1.44.23.31.59.47 1.08.47Zm2.96-.08c0-.51.2-.76.62-.76.43 0 .64.25.64.76s-.21.77-.64.77c-.42 0-.62-.26-.62-.77Zm15.07-10.81h.86L92.32 317h-.7l-4.26-11.42h.85l2.88 7.77c.43 1.17.73 2.05.88 2.64.1-.39.3-1 .62-1.82l3.14-8.6Zm5.71 11.58c-1.23 0-2.2-.38-2.89-1.14a4.6 4.6 0 0 1-1.03-3.2 5 5 0 0 1 1-3.25 3.3 3.3 0 0 1 2.7-1.23c1 0 1.79.35 2.37 1.05.57.7.86 1.65.86 2.84v.63h-6.11c0 1.17.28 2.06.8 2.67.54.62 1.31.92 2.3.92.49 0 .91-.03 1.28-.1s.84-.21 1.4-.44v.7a6.02 6.02 0 0 1-2.68.55Zm-.22-8.13c-.82 0-1.48.27-1.97.81a3.8 3.8 0 0 0-.87 2.33h5.25c0-.98-.21-1.75-.64-2.3a2.11 2.11 0 0 0-1.77-.84Zm10.84 5.76c0 .76-.29 1.34-.87 1.76-.57.4-1.4.6-2.46.6a5.87 5.87 0 0 1-2.7-.52v-.83c.86.42 1.76.64 2.7.64.84 0 1.48-.14 1.91-.42.44-.28.66-.65.66-1.11 0-.43-.18-.79-.53-1.08-.34-.3-.9-.58-1.7-.86a9.6 9.6 0 0 1-1.79-.79c-.34-.22-.6-.47-.78-.75a1.93 1.93 0 0 1-.26-1.02c0-.64.27-1.14.8-1.51a3.92 3.92 0 0 1 2.24-.56c.92 0 1.79.18 2.61.52l-.29.7a6.14 6.14 0 0 0-2.32-.51c-.7 0-1.24.11-1.65.34-.4.23-.6.55-.6.95 0 .45.15.8.46 1.07.32.26.94.56 1.85.89a8.9 8.9 0 0 1 1.68.75c.34.22.6.47.78.75.17.28.26.6.26.99Zm4.43 1.68c.5 0 .92-.04 1.28-.13v.63c-.37.12-.8.19-1.3.19-.74 0-1.3-.2-1.66-.6-.35-.4-.53-1.04-.53-1.9v-5.48h-1.26v-.45l1.26-.36.4-1.92h.39v2.06h2.5v.67h-2.5v5.38c0 .65.12 1.13.34 1.44.23.31.6.47 1.08.47Zm3.9.53h-.78v-8.5h.77v8.5Zm-.89-10.85c0-.5.16-.75.5-.75.15 0 .28.06.37.2.1.12.14.3.14.55 0 .23-.05.42-.14.55a.42.42 0 0 1-.38.2c-.33 0-.49-.25-.49-.75Zm7.32 2.2c1.19 0 2.08.37 2.68 1.12.6.74.9 1.83.9 3.27 0 1.41-.31 2.5-.95 3.27a3.26 3.26 0 0 1-2.66 1.15 3.5 3.5 0 0 1-1.63-.38 2.8 2.8 0 0 1-1.15-1.06h-.07l-.22 1.28h-.49v-12.16h.78v3.06c0 .46-.01.88-.03 1.26l-.03.67h.06c.32-.51.7-.89 1.16-1.13a3.53 3.53 0 0 1 1.65-.36Zm-.01.7c-1 0-1.72.28-2.15.86-.44.57-.65 1.51-.65 2.83v.13c0 1.29.22 2.2.67 2.76.45.56 1.16.84 2.1.84.94 0 1.63-.32 2.1-.97.47-.65.7-1.58.7-2.77 0-2.46-.92-3.68-2.78-3.68Zm6.63-.54v5.5c0 .85.18 1.47.54 1.87.36.38.91.57 1.67.57 1 0 1.75-.25 2.22-.76.48-.51.72-1.34.72-2.5v-4.68h.77V317h-.66l-.14-1.17h-.04c-.56.88-1.54 1.33-2.95 1.33-1.93 0-2.9-1.04-2.9-3.1v-5.55h.77Zm9.54 8.49h-.78v-12.16h.78V317Zm3.52-8.5v5.5c0 .86.18 1.48.54 1.88.36.38.92.57 1.67.57 1.01 0 1.75-.25 2.23-.76s.72-1.34.72-2.5v-4.68h.76V317h-.65l-.15-1.17h-.04c-.55.88-1.54 1.33-2.95 1.33-1.93 0-2.9-1.04-2.9-3.1v-5.55h.77Zm19.38 8.5v-5.57c0-.83-.17-1.43-.49-1.81-.32-.38-.82-.57-1.48-.57-.87 0-1.52.24-1.93.72-.42.48-.63 1.23-.63 2.25V317h-.79v-5.8c0-1.44-.65-2.15-1.97-2.15-.89 0-1.53.26-1.94.78-.4.51-.61 1.34-.61 2.48V317h-.77v-8.5h.64l.16 1.17h.05c.23-.42.56-.75 1-.98.43-.23.9-.35 1.43-.35 1.33 0 2.2.5 2.57 1.51h.04a2.9 2.9 0 0 1 1.1-1.12c.47-.26 1-.39 1.6-.39.93 0 1.62.25 2.08.75.47.5.7 1.28.7 2.36V317h-.76Zm4.4-1.86.09.17a26 26 0 0 1-1.36 3.75h-.51c.4-1.43.69-2.74.86-3.92h.91Zm10.13 2.02c-1.23 0-2.2-.38-2.89-1.14a4.6 4.6 0 0 1-1.03-3.2 5 5 0 0 1 1-3.25 3.3 3.3 0 0 1 2.7-1.23c1 0 1.79.35 2.37 1.05.57.7.86 1.65.86 2.84v.63h-6.11c0 1.17.28 2.06.8 2.67.54.62 1.3.92 2.3.92.49 0 .91-.03 1.28-.1s.83-.21 1.4-.44v.7a6.02 6.02 0 0 1-2.68.55Zm-.22-8.13c-.82 0-1.48.27-1.97.81-.5.54-.78 1.32-.87 2.33h5.25c0-.98-.21-1.75-.64-2.3a2.11 2.11 0 0 0-1.77-.84Zm7.82 7.44c.49 0 .91-.04 1.28-.13v.63c-.38.12-.8.19-1.3.19-.75 0-1.3-.2-1.66-.6-.36-.4-.53-1.04-.53-1.9v-5.48h-1.26v-.45l1.26-.36.39-1.92h.4v2.06h2.49v.67h-2.5v5.38c0 .65.12 1.13.35 1.44.23.31.59.47 1.08.47Zm3.89.53h-.78v-8.5h.78v8.5Zm-.88-10.85c0-.5.16-.75.49-.75a.4.4 0 0 1 .37.2c.1.12.14.3.14.55 0 .23-.04.42-.14.55a.42.42 0 0 1-.37.2c-.33 0-.5-.25-.5-.75ZM199.9 317l-.2-1.34h-.06a4.2 4.2 0 0 1-1.32 1.16 3.6 3.6 0 0 1-1.6.34c-.83 0-1.48-.22-1.94-.64a2.3 2.3 0 0 1-.7-1.78c0-.83.35-1.47 1.03-1.93.7-.46 1.7-.7 3-.72l1.62-.05v-.56c0-.81-.16-1.42-.49-1.83-.33-.41-.86-.62-1.59-.62-.78 0-1.6.22-2.44.66l-.29-.67a6.46 6.46 0 0 1 2.76-.66c.94 0 1.63.24 2.1.73.46.48.69 1.24.69 2.26V317h-.57Zm-3.13-.55c.9 0 1.62-.25 2.14-.77a2.9 2.9 0 0 0 .8-2.16v-.84l-1.5.06a5.72 5.72 0 0 0-2.55.56c-.5.32-.76.8-.76 1.47 0 .54.17.95.49 1.25.33.29.79.43 1.38.43Zm17.06.55v-5.57c0-.83-.16-1.43-.48-1.81-.32-.38-.82-.57-1.49-.57-.87 0-1.5.24-1.93.72-.41.48-.62 1.23-.62 2.25V317h-.79v-5.8c0-1.44-.66-2.15-1.97-2.15-.89 0-1.54.26-1.94.78-.4.51-.61 1.34-.61 2.48V317h-.78v-8.5h.65l.16 1.17h.05a2.4 2.4 0 0 1 1-.98c.43-.23.9-.35 1.43-.35 1.33 0 2.2.5 2.57 1.51h.03a2.9 2.9 0 0 1 1.11-1.12c.47-.26 1-.39 1.6-.39.92 0 1.62.25 2.08.75.47.5.7 1.28.7 2.36V317h-.77Zm12.94-2.21c0 .76-.29 1.34-.87 1.76-.57.4-1.4.6-2.46.6a5.87 5.87 0 0 1-2.7-.52v-.83c.85.42 1.75.64 2.7.64.84 0 1.48-.14 1.9-.42.45-.28.67-.65.67-1.11 0-.43-.18-.79-.53-1.08-.34-.3-.9-.58-1.7-.86a9.29 9.29 0 0 1-1.79-.79c-.34-.22-.6-.47-.78-.75a1.93 1.93 0 0 1-.26-1.02c0-.64.27-1.14.8-1.51a3.92 3.92 0 0 1 2.24-.56c.92 0 1.79.18 2.6.52l-.28.7a6.13 6.13 0 0 0-2.32-.51c-.7 0-1.24.11-1.65.34-.4.23-.6.55-.6.95 0 .45.15.8.46 1.07.32.26.94.56 1.85.89.77.27 1.32.52 1.67.75.35.22.61.47.79.75.17.28.26.6.26.99Zm5.62 2.37c-1.24 0-2.2-.38-2.9-1.14a4.6 4.6 0 0 1-1.02-3.2c0-1.35.33-2.44 1-3.25a3.3 3.3 0 0 1 2.7-1.23c1 0 1.78.35 2.36 1.05.58.7.87 1.65.87 2.84v.63h-6.12c0 1.17.28 2.06.81 2.67.54.62 1.3.92 2.3.92.48 0 .9-.03 1.27-.1s.84-.21 1.4-.44v.7a6.02 6.02 0 0 1-2.67.55Zm-.23-8.13c-.82 0-1.47.27-1.97.81s-.78 1.32-.86 2.33h5.25c0-.98-.22-1.75-.65-2.3a2.11 2.11 0 0 0-1.77-.84Zm8.69-.69c.61 0 1.14.12 1.6.34.44.22.84.6 1.2 1.15h.04a40.9 40.9 0 0 1-.04-1.93v-3.06h.76V317h-.5l-.2-1.3h-.06a3.14 3.14 0 0 1-2.78 1.46c-1.18 0-2.07-.37-2.7-1.1-.61-.73-.92-1.79-.92-3.19 0-1.46.3-2.59.92-3.36.61-.78 1.5-1.17 2.68-1.17Zm0 .7c-.93 0-1.63.33-2.1.98a4.9 4.9 0 0 0-.69 2.84c0 2.4.94 3.6 2.8 3.6.96 0 1.67-.27 2.11-.83.45-.55.68-1.47.68-2.75v-.14c0-1.31-.22-2.25-.67-2.83-.44-.57-1.15-.86-2.13-.86Zm15.73 7.96-.2-1.34h-.05a4.2 4.2 0 0 1-1.32 1.16 3.6 3.6 0 0 1-1.6.34c-.83 0-1.48-.22-1.94-.64a2.3 2.3 0 0 1-.7-1.78c0-.83.34-1.47 1.03-1.93.7-.46 1.7-.7 3-.72l1.62-.05v-.56c0-.81-.16-1.42-.5-1.83-.32-.41-.85-.62-1.58-.62-.78 0-1.6.22-2.44.66l-.3-.67a6.46 6.46 0 0 1 2.77-.66c.94 0 1.63.24 2.09.73.46.48.7 1.24.7 2.26V317h-.58Zm-3.12-.55c.9 0 1.62-.25 2.14-.77a2.9 2.9 0 0 0 .79-2.16v-.84l-1.49.06a5.72 5.72 0 0 0-2.55.56c-.5.32-.76.8-.76 1.47 0 .54.16.95.49 1.25.32.29.78.43 1.38.43Zm17.06.55v-5.57c0-.83-.16-1.43-.48-1.81-.33-.38-.82-.57-1.49-.57-.87 0-1.51.24-1.93.72-.41.48-.62 1.23-.62 2.25V317h-.8v-5.8c0-1.44-.65-2.15-1.96-2.15-.9 0-1.54.26-1.94.78-.41.51-.62 1.34-.62 2.48V317h-.77v-8.5h.64l.17 1.17h.04c.24-.42.57-.75 1-.98.44-.23.91-.35 1.43-.35 1.34 0 2.2.5 2.58 1.51h.03a2.9 2.9 0 0 1 1.11-1.12c.47-.26 1-.39 1.6-.39.92 0 1.62.25 2.08.75.46.5.7 1.28.7 2.36V317h-.77Zm6.95.16c-1.24 0-2.2-.38-2.9-1.14a4.6 4.6 0 0 1-1.02-3.2c0-1.35.33-2.44 1-3.25a3.3 3.3 0 0 1 2.69-1.23c1 0 1.79.35 2.37 1.05.57.7.86 1.65.86 2.84v.63h-6.11c0 1.17.28 2.06.81 2.67.54.62 1.3.92 2.3.92.48 0 .9-.03 1.27-.1s.84-.21 1.4-.44v.7a6 6 0 0 1-2.67.55Zm-.23-8.13c-.82 0-1.47.27-1.97.81s-.78 1.32-.87 2.33h5.25c0-.98-.2-1.75-.64-2.3a2.11 2.11 0 0 0-1.77-.84Zm7.82 7.44c.49 0 .92-.04 1.28-.13v.63c-.37.12-.8.19-1.3.19-.75 0-1.3-.2-1.66-.6-.35-.4-.53-1.04-.53-1.9v-5.48h-1.26v-.45l1.26-.36.39-1.92h.4v2.06h2.5v.67h-2.5v5.38c0 .65.11 1.13.34 1.44.23.31.6.47 1.08.47Zm10.38-8.13c.62 0 1.15.12 1.6.34.44.22.85.6 1.2 1.15h.05a40.9 40.9 0 0 1-.05-1.93v-3.06h.77V317h-.51l-.2-1.3h-.06a3.14 3.14 0 0 1-2.78 1.46c-1.17 0-2.07-.37-2.69-1.1-.62-.73-.93-1.79-.93-3.19 0-1.46.3-2.59.92-3.36a3.22 3.22 0 0 1 2.68-1.17Zm0 .7c-.92 0-1.62.33-2.1.98-.45.65-.69 1.6-.69 2.84 0 2.4.94 3.6 2.8 3.6.97 0 1.67-.27 2.12-.83.45-.55.67-1.47.67-2.75v-.14c0-1.31-.22-2.25-.66-2.83-.44-.57-1.15-.86-2.14-.86Zm7.1-.53v5.5c0 .85.18 1.47.54 1.87.36.38.91.57 1.67.57 1 0 1.75-.25 2.22-.76.48-.51.72-1.34.72-2.5v-4.68h.77V317h-.66l-.14-1.17h-.05c-.55.88-1.53 1.33-2.94 1.33-1.93 0-2.9-1.04-2.9-3.1v-5.55h.77Zm9.54 8.49h-.78v-8.5h.78v8.5Zm-.89-10.85c0-.5.17-.75.5-.75a.4.4 0 0 1 .37.2c.1.12.14.3.14.55 0 .23-.05.42-.14.55a.42.42 0 0 1-.38.2c-.32 0-.49-.25-.49-.75Zm4.62 9 .1.16c-.4 1.38-.85 2.63-1.37 3.75h-.5c.4-1.43.68-2.74.86-3.92h.91Zm8.95 1.32c.5 0 .92-.04 1.29-.13v.63c-.38.12-.81.19-1.3.19-.75 0-1.3-.2-1.67-.6-.35-.4-.53-1.04-.53-1.9v-5.48h-1.25v-.45l1.25-.36.4-1.92h.4v2.06h2.48v.67h-2.49v5.38c0 .65.12 1.13.34 1.44.23.31.6.47 1.08.47Zm6.55.69c-1.23 0-2.2-.38-2.89-1.14a4.6 4.6 0 0 1-1.03-3.2c0-1.35.33-2.44 1-3.25a3.3 3.3 0 0 1 2.7-1.23c1 0 1.78.35 2.36 1.05.58.7.87 1.65.87 2.84v.63h-6.12c.01 1.17.28 2.06.81 2.67.54.62 1.3.92 2.3.92.49 0 .9-.03 1.27-.1s.84-.21 1.4-.44v.7a6.02 6.02 0 0 1-2.67.55Zm-.23-8.13c-.81 0-1.47.27-1.96.81-.5.54-.79 1.32-.87 2.33h5.25c0-.98-.22-1.75-.64-2.3a2.11 2.11 0 0 0-1.78-.84Zm16.2 7.97v-5.57c0-.83-.17-1.43-.5-1.81-.32-.38-.81-.57-1.48-.57-.87 0-1.51.24-1.93.72-.41.48-.62 1.23-.62 2.25V317h-.8v-5.8c0-1.44-.65-2.15-1.96-2.15-.9 0-1.54.26-1.94.78-.41.51-.62 1.34-.62 2.48V317h-.77v-8.5h.64l.17 1.17h.04c.24-.42.57-.75 1-.98.44-.23.91-.35 1.43-.35 1.34 0 2.2.5 2.58 1.51h.03a2.9 2.9 0 0 1 1.11-1.12c.47-.26 1-.39 1.6-.39.92 0 1.62.25 2.08.75.46.5.7 1.28.7 2.36V317h-.77Zm7.14.16c-1.3 0-2.26-.5-2.86-1.47h-.05l.02.65c.02.39.03.81.03 1.27v3.23h-.77v-12.33h.65l.15 1.2h.05c.58-.9 1.51-1.37 2.8-1.37 1.14 0 2.01.38 2.61 1.14.6.75.9 1.84.9 3.28 0 1.4-.3 2.48-.94 3.25a3.17 3.17 0 0 1-2.59 1.15Zm-.02-.7c.87 0 1.55-.31 2.02-.96.48-.65.72-1.55.72-2.71 0-2.5-.9-3.74-2.7-3.74-1 0-1.72.27-2.18.82-.47.54-.7 1.42-.7 2.65v.25c0 1.33.22 2.28.66 2.85.45.56 1.18.85 2.18.85Zm12.94-3.72c0 1.39-.33 2.47-1 3.25a3.49 3.49 0 0 1-2.79 1.17 3.44 3.44 0 0 1-3.27-2.09 5.63 5.63 0 0 1-.45-2.33c0-1.38.33-2.46 1-3.23a3.47 3.47 0 0 1 2.77-1.17c1.17 0 2.08.4 2.74 1.18.67.79 1 1.86 1 3.22Zm-6.7 0c0 1.17.25 2.08.76 2.74.52.65 1.25.97 2.18.97a2.6 2.6 0 0 0 2.18-.97c.51-.66.77-1.57.77-2.74 0-1.17-.26-2.08-.78-2.72a2.63 2.63 0 0 0-2.18-.97 2.6 2.6 0 0 0-2.17.97c-.5.64-.76 1.55-.76 2.72Zm12.4-4.4c.36 0 .74.04 1.15.11l-.14.75a4.56 4.56 0 0 0-1.1-.14c-.73 0-1.32.31-1.79.92-.46.62-.7 1.4-.7 2.33V317h-.77v-8.5h.66l.08 1.54h.05c.35-.63.72-1.06 1.12-1.31.4-.26.87-.39 1.44-.39Zm2.73 8.05c0-.51.21-.76.63-.76.42 0 .64.25.64.76s-.22.77-.64.77c-.42 0-.63-.26-.63-.77ZM67.02 383h-7.4v-12.85h7.4v2.23h-4.68v2.82h4.35v2.24h-4.35v3.31h4.68V383Zm11.27 0h-2.68v-5.74c0-.7-.12-1.24-.36-1.59-.23-.36-.6-.54-1.11-.54-.69 0-1.19.26-1.5.76-.3.5-.46 1.33-.46 2.49V383H69.5v-9.83h2.04l.36 1.26h.15c.27-.45.65-.8 1.15-1.05.5-.26 1.07-.4 1.71-.4 1.47 0 2.47.49 2.99 1.45h.24a2.6 2.6 0 0 1 1.16-1.06c.51-.25 1.1-.38 1.74-.38 1.1 0 1.95.29 2.52.86.57.57.86 1.48.86 2.74V383h-2.69v-5.74c0-.7-.12-1.24-.36-1.59-.23-.36-.6-.54-1.12-.54a1.7 1.7 0 0 0-1.47.7 4.09 4.09 0 0 0-.49 2.24V383Zm15.13 0-.52-1.34h-.07a4 4 0 0 1-1.4 1.2c-.47.2-1.1.32-1.86.32-.94 0-1.69-.27-2.23-.81s-.81-1.3-.81-2.3c0-1.05.36-1.82 1.09-2.3.73-.5 1.83-.78 3.3-.83l1.7-.06v-.43c0-1-.5-1.5-1.52-1.5-.79 0-1.7.25-2.77.72l-.89-1.81a8 8 0 0 1 3.77-.89c1.31 0 2.32.29 3.03.86.7.58 1.05 1.45 1.05 2.62V383h-1.87Zm-.8-4.55-1.03.03c-.78.03-1.36.17-1.74.42-.38.26-.57.66-.57 1.18 0 .76.43 1.14 1.3 1.14.62 0 1.12-.18 1.49-.54.37-.36.56-.83.56-1.42v-.81Zm5.33-7.82c0-.87.48-1.3 1.46-1.3.97 0 1.45.43 1.45 1.3 0 .42-.12.75-.36.98-.25.23-.6.34-1.1.34-.97 0-1.45-.44-1.45-1.32Zm2.8 12.37h-2.69v-9.83h2.68V383Zm5.5 0h-2.69v-13.68h2.68V383Zm15.29-3.57a3.3 3.3 0 0 1-1.26 2.74c-.83.67-2 1-3.48 1a8.18 8.18 0 0 1-3.64-.77v-2.53c.87.39 1.6.66 2.2.82.6.16 1.15.24 1.65.24.6 0 1.05-.12 1.37-.35.32-.23.48-.56.48-1.02 0-.25-.07-.47-.2-.66-.15-.2-.35-.4-.63-.58-.27-.18-.82-.47-1.66-.87a7.9 7.9 0 0 1-1.77-1.06 4 4 0 0 1-.94-1.19 3.39 3.39 0 0 1-.35-1.58c0-1.13.38-2.03 1.15-2.68a4.82 4.82 0 0 1 3.2-.97c.67 0 1.3.07 1.9.23.62.16 1.25.38 1.91.67l-.87 2.12c-.69-.28-1.26-.48-1.7-.59a5.44 5.44 0 0 0-1.33-.17c-.51 0-.9.12-1.18.36-.28.24-.42.56-.42.94 0 .24.06.46.17.64.11.17.29.35.53.52.24.16.82.46 1.73.9a6.83 6.83 0 0 1 2.47 1.72c.44.58.67 1.28.67 2.12Zm6.18-4.53a1.7 1.7 0 0 0-1.33.54c-.33.36-.5.87-.56 1.53h3.77a2.22 2.22 0 0 0-.52-1.53 1.75 1.75 0 0 0-1.36-.54Zm.38 8.28a5.07 5.07 0 0 1-3.7-1.31c-.9-.88-1.34-2.11-1.34-3.71 0-1.65.4-2.92 1.23-3.82a4.4 4.4 0 0 1 3.42-1.35c1.39 0 2.47.4 3.24 1.19a4.49 4.49 0 0 1 1.16 3.27v1.3h-6.34c.03.77.26 1.36.68 1.79.42.43 1.01.64 1.77.64a7.37 7.37 0 0 0 3.34-.77v2.07c-.47.24-.97.4-1.5.52-.54.12-1.2.18-1.96.18Zm10.18 0c-3.06 0-4.59-1.68-4.59-5.04 0-1.67.42-2.94 1.25-3.82.83-.89 2.02-1.33 3.58-1.33 1.13 0 2.15.22 3.05.67l-.79 2.07c-.42-.17-.81-.3-1.17-.41a3.7 3.7 0 0 0-1.1-.17c-1.39 0-2.08 1-2.08 2.97 0 1.92.7 2.88 2.09 2.88a4.7 4.7 0 0 0 2.75-.85v2.3c-.44.27-.88.46-1.32.57-.44.1-1 .16-1.67.16Zm12.23-.18-.36-1.26h-.14c-.28.46-.7.81-1.22 1.07-.53.24-1.13.37-1.8.37-1.16 0-2.03-.31-2.61-.93-.59-.62-.88-1.5-.88-2.67v-6.4h2.68v5.73c0 .71.13 1.24.38 1.6.25.35.65.53 1.2.53.75 0 1.3-.25 1.63-.75.33-.5.5-1.33.5-2.5v-4.62h2.68V383h-2.06Zm10.36-10.01c.36 0 .66.03.9.08l-.2 2.51a3.05 3.05 0 0 0-.8-.09c-.85 0-1.51.22-2 .66a2.4 2.4 0 0 0-.7 1.85v5h-2.69v-9.83h2.03l.4 1.66h.13c.3-.56.72-1 1.23-1.33a3.04 3.04 0 0 1 1.7-.51Zm2.57-2.36c0-.87.49-1.3 1.46-1.3s1.46.43 1.46 1.3c0 .42-.12.75-.37.98-.24.23-.6.34-1.09.34-.97 0-1.46-.44-1.46-1.32Zm2.8 12.37h-2.68v-9.83h2.68V383Zm6.96-1.96c.47 0 1.03-.1 1.69-.3v1.99c-.67.3-1.5.45-2.46.45-1.08 0-1.86-.27-2.35-.81-.49-.55-.73-1.36-.73-2.45v-4.73h-1.28v-1.14l1.47-.9.78-2.07h1.7v2.1h2.76v2h-2.75v4.74c0 .38.1.67.32.85.21.18.5.27.85.27Zm2.28-7.87h2.93l1.85 5.53c.16.48.27 1.05.33 1.7h.05c.07-.6.2-1.16.38-1.7l1.82-5.53h2.87l-4.15 11.09a4.8 4.8 0 0 1-1.64 2.3c-.7.5-1.52.76-2.47.76a6.9 6.9 0 0 1-1.36-.14v-2.13c.32.07.67.11 1.06.11.47 0 .88-.14 1.23-.44.36-.28.64-.72.84-1.3l.16-.49-3.9-9.76Zm-106.5 38.26c0-.9.21-1.6.65-2.07.43-.48 1.06-.72 1.87-.72.8 0 1.42.24 1.86.72.44.48.66 1.17.66 2.07 0 .89-.22 1.57-.67 2.06-.43.49-1.05.73-1.85.73s-1.43-.24-1.87-.73a3 3 0 0 1-.65-2.06Zm25.5 6.57-.93-3.06h-4.68l-.93 3.06H85l4.54-12.9h3.33l4.55 12.9h-2.94Zm-1.58-5.34a2475 2475 0 0 1-1.46-4.7l-.23-.87c-.19.75-.74 2.6-1.66 5.57h3.35Zm15 5.34h-2.68v-5.74c0-.7-.12-1.24-.37-1.59-.26-.36-.66-.54-1.2-.54-.76 0-1.3.26-1.63.76-.34.5-.5 1.33-.5 2.49V418h-2.69v-9.83h2.05l.36 1.26h.15c.3-.47.71-.83 1.23-1.07a4.2 4.2 0 0 1 1.8-.37c1.14 0 2 .31 2.6.93.59.62.88 1.5.88 2.67V418Zm6.9-1.96c.47 0 1.03-.1 1.7-.3v1.99c-.68.3-1.5.45-2.47.45-1.07 0-1.85-.27-2.35-.81-.48-.55-.73-1.36-.73-2.45v-4.73h-1.28v-1.14l1.48-.9.77-2.07h1.72v2.1h2.75v2h-2.75v4.74c0 .38.1.67.31.85.22.18.5.27.85.27Zm3.57-10.4c0-.88.49-1.32 1.46-1.32s1.46.44 1.46 1.31c0 .42-.12.75-.37.98-.24.23-.6.34-1.09.34-.97 0-1.46-.44-1.46-1.32Zm2.8 12.36h-2.68v-9.83h2.68V418Zm1.95-3.73v-2.2h4.72v2.2h-4.72Zm12.07 3.9a3.26 3.26 0 0 1-2.72-1.25h-.14c.1.82.14 1.3.14 1.42v3.98h-2.68v-14.15h2.18l.38 1.28h.12a3.1 3.1 0 0 1 2.79-1.46 3.2 3.2 0 0 1 2.72 1.34c.66.9.99 2.15.99 3.74a7.3 7.3 0 0 1-.47 2.73 3.8 3.8 0 0 1-1.31 1.77c-.57.4-1.24.6-2 .6Zm-.8-8.04c-.66 0-1.14.2-1.45.62-.3.4-.46 1.07-.47 2.01v.3c0 1.05.16 1.8.47 2.26.31.46.81.69 1.49.69 1.2 0 1.8-1 1.8-2.98 0-.96-.15-1.69-.45-2.17-.29-.48-.75-.73-1.38-.73Zm15.86 7.87h-2.68v-5.74c0-1.42-.53-2.13-1.58-2.13-.75 0-1.3.26-1.63.77-.33.5-.5 1.33-.5 2.48V418h-2.68v-13.68h2.68v2.79l-.06 1.53-.06.8h.14c.6-.97 1.55-1.45 2.85-1.45 1.15 0 2.03.31 2.62.93.6.62.9 1.51.9 2.67V418Zm2.65-12.37c0-.87.48-1.3 1.45-1.3.98 0 1.46.43 1.46 1.3 0 .42-.12.75-.37.98-.24.23-.6.34-1.09.34-.97 0-1.45-.44-1.45-1.32Zm2.79 12.37h-2.68v-9.83h2.68V418Zm9.68-2.92c0 1.01-.35 1.78-1.06 2.3-.7.53-1.74.8-3.13.8a9.5 9.5 0 0 1-1.83-.15 7.1 7.1 0 0 1-1.42-.43v-2.21a9.46 9.46 0 0 0 3.33.83c.98 0 1.46-.29 1.46-.85a.69.69 0 0 0-.2-.5 2.65 2.65 0 0 0-.66-.46c-.32-.17-.74-.36-1.27-.59a8.03 8.03 0 0 1-1.66-.87 2.53 2.53 0 0 1-.78-.93 3.14 3.14 0 0 1-.24-1.29c0-.87.34-1.55 1.02-2.02a4.94 4.94 0 0 1 2.88-.72c1.18 0 2.33.26 3.45.77l-.8 1.94c-.5-.21-.96-.39-1.39-.52a4.1 4.1 0 0 0-1.3-.2c-.8 0-1.2.2-1.2.64 0 .24.13.44.39.62.25.18.81.44 1.67.78.77.31 1.33.6 1.7.87a2.57 2.57 0 0 1 1.04 2.19Zm11.16 2.92h-2.68v-5.74c0-1.42-.53-2.13-1.58-2.13-.75 0-1.3.26-1.63.77-.33.5-.5 1.33-.5 2.48V418h-2.68v-13.68h2.68v2.79l-.06 1.53-.06.8h.14c.6-.97 1.54-1.45 2.84-1.45 1.16 0 2.03.31 2.63.93.6.62.9 1.51.9 2.67V418Zm2.65-12.37c0-.87.48-1.3 1.45-1.3.98 0 1.46.43 1.46 1.3 0 .42-.12.75-.37.98-.24.23-.6.34-1.09.34-.97 0-1.45-.44-1.45-1.32Zm2.79 12.37h-2.68v-9.83h2.68V418Zm11.9 0h-2.69v-5.74c0-.7-.13-1.24-.38-1.59-.25-.36-.65-.54-1.2-.54-.75 0-1.3.26-1.63.76a4.7 4.7 0 0 0-.5 2.49V418h-2.68v-9.83h2.05l.36 1.26h.15c.3-.47.7-.83 1.23-1.07a4.2 4.2 0 0 1 1.8-.37c1.13 0 2 .31 2.6.93.59.62.88 1.5.88 2.67V418Zm11.3-9.83v1.37l-1.53.4c.28.43.42.92.42 1.47 0 1.05-.37 1.88-1.11 2.47a4.8 4.8 0 0 1-3.06.88l-.48-.03-.4-.04c-.27.2-.41.44-.41.7 0 .39.5.58 1.47.58h1.68c1.07 0 1.9.23 2.46.7.56.46.85 1.14.85 2.03 0 1.15-.48 2.04-1.44 2.68-.96.63-2.33.94-4.13.94a5.71 5.71 0 0 1-3.14-.72 2.27 2.27 0 0 1-1.08-2c0-.6.18-1.09.55-1.49.37-.4.91-.68 1.63-.85a1.8 1.8 0 0 1-.72-.57c-.2-.27-.31-.55-.31-.85 0-.38.1-.69.32-.93.22-.26.53-.5.94-.74a2.67 2.67 0 0 1-1.23-1.07c-.3-.5-.44-1.08-.44-1.75 0-1.07.34-1.9 1.04-2.48.7-.59 1.7-.88 2.99-.88a9.92 9.92 0 0 1 1.7.19h3.43Zm-7.58 11.22c0 .37.17.66.53.87.35.21.85.31 1.49.31.96 0 1.71-.13 2.26-.39.54-.26.82-.62.82-1.08a.78.78 0 0 0-.49-.77 3.95 3.95 0 0 0-1.5-.2h-1.38c-.5 0-.9.1-1.24.34-.33.23-.5.54-.5.92Zm.97-8c0 .53.12.96.36 1.27.25.3.62.46 1.12.46.5 0 .87-.15 1.1-.46.24-.31.36-.74.36-1.27 0-1.18-.49-1.77-1.46-1.77-.98 0-1.48.59-1.48 1.77ZM68.98 436.43c0-.9.21-1.6.65-2.07.43-.48 1.06-.72 1.87-.72.8 0 1.42.24 1.86.72.44.48.66 1.17.66 2.07 0 .89-.22 1.57-.67 2.06-.43.49-1.05.73-1.85.73s-1.43-.24-1.87-.73a3 3 0 0 1-.65-2.06Zm23.1-4.2a2.8 2.8 0 0 0-2.39 1.16 5.35 5.35 0 0 0-.84 3.22c0 2.87 1.07 4.3 3.23 4.3.9 0 1.99-.23 3.27-.68v2.29a9.11 9.11 0 0 1-3.53.66c-1.87 0-3.3-.57-4.29-1.7-.99-1.14-1.48-2.77-1.48-4.89 0-1.33.24-2.5.73-3.5a5.24 5.24 0 0 1 2.09-2.32 6.2 6.2 0 0 1 3.2-.8c1.25 0 2.5.3 3.77.9l-.88 2.22c-.48-.23-.97-.43-1.45-.6a4.32 4.32 0 0 0-1.43-.26Zm7.94 5.84c0 .97.16 1.7.48 2.2.32.5.84.75 1.56.75.71 0 1.23-.24 1.54-.74.31-.5.47-1.23.47-2.21 0-.97-.16-1.7-.47-2.19-.32-.49-.84-.73-1.56-.73-.71 0-1.23.25-1.55.73a4.03 4.03 0 0 0-.47 2.19Zm6.8 0c0 1.6-.43 2.85-1.27 3.75a4.59 4.59 0 0 1-3.53 1.36 4.9 4.9 0 0 1-2.5-.62 4.15 4.15 0 0 1-1.65-1.78 5.98 5.98 0 0 1-.58-2.71c0-1.6.42-2.85 1.25-3.75a4.62 4.62 0 0 1 3.54-1.33 5 5 0 0 1 2.5.61c.71.41 1.27 1 1.65 1.77.4.77.58 1.67.58 2.7Zm11 4.93h-2.67v-5.74c0-.7-.12-1.24-.36-1.59-.24-.36-.61-.54-1.12-.54-.69 0-1.18.26-1.5.76-.3.5-.46 1.33-.46 2.49V443h-2.68v-9.83h2.05l.36 1.26h.15c.26-.45.64-.8 1.14-1.05.5-.26 1.07-.4 1.71-.4 1.47 0 2.47.49 3 1.45h.23a2.6 2.6 0 0 1 1.16-1.06c.52-.25 1.1-.38 1.74-.38 1.11 0 1.95.29 2.52.86.58.57.86 1.48.86 2.74V443h-2.69v-5.74c0-.7-.12-1.24-.36-1.59-.23-.36-.6-.54-1.11-.54a1.7 1.7 0 0 0-1.48.7 4.1 4.1 0 0 0-.48 2.24V443Zm14.29.18a3.26 3.26 0 0 1-2.72-1.26h-.14c.1.82.14 1.3.14 1.42v3.98h-2.68v-14.15h2.18l.38 1.28h.12a3.1 3.1 0 0 1 2.79-1.46c1.16 0 2.07.45 2.72 1.34.66.9.99 2.15.99 3.74 0 1.05-.16 1.96-.47 2.73a3.8 3.8 0 0 1-1.3 1.77c-.58.4-1.24.6-2.01.6Zm-.8-8.05c-.65 0-1.14.2-1.44.62-.3.4-.47 1.07-.48 2.01v.3c0 1.05.16 1.8.47 2.26.32.46.81.69 1.5.69 1.2 0 1.8-1 1.8-2.98 0-.96-.15-1.69-.45-2.17-.3-.48-.76-.73-1.4-.73Zm13.75 7.87-.36-1.26h-.14c-.28.46-.7.81-1.22 1.07-.53.24-1.13.37-1.8.37-1.15 0-2.02-.31-2.61-.93-.59-.62-.88-1.5-.88-2.67v-6.4h2.68v5.73c0 .71.13 1.24.38 1.6.25.35.65.53 1.2.53.75 0 1.3-.25 1.63-.75.33-.5.5-1.33.5-2.5v-4.62h2.68V443h-2.06Zm9.01-1.96c.47 0 1.03-.1 1.7-.3v1.99c-.68.3-1.5.45-2.47.45-1.07 0-1.86-.27-2.35-.81-.48-.55-.73-1.36-.73-2.45v-4.73h-1.28v-1.14l1.48-.9.77-2.07h1.71v2.1h2.75v2h-2.75v4.74c0 .38.11.67.32.85.22.18.5.27.85.27Zm7.75-6.14a1.7 1.7 0 0 0-1.33.54c-.32.36-.5.87-.55 1.53h3.76a2.22 2.22 0 0 0-.52-1.53 1.75 1.75 0 0 0-1.36-.54Zm.38 8.28a5.07 5.07 0 0 1-3.7-1.31c-.9-.88-1.34-2.11-1.34-3.71 0-1.65.4-2.92 1.23-3.82a4.4 4.4 0 0 1 3.42-1.35c1.39 0 2.47.4 3.24 1.19a4.5 4.5 0 0 1 1.16 3.27v1.3h-6.34c.03.77.26 1.36.68 1.79.42.43 1.01.64 1.78.64a7.37 7.37 0 0 0 3.33-.77v2.07c-.47.24-.97.4-1.5.52-.54.12-1.19.18-1.96.18Zm11.68-10.2c.36 0 .66.04.9.09l-.2 2.51a3.05 3.05 0 0 0-.8-.09c-.85 0-1.52.22-2 .66a2.4 2.4 0 0 0-.7 1.85v5h-2.69v-9.83h2.03l.4 1.66h.13c.3-.56.71-1 1.23-1.33a3.04 3.04 0 0 1 1.7-.51Zm14.9-2.83h2.75L187.16 443h-2.97l-4.36-12.85h2.75l2.42 7.65a27.01 27.01 0 0 1 .69 2.83c.06-.54.28-1.49.66-2.83l2.43-7.65Zm4.05.48c0-.87.49-1.3 1.46-1.3s1.46.43 1.46 1.3c0 .42-.12.75-.37.98-.24.23-.6.34-1.09.34-.97 0-1.46-.44-1.46-1.32Zm2.8 12.37h-2.68v-9.83h2.68V443Zm9.68-2.92a2.7 2.7 0 0 1-1.06 2.3c-.7.53-1.74.8-3.14.8-.71 0-1.32-.05-1.83-.15-.5-.1-.97-.24-1.41-.43v-2.21a9.47 9.47 0 0 0 3.33.83c.97 0 1.46-.29 1.46-.85a.69.69 0 0 0-.2-.5 2.67 2.67 0 0 0-.66-.46c-.32-.17-.74-.36-1.27-.59a8.05 8.05 0 0 1-1.67-.87 2.6 2.6 0 0 1-.77-.93 3.14 3.14 0 0 1-.24-1.29c0-.87.34-1.55 1.01-2.02a4.94 4.94 0 0 1 2.88-.72c1.19 0 2.34.26 3.46.77l-.8 1.94c-.5-.21-.96-.39-1.39-.52-.43-.14-.86-.2-1.3-.2-.8 0-1.2.2-1.2.64 0 .24.13.44.38.62a10 10 0 0 0 1.68.78c.77.31 1.33.6 1.69.87a2.5 2.5 0 0 1 1.04 2.19Zm1.97-9.45c0-.87.49-1.3 1.46-1.3s1.46.43 1.46 1.3c0 .42-.12.75-.37.98-.24.23-.6.34-1.09.34-.97 0-1.46-.44-1.46-1.32Zm2.8 12.37h-2.68v-9.83h2.68V443Zm4.95-4.93c0 .97.16 1.7.48 2.2.32.5.84.75 1.56.75.72 0 1.23-.24 1.54-.74.32-.5.48-1.23.48-2.21 0-.97-.16-1.7-.48-2.19-.32-.49-.83-.73-1.55-.73-.72 0-1.24.25-1.55.73a4.02 4.02 0 0 0-.48 2.19Zm6.8 0c0 1.6-.42 2.85-1.27 3.75a4.58 4.58 0 0 1-3.52 1.36c-.94 0-1.78-.2-2.5-.62a4.15 4.15 0 0 1-1.66-1.78 5.97 5.97 0 0 1-.58-2.71c0-1.6.42-2.85 1.26-3.75a4.62 4.62 0 0 1 3.53-1.33c.94 0 1.78.2 2.5.61s1.27 1 1.66 1.77c.38.77.58 1.67.58 2.7ZM233.1 443h-2.68v-5.74c0-.7-.12-1.24-.38-1.59-.25-.36-.65-.54-1.2-.54-.75 0-1.3.26-1.63.76a4.7 4.7 0 0 0-.5 2.49V443h-2.68v-9.83h2.05l.36 1.26h.15c.3-.47.71-.83 1.23-1.07a4.2 4.2 0 0 1 1.8-.37c1.14 0 2 .31 2.6.93.59.62.88 1.5.88 2.67V443ZM68.98 461.43c0-.9.21-1.6.65-2.07.43-.48 1.06-.72 1.87-.72.8 0 1.42.24 1.86.72.44.48.66 1.17.66 2.07 0 .89-.22 1.57-.67 2.06-.43.49-1.05.73-1.85.73s-1.43-.24-1.87-.73a3 3 0 0 1-.65-2.06Zm25.22 3c0 1.16-.42 2.08-1.25 2.74-.84.67-2 1-3.49 1a8.18 8.18 0 0 1-3.63-.77v-2.53c.86.39 1.6.66 2.2.82.6.16 1.15.24 1.65.24.6 0 1.05-.12 1.37-.35.32-.23.48-.56.48-1.02 0-.25-.07-.47-.21-.66a2.3 2.3 0 0 0-.62-.58c-.27-.18-.83-.47-1.67-.87a7.92 7.92 0 0 1-1.76-1.06 4 4 0 0 1-.94-1.19 3.38 3.38 0 0 1-.35-1.58c0-1.13.38-2.03 1.15-2.68a4.82 4.82 0 0 1 3.2-.97c.66 0 1.3.07 1.9.23.61.16 1.25.38 1.91.67l-.88 2.12c-.68-.28-1.25-.48-1.7-.59a5.44 5.44 0 0 0-1.32-.17c-.52 0-.91.12-1.19.36-.27.24-.41.56-.41.94 0 .24.05.46.17.64.1.17.28.35.52.52.25.16.83.46 1.73.9a6.84 6.84 0 0 1 2.47 1.72c.45.58.67 1.28.67 2.12Zm7.52 3.75a3.26 3.26 0 0 1-2.72-1.26h-.14c.1.82.14 1.3.14 1.42v3.98h-2.68v-14.15h2.18l.38 1.28H99a3.1 3.1 0 0 1 2.79-1.46 3.2 3.2 0 0 1 2.72 1.34c.66.9.99 2.15.99 3.74a7.3 7.3 0 0 1-.47 2.73 3.8 3.8 0 0 1-1.3 1.77c-.58.4-1.25.6-2.01.6Zm-.8-8.05c-.66 0-1.14.2-1.44.62-.3.4-.47 1.07-.48 2.01v.3c0 1.05.16 1.8.47 2.26.31.46.81.69 1.5.69 1.2 0 1.8-1 1.8-2.98 0-.96-.16-1.69-.46-2.17-.29-.48-.75-.73-1.38-.73Zm8.93 2.94c0 .97.16 1.7.47 2.2.32.5.85.75 1.57.75.71 0 1.22-.24 1.53-.74.32-.5.48-1.23.48-2.21 0-.97-.16-1.7-.48-2.19-.31-.49-.83-.73-1.55-.73-.72 0-1.23.25-1.55.73a4.03 4.03 0 0 0-.47 2.19Zm6.8 0c0 1.6-.43 2.85-1.28 3.75a4.59 4.59 0 0 1-3.52 1.36 4.9 4.9 0 0 1-2.5-.62 4.15 4.15 0 0 1-1.66-1.78 5.99 5.99 0 0 1-.58-2.71c0-1.6.42-2.85 1.26-3.75a4.62 4.62 0 0 1 3.53-1.33c.95 0 1.78.2 2.5.61s1.27 1 1.66 1.77c.39.77.58 1.67.58 2.7Zm4.34 0c0 .97.16 1.7.48 2.2.32.5.84.75 1.56.75.72 0 1.23-.24 1.54-.74.32-.5.47-1.23.47-2.21 0-.97-.16-1.7-.47-2.19-.32-.49-.84-.73-1.56-.73-.71 0-1.23.25-1.54.73a4.02 4.02 0 0 0-.48 2.19Zm6.8 0c0 1.6-.43 2.85-1.27 3.75a4.59 4.59 0 0 1-3.52 1.36c-.95 0-1.78-.2-2.5-.62a4.15 4.15 0 0 1-1.66-1.78 5.97 5.97 0 0 1-.58-2.71c0-1.6.42-2.85 1.25-3.75a4.62 4.62 0 0 1 3.54-1.33 5 5 0 0 1 2.5.61c.72.41 1.27 1 1.66 1.77.38.77.58 1.67.58 2.7Zm7.64-2.88h-2.32V468h-2.68v-7.81h-1.48v-1.3l1.48-.72v-.72c0-1.12.28-1.93.83-2.45.55-.51 1.43-.77 2.64-.77.93 0 1.75.13 2.47.41l-.68 1.97a5 5 0 0 0-1.5-.26c-.38 0-.65.12-.82.35-.17.22-.26.5-.26.86v.61h2.32v2.02Zm1.42-4.56c0-.87.5-1.3 1.46-1.3.98 0 1.46.43 1.46 1.3 0 .42-.12.75-.37.98-.24.23-.6.34-1.09.34-.97 0-1.46-.44-1.46-1.32Zm2.8 12.37h-2.68v-9.83h2.68V468Zm11.88 0h-2.68v-5.74c0-.7-.12-1.24-.38-1.59-.25-.36-.65-.54-1.2-.54-.75 0-1.3.26-1.63.76a4.7 4.7 0 0 0-.5 2.49V468h-2.68v-9.83h2.05l.36 1.26h.15c.3-.47.7-.83 1.23-1.07a4.2 4.2 0 0 1 1.8-.37c1.14 0 2 .31 2.6.93.59.62.88 1.5.88 2.67V468Zm11.31-9.83v1.37l-1.53.4c.28.43.42.92.42 1.47 0 1.05-.37 1.88-1.1 2.47-.74.58-1.76.88-3.07.88l-.48-.03-.4-.04c-.27.2-.4.44-.4.7 0 .39.48.58 1.47.58h1.67c1.08 0 1.9.23 2.46.7.57.46.85 1.14.85 2.03 0 1.15-.48 2.04-1.44 2.68-.96.63-2.33.94-4.12.94a5.71 5.71 0 0 1-3.15-.72 2.27 2.27 0 0 1-1.08-2c0-.6.18-1.09.55-1.49.37-.4.91-.68 1.63-.85-.28-.12-.52-.3-.72-.57a1.4 1.4 0 0 1-.3-.85c0-.38.1-.69.32-.93.21-.26.53-.5.94-.74a2.67 2.67 0 0 1-1.23-1.07c-.3-.5-.45-1.08-.45-1.75 0-1.07.35-1.9 1.04-2.48.7-.59 1.7-.88 3-.88a9.92 9.92 0 0 1 1.7.19h3.43Zm-7.58 11.22c0 .37.18.66.53.87.36.21.85.31 1.5.31.95 0 1.7-.13 2.25-.39s.82-.62.82-1.08c0-.37-.16-.63-.49-.77a3.95 3.95 0 0 0-1.49-.2h-1.39c-.5 0-.9.1-1.24.34-.33.23-.49.54-.49.92Zm.98-8c0 .53.11.96.36 1.27.24.3.61.46 1.11.46.5 0 .88-.15 1.1-.46.24-.31.36-.74.36-1.27 0-1.18-.48-1.77-1.46-1.77s-1.47.59-1.47 1.77Zm19.15 6.61-.52-1.34h-.07a4 4 0 0 1-1.4 1.2c-.47.2-1.1.32-1.86.32-.95 0-1.69-.27-2.23-.81s-.81-1.3-.81-2.3c0-1.05.36-1.82 1.09-2.3.73-.5 1.83-.78 3.3-.83l1.7-.06v-.43c0-1-.5-1.5-1.52-1.5-.79 0-1.71.25-2.77.72l-.89-1.81a8 8 0 0 1 3.76-.89 4.7 4.7 0 0 1 3.03.86c.7.58 1.06 1.45 1.06 2.62V468h-1.87Zm-.8-4.55-1.03.03c-.78.03-1.36.17-1.74.42-.38.26-.57.66-.57 1.18 0 .76.43 1.14 1.3 1.14.62 0 1.11-.18 1.48-.54.38-.36.57-.83.57-1.42v-.81Zm14.5 4.55h-2.67v-5.74c0-.7-.13-1.24-.38-1.59-.25-.36-.65-.54-1.2-.54-.75 0-1.3.26-1.63.76-.34.5-.5 1.33-.5 2.49V468h-2.68v-9.83h2.04l.37 1.26h.15c.3-.47.7-.83 1.22-1.07a4.2 4.2 0 0 1 1.8-.37c1.14 0 2 .31 2.6.93.6.62.89 1.5.89 2.67V468Zm5.88.18a3.2 3.2 0 0 1-2.73-1.35 6.2 6.2 0 0 1-.98-3.73c0-1.6.33-2.86 1-3.76.68-.9 1.6-1.35 2.78-1.35a3.2 3.2 0 0 1 2.83 1.44h.09c-.14-.73-.2-1.38-.2-1.96v-3.15h2.68V468h-2.05l-.52-1.27h-.12a3.07 3.07 0 0 1-2.78 1.45Zm.94-2.14c.69 0 1.19-.2 1.5-.6.32-.4.5-1.07.53-2.03v-.29c0-1.05-.16-1.8-.5-2.27-.31-.45-.84-.68-1.57-.68-.6 0-1.07.25-1.4.76-.33.5-.5 1.24-.5 2.21s.17 1.7.5 2.18c.34.48.82.72 1.44.72Zm19.81-1.6a3.3 3.3 0 0 1-1.26 2.73 5.4 5.4 0 0 1-3.48 1 8.17 8.17 0 0 1-3.64-.77v-2.53a15 15 0 0 0 2.2.82c.6.16 1.16.24 1.65.24.6 0 1.06-.12 1.37-.35.33-.23.49-.56.49-1.02 0-.25-.07-.47-.21-.66a2.3 2.3 0 0 0-.63-.58c-.27-.18-.82-.47-1.66-.87a7.94 7.94 0 0 1-1.77-1.06 4 4 0 0 1-.94-1.19 3.38 3.38 0 0 1-.35-1.58c0-1.13.39-2.03 1.16-2.68a4.82 4.82 0 0 1 3.2-.97c.66 0 1.3.07 1.9.23.61.16 1.25.38 1.9.67l-.87 2.12c-.69-.28-1.25-.48-1.7-.59a5.44 5.44 0 0 0-1.32-.17c-.52 0-.91.12-1.2.36-.27.24-.4.56-.4.94 0 .24.05.46.16.64.12.17.29.35.53.52.25.16.82.46 1.73.9a6.84 6.84 0 0 1 2.47 1.72c.45.58.67 1.28.67 2.12Zm7.51 3.74a3.26 3.26 0 0 1-2.71-1.26h-.14c.1.82.14 1.3.14 1.42v3.98h-2.68v-14.15h2.18l.38 1.28h.12a3.1 3.1 0 0 1 2.78-1.46c1.16 0 2.07.45 2.73 1.34.66.9.98 2.15.98 3.74a7.3 7.3 0 0 1-.46 2.73 3.8 3.8 0 0 1-1.31 1.77c-.57.4-1.24.6-2 .6Zm-.79-8.05c-.66 0-1.14.2-1.45.62-.3.4-.46 1.07-.47 2.01v.3c0 1.05.15 1.8.46 2.26.32.46.82.69 1.5.69 1.2 0 1.8-1 1.8-2.98 0-.96-.15-1.69-.45-2.17-.3-.48-.75-.73-1.39-.73Zm13.03 7.87-.52-1.34h-.07a4 4 0 0 1-1.4 1.2c-.47.2-1.1.32-1.86.32-.94 0-1.69-.27-2.23-.81s-.81-1.3-.81-2.3c0-1.05.36-1.82 1.09-2.3.73-.5 1.83-.78 3.3-.83l1.7-.06v-.43c0-1-.5-1.5-1.52-1.5-.79 0-1.71.25-2.77.72l-.89-1.81a8 8 0 0 1 3.76-.89c1.32 0 2.33.29 3.04.86.7.58 1.05 1.45 1.05 2.62V468h-1.87Zm-.8-4.55-1.03.03c-.78.03-1.36.17-1.74.42-.38.26-.57.66-.57 1.18 0 .76.43 1.14 1.3 1.14.62 0 1.12-.18 1.49-.54.37-.36.56-.83.56-1.42v-.81Zm14.24 4.55h-2.68v-5.74c0-.7-.12-1.24-.36-1.59-.24-.36-.61-.54-1.12-.54-.69 0-1.18.26-1.5.76-.3.5-.46 1.33-.46 2.49V468h-2.68v-9.83h2.05l.36 1.26h.15c.26-.45.64-.8 1.14-1.05.5-.26 1.07-.4 1.71-.4 1.47 0 2.47.49 3 1.45h.23a2.6 2.6 0 0 1 1.16-1.06c.52-.25 1.1-.38 1.74-.38 1.11 0 1.95.29 2.52.86.58.57.86 1.48.86 2.74V468h-2.69v-5.74c0-.7-.12-1.24-.36-1.59-.23-.36-.6-.54-1.11-.54a1.7 1.7 0 0 0-1.48.7 4.1 4.1 0 0 0-.48 2.24V468Zm18.99-7.81h-2.32V468h-2.68v-7.81h-1.48v-1.3l1.48-.72v-.72c0-1.12.28-1.93.83-2.45.55-.51 1.43-.77 2.64-.77.93 0 1.75.13 2.47.41l-.69 1.97a5 5 0 0 0-1.49-.26c-.38 0-.66.12-.83.35-.16.22-.25.5-.25.86v.61h2.32v2.02Zm1.42-4.56c0-.87.5-1.3 1.46-1.3.98 0 1.46.43 1.46 1.3 0 .42-.12.75-.37.98-.24.23-.6.34-1.09.34-.97 0-1.46-.44-1.46-1.32Zm2.8 12.37h-2.68v-9.83h2.68V468Zm5.5 0h-2.69v-13.68h2.68V468Zm6.95-1.96c.47 0 1.03-.1 1.7-.3v1.99c-.68.3-1.5.45-2.47.45-1.07 0-1.86-.27-2.35-.81-.48-.55-.73-1.36-.73-2.45v-4.73h-1.28v-1.14l1.48-.9.77-2.07h1.71v2.1h2.75v2h-2.75v4.74c0 .38.11.67.32.85.22.18.5.27.85.27Zm7.75-6.14a1.7 1.7 0 0 0-1.33.54c-.32.36-.5.87-.55 1.53h3.76a2.22 2.22 0 0 0-.52-1.53 1.75 1.75 0 0 0-1.36-.54Zm.38 8.28a5.07 5.07 0 0 1-3.7-1.31c-.9-.88-1.34-2.11-1.34-3.71 0-1.65.4-2.92 1.23-3.82a4.4 4.4 0 0 1 3.42-1.35c1.39 0 2.47.4 3.24 1.19a4.5 4.5 0 0 1 1.16 3.27v1.3h-6.34c.03.77.26 1.36.68 1.79.42.43 1.01.64 1.78.64a7.37 7.37 0 0 0 3.33-.77v2.07c-.47.24-.97.4-1.5.52-.54.12-1.19.18-1.96.18Zm11.68-10.2c.36 0 .66.04.9.09l-.2 2.51a3.05 3.05 0 0 0-.8-.09c-.85 0-1.52.22-2 .66a2.4 2.4 0 0 0-.7 1.85v5h-2.69v-9.83h2.03l.4 1.66h.13c.3-.56.71-1 1.23-1.33a3.04 3.04 0 0 1 1.7-.51Zm9.54 7.1c0 1.01-.35 1.78-1.06 2.3-.7.53-1.74.8-3.13.8a9.5 9.5 0 0 1-1.83-.15 7.1 7.1 0 0 1-1.42-.43v-2.21a9.47 9.47 0 0 0 3.33.83c.98 0 1.46-.29 1.46-.85a.69.69 0 0 0-.19-.5 2.67 2.67 0 0 0-.67-.46 15.5 15.5 0 0 0-1.26-.59 8.04 8.04 0 0 1-1.67-.87 2.53 2.53 0 0 1-.78-.93 3.14 3.14 0 0 1-.23-1.29c0-.87.33-1.55 1-2.02a4.94 4.94 0 0 1 2.89-.72c1.18 0 2.33.26 3.45.77l-.8 1.94c-.5-.21-.96-.39-1.38-.52-.43-.14-.87-.2-1.31-.2-.8 0-1.19.2-1.19.64 0 .24.13.44.38.62.26.18.81.44 1.68.78.76.31 1.33.6 1.68.87.36.27.63.58.8.94a3 3 0 0 1 .25 1.25ZM68.98 486.43c0-.9.21-1.6.65-2.07.43-.48 1.06-.72 1.87-.72.8 0 1.42.24 1.86.72.44.48.66 1.17.66 2.07 0 .89-.22 1.57-.67 2.06-.43.49-1.05.73-1.85.73s-1.43-.24-1.87-.73a3 3 0 0 1-.65-2.06Zm29.3.13c0 2.13-.53 3.76-1.58 4.9-1.06 1.14-2.57 1.72-4.54 1.72-1.97 0-3.48-.58-4.53-1.72-1.06-1.14-1.58-2.78-1.58-4.92s.52-3.77 1.58-4.9c1.06-1.13 2.58-1.7 4.55-1.7 1.98 0 3.48.58 4.53 1.71 1.05 1.14 1.57 2.78 1.57 4.9Zm-9.38 0c0 1.43.27 2.51.82 3.24.54.73 1.36 1.1 2.44 1.1 2.18 0 3.26-1.45 3.26-4.34 0-2.9-1.08-4.34-3.24-4.34-1.08 0-1.9.36-2.45 1.1-.55.72-.83 1.8-.83 3.24Zm17.26-1.37h-2.32V493h-2.68v-7.81H99.7v-1.3l1.47-.72v-.72c0-1.12.28-1.93.83-2.45.55-.51 1.43-.77 2.65-.77.92 0 1.74.13 2.46.41l-.68 1.97a5 5 0 0 0-1.5-.26c-.38 0-.65.12-.82.35-.17.22-.26.5-.26.86v.61h2.32v2.02Zm6.97 0h-2.32V493h-2.68v-7.81h-1.47v-1.3l1.47-.72v-.72c0-1.12.28-1.93.83-2.45.55-.51 1.43-.77 2.64-.77.93 0 1.75.13 2.47.41l-.68 1.97a5 5 0 0 0-1.5-.26c-.38 0-.65.12-.82.35-.17.22-.26.5-.26.86v.61h2.32v2.02Zm1.4-4.56c0-.87.49-1.3 1.46-1.3s1.46.43 1.46 1.3c0 .42-.12.75-.37.98-.24.23-.6.34-1.09.34-.97 0-1.46-.44-1.46-1.32Zm2.8 12.37h-2.68v-9.83h2.68V493Zm6.8.18c-3.06 0-4.59-1.68-4.59-5.04 0-1.67.42-2.94 1.25-3.82.83-.89 2.02-1.33 3.58-1.33 1.13 0 2.15.22 3.05.67l-.79 2.07c-.42-.17-.81-.3-1.17-.41a3.71 3.71 0 0 0-1.1-.17c-1.39 0-2.09 1-2.09 2.97 0 1.92.7 2.88 2.1 2.88.51 0 .99-.06 1.43-.2a5.3 5.3 0 0 0 1.32-.65v2.3a4.3 4.3 0 0 1-1.32.57c-.44.1-1 .16-1.67.16Zm9.34-8.28a1.7 1.7 0 0 0-1.33.54c-.33.36-.51.87-.56 1.53h3.76a2.22 2.22 0 0 0-.52-1.53 1.75 1.75 0 0 0-1.35-.54Zm.38 8.28a5.07 5.07 0 0 1-3.7-1.31c-.9-.88-1.34-2.11-1.34-3.71 0-1.65.4-2.92 1.22-3.82a4.4 4.4 0 0 1 3.42-1.35c1.4 0 2.47.4 3.25 1.19a4.49 4.49 0 0 1 1.16 3.27v1.3h-6.34c.03.77.25 1.36.68 1.79.42.43 1.01.64 1.77.64a7.37 7.37 0 0 0 3.33-.77v2.07c-.47.24-.97.4-1.5.52s-1.18.18-1.95.18Zm13.98-10.16c0 .8-.24 1.49-.73 2.05-.48.56-1.16.95-2.04 1.16v.06c1.03.12 1.82.44 2.35.94.53.5.8 1.18.8 2.03 0 1.23-.45 2.2-1.34 2.89-.9.68-2.18 1.03-3.84 1.03-1.4 0-2.63-.24-3.71-.7v-2.31a8.36 8.36 0 0 0 3.42.85c.9 0 1.55-.15 1.98-.45.43-.3.64-.8.64-1.47 0-.6-.24-1.03-.74-1.29a5.46 5.46 0 0 0-2.35-.37h-.98v-2.09h1c1 0 1.72-.13 2.18-.38.46-.27.7-.72.7-1.35 0-.97-.62-1.46-1.84-1.46-.42 0-.85.07-1.29.21-.43.14-.92.39-1.45.73l-1.26-1.87a6.99 6.99 0 0 1 4.2-1.26 5.4 5.4 0 0 1 3.14.8 2.6 2.6 0 0 1 1.16 2.25Zm1.72 4.52c0-2.54.53-4.43 1.6-5.68 1.08-1.24 2.7-1.86 4.84-1.86.73 0 1.3.05 1.72.13v2.17a7.05 7.05 0 0 0-1.55-.17c-.93 0-1.69.14-2.28.42-.59.28-1.03.7-1.32 1.25a5.7 5.7 0 0 0-.52 2.34h.12c.58-1 1.5-1.49 2.78-1.49 1.15 0 2.05.36 2.7 1.08.65.72.98 1.72.98 2.99a4.5 4.5 0 0 1-1.16 3.26c-.78.8-1.85 1.2-3.22 1.2-.95 0-1.78-.22-2.49-.66a4.32 4.32 0 0 1-1.63-1.93 7.38 7.38 0 0 1-.57-3.05Zm4.64 3.46c.58 0 1.02-.19 1.33-.57.31-.4.47-.95.47-1.68 0-.62-.15-1.11-.44-1.47-.29-.36-.72-.55-1.31-.55-.55 0-1.02.18-1.42.54-.38.36-.57.77-.57 1.25 0 .7.18 1.28.54 1.76.37.49.84.73 1.4.73Zm10.4-6.2c1.25 0 2.23.34 2.97 1.04.73.7 1.1 1.65 1.1 2.86a4.2 4.2 0 0 1-1.32 3.32c-.89.77-2.15 1.16-3.8 1.16a7.43 7.43 0 0 1-3.46-.7v-2.35a7.33 7.33 0 0 0 3.36.84c1.66 0 2.49-.68 2.49-2.04 0-1.3-.86-1.94-2.58-1.94-.3 0-.65.03-1.02.1-.38.05-.68.12-.92.19l-1.08-.58.48-6.55h6.97v2.3h-4.58l-.24 2.53.3-.07c.36-.08.8-.12 1.33-.12Zm23.07 8.2h-3.32l-1-1a6.49 6.49 0 0 1-3.8 1.18 5.37 5.37 0 0 1-3.4-.99 3.2 3.2 0 0 1-1.26-2.66c0-.8.17-1.49.52-2.05.36-.57.97-1.1 1.83-1.59a5.8 5.8 0 0 1-.96-1.44c-.2-.46-.3-.97-.3-1.51 0-.9.34-1.61 1.03-2.16a4.3 4.3 0 0 1 2.74-.81c1.09 0 1.96.25 2.6.76.66.5 1 1.18 1 2.03 0 .7-.21 1.34-.61 1.92a6.06 6.06 0 0 1-1.96 1.64l2.5 2.44c.4-.7.77-1.57 1.07-2.65h2.8c-.21.79-.5 1.56-.87 2.32a10.7 10.7 0 0 1-1.26 2l2.65 2.57Zm-9.96-3.73c0 .5.19.9.56 1.2.38.3.87.46 1.46.46.74 0 1.4-.18 2-.54l-2.92-2.9a4.1 4.1 0 0 0-.81.8c-.2.29-.3.61-.3.98Zm3.15-6.23a.9.9 0 0 0-.31-.73 1.21 1.21 0 0 0-.82-.27c-.4 0-.7.1-.93.28a.99.99 0 0 0-.34.8c0 .52.28 1.08.84 1.7.5-.27.89-.55 1.16-.82.27-.27.4-.6.4-.96Zm17.98 2.74h5.1v6.67a14.03 14.03 0 0 1-4.58.73c-1.94 0-3.42-.57-4.44-1.7-1.02-1.15-1.53-2.79-1.53-4.92 0-2.08.59-3.7 1.77-4.85 1.2-1.16 2.84-1.74 4.94-1.74 1.32 0 2.6.26 3.82.79l-.9 2.18a6.46 6.46 0 0 0-2.94-.7c-1.17 0-2.12.39-2.82 1.18a4.6 4.6 0 0 0-1.07 3.19c0 1.4.29 2.46.85 3.2a3 3 0 0 0 2.5 1.1c.57 0 1.15-.06 1.73-.18v-2.68h-2.43v-2.27Zm20.42 3.65c0 1.16-.42 2.08-1.25 2.74-.84.67-2 1-3.48 1a8.18 8.18 0 0 1-3.64-.77v-2.53c.86.39 1.6.66 2.2.82.6.16 1.15.24 1.65.24.6 0 1.05-.12 1.37-.35.32-.23.48-.56.48-1.02 0-.25-.07-.47-.21-.66a2.3 2.3 0 0 0-.62-.58c-.27-.18-.83-.47-1.66-.87a7.94 7.94 0 0 1-1.77-1.06 4 4 0 0 1-.94-1.19 3.39 3.39 0 0 1-.35-1.58c0-1.13.38-2.03 1.15-2.68a4.82 4.82 0 0 1 3.2-.97c.66 0 1.3.07 1.9.23.61.16 1.25.38 1.91.67l-.88 2.12c-.68-.28-1.25-.48-1.7-.59a5.43 5.43 0 0 0-1.32-.17c-.52 0-.91.12-1.19.36-.27.24-.41.56-.41.94 0 .24.06.46.17.64.1.17.28.35.52.52.25.16.83.46 1.74.9a6.84 6.84 0 0 1 2.47 1.72c.44.58.66 1.28.66 2.12Zm9.08 3.57-.36-1.26h-.14c-.29.46-.7.81-1.22 1.07-.53.24-1.13.37-1.8.37-1.16 0-2.03-.31-2.61-.93-.59-.62-.88-1.5-.88-2.67v-6.4H224v5.73c0 .71.13 1.24.38 1.6.25.35.65.53 1.2.53.75 0 1.3-.25 1.63-.75.33-.5.5-1.33.5-2.5v-4.62h2.68V493h-2.06Zm4.76-12.37c0-.87.48-1.3 1.46-1.3.97 0 1.45.43 1.45 1.3 0 .42-.12.75-.36.98-.24.23-.6.34-1.1.34-.97 0-1.45-.44-1.45-1.32Zm2.8 12.37h-2.69v-9.83h2.68V493Zm6.95-1.96c.47 0 1.03-.1 1.69-.3v1.99a6 6 0 0 1-2.46.45c-1.07 0-1.85-.27-2.35-.81-.48-.55-.73-1.36-.73-2.45v-4.73h-1.28v-1.14l1.48-.9.77-2.07h1.71v2.1h2.76v2h-2.76v4.74c0 .38.1.67.32.85.22.18.5.27.85.27Zm7.75-6.14a1.7 1.7 0 0 0-1.33.54c-.32.36-.5.87-.55 1.53h3.76a2.22 2.22 0 0 0-.52-1.53 1.75 1.75 0 0 0-1.35-.54Zm.38 8.28a5.07 5.07 0 0 1-3.7-1.31c-.9-.88-1.34-2.11-1.34-3.71 0-1.65.4-2.92 1.23-3.82a4.4 4.4 0 0 1 3.42-1.35c1.39 0 2.47.4 3.24 1.19a4.49 4.49 0 0 1 1.16 3.27v1.3h-6.34c.03.77.26 1.36.68 1.79.42.43 1.01.64 1.78.64a7.36 7.36 0 0 0 3.33-.77v2.07c-.47.24-.97.4-1.5.52-.54.12-1.19.18-1.96.18Zm16.53-10.95a2.8 2.8 0 0 0-2.38 1.16 5.36 5.36 0 0 0-.84 3.22c0 2.87 1.07 4.3 3.23 4.3.9 0 1.99-.23 3.27-.68v2.29a9.1 9.1 0 0 1-3.53.66c-1.87 0-3.3-.57-4.29-1.7-.99-1.14-1.48-2.77-1.48-4.89 0-1.33.24-2.5.72-3.5a5.38 5.38 0 0 1 2.1-2.32 6.2 6.2 0 0 1 3.2-.8c1.25 0 2.5.3 3.77.9l-.88 2.22c-.48-.23-.97-.43-1.45-.6a4.33 4.33 0 0 0-1.44-.26Zm7.95 5.84c0 .97.16 1.7.48 2.2.32.5.84.75 1.56.75.71 0 1.23-.24 1.54-.74.31-.5.47-1.23.47-2.21 0-.97-.16-1.7-.47-2.19-.32-.49-.84-.73-1.56-.73-.71 0-1.23.25-1.55.73a4.02 4.02 0 0 0-.47 2.19Zm6.8 0c0 1.6-.43 2.85-1.27 3.75a4.59 4.59 0 0 1-3.53 1.36 4.9 4.9 0 0 1-2.5-.62 4.15 4.15 0 0 1-1.65-1.78 5.97 5.97 0 0 1-.58-2.71c0-1.6.42-2.85 1.25-3.75a4.62 4.62 0 0 1 3.54-1.33 5 5 0 0 1 2.5.61c.71.41 1.27 1 1.65 1.77.4.77.58 1.67.58 2.7Zm11 4.93h-2.67v-5.74c0-.7-.12-1.24-.36-1.59-.24-.36-.61-.54-1.12-.54-.69 0-1.18.26-1.5.76-.3.5-.46 1.33-.46 2.49V493h-2.68v-9.83h2.05l.36 1.26h.15c.26-.45.64-.8 1.14-1.05.5-.26 1.07-.4 1.71-.4 1.47 0 2.47.49 3 1.45h.23a2.6 2.6 0 0 1 1.16-1.06 3.9 3.9 0 0 1 1.74-.38c1.11 0 1.95.29 2.52.86.58.57.86 1.48.86 2.74V493h-2.69v-5.74c0-.7-.12-1.24-.36-1.59-.23-.36-.6-.54-1.11-.54a1.7 1.7 0 0 0-1.48.7 4.1 4.1 0 0 0-.48 2.24V493Zm14.29.18a3.26 3.26 0 0 1-2.72-1.26h-.14c.1.82.14 1.3.14 1.42v3.98h-2.68v-14.15h2.18l.38 1.28h.12a3.1 3.1 0 0 1 2.79-1.46c1.16 0 2.07.45 2.72 1.34.66.9.99 2.15.99 3.74 0 1.05-.16 1.96-.47 2.73a3.36 3.36 0 0 1-3.31 2.37Zm-.8-8.05c-.65 0-1.14.2-1.44.62-.3.4-.47 1.07-.48 2.01v.3c0 1.05.16 1.8.47 2.26.31.46.81.69 1.5.69 1.2 0 1.8-1 1.8-2.98 0-.96-.15-1.69-.45-2.17-.3-.48-.76-.73-1.4-.73Zm13.03 7.87-.51-1.34h-.07a4 4 0 0 1-1.4 1.2c-.48.2-1.1.32-1.87.32-.94 0-1.68-.27-2.23-.81-.54-.54-.8-1.3-.8-2.3 0-1.05.36-1.82 1.08-2.3a6.3 6.3 0 0 1 3.3-.83l1.71-.06v-.43c0-1-.5-1.5-1.53-1.5-.78 0-1.7.25-2.76.72l-.9-1.81a8 8 0 0 1 3.77-.89 4.7 4.7 0 0 1 3.03.86c.7.58 1.06 1.45 1.06 2.62V493h-1.88Zm-.79-4.55-1.04.03c-.77.03-1.35.17-1.74.42-.38.26-.57.66-.57 1.18 0 .76.44 1.14 1.3 1.14.63 0 1.12-.18 1.49-.54.38-.36.56-.83.56-1.42v-.81Zm9.57 2.59c.47 0 1.03-.1 1.7-.3v1.99c-.68.3-1.5.45-2.47.45-1.07 0-1.85-.27-2.35-.81-.48-.55-.73-1.36-.73-2.45v-4.73h-1.28v-1.14l1.48-.9.77-2.07h1.71v2.1h2.76v2h-2.75v4.74c0 .38.1.67.31.85.22.18.5.27.85.27Zm3.57-10.4c0-.88.49-1.32 1.46-1.32s1.46.44 1.46 1.31c0 .42-.12.75-.37.98-.24.23-.6.34-1.09.34-.97 0-1.46-.44-1.46-1.32Zm2.8 12.36h-2.68v-9.83h2.68V493Zm8.28-10.01c1.17 0 2.07.45 2.73 1.36.66.9.98 2.14.98 3.72 0 1.62-.34 2.88-1.02 3.77a3.28 3.28 0 0 1-2.75 1.34 3.26 3.26 0 0 1-2.72-1.26h-.19l-.44 1.08h-2.05v-13.68h2.68v3.19c0 .4-.04 1.05-.1 1.94h.1a3.1 3.1 0 0 1 2.78-1.46Zm-.86 2.14c-.66 0-1.14.2-1.45.62-.3.4-.46 1.07-.47 2.01v.3c0 1.05.15 1.8.46 2.26.32.46.82.69 1.5.69.55 0 .99-.26 1.3-.76.34-.51.5-1.25.5-2.22 0-.96-.16-1.69-.5-2.17a1.54 1.54 0 0 0-1.34-.73Zm9.47 7.87h-2.68v-13.68h2.68V493Zm6.89-8.1a1.7 1.7 0 0 0-1.34.54c-.32.36-.5.87-.55 1.53h3.76a2.22 2.22 0 0 0-.52-1.53 1.75 1.75 0 0 0-1.35-.54Zm.38 8.28a5.07 5.07 0 0 1-3.71-1.31c-.9-.88-1.34-2.11-1.34-3.71 0-1.65.41-2.92 1.23-3.82a4.4 4.4 0 0 1 3.42-1.35c1.4 0 2.47.4 3.25 1.19a4.5 4.5 0 0 1 1.16 3.27v1.3h-6.34c.03.77.25 1.36.68 1.79.42.43 1 .64 1.77.64a7.37 7.37 0 0 0 3.33-.77v2.07c-.47.24-.97.4-1.5.52s-1.18.18-1.95.18Zm-294 24.05a2.8 2.8 0 0 0-2.39 1.16 5.35 5.35 0 0 0-.84 3.22c0 2.87 1.07 4.3 3.23 4.3.9 0 1.99-.23 3.27-.68v2.29a9.11 9.11 0 0 1-3.53.66c-1.87 0-3.3-.57-4.29-1.7-.99-1.14-1.48-2.77-1.48-4.89 0-1.33.24-2.5.73-3.5a5.24 5.24 0 0 1 2.09-2.32 6.2 6.2 0 0 1 3.2-.8c1.25 0 2.5.3 3.77.9l-.88 2.22c-.48-.23-.97-.43-1.45-.6a4.32 4.32 0 0 0-1.43-.26ZM73.57 528h-2.69v-13.68h2.69V528Zm4.95-4.93c0 .97.16 1.7.48 2.2.32.5.84.75 1.56.75.72 0 1.23-.24 1.54-.74.32-.5.47-1.23.47-2.21 0-.97-.15-1.7-.47-2.19-.32-.49-.84-.73-1.56-.73-.71 0-1.23.25-1.54.73a4.03 4.03 0 0 0-.48 2.19Zm6.8 0c0 1.6-.43 2.85-1.27 3.75a4.59 4.59 0 0 1-3.52 1.36c-.95 0-1.78-.2-2.5-.62a4.15 4.15 0 0 1-1.66-1.78 5.98 5.98 0 0 1-.58-2.71c0-1.6.42-2.85 1.26-3.75a4.62 4.62 0 0 1 3.53-1.33 5 5 0 0 1 2.5.61c.72.41 1.27 1 1.66 1.77.38.77.58 1.67.58 2.7Zm9.17 4.93-.36-1.26H94c-.29.46-.7.81-1.22 1.07-.53.24-1.13.37-1.8.37-1.16 0-2.03-.31-2.61-.93-.59-.62-.88-1.5-.88-2.67v-6.4h2.68v5.73c0 .71.13 1.25.38 1.6.25.35.65.53 1.2.53.75 0 1.3-.25 1.63-.75.33-.5.5-1.33.5-2.5v-4.62h2.68V528H94.5Zm7.98.18a3.2 3.2 0 0 1-2.72-1.35 6.2 6.2 0 0 1-.99-3.73c0-1.6.34-2.86 1-3.76.68-.9 1.6-1.35 2.78-1.35a3.2 3.2 0 0 1 2.83 1.44h.1a10.5 10.5 0 0 1-.21-1.96v-3.15h2.69V528h-2.06l-.52-1.27h-.11a3.07 3.07 0 0 1-2.79 1.45Zm.94-2.14c.69 0 1.19-.2 1.5-.6.33-.4.5-1.07.53-2.03v-.29c0-1.05-.16-1.8-.49-2.27-.32-.45-.85-.68-1.58-.68-.6 0-1.06.25-1.4.76-.33.5-.5 1.24-.5 2.21s.18 1.7.51 2.18c.33.48.81.72 1.43.72Zm19.81-1.6c0 1.15-.41 2.07-1.25 2.73-.83.67-2 1-3.48 1a8.17 8.17 0 0 1-3.64-.77v-2.53a15 15 0 0 0 2.2.82c.6.16 1.15.24 1.65.24.6 0 1.05-.12 1.37-.35.32-.23.48-.57.48-1.02 0-.25-.07-.47-.2-.66a2.3 2.3 0 0 0-.63-.58c-.27-.18-.83-.47-1.66-.87a7.94 7.94 0 0 1-1.77-1.06 4 4 0 0 1-.94-1.19 3.38 3.38 0 0 1-.35-1.58c0-1.13.38-2.03 1.15-2.68a4.82 4.82 0 0 1 3.2-.97c.67 0 1.3.07 1.9.23.61.16 1.25.38 1.91.67l-.88 2.12c-.68-.28-1.25-.48-1.7-.59a5.44 5.44 0 0 0-1.32-.17c-.52 0-.91.12-1.19.36-.27.24-.41.56-.41.94 0 .24.06.46.17.64.1.17.28.35.52.52.25.16.83.46 1.74.9a6.84 6.84 0 0 1 2.47 1.72c.44.58.66 1.28.66 2.12Zm6.2-4.54a1.7 1.7 0 0 0-1.34.54c-.33.36-.51.87-.56 1.53h3.76a2.22 2.22 0 0 0-.52-1.53 1.75 1.75 0 0 0-1.35-.54Zm.37 8.28a5.07 5.07 0 0 1-3.71-1.31c-.9-.88-1.34-2.11-1.34-3.71 0-1.65.41-2.92 1.23-3.82a4.4 4.4 0 0 1 3.42-1.35c1.4 0 2.47.4 3.25 1.19a4.5 4.5 0 0 1 1.16 3.27v1.3h-6.34c.03.77.26 1.36.68 1.79.42.43 1.01.64 1.77.64a7.38 7.38 0 0 0 3.33-.77v2.07c-.47.24-.97.4-1.5.52s-1.18.18-1.95.18Zm10.18 0c-3.06 0-4.6-1.68-4.6-5.04 0-1.67.42-2.94 1.26-3.82.83-.89 2.02-1.33 3.57-1.33 1.14 0 2.16.22 3.06.67l-.79 2.07c-.42-.17-.81-.3-1.18-.41a3.71 3.71 0 0 0-1.09-.17c-1.39 0-2.09 1-2.09 2.97 0 1.92.7 2.88 2.1 2.88.51 0 .99-.06 1.43-.2a5.3 5.3 0 0 0 1.32-.65v2.3c-.44.27-.88.46-1.32.57-.44.1-1 .16-1.67.16Zm12.23-.18-.36-1.26h-.14c-.29.46-.7.81-1.22 1.07-.53.24-1.13.37-1.8.37-1.16 0-2.03-.31-2.61-.93-.59-.62-.88-1.5-.88-2.67v-6.4h2.68v5.73c0 .71.12 1.25.38 1.6.25.35.65.53 1.2.53.75 0 1.3-.25 1.63-.75.33-.5.5-1.33.5-2.5v-4.62h2.68V528h-2.06Zm10.36-10.01c.36 0 .66.03.9.08l-.2 2.51a3.06 3.06 0 0 0-.8-.09c-.85 0-1.52.22-2 .66a2.4 2.4 0 0 0-.7 1.85v5h-2.69v-9.83h2.03l.4 1.66h.13c.3-.56.71-1 1.23-1.33a3.05 3.05 0 0 1 1.7-.51Zm2.57-2.36c0-.87.49-1.3 1.46-1.3s1.46.43 1.46 1.3c0 .42-.13.75-.37.98-.24.23-.6.34-1.1.34-.96 0-1.45-.44-1.45-1.32Zm2.8 12.37h-2.69v-9.83h2.69V528Zm6.96-1.96c.46 0 1.03-.1 1.68-.3v1.99c-.66.3-1.48.45-2.46.45-1.07 0-1.85-.27-2.34-.81-.5-.55-.73-1.36-.73-2.45v-4.73h-1.29v-1.14l1.48-.9.77-2.07h1.72v2.1h2.75v2h-2.75v4.74c0 .38.1.67.31.85.22.18.5.27.86.27Zm2.27-7.87h2.94l1.85 5.53c.16.48.27 1.05.33 1.7h.05c.06-.6.2-1.16.38-1.7l1.82-5.53h2.87l-4.16 11.09a4.8 4.8 0 0 1-1.63 2.3c-.7.5-1.53.76-2.47.76-.46 0-.92-.05-1.36-.15v-2.12c.32.07.67.11 1.05.11.48 0 .89-.14 1.24-.44.36-.28.64-.72.84-1.3l.15-.49-3.9-9.76ZM68.98 556.43c0-.9.21-1.6.65-2.07.43-.48 1.06-.72 1.87-.72.8 0 1.42.24 1.86.72.44.48.66 1.17.66 2.07 0 .89-.22 1.58-.67 2.06-.43.49-1.05.73-1.85.73s-1.43-.24-1.87-.73a3 3 0 0 1-.65-2.06Zm25.5 6.57-.93-3.06h-4.68l-.93 3.06H85l4.54-12.9h3.33l4.55 12.9h-2.94Zm-1.58-5.34a2475 2475 0 0 1-1.46-4.7l-.23-.87c-.19.75-.74 2.6-1.66 5.57h3.35Zm14.73 5.34h-2.68v-5.74c0-.7-.12-1.24-.36-1.59-.23-.36-.6-.54-1.12-.54-.68 0-1.18.26-1.49.76-.31.5-.47 1.33-.47 2.49V563h-2.68v-9.83h2.05l.36 1.26h.15c.27-.45.65-.8 1.14-1.05.5-.26 1.07-.4 1.72-.4 1.47 0 2.47.49 2.99 1.45h.23c.27-.46.65-.81 1.16-1.06a3.9 3.9 0 0 1 1.74-.38c1.12 0 1.96.29 2.53.86.57.57.86 1.48.86 2.74V563h-2.7v-5.74c0-.7-.11-1.24-.35-1.59-.24-.36-.6-.54-1.12-.54-.65 0-1.15.24-1.48.7a4.1 4.1 0 0 0-.48 2.24V563Zm15.13 0-.52-1.34h-.07a4 4 0 0 1-1.4 1.2c-.47.2-1.1.32-1.86.32-.94 0-1.69-.27-2.23-.81s-.81-1.3-.81-2.3c0-1.05.36-1.82 1.09-2.3.73-.5 1.83-.78 3.3-.83l1.7-.06v-.43c0-1-.5-1.5-1.52-1.5-.79 0-1.71.25-2.77.72l-.89-1.81a8 8 0 0 1 3.76-.89 4.7 4.7 0 0 1 3.03.86c.7.58 1.06 1.45 1.06 2.62V563h-1.87Zm-.8-4.55-1.03.03c-.78.03-1.36.17-1.74.42-.38.26-.57.65-.57 1.18 0 .76.43 1.14 1.3 1.14.62 0 1.11-.18 1.48-.54.38-.36.57-.83.57-1.42v-.81Zm12.28 4.55h-7.76v-1.58l4.55-6.2h-4.28v-2.05h7.33v1.74l-4.43 6.04h4.59V563Zm4.08-4.93c0 .97.16 1.7.48 2.2.32.5.84.75 1.56.75.72 0 1.23-.24 1.54-.74.32-.5.47-1.23.47-2.21 0-.97-.15-1.7-.47-2.19-.32-.49-.84-.73-1.56-.73-.71 0-1.23.25-1.54.73a4.02 4.02 0 0 0-.48 2.19Zm6.8 0c0 1.6-.43 2.85-1.27 3.75a4.59 4.59 0 0 1-3.52 1.36c-.95 0-1.78-.2-2.5-.62a4.15 4.15 0 0 1-1.66-1.78 5.97 5.97 0 0 1-.58-2.71c0-1.6.42-2.85 1.26-3.75a4.62 4.62 0 0 1 3.53-1.33c.94 0 1.78.2 2.5.61s1.27 1 1.66 1.77c.38.77.58 1.67.58 2.7ZM156.4 563h-2.68v-5.74c0-.7-.12-1.24-.38-1.59-.25-.36-.65-.54-1.2-.54-.75 0-1.3.26-1.63.76a4.7 4.7 0 0 0-.5 2.49V563h-2.68v-9.83h2.05l.36 1.26h.15c.3-.47.7-.83 1.23-1.07a4.2 4.2 0 0 1 1.8-.37c1.14 0 2 .31 2.6.93.59.62.88 1.5.88 2.67V563Zm20.16 0h-3.1l-1.74-6.75a34.1 34.1 0 0 1-.6-3 33.74 33.74 0 0 1-.59 3.02L168.8 563h-3.09l-3.28-12.85h2.68l1.65 7.01c.28 1.3.5 2.42.62 3.37a24.81 24.81 0 0 1 .6-3.18l1.87-7.2h2.58l1.87 7.2a35.9 35.9 0 0 1 .59 3.18 29.16 29.16 0 0 1 .63-3.37l1.63-7.01h2.68L176.56 563Zm8.75-8.1a1.7 1.7 0 0 0-1.34.54c-.32.36-.5.87-.55 1.53h3.76a2.22 2.22 0 0 0-.52-1.53 1.75 1.75 0 0 0-1.35-.54Zm.38 8.28a5.07 5.07 0 0 1-3.71-1.31c-.9-.88-1.34-2.11-1.34-3.71 0-1.65.41-2.92 1.23-3.82a4.4 4.4 0 0 1 3.42-1.35c1.4 0 2.47.4 3.25 1.19a4.49 4.49 0 0 1 1.16 3.27v1.3h-6.34c.03.77.25 1.36.67 1.79a2.4 2.4 0 0 0 1.78.64 7.37 7.37 0 0 0 3.33-.77v2.07c-.47.24-.97.4-1.5.52s-1.18.18-1.95.18Zm11.65-10.2a3.2 3.2 0 0 1 2.73 1.37c.65.9.98 2.14.98 3.72 0 1.62-.34 2.88-1.02 3.77a3.28 3.28 0 0 1-2.76 1.34 3.26 3.26 0 0 1-2.71-1.26h-.19l-.45 1.08h-2.04v-13.68h2.68v3.19c0 .4-.04 1.05-.11 1.94h.1a3.1 3.1 0 0 1 2.8-1.46Zm-.86 2.15c-.66 0-1.14.2-1.45.62-.3.4-.46 1.07-.47 2.01v.3c0 1.05.15 1.8.46 2.26.32.46.82.68 1.5.68.55 0 .98-.25 1.3-.75.33-.51.5-1.25.5-2.22 0-.96-.17-1.69-.5-2.17a1.54 1.54 0 0 0-1.34-.73Zm19.26 4.3a3.3 3.3 0 0 1-1.26 2.74c-.83.67-2 1-3.48 1a8.18 8.18 0 0 1-3.64-.77v-2.53c.87.39 1.6.66 2.2.82.6.16 1.15.24 1.65.24.6 0 1.06-.12 1.37-.35.32-.23.48-.57.48-1.02 0-.25-.06-.47-.2-.66-.15-.2-.35-.4-.63-.58-.27-.18-.82-.47-1.66-.87a7.9 7.9 0 0 1-1.77-1.06 4 4 0 0 1-.94-1.19 3.39 3.39 0 0 1-.35-1.58c0-1.13.39-2.03 1.15-2.68a4.82 4.82 0 0 1 3.2-.97c.67 0 1.3.07 1.9.23.62.16 1.25.38 1.92.67l-.88 2.12c-.69-.28-1.26-.48-1.7-.59a5.44 5.44 0 0 0-1.33-.17c-.51 0-.9.12-1.18.36-.28.24-.42.56-.42.94 0 .24.06.46.17.64.11.17.29.35.53.52.24.16.82.46 1.73.9a6.83 6.83 0 0 1 2.47 1.72c.44.58.67 1.28.67 2.12Zm6.19-4.53a1.7 1.7 0 0 0-1.34.54c-.32.36-.5.87-.56 1.53h3.77a2.22 2.22 0 0 0-.52-1.53 1.75 1.75 0 0 0-1.35-.54Zm.37 8.28a5.07 5.07 0 0 1-3.7-1.31c-.9-.88-1.34-2.11-1.34-3.71 0-1.65.4-2.92 1.23-3.82a4.4 4.4 0 0 1 3.42-1.35c1.39 0 2.47.4 3.24 1.19a4.49 4.49 0 0 1 1.16 3.27v1.3h-6.34c.03.77.26 1.36.68 1.79.42.43 1.01.64 1.78.64a7.36 7.36 0 0 0 3.33-.77v2.07c-.47.24-.97.4-1.5.52-.54.12-1.19.18-1.96.18Zm11.67-10.2c.37 0 .67.04.91.09l-.2 2.51a3.06 3.06 0 0 0-.8-.09c-.85 0-1.52.22-2 .66a2.4 2.4 0 0 0-.7 1.85v5h-2.69v-9.83h2.03l.4 1.66h.13c.3-.56.71-1 1.23-1.33a3.05 3.05 0 0 1 1.7-.51ZM239 563l-3.74-9.83h2.8l1.9 5.6c.21.71.34 1.38.4 2.01h.05c.03-.56.16-1.23.4-2l1.88-5.6h2.8l-3.74 9.82H239Zm7.8-12.37c0-.87.48-1.3 1.46-1.3.97 0 1.46.43 1.46 1.3 0 .42-.13.75-.37.98-.24.23-.6.34-1.1.34-.97 0-1.45-.44-1.45-1.32Zm2.8 12.37h-2.69v-9.83h2.68V563Zm6.8.18c-3.05 0-4.58-1.68-4.58-5.04 0-1.67.41-2.94 1.24-3.82.84-.89 2.03-1.33 3.58-1.33 1.14 0 2.16.22 3.06.67l-.8 2.07c-.41-.17-.8-.3-1.17-.41a3.7 3.7 0 0 0-1.09-.17c-1.4 0-2.09 1-2.09 2.97 0 1.92.7 2.88 2.1 2.88a4.64 4.64 0 0 0 2.74-.85v2.3c-.43.27-.87.46-1.32.57-.44.1-1 .16-1.67.16Zm9.35-8.28a1.7 1.7 0 0 0-1.34.54c-.32.36-.5.87-.55 1.53h3.76a2.22 2.22 0 0 0-.52-1.53 1.75 1.75 0 0 0-1.35-.54Zm.38 8.28a5.07 5.07 0 0 1-3.71-1.31c-.9-.88-1.34-2.11-1.34-3.71 0-1.65.41-2.92 1.23-3.82a4.4 4.4 0 0 1 3.42-1.35c1.39 0 2.47.4 3.24 1.19a4.5 4.5 0 0 1 1.16 3.27v1.3h-6.33c.02.77.25 1.36.67 1.79.42.43 1.02.64 1.78.64a7.38 7.38 0 0 0 3.33-.77v2.07c-.47.24-.97.4-1.5.52-.54.12-1.19.18-1.95.18Zm13.04-3.1c0 1.01-.35 1.78-1.06 2.3-.7.53-1.74.8-3.13.8a9.5 9.5 0 0 1-1.83-.15 7.1 7.1 0 0 1-1.42-.43v-2.21a9.47 9.47 0 0 0 3.33.83c.98 0 1.46-.29 1.46-.85a.69.69 0 0 0-.2-.5 2.65 2.65 0 0 0-.66-.46c-.31-.17-.74-.36-1.26-.58a8.03 8.03 0 0 1-1.67-.88 2.53 2.53 0 0 1-.78-.93 3.14 3.14 0 0 1-.24-1.29c0-.87.34-1.55 1.02-2.02a4.94 4.94 0 0 1 2.88-.72c1.18 0 2.33.26 3.45.77l-.8 1.94c-.5-.22-.96-.39-1.39-.52a4.1 4.1 0 0 0-1.3-.2c-.8 0-1.2.2-1.2.64 0 .24.13.45.39.62.25.18.81.44 1.68.78.76.31 1.32.6 1.68.87.36.27.62.58.8.94a3 3 0 0 1 .25 1.25Zm-210.2 21.35c0-.9.22-1.6.66-2.07.43-.48 1.06-.72 1.87-.72.8 0 1.42.24 1.86.72.44.48.66 1.17.66 2.07 0 .89-.22 1.58-.67 2.06-.43.49-1.05.73-1.85.73s-1.43-.24-1.87-.73a3 3 0 0 1-.65-2.06Zm23.1 6.57-3.1-10.08h-.08c.12 2.05.17 3.42.17 4.1V588h-2.43v-12.85h3.7l3.05 9.83h.05l3.23-9.83h3.7V588h-2.54v-6.08a65.08 65.08 0 0 1 .14-3.98h-.08L94.55 588h-2.5Zm11.21-12.37c0-.87.49-1.3 1.46-1.3s1.46.43 1.46 1.3c0 .42-.12.75-.37.98-.24.23-.6.34-1.09.34-.97 0-1.46-.44-1.46-1.32Zm2.8 12.37h-2.68v-9.83h2.68V588Zm6.8.18c-3.05 0-4.58-1.68-4.58-5.04 0-1.67.42-2.94 1.25-3.82.83-.89 2.02-1.33 3.58-1.33 1.13 0 2.15.22 3.05.67l-.79 2.07c-.42-.17-.81-.3-1.17-.41a3.71 3.71 0 0 0-1.1-.17c-1.39 0-2.09 1-2.09 2.97 0 1.92.7 2.88 2.1 2.88.51 0 .99-.06 1.43-.2a5.3 5.3 0 0 0 1.32-.65v2.3a4.3 4.3 0 0 1-1.32.57c-.44.1-1 .16-1.67.16Zm10.77-10.2c.36 0 .66.04.9.09l-.2 2.51a3.06 3.06 0 0 0-.8-.09c-.85 0-1.52.22-2 .66a2.4 2.4 0 0 0-.7 1.85v5h-2.69v-9.83h2.03l.4 1.66h.13c.3-.56.72-1 1.23-1.33a3.05 3.05 0 0 1 1.7-.51Zm4.82 5.09c0 .97.16 1.7.48 2.2.32.5.84.75 1.56.75.72 0 1.23-.24 1.54-.74.31-.5.47-1.23.47-2.21 0-.97-.16-1.7-.47-2.19-.32-.49-.84-.73-1.56-.73-.71 0-1.23.25-1.54.73a4.02 4.02 0 0 0-.48 2.19Zm6.8 0c0 1.6-.43 2.85-1.27 3.75a4.59 4.59 0 0 1-3.52 1.36c-.95 0-1.78-.2-2.5-.62a4.14 4.14 0 0 1-1.66-1.78 5.97 5.97 0 0 1-.58-2.71c0-1.6.42-2.85 1.25-3.75a4.62 4.62 0 0 1 3.54-1.33 5 5 0 0 1 2.5.61c.72.41 1.27 1 1.66 1.77.38.77.58 1.67.58 2.7Zm9.07 2.01a2.7 2.7 0 0 1-1.06 2.3c-.7.53-1.74.8-3.14.8-.71 0-1.32-.05-1.82-.15a7.1 7.1 0 0 1-1.42-.43v-2.21a9.46 9.46 0 0 0 3.33.83c.97 0 1.46-.29 1.46-.85a.69.69 0 0 0-.2-.5 2.65 2.65 0 0 0-.66-.46c-.32-.17-.74-.36-1.27-.58a8.03 8.03 0 0 1-1.67-.88 2.53 2.53 0 0 1-.77-.93 3.14 3.14 0 0 1-.24-1.29c0-.87.34-1.55 1.01-2.02a4.94 4.94 0 0 1 2.89-.72c1.18 0 2.33.26 3.45.77l-.8 1.94c-.5-.22-.96-.39-1.39-.52-.43-.14-.86-.2-1.3-.2-.8 0-1.2.2-1.2.64 0 .24.13.45.38.62a10 10 0 0 0 1.68.78c.77.31 1.33.6 1.69.87.36.27.62.58.8.94a3 3 0 0 1 .25 1.25Zm4.22-2.01c0 .97.16 1.7.48 2.2.32.5.84.75 1.56.75.72 0 1.23-.24 1.54-.74.32-.5.47-1.23.47-2.21 0-.97-.15-1.7-.47-2.19-.32-.49-.83-.73-1.56-.73-.71 0-1.22.25-1.54.73a4.03 4.03 0 0 0-.48 2.19Zm6.8 0c0 1.6-.42 2.85-1.27 3.75a4.59 4.59 0 0 1-3.52 1.36c-.95 0-1.78-.2-2.5-.62a4.15 4.15 0 0 1-1.66-1.78 5.99 5.99 0 0 1-.58-2.71c0-1.6.42-2.85 1.26-3.75a4.62 4.62 0 0 1 3.53-1.33c.94 0 1.78.2 2.5.61s1.27 1 1.66 1.77c.38.77.58 1.67.58 2.7Zm7.64-2.88h-2.32V588H158v-7.81h-1.47v-1.3l1.47-.72v-.72c0-1.12.28-1.93.83-2.45.55-.51 1.43-.77 2.65-.77.92 0 1.74.13 2.47.41l-.7 1.97a5 5 0 0 0-1.49-.26c-.38 0-.65.12-.82.35-.17.22-.26.5-.26.86v.61H163v2.02Zm5.7 5.85c.46 0 1.02-.1 1.68-.3v1.99a6 6 0 0 1-2.46.45c-1.07 0-1.86-.27-2.35-.81-.49-.55-.73-1.36-.73-2.45v-4.73h-1.28v-1.14l1.47-.9.78-2.07h1.71v2.1h2.75v2h-2.75v4.74c0 .38.1.67.32.85.21.18.5.27.85.27Zm16.43 1.96-.94-3.06h-4.68l-.93 3.06h-2.94l4.54-12.9h3.33l4.55 12.9h-2.93Zm-1.59-5.34-1.46-4.7c-.1-.37-.18-.66-.22-.87-.2.75-.75 2.6-1.66 5.57h3.34Zm12.78 5.34h-7.77v-1.58l4.56-6.2h-4.28v-2.05h7.33v1.74l-4.43 6.04h4.59V588Zm8.9 0-.35-1.26h-.14a3 3 0 0 1-1.23 1.07c-.52.24-1.12.37-1.8.37-1.15 0-2.02-.31-2.6-.93-.6-.62-.89-1.5-.89-2.67v-6.4h2.68v5.73c0 .71.13 1.25.38 1.6.25.35.66.53 1.2.53.76 0 1.3-.25 1.63-.75.34-.5.5-1.33.5-2.5v-4.62h2.68V588h-2.05Zm10.36-10.01c.36 0 .67.03.9.08l-.2 2.51a3.05 3.05 0 0 0-.79-.09c-.85 0-1.52.22-2 .66a2.4 2.4 0 0 0-.71 1.85v5h-2.68v-9.83h2.03l.4 1.66h.12c.3-.56.72-1 1.23-1.33a3.05 3.05 0 0 1 1.7-.51Zm6.76 1.9a1.7 1.7 0 0 0-1.34.55c-.32.36-.5.87-.55 1.53h3.76a2.22 2.22 0 0 0-.52-1.53 1.75 1.75 0 0 0-1.35-.54Zm.38 8.29a5.07 5.07 0 0 1-3.71-1.31c-.9-.88-1.34-2.11-1.34-3.71 0-1.65.41-2.92 1.23-3.82a4.4 4.4 0 0 1 3.42-1.35c1.39 0 2.47.4 3.25 1.19a4.5 4.5 0 0 1 1.16 3.27v1.3h-6.34c.03.77.25 1.36.68 1.79.42.43 1 .64 1.77.64a7.38 7.38 0 0 0 3.33-.77v2.07c-.47.24-.97.4-1.5.52s-1.19.18-1.95.18ZM68.98 606.43c0-.9.21-1.6.65-2.07.43-.48 1.06-.72 1.87-.72.8 0 1.42.24 1.86.72.44.48.66 1.17.66 2.07 0 .89-.22 1.58-.67 2.06-.43.49-1.05.73-1.85.73s-1.43-.24-1.87-.73a3 3 0 0 1-.65-2.06Zm22.52-.65h5.1v6.67a14.02 14.02 0 0 1-4.58.73c-1.94 0-3.42-.57-4.44-1.7-1.02-1.15-1.53-2.79-1.53-4.92 0-2.08.59-3.7 1.77-4.85 1.2-1.16 2.84-1.74 4.94-1.74 1.32 0 2.6.26 3.82.79l-.91 2.18a6.46 6.46 0 0 0-2.93-.7c-1.17 0-2.12.39-2.83 1.18a4.6 4.6 0 0 0-1.06 3.19c0 1.4.28 2.46.85 3.2a3 3 0 0 0 2.5 1.1c.57 0 1.14-.06 1.73-.18v-2.68H91.5v-2.27Zm10.08 2.29c0 .97.16 1.7.48 2.2.32.5.84.75 1.56.75.72 0 1.23-.24 1.54-.74.32-.5.48-1.23.48-2.21 0-.97-.16-1.7-.48-2.19-.31-.49-.83-.73-1.55-.73-.72 0-1.23.25-1.55.73a4.02 4.02 0 0 0-.48 2.19Zm6.8 0c0 1.6-.42 2.85-1.27 3.75a4.58 4.58 0 0 1-3.52 1.36c-.94 0-1.78-.2-2.5-.62a4.15 4.15 0 0 1-1.66-1.78 5.98 5.98 0 0 1-.58-2.71c0-1.6.42-2.85 1.26-3.75a4.62 4.62 0 0 1 3.53-1.33c.94 0 1.78.2 2.5.61s1.27 1 1.66 1.77c.39.77.58 1.67.58 2.7Zm4.35 0c0 .97.16 1.7.47 2.2.33.5.85.75 1.57.75.71 0 1.23-.24 1.54-.74.31-.5.47-1.23.47-2.21 0-.97-.16-1.7-.47-2.19-.32-.49-.84-.73-1.56-.73-.71 0-1.23.25-1.55.73a4.03 4.03 0 0 0-.47 2.19Zm6.8 0c0 1.6-.43 2.85-1.27 3.75a4.59 4.59 0 0 1-3.53 1.36 4.9 4.9 0 0 1-2.5-.62 4.15 4.15 0 0 1-1.65-1.78 5.97 5.97 0 0 1-.58-2.71c0-1.6.42-2.85 1.25-3.75a4.62 4.62 0 0 1 3.54-1.33 5 5 0 0 1 2.5.61c.71.41 1.27 1 1.65 1.77.39.77.58 1.67.58 2.7Zm10.76-4.9v1.37l-1.54.4c.28.43.42.92.42 1.47 0 1.05-.36 1.88-1.1 2.47-.74.58-1.76.88-3.06.88l-.49-.03-.4-.04c-.27.2-.4.44-.4.7 0 .39.49.58 1.47.58h1.67c1.08 0 1.9.23 2.46.7.57.46.86 1.14.86 2.03 0 1.15-.49 2.04-1.45 2.67-.95.64-2.32.95-4.12.95a5.71 5.71 0 0 1-3.14-.72 2.27 2.27 0 0 1-1.08-2c0-.6.18-1.09.55-1.49.37-.4.91-.68 1.62-.85a1.8 1.8 0 0 1-.72-.57 1.4 1.4 0 0 1-.3-.85c0-.38.1-.69.32-.93.22-.26.53-.5.94-.74a2.67 2.67 0 0 1-1.23-1.07c-.3-.5-.45-1.08-.45-1.75 0-1.07.35-1.9 1.05-2.48.7-.59 1.7-.88 2.99-.88a9.83 9.83 0 0 1 1.7.18h3.43Zm-7.58 11.22c0 .37.17.66.52.87.36.21.86.32 1.5.32.96 0 1.71-.14 2.25-.4.55-.26.82-.62.82-1.08 0-.37-.16-.63-.48-.77a3.95 3.95 0 0 0-1.5-.2h-1.38c-.5 0-.9.1-1.24.34-.33.23-.5.54-.5.92Zm.97-8c0 .53.12.96.36 1.27.25.3.62.46 1.12.46.5 0 .87-.15 1.1-.46.24-.31.36-.74.36-1.27 0-1.18-.49-1.77-1.46-1.77-.99 0-1.48.59-1.48 1.77ZM134.6 613h-2.68v-13.68h2.68V613Zm6.89-8.1a1.7 1.7 0 0 0-1.34.54c-.32.36-.5.87-.55 1.53h3.76a2.22 2.22 0 0 0-.52-1.53 1.75 1.75 0 0 0-1.35-.54Zm.38 8.28a5.07 5.07 0 0 1-3.71-1.31c-.9-.88-1.34-2.11-1.34-3.71 0-1.65.41-2.92 1.23-3.82a4.4 4.4 0 0 1 3.42-1.35c1.39 0 2.47.4 3.24 1.19a4.5 4.5 0 0 1 1.16 3.27v1.3h-6.33c.03.77.25 1.36.67 1.79.42.43 1.02.64 1.78.64a7.37 7.37 0 0 0 3.33-.77v2.07c-.47.24-.97.4-1.5.52-.54.12-1.19.18-1.95.18Zm16.53-10.95c-1.03 0-1.82.39-2.38 1.16a5.35 5.35 0 0 0-.85 3.22c0 2.87 1.08 4.3 3.23 4.3.9 0 2-.23 3.28-.68v2.29a9.12 9.12 0 0 1-3.54.66c-1.87 0-3.3-.57-4.29-1.7-.99-1.14-1.48-2.77-1.48-4.89 0-1.33.24-2.5.73-3.5a5.24 5.24 0 0 1 2.09-2.32 6.2 6.2 0 0 1 3.2-.8c1.26 0 2.5.3 3.77.9l-.88 2.22c-.48-.23-.96-.43-1.45-.6a4.32 4.32 0 0 0-1.43-.26Zm8.49 10.77h-2.68v-13.68h2.68V613Zm4.96-4.93c0 .97.15 1.7.47 2.2.32.5.84.75 1.56.75.72 0 1.23-.24 1.54-.74.32-.5.48-1.23.48-2.21 0-.97-.16-1.7-.48-2.19-.31-.49-.83-.73-1.55-.73-.72 0-1.23.25-1.55.73a4.03 4.03 0 0 0-.47 2.19Zm6.79 0c0 1.6-.42 2.85-1.27 3.75a4.59 4.59 0 0 1-3.52 1.36c-.94 0-1.78-.2-2.5-.62a4.15 4.15 0 0 1-1.66-1.78 5.99 5.99 0 0 1-.58-2.71c0-1.6.42-2.85 1.26-3.75a4.62 4.62 0 0 1 3.53-1.33c.94 0 1.78.2 2.5.61s1.27 1 1.66 1.77c.38.77.58 1.67.58 2.7Zm9.17 4.93-.36-1.26h-.14c-.28.46-.7.81-1.22 1.07-.53.24-1.13.37-1.8.37-1.15 0-2.02-.31-2.61-.93-.59-.62-.88-1.5-.88-2.67v-6.4h2.68v5.73c0 .71.13 1.25.38 1.6.25.35.65.53 1.2.53.75 0 1.3-.25 1.63-.75.33-.5.5-1.33.5-2.5v-4.62h2.68V613h-2.06Zm7.98.18a3.2 3.2 0 0 1-2.72-1.35 6.2 6.2 0 0 1-.98-3.73c0-1.6.33-2.86 1-3.76.67-.9 1.6-1.35 2.78-1.35a3.2 3.2 0 0 1 2.82 1.44h.1c-.14-.73-.2-1.38-.2-1.96v-3.15h2.68V613h-2.06l-.52-1.27h-.1a3.07 3.07 0 0 1-2.8 1.45Zm.95-2.14c.68 0 1.18-.2 1.5-.6.32-.4.5-1.07.53-2.03v-.29c0-1.05-.17-1.8-.5-2.27-.32-.45-.85-.68-1.58-.68-.6 0-1.06.25-1.4.76-.32.5-.49 1.24-.49 2.21s.17 1.7.5 2.18c.34.48.81.72 1.44.72Zm14.95-4.84h.9c.83 0 1.46-.17 1.87-.5.42-.33.63-.81.63-1.45 0-.63-.18-1.1-.53-1.41-.35-.3-.9-.46-1.63-.46h-1.24v3.82Zm6.15-2.04c0 1.38-.44 2.44-1.3 3.17-.86.73-2.1 1.1-3.69 1.1h-1.16V613h-2.73v-12.85h4.1c1.56 0 2.75.34 3.56 1.01.81.67 1.22 1.67 1.22 3Zm4.9 8.84h-2.69v-13.68h2.68V613Zm9.05 0-.51-1.34h-.07a4 4 0 0 1-1.4 1.2c-.48.2-1.1.32-1.87.32-.94 0-1.68-.27-2.23-.81-.54-.54-.8-1.3-.8-2.3 0-1.05.36-1.82 1.08-2.3.74-.5 1.84-.78 3.3-.83l1.71-.06v-.43c0-1-.5-1.5-1.53-1.5-.78 0-1.7.25-2.76.72l-.9-1.81a8 8 0 0 1 3.77-.89 4.7 4.7 0 0 1 3.03.86c.7.58 1.06 1.45 1.06 2.62V613h-1.88Zm-.79-4.55-1.03.03c-.78.03-1.36.17-1.74.42-.38.26-.57.65-.57 1.18 0 .76.43 1.14 1.3 1.14.62 0 1.11-.18 1.48-.54.38-.36.56-.83.56-1.42v-.81Zm9.57 2.59c.47 0 1.04-.1 1.7-.3v1.99c-.68.3-1.5.45-2.47.45-1.07 0-1.85-.27-2.34-.81-.5-.55-.73-1.36-.73-2.45v-4.73h-1.29v-1.14l1.48-.9.77-2.07h1.72v2.1h2.75v2h-2.75v4.74c0 .38.1.67.31.85.22.18.5.27.85.27Zm9.12-5.85h-2.32V613h-2.68v-7.81h-1.48v-1.3l1.48-.72v-.72c0-1.12.27-1.93.82-2.45.56-.51 1.44-.77 2.65-.77.93 0 1.75.13 2.47.41l-.69 1.97a5 5 0 0 0-1.49-.26c-.38 0-.66.12-.83.35-.17.22-.25.5-.25.86v.61h2.32v2.02Zm3.68 2.88c0 .97.16 1.7.48 2.2.32.5.84.75 1.56.75.72 0 1.23-.24 1.54-.74.32-.5.47-1.23.47-2.21 0-.97-.15-1.7-.47-2.19-.32-.49-.84-.73-1.56-.73-.71 0-1.23.25-1.54.73a4.02 4.02 0 0 0-.48 2.19Zm6.8 0c0 1.6-.43 2.85-1.27 3.75a4.58 4.58 0 0 1-3.52 1.36c-.95 0-1.78-.2-2.5-.62a4.14 4.14 0 0 1-1.66-1.78 5.97 5.97 0 0 1-.58-2.71c0-1.6.42-2.85 1.26-3.75a4.62 4.62 0 0 1 3.53-1.33 5 5 0 0 1 2.5.61c.72.41 1.27 1 1.66 1.77.38.77.58 1.67.58 2.7Zm7.7-5.08c.36 0 .66.03.9.08l-.2 2.51a3.05 3.05 0 0 0-.8-.09c-.85 0-1.52.22-2 .66a2.4 2.4 0 0 0-.7 1.85v5h-2.69v-9.83h2.03l.4 1.66h.13c.3-.56.71-1 1.23-1.33a3.04 3.04 0 0 1 1.7-.51ZM279.35 613h-2.68v-5.74c0-.7-.12-1.24-.36-1.59-.23-.36-.6-.54-1.12-.54-.68 0-1.18.26-1.49.76-.3.5-.46 1.33-.46 2.49V613h-2.69v-9.83h2.05l.36 1.26h.15c.27-.45.65-.8 1.14-1.05.5-.26 1.07-.4 1.72-.4 1.47 0 2.47.49 2.99 1.45h.23c.27-.46.66-.81 1.16-1.06.52-.25 1.1-.38 1.75-.38 1.1 0 1.95.29 2.52.86.57.57.86 1.48.86 2.74V613h-2.7v-5.74c0-.7-.11-1.24-.35-1.59-.24-.36-.6-.54-1.12-.54-.65 0-1.15.24-1.47.7-.33.48-.49 1.22-.49 2.24V613ZM223.5 136.84h-12.58v-5.06h12.13v-3.93h-12.13v-5.15h12.58v-4.1h-16.77V141h16.77v-4.16Zm17.37 4.16v-8.45c0-2.08 1.31-3.9 3.42-3.9 2.12 0 2.98 1.76 2.98 3.84V141h3.9v-8.51c0-4.74-2.2-7.49-6.68-7.49a5.7 5.7 0 0 0-5.28 2.88c-.9-2.18-2.79-2.94-4.68-2.94-1.5 0-3.32.57-4.16 2.17l-.28-1.92h-3.62V141h3.9v-8.45c0-2.08 1.25-3.97 3.37-3.97 2.14 0 3.23 1.9 3.23 3.97V141h3.9Zm26.67-13.6c-.9-1.57-2.9-2.56-5.02-2.56-4.6-.03-8.22 2.82-8.22 8.26 0 5.53 3.45 8.41 8.12 8.38 1.76-.03 4.23-.93 5.12-2.78l.2 2.3h3.68v-15.78h-3.75l-.13 2.18Zm-4.67.93c6.14 0 6.14 9.57 0 9.57-2.6 0-4.67-1.8-4.67-4.8 0-3.01 2.08-4.77 4.67-4.77Zm15.75-3.17V141h-3.9v-15.84h3.9Zm-4.25-4.38c0 3.04 4.6 3.04 4.6 0s-4.6-3.04-4.6 0Zm7.79-2.15V141h3.87v-22.37h-3.87Zm26.13 8.77c-.9-1.57-2.9-2.56-5.02-2.56-4.6-.03-8.22 2.82-8.22 8.26 0 5.53 3.45 8.41 8.12 8.38 1.76-.03 4.23-.93 5.12-2.78l.2 2.3h3.68v-15.78h-3.75l-.13 2.18Zm-4.67.93c6.14 0 6.14 9.57 0 9.57-2.6 0-4.67-1.8-4.67-4.8 0-3.01 2.08-4.77 4.67-4.77ZM331 141v-8.29c0-4.96-2.98-7.74-6.69-7.74-1.98 0-3.58.8-5.18 2.37l-.26-2.15h-3.49V141h3.88v-8.06c0-2.4 1.63-4.42 4.03-4.42 2.5 0 3.8 1.82 3.8 4.22V141H331Zm11-12.51a4.5 4.5 0 0 1 4.58 4.6 4.47 4.47 0 0 1-4.58 4.65 4.43 4.43 0 0 1-4.48-4.64c0-2.85 1.99-4.61 4.48-4.61Zm4.84-9.86v8.74c-.93-1.63-3.52-2.53-5.19-2.53-4.6 0-8.03 2.82-8.03 8.26 0 5.18 3.49 8.25 8.13 8.25 1.92 0 3.87-.64 5.09-2.53l.25 2.18h3.65v-22.37h-3.9Zm-123.17 48.64a8.25 8.25 0 0 1-5.64 2.27c-5.53 0-7.68-3.87-7.7-7.58-.04-3.74 2.3-7.78 7.7-7.78a7.7 7.7 0 0 1 5.41 2.12l2.82-2.72a11.56 11.56 0 0 0-8.23-3.43c-8.1 0-11.9 5.95-11.87 11.81.03 5.82 3.55 11.55 11.87 11.55 3.23 0 6.21-1.05 8.51-3.33l-2.88-2.9Zm4.66-16.64V173h3.87v-22.37h-3.88Zm14.7 6.27c-5.02 0-8.16 3.72-8.16 8.23 0 4.54 3.07 8.22 8.2 8.22 5.11 0 8.22-3.68 8.22-8.22 0-4.51-3.24-8.23-8.26-8.23Zm.03 3.56c2.63 0 4.29 2.3 4.29 4.67 0 2.4-1.44 4.64-4.29 4.64s-4.29-2.24-4.29-4.64c0-2.37 1.48-4.67 4.3-4.67Zm11.02-3.24v8.3c0 4.89 2.75 7.74 6.53 7.74 2.2 0 3.7-.77 5.34-2.37l.25 2.14h3.5v-15.8h-3.88v8.06c0 2.4-1.63 4.41-4.03 4.41-2.5 0-3.8-1.82-3.8-4.22v-8.26h-3.91Zm26.7 3.27a4.5 4.5 0 0 1 4.58 4.6 4.47 4.47 0 0 1-4.57 4.65 4.43 4.43 0 0 1-4.48-4.64c0-2.85 1.98-4.61 4.48-4.61Zm4.84-9.86v8.74c-.93-1.63-3.52-2.53-5.19-2.53-4.6 0-8.03 2.82-8.03 8.26 0 5.18 3.49 8.25 8.13 8.25 1.92 0 3.87-.64 5.09-2.53l.25 2.18h3.65v-22.37h-3.9Zm31.24 3.65c-1.7-3.46-5.31-4.45-8.8-4.45-4.13.03-8.67 1.92-8.67 6.53 0 5.02 4.22 6.24 8.8 6.78 2.97.32 5.18 1.19 5.18 3.3 0 2.43-2.5 3.36-5.15 3.36-2.72 0-5.31-1.09-6.3-3.55l-3.52 1.82c1.66 4.1 5.18 5.5 9.76 5.5 4.99 0 9.4-2.14 9.4-7.13 0-5.34-4.35-6.56-9.02-7.14-2.69-.32-5-.86-5-2.81 0-1.67 1.51-2.98 4.65-2.98 2.43 0 4.54 1.22 5.31 2.5l3.36-1.73Zm20.36 12.22c.61-6.5-2.69-9.76-7.96-9.76-5.13 0-8.39 3.46-8.39 8.26 0 5.06 3.23 8.42 8.67 8.42 2.4 0 5.12-.84 6.79-2.56l-2.5-2.47c-.9.93-2.78 1.47-4.22 1.47-2.75 0-4.45-1.4-4.7-3.36h12.31Zm-12.25-3.23c.57-2.05 2.3-3.07 4.41-3.07 2.24 0 3.84 1.02 4.1 3.07h-8.51Zm26.17 5.15a4.74 4.74 0 0 1-3.45 1.32c-2.44 0-4.48-1.6-4.48-4.61 0-2.75 1.92-4.67 4.54-4.67a4.8 4.8 0 0 1 3.17 1.24l2.46-2.59a7.5 7.5 0 0 0-5.7-2.33c-4.57 0-8.38 2.75-8.38 8.35s3.81 8.35 8.39 8.35a8.1 8.1 0 0 0 6.08-2.5l-2.63-2.56Zm4.44-11.2v8.3c0 4.89 2.75 7.74 6.53 7.74 2.2 0 3.7-.77 5.34-2.37l.25 2.14h3.5v-15.8h-3.88v8.06c0 2.4-1.63 4.41-4.03 4.41-2.5 0-3.8-1.82-3.8-4.22v-8.26h-3.91Zm19.06 0V173h3.9v-8.32c0-2.91 1.89-4 3.94-4a3.9 3.9 0 0 1 2.81 1.02l1.76-3.39a5.99 5.99 0 0 0-4.06-1.5c-1.6 0-3.23.29-4.45 2.24l-.29-1.83h-3.61Zm17.78-.06V173h-3.9v-15.84h3.9Zm-4.26-4.38c0 3.04 4.6 3.04 4.6 0s-4.6-3.04-4.6 0Zm9.39.41v4.07h-2.94v3.36h2.94v6.81c0 3.94 2.24 5.89 5.66 5.76a8.72 8.72 0 0 0 3.24-.67l-1.1-3.33c-.57.29-1.27.48-1.88.48-1.22 0-2.05-.73-2.05-2.24v-6.81h4.39v-3.36h-4.36v-4.48l-3.9.41Zm23.1 4.03-2.87 6.92-1.63 4.35-1.5-4.45-2.4-6.82h-4.55l6.3 15.52-2.94 6.85h4.29l9.63-22.37h-4.32Z"/><path stroke="#fff" d="M155.13 169.8c-3.26 2.75-7.85 3.7-13.46 2.95-5.61-.75-12.18-3.18-19.28-7.08-14.2-7.81-30.48-21.49-45.42-39.17-14.95-17.7-25.71-36.02-31.04-51.33-2.67-7.65-3.97-14.53-3.77-20.19.2-5.65 1.9-10.03 5.16-12.78 3.25-2.75 7.85-3.7 13.46-2.95 5.6.75 12.17 3.18 19.28 7.08 14.2 7.82 30.47 21.49 45.42 39.17 14.95 17.7 25.7 36.02 31.04 51.33 2.66 7.66 3.96 14.53 3.76 20.19-.2 5.65-1.9 10.03-5.15 12.78Z"/><path stroke="#fff" d="M160.28 46.94c3.02 3.01 4.34 7.52 4.07 13.17-.28 5.65-2.15 12.4-5.44 19.8-6.6 14.81-18.86 32.17-35.23 48.55-16.38 16.37-33.73 28.63-48.54 35.22-7.41 3.3-14.16 5.17-19.8 5.44-5.66.28-10.16-1.04-13.18-4.06-3.01-3.01-4.33-7.52-4.06-13.17.27-5.65 2.14-12.4 5.44-19.8 6.6-14.81 18.85-32.17 35.23-48.54C95.14 67.17 112.5 54.9 127.3 48.32c7.4-3.3 14.15-5.17 19.8-5.44 5.66-.28 10.16 1.04 13.17 4.06Z"/></svg>