<svg xmlns="http://www.w3.org/2000/svg" fill="none" viewBox="0 0 512 650"><rect width="512" height="650" fill="#2B354E" rx="10"/><path fill="#F2F2F2" d="m73.48 246-.93-3.06h-4.68l-.93 3.06H64l4.54-12.9h3.33l4.55 12.9h-2.94Zm-1.58-5.34a2475 2475 0 0 1-1.46-4.7l-.23-.87c-.19.75-.74 2.6-1.66 5.57h3.35Zm8.27 5.34-3.74-9.83h2.8l1.9 5.6a10 10 0 0 1 .4 2.01h.05c.03-.56.16-1.23.4-2l1.88-5.6h2.8L82.93 246h-2.75Zm14.15 0-.52-1.34h-.07a4 4 0 0 1-1.4 1.2c-.47.2-1.09.32-1.86.32-.94 0-1.68-.27-2.23-.81-.54-.54-.8-1.3-.8-2.3 0-1.05.35-1.82 1.08-2.3a6.3 6.3 0 0 1 3.3-.83l1.71-.06v-.43c0-1-.5-1.5-1.53-1.5-.78 0-1.7.25-2.77.72l-.88-1.81a8 8 0 0 1 3.76-.89 4.7 4.7 0 0 1 3.03.86c.7.58 1.05 1.45 1.05 2.62V246h-1.87Zm-.79-4.55-1.04.03c-.78.03-1.36.17-1.74.42-.38.26-.57.66-.57 1.18 0 .76.44 1.14 1.3 1.14.62 0 1.12-.18 1.49-.54.37-.36.56-.83.56-1.42v-.81Zm5.32-7.82c0-.87.48-1.3 1.46-1.3.97 0 1.46.43 1.46 1.3 0 .42-.13.75-.37.98-.24.23-.6.34-1.1.34-.97 0-1.45-.44-1.45-1.32Zm2.8 12.37h-2.69v-9.83h2.68V246Zm5.5 0h-2.69v-13.68h2.69V246Zm9.06 0-.52-1.34h-.07a4 4 0 0 1-1.4 1.2c-.47.2-1.1.32-1.86.32-.95 0-1.69-.27-2.23-.81s-.81-1.3-.81-2.3c0-1.05.36-1.82 1.09-2.3.73-.5 1.83-.78 3.3-.83l1.7-.06v-.43c0-1-.5-1.5-1.52-1.5-.79 0-1.71.25-2.77.72l-.89-1.81a8 8 0 0 1 3.76-.89 4.7 4.7 0 0 1 3.03.86c.7.58 1.06 1.45 1.06 2.62V246h-1.87Zm-.8-4.55-1.03.03c-.78.03-1.36.17-1.74.42-.38.26-.57.66-.57 1.18 0 .76.43 1.14 1.3 1.14.62 0 1.11-.18 1.48-.54.38-.36.57-.83.57-1.42v-.81Zm10.9-5.46c1.16 0 2.07.45 2.73 1.36.66.9.98 2.14.98 3.72 0 1.62-.34 2.88-1.02 3.77a3.28 3.28 0 0 1-2.76 1.34 3.26 3.26 0 0 1-2.71-1.26h-.19l-.44 1.08h-2.05v-13.68h2.68v3.19c0 .4-.04 1.05-.1 1.94h.1a3.1 3.1 0 0 1 2.78-1.46Zm-.86 2.14c-.66 0-1.14.2-1.45.62-.3.4-.46 1.07-.47 2.01v.3c0 1.05.15 1.8.46 2.26.32.46.82.69 1.5.69.55 0 .99-.26 1.3-.76.34-.51.5-1.25.5-2.22 0-.96-.16-1.69-.5-2.17a1.54 1.54 0 0 0-1.34-.73Zm9.47 7.87h-2.68v-13.68h2.68V246Zm6.89-8.1a1.7 1.7 0 0 0-1.34.54c-.32.36-.5.87-.55 1.53h3.76a2.22 2.22 0 0 0-.52-1.53 1.75 1.75 0 0 0-1.35-.54Zm.38 8.28a5.07 5.07 0 0 1-3.71-1.31c-.9-.88-1.34-2.11-1.34-3.71 0-1.65.41-2.92 1.23-3.82a4.4 4.4 0 0 1 3.42-1.35c1.4 0 2.47.4 3.25 1.19a4.49 4.49 0 0 1 1.16 3.27v1.3h-6.34c.03.77.25 1.36.67 1.79a2.4 2.4 0 0 0 1.78.64 7.37 7.37 0 0 0 3.33-.77v2.07c-.47.24-.97.4-1.5.52s-1.18.18-1.95.18Zm16.26 0a3.26 3.26 0 0 1-2.72-1.26h-.14c.1.82.14 1.3.14 1.42v3.98h-2.68v-14.15h2.18l.38 1.28h.12a3.1 3.1 0 0 1 2.79-1.46c1.16 0 2.07.45 2.72 1.34.66.9.99 2.15.99 3.74 0 1.05-.16 1.96-.47 2.73a3.8 3.8 0 0 1-1.3 1.77c-.58.4-1.25.6-2.01.6Zm-.8-8.05c-.66 0-1.14.2-1.44.62-.3.4-.47 1.07-.48 2.01v.3c0 1.05.16 1.8.47 2.26.31.46.81.69 1.5.69 1.2 0 1.8-1 1.8-2.98 0-.96-.16-1.69-.46-2.17-.29-.48-.75-.73-1.38-.73Zm10.86-.23a1.7 1.7 0 0 0-1.33.54c-.33.36-.51.87-.56 1.53h3.76a2.22 2.22 0 0 0-.52-1.53 1.75 1.75 0 0 0-1.35-.54Zm.38 8.28a5.07 5.07 0 0 1-3.71-1.31c-.9-.88-1.34-2.11-1.34-3.71 0-1.65.41-2.92 1.23-3.82a4.4 4.4 0 0 1 3.42-1.35c1.4 0 2.47.4 3.25 1.19a4.49 4.49 0 0 1 1.16 3.27v1.3h-6.34c.03.77.25 1.36.68 1.79.42.43 1.01.64 1.77.64a7.36 7.36 0 0 0 3.33-.77v2.07c-.47.24-.97.4-1.5.52s-1.18.18-1.95.18Zm11.67-10.2c.36 0 .67.04.9.09l-.2 2.51a3.06 3.06 0 0 0-.79-.09c-.85 0-1.52.22-2 .66a2.4 2.4 0 0 0-.71 1.85v5h-2.68v-9.83h2.03l.4 1.66h.12c.3-.56.72-1 1.23-1.33a3.05 3.05 0 0 1 1.7-.51Zm20.1 10.02h-3.11l-1.74-6.75a34.1 34.1 0 0 1-.6-3 33.74 33.74 0 0 1-.59 3.02L192.9 246h-3.1l-3.27-12.85h2.68l1.64 7.01c.3 1.3.5 2.42.63 3.37a24.81 24.81 0 0 1 .6-3.18l1.87-7.2h2.57l1.88 7.2a37.24 37.24 0 0 1 .59 3.18 29.16 29.16 0 0 1 .63-3.37l1.63-7.01h2.68L200.65 246Zm6.8-4.93c0 .97.16 1.7.48 2.2.32.5.84.75 1.56.75.72 0 1.23-.24 1.54-.74.32-.5.48-1.23.48-2.21 0-.97-.16-1.7-.48-2.19-.31-.48-.83-.73-1.55-.73-.72 0-1.24.25-1.55.73a4.03 4.03 0 0 0-.48 2.19Zm6.8 0c0 1.6-.42 2.85-1.27 3.75a4.59 4.59 0 0 1-3.52 1.36c-.95 0-1.78-.2-2.5-.62a4.14 4.14 0 0 1-1.66-1.78 5.97 5.97 0 0 1-.58-2.71c0-1.6.42-2.85 1.26-3.75a4.62 4.62 0 0 1 3.53-1.33c.94 0 1.78.2 2.5.61s1.27 1 1.66 1.77c.38.77.58 1.67.58 2.7Zm7.7-5.08c.36 0 .66.03.9.08l-.2 2.51a3.05 3.05 0 0 0-.8-.09c-.85 0-1.51.22-2 .66a2.4 2.4 0 0 0-.7 1.85v5h-2.69v-9.83h2.03l.4 1.66h.13c.3-.56.72-1 1.23-1.33a3.04 3.04 0 0 1 1.7-.51Zm5.26 4.67 1.17-1.5 2.75-2.99h3.03l-3.9 4.27 4.13 5.56h-3.1l-2.82-3.98-1.15.92V246h-2.68v-13.68h2.68v6.1l-.14 2.24h.03Zm15.44 2.42c0 1.01-.35 1.78-1.05 2.3-.7.53-1.74.8-3.14.8-.71 0-1.32-.05-1.83-.15-.5-.1-.97-.24-1.41-.43v-2.21a9.46 9.46 0 0 0 3.33.83c.97 0 1.46-.28 1.46-.85a.69.69 0 0 0-.2-.5 2.65 2.65 0 0 0-.66-.46c-.32-.17-.74-.36-1.27-.59a8.03 8.03 0 0 1-1.67-.87 2.53 2.53 0 0 1-.77-.93 3.14 3.14 0 0 1-.24-1.29c0-.87.34-1.54 1.01-2.02a4.94 4.94 0 0 1 2.88-.72c1.19 0 2.34.26 3.46.77l-.81 1.94c-.5-.21-.95-.39-1.38-.52-.43-.14-.86-.2-1.3-.2-.8 0-1.2.2-1.2.64 0 .24.13.44.38.62a10 10 0 0 0 1.68.78c.77.31 1.33.6 1.69.87a2.5 2.5 0 0 1 1.04 2.19Zm6.24.96c.46 0 1.03-.1 1.68-.3v1.99a6 6 0 0 1-2.46.45c-1.07 0-1.85-.27-2.34-.81-.5-.55-.73-1.36-.73-2.45v-4.73h-1.29v-1.14l1.48-.9.77-2.07h1.72v2.1h2.75v2h-2.75v4.74c0 .39.1.67.31.85.22.18.5.27.86.27Zm9.92 1.96-.52-1.34h-.07a4 4 0 0 1-1.4 1.2c-.47.2-1.1.32-1.86.32-.94 0-1.69-.27-2.23-.81s-.81-1.3-.81-2.3c0-1.05.36-1.82 1.09-2.3.73-.5 1.83-.78 3.3-.83l1.7-.06v-.43c0-1-.5-1.5-1.52-1.5-.79 0-1.71.25-2.77.72l-.89-1.81a8 8 0 0 1 3.76-.89c1.32 0 2.33.29 3.04.86.7.58 1.05 1.45 1.05 2.62V246h-1.87Zm-.8-4.55-1.03.03c-.78.03-1.36.17-1.74.42-.38.26-.57.66-.57 1.18 0 .76.43 1.14 1.3 1.14.62 0 1.12-.18 1.48-.54.38-.36.57-.83.57-1.42v-.81Zm9.58 2.59c.47 0 1.03-.1 1.69-.3v1.99c-.67.3-1.5.45-2.47.45-1.07 0-1.85-.27-2.34-.81-.49-.55-.73-1.36-.73-2.45v-4.73h-1.28v-1.14l1.47-.9.78-2.07h1.71v2.1h2.75v2h-2.75v4.74c0 .39.1.67.32.85.21.18.5.27.85.27Zm3.57-10.4c0-.88.48-1.32 1.46-1.32.97 0 1.45.44 1.45 1.31 0 .42-.12.75-.36.98-.24.23-.6.34-1.1.34-.97 0-1.45-.44-1.45-1.32Zm2.8 12.36h-2.69v-9.83h2.68V246Zm4.95-4.93c0 .97.16 1.7.47 2.2.33.5.85.75 1.57.75.71 0 1.23-.24 1.54-.74.31-.5.47-1.23.47-2.21 0-.97-.16-1.7-.47-2.19-.32-.48-.84-.73-1.56-.73-.71 0-1.23.25-1.55.73a4.02 4.02 0 0 0-.47 2.19Zm6.8 0c0 1.6-.43 2.85-1.27 3.75a4.58 4.58 0 0 1-3.53 1.36 4.9 4.9 0 0 1-2.5-.62 4.14 4.14 0 0 1-1.65-1.78 5.97 5.97 0 0 1-.58-2.71c0-1.6.41-2.85 1.25-3.75a4.62 4.62 0 0 1 3.54-1.33 5 5 0 0 1 2.5.61c.71.41 1.27 1 1.65 1.77.39.77.58 1.67.58 2.7ZM297 246h-2.68v-5.74c0-.7-.13-1.24-.38-1.59-.25-.36-.65-.54-1.2-.54-.75 0-1.3.26-1.63.76-.34.5-.5 1.33-.5 2.49V246h-2.68v-9.83h2.05l.36 1.26h.15c.3-.47.7-.83 1.23-1.07a4.2 4.2 0 0 1 1.79-.37c1.14 0 2 .31 2.6.93.6.62.89 1.5.89 2.67V246Zm13.67 0-.52-1.34h-.06a4 4 0 0 1-1.4 1.2c-.48.2-1.1.32-1.87.32-.94 0-1.68-.27-2.23-.81-.54-.54-.8-1.3-.8-2.3 0-1.05.36-1.82 1.08-2.3.74-.5 1.84-.78 3.3-.83l1.71-.06v-.43c0-1-.5-1.5-1.53-1.5-.78 0-1.7.25-2.77.72l-.88-1.81a8 8 0 0 1 3.76-.89 4.7 4.7 0 0 1 3.03.86c.7.58 1.06 1.45 1.06 2.62V246h-1.88Zm-.79-4.55-1.03.03c-.78.03-1.36.17-1.75.42-.38.26-.57.66-.57 1.18 0 .76.44 1.14 1.3 1.14.63 0 1.12-.18 1.49-.54.38-.36.56-.83.56-1.42v-.81Zm14.5 4.55h-2.68v-5.74c0-.7-.12-1.24-.37-1.59-.26-.36-.66-.54-1.2-.54-.76 0-1.3.26-1.63.76-.34.5-.5 1.33-.5 2.49V246h-2.69v-9.83h2.05l.36 1.26h.15c.3-.47.71-.83 1.23-1.07a4.2 4.2 0 0 1 1.8-.37c1.14 0 2 .31 2.6.93.59.62.88 1.5.88 2.67V246Zm5.88.18a3.2 3.2 0 0 1-2.73-1.35 6.2 6.2 0 0 1-.98-3.73c0-1.6.33-2.86 1-3.76.67-.9 1.6-1.35 2.78-1.35a3.2 3.2 0 0 1 2.83 1.44h.08c-.13-.73-.2-1.39-.2-1.96v-3.15h2.7V246h-2.06l-.52-1.27h-.12a3.07 3.07 0 0 1-2.78 1.45Zm.94-2.14c.68 0 1.18-.2 1.5-.6.32-.4.5-1.07.53-2.03v-.29c0-1.05-.17-1.8-.5-2.27-.32-.45-.85-.68-1.58-.68-.6 0-1.06.25-1.4.76-.32.5-.49 1.24-.49 2.21s.17 1.7.5 2.18c.34.48.81.72 1.44.72Zm19.8-1.6c0 1.15-.41 2.07-1.25 2.73-.83.67-2 1-3.48 1a8.18 8.18 0 0 1-3.64-.77v-2.53a15 15 0 0 0 2.2.82c.6.16 1.15.24 1.65.24.6 0 1.06-.12 1.37-.35.32-.23.48-.57.48-1.02 0-.25-.06-.47-.2-.66a2.3 2.3 0 0 0-.63-.58c-.27-.18-.82-.47-1.66-.87a7.94 7.94 0 0 1-1.77-1.06 4 4 0 0 1-.94-1.19 3.38 3.38 0 0 1-.35-1.58c0-1.13.38-2.03 1.15-2.68a4.82 4.82 0 0 1 3.2-.97c.67 0 1.3.07 1.9.23.62.16 1.25.38 1.92.67l-.88 2.12c-.69-.28-1.26-.48-1.7-.59a5.43 5.43 0 0 0-1.33-.17c-.51 0-.9.12-1.18.36-.28.24-.42.56-.42.94 0 .24.06.46.17.64.11.17.29.35.53.52.24.16.82.46 1.73.9a6.84 6.84 0 0 1 2.47 1.72c.44.58.67 1.28.67 2.12Zm6.2-4.54a1.7 1.7 0 0 0-1.34.54c-.32.36-.5.87-.56 1.53h3.77a2.22 2.22 0 0 0-.52-1.53 1.75 1.75 0 0 0-1.36-.54Zm.37 8.28a5.07 5.07 0 0 1-3.7-1.31c-.9-.88-1.34-2.11-1.34-3.71 0-1.65.4-2.92 1.23-3.82a4.4 4.4 0 0 1 3.42-1.35c1.38 0 2.47.4 3.24 1.19a4.5 4.5 0 0 1 1.16 3.27v1.3h-6.34c.03.77.26 1.36.68 1.79.42.43 1.01.64 1.77.64a7.37 7.37 0 0 0 3.34-.77v2.07c-.47.24-.97.4-1.5.52-.54.12-1.19.18-1.96.18Zm11.67-10.2c.37 0 .67.04.9.09l-.2 2.51a3.05 3.05 0 0 0-.78-.09c-.86 0-1.53.22-2 .66a2.4 2.4 0 0 0-.72 1.85v5h-2.68v-9.83h2.03l.4 1.66h.13c.3-.56.71-1 1.23-1.33a3.04 3.04 0 0 1 1.7-.51Zm5.03 10.02-3.74-9.83h2.8l1.9 5.6a10 10 0 0 1 .4 2.01h.05c.03-.56.16-1.23.4-2l1.88-5.6h2.8l-3.74 9.82h-2.75Zm11.98-8.1a1.7 1.7 0 0 0-1.33.54c-.33.36-.51.87-.56 1.53h3.76a2.22 2.22 0 0 0-.52-1.53 1.75 1.75 0 0 0-1.35-.54Zm.38 8.28a5.07 5.07 0 0 1-3.71-1.31c-.9-.88-1.34-2.11-1.34-3.71 0-1.65.41-2.92 1.23-3.82a4.4 4.4 0 0 1 3.42-1.35c1.4 0 2.47.4 3.25 1.19a4.5 4.5 0 0 1 1.16 3.27v1.3h-6.34c.03.77.25 1.36.68 1.79.42.43 1.01.64 1.77.64a7.38 7.38 0 0 0 3.33-.77v2.07c-.47.24-.97.4-1.5.52s-1.18.18-1.95.18Zm11.67-10.2c.36 0 .67.04.9.09l-.2 2.51a3.06 3.06 0 0 0-.79-.09c-.85 0-1.52.22-2 .66a2.4 2.4 0 0 0-.71 1.85v5h-2.68v-9.83h2.03l.4 1.66h.12c.3-.56.72-1 1.23-1.33a3.05 3.05 0 0 1 1.7-.51ZM65.62 295v-11.42h.8v10.67h5.44v.75h-6.24Zm15.04-4.26c0 1.39-.33 2.47-1 3.25a3.48 3.48 0 0 1-2.78 1.17 3.45 3.45 0 0 1-3.27-2.09 5.63 5.63 0 0 1-.46-2.33c0-1.38.33-2.46 1-3.23a3.47 3.47 0 0 1 2.77-1.17c1.17 0 2.08.4 2.74 1.18.67.79 1 1.86 1 3.22Zm-6.7 0c0 1.17.26 2.08.77 2.74a2.6 2.6 0 0 0 2.18.97 2.6 2.6 0 0 0 2.17-.97c.51-.66.77-1.57.77-2.74 0-1.17-.26-2.08-.78-2.72a2.63 2.63 0 0 0-2.18-.97 2.6 2.6 0 0 0-2.17.97 4.3 4.3 0 0 0-.76 2.72Zm12.4-4.4c.36 0 .74.04 1.16.11l-.15.75a4.55 4.55 0 0 0-1.1-.14c-.73 0-1.32.31-1.79.92-.46.62-.7 1.4-.7 2.33V295h-.76v-8.5h.65l.08 1.54h.05c.35-.63.73-1.06 1.12-1.31.4-.26.88-.39 1.44-.39Zm6.32 8.82c-1.23 0-2.2-.38-2.9-1.14a4.6 4.6 0 0 1-1.02-3.2c0-1.35.33-2.44 1-3.25a3.3 3.3 0 0 1 2.7-1.23c1 0 1.78.35 2.36 1.05.58.7.87 1.65.87 2.84v.63h-6.12c.01 1.17.28 2.06.81 2.67.54.62 1.3.92 2.3.92.48 0 .9-.03 1.27-.1s.84-.21 1.4-.44v.7a6.02 6.02 0 0 1-2.67.55Zm-.23-8.13c-.81 0-1.47.27-1.97.81a3.8 3.8 0 0 0-.86 2.33h5.25c0-.98-.22-1.75-.64-2.3a2.11 2.11 0 0 0-1.78-.84Zm16.2 7.97v-5.57c0-.83-.17-1.43-.5-1.81-.32-.38-.81-.57-1.48-.57-.87 0-1.51.24-1.93.72-.41.48-.62 1.23-.62 2.25V295h-.8v-5.8c0-1.44-.65-2.15-1.96-2.15-.9 0-1.54.26-1.95.78-.4.51-.6 1.34-.6 2.48V295h-.78v-8.5h.64l.17 1.17h.04a2.4 2.4 0 0 1 1-.98c.44-.23.91-.35 1.43-.35 1.34 0 2.2.5 2.58 1.51h.03a2.9 2.9 0 0 1 1.11-1.12c.47-.26 1-.39 1.6-.39.92 0 1.62.25 2.08.75.46.5.7 1.28.7 2.36V295h-.77Zm8.44 0h-.78v-8.5h.78v8.5Zm-.89-10.85c0-.5.17-.75.5-.75a.4.4 0 0 1 .37.2c.1.12.14.3.14.55 0 .23-.05.42-.14.55a.42.42 0 0 1-.38.2c-.32 0-.49-.25-.49-.75Zm7.37 11c-1.3 0-2.26-.48-2.86-1.46h-.05l.02.65c.02.39.03.81.03 1.27v3.23h-.77v-12.33h.65l.15 1.2h.05c.58-.9 1.52-1.37 2.8-1.37 1.14 0 2.01.38 2.61 1.14.6.75.9 1.84.9 3.28 0 1.4-.3 2.48-.94 3.25a3.17 3.17 0 0 1-2.59 1.15Zm-.01-.68c.86 0 1.54-.32 2.01-.97.48-.65.72-1.55.72-2.71 0-2.5-.9-3.74-2.7-3.74-1 0-1.72.27-2.18.82-.47.54-.7 1.42-.7 2.65v.25c0 1.33.22 2.28.67 2.85.44.56 1.17.85 2.18.85Zm11.17-1.68c0 .76-.28 1.34-.86 1.76-.58.4-1.4.6-2.46.6a5.87 5.87 0 0 1-2.7-.52v-.83c.85.42 1.75.64 2.7.64a3.5 3.5 0 0 0 1.9-.42c.44-.28.66-.65.66-1.11 0-.43-.18-.79-.53-1.08-.34-.3-.9-.58-1.7-.86a9.6 9.6 0 0 1-1.79-.79c-.34-.22-.6-.47-.78-.75a1.93 1.93 0 0 1-.26-1.02c0-.64.27-1.14.8-1.51a3.92 3.92 0 0 1 2.24-.56c.92 0 1.79.18 2.61.52l-.29.7a6.13 6.13 0 0 0-2.32-.51 3.3 3.3 0 0 0-1.64.34c-.41.23-.62.55-.62.95 0 .45.16.8.47 1.07.32.26.94.56 1.86.89a8.9 8.9 0 0 1 1.67.75c.35.22.6.47.78.75.18.28.26.6.26.99Zm2.86-6.28v5.5c0 .85.18 1.47.54 1.87.36.38.92.57 1.68.57 1 0 1.75-.25 2.22-.76.48-.51.72-1.34.72-2.5v-4.68h.77V295h-.66l-.14-1.17h-.05c-.55.88-1.53 1.33-2.94 1.33-1.94 0-2.9-1.04-2.9-3.1v-5.55h.76Zm19.38 8.49v-5.57c0-.83-.16-1.43-.49-1.81-.32-.38-.81-.57-1.48-.57-.87 0-1.51.24-1.93.72-.42.48-.63 1.23-.63 2.25V295h-.78v-5.8c0-1.44-.66-2.15-1.97-2.15-.9 0-1.54.26-1.95.78-.4.51-.6 1.34-.6 2.48V295h-.78v-8.5h.64l.16 1.17h.05a2.4 2.4 0 0 1 1-.98 3 3 0 0 1 1.43-.35c1.34 0 2.2.5 2.58 1.51h.03a2.9 2.9 0 0 1 1.1-1.12c.48-.26 1-.39 1.6-.39.93 0 1.63.25 2.09.75.46.5.7 1.28.7 2.36V295h-.77Zm10.78-8.66c.62 0 1.15.12 1.6.34.44.22.84.6 1.2 1.15h.04a39.6 39.6 0 0 1-.04-1.93v-3.06h.76V295h-.5l-.2-1.3h-.06a3.14 3.14 0 0 1-2.78 1.46c-1.18 0-2.07-.37-2.7-1.1-.61-.73-.92-1.79-.92-3.19 0-1.46.3-2.59.92-3.36.62-.78 1.5-1.17 2.68-1.17Zm0 .7c-.93 0-1.63.33-2.1.98a4.9 4.9 0 0 0-.69 2.84c0 2.4.94 3.6 2.8 3.6.96 0 1.67-.27 2.12-.83.44-.55.67-1.47.67-2.75v-.14c0-1.31-.22-2.25-.67-2.83-.44-.57-1.15-.86-2.13-.86Zm13.44 3.7c0 1.39-.33 2.47-1 3.25a3.49 3.49 0 0 1-2.78 1.17 3.44 3.44 0 0 1-3.27-2.09 5.63 5.63 0 0 1-.46-2.33c0-1.38.34-2.46 1-3.23a3.46 3.46 0 0 1 2.77-1.17c1.17 0 2.08.4 2.75 1.18.66.79 1 1.86 1 3.22Zm-6.7 0c0 1.17.26 2.08.77 2.74a2.6 2.6 0 0 0 2.18.97 2.6 2.6 0 0 0 2.17-.97c.51-.66.77-1.57.77-2.74 0-1.17-.26-2.08-.78-2.72a2.63 2.63 0 0 0-2.18-.97 2.6 2.6 0 0 0-2.17.97c-.5.64-.76 1.55-.76 2.72Zm9.83 4.26h-.77v-12.16h.77V295Zm9.88-4.26c0 1.39-.34 2.47-1.01 3.25a3.49 3.49 0 0 1-2.78 1.17 3.44 3.44 0 0 1-3.27-2.09 5.63 5.63 0 0 1-.46-2.33c0-1.38.34-2.46 1-3.23a3.46 3.46 0 0 1 2.77-1.17c1.17 0 2.08.4 2.75 1.18.66.79 1 1.86 1 3.22Zm-6.7 0c0 1.17.25 2.08.76 2.74a2.6 2.6 0 0 0 2.18.97 2.6 2.6 0 0 0 2.17-.97c.51-.66.77-1.57.77-2.74 0-1.17-.26-2.08-.78-2.72a2.63 2.63 0 0 0-2.18-.97 2.6 2.6 0 0 0-2.17.97c-.5.64-.76 1.55-.76 2.72Zm12.4-4.4c.35 0 .73.04 1.15.11l-.15.75a4.55 4.55 0 0 0-1.1-.14c-.73 0-1.32.31-1.78.92-.47.62-.7 1.4-.7 2.33V295h-.77v-8.5h.65l.08 1.54h.06c.34-.63.72-1.06 1.11-1.31.4-.26.88-.39 1.44-.39Zm12.3 6.45c0 .76-.29 1.34-.86 1.76-.58.4-1.4.6-2.47.6a5.87 5.87 0 0 1-2.7-.52v-.83c.86.42 1.76.64 2.7.64.84 0 1.48-.14 1.91-.42.44-.28.66-.65.66-1.11 0-.43-.18-.79-.53-1.08-.34-.3-.9-.58-1.7-.86a9.6 9.6 0 0 1-1.79-.79c-.34-.22-.6-.47-.78-.75a1.93 1.93 0 0 1-.26-1.02c0-.64.27-1.14.8-1.51a3.92 3.92 0 0 1 2.24-.56c.92 0 1.79.18 2.61.52l-.29.7a6.13 6.13 0 0 0-2.32-.51c-.7 0-1.24.11-1.65.34-.4.23-.6.55-.6.95 0 .45.15.8.46 1.07.32.26.94.56 1.85.89.77.27 1.33.52 1.68.75.34.22.6.47.78.75.18.28.26.6.26.99Zm2.96 2.21h-.77v-8.5h.77v8.5Zm-.88-10.85c0-.5.16-.75.5-.75a.4.4 0 0 1 .37.2c.1.12.14.3.14.55 0 .23-.05.42-.14.55a.42.42 0 0 1-.38.2c-.33 0-.49-.25-.49-.75Zm5.98 10.32c.49 0 .91-.04 1.28-.13v.63c-.38.12-.8.19-1.3.19-.75 0-1.3-.2-1.66-.6-.36-.4-.53-1.04-.53-1.9v-5.48h-1.26v-.45l1.26-.36.39-1.92h.4v2.06h2.49v.67h-2.5v5.38c0 .65.12 1.13.35 1.44.23.31.59.47 1.08.47Zm12.43.53-.2-1.34h-.06a4.2 4.2 0 0 1-1.32 1.16 3.6 3.6 0 0 1-1.6.34c-.83 0-1.48-.22-1.94-.64a2.3 2.3 0 0 1-.7-1.78c0-.83.35-1.47 1.04-1.93.69-.46 1.69-.7 3-.72l1.61-.05v-.56c0-.81-.16-1.42-.49-1.83-.33-.41-.86-.62-1.59-.62-.78 0-1.6.22-2.44.66l-.29-.67a6.46 6.46 0 0 1 2.77-.66c.93 0 1.62.24 2.08.73.47.48.7 1.24.7 2.26V295h-.57Zm-3.13-.55c.9 0 1.62-.25 2.14-.77a2.9 2.9 0 0 0 .8-2.16v-.84l-1.5.06a5.72 5.72 0 0 0-2.55.56c-.5.32-.75.8-.75 1.47 0 .54.16.95.48 1.25.33.29.79.43 1.38.43Zm17.06.55v-5.57c0-.83-.16-1.43-.48-1.81-.32-.38-.82-.57-1.48-.57-.87 0-1.52.24-1.93.72-.42.48-.63 1.23-.63 2.25V295h-.79v-5.8c0-1.44-.65-2.15-1.97-2.15-.89 0-1.53.26-1.94.78-.4.51-.61 1.34-.61 2.48V295h-.77v-8.5h.64l.16 1.17h.05c.23-.42.56-.75 1-.98.43-.23.9-.35 1.43-.35 1.33 0 2.2.5 2.57 1.51h.04a2.9 2.9 0 0 1 1.1-1.12c.47-.26 1-.39 1.6-.39.93 0 1.62.25 2.08.75.47.5.7 1.28.7 2.36V295h-.76Zm6.95.16c-1.23 0-2.2-.38-2.89-1.14a4.6 4.6 0 0 1-1.03-3.2c0-1.35.33-2.44 1-3.25a3.3 3.3 0 0 1 2.7-1.23c1 0 1.78.35 2.36 1.05.58.7.87 1.65.87 2.84v.63h-6.12c.01 1.17.28 2.06.81 2.67.54.62 1.3.92 2.3.92.49 0 .9-.03 1.27-.1s.84-.21 1.4-.44v.7a6.02 6.02 0 0 1-2.67.55Zm-.23-8.13c-.81 0-1.47.27-1.97.81a3.83 3.83 0 0 0-.86 2.33h5.25c0-.98-.22-1.75-.64-2.3a2.11 2.11 0 0 0-1.78-.84Zm7.82 7.44c.5 0 .92-.04 1.28-.13v.63c-.37.12-.8.19-1.3.19-.74 0-1.3-.2-1.66-.6-.35-.4-.53-1.04-.53-1.9v-5.48h-1.25v-.45l1.25-.36.4-1.92h.4v2.06h2.48v.67h-2.49v5.38c0 .65.12 1.13.35 1.44.23.31.58.47 1.07.47Zm4-1.33.1.17a26 26 0 0 1-1.36 3.75h-.5c.4-1.43.68-2.74.85-3.92h.91Zm10.1 2.02a3.64 3.64 0 0 1-2.85-1.15 4.63 4.63 0 0 1-1.03-3.2c0-1.41.36-2.5 1.07-3.29a3.76 3.76 0 0 1 2.93-1.18c.74 0 1.44.13 2.11.39l-.2.68a6.18 6.18 0 0 0-1.92-.36c-1.04 0-1.83.32-2.37.97-.54.64-.8 1.56-.8 2.77 0 1.14.26 2.04.8 2.7.54.64 1.29.96 2.25.96.77 0 1.49-.13 2.15-.41v.72c-.54.26-1.25.4-2.13.4Zm11.25-4.42c0 1.39-.34 2.47-1.01 3.25a3.48 3.48 0 0 1-2.78 1.17 3.44 3.44 0 0 1-3.27-2.09 5.63 5.63 0 0 1-.46-2.33c0-1.38.34-2.46 1.01-3.23a3.47 3.47 0 0 1 2.77-1.17c1.16 0 2.08.4 2.74 1.18.66.79 1 1.86 1 3.22Zm-6.7 0c0 1.17.25 2.08.76 2.74.52.65 1.24.97 2.18.97a2.6 2.6 0 0 0 2.17-.97c.52-.66.77-1.57.77-2.74 0-1.17-.25-2.08-.78-2.72a2.63 2.63 0 0 0-2.18-.97 2.6 2.6 0 0 0-2.17.97c-.5.64-.75 1.55-.75 2.72Zm14.97 4.26v-5.5c0-.86-.18-1.48-.54-1.87-.36-.39-.91-.58-1.67-.58-1.01 0-1.76.25-2.23.77-.47.51-.7 1.34-.7 2.5V295h-.78v-8.5h.66l.14 1.17h.05c.55-.88 1.54-1.33 2.95-1.33 1.92 0 2.89 1.04 2.89 3.1V295h-.77Zm8.78-2.21c0 .76-.29 1.34-.87 1.76-.57.4-1.4.6-2.46.6a5.87 5.87 0 0 1-2.7-.52v-.83c.86.42 1.76.64 2.7.64.84 0 1.48-.14 1.91-.42.44-.28.66-.65.66-1.11 0-.43-.18-.79-.53-1.08-.34-.3-.9-.58-1.7-.86a9.6 9.6 0 0 1-1.79-.79c-.34-.22-.6-.47-.78-.75a1.93 1.93 0 0 1-.26-1.02c0-.64.27-1.14.8-1.51a3.92 3.92 0 0 1 2.24-.56c.92 0 1.79.18 2.61.52l-.29.7a6.14 6.14 0 0 0-2.32-.51c-.7 0-1.24.11-1.65.34-.4.23-.6.55-.6.95 0 .45.15.8.46 1.07.32.26.94.56 1.85.89a8.9 8.9 0 0 1 1.68.75c.35.22.6.47.78.75.17.28.26.6.26.99Zm5.62 2.37c-1.24 0-2.2-.38-2.9-1.14a4.6 4.6 0 0 1-1.02-3.2c0-1.35.33-2.44 1-3.25a3.3 3.3 0 0 1 2.7-1.23c1 0 1.78.35 2.36 1.05.58.7.87 1.65.87 2.84v.63h-6.12c.01 1.17.28 2.06.81 2.67.54.62 1.3.92 2.3.92.48 0 .9-.03 1.27-.1s.84-.21 1.4-.44v.7a6.03 6.03 0 0 1-2.67.55Zm-.23-8.13c-.81 0-1.47.27-1.97.81a3.8 3.8 0 0 0-.86 2.33h5.25c0-.98-.22-1.75-.64-2.3a2.11 2.11 0 0 0-1.78-.84Zm8.97 8.13a3.64 3.64 0 0 1-2.85-1.15 4.63 4.63 0 0 1-1.03-3.2c0-1.41.36-2.5 1.07-3.29a3.76 3.76 0 0 1 2.93-1.18c.73 0 1.44.13 2.1.39l-.2.68a6.2 6.2 0 0 0-1.92-.36c-1.04 0-1.83.32-2.36.97-.54.64-.8 1.56-.8 2.77 0 1.14.26 2.04.8 2.7.53.64 1.28.96 2.25.96a5.4 5.4 0 0 0 2.14-.41v.72c-.54.26-1.25.4-2.13.4Zm6.46-.7c.5 0 .92-.03 1.28-.12v.63c-.37.12-.8.19-1.3.19-.74 0-1.3-.2-1.66-.6-.35-.4-.53-1.04-.53-1.9v-5.48h-1.26v-.45l1.26-.36.4-1.92h.4v2.06h2.48v.67h-2.49v5.38c0 .65.12 1.13.35 1.44.22.31.58.47 1.07.47Zm6.55.7c-1.24 0-2.2-.38-2.9-1.14a4.6 4.6 0 0 1-1.02-3.2c0-1.35.33-2.44 1-3.25a3.3 3.3 0 0 1 2.7-1.23c1 0 1.78.35 2.36 1.05.58.7.87 1.65.87 2.84v.63h-6.12c.01 1.17.28 2.06.81 2.67.54.62 1.3.92 2.3.92.48 0 .9-.03 1.27-.1s.84-.21 1.4-.44v.7a6.03 6.03 0 0 1-2.67.55Zm-.23-8.13c-.81 0-1.47.27-1.97.81a3.8 3.8 0 0 0-.86 2.33h5.25c0-.98-.22-1.75-.64-2.3a2.11 2.11 0 0 0-1.78-.84Zm7.82 7.44c.5 0 .92-.04 1.29-.13v.63c-.38.12-.81.19-1.3.19-.75 0-1.3-.2-1.67-.6-.35-.4-.53-1.04-.53-1.9v-5.48h-1.25v-.45l1.25-.36.4-1.92h.4v2.06h2.48v.67h-2.49v5.38c0 .65.12 1.13.34 1.44.23.31.6.47 1.08.47Zm3.8-7.96v5.5c0 .85.17 1.47.53 1.87.36.38.92.57 1.67.57 1.01 0 1.76-.25 2.23-.76.48-.51.72-1.34.72-2.5v-4.68h.76V295h-.65l-.14-1.17h-.05c-.55.88-1.53 1.33-2.94 1.33-1.94 0-2.9-1.04-2.9-3.1v-5.55h.76Zm12.1-.17c.36 0 .75.04 1.16.11l-.15.75a4.56 4.56 0 0 0-1.1-.14c-.73 0-1.32.31-1.78.92-.47.62-.7 1.4-.7 2.33V295h-.77v-8.5h.65l.08 1.54h.06c.35-.63.72-1.06 1.11-1.31.4-.26.88-.39 1.44-.39Zm12.2 8.66-.19-1.34h-.06a4.2 4.2 0 0 1-1.32 1.16 3.6 3.6 0 0 1-1.6.34c-.83 0-1.48-.22-1.94-.64a2.3 2.3 0 0 1-.7-1.78c0-.83.35-1.47 1.03-1.93.7-.46 1.7-.7 3-.72l1.62-.05v-.56c0-.81-.16-1.42-.5-1.83-.32-.41-.85-.62-1.58-.62-.78 0-1.6.22-2.44.66l-.3-.67a6.47 6.47 0 0 1 2.77-.66c.94 0 1.63.24 2.09.73.46.48.7 1.24.7 2.26V295h-.57Zm-3.12-.55c.9 0 1.62-.25 2.14-.77a2.9 2.9 0 0 0 .79-2.16v-.84l-1.49.06a5.72 5.72 0 0 0-2.55.56c-.5.32-.76.8-.76 1.47 0 .54.16.95.49 1.25.32.29.79.43 1.38.43Zm9.56-8.1c.62 0 1.15.1 1.6.33.44.22.84.6 1.2 1.15h.05a40.9 40.9 0 0 1-.05-1.93v-3.06h.76V295h-.5l-.2-1.3h-.06a3.14 3.14 0 0 1-2.78 1.46c-1.17 0-2.07-.37-2.69-1.1-.62-.73-.93-1.79-.93-3.19 0-1.46.3-2.59.92-3.36a3.22 3.22 0 0 1 2.68-1.17Zm0 .7c-.93 0-1.62.32-2.1.97-.45.65-.69 1.6-.69 2.84 0 2.4.94 3.6 2.8 3.6.97 0 1.67-.27 2.12-.83.44-.55.67-1.47.67-2.75v-.14c0-1.31-.22-2.25-.67-2.83-.43-.57-1.14-.86-2.13-.86Zm7.2 7.95h-.78v-8.5h.78v8.5Zm-.88-10.85c0-.5.16-.75.49-.75a.4.4 0 0 1 .37.2c.1.12.14.3.14.55 0 .23-.04.42-.14.55a.42.42 0 0 1-.37.2c-.33 0-.5-.25-.5-.75Zm7.36 11c-1.3 0-2.26-.48-2.86-1.46h-.05l.02.65c.02.39.03.81.03 1.27v3.23h-.77v-12.33h.66l.14 1.2h.05c.58-.9 1.52-1.37 2.8-1.37 1.14 0 2.02.38 2.62 1.14.6.75.9 1.84.9 3.28a5 5 0 0 1-.95 3.25 3.17 3.17 0 0 1-2.59 1.15Zm-.01-.68c.87 0 1.54-.32 2.01-.97.48-.65.72-1.55.72-2.71 0-2.5-.9-3.74-2.7-3.74-1 0-1.72.27-2.18.82-.46.54-.7 1.42-.7 2.65v.25c0 1.33.22 2.28.67 2.85.44.56 1.17.85 2.18.85Zm6.68.53h-.77v-8.5h.77v8.5Zm-.88-10.85c0-.5.17-.75.5-.75a.4.4 0 0 1 .37.2c.1.12.14.3.14.55 0 .23-.05.42-.14.55a.42.42 0 0 1-.38.2c-.32 0-.49-.25-.49-.75Zm9 8.64c0 .76-.29 1.34-.87 1.76-.57.4-1.4.6-2.46.6a5.87 5.87 0 0 1-2.7-.52v-.83c.85.42 1.75.64 2.7.64.84 0 1.48-.14 1.9-.42.45-.28.67-.65.67-1.11 0-.43-.18-.79-.53-1.08-.34-.3-.9-.58-1.7-.86a9.29 9.29 0 0 1-1.79-.79c-.34-.22-.6-.47-.78-.75a1.93 1.93 0 0 1-.26-1.02c0-.64.27-1.14.8-1.51a3.92 3.92 0 0 1 2.24-.56c.92 0 1.79.18 2.6.52l-.28.7a6.13 6.13 0 0 0-2.32-.51c-.7 0-1.24.11-1.65.34-.4.23-.6.55-.6.95 0 .45.15.8.46 1.07.32.26.94.56 1.85.89.77.27 1.32.52 1.67.75.35.22.61.47.79.75.17.28.26.6.26.99Zm5.58 2.37a3.64 3.64 0 0 1-2.85-1.15 4.62 4.62 0 0 1-1.03-3.2c0-1.41.35-2.5 1.07-3.29a3.76 3.76 0 0 1 2.93-1.18c.73 0 1.43.13 2.1.39l-.2.68a6.18 6.18 0 0 0-1.92-.36c-1.04 0-1.83.32-2.37.97-.53.64-.8 1.56-.8 2.77 0 1.14.27 2.04.8 2.7.54.64 1.29.96 2.25.96.78 0 1.5-.13 2.15-.41v.72c-.54.26-1.25.4-2.13.4Zm5-.16h-.78v-8.5h.77v8.5Zm-.9-10.85c0-.5.17-.75.5-.75.16 0 .29.06.38.2.09.12.14.3.14.55 0 .23-.05.42-.14.55a.42.42 0 0 1-.38.2c-.33 0-.5-.25-.5-.75Zm9.67 10.85v-5.5c0-.86-.19-1.48-.54-1.87-.36-.39-.92-.58-1.68-.58-1.01 0-1.76.25-2.23.77-.47.51-.7 1.34-.7 2.5V295h-.78v-8.5h.66l.15 1.17h.05c.55-.88 1.53-1.33 2.94-1.33 1.93 0 2.9 1.04 2.9 3.1V295h-.77Zm10.14-8.5v.55l-1.76.1a3 3 0 0 1 .7 1.93 2.6 2.6 0 0 1-.82 1.99 3.1 3.1 0 0 1-2.19.76c-.38 0-.65-.02-.8-.05a1.9 1.9 0 0 0-.71.57c-.16.22-.25.45-.25.7 0 .27.1.47.31.6.2.12.56.18 1.04.18h1.48c.93 0 1.63.19 2.12.56.49.37.74.92.74 1.65 0 .9-.37 1.58-1.1 2.07a5.5 5.5 0 0 1-3.1.73 4.3 4.3 0 0 1-2.49-.61 1.99 1.99 0 0 1-.87-1.72c0-.59.18-1.07.54-1.45.36-.4.86-.65 1.48-.8a1.55 1.55 0 0 1-.62-.45c-.15-.2-.23-.44-.23-.7 0-.57.36-1.07 1.09-1.5-.5-.2-.88-.52-1.16-.95a2.75 2.75 0 0 1-.41-1.5c0-.85.27-1.53.8-2.04a3.05 3.05 0 0 1 2.19-.78 4 4 0 0 1 1.3.17h2.72Zm-6.88 9.94c0 1.16.87 1.75 2.6 1.75 2.23 0 3.35-.71 3.35-2.13 0-.52-.18-.89-.53-1.12a3.19 3.19 0 0 0-1.7-.34h-1.38c-1.56 0-2.34.61-2.34 1.84Zm.65-7.28c0 .65.2 1.16.6 1.53.4.36.93.54 1.6.54.7 0 1.24-.18 1.62-.54.38-.36.57-.88.57-1.56 0-.73-.2-1.27-.59-1.63a2.27 2.27 0 0 0-1.62-.55c-.68 0-1.21.2-1.6.59-.39.38-.58.92-.58 1.62Zm-355.94 28c-1.23 0-2.2-.38-2.89-1.14a4.6 4.6 0 0 1-1.03-3.2c0-1.35.33-2.44 1-3.25a3.3 3.3 0 0 1 2.7-1.23c1 0 1.78.35 2.36 1.05.58.7.87 1.65.87 2.84v.63h-6.12c.01 1.17.28 2.06.81 2.67.54.62 1.3.92 2.3.92.49 0 .91-.03 1.28-.1a7.9 7.9 0 0 0 1.4-.44v.7a6.02 6.02 0 0 1-2.68.55Zm-.22-8.13c-.82 0-1.48.27-1.97.81a3.8 3.8 0 0 0-.87 2.33h5.25c0-.98-.21-1.75-.64-2.3a2.11 2.11 0 0 0-1.78-.84Zm6.35 7.97h-.78v-12.16h.78V317Zm3.62 0h-.77v-8.5h.77v8.5Zm-.88-10.85c0-.5.16-.75.5-.75.15 0 .28.06.37.2.09.12.14.3.14.55 0 .23-.05.42-.14.55a.42.42 0 0 1-.38.2c-.33 0-.5-.25-.5-.75Zm5.98 10.32c.48 0 .91-.04 1.28-.13v.63c-.38.12-.81.19-1.3.19-.75 0-1.3-.2-1.66-.6-.36-.4-.54-1.04-.54-1.9v-5.48h-1.25v-.45l1.25-.36.4-1.92h.4v2.06h2.49v.67h-2.5v5.38c0 .65.12 1.13.35 1.44.23.31.59.47 1.08.47Zm2.96-.08c0-.51.2-.76.62-.76.43 0 .64.25.64.76s-.21.77-.64.77c-.42 0-.62-.26-.62-.77Zm13.82-3.42h-4.64l-1.6 4.03h-.88l4.6-11.47h.5l4.5 11.47h-.9l-1.58-4.03Zm-4.36-.72h4.1l-1.56-4.12c-.13-.32-.29-.77-.47-1.34-.14.5-.3.95-.46 1.36l-1.6 4.1Zm11.61-3.9c.36 0 .75.03 1.16.1l-.15.75a4.55 4.55 0 0 0-1.1-.14c-.72 0-1.32.31-1.78.92-.46.62-.7 1.4-.7 2.33V317h-.77v-8.5h.66l.08 1.54h.05c.35-.63.72-1.06 1.12-1.31.4-.26.87-.39 1.43-.39Zm6.29 8.8a3.64 3.64 0 0 1-2.86-1.14 4.63 4.63 0 0 1-1.03-3.2c0-1.41.36-2.5 1.07-3.29a3.76 3.76 0 0 1 2.93-1.18c.74 0 1.44.13 2.11.39l-.2.68a6.18 6.18 0 0 0-1.92-.36c-1.04 0-1.83.32-2.37.97-.54.64-.8 1.56-.8 2.77 0 1.14.26 2.04.8 2.7.54.64 1.29.96 2.25.96.77 0 1.49-.13 2.15-.41v.72c-.54.26-1.25.4-2.13.4Zm4.89-8.64v5.5c0 .85.18 1.47.53 1.87.37.38.92.57 1.68.57 1 0 1.75-.25 2.22-.76.48-.51.72-1.34.72-2.5v-4.68h.77V317h-.66l-.14-1.17h-.05c-.55.88-1.53 1.33-2.94 1.33-1.93 0-2.9-1.04-2.9-3.1v-5.55h.77Zm18.18 6.28c0 .76-.28 1.34-.86 1.76-.58.4-1.4.6-2.46.6a5.87 5.87 0 0 1-2.7-.52v-.83c.85.42 1.75.64 2.7.64.83 0 1.47-.14 1.9-.42.44-.28.66-.65.66-1.11 0-.43-.18-.79-.53-1.08-.34-.3-.9-.58-1.7-.86a9.6 9.6 0 0 1-1.79-.79c-.34-.22-.6-.47-.78-.75a1.93 1.93 0 0 1-.26-1.02c0-.64.27-1.14.8-1.51a3.92 3.92 0 0 1 2.24-.56c.92 0 1.79.18 2.61.52l-.29.7a6.14 6.14 0 0 0-2.32-.51c-.69 0-1.24.11-1.65.34-.4.23-.6.55-.6.95 0 .45.15.8.46 1.07.32.26.94.56 1.85.89.77.27 1.33.52 1.68.75.35.22.6.47.78.75.17.28.26.6.26.99Zm5.62 2.37c-1.23 0-2.2-.38-2.89-1.14a4.6 4.6 0 0 1-1.03-3.2c0-1.35.33-2.44 1-3.25a3.3 3.3 0 0 1 2.7-1.23c1 0 1.78.35 2.36 1.05.58.7.87 1.65.87 2.84v.63h-6.12c.01 1.17.28 2.06.81 2.67.54.62 1.3.92 2.3.92.48 0 .91-.03 1.27-.1.37-.07.84-.21 1.4-.44v.7a6.02 6.02 0 0 1-2.67.55Zm-.23-8.13c-.81 0-1.47.27-1.96.81a3.8 3.8 0 0 0-.87 2.33h5.25c0-.98-.22-1.75-.64-2.3a2.11 2.11 0 0 0-1.78-.84Zm16.2 7.97v-5.57c0-.83-.17-1.43-.5-1.81-.31-.38-.81-.57-1.48-.57-.87 0-1.51.24-1.93.72-.41.48-.62 1.23-.62 2.25V317h-.8v-5.8c0-1.44-.65-2.15-1.96-2.15-.89 0-1.54.26-1.94.78-.41.51-.61 1.34-.61 2.48V317h-.78v-8.5h.64l.17 1.17h.04a2.4 2.4 0 0 1 1-.98c.44-.23.91-.35 1.43-.35 1.34 0 2.2.5 2.58 1.51h.03a2.9 2.9 0 0 1 1.11-1.12c.47-.26 1-.39 1.6-.39.92 0 1.62.25 2.08.75.47.5.7 1.28.7 2.36V317h-.77Zm7.14.16c-1.3 0-2.26-.5-2.86-1.47h-.05l.02.65c.02.39.03.81.03 1.27v3.23h-.77v-12.33h.65l.15 1.2h.05c.58-.9 1.52-1.37 2.8-1.37 1.14 0 2.01.38 2.61 1.14.6.75.9 1.84.9 3.28 0 1.4-.3 2.48-.94 3.25a3.17 3.17 0 0 1-2.59 1.15Zm-.01-.7c.86 0 1.54-.31 2.01-.96.48-.65.72-1.55.72-2.71 0-2.5-.9-3.74-2.7-3.74-1 0-1.72.27-2.18.82-.47.54-.7 1.42-.7 2.65v.25c0 1.33.22 2.28.66 2.85.45.56 1.18.85 2.19.85Zm9.34.7c-1.24 0-2.2-.38-2.9-1.14a4.6 4.6 0 0 1-1.02-3.2c0-1.35.33-2.44 1-3.25a3.3 3.3 0 0 1 2.7-1.23c1 0 1.78.35 2.36 1.05.58.7.87 1.65.87 2.84v.63h-6.12c0 1.17.28 2.06.81 2.67.54.62 1.3.92 2.3.92.48 0 .9-.03 1.27-.1s.84-.21 1.4-.44v.7a6.02 6.02 0 0 1-2.67.55Zm-.23-8.13c-.82 0-1.47.27-1.97.81s-.78 1.32-.86 2.33h5.25c0-.98-.22-1.75-.65-2.3a2.11 2.11 0 0 0-1.77-.84Zm8.92-.69c.36 0 .75.04 1.16.11l-.15.75a4.56 4.56 0 0 0-1.1-.14c-.72 0-1.32.31-1.78.92-.47.62-.7 1.4-.7 2.33V317h-.77v-8.5h.66l.07 1.54h.06c.35-.63.72-1.06 1.12-1.31.4-.26.87-.39 1.43-.39Zm10.48 8.82c-1.23 0-2.2-.38-2.89-1.14a4.6 4.6 0 0 1-1.03-3.2c0-1.35.33-2.44 1-3.25a3.3 3.3 0 0 1 2.7-1.23c1 0 1.78.35 2.36 1.05.58.7.87 1.65.87 2.84v.63h-6.12c.01 1.17.28 2.06.81 2.67.54.62 1.3.92 2.3.92.49 0 .9-.03 1.27-.1s.84-.21 1.4-.44v.7a6.02 6.02 0 0 1-2.67.55Zm-.23-8.13c-.81 0-1.47.27-1.97.81a3.83 3.83 0 0 0-.86 2.33h5.25c0-.98-.22-1.75-.64-2.3a2.11 2.11 0 0 0-1.78-.84Zm12.2-.52v.54l-1.75.1a3 3 0 0 1 .7 1.93 2.6 2.6 0 0 1-.82 1.99 3.1 3.1 0 0 1-2.19.76c-.38 0-.65-.02-.8-.05-.31.16-.55.35-.71.57-.16.22-.24.45-.24.7 0 .27.1.47.3.6.21.12.56.18 1.04.18h1.49c.92 0 1.62.19 2.11.56.5.37.74.92.74 1.65 0 .9-.37 1.58-1.1 2.07a5.5 5.5 0 0 1-3.1.73 4.3 4.3 0 0 1-2.48-.61 1.99 1.99 0 0 1-.88-1.72c0-.59.18-1.07.54-1.45.37-.4.86-.65 1.48-.8a1.55 1.55 0 0 1-.62-.45c-.15-.2-.23-.44-.23-.7 0-.57.36-1.07 1.09-1.5-.5-.2-.88-.52-1.16-.95a2.75 2.75 0 0 1-.41-1.5c0-.85.27-1.53.8-2.04a3.04 3.04 0 0 1 2.2-.78 4 4 0 0 1 1.29.17h2.72Zm-6.87 9.93c0 1.16.87 1.75 2.6 1.75 2.23 0 3.35-.71 3.35-2.13 0-.52-.18-.89-.53-1.12a3.2 3.2 0 0 0-1.7-.34h-1.38c-1.56 0-2.34.61-2.34 1.84Zm.65-7.28c0 .65.2 1.16.6 1.53.4.36.93.54 1.6.54.7 0 1.25-.18 1.62-.54.38-.36.57-.88.57-1.56 0-.73-.2-1.27-.59-1.63a2.27 2.27 0 0 0-1.62-.55c-.68 0-1.21.2-1.6.59-.39.38-.58.92-.58 1.62Zm11.4 6c-1.23 0-2.2-.38-2.88-1.14a4.6 4.6 0 0 1-1.03-3.2c0-1.35.33-2.44 1-3.25a3.3 3.3 0 0 1 2.69-1.23c1 0 1.79.35 2.37 1.05.57.7.86 1.65.86 2.84v.63h-6.11c0 1.17.28 2.06.81 2.67.54.62 1.3.92 2.3.92.48 0 .9-.03 1.27-.1s.84-.21 1.4-.44v.7a6 6 0 0 1-2.67.55Zm-.22-8.13c-.82 0-1.47.27-1.97.81s-.78 1.32-.87 2.33h5.25c0-.98-.2-1.75-.64-2.3a2.11 2.11 0 0 0-1.77-.84Zm7.82 7.44c.49 0 .92-.04 1.28-.13v.63c-.37.12-.8.19-1.3.19-.75 0-1.3-.2-1.66-.6-.35-.4-.53-1.04-.53-1.9v-5.48h-1.26v-.45l1.26-.36.39-1.92h.4v2.06h2.5v.67h-2.5v5.38c0 .65.11 1.13.34 1.44.23.31.6.47 1.08.47Zm10.9.69c-1.3 0-2.25-.5-2.85-1.47h-.06l.03.65c.02.39.03.81.03 1.27v3.23h-.78v-12.33h.66l.15 1.2h.04c.59-.9 1.52-1.37 2.8-1.37 1.15 0 2.02.38 2.62 1.14.6.75.9 1.84.9 3.28 0 1.4-.31 2.48-.95 3.25a3.17 3.17 0 0 1-2.58 1.15Zm0-.7c.86 0 1.53-.31 2-.96a4.4 4.4 0 0 0 .72-2.71c0-2.5-.9-3.74-2.7-3.74-.99 0-1.71.27-2.18.82-.46.54-.7 1.42-.7 2.65v.25c0 1.33.23 2.28.67 2.85.45.56 1.18.85 2.18.85Zm12.93-3.72c0 1.39-.34 2.47-1 3.25a3.49 3.49 0 0 1-2.8 1.17 3.44 3.44 0 0 1-3.27-2.09 5.63 5.63 0 0 1-.45-2.33c0-1.38.34-2.46 1.01-3.23a3.46 3.46 0 0 1 2.77-1.17c1.16 0 2.08.4 2.74 1.18.66.79 1 1.86 1 3.22Zm-6.7 0c0 1.17.25 2.08.76 2.74.52.65 1.24.97 2.18.97a2.6 2.6 0 0 0 2.17-.97c.52-.66.78-1.57.78-2.74 0-1.17-.26-2.08-.78-2.72a2.63 2.63 0 0 0-2.19-.97 2.6 2.6 0 0 0-2.17.97c-.5.64-.75 1.55-.75 2.72Zm14.32 2.05c0 .76-.3 1.34-.87 1.76-.58.4-1.4.6-2.46.6a5.87 5.87 0 0 1-2.7-.52v-.83c.85.42 1.75.64 2.7.64a3.5 3.5 0 0 0 1.9-.42c.44-.28.66-.65.66-1.11 0-.43-.17-.79-.52-1.08a5.5 5.5 0 0 0-1.7-.86 9.45 9.45 0 0 1-1.8-.79c-.34-.22-.6-.47-.78-.75a1.93 1.93 0 0 1-.25-1.02c0-.64.26-1.14.8-1.51a3.92 3.92 0 0 1 2.23-.56c.92 0 1.8.18 2.61.52l-.28.7a6.14 6.14 0 0 0-2.33-.51 3.3 3.3 0 0 0-1.64.34c-.41.23-.61.55-.61.95 0 .45.15.8.47 1.07.31.26.93.56 1.85.89a8.9 8.9 0 0 1 1.67.75c.35.22.6.47.78.75.18.28.27.6.27.99Zm2.85-6.28v5.5c0 .85.19 1.47.54 1.87.36.38.92.57 1.68.57 1 0 1.75-.25 2.22-.76.48-.51.72-1.34.72-2.5v-4.68h.77V317h-.66l-.14-1.17h-.05c-.55.88-1.53 1.33-2.94 1.33-1.93 0-2.9-1.04-2.9-3.1v-5.55h.76Zm12.2 8.65c-1.23 0-2.2-.38-2.89-1.14a4.6 4.6 0 0 1-1.03-3.2c0-1.35.33-2.44 1-3.25a3.3 3.3 0 0 1 2.7-1.23c1 0 1.78.35 2.36 1.05.58.7.87 1.65.87 2.84v.63h-6.12c.01 1.17.28 2.06.81 2.67.54.62 1.3.92 2.3.92.49 0 .9-.03 1.27-.1s.84-.21 1.4-.44v.7a6.02 6.02 0 0 1-2.67.55Zm-.23-8.13c-.81 0-1.47.27-1.96.81-.5.54-.79 1.32-.87 2.33h5.25c0-.98-.22-1.75-.64-2.3a2.11 2.11 0 0 0-1.78-.84Zm8.93-.69c.36 0 .74.04 1.15.11l-.15.75a4.55 4.55 0 0 0-1.1-.14c-.72 0-1.32.31-1.78.92-.46.62-.7 1.4-.7 2.33V317h-.77v-8.5h.66l.08 1.54h.05c.35-.63.72-1.06 1.12-1.31.4-.26.87-.39 1.44-.39Zm6.32 8.82c-1.24 0-2.2-.38-2.9-1.14a4.6 4.6 0 0 1-1.03-3.2 5 5 0 0 1 1-3.25 3.3 3.3 0 0 1 2.7-1.23c1 0 1.79.35 2.37 1.05.57.7.86 1.65.86 2.84v.63h-6.11c0 1.17.28 2.06.8 2.67a2.9 2.9 0 0 0 2.3.92c.49 0 .92-.03 1.28-.1.37-.07.83-.21 1.4-.44v.7a6.02 6.02 0 0 1-2.67.55Zm-.23-8.13c-.82 0-1.48.27-1.97.81a3.8 3.8 0 0 0-.87 2.33h5.25c0-.98-.21-1.75-.64-2.3a2.11 2.11 0 0 0-1.77-.84Zm14.89 7.97-.2-1.34H295a4.2 4.2 0 0 1-1.32 1.16 3.6 3.6 0 0 1-1.6.34c-.82 0-1.47-.22-1.94-.64a2.3 2.3 0 0 1-.7-1.78c0-.83.35-1.47 1.04-1.93.7-.46 1.7-.7 3-.72l1.62-.05v-.56c0-.81-.17-1.42-.5-1.83-.32-.41-.85-.62-1.58-.62-.79 0-1.6.22-2.45.66l-.29-.67a6.47 6.47 0 0 1 2.77-.66c.93 0 1.63.24 2.08.73.47.48.7 1.24.7 2.26V317h-.57Zm-3.13-.55a2.9 2.9 0 0 0 2.15-.77 2.9 2.9 0 0 0 .79-2.16v-.84l-1.49.06c-1.2.06-2.04.25-2.55.56-.51.32-.76.8-.76 1.47 0 .54.16.95.48 1.25.33.29.8.43 1.38.43Zm17.07.55v-5.57c0-.83-.16-1.43-.49-1.81-.32-.38-.81-.57-1.48-.57-.87 0-1.51.24-1.93.72-.42.48-.63 1.23-.63 2.25V317h-.79v-5.8c0-1.44-.65-2.15-1.96-2.15-.9 0-1.54.26-1.95.78-.4.51-.6 1.34-.6 2.48V317h-.78v-8.5h.64l.16 1.17h.05a2.4 2.4 0 0 1 1-.98c.43-.23.9-.35 1.43-.35 1.34 0 2.2.5 2.58 1.51h.03a2.9 2.9 0 0 1 1.1-1.12c.48-.26 1-.39 1.6-.39.93 0 1.62.25 2.09.75.46.5.7 1.28.7 2.36V317h-.77Zm6.94.16c-1.23 0-2.2-.38-2.89-1.14a4.6 4.6 0 0 1-1.03-3.2c0-1.35.33-2.44 1-3.25a3.3 3.3 0 0 1 2.7-1.23c1 0 1.78.35 2.36 1.05.58.7.87 1.65.87 2.84v.63h-6.12c.01 1.17.29 2.06.82 2.67.53.62 1.3.92 2.3.92.48 0 .9-.03 1.27-.1s.83-.21 1.4-.44v.7a6.02 6.02 0 0 1-2.68.55Zm-.22-8.13c-.82 0-1.48.27-1.97.81a3.8 3.8 0 0 0-.87 2.33h5.25c0-.98-.21-1.75-.64-2.3a2.11 2.11 0 0 0-1.77-.84Zm7.82 7.44c.49 0 .91-.04 1.28-.13v.63c-.38.12-.8.19-1.3.19-.75 0-1.3-.2-1.66-.6-.36-.4-.53-1.04-.53-1.9v-5.48h-1.26v-.45l1.26-.36.39-1.92h.4v2.06h2.49v.67h-2.5v5.38c0 .65.12 1.13.35 1.44.23.31.59.47 1.08.47Zm4-1.33.09.17a25.89 25.89 0 0 1-1.36 3.75h-.5c.4-1.43.68-2.74.85-3.92h.92Zm17.32 1.86v-5.57c0-.83-.17-1.43-.49-1.81-.32-.38-.81-.57-1.48-.57-.87 0-1.51.24-1.93.72-.42.48-.63 1.23-.63 2.25V317h-.79v-5.8c0-1.44-.65-2.15-1.96-2.15-.9 0-1.54.26-1.95.78-.4.51-.6 1.34-.6 2.48V317h-.78v-8.5h.64l.16 1.17h.05a2.4 2.4 0 0 1 1-.98c.43-.23.9-.35 1.43-.35 1.34 0 2.2.5 2.58 1.51h.03a2.9 2.9 0 0 1 1.1-1.12c.48-.26 1-.39 1.6-.39.93 0 1.62.25 2.09.75.46.5.7 1.28.7 2.36V317h-.77Zm8.67 0-.2-1.34h-.06a4.2 4.2 0 0 1-1.32 1.16 3.6 3.6 0 0 1-1.6.34c-.83 0-1.48-.22-1.94-.64a2.3 2.3 0 0 1-.7-1.78c0-.83.35-1.47 1.04-1.93.69-.46 1.69-.7 3-.72l1.62-.05v-.56c0-.81-.17-1.42-.5-1.83-.33-.41-.85-.62-1.58-.62-.79 0-1.6.22-2.45.66l-.29-.67a6.46 6.46 0 0 1 2.77-.66c.93 0 1.63.24 2.08.73.47.48.7 1.24.7 2.26V317h-.57Zm-3.13-.55c.91 0 1.62-.25 2.14-.77a2.9 2.9 0 0 0 .8-2.16v-.84l-1.5.06a5.8 5.8 0 0 0-2.55.56c-.5.32-.75.8-.75 1.47 0 .54.16.95.48 1.25.33.29.79.43 1.38.43Zm11.72-1.66c0 .76-.29 1.34-.87 1.76-.57.4-1.4.6-2.46.6a5.87 5.87 0 0 1-2.7-.52v-.83c.86.42 1.76.64 2.7.64.84 0 1.48-.14 1.91-.42.44-.28.66-.65.66-1.11 0-.43-.18-.79-.53-1.08-.34-.3-.9-.58-1.7-.86a9.6 9.6 0 0 1-1.79-.79c-.34-.22-.6-.47-.78-.75a1.93 1.93 0 0 1-.26-1.02c0-.64.27-1.14.8-1.51a3.92 3.92 0 0 1 2.24-.56c.92 0 1.79.18 2.61.52l-.29.7a6.14 6.14 0 0 0-2.32-.51c-.7 0-1.24.11-1.65.34-.4.23-.6.55-.6.95 0 .45.15.8.46 1.07.32.26.94.56 1.85.89a8.9 8.9 0 0 1 1.68.75c.35.22.6.47.78.75.17.28.26.6.26.99Zm7.46 0c0 .76-.3 1.34-.87 1.76-.58.4-1.4.6-2.46.6a5.87 5.87 0 0 1-2.7-.52v-.83c.85.42 1.75.64 2.7.64a3.5 3.5 0 0 0 1.9-.42c.44-.28.66-.65.66-1.11 0-.43-.17-.79-.52-1.08-.35-.3-.92-.58-1.7-.86a9.45 9.45 0 0 1-1.8-.79c-.34-.22-.6-.47-.78-.75a1.93 1.93 0 0 1-.25-1.02c0-.64.26-1.14.8-1.51a3.92 3.92 0 0 1 2.23-.56c.92 0 1.8.18 2.61.52l-.28.7a6.14 6.14 0 0 0-2.33-.51 3.3 3.3 0 0 0-1.64.34c-.41.23-.61.55-.61.95 0 .45.15.8.46 1.07.32.26.94.56 1.86.89a8.9 8.9 0 0 1 1.67.75c.35.22.6.47.78.75.18.28.27.6.27.99Zm7.34 2.21-.2-1.34h-.06a4.2 4.2 0 0 1-1.32 1.16 3.6 3.6 0 0 1-1.6.34 2.8 2.8 0 0 1-1.94-.64 2.3 2.3 0 0 1-.7-1.78c0-.83.35-1.47 1.04-1.93.7-.46 1.7-.7 3-.72l1.62-.05v-.56c0-.81-.17-1.42-.5-1.83-.32-.41-.85-.62-1.58-.62-.79 0-1.6.22-2.45.66l-.29-.67a6.46 6.46 0 0 1 2.77-.66c.93 0 1.63.24 2.08.73.47.48.7 1.24.7 2.26V317h-.57Zm-3.13-.55c.91 0 1.62-.25 2.14-.77a2.9 2.9 0 0 0 .8-2.16v-.84l-1.49.06c-1.2.06-2.05.25-2.56.56-.5.32-.75.8-.75 1.47 0 .54.16.95.48 1.25.33.29.8.43 1.38.43Zm6.3-.06c0-.51.21-.76.63-.76.42 0 .64.25.64.76s-.22.77-.64.77c-.42 0-.63-.26-.63-.77Zm-305.3 60.04c0-.9.21-1.6.65-2.07.43-.48 1.06-.72 1.87-.72.8 0 1.42.24 1.86.72.44.48.66 1.17.66 2.07 0 .89-.22 1.57-.67 2.06-.43.49-1.05.73-1.85.73s-1.43-.24-1.87-.73a3 3 0 0 1-.65-2.06Zm25.04 6.57h-7.4v-12.85h7.4v2.23h-4.68v2.82h4.35v2.24h-4.35v3.31h4.68V383Zm11.55 0h-2.68v-5.74c0-.7-.13-1.24-.38-1.59-.25-.36-.66-.54-1.2-.54-.76 0-1.3.26-1.63.76-.34.5-.5 1.33-.5 2.49V383h-2.68v-9.83h2.04l.36 1.26h.15c.3-.47.71-.83 1.23-1.07a4.2 4.2 0 0 1 1.8-.37c1.14 0 2 .31 2.6.93.6.62.89 1.5.89 2.67V383Zm5.87.18a3.2 3.2 0 0 1-2.73-1.35 6.2 6.2 0 0 1-.98-3.73c0-1.6.33-2.86 1-3.76.67-.9 1.6-1.35 2.78-1.35a3.2 3.2 0 0 1 2.83 1.44h.09c-.14-.73-.2-1.38-.2-1.96v-3.15h2.68V383h-2.05l-.52-1.27h-.12a3.07 3.07 0 0 1-2.78 1.45Zm.94-2.14c.68 0 1.18-.2 1.5-.6.32-.4.5-1.07.53-2.03v-.29c0-1.05-.17-1.8-.5-2.27-.32-.45-.84-.68-1.58-.68-.6 0-1.06.25-1.4.76-.32.5-.49 1.24-.49 2.21s.17 1.7.5 2.18c.34.48.82.72 1.44.72Zm12.73 2.14a3.26 3.26 0 0 1-2.71-1.26h-.14c.1.82.14 1.3.14 1.42v3.98h-2.68v-14.15h2.18l.37 1.28h.13a3.1 3.1 0 0 1 2.78-1.46c1.16 0 2.07.45 2.73 1.34.65.9.98 2.15.98 3.74a7.3 7.3 0 0 1-.46 2.73 3.8 3.8 0 0 1-1.31 1.77c-.57.4-1.24.6-2 .6Zm-.79-8.05c-.66 0-1.14.2-1.45.62-.3.4-.46 1.07-.47 2.01v.3c0 1.05.15 1.8.46 2.26.32.46.82.69 1.5.69 1.2 0 1.8-1 1.8-2.98 0-.96-.15-1.69-.45-2.17-.3-.48-.75-.73-1.39-.73Zm8.92 2.94c0 .97.16 1.7.48 2.2.32.5.84.75 1.56.75.72 0 1.23-.24 1.54-.74.32-.5.47-1.23.47-2.21 0-.97-.15-1.7-.47-2.19-.32-.49-.83-.73-1.56-.73-.71 0-1.23.25-1.54.73a4.02 4.02 0 0 0-.48 2.19Zm6.8 0c0 1.6-.42 2.85-1.27 3.75a4.58 4.58 0 0 1-3.52 1.36c-.95 0-1.78-.2-2.5-.62a4.15 4.15 0 0 1-1.66-1.78 5.97 5.97 0 0 1-.58-2.71c0-1.6.42-2.85 1.26-3.75a4.62 4.62 0 0 1 3.53-1.33 5 5 0 0 1 2.5.61c.72.41 1.27 1 1.66 1.77.38.77.58 1.67.58 2.7Zm2.1-7.44c0-.87.48-1.3 1.46-1.3.97 0 1.46.43 1.46 1.3 0 .42-.13.75-.37.98-.24.23-.6.34-1.1.34-.97 0-1.45-.44-1.45-1.32Zm2.8 12.37h-2.69v-9.83h2.68V383Zm11.88 0h-2.68v-5.74c0-.7-.12-1.24-.37-1.59-.26-.36-.66-.54-1.2-.54-.76 0-1.3.26-1.63.76-.34.5-.5 1.33-.5 2.49V383h-2.69v-9.83h2.05l.36 1.26h.15c.3-.47.71-.83 1.23-1.07a4.2 4.2 0 0 1 1.8-.37c1.14 0 2 .31 2.6.93.59.62.88 1.5.88 2.67V383Zm6.9-1.96c.47 0 1.03-.1 1.7-.3v1.99c-.68.3-1.5.45-2.47.45-1.07 0-1.85-.27-2.35-.81-.48-.55-.73-1.36-.73-2.45v-4.73h-1.28v-1.14l1.48-.9.77-2.07h1.72v2.1h2.75v2h-2.75v4.74c0 .38.1.67.31.85.22.18.5.27.85.27Zm11.3-4.84h.9c.83 0 1.46-.17 1.88-.5.41-.33.62-.81.62-1.44 0-.64-.18-1.12-.53-1.42-.34-.3-.89-.46-1.63-.46h-1.24v3.82Zm6.15-2.04c0 1.38-.43 2.44-1.3 3.17-.86.73-2.09 1.1-3.68 1.1h-1.17V383h-2.73v-12.85h4.1c1.57 0 2.75.34 3.56 1.01.81.67 1.22 1.67 1.22 3Zm7.7-1.17c.36 0 .66.03.9.08l-.2 2.51a3.05 3.05 0 0 0-.79-.09c-.85 0-1.52.22-2 .66a2.4 2.4 0 0 0-.72 1.85v5h-2.68v-9.83h2.03l.4 1.66h.13c.3-.56.72-1 1.23-1.33a3.04 3.04 0 0 1 1.7-.51Zm4.82 5.08c0 .97.16 1.7.48 2.2.32.5.84.75 1.56.75.72 0 1.23-.24 1.54-.74.32-.5.48-1.23.48-2.21 0-.97-.16-1.7-.48-2.19-.31-.49-.83-.73-1.55-.73-.72 0-1.23.25-1.55.73a4.03 4.03 0 0 0-.48 2.19Zm6.8 0c0 1.6-.42 2.85-1.27 3.75a4.59 4.59 0 0 1-3.52 1.36c-.94 0-1.78-.2-2.5-.62a4.15 4.15 0 0 1-1.66-1.78 5.97 5.97 0 0 1-.58-2.71c0-1.6.42-2.85 1.26-3.75a4.62 4.62 0 0 1 3.53-1.33c.94 0 1.78.2 2.5.61s1.27 1 1.66 1.77c.38.77.58 1.67.58 2.7Zm6.35 2.97c.47 0 1.03-.1 1.69-.3v1.99a6 6 0 0 1-2.46.45c-1.07 0-1.85-.27-2.35-.81-.48-.55-.73-1.36-.73-2.45v-4.73h-1.28v-1.14l1.48-.9.77-2.07h1.71v2.1h2.76v2h-2.76v4.74c0 .38.1.67.32.85.22.18.5.27.85.27Zm7.75-6.14a1.7 1.7 0 0 0-1.33.54c-.32.36-.5.87-.55 1.53h3.76a2.22 2.22 0 0 0-.52-1.53 1.75 1.75 0 0 0-1.35-.54Zm.38 8.28a5.07 5.07 0 0 1-3.7-1.31c-.9-.88-1.34-2.11-1.34-3.71 0-1.65.4-2.92 1.23-3.82a4.4 4.4 0 0 1 3.42-1.35c1.39 0 2.47.4 3.24 1.19a4.49 4.49 0 0 1 1.16 3.27v1.3h-6.34c.03.77.26 1.36.68 1.79.42.43 1.01.64 1.78.64a7.36 7.36 0 0 0 3.33-.77v2.07c-.47.24-.97.4-1.5.52-.54.12-1.19.18-1.96.18Zm10.18 0c-3.06 0-4.59-1.68-4.59-5.04 0-1.67.42-2.94 1.25-3.82.83-.89 2.03-1.33 3.58-1.33a6.8 6.8 0 0 1 3.06.67l-.8 2.07c-.42-.17-.8-.3-1.17-.41a3.72 3.72 0 0 0-1.1-.17c-1.39 0-2.08 1-2.08 2.97 0 1.92.7 2.88 2.09 2.88a4.67 4.67 0 0 0 2.75-.85v2.3c-.43.27-.87.46-1.32.57-.44.1-1 .16-1.67.16Zm9.41-2.14c.47 0 1.03-.1 1.7-.3v1.99c-.68.3-1.5.45-2.47.45-1.07 0-1.85-.27-2.35-.81-.48-.55-.73-1.36-.73-2.45v-4.73h-1.28v-1.14l1.48-.9.77-2.07h1.72v2.1h2.75v2h-2.75v4.74c0 .38.1.67.31.85.22.18.5.27.85.27Zm3.57-10.4c0-.88.49-1.32 1.46-1.32s1.46.44 1.46 1.31c0 .42-.12.75-.37.98-.24.23-.6.34-1.09.34-.97 0-1.46-.44-1.46-1.32Zm2.8 12.36h-2.68v-9.83h2.68V383Zm4.95-4.93c0 .97.16 1.7.48 2.2.32.5.84.75 1.56.75.72 0 1.23-.24 1.54-.74.32-.5.48-1.23.48-2.21 0-.97-.16-1.7-.48-2.19-.31-.49-.83-.73-1.56-.73-.71 0-1.22.25-1.54.73a4.03 4.03 0 0 0-.48 2.19Zm6.8 0c0 1.6-.42 2.85-1.27 3.75a4.59 4.59 0 0 1-3.52 1.36c-.95 0-1.78-.2-2.5-.62a4.15 4.15 0 0 1-1.66-1.78 5.99 5.99 0 0 1-.58-2.71c0-1.6.42-2.85 1.26-3.75a4.62 4.62 0 0 1 3.53-1.33c.94 0 1.78.2 2.5.61s1.27 1 1.66 1.77c.38.77.58 1.67.58 2.7Zm11.28 4.93h-2.68v-5.74c0-.7-.12-1.24-.38-1.59-.25-.36-.65-.54-1.2-.54-.75 0-1.3.26-1.63.76a4.7 4.7 0 0 0-.5 2.49V383h-2.68v-9.83h2.05l.36 1.26h.15c.3-.47.7-.83 1.23-1.07a4.2 4.2 0 0 1 1.8-.37c1.14 0 2 .31 2.6.93.59.62.88 1.5.88 2.67V383Zm12.87-7.81h-2.32V383h-2.68v-7.81h-1.48v-1.3l1.48-.72v-.72c0-1.12.27-1.93.82-2.45.56-.51 1.44-.77 2.65-.77.93 0 1.75.13 2.47.41l-.69 1.97a5 5 0 0 0-1.49-.26c-.38 0-.65.12-.82.35-.17.22-.26.5-.26.86v.61h2.32v2.02Zm3.68 2.88c0 .97.16 1.7.48 2.2.32.5.84.75 1.56.75.72 0 1.23-.24 1.54-.74.32-.5.47-1.23.47-2.21 0-.97-.15-1.7-.47-2.19-.32-.49-.83-.73-1.56-.73-.71 0-1.23.25-1.54.73a4.03 4.03 0 0 0-.48 2.19Zm6.8 0c0 1.6-.43 2.85-1.27 3.75a4.59 4.59 0 0 1-3.52 1.36c-.95 0-1.78-.2-2.5-.62a4.15 4.15 0 0 1-1.66-1.78 5.99 5.99 0 0 1-.58-2.71c0-1.6.42-2.85 1.26-3.75a4.62 4.62 0 0 1 3.53-1.33c.94 0 1.78.2 2.5.61s1.27 1 1.66 1.77c.38.77.58 1.67.58 2.7Zm7.7-5.08c.36 0 .66.03.9.08l-.2 2.51a3.05 3.05 0 0 0-.8-.09c-.85 0-1.52.22-2 .66a2.4 2.4 0 0 0-.7 1.85v5h-2.69v-9.83h2.03l.4 1.66h.13c.3-.56.71-1 1.23-1.33a3.04 3.04 0 0 1 1.7-.51ZM321.1 383H318l-1.75-6.75a34.1 34.1 0 0 1-.6-3 33.37 33.37 0 0 1-.59 3.02l-1.72 6.73h-3.1l-3.28-12.85h2.69l1.64 7.01c.29 1.3.5 2.42.62 3.37a24.81 24.81 0 0 1 .6-3.18l1.87-7.2h2.58l1.87 7.2a37.08 37.08 0 0 1 .59 3.18 30.04 30.04 0 0 1 .63-3.37l1.64-7.01h2.68L321.1 383Zm6.8-4.93c0 .97.17 1.7.48 2.2.33.5.85.75 1.57.75.71 0 1.23-.24 1.54-.74.31-.5.47-1.23.47-2.21 0-.97-.16-1.7-.47-2.19-.32-.49-.84-.73-1.56-.73-.71 0-1.23.25-1.55.73a4.02 4.02 0 0 0-.47 2.19Zm6.8 0c0 1.6-.42 2.85-1.26 3.75a4.59 4.59 0 0 1-3.53 1.36 4.9 4.9 0 0 1-2.5-.62 4.15 4.15 0 0 1-1.65-1.78 5.97 5.97 0 0 1-.58-2.71c0-1.6.42-2.85 1.25-3.75a4.62 4.62 0 0 1 3.54-1.33 5 5 0 0 1 2.5.61c.71.41 1.27 1 1.65 1.77.39.77.58 1.67.58 2.7Zm7.7-5.08c.37 0 .67.03.9.08l-.2 2.51a3.05 3.05 0 0 0-.79-.09c-.85 0-1.52.22-2 .66a2.4 2.4 0 0 0-.71 1.85v5h-2.68v-9.83h2.03l.4 1.66h.13c.3-.56.71-1 1.23-1.33a3.05 3.05 0 0 1 1.7-.51Zm5.27 4.67 1.17-1.5 2.75-2.99h3.02l-3.9 4.27 4.14 5.56h-3.1l-2.83-3.98-1.15.92V383h-2.68v-13.68h2.68v6.1l-.14 2.24h.04Zm15.44 2.42c0 1.01-.35 1.78-1.06 2.3-.7.53-1.74.8-3.13.8a9.5 9.5 0 0 1-1.83-.15 7.1 7.1 0 0 1-1.42-.43v-2.21a9.44 9.44 0 0 0 3.33.83c.98 0 1.46-.29 1.46-.85a.7.7 0 0 0-.19-.5 2.67 2.67 0 0 0-.67-.46c-.31-.17-.74-.36-1.26-.59a8.03 8.03 0 0 1-1.67-.87 2.53 2.53 0 0 1-.78-.93 3.13 3.13 0 0 1-.23-1.29c0-.87.33-1.55 1-2.02a4.94 4.94 0 0 1 2.89-.72c1.18 0 2.33.26 3.45.77l-.8 1.94c-.5-.21-.96-.39-1.38-.52-.43-.14-.87-.2-1.31-.2-.8 0-1.2.2-1.2.64 0 .24.13.44.39.62.25.18.81.44 1.68.78.76.31 1.33.6 1.68.87.36.27.63.58.8.94a3 3 0 0 1 .25 1.25Zm6.23.96c.47 0 1.03-.1 1.69-.3v1.99a6 6 0 0 1-2.46.45c-1.07 0-1.86-.27-2.35-.81-.49-.55-.73-1.36-.73-2.45v-4.73h-1.28v-1.14l1.48-.9.77-2.07h1.71v2.1h2.75v2h-2.75v4.74c0 .38.1.67.32.85.21.18.5.27.85.27Zm9.92 1.96-.51-1.34h-.07a4 4 0 0 1-1.4 1.2c-.48.2-1.1.32-1.87.32-.94 0-1.68-.27-2.23-.81-.54-.54-.8-1.3-.8-2.3 0-1.05.36-1.82 1.08-2.3.74-.5 1.84-.78 3.3-.83l1.71-.06v-.43c0-1-.5-1.5-1.53-1.5-.78 0-1.7.25-2.76.72l-.9-1.81a8 8 0 0 1 3.77-.89 4.7 4.7 0 0 1 3.03.86c.7.58 1.06 1.45 1.06 2.62V383h-1.88Zm-.79-4.55-1.03.03c-.78.03-1.36.17-1.75.42-.38.26-.57.66-.57 1.18 0 .76.44 1.14 1.3 1.14.63 0 1.12-.18 1.49-.54.38-.36.56-.83.56-1.42v-.81Zm9.57 2.59c.47 0 1.03-.1 1.7-.3v1.99c-.68.3-1.5.45-2.47.45-1.07 0-1.85-.27-2.35-.81-.48-.55-.73-1.36-.73-2.45v-4.73h-1.28v-1.14l1.48-.9.77-2.07h1.71v2.1h2.76v2h-2.75v4.74c0 .38.1.67.31.85.22.18.5.27.85.27Zm3.57-10.4c0-.88.49-1.32 1.46-1.32s1.46.44 1.46 1.31c0 .42-.12.75-.37.98-.24.23-.6.34-1.09.34-.97 0-1.46-.44-1.46-1.32Zm2.8 12.36h-2.68v-9.83h2.68V383Zm4.95-4.93c0 .97.16 1.7.48 2.2.32.5.84.75 1.56.75.72 0 1.23-.24 1.54-.74.32-.5.48-1.23.48-2.21 0-.97-.16-1.7-.48-2.19-.31-.49-.83-.73-1.55-.73-.72 0-1.24.25-1.55.73a4.02 4.02 0 0 0-.48 2.19Zm6.8 0c0 1.6-.42 2.85-1.27 3.75a4.59 4.59 0 0 1-3.52 1.36c-.94 0-1.78-.2-2.5-.62a4.15 4.15 0 0 1-1.66-1.78 5.97 5.97 0 0 1-.58-2.71c0-1.6.42-2.85 1.26-3.75a4.62 4.62 0 0 1 3.53-1.33c.94 0 1.78.2 2.5.61s1.27 1 1.66 1.77c.38.77.58 1.67.58 2.7Zm11.28 4.93h-2.68v-5.74c0-.7-.12-1.24-.38-1.59-.25-.36-.65-.54-1.2-.54-.75 0-1.3.26-1.63.76a4.7 4.7 0 0 0-.5 2.49V383h-2.68v-9.83h2.05l.36 1.26h.15c.3-.47.71-.83 1.23-1.07a4.2 4.2 0 0 1 1.8-.37c1.14 0 2 .31 2.6.93.59.62.88 1.5.88 2.67V383Zm9.62-2.92c0 1.01-.35 1.78-1.06 2.3-.7.53-1.74.8-3.13.8a9.5 9.5 0 0 1-1.83-.15 7.1 7.1 0 0 1-1.42-.43v-2.21a9.47 9.47 0 0 0 3.33.83c.98 0 1.46-.29 1.46-.85a.69.69 0 0 0-.19-.5 2.67 2.67 0 0 0-.67-.46c-.31-.17-.74-.36-1.26-.59a8.05 8.05 0 0 1-1.67-.87 2.53 2.53 0 0 1-.78-.93 3.14 3.14 0 0 1-.23-1.29c0-.87.33-1.55 1-2.02a4.94 4.94 0 0 1 2.89-.72c1.18 0 2.33.26 3.45.77l-.8 1.94c-.5-.21-.96-.39-1.38-.52-.43-.14-.87-.2-1.31-.2-.8 0-1.2.2-1.2.64 0 .24.13.44.39.62.25.18.81.44 1.68.78.76.31 1.32.6 1.68.87.36.27.62.58.8.94a3 3 0 0 1 .25 1.25ZM98.65 408l-.52-1.34h-.07a4 4 0 0 1-1.4 1.2c-.47.2-1.1.32-1.86.32-.95 0-1.7-.27-2.24-.81-.53-.54-.8-1.3-.8-2.3 0-1.05.36-1.82 1.09-2.3.73-.5 1.83-.78 3.3-.83l1.7-.06v-.43c0-1-.5-1.5-1.52-1.5-.79 0-1.71.25-2.77.72l-.89-1.81a8 8 0 0 1 3.76-.89 4.7 4.7 0 0 1 3.03.86c.7.58 1.06 1.45 1.06 2.62V408h-1.87Zm-.8-4.55-1.03.03c-.78.03-1.36.17-1.74.42-.38.26-.57.66-.57 1.18 0 .76.43 1.14 1.3 1.14.62 0 1.11-.18 1.48-.54.38-.36.57-.83.57-1.42v-.81Zm14.5 4.55h-2.67v-5.74c0-.7-.13-1.24-.38-1.59-.25-.36-.65-.54-1.2-.54-.75 0-1.3.26-1.63.76a4.7 4.7 0 0 0-.5 2.49V408h-2.68v-9.83h2.04l.36 1.26h.16c.3-.47.7-.83 1.23-1.07a4.2 4.2 0 0 1 1.79-.37c1.14 0 2 .31 2.6.93.6.62.89 1.5.89 2.67V408Zm5.88.18a3.2 3.2 0 0 1-2.73-1.35 6.2 6.2 0 0 1-.98-3.73c0-1.6.33-2.86 1-3.76.67-.9 1.6-1.35 2.78-1.35a3.2 3.2 0 0 1 2.83 1.44h.09c-.14-.73-.2-1.38-.2-1.96v-3.15h2.68V408h-2.05l-.52-1.27h-.11a3.07 3.07 0 0 1-2.8 1.45Zm.94-2.14c.68 0 1.19-.2 1.5-.6.32-.4.5-1.07.53-2.03v-.29c0-1.05-.17-1.8-.5-2.27-.31-.45-.84-.68-1.58-.68-.6 0-1.06.25-1.4.76-.32.5-.48 1.24-.48 2.21s.16 1.7.5 2.18c.33.48.8.72 1.43.72Zm19.8-1.6c0 1.15-.4 2.07-1.25 2.73a5.4 5.4 0 0 1-3.48 1 8.17 8.17 0 0 1-3.64-.77v-2.53a15 15 0 0 0 2.2.82c.6.16 1.16.24 1.65.24.6 0 1.06-.12 1.37-.35.33-.23.49-.56.49-1.02 0-.25-.07-.47-.21-.66a2.3 2.3 0 0 0-.63-.58c-.27-.18-.82-.47-1.66-.87a7.92 7.92 0 0 1-1.77-1.06 4 4 0 0 1-.94-1.19 3.39 3.39 0 0 1-.35-1.58c0-1.13.39-2.03 1.15-2.68a4.82 4.82 0 0 1 3.2-.97c.67 0 1.3.07 1.91.23.61.16 1.25.38 1.9.67l-.87 2.12c-.69-.28-1.25-.48-1.7-.59a5.44 5.44 0 0 0-1.32-.17c-.52 0-.92.12-1.2.36-.27.24-.4.56-.4.94 0 .24.05.46.16.64.11.17.29.35.53.52.25.16.82.46 1.73.9a6.84 6.84 0 0 1 2.47 1.72c.45.58.67 1.28.67 2.12Zm6.2-4.54a1.7 1.7 0 0 0-1.34.54c-.32.36-.5.87-.55 1.53h3.76a2.23 2.23 0 0 0-.52-1.53 1.75 1.75 0 0 0-1.35-.54Zm.38 8.28a5.07 5.07 0 0 1-3.71-1.31c-.9-.88-1.34-2.11-1.34-3.71 0-1.65.41-2.92 1.23-3.82a4.4 4.4 0 0 1 3.42-1.35c1.39 0 2.47.4 3.24 1.19a4.5 4.5 0 0 1 1.16 3.27v1.3h-6.33c.03.77.25 1.36.67 1.79.42.43 1.02.64 1.78.64a7.38 7.38 0 0 0 3.33-.77v2.07c-.47.24-.97.4-1.5.52-.54.12-1.19.18-1.96.18Zm11.67-10.2c.36 0 .66.04.9.09l-.2 2.51a3.06 3.06 0 0 0-.8-.09c-.85 0-1.52.22-2 .66a2.4 2.4 0 0 0-.7 1.85v5h-2.69v-9.83h2.03l.4 1.66h.13c.3-.56.72-1 1.23-1.33a3.04 3.04 0 0 1 1.7-.51Zm5.02 10.02-3.74-9.83h2.8l1.9 5.6a10 10 0 0 1 .4 2.02h.05c.03-.57.16-1.24.4-2.02l1.89-5.6h2.8l-3.75 9.83h-2.75Zm11.98-8.1a1.7 1.7 0 0 0-1.33.54c-.32.36-.5.87-.56 1.53h3.77a2.22 2.22 0 0 0-.52-1.53 1.75 1.75 0 0 0-1.36-.54Zm.38 8.28a5.07 5.07 0 0 1-3.7-1.31c-.9-.88-1.34-2.11-1.34-3.71 0-1.65.4-2.92 1.23-3.82a4.4 4.4 0 0 1 3.42-1.35c1.38 0 2.47.4 3.24 1.19a4.49 4.49 0 0 1 1.16 3.27v1.3h-6.34c.03.77.26 1.36.68 1.79.42.43 1.01.64 1.78.64a7.37 7.37 0 0 0 3.33-.77v2.07c-.47.24-.97.4-1.5.52-.54.12-1.2.18-1.96.18Zm11.67-10.2c.37 0 .67.04.9.09l-.2 2.51a3.06 3.06 0 0 0-.78-.09c-.86 0-1.53.22-2 .66a2.4 2.4 0 0 0-.72 1.85v5h-2.68v-9.83h2.03l.4 1.66h.13c.3-.56.71-1 1.23-1.33a3.05 3.05 0 0 1 1.7-.51Zm9.55 7.1c0 1.01-.35 1.78-1.06 2.3-.7.53-1.74.8-3.13.8a9.5 9.5 0 0 1-1.83-.15 7.1 7.1 0 0 1-1.42-.43v-2.21a9.44 9.44 0 0 0 3.33.83c.98 0 1.46-.29 1.46-.85a.69.69 0 0 0-.2-.5 2.64 2.64 0 0 0-.66-.46c-.31-.17-.74-.36-1.26-.59a8.03 8.03 0 0 1-1.67-.87 2.53 2.53 0 0 1-.78-.93 3.13 3.13 0 0 1-.23-1.29c0-.87.33-1.55 1-2.02a4.94 4.94 0 0 1 2.89-.72c1.18 0 2.33.26 3.45.77l-.8 1.94c-.5-.21-.96-.39-1.39-.52a4.1 4.1 0 0 0-1.3-.2c-.8 0-1.2.2-1.2.64 0 .24.13.44.39.62.25.18.81.44 1.68.78.76.31 1.32.6 1.68.87.36.27.62.58.8.94a3 3 0 0 1 .25 1.25ZM74.98 426.43c0-.9.21-1.6.65-2.07.43-.48 1.06-.72 1.87-.72.8 0 1.42.24 1.86.72.44.48.66 1.17.66 2.07 0 .89-.22 1.57-.67 2.06-.43.49-1.05.73-1.85.73s-1.43-.24-1.87-.73a3 3 0 0 1-.65-2.06Zm20.36-.23h.9c.84 0 1.46-.17 1.88-.5.42-.33.62-.81.62-1.44 0-.64-.17-1.12-.52-1.42-.35-.3-.9-.46-1.64-.46h-1.24v3.82Zm6.15-2.04c0 1.38-.43 2.44-1.3 3.17-.86.73-2.09 1.1-3.68 1.1h-1.17V433h-2.72v-12.85h4.1c1.56 0 2.74.34 3.55 1.01.82.67 1.22 1.67 1.22 3Zm7.7-1.17c.37 0 .67.03.9.08l-.2 2.51a3.05 3.05 0 0 0-.78-.09c-.86 0-1.53.22-2 .66a2.4 2.4 0 0 0-.72 1.85v5h-2.68v-9.83h2.03l.4 1.66h.13c.3-.56.71-1 1.23-1.33a3.05 3.05 0 0 1 1.7-.51Zm4.83 5.08c0 .97.16 1.7.47 2.2.33.5.85.75 1.57.75.71 0 1.22-.24 1.54-.74.31-.5.47-1.23.47-2.21 0-.97-.16-1.7-.47-2.19-.32-.49-.84-.73-1.56-.73-.72 0-1.23.25-1.55.73a4.03 4.03 0 0 0-.47 2.19Zm6.8 0c0 1.6-.43 2.85-1.27 3.75a4.59 4.59 0 0 1-3.53 1.36 4.9 4.9 0 0 1-2.5-.62 4.15 4.15 0 0 1-1.66-1.78 5.99 5.99 0 0 1-.58-2.71c0-1.6.42-2.85 1.26-3.75a4.62 4.62 0 0 1 3.53-1.33c.95 0 1.78.2 2.5.61s1.28 1 1.66 1.77c.39.77.58 1.67.58 2.7Zm8.45 4.93-.52-1.34h-.07a4 4 0 0 1-1.4 1.2c-.47.2-1.1.32-1.86.32-.95 0-1.69-.27-2.23-.81s-.81-1.3-.81-2.3c0-1.05.36-1.82 1.09-2.3.73-.5 1.83-.78 3.3-.83l1.7-.06v-.43c0-1-.5-1.5-1.52-1.5-.79 0-1.71.25-2.77.72l-.89-1.81a8 8 0 0 1 3.76-.89c1.32 0 2.33.29 3.04.86.7.58 1.05 1.45 1.05 2.62V433h-1.87Zm-.8-4.55-1.03.03c-.78.03-1.36.17-1.74.42-.38.26-.57.66-.57 1.18 0 .76.43 1.14 1.3 1.14.62 0 1.11-.18 1.48-.54.38-.36.57-.83.57-1.42v-.81Zm9.43 4.73c-3.06 0-4.59-1.68-4.59-5.04 0-1.67.42-2.94 1.25-3.82.83-.89 2.02-1.33 3.58-1.33 1.13 0 2.15.22 3.05.67l-.79 2.07c-.42-.17-.81-.3-1.17-.41a3.72 3.72 0 0 0-1.1-.17c-1.39 0-2.09 1-2.09 2.97 0 1.92.7 2.88 2.1 2.88a4.7 4.7 0 0 0 2.75-.85v2.3c-.44.27-.88.46-1.32.57-.44.1-1 .16-1.67.16Zm9.41-2.14c.47 0 1.03-.1 1.69-.3v1.99a6 6 0 0 1-2.46.45c-1.07 0-1.86-.27-2.35-.81-.48-.55-.73-1.36-.73-2.45v-4.73h-1.28v-1.14l1.47-.9.78-2.07h1.71v2.1h2.75v2h-2.75v4.74c0 .38.1.67.32.85.22.18.5.27.85.27Zm3.57-10.4c0-.88.49-1.32 1.46-1.32s1.46.44 1.46 1.31c0 .42-.13.75-.37.98-.24.23-.6.34-1.1.34-.96 0-1.45-.44-1.45-1.32Zm2.8 12.36h-2.69v-9.83h2.69V433Zm5.15 0-3.74-9.83h2.8l1.9 5.6a10 10 0 0 1 .4 2.02h.05c.03-.57.16-1.24.4-2.02l1.89-5.6h2.8l-3.75 9.83h-2.75Zm11.98-8.1a1.7 1.7 0 0 0-1.33.54c-.32.36-.5.87-.56 1.53h3.77a2.22 2.22 0 0 0-.52-1.53 1.75 1.75 0 0 0-1.36-.54Zm.38 8.28a5.07 5.07 0 0 1-3.7-1.31c-.9-.88-1.34-2.11-1.34-3.71 0-1.65.4-2.92 1.23-3.82a4.4 4.4 0 0 1 3.42-1.35c1.38 0 2.47.4 3.24 1.19a4.5 4.5 0 0 1 1.16 3.27v1.3h-6.34c.03.77.26 1.36.68 1.79.42.43 1.01.64 1.77.64a7.37 7.37 0 0 0 3.34-.77v2.07c-.47.24-.97.4-1.5.52-.54.12-1.2.18-1.96.18Zm16.52-.18-3.1-10.08h-.08c.12 2.05.17 3.42.17 4.1V433h-2.43v-12.85h3.7l3.05 9.83h.05l3.22-9.83H196V433h-2.54v-6.08a62.9 62.9 0 0 1 .13-3.98h-.07L190.2 433h-2.5Zm17.56 0-.51-1.34h-.07a4 4 0 0 1-1.4 1.2c-.48.2-1.1.32-1.86.32-.95 0-1.7-.27-2.24-.81-.54-.54-.8-1.3-.8-2.3 0-1.05.36-1.82 1.09-2.3.73-.5 1.83-.78 3.3-.83l1.7-.06v-.43c0-1-.5-1.5-1.52-1.5-.79 0-1.71.25-2.77.72l-.9-1.81a8 8 0 0 1 3.77-.89 4.7 4.7 0 0 1 3.03.86c.7.58 1.06 1.45 1.06 2.62V433h-1.88Zm-.79-4.55-1.03.03c-.78.03-1.36.17-1.74.42-.38.26-.57.66-.57 1.18 0 .76.43 1.14 1.3 1.14.62 0 1.11-.18 1.48-.54.38-.36.56-.83.56-1.42v-.81Zm5.32-7.82c0-.87.49-1.3 1.46-1.3s1.46.43 1.46 1.3c0 .42-.12.75-.37.98-.24.23-.6.34-1.09.34-.97 0-1.46-.44-1.46-1.32Zm2.8 12.37h-2.68v-9.83h2.68V433Zm11.89 0h-2.68v-5.74c0-.7-.13-1.24-.38-1.59-.25-.36-.65-.54-1.2-.54-.75 0-1.3.26-1.63.76a4.7 4.7 0 0 0-.5 2.49V433h-2.68v-9.83h2.05l.36 1.26h.15c.3-.47.7-.83 1.23-1.07a4.2 4.2 0 0 1 1.79-.37c1.14 0 2 .31 2.6.93.6.62.89 1.5.89 2.67V433Zm6.9-1.96c.47 0 1.03-.1 1.69-.3v1.99c-.67.3-1.5.45-2.47.45-1.07 0-1.85-.27-2.34-.81-.49-.55-.73-1.36-.73-2.45v-4.73h-1.28v-1.14l1.47-.9.78-2.07h1.7v2.1h2.76v2h-2.75v4.74c0 .38.1.67.31.85.22.18.5.27.86.27Zm7.75-6.14a1.7 1.7 0 0 0-1.34.54c-.32.36-.5.87-.55 1.53h3.76a2.22 2.22 0 0 0-.52-1.53 1.75 1.75 0 0 0-1.35-.54Zm.38 8.28a5.07 5.07 0 0 1-3.71-1.31c-.9-.88-1.34-2.11-1.34-3.71 0-1.65.41-2.92 1.23-3.82a4.4 4.4 0 0 1 3.42-1.35c1.4 0 2.47.4 3.25 1.19a4.49 4.49 0 0 1 1.16 3.27v1.3h-6.34c.03.77.25 1.36.68 1.79.42.43 1 .64 1.77.64a7.37 7.37 0 0 0 3.33-.77v2.07c-.47.24-.97.4-1.5.52s-1.19.18-1.95.18Zm15.25-.18h-2.68v-5.74c0-.7-.12-1.24-.37-1.59-.25-.36-.66-.54-1.2-.54-.76 0-1.3.26-1.63.76-.34.5-.5 1.33-.5 2.49V433h-2.68v-9.83h2.04l.36 1.26h.15c.3-.47.71-.83 1.23-1.07a4.2 4.2 0 0 1 1.8-.37c1.14 0 2 .31 2.6.93.59.62.89 1.5.89 2.67V433Zm9 0-.51-1.34h-.07a4 4 0 0 1-1.4 1.2c-.48.2-1.1.32-1.86.32-.95 0-1.7-.27-2.24-.81-.54-.54-.8-1.3-.8-2.3 0-1.05.36-1.82 1.09-2.3.73-.5 1.83-.78 3.3-.83l1.7-.06v-.43c0-1-.5-1.5-1.53-1.5-.78 0-1.7.25-2.76.72l-.9-1.81a8 8 0 0 1 3.77-.89 4.7 4.7 0 0 1 3.03.86c.7.58 1.06 1.45 1.06 2.62V433h-1.88Zm-.79-4.55-1.03.03c-.78.03-1.36.17-1.74.42-.38.26-.57.66-.57 1.18 0 .76.43 1.14 1.3 1.14.62 0 1.11-.18 1.48-.54.38-.36.56-.83.56-1.42v-.81Zm14.5 4.55h-2.67v-5.74c0-.7-.13-1.24-.38-1.59-.25-.36-.66-.54-1.2-.54-.76 0-1.3.26-1.63.76-.34.5-.5 1.33-.5 2.49V433h-2.68v-9.83h2.04l.36 1.26h.15c.3-.47.71-.83 1.23-1.07a4.2 4.2 0 0 1 1.8-.37c1.14 0 2 .31 2.6.93.59.62.89 1.5.89 2.67V433Zm6.76.18c-3.06 0-4.6-1.68-4.6-5.04 0-1.67.42-2.94 1.26-3.82.83-.89 2.02-1.33 3.57-1.33 1.14 0 2.16.22 3.06.67l-.79 2.07c-.42-.17-.81-.3-1.18-.41a3.7 3.7 0 0 0-1.09-.17c-1.4 0-2.09 1-2.09 2.97 0 1.92.7 2.88 2.1 2.88a4.75 4.75 0 0 0 2.74-.85v2.3c-.43.27-.87.46-1.31.57-.44.1-1 .16-1.67.16Zm9.34-8.28a1.7 1.7 0 0 0-1.34.54c-.32.36-.5.87-.55 1.53h3.76a2.22 2.22 0 0 0-.52-1.53 1.75 1.75 0 0 0-1.35-.54Zm.38 8.28a5.07 5.07 0 0 1-3.71-1.31c-.9-.88-1.34-2.11-1.34-3.71 0-1.65.41-2.92 1.23-3.82a4.4 4.4 0 0 1 3.42-1.35c1.39 0 2.47.4 3.25 1.19a4.5 4.5 0 0 1 1.15 3.27v1.3h-6.33c.03.77.25 1.36.68 1.79.42.43 1 .64 1.77.64a7.38 7.38 0 0 0 3.33-.77v2.07c-.47.24-.97.4-1.5.52-.54.12-1.19.18-1.95.18ZM74.98 451.43c0-.9.21-1.6.65-2.07.43-.48 1.06-.72 1.87-.72.8 0 1.42.24 1.86.72.44.48.66 1.17.66 2.07 0 .89-.22 1.57-.67 2.06-.43.49-1.05.73-1.85.73s-1.43-.24-1.87-.73a3 3 0 0 1-.65-2.06Zm25.5 6.57-.93-3.06h-4.68l-.93 3.06H91l4.54-12.9h3.33l4.55 12.9h-2.94Zm-1.58-5.34a2475 2475 0 0 1-1.46-4.7l-.23-.87c-.19.75-.74 2.6-1.66 5.57h3.35Zm12.9 5.34-.36-1.26h-.15c-.28.46-.69.81-1.22 1.07-.52.24-1.13.37-1.8.37-1.15 0-2.02-.31-2.61-.93-.59-.62-.88-1.5-.88-2.67v-6.4h2.68v5.73c0 .71.13 1.24.38 1.6.25.35.65.53 1.2.53.75 0 1.3-.25 1.63-.75.33-.5.5-1.33.5-2.5v-4.62h2.68V458h-2.05Zm9-1.96c.47 0 1.03-.1 1.7-.3v1.99c-.68.3-1.5.45-2.47.45-1.07 0-1.85-.27-2.35-.81-.48-.55-.73-1.36-.73-2.45v-4.73h-1.28v-1.14l1.48-.9.77-2.07h1.72v2.1h2.75v2h-2.75v4.74c0 .38.1.67.31.85.22.18.5.27.85.27Zm5.82-2.97c0 .97.16 1.7.48 2.2.32.5.84.75 1.56.75.72 0 1.23-.24 1.54-.74.32-.5.47-1.23.47-2.21 0-.97-.15-1.7-.47-2.19-.32-.49-.84-.73-1.56-.73-.71 0-1.23.25-1.54.73a4.02 4.02 0 0 0-.48 2.19Zm6.8 0c0 1.6-.43 2.85-1.27 3.75a4.58 4.58 0 0 1-3.52 1.36c-.95 0-1.78-.2-2.5-.62a4.14 4.14 0 0 1-1.66-1.78 5.97 5.97 0 0 1-.58-2.71c0-1.6.42-2.85 1.26-3.75a4.62 4.62 0 0 1 3.53-1.33 5 5 0 0 1 2.5.61c.72.41 1.27 1 1.66 1.77.38.77.58 1.67.58 2.7Zm11 4.93h-2.67v-5.74c0-.7-.12-1.24-.36-1.59-.24-.36-.6-.54-1.12-.54-.68 0-1.18.26-1.5.76-.3.5-.46 1.33-.46 2.49V458h-2.68v-9.83h2.05l.36 1.26h.15c.26-.45.64-.8 1.14-1.05.5-.26 1.07-.4 1.71-.4 1.48 0 2.47.49 3 1.45h.23a2.6 2.6 0 0 1 1.16-1.06 3.9 3.9 0 0 1 1.74-.38c1.11 0 1.96.29 2.52.86.58.57.87 1.48.87 2.74V458h-2.7v-5.74c0-.7-.12-1.24-.36-1.59-.23-.36-.6-.54-1.11-.54a1.7 1.7 0 0 0-1.48.7 4.1 4.1 0 0 0-.48 2.24V458Zm15.14 0-.52-1.34h-.07a4 4 0 0 1-1.4 1.2c-.48.2-1.1.32-1.86.32-.95 0-1.7-.27-2.24-.81-.54-.54-.8-1.3-.8-2.3 0-1.05.36-1.82 1.08-2.3.74-.5 1.84-.78 3.3-.83l1.71-.06v-.43c0-1-.5-1.5-1.53-1.5-.78 0-1.7.25-2.76.72l-.9-1.81a8 8 0 0 1 3.77-.89 4.7 4.7 0 0 1 3.03.86c.7.58 1.06 1.45 1.06 2.62V458h-1.88Zm-.8-4.55-1.03.03c-.78.03-1.36.17-1.74.42-.39.26-.58.66-.58 1.18 0 .76.44 1.14 1.3 1.14.63 0 1.12-.18 1.5-.54.37-.36.55-.83.55-1.42v-.81Zm9.58 2.59c.46 0 1.03-.1 1.68-.3v1.99a6 6 0 0 1-2.46.45c-1.07 0-1.85-.27-2.34-.81-.5-.55-.73-1.36-.73-2.45v-4.73h-1.29v-1.14l1.48-.9.77-2.07h1.72v2.1h2.75v2h-2.75v4.74c0 .38.1.67.31.85.22.18.5.27.86.27Zm7.75-6.14a1.7 1.7 0 0 0-1.34.54c-.32.36-.5.87-.55 1.53h3.76a2.22 2.22 0 0 0-.52-1.53 1.75 1.75 0 0 0-1.35-.54Zm.38 8.28a5.07 5.07 0 0 1-3.71-1.31c-.9-.88-1.34-2.11-1.34-3.71 0-1.65.41-2.92 1.23-3.82a4.4 4.4 0 0 1 3.42-1.35c1.39 0 2.47.4 3.24 1.19a4.45 4.45 0 0 1 1.16 3.27v1.3h-6.33c.03.77.25 1.36.67 1.79.42.43 1.02.64 1.78.64a7.38 7.38 0 0 0 3.33-.77v2.07c-.47.24-.97.4-1.5.52-.54.12-1.19.18-1.95.18Zm9.3 0a3.2 3.2 0 0 1-2.73-1.35 6.2 6.2 0 0 1-.98-3.73c0-1.6.33-2.86 1-3.76.67-.9 1.6-1.35 2.77-1.35a3.2 3.2 0 0 1 2.83 1.44h.1a10.5 10.5 0 0 1-.21-1.96v-3.15h2.69V458h-2.06l-.52-1.27h-.11a3.07 3.07 0 0 1-2.79 1.45Zm.93-2.14c.69 0 1.2-.2 1.5-.6.33-.4.5-1.07.53-2.03v-.29c0-1.05-.16-1.8-.49-2.27-.32-.45-.85-.68-1.58-.68-.6 0-1.06.25-1.4.76-.32.5-.49 1.24-.49 2.21s.17 1.7.5 2.18c.33.48.81.72 1.43.72Zm14.95-4.84h.9c.84 0 1.47-.17 1.88-.5.42-.33.63-.81.63-1.44 0-.64-.18-1.12-.53-1.42-.35-.3-.9-.46-1.64-.46h-1.24v3.82Zm6.16-2.04c0 1.38-.44 2.44-1.3 3.17-.86.73-2.1 1.1-3.69 1.1h-1.17V458h-2.72v-12.85h4.1c1.56 0 2.75.34 3.56 1.01.8.67 1.22 1.67 1.22 3Zm8.45 8.84-.52-1.34h-.07a4 4 0 0 1-1.4 1.2c-.47.2-1.09.32-1.86.32-.94 0-1.69-.27-2.23-.81s-.8-1.3-.8-2.3c0-1.05.35-1.82 1.08-2.3.73-.5 1.83-.78 3.3-.83l1.71-.06v-.43c0-1-.5-1.5-1.53-1.5-.78 0-1.7.25-2.77.72l-.88-1.81a8 8 0 0 1 3.76-.89c1.31 0 2.33.29 3.03.86.7.58 1.05 1.45 1.05 2.62V458h-1.87Zm-.79-4.55-1.04.03c-.78.03-1.36.17-1.74.42-.38.26-.57.66-.57 1.18 0 .76.44 1.14 1.3 1.14.62 0 1.12-.18 1.49-.54.37-.36.56-.83.56-1.42v-.81Zm9.57 2.59c.47 0 1.03-.1 1.69-.3v1.99a6 6 0 0 1-2.46.45c-1.07 0-1.86-.27-2.35-.81-.48-.55-.73-1.36-.73-2.45v-4.73h-1.28v-1.14l1.48-.9.77-2.07h1.71v2.1h2.75v2h-2.75v4.74c0 .38.1.67.32.85.22.18.5.27.85.27Zm7.68 2.14c-3.06 0-4.6-1.68-4.6-5.04 0-1.67.42-2.94 1.25-3.82.84-.89 2.03-1.33 3.58-1.33 1.14 0 2.16.22 3.06.67l-.79 2.07c-.42-.17-.81-.3-1.18-.41a3.71 3.71 0 0 0-1.09-.17c-1.4 0-2.09 1-2.09 2.97 0 1.92.7 2.88 2.1 2.88.5 0 .98-.06 1.42-.2a5.3 5.3 0 0 0 1.32-.65v2.3a4.3 4.3 0 0 1-1.31.57c-.44.1-1 .16-1.67.16Zm14.34-.18h-2.68v-5.74c0-1.42-.53-2.13-1.58-2.13-.75 0-1.3.26-1.63.77-.33.5-.5 1.33-.5 2.48V458h-2.68v-13.68h2.68v2.79l-.06 1.53-.06.8h.14c.6-.97 1.54-1.45 2.84-1.45 1.16 0 2.03.31 2.63.93.6.62.9 1.51.9 2.67V458Zm2.64-12.37c0-.87.49-1.3 1.46-1.3.98 0 1.46.43 1.46 1.3 0 .42-.12.75-.37.98-.24.23-.6.34-1.09.34-.97 0-1.46-.44-1.46-1.32Zm2.8 12.37h-2.68v-9.83h2.68V458Zm11.9 0h-2.69v-5.74c0-.7-.13-1.24-.38-1.59-.25-.36-.65-.54-1.2-.54-.75 0-1.3.26-1.63.76a4.7 4.7 0 0 0-.5 2.49V458h-2.68v-9.83h2.05l.36 1.26h.15c.3-.47.7-.83 1.23-1.07a4.2 4.2 0 0 1 1.8-.37c1.13 0 2 .31 2.6.93.59.62.88 1.5.88 2.67V458Zm11.3-9.83v1.37l-1.54.4c.28.43.43.92.43 1.47 0 1.05-.37 1.88-1.11 2.47a4.8 4.8 0 0 1-3.06.88l-.48-.03-.4-.04c-.27.2-.41.44-.41.7 0 .39.49.58 1.47.58h1.67c1.08 0 1.9.23 2.47.7.56.46.85 1.14.85 2.03 0 1.15-.48 2.04-1.44 2.68-.96.63-2.33.94-4.13.94a5.71 5.71 0 0 1-3.14-.72 2.27 2.27 0 0 1-1.08-2c0-.6.18-1.09.55-1.49.37-.4.91-.68 1.63-.85a1.8 1.8 0 0 1-.72-.57c-.2-.27-.31-.55-.31-.85 0-.38.1-.69.32-.93.22-.26.53-.5.94-.74a2.67 2.67 0 0 1-1.23-1.07 3.3 3.3 0 0 1-.44-1.75c0-1.07.34-1.9 1.04-2.48.7-.59 1.7-.88 2.99-.88a9.83 9.83 0 0 1 1.7.19h3.43Zm-7.58 11.22c0 .37.17.66.52.87a3 3 0 0 0 1.5.31c.96 0 1.71-.13 2.26-.39.54-.26.81-.62.81-1.08 0-.37-.16-.63-.48-.77a3.95 3.95 0 0 0-1.5-.2h-1.38c-.5 0-.9.1-1.24.34-.33.23-.5.54-.5.92Zm.97-8c0 .53.12.96.36 1.27.25.3.62.46 1.12.46.5 0 .87-.15 1.1-.46.24-.31.36-.74.36-1.27 0-1.18-.49-1.77-1.46-1.77-.99 0-1.48.59-1.48 1.77ZM74.98 476.43c0-.9.21-1.6.65-2.07.43-.48 1.06-.72 1.87-.72.8 0 1.42.24 1.86.72.44.48.66 1.17.66 2.07 0 .89-.22 1.57-.67 2.06-.43.49-1.05.73-1.85.73s-1.43-.24-1.87-.73a3 3 0 0 1-.65-2.06Zm30.15 6.57h-3.1l-1.74-6.75a35.62 35.62 0 0 1-.6-3 34.27 34.27 0 0 1-.59 3.02L97.37 483h-3.1L91 470.15h2.68l1.64 7.01c.3 1.3.5 2.42.63 3.37a25.02 25.02 0 0 1 .6-3.18l1.87-7.2h2.57l1.88 7.2a35.75 35.75 0 0 1 .59 3.18 30.04 30.04 0 0 1 .63-3.37l1.63-7.01h2.68L105.13 483Zm8.75-8.1a1.7 1.7 0 0 0-1.34.54c-.32.36-.5.87-.55 1.53h3.76a2.22 2.22 0 0 0-.52-1.53 1.75 1.75 0 0 0-1.35-.54Zm.38 8.28a5.07 5.07 0 0 1-3.71-1.31c-.9-.88-1.34-2.11-1.34-3.71 0-1.65.41-2.92 1.23-3.82a4.4 4.4 0 0 1 3.42-1.35c1.39 0 2.47.4 3.24 1.19a4.5 4.5 0 0 1 1.16 3.27v1.3h-6.33c.03.77.25 1.36.67 1.79a2.4 2.4 0 0 0 1.78.64 7.38 7.38 0 0 0 3.33-.77v2.07c-.47.24-.97.4-1.5.52-.54.12-1.19.18-1.95.18Zm11.65-10.2c1.16 0 2.07.46 2.72 1.37.66.9.99 2.14.99 3.72 0 1.62-.34 2.88-1.02 3.77a3.28 3.28 0 0 1-2.76 1.34 3.26 3.26 0 0 1-2.72-1.26h-.18l-.45 1.08h-2.05v-13.68h2.68v3.19c0 .4-.03 1.05-.1 1.94h.1a3.1 3.1 0 0 1 2.79-1.46Zm-.86 2.15c-.66 0-1.15.2-1.45.62-.3.4-.46 1.07-.48 2.01v.3c0 1.05.16 1.8.47 2.26.32.46.81.69 1.5.69.55 0 .98-.26 1.3-.76.33-.51.5-1.25.5-2.22 0-.96-.17-1.69-.5-2.17a1.54 1.54 0 0 0-1.34-.73Zm14.4 1.07h.9c.83 0 1.46-.17 1.87-.5.42-.33.63-.81.63-1.44 0-.64-.18-1.12-.53-1.42-.35-.3-.9-.46-1.63-.46h-1.25v3.82Zm6.15-2.04c0 1.38-.44 2.44-1.3 3.17-.86.73-2.1 1.1-3.69 1.1h-1.17V483h-2.72v-12.85h4.1c1.56 0 2.75.34 3.56 1.01.81.67 1.22 1.67 1.22 3Zm7.7-1.17c.36 0 .66.03.9.08l-.2 2.51a3.05 3.05 0 0 0-.8-.09c-.85 0-1.51.22-2 .66a2.4 2.4 0 0 0-.7 1.85v5h-2.69v-9.83h2.03l.4 1.66h.13c.3-.56.72-1 1.23-1.33a3.04 3.04 0 0 1 1.7-.51Zm4.82 5.08c0 .97.16 1.7.48 2.2.32.5.84.75 1.56.75.72 0 1.23-.24 1.54-.74.32-.5.47-1.23.47-2.21 0-.97-.15-1.7-.47-2.19-.32-.49-.84-.73-1.56-.73-.71 0-1.23.25-1.54.73a4.02 4.02 0 0 0-.48 2.19Zm6.8 0c0 1.6-.43 2.85-1.27 3.75a4.58 4.58 0 0 1-3.52 1.36c-.95 0-1.78-.2-2.5-.62a4.14 4.14 0 0 1-1.66-1.78 5.97 5.97 0 0 1-.58-2.71c0-1.6.42-2.85 1.26-3.75a4.62 4.62 0 0 1 3.53-1.33 5 5 0 0 1 2.5.61c.72.41 1.27 1 1.66 1.77.38.77.58 1.67.58 2.7Zm6.35 2.97c.47 0 1.03-.1 1.69-.3v1.99a6 6 0 0 1-2.46.45c-1.07 0-1.86-.27-2.35-.81-.49-.55-.73-1.36-.73-2.45v-4.73h-1.28v-1.14l1.47-.9.78-2.07h1.71v2.1h2.75v2h-2.75v4.74c0 .38.1.67.32.85.22.18.5.27.85.27Zm7.75-6.14a1.7 1.7 0 0 0-1.33.54c-.33.36-.51.87-.56 1.53h3.77a2.22 2.22 0 0 0-.52-1.53 1.75 1.75 0 0 0-1.36-.54Zm.38 8.28a5.07 5.07 0 0 1-3.7-1.31c-.9-.88-1.34-2.11-1.34-3.71 0-1.65.4-2.92 1.23-3.82A4.4 4.4 0 0 1 179 473c1.4 0 2.47.4 3.25 1.19a4.5 4.5 0 0 1 1.16 3.27v1.3h-6.34c.03.77.26 1.36.68 1.79.42.43 1.01.64 1.77.64a7.37 7.37 0 0 0 3.33-.77v2.07c-.46.24-.97.4-1.5.52s-1.18.18-1.95.18Zm10.18 0c-3.06 0-4.59-1.68-4.59-5.04 0-1.67.42-2.94 1.25-3.82.83-.89 2.02-1.33 3.57-1.33 1.14 0 2.16.22 3.06.67l-.79 2.07c-.42-.17-.81-.3-1.18-.41a3.7 3.7 0 0 0-1.09-.17c-1.39 0-2.09 1-2.09 2.97 0 1.92.7 2.88 2.1 2.88a4.7 4.7 0 0 0 2.75-.85v2.3a4.3 4.3 0 0 1-1.32.57c-.44.1-1 .16-1.67.16Zm9.41-2.14c.47 0 1.03-.1 1.69-.3v1.99a6 6 0 0 1-2.46.45c-1.07 0-1.86-.27-2.35-.81-.49-.55-.73-1.36-.73-2.45v-4.73h-1.28v-1.14l1.47-.9.78-2.07h1.71v2.1h2.75v2h-2.75v4.74c0 .38.1.67.32.85.22.18.5.27.85.27Zm3.57-10.4c0-.88.49-1.32 1.46-1.32s1.46.44 1.46 1.31c0 .42-.13.75-.37.98-.24.23-.6.34-1.1.34-.96 0-1.45-.44-1.45-1.32Zm2.8 12.36h-2.69v-9.83h2.68V483Zm4.95-4.93c0 .97.16 1.7.48 2.2.32.5.84.75 1.56.75.72 0 1.23-.24 1.54-.74.32-.5.47-1.23.47-2.21 0-.97-.16-1.7-.47-2.19-.32-.49-.84-.73-1.56-.73-.71 0-1.23.25-1.54.73a4.03 4.03 0 0 0-.48 2.19Zm6.8 0c0 1.6-.43 2.85-1.27 3.75a4.59 4.59 0 0 1-3.53 1.36 4.9 4.9 0 0 1-2.5-.62 4.15 4.15 0 0 1-1.65-1.78 5.97 5.97 0 0 1-.58-2.71c0-1.6.42-2.85 1.25-3.75a4.62 4.62 0 0 1 3.54-1.33 5 5 0 0 1 2.5.61c.72.41 1.27 1 1.66 1.77.38.77.57 1.67.57 2.7Zm11.28 4.93h-2.68v-5.74c0-.7-.13-1.24-.38-1.59-.25-.36-.65-.54-1.2-.54-.75 0-1.3.26-1.63.76a4.7 4.7 0 0 0-.5 2.49V483h-2.68v-9.83h2.05l.36 1.26h.15c.3-.47.7-.83 1.23-1.07a4.2 4.2 0 0 1 1.8-.37c1.13 0 2 .31 2.6.93.59.62.88 1.5.88 2.67V483ZM74.98 501.43c0-.9.21-1.6.65-2.07.43-.48 1.06-.72 1.87-.72.8 0 1.42.24 1.86.72.44.48.66 1.17.66 2.07 0 .89-.22 1.57-.67 2.06-.43.49-1.05.73-1.85.73s-1.43-.24-1.87-.73a3 3 0 0 1-.65-2.06Zm22.6 6.57h-2.73v-10.58h-3.49v-2.27h9.7v2.27h-3.49V508Zm12.21 0-.36-1.26h-.14c-.29.46-.7.81-1.22 1.07-.53.24-1.13.37-1.8.37-1.16 0-2.03-.31-2.61-.93-.59-.62-.88-1.5-.88-2.67v-6.4h2.68v5.73c0 .71.12 1.24.38 1.6.25.35.65.53 1.2.53.75 0 1.3-.25 1.63-.75.33-.5.5-1.33.5-2.5v-4.62h2.68V508h-2.06Zm13.94 0h-2.68v-5.74c0-.7-.13-1.24-.38-1.59-.25-.36-.65-.54-1.2-.54-.75 0-1.3.26-1.63.76a4.7 4.7 0 0 0-.5 2.49V508h-2.68v-9.83h2.05l.36 1.26h.15c.3-.47.7-.83 1.23-1.07a4.2 4.2 0 0 1 1.8-.37c1.13 0 2 .31 2.6.93.59.62.88 1.5.88 2.67V508Zm2.65-12.37c0-.87.48-1.3 1.45-1.3.98 0 1.46.43 1.46 1.3 0 .42-.12.75-.36.98-.25.23-.6.34-1.1.34-.97 0-1.45-.44-1.45-1.32Zm2.8 12.37h-2.69v-9.83h2.68V508Zm11.88 0h-2.68v-5.74c0-.7-.12-1.24-.38-1.59-.25-.36-.65-.54-1.2-.54-.75 0-1.3.26-1.63.76a4.7 4.7 0 0 0-.5 2.49V508H132v-9.83h2.05l.36 1.26h.15c.3-.47.7-.83 1.23-1.07a4.2 4.2 0 0 1 1.8-.37c1.14 0 2 .31 2.6.93.59.62.88 1.5.88 2.67V508Zm11.31-9.83v1.37l-1.53.4c.28.43.42.92.42 1.47 0 1.05-.37 1.88-1.11 2.47a4.8 4.8 0 0 1-3.06.88l-.48-.03-.4-.04c-.27.2-.41.44-.41.7 0 .39.5.58 1.48.58h1.67c1.07 0 1.9.23 2.46.7.57.46.85 1.14.85 2.03 0 1.15-.48 2.04-1.44 2.68-.96.63-2.33.94-4.12.94a5.71 5.71 0 0 1-3.15-.72 2.27 2.27 0 0 1-1.08-2c0-.6.18-1.09.55-1.49.37-.4.91-.68 1.63-.85a1.8 1.8 0 0 1-.72-.57c-.2-.27-.31-.55-.31-.85 0-.38.1-.69.32-.93.22-.26.54-.5.95-.74a2.67 2.67 0 0 1-1.23-1.07c-.3-.5-.45-1.08-.45-1.75 0-1.07.35-1.9 1.04-2.48.7-.59 1.7-.88 3-.88a9.83 9.83 0 0 1 1.7.19h3.42Zm-7.58 11.22c0 .37.18.66.53.87.35.21.85.31 1.5.31.95 0 1.7-.13 2.25-.39.54-.26.82-.62.82-1.08 0-.37-.16-.63-.49-.77a3.95 3.95 0 0 0-1.5-.2h-1.38c-.5 0-.9.1-1.24.34-.33.23-.5.54-.5.92Zm.97-8c0 .53.13.96.37 1.27.24.3.61.46 1.11.46.5 0 .87-.15 1.1-.46.24-.31.36-.74.36-1.27 0-1.18-.49-1.77-1.46-1.77-.98 0-1.48.59-1.48 1.77Zm25.01 6.61h-3.31l-1.02-1a6.49 6.49 0 0 1-3.8 1.18 5.37 5.37 0 0 1-3.4-.99 3.2 3.2 0 0 1-1.25-2.66c0-.8.18-1.49.53-2.05a4.9 4.9 0 0 1 1.83-1.59 5.8 5.8 0 0 1-.96-1.44c-.2-.46-.3-.97-.3-1.51 0-.9.34-1.61 1.02-2.16a4.3 4.3 0 0 1 2.74-.81c1.09 0 1.96.25 2.61.76.66.5.98 1.18.98 2.03 0 .7-.2 1.34-.6 1.92a6.05 6.05 0 0 1-1.96 1.64l2.5 2.44c.41-.7.77-1.57 1.08-2.65h2.8c-.22.79-.51 1.56-.88 2.32a10.6 10.6 0 0 1-1.26 2l2.65 2.57Zm-9.96-3.73c0 .5.19.9.56 1.2.38.3.87.46 1.46.46.74 0 1.4-.18 2-.54l-2.92-2.9c-.34.26-.6.53-.8.8-.2.29-.3.61-.3.98Zm3.16-6.23a.9.9 0 0 0-.32-.73 1.21 1.21 0 0 0-.82-.27c-.39 0-.7.1-.93.28a.99.99 0 0 0-.33.8c0 .52.28 1.08.83 1.7.5-.27.9-.55 1.16-.82.27-.27.4-.6.4-.96Zm24.76 3.52c0 2.13-.53 3.76-1.59 4.9-1.05 1.14-2.56 1.72-4.53 1.72-1.97 0-3.48-.58-4.54-1.72-1.05-1.14-1.58-2.78-1.58-4.92s.53-3.77 1.58-4.9c1.06-1.13 2.58-1.7 4.56-1.7 1.97 0 3.48.58 4.52 1.71 1.05 1.14 1.58 2.78 1.58 4.9Zm-9.38 0c0 1.43.27 2.51.81 3.24.55.73 1.36 1.1 2.45 1.1 2.17 0 3.26-1.45 3.26-4.34 0-2.9-1.08-4.34-3.24-4.34-1.09 0-1.9.36-2.46 1.1-.55.72-.82 1.8-.82 3.24Zm17.22 6.62a3.26 3.26 0 0 1-2.71-1.26h-.14c.1.82.14 1.3.14 1.42v3.98h-2.68v-14.15h2.18l.38 1.28h.12a3.1 3.1 0 0 1 2.78-1.46 3.2 3.2 0 0 1 2.73 1.34c.66.9.98 2.15.98 3.74a7.3 7.3 0 0 1-.46 2.73c-.3.78-.74 1.37-1.31 1.77-.57.4-1.24.6-2 .6Zm-.79-8.05c-.66 0-1.14.2-1.45.62-.3.4-.46 1.07-.47 2.01v.3c0 1.05.15 1.8.46 2.26.32.46.82.69 1.5.69 1.2 0 1.8-1 1.8-2.98 0-.96-.15-1.69-.45-2.17-.3-.48-.75-.73-1.39-.73Zm10.93 5.91c.47 0 1.03-.1 1.69-.3v1.99c-.67.3-1.5.45-2.47.45-1.07 0-1.85-.27-2.34-.81-.49-.55-.73-1.36-.73-2.45v-4.73h-1.29v-1.14l1.48-.9.77-2.07h1.72v2.1h2.75v2h-2.75v4.74c0 .38.1.67.31.85.22.18.5.27.86.27Zm3.57-10.4c0-.88.48-1.32 1.46-1.32.97 0 1.45.44 1.45 1.31 0 .42-.12.75-.37.98-.23.23-.6.34-1.08.34-.98 0-1.46-.44-1.46-1.32Zm2.8 12.36h-2.69v-9.83h2.68V508Zm11.61 0h-2.68v-5.74c0-.7-.12-1.24-.36-1.59-.24-.36-.6-.54-1.12-.54-.68 0-1.18.26-1.5.76-.3.5-.46 1.33-.46 2.49V508h-2.68v-9.83h2.05l.36 1.26h.15c.26-.45.65-.8 1.14-1.05.5-.26 1.07-.4 1.72-.4 1.47 0 2.46.49 2.98 1.45h.24c.27-.46.65-.81 1.16-1.06.52-.25 1.1-.38 1.74-.38 1.12 0 1.96.29 2.53.86.57.57.86 1.48.86 2.74V508h-2.7v-5.74c0-.7-.11-1.24-.35-1.59-.24-.36-.61-.54-1.12-.54a1.7 1.7 0 0 0-1.48.7 4.02 4.02 0 0 0-.48 2.24V508Zm8.77-12.37c0-.87.49-1.3 1.46-1.3s1.46.43 1.46 1.3c0 .42-.12.75-.37.98-.24.23-.6.34-1.09.34-.97 0-1.46-.44-1.46-1.32Zm2.8 12.37h-2.68v-9.83h2.68V508Zm9.66 0h-7.76v-1.58l4.55-6.2h-4.28v-2.05h7.33v1.74l-4.43 6.04h4.59V508Zm8.19 0-.52-1.34h-.07a4 4 0 0 1-1.4 1.2c-.47.2-1.1.32-1.86.32-.95 0-1.69-.27-2.23-.81s-.81-1.3-.81-2.3c0-1.05.36-1.82 1.09-2.3.73-.5 1.83-.78 3.3-.83l1.7-.06v-.43c0-1-.5-1.5-1.52-1.5-.79 0-1.71.25-2.77.72l-.89-1.81a8 8 0 0 1 3.76-.89c1.32 0 2.33.29 3.04.86.7.58 1.05 1.45 1.05 2.62V508h-1.87Zm-.8-4.55-1.03.03c-.78.03-1.36.17-1.74.42-.38.26-.57.66-.57 1.18 0 .76.43 1.14 1.3 1.14.62 0 1.11-.18 1.48-.54.38-.36.57-.83.57-1.42v-.81Zm9.58 2.59c.47 0 1.03-.1 1.69-.3v1.99c-.67.3-1.5.45-2.47.45-1.07 0-1.85-.27-2.34-.81-.49-.55-.73-1.36-.73-2.45v-4.73h-1.29v-1.14l1.48-.9.77-2.07h1.72v2.1h2.75v2h-2.75v4.74c0 .38.1.67.31.85.22.18.5.27.86.27Zm3.57-10.4c0-.88.48-1.32 1.46-1.32.97 0 1.45.44 1.45 1.31 0 .42-.12.75-.37.98-.24.23-.6.34-1.08.34-.98 0-1.46-.44-1.46-1.32Zm2.8 12.36h-2.69v-9.83h2.68V508Zm4.95-4.93c0 .97.16 1.7.47 2.2.32.5.85.75 1.57.75.71 0 1.23-.24 1.54-.74.31-.5.47-1.23.47-2.21 0-.97-.16-1.7-.47-2.19-.32-.49-.84-.73-1.56-.73-.72 0-1.23.25-1.55.73a4.02 4.02 0 0 0-.47 2.19Zm6.8 0c0 1.6-.43 2.85-1.27 3.75a4.58 4.58 0 0 1-3.53 1.36 4.9 4.9 0 0 1-2.5-.62 4.14 4.14 0 0 1-1.65-1.78 5.97 5.97 0 0 1-.58-2.71c0-1.6.41-2.85 1.25-3.75a4.62 4.62 0 0 1 3.53-1.33c.95 0 1.78.2 2.5.61s1.28 1 1.66 1.77c.39.77.58 1.67.58 2.7Zm11.28 4.93h-2.68v-5.74c0-.7-.13-1.24-.38-1.59-.25-.36-.66-.54-1.2-.54-.76 0-1.3.26-1.63.76-.34.5-.5 1.33-.5 2.49V508h-2.68v-9.83h2.04l.37 1.26h.14c.3-.47.71-.83 1.24-1.07a4.2 4.2 0 0 1 1.79-.37c1.14 0 2 .31 2.6.93.6.62.89 1.5.89 2.67V508ZM74.98 526.43c0-.9.21-1.6.65-2.07.43-.48 1.06-.72 1.87-.72.8 0 1.42.24 1.86.72.44.48.66 1.17.66 2.07 0 .89-.22 1.58-.67 2.06-.43.49-1.05.73-1.85.73s-1.43-.24-1.87-.73a3 3 0 0 1-.65-2.06Zm25.5 6.57-.93-3.06h-4.68l-.93 3.06H91l4.54-12.9h3.33l4.55 12.9h-2.94Zm-1.58-5.34a2475 2475 0 0 1-1.46-4.7l-.23-.87c-.19.75-.74 2.6-1.66 5.57h3.35Zm12.79 2.42c0 1.01-.35 1.78-1.05 2.3-.7.53-1.75.8-3.14.8a9.5 9.5 0 0 1-1.83-.15 7.1 7.1 0 0 1-1.42-.43v-2.21a9.47 9.47 0 0 0 3.33.83c.98 0 1.46-.29 1.46-.85a.7.7 0 0 0-.19-.5 2.67 2.67 0 0 0-.67-.46c-.31-.17-.74-.36-1.26-.58a8.03 8.03 0 0 1-1.67-.88 2.63 2.63 0 0 1-.78-.93 3.13 3.13 0 0 1-.23-1.29c0-.87.33-1.55 1-2.02a4.94 4.94 0 0 1 2.89-.72c1.18 0 2.34.26 3.45.77l-.8 1.94c-.5-.22-.96-.39-1.38-.52-.43-.14-.87-.2-1.31-.2-.8 0-1.2.2-1.2.64 0 .24.14.45.39.62.25.18.81.44 1.68.78.76.31 1.33.6 1.68.87.36.27.63.58.8.94a3 3 0 0 1 .25 1.25Zm8.95 0a2.7 2.7 0 0 1-1.06 2.3c-.7.53-1.74.8-3.14.8-.71 0-1.32-.05-1.82-.15a7.1 7.1 0 0 1-1.42-.43v-2.21a9.47 9.47 0 0 0 3.33.83c.97 0 1.46-.29 1.46-.85a.69.69 0 0 0-.2-.5 2.67 2.67 0 0 0-.66-.46c-.32-.17-.74-.36-1.27-.58a8.05 8.05 0 0 1-1.67-.88 2.6 2.6 0 0 1-.77-.93 3.14 3.14 0 0 1-.24-1.29c0-.87.34-1.55 1.01-2.02a4.94 4.94 0 0 1 2.89-.72c1.18 0 2.33.26 3.45.77l-.8 1.94c-.5-.22-.96-.39-1.39-.52a4.1 4.1 0 0 0-1.3-.2c-.8 0-1.2.2-1.2.64 0 .24.13.45.38.62a10 10 0 0 0 1.68.78c.77.31 1.33.6 1.7.87a2.57 2.57 0 0 1 1.04 2.19Zm6.16-5.18a1.7 1.7 0 0 0-1.34.54c-.32.36-.5.87-.55 1.53h3.76a2.22 2.22 0 0 0-.52-1.53 1.75 1.75 0 0 0-1.35-.54Zm.38 8.28a5.07 5.07 0 0 1-3.71-1.31c-.9-.88-1.34-2.11-1.34-3.71 0-1.65.41-2.92 1.23-3.82a4.4 4.4 0 0 1 3.42-1.35c1.39 0 2.47.4 3.24 1.19a4.45 4.45 0 0 1 1.16 3.27v1.3h-6.33c.03.77.25 1.36.67 1.79.42.43 1.02.64 1.78.64a7.38 7.38 0 0 0 3.33-.77v2.07c-.47.24-.97.4-1.5.52-.54.12-1.19.18-1.95.18Zm10.32-2.14c.47 0 1.03-.1 1.69-.3v1.99a6 6 0 0 1-2.46.45c-1.07 0-1.85-.27-2.35-.81-.48-.55-.73-1.36-.73-2.45v-4.73h-1.28v-1.14l1.48-.9.77-2.07h1.71v2.1h2.75v2h-2.75v4.74c0 .38.1.67.32.85.22.18.5.27.85.27Zm14.01 1.96-3.1-10.08h-.07c.11 2.05.17 3.42.17 4.1V533h-2.44v-12.85h3.71l3.04 9.83h.06l3.22-9.83h3.71V533h-2.54v-6.08a61.85 61.85 0 0 1 .13-3.98h-.08L154.01 533h-2.5Zm17.57 0-.52-1.34h-.07a4 4 0 0 1-1.4 1.2c-.47.2-1.09.32-1.86.32-.94 0-1.69-.27-2.23-.81s-.8-1.3-.8-2.3c0-1.05.36-1.82 1.08-2.3a6.3 6.3 0 0 1 3.3-.83l1.71-.06v-.43c0-1-.5-1.5-1.53-1.5-.78 0-1.7.25-2.77.72l-.89-1.81a8 8 0 0 1 3.77-.89 4.7 4.7 0 0 1 3.03.86c.7.58 1.05 1.45 1.05 2.62V533h-1.87Zm-.79-4.55-1.04.03a3.5 3.5 0 0 0-1.74.42c-.38.26-.57.65-.57 1.18 0 .76.44 1.14 1.3 1.14.62 0 1.12-.18 1.49-.54.37-.36.56-.83.56-1.42v-.81Zm14.5 4.55h-2.68v-5.74c0-.7-.12-1.24-.38-1.59-.25-.36-.65-.54-1.2-.54-.75 0-1.3.26-1.63.76a4.7 4.7 0 0 0-.5 2.49V533h-2.68v-9.83h2.05l.36 1.26h.15c.3-.47.7-.83 1.23-1.07a4.2 4.2 0 0 1 1.8-.37c1.14 0 2 .31 2.6.93.59.62.88 1.5.88 2.67V533Zm9 0-.52-1.34h-.07a4 4 0 0 1-1.4 1.2c-.47.2-1.09.32-1.86.32-.94 0-1.68-.27-2.23-.81-.54-.54-.8-1.3-.8-2.3 0-1.05.36-1.82 1.08-2.3a6.3 6.3 0 0 1 3.3-.83l1.71-.06v-.43c0-1-.5-1.5-1.53-1.5-.78 0-1.7.25-2.77.72l-.88-1.81a8 8 0 0 1 3.76-.89 4.7 4.7 0 0 1 3.03.86c.7.58 1.05 1.45 1.05 2.62V533h-1.87Zm-.79-4.55-1.03.03a3.5 3.5 0 0 0-1.75.42c-.38.26-.57.65-.57 1.18 0 .76.44 1.14 1.3 1.14.63 0 1.12-.18 1.49-.54.37-.36.56-.83.56-1.42v-.81Zm13.99-5.28v1.37l-1.54.4c.28.43.42.92.42 1.47 0 1.05-.37 1.88-1.1 2.47-.74.58-1.76.88-3.07.88l-.48-.03-.4-.04c-.27.2-.4.44-.4.7 0 .39.48.58 1.47.58h1.67c1.08 0 1.9.23 2.46.7.57.46.85 1.14.85 2.03 0 1.15-.48 2.04-1.44 2.67-.96.64-2.33.95-4.12.95a5.72 5.72 0 0 1-3.15-.72 2.27 2.27 0 0 1-1.08-2c0-.6.18-1.09.55-1.49.37-.4.91-.68 1.63-.85a1.8 1.8 0 0 1-.72-.57 1.4 1.4 0 0 1-.3-.85c0-.38.1-.69.32-.93.21-.26.53-.5.94-.74a2.66 2.66 0 0 1-1.23-1.07c-.3-.5-.45-1.08-.45-1.75 0-1.07.35-1.9 1.04-2.48.7-.59 1.7-.88 3-.88a9.98 9.98 0 0 1 1.7.18h3.43Zm-7.59 11.22c0 .37.18.66.53.87.35.21.85.32 1.5.32.95 0 1.7-.14 2.25-.4s.82-.62.82-1.08c0-.37-.16-.63-.49-.77a3.96 3.96 0 0 0-1.49-.2h-1.39c-.49 0-.9.1-1.24.34-.33.23-.49.54-.49.92Zm.98-8c0 .53.12.96.36 1.27.24.3.61.46 1.11.46.5 0 .88-.15 1.11-.46.23-.31.35-.74.35-1.27 0-1.18-.49-1.77-1.46-1.77-.98 0-1.47.59-1.47 1.77Zm12.3-1.5a1.7 1.7 0 0 0-1.34.55c-.32.36-.5.87-.55 1.53h3.76a2.22 2.22 0 0 0-.52-1.53 1.75 1.75 0 0 0-1.35-.54Zm.38 8.29a5.07 5.07 0 0 1-3.71-1.31c-.9-.88-1.34-2.11-1.34-3.71 0-1.65.41-2.92 1.23-3.82a4.4 4.4 0 0 1 3.42-1.35c1.4 0 2.47.4 3.25 1.19a4.49 4.49 0 0 1 1.16 3.27v1.3h-6.34c.03.77.25 1.36.68 1.79.42.43 1.01.64 1.77.64a7.37 7.37 0 0 0 3.33-.77v2.07c-.47.24-.97.4-1.5.52s-1.18.18-1.95.18Zm14.98-.18h-2.68v-5.74c0-.7-.12-1.24-.36-1.59-.23-.36-.6-.54-1.11-.54-.69 0-1.19.26-1.5.76-.3.5-.46 1.33-.46 2.49V533h-2.68v-9.83h2.04l.36 1.26h.15c.27-.45.65-.8 1.15-1.05.5-.26 1.07-.4 1.71-.4 1.47 0 2.47.49 2.99 1.45h.24a2.6 2.6 0 0 1 1.16-1.06c.51-.25 1.1-.38 1.74-.38 1.1 0 1.95.29 2.52.86.57.57.86 1.48.86 2.74V533h-2.69v-5.74c0-.7-.12-1.24-.36-1.59-.23-.36-.6-.54-1.12-.54-.65 0-1.15.24-1.47.7a4.09 4.09 0 0 0-.49 2.24V533Zm12.96-8.1a1.7 1.7 0 0 0-1.34.54c-.32.36-.5.87-.55 1.53h3.76a2.22 2.22 0 0 0-.52-1.53 1.75 1.75 0 0 0-1.35-.54Zm.38 8.28a5.07 5.07 0 0 1-3.71-1.31c-.9-.88-1.34-2.11-1.34-3.71 0-1.65.41-2.92 1.23-3.82a4.4 4.4 0 0 1 3.42-1.35c1.39 0 2.47.4 3.25 1.19a4.5 4.5 0 0 1 1.16 3.27v1.3h-6.34c.03.77.25 1.36.67 1.79a2.4 2.4 0 0 0 1.78.64 7.38 7.38 0 0 0 3.33-.77v2.07c-.47.24-.97.4-1.5.52-.54.12-1.19.18-1.95.18Zm15.25-.18h-2.68v-5.74c0-.7-.12-1.24-.37-1.59-.26-.36-.66-.54-1.2-.54-.76 0-1.3.26-1.63.76-.34.5-.5 1.33-.5 2.49V533h-2.69v-9.83h2.05l.36 1.26h.15c.3-.47.71-.83 1.23-1.07a4.2 4.2 0 0 1 1.8-.37c1.14 0 2 .31 2.6.93.59.62.88 1.5.88 2.67V533Zm6.9-1.96c.47 0 1.04-.1 1.7-.3v1.99c-.68.3-1.5.45-2.47.45-1.07 0-1.85-.27-2.35-.81-.48-.55-.73-1.36-.73-2.45v-4.73h-1.28v-1.14l1.48-.9.77-2.07h1.72v2.1h2.75v2h-2.75v4.74c0 .38.1.67.31.85.22.18.5.27.85.27ZM74.98 551.43c0-.9.21-1.6.65-2.07.43-.48 1.06-.72 1.87-.72.8 0 1.42.24 1.86.72.44.48.66 1.17.66 2.07 0 .89-.22 1.58-.67 2.06-.43.49-1.05.73-1.85.73s-1.43-.24-1.87-.73a3 3 0 0 1-.65-2.06Zm20.36-.58h.88c.86 0 1.5-.14 1.9-.43.42-.28.62-.73.62-1.35 0-.6-.2-1.04-.63-1.3a3.79 3.79 0 0 0-1.94-.39h-.83v3.47Zm0 2.22V558h-2.72v-12.85h3.74c1.75 0 3.04.32 3.88.96.84.63 1.25 1.6 1.25 2.89 0 .76-.2 1.43-.62 2.02-.42.59-1 1.05-1.77 1.38 1.94 2.89 3.2 4.76 3.78 5.6h-3.02l-3.07-4.93h-1.45Zm13.02-3.17a1.7 1.7 0 0 0-1.34.54c-.32.36-.5.87-.55 1.53h3.76a2.22 2.22 0 0 0-.52-1.53 1.75 1.75 0 0 0-1.35-.54Zm.38 8.28a5.07 5.07 0 0 1-3.71-1.31c-.9-.88-1.34-2.11-1.34-3.71 0-1.65.41-2.92 1.23-3.82a4.4 4.4 0 0 1 3.42-1.35c1.39 0 2.47.4 3.24 1.19a4.5 4.5 0 0 1 1.16 3.27v1.3h-6.33c.03.77.25 1.36.67 1.79a2.4 2.4 0 0 0 1.78.64 7.37 7.37 0 0 0 3.33-.77v2.07c-.47.24-.97.4-1.5.52-.54.12-1.19.18-1.95.18Zm14.98-.18h-2.68v-5.74c0-.7-.12-1.24-.36-1.59-.23-.36-.6-.54-1.12-.54-.68 0-1.18.26-1.49.76-.31.5-.47 1.33-.47 2.49V558h-2.68v-9.83h2.05l.36 1.26h.15c.27-.45.65-.8 1.14-1.05.5-.26 1.07-.4 1.72-.4 1.47 0 2.47.49 2.99 1.45h.23c.27-.46.65-.81 1.16-1.06a3.9 3.9 0 0 1 1.74-.38c1.12 0 1.96.29 2.53.86.57.57.86 1.48.86 2.74V558h-2.7v-5.74c0-.7-.11-1.24-.35-1.59-.24-.36-.6-.54-1.12-.54a1.7 1.7 0 0 0-1.48.7 4.1 4.1 0 0 0-.48 2.24V558Zm11.02-4.93c0 .97.16 1.7.48 2.2.32.5.84.75 1.56.75.72 0 1.23-.24 1.54-.74.32-.5.47-1.23.47-2.21 0-.97-.15-1.7-.47-2.19-.32-.49-.83-.73-1.56-.73-.71 0-1.23.25-1.54.73a4.02 4.02 0 0 0-.48 2.19Zm6.8 0c0 1.6-.42 2.85-1.27 3.75a4.58 4.58 0 0 1-3.52 1.36c-.95 0-1.78-.2-2.5-.62a4.15 4.15 0 0 1-1.66-1.78 5.97 5.97 0 0 1-.58-2.71c0-1.6.42-2.85 1.26-3.75a4.62 4.62 0 0 1 3.53-1.33 5 5 0 0 1 2.5.61c.72.41 1.27 1 1.66 1.77.38.77.58 1.67.58 2.7Zm6.35 2.97c.47 0 1.03-.1 1.69-.3v1.99a6 6 0 0 1-2.46.45c-1.07 0-1.86-.27-2.35-.81-.49-.55-.73-1.36-.73-2.45v-4.73h-1.28v-1.14l1.48-.9.77-2.07h1.71v2.1h2.75v2h-2.75v4.74c0 .38.1.67.32.85.22.18.5.27.85.27Zm7.75-6.14a1.7 1.7 0 0 0-1.33.54c-.32.36-.5.87-.56 1.53h3.77a2.22 2.22 0 0 0-.52-1.53 1.75 1.75 0 0 0-1.36-.54Zm.38 8.28a5.07 5.07 0 0 1-3.7-1.31c-.9-.88-1.34-2.11-1.34-3.71 0-1.65.4-2.92 1.23-3.82a4.4 4.4 0 0 1 3.42-1.35c1.38 0 2.47.4 3.24 1.19a4.49 4.49 0 0 1 1.16 3.27v1.3h-6.34c.03.77.26 1.36.68 1.79.42.43 1.01.64 1.78.64a7.37 7.37 0 0 0 3.33-.77v2.07c-.47.24-.97.4-1.5.52-.54.12-1.2.18-1.96.18Zm18.66-3.75a3.3 3.3 0 0 1-1.26 2.74 5.4 5.4 0 0 1-3.48 1 8.17 8.17 0 0 1-3.63-.77v-2.53a15 15 0 0 0 2.2.82c.6.16 1.15.24 1.64.24.6 0 1.06-.12 1.38-.35.32-.23.48-.57.48-1.02 0-.25-.07-.47-.21-.66a2.3 2.3 0 0 0-.63-.58c-.27-.18-.82-.47-1.66-.87a7.94 7.94 0 0 1-1.76-1.06 4 4 0 0 1-.94-1.19 3.38 3.38 0 0 1-.36-1.58c0-1.13.39-2.03 1.16-2.68a4.82 4.82 0 0 1 3.2-.97c.66 0 1.3.07 1.9.23.61.16 1.25.38 1.9.67l-.87 2.12c-.69-.28-1.25-.48-1.7-.59a5.44 5.44 0 0 0-1.32-.17c-.52 0-.91.12-1.19.36-.28.24-.41.56-.41.94 0 .24.05.46.16.64.12.17.3.35.53.52.25.16.82.46 1.73.9a6.84 6.84 0 0 1 2.47 1.72c.45.58.67 1.28.67 2.12Zm9.08 3.57-.36-1.26h-.14c-.29.46-.7.81-1.22 1.07-.53.24-1.13.37-1.8.37-1.16 0-2.03-.31-2.62-.93-.58-.62-.87-1.5-.87-2.67v-6.4h2.68v5.73c0 .71.12 1.25.38 1.6.25.35.65.53 1.2.53.75 0 1.3-.25 1.63-.75.33-.5.5-1.33.5-2.5v-4.62h2.68V558h-2.06Zm10.27.18a3.26 3.26 0 0 1-2.72-1.26h-.14c.1.82.14 1.3.14 1.42v3.98h-2.68v-14.15h2.18l.38 1.28h.12a3.1 3.1 0 0 1 2.79-1.46 3.2 3.2 0 0 1 2.72 1.34c.66.9.99 2.15.99 3.74 0 1.05-.16 1.96-.47 2.73a3.8 3.8 0 0 1-1.31 1.77c-.57.4-1.24.6-2 .6Zm-.8-8.05c-.66 0-1.14.2-1.45.62-.3.4-.46 1.07-.47 2.01v.3c0 1.05.16 1.8.47 2.26.31.46.81.68 1.49.68 1.2 0 1.8-.99 1.8-2.97 0-.96-.15-1.69-.45-2.17-.29-.48-.75-.73-1.39-.73Zm12.19 8.05a3.26 3.26 0 0 1-2.72-1.26h-.14c.1.82.14 1.3.14 1.42v3.98h-2.68v-14.15h2.18l.38 1.28h.12a3.1 3.1 0 0 1 2.79-1.46 3.2 3.2 0 0 1 2.72 1.34c.66.9.98 2.15.98 3.74a7.3 7.3 0 0 1-.46 2.73 3.8 3.8 0 0 1-1.31 1.77c-.57.4-1.24.6-2 .6Zm-.8-8.05c-.66 0-1.14.2-1.44.62-.31.4-.47 1.07-.48 2.01v.3c0 1.05.16 1.8.47 2.26.31.46.81.68 1.49.68 1.2 0 1.8-.99 1.8-2.97a4.2 4.2 0 0 0-.45-2.17c-.29-.48-.75-.73-1.38-.73Zm8.93 2.94c0 .97.15 1.7.47 2.2.32.5.84.75 1.56.75.72 0 1.23-.24 1.54-.74.32-.5.48-1.23.48-2.21 0-.97-.16-1.7-.48-2.19-.31-.49-.83-.73-1.55-.73-.72 0-1.23.25-1.55.73a4.02 4.02 0 0 0-.47 2.19Zm6.79 0c0 1.6-.42 2.85-1.27 3.75a4.59 4.59 0 0 1-3.52 1.36c-.94 0-1.78-.2-2.5-.62a4.14 4.14 0 0 1-1.66-1.78 5.97 5.97 0 0 1-.58-2.71c0-1.6.42-2.85 1.26-3.75a4.62 4.62 0 0 1 3.53-1.33c.95 0 1.78.2 2.5.61s1.27 1 1.66 1.77c.39.77.58 1.67.58 2.7Zm7.7-5.08c.36 0 .66.03.9.08l-.2 2.51a3.05 3.05 0 0 0-.79-.09c-.85 0-1.52.22-2 .66a2.4 2.4 0 0 0-.71 1.85v5h-2.69v-9.83h2.03l.4 1.66h.13c.3-.56.72-1 1.23-1.33a3.04 3.04 0 0 1 1.7-.51Zm6.83 8.05c.47 0 1.03-.1 1.69-.3v1.99c-.67.3-1.5.45-2.47.45-1.07 0-1.85-.27-2.34-.81-.49-.55-.73-1.36-.73-2.45v-4.73h-1.28v-1.14l1.47-.9.78-2.07h1.7v2.1h2.76v2h-2.75v4.74c0 .38.1.67.32.85.21.18.5.27.85.27Zm7.67-2.97c0-1.55.23-3 .68-4.36a10.9 10.9 0 0 1 1.97-3.56h2.2a12.66 12.66 0 0 0-1.88 3.73 13.94 13.94 0 0 0 .01 8.34 12.68 12.68 0 0 0 1.85 3.63h-2.18c-.87-1-1.52-2.16-1.97-3.5a13.27 13.27 0 0 1-.68-4.28Zm12.25-5.08c1.16 0 2.07.45 2.73 1.36.65.9.98 2.14.98 3.72 0 1.62-.34 2.88-1.02 3.77a3.27 3.27 0 0 1-2.76 1.34 3.26 3.26 0 0 1-2.71-1.26h-.19l-.45 1.08h-2.04v-13.68H252v3.19c0 .4-.04 1.05-.1 1.94h.1a3.1 3.1 0 0 1 2.78-1.46Zm-.86 2.14c-.66 0-1.14.2-1.45.62-.3.4-.46 1.07-.47 2.01v.3c0 1.05.15 1.8.46 2.26.32.46.82.68 1.5.68.55 0 .98-.25 1.3-.75.33-.51.5-1.25.5-2.22 0-.96-.17-1.69-.5-2.17a1.54 1.54 0 0 0-1.34-.73Zm6.67-4.5c0-.87.49-1.3 1.46-1.3s1.46.43 1.46 1.3c0 .42-.12.75-.37.98-.24.23-.6.34-1.09.34-.97 0-1.46-.44-1.46-1.32Zm2.8 12.37h-2.68v-9.83h2.68V558Zm5.5 0h-2.68v-13.68h2.68V558Zm5.5 0h-2.68v-13.68h2.68V558Zm6.9-8.1a1.7 1.7 0 0 0-1.34.54c-.33.36-.51.87-.56 1.53h3.76a2.23 2.23 0 0 0-.51-1.53 1.75 1.75 0 0 0-1.36-.54Zm.37 8.28a5.07 5.07 0 0 1-3.7-1.31 4.94 4.94 0 0 1-1.35-3.71c0-1.65.42-2.92 1.24-3.82a4.4 4.4 0 0 1 3.41-1.35c1.4 0 2.47.4 3.25 1.19a4.5 4.5 0 0 1 1.16 3.27v1.3h-6.34c.03.77.26 1.36.68 1.79.42.43 1.01.64 1.77.64a7.38 7.38 0 0 0 3.33-.77v2.07c-.47.24-.97.4-1.5.52s-1.18.18-1.95.18Zm9.3 0a3.2 3.2 0 0 1-2.73-1.35 6.2 6.2 0 0 1-.98-3.73c0-1.6.33-2.86 1-3.76.68-.9 1.6-1.35 2.78-1.35a3.2 3.2 0 0 1 2.83 1.44h.09c-.14-.73-.2-1.38-.2-1.96v-3.15h2.68V558h-2.05l-.52-1.27h-.12a3.07 3.07 0 0 1-2.78 1.45Zm.94-2.14c.69 0 1.19-.2 1.5-.6.32-.4.5-1.07.53-2.03v-.29c0-1.05-.17-1.8-.5-2.27-.31-.45-.84-.68-1.57-.68-.6 0-1.07.25-1.4.76-.33.5-.5 1.24-.5 2.21s.17 1.7.5 2.18c.34.48.82.72 1.44.72Zm21.08 1.96h-2.68v-5.74c0-1.42-.52-2.13-1.58-2.13-.75 0-1.3.26-1.63.77-.33.5-.5 1.33-.5 2.48V558h-2.68v-13.68h2.68v2.79l-.06 1.53-.06.8h.14c.6-.97 1.55-1.45 2.85-1.45 1.15 0 2.03.31 2.63.93.6.62.9 1.51.9 2.67V558Zm4.9-4.93c0 .97.16 1.7.47 2.2.33.5.85.75 1.57.75.71 0 1.23-.24 1.54-.74.31-.5.47-1.23.47-2.21 0-.97-.16-1.7-.47-2.19-.32-.49-.84-.73-1.56-.73-.71 0-1.23.25-1.55.73a4.03 4.03 0 0 0-.47 2.19Zm6.8 0c0 1.6-.43 2.85-1.27 3.75a4.59 4.59 0 0 1-3.53 1.36 4.9 4.9 0 0 1-2.5-.62 4.15 4.15 0 0 1-1.65-1.78 5.99 5.99 0 0 1-.58-2.71c0-1.6.41-2.85 1.25-3.75a4.62 4.62 0 0 1 3.54-1.33 5 5 0 0 1 2.5.61c.71.41 1.27 1 1.65 1.77.39.77.58 1.67.58 2.7Zm9.17 4.93-.36-1.26h-.14c-.29.46-.7.81-1.22 1.07-.53.24-1.13.37-1.8.37-1.16 0-2.03-.31-2.61-.93-.6-.62-.88-1.5-.88-2.67v-6.4h2.68v5.73c0 .71.12 1.25.37 1.6.26.35.66.53 1.2.53.76 0 1.3-.25 1.63-.75.34-.5.5-1.33.5-2.5v-4.62h2.69V558h-2.06Zm10.35-10.01c.37 0 .67.03.9.08l-.2 2.51a3.05 3.05 0 0 0-.79-.09c-.85 0-1.52.22-2 .66a2.4 2.4 0 0 0-.71 1.85v5h-2.68v-9.83h2.03l.4 1.66h.13c.3-.56.71-1 1.23-1.33a3.04 3.04 0 0 1 1.7-.51Zm5.37 10.01h-2.68v-13.68h2.68V558Zm1.42-9.83h2.93l1.86 5.53c.16.48.26 1.05.32 1.7h.06c.06-.6.19-1.16.37-1.7l1.82-5.53h2.88l-4.16 11.09a4.8 4.8 0 0 1-1.63 2.3c-.7.5-1.53.76-2.47.76-.47 0-.92-.05-1.37-.15v-2.12c.33.07.68.11 1.06.11.47 0 .89-.14 1.24-.44.35-.28.63-.72.83-1.3l.16-.49-3.9-9.76Zm15.63 4.9c0 1.54-.23 2.98-.7 4.3a10.24 10.24 0 0 1-1.95 3.48h-2.18c.8-1.08 1.4-2.29 1.84-3.62a13.94 13.94 0 0 0 .02-8.35 12.66 12.66 0 0 0-1.88-3.73h2.2a10.76 10.76 0 0 1 1.97 3.58c.45 1.35.68 2.8.68 4.34ZM74.98 576.43c0-.9.21-1.6.65-2.07.43-.48 1.06-.72 1.87-.72.8 0 1.42.24 1.86.72.44.48.66 1.17.66 2.07 0 .89-.22 1.58-.67 2.06-.43.49-1.05.73-1.85.73s-1.43-.24-1.87-.73a3 3 0 0 1-.65-2.06Zm25.5 6.57-.93-3.06h-4.68l-.93 3.06H91l4.54-12.9h3.33l4.55 12.9h-2.94Zm-1.58-5.34a2475 2475 0 0 1-1.46-4.7l-.23-.87c-.19.75-.74 2.6-1.66 5.57h3.35Zm6.14 5.34v-12.85h2.73V583h-2.72Zm18.5 0-.93-3.06h-4.68L117 583h-2.94l4.54-12.9h3.33l4.55 12.9h-2.93Zm-1.58-5.34a2563 2563 0 0 1-1.45-4.7 9.88 9.88 0 0 1-.23-.87c-.2.75-.75 2.6-1.67 5.57h3.35Zm12.8 2.42a2.7 2.7 0 0 1-1.06 2.3c-.7.53-1.75.8-3.14.8-.72 0-1.32-.05-1.83-.15-.5-.1-.97-.24-1.41-.43v-2.21a9.47 9.47 0 0 0 3.33.83c.97 0 1.46-.29 1.46-.85a.69.69 0 0 0-.2-.5 2.65 2.65 0 0 0-.66-.46 15.5 15.5 0 0 0-1.27-.58 8.04 8.04 0 0 1-1.67-.88 2.53 2.53 0 0 1-.77-.93 3.14 3.14 0 0 1-.24-1.29c0-.87.34-1.55 1.01-2.02a4.94 4.94 0 0 1 2.88-.72c1.19 0 2.34.26 3.46.77l-.81 1.94c-.5-.22-.95-.39-1.38-.52-.43-.14-.87-.2-1.31-.2-.8 0-1.19.2-1.19.64 0 .24.13.45.38.62a10 10 0 0 0 1.68.78c.77.31 1.33.6 1.69.87.35.27.62.58.79.94.17.35.25.77.25 1.25Zm8.94 0c0 1.01-.35 1.78-1.05 2.3-.7.53-1.75.8-3.14.8a9.5 9.5 0 0 1-1.83-.15 7.1 7.1 0 0 1-1.42-.43v-2.21a9.46 9.46 0 0 0 3.34.83c.97 0 1.45-.29 1.45-.85a.69.69 0 0 0-.19-.5 2.65 2.65 0 0 0-.67-.46c-.31-.17-.74-.36-1.26-.58a8.03 8.03 0 0 1-1.67-.88 2.53 2.53 0 0 1-.78-.93 3.14 3.14 0 0 1-.23-1.29c0-.87.33-1.55 1-2.02a4.94 4.94 0 0 1 2.89-.72c1.18 0 2.34.26 3.45.77l-.8 1.94c-.5-.22-.96-.39-1.38-.52-.43-.14-.87-.2-1.31-.2-.8 0-1.2.2-1.2.64 0 .24.13.45.39.62.25.18.81.44 1.68.78.76.31 1.33.6 1.68.87.36.27.62.58.8.94a3 3 0 0 1 .25 1.25Zm1.98-9.45c0-.87.48-1.3 1.46-1.3.97 0 1.46.43 1.46 1.3 0 .42-.13.75-.37.98-.24.23-.6.34-1.1.34-.97 0-1.45-.44-1.45-1.32Zm2.8 12.37h-2.69v-9.83h2.68V583Zm9.67-2.92c0 1.01-.35 1.78-1.06 2.3-.7.53-1.74.8-3.13.8a9.5 9.5 0 0 1-1.83-.15 7.1 7.1 0 0 1-1.42-.43v-2.21a9.47 9.47 0 0 0 3.33.83c.98 0 1.46-.29 1.46-.85a.7.7 0 0 0-.19-.5 2.67 2.67 0 0 0-.67-.46c-.31-.17-.74-.36-1.26-.58a8.03 8.03 0 0 1-1.67-.88 2.53 2.53 0 0 1-.78-.93 3.13 3.13 0 0 1-.24-1.29c0-.87.34-1.55 1.02-2.02a4.94 4.94 0 0 1 2.88-.72c1.18 0 2.33.26 3.45.77l-.8 1.94c-.5-.22-.96-.39-1.39-.52a4.1 4.1 0 0 0-1.3-.2c-.8 0-1.2.2-1.2.64 0 .24.13.45.39.62.25.18.81.44 1.67.78.77.31 1.34.6 1.7.87a2.57 2.57 0 0 1 1.04 2.19Zm6.23.96c.47 0 1.03-.1 1.69-.3v1.99c-.67.3-1.5.45-2.46.45-1.08 0-1.86-.27-2.35-.81-.49-.55-.73-1.36-.73-2.45v-4.73h-1.28v-1.14l1.47-.9.78-2.07h1.71v2.1h2.75v2h-2.75v4.74c0 .38.1.67.32.85.21.18.5.27.85.27Zm7.75-6.14a1.7 1.7 0 0 0-1.33.54c-.33.36-.51.87-.56 1.53H174a2.22 2.22 0 0 0-.51-1.53 1.75 1.75 0 0 0-1.36-.54Zm.38 8.28a5.07 5.07 0 0 1-3.7-1.31c-.9-.88-1.34-2.11-1.34-3.71 0-1.65.4-2.92 1.22-3.82a4.4 4.4 0 0 1 3.42-1.35c1.4 0 2.47.4 3.25 1.19a4.49 4.49 0 0 1 1.16 3.27v1.3h-6.34c.03.77.26 1.36.68 1.79.42.43 1.01.64 1.77.64a7.38 7.38 0 0 0 3.33-.77v2.07c-.47.24-.97.4-1.5.52s-1.18.18-1.95.18Zm9.3 0a3.2 3.2 0 0 1-2.73-1.35 6.2 6.2 0 0 1-.98-3.73c0-1.6.33-2.86 1-3.76.68-.9 1.6-1.35 2.78-1.35a3.2 3.2 0 0 1 2.83 1.44h.09c-.14-.73-.2-1.38-.2-1.96v-3.15h2.68V583h-2.05l-.52-1.27h-.12a3.07 3.07 0 0 1-2.78 1.45Zm.94-2.14c.69 0 1.19-.2 1.5-.6.32-.4.5-1.07.53-2.03v-.29c0-1.05-.16-1.8-.5-2.27-.31-.45-.84-.68-1.57-.68-.6 0-1.07.25-1.4.76-.33.5-.5 1.24-.5 2.21s.17 1.7.5 2.18c.34.48.82.72 1.44.72Zm22.89-4.59c0 2.12-.6 3.74-1.81 4.86-1.2 1.13-2.94 1.69-5.22 1.69h-3.64v-12.85h4.04c2.1 0 3.73.55 4.89 1.66 1.16 1.1 1.74 2.66 1.74 4.64Zm-2.83.07c0-2.76-1.22-4.14-3.66-4.14h-1.45v8.37h1.17c2.62 0 3.94-1.4 3.94-4.23Zm9.35-1.62a1.7 1.7 0 0 0-1.34.54c-.32.36-.5.87-.55 1.53h3.76a2.22 2.22 0 0 0-.52-1.53 1.75 1.75 0 0 0-1.35-.54Zm.38 8.28a5.07 5.07 0 0 1-3.71-1.31c-.9-.88-1.34-2.11-1.34-3.71 0-1.65.41-2.92 1.23-3.82a4.4 4.4 0 0 1 3.42-1.35c1.39 0 2.47.4 3.24 1.19a4.5 4.5 0 0 1 1.16 3.27v1.3h-6.33c.03.77.25 1.36.67 1.79a2.4 2.4 0 0 0 1.78.64 7.37 7.37 0 0 0 3.33-.77v2.07c-.47.24-.97.4-1.5.52-.54.12-1.19.18-1.96.18Zm10.32-2.14c.47 0 1.03-.1 1.69-.3v1.99a6 6 0 0 1-2.46.45c-1.07 0-1.86-.27-2.35-.81-.48-.55-.73-1.36-.73-2.45v-4.73h-1.28v-1.14l1.48-.9.77-2.07h1.71v2.1h2.75v2h-2.75v4.74c0 .38.1.67.32.85.22.18.5.27.85.27Zm7.75-6.14a1.7 1.7 0 0 0-1.33.54c-.32.36-.5.87-.56 1.53h3.77a2.22 2.22 0 0 0-.52-1.53 1.75 1.75 0 0 0-1.36-.54Zm.38 8.28a5.07 5.07 0 0 1-3.7-1.31c-.9-.88-1.34-2.11-1.34-3.71 0-1.65.4-2.92 1.23-3.82a4.4 4.4 0 0 1 3.42-1.35c1.39 0 2.47.4 3.24 1.19a4.5 4.5 0 0 1 1.16 3.27v1.3h-6.34c.03.77.26 1.36.68 1.79.42.43 1.01.64 1.78.64a7.37 7.37 0 0 0 3.33-.77v2.07c-.47.24-.97.4-1.5.52-.54.12-1.19.18-1.96.18Zm10.18 0c-3.06 0-4.59-1.68-4.59-5.04 0-1.67.42-2.94 1.25-3.82.83-.89 2.02-1.33 3.58-1.33a6.8 6.8 0 0 1 3.06.67l-.8 2.07c-.42-.17-.81-.3-1.17-.41a3.7 3.7 0 0 0-1.1-.17c-1.39 0-2.09 1-2.09 2.97 0 1.92.7 2.88 2.1 2.88.51 0 .99-.06 1.43-.2a5.3 5.3 0 0 0 1.32-.65v2.3a4.3 4.3 0 0 1-1.32.57c-.44.1-1 .16-1.67.16Zm9.41-2.14c.47 0 1.03-.1 1.7-.3v1.99c-.68.3-1.5.45-2.47.45-1.07 0-1.85-.27-2.35-.81-.48-.55-.73-1.36-.73-2.45v-4.73h-1.28v-1.14l1.48-.9.77-2.07h1.71v2.1h2.75v2h-2.75v4.74c0 .38.11.67.32.85.22.18.5.27.85.27Zm3.57-10.4c0-.88.49-1.32 1.46-1.32s1.46.44 1.46 1.31c0 .42-.12.75-.37.98-.24.23-.6.34-1.09.34-.97 0-1.46-.44-1.46-1.32Zm2.8 12.36h-2.68v-9.83h2.68V583Zm4.95-4.93c0 .97.16 1.7.48 2.2.32.5.84.75 1.56.75.72 0 1.23-.24 1.54-.74.32-.5.47-1.23.47-2.21 0-.97-.15-1.7-.47-2.19-.32-.49-.83-.73-1.56-.73-.71 0-1.23.25-1.54.73a4.03 4.03 0 0 0-.48 2.19Zm6.8 0c0 1.6-.43 2.85-1.27 3.75a4.59 4.59 0 0 1-3.52 1.36c-.95 0-1.78-.2-2.5-.62a4.15 4.15 0 0 1-1.66-1.78 5.97 5.97 0 0 1-.58-2.71c0-1.6.42-2.85 1.26-3.75a4.62 4.62 0 0 1 3.53-1.33c.94 0 1.78.2 2.5.61s1.27 1 1.66 1.77c.38.77.58 1.67.58 2.7Zm11.28 4.93h-2.68v-5.74c0-.7-.12-1.24-.38-1.59-.25-.36-.65-.54-1.2-.54-.75 0-1.3.26-1.63.76a4.7 4.7 0 0 0-.5 2.49V583h-2.68v-9.83h2.05l.36 1.26h.15c.3-.47.7-.83 1.23-1.07a4.2 4.2 0 0 1 1.8-.37c1.14 0 2 .31 2.6.93.59.62.88 1.5.88 2.67V583Zm13.68 0-.52-1.34h-.07a4 4 0 0 1-1.4 1.2c-.47.2-1.1.32-1.86.32-.94 0-1.69-.27-2.23-.81s-.81-1.3-.81-2.3c0-1.05.36-1.82 1.09-2.3.73-.5 1.83-.78 3.3-.83l1.7-.06v-.43c0-1-.5-1.5-1.52-1.5-.79 0-1.71.25-2.77.72l-.89-1.81a8 8 0 0 1 3.76-.89c1.32 0 2.33.29 3.04.86.7.58 1.05 1.45 1.05 2.62V583h-1.87Zm-.8-4.55-1.03.03c-.78.03-1.36.17-1.74.42-.38.26-.57.65-.57 1.18 0 .76.43 1.14 1.3 1.14.62 0 1.12-.18 1.49-.54.37-.36.56-.83.56-1.42v-.81Zm14.5 4.55h-2.67v-5.74c0-.7-.13-1.24-.38-1.59-.25-.36-.65-.54-1.2-.54-.75 0-1.3.26-1.63.76a4.7 4.7 0 0 0-.5 2.49V583h-2.68v-9.83h2.05l.36 1.26h.15c.3-.47.7-.83 1.23-1.07a4.2 4.2 0 0 1 1.79-.37c1.14 0 2.01.31 2.6.93.6.62.89 1.5.89 2.67V583Zm5.88.18a3.2 3.2 0 0 1-2.72-1.35 6.2 6.2 0 0 1-.99-3.73c0-1.6.34-2.86 1-3.76.68-.9 1.6-1.35 2.78-1.35a3.2 3.2 0 0 1 2.83 1.44h.09c-.14-.73-.2-1.38-.2-1.96v-3.15h2.69V583h-2.06l-.52-1.27h-.11a3.07 3.07 0 0 1-2.79 1.45Zm.94-2.14c.69 0 1.19-.2 1.5-.6.33-.4.5-1.07.53-2.03v-.29c0-1.05-.16-1.8-.5-2.27-.31-.45-.84-.68-1.57-.68-.6 0-1.07.25-1.4.76-.33.5-.5 1.24-.5 2.21s.17 1.7.5 2.18c.34.48.82.72 1.44.72Zm14.95-5.19h.88c.86 0 1.5-.14 1.9-.43.42-.28.62-.73.62-1.35 0-.6-.2-1.04-.63-1.3a3.78 3.78 0 0 0-1.94-.39h-.83v3.47Zm0 2.22V583h-2.72v-12.85h3.74c1.75 0 3.04.32 3.88.96.83.63 1.25 1.6 1.25 2.89 0 .76-.2 1.43-.62 2.02-.42.59-1 1.05-1.77 1.38a511 511 0 0 0 3.78 5.6h-3.02l-3.07-4.93h-1.45Zm13.02-3.17a1.7 1.7 0 0 0-1.34.54c-.32.36-.5.87-.55 1.53h3.76a2.22 2.22 0 0 0-.52-1.53 1.75 1.75 0 0 0-1.35-.54Zm.38 8.28a5.07 5.07 0 0 1-3.71-1.31c-.9-.88-1.34-2.11-1.34-3.71 0-1.65.41-2.92 1.23-3.82a4.4 4.4 0 0 1 3.42-1.35c1.39 0 2.47.4 3.24 1.19a4.5 4.5 0 0 1 1.16 3.27v1.3h-6.33c.03.77.25 1.36.67 1.79a2.4 2.4 0 0 0 1.78.64 7.37 7.37 0 0 0 3.33-.77v2.07c-.47.24-.97.4-1.5.52-.54.12-1.19.18-1.96.18Zm13.04-3.1c0 1.01-.35 1.78-1.06 2.3-.7.53-1.74.8-3.13.8a9.5 9.5 0 0 1-1.83-.15 7.1 7.1 0 0 1-1.42-.43v-2.21a9.44 9.44 0 0 0 3.33.83c.98 0 1.46-.29 1.46-.85a.69.69 0 0 0-.2-.5 2.64 2.64 0 0 0-.66-.46c-.31-.17-.74-.36-1.26-.58a8.03 8.03 0 0 1-1.67-.88 2.53 2.53 0 0 1-.78-.93 3.13 3.13 0 0 1-.24-1.29c0-.87.34-1.55 1.02-2.02a4.94 4.94 0 0 1 2.88-.72c1.18 0 2.33.26 3.45.77l-.8 1.94c-.5-.22-.96-.39-1.39-.52a4.1 4.1 0 0 0-1.3-.2c-.8 0-1.2.2-1.2.64 0 .24.13.45.39.62.25.18.81.44 1.67.78.77.31 1.34.6 1.7.87a2.57 2.57 0 0 1 1.04 2.19Zm7.49 3.1a3.26 3.26 0 0 1-2.72-1.26h-.14c.1.82.14 1.3.14 1.42v3.98h-2.68v-14.15h2.18l.38 1.28h.12a3.1 3.1 0 0 1 2.79-1.46 3.2 3.2 0 0 1 2.72 1.34c.66.9.99 2.15.99 3.74a7.3 7.3 0 0 1-.47 2.73 3.37 3.37 0 0 1-3.31 2.37Zm-.8-8.05c-.66 0-1.14.2-1.44.62-.3.4-.47 1.07-.48 2.01v.3c0 1.05.16 1.8.47 2.26.31.46.81.68 1.5.68 1.2 0 1.8-.99 1.8-2.97 0-.96-.16-1.69-.46-2.17-.29-.48-.75-.73-1.38-.73Zm8.93 2.94c0 .97.16 1.7.47 2.2.32.5.84.75 1.57.75.71 0 1.22-.24 1.53-.74.32-.5.48-1.23.48-2.21 0-.97-.16-1.7-.48-2.19-.31-.49-.83-.73-1.55-.73-.72 0-1.23.25-1.55.73a4.03 4.03 0 0 0-.47 2.19Zm6.79 0c0 1.6-.42 2.85-1.27 3.75a4.59 4.59 0 0 1-3.52 1.36 4.9 4.9 0 0 1-2.5-.62 4.15 4.15 0 0 1-1.66-1.78 5.97 5.97 0 0 1-.58-2.71c0-1.6.42-2.85 1.26-3.75a4.62 4.62 0 0 1 3.53-1.33c.95 0 1.78.2 2.5.61s1.27 1 1.66 1.77c.39.77.58 1.67.58 2.7Zm11.29 4.93h-2.69v-5.74c0-.7-.12-1.24-.37-1.59-.25-.36-.66-.54-1.2-.54-.76 0-1.3.26-1.63.76-.34.5-.5 1.33-.5 2.49V583h-2.69v-9.83h2.05l.36 1.26h.15c.3-.47.71-.83 1.23-1.07a4.2 4.2 0 0 1 1.8-.37c1.14 0 2 .31 2.6.93.59.62.89 1.5.89 2.67V583Zm9.61-2.92c0 1.01-.35 1.78-1.05 2.3-.7.53-1.75.8-3.14.8a9.5 9.5 0 0 1-1.83-.15 7.1 7.1 0 0 1-1.42-.43v-2.21a9.47 9.47 0 0 0 3.34.83c.97 0 1.46-.29 1.46-.85a.69.69 0 0 0-.2-.5 2.67 2.67 0 0 0-.67-.46 15.5 15.5 0 0 0-1.26-.58 8.08 8.08 0 0 1-1.67-.88 2.5 2.5 0 0 1-.77-.93 3.14 3.14 0 0 1-.24-1.29c0-.87.33-1.55 1-2.02a4.94 4.94 0 0 1 2.9-.72c1.18 0 2.33.26 3.44.77l-.8 1.94c-.5-.22-.96-.39-1.38-.52-.43-.14-.87-.2-1.31-.2-.8 0-1.19.2-1.19.64 0 .24.13.45.38.62a10 10 0 0 0 1.68.78c.77.31 1.33.6 1.69.87.35.27.62.58.79.94.17.35.25.77.25 1.25Zm6.16-5.18a1.7 1.7 0 0 0-1.33.54c-.33.36-.51.87-.56 1.53h3.76a2.23 2.23 0 0 0-.51-1.53 1.75 1.75 0 0 0-1.36-.54Zm.38 8.28a5.07 5.07 0 0 1-3.7-1.31 4.94 4.94 0 0 1-1.35-3.71c0-1.65.42-2.92 1.24-3.82a4.4 4.4 0 0 1 3.41-1.35c1.4 0 2.47.4 3.25 1.19a4.5 4.5 0 0 1 1.16 3.27v1.3h-6.34c.03.77.26 1.36.68 1.79.42.43 1.01.64 1.77.64a7.38 7.38 0 0 0 3.33-.77v2.07c-.47.24-.97.4-1.5.52s-1.18.18-1.95.18ZM226.5 136.84h-12.58v-5.06h12.13v-3.93h-12.13v-5.15h12.58v-4.1h-16.77V141h16.77v-4.16ZM245 141v-8.29c0-4.96-2.99-7.74-6.7-7.74-1.98 0-3.58.8-5.18 2.37l-.26-2.15h-3.49V141h3.88v-8.06c0-2.4 1.63-4.42 4.03-4.42 2.5 0 3.8 1.82 3.8 4.22V141H245Zm11-12.51a4.5 4.5 0 0 1 4.57 4.6 4.47 4.47 0 0 1-4.58 4.65 4.43 4.43 0 0 1-4.48-4.64c0-2.85 1.99-4.61 4.48-4.61Zm4.83-9.86v8.74c-.93-1.63-3.52-2.53-5.19-2.53-4.6 0-8.03 2.82-8.03 8.26 0 5.18 3.49 8.25 8.13 8.25 1.92 0 3.87-.64 5.09-2.53l.25 2.18h3.65v-22.37h-3.9Zm16.03 18.98a4.37 4.37 0 0 1-4.48-4.48c0-2.47 1.67-4.48 4.48-4.48 2.82 0 4.48 2.01 4.48 4.48a4.37 4.37 0 0 1-4.48 4.48Zm-4.83 9.98v-8.45c1.12 1.73 3.59 2.24 5.25 2.24 5.06 0 7.97-3.64 7.97-8.25 0-4.64-3.23-8.26-8.1-8.26-1.79 0-3.9.77-5.12 2.53l-.25-2.18h-3.65v22.37h3.9Zm23.52-22.69c-5.02 0-8.16 3.72-8.16 8.23 0 4.54 3.07 8.22 8.2 8.22 5.11 0 8.22-3.68 8.22-8.22 0-4.51-3.23-8.23-8.26-8.23Zm.03 3.56c2.63 0 4.3 2.3 4.3 4.67 0 2.4-1.45 4.64-4.3 4.64-2.84 0-4.28-2.24-4.28-4.64 0-2.37 1.47-4.67 4.28-4.67Zm14.83-3.3V141h-3.9v-15.84h3.9Zm-4.26-4.38c0 3.04 4.6 3.04 4.6 0s-4.6-3.04-4.6 0ZM329.46 141v-8.29c0-4.96-2.98-7.74-6.69-7.74-1.98 0-3.58.8-5.18 2.37l-.26-2.15h-3.49V141h3.88v-8.06c0-2.4 1.63-4.42 4.03-4.42 2.5 0 3.8 1.82 3.8 4.22V141h3.91Zm4.27-19.8v4.06h-2.95v3.36h2.95v6.81c0 3.94 2.24 5.89 5.66 5.76a8.72 8.72 0 0 0 3.23-.67l-1.08-3.33c-.58.29-1.28.48-1.9.48-1.2 0-2.04-.73-2.04-2.24v-6.81h4.38v-3.36h-4.35v-4.48l-3.9.41ZM214 154.6h6.34c5.38 0 5.4 7.94 0 7.94H214v-7.94Zm6.34-4.03-10.56.03V173H214v-6.6h6.34c10.98 0 10.94-15.83 0-15.83Zm10.09 6.65V173h3.9v-8.32c0-2.91 1.9-4 3.94-4a3.9 3.9 0 0 1 2.82 1.02l1.76-3.39a5.99 5.99 0 0 0-4.07-1.5c-1.6 0-3.23.29-4.45 2.24l-.28-1.83h-3.62Zm21.3-.32c-5.03 0-8.16 3.72-8.16 8.23 0 4.54 3.07 8.22 8.2 8.22 5.11 0 8.22-3.68 8.22-8.22 0-4.51-3.24-8.23-8.26-8.23Zm.03 3.56c2.63 0 4.29 2.3 4.29 4.67 0 2.4-1.44 4.64-4.29 4.64s-4.29-2.24-4.29-4.64c0-2.37 1.48-4.67 4.3-4.67Zm12.2-7.27v4.07h-2.94v3.36h2.95v6.81c0 3.94 2.24 5.89 5.66 5.76a8.72 8.72 0 0 0 3.23-.67l-1.08-3.33c-.58.29-1.28.48-1.9.48-1.2 0-2.04-.73-2.04-2.24v-6.81h4.38v-3.36h-4.35v-4.48l-3.9.41Zm26.84 13.31c.6-6.5-2.7-9.76-7.97-9.76-5.12 0-8.38 3.46-8.38 8.26 0 5.06 3.23 8.42 8.67 8.42 2.4 0 5.12-.84 6.78-2.56l-2.5-2.47c-.9.93-2.78 1.47-4.22 1.47-2.75 0-4.45-1.4-4.7-3.36h12.32Zm-12.26-3.23c.58-2.05 2.3-3.07 4.42-3.07 2.24 0 3.84 1.02 4.1 3.07h-8.52Zm26.18 5.15a4.74 4.74 0 0 1-3.46 1.32c-2.43 0-4.48-1.6-4.48-4.61 0-2.75 1.92-4.67 4.54-4.67a4.8 4.8 0 0 1 3.17 1.24l2.47-2.59a7.5 7.5 0 0 0-5.7-2.33c-4.57 0-8.38 2.75-8.38 8.35s3.8 8.35 8.38 8.35c2.34 0 4.26-.7 6.08-2.5l-2.62-2.56Zm5.94-15.23v4.07h-2.95v3.36h2.94v6.81c0 3.94 2.24 5.89 5.67 5.76a8.72 8.72 0 0 0 3.23-.67l-1.09-3.33c-.57.29-1.28.48-1.89.48-1.21 0-2.04-.73-2.04-2.24v-6.81h4.38v-3.36h-4.35v-4.48l-3.9.41Zm15.08 3.97V173h-3.9v-15.84h3.9Zm-4.26-4.38c0 3.04 4.61 3.04 4.61 0s-4.6-3.04-4.6 0Zm15.56 4.12c-5.02 0-8.16 3.72-8.16 8.23 0 4.54 3.07 8.22 8.2 8.22 5.11 0 8.22-3.68 8.22-8.22 0-4.51-3.23-8.23-8.26-8.23Zm.03 3.56c2.63 0 4.3 2.3 4.3 4.67 0 2.4-1.45 4.64-4.3 4.64-2.84 0-4.28-2.24-4.28-4.64 0-2.37 1.47-4.67 4.28-4.67ZM363.52 173v-8.29c0-4.96-2.97-7.74-6.69-7.74-1.98 0-3.58.8-5.18 2.37l-.25-2.15h-3.5V173h3.88v-8.06c0-2.4 1.63-4.42 4.03-4.42 2.5 0 3.8 1.82 3.8 4.22V173h3.91Z"/><path stroke="#fff" d="M158.13 169.8c-3.26 2.75-7.85 3.7-13.46 2.95-5.61-.75-12.18-3.18-19.28-7.08-14.2-7.81-30.48-21.49-45.42-39.17-14.95-17.7-25.71-36.02-31.04-51.33-2.67-7.65-3.97-14.53-3.77-20.19.2-5.65 1.9-10.03 5.16-12.78 3.25-2.75 7.85-3.7 13.46-2.95 5.6.75 12.17 3.18 19.28 7.08 14.2 7.82 30.47 21.49 45.42 39.17 14.95 17.7 25.7 36.02 31.04 51.33 2.66 7.66 3.96 14.53 3.76 20.19-.2 5.65-1.9 10.03-5.15 12.78Z"/><path stroke="#fff" d="M163.28 46.94c3.02 3.01 4.34 7.52 4.07 13.17-.28 5.65-2.15 12.4-5.44 19.8-6.6 14.81-18.86 32.17-35.23 48.55-16.38 16.37-33.73 28.63-48.54 35.22-7.41 3.3-14.16 5.17-19.8 5.44-5.66.28-10.16-1.04-13.18-4.06-3.01-3.01-4.33-7.52-4.06-13.17.27-5.65 2.14-12.4 5.44-19.8 6.6-14.81 18.85-32.17 35.23-48.54C98.14 67.17 115.5 54.9 130.3 48.32c7.4-3.3 14.15-5.17 19.8-5.44 5.66-.28 10.16 1.04 13.17 4.06Z"/></svg>