<svg width="160" height="196" viewBox="0 0 160 196" fill="none" xmlns="http://www.w3.org/2000/svg">
<path d="M79.75 157.5C122.552 157.5 157.25 122.802 157.25 80C157.25 37.198 122.552 2.5 79.75 2.5C36.9479 2.5 2.25 37.198 2.25 80C2.25 122.802 36.9479 157.5 79.75 157.5Z" stroke="white" stroke-width="4.17508"/>
<path d="M79.3748 144.08C114.971 144.08 143.828 115.223 143.828 79.6268C143.828 44.0304 114.971 15.1738 79.3748 15.1738C43.7784 15.1738 14.9219 44.0304 14.9219 79.6268C14.9219 115.223 43.7784 144.08 79.3748 144.08Z" stroke="white" stroke-width="3.13132"/>
<path d="M45.8086 66.3917V60.8907L49.8746 49.6494H52.2663L56.3323 60.8907V66.3917H53.9406V62.517H48.2003V66.3917H45.8086ZM53.51 60.1253L51.0944 53.4284H51.0465L48.6309 60.1253H53.51ZM70.6735 49.6494V52.0412H66.6075V63.9999H70.6735V66.3917H60.1498V63.9999H64.2158V52.0412H60.1498V49.6494H70.6735ZM82.6229 53.9546C82.6229 53.4125 82.4395 52.958 82.0728 52.5913C81.7061 52.2245 81.2516 52.0412 80.7095 52.0412H78.7961C78.254 52.0412 77.7995 52.2325 77.4328 52.6152C77.0661 52.982 76.8827 53.4284 76.8827 53.9546V62.0626C76.8827 62.5888 77.0661 63.0432 77.4328 63.4259C77.8155 63.7927 78.27 63.976 78.7961 63.976H80.7095C81.2357 63.976 81.6822 63.7927 82.0489 63.4259C82.4316 63.0432 82.6229 62.5888 82.6229 62.0626V60.7471H85.0147V62.0626C85.0147 62.8439 84.8234 63.5694 84.4407 64.2391C84.058 64.8929 83.5318 65.4191 82.8621 65.8177C82.2083 66.2003 81.4908 66.3917 80.7095 66.3917H78.7961C78.0148 66.3917 77.2973 66.2003 76.6436 65.8177C75.9898 65.4191 75.4636 64.8929 75.065 64.2391C74.6823 63.5694 74.491 62.8439 74.491 62.0626V53.9546C74.491 53.1733 74.6823 52.4558 75.065 51.802C75.4636 51.1323 75.9898 50.6061 76.6436 50.2234C77.2973 49.8408 78.0148 49.6494 78.7961 49.6494H80.7095C81.4908 49.6494 82.2083 49.8408 82.8621 50.2234C83.5318 50.6061 84.058 51.1323 84.4407 51.802C84.8234 52.4558 85.0147 53.1733 85.0147 53.9546V55.27H82.6229V53.9546ZM99.3561 55.3896C99.3561 56.1709 99.1648 56.8964 98.7821 57.5661C98.3994 58.2199 97.8733 58.7381 97.2036 59.1208C96.5495 59.5034 95.832 59.6948 95.051 59.6948H91.2242V66.3917H88.8324V49.6494H95.051C95.832 49.6494 96.5495 49.8408 97.2036 50.2234C97.8733 50.6061 98.3994 51.1323 98.7821 51.802C99.1648 52.4558 99.3561 53.1733 99.3561 53.9546V55.3896ZM95.051 57.303C95.5928 57.303 96.0473 57.1197 96.4143 56.7529C96.7805 56.3862 96.9644 55.9317 96.9644 55.3896V53.9546C96.9644 53.4125 96.7805 52.958 96.4143 52.5913C96.0473 52.2245 95.5928 52.0412 95.051 52.0412H91.2242V57.303H95.051ZM103.173 66.3917V60.8907L107.239 49.6494H109.631L113.697 60.8907V66.3917H111.305V62.517H105.565V66.3917H103.173ZM110.874 60.1253L108.459 53.4284H108.411L105.995 60.1253H110.874Z" fill="white"/>
<path d="M28.2031 79.5876H131.296" stroke="white" stroke-width="1.64948"/>
<path d="M62.5402 106.347V107.304C62.5402 107.862 62.7395 108.348 63.1381 108.763C63.5527 109.161 64.039 109.361 64.5971 109.361H66.1996C66.8055 109.361 67.2998 109.193 67.6825 108.859C68.0811 108.508 68.2804 108.069 68.2804 107.543C68.2804 107.08 68.1289 106.65 67.826 106.251C67.523 105.853 67.1404 105.494 66.6779 105.175C66.2315 104.856 65.6096 104.466 64.8124 104.003C63.8716 103.461 63.1062 102.983 62.5163 102.568C61.9263 102.138 61.4241 101.627 61.0095 101.037C60.5949 100.431 60.3876 99.7459 60.3876 98.9806C60.3876 98.2152 60.571 97.5298 60.9377 96.9237C61.3204 96.3175 61.8466 95.8474 62.5163 95.5125C63.2019 95.1777 63.9752 95.0103 64.8363 95.0103H65.9604C66.7736 95.0103 67.523 95.2098 68.2086 95.6082C68.8943 96.0065 69.4364 96.5492 69.835 97.2346C70.2336 97.9043 70.433 98.6457 70.433 99.4589V100.176H68.0412V99.4589C68.0412 98.8849 67.834 98.3983 67.4194 97.9999C67.0208 97.6016 66.5344 97.402 65.9604 97.402H64.8363C64.1985 97.402 63.6962 97.5455 63.3295 97.8325C62.9627 98.1039 62.7794 98.4865 62.7794 98.9806C62.7794 99.4589 63.0105 99.8894 63.473 100.272C63.9513 100.655 64.7008 101.141 65.7212 101.731C66.7417 102.321 67.5788 102.855 68.2326 103.334C68.9023 103.812 69.4763 104.41 69.9546 105.127C70.433 105.829 70.6721 106.634 70.6721 107.543C70.6721 108.324 70.4728 109.042 70.0742 109.696C69.6915 110.333 69.1573 110.835 68.4717 111.202C67.7861 111.569 67.0287 111.753 66.1996 111.753H64.5971C63.7839 111.753 63.0345 111.553 62.3489 111.155C61.6792 110.756 61.145 110.222 60.7464 109.552C60.3478 108.867 60.1484 108.117 60.1484 107.304V106.347H62.5402ZM80.7082 109.337C81.2344 109.337 81.6808 109.154 82.0476 108.787C82.4303 108.404 82.6216 107.95 82.6216 107.423V99.3154C82.6216 98.7736 82.4382 98.3191 82.0715 97.9521C81.7047 97.5851 81.2503 97.402 80.7082 97.402H78.7948C78.2526 97.402 77.7982 97.5933 77.4315 97.976C77.0647 98.343 76.8814 98.7892 76.8814 99.3154V107.423C76.8814 107.95 77.0647 108.404 77.4315 108.787C77.8142 109.154 78.2686 109.337 78.7948 109.337H80.7082ZM74.4896 99.3154C74.4896 98.5344 74.681 97.8169 75.0637 97.1628C75.4623 96.4931 75.9884 95.967 76.6422 95.5843C77.2959 95.2016 78.0134 95.0103 78.7948 95.0103H80.7082C81.4895 95.0103 82.207 95.2016 82.8608 95.5843C83.5305 95.967 84.0566 96.4931 84.4393 97.1628C84.822 97.8169 85.0133 98.5344 85.0133 99.3154V107.423C85.0133 108.204 84.822 108.93 84.4393 109.6C84.0566 110.254 83.5305 110.78 82.8608 111.179C82.207 111.561 81.4895 111.753 80.7082 111.753H78.7948C78.0134 111.753 77.2959 111.561 76.6422 111.179C75.9884 110.78 75.4623 110.254 75.0637 109.6C74.681 108.93 74.4896 108.204 74.4896 107.423V99.3154ZM96.963 99.3154C96.963 98.7736 96.7791 98.3191 96.4129 97.9521C96.0459 97.5851 95.5915 97.402 95.0496 97.402H93.1362C92.5936 97.402 92.1391 97.5933 91.7729 97.976C91.4059 98.343 91.2228 98.7892 91.2228 99.3154V107.423C91.2228 107.95 91.4059 108.404 91.7729 108.787C92.1556 109.154 92.61 109.337 93.1362 109.337H95.0496C95.5758 109.337 96.022 109.154 96.389 108.787C96.7717 108.404 96.963 107.95 96.963 107.423V106.108H99.3548V107.423C99.3548 108.204 99.1634 108.93 98.7808 109.6C98.3981 110.254 97.8719 110.78 97.2022 111.179C96.5482 111.561 95.8307 111.753 95.0496 111.753H93.1362C92.3544 111.753 91.6369 111.561 90.9837 111.179C90.3296 110.78 89.8034 110.254 89.4051 109.6C89.0224 108.93 88.8311 108.204 88.8311 107.423V99.3154C88.8311 98.5344 89.0224 97.8169 89.4051 97.1628C89.8034 96.4931 90.3296 95.967 90.9837 95.5843C91.6369 95.2016 92.3544 95.0103 93.1362 95.0103H95.0496C95.8307 95.0103 96.5482 95.2016 97.2022 95.5843C97.8719 95.967 98.3981 96.4931 98.7808 97.1628C99.1634 97.8169 99.3548 98.5344 99.3548 99.3154V100.631H96.963V99.3154Z" fill="white"/>
<path d="M60.4409 182.091C60.3557 181.371 60.01 180.812 59.404 180.415C58.7979 180.017 58.0545 179.818 57.1739 179.818C56.5299 179.818 55.9665 179.922 55.4835 180.131C55.0053 180.339 54.6312 180.625 54.3614 180.99C54.0962 181.355 53.9636 181.769 53.9636 182.233C53.9636 182.621 54.056 182.955 54.2406 183.234C54.43 183.509 54.6715 183.739 54.9651 183.923C55.2586 184.103 55.5664 184.252 55.8884 184.371C56.2103 184.484 56.5062 184.577 56.7761 184.648L58.2534 185.045C58.6322 185.145 59.0536 185.282 59.5176 185.457C59.9864 185.633 60.4338 185.872 60.8599 186.175C61.2908 186.473 61.6459 186.857 61.9253 187.325C62.2046 187.794 62.3443 188.369 62.3443 189.051C62.3443 189.837 62.1384 190.547 61.7264 191.182C61.3192 191.816 60.7226 192.321 59.9366 192.695C59.1554 193.069 58.2061 193.256 57.0886 193.256C56.047 193.256 55.145 193.088 54.3827 192.751C53.6251 192.415 53.0285 191.946 52.5929 191.345C52.162 190.744 51.9182 190.045 51.8614 189.25H53.6795C53.7269 189.799 53.9116 190.254 54.2335 190.614C54.5602 190.969 54.9722 191.234 55.4693 191.409C55.9712 191.58 56.511 191.665 57.0886 191.665C57.761 191.665 58.3647 191.556 58.8997 191.338C59.4348 191.116 59.8585 190.808 60.171 190.415C60.4835 190.017 60.6398 189.553 60.6398 189.023C60.6398 188.54 60.5048 188.147 60.2349 187.844C59.9651 187.541 59.6099 187.295 59.1696 187.105C58.7293 186.916 58.2534 186.75 57.742 186.608L55.9523 186.097C54.8159 185.77 53.9163 185.304 53.2534 184.697C52.5905 184.091 52.2591 183.298 52.2591 182.318C52.2591 181.504 52.4793 180.794 52.9196 180.188C53.3647 179.577 53.9613 179.103 54.7094 178.767C55.4622 178.426 56.3026 178.256 57.2307 178.256C58.1682 178.256 59.0015 178.424 59.7307 178.76C60.4598 179.091 61.0375 179.546 61.4636 180.124C61.8945 180.701 62.1218 181.357 62.1455 182.091H60.4409ZM77.513 185.727C77.513 187.261 77.236 188.587 76.682 189.705C76.1281 190.822 75.3681 191.684 74.4022 192.29C73.4363 192.896 72.3331 193.199 71.0925 193.199C69.852 193.199 68.7488 192.896 67.7829 192.29C66.817 191.684 66.057 190.822 65.5031 189.705C64.9491 188.587 64.6721 187.261 64.6721 185.727C64.6721 184.193 64.9491 182.867 65.5031 181.75C66.057 180.633 66.817 179.771 67.7829 179.165C68.7488 178.559 69.852 178.256 71.0925 178.256C72.3331 178.256 73.4363 178.559 74.4022 179.165C75.3681 179.771 76.1281 180.633 76.682 181.75C77.236 182.867 77.513 184.193 77.513 185.727ZM75.8085 185.727C75.8085 184.468 75.5978 183.405 75.1763 182.538C74.7597 181.672 74.1939 181.016 73.4789 180.571C72.7687 180.126 71.9732 179.903 71.0925 179.903C70.2119 179.903 69.414 180.126 68.6991 180.571C67.9888 181.016 67.423 181.672 67.0016 182.538C66.585 183.405 66.3766 184.468 66.3766 185.727C66.3766 186.987 66.585 188.05 67.0016 188.916C67.423 189.783 67.9888 190.438 68.6991 190.884C69.414 191.329 70.2119 191.551 71.0925 191.551C71.9732 191.551 72.7687 191.329 73.4789 190.884C74.1939 190.438 74.7597 189.783 75.1763 188.916C75.5978 188.05 75.8085 186.987 75.8085 185.727ZM92.1792 183H90.4178C90.3137 182.493 90.1314 182.048 89.871 181.665C89.6153 181.281 89.3028 180.959 88.9335 180.699C88.5689 180.434 88.164 180.235 87.719 180.102C87.2739 179.97 86.8099 179.903 86.3269 179.903C85.4462 179.903 84.6484 180.126 83.9335 180.571C83.2232 181.016 82.6574 181.672 82.236 182.538C81.8193 183.405 81.611 184.468 81.611 185.727C81.611 186.987 81.8193 188.05 82.236 188.916C82.6574 189.783 83.2232 190.438 83.9335 190.884C84.6484 191.329 85.4462 191.551 86.3269 191.551C86.8099 191.551 87.2739 191.485 87.719 191.352C88.164 191.22 88.5689 191.023 88.9335 190.763C89.3028 190.498 89.6153 190.173 89.871 189.79C90.1314 189.402 90.3137 188.956 90.4178 188.455H92.1792C92.0466 189.198 91.8051 189.863 91.4548 190.45C91.1044 191.037 90.6688 191.537 90.1479 191.949C89.6271 192.356 89.0424 192.666 88.3937 192.879C87.7497 193.092 87.0608 193.199 86.3269 193.199C85.0864 193.199 83.9832 192.896 83.0173 192.29C82.0513 191.684 81.2914 190.822 80.7374 189.705C80.1835 188.587 79.9065 187.261 79.9065 185.727C79.9065 184.193 80.1835 182.867 80.7374 181.75C81.2914 180.633 82.0513 179.771 83.0173 179.165C83.9832 178.559 85.0864 178.256 86.3269 178.256C87.0608 178.256 87.7497 178.362 88.3937 178.575C89.0424 178.788 89.6271 179.101 90.1479 179.513C90.6688 179.92 91.1044 180.417 91.4548 181.004C91.8051 181.587 92.0466 182.252 92.1792 183ZM102.412 178.455V193H100.65V178.455H102.412ZM107.705 178.455V193H105.943V178.455H107.705Z" fill="white"/>
</svg>
