<svg width="353" height="378" viewBox="0 0 353 378" fill="none" xmlns="http://www.w3.org/2000/svg">
<rect width="353" height="378" fill="white"/>
<path d="M169.27 135.951C169.27 135.951 165.94 136.021 164.01 135.988C163.93 136.798 163 144.137 162.2 150.041C161.28 155.504 153.99 196.029 151.52 208.16C150.87 211.823 148.86 222.171 148.67 223.205C146.35 223.482 143.61 223.738 141.82 223.807C141.58 223.815 141.18 223.893 140.99 223.893V225.994C141.21 225.985 142.37 226.074 143.19 226.039C145.16 225.976 150.75 225.711 151.81 225.711C155.83 225.711 158.51 225.977 162.23 226.051C162.28 226.051 163.3 226.047 163.75 225.99V223.867C163.44 223.867 163.03 223.857 162.79 223.857C161.74 223.89 157.87 223.593 155.91 223.326C156.14 221.938 159.56 200.95 161.2 192.557C164.32 177.022 166.48 166.012 166.48 166.012L167.06 167.379L191.71 226.131L196.21 226.154C196.21 226.154 198.78 219.792 201.83 212.656C201.91 212.487 202.13 211.976 202.44 211.246C205.64 203.836 221.5 166.229 221.5 166.229C221.5 166.229 221.65 166.906 221.9 168.117C223.41 175.488 228.52 202.052 229.61 208.461C230.12 211.758 230.6 215.102 230.88 217.061C231.29 219.835 231.56 222.55 231.56 223.33C231.06 223.353 226.04 223.807 224.14 223.889C223.87 223.88 223.36 223.905 223.33 223.91V226.047C224.01 226.047 224.67 226.077 225.33 226.062C229.21 225.988 232.94 225.684 236.82 225.686C241.18 225.69 248.25 226.071 252.78 226.1C253.29 226.1 254.2 226.055 254.2 226.055V223.896C253.94 223.894 252.8 223.838 252.38 223.805C250.35 223.646 246.93 223.329 246.06 223.271C246.06 223.271 245.5 220.168 244.76 216.584C241.8 202.247 233.37 158.668 232.08 147.945C231.64 144.26 230.39 135.984 230.39 135.984L225.32 135.983C225.32 135.983 222.73 143.414 220.37 150.19C218.76 154.82 216.57 160.536 214.9 164.919C206.66 186.575 197.42 206.755 197.42 206.755C197.42 206.755 177.78 159.893 176.74 157.183C175.69 154.472 169.27 135.951 169.27 135.951ZM28.09 135.971L28.133 140.924L28.049 152.986L29.3557 152.949L29.4924 142.221C29.4924 142.221 36.6575 142.159 37.5842 142.16L50.9452 142.166L59.5682 142.209L59.5822 216.816L59.5842 223.26L59.4022 223.285C58.2542 223.374 53.8372 223.644 52.0432 223.709C51.6412 223.722 51.3842 223.732 51.3402 223.727L51.3482 225.91C51.6722 225.926 52.5452 225.947 52.6602 225.943C56.9042 225.888 62.6472 225.519 66.7192 225.523C70.8562 225.525 76.6782 225.927 80.2812 225.969C80.6382 225.971 81.0612 225.936 81.4042 225.936V223.889L80.9572 223.893C79.8092 223.888 73.4602 223.479 72.8032 223.393C72.7762 222.392 72.6582 217.56 72.6582 217.453L72.6892 142.201L79.2542 142.183L96.3832 142.195L102.1 142.273C102.138 142.682 102.427 148.116 102.422 148.264C102.409 148.659 102.636 152.707 102.627 153.703L103.982 153.719L103.885 141.519L103.947 136.031C98.9132 136.168 86.0842 136.34 66.1742 136.33C49.0992 136.319 32.644 136.176 28.09 135.971ZM107.836 135.99L107.857 138.127C108.533 138.164 112.507 138.515 113.473 138.563C114.244 138.657 115.32 138.754 116.09 138.828C116.09 139.512 116.102 144.233 116.113 146.096C116.242 163.755 116.132 202.783 116.08 216.592C116.064 220.585 116.053 223.158 116.053 223.158C115.566 223.304 114.47 223.359 113.285 223.439C112.272 223.508 108.642 223.813 107.832 223.83V225.967C108.168 225.967 108.784 226.038 109.135 226.035C113.244 226.036 118.957 225.526 123.166 225.529C127.42 225.532 133.1 226.05 136.45 226.051L136.44 226.053C136.73 226.057 137.42 225.981 137.71 225.982V223.846H137.42C137.29 223.818 132.97 223.636 131.92 223.527C131.37 223.492 128.99 223.286 128.96 223.207C128.95 223.165 128.94 222.526 128.94 221.461C128.95 220.45 128.95 218.769 128.95 216.947C128.96 203.018 129 161.649 129.01 145.836C129.01 142.78 129.02 140.297 129.02 138.965C129.95 138.906 133.75 138.509 135.11 138.389C135.17 138.383 136.97 138.279 137.71 138.234V136.008C133.06 136.006 126.907 136.37 122.369 136.367C117.623 136.364 111.776 135.992 107.836 135.99ZM323.036 136.051C323.036 136.051 322.546 136.053 321.636 136.055C318.526 136.068 310.566 136.127 301.256 136.178C295.536 136.211 291.066 136.257 285.176 136.254C281.046 136.302 275.266 136.462 271.696 136.455C265.996 136.446 261.346 136.095 258.816 136.084C257.616 136.079 256.946 136.124 256.616 136.104C256.636 136.134 256.636 138.213 256.636 138.213C256.856 138.251 257.296 138.3 257.706 138.291C259.136 138.387 261.816 138.604 263.176 138.783C263.446 138.833 263.906 138.909 265.186 139.051C265.176 139.524 265.246 144.878 265.236 148.094C265.236 151.074 265.206 217.564 265.206 217.564C265.206 217.672 265.056 222.911 265.056 223.334C262.796 223.721 258.456 223.959 256.976 223.965H256.536V226.08C256.746 226.079 257.716 226.117 258.266 226.117C260.656 226.116 266.816 225.736 273.106 225.732C277.516 225.728 282.366 225.893 287.276 225.963C293.326 226.047 299.446 226.051 304.946 226.129C314.016 226.257 321.366 226.268 323.756 226.271C323.756 226.271 324.046 209.448 324.046 208.092L322.736 208.107C322.736 209.538 322.206 214.867 322.186 215.1C322.016 217.106 321.836 219.208 321.696 220.244C321.696 220.244 321.056 220.295 320.746 220.289C319.256 220.261 314.496 220.434 314.396 220.434L293.166 220.443L278.256 220.193L278.156 216.057L278.146 183.945C280.806 183.855 284.866 183.714 287.336 183.719C289.436 183.723 294.386 183.605 297.156 183.611C303.886 183.623 309.866 183.666 310.346 183.68C311.456 183.712 313.516 183.78 314.296 183.828C314.326 184.111 314.416 184.553 314.426 184.678C314.826 187.137 315.046 188.84 315.316 191.254C315.356 191.471 315.376 191.681 315.406 191.879H316.936C316.936 191.879 316.976 191.016 316.956 190.479C316.926 188.586 316.806 184.81 316.806 180.625C316.796 177.724 316.966 173.289 316.986 171.156C316.996 170.579 316.926 170.169 316.926 170.004L315.526 170.031C315.516 170.492 315.406 171.172 315.406 171.172C315.286 172.762 314.836 174.794 314.476 176.938C314.376 177.205 314.306 177.578 314.306 177.578C314.146 177.632 309.756 177.866 309.366 177.863C309.216 177.862 302.826 178.041 302.716 178.041L278.156 177.949L278.196 142.539C278.196 142.539 281.316 142.429 282.186 142.434C285.726 142.434 291.486 142.402 297.356 142.41C305.946 142.421 314.286 142.474 314.306 142.486C314.356 142.511 316.896 142.546 316.946 142.59C317.006 142.638 320.186 142.733 320.966 142.758C320.966 142.758 321.026 143.021 321.066 143.354C321.416 147.087 321.706 151.521 321.836 153.092L321.846 153.721L323.156 153.717C323.156 151.418 323.036 144.377 323.016 139.898C323.006 138.459 323.036 137.288 323.036 136.621V136.051Z" fill="#E90606"/>
</svg>
