<svg width="318" height="122" viewBox="0 0 318 122" fill="none" xmlns="http://www.w3.org/2000/svg">
<path d="M217.104 69.2891L220.284 70.2456C220.072 71.1489 219.754 71.8928 219.277 72.4773C218.8 73.0618 218.27 73.54 217.581 73.8057C216.892 74.1245 216.044 74.2839 214.985 74.2839C213.713 74.2839 212.706 74.1245 211.858 73.7525C211.063 73.3806 210.374 72.743 209.791 71.7865C209.209 70.8832 208.891 69.6611 208.891 68.2264C208.891 66.3135 209.421 64.8257 210.427 63.763C211.434 62.7003 212.918 62.222 214.773 62.222C216.256 62.222 217.369 62.5409 218.217 63.1254C219.065 63.7099 219.701 64.6132 220.072 65.8884L216.892 66.5792C216.786 66.2072 216.68 65.9416 216.521 65.7822C216.309 65.5165 216.097 65.3039 215.779 65.1445C215.462 64.9851 215.144 64.932 214.826 64.932C214.031 64.932 213.395 65.2508 212.971 65.9416C212.653 66.4198 212.494 67.2168 212.494 68.2264C212.494 69.5017 212.706 70.405 213.077 70.8832C213.448 71.3614 214.031 71.6271 214.72 71.6271C215.409 71.6271 215.938 71.4146 216.256 71.0426C216.68 70.5644 216.945 70.033 217.104 69.2891Z" fill="#225E63"/>
<path d="M221.555 68.2264C221.555 66.3135 222.085 64.8257 223.144 63.763C224.204 62.7003 225.688 62.1689 227.596 62.1689C229.503 62.1689 231.04 62.7003 232.1 63.7099C233.16 64.7726 233.69 66.2073 233.69 68.1202C233.69 69.5017 233.478 70.6176 233.001 71.4677C232.524 72.3179 231.888 73.0087 230.987 73.4869C230.139 73.9651 229.026 74.2308 227.755 74.2308C226.483 74.2308 225.37 74.0182 224.469 73.5932C223.621 73.1681 222.932 72.5304 222.35 71.574C221.767 70.6175 221.555 69.608 221.555 68.2264ZM225.158 68.2264C225.158 69.3954 225.37 70.2456 225.794 70.777C226.218 71.3083 226.801 71.574 227.596 71.574C228.391 71.574 228.973 71.3083 229.397 70.8301C229.821 70.2987 230.033 69.3954 230.033 68.1202C230.033 67.0043 229.821 66.2073 229.344 65.729C228.92 65.1977 228.285 64.9851 227.543 64.9851C226.801 64.9851 226.218 65.2508 225.794 65.7822C225.37 66.2073 225.158 67.0574 225.158 68.2264Z" fill="#225E63"/>
<path d="M235.545 62.3815H240.262L242.063 69.5017L243.865 62.3815H248.581V74.0714H245.614V65.1445L243.335 74.0714H240.686L238.407 65.1445V74.0714H235.439V62.3815H235.545Z" fill="#225E63"/>
<path d="M250.912 62.3815H256.9C258.225 62.3815 259.179 62.7003 259.815 63.3379C260.451 63.9755 260.768 64.8257 260.768 65.9947C260.768 67.1637 260.398 68.1201 259.709 68.7578C259.02 69.4485 257.907 69.7674 256.476 69.7674H254.516V74.1245H250.912V62.3815ZM254.516 67.3762H255.416C256.105 67.3762 256.582 67.27 256.9 67.0043C257.165 66.7386 257.324 66.4729 257.324 66.101C257.324 65.729 257.218 65.4102 256.953 65.1445C256.688 64.8789 256.264 64.7726 255.575 64.7726H254.568V67.3762H254.516Z" fill="#225E63"/>
<path d="M262.676 62.3815H266.279V71.202H271.896V74.0714H262.676V62.3815Z" fill="#225E63"/>
<path d="M273.699 62.3815H277.303V74.0714H273.699V62.3815Z" fill="#225E63"/>
<path d="M287.052 72.1054H282.972L282.389 74.0183H278.732L283.131 62.3284H287.052L291.45 74.0183H287.688L287.052 72.1054ZM286.31 69.608L285.038 65.4102L283.767 69.608H286.31Z" fill="#225E63"/>
<path d="M292.564 62.3815H295.903L300.301 68.864V62.3815H303.693V74.0714H300.301L295.956 67.6419V74.0714H292.564V62.3815Z" fill="#225E63"/>
<path d="M305.281 62.3815H316.25V65.2508H312.594V74.0714H308.991V65.2508H305.334V62.3815H305.281Z" fill="#225E63"/>
<path d="M173.758 80.1821L184.197 76.8876L180.806 69.3423C178.315 72.4774 175.825 76.5157 173.758 80.1821ZM170.208 45.6969L149.753 0L0 8.50174L41.4921 122L121.35 96.7605C116.263 89.4277 114.408 80.7134 120.29 76.4625C126.861 71.6803 136.77 77.2065 143.076 85.0174C149.17 74.8153 166.286 51.0636 170.208 45.6969Z" fill="#225E63"/>
<path d="M145.09 33.0239C151.343 33.0239 156.43 28.2417 156.43 22.2905C156.43 16.3392 151.343 11.557 145.09 11.557C138.837 11.557 133.75 16.3392 133.75 22.2905C133.75 28.1885 138.837 33.0239 145.09 33.0239ZM135.817 37.6467H154.364V86.2661H135.817V37.6467Z" fill="#FEFEFE"/>
<path d="M126.649 51.834C126.808 51.8871 126.914 51.834 126.914 51.6746V39.347C126.914 39.1876 126.808 39.0282 126.649 38.9219C126.649 38.9219 124.212 37.3279 116.793 36.9028C116.422 36.6902 109.904 36.6371 108.155 36.9028C81.1299 39.0814 80.123 58.6885 80.123 59.5387V64.3209C80.123 64.9054 80.1231 84.9376 108.155 86.6911C110.911 86.9037 116.263 86.6911 116.793 86.6911C123.258 86.6911 127.709 84.7251 127.709 84.7251C127.868 84.672 127.974 84.5125 127.974 84.3531V72.8227C127.974 72.6632 127.868 72.6101 127.762 72.7164C127.762 72.7164 125.748 74.3105 116.952 75.2138C114.461 75.4794 113.243 75.3732 112.342 75.2138C99.8358 73.0883 99.2529 63.949 99.2529 63.949C99.2529 63.7895 99.1999 63.5239 99.1999 63.4176V59.9106C99.1999 59.7512 99.1999 59.4855 99.2529 59.3793C99.2529 59.3793 100.101 49.5491 112.342 48.4864H116.952C122.304 49.1772 126.649 51.834 126.649 51.834Z" fill="#FEFEFE"/>
<path d="M28.6152 86.1066C28.6152 86.266 28.7212 86.3723 28.8802 86.3723H46.9502C47.1092 86.3723 47.2151 86.266 47.2151 86.1066V71.9725C47.2151 71.8131 47.3211 71.7068 47.4801 71.7068C47.4801 71.7068 76.3603 73.7791 76.3603 54.3845C76.3603 39.0282 58.2373 37.381 52.3023 37.6467H28.8802C28.7212 37.6467 28.6152 37.753 28.6152 37.9124V86.1066ZM46.8972 60.9202V48.2207H51.3484C51.3484 48.2207 57.7604 48.4864 58.2903 52.8967C58.3963 53.2155 58.3963 55.3941 58.2903 55.5004C57.4424 60.6545 51.8784 60.9202 51.8784 60.9202H46.8972Z" fill="#FEFEFE"/>
<path d="M145.62 109.726C147.104 109.726 148.27 109.726 150.177 108.875C156.748 105.422 178.952 51.0636 202.374 34.3258C202.533 34.2195 202.692 34.0601 202.798 33.9007C202.957 33.6882 202.957 33.4756 202.957 33.4756C202.957 33.4756 202.957 32.3598 199.512 32.3598C178.687 31.7753 157.013 75.6124 145.62 92.9347C145.461 93.1472 144.719 92.9347 144.719 92.9347C144.719 92.9347 137.088 83.9016 130.465 80.4478C130.306 80.3946 129.564 80.129 128.769 80.1821C128.239 80.1821 125.165 80.8197 123.735 82.3075C122.039 84.1141 122.092 85.1237 122.092 87.3023C122.092 87.4617 122.198 88.2056 122.41 88.5776C124.053 91.4469 131.418 101.649 137.512 107.281C138.413 107.972 139.844 109.726 145.62 109.726Z" fill="#777777"/>
<path d="M208.52 17.9069H225.848C229.292 17.9069 232.048 18.3851 234.114 19.2884C236.234 20.2448 237.983 21.5732 239.307 23.2736C240.685 25.0271 241.692 27.0462 242.275 29.3311C242.911 31.6159 243.229 34.0602 243.229 36.6638C243.229 40.7022 242.752 43.8372 241.851 46.0689C240.95 48.3006 239.678 50.1603 238.036 51.7013C236.393 53.1891 234.644 54.1987 232.789 54.73C230.246 55.4208 227.914 55.7396 225.848 55.7396H208.52V17.9069ZM220.178 26.4617V47.1316H223.039C225.477 47.1316 227.225 46.8659 228.232 46.3346C229.239 45.8032 230.087 44.8468 230.67 43.5184C231.253 42.19 231.571 39.9583 231.571 36.9295C231.571 32.8912 230.935 30.1812 229.61 28.6934C228.285 27.2056 226.166 26.4617 223.092 26.4617H220.178Z" fill="#225E63"/>
<path d="M246.461 43.2527L257.589 42.5619C257.854 44.3685 258.331 45.75 259.073 46.7065C260.292 48.2474 261.987 48.9913 264.213 48.9913C265.856 48.9913 267.18 48.6194 268.081 47.8223C268.982 47.0253 269.459 46.122 269.459 45.1124C269.459 44.156 269.035 43.2527 268.187 42.4556C267.339 41.6586 265.326 40.9678 262.199 40.277C257.059 39.1081 253.456 37.5671 251.23 35.6542C249.005 33.7413 247.945 31.2971 247.945 28.3215C247.945 26.3554 248.528 24.5488 249.64 22.7953C250.753 21.0418 252.449 19.7135 254.728 18.7039C257.006 17.6943 260.08 17.2161 264.001 17.2161C268.823 17.2161 272.533 18.1194 275.023 19.926C277.567 21.7326 279.051 24.602 279.527 28.534L268.505 29.1716C268.187 27.4713 267.604 26.2492 266.651 25.4521C265.697 24.6551 264.425 24.2831 262.782 24.2831C261.404 24.2831 260.398 24.5488 259.709 25.1333C259.02 25.7178 258.702 26.4086 258.702 27.2587C258.702 27.8432 258.967 28.4277 259.55 28.906C260.08 29.3842 261.404 29.8624 263.471 30.2875C268.558 31.4033 272.215 32.5192 274.44 33.6351C276.666 34.7509 278.256 36.1856 279.262 37.8328C280.269 39.48 280.746 41.3929 280.746 43.4652C280.746 45.9094 280.057 48.1412 278.733 50.1603C277.408 52.2326 275.5 53.7736 273.116 54.8363C270.731 55.899 267.657 56.4303 264.001 56.4303C257.589 56.4303 253.138 55.2082 250.647 52.7108C248.21 50.2135 246.832 47.0784 246.461 43.2527Z" fill="#225E63"/>
<path d="M283.715 43.2527L294.843 42.5619C295.108 44.3685 295.585 45.75 296.327 46.7065C297.546 48.2474 299.241 48.9913 301.467 48.9913C303.11 48.9913 304.434 48.6194 305.335 47.8223C306.236 47.0253 306.713 46.122 306.713 45.1124C306.713 44.156 306.289 43.2527 305.441 42.4556C304.593 41.6586 302.58 40.9678 299.453 40.277C294.313 39.1081 290.71 37.5671 288.484 35.6542C286.311 33.7413 285.199 31.2971 285.199 28.3215C285.199 26.3554 285.781 24.5488 286.894 22.7953C288.007 21.0418 289.703 19.7135 291.981 18.7039C294.26 17.6943 297.334 17.2161 301.255 17.2161C306.077 17.2161 309.786 18.1194 312.277 19.926C314.821 21.7326 316.304 24.602 316.781 28.534L305.759 29.1716C305.441 27.4713 304.858 26.2492 303.904 25.4521C302.951 24.6551 301.679 24.2831 300.036 24.2831C298.658 24.2831 297.652 24.5488 296.963 25.1333C296.274 25.7178 295.956 26.4086 295.956 27.2587C295.956 27.8432 296.221 28.4277 296.804 28.906C297.334 29.3842 298.658 29.8624 300.725 30.2875C305.812 31.4033 309.469 32.5192 311.694 33.6351C313.92 34.7509 315.51 36.1856 316.516 37.8328C317.523 39.48 318 41.3929 318 43.4652C318 45.9094 317.311 48.1412 315.986 50.1603C314.662 52.2326 312.754 53.7736 310.369 54.8363C307.985 55.899 304.911 56.4303 301.255 56.4303C294.843 56.4303 290.392 55.2082 287.901 52.7108C285.411 50.2135 284.033 47.0784 283.715 43.2527Z" fill="#225E63"/>
</svg>
