<svg width="353" height="378" viewBox="0 0 353 378" fill="none" xmlns="http://www.w3.org/2000/svg">
<rect width="353" height="378" fill="white"/>
<path d="M105 168.5C105 184.24 92.017 197 75.9984 197C59.983 197 47 184.24 47 168.5C47 152.76 59.983 140 75.9984 140C92.017 140 105 152.76 105 168.5Z" fill="#00ABE6"/>
<path d="M131.5 180.832C126.917 180.832 124.36 178.115 124.36 173.323V149H113V173.26C113 183.913 119.712 190 131.5 190C143.288 190 150 183.913 150 173.26V149H138.64V173.323C138.64 178.115 136.083 180.832 131.5 180.832Z" fill="#33261C"/>
<path d="M169.485 190C179.282 190 185.706 184.827 185.706 177.151C185.706 171.675 182.398 167.451 173.624 165.073L170.558 164.238C166.177 163.05 164.555 161.747 164.555 159.837C164.555 157.814 166.356 156.688 169.536 156.688C173.394 156.688 177.532 158.826 180.418 161.266L186 154.311C181.619 150.378 175.731 148 169.485 148C160.047 148 153.443 153.059 153.443 160.849C153.443 166.856 157.403 170.79 164.734 172.687L167.263 173.344C172.73 174.773 174.594 175.848 174.594 177.986C174.594 180.186 172.666 181.312 169.422 181.312C164.619 181.312 160.647 179.592 157.403 176.734L152 183.462C156.509 187.622 162.818 190 169.485 190Z" fill="#33261C"/>
<path d="M217.607 189H229L213.997 149H200.99L186 189H197.073L199.672 181.535H215.021L217.607 189ZM202.501 173.408L207.378 159.416L212.192 173.408H202.501Z" fill="#33261C"/>
<path d="M125.32 238H136.667V206.048H149V197H113V206.048H125.32V238Z" fill="#33261C"/>
<path d="M169.506 238C181.924 238 191 229.375 191 217.057C191 204.752 181.924 196 169.506 196C157.076 196 148 204.752 148 217.057C148 229.375 157.076 238 169.506 238ZM169.506 228.844C163.602 228.844 159.511 224.076 159.511 217.057C159.511 210.038 163.602 205.169 169.506 205.169C175.411 205.169 179.489 210.038 179.489 217.057C179.489 224.076 175.411 228.844 169.506 228.844Z" fill="#33261C"/>
<path d="M195 238H210.755C222.585 238 231 229.554 231 217.506C231 205.446 222.585 197 210.755 197H195V238ZM205.766 229.144V205.869H210.755C216.52 205.869 220.059 210.509 220.059 217.506C220.059 224.491 216.52 229.144 210.755 229.144H205.766Z" fill="#33261C"/>
<path d="M260.607 238H272L256.997 197H243.99L229 238H240.073L242.672 230.349H258.021L260.607 238ZM245.501 222.018L250.378 207.676L255.192 222.018H245.501Z" fill="#33261C"/>
<path d="M290.64 223.235L305 197H292.491L285.038 213.277L277.522 197H265L279.373 223.235V238H290.64V223.235Z" fill="#33261C"/>
</svg>
