<svg width="191" height="103" viewBox="0 0 191 103" fill="none" xmlns="http://www.w3.org/2000/svg">
<path d="M45.84 37.3785C45.84 48.2264 36.8227 57.0204 25.6971 57.0204C14.5736 57.0204 5.55637 48.2264 5.55637 37.3785C5.55637 26.5305 14.5736 17.7366 25.6971 17.7366C36.8227 17.7366 45.84 26.5305 45.84 37.3785Z" fill="#00ABE6"/>
<path d="M64.2455 45.8773C61.0625 45.8773 59.2862 44.005 59.2862 40.7026V23.9393H51.3964V40.6593C51.3964 48.0008 56.0581 52.196 64.2455 52.196C72.4328 52.196 77.0945 48.0008 77.0945 40.6593V23.9393H69.2047V40.7026C69.2047 44.005 67.4284 45.8773 64.2455 45.8773Z" fill="#33261C"/>
<path d="M90.628 52.196C97.4321 52.196 101.894 48.6312 101.894 43.3405C101.894 39.5665 99.5966 36.6553 93.5022 35.0167L91.3732 34.4414C88.3304 33.6221 87.2038 32.7244 87.2038 31.4083C87.2038 30.0137 88.4546 29.238 90.6635 29.238C93.3425 29.238 96.2167 30.711 98.2216 32.3932L102.098 27.5994C99.0554 24.8887 94.9659 23.2501 90.628 23.2501C84.0724 23.2501 79.4861 26.7365 79.4861 32.1056C79.4861 36.2457 82.2361 38.9564 87.328 40.2638L89.0845 40.717C92.8812 41.7019 94.1764 42.4428 94.1764 43.9158C94.1764 45.4324 92.8369 46.2081 90.5837 46.2081C87.2482 46.2081 84.4893 45.0227 82.2361 43.0529L78.4836 47.6898C81.6151 50.5574 85.9974 52.196 90.628 52.196Z" fill="#33261C"/>
<path d="M124.05 51.5068H131.964L121.543 23.9393H112.51L102.098 51.5068H109.789L111.594 46.3621H122.254L124.05 51.5068ZM113.559 40.7607L116.946 31.1177L120.29 40.7607H113.559Z" fill="#33261C"/>
<path d="M59.9531 85.2771H67.8343V63.2564H76.4V57.0203H51.3964V63.2564H59.9531V85.2771Z" fill="#33261C"/>
<path d="M90.6427 85.2771C99.2669 85.2771 105.571 79.3328 105.571 70.8434C105.571 62.3627 99.2669 56.3312 90.6427 56.3312C82.0095 56.3312 75.7054 62.3627 75.7054 70.8434C75.7054 79.3328 82.0095 85.2771 90.6427 85.2771ZM90.6427 78.9667C86.5419 78.9667 83.7001 75.6808 83.7001 70.8434C83.7001 66.006 86.5419 62.6503 90.6427 62.6503C94.7434 62.6503 97.5762 66.006 97.5762 70.8434C97.5762 75.6808 94.7434 78.9667 90.6427 78.9667Z" fill="#33261C"/>
<path d="M108.349 85.2771H119.292C127.508 85.2771 133.353 79.4561 133.353 71.1531C133.353 62.8413 127.508 57.0203 119.292 57.0203H108.349V85.2771ZM115.827 79.1735V63.1327H119.292C123.296 63.1327 125.754 66.3303 125.754 71.1531C125.754 75.9671 123.296 79.1735 119.292 79.1735H115.827Z" fill="#33261C"/>
<path d="M153.916 85.2771H161.829L151.409 57.0203H142.375L131.964 85.2771H139.654L141.459 80.0038H152.12L153.916 85.2771ZM143.424 74.2623L146.812 64.3782L150.155 74.2623H143.424Z" fill="#33261C"/>
<path d="M174.775 75.1015L184.749 57.0203H176.061L170.885 68.2382L165.665 57.0203H156.967L166.95 75.1015V85.2771H174.775V75.1015Z" fill="#33261C"/>
</svg>
