<svg xmlns="http://www.w3.org/2000/svg" viewBox="0 0 250 250" style="background: #2b354e;"><style>
@keyframes a0_sw { 0% { stroke-width: 14px; } 100% { stroke-width: 14px; } }
@keyframes a0_do { 0% { stroke-dashoffset: 54px; } 100% { stroke-dashoffset: 27px; } }
@keyframes a1_sw { 0% { stroke-width: 17px; } 100% { stroke-width: 17px; } }
@keyframes a2_do { 0% { stroke-dashoffset: 0px; } 100% { stroke-dashoffset: 26px; } }
@keyframes a3_t { 0% { transform: translate(90.7px,89.4px); } 100% { transform: translate(90.7px,89.4px); } }
</style><g transform="translate(34.3,35.6)"><path d="M181.2 182c-10.5 10.4-23.5 18-37.7 22.2c-14.2 4.2-29.2 4.8-43.7 1.7c-14.5-3.1-28-9.7-39.3-19.2c-11.3-9.6-20-21.8-25.5-35.6" stroke="#fff" stroke-width="14" stroke-linejoin="round" stroke-dasharray="12 15" fill="none" stroke-dashoffset="54" transform="translate(-28.9,-29)" style="animation: 1.5s linear infinite both a0_sw, 1.5s linear infinite both a0_do;"/><path d="M28.9 114c1.1-22 10.2-42.8 25.6-58.5c15.5-15.7 36.2-25.1 58.1-26.5" stroke="#fff" stroke-width="17" stroke-linecap="square" fill="none" transform="translate(-28.9,-29)" style="animation: 1.5s linear infinite both a1_sw;"/><path d="M201.5 157.4c5.1-10.9 8.1-22.7 8.6-34.8c.6-12.1-1.2-24.1-5.3-35.5c-4.1-11.4-10.4-21.8-18.6-30.8c-8.1-8.9-17.9-16.1-28.8-21.3" stroke="#fff" stroke-width="5" stroke-linecap="round" stroke-linejoin="round" stroke-dasharray="1 25" fill="none" transform="translate(-28.9,-29)" style="animation: 1.5s linear infinite both a2_do;"/><ellipse fill="#fff" rx="35" ry="35" transform="translate(90.7,89.4)" style="animation: 1.5s linear infinite both a3_t;"/></g></svg>