<svg xmlns="http://www.w3.org/2000/svg" style="background:#2b354e" viewBox="0 0 250 250"><style>@keyframes a0_sw{0%,to{stroke-width:14px}}@keyframes a0_do{0%{stroke-dashoffset:54px}to{stroke-dashoffset:27px}}@keyframes a1_sw{0%,to{stroke-width:17px}}@keyframes a2_do{0%{stroke-dashoffset:0}to{stroke-dashoffset:26px}}@keyframes a3_t{0%,to{transform:translate(90.7px,89.4px)}}</style><g transform="translate(34.3,35.6)"><path fill="none" stroke="#fff" stroke-dasharray="12 15" stroke-dashoffset="54" stroke-linejoin="round" stroke-width="14" d="M181.2 182a89.73 89.73 0 0 1-37.7 22.2 88.63 88.63 0 0 1-43.7 1.7c-14.5-3.1-28-9.7-39.3-19.2A90.6 90.6 0 0 1 35 151.1" style="animation:1.5s linear infinite both a0_sw,1.5s linear infinite both a0_do" transform="translate(-28.9,-29)"/><path fill="none" stroke="#fff" stroke-linecap="square" stroke-width="17" d="M28.9 114C30 92 39.1 71.2 54.5 55.5A89.7 89.7 0 0 1 112.6 29" style="animation:1.5s linear infinite both a1_sw" transform="translate(-28.9,-29)"/><path fill="none" stroke="#fff" stroke-dasharray="1 25" stroke-linecap="round" stroke-linejoin="round" stroke-width="5" d="M201.5 157.4a91 91 0 0 0 8.6-34.8c.6-12.1-1.2-24.1-5.3-35.5a91.73 91.73 0 0 0-18.6-30.8A93.05 93.05 0 0 0 157.4 35" style="animation:1.5s linear infinite both a2_do" transform="translate(-28.9,-29)"/><circle r="35" fill="#fff" style="animation:1.5s linear infinite both a3_t" transform="translate(90.7,89.4)"/></g></svg>