<svg xmlns="http://www.w3.org/2000/svg" viewBox="0 0 250 250" style="background: #2b354e;"><style>
@keyframes a0_v { 0% { visibility: visible; animation-timing-function: steps(1); } 52.381% { visibility: hidden; animation-timing-function: steps(1); } 100% { visibility: hidden; animation-timing-function: steps(1); } }
@keyframes a0_da { 0% { stroke-dasharray: 385px; animation-timing-function: cubic-bezier(.4,0,.6,1); } 47.619% { stroke-dasharray: 770px; } 100% { stroke-dasharray: 770px; } }
@keyframes a0_do { 0% { stroke-dashoffset: 385px; } 100% { stroke-dashoffset: 385px; } }
@keyframes a1_v { 0% { visibility: hidden; animation-timing-function: steps(1); } 47.619% { visibility: hidden; animation-timing-function: steps(1); } 52.381% { visibility: visible; animation-timing-function: steps(1); } 100% { visibility: visible; animation-timing-function: steps(1); } }
@keyframes a1_da { 0% { stroke-dasharray: 770px 385px; } 52.381% { stroke-dasharray: 770px 385px; animation-timing-function: cubic-bezier(.4,0,.6,1); } 100% { stroke-dasharray: 385px 770px; } }
@keyframes a1_do { 0% { stroke-dashoffset: 1155px; } 52.381% { stroke-dashoffset: 1155px; animation-timing-function: cubic-bezier(.4,0,.6,1); } 100% { stroke-dashoffset: 770px; } }
</style><path d="M.5 62.4h41.2c.4 0 .8-0.3 1-0.7l10.1-26.7c.3-0.8 1.5-0.8 1.8 .1l22.7 65.5c.4 1 1.7 .9 2 0l26.8-95.6c.3-0.9 1.7-0.9 1.9 .1l19.1 72.6c.3 .9 1.5 1 1.9 .2l6.7-14.9c.1-0.4 .5-0.6 .9-0.6h43.9" stroke="#fff" stroke-width="7" fill="none" stroke-linecap="round" stroke-dasharray="385" stroke-dashoffset="385" stroke-miterlimit="1" visibility="visible" transform="translate(34.5,72.2)" style="animation: 2.1s linear infinite forwards a0_v, 2.1s linear infinite both a0_da, 2.1s linear infinite both a0_do;"/><path d="M.5 62.4h41.2c.4 0 .8-0.3 1-0.7l10.1-26.7c.3-0.8 1.5-0.8 1.8 .1l22.7 65.5c.4 1 1.7 .9 2 0l26.8-95.6c.3-0.9 1.7-0.9 1.9 .1l19.1 72.6c.3 .9 1.5 1 1.9 .2l6.7-14.9c.1-0.4 .5-0.6 .9-0.6h43.9" stroke="#fff" stroke-width="7" fill="none" stroke-linecap="round" stroke-dasharray="770 385" stroke-dashoffset="1155" stroke-miterlimit="1" visibility="hidden" transform="translate(34.5,72.2)" style="animation: 2.1s linear infinite forwards a1_v, 2.1s linear infinite both a1_da, 2.1s linear infinite both a1_do;"/></svg>