<svg id="eCt0hgEmUBr1" xmlns="http://www.w3.org/2000/svg" xmlns:xlink="http://www.w3.org/1999/xlink" viewBox="0 0 246 80" shape-rendering="geometricPrecision" text-rendering="geometricPrecision">
<style><![CDATA[
#eCt0hgEmUBr3_ts {animation: eCt0hgEmUBr3_ts__ts 1500ms linear 100 normal forwards}@keyframes eCt0hgEmUBr3_ts__ts { 0% {transform: translate(123px,40px) scale(1,0.999994)} 40% {transform: translate(123px,40px) scale(1,0.12806)} 100% {transform: translate(123px,40px) scale(1,0.12806)}} #eCt0hgEmUBr4_to {animation: eCt0hgEmUBr4_to__to 1500ms linear 100 normal forwards}@keyframes eCt0hgEmUBr4_to__to { 0% {transform: translate(122px,40px)} 40% {transform: translate(122px,40px)} 66.666667% {transform: translate(140.714444px,40px)} 93.333333% {transform: translate(98.945977px,40px)} 100% {transform: translate(98.945977px,40px)}}
]]></style>
<g><g id="eCt0hgEmUBr3_ts" transform="translate(123,40) scale(1,0.999994)"><path d="M245.5,40c0,5.2986-3.302,10.4306-9.471,15.1734-6.161,4.7374-15.109,9.0253-26.209,12.6354C187.623,75.0271,156.928,79.5,123,79.5c-33.9277,0-64.6231-4.4729-86.8195-11.6912-11.1009-3.6101-20.0482-7.898-26.20979-12.6354C3.80207,50.4306,0.5,45.2986,0.5,40s3.30207-10.4306,9.47071-15.1734C16.1323,20.0892,25.0796,15.8013,36.1805,12.1912C58.3769,4.97289,89.0723,0.5,123,0.5c33.928,0,64.623,4.47289,86.82,11.6912c11.1,3.6101,20.048,7.898,26.209,12.6354C242.198,29.5694,245.5,34.7014,245.5,40Z" transform="translate(-123,-40)" fill="#fff" stroke="#fff"/></g><g id="eCt0hgEmUBr4_to" transform="translate(122,40)"><circle r="39.415419" transform="scale(-1.004301,0.999995) translate(-0.084581,-0.084581)" fill="#2b354e"/></g></g></svg>
