<svg id="eQtA9jLxYWk1" xmlns="http://www.w3.org/2000/svg" xmlns:xlink="http://www.w3.org/1999/xlink" viewBox="0 0 800 1400" shape-rendering="geometricPrecision" text-rendering="geometricPrecision">
<style><![CDATA[
#eQtA9jLxYWk5_tr {animation: eQtA9jLxYWk5_tr__tr 3000ms linear infinite normal forwards}@keyframes eQtA9jLxYWk5_tr__tr { 0% {transform: translate(400px,400px) rotate(1080deg)} 100% {transform: translate(400px,400px) rotate(1439.999991deg)}} #eQtA9jLxYWk8_tr {animation: eQtA9jLxYWk8_tr__tr 3000ms linear infinite normal forwards}@keyframes eQtA9jLxYWk8_tr__tr { 0% {transform: translate(300px,943px) rotate(1080deg)} 100% {transform: translate(300px,943px) rotate(1439.999991deg)}}
]]></style>
<g transform="translate(400 400)"><g><path d="M0,-318c175.627,0,318,142.373,318,318s-142.373,318-318,318-318-142.373-318-318s142.373-318,318-318Z" fill="none" stroke="#f2c94c" stroke-width="2"/></g></g><g id="eQtA9jLxYWk5_tr" transform="translate(400,400) rotate(1080)"><g transform="translate(0,0)"><g><path d="M0,-318c175.627,0,318,142.373,318,318s-142.373,318-318,318-318-142.373-318-318s142.373-318,318-318Z" fill="none" stroke="#f2c94c" stroke-width="80" stroke-linecap="round" stroke-dasharray="0,2000"/></g></g></g><g id="eQtA9jLxYWk8_tr" transform="translate(300,943) rotate(1080)"><g transform="scale(0.735598,0.735598) translate(0,0)"><g><path d="M0,-318c175.627,0,318,142.373,318,318s-142.373,318-318,318-318-142.373-318-318s142.373-318,318-318Z" fill="none" stroke="#f2c94c" stroke-width="80" stroke-linecap="round" stroke-dasharray="0,2000"/></g></g></g><g transform="matrix(.735598 0 0 0.735598 300 943)"><g><path d="M0,-318c175.627,0,318,142.373,318,318s-142.373,318-318,318-318-142.373-318-318s142.373-318,318-318Z" fill="none" stroke="#f2c94c" stroke-width="2"/></g></g></svg>
