<svg id="eaeLwqcxK0M1" xmlns="http://www.w3.org/2000/svg" xmlns:xlink="http://www.w3.org/1999/xlink" viewBox="0 0 887 1783" shape-rendering="geometricPrecision" text-rendering="geometricPrecision">
<style><![CDATA[
#eaeLwqcxK0M2_tr {animation: eaeLwqcxK0M2_tr__tr 3000ms linear infinite normal forwards}@keyframes eaeLwqcxK0M2_tr__tr { 0% {transform: translate(378.5px,508.5px) rotate(0deg)} 100% {transform: translate(378.5px,508.5px) rotate(360deg)}} #eaeLwqcxK0M7_tr {animation: eaeLwqcxK0M7_tr__tr 3000ms linear infinite normal forwards}@keyframes eaeLwqcxK0M7_tr__tr { 0% {transform: translate(347px,1400px) rotate(0deg)} 100% {transform: translate(347px,1400px) rotate(360.473961deg)}}
]]></style>
<g id="eaeLwqcxK0M2_tr" transform="translate(378.5,508.5) rotate(0)"><g transform="translate(-378.5,-508.5)"><circle r="508" transform="translate(378.5 508.5)" fill="none" stroke="#f2c94c"/><path d="M886.5,305.5c0,27.619-22.167,50-49.5,50s-49.5-22.381-49.5-50s22.167-50,49.5-50s49.5,22.381,49.5,50Z" fill="#f2c94c" stroke="#f2c94c"/></g></g><circle r="508" transform="translate(378.5 508.5)" fill="none" stroke="#f2c94c"/><circle r="382.5" transform="translate(347 1400)" fill="none" stroke="#f2c94c"/><g id="eaeLwqcxK0M7_tr" transform="translate(347,1400) rotate(0)"><g transform="translate(-347,-1400)"><circle r="382.5" transform="translate(347 1400)" fill="none" stroke="#f2c94c"/><path d="M705.5,1192.5c0,27.62-22.167,50-49.5,50s-49.5-22.38-49.5-50s22.167-50,49.5-50s49.5,22.38,49.5,50Z" fill="#f2c94c" stroke="#f2c94c"/></g></g></svg>
