<svg width="90" height="36" viewBox="0 0 90 36" fill="none" xmlns="http://www.w3.org/2000/svg">
<g clip-path="url(#clip0_3268_6094)">
<path d="M2.46212 6.41515C2.46212 6.41515 15.7999 0.546913 16.3109 0.198486V36.3248C16.3109 36.3248 8.16857 32.6572 4.96615 23.8181C1.76372 14.9791 2.46212 6.41515 2.46212 6.41515Z" fill="#2B354E"/>
<path d="M30.1082 6.41515C30.1082 6.41515 16.7535 0.546913 16.2424 0.198486V36.3248C16.2424 36.3248 24.4018 32.6572 27.6042 23.8181C30.8066 14.9791 30.1082 6.41515 30.1082 6.41515Z" fill="#375E74"/>
<path d="M4.9658 23.8181C1.74634 14.9791 2.46178 6.41515 2.46178 6.41515C2.46178 6.41515 15.7995 0.546913 16.3106 0.198486" fill="#2B354E"/>
<path d="M8.23633 17.7481V12.9252C8.23633 9.42257 10.0931 6.19504 13.074 4.783C14.105 4.29622 15.2189 4.04638 16.3446 4.04947V6.48845C15.3247 6.42267 14.3085 6.67073 13.4147 7.20364C12.0179 8.08388 10.4678 9.84435 10.3826 12.6134C10.2975 15.3825 10.3826 15.7676 10.3826 15.7676L8.23633 17.7481Z" fill="#375E74"/>
<path d="M24.453 17.7481V12.9252C24.453 9.42257 22.5963 6.19504 19.6153 4.783C18.5844 4.29622 17.4704 4.04638 16.3447 4.04947V6.48845C17.3647 6.42165 18.3812 6.66977 19.2746 7.20364C20.6714 8.08388 22.2215 9.84435 22.3067 12.6134C22.3919 15.3825 22.3067 15.7676 22.3067 15.7676L24.453 17.7481Z" fill="#2B354E"/>
<path d="M16.3275 23.9462C16.2425 23.9462 16.1583 23.9282 16.0798 23.8931C16.0013 23.8581 15.9299 23.8068 15.8698 23.7421C15.8097 23.6774 15.762 23.6005 15.7295 23.516C15.697 23.4315 15.6802 23.3408 15.6802 23.2493V16.1158C15.6802 16.0242 15.697 15.9336 15.7295 15.8491C15.762 15.7645 15.8097 15.6877 15.8698 15.623C15.9299 15.5583 16.0013 15.507 16.0798 15.4719C16.1583 15.4369 16.2425 15.4189 16.3275 15.4189H16.3445V11.5679C14.0202 11.6766 11.8246 12.7472 10.2156 14.5563C8.60664 16.3654 7.7085 18.7733 7.7085 21.278C7.7085 23.7826 8.60664 26.1905 10.2156 27.9996C11.8246 29.8087 14.0202 30.8793 16.3445 30.9881V23.9462H16.3275Z" fill="#375E74"/>
<path d="M16.3279 11.5679V15.4189C16.4996 15.4189 16.6642 15.4923 16.7856 15.623C16.907 15.7537 16.9752 15.9309 16.9752 16.1158V23.2493C16.9752 23.4341 16.907 23.6114 16.7856 23.7421C16.6642 23.8728 16.4996 23.9462 16.3279 23.9462V30.9881C18.6522 30.8793 20.8478 29.8087 22.4568 27.9996C24.0658 26.1905 24.9639 23.7826 24.9639 21.278C24.9639 18.7733 24.0658 16.3654 22.4568 14.5563C20.8478 12.7472 18.6522 11.6766 16.3279 11.5679Z" fill="#2B354E"/>
<path d="M37.9948 5.48C37.9946 5.64924 37.9657 5.81702 37.9097 5.97513C37.8444 6.11754 37.7581 6.2476 37.6541 6.36023C37.5525 6.48416 37.4237 6.57873 37.2794 6.63531C37.1349 6.70439 36.9773 6.7358 36.8195 6.727C36.6231 6.73536 36.4284 6.68456 36.2573 6.58029C36.0938 6.4739 35.9542 6.32986 35.8485 6.15851C35.7512 6.34057 35.609 6.49006 35.4376 6.59041C35.2662 6.69075 35.0724 6.73803 34.8776 6.727C34.7253 6.7336 34.5738 6.70222 34.4347 6.63531C34.2882 6.5835 34.1582 6.48814 34.0599 6.36023C33.956 6.2476 33.8697 6.11754 33.8044 5.97513C33.7483 5.81702 33.7195 5.64924 33.7192 5.48V4.01294H34.111V5.51668C34.1073 5.62529 34.1309 5.73298 34.1792 5.82843C34.2097 5.9317 34.2622 6.02589 34.3325 6.1035C34.4071 6.1756 34.4938 6.23163 34.588 6.26854C34.6766 6.32055 34.7767 6.34589 34.8776 6.3419C34.9839 6.34569 35.0894 6.32046 35.1842 6.26854C35.2731 6.2312 35.3542 6.17509 35.4227 6.1035C35.5035 6.032 35.5628 5.93626 35.593 5.82843C35.6413 5.73298 35.6648 5.62529 35.6611 5.51668V4.01294H36.0529V5.51668C36.0492 5.62529 36.0728 5.73298 36.1211 5.82843C36.1516 5.9317 36.2041 6.02589 36.2744 6.1035C36.3489 6.1756 36.4357 6.23163 36.5299 6.26854C36.6185 6.32055 36.7186 6.34589 36.8195 6.3419C36.9258 6.34569 37.0313 6.32046 37.1261 6.26854C37.215 6.2312 37.2961 6.17509 37.3646 6.1035C37.4454 6.032 37.5047 5.93626 37.5349 5.82843C37.5755 5.73 37.5986 5.62426 37.603 5.51668V4.01294H37.9948V5.48Z" fill="#2B354E"/>
<path d="M40.789 5.48019C40.7888 5.64943 40.7599 5.81721 40.7038 5.97532C40.6386 6.12327 40.5524 6.25938 40.4483 6.37876C40.3443 6.49544 40.2158 6.5835 40.0736 6.6355C39.9291 6.70457 39.7715 6.73599 39.6136 6.72719C39.4614 6.73379 39.3098 6.70241 39.1708 6.6355C39.0285 6.5835 38.9 6.49544 38.796 6.37876C38.6919 6.25938 38.6057 6.12327 38.5405 5.97532C38.4844 5.81721 38.4556 5.64943 38.4553 5.48019V5.22345C38.4573 5.05439 38.4861 4.88694 38.5405 4.72832C38.6097 4.58291 38.6956 4.44738 38.796 4.32488C38.9 4.2082 39.0285 4.12014 39.1708 4.06814C39.3084 3.99491 39.4601 3.95724 39.6136 3.95811C39.7728 3.95573 39.9303 3.99341 40.0736 4.06814C40.2158 4.12014 40.3443 4.2082 40.4483 4.32488C40.5488 4.44738 40.6346 4.58291 40.7038 4.72832C40.7582 4.88694 40.787 5.05439 40.789 5.22345V5.48019ZM40.3972 5.48019V5.22345C40.4007 5.10311 40.3774 4.98362 40.3291 4.87503C40.2998 4.77113 40.2472 4.67661 40.1759 4.59984C40.1046 4.52307 40.0168 4.46642 39.9203 4.43491C39.8263 4.38052 39.7202 4.35513 39.6136 4.36155C39.5127 4.35757 39.4127 4.3829 39.3241 4.43491C39.2276 4.46642 39.1398 4.52307 39.0684 4.59984C38.9971 4.67661 38.9445 4.77113 38.9152 4.87503C38.8669 4.98362 38.8436 5.10311 38.8471 5.22345V5.48019C38.8436 5.60053 38.8669 5.72002 38.9152 5.82861C38.9445 5.93251 38.9971 6.02703 39.0684 6.1038C39.1398 6.18056 39.2276 6.23722 39.3241 6.26873C39.4127 6.32073 39.5127 6.34607 39.6136 6.34208C39.7202 6.34851 39.8263 6.32312 39.9203 6.26873C40.0168 6.23722 40.1046 6.18056 40.1759 6.1038C40.2472 6.02703 40.2998 5.93251 40.3291 5.82861C40.3774 5.72002 40.4007 5.60053 40.3972 5.48019V5.48019Z" fill="#2B354E"/>
<path d="M45.5244 6.69063H45.1326V5.18689C45.1363 5.07828 45.1127 4.97059 45.0644 4.87514C45.0352 4.77125 44.9825 4.67673 44.9112 4.59996C44.8399 4.52319 44.7521 4.46654 44.6556 4.43503C44.567 4.38302 44.4669 4.35768 44.366 4.36167C44.2597 4.35788 44.1542 4.38311 44.0594 4.43503C43.9685 4.46792 43.8865 4.52464 43.8209 4.60007C43.7434 4.67473 43.6848 4.76938 43.6506 4.87514C43.6023 4.97059 43.5788 5.07828 43.5825 5.18689V6.69063H43.1907V5.18689C43.1944 5.07828 43.1708 4.97059 43.1225 4.87514C43.0933 4.77125 43.0406 4.67673 42.9693 4.59996C42.898 4.52319 42.8102 4.46654 42.7137 4.43503C42.6251 4.38302 42.525 4.35768 42.4241 4.36167C42.3178 4.35788 42.2123 4.38311 42.1175 4.43503C42.0286 4.47236 41.9475 4.52848 41.879 4.60007C41.8015 4.67473 41.7429 4.76938 41.7087 4.87514C41.6604 4.97059 41.6369 5.07828 41.6406 5.18689V6.69063H41.2488V5.22357C41.2508 5.05451 41.2796 4.88706 41.334 4.72844C41.4032 4.58303 41.489 4.4475 41.5895 4.325C41.6967 4.21264 41.8243 4.12525 41.9642 4.06826C42.1075 3.99353 42.265 3.95585 42.4241 3.95823C42.6221 3.95639 42.8166 4.01351 42.9863 4.12328C43.1544 4.23105 43.295 4.38233 43.3951 4.56339C43.4838 4.3793 43.6198 4.22653 43.7869 4.12328C43.9618 4.01111 44.1624 3.95394 44.366 3.95823C44.5196 3.95736 44.6712 3.99503 44.8089 4.06826C44.9511 4.12026 45.0797 4.20832 45.1837 4.325C45.2841 4.4475 45.37 4.58303 45.4392 4.72844C45.4935 4.88706 45.5223 5.05451 45.5244 5.22357V6.69063Z" fill="#2B354E"/>
<path d="M48.3176 5.55354H46.3757C46.3859 5.66225 46.4147 5.76796 46.4608 5.86529C46.4975 5.96443 46.556 6.05253 46.6312 6.12203C46.6934 6.19315 46.7689 6.24938 46.8526 6.28707C46.951 6.32472 47.0548 6.34335 47.1593 6.34208C47.2581 6.34315 47.3563 6.3245 47.4488 6.28707C47.5426 6.2412 47.6289 6.17927 47.7044 6.10369L47.9769 6.37876C47.8729 6.49544 47.7444 6.5835 47.6021 6.6355C47.4631 6.70241 47.3115 6.73379 47.1593 6.72719C47.0014 6.73599 46.8438 6.70457 46.6993 6.6355C46.5594 6.57851 46.4318 6.49112 46.3246 6.37876C46.2205 6.25938 46.1343 6.12327 46.0691 5.97532C46.013 5.81721 45.9841 5.64943 45.9839 5.48019V5.22345C45.9859 5.05439 46.0147 4.88694 46.0691 4.72832C46.1383 4.58291 46.2241 4.44738 46.3246 4.32488C46.4318 4.21252 46.5594 4.12513 46.6993 4.06814C46.8426 3.99341 47.0001 3.95573 47.1593 3.95811C47.2691 3.95851 47.3783 3.97706 47.4829 4.01313C47.5943 4.04567 47.6985 4.10178 47.7895 4.17817C47.8895 4.23715 47.9766 4.31843 48.045 4.41657C48.1229 4.50873 48.1862 4.61405 48.2324 4.72832C48.271 4.82746 48.294 4.93281 48.3006 5.04007C48.3147 5.1494 48.3204 5.25981 48.3176 5.37016V5.55354ZM47.9088 5.1501C47.9058 5.05743 47.8944 4.96529 47.8747 4.87503C47.8125 4.72565 47.712 4.59843 47.5851 4.50826C47.4594 4.41587 47.3114 4.36489 47.1593 4.36155C47.0548 4.36029 46.951 4.37892 46.8526 4.41657C46.7689 4.45426 46.6934 4.51049 46.6312 4.58161C46.5596 4.6546 46.5018 4.74177 46.4608 4.83835C46.4147 4.93567 46.3859 5.04139 46.3757 5.1501H47.9088Z" fill="#2B354E"/>
<path d="M51.1285 6.69051H50.7367V5.18677C50.7322 5.07919 50.7091 4.97345 50.6685 4.87503C50.628 4.77278 50.5703 4.67951 50.4982 4.59995C50.4297 4.52836 50.3486 4.47225 50.2597 4.43491C50.1644 4.38442 50.0593 4.35927 49.9531 4.36155C49.8522 4.35757 49.7522 4.3829 49.6635 4.43491C49.5676 4.46778 49.4801 4.52429 49.408 4.59995C49.3415 4.68425 49.2844 4.77655 49.2377 4.87503C49.2029 4.97465 49.1856 5.08035 49.1866 5.18677V6.69051H48.7948V5.22345C48.7909 5.05647 48.8192 4.89044 48.8778 4.73579C48.9364 4.58115 49.0242 4.44124 49.1355 4.32488C49.2364 4.21296 49.3584 4.12545 49.4932 4.06814C49.6376 3.99691 49.7943 3.95941 49.9531 3.95811C50.1123 3.95573 50.2698 3.99341 50.413 4.06814C50.553 4.12513 50.6805 4.21252 50.7878 4.32488C50.8882 4.44738 50.9741 4.58291 51.0433 4.72832C51.0976 4.88694 51.1264 5.05439 51.1285 5.22345V6.69051Z" fill="#2B354E"/>
<path d="M54.1611 3.66474H53.7693V3.13293H54.1611V3.66474ZM54.1611 6.69055H53.7693V4.01317H54.1611V6.69055Z" fill="#2B354E"/>
<path d="M57.0731 6.69051H56.6643V5.18677C56.6653 5.08035 56.648 4.97465 56.6132 4.87503C56.5665 4.77655 56.5093 4.68425 56.4428 4.59995C56.3708 4.52429 56.2833 4.46778 56.1873 4.43491C56.0987 4.3829 55.9987 4.35757 55.8978 4.36155C55.7916 4.35927 55.6864 4.38442 55.5911 4.43491C55.5022 4.47225 55.4211 4.52836 55.3527 4.59995C55.2806 4.67951 55.2228 4.77278 55.1823 4.87503C55.1476 4.97465 55.1302 5.08035 55.1312 5.18677V6.69051H54.7224V5.22345C54.722 5.05229 54.7569 4.88318 54.8246 4.72832C54.8756 4.57661 54.957 4.43883 55.063 4.32474C55.1689 4.21065 55.2969 4.12305 55.4378 4.06814C55.5811 3.99341 55.7386 3.95573 55.8978 3.95811C56.0566 3.95941 56.2133 3.99691 56.3577 4.06814C56.4925 4.12545 56.6144 4.21296 56.7154 4.32488C56.8267 4.43785 56.9139 4.5755 56.9709 4.72832C57.0386 4.88318 57.0735 5.05229 57.0731 5.22345V6.69051Z" fill="#2B354E"/>
<path d="M36.2402 9.45942C36.3546 9.56464 36.4483 9.69352 36.5156 9.83842C36.5829 9.98332 36.6224 10.1413 36.632 10.303H36.1721C36.1388 10.0834 36.0366 9.88272 35.8825 9.73449C35.6991 9.57818 35.4687 9.49986 35.2352 9.51443C35.0834 9.50932 34.9325 9.54132 34.7938 9.60802C34.6551 9.67472 34.5323 9.77439 34.4346 9.89953C34.2302 10.1563 34.128 10.5597 34.128 11.0732C34.1174 11.4492 34.2124 11.8198 34.4005 12.1368C34.4971 12.274 34.6241 12.3828 34.77 12.4533C34.9158 12.5238 35.0758 12.5537 35.2352 12.5402C35.386 12.5477 35.536 12.5127 35.6704 12.4388C35.8048 12.3648 35.919 12.2544 36.0017 12.1185C36.1132 11.9437 36.1834 11.7422 36.2061 11.5316H36.666C36.6395 11.8935 36.5016 12.2355 36.2743 12.5036C35.9954 12.7911 35.6286 12.9591 35.2428 12.976C34.8569 12.9929 34.4787 12.8575 34.1791 12.5953C33.8213 12.2468 33.651 11.715 33.651 10.9998C33.6344 10.5183 33.7728 10.0454 34.0428 9.66114C34.1846 9.46923 34.3666 9.31607 34.5737 9.21411C34.7809 9.11214 35.0076 9.06424 35.2352 9.07431C35.4181 9.06244 35.6015 9.09042 35.7741 9.15659C35.9468 9.22276 36.1053 9.32576 36.2402 9.45942V9.45942Z" fill="#2B354E"/>
<path d="M37.0076 9.18433H37.5527L38.5406 10.9631L39.5286 9.18433H40.0737L38.7621 11.3849V12.8887H38.3022V11.3849L37.0076 9.18433Z" fill="#2B354E"/>
<path d="M40.4478 9.18433H41.9297C42.3386 9.18433 42.6281 9.31269 42.7985 9.56943C42.9017 9.72417 42.9555 9.91078 42.9518 10.1012C42.9582 10.3094 42.8913 10.5125 42.7644 10.6697C42.6923 10.7667 42.5986 10.8425 42.4919 10.8898C42.6353 10.9418 42.7683 11.0227 42.8836 11.1282C42.9642 11.2179 43.0269 11.3243 43.0679 11.441C43.1089 11.5576 43.1273 11.6821 43.1221 11.8067C43.1263 12.0431 43.0472 12.2724 42.9007 12.4485C42.6963 12.7419 42.3726 12.8887 41.9127 12.8887H40.4478V9.18433ZM41.7594 10.7431C41.9176 10.7593 42.077 10.7276 42.2193 10.6514C42.307 10.6097 42.3804 10.5396 42.4293 10.4508C42.4781 10.3621 42.5 10.2591 42.4919 10.1563C42.5006 10.0533 42.4768 9.95012 42.4242 9.86356C42.3716 9.777 42.2934 9.71212 42.2023 9.67946C42.0557 9.61969 41.8988 9.59467 41.7424 9.6061H40.9077V10.7431H41.7594ZM41.9127 12.4485C42.0291 12.4617 42.1467 12.4453 42.2561 12.4007C42.3656 12.3561 42.4638 12.2846 42.543 12.1918C42.6127 12.0708 42.6482 11.9307 42.6452 11.7884C42.6555 11.671 42.6293 11.5533 42.5707 11.4537C42.5121 11.3541 42.4245 11.2783 42.3215 11.2382C42.1695 11.1747 42.0076 11.1436 41.8446 11.1465H40.9077V12.4485H41.9127Z" fill="#2B354E"/>
<path d="M43.7017 9.18433H46.2057V9.64278H44.1616V10.7614H46.0353V11.1832H44.1616V12.4485H46.2398V12.8887H43.7017V9.18433Z" fill="#2B354E"/>
<path d="M46.9038 9.18458H48.4709C48.6876 9.17205 48.9038 9.21609 49.1012 9.31295C49.4249 9.45965 49.5782 9.75307 49.5782 10.1748C49.592 10.3589 49.5538 10.5432 49.4687 10.7035C49.3836 10.8638 49.2555 10.9928 49.1012 11.0734C49.2199 11.1159 49.3258 11.1919 49.4078 11.2935C49.488 11.4367 49.5238 11.6037 49.51 11.7703V12.2654C49.5271 12.3938 49.5271 12.5038 49.5441 12.5772C49.5544 12.6231 49.5734 12.6663 49.5997 12.7042C49.6261 12.742 49.6593 12.7737 49.6974 12.7972V12.8889H49.1523L49.1012 12.7605C49.1012 12.7055 49.0842 12.6138 49.0842 12.4671L49.0501 11.8436C49.06 11.7475 49.0424 11.6504 48.9998 11.5652C48.9572 11.4801 48.8916 11.4109 48.8116 11.3668C48.6833 11.3058 48.5426 11.2805 48.4028 11.2935H47.3808V12.8889H46.9038V9.18458ZM48.4198 10.8717C48.5982 10.8843 48.7761 10.8396 48.9309 10.7433C48.9977 10.6799 49.0495 10.6002 49.0821 10.5109C49.1146 10.4216 49.127 10.3253 49.1182 10.2299C49.1287 10.1219 49.1082 10.013 49.0594 9.91795C49.0107 9.82288 48.9361 9.74614 48.8457 9.69805C48.7362 9.63364 48.6127 9.60197 48.488 9.60636H47.3808V10.8717H48.4198Z" fill="#2B354E"/>
<path d="M50.6172 11.6968C50.6235 11.8773 50.6702 12.0535 50.7535 12.2103C50.9068 12.4487 51.1623 12.577 51.5371 12.577C51.6943 12.5768 51.8501 12.5457 51.997 12.4853C52.2695 12.3753 52.4058 12.1919 52.4058 11.9352C52.4099 11.8528 52.3967 11.7704 52.3672 11.6942C52.3377 11.618 52.2927 11.55 52.2355 11.4951C52.0618 11.4004 51.879 11.3267 51.6904 11.275L51.2305 11.165C51.0147 11.1247 50.8071 11.044 50.6172 10.9266C50.5106 10.8519 50.4244 10.7479 50.3675 10.6255C50.3106 10.503 50.2851 10.3664 50.2936 10.2297C50.2896 10.0769 50.3148 9.92486 50.3675 9.78293C50.4202 9.641 50.4994 9.51221 50.6002 9.40451C50.8501 9.18737 51.1652 9.07645 51.486 9.09276C51.8059 9.08304 52.121 9.17903 52.3888 9.36783C52.5119 9.47488 52.6089 9.61271 52.6712 9.76932C52.7336 9.92594 52.7594 10.0966 52.7465 10.2664H52.3206C52.3073 10.1019 52.2545 9.9439 52.1673 9.80795C52.0311 9.62457 51.8096 9.53288 51.486 9.53288C51.383 9.5207 51.2787 9.53064 51.1793 9.56211C51.0799 9.59359 50.9873 9.64598 50.9068 9.71626C50.8509 9.76836 50.8066 9.8333 50.7771 9.9063C50.7476 9.9793 50.7337 10.0585 50.7365 10.138C50.7327 10.219 50.7498 10.2996 50.7859 10.3708C50.822 10.442 50.8756 10.501 50.9409 10.5415C51.1359 10.6381 51.3422 10.706 51.5541 10.7432L52.014 10.8532C52.1988 10.908 52.3763 10.9881 52.5421 11.0916C52.644 11.1827 52.7247 11.298 52.7779 11.4285C52.8312 11.5591 52.8554 11.7011 52.8487 11.8435C52.8487 12.2592 52.7124 12.5526 52.4399 12.7237C52.1598 12.9133 51.8337 13.0091 51.503 12.9988C51.1475 13.0159 50.7997 12.8845 50.5321 12.632C50.4124 12.5139 50.3183 12.3689 50.2565 12.2073C50.1947 12.0457 50.1666 11.8714 50.1743 11.6968H50.6172Z" fill="#2B354E"/>
<path d="M53.5474 9.18433H56.0514V9.64278H54.0073V10.7614H55.8981V11.1832H54.0073V12.4485H56.0854V12.8887H53.5474V9.18433Z" fill="#2B354E"/>
<path d="M59.1341 9.45951C59.2485 9.56473 59.3422 9.69361 59.4095 9.83851C59.4768 9.98341 59.5164 10.1414 59.5259 10.3031H59.083C59.0455 10.0699 58.9289 9.8601 58.7558 9.71437C58.5826 9.56864 58.3653 9.49741 58.1461 9.51452C57.9916 9.50796 57.8378 9.53921 57.6962 9.60592C57.5546 9.67262 57.4288 9.77305 57.3285 9.89963C57.1241 10.1564 57.0219 10.5598 57.0219 11.0733C57.0083 11.4523 57.1099 11.8257 57.3114 12.1369C57.4042 12.2739 57.5282 12.3829 57.6713 12.4535C57.8145 12.5242 57.9721 12.5541 58.1291 12.5403C58.2799 12.5478 58.4299 12.5128 58.5643 12.4388C58.6987 12.3649 58.8129 12.2545 58.8956 12.1186C59.0055 11.9411 59.0809 11.7414 59.1171 11.5317H59.56C59.5334 11.8936 59.3955 12.2356 59.1682 12.5037C59.0282 12.6618 58.8587 12.7861 58.6707 12.8683C58.4828 12.9505 58.2807 12.9887 58.078 12.9804C57.7102 12.9908 57.3519 12.8536 57.073 12.5953C56.7323 12.2469 56.5449 11.7151 56.5449 10.9999C56.5257 10.5151 56.671 10.0392 56.9537 9.66123C57.0938 9.47187 57.273 9.32025 57.477 9.21839C57.681 9.11653 57.9043 9.06724 58.1291 9.07441C58.3121 9.06146 58.4957 9.08894 58.6686 9.15517C58.8414 9.22139 58.9998 9.32496 59.1341 9.45951V9.45951Z" fill="#2B354E"/>
<path d="M60.6675 9.18433V11.4766C60.6626 11.7053 60.7094 11.9319 60.8038 12.1368C60.8748 12.2705 60.9799 12.3796 61.1067 12.4511C61.2335 12.5226 61.3766 12.5535 61.5192 12.5402C61.9053 12.5402 62.1779 12.3935 62.3369 12.1001C62.4127 11.9028 62.4476 11.69 62.4391 11.4766V9.18433H62.916V11.2565C62.9349 11.6204 62.8767 11.9841 62.7457 12.3202C62.5413 12.7603 62.1324 12.9803 61.5533 12.9803C60.9741 12.9803 60.5823 12.7603 60.3779 12.3202C60.2469 11.9841 60.1887 11.6204 60.2076 11.2565V9.18433H60.6675Z" fill="#2B354E"/>
<path d="M63.6829 9.18436H65.25C65.4665 9.17394 65.6823 9.21789 65.8803 9.31273C66.2039 9.45944 66.3572 9.75285 66.3572 10.1746C66.3583 10.3656 66.3175 10.5541 66.238 10.7248C66.149 10.8725 66.0257 10.9927 65.8803 11.0732C65.9921 11.1199 66.0915 11.1955 66.1698 11.2933C66.256 11.4344 66.2978 11.6015 66.2891 11.7701V12.2652C66.2889 12.3702 66.3003 12.4748 66.3232 12.5769C66.3572 12.687 66.3913 12.7603 66.4765 12.797V12.8887H65.8973C65.8837 12.8466 65.8723 12.8038 65.8632 12.7603C65.8458 12.6637 65.8401 12.5651 65.8462 12.4669L65.8121 11.8434C65.7951 11.605 65.727 11.44 65.5737 11.3666C65.4453 11.3055 65.3047 11.2803 65.1648 11.2933H64.1428V12.8887H63.6829V9.18436ZM65.1989 10.8715C65.3719 10.8838 65.5442 10.839 65.6929 10.7431C65.762 10.6817 65.8155 10.6023 65.8483 10.5125C65.8811 10.4227 65.8921 10.3253 65.8803 10.2296C65.8899 10.1239 65.8709 10.0174 65.8256 9.92304C65.7803 9.82867 65.7105 9.75045 65.6248 9.69783C65.5091 9.63351 65.3801 9.60195 65.25 9.60614H64.1428V10.8715H65.1989Z" fill="#2B354E"/>
<path d="M67.1919 9.18433H67.6689V12.8887H67.1919V9.18433Z" fill="#2B354E"/>
<path d="M70.9225 9.18433V9.62444H69.7642V12.8887H69.2872V9.62444H68.1289V9.18433H70.9225Z" fill="#2B354E"/>
<path d="M71.0757 9.18433H71.6208L72.6087 10.9631L73.5967 9.18433H74.1418L72.8472 11.3849V12.8887H72.3873V11.3849L71.0757 9.18433Z" fill="#2B354E"/>
<path d="M28.0642 16.3547H34.0943V18.7203H32.3057L34.5542 27.1376L38.1484 17.8217L39.443 17.8584L43.0883 27.1376L45.2858 18.757H43.2757V16.2263H49.4251V18.757H47.909L44.0082 32.6941H42.5944L38.7957 22.7731L34.8949 32.7307H33.4129L29.5121 18.8303H28.0642V16.3547Z" fill="#2B354E"/>
<path d="M47.3295 23.1396L46.7673 25.4502H48.2152C48.2152 25.4502 46.9888 30.3465 47.2273 31.0433C47.4657 31.7402 47.4998 32.7121 49.7313 32.6204C51.9628 32.5287 52.2012 29.5579 52.2012 29.5579L51.1622 29.0811C51.1622 29.0811 50.7533 30.6216 50.072 30.8233C49.3906 31.025 50.3275 27.449 50.7874 25.3585L51.3325 23.1212L47.3295 23.1396Z" fill="#2B354E"/>
<path d="M50.3277 22.1493C51.1461 22.1493 51.8096 21.435 51.8096 20.5539C51.8096 19.6728 51.1461 18.9585 50.3277 18.9585C49.5092 18.9585 48.8457 19.6728 48.8457 20.5539C48.8457 21.435 49.5092 22.1493 50.3277 22.1493Z" fill="#2B354E"/>
<path d="M63.7508 28.0361C63.1215 28.8569 62.2915 29.4718 61.3546 29.8112C60.4176 30.1507 59.4111 30.2011 58.449 29.9569C57.4868 29.7126 56.6073 29.1834 55.9099 28.429C55.2126 27.6747 54.7252 26.7253 54.5029 25.6883C54.2806 24.6513 54.3323 23.5681 54.6521 22.561C54.9719 21.554 55.547 20.6634 56.3125 19.9899C57.0779 19.3164 58.0031 18.887 58.9835 18.7501C59.9639 18.6132 60.9603 18.7744 61.86 19.2154C61.831 19.335 61.8195 19.4587 61.8259 19.5821C61.8246 19.9543 61.9173 20.3198 62.094 20.6396C62.2707 20.9595 62.5248 21.2216 62.8291 21.3981C63.1335 21.5745 63.4766 21.6587 63.8219 21.6415C64.1672 21.6242 64.5017 21.5064 64.7896 21.3004C65.0775 21.0944 65.308 20.8081 65.4565 20.4721C65.605 20.136 65.6659 19.7628 65.6327 19.3924C65.5995 19.022 65.4734 18.6683 65.268 18.369C65.0625 18.0697 64.7854 17.8362 64.4662 17.6933C62.7628 16.3913 61.9111 15.8778 59.6115 15.8778C58.2709 15.8767 56.9518 16.2395 55.776 16.9327C54.6003 17.6259 53.6059 18.6272 52.8848 19.8438C52.1637 21.0604 51.7393 22.4531 51.6507 23.8931C51.5622 25.3331 51.8123 26.7739 52.3781 28.0822C52.9439 29.3906 53.807 30.5242 54.8876 31.3782C55.9681 32.2323 57.2313 32.7792 58.5603 32.9683C59.8893 33.1575 61.2411 32.9829 62.4908 32.4605C63.7404 31.9382 64.8475 31.085 65.7097 29.9799L63.7508 28.0361Z" fill="#2B354E"/>
<path d="M63.2224 23.1765V25.5238H64.1252L67.1914 31.7955C67.1914 31.7955 66.8166 33.3359 66.0841 33.4276C66.0841 33.4276 65.0962 31.9422 64.04 33.611C64.04 33.611 63.7164 35.0047 64.9769 35.4081C66.2375 35.8115 67.7535 35.6282 68.8266 33.2992C69.8998 30.9702 72.2505 25.2487 72.2505 25.2487H73.2725V23.0481H68.8948V25.2487H70.002L68.4519 29.3015L66.7314 25.3037H67.8046V23.0665C67.8046 23.0665 63.6823 23.0848 63.2565 23.0298C63.2394 23.0298 63.2224 23.1582 63.2224 23.1765Z" fill="#2B354E"/>
<path d="M79.6094 18.812C79.6094 18.812 79.1154 21.0126 80.4781 21.2143C81.8409 21.416 82.5904 20.7192 82.6244 19.6556C82.6585 18.5919 81.7387 16.153 78.434 16.0796C75.1294 16.0062 72.5231 17.7667 72.6424 20.4991C72.7616 23.2315 74.0562 24.4969 77.3438 25.7622C80.6314 27.0275 80.2397 30.1634 77.7697 30.4568C75.2997 30.7502 75.1464 29.7783 75.1464 29.7783C75.1464 29.7783 76.0833 27.376 73.5452 27.2109C71.0071 27.0459 71.3989 31.0436 73.0682 31.6671C74.7376 32.2906 75.7767 33.4092 78.434 33.0241C81.0914 32.639 82.7948 30.8235 82.7948 28.7697C82.7948 26.7158 82.1986 24.0384 77.2246 22.7364C72.2506 21.4344 76.2877 17.2166 79.6094 18.812Z" fill="#2B354E"/>
</g>
<defs>
<clipPath id="clip0_3268_6094">
<rect width="90" height="36" fill="white"/>
</clipPath>
</defs>
</svg>
