<svg width="59" height="59" viewBox="0 0 59 59" fill="none" xmlns="http://www.w3.org/2000/svg">
<g clip-path="url(#clip0_3268_6002)">
<path d="M19.1249 54.329L19.538 53.1844L19.689 53.241L19.276 54.3856L19.1249 54.329Z" fill="#2B354E"/>
<path d="M16.7774 53.334L17.3138 52.2418L17.4582 52.3155L17.5901 53.4365L18.0038 52.5941L18.1475 52.6675L17.6111 53.7597L17.4674 53.6863L17.3344 52.5619L16.9196 53.4066L16.7774 53.334Z" fill="#2B354E"/>
<path d="M13.8912 51.8223L14.5502 50.7994L14.6822 50.8877L14.0232 51.9106L13.8912 51.8223ZM13.5663 51.6046L13.6378 51.4936L14.419 52.0168L14.3474 52.1278L13.5663 51.6046Z" fill="#2B354E"/>
<path d="M11.8134 48.9146L11.8964 48.8128L12.3886 49.2299L12.3055 49.3317L11.8134 48.9146ZM11.5939 50.1531L12.3637 49.2088L12.4869 49.3132L11.7171 50.2575L11.5939 50.1531ZM11.5227 49.4063L11.6057 49.3045L12.0327 49.6664L11.9497 49.7682L11.5227 49.4063ZM11.133 49.7625L11.2165 49.6601L11.7023 50.0718L11.6188 50.1742L11.133 49.7625Z" fill="#2B354E"/>
<path d="M9.38102 48.2285L9.10593 47.9317C9.04354 47.8644 9.00091 47.7979 8.97807 47.7321C8.95484 47.6659 8.95175 47.6016 8.9688 47.5393C8.98506 47.4771 9.0218 47.4183 9.07902 47.3632C9.11932 47.3243 9.16399 47.2972 9.21303 47.2818C9.2613 47.2664 9.31157 47.263 9.36386 47.2717C9.41537 47.2803 9.46674 47.3008 9.51797 47.333L9.56148 47.354L9.82001 47.6329L9.72626 47.7256L9.53107 47.515C9.4915 47.4723 9.45134 47.4438 9.41058 47.4295C9.36941 47.4155 9.32968 47.4134 9.29138 47.4231C9.25308 47.4328 9.21882 47.4523 9.1886 47.4814C9.15475 47.514 9.13141 47.5493 9.11857 47.5873C9.10574 47.6253 9.10598 47.6655 9.1193 47.7079C9.13183 47.7502 9.15921 47.7941 9.20144 47.8397L9.36638 48.0176L10.151 47.2615L10.2611 47.3803L9.38102 48.2285ZM9.77543 46.8564L9.57852 47.4588L9.46321 47.3356L9.65061 46.7365L9.65787 46.7296L9.77543 46.8564Z" fill="#2B354E"/>
<path d="M6.62272 45.0177L7.60165 44.2907L7.69609 44.4229L7.29789 45.4832L8.05293 44.9224L8.14689 45.0539L7.16796 45.781L7.074 45.6495L7.47276 44.5857L6.7157 45.1479L6.62272 45.0177Z" fill="#2B354E"/>
<path d="M4.79139 42.0194L5.96064 41.8502L6.03685 41.9973L4.74382 42.1634L4.69469 42.0686L4.79139 42.0194ZM5.61789 41.1884L4.82195 42.0784L4.72757 42.132L4.67845 42.0372L5.54129 41.0405L5.61789 41.1884ZM5.22837 41.422L5.34539 41.359L5.66183 41.97L5.54482 42.033L5.22837 41.422Z" fill="#2B354E"/>
<path d="M3.37369 39.0761L4.50203 38.6206L4.55951 38.7686L3.43116 39.2241L3.37369 39.0761ZM3.23211 38.7115L3.35455 38.6621L3.69488 39.5385L3.57244 39.5879L3.23211 38.7115Z" fill="#2B354E"/>
<path d="M2.40333 36.5545L3.56756 36.2006L3.61282 36.3554L2.4486 36.7093L2.40333 36.5545Z" fill="#2B354E"/>
<path d="M2.33669 33.9782L2.41221 33.9638C2.50196 33.9467 2.58448 33.9426 2.65975 33.9515C2.73502 33.9604 2.80142 33.9812 2.85897 34.0139C2.91652 34.0465 2.96386 34.09 3.00099 34.1441C3.03802 34.1978 3.06323 34.261 3.0766 34.3339C3.08958 34.4046 3.08836 34.472 3.07296 34.5362C3.05745 34.5999 3.02877 34.6581 2.98691 34.7109C2.94496 34.7632 2.89057 34.8078 2.82375 34.845C2.75693 34.8821 2.67864 34.9093 2.58888 34.9264L2.51336 34.9408C2.42361 34.9579 2.34132 34.9617 2.2665 34.9522C2.19102 34.9422 2.12447 34.9206 2.06682 34.8873C2.00862 34.8542 1.96101 34.8108 1.92398 34.7572C1.88685 34.703 1.86179 34.6406 1.84882 34.5699C1.83544 34.497 1.8365 34.4287 1.85201 34.3651C1.86742 34.3009 1.89642 34.2429 1.93903 34.1911C1.98098 34.1388 2.03547 34.0947 2.1025 34.0587C2.16887 34.0222 2.24693 33.9954 2.33669 33.9782ZM2.44103 34.1208L2.36386 34.1356C2.29272 34.1491 2.23114 34.1685 2.17913 34.1938C2.12701 34.2185 2.08491 34.2483 2.05283 34.2834C2.02074 34.3184 1.99885 34.3581 1.98713 34.4023C1.97532 34.4459 1.97409 34.4932 1.98345 34.5442C1.9925 34.5935 2.01027 34.6364 2.03677 34.6727C2.06317 34.7085 2.09759 34.7371 2.14003 34.7585C2.18238 34.7793 2.23232 34.7922 2.28987 34.7971C2.34741 34.802 2.41176 34.7977 2.4829 34.7841L2.56007 34.7694C2.63176 34.7557 2.69384 34.7359 2.7463 34.71C2.79821 34.6842 2.84043 34.6535 2.87296 34.6178C2.90484 34.5816 2.92674 34.542 2.93866 34.4989C2.95047 34.4553 2.95185 34.4088 2.9428 34.3594C2.93334 34.3079 2.91536 34.264 2.88887 34.2277C2.86237 34.1913 2.828 34.163 2.78576 34.1427C2.74286 34.1219 2.69275 34.1097 2.6354 34.1059C2.57751 34.1022 2.51272 34.1071 2.44103 34.1208Z" fill="#2B354E"/>
<path d="M1.21439 29.9272L2.43117 29.8776L2.43753 30.0397L1.52308 30.6906L2.46157 30.6523L2.4679 30.8136L1.25112 30.8633L1.24479 30.702L2.16165 30.0485L1.22066 30.0868L1.21439 29.9272Z" fill="#2B354E"/>
<path d="M1.39288 26.3698L2.45427 26.8886L2.43739 27.0524L1.27506 26.4614L1.28594 26.3558L1.39288 26.3698ZM2.5302 26.1521L1.38611 26.4354L1.27866 26.4264L1.28954 26.3209L2.54716 25.9875L2.5302 26.1521ZM2.08016 26.1249L2.21145 26.1389L2.14136 26.819L2.01006 26.8049L2.08016 26.1249Z" fill="#2B354E"/>
<path d="M2.8894 22.67L3.01654 22.7008L2.87916 23.2915L2.75202 23.2608L2.8894 22.67ZM1.70726 22.9756L2.88633 23.2607L2.84991 23.4173L1.67084 23.1323L1.70726 22.9756Z" fill="#2B354E"/>
<path d="M3.11622 18.3894L3.97775 19.2033L3.91422 19.3552L2.97736 18.442L3.01832 18.3441L3.11622 18.3894ZM4.26351 18.5203L3.09074 18.4503L2.99091 18.4097L3.03187 18.3118L4.32737 18.3676L4.26351 18.5203ZM3.84237 18.3599L3.96346 18.4125L3.69963 19.0432L3.57854 18.9905L3.84237 18.3599Z" fill="#2B354E"/>
<path d="M5.44114 15.3286C5.41683 15.3142 5.39318 15.3053 5.37019 15.302C5.347 15.2979 5.32242 15.3007 5.29646 15.3105C5.27077 15.3197 5.24168 15.3366 5.20918 15.3612C5.17696 15.3852 5.13956 15.4178 5.09698 15.4589C5.05207 15.5019 5.00838 15.5388 4.9659 15.5696C4.92295 15.6002 4.8808 15.6232 4.83946 15.6387C4.79812 15.6541 4.75719 15.6604 4.71667 15.6577C4.67614 15.6549 4.63561 15.6415 4.59509 15.6175C4.55456 15.5935 4.52194 15.5629 4.49722 15.5257C4.4725 15.4885 4.45643 15.4467 4.44901 15.4005C4.44138 15.3534 4.44291 15.3037 4.45359 15.2515C4.46427 15.1992 4.48498 15.1461 4.51573 15.0921C4.56076 15.0132 4.61394 14.9551 4.67527 14.9181C4.7364 14.8802 4.79928 14.8611 4.86391 14.8608C4.92806 14.8602 4.98731 14.8759 5.04166 14.9082L4.96259 15.0468C4.9235 15.0237 4.88413 15.0116 4.84448 15.0106C4.80436 15.0094 4.76597 15.0208 4.72932 15.0448C4.69218 15.0685 4.65865 15.1066 4.62873 15.1591C4.60045 15.2087 4.5845 15.254 4.58089 15.295C4.57728 15.336 4.58357 15.372 4.59978 15.4029C4.61626 15.4332 4.64072 15.458 4.67314 15.4773C4.69507 15.4903 4.7177 15.4976 4.74103 15.4992C4.76417 15.5 4.78899 15.4951 4.8155 15.4844C4.84229 15.4732 4.8709 15.456 4.90135 15.4328C4.93207 15.4091 4.96574 15.3792 5.00237 15.3429C5.0531 15.2931 5.10107 15.2526 5.14628 15.2214C5.19149 15.1903 5.23493 15.1683 5.2766 15.1557C5.31806 15.1422 5.35885 15.1384 5.39896 15.1441C5.43886 15.1491 5.47908 15.1636 5.5196 15.1876C5.56204 15.2128 5.59548 15.2442 5.61992 15.2819C5.64436 15.3196 5.65955 15.3617 5.66547 15.4084C5.67139 15.4551 5.66812 15.505 5.65566 15.5582C5.643 15.6106 5.62089 15.6645 5.58931 15.7198C5.56159 15.7685 5.52759 15.8124 5.48734 15.8517C5.44736 15.8905 5.40304 15.9212 5.35437 15.9439C5.30599 15.9661 5.25566 15.9772 5.20338 15.9771C5.15091 15.9763 5.09869 15.9605 5.04672 15.9297L5.12579 15.791C5.16154 15.8122 5.19628 15.8235 5.22998 15.8248C5.26321 15.8258 5.29504 15.8192 5.32545 15.805C5.35614 15.7903 5.38432 15.77 5.41 15.744C5.43547 15.7172 5.45782 15.687 5.47703 15.6533C5.50476 15.6047 5.52156 15.5595 5.52743 15.5179C5.5333 15.4763 5.52878 15.4395 5.51387 15.4074C5.49924 15.3749 5.47499 15.3486 5.44114 15.3286Z" fill="#2B354E"/>
<path d="M6.97587 12.8108C6.95321 12.7937 6.9306 12.7821 6.90803 12.7762C6.88534 12.7695 6.8605 12.7696 6.83349 12.7764C6.80681 12.7827 6.77588 12.7963 6.74069 12.8172C6.70583 12.8376 6.66485 12.866 6.61773 12.9023C6.56809 12.9402 6.52034 12.9721 6.47448 12.9982C6.42818 13.0239 6.38353 13.0422 6.34054 13.0529C6.29755 13.0637 6.25598 13.0654 6.21584 13.0581C6.1757 13.0507 6.13675 13.0328 6.099 13.0042C6.06124 12.9756 6.03212 12.9413 6.01162 12.9013C5.99112 12.8614 5.97976 12.8178 5.97754 12.7707C5.9752 12.7228 5.9823 12.6734 5.99882 12.6223C6.01535 12.5712 6.04198 12.5205 6.07872 12.47C6.13251 12.3962 6.1921 12.3442 6.25748 12.314C6.32274 12.2831 6.38765 12.2711 6.45219 12.278C6.51629 12.2846 6.57366 12.3071 6.62429 12.3455L6.52982 12.4752C6.4934 12.4476 6.45545 12.4311 6.41599 12.4256C6.37608 12.4199 6.33649 12.4269 6.29721 12.4468C6.25748 12.4663 6.21974 12.5006 6.18399 12.5497C6.1502 12.5961 6.1292 12.6396 6.12099 12.6802C6.11279 12.7208 6.11504 12.7575 6.12776 12.7901C6.1408 12.8224 6.16243 12.8499 6.19263 12.8728C6.21306 12.8883 6.23483 12.8981 6.25794 12.9023C6.28094 12.9058 6.30627 12.9037 6.33393 12.896C6.36192 12.8878 6.39241 12.8739 6.4254 12.8541C6.45871 12.8339 6.49568 12.8078 6.53631 12.7756C6.59253 12.7316 6.64495 12.6965 6.69357 12.6704C6.7422 12.6444 6.78801 12.6273 6.83102 12.6194C6.87392 12.6106 6.91506 12.6114 6.95445 12.6217C6.99372 12.6311 7.03224 12.6502 7.06999 12.6788C7.10952 12.7087 7.13937 12.7439 7.15955 12.7843C7.17972 12.8247 7.19014 12.8686 7.19082 12.9159C7.19149 12.9633 7.18263 13.0128 7.16423 13.0646C7.14572 13.1155 7.1176 13.1669 7.07988 13.2187C7.04675 13.2642 7.00789 13.3043 6.9633 13.339C6.91905 13.3733 6.87136 13.399 6.82025 13.4162C6.76946 13.4329 6.71798 13.4383 6.66581 13.4323C6.61353 13.4256 6.56318 13.4039 6.51476 13.3672L6.60924 13.2375C6.64255 13.2628 6.67596 13.2779 6.70945 13.283C6.74251 13.2878 6.77501 13.2848 6.80696 13.2741C6.83923 13.2629 6.86964 13.2457 6.89819 13.2226C6.92662 13.1987 6.95231 13.171 6.97527 13.1395C7.0084 13.094 7.03023 13.0508 7.04076 13.0098C7.05128 12.9689 7.0509 12.9316 7.03961 12.8979C7.02865 12.8637 7.0074 12.8347 6.97587 12.8108Z" fill="#2B354E"/>
<path d="M8.82605 9.95665L8.88065 10.0108C8.94553 10.0751 8.99581 10.1411 9.03147 10.2086C9.06714 10.2761 9.08817 10.3432 9.09457 10.41C9.10096 10.4767 9.09289 10.5413 9.07035 10.6037C9.04819 10.6656 9.01154 10.7234 8.9604 10.777C8.9108 10.8291 8.85573 10.8674 8.79521 10.8921C8.73508 10.9164 8.67182 10.9267 8.60544 10.9228C8.53944 10.9186 8.47246 10.8996 8.40449 10.866C8.33652 10.8323 8.2701 10.7833 8.20521 10.719L8.15062 10.6648C8.08573 10.6005 8.03584 10.5346 8.00096 10.467C7.96606 10.3987 7.94561 10.3309 7.9396 10.2638C7.93319 10.1963 7.94107 10.1315 7.96322 10.0695C7.98576 10.0072 8.02183 9.94998 8.07144 9.89797C8.12258 9.84434 8.17822 9.80538 8.23835 9.78107C8.29887 9.75635 8.36214 9.74652 8.42815 9.75156C8.49414 9.75581 8.56074 9.77517 8.62794 9.80964C8.69513 9.84331 8.76116 9.89231 8.82605 9.95665ZM8.77048 10.1263L8.71469 10.071C8.66326 10.02 8.61257 9.98032 8.56262 9.95197C8.51306 9.92323 8.46502 9.9058 8.41851 9.89968C8.37199 9.89357 8.32759 9.89857 8.28528 9.91467C8.24336 9.93037 8.20452 9.95697 8.16876 9.99447C8.13416 10.0308 8.10974 10.0705 8.09552 10.1136C8.08168 10.1564 8.07821 10.2016 8.08512 10.2492C8.09241 10.2965 8.11046 10.3454 8.13925 10.3959C8.16805 10.4464 8.20816 10.4971 8.2596 10.5481L8.31538 10.6035C8.36721 10.6548 8.41849 10.6947 8.46921 10.723C8.51955 10.751 8.56836 10.768 8.61565 10.7741C8.66294 10.7794 8.70735 10.7744 8.74888 10.7591C8.7908 10.7434 8.82906 10.7174 8.86367 10.6811C8.89981 10.6432 8.925 10.6027 8.93922 10.5595C8.95345 10.5164 8.95672 10.4714 8.94904 10.4245C8.94136 10.3769 8.92273 10.3282 8.89316 10.2785C8.8632 10.2284 8.82231 10.1777 8.77048 10.1263Z" fill="#2B354E"/>
<path d="M11.7256 7.55606L11.8514 7.45699C11.8912 7.52333 11.9154 7.59166 11.924 7.662C11.9327 7.73234 11.9222 7.80182 11.8925 7.87044C11.8626 7.93861 11.8093 8.0028 11.7329 8.063C11.6769 8.10703 11.618 8.13646 11.556 8.1513C11.4944 8.1658 11.4325 8.16644 11.3702 8.15323C11.3075 8.13957 11.2464 8.11231 11.1869 8.07144C11.1275 8.02979 11.0721 7.97505 11.0207 7.90722L10.9477 7.8108C10.8963 7.74297 10.8585 7.67469 10.8344 7.60596C10.8103 7.53645 10.8 7.46889 10.8033 7.40329C10.8071 7.33735 10.8245 7.27516 10.8556 7.21673C10.8866 7.1583 10.9317 7.10587 10.9907 7.05943C11.0627 7.00267 11.1341 6.96842 11.2047 6.95669C11.2754 6.94497 11.3429 6.95265 11.4074 6.97974C11.4719 7.00605 11.5316 7.04854 11.5865 7.10722L11.4607 7.20628C11.4203 7.16588 11.3796 7.13604 11.3385 7.11675C11.297 7.09701 11.2543 7.09032 11.2103 7.09667C11.1663 7.10301 11.1196 7.12562 11.0702 7.16449C11.0278 7.19786 10.9967 7.23547 10.9768 7.27733C10.9573 7.31884 10.9481 7.36327 10.949 7.41062C10.9505 7.45762 10.9617 7.50648 10.9826 7.55719C11.0036 7.60791 11.0336 7.65898 11.0725 7.7104L11.1465 7.80815C11.1824 7.85559 11.221 7.89636 11.2622 7.93046C11.3038 7.96422 11.3465 7.98892 11.3905 8.00458C11.4344 8.02023 11.4788 8.02493 11.5236 8.01868C11.568 8.01199 11.6114 7.99196 11.6538 7.9586C11.7076 7.91629 11.7438 7.87393 11.7626 7.83153C11.7814 7.78913 11.7867 7.74538 11.7783 7.70029C11.7704 7.65486 11.7528 7.60678 11.7256 7.55606Z" fill="#2B354E"/>
<path d="M13.5355 5.16865L14.1714 6.20851L14.035 6.29519L13.3991 5.25533L13.5355 5.16865Z" fill="#2B354E"/>
<path d="M15.2273 4.19911L15.3595 5.37751L15.213 5.45264L15.0874 4.14971L15.1818 4.10128L15.2273 4.19911ZM16.0183 5.03964L15.1686 4.22924L15.1186 4.1337L15.2131 4.08527L16.1656 4.96413L16.0183 5.03964ZM15.8005 4.64519L15.8589 4.76361L15.2506 5.07555L15.1922 4.95713L15.8005 4.64519Z" fill="#2B354E"/>
<path d="M18.1318 2.695L18.5507 3.83743L18.4023 3.89399L17.9834 2.75156L18.1318 2.695ZM18.4973 2.55568L18.5427 2.67965L17.6642 3.01456L17.6187 2.89059L18.4973 2.55568Z" fill="#2B354E"/>
<path d="M20.7347 1.85146L21.056 3.02508L20.9009 3.06924L20.5795 1.89563L20.7347 1.85146Z" fill="#2B354E"/>
<path d="M23.2687 1.79195L23.2813 1.8678C23.2962 1.95794 23.2984 2.04068 23.2877 2.11601C23.2771 2.19135 23.2548 2.25767 23.2208 2.31498C23.1868 2.37229 23.1423 2.41924 23.0874 2.45585C23.0331 2.49237 22.9694 2.51692 22.8963 2.52951C22.8255 2.54173 22.7583 2.53976 22.6946 2.5236C22.6315 2.50735 22.5741 2.47795 22.5224 2.43542C22.4713 2.39279 22.428 2.33778 22.3925 2.2704C22.3571 2.20302 22.3318 2.12425 22.3169 2.03411L22.3043 1.95826C22.2894 1.86812 22.2875 1.78561 22.2988 1.71073C22.3106 1.63521 22.3337 1.56874 22.3683 1.51134C22.4027 1.45339 22.4471 1.40615 22.5015 1.36964C22.5564 1.33303 22.6193 1.30862 22.6901 1.29641C22.7631 1.28381 22.8312 1.28564 22.8943 1.30189C22.958 1.31805 23.0152 1.34777 23.0658 1.39104C23.1169 1.43367 23.1597 1.48878 23.194 1.55635C23.2289 1.62327 23.2538 1.70181 23.2687 1.79195ZM23.124 1.89493L23.1111 1.81743C23.0993 1.74597 23.0814 1.68404 23.0574 1.63164C23.034 1.57913 23.0053 1.53661 22.971 1.50406C22.9368 1.47152 22.8978 1.44913 22.854 1.4369C22.8107 1.42457 22.7636 1.42281 22.7125 1.43162C22.6631 1.44014 22.62 1.45747 22.5831 1.48362C22.5467 1.50968 22.5174 1.54386 22.495 1.58615C22.4732 1.62836 22.4592 1.67827 22.4529 1.73588C22.4467 1.7935 22.4495 1.85803 22.4613 1.92949L22.4742 2.00699C22.4861 2.07899 22.5044 2.14142 22.529 2.19428C22.5535 2.2466 22.5831 2.28925 22.618 2.32226C22.6533 2.35461 22.6923 2.377 22.735 2.38942C22.7783 2.40175 22.8246 2.40365 22.874 2.39513C22.9257 2.38623 22.9699 2.3687 23.0068 2.34255C23.0437 2.3164 23.0728 2.28227 23.094 2.24016C23.1157 2.19741 23.1291 2.14732 23.1343 2.08989C23.1394 2.03192 23.1359 1.96693 23.124 1.89493Z" fill="#2B354E"/>
<path d="M27.1567 0.762567L27.1796 1.97917L27.0175 1.98234L26.3874 1.05598L26.4051 1.99433L26.2438 1.99749L26.2209 0.780889L26.3822 0.777731L27.0149 1.70655L26.9971 0.765692L27.1567 0.762567Z" fill="#2B354E"/>
<path d="M31.7475 1.03301L31.5525 2.2341L31.3934 2.20725L31.5885 1.00616L31.7475 1.03301ZM32.1625 1.65818L32.1413 1.78852L31.604 1.69783L31.6252 1.56749L32.1625 1.65818ZM32.3318 1.13163L32.3106 1.26197L31.6917 1.1575L31.7129 1.02716L32.3318 1.13163Z" fill="#2B354E"/>
<path d="M35.3647 2.26273L35.3426 2.33637C35.3164 2.4239 35.282 2.49895 35.2393 2.56153C35.1967 2.62411 35.1477 2.67329 35.0922 2.70909C35.0366 2.74489 34.9763 2.76664 34.9112 2.77435C34.8466 2.78223 34.7789 2.77514 34.7082 2.75308C34.6396 2.7317 34.5804 2.69924 34.5306 2.65572C34.4814 2.61236 34.443 2.55985 34.4156 2.49818C34.3886 2.43669 34.3741 2.36768 34.3721 2.29118C34.37 2.21467 34.3821 2.13265 34.4083 2.04513L34.4304 1.97148C34.4567 1.88396 34.4913 1.80926 34.5343 1.74738C34.5779 1.68513 34.6278 1.63619 34.6838 1.60056C34.7401 1.56439 34.8005 1.54237 34.8651 1.5345C34.9302 1.52679 34.9971 1.53363 35.0657 1.55502C35.1364 1.57707 35.1964 1.60978 35.2456 1.65313C35.2954 1.69666 35.3334 1.74935 35.3596 1.81122C35.3866 1.87272 35.4005 1.94155 35.4015 2.01773C35.4032 2.09354 35.391 2.1752 35.3647 2.26273ZM35.1902 2.28887L35.2128 2.21362C35.2336 2.14424 35.2448 2.08063 35.2465 2.02279C35.2486 1.96511 35.2416 1.9139 35.2254 1.86915C35.2091 1.8244 35.1841 1.78656 35.1504 1.75561C35.1171 1.72482 35.0758 1.70172 35.0263 1.6863C34.9784 1.67138 34.9323 1.66721 34.8879 1.67378C34.844 1.68052 34.8027 1.69773 34.7642 1.72539C34.7262 1.75323 34.6917 1.79151 34.6608 1.84023C34.6299 1.88896 34.6041 1.94801 34.5833 2.01739L34.5607 2.09263C34.5398 2.16255 34.5286 2.22677 34.5274 2.28532C34.5263 2.34333 34.534 2.39505 34.5506 2.4405C34.568 2.48558 34.593 2.52343 34.6257 2.55404C34.6589 2.58483 34.6994 2.60768 34.7473 2.6226C34.7973 2.63819 34.8445 2.64269 34.8889 2.63612C34.9334 2.62954 34.9743 2.61226 35.0118 2.58426C35.05 2.55589 35.084 2.51718 35.1138 2.46812C35.1438 2.41853 35.1693 2.35878 35.1902 2.28887Z" fill="#2B354E"/>
<path d="M38.5269 2.78921L38.8922 2.96112C38.9751 3.00011 39.0393 3.04576 39.0849 3.09806C39.131 3.15061 39.1577 3.20882 39.1649 3.2727C39.1729 3.33631 39.1605 3.40423 39.1278 3.47647C39.1048 3.52734 39.0734 3.56902 39.0335 3.60149C38.9944 3.63369 38.949 3.65551 38.8973 3.66695C38.8462 3.67811 38.791 3.67833 38.7315 3.66761L38.6833 3.66438L38.34 3.50282L38.3927 3.3823L38.6519 3.50427C38.7044 3.529 38.7523 3.54041 38.7954 3.5385C38.8388 3.53609 38.8765 3.52327 38.9085 3.50005C38.9404 3.47683 38.965 3.44615 38.9823 3.40799C39.0016 3.36526 39.0102 3.32395 39.0081 3.28405C39.0059 3.24416 38.9908 3.20712 38.9628 3.17294C38.9354 3.1385 38.8938 3.10808 38.8377 3.08168L38.6186 2.97861L38.1703 3.96907L38.024 3.90024L38.5269 2.78921ZM38.669 4.20375L38.6287 3.57387L38.7813 3.64479L38.8292 4.26806L38.8251 4.27722L38.669 4.20375Z" fill="#2B354E"/>
<path d="M42.8691 6.1322L42.9999 6.22486C42.9498 6.28348 42.8932 6.32755 42.8299 6.35707C42.7667 6.38659 42.6985 6.39723 42.6254 6.38901C42.5525 6.38033 42.4764 6.34784 42.3969 6.29154C42.3388 6.25036 42.2935 6.20184 42.2608 6.14599C42.2287 6.09046 42.2094 6.03041 42.2029 5.96582C42.1967 5.90078 42.2038 5.83316 42.224 5.76296C42.2451 5.69262 42.2795 5.62229 42.3275 5.55195L42.3957 5.45196C42.4436 5.38162 42.4961 5.32438 42.5531 5.28025C42.6109 5.23597 42.671 5.2056 42.7334 5.18914C42.7963 5.173 42.8597 5.17127 42.9238 5.18395C42.9879 5.19663 43.0505 5.22468 43.1118 5.26812C43.1867 5.32121 43.2403 5.38034 43.2726 5.44552C43.305 5.5107 43.3182 5.57871 43.3123 5.64955C43.3072 5.72025 43.2855 5.79111 43.2471 5.86214L43.1164 5.76948C43.142 5.71808 43.1576 5.66949 43.1633 5.62371C43.1692 5.57746 43.1626 5.53388 43.1433 5.49297C43.1241 5.45206 43.0888 5.41343 43.0375 5.37707C42.9935 5.34587 42.9489 5.32686 42.9037 5.32006C42.859 5.31359 42.8146 5.31794 42.7706 5.33311C42.727 5.34861 42.6847 5.37417 42.6436 5.4098C42.6024 5.44543 42.5637 5.48991 42.5273 5.54324L42.4582 5.64461C42.4247 5.6938 42.3982 5.74354 42.3787 5.79383C42.3597 5.84445 42.3495 5.89347 42.3481 5.94091C42.3468 5.98835 42.3558 6.03292 42.3751 6.07461C42.3948 6.11584 42.4267 6.15206 42.4707 6.18327C42.5266 6.22285 42.5772 6.24541 42.6225 6.25097C42.6679 6.25653 42.7104 6.24848 42.7501 6.22682C42.7902 6.20549 42.8299 6.17395 42.8691 6.1322Z" fill="#2B354E"/>
<path d="M45.5374 7.10909L45.8331 7.38255C45.9002 7.44458 45.9476 7.50737 45.9753 7.57093C46.0035 7.63486 46.0115 7.69839 45.9993 7.7615C45.9879 7.82458 45.956 7.88568 45.9034 7.9448C45.8664 7.98643 45.8241 8.01677 45.7766 8.03582C45.7299 8.05483 45.6802 8.06204 45.6277 8.05744C45.5759 8.0528 45.5233 8.03646 45.47 8.0084L45.4252 7.99088L45.1472 7.73388L45.2332 7.6347L45.4431 7.82872C45.4856 7.86806 45.5277 7.89328 45.5692 7.90439C45.6111 7.91509 45.6507 7.91414 45.688 7.90157C45.7253 7.88899 45.7578 7.86709 45.7856 7.83587C45.8167 7.8009 45.8371 7.76406 45.847 7.72535C45.8568 7.68664 45.8535 7.64678 45.837 7.60577C45.8213 7.56472 45.7908 7.5232 45.7454 7.48122L45.568 7.31726L44.8472 8.12786L44.7287 8.01837L45.5374 7.10909ZM45.251 8.50117L45.4003 7.88816L45.5242 8.00157L45.384 8.61055L45.3774 8.61804L45.251 8.50117Z" fill="#2B354E"/>
<path d="M48.0055 9.38092L47.7522 10.0261L48.4151 9.86306L48.5336 10.0025L47.6907 10.1874L47.35 10.4883L47.2456 10.3654L47.5863 10.0644L47.886 9.24017L48.0055 9.38092Z" fill="#2B354E"/>
<path d="M49.7124 12.6839L49.5331 12.4127L49.6412 12.3384L49.8205 12.6095C49.8553 12.662 49.8917 12.6989 49.9297 12.72C49.9677 12.7412 50.0064 12.7491 50.0456 12.7437C50.0851 12.7389 50.1237 12.7235 50.1613 12.6976C50.1958 12.6739 50.2231 12.644 50.2432 12.6078C50.2637 12.5721 50.2723 12.5317 50.2692 12.4865C50.2665 12.4411 50.2478 12.3921 50.213 12.3396L50.0544 12.0998L49.1606 12.7145L49.0716 12.58L50.0742 11.8905L50.3218 12.2647C50.3726 12.3414 50.4024 12.4152 50.4112 12.4862C50.4201 12.5572 50.4104 12.6223 50.3822 12.6816C50.3544 12.7406 50.3109 12.7905 50.2517 12.8312C50.1874 12.8754 50.1235 12.8994 50.0599 12.9032C49.9964 12.9071 49.9351 12.8907 49.8762 12.8542C49.8177 12.8173 49.7631 12.7605 49.7124 12.6839Z" fill="#2B354E"/>
<path d="M51.9713 15.0694L50.8928 15.6378L50.8209 15.4959L51.8994 14.9275L51.9713 15.0694ZM52.1485 15.4189L52.0314 15.4806L51.6056 14.6405L51.7226 14.5788L52.1485 15.4189Z" fill="#2B354E"/>
<path d="M52.934 18.4503L52.862 18.4773C52.7764 18.5094 52.6959 18.5274 52.6203 18.5314C52.5447 18.5353 52.4759 18.526 52.4139 18.5035C52.3519 18.4809 52.2981 18.4461 52.2527 18.3989C52.2074 18.3522 52.1722 18.294 52.147 18.2243C52.1226 18.1567 52.1127 18.0899 52.1173 18.0239C52.1221 17.9584 52.1408 17.8961 52.1733 17.8369C52.2061 17.7782 52.2523 17.7248 52.3119 17.6769C52.3716 17.6289 52.4442 17.5889 52.5298 17.5568L52.6018 17.5298C52.6873 17.4977 52.7677 17.48 52.843 17.4768C52.9189 17.4739 52.988 17.484 53.0502 17.507C53.113 17.5299 53.167 17.5647 53.2122 17.6114C53.2577 17.6586 53.2926 17.716 53.317 17.7836C53.3422 17.8533 53.3524 17.9209 53.3476 17.9863C53.3429 18.0523 53.3239 18.1145 53.2905 18.1729C53.2578 18.2315 53.2114 18.2843 53.1513 18.3313C53.092 18.3785 53.0195 18.4182 52.934 18.4503ZM52.8078 18.3272L52.8813 18.2996C52.9492 18.2741 53.0066 18.2445 53.0537 18.2108C53.1009 18.1776 53.1374 18.141 53.1633 18.101C53.1891 18.0609 53.2041 18.0181 53.2084 17.9725C53.2129 17.9274 53.2063 17.8805 53.1887 17.8317C53.1717 17.7845 53.1471 17.7453 53.1151 17.7139C53.0832 17.683 53.0446 17.6606 52.9993 17.6466C52.9542 17.6332 52.9029 17.6289 52.8454 17.6338C52.788 17.6387 52.7253 17.6539 52.6575 17.6793L52.584 17.7069C52.5156 17.7326 52.4578 17.7626 52.4104 17.797C52.3635 17.8313 52.327 17.8688 52.3008 17.9095C52.2754 17.9506 52.2603 17.9934 52.2557 18.038C52.2513 18.0831 52.2575 18.1293 52.2746 18.1764C52.2923 18.2257 52.3173 18.266 52.3493 18.2974C52.3814 18.3289 52.4199 18.351 52.4648 18.3639C52.5104 18.3771 52.5618 18.3808 52.6189 18.3748C52.6765 18.3687 52.7395 18.3528 52.8078 18.3272Z" fill="#2B354E"/>
<path d="M53.5044 22.2815L53.3766 22.3111L53.2443 21.7172L53.3721 21.6876L53.5044 22.2815ZM54.4366 21.4736L53.2512 21.7482L53.2161 21.5908L54.4015 21.3162L54.4366 21.4736Z" fill="#2B354E"/>
<path d="M54.5505 24.9546L54.474 24.9625C54.3831 24.9719 54.3005 24.969 54.2262 24.9537C54.1519 24.9385 54.0874 24.9121 54.0327 24.8746C53.978 24.8372 53.9344 24.7899 53.9018 24.7328C53.8693 24.6762 53.8494 24.611 53.8421 24.5373C53.8349 24.4658 53.8417 24.3987 53.8623 24.3361C53.883 24.274 53.9164 24.2185 53.9625 24.1694C54.0086 24.121 54.0665 24.0811 54.1361 24.0498C54.2058 24.0185 54.2861 23.9981 54.377 23.9887L54.4535 23.9808C54.5443 23.9714 54.6267 23.9746 54.7005 23.9905C54.7749 24.0069 54.8395 24.0341 54.8942 24.0721C54.9495 24.1101 54.9934 24.1573 55.0259 24.2139C55.0585 24.271 55.0784 24.3353 55.0855 24.4068C55.0928 24.4806 55.0862 24.5485 55.0655 24.6106C55.0448 24.6732 55.0111 24.7285 54.9644 24.7765C54.9183 24.8249 54.8603 24.8643 54.7906 24.8945C54.7214 24.9251 54.6414 24.9452 54.5505 24.9546ZM54.4582 24.8037L54.5363 24.7956C54.6084 24.7881 54.6713 24.774 54.7253 24.7533C54.7793 24.7332 54.8237 24.707 54.8585 24.6748C54.8934 24.6427 54.9185 24.6051 54.9338 24.562C54.9492 24.5195 54.9543 24.4725 54.9492 24.421C54.9442 24.3711 54.93 24.3269 54.9066 24.2884C54.8832 24.2505 54.8512 24.2191 54.8107 24.1942C54.7702 24.1698 54.7214 24.1527 54.6645 24.1429C54.6075 24.1332 54.543 24.132 54.4709 24.1395L54.3928 24.1475C54.3202 24.1551 54.2567 24.1695 54.2023 24.1908C54.1484 24.2121 54.1038 24.2391 54.0684 24.2719C54.0337 24.3052 54.0086 24.3428 53.9931 24.3847C53.9778 24.4272 53.9726 24.4734 53.9776 24.5233C53.9827 24.5754 53.9971 24.6207 54.0205 24.6591C54.0439 24.6976 54.0759 24.7287 54.1163 24.7526C54.1574 24.7769 54.2063 24.7934 54.2632 24.802C54.3206 24.8107 54.3856 24.8112 54.4582 24.8037Z" fill="#2B354E"/>
<path d="M54.6493 29.0203L54.2044 28.9989C54.1828 28.9828 54.1589 28.9576 54.1325 28.9235C54.1068 28.8893 54.085 28.8428 54.067 28.7839C54.0497 28.7256 54.0431 28.6511 54.0473 28.5604C54.0507 28.4864 54.0666 28.4188 54.0951 28.3577C54.1241 28.2972 54.1645 28.2453 54.2161 28.2021C54.2683 28.1594 54.3306 28.1273 54.403 28.1056C54.4759 28.0846 54.5577 28.0763 54.6484 28.0806L54.7427 28.0852C54.8334 28.0895 54.9139 28.104 54.9842 28.1286C55.0544 28.1537 55.1133 28.1883 55.1609 28.2324C55.2091 28.2766 55.2445 28.3296 55.2673 28.3915C55.2907 28.4534 55.3006 28.5236 55.2969 28.6021C55.2926 28.695 55.2729 28.7719 55.2377 28.8327C55.2031 28.8941 55.1569 28.9409 55.099 28.9733C55.0412 29.0062 54.9761 29.0259 54.9039 29.0325L54.9113 28.8714C54.9556 28.8663 54.9964 28.8537 55.0336 28.8338C55.0707 28.8143 55.101 28.7854 55.1246 28.7469C55.1487 28.7085 55.1621 28.6581 55.165 28.5958C55.1676 28.5395 55.1596 28.4904 55.1409 28.4482C55.1222 28.406 55.0943 28.3706 55.0571 28.3421C55.02 28.3135 54.9744 28.2912 54.9205 28.2753C54.8666 28.2598 54.8054 28.2505 54.7369 28.2472L54.6409 28.2426C54.5708 28.2392 54.5078 28.2443 54.452 28.2578C54.3961 28.2718 54.348 28.2932 54.3076 28.3219C54.2678 28.3507 54.2369 28.3857 54.2149 28.4271C54.1929 28.469 54.1807 28.5158 54.1783 28.5676C54.1756 28.6249 54.1782 28.6716 54.186 28.7077C54.1944 28.7438 54.2048 28.7721 54.2172 28.7928C54.2302 28.8135 54.2426 28.8295 54.2543 28.8406L54.5265 28.8537L54.5395 28.5724L54.6697 28.5786L54.6493 29.0203Z" fill="#2B354E"/>
<path d="M55.0811 32.1667L53.8781 31.9834L53.9015 31.8238L55.1045 32.0071L55.0811 32.1667Z" fill="#2B354E"/>
<path d="M53.8981 34.1808L53.8599 34.3366C53.7874 34.3096 53.726 34.2712 53.6756 34.2216C53.6252 34.172 53.5904 34.1112 53.5714 34.0391C53.5528 33.9671 53.5552 33.8838 53.5783 33.7891C53.5952 33.7198 53.6236 33.66 53.6634 33.6098C53.7031 33.5601 53.7517 33.521 53.8091 33.4925C53.8671 33.4641 53.9323 33.4473 54.0047 33.4422C54.0775 33.4377 54.1552 33.4459 54.2378 33.4669L54.3552 33.4968C54.4379 33.5178 54.51 33.5476 54.5717 33.5863C54.6337 33.6257 54.6838 33.672 54.7218 33.7254C54.7596 33.7792 54.7844 33.8387 54.796 33.9037C54.8076 33.9688 54.8045 34.0378 54.7866 34.1109C54.7648 34.2002 54.7296 34.2714 54.681 34.3246C54.6325 34.3778 54.5743 34.4139 54.5066 34.4329C54.4393 34.4526 54.3657 34.4566 54.286 34.4449L54.3241 34.2891C54.381 34.2955 54.4317 34.2934 54.4762 34.2829C54.5212 34.2725 54.5591 34.2511 54.5899 34.2187C54.6208 34.1863 54.6437 34.1395 54.6587 34.0784C54.6715 34.0259 54.6728 33.9771 54.6626 33.9319C54.6523 33.8873 54.6321 33.8469 54.602 33.8105C54.5718 33.7746 54.5327 33.7434 54.4847 33.7168C54.4367 33.6902 54.3814 33.669 54.3187 33.6531L54.1997 33.6228C54.1419 33.6081 54.0862 33.6003 54.0325 33.5993C53.9787 33.5988 53.9296 33.6062 53.8852 33.6213C53.8407 33.6365 53.8028 33.6604 53.7712 33.6932C53.7402 33.7262 53.7183 33.7689 53.7055 33.8214C53.6892 33.888 53.6868 33.9437 53.6982 33.9885C53.7096 34.0334 53.7325 34.0708 53.767 34.1009C53.8014 34.1315 53.8451 34.1581 53.8981 34.1808Z" fill="#2B354E"/>
<path d="M53.3565 38.5051L53.1941 38.8737C53.1572 38.9573 53.1134 39.0222 53.0627 39.0682C53.0118 39.1147 52.9548 39.1416 52.8919 39.1489C52.8293 39.157 52.7621 39.1446 52.6901 39.1116C52.6395 39.0884 52.5977 39.0567 52.5649 39.0165C52.5324 38.9771 52.51 38.9313 52.4977 38.8791C52.4856 38.8276 52.4843 38.7719 52.4938 38.7119L52.496 38.6632L52.6487 38.3168L52.7686 38.3699L52.6534 38.6315C52.63 38.6845 52.6197 38.7328 52.6224 38.7763C52.6256 38.8201 52.639 38.8581 52.6626 38.8903C52.6861 38.9226 52.7169 38.9474 52.7549 38.9648C52.7974 38.9843 52.8383 38.9929 52.8777 38.9907C52.917 38.9885 52.9532 38.9733 52.9864 38.945C53.0199 38.9174 53.0491 38.8753 53.074 38.8187L53.1714 38.5977L52.1853 38.1458L52.2503 37.9982L53.3565 38.5051ZM51.9635 38.649L52.5842 38.6081L52.5172 38.7621L51.9031 38.8107L51.894 38.8066L51.9635 38.649Z" fill="#2B354E"/>
<path d="M50.7063 41.6781L50.5941 41.6102L50.918 41.0533L51.0302 41.1212L50.7063 41.6781ZM51.9427 41.711L50.9016 41.0815L50.9827 40.9421L52.0238 41.5716L51.9427 41.711ZM51.2304 41.8954L51.1182 41.8275L51.3992 41.3443L51.5115 41.4122L51.2304 41.8954ZM51.6394 42.2325L51.5264 42.1642L51.8461 41.6145L51.9591 41.6828L51.6394 42.2325Z" fill="#2B354E"/>
<path d="M49.3716 44.1212C49.3941 44.1386 49.4166 44.1504 49.4391 44.1565C49.4617 44.1635 49.4865 44.1637 49.5136 44.1571C49.5403 44.1511 49.5714 44.1378 49.6068 44.1173C49.6419 44.0972 49.6832 44.0693 49.7307 44.0335C49.7807 43.9961 49.8288 43.9647 49.8749 43.9391C49.9215 43.9139 49.9663 43.8961 50.0094 43.8858C50.0525 43.8754 50.0941 43.8742 50.1341 43.8819C50.1742 43.8897 50.2129 43.908 50.2504 43.937C50.2878 43.966 50.3166 44.0006 50.3367 44.0408C50.3568 44.081 50.3677 44.1247 50.3694 44.1718C50.3712 44.2197 50.3636 44.2691 50.3466 44.32C50.3295 44.3709 50.3024 44.4214 50.2651 44.4714C50.2105 44.5447 50.1504 44.5961 50.0847 44.6256C50.0191 44.6558 49.9541 44.6671 49.8897 44.6595C49.8256 44.6522 49.7685 44.6291 49.7183 44.5903L49.8141 44.4615C49.8502 44.4895 49.888 44.5064 49.9274 44.5123C49.9672 44.5184 50.0069 44.5118 50.0464 44.4923C50.0863 44.4732 50.1244 44.4393 50.1607 44.3906C50.1949 44.3446 50.2164 44.3013 50.225 44.2608C50.2336 44.2203 50.2318 44.1836 50.2194 44.1508C50.2067 44.1184 50.1854 44.0906 50.1554 44.0674C50.1351 44.0518 50.1135 44.0417 50.0904 44.0372C50.0674 44.0335 50.0421 44.0354 50.0144 44.0428C49.9863 44.0507 49.9557 44.0643 49.9225 44.0837C49.8889 44.1035 49.8517 44.1293 49.8107 44.161C49.7541 44.2045 49.7013 44.239 49.6524 44.2646C49.6035 44.2901 49.5575 44.3066 49.5144 44.3142C49.4714 44.3225 49.4303 44.3213 49.391 44.3106C49.3519 44.3007 49.3136 44.2813 49.2761 44.2523C49.2369 44.2219 49.2074 44.1864 49.1877 44.1458C49.1679 44.1052 49.158 44.0612 49.1578 44.0138C49.1576 43.9665 49.167 43.9171 49.1859 43.8655C49.205 43.8147 49.2336 43.7636 49.2719 43.7122C49.3055 43.6671 49.3447 43.6274 49.3897 43.5932C49.4343 43.5594 49.4822 43.5341 49.5335 43.5175C49.5845 43.5013 49.636 43.4964 49.6881 43.5029C49.7403 43.5102 49.7904 43.5325 49.8385 43.5696L49.7427 43.6983C49.7096 43.6728 49.6764 43.6573 49.6429 43.6518C49.6099 43.6467 49.5774 43.6493 49.5453 43.6597C49.5129 43.6706 49.4824 43.6874 49.4536 43.7102C49.4249 43.7338 49.3989 43.7613 49.3756 43.7926C49.342 43.8377 49.3198 43.8807 49.3088 43.9215C49.2978 43.9623 49.2978 43.9997 49.3088 44.0335C49.3194 44.0678 49.3403 44.097 49.3716 44.1212Z" fill="#2B354E"/>
<path d="M47.2511 46.419L47.1575 46.3275L47.5976 45.8593L47.6911 45.9508L47.2511 46.419ZM48.4432 46.7311L47.5753 45.883L47.6855 45.7658L48.5534 46.6139L48.4432 46.7311ZM47.7105 46.749L47.6169 46.6576L47.9987 46.2513L48.0923 46.3428L47.7105 46.749ZM48.0311 47.1695L47.9369 47.0775L48.3713 46.6153L48.4655 46.7074L48.0311 47.1695Z" fill="#2B354E"/>
<path d="M45.9857 49.1024L45.6071 47.9741L45.7345 47.8691L46.1331 49.1211L46.0509 49.1887L45.9857 49.1024ZM45.034 48.446L46.0368 49.0603L46.1059 49.1435L46.0237 49.2111L44.9059 48.5515L45.034 48.446ZM45.3306 48.7867L45.2484 48.6829L45.7775 48.2472L45.8597 48.351L45.3306 48.7867Z" fill="#2B354E"/>
<path d="M43.5307 51.1771L43.1902 51.3936C43.113 51.4427 43.0404 51.4723 42.9727 51.4823C42.9044 51.4926 42.8421 51.4833 42.7858 51.4543C42.7293 51.4261 42.6804 51.3782 42.639 51.3105C42.6099 51.2629 42.5929 51.2132 42.5881 51.1614C42.583 51.1104 42.59 51.0597 42.6089 51.0093C42.6276 50.9598 42.6576 50.9126 42.6989 50.8678L42.7279 50.8285L43.0479 50.6251L43.1179 50.7363L42.8763 50.8899C42.8273 50.9211 42.7918 50.9555 42.7698 50.9933C42.7481 51.0316 42.738 51.0707 42.7396 51.1107C42.7411 51.1507 42.7528 51.1886 42.7747 51.2243C42.7991 51.2643 42.8283 51.2944 42.8622 51.3145C42.8961 51.3346 42.9347 51.3421 42.978 51.337C43.0212 51.3327 43.0689 51.314 43.1212 51.2807L43.3254 51.1509L42.7584 50.2239L42.8948 50.1372L43.5307 51.1771ZM42.2936 50.5195L42.8319 50.8318L42.6904 50.9228L42.1533 50.6206L42.1481 50.612L42.2936 50.5195Z" fill="#2B354E"/>
<path d="M39.7581 52.5018L39.6128 52.57C39.5888 52.4963 39.5804 52.4243 39.5877 52.3538C39.595 52.2833 39.6209 52.2179 39.6652 52.1578C39.7098 52.0981 39.7762 52.0475 39.8645 52.0061C39.9291 51.9759 39.9933 51.9605 40.0573 51.96C40.1208 51.9598 40.1815 51.9732 40.2395 52.0001C40.2977 52.0276 40.3514 52.068 40.4004 52.1212C40.4493 52.1752 40.4912 52.2411 40.5262 52.3188L40.5761 52.4293C40.6111 52.507 40.6328 52.5821 40.641 52.6545C40.649 52.7277 40.644 52.7959 40.626 52.859C40.6076 52.9224 40.5766 52.9791 40.5331 53.029C40.4896 53.079 40.4338 53.1199 40.3657 53.1518C40.2825 53.1909 40.205 53.2081 40.1333 53.2036C40.0616 53.1991 39.9973 53.1763 39.9403 53.1354C39.883 53.0952 39.8341 53.0403 39.7936 52.9707L39.9389 52.9026C39.9693 52.951 40.0024 52.9893 40.0383 53.0174C40.0745 53.046 40.1148 53.0622 40.1592 53.0659C40.2037 53.0697 40.2544 53.0582 40.3114 53.0315C40.3604 53.0085 40.3993 52.9789 40.4281 52.9426C40.4565 52.9065 40.4755 52.8653 40.4851 52.819C40.4942 52.7728 40.4942 52.7227 40.4851 52.6685C40.4759 52.6144 40.4581 52.5578 40.4315 52.4989L40.381 52.3869C40.3565 52.3326 40.3279 52.2842 40.2952 52.2416C40.2621 52.1993 40.2258 52.1656 40.1863 52.1404C40.1469 52.1152 40.1045 52.1006 40.0593 52.0966C40.0143 52.0931 39.9674 52.1028 39.9185 52.1258C39.8564 52.1549 39.8114 52.1879 39.7836 52.225C39.7557 52.2621 39.7408 52.3035 39.7388 52.3494C39.7364 52.3954 39.7428 52.4463 39.7581 52.5018Z" fill="#2B354E"/>
<path d="M36.5206 54.15L36.4834 54.0242L37.1128 53.8304L37.15 53.9562L36.5206 54.15ZM37.2746 54.4653L36.9291 53.2985L37.0833 53.2511L37.4288 54.4178L37.2746 54.4653ZM36.535 54.6929L36.1895 53.5262L36.3429 53.479L36.6884 54.6457L36.535 54.6929Z" fill="#2B354E"/>
<path d="M37.3498 28.8112H28.6768V37.9823H37.3498V28.8112Z" fill="#2B354E"/>
<path d="M28.1169 28.8112H19.4438V37.9823H28.1169V28.8112Z" fill="#2B354E"/>
<path d="M28.1169 18.9697H19.4438V28.2122H28.1169V18.9697Z" fill="#2B354E"/>
<path d="M37.3498 18.9697H28.6768V28.2122H37.3498V18.9697Z" fill="#2B354E"/>
<path d="M38.0498 18.399H48.5414C46.3019 13.7124 42.6162 9.90439 38.0498 7.55908V18.399Z" fill="#2B354E"/>
<path d="M38.0498 28.2407H50.7796C50.7791 25.0437 50.1115 21.8834 48.8212 18.9697H38.0498V28.2407Z" fill="#2B354E"/>
<path d="M18.7444 37.9395V28.8112H5.73486C5.81195 31.985 6.57626 35.1021 7.97307 37.9395H18.7444Z" fill="#2B354E"/>
<path d="M18.7444 18.9697H7.69329C6.40291 21.8834 5.73532 25.0437 5.73486 28.2407H18.7444V18.9697Z" fill="#2B354E"/>
<path d="M18.7445 18.3991V7.4165C14.032 9.71965 10.232 13.5942 7.97314 18.3991H18.7445Z" fill="#2B354E"/>
<path d="M18.7445 38.653H8.25293C10.5227 43.1781 14.2175 46.7947 18.7445 48.9224V38.653Z" fill="#2B354E"/>
<path d="M28.1169 5.27722C25.1336 5.29974 22.1848 5.93016 19.4438 7.13142V18.3992H28.1169V5.27722Z" fill="#2B354E"/>
<path d="M50.6397 28.8112H38.0498V37.9395H48.5414C49.8898 35.0908 50.6062 31.9741 50.6397 28.8112V28.8112Z" fill="#2B354E"/>
<path d="M38.0498 38.653V48.7797C42.4328 46.6111 46.0138 43.06 48.2616 38.653H38.0498Z" fill="#2B354E"/>
<path d="M28.6768 5.27722V18.3992H37.3498V7.27405C34.5969 6.09203 31.6607 5.416 28.6768 5.27722V5.27722Z" fill="#2B354E"/>
<path d="M28.1169 51.0618V38.653H19.4438V49.2076C22.164 50.4744 25.1267 51.1078 28.1169 51.0618Z" fill="#2B354E"/>
<path d="M37.3498 38.653H28.6768V51.0618C31.6776 51.0632 34.6407 50.381 37.3498 49.065V38.653Z" fill="#2B354E"/>
<path d="M13.4292 20.5387H12.5898V19.5403H13.4292V20.5387ZM13.4292 26.8144H12.5898V21.3945H13.4292V26.8144Z" fill="white"/>
<path d="M35.3912 15.5466L34.412 16.1171H32.1738L31.1945 15.5466L30.4951 14.6908C30.3171 14.389 30.2206 14.0445 30.2153 13.6924V13.1219C30.2446 12.7738 30.3396 12.4348 30.4951 12.1235L31.1945 11.2677L32.1738 10.6971H34.412L35.3912 11.2677L34.6917 11.9808C34.6435 11.8657 34.5664 11.7655 34.4682 11.6904C34.37 11.6153 34.2541 11.5679 34.1322 11.5529H32.4535L31.894 11.8382L31.4743 12.4087C31.3612 12.6277 31.3127 12.8754 31.3344 13.1219V13.6924C31.3127 13.9389 31.3612 14.1865 31.4743 14.4055L31.894 14.9761L32.4535 15.404H34.1322L34.6917 15.1187L35.3912 15.5466Z" fill="white"/>
<path d="M26.2986 36.2282H25.4592V35.5151L24.7598 36.0856H22.8014L21.962 35.5151L21.4025 34.6593C21.2785 34.3426 21.2305 34.0003 21.2626 33.6609V33.0904C21.2401 32.7512 21.2877 32.4111 21.4025 32.092L21.962 31.2362L22.8014 30.6656H24.7598L25.4592 31.2362V30.6656H26.2986V36.2282ZM25.4592 33.6609V33.0904C25.468 32.8448 25.4201 32.6005 25.3193 32.3772C25.1795 32.2346 25.1795 32.092 25.0396 31.8067L24.48 31.5214H23.0811C22.9726 31.5214 22.8655 31.5472 22.7683 31.5967C22.6712 31.6462 22.5867 31.7181 22.5216 31.8067L22.2418 32.3772C22.141 32.6005 22.0931 32.8448 22.1019 33.0904V33.6609C22.0802 33.9074 22.1287 34.155 22.2418 34.374C22.28 34.5875 22.377 34.7854 22.5216 34.9446L23.0811 35.2298H24.48L25.0396 34.9446C25.1795 34.8019 25.1795 34.5167 25.3193 34.374C25.4324 34.155 25.481 33.9074 25.4592 33.6609V33.6609Z" fill="white"/>
<path d="M42.5258 40.9353H41.6865L41.1269 41.3631L40.7072 41.791C40.7072 42.0763 40.5674 42.2189 40.5674 42.5042V45.6421H39.728V40.0795H40.5674V40.9353L41.4067 40.3647L42.246 40.0795H42.5258V40.9353Z" fill="white"/>
<path d="M27.5576 55.0553C28.3301 55.0553 28.9564 54.4167 28.9564 53.6289C28.9564 52.8412 28.3301 52.2026 27.5576 52.2026C26.785 52.2026 26.1587 52.8412 26.1587 53.6289C26.1587 54.4167 26.785 55.0553 27.5576 55.0553Z" fill="#2B354E"/>
</g>
<defs>
<clipPath id="clip0_3268_6002">
<rect width="58.1933" height="58.1933" fill="white"/>
</clipPath>
</defs>
</svg>
