<svg xmlns="http://www.w3.org/2000/svg" fill="none" viewBox="0 0 88 44"><path fill="#2B354E" d="M12.064 27.61c2.945 0 5.333-2.776 5.333-6.2 0-3.425-2.388-6.202-5.333-6.202-2.946 0-5.334 2.777-5.334 6.202 0 3.424 2.388 6.2 5.334 6.2Z"/><path fill="#2B354E" d="m5.46 26.724-.508 2.953C5.8 30.85 6.875 31.77 8.09 32.361a7.225 7.225 0 0 0 3.847.712c6.095-.443 12.57-8.416 13.587-25.248 0 0-3.302 17.275-9.905 21.262C9.016 33.073 5.46 26.724 5.46 26.724ZM28.064 14.174H26.92V7.678h1.143v6.496ZM32.635 7.825c.411.162.767.472 1.016.886l.38 1.034c0 .295.128.738.128 1.033a3.988 3.988 0 0 1-.508 2.215c-.18.362-.44.662-.752.87a1.816 1.816 0 0 1-1.026.311H29.46V7.678h3.175v.147ZM30.603 8.86v4.134h1.016c.244-.005.48-.09.684-.248.202-.157.362-.378.459-.638.158-.367.245-.77.254-1.181a2.99 2.99 0 0 0-.38-1.624c-.128-.296-.509-.443-1.017-.443h-1.016ZM39.365 8.859h-2.794v1.329h2.667v1.18h-2.667v1.625h2.921v1.181h-4.063V7.678h3.936v1.18ZM40.761 7.678h1.27l2.159 4.577V7.678h1.016v6.496h-1.143l-2.159-4.577v4.577h-1.143V7.678ZM50.666 7.678v1.18h-1.65v5.316h-1.143V8.86h-1.651V7.678h4.444ZM52.825 14.174h-1.142V7.678h1.142v6.496ZM58.158 7.678v1.18h-1.523v5.316h-1.27V8.86H53.84V7.678h4.317ZM62.349 7.678h1.397l-1.905 3.986v2.51h-1.143v-2.51l-1.905-3.986h1.397l1.143 2.805 1.016-2.805ZM30.603 16.537h1.651v6.496h-1.016V17.57l-1.015 5.463H29.08l-1.016-5.463v5.463H26.92v-6.496h1.65l1.017 5.02 1.015-5.02ZM35.302 16.537h1.27l1.905 6.496h-1.27l-.254-1.329H34.92l-.38 1.33h-1.27l2.031-6.497Zm-.127 3.986h1.397l-.635-2.51-.762 2.51ZM39.619 16.537h1.143l2.158 4.577v-4.577h1.143v6.496H42.92l-2.285-4.577v4.577h-1.016v-6.496ZM46.984 16.537h1.397l1.905 6.496h-1.27l-.381-1.329h-2.032l-.38 1.33h-1.144l1.905-6.497Zm0 3.986h1.397l-.762-2.51-.635 2.51ZM54.984 18.604a.979.979 0 0 0-.176-.58.746.746 0 0 0-.459-.306h-.634a1.01 1.01 0 0 0-.576.138 1.22 1.22 0 0 0-.44.452 2.83 2.83 0 0 0-.381 1.772 2.652 2.652 0 0 0 .38 1.624c.287.277.645.433 1.017.443l1.015-.295c.23-.28.364-.647.381-1.034h-1.27v-1.18h2.286v3.543h-.762v-1.034l-.635.739-1.142.295a2.01 2.01 0 0 1-.974-.214 2.332 2.332 0 0 1-.804-.672c-.525-.69-.798-1.59-.762-2.51a3.564 3.564 0 0 1 .165-1.276 3.2 3.2 0 0 1 .597-1.087c.223-.336.512-.606.844-.786.331-.18.695-.264 1.06-.247.649-.001 1.277.26 1.778.738.201.168.364.39.475.647.11.258.165.542.16.83h-1.143ZM61.714 17.718h-2.92v1.329h2.666v1.181h-2.666v1.624h3.047v1.181h-4.19v-6.496h4.063v1.181ZM66.793 16.537h1.65v6.496h-1.142V17.57l-1.016 5.463h-1.143l-1.016-5.463v5.463H63.11v-6.496h1.651l1.016 5.02 1.016-5.02ZM73.905 17.718h-2.921v1.329h2.667v1.181h-2.667v1.624h3.047v1.181h-4.19v-6.496h4.064v1.181ZM75.302 16.537h1.143l2.285 4.577v-4.577h1.016v6.496h-1.143l-2.285-4.577v4.577h-1.016v-6.496ZM85.206 16.537v1.181h-1.65v5.315h-1.144v-5.315h-1.65v-1.181h4.444ZM28.064 31.892H26.92v-6.497h1.143v6.497ZM29.46 25.395h1.143l2.286 4.577v-4.577h1.016v6.497h-1.143l-2.286-4.577v4.577H29.46v-6.497ZM36.19 29.825c.01.273.099.534.254.739.127.295.508.295.89.295h.761a.676.676 0 0 0 .293-.298.836.836 0 0 0 .088-.44c0-.296 0-.443-.127-.59l-.762-.296h-.635l-1.27-.443a2.074 2.074 0 0 1-.508-1.329c-.01-.274.03-.548.117-.802a1.96 1.96 0 0 1 .391-.675c.226-.225.489-.393.773-.495.284-.102.583-.134.878-.095a2.201 2.201 0 0 1 1.524.59c.2.168.364.39.474.648.111.257.166.541.16.829H38.35a.837.837 0 0 0-.088-.44.675.675 0 0 0-.293-.298h-1.397c-.254.147-.38.295-.38.59 0 .296.126.443.253.443a.992.992 0 0 0 .355.24c.131.05.27.07.407.056l1.016.295.889.443c.176.152.315.354.404.587.09.232.125.488.104.742.01.274-.029.547-.116.802a1.962 1.962 0 0 1-.392.674 2.87 2.87 0 0 1-1.65.59 2.97 2.97 0 0 1-1.779-.59 2.065 2.065 0 0 1-.476-.728 2.357 2.357 0 0 1-.159-.896l1.143-.148ZM44.825 25.395v1.181h-1.65v5.316h-1.143v-5.316H40.38v-1.18h4.444ZM46.858 31.892h-1.143v-6.497h1.142v6.497ZM52.317 25.395v1.181h-1.65v5.316h-1.143v-5.316h-1.651v-1.18h4.444ZM53.334 25.395h1.27v3.987c0 .443 0 .738.127.886.127.147.38.59.889.59a.788.788 0 0 0 .525-.131.99.99 0 0 0 .363-.46c.127-.147.127-.442.127-.885v-3.987h1.143v3.987c.001.555-.085 1.105-.254 1.624a2.386 2.386 0 0 1-.844.787c-.331.18-.695.264-1.06.247a1.783 1.783 0 0 1-1.077-.209 2.15 2.15 0 0 1-.828-.825 2.99 2.99 0 0 1-.381-1.624v-3.987ZM63.238 25.395v1.181h-1.651v5.316h-1.143v-5.316h-1.65v-1.18h4.444ZM68.317 26.576h-2.92v1.33h2.666v1.18h-2.666v1.625h3.047v1.18h-4.063v-6.496h3.936v1.181ZM27.783 34.115l.14.035a.468.468 0 0 1-.158.262.433.433 0 0 1-.277.09.502.502 0 0 1-.277-.07.437.437 0 0 1-.162-.2.72.72 0 0 1 .007-.568.429.429 0 0 1 .179-.185.52.52 0 0 1 .255-.064c.105 0 .193.027.265.08a.416.416 0 0 1 .15.226l-.137.032a.325.325 0 0 0-.106-.167.283.283 0 0 0-.175-.052.34.34 0 0 0-.203.058.307.307 0 0 0-.114.156.624.624 0 0 0-.033.202c0 .089.013.167.039.234a.293.293 0 0 0 .122.149.34.34 0 0 0 .178.05.299.299 0 0 0 .198-.068.345.345 0 0 0 .11-.2Zm.816.123.133.017a.325.325 0 0 1-.117.181.35.35 0 0 1-.218.065.35.35 0 0 1-.265-.103.404.404 0 0 1-.097-.289.42.42 0 0 1 .099-.298.334.334 0 0 1 .256-.106c.102 0 .185.035.25.104.064.07.096.167.096.293v.034h-.568a.292.292 0 0 0 .071.192.211.211 0 0 0 .159.066.197.197 0 0 0 .121-.037.247.247 0 0 0 .08-.119Zm-.424-.208h.425a.257.257 0 0 0-.049-.144.198.198 0 0 0-.16-.075c-.059 0-.109.02-.15.06a.236.236 0 0 0-.066.159Zm.72.453v-.76h.116v.108a.273.273 0 0 1 .242-.126c.045 0 .087.009.126.025a.196.196 0 0 1 .086.065c.02.027.033.058.04.095a.735.735 0 0 1 .008.126v.467h-.13v-.462a.342.342 0 0 0-.014-.118.122.122 0 0 0-.054-.062.166.166 0 0 0-.09-.024.21.21 0 0 0-.142.052c-.04.035-.06.101-.06.199v.415h-.129Zm1.098-.115.018.114a.475.475 0 0 1-.097.011.22.22 0 0 1-.11-.022.125.125 0 0 1-.054-.058.466.466 0 0 1-.015-.152v-.438h-.095v-.1h.095v-.189l.128-.077v.265h.13v.1h-.13v.446c0 .036.002.06.006.07.005.011.012.02.023.026.01.006.025.009.044.009a.413.413 0 0 0 .057-.005Zm.647-.13.133.017a.326.326 0 0 1-.116.181.35.35 0 0 1-.218.065.35.35 0 0 1-.265-.103.404.404 0 0 1-.098-.289.42.42 0 0 1 .1-.298.335.335 0 0 1 .256-.106c.101 0 .184.035.249.104.064.07.097.167.097.293l-.001.034h-.567a.292.292 0 0 0 .07.192.211.211 0 0 0 .16.066.198.198 0 0 0 .12-.037.248.248 0 0 0 .08-.119Zm-.423-.208h.425a.257.257 0 0 0-.05-.144.197.197 0 0 0-.159-.075c-.06 0-.109.02-.15.06a.236.236 0 0 0-.066.159Zm.718.453v-.76h.116v.115a.318.318 0 0 1 .081-.107.145.145 0 0 1 .083-.026c.044 0 .088.014.133.042l-.044.12a.185.185 0 0 0-.095-.028.121.121 0 0 0-.076.025.135.135 0 0 0-.048.07.5.5 0 0 0-.021.151v.398h-.13Zm.929 0v-.66h-.114v-.1h.114v-.081c0-.052.004-.09.013-.114a.165.165 0 0 1 .065-.081.236.236 0 0 1 .132-.032c.037 0 .077.005.12.013l-.019.113a.43.43 0 0 0-.076-.008c-.039 0-.067.009-.083.026-.016.016-.024.047-.024.093v.07h.148v.1h-.148v.661h-.128Zm.33-.38c0-.141.038-.245.117-.313a.354.354 0 0 1 .239-.085.34.34 0 0 1 .256.104.39.39 0 0 1 .1.283.502.502 0 0 1-.044.232.31.31 0 0 1-.129.13.372.372 0 0 1-.183.047.343.343 0 0 1-.259-.103c-.065-.068-.098-.167-.098-.295Zm.132 0c0 .097.02.17.063.22a.205.205 0 0 0 .16.072.203.203 0 0 0 .16-.074c.043-.048.064-.123.064-.222 0-.094-.021-.166-.064-.214a.202.202 0 0 0-.16-.073.205.205 0 0 0-.16.072c-.042.049-.063.121-.063.219Zm.73.38v-.76h.116v.115a.318.318 0 0 1 .082-.107.145.145 0 0 1 .083-.026c.044 0 .088.014.133.042l-.045.12a.184.184 0 0 0-.094-.028.121.121 0 0 0-.076.025.135.135 0 0 0-.048.07.5.5 0 0 0-.022.151v.398h-.129Zm.939 0v-1.05h.139v1.05h-.14Zm.861 0v-.096a.237.237 0 0 1-.212.114.3.3 0 0 1-.168-.05.334.334 0 0 1-.118-.14.49.49 0 0 1-.042-.207c0-.076.013-.145.038-.207a.299.299 0 0 1 .407-.162c.035.019.064.044.087.075v-.377h.128v1.05h-.12Zm-.407-.38c0 .098.02.17.062.22a.182.182 0 0 0 .289.004c.039-.048.059-.118.059-.213 0-.104-.02-.18-.06-.229a.185.185 0 0 0-.293-.003c-.038.047-.057.12-.057.222Zm1.251.135.134.017a.325.325 0 0 1-.117.181.35.35 0 0 1-.218.065.35.35 0 0 1-.265-.103.404.404 0 0 1-.097-.289.42.42 0 0 1 .098-.298.335.335 0 0 1 .257-.106c.102 0 .185.035.25.104.064.07.096.167.096.293v.034h-.568a.292.292 0 0 0 .07.192.211.211 0 0 0 .16.066.197.197 0 0 0 .12-.037.248.248 0 0 0 .08-.119Zm-.423-.208h.425a.258.258 0 0 0-.049-.144.198.198 0 0 0-.16-.075c-.059 0-.109.02-.15.06a.236.236 0 0 0-.066.159Zm.72.453v-.76h.115v.108a.273.273 0 0 1 .242-.126c.046 0 .088.009.126.025a.196.196 0 0 1 .087.065c.02.027.033.058.04.095a.735.735 0 0 1 .007.126v.467h-.129v-.462a.345.345 0 0 0-.015-.118.122.122 0 0 0-.053-.062.167.167 0 0 0-.09-.024.21.21 0 0 0-.142.052c-.04.035-.06.101-.06.199v.415h-.129Zm1.097-.115.019.114a.473.473 0 0 1-.097.011.22.22 0 0 1-.11-.022.125.125 0 0 1-.054-.058.465.465 0 0 1-.016-.152v-.438h-.094v-.1h.094v-.189l.129-.077v.265h.13v.1h-.13v.446c0 .036.002.06.006.07.005.011.012.02.022.026.01.006.026.009.045.009a.412.412 0 0 0 .056-.005Zm.128-.787v-.148h.129v.148h-.13Zm0 .902v-.76h.129v.76h-.13Zm.607-.115.019.114a.475.475 0 0 1-.097.011.22.22 0 0 1-.11-.022.124.124 0 0 1-.054-.058.465.465 0 0 1-.016-.152v-.438h-.094v-.1h.094v-.189l.129-.077v.265h.13v.1h-.13v.446c0 .036.002.06.006.07.005.011.012.02.022.026.01.006.026.009.045.009a.413.413 0 0 0 .056-.005Zm.121.408-.014-.12a.29.29 0 0 0 .074.01.141.141 0 0 0 .069-.014.116.116 0 0 0 .042-.04.62.62 0 0 0 .05-.127l-.288-.763h.139l.158.441c.02.056.04.115.055.176a1.75 1.75 0 0 1 .053-.173l.163-.444h.129l-.29.774a1.534 1.534 0 0 1-.072.173.251.251 0 0 1-.079.093.185.185 0 0 1-.106.03.259.259 0 0 1-.083-.016Zm1.656-.705v-.123h.445v.39a.79.79 0 0 1-.212.122.632.632 0 0 1-.505-.025.44.44 0 0 1-.19-.192.65.65 0 0 1 0-.566.428.428 0 0 1 .184-.197.578.578 0 0 1 .277-.065c.076 0 .145.013.206.038.061.024.11.058.144.102a.457.457 0 0 1 .08.172l-.125.034a.387.387 0 0 0-.06-.126.238.238 0 0 0-.1-.073.422.422 0 0 0-.31.001.307.307 0 0 0-.111.076.366.366 0 0 0-.066.104.548.548 0 0 0-.04.212c0 .093.016.172.048.235s.08.11.14.14c.062.03.128.046.197.046a.47.47 0 0 0 .176-.035.459.459 0 0 0 .13-.074v-.196h-.308Zm.586.032c0-.141.039-.245.117-.313a.354.354 0 0 1 .24-.085.34.34 0 0 1 .256.104.39.39 0 0 1 .1.283.502.502 0 0 1-.045.232.31.31 0 0 1-.128.13.372.372 0 0 1-.184.047.343.343 0 0 1-.258-.103c-.066-.068-.098-.167-.098-.295Zm.132 0c0 .097.022.17.064.22a.205.205 0 0 0 .16.072.203.203 0 0 0 .16-.074c.043-.048.064-.123.064-.222 0-.094-.021-.166-.064-.214a.202.202 0 0 0-.16-.073.205.205 0 0 0-.16.072c-.042.049-.064.121-.064.219Zm.944.38-.29-.76h.136l.164.455c.017.05.034.1.048.153.012-.04.028-.088.048-.144l.17-.465h.132l-.288.761h-.12Zm1.043-.245.133.017a.325.325 0 0 1-.117.181.351.351 0 0 1-.218.065.35.35 0 0 1-.265-.103.404.404 0 0 1-.097-.289.42.42 0 0 1 .099-.298.335.335 0 0 1 .256-.106c.102 0 .185.035.25.104.064.07.096.167.096.293v.034h-.568a.292.292 0 0 0 .071.192.211.211 0 0 0 .16.066.198.198 0 0 0 .12-.037.248.248 0 0 0 .08-.119Zm-.424-.208h.425a.256.256 0 0 0-.049-.144.198.198 0 0 0-.16-.075c-.059 0-.108.02-.149.06a.236.236 0 0 0-.067.159Zm.718.453v-.76h.116v.115a.318.318 0 0 1 .082-.107.145.145 0 0 1 .083-.026c.043 0 .087.014.132.042l-.044.12a.184.184 0 0 0-.094-.028.122.122 0 0 0-.077.025.136.136 0 0 0-.047.07.503.503 0 0 0-.022.151v.398h-.129Zm.49 0v-.76h.116v.108a.273.273 0 0 1 .242-.126c.046 0 .088.009.126.025a.196.196 0 0 1 .087.065c.02.027.033.058.04.095a.735.735 0 0 1 .007.126v.467h-.129v-.462a.345.345 0 0 0-.015-.118.122.122 0 0 0-.053-.062.167.167 0 0 0-.09-.024.21.21 0 0 0-.143.052c-.04.035-.059.101-.059.199v.415h-.129Zm1.313-.094a.396.396 0 0 1-.28.111c-.084 0-.148-.02-.193-.06a.204.204 0 0 1-.067-.157.209.209 0 0 1 .092-.177.32.32 0 0 1 .093-.042.918.918 0 0 1 .114-.02c.105-.011.181-.026.23-.043l.001-.034c0-.053-.012-.09-.036-.111-.033-.03-.082-.044-.147-.044-.06 0-.106.01-.135.032-.029.021-.05.059-.064.113l-.126-.017a.31.31 0 0 1 .057-.13.244.244 0 0 1 .114-.077.5.5 0 0 1 .172-.028c.065 0 .118.008.159.023.04.015.07.035.09.058a.2.2 0 0 1 .04.088.723.723 0 0 1 .006.119v.171c0 .12.002.196.008.228a.298.298 0 0 0 .033.091h-.135a.272.272 0 0 1-.026-.094Zm-.01-.288a.948.948 0 0 1-.211.05.483.483 0 0 0-.113.025.11.11 0 0 0-.069.103.11.11 0 0 0 .04.086c.026.023.064.035.114.035s.094-.011.132-.033a.202.202 0 0 0 .086-.09.31.31 0 0 0 .02-.128v-.047Zm.33.382v-.76h.116v.108a.273.273 0 0 1 .242-.126c.046 0 .088.009.127.025a.196.196 0 0 1 .086.065.25.25 0 0 1 .04.095.75.75 0 0 1 .008.126v.467h-.13v-.462a.342.342 0 0 0-.014-.118.122.122 0 0 0-.054-.062.166.166 0 0 0-.09-.024.21.21 0 0 0-.142.052c-.04.035-.06.101-.06.199v.415h-.129Zm1.313-.278.127.016a.33.33 0 0 1-.107.206.31.31 0 0 1-.21.074.328.328 0 0 1-.25-.102c-.064-.069-.095-.166-.095-.293a.53.53 0 0 1 .04-.216.283.283 0 0 1 .124-.138.369.369 0 0 1 .182-.047c.083 0 .15.021.203.063.053.042.086.101.101.178l-.125.02a.207.207 0 0 0-.064-.116.163.163 0 0 0-.11-.039.2.2 0 0 0-.158.07c-.04.047-.06.12-.06.221 0 .102.019.177.058.223.039.046.09.07.153.07a.18.18 0 0 0 .127-.047.231.231 0 0 0 .064-.143Zm.758.033.133.017a.325.325 0 0 1-.116.181.35.35 0 0 1-.218.065.35.35 0 0 1-.265-.103.404.404 0 0 1-.097-.289.42.42 0 0 1 .098-.298.334.334 0 0 1 .257-.106c.102 0 .185.035.25.104.064.07.096.167.096.293v.034h-.568a.292.292 0 0 0 .07.192.211.211 0 0 0 .16.066.197.197 0 0 0 .12-.037.247.247 0 0 0 .08-.119Zm-.423-.208h.425a.257.257 0 0 0-.049-.144.198.198 0 0 0-.16-.075c-.059 0-.109.02-.15.06a.236.236 0 0 0-.066.159Z"/></svg>