<svg xmlns="http://www.w3.org/2000/svg" fill="none" viewBox="0 0 97 28"><path fill="#2B354E" d="M9.103 15.458c-.7-.703-.7-1.845 0-2.547a1.791 1.791 0 0 1 2.537 0 1.8 1.8 0 0 1 .453 1.79.107.107 0 0 0 .027.11l.878.88c.041.042.11.042.151 0l.028-.027a3.192 3.192 0 0 0-1.317-4.31 3.168 3.168 0 0 0-4.293 1.323 3.192 3.192 0 0 0 1.317 4.309 3.165 3.165 0 0 0 2.976 0c.055-.028.068-.096.04-.152 0-.013-.013-.013-.027-.027l-.891-.881c-.027-.028-.069-.042-.11-.028-.617.207-1.303.028-1.769-.44ZM9.117 19.725a1.792 1.792 0 0 1 2.537 0c.7.703.7 1.845 0 2.547a1.785 1.785 0 0 1-1.783.455.106.106 0 0 0-.11.027l-.878.881c-.04.042-.04.11 0 .166.014.014.014.014.028.014 1.55.825 3.47.233 4.293-1.322a3.192 3.192 0 0 0-1.317-4.31 3.168 3.168 0 0 0-4.293 1.322 3.198 3.198 0 0 0 0 2.988c.028.055.096.069.151.041.014 0 .014-.014.027-.027l.878-.882c.028-.027.041-.069.028-.11a1.765 1.765 0 0 1 .439-1.79ZM17.209 22.796a1.795 1.795 0 0 1-1.797-1.79c0-.991.795-1.803 1.783-1.803.658 0 1.275.358 1.577.95.014.04.055.055.096.055h1.248c.069 0 .11-.055.11-.11v-.028a3.162 3.162 0 0 0-3.964-2.107 3.184 3.184 0 0 0-2.098 3.98 3.162 3.162 0 0 0 3.964 2.106 3.187 3.187 0 0 0 2.098-2.107c.014-.055-.014-.124-.082-.137h-1.276a.116.116 0 0 0-.096.055 1.757 1.757 0 0 1-1.563.936ZM15.412 14.191c0-.991.795-1.804 1.783-1.804.987 0 1.797.799 1.797 1.79 0 .661-.357 1.267-.947 1.584-.04.013-.055.055-.055.096v1.253c0 .055.055.11.11.11h.027a3.178 3.178 0 0 0 2.099-3.979 3.162 3.162 0 0 0-3.964-2.107 3.184 3.184 0 0 0-2.098 3.98 3.187 3.187 0 0 0 2.098 2.106c.055.014.124-.014.137-.083V15.857a.116.116 0 0 0-.055-.096 1.792 1.792 0 0 1-.932-1.57ZM12.162 7.376a1.798 1.798 0 1 1-3.594 0c0-.661.357-1.267.946-1.583.042-.014.055-.056.055-.097V4.443a.108.108 0 0 0-.11-.11h-.027a3.178 3.178 0 0 0-2.098 3.979 3.162 3.162 0 0 0 3.963 2.107 3.184 3.184 0 0 0 2.099-3.98 3.187 3.187 0 0 0-2.099-2.106c-.054-.014-.123.014-.137.083V5.696c0 .041.028.083.055.097.59.316.947.922.947 1.583ZM25.301 19.726c.7.702.7 1.845 0 2.547-.7.702-1.838.702-2.537 0a1.801 1.801 0 0 1-.453-1.79.107.107 0 0 0-.027-.11l-.878-.895c-.041-.041-.11-.041-.165 0-.014.014-.014.014-.014.028a3.192 3.192 0 0 0 1.317 4.309c1.55.826 3.47.234 4.293-1.322a3.192 3.192 0 0 0-1.317-4.31 3.164 3.164 0 0 0-2.976 0c-.055.028-.068.097-.04.152 0 .014.013.014.026.028l.878.881c.028.027.069.041.11.027a1.815 1.815 0 0 1 1.783.455ZM25.301 15.458c-.7.702-1.838.702-2.537 0-.7-.702-.7-1.845 0-2.547a1.785 1.785 0 0 1 1.783-.455c.041.014.082 0 .11-.027l.877-.881a.126.126 0 0 0 0-.165s-.013-.014-.027-.014a3.168 3.168 0 0 0-4.293 1.322A3.192 3.192 0 0 0 22.531 17c1.55.826 3.47.234 4.293-1.322a3.198 3.198 0 0 0 0-2.988c-.028-.055-.096-.082-.151-.04-.014 0-.014.013-.028.013l-.877.881c-.028.028-.042.069-.028.11a1.812 1.812 0 0 1-.439 1.804ZM24.066 9.18a1.795 1.795 0 0 1-1.797-1.79c0-.992.796-1.804 1.783-1.804a1.78 1.78 0 0 1 1.578.95c.013.041.054.055.096.055h1.248c.068 0 .11-.055.11-.11v-.027a3.162 3.162 0 0 0-3.964-2.107 3.178 3.178 0 0 0-2.099 3.979 3.162 3.162 0 0 0 3.964 2.106 3.187 3.187 0 0 0 2.098-2.106c.014-.055-.013-.124-.082-.138H25.74a.115.115 0 0 0-.096.055 1.85 1.85 0 0 1-1.577.937ZM15.947 6.11a1.791 1.791 0 0 1 2.538 0c.699.701.699 1.844 0 2.546a1.785 1.785 0 0 1-1.784.455.106.106 0 0 0-.11.027l-.877.881a.108.108 0 0 0 0 .152l.027.027c1.55.826 3.47.234 4.293-1.321a3.192 3.192 0 0 0-1.316-4.31 3.167 3.167 0 0 0-4.293 1.322 3.198 3.198 0 0 0 0 2.988c.027.055.096.069.15.041.014 0 .014-.014.028-.014l.878-.88a.107.107 0 0 0 .027-.111 1.782 1.782 0 0 1 .44-1.804ZM33.763 7.94c0-.192.165-.344.357-.357h1.742a.384.384 0 0 1 .356.357v12.447a.364.364 0 0 1-.356.358H34.12a.384.384 0 0 1-.357-.358V7.94ZM39.14 18.914l.672-1.17a.427.427 0 0 1 .59-.152c.013.014.027.014.04.028.097.055 1.62 1.17 2.826 1.17.974 0 1.7-.633 1.7-1.446 0-.963-.808-1.624-2.386-2.258-1.742-.716-3.51-1.845-3.51-4.061 0-1.68 1.234-3.607 4.21-3.607a6.552 6.552 0 0 1 3.744 1.266.458.458 0 0 1 .11.62l-.713 1.074c-.151.22-.425.371-.659.22-.15-.096-1.577-1.033-2.606-1.033-1.07 0-1.645.716-1.645 1.322 0 .881.699 1.487 2.221 2.107 1.81.73 3.923 1.817 3.923 4.254 0 1.941-1.673 3.731-4.307 3.731-2.359 0-3.744-1.115-4.128-1.473-.15-.207-.247-.29-.082-.592ZM48.535 20.263 54.364 7.61a.347.347 0 0 1 .315-.207h.192c.137-.013.26.07.316.207l5.774 12.653c.082.165.027.371-.137.454a.421.421 0 0 1-.179.041h-1.632a.548.548 0 0 1-.548-.371l-.92-2.024H51.95l-.919 2.024a.548.548 0 0 1-.549.371H48.85a.335.335 0 0 1-.356-.303c0-.068.013-.137.04-.192Zm8.106-4.007-1.88-4.144h-.054l-1.838 4.144h3.772ZM68.463 7.404a6.379 6.379 0 0 1 4.54 1.748c.15.124.178.344.054.496-.013.013-.027.027-.027.041l-1.138 1.184a.316.316 0 0 1-.425.055c-.014-.014-.042-.027-.055-.055a4.458 4.458 0 0 0-2.88-1.115c-2.4 0-4.184 2.024-4.184 4.378s1.797 4.35 4.197 4.35a4.455 4.455 0 0 0 2.867-1.073.339.339 0 0 1 .466 0l1.166 1.211a.367.367 0 0 1-.014.51 6.393 6.393 0 0 1-4.553 1.817c-3.731.069-6.803-2.919-6.858-6.65-.069-3.745 2.907-6.829 6.624-6.884.069-.013.138-.013.22-.013ZM74.045 20.263l5.83-12.653a.346.346 0 0 1 .314-.207h.193c.137-.013.26.07.315.207l5.774 12.653a.341.341 0 0 1-.137.454.437.437 0 0 1-.192.041H84.51a.52.52 0 0 1-.535-.371l-.919-2.024h-5.61l-.918 2.024a.548.548 0 0 1-.55.371h-1.631a.335.335 0 0 1-.357-.303.792.792 0 0 1 .055-.192Zm8.092-4.007-1.879-4.144h-.055l-1.838 4.144h3.772ZM88.378 18.666c.617 0 1.111.495 1.111 1.115s-.494 1.115-1.11 1.115c-.618 0-1.112-.496-1.112-1.115.014-.62.508-1.115 1.111-1.115Zm0 2.037a.92.92 0 0 0 .92-.922.92.92 0 0 0-.92-.923.92.92 0 0 0-.919.923c0 .51.412.922.92.922Zm-.384-1.432c0-.027.028-.055.055-.055h.439a.362.362 0 0 1 .384.317v.027a.329.329 0 0 1-.247.345c.069.123.124.247.192.358.014.027 0 .068-.027.082h-.138c-.027 0-.04-.027-.054-.041l-.179-.386h-.233v.372c0 .028-.027.055-.055.055h-.082c-.027 0-.055-.027-.055-.055v-1.019Zm.494.468c.096 0 .178-.068.178-.165v-.014c0-.096-.068-.178-.164-.178h-.33v.357h.316Z"/></svg>