<svg xmlns="http://www.w3.org/2000/svg" fill="none" viewBox="0 0 59 28"><path fill="#2B354E" d="M52.993 10.489H49.62v-.059c.587-.704 1.398-1.671 1.858-2.444.244-.42.371-.694.371-1.134 0-.44-.39-.997-.919-.997-.381 0-.772.167-1.192.714v-.958c.42-.342.82-.499 1.25-.499.959 0 1.624.675 1.624 1.652 0 .978-.47 1.594-1.652 3.002h2.033v.723Zm1.837-3.754v-.498h.43c.177 0 .304.097.304.244s-.137.254-.342.254h-.391Zm-.263.939h.264V6.96h.156c.215 0 .293.078.499.45l.146.264h.333l-.206-.333c-.136-.215-.244-.362-.38-.41a.47.47 0 0 0 .468-.48c0-.175-.136-.43-.547-.43h-.733v1.653Zm1.965-.86a1.29 1.29 0 1 1-2.582.019 1.29 1.29 0 0 1 2.582-.02Zm.254 0a1.545 1.545 0 1 0-1.545 1.544 1.535 1.535 0 0 0 1.545-1.545Zm-44.42-1.458H9.95v16.828h2.415V5.356Zm11.955 3.696c-1.437-1.35-2.815-1.75-3.949-1.75-1.554 0-2.669.82-2.669 2.004 0 3.226 7.283 3.177 7.283 8.534 0 2.64-2.004 4.565-4.712 4.565-1.828 0-3.304-.489-4.711-1.555v-3.06c1.231 1.575 2.786 2.445 4.438 2.445 1.877 0 2.737-1.193 2.737-2.131 0-3.47-7.273-3.871-7.273-8.476 0-2.747 2.014-4.496 5.103-4.496 1.28 0 2.57.4 3.753 1.182v2.738Zm17.147.058c-2.072-1.212-3.852-1.76-5.797-1.76-3.851 0-6.716 2.748-6.716 6.443 0 3.695 2.767 6.393 6.814 6.393 1.896 0 3.969-.665 5.865-1.897v2.64c-1.652.86-3.45 1.476-6.09 1.476-6.315 0-9.081-4.859-9.081-8.388 0-5.132 3.87-8.885 9.228-8.885 1.73 0 3.48.42 5.777 1.378v2.6Z"/><path fill="#2B354E" d="M1.476 14.213c0 4.878 2.922 9.287 7.605 12.386a14.78 14.78 0 0 1 1.232-.773c-3.53-3.04-5.68-7.116-5.68-11.613 0-4.868 2.532-9.257 6.599-12.356-.42-.205-.812-.41-1.183-.626-5.25 3.119-8.573 7.782-8.573 12.982ZM40.089 1.241c-.372.216-.772.42-1.183.626 4.057 3.099 6.579 7.478 6.579 12.347 0 4.486-2.15 8.573-5.66 11.603.44.244.84.508 1.232.772 4.662-3.099 7.585-7.497 7.585-12.375 0-5.201-3.323-9.854-8.553-12.973Z"/></svg>