<svg xmlns="http://www.w3.org/2000/svg" fill="none" viewBox="0 0 131 40"><path fill="#2B354E" d="M14.859 8.762c-1.93.388-3.495 1.41-4.537 2.977-.647.965-1.069 2.103-1.328 3.527-.211 1.206-.158 2.89.158 4.511.496 2.559 1.892 5.291 3.863 7.571 1.396 1.61 3.804 3.207 5.82 3.859 2.028.66 4.304.618 6.325-.102 1.238-.44 2.93-1.432 4.052-2.359.605-.501 1.87-1.79 1.926-1.967.015-.049.128-.203.244-.354 1.422-1.764 2.566-4.123 3.048-6.275.353-1.575.523-3.222.402-3.832-.041-.185-.124-.66-.184-1.052-.512-3.323-2.382-5.577-5.327-6.395-.456-.12-.708-.143-1.885-.143-1.257-.007-1.415.008-2.088.177a12.64 12.64 0 0 0-3.258 1.35l-.237.143-.783-.407c-.993-.528-1.674-.796-2.645-1.052-.7-.177-.902-.203-2.005-.222-.67-.015-1.37.011-1.561.045Zm2.75 2.34c.53.11 1.162.324 1.81.603l.387.177-.726.754c-.402.415-.775.833-.835.93-.06.099-.312.45-.565.788a16.566 16.566 0 0 0-2.17 4.003c-.124.331-.252.644-.286.685-.087.121-.237.671-.444 1.62-.17.822-.184 1-.184 2.578-.008 1.338.018 1.783.101 2.118.06.238.094.426.068.426-.06-.007-.85-.983-1.23-1.534-1.735-2.49-2.634-5.747-2.292-8.324.124-.916.512-2.137.877-2.74.482-.821 1.482-1.643 2.366-1.952.836-.301 2.04-.347 3.123-.132Zm11.226.034c2.638.705 4.052 3.595 3.57 7.266-.266 2.027-.966 3.866-2.14 5.645-.429.644-1.298 1.748-1.34 1.71-.014-.014.02-.29.076-.625.23-1.417.192-2.935-.128-4.537-.162-.806-.482-1.933-.572-2.001a5.735 5.735 0 0 1-.27-.61c-.129-.32-.347-.815-.497-1.105-.271-.55-.444-.686-.708-.584-.082.027-1.196.705-2.483 1.508-1.286.799-2.46 1.518-2.618 1.594-.15.075-.312.188-.361.245-.143.17-.05.602.192.934.116.162.312.449.444.637.225.332.353.433.538.433.075 0 1.632-.964 2.844-1.77.312-.204.605-.4.654-.423.102-.06.305.57.538 1.68.512 2.47.11 4.945-1.053 6.479a4.475 4.475 0 0 1-1.652 1.323c-.726.346-1.362.46-2.264.422-1.306-.068-2.115-.422-3.033-1.338-.481-.483-.64-.697-.865-1.16-.933-1.942-1.054-3.852-.422-6.419.986-4.028 4.21-7.781 7.788-9.063a10.894 10.894 0 0 1 1.802-.414c.437-.05 1.453.038 1.96.173Zm17.547 2.273c-.726.075-1.354.184-1.531.263-.11.05-.478.196-.801.332-.945.373-1.558.795-2.393 1.628-.625.63-.801.855-1.068 1.364-.621 1.202-.85 2.314-.783 3.765.06 1.24.361 2.28.96 3.275.304.508 1.17 1.405 1.749 1.805.7.49 1.783.99 2.468 1.145.666.151 2.14.143 2.855-.015.967-.21 2.239-.897 2.92-1.567l.32-.32v.67c0 .543.026.705.135.882l.135.222h.933c.516 0 .975-.026 1.012-.053.219-.143.23-.358.23-3.06 0-2.374-.015-2.728-.11-2.815-.086-.094-.436-.109-2.746-.109h-2.644l-.136.177c-.124.155-.143.28-.143.95 0 .753.008.772.184.942.185.162.226.17 1.054.17.482 0 .869.026.869.06 0 .128-.655.63-1.114.863-.647.313-1.456.46-2.238.407-1.802-.12-3.096-1.172-3.563-2.898-.083-.305-.117-.686-.117-1.281 0-.747.027-.916.192-1.391.437-1.262 1.28-2.13 2.46-2.551.558-.196 1.66-.245 2.34-.102 1.062.222 2.014.89 2.51 1.756.301.524.38.558.9.38.925-.32 1.858-.719 1.918-.82.09-.136-.128-.66-.538-1.297-.68-1.044-1.55-1.745-2.78-2.22a12.88 12.88 0 0 1-.658-.271c-.305-.158-2.134-.347-2.78-.286Zm18.815.305-.177.136v6.342c0 5.724.015 6.357.11 6.504l.108.17 3.006-.008c3.1 0 3.202-.007 4.225-.286 2.137-.57 3.503-1.647 4.32-3.392.47-1.002.571-1.534.579-2.966 0-1.484-.102-1.982-.64-3.086-.843-1.715-2.28-2.774-4.496-3.305-.967-.222-1.362-.252-4.157-.252-2.626.003-2.701.007-2.878.143Zm6.44 2.668c.934.256 1.607.754 2.183 1.594.177.264.387.663.455.897.177.557.23 1.405.136 2.016-.076.501-.301 1.228-.395 1.296-.034.02-.177.219-.32.434-.516.765-1.197 1.24-2.122 1.473-.448.117-.756.136-2.114.136h-1.584v-3.953c0-2.178.018-3.984.052-4.01.027-.034.783-.041 1.682-.019 1.212.012 1.734.053 2.028.136ZM96.24 13.62c-.26.101-.264.196-.271 2.592v2.333l-.339-.32c-1.113-1.044-3.183-1.127-4.725-.189-.226.136-.59.434-.824.663-1.43 1.417-1.787 3.893-.843 5.826.798 1.644 2.585 2.714 4.327 2.593.903-.06 1.422-.298 2.122-.957l.286-.271v.32c0 .185.049.392.109.49.109.17.117.17 1.219.17.918 0 1.128-.02 1.219-.11.094-.094.109-.772.109-6.497 0-6.334 0-6.39-.136-6.538-.135-.143-.195-.15-1.143-.143-.56-.004-1.058.019-1.11.038Zm-1.565 6.444c.414.188.936.72 1.151 1.172.15.32.177.467.177 1.017 0 .596-.019.686-.226 1.1-.387.788-1.068 1.206-1.953 1.206-1.346 0-2.283-1.059-2.197-2.476a2.298 2.298 0 0 1 .749-1.601c.504-.49.843-.61 1.55-.577.26.015.572.076.749.159Zm12.208-6.324-.169.162v2.314c0 1.27-.015 2.306-.034 2.306-.015 0-.162-.135-.335-.297-.312-.306-.824-.577-1.339-.728-.448-.128-1.644-.116-2.164.027-.917.252-1.851.863-2.366 1.567-.169.223-.327.426-.361.449-.087.06-.279.475-.444.983-.245.739-.335 1.58-.252 2.288.083.61.353 1.545.545 1.839.565.84 1.197 1.458 1.964 1.9.655.372 1.11.515 1.829.568 1.034.076 1.821-.21 2.577-.934.158-.151.301-.264.327-.264.026 0 .049.12.049.279 0 .278.094.527.23.618.101.067 2.163.067 2.264 0 .211-.136.226-.468.226-6.599 0-6.553.008-6.478-.305-6.598-.06-.02-.556-.042-1.094-.042-.956-.004-.994 0-1.148.162Zm-1.516 6.316c.429.219.85.63 1.046 1.025.109.219.229.415.267.441.041.026.068.332.068.678 0 .562-.019.671-.196 1.025-.444.867-1.012 1.274-1.877 1.323-.937.05-1.644-.358-2.054-1.194-.204-.415-.226-.502-.226-1.1.007-.562.026-.694.192-1.018.195-.392.286-.51.673-.875.5-.46 1.509-.61 2.107-.305Zm15.335-4.47c-.027.02-.049.253-.049.51 0 .365.019.46.101.46.076 0 .102-.076.102-.291v-.286l.135.218c.076.12.158.223.192.223s.109-.102.169-.223l.11-.218v.286c.007.245.026.29.143.29.127 0 .142-.034.124-.494-.019-.433-.034-.49-.158-.49-.083 0-.185.095-.279.264l-.15.257-.075-.238c-.049-.128-.128-.256-.185-.279-.124-.041-.124-.041-.18.012ZM58.32 17.468c-1.754.347-3.15 1.508-3.68 3.06-.101.298-.21.577-.244.626-.17.218-.177 2.061 0 2.28.034.049.101.203.15.354.162.527.572 1.202 1.012 1.677.422.456 1.347 1.138 1.539 1.138.049 0 .124.041.162.094.041.05.312.162.605.253.693.21 1.904.222 2.668.034.598-.151 1.576-.671 2.103-1.112 1.584-1.342 2.07-3.535 1.238-5.577-.422-1.033-1.306-1.941-2.367-2.424-.899-.418-2.26-.588-3.186-.403ZM60 20.057c.136.048.335.154.437.244.903.754 1.076 1.067 1.08 1.952 0 .516-.027.63-.219 1.018-.304.625-.903 1.058-1.651 1.213-.933.188-1.919-.313-2.39-1.229-.229-.448-.259-1.307-.052-1.85.162-.433.734-1.078 1.155-1.289.448-.237 1.076-.256 1.64-.06Zm22.054-2.646c-.7.143-.925.203-1.328.365-1.189.49-2.039 1.398-2.456 2.63-.264.766-.362 1.418-.313 2.152.05.78.185 1.29.523 1.968.448.915 1.287 1.763 2.028 2.042.158.06.286.136.286.17 0 .177 1.407.433 2.07.38.883-.075 1.388-.305 2.068-.957l.286-.271v.32c0 .185.05.392.11.49.109.17.116.17 1.252.17 1.012 0 1.151-.016 1.246-.121.101-.117.116-.524.116-4.503 0-4.153-.007-4.383-.124-4.485-.11-.094-.3-.117-1.211-.117-1.313 0-1.389.027-1.389.558v.347l-.334-.313c-.414-.388-.91-.637-1.498-.765-.417-.094-1.023-.12-1.332-.06Zm1.765 2.626c.17.05.421.23.722.524.414.4.478.494.613.942.37 1.195-.101 2.36-1.15 2.85-.546.252-1.306.244-1.86-.016a2.257 2.257 0 0 1-1.034-1.059c-.117-.256-.143-.44-.143-1.025 0-.625.019-.754.17-1.044.263-.527.865-1.078 1.29-1.194.553-.136.854-.136 1.392.022Zm26.354-2.329c-.226.129-.203.373.135 1.474 1.851 5.969 2.292 7.34 2.401 7.495.128.189.143.189.85.189.545 0 .707.018.681.083-.015.049-.083.256-.136.467-.229.795-.598 1.1-1.339 1.104-.414 0-.53-.026-.952-.253-.557-.29-.801-.312-1-.101-.301.324-.836 1.228-.836 1.41 0 .252.267.493.843.78 1.189.583 2.972.576 4.067-.016.482-.264 1.087-.897 1.366-1.432.267-.509.346-.761.688-1.982.128-.467.523-1.839.877-3.052 1.012-3.452 1.681-5.8 1.681-5.92a.365.365 0 0 0-.109-.212c-.086-.086-.301-.109-1.256-.109-1.027 0-1.163.015-1.272.12-.135.136-.211.381-.831 2.763-.659 2.536-1.054 3.968-1.088 3.968-.026 0-.549-1.798-1.474-5.087-.128-.468-.264-.882-.294-.916a2.01 2.01 0 0 1-.143-.358c-.135-.467-.195-.49-1.557-.49-.655.008-1.242.041-1.302.075Z"/></svg>