<svg xmlns="http://www.w3.org/2000/svg" fill="none" viewBox="0 0 73 44"><path fill="#2B354E" d="M25.15 38.884h-2.88V27.469h2.88v11.415ZM48.377 30.74c-.119-.061-1.046-.61-2.424-.61-1.862 0-3.154 1.295-3.154 3.044 0 1.697 1.237 3.048 3.154 3.048 1.354 0 2.297-.538 2.424-.606v3.064c-.361.1-1.346.406-2.625.406-3.24 0-6.084-2.234-6.084-5.912 0-3.408 2.573-5.908 6.084-5.908 1.35 0 2.352.328 2.625.41v3.063Zm-30.067 0c-.116-.061-1.042-.61-2.42-.61-1.866 0-3.157 1.295-3.157 3.044 0 1.697 1.237 3.048 3.157 3.048 1.354 0 2.296-.538 2.42-.606v3.064c-.358.1-1.341.406-2.628.406-3.237 0-6.078-2.234-6.078-5.912 0-3.408 2.574-5.908 6.079-5.908 1.356 0 2.356.328 2.627.41v3.063Zm39.128-.567c-1.709 0-2.978 1.345-2.978 3.001 0 1.661 1.27 3.005 2.978 3.005 1.707 0 2.98-1.344 2.98-3.005 0-1.657-1.273-3.001-2.98-3.001Zm6.032 3.001c0 3.266-2.52 5.912-6.03 5.912-3.513 0-6.03-2.646-6.03-5.912 0-3.26 2.518-5.908 6.028-5.908 3.511 0 6.032 2.648 6.032 5.908Zm-27.396-3.11c-.043-.015-1.256-.35-2.252-.35-1.154 0-1.782.387-1.782.936 0 .695.847.938 1.32 1.087l.795.253c1.87.595 2.722 1.875 2.722 3.266 0 2.867-2.522 3.83-4.727 3.83-1.531 0-2.967-.282-3.108-.311v-2.628c.253.064 1.461.425 2.72.425 1.433 0 2.092-.42 2.092-1.065 0-.579-.57-.913-1.285-1.137-.173-.059-.436-.14-.615-.2-1.604-.507-2.941-1.45-2.941-3.339 0-2.135 1.598-3.568 4.253-3.568 1.403 0 2.722.34 2.808.363v2.437ZM6.55 15.2c0-.786-.642-1.424-1.43-1.424A1.43 1.43 0 0 0 3.69 15.2v2.997a1.43 1.43 0 0 0 2.86 0v-2.996Zm7.855-3.932a1.43 1.43 0 0 0-2.86 0v6.929a1.43 1.43 0 0 0 2.86 0v-6.93.001Zm7.856-5.381a1.43 1.43 0 0 0-2.86 0v15.158a1.43 1.43 0 0 0 2.86 0V5.887Zm7.855 5.381a1.43 1.43 0 0 0-2.86 0v6.929a1.43 1.43 0 1 0 2.86 0v-6.93.001Zm7.847 3.933a1.423 1.423 0 0 0-2.43-1.008c-.269.266-.42.629-.422 1.007v2.997a1.426 1.426 0 0 0 2.852 0v-2.996Zm7.858-3.933a1.426 1.426 0 0 0-2.85 0v6.929a1.426 1.426 0 0 0 2.85 0v-6.93.001Zm7.86-5.381a1.426 1.426 0 1 0-2.85 0v15.158a1.427 1.427 0 1 0 2.85 0V5.887Zm7.86 5.381a1.43 1.43 0 0 0-1.444-1.427 1.426 1.426 0 0 0-1.425 1.426v6.93c0 .791.639 1.429 1.425 1.429a1.43 1.43 0 0 0 1.444-1.429v-6.93.001Zm7.844 3.933a1.427 1.427 0 0 0-2.854 0v2.996a1.428 1.428 0 1 0 2.853 0v-2.996ZM67.736 37.38v.178h-.509v1.324h-.21V37.56h-.51v-.18h1.23Zm.107 0h.328l.45 1.232h.007l.435-1.232h.321v1.502h-.214v-1.231h-.008l-.456 1.231h-.198l-.445-1.231h-.01v1.231h-.21V37.38Z"/></svg>