<svg xmlns="http://www.w3.org/2000/svg" fill="none" viewBox="0 0 120 40"><path fill="#2B354E" d="M50.704 20.604c0 4.442-3.6 7.715-8.017 7.715s-8.016-3.273-8.016-7.715c0-4.473 3.6-7.715 8.016-7.715 4.418 0 8.017 3.242 8.017 7.715Zm-3.51 0c0-2.776-2.085-4.675-4.507-4.675-2.42 0-4.507 1.9-4.507 4.675 0 2.748 2.086 4.675 4.507 4.675 2.422 0 4.508-1.93 4.508-4.675ZM67.998 20.604c0 4.442-3.599 7.715-8.016 7.715s-8.017-3.273-8.017-7.715c0-4.47 3.6-7.715 8.017-7.715s8.016 3.242 8.016 7.715Zm-3.509 0c0-2.776-2.086-4.675-4.507-4.675s-4.507 1.9-4.507 4.675c0 2.748 2.086 4.675 4.507 4.675s4.507-1.93 4.507-4.675ZM84.572 13.355v13.85c0 5.698-3.48 8.025-7.595 8.025a7.605 7.605 0 0 1-7.084-4.546l3.056-1.228c.544 1.256 1.877 2.738 4.024 2.738 2.634 0 4.266-1.57 4.266-4.522v-1.11h-.123c-.785.936-2.298 1.753-4.208 1.753-3.996 0-7.656-3.36-7.656-7.683 0-4.355 3.66-7.743 7.656-7.743 1.906 0 3.42.818 4.208 1.726h.123v-1.256h3.333v-.004Zm-3.085 7.277c0-2.717-1.877-4.703-4.265-4.703-2.421 0-4.45 1.986-4.45 4.703 0 2.689 2.028 4.647 4.45 4.647 2.388 0 4.266-1.958 4.266-4.647ZM90.066 5.237v22.609h-3.422V5.237h3.422ZM103.405 23.143l2.723 1.753c-.879 1.256-2.997 3.42-6.658 3.42-4.54 0-7.93-3.389-7.93-7.715 0-4.588 3.42-7.715 7.537-7.715 4.147 0 6.176 3.186 6.839 4.908l.364.876-10.683 4.271c.818 1.548 2.09 2.338 3.873 2.338 1.787 0 3.027-.849 3.935-2.136Zm-8.385-2.776 7.142-2.862c-.393-.964-1.575-1.635-2.966-1.635-1.783 0-4.266 1.52-4.175 4.498ZM21.715 18.597v-3.273H33.14c.112.57.17 1.245.17 1.976 0 2.455-.696 5.492-2.937 7.655-2.18 2.192-4.965 3.36-8.654 3.36-6.839 0-12.59-5.377-12.59-11.979 0-6.602 5.751-11.979 12.59-11.979 3.783 0 6.478 1.433 8.502 3.3l-2.392 2.31C26.377 8.653 24.41 7.63 21.715 7.63c-4.994 0-8.9 3.885-8.9 8.706s3.906 8.706 8.9 8.706c3.239 0 5.084-1.255 6.265-2.396.959-.925 1.59-2.247 1.838-4.052l-8.103.003Z"/></svg>