<svg xmlns="http://www.w3.org/2000/svg" fill="none" viewBox="0 0 92 26"><path fill="#2B354E" d="M79.764 17.407V10.07l4.646 3.423-4.646 3.913ZM18.435 20.83c-.042-.051-.073-2.303-.073-5.011.02-5.21 0-5.023.54-5.708.145-.186.249-.404.228-.467-.062-.155.322-.518.457-.435.051.03.28-.104.498-.312.394-.352.778-.529.944-.425.041.02.53-.01 1.069-.083.664-.083 1.027-.094 1.12-.02.073.051.291.072.488.04.197-.03.363-.02.363.032 0 .052.125.135.29.166.156.041.333.135.385.207.062.073.3.229.55.353.238.125.436.29.436.363 0 .073.114.239.249.384.31.301.684 1.578.684 2.314 0 .29.052.581.125.654.083.083.083.156-.02.28-.094.104-.115.322-.073.675.03.28.02.54-.032.57-.051.031-.072.115-.041.187.031.083-.02.28-.114.446-.083.166-.156.364-.156.447 0 .072-.114.27-.26.435-.134.166-.227.374-.196.457.041.093 0 .156-.094.156-.083 0-.27.135-.404.29-.135.166-.52.405-.862.54-.342.135-.674.29-.747.342-.073.052-.218.063-.342.021-.114-.031-.208-.02-.208.031 0 .135-.706.083-.85-.062a.49.49 0 0 0-.312-.125c-.104 0-.467-.114-.81-.26-.342-.144-.632-.259-.663-.259-.032 0-.063.748-.084 1.65-.03 1.609-.041 1.671-.29 1.9-.197.186-.394.248-.986.27-.394.02-.768 0-.81-.042Zm4.597-5.136c0-.062.093-.083.207-.041.125.041.208.02.208-.052 0-.166.436-.623.591-.623.073 0 .177-.187.239-.415.124-.477.114-2.573-.02-2.656-.042-.031-.063-.156-.032-.28.083-.302-.498-1.007-.83-1.007-.125 0-.311-.093-.415-.208-.104-.114-.29-.207-.405-.207-.124 0-.405.093-.633.207-.228.114-.467.208-.53.208-.072 0-.28.27-.466.591-.301.52-.353.716-.384 1.526-.052.923.114 2.034.3 2.034.053 0 .094.072.094.155 0 .094.114.208.25.25.134.051.27.176.3.259a.644.644 0 0 0 .301.27c.332.134 1.225.124 1.225-.01Zm-10.678 2.044c-.062-.072-.394-.166-.747-.197-.343-.041-.706-.114-.82-.176a1.23 1.23 0 0 0-.457-.104c-.145 0-.332-.104-.446-.239-.104-.134-.249-.228-.321-.197-.073.021-.125-.052-.125-.166 0-.145-.083-.228-.228-.249-.156-.02-.229-.093-.229-.218.01-.093-.051-.176-.134-.176-.083 0-.135-.083-.115-.187.01-.104-.041-.3-.134-.446-.218-.343-.416-1.142-.333-1.422.052-.218.104-.228 1.173-.228h1.131l-.01.311a.892.892 0 0 0 .197.55c.114.125.239.312.28.415.031.114.156.218.27.25.114.03.207.093.207.134 0 .218 1.07.436 1.9.394.746-.03.923-.083 1.39-.373.394-.25.519-.384.477-.53-.031-.103 0-.228.062-.259.218-.135.125-.653-.145-.83-.145-.093-.26-.239-.26-.311 0-.208-.466-.477-.83-.477-.165 0-.31-.042-.31-.083 0-.042-.167-.083-.374-.094-.197-.01-.447-.083-.55-.176-.177-.156-1.329-.457-2.138-.56-.436-.053-.85-.27-1.069-.561-.072-.104-.218-.187-.321-.187-.208 0-.498-.28-.395-.384.042-.03 0-.187-.072-.332-.083-.145-.177-.342-.218-.425a3.81 3.81 0 0 0-.208-.415c-.55-.955.426-3.02 1.764-3.726.229-.124.467-.217.54-.217.072 0 .135-.042.135-.104 0-.052.145-.104.311-.104.177 0 .311-.031.311-.073 0-.103 2.18-.062 2.875.052.29.052.612.166.705.27.104.104.26.145.364.114.134-.041.228.01.31.156.063.114.198.207.302.207.207 0 .498.28.384.384-.031.031.02.125.124.198.218.155.675 1.577.623 1.93-.031.218-.083.238-.861.27-1.028.04-1.266-.021-1.36-.322a1.171 1.171 0 0 0-.228-.415c-.083-.094-.125-.208-.093-.25.114-.114-.146-.331-.312-.27-.093.042-.218-.01-.28-.093-.062-.083-.29-.186-.498-.228-.218-.041-.394-.114-.394-.166 0-.062-.208-.104-.467-.104-.26 0-.467.042-.467.094 0 .124-.426.27-.903.311a.157.157 0 0 0-.135.156c0 .083-.093.176-.197.218-.239.072-.353.456-.197.643.083.104.083.176 0 .26-.177.176-.156.238.135.373.145.062.26.187.26.27 0 .093.072.124.207.093.124-.031.228.01.27.114.03.094.155.166.28.166a.62.62 0 0 1 .373.146c.166.145 1.806.58 2.19.58.114 0 .384.094.601.208.218.114.644.27.934.332.301.073.54.187.54.25 0 .072.135.238.311.383.53.457.727.965.779 2.076.02.591 0 1.027-.063 1.068-.052.032-.072.146-.041.25.041.134-.01.238-.145.332-.125.072-.218.217-.218.31 0 .105-.042.188-.104.188-.052 0-.125.114-.166.259-.031.145-.125.26-.208.26-.083 0-.145.072-.145.166 0 .093-.062.145-.135.114-.073-.032-.197.041-.26.145a.49.49 0 0 1-.394.197 1.23 1.23 0 0 0-.456.104c-.114.062-.477.135-.82.176-.353.031-.685.125-.747.197-.073.094-.342.146-.716.146-.374 0-.643-.052-.716-.146Zm46.01-.166c-.57-.03-1.14-.103-1.265-.145-.146-.052-.24-.031-.24.031 0 .187-.175.125-.425-.145-.134-.135-.31-.26-.373-.26-.073 0-.135-.03-.135-.072 0-.052-.228-.322-.509-.612-.477-.509-.508-.571-.622-1.401-.083-.56-.114-1.868-.093-3.622l.03-2.75.997-.03c.737-.021 1.027.01 1.11.113.073.094.125 1.163.145 3.248.032 2.927.042 3.124.24 3.373.113.145.28.239.352.218.083-.031.207.03.28.135.083.114.197.155.311.114.104-.042.218-.01.27.062.073.104.114.104.145.01.042-.083.166-.103.364-.062.197.042.3.01.3-.072 0-.073.073-.104.156-.063.094.031.156 0 .156-.103 0-.094.093-.187.207-.218.187-.052.26-.229.218-.488-.01-.052.052-.166.135-.26.135-.145.166-.622.166-2.915.01-2.356.042-2.771.177-2.927.135-.155.342-.186 1.058-.186h.892l-.03 3.185c-.011 1.764-.073 3.331-.125 3.497a1.955 1.955 0 0 0-.104.57c0 .188-.124.385-.415.634-.228.197-.415.415-.415.498 0 .073-.062.145-.125.166-.788.218-1.41.415-1.556.488-.104.052-.197.083-.208.072-.02 0-.498-.041-1.069-.083Zm-28.421-.197c-.333-.114-.706-.3-.83-.415-.125-.124-.26-.187-.302-.155-.103.114-.394-.187-.342-.343.031-.083-.01-.166-.093-.197-.083-.042-.156-.114-.156-.187 0-.062-.114-.218-.26-.353-.134-.135-.248-.321-.238-.415.031-.249-.114-.923-.301-1.432-.166-.467-.135-1.619.052-1.971.062-.104.187-.509.28-.903.104-.384.26-.8.363-.934.094-.125.156-.29.135-.353-.031-.073.02-.135.114-.135s.166-.062.166-.135c0-.186.374-.529.498-.446.042.031.166-.041.26-.145.28-.332.954-.436 2.407-.394 1.38.051 1.878.166 2.314.57.395.353.53.446.654.446.062 0 .093.063.062.146-.03.083 0 .176.073.197.176.073.56 1.152.643 1.795.042.28.114.56.166.623.042.062.094.373.114.674l.021.56-2.895.032c-2.937.02-3.33.072-3.061.394.062.083.093.208.062.29a.158.158 0 0 0 .104.208c.083.041.135.135.104.208-.135.342.363.892.799.892.083 0 .197.073.27.156.082.103.31.155.674.155.363 0 .591-.052.674-.155a.5.5 0 0 1 .333-.156c.103 0 .217-.073.249-.156.124-.311.695-.477 1.504-.446.747.031.768.042.737.29-.031.333-.25.83-.363.83-.052 0-.052.053-.021.115.093.145-.353.612-.581.612a.466.466 0 0 0-.311.166c-.322.394-1.038.592-2.273.623-.975.031-1.307.01-1.806-.156Zm3.185-5.406c.083-.343-.166-1.162-.394-1.287-.114-.062-.332-.197-.488-.29-.342-.24-1.048-.24-1.39-.01-.426.269-.872.726-.872.881 0 .073-.073.25-.166.374-.342.487-.187.54 1.608.54 1.567 0 1.65-.011 1.702-.208Zm5.687 5.396c-.374-.094-.696-.228-.716-.29-.021-.063-.104-.084-.187-.053-.083.032-.176-.041-.239-.186-.052-.135-.3-.457-.54-.716-.248-.26-.456-.56-.466-.675-.042-.508-.343-1.743-.447-1.847-.176-.176-.145-.955.052-1.12.125-.104.146-.24.104-.52-.041-.228-.02-.415.042-.456.083-.052.072-.114 0-.218-.094-.104-.073-.197.093-.415.125-.156.218-.353.218-.457 0-.093.114-.28.26-.415.134-.124.228-.28.197-.332-.094-.135.383-.622.55-.56.072.031.134.01.134-.031 0-.052.218-.218.478-.363.446-.25.58-.27 1.764-.27 1.515 0 2.21.124 2.532.467.124.135.28.228.352.197.146-.052.758.55.654.654-.041.03.01.155.104.259.093.104.228.342.3.53.063.186.157.414.198.518.062.156-.01.176-.778.176-1.027 0-1.588-.145-1.723-.456-.052-.114-.166-.208-.238-.187-.083.02-.26-.072-.395-.207-.218-.198-.28-.218-.467-.094-.176.104-.26.114-.467 0-.217-.114-.27-.104-.54.156-.165.166-.352.26-.404.228-.156-.093-.519.726-.591 1.308-.032.27-.104.518-.166.55-.114.083-.125.601-.01.736.134.146.331.903.331 1.256 0 .394.571.996 1.1 1.172.436.146 1.411.083 1.474-.093.02-.062.083-.114.135-.114.052 0 .238-.135.404-.311.29-.301.343-.312 1.235-.312.509 0 .965.042.996.104.083.125-.155.934-.28.934-.041 0-.083.062-.083.135 0 .073-.145.239-.321.373-.167.125-.353.343-.405.488-.052.135-.177.25-.28.25-.104 0-.467.093-.8.207-.778.26-2.21.26-3.164 0Zm36.184.03a.423.423 0 0 0-.28-.134c-.25-.01-.582-.508-.436-.654.072-.072.114-.944.114-2.698 0-2.428-.01-2.604-.218-2.967-.29-.509-.83-.84-1.36-.84-.487 0-1.214.3-1.224.497 0 .062-.062.125-.135.125-.073 0-.208.186-.311.425-.166.384-.187.737-.156 3.373l.031 2.957-1.037-.031-1.038-.031-.031-2.512c-.021-2.21-.042-2.521-.187-2.521-.135 0-.156-.104-.114-.57.03-.312.01-.603-.042-.634-.062-.03-.072-.145-.041-.26.041-.124.02-.196-.073-.196-.073 0-.27-.146-.436-.312-.27-.27-.373-.31-.892-.31-.426 0-.633.05-.737.165a1.044 1.044 0 0 1-.384.26c-.135.051-.218.134-.187.186.042.052.01.229-.052.395-.072.186-.103 1.286-.093 3.175.01 2.086-.02 2.937-.114 3.04-.083.104-.394.146-1.225.146h-1.1l.021-2.564c.01-1.421.052-3.05.094-3.642.062-.996.083-1.079.352-1.338.167-.156.27-.322.24-.374-.084-.135.3-.498.466-.436.083.031.27-.083.426-.238.238-.27.384-.312 1.297-.426.57-.072 1.297-.104 1.608-.072.903.103 1.67.28 1.67.373 0 .042.115.156.26.25.239.155.29.155.56.01.167-.084.322-.198.343-.26.01-.052.311-.156.654-.218.342-.062.695-.145.778-.187.176-.093 1.868.042 2.636.198.54.114 1.535.695 1.847 1.079.166.197.187.57.187 3.984 0 2.916-.032 3.778-.125 3.809-.384.114-1.442.103-1.556-.021Zm-29.128-.051c-.384-.104-.737-.54-.737-.913 0-.156-.072-.343-.156-.415-.134-.114-.155-.768-.134-5.074l.03-4.94.706-.03c.384-.022.862.02 1.059.082.353.114.726.55.622.726-.03.052-.01.115.052.156.052.031.104.415.104.84v.769h.498c.27 0 .54.041.592.083.072.041.093.446.052 1.11l-.052 1.037-.54.032-.55.03v3.207c0 2.169-.031 3.227-.114 3.269-.166.104-1.069.124-1.432.031Zm3.082-2.625c-.021-3.176-.021-3.227.176-3.57.083-.145.197-.394.27-.55.062-.166.156-.29.207-.29.052 0 .094-.042.094-.104 0-.187.768-.83 1.245-1.048.26-.125.716-.332 1.017-.467.301-.145.581-.228.633-.208.052.031.394.063.778.073l.685.02v2.252h-.747c-.467 0-.861.063-1.017.156a7.328 7.328 0 0 1-.477.25c-.29.134-.56.508-.488.694.031.083 0 .208-.062.28-.073.094-.125 1.018-.135 2.626l-.031 2.48-1.069.052-1.058.052-.021-2.698Z"/></svg>