<svg xmlns="http://www.w3.org/2000/svg" fill="none" viewBox="0 0 85 40"><path fill="#2B354E" d="M19.583 33.007v2.082H5v-2.082h14.583Zm22.79 0a7.9 7.9 0 0 1-5.365 2.082l-15.341-.021v-2.06h20.707Zm21.685 0-.728 2.082-.72-2.082h1.448Zm-6.975 0v2.082H46.667v-2.082h10.416Zm22.917 0v2.082H69.583v-2.082H80Zm-35.267-3.973a7.887 7.887 0 0 1-.838 2.081H21.667v-2.08h23.066Zm20.72 0-.73 2.082h-2.779l-.731-2.082h4.24Zm-8.37 0v2.081H46.667v-2.08h10.416Zm22.917 0v2.081H69.583v-2.08H80Zm-60.417 0v2.081H5v-2.08h14.583Zm-4.166-3.973v2.08h-6.25v-2.08h6.25Zm16.666 0v2.08h-6.25v-2.08h6.25Zm12.6 0a7.94 7.94 0 0 1 .279 2.08h-7.007v-2.08h6.728Zm22.167 0-.731 2.08h-5.571l-.732-2.08h7.034Zm-9.767 0v2.08h-6.25v-2.08h6.25Zm18.75 0v2.08h-6.25v-2.08h6.25Zm-60.416-3.974v2.081h-6.25v-2.08h6.25Zm41.666 0v2.081h-6.25v-2.08h6.25Zm18.75 0v2.081h-6.25v-2.08h6.25Zm-33.678 0a7.979 7.979 0 0 1 1.738 2.081h-18.06v-2.081h16.322Zm26.091 0-.731 2.081h-8.364l-.73-2.081h9.825Zm-5.498-3.973.585 1.682.586-1.682h11.914v2.081h-6.25v-1.912l-.672 1.912H57.755l-.672-1.912v1.912h-6.25v-2.081h11.915Zm-36.915 0h18.06a7.984 7.984 0 0 1-1.738 2.081H25.833v-2.081Zm-10.416 0v2.081h-6.25v-2.081h6.25Zm0-3.974v2.082h-6.25V13.14h6.25Zm16.666 0v2.082h-6.25V13.14h6.25Zm12.88 0a7.94 7.94 0 0 1-.28 2.082h-6.728V13.14h7.007Zm16.401 0 .725 2.082H50.834V13.14h10.53Zm14.47 0v2.082H64.576l.725-2.082h10.531Zm-56.25-3.973v2.081H5V9.167h14.583Zm24.311 0c.377.65.66 1.351.838 2.081H21.666V9.167h22.23Zm36.105 0v2.081H65.96l.725-2.081H80Zm-20.019 0 .725 2.081h-14.04V9.167h13.315ZM19.583 5.194v2.08H5v-2.08h14.583Zm17.425 0a7.93 7.93 0 0 1 5.366 2.08H21.667v-2.08h15.34Zm42.992 0v2.081H67.344l.724-2.081H80Zm-21.401 0 .724 2.081H46.667V5.194h11.931Z"/></svg>