<svg xmlns="http://www.w3.org/2000/svg" fill="none" viewBox="0 0 41 41"><path fill="#2B354E" d="M19.265 18.464c-.531.224-.957.558-1.273 1.006-.315.449-.476.989-.476 1.625 0 .814.344 1.441 1.026 1.885.645.416 1.322.522 2.031.311.82-.238 1.373-.819 1.666-1.743.137-.426.206-.902.206-1.432v-2.297a10.53 10.53 0 0 0-1.625.169 7.936 7.936 0 0 0-1.555.476ZM20.5 0C9.18 0 0 9.18 0 20.5S9.18 41 20.5 41 41 31.82 41 20.5 31.82 0 20.5 0Zm1.638 12.02c-.33-.498-.92-.75-1.77-.75-.06 0-.138.005-.243.014-.1.01-.302.069-.59.17a3.63 3.63 0 0 0-.82.416c-.251.174-.526.458-.823.842a4.735 4.735 0 0 0-.7 1.363l-4.302-.384c0-.567.11-1.13.32-1.688.216-.559.54-1.094.98-1.602.44-.512.965-.96 1.579-1.345.613-.39 1.354-.696 2.214-.93.865-.233 1.79-.347 2.787-.347.975 0 1.858.119 2.645.352.787.238 1.423.527 1.894.874.454.328.854.725 1.185 1.176.316.44.536.847.66 1.222.123.375.182.718.182 1.043v8.351c0 .293.064.595.197.906.133.312.288.586.467.824.178.238.361.453.549.654.188.197.348.353.485.453l.188.156-3.318 3.176a50.623 50.623 0 0 1-2-1.9l-.279-.283a2.855 2.855 0 0 1-.366-.467 5.579 5.579 0 0 1-1.423 1.455 6.097 6.097 0 0 1-1.862.902 8.756 8.756 0 0 1-2.046.325 5.28 5.28 0 0 1-2.009-.298 6.227 6.227 0 0 1-1.72-.929c-.508-.393-.91-.924-1.213-1.601-.302-.677-.453-1.442-.453-2.306 0-.797.138-1.524.408-2.183.274-.664.622-1.213 1.052-1.652.43-.44.947-.833 1.556-1.176a10.417 10.417 0 0 1 1.794-.81 15.71 15.71 0 0 1 1.899-.49c.681-.132 1.263-.22 1.748-.26.485-.041.97-.074 1.455-.092v-1.803c0-.617-.105-1.075-.307-1.377Zm8.26 17.371a6.328 6.328 0 0 1-.645.618c-.303.26-.77.58-1.396.965-.627.385-1.318.732-2.06 1.048-.745.316-1.66.59-2.75.824a15.924 15.924 0 0 1-3.354.348c-1.162 0-2.32-.147-3.482-.44-1.162-.293-2.178-.654-3.056-1.084-.874-.43-1.721-.925-2.522-1.474-.805-.553-1.45-1.048-1.94-1.487-.485-.44-.897-.855-1.226-1.24a.62.62 0 0 1-.147-.233c-.018-.069-.014-.128.014-.17a.325.325 0 0 1 .119-.1.34.34 0 0 1 .339.036c1.871 1.108 3.335 1.89 4.388 2.352 3.793 1.666 7.687 2.091 11.682 1.277 1.853-.38 3.757-1.016 5.715-1.913a.638.638 0 0 1 .38-.04c.105.027.16.109.16.246 0 .128-.073.288-.22.467Zm2.74-1.327a6.55 6.55 0 0 1-.416 1.455c-.33.783-.746 1.373-1.24 1.757-.165.133-.293.174-.38.128-.087-.045-.087-.16 0-.338.206-.426.421-.998.65-1.725.229-.723.26-1.19.096-1.396a.528.528 0 0 0-.229-.165 1.533 1.533 0 0 0-.393-.087c-.16-.018-.307-.027-.43-.036a4.685 4.685 0 0 0-.513 0c-.215.009-.366.018-.462.027-.26.026-.521.049-.782.069a2.37 2.37 0 0 1-.188.023c-.069.004-.123.009-.16.013l-.124.014c-.046.005-.078.01-.1.01h-.147l-.046-.01-.027-.023-.023-.04c-.06-.152.17-.34.686-.568a5.166 5.166 0 0 1 1.506-.426c.448-.069.975-.069 1.579-.014.604.055.974.17 1.112.339.105.16.114.49.032.993Z"/></svg>