<svg width="61" height="61" viewBox="0 0 61 61" fill="none" xmlns="http://www.w3.org/2000/svg">
<path d="M30.0299 59.6441C46.3675 59.6441 59.6116 46.3905 59.6116 30.0414C59.6116 13.6923 46.3675 0.438721 30.0299 0.438721C13.6924 0.438721 0.448242 13.6923 0.448242 30.0414C0.448242 46.3905 13.6924 59.6441 30.0299 59.6441Z" fill="#2B354E"/>
<path d="M49.255 32.5586L47.7832 33.0122L48.1161 33.1481L47.6007 33.4748C47.6555 33.1743 47.7088 32.873 47.7505 32.5685L48.5571 31.894L48.5759 32.2493L49.484 31.0073L48.085 31.65L48.4295 31.74L47.7864 32.2788C47.8321 31.907 47.8641 31.533 47.8886 31.1564L48.683 30.2763L48.75 30.6267L49.4839 29.2743L48.1806 30.0979L48.539 30.138L47.905 30.8215C47.9107 30.585 47.9181 30.3507 47.9181 30.1141C47.9191 28.3852 47.6683 26.6653 47.1737 25.0087C46.3694 25.0832 45.5628 24.8262 45.1758 24.7517C46.2057 25.356 46.5624 26.0092 46.7154 26.7601C45.8916 26.9443 44.7896 26.6741 44.1857 26.2017C44.7763 26.7175 45.1486 27.5297 45.1748 28.3672C44.3248 28.4098 43.5401 28.0119 42.9634 27.4323C43.3332 27.8457 43.8012 28.8912 43.6916 29.6354C42.9807 29.5593 42.1478 29.0935 41.6921 28.5384C42.0692 29.3702 42.2483 30.0447 42.2026 30.7899C41.4982 30.6564 40.9632 30.4567 40.3315 29.8524C40.6358 30.6121 40.7479 31.3769 40.6792 32.004C39.8652 31.7157 39.3236 31.3891 38.8646 30.622C39.1093 31.2999 39.2679 32.1882 39.0994 32.708C38.4097 32.5009 37.9532 32.0849 37.5956 31.3801C37.9498 32.1284 37.9049 32.9977 37.7871 33.4481C37.4974 33.3916 37.1196 33.1911 36.9224 32.9692C36.9102 33.1008 36.9009 33.2326 36.8946 33.3646C36.8577 33.8706 36.7587 34.3446 36.5935 34.7794C36.6609 34.8543 36.7269 34.9304 36.7915 35.0078C37.1539 35.3974 37.6506 35.7683 38.0416 35.8927C37.8722 35.9172 37.6407 36.0622 37.4076 36.0892C37.6661 36.3823 38.1931 36.4479 38.5186 36.781C38.2658 36.8114 38.2062 36.9947 37.8977 36.9603C38.4851 37.4147 39.0235 37.4294 39.3237 37.4655C39.4457 37.4786 39.8408 37.5163 40.0911 37.4769C40.4453 37.4229 40.8102 37.5989 40.9518 37.6808C41.1695 37.8085 41.1579 38.1082 41.1147 38.2604C41.0885 38.3504 41.05 38.4586 40.8865 38.5429C40.7931 38.5708 40.7318 38.579 40.8268 38.5086C40.9119 38.4464 40.9897 38.0664 40.7933 37.9175C40.6494 37.8127 40.4465 37.7259 40.2076 37.7383C39.9425 37.7505 39.5375 37.7727 39.3411 37.7547C39.162 37.7343 39.0491 37.9708 39.0236 38.0708C38.9598 38.3074 38.8862 38.5996 38.5451 38.4547C38.1254 38.214 37.5291 38.2346 36.8435 37.9569C36.94 38.1673 36.8991 38.3508 37.0038 38.5865C36.3927 38.436 36.2381 38.1248 35.6555 37.92C35.7529 38.1321 35.7242 38.2983 35.8559 38.498C35.3658 38.4128 34.9086 37.9707 34.227 37.7889C34.2049 37.7955 34.1861 37.8045 34.1657 37.8085C33.9178 37.883 33.6895 37.9534 33.4825 38.0198C33.9653 38.5667 34.3645 39.2381 34.551 40.0501C34.551 40.0501 34.2107 40.06 33.7076 39.8848C33.8587 40.3463 33.9398 40.8279 33.9482 41.3135C33.9482 41.3135 33.5662 41.2431 33.0417 40.9173C33.0923 41.4177 33.0688 41.9228 32.9722 42.4163C32.9722 42.4163 32.5304 42.2337 32.0084 41.7032C31.9479 42.201 31.8243 42.7028 31.6108 43.2038C31.6108 43.2038 31.2059 42.9295 30.7927 42.2902C30.617 42.808 30.3686 43.2982 30.0548 43.7459C30.0548 43.7459 29.6146 43.2825 29.3161 42.3492C28.9185 42.9476 28.5396 43.204 28.5396 43.204C28.3359 42.7244 28.2015 42.2183 28.1403 41.7008C27.6193 42.2339 27.1774 42.4164 27.1774 42.4164C27.0801 41.923 27.0558 41.418 27.1054 40.9175C26.5826 41.2433 26.1973 41.3137 26.1973 41.3137C26.2057 40.8278 26.2882 40.346 26.4419 39.885C25.9355 40.0602 25.5959 40.0503 25.5959 40.0503C25.7881 39.2218 26.3306 38.3696 26.6956 37.9871C26.5164 37.9298 26.3249 37.8724 26.1163 37.8087C26.0967 37.8047 26.078 37.7956 26.0542 37.7891C25.3734 37.9708 24.9178 38.413 24.4252 38.4982C24.5553 38.2985 24.53 38.1321 24.6256 37.9202C24.0456 38.1249 23.8886 38.436 23.2807 38.5867C23.3821 38.3509 23.3412 38.1675 23.441 37.9571C22.874 38.2346 22.0993 38.4271 21.7565 38.5007C21.376 38.5793 21.354 38.0136 21.2295 37.8883C21.1764 37.8344 20.8703 37.8122 20.7428 37.8318C20.5538 37.8637 20.188 37.8474 19.9149 37.8424C19.64 37.8367 19.451 37.9177 19.3096 38.0275C19.1075 38.1732 19.2032 38.5687 19.29 38.6333C19.3841 38.7012 19.326 38.6923 19.2318 38.6668C19.0698 38.5833 19.0281 38.4737 19.0019 38.3836C18.9619 38.2346 18.9463 37.9333 19.1671 37.8089C19.3062 37.7229 19.6735 37.5476 20.0287 37.6026C20.2773 37.641 20.6718 37.6026 20.7912 37.5887C20.9115 37.5748 21.7975 37.4152 22.3824 36.9608C22.0757 36.9952 22.0158 36.8117 21.7607 36.7816C22.0896 36.4484 22.6157 36.3828 22.8734 36.0897C22.6427 36.0627 22.4381 35.8776 22.2689 35.8515C22.7851 35.5649 23.127 35.3979 23.4911 35.0083C23.4952 35.0017 23.631 34.8486 23.685 34.7856C23.5206 34.3508 23.4191 33.8711 23.3839 33.3651C23.3757 33.2415 23.3675 33.1146 23.3586 32.9843C23.2326 33.1243 22.9724 33.2652 22.5503 33.4174C22.3531 32.9377 22.4473 32.0429 22.6993 31.3494C22.3386 32.0551 21.9336 32.5143 21.2423 32.7207C21.0737 32.2033 21.1752 31.3002 21.4165 30.6223C20.9584 31.3894 20.4683 31.7791 19.6519 32.0673C19.5832 31.4411 19.6485 30.6125 19.9504 29.8527C19.3205 30.457 18.7846 30.6567 18.0786 30.7902C18.0352 30.0452 18.2151 29.3705 18.5891 28.5387C18.1375 29.0939 17.1974 29.4736 16.4865 29.5498C16.5413 28.9037 16.9937 28.0204 17.2572 27.503C16.5889 27.9827 15.8771 28.3266 15.1072 28.3675C15.2037 27.6348 15.5309 26.8422 16.0954 26.2021C15.4319 26.6942 14.4199 26.9594 13.6574 26.8553C13.8415 26.0513 14.3365 25.2678 15.0032 24.8469C14.6161 24.9239 13.9151 25.0835 13.1077 25.0091C12.6212 26.6394 12.3713 28.3312 12.3656 30.0327C11.9623 29.7158 11.6808 29.6356 11.4052 29.3621C11.4559 29.7404 11.5059 29.9466 11.5467 30.4134C11.6211 31.2551 11.9412 31.7365 12.4688 32.0385C12.4926 32.2776 12.5236 32.5142 12.5588 32.7516C12.1685 32.5019 11.6441 32.3463 10.9536 32.3546C11.3733 33.7243 11.9747 33.8265 12.7796 33.9551C12.8074 34.0812 12.8377 34.2056 12.867 34.33C12.4383 34.2179 11.9221 34.2162 11.3363 34.3783C11.7413 35.0079 12.3032 35.387 13.2 35.522C13.2016 35.5277 13.204 35.5319 13.2073 35.5376C12.6551 35.4933 12.0579 35.5753 11.5801 35.8176C12.2608 36.4038 12.93 36.6273 13.5672 36.5594C13.5999 36.6446 13.6328 36.7281 13.6671 36.8116C13.1631 36.945 12.7181 37.2063 12.4694 37.4502C13.0004 37.6181 13.5453 37.7073 14.0377 37.6565C14.0411 37.6687 14.0483 37.6803 14.0525 37.6925C13.7645 37.9135 13.5141 38.2705 13.3571 38.828C13.736 38.7337 14.1245 38.7076 14.5116 38.5971C14.5885 38.742 14.6679 38.8828 14.7505 39.0228C14.5459 39.4116 14.4747 39.8995 14.5942 40.4416C14.9197 40.3647 15.1873 40.2386 15.4098 40.0756C15.4859 40.1886 15.5628 40.2991 15.643 40.4121C15.5613 41.0327 15.7044 41.6566 16.0725 42.0724C16.2287 41.8985 16.3697 41.7114 16.4939 41.5132C19.7532 45.4209 24.6571 47.9065 30.1401 47.9065C37.7903 47.9065 44.3107 43.0695 46.8183 36.2883L47.6257 35.9378L47.5644 36.2915L48.7294 35.2827L47.2207 35.5955L47.5383 35.7593L46.9173 36.0155C47.0261 35.7036 47.1284 35.3842 47.2209 35.0649L48.1052 34.5745L48.0741 34.934L49.1442 33.8222L47.6708 34.2683L48.0029 34.4075L47.2943 34.7963C47.3891 34.4501 47.4751 34.0972 47.548 33.7444L48.2214 33.317L48.1927 33.6731L49.255 32.5586Z" fill="#DADBDE"/>
<path d="M22.8857 24.0636C22.4595 23.8441 22.0857 23.5896 21.6831 23.2227C20.3937 22.0455 20.0878 20.81 20.4707 19.3905C20.6965 18.5422 21.0417 18.1182 20.9239 17.2349C20.856 16.7305 20.4976 16.3229 20.1409 15.9799C19.2787 15.1514 18.256 14.6397 16.7456 14.1288C15.8114 13.8153 13.0984 12.972 11.9024 11.8881C11.6291 12.6855 12.2075 13.7448 12.8997 13.8857C12.2878 13.9479 11.7674 14.2665 11.5244 14.6127C11.9859 15.1472 12.9054 15.7032 13.6645 15.7188C13.3144 15.9529 12.8841 16.4515 12.7425 16.7315C13.3995 17.082 14.4484 17.3759 15.2541 17.3177C14.9146 17.5895 14.6209 17.9351 14.4303 18.251C14.9735 18.4998 16.0346 18.8593 17.0434 18.9346C16.6711 19.118 16.141 19.7533 15.867 20.1446C16.4348 20.3977 17.6637 20.5507 18.426 20.6285C17.8803 20.9151 17.3093 21.4873 16.9951 22.0056C17.5482 22.2709 18.588 22.5673 19.4372 22.5386C19.0175 22.9422 18.7419 23.4301 18.5839 23.9018C19.2261 24.0344 19.901 24.0369 20.6856 23.9313C20.2103 24.5347 20.0196 25.332 19.9534 25.8994C20.5899 25.883 21.4351 25.7364 22.0314 25.3795C21.9022 25.8666 21.93 26.5265 22.141 26.9915C22.3913 26.9341 22.6818 26.8302 22.9983 26.6598C22.9544 25.7525 22.9135 24.8267 22.8857 24.0636ZM48.7915 13.3501C47.593 14.4358 45.6777 14.7264 43.6676 15.3912C42.1533 15.8898 41.2133 16.1829 39.8577 17.2644C39.4706 17.5731 39.1017 18.0266 39.1434 18.806C39.1892 19.6713 39.3291 20.0447 39.3537 21.2546C39.3693 22.1183 39.0714 22.8143 38.7081 23.2227C38.3261 23.6575 37.8295 24.0341 37.3828 24.2673C37.3575 25.0026 37.3238 25.7435 37.2829 26.6031C37.5979 26.775 38.0004 26.9339 38.2515 26.9911C38.4593 26.5262 38.4888 25.8662 38.3588 25.3791C38.9559 25.7361 39.8027 25.8826 40.4384 25.8991C40.3706 25.3317 40.1807 24.5342 39.7054 23.931C40.4875 24.0366 41.1641 24.0341 41.8071 23.9015C41.6468 23.4298 41.3703 22.9419 40.9515 22.5383C41.8031 22.567 42.8404 22.2705 43.3944 22.0053C43.0802 21.487 42.5109 20.9148 41.9651 20.6282C42.7268 20.5504 43.99 20.4022 44.557 20.1485C44.2829 19.7588 43.7159 19.1178 43.3478 18.9344C44.3558 18.8591 45.4144 18.4996 45.9617 18.2508C45.7696 17.9347 45.475 17.5893 45.1396 17.3176C46.0846 17.2562 46.991 17.0818 47.6471 16.7314C47.5047 16.4514 47.077 15.9527 46.7268 15.7187C48.754 15.1529 48.7875 14.1409 48.7915 13.3501Z" fill="#DADBDE"/>
<path d="M40.2698 15.4916C37.3966 13.4957 33.9057 12.3225 30.1398 12.3225C26.7102 12.3225 23.5033 13.2992 20.7871 14.9833C21.4915 15.5317 21.9095 16.1122 22.0134 16.714C22.1009 17.2404 22.1615 17.8766 21.8579 18.8041C21.5356 19.7882 21.3581 20.7993 22.0853 21.8259C22.8069 22.8485 23.7461 23.289 24.5225 23.4379C25.6064 23.2497 26.6984 23.1115 27.7949 23.0236C27.9397 22.5462 28.3725 22.1327 28.8095 21.7956C29.4403 21.3028 29.3019 20.8737 29.1531 20.5397C29.0345 20.2776 28.8095 20.0665 28.4839 19.8979C28.2001 19.7513 27.1586 19.6408 27.1881 20.3088C27.017 20.0665 26.8796 19.7406 26.9803 19.3239C27.1194 18.7418 28.0692 18.5952 28.3056 18.6117C28.1223 18.4569 28.2353 18.2081 28.651 18.0917C29.1566 17.9517 29.6343 17.9304 30.0983 17.9427C31.0498 17.9656 31.1986 18.1997 31.6821 18.6279C32.2639 19.1462 33.0353 19.3263 33.338 19.0136C33.1196 19.5097 32.4282 19.7733 31.9841 19.6972C32.2009 20.3833 32.2786 20.9792 32.3555 21.7005C32.3915 22.0279 32.4602 22.5781 32.5485 23.0276C33.8224 23.1332 35.1052 23.3084 36.2211 23.5229C36.6834 23.3886 37.1636 23.1176 37.5915 22.6198C38.0013 22.1482 38.377 21.5481 38.2215 20.0409C38.1773 19.616 37.9663 18.5312 37.9956 18.022C38.0616 16.863 38.9207 16.1082 40.2698 15.4916Z" fill="#DADBDE"/>
<path d="M28.465 18.6672C28.6401 18.8007 28.7431 18.8186 28.8013 18.8047C28.807 18.8383 28.8676 18.8783 28.879 18.8922C28.9167 18.9249 28.938 18.9561 28.9469 18.9922C29.0263 18.9586 29.2389 18.8718 29.4336 18.8047C29.6283 18.7311 29.8991 18.6533 29.8991 18.6533C29.059 18.4747 28.9313 18.7311 28.465 18.6672ZM53.6697 22.1368C54.7178 21.6776 55.1914 20.5059 54.7488 19.4957C54.3069 18.4846 53.1272 18.0482 52.08 18.5083C51.032 18.9667 50.5493 20.1333 50.9919 21.1454C51.4329 22.1548 52.6225 22.5961 53.6697 22.1368ZM52.4205 19.2821C53.2483 18.9177 54.1967 19.0847 54.4363 19.6333C54.6801 20.1885 54.1605 20.999 53.3301 21.3617C52.4981 21.7269 51.5459 21.5622 51.3027 21.0072C51.0648 20.4593 51.5836 19.6479 52.4205 19.2821ZM52.2053 24.8697L51.8061 23.2879L52.049 23.224L52.1619 23.667L55.5064 22.8181L55.3918 22.3759L55.6373 22.3146L56.2443 24.7092L56.4072 24.6666L56.4856 24.9819L55.5612 25.2159L55.4835 24.9081L55.9024 24.8018L55.5956 23.5941L54.2252 23.9428L54.4633 24.872L54.8577 24.7714L54.9411 25.0833L53.7989 25.3732L53.7138 25.0605L54.1196 24.9581L53.884 24.0288L52.3518 24.4185L52.4491 24.8058L52.2053 24.8697ZM5.44225 20.6255L5.29833 21.1085L7.45656 21.752C8.10699 21.9469 8.44729 22.2939 8.53157 22.8491C8.57077 23.1348 8.54882 23.437 8.46287 23.7349C8.1839 24.6641 7.49342 25.1145 6.70056 24.8803L4.38366 24.1876L4.25197 24.6241L4.00986 24.5511L4.49006 22.9448L4.72983 23.0161L4.60299 23.4475L6.74312 24.0868C7.32402 24.2587 7.61774 24.2342 7.86153 23.9877C7.97745 23.8599 8.06277 23.7073 8.11101 23.5416C8.31794 22.8531 8.03076 22.3307 7.32805 22.1202L5.19277 21.4816L5.05119 21.9598L4.80338 21.8877L5.20182 20.5549L5.44225 20.6255ZM9.2383 21.5612C9.19565 21.6587 9.11662 21.7357 9.01806 21.7758C8.9195 21.8159 8.8092 21.8158 8.71068 21.7757C8.61278 21.734 8.53532 21.6552 8.49518 21.5566C8.45504 21.458 8.45547 21.3475 8.49638 21.2492C8.58233 21.0445 8.81959 20.947 9.02165 21.0322C9.12022 21.0739 9.1983 21.153 9.23888 21.2521C9.27947 21.3512 9.27926 21.4623 9.2383 21.5612ZM9.98273 19.8493L9.82322 20.1359L8.88326 19.6062L9.04528 19.3205L9.43065 19.5383C9.74967 19.4073 9.91738 19.2697 10.063 19.0135C10.2438 18.6892 10.1816 18.3455 9.91253 18.1924C9.67527 18.0598 9.42663 18.1188 8.83919 18.4281C8.22646 18.7573 8.13966 18.7908 7.9066 18.8391C7.68158 18.8834 7.43528 18.8351 7.20473 18.7056C6.62952 18.3798 6.4856 17.7429 6.8455 17.1067C6.96077 16.902 7.08275 16.7571 7.27577 16.6066L7.12112 16.5182L7.27895 16.2374L8.1715 16.7384L8.01283 17.0209L7.65125 16.8178C7.38937 16.9595 7.25767 17.07 7.15061 17.264C6.99763 17.535 7.07203 17.8519 7.31581 17.9902C7.52693 18.1089 7.72246 18.0614 8.32531 17.7388C8.61652 17.5858 8.79496 17.4883 8.86935 17.4556C9.02149 17.3804 9.19574 17.3369 9.38725 17.327C9.60574 17.318 9.80278 17.3696 10.0065 17.4818C10.6022 17.8166 10.7764 18.4863 10.4336 19.098C10.2625 19.4001 10.0769 19.5859 9.79959 19.7464L9.98273 19.8493ZM11.5544 17.1337C11.5544 17.3532 11.3801 17.5276 11.1616 17.5276C10.9431 17.5276 10.7714 17.3532 10.7714 17.1337C10.7714 16.9168 10.9431 16.7424 11.1616 16.7424C11.3801 16.7424 11.5544 16.9168 11.5544 17.1337ZM20.8213 9.42407L18.2851 10.7316L18.1721 10.5055L18.5764 10.2985L16.9958 7.22993L16.5916 7.43784L16.477 7.2135L18.6713 6.0829L18.5944 5.93468L18.8799 5.78646L19.3175 6.63219L19.0354 6.77722L18.8382 6.39477L17.7305 6.96468L18.3767 8.22304L19.2301 7.78341L19.0411 7.42141L19.3282 7.26833L19.8681 8.31962L19.5834 8.47103L19.3921 8.09847L18.5387 8.53743L19.217 9.85381L20.3729 9.25774L20.1709 8.86405L20.4547 8.7175L20.8213 9.42407ZM23.2617 8.54145L21.614 9.0899L21.5331 8.84997L21.9658 8.70677L20.8786 5.42949L20.4475 5.57268L20.3681 5.33274L22.0918 4.763C22.7954 4.52725 23.3984 4.80223 23.6144 5.45732C23.8221 6.07703 23.4441 6.77052 22.7783 6.99C22.6818 7.02353 22.6171 7.03829 22.4601 7.06042L22.3685 6.77957C22.447 6.77219 22.4772 6.76163 22.5271 6.74771C22.9142 6.61911 23.0385 6.26633 22.8691 5.76114C22.694 5.22577 22.3897 5.01534 21.9797 5.15283L21.6386 5.26668L22.6997 8.46449L23.1808 8.30403L23.2617 8.54145ZM28.1295 7.21099L27.8801 7.25274L25.7619 3.73401L25.4035 3.79705L24.5346 7.83573L24.1673 7.89877L24.2115 8.14608L25.433 7.93398L25.3896 7.686L24.9176 7.76866L25.1361 6.74604L26.5703 6.49721L27.103 7.38956L26.6874 7.45998L26.7308 7.7088L28.1716 7.45914L28.1295 7.21099ZM25.2155 6.3604L25.555 4.77943L26.3714 6.15969L25.2155 6.3604ZM32.2667 7.2135H32.0181C31.8995 7.2135 31.8274 7.15951 31.6875 6.94909L30.8432 5.63908C31.406 5.46554 31.6818 5.12165 31.6835 4.58057C31.6835 4.26217 31.5902 4.00496 31.3931 3.80443C31.1788 3.58998 30.8891 3.5105 30.3762 3.50799L28.6082 3.50631V3.75681L29.0623 3.75932L29.0566 7.21099L28.5985 7.21015L28.596 7.45981L30.2764 7.46383V7.21333H29.8257L29.8297 5.70111L29.9926 5.70514L30.8876 7.11407C31.0914 7.43097 31.1502 7.46685 31.5037 7.46769L32.2637 7.47021L32.2667 7.2135ZM29.8362 3.84534H30.21C30.6371 3.84618 30.8849 4.12132 30.8834 4.60338C30.8834 5.0742 30.5971 5.40484 30.1839 5.40484L29.8314 5.40082L29.8362 3.84534ZM34.9764 7.94538L33.0726 7.62362L33.116 7.37732L33.6871 7.47138L34.2458 4.16878L33.2256 3.99691L33.1413 4.48718L32.8158 4.43151L32.9859 3.427L33.3124 3.48099L33.2846 3.64732L36.0809 4.12049L36.112 3.95583L36.4351 4.00915L36.2658 5.01367L35.9386 4.96052L36.0244 4.47092L35.0075 4.29738L34.4496 7.60082L35.0166 7.69656L34.9764 7.94538ZM40.5741 9.83754L38.9125 9.19235L39.0033 8.95811L39.4736 9.14406L40.4096 6.72726L38.1335 8.95493L37.8169 5.77841L36.899 8.14357L37.3702 8.32365L37.2787 8.56023L35.9869 8.06007L36.0785 7.82433L36.5463 8.00524L37.7958 4.78681L37.3269 4.60505L37.4169 4.36847L38.4051 4.75411L38.7218 7.86524L40.8988 5.72023L42 6.14762L41.9108 6.38504L41.4412 6.20329L40.1953 9.42155L40.6664 9.60247L40.5741 9.83754ZM43.4898 11.7475L41.087 10.2108L41.2237 9.99867L41.6049 10.2443L43.4637 7.33221L43.0808 7.09077L43.2134 6.87615L45.2945 8.20578L45.383 8.06409L45.6563 8.2378L45.1457 9.04329L44.8773 8.87143L45.1097 8.50876L44.06 7.83573L43.2991 9.02853L44.1067 9.54597L44.3251 9.20207L44.6017 9.36991L43.9652 10.3664L43.691 10.1969L43.9144 9.84157L43.1086 9.32749L42.3126 10.5743L43.4055 11.2743L43.6453 10.9017L43.9201 11.0753L43.4898 11.7475ZM16.1506 11.9136L15.7596 12.1985L13.8141 9.54848L14.2224 9.2455C14.7886 8.83119 15.7163 9.0842 16.2374 9.79479C16.7962 10.5538 16.7593 11.4666 16.1506 11.9136ZM16.9189 9.29379C16.2627 8.40061 15.0438 8.22707 14.1306 8.89842L12.6245 10.0045L12.7726 10.2084L13.1399 9.93748L15.1787 12.7153C15.2752 12.7537 15.3725 12.7882 15.4675 12.8241L16.4648 12.0897C16.9376 11.7426 17.1864 11.3602 17.2764 10.8452C17.3712 10.2877 17.2444 9.73845 16.9189 9.29379ZM48.5899 10.9256L48.4214 11.113L48.7715 11.4291L47.0788 13.2884L47.5059 9.93748L46.6264 9.13266L46.4561 9.31927L46.776 9.60985L46.7097 9.9643L44.5908 12.2894L44.225 11.9537L44.0533 12.1395L45.0539 13.0531L45.2241 12.8665L44.8756 12.5473L46.6386 10.6118L46.2598 13.6869C46.6264 13.5903 47.019 13.4879 47.4387 13.37C47.4764 13.3595 47.5065 13.3487 47.5417 13.3414L49.0478 11.6851L49.4225 12.0233L49.5919 11.839L48.5899 10.9256ZM52.6225 15.2843L52.49 15.3851L50.7662 13.1279L50.8996 13.0248L50.7001 12.762L49.8901 13.3826L50.0897 13.6453L50.4856 13.3424L51.1139 14.1668L48.4534 16.203L48.3168 16.0212C48.2391 16.0638 48.163 16.1022 48.0836 16.1342L49.0711 17.4253L49.2724 17.2722L48.9238 16.817L51.5836 14.7793L52.2094 15.6012L51.8143 15.9034L52.0132 16.1637L52.8223 15.5455L52.6225 15.2843ZM35.1106 56.4437L34.789 56.5141L34.5575 55.4613L34.8799 55.3901L34.9732 55.8232C35.2833 55.9737 35.4985 56.0083 35.788 55.9452C36.1496 55.8657 36.3647 55.5924 36.2977 55.2878C36.2404 55.025 36.0293 54.8726 35.4083 54.6394C34.7555 54.4045 34.6719 54.3611 34.4814 54.2177C34.2973 54.0802 34.1698 53.8649 34.1133 53.6062C33.9726 52.9619 34.3539 52.4297 35.0689 52.2726C35.2956 52.2226 35.4861 52.2201 35.729 52.2627L35.6898 52.0866L36.0056 52.0187L36.225 53.0209L35.9091 53.0905L35.82 52.6886C35.5385 52.5812 35.3699 52.5576 35.1533 52.6042C34.8497 52.6721 34.6609 52.9416 34.7205 53.215C34.7736 53.4484 34.9398 53.5655 35.5796 53.8029C35.8889 53.9159 36.0802 53.9838 36.1548 54.0165C36.3201 54.0869 36.4695 54.19 36.5941 54.3195C36.7471 54.4783 36.8412 54.6583 36.8918 54.8886C37.0366 55.5557 36.6537 56.1297 35.9673 56.2804C35.6293 56.3533 35.3676 56.3369 35.0657 56.2378L35.1106 56.4437ZM41.1999 54.5264L38.5459 55.5701L38.4542 55.3352L38.8773 55.1674L37.6165 51.954L37.1919 52.1227L37.1019 51.8884L39.4001 50.9839L39.3371 50.8266L39.6381 50.7087L39.9867 51.5962L39.6904 51.7125L39.5349 51.3113L38.37 51.7674L38.8895 53.0846L39.7812 52.7327L39.634 52.3544L39.9359 52.23L40.3638 53.3286L40.0659 53.4555L39.9098 53.0633L39.0196 53.4121L39.5604 54.7908L40.7688 54.3151L40.6076 53.9042L40.9102 53.7863L41.1999 54.5264ZM45.1923 52.094C44.8544 52.5172 44.6171 52.7392 44.2277 52.9741C43.1487 53.629 41.937 53.3695 41.3194 52.3502C40.7066 51.34 41.0208 50.1209 42.0499 49.4946C42.3805 49.2924 42.6373 49.1982 43.0145 49.145L42.8836 48.9314L43.1659 48.7595L43.7207 49.6782L43.4401 49.8494L43.2405 49.5203C42.8233 49.4949 42.6244 49.5375 42.3553 49.7003C41.6436 50.1334 41.5062 51.0291 42.0232 51.8806C42.5264 52.7099 43.464 53.0251 44.1716 52.5962C44.4268 52.4389 44.5782 52.2719 44.7287 51.9765L44.4914 51.5885L44.7786 51.4149L45.1923 52.094ZM46.9955 45.9078L46.6224 46.2467L48.14 47.912C48.5973 48.413 48.7102 48.8838 48.4959 49.4029C48.3786 49.6784 48.2027 49.9251 47.9805 50.1259C47.2639 50.7833 46.4401 50.8103 45.8821 50.2028L44.2508 48.4131L43.9146 48.7185L43.7468 48.5334L44.9839 47.4027L45.1541 47.5885L44.822 47.8898L46.329 49.5436C46.7356 49.9897 47.0015 50.1207 47.3353 50.0357C47.5013 49.9871 47.6536 49.9005 47.7803 49.7827C48.3121 49.2996 48.3342 48.7003 47.84 48.1599L46.3387 46.5136L45.9721 46.8493L45.7995 46.6576L46.8229 45.721L46.9955 45.9078ZM53.722 42.4112L52.9245 43.8865L52.7018 43.7661L52.9194 43.3642L49.8851 41.7211L49.6658 42.1221L49.4498 42.0011L50.2458 40.5257L50.4668 40.647L50.2507 41.0398L53.2876 42.6847L53.5003 42.2908L53.722 42.4112ZM55.2536 38.8229L54.5728 40.6297L54.3389 40.5397L54.5427 39.9961L51.4093 38.8155L51.0419 39.7848L51.5098 39.96L51.392 40.2702L50.4397 39.9101L50.5535 39.6022L50.7138 39.6604L51.7136 37.0028L51.5564 36.944L51.6727 36.6336L52.6257 36.9938L52.5096 37.3033L52.0442 37.1264L51.6809 38.0908L54.8151 39.2722L55.0172 38.7344L55.2536 38.8229ZM56.3139 34.4125L55.9923 36.0597L55.7437 36.0114L55.8312 35.5709L54.2104 35.2525L52.2167 36.0728L52.1447 36.4445L51.8977 36.3928L52.2199 34.7465L52.4662 34.7965L52.3803 35.2321L53.8301 34.6507L52.6978 33.6134L52.5988 34.1129L52.3533 34.0654L52.6209 32.6932L52.8655 32.7423L52.7846 33.1664L54.2039 34.4625L55.9793 34.8112L56.0667 34.365L56.3139 34.4125ZM48.1285 44.5259L48.3527 44.222C48.6055 43.8781 48.9753 43.848 49.359 44.1337C49.7378 44.4169 49.8368 44.8377 49.5889 45.1702L49.3794 45.4534L48.1285 44.5259ZM52.2822 44.5701L52.1341 44.7691C52.0621 44.8649 51.9763 44.8927 51.7243 44.8765L50.1683 44.7799C50.3663 44.2256 50.25 43.795 49.8189 43.4732C49.5629 43.2849 49.2987 43.2071 49.022 43.248C48.7193 43.2931 48.4879 43.4772 48.1794 43.8932L47.1274 45.3129L47.3269 45.462L47.601 45.0968L50.3703 47.1543L50.0996 47.5194L50.3008 47.67L51.3014 46.3216L51.0985 46.1726L50.8309 46.5352L49.62 45.6313L49.7149 45.5027L51.3805 45.6214C51.756 45.6467 51.8215 45.6189 52.0333 45.3357L52.4857 44.7234L52.2822 44.5701ZM4.81226 38.1203L4.41131 36.4887L4.65677 36.4297L4.76568 36.867L6.29392 36.4928L5.83081 34.6016L4.30173 34.9742L4.40896 35.4113L4.16602 35.4695L3.76758 33.8411L4.00969 33.7812L4.12011 34.2242L7.47197 33.4046L7.36474 32.961L7.60702 32.9028L8.00378 34.532L7.75915 34.5909L7.65276 34.1554L6.17613 34.5156L6.63991 36.4084L8.11755 36.0466L8.0078 35.6095L8.25578 35.5513L8.65254 37.1806L8.40875 37.2411L8.30001 36.7998L4.94815 37.6177L5.05856 38.0622L4.81226 38.1203ZM8.38663 41.8693C9.42981 41.3953 9.88622 40.2196 9.42981 39.2151C8.97089 38.2106 7.78546 37.7889 6.7448 38.2645C5.70581 38.7402 5.237 39.9126 5.69425 40.9171C6.14982 41.9216 7.34597 42.3448 8.38663 41.8693ZM7.09565 39.0325C7.9195 38.6567 8.86935 38.809 9.11716 39.3559C9.36832 39.906 8.85946 40.7248 8.03729 41.1014C7.20691 41.4779 6.25454 41.3257 6.00506 40.7756C5.75641 40.2278 6.26527 39.4114 7.09565 39.0325ZM9.90834 47.5649L8.86449 46.1233L9.06656 45.9759L9.36262 46.3835L11.457 44.8624L8.33754 45.4968L9.79139 42.6585L7.73955 44.1461L8.03729 44.5545L7.83271 44.7028L7.01875 43.5827L7.22249 43.4345L7.51939 43.8414L10.3101 41.8111L10.0147 41.405L10.2193 41.2585L10.8403 42.1148L9.42244 44.9041L12.4119 44.2787L13.1104 45.2398L12.9052 45.3872L12.6098 44.9802L9.81669 47.0091L10.1138 47.4167L9.90834 47.5649ZM13.0255 50.6309L10.9269 48.6972L11.0988 48.5137L11.4342 48.8192L13.7724 46.282L13.4378 45.9717L13.607 45.7884L15.425 47.4618L15.5345 47.3374L15.7768 47.5575L15.1304 48.2575L14.8957 48.0431L15.1869 47.7279L14.2714 46.8805L13.3133 47.9202L14.0177 48.5694L14.2952 48.2698L14.5356 48.4859L13.7355 49.3546L13.4958 49.1401L13.7773 48.8298L13.0737 48.1814L12.0699 49.2686L13.0263 50.1512L13.3266 49.8254L13.5638 50.0439L13.0255 50.6309ZM16.5916 53.0781L14.2444 51.4979L14.3868 51.29L14.7646 51.5455L16.6898 48.6784L16.3127 48.4254L16.4534 48.2158L17.8449 49.1515L17.7035 49.362L17.3329 49.1106L15.4627 51.8918L16.5213 52.6066L16.7682 52.2372L17.0366 52.4189L16.5916 53.0781ZM20.9096 54.9144L20.6805 54.8104L20.9144 50.7087L20.5824 50.5573L17.5897 53.4032L17.2518 53.2492L17.1479 53.4776L18.2753 53.9917L18.3817 53.7633L17.9433 53.5643L18.7016 52.8413L20.0253 53.4439L19.9606 54.4828L19.5809 54.3101L19.4745 54.5376L20.8047 55.1434L20.9096 54.9144ZM18.9814 52.568L20.1538 51.4553L20.0507 53.0551L18.9814 52.568ZM25.0543 56.3309L24.6468 56.2326L23.3027 52.8881L22.694 55.436L23.1538 55.5473L23.0956 55.7913L21.7793 55.4778L21.8373 55.2304L22.32 55.3466L23.0539 52.2863L22.937 51.9449L22.5172 51.8452L22.5754 51.5987L23.737 51.877L24.9797 55.0168L25.5655 52.5745L25.1049 52.4632L25.163 52.2184L26.4818 52.5336L26.4205 52.7793L25.9296 52.6614L25.0543 56.3309ZM28.7947 56.6255C29.3813 56.6468 29.8116 56.5019 30.2018 56.1555C30.6232 55.7732 30.8645 55.268 30.8849 54.7162C30.9241 53.6077 30.075 52.7145 28.9427 52.6735L27.075 52.6039L27.0676 52.8577L27.5225 52.8725L27.3974 56.3225L26.9424 56.3069L26.9342 56.5591L28.7947 56.6255ZM28.3373 53.1206L28.8437 53.1411C29.5455 53.1673 30.1167 53.9434 30.0872 54.8227C30.0512 55.7633 29.4555 56.4551 28.7046 56.4289L28.2178 56.411L28.3373 53.1206Z" fill="#DADBDE"/>
<path d="M30.1381 39.0338H29.9483C29.8526 38.4354 29.4182 38.0662 28.7858 37.872C28.3048 37.7221 27.6078 37.4954 26.1154 37.0385C24.3851 36.5064 23.5023 35.113 23.3828 33.3642C23.2151 30.8909 22.9688 26.5452 22.8765 23.7788C24.8293 23.3 27.7115 22.9232 30.1381 22.9232C32.5655 22.9232 35.4462 23.2998 37.3998 23.7788C37.3115 26.5452 37.0595 30.8909 36.8941 33.3642C36.7738 35.113 35.892 36.5064 34.1616 37.0385C32.6685 37.4954 31.9723 37.7221 31.4911 37.872C30.8571 38.066 30.4226 38.4352 30.3293 39.0338H30.1381Z" fill="#2B354E"/>
<path d="M29.6446 32.72L29.2904 32.5423L29.0622 31.9454L28.5443 31.7185L27.9602 31.1971L27.6134 31.5794L27.0955 31.7014L26.8197 32.1379L26.4033 32.5809L25.8363 32.883L25.4444 33.547L25.2219 33.8409L24.8399 34.1397L24.628 33.9154L24.4013 34.1315L24.1183 34.6563C23.9693 34.2641 23.8793 33.9605 23.8344 33.3332C23.751 32.1706 23.6667 30.7117 23.585 29.2176C25.5011 28.8041 27.9398 28.5306 29.9197 28.5118V33.0401C29.8288 32.9853 29.7379 32.9419 29.6446 32.72Z" fill="#DADBDE"/>
<path d="M29.9199 34.9009H24.2217C24.3039 35.0746 24.4013 35.2406 24.5129 35.397C24.9227 35.9735 25.507 36.3992 26.248 36.6267C26.9542 36.8427 27.6592 37.0627 28.3629 37.2867L28.9208 37.461C29.3766 37.6019 29.6956 37.8081 29.9198 38.0341V34.9009" fill="#DADBDE"/>
<path d="M35.9368 32.6971C36.0932 32.5726 36.2723 32.4278 36.5087 32.3418C36.5422 31.8087 36.5765 31.2398 36.6126 30.6503C36.5496 30.6929 36.484 30.7469 36.4031 30.8108C36.1315 31.0309 35.7921 31.3077 35.1939 31.3077C34.6343 31.3077 34.271 31.0834 33.9798 30.9033C33.7434 30.7568 33.5527 30.6421 33.2738 30.6421C32.9661 30.6421 32.7019 30.7994 32.4204 30.9687C32.1168 31.1488 31.7742 31.3544 31.3545 31.3544C30.9242 31.3544 30.6132 31.2217 30.3589 31.0834V32.684C30.4162 32.7167 30.4727 32.751 30.5274 32.7847C30.7826 32.942 31.0036 33.0778 31.3546 33.0778C31.5715 33.0778 31.7866 32.9486 32.0403 32.7953C32.3782 32.5939 32.7627 32.3647 33.2739 32.3647C33.7598 32.3647 34.0814 32.5604 34.3685 32.7356C34.6222 32.8944 34.8439 33.0279 35.1941 33.0279C35.5285 33.0279 35.711 32.883 35.9368 32.6971ZM31.3545 36.3461C30.9242 36.3461 30.6132 36.2151 30.3589 36.0734V38.0333C30.5822 37.8081 30.9004 37.6019 31.3587 37.4611L31.9141 37.2867C32.3821 37.1376 33.0209 36.9354 34.0298 36.6267C34.3235 36.5359 34.5934 36.4155 34.838 36.2641C34.4714 36.197 34.2048 36.0332 33.9798 35.8949C33.7434 35.7483 33.5527 35.6328 33.2738 35.6328C32.9661 35.6328 32.7019 35.7924 32.4204 35.9602C32.117 36.1398 31.7742 36.3461 31.3545 36.3461Z" fill="#DADBDE"/>
<path d="M35.9368 30.2353C36.1233 30.0854 36.3492 29.9053 36.6593 29.8341C36.6715 29.6302 36.6831 29.424 36.6945 29.2176C34.7784 28.8041 32.342 28.5306 30.3589 28.5118V30.2221C30.4162 30.2565 30.4727 30.2885 30.5274 30.3235C30.7826 30.4791 31.0036 30.6174 31.3546 30.6174C31.5715 30.6174 31.7866 30.4848 32.0403 30.3343C32.3782 30.1295 32.7627 29.9012 33.2739 29.9012C33.7598 29.9012 34.0814 30.1017 34.3685 30.2737C34.6222 30.4317 34.8439 30.5668 35.1941 30.5668C35.5285 30.5668 35.711 30.4211 35.9368 30.2353ZM30.3589 33.5453V35.213C30.4162 35.2448 30.4727 35.2809 30.5274 35.3137C30.7826 35.471 31.0036 35.6077 31.3546 35.6077C31.5715 35.6077 31.7866 35.4767 32.0403 35.326C32.3782 35.1238 32.7627 34.8937 33.2739 34.8937C33.7598 34.8937 34.0814 35.0911 34.3685 35.2646C34.6222 35.4234 34.8439 35.5585 35.1941 35.5585C35.4665 35.5585 35.6367 35.4611 35.8142 35.3268C36.1799 34.7849 36.3926 34.1135 36.4442 33.3332C36.445 33.2988 36.4482 33.2668 36.4507 33.2358C36.4351 33.2464 36.4195 33.2603 36.4033 33.2727C36.1317 33.4928 35.7922 33.7663 35.1941 33.7663C34.6345 33.7663 34.2712 33.5453 33.98 33.3667C33.7436 33.2177 33.5529 33.1023 33.2739 33.1023C32.9663 33.1023 32.7021 33.2603 32.4206 33.4315C32.117 33.6115 31.7744 33.8163 31.3546 33.8163C30.9242 33.8163 30.6132 33.6853 30.3589 33.5453Z" fill="#DADBDE"/>
<path d="M23.5593 28.7813C23.4685 27.116 23.3891 25.4384 23.3394 24.1163C25.3609 23.6563 28.0361 23.3533 30.1387 23.3533C32.2413 23.3533 34.9207 23.6563 36.9373 24.1163C36.8916 25.4386 36.8105 27.1161 36.718 28.7813C34.8151 28.3794 32.2985 28.0789 30.1386 28.0789C27.9804 28.0787 25.4631 28.3792 23.5593 28.7813Z" fill="#DADBDE"/>
<path d="M24.8861 25.216L24.9597 24.8575L24.6276 24.7059L24.99 24.6675L25.0267 24.304L25.1756 24.6388L25.5292 24.5651L25.2607 24.8099L25.444 25.1284L25.1282 24.9425L24.8861 25.216ZM27.1031 24.922L26.7964 24.7223L26.5403 24.9859L26.632 24.6306L26.3088 24.4653L26.6687 24.4415L26.7243 24.0797L26.856 24.4202L27.2152 24.362L26.9354 24.5962L27.1031 24.922ZM28.7664 24.7928L28.471 24.5783L28.2034 24.8271L28.3132 24.4775L27.9974 24.2958L28.3589 24.2918L28.4335 23.9314L28.5479 24.2802L28.908 24.2401L28.6151 24.4571L28.7664 24.7928ZM30.4289 24.7567L30.1465 24.5267L29.8659 24.7567L29.9944 24.4145L29.6885 24.2123L30.0525 24.2319L30.1465 23.8774L30.239 24.2319L30.6023 24.2123L30.3004 24.4145L30.4289 24.7567ZM35.164 24.9467L34.8499 25.1308L35.0308 24.8124L34.7616 24.5676L35.1166 24.6429L35.2664 24.3048L35.3016 24.6699L35.6648 24.7093L35.3311 24.8615L35.4078 25.2193L35.164 24.9467ZM33.3553 24.5962L33.073 24.3628L33.4305 24.4227L33.5654 24.0797L33.6195 24.4415L33.9828 24.4636L33.6579 24.6306L33.7512 24.9859L33.4927 24.7223L33.1876 24.9237L33.3553 24.5962ZM31.6773 24.4588L31.3868 24.2401L31.7477 24.2819L31.8614 23.9323L31.9358 24.2941L32.2982 24.2958L31.9807 24.4792L32.0913 24.8296L31.8237 24.5783L31.5283 24.7928L31.6773 24.4588ZM25.1282 27.9104L25.2026 27.5526L24.8737 27.3987L25.2338 27.3643L25.2763 27L25.4219 27.3365L25.7753 27.2652L25.5062 27.5075L25.683 27.8261L25.3695 27.6386L25.1282 27.9104ZM27.2848 27.6386L26.9797 27.4362L26.722 27.6958L26.8151 27.343L26.4936 27.1735L26.8553 27.1539L26.9125 26.7921L27.0443 27.1366L27.4017 27.0794L27.1187 27.3103L27.2848 27.6386ZM28.8842 27.5223L28.5871 27.3061L28.3206 27.555L28.431 27.2038L28.1168 27.0213L28.4792 27.0204L28.5521 26.6603L28.6649 27.0082L29.0281 26.9673L28.7344 27.1866L28.8842 27.5223ZM30.4845 27.4927L30.2013 27.2612L29.92 27.4927L30.0509 27.1473L29.7458 26.9468L30.1065 26.9664L30.2013 26.6118L30.2947 26.9664L30.6571 26.9468L30.3535 27.1473L30.4845 27.4927ZM35.0323 27.6591L34.7182 27.8457L34.8998 27.5264L34.6299 27.2816L34.9841 27.3527L35.1314 27.0204L35.1691 27.3831L35.5315 27.42L35.2001 27.5722L35.277 27.9317L35.0323 27.6591ZM33.2856 27.3234L33.0035 27.0917L33.3625 27.1473L33.4927 26.806L33.5483 27.1695L33.9124 27.1883L33.5875 27.3553L33.6792 27.7097L33.424 27.4495L33.1181 27.6509L33.2856 27.3234ZM31.6674 27.1923L31.3787 26.9746L31.7395 27.0147L31.8532 26.6675L31.9268 27.0253L32.2917 27.0327L31.9727 27.2104L32.0814 27.5608L31.8147 27.3127L31.5201 27.5271L31.6674 27.1923ZM25.9209 26.3204L26.006 25.9634L25.6796 25.8021L26.0429 25.7751L26.0911 25.4108L26.227 25.7498L26.5829 25.6876L26.3088 25.9242L26.4814 26.2483L26.1721 26.0551L25.9209 26.3204ZM24.3305 26.5734L24.4042 26.2124L24.0696 26.0642L24.4295 26.0233L24.4655 25.6589L24.616 25.9913L24.9719 25.9185L24.7028 26.1633L24.8861 26.4825L24.5711 26.2974L24.3305 26.5734ZM28.0734 26.0961L27.7749 25.8856L27.5098 26.142L27.6145 25.7874L27.293 25.613L27.6579 25.6041L27.7209 25.2414L27.8435 25.5877L28.2034 25.5385L27.9164 25.7637L28.0734 26.0961ZM29.6672 26.0191L29.3775 25.7947L29.1035 26.0364L29.2228 25.69L28.912 25.4985L29.2728 25.5059L29.357 25.1489L29.4618 25.4985L29.8233 25.4715L29.5248 25.6819L29.6672 26.0191ZM31.2616 26.0404L30.986 25.7981L30.698 26.0199L30.8387 25.6819L30.5425 25.4715L30.9034 25.5002L31.0081 25.1497L31.0907 25.5082L31.4539 25.5002L31.143 25.6916L31.2616 26.0404ZM35.7965 26.309L35.4758 26.4874L35.6648 26.1755L35.403 25.9234L35.7548 26.0052L35.9086 25.6712L35.9381 26.0364L36.2997 26.0838L35.9634 26.2263L36.0321 26.589L35.7965 26.309ZM34.0572 25.9348L33.7782 25.6982L34.1358 25.7612L34.2765 25.4224L34.3231 25.7874L34.6838 25.8145L34.3591 25.9733L34.4434 26.3303L34.1946 26.0642L33.8829 26.2615L34.0572 25.9348ZM32.4479 25.7711L32.1615 25.5451L32.5224 25.5934L32.6434 25.2488L32.7081 25.6081L33.0722 25.6237L32.7515 25.7947L32.8513 26.1485L32.5894 25.8947L32.2917 26.1018L32.4479 25.7711ZM13.947 34.1873C14.4828 33.4251 15.4908 33.2606 15.0359 31.2139C13.8929 31.714 13.3604 33.1402 13.947 34.1873ZM13.8724 29.0705C13.5058 29.2219 12.9881 29.7305 12.7549 30.401C13.1394 30.8455 13.3023 31.3916 13.285 31.8877C13.9845 31.2465 14.2275 30.1404 13.8724 29.0705ZM14.5507 36.1506C14.5973 36.1571 14.5859 36.1522 14.5343 36.1358C13.9968 35.8362 13.6171 35.7322 12.8792 35.832C13.5714 35.8828 14.0566 35.9795 14.5507 36.1506ZM16.7964 38.6361C16.7899 38.6517 16.7825 38.668 16.7785 38.6844C16.7589 39.5122 17.289 40.434 16.3408 41.7414C16.2951 41.8978 16.2327 42.2358 16.7205 41.6562C17.6824 40.5135 16.8644 39.5809 16.7964 38.6361ZM14.8813 39.9314C14.9607 39.4156 15.3027 38.8008 15.805 38.3864C16.1543 38.0965 16.3524 37.9902 16.0595 38.2981C15.6152 38.7622 15.0989 39.5162 14.8813 39.9314ZM15.9791 41.3371C15.7869 40.8524 15.9546 40.0739 16.1624 39.563C16.308 39.2126 16.6664 38.6789 16.7801 38.6289C16.3825 39.2412 15.958 40.8671 15.9791 41.3371ZM14.3682 34.5746C14.3598 34.531 14.3429 34.4895 14.3183 34.4525C14.2938 34.4155 14.2621 34.3838 14.2252 34.3591C14.1883 34.3344 14.1469 34.3173 14.1033 34.3088C14.0598 34.3003 14.0149 34.3005 13.9715 34.3094C13.9279 34.3179 13.8863 34.3349 13.8494 34.3596C13.8124 34.3842 13.7806 34.416 13.756 34.453C13.7313 34.49 13.7142 34.5315 13.7057 34.5751C13.6972 34.6188 13.6975 34.6637 13.7064 34.7073C13.7242 34.7952 13.776 34.8725 13.8504 34.9225C13.9248 34.9725 14.016 34.991 14.104 34.9742C14.1477 34.9656 14.1893 34.9484 14.2263 34.9236C14.2633 34.8988 14.295 34.8669 14.3196 34.8297C14.3442 34.7925 14.3611 34.7508 14.3695 34.7071C14.3778 34.6633 14.3774 34.6183 14.3682 34.5746ZM17.3168 35.0379C17.329 34.5319 17.2513 34.0096 17.3094 33.4185C16.3023 34.1555 15.958 35.4465 16.376 36.3479C16.3326 36.3414 16.29 36.3389 16.2451 36.3504C16.1539 36.369 16.0738 36.4231 16.0224 36.5008C15.971 36.5785 15.9525 36.6734 15.971 36.7647C16.0087 36.9522 16.1944 37.0758 16.3859 37.0374C16.431 37.0283 16.4738 37.0105 16.512 36.9848C16.5502 36.9592 16.583 36.9263 16.6084 36.8879C16.6339 36.8496 16.6516 36.8066 16.6604 36.7615C16.6693 36.7163 16.6691 36.6698 16.66 36.6247C16.6379 36.5282 16.5831 36.4478 16.5062 36.3996C16.3393 35.6013 16.4767 34.6033 16.8947 34.1833C16.7656 34.6828 16.5275 35.7299 16.6804 36.695C16.8456 36.5067 16.9693 36.3258 17.061 36.144C17.0806 36.2979 17.1157 36.4544 17.1796 36.6197C17.2025 35.8509 17.4585 35.0912 18.2563 34.5607C17.6722 35.3017 17.3382 36.167 17.2687 36.8196C17.6925 36.28 18.6562 36.1195 18.7257 34.0074C18.2372 34.1555 17.6522 34.5108 17.3168 35.0379ZM17.9827 37.2107C17.9409 37.0094 17.7503 36.8808 17.5515 36.9217C17.504 36.9311 17.4588 36.9499 17.4186 36.9769C17.3783 37.0039 17.3438 37.0386 17.317 37.079C17.2903 37.1194 17.2717 37.1648 17.2626 37.2124C17.2534 37.26 17.2537 37.309 17.2635 37.3565C17.3036 37.5546 17.4991 37.6807 17.6971 37.6405C17.896 37.5989 18.0237 37.4081 17.9827 37.2107ZM17.8551 38.3226C17.8355 38.2269 17.779 38.1428 17.6978 38.0885C17.6167 38.0342 17.5174 38.0142 17.4215 38.0327C17.3265 38.0523 17.2431 38.1088 17.1896 38.1898C17.1361 38.2708 17.1168 38.3697 17.136 38.4649C17.1752 38.6646 17.3684 38.7924 17.5696 38.754C17.6646 38.7345 17.7479 38.6782 17.8015 38.5973C17.855 38.5164 17.8743 38.4176 17.8551 38.3226Z" fill="#2B354E"/>
<path d="M15.7312 32.9024C14.9851 33.5255 14.7765 34.3074 14.8575 34.995C14.8284 34.9913 14.7989 34.9919 14.77 34.9966C14.7332 35.0038 14.6981 35.0182 14.6668 35.039C14.6356 35.0598 14.6087 35.0865 14.5878 35.1177C14.5669 35.1489 14.5524 35.1839 14.545 35.2207C14.5377 35.2576 14.5376 35.2955 14.545 35.3323C14.5768 35.4862 14.7274 35.5877 14.8796 35.555C14.9156 35.5484 14.9466 35.5337 14.9744 35.5173C15.0411 35.7079 15.1324 35.889 15.246 36.056C15.1777 35.8117 15.1309 35.5618 15.1061 35.3094C15.1078 35.2798 15.1101 35.2488 15.1028 35.221C15.1028 35.2128 15.0987 35.2079 15.0971 35.2014C15.0579 34.6177 15.1495 34.0126 15.4717 33.5763C15.3718 34.2156 15.2214 35.4462 15.3645 36.2126C15.5831 35.397 16.7572 35.0376 15.7312 32.9024ZM18.7125 37.7065C18.6963 37.6326 18.6517 37.5679 18.5884 37.5265C18.5251 37.485 18.4481 37.47 18.3739 37.4847C18.3001 37.5001 18.2354 37.5437 18.1934 37.6063C18.1515 37.6689 18.1358 37.7455 18.1497 37.8195C18.1849 37.9751 18.333 38.0749 18.4876 38.0439C18.5618 38.0283 18.6268 37.9842 18.6689 37.9211C18.7109 37.8581 18.7266 37.781 18.7125 37.7065ZM17.1343 37.6542C17.1241 37.6032 17.099 37.5564 17.0622 37.5197C17.0254 37.483 16.9786 37.4581 16.9276 37.448C16.8766 37.4379 16.8238 37.4432 16.7759 37.4632C16.7279 37.4831 16.6869 37.5169 16.6581 37.5602C16.6293 37.6034 16.6139 37.6543 16.614 37.7063C16.6141 37.7582 16.6295 37.809 16.6584 37.8522C16.6874 37.8954 16.7284 37.9291 16.7764 37.9489C16.8245 37.9688 16.8773 37.9739 16.9282 37.9637C17.0698 37.9359 17.1613 37.7951 17.1343 37.6542ZM13.5378 34.0339C13.528 33.9783 13.499 33.928 13.456 33.8915C13.413 33.8551 13.3586 33.8348 13.3023 33.8342C12.9325 33.3332 12.4007 32.7977 11.5146 32.7076C12.0005 32.9351 12.7304 33.3847 13.2359 33.8407C13.1772 33.8563 13.1264 33.8932 13.0934 33.9442C13.0604 33.9952 13.0477 34.0568 13.0576 34.1167C13.0694 34.1805 13.1058 34.2371 13.1589 34.2743C13.212 34.3115 13.2775 34.3264 13.3415 34.3157C13.4046 34.304 13.4606 34.2678 13.4974 34.2151C13.5341 34.1623 13.5486 34.0973 13.5378 34.0339ZM13.5494 32.354C13.5413 32.3144 13.5255 32.2768 13.5029 32.2433C13.4802 32.2099 13.4512 32.1813 13.4174 32.1591C13.3836 32.137 13.3458 32.1217 13.3061 32.1143C13.2664 32.1068 13.2256 32.1073 13.1861 32.1157C13.1804 32.1166 13.1731 32.1174 13.1657 32.1214C12.9636 31.3347 12.7706 30.7239 11.8804 30.1116C12.3246 30.6847 12.8408 31.5173 13.1305 32.1322C13.0646 32.1594 13.0102 32.2086 12.9764 32.2714C12.9427 32.3343 12.9318 32.4069 12.9455 32.4769C12.9535 32.5166 12.9692 32.5544 12.9918 32.588C13.0144 32.6217 13.0434 32.6506 13.0771 32.673C13.1109 32.6954 13.1487 32.711 13.1885 32.7187C13.2282 32.7265 13.2691 32.7264 13.3088 32.7183C13.3887 32.7014 13.4587 32.6537 13.5037 32.5855C13.5487 32.5173 13.5651 32.4342 13.5494 32.354ZM14.4525 35.4396C14.4414 35.3762 14.4057 35.3197 14.3531 35.2825C14.3005 35.2454 14.2353 35.2306 14.1718 35.2414C14.141 35.2465 14.1114 35.2576 14.0848 35.2742C14.0583 35.2908 14.0353 35.3125 14.0172 35.338C13.2302 34.6405 12.6877 34.6363 12.2721 34.6175C12.5225 34.7067 13.4232 34.9663 13.9968 35.3724C13.9723 35.418 13.9639 35.4705 13.973 35.5215C13.9835 35.5855 14.0189 35.6427 14.0715 35.6806C14.1241 35.7185 14.1896 35.734 14.2536 35.7237C14.2853 35.7182 14.3157 35.7065 14.3429 35.6892C14.3701 35.6719 14.3936 35.6495 14.4121 35.6231C14.4306 35.5967 14.4437 35.5669 14.4506 35.5354C14.4575 35.5039 14.4582 35.4714 14.4525 35.4396ZM15.1143 36.4262C15.0775 36.2362 14.891 36.1135 14.7011 36.1502C14.6101 36.1692 14.5303 36.2234 14.4789 36.301C14.4276 36.3785 14.409 36.4733 14.427 36.5645C14.436 36.6098 14.4538 36.6529 14.4796 36.6912C14.5053 36.7296 14.5384 36.7624 14.5769 36.7879C14.6154 36.8133 14.6586 36.8308 14.704 36.8394C14.7493 36.8481 14.7959 36.8476 14.841 36.838C15.0309 36.8011 15.152 36.6128 15.1143 36.4262ZM15.6248 37.0303C15.6197 36.9989 15.6084 36.9688 15.5915 36.9417C15.5747 36.9147 15.5527 36.8912 15.5267 36.8727C15.5008 36.8542 15.4715 36.841 15.4404 36.8339C15.4094 36.8268 15.3773 36.8259 15.3459 36.8313C15.2608 36.8444 15.1937 36.8984 15.1634 36.9705C14.477 36.8804 13.7308 36.9753 13.1025 37.3249C13.8061 37.1619 14.5425 37.0105 15.1446 37.0089H15.1487C15.1396 37.0416 15.1381 37.0759 15.1413 37.1111C15.1674 37.2421 15.2934 37.3346 15.4251 37.3108C15.4568 37.3059 15.4872 37.2946 15.5144 37.2777C15.5417 37.2609 15.5653 37.2387 15.5839 37.2126C15.6025 37.1865 15.6157 37.1569 15.6228 37.1256C15.6298 37.0943 15.6305 37.0619 15.6248 37.0303ZM16.3309 37.4413C16.3228 37.4003 16.3067 37.3613 16.2834 37.3266C16.2601 37.2919 16.2302 37.2622 16.1953 37.2391C16.1605 37.2161 16.1214 37.2003 16.0803 37.1925C16.0393 37.1848 15.9971 37.1853 15.9563 37.194C15.7869 37.2251 15.6739 37.393 15.7076 37.564C15.7011 37.564 15.6962 37.5615 15.6855 37.56C15.1783 37.5427 14.3324 37.6762 13.8136 38.2919C14.3454 37.9783 15.1922 37.6557 15.7011 37.5861C15.7044 37.5878 15.7101 37.5861 15.715 37.5861C15.7359 37.6637 15.7854 37.7305 15.8536 37.773C15.9217 37.8156 16.0034 37.8307 16.0823 37.8154C16.1645 37.7981 16.2366 37.7492 16.2831 37.6793C16.3296 37.6093 16.3468 37.5238 16.3309 37.4413ZM20.7791 39.0378C22.2272 40.1292 23.0494 41.6438 23.2588 42.8621C23.0772 42.7286 22.7352 42.5903 22.5258 42.6295C22.3376 41.3433 21.6676 40.3027 20.6155 39.4587C20.6588 39.2637 20.7201 39.1295 20.7791 39.0378ZM19.6729 40.1701C20.0165 40.3068 20.1891 40.2561 20.2774 40.1332C20.4607 39.8745 20.3722 39.5274 20.2561 39.4684C20.2823 39.574 20.2774 39.6845 20.2528 39.8106C20.234 39.9121 20.1816 40.0799 19.9917 40.0579C19.8904 40.0457 19.7029 39.9957 19.5925 39.9213C19.5139 39.8665 19.5139 39.7296 19.5589 39.6126C19.5802 39.5578 19.6055 39.4743 19.6759 39.4161C19.5589 39.4439 19.4886 39.5045 19.3961 39.5766C19.3044 39.6478 19.1687 39.6617 19.0901 39.5782C18.9936 39.4701 18.9323 39.3883 18.8995 39.317C18.82 39.1312 19.0598 38.9921 19.1997 38.9191C18.9576 38.9216 18.9159 39.0134 18.7235 38.9805C18.5255 38.9478 18.4757 38.6334 18.4764 38.5295C18.4764 38.4533 18.5706 38.3796 18.6825 38.3517C18.7912 38.3279 18.9214 38.3378 18.9926 38.3443C18.9804 38.2884 18.9749 38.2312 18.9762 38.174C18.7807 38.1289 18.3987 38.1945 18.3266 38.3026C18.2358 38.4418 18.2596 38.513 18.3323 38.7587C18.4044 38.9952 18.46 39.0796 18.613 39.1026C18.6547 39.1083 18.7373 39.119 18.8289 39.0846C18.7807 39.115 18.7487 39.142 18.725 39.2042C18.6981 39.2664 18.6555 39.372 18.8437 39.5972C19.0049 39.7929 19.1644 39.8673 19.2969 39.7945C19.373 39.7519 19.4016 39.7053 19.4368 39.6684C19.4133 39.7217 19.3949 39.777 19.382 39.8338C19.3465 40.0251 19.4904 40.1005 19.6729 40.1701Z" fill="#2B354E"/>
<path d="M19.4214 38.6646C19.5187 38.541 19.7577 38.5254 19.8927 38.6114C19.8011 38.785 19.792 39.0732 19.8428 39.2149C19.5025 39.1624 19.4412 38.8358 19.4214 38.6646ZM19.9557 38.645C20.1561 38.6302 20.2315 38.5296 20.2665 38.4314C20.3025 38.3365 20.4096 38.2766 20.413 38.4231C20.4138 38.5705 20.4146 38.6368 20.332 38.6762C20.2477 38.7186 20.0988 38.7302 19.9557 38.645ZM20.0579 38.9619C20.0394 39.0727 19.9966 39.1781 19.9328 39.2706C19.8811 39.3442 19.8084 39.3876 19.7551 39.4359C19.8476 39.5046 19.9785 39.5447 20.0881 39.5398C20.1953 39.5333 20.2018 39.5194 20.1953 39.4768C20.1708 39.2934 20.0988 39.0338 20.0579 38.9619ZM40.2321 38.487C40.3254 38.6597 40.332 38.9513 40.2812 39.0905C40.6248 39.0365 40.6836 38.7114 40.7049 38.5412C40.6051 38.4166 40.3678 38.4027 40.2321 38.487ZM40.1698 38.5214C39.9702 38.5058 39.8948 38.4067 39.859 38.311C39.8221 38.2136 39.715 38.1522 39.7142 38.3011C39.7125 38.4476 39.7108 38.5123 39.7936 38.5516C39.8769 38.5942 40.025 38.6049 40.1698 38.5214ZM40.191 39.1436C40.128 39.0517 40.0856 38.9473 40.0667 38.8375C40.025 38.9104 39.9555 39.1691 39.9293 39.3524C39.9236 39.395 39.926 39.4114 40.0366 39.4154C40.147 39.4203 40.2778 39.3827 40.3687 39.3131C40.3147 39.2664 40.2435 39.2214 40.191 39.1436Z" fill="#2B354E"/>
<path d="M46.1415 33.7089L46.4868 33.8054L41.2812 37.9194H41.282L41.1594 38.0185C41.1537 38.0193 41.1446 38.0193 41.1381 38.0225C41.1421 38.0807 41.1381 38.1396 41.1282 38.1929C41.2011 38.1889 41.3016 38.1889 41.3884 38.2117C41.5014 38.2428 41.5922 38.3173 41.5888 38.3926C41.5888 38.4974 41.5307 38.8109 41.3328 38.8396C41.1381 38.8657 41.0996 38.774 40.8575 38.7643C40.9925 38.8413 41.2321 38.9844 41.143 39.1687C41.1095 39.2423 41.0481 39.321 40.9466 39.4258C40.868 39.5076 40.7315 39.4905 40.6423 39.4152C40.5532 39.3416 40.4836 39.2785 40.3674 39.2474C40.4377 39.307 40.4599 39.3905 40.4786 39.4479C40.5195 39.5626 40.517 39.7009 40.4377 39.7532C40.3231 39.8236 40.1358 39.8686 40.0336 39.8785C39.8454 39.8964 39.7955 39.7262 39.7791 39.6255C39.7587 39.4994 39.7578 39.3864 39.7873 39.2824C39.6678 39.3406 39.5697 39.682 39.7481 39.9472C39.8299 40.0716 40.0001 40.1241 40.3478 40.0029C40.5327 39.9365 40.6815 39.8662 40.6489 39.6721C40.6398 39.6124 40.6194 39.5574 40.5998 39.5042C40.6358 39.5435 40.6587 39.5902 40.7331 39.6352C40.8682 39.7105 41.0268 39.64 41.1954 39.4494C41.3852 39.2308 41.3475 39.1219 41.3246 39.0597C41.3016 38.9975 41.2698 38.9697 41.2232 38.9402C41.3132 38.9779 41.3918 38.968 41.436 38.9615C41.5923 38.9442 41.6488 38.8615 41.7272 38.6283C41.809 38.3844 41.8328 38.3131 41.7451 38.1723C41.7083 38.1126 41.584 38.0641 41.4441 38.0371L46.6097 33.96L46.6219 34.3195L47.5504 33.089L46.1415 33.7089ZM43.3657 34.9738L47.0334 30.326L47.1307 30.6722L47.746 29.2607L46.5187 30.1916L46.8794 30.2056L43.5562 34.4186C43.2922 34.8216 43.0272 35.2238 42.761 35.6253L42.7659 35.6302C42.9665 35.412 43.1665 35.1932 43.3657 34.9738Z" fill="#2B354E"/>
<path d="M42.929 36.3557C43.2366 36.1109 43.5565 35.8579 43.8715 35.6074L46.9263 32.7788L46.9714 33.1358L47.7944 31.834L46.4421 32.5667L46.7931 32.6346L43.7267 35.4763C43.4534 35.7801 43.1835 36.0757 42.929 36.3557ZM46.3234 35.6884L42.0194 37.8448C41.945 37.9045 41.8835 37.9529 41.846 37.9831C41.8763 38.0069 41.8999 38.0339 41.9204 38.0641C41.9294 38.0772 41.9351 38.0903 41.9416 38.1025L46.4102 35.8658L46.3497 36.2186L47.5082 35.2042L46.0021 35.5251L46.3234 35.6884ZM39.8218 40.2485C39.7588 40.2288 39.7008 40.1959 39.6515 40.1519L38.8816 41.7492L38.8857 41.7517L38.605 41.8451L37.6929 43.593L38.1355 43.4596L38.2942 43.8927L39.1573 42.1202L39.0559 41.8354L39.8218 40.2485Z" fill="#2B354E"/>
<path d="M42.8195 37.2152C43.1157 37.0661 43.456 36.8943 43.8011 36.7199L46.6629 34.8516L46.6442 35.2102L47.6758 34.068L46.2187 34.5601L46.5533 34.6862L43.4429 36.7224C43.2345 36.886 43.0267 37.0502 42.8195 37.2152ZM39.4709 39.822C39.4486 39.7365 39.4409 39.6479 39.448 39.5599L38.4269 40.6757L38.125 40.7002L38.0989 40.7255V40.7272L36.6779 42.1492L36.7449 42.1452L36.7384 42.1492L36.7571 42.1452L37.1065 42.1288L37.1686 42.4767L38.3467 40.9269L38.574 40.8778L39.4709 39.822ZM41.3542 37.5983C41.4785 37.5009 41.6593 37.3576 41.8753 37.1865L46.8978 31.6947L46.9665 32.0459L47.6857 30.6845L46.3947 31.5211L46.7506 31.5604L41.4941 37.315C41.4487 37.41 41.4021 37.5045 41.3542 37.5983ZM36.8602 41.3553L38.7312 40.0364C38.9447 39.8007 39.1812 39.5477 39.263 39.4568L36.9265 41.0009L36.9282 41.0025L36.6353 40.942L36.4651 41.0493L34.9663 41.9859L35.3869 42.0728L35.4385 42.3905L36.646 41.3451L36.8602 41.3553ZM35.3115 41.5272L36.0609 41.0597L36.7588 40.584L36.9977 40.6291C36.9977 40.6291 38.7019 39.5778 39.1159 39.3069C39.138 39.2913 39.1503 39.2831 39.1503 39.2831C39.1551 39.2814 39.1585 39.2782 39.1633 39.2757L36.9282 40.3907L36.6427 40.3023L34.8633 41.1489L35.2642 41.2963L35.3115 41.5272ZM43.7472 31.1895L44.0991 31.1273L40.8854 37.6441C40.9099 37.658 40.9345 37.6711 40.9518 37.6802C40.9895 37.7023 41.0213 37.7301 41.0474 37.7605L44.2758 31.2158L44.4419 31.5335L44.7543 30.0255L43.7472 31.1895ZM44.1309 32.2874L44.4901 32.2686L42.4735 35.3363C42.2362 35.816 42.0063 36.2828 41.8034 36.6904C41.814 36.679 41.8239 36.6683 41.8329 36.656L44.657 32.3799L44.7796 32.7156L45.2763 31.2559L44.1309 32.2874Z" fill="#2B354E"/>
</svg>
