<svg width="82" height="90" viewBox="0 0 82 90" fill="none" xmlns="http://www.w3.org/2000/svg">
<g id="Comunilife-logo-horizontal 1" clip-path="url(#clip0_0_126)">
<path id="Vector" d="M63.0596 10.6304C65.4375 10.6304 67.3652 8.70257 67.3652 6.32452C67.3652 3.94648 65.4375 2.01869 63.0596 2.01869C60.6816 2.01869 58.754 3.94648 58.754 6.32452C58.754 8.70257 60.6816 10.6304 63.0596 10.6304Z" fill="#00AEEF"/>
<path id="Vector_2" d="M66.7317 23.666C69.1096 23.666 71.0373 21.7382 71.0373 19.3601C71.0373 16.9821 69.1096 15.0543 66.7317 15.0543C64.3538 15.0543 62.4261 16.9821 62.4261 19.3601C62.4261 21.7382 64.3538 23.666 66.7317 23.666Z" fill="#F47721"/>
<path id="Vector_3" d="M48.3064 27.9825C50.6843 27.9825 52.612 26.0547 52.612 23.6767C52.612 21.2986 50.6843 19.3709 48.3064 19.3709C45.9285 19.3709 44.0008 21.2986 44.0008 23.6767C44.0008 26.0547 45.9285 27.9825 48.3064 27.9825Z" fill="#F47721"/>
<path id="Vector_4" d="M37.2255 82.8309C39.4493 82.8309 41.252 81.0281 41.252 78.8042C41.252 76.5804 39.4493 74.7776 37.2255 74.7776C35.0018 74.7776 33.1991 76.5804 33.1991 78.8042C33.1991 81.0281 35.0018 82.8309 37.2255 82.8309Z" fill="#F47721"/>
<path id="Vector_5" d="M35.2929 47.8904C37.6708 47.8904 39.5985 45.9626 39.5985 43.5845C39.5985 41.2065 37.6708 39.2787 35.2929 39.2787C32.915 39.2787 30.9873 41.2065 30.9873 43.5845C30.9873 45.9626 32.915 47.8904 35.2929 47.8904Z" fill="#F47721"/>
<path id="Vector_6" d="M15.6548 61.4306C18.0328 61.4306 19.9605 59.5028 19.9605 57.1247C19.9605 54.7467 18.0328 52.8189 15.6548 52.8189C13.2769 52.8189 11.3492 54.7467 11.3492 57.1247C11.3492 59.5028 13.2769 61.4306 15.6548 61.4306Z" fill="#F47721"/>
<path id="Vector_7" d="M5.34674 25.6846C7.72467 25.6846 9.65236 23.7569 9.65236 21.3788C9.65236 19.0008 7.72467 17.073 5.34674 17.073C2.96881 17.073 1.04112 19.0008 1.04112 21.3788C1.04112 23.7569 2.96881 25.6846 5.34674 25.6846Z" fill="#F47721"/>
<path id="Vector_8" d="M30.4185 65.0492C33.3716 65.0492 35.7656 62.6551 35.7656 59.7018C35.7656 56.7485 33.3716 54.3544 30.4185 54.3544C27.4654 54.3544 25.0714 56.7485 25.0714 59.7018C25.0714 62.6551 27.4654 65.0492 30.4185 65.0492Z" fill="#F47721"/>
<path id="Vector_9" d="M5.34713 38.6773C8.30026 38.6773 10.6943 36.2832 10.6943 33.3299C10.6943 30.3766 8.30026 27.9825 5.34713 27.9825C2.39399 27.9825 0 30.3766 0 33.3299C0 36.2832 2.39399 38.6773 5.34713 38.6773Z" fill="#F47721"/>
<path id="Vector_10" d="M17.6845 29.024C20.6377 29.024 23.0317 26.6299 23.0317 23.6766C23.0317 20.7234 20.6377 18.3292 17.6845 18.3292C14.7314 18.3292 12.3374 20.7234 12.3374 23.6766C12.3374 26.6299 14.7314 29.024 17.6845 29.024Z" fill="#F47721"/>
<path id="Vector_11" d="M64.8309 40.7281C67.2088 40.7281 69.1365 38.8003 69.1365 36.4223C69.1365 34.0443 67.2088 32.1165 64.8309 32.1165C62.4529 32.1165 60.5253 34.0443 60.5253 36.4223C60.5253 38.8003 62.4529 40.7281 64.8309 40.7281Z" fill="#F47721"/>
<path id="Vector_12" d="M59.8706 30.6992C62.2486 30.6992 64.1763 28.7714 64.1763 26.3933C64.1763 24.0153 62.2486 22.0875 59.8706 22.0875C57.4927 22.0875 55.565 24.0153 55.565 26.3933C55.565 28.7714 57.4927 30.6992 59.8706 30.6992Z" fill="#00AEEF"/>
<path id="Vector_13" d="M58.5282 49.9841C60.9061 49.9841 62.8338 48.0564 62.8338 45.6783C62.8338 43.3003 60.9061 41.3725 58.5282 41.3725C56.1503 41.3725 54.2226 43.3003 54.2226 45.6783C54.2226 48.0564 56.1503 49.9841 58.5282 49.9841Z" fill="#00AEEF"/>
<path id="Vector_14" d="M54.2117 70.0529C56.5896 70.0529 58.5173 68.1251 58.5173 65.7471C58.5173 63.369 56.5896 61.4413 54.2117 61.4413C51.8337 61.4413 49.906 63.369 49.906 65.7471C49.906 68.1251 51.8337 70.0529 54.2117 70.0529Z" fill="#00AEEF"/>
<path id="Vector_15" d="M40.3072 71.9105C42.6851 71.9105 44.6128 69.9827 44.6128 67.6046C44.6128 65.2266 42.6851 63.2988 40.3072 63.2988C37.9292 63.2988 36.0015 65.2266 36.0015 67.6046C36.0015 69.9827 37.9292 71.9105 40.3072 71.9105Z" fill="#00AEEF"/>
<path id="Vector_16" d="M43.3353 89.6708C45.7133 89.6708 47.641 87.743 47.641 85.365C47.641 82.9869 45.7133 81.0591 43.3353 81.0591C40.9574 81.0591 39.0297 82.9869 39.0297 85.365C39.0297 87.743 40.9574 89.6708 43.3353 89.6708Z" fill="#00AEEF"/>
<path id="Vector_17" d="M21.3237 69.4946C23.7016 69.4946 25.6293 67.5668 25.6293 65.1888C25.6293 62.8107 23.7016 60.8829 21.3237 60.8829C18.9457 60.8829 17.018 62.8107 17.018 65.1888C17.018 67.5668 18.9457 69.4946 21.3237 69.4946Z" fill="#00AEEF"/>
<path id="Vector_18" d="M18.1463 39.3215C20.5243 39.3215 22.4519 37.3937 22.4519 35.0157C22.4519 32.6376 20.5243 30.7098 18.1463 30.7098C15.7684 30.7098 13.8407 32.6376 13.8407 35.0157C13.8407 37.3937 15.7684 39.3215 18.1463 39.3215Z" fill="#00AEEF"/>
<path id="Vector_19" d="M39.2659 36.7123C41.9819 36.7123 44.1836 34.5105 44.1836 31.7944C44.1836 29.0783 41.9819 26.8765 39.2659 26.8765C36.55 26.8765 34.3483 29.0783 34.3483 31.7944C34.3483 34.5105 36.55 36.7123 39.2659 36.7123Z" fill="#008AD1"/>
<path id="Vector_20" d="M28.6901 39.9337C31.5662 39.9337 33.8977 37.6021 33.8977 34.7259C33.8977 31.8497 31.5662 29.5181 28.6901 29.5181C25.8141 29.5181 23.4826 31.8497 23.4826 34.7259C23.4826 37.6021 25.8141 39.9337 28.6901 39.9337Z" fill="#008AD1"/>
<path id="Vector_21" d="M53.5035 39.9336C56.3796 39.9336 58.711 37.602 58.711 34.7258C58.711 31.8496 56.3796 29.518 53.5035 29.518C50.6275 29.518 48.296 31.8496 48.296 34.7258C48.296 37.602 50.6275 39.9336 53.5035 39.9336Z" fill="#00AEEF"/>
<path id="Vector_22" d="M72.6479 15.5912C75.3876 15.5912 77.6085 13.3701 77.6085 10.6304C77.6085 7.89056 75.3876 5.66952 72.6479 5.66952C69.9082 5.66952 67.6873 7.89056 67.6873 10.6304C67.6873 13.3701 69.9082 15.5912 72.6479 15.5912Z" fill="#C9252B"/>
<path id="Vector_23" d="M48.3067 81.0484C51.0464 81.0484 53.2673 78.8273 53.2673 76.0875C53.2673 73.3478 51.0464 71.1267 48.3067 71.1267C45.567 71.1267 43.3461 73.3478 43.3461 76.0875C43.3461 78.8273 45.567 81.0484 48.3067 81.0484Z" fill="#C9252B"/>
<path id="Vector_24" d="M57.5836 20.3695C60.3233 20.3695 62.5442 18.1484 62.5442 15.4086C62.5442 12.6688 60.3233 10.4478 57.5836 10.4478C54.844 10.4478 52.623 12.6688 52.623 15.4086C52.623 18.1484 54.844 20.3695 57.5836 20.3695Z" fill="#C9252B"/>
<path id="Vector_25" d="M74.1082 50.6391C76.8478 50.6391 79.0688 48.4181 79.0688 45.6783C79.0688 42.9385 76.8478 40.7175 74.1082 40.7175C71.3685 40.7175 69.1476 42.9385 69.1476 45.6783C69.1476 48.4181 71.3685 50.6391 74.1082 50.6391Z" fill="#C9252B"/>
<path id="Vector_26" d="M51.4419 59.9702C54.1816 59.9702 56.4025 57.7492 56.4025 55.0094C56.4025 52.2696 54.1816 50.0486 51.4419 50.0486C48.7023 50.0486 46.4814 52.2696 46.4814 55.0094C46.4814 57.7492 48.7023 59.9702 51.4419 59.9702Z" fill="#C9252B"/>
<path id="Vector_27" d="M30.032 76.8821C32.7716 76.8821 34.9926 74.6611 34.9926 71.9213C34.9926 69.1815 32.7716 66.9605 30.032 66.9605C27.2923 66.9605 25.0714 69.1815 25.0714 71.9213C25.0714 74.6611 27.2923 76.8821 30.032 76.8821Z" fill="#C9252B"/>
<path id="Vector_28" d="M45.2788 47.8903C48.0184 47.8903 50.2394 45.6692 50.2394 42.9294C50.2394 40.1897 48.0184 37.9686 45.2788 37.9686C42.5391 37.9686 40.3182 40.1897 40.3182 42.9294C40.3182 45.6692 42.5391 47.8903 45.2788 47.8903Z" fill="#563996"/>
<path id="Vector_29" d="M10.3288 52.368C14.0232 52.368 17.0181 49.3729 17.0181 45.6784C17.0181 41.9838 14.0232 38.9887 10.3288 38.9887C6.63439 38.9887 3.6395 41.9838 3.6395 45.6784C3.6395 49.3729 6.63439 52.368 10.3288 52.368Z" fill="#F01C24"/>
<path id="Vector_30" d="M76.4592 37.5821C79.4124 37.5821 81.8063 35.188 81.8063 32.2347C81.8063 29.2814 79.4124 26.8873 76.4592 26.8873C73.5061 26.8873 71.1121 29.2814 71.1121 32.2347C71.1121 35.188 73.5061 37.5821 76.4592 37.5821Z" fill="#F01C24"/>
<path id="Vector_31" d="M77.0394 25.5236C79.7791 25.5236 82 23.3025 82 20.5628C82 17.823 79.7791 15.6019 77.0394 15.6019C74.2998 15.6019 72.0788 17.823 72.0788 20.5628C72.0788 23.3025 74.2998 25.5236 77.0394 25.5236Z" fill="#00AEEF"/>
<path id="Vector_32" d="M64.8312 64.5982C68.828 64.5982 72.0681 61.358 72.0681 57.3609C72.0681 53.3639 68.828 50.1237 64.8312 50.1237C60.8344 50.1237 57.5943 53.3639 57.5943 57.3609C57.5943 61.358 60.8344 64.5982 64.8312 64.5982Z" fill="#00AEEF"/>
<path id="Vector_33" d="M24.2764 54.0431C27.6683 54.0431 30.4181 51.2932 30.4181 47.9011C30.4181 44.509 27.6683 41.7591 24.2764 41.7591C20.8844 41.7591 18.1347 44.509 18.1347 47.9011C18.1347 51.2932 20.8844 54.0431 24.2764 54.0431Z" fill="#00AEEF"/>
<path id="Vector_34" d="M40.3074 59.0038C43.0471 59.0038 45.268 56.7828 45.268 54.043C45.268 51.3032 43.0471 49.0822 40.3074 49.0822C37.5678 49.0822 35.3469 51.3032 35.3469 54.043C35.3469 56.7828 37.5678 59.0038 40.3074 59.0038Z" fill="#00AEEF"/>
<path id="Vector_35" d="M31.5996 27.4886C35.4244 27.4886 38.5251 24.3878 38.5251 20.5628C38.5251 16.7377 35.4244 13.6369 31.5996 13.6369C27.7747 13.6369 24.6741 16.7377 24.6741 20.5628C24.6741 24.3878 27.7747 27.4886 31.5996 27.4886Z" fill="#C9252B"/>
<path id="Vector_36" d="M13.8403 17.5562C17.6651 17.5562 20.7658 14.4554 20.7658 10.6304C20.7658 6.80532 17.6651 3.70452 13.8403 3.70452C10.0154 3.70452 6.91477 6.80532 6.91477 10.6304C6.91477 14.4554 10.0154 17.5562 13.8403 17.5562Z" fill="#C9252B"/>
<path id="Vector_37" d="M24.2773 8.61166C26.6552 8.61166 28.5829 6.68387 28.5829 4.30583C28.5829 1.92779 26.6552 0 24.2773 0C21.8993 0 19.9716 1.92779 19.9716 4.30583C19.9716 6.68387 21.8993 8.61166 24.2773 8.61166Z" fill="#008AD1"/>
<path id="Vector_38" d="M33.8974 9.34182C33.8974 10.6089 32.8666 11.629 31.6103 11.629C30.3541 11.629 29.3233 10.5981 29.3233 9.34182C29.3233 8.07477 30.3541 7.05469 31.6103 7.05469C32.8666 7.05469 33.8974 8.08551 33.8974 9.34182Z" fill="#00AEEF"/>
<path id="Vector_39" d="M44.1836 17.073C44.1836 18.34 43.1528 19.3601 41.8965 19.3601C40.6403 19.3601 39.6095 18.3293 39.6095 17.073C39.6095 15.8059 40.6403 14.7859 41.8965 14.7859C43.1528 14.7859 44.1836 15.8167 44.1836 17.073Z" fill="#00AEEF"/>
<path id="Vector_40" d="M51.4961 13.9269C51.4961 15.1939 50.4653 16.214 49.209 16.214C47.9528 16.214 46.922 15.1832 46.922 13.9269C46.922 12.6598 47.9528 11.6397 49.209 11.6397C50.4653 11.6397 51.4961 12.6706 51.4961 13.9269Z" fill="#00AEEF"/>
<path id="Vector_41" d="M57.5833 7.04401C57.5833 7.97819 56.8317 8.72983 55.8976 8.72983C54.9634 8.72983 54.2118 7.97819 54.2118 7.04401C54.2118 6.10983 54.9634 5.35818 55.8976 5.35818C56.8317 5.35818 57.5833 6.10983 57.5833 7.04401Z" fill="#563996"/>
<path id="Vector_42" d="M66.0553 47.8903C67.3184 47.8903 68.3423 46.8663 68.3423 45.6031C68.3423 44.34 67.3184 43.316 66.0553 43.316C64.7922 43.316 63.7683 44.34 63.7683 45.6031C63.7683 46.8663 64.7922 47.8903 66.0553 47.8903Z" fill="#00AEEF"/>
<path id="Vector_43" d="M57.5831 76.4957C58.8462 76.4957 59.8702 75.4717 59.8702 74.2085C59.8702 72.9454 58.8462 71.9214 57.5831 71.9214C56.32 71.9214 55.2961 72.9454 55.2961 74.2085C55.2961 75.4717 56.32 76.4957 57.5831 76.4957Z" fill="#00AEEF"/>
<path id="Vector_44" d="M46.9109 64.6197C48.1739 64.6197 49.1979 63.5957 49.1979 62.3325C49.1979 61.0694 48.1739 60.0454 46.9109 60.0454C45.6478 60.0454 44.6238 61.0694 44.6238 62.3325C44.6238 63.5957 45.6478 64.6197 46.9109 64.6197Z" fill="#563996"/>
<path id="Vector_45" d="M70.6405 27.4671C70.6405 28.7341 69.6097 29.7542 68.3535 29.7542C67.0972 29.7542 66.0664 28.7234 66.0664 27.4671C66.0664 26.2 67.0972 25.1799 68.3535 25.1799C69.6097 25.1799 70.6405 26.2108 70.6405 27.4671Z" fill="#00AEEF"/>
<path id="Vector_46" d="M27.9271 12.4881C27.9271 13.7551 26.8963 14.7752 25.6401 14.7752C24.3838 14.7752 23.3531 13.7444 23.3531 12.4881C23.3531 11.221 24.3838 10.201 25.6401 10.201C26.8963 10.201 27.9271 11.2318 27.9271 12.4881Z" fill="#00AEEF"/>
</g>
<defs>
<clipPath id="clip0_0_126">
<rect width="81.6073" height="89.252" fill="white" transform="scale(1.00481)"/>
</clipPath>
</defs>
</svg>
