<svg width="28" height="28" viewBox="0 0 28 28" fill="none" xmlns="http://www.w3.org/2000/svg">
<g id="Icon">
<path id="Vector" d="M25.3516 21L16.0183 4.66664C15.8148 4.30755 15.5197 4.00886 15.1631 3.80106C14.8064 3.59325 14.4011 3.48376 13.9883 3.48376C13.5756 3.48376 13.1702 3.59325 12.8136 3.80106C12.4569 4.00886 12.1618 4.30755 11.9583 4.66664L2.62498 21C2.41927 21.3562 2.31141 21.7605 2.31232 22.1719C2.31323 22.5833 2.42289 22.9871 2.63017 23.3424C2.83745 23.6978 3.13498 23.992 3.49262 24.1953C3.85026 24.3986 4.25529 24.5037 4.66665 24.5H23.3333C23.7427 24.4996 24.1448 24.3914 24.4991 24.1865C24.8535 23.9815 25.1477 23.6869 25.3522 23.3323C25.5568 22.9776 25.6644 22.5754 25.6643 22.166C25.6641 21.7567 25.5563 21.3545 25.3516 21Z" stroke="#9810FA" stroke-width="2.33333" stroke-linecap="round" stroke-linejoin="round"/>
<path id="Vector_2" d="M14 10.5V15.1667" stroke="#9810FA" stroke-width="2.33333" stroke-linecap="round" stroke-linejoin="round"/>
<path id="Vector_3" d="M14 19.8334H14.0117" stroke="#9810FA" stroke-width="2.33333" stroke-linecap="round" stroke-linejoin="round"/>
</g>
</svg>
