<svg width="225" height="19" viewBox="0 0 225 19" fill="none" xmlns="http://www.w3.org/2000/svg">
<path d="M9.511 15L3.633 18.09L4.756 11.545L0 6.91L6.572 5.955L9.511 0L12.45 5.955L19.022 6.91L14.266 11.545L15.389 18.09L9.511 15Z" fill="#FFB800"/>
<path d="M33.511 15L27.633 18.09L28.756 11.545L24 6.91L30.572 5.955L33.511 0L36.45 5.955L43.022 6.91L38.266 11.545L39.389 18.09L33.511 15Z" fill="#FFB800"/>
<path d="M57.511 15L51.633 18.09L52.756 11.545L48 6.91L54.572 5.955L57.511 0L60.45 5.955L67.022 6.91L62.266 11.545L63.389 18.09L57.511 15Z" fill="#FFB800"/>
<path d="M81.511 15L75.633 18.09L76.756 11.545L72 6.91L78.572 5.955L81.511 0L84.45 5.955L91.022 6.91L86.266 11.545L87.389 18.09L81.511 15Z" fill="#FFB800"/>
<path d="M105.511 15L99.633 18.09L100.756 11.545L96 6.91L102.572 5.955L105.511 0L108.45 5.955L115.022 6.91L110.266 11.545L111.389 18.09L105.511 15Z" fill="#FFB800"/>
<path d="M224.309 13.5312C224.309 14.099 224.171 14.5781 223.895 14.9688C223.618 15.3594 223.215 15.6562 222.684 15.8594C222.158 16.0573 221.512 16.1562 220.746 16.1562C220.142 16.1562 219.621 16.112 219.184 16.0234C218.751 15.9401 218.342 15.8099 217.957 15.6328V14.0469C218.368 14.2396 218.829 14.4062 219.34 14.5469C219.855 14.6875 220.342 14.7578 220.801 14.7578C221.405 14.7578 221.84 14.6641 222.105 14.4766C222.371 14.2839 222.504 14.0286 222.504 13.7109C222.504 13.5234 222.449 13.3568 222.34 13.2109C222.236 13.0599 222.038 12.9062 221.746 12.75C221.46 12.5885 221.038 12.3958 220.48 12.1719C219.934 11.9531 219.473 11.7344 219.098 11.5156C218.723 11.2969 218.439 11.0339 218.246 10.7266C218.053 10.4141 217.957 10.0156 217.957 9.53125C217.957 8.76562 218.259 8.1849 218.863 7.78906C219.473 7.38802 220.277 7.1875 221.277 7.1875C221.809 7.1875 222.309 7.24219 222.777 7.35156C223.251 7.45573 223.715 7.60938 224.168 7.8125L223.59 9.19531C223.199 9.02344 222.806 8.88281 222.41 8.77344C222.02 8.65885 221.621 8.60156 221.215 8.60156C220.741 8.60156 220.379 8.67448 220.129 8.82031C219.884 8.96615 219.762 9.17448 219.762 9.44531C219.762 9.64844 219.822 9.82031 219.941 9.96094C220.061 10.1016 220.267 10.2422 220.559 10.3828C220.855 10.5234 221.267 10.6979 221.793 10.9062C222.309 11.1042 222.754 11.3125 223.129 11.5312C223.509 11.7448 223.801 12.0078 224.004 12.3203C224.207 12.6328 224.309 13.0365 224.309 13.5312Z" fill="#375E74"/>
<path d="M212.52 15.9922L211.426 11.9688C211.374 11.7708 211.311 11.5312 211.238 11.25C211.165 10.9688 211.092 10.6797 211.02 10.3828C210.947 10.0807 210.879 9.80208 210.816 9.54688C210.759 9.29167 210.715 9.09375 210.684 8.95312H210.621C210.595 9.09375 210.553 9.29167 210.496 9.54688C210.439 9.80208 210.374 10.0807 210.301 10.3828C210.228 10.6849 210.155 10.9792 210.082 11.2656C210.014 11.5521 209.952 11.7969 209.895 12L208.746 15.9922H206.73L204.309 7.34375H206.168L207.293 11.6406C207.366 11.9323 207.436 12.2474 207.504 12.5859C207.577 12.9245 207.639 13.2474 207.691 13.5547C207.743 13.862 207.783 14.1146 207.809 14.3125H207.871C207.892 14.1719 207.921 13.9948 207.957 13.7812C207.993 13.5625 208.035 13.3359 208.082 13.1016C208.129 12.862 208.176 12.638 208.223 12.4297C208.27 12.2161 208.314 12.0443 208.355 11.9141L209.684 7.34375H211.691L212.965 11.9141C213.022 12.112 213.085 12.362 213.152 12.6641C213.22 12.9609 213.28 13.2604 213.332 13.5625C213.389 13.8594 213.426 14.1068 213.441 14.3047H213.504C213.525 14.1276 213.561 13.888 213.613 13.5859C213.671 13.2786 213.736 12.9531 213.809 12.6094C213.882 12.2604 213.957 11.9375 214.035 11.6406L215.184 7.34375H217.012L214.574 15.9922H212.52Z" fill="#375E74"/>
<path d="M199.676 7.1875C200.447 7.1875 201.108 7.34635 201.66 7.66406C202.212 7.98177 202.637 8.43229 202.934 9.01562C203.23 9.59896 203.379 10.2969 203.379 11.1094V12.0938H197.605C197.626 12.9323 197.85 13.5781 198.277 14.0312C198.71 14.4844 199.314 14.7109 200.09 14.7109C200.642 14.7109 201.137 14.6589 201.574 14.5547C202.017 14.4453 202.473 14.2865 202.941 14.0781V15.5703C202.509 15.7734 202.069 15.9219 201.621 16.0156C201.173 16.1094 200.637 16.1562 200.012 16.1562C199.163 16.1562 198.415 15.9922 197.77 15.6641C197.129 15.3307 196.626 14.8359 196.262 14.1797C195.902 13.5234 195.723 12.7083 195.723 11.7344C195.723 10.7656 195.887 9.94271 196.215 9.26562C196.543 8.58854 197.004 8.07292 197.598 7.71875C198.191 7.36458 198.884 7.1875 199.676 7.1875ZM199.676 8.57031C199.098 8.57031 198.629 8.75781 198.27 9.13281C197.915 9.50781 197.707 10.0573 197.645 10.7812H201.582C201.577 10.349 201.504 9.96615 201.363 9.63281C201.228 9.29948 201.02 9.03906 200.738 8.85156C200.462 8.66406 200.108 8.57031 199.676 8.57031Z" fill="#375E74"/>
<path d="M193.598 7.35156V16H191.762V7.35156H193.598ZM192.691 4.03906C192.973 4.03906 193.215 4.11458 193.418 4.26562C193.626 4.41667 193.73 4.67708 193.73 5.04688C193.73 5.41146 193.626 5.67188 193.418 5.82812C193.215 5.97917 192.973 6.05469 192.691 6.05469C192.4 6.05469 192.152 5.97917 191.949 5.82812C191.751 5.67188 191.652 5.41146 191.652 5.04688C191.652 4.67708 191.751 4.41667 191.949 4.26562C192.152 4.11458 192.4 4.03906 192.691 4.03906Z" fill="#375E74"/>
<path d="M185.191 16L181.902 7.35156H183.848L185.629 12.4297C185.743 12.7526 185.848 13.1016 185.941 13.4766C186.035 13.8516 186.1 14.1667 186.137 14.4219H186.199C186.236 14.1562 186.306 13.8385 186.41 13.4688C186.514 13.0938 186.621 12.7474 186.73 12.4297L188.512 7.35156H190.449L187.16 16H185.191Z" fill="#375E74"/>
<path d="M177.441 7.1875C178.212 7.1875 178.874 7.34635 179.426 7.66406C179.978 7.98177 180.402 8.43229 180.699 9.01562C180.996 9.59896 181.145 10.2969 181.145 11.1094V12.0938H175.371C175.392 12.9323 175.616 13.5781 176.043 14.0312C176.475 14.4844 177.079 14.7109 177.855 14.7109C178.408 14.7109 178.902 14.6589 179.34 14.5547C179.783 14.4453 180.238 14.2865 180.707 14.0781V15.5703C180.275 15.7734 179.835 15.9219 179.387 16.0156C178.939 16.1094 178.402 16.1562 177.777 16.1562C176.928 16.1562 176.181 15.9922 175.535 15.6641C174.895 15.3307 174.392 14.8359 174.027 14.1797C173.668 13.5234 173.488 12.7083 173.488 11.7344C173.488 10.7656 173.652 9.94271 173.98 9.26562C174.309 8.58854 174.77 8.07292 175.363 7.71875C175.957 7.36458 176.65 7.1875 177.441 7.1875ZM177.441 8.57031C176.863 8.57031 176.395 8.75781 176.035 9.13281C175.681 9.50781 175.473 10.0573 175.41 10.7812H179.348C179.342 10.349 179.27 9.96615 179.129 9.63281C178.993 9.29948 178.785 9.03906 178.504 8.85156C178.228 8.66406 177.874 8.57031 177.441 8.57031Z" fill="#375E74"/>
<path d="M171.473 7.1875C171.618 7.1875 171.777 7.19531 171.949 7.21094C172.121 7.22656 172.27 7.2474 172.395 7.27344L172.223 8.99219C172.113 8.96094 171.978 8.9375 171.816 8.92188C171.66 8.90625 171.52 8.89844 171.395 8.89844C171.066 8.89844 170.754 8.95312 170.457 9.0625C170.16 9.16667 169.897 9.32812 169.668 9.54688C169.439 9.76042 169.259 10.0286 169.129 10.3516C168.999 10.6745 168.934 11.0495 168.934 11.4766V16H167.09V7.35156H168.527L168.777 8.875H168.863C169.035 8.56771 169.249 8.28646 169.504 8.03125C169.759 7.77604 170.051 7.57292 170.379 7.42188C170.712 7.26562 171.077 7.1875 171.473 7.1875Z" fill="#375E74"/>
<path d="M157.066 8.85938C157.801 8.85938 158.447 8.99219 159.004 9.25781C159.566 9.51823 160.004 9.90365 160.316 10.4141C160.629 10.9193 160.785 11.5391 160.785 12.2734C160.785 13.0755 160.616 13.7682 160.277 14.3516C159.939 14.9297 159.441 15.375 158.785 15.6875C158.129 16 157.329 16.1562 156.387 16.1562C155.788 16.1562 155.228 16.1042 154.707 16C154.191 15.8958 153.746 15.7396 153.371 15.5312V13.875C153.762 14.0938 154.23 14.2734 154.777 14.4141C155.324 14.5495 155.848 14.6172 156.348 14.6172C156.879 14.6172 157.335 14.5391 157.715 14.3828C158.095 14.2266 158.387 13.987 158.59 13.6641C158.798 13.3411 158.902 12.9323 158.902 12.4375C158.902 11.7812 158.691 11.276 158.27 10.9219C157.853 10.5625 157.199 10.3828 156.309 10.3828C155.996 10.3828 155.663 10.4115 155.309 10.4688C154.96 10.5208 154.668 10.5781 154.434 10.6406L153.629 10.1641L154.059 4.57812H159.996V6.19531H155.676L155.426 9.03906C155.613 8.9974 155.837 8.95833 156.098 8.92188C156.358 8.88021 156.681 8.85938 157.066 8.85938Z" fill="#375E74"/>
<path d="M152.332 4.57812L148.074 16H146.355L150.613 4.57812H152.332Z" fill="#375E74"/>
<path d="M145.496 9.44531C145.496 10.1224 145.447 10.7865 145.348 11.4375C145.254 12.0885 145.087 12.6979 144.848 13.2656C144.613 13.8333 144.288 14.3359 143.871 14.7734C143.46 15.2057 142.939 15.5443 142.309 15.7891C141.678 16.0339 140.918 16.1562 140.027 16.1562C139.803 16.1562 139.543 16.1432 139.246 16.1172C138.954 16.0964 138.715 16.0651 138.527 16.0234V14.4922C138.725 14.5495 138.947 14.5964 139.191 14.6328C139.441 14.6641 139.689 14.6797 139.934 14.6797C140.897 14.6797 141.647 14.5 142.184 14.1406C142.725 13.7812 143.108 13.2865 143.332 12.6562C143.561 12.026 143.691 11.3099 143.723 10.5078H143.629C143.478 10.7578 143.288 10.987 143.059 11.1953C142.829 11.3984 142.546 11.5625 142.207 11.6875C141.868 11.8073 141.457 11.8672 140.973 11.8672C140.316 11.8672 139.743 11.7292 139.254 11.4531C138.77 11.1771 138.392 10.776 138.121 10.25C137.855 9.71875 137.723 9.08073 137.723 8.33594C137.723 7.52865 137.876 6.83333 138.184 6.25C138.491 5.66667 138.926 5.21875 139.488 4.90625C140.051 4.58854 140.712 4.42969 141.473 4.42969C142.046 4.42969 142.574 4.53385 143.059 4.74219C143.548 4.94531 143.975 5.25781 144.34 5.67969C144.704 6.09635 144.988 6.61979 145.191 7.25C145.395 7.875 145.496 8.60677 145.496 9.44531ZM141.496 5.94531C140.918 5.94531 140.447 6.14062 140.082 6.53125C139.717 6.91667 139.535 7.51042 139.535 8.3125C139.535 8.96354 139.691 9.47917 140.004 9.85938C140.316 10.2396 140.796 10.4297 141.441 10.4297C141.889 10.4297 142.275 10.3385 142.598 10.1562C142.926 9.96875 143.178 9.73177 143.355 9.44531C143.538 9.15885 143.629 8.86719 143.629 8.57031C143.629 8.26302 143.585 7.95573 143.496 7.64844C143.413 7.34115 143.283 7.0599 143.105 6.80469C142.928 6.54948 142.704 6.34375 142.434 6.1875C142.168 6.02604 141.855 5.94531 141.496 5.94531Z" fill="#375E74"/>
<path d="M133.715 15.0312C133.715 14.6042 133.824 14.3047 134.043 14.1328C134.267 13.9557 134.538 13.8672 134.855 13.8672C135.173 13.8672 135.444 13.9557 135.668 14.1328C135.897 14.3047 136.012 14.6042 136.012 15.0312C136.012 15.4479 135.897 15.75 135.668 15.9375C135.444 16.1198 135.173 16.2109 134.855 16.2109C134.538 16.2109 134.267 16.1198 134.043 15.9375C133.824 15.75 133.715 15.4479 133.715 15.0312Z" fill="#375E74"/>
<path d="M132.379 13.4922H130.832V16H129.02V13.4922H123.824V12.1016L129.043 4.54688H130.832V11.9688H132.379V13.4922ZM129.02 11.9688V9.13281C129.02 8.89844 129.022 8.66146 129.027 8.42188C129.038 8.17708 129.048 7.94271 129.059 7.71875C129.069 7.49479 129.079 7.28906 129.09 7.10156C129.1 6.90885 129.108 6.75 129.113 6.625H129.051C128.952 6.83333 128.842 7.04688 128.723 7.26562C128.603 7.47917 128.475 7.6875 128.34 7.89062L125.527 11.9688H129.02Z" fill="#375E74"/>
</svg>
