<svg width="2256" height="1572" viewBox="0 0 2256 1572" fill="none" xmlns="http://www.w3.org/2000/svg">
<g clip-path="url(#clip0_3329_4160)">
<path d="M1767.48 1356.33V1357.77L1768.24 1371.46C1755.1 1378.15 1743.47 1385.61 1730.68 1393.06L1643.41 1443.85L1609.2 1423.54L1518.73 1371.04L1519.14 1252.76L1455.55 1197.43L1402.7 1151.39C1404.58 1153.03 1366.81 1119.55 1372.54 1125.27L1363.14 1115.9L1345.27 1100.04C1341.39 1096.6 1338.11 1091.99 1333.68 1089.63C1331.1 1088.26 1331.06 1086.63 1329.39 1084.73C1313.59 1066.72 1297.81 1043.71 1286.22 1022.57L1282.79 1016.31C1280.84 1012.75 1279.5 1008.41 1277.31 1005.05C1275.9 1002.89 1274.99 1001.55 1274.01 999.22C1268.71 986.53 1262 975.12 1255.32 963.02C1245.13 944.57 1234.19 927.11 1219.61 911.53L1196.3 924.91C1197.25 936.54 1197.19 947.21 1197.19 958.89V1060.87L1197.48 1323.4C1197.03 1328.34 1199.3 1329.63 1202.77 1331.58L1253.88 1360.21V1499.4C1250.29 1500.9 1247.71 1502.05 1244.59 1503.86L1149.29 1559.19L1128.75 1571.2L1003.05 1499.33V1360.48L1030.47 1344.68L1058.64 1328.53L1059.14 1226.53L1059.25 952.04C1059.25 942.44 1059.38 934.35 1060.13 924.87L1036.43 911.02C1018.88 932.78 1005.5 956.26 992.32 980.79L964.54 1032.47L949.59 1057.01C945.84 1063.17 933.6 1077.69 927.56 1083.83C912.38 1099.25 896.59 1113.14 880.4 1127.47L848.41 1155.78L793.93 1203.88C791.8 1205.76 790.29 1207.24 788.06 1209.16L736.49 1253.42C734.61 1255.04 736.97 1253.95 736.96 1261.72L736.89 1370.54C730.58 1374.68 725.1 1378.01 718.63 1381.77L612.12 1443.65L575.66 1422.5L508.75 1383.49C501.52 1379.27 494.51 1376.27 487.71 1371.47L487.83 1232.38L500.66 1225.52L598.68 1168.95L612.59 1160.71L642.13 1177.22L679.75 1144.73L735.67 1096.83C737.88 1094.94 738.75 1093.03 741.59 1091.41C742.21 1091.06 756.27 1078.9 758.7 1076.84L770.04 1067.18C772.67 1064.94 779.19 1058.62 781.73 1056.93C789.36 1051.88 807.55 1034.15 808.25 1033.68C811.57 1031.49 813.41 1028.74 816.13 1026.18C821.81 1020.85 827.01 1015.24 832.29 1008.98L838.07 1002.13C839.98 999.87 841.67 996.04 843.68 994.12C846.95 990.99 848.19 987.9 850.42 984.47L864.92 962.16L896.23 908.52C907.18 889.77 919.85 872.88 935.17 857.65C935.96 856.86 936.91 856.38 936.86 855.36C936.82 854.53 935.8 854.08 934.85 853.57L914.04 842.33C893.27 858.62 874.31 876.15 854.72 893.9C813.13 931.56 774.53 954.19 720.8 971.1L613.61 1004.83L478.39 1047.18L423.82 1064.67C421.64 1065.37 420.06 1066.03 417.78 1066.74L383.49 1077.42C381.31 1091.15 384.21 1100.06 383.13 1113.76C376.6 1116.42 371.53 1119.95 365.42 1123.47L254.86 1187.05L214.57 1163.72L130.29 1114.65L130.48 1017.84C130.51 1002.8 130.63 988.78 129.97 973.4L256.81 900.69L291.75 920.69L329.83 942.72L373.47 967.48C381.85 964.17 389.18 962.14 397.44 959.68L498.28 929.64L627.93 891.65L656.62 883.32C664.32 881.08 671.82 879.41 679.3 876.64C688.56 873.22 697.68 870.45 706.63 866.03C712.48 863.14 718.39 861.19 723.9 857.32C725.71 856.05 728.19 854.84 730.16 853.76L741.95 847.34C746.72 844.74 750.39 841.03 755.13 838.52L762.44 834.65L782.26 820.4C783.89 819.23 785.2 818.51 786.87 817.36L823.77 792.14C824.78 791.45 824.39 790.43 823.59 789.98L797.05 774.96C751.88 789.99 677.8 806.75 630.47 806.81L410.76 807.06H288.7L147.15 807.43L141.1 836.83L1.96992 836.64C0.259922 836.64 -0.0800781 835.39 -0.0800781 833.83L0.339922 716.93L7.48992 649.01C8.12992 642.95 9.86992 630.47 9.56992 625.67C9.46992 624.04 12.5799 623.77 13.9199 623.77L149.69 623.81C150.84 623.81 151.59 623.7 152 624.02C152.33 624.28 152.78 625.03 152.8 625.99L153.48 666.94L153.69 705.98C153.7 707.9 154.98 708.05 156.84 708.04L238.93 707.93L603.45 708.38C635.17 708.42 665.44 707.68 696.67 703.19L768.61 692.84C773.07 692.2 777.59 691.83 782.62 690.39C777.92 690.28 772.87 689.86 768.6 691.63C740.44 692.49 717.7 693.28 688.56 692.2C667.41 691.42 633.22 686.76 613.57 679.56L601.16 675.01C592.09 671.69 585.62 668 576.28 664.11L569.9 661.45C562.17 658.23 554.97 654.82 547.49 651.29L535.13 645.45L529.11 642.58C526.31 641.24 524.34 640.16 521.65 638.91L498.8 628.26C490.63 624.45 482.82 619.95 474.35 616.56C467.22 613.71 464.47 611.39 457.52 607.99L313.55 537.56C309.6 535.63 306.8 533.55 302.77 532.14L272 550.73L244.66 534.87C241.09 535.04 239.73 532.21 237 530.65L146.56 478.84L146.74 386.23L146.22 341.16L195.8 312.41L257.34 277C259.21 275.92 259.65 274.18 262.32 273.82C265.68 273.37 268.12 269.97 271.87 269.02L303.22 286.68L396.68 339.58L396.77 426.92C396.77 429.78 394.35 432.49 397.07 435.23L396.65 454.08C396.61 455.84 395.45 458.05 397.92 458.92C404.94 461.4 411.01 465.58 417.7 468.95C427.28 473.78 436.73 477.88 445.71 483.25C453.06 487.65 454.47 486.99 462.52 492.12C464.39 493.31 467.31 494.09 469.36 495.14L479.32 500.22L495.39 508.17C500.77 510.83 506.01 513.12 511.11 516.49C513.82 518.28 517.43 518.05 519.72 521.08C520.51 522.13 522.98 521.92 524.31 522.59L560.1 540.54L577.72 549.59L651.35 586.14L656.65 589.05C674.23 598.72 693.5 603.82 713.11 608.53C714.8 608.94 754.59 616.23 752.57 616.25L758.24 616.18C760.77 618.1 762.25 617.08 764.64 617.29C772.42 617.97 780.03 618.5 787.54 620.18C790.28 620.79 793.15 620.18 796.13 619.42L795.89 546.08L795.92 482.58L673.99 348.95L643.85 315.51L631.35 322.96L549.42 276.34L508.92 252.89C509.71 248.48 509.66 244.66 509.66 240.11L509.76 139.41C509.76 132.09 509.67 125.7 509.25 118.6L597.92 67.86C610.1 60.89 621.89 55.11 633.52 47.22L703.5 86.67L757.59 117.67L757.77 247.54L749.8 253.17L773.05 277.71L838.24 349.38C843.7 355.39 849.37 360.2 854.15 366.72C854.63 367.38 854.49 368.99 854.67 369.56C854.85 370.13 856.88 370.37 857.56 369.87C865.74 363.94 874.03 359.83 883.01 354.72L1024.97 273.97L1064.58 250.99L1064.96 190C1064.98 187.38 1061.73 187.6 1059.46 186.78L1059.54 57.51L1060.11 0.16002L1195.02 0.0200195L1196.23 76.39L1196.56 186.72C1194.06 187.48 1192.33 187.11 1190.59 188.35L1191.01 250.23L1224.25 269.34L1343.9 337.41L1398.57 368.98C1402.11 368.56 1403.44 363.43 1405.65 361.55C1408.58 359.06 1410.09 356.09 1412.65 353.44C1415.21 350.79 1424.7 342.35 1426.49 339.27C1429.3 334.43 1433.08 330.86 1437.54 327.47C1442 324.08 1443.47 317.84 1447.94 315.03C1451 313.11 1451.85 310.07 1454.24 307.86C1457.86 304.52 1460.75 301.61 1463.58 297.2C1465.16 294.74 1470.05 294.05 1470.21 290.02C1470.27 288.54 1472.06 288.56 1472.85 287.76C1482.89 277.79 1495.81 261.9 1504.41 254.5C1507.54 251.8 1499.35 250.66 1497.71 247.84L1497.55 213.16L1497.38 117.85C1500.31 116.53 1502.57 115.52 1504.12 113C1508.36 112.48 1511.48 110.46 1515.13 107.89L1620.69 47.41L1745.41 118.12L1745.13 252.84L1730.54 261.57L1628.86 320.52C1620.7 325.25 1622.09 321.4 1610.99 315.15L1566.08 365.94L1535.88 399.68L1490.9 449.82L1466.85 475.51C1464.93 477.56 1463.88 480.24 1460.88 481.94L1461.06 573.04C1461.06 576.21 1461.51 578.16 1461.46 581.18L1460.83 616.99C1460.81 618 1460.9 618.97 1461.23 619.46C1461.83 620.35 1463.11 620 1464.44 619.87C1487.04 617.71 1508.68 614.88 1530.91 610.69C1556.07 605.94 1579.44 598.47 1602.28 586.97C1613.78 581.18 1624.34 575.04 1635.96 569.87L1645.56 565.61C1647.73 564.65 1649.84 562.85 1651.93 562.04C1654.74 560.95 1657.07 559.81 1659.63 558.55L1681.77 547.67L1703.46 536.63L1758.31 509.09L1765.77 505.4L1815.76 479.7C1817.94 478.58 1819.28 477.67 1821.74 476.44L1857.64 458.4L1857.05 419.37C1856.97 414.35 1857.71 409.49 1856.93 404.51C1856.76 403.4 1855.6 402.47 1855.35 401.66C1855.03 400.62 1857.23 399.85 1857.26 398.77C1857.75 383.57 1858.1 368.57 1857.3 353.17C1857.14 350.09 1857.13 347.29 1857.12 344.27C1857.12 335.47 1864.12 336.38 1864.1 336.39L1979.16 270.71C1981.92 269.13 1983.89 268.3 1986.46 271.11L2041.81 302.54L2108.03 340.53L2107.83 474.92C2107.83 478.42 2107.99 479.17 2104.73 480.59C2097.23 483.86 2090.87 488.52 2083.54 492.72L1982.93 550.34L1951.21 532.01C1939.22 539.15 1927.63 544.43 1915.33 550.5L1831.95 591.58L1826.46 594.52L1712.19 648.93L1664.55 670.27C1641.92 680.41 1619.26 687.35 1594.16 689.74C1554.65 693.5 1515.83 693.41 1476.22 690.12C1447.16 687.71 1492.59 693.6 1484.45 692.39L1545.71 701.49C1570.37 705.15 1594.13 708.1 1619.29 708.09L1728.31 708.02L2094.76 707.99C2096.6 707.99 2097.18 708.24 2098.45 708.14C2099.3 708.07 2099.7 707.53 2099.72 705.98L2100.33 667L2101.5 623.79L2175.96 623.74L2239.96 623.58C2241.18 623.58 2242.54 623.4 2243.1 623.99C2243.55 624.47 2244.04 625.73 2244.19 627.04L2254.57 713.97L2255.02 830.79C2255.02 832.64 2254.94 834.59 2254.48 835.98C2254.25 836.67 2236.65 837.02 2238.34 837.2L2231.82 836.49L2113.46 837.02L2106.53 807.14L1827.15 807.01L1624.33 806.72C1573.96 806.65 1507.61 789.81 1459.08 776.03C1456.43 775.28 1454.54 777.89 1452.34 778.08C1449.49 778.33 1448.74 780.03 1446.91 781.34C1442.09 784.78 1430.59 789.33 1431.21 791.36C1431.13 791.09 1462.96 813.68 1465.66 815.45L1479.56 824.6C1508.12 843.4 1538.96 865.33 1572.86 875.22L1625.74 890.64L1866.61 962.08C1882.63 966.83 1880.42 968.54 1888.35 963.95L1995.24 902.07C1996.83 901.15 1997.89 900.62 1999.6 901.61L2124.6 973.05L2124.29 1048.69L2124.76 1113.87L2037.81 1165.19C2026.8 1171.69 2016.08 1177.18 2005.82 1184.25C2001.99 1186.89 1998.93 1187.52 1995.07 1184.68L1992.16 1182.55L1960.31 1164.07L1875.48 1115.24C1873.3 1113.99 1871.08 1112.99 1871.56 1110.33C1872.53 1104.88 1870.95 1099.35 1872.28 1094.05C1873.71 1088.36 1873.32 1082.71 1872.46 1077.3C1872.11 1075.09 1870.37 1076.73 1869.2 1076.35L1828.88 1063.3L1821.48 1061.01L1682.27 1017.26L1618.29 997.21L1582.44 986.19L1565.11 980.53L1526.27 968.32C1521.1 966.7 1515.84 964.93 1510.82 962.87L1481.81 950.97C1475.02 948.18 1459.76 937.47 1450.44 932.56C1447.77 931.16 1445.23 928.53 1442.47 926.64C1420.57 911.65 1401.31 894.38 1381.94 876.24C1369.39 864.49 1356.78 854.21 1343.15 843.94C1340.38 841.85 1340.12 843.38 1338.14 844.46L1321.36 853.64C1320.46 854.13 1318.79 854.81 1318.55 855.36C1318.13 856.29 1319.09 856.78 1319.85 857.47C1336.85 872.8 1350.12 890.61 1361.63 910.37L1391.13 961.02C1410.51 994.3 1425.34 1015 1454.8 1040.33L1570.18 1139.56L1611.43 1175.33C1613.16 1176.83 1615.16 1176.48 1616.9 1175.49L1641.11 1161.7C1642.07 1161.15 1643.48 1160.94 1644.45 1161.5L1697.19 1191.8L1765.05 1230.56C1770.28 1233.55 1767.76 1242.87 1767.75 1246.42L1767.42 1356.33H1767.48ZM1192.03 54.93L1191.71 3.23002L1063.4 3.35002L1062.93 82.43L1192.57 82.47L1192.03 54.93ZM717.08 139.39L752.17 118.96C746.81 115.53 741.81 112.2 736.21 109.61C733.06 108.15 729.18 107.86 727.26 104.51C714.55 96.11 701.31 89.53 687.91 81.91L633.86 51.14L535.98 107.35L514.73 119.23L546.81 137.44C552.09 140.44 557.33 143.48 562.59 146.46L577.31 154.79L609.8 173.23L623.17 180.85C626.99 183.03 630.57 185 634.29 187.11L717.08 139.39ZM1650.3 170.86L1702.44 140.61C1714.89 133.38 1726.92 127.23 1739.73 118.85L1705.21 99.27C1698.75 94.88 1692.25 91.76 1685.34 88.05L1620.79 51.07L1513.98 112.55C1509.68 115.03 1506.18 117.08 1501.19 118.69L1538.98 139.73L1602.58 175.91L1621.67 187.28L1650.31 170.85L1650.3 170.86ZM1172.98 85.79C1166.78 85.87 1161.33 84.32 1155.75 85.79L1105.96 85.67L1063.28 85.34L1063.33 184.32H1192.5L1192.6 86.55C1185.92 84.32 1179.86 85.7 1172.97 85.79H1172.98ZM569.42 283.65C572.39 284.07 574.51 285.5 576.48 287.64L631.89 318.95L631.75 190.29L587.72 165C585.55 163.75 582.78 163.88 581.51 161.24C576.63 158.69 572.19 156.17 567.36 153.41L513.11 122.3C512.11 126.85 513.45 130.83 513.42 135.27L513.15 176.23C513.12 181.13 512.94 185.4 513.18 190.27C514.24 211.93 512.03 229.54 512.94 250.79C525.66 257.2 539.16 267.26 550.78 272.13C552.84 272.99 564.99 281.43 569.42 283.64V283.65ZM646.72 307.07C658.44 301.19 668.71 295.28 679.13 288.84C681.02 287.67 682.07 285.06 685.12 285.87L709.6 272.03L754.46 245.68L754.5 121.85L731.66 135.05C730.34 138.25 727.16 137.84 724.61 139.29L635.29 190.27L634.89 286.1C634.87 290.38 635.83 293.35 638.33 296.44C641.15 299.92 642.65 304.5 646.73 307.08L646.72 307.07ZM1660.87 297.92C1668.11 293.72 1675.34 290.16 1682.17 285.3C1677.92 288.32 1700.68 274.1 1696.39 276.42L1713.16 267.33L1741.98 250.21V138.89C1741.4 133.12 1743.4 127.86 1741.31 121.99L1725.83 131.66L1708.42 141.37L1634.91 183.77C1630.67 186.22 1626.21 187.19 1622.45 190.75C1622.81 213.84 1622.67 236.34 1622.54 259.37L1622.37 290.01C1622.31 299.73 1623.07 309.05 1623.29 319.7L1660.87 297.92ZM1619.26 283.63L1619.31 193.49C1619.31 190.58 1616.84 189.09 1615.05 187.29L1566.73 159.55L1501.05 122.74L1500.8 245.81L1601.04 303.19C1603.12 304.38 1604.85 304.81 1606.97 304.85C1614.65 297.7 1619.26 295.04 1619.26 283.63ZM1280.95 504.49L1305.19 490.88L1350.93 464.64C1362.71 457.88 1374.28 451.92 1385.69 444.52C1390.08 441.67 1394.55 439.6 1399.16 436.93L1454.05 405.11C1457.37 403.18 1453.34 403.45 1446.61 399.62L1406.04 376.51L1388.39 366.91L1291.57 311.38L1276.57 303.16L1256.73 292.09C1248 287.22 1239.9 281.21 1230.93 277.44C1227.39 275.95 1225.5 276.1 1222.7 272.57C1220.86 270.25 1216.07 268.44 1212.92 266.65L1128.49 218.66L1091.41 240.27L1057.05 259.59C1055.95 262.83 1052.94 262.16 1050.55 263.52L928.58 333.12L896.64 351.24L827.06 390.46C817.94 395.6 809.94 400.76 799.47 404.44L837.46 425.47L984.44 508.95L1045.43 543.34L1090.58 569.12L1101.26 575.4C1106.19 578.3 1110.72 581.23 1115.85 583.81C1120.41 586.11 1123.94 590.1 1129.7 591.39L1186.11 558.67L1280.95 504.48V504.49ZM342.13 369.95L392.07 341.18L351.12 317.67L325.85 303.15C320.83 303.38 318.33 299.38 314.76 297.29L286.91 281.04L271.48 272.65L203.69 311.78L173.86 329.2C166.49 333.5 159.75 337.22 151.06 341.65L213.48 377.58L272.1 410.54L322.75 381.21L342.13 369.94V369.95ZM2056.92 368.68C2066.92 362.98 2076.22 358.75 2085.21 352.4C2091.37 348.75 2097.65 345.91 2103.39 341.54L2078.6 327.58L1982.72 272.49L1922.81 306.66L1893.01 324.03L1862.48 340.91L1940.43 385.88L1983.06 410.8L2056.93 368.68H2056.92ZM299.92 516.19C306.38 511.84 312.76 508.52 319.44 504.58L357.8 481.95C369.37 475.12 380.35 468.28 391.53 460.88C393.85 459.34 392.84 454.55 392.84 452.01L392.98 344.5L341.17 374.48L273.59 413.64L273.85 529.01C273.86 534.62 274.98 538.92 273.61 545.57C282.55 540.3 290.42 536.17 298.66 530.04C296.33 527.52 292.05 526.28 292.24 523C292.45 519.39 297.33 517.93 299.92 516.18V516.19ZM1957.34 531.96C1965.23 535.7 1972.28 540.36 1980.11 545.15L1980.3 413.41L1947.75 394.27L1889.49 360.65L1861.02 344.85L1860.92 458.77C1866.15 464.07 1872.03 466.89 1877.91 470.52L1898.2 483.04L1958.01 518.96C1959.61 519.92 1960.72 522.34 1960.9 523.58C1961.32 526.58 1952.86 529.83 1957.36 531.95L1957.34 531.96ZM270.4 427.12L269.97 413C264.51 410.81 260.22 407.47 255.2 404.9L239.8 397L180 362.9C177.86 361.68 176.16 361.13 174.24 359.73C167.09 354.51 159.25 351.08 151.6 346.42C151.03 346.07 150.17 347.24 149.96 347.67C149.82 347.96 150.79 348.69 150.79 349.34L150.53 386.12C150.46 395.62 150.7 404.62 150.68 414.15L150.56 460.06C150.55 465.52 151.4 470.45 150.52 476.16L168.36 486.92L270.82 545.97L270.42 427.13L270.4 427.12ZM1983.82 535.27C1983.8 539.22 1980.45 542.56 1983.35 546.51L2024.4 522.51L2076.53 492.73L2104.35 476.21L2104.42 352.38C2104.42 349.92 2106.21 347.76 2104.06 345.66L2068.46 366.23C2057.47 372.58 2046.97 378.58 2035.91 384.84L2003.36 403.27L1983.15 414.19L1983.1 466.98L1984.19 471.2L1983.83 535.27H1983.82ZM1028.01 901.38C1030.52 902.61 1031.28 903.07 1033.73 904.7L1046.88 913.45C1059.51 919.2 1070.71 926.38 1082.82 933.24L1126.32 957.87L1126.49 595.05L1082.77 569.55C1075.67 565.41 1069.25 561.23 1061.82 557.68C1054.19 553.42 1047.25 548.09 1039.2 545.13C1037.04 544.34 1036.49 543.13 1034.29 541.88L825.7 423.14L801.76 409.88C800.4 409.13 800.06 407.75 798.94 408.76C797.51 410.05 798.51 410.82 798.52 412.33L798.98 476.84L799.52 616.67L798.26 627.33L798.76 737.82L799.11 769.79C799.14 772.98 803.36 774.42 805.55 775.7L824.6 786.88L890.77 824.65C906.67 833.73 921.68 842.47 938 850.48C943.24 853.05 947.66 857.37 953.16 859.09C955.78 859.91 956.6 861.57 958.64 862.79C971.92 870.69 985.13 878.22 999.03 885.11C1008.22 889.67 1015.71 895.35 1027.98 901.38H1028.01ZM1130.59 957.69L1167.6 936.95L1219.66 908.02L1314.55 853.25L1343.18 837.43L1400.04 804.79L1453.16 773.97C1455.29 772.74 1457.32 771.85 1457.32 768.59L1457.38 407.87C1451.68 409.91 1447.44 414.07 1442.34 416.99L1404.18 438.76L1333.81 479.24L1315.78 489.39C1302.49 496.87 1289.8 504.51 1276.44 511.97L1256.43 523.14L1147.39 585.58C1141.68 588.85 1136.67 591.48 1130.44 594.71L1130.6 957.69H1130.59ZM116.89 713.1C123.85 713.1 130.44 715.49 137.52 713.38C139.16 707.23 138.49 700.52 139.36 694.2L143.13 666.91L148.73 631.79C148.91 630.68 149.38 627.14 147.61 627.14L14.4799 627.08C11.7299 633.08 13.8199 639.15 12.4299 644.63C11.1399 649.73 9.37992 671.6 8.40992 678.97L6.30992 694.89C5.54992 700.65 4.32992 706.47 4.40992 712.57C9.13992 715.81 14.9599 713.13 20.9299 713.13L116.88 713.11L116.89 713.1ZM2251.55 713.91L2240.25 626.86L2105.39 627.11L2113.52 683.3L2117.09 714.11L2251.55 713.9V713.91ZM2111.37 814.62C2112.49 813.25 2112.75 811.61 2112.76 809.83L2113.1 708.19L2104.44 642.83L2103.57 694.73C2102.14 715.17 2103.49 734.94 2105.36 755.31L2107.88 782.81L2111.37 814.62ZM146.38 781.64C149.46 754.07 151.09 727.5 150.49 700.22L149.36 648.82C144.96 673.27 140.92 697.5 141.18 723L142.11 814.68C144.88 802.88 145.1 793.06 146.37 781.65L146.38 781.64ZM137.96 718.89C136.46 717.36 135.7 717.15 134.38 717.11L3.77992 716.84L3.74992 833.1L138.14 833.24L137.96 718.89ZM2251.27 833.03L2251.53 782.08L2251.78 717.03L2116.98 717.15L2116.51 791.25L2116.35 833.14L2251.26 833.03H2251.27ZM326.79 1003.41L378.4 974.63L338.25 951.2C331.8 947.44 325.42 944.35 318.72 940.91C310.87 935.34 302.82 930.64 293.96 926.66C292.59 926.05 291.98 924.34 290.6 923.81C285.6 921.88 270.34 911.86 261.32 907.32C259.74 906.53 257.6 903.56 255.2 904.96L224.78 922.73L134.81 974.73L163.19 991.28L214.77 1020.68L234.85 1032.69L255.27 1044.11C262.03 1041.25 267.22 1037.61 273.07 1034.28L300.49 1018.66L326.78 1003.42L326.79 1003.41ZM2089.41 992.63L2120.46 973.86C2114.26 971.4 2109.64 968.46 2104.38 965.41L2072.07 946.65L2026.71 921.08L2014.52 914.14C2000.6 906.22 1999.73 903.01 1991.9 907.59L1935.11 940.74L1887.65 968.1C1883.36 970.57 1879.54 972.93 1875.17 974.13C1885.64 978.96 1894.46 984.29 1904.27 989.82L1970.7 1027.27L2000.15 1044.34L2089.41 992.63ZM360.31 1122.06C366.61 1118.32 373.37 1115.69 379.5 1111.3C381.32 1101.08 380.56 1091.15 380.58 1080.67L380.67 1015.78L380.3 977L347.23 996.05C339.88 1000.85 332.44 1004.26 324.74 1008.66L256.42 1047.73L256.88 1181.83L308.18 1152.32C313.4 1148.88 319.03 1146.88 323.8 1142.82C336.53 1137 348.28 1129.21 360.3 1122.08L360.31 1122.06ZM1917.47 1135.18L1969.48 1165.29L1998.18 1181.89L1997.73 1046.95L1957.13 1023.57L1907.1 995.58C1896.48 989.15 1886.56 983.1 1874.96 977.61C1876.9 988.98 1876.36 999.02 1875.28 1009.49C1875 1012.15 1877.38 1015.29 1875.08 1018.04L1874.87 1067.68C1874.86 1071.31 1875.88 1074.35 1875.91 1077.77L1876.17 1110.9C1886.42 1118.24 1897.59 1123.94 1908.64 1130.18L1917.48 1135.18H1917.47ZM2036.76 1161.89L2092.99 1128.78C2102.66 1123.09 2111.8 1118.01 2121.2 1112.04L2121.28 977.44L2085.72 998.46L2000.99 1047.64L2001.02 1182.76L2036.77 1161.9L2036.76 1161.89ZM231.7 1169.32C239.16 1173.58 245.87 1177.06 253.11 1182.01L252.99 1047.07L212.19 1023.17L144.97 984.73L134.93 978.71L134.75 1106.66C134.75 1110.14 133.6 1111.44 137 1113.98C144.07 1119.27 152.43 1122.98 160.09 1127.54L170.15 1133.53L181.29 1140.53L231.71 1169.34L231.7 1169.32ZM574.96 1279.97L612.84 1301.73C617.27 1300.43 620.35 1297.55 624.39 1295.22L695.83 1253.94L733 1232.18L712.49 1220.7L612.89 1164.34L587.33 1179.28L518.82 1218.63L494.17 1232.86C493.01 1234.39 496.49 1235.38 497.87 1236.16L548.46 1264.83L574.96 1279.96V1279.97ZM1751.19 1227.08C1742.06 1221.93 1735.47 1218.01 1726.72 1212.93L1709.11 1202.71C1704.12 1199.81 1699.34 1197.14 1694.42 1194.37L1680.41 1186.47C1677.7 1184.94 1675.4 1183.49 1672.79 1181.96L1652.69 1170.13C1649.25 1168.1 1646.59 1165.25 1642.15 1164.63L1537.75 1224.01C1532.61 1226.93 1527.82 1228.87 1523 1232.47L1581.31 1265.77L1609.25 1281.91L1643.1 1302.07L1692.61 1273.1L1762.27 1233.32L1751.21 1227.08H1751.19ZM692.55 1393.09L732.93 1368.81C734.76 1367.71 732.84 1364.78 732.85 1363.22L733.38 1268.51L734.27 1235.16C726.5 1238.92 720.13 1243.5 712.75 1247.8L642.87 1288.56L614.41 1304.56L614.5 1438.65L637.47 1425.2L692.55 1393.09ZM610.97 1438.74L611.05 1377.52L610.79 1304.3L594.07 1295.12L569.4 1280.66L507.99 1246.39C502.34 1243.24 497.4 1239.99 491.65 1236.49C489.85 1238.84 491.57 1240.98 491.56 1243.7L491.4 1348.47C491.39 1355.88 490.44 1362.26 491.43 1369.71L519.56 1385.86L562 1410.38L589.64 1426.38C598.22 1431.35 601.57 1432.81 610.98 1438.73L610.97 1438.74ZM1639.99 1437.43L1640.7 1389.49L1640.4 1304.19L1579.05 1268.64L1532.09 1241.79C1529.18 1239.52 1526.25 1237.6 1522.76 1236.48C1521.44 1242.06 1522.39 1246.97 1522.39 1252.72V1367.34C1524.92 1371.26 1528.96 1372.36 1532.55 1374.56L1551.05 1385.89L1583.49 1404.41L1640 1437.42L1639.99 1437.43ZM1699.19 1407.2L1713.42 1398.84C1716.83 1396.84 1720.74 1395.92 1723.2 1392.48C1727.53 1391.53 1730.45 1388.61 1734.04 1386.56L1764.27 1369.3L1764.15 1236.06L1721.29 1260.62L1689.6 1278.98L1644.08 1304.87L1644.27 1439.66C1648.92 1436.39 1654.35 1434.49 1658.41 1430.79C1661.05 1428.38 1663.5 1427.49 1666.49 1425.83L1688.36 1413.7L1699.17 1407.2H1699.19ZM1104.84 1416.29L1124.81 1428.19C1127.31 1429.68 1129.18 1430.66 1131.94 1429L1153.17 1416.22L1248.72 1361.34L1187.4 1325.75L1132.78 1294.27C1130.48 1291.32 1127.12 1291.05 1124.21 1293.39C1118.19 1298.24 1111.54 1301.35 1104.94 1305.18L1071.48 1324.6L1045.85 1339.76C1033.02 1347.35 1020.9 1354.62 1006.84 1361.55L1020.93 1369.22C1030.17 1375.16 1039.88 1379.5 1049.41 1384.79C1053.06 1386.82 1056.19 1389.19 1059.95 1391.26L1077.98 1401.16C1086.24 1405.7 1096.92 1411.58 1104.85 1416.29H1104.84ZM1130.28 1566.89L1171.9 1542.92L1250.3 1496.68L1250.23 1364.35L1193.13 1397.01L1129.96 1432.77L1130.28 1566.88V1566.89ZM1126.94 1565.93L1126.67 1433.44L1040.51 1384.49C1036.02 1381.94 1032.24 1379.44 1027.73 1377.28L1006.41 1365.38V1496.62C1011.95 1500.67 1017.34 1503.57 1023.24 1506.93L1072.22 1534.82L1085.76 1542.42C1092.53 1546.23 1099.61 1549.29 1105.76 1554.29L1126.95 1565.93H1126.94Z" fill="#050404"/>
<path d="M768.689 692.82V691.61C772.949 689.84 777.999 690.26 782.699 690.37C777.669 691.81 773.149 692.18 768.689 692.82Z" fill="#6DA9C6"/>
<path d="M1767.48 1357.77V1356.33C1769.17 1356.54 1769.37 1357.49 1767.48 1357.77Z" fill="#6DA9C6"/>
<path d="M1028.01 901.38C1015.74 895.35 1008.25 889.67 999.06 885.11C985.16 878.22 971.95 870.68 958.67 862.79C956.63 861.57 955.81 859.91 953.19 859.09C947.69 857.37 943.271 853.05 938.031 850.48C921.711 842.47 906.7 833.73 890.8 824.65L824.63 786.88L805.58 775.7C803.39 774.42 799.17 772.98 799.14 769.79L798.79 737.82L798.29 627.33L799.55 616.67L799.01 476.84L798.55 412.33C798.54 410.82 797.54 410.06 798.97 408.76C800.1 407.74 800.43 409.12 801.79 409.88L825.73 423.14L1034.32 541.88C1036.52 543.13 1037.07 544.34 1039.23 545.13C1047.27 548.09 1054.21 553.42 1061.85 557.68C1069.27 561.23 1075.69 565.41 1082.8 569.55L1126.52 595.05L1126.35 957.87L1082.85 933.24C1070.73 926.38 1059.54 919.21 1046.91 913.45L1033.76 904.7C1031.31 903.07 1030.55 902.61 1028.04 901.38H1028.01ZM972.82 749.29C961.85 742.81 951.36 737.59 942.31 729.19C919.8 708.29 905.19 677.56 909.59 646.25C910.41 640.4 913.72 636.09 916.65 631.19C920.69 624.42 927.45 619.73 934.94 617.08C937.18 616.29 939.53 618.08 941.54 616.08C928.81 611.08 918.6 603.48 906.67 596.34C906.71 614.07 907.5 630.12 906.41 646.69C902.95 698.96 927.17 727.91 969.38 751.92L1016.27 778.6L1016.37 722.95C1015.46 723.8 1014.67 725.14 1014.66 726.06L1014.1 773.66L972.83 749.29H972.82ZM987.19 734.77C1000.23 736.47 1013.65 727.26 1016.04 714.87C1019.87 695.02 1009.8 672.62 999.12 656.46C990.01 642.69 967.39 620.85 950.64 622.26C943.3 622.88 935.87 628.15 932.3 634.29C920.15 655.23 929.84 683 942.3 701.68C950.74 714.33 969.63 732.47 987.2 734.76L987.19 734.77Z" fill="#6DA9C6"/>
<path d="M1130.59 957.69L1130.43 594.71C1136.66 591.48 1141.66 588.85 1147.38 585.58L1256.42 523.14L1276.43 511.97C1289.79 504.52 1302.48 496.87 1315.77 489.39L1333.8 479.24L1404.17 438.76L1442.33 416.99C1447.44 414.08 1451.68 409.92 1457.37 407.87L1457.31 768.59C1457.31 771.85 1455.27 772.73 1453.15 773.97L1400.03 804.79L1343.17 837.43L1314.54 853.25L1219.65 908.02L1167.59 936.95L1130.58 957.69H1130.59ZM1243.34 728.92C1243.25 727.12 1243.78 725.37 1241.4 724.97L1241.54 778.4L1303.06 742.45C1337.7 722.21 1369.92 664.61 1346.02 627.27C1341.89 620.82 1335.27 617.32 1328.79 613.56C1324.68 611.18 1320.02 612.33 1315.41 614.85C1332.78 613.56 1346.02 626.48 1349.57 644.23C1352.45 658.63 1349.6 672.17 1344.41 685.88C1334.27 712.65 1313.76 732.55 1288.75 746.57L1272.73 755.56L1258.91 763.6C1238.17 775.66 1245.84 778.71 1243.34 728.93V728.92ZM1287.53 727.32C1313.96 712.7 1342.91 665.42 1329.22 635.92C1324.92 626.66 1315.58 618.89 1304.65 620.47C1293.13 622.14 1283.93 629.53 1275.28 637.01C1258.42 651.59 1246.98 671.04 1242.05 692.7C1238.75 707.19 1239.68 723.95 1254 731.52C1254.52 731.79 1254.41 733.46 1254.91 733.62C1255.45 733.8 1256.96 732.51 1257.37 732.73C1268.57 738.64 1278.64 732.22 1287.51 727.32H1287.53Z" fill="#6DA9C6"/>
<path d="M1280.95 504.49L1186.11 558.68L1129.7 591.4C1123.94 590.11 1120.42 586.12 1115.85 583.82C1110.72 581.23 1106.18 578.31 1101.26 575.41L1090.58 569.13L1045.43 543.35L984.441 508.96L837.461 425.48L799.471 404.45C809.941 400.77 817.941 395.61 827.061 390.47L896.641 351.25L928.581 333.13L1050.55 263.53C1052.93 262.17 1055.95 262.84 1057.05 259.6L1091.41 240.28L1128.49 218.67L1212.92 266.66C1216.07 268.45 1220.87 270.26 1222.7 272.58C1225.5 276.11 1227.38 275.96 1230.93 277.45C1239.9 281.22 1248 287.23 1256.73 292.1L1276.57 303.17L1291.57 311.39L1388.39 366.92L1406.04 376.52L1446.61 399.63C1453.34 403.46 1457.37 403.2 1454.05 405.12L1399.16 436.94C1394.55 439.61 1390.08 441.69 1385.69 444.53C1374.29 451.92 1362.71 457.89 1350.93 464.65L1305.19 490.89L1280.95 504.5V504.49ZM1128.98 460.61L1173.04 434.9L1199.49 420.01L1229.13 402.95L1208.41 391.15C1199.01 385.8 1189.82 381.11 1180.76 375.02L1127.73 344.97C1114.97 352.98 1102.77 359.67 1090.09 367.12L1039.22 396.98C1035.56 399.13 1031.78 400.16 1028.39 403.15L1074.59 429.07L1117.64 454.04C1121.35 456.19 1124.18 458.9 1128.97 460.62L1128.98 460.61Z" fill="#6DA9C6"/>
<path d="M574.96 1279.97L548.46 1264.84L497.87 1236.17C496.5 1235.39 493.01 1234.4 494.17 1232.87L518.82 1218.64L587.33 1179.29L612.89 1164.35L712.49 1220.71L733 1232.19L695.83 1253.95L624.39 1295.23C620.36 1297.56 617.27 1300.44 612.84 1301.74L574.96 1279.98V1279.97ZM636.12 1237.61L647.74 1231.18C641.94 1228.88 636.46 1225.87 630.75 1222.73L611.72 1212.27C606.42 1215.13 602.22 1218.29 597.53 1221.36C591.35 1225.41 584.63 1227.89 578.18 1232.63L612.58 1251.79L636.11 1237.6L636.12 1237.61Z" fill="#6DA9C6"/>
<path d="M326.79 1003.41L300.5 1018.65L273.08 1034.27C267.23 1037.6 262.04 1041.24 255.28 1044.1L234.86 1032.68L214.78 1020.67L163.2 991.27L134.82 974.72L224.79 922.72L255.21 904.95C257.61 903.55 259.75 906.52 261.33 907.31C270.35 911.85 285.6 921.87 290.61 923.8C291.99 924.33 292.6 926.04 293.97 926.65C302.82 930.62 310.87 935.33 318.73 940.9C325.43 944.34 331.81 947.43 338.26 951.19L378.41 974.62L326.8 1003.4L326.79 1003.41ZM298.52 973.13C288.02 968.87 278.87 961.23 267.87 955.91C264.56 953.22 261.13 951.46 256.58 950.26C242.87 960.44 231.73 964.72 216.15 974.24L254.95 997.64C257.42 998.69 260.48 995.43 262.37 994.33L298.53 973.14L298.52 973.13Z" fill="#6DA9C6"/>
<path d="M2089.41 992.63L2000.15 1044.34L1970.7 1027.27L1904.27 989.82C1894.46 984.29 1885.63 978.96 1875.17 974.13C1879.53 972.93 1883.36 970.57 1887.65 968.1L1935.11 940.74L1991.9 907.59C1999.73 903.02 2000.6 906.23 2014.52 914.14L2026.71 921.08L2072.07 946.65L2104.38 965.41C2109.64 968.47 2114.26 971.4 2120.46 973.86L2089.41 992.63ZM2038.67 974.89C2040.23 973.98 2040.14 972.83 2038.02 971.72C2027.27 966.09 2014.13 959.56 2004.32 952.55C2001.57 951.82 1998.84 949.11 1996.04 950.9C1983.42 958.96 1971.19 966.68 1957.71 973.7L1987.74 991.25C1991.99 993.73 1995.68 997.35 2001 997.69C2014.08 990.96 2025.57 982.52 2038.67 974.88V974.89Z" fill="#6DA9C6"/>
<path d="M1751.19 1227.08L1762.25 1233.32L1692.59 1273.1L1643.08 1302.07L1609.23 1281.91L1581.29 1265.77L1522.98 1232.47C1527.8 1228.87 1532.59 1226.94 1537.73 1224.01L1642.13 1164.63C1646.57 1165.24 1649.23 1168.1 1652.67 1170.13L1672.77 1181.96C1675.38 1183.5 1677.68 1184.95 1680.39 1186.47L1694.4 1194.37C1699.32 1197.14 1704.1 1199.81 1709.09 1202.71L1726.7 1212.93C1735.45 1218.01 1742.04 1221.93 1751.17 1227.08H1751.19ZM1679.43 1232.14C1668.55 1226.55 1658.75 1220.59 1648.17 1214.1C1644.7 1211.23 1642.42 1213.13 1639.56 1214.96C1630.01 1221.08 1620.2 1226.03 1609.69 1231.71L1639.97 1249.85C1641.37 1250.69 1642.17 1252.54 1643.92 1252.39C1645.67 1252.24 1672.65 1234.13 1679.43 1232.14Z" fill="#6DA9C6"/>
<path d="M1104.84 1416.29C1096.92 1411.57 1086.23 1405.69 1077.97 1401.16L1059.94 1391.26C1056.18 1389.19 1053.05 1386.82 1049.4 1384.79C1039.87 1379.5 1030.17 1375.16 1020.92 1369.22L1006.83 1361.55C1020.89 1354.62 1033.01 1347.35 1045.84 1339.76L1071.47 1324.6L1104.93 1305.18C1111.53 1301.35 1118.19 1298.23 1124.2 1293.39C1127.11 1291.05 1130.47 1291.32 1132.77 1294.27L1187.39 1325.75L1248.71 1361.34L1153.16 1416.22L1131.93 1429C1129.17 1430.66 1127.31 1429.68 1124.8 1428.19L1104.83 1416.29H1104.84ZM1128.62 1381.58L1146.11 1371.19C1152.91 1367.15 1159.23 1362.97 1167.05 1359.73C1164.92 1356.1 1161.08 1355.35 1157.9 1353.33L1149.88 1348.23C1144.54 1344.83 1139.03 1341.66 1133.5 1338.64C1126.02 1334.56 1124.79 1338.04 1116.83 1343.02L1106.99 1349.18C1103.41 1351.42 1099.75 1352.83 1096.33 1355.57C1094.57 1356.98 1091.36 1356.71 1090.44 1359.58C1096.82 1364.96 1104.31 1367.91 1111.53 1371.59C1117.49 1374.63 1122.25 1379.13 1128.61 1381.58H1128.62Z" fill="#6DA9C6"/>
<path d="M2056.92 368.68L1983.05 410.8L1940.42 385.88L1862.47 340.91L1893 324.03L1922.8 306.66L1982.71 272.49L2078.59 327.58L2103.38 341.54C2097.65 345.91 2091.36 348.75 2085.2 352.4C2076.21 358.75 2066.91 362.98 2056.91 368.68H2056.92ZM2016.62 344.49L2022.44 340.3C2020.44 337.73 2018.22 336.85 2015.82 335.45L1988.06 319.29C1985.25 317.65 1983.84 316.74 1980.48 318.74L1943.68 340.57L1962.18 351.21L1983.08 364.39L2016.62 344.5V344.49Z" fill="#6DA9C6"/>
<path d="M342.131 369.95L322.751 381.22L272.101 410.55L213.481 377.59L151.061 341.66C159.751 337.23 166.491 333.52 173.861 329.21L203.691 311.79L271.481 272.66L286.911 281.05L314.761 297.3C318.331 299.39 320.831 303.39 325.851 303.16L351.121 317.68L392.071 341.19L342.131 369.96V369.95ZM271.181 363.84C280.371 359.56 288.441 353.76 297.151 348.52L311.291 340.02L292.421 328.73C285.761 324.74 279.221 320.28 271.721 317.96C265.241 319.94 260.251 323.93 254.611 327.1L234.741 338.25C233.931 338.7 231.921 340.91 233.221 341.68L260.441 357.64C264.041 359.75 267.111 362.47 271.171 363.84H271.181Z" fill="#6DA9C6"/>
<path d="M717.081 139.39L634.29 187.11C630.57 184.99 626.99 183.02 623.17 180.85L609.8 173.23L577.31 154.79L562.591 146.46C557.331 143.48 552.09 140.44 546.81 137.44L514.73 119.23L535.98 107.35L633.86 51.1399L687.91 81.9099C701.31 89.5299 714.55 96.1099 727.26 104.51C729.18 107.86 733.051 108.15 736.211 109.61C741.811 112.2 746.81 115.53 752.17 118.96L717.081 139.39ZM633.49 140.68L671.69 117.89C667.16 114.51 662.06 112.73 657.26 109.88L634.581 96.3799L617.67 107.17C610.72 111.6 603.3 114.52 596.49 118.76L633.49 140.69V140.68Z" fill="#6DA9C6"/>
<path d="M1650.3 170.86L1621.66 187.29L1602.57 175.92L1538.97 139.74L1501.18 118.7C1506.17 117.09 1509.67 115.03 1513.97 112.56L1620.78 51.0801L1685.33 88.0601C1692.23 91.7601 1698.74 94.8801 1705.2 99.2801L1739.72 118.86C1726.92 127.23 1714.88 133.39 1702.43 140.62L1650.29 170.87L1650.3 170.86ZM1627.61 137.54L1658.73 118.48C1644.71 109.55 1634.37 105.03 1621.02 95.5401L1583.28 117.61C1588.5 122.21 1594.45 124.1 1599.92 127.43L1617.87 138.34C1621.69 140.66 1624.39 139.51 1627.6 137.54H1627.61Z" fill="#6DA9C6"/>
<path d="M360.31 1122.06C348.28 1129.2 336.54 1136.98 323.81 1142.8C319.04 1146.87 313.41 1148.86 308.19 1152.3L256.89 1181.81L256.43 1047.71L324.75 1008.64C332.44 1004.24 339.89 1000.83 347.24 996.03L380.31 976.98L380.68 1015.76L380.59 1080.65C380.57 1091.13 381.33 1101.06 379.51 1111.28C373.38 1115.67 366.62 1118.3 360.32 1122.04L360.31 1122.06ZM306.52 1110.77L342.64 1090.07L342.41 1064.89C342.32 1054.74 341.7 1050.57 341.79 1040.86C336.15 1042.96 332.21 1046.33 327.31 1049.09L297 1066.18C297.04 1075.3 296.03 1084.31 297.36 1093.26C298.45 1100.65 298.12 1107.81 297.08 1114.86C301.4 1114.88 303.45 1112.54 306.52 1110.77Z" fill="#6DA9C6"/>
<path d="M692.55 1393.09L637.47 1425.2L614.5 1438.65L614.41 1304.56L642.87 1288.56L712.75 1247.8C720.13 1243.5 726.5 1238.92 734.27 1235.16L733.38 1268.51L732.85 1363.22C732.85 1364.78 734.76 1367.71 732.93 1368.81L692.55 1393.09ZM695.34 1324.75C695.31 1319.39 691.98 1314.78 688.88 1312.62C675.78 1303.49 656.57 1325.16 653.92 1341.34C652.62 1349.28 655.39 1357.3 662.49 1360.61C672.24 1365.15 695.47 1348.04 695.35 1324.76L695.34 1324.75Z" fill="#6DA9C6"/>
<path d="M2251.27 833.03L2116.36 833.14L2116.52 791.25L2116.99 717.15L2251.79 717.03L2251.54 782.08L2251.28 833.03H2251.27ZM2202.84 784.2C2207.49 778.98 2209.94 771.27 2206.52 764.92C2201.12 754.92 2187.94 750.11 2177.43 754.31C2170.14 757.23 2163.78 762.97 2161.92 770.47C2159.77 779.14 2165.9 786.64 2173.33 790.56C2183.27 795.8 2195.02 792.97 2202.85 784.19L2202.84 784.2Z" fill="#6DA9C6"/>
<path d="M1917.47 1135.18L1908.63 1130.18C1897.58 1123.94 1886.41 1118.24 1876.16 1110.9L1875.9 1077.77C1875.87 1074.35 1874.85 1071.31 1874.86 1067.68L1875.07 1018.04C1877.37 1015.3 1874.99 1012.15 1875.27 1009.49C1876.36 999.02 1876.89 988.98 1874.95 977.61C1886.55 983.09 1896.48 989.15 1907.09 995.58L1957.12 1023.57L1997.72 1046.95L1998.17 1181.89L1969.47 1165.29L1917.46 1135.18H1917.47ZM1957.53 1115.87L1958.04 1065.45C1942.93 1058.06 1928.87 1049.66 1914.17 1040.24L1913.81 1082.73C1911.96 1088.24 1914.73 1091.24 1919.01 1093.7L1957.53 1115.86V1115.87Z" fill="#6DA9C6"/>
<path d="M1639.99 1437.43L1583.48 1404.42L1551.04 1385.9L1532.54 1374.57C1528.95 1372.37 1524.9 1371.27 1522.38 1367.35V1252.73C1522.38 1246.97 1521.43 1242.06 1522.75 1236.49C1526.24 1237.61 1529.17 1239.53 1532.08 1241.8L1579.04 1268.65L1640.39 1304.2L1640.69 1389.5L1639.98 1437.44L1639.99 1437.43ZM1587.86 1360.85C1597.39 1362.09 1603.72 1351.04 1602.64 1343.04C1600.91 1330.21 1593.5 1319.84 1582.83 1313.2C1576.78 1309.44 1568.08 1309.86 1564.14 1316.25C1554.52 1331.88 1571.46 1358.72 1587.85 1360.86L1587.86 1360.85Z" fill="#6DA9C6"/>
<path d="M137.96 718.89L138.14 833.24L3.75 833.1L3.78 716.84L134.38 717.11C135.7 717.15 136.46 717.36 137.96 718.89ZM77.46 792.36C84.92 790.52 92.87 783.03 94.07 775.55C95.86 764.46 86.14 755.22 75.9 753.22C67.26 751.53 58.29 754.12 52.29 760.19C47.25 765.29 45.58 772.68 48.81 779.38C53.66 789.44 65.27 795.38 77.46 792.36Z" fill="#6DA9C6"/>
<path d="M2036.76 1161.89L2001.01 1182.75L2000.98 1047.63L2085.71 998.45L2121.27 977.43L2121.19 1112.03C2111.79 1118 2102.65 1123.08 2092.98 1128.77L2036.75 1161.88L2036.76 1161.89ZM2042.07 1117.44L2073.51 1099.08C2077.03 1097.53 2080.07 1094.89 2083.24 1092.99C2086.57 1091 2085.86 1088.07 2085.84 1084.74L2085.62 1041.15C2080.56 1044.67 2074.47 1046.58 2069.71 1050.3C2064.95 1054.02 2060.28 1057.51 2054.7 1060.35C2050.35 1062.56 2046.77 1066.12 2042.22 1067.29L2042.06 1117.44H2042.07Z" fill="#6DA9C6"/>
<path d="M1699.19 1407.2L1688.38 1413.7L1666.51 1425.83C1663.52 1427.49 1661.08 1428.37 1658.43 1430.79C1654.37 1434.49 1648.94 1436.39 1644.29 1439.66L1644.1 1304.87L1689.62 1278.98L1721.31 1260.62L1764.17 1236.06L1764.29 1369.3L1734.06 1386.56C1730.46 1388.61 1727.55 1391.53 1723.22 1392.48C1720.76 1395.92 1716.84 1396.84 1713.44 1398.84L1699.21 1407.2H1699.19ZM1712.61 1356.83C1729.11 1345.42 1730.88 1331.3 1728.03 1312.49C1727.59 1309.6 1724.29 1305.35 1721.02 1305.35C1707.6 1305.34 1695.87 1315.58 1688.61 1325.8C1684.88 1331.04 1685.27 1337.95 1681.9 1343.57C1684.7 1353.19 1684.29 1362.23 1684.67 1372.05C1689.36 1371.79 1708.5 1359.67 1712.61 1356.83Z" fill="#6DA9C6"/>
<path d="M1130.28 1566.89L1129.96 1432.78L1193.13 1397.02L1250.23 1364.36L1250.3 1496.69L1171.9 1542.93L1130.28 1566.9V1566.89ZM1171.7 1500.02L1212.97 1476.42L1212.88 1427.77L1170.32 1453.24L1170.43 1496.29C1170.43 1497.84 1169.13 1499.95 1171.69 1500.03L1171.7 1500.02Z" fill="#6DA9C6"/>
<path d="M1983.82 535.27L1984.18 471.2L1983.09 466.98L1983.14 414.19L2003.35 403.27L2035.9 384.84C2046.96 378.58 2057.46 372.58 2068.45 366.23L2104.05 345.66C2106.2 347.76 2104.41 349.92 2104.41 352.38L2104.34 476.21L2076.52 492.73L2024.39 522.51L1983.34 546.51C1980.44 542.56 1983.79 539.23 1983.81 535.27H1983.82ZM2024.6 482.17L2058.09 463.06C2060.98 460.8 2064.44 459.83 2067.03 456.83L2067.01 409.44L2044.17 423.11L2024.99 433.7C2025.02 451.09 2023.72 465.73 2024.6 482.17Z" fill="#6DA9C6"/>
<path d="M610.97 1438.74C601.56 1432.82 598.21 1431.35 589.63 1426.39L561.99 1410.39L519.55 1385.87L491.42 1369.72C490.43 1362.27 491.38 1355.88 491.39 1348.48L491.55 1243.71C491.55 1240.99 489.84 1238.86 491.64 1236.5C497.4 1240 502.33 1243.24 507.98 1246.4L569.39 1280.67L594.06 1295.13L610.78 1304.31L611.04 1377.53L610.96 1438.75L610.97 1438.74ZM570.58 1335C570.83 1330.02 568.72 1326.54 565.35 1323.85C559.11 1317.36 550.98 1313.68 543.32 1309.14C537.92 1305.94 532.78 1303.02 526.96 1300.4L527.01 1347.92C541.21 1357.53 555.28 1365.39 570.38 1373.01L570.58 1335Z" fill="#6DA9C6"/>
<path d="M1126.94 1565.93L1105.75 1554.29C1099.6 1549.29 1092.52 1546.22 1085.75 1542.42L1072.21 1534.82L1023.23 1506.93C1017.33 1503.57 1011.94 1500.67 1006.39 1496.62V1365.38L1027.72 1377.28C1032.23 1379.44 1036.01 1381.94 1040.5 1384.49L1126.66 1433.44L1126.93 1565.93H1126.94ZM1086.83 1500.36L1087.14 1453.1C1077.9 1448.82 1069.85 1443.94 1061.57 1438.49L1045.18 1429.12C1044.24 1428.36 1043.64 1429.19 1042.96 1429.49C1041.61 1430.08 1043.86 1430.71 1043.86 1431.69L1043.72 1476.13C1046.45 1479.25 1050 1480.51 1053.45 1482.37L1086.84 1500.36H1086.83Z" fill="#6DA9C6"/>
<path d="M231.7 1169.32L181.28 1140.51L170.14 1133.51L160.08 1127.52C152.43 1122.96 144.06 1119.25 136.99 1113.96C133.59 1111.42 134.73 1110.12 134.74 1106.64L134.92 978.69L144.96 984.71L212.18 1023.15L252.98 1047.05L253.1 1181.99C245.86 1177.04 239.16 1173.57 231.69 1169.3L231.7 1169.32ZM212.66 1117.06L212.59 1068.1L192.97 1055.75C185.44 1051.01 176.87 1046.7 169.12 1040.77L169.03 1090.75C172.26 1094.48 176.87 1095.89 180.81 1098.64C187.14 1103.05 193.59 1106.54 200.34 1110.03C204.4 1112.13 207.26 1114.97 212.66 1117.07V1117.06Z" fill="#6DA9C6"/>
<path d="M270.4 427.12L270.8 545.96L168.34 486.91L150.5 476.15C151.38 470.45 150.53 465.51 150.54 460.05L150.66 414.14C150.69 404.61 150.44 395.61 150.51 386.11L150.77 349.33C150.77 348.68 149.8 347.95 149.94 347.66C150.15 347.22 151.01 346.06 151.58 346.41C159.23 351.07 167.07 354.5 174.22 359.72C176.14 361.12 177.84 361.67 179.98 362.89L239.78 396.99L255.18 404.89C260.19 407.46 264.49 410.8 269.95 412.99L270.38 427.11L270.4 427.12ZM230.64 482L230.92 437C230.93 435.24 228.44 432.84 226.99 432.04C218.36 427.26 209.82 423.12 201.47 417.66C197.09 414.79 193.03 411.93 187.48 409.97C186.39 419.43 186.9 428.56 187.44 438.1C187.98 447.72 183.63 457.12 192.65 461.34C197.49 463.61 201.58 466.82 206.43 469.31L215.04 473.73C220.27 476.41 225.15 479.57 230.62 482.01L230.64 482Z" fill="#6DA9C6"/>
<path d="M1660.87 297.92L1623.29 319.7C1623.07 309.05 1622.31 299.74 1622.37 290.01L1622.54 259.37C1622.67 236.34 1622.8 213.83 1622.45 190.75C1626.21 187.19 1630.67 186.21 1634.91 183.77L1708.42 141.37L1725.83 131.66L1741.31 121.99C1743.4 127.86 1741.4 133.12 1741.98 138.89V250.21L1713.16 267.33L1696.39 276.42C1700.67 274.1 1677.92 288.32 1682.17 285.3C1675.33 290.16 1668.11 293.72 1660.87 297.92ZM1707.03 230.85L1707.07 183.78C1704.29 183.94 1702.87 185.77 1700.83 187L1665.38 208.26L1665.44 255.12L1707.03 230.85Z" fill="#6DA9C6"/>
<path d="M646.719 307.07C642.639 304.49 641.139 299.91 638.319 296.43C635.819 293.34 634.859 290.37 634.879 286.09L635.279 190.26L724.599 139.28C727.149 137.83 730.329 138.23 731.649 135.04L754.489 121.84L754.449 245.67L709.589 272.02L685.109 285.86C682.059 285.05 681.009 287.66 679.119 288.83C668.699 295.27 658.439 301.19 646.709 307.06L646.719 307.07ZM716.239 211.29C717.509 205.13 714.099 198.01 709.019 195.11C696.779 188.13 680.319 205.63 676.719 219.01C674.719 226.45 675.729 235.23 681.569 240.19C689.949 247.31 712.359 230.11 716.239 211.28V211.29Z" fill="#6DA9C6"/>
<path d="M569.419 283.65C564.989 281.44 552.84 273 550.78 272.14C539.17 267.27 525.669 257.2 512.939 250.8C512.029 229.55 514.249 211.94 513.179 190.28C512.939 185.41 513.12 181.14 513.15 176.24L513.419 135.28C513.449 130.84 512.099 126.86 513.109 122.31L567.359 153.42C572.179 156.19 576.619 158.7 581.509 161.25C582.789 163.89 585.549 163.76 587.719 165.01L631.749 190.3L631.889 318.96L576.479 287.65C574.519 285.51 572.389 284.08 569.419 283.66V283.65ZM590.939 253.59C588.799 244.55 589.67 236.7 590.53 228.33C591.22 221.58 590.359 215.2 590.699 208.4L573.889 198.33C565.469 193.29 557.179 189.44 548.199 183.13L547.909 230.83L556.189 236.41C559.309 238.51 561.599 240.51 564.629 242.22C567.659 243.93 571.179 243.86 573.879 247.17C573.009 246.11 589.489 256.76 590.939 253.59Z" fill="#6DA9C6"/>
<path d="M1619.26 283.63C1619.26 295.04 1614.64 297.7 1606.97 304.85C1604.85 304.81 1603.12 304.38 1601.04 303.19L1500.8 245.81L1501.05 122.74L1566.73 159.55L1615.05 187.29C1616.84 189.09 1619.32 190.58 1619.31 193.49L1619.26 283.63ZM1579.41 228.38C1579.84 217.62 1575.97 208.39 1567.93 201.53C1564.02 198.2 1559.84 194.1 1554.26 193.51C1546.65 192.7 1540.58 199.14 1539.83 206.45C1538.86 215.89 1543.12 224.28 1549.95 230.64C1554.86 235.21 1560.24 241.12 1567.32 241.85C1574.76 242.61 1579.17 234.78 1579.42 228.38H1579.41Z" fill="#6DA9C6"/>
<path d="M299.92 516.19C297.33 517.94 292.44 519.4 292.24 523.01C292.05 526.29 296.33 527.53 298.66 530.05C290.42 536.18 282.55 540.31 273.61 545.58C274.98 538.92 273.86 534.63 273.85 529.02L273.59 413.65L341.17 374.49L392.98 344.51L392.84 452.02C392.84 454.56 393.85 459.35 391.53 460.89C380.35 468.29 369.37 475.13 357.8 481.96L319.44 504.59C312.76 508.53 306.38 511.85 299.92 516.2V516.19ZM347.44 409.86L314.7 429.96L315.01 471.61L347.43 450.84L356.54 445.03L356.61 404.2C353.52 405.94 351 407.48 348.49 409.76L353.79 409.34L353.59 441.83C353.58 443.79 349.36 444.86 348.24 444.83C346.43 441.54 346.91 438.5 346.93 435.1L347.08 413.43C347.09 411.94 350.08 410.19 347.45 409.86H347.44Z" fill="#6DA9C6"/>
<path d="M1957.34 531.96C1952.84 529.83 1961.3 526.59 1960.88 523.59C1960.7 522.35 1959.6 519.94 1957.99 518.97L1898.18 483.05L1877.89 470.53C1872.01 466.9 1866.12 464.08 1860.9 458.78L1861 344.86L1889.47 360.66L1947.73 394.28L1980.28 413.42L1980.09 545.16C1972.26 540.37 1965.21 535.71 1957.32 531.97L1957.34 531.96ZM1939.89 429.9C1926.35 422.29 1914.26 414.67 1901.78 406.58C1900.29 405.61 1898.92 404.8 1897.37 404.94L1897.48 445.6L1940.2 471.49L1939.89 429.89V429.9Z" fill="#6DA9C6"/>
<path d="M1172.98 85.79C1179.87 85.7 1185.94 84.32 1192.61 86.55L1192.51 184.33H1063.34L1063.29 85.34L1105.97 85.67L1155.76 85.79C1161.34 84.32 1166.78 85.88 1172.99 85.79H1172.98ZM1116.38 149.82C1123.88 153.74 1131.34 154.7 1138.83 150.45C1143.98 147.53 1150.35 141.23 1149.85 133.63C1149.35 126.03 1142.34 120.34 1136.98 118.19C1126.45 113.98 1118.91 117.72 1110.03 123.9C1102.78 132.41 1106.44 144.63 1116.39 149.83L1116.38 149.82Z" fill="#6DA9C6"/>
<path d="M2251.55 713.91L2117.09 714.12L2113.52 683.31L2105.39 627.12L2240.25 626.87L2251.55 713.92V713.91ZM2202.33 681.39L2199.42 657.37L2156.82 656.97L2160.49 681.48L2179.1 681.39C2187.04 681.35 2194.42 681.06 2202.34 681.39H2202.33Z" fill="#6DA9C6"/>
<path d="M116.891 713.1L20.9407 713.12C14.9707 713.12 9.15069 715.8 4.42069 712.56C4.33069 706.46 5.56069 700.65 6.32069 694.88L8.42069 678.96C9.39069 671.6 11.1607 649.73 12.4407 644.62C13.8207 639.14 11.7407 633.07 14.4907 627.07L147.621 627.13C149.391 627.13 148.921 630.67 148.741 631.78L143.141 666.9L139.371 694.19C138.501 700.52 139.171 707.22 137.531 713.37C130.451 715.49 123.851 713.09 116.901 713.09L116.891 713.1ZM96.7207 657.25L55.4907 657.53C55.3007 665.52 53.8307 672.86 52.8407 681.19L94.8707 681.41C95.6307 670.49 97.4807 666.76 96.7307 657.25H96.7207Z" fill="#6DA9C6"/>
<path d="M1192.03 54.93L1192.57 82.47L1062.93 82.43L1063.4 3.34998L1191.71 3.22998L1192.03 54.93ZM1148.33 52.13V31.2L1107.64 31.19L1107.77 52.15H1148.33V52.13Z" fill="#6DA9C6"/>
<path d="M2111.37 814.62L2107.88 782.81L2105.36 755.31C2103.49 734.94 2102.15 715.18 2103.57 694.73L2104.44 642.83L2113.1 708.19L2112.76 809.83C2112.76 811.61 2112.49 813.25 2111.37 814.62Z" fill="#6DA9C6"/>
<path d="M146.38 781.64C145.11 793.05 144.89 802.88 142.12 814.67L141.19 722.99C140.93 697.49 144.97 673.26 149.37 648.81L150.5 700.21C151.1 727.49 149.47 754.06 146.39 781.63L146.38 781.64Z" fill="#6DA9C6"/>
<path d="M987.189 734.77C969.619 732.48 950.729 714.33 942.289 701.69C929.829 683.01 920.139 655.24 932.289 634.3C935.859 628.15 943.289 622.88 950.629 622.27C967.389 620.86 990.009 642.7 999.109 656.47C1009.79 672.63 1019.86 695.02 1016.03 714.88C1013.64 727.26 1000.22 736.48 987.179 734.78L987.189 734.77Z" fill="#050404"/>
<path d="M972.821 749.29L1014.09 773.66L1014.65 726.06C1014.66 725.14 1015.45 723.81 1016.36 722.95L1016.26 778.6L969.371 751.92C927.161 727.91 902.941 698.96 906.401 646.69C907.501 630.12 906.711 614.07 906.661 596.34C918.591 603.48 928.801 611.08 941.531 616.08C939.521 618.08 937.181 616.28 934.931 617.08C927.441 619.73 920.681 624.42 916.641 631.19C913.711 636.09 910.401 640.4 909.581 646.25C905.181 677.56 919.801 708.28 942.301 729.19C951.351 737.59 961.841 742.82 972.811 749.29H972.821ZM933.281 615.06L909.311 600.35L909.911 637.07C915.891 627.11 923.081 620.53 933.281 615.07V615.06Z" fill="#050404"/>
<path d="M1287.53 727.32C1278.66 732.23 1268.59 738.65 1257.39 732.73C1256.98 732.51 1255.47 733.81 1254.93 733.62C1254.43 733.45 1254.54 731.79 1254.02 731.52C1239.7 723.95 1238.77 707.19 1242.07 692.7C1247 671.04 1258.44 651.59 1275.3 637.01C1283.95 629.52 1293.15 622.14 1304.67 620.47C1315.6 618.89 1324.94 626.66 1329.24 635.92C1342.92 665.43 1313.98 712.7 1287.55 727.32H1287.53Z" fill="#050404"/>
<path d="M1243.34 728.92C1245.84 778.71 1238.17 775.66 1258.91 763.59L1272.73 755.55L1288.75 746.56C1313.76 732.53 1334.27 712.64 1344.41 685.87C1349.61 672.15 1352.45 658.62 1349.57 644.22C1346.02 626.47 1332.77 613.55 1315.41 614.84C1320.02 612.32 1324.68 611.16 1328.79 613.55C1335.27 617.31 1341.9 620.81 1346.02 627.26C1369.92 664.6 1337.7 722.19 1303.06 742.44L1241.54 778.39L1241.4 724.96C1243.78 725.36 1243.25 727.11 1243.34 728.91V728.92Z" fill="#050404"/>
<path d="M1128.98 460.61C1124.19 458.89 1121.36 456.18 1117.65 454.03L1074.6 429.06L1028.4 403.14C1031.78 400.15 1035.57 399.12 1039.23 396.97L1090.1 367.11C1102.78 359.66 1114.98 352.97 1127.74 344.96L1180.77 375.01C1189.83 381.1 1199.02 385.79 1208.42 391.14L1229.14 402.94L1199.5 420L1173.05 434.89L1128.99 460.6L1128.98 460.61ZM1130.11 376.72C1144.76 383.85 1158.15 392.12 1172.2 400.21C1181.46 405.54 1190.51 409.89 1199.35 416.26L1222.57 403.51L1173.66 375.82L1128.37 349.63L1100.14 365.75L1054.28 392.78C1047.83 396.58 1041.86 399.42 1034.99 402.74L1057.42 415.74L1121.66 378.58C1124.19 377.12 1127.37 375.39 1130.12 376.73L1130.11 376.72Z" fill="#050404"/>
<path d="M636.119 1237.61L612.589 1251.8L578.189 1232.64C584.639 1227.9 591.359 1225.42 597.539 1221.37C602.229 1218.3 606.429 1215.13 611.729 1212.28L630.759 1222.74C636.469 1225.88 641.939 1228.88 647.749 1231.19L636.129 1237.62L636.119 1237.61Z" fill="#050404"/>
<path d="M298.521 973.13L262.361 994.32C260.481 995.42 257.421 998.68 254.941 997.63L216.141 974.23C231.731 964.72 242.871 960.43 256.571 950.25C261.131 951.45 264.551 953.22 267.861 955.9C278.861 961.22 288.011 968.86 298.511 973.12L298.521 973.13ZM225.771 975.77C228.581 974.4 255.061 961.79 251.831 957.93L224.171 973.32C223.251 973.83 222.521 974.66 223.121 975.29C223.601 975.79 224.871 976.21 225.771 975.77ZM256.011 994.94L280.711 979.8L253.981 963.58L228.491 978.26L256.001 994.93L256.011 994.94Z" fill="#050404"/>
<path d="M2038.67 974.89C2025.57 982.54 2014.08 990.97 2001 997.7C1995.68 997.36 1991.99 993.74 1987.74 991.26L1957.71 973.71C1971.18 966.69 1983.42 958.97 1996.04 950.91C1998.84 949.12 2001.58 951.83 2004.32 952.56C2014.12 959.57 2027.27 966.09 2038.02 971.73C2040.14 972.84 2040.23 973.99 2038.67 974.9V974.89ZM2033.04 973.73L2001.22 955.68C2000.53 959.09 2003.14 960.94 2005.54 962.33C2008.27 963.91 2034.44 980.74 2033.05 973.73H2033.04ZM2026.44 978.1L2004.13 965.74C2002.61 964.8 2000.12 963.66 1998.23 964.87L1974.34 980.05L1999.99 994.78L2026.44 978.11V978.1Z" fill="#050404"/>
<path d="M1679.43 1232.14C1672.66 1234.14 1645.58 1252.26 1643.92 1252.39C1642.17 1252.53 1641.37 1250.69 1639.97 1249.85L1609.69 1231.71C1620.2 1226.04 1630.01 1221.08 1639.56 1214.96C1642.42 1213.13 1644.7 1211.23 1648.17 1214.1C1658.75 1220.58 1668.55 1226.55 1679.43 1232.14Z" fill="#050404"/>
<path d="M1128.62 1381.58C1122.25 1379.14 1117.49 1374.63 1111.54 1371.59C1104.32 1367.91 1096.83 1364.96 1090.45 1359.58C1091.37 1356.71 1094.58 1356.98 1096.34 1355.57C1099.76 1352.83 1103.42 1351.42 1107 1349.18L1116.84 1343.02C1124.8 1338.04 1126.03 1334.56 1133.51 1338.64C1139.04 1341.66 1144.55 1344.83 1149.89 1348.23L1157.91 1353.33C1161.09 1355.35 1164.93 1356.1 1167.06 1359.73C1159.24 1362.97 1152.92 1367.15 1146.12 1371.19L1128.63 1381.58H1128.62ZM1127.5 1347.63C1136.54 1351.53 1144.25 1356.38 1152.53 1361.36C1155.51 1363.16 1159.61 1362.5 1161.78 1359.6L1131.49 1341.38C1129.55 1340.21 1127.33 1340.37 1125.48 1341.49L1102.87 1355.15C1100.46 1356.61 1098.82 1358.99 1095.2 1359.48C1098.03 1366.12 1106.43 1359.06 1109.34 1357.58C1115.61 1354.38 1121.64 1351.35 1127.49 1347.63H1127.5Z" fill="#050404"/>
<path d="M2016.62 344.49L1983.08 364.38L1962.18 351.2L1943.68 340.56L1980.48 318.73C1983.84 316.74 1985.25 317.65 1988.06 319.28L2015.82 335.44C2018.22 336.84 2020.43 337.72 2022.44 340.29L2016.62 344.48V344.49ZM2013.52 342.41C2015.28 343.31 2018.15 341.09 2016.97 340.34C2006.42 333.67 1996.06 327.9 1985.34 322.67C1979.79 324.98 2012.3 341.79 2013.52 342.41ZM2009.39 345.34C2000.36 339.19 1992.47 334.65 1983.47 330.79L1957.88 345.68L1983.42 361.17L2009.38 345.34H2009.39Z" fill="#050404"/>
<path d="M271.18 363.84C267.12 362.47 264.05 359.75 260.45 357.64L233.23 341.68C231.92 340.91 233.94 338.71 234.75 338.25L254.62 327.1C260.27 323.93 265.26 319.95 271.73 317.96C279.23 320.28 285.77 324.74 292.43 328.73L311.3 340.02L297.16 348.52C288.45 353.76 280.38 359.56 271.19 363.84H271.18ZM243.54 341.46L266.59 328.04C267.92 327.27 269.06 325.34 267.93 324.21C257.78 328.85 247.84 334.12 239.14 340.3C239.21 342.12 241.68 342.53 243.53 341.45L243.54 341.46ZM296.48 345.57C287.14 340.61 278.77 336.24 269.93 330.68C261.6 336.01 253.7 339.99 245.19 344.78L270.83 360.76L296.48 345.57Z" fill="#050404"/>
<path d="M633.49 140.68L596.49 118.75C603.3 114.51 610.72 111.59 617.67 107.16L634.58 96.3701L657.26 109.87C662.06 112.73 667.16 114.5 671.69 117.88L633.49 140.67V140.68ZM633.11 137.16L655.85 123.32L632.04 109.08L608.49 122.16L633.1 137.16H633.11Z" fill="#050404"/>
<path d="M1627.61 137.54C1624.4 139.51 1621.7 140.66 1617.88 138.34L1599.93 127.43C1594.45 124.1 1588.5 122.22 1583.29 117.61L1621.03 95.54C1634.38 105.03 1644.72 109.55 1658.74 118.48L1627.62 137.54H1627.61ZM1622.5 137.02L1646.89 121.81L1622.26 108.9L1598.45 123.19L1622.49 137.02H1622.5Z" fill="#050404"/>
<path d="M306.52 1110.77C303.44 1112.53 301.4 1114.88 297.08 1114.86C298.12 1107.81 298.46 1100.65 297.36 1093.26C296.03 1084.3 297.04 1075.3 297 1066.18L327.31 1049.09C332.21 1046.32 336.15 1042.96 341.79 1040.86C341.7 1050.57 342.31 1054.74 342.41 1064.89L342.64 1090.07L306.52 1110.77ZM300.9 1110.58L338.84 1088.42L338.8 1045.67C335.98 1046.36 333.24 1047.75 332.19 1050.04C331.34 1051.89 333.67 1078.29 332.2 1082.85C322.64 1090.68 312.23 1095.66 301.92 1101.93C299.75 1103.25 300.45 1107.31 300.89 1110.6L300.9 1110.58Z" fill="#050404"/>
<path d="M695.34 1324.75C695.46 1348.03 672.23 1365.15 662.48 1360.6C655.38 1357.29 652.61 1349.27 653.91 1341.33C656.56 1325.15 675.77 1303.48 688.87 1312.61C691.97 1314.77 695.31 1319.38 695.33 1324.74L695.34 1324.75ZM683.87 1318.58C683.22 1316.79 681.91 1315.15 680.76 1314.7C669.81 1310.38 647.06 1345.11 659.6 1352.98C669.33 1359.09 690.31 1336.35 683.87 1318.58ZM668.12 1358.25C684.58 1357.12 698.89 1328.1 687.74 1316.32C693.2 1333.4 680.44 1352.61 668.12 1358.25Z" fill="#050404"/>
<path d="M2202.84 784.2C2195.02 792.98 2183.26 795.81 2173.32 790.57C2165.89 786.65 2159.76 779.15 2161.91 770.48C2163.77 762.97 2170.13 757.23 2177.42 754.32C2187.93 750.11 2201.12 754.92 2206.51 764.93C2209.93 771.28 2207.48 778.99 2202.83 784.21L2202.84 784.2ZM2198.68 782.14C2204.35 777.16 2205.95 770.58 2201.72 764.07C2197.25 757.19 2187.78 753.72 2179.34 756.33C2172.39 758.48 2164.39 765.12 2164.84 773.87C2165.22 781.39 2172.65 786.36 2178.54 788.23C2185.8 790.53 2192.98 787.15 2198.69 782.14H2198.68Z" fill="#050404"/>
<path d="M1957.53 1115.87L1919.01 1093.71C1914.73 1091.25 1911.96 1088.25 1913.81 1082.74L1914.17 1040.25C1928.87 1049.67 1942.93 1058.07 1958.04 1065.46L1957.53 1115.88V1115.87ZM1923.48 1084.53L1922.96 1049.05C1922.52 1047.61 1919.02 1046.74 1917.02 1046.82L1916.98 1088.51L1954.27 1110.85C1955.62 1108.43 1955.41 1105.62 1954.46 1103.1C1953.88 1101.57 1927.12 1087.91 1923.47 1084.53H1923.48Z" fill="#050404"/>
<path d="M1587.86 1360.85C1571.46 1358.71 1554.52 1331.88 1564.15 1316.24C1568.08 1309.85 1576.78 1309.43 1582.84 1313.19C1593.52 1319.83 1600.93 1330.2 1602.65 1343.03C1603.73 1351.03 1597.4 1362.08 1587.87 1360.84L1587.86 1360.85ZM1583.19 1316.42C1581.07 1314.73 1574.05 1312.92 1572.66 1315.8C1564.72 1332.26 1582.28 1355.25 1594.2 1353.91C1603.82 1352.83 1602.08 1331.46 1583.19 1316.42ZM1578.05 1352.6C1577.44 1348.62 1575.23 1347.5 1573.67 1345.21C1567.75 1336.54 1565.04 1325.55 1568.83 1315.62C1558.82 1327.07 1567.72 1345.29 1578.05 1352.6ZM1589.32 1358.37C1585.88 1356.61 1583.28 1354.24 1579.37 1352.97C1581.8 1356.56 1585.63 1357.52 1589.32 1358.37Z" fill="#050404"/>
<path d="M77.4607 792.36C65.2607 795.37 53.6607 789.44 48.8107 779.38C45.5807 772.68 47.2507 765.29 52.2907 760.19C58.3007 754.12 67.2607 751.54 75.9007 753.22C86.1507 755.22 95.8607 764.46 94.0707 775.55C92.8607 783.03 84.9107 790.52 77.4607 792.36ZM84.3107 783.92C89.3207 779.74 91.8407 773.56 89.3707 767.39C86.2907 759.71 77.7107 755.08 69.8307 755.35C61.9507 755.62 53.5407 761.15 51.3107 769.16C49.8807 774.27 53.2607 778.9 56.4507 782.28C64.0007 790.3 75.5507 791.23 84.3107 783.92Z" fill="#050404"/>
<path d="M2042.07 1117.44L2042.23 1067.29C2046.78 1066.11 2050.36 1062.56 2054.71 1060.35C2060.29 1057.51 2064.8 1054.14 2069.72 1050.3C2074.64 1046.46 2080.56 1044.68 2085.63 1041.15L2085.85 1084.74C2085.87 1088.07 2086.58 1091.01 2083.25 1092.99C2080.08 1094.89 2077.03 1097.53 2073.52 1099.08L2042.08 1117.44H2042.07ZM2044.88 1112.3L2078.54 1092.45C2081.17 1090.9 2082.39 1088.79 2082.37 1085.76L2082.16 1046.66C2077.89 1049.05 2074.08 1050.38 2070.05 1053.6C2075.35 1057.31 2076.71 1062.03 2075.98 1067.86C2075.32 1073.19 2077.23 1080.83 2073.3 1085.11C2060.45 1099.1 2039.06 1100.89 2044.87 1112.3H2044.88Z" fill="#050404"/>
<path d="M1712.61 1356.83C1708.5 1359.67 1689.36 1371.79 1684.67 1372.05C1684.3 1362.23 1684.7 1353.19 1681.9 1343.57C1685.27 1337.95 1684.89 1331.04 1688.61 1325.8C1695.88 1315.58 1707.6 1305.33 1721.02 1305.35C1724.29 1305.35 1727.59 1309.6 1728.03 1312.49C1730.88 1331.3 1729.11 1345.42 1712.61 1356.83ZM1687.67 1368.38L1711.51 1353.94C1717.18 1349.68 1722.16 1344.48 1724.42 1337.59C1726.68 1330.7 1728.48 1311.37 1720.91 1308.32C1718.95 1307.53 1716.67 1307.38 1715.14 1309.27C1719.58 1311.56 1721.95 1315.87 1721.92 1320.6C1721.84 1335.95 1712.92 1348.71 1699.94 1356.24C1695.89 1358.59 1692.23 1359.49 1687 1358.15C1686.57 1361.44 1685.03 1364.99 1687.67 1368.38ZM1716.21 1315.99C1715.74 1314.19 1714.18 1312.8 1712.96 1312.18C1711.74 1311.56 1709.83 1311.59 1708.14 1312.47C1685.08 1324.45 1682.89 1351.03 1688.52 1354.79C1693.86 1358.35 1722.81 1341.27 1716.21 1315.99Z" fill="#050404"/>
<path d="M1171.7 1500.02C1169.14 1499.94 1170.44 1497.83 1170.44 1496.28L1170.33 1453.23L1212.89 1427.76L1212.98 1476.41L1171.71 1500.01L1171.7 1500.02ZM1176.44 1485.91C1172.27 1487.99 1170.43 1492.02 1173.2 1495.84L1209.76 1474.68L1209.64 1433.47C1205.38 1434.65 1202.39 1436.8 1199.3 1439.09C1202.52 1441.39 1203.47 1444.03 1203.48 1447.48L1203.51 1464.54C1203.51 1467.76 1202.43 1470.81 1199.52 1472.51C1191.95 1476.91 1184.79 1481.75 1176.46 1485.9L1176.44 1485.91Z" fill="#050404"/>
<path d="M2024.6 482.17C2023.72 465.73 2025.01 451.09 2024.99 433.7L2044.17 423.11L2067.01 409.44L2067.03 456.83C2064.44 459.83 2060.98 460.8 2058.09 463.06L2024.6 482.17ZM2027.59 469.3C2026.25 470.73 2026.6 475.05 2027.58 477.53L2064.06 455.54L2063.93 414.81C2059.52 416.06 2055.94 418.69 2052.48 421.32L2056.19 425.94C2057.55 433.5 2058.25 442.32 2055.74 449.87C2053 458.1 2035.69 464.94 2027.59 469.29V469.3Z" fill="#050404"/>
<path d="M570.581 1335L570.381 1373.01C555.271 1365.38 541.211 1357.52 527.011 1347.92L526.961 1300.4C532.781 1303.02 537.921 1305.94 543.321 1309.14C550.981 1313.68 559.121 1317.37 565.351 1323.85C568.721 1326.54 570.831 1330.02 570.581 1335ZM566.911 1358.94C556.651 1354.72 546.651 1350.83 539.931 1342.24C536.401 1337.72 534.651 1318.19 541.121 1311.66C537.741 1308.82 534.531 1307.02 530.631 1305.48L530.381 1344.57C530.371 1346.42 532.091 1348.01 533.511 1348.83L567.671 1368.67C567.941 1365.75 568.731 1360.98 566.901 1358.94H566.911Z" fill="#050404"/>
<path d="M1086.83 1500.36L1053.44 1482.37C1049.99 1480.51 1046.44 1479.25 1043.71 1476.13L1043.85 1431.69C1043.85 1430.72 1041.61 1430.08 1042.95 1429.49C1043.63 1429.19 1044.23 1428.36 1045.17 1429.12L1061.56 1438.49C1069.83 1443.94 1077.89 1448.82 1087.13 1453.1L1086.82 1500.36H1086.83ZM1080.66 1486.09C1071.52 1481.68 1063.56 1476.4 1054.77 1470.97C1053.43 1459.73 1053.35 1448.93 1054.49 1437.71C1052.33 1436.22 1050.42 1434.75 1047.23 1434.41L1046.85 1474.83C1054.73 1479.77 1062.34 1483.51 1070.12 1488.01L1083.48 1495.74C1086.08 1492.84 1084.1 1487.75 1080.65 1486.08L1080.66 1486.09Z" fill="#050404"/>
<path d="M212.659 1117.06C207.269 1114.96 204.409 1112.12 200.339 1110.02C193.579 1106.53 187.139 1103.04 180.809 1098.63C176.869 1095.88 172.249 1094.47 169.029 1090.74L169.119 1040.76C176.869 1046.69 185.439 1051 192.969 1055.74L212.589 1068.09L212.659 1117.05V1117.06ZM181.259 1084.62C178.219 1079.53 177.219 1058.5 184.099 1053.87C180.049 1051.26 177.229 1048.5 172.219 1046.46L172.769 1089.31C181.679 1095.52 190.109 1100.68 199.269 1105.5C202.309 1107.1 205.389 1110.02 208.939 1110.74C217.769 1102.88 185.369 1094.09 181.259 1084.63V1084.62Z" fill="#050404"/>
<path d="M230.641 482C225.171 479.56 220.281 476.4 215.061 473.72L206.451 469.3C201.601 466.81 197.511 463.6 192.671 461.33C183.651 457.1 188.001 447.7 187.461 438.09C186.921 428.55 186.411 419.42 187.501 409.96C193.051 411.92 197.101 414.78 201.491 417.65C209.831 423.11 218.371 427.25 227.011 432.03C228.461 432.83 230.951 435.23 230.941 436.99L230.661 481.99L230.641 482ZM200.321 452.59C196.661 448.76 196.511 427.12 201.141 421.47C197.971 418.45 194.851 416.31 190.771 415.1L190.931 453.94C190.931 455.79 193.101 457.55 194.571 458.41L227.481 477.51C233.371 466.85 212.961 465.83 200.321 452.59Z" fill="#050404"/>
<path d="M1707.03 230.85L1665.44 255.12L1665.38 208.26L1700.83 187C1702.87 185.78 1704.29 183.94 1707.07 183.78L1707.03 230.85ZM1667.57 242.76C1666.56 244.7 1666.62 248.3 1667.66 250.65L1691.58 236.68C1695.89 234.16 1700.09 232 1704 228.62L1703.76 188.25C1700.01 189.68 1697.56 191.09 1694.68 193.31C1699.58 199.35 1699.49 222.99 1694.06 227.14C1685.92 233.36 1676.94 237.9 1667.57 242.76Z" fill="#050404"/>
<path d="M716.24 211.29C712.36 230.12 689.95 247.32 681.57 240.2C675.73 235.23 674.71 226.46 676.72 219.02C680.32 205.64 696.77 188.14 709.02 195.12C714.1 198.02 717.51 205.13 716.24 211.3V211.29ZM706.85 203.21C706.66 201.13 706.99 198.89 705.26 198.01C704.08 197.41 701.56 196.3 699.47 197.14C681.79 204.25 672.29 228.87 683.08 235.39C691.13 240.26 708.83 224.56 706.86 203.21H706.85Z" fill="#050404"/>
<path d="M590.94 253.59C589.48 256.77 573.01 246.11 573.88 247.17C571.17 243.86 567.77 244 564.63 242.22C561.49 240.44 559.3 238.51 556.19 236.41L547.91 230.83L548.2 183.13C557.18 189.44 565.48 193.29 573.89 198.33L590.7 208.4C590.37 215.2 591.23 221.57 590.53 228.33C589.67 236.7 588.8 244.55 590.94 253.59ZM560.06 224.32C554.99 215.4 558.75 203.5 559.12 194.04C557.86 191.41 554.71 190.25 551.24 189.17L551.86 229.41L585.55 249.46C587.56 247.81 587.12 245.11 586.64 243.1C586.25 241.48 564.65 232.37 560.07 224.32H560.06Z" fill="#050404"/>
<path d="M1579.41 228.38C1579.15 234.78 1574.75 242.61 1567.31 241.85C1559.87 241.09 1554.85 235.21 1549.94 230.64C1543.12 224.28 1538.85 215.89 1539.82 206.45C1540.57 199.13 1546.64 192.7 1554.25 193.51C1559.83 194.1 1564.01 198.2 1567.92 201.53C1575.96 208.39 1579.83 217.62 1579.4 228.38H1579.41ZM1575.24 233.27C1578.73 224.41 1575.14 215.49 1569.59 209.06C1567.45 206.58 1561.13 197.03 1555.58 197.08C1553.3 197.1 1548.35 197.14 1547.63 200.52C1544.53 215.02 1552.8 229.52 1566.02 235.61C1569.12 237.04 1574.03 236.36 1575.24 233.27Z" fill="#050404"/>
<path d="M347.439 409.86C350.069 410.18 347.079 411.94 347.069 413.43L346.919 435.1C346.899 438.51 346.419 441.55 348.229 444.83C349.349 444.85 353.569 443.79 353.579 441.83L353.779 409.34L348.479 409.76C350.989 407.48 353.509 405.94 356.599 404.2L356.529 445.03L347.419 450.84L314.999 471.61L314.689 429.96L347.429 409.86H347.439Z" fill="#050404"/>
<path d="M1939.89 429.9L1940.2 471.5L1897.48 445.61L1897.37 404.95C1898.92 404.81 1900.29 405.63 1901.78 406.59C1914.26 414.67 1926.35 422.3 1939.89 429.91V429.9ZM1907.48 439.61L1907.55 416.08C1907.55 414.03 1906.74 412.12 1905.56 411.28C1904.56 410.57 1901.4 409.27 1901.1 410.48C1900.72 421.57 1901 431.59 1901.18 442.05C1901.22 444.22 1904.31 444.19 1905.47 443.74C1906.71 443.26 1907.48 441.98 1907.48 439.61Z" fill="#050404"/>
<path d="M1116.38 149.82C1106.43 144.62 1102.78 132.41 1110.02 123.89C1118.9 117.72 1126.44 113.97 1136.97 118.18C1142.33 120.33 1149.36 126.25 1149.84 133.62C1150.32 140.99 1143.97 147.52 1138.82 150.44C1131.33 154.69 1123.88 153.73 1116.37 149.81L1116.38 149.82Z" fill="#050404"/>
<path d="M2202.33 681.39C2194.41 681.07 2187.03 681.36 2179.09 681.39L2160.48 681.48L2156.81 656.97L2199.41 657.37L2202.32 681.39H2202.33Z" fill="#050404"/>
<path d="M96.7201 657.25C97.4701 666.76 95.6201 670.49 94.8601 681.41L52.8301 681.19C53.8201 672.86 55.2901 665.53 55.4801 657.53L96.7101 657.25H96.7201Z" fill="#050404"/>
<path d="M1148.33 52.1299L1107.77 52.1399L1107.64 31.1899L1148.32 31.1999L1148.33 52.1299Z" fill="#050404"/>
<path d="M933.281 615.06C923.091 620.52 915.901 627.11 909.911 637.06L909.311 600.34L933.281 615.05V615.06Z" fill="#6DA9C6"/>
<path d="M1130.11 376.72C1127.36 375.38 1124.18 377.11 1121.65 378.57L1057.41 415.73L1034.98 402.73C1041.85 399.42 1047.82 396.58 1054.27 392.77L1100.13 365.74L1128.36 349.62L1173.65 375.81L1222.56 403.5L1199.34 416.25C1190.5 409.89 1181.45 405.54 1172.19 400.2C1158.14 392.11 1144.75 383.84 1130.1 376.71L1130.11 376.72Z" fill="#6DA9C6"/>
<path d="M225.771 975.77C224.871 976.21 223.601 975.79 223.121 975.29C222.521 974.67 223.251 973.83 224.171 973.32L251.831 957.93C255.061 961.78 228.591 974.4 225.771 975.77Z" fill="#6DA9C6"/>
<path d="M2033.04 973.73C2034.43 980.74 2008.27 963.92 2005.53 962.33C2003.13 960.94 2000.53 959.09 2001.21 955.68L2033.03 973.73H2033.04Z" fill="#6DA9C6"/>
<path d="M1127.5 1347.63C1121.64 1351.36 1115.61 1354.39 1109.35 1357.58C1106.45 1359.06 1098.04 1366.12 1095.21 1359.48C1098.83 1358.99 1100.46 1356.61 1102.88 1355.15L1125.49 1341.49C1127.34 1340.37 1129.56 1340.21 1131.5 1341.38L1161.79 1359.6C1159.61 1362.5 1155.52 1363.16 1152.54 1361.36C1144.26 1356.38 1136.55 1351.53 1127.51 1347.63H1127.5Z" fill="#6DA9C6"/>
<path d="M2013.52 342.41C2012.31 341.79 1979.79 324.99 1985.34 322.67C1996.06 327.9 2006.42 333.67 2016.97 340.34C2018.15 341.09 2015.28 343.31 2013.52 342.41Z" fill="#6DA9C6"/>
<path d="M243.54 341.46C241.68 342.54 239.21 342.13 239.15 340.31C247.86 334.12 257.79 328.86 267.94 324.22C269.07 325.35 267.92 327.27 266.6 328.05L243.55 341.47L243.54 341.46Z" fill="#6DA9C6"/>
<path d="M300.899 1110.58C300.449 1107.29 299.759 1103.23 301.929 1101.91C312.239 1095.65 322.639 1090.66 332.209 1082.83C333.679 1078.28 331.35 1051.87 332.2 1050.02C333.25 1047.73 335.989 1046.34 338.809 1045.65L338.849 1088.4L300.909 1110.56L300.899 1110.58Z" fill="#6DA9C6"/>
<path d="M683.87 1318.58C690.31 1336.35 669.33 1359.09 659.6 1352.98C647.06 1345.11 669.81 1310.38 680.76 1314.7C681.91 1315.15 683.22 1316.8 683.87 1318.58Z" fill="#6DA9C6"/>
<path d="M668.119 1358.25C680.439 1352.62 693.199 1333.41 687.739 1316.32C698.889 1328.1 684.579 1357.12 668.119 1358.25Z" fill="#6DA9C6"/>
<path d="M2198.68 782.14C2192.97 787.15 2185.79 790.53 2178.53 788.23C2172.64 786.37 2165.21 781.39 2164.83 773.87C2164.39 765.12 2172.39 758.48 2179.33 756.33C2187.77 753.72 2197.24 757.19 2201.71 764.07C2205.94 770.59 2204.34 777.16 2198.67 782.14H2198.68Z" fill="#6DA9C6"/>
<path d="M1923.48 1084.53C1927.13 1087.91 1953.89 1101.57 1954.47 1103.1C1955.42 1105.62 1955.63 1108.43 1954.28 1110.85L1916.99 1088.51L1917.03 1046.82C1919.03 1046.74 1922.53 1047.61 1922.97 1049.05L1923.49 1084.53H1923.48Z" fill="#6DA9C6"/>
<path d="M1583.19 1316.42C1602.09 1331.46 1603.82 1352.83 1594.2 1353.91C1582.27 1355.25 1564.72 1332.26 1572.66 1315.8C1574.05 1312.92 1581.08 1314.74 1583.19 1316.42Z" fill="#6DA9C6"/>
<path d="M1578.05 1352.6C1567.72 1345.29 1558.82 1327.07 1568.83 1315.62C1565.04 1325.55 1567.74 1336.54 1573.67 1345.21C1575.23 1347.5 1577.44 1348.62 1578.05 1352.6Z" fill="#6DA9C6"/>
<path d="M1589.32 1358.37C1585.62 1357.52 1581.8 1356.56 1579.37 1352.97C1583.28 1354.24 1585.88 1356.61 1589.32 1358.37Z" fill="#6DA9C6"/>
<path d="M84.3102 783.92C75.5502 791.23 64.0002 790.3 56.4502 782.28C53.2602 778.9 49.8802 774.27 51.3102 769.16C53.5502 761.15 61.8302 755.63 69.8302 755.35C77.8302 755.07 86.2902 759.71 89.3702 767.39C91.8402 773.56 89.3202 779.74 84.3102 783.92Z" fill="#6DA9C6"/>
<path d="M2044.88 1112.3C2039.06 1100.89 2060.45 1099.1 2073.31 1085.11C2077.24 1080.83 2075.32 1073.19 2075.99 1067.86C2076.72 1062.02 2075.36 1057.31 2070.06 1053.6C2074.1 1050.38 2077.91 1049.05 2082.17 1046.66L2082.38 1085.76C2082.4 1088.79 2081.18 1090.9 2078.55 1092.45L2044.89 1112.3H2044.88Z" fill="#6DA9C6"/>
<path d="M1687.67 1368.38C1685.03 1364.98 1686.56 1361.44 1687 1358.15C1692.23 1359.49 1695.89 1358.59 1699.94 1356.24C1712.92 1348.71 1721.84 1335.95 1721.92 1320.6C1721.94 1315.87 1719.58 1311.56 1715.14 1309.27C1716.68 1307.39 1718.96 1307.54 1720.91 1308.32C1728.49 1311.37 1726.79 1330.38 1724.42 1337.59C1722.05 1344.8 1717.18 1349.69 1711.51 1353.94L1687.67 1368.38Z" fill="#6DA9C6"/>
<path d="M1176.44 1485.91C1184.77 1481.75 1191.93 1476.92 1199.5 1472.52C1202.42 1470.82 1203.5 1467.77 1203.49 1464.55L1203.46 1447.49C1203.46 1444.04 1202.51 1441.41 1199.28 1439.1C1202.37 1436.81 1205.36 1434.67 1209.62 1433.48L1209.74 1474.69L1173.18 1495.85C1170.42 1492.02 1172.26 1488 1176.42 1485.92L1176.44 1485.91Z" fill="#6DA9C6"/>
<path d="M2027.59 469.3C2035.69 464.95 2053 458.1 2055.74 449.88C2058.25 442.33 2057.55 433.51 2056.19 425.95L2052.48 421.33C2055.95 418.69 2059.53 416.07 2063.93 414.82L2064.06 455.55L2027.58 477.54C2026.6 475.06 2026.25 470.74 2027.59 469.31V469.3Z" fill="#6DA9C6"/>
<path d="M566.911 1358.94C568.741 1360.98 567.941 1365.75 567.681 1368.67L533.521 1348.83C532.101 1348.01 530.381 1346.42 530.391 1344.57L530.641 1305.48C534.541 1307.02 537.761 1308.82 541.131 1311.66C534.661 1318.19 536.411 1337.71 539.941 1342.24C546.651 1350.84 556.651 1354.72 566.921 1358.94H566.911Z" fill="#6DA9C6"/>
<path d="M1080.66 1486.09C1084.11 1487.75 1086.09 1492.85 1083.49 1495.75L1070.13 1488.02C1062.35 1483.52 1054.74 1479.78 1046.86 1474.84L1047.24 1434.42C1050.43 1434.76 1052.34 1436.23 1054.5 1437.72C1053.36 1448.94 1053.44 1459.74 1054.78 1470.98C1063.57 1476.41 1071.53 1481.69 1080.67 1486.1L1080.66 1486.09Z" fill="#6DA9C6"/>
<path d="M181.261 1084.62C185.371 1094.08 217.771 1102.87 208.941 1110.73C205.391 1110.02 202.311 1107.09 199.271 1105.49C190.111 1100.68 181.681 1095.51 172.771 1089.3L172.221 1046.45C177.231 1048.49 180.051 1051.25 184.101 1053.86C177.221 1058.49 178.221 1079.52 181.261 1084.61V1084.62Z" fill="#6DA9C6"/>
<path d="M200.32 452.59C212.96 465.82 233.37 466.85 227.48 477.51L194.57 458.41C193.1 457.55 190.93 455.79 190.93 453.94L190.77 415.1C194.85 416.31 197.97 418.45 201.14 421.47C196.52 427.12 196.66 448.76 200.32 452.59Z" fill="#6DA9C6"/>
<path d="M1667.57 242.76C1676.94 237.9 1685.92 233.36 1694.06 227.14C1699.49 222.99 1699.58 199.35 1694.68 193.31C1697.55 191.09 1700.01 189.68 1703.76 188.25L1704 228.62C1700.09 232 1695.89 234.17 1691.58 236.68L1667.66 250.65C1666.61 248.3 1666.56 244.7 1667.57 242.76Z" fill="#6DA9C6"/>
<path d="M706.851 203.21C708.831 224.57 691.131 240.26 683.071 235.39C672.291 228.87 681.781 204.25 699.461 197.14C701.551 196.3 704.071 197.41 705.251 198.01C706.981 198.89 706.651 201.13 706.841 203.21H706.851Z" fill="#6DA9C6"/>
<path d="M560.06 224.32C564.64 232.37 586.24 241.48 586.63 243.1C587.11 245.11 587.55 247.82 585.54 249.46L551.85 229.41L551.23 189.17C554.71 190.25 557.85 191.41 559.11 194.04C558.74 203.5 554.98 215.4 560.05 224.32H560.06Z" fill="#6DA9C6"/>
<path d="M1575.24 233.27C1574.02 236.36 1569.11 237.04 1566.02 235.61C1552.8 229.52 1544.53 215.02 1547.63 200.52C1548.35 197.14 1553.3 197.1 1555.58 197.08C1561.12 197.03 1567.45 206.59 1569.59 209.06C1575.14 215.49 1578.73 224.4 1575.24 233.27Z" fill="#6DA9C6"/>
<path d="M1907.48 439.61C1907.48 441.98 1906.71 443.26 1905.47 443.74C1904.31 444.19 1901.22 444.22 1901.18 442.05C1901 431.59 1900.72 421.57 1901.1 410.48C1901.4 409.26 1904.56 410.57 1905.56 411.28C1906.74 412.12 1907.55 414.02 1907.55 416.08L1907.48 439.61Z" fill="#6DA9C6"/>
</g>
<defs>
<clipPath id="clip0_3329_4160">
<rect width="2255.09" height="1571.18" fill="white"/>
</clipPath>
</defs>
</svg>
