<svg width="144" height="49" viewBox="0 0 144 49" fill="none" xmlns="http://www.w3.org/2000/svg">
<g clip-path="url(#clip0_3318_3010)">
<path d="M2.13672 48.5189V30.5353H5.68165L13.3971 42.2958V30.5353H17.2027V48.5189H13.6577L5.9423 36.7584V48.5189H2.13672Z" fill="#403C38"/>
<path d="M20.6953 48.5189V30.5353H32.3206V33.8578H24.6052V37.8131H31.6429V41.1356H24.6052V45.3546H32.5291V48.4134L20.6953 48.5189Z" fill="#403C38"/>
<path d="M39.8799 48.5189V33.6996H34.5625V30.5353H48.7943V33.8578H43.5291V48.5189H39.8799Z" fill="#403C38"/>
<path d="M51.1922 47.6225V45.5657C52.8082 46.3568 54.5807 46.7259 56.3531 46.7259C57.5 46.8314 58.6469 46.4622 59.481 45.9348C60.263 45.4075 60.6279 44.5109 60.6279 43.6144C60.6279 42.9815 60.3673 42.3487 59.8459 41.8213C59.064 41.1884 58.2299 40.6611 57.3436 40.3974L55.4669 39.6063C54.2158 39.2371 53.0689 38.4461 52.0784 37.5495C51.4528 36.9167 51.0879 36.0201 51.0879 34.9654C51.0879 33.5414 51.7135 32.2757 52.704 31.3792C54.1115 30.4826 55.6233 29.9552 57.2394 30.1135C58.1256 30.1135 58.8555 30.2189 59.7417 30.3772C60.5237 30.4826 61.2535 30.7463 61.8791 31.1682V33.225C60.4715 32.5921 58.8555 32.223 57.3436 32.0648C54.6849 32.0648 53.3295 32.9613 53.3295 34.7544C53.3295 35.3873 53.5902 35.9146 54.1115 36.2838C54.8935 36.9167 55.7276 37.2858 56.6138 37.7077L58.4905 38.4988C59.7417 38.868 60.9928 39.659 62.0355 40.6611C62.661 41.4521 63.026 42.4541 63.026 43.6144C63.1302 45.0383 62.5046 46.4095 61.4099 47.306C60.0023 48.3081 58.3863 48.73 56.7181 48.73C56.0925 48.73 55.4669 48.73 54.8413 48.6245C54.2158 48.519 53.5902 48.3608 52.9646 48.2553C52.0784 48.0971 51.5571 47.8862 51.1922 47.6225Z" fill="#403C38"/>
<path d="M65.8418 40.3445V30.5353H68.1356V40.3445C68.1356 42.5068 68.5005 44.1944 69.2825 45.1964C71.0549 47.095 74.0785 47.3587 75.9553 45.5656C76.0595 45.4601 76.2159 45.3019 76.3202 45.1964C77.1021 44.1944 77.4671 42.5068 77.4671 40.3445V30.5353H79.7608V40.5028C79.7608 43.4561 79.1353 45.4601 77.9884 46.884C76.8415 48.308 75.069 48.9408 72.8274 48.9408C70.5857 48.9408 68.8133 48.308 67.6664 46.884C66.4674 45.4601 65.8418 43.2979 65.8418 40.3445Z" fill="#403C38"/>
<path d="M83.4609 48.5189V30.5353H85.7547V48.5189H83.4609Z" fill="#403C38"/>
<path d="M94.4615 48.5189V32.4338H88.9355V30.5353H102.438V32.4338H96.7552V48.3607H94.4615V48.5189Z" fill="#403C38"/>
<path d="M105.408 48.5189V30.5353H116.356V32.4338H107.65V38.2878H115.574V40.1863H107.65V46.3039H116.616V48.2025H105.408V48.5189Z" fill="#403C38"/>
<path d="M61.8277 12.2352H71.2635L66.311 4.06083L57.0837 18.7747H52.8611L64.0693 1.16024C64.9556 -0.10547 66.5716 -0.36916 67.8228 0.527386C68.0835 0.632861 68.3441 0.791075 68.4484 1.05477L79.6566 18.7747H75.434L73.453 15.505H63.8608L61.8277 12.2352ZM105.201 15.505V0.15822H101.604V17.0344C101.604 17.5617 101.865 17.9309 102.125 18.3001C102.49 18.6692 102.855 18.8275 103.376 18.8275H119.537L121.674 15.5577L105.201 15.505ZM46.6575 12.7099C50.1503 12.7099 52.8611 9.96748 52.8611 6.43404C52.8611 2.90059 50.0982 0.15822 46.6575 0.15822H31.0702V18.7747H34.6673V3.42797H46.3968C48.0129 3.53345 49.2641 4.95737 49.2641 6.59225C49.1598 8.12165 48.0129 9.33462 46.3968 9.49284H36.4398L47.0224 18.8275H52.1313L45.0414 12.7099H46.6575ZM9.3315 18.7747H20.0184C25.1273 18.7747 29.2456 14.6084 29.2456 9.4401C29.2456 4.27178 25.1273 0.15822 20.0184 0.15822H9.3315C4.22263 0.15822 0 4.27178 0 9.4401C0 14.6084 4.22263 18.7747 9.3315 18.7747ZM19.7578 15.505H9.43576C6.20362 15.3995 3.59706 12.6044 3.70132 9.22915C3.80558 6.06487 6.30788 3.58619 9.43576 3.42797H19.7578C22.9899 3.3225 25.8571 5.9594 25.9614 9.22915C26.0656 12.4989 23.4591 15.3995 20.2269 15.505C20.0184 15.505 19.9141 15.505 19.7578 15.505ZM87.0592 18.7747H98.0068L100.144 15.505H87.3199C84.0878 15.6104 81.2205 12.9735 81.1163 9.70379C81.012 6.43404 83.6186 3.53345 86.8507 3.42797C86.955 3.42797 87.1114 3.42797 87.2156 3.42797H97.6419L99.7793 0.15822H87.0592C81.9504 0.15822 77.832 4.32452 77.832 9.49284C77.832 14.6612 81.9504 18.7747 87.0592 18.7747ZM130.432 15.505C127.826 15.505 125.48 13.7646 124.698 11.1277H139.868L142.006 7.85796H124.698C125.428 5.22106 127.826 3.48071 130.432 3.48071H140.859L142.996 0.210958H130.328C125.219 0.210958 121.101 4.37726 121.101 9.54558C121.101 14.7139 125.219 18.8802 130.328 18.8802H141.276L143.413 15.6104L130.432 15.505Z" fill="#403C38"/>
</g>
<defs>
<clipPath id="clip0_3318_3010">
<rect width="143.361" height="48.8881" fill="white"/>
</clipPath>
</defs>
</svg>
