<svg width="184" height="67" viewBox="0 0 184 67" fill="none" xmlns="http://www.w3.org/2000/svg">
<path d="M47.6692 18.5139L55.2562 37.8419H52.0219L50.2687 33.3491L50.2385 33.2888H41.8958L40.2031 37.8419H36.9688L44.2233 18.5139H47.6692ZM49.0899 30.2735L46.0974 22.675L45.9765 22.3735L43.0746 30.1228L43.0142 30.3037H49.0899V30.2735Z" fill="#000033"/>
<path d="M82.5206 37.661V23.3384H79.4676V33.4999L79.4374 33.5904C79.4072 33.6507 78.5306 35.2186 76.6263 35.2186C74.4197 35.2186 73.4524 33.6205 73.4524 32.0526V23.3082H70.4297V33.1381C70.4297 35.8217 72.6061 37.9927 75.2963 37.9927C77.4122 37.9927 78.8026 36.9373 79.4676 35.9423V37.6309H82.5206V37.661Z" fill="#000033"/>
<path d="M63.1752 23.0669C65.9561 23.0669 67.6488 24.2429 68.6463 25.5997L66.5909 27.4994C65.805 26.3837 64.6866 25.8108 63.2961 25.8108C60.6966 25.8108 58.9736 27.7707 58.9736 30.5448C58.9736 33.3189 60.6966 35.309 63.2961 35.309C64.6866 35.309 65.7747 34.7059 66.5909 33.6204L68.6463 35.52C67.6488 36.8769 65.9561 38.0529 63.1752 38.0529C58.8225 38.0529 55.7695 34.8868 55.7695 30.5448C55.7695 26.2028 58.8225 23.0669 63.1752 23.0669Z" fill="#000033"/>
<path d="M139.74 23.3684H136.777V37.6307H139.74V23.3684Z" fill="#000033"/>
<path d="M136.477 19.2978V18.8455C136.477 17.941 137.021 17.2776 138.26 17.2776C139.499 17.2776 140.013 17.941 140.013 18.8455V19.2978C140.013 20.2024 139.499 20.8658 138.26 20.8658C137.021 20.8658 136.477 20.2024 136.477 19.2978Z" fill="#000033"/>
<path d="M130.975 19.7803H128.013V23.3685H126.078V25.9918H127.952L128.013 35.0075C128.013 36.4548 129.192 37.6609 130.673 37.6609H133.423V34.8266H130.975V25.9918H133.877V23.3685H130.975V19.7803Z" fill="#000033"/>
<path d="M120.365 23.3986V25.1173C119.579 24.0619 117.887 23.0066 115.771 23.0066C111.75 23.0066 108.818 26.1726 108.818 30.5147C108.818 34.2838 111.206 38.1132 115.74 38.1132C118.944 38.1132 120.365 35.9723 120.365 35.9723V37.6609H123.358V23.3684L120.365 23.3986ZM116.224 35.4597C113.745 35.4597 111.932 33.4093 111.932 30.575C111.932 27.7406 113.745 25.66 116.224 25.66C118.4 25.66 120.607 27.1978 120.607 30.6051C120.577 32.9269 119.217 35.4597 116.224 35.4597Z" fill="#000033"/>
<path d="M168.004 23.3986V25.1173C167.188 24.0619 165.525 23.0066 163.409 23.0066C159.389 23.0066 156.457 26.1726 156.457 30.5147C156.457 34.2838 158.845 38.1132 163.379 38.1132C166.583 38.1132 168.004 35.9723 168.004 35.9723V37.6609H170.996V23.3684L168.004 23.3986ZM163.863 35.4597C161.384 35.4597 159.57 33.4093 159.57 30.575C159.57 27.7406 161.384 25.66 163.863 25.66C166.039 25.66 168.246 27.1978 168.246 30.6051C168.215 32.9269 166.855 35.4597 163.863 35.4597Z" fill="#000033"/>
<path d="M149.595 23.0669C152.376 23.0669 154.069 24.2429 155.066 25.5997L153.011 27.4994C152.225 26.3837 151.106 25.8108 149.716 25.8108C147.116 25.8108 145.394 27.7707 145.394 30.5448C145.394 33.3189 147.116 35.309 149.716 35.309C151.106 35.309 152.195 34.7059 153.011 33.6204L155.066 35.52C154.069 36.8769 152.376 38.0529 149.595 38.0529C145.242 38.0529 142.189 34.8868 142.189 30.5448C142.189 26.2028 145.242 23.0669 149.595 23.0669Z" fill="#000033"/>
<path d="M101.806 22.9463C99.5996 22.9463 97.8464 24.3635 97.1209 25.66C96.335 24.0619 94.6725 22.9463 92.738 22.9463C90.6221 22.9463 89.2316 24.0016 88.5666 24.9967V23.3081H85.5137V37.6307H88.5666V27.4692L88.5969 27.3788C88.6271 27.3185 89.5037 25.7505 91.408 25.7505C93.6146 25.7505 94.5818 27.3486 94.5818 28.9166V37.6609H97.6046V27.8009C97.6046 27.7406 97.6046 27.6803 97.6046 27.62L97.6348 27.4692L97.665 27.3788C97.6953 27.3185 98.5718 25.7505 100.476 25.7505C102.683 25.7505 103.65 27.3486 103.65 28.9166V37.6609H106.673V27.8009C106.673 25.1474 104.496 22.9463 101.806 22.9463Z" fill="#000033"/>
<path d="M98.4193 53.3103V46.8576H96.0918V45.8625H101.835V46.8576H99.5377V53.3103H98.4193Z" fill="#94949B"/>
<path d="M111.508 47.7924C113.14 47.7924 114.137 49.0588 114.137 50.7172V50.9584H109.875C109.966 51.863 110.631 52.647 111.719 52.647C112.293 52.647 112.928 52.4359 113.321 52.0138L113.775 52.6771C113.231 53.1897 112.475 53.4913 111.598 53.4913C109.996 53.4913 108.787 52.3454 108.787 50.6569C108.817 49.0588 109.936 47.7924 111.508 47.7924ZM109.875 50.2347H113.17C113.14 49.5111 112.656 48.6366 111.538 48.6366C110.419 48.6366 109.906 49.4809 109.875 50.2347Z" fill="#94949B"/>
<path d="M118.279 49.6015C118.279 47.3099 119.972 45.7419 122.118 45.7419C123.599 45.7419 124.506 46.4355 125.08 47.3099L124.143 47.8225C123.75 47.1893 123.025 46.737 122.118 46.737C120.607 46.737 119.428 47.913 119.428 49.6015C119.428 51.2901 120.607 52.466 122.118 52.466C122.995 52.466 123.75 52.0137 124.143 51.3805L125.08 51.8931C124.476 52.7676 123.569 53.4611 122.118 53.4611C119.972 53.4611 118.279 51.8931 118.279 49.6015Z" fill="#94949B"/>
<path d="M126.32 53.3103V45.8625H127.318V53.3103H126.32Z" fill="#94949B"/>
<path d="M128.646 50.6267C128.646 49.0889 129.704 47.7924 131.367 47.7924C133.029 47.7924 134.087 49.0588 134.087 50.6267C134.087 52.1947 133.06 53.4611 131.367 53.4611C129.674 53.4611 128.646 52.1947 128.646 50.6267ZM133.029 50.6267C133.029 49.6015 132.425 48.6969 131.367 48.6969C130.309 48.6969 129.704 49.6015 129.704 50.6267C129.704 51.6519 130.309 52.5565 131.367 52.5565C132.425 52.5565 133.029 51.6519 133.029 50.6267Z" fill="#94949B"/>
<path d="M138.894 53.3103V52.5867C138.894 52.5867 138.32 53.4611 137.11 53.4611C136.083 53.4611 135.236 52.6168 135.236 51.5916V47.9431H136.234V51.4107C136.234 52.3153 136.869 52.5867 137.564 52.5867C138.199 52.5867 138.592 52.2248 138.894 51.8328V47.9431H139.891V53.3405L138.894 53.3103Z" fill="#94949B"/>
<path d="M150.381 53.3103V45.8625H155.671V47.2194H151.983V48.8477H155.61V50.2046H151.983V51.9233H155.671V53.3103H150.381Z" fill="#94949B"/>
<path d="M161.624 53.3103L160.173 50.6267H158.995V53.3103H157.393V45.8625H160.869C162.441 45.8625 163.378 46.8877 163.378 48.2748C163.378 49.6618 162.561 50.295 161.745 50.4759L163.408 53.3103H161.624ZM160.657 47.2496H158.995V49.3H160.657C161.292 49.3 161.776 48.908 161.776 48.2748C161.776 47.6416 161.292 47.2496 160.657 47.2496Z" fill="#94949B"/>
<path d="M165.01 53.3103V45.8625H168.486C170.118 45.8625 170.995 46.9481 170.995 48.2748C170.995 49.6015 170.088 50.6569 168.486 50.6569H166.582V53.3405L165.01 53.3103ZM168.305 47.2496H166.612V49.3H168.305C168.939 49.3 169.393 48.908 169.393 48.2748C169.393 47.6416 168.939 47.2496 168.305 47.2496Z" fill="#94949B"/>
<path d="M104.102 45.8625V48.6668C104.102 48.6668 104.676 47.7923 105.885 47.7923C106.913 47.7923 107.759 48.6366 107.759 49.6618V53.3103H106.762V49.8427C106.762 48.9381 106.127 48.6668 105.432 48.6668C104.797 48.6668 104.404 49.0286 104.102 49.4206V53.3103H103.074V45.8625H104.102Z" fill="#94949B"/>
<path d="M145.241 45.8625V48.6969C144.817 48.124 144.183 47.7923 143.457 47.7923C142.037 47.7923 141.039 48.908 141.039 50.6267C141.039 52.3454 142.037 53.4611 143.457 53.4611C144.183 53.4611 144.817 53.0992 145.241 52.5565V53.3405H146.238V45.8927L145.241 45.8625ZM143.729 52.4962C142.732 52.4962 142.157 51.6519 142.157 50.6267C142.157 49.6015 142.792 48.7572 143.729 48.7572C144.666 48.7572 145.301 49.6015 145.301 50.6267C145.301 51.6519 144.697 52.4962 143.729 52.4962Z" fill="#94949B"/>
<path d="M29.8939 29.3387V37.8418H21.3698C19.0121 37.8418 16.8962 36.8769 15.3546 35.3391C13.813 33.8013 12.8457 31.6605 12.8457 29.3387C12.8457 29.007 12.8759 28.6753 12.9062 28.3436C14.478 30.3036 16.8659 31.5398 19.5561 31.5398H23.5764V27.4994C23.5764 24.8158 22.3371 22.4337 20.3723 20.8657C20.6746 20.8356 21.0071 20.8054 21.3396 20.8054C26.055 20.8356 29.8939 24.6348 29.8939 29.3387Z" fill="url(#paint0_linear_3318_3055)"/>
<path d="M15.3238 35.3392C16.8654 36.877 19.0116 37.8419 21.3391 37.8419H18.0141C14.7495 37.8419 11.757 36.5152 9.6109 34.3743C7.46476 32.2335 6.13477 29.2785 6.13477 25.9918C6.13477 19.4486 11.4548 14.1417 18.0141 14.1417C19.9486 14.1417 21.7925 14.6242 23.4247 15.4383C22.2761 14.8654 20.9159 14.5337 19.5557 14.5337C17.1979 14.5337 15.082 15.4986 13.5404 17.0364C11.9988 18.5742 11.0316 20.7151 11.0316 23.0368C11.0316 24.0319 11.2129 24.9968 11.5152 25.9014C11.8477 26.8059 12.3011 27.6201 12.8754 28.3437C12.8452 28.6754 12.815 29.0071 12.815 29.3388C12.8452 31.6907 13.7823 33.8014 15.3238 35.3392Z" fill="url(#paint1_linear_3318_3055)"/>
<path d="M29.8941 25.9918V29.3388C29.8941 24.6349 26.0854 20.8356 21.37 20.8356C16.987 20.8356 13.39 24.1223 12.9064 28.3437C12.332 27.62 11.8484 26.8059 11.5461 25.9013C11.2136 24.9967 11.0625 24.062 11.0625 23.0368C11.0625 20.6849 12.0298 18.5742 13.5714 17.0364C15.1129 15.4986 17.2591 14.5337 19.5866 14.5337C20.9468 14.5337 22.2768 14.8654 23.4557 15.4383H23.4859C27.2643 17.3982 29.8941 21.4085 29.8941 25.9918Z" fill="url(#paint2_linear_3318_3055)"/>
<defs>
<linearGradient id="paint0_linear_3318_3055" x1="15.1833" y1="35.3512" x2="27.8474" y2="27.692" gradientUnits="userSpaceOnUse">
<stop stop-color="#00649C"/>
<stop offset="0.11" stop-color="#0875AC"/>
<stop offset="0.37" stop-color="#1A9ACF"/>
<stop offset="0.62" stop-color="#28B5E9"/>
<stop offset="0.83" stop-color="#30C6F9"/>
<stop offset="1" stop-color="#33CCFF"/>
</linearGradient>
<linearGradient id="paint1_linear_3318_3055" x1="18.079" y1="13.0493" x2="12.3516" y2="37.1635" gradientUnits="userSpaceOnUse">
<stop stop-color="#00649C"/>
<stop offset="0.11" stop-color="#0875AC"/>
<stop offset="0.37" stop-color="#1A9ACF"/>
<stop offset="0.62" stop-color="#28B5E9"/>
<stop offset="0.83" stop-color="#30C6F9"/>
<stop offset="1" stop-color="#33CCFF"/>
</linearGradient>
<linearGradient id="paint2_linear_3318_3055" x1="29.6337" y1="25.848" x2="11.9624" y2="19.6635" gradientUnits="userSpaceOnUse">
<stop stop-color="#00649C"/>
<stop offset="0.11" stop-color="#0875AC"/>
<stop offset="0.37" stop-color="#1A9ACF"/>
<stop offset="0.62" stop-color="#28B5E9"/>
<stop offset="0.83" stop-color="#30C6F9"/>
<stop offset="1" stop-color="#33CCFF"/>
</linearGradient>
</defs>
</svg>
