<svg width="167" height="40" viewBox="0 0 167 40" fill="none" xmlns="http://www.w3.org/2000/svg">
<path d="M0.325195 12.7441C0.325195 12.3516 0.413086 12.0557 0.588867 11.8564C0.770508 11.6514 1.02832 11.5488 1.3623 11.5488C1.70215 11.5488 1.96582 11.6514 2.15332 11.8564C2.34668 12.0557 2.44336 12.3516 2.44336 12.7441C2.44336 13.125 2.34668 13.418 2.15332 13.623C1.95996 13.8281 1.69629 13.9307 1.3623 13.9307C1.06348 13.9307 0.814453 13.8398 0.615234 13.6582C0.421875 13.4707 0.325195 13.166 0.325195 12.7441Z" fill="#375E74"/>
<path d="M5.66402 12.7441C5.66402 12.3516 5.75191 12.0557 5.9277 11.8564C6.10934 11.6514 6.36715 11.5488 6.70113 11.5488C7.04098 11.5488 7.30465 11.6514 7.49215 11.8564C7.68551 12.0557 7.78219 12.3516 7.78219 12.7441C7.78219 13.125 7.68551 13.418 7.49215 13.623C7.29879 13.8281 7.03512 13.9307 6.70113 13.9307C6.4023 13.9307 6.15328 13.8398 5.95406 13.6582C5.7607 13.4707 5.66402 13.166 5.66402 12.7441Z" fill="#375E74"/>
<path d="M11.0029 12.7441C11.0029 12.3516 11.0907 12.0557 11.2665 11.8564C11.4482 11.6514 11.706 11.5488 12.04 11.5488C12.3798 11.5488 12.6435 11.6514 12.831 11.8564C13.0243 12.0557 13.121 12.3516 13.121 12.7441C13.121 13.125 13.0243 13.418 12.831 13.623C12.6376 13.8281 12.3739 13.9307 12.04 13.9307C11.7411 13.9307 11.4921 13.8398 11.2929 13.6582C11.0995 13.4707 11.0029 13.166 11.0029 12.7441Z" fill="#375E74"/>
<path d="M22.4764 13.6758L22.1864 12.3047H22.1161C21.6356 12.9082 21.1552 13.3184 20.6747 13.5352C20.2001 13.7461 19.6054 13.8516 18.8905 13.8516C17.9354 13.8516 17.1854 13.6055 16.6405 13.1133C16.1014 12.6211 15.8319 11.9209 15.8319 11.0127C15.8319 9.06738 17.3876 8.04785 20.4989 7.9541L22.1337 7.90137V7.30371C22.1337 6.54785 21.9696 5.99121 21.6415 5.63379C21.3192 5.27051 20.8007 5.08887 20.0858 5.08887C19.2831 5.08887 18.3749 5.33496 17.3612 5.82715L16.913 4.71094C17.3876 4.45312 17.9061 4.25098 18.4686 4.10449C19.037 3.95801 19.6054 3.88477 20.1737 3.88477C21.3221 3.88477 22.1718 4.13965 22.7225 4.64941C23.2792 5.15918 23.5575 5.97656 23.5575 7.10156V13.6758H22.4764ZM19.1805 12.6475C20.0888 12.6475 20.8007 12.3984 21.3163 11.9004C21.8378 11.4023 22.0985 10.7051 22.0985 9.80859V8.93848L20.6395 9C19.4794 9.04102 18.6415 9.22266 18.1259 9.54492C17.6161 9.86133 17.3612 10.3564 17.3612 11.0303C17.3612 11.5576 17.5194 11.959 17.8358 12.2344C18.1581 12.5098 18.6063 12.6475 19.1805 12.6475Z" fill="#375E74"/>
<path d="M33.7039 13.6758V7.44434C33.7039 6.65918 33.5252 6.07324 33.1678 5.68652C32.8104 5.2998 32.2508 5.10645 31.4891 5.10645C30.4813 5.10645 29.743 5.37891 29.2743 5.92383C28.8055 6.46875 28.5711 7.36816 28.5711 8.62207V13.6758H27.1121V4.04297H28.2987L28.536 5.36133H28.6063C28.9051 4.88672 29.3241 4.52051 29.8631 4.2627C30.4022 3.99902 31.0028 3.86719 31.6649 3.86719C32.825 3.86719 33.6981 4.14844 34.284 4.71094C34.87 5.26758 35.1629 6.16113 35.1629 7.3916V13.6758H33.7039Z" fill="#375E74"/>
<path d="M45.2654 12.3838H45.1863C44.5125 13.3623 43.5047 13.8516 42.1629 13.8516C40.9031 13.8516 39.9217 13.4209 39.2186 12.5596C38.5213 11.6982 38.1727 10.4736 38.1727 8.88574C38.1727 7.29785 38.5242 6.06445 39.2273 5.18555C39.9305 4.30664 40.909 3.86719 42.1629 3.86719C43.4695 3.86719 44.4715 4.3418 45.1688 5.29102H45.283L45.2215 4.59668L45.1863 3.91992V0H46.6453V13.6758H45.4588L45.2654 12.3838ZM42.3475 12.6299C43.3436 12.6299 44.0643 12.3604 44.5096 11.8213C44.9607 11.2764 45.1863 10.4004 45.1863 9.19336V8.88574C45.1863 7.52051 44.9578 6.54785 44.5008 5.96777C44.0496 5.38184 43.326 5.08887 42.3299 5.08887C41.4744 5.08887 40.8182 5.42285 40.3611 6.09082C39.91 6.75293 39.6844 7.69043 39.6844 8.90332C39.6844 10.1338 39.91 11.0625 40.3611 11.6895C40.8123 12.3164 41.4744 12.6299 42.3475 12.6299Z" fill="#375E74"/>
<path d="M63.8181 8.85059C63.8181 10.4209 63.4226 11.6484 62.6316 12.5332C61.8405 13.4121 60.7478 13.8516 59.3532 13.8516C58.4919 13.8516 57.7273 13.6494 57.0593 13.2451C56.3913 12.8408 55.8757 12.2607 55.5124 11.5049C55.1491 10.749 54.9675 9.86426 54.9675 8.85059C54.9675 7.28027 55.3601 6.05859 56.1452 5.18555C56.9304 4.30664 58.0202 3.86719 59.4148 3.86719C60.7624 3.86719 61.8318 4.31543 62.6228 5.21191C63.4196 6.1084 63.8181 7.32129 63.8181 8.85059ZM56.4792 8.85059C56.4792 10.0811 56.7253 11.0186 57.2175 11.6631C57.7097 12.3076 58.4333 12.6299 59.3884 12.6299C60.3435 12.6299 61.0671 12.3105 61.5593 11.6719C62.0573 11.0273 62.3064 10.0869 62.3064 8.85059C62.3064 7.62598 62.0573 6.69727 61.5593 6.06445C61.0671 5.42578 60.3376 5.10645 59.3708 5.10645C58.4157 5.10645 57.695 5.41992 57.2087 6.04688C56.7224 6.67383 56.4792 7.6084 56.4792 8.85059Z" fill="#375E74"/>
<path d="M70.0358 12.6475C70.2936 12.6475 70.5427 12.6299 70.7829 12.5947C71.0231 12.5537 71.2136 12.5127 71.3542 12.4717V13.5879C71.196 13.6641 70.9616 13.7256 70.6511 13.7725C70.3464 13.8252 70.071 13.8516 69.8249 13.8516C67.9616 13.8516 67.03 12.8701 67.03 10.9072V5.17676H65.6501V4.47363L67.03 3.86719L67.6452 1.81055H68.4889V4.04297H71.2839V5.17676H68.4889V10.8457C68.4889 11.4258 68.6266 11.8711 68.902 12.1816C69.1774 12.4922 69.5554 12.6475 70.0358 12.6475Z" fill="#375E74"/>
<path d="M80.4196 13.6758V7.44434C80.4196 6.65918 80.2409 6.07324 79.8834 5.68652C79.526 5.2998 78.9664 5.10645 78.2047 5.10645C77.1911 5.10645 76.4498 5.38184 75.9811 5.93262C75.5182 6.4834 75.2868 7.38574 75.2868 8.63965V13.6758H73.8278V0H75.2868V4.13965C75.2868 4.6377 75.2633 5.05078 75.2164 5.37891H75.3043C75.5914 4.91602 75.9987 4.55273 76.526 4.28906C77.0592 4.01953 77.6657 3.88477 78.3454 3.88477C79.5231 3.88477 80.4049 4.16602 80.9909 4.72852C81.5827 5.28516 81.8786 6.17285 81.8786 7.3916V13.6758H80.4196Z" fill="#375E74"/>
<path d="M89.4938 13.8516C88.0699 13.8516 86.9449 13.418 86.1188 12.5508C85.2984 11.6836 84.8883 10.4795 84.8883 8.93848C84.8883 7.38574 85.2691 6.15234 86.0309 5.23828C86.7984 4.32422 87.8268 3.86719 89.1158 3.86719C90.3229 3.86719 91.2779 4.26562 91.9811 5.0625C92.6842 5.85352 93.0357 6.89941 93.0357 8.2002V9.12305H86.4C86.4293 10.2539 86.7135 11.1123 87.2525 11.6982C87.7975 12.2842 88.5621 12.5771 89.5465 12.5771C90.5836 12.5771 91.609 12.3604 92.6227 11.9268V13.2275C92.107 13.4502 91.6178 13.6084 91.1549 13.7021C90.6979 13.8018 90.1441 13.8516 89.4938 13.8516ZM89.0982 5.08887C88.3248 5.08887 87.7066 5.34082 87.2438 5.84473C86.7867 6.34863 86.5172 7.0459 86.4352 7.93652H91.4713C91.4713 7.0166 91.2662 6.31348 90.8561 5.82715C90.4459 5.33496 89.86 5.08887 89.0982 5.08887Z" fill="#375E74"/>
<path d="M100.466 3.86719C100.894 3.86719 101.278 3.90234 101.618 3.97266L101.416 5.32617C101.017 5.23828 100.666 5.19434 100.361 5.19434C99.5816 5.19434 98.9136 5.51074 98.357 6.14355C97.8062 6.77637 97.5308 7.56445 97.5308 8.50781V13.6758H96.0718V4.04297H97.2759L97.4429 5.82715H97.5132C97.8707 5.2002 98.3013 4.7168 98.8052 4.37695C99.3091 4.03711 99.8629 3.86719 100.466 3.86719Z" fill="#375E74"/>
<path d="M113.025 13.8516C111.63 13.8516 110.549 13.4238 109.782 12.5684C109.02 11.707 108.639 10.4912 108.639 8.9209C108.639 7.30957 109.026 6.06445 109.799 5.18555C110.579 4.30664 111.686 3.86719 113.122 3.86719C113.584 3.86719 114.047 3.91699 114.51 4.0166C114.973 4.11621 115.336 4.2334 115.6 4.36816L115.152 5.60742C114.83 5.47852 114.478 5.37305 114.097 5.29102C113.716 5.20312 113.379 5.15918 113.086 5.15918C111.129 5.15918 110.151 6.40723 110.151 8.90332C110.151 10.0869 110.388 10.9951 110.863 11.6279C111.343 12.2607 112.052 12.5771 112.99 12.5771C113.792 12.5771 114.616 12.4043 115.459 12.0586V13.3506C114.815 13.6846 114.003 13.8516 113.025 13.8516Z" fill="#375E74"/>
<path d="M122.688 3.86719C123.116 3.86719 123.499 3.90234 123.839 3.97266L123.637 5.32617C123.239 5.23828 122.887 5.19434 122.582 5.19434C121.803 5.19434 121.135 5.51074 120.579 6.14355C120.028 6.77637 119.752 7.56445 119.752 8.50781V13.6758H118.293V4.04297H119.497L119.664 5.82715H119.735C120.092 5.2002 120.523 4.7168 121.027 4.37695C121.531 4.03711 122.084 3.86719 122.688 3.86719Z" fill="#375E74"/>
<path d="M127.64 13.6758H126.181V4.04297H127.64V13.6758ZM126.058 1.43262C126.058 1.09863 126.14 0.855469 126.304 0.703125C126.468 0.544922 126.673 0.46582 126.919 0.46582C127.154 0.46582 127.356 0.544922 127.526 0.703125C127.696 0.861328 127.781 1.10449 127.781 1.43262C127.781 1.76074 127.696 2.00684 127.526 2.1709C127.356 2.3291 127.154 2.4082 126.919 2.4082C126.673 2.4082 126.468 2.3291 126.304 2.1709C126.14 2.00684 126.058 1.76074 126.058 1.43262Z" fill="#375E74"/>
<path d="M134.385 12.6475C134.643 12.6475 134.892 12.6299 135.132 12.5947C135.372 12.5537 135.563 12.5127 135.703 12.4717V13.5879C135.545 13.6641 135.311 13.7256 135 13.7725C134.696 13.8252 134.42 13.8516 134.174 13.8516C132.311 13.8516 131.379 12.8701 131.379 10.9072V5.17676H129.999V4.47363L131.379 3.86719L131.994 1.81055H132.838V4.04297H135.633V5.17676H132.838V10.8457C132.838 11.4258 132.976 11.8711 133.251 12.1816C133.527 12.4922 133.905 12.6475 134.385 12.6475Z" fill="#375E74"/>
<path d="M139.636 13.6758H138.177V4.04297H139.636V13.6758ZM138.054 1.43262C138.054 1.09863 138.136 0.855469 138.3 0.703125C138.464 0.544922 138.669 0.46582 138.915 0.46582C139.15 0.46582 139.352 0.544922 139.522 0.703125C139.692 0.861328 139.777 1.10449 139.777 1.43262C139.777 1.76074 139.692 2.00684 139.522 2.1709C139.352 2.3291 139.15 2.4082 138.915 2.4082C138.669 2.4082 138.464 2.3291 138.3 2.1709C138.136 2.00684 138.054 1.76074 138.054 1.43262Z" fill="#375E74"/>
<path d="M147.119 13.8516C145.725 13.8516 144.644 13.4238 143.876 12.5684C143.115 11.707 142.734 10.4912 142.734 8.9209C142.734 7.30957 143.12 6.06445 143.894 5.18555C144.673 4.30664 145.781 3.86719 147.216 3.86719C147.679 3.86719 148.142 3.91699 148.605 4.0166C149.068 4.11621 149.431 4.2334 149.695 4.36816L149.246 5.60742C148.924 5.47852 148.573 5.37305 148.192 5.29102C147.811 5.20312 147.474 5.15918 147.181 5.15918C145.224 5.15918 144.245 6.40723 144.245 8.90332C144.245 10.0869 144.483 10.9951 144.957 11.6279C145.438 12.2607 146.147 12.5771 147.084 12.5771C147.887 12.5771 148.71 12.4043 149.554 12.0586V13.3506C148.909 13.6846 148.098 13.8516 147.119 13.8516Z" fill="#375E74"/>
<path d="M158.312 13.6758L158.022 12.3047H157.951C157.471 12.9082 156.99 13.3184 156.51 13.5352C156.035 13.7461 155.441 13.8516 154.726 13.8516C153.771 13.8516 153.021 13.6055 152.476 13.1133C151.937 12.6211 151.667 11.9209 151.667 11.0127C151.667 9.06738 153.223 8.04785 156.334 7.9541L157.969 7.90137V7.30371C157.969 6.54785 157.805 5.99121 157.477 5.63379C157.155 5.27051 156.636 5.08887 155.921 5.08887C155.118 5.08887 154.21 5.33496 153.197 5.82715L152.748 4.71094C153.223 4.45312 153.741 4.25098 154.304 4.10449C154.872 3.95801 155.441 3.88477 156.009 3.88477C157.157 3.88477 158.007 4.13965 158.558 4.64941C159.114 5.15918 159.393 5.97656 159.393 7.10156V13.6758H158.312ZM155.016 12.6475C155.924 12.6475 156.636 12.3984 157.152 11.9004C157.673 11.4023 157.934 10.7051 157.934 9.80859V8.93848L156.475 9C155.315 9.04102 154.477 9.22266 153.961 9.54492C153.451 9.86133 153.197 10.3564 153.197 11.0303C153.197 11.5576 153.355 11.959 153.671 12.2344C153.993 12.5098 154.442 12.6475 155.016 12.6475Z" fill="#375E74"/>
<path d="M164.406 13.6758H162.947V0H164.406V13.6758Z" fill="#375E74"/>
<path d="M4.60547 35.8516C3.18164 35.8516 2.05664 35.418 1.23047 34.5508C0.410156 33.6836 0 32.4795 0 30.9385C0 29.3857 0.380859 28.1523 1.14258 27.2383C1.91016 26.3242 2.93848 25.8672 4.22754 25.8672C5.43457 25.8672 6.38965 26.2656 7.09277 27.0625C7.7959 27.8535 8.14746 28.8994 8.14746 30.2002V31.123H1.51172C1.54102 32.2539 1.8252 33.1123 2.36426 33.6982C2.90918 34.2842 3.67383 34.5771 4.6582 34.5771C5.69531 34.5771 6.7207 34.3604 7.73438 33.9268V35.2275C7.21875 35.4502 6.72949 35.6084 6.2666 35.7021C5.80957 35.8018 5.25586 35.8516 4.60547 35.8516ZM4.20996 27.0889C3.43652 27.0889 2.81836 27.3408 2.35547 27.8447C1.89844 28.3486 1.62891 29.0459 1.54688 29.9365H6.58301C6.58301 29.0166 6.37793 28.3135 5.96777 27.8271C5.55762 27.335 4.97168 27.0889 4.20996 27.0889Z" fill="#375E74"/>
<path d="M17.7754 35.6758V29.4443C17.7754 28.6592 17.5966 28.0732 17.2392 27.6865C16.8818 27.2998 16.3222 27.1064 15.5605 27.1064C14.5527 27.1064 13.8144 27.3789 13.3457 27.9238C12.8769 28.4688 12.6425 29.3682 12.6425 30.6221V35.6758H11.1836V26.043H12.3701L12.6074 27.3613H12.6777C12.9765 26.8867 13.3955 26.5205 13.9345 26.2627C14.4736 25.999 15.0742 25.8672 15.7363 25.8672C16.8964 25.8672 17.7695 26.1484 18.3554 26.7109C18.9414 27.2676 19.2343 28.1611 19.2343 29.3916V35.6758H17.7754Z" fill="#375E74"/>
<path d="M25.8915 34.6475C26.1493 34.6475 26.3984 34.6299 26.6386 34.5947C26.8788 34.5537 27.0693 34.5127 27.2099 34.4717V35.5879C27.0517 35.6641 26.8173 35.7256 26.5068 35.7725C26.2021 35.8252 25.9267 35.8516 25.6806 35.8516C23.8173 35.8516 22.8857 34.8701 22.8857 32.9072V27.1768H21.5058V26.4736L22.8857 25.8672L23.5009 23.8105H24.3446V26.043H27.1396V27.1768H24.3446V32.8457C24.3446 33.4258 24.4823 33.8711 24.7577 34.1816C25.0331 34.4922 25.4111 34.6475 25.8915 34.6475Z" fill="#375E74"/>
<path d="M33.7528 35.8516C32.329 35.8516 31.204 35.418 30.3778 34.5508C29.5575 33.6836 29.1473 32.4795 29.1473 30.9385C29.1473 29.3857 29.5282 28.1523 30.2899 27.2383C31.0575 26.3242 32.0858 25.8672 33.3749 25.8672C34.5819 25.8672 35.537 26.2656 36.2401 27.0625C36.9432 27.8535 37.2948 28.8994 37.2948 30.2002V31.123H30.6591C30.6884 32.2539 30.9725 33.1123 31.5116 33.6982C32.0565 34.2842 32.8212 34.5771 33.8055 34.5771C34.8427 34.5771 35.868 34.3604 36.8817 33.9268V35.2275C36.3661 35.4502 35.8768 35.6084 35.4139 35.7021C34.9569 35.8018 34.4032 35.8516 33.7528 35.8516ZM33.3573 27.0889C32.5839 27.0889 31.9657 27.3408 31.5028 27.8447C31.0458 28.3486 30.7763 29.0459 30.6942 29.9365H35.7304C35.7304 29.0166 35.5253 28.3135 35.1151 27.8271C34.705 27.335 34.119 27.0889 33.3573 27.0889Z" fill="#375E74"/>
<path d="M44.7254 25.8672C45.1532 25.8672 45.537 25.9023 45.8768 25.9727L45.6746 27.3262C45.2762 27.2383 44.9246 27.1943 44.62 27.1943C43.8407 27.1943 43.1727 27.5107 42.6161 28.1436C42.0653 28.7764 41.7899 29.5645 41.7899 30.5078V35.6758H40.3309V26.043H41.535L41.702 27.8271H41.7723C42.1297 27.2002 42.5604 26.7168 43.0643 26.377C43.5682 26.0371 44.1219 25.8672 44.7254 25.8672Z" fill="#375E74"/>
<path d="M52.701 35.8516C52.074 35.8516 51.4998 35.7373 50.9783 35.5088C50.4627 35.2744 50.0291 34.917 49.6775 34.4365H49.5721C49.6424 34.999 49.6775 35.5322 49.6775 36.0361V40H48.2186V26.043H49.4051L49.6072 27.3613H49.6775C50.0525 26.834 50.4891 26.4531 50.9871 26.2188C51.4852 25.9844 52.0564 25.8672 52.701 25.8672C53.9783 25.8672 54.9627 26.3037 55.6541 27.1768C56.3514 28.0498 56.7 29.2744 56.7 30.8506C56.7 32.4326 56.3455 33.6631 55.6365 34.542C54.9334 35.415 53.9549 35.8516 52.701 35.8516ZM52.49 27.1064C51.5057 27.1064 50.7938 27.3789 50.3543 27.9238C49.9148 28.4688 49.6893 29.3359 49.6775 30.5254V30.8506C49.6775 32.2041 49.9031 33.1738 50.3543 33.7598C50.8055 34.3398 51.5291 34.6299 52.5252 34.6299C53.3572 34.6299 54.0076 34.293 54.4764 33.6191C54.951 32.9453 55.1883 32.0166 55.1883 30.833C55.1883 29.6318 54.951 28.7119 54.4764 28.0732C54.0076 27.4287 53.3455 27.1064 52.49 27.1064Z" fill="#375E74"/>
<path d="M64.1922 25.8672C64.6199 25.8672 65.0037 25.9023 65.3435 25.9727L65.1414 27.3262C64.7429 27.2383 64.3914 27.1943 64.0867 27.1943C63.3074 27.1943 62.6394 27.5107 62.0828 28.1436C61.532 28.7764 61.2566 29.5645 61.2566 30.5078V35.6758H59.7976V26.043H61.0017L61.1687 27.8271H61.239C61.5964 27.2002 62.0271 26.7168 62.531 26.377C63.0349 26.0371 63.5886 25.8672 64.1922 25.8672Z" fill="#375E74"/>
<path d="M69.1443 35.6758H67.6853V26.043H69.1443V35.6758ZM67.5622 23.4326C67.5622 23.0986 67.6443 22.8555 67.8083 22.7031C67.9724 22.5449 68.1775 22.4658 68.4236 22.4658C68.6579 22.4658 68.8601 22.5449 69.03 22.7031C69.1999 22.8613 69.2849 23.1045 69.2849 23.4326C69.2849 23.7607 69.1999 24.0068 69.03 24.1709C68.8601 24.3291 68.6579 24.4082 68.4236 24.4082C68.1775 24.4082 67.9724 24.3291 67.8083 24.1709C67.6443 24.0068 67.5622 23.7607 67.5622 23.4326Z" fill="#375E74"/>
<path d="M78.9919 33.0479C78.9919 33.9443 78.6579 34.6357 77.9899 35.1221C77.322 35.6084 76.3845 35.8516 75.1774 35.8516C73.9001 35.8516 72.904 35.6494 72.1891 35.2451V33.8916C72.652 34.126 73.1471 34.3105 73.6745 34.4453C74.2077 34.5801 74.7204 34.6475 75.2126 34.6475C75.9743 34.6475 76.5602 34.5273 76.9704 34.2871C77.3805 34.041 77.5856 33.6689 77.5856 33.1709C77.5856 32.7959 77.4216 32.4766 77.0934 32.2129C76.7712 31.9434 76.1384 31.627 75.195 31.2637C74.2985 30.9297 73.6598 30.6396 73.279 30.3936C72.904 30.1416 72.6227 29.8574 72.4352 29.541C72.2536 29.2246 72.1628 28.8467 72.1628 28.4072C72.1628 27.6221 72.4821 27.0039 73.1208 26.5527C73.7595 26.0957 74.6354 25.8672 75.7487 25.8672C76.7858 25.8672 77.7995 26.0781 78.7897 26.5L78.2712 27.6865C77.3044 27.2881 76.4284 27.0889 75.6432 27.0889C74.9518 27.0889 74.4304 27.1973 74.0788 27.4141C73.7272 27.6309 73.5514 27.9297 73.5514 28.3105C73.5514 28.5684 73.6159 28.7881 73.7448 28.9697C73.8796 29.1514 74.0934 29.3242 74.3864 29.4883C74.6794 29.6523 75.2419 29.8896 76.0739 30.2002C77.2165 30.6162 77.987 31.0352 78.3854 31.457C78.7897 31.8789 78.9919 32.4092 78.9919 33.0479Z" fill="#375E74"/>
<path d="M85.983 35.8516C84.5592 35.8516 83.4342 35.418 82.608 34.5508C81.7877 33.6836 81.3776 32.4795 81.3776 30.9385C81.3776 29.3857 81.7584 28.1523 82.5202 27.2383C83.2877 26.3242 84.3161 25.8672 85.6051 25.8672C86.8121 25.8672 87.7672 26.2656 88.4704 27.0625C89.1735 27.8535 89.525 28.8994 89.525 30.2002V31.123H82.8893C82.9186 32.2539 83.2028 33.1123 83.7418 33.6982C84.2868 34.2842 85.0514 34.5771 86.0358 34.5771C87.0729 34.5771 88.0983 34.3604 89.112 33.9268V35.2275C88.5963 35.4502 88.1071 35.6084 87.6442 35.7021C87.1871 35.8018 86.6334 35.8516 85.983 35.8516ZM85.5875 27.0889C84.8141 27.0889 84.1959 27.3408 83.733 27.8447C83.276 28.3486 83.0065 29.0459 82.9245 29.9365H87.9606C87.9606 29.0166 87.7555 28.3135 87.3454 27.8271C86.9352 27.335 86.3493 27.0889 85.5875 27.0889Z" fill="#375E74"/>
<path d="M103.991 33.0479C103.991 33.9443 103.657 34.6357 102.989 35.1221C102.321 35.6084 101.383 35.8516 100.176 35.8516C98.899 35.8516 97.9029 35.6494 97.188 35.2451V33.8916C97.6509 34.126 98.1461 34.3105 98.6734 34.4453C99.2066 34.5801 99.7193 34.6475 100.211 34.6475C100.973 34.6475 101.559 34.5273 101.969 34.2871C102.379 34.041 102.585 33.6689 102.585 33.1709C102.585 32.7959 102.42 32.4766 102.092 32.2129C101.77 31.9434 101.137 31.627 100.194 31.2637C99.2974 30.9297 98.6588 30.6396 98.2779 30.3936C97.9029 30.1416 97.6216 29.8574 97.4341 29.541C97.2525 29.2246 97.1617 28.8467 97.1617 28.4072C97.1617 27.6221 97.481 27.0039 98.1197 26.5527C98.7584 26.0957 99.6343 25.8672 100.748 25.8672C101.785 25.8672 102.798 26.0781 103.789 26.5L103.27 27.6865C102.303 27.2881 101.427 27.0889 100.642 27.0889C99.9507 27.0889 99.4293 27.1973 99.0777 27.4141C98.7261 27.6309 98.5504 27.9297 98.5504 28.3105C98.5504 28.5684 98.6148 28.7881 98.7437 28.9697C98.8785 29.1514 99.0923 29.3242 99.3853 29.4883C99.6783 29.6523 100.241 29.8896 101.073 30.2002C102.215 30.6162 102.986 31.0352 103.384 31.457C103.789 31.8789 103.991 32.4092 103.991 33.0479Z" fill="#375E74"/>
<path d="M105.383 26.043H106.948L109.057 31.5361C109.52 32.79 109.807 33.6953 109.918 34.252H109.989C110.065 33.9531 110.223 33.4434 110.463 32.7227C110.709 31.9961 111.506 29.7695 112.854 26.043H114.418L110.279 37.0117C109.869 38.0957 109.388 38.8633 108.837 39.3145C108.293 39.7715 107.622 40 106.825 40C106.379 40 105.94 39.9502 105.506 39.8506V38.6816C105.829 38.752 106.189 38.7871 106.587 38.7871C107.589 38.7871 108.304 38.2246 108.732 37.0996L109.268 35.7285L105.383 26.043Z" fill="#375E74"/>
<path d="M122.737 33.0479C122.737 33.9443 122.403 34.6357 121.735 35.1221C121.067 35.6084 120.129 35.8516 118.922 35.8516C117.645 35.8516 116.649 35.6494 115.934 35.2451V33.8916C116.397 34.126 116.892 34.3105 117.419 34.4453C117.953 34.5801 118.465 34.6475 118.957 34.6475C119.719 34.6475 120.305 34.5273 120.715 34.2871C121.125 34.041 121.331 33.6689 121.331 33.1709C121.331 32.7959 121.166 32.4766 120.838 32.2129C120.516 31.9434 119.883 31.627 118.94 31.2637C118.043 30.9297 117.405 30.6396 117.024 30.3936C116.649 30.1416 116.368 29.8574 116.18 29.541C115.999 29.2246 115.908 28.8467 115.908 28.4072C115.908 27.6221 116.227 27.0039 116.866 26.5527C117.504 26.0957 118.38 25.8672 119.494 25.8672C120.531 25.8672 121.544 26.0781 122.535 26.5L122.016 27.6865C121.049 27.2881 120.173 27.0889 119.388 27.0889C118.697 27.0889 118.175 27.1973 117.824 27.4141C117.472 27.6309 117.296 27.9297 117.296 28.3105C117.296 28.5684 117.361 28.7881 117.49 28.9697C117.624 29.1514 117.838 29.3242 118.131 29.4883C118.424 29.6523 118.987 29.8896 119.819 30.2002C120.961 30.6162 121.732 31.0352 122.13 31.457C122.535 31.8789 122.737 32.4092 122.737 33.0479Z" fill="#375E74"/>
<path d="M128.77 34.6475C129.028 34.6475 129.277 34.6299 129.517 34.5947C129.757 34.5537 129.948 34.5127 130.088 34.4717V35.5879C129.93 35.6641 129.696 35.7256 129.385 35.7725C129.081 35.8252 128.805 35.8516 128.559 35.8516C126.696 35.8516 125.764 34.8701 125.764 32.9072V27.1768H124.384V26.4736L125.764 25.8672L126.379 23.8105H127.223V26.043H130.018V27.1768H127.223V32.8457C127.223 33.4258 127.361 33.8711 127.636 34.1816C127.912 34.4922 128.289 34.6475 128.77 34.6475Z" fill="#375E74"/>
<path d="M136.631 35.8516C135.207 35.8516 134.082 35.418 133.256 34.5508C132.436 33.6836 132.026 32.4795 132.026 30.9385C132.026 29.3857 132.407 28.1523 133.168 27.2383C133.936 26.3242 134.964 25.8672 136.253 25.8672C137.46 25.8672 138.415 26.2656 139.119 27.0625C139.822 27.8535 140.173 28.8994 140.173 30.2002V31.123H133.538C133.567 32.2539 133.851 33.1123 134.39 33.6982C134.935 34.2842 135.7 34.5771 136.684 34.5771C137.721 34.5771 138.746 34.3604 139.76 33.9268V35.2275C139.245 35.4502 138.755 35.6084 138.292 35.7021C137.835 35.8018 137.282 35.8516 136.631 35.8516ZM136.236 27.0889C135.462 27.0889 134.844 27.3408 134.381 27.8447C133.924 28.3486 133.655 29.0459 133.573 29.9365H138.609C138.609 29.0166 138.404 28.3135 137.994 27.8271C137.583 27.335 136.997 27.0889 136.236 27.0889Z" fill="#375E74"/>
<path d="M155.488 35.6758V29.4092C155.488 28.6416 155.324 28.0674 154.995 27.6865C154.667 27.2998 154.158 27.1064 153.466 27.1064C152.558 27.1064 151.887 27.3672 151.453 27.8887C151.02 28.4102 150.803 29.2129 150.803 30.2969V35.6758H149.344V29.4092C149.344 28.6416 149.18 28.0674 148.852 27.6865C148.524 27.2998 148.011 27.1064 147.314 27.1064C146.4 27.1064 145.729 27.3818 145.301 27.9326C144.879 28.4775 144.668 29.374 144.668 30.6221V35.6758H143.209V26.043H144.396L144.633 27.3613H144.703C144.979 26.8926 145.366 26.5264 145.864 26.2627C146.368 25.999 146.93 25.8672 147.551 25.8672C149.057 25.8672 150.041 26.4121 150.504 27.502H150.575C150.862 26.998 151.278 26.5996 151.823 26.3066C152.368 26.0137 152.989 25.8672 153.686 25.8672C154.776 25.8672 155.59 26.1484 156.129 26.7109C156.674 27.2676 156.947 28.1611 156.947 29.3916V35.6758H155.488Z" fill="#375E74"/>
<path d="M166.715 33.0479C166.715 33.9443 166.381 34.6357 165.713 35.1221C165.045 35.6084 164.108 35.8516 162.901 35.8516C161.623 35.8516 160.627 35.6494 159.912 35.2451V33.8916C160.375 34.126 160.87 34.3105 161.398 34.4453C161.931 34.5801 162.444 34.6475 162.936 34.6475C163.698 34.6475 164.284 34.5273 164.694 34.2871C165.104 34.041 165.309 33.6689 165.309 33.1709C165.309 32.7959 165.145 32.4766 164.817 32.2129C164.494 31.9434 163.862 31.627 162.918 31.2637C162.022 30.9297 161.383 30.6396 161.002 30.3936C160.627 30.1416 160.346 29.8574 160.159 29.541C159.977 29.2246 159.886 28.8467 159.886 28.4072C159.886 27.6221 160.205 27.0039 160.844 26.5527C161.483 26.0957 162.359 25.8672 163.472 25.8672C164.509 25.8672 165.523 26.0781 166.513 26.5L165.994 27.6865C165.028 27.2881 164.152 27.0889 163.367 27.0889C162.675 27.0889 162.154 27.1973 161.802 27.4141C161.451 27.6309 161.275 27.9297 161.275 28.3105C161.275 28.5684 161.339 28.7881 161.468 28.9697C161.603 29.1514 161.817 29.3242 162.11 29.4883C162.403 29.6523 162.965 29.8896 163.797 30.2002C164.94 30.6162 165.71 31.0352 166.109 31.457C166.513 31.8789 166.715 32.4092 166.715 33.0479Z" fill="#375E74"/>
</svg>
