<svg width="195" height="44" viewBox="0 0 195 44" fill="none" xmlns="http://www.w3.org/2000/svg">
<g clip-path="url(#clip0_3318_3086)">
<path fill-rule="evenodd" clip-rule="evenodd" d="M33.7474 0.795532C33.7474 26.3386 33.7474 26.3386 33.7474 26.3386C33.7474 32.6139 29.9213 36.4733 23.4349 36.4733C16.9485 36.4733 13.1523 32.6139 13.1523 26.3386C13.1523 0.795532 13.1523 0.795532 13.1523 0.795532C4.51367 0.795532 4.51367 0.795532 4.51367 0.795532C4.51367 25.3369 4.51367 25.3369 4.51367 25.3369C4.51367 36.6206 12.1659 44.2511 23.4648 44.2511C34.9132 44.2511 42.4159 36.6206 42.4159 25.3369C42.4159 0.795532 42.4159 0.795532 42.4159 0.795532H33.7474Z" fill="#72808A"/>
<path fill-rule="evenodd" clip-rule="evenodd" d="M71.8577 0.11792C60.6186 0.11792 53.0859 7.66004 53.0859 19.1205C53.0859 43.927 53.0859 43.927 53.0859 43.927C61.6349 43.927 61.6349 43.927 61.6349 43.927C61.6349 18.1188 61.6349 18.1188 61.6349 18.1188C61.6349 11.6963 65.4311 7.92519 71.8577 7.92519C78.2844 7.92519 82.0806 11.6963 82.0806 18.1188C82.0806 43.927 82.0806 43.927 82.0806 43.927C90.6295 43.927 90.6295 43.927 90.6295 43.927C90.6295 19.1205 90.6295 19.1205 90.6295 19.1205C90.6295 7.66004 83.0969 0.11792 71.8577 0.11792Z" fill="#72808A"/>
<path d="M112.003 0.795532H103.395V43.927H112.003V0.795532Z" fill="#72808A"/>
<path fill-rule="evenodd" clip-rule="evenodd" d="M123.361 0.795532V8.77957H136.185V43.927H144.674V8.77957H157.497V0.795532H123.361Z" fill="#72808A"/>
<path fill-rule="evenodd" clip-rule="evenodd" d="M190.917 0.795532C181.74 0.795532 181.74 0.795532 181.74 0.795532C160.996 29.6383 160.996 29.6383 160.996 29.6383C160.518 30.5221 160.249 31.6416 160.368 32.6433C160.637 33.645 161.145 34.5288 162.012 35.1475C162.64 35.6484 163.537 35.9135 164.284 35.9135C179.977 35.7957 179.977 35.7957 179.977 35.7957C179.977 43.9565 179.977 43.9565 179.977 43.9565C187.898 43.9565 187.898 43.9565 187.898 43.9565C187.898 29.1669 187.898 29.1669 187.898 29.1669C171.039 29.1669 171.039 29.1669 171.039 29.1669L190.917 0.795532Z" fill="#BFD22B"/>
</g>
<defs>
<clipPath id="clip0_3318_3086">
<rect width="194.892" height="43.6029" fill="white"/>
</clipPath>
</defs>
</svg>
