<svg width="1264" height="864" viewBox="0 0 1264 864" fill="none" xmlns="http://www.w3.org/2000/svg">
<path d="M443.429 731.939L443.294 645.445C436.464 649.189 431.018 652.844 424.869 656.318L407.926 665.887L405.067 667.674L388.337 677.404C384.569 679.595 380.598 681.22 377.038 683.796C375.349 685.016 373.592 685.826 371.742 686.973C370.681 687.633 369.091 689.092 367.682 688.292L340.485 672.809C339.367 672.17 338.697 671.542 337.61 670.924L282.83 639.588C279.442 637.652 272.55 634.915 270.04 631.514L270.076 521.593C270.076 519.937 270.388 518.909 270.076 517.325C269.696 515.43 272.15 514.693 273.402 513.976L283.314 508.306C284.629 507.553 285.554 506.764 286.754 506.022C289.951 504.043 293.163 502.465 296.536 500.777C300.896 502.652 304.753 504.874 307.85 508.228L308.032 536.651L368.758 571.647C372.729 569.004 376.378 566.834 380.281 564.513L394.657 555.956L364.943 538.894L364.897 516.905L300.72 480.07C298.755 478.944 296.905 478.601 295.205 477.282C291.661 474.52 287.601 472.505 283.615 470.309L279.156 467.853C277.633 467.017 276.437 466.877 275.029 465.516C273.927 464.452 270.305 464.187 270.071 461.804L269.967 371.639C271.131 371.219 271.77 369.547 272.513 369.407C274.343 369.064 274.889 368.072 276.344 367.33L280.096 365.414C282.565 364.152 285.159 363.067 287.544 361.058C286.12 359.541 284.265 358.794 282.3 358.285C283.719 358.654 276.359 354.058 274.359 353.17C273.148 352.63 270.107 351.924 270.102 349.718L269.936 234.76C274.946 231.909 279.774 229.235 284.691 226.286L288.885 223.768C293.708 220.876 296.53 219.718 301.712 216.265C302.747 215.574 303.5 215.112 304.612 214.546C309.628 212.012 314.228 208.902 319.113 206.166L322.73 204.136C326.894 201.804 330.818 199.291 334.975 197.033L337.99 195.392L368.55 177.811C370.764 176.538 370.978 176.969 373.015 178.148L412.744 201.062C413.752 201.643 414.443 202.007 415.374 202.552L434.089 213.425L446.506 220.72L446.313 134.278L456.609 128.162L490.351 108.524C491.853 107.652 493.121 106.619 494.628 105.897C498.225 104.173 501.468 102.211 505.002 100.149L514.966 94.3338C518.131 92.4906 525.038 89.0169 527.772 86.6129C529.378 85.2006 535.386 83.43 535.994 81.8671C536.114 81.5556 535.776 80.9325 535.76 80.6677C535.719 79.92 536.794 80.351 537.314 80.0446L579.382 55.5785L597.276 45.2354L619.978 31.9223C624.448 29.3002 628.201 26.9117 632.753 24.6842L658.054 39.6744L688.989 57.6087L728.78 80.704L729.149 83.4923C729.237 84.1673 730.672 83.7987 731.644 84.3594L779.543 111.899L818.617 134.507L818.471 175.391L818.44 220.787C823.804 218.186 827.852 215.361 832.566 212.609L863.397 194.628L892.242 177.826C892.939 177.421 893.256 176.783 893.932 176.689C894.805 176.57 895.21 177.182 896.089 177.691L944.684 205.833L974.652 223.139L994.917 234.666L994.901 349.297C994.901 350.107 995.062 350.289 994.329 350.725L980.094 359.245C978.737 360.055 977.142 360.544 977.365 360.881C977.661 361.328 978.212 361.592 978.623 361.831L994.885 371.385L994.849 461.222C994.849 462.136 994.62 462.583 993.96 462.962L974.475 474.12L949.845 488.383C949.497 488.586 948.915 488.825 948.837 489.069C948.707 489.5 949.341 489.546 949.772 489.796L993.596 515.03C994.781 515.716 994.849 515.949 994.849 517.434L994.859 630.897C994.859 631.94 994.88 631.94 994.199 632.335L963.036 650.43L960.219 652.05L928.099 670.742C924.383 672.902 919.201 675.55 916.041 677.762C913.671 679.419 911.171 680.395 908.677 681.828L899.389 687.155C898.287 687.789 897.227 688.51 895.912 687.716C895.065 687.202 886.349 682.01 886.536 681.854C886 682.295 886.702 690.535 886.141 693.573C885.746 695.712 883.334 695.889 881.848 696.761L835.456 723.865C832.067 725.848 828.731 727.328 825.623 729.649C824.687 730.345 823.726 730.485 822.733 731.061L804.75 741.456C804.355 741.685 803.232 742.204 802.869 741.851C801.278 740.309 799.423 739.774 797.692 738.621L793.046 735.522C785.301 730.355 777.246 725.843 768.841 721.715C764.325 719.498 760.661 716.601 756.352 714.181L746.503 708.657C744.528 707.551 742.324 707.005 740.776 705.095C740.682 704.975 740.136 704.949 739.965 704.897C735.495 703.552 731.41 698.355 731.415 700.577L731.472 749.79L731.535 782.865L718.666 790.493L707.486 796.915L678.797 813.453L659.515 824.762C656.641 826.444 653.995 828.173 651.017 829.819L647.353 831.839C646.386 832.374 645.201 833.184 644.172 833.781C641.267 835.473 637.868 836.699 635.435 839.061C633.933 840.515 632.691 840.126 631.023 839.165L597.411 819.855C592.884 817.254 588.856 814.491 584.174 812.269C583.03 811.729 581.96 811.667 580.92 810.831C576.071 806.937 570.525 804.252 565.105 801.256L553.332 794.761L546.207 790.602L533.842 783.182L533.676 772.621C533.666 772.044 533.78 771.515 533.598 770.834C533.468 770.367 532.943 770.705 532.397 771.058L523.068 777.07C520.636 776.188 518.962 774.874 516.785 773.618L459.286 740.423C454.011 737.375 449.344 734.556 443.403 731.918L443.429 731.939ZM593.758 113.177L604.584 119.548C605.504 120.088 606.283 120.513 607.224 121.053L626.304 132.04C628.741 133.442 630.804 135.135 633.497 135.888L692.638 101.961L726.431 81.9762C721.706 78.4973 717.055 76.1867 712.424 73.4556L701.962 67.2819L692.315 61.8871C687.295 59.0781 682.586 56.0977 677.576 53.2367L669.634 48.6987C668.137 47.8419 666.552 46.8554 665.066 45.9987L656.854 41.2633L635.025 28.3708C633.003 27.1765 631.636 27.2233 629.749 28.6148C627.042 30.6087 623.861 32.0365 620.883 33.8071L601.73 45.2042L591.117 51.2014C589.73 51.9854 588.3 52.9044 586.907 53.7196L572.854 61.991L568.873 64.286C560.895 68.8863 554.008 72.656 546.041 77.3031L539.055 81.3739C542.439 83.8558 547.688 85.9171 549.803 87.589C554.008 90.9173 559.07 92.7502 563.587 95.554C565.583 96.795 567.152 98.3475 569.429 99.251C571.133 99.9312 572.578 101.769 574.423 101.961C575.718 102.096 576.003 102.771 576.939 103.607C576.674 103.368 592.453 112.419 593.752 113.187L593.758 113.177ZM557.953 179.851L579.091 167.509L592.864 159.492L607.894 150.707L630.607 137.362C625.758 134.076 621.132 131.402 616.148 128.536L567.423 100.523L549.627 90.18C545.63 87.859 541.924 85.4602 537.574 83.591L512.107 98.4254L482.861 115.368C476.625 118.982 470.798 122.616 464.546 126.178L448.715 135.203L531.187 182.868L539.897 187.842C541.119 188.538 541.955 189.55 543.499 188.486C548.099 185.308 552.912 182.795 557.953 179.851ZM799.23 144.315C802.619 142.321 806.122 140.452 808.534 138.78C810.394 137.492 812.795 136.926 814.266 134.787C809.994 131.511 805.259 129.133 800.675 126.49L795.031 123.239L789.506 120.015C784.413 117.04 779.564 114.023 774.252 111.344C772.568 110.492 765.744 105.804 763.602 105.388C761.513 102.943 758.473 102.361 755.983 100.502L728.972 85.211L728.931 119.901L728.801 185.355C729.97 184.945 739.679 178.984 739.419 179.249C741.212 177.421 745.812 175.458 747.335 174.565L765.037 164.228L773.93 159.269C775.348 158.48 776.736 157.4 778.067 156.642L785.655 152.301L799.225 144.32L799.23 144.315ZM782.989 223.716C788.633 226.198 788.3 226.675 793.025 229.235C794.75 230.17 796.356 231.977 798.518 231.977C800.732 231.977 806.424 227.646 808.887 226.255L816.309 222.075L816.273 149.528L816.018 137.222L793.534 150.229L779.803 158.282L737.163 183.024L725.63 189.395C726.275 190.9 727.517 191.425 728.78 192.152L761.653 211.083C769.195 207.547 774.397 203.575 782.76 199.598L782.978 223.711L782.989 223.716ZM585.073 253.13L585.094 218.015L615.384 235.715L633.497 225.289L648.07 233.498L686.089 211.041L721.467 190.096L707.985 182.058L656.173 152.041C654.671 151.169 653.527 150.956 652.181 149.892C649.557 147.815 636.423 140.031 632.639 138.738C630.841 139.798 629.214 140.888 627.4 141.953L615.363 149.004C610.997 151.558 606.824 153.968 602.448 156.455L593.81 161.372L562.454 179.742L557.137 182.785L552.283 185.703C549.44 187.411 546.41 188.657 543.785 190.911L548.592 194.592L548.618 274.647L570.744 261.848C575.634 259.018 580.182 256.282 585.078 253.12L585.073 253.13ZM273.122 235.445L283.911 241.671L293.053 247.04L302.248 252.445L338.894 273.359L362.542 287.129C364.361 288.189 366.186 288.755 368.046 290.26L450.705 242.164L464.92 233.462L441.906 220.185L383.051 186.129L370.536 178.885L351.368 190.085C349.606 191.113 347.527 191.503 346.3 193.33C342.844 194.431 339.887 197.193 337.273 198.222C336.01 198.72 326.306 204.447 324.373 205.6L319.165 208.705L310.813 213.357C308.937 214.401 307.076 215.486 305.184 216.623L293.573 223.607L286.655 227.626C285.075 228.545 283.537 229.188 282.056 230.367C279.499 232.397 275.081 233.758 273.116 235.44L273.122 235.445ZM924.82 276.703L917.32 281.106C910.735 284.975 904.077 288.376 897.643 292.623L897.674 312.473L897.523 402.534C897.523 403.557 896.291 403.562 897.481 404.33C898.214 404.803 898.365 404.45 899.155 403.988L926.888 387.73L945.905 376.66L965.317 365.492L981.32 355.969C985.187 353.669 989.137 352.013 992.9 348.918L992.853 239.002C992.853 237.979 991.497 237.678 991.039 237.844C990.67 237.974 989.579 238.462 989.246 238.156C988.711 236.655 990.53 236.068 991.829 235.383L967.999 221.473L958.925 216.363L909.098 187.442L899.779 182.198C897.866 181.123 896.182 179.825 894.238 178.823C892.196 180.142 890.543 181.253 888.578 182.401L858.834 199.743L846.698 206.908C843.185 208.985 840.373 210.678 836.896 212.687L814.521 225.632C812.011 227.086 803.269 231.977 801.928 233.301C800.587 234.625 802.889 235.528 803.731 236.032C807.894 238.524 811.579 240.949 815.867 243.161L850.44 263.151L897.211 290.338L930.412 270.981C935.557 267.98 940.583 265.529 945.422 262.097C949.985 259.833 954.065 257.352 958.462 254.787L986.902 238.182C987.661 237.74 988.129 237.735 988.446 238C988.706 238.213 989.012 239.371 988.456 239.693L924.804 276.724L924.82 276.703ZM467.129 322.084C469.016 320.755 470.985 320.371 472.534 318.896C478.49 316.123 483.667 312.728 489.415 309.378L541.42 279.045L541.306 235.092C541.29 229.754 540.557 224.801 541.457 219.51L541.259 191.482L528.058 198.985C524.482 201.015 521.275 203.32 517.445 204.951C510.355 209.624 503.219 213.497 495.839 217.719L467.794 233.773C467.597 235.897 467.051 237.673 467.056 239.734L467.134 273.494V322.084H467.129ZM745.204 255.487C745.318 252.211 746.519 249.288 748.8 247.824C757.984 241.925 772.214 257.31 772.287 268.255L772.552 306.486L797.401 320.609L797.567 234.511L775.972 221.634L738.239 199.722L723.318 191.337C722.45 194.099 723.577 196.358 723.593 198.767C723.645 206.54 723.52 214.094 723.385 221.8L723.032 242.315C722.964 246.235 724.186 249.885 723.588 258.432C723.318 262.274 722.268 274.512 724.17 277.191C727.761 281.008 732.855 283.142 737.257 285.914C739.965 287.618 742.465 289.201 745.318 290.478C745.536 278.043 744.752 268.017 745.193 255.472L745.204 255.487ZM633.31 334.93C636.007 333.689 637.691 332.147 639.837 330.906L662.217 317.987L684.956 304.882L705.345 293.095L725.63 281.143C715.485 274.46 705.449 268.993 695.086 263.032L644.998 234.22C640.997 231.92 637.556 229.453 633.258 227.491L615.379 237.963L540.895 281.542L558.53 291.989C558.384 290.951 564.455 295.193 564.346 295.131L588.082 308.854L610.789 321.965L625.363 330.241L633.31 334.935V334.93ZM343.463 390.913C347.272 393.348 350.968 395.14 354.679 397.253C359.091 399.766 363.337 402.227 367.553 404.938C368.41 402.316 367.454 400.332 367.454 397.907L367.527 319.711C367.527 314.727 367.776 310.381 367.656 305.495L367.345 292.773C365.629 290.8 363.249 289.778 361.056 288.511L348.78 281.433L330.095 270.545L316.805 263.125L284.176 244.366C280.096 242.019 276.744 239.36 271.796 237.314V293.651L271.879 302.644C271.947 309.841 271.63 316.897 271.9 324.104C272.196 332.012 272.176 339.774 271.645 347.615C271.505 349.681 272.945 349.832 274.119 350.502L281.38 354.655L285.959 357.361C290.574 360.087 294.878 362.849 299.54 365.57L319.835 377.398L330.734 383.519C335.022 385.929 339.149 388.151 343.468 390.913H343.463ZM770.354 285.432L770.811 271.999C771.497 263.364 764.787 252.595 756.799 249.122C753.135 247.528 749.637 248.556 747.995 252.227C746.576 255.384 747.054 258.65 747.413 262.061C747.756 265.317 746.992 268.515 747.626 271.952L770.359 285.437L770.354 285.432ZM534.736 391.5C536.893 389.672 538.671 389.215 540.677 388.052L591.549 358.477L630.628 335.948C626.906 333.258 623.606 331.69 620.067 329.644L577.958 305.334L538.905 282.804L522.819 292.285L507.954 300.816L482.092 315.91L460.128 328.678L443.413 338.206L534.736 391.495V391.5ZM731.571 391.277L774.927 365.757L795.052 354.147L815.971 341.919L822.728 337.78C819.963 336.389 818.014 335.138 815.561 333.704L764.787 304.067L742.907 291.522L727.257 282.498L703.604 296.429L663.875 319.478L646.183 329.857C642.701 331.898 639.079 333.336 635.55 335.729L675.237 358.768L689.046 366.816L712.414 380.274L722.98 386.303C725.88 387.954 728.484 389.698 731.576 391.272L731.571 391.277ZM416.117 321.425L415.992 294.528L404.397 301.683L393.259 308.293L416.117 321.419V321.425ZM872.061 308.491L849.349 295.017L849.333 321.98L872.061 308.491ZM441.594 349.956C440.305 345.756 441.553 342.329 441.002 338.393L408.217 319.291C405.265 317.572 402.64 315.734 399.631 314.285C397.172 313.101 395.208 311.575 392.9 310.188L385.161 305.541C383.675 304.648 381.539 303.994 380.104 305.09C379.148 305.817 377.667 307.037 377.667 308.875L377.719 407.067L393.233 416.314L419.77 431.33L441.724 443.89L441.599 349.946L441.594 349.956ZM853.694 379.376L872.68 390.332L886.203 398.338L886.38 314.545C886.38 312.193 885.403 309.939 884.103 308.423C882.383 306.414 879.847 306.18 877.825 307.478L870.512 312.177L855.341 320.869L824.594 338.45L824.609 362.885L853.688 379.376H853.694ZM661.271 431.933L680.424 420.769L694.555 412.617L720.199 397.731C723.281 395.939 726.285 394.667 729.217 392.383L703.282 377.325L665.746 355.626L649.297 346.187L632.899 336.877L612.983 348.596L543.676 388.764C541.29 390.15 539.357 391.355 536.639 392.44C539.107 394.512 541.867 395.784 544.674 397.373L551.02 400.96L572.303 413.287L592.458 424.892L619.433 440.453L633.159 448.47L661.277 431.938L661.271 431.933ZM816.626 388.478C815.774 377.984 817.333 369.89 816.574 359.962L802.759 352.127L770.13 371.131C764.73 374.277 760.671 376.749 755.313 379.848L767.719 378.654C783.035 377.18 802.229 381.64 816.626 388.478ZM891.832 403.515L870.632 391.329L850.055 379.63L818.461 361.281L818.44 389.433C823.066 391.484 827.151 393.686 831.418 396.189L850.206 405.987C864.301 412.015 879.02 412.97 891.832 403.515ZM377.687 429.575L377.5 409.31C375.307 408.323 373.769 406.978 372.007 405.602C370.687 405.955 370.016 406.802 368.613 407.456L308.084 372.642L308.204 391.401L327.418 402.591L363.27 423.334C365.255 424.482 366.601 424.466 368.582 424.829C371.981 425.453 374.288 428.609 377.687 429.57V429.575ZM493.007 511.551L489.914 515.903C482.887 525.789 460.378 537.949 446.656 536.584C448.538 537.591 450.128 538.499 451.552 538.697C463.033 540.27 472.643 536.532 481.578 529.797C486.338 526.209 492.705 518.218 495.777 512.787C497.383 509.947 499.275 507.382 501.052 504.635C503.869 500.284 506.91 496.546 510.496 492.776L513.822 489.276C519.872 485.091 525.61 480.533 533.125 478.539L533.084 456.513C515.225 461.721 504.264 470.584 493.781 485.367C485.606 496.899 476.396 507.922 462.207 511.832C453.839 514.142 444.863 514.334 437.369 510.108L415.176 497.584C411.075 495.273 407.338 492.729 403.04 490.912C401.72 490.351 401.029 489.64 399.87 488.975L378.794 476.888L365.209 468.897L365.073 426.953C361.196 424.321 357.875 422.109 353.842 420.094L302.902 390.752L272.056 373.104L272.066 407.877L272.025 460.35C273.205 462.697 275.684 463.351 277.711 464.675C281.089 466.887 284.54 468.486 288.033 470.491L313.807 485.258L343.899 502.444L364.949 514.61L365.214 490.512L392.879 506.307L419.256 521.458C426.901 525.851 433.871 531.023 442.104 534.408C447.462 536.615 454.463 534.221 459.983 533.074C466.698 531.677 472.539 528.089 478.168 524.428C477.253 525.02 484.966 519.137 485.543 518.732C488.49 516.661 490.434 513.717 493.007 511.536V511.551ZM791.97 435.266C796.606 437.364 800.769 439.711 805.135 442.296L829.235 456.58L845.123 465.677C852.732 470.034 860.565 473.481 869.182 475.444C870.33 475.704 871.651 475.049 872.446 476.306C885.522 478.617 898.776 477.677 910.678 471.01L910.6 507.413C910.6 507.912 909.888 508.275 910.459 508.638C911.561 509.345 926.114 500.108 928.655 498.607L943.109 490.081L974.283 471.986L992.848 461.29L992.9 374.282C991.538 373.732 990.904 374.921 990.015 375.497C986.897 377.512 983.269 378.659 980.307 380.908C979.096 381.827 978.067 382.164 976.715 382.943L928.286 410.847L910.704 420.888L910.589 442.203C896.946 450.49 881.12 453.221 865.31 450.557C856.209 449.026 847.633 446.357 839.546 442.161L821.454 432.774L806.299 424.601C800.28 421.356 794.35 418.453 787.708 416.506C769.98 411.298 750.022 412.638 732.548 418.178L733.021 431.486C753.816 426.668 772.511 426.47 791.975 435.276L791.97 435.266ZM631.813 565.494V453.366C631.813 450.479 630.737 449.519 628.585 448.231L616.221 440.843L556.305 406.345L545.692 400.291C543.26 398.904 540.926 397.44 538.317 396.277C537.195 395.778 536.737 393.982 534.996 394.403L535.043 509.75L549.783 518.384L567.313 528.432L576.149 533.52C579.169 535.259 580.832 536.423 583.924 538.204L625.384 562.088C627.572 563.35 629.323 565.105 631.808 565.484L631.813 565.494ZM633.762 561.984C633.762 563.641 633.803 564.539 634.24 565.899L672.144 543.718L710.147 521.562L730.937 509.324L730.859 394.133C727.647 395.244 726.228 397.097 723.796 398.151C719.212 400.14 715.496 403.146 711.015 405.478L662.607 433.501L633.705 450.048L633.751 561.989L633.762 561.984ZM379.273 430.718L420.779 454.654L446.069 469.379C457.566 476.072 468.813 475.543 478.028 465.532L489.732 452.816C494.036 448.143 499.342 444.815 504.815 441.481C513.427 436.237 522.881 433.376 533.032 431.585L533.047 403.271C528.162 402.419 516.005 406.703 511.577 408.603C505.35 411.272 499.758 414.081 493.849 417.451L458.839 437.421L444.785 445.723C443.621 446.414 442.447 447.25 441.126 446.118C438.803 444.129 435.997 442.919 433.341 441.408L425.794 437.109L409.901 428.054C406.112 425.894 402.578 423.49 398.617 421.709C397.339 421.133 396.512 420.442 395.358 419.736C390.223 416.605 385.234 413.702 379.558 410.675C380.52 418.448 378.722 422.898 379.273 430.718ZM880.174 517.491C862.68 512.86 849.998 508.685 834.671 499.386C820.742 490.938 807.728 482.106 794.589 472.531C773.015 456.814 760.406 451.347 732.917 451.284C732.559 453.179 732.616 454.934 732.985 456.809C757.033 456.606 773.805 463.58 792.843 477.822C806.839 488.29 820.919 497.984 835.919 506.873L835.882 535.82C838.034 537.445 839.884 538.634 842.228 539.663L880.174 517.486V517.491ZM789.21 512.107C790.171 513.763 792.079 514.734 793.997 515.534C795.914 516.333 796.98 518.011 799.142 518.249L790 511.427L773.28 495.372C762.126 484.66 748.499 477.968 733.047 475.782C732.387 476.488 732.377 478.809 733.094 479.478C744.403 482.506 754.512 487.781 764.096 494.531L789.21 512.107ZM884.899 580.734L884.831 566.912L842.176 542.3C839.614 543.666 838.008 545.483 835.451 546.516L835.373 543.37C829.609 539.091 823.575 535.825 817.317 532.263C806.85 526.313 797.115 519.994 787.256 513.119L770.401 501.369C757.402 492.309 748.868 486.192 732.922 481.54C732.512 483.191 732.475 484.702 732.87 486.389C754.606 492.397 765.473 504.163 776.159 523.135C781.164 532.025 787.619 539.377 795.961 545.421C802.863 550.421 810.124 554.518 817.925 558.08C832.868 564.907 836.35 568.127 853.496 565.458C856.552 564.98 858.465 565.422 861.069 566.932L884.904 580.739L884.899 580.734ZM410.748 661.78L424.225 654.132C429.458 651.162 434.677 648.68 439.718 645.201C440.679 644.537 442.914 643.716 443.044 642.262L443.325 620.917L451.979 615.958L478.844 600.184L483.345 602.277C488.246 604.556 493.23 603.974 497.445 600.636C512.544 588.673 521.873 570.977 526.649 552.446C530.791 536.791 535.012 530.218 547.496 519.475L533.239 510.908L532.73 503.534C525.007 508.701 518.567 520.217 515.392 528.307C511.088 539.258 504.825 548.697 496.068 556.813C479.847 571.839 454.998 583.958 432.535 577.244C428.471 576.029 425.145 573.589 421.543 571.564L410.909 565.588L396.715 557.244C392.521 559.217 389.189 561.735 385.468 563.973C383.249 565.307 381.05 566.226 378.789 567.919L378.768 666.64C381.689 669.865 384.959 673.094 389.168 674.06C392.308 673.712 394.943 670.561 397.676 669.268C400.603 667.887 403.077 666.391 405.712 664.802L410.753 661.775L410.748 661.78ZM744.757 525.171C740.531 519.636 736.789 515.025 731.332 511.354L719.103 518.582C724.544 522.756 729.451 526.666 733.245 532.128L744.757 525.176V525.171ZM897.689 654.039L897.773 685.816L955.801 652.356C957.402 650.71 959.574 650.7 961.253 649.303C964.169 646.811 967.371 644.802 971.154 643.773L992.853 630.751V518.493L960.297 537.258C957.599 538.816 955.042 540.114 952.527 541.926L935.36 551.781L902.476 570.796C900.829 571.751 899.223 572.192 897.663 573.594L897.684 654.039H897.689ZM336.55 667.705L352.459 677.061L360.411 681.547C362.927 682.965 364.762 685.021 367.896 686.179C367.184 684.341 367.371 683.084 367.381 681.267L367.672 603.367L367.755 573.527C365.032 572.379 362.579 571.086 360.307 569.456C356.893 567.01 353.598 565.245 349.861 563.095L276.157 520.711C274.754 519.906 273.896 518.789 272.051 518.992L272.03 616.379L272.134 630.938L278.22 634.318L285.793 638.711L292.788 642.735L302.367 648.125L307.331 651.037L314.862 655.358L321.847 659.304L328.484 663.068C331.187 664.6 333.702 666.033 336.555 667.71L336.55 667.705ZM932.434 550.893C933.515 550.265 934.57 550.338 935.027 549.299C930.989 547.519 927.761 545.509 924.087 543.391L881.791 518.992L854.296 535.104C850.996 537.04 847.873 538.339 844.229 540.997L873.911 558.215L896.52 571.471C899.025 570.463 900.938 569.29 903.147 568.002L932.439 550.893H932.434ZM803.804 628.57C809.76 624.676 815.311 621.706 821.054 618.295L832.551 611.467L797.37 591.663C790.27 587.665 783.524 583.766 777.277 578.641C766.113 569.487 758.312 557.914 753.748 544.367C751.659 538.157 749.039 532.513 745.718 526.671L734.175 533.323C737.137 537.741 739.138 541.874 740.687 546.62C744.268 557.618 744.949 564.061 749.414 575.225C755.38 590.142 764.975 602.977 778.191 612.298C786.507 618.165 794.932 623.124 803.804 628.565V628.57ZM699.571 588.351L715.47 579.207L715.194 563.225C714.389 548.401 711.733 539.958 701.894 528.805C697.44 531.163 693.537 533.489 689.379 535.981C687.799 536.926 686.463 538.084 684.748 538.323C692.892 544.979 697.741 554.196 698.292 564.508L699.571 588.346V588.351ZM547.558 595.973L566.144 585.147L567.215 564.949C567.766 554.492 572.682 544.85 580.749 538.588L565.141 529.268C555.78 538.302 551.685 549.917 550.89 562.758C550.739 565.141 550.282 567.504 550.308 569.913C550.422 578.688 549.408 586.985 547.558 595.973ZM840.238 541.682C838.647 539.901 837.15 539.543 835.472 538.629C835.409 540.644 835.638 542.144 836.262 543.936L840.238 541.688V541.682ZM631.366 704.742C632.213 702.644 631.47 700.878 631.324 698.947C631.106 696.05 631.969 693.074 631.293 690.208C630.82 688.194 631.714 686.771 631.719 684.793L631.849 583.937L614.63 573.433L603.253 566.901L603.097 631.514L603.035 688.962C605.249 689.559 606.735 690.343 608.383 691.314L623.414 700.146C624.827 700.977 626.252 701.387 627.639 702.078C628.928 702.722 629.651 704.337 631.376 704.736L631.366 704.742ZM656.947 691.371L662.316 688.059L662.436 654.293L662.446 566.86L637.046 581.663C635.123 582.785 634.063 583.506 633.767 586.16L633.819 704.674L656.947 691.366V691.371ZM761.773 714.976L793.087 733.382L793.222 672.887C787.931 669.06 782.349 666.132 776.679 662.715C761.711 653.691 749.247 645.897 737.818 632.454C725.391 617.838 717.741 600.381 716.099 580.973L699.779 590.687C702.003 613.99 713.578 635.793 724.861 655.882C727.003 659.693 728.79 663.343 731.566 666.874L731.472 686.948C731.457 690.421 731.914 693.723 731.54 697.478L761.778 714.976H761.773ZM804.641 739.359L877.591 697.14C880.013 695.738 881.697 694.305 884.296 693.204L884.576 679.112L884.852 583.195L879.317 586.684L822.088 620.206L804.615 630.159L804.646 739.359H804.641ZM532.928 671.48C533.406 668.748 533.437 667.144 535.017 665.69L552.381 633.285C555.962 625.507 559.122 618.035 561.544 609.837C563.888 602.505 565.24 595.272 565.796 587.478L546.534 598.818C541.431 614.832 531.358 628.259 517.964 638.322C511.504 643.14 504.883 646.728 497.367 650.902L532.928 671.48ZM596.912 701.881L633.263 722.894C635.82 721.03 638.273 719.623 640.898 718.075L658.584 707.644L694.696 686.568C693.594 683.666 692.347 681.215 691.063 678.536L676.645 648.348C672.825 640.347 669.395 632.605 667.129 624.11L664.52 614.323L664.317 689.523L632.826 707.763L603.154 690.733C602.323 689.995 601.304 689.772 601.055 688.531L600.847 615.283C598.056 625.221 595.223 634.085 590.977 643.192L570.645 686.802L596.912 701.886V701.881ZM522.159 774.241L522.185 667.559L469.405 636.951L454.557 628.461L445.373 623.653L445.201 730.127L494.036 758.139L513.599 769.381C516.639 770.632 518.905 773.301 522.153 774.241H522.159ZM631.761 818.251L631.834 729.161C631.834 727.531 632.047 724.799 630.659 723.979L617.198 716.004L598.783 705.458L592.677 701.979L586.512 698.371L578.924 694.118L560.567 683.432L535.573 669.003L535.495 781.401C537.948 783.909 540.807 784.869 543.671 786.515L573.602 803.748L593.363 815.166L606.673 822.82L612.733 826.377L631.667 837.322C632.748 830.478 629.983 824.648 631.761 818.251ZM634.463 836.896L675.606 812.98L693.095 802.933L711.551 792.294C716.561 789.407 721.213 786.411 726.363 783.768C727.933 782.964 729.518 782.039 729.497 779.828L729.237 754.063C729.222 752.75 729.544 750.87 729.321 749.852C728.437 745.776 729.295 742.401 729.305 738.336L729.43 669.496C721.909 672.913 716.072 676.563 709.685 680.307L689.072 692.379L681.5 696.683C678.766 698.236 676.354 699.767 673.631 701.367L639.37 721.539C637.655 722.551 635.799 723.055 634.385 724.498C634.063 729.478 634.713 734.338 634.094 739.224C632.733 749.967 635.311 759.406 634.084 771.078C633.679 774.931 633.964 778.265 634.105 782.091C634.479 792.408 634.463 802.627 634.053 812.882C633.684 822.155 633.263 826.901 634.453 836.891L634.463 836.896Z" fill="#040404"/>
<path d="M924.821 276.703L988.473 239.672C989.029 239.35 988.722 238.197 988.462 237.979C988.145 237.714 987.678 237.719 986.919 238.161L958.479 254.766C954.082 257.336 949.997 259.818 945.439 262.077C940.6 265.509 935.569 267.959 930.429 270.961L897.228 290.318L850.457 263.131L815.884 243.14C811.596 240.928 807.911 238.503 803.748 236.011C802.906 235.508 800.567 234.64 801.944 233.28C803.322 231.92 812.022 227.065 814.538 225.611L836.912 212.667C840.384 210.657 843.201 208.964 846.715 206.888L858.85 199.722L888.595 182.38C890.56 181.238 892.207 180.121 894.255 178.802C896.199 179.81 897.883 181.102 899.795 182.177L909.114 187.422L958.941 216.343L968.016 221.452L991.846 235.362C990.547 236.048 988.722 236.634 989.263 238.135C989.596 238.441 990.687 237.958 991.056 237.823C991.513 237.657 992.87 237.963 992.87 238.981L992.917 348.897C989.154 351.992 985.204 353.648 981.337 355.948L965.334 365.471L945.922 376.64L926.905 387.71L899.172 403.967C898.382 404.429 898.231 404.782 897.498 404.309C896.308 403.541 897.54 403.541 897.54 402.513L897.69 312.452L897.659 292.602C904.094 288.355 910.751 284.954 917.336 281.086L924.836 276.683L924.821 276.703ZM897.675 250.716L904.65 246.552C910.128 243.275 915.528 240.29 920.959 236.894C922.643 235.84 924.576 235.253 925.876 233.446C924.498 231.738 922.503 231.037 920.626 229.967L895.851 215.818L885.03 222.454L871.958 230.165C870.337 231.12 868.273 231.468 867.353 233.514L879.151 240.58L893.813 249.309C894.894 249.953 896.1 251.656 897.67 250.716H897.675ZM928.698 334.888L928.417 348.207C928.402 349.011 928.625 349.889 929.259 350.024C929.717 350.123 930.366 349.967 930.933 349.629L962.455 331.165V292.514C959.653 292.96 957.471 294.648 955.314 296.33C952.497 297.182 950.293 298.807 947.809 300.271L930.231 310.63C928.282 311.777 928.729 312.681 928.843 314.534C929.348 322.707 928.859 327.25 928.698 334.888Z" fill="#6DA9C6"/>
<path d="M513.827 489.282C511.431 490.938 509.02 492.252 506.743 494.832L500.719 501.66C497.84 504.926 495.356 508.244 493.001 511.557C490.434 513.737 488.485 516.676 485.538 518.753C484.961 519.158 477.253 525.046 478.163 524.449C472.534 528.11 466.692 531.697 459.977 533.094C454.463 534.242 447.462 536.635 442.098 534.429C433.866 531.043 426.896 525.872 419.251 521.479L392.874 506.328L365.208 490.533L364.943 514.63L343.894 502.465L313.801 485.278L288.027 470.511C284.535 468.507 281.084 466.908 277.705 464.696C275.678 463.372 273.205 462.718 272.02 460.371L272.061 407.897L272.051 373.124L302.897 390.773L353.836 420.115C357.875 422.129 361.196 424.336 365.068 426.974L365.203 468.917L378.789 476.908L399.864 488.996C401.023 489.661 401.715 490.372 403.035 490.933C407.333 492.75 411.07 495.294 415.171 497.605L437.363 510.129C444.858 514.355 453.834 514.163 462.202 511.852C476.39 507.937 485.6 496.914 493.776 485.387C504.259 470.605 515.22 461.742 533.078 456.534L533.12 478.559C525.604 480.553 519.866 485.112 513.817 489.297L513.827 489.282ZM335.599 455.926C335.937 453.714 336.015 452.645 335.77 450.723C334.331 439.274 328.245 428.547 318.063 422.929C315.007 421.242 312.517 420.302 309.009 421.48C306.785 422.228 304.591 424.149 303.401 426.979C297.601 440.796 310.906 462.983 324.658 465.376C330.713 466.43 334.715 461.648 335.594 455.931L335.599 455.926Z" fill="#6DA9C6"/>
<path d="M585.072 253.13C580.176 256.292 575.629 259.029 570.738 261.858L548.613 274.657L548.587 194.602L543.779 190.921C546.404 188.673 549.434 187.422 552.277 185.713L557.131 182.795L562.448 179.752L593.804 161.382L602.442 156.465C606.818 153.973 610.992 151.569 615.357 149.014L627.395 141.963C629.208 140.898 630.835 139.808 632.633 138.749C636.417 140.042 649.551 147.825 652.176 149.902C653.522 150.966 654.665 151.179 656.167 152.052L707.98 182.068L721.462 190.106L686.083 211.052L648.065 233.508L633.491 225.299L615.378 235.726L585.088 218.025L585.067 253.141L585.072 253.13ZM631.968 201.96L645.268 201.254L643.59 185.724C643.189 182.032 642.384 178.672 642.55 174.763L620.019 176.3L608.445 176.871L610.415 197.147C610.612 199.182 610.264 201.316 611.496 202.998L631.973 201.96H631.968Z" fill="#6DA9C6"/>
<path d="M633.762 561.984L633.715 450.043L662.617 433.495L711.026 405.472C715.506 403.141 719.222 400.135 723.806 398.146C726.233 397.092 727.657 395.238 730.869 394.127L730.947 509.319L710.158 521.557L672.155 543.713L634.25 565.894C633.814 564.534 633.772 563.635 633.772 561.979L633.762 561.984ZM693.022 472.339C693.427 468.559 692.632 464.997 690.631 462.287C684.519 454 674.093 464.961 670.247 470.719C666.136 476.862 663.948 484.068 665.481 491.53C665.803 493.098 667.747 494.837 669.005 495.725C675.751 500.497 691.328 488.113 693.022 472.339ZM694.602 461.581C694.602 461.435 694.488 461.321 694.342 461.321C694.197 461.321 694.082 461.435 694.082 461.581C694.082 461.726 694.197 461.84 694.342 461.84C694.488 461.84 694.602 461.726 694.602 461.581ZM681.879 501.432C686.349 498.815 690.605 495.834 693.63 491.634C698.739 484.551 702.855 472.339 698.505 464.597C697.731 463.216 696.738 461.871 694.961 462.157C697.627 465.781 698.646 469.582 698.339 473.84C697.513 485.268 689.919 494.219 680.335 500.056L664.961 509.417C664.65 509.609 665.013 511.11 665.31 510.819C665.45 510.684 665.809 510.83 666.146 510.632L681.874 501.426L681.879 501.432Z" fill="#6DA9C6"/>
<path d="M631.813 565.494C629.329 565.115 627.578 563.36 625.389 562.099L583.93 538.214C580.838 536.433 579.174 535.265 576.155 533.53L567.319 528.442L549.788 518.395L535.049 509.76L535.002 394.413C536.743 393.998 537.2 395.789 538.323 396.287C540.932 397.45 543.266 398.915 545.698 400.301L556.311 406.355L616.226 440.853L628.591 448.242C630.743 449.524 631.819 450.49 631.819 453.377V565.505L631.813 565.494ZM596.56 496.951C600.39 494.038 601.461 488.861 600.681 484.52C599.002 475.158 594.065 466.986 586.123 461.877C583.296 460.059 579.725 459.166 576.669 460.397C572.522 462.069 571.228 470.465 572.522 475.906C574.72 485.164 580.578 492.875 589.429 496.691C591.383 497.532 594.621 498.42 596.56 496.945V496.951ZM590.577 502.693C589.205 501.406 587.547 501.515 586.035 500.819C576.623 496.478 569.98 488.098 567.678 478.009C566.534 472.998 567.558 468.559 570.219 463.621C565.978 464.701 565.079 473.196 565.625 476.747C567.475 488.773 575.729 498.908 587.137 503.088C588.332 503.524 589.845 503.519 590.577 502.693Z" fill="#6DA9C6"/>
<path d="M410.748 661.78L405.707 664.808C403.072 666.391 400.593 667.892 397.672 669.273C394.933 670.566 392.298 673.718 389.164 674.065C384.959 673.094 381.685 669.87 378.764 666.646L378.784 567.924C381.045 566.232 383.244 565.313 385.463 563.978C389.179 561.735 392.516 559.222 396.71 557.249L410.904 565.593L421.538 571.569C425.145 573.594 428.466 576.035 432.53 577.25C454.993 583.963 479.842 571.844 496.063 556.818C504.821 548.702 511.083 539.263 515.387 528.312C518.568 520.223 525.007 508.706 532.725 503.54L533.235 510.913L547.491 519.48C535.007 530.223 530.781 536.796 526.644 552.451C521.868 570.983 512.539 588.678 497.44 600.641C493.225 603.98 488.246 604.566 483.34 602.282L478.839 600.189L451.974 615.964L443.32 620.922L443.04 642.268C442.91 643.722 440.675 644.542 439.713 645.207C434.672 648.685 429.448 651.167 424.22 654.137L410.743 661.786L410.748 661.78Z" fill="#6DA9C6"/>
<path d="M791.97 435.266C772.506 426.46 753.811 426.657 733.016 431.476L732.543 418.168C750.017 412.627 769.974 411.283 787.703 416.496C794.345 418.448 800.27 421.345 806.294 424.591L821.449 432.763L839.541 442.151C847.633 446.352 856.204 449.015 865.305 450.547C881.11 453.211 896.941 450.479 910.584 442.193L910.698 420.878L928.281 410.836L976.71 382.933C978.061 382.154 979.091 381.816 980.302 380.897C983.269 378.644 986.892 377.502 990.01 375.487C990.899 374.911 991.533 373.727 992.895 374.272L992.843 461.279L974.278 471.976L943.104 490.071L928.65 498.597C926.109 500.097 911.556 509.334 910.454 508.628C909.877 508.259 910.589 507.901 910.594 507.403L910.672 470.999C898.77 477.666 885.517 478.606 872.441 476.296C871.645 475.044 870.325 475.698 869.177 475.434C860.565 473.471 852.727 470.028 845.118 465.667L829.23 456.57L805.129 442.286C800.764 439.7 796.606 437.353 791.965 435.256L791.97 435.266ZM942.371 464.727C946.035 463.221 949.538 461.118 952.199 458.226C959.268 450.537 964.657 440.053 962.235 429.456C961.212 424.985 957.547 421.112 952.828 421.096C949.175 421.086 945.838 422.997 943.385 425.489C935.396 432.145 930.292 441.434 929.518 451.938C929.284 455.121 929.82 458.429 931.327 460.999C933.666 464.992 938.151 466.472 942.376 464.737L942.371 464.727Z" fill="#6DA9C6"/>
<path d="M273.121 235.445C275.086 233.763 279.503 232.408 282.061 230.372C283.542 229.194 285.08 228.55 286.66 227.631L293.578 223.612L305.189 216.628C307.081 215.491 308.941 214.406 310.818 213.362L319.17 208.71L324.378 205.605C326.306 204.452 336.014 198.725 337.277 198.227C339.892 197.199 342.849 194.436 346.305 193.336C347.532 191.508 349.611 191.118 351.373 190.09L370.541 178.891L383.056 186.134L441.911 220.19L464.925 233.467L450.71 242.169L368.051 290.266C366.19 288.765 364.366 288.199 362.547 287.135L338.899 273.365L302.252 252.45L293.058 247.045L283.916 241.676L273.126 235.45L273.121 235.445ZM355.583 243.883L367.828 251.323L398.388 232.942L368.846 216.187L339.174 233.534C339.819 235.227 341.368 235.845 342.818 236.608L355.577 243.888L355.583 243.883Z" fill="#6DA9C6"/>
<path d="M661.271 431.932L633.153 448.465L619.427 440.448L592.453 424.887L572.297 413.282L551.014 400.955L544.668 397.367C541.861 395.778 539.102 394.512 536.633 392.435C539.351 391.349 541.279 390.145 543.67 388.758L612.977 348.591L632.893 336.872L649.291 346.182L665.741 355.621L703.276 377.32L729.211 392.377C726.274 394.657 723.275 395.934 720.193 397.726L694.55 412.612L680.418 420.764L661.266 431.927L661.271 431.932ZM633.054 408.977L652.612 397.549C656.261 395.415 660.143 393.961 663.35 390.773L633.158 373.036L621.059 380.176L609.344 387.123C607.026 388.499 604.562 389.215 602.431 391.235C605.534 393.208 608.336 394.792 611.329 396.511L633.054 408.967V408.977Z" fill="#6DA9C6"/>
<path d="M631.762 818.251C629.984 824.648 632.749 830.478 631.668 837.322L612.734 826.377L606.674 822.82L593.364 815.166L573.603 803.748L543.672 786.515C540.808 784.869 537.949 783.909 535.496 781.401L535.574 669.003L560.568 683.432L578.925 694.118L586.513 698.371L592.678 701.979L598.784 705.458L617.199 716.004L630.66 723.979C632.048 724.799 631.835 727.531 631.835 729.161L631.762 818.251ZM595.723 743.876C593.712 739.447 587.392 736.295 582.948 733.813L574.242 728.953C571.54 727.442 569.154 725.324 565.916 724.545L565.828 763.321L588.177 776.089L599.84 782.803L599.876 756.571C599.886 749.027 597.36 747.5 595.718 743.876H595.723Z" fill="#6DA9C6"/>
<path d="M343.463 390.913C339.144 388.151 335.017 385.929 330.729 383.519L319.83 377.398L299.535 365.57C294.873 362.854 290.569 360.092 285.954 357.361L281.375 354.655L274.114 350.502C272.94 349.827 271.5 349.676 271.64 347.615C272.176 339.774 272.191 332.012 271.895 324.104C271.625 316.897 271.942 309.841 271.874 302.644L271.791 293.651V237.314C276.744 239.355 280.096 242.019 284.171 244.366L316.8 263.125L330.09 270.545L348.775 281.433L361.051 288.511C363.244 289.772 365.624 290.795 367.34 292.773L367.651 305.495C367.771 310.375 367.527 314.727 367.521 319.711L367.449 397.907C367.449 400.332 368.405 402.316 367.547 404.938C363.338 402.233 359.086 399.766 354.674 397.253C350.957 395.14 347.262 393.348 343.458 390.913H343.463ZM336.072 349.562L336.057 311.154C328.588 307.665 321.779 303.07 314.472 298.895C311.192 297.021 308.032 295.551 304.961 293.277C304.597 292.981 302.554 292.228 302.554 293.033L302.508 331.415C302.508 333.107 305.08 333.071 305.99 333.59L328.125 346.228C329.835 347.204 331.556 347.931 333.167 349.094C334.097 349.764 335.09 350.995 336.067 349.562H336.072Z" fill="#6DA9C6"/>
<path d="M633.309 334.93L625.362 330.236L610.789 321.959L588.081 308.849L564.345 295.126C564.454 295.188 558.384 290.951 558.529 291.984L540.895 281.537L615.378 237.958L633.257 227.485C637.55 229.448 640.996 231.914 644.998 234.215L695.085 263.027C705.448 268.988 715.485 274.455 725.63 281.138L705.344 293.09L684.955 304.877L662.217 317.982L639.837 330.901C637.69 332.142 636.001 333.684 633.309 334.925V334.93ZM620.196 291.839L635.611 300.624L666.588 282.212C664.202 280.816 662.087 279.528 659.79 278.188L645.055 269.595C636.495 264.6 628.517 265.602 620.653 271.906C632.924 276.703 640.928 281.47 652.009 288.687L635.856 298.516L624.645 292.021C623.257 291.216 621.449 289.679 620.191 291.844L620.196 291.839Z" fill="#6DA9C6"/>
<path d="M634.465 836.896C633.274 826.901 633.695 822.16 634.064 812.887C634.475 802.632 634.49 792.408 634.116 782.097C633.976 778.27 633.695 774.931 634.096 771.084C635.322 759.411 632.744 749.972 634.106 739.229C634.724 734.343 634.075 729.483 634.397 724.503C635.811 723.06 637.666 722.556 639.381 721.544L673.642 701.372C676.366 699.767 678.777 698.241 681.511 696.688L689.084 692.384L709.696 680.312C716.084 676.568 721.915 672.918 729.441 669.501L729.317 738.341C729.311 742.407 728.449 745.776 729.332 749.858C729.556 750.88 729.233 752.755 729.249 754.068L729.509 779.833C729.53 782.045 727.944 782.964 726.375 783.774C721.224 786.417 716.573 789.412 711.562 792.299L693.106 802.938L675.617 812.986L634.475 836.901L634.465 836.896ZM699.676 763.243L699.64 724.748C698.002 724.613 696.864 725.23 695.658 726.113L665.56 743.71L665.28 782.839L699.671 763.238L699.676 763.243Z" fill="#6DA9C6"/>
<path d="M897.689 654.039L897.668 573.594C899.222 572.187 900.828 571.751 902.481 570.796L935.364 551.781L952.531 541.926C955.042 540.119 957.599 538.816 960.301 537.258L992.858 518.493V630.751L971.159 643.773C967.375 644.802 964.173 646.806 961.258 649.303C959.579 650.7 957.407 650.71 955.806 652.356L897.777 685.816L897.694 654.039H897.689ZM937.688 626.976L962.619 612.661L962.578 573.989C960.229 573.776 958.779 575.443 956.882 576.554L929.008 592.894L929.076 631.639L937.693 626.976H937.688Z" fill="#6DA9C6"/>
<path d="M336.551 667.705C333.697 666.028 331.182 664.595 328.479 663.063L321.842 659.298L314.857 655.352L307.326 651.032L302.362 648.119L292.784 642.73L285.788 638.706L278.215 634.313L272.129 630.933L272.025 616.374L272.046 518.987C273.891 518.784 274.754 519.901 276.152 520.705L349.856 563.09C353.588 565.235 356.888 567 360.303 569.451C362.574 571.081 365.027 572.374 367.751 573.522L367.667 603.362L367.376 681.262C367.371 683.079 367.179 684.336 367.891 686.174C364.757 685.016 362.917 682.96 360.407 681.542L352.455 677.056L336.546 667.7L336.551 667.705ZM335.963 631.717L336.026 592.977L314.659 580.386C311.343 578.433 307.981 576.928 304.873 574.612C303.911 574.176 303.085 573.766 302.066 574.124C302.222 579.441 301.572 584.566 302.087 589.825C302.586 594.935 302.425 599.94 302.269 605.101C302.186 607.78 301.307 610.314 302.295 612.993L323.49 624.832C327.596 627.127 331.099 629.749 335.963 631.712V631.717Z" fill="#6DA9C6"/>
<path d="M593.758 113.177C592.458 112.413 576.679 103.363 576.944 103.597C576.009 102.761 575.723 102.086 574.429 101.951C572.584 101.759 571.139 99.9208 569.434 99.2406C567.157 98.3371 565.588 96.7846 563.592 95.5437C559.076 92.7398 554.013 90.9017 549.809 87.5787C547.693 85.9067 542.444 83.8454 539.061 81.3635L546.046 77.2927C554.013 72.6508 560.9 68.876 568.878 64.2756L572.859 61.9806L586.913 53.7092C588.306 52.8889 589.735 51.975 591.123 51.191L601.736 45.1939L620.888 33.7967C623.866 32.0262 627.047 30.5983 629.755 28.6044C631.636 27.2181 633.003 27.1662 635.03 28.3604L656.859 41.2529L665.071 45.9883C666.557 46.845 668.142 47.8315 669.639 48.6883L677.581 53.2264C682.591 56.0925 687.3 59.0677 692.321 61.8767L701.967 67.2715L712.429 73.4452C717.06 76.1763 721.712 78.4869 726.436 81.9658L692.643 101.951L633.502 135.878C630.81 135.125 628.746 133.432 626.309 132.03L607.229 121.043C606.288 120.503 605.509 120.083 604.589 119.537L593.763 113.166L593.758 113.177ZM646.23 89.936L660.596 80.9533C654.925 77.111 651.391 75.3248 645.939 72.1367L634.786 65.61C633.242 64.0367 631.969 64.8727 630.472 65.7814L604.906 81.296L627.442 95.0556C629.1 96.0681 631.148 97.6206 633.123 97.7971L646.225 89.9308L646.23 89.936Z" fill="#6DA9C6"/>
<path d="M731.572 391.277C728.479 389.703 725.875 387.959 722.975 386.308L712.409 380.279L689.041 366.821L675.232 358.773L635.545 335.735C639.074 333.341 642.697 331.903 646.179 329.862L663.871 319.483L703.599 296.434L727.253 282.503L742.902 291.527L764.783 304.072L815.556 333.71C818.009 335.143 819.958 336.389 822.723 337.786L815.966 341.924L795.047 354.152L774.923 365.762L731.566 391.282L731.572 391.277ZM741.254 332.406L742.023 320.713L724.857 320.506L708.246 320.137L705.647 345.896L730.439 346.228C733.739 346.275 736.779 347.064 740.225 346.384C740.1 341.815 740.932 337.323 741.254 332.406Z" fill="#6DA9C6"/>
<path d="M534.737 391.5L443.414 338.211L460.129 328.683L482.093 315.916L507.955 300.822L522.819 292.291L538.905 282.809L577.958 305.339L620.067 329.649C623.607 331.69 626.907 333.263 630.628 335.953L591.549 358.482L540.678 388.058C538.671 389.221 536.894 389.683 534.737 391.505V391.5ZM529.54 346.166C533.256 346.379 536.618 345.486 540.267 345.133L560.532 343.17L552.45 318.294C550.282 317.634 548.151 318.294 545.875 318.548L518.786 321.56L522.747 334.109C524.056 338.263 524.54 342.599 526.66 346.446C527.035 347.121 528.921 346.446 529.545 346.161L529.54 346.166Z" fill="#6DA9C6"/>
<path d="M557.953 179.851C552.907 182.795 548.099 185.313 543.499 188.486C541.961 189.55 541.124 188.538 539.898 187.842L531.187 182.868L448.715 135.203L464.546 126.178C470.793 122.616 476.62 118.982 482.862 115.368L512.107 98.4254L537.574 83.591C541.93 85.455 545.63 87.859 549.627 90.18L567.423 100.523L616.148 128.536C621.132 131.402 625.763 134.076 630.607 137.363L607.895 150.707L592.864 159.492L579.091 167.509L557.953 179.851ZM542.262 131.755C541.722 132.591 540.594 132.939 539.783 133.422C536.42 132.336 536.53 126.064 536.8 122.071L521.223 131.085L512.211 136.179L525.038 144.362L541.415 154.201L554.887 146.278L571.991 135.706L542.974 118.888C542.47 122.367 543.463 129.901 542.262 131.75V131.755Z" fill="#6DA9C6"/>
<path d="M804.641 739.359L804.609 630.159L822.083 620.206L879.311 586.684L884.846 583.195L884.571 679.112L884.29 693.204C881.697 694.305 880.008 695.738 877.586 697.14L804.635 739.359H804.641ZM838.361 680.987C841.765 682.233 844.484 680.525 846.952 678.905C855.544 673.281 860.845 664.065 862.513 654.023C863.189 649.952 861.957 645.523 858.906 642.626C855.855 639.729 851.1 640.025 847.051 641.79C839.608 645.04 834.375 652.896 831.677 660.363C830.16 664.558 829.967 673.764 833.153 677.949C834.255 679.398 836.49 680.301 838.356 680.987H838.361Z" fill="#6DA9C6"/>
<path d="M522.159 774.241C518.911 773.301 516.645 770.632 513.604 769.381L494.042 758.139L445.207 730.127L445.379 623.653L454.562 628.461L469.411 636.951L522.19 667.559L522.164 774.241H522.159ZM486.531 683.147C483.137 680.717 478.902 678.344 474.577 679.637C469.723 681.085 467.764 685.821 468.096 690.774C468.814 701.413 474.894 711.144 484.218 716.393C486.604 717.738 489.785 718.247 492.243 717.291C503.485 712.914 498.657 691.833 486.531 683.147Z" fill="#6DA9C6"/>
<path d="M441.595 349.956L441.72 443.901L419.766 431.341L393.228 416.324L377.714 407.077L377.662 308.885C377.662 307.042 379.143 305.827 380.1 305.1C381.534 304.004 383.675 304.659 385.157 305.552L392.896 310.199C395.203 311.585 397.168 313.112 399.626 314.296C402.641 315.749 405.265 317.582 408.212 319.301L440.997 338.403C441.548 342.344 440.301 345.771 441.59 349.967L441.595 349.956ZM419.194 365.782C415.993 360.569 411.7 355.938 405.515 354.349C401.404 353.29 397.313 356.13 395.868 360.076C390.687 374.204 406.804 395.488 417.859 390.269C419.963 389.278 421.611 386.822 422.37 384.132C424.199 377.668 422.635 371.385 419.194 365.782Z" fill="#6DA9C6"/>
<path d="M467.129 322.084V273.494L467.051 239.734C467.051 237.678 467.586 235.897 467.789 233.773L495.834 217.719C503.214 213.492 510.35 209.624 517.439 204.951C521.27 203.315 524.482 201.015 528.052 198.985L541.254 191.482L541.451 219.51C540.547 224.801 541.285 229.754 541.3 235.092L541.415 279.045L489.41 309.378C483.667 312.728 478.49 316.123 472.529 318.896C470.98 320.365 469.01 320.75 467.124 322.084H467.129ZM492.523 279.024C494.301 284.076 499.805 286.449 504.69 283.786C519.201 275.867 525.043 254.433 516.94 248.198C514.16 246.058 510.943 246.063 507.699 247.133C497.44 250.518 488.542 267.721 492.523 279.024Z" fill="#6DA9C6"/>
<path d="M745.204 255.487C744.762 268.027 745.552 278.058 745.329 290.494C742.475 289.217 739.97 287.633 737.268 285.93C732.865 283.157 727.772 281.018 724.181 277.207C722.273 274.528 723.328 262.284 723.599 258.447C724.201 249.901 722.975 246.25 723.042 242.33L723.396 221.815C723.531 214.11 723.65 206.55 723.604 198.782C723.588 196.373 722.455 194.12 723.328 191.352L738.25 199.738L775.983 221.649L797.578 234.526L797.412 320.625L772.563 306.502L772.298 268.271C772.22 257.326 757.995 241.936 748.811 247.839C746.529 249.303 745.329 252.227 745.214 255.503L745.204 255.487Z" fill="#6DA9C6"/>
<path d="M782.988 223.716L782.77 199.603C774.407 203.58 769.205 207.552 761.664 211.088L728.79 192.157C727.527 191.43 726.285 190.906 725.641 189.4L737.174 183.029L779.813 158.288L793.544 150.234L816.028 137.228L816.283 149.533L816.319 222.08L808.897 226.26C806.434 227.652 800.743 231.982 798.529 231.982C796.361 231.982 794.755 230.175 793.035 229.24C788.31 226.681 788.638 226.203 782.999 223.721L782.988 223.716Z" fill="#6DA9C6"/>
<path d="M799.231 144.315L785.661 152.296L778.073 156.636C776.742 157.394 775.354 158.474 773.935 159.264L765.043 164.222L747.34 174.56C745.812 175.453 741.218 177.416 739.425 179.244C739.685 178.979 729.971 184.945 728.807 185.35L728.937 119.896L728.978 85.2058L755.989 100.497C758.478 102.351 761.519 102.938 763.608 105.383C765.75 105.798 772.574 110.492 774.258 111.339C779.569 114.023 784.419 117.04 789.512 120.01L795.037 123.234L800.681 126.485C805.265 129.122 810 131.5 814.272 134.782C812.796 136.921 810.395 137.487 808.539 138.775C806.128 140.447 802.62 142.316 799.236 144.31L799.231 144.315Z" fill="#6DA9C6"/>
<path d="M379.273 430.717C378.717 422.898 380.515 418.448 379.559 410.675C385.235 413.702 390.224 416.605 395.359 419.736C396.513 420.442 397.339 421.132 398.618 421.709C402.578 423.485 406.112 425.894 409.901 428.054L425.795 437.109L433.341 441.408C435.997 442.919 438.804 444.134 441.127 446.118C442.447 447.245 443.622 446.409 444.786 445.723L458.84 437.421L493.849 417.451C499.759 414.081 505.351 411.277 511.577 408.603C516.006 406.703 528.162 402.419 533.048 403.271L533.032 431.585C522.882 433.376 513.428 436.237 504.816 441.481C499.343 444.815 494.036 448.143 489.733 452.816L478.028 465.532C468.813 475.543 457.561 476.072 446.07 469.379L420.779 454.654L379.273 430.717Z" fill="#6DA9C6"/>
<path d="M853.695 379.376L824.615 362.885L824.6 338.45L855.347 320.869L870.518 312.177L877.831 307.478C879.853 306.18 882.389 306.414 884.109 308.423C885.409 309.939 886.391 312.193 886.386 314.545L886.209 398.338L872.686 390.332L853.7 379.376H853.695Z" fill="#6DA9C6"/>
<path d="M656.948 691.371L633.82 704.679L633.768 586.165C634.064 583.512 635.124 582.785 637.047 581.668L662.447 566.865L662.436 654.298L662.317 688.064L656.948 691.377V691.371Z" fill="#6DA9C6"/>
<path d="M631.367 704.742C629.641 704.342 628.919 702.727 627.63 702.083C626.247 701.393 624.818 700.982 623.404 700.151L608.374 691.319C606.721 690.348 605.239 689.564 603.025 688.967L603.088 631.52L603.244 566.906L614.621 573.438L631.84 583.942L631.71 684.798C631.71 686.771 630.811 688.194 631.283 690.213C631.959 693.08 631.096 696.06 631.315 698.952C631.46 700.878 632.203 702.649 631.356 704.747L631.367 704.742Z" fill="#6DA9C6"/>
<path d="M816.626 388.478C802.229 381.64 783.03 377.18 767.719 378.654L755.312 379.848C760.666 376.749 764.73 374.277 770.13 371.131L802.759 352.127L816.574 359.962C817.333 369.89 815.773 377.984 816.626 388.478Z" fill="#6DA9C6"/>
<path d="M547.559 595.973C549.409 586.985 550.422 578.688 550.308 569.913C550.277 567.504 550.739 565.141 550.89 562.758C551.69 549.922 555.786 538.302 565.141 529.268L580.749 538.588C572.683 544.85 567.766 554.492 567.215 564.949L566.144 585.147L547.559 595.973Z" fill="#6DA9C6"/>
<path d="M699.571 588.351L698.292 564.513C697.741 554.201 692.892 544.985 684.748 538.328C686.463 538.084 687.799 536.931 689.379 535.986C693.542 533.494 697.44 531.168 701.894 528.811C711.733 539.958 714.389 548.401 715.194 563.23L715.47 579.212L699.571 588.356V588.351Z" fill="#6DA9C6"/>
<path d="M770.354 285.432L747.62 271.947C746.986 268.51 747.75 265.306 747.407 262.056C747.049 258.644 746.571 255.384 747.989 252.222C749.637 248.551 753.13 247.528 756.794 249.117C764.782 252.59 771.497 263.359 770.806 271.994L770.348 285.426L770.354 285.432Z" fill="#6DA9C6"/>
<path d="M416.118 321.425L393.26 308.298L404.398 301.683L415.993 294.528L416.118 321.425Z" fill="#6DA9C6"/>
<path d="M872.061 308.491L849.338 321.98L849.353 295.017L872.061 308.491Z" fill="#6DA9C6"/>
<path d="M840.237 541.682L836.261 543.931C835.632 542.144 835.409 540.639 835.471 538.624C837.15 539.538 838.647 539.901 840.237 541.677V541.682Z" fill="#6DA9C6"/>
<path d="M789.211 512.107C789.549 511.977 789.887 511.79 790.001 511.427L799.143 518.249C796.981 518.016 795.853 516.313 793.998 515.534C792.142 514.755 790.172 513.763 789.211 512.107Z" fill="#6DA9C6"/>
<path d="M928.697 334.888C928.859 327.25 929.347 322.707 928.843 314.534C928.729 312.686 928.282 311.777 930.231 310.63L947.808 300.271C950.293 298.807 952.496 297.182 955.313 296.33C957.475 294.648 959.653 292.96 962.46 292.514V331.165L930.932 349.629C930.366 349.962 929.716 350.117 929.259 350.024C928.63 349.889 928.401 349.006 928.417 348.207L928.697 334.888ZM934.201 338.564L930.865 339.483C930.761 342.126 930.636 344.639 930.912 347.443L960.495 330.163L960.485 295.146C956.535 297.244 954.175 299.425 950.443 300.728C957.111 302.94 955.173 315.277 954.84 320.651C954.612 324.369 953.484 327.121 950.381 329.223C945.282 332.687 940.319 336.887 934.201 338.564Z" fill="#040404"/>
<path d="M897.674 250.716C896.099 251.656 894.898 249.952 893.817 249.309L879.155 240.58L867.357 233.514C868.283 231.463 870.346 231.12 871.962 230.165L885.034 222.454L895.855 215.818L920.63 229.967C922.507 231.042 924.502 231.738 925.88 233.446C924.575 235.253 922.647 235.84 920.963 236.894C915.532 240.284 910.132 243.275 904.654 246.552L897.679 250.716H897.674ZM922.668 233.571L905.205 223.409L897.055 218.357C896.364 220.034 896.634 221.701 896.79 223.633L918.286 236.193C919.939 235.113 921.628 234.838 922.668 233.571ZM916.415 237.278L896.442 225.694L877.196 237.309L896.863 248.878L916.415 237.283V237.278Z" fill="#040404"/>
<path d="M335.599 455.926C334.72 461.643 330.718 466.425 324.663 465.371C310.911 462.977 297.606 440.791 303.406 426.974C304.591 424.149 306.785 422.228 309.014 421.475C312.517 420.297 315.012 421.236 318.068 422.924C328.25 428.542 334.331 439.269 335.775 450.718C336.02 452.645 335.942 453.709 335.604 455.921L335.599 455.926ZM310.797 440.578C309.425 436.413 308.978 431.844 311.239 428.158C312.725 425.733 315.651 425.359 318.499 424.798C314.705 423.126 310.012 420.998 306.805 425.297C304.04 429.009 303.479 433.423 304.253 438.039C306.078 448.927 312.954 458.408 323.037 463.05C327.189 464.961 332.958 462.017 333.572 456.606C323.91 462.323 313.51 448.802 310.802 440.567L310.797 440.578Z" fill="#040404"/>
<path d="M631.968 201.96L611.49 202.998C610.259 201.316 610.607 199.182 610.409 197.147L608.439 176.871L620.014 176.3L642.545 174.763C642.378 178.673 643.189 182.032 643.584 185.724L645.263 201.254L631.963 201.96H631.968Z" fill="#040404"/>
<path d="M693.022 472.339C691.328 488.113 675.751 500.497 669.005 495.725C667.752 494.837 665.803 493.098 665.481 491.53C663.943 484.063 666.136 476.862 670.247 470.719C674.098 464.966 684.519 454 690.631 462.287C692.632 464.997 693.427 468.559 693.022 472.339Z" fill="#040404"/>
<path d="M681.878 501.432L666.151 510.638C665.813 510.835 665.46 510.689 665.314 510.824C665.013 511.11 664.649 509.609 664.966 509.423L680.34 500.061C689.924 494.225 697.517 485.273 698.344 473.845C698.65 469.592 697.637 465.786 694.966 462.162C696.738 461.877 697.73 463.221 698.51 464.602C702.86 472.344 698.739 484.557 693.635 491.639C690.61 495.834 686.353 498.82 681.884 501.437L681.878 501.432Z" fill="#040404"/>
<path d="M694.342 461.84C694.485 461.84 694.602 461.724 694.602 461.581C694.602 461.437 694.485 461.321 694.342 461.321C694.198 461.321 694.082 461.437 694.082 461.581C694.082 461.724 694.198 461.84 694.342 461.84Z" fill="#040404"/>
<path d="M596.56 496.951C594.621 498.425 591.389 497.537 589.429 496.696C580.573 492.88 574.721 485.164 572.522 475.911C571.228 470.47 572.522 462.074 576.67 460.402C579.721 459.171 583.296 460.064 586.124 461.882C594.065 466.991 599.003 475.164 600.682 484.525C601.461 488.871 600.385 494.048 596.56 496.956V496.951ZM598.457 491.904C601.825 480.984 590.952 462.687 579.778 461.856C577.039 461.653 575.24 463.528 574.539 466.145C571.306 478.212 581.134 492.662 591.893 495.512C594.829 496.291 597.444 495.185 598.457 491.898V491.904Z" fill="#040404"/>
<path d="M590.577 502.693C589.844 503.514 588.332 503.524 587.136 503.088C575.728 498.908 567.475 488.767 565.625 476.747C565.079 473.196 565.973 464.701 570.219 463.621C567.558 468.564 566.534 472.998 567.678 478.009C569.985 488.103 576.622 496.478 586.035 500.819C587.547 501.515 589.205 501.406 590.577 502.693Z" fill="#040404"/>
<path d="M942.372 464.727C938.146 466.461 933.666 464.987 931.322 460.989C929.815 458.418 929.28 455.111 929.514 451.928C930.288 441.424 935.392 432.14 943.38 425.478C945.833 422.986 949.17 421.075 952.824 421.086C957.548 421.101 961.212 424.975 962.231 429.445C964.653 440.043 959.263 450.531 952.195 458.216C949.534 461.108 946.031 463.211 942.367 464.717L942.372 464.727ZM931.702 457.344C932.684 460.355 934.254 462.126 936.078 462.936C945.173 466.975 964.575 446.466 960.178 429.144C959.549 426.673 957.782 424.237 955.454 423.303C952.335 422.052 949.071 423.116 946.478 424.798C948.609 425.317 950.62 425.38 952.117 426.802C955.142 429.669 955.911 433.859 954.84 438.002C952.2 448.221 942.112 460.952 931.702 457.344Z" fill="#040404"/>
<path d="M355.583 243.883L342.823 236.603C341.368 235.84 339.819 235.227 339.18 233.529L368.851 216.182L398.393 232.937L367.833 251.318L355.588 243.878L355.583 243.883ZM347.101 235.845C354.444 231.904 361.165 228.02 367.989 223.851C368.664 222.594 368.223 220.403 367.594 218.861L342.319 233.877C343.571 234.646 345.515 236.691 347.101 235.845ZM368.082 248.898L387.64 237.133L368.353 225.751L348.462 237.174L368.082 248.893V248.898Z" fill="#040404"/>
<path d="M633.055 408.977L611.33 396.521C608.336 394.802 605.534 393.219 602.432 391.246C604.563 389.226 607.026 388.504 609.344 387.133L621.059 380.186L633.158 373.047L663.35 390.783C660.148 393.972 656.261 395.425 652.612 397.559L633.055 408.988V408.977ZM639.962 386.541L653.615 394.88C655.861 394.444 658.444 392.476 660.133 390.83C655.149 388.006 650.7 385.804 646.261 382.907C644.421 381.707 642.197 381.302 640.539 379.926C638.138 377.927 635.393 376.946 632.696 375.113C623.767 380.84 615.358 385.799 605.826 391.033C608.123 392.798 609.895 393.769 612.14 394.979C621.184 390.846 629.229 379.983 639.957 386.536L639.962 386.541Z" fill="#040404"/>
<path d="M595.722 743.876C597.364 747.495 599.89 749.027 599.88 756.571L599.844 782.803L588.181 776.089L565.832 763.321L565.92 724.545C569.158 725.329 571.539 727.448 574.247 728.953L582.952 733.813C587.396 736.295 593.716 739.447 595.727 743.876H595.722ZM579.777 762.74C577.583 761.41 575.026 759.713 574.283 757.028C572.5 750.59 572.105 743.627 573.285 737.027C573.685 734.805 576.045 734.436 577.952 733.024L567.802 727.328L567.812 761.867L591.419 775.611L597.884 779.469C598.097 777.039 598.258 775.035 597.697 773.01C591.45 769.703 585.728 766.348 579.777 762.734V762.74ZM597.853 771.208L598.149 758.601C597.978 752.474 596.164 745.994 591.367 741.867C587.869 738.86 583.82 736.378 579.569 734.66C577.968 734.016 575.109 736.643 574.917 738.253C574.382 742.739 574.626 748.009 575.245 752.729C575.717 756.348 577.386 758.835 580.457 760.694L597.853 771.214V771.208Z" fill="#040404"/>
<path d="M336.073 349.562C335.096 350.995 334.103 349.764 333.173 349.094C331.562 347.931 329.841 347.204 328.132 346.228L305.996 333.59C305.081 333.071 302.508 333.107 302.514 331.415L302.56 293.033C302.56 292.233 304.603 292.981 304.967 293.277C308.038 295.551 311.193 297.021 314.478 298.895C321.786 303.07 328.594 307.665 336.063 311.154L336.078 349.562H336.073ZM310.102 318.128C310.123 313.662 310.013 309.513 310.305 305.157C310.429 303.272 312.617 302.301 313.88 300.847L304.333 295.536L304.426 330.501L333.875 347.178C334.358 344.951 333.911 342.801 334.098 340.288C330.252 338.227 326.551 336.373 322.742 334.078C313.813 328.694 310.05 328.647 310.102 318.138V318.128Z" fill="#040404"/>
<path d="M620.197 291.839C621.45 289.674 623.258 291.211 624.651 292.015L635.862 298.511L652.016 288.682C640.935 281.465 632.931 276.698 620.66 271.9C628.518 265.597 636.496 264.595 645.061 269.59L659.796 278.183C662.093 279.523 664.209 280.81 666.594 282.207L635.618 300.619L620.202 291.834L620.197 291.839Z" fill="#040404"/>
<path d="M699.674 763.243L665.283 782.844L665.564 743.715L695.662 726.118C696.868 725.236 698.006 724.618 699.643 724.753L699.679 763.248L699.674 763.243ZM667.508 769.635C667.466 773.41 667.118 776.234 667.435 779.635L697.824 761.966L697.741 727.302L687.855 732.417C689.186 734.436 692.013 735.75 692.31 738.497C692.777 742.848 692.793 747.407 692.221 751.68C690.979 761.005 683.198 764.489 675.366 768.456C672.877 769.718 670.486 769.817 667.513 769.64L667.508 769.635Z" fill="#040404"/>
<path d="M937.689 626.976L929.071 631.639L929.004 592.894L956.877 576.554C958.774 575.443 960.219 573.776 962.574 573.989L962.615 612.661L937.684 626.976H937.689ZM930.62 619.645C930.496 623.046 930.672 625.507 930.937 628.482C933.188 627.698 934.57 626.301 936.499 625.206L960.62 611.477L960.521 576.569L951.431 581.762C954.206 584.078 955.542 586.622 955.422 590.007C955.23 595.61 955.672 601.139 954.19 606.591C953.307 609.842 942.195 615.465 938.817 617.49C936.27 619.017 933.65 619.686 930.62 619.64V619.645Z" fill="#040404"/>
<path d="M335.964 631.717C331.104 629.754 327.596 627.127 323.49 624.837L302.295 612.999C301.308 610.319 302.186 607.786 302.269 605.106C302.425 599.95 302.586 594.94 302.087 589.831C301.573 584.571 302.223 579.446 302.067 574.129C303.085 573.771 303.907 574.176 304.873 574.617C307.987 576.928 311.349 578.439 314.66 580.391L336.026 592.982L335.964 631.722V631.717ZM327.95 618.201L314.935 610.678C312.196 609.094 310.429 606.846 310.175 603.554C309.785 598.564 309.665 593.548 309.733 588.481C309.769 585.755 311.536 583.979 313.963 582.323L304.369 576.741C304.187 587.977 304.785 598.626 304.047 609.525C303.953 610.932 304.135 611.716 305.528 612.505L333.932 628.555C333.968 625.767 334.467 623.124 333.838 620.813L327.95 618.201Z" fill="#040404"/>
<path d="M646.231 89.936L633.129 97.8023C631.154 97.6258 629.106 96.0733 627.448 95.0608L604.912 81.3012L630.478 65.7865C631.975 64.8779 633.248 64.0419 634.792 65.6152L645.945 72.1419C651.397 75.33 654.926 77.1213 660.602 80.9585L646.236 89.9412L646.231 89.936ZM651.371 84.3438L632.417 73.5854L613.758 84.5152L632.786 95.5177L651.371 84.3438Z" fill="#040404"/>
<path d="M741.254 332.406C740.931 337.323 740.1 341.82 740.225 346.384C736.784 347.064 733.743 346.275 730.438 346.228L705.646 345.896L708.245 320.137L724.856 320.506L742.023 320.713L741.254 332.406Z" fill="#040404"/>
<path d="M529.54 346.166C528.921 346.452 527.029 347.127 526.655 346.452C524.535 342.609 524.051 338.268 522.742 334.115L518.781 321.565L545.87 318.553C548.146 318.299 550.277 317.639 552.445 318.299L560.527 343.175L540.262 345.138C536.613 345.491 533.251 346.384 529.535 346.171L529.54 346.166Z" fill="#040404"/>
<path d="M539.783 133.422C534.721 135.852 530.173 139.024 524.856 142.3L541.716 151.958L559.393 141.039C554.039 137.908 547.371 133.463 542.262 131.76C543.463 129.912 542.47 122.372 542.974 118.899L571.991 135.717L554.887 146.288L541.415 154.212L525.038 144.372L512.211 136.189L521.223 131.095L536.8 122.082C536.529 126.069 536.42 132.347 539.783 133.432V133.422Z" fill="#040404"/>
<path d="M838.361 680.987C836.49 680.301 834.26 679.398 833.158 677.949C829.973 673.764 830.165 664.558 831.682 660.363C834.38 652.896 839.614 645.04 847.056 641.79C851.1 640.025 855.84 639.708 858.911 642.626C861.983 645.544 863.199 649.952 862.518 654.023C860.85 664.065 855.549 673.281 846.957 678.905C844.489 680.519 841.771 682.233 838.366 680.987H838.361ZM845.949 677.03C850.689 674.372 853.73 670.342 856.412 665.887C859.546 660.674 861.292 654.646 860.008 648.592C859.301 645.253 856.645 642.403 852.836 642.434C860.19 650.934 855.19 662.72 848.517 669.6C847.202 670.955 846.583 673.136 844.645 673.91C843.418 674.403 842.93 675.244 843.163 676.454C843.33 677.326 844.842 677.664 845.96 677.035L845.949 677.03ZM842.836 672.419C851.011 666.723 858.413 653.686 852.721 644.926C851.386 642.875 849.364 642.683 847.264 643.825C837.613 649.059 830.653 662.019 833.101 673.063C833.299 673.962 833.813 674.777 834.286 675.073C835.84 676.038 841.76 673.162 842.831 672.419H842.836Z" fill="#040404"/>
<path d="M486.532 683.147C498.657 691.833 503.485 712.914 492.243 717.291C489.785 718.247 486.599 717.738 484.219 716.393C474.9 711.138 468.819 701.413 468.097 690.774C467.764 685.821 469.723 681.085 474.578 679.637C478.902 678.344 483.138 680.717 486.532 683.147ZM492.701 714.737C482.368 710.214 475.42 701.019 474.313 690.26C473.97 686.932 474.531 684.107 476.657 681.49C473.45 680.956 471.267 683.323 470.57 685.961C469.547 689.829 470.17 693.443 471.35 697.098C473.751 704.539 478.268 710.463 485.092 714.311C487.322 715.567 490.211 716.808 492.706 714.742L492.701 714.737ZM478.096 681.906C474.853 684.704 475.513 690.707 476.542 694.715C478.824 703.625 485.825 710.401 494.348 713.371C502.035 703.656 488.678 681.293 478.096 681.906Z" fill="#040404"/>
<path d="M419.194 365.782C422.635 371.38 424.199 377.662 422.37 384.132C421.611 386.822 419.963 389.278 417.858 390.269C406.804 395.488 390.687 374.204 395.868 360.076C397.313 356.13 401.404 353.29 405.515 354.349C411.7 355.943 415.993 360.569 419.194 365.782ZM420.572 374.402C418.95 368.815 416.206 363.664 411.783 359.811C409.428 357.76 406.596 355.803 403.332 356.156C400.068 356.509 397.495 359.656 397.1 363.114C395.349 378.426 409.797 391.536 416.772 388.727C420.92 387.055 422.12 379.745 420.572 374.402Z" fill="#040404"/>
<path d="M492.524 279.024C488.548 267.721 497.44 250.518 507.7 247.133C510.938 246.063 514.155 246.058 516.941 248.198C525.038 254.428 519.196 275.867 504.691 283.786C499.805 286.449 494.306 284.076 492.524 279.024ZM496.827 278.635C513.698 271.776 515.376 245.908 507.388 249.407C493.152 255.648 489.992 281.413 496.827 278.635Z" fill="#040404"/>
<path d="M755.401 551.122C751.773 553.76 748.379 556.143 744.086 557.431C747.345 554.3 751.352 552.301 755.401 551.122Z" fill="#6DA9C6"/>
<path d="M934.201 338.564C940.318 336.882 945.277 332.682 950.38 329.223C953.483 327.121 954.611 324.369 954.84 320.651C955.172 315.282 957.111 302.94 950.443 300.728C954.18 299.425 956.534 297.244 960.484 295.146L960.494 330.163L930.911 347.443C930.636 344.639 930.755 342.126 930.864 339.483L934.201 338.564Z" fill="#6DA9C6"/>
<path d="M922.668 233.571C921.629 234.838 919.945 235.113 918.287 236.193L896.791 223.633C896.629 221.701 896.359 220.034 897.056 218.357L905.205 223.409L922.668 233.571Z" fill="#6DA9C6"/>
<path d="M310.796 440.578C313.504 448.813 323.904 462.333 333.566 456.617C332.953 462.022 327.184 464.971 323.031 463.06C312.953 458.418 306.077 448.932 304.248 438.049C303.473 433.433 304.035 429.02 306.8 425.307C310.006 421.003 314.7 423.137 318.494 424.809C315.646 425.364 312.72 425.743 311.233 428.168C308.977 431.855 309.424 436.424 310.791 440.588L310.796 440.578Z" fill="#6DA9C6"/>
<path d="M598.456 491.904C597.442 495.185 594.828 496.296 591.891 495.518C581.133 492.667 571.305 478.217 574.537 466.15C575.239 463.533 577.037 461.653 579.776 461.861C590.951 462.692 601.824 480.989 598.456 491.909V491.904Z" fill="#6DA9C6"/>
<path d="M931.701 457.344C942.112 460.958 952.2 448.221 954.84 438.002C955.911 433.854 955.147 429.669 952.116 426.803C950.614 425.38 948.608 425.318 946.477 424.798C949.066 423.116 952.33 422.057 955.453 423.303C957.782 424.238 959.554 426.673 960.178 429.144C964.575 446.461 945.173 466.975 936.077 462.936C934.253 462.126 932.678 460.355 931.701 457.344Z" fill="#6DA9C6"/>
<path d="M347.102 235.845C345.522 236.697 343.573 234.646 342.32 233.877L367.595 218.861C368.224 220.403 368.666 222.589 367.99 223.851C361.166 228.02 354.446 231.904 347.102 235.845Z" fill="#6DA9C6"/>
<path d="M639.963 386.541C629.236 379.989 621.185 390.851 612.147 394.984C609.902 393.769 608.129 392.803 605.832 391.038C615.364 385.804 623.773 380.845 632.702 375.118C635.4 376.946 638.144 377.927 640.545 379.932C642.198 381.313 644.422 381.713 646.268 382.912C650.711 385.804 655.16 388.011 660.139 390.835C658.445 392.481 655.867 394.444 653.622 394.885L639.968 386.547L639.963 386.541Z" fill="#6DA9C6"/>
<path d="M579.777 762.74C585.728 766.348 591.451 769.703 597.698 773.015C598.259 775.04 598.098 777.044 597.885 779.474L591.42 775.617L567.813 761.873L567.803 727.333L577.953 733.029C576.046 734.442 573.681 734.81 573.286 737.033C572.101 743.632 572.496 750.595 574.284 757.033C575.027 759.718 577.589 761.41 579.777 762.745V762.74Z" fill="#6DA9C6"/>
<path d="M310.101 318.127C310.044 328.637 313.812 328.689 322.741 334.068C326.551 336.363 330.251 338.217 334.097 340.278C333.91 342.796 334.357 344.941 333.874 347.168L304.426 330.49L304.332 295.525L313.88 300.837C312.617 302.291 310.429 303.262 310.304 305.147C310.018 309.508 310.127 313.657 310.101 318.117V318.127Z" fill="#6DA9C6"/>
<path d="M667.508 769.635C670.476 769.812 672.872 769.708 675.361 768.451C683.199 764.484 690.974 761 692.216 751.675C692.783 747.407 692.772 742.843 692.305 738.492C692.008 735.745 689.186 734.426 687.85 732.411L697.736 727.297L697.819 761.961L667.43 779.63C667.113 776.229 667.456 773.405 667.503 769.63L667.508 769.635Z" fill="#6DA9C6"/>
<path d="M930.621 619.645C933.651 619.692 936.27 619.027 938.817 617.495C942.19 615.47 953.302 609.847 954.191 606.597C955.672 601.145 955.23 595.62 955.423 590.012C955.537 586.627 954.207 584.083 951.431 581.767L960.521 576.575L960.62 611.483L936.499 625.211C934.576 626.307 933.188 627.703 930.938 628.487C930.673 625.512 930.496 623.051 930.621 619.65V619.645Z" fill="#6DA9C6"/>
<path d="M327.949 618.201L333.837 620.813C334.466 623.124 333.967 625.767 333.931 628.555L305.527 612.505C304.134 611.716 303.952 610.937 304.046 609.525C304.784 598.632 304.181 587.982 304.368 576.741L313.963 582.323C311.535 583.979 309.763 585.755 309.732 588.481C309.669 593.548 309.784 598.564 310.174 603.554C310.433 606.846 312.195 609.094 314.934 610.678L327.949 618.201Z" fill="#6DA9C6"/>
<path d="M845.949 677.03C844.831 677.658 843.319 677.321 843.153 676.449C842.924 675.239 843.407 674.398 844.634 673.904C846.572 673.131 847.191 670.95 848.506 669.595C855.179 662.72 860.179 650.928 852.825 642.429C856.635 642.398 859.29 645.248 859.997 648.587C861.281 654.641 859.54 660.669 856.401 665.882C853.724 670.337 850.684 674.367 845.938 677.025L845.949 677.03Z" fill="#6DA9C6"/>
<path d="M478.096 681.906C488.678 681.293 502.03 703.656 494.349 713.371C485.82 710.396 478.824 703.625 476.542 694.715C475.513 690.702 474.853 684.704 478.096 681.906Z" fill="#6DA9C6"/>
<path d="M492.701 714.737C490.206 716.803 487.322 715.562 485.087 714.306C478.263 710.463 473.746 704.534 471.345 697.093C470.165 693.438 469.541 689.824 470.565 685.956C471.267 683.318 473.445 680.956 476.651 681.485C474.526 684.097 473.964 686.927 474.307 690.255C475.414 701.014 482.363 710.209 492.696 714.732L492.701 714.737Z" fill="#6DA9C6"/>
<path d="M420.57 374.402C422.119 379.739 420.919 387.055 416.771 388.727C409.796 391.536 395.348 378.426 397.099 363.114C397.494 359.656 400.025 356.514 403.331 356.156C406.636 355.798 409.427 357.76 411.782 359.811C416.199 363.664 418.944 368.815 420.57 374.402Z" fill="#6DA9C6"/>
</svg>
