<svg width="994" height="680" viewBox="0 0 994 680" fill="none" xmlns="http://www.w3.org/2000/svg">
<path d="M72.7262 523.804L72.6077 475.305L72.5137 444.893L108.836 423.762L154.837 397.044L189.493 377.167L219.403 394.674L271.755 364.912C273.791 363.731 275.474 362.86 277.681 361.969L277.714 328.206L346.489 288.501L375.504 271.722L393.908 261.207L424.084 278.677L450.749 263.61L478.264 248.122C479.625 247.383 480.855 247.027 482.445 246.61L482.355 212.717L569.849 162.199L598.643 145.673L628.831 163.086L682.271 132.841C683.828 132.012 685.025 131.48 686.721 131.063L686.75 97.3986L703.626 87.4846L803.341 30.0974L839.798 51.2534L864.624 65.7524L909.047 91.4445L920.07 97.6805C920.622 97.9952 920.818 98.3875 920.818 99.3274L920.843 236.329L902.741 246.868L887.467 255.711L867.697 266.982L842.291 281.624L820.969 293.765L803.386 303.707L772.797 285.432L726.101 312.003L715.63 318.055L715.655 351.651L622.814 404.788L598.533 418.743L584.657 410.358L567.862 400.603L522.667 426.361L511.182 432.822L511.284 466.707L434.621 510.76L411.786 523.89L394.722 533.78C393.753 534.343 393.418 533.951 392.511 533.416L364.624 516.976C363.59 516.367 363.03 516.53 362.082 517.07L337.35 531.144L314.274 544.4C311.58 545.929 309.014 547.134 306.533 549.108L306.627 582.262L236.736 622.507L189.125 649.821L178.073 643.168L126.558 613.418L72.624 582.017L72.7262 523.804ZM803.598 164.532L844.196 141.178L862.981 130.442L882.46 119.282L914.782 100.647C915.971 99.9608 917.091 99.4214 917.712 98.1913C916.277 97.2351 914.859 97.0226 913.776 96.1031C912.803 95.2776 905.377 91.1748 903.709 90.2144L893.307 84.2236L886.625 80.3822L881.152 77.2642L878.892 75.8053C876.452 74.232 873.971 72.8303 871.274 71.6534C869.9 71.0526 869.103 69.9738 867.849 69.2913L861.522 65.8464L857.962 63.6233L851.998 60.2315L846.272 56.9459L842.418 54.6861C840.481 53.55 838.662 52.5529 836.692 51.3841L832.086 48.6584L826.38 45.4137L822.317 42.9413C820.633 41.9156 806.353 33.7058 806.533 33.8774C804.763 32.206 803.046 32.1202 801.023 33.3502L797.754 35.3363L791.271 39.0346C789.469 40.0603 787.818 40.9757 786.056 42.0178L781.168 44.907L777.359 47.1178C775.752 48.0495 774.15 48.9118 772.45 49.6351C770.913 50.2889 769.687 51.2983 768.346 52.1074L764.251 54.5675L758.537 57.8163L754.687 60.0762C753.735 60.6361 741.412 67.6608 741.686 67.5709C739.536 68.2901 737.905 69.6877 735.984 70.7707L729.96 74.1625L725.872 76.5899L721.953 78.8947L715.156 82.6707L709.254 86.0788L703.021 89.6832C701.672 90.4637 700.454 91.2156 699.118 91.9757L691.855 96.1031C690.935 96.6262 689.738 96.7038 689.439 98.1505L702.159 105.625L740.889 128.105L761.231 139.98L782.087 152.138L798.931 161.95C800.504 162.869 801.91 163.788 803.594 164.544L803.598 164.532ZM833.941 284.435L854.005 272.968L887.438 253.766L911.79 239.716C914.467 238.172 917.213 237.146 919.249 234.755L919.294 101.489C917.814 100.741 916.825 101.403 915.656 102.078L888.664 117.643L822.469 155.587L803.913 166.183L803.905 301.529C808.617 299.462 812.549 296.732 816.841 294.263L833.937 284.431L833.941 284.435ZM632.91 165.403L649.847 175.202L652.491 173.686C654.065 172.783 668.395 166.759 671.284 166.204L671.162 141.161C665.901 143.707 661.438 146.175 657.049 149.155C654.703 149.972 652.679 151.173 650.799 152.734C649.095 153 648.02 154.304 646.643 155.072C644.91 156.032 643.324 156.87 641.583 157.806L630.858 163.568C631.209 164.634 632.096 164.937 632.914 165.411L632.91 165.403ZM532.521 241.273L547.463 249.888L571.451 263.888L582.556 270.374L598.569 279.912L616.193 269.667L637.197 257.558L665.946 241.102L678.249 234.061L712.83 214.225C711.947 213.219 711.212 212.864 710.382 212.369L691.14 200.984L679.622 194.229L664.585 185.488L656.963 181.23L624.433 162.334C619.549 159.494 614.889 157.042 610.026 154.169L606.981 152.371L600.053 148.354C597.572 146.915 596.428 148.791 592.721 150.961L579.58 158.652C578.15 159.489 576.85 160.274 575.432 161.079L569.988 164.169L564.303 167.458C563.371 167.998 549.875 175.574 550.521 175.406C549.376 175.709 543.429 179.571 542.027 180.331L535.353 183.96C533.113 185.177 530.955 186.506 528.711 187.809L513.899 196.419L507.985 199.795L503.628 202.337L499.987 204.552C494.992 207.592 489.765 209.905 484.607 213.113C486.381 214.588 487.991 215.43 489.826 216.497L532.521 241.265V241.273ZM783.203 182.676C785.582 181.45 787.703 180.457 789.947 179.003L781.491 173.764C765.559 165.006 746.333 160.617 728.312 159.518C722.57 159.167 717.007 158.787 711.269 159.395L702.563 160.319C692.161 161.786 682.258 163.715 672.355 167.225C665.162 169.796 658.356 172.395 651.143 175.975L673.536 188.843C689.211 181.626 705.138 176.436 721.867 173.866C742.454 170.298 764.746 172.399 783.207 182.681L783.203 182.676ZM715.671 315.767C717.502 315.783 718.569 314.006 719.95 313.503C721.597 312.906 722.885 312.167 724.385 311.292L738.052 303.319L750.346 296.38L771.645 284.211L787.053 275.514C788.329 274.795 789.743 274.566 790.928 273.426L790.871 180.666C787.642 182.329 784.989 183.669 782.329 185.337C780.375 186.559 778.613 187.858 776.578 188.978L757.103 199.709C755.533 200.575 753.073 202.365 751.949 202.815C750.032 203.583 748.405 204.981 746.554 205.937L740.868 208.875L725.921 217.559C722.472 219.562 719.002 221.082 715.773 223.346L715.671 315.763V315.767ZM715.883 221.486L754.536 199.28C735.935 194.932 717.277 197.707 700.046 204.425L715.467 213.583L715.879 221.486H715.883ZM650.816 386.836L658.132 382.721C660.363 381.466 662.407 380.212 664.643 378.973L670.663 375.639C674.014 373.783 677.153 371.797 680.488 369.844C682.634 368.585 684.629 367.249 686.897 365.99L692.341 362.975L696.245 360.788C698.595 359.472 700.92 358.128 703.324 356.767L714.105 350.658L714.061 215.663C713.174 215.859 711.89 216.264 711.424 216.918C710.701 217.943 709.957 217.747 709.033 218.278L676.442 237.032L667.818 242.009L653.53 250.145L625.226 266.34L607.974 276.095L598.9 281.285L599.007 416.553L615.834 406.921L636.523 395.001C641.46 392.156 645.866 389.623 650.82 386.836H650.816ZM433.795 284.174L445.072 290.68C452.085 287.284 459.046 284.117 466.57 281.403L466.439 256.855L449.384 266.197L427.223 278.702C426.683 278.886 426.369 279.499 426.557 279.838C426.855 280.373 432.005 282.784 433.799 284.178L433.795 284.174ZM299.078 340.286L303.729 342.877L332.372 359.501L346.317 367.699L370.554 381.822L393.794 395.565L413.797 384.261L442.378 367.846L496.378 336.927L508.848 329.735L493.284 320.695L427.791 282.547C427.027 282.102 426.491 282.4 425.772 281.71C424.341 280.337 422.143 280.01 420.581 278.698C419.355 277.664 417.904 277.059 416.478 276.209L394.162 262.916C391.648 263.741 385.137 268.535 384.046 269.103C379.186 271.628 374.47 273.994 369.859 276.965C368.171 278.052 366.447 279.029 364.689 280.026L359.249 283.111L353.821 286.246C351.189 287.766 348.573 289.074 345.958 290.651L342.12 292.964L338.02 295.383L333.365 298.068C331.264 299.278 329.172 300.397 327.022 301.607L318.95 306.155L308.63 312.175L294.721 320.295L279.978 328.693L284.094 331.455L299.082 340.294L299.078 340.286ZM546.049 287.794C556.283 288.661 565.941 291.346 575.056 295.886C578.505 297.602 577.099 299.494 585.2 294.202C577.324 288.448 568.995 284.922 560.187 281.71C544.843 276.111 526.337 273.471 510.111 274.66L500.428 275.371C498.421 275.518 496.447 275.997 494.396 276.242C480.932 277.852 469.746 281.509 457.362 286.748L446.837 291.199C448.378 292.8 450.123 293.753 451.987 294.823L468.528 304.333C492.119 293.217 520.034 285.6 546.045 287.799L546.049 287.794ZM529.811 420.219C531.278 419.373 532.66 418.474 534.205 417.612L540.72 413.962L547.492 410.19C548.538 409.606 549.274 408.981 550.369 408.494C553.619 407.048 556.504 405.131 559.643 403.411L574.144 395.458L585.911 388.519L586.005 362.611L585.94 295.837L569.612 305.101L550.181 315.975L523.022 331.627C520.774 332.922 518.959 334.385 516.573 335.431C514.737 336.232 513.168 337.413 511.378 338.586L511.431 430.758C515.273 429.385 517.827 427.145 520.214 425.764L526.459 422.148L529.815 420.215L529.811 420.219ZM511.451 336.649L523.848 329.261L550.046 314.394C541.884 312.289 533.739 311.774 525.389 312.543C520.508 312.923 515.947 313.544 511.243 314.712L494.931 319.78L511.137 329.179L511.451 336.645V336.649ZM406.787 390.44C403.799 392.201 401.13 393.722 398.261 395.193L394.231 397.265L394.387 440.598C394.411 447.55 394.109 453.05 394.366 459.875C394.509 463.679 394.44 467.218 394.419 471.01L394.264 496.167C394.832 498.983 394.374 501.614 394.362 504.434L394.252 532.259L418.117 518.406L483.426 480.945L509.502 465.82L509.53 338.684C509.53 336.02 509.804 333.862 509.534 331.202L495.744 339.134L481.223 347.446L476.62 350.208L467.727 355.153L463.811 357.413L459.953 359.738L454.047 363.138C452.625 363.955 451.366 364.822 449.948 365.602L443.617 369.096C439.766 371.221 436.206 373.698 432.299 375.688C430.795 376.456 429.63 377.469 428.322 378.246C426.467 379.345 424.374 379.848 422.576 381.266C422.621 381.229 412.628 386.999 411.275 387.796L406.783 390.444L406.787 390.44ZM221.119 395.499L240.231 406.66C245.393 403.697 250.53 401.437 255.991 399.386C257.908 398.605 259.8 398.16 261.594 397.007L261.582 372.799C257.597 374.539 254.233 376.652 250.624 378.695C248.683 379.795 246.701 380.645 244.992 382.095C242.609 382.831 240.84 384.359 238.727 385.553L221.119 395.495V395.499ZM140.565 483.335C142.384 484.398 144.011 485.256 145.67 486.257L150.53 489.187C153.288 490.85 156.01 492.338 158.831 493.969L173.557 502.485L178.984 505.697C182.197 507.597 185.189 509.902 188.777 511.295C190.33 511.896 193.016 509.113 194.716 508.353C196.69 507.47 198.325 506.338 200.164 505.276L213.922 497.303L228.443 489.016L231.496 487.148C233.352 486.012 235.146 485.109 236.969 484.018L241.306 481.427L250.216 476.466L254.364 474.087L258.447 471.636L264.701 468.072L269.883 465.093L275.859 461.677L279.717 459.38L284.683 456.56L295.072 450.623C296.176 449.993 305.327 445.445 301.461 444.276C299.049 443.545 295.203 440.639 292.657 439.254L287.666 436.54C286.068 435.67 284.916 434.424 283.289 433.484L258.692 419.25L198.918 384.392L191.446 380.342C190.621 379.897 190.273 379.345 189.133 379.517C187.666 379.742 181.792 383.55 180.051 384.539L174.325 387.796L170.483 390.113L163.347 394.032L157.425 397.465L153.109 400.056L138.019 408.727L133.486 411.478C131.553 412.65 129.591 413.513 127.707 414.726C126.436 415.544 125.238 416.324 123.873 417.064L118.846 419.798L108.93 425.781L103.895 428.482C102.857 429.038 101.994 429.982 100.821 430.337C100.405 430.464 92.3855 435.167 91.2329 435.85L86.8515 438.445C85.5191 439.233 84.252 439.752 83.0218 440.762C83.8024 440.12 76.1186 445.2 76.1145 444.513C76.0736 444.901 76.188 445.543 76.6295 445.78L80.4019 447.799C82.4005 448.869 84.0395 450.361 86.0136 451.505L91.4209 454.644L101.496 460.549L110.238 465.71C111.706 466.576 113.418 467.071 114.746 468.129C117.011 469.932 123.587 473.278 126.092 474.799L130.171 477.271L134.295 479.694L140.561 483.348L140.565 483.335ZM380.621 410.37C380.257 409.189 378.953 409.246 378.071 408.613C373.068 405.033 367.812 402.487 362.139 400.044C351.537 395.475 341.298 392.769 329.862 391.425C327.108 391.102 324.488 390.644 321.749 390.542C315.279 390.297 308.997 390.019 302.56 390.55L293.335 391.311C283.256 392.737 273.496 394.784 263.801 398.017C256.22 400.669 249.153 403.631 241.608 407.273L263.479 420.309C278.286 413.178 293.495 407.943 309.655 405.152C318.852 403.582 327.594 402.687 336.831 403.313C349.979 403.725 362.376 407.322 373.93 413.95L380.621 410.37ZM306.647 454.754L306.631 546.955L315.59 541.81L321.422 538.23C326.323 535.222 331.362 532.774 336.381 529.918L352.554 520.715L373.624 508.741C376.211 507.27 378.749 506.191 381.185 504.283L381.23 411.8L359.919 424.203L345.835 432.274L339.655 435.838L335.519 438.277C331.522 440.635 327.161 442.903 322.935 445.343L317.262 448.62C315.418 449.687 313.575 450.61 311.773 451.685L306.647 454.746V454.754ZM306.427 445.38C306.431 448.118 306.218 450.381 306.484 452.878L345.582 430.464C326.486 425.311 308.241 428.886 289.943 435.654L306.427 445.384V445.38ZM188.189 623.25L188.16 615.384L188.234 603.827V589.16L188.185 564.972L188.029 513.371C185.786 511.443 183.333 510.413 180.901 508.962L164.218 499.032L157.241 495.015L145.502 488.362C144.415 487.745 143.389 486.699 142.229 486.408C141.955 486.339 131.291 479.915 129.857 479.085L126.477 477.128L120.705 473.936C116.013 471.341 112.061 468.767 107.884 466.327L102.003 462.894C98.9536 461.113 96.44 459.727 93.6198 458.068L85.9319 453.544C83.218 451.947 80.6144 450.394 77.8597 448.976L74.357 447.174L74.2344 454.251L74.2834 581.098C75.8979 581.784 77.0259 582.548 78.3747 583.341L84.5259 586.958C85.8665 587.746 87.0885 588.47 88.4291 589.222L93.6157 592.139L99.3092 595.454L103.417 597.885L107.5 600.333L111.366 602.605L116.774 605.731C118.069 606.479 119.165 607.084 120.448 607.84L139.441 619.004C140.68 619.732 141.685 620.279 142.915 620.978L148.372 624.068C152.193 626.233 154.531 627.488 158.495 629.891L163.286 632.796L169.543 636.36C171.497 637.471 173.307 638.493 175.249 639.666L178.298 641.509L185.896 646.151C186.505 646.523 187.539 647.255 188.287 646.699L188.197 623.246L188.189 623.25ZM202.719 505.873L196.907 509.232C194.434 510.662 191.843 511.671 189.779 513.674L189.84 647.888C195.382 643.654 200.344 641.427 205.997 638.072C210.807 634.909 213.17 634.439 218.344 631.248C221.826 629.098 225.165 627.259 228.811 625.294L264.063 604.983L304.935 581.384L304.857 446.932C299.364 449.858 294.496 452.899 289.51 455.984C287.495 457.231 285.374 457.974 283.514 459.49C279.508 461.648 275.765 463.695 271.816 466.062L267.709 468.522L260.389 472.612L254.442 476.049L239.393 484.684C236.994 486.061 234.791 487.348 232.526 488.901C230.491 490.291 228.239 491.378 226.065 492.608L208.854 502.342L202.719 505.877V505.873Z" fill="#040606"/>
<path d="M406.788 390.44L411.28 387.792C412.629 386.995 422.626 381.225 422.581 381.262C424.379 379.844 426.472 379.341 428.327 378.242C429.635 377.465 430.8 376.452 432.304 375.684C436.212 373.694 439.772 371.213 443.622 369.092L449.953 365.598C451.367 364.818 452.626 363.955 454.052 363.134L459.958 359.734L463.816 357.409L467.732 355.149L476.626 350.204L481.228 347.442L495.749 339.13L509.54 331.198C509.805 333.858 509.535 336.02 509.535 338.68L509.507 465.816L483.431 480.941L418.122 518.402L394.257 532.255L394.367 504.43C394.379 501.614 394.833 498.979 394.269 496.163L394.424 471.006C394.449 467.218 394.518 463.675 394.371 459.87C394.11 453.046 394.416 447.541 394.392 440.594L394.236 397.261L398.266 395.189C401.131 393.713 403.804 392.193 406.792 390.436L406.788 390.44ZM455.85 442.785C460.493 437.934 463.469 431.968 464.887 425.539C466.109 419.978 465.492 410.975 459.341 408.727C449.205 405.021 430.15 425.041 433.252 442.519C434.307 448.457 440.299 451.812 445.87 449.846C449.859 448.436 452.826 445.948 455.855 442.785H455.85ZM432.603 465.494L447.345 457.043L450.141 455.281C458.041 450.308 465.047 444.713 468.88 436.111C471.03 431.285 472.203 426.43 471.929 421.052C471.745 417.485 471.333 413.451 468.186 411.081C475.13 427.076 465.19 445.396 451.171 453.083L441.627 458.318L432.68 463.544C432.145 463.859 432.366 465.228 432.603 465.498V465.494Z" fill="#6DA9C6"/>
<path d="M650.816 386.836C645.862 389.623 641.456 392.156 636.519 395.001L615.83 406.921L599.003 416.553L598.896 281.285L607.97 276.095L625.222 266.34L653.526 250.145L667.814 242.009L676.438 237.031L709.029 218.278C709.953 217.747 710.697 217.943 711.42 216.918C711.882 216.26 713.166 215.859 714.057 215.663L714.102 350.658L703.32 356.767C700.916 358.128 698.591 359.472 696.241 360.788L692.337 362.974L686.893 365.99C684.621 367.249 682.63 368.585 680.485 369.844C677.149 371.797 674.006 373.783 670.659 375.639L664.639 378.973C662.403 380.212 660.359 381.466 658.128 382.721L650.812 386.836H650.816ZM674.456 313.928C674.444 316.633 673.377 318.868 672.376 321.255C667.778 332.215 659.26 336.097 649.606 341.549C645.731 343.739 642.131 346.036 638.129 347.981C637.21 348.426 636.597 349.599 637.353 350.523L671.166 330.76C672.903 329.747 674.423 328.921 676.201 327.981L676.352 321.79L676.451 283.287L651.049 297.99C643.708 302.24 640.177 310.83 637.757 318.607C637.25 322.89 636.879 326.882 638.763 330.63C641.763 336.6 648.69 336.886 653.456 333.76C664.099 326.784 672.367 313.025 669.069 299.96C668.149 296.323 665.738 294.492 661.569 293.458C665.795 290.545 670.021 288.538 674.603 286.029L674.456 313.924V313.928Z" fill="#6DA9C6"/>
<path d="M833.943 284.435L816.846 294.268C812.555 296.736 808.623 299.466 803.91 301.533L803.918 166.187L822.474 155.591L888.67 117.647L915.662 102.082C916.831 101.407 917.82 100.745 919.299 101.493L919.254 234.759C917.215 237.15 914.468 238.176 911.795 239.72L887.444 253.77L854.011 272.973L833.947 284.439L833.943 284.435ZM842.256 235.507C844.345 235.152 845.612 233.918 847.165 233.019L854.767 228.617L859.561 225.794L864.993 222.631L868.88 220.346L874.61 217.056C876.2 216.145 877.61 214.87 879.527 214.314C880.888 213.922 881.673 213.097 881.669 211.54L881.513 167.458C875.423 170.225 871.716 173.22 866.354 175.885C864.22 176.943 862.304 178.03 860.28 179.223L855.408 182.1C854.109 182.868 852.907 183.6 851.587 184.401L842.281 190.073C841.757 195.819 842.824 198.168 842.191 203.747C842.093 204.613 842.493 205.647 842.485 206.673L842.252 235.507H842.256Z" fill="#6DA9C6"/>
<path d="M803.6 164.532C801.916 163.776 800.514 162.857 798.937 161.937L782.093 152.125L761.236 139.968L740.895 128.093L702.165 105.612L689.445 98.1382C689.744 96.6916 690.941 96.6139 691.861 96.0909L699.124 91.9635C700.46 91.2034 701.678 90.4514 703.027 89.6709L709.26 86.0666L715.162 82.6584L721.959 78.8825L725.878 76.5776L729.966 74.1502L735.99 70.7584C737.911 69.6755 739.542 68.2779 741.692 67.5587C741.418 67.6486 753.741 60.6238 754.693 60.0639L758.543 57.8041L764.257 54.5553L768.352 52.0952C769.693 51.2901 770.919 50.2808 772.456 49.6228C774.156 48.8995 775.754 48.0413 777.364 47.1055L781.174 44.8947L786.062 42.0055C787.828 40.9635 789.479 40.0522 791.277 39.0224L797.759 35.324L801.029 33.338C803.052 32.1079 804.769 32.1938 806.539 33.8651C806.359 33.6935 820.639 41.9034 822.323 42.9291L826.386 45.4014L832.092 48.6462L836.698 51.3719C838.668 52.5365 840.487 53.5377 842.424 54.6738L846.278 56.9337L852.004 60.2192L857.968 63.6111L861.527 65.8341L867.854 69.2791C869.109 69.9615 869.906 71.0445 871.279 71.6411C873.977 72.818 876.458 74.2197 878.898 75.793L881.158 77.2519L886.631 80.37L893.313 84.2113L903.715 90.2022C905.383 91.1625 912.809 95.2613 913.782 96.0909C914.865 97.0103 916.283 97.2228 917.718 98.1791C917.093 99.4091 915.977 99.9486 914.787 100.635L882.466 119.27L862.987 130.43L844.202 141.165L803.604 164.52L803.6 164.532ZM837.981 97.5906C835.578 95.3267 832.635 94.6565 830.003 92.9442C828.458 91.9389 827.032 91.0154 825.299 90.2144C824.391 89.7935 823.778 88.6779 822.618 88.4449C820.864 88.0935 819.687 86.7041 818.248 85.944C816.144 84.8324 814.178 83.8026 812.163 82.593L807.283 79.663C806.097 78.9519 804.732 78.6087 803.608 77.6238L787.995 86.8349L769.219 97.5416C770.805 98.8452 772.501 99.4704 774.115 100.455L783.54 106.201L793.509 112.118L799.562 115.498C800.825 116.205 802.402 118.003 804.037 117.545C805.586 117.112 807.229 116.115 808.521 115.195C810.372 113.871 812.535 113.328 814.235 111.873C815.428 110.851 816.981 110.733 818.134 109.634C819.287 108.534 835.382 100.382 837.977 97.5865L837.981 97.5906Z" fill="#6DA9C6"/>
<path d="M299.078 340.286L284.09 331.447L279.975 328.684L294.717 320.287L308.626 312.167L318.946 306.147L327.018 301.599C329.164 300.389 331.26 299.269 333.361 298.06L338.017 295.375L342.116 292.956L345.954 290.643C348.57 289.069 351.185 287.758 353.818 286.238L359.245 283.103L364.685 280.018C366.443 279.021 368.168 278.044 369.856 276.957C374.47 273.99 379.183 271.62 384.042 269.094C385.133 268.526 391.648 263.733 394.158 262.907L416.474 276.201C417.9 277.051 419.351 277.656 420.577 278.69C422.139 280.001 424.338 280.324 425.768 281.701C426.487 282.392 427.023 282.094 427.787 282.539L493.28 320.687L508.844 329.726L496.374 336.919L442.374 367.838L413.793 384.253L393.79 395.557L370.55 381.813L346.313 367.69L332.368 359.493L303.725 342.869L299.074 340.278L299.078 340.286ZM402.406 344.405L405.855 342.378L412.064 338.766L416.441 336.208C419.752 334.271 422.727 332.146 426.295 330.572C427.101 330.217 427.799 329.351 428.682 328.668L395.96 309.584C395.139 309.102 394.71 308.297 393.541 308.983L360.275 328.407C359.245 328.067 359.188 329.498 360.263 329.077L374.024 337.511L380.118 340.895C381.594 341.712 382.984 342.468 384.353 343.486C387.426 345.774 390.892 347.205 394.109 349.232L402.41 344.405H402.406Z" fill="#6DA9C6"/>
<path d="M532.521 241.273L489.827 216.505C487.992 215.438 486.381 214.596 484.607 213.121C489.77 209.909 494.993 207.6 499.987 204.56L503.629 202.345L507.986 199.803L513.9 196.428L528.712 187.817C530.956 186.514 533.114 185.186 535.354 183.968L542.028 180.339C543.43 179.579 549.377 175.713 550.521 175.415C549.88 175.582 563.371 168.006 564.303 167.466L569.988 164.177L575.433 161.087C576.847 160.282 578.151 159.498 579.581 158.66L592.721 150.969C596.428 148.799 597.573 146.923 600.054 148.362L606.981 152.379L610.026 154.177C614.89 157.05 619.549 159.502 624.434 162.342L656.963 181.238L664.586 185.496L679.623 194.237L691.14 200.992L710.383 212.377C711.216 212.868 711.952 213.227 712.831 214.233L678.249 234.069L665.947 241.11L637.198 257.566L616.194 269.675L598.57 279.92L582.556 270.382L571.452 263.896L547.464 249.896L532.521 241.281V241.273ZM579.9 222.226L587.269 226.472L598.476 233.166C599.142 233.562 600.605 232.581 601.124 232.058C601.541 231.633 609.368 227.109 610.509 226.46L616.562 223.006L622.034 219.921C625.778 217.812 629.126 215.499 633.176 213.007L598.586 192.795C596.195 194.605 588.066 199.39 585.74 200.477C582.585 201.953 579.883 204.163 576.802 205.818C575.367 206.591 573.822 207.044 572.547 208.074C570.532 209.701 567.499 210.632 564.479 212.839C565.697 213.873 566.723 214.425 567.965 215.16L572.522 217.862L579.908 222.214L579.9 222.226Z" fill="#6DA9C6"/>
<path d="M140.566 483.335L134.301 479.682L130.177 477.259L126.098 474.786C123.588 473.27 117.016 469.919 114.752 468.117C113.419 467.059 111.707 466.564 110.244 465.698L101.501 460.536L91.4262 454.631L86.0188 451.493C84.0447 450.349 82.4058 448.853 80.4071 447.787L76.6347 445.768C76.1974 445.535 76.0829 444.889 76.1197 444.501C76.1238 445.192 83.8036 440.112 83.027 440.75C84.2573 439.74 85.5243 439.221 86.8567 438.432L91.2382 435.837C92.3907 435.155 100.414 430.447 100.827 430.325C102 429.973 102.862 429.029 103.9 428.469L108.936 425.768L118.851 419.786L123.878 417.052C125.243 416.308 126.441 415.531 127.712 414.714C129.596 413.5 131.558 412.638 133.491 411.465L138.024 408.715L153.114 400.043L157.43 397.453L163.352 394.02L170.488 390.101L174.33 387.784L180.056 384.527C181.798 383.538 187.671 379.729 189.138 379.505C190.278 379.329 190.626 379.881 191.452 380.33L198.923 384.38L258.698 419.238L283.294 433.471C284.921 434.411 286.074 435.658 287.672 436.528L292.662 439.242C295.208 440.627 299.054 443.532 301.466 444.264C305.332 445.433 296.177 449.981 295.078 450.61L284.688 456.548L279.722 459.368L275.864 461.664L269.888 465.081L264.706 468.06L258.452 471.623L254.369 474.075L250.221 476.454L241.311 481.415L236.974 484.006C235.147 485.097 233.357 486 231.502 487.136L228.449 489.003L213.927 497.291L200.169 505.264C198.33 506.33 196.699 507.458 194.721 508.341C193.021 509.101 190.336 511.884 188.783 511.283C185.194 509.89 182.202 507.589 178.99 505.685L173.562 502.473L158.836 493.956C156.016 492.326 153.294 490.838 150.535 489.175L145.675 486.245C144.016 485.244 142.393 484.386 140.57 483.323L140.566 483.335ZM189.261 464.946C191.55 463.973 193.761 462.666 195.682 461.525L199.605 459.204L207.163 454.991L212.406 452.045C213.465 451.448 214.389 450.77 215.398 450.108C218.999 447.754 219.996 447.868 224.141 444.718L210.391 436.655L193.883 427.068C192.396 426.206 191.039 425.298 189.453 424.595C183.612 427.53 178.27 431.052 172.634 434.35C171.016 435.298 169.413 435.993 167.832 436.953L154.777 444.861L162.367 449.478C163.92 450.422 165.424 451.256 167.027 452.2L172.651 455.506C173.517 456.013 176.439 457.811 176.713 457.929C180.625 459.654 184.332 463.291 189.261 464.95V464.946Z" fill="#6DA9C6"/>
<path d="M202.719 505.873L208.854 502.338L226.065 492.604C228.24 491.374 230.492 490.291 232.527 488.897C234.795 487.348 236.994 486.057 239.393 484.68L254.442 476.045L260.389 472.608L267.709 468.518L271.817 466.057C275.765 463.691 279.509 461.648 283.514 459.486C285.374 457.966 287.491 457.226 289.51 455.98C294.497 452.895 299.365 449.854 304.858 446.928L304.935 581.38L264.064 604.979L228.812 625.289C225.162 627.255 221.823 629.094 218.345 631.243C213.17 634.435 210.808 634.905 205.997 638.068C200.345 641.427 195.383 643.654 189.841 647.884L189.779 513.67C191.843 511.667 194.43 510.658 196.907 509.228L202.719 505.869V505.873ZM236.712 576.897C239.463 575.045 242.324 573.754 245.124 572.136C247.216 570.926 249.215 569.655 251.295 568.487L257.075 565.238L262.4 562.005C263.929 561.078 265.788 560.82 267.178 559.378L267.125 514.307C265.286 515.084 263.634 515.766 262.036 516.865C259.719 518.459 257.136 519.518 254.655 520.96L242.561 528.001C240.967 528.929 239.512 529.795 237.918 530.731L233.287 533.449C231.493 534.503 229.511 535.042 228.162 536.755L228.019 581.58C228.195 582.467 236.447 577.072 236.708 576.897H236.712Z" fill="#6DA9C6"/>
<path d="M188.189 623.25L188.279 646.703C187.531 647.259 186.497 646.527 185.888 646.155L178.29 641.513L175.241 639.67C173.304 638.497 171.489 637.475 169.535 636.364L163.278 632.8L158.488 629.895C154.523 627.488 152.181 626.233 148.364 624.072L142.907 620.982C141.677 620.283 140.672 619.736 139.433 619.008L120.44 607.844C119.157 607.088 118.061 606.487 116.766 605.735L111.359 602.609L107.492 600.337L103.409 597.889L99.3014 595.458L93.6079 592.144L88.4213 589.226C87.0807 588.474 85.8627 587.75 84.5181 586.962L78.3669 583.345C77.0222 582.552 75.8941 581.788 74.2756 581.102L74.2266 454.256L74.3492 447.178L77.8519 448.98C80.6066 450.398 83.2143 451.951 85.924 453.549L93.612 458.072C96.4322 459.732 98.9458 461.117 101.995 462.899L107.876 466.331C112.053 468.771 116.006 471.341 120.698 473.94L126.469 477.132L129.849 479.089C131.279 479.919 141.943 486.343 142.221 486.413C143.377 486.699 144.407 487.749 145.495 488.366L157.233 495.019L164.21 499.036L180.894 508.966C183.33 510.417 185.778 511.447 188.022 513.375L188.177 564.976L188.222 589.164V603.831L188.156 615.388L188.185 623.254L188.189 623.25ZM150.436 580.591C150.031 578.891 149.962 577.649 149.958 576.169L149.892 536.799L137.414 529.186C135.763 528.177 134.136 527.429 132.612 526.154C125.856 522.717 119.529 518.851 113.128 514.749C112.646 514.438 111.702 513.993 111.432 514.328C110.472 515.517 111.616 517.013 111.371 518.132C110.999 519.832 111.453 521.189 111.448 522.856L111.412 554.024C111.412 555.712 111.436 557.257 111.726 558.928L120.179 563.53L147.857 579.863C148.687 580.354 149.198 581.384 150.432 580.595L150.436 580.591Z" fill="#6DA9C6"/>
<path d="M715.672 315.767L715.774 223.35C718.999 221.086 722.473 219.566 725.922 217.563L740.869 208.879L746.555 205.941C748.406 204.985 750.033 203.583 751.95 202.819C753.074 202.369 755.534 200.58 757.104 199.713L776.579 188.982C778.614 187.862 780.372 186.563 782.33 185.341C784.99 183.678 787.643 182.333 790.872 180.67L790.929 273.43C789.744 274.57 788.325 274.799 787.054 275.518L771.646 284.215L750.347 296.384L738.053 303.323L724.386 311.296C722.89 312.171 721.598 312.91 719.951 313.507C718.57 314.006 717.503 315.787 715.672 315.771V315.767ZM738.732 261.281C738.903 264.305 741.36 266.749 743.469 267.848C747.629 270.01 753.025 268.081 756.339 265.171C762.184 260.047 766.868 254.203 768.49 246.349C769.855 239.745 769.484 230.947 761.105 229.537C751.5 230.072 744.262 238.217 740.73 246.574C740.42 247.313 739.557 247.979 739.488 248.502C739.382 249.275 738.907 250.362 738.846 251.191C738.679 253.378 738.319 255.229 737.984 257.342C737.816 258.404 738.646 259.822 738.732 261.281Z" fill="#6DA9C6"/>
<path d="M529.812 420.219L526.457 422.152L520.211 425.768C517.829 427.15 515.27 429.389 511.428 430.762L511.375 338.59C513.165 337.417 514.735 336.236 516.57 335.435C518.957 334.393 520.771 332.926 523.019 331.631L550.179 315.979L569.609 305.105L585.937 295.841L586.003 362.615L585.909 388.524L574.142 395.463L559.64 403.415C556.501 405.135 553.62 407.052 550.367 408.499C549.271 408.985 548.536 409.61 547.489 410.194L540.717 413.966L534.202 417.616C532.657 418.482 531.275 419.381 529.808 420.223L529.812 420.219ZM555.594 376.64C559.947 371.74 563.139 365.185 564.406 358.888C564.892 356.477 564.365 351.475 563.319 349.701C561.733 347.008 558.819 344.765 555.627 344.826C541.902 345.088 528.59 367.78 535.661 379.411C537.006 381.625 540.235 383.714 542.834 383.599C548.041 383.366 551.642 379.991 555.594 376.64Z" fill="#6DA9C6"/>
<path d="M306.649 454.754L311.774 451.693C313.577 450.619 315.42 449.695 317.264 448.628L322.937 445.351C327.163 442.911 331.524 440.639 335.521 438.285L339.657 435.846L345.837 432.282L359.921 424.211L381.232 411.809L381.187 504.291C378.751 506.2 376.213 507.278 373.626 508.75L352.556 520.723L336.383 529.926C331.364 532.782 326.325 535.234 321.424 538.238L315.592 541.818L306.633 546.963L306.649 454.762V454.754ZM345.645 497.27C346.205 496.151 347.431 496.073 348.085 495.391C349.703 493.699 351.081 491.913 352.973 490.54C353.59 488.856 354.796 487.7 355.671 486.188C358.851 480.712 362.006 469.899 357.739 464.055C355.581 461.1 351.641 460.222 348.118 461.199C343.438 462.494 339.784 465.559 336.51 469.163C332.28 473.818 330.097 479.764 328.904 485.934C328.565 487.683 327.972 489.244 329.08 490.953C330.249 496.98 332.268 497.928 337.111 499.686C339.951 500.715 342.919 497.941 345.641 497.27H345.645Z" fill="#6DA9C6"/>
<path d="M783.203 182.676C764.742 172.395 742.45 170.294 721.863 173.862C705.134 176.432 689.203 181.622 673.532 188.839L651.139 175.97C658.353 172.391 665.158 169.792 672.351 167.221C682.254 163.711 692.157 161.782 702.559 160.315L711.265 159.391C717.008 158.782 722.566 159.163 728.309 159.514C746.329 160.613 765.555 164.998 781.487 173.76L789.943 178.999C787.703 180.453 785.582 181.446 783.199 182.672L783.203 182.676Z" fill="#6DA9C6"/>
<path d="M380.622 410.37L373.932 413.95C362.377 407.318 349.981 403.725 336.832 403.313C327.595 402.688 318.849 403.582 309.657 405.152C293.496 407.939 278.288 413.178 263.48 420.309L241.609 407.273C249.154 403.632 256.225 400.669 263.803 398.017C273.497 394.784 283.258 392.737 293.337 391.311L302.561 390.551C308.999 390.019 315.281 390.297 321.751 390.542C324.489 390.644 327.109 391.102 329.864 391.425C341.3 392.769 351.538 395.479 362.14 400.044C367.813 402.487 373.065 405.033 378.072 408.613C378.959 409.246 380.258 409.189 380.622 410.37Z" fill="#6DA9C6"/>
<path d="M546.05 287.794C520.039 285.596 492.124 293.213 468.532 304.329L451.992 294.819C450.128 293.749 448.379 292.796 446.842 291.194L457.366 286.744C469.75 281.509 480.941 277.848 494.4 276.238C496.448 275.993 498.426 275.514 500.433 275.367L510.115 274.656C526.337 273.467 544.848 276.103 560.191 281.705C568.999 284.918 577.329 288.444 585.205 294.198C577.104 299.49 578.51 297.602 575.06 295.882C565.946 291.342 556.288 288.653 546.054 287.79L546.05 287.794Z" fill="#6DA9C6"/>
<path d="M632.911 165.403C632.094 164.929 631.211 164.626 630.855 163.56L641.58 157.798C643.321 156.862 644.907 156.028 646.64 155.064C648.017 154.3 649.097 152.996 650.797 152.726C652.677 151.165 654.7 149.964 657.046 149.146C661.436 146.167 665.899 143.699 671.159 141.153L671.282 166.195C668.392 166.751 654.062 172.775 652.489 173.678L649.844 175.194L632.907 165.394L632.911 165.403Z" fill="#6DA9C6"/>
<path d="M433.795 284.174C432.005 282.78 426.851 280.369 426.553 279.834C426.365 279.495 426.679 278.886 427.219 278.698L449.38 266.193L466.435 256.851L466.566 281.399C459.042 284.112 452.081 287.284 445.068 290.675L433.791 284.17L433.795 284.174Z" fill="#6DA9C6"/>
<path d="M221.119 395.499L238.727 385.557C240.84 384.363 242.609 382.835 244.992 382.099C246.697 380.649 248.683 379.795 250.624 378.699C254.237 376.656 257.597 374.543 261.582 372.803L261.594 397.011C259.8 398.164 257.908 398.609 255.991 399.39C250.53 401.441 245.393 403.701 240.231 406.664L221.119 395.503V395.499Z" fill="#6DA9C6"/>
<path d="M455.85 442.785C452.822 445.948 449.854 448.436 445.865 449.846C440.295 451.816 434.303 448.457 433.248 442.519C430.142 425.037 449.2 405.021 459.337 408.727C465.488 410.975 466.109 419.978 464.883 425.539C463.469 431.968 460.489 437.938 455.846 442.785H455.85Z" fill="#040606"/>
<path d="M432.603 465.493C432.366 465.228 432.141 463.855 432.68 463.54L441.627 458.313L451.171 453.079C465.19 445.392 475.13 427.072 468.185 411.077C471.333 413.451 471.745 417.481 471.929 421.048C472.207 426.426 471.034 431.281 468.88 436.107C465.047 444.705 458.041 450.304 450.141 455.277L447.345 457.038L432.603 465.489V465.493Z" fill="#040606"/>
<path d="M674.457 313.928L674.604 286.033C670.023 288.546 665.797 290.553 661.57 293.463C665.735 294.492 668.151 296.323 669.07 299.964C672.369 313.029 664.1 326.784 653.457 333.764C648.688 336.89 641.76 336.604 638.764 330.634C636.884 326.89 637.252 322.894 637.759 318.611C640.178 310.834 643.71 302.245 651.05 297.995L676.452 283.291L676.354 321.795L676.203 327.986C674.425 328.921 672.904 329.747 671.167 330.764L637.354 350.527C636.602 349.603 637.211 348.431 638.131 347.985C642.132 346.04 645.733 343.739 649.607 341.553C659.261 336.097 667.779 332.219 672.377 321.259C673.378 318.869 674.445 316.633 674.457 313.932V313.928Z" fill="#040606"/>
<path d="M842.256 235.507L842.489 206.673C842.497 205.647 842.096 204.609 842.194 203.747C842.832 198.169 841.765 195.819 842.284 190.073L851.591 184.401C852.911 183.596 854.113 182.869 855.412 182.1L860.284 179.223C862.303 178.03 864.224 176.943 866.358 175.885C871.716 173.22 875.427 170.225 881.517 167.458L881.672 211.54C881.677 213.097 880.888 213.922 879.531 214.314C877.614 214.87 876.204 216.145 874.614 217.057L868.884 220.346L864.997 222.631L859.565 225.794L854.771 228.617L847.169 233.019C845.615 233.918 844.348 235.152 842.26 235.507H842.256ZM849.658 223.076C847.303 222.532 845.767 221.662 844.062 220.444L844.021 231.936C845.26 232.377 845.877 231.588 846.801 231.053L871.855 216.566L880.058 211.756L879.919 170.139L867.613 177.147C872.162 179.726 870.04 176.4 874.544 181.459L874.397 201.875C873.02 207.694 869.162 211.895 864.085 214.805L849.649 223.076H849.658ZM849.384 188.263L843.629 190.841C843.887 193.816 844.038 196.563 844.066 199.337C844.136 205.385 843.772 211.286 844.291 217.629C844.43 219.316 847.9 221.85 849.527 221.229C854.763 218.728 859.168 215.794 864.204 212.884C868.463 210.424 872.374 206.015 872.779 200.862C873.249 194.907 873.478 188.974 872.946 183.003C872.701 180.22 868.508 178.851 866.313 178.095C860.313 181.336 854.848 184.352 849.38 188.263H849.384Z" fill="#040606"/>
<path d="M837.981 97.5906C835.386 100.386 819.25 108.575 818.138 109.638C817.026 110.7 815.432 110.856 814.239 111.877C812.539 113.332 810.38 113.875 808.525 115.199C807.233 116.123 805.59 117.12 804.041 117.549C802.406 118.007 800.829 116.209 799.566 115.502L793.513 112.122L783.544 106.205L774.119 100.459C772.505 99.4745 770.808 98.8452 769.223 97.5457L787.999 86.8389L803.612 77.6279C804.736 78.6168 806.097 78.956 807.286 79.667L812.167 82.5971C814.182 83.8067 816.147 84.8365 818.252 85.9481C819.691 86.7082 820.868 88.0976 822.622 88.449C823.782 88.682 824.395 89.7976 825.303 90.2185C827.032 91.0195 828.462 91.943 830.007 92.9483C832.639 94.6646 835.578 95.3308 837.985 97.5947L837.981 97.5906ZM829.517 101.146L835.157 97.75L828.74 94.0231L804.172 79.8223C804.103 82.0332 803.494 84.3502 804.27 86.0257C805.603 88.024 808.443 88.7392 810.393 90.0836C812.35 91.4322 814.353 92.3108 816.368 93.4836L829.517 101.138V101.146ZM827.845 101.898L819.352 96.9245L803.898 88.0077L779.575 102.012L793.055 109.854L803.51 115.931L827.845 101.894V101.898Z" fill="#040606"/>
<path d="M402.406 344.405L394.105 349.231C390.888 347.205 387.422 345.774 384.349 343.486C382.98 342.464 381.59 341.712 380.115 340.895L374.021 337.511L360.259 329.077C359.18 329.498 359.237 328.071 360.271 328.406L393.537 308.983C394.706 308.301 395.135 309.106 395.957 309.584L428.678 328.668C427.796 329.355 427.097 330.221 426.291 330.572C422.723 332.146 419.748 334.275 416.437 336.208L412.06 338.766L405.852 342.378L402.402 344.405H402.406ZM368.63 332.195L393.831 317.446L393.77 311.018C388.922 313.343 384.655 316.016 380.106 318.701L362.814 328.913C364.886 329.853 366.312 331.475 368.63 332.199V332.195ZM394.023 347.102L418.084 333.028L394.011 319.016L370.109 333.098C371.626 334.291 373.171 334.822 374.711 335.73L394.023 347.106V347.102Z" fill="#040606"/>
<path d="M579.9 222.226L572.514 217.874L567.957 215.173C566.715 214.437 565.685 213.885 564.471 212.851C567.495 210.641 570.524 209.709 572.539 208.087C573.818 207.057 575.359 206.599 576.794 205.831C579.875 204.176 582.573 201.969 585.732 200.49C588.058 199.403 596.187 194.613 598.578 192.807L633.168 213.019C629.118 215.512 625.77 217.825 622.026 219.933L616.554 223.019L610.5 226.472C609.364 227.122 601.537 231.645 601.116 232.07C600.601 232.594 599.134 233.574 598.468 233.178L587.261 226.484L579.892 222.238L579.9 222.226ZM573.422 216.615L593.056 204.96L598.12 202.161C598.317 199.721 598.349 197.621 598.026 195.071C594.352 197.658 590.674 199.611 586.795 201.814L567.27 212.917L573.418 216.615H573.422ZM616.893 220.632C618.936 219.607 620.792 218.707 622.852 217.179L600.585 204.589C599.187 203.612 597.826 203.497 596.526 204.633L574.926 217.183L598.774 231.294L616.897 220.632H616.893Z" fill="#040606"/>
<path d="M189.261 464.946C184.332 463.287 180.629 459.646 176.713 457.925C176.435 457.803 173.517 456.009 172.651 455.502L167.027 452.196C165.424 451.252 163.92 450.422 162.367 449.474L154.777 444.856L167.832 436.949C169.414 435.989 171.016 435.294 172.634 434.346C178.27 431.048 183.616 427.525 189.453 424.591C191.039 425.298 192.396 426.201 193.883 427.064L210.391 436.651L224.141 444.713C219.992 447.864 218.999 447.75 215.398 450.104C214.389 450.766 213.465 451.448 212.406 452.041L207.163 454.987L199.605 459.2L195.682 461.521C193.761 462.657 191.55 463.969 189.261 464.942V464.946ZM163.009 447.946C164.239 448.669 165.396 447.468 166.34 446.904L188.803 433.48L188.738 426.818C187.078 427.411 185.885 428.478 184.381 429.348L174.032 435.331L157.892 444.938L163.013 447.946H163.009ZM213.261 449.27L190.953 436.45C190.234 435.744 189.522 435.196 188.464 435.339L165.257 449.106L189.338 463.238L213.261 449.27Z" fill="#040606"/>
<path d="M236.713 576.897C236.451 577.072 228.199 582.467 228.023 581.58L228.166 536.755C229.515 535.042 231.498 534.503 233.292 533.449L237.923 530.731C239.521 529.795 240.976 528.925 242.566 528.001L254.66 520.96C257.136 519.518 259.719 518.459 262.041 516.865C263.635 515.77 265.286 515.088 267.129 514.307L267.183 559.378C265.793 560.816 263.937 561.074 262.405 562.005L257.079 565.238L251.3 568.487C249.219 569.655 247.221 570.926 245.128 572.136C242.329 573.754 239.467 575.045 236.717 576.897H236.713ZM234.681 569.659C232.826 569.541 231.735 568.172 229.977 567.183C229.286 570.988 229.74 574.951 229.687 578.924C232.826 577.526 234.91 575.908 237.555 574.392L265.65 558.299L265.499 516.743L254.075 523.326L258.33 525.557C259.63 526.24 260.071 528.553 260.071 530.143C260.071 535.786 260.623 541.201 260.038 546.906C259.454 552.61 255.841 557.739 251.063 560.432L234.681 569.663V569.659ZM231.105 541.094C231.305 538.765 234.077 536.8 233.562 536.093C233.386 535.856 233.018 535.741 232.605 535.966L229.65 537.56L230.002 542.398C230.602 542.165 230.553 541.654 231.105 541.09L229.932 545.267C228.22 551.356 229.683 558.213 229.985 564.747C230.729 566.443 232.887 567.416 234.477 568.209L249.109 559.778C253.826 557.061 258.007 552.153 258.53 546.497C259.045 540.907 258.833 535.774 258.53 530.065C258.407 527.768 254.239 524.389 251.974 525.104C247.63 526.481 244.315 529.432 240.338 531.397C236.361 533.363 233.41 536.82 231.105 541.086V541.094Z" fill="#040606"/>
<path d="M150.437 580.591C149.199 581.38 148.688 580.35 147.862 579.859L120.184 563.525L111.732 558.924C111.446 557.253 111.417 555.708 111.417 554.02L111.454 522.852C111.454 521.185 111.004 519.828 111.376 518.128C111.621 517.008 110.477 515.513 111.437 514.324C111.707 513.988 112.651 514.434 113.134 514.744C119.534 518.851 125.865 522.713 132.617 526.15C134.138 527.425 135.768 528.173 137.42 529.182L149.898 536.795L149.963 576.165C149.963 577.649 150.037 578.887 150.441 580.587L150.437 580.591ZM140.886 566.619L127.684 558.818C123.209 556.174 119.493 551.045 119.469 545.659L119.399 531.324C119.379 526.775 122.563 525.893 125.931 524.989C121.745 521.9 117.593 519.223 113.089 516.865L113.158 557.731C116.138 559.12 118.484 560.673 121.157 562.246L141.65 574.31C143.812 575.585 145.77 576.557 148.14 578.151C148.418 574.016 148.369 570.33 148.14 566.239C145.762 568.07 143.366 568.082 140.89 566.619H140.886Z" fill="#040606"/>
<path d="M738.731 261.281C738.649 259.826 737.816 258.404 737.983 257.342C738.318 255.225 738.678 253.374 738.846 251.191C738.907 250.362 739.385 249.271 739.487 248.502C739.561 247.979 740.419 247.313 740.73 246.574C744.261 238.217 751.499 230.072 761.104 229.537C769.483 230.943 769.851 239.745 768.49 246.349C766.867 254.203 762.183 260.043 756.339 265.171C753.024 268.081 747.625 270.01 743.468 267.848C741.359 266.753 738.903 264.309 738.731 261.281ZM762.968 240.603C763.324 236.627 760.859 230.628 756.686 232.03C744.044 236.28 735.968 256.255 741.739 263.618C744.478 267.112 761.329 258.964 762.968 240.603ZM749.276 264.342C748.536 264.783 748.295 265.323 748.593 266.046C748.736 266.393 749.546 266.316 750.036 266.25C753.253 265.813 755.484 263.954 757.859 261.784C764.141 256.054 767.803 247.603 767.619 239.075C767.537 235.438 765.089 232.397 761.697 231.899C760.855 232.855 762.547 233.157 762.751 233.599C765.355 239.226 764.464 245.54 761.644 250.922C759.22 255.548 756.686 259.9 752.137 262.63L749.276 264.346V264.342Z" fill="#040606"/>
<path d="M555.594 376.64C551.642 379.991 548.041 383.366 542.834 383.599C540.238 383.714 537.01 381.625 535.661 379.411C528.59 367.78 541.906 345.088 555.627 344.826C558.819 344.765 561.733 347.008 563.319 349.701C564.361 351.475 564.892 356.477 564.406 358.888C563.139 365.185 559.947 371.74 555.594 376.64ZM549.717 373.914C554.752 368.961 557.748 362.353 558.304 355.251C558.524 352.403 557.36 348.643 554.736 347.274C548.576 344.062 530.503 363.048 536.437 377.612C538.383 382.394 547.272 376.317 549.717 373.91V373.914ZM544.771 381.638C547.836 380.906 550.117 379.48 552.185 377.494C558.23 372.108 562.133 364.687 562.922 356.583C563.568 349.934 557.834 346.024 557.282 347.343C557.212 347.507 557.123 348.022 557.298 348.255C563.155 356.138 557.38 366.824 552.099 373.465C550.187 375.868 547.677 377.453 545.123 379.075C544.313 379.656 543.574 380.841 544.775 381.638H544.771Z" fill="#040606"/>
<path d="M345.644 497.27C342.922 497.941 339.954 500.715 337.114 499.686C332.27 497.932 330.251 496.984 329.082 490.953C327.975 489.244 328.567 487.683 328.907 485.934C330.104 479.764 332.287 473.822 336.513 469.163C339.787 465.559 343.441 462.494 348.121 461.199C351.644 460.222 355.58 461.1 357.742 464.055C362.013 469.899 358.853 480.712 355.674 486.188C354.799 487.696 353.593 488.856 352.976 490.54C351.084 491.913 349.706 493.699 348.088 495.391C347.434 496.073 346.208 496.151 345.648 497.27H345.644ZM356.082 482.06C358.298 477.5 359.614 469.96 356.475 465.424C355.244 463.646 353.303 462.617 351.321 462.841L353.446 464.75C354.967 466.115 355.657 473.458 354.194 477.945C351.832 485.199 346.939 491.161 340.809 495.407C340.522 495.607 340.69 496.253 340.555 496.396C339.836 497.156 348.333 498.022 356.082 482.06ZM346.314 488.725C351.043 483.47 353.916 476.83 353.569 469.682C353.442 467.087 352.396 464.333 349.997 463.299C348.452 462.633 346.506 463.364 345.059 464.165C338.471 467.811 334.008 474.014 331.715 481.153C330.435 485.133 330.072 489.208 331.559 493.069C333.828 498.97 343.379 491.982 346.314 488.721V488.725Z" fill="#040606"/>
<path d="M849.657 223.076L864.093 214.805C869.169 211.895 873.028 207.694 874.405 201.875L874.552 181.459C870.048 176.399 872.169 179.726 867.62 177.147L879.927 170.139L880.066 211.756L871.863 216.566L846.809 231.053C845.885 231.588 845.264 232.377 844.029 231.936L844.07 220.444C845.774 221.662 847.311 222.532 849.666 223.076H849.657Z" fill="#6DA9C6"/>
<path d="M844.07 199.337C844.037 196.563 843.89 193.816 843.633 190.841L849.387 188.263C846.862 192.811 845.443 194.29 844.074 199.337H844.07Z" fill="#6DA9C6"/>
<path d="M829.516 101.146L816.368 93.4918C814.353 92.319 812.35 91.4404 810.392 90.0918C808.443 88.7473 805.602 88.0322 804.27 86.0339C803.493 84.3584 804.102 82.0413 804.172 79.8305L828.739 94.0312L835.156 97.7581L829.516 101.154V101.146Z" fill="#6DA9C6"/>
<path d="M368.63 332.195C366.313 331.471 364.891 329.853 362.814 328.909L380.107 318.697C384.652 316.012 388.919 313.339 393.771 311.014L393.832 317.442L368.63 332.191V332.195Z" fill="#6DA9C6"/>
<path d="M573.423 216.615L567.275 212.917L586.8 201.814C590.674 199.611 594.353 197.658 598.031 195.071C598.358 197.621 598.326 199.721 598.125 202.161L593.061 204.96L573.427 216.615H573.423Z" fill="#6DA9C6"/>
<path d="M163.008 447.946L157.887 444.938L174.027 435.331L184.376 429.348C185.88 428.478 187.069 427.411 188.733 426.818L188.798 433.48L166.335 446.904C165.391 447.468 164.234 448.669 163.004 447.946H163.008Z" fill="#6DA9C6"/>
<path d="M234.681 569.659L251.062 560.428C255.84 557.735 259.474 552.48 260.038 546.901C260.602 541.323 260.074 535.782 260.07 530.138C260.07 528.553 259.629 526.236 258.329 525.553L254.075 523.322L265.498 516.739L265.649 558.295L237.554 574.388C234.91 575.904 232.829 577.522 229.686 578.919C229.744 574.947 229.29 570.983 229.977 567.179C231.73 568.168 232.825 569.537 234.681 569.655V569.659Z" fill="#6DA9C6"/>
<path d="M231.105 541.094C230.554 541.658 230.603 542.169 230.002 542.402L229.65 537.564L232.605 535.97C233.018 535.745 233.39 535.86 233.562 536.097C234.077 536.804 231.31 538.769 231.105 541.099V541.094Z" fill="#6DA9C6"/>
<path d="M140.885 566.619C143.362 568.082 145.757 568.07 148.136 566.239C148.36 570.33 148.413 574.02 148.136 578.151C145.765 576.557 143.807 575.581 141.645 574.31L121.152 562.246C118.479 560.673 116.133 559.12 113.153 557.731L113.084 516.865C117.588 519.227 121.741 521.9 125.926 524.989C122.558 525.893 119.374 526.775 119.395 531.324L119.464 545.659C119.489 551.045 123.204 556.174 127.679 558.818L140.881 566.619H140.885Z" fill="#6DA9C6"/>
<path d="M749.277 264.342L752.138 262.625C756.687 259.896 759.221 255.544 761.645 250.918C764.465 245.54 765.356 239.222 762.753 233.595C762.548 233.153 760.856 232.847 761.698 231.895C765.091 232.397 767.543 235.434 767.621 239.071C767.809 247.599 764.142 256.05 757.86 261.78C755.486 263.945 753.254 265.805 750.038 266.246C749.547 266.312 748.738 266.393 748.595 266.042C748.301 265.319 748.542 264.779 749.277 264.338V264.342Z" fill="#6DA9C6"/>
<path d="M544.77 381.638C543.569 380.841 544.308 379.656 545.118 379.076C547.676 377.457 550.182 375.872 552.094 373.465C557.375 366.824 563.146 356.138 557.293 348.255C557.122 348.022 557.212 347.507 557.277 347.344C557.825 346.02 563.563 349.934 562.917 356.583C562.128 364.687 558.225 372.108 552.18 377.494C550.112 379.48 547.832 380.906 544.766 381.638H544.77Z" fill="#6DA9C6"/>
<path d="M356.082 482.06C348.332 498.022 339.835 497.156 340.554 496.396C340.689 496.253 340.522 495.607 340.808 495.407C346.939 491.157 351.827 485.199 354.193 477.945C355.657 473.458 354.962 466.115 353.445 464.75L351.32 462.841C353.302 462.617 355.244 463.646 356.474 465.424C359.617 469.96 358.297 477.504 356.082 482.06Z" fill="#6DA9C6"/>
</svg>
