<svg width="278" height="100" viewBox="0 0 278 100" fill="none" xmlns="http://www.w3.org/2000/svg">
<path d="M72.1539 28.0238L83.6381 57.2799H78.7424L76.0887 50.4793L76.0429 50.388H63.4149L60.8527 57.2799H55.957L66.9379 28.0238H72.1539ZM74.3043 45.8239L69.7747 34.3223L69.5917 33.8659L65.1993 45.5957L65.1078 45.8695H74.3043V45.8239Z" fill="#000033"/>
<path d="M124.909 57.006V35.3264H120.288V50.7075L120.242 50.8444C120.196 50.9357 118.869 53.3091 115.987 53.3091C112.647 53.3091 111.183 50.8901 111.183 48.5167V35.2808H106.607V50.1598C106.607 54.2219 109.902 57.5081 113.974 57.5081C117.177 57.5081 119.281 55.9106 120.288 54.4044V56.9604H124.909V57.006Z" fill="#000033"/>
<path d="M95.6257 34.9155C99.835 34.9155 102.397 36.6955 103.907 38.7494L100.796 41.6248C99.6063 39.9361 97.9134 39.0689 95.8087 39.0689C91.8739 39.0689 89.2659 42.0356 89.2659 46.2346C89.2659 50.4336 91.8739 53.4459 95.8087 53.4459C97.9134 53.4459 99.5605 52.5331 100.796 50.89L103.907 53.7654C102.397 55.8192 99.835 57.5992 95.6257 57.5992C89.0371 57.5992 84.416 52.8069 84.416 46.2346C84.416 39.6622 89.0371 34.9155 95.6257 34.9155Z" fill="#000033"/>
<path d="M211.519 35.3719H207.035V56.9603H211.519V35.3719Z" fill="#000033"/>
<path d="M206.578 29.2104V28.5258C206.578 27.1566 207.402 26.1525 209.278 26.1525C211.154 26.1525 211.931 27.1566 211.931 28.5258V29.2104C211.931 30.5797 211.154 31.5838 209.278 31.5838C207.402 31.5838 206.578 30.5797 206.578 29.2104Z" fill="#000033"/>
<path d="M198.252 29.9407H193.768V35.372H190.84V39.3428H193.677L193.768 52.9895C193.768 55.1803 195.552 57.0059 197.794 57.0059H201.958V52.7157H198.252V39.3428H202.644V35.372H198.252V29.9407Z" fill="#000033"/>
<path d="M182.191 35.4177V38.0192C181.001 36.4218 178.439 34.8243 175.236 34.8243C169.151 34.8243 164.713 39.6167 164.713 46.189C164.713 51.8942 168.327 57.6906 175.191 57.6906C180.04 57.6906 182.191 54.4501 182.191 54.4501V57.006H186.72V35.372L182.191 35.4177ZM175.923 53.6742C172.171 53.6742 169.426 50.5706 169.426 46.2803C169.426 41.99 172.171 38.8408 175.923 38.8408C179.217 38.8408 182.557 41.1685 182.557 46.3259C182.511 49.8403 180.452 53.6742 175.923 53.6742Z" fill="#000033"/>
<path d="M254.3 35.4177V38.0192C253.065 36.4218 250.548 34.8243 247.346 34.8243C241.26 34.8243 236.822 39.6167 236.822 46.189C236.822 51.8942 240.437 57.6906 247.3 57.6906C252.15 57.6906 254.3 54.4501 254.3 54.4501V57.006H258.83V35.372L254.3 35.4177ZM248.032 53.6742C244.28 53.6742 241.535 50.5706 241.535 46.2803C241.535 41.99 244.28 38.8408 248.032 38.8408C251.326 38.8408 254.666 41.1685 254.666 46.3259C254.62 49.8403 252.562 53.6742 248.032 53.6742Z" fill="#000033"/>
<path d="M226.436 34.9155C230.646 34.9155 233.208 36.6955 234.718 38.7494L231.606 41.6248C230.417 39.9361 228.724 39.0689 226.619 39.0689C222.684 39.0689 220.076 42.0356 220.076 46.2346C220.076 50.4336 222.684 53.4459 226.619 53.4459C228.724 53.4459 230.371 52.5331 231.606 50.89L234.718 53.7654C233.208 55.8192 230.646 57.5992 226.436 57.5992C219.848 57.5992 215.227 52.8069 215.227 46.2346C215.227 39.6622 219.848 34.9155 226.436 34.9155Z" fill="#000033"/>
<path d="M154.099 34.733C150.759 34.733 148.105 36.8782 147.007 38.8407C145.817 36.4218 143.301 34.733 140.373 34.733C137.17 34.733 135.065 36.3305 134.059 37.8366V35.2807H129.438V56.9603H134.059V41.5792L134.104 41.4423C134.15 41.351 135.477 38.9777 138.359 38.9777C141.7 38.9777 143.164 41.3967 143.164 43.77V57.006H147.739V42.0813C147.739 41.99 147.739 41.8987 147.739 41.8074L147.785 41.5792L147.831 41.4423C147.876 41.351 149.203 38.9777 152.086 38.9777C155.426 38.9777 156.89 41.3967 156.89 43.77V57.006H161.465V42.0813C161.465 38.0648 158.171 34.733 154.099 34.733Z" fill="#000033"/>
<path d="M148.974 80.6938V70.9266H145.451V69.4204H154.144V70.9266H150.667V80.6938H148.974Z" fill="#94949B"/>
<path d="M168.786 72.3414C171.257 72.3414 172.766 74.2584 172.766 76.7686V77.1338H166.315C166.452 78.503 167.459 79.6897 169.106 79.6897C169.975 79.6897 170.936 79.3702 171.531 78.7312L172.217 79.7353C171.394 80.5112 170.25 80.9676 168.923 80.9676C166.498 80.9676 164.668 79.2333 164.668 76.6774C164.714 74.2584 166.407 72.3414 168.786 72.3414ZM166.315 76.0384H171.302C171.257 74.943 170.524 73.6194 168.832 73.6194C167.139 73.6194 166.361 74.8973 166.315 76.0384Z" fill="#94949B"/>
<path d="M179.035 75.0799C179.035 71.6111 181.597 69.2378 184.846 69.2378C187.088 69.2378 188.46 70.2875 189.33 71.6111L187.911 72.387C187.317 71.4286 186.219 70.744 184.846 70.744C182.558 70.744 180.774 72.524 180.774 75.0799C180.774 77.6358 182.558 79.4158 184.846 79.4158C186.173 79.4158 187.317 78.7312 187.911 77.7727L189.33 78.5486C188.415 79.8722 187.042 80.922 184.846 80.922C181.597 80.922 179.035 78.5486 179.035 75.0799Z" fill="#94949B"/>
<path d="M191.205 80.6938V69.4204H192.715V80.6938H191.205Z" fill="#94949B"/>
<path d="M194.729 76.6317C194.729 74.304 196.33 72.3414 198.846 72.3414C201.363 72.3414 202.964 74.2584 202.964 76.6317C202.964 79.0051 201.409 80.922 198.846 80.922C196.284 80.922 194.729 79.0051 194.729 76.6317ZM201.363 76.6317C201.363 75.0799 200.448 73.7107 198.846 73.7107C197.245 73.7107 196.33 75.0799 196.33 76.6317C196.33 78.1835 197.245 79.5528 198.846 79.5528C200.448 79.5528 201.363 78.1835 201.363 76.6317Z" fill="#94949B"/>
<path d="M210.239 80.6937V79.5983C210.239 79.5983 209.37 80.9219 207.54 80.9219C205.984 80.9219 204.703 79.644 204.703 78.0922V72.5696H206.213V77.8183C206.213 79.1876 207.174 79.5983 208.226 79.5983C209.187 79.5983 209.782 79.0506 210.239 78.4573V72.5696H211.749V80.7394L210.239 80.6937Z" fill="#94949B"/>
<path d="M227.625 80.6938V69.4204H235.632V71.4743H230.05V73.9389H235.54V75.9927H230.05V78.5943H235.632V80.6938H227.625Z" fill="#94949B"/>
<path d="M244.646 80.6938L242.45 76.6317H240.665V80.6938H238.24V69.4204H243.502C245.881 69.4204 247.299 70.9722 247.299 73.0717C247.299 75.1712 246.064 76.1297 244.829 76.4035L247.345 80.6938H244.646ZM243.182 71.5199H240.665V74.6235H243.182C244.142 74.6235 244.875 74.0302 244.875 73.0717C244.875 72.1132 244.142 71.5199 243.182 71.5199Z" fill="#94949B"/>
<path d="M249.77 80.6938V69.4204H255.031C257.502 69.4204 258.829 71.0635 258.829 73.0717C258.829 75.0799 257.456 76.6774 255.031 76.6774H252.149V80.7394L249.77 80.6938ZM254.757 71.5199H252.194V74.6235H254.757C255.718 74.6235 256.404 74.0302 256.404 73.0717C256.404 72.1132 255.718 71.5199 254.757 71.5199Z" fill="#94949B"/>
<path d="M157.575 69.4204V73.665C157.575 73.665 158.444 72.3414 160.275 72.3414C161.83 72.3414 163.111 73.6194 163.111 75.1712V80.6938H161.601V75.4451C161.601 74.0758 160.641 73.665 159.588 73.665C158.627 73.665 158.033 74.2127 157.575 74.8061V80.6938H156.02V69.4204H157.575Z" fill="#94949B"/>
<path d="M219.846 69.4204V73.7107C219.206 72.8435 218.245 72.3414 217.147 72.3414C214.996 72.3414 213.486 74.0302 213.486 76.6317C213.486 79.2333 214.996 80.922 217.147 80.922C218.245 80.922 219.206 80.3743 219.846 79.5528V80.7394H221.356V69.466L219.846 69.4204ZM217.558 79.4615C216.049 79.4615 215.179 78.1835 215.179 76.6317C215.179 75.0799 216.14 73.802 217.558 73.802C218.977 73.802 219.938 75.0799 219.938 76.6317C219.938 78.1835 219.023 79.4615 217.558 79.4615Z" fill="#94949B"/>
<path d="M45.2504 44.4089V57.2797H32.3479C28.7791 57.2797 25.5763 55.8192 23.2429 53.4915C20.9094 51.1638 19.4453 47.9233 19.4453 44.4089C19.4453 43.9069 19.4911 43.4048 19.5368 42.9027C21.916 45.8694 25.5306 47.7407 29.6027 47.7407H35.6879V41.6248C35.6879 37.5627 33.812 33.9571 30.838 31.5837C31.2955 31.5381 31.7988 31.4924 32.3021 31.4924C39.4397 31.5381 45.2504 37.2889 45.2504 44.4089Z" fill="url(#paint0_linear_3215_3382)"/>
<path d="M23.1963 53.4916C25.5297 55.8193 28.7782 57.2798 32.3013 57.2798H27.2683C22.3269 57.2798 17.7973 55.2716 14.5488 52.031C11.3003 48.7905 9.28711 44.3177 9.28711 39.3428C9.28711 29.4386 17.3398 21.4058 27.2683 21.4058C30.1966 21.4058 32.9876 22.136 35.4583 23.3683C33.7196 22.5012 31.6607 21.9991 29.6018 21.9991C26.033 21.9991 22.8302 23.4596 20.4968 25.7873C18.1633 28.115 16.6992 31.3556 16.6992 34.8699C16.6992 36.3761 16.9737 37.8366 17.4313 39.2059C17.9346 40.5751 18.6209 41.8074 19.4902 42.9028C19.4444 43.4048 19.3987 43.9069 19.3987 44.409C19.4445 47.969 20.8628 51.1639 23.1963 53.4916Z" fill="url(#paint1_linear_3215_3382)"/>
<path d="M45.2488 39.3428V44.409C45.2488 37.289 39.4838 31.5382 32.3462 31.5382C25.7119 31.5382 20.2672 36.5131 19.5351 42.9028C18.6658 41.8075 17.9337 40.5751 17.4762 39.2059C16.9729 37.8367 16.7441 36.4218 16.7441 34.87C16.7441 31.31 18.2083 28.1151 20.5417 25.7874C22.8751 23.4597 26.1237 21.9991 29.6467 21.9991C31.7056 21.9991 33.7188 22.5012 35.5032 23.3684H35.5489C41.2682 26.3351 45.2488 32.4054 45.2488 39.3428Z" fill="url(#paint2_linear_3215_3382)"/>
<defs>
<linearGradient id="paint0_linear_3215_3382" x1="22.9837" y1="53.5098" x2="42.1529" y2="41.9164" gradientUnits="userSpaceOnUse">
<stop stop-color="#00649C"/>
<stop offset="0.11" stop-color="#0875AC"/>
<stop offset="0.37" stop-color="#1A9ACF"/>
<stop offset="0.62" stop-color="#28B5E9"/>
<stop offset="0.83" stop-color="#30C6F9"/>
<stop offset="1" stop-color="#33CCFF"/>
</linearGradient>
<linearGradient id="paint1_linear_3215_3382" x1="27.3666" y1="19.7523" x2="18.6973" y2="56.2529" gradientUnits="userSpaceOnUse">
<stop stop-color="#00649C"/>
<stop offset="0.11" stop-color="#0875AC"/>
<stop offset="0.37" stop-color="#1A9ACF"/>
<stop offset="0.62" stop-color="#28B5E9"/>
<stop offset="0.83" stop-color="#30C6F9"/>
<stop offset="1" stop-color="#33CCFF"/>
</linearGradient>
<linearGradient id="paint2_linear_3215_3382" x1="44.8546" y1="39.1252" x2="18.1062" y2="29.764" gradientUnits="userSpaceOnUse">
<stop stop-color="#00649C"/>
<stop offset="0.11" stop-color="#0875AC"/>
<stop offset="0.37" stop-color="#1A9ACF"/>
<stop offset="0.62" stop-color="#28B5E9"/>
<stop offset="0.83" stop-color="#30C6F9"/>
<stop offset="1" stop-color="#33CCFF"/>
</linearGradient>
</defs>
</svg>
