<svg xmlns="http://www.w3.org/2000/svg" width="342" height="48" fill="none" viewBox="0 0 342 48"><g clip-path="url(#a)"><path fill="#582c83" d="M71.9 47.4h-5.4v-2.9c-1.7 2.2-4.2 3.6-7.7 3.6-6.9 0-12.3-5.4-12.3-12.9s5.4-12.9 12.3-12.9c3.5 0 6 1.4 7.7 3.6v-3h5.4zM52.1 35.1c0 4.3 2.8 7.9 7.4 7.9 4.4 0 7.4-3.4 7.4-7.9s-3-7.9-7.4-7.9c-4.6 0-7.4 3.6-7.4 7.9M94 27.7h-9.4v10.7c0 3.3 1.7 4.6 3.9 4.6 1.7 0 3.5-.7 4.9-1.7l2.1 4.3C93.5 46.9 91 48 88 48c-5.6 0-8.8-3-8.8-9.5V27.7h-4.9v-4.9h4.9v-7.4h5.4v7.4H94zm9.101-2c2-2.8 5-3.6 7.5-3.6 5.8 0 10 4 10 9.8v15.4h-5.4V33.7c0-4.1-2.1-6.4-5.7-6.4-3.5 0-6.4 2.3-6.4 6.5v13.6h-5.4v-37h5.4zM148 35c0 .7-.1 1.4-.1 2h-18.2c.7 4.4 3.8 6.3 7.3 6.3 2.5 0 5.1-1 7.1-2.6l2.7 3.8c-3 2.6-6.4 3.5-10.1 3.5-7.4 0-12.6-5.1-12.6-12.9 0-7.7 5-12.9 12.2-12.9 7-.1 11.7 5.2 11.7 12.8m-18.2-2h12.7c-.6-3.8-2.8-6.1-6.2-6.1-3.8 0-6 2.5-6.5 6.1m44.901-1.1v15.4h-5.4V33.7c0-4.1-2.1-6.4-5.7-6.4-3.5 0-6.4 2.3-6.4 6.5v13.6h-5.4V22.8h5.3v3c2-2.9 5-3.6 7.5-3.6 5.9-.1 10.1 4 10.1 9.7M203.5 47.4h-5.4v-2.9c-1.7 2.2-4.2 3.6-7.7 3.6-6.9 0-12.3-5.4-12.3-12.9s5.4-12.9 12.3-12.9c3.5 0 6 1.4 7.7 3.6v-3h5.4zm-19.8-12.3c0 4.3 2.8 7.9 7.4 7.9 4.4 0 7.4-3.4 7.4-7.9s-3-7.9-7.4-7.9c-4.6 0-7.4 3.6-7.4 7.9m28.301-7.7c1.9-3.2 5.3-4.6 8.6-4.6 6.1 0 10.2 3.7 10.2 9.7v14.8h-2.9V33.5c0-4.9-2.8-7.8-7.7-7.8-4.5 0-8.1 3.3-8.1 8v13.7h-2.9v-37h2.9v17zm46.099 7.8c0 .4 0 .8-.1 1.2h-20.2c.4 5.6 4.4 8.8 9.3 8.8 3.4 0 6-1.3 8.2-3.4l1.6 2c-3.1 3.1-6.4 4-9.9 4-7.1 0-12.1-5.1-12.1-12.4s5.2-12.5 12-12.5c6.3-.1 11.1 5 11.2 12.3m-20.2-1.4h17.3c-.4-5-3.8-8.4-8.4-8.4-5 0-8.4 3.5-8.9 8.4m47.3 13.6h-2.9v-4.6c-1.9 3-5.2 5-9.6 5-6.8 0-12.1-5.3-12.1-12.4 0-7.2 5.3-12.5 12.1-12.5 4.4 0 7.6 2 9.6 5v-4.6h2.9zm-21.5-12.1c0 5.4 3.9 9.7 9.4 9.7s9.4-4.2 9.4-9.7-3.9-9.7-9.4-9.7-9.4 4.2-9.4 9.7m30.401-24.9h-2.9v36.9h2.9zM316.6 25.9h-11.1V39c0 4.1 2.2 5.9 5.4 5.9 2.1 0 4-.7 5.4-1.8l1.4 2.2c-1.7 1.4-4.1 2.4-7 2.4-5 0-8.1-2.8-8.1-8.6V25.9H297v-2.7h5.5v-7.9h2.9v7.9h11.1v2.7zm6.7 1.5c1.9-3.2 5.3-4.6 8.6-4.6 6.1 0 10.2 3.7 10.2 9.7v14.8h-2.9V33.5c0-4.9-2.8-7.8-7.7-7.8-4.5 0-8.1 3.3-8.1 8v13.7h-2.9v-37h2.9v17z"/><path fill="#b5c428" d="M17.8 22.8s-4.7-5.7-4.8-12S17.4 0 17.4 0s4.7 5.7 4.8 12-4.4 10.8-4.4 10.8"/><path fill="#7a9a01" d="M43.001 15.6s.5 12.7-5.8 21.4-17.1 10.1-17.1 10.1-.5-12.7 5.8-21.4 17.1-10.1 17.1-10.1m-17.6-1.5c0 1.7 1.3 3 3 3s3-1.3 3-3-1.3-3-3-3-3 1.3-3 3"/><path fill="#b5c428" d="M17.6 35.8v-.1c0-2.5-.4-10.1-4.4-15.6C8.3 13.5 0 12.4 0 12.4s-.4 9.7 4.4 16.4c3.5 4.7 8.6 6.7 11.3 7.4v10.5c0 .5.4.9.9.9s.9-.4.9-.9V36.1c.1-.1.1-.2.1-.3"/></g><defs><clipPath id="a"><path fill="#fff" d="M0 0h342v48H0z"/></clipPath></defs></svg>