<svg fill="none" height="512" viewBox="0 0 24 25" width="512" xmlns="http://www.w3.org/2000/svg"><g fill="rgb(0,0,0)"><path d="m20.99 11.04c-.55 0-1 .45-1 1 0 4.4-3.58 7.99-7.99 7.99s-7.99001-3.58-7.99001-7.99c0-4.40996 3.58001-7.98995 7.99001-7.98995.55 0 1-.45 1-1s-.45-1-1-1c-5.51 0-9.99001 4.47999-9.99001 9.98995 0 5.51 4.48001 9.99 9.99001 9.99s9.99-4.48 9.99-9.99c0-.55-.45-1-1-1z"/><path d="m8.71001 10.34c-.39-.39003-1.02-.39003-1.41 0-.39.39-.39 1.02 0 1.41l3.25999 3.25c.36.36.85.5699 1.36.5699h.12c.55-.03 1.06-.2999 1.4-.7399l6.35-8.16996c.34-.44.26-1.06003-.17-1.40003-.44-.34-1.06-.25995-1.4.17005l-6.3 8.10994-3.19999-3.2z"/></g></svg>