<svg width="90" height="90" viewBox="0 0 90 90" fill="none" xmlns="http://www.w3.org/2000/svg">
<path fill-rule="evenodd" clip-rule="evenodd" d="M15.0432 32.1082C13.8162 32.3719 12.9619 33.4319 12.9619 34.6834V42.3246C11.0389 43.4918 9.2723 44.9772 7.73597 46.7754C3.96019 51.1946 2.13734 56.816 2.5891 62.608C3.04788 68.4 5.73382 73.6664 10.1477 77.4387C13.8092 80.5606 18.267 82.3518 23.0553 82.6155C23.4578 82.6383 23.8516 82.6489 24.2401 82.6489C27.5922 82.6489 30.9233 81.8666 33.9168 80.3953L33.5582 81.6135C33.4 82.1725 33.7235 82.7578 34.2825 82.9196C34.3756 82.9477 34.4758 82.9617 34.576 82.9617C35.0278 82.96 35.4514 82.6612 35.5885 82.1989L36.7153 78.3018C36.8735 77.7428 36.55 77.1574 35.991 76.9957L32.0922 75.8707C31.5315 75.709 30.9514 76.0325 30.7862 76.5914C30.628 77.1522 30.9514 77.7358 31.5104 77.8975L33.2119 78.3897C26.2264 81.9492 17.5832 81.0106 11.5188 75.8356C7.53382 72.4289 5.10804 67.6723 4.69144 62.4428C4.28187 57.2116 5.93245 52.135 9.33558 48.1465C16.3703 39.9112 28.7893 38.9321 37.0229 45.9633C40.978 49.3366 43.4547 54.1494 43.8362 59.168C44.2528 64.7438 47.002 70.0823 51.3807 73.8176C55.7963 77.5899 61.416 79.4162 67.2098 78.961C73.0035 78.5039 78.2647 75.8198 82.0405 71.4024C85.8092 66.9832 87.6391 61.3617 87.1803 55.5698C86.7285 49.7778 84.0426 44.5114 79.6217 40.7391C78.7323 39.978 77.7918 39.3012 76.8145 38.7053V34.6834C76.8145 33.4319 75.9602 32.3719 74.7332 32.1082L69.1487 30.9094C68.9553 30.8672 68.8323 30.7565 68.769 30.5701C68.4596 29.6895 68.094 28.8141 67.6844 27.9686C67.5983 27.7893 67.6123 27.6223 67.7196 27.4553L70.8203 22.6565C71.5024 21.6053 71.3512 20.2518 70.4688 19.3658L64.4606 13.3541C63.5711 12.4664 62.2211 12.324 61.1664 13.0043L56.3641 16.1051C56.1989 16.2123 56.0336 16.2229 55.8543 16.1367C55.0071 15.7289 54.1317 15.3668 53.2563 15.0574C53.07 14.9924 52.9539 14.8658 52.9118 14.6725L51.7129 9.08792C51.4545 7.86272 50.3928 7.00842 49.143 7.00842H40.6369C39.3871 7.00842 38.3254 7.86272 38.06 9.08792L36.8612 14.6725C36.826 14.8658 36.71 14.9924 36.5237 15.0574C35.6412 15.3668 34.7641 15.7307 33.9256 16.1367C33.7463 16.2229 33.5741 16.2123 33.4088 16.1051L28.6135 13.0043C27.5588 12.324 26.2088 12.4664 25.3194 13.3541L19.3112 19.3658C18.4217 20.2518 18.2776 21.6053 18.9596 22.6565L22.0604 27.4553C22.1676 27.6223 22.1817 27.7893 22.0955 27.9686C21.686 28.8141 21.3203 29.6895 21.011 30.5701C20.9459 30.7565 20.8176 30.8672 20.6313 30.9094L15.0432 32.1082ZM31.7266 40.4684C31.6686 39.9604 31.6405 39.4471 31.6405 38.9356C31.6405 31.6301 37.5836 25.6869 44.8856 25.6869C51.4897 25.6869 56.974 30.4383 57.9725 36.8666C57.1323 37.176 56.3078 37.5399 55.5028 37.9582L55.8825 36.6399C56.0407 36.0809 55.7172 35.4955 55.1582 35.3338C54.5975 35.1721 54.0174 35.4955 53.8522 36.0545L52.7324 39.9516C52.5672 40.5106 52.8907 41.0959 53.4496 41.2576L57.3485 42.3826C57.4416 42.4108 57.5418 42.4231 57.635 42.4231C58.0938 42.4231 58.5174 42.1225 58.6545 41.6619C58.8127 41.1012 58.4893 40.5176 57.9303 40.3559L56.3518 39.8971C63.3795 36.1899 72.0877 37.0758 78.2612 42.3422C86.4948 49.3752 87.4721 61.7959 80.4356 70.0313C77.0324 74.0215 72.274 76.4455 67.0481 76.8569C61.8151 77.27 56.7403 75.6211 52.7483 72.2145C48.8002 68.8412 46.3164 64.0284 45.9438 59.0098C45.5272 53.434 42.778 48.0955 38.3993 44.3602C36.3637 42.6252 34.1032 41.3315 31.7266 40.4684ZM60.0045 36.2338C59.4227 32.9274 57.7651 29.9004 55.2602 27.6065C52.4248 25.0084 48.7422 23.5776 44.8873 23.5776C36.4235 23.5776 29.5328 30.4664 29.5328 38.9356C29.5328 39.2256 29.5469 39.5157 29.561 39.8057C28.9299 39.6492 28.2971 39.5209 27.659 39.4225C27.659 39.259 27.652 39.0973 27.652 38.9356C27.652 29.4311 35.3828 21.6967 44.8873 21.6967C53.2651 21.6967 60.3789 27.7084 61.8502 35.8401C61.2315 35.9438 60.6145 36.0756 60.0045 36.2338Z" fill="black"/>
</svg>
