<svg width="964" height="566" viewBox="0 0 964 566" fill="none" xmlns="http://www.w3.org/2000/svg">
<g clip-path="url(#clip0_348_2301)">
<path d="M136.532 197.41L117.225 169.8L282.718 193.268L426.146 153.234L422.009 160.137L293.751 208.454L186.18 211.215L136.532 197.41Z" fill="white"/>
<path d="M95.1588 135.288L114.466 165.659L284.097 189.127L416.492 151.854L288.235 175.322L95.1588 135.288Z" fill="white"/>
<path d="M91.0215 131.146L49.6481 70.4049L286.855 157.376L415.113 147.712L289.614 171.181L91.0215 131.146Z" fill="white"/>
<path d="M0 0L45.5107 64.8829L286.855 151.854L420.629 143.571L288.235 140.81L23.4449 6.90244L0 0Z" fill="white"/>
<path d="M49.6481 15.1854L289.614 135.288L424.767 139.429L49.6481 15.1854Z" fill="white"/>
<path d="M199.971 215.356L260.652 233.302L321.333 223.639L422.009 167.039V162.898L293.751 212.595L199.971 215.356Z" fill="white"/>
<path d="M270.306 234.683L313.059 247.107L348.916 229.161L422.009 175.322V171.18L321.333 227.78L270.306 234.683Z" fill="white"/>
<path d="M318.575 248.488L340.641 254.01L380.635 233.302L422.009 179.463L355.811 229.161L318.575 248.488Z" fill="white"/>
<path d="M344.778 256.771L365.465 262.293L402.701 231.922L420.629 187.746L383.393 236.063L344.778 256.771Z" fill="white"/>
<path d="M369.602 263.673L388.91 269.195L422.009 252.629L423.388 194.649L405.459 234.683L369.602 263.673Z" fill="white"/>
<path d="M827.468 198.79L846.775 171.18L681.282 194.649L537.854 154.615L541.991 161.517L670.249 209.834L777.82 212.595L827.468 198.79Z" fill="white"/>
<path d="M868.841 136.668L849.534 167.039L679.903 190.507L547.508 153.234L675.765 176.702L868.841 136.668Z" fill="white"/>
<path d="M872.979 132.527L914.352 71.7854L677.144 158.756L548.887 149.093L674.386 172.561L872.979 132.527Z" fill="white"/>
<path d="M964 1.38049L918.489 66.2634L677.144 153.234L543.37 144.951L675.765 142.19L940.555 8.28293L964 1.38049Z" fill="white"/>
<path d="M914.352 16.5658L674.386 136.668L539.233 140.81L914.352 16.5658Z" fill="white"/>
<path d="M764.029 216.737L703.348 234.683L642.667 225.02L541.991 168.42V164.278L670.249 213.976L764.029 216.737Z" fill="white"/>
<path d="M693.694 236.063L650.941 248.488L615.084 230.542L541.991 176.702V172.561L642.667 229.161L693.694 236.063Z" fill="white"/>
<path d="M645.425 249.868L623.359 255.39L583.365 234.683L541.991 180.844L608.189 230.541L645.425 249.868Z" fill="white"/>
<path d="M619.222 258.151L598.535 263.673L561.299 233.302L543.37 189.127L580.607 237.444L619.222 258.151Z" fill="white"/>
<path d="M594.398 265.054L575.09 270.576L541.991 254.01L540.612 196.029L558.541 236.063L594.398 265.054Z" fill="white"/>
<path d="M533.717 273.337V158.756L506.134 189.127V211.215L481.31 229.161L456.486 211.215V189.127L428.904 158.756V273.337L468.898 318.893V360.307H462.003L464.761 368.59L468.898 364.449H477.173L481.31 369.971L485.448 364.449H493.722L497.86 368.59L500.618 360.307H493.722V317.512L533.717 273.337ZM485.448 267.815V360.307H478.552V267.815L452.349 244.346V218.117L481.31 238.824L510.961 216.737V242.276L485.448 267.815Z" fill="white"/>
<path d="M430.283 154.615L457.866 184.985L478.552 165.659V151.854L463.382 131.146L430.283 154.615Z" fill="white"/>
<path d="M532.338 154.615L504.755 184.985L484.069 165.659V151.854L499.239 131.146L532.338 154.615Z" fill="white"/>
<path d="M428.904 278.859L453.728 335.459L449.591 354.785L464.761 352.024V320.273L428.904 278.859Z" fill="white"/>
<path d="M533.717 278.859L508.893 335.459L513.03 354.785L497.86 352.024V320.273L533.717 278.859Z" fill="white"/>
<path d="M506.134 73.1659L524.063 89.7317L496.481 51.0781L464.761 34.5122L428.904 6.90247L415.113 13.8049H424.767L441.316 37.2732L435.8 131.146L481.31 107.678L528.2 136.668L506.134 73.1659ZM471.657 52.4586L466.14 51.0781V45.5561L477.173 55.2195L471.657 52.4586Z" fill="white"/>
<path d="M237.207 419.668L278.581 445.898L456.486 360.307L237.207 419.668Z" fill="white"/>
<path d="M326.85 429.332L351.674 447.278L459.245 365.829L326.85 429.332Z" fill="white"/>
<path d="M324.092 474.888L353.053 492.834L462.003 369.971L324.092 474.888Z" fill="white"/>
<path d="M370.981 481.79L395.805 492.834L464.761 374.112L370.981 481.79Z" fill="white"/>
<path d="M390.289 513.541L417.871 530.107L470.278 375.493L390.289 513.541Z" fill="white"/>
<path d="M474.415 378.254L450.97 445.898L464.761 450.039L474.415 378.254Z" fill="white"/>
<path d="M479.931 372.732L457.866 554.956L478.552 566L479.931 372.732Z" fill="white"/>
<path d="M485.448 372.732V525.966L503.376 519.063L485.448 372.732Z" fill="white"/>
<path d="M490.964 378.254L513.03 550.815L543.37 532.868L490.964 378.254Z" fill="white"/>
<path d="M496.481 376.873L519.926 447.278L530.958 436.234L496.481 376.873Z" fill="white"/>
<path d="M500.618 372.732L579.227 510.78L606.81 494.215L500.618 372.732Z" fill="white"/>
<path d="M504.755 369.971L570.953 445.898L586.123 432.093L504.755 369.971Z" fill="white"/>
<path d="M507.514 364.449L645.425 470.746L681.282 448.659L507.514 364.449Z" fill="white"/>
<path d="M508.893 360.307L653.7 429.332L682.661 407.244L508.893 360.307Z" fill="white"/>
</g>
<defs>
<clipPath id="clip0_348_2301">
<rect width="964" height="566" fill="white"/>
</clipPath>
</defs>
</svg>
