<svg xmlns="http://www.w3.org/2000/svg" width="964" height="566" fill="none" viewBox="0 0 964 566"><g fill="#fff" clip-path="url(#a)"><path d="m136.532 197.41-19.307-27.61 165.493 23.468 143.428-40.034-4.137 6.903-128.258 48.317-107.571 2.761z"/><path d="m95.159 135.288 19.307 30.371 169.631 23.468 132.395-37.273-128.257 23.468z"/><path d="M91.022 131.146 49.648 70.405l237.207 86.971 128.258-9.664-125.499 23.469z"/><path d="m0 0 45.51 64.883 241.345 86.971 133.774-8.283-132.394-2.761L23.445 6.902z"/><path d="m49.648 15.185 239.966 120.103 135.153 4.141zm150.323 200.171 60.681 17.946 60.681-9.663 100.676-56.6v-4.141l-128.258 49.697z"/><path d="m270.306 234.683 42.753 12.424 35.857-17.946 73.093-53.839v-4.142l-100.676 56.6z"/><path d="m318.575 248.488 22.066 5.522 39.994-20.708 41.374-53.839-66.198 49.698z"/><path d="m344.778 256.771 20.687 5.522 37.236-30.371 17.928-44.176-37.236 48.317z"/><path d="m369.602 263.673 19.308 5.522 33.099-16.566 1.379-57.98-17.929 40.034zm457.866-64.883 19.307-27.61-165.493 23.469-143.428-40.034 4.137 6.902 128.258 48.317 107.571 2.761z"/><path d="m868.841 136.668-19.307 30.371-169.631 23.468-132.395-37.273 128.257 23.468z"/><path d="m872.979 132.527 41.373-60.742-237.208 86.971-128.257-9.663 125.499 23.468z"/><path d="m964 1.38-45.511 64.883-241.345 86.971-133.774-8.283 132.395-2.761L940.555 8.283z"/><path d="M914.352 16.566 674.386 136.668l-135.153 4.142zM764.029 216.737l-60.681 17.946-60.681-9.663-100.676-56.6v-4.142l128.258 49.698z"/><path d="m693.694 236.063-42.753 12.425-35.857-17.946-73.093-53.84v-4.141l100.676 56.6z"/><path d="m645.425 249.868-22.066 5.522-39.994-20.707-41.374-53.839 66.198 49.697z"/><path d="m619.222 258.151-20.687 5.522-37.236-30.371-17.929-44.175 37.237 48.317z"/><path d="m594.398 265.054-19.308 5.522-33.099-16.566-1.379-57.981 17.929 40.034zm-60.681 8.283V158.756l-27.583 30.371v22.088l-24.824 17.946-24.824-17.946v-22.088l-27.582-30.371v114.581l39.994 45.556v41.414h-6.895l2.758 8.283 4.137-4.141h8.275l4.137 5.522 4.138-5.522h8.274l4.138 4.141 2.758-8.283h-6.896v-42.795zm-48.269-5.522v92.492h-6.896v-92.492l-26.203-23.469v-26.229l28.961 20.707 29.651-22.087v25.539z"/><path d="m430.283 154.615 27.583 30.37 20.686-19.326v-13.805l-15.17-20.708zm102.055 0-27.583 30.37-20.686-19.326v-13.805l15.17-20.708zM428.904 278.859l24.824 56.6-4.137 19.326 15.17-2.761v-31.751zm104.813 0-24.824 56.6 4.137 19.326-15.17-2.761v-31.751z"/><path d="m506.134 73.166 17.929 16.566-27.582-38.654-31.72-16.566-35.857-27.61-13.791 6.903h9.654l16.549 23.468-5.516 93.873 45.51-23.468 46.89 28.99zm-34.477-20.707-5.517-1.38v-5.523l11.033 9.664zm-234.45 367.209 41.374 26.23 177.905-85.591zm89.643 9.664 24.824 17.946 107.571-81.449zm-2.758 45.556 28.961 17.946 108.95-122.863zm46.889 6.902 24.824 11.044 68.956-118.722zm19.308 31.751 27.582 16.566 52.407-154.614zm84.126-135.287-23.445 67.644 13.791 4.141zm5.516-5.522-22.065 182.224L478.552 566zm5.517 0v153.234l17.928-6.903zm5.516 5.522 22.066 172.561 30.34-17.947zm5.517-1.381 23.445 70.405 11.032-11.044zm4.137-4.141 78.609 138.048 27.583-16.565zm4.137-2.761 66.198 75.927 15.17-13.805zm2.759-5.522 137.911 106.297 35.857-22.087zm1.379-4.142L653.7 429.332l28.961-22.088z"/></g><defs><clipPath id="a"><path fill="#fff" d="M0 0h964v566H0z"/></clipPath></defs></svg>