<svg xmlns="http://www.w3.org/2000/svg" width="350" height="44" fill="none" viewBox="0 0 350 44"><g fill="#173e58" clip-path="url(#a)"><path d="m21.35 32.912 5.075.528c-.7 2.552-2.363 4.928-4.988 7.216s-5.775 3.432-9.362 3.432c-2.275 0-4.375-.528-6.212-1.584-1.926-1.144-3.413-2.64-4.376-4.664C.525 35.816 0 33.528 0 30.888c0-3.344.788-6.6 2.275-9.768 1.575-3.168 3.5-5.544 6.038-7.04 2.45-1.584 5.074-2.288 7.962-2.288 3.675 0 6.563 1.144 8.75 3.432s3.238 5.368 3.238 9.328c0 1.496-.176 3.08-.438 4.664H5.338c-.088.528-.088 1.056-.088 1.584 0 2.904.612 5.104 2.013 6.6 1.312 1.496 2.887 2.288 4.812 2.288 1.75 0 3.5-.616 5.25-1.76 1.663-1.144 3.063-2.816 4.025-5.016M6.125 25.168h17.15v-1.144c0-2.64-.612-4.664-1.925-6.072-1.312-1.408-2.975-2.112-5.075-2.112-2.187 0-4.287.792-6.125 2.376C8.4 19.624 7.088 22 6.125 25.168M60.9 28.336l5.6.616c-1.75 4.928-4.374 8.712-7.7 11.264C55.389 42.768 51.627 44 47.427 44c-5.163 0-9.188-1.584-12.163-4.752s-4.462-7.656-4.462-13.552q0-11.484 6.825-19.008C41.738 2.2 46.726 0 52.763 0c4.463 0 8.05 1.232 10.85 3.608 2.8 2.464 4.375 5.72 4.813 9.768l-5.25.528c-.613-3.08-1.75-5.368-3.5-6.864s-4.025-2.288-6.738-2.288c-5.162 0-9.362 2.288-12.512 6.952-2.8 3.96-4.113 8.712-4.113 14.168 0 4.4 1.05 7.656 3.238 10.032 2.1 2.288 4.9 3.432 8.312 3.432 2.888 0 5.6-.968 7.875-2.816 2.363-2.024 4.113-4.664 5.163-8.184m6.212 14.96L76.038.704h5.25l-8.925 42.592zm11.026 0 6.387-30.8h5.25l-6.387 30.8zM85.75 6.688 86.976.704h5.25l-1.225 5.984zm3.326 36.608 6.388-30.8h4.812l-1.05 5.456c2.1-2.112 4.025-3.696 5.775-4.664 1.838-.968 3.675-1.496 5.513-1.496 2.45 0 4.462.704 5.862 2.112q2.1 2.112 2.1 5.544c0 1.144-.262 2.904-.787 5.368l-4.113 18.568h-5.25l4.288-19.536c.437-1.936.612-3.256.612-4.224 0-1.056-.35-1.848-1.05-2.464s-1.75-.968-3.062-.968c-2.713 0-5.163.968-7.263 2.904s-3.675 5.28-4.637 9.944l-2.888 14.344h-5.25zm30.188 0 6.387-30.8h5.25l-6.387 30.8zm7.525-36.608 1.225-5.984h5.25l-1.225 5.984zM151.2 32.032l5.162.528c-1.312 3.872-3.149 6.776-5.599 8.624S145.6 44 142.537 44c-3.325 0-6.037-1.056-8.137-3.256s-3.15-5.192-3.15-9.064c0-3.344.7-6.688 2.013-9.944s3.237-5.72 5.687-7.392 5.338-2.552 8.488-2.552c3.325 0 5.95.968 7.874 2.816Q158.2 17.38 158.2 22l-5.163.528c0-2.024-.612-3.608-1.662-4.664-1.138-1.144-2.625-1.672-4.375-1.672-2.1 0-3.938.704-5.513 2.024q-2.362 1.98-3.675 6.072c-.874 2.728-1.312 5.368-1.312 7.832 0 2.64.613 4.576 1.75 5.896s2.625 2.024 4.375 2.024 3.325-.616 4.9-1.936c1.488-1.408 2.8-3.344 3.675-6.072m26.513 7.392c-1.837 1.584-3.5 2.728-5.25 3.432-1.662.704-3.412 1.056-5.337 1.056-2.8 0-5.075-.792-6.825-2.552-1.75-1.672-2.625-3.784-2.625-6.424 0-1.76.35-3.256 1.137-4.576a9.1 9.1 0 0 1 3.15-3.168c1.313-.792 2.888-1.408 4.725-1.76 1.138-.264 3.325-.44 6.65-.528 3.325-.176 5.688-.44 7.088-1.056.437-1.408.612-2.64.612-3.608q0-1.848-1.312-2.904c-1.225-.968-2.975-1.496-5.338-1.496-2.187 0-4.025.528-5.425 1.496s-2.45 2.376-3.062 4.224l-5.25-.528c1.05-3.08 2.8-5.368 5.162-7.04 2.363-1.584 5.25-2.464 8.838-2.464 3.762 0 6.825.88 9.012 2.728 1.663 1.32 2.538 3.08 2.538 5.28 0 1.672-.263 3.52-.7 5.72l-1.75 7.656c-.525 2.464-.788 4.4-.788 5.984 0 .968.175 2.376.613 4.224h-5.25c-.263-.88-.438-2.112-.613-3.696m2.013-11.704c-.7.264-1.575.528-2.363.704-.875.176-2.187.352-4.112.528-3.063.264-5.25.616-6.475 1.056s-2.188 1.056-2.8 2.024c-.613.88-.963 1.936-.963 2.992 0 1.496.525 2.728 1.488 3.608 1.05.968 2.45 1.408 4.287 1.408 1.75 0 3.413-.44 4.988-1.408a9.4 9.4 0 0 0 3.762-3.872c.875-1.672 1.663-4.048 2.188-7.04m7.438 15.576L196.002.704h5.25l-8.838 42.592zm19.25 0L203.789.704h5.775l.875 21.12c.088.968.175 3.696.35 8.184.088 1.232.088 2.112.088 2.64 0 .352 0 1.32.087 2.904 2.363-4.84 4.025-8.184 5.075-10.12L228.902.88h5.775l1.312 24.904c.175 2.816.263 6.248.438 10.296.35-.968.962-2.464 1.837-4.4 1.4-3.168 2.45-5.368 3.15-6.776L253.402.792h5.775l-21.525 42.592h-6.038L230.302 17.6c-.175-2.2-.35-4.928-.438-8.272-1.225 2.728-2.187 4.84-2.975 6.424l-14.525 27.632h-5.95zm43.313-11.704c0-5.984 1.75-11 5.25-14.96 2.887-3.256 6.737-4.84 11.375-4.84 3.675 0 6.65 1.144 8.925 3.52 2.275 2.288 3.412 5.456 3.412 9.416 0 3.52-.7 6.864-2.1 9.856-1.4 3.08-3.412 5.368-6.037 7.04-2.625 1.584-5.425 2.464-8.313 2.464-2.362 0-4.55-.528-6.475-1.496-1.925-1.056-3.412-2.464-4.462-4.4q-1.575-2.904-1.575-6.6m5.075-.528q0 4.356 2.1 6.6c1.4 1.496 3.15 2.288 5.337 2.288 1.138 0 2.275-.264 3.325-.704 1.138-.44 2.1-1.144 3.063-2.112.962-.968 1.75-2.024 2.45-3.168.7-1.232 1.225-2.464 1.575-3.872a18.3 18.3 0 0 0 .875-5.544c0-2.816-.7-5.016-2.1-6.512-1.4-1.584-3.15-2.288-5.338-2.288-1.662 0-3.15.352-4.462 1.144q-1.97 1.188-3.675 3.432a16.3 16.3 0 0 0-2.45 5.28c-.438 2.112-.7 3.872-.7 5.456m24.237 12.232 6.388-30.8h4.637l-1.312 6.336c1.575-2.376 3.15-4.136 4.637-5.28 1.488-1.144 3.063-1.76 4.638-1.76 1.05 0 2.275.44 3.85 1.232l-2.1 4.84a4.74 4.74 0 0 0-2.975-1.056c-1.838 0-3.675 1.056-5.6 3.08s-3.413 5.72-4.55 11.088l-2.538 12.32zm17.674 0L305.55.704h5.163l-5.425 26.488L320.6 12.496h6.825l-13.037 11.44 7.875 19.36h-5.688l-6.125-15.84L304.063 33l-2.1 10.296z"/><path d="m322.788 32.736 5.162-.352c0 1.496.263 2.816.7 3.872.438 1.056 1.313 1.936 2.538 2.64s2.712 1.056 4.375 1.056c2.362 0 4.112-.44 5.25-1.408s1.75-2.024 1.75-3.256c0-.88-.35-1.76-1.05-2.552s-2.45-1.848-5.25-2.992-4.55-2.024-5.338-2.464c-1.312-.792-2.275-1.76-2.975-2.816s-.962-2.288-.962-3.696q0-3.696 2.887-6.336t8.138-2.64c3.85 0 6.825.88 8.837 2.728q3.02 2.64 3.15 7.128l-4.987.528c-.088-1.936-.7-3.432-2.013-4.576-1.225-1.144-2.975-1.672-5.25-1.672-1.837 0-3.237.44-4.287 1.32s-1.488 1.76-1.488 2.816q0 1.452 1.313 2.64c.612.528 2.1 1.32 4.55 2.288 4.025 1.76 6.562 3.08 7.612 4.048 1.663 1.584 2.45 3.52 2.45 5.808 0 1.496-.437 2.992-1.4 4.488s-2.362 2.64-4.287 3.52-4.2 1.32-6.738 1.32c-3.5 0-6.562-.88-9.012-2.64-2.625-1.936-3.763-4.84-3.675-8.8"/></g><defs><clipPath id="a"><path fill="#fff" d="M0 0h350v44H0z"/></clipPath></defs></svg>