<svg xmlns="http://www.w3.org/2000/svg" viewBox="0 0 167 35"><path fill="#fff" d="M144.97 11.43h-3.88c0 .02 0 .06.01.08.24.06.49.12.72.24.62.29 1.1.82 1.55 1.34.06.07.13.14.18.22v4.54c-.01.88.03 1.76-.03 2.63-.05.6-.14 1.21-.43 1.74-.16.3-.41.54-.71.7-.29.15-.61.22-.92.31v.08h4.32v-.08c-.34-.09-.69-.18-1-.36-.4-.23-.68-.65-.82-1.1-.25-.78-.26-1.61-.27-2.43-.01-1.99-.03-3.97-.05-5.96 2.71 3.39 5.41 6.79 8.13 10.18h.11v-8.1c0-.75-.04-1.52.12-2.26.08-.36.2-.72.42-1 .19-.25.46-.44.76-.54.25-.09.51-.11.77-.15v-.09h-4.29v.09c.4.05.82.11 1.17.35.41.27.64.76.76 1.24.11.45.14.92.15 1.39.02 1.93.03 3.87.05 5.8-1.1-1.38-2.19-2.76-3.29-4.14-.77-.98-1.56-1.95-2.32-2.94-.43-.57-.87-1.15-1.21-1.79Zm-102.1.01v.09c.43.09.89.17 1.24.47.24.2.39.5.44.81.07.37.04.74.04 1.11v7.51c0 .27-.02.54-.11.8-.1.33-.36.59-.65.73-.3.16-.64.21-.97.28v.08h5.3v-.08c-.44-.09-.9-.17-1.26-.47-.27-.22-.41-.58-.45-.93-.04-.37-.02-.73-.02-1.1V13.4c0-.33.02-.67.16-.98.12-.25.31-.45.55-.59.31-.18.67-.23 1.01-.31v-.09h-5.3Zm9.5 0h-3.89c0 .07.02.1.08.1.4.08.78.25 1.11.49.48.36.88.82 1.27 1.28v6c0 .78 0 1.58-.22 2.33-.13.47-.38.92-.78 1.18-.33.22-.72.31-1.09.41v.08h4.33v-.08c-.47-.13-.98-.25-1.34-.62-.26-.26-.42-.61-.52-.96-.21-.73-.23-1.51-.23-2.27-.01-2-.03-4-.05-6l3.23 4.05c1.63 2.04 3.26 4.1 4.9 6.14h.11v-9.11c0-.44-.02-.88.06-1.31.08-.47.29-.95.66-1.24.35-.28.8-.38 1.23-.39.54-.01 1.12.14 1.5.58.41.49.51 1.17.52 1.8v7.55c0 .35-.04.71-.21 1.02-.17.3-.46.49-.76.59-.24.09-.5.11-.75.17v.08h4.4c.92 0 1.86.05 2.77-.15 1.22-.24 2.39-.85 3.24-1.83.81-.9 1.29-2.11 1.42-3.34.13-1.26-.1-2.57-.72-3.66a5.45 5.45 0 0 0-2.57-2.32c-.81-.37-1.69-.53-2.57-.57-.72-.02-1.43 0-2.15-.01h-8.27v.09c.39.06.8.1 1.16.29.3.16.54.44.67.77.22.56.25 1.17.25 1.77.02 1.98.03 3.96.05 5.94-1.11-1.4-2.22-2.8-3.34-4.2-.74-.94-1.5-1.87-2.23-2.82-.45-.59-.9-1.18-1.25-1.85Zm32.56 0v.09c.15.03.3.07.46.1.39.09.79.27 1.02.64.23.36.24.81.24 1.23v7.66c0 .33.01.68-.09 1-.09.32-.29.58-.57.75-.33.2-.7.26-1.06.34v.08h5.51v-.08c-.35-.08-.71-.15-1.05-.28-.27-.1-.53-.26-.68-.53-.18-.34-.18-.73-.19-1.11v-9.8c.38 0 .76-.02 1.13.05.37.06.74.2 1.06.42.46.31.8.79 1 1.32.28.75.32 1.57.23 2.36-.09.73-.35 1.46-.85 1.98-.53.56-1.29.8-2.03.8v.1h.59c.73 0 1.46-.1 2.15-.38.52-.22 1.02-.54 1.41-.99.56-.62.85-1.5.8-2.36-.03-.72-.29-1.41-.75-1.96-.44-.52-1.02-.89-1.63-1.11-.74-.28-1.54-.33-2.32-.32h-4.36Zm20.2 0v.09c.38.08.77.22 1.1.45.52.36.94.85 1.35 1.33.02 1.83 0 3.66 0 5.49 0 .9.04 1.82-.18 2.7-.11.48-.33.95-.72 1.25-.31.25-.69.35-1.05.45-.06.02-.16.02-.14.12h4.34c.02-.11-.09-.1-.16-.12-.34-.1-.7-.19-.99-.41-.38-.26-.6-.7-.73-1.15-.22-.78-.22-1.61-.22-2.42l-.05-5.82c1.05 1.31 2.09 2.62 3.14 3.94 1.66 2.08 3.32 4.15 4.97 6.23.04 0 .08.01.13.02v-9.25c0-.38 0-.76.06-1.14.06-.36.18-.72.4-1.01.34-.46.9-.65 1.43-.65.57-.02 1.19.13 1.57.61.42.52.5 1.25.49 1.92v7.41c0 .35-.04.71-.2 1.01-.16.29-.44.49-.74.59-.25.1-.52.12-.78.17 0 .02 0 .06-.01.08h5.53c.92 0 1.84-.13 2.71-.46a5.66 5.66 0 0 0 2.52-1.93c1.32-1.83 1.48-4.51.4-6.52-.58-1.07-1.5-1.9-2.62-2.39-.81-.37-1.71-.53-2.59-.57-.75-.02-1.5 0-2.24-.01h-8.16c-.01.06.01.09.07.09.27.04.54.08.8.16.29.09.56.27.75.52.2.27.3.6.37.92.1.53.09 1.07.1 1.61.02 1.85.03 3.7.05 5.56l-3.23-4.06c-.78-.99-1.58-1.97-2.35-2.97-.45-.59-.89-1.18-1.24-1.84zm25.27 0v.09c.36.08.74.14 1.07.33.26.14.47.39.56.69.11.33.09.68.09 1.02v7.86c0 .32-.03.65-.16.95-.13.28-.36.51-.64.64-.29.14-.61.17-.92.23 0 .02 0 .06-.01.08h9.87v-3.37c-.09-.01-.12.08-.15.14-.25.43-.49.87-.73 1.3-.31.55-.72 1.05-1.26 1.36-.65.38-1.4.47-2.13.48-.36 0-.73.03-1.08-.07-.29-.08-.55-.27-.7-.54-.18-.34-.23-.74-.23-1.13v-4.25c.48.01.95.01 1.43.04.36.02.73.05 1.07.2.27.12.49.33.65.59.32.52.47 1.14.65 1.73h.08v-5.22h-.07c-.19.6-.32 1.23-.66 1.75-.17.28-.43.51-.73.61-.32.12-.65.15-.98.17-.48.03-.95.02-1.43.04v-5.62h1.39c.72.01 1.47.05 2.15.34.58.24 1.05.72 1.37 1.29.3.54.58 1.1.87 1.65h.08v-3.37h-9.43Zm-127.86 0v3.72h.15c.21-.55.41-1.1.62-1.64.2-.5.44-1.01.83-1.38.3-.29.69-.45 1.08-.5s.79-.03 1.19-.03v9.2c0 .31 0 .62-.09.92-.09.32-.3.58-.59.73-.3.17-.64.2-.97.26v.16h5.1v-.16c-.15-.03-.3-.05-.45-.08-.36-.07-.72-.24-.94-.56-.21-.31-.26-.72-.26-1.09v-9.38c.33 0 .67-.01 1 .01.36.03.73.12 1.04.33.27.18.49.44.66.72.26.43.43.9.6 1.37.14.37.28.74.42 1.12h.16v-3.72H2.56Zm10.15 0v.16c.26.07.54.13.73.34.17.18.22.44.22.69v9.04c0 .24-.04.49-.2.68-.19.23-.49.29-.76.36v.16h3.59v-.16c-.24-.07-.5-.12-.69-.3-.2-.18-.26-.48-.26-.74v-5.14c.31-.24.65-.47 1.02-.59.44-.14.93-.1 1.33.14.34.21.58.57.68.97.14.5.1 1.02.11 1.53v3.11c0 .23-.05.48-.21.66-.19.22-.48.27-.75.35v.16h3.59v-.16c-.27-.08-.57-.13-.76-.36-.17-.19-.2-.46-.2-.71v-3.46c0-.36 0-.72-.04-1.08-.07-.59-.28-1.17-.68-1.59-.42-.44-1.01-.66-1.59-.68-.51-.03-1.01.12-1.43.4-.45.29-.82.67-1.09 1.13v-4.92h-2.64Zm70.5 0h-9.44v.08c.38.09.76.14 1.09.34.25.14.46.38.54.67.12.35.09.73.1 1.1v7.79c0 .33-.03.66-.16.96-.14.3-.4.54-.71.66-.27.11-.56.14-.84.19v.08h9.86v-3.37c-.05 0-.09.02-.11.07-.21.39-.43.77-.64 1.15-.19.33-.38.67-.63.95-.27.32-.6.58-.98.76-.61.29-1.29.35-1.95.36-.38 0-.78.03-1.14-.11-.26-.1-.48-.28-.61-.53-.18-.35-.21-.75-.22-1.14v-4.22c.4.01.79.01 1.19.03.46.02.93.03 1.35.23.34.16.59.48.75.82.22.47.35.97.51 1.47h.08v-5.21h-.08c-.13.45-.25.9-.44 1.33-.14.34-.35.67-.65.87s-.66.27-1.01.3c-.57.05-1.14.04-1.71.06v-5.62c.76 0 1.51-.03 2.27.04.5.05 1 .15 1.46.39.39.2.73.51.99.88.17.23.3.49.43.75.21.41.42.81.64 1.22h.08v-3.36Zm20.7 0h-9.44v.08c.39.09.78.15 1.12.36.23.14.43.37.51.65.13.4.09.83.1 1.25v7.48c0 .33 0 .66-.11.98-.11.36-.39.65-.72.79-.28.13-.59.16-.89.22 0 .03 0 .05-.01.08h9.87v-3.37c-.02 0-.06.01-.07.01-.28.48-.55.97-.82 1.46-.31.53-.71 1.02-1.23 1.33-.65.39-1.42.48-2.16.49-.33 0-.67.02-1-.05-.31-.07-.6-.25-.76-.54-.19-.34-.24-.75-.24-1.15v-4.25c.46.01.92.01 1.38.03.37.02.76.05 1.11.2.27.11.49.33.65.59.32.52.47 1.14.65 1.73h.07v-5.22h-.07c-.19.6-.32 1.23-.66 1.76-.17.28-.43.5-.74.61-.31.12-.65.14-.98.16-.47.03-.95.02-1.42.04v-5.62h1.29c.77 0 1.56.04 2.27.35.57.24 1.03.72 1.34 1.27.3.54.57 1.11.87 1.65h.08v-3.36Zm50.68 0v3.88c.1.02.11-.09.14-.16.15-.41.3-.81.46-1.22.22-.59.47-1.18.88-1.66.31-.37.74-.61 1.21-.7.44-.09.89-.05 1.33-.06v9.9c0 .33-.03.67-.17.97-.14.29-.38.52-.67.64-.28.12-.59.15-.88.21v.08h5.3v-.08c-.31-.05-.62-.09-.91-.22-.32-.14-.56-.4-.68-.72-.13-.34-.13-.72-.13-1.08v-9.7h.69c.51 0 1.05.09 1.48.41.49.35.8.91 1.05 1.48.26.62.48 1.27.73 1.9h.08v-3.86h-9.89Zm-89.48.08h1.48c.65 0 1.31.1 1.92.36.59.25 1.1.63 1.51 1.12.44.52.75 1.15.95 1.81.24.77.33 1.58.35 2.38.01.73-.04 1.46-.19 2.18s-.39 1.42-.79 2.02a3.86 3.86 0 0 1-1.48 1.36c-.68.35-1.45.48-2.2.47-.31 0-.65 0-.93-.16-.26-.14-.45-.42-.51-.72-.09-.31-.1-.64-.1-.97V11.5Zm56.65 0h1.49c.72 0 1.46.13 2.12.45.58.29 1.08.72 1.47 1.24.41.55.69 1.2.86 1.87.21.79.28 1.61.27 2.42-.01.83-.1 1.66-.33 2.46-.21.71-.54 1.4-1.03 1.94-.42.47-.95.84-1.54 1.05-.51.18-1.05.27-1.58.27-.34 0-.69.03-1.01-.11-.25-.1-.46-.33-.56-.59-.13-.35-.15-.73-.15-1.1v-9.91Zm-96.66 3.3c-.58 0-1.14.17-1.63.47-.5.31-.92.77-1.21 1.3-.57 1.01-.69 2.24-.49 3.38.12.68.37 1.34.78 1.88.37.49.87.86 1.44 1.06s1.18.25 1.77.14c.71-.13 1.38-.53 1.86-1.1.32-.39.59-.84.7-1.34-.05-.02-.1-.04-.14-.06-.35.78-1.1 1.32-1.91 1.39-.56.04-1.14-.1-1.61-.44-.48-.34-.82-.86-1.03-1.43-.25-.69-.32-1.45-.27-2.19 1.61-.01 3.23 0 4.84 0 0-.47-.07-.95-.27-1.38a2.68 2.68 0 0 0-1.14-1.28c-.52-.3-1.11-.42-1.7-.4Zm.1.18c.17 0 .34.05.49.13.26.14.46.39.56.68.25.6.22 1.26.22 1.9h-3.12c.08-.63.19-1.28.48-1.84.18-.36.48-.67.85-.79.16-.05.34-.08.51-.07Z"/><path fill="#ed1b2f" d="M36.71 11.42c-.21 0-.42 0-.63.02-1.77.15-3.44 1.26-4.34 2.89a6.3 6.3 0 0 0-.76 3.88c.14 1.15.6 2.23 1.33 3.13.53.64 1.18 1.17 1.92 1.53 1.5.76 3.31.69 4.78-.11.84-.44 1.57-1.1 2.11-1.91.82-1.2 1.2-2.72 1.04-4.19a6.1 6.1 0 0 0-1.61-3.48 5.95 5.95 0 0 0-1.97-1.36c-.59-.24-1.22-.37-1.85-.39Zm-3.66 1.66c.08.22.15.44.23.66.02.08.1.13.15.19.23.21.44.43.67.63.33.2.69.37 1.03.57.38.54.73 1.09 1.11 1.62.15.15.3.28.46.41-.06-.1-.13-.19-.2-.28.15-.05.31-.08.46-.13l-.42-.03c.2-.05.41-.07.61-.12-.25-.03-.5-.03-.74-.07.27-.05.54-.1.82-.15.16-.04.32.05.48.07-.12-.07-.24-.13-.37-.18-.19 0-.38.01-.57 0 .2-.05.4-.09.61-.12.14.02.26.1.4.13-.11-.09-.23-.17-.35-.24-.14-.02-.28-.01-.42-.03.15-.03.31-.06.47-.08.14.05.27.14.41.19-.1-.11-.21-.22-.32-.32-.12-.03-.25 0-.38-.01.15-.05.3-.08.45-.12.13.11.26.23.39.34-.09-.16-.2-.31-.3-.47-.11-.02-.22-.04-.33-.08l.41-.03c.13.16.25.32.38.48-.08-.2-.17-.4-.26-.6-.12-.04-.24-.08-.36-.13.15 0 .3.02.46.03.12.21.23.42.35.63-.07-.24-.14-.47-.21-.7 0-.05-.06-.05-.09-.07-.12-.05-.25-.09-.37-.14.18.02.36.07.54.1.11.25.19.51.31.76-.06-.28-.13-.56-.2-.85-.15-.1-.32-.18-.46-.29.19.07.37.15.56.22.09.28.17.57.28.84-.05-.31-.11-.62-.16-.93-.17-.14-.35-.26-.51-.41.21.11.4.23.6.35.08.29.15.59.24.88-.04-.31-.09-.62-.14-.94-.16-.19-.37-.34-.54-.53.22.14.42.3.63.45.06.3.13.6.18.9 0-.32-.04-.64-.08-.96-.17-.22-.37-.42-.54-.63q.33.27.63.57c.06.28.08.58.15.86 0-.31-.04-.61-.06-.92-.17-.24-.35-.47-.51-.71.21.21.41.44.6.66.04.24.06.48.09.71h.02c-.02-.22-.02-.45-.03-.68 0-.04 0-.08-.03-.12-.14-.24-.3-.47-.44-.72.19.23.36.47.54.72.05.18.04.38.09.56 0-.2 0-.4-.03-.6-.1-.26-.22-.51-.32-.78.13.2.24.43.36.64.08.12.07.28.1.42.02-.16.04-.33 0-.49-.05-.21-.1-.42-.14-.63.09.21.16.43.25.64.06-.2.1-.41.15-.62.01.21-.03.41-.03.61.15-.2.27-.42.42-.62-.08.2-.18.38-.27.58.21-.15.42-.32.63-.47-.22.32-.44.63-.66.94-.11.17-.26.32-.32.52-.11.32-.22.65-.34.97-.02.06-.06.12-.12.14-.23.1-.46.19-.69.3-.1.04-.15.14-.24.2-.21.04-.43.04-.64.09.21.03.43 0 .64.02.12.04.24.1.36.14.09.04.2.08.26.17.04.06.04.13.05.2.09.11.24.21.22.38 0 .12-.12.17-.2.21.06-.12-.05-.34-.18-.23.04.06.07.13.11.19-.09.01-.19 0-.26-.07h-.52c.1.03.21.05.32.07-.32.42-.66.82-.98 1.24.12-.09.23-.21.35-.32 0 .21-.03.42 0 .63.11.1.22.21.34.3.06.04.09.12.13.18 0-.09-.03-.18-.1-.23l.1-.02c.07.05.12.13.17.21 0-.09-.02-.2-.12-.22.32-.06.63-.14.95-.2.21.13.42.26.62.39.1.06.16.22.09.33s-.2.13-.31.13c-.38 0-.76.05-1.13.12.09-.1.19-.19.29-.29-.23.16-.46.32-.72.44-.22.1-.45.2-.67.31.14-.15.29-.28.42-.44-.37.29-.73.6-1.16.79-.2.09-.4.24-.62.22-.17-.03-.33-.11-.49-.16-.11-.04-.22-.07-.32-.14-.08-.06-.09-.21 0-.26.12-.06.25-.09.38-.14.18.08.36.16.53.25.08.04.09.15.09.23.05-.1.01-.22-.08-.28-.26-.16-.53-.33-.79-.49.43-.14.86-.28 1.3-.4.05.02.09.04.14.05-.11-.1-.21-.21-.35-.26a3 3 0 0 0-.06-.17l-.07-.04-.09-.42c0 .15.02.3.03.45-.08.05-.15.09-.23.13v-.57c-.04.2-.05.4-.07.6l-.3.06c.03-.22.07-.43.1-.65-.08.22-.13.44-.2.66l-.3.02c.07-.24.16-.47.22-.71-.12.22-.21.46-.32.68v.02c-.02.01-.05 0-.08.01-.07 0-.14 0-.21.01.11-.25.24-.49.34-.74-.17.24-.32.5-.49.75-.1.02-.21.03-.31.05.17-.27.35-.53.51-.81-.21.23-.39.48-.59.72-.1.12-.19.25-.3.35-.02-.07.04-.13.07-.19.23-.38.45-.77.69-1.14.41-.18.84-.33 1.25-.51.21-.07.4-.27.41-.51-.04.1-.07.22-.16.3-.12.12-.29.15-.44.22-.03-.05-.05-.11-.08-.16.06-.05.11-.11.16-.17-.14.09-.28.19-.43.28l-.1-.21c.19-.15.39-.29.56-.46-.29.17-.57.36-.86.54-.02-.07-.05-.15-.07-.22.26-.19.54-.37.79-.57-.35.19-.69.4-1.03.59-.02-.07-.03-.13-.05-.2.29-.2.59-.39.88-.6-.37.18-.72.39-1.08.57l-.03-.24c.3-.16.59-.33.88-.51-.37.14-.73.32-1.1.47v-.23c.29-.13.6-.24.89-.38-.36.09-.72.21-1.08.31v-.25c.29-.07.57-.12.85-.21l-1.06.15.03-.22c.26-.04.52-.04.78-.1-.36 0-.72.01-1.08.01 0-.06.01-.12.02-.19h.86c-.52-.07-1.04-.08-1.56-.13.09-.04.18-.07.27-.11-.22-.1-.45-.18-.66-.28l.29-.03c-.19-.14-.39-.25-.57-.39.14 0 .28.01.42.02-.15-.16-.31-.3-.46-.47.08.01.15.03.23.04-.08-.13-.2-.23-.24-.38-.03-.11-.07-.21-.1-.32.09.09.14.2.23.29.15.1.3.18.45.27-.11-.21-.31-.39-.34-.64-.02-.12-.05-.23-.07-.35.12.16.19.36.35.48.12.1.24.21.37.31-.1-.26-.3-.47-.31-.76-.02-.15-.05-.31-.06-.46.11.18.18.39.29.57.19.17.37.34.57.5-.12-.22-.25-.43-.37-.64-.03-.05-.03-.12-.04-.17-.02-.23-.05-.46-.07-.69Zm.39 1.02c.11.22.25.43.37.65.03.09.13.1.2.13.22.09.44.19.67.27-.24-.16-.52-.26-.76-.41-.17-.2-.3-.44-.47-.64Zm-.36.32c.11.19.23.36.36.54.12.06.26.09.38.14.17.06.34.13.51.17-.26-.14-.55-.24-.81-.37-.16-.15-.28-.34-.45-.48Zm-.38.21q.21.3.45.57c.35.1.7.21 1.06.28-.32-.15-.67-.22-1-.37-.18-.15-.32-.35-.51-.49Zm-.25.28c.15.19.33.37.5.54.41.1.82.2 1.23.28-.39-.15-.79-.23-1.18-.36-.19-.14-.36-.32-.55-.46m2.39.39c-.14.06-.26.14-.39.21-.01-.04-.03-.09-.04-.13v.23c.15-.1.3-.19.44-.3Zm.19.24c-.18.08-.34.19-.52.28l-.03-.13c-.01.08-.01.15 0 .23.19-.12.38-.23.56-.38Zm-2.5.04c.2.1.41.19.63.21l1 .16v-.03c-.54-.11-1.08-.25-1.63-.35Zm2.67.2c-.19.09-.36.21-.55.31l-.02-.1h-.03v.19c.2-.13.4-.25.58-.4Zm-2.22.19c.22.1.45.17.7.18.2 0 .41.06.62.04-.44-.08-.87-.15-1.31-.22Zm2.42.06c-.18.09-.36.19-.54.29-.01-.05-.02-.09-.03-.13 0 .08-.01.15-.01.23.2-.13.4-.24.58-.39m.21.24c-.16.08-.32.17-.48.26a.5.5 0 0 0-.04-.13v.23c.18-.11.36-.22.52-.35Zm.2.24c-.14.06-.26.14-.39.21-.01-.05-.02-.1-.03-.14-.01.08-.01.16-.01.24.15-.1.3-.19.44-.3Zm.17.25c-.1.04-.19.09-.29.14-.01-.04-.03-.08-.04-.12V17c.11-.08.23-.15.33-.24m1.33.15s-.05 0-.06.02c0 .03 0 .06.03.09.03-.01.06-.04.08-.07v-.01h-.03Zm.53.01h-.2l.08.04-.03.09c.05-.04.1-.09.15-.13m-1.95.07c0 .06-.01.13-.02.19.09-.05.18-.11.26-.18l-.21.09zm2.16.01v.11l.12-.09c-.04 0-.08-.01-.12-.02m.55.09s-.09.06-.07.12c0 .08.13.1.16.03.01-.03 0-.07 0-.1l-.07.09c-.08 0-.03-.09-.03-.14Zm-1.74.02.09.05s-.03.07-.04.1l.18-.15zm.46.06.09.05-.05.1.18-.15h-.23Zm-.97 0c-.09.03-.17.07-.25.11-.01-.03-.03-.06-.04-.09v.19c.09-.06.2-.13.29-.21m1.39.08.09.05s-.03.07-.04.1l.18-.15zm1.1.06-.04.04c.11.08.22.16.25.31.01-.16-.12-.26-.21-.35m-2.46.1c-.07.03-.13.06-.19.09 0-.02-.02-.04-.03-.06 0 .05 0 .1-.01.15.08-.06.16-.11.23-.18m.81.02c-.09 0-.18.02-.27.04.04.02.07.03.11.05-.01.04-.03.09-.04.13.07-.07.13-.14.2-.21Zm-.45.05c-.06.01-.13.02-.19.04l.08.03-.03.09c.05-.05.09-.1.14-.15Zm.9.01c-.09.02-.17.03-.26.06.04.01.08.02.11.03l-.04.13c.06-.07.12-.14.18-.22Zm.95 0s-.04 0-.06.03-.03.1 0 .14c.01-.1.09-.13.17-.13a.2.2 0 0 0-.1-.04Zm-.63.16c-.06 0-.13 0-.19.01l.08.04-.03.09zm-1.59.04c-.05.02-.11.02-.16.02v.12c.06-.04.11-.09.17-.14Zm.44.11c-.07.01-.15.03-.22.05l.09.03-.02.1c.05-.06.1-.12.14-.18Zm.44.02c-.09.02-.18.05-.27.08l.12.02-.02.12c.06-.07.11-.15.16-.23Zm.4.07c-.08.02-.16.04-.23.06l.11.02-.03.11c.05-.06.1-.12.15-.19m.32.12-.12.02s.02.06.04.09c.03-.03.06-.07.09-.11Zm-1.1.14c-.07.02-.15.04-.22.07l.1.02s-.01.08-.02.11c.05-.06.1-.13.14-.2m.47.07c-.09.03-.18.06-.26.09.04 0 .08.01.12.02 0 .04-.01.09-.02.13q.09-.12.15-.24Zm.41.06c-.06 0-.13.02-.19.03s.08.04.08.04l-.02.08s.09-.1.13-.15m-1.39.09s.07.07.07.12c.04-.04.07-.08.11-.12zm.63.13c-.07.01-.15.03-.22.05l.1.03-.03.11c.05-.06.1-.12.15-.19m-.81.09h-.04c-.01.03 0 .06.02.08.04.01.08-.03.09-.07-.01-.02-.04-.03-.07-.02Zm1.31.01c-.06 0-.13.02-.19.03l.08.03-.03.09s.09-.1.13-.15Zm-1.05.06.09.04-.04.09c.05-.04.1-.09.15-.13zm.69.14-.12.02s.03.06.04.09c.03-.04.06-.07.09-.11Zm-1.62.02s.02.08 0 .12c.04-.04.08-.08.12-.11h-.13Zm.36 0s.02.07.01.11c.04-.04.08-.07.12-.11zm.41.07s-.03 0-.04.01c0 .03 0 .07.03.09.03-.01.06-.04.08-.07v-.01h-.05Zm.34.04.03.12s.08-.07.12-.11h-.15Zm.22.18c.03.17.05.34.08.51.07.19.28.27.36.45a.24.24 0 0 0-.12-.24l.12-.02c.06.06.11.13.16.2 0-.09-.04-.17-.11-.22.09-.02.18-.04.26-.07-.14-.07-.26-.2-.42-.18-.12-.15-.23-.3-.35-.45Zm2.28.5c-.23.02-.46.05-.68.14.23-.02.46-.06.68-.14m-1.25.04h-.02c.08.06.14.14.2.23.01-.12-.06-.23-.18-.23m1.55.11c-.31 0-.62.07-.93.13.11.02.22 0 .34-.02.2-.03.4-.05.59-.11m-2.47.13h-.02c.08.06.14.14.19.22.02-.11-.06-.22-.17-.22m1.35.05c-.18.01-.37.04-.53.14.18-.02.36-.06.53-.14m-.73.2c-.22.04-.43.13-.64.2-.24.1-.5.18-.72.32.22-.07.42-.16.63-.24.24-.1.49-.17.73-.29Zm-.63 0c-.19.02-.37.1-.55.16-.15.06-.31.11-.46.19.16-.02.32-.1.47-.14.18-.07.36-.12.53-.21Zm-1.19.69c-.1.04-.25.03-.32.14.19.07.38.14.58.2-.14-.09-.3-.15-.45-.22.06-.04.13-.07.19-.12"/></svg>