<?xml version="1.0" encoding="UTF-8" standalone="no"?>
<svg
   xml:space="preserve"
   viewBox="0 0 167 35"
   version="1.1"
   id="svg3"
   sodipodi:docname="independent.svg"
   width="167"
   height="35"
   inkscape:version="1.4.1 (1:1.4.1+202503302257+93de688d07)"
   xmlns:inkscape="http://www.inkscape.org/namespaces/inkscape"
   xmlns:sodipodi="http://sodipodi.sourceforge.net/DTD/sodipodi-0.dtd"
   xmlns="http://www.w3.org/2000/svg"
   xmlns:svg="http://www.w3.org/2000/svg"><defs
     id="defs3" /><sodipodi:namedview
     id="namedview3"
     pagecolor="#ffffff"
     bordercolor="#000000"
     borderopacity="0.25"
     inkscape:showpageshadow="2"
     inkscape:pageopacity="0.0"
     inkscape:pagecheckerboard="0"
     inkscape:deskcolor="#d1d1d1"
     inkscape:zoom="2.4371258"
     inkscape:cx="0.61547911"
     inkscape:cy="-46.571253"
     inkscape:window-width="1366"
     inkscape:window-height="740"
     inkscape:window-x="0"
     inkscape:window-y="0"
     inkscape:window-maximized="1"
     inkscape:current-layer="svg3" /><g
     id="g4"><path
       d="m 144.97131,11.434381 c -1.29413,0.003 -2.58869,0 -3.88282,0.0026 0.003,0.02084 0.009,0.06165 0.0122,0.08248 0.24398,0.06425 0.49273,0.120686 0.72238,0.237032 0.61733,0.290863 1.09573,0.818759 1.54722,1.337103 0.0595,0.07467 0.13285,0.137618 0.18234,0.221404 0.005,1.514661 0,3.029756 0.002,4.543982 -0.0113,0.8778 0.0269,1.757337 -0.0273,2.633834 -0.0538,0.596487 -0.14152,1.212076 -0.43325,1.73563 a 1.7213041,1.7213041 0 0 1 -0.70936,0.697639 c -0.29087,0.150641 -0.60908,0.224442 -0.91948,0.310399 v 0.08118 h 4.32388 l -0.001,-0.08248 c -0.34035,-0.09334 -0.68939,-0.177122 -1.00022,-0.358152 -0.40374,-0.227482 -0.67724,-0.650319 -0.8218,-1.102677 -0.25006,-0.778385 -0.26482,-1.61147 -0.26872,-2.425454 -0.0143,-1.98612 -0.0308,-3.97224 -0.0456,-5.95836 2.70981,3.393552 5.41354,6.793182 8.12682,10.183261 l 0.10939,-8.69e-4 c -0.003,-2.700255 0,-5.401378 -8.6e-4,-8.102501 0.009,-0.752772 -0.0391,-1.516398 0.11981,-2.256146 0.0777,-0.359021 0.19883,-0.71891 0.42371,-1.004998 a 1.5485225,1.5485225 0 0 1 0.76145,-0.536578 c 0.24876,-0.08813 0.51054,-0.112873 0.76927,-0.150208 0,-0.02171 0,-0.06468 8.7e-4,-0.08639 l -4.29479,-8.69e-4 v 0.08726 c 0.40243,0.05123 0.82353,0.106361 1.17213,0.345998 0.40721,0.274367 0.64294,0.755377 0.75668,1.240728 0.10767,0.45366 0.14326,0.923383 0.14847,1.390501 0.0174,1.932723 0.0313,3.865011 0.0482,5.797734 -1.09833,-1.377911 -2.19406,-2.759296 -3.29283,-4.137641 -0.77405,-0.978083 -1.55764,-1.94922 -2.3217,-2.936419 -0.43196,-0.572177 -0.86608,-1.147826 -1.20687,-1.788594 z m -102.101772,8.68e-4 -8.68e-4,0.08682 c 0.429784,0.0903 0.889956,0.165836 1.242031,0.467987 0.238768,0.19796 0.390712,0.495336 0.44107,0.811379 0.06599,0.365532 0.03647,0.739748 0.04341,1.109622 v 7.514697 c -0.0022,0.269157 -0.01954,0.541788 -0.108531,0.79575 -0.101586,0.329935 -0.355983,0.586069 -0.646846,0.731066 -0.303019,0.162363 -0.643373,0.210551 -0.971137,0.283918 v 0.08118 l 5.300662,8.68e-4 -0.0013,-0.08248 c -0.435427,-0.09073 -0.900808,-0.166704 -1.255922,-0.473196 -0.268289,-0.222272 -0.408077,-0.575215 -0.445846,-0.92729 -0.03734,-0.365099 -0.01737,-0.733671 -0.02171,-1.100506 -0.0026,-2.448029 0,-4.895189 -0.0022,-7.342784 0.0017,-0.330803 0.02475,-0.672893 0.162363,-0.975912 a 1.2728534,1.2728534 0 0 1 0.551772,-0.5852 c 0.313004,-0.179728 0.668552,-0.234427 1.012379,-0.309097 l -8.69e-4,-0.08682 z m 9.495608,0 c -1.295428,0.0013 -2.589987,0 -3.885415,0.0017 -0.0087,0.06512 0.02214,0.102019 0.08248,0.10419 a 2.8487257,2.8487257 0 0 1 1.11353,0.490561 c 0.481878,0.355114 0.881273,0.818325 1.271985,1.280233 -0.0043,2.000446 -0.0013,4.001761 -0.0017,6.003075 0.0065,0.782293 -0.0087,1.579346 -0.22314,2.334288 -0.132408,0.466684 -0.383332,0.915135 -0.780122,1.177346 -0.329935,0.221404 -0.717608,0.308229 -1.090521,0.410682 v 0.08118 c 1.442596,0 2.884758,0 4.32692,-8.68e-4 v -0.08248 c -0.47146,-0.127198 -0.979385,-0.247451 -1.339709,-0.620798 -0.257436,-0.258738 -0.417628,-0.605604 -0.520515,-0.961152 -0.209682,-0.73367 -0.227916,-1.507714 -0.23052,-2.267867 -0.01476,-1.998709 -0.03039,-3.996985 -0.04602,-5.99526 l 3.226414,4.046041 c 1.634914,2.044727 3.261579,4.097702 4.900833,6.138522 0.02692,0 0.08075,-0.0013 0.106795,-0.0017 v -9.106197 c 0.0017,-0.438466 -0.01563,-0.881708 0.06425,-1.31453 0.07988,-0.474498 0.28522,-0.946391 0.655528,-1.241596 0.349471,-0.281313 0.797053,-0.383766 1.228573,-0.387239 0.540051,-0.01216 1.12308,0.142393 1.495125,0.584331 0.413721,0.485352 0.510531,1.171703 0.516608,1.803354 8.69e-4,2.517489 8.69e-4,5.034543 4.35e-4,7.551598 4.34e-4,0.348168 -0.04124,0.710662 -0.207512,1.017588 -0.16627,0.297809 -0.458436,0.48839 -0.762323,0.591712 -0.24311,0.08813 -0.500111,0.111135 -0.749733,0.167138 l -0.01346,0.07814 c 1.47038,0.0022 2.941194,0 4.411574,4.34e-4 0.922515,-0.0069 1.855015,0.04819 2.765374,-0.152378 1.219022,-0.239636 2.392027,-0.853923 3.240306,-1.826362 0.810077,-0.900808 1.29456,-2.10507 1.416983,-3.339286 0.127199,-1.258962 -0.102887,-2.573057 -0.718476,-3.664446 -0.583464,-1.050582 -1.516832,-1.858488 -2.574793,-2.316489 -0.808774,-0.372045 -1.692218,-0.529632 -2.568281,-0.571308 -0.716306,-0.02171 -1.432612,-0.0074 -2.148917,-0.01129 -2.755823,0 -5.512515,0 -8.269206,-8.69e-4 l -8.68e-4,0.08726 c 0.392449,0.05817 0.799657,0.09985 1.158244,0.293469 0.302151,0.160626 0.536578,0.444977 0.66725,0.774044 0.224008,0.556548 0.250056,1.173005 0.251792,1.769926 0.01737,1.979608 0.03126,3.959216 0.04819,5.938825 -1.113964,-1.397882 -2.224889,-2.798368 -3.338852,-4.195815 -0.74409,-0.939445 -1.496862,-1.871511 -2.230098,-2.820941 -0.448451,-0.589542 -0.898638,-1.183424 -1.248977,-1.846767 z m 32.566292,0 -0.0052,0.08726 c 0.154115,0.0343 0.309097,0.06512 0.463645,0.102888 0.388976,0.09247 0.792278,0.273499 1.022798,0.637729 0.228784,0.359455 0.244412,0.811379 0.236598,1.230743 0.0026,2.552219 0,5.103569 0.0017,7.655788 -0.0017,0.334276 0.01302,0.678102 -0.08509,1.000657 a 1.2502789,1.2502789 0 0 1 -0.573045,0.749299 c -0.325593,0.199697 -0.703281,0.258738 -1.064907,0.336881 v 0.08118 l 5.506436,8.68e-4 8.69e-4,-0.08292 c -0.353378,-0.07944 -0.710662,-0.148037 -1.05145,-0.277406 -0.266119,-0.09942 -0.530935,-0.258738 -0.675064,-0.525291 -0.17582,-0.336881 -0.181464,-0.734539 -0.18841,-1.109188 -0.0022,-3.267222 0,-6.533576 -0.0026,-9.801232 0.377689,0.0043 0.75885,-0.01823 1.133065,0.04949 0.374216,0.06295 0.741051,0.197526 1.059264,0.420666 0.458436,0.309097 0.795317,0.794014 0.997619,1.324949 0.276537,0.745826 0.321252,1.568926 0.234427,2.359033 -0.08899,0.728027 -0.348168,1.458659 -0.850884,1.977872 -0.527462,0.564362 -1.293691,0.803998 -2.02823,0.79575 l 8.68e-4,0.09724 0.590409,8.68e-4 c 0.728027,0.0061 1.464737,-0.101151 2.146747,-0.383332 0.524856,-0.224442 1.024534,-0.542656 1.405695,-0.992843 0.557416,-0.623403 0.846977,-1.498598 0.795316,-2.356428 a 3.2324918,3.2324918 0 0 0 -0.754508,-1.955732 c -0.435427,-0.520949 -1.017588,-0.887784 -1.634913,-1.10832 -0.742354,-0.277839 -1.538104,-0.327764 -2.31866,-0.315608 -1.454317,-4.34e-4 -2.908635,8.68e-4 -4.362952,-8.69e-4 z m 20.202852,0 -0.003,0.08509 c 0.38724,0.08248 0.7697,0.217062 1.10224,0.449319 0.52008,0.355982 0.94032,0.848279 1.3523,1.332762 0.0152,1.829836 0.002,3.662276 0.007,5.492545 -0.003,0.902979 0.0373,1.822021 -0.1832,2.703294 -0.11418,0.479273 -0.33471,0.953772 -0.71718,1.252449 -0.30649,0.247451 -0.68722,0.348602 -1.05318,0.448451 -0.063,0.02171 -0.1628,0.01563 -0.14327,0.117648 1.44694,0.0022 2.89388,0.0022 4.34038,0 0.0174,-0.107229 -0.0903,-0.09681 -0.15541,-0.120253 -0.34383,-0.09638 -0.69764,-0.191883 -0.99372,-0.409379 -0.37551,-0.264382 -0.60343,-0.70415 -0.72802,-1.153469 -0.21924,-0.784898 -0.22141,-1.612339 -0.22488,-2.424152 l -0.0456,-5.819006 c 1.04624,1.313227 2.09465,2.624717 3.14132,3.93751 1.65576,2.078589 3.31889,4.150231 4.96856,6.234029 0.0399,0.0056 0.0825,0.01129 0.12633,0.01606 -0.003,-3.084021 4.3e-4,-6.168911 -8.7e-4,-9.252932 -8.7e-4,-0.379425 -0.005,-0.76102 0.0586,-1.13567 0.059,-0.362928 0.1832,-0.722818 0.40287,-1.01151 0.33775,-0.457568 0.90211,-0.645544 1.43217,-0.653792 0.56784,-0.02388 1.1882,0.134144 1.57153,0.609945 0.42328,0.524857 0.49968,1.250713 0.49491,1.916226 -10e-4,2.470169 4.3e-4,4.941641 0,7.412244 -0.002,0.345129 -0.0365,0.705886 -0.20404,1.009774 -0.15846,0.292599 -0.44107,0.485785 -0.73671,0.590409 -0.25049,0.09507 -0.51661,0.119818 -0.77578,0.174518 -0.003,0.01954 -0.009,0.05991 -0.013,0.07944 1.8433,0.003 3.68659,8.68e-4 5.52945,0.0017 0.91687,0.0074 1.84286,-0.125896 2.7059,-0.464513 a 5.6210455,5.6210455 0 0 0 2.51749,-1.932289 c 1.32494,-1.833308 1.47949,-4.514896 0.39983,-6.517946 a 5.4265576,5.4265576 0 0 0 -2.61647,-2.385081 c -0.81486,-0.374216 -1.70525,-0.532671 -2.58739,-0.572176 -0.74843,-0.0204 -1.49642,-0.0061 -2.24399,-0.01042 -2.72022,4.34e-4 -5.43958,-0.0013 -8.16024,8.68e-4 -0.01,0.06295 0.0122,0.09421 0.0673,0.09421 0.26916,0.03647 0.54092,0.07814 0.80313,0.158455 0.28913,0.09204 0.56176,0.265685 0.7493,0.521384 0.19753,0.266987 0.30432,0.595619 0.37031,0.924686 0.10289,0.528329 0.0907,1.070551 0.0955,1.607129 0.0161,1.851975 0.0291,3.704385 0.0451,5.556795 l -3.22946,-4.058197 c -0.78272,-0.989804 -1.57717,-1.970058 -2.34774,-2.970281 -0.44715,-0.5852 -0.89256,-1.176043 -1.23986,-1.835044 -1.29282,0 -2.58608,0 -3.87891,-8.69e-4 z m 25.26823,0 -0.002,0.08596 c 0.36467,0.08292 0.74322,0.141091 1.07576,0.332974 0.25657,0.144129 0.4719,0.388107 0.55655,0.687653 0.10593,0.327764 0.0933,0.679839 0.0946,1.021929 v 7.863299 c 0,0.322555 -0.0326,0.653358 -0.15932,0.949431 a 1.2689462,1.2689462 0 0 1 -0.64425,0.635124 c -0.28956,0.13892 -0.60907,0.165402 -0.91643,0.225745 -0.003,0.01997 -0.009,0.05991 -0.0122,0.07944 3.2911,0.0026 6.58176,8.68e-4 9.87286,8.68e-4 -8.6e-4,-1.122212 8.7e-4,-2.24399 -8.6e-4,-3.365768 -0.089,-0.01302 -0.11592,0.07814 -0.15325,0.141525 -0.24572,0.434124 -0.48752,0.869551 -0.7328,1.303242 -0.30953,0.551338 -0.72499,1.052318 -1.25983,1.363151 -0.64772,0.380293 -1.40353,0.469723 -2.13155,0.475801 -0.3612,-0.0048 -0.72933,0.02865 -1.08184,-0.0712 -0.28522,-0.07814 -0.54917,-0.26525 -0.69808,-0.539183 -0.18233,-0.34209 -0.22921,-0.742353 -0.23008,-1.129592 -8.7e-4,-1.416983 0,-2.833965 0,-4.251382 0.4758,0.01389 0.9529,0.01172 1.42914,0.0356 0.35945,0.02474 0.72933,0.05036 1.06577,0.200131 0.26959,0.115044 0.4897,0.33254 0.65032,0.586937 0.32386,0.522686 0.46625,1.139143 0.65292,1.725211 l 0.079,-0.0056 c -0.004,-1.738235 0,-3.476904 -0.003,-5.214705 l -0.0729,0.01302 c -0.19275,0.587805 -0.32429,1.214681 -0.659,1.737801 -0.17192,0.283484 -0.43413,0.50619 -0.73498,0.614721 -0.31517,0.117213 -0.65118,0.1463 -0.98199,0.167138 -0.47536,0.02692 -0.95116,0.02388 -1.4261,0.03733 v -5.619309 h 1.39137 c 0.72369,0.01085 1.46778,0.05079 2.14762,0.340354 0.58303,0.239637 1.05405,0.721081 1.37183,1.286746 0.29998,0.544392 0.57522,1.103978 0.86912,1.651844 l 0.0781,-0.0069 c -0.003,-1.120042 0.001,-2.238781 -0.003,-3.359257 -3.14437,0.0017 -6.2883,0 -9.43266,0 z M 2.535455,11.436118 c 0,1.240728 8.683e-4,2.481022 0,3.72175 l 0.1536801,0.0013 c 0.2109846,-0.546997 0.4089454,-1.098335 0.6225347,-1.64403 0.2027362,-0.500545 0.4384659,-1.008471 0.825705,-1.378345 0.2982436,-0.287825 0.6893899,-0.447149 1.0844433,-0.501414 0.3933169,-0.05296 0.7901068,-0.03039 1.1851602,-0.03473 l -4.341e-4,9.202139 c 0.00174,0.306926 -0.00217,0.620798 -0.094205,0.915135 a 1.1795166,1.1795166 0 0 1 -0.5917118,0.732368 c -0.2999801,0.169309 -0.6425044,0.201 -0.972005,0.259607 l -0.00434,0.161928 c 1.7004661,0.0017 3.4009322,0 5.1009642,8.68e-4 L 9.8487182,22.7099 C 9.6967746,22.682984 9.5435286,22.660409 9.3920191,22.630021 9.0334322,22.561863 8.670504,22.394291 8.4499687,22.074341 8.2363794,21.759601 8.1925328,21.356733 8.189494,20.979479 v -9.378828 c 0.3329735,0.0035 0.6668154,-0.01 0.9989207,0.01433 0.3620599,0.02735 0.7271587,0.121555 1.0362553,0.329935 0.271328,0.178859 0.485351,0.439768 0.655962,0.723251 0.256134,0.426745 0.425443,0.902111 0.603868,1.368795 0.139788,0.372045 0.282181,0.743222 0.41893,1.116569 0.05209,0.003 0.10419,0.0056 0.156719,0.0074 0,-1.241597 0,-2.482325 8.68e-4,-3.723921 -3.1751872,-0.0017 -6.3499404,0 -9.5251278,-8.68e-4 z m 10.155477,0 v 0.164967 c 0.256568,0.0738 0.539617,0.127633 0.734539,0.337315 0.169743,0.179293 0.221403,0.442807 0.21793,0.688956 v 9.043683 c 0.0017,0.238769 -0.0382,0.494903 -0.19579,0.675932 -0.191883,0.231389 -0.490561,0.28522 -0.756679,0.362929 v 0.161928 c 1.198184,8.68e-4 2.396368,4.34e-4 3.594552,8.68e-4 V 22.7099 c -0.238769,-0.0712 -0.499243,-0.117214 -0.691995,-0.296073 -0.202302,-0.179728 -0.263513,-0.475367 -0.259606,-0.74409 0.0013,-1.711753 -8.69e-4,-3.423507 0,-5.13526 0.312569,-0.244412 0.645543,-0.473196 1.022797,-0.586068 0.438466,-0.142827 0.933368,-0.10419 1.333631,0.14109 0.33992,0.206644 0.575649,0.573045 0.682444,0.968966 0.144563,0.495337 0.10419,1.019325 0.110268,1.530724 0,1.037558 8.68e-4,2.075116 0,3.112673 0,0.233559 -0.05166,0.483181 -0.205775,0.658567 -0.194488,0.220102 -0.484049,0.274367 -0.746695,0.349471 v 0.162796 c 1.198184,0 2.395934,0 3.593684,-8.68e-4 4.34e-4,-0.05427 0.0013,-0.108531 0.0026,-0.161928 -0.266986,-0.07641 -0.56523,-0.132408 -0.757981,-0.362929 -0.16844,-0.190146 -0.200132,-0.464513 -0.196659,-0.714569 v -3.459105 c 0,-0.359021 0.0074,-0.720212 -0.04254,-1.076194 -0.07033,-0.5852 -0.283049,-1.170834 -0.682444,-1.591501 -0.41893,-0.442807 -1.011944,-0.65987 -1.594973,-0.682444 a 2.3434046,2.3434046 0 0 0 -1.432612,0.401999 3.4070099,3.4070099 0 0 0 -1.087048,1.130895 c 0.0035,-1.640123 0.0013,-3.279812 0.0017,-4.920368 h -2.642951 z m 70.498798,0 c -3.147404,4.34e-4 -6.294373,-0.0013 -9.441342,8.68e-4 l 0.01172,0.08335 c 0.365967,0.08986 0.748865,0.143261 1.08097,0.342524 0.247017,0.14413 0.457134,0.378991 0.540486,0.669854 0.118516,0.352944 0.09117,0.733671 0.09551,1.102243 l 8.68e-4,7.793839 c 0.0013,0.325159 -0.03386,0.657699 -0.162796,0.956376 a 1.285443,1.285443 0 0 1 -0.713701,0.658133 c -0.268289,0.114175 -0.559587,0.135881 -0.840466,0.194922 l -0.01346,0.07901 c 3.289796,0.0026 6.580026,0 9.869388,8.68e-4 -8.68e-4,-1.122212 0.0035,-2.244424 8.69e-4,-3.366202 -0.05427,-0.0035 -0.09117,0.01823 -0.110702,0.06686 -0.211419,0.385503 -0.429783,0.766664 -0.642505,1.151299 -0.185371,0.334276 -0.382029,0.665079 -0.632085,0.949864 a 2.9129761,2.9129761 0 0 1 -0.98199,0.75885 c -0.611681,0.288259 -1.291086,0.353378 -1.952692,0.356851 -0.381596,-0.0048 -0.775781,0.03169 -1.141748,-0.105927 A 1.1235145,1.1235145 0 0 1 77.54611,22.598764 c -0.175821,-0.346866 -0.211419,-0.748431 -0.216194,-1.136104 -4.34e-4,-1.40613 8.68e-4,-2.811825 -0.0017,-4.218389 0.395054,0.01129 0.790975,0.01302 1.186463,0.02561 0.455397,0.02301 0.930329,0.02952 1.354035,0.23052 0.340353,0.158022 0.586936,0.477537 0.751035,0.823535 0.224443,0.465381 0.354246,0.971571 0.509662,1.466039 l 0.07988,-8.69e-4 c -0.0013,-1.737366 -8.68e-4,-3.473431 -8.68e-4,-5.210363 l -0.07988,0.0013 c -0.13371,0.448017 -0.251792,0.902979 -0.437597,1.330592 -0.144564,0.33992 -0.349471,0.666815 -0.650319,0.870854 -0.298678,0.203604 -0.658133,0.267421 -1.005433,0.301717 -0.567401,0.0521 -1.137406,0.04168 -1.706978,0.05948 0.0043,-1.873248 0,-3.746496 0,-5.619743 0.755377,0.0082 1.512056,-0.02605 2.265697,0.03951 0.498375,0.05209 1.002828,0.147602 1.455619,0.385068 0.393317,0.200566 0.733671,0.511833 0.991541,0.884312 0.169309,0.232691 0.298678,0.4936 0.434559,0.749733 0.21055,0.407209 0.421101,0.813984 0.635992,1.219022 l 0.07814,-0.0017 z m 20.70167,0 c -3.14741,0 -6.293943,-8.69e-4 -9.441346,8.68e-4 l 0.01172,0.08335 c 0.375084,0.09203 0.770137,0.1463 1.10832,0.357719 0.231389,0.144563 0.431954,0.367703 0.512702,0.645109 0.132408,0.400697 0.09203,0.832217 0.09941,1.248976 v 7.48127 c 0.0022,0.328198 -0.0026,0.66421 -0.105926,0.978516 -0.108531,0.364231 -0.390712,0.651187 -0.720647,0.790107 -0.283049,0.131106 -0.593883,0.155417 -0.892994,0.215326 a 2.7054646,2.7054646 0 0 0 -0.01302,0.07988 c 3.289796,0.0022 6.580031,0 9.869821,8.68e-4 -8.7e-4,-1.122212 0.002,-2.244424 8.7e-4,-3.366202 -0.0187,0.0035 -0.056,0.01042 -0.0747,0.01302 -0.28044,0.481878 -0.54569,0.974175 -0.82266,1.45779 -0.30606,0.531803 -0.70633,1.021061 -1.2251,1.325383 -0.65293,0.390712 -1.41959,0.482312 -2.15717,0.487522 -0.334276,-0.0048 -0.672893,0.02431 -1.00196,-0.05209 -0.306058,-0.06512 -0.598224,-0.249188 -0.762323,-0.538315 -0.192751,-0.343827 -0.240071,-0.75364 -0.241807,-1.147825 -8.68e-4,-1.417851 0,-2.835268 0,-4.253119 0.46104,0.01302 0.921646,0.01259 1.382253,0.03299 0.373781,0.02431 0.757987,0.04775 1.108317,0.201868 0.27133,0.114609 0.49404,0.333408 0.65466,0.589541 0.32126,0.524857 0.46929,1.139143 0.65423,1.726948 l 0.0729,-0.01085 c 0.008,-1.736933 0.002,-3.474733 0.003,-5.2121 l -0.0738,0.01085 c -0.19276,0.591278 -0.32473,1.220758 -0.66291,1.744313 a 1.4425961,1.4425961 0 0 1 -0.73801,0.612115 c -0.31344,0.115478 -0.648153,0.143696 -0.97722,0.164534 -0.474064,0.02735 -0.948996,0.02388 -1.42306,0.0382 -8.68e-4,-1.873248 4.34e-4,-3.746496 0,-5.619743 0.430651,-8.69e-4 0.861303,0 1.292389,0 0.766231,0.0069 1.556341,0.0382 2.274811,0.352509 0.56957,0.242241 1.02888,0.715871 1.34232,1.270248 0.29998,0.544827 0.57434,1.105282 0.86825,1.654015 l 0.079,-8.68e-4 z m 50.67623,0 c 0.001,1.292389 -0.002,2.585212 0.003,3.877601 0.0951,0.0191 0.10637,-0.08769 0.13632,-0.156285 0.15194,-0.406775 0.30389,-0.81355 0.458,-1.21989 0.22401,-0.587805 0.47059,-1.184292 0.87954,-1.65662 a 2.0916124,2.0916124 0 0 1 1.21207,-0.69894 c 0.43934,-0.08856 0.88866,-0.05123 1.33277,-0.05948 0.002,3.301952 0.001,6.603036 0.001,9.904553 0.001,0.328199 -0.033,0.665079 -0.16627,0.965059 a 1.2758922,1.2758922 0 0 1 -0.67289,0.635559 c -0.28175,0.12416 -0.58607,0.154982 -0.88388,0.207946 v 0.08248 h 5.29936 l 8.7e-4,-0.08248 c -0.30736,-0.05427 -0.62341,-0.08682 -0.91167,-0.219667 a 1.261132,1.261132 0 0 1 -0.68418,-0.718043 c -0.12806,-0.342958 -0.1324,-0.716305 -0.12893,-1.079667 0,-3.231624 0,-6.463682 -0.002,-9.69574 0.23009,4.35e-4 0.46017,-8.68e-4 0.69113,0 0.5127,-8.68e-4 1.04624,0.09464 1.47863,0.405473 0.49316,0.350773 0.80313,0.913832 1.0458,1.475589 0.26178,0.623403 0.47884,1.266776 0.72933,1.895823 l 0.0786,0.01346 c -8.7e-4,-1.291954 -0.002,-2.584777 -0.002,-3.876732 z m -89.478726,0.08682 h 1.478629 c 0.652055,-0.003 1.309319,0.103321 1.917094,0.360323 a 3.9783179,3.9783179 0 0 1 1.509451,1.120042 c 0.435427,0.521817 0.746695,1.152166 0.950299,1.813338 0.237466,0.767966 0.334276,1.578477 0.348602,2.384646 0.01172,0.730198 -0.04037,1.463 -0.185805,2.178004 -0.148471,0.716305 -0.392449,1.419587 -0.787502,2.024757 -0.372479,0.581293 -0.885615,1.060132 -1.48297,1.364453 -0.682878,0.350339 -1.450844,0.477972 -2.204051,0.467987 -0.314306,0.0026 -0.646845,0.0035 -0.931631,-0.157587 -0.261777,-0.142393 -0.447148,-0.418062 -0.514004,-0.720213 -0.08596,-0.313004 -0.09768,-0.64207 -0.09811,-0.966362 v -9.869823 z m 56.647186,0 h 1.48905 c 0.72325,-0.0022 1.45562,0.132408 2.11635,0.453226 a 4.0408319,4.0408319 0 0 1 1.46691,1.241596 c 0.40895,0.550036 0.68505,1.200789 0.8613,1.873682 0.20751,0.787068 0.27958,1.608432 0.2722,2.423283 -0.01,0.828744 -0.10202,1.662264 -0.33428,2.455409 -0.20838,0.713701 -0.53831,1.399184 -1.0267,1.942708 a 3.7499684,3.7499684 0 0 1 -1.54462,1.050581 c -0.50836,0.184069 -1.04624,0.266119 -1.58238,0.272197 -0.33645,-0.0026 -0.68722,0.02778 -1.0063,-0.108532 -0.25396,-0.104189 -0.46017,-0.325593 -0.56046,-0.59475 -0.12633,-0.351207 -0.15194,-0.730632 -0.15107,-1.103545 z m -96.656978,3.300649 a 3.1838699,3.1838699 0 0 0 -1.634045,0.474064 c -0.502282,0.310399 -0.91774,0.768835 -1.211642,1.300637 -0.566098,1.005433 -0.693731,2.238347 -0.494902,3.377924 0.115043,0.681576 0.370742,1.344918 0.784897,1.883233 a 3.110937,3.110937 0 0 0 1.444767,1.059264 3.5580853,3.5580853 0 0 0 1.77036,0.143261 c 0.713701,-0.129369 1.376609,-0.530501 1.858488,-1.103111 0.320384,-0.385503 0.593014,-0.836124 0.704584,-1.341445 a 6.668154,6.668154 0 0 0 -0.143261,-0.05948 c -0.345563,0.777083 -1.10094,1.32408 -1.905807,1.391369 -0.561758,0.04385 -1.142616,-0.09724 -1.6093,-0.439334 -0.48101,-0.338617 -0.821364,-0.864342 -1.031046,-1.42827 -0.250056,-0.692863 -0.323857,-1.448674 -0.272196,-2.185383 1.612773,-0.01433 3.226414,-0.0022 4.839621,-0.0069 0.0013,-0.471893 -0.07293,-0.949865 -0.266119,-1.378346 A 2.6967821,2.6967821 0 0 0 26.777407,15.227328 C 26.260799,14.927782 25.663878,14.8097 25.079112,14.823592 Z m 0.100717,0.177123 c 0.171045,0.0061 0.340354,0.04602 0.494902,0.12633 0.260475,0.13892 0.455831,0.394619 0.557416,0.681576 0.24528,0.596487 0.224876,1.262434 0.224442,1.899729 H 23.33914 c 0.07728,-0.633822 0.190147,-1.278497 0.484049,-1.843727 0.184069,-0.357285 0.476669,-0.66942 0.849582,-0.790975 0.162363,-0.05209 0.336013,-0.07901 0.507058,-0.07293 z"
       id="path1"
       style="stroke-width:0.434125" /><path
       id="path2"
       style="stroke-width:0.434125;fill:#ed1b2f;fill-opacity:1"
       d="M 36.705078 11.423828 A 5.3440739 5.3440739 0 0 0 36.070312 11.445312 L 36.070312 11.443359 C 34.299952 11.593566 32.631712 12.706234 31.730469 14.332031 C 31.067131 15.479857 30.804216 16.874269 30.972656 18.207031 A 6.1793297 6.1793297 0 0 0 32.298828 21.333984 C 32.827592 21.978224 33.482042 22.506866 34.214844 22.859375 C 35.709969 23.619962 37.529403 23.549658 38.998047 22.75 C 39.833303 22.30893 40.564116 21.645362 41.105469 20.837891 C 41.922057 19.642311 42.308631 18.120337 42.144531 16.650391 C 42.000402 15.338467 41.408398 14.098082 40.533203 13.166016 A 5.7729891 5.7729891 0 0 0 38.558594 11.810547 A 5.3440739 5.3440739 0 0 0 36.705078 11.423828 z M 33.048828 13.080078 C 33.132618 13.298442 33.201589 13.523172 33.279297 13.744141 C 33.301867 13.828361 33.374337 13.878242 33.431641 13.935547 C 33.657385 14.144795 33.874082 14.36367 34.101562 14.570312 C 34.435404 14.774786 34.792677 14.937672 35.126953 15.142578 C 35.502905 15.678288 35.859725 16.230132 36.234375 16.767578 A 5.9475072 5.9475072 0 0 0 36.693359 17.179688 C 36.633019 17.082007 36.563817 16.990037 36.496094 16.898438 C 36.648037 16.850687 36.803786 16.820113 36.953125 16.763672 C 36.812903 16.749342 36.671038 16.744369 36.53125 16.730469 C 36.730948 16.678369 36.938541 16.656696 37.138672 16.605469 C 36.892524 16.570739 36.64133 16.57422 36.396484 16.53125 C 36.668246 16.4835 36.941129 16.435556 37.212891 16.384766 C 37.377858 16.347426 37.533819 16.438584 37.695312 16.458984 C 37.575494 16.393434 37.454239 16.325748 37.326172 16.279297 C 37.136026 16.272797 36.945571 16.291276 36.755859 16.285156 C 36.955556 16.235236 37.159676 16.19228 37.363281 16.160156 C 37.50003 16.184466 37.626706 16.256069 37.761719 16.292969 A 4.0095749 4.0095749 0 0 0 37.414062 16.054688 C 37.273406 16.031247 37.131324 16.043621 36.990234 16.025391 C 37.144782 15.994131 37.300963 15.960716 37.458984 15.947266 C 37.598772 15.999366 37.725446 16.08484 37.865234 16.138672 C 37.761044 16.026667 37.654322 15.915605 37.541016 15.814453 C 37.41729 15.786673 37.286052 15.811601 37.160156 15.800781 C 37.306456 15.748251 37.460687 15.722449 37.611328 15.685547 C 37.741999 15.797552 37.866941 15.915558 38.001953 16.021484 C 37.907313 15.862594 37.804058 15.710538 37.705078 15.554688 C 37.593508 15.532977 37.482012 15.511516 37.373047 15.478516 C 37.510664 15.466366 37.648623 15.462892 37.787109 15.451172 C 37.917346 15.608325 38.034259 15.775138 38.167969 15.929688 C 38.084619 15.727386 37.993509 15.529775 37.90625 15.330078 C 37.785563 15.285358 37.662353 15.247193 37.542969 15.201172 C 37.694912 15.195572 37.847622 15.222002 38 15.232422 C 38.120252 15.439934 38.226101 15.656421 38.351562 15.861328 C 38.285573 15.626033 38.212039 15.393281 38.138672 15.160156 C 38.132572 15.109796 38.080745 15.105261 38.046875 15.087891 C 37.924018 15.041001 37.798203 15.00066 37.679688 14.943359 C 37.861151 14.965069 38.040541 15.008456 38.220703 15.041016 C 38.326195 15.29194 38.41165 15.552462 38.529297 15.796875 C 38.470687 15.513391 38.398668 15.233353 38.333984 14.951172 C 38.17987 14.851752 38.015875 14.77216 37.869141 14.660156 C 38.058853 14.725276 38.241711 14.809011 38.429688 14.882812 C 38.523888 15.163256 38.603709 15.44959 38.707031 15.726562 C 38.659281 15.417032 38.596801 15.109009 38.542969 14.800781 C 38.373227 14.662729 38.189923 14.543219 38.029297 14.392578 C 38.234638 14.501978 38.430511 14.62671 38.632812 14.742188 C 38.715292 15.036089 38.779058 15.335873 38.875 15.625 A 21.478749 21.478749 0 0 0 38.732422 14.689453 C 38.570059 14.49757 38.363318 14.347698 38.195312 14.160156 C 38.412808 14.301246 38.616923 14.464376 38.830078 14.613281 C 38.890418 14.914129 38.955283 15.214993 39.007812 15.517578 C 39.006512 15.197628 38.963548 14.877892 38.929688 14.560547 C 38.761682 14.340012 38.561886 14.145013 38.392578 13.925781 C 38.607903 14.108981 38.825042 14.297264 39.023438 14.5 C 39.085948 14.784786 39.102844 15.079798 39.171875 15.363281 C 39.162775 15.055921 39.133464 14.749851 39.115234 14.443359 C 38.945925 14.207195 38.769785 13.976183 38.607422 13.734375 C 38.814066 13.947096 39.012543 14.171174 39.207031 14.396484 C 39.251751 14.632648 39.269951 14.872993 39.300781 15.111328 L 39.322266 15.115234 C 39.305766 14.886884 39.304472 14.658036 39.294922 14.429688 A 0.22834954 0.22834954 0 0 0 39.263672 14.308594 C 39.119542 14.067655 38.966828 13.833822 38.826172 13.589844 C 39.016752 13.819062 39.187895 14.064833 39.363281 14.306641 C 39.411031 14.488105 39.404278 14.682251 39.455078 14.863281 C 39.449878 14.664886 39.449454 14.463152 39.427734 14.265625 C 39.330494 14.00298 39.203797 13.753314 39.107422 13.490234 C 39.240264 13.693405 39.345893 13.916837 39.46875 14.126953 C 39.55254 14.249376 39.535156 14.407738 39.566406 14.548828 C 39.582906 14.386031 39.610033 14.217918 39.564453 14.058594 C 39.515393 13.850214 39.462683 13.641758 39.421875 13.431641 C 39.516515 13.640021 39.584615 13.860197 39.675781 14.070312 C 39.733521 13.866708 39.773203 13.658466 39.826172 13.453125 C 39.840062 13.658466 39.799915 13.861499 39.796875 14.066406 C 39.943609 13.865406 40.062901 13.64349 40.214844 13.447266 C 40.131924 13.64349 40.030618 13.830685 39.947266 14.027344 C 40.162157 13.874966 40.364969 13.704026 40.582031 13.554688 C 40.366271 13.871598 40.143711 14.183306 39.925781 14.498047 C 39.818552 14.670394 39.668634 14.817446 39.607422 15.017578 C 39.495418 15.340132 39.38479 15.662689 39.271484 15.984375 C 39.250644 16.047755 39.211598 16.104595 39.150391 16.128906 C 38.922041 16.232228 38.688201 16.323328 38.458984 16.425781 C 38.363474 16.468761 38.305357 16.56444 38.220703 16.623047 C 38.009284 16.666457 37.790629 16.667524 37.580078 16.714844 C 37.792799 16.742194 38.009067 16.712062 38.222656 16.732422 C 38.344211 16.769322 38.458306 16.828985 38.578125 16.875 C 38.671465 16.91624 38.779934 16.950283 38.839844 17.044922 C 38.878044 17.101362 38.879112 17.173379 38.888672 17.240234 C 38.978972 17.35137 39.124351 17.451352 39.111328 17.617188 C 39.103528 17.733967 38.995463 17.789921 38.908203 17.832031 C 38.971583 17.711778 38.859621 17.488689 38.728516 17.605469 C 38.765416 17.669719 38.80186 17.733275 38.837891 17.798828 C 38.744121 17.811848 38.649973 17.797542 38.576172 17.732422 C 38.403825 17.729822 38.230508 17.725522 38.058594 17.732422 C 38.16235 17.764552 38.269074 17.782977 38.375 17.804688 C 38.052446 18.224052 37.711443 18.626209 37.390625 19.046875 C 37.514784 18.952235 37.620417 18.835093 37.736328 18.730469 C 37.740628 18.941454 37.706985 19.150344 37.734375 19.361328 C 37.844209 19.46465 37.952447 19.569424 38.072266 19.660156 C 38.134346 19.704436 38.165793 19.778415 38.207031 19.841797 A 0.25830414 0.25830414 0 0 0 38.107422 19.609375 L 38.207031 19.585938 C 38.278661 19.640207 38.328332 19.718298 38.373047 19.796875 C 38.377347 19.703535 38.348107 19.60005 38.253906 19.572266 C 38.573422 19.517136 38.887949 19.428833 39.207031 19.371094 C 39.414108 19.504371 39.623869 19.631047 39.830078 19.765625 C 39.9334 19.829875 39.987645 19.984783 39.919922 20.097656 C 39.853932 20.207923 39.721379 20.226128 39.609375 20.230469 C 39.22995 20.237869 38.852297 20.281233 38.478516 20.347656 C 38.572726 20.250846 38.67294 20.162132 38.763672 20.060547 C 38.530981 20.217266 38.29997 20.381267 38.046875 20.498047 C 37.823735 20.597897 37.60096 20.697892 37.380859 20.804688 C 37.518476 20.655783 37.672497 20.52434 37.802734 20.367188 C 37.432426 20.652842 37.075399 20.970663 36.646484 21.154297 C 36.444616 21.239817 36.250486 21.390412 36.023438 21.373047 C 35.854129 21.346127 35.698169 21.26542 35.537109 21.208984 C 35.430748 21.164704 35.317513 21.136513 35.220703 21.072266 C 35.140823 21.014526 35.134719 20.866765 35.224609 20.816406 C 35.343993 20.755626 35.474581 20.725268 35.599609 20.679688 C 35.7776 20.762168 35.957427 20.843948 36.132812 20.931641 C 36.216603 20.973751 36.22005 21.078973 36.21875 21.164062 A 0.21489168 0.21489168 0 0 0 36.136719 20.888672 C 35.871816 20.725053 35.606613 20.563622 35.341797 20.400391 A 34.898843 34.898843 0 0 1 36.638672 20 C 36.683822 20.01736 36.728938 20.035374 36.775391 20.052734 C 36.665558 19.955054 36.560578 19.842894 36.423828 19.789062 A 12.078215 12.078215 0 0 1 36.363281 19.615234 L 36.289062 19.578125 C 36.256073 19.440073 36.232866 19.299727 36.197266 19.162109 C 36.1977 19.311882 36.214832 19.460471 36.226562 19.609375 C 36.150593 19.655395 36.074019 19.69899 35.998047 19.744141 C 35.995447 19.553127 36.002987 19.36289 35.992188 19.171875 C 35.957028 19.371572 35.946842 19.574391 35.919922 19.775391 L 35.617188 19.835938 C 35.649318 19.618441 35.69205 19.402827 35.716797 19.183594 C 35.634317 19.399354 35.584868 19.626687 35.517578 19.847656 L 35.220703 19.871094 C 35.290163 19.633627 35.377591 19.400661 35.4375 19.160156 C 35.31855 19.38156 35.227672 19.618873 35.115234 19.84375 C 35.113607 19.849719 35.110158 19.857169 35.107422 19.861328 C 35.106677 19.862268 35.102364 19.866342 35.101562 19.867188 L 35.099609 19.869141 C 35.098705 19.869813 35.094701 19.872453 35.09375 19.873047 C 35.071884 19.884502 35.040561 19.879101 35.017578 19.884766 C 34.947688 19.889966 34.877185 19.893248 34.808594 19.898438 C 34.9219 19.652722 35.046418 19.411297 35.152344 19.162109 C 34.981299 19.405219 34.830983 19.664658 34.666016 19.912109 C 34.561826 19.928169 34.458357 19.945961 34.355469 19.962891 C 34.523042 19.6933 34.703523 19.431485 34.863281 19.15625 C 34.65577 19.386336 34.470747 19.638184 34.271484 19.876953 C 34.170333 19.9946 34.084879 20.13062 33.966797 20.230469 C 33.947697 20.156229 34.004336 20.100057 34.035156 20.041016 C 34.268716 19.66463 34.484104 19.27504 34.724609 18.904297 C 35.137027 18.724136 35.560455 18.573607 35.974609 18.396484 C 36.188633 18.325284 36.372828 18.130263 36.382812 17.882812 C 36.340702 17.987002 36.308398 18.102847 36.224609 18.179688 C 36.103923 18.302979 35.93341 18.33397 35.783203 18.396484 C 35.758023 18.343084 35.731341 18.289726 35.707031 18.236328 A 2.8912699 2.8912699 0 0 0 35.871094 18.070312 C 35.726096 18.157132 35.587271 18.256056 35.445312 18.347656 L 35.347656 18.142578 C 35.533462 17.989332 35.734335 17.854638 35.910156 17.6875 C 35.619292 17.860282 35.336218 18.051175 35.048828 18.230469 A 18.657373 18.657373 0 0 1 34.976562 18.011719 C 35.239641 17.819836 35.511879 17.643274 35.767578 17.441406 C 35.419844 17.629382 35.082542 17.8398 34.738281 18.035156 C 34.721351 17.968296 34.705513 17.900405 34.689453 17.833984 C 34.982053 17.632116 35.282054 17.44232 35.570312 17.234375 C 35.20478 17.412366 34.852294 17.621052 34.490234 17.808594 A 4.9129882 4.9129882 0 0 1 34.460938 17.568359 C 34.75701 17.403391 35.052235 17.233545 35.345703 17.0625 C 34.973224 17.198815 34.616835 17.381692 34.25 17.537109 A 17.730951 17.730951 0 0 1 34.242188 17.306641 C 34.536957 17.17293 34.841514 17.06774 35.132812 16.925781 C 34.769016 17.014341 34.411973 17.133441 34.050781 17.232422 L 34.0625 16.978516 C 34.34034 16.904716 34.622551 16.854187 34.896484 16.765625 C 34.54137 16.812945 34.188664 16.868045 33.833984 16.917969 L 33.865234 16.697266 C 34.125708 16.659926 34.388614 16.653439 34.646484 16.599609 C 34.284859 16.596609 33.92456 16.612851 33.5625 16.613281 C 33.5677 16.551201 33.573138 16.490248 33.580078 16.427734 C 33.867468 16.427734 34.155534 16.429269 34.443359 16.417969 C 33.925882 16.352849 33.402459 16.335514 32.882812 16.285156 C 32.972243 16.243916 33.063782 16.212682 33.15625 16.179688 C 32.937886 16.077669 32.710986 15.998938 32.492188 15.900391 C 32.587697 15.889541 32.683355 15.882157 32.779297 15.873047 C 32.591755 15.7376 32.391752 15.623511 32.205078 15.486328 C 32.343998 15.488928 32.482608 15.498909 32.621094 15.505859 C 32.473925 15.344364 32.307324 15.203596 32.164062 15.039062 C 32.240902 15.052082 32.317257 15.067701 32.394531 15.082031 C 32.315521 14.95353 32.193803 14.852247 32.150391 14.701172 C 32.116531 14.595245 32.083342 14.488739 32.050781 14.382812 C 32.136301 14.470073 32.193339 14.585051 32.283203 14.667969 C 32.429069 14.763479 32.57896 14.850459 32.730469 14.935547 C 32.619333 14.721958 32.424485 14.548017 32.394531 14.294922 C 32.370651 14.178143 32.344619 14.062527 32.324219 13.945312 C 32.445774 14.100729 32.516023 14.304444 32.675781 14.423828 C 32.798639 14.526281 32.91729 14.634743 33.041016 14.736328 C 32.942466 14.480628 32.741106 14.263953 32.728516 13.976562 C 32.708116 13.822449 32.677959 13.671042 32.667969 13.515625 C 32.7765 13.700128 32.847848 13.908163 32.962891 14.087891 C 33.149564 14.258936 33.337413 14.429436 33.533203 14.587891 C 33.41599 14.369093 33.282579 14.160638 33.160156 13.945312 C 33.127596 13.893652 33.126951 13.829657 33.119141 13.771484 C 33.096561 13.541398 33.066188 13.311032 33.048828 13.080078 z M 33.435547 14.101562 C 33.545814 14.32557 33.680962 14.533589 33.800781 14.751953 C 33.834641 14.838783 33.927501 14.854594 34 14.886719 C 34.224008 14.972239 34.440054 15.077241 34.667969 15.152344 C 34.428767 14.987377 34.152616 14.893914 33.908203 14.740234 C 33.739763 14.536196 33.611801 14.29822 33.435547 14.101562 z M 33.083984 14.419922 C 33.193818 14.60703 33.318547 14.7849 33.445312 14.958984 C 33.567735 15.021494 33.702445 15.052072 33.830078 15.101562 C 34.000689 15.156693 34.16641 15.232847 34.341797 15.271484 C 34.079586 15.128223 33.795849 15.033233 33.529297 14.900391 C 33.367368 14.754959 33.247215 14.564486 33.083984 14.419922 z M 32.697266 14.626953 C 32.841172 14.821975 32.990901 15.014587 33.150391 15.195312 C 33.500729 15.296898 33.851049 15.401676 34.207031 15.478516 C 33.883174 15.329177 33.533927 15.253937 33.207031 15.113281 C 33.030139 14.960235 32.883161 14.767992 32.697266 14.626953 z M 32.449219 14.910156 C 32.601162 15.102039 32.775569 15.278173 32.945312 15.453125 C 33.354258 15.554711 33.765967 15.653411 34.179688 15.732422 C 33.794618 15.586122 33.388541 15.503285 33 15.369141 C 32.808117 15.22805 32.642838 15.048642 32.449219 14.910156 z M 34.839844 15.300781 C 34.7018 15.355908 34.576844 15.438789 34.445312 15.507812 A 7.762148 7.762148 0 0 0 34.40625 15.375 C 34.40195 15.45141 34.401544 15.528195 34.402344 15.605469 C 34.548644 15.504752 34.702226 15.41539 34.839844 15.300781 z M 35.025391 15.539062 C 34.848708 15.62198 34.681238 15.727412 34.509766 15.820312 A 17.800411 17.800411 0 0 0 34.478516 15.689453 A 1.222929 1.222929 0 0 0 34.46875 15.916016 C 34.654555 15.791856 34.850873 15.681455 35.025391 15.539062 z M 32.53125 15.583984 C 32.731378 15.682092 32.940712 15.774084 33.162109 15.798828 L 34.162109 15.960938 L 34.167969 15.933594 C 33.622293 15.820725 33.078661 15.686437 32.53125 15.583984 z M 35.201172 15.783203 C 35.012774 15.876097 34.836834 15.992604 34.652344 16.09375 L 34.636719 15.994141 A 0.56349374 0.56349374 0 0 1 34.611328 15.996094 C 34.612628 16.059914 34.615088 16.123684 34.617188 16.1875 C 34.812545 16.05379 35.018406 15.936884 35.201172 15.783203 z M 32.980469 15.966797 C 33.201019 16.064148 33.435366 16.135001 33.675781 16.144531 C 33.880688 16.152331 34.086109 16.207044 34.291016 16.183594 A 31.87039 31.87039 0 0 0 32.980469 15.966797 z M 35.404297 16.033203 C 35.219794 16.120033 35.044093 16.226541 34.865234 16.324219 A 8.6065204 8.6065204 0 0 0 34.832031 16.189453 A 1.4881792 1.4881792 0 0 0 34.820312 16.419922 C 35.015668 16.293158 35.21936 16.177767 35.404297 16.033203 z M 35.609375 16.265625 C 35.44571 16.341595 35.289749 16.437047 35.130859 16.523438 C 35.118709 16.477857 35.10677 16.432951 35.09375 16.388672 A 3.9097262 3.9097262 0 0 0 35.085938 16.619141 C 35.261325 16.504532 35.444842 16.398467 35.609375 16.265625 z M 35.808594 16.507812 C 35.672713 16.566852 35.546253 16.646035 35.416016 16.716797 A 20.858819 20.858819 0 0 1 35.382812 16.574219 C 35.371963 16.652359 35.369141 16.733055 35.369141 16.8125 C 35.516309 16.71265 35.674015 16.626329 35.808594 16.507812 z M 35.984375 16.755859 C 35.884973 16.796666 35.790812 16.846998 35.695312 16.896484 C 35.681854 16.856118 35.669709 16.815762 35.65625 16.775391 C 35.65325 16.848321 35.651944 16.921642 35.652344 16.994141 C 35.765216 16.917731 35.880185 16.845288 35.984375 16.755859 z M 37.310547 16.914062 C 37.28781 16.913845 37.262808 16.922521 37.248047 16.931641 A 0.09550741 0.09550741 0 0 0 37.28125 17.017578 A 0.14716824 0.14716824 0 0 0 37.361328 16.945312 C 37.359985 16.941161 37.355743 16.934841 37.353516 16.931641 C 37.352687 16.930673 37.348566 16.926652 37.347656 16.925781 C 37.346671 16.925003 37.342852 16.922563 37.341797 16.921875 C 37.33285 16.917072 37.321915 16.914171 37.310547 16.914062 z M 37.839844 16.923828 C 37.774294 16.925128 37.709215 16.927741 37.644531 16.931641 L 37.720703 16.970703 A 3.2472521 3.2472521 0 0 0 37.6875 17.056641 C 37.73873 17.013661 37.789485 16.96984 37.839844 16.923828 z M 35.894531 16.988281 C 35.88844 17.050699 35.882813 17.11336 35.878906 17.175781 C 35.967743 17.121167 36.056323 17.064783 36.134766 16.994141 A 2.9155809 2.9155809 0 0 0 35.925781 17.085938 L 35.894531 16.988281 z M 38.052734 17 L 38.066406 17.109375 C 38.101566 17.078985 38.137365 17.047968 38.173828 17.017578 A 5.3939983 5.3939983 0 0 1 38.052734 17 z M 38.601562 17.085938 C 38.566403 17.115028 38.51389 17.144953 38.53125 17.203125 C 38.53555 17.284305 38.661233 17.307743 38.693359 17.234375 C 38.706379 17.203985 38.697019 17.166886 38.699219 17.134766 L 38.626953 17.222656 C 38.550983 17.215256 38.599823 17.131085 38.601562 17.085938 z M 36.857422 17.111328 L 36.945312 17.166016 C 36.929682 17.199006 36.915581 17.232195 36.900391 17.265625 C 36.962901 17.216565 37.024075 17.166673 37.083984 17.113281 A 9.7864711 9.7864711 0 0 0 36.857422 17.111328 z M 37.322266 17.167969 L 37.414062 17.21875 L 37.367188 17.316406 C 37.430568 17.269956 37.491306 17.220063 37.550781 17.167969 A 1.7829498 1.7829498 0 0 0 37.322266 17.167969 z M 36.353516 17.171875 A 2.4310978 2.4310978 0 0 0 36.101562 17.285156 C 36.088574 17.253531 36.076149 17.222603 36.064453 17.191406 L 36.054688 17.376953 C 36.156273 17.313133 36.259745 17.248715 36.353516 17.171875 z M 37.738281 17.253906 L 37.828125 17.306641 C 37.813365 17.339201 37.799046 17.37369 37.785156 17.40625 C 37.845936 17.3585 37.907539 17.308822 37.964844 17.255859 A 6.1684766 6.1684766 0 0 0 37.738281 17.253906 z M 38.835938 17.310547 L 38.800781 17.355469 C 38.90801 17.434909 39.021261 17.516243 39.050781 17.662109 C 39.064671 17.50018 38.935352 17.405186 38.835938 17.310547 z M 36.380859 17.408203 C 36.315739 17.434253 36.251967 17.465917 36.189453 17.498047 A 3.1725826 3.1725826 0 0 0 36.164062 17.4375 A 10.254023 10.254023 0 0 0 36.150391 17.585938 C 36.228531 17.529937 36.30836 17.473322 36.380859 17.408203 z M 37.191406 17.433594 C 37.101976 17.442294 37.012389 17.455296 36.923828 17.472656 C 36.960728 17.488286 36.99695 17.504341 37.035156 17.519531 A 4.21535 4.21535 0 0 0 36.996094 17.648438 C 37.063384 17.578978 37.128023 17.506527 37.191406 17.433594 z M 36.744141 17.478516 C 36.680321 17.489366 36.617635 17.501512 36.554688 17.513672 L 36.634766 17.541016 L 36.607422 17.630859 C 36.653872 17.580499 36.699432 17.530177 36.744141 17.478516 z M 37.636719 17.488281 A 3.7178432 3.7178432 0 0 0 37.380859 17.544922 A 5.6436199 5.6436199 0 0 0 37.494141 17.578125 L 37.458984 17.705078 C 37.522364 17.636918 37.581586 17.563819 37.636719 17.488281 z M 38.59375 17.492188 C 38.572742 17.491371 38.553227 17.498041 38.535156 17.517578 L 38.535156 17.519531 C 38.495216 17.558601 38.509934 17.613706 38.527344 17.660156 C 38.538194 17.560306 38.612611 17.530816 38.697266 17.53125 C 38.665791 17.515244 38.628764 17.493549 38.59375 17.492188 z M 37.958984 17.646484 C 37.895 17.649472 37.830705 17.65427 37.767578 17.658203 L 37.845703 17.695312 C 37.837003 17.724403 37.828122 17.754123 37.820312 17.783203 L 37.958984 17.646484 z M 36.365234 17.689453 A 0.38550265 0.38550265 0 0 1 36.205078 17.708984 C 36.201578 17.747624 36.197912 17.7871 36.195312 17.826172 C 36.251753 17.781892 36.309666 17.735474 36.365234 17.689453 z M 36.806641 17.800781 C 36.734142 17.815111 36.65952 17.83181 36.587891 17.849609 L 36.679688 17.882812 L 36.662109 17.978516 C 36.711599 17.921216 36.759751 17.861124 36.806641 17.800781 z M 37.251953 17.816406 A 2.5595987 2.5595987 0 0 0 36.986328 17.898438 L 37.109375 17.921875 L 37.091797 18.044922 C 37.151707 17.973292 37.202897 17.896285 37.251953 17.816406 z M 37.652344 17.890625 C 37.574204 17.907985 37.495894 17.926649 37.419922 17.949219 L 37.529297 17.970703 C 37.519697 18.007603 37.510203 18.04361 37.501953 18.080078 C 37.554483 18.019298 37.60459 17.956612 37.652344 17.890625 z M 37.972656 18.005859 L 37.849609 18.023438 C 37.861329 18.052958 37.873699 18.081808 37.886719 18.111328 C 37.914499 18.076598 37.943566 18.040587 37.972656 18.005859 z M 36.865234 18.146484 C 36.790995 18.166024 36.716594 18.188141 36.644531 18.212891 L 36.742188 18.232422 A 3.1873429 3.1873429 0 0 0 36.724609 18.345703 C 36.772359 18.281453 36.82009 18.213773 36.865234 18.146484 z M 37.341797 18.216797 A 3.051896 3.051896 0 0 0 37.080078 18.310547 C 37.120448 18.316647 37.161878 18.324438 37.203125 18.330078 C 37.197025 18.373488 37.19227 18.415575 37.1875 18.458984 C 37.24307 18.381274 37.294043 18.300583 37.341797 18.216797 z M 37.748047 18.283203 C 37.684667 18.292803 37.621108 18.30208 37.558594 18.3125 L 37.558594 18.314453 L 37.636719 18.351562 L 37.613281 18.433594 C 37.658861 18.384104 37.703769 18.334428 37.748047 18.283203 z M 36.357422 18.373047 A 0.13891988 0.13891988 0 0 1 36.423828 18.488281 A 2.9390236 2.9390236 0 0 1 36.537109 18.373047 C 36.477199 18.374347 36.416897 18.373947 36.357422 18.373047 z M 36.990234 18.498047 A 2.4892705 2.4892705 0 0 0 36.769531 18.550781 L 36.865234 18.576172 A 3.0779435 3.0779435 0 0 0 36.839844 18.685547 C 36.891944 18.624767 36.94248 18.562732 36.990234 18.498047 z M 36.179688 18.587891 C 36.164422 18.588997 36.148603 18.592774 36.136719 18.597656 A 0.07510356 0.07510356 0 0 0 36.154297 18.679688 C 36.192937 18.689688 36.233934 18.647798 36.246094 18.611328 C 36.231444 18.590978 36.205129 18.586047 36.179688 18.587891 z M 37.486328 18.599609 A 8.4697711 8.4697711 0 0 0 37.294922 18.630859 L 37.378906 18.662109 L 37.353516 18.751953 C 37.398666 18.702033 37.442048 18.650402 37.486328 18.599609 z M 36.443359 18.658203 L 36.529297 18.703125 L 36.492188 18.792969 C 36.542977 18.749989 36.594172 18.706386 36.644531 18.662109 A 13.203032 13.203032 0 0 0 36.443359 18.658203 z M 37.128906 18.802734 L 37.003906 18.818359 L 37.003906 18.820312 C 37.016926 18.850703 37.029079 18.879766 37.042969 18.910156 A 7.2064685 7.2064685 0 0 1 37.128906 18.802734 z M 35.509766 18.822266 A 0.17972759 0.17972759 0 0 1 35.519531 18.9375 C 35.557301 18.89843 35.597428 18.862202 35.638672 18.826172 L 35.509766 18.822266 z M 35.869141 18.822266 C 35.890851 18.856996 35.893673 18.893 35.882812 18.931641 C 35.921883 18.895171 35.962663 18.860464 36.003906 18.826172 A 165.72273 165.72273 0 0 1 35.869141 18.822266 z M 36.28125 18.890625 C 36.264383 18.892562 36.249678 18.897622 36.238281 18.904297 A 0.09984866 0.09984866 0 0 0 36.271484 18.992188 A 0.135881 0.135881 0 0 0 36.349609 18.919922 C 36.348022 18.916014 36.34417 18.909306 36.341797 18.90625 L 36.339844 18.904297 C 36.338904 18.903455 36.334991 18.899195 36.333984 18.898438 C 36.320094 18.889655 36.299523 18.888527 36.28125 18.890625 z M 36.625 18.925781 L 36.658203 19.041016 A 2.3182254 2.3182254 0 0 1 36.775391 18.931641 C 36.725032 18.929941 36.674054 18.927981 36.625 18.925781 z M 36.841797 19.107422 C 36.866977 19.279335 36.891481 19.451351 36.925781 19.621094 C 36.999151 19.809938 37.201587 19.889065 37.283203 20.072266 A 0.23442729 0.23442729 0 0 0 37.167969 19.835938 L 37.291016 19.820312 C 37.353526 19.876752 37.401464 19.947468 37.453125 20.015625 A 0.25352877 0.25352877 0 0 0 37.34375 19.798828 C 37.43144 19.778428 37.519295 19.755432 37.607422 19.732422 C 37.471107 19.666002 37.349645 19.536237 37.189453 19.552734 C 37.070937 19.406 36.963352 19.251551 36.841797 19.107422 z M 39.123047 19.609375 C 38.895182 19.625002 38.658649 19.657145 38.447266 19.75 C 38.674996 19.725693 38.9066 19.690489 39.123047 19.609375 z M 37.867188 19.646484 C 37.859639 19.646156 37.853572 19.647813 37.845703 19.648438 C 37.930353 19.707048 37.988919 19.793165 38.044922 19.880859 C 38.057128 19.761203 37.980415 19.651411 37.867188 19.646484 z M 39.417969 19.757812 C 39.104531 19.751713 38.794339 19.826375 38.488281 19.890625 C 38.599851 19.908855 38.713083 19.883668 38.824219 19.867188 C 39.02218 19.832458 39.224349 19.816416 39.417969 19.757812 z M 36.953125 19.892578 C 36.945918 19.892674 36.939129 19.893419 36.931641 19.894531 C 37.010221 19.951401 37.069868 20.03058 37.121094 20.115234 C 37.136966 20.000463 37.061231 19.891143 36.953125 19.892578 z M 38.298828 19.935547 C 38.116495 19.949007 37.928856 19.979797 37.765625 20.072266 C 37.947089 20.048386 38.129519 20.012386 38.298828 19.935547 z M 37.568359 20.138672 C 37.346955 20.176002 37.137634 20.267562 36.925781 20.341797 C 36.682672 20.441207 36.428436 20.521452 36.203125 20.662109 C 36.418885 20.596559 36.626038 20.503055 36.837891 20.425781 C 37.080133 20.325931 37.331327 20.251544 37.568359 20.138672 z M 36.943359 20.142578 C 36.754081 20.166458 36.574693 20.23957 36.394531 20.300781 C 36.239548 20.358951 36.081413 20.411874 35.935547 20.492188 C 36.098778 20.471788 36.252135 20.395409 36.410156 20.347656 C 36.587713 20.279496 36.773617 20.231574 36.943359 20.142578 z M 35.746094 20.833984 C 35.641151 20.87475 35.495124 20.862557 35.427734 20.970703 C 35.619542 21.037972 35.809059 21.110904 36.003906 21.169922 C 35.860645 21.084402 35.707933 21.021718 35.558594 20.949219 C 35.621974 20.912319 35.684882 20.875223 35.746094 20.833984 z " /></g></svg>
