<svg xmlns="http://www.w3.org/2000/svg" viewBox="0 0 167 35">
  <path fill="#fff" d="M145 11h-4v1h1l1 1h1v7l-1 2-1 1h-1 5-1l-1-1v-9l8 11V12h2v-1h-4v1h1l1 1v7l-4-4-2-3-1-2ZM43 11v1h1l1 1v8l-1 1v1h-1 5-1l-1-1v-9l1-1h1v-1h-5Zm9 0h-4l1 1h1l1 1v9l-1 1h-1 4-1l-1-1v-9l3 4 5 7V13l1-1h3v10l-1 1h7a6 6 0 0 0 4-5v-4a5 5 0 0 0-3-2l-3-1h-9v1h1l1 1v7l-3-4-2-3-2-2Zm33 0v1h1l1 1v9l-1 1h-1 5-1V12h2l1 1v3l-1 2h-2v1h1l2-1 1-1 1-2-1-2-1-1-3-1h-4Zm20 0v1h1l2 1v6l-1 2v2h-2 5-1l-1-1v-9l3 4 5 7V12h3l1 2v8l-1 1h-1 8a6 6 0 0 0 3-2v-7l-2-2-3-1h-10v1h1l1 1v7l-3-4-3-3-1-2zm25 0v1h1l1 1v9l-1 1h-1 10v-3l-1 1-1 2h-4v-6h2l1 1 1 2v-5l-1 1-1 1h-2v-5h4l1 1 1 2v-4h-10ZM3 11v4-1l1-2h2v10l-1 1h5-1l-1-1V12h2l1 1 1 1v1-4H3Zm10 0v1l1 1v9h-1v1h3v-1h-1v-5l1-1h2v7h3l-1-1v-5l-1-2h-3l-1 1v-5h-2Zm70 0h-9v1h1v11h-1 10v-3l-1 1-1 1-1 1h-3l-1-2v-4h3l1 1v2-5 1l-1 1h-3v-5h4l1 1v1l1 1v-4Zm21 0H94v1h2v10l-1 1h-1 10v-3l-1 1-1 2h-4v-6h3v1l1 2v-5l-1 1-1 1h-2v-5h4l1 1 1 2v-4Zm51 0v4a61 61 0 0 1 1-3h3v9l-1 1v1h-1 5-1v-1l-1-1v-9h3l1 1v2-4h-9Zm-90 1h3l2 1 1 2v4l-1 2a4 4 0 0 1-1 2h-3l-1-1V12Zm57 0h3l2 1 1 2v5l-1 2-2 1h-3V12Zm-97 3h-2l-1 2a5 5 0 0 0 1 5l1 1h2l2-1v-1l-2 1-1-1-1-1-1-2h5v-2a3 3 0 0 0-1-1h-2Zm0 0h1v3h-3l1-2 1-1Z"/>
  <path fill="#ed1b2f" d="M37 11h-1l-4 3a6 6 0 0 0-1 4l1 3 2 2h5l2-2 1-4a6 6 0 0 0-1-4 6 6 0 0 0-2-1l-2-1Zm-4 2v1l1 1h1l1 2h1-1 1-1l1-1h1-1 1-1 1-1 1l-1-1h1v1-1 1-1l1 1-1-1 1 1v-1l-1-1 1 1v1-1l-1-1 1 1-1-1h1v1-1 1-1 1-2 1l1 1v-1l-1-1 1 1v-1 1-1 1h1-1v1l-1 1h-1v1h1v1s0-1 0 0h-1l-1 1h1v1l1-1 1 1h-2 1-1l-1 1 1-1-1 1h-2 1l-1-1h2-1v-1 1-1 1-1 1h-1v-1 1-1 1h-1l1-1-1 1 1-1 1-1h-1 1-1l1-1-1 1 1-1-1 1v-1h-1 1-1 1-1l1-1h-2l-1-1h1-1v-1 1h1l-1-1h1v1-2 1h1-1v-1Zm0 1 1 1h1-1l-1-1Zm0 0v1h1l-1-1Zm0 1h1-1Zm-1 0h1l1 1-1-1h-1m3 0-1 1v-1 1l1-1Zm0 1h-1 1Zm-2 0h1-1Zm2 0Zm-2 0h1-1Zm3 0-1 1a1 1 0 0 0 0-1v1l1-1Zm0 1h-1 1Zm1 0Zm-1 0zm3 0Zm-2 0zm0 0h1-1Zm1 0zm1 0v1-1m-3 0v1-1m1 0v1-1Zm0 0v1-1Zm1 0-1 1 1-1Zm1 0v1c0 1-1 0 0 0v-1Zm-1 1zm-2 0Zm1 0Zm0 0Zm1 0h-1 1-1 1m0 0Zm-1 0Zm-1 0h1zm1 0v1-1m-1 1Zm1 0Zm-1 0h1-1 1zm1 0Zm-1 0h-1Zm0 0zm0 0Zm1 0Zm0 0v1h1-1v-1Zm2 1h-1 1m0 0h-1 1m-1 0h-1l-1 1 1-1h1Zm-1 0h-1 1Zm-1 1h-1 1"/>
</svg>
