<?xml version="1.0" encoding="UTF-8"?>
<svg id="svg3" xmlns="http://www.w3.org/2000/svg" xmlns:svg="http://www.w3.org/2000/svg" xmlns:sodipodi="http://sodipodi.sourceforge.net/DTD/sodipodi-0.dtd" xmlns:inkscape="http://www.inkscape.org/namespaces/inkscape" version="1.1" viewBox="0 0 167 35">
  <!-- Generator: Adobe Illustrator 30.1.0, SVG Export Plug-In . SVG Version: 2.1.1 Build 136)  -->
  <defs>
    <style>
      .st0 {
        fill: #ed1b2f;
      }

      .st1 {
        fill: #fff;
      }
    </style>
  </defs>
  <sodipodi:namedview id="namedview3" bordercolor="#000000" borderopacity="0.25" inkscape:current-layer="svg3" inkscape:cx="0.61547911" inkscape:cy="-46.571253" inkscape:deskcolor="#d1d1d1" inkscape:pagecheckerboard="0" inkscape:pageopacity="0.0" inkscape:showpageshadow="2" inkscape:window-height="740" inkscape:window-maximized="1" inkscape:window-width="1366" inkscape:window-x="0" inkscape:window-y="0" inkscape:zoom="2.4371258" pagecolor="#ffffff"/>
  <g id="g4">
    <path id="path1" class="st1" d="M144.97,11.43c-1.29,0-2.59,0-3.88,0,0,.02,0,.06.01.08.24.06.49.12.72.24.62.29,1.1.82,1.55,1.34.06.07.13.14.18.22,0,1.51,0,3.03,0,4.54-.01.88.03,1.76-.03,2.63-.05.6-.14,1.21-.43,1.74-.16.3-.41.54-.71.7-.29.15-.61.22-.92.31v.08h4.32v-.08c-.34-.09-.69-.18-1-.36-.4-.23-.68-.65-.82-1.1-.25-.78-.26-1.61-.27-2.43-.01-1.99-.03-3.97-.05-5.96,2.71,3.39,5.41,6.79,8.13,10.18h.11c0-2.7,0-5.4,0-8.1,0-.75-.04-1.52.12-2.26.08-.36.2-.72.42-1,.19-.25.46-.44.76-.54.25-.09.51-.11.77-.15,0-.02,0-.06,0-.09h-4.29s0,.09,0,.09c.4.05.82.11,1.17.35.41.27.64.76.76,1.24.11.45.14.92.15,1.39.02,1.93.03,3.87.05,5.8-1.1-1.38-2.19-2.76-3.29-4.14-.77-.98-1.56-1.95-2.32-2.94-.43-.57-.87-1.15-1.21-1.79h0ZM42.87,11.44v.09c.43.09.89.17,1.24.47.24.2.39.5.44.81.07.37.04.74.04,1.11v7.51c0,.27-.02.54-.11.8-.1.33-.36.59-.65.73-.3.16-.64.21-.97.28v.08h5.3s0-.08,0-.08c-.44-.09-.9-.17-1.26-.47-.27-.22-.41-.58-.45-.93-.04-.37-.02-.73-.02-1.1,0-2.45,0-4.9,0-7.34,0-.33.02-.67.16-.98.12-.25.31-.45.55-.59.31-.18.67-.23,1.01-.31v-.09s-5.3,0-5.3,0ZM52.37,11.44c-1.3,0-2.59,0-3.89,0,0,.07.02.1.08.1.4.08.78.25,1.11.49.48.36.88.82,1.27,1.28,0,2,0,4,0,6,0,.78,0,1.58-.22,2.33-.13.47-.38.92-.78,1.18-.33.22-.72.31-1.09.41v.08c1.44,0,2.88,0,4.33,0v-.08c-.47-.13-.98-.25-1.34-.62-.26-.26-.42-.61-.52-.96-.21-.73-.23-1.51-.23-2.27-.01-2-.03-4-.05-6l3.23,4.05c1.63,2.04,3.26,4.1,4.9,6.14.03,0,.08,0,.11,0v-9.11c0-.44-.02-.88.06-1.31.08-.47.29-.95.66-1.24.35-.28.8-.38,1.23-.39.54-.01,1.12.14,1.5.58.41.49.51,1.17.52,1.8,0,2.52,0,5.03,0,7.55,0,.35-.04.71-.21,1.02-.17.3-.46.49-.76.59-.24.09-.5.11-.75.17v.08c1.46,0,2.93,0,4.4,0,.92,0,1.86.05,2.77-.15,1.22-.24,2.39-.85,3.24-1.83.81-.9,1.29-2.11,1.42-3.34.13-1.26-.1-2.57-.72-3.66-.58-1.05-1.52-1.86-2.57-2.32-.81-.37-1.69-.53-2.57-.57-.72-.02-1.43,0-2.15-.01-2.76,0-5.51,0-8.27,0v.09c.39.06.8.1,1.16.29.3.16.54.44.67.77.22.56.25,1.17.25,1.77.02,1.98.03,3.96.05,5.94-1.11-1.4-2.22-2.8-3.34-4.2-.74-.94-1.5-1.87-2.23-2.82-.45-.59-.9-1.18-1.25-1.85h0ZM84.93,11.44v.09c.15.03.3.07.46.1.39.09.79.27,1.02.64.23.36.24.81.24,1.23,0,2.55,0,5.1,0,7.66,0,.33.01.68-.09,1-.09.32-.29.58-.57.75-.33.2-.7.26-1.06.34v.08h5.51s0-.08,0-.08c-.35-.08-.71-.15-1.05-.28-.27-.1-.53-.26-.68-.53-.18-.34-.18-.73-.19-1.11,0-3.27,0-6.53,0-9.8.38,0,.76-.02,1.13.05.37.06.74.2,1.06.42.46.31.8.79,1,1.32.28.75.32,1.57.23,2.36-.09.73-.35,1.46-.85,1.98-.53.56-1.29.8-2.03.8v.1s.59,0,.59,0c.73,0,1.46-.1,2.15-.38.52-.22,1.02-.54,1.41-.99.56-.62.85-1.5.8-2.36-.03-.72-.29-1.41-.75-1.96-.44-.52-1.02-.89-1.63-1.11-.74-.28-1.54-.33-2.32-.32-1.45,0-2.91,0-4.36,0h0ZM105.13,11.44v.09c.38.08.77.22,1.1.45.52.36.94.85,1.35,1.33.02,1.83,0,3.66,0,5.49,0,.9.04,1.82-.18,2.7-.11.48-.33.95-.72,1.25-.31.25-.69.35-1.05.45-.06.02-.16.02-.14.12,1.45,0,2.89,0,4.34,0,.02-.11-.09-.1-.16-.12-.34-.1-.7-.19-.99-.41-.38-.26-.6-.7-.73-1.15-.22-.78-.22-1.61-.22-2.42l-.05-5.82c1.05,1.31,2.09,2.62,3.14,3.94,1.66,2.08,3.32,4.15,4.97,6.23.04,0,.08.01.13.02,0-3.08,0-6.17,0-9.25,0-.38,0-.76.06-1.14.06-.36.18-.72.4-1.01.34-.46.9-.65,1.43-.65.57-.02,1.19.13,1.57.61.42.52.5,1.25.49,1.92,0,2.47,0,4.94,0,7.41,0,.35-.04.71-.2,1.01-.16.29-.44.49-.74.59-.25.1-.52.12-.78.17,0,.02,0,.06-.01.08,1.84,0,3.69,0,5.53,0,.92,0,1.84-.13,2.71-.46,1.01-.39,1.88-1.06,2.52-1.93,1.32-1.83,1.48-4.51.4-6.52-.58-1.07-1.5-1.9-2.62-2.39-.81-.37-1.71-.53-2.59-.57-.75-.02-1.5,0-2.24-.01-2.72,0-5.44,0-8.16,0-.01.06.01.09.07.09.27.04.54.08.8.16.29.09.56.27.75.52.2.27.3.6.37.92.1.53.09,1.07.1,1.61.02,1.85.03,3.7.05,5.56l-3.23-4.06c-.78-.99-1.58-1.97-2.35-2.97-.45-.59-.89-1.18-1.24-1.84-1.29,0-2.59,0-3.88,0h0ZM130.4,11.44v.09c.36.08.74.14,1.07.33.26.14.47.39.56.69.11.33.09.68.09,1.02v7.86c0,.32-.03.65-.16.95-.13.28-.36.51-.64.64-.29.14-.61.17-.92.23,0,.02,0,.06-.01.08,3.29,0,6.58,0,9.87,0,0-1.12,0-2.24,0-3.37-.09-.01-.12.08-.15.14-.25.43-.49.87-.73,1.3-.31.55-.72,1.05-1.26,1.36-.65.38-1.4.47-2.13.48-.36,0-.73.03-1.08-.07-.29-.08-.55-.27-.7-.54-.18-.34-.23-.74-.23-1.13,0-1.42,0-2.83,0-4.25.48.01.95.01,1.43.04.36.02.73.05,1.07.2.27.12.49.33.65.59.32.52.47,1.14.65,1.73h.08c0-1.74,0-3.48,0-5.22h-.07c-.19.6-.32,1.23-.66,1.75-.17.28-.43.51-.73.61-.32.12-.65.15-.98.17-.48.03-.95.02-1.43.04v-5.62h1.39c.72.01,1.47.05,2.15.34.58.24,1.05.72,1.37,1.29.3.54.58,1.1.87,1.65h.08c0-1.13,0-2.25,0-3.37-3.14,0-6.29,0-9.43,0h0ZM2.54,11.44c0,1.24,0,2.48,0,3.72h.15c.21-.55.41-1.1.62-1.64.2-.5.44-1.01.83-1.38.3-.29.69-.45,1.08-.5.39-.05.79-.03,1.19-.03v9.2c0,.31,0,.62-.09.92-.09.32-.3.58-.59.73-.3.17-.64.2-.97.26v.16c1.7,0,3.4,0,5.1,0v-.16c-.15-.03-.3-.05-.45-.08-.36-.07-.72-.24-.94-.56-.21-.31-.26-.72-.26-1.09v-9.38c.33,0,.67-.01,1,.01.36.03.73.12,1.04.33.27.18.49.44.66.72.26.43.43.9.6,1.37.14.37.28.74.42,1.12.05,0,.1,0,.16,0,0-1.24,0-2.48,0-3.72-3.18,0-6.35,0-9.53,0h0ZM12.69,11.44v.16c.26.07.54.13.73.34.17.18.22.44.22.69v9.04c0,.24-.04.49-.2.68-.19.23-.49.29-.76.36v.16c1.2,0,2.4,0,3.59,0v-.16c-.24-.07-.5-.12-.69-.3-.2-.18-.26-.48-.26-.74,0-1.71,0-3.42,0-5.14.31-.24.65-.47,1.02-.59.44-.14.93-.1,1.33.14.34.21.58.57.68.97.14.5.1,1.02.11,1.53,0,1.04,0,2.08,0,3.11,0,.23-.05.48-.21.66-.19.22-.48.27-.75.35v.16c1.2,0,2.4,0,3.59,0,0-.05,0-.11,0-.16-.27-.08-.57-.13-.76-.36-.17-.19-.2-.46-.2-.71v-3.46c0-.36,0-.72-.04-1.08-.07-.59-.28-1.17-.68-1.59-.42-.44-1.01-.66-1.59-.68-.51-.03-1.01.12-1.43.4-.45.29-.82.67-1.09,1.13,0-1.64,0-3.28,0-4.92h-2.64ZM83.19,11.44c-3.15,0-6.29,0-9.44,0v.08c.38.09.76.14,1.09.34.25.14.46.38.54.67.12.35.09.73.1,1.1v7.79c0,.33-.03.66-.16.96-.14.3-.4.54-.71.66-.27.11-.56.14-.84.19v.08c3.28,0,6.57,0,9.86,0,0-1.12,0-2.24,0-3.37-.05,0-.09.02-.11.07-.21.39-.43.77-.64,1.15-.19.33-.38.67-.63.95-.27.32-.6.58-.98.76-.61.29-1.29.35-1.95.36-.38,0-.78.03-1.14-.11-.26-.1-.48-.28-.61-.53-.18-.35-.21-.75-.22-1.14,0-1.41,0-2.81,0-4.22.4.01.79.01,1.19.03.46.02.93.03,1.35.23.34.16.59.48.75.82.22.47.35.97.51,1.47h.08c0-1.74,0-3.47,0-5.21h-.08c-.13.45-.25.9-.44,1.33-.14.34-.35.67-.65.87-.3.2-.66.27-1.01.3-.57.05-1.14.04-1.71.06,0-1.87,0-3.75,0-5.62.76,0,1.51-.03,2.27.04.5.05,1,.15,1.46.39.39.2.73.51.99.88.17.23.3.49.43.75.21.41.42.81.64,1.22h.08s0-3.36,0-3.36ZM103.89,11.44c-3.15,0-6.29,0-9.44,0v.08c.39.09.78.15,1.12.36.23.14.43.37.51.65.13.4.09.83.1,1.25v7.48c0,.33,0,.66-.11.98-.11.36-.39.65-.72.79-.28.13-.59.16-.89.22,0,.03,0,.05-.01.08,3.29,0,6.58,0,9.87,0,0-1.12,0-2.24,0-3.37-.02,0-.06.01-.07.01-.28.48-.55.97-.82,1.46-.31.53-.71,1.02-1.23,1.33-.65.39-1.42.48-2.16.49-.33,0-.67.02-1-.05-.31-.07-.6-.25-.76-.54-.19-.34-.24-.75-.24-1.15,0-1.42,0-2.84,0-4.25.46.01.92.01,1.38.03.37.02.76.05,1.11.2.27.11.49.33.65.59.32.52.47,1.14.65,1.73h.07c0-1.75,0-3.49,0-5.22h-.07c-.19.6-.32,1.23-.66,1.76-.17.28-.43.5-.74.61-.31.12-.65.14-.98.16-.47.03-.95.02-1.42.04,0-1.87,0-3.75,0-5.62.43,0,.86,0,1.29,0,.77,0,1.56.04,2.27.35.57.24,1.03.72,1.34,1.27.3.54.57,1.11.87,1.65h.08s0-3.36,0-3.36ZM154.57,11.44c0,1.29,0,2.59,0,3.88.1.02.11-.09.14-.16.15-.41.3-.81.46-1.22.22-.59.47-1.18.88-1.66.31-.37.74-.61,1.21-.7.44-.09.89-.05,1.33-.06,0,3.3,0,6.6,0,9.9,0,.33-.03.67-.17.97-.14.29-.38.52-.67.64-.28.12-.59.15-.88.21v.08h5.3v-.08c-.31-.05-.62-.09-.91-.22-.32-.14-.56-.4-.68-.72-.13-.34-.13-.72-.13-1.08,0-3.23,0-6.46,0-9.7.23,0,.46,0,.69,0,.51,0,1.05.09,1.48.41.49.35.8.91,1.05,1.48.26.62.48,1.27.73,1.9h.08c0-1.28,0-2.57,0-3.86h-9.89ZM65.09,11.52h1.48c.65,0,1.31.1,1.92.36.59.25,1.1.63,1.51,1.12.44.52.75,1.15.95,1.81.24.77.33,1.58.35,2.38.01.73-.04,1.46-.19,2.18-.15.72-.39,1.42-.79,2.02-.37.58-.89,1.06-1.48,1.36-.68.35-1.45.48-2.2.47-.31,0-.65,0-.93-.16-.26-.14-.45-.42-.51-.72-.09-.31-.1-.64-.1-.97v-9.87h0ZM121.74,11.52h1.49c.72,0,1.46.13,2.12.45.58.29,1.08.72,1.47,1.24.41.55.69,1.2.86,1.87.21.79.28,1.61.27,2.42-.01.83-.1,1.66-.33,2.46-.21.71-.54,1.4-1.03,1.94-.42.47-.95.84-1.54,1.05-.51.18-1.05.27-1.58.27-.34,0-.69.03-1.01-.11-.25-.1-.46-.33-.56-.59-.13-.35-.15-.73-.15-1.1v-9.91ZM25.08,14.82c-.58,0-1.14.17-1.63.47-.5.31-.92.77-1.21,1.3-.57,1.01-.69,2.24-.49,3.38.12.68.37,1.34.78,1.88.37.49.87.86,1.44,1.06.57.2,1.18.25,1.77.14.71-.13,1.38-.53,1.86-1.1.32-.39.59-.84.7-1.34-.05-.02-.1-.04-.14-.06-.35.78-1.1,1.32-1.91,1.39-.56.04-1.14-.1-1.61-.44-.48-.34-.82-.86-1.03-1.43-.25-.69-.32-1.45-.27-2.19,1.61-.01,3.23,0,4.84,0,0-.47-.07-.95-.27-1.38-.23-.54-.63-.99-1.14-1.28-.52-.3-1.11-.42-1.7-.4ZM25.18,15c.17,0,.34.05.49.13.26.14.46.39.56.68.25.6.22,1.26.22,1.9h-3.12c.08-.63.19-1.28.48-1.84.18-.36.48-.67.85-.79.16-.05.34-.08.51-.07Z"/>
    <path id="path2" class="st0" d="M36.71,11.42c-.21,0-.42,0-.63.02h0c-1.77.15-3.44,1.26-4.34,2.89-.66,1.15-.93,2.54-.76,3.88.14,1.15.6,2.23,1.33,3.13.53.64,1.18,1.17,1.92,1.53,1.5.76,3.31.69,4.78-.11.84-.44,1.57-1.1,2.11-1.91.82-1.2,1.2-2.72,1.04-4.19-.14-1.31-.74-2.55-1.61-3.48-.56-.58-1.23-1.05-1.97-1.36-.59-.24-1.22-.37-1.85-.39ZM33.05,13.08c.08.22.15.44.23.66.02.08.1.13.15.19.23.21.44.43.67.63.33.2.69.37,1.03.57.38.54.73,1.09,1.11,1.62.15.15.3.28.46.41-.06-.1-.13-.19-.2-.28.15-.05.31-.08.46-.13-.14-.01-.28-.02-.42-.03.2-.05.41-.07.61-.12-.25-.03-.5-.03-.74-.07.27-.05.54-.1.82-.15.16-.04.32.05.48.07-.12-.07-.24-.13-.37-.18-.19,0-.38.01-.57,0,.2-.05.4-.09.61-.12.14.02.26.1.4.13-.11-.09-.23-.17-.35-.24-.14-.02-.28-.01-.42-.03.15-.03.31-.06.47-.08.14.05.27.14.41.19-.1-.11-.21-.22-.32-.32-.12-.03-.25,0-.38-.01.15-.05.3-.08.45-.12.13.11.26.23.39.34-.09-.16-.2-.31-.3-.47-.11-.02-.22-.04-.33-.08.14-.01.28-.02.41-.03.13.16.25.32.38.48-.08-.2-.17-.4-.26-.6-.12-.04-.24-.08-.36-.13.15,0,.3.02.46.03.12.21.23.42.35.63-.07-.24-.14-.47-.21-.7,0-.05-.06-.05-.09-.07-.12-.05-.25-.09-.37-.14.18.02.36.07.54.1.11.25.19.51.31.76-.06-.28-.13-.56-.2-.85-.15-.1-.32-.18-.46-.29.19.07.37.15.56.22.09.28.17.57.28.84-.05-.31-.11-.62-.16-.93-.17-.14-.35-.26-.51-.41.21.11.4.23.6.35.08.29.15.59.24.88-.04-.31-.09-.62-.14-.94-.16-.19-.37-.34-.54-.53.22.14.42.3.63.45.06.3.13.6.18.9,0-.32-.04-.64-.08-.96-.17-.22-.37-.42-.54-.63.22.18.43.37.63.57.06.28.08.58.15.86,0-.31-.04-.61-.06-.92-.17-.24-.35-.47-.51-.71.21.21.41.44.6.66.04.24.06.48.09.71h.02c-.02-.22-.02-.45-.03-.68,0-.04,0-.08-.03-.12-.14-.24-.3-.47-.44-.72.19.23.36.47.54.72.05.18.04.38.09.56,0-.2,0-.4-.03-.6-.1-.26-.22-.51-.32-.78.13.2.24.43.36.64.08.12.07.28.1.42.02-.16.04-.33,0-.49-.05-.21-.1-.42-.14-.63.09.21.16.43.25.64.06-.2.1-.41.15-.62.01.21-.03.41-.03.61.15-.2.27-.42.42-.62-.08.2-.18.38-.27.58.21-.15.42-.32.63-.47-.22.32-.44.63-.66.94-.11.17-.26.32-.32.52-.11.32-.22.65-.34.97-.02.06-.06.12-.12.14-.23.1-.46.19-.69.3-.1.04-.15.14-.24.2-.21.04-.43.04-.64.09.21.03.43,0,.64.02.12.04.24.1.36.14.09.04.2.08.26.17.04.06.04.13.05.2.09.11.24.21.22.38,0,.12-.12.17-.2.21.06-.12-.05-.34-.18-.23.04.06.07.13.11.19-.09.01-.19,0-.26-.07-.17,0-.35,0-.52,0,.1.03.21.05.32.07-.32.42-.66.82-.98,1.24.12-.09.23-.21.35-.32,0,.21-.03.42,0,.63.11.1.22.21.34.3.06.04.09.12.13.18,0-.09-.03-.18-.1-.23l.1-.02c.07.05.12.13.17.21,0-.09-.02-.2-.12-.22.32-.06.63-.14.95-.2.21.13.42.26.62.39.1.06.16.22.09.33-.07.11-.2.13-.31.13-.38,0-.76.05-1.13.12.09-.1.19-.19.29-.29-.23.16-.46.32-.72.44-.22.1-.45.2-.67.31.14-.15.29-.28.42-.44-.37.29-.73.6-1.16.79-.2.09-.4.24-.62.22-.17-.03-.33-.11-.49-.16-.11-.04-.22-.07-.32-.14-.08-.06-.09-.21,0-.26.12-.06.25-.09.38-.14.18.08.36.16.53.25.08.04.09.15.09.23.05-.1.01-.22-.08-.28-.26-.16-.53-.33-.79-.49.43-.14.86-.28,1.3-.4.05.02.09.04.14.05-.11-.1-.21-.21-.35-.26-.02-.06-.04-.12-.06-.17l-.07-.04c-.03-.14-.06-.28-.09-.42,0,.15.02.3.03.45-.08.05-.15.09-.23.13,0-.19,0-.38,0-.57-.04.2-.05.4-.07.6l-.3.06c.03-.22.07-.43.1-.65-.08.22-.13.44-.2.66l-.3.02c.07-.24.16-.47.22-.71-.12.22-.21.46-.32.68,0,0,0,.01,0,.02,0,0,0,0,0,0h0s0,0,0,0c-.02.01-.05,0-.08.01-.07,0-.14,0-.21.01.11-.25.24-.49.34-.74-.17.24-.32.5-.49.75-.1.02-.21.03-.31.05.17-.27.35-.53.51-.81-.21.23-.39.48-.59.72-.1.12-.19.25-.3.35-.02-.07.04-.13.07-.19.23-.38.45-.77.69-1.14.41-.18.84-.33,1.25-.51.21-.07.4-.27.41-.51-.04.1-.07.22-.16.3-.12.12-.29.15-.44.22-.03-.05-.05-.11-.08-.16.06-.05.11-.11.16-.17-.14.09-.28.19-.43.28l-.1-.21c.19-.15.39-.29.56-.46-.29.17-.57.36-.86.54-.02-.07-.05-.15-.07-.22.26-.19.54-.37.79-.57-.35.19-.69.4-1.03.59-.02-.07-.03-.13-.05-.2.29-.2.59-.39.88-.6-.37.18-.72.39-1.08.57-.01-.08-.02-.16-.03-.24.3-.16.59-.33.88-.51-.37.14-.73.32-1.1.47,0-.08,0-.15,0-.23.29-.13.6-.24.89-.38-.36.09-.72.21-1.08.31v-.25c.29-.07.57-.12.85-.21-.36.05-.71.1-1.06.15l.03-.22c.26-.04.52-.04.78-.1-.36,0-.72.01-1.08.01,0-.06.01-.12.02-.19.29,0,.58,0,.86,0-.52-.07-1.04-.08-1.56-.13.09-.04.18-.07.27-.11-.22-.1-.45-.18-.66-.28.1-.01.19-.02.29-.03-.19-.14-.39-.25-.57-.39.14,0,.28.01.42.02-.15-.16-.31-.3-.46-.47.08.01.15.03.23.04-.08-.13-.2-.23-.24-.38-.03-.11-.07-.21-.1-.32.09.09.14.2.23.29.15.1.3.18.45.27-.11-.21-.31-.39-.34-.64-.02-.12-.05-.23-.07-.35.12.16.19.36.35.48.12.1.24.21.37.31-.1-.26-.3-.47-.31-.76-.02-.15-.05-.31-.06-.46.11.18.18.39.29.57.19.17.37.34.57.5-.12-.22-.25-.43-.37-.64-.03-.05-.03-.12-.04-.17-.02-.23-.05-.46-.07-.69ZM33.44,14.1c.11.22.25.43.37.65.03.09.13.1.2.13.22.09.44.19.67.27-.24-.16-.52-.26-.76-.41-.17-.2-.3-.44-.47-.64ZM33.08,14.42c.11.19.23.36.36.54.12.06.26.09.38.14.17.06.34.13.51.17-.26-.14-.55-.24-.81-.37-.16-.15-.28-.34-.45-.48ZM32.7,14.63c.14.2.29.39.45.57.35.1.7.21,1.06.28-.32-.15-.67-.22-1-.37-.18-.15-.32-.35-.51-.49ZM32.45,14.91c.15.19.33.37.5.54.41.1.82.2,1.23.28-.39-.15-.79-.23-1.18-.36-.19-.14-.36-.32-.55-.46ZM34.84,15.3c-.14.06-.26.14-.39.21-.01-.04-.03-.09-.04-.13,0,.08,0,.15,0,.23.15-.1.3-.19.44-.3ZM35.03,15.54c-.18.08-.34.19-.52.28-.01-.04-.02-.09-.03-.13-.01.08-.01.15,0,.23.19-.12.38-.23.56-.38ZM32.53,15.58c.2.1.41.19.63.21l1,.16v-.03c-.54-.11-1.08-.25-1.63-.35ZM35.2,15.78c-.19.09-.36.21-.55.31l-.02-.1s-.02,0-.03,0c0,.06,0,.13,0,.19.2-.13.4-.25.58-.4ZM32.98,15.97c.22.1.45.17.7.18.2,0,.41.06.62.04-.44-.08-.87-.15-1.31-.22ZM35.4,16.03c-.18.09-.36.19-.54.29-.01-.05-.02-.09-.03-.13,0,.08-.01.15-.01.23.2-.13.4-.24.58-.39ZM35.61,16.27c-.16.08-.32.17-.48.26-.01-.05-.02-.09-.04-.13,0,.08,0,.15,0,.23.18-.11.36-.22.52-.35ZM35.81,16.51c-.14.06-.26.14-.39.21-.01-.05-.02-.1-.03-.14-.01.08-.01.16-.01.24.15-.1.3-.19.44-.3ZM35.98,16.76c-.1.04-.19.09-.29.14-.01-.04-.03-.08-.04-.12,0,.07,0,.15,0,.22.11-.08.23-.15.33-.24ZM37.31,16.91s-.05,0-.06.02c0,.03,0,.06.03.09.03-.01.06-.04.08-.07,0,0,0-.01,0-.01,0,0,0,0,0,0,0,0,0,0,0,0,0,0-.02,0-.03,0ZM37.84,16.92c-.07,0-.13,0-.2,0l.08.04s-.02.06-.03.09c.05-.04.1-.09.15-.13ZM35.89,16.99c0,.06-.01.13-.02.19.09-.05.18-.11.26-.18-.07.03-.14.06-.21.09l-.03-.1ZM38.05,17v.11s.08-.06.12-.09c-.04,0-.08-.01-.12-.02ZM38.6,17.09s-.09.06-.07.12c0,.08.13.1.16.03.01-.03,0-.07,0-.1l-.07.09c-.08,0-.03-.09-.03-.14ZM36.86,17.11l.09.05s-.03.07-.04.1c.06-.05.12-.1.18-.15-.08,0-.15,0-.23,0ZM37.32,17.17l.09.05-.05.1c.06-.05.12-.1.18-.15-.08,0-.15,0-.23,0ZM36.35,17.17c-.09.03-.17.07-.25.11-.01-.03-.03-.06-.04-.09v.19c.09-.06.2-.13.29-.21ZM37.74,17.25l.09.05s-.03.07-.04.1c.06-.05.12-.1.18-.15-.08,0-.15,0-.23,0ZM38.84,17.31l-.04.04c.11.08.22.16.25.31.01-.16-.12-.26-.21-.35ZM36.38,17.41c-.07.03-.13.06-.19.09,0-.02-.02-.04-.03-.06,0,.05,0,.1-.01.15.08-.06.16-.11.23-.18ZM37.19,17.43c-.09,0-.18.02-.27.04.04.02.07.03.11.05-.01.04-.03.09-.04.13.07-.07.13-.14.2-.21ZM36.74,17.48c-.06.01-.13.02-.19.04l.08.03-.03.09c.05-.05.09-.1.14-.15ZM37.64,17.49c-.09.02-.17.03-.26.06.04.01.08.02.11.03l-.04.13c.06-.07.12-.14.18-.22ZM38.59,17.49s-.04,0-.06.03h0s-.03.1,0,.14c.01-.1.09-.13.17-.13-.03-.02-.07-.04-.1-.04ZM37.96,17.65c-.06,0-.13,0-.19.01l.08.04s-.02.06-.03.09l.14-.14ZM36.37,17.69c-.05.02-.11.02-.16.02,0,.04,0,.08,0,.12.06-.04.11-.09.17-.14ZM36.81,17.8c-.07.01-.15.03-.22.05l.09.03-.02.1c.05-.06.1-.12.14-.18ZM37.25,17.82c-.09.02-.18.05-.27.08l.12.02-.02.12c.06-.07.11-.15.16-.23ZM37.65,17.89c-.08.02-.16.04-.23.06l.11.02s-.02.07-.03.11c.05-.06.1-.12.15-.19ZM37.97,18.01l-.12.02s.02.06.04.09c.03-.03.06-.07.09-.11ZM36.87,18.15c-.07.02-.15.04-.22.07l.1.02s-.01.08-.02.11c.05-.06.1-.13.14-.2ZM37.34,18.22c-.09.03-.18.06-.26.09.04,0,.08.01.12.02,0,.04-.01.09-.02.13.06-.08.11-.16.15-.24ZM37.75,18.28c-.06,0-.13.02-.19.03h0s.08.04.08.04l-.02.08s.09-.1.13-.15ZM36.36,18.37s.07.07.07.12c.04-.04.07-.08.11-.12-.06,0-.12,0-.18,0ZM36.99,18.5c-.07.01-.15.03-.22.05l.1.03s-.02.07-.03.11c.05-.06.1-.12.15-.19ZM36.18,18.59s-.03,0-.04,0c-.01.03,0,.06.02.08.04.01.08-.03.09-.07-.01-.02-.04-.03-.07-.02ZM37.49,18.6c-.06,0-.13.02-.19.03l.08.03-.03.09s.09-.1.13-.15ZM36.44,18.66l.09.04-.04.09c.05-.04.1-.09.15-.13-.07,0-.13,0-.2,0ZM37.13,18.8l-.12.02h0s.03.06.04.09c.03-.04.06-.07.09-.11ZM35.51,18.82s.02.08,0,.12c.04-.04.08-.08.12-.11h-.13ZM35.87,18.82s.02.07.01.11c.04-.04.08-.07.12-.11-.04,0-.09,0-.13,0ZM36.28,18.89s-.03,0-.04.01c0,.03,0,.07.03.09.03-.01.06-.04.08-.07,0,0,0-.01,0-.01h0s0,0,0,0c-.01,0-.03,0-.05,0ZM36.62,18.93l.03.12s.08-.07.12-.11c-.05,0-.1,0-.15,0ZM36.84,19.11c.03.17.05.34.08.51.07.19.28.27.36.45.01-.09-.03-.19-.12-.24l.12-.02c.06.06.11.13.16.2,0-.09-.04-.17-.11-.22.09-.02.18-.04.26-.07-.14-.07-.26-.2-.42-.18-.12-.15-.23-.3-.35-.45ZM39.12,19.61c-.23.02-.46.05-.68.14.23-.02.46-.06.68-.14ZM37.87,19.65s-.01,0-.02,0c.08.06.14.14.2.23.01-.12-.06-.23-.18-.23ZM39.42,19.76c-.31,0-.62.07-.93.13.11.02.22,0,.34-.02.2-.03.4-.05.59-.11ZM36.95,19.89s-.01,0-.02,0c.08.06.14.14.19.22.02-.11-.06-.22-.17-.22ZM38.3,19.94c-.18.01-.37.04-.53.14.18-.02.36-.06.53-.14ZM37.57,20.14c-.22.04-.43.13-.64.2-.24.1-.5.18-.72.32.22-.07.42-.16.63-.24.24-.1.49-.17.73-.29ZM36.94,20.14c-.19.02-.37.1-.55.16-.15.06-.31.11-.46.19.16-.02.32-.1.47-.14.18-.07.36-.12.53-.21ZM35.75,20.83c-.1.04-.25.03-.32.14.19.07.38.14.58.2-.14-.09-.3-.15-.45-.22.06-.04.13-.07.19-.12Z"/>
  </g>
</svg>