<svg width="1105" height="483" viewBox="0 0 1105 483" fill="none" xmlns="http://www.w3.org/2000/svg">
<g clip-path="url(#clip0_141_2407)">
<path d="M109.315 171.172L93.856 149.269L226.359 167.887L341.195 136.127L337.882 141.603L235.192 179.934L149.065 182.124L109.315 171.172Z" fill="#2B354E"/>
<path d="M76.1892 121.89L91.6479 145.983L227.463 164.601L333.466 135.032L230.776 153.649L76.1892 121.89Z" fill="#2B354E"/>
<path d="M72.8764 118.604L39.7507 70.4166L229.671 139.412L332.361 131.746L231.88 150.364L72.8764 118.604Z" fill="#2B354E"/>
<path d="M160.107 185.409L208.692 199.647L257.276 191.98L337.882 147.078V143.793L235.192 183.219L160.107 185.409Z" fill="#2B354E"/>
<path d="M216.421 200.742L250.651 210.598L279.36 196.361L337.882 153.65V150.364L257.276 195.266L216.421 200.742Z" fill="#2B354E"/>
<path d="M255.068 211.693L272.735 216.074L304.756 199.647L337.882 156.935L284.881 196.361L255.068 211.693Z" fill="#2B354E"/>
<path d="M276.047 218.265L292.61 222.645L322.423 198.552L336.778 163.506L306.965 201.837L276.047 218.265Z" fill="#2B354E"/>
<path d="M295.923 223.74L311.382 228.121L337.883 214.979L338.987 168.982L324.632 200.742L295.923 223.74Z" fill="#2B354E"/>
<path d="M365.487 182.124L385.362 196.361V204.027L362.174 187.6V208.408L383.154 227.026L385.362 229.364V308.069L382.05 303.688H375.424L372.112 306.973L369.903 300.402H375.424V267.547L343.403 231.407V140.508L365.487 164.601V182.124Z" fill="#2B354E"/>
<path d="M189.921 347.495L223.047 368.303L365.487 300.402L189.921 347.495Z" fill="#2B354E"/>
<path d="M261.693 355.161L281.569 369.398L367.696 304.783L261.693 355.161Z" fill="#2B354E"/>
<path d="M259.485 391.302L282.673 405.539L369.904 308.069L259.485 391.302Z" fill="#2B354E"/>
<path d="M297.027 396.778L316.903 405.539L372.112 311.354L297.027 396.778Z" fill="#2B354E"/>
<path d="M312.486 421.966L334.57 435.108L376.529 312.449L312.486 421.966Z" fill="#2B354E"/>
<path d="M379.841 314.64L361.07 368.303L372.112 371.589L379.841 314.64Z" fill="#2B354E"/>
<path d="M388.675 310.259V431.823L403.029 426.347L388.675 310.259Z" fill="#2B354E"/>
<path d="M384.258 310.259L366.591 454.822L383.154 463.583L384.258 310.259Z" fill="#2B354E"/>
<path d="M343.403 235.787L363.278 280.689L359.966 296.022L372.112 293.831V268.643L343.403 235.787Z" fill="#2B354E"/>
<path d="M344.507 137.222L366.591 161.316L383.154 145.983V135.032L371.008 118.604L344.507 137.222Z" fill="#2B354E"/>
<path d="M0 14.5629L36.4383 66.0359L229.672 135.032L336.778 128.461L230.776 126.27L18.7712 20.0387L0 14.5629Z" fill="#2B354E"/>
<path d="M39.7507 26.6097L231.88 121.89L340.091 125.175L39.7507 26.6097Z" fill="#2B354E"/>
<path fill-rule="evenodd" clip-rule="evenodd" d="M385.362 50.7035L372.112 41.9421L343.403 20.0387L332.361 25.5146H340.09L353.341 44.1325L348.924 118.604L385.362 99.9862V50.7035ZM373.216 55.0842L377.633 56.1793L382.05 58.3697L373.216 50.7035V55.0842Z" fill="#2B354E"/>
<path d="M491.404 94.8229C487.43 89.9728 482.522 87.5478 476.678 87.5478C474.107 87.5478 471.711 88.0152 469.491 88.9502C467.329 89.8851 465.459 91.1707 463.881 92.8069C462.303 94.3846 461.047 96.2837 460.112 98.5042C459.236 100.725 458.797 103.121 458.797 105.692C458.797 108.321 459.236 110.746 460.112 112.967C461.047 115.187 462.303 117.116 463.881 118.752C465.517 120.388 467.416 121.674 469.578 122.609C471.741 123.543 474.078 124.011 476.591 124.011C482.083 124.011 487.021 121.674 491.404 116.999V137.334L489.651 137.948C487.021 138.883 484.567 139.555 482.288 139.964C480.009 140.431 477.759 140.665 475.539 140.665C470.981 140.665 466.598 139.817 462.391 138.123C458.242 136.37 454.561 133.945 451.347 130.848C448.191 127.692 445.649 123.982 443.721 119.716C441.793 115.392 440.829 110.688 440.829 105.604C440.829 100.52 441.764 95.8747 443.633 91.6674C445.562 87.4017 448.104 83.7495 451.259 80.7109C454.473 77.6139 458.184 75.2181 462.391 73.5235C466.598 71.7704 471.01 70.8939 475.626 70.8939C478.256 70.8939 480.827 71.1861 483.34 71.7704C485.911 72.2963 488.599 73.1436 491.404 74.3123V94.8229ZM518.225 107.094L494.12 72.7346H514.631L526.902 90.7909L539.086 72.7346H559.596L535.404 107.094V138.824H518.225V107.094ZM582.794 125.501H586.563C590.887 125.501 593.984 124.946 595.854 123.836C597.724 122.725 598.659 120.943 598.659 118.489C598.659 116.035 597.724 114.252 595.854 113.142C593.984 112.032 590.887 111.477 586.563 111.477H582.794V125.501ZM582.794 98.6795H585.949C591.325 98.6795 594.013 96.5467 594.013 92.281C594.013 88.0152 591.325 85.8824 585.949 85.8824H582.794V98.6795ZM565.614 72.7346H591.208C597.286 72.7346 601.902 74.1955 605.057 77.1172C608.213 80.0389 609.791 84.2462 609.791 89.7391C609.791 93.0698 609.177 95.8455 607.95 98.066C606.781 100.228 604.97 102.069 602.515 103.588C604.97 104.056 607.044 104.786 608.739 105.779C610.492 106.714 611.894 107.883 612.946 109.285C614.056 110.688 614.845 112.266 615.313 114.019C615.78 115.772 616.014 117.642 616.014 119.628C616.014 122.725 615.459 125.472 614.348 127.868C613.297 130.263 611.777 132.279 609.791 133.916C607.862 135.552 605.496 136.779 602.691 137.597C599.886 138.415 596.73 138.824 593.224 138.824H565.614V72.7346ZM663.905 87.2848H643.482V98.3289H662.766V112.879H643.482V124.274H663.905V138.824H626.303V72.7346H663.905V87.2848ZM693.471 102.273H696.715C700.104 102.273 702.704 101.572 704.516 100.17C706.327 98.7672 707.233 96.7512 707.233 94.1216C707.233 91.4921 706.327 89.4761 704.516 88.0737C702.704 86.6712 700.104 85.97 696.715 85.97H693.471V102.273ZM731.249 138.824H709.862L693.471 113.405V138.824H676.292V72.7346H703.025C706.707 72.7346 709.921 73.2897 712.667 74.4C715.414 75.4518 717.663 76.9127 719.416 78.7826C721.228 80.6525 722.572 82.8146 723.448 85.2688C724.383 87.7231 724.851 90.3526 724.851 93.1575C724.851 98.1829 723.624 102.273 721.169 105.429C718.774 108.526 715.209 110.629 710.476 111.74L731.249 138.824ZM475.977 200.835H510.074C510.074 204.341 509.927 207.526 509.635 210.389C509.343 213.252 508.759 215.911 507.882 218.365C506.655 221.813 504.99 224.881 502.886 227.569C500.782 230.198 498.299 232.419 495.436 234.23C492.631 235.983 489.534 237.327 486.145 238.262C482.755 239.197 479.191 239.665 475.451 239.665C470.309 239.665 465.605 238.817 461.339 237.123C457.132 235.428 453.509 233.062 450.47 230.023C447.432 226.926 445.065 223.245 443.371 218.979C441.676 214.655 440.829 209.892 440.829 204.692C440.829 199.549 441.647 194.845 443.283 190.58C444.977 186.256 447.344 182.574 450.383 179.536C453.48 176.497 457.19 174.13 461.514 172.436C465.839 170.741 470.659 169.894 475.977 169.894C482.872 169.894 488.92 171.384 494.121 174.364C499.322 177.344 503.441 181.961 506.48 188.213L490.177 194.962C488.657 191.339 486.671 188.739 484.216 187.161C481.82 185.584 479.074 184.795 475.977 184.795C473.406 184.795 471.069 185.291 468.965 186.285C466.861 187.22 465.05 188.593 463.53 190.404C462.07 192.157 460.901 194.29 460.024 196.803C459.206 199.316 458.797 202.121 458.797 205.218C458.797 208.022 459.148 210.623 459.849 213.019C460.609 215.414 461.719 217.489 463.18 219.242C464.641 220.995 466.452 222.368 468.614 223.362C470.776 224.296 473.289 224.764 476.152 224.764C477.847 224.764 479.483 224.589 481.061 224.238C482.639 223.829 484.041 223.215 485.268 222.397C486.554 221.521 487.605 220.411 488.424 219.067C489.242 217.723 489.797 216.086 490.089 214.158H475.977V200.835ZM538.112 171.735V207.672C538.112 209.6 538.17 211.587 538.287 213.632C538.463 215.619 538.901 217.43 539.602 219.067C540.362 220.703 541.53 222.047 543.108 223.099C544.686 224.092 546.906 224.589 549.77 224.589C552.633 224.589 554.824 224.092 556.343 223.099C557.921 222.047 559.09 220.703 559.85 219.067C560.609 217.43 561.047 215.619 561.164 213.632C561.34 211.587 561.427 209.6 561.427 207.672V171.735H578.519V210.038C578.519 220.323 576.153 227.832 571.42 232.565C566.745 237.298 559.528 239.665 549.77 239.665C540.011 239.665 532.765 237.298 528.032 232.565C523.299 227.832 520.932 220.323 520.932 210.038V171.735H538.112ZM626.118 213.282L618.404 191.281L610.691 213.282H626.118ZM630.676 226.342H606.133L602.189 237.824H583.87L609.026 171.735H627.783L652.939 237.824H634.62L630.676 226.342ZM677.636 201.273H680.879C684.268 201.273 686.869 200.572 688.68 199.17C690.491 197.767 691.397 195.751 691.397 193.122C691.397 190.492 690.491 188.476 688.68 187.074C686.869 185.671 684.268 184.97 680.879 184.97H677.636V201.273ZM715.414 237.824H694.027L677.636 212.405V237.824H660.456V171.735H687.19C690.871 171.735 694.085 172.29 696.832 173.4C699.578 174.452 701.828 175.913 703.581 177.783C705.392 179.652 706.736 181.815 707.613 184.269C708.548 186.723 709.015 189.353 709.015 192.157C709.015 197.183 707.788 201.273 705.334 204.429C702.938 207.526 699.374 209.629 694.64 210.74L715.414 237.824ZM739.78 223.274H743.724C746.704 223.274 749.363 222.806 751.7 221.871C754.038 220.937 755.995 219.651 757.573 218.015C759.209 216.379 760.436 214.45 761.254 212.23C762.131 209.951 762.569 207.467 762.569 204.779C762.569 202.15 762.131 199.696 761.254 197.417C760.378 195.138 759.121 193.18 757.485 191.544C755.908 189.908 753.95 188.622 751.613 187.687C749.275 186.752 746.646 186.285 743.724 186.285H739.78V223.274ZM722.6 171.735H748.019C752.518 171.735 756.726 172.64 760.641 174.452C764.614 176.263 768.062 178.688 770.984 181.727C773.964 184.707 776.301 188.213 777.996 192.245C779.69 196.219 780.538 200.397 780.538 204.779C780.538 209.104 779.69 213.282 777.996 217.314C776.36 221.287 774.052 224.793 771.071 227.832C768.15 230.87 764.702 233.295 760.728 235.107C756.813 236.918 752.577 237.824 748.019 237.824H722.6V171.735ZM808.686 171.735V237.824H791.506V171.735H808.686ZM858.429 213.282L850.716 191.281L843.003 213.282H858.429ZM862.987 226.342H838.445L834.5 237.824H816.181L841.337 171.735H860.095L885.251 237.824H866.932L862.987 226.342ZM892.768 237.824V171.735H909.947L941.677 212.142V171.735H958.77V237.824H941.677L909.947 197.417V237.824H892.768ZM491.404 292.823C487.43 287.973 482.522 285.548 476.678 285.548C474.107 285.548 471.711 286.015 469.491 286.95C467.329 287.885 465.459 289.171 463.881 290.807C462.303 292.385 461.047 294.284 460.112 296.504C459.236 298.725 458.797 301.121 458.797 303.692C458.797 306.321 459.236 308.746 460.112 310.967C461.047 313.187 462.303 315.116 463.881 316.752C465.517 318.388 467.416 319.674 469.578 320.609C471.741 321.543 474.078 322.011 476.591 322.011C482.083 322.011 487.021 319.674 491.404 314.999V335.334L489.651 335.948C487.021 336.883 484.567 337.555 482.288 337.964C480.009 338.431 477.759 338.665 475.539 338.665C470.981 338.665 466.598 337.817 462.391 336.123C458.242 334.37 454.561 331.945 451.347 328.848C448.191 325.692 445.649 321.982 443.721 317.716C441.793 313.392 440.829 308.688 440.829 303.604C440.829 298.52 441.764 293.875 443.633 289.667C445.562 285.402 448.104 281.75 451.259 278.711C454.473 275.614 458.184 273.218 462.391 271.523C466.598 269.77 471.01 268.894 475.626 268.894C478.256 268.894 480.827 269.186 483.34 269.77C485.911 270.296 488.599 271.144 491.404 272.312V292.823ZM518.202 303.779C518.202 306.409 518.699 308.834 519.692 311.054C520.685 313.275 522.029 315.203 523.724 316.839C525.419 318.476 527.376 319.761 529.597 320.696C531.876 321.573 534.271 322.011 536.784 322.011C539.297 322.011 541.663 321.573 543.884 320.696C546.163 319.761 548.15 318.476 549.844 316.839C551.597 315.203 552.97 313.275 553.964 311.054C554.957 308.834 555.454 306.409 555.454 303.779C555.454 301.15 554.957 298.725 553.964 296.504C552.97 294.284 551.597 292.355 549.844 290.719C548.15 289.083 546.163 287.827 543.884 286.95C541.663 286.015 539.297 285.548 536.784 285.548C534.271 285.548 531.876 286.015 529.597 286.95C527.376 287.827 525.419 289.083 523.724 290.719C522.029 292.355 520.685 294.284 519.692 296.504C518.699 298.725 518.202 301.15 518.202 303.779ZM500.233 303.779C500.233 298.871 501.139 294.313 502.95 290.106C504.762 285.84 507.275 282.129 510.489 278.974C513.702 275.818 517.53 273.364 521.971 271.611C526.47 269.8 531.408 268.894 536.784 268.894C542.102 268.894 547.01 269.8 551.51 271.611C556.009 273.364 559.866 275.818 563.08 278.974C566.352 282.129 568.894 285.84 570.705 290.106C572.517 294.313 573.423 298.871 573.423 303.779C573.423 308.688 572.517 313.275 570.705 317.541C568.894 321.748 566.352 325.429 563.08 328.585C559.866 331.74 556.009 334.224 551.51 336.035C547.01 337.788 542.102 338.665 536.784 338.665C531.408 338.665 526.47 337.788 521.971 336.035C517.53 334.224 513.702 331.74 510.489 328.585C507.275 325.429 504.762 321.748 502.95 317.541C501.139 313.275 500.233 308.688 500.233 303.779ZM584.274 336.824V270.735H601.454L633.184 311.142V270.735H650.276V336.824H633.184L601.454 296.417V336.824H584.274ZM700.425 287.651C698.555 286.132 696.685 285.022 694.815 284.321C692.945 283.561 691.134 283.181 689.381 283.181C687.16 283.181 685.349 283.707 683.946 284.759C682.544 285.811 681.842 287.184 681.842 288.879C681.842 290.047 682.193 291.011 682.894 291.771C683.595 292.531 684.501 293.203 685.611 293.787C686.78 294.313 688.066 294.78 689.468 295.189C690.929 295.599 692.361 296.037 693.763 296.504C699.373 298.374 703.463 300.887 706.034 304.042C708.664 307.139 709.979 311.201 709.979 316.226C709.979 319.615 709.394 322.683 708.226 325.429C707.115 328.176 705.45 330.542 703.23 332.529C701.067 334.457 698.379 335.948 695.166 336.999C692.01 338.11 688.416 338.665 684.384 338.665C676.028 338.665 668.286 336.181 661.157 331.214L668.519 317.365C671.09 319.644 673.632 321.339 676.145 322.449C678.658 323.559 681.141 324.115 683.595 324.115C686.4 324.115 688.475 323.472 689.819 322.186C691.221 320.901 691.922 319.44 691.922 317.804C691.922 316.81 691.747 315.963 691.397 315.262C691.046 314.502 690.462 313.83 689.643 313.246C688.825 312.603 687.744 312.019 686.4 311.493C685.115 310.967 683.537 310.382 681.667 309.74C679.447 309.038 677.255 308.279 675.093 307.461C672.99 306.584 671.09 305.445 669.396 304.042C667.76 302.64 666.416 300.887 665.364 298.783C664.371 296.621 663.874 293.904 663.874 290.632C663.874 287.359 664.4 284.408 665.452 281.779C666.562 279.091 668.081 276.812 670.009 274.942C671.996 273.014 674.392 271.523 677.197 270.472C680.06 269.42 683.245 268.894 686.751 268.894C690.023 268.894 693.442 269.361 697.006 270.296C700.571 271.173 703.989 272.488 707.261 274.241L700.425 287.651ZM737.982 270.735V306.672C737.982 308.6 738.041 310.587 738.157 312.632C738.333 314.619 738.771 316.43 739.472 318.067C740.232 319.703 741.401 321.047 742.978 322.099C744.556 323.092 746.777 323.589 749.64 323.589C752.503 323.589 754.694 323.092 756.214 322.099C757.791 321.047 758.96 319.703 759.72 318.067C760.479 316.43 760.918 314.619 761.035 312.632C761.21 310.587 761.297 308.6 761.297 306.672V270.735H778.39V309.038C778.39 319.323 776.023 326.832 771.29 331.565C766.615 336.298 759.398 338.665 749.64 338.665C739.881 338.665 732.635 336.298 727.902 331.565C723.169 326.832 720.802 319.323 720.802 309.038V270.735H737.982ZM809.456 270.735V322.274H830.054V336.824H792.276V270.735H809.456ZM860.486 285.285V336.824H843.306V285.285H829.194V270.735H874.598V285.285H860.486ZM899.419 270.735V336.824H882.239V270.735H899.419ZM913.226 336.824V270.735H930.405L962.135 311.142V270.735H979.227V336.824H962.135L930.405 296.417V336.824H913.226ZM1026.45 299.835H1060.55C1060.55 303.341 1060.41 306.526 1060.11 309.389C1059.82 312.252 1059.24 314.911 1058.36 317.365C1057.13 320.813 1055.47 323.881 1053.36 326.569C1051.26 329.198 1048.78 331.419 1045.91 333.23C1043.11 334.983 1040.01 336.327 1036.62 337.262C1033.23 338.197 1029.67 338.665 1025.93 338.665C1020.79 338.665 1016.08 337.817 1011.82 336.123C1007.61 334.428 1003.99 332.062 1000.95 329.023C997.909 325.926 995.543 322.245 993.848 317.979C992.154 313.655 991.306 308.892 991.306 303.692C991.306 298.549 992.124 293.845 993.76 289.58C995.455 285.256 997.822 281.574 1000.86 278.536C1003.96 275.497 1007.67 273.13 1011.99 271.436C1016.32 269.741 1021.14 268.894 1026.45 268.894C1033.35 268.894 1039.4 270.384 1044.6 273.364C1049.8 276.344 1053.92 280.961 1056.96 287.213L1040.65 293.962C1039.13 290.339 1037.15 287.739 1034.69 286.161C1032.3 284.584 1029.55 283.795 1026.45 283.795C1023.88 283.795 1021.55 284.291 1019.44 285.285C1017.34 286.22 1015.53 287.593 1014.01 289.404C1012.55 291.157 1011.38 293.29 1010.5 295.803C1009.68 298.316 1009.27 301.121 1009.27 304.218C1009.27 307.022 1009.63 309.623 1010.33 312.019C1011.09 314.414 1012.2 316.489 1013.66 318.242C1015.12 319.995 1016.93 321.368 1019.09 322.362C1021.25 323.296 1023.77 323.764 1026.63 323.764C1028.32 323.764 1029.96 323.589 1031.54 323.238C1033.12 322.829 1034.52 322.215 1035.75 321.397C1037.03 320.521 1038.08 319.411 1038.9 318.067C1039.72 316.723 1040.27 315.086 1040.57 313.158H1026.45V299.835ZM475.977 397.835H510.074C510.074 401.341 509.927 404.526 509.635 407.389C509.343 410.252 508.759 412.911 507.882 415.365C506.655 418.813 504.99 421.881 502.886 424.569C500.782 427.198 498.299 429.419 495.436 431.23C492.631 432.983 489.534 434.327 486.145 435.262C482.755 436.197 479.191 436.665 475.451 436.665C470.309 436.665 465.605 435.817 461.339 434.123C457.132 432.428 453.509 430.062 450.47 427.023C447.432 423.926 445.065 420.245 443.371 415.979C441.676 411.655 440.829 406.892 440.829 401.692C440.829 396.549 441.647 391.845 443.283 387.58C444.977 383.256 447.344 379.574 450.383 376.536C453.48 373.497 457.19 371.13 461.514 369.436C465.839 367.741 470.659 366.894 475.977 366.894C482.872 366.894 488.92 368.384 494.121 371.364C499.322 374.344 503.441 378.961 506.48 385.213L490.177 391.962C488.657 388.339 486.671 385.739 484.216 384.161C481.82 382.584 479.074 381.795 475.977 381.795C473.406 381.795 471.069 382.291 468.965 383.285C466.861 384.22 465.05 385.593 463.53 387.404C462.07 389.157 460.901 391.29 460.024 393.803C459.206 396.316 458.797 399.121 458.797 402.218C458.797 405.022 459.148 407.623 459.849 410.019C460.609 412.414 461.719 414.489 463.18 416.242C464.641 417.995 466.452 419.368 468.614 420.362C470.776 421.296 473.289 421.764 476.152 421.764C477.847 421.764 479.483 421.589 481.061 421.238C482.639 420.829 484.041 420.215 485.268 419.397C486.554 418.521 487.605 417.411 488.424 416.067C489.242 414.723 489.797 413.086 490.089 411.158H475.977V397.835ZM538.112 398.273H541.355C544.744 398.273 547.345 397.572 549.156 396.17C550.968 394.767 551.873 392.751 551.873 390.122C551.873 387.492 550.968 385.476 549.156 384.074C547.345 382.671 544.744 381.97 541.355 381.97H538.112V398.273ZM575.89 434.824H554.503L538.112 409.405V434.824H520.932V368.735H547.666C551.347 368.735 554.561 369.29 557.308 370.4C560.054 371.452 562.304 372.913 564.057 374.783C565.868 376.652 567.212 378.815 568.089 381.269C569.024 383.723 569.491 386.353 569.491 389.157C569.491 394.183 568.264 398.273 565.81 401.429C563.414 404.526 559.85 406.629 555.116 407.74L575.89 434.824ZM596.866 401.779C596.866 404.409 597.363 406.834 598.356 409.054C599.349 411.275 600.693 413.203 602.388 414.839C604.083 416.476 606.04 417.761 608.261 418.696C610.54 419.573 612.936 420.011 615.448 420.011C617.961 420.011 620.328 419.573 622.548 418.696C624.827 417.761 626.814 416.476 628.508 414.839C630.261 413.203 631.635 411.275 632.628 409.054C633.621 406.834 634.118 404.409 634.118 401.779C634.118 399.15 633.621 396.725 632.628 394.504C631.635 392.284 630.261 390.355 628.508 388.719C626.814 387.083 624.827 385.827 622.548 384.95C620.328 384.015 617.961 383.548 615.448 383.548C612.936 383.548 610.54 384.015 608.261 384.95C606.04 385.827 604.083 387.083 602.388 388.719C600.693 390.355 599.349 392.284 598.356 394.504C597.363 396.725 596.866 399.15 596.866 401.779ZM578.897 401.779C578.897 396.871 579.803 392.313 581.615 388.106C583.426 383.84 585.939 380.129 589.153 376.974C592.367 373.818 596.194 371.364 600.635 369.611C605.135 367.8 610.072 366.894 615.448 366.894C620.766 366.894 625.674 367.8 630.174 369.611C634.673 371.364 638.53 373.818 641.744 376.974C645.016 380.129 647.558 383.84 649.369 388.106C651.181 392.313 652.087 396.871 652.087 401.779C652.087 406.688 651.181 411.275 649.369 415.541C647.558 419.748 645.016 423.429 641.744 426.585C638.53 429.74 634.673 432.224 630.174 434.035C625.674 435.788 620.766 436.665 615.448 436.665C610.072 436.665 605.135 435.788 600.635 434.035C596.194 432.224 592.367 429.74 589.153 426.585C585.939 423.429 583.426 419.748 581.615 415.541C579.803 411.275 578.897 406.688 578.897 401.779ZM680.118 368.735V404.672C680.118 406.6 680.177 408.587 680.293 410.632C680.469 412.619 680.907 414.43 681.608 416.067C682.368 417.703 683.537 419.047 685.114 420.099C686.692 421.092 688.913 421.589 691.776 421.589C694.639 421.589 696.83 421.092 698.35 420.099C699.927 419.047 701.096 417.703 701.856 416.067C702.615 414.43 703.054 412.619 703.171 410.632C703.346 408.587 703.434 406.6 703.434 404.672V368.735H720.526V407.038C720.526 417.323 718.159 424.832 713.426 429.565C708.751 434.298 701.534 436.665 691.776 436.665C682.017 436.665 674.771 434.298 670.038 429.565C665.305 424.832 662.938 417.323 662.938 407.038V368.735H680.118ZM751.592 399.062H757.289C763.6 399.062 766.756 396.316 766.756 390.823C766.756 385.33 763.6 382.584 757.289 382.584H751.592V399.062ZM751.592 434.824H734.412V368.735H761.76C769.181 368.735 774.849 370.663 778.764 374.52C782.738 378.376 784.724 383.811 784.724 390.823C784.724 397.835 782.738 403.269 778.764 407.126C774.849 410.983 769.181 412.911 761.76 412.911H751.592V434.824Z" fill="#2B354E"/>
</g>
<defs>
<clipPath id="clip0_141_2407">
<rect width="1104.35" height="483" fill="white"/>
</clipPath>
</defs>
</svg>
