<svg width="148" height="40" viewBox="0 0 148 40" fill="none" xmlns="http://www.w3.org/2000/svg">
<path d="M28.4287 13.7186C26.1951 10.938 23.436 9.54774 20.1514 9.54774C18.7061 9.54774 17.3594 9.81575 16.1112 10.3518C14.8959 10.8878 13.8448 11.6248 12.958 12.5628C12.0711 13.4673 11.3649 14.5561 10.8394 15.8291C10.3467 17.1022 10.1003 18.4757 10.1003 19.9497C10.1003 21.4573 10.3467 22.8476 10.8394 24.1206C11.3649 25.3936 12.0711 26.4992 12.958 27.4372C13.8777 28.3752 14.9452 29.1122 16.1605 29.6482C17.3758 30.1843 18.6897 30.4523 20.1021 30.4523C23.1897 30.4523 25.9652 29.1122 28.4287 26.4322V38.0905L27.4433 38.4422C25.9652 38.9782 24.5856 39.3635 23.3046 39.598C22.0236 39.866 20.759 40 19.5108 40C16.9488 40 14.4853 39.5142 12.1204 38.5427C9.78827 37.5377 7.71894 36.1474 5.91238 34.3719C4.13867 32.5628 2.70984 30.4355 1.6259 27.9899C0.541968 25.5109 0 22.8141 0 19.8995C0 16.9849 0.525545 14.3216 1.57663 11.9095C2.66057 9.46399 4.0894 7.37018 5.86311 5.62814C7.66967 3.8526 9.75543 2.47906 12.1204 1.50754C14.4853 0.502512 16.9652 0 19.5601 0C21.0382 0 22.4835 0.167504 23.8959 0.502512C25.3411 0.80402 26.8521 1.28978 28.4287 1.9598V13.7186Z" fill="#F0F8FC"/>
<path d="M52.6198 17.7387H71.7857C71.7857 19.7487 71.7036 21.5745 71.5394 23.2161C71.3752 24.8576 71.0467 26.3819 70.554 27.7889C69.8642 29.7655 68.9281 31.5243 67.7456 33.0653C66.5631 34.5729 65.1672 35.8459 63.5577 36.8844C61.981 37.8894 60.2402 38.66 58.3351 39.196C56.43 39.732 54.4263 40 52.3242 40C49.4337 40 46.7895 39.5142 44.3917 38.5427C42.0268 37.5712 39.9903 36.2144 38.2823 34.4724C36.5742 32.6968 35.244 30.5863 34.2914 28.1407C33.3389 25.6616 32.8626 22.9313 32.8626 19.9497C32.8626 17.0017 33.3224 14.3049 34.2421 11.8593C35.1947 9.38023 36.525 7.26968 38.233 5.52764C39.9739 3.7856 42.0596 2.42881 44.4903 1.45729C46.9209 0.485762 49.6307 0 52.6198 0C56.4957 0 59.8953 0.854271 62.8186 2.56281C65.742 4.27136 68.0577 6.91792 69.7657 10.5025L60.6015 14.3719C59.7475 12.2948 58.6307 10.804 57.2511 9.8995C55.9044 8.99498 54.3606 8.54271 52.6198 8.54271C51.1745 8.54271 49.8607 8.82747 48.6782 9.39699C47.4957 9.933 46.4775 10.7203 45.6235 11.7588C44.8023 12.7638 44.1454 13.9866 43.6527 15.4271C43.1928 16.8677 42.9629 18.4757 42.9629 20.2513C42.9629 21.8593 43.16 23.3501 43.5541 24.7236C43.9811 26.0972 44.6052 27.2864 45.4264 28.2915C46.2476 29.2965 47.2658 30.0837 48.4811 30.6533C49.6964 31.1893 51.1088 31.4573 52.7183 31.4573C53.6709 31.4573 54.5906 31.3568 55.4774 31.1558C56.3643 30.9213 57.1526 30.5695 57.8424 30.1005C58.565 29.598 59.1562 28.9615 59.6161 28.191C60.076 27.4204 60.388 26.4824 60.5522 25.3769H52.6198V17.7387Z" fill="#F0F8FC"/>
<path d="M104.643 13.7186C102.409 10.938 99.6503 9.54774 96.3656 9.54774C94.9204 9.54774 93.5737 9.81575 92.3255 10.3518C91.1102 10.8878 90.0591 11.6248 89.1722 12.5628C88.2854 13.4673 87.5792 14.5561 87.0536 15.8291C86.5609 17.1022 86.3146 18.4757 86.3146 19.9497C86.3146 21.4573 86.5609 22.8476 87.0536 24.1206C87.5792 25.3936 88.2854 26.4992 89.1722 27.4372C90.0919 28.3752 91.1594 29.1122 92.3748 29.6482C93.5901 30.1843 94.9039 30.4523 96.3163 30.4523C99.4039 30.4523 102.179 29.1122 104.643 26.4322V38.0905L103.658 38.4422C102.179 38.9782 100.8 39.3635 99.5189 39.598C98.2379 39.866 96.9733 40 95.7251 40C93.1631 40 90.6996 39.5142 88.3346 38.5427C86.0025 37.5377 83.9332 36.1474 82.1266 34.3719C80.3529 32.5628 78.9241 30.4355 77.8402 27.9899C76.7562 25.5109 76.2143 22.8141 76.2143 19.8995C76.2143 16.9849 76.7398 14.3216 77.7909 11.9095C78.8748 9.46399 80.3036 7.37018 82.0774 5.62814C83.8839 3.8526 85.9697 2.47906 88.3346 1.50754C90.6996 0.502512 93.1795 0 95.7744 0C97.2525 0 98.6977 0.167504 100.11 0.502512C101.555 0.80402 103.066 1.28978 104.643 1.9598V13.7186Z" fill="#F0F8FC"/>
<path d="M128.834 17.7387H148C148 19.7487 147.918 21.5745 147.754 23.2161C147.589 24.8576 147.261 26.3819 146.768 27.7889C146.078 29.7655 145.142 31.5243 143.96 33.0653C142.777 34.5729 141.381 35.8459 139.772 36.8844C138.195 37.8894 136.454 38.66 134.549 39.196C132.644 39.732 130.641 40 128.538 40C125.648 40 123.004 39.5142 120.606 38.5427C118.241 37.5712 116.205 36.2144 114.497 34.4724C112.788 32.6968 111.458 30.5863 110.506 28.1407C109.553 25.6616 109.077 22.9313 109.077 19.9497C109.077 17.0017 109.537 14.3049 110.456 11.8593C111.409 9.38023 112.739 7.26968 114.447 5.52764C116.188 3.7856 118.274 2.42881 120.705 1.45729C123.135 0.485762 125.845 0 128.834 0C132.71 0 136.11 0.854271 139.033 2.56281C141.956 4.27136 144.272 6.91792 145.98 10.5025L136.816 14.3719C135.962 12.2948 134.845 10.804 133.465 9.8995C132.119 8.99498 130.575 8.54271 128.834 8.54271C127.389 8.54271 126.075 8.82747 124.892 9.39699C123.71 9.933 122.692 10.7203 121.838 11.7588C121.017 12.7638 120.36 13.9866 119.867 15.4271C119.407 16.8677 119.177 18.4757 119.177 20.2513C119.177 21.8593 119.374 23.3501 119.768 24.7236C120.195 26.0972 120.819 27.2864 121.641 28.2915C122.462 29.2965 123.48 30.0837 124.695 30.6533C125.911 31.1893 127.323 31.4573 128.933 31.4573C129.885 31.4573 130.805 31.3568 131.692 31.1558C132.579 30.9213 133.367 30.5695 134.057 30.1005C134.779 29.598 135.37 28.9615 135.83 28.191C136.29 27.4204 136.602 26.4824 136.766 25.3769H128.834V17.7387Z" fill="#F0F8FC"/>
</svg>
