<svg xmlns="http://www.w3.org/2000/svg" viewBox="0 0 2500 359"><defs><path id="a" fill="none" d="M0 .1h2496.9v357.28H0z"/></defs><path fill="#fff" d="M585.46 249.72c-5.26 29.16-30.17 50.7-59.78 51.69-22.48.69-41.27-16.97-41.96-39.46-.12-3.8.3-7.59 1.23-11.28 5.05-29.09 29.8-50.66 59.31-51.69 22.05-1.48 41.12 15.2 42.6 37.25.3 4.54-.17 9.1-1.4 13.49m19.06-100.04-4.29 20.96c-10.73-19.59-32.4-30.57-54.54-27.63-60.59 2.43-111.03 47.3-120.52 107.18-10.48 57.4 17.15 107.66 80.75 107.66 24.63.91 48.3-9.64 64.07-28.58l-3.81 21.44h59.31l37.4-200.31h-58.36v-.71Zm92.89.24h55.97l-3.81 20.96a62.64 62.64 0 0 1 56.21-27.87l-10.96 60.26c-28.11 0-47.64 6.19-54.07 36.92l-20.48 110.04h-60.26z"/><use href="#a"/><path fill="#fff" d="m846.04 71.31-51.69 278.92h60.26l17.86-96.7h.95l38.59 96.7h67.88l-52.4-112.42 91.7-87.89h-70.74l-69.31 72.65h-.95L906.3 71.32h-60.26Z"/><path fill="#fff" d="M1054.69 227.8c8.86-20.92 29.44-34.46 52.16-34.3 19.08-2.24 36.35 11.41 38.59 30.49.15 1.26.23 2.54.24 3.81zm60.73-84.79c-61.43 3.28-112.81 47.8-124.81 108.14-11.21 46.15 17.11 92.64 63.26 103.85a86.3 86.3 0 0 0 23.2 2.38c21.4-.16 42.31-6.44 60.26-18.1a151.3 151.3 0 0 0 50.26-51.21h-61.21a51.93 51.93 0 0 1-40.25 18.58c-19.6 2.28-37.34-11.76-39.62-31.36-.25-2.16-.3-4.34-.16-6.51h150.3a72 72 0 0 0 4.29-15.72c11.43-62.4-24.3-110.04-85.51-110.04"/><use href="#a"/><path fill="#fff" d="M345.37 71.31 239.62 230.18h-.95V71.31h-51.21L0 350.23h72.65l105.28-158.87h.95v158.87h51.69l105.28-158.87h.95v158.87h60.26V71.31zm1007.76 78.61h-37.87l10.96-59.31h-52.64l-4.29 23.82c-2.6 21.57-21.41 37.47-43.11 36.44l-9.05 44.3h29.77l-28.82 155.06h59.78l28.82-155.06h38.35l8.1-45.26Z"/><path fill="#4db84d" d="M2337.32 71.55h59.78l-18.1 99.32c12.61-19.07 34.62-29.75 57.4-27.87a61.22 61.22 0 0 1 50.73 22.39c12.86 19.53 11.43 37.4 4.76 73.12l-20.48 111.95h-59.78l20.01-109.09c1.91-9.53 7.62-42.16-23.82-42.16-21.94.19-40.07 17.18-41.68 39.06l-20.72 111.95h-58.83l50.73-278.68Zm-252 78.37h-36.92l10.24-59.31H2006l-5.24 22.87c-2.6 21.57-21.41 37.47-43.11 36.44l-8.1 45.26h29.54l-28.58 155.06h59.78l28.58-155.06h38.35zM1796.88 301.4c30.07-.43 55.62-22.09 60.98-51.69 5.97-21.28-6.44-43.37-27.72-49.34-4.38-1.23-8.94-1.7-13.49-1.4-29.51 1.03-54.26 22.6-59.31 51.69-5.54 21.8 7.65 43.96 29.45 49.5 3.68.94 7.48 1.35 11.28 1.23m100.99 47.65h-60.5l3.81-21.44a79.53 79.53 0 0 1-65.02 29.77c-63.6 0-91.46-50.26-80.75-107.66 9.67-59.62 59.94-104.21 120.28-106.71 21.92-2.44 43.13 8.68 53.59 28.11l4.29-20.96h59.31zM1784.01.1 1667.3 71.56h33.11l-105.75 158.63V71.55h-52.64l-105.75 158.63V71.55h-61.21v278.68h52.16l105.75-159.58v159.58h51.69l187.93-278.68h29.54zm496.86 274.15c-20.51 48.85-67.57 81.31-120.52 83.13-47.55 2.64-88.23-33.77-90.86-81.32-.5-9.03.42-18.08 2.73-26.82 12.21-60.58 64.7-104.67 126.48-106.23 46.73-3.03 87.07 32.41 90.1 79.14.11 1.72.17 3.45.18 5.18h-60.74c-3.59-17.91-20.18-30.17-38.35-28.34-28.93.46-53.15 22.05-56.93 50.73-6.86 20.32 4.05 42.34 24.37 49.2 4.5 1.52 9.24 2.2 13.98 2.01a57.17 57.17 0 0 0 47.64-26.68h61.93Z"/></svg>