<svg xmlns="http://www.w3.org/2000/svg" width="281" height="41" fill="none" viewBox="0 0 281 41"><g fill="#00bc6f" clip-path="url(#a)"><path d="m34.054 11.65-12.707 17h-1.46L7.433 11.586v28.522H.064V.955h8.514l12.198 16.871L32.974.955h8.45v39.154h-7.37zm43.454 28.395H48.283V.891h29.225v7.194H55.589v9.04h21.156v6.877H55.59v8.849h21.919zm40.153-19.927c.191 9.932-5.845 19.927-19.568 19.927H82.72V.891h15.374c13.406 0 19.378 9.55 19.568 19.227M90.025 32.915h8.068c8.895 0 12.389-6.494 12.198-12.86-.19-6.112-3.748-12.224-12.198-12.224h-8.068zm33.163 7.13V.891h7.306v39.154zm26.175-32.469h-12.388V.891h32.147v6.685h-12.389v32.47h-7.37zm53.366 32.469h-29.288V.891h29.288v7.194h-21.918v9.04h21.156v6.877h-21.156v8.849h21.918zm40.151-4.902c-4.002 3.947-9.212 5.793-14.866 5.793-14.549 0-20.648-9.995-20.711-20.181 0-10.25 6.607-20.691 20.775-20.691 5.273 0 10.355 2.037 14.358 5.984l-4.892 4.775c-2.542-2.547-6.036-3.693-9.466-3.693-9.467 0-13.533 7.067-13.469 13.625.063 6.494 3.812 13.242 13.469 13.242 3.43 0 7.242-1.4 9.847-3.947zm30.813 4.966V24.256h-19.187V40.11h-7.369V.955h7.369v16.49h19.187V.954h7.306v39.154z"/></g><defs><clipPath id="a"><path fill="#fff" d="M0 0h281v41H0z"/></clipPath></defs></svg>