<svg width="239" height="83" viewBox="0 0 239 83" fill="none" xmlns="http://www.w3.org/2000/svg">
<g clip-path="url(#clip0_3215_3348)">
<path d="M0 -1.47021L61.717 20.4551V50.5739C61.717 53.0006 59.3068 54.6992 57.0115 53.8856L44.0856 49.2893V32.2457C44.0856 28.5915 41.8046 25.3227 38.3758 24.038L32.3649 21.7969C31.2172 21.3687 29.9834 22.2109 29.9834 23.4385V44.2933L0 33.6446V-1.47021Z" fill="url(#paint0_linear_3215_3348)"/>
<path d="M61.7173 26.9642C61.7173 30.647 59.4076 33.9444 55.9215 35.2148L15.8672 49.7746V84.8609L61.7173 68.1885V26.9642Z" fill="black" fill-opacity="0.24"/>
<path d="M61.7173 28.3632C61.7173 32.0459 59.4076 35.3433 55.9215 36.6137L15.8672 51.1735V86.2598L61.7173 69.5874V28.3632Z" fill="black" fill-opacity="0.32"/>
<path d="M61.7173 26.6074C61.7173 30.2902 59.4076 33.5876 55.9215 34.858L15.8672 49.4178V84.5041L61.7173 67.8316V26.6074Z" fill="url(#paint1_linear_3215_3348)"/>
<path opacity="0.5" d="M61.7173 26.6074C61.7173 30.2902 59.4076 33.5876 55.9215 34.858L15.8672 49.4178V84.5041L61.7173 67.8316V26.6074Z" fill="url(#paint2_linear_3215_3348)"/>
<path opacity="0.5" d="M44.0853 39.1688L29.9688 44.3076V64.8911C29.9688 66.1187 31.2025 66.9609 32.3502 66.5327L38.3755 64.2773C41.8186 62.9927 44.0853 59.7238 44.0853 56.0696V39.1688Z" fill="#B0ADFF"/>
<path d="M98.852 38.029H96.6908V25.5942C96.6908 24.6125 96.7613 23.4204 96.8788 21.9946H96.8318C96.6204 22.8361 96.4324 23.4204 96.268 23.7944L89.9019 38.029H88.8448L82.5021 23.8879C82.3142 23.4672 82.1263 22.8361 81.9383 21.9946H81.8913C81.9618 22.7426 81.9853 23.9347 81.9853 25.6176V38.029H79.8711V19.4937H82.7605L88.4689 32.4193C88.9152 33.401 89.1971 34.149 89.3146 34.6398H89.3851C89.7609 33.6347 90.0663 32.8634 90.2777 32.3726L96.1035 19.4937H98.8285V38.029H98.852Z" fill="black"/>
<path d="M104.536 21.4336C104.16 21.4336 103.832 21.2934 103.573 21.0363C103.315 20.7792 103.174 20.4519 103.174 20.0546C103.174 19.6572 103.315 19.33 103.573 19.0729C103.832 18.8158 104.16 18.6755 104.536 18.6755C104.936 18.6755 105.265 18.8158 105.523 19.0729C105.781 19.33 105.922 19.6572 105.922 20.0546C105.922 20.4286 105.781 20.7558 105.523 21.0129C105.265 21.2934 104.936 21.4336 104.536 21.4336ZM105.593 38.029H103.456V24.7994H105.593V38.029Z" fill="black"/>
<path d="M118.96 37.4213C117.927 38.029 116.729 38.3329 115.319 38.3329C113.416 38.3329 111.889 37.7252 110.738 36.4864C109.564 35.2476 109 33.6582 109 31.7181C109 29.5444 109.634 27.7914 110.879 26.4591C112.124 25.1268 113.816 24.4723 115.906 24.4723C117.081 24.4723 118.115 24.6827 119.007 25.1268V27.3005C118.021 26.6227 116.964 26.2721 115.836 26.2721C114.473 26.2721 113.369 26.7629 112.5 27.7212C111.631 28.6796 111.185 29.9651 111.185 31.5311C111.185 33.0738 111.584 34.3126 112.406 35.2008C113.228 36.089 114.333 36.5565 115.695 36.5565C116.846 36.5565 117.95 36.1825 118.96 35.4112V37.4213Z" fill="black"/>
<path d="M129.133 26.9265C128.757 26.646 128.217 26.5058 127.512 26.5058C126.596 26.5058 125.844 26.9265 125.234 27.7913C124.623 28.6328 124.317 29.8014 124.317 31.274V38.029H122.18V24.7995H124.317V27.5342H124.364C124.67 26.5993 125.14 25.8747 125.75 25.3604C126.385 24.8462 127.066 24.5891 127.841 24.5891C128.405 24.5891 128.828 24.6592 129.11 24.7761V26.9265H129.133Z" fill="black"/>
<path d="M136.65 38.3328C134.676 38.3328 133.102 37.7251 131.951 36.4863C130.777 35.2475 130.189 33.6113 130.189 31.5778C130.189 29.3573 130.8 27.6277 132.022 26.3655C133.243 25.1267 134.888 24.4956 136.978 24.4956C138.952 24.4956 140.502 25.1033 141.63 26.3188C142.734 27.5342 143.298 29.2171 143.298 31.3675C143.298 33.4711 142.687 35.1774 141.489 36.4396C140.291 37.7017 138.67 38.3328 136.65 38.3328ZM136.79 26.272C135.428 26.272 134.347 26.7395 133.549 27.6511C132.75 28.586 132.351 29.8482 132.351 31.4843C132.351 33.0504 132.75 34.2892 133.549 35.2008C134.347 36.1123 135.428 36.5564 136.79 36.5564C138.176 36.5564 139.234 36.1123 139.962 35.2241C140.714 34.3359 141.066 33.0738 141.066 31.4376C141.066 29.7781 140.69 28.5159 139.962 27.6043C139.234 26.7161 138.176 26.272 136.79 26.272Z" fill="black"/>
<path d="M145.857 37.5381V35.2709C147.009 36.1123 148.301 36.5564 149.687 36.5564C151.566 36.5564 152.482 35.9253 152.482 34.6865C152.482 34.3359 152.412 34.0321 152.247 33.7983C152.083 33.5412 151.871 33.3309 151.589 33.1439C151.307 32.9569 151.002 32.7933 150.626 32.6297C150.25 32.4894 149.851 32.3258 149.428 32.1622C148.841 31.9284 148.324 31.6947 147.878 31.461C147.431 31.2272 147.056 30.9467 146.75 30.6663C146.445 30.3624 146.233 30.0352 146.069 29.6612C145.928 29.2872 145.834 28.8431 145.834 28.3289C145.834 27.6978 145.975 27.1602 146.257 26.6694C146.539 26.2019 146.915 25.7812 147.408 25.4773C147.901 25.1734 148.418 24.9163 149.029 24.7527C149.64 24.5891 150.274 24.4956 150.908 24.4956C152.059 24.4956 153.093 24.6826 154.009 25.0799V27.2303C153.022 26.5992 151.895 26.272 150.626 26.272C150.227 26.272 149.874 26.3188 149.546 26.4122C149.217 26.5057 148.958 26.6226 148.723 26.7862C148.488 26.9498 148.324 27.1368 148.183 27.3706C148.066 27.6043 147.995 27.8614 147.995 28.1185C147.995 28.4691 148.066 28.7496 148.183 28.9834C148.301 29.2171 148.489 29.4275 148.747 29.6144C148.982 29.8014 149.287 29.9651 149.64 30.1053C149.992 30.2455 150.391 30.4092 150.814 30.5728C151.401 30.8065 151.942 31.0169 152.388 31.274C152.858 31.5077 153.257 31.7882 153.586 32.0687C153.915 32.3725 154.173 32.6998 154.338 33.0971C154.526 33.4945 154.596 33.9386 154.596 34.4762C154.596 35.1306 154.455 35.6916 154.15 36.1825C153.868 36.6733 153.469 37.0707 152.999 37.3745C152.505 37.7017 151.965 37.9355 151.331 38.0757C150.697 38.2393 150.039 38.3095 149.334 38.3095C148.066 38.3328 146.868 38.0757 145.857 37.5381Z" fill="black"/>
<path d="M163.523 38.3328C161.549 38.3328 159.975 37.7251 158.824 36.4863C157.65 35.2475 157.062 33.6113 157.062 31.5778C157.062 29.3573 157.673 27.6277 158.895 26.3655C160.116 25.1267 161.761 24.4956 163.851 24.4956C165.825 24.4956 167.375 25.1033 168.503 26.3188C169.607 27.5342 170.171 29.2171 170.171 31.3675C170.171 33.4711 169.56 35.1774 168.362 36.4396C167.14 37.7017 165.543 38.3328 163.523 38.3328ZM163.687 26.272C162.325 26.272 161.244 26.7395 160.445 27.6511C159.647 28.586 159.247 29.8482 159.247 31.4843C159.247 33.0504 159.647 34.2892 160.445 35.2008C161.244 36.1123 162.325 36.5564 163.687 36.5564C165.073 36.5564 166.13 36.1123 166.858 35.2241C167.61 34.3359 167.962 33.0738 167.962 31.4376C167.962 29.7781 167.587 28.5159 166.858 27.6043C166.107 26.7161 165.05 26.272 163.687 26.272Z" fill="black"/>
<path d="M179.638 20.2884C179.215 20.0546 178.745 19.9378 178.228 19.9378C176.748 19.9378 175.996 20.8727 175.996 22.7426V24.7761H179.121V26.5759H175.996V38.0056H173.882V26.5759H171.604V24.7761H173.882V22.6257C173.882 21.2467 174.282 20.1481 175.08 19.3301C175.879 18.5353 176.889 18.1146 178.087 18.1146C178.745 18.1146 179.262 18.1847 179.638 18.3484V20.2884Z" fill="black"/>
<path d="M188.049 37.8887C187.556 38.1692 186.874 38.3095 186.052 38.3095C183.727 38.3095 182.552 37.0239 182.552 34.4294V26.5992H180.273V24.7995H182.552V21.5505L184.69 20.8727V24.7995H188.049V26.5992H184.69V34.0554C184.69 34.9436 184.831 35.5747 185.136 35.9487C185.442 36.3227 185.935 36.5097 186.64 36.5097C187.18 36.5097 187.65 36.3694 188.026 36.0656V37.8887H188.049Z" fill="black"/>
<path d="M79.8477 66.3112V47.7759H84.9922C91.5463 47.7759 94.8351 50.7911 94.8351 56.8215C94.8351 59.6731 93.9189 61.9871 92.1101 63.7167C90.2778 65.4464 87.8582 66.3112 84.7808 66.3112H79.8477ZM82.0323 49.7393V64.3478H84.8043C87.2474 64.3478 89.1502 63.6934 90.5127 62.3844C91.8752 61.0755 92.5564 59.229 92.5564 56.8449C92.5564 52.1 90.0194 49.7159 84.9453 49.7159H82.0323V49.7393Z" fill="black"/>
<path d="M108.812 53.0817L102.704 68.4382C101.624 71.1729 100.073 72.552 98.0999 72.552C97.5361 72.552 97.0898 72.5052 96.7139 72.3883V70.4951C97.1837 70.6587 97.5831 70.7288 97.9824 70.7288C99.063 70.7288 99.8617 70.0977 100.402 68.8122L101.459 66.3112L96.2676 53.105H98.6402L102.234 63.296C102.281 63.4362 102.375 63.7634 102.516 64.301H102.587C102.634 64.0907 102.728 63.7634 102.845 63.3193L106.627 53.105H108.812V53.0817Z" fill="black"/>
<path d="M122.133 66.3112H119.995V58.7615C119.995 55.9567 118.961 54.5542 116.894 54.5542C115.837 54.5542 114.944 54.9516 114.24 55.7463C113.535 56.541 113.183 57.5461 113.183 58.7615V66.3112H111.045V53.0817H113.183V55.2788H113.23C114.24 53.5959 115.696 52.7778 117.599 52.7778C119.055 52.7778 120.16 53.2453 120.935 54.1803C121.71 55.1152 122.086 56.4709 122.086 58.2239V66.3112H122.133Z" fill="black"/>
<path d="M135.663 66.3111H133.525V64.2543H133.478C132.562 65.8437 131.176 66.6384 129.391 66.6384C128.075 66.6384 127.018 66.2878 126.29 65.5866C125.561 64.8853 125.162 63.9738 125.162 62.8051C125.162 60.3275 126.619 58.9017 129.555 58.4809L133.548 57.92C133.548 55.6761 132.632 54.5542 130.8 54.5542C129.203 54.5542 127.746 55.0918 126.454 56.1903V53.9932C127.77 53.1751 129.273 52.7544 130.964 52.7544C134.089 52.7544 135.663 54.3906 135.663 57.6862V66.3111ZM133.548 59.6029L130.33 60.047C129.344 60.1872 128.592 60.421 128.099 60.7716C127.605 61.1222 127.347 61.7299 127.347 62.6181C127.347 63.2726 127.582 63.7868 128.052 64.2075C128.521 64.6282 129.132 64.8152 129.907 64.8152C130.964 64.8152 131.834 64.4412 132.515 63.7167C133.196 62.9921 133.548 62.0571 133.548 60.9118V59.6029Z" fill="black"/>
<path d="M158.567 66.3112H156.452V58.7147C156.452 57.2422 156.218 56.1904 155.771 55.5359C155.325 54.8815 154.55 54.5542 153.469 54.5542C152.553 54.5542 151.778 54.975 151.143 55.793C150.509 56.6111 150.18 57.6162 150.18 58.7615V66.3112H148.043V58.4576C148.043 55.8632 147.033 54.5542 145.012 54.5542C144.073 54.5542 143.297 54.9516 142.71 55.7229C142.099 56.4942 141.794 57.5227 141.794 58.7615V66.3112H139.656V53.0817H141.794V55.1853H141.841C142.781 53.5725 144.167 52.7778 145.975 52.7778C146.892 52.7778 147.667 53.0349 148.348 53.5258C149.029 54.04 149.476 54.6945 149.734 55.5126C150.721 53.6894 152.201 52.7778 154.15 52.7778C157.087 52.7778 158.543 54.5776 158.543 58.1772V66.3112H158.567Z" fill="black"/>
<path d="M163.689 49.7159C163.313 49.7159 162.984 49.5756 162.726 49.3185C162.467 49.0614 162.326 48.7342 162.326 48.3368C162.326 47.9395 162.467 47.6122 162.726 47.3551C162.984 47.098 163.313 46.9578 163.689 46.9578C164.088 46.9578 164.417 47.098 164.675 47.3551C164.957 47.6122 165.075 47.9395 165.075 48.3368C165.075 48.7108 164.934 49.038 164.675 49.2951C164.417 49.5756 164.088 49.7159 163.689 49.7159ZM164.722 66.3112H162.585V53.0817H164.722V66.3112Z" fill="black"/>
<path d="M178.111 65.7034C177.077 66.3111 175.879 66.615 174.47 66.615C172.567 66.615 171.04 66.0073 169.889 64.7685C168.714 63.5297 168.15 61.9403 168.15 60.0002C168.15 57.8265 168.785 56.0735 170.03 54.7412C171.275 53.4089 172.966 52.7544 175.057 52.7544C176.231 52.7544 177.265 52.9648 178.158 53.4089V55.5826C177.171 54.9048 176.114 54.5542 174.986 54.5542C173.624 54.5542 172.52 55.045 171.651 56.0033C170.781 56.9617 170.335 58.2472 170.335 59.8133C170.335 61.3559 170.734 62.5947 171.557 63.4829C172.379 64.3711 173.483 64.8386 174.845 64.8386C175.996 64.8386 177.101 64.4646 178.111 63.6933V65.7034Z" fill="black"/>
<path d="M180.531 65.8204V63.5531C181.682 64.3946 182.974 64.8387 184.36 64.8387C186.24 64.8387 187.156 64.2076 187.156 62.9688C187.156 62.6182 187.085 62.3143 186.921 62.0806C186.756 61.8235 186.545 61.6131 186.263 61.4261C185.981 61.2391 185.676 61.0755 185.3 60.9119C184.924 60.7716 184.525 60.608 184.102 60.4444C183.515 60.2107 182.998 59.9769 182.552 59.7432C182.105 59.5095 181.729 59.229 181.424 58.9485C181.119 58.6446 180.907 58.3174 180.743 57.9434C180.602 57.5694 180.508 57.1253 180.508 56.6111C180.508 55.98 180.649 55.4424 180.931 54.9516C181.213 54.4607 181.588 54.0634 182.082 53.7595C182.575 53.4557 183.092 53.1986 183.703 53.0349C184.313 52.8713 184.948 52.7778 185.582 52.7778C186.733 52.7778 187.767 52.9648 188.683 53.3622V55.5126C187.696 54.8815 186.569 54.5542 185.3 54.5542C184.901 54.5542 184.548 54.601 184.219 54.6945C183.891 54.788 183.632 54.9048 183.397 55.0685C183.162 55.2321 182.998 55.4191 182.857 55.6528C182.739 55.8865 182.669 56.1436 182.669 56.4008C182.669 56.7514 182.739 57.0318 182.857 57.2656C182.974 57.4993 183.162 57.7097 183.397 57.8967C183.632 58.0837 183.938 58.2473 184.29 58.3875C184.642 58.5278 185.042 58.6914 185.464 58.855C186.052 59.0887 186.592 59.2991 187.038 59.5562C187.508 59.7899 187.908 60.0704 188.236 60.3509C188.565 60.6548 188.824 60.982 188.988 61.3794C189.176 61.7767 189.247 62.2208 189.247 62.7584C189.247 63.4129 189.106 63.9738 188.8 64.4647C188.518 64.9555 188.119 65.3529 187.649 65.6567C187.156 65.984 186.616 66.2177 185.981 66.3579C185.347 66.5216 184.689 66.5917 183.985 66.5917C182.716 66.6151 181.541 66.358 180.531 65.8204Z" fill="black"/>
<path d="M199.465 65.6333V63.3427C200.733 64.3478 202.166 64.8386 203.787 64.8386C205.079 64.8386 206.113 64.5114 206.888 63.8803C207.663 63.2259 208.039 62.361 208.039 61.2625C208.039 58.8316 206.301 57.6395 202.848 57.6395H201.321V55.8398H202.777C205.854 55.8398 207.381 54.6945 207.381 52.4272C207.381 50.3236 206.207 49.2718 203.858 49.2718C202.542 49.2718 201.321 49.7159 200.146 50.6041V48.5472C201.344 47.846 202.754 47.4954 204.375 47.4954C205.948 47.4954 207.193 47.9161 208.133 48.7342C209.073 49.5522 209.543 50.6274 209.543 51.913C209.543 54.3439 208.298 55.9099 205.807 56.6111V56.6579C207.146 56.7981 208.227 57.2656 209.002 58.0603C209.801 58.855 210.2 59.8834 210.2 61.0755C210.2 62.735 209.59 64.0907 208.392 65.0958C207.193 66.1242 205.62 66.6384 203.646 66.6384C201.908 66.615 200.498 66.2878 199.465 65.6333Z" fill="black"/>
<path d="M224.226 47.9863V49.9964C223.263 49.5056 222.252 49.2484 221.195 49.2484C219.551 49.2484 218.212 49.973 217.225 51.4456C216.239 52.9181 215.745 54.8815 215.745 57.3357H215.792C216.661 55.5827 218.071 54.7179 220.044 54.7179C221.665 54.7179 222.957 55.2321 223.92 56.2839C224.883 57.3124 225.353 58.7148 225.353 60.4444C225.353 62.2676 224.813 63.7401 223.709 64.8855C222.605 66.0308 221.219 66.6151 219.504 66.6151C217.625 66.6151 216.168 65.8671 215.111 64.3946C214.054 62.9221 213.514 60.8418 213.514 58.1538C213.514 54.9049 214.218 52.3104 215.604 50.3704C216.99 48.4304 218.846 47.472 221.125 47.472C222.44 47.472 223.474 47.6357 224.226 47.9863ZM219.574 56.5177C218.47 56.5177 217.578 56.8916 216.896 57.6396C216.215 58.3876 215.863 59.2524 215.863 60.2575C215.863 61.5196 216.192 62.5948 216.873 63.5064C217.554 64.3946 218.447 64.8621 219.574 64.8621C220.655 64.8621 221.524 64.4647 222.182 63.6934C222.84 62.9221 223.169 61.917 223.169 60.7249C223.169 59.416 222.863 58.3876 222.229 57.6396C221.618 56.8916 220.725 56.5177 219.574 56.5177Z" fill="black"/>
<path d="M228.57 65.8671V63.6232C229.839 64.4413 231.131 64.8621 232.446 64.8621C233.762 64.8621 234.819 64.4881 235.618 63.7401C236.416 62.9922 236.816 62.0105 236.816 60.795C236.816 59.5796 236.393 58.6213 235.571 57.9434C234.749 57.2656 233.574 56.915 232.047 56.915C231.53 56.915 230.544 56.9617 229.134 57.0786V47.7759H238.155V49.6925H231.154V55.1152C231.718 55.0918 232.258 55.0685 232.728 55.0685C234.725 55.0685 236.252 55.5593 237.356 56.5644C238.437 57.5695 239 58.9251 239 60.6548C239 62.4546 238.413 63.8804 237.239 64.9789C236.064 66.0775 234.467 66.6151 232.423 66.6151C230.708 66.6151 229.416 66.358 228.57 65.8671Z" fill="black"/>
</g>
<defs>
<linearGradient id="paint0_linear_3215_3348" x1="20.3069" y1="-0.453312" x2="36.5749" y2="42.3448" gradientUnits="userSpaceOnUse">
<stop stop-color="#0B53CE"/>
<stop offset="1" stop-color="#7252AA"/>
</linearGradient>
<linearGradient id="paint1_linear_3215_3348" x1="38.8006" y1="81.4304" x2="38.8006" y2="30.4808" gradientUnits="userSpaceOnUse">
<stop stop-color="#2266E3"/>
<stop offset="1" stop-color="#AE7FE2"/>
</linearGradient>
<linearGradient id="paint2_linear_3215_3348" x1="61.7244" y1="55.5575" x2="44.158" y2="55.5575" gradientUnits="userSpaceOnUse">
<stop stop-color="#94B9FF"/>
<stop offset="0.2878" stop-color="#94B9FF" stop-opacity="0.5236"/>
<stop offset="1" stop-color="#538FFF" stop-opacity="0"/>
</linearGradient>
<clipPath id="clip0_3215_3348">
<rect width="239" height="83" fill="white"/>
</clipPath>
</defs>
</svg>
