<svg xmlns="http://www.w3.org/2000/svg" width="272" height="85" fill="none" viewBox="0 0 272 85"><g clip-path="url(#a)"><mask id="b" width="272" height="85" x="0" y="0" maskUnits="userSpaceOnUse" style="mask-type:luminance"><path fill="#fff" d="M0 85h272V0H0z"/></mask><g mask="url(#b)"><mask id="d" width="274" height="87" x="0" y="0" maskUnits="userSpaceOnUse" style="mask-type:luminance"><use href="#c"/></mask><g mask="url(#d)"><path fill="#000" d="M27.37 65.876H14.866l-.417 1.548-3.056 11.401-1.529 6.053H0l1.39-4.926 3.612-14.5 1.111-4.08H31.26c7.92 0 12.505 1.549 14.033 4.504l-3.472 14.357-.973 4.645H30.426l4.308-17.454c-.555-.985-1.666-1.548-3.196-1.548zm36.54 9.572h20.285c3.058 0 5.002-1.127 5.697-3.238l.972-6.334c.695-3.096-.694-4.504-3.89-4.504H59.883c-5.836-.142-8.892 1.266-9.17 4.08l-3.752 14.5c0 .563 0 .985.139 1.548q1.46 3.378 11.253 3.378h28.345l1.111-4.645-13.06.14-13.755-.14c-2.085 0-3.474-.422-3.89-1.407l.972-3.378h5.836m17.229-7.18-.834 2.394H58.908l1.252-3.238c.695-.985 2.223-1.548 4.445-1.548H78.5c2.779-.14 3.612.563 2.5 2.252zm55.574-2.392-3.334 14.357c-.694 3.097-4.724 4.786-12.366 4.786h-16.951c-6.528 0-10.142-1.267-11.114-3.52-.278-.421-.278-.984-.14-1.547l3.614-14.357 3.612-13.513h9.725l-2.222 9.29h15.283c7.779 0 12.504 1.549 13.893 4.504m-17.923 0h-8.475c-2.223 0-3.612.563-4.306 1.548l-3.058 11.542c.417.845 1.669 1.408 3.891 1.408h13.615c1.25-.14 2.086-.563 2.641-1.408l3.195-11.542c-.694-.985-1.667-1.548-3.334-1.548zm53.213 1.548-3.195 11.401c-.417.845-1.391 1.408-2.641 1.549l-13.615-.14c-2.083 0-3.474-.423-3.891-1.408l3.058-11.402 1.944-6.052h-10.419l-1.112 4.08-3.613 14.5c-.139.563 0 1.126.139 1.548.972 2.252 4.724 3.378 11.116 3.378h16.949c7.641 0 11.672-1.548 12.366-4.645l3.334-14.357.972-4.504h-9.725zm20.838 17.454h-9.862l8.621-32.796h9.724zm33.208-14.216h-20.984q-3.528 0-4.167 2.111l-1.667 7.179c-.13.563-.13 1.126.148 1.548.833 2.252 4.575 3.378 11.113 3.378h16.946c7.501 0 11.669-1.548 12.224-4.645l3.482-14.357c-1.537-2.955-6.112-4.504-14.039-4.504h-25.559l-.981 4.504h26.818c1.537 0 2.649.563 3.204 1.548l-.833 3.238zm3.612 8.164c-.556.844-1.519 1.407-2.778 1.548l-13.613-.14c-2.223 0-3.482-.423-4.038-1.408l1.111-3.52h20.429z"/></g><mask id="e" width="274" height="87" x="0" y="0" maskUnits="userSpaceOnUse" style="mask-type:luminance"><use href="#c"/></mask><g mask="url(#e)"><path fill="#0098db" d="M217.01 38.992v-2.816l.149-2.253.129-1.688.148-2.113.278-1.97.13-2.11.426-2.253.278-2.393.555-3.097.686-2.815.703-3.377.834 3.096 1.389 3.378 1.241 2.815 1.259 2.393 1.519 2.394 1.408 1.829 2.074 2.534 2.093 2.251 2.908 2.112 2.092-1.126 2.353-.986 2.37-.703 1.945-.705 1.797-.562 2.5-.705 2.222-.421 2.371-.563 2.778-.564 3.056-.28 2.778-.282h2.779l-2.779 2.393-2.222 1.83-2.223 1.83-2.37 2.393-1.797 2.11-1.815 2.112-1.945 2.394-5.408 7.319 24.17 30.122h.13l-19.725-30.827 6.538-7.178 2.5-2.816 2.63-2.674 2.371-2.392 2.5-2.393 2.63-2.394 2.371-2.11 3.204-2.534-2.093-.281-3.204-.14-3.612-.142-4.296.282-2.223.14-2.926.422-3.334.564-2.352.562-2.649.563-3.056.845-3.056.986-2.908 1.407-3.611-3.238-2.371-3.237-2.63-3.518-1.667-2.675-1.685-3.38-1.667-3.236-1.241-3.801-.982-3.8-.555-4.503-1.797 4.08-1.259 3.38-.963 4.082-.704 3.096-.556 3.096-.407 2.675-.426 2.534-.278 2.815-.407 2.251-.149 2.675-.129 1.829-.148 2.815-.13 2.113-7.501 2.252-7.223 2.11-8.761 2.254-11.39 3.096 1.389.281z"/></g></g></g><defs><clipPath id="a"><path fill="#fff" d="M0 0h272v85H0z"/></clipPath><path id="c" fill="#fff" d="M0 0v86.145h273.148V.001"/></defs></svg>