<svg xmlns="http://www.w3.org/2000/svg" width="210" height="73" fill="none" viewBox="0 0 210 73"><g clip-path="url(#a)"><path fill="#c84634" d="M11.023 32.746C5.233 31.564 0 25.306 0 19.466 0 16.06 2.581 11.264 5.79 8.76l2.722-2.155 11.79-.209c11.024-.208 12.07-.139 15 1.321 4.326 2.016 6.768 5.84 7.117 10.985.488 6.883-3.558 12.375-10.326 13.905-3.488.834-17.093.903-21.07.139m21.489-5.354c2.72-1.32 5.162-4.866 5.162-7.578 0-2.78-1.813-6.187-4.116-7.508-1.674-.974-3.907-1.182-12.558-1.182H10.535l-2.442 2.433c-4.605 4.52-3.279 11.332 2.721 13.974 3.21 1.39 18.628 1.321 21.698-.139m13.326 5.493c-.28-.209-.488-6.327-.488-13.557V6.258h12.558c14.023 0 15.767.416 18.14 4.38.767 1.25 1.395 3.197 1.395 4.31 0 4.797-4.605 9.385-9.419 9.385h-2.093l2.79 2.225c1.536 1.252 3.908 3.268 5.233 4.52l2.442 2.224-3.558.07c-3.488 0-3.698-.07-11.442-6.744l-7.884-6.814 7.256-.139c9.14-.278 9.977-.486 10.954-2.711.697-1.39.697-2.155 0-3.615l-.907-1.878-9.977-.208-9.907-.209v22.317h-2.302c-1.326 0-2.582-.208-2.791-.486m32.512-.556c.21-.487 3.907-6.466 8.232-13.21 7.745-12.167 9.35-13.905 12.07-12.862 1.186.417 17.791 25.168 17.861 26.628 0 .278-1.256.486-2.791.486-2.512 0-3-.278-4.256-2.433l-1.465-2.433H93.838l-1.604-2.434-1.535-2.433h13.953l-3.558-5.7c-1.953-3.199-3.698-5.84-3.767-5.98-.07-.07-3.21 4.728-6.907 10.637l-6.838 10.776h-2.79c-2.163 0-2.721-.208-2.442-1.043m46.254.279c-9-2.156-13.116-12.862-7.954-20.649 3.21-4.797 6.21-5.7 18.559-5.7 5.86 0 10.604.208 10.604.416 0 .209-.628 1.321-1.465 2.434l-1.395 2.016h-18.07l-2.512 2.294c-4.534 4.102-3.628 10.915 1.884 13.835 1.954 1.043 3.977 1.252 12.349 1.252h10.046l-1.465 2.294-1.395 2.225-8.233.139c-4.534.07-9.488-.209-10.953-.556m25.955 0c-1.117-.626-1.256-2.017-1.256-13.488V6.257h4.814l.209 10.985.209 10.915 11.721.209c6.419.07 11.651.417 11.651.764s-.628 1.39-1.465 2.434l-1.395 1.807h-11.651c-6.628 0-12.21-.347-12.837-.764m36.907-.209c-11.651-3.129-13.326-19.328-2.582-24.75 2.372-1.182 4.117-1.39 13.675-1.39h10.883l-1.465 2.293-1.395 2.225-9.279.348c-9.488.347-11.791.973-13.116 3.476-1.466 2.711-1.047 2.78 11.581 2.78h12.279l-1.465 2.295-1.395 2.225-10.884.209c-5.93.069-10.814.417-10.814.764 0 1.46 3.07 4.241 5.442 4.936 1.395.348 6.767.696 11.86.696h9.21l-1.535 2.433-1.605 2.433-8.023-.07c-4.396 0-9.558-.416-11.372-.903"/><path fill="#302d2a" d="M28.256 68.273c-3.767-1.322-5.233-3.477-5.233-7.718 0-5.353 2.372-7.925 7.256-7.856 3.558.07 6 2.503 6 6.118v2.364h-5.232c-4.605 0-5.233.14-5.233 1.252 0 2.502 2.442 3.823 6.28 3.476 2.58-.278 3.488-.14 3.488.556 0 .486-.21 1.043-.559 1.251-1.046.626-5.441.974-6.767.556m5.233-10.43c0-2.85-4.396-4.032-6.559-1.807-2.162 2.155-1.395 3.06 2.721 3.06 3.21 0 3.838-.21 3.838-1.252m9.069 10.499c-3.14-1.182-4.326-4.241-2.79-7.161.767-1.46 4.185-2.78 7.116-2.78 1.744 0 2.023-.279 1.814-1.53-.21-1.46-.559-1.6-4.256-1.6-3.21 0-3.977-.208-3.837-.973.488-2.572 8.93-2.016 10.325.626.349.695.698 3.963.698 7.23 0 4.867-.21 5.98-1.047 5.98-.558 0-1.046-.487-1.046-1.183 0-1.042-.14-1.042-1.186 0-1.465 1.252-4.326 1.947-5.791 1.391m5.093-3.546c.628-.556 1.186-1.807 1.186-2.711 0-1.321-.349-1.6-2.163-1.6-3 0-4.814 1.183-4.814 3.13 0 2.989 2.93 3.615 5.791 1.181M2.094 57.357c0-10.29.07-10.776 1.395-10.776 1.256 0 1.395.487 1.395 4.519v4.519h11.86V51.1c0-4.102.14-4.52 1.396-4.52 1.396 0 1.396.349 1.256 10.569-.21 9.455-.349 10.637-1.395 10.845-1.117.209-1.256-.347-1.256-4.658V58.4H4.885v4.867c0 4.38-.14 4.866-1.396 4.866-1.325 0-1.395-.486-1.395-10.776m53.721.765c0-5.98-.279-10.22-.698-10.498-1.395-.834-.627-1.738 1.396-1.738h2.093V57.01c0 10.637-.07 11.123-1.396 11.123s-1.395-.486-1.395-10.011m8.79 8.482c-.767-1.043-1.116-3.198-1.116-6.605 0-4.588-.14-5.075-1.395-5.075-1.745 0-1.814-1.182-.07-1.738.767-.209 1.674-1.321 2.093-2.434.907-2.711 2.163-2.641 2.163 0 0 1.739.279 2.086 1.744 2.086 1.116 0 1.744.417 1.744 1.043s-.628 1.043-1.744 1.043c-1.814 0-1.814 0-1.605 5.423.21 4.936.349 5.353 1.814 5.562 2.372.347 1.954 2.224-.488 2.224-1.396 0-2.442-.556-3.14-1.53m8.651-9.593c0-10.638.07-11.124 1.395-11.124 1.256 0 1.396.486 1.396 4.171 0 2.294.14 4.172.279 4.172.14 0 1.116-.417 2.162-.974 1.326-.695 2.512-.765 3.977-.347 3.349.904 3.977 2.364 4.047 9.177 0 5.562-.07 6.048-1.396 6.048-1.255 0-1.395-.486-1.395-5.77 0-6.257-.558-7.44-3.488-7.44-3.21 0-4.186 1.878-4.186 7.857 0 4.867-.14 5.353-1.396 5.353-1.325 0-1.395-.486-1.395-11.123"/></g><defs><clipPath id="a"><path fill="#fff" d="M0 0h210v73H0z"/></clipPath></defs></svg>