<svg width="217" height="74" viewBox="0 0 217 74" fill="none" xmlns="http://www.w3.org/2000/svg">
<g clip-path="url(#clip0_3232_1674)">
<path d="M3.23438 73.4412V46.2201H8.60019L20.2787 64.0216V46.2201H26.0391V73.4412H20.6733L8.99474 55.6397V73.4412H3.23438Z" fill="#403C38"/>
<path d="M31.3262 73.4412V46.2201H48.9229V51.2492H37.2444V57.2363H47.8971V62.2654H37.2444V68.6516H49.2385V73.2816L31.3262 73.4412Z" fill="#403C38"/>
<path d="M60.3651 73.4412V51.0097H52.3164V46.2201H73.8586V51.2492H65.8888V73.4412H60.3651Z" fill="#403C38"/>
<path d="M77.4879 72.0842V68.971C79.9341 70.1684 82.617 70.7272 85.2999 70.7272C87.0359 70.8868 88.7719 70.328 90.0344 69.5297C91.2181 68.7315 91.7704 67.3744 91.7704 66.0173C91.7704 65.0594 91.3759 64.1015 90.5868 63.3032C89.4032 62.3453 88.1406 61.547 86.7992 61.1479L83.9584 59.9505C82.0646 59.3917 80.3286 58.1943 78.8294 56.8372C77.8824 55.8793 77.3301 54.5222 77.3301 52.9256C77.3301 50.7703 78.277 48.8544 79.7763 47.4974C81.9068 46.1403 84.1952 45.342 86.6414 45.5815C87.9828 45.5815 89.0875 45.7412 90.429 45.9807C91.6126 46.1403 92.7173 46.5395 93.6643 47.1781V50.2913C91.5337 49.3334 89.0875 48.7746 86.7992 48.5351C82.7748 48.5351 80.7232 49.8922 80.7232 52.6063C80.7232 53.5643 81.1177 54.3625 81.9068 54.9213C83.0904 55.8793 84.353 56.4381 85.6944 57.0767L88.5352 58.2741C90.429 58.8329 92.3228 60.0303 93.901 61.547C94.8479 62.7444 95.4003 64.2611 95.4003 66.0173C95.5581 68.1727 94.6112 70.2482 92.9541 71.6053C90.8235 73.122 88.3774 73.7606 85.8523 73.7606C84.9054 73.7606 83.9584 73.7606 83.0115 73.6009C82.0646 73.4413 81.1177 73.2018 80.1708 73.0422C78.8293 72.8027 78.0403 72.4834 77.4879 72.0842Z" fill="#403C38"/>
<path d="M99.6621 61.068V46.2201H103.134V61.068C103.134 64.3409 103.686 66.8954 104.87 68.4121C107.553 71.2859 112.13 71.685 114.97 68.9709C115.128 68.8112 115.365 68.5718 115.523 68.4121C116.706 66.8954 117.259 64.3409 117.259 61.068V46.2201H120.731V61.3075C120.731 65.7778 119.784 68.8112 118.048 70.9666C116.312 73.1219 113.629 74.0799 110.236 74.0799C106.843 74.0799 104.16 73.1219 102.424 70.9666C100.609 68.8112 99.6621 65.5383 99.6621 61.068Z" fill="#403C38"/>
<path d="M126.334 73.4412V46.2201H129.806V73.4412H126.334Z" fill="#403C38"/>
<path d="M142.983 73.4412V49.0939H134.619V46.2201H155.057V49.0939H146.456V73.2018H142.983V73.4412Z" fill="#403C38"/>
<path d="M159.555 73.4412V46.2201H176.126V49.0939H162.948V57.9547H174.942V60.8285H162.948V70.0885H176.52V72.9623H159.555V73.4412Z" fill="#403C38"/>
<path d="M93.5862 18.52H107.869L100.372 6.14674L86.4055 28.4186H80.0138L96.9793 1.75624C98.3207 -0.159622 100.767 -0.558759 102.661 0.798306C103.055 0.957961 103.45 1.19744 103.608 1.59658L120.573 28.4186H114.181L111.183 23.4693H96.6636L93.5862 18.52ZM159.239 23.4693V0.239515H153.794V25.7843C153.794 26.5826 154.188 27.1413 154.583 27.7001C155.135 28.2589 155.688 28.4984 156.477 28.4984H180.939L184.174 23.5491L159.239 23.4693ZM70.6236 19.2384C75.9105 19.2384 80.0138 15.0874 80.0138 9.73898C80.0138 4.39054 75.8316 0.239515 70.6236 0.239515H47.0298V28.4186H52.4745V5.18881H70.2291C72.6753 5.34847 74.5691 7.50381 74.5691 9.97846C74.4113 12.2935 72.6753 14.1295 70.2291 14.369H55.1575L71.176 28.4984H78.9091L68.1775 19.2384H70.6236ZM14.1247 28.4186H30.3011C38.0342 28.4186 44.268 22.1122 44.268 14.2891C44.268 6.46605 38.0342 0.239515 30.3011 0.239515H14.1247C6.39164 0.239515 0 6.46605 0 14.2891C0 22.1122 6.39164 28.4186 14.1247 28.4186ZM29.9065 23.4693H14.2825C9.39018 23.3096 5.44473 19.0788 5.60255 13.9698C5.76036 9.18018 9.548 5.4283 14.2825 5.18881H29.9065C34.7989 5.02916 39.1389 9.02053 39.2967 13.9698C39.4545 18.9191 35.5091 23.3096 30.6167 23.4693C30.3011 23.4693 30.1433 23.4693 29.9065 23.4693ZM131.778 28.4186H148.349L151.584 23.4693H132.173C127.28 23.6289 122.94 19.6376 122.783 14.6883C122.625 9.73898 126.57 5.34847 131.463 5.18881C131.62 5.18881 131.857 5.18881 132.015 5.18881H147.797L151.032 0.239515H131.778C124.045 0.239515 117.811 6.54588 117.811 14.369C117.811 22.1921 124.045 28.4186 131.778 28.4186ZM197.431 23.4693C193.485 23.4693 189.934 20.835 188.751 16.8436H211.713L214.948 11.8943H188.751C189.855 7.90295 193.485 5.26864 197.431 5.26864H213.212L216.448 0.319342H197.273C189.54 0.319342 183.306 6.62571 183.306 14.4488C183.306 22.2719 189.54 28.5782 197.273 28.5782H213.844L217.079 23.6289L197.431 23.4693Z" fill="#403C38"/>
</g>
<defs>
<clipPath id="clip0_3232_1674">
<rect width="217" height="74" fill="white"/>
</clipPath>
</defs>
</svg>
