<svg xmlns="http://www.w3.org/2000/svg" width="59" height="47" fill="none"><path stroke="#2B354E" stroke-miterlimit="10" stroke-width=".122" d="M13.693 23.521c6.347 0 11.492-4.925 11.492-11s-5.145-11-11.492-11c-6.347 0-11.492 4.925-11.492 11s5.145 11 11.492 11Z"/><path fill="#2B354E" d="M28.852 44.936h28.73L36.676 10.415l-13.08 21.883-.368-10.532a10.917 10.917 0 0 1-3.844 3.01 11.409 11.409 0 0 1-4.836 1.085v19.075h11.37L36.554 27.85l5.502 8.893h-8.558l-4.646 8.192ZM3.545 21.064v23.755h9.047V25.86A12.01 12.01 0 0 1 7.48 24.48a11.449 11.449 0 0 1-3.935-3.416Z"/><path stroke="#2B354E" stroke-miterlimit="10" stroke-width=".122" d="M11.003 23.404a16.351 16.351 0 0 1-3.545-8.309C6.602 9.83 11.003 3.276 11.003 3.276s5.624 18.958 5.746 19.894"/><path stroke="#2B354E" stroke-miterlimit="10" stroke-width=".122" d="M21.884 20.245s1.222-7.958-4.524-13.107c-3.667-3.276-6.357-3.861-6.357-3.861S21.883 2.926 25.184 11M4.523 5.968c1.712-2.34 6.48-2.691 6.48-2.691s-.122-1.17.122-1.405"/><path stroke="#2B354E" stroke-miterlimit="10" stroke-width=".122" d="M13.693 1.521a4.656 4.656 0 0 0-2.69 1.756s-1.589-.936-2.567-.468M3.3 17.202s6.847 3.043 12.226 1.638c5.38-1.404 9.292-3.861 9.658-7.138"/><path stroke="#2B354E" stroke-miterlimit="10" stroke-width=".122" d="M2.2 12.521s5.991 4.447 13.082 2.106c7.09-2.34 8.558-7.489 8.558-7.489"/><path stroke="#2B354E" stroke-miterlimit="10" stroke-width=".122" d="M3.3 7.84s3.18 3.98 10.026 2.458c6.846-1.521 6.357-7.021 6.357-7.021a13.341 13.341 0 0 0-4.401-.82c-3.06.031-5.982 1.216-8.134 3.298-2.152 2.081-3.358 4.891-3.358 7.82a10.627 10.627 0 0 0 1.322 5.012 11.166 11.166 0 0 0 3.568 3.88"/><path stroke="#2B354E" stroke-miterlimit="10" stroke-width=".122" d="M6.724 21.181s6.724 1.521 11.003-.234a19.626 19.626 0 0 0 6.969-5.032M42.545 14.276c1.08 0 1.956-.838 1.956-1.872 0-1.034-.876-1.873-1.956-1.873s-1.956.839-1.956 1.873.876 1.872 1.956 1.872Z"/></svg>