<svg width="154" height="72" viewBox="0 0 154 72" fill="none" xmlns="http://www.w3.org/2000/svg">
<path d="M24.65 65.5C21.15 65 15.3 63.15 12.4 61.7L10 60.5L12.7 55.4C14.2 52.55 15.7 50.2 16 50.1C16.3 50 17.6 50.4 18.9 51.05C22.85 52.9 25.45 53.5 29.9 53.5C34.45 53.5 36.4 52.8 37.5 50.7C39.1 47.75 36.9 45.9 28.75 43.25C19.05 40.1 13.55 36.4 11.3 31.5C10.5 29.8 10.3 28.25 10.3 25C10.3 20.6 10.3 20.55 13.4 15.9C15.05 13.35 19 10.8 23.6 9.24998C30.3 7.04998 39.75 7.64998 48.75 10.85C51.75 11.9 52.75 12.5 52.7 13.1C52.65 13.6 51.4 16.1 49.95 18.75C48.05 22.1 47 23.45 46.5 23.3C46.1 23.15 44.2 22.5 42.3 21.75C34.55 18.85 25.5 19.9 25.5 23.75C25.5 25.9 28.65 27.8 36.9 30.7C46.65 34.1 50.9 37 53 41.65L53.95 43.7L54.95 41.35C55.5 40.1 57.4 35.15 59.2 30.4C65.55 13.45 66.95 9.89998 67.55 9.19998C68 8.64998 69.65 8.49998 74.7 8.49998C78.3 8.49998 81.75 8.64998 82.35 8.79998C83.15 8.99998 83.75 10.05 84.75 12.9C86.15 16.85 94.3 38.9 97.15 46.5L98.75 50.75L99 29.75L99.25 8.74998L111.25 8.79998C120.2 8.84998 124.2 9.04998 126.9 9.64998C134.15 11.25 138.55 14.25 141 19.25C142.6 22.6 143 30.5 141.8 34.65C140.35 39.65 136.15 43.95 130.65 46C128.45 46.85 126.15 47.2 121 47.4L114.25 47.75L114.1 56.4L114 65H100.6H87.25L86.05 60.95L84.8 56.9L82.8 57.3C80.55 57.8 71.1 57.9 67.55 57.5L65.35 57.25L64.05 61.15L62.8 65H54.65C49.8 65 46.5 64.8 46.5 64.5C46.5 64.25 46.75 63.45 47.1 62.75C47.8 61.15 47.3 60.6 46.1 61.65C44.7 62.95 39.9 64.85 36.75 65.45C33.5 66.05 28.6 66.05 24.65 65.5ZM80.1 44.6C80.55 44.15 80.5 43.45 79.9 41.4C76.55 30.35 75.35 26.95 75.05 27.3C74.85 27.55 74.1 29.65 73.35 32C72.65 34.35 71.45 38.05 70.8 40.25C70.1 42.45 69.7 44.4 69.9 44.55C71 45.6 79.05 45.65 80.1 44.6ZM123.7 34.3C127.25 32.8 128.8 28.5 127.05 24.85C125.6 21.9 123.2 20.8 118.05 20.75H114.25L114.1 27.9L113.95 35H118C120.3 35 122.75 34.7 123.7 34.3Z" fill="#999999"/>
</svg>
