<svg xmlns="http://www.w3.org/2000/svg" viewBox="0 0 164 35">
  <path fill="#fff" d="m134 8-2 1-2 1-1 3-1 3 1 3 1 2 2 2h4l2-2 1-2a11 11 0 0 0 0-7l-1-2-2-2h-2Zm10 0h-1l-1 1a4 4 0 0 0-1 2 4 4 0 0 0 0 3h1a50 50 0 0 0 1 1v1h1l1 1v4l-2 1h-1v-1l-1-1v-1h-1v4h3a4 4 0 0 0 3-1l1-1v-2l-1-3-2-2-1-1-1-2 1-2h2v1l1 1V8h-2ZM68 8h-1l-1 1-1 1v2a4 4 0 0 0 0 2h1a17 17 0 0 0 1 2 22 22 0 0 1 2 1 4 4 0 0 1 0 3v2h-3l-1-1v-2h-1v4h4l2-1v-1l1-2-1-2-2-3-1-1-1-2 1-2h2v1l1 1V8h-2ZM8 8H7v1h3v7l-1 1v1h3v-1h-1V9h2l1-1H8Zm7 0h-1v1h1v8h-1v1h3v-1h-1v-4h4v4h-1v1h3v-1l-1-1V9h1c1 0 0 0 0 0V8h-3v1h1v3h-4V9h1V8h-2Zm8 0v1h1v8l1 1h3l1-1v-1h-1v1h-3v-4h3v-1h-3V9h2l1 1V8h-5Zm8 0h-1v1h1v14a9 9 0 0 1 0 2v1h-1v1h1l1-1 1-1V9h1l1-1h-4Zm88 0v1h1v13h-1v1h4v-1h-1V9h1l2 1v5l-2 1v1a3 3 0 0 0 3-1l1-2a6 6 0 0 0 0-4l-1-1-1-1a3 3 0 0 0-1 0h-5Zm30 0h-1v1h4v13h-1v1h4v-1h-1l-1-1V9h4c1 0 0 0 0 0V8zM36 8v1l1 1v13h6v-3 1l-1 1h-3l-1-2v-4h4v-2h-4V9h3v1l1 1h1V9l-1-1h-6Zm9 0h-1v1h1v13h-1v1h4v-1h-1v-5h2l2 6h2l-1-2-2-5 1-2 1-2-1-3-2-1h-4Zm9 0h-1v1l1 1c0 1 0 0 0 0v7l1 3v2l1 1h4l1-1 1-2V10h1V9l1-1h-4v1l1 1c0 1 0 0 0 0v11l-3 1h-1l-1-1V10l1-1V8h-3Zm21 0v1l1 1v1l-3 10v1h-1v1h3l-1-1v-1l1-2h4l1 2v1h-1v1h4v-1h-1v-1h-1l-2-7-1-5V8h-3Zm10 0h-1v1l1 1c0 1 0 0 0 0v12h-1v1h8c1 0 0 0 0 0v-3h-1v1l-1 1h-3V10l1-1V8h-3Zm7 0v1l1 1v13h7v-2l-1-1v1l-1 1h-3v-6h3v-1h1l-1-1h-3V9h2l1 1v1h1V9l-1-1h-6Zm8 0v1l1 1h1v12h-1v1h3v-1h-1V12l3 10 1 1 4-11v10h-1v1h4v-1h-1V9h1V8h-2l-1 1-4 11-4-11V8h-2Zm34 1 3 2 1 5v2l-1 2-1 2h-4l-1-2-1-2v-5l1-2 1-2h2ZM47 9h1l2 1v5l-2 1h-1zm30 2 2 6h-4z"/>
  <path fill="#e90606" d="M29 18H9v6h20z"/>
</svg>
