<?xml version="1.0" encoding="UTF-8"?>
<svg id="svg2" xmlns="http://www.w3.org/2000/svg" xmlns:svg="http://www.w3.org/2000/svg" xmlns:sodipodi="http://sodipodi.sourceforge.net/DTD/sodipodi-0.dtd" xmlns:inkscape="http://www.inkscape.org/namespaces/inkscape" version="1.1" viewBox="0 0 164 35">
  <!-- Generator: Adobe Illustrator 30.1.0, SVG Export Plug-In . SVG Version: 2.1.1 Build 136)  -->
  <defs>
    <style>
      .st0 {
        fill: #e90606;
      }

      .st1 {
        fill: #fff;
      }
    </style>
  </defs>
  <sodipodi:namedview id="namedview2" bordercolor="#000000" borderopacity="0.25" inkscape:current-layer="svg2" inkscape:cx="115.75895" inkscape:cy="24.952267" inkscape:deskcolor="#d1d1d1" inkscape:pagecheckerboard="0" inkscape:pageopacity="0.0" inkscape:showpageshadow="2" inkscape:window-height="740" inkscape:window-maximized="1" inkscape:window-width="1366" inkscape:window-x="0" inkscape:window-y="0" inkscape:zoom="5.1097561" pagecolor="#ffffff"/>
  <g id="g2">
    <path id="path1" class="st1" d="M134.29,7.88c-.9,0-1.72.21-2.46.64-.74.43-1.36,1.02-1.88,1.77-.51.75-.91,1.61-1.18,2.58-.27.99-.41,2-.41,3.03,0,1.15.16,2.19.48,3.12.32.93.74,1.72,1.26,2.35.52.64,1.1,1.12,1.73,1.45.63.33,1.26.49,1.89.49.82,0,1.59-.2,2.31-.59.72-.39,1.35-.94,1.9-1.66.54-.72.97-1.57,1.26-2.55.3-.98.45-2.05.45-3.22,0-1.02-.13-1.99-.4-2.89-.27-.9-.64-1.69-1.13-2.38-.49-.68-1.06-1.21-1.71-1.59-.65-.37-1.38-.57-2.13-.56ZM144.05,7.88c-.48,0-.94.11-1.37.33-.41.21-.77.51-1.07.86-.29.34-.51.73-.67,1.15-.16.41-.24.81-.24,1.19,0,.44.05.84.16,1.21.11.37.26.7.44.98.18.28.37.53.57.74s.45.46.76.76c.16.14.25.23.28.28.03.03.11.11.23.23.34.33.63.6.85.83.22.23.44.5.66.82.22.32.4.67.53,1.06.13.4.2.82.2,1.24-.02.77-.22,1.4-.6,1.91-.38.5-.88.76-1.5.76-.4,0-.75-.11-1.07-.34-.31-.23-.54-.57-.69-1.02-.11-.27-.23-.65-.34-1.13-.1-.41-.19-.62-.27-.62l-.42.19c-.07.04-.11.14-.11.3,0,.04,0,.1.01.17v2.24c0,.28.04.46.11.54.07.08.31.2.71.37.61.26,1.28.38,2.02.38.45,0,.9-.09,1.32-.26.43-.17.82-.43,1.18-.78.36-.35.64-.78.85-1.31.21-.53.31-1.12.31-1.79-.03-1.11-.25-2-.67-2.69-.41-.68-1.11-1.46-2.08-2.34-.68-.62-1.17-1.16-1.48-1.62-.31-.45-.46-.97-.46-1.56v-.19c0-.07.01-.14.02-.21.06-.53.26-.94.6-1.26s.71-.47,1.11-.47c.37,0,.67.09.9.28.23.18.43.49.59.92.03.05.05.11.06.17.13.34.23.61.32.82.09.21.16.31.21.31,0,0,0,0,0,0h0s0,0,0,0c0,0,0,0,0-.01h.02l.36-.38.03-.04c.04-.09.06-.15.06-.19v-1.58c0-.18-.06-.33-.17-.45-.11-.11-.28-.24-.53-.36-.52-.28-1.11-.43-1.76-.43h0ZM67.99,7.98c-.47,0-.94.11-1.35.33-.41.21-.77.51-1.06.86-.28.34-.51.73-.67,1.15-.16.41-.23.81-.23,1.19,0,.44.05.84.16,1.21.11.37.25.7.44.98.18.28.37.53.56.73.19.21.44.46.75.76.16.14.25.23.28.28.03.03.11.11.23.24.29.27.57.55.84.83.24.25.46.53.65.82.22.33.4.68.52,1.06.13.4.2.82.19,1.24-.02.77-.22,1.4-.6,1.91-.38.5-.87.76-1.49.76-.38,0-.75-.11-1.06-.34-.31-.23-.54-.57-.69-1.02-.11-.27-.23-.65-.34-1.13-.1-.41-.19-.62-.27-.62l-.42.19c-.07.04-.11.14-.11.3,0,.04,0,.1.02.17v2.24c0,.28.04.46.11.54.07.08.31.2.7.37.6.26,1.27.38,2.01.38.45,0,.88-.09,1.31-.26.42-.17.81-.43,1.17-.78.35-.35.63-.78.84-1.31.21-.53.31-1.12.31-1.79-.03-1.11-.25-2-.66-2.68s-1.1-1.46-2.06-2.34c-.67-.62-1.16-1.16-1.47-1.62-.31-.45-.46-.97-.46-1.56v-.19c.01-.1.02-.17.02-.21.06-.53.26-.94.59-1.26.33-.31.7-.47,1.1-.47.36,0,.66.09.89.28.23.18.43.49.58.92.03.07.05.13.06.17.12.34.23.61.32.82.09.21.16.31.21.31,0,0,0,0,0,0h0s0,0,0,0h0s0-.01,0-.02h.02l.36-.38.03-.04c.04-.09.06-.15.06-.19v-1.58c0-.18-.05-.33-.16-.45-.11-.11-.28-.23-.52-.36-.52-.28-1.1-.43-1.74-.43ZM7.55,8.09c-.11,0-.2,0-.26.03-.06.02-.12.06-.19.14l-.22.39c-.05.06-.07.11-.07.15,0,.09.08.14.24.14h2.62v7.32c0,.21-.06.37-.17.49-.12.12-.26.2-.43.23h-.02c-.1.04-.17.1-.2.19l-.07.22s0,.04-.01.05v.03s.02.08.05.1c.04.02.08.03.12.03h2.46c.09,0,.16-.03.2-.09l.09-.24s.02-.06.02-.09c0-.08-.05-.13-.15-.15-.31-.07-.51-.15-.6-.24-.1-.09-.15-.26-.15-.51v-7.32h2.12c.11,0,.2,0,.26-.03.06-.02.12-.06.19-.14l.22-.39c.05-.06.07-.11.07-.15,0-.09-.08-.14-.23-.14h-5.88ZM14.54,8.09c-.09,0-.16.03-.2.1l-.09.24s-.02.06-.02.09c0,.08.05.13.15.15.3.07.5.15.6.24.1.09.15.26.15.51v6.83c0,.21-.06.37-.17.49-.12.12-.27.2-.43.23h-.02c-.1.04-.17.1-.2.19l-.07.22s0,.04-.01.05v.03s.01.08.05.1c.04.02.08.03.12.03h2.46c.09,0,.16-.03.2-.09l.09-.24s.02-.06.02-.09c0-.08-.05-.13-.15-.15-.3-.07-.5-.15-.6-.24-.1-.09-.15-.26-.15-.51v-3.55h3.99v3.55c0,.21-.06.37-.17.49-.12.12-.26.2-.43.23h-.02c-.1.04-.17.1-.2.19l-.07.22s0,.04-.01.05v.03s.02.08.05.1c.04.02.08.03.12.03h2.46c.09,0,.16-.03.2-.09l.09-.24s.02-.06.02-.09c0-.08-.05-.13-.15-.15-.3-.07-.51-.15-.6-.24-.1-.09-.15-.26-.15-.51v-6.83c0-.22.06-.38.17-.5.11-.12.26-.19.43-.22h.02c.09-.03.17-.1.2-.19l.07-.22s0-.04.01-.05v-.03s-.02-.08-.05-.09c-.04-.02-.08-.03-.12-.03h-2.46c-.09,0-.16.03-.2.1l-.09.24s-.02.06-.02.09c0,.08.05.13.15.15.3.07.5.15.6.24.1.09.15.26.15.51v2.51h-3.99v-2.51c0-.22.06-.38.17-.5.11-.12.26-.19.43-.22h.02c.09-.03.17-.1.2-.19l.07-.22s0-.04.01-.05v-.03s-.02-.08-.05-.09c-.04-.02-.08-.03-.12-.03h-2.46ZM23.39,8.09c-.09,0-.16.05-.2.15l-.09.23s0,.03-.01.04v.03c0,.07.08.13.23.16.26.05.44.13.56.26.12.13.18.32.18.57v7.12c0,.42.05.68.14.78.09.1.25.16.48.16h3.62c.16,0,.29-.03.39-.09.09-.05.15-.15.15-.25v-1.23c0-.07-.02-.11-.07-.12l-.29-.11s-.09.07-.16.2c-.14.23-.31.44-.51.62-.2.17-.48.25-.86.25h-1.03c-.27,0-.46-.08-.56-.23-.1-.15-.15-.5-.15-1.03v-2.79h2.32c.19,0,.31-.06.38-.19l.16-.34s.02-.05.02-.08c0-.08-.06-.12-.18-.12h-2.7v-3.24h1.71c.22,0,.39.07.53.2.13.13.26.3.39.51.09.15.15.23.19.23h.04s.21-.22.21-.22c.04-.05.06-.09.06-.12v-.99c0-.23-.11-.34-.34-.34h-4.58ZM30.62,8.13c-.14,0-.24.05-.3.15l-.14.38s-.03.1-.04.15c0,.13.08.21.23.23.46.11.76.24.91.37.15.13.22.4.22.8v12.81c0,.44-.03.87-.09,1.3-.06.43-.14.76-.23,1-.08.21-.21.41-.36.58-.16.17-.33.28-.52.34v.87c.38,0,.74-.08,1.08-.22.34-.15.65-.4.93-.75.28-.35.5-.83.66-1.44.17-.61.25-1.35.25-2.22v-12.27c0-.34.09-.6.26-.79.17-.18.4-.3.65-.34l.04-.02c.15-.04.25-.14.3-.28l.11-.34s0-.06.02-.09v-.04c0-.07-.02-.12-.07-.15-.05-.03-.12-.04-.18-.04h-3.71ZM119.46,8.13c-.13,0-.21.08-.27.23l-.13.36s0,.03-.02.06v.04c0,.11.1.2.31.26.35.07.6.21.75.41.16.2.24.5.24.89v10.57c0,.33-.08.58-.23.77-.15.18-.35.31-.57.36l-.03.02c-.13.04-.23.14-.27.28l-.09.34s0,.06-.02.09v.04c0,.07.02.12.06.15.05.03.1.05.16.04h3.3c.13,0,.21-.05.27-.15l.12-.38s.03-.1.03-.15c0-.13-.07-.21-.2-.24-.41-.11-.68-.24-.81-.37-.13-.13-.2-.4-.2-.8v-11.68h1.33c.65,0,1.18.25,1.59.76.41.5.62,1.28.62,2.31s-.23,1.94-.68,2.57c-.46.63-1.11.95-1.96.95-.11,0-.17.04-.17.13,0,.04.01.09.03.15l.22.49h.38c.47,0,.93-.09,1.37-.28.45-.19.85-.47,1.18-.83.35-.37.63-.85.83-1.42.2-.58.31-1.25.32-2.02,0-.68-.09-1.27-.27-1.78-.18-.5-.42-.91-.72-1.23-.29-.31-.64-.55-1.04-.71-.38-.16-.79-.24-1.21-.23h-4.25ZM149,8.13c-.15,0-.26.01-.35.04-.08.03-.17.1-.25.21l-.3.62c-.06.1-.09.18-.09.23,0,.14.11.21.31.21h3.52v11.51c0,.33-.08.58-.23.77-.15.18-.35.31-.57.36l-.03.02c-.13.04-.23.14-.27.28l-.09.34s0,.06-.02.09v.04c0,.07.02.12.06.15.05.03.1.04.16.04h3.3c.13,0,.22-.05.27-.15l.13-.38s.03-.1.03-.15c0-.13-.07-.21-.2-.24-.41-.11-.68-.24-.81-.37-.13-.13-.2-.4-.2-.8v-11.51h2.84c.15,0,.26-.01.34-.04.08-.03.17-.1.25-.21l.3-.62c.06-.1.09-.18.09-.23,0-.14-.1-.21-.31-.21h-7.88ZM36.06,8.23c-.12,0-.21.08-.26.23l-.12.36s0,.04-.02.07v.04c0,.11.1.2.31.26.34.07.59.21.75.4.16.2.23.5.23.9v11.19c0,.65.06,1.06.19,1.23.12.16.34.24.64.24h4.81c.22,0,.39-.05.52-.14.13-.09.19-.22.19-.39v-1.94c0-.11-.03-.18-.09-.19l-.39-.17s-.11.11-.22.32c-.2.38-.43.71-.68.97-.26.26-.64.39-1.14.39h-1.37c-.36,0-.61-.12-.75-.36-.13-.24-.2-.78-.2-1.62v-4.39h3.08c.25,0,.41-.1.5-.3l.22-.53s.03-.08.03-.13c0-.13-.08-.19-.23-.19h-3.59v-5.09h2.27c.29,0,.52.1.7.31.18.21.35.47.51.8.11.24.2.36.25.36h.03l.02-.02.28-.32c.05-.07.08-.13.08-.19v-1.55c0-.36-.15-.53-.45-.53h-6.08ZM44.6,8.23c-.12,0-.21.08-.26.23l-.12.36s0,.04-.02.07v.04c0,.11.1.2.31.26.34.07.59.21.75.4.16.2.23.5.23.9v10.57c0,.33-.07.58-.23.77-.14.18-.34.31-.57.36l-.03.02c-.13.04-.22.13-.26.28l-.09.34s0,.06-.02.09v.04c0,.07.02.12.06.15.04.03.09.04.16.04h3.27c.12,0,.21-.05.26-.15l.13-.38s.03-.1.03-.15c0-.13-.07-.21-.2-.23-.4-.11-.67-.24-.8-.37-.13-.13-.19-.4-.19-.8v-4.41h1.62l2.37,5.99.02.02c.05.14.11.26.16.35.05.09.14.14.24.14h1.79v-.62c-.31-.2-.7-.78-1.18-1.76-.47-.97-1.16-2.49-2.06-4.55l-.08-.19c.56-.44,1.02-1.03,1.38-1.78.36-.75.54-1.52.54-2.31-.01-1.26-.29-2.2-.82-2.8-.54-.6-1.3-.91-2.27-.91h-4.09ZM53.55,8.23c-.12,0-.21.05-.26.15l-.13.38s-.03.1-.03.15c0,.13.07.21.2.23.4.11.67.24.8.37.13.13.19.4.19.8v7.14c0,.85.07,1.63.21,2.34.14.71.37,1.34.68,1.88.3.53.74.97,1.27,1.27.53.31,1.18.46,1.94.46.53,0,1.02-.11,1.48-.32.46-.21.87-.55,1.23-1.02.36-.47.65-1.09.86-1.86.21-.77.31-1.71.31-2.8v-7.08c0-.34.07-.6.23-.79.15-.18.34-.3.57-.34l.03-.02c.13-.04.23-.14.27-.28l.09-.34s0-.06.02-.09v-.04c0-.07-.02-.12-.06-.15-.05-.03-.1-.04-.16-.04h-2.72c-.12,0-.21.05-.27.15l-.12.38s-.03.1-.03.15c0,.13.07.21.2.23.4.11.67.24.8.37.13.13.19.4.19.8v7.12c0,1.52-.23,2.65-.68,3.4-.46.75-1.19,1.12-2.19,1.12-.47,0-.87-.13-1.21-.39-.34-.26-.61-.62-.82-1.06-.21-.47-.37-.96-.45-1.47-.09-.54-.14-1.08-.14-1.63v-7.08c0-.34.07-.6.23-.79.15-.18.34-.3.57-.34l.03-.02c.13-.04.22-.14.26-.28l.09-.34s0-.06.02-.09v-.04c0-.07-.02-.12-.06-.15-.05-.03-.1-.04-.16-.04h-3.27ZM75.28,8.23c-.21,0-.33.07-.37.21l-.08.3c-.03.05-.05.11-.05.17,0,.07.03.13.09.17.06.04.16.09.3.15.26.1.43.21.53.32l.06.06c.09.11.17.23.23.35.06.12.09.27.09.46s-.03.39-.09.62l-2.86,9.85c-.17.48-.31.8-.42.94-.11.14-.34.26-.67.36h-.02c-.23.09-.36.18-.39.3l-.08.28c-.02.06-.03.11-.03.17,0,.14.17.21.51.21h2.33c.08,0,.15-.02.19-.07.04-.05.08-.12.11-.2l.02-.06.09-.21s0-.04.02-.06c0-.01.01-.03.02-.04,0-.09-.1-.18-.31-.3-.13-.07-.25-.16-.36-.26-.09-.09-.13-.21-.13-.36,0-.1.02-.2.05-.3l.76-2.66h4.26l.65,2.45c.05.18.08.36.08.51,0,.2-.04.34-.12.44-.1.1-.21.18-.34.22-.14.09-.23.16-.25.21l-.14.4s-.03.08-.03.13c0,.11.08.17.23.17h3.08c.08,0,.16-.01.22-.03.06-.02.12-.07.14-.14l.19-.47c0-.17-.07-.28-.22-.34-.09-.03-.18-.07-.27-.11-.31-.1-.51-.2-.59-.3-.07-.09-.13-.19-.17-.3-.07-.19-.13-.38-.19-.57-.05-.13-.09-.27-.13-.4-.62-2.07-1.23-4.14-1.84-6.21-.52-1.81-1.01-3.62-1.46-5.44-.06-.4-.19-.6-.39-.6h-2.24ZM84.7,8.23c-.13,0-.21.05-.27.15l-.12.38s-.03.1-.03.15c0,.13.07.21.2.23.4.11.67.24.8.37.13.13.19.4.19.8v10.74c0,.33-.08.58-.23.77-.14.18-.34.31-.57.36l-.03.02c-.13.04-.22.13-.26.28l-.09.34s0,.06-.02.09v.04c0,.07.02.12.06.15.04.03.09.04.16.04h6.61c.22,0,.39-.05.52-.14.13-.09.2-.22.2-.39v-1.94c0-.11-.03-.18-.09-.19l-.39-.17s-.11.11-.22.32c-.2.38-.42.71-.68.97-.26.26-.64.39-1.14.39h-1.37c-.36,0-.61-.12-.75-.36-.13-.24-.2-.78-.2-1.62v-9.7c0-.34.08-.6.23-.79.14-.18.34-.3.57-.34l.03-.02c.13-.04.23-.14.26-.28l.09-.34s0-.06.02-.09v-.04c0-.07-.02-.12-.06-.15-.05-.03-.1-.04-.16-.04h-3.27ZM92.32,8.23c-.12,0-.21.08-.27.23l-.12.36s0,.04-.02.07v.04c0,.11.1.2.31.26.34.07.59.21.75.4.16.2.23.5.23.9v11.19c0,.65.06,1.06.19,1.23.12.16.34.24.64.24h4.81c.22,0,.39-.05.52-.14.13-.09.19-.22.19-.39v-1.94c0-.11-.03-.18-.09-.19l-.39-.17s-.11.11-.22.32c-.2.38-.42.71-.68.97-.26.26-.64.39-1.14.39h-1.37c-.36,0-.61-.12-.75-.36-.14-.24-.2-.78-.2-1.62v-4.39h3.08c.25,0,.41-.1.5-.3l.22-.53s.03-.08.03-.13c0-.13-.08-.19-.23-.19h-3.59v-5.09h2.27c.29,0,.52.1.7.31.18.21.35.47.51.8.11.24.2.36.25.36h.03s.01-.02.01-.02l.28-.32c.05-.07.08-.13.08-.19v-1.55c0-.36-.15-.53-.45-.53h-6.08ZM100.5,8.23c-.13,0-.21.05-.26.15l-.12.38s-.03.1-.03.15c0,.13.11.22.31.28.19.06.4.18.65.36.25.19.49.45.73.81v10.7c0,.33-.08.58-.23.77-.14.18-.34.31-.57.36l-.03.02c-.13.04-.22.13-.26.28l-.09.34s0,.06-.02.09v.04c0,.07.02.12.06.15.05.03.1.04.16.04h2.72c.12,0,.21-.05.27-.15l.12-.38s.03-.1.03-.15c0-.13-.07-.21-.2-.23-.4-.11-.67-.24-.8-.37-.13-.13-.19-.4-.19-.8v-9.21h.03l3.58,10.61c.15.45.26.68.34.68h.31c.08,0,.18-.16.29-.47l3.8-10.83h.03v9.21c0,.33-.07.58-.23.77-.15.18-.34.31-.57.36l-.03.02c-.13.04-.22.13-.26.28l-.09.34s0,.06-.01.09v.04c0,.07.02.12.06.15.05.03.1.04.16.04h3.27c.12,0,.21-.05.26-.15l.13-.38s.03-.1.03-.15c0-.13-.07-.21-.2-.23-.4-.11-.67-.24-.8-.37-.13-.13-.19-.4-.19-.8v-10.57c0-.4.07-.68.2-.85.13-.17.33-.29.59-.36l.03-.02c.2-.07.32-.17.36-.3l.09-.38s0-.06.02-.09v-.06c0-.13-.08-.19-.23-.19h-1.79c-.12,0-.24.05-.35.14-.11.09-.21.27-.3.54l-4.01,11.34-3.78-11.15c-.13-.4-.25-.64-.35-.74-.1-.09-.28-.14-.54-.14h-2.07ZM133.96,9.03c1.21,0,2.19.59,2.93,1.76.74,1.17,1.11,2.75,1.11,4.74,0,.78-.08,1.56-.24,2.34-.16.78-.39,1.5-.71,2.14-.32.65-.72,1.17-1.22,1.56-.47.38-1.07.59-1.68.59-.64,0-1.21-.17-1.73-.51-.51-.34-.95-.82-1.3-1.45-.36-.62-.63-1.36-.81-2.21-.18-.85-.27-1.77-.27-2.76,0-.94.1-1.79.29-2.57.19-.77.47-1.43.82-1.97.36-.54.77-.95,1.26-1.24.47-.28,1.01-.43,1.55-.43ZM47,9.38h1.39c.59,0,1.05.21,1.38.63.33.42.5,1.13.51,2.12,0,1.11-.2,1.95-.61,2.52-.41.57-.94.85-1.6.85h-1.07v-6.12ZM76.93,11.02l1.81,6.44h-3.64l1.83-6.44Z"/>
    <path id="path2" class="st0" d="M29.04,18.47H8.58v5.12h20.46v-5.12Z"/>
  </g>
</svg>