<?xml version="1.0" encoding="UTF-8" standalone="no"?>
<svg
   xml:space="preserve"
   viewBox="0 0 204 78"
   version="1.1"
   id="svg1"
   sodipodi:docname="time.svg"
   inkscape:version="1.4.1 (1:1.4.1+202503302257+93de688d07)"
   xmlns:inkscape="http://www.inkscape.org/namespaces/inkscape"
   xmlns:sodipodi="http://sodipodi.sourceforge.net/DTD/sodipodi-0.dtd"
   xmlns="http://www.w3.org/2000/svg"
   xmlns:svg="http://www.w3.org/2000/svg"><defs
     id="defs1" /><sodipodi:namedview
     id="namedview1"
     pagecolor="#ffffff"
     bordercolor="#000000"
     borderopacity="0.25"
     inkscape:showpageshadow="2"
     inkscape:pageopacity="0.0"
     inkscape:pagecheckerboard="0"
     inkscape:deskcolor="#d1d1d1"
     inkscape:zoom="2.9117647"
     inkscape:cx="102.51515"
     inkscape:cy="38.979798"
     inkscape:window-width="1366"
     inkscape:window-height="740"
     inkscape:window-x="0"
     inkscape:window-y="0"
     inkscape:window-maximized="1"
     inkscape:current-layer="svg1" /><path
     fill="#e90606"
     d="m 98.944784,18.740579 c 0,0 -1.500395,0.03151 -2.369929,0.01676 -0.0362,0.363367 -0.455882,3.655789 -0.815896,6.303939 -0.41499,2.451046 -3.700707,20.631436 -4.813602,26.07322 -0.292972,1.643192 -1.198706,6.285836 -1.284519,6.749765 -1.045852,0.124027 -2.280091,0.23867 -3.087275,0.269508 -0.107937,0.0042 -0.288279,0.03888 -0.374091,0.03888 v 0.942607 c 0.09923,-0.0042 0.622146,0.03554 0.992218,0.02011 0.887633,-0.02816 3.407062,-0.147495 3.884399,-0.147495 1.81214,0 3.019563,0.119335 4.696278,0.152856 0.02279,0 0.482699,-0.0021 0.685164,-0.02683 V 58.18058 c -0.14012,0 -0.324481,-0.0042 -0.433087,-0.0042 -0.472645,0.01475 -2.217072,-0.118672 -3.100684,-0.238668 0.103923,-0.62215 1.645205,-10.038168 2.384677,-13.803234 1.405866,-6.968993 2.379984,-11.90796 2.379984,-11.90796 l 0.261461,0.612761 11.108818,26.357476 2.0287,0.01006 c 0,0 1.15849,-2.85397 2.53283,-6.055215 0.0361,-0.07642 0.13482,-0.305039 0.27486,-0.632873 1.44207,-3.323931 8.59008,-20.194996 8.59008,-20.194996 0,0 0.0679,0.303699 0.18033,0.846739 0.68048,3.3065 2.98338,15.223847 3.47478,18.098597 0.22996,1.479614 0.4465,2.979339 0.57254,3.858254 0.18502,1.244968 0.30704,2.462446 0.30704,2.812405 -0.22592,0.01076 -2.48858,0.214532 -3.34537,0.250736 a 4.6795161,4.6795161 0 0 0 -0.3647,0.0095 v 0.958749 c 0.30637,0 0.60402,0.01342 0.9017,0.0066 1.74845,-0.03353 3.42985,-0.169616 5.17831,-0.168275 1.96567,0.0013 5.15148,0.1723 7.1936,0.185707 0.22926,0 0.63957,-0.02011 0.63957,-0.02011 v -0.968754 a 21.328001,21.328001 0 0 1 -0.81994,-0.04089 c -0.9151,-0.07107 -2.45641,-0.213194 -2.8486,-0.239339 0,0 -0.25276,-1.392457 -0.58594,-3.000122 -1.33414,-6.431985 -5.13342,-25.98204 -5.71465,-30.792287 -0.1991,-1.653253 -0.76225,-5.366023 -0.76225,-5.366023 h -2.28479 l -2.23049,6.37299 c -0.72607,2.076955 -1.7129,4.641302 -2.46579,6.607637 -3.7141,9.715025 -7.87743,18.768347 -7.87743,18.768347 0,0 -8.85219,-21.022961 -9.3208,-22.239099 -0.47331,-1.216138 -3.367506,-9.524627 -3.367506,-9.524627 z m -63.629354,0.0088 0.02011,2.221764 -0.03822,5.411613 0.589298,-0.01675 0.06167,-4.81293 c 0,0 3.228732,-0.0275 3.647073,-0.02683 l 6.021691,0.0028 3.886413,0.01878 0.006,33.469936 0.0013,2.890842 -0.08246,0.01145 c -0.516892,0.04022 -2.507363,0.1609 -3.316557,0.1904 -0.181012,0.0053 -0.296995,0.01006 -0.316438,0.0081 l 0.0034,0.978813 c 0.146153,0.0074 0.539687,0.01675 0.591307,0.01475 1.912703,-0.02414 4.501186,-0.189728 6.33612,-0.187718 1.864432,0 4.488447,0.181014 6.112199,0.199786 0.160901,6.72e-4 0.35197,-0.01475 0.506163,-0.01475 v -0.918471 l -0.201122,0.0021 c -0.517565,-0.0028 -3.378908,-0.185718 -3.675234,-0.2246 -0.0121,-0.44918 -0.06502,-2.616642 -0.06502,-2.664911 l 0.01342,-33.758889 2.959224,-0.008 7.71986,0.0053 2.577086,0.03486 c 0.01675,0.183697 0.147497,2.621334 0.144812,2.688377 -0.006,0.17632 0.09654,1.992481 0.09252,2.439649 l 0.610079,0.0066 -0.04358,-5.472621 0.02816,-2.462445 c -2.268694,0.06167 -8.051049,0.138777 -17.024591,0.134087 -7.695056,-0.0047 -15.111216,-0.06838 -17.164037,-0.1609 z m 35.941769,0.0089 0.0095,0.958697 c 0.305039,0.01676 2.095726,0.174309 2.531497,0.195094 0.347278,0.0429 0.831989,0.08582 1.179265,0.11932 0,0.307054 0.0053,2.424903 0.01007,3.260242 0.05833,7.922328 0.0089,25.43096 -0.01475,31.625622 l -0.0121,2.945814 c -0.219225,0.0657 -0.713323,0.08983 -1.246977,0.126033 -0.457224,0.03084 -2.093043,0.167606 -2.458421,0.175649 v 0.958698 c 0.151514,0 0.429068,0.03151 0.587285,0.03016 1.852366,0 4.426769,-0.227943 6.324051,-0.227272 1.917395,0.0013 4.477053,0.234646 5.986831,0.234646 l -0.0047,6.7e-4 c 0.130724,0.0021 0.441806,-0.03217 0.572537,-0.03151 v -0.958698 h -0.130724 c -0.059,-0.0121 -2.005891,-0.09385 -2.479206,-0.142806 -0.248053,-0.01609 -1.320722,-0.107937 -1.334132,-0.143468 a 16.461439,16.461439 0 0 1 -0.008,-0.783719 c 0.0047,-0.453201 0.0047,-1.207423 0.0047,-2.024663 0.0047,-6.248293 0.02279,-24.807469 0.02683,-31.901829 0,-1.371004 0.0053,-2.484569 0.0053,-3.081911 0.419011,-0.02683 2.13193,-0.205148 2.744691,-0.258781 0.02683,-0.0028 0.838021,-0.04893 1.17189,-0.06907 v -0.998923 c -2.096396,-6.69e-4 -4.869243,0.162242 -6.914688,0.160902 -2.138633,-0.0013 -4.774045,-0.167606 -6.549982,-0.168945 z m 96.990011,0.02683 -0.63153,0.0021 c -1.40118,0.0066 -4.98857,0.03217 -9.18473,0.05564 -2.57775,0.01475 -4.59236,0.03554 -7.24719,0.03353 -1.8611,0.02213 -4.46635,0.09386 -6.07535,0.09051 -2.56903,-0.0042 -4.66476,-0.161571 -5.80447,-0.166263 -0.54103,-0.0028 -0.84338,0.01811 -0.99224,0.0089 0.0104,0.01342 0.0104,0.945959 0.0104,0.945959 0.0993,0.01742 0.29766,0.03957 0.48202,0.03554 0.64427,0.0429 1.85235,0.14012 2.46511,0.221239 0.12199,0.02145 0.32918,0.05563 0.90642,0.119335 -0.005,0.212523 0.0267,2.61463 0.0221,4.056698 l -0.0133,31.165711 c 0,0.04828 -0.0671,2.398756 -0.0671,2.587816 -1.01905,0.174306 -2.97532,0.280903 -3.64239,0.283583 h -0.19778 v 0.948644 c 0.0939,0 0.53165,0.01675 0.7797,0.01675 1.07668,0 3.85356,-0.170957 6.68809,-0.172965 1.98712,-0.0013 4.17335,0.0724 6.38638,0.103923 2.7266,0.03755 5.4847,0.03957 7.9639,0.07442 4.08755,0.05765 7.40007,0.06236 8.47743,0.06369 0,0 0.13069,-7.546895 0.13069,-8.155632 l -0.59063,0.0066 c 0,0.642261 -0.23868,3.032971 -0.24804,3.137556 -0.0764,0.899701 -0.15756,1.842978 -0.2206,2.307577 0,0 -0.28826,0.02279 -0.42771,0.02011 -0.67177,-0.01269 -2.81711,0.06504 -2.86268,0.06504 l -9.56754,0.0042 -6.72027,-0.111964 -0.0449,-1.855716 -0.005,-14.405937 c 1.19873,-0.04022 3.02897,-0.103241 4.14253,-0.100569 0.9453,0.0013 3.17713,-0.05161 4.42477,-0.04892 3.0343,0.0053 5.72939,0.02481 5.94525,0.03083 0.50013,0.01416 1.42867,0.04492 1.77997,0.06704 0.0133,0.126033 0.0542,0.324481 0.059,0.380796 0.18035,1.102837 0.27956,1.867113 0.40091,2.949837 0.0182,0.09723 0.0267,0.191741 0.0403,0.280236 h 0.68986 c 0,0 0.0182,-0.386831 0.0104,-0.627511 -0.0133,-0.84942 -0.0679,-2.543565 -0.0679,-4.420734 -0.005,-1.301282 0.0717,-3.291753 0.0804,-4.247768 0.006,-0.259452 -0.0267,-0.442476 -0.0267,-0.516893 l -0.63021,0.0121 c -0.005,0.20649 -0.0543,0.511529 -0.0543,0.511529 -0.0543,0.713325 -0.25677,1.625094 -0.41969,2.587144 a 2.0809768,2.0809768 0 0 0 -0.0764,0.286938 c -0.0718,0.02413 -2.05081,0.129396 -2.2258,0.127375 -0.0677,0 -2.94783,0.08045 -2.9981,0.08045 l -11.06859,-0.04158 0.0182,-15.88555 c 0,0 1.40588,-0.04893 1.79807,-0.04692 1.5956,0 4.19145,-0.01416 6.83692,-0.01076 3.87166,0.0047 7.6307,0.02883 7.6394,0.03418 0.0229,0.01076 1.16787,0.02683 1.19001,0.04692 0.0267,0.02079 1.46014,0.06367 1.81146,0.07508 0,0 0.0274,0.117994 0.045,0.266826 0.1582,1.675375 0.28894,3.664505 0.34794,4.369112 l 0.005,0.281578 0.58997,-0.0013 c 0,-1.031105 -0.0537,-4.190112 -0.0624,-6.199353 -0.005,-0.645612 0.009,-1.17122 0.009,-1.470228 z"
     id="path1"
     style="stroke-width:0.670417" /></svg>
