<svg xmlns="http://www.w3.org/2000/svg" viewBox="0 0 204 78"><path fill="#fff" d="M98.94 18.74s-1.5.03-2.37.02c-.04.36-.46 3.66-.82 6.3-.41 2.45-3.7 20.63-4.81 26.07-.29 1.64-1.2 6.29-1.28 6.75-1.05.12-2.28.24-3.09.27-.11 0-.29.04-.37.04v.94c.1 0 .62.04.99.02.89-.03 3.41-.15 3.88-.15 1.81 0 3.02.12 4.7.15.02 0 .48 0 .69-.03v-.95h-.43c-.47.01-2.22-.12-3.1-.24.1-.62 1.65-10.04 2.38-13.8 1.41-6.97 2.38-11.91 2.38-11.91l.26.61 11.11 26.36h2.03s1.16-2.84 2.53-6.05c.04-.08.13-.31.27-.63 1.44-3.32 8.59-20.19 8.59-20.19s.07.3.18.85c.68 3.31 2.98 15.22 3.47 18.1.23 1.48.45 2.98.57 3.86.19 1.24.31 2.46.31 2.81-.23.01-2.49.21-3.35.25h-.36v.96c.31 0 .6.01.9 0 1.75-.03 3.43-.17 5.18-.17 1.97 0 5.15.17 7.19.19.23 0 .64-.02.64-.02v-.97c-.27 0-.55-.02-.82-.04-.92-.07-2.46-.21-2.85-.24 0 0-.25-1.39-.59-3-1.33-6.43-5.13-25.98-5.71-30.79-.2-1.65-.76-5.37-.76-5.37h-2.28l-2.23 6.37c-.73 2.08-1.71 4.64-2.47 6.61-3.71 9.72-7.88 18.77-7.88 18.77s-8.85-21.02-9.32-22.24-3.37-9.52-3.37-9.52Zm-63.62.01.02 2.22-.04 5.41.59-.02.06-4.81s3.23-.03 3.65-.03h6.02l3.89.02V57.9h-.08c-.52.05-2.51.17-3.32.2-.18 0-.3.01-.32 0v.98c.15 0 .54.02.59.01 1.91-.02 4.5-.19 6.34-.19 1.86 0 4.49.18 6.11.2.16 0 .35-.01.51-.01v-.92h-.2c-.52 0-3.38-.18-3.68-.22-.01-.45-.07-2.62-.07-2.66V21.54h10.69l2.58.04c.02.18.15 2.62.14 2.69 0 .18.1 1.99.09 2.44h.61l-.04-5.47.03-2.46c-2.27.06-8.05.14-17.02.13-7.7 0-15.11-.07-17.16-.16Zm35.94.01v.96c.31.02 2.11.17 2.54.2.35.04.83.09 1.18.12 0 .31 0 2.42.01 3.26.06 7.92 0 25.43-.01 31.63v2.95c-.23.07-.73.09-1.26.13-.46.03-2.09.17-2.46.18v.96c.15 0 .43.03.59.03 1.85 0 4.43-.23 6.32-.23 1.92 0 4.48.23 5.99.23.13 0 .44-.03.57-.03v-.96h-.13c-.06-.01-2.01-.09-2.48-.14-.25-.02-1.32-.11-1.33-.14 0-.26-.01-.52 0-.78v-2.02c0-6.25.02-24.81.03-31.9v-3.08c.42-.03 2.13-.21 2.74-.26.03 0 .84-.05 1.17-.07v-1c-2.1 0-4.87.16-6.91.16-2.14 0-4.77-.17-6.55-.17Zm96.99.03h-.63c-1.4 0-4.99.03-9.18.06-2.58.01-4.59.04-7.25.03-1.86.02-4.47.09-6.08.09-2.57 0-4.66-.16-5.8-.17-.54 0-.84.02-.99 0 .01.01.01.95.01.95.1.02.3.04.48.04.64.04 1.85.14 2.47.22.12.02.33.06.91.12 0 .21.03 2.61.02 4.06v31.17s-.08 2.4-.08 2.59c-1.02.17-2.98.28-3.64.28h-.2v.95c.09 0 .53.02.78.02 1.08 0 3.85-.17 6.69-.17 1.99 0 4.17.07 6.39.1 2.73.04 5.48.04 7.96.07 4.09.06 7.4.06 8.48.06 0 0 .13-7.55.13-8.16h-.59c0 .65-.24 3.04-.25 3.14-.08.9-.16 1.84-.22 2.31 0 0-.29.02-.43.02-.67-.01-2.82.07-2.86.07h-9.57l-6.72-.11-.04-1.86V40.26c1.19-.04 3.02-.1 4.14-.1.95 0 3.18-.05 4.42-.05 3.03 0 5.73.02 5.95.03.5.01 1.43.04 1.78.07.01.13.05.32.06.38.18 1.1.28 1.87.4 2.95.02.1.03.19.04.28h.69s.02-.39.01-.63c-.01-.85-.07-2.54-.07-4.42 0-1.3.07-3.29.08-4.25 0-.26-.03-.44-.03-.52h-.63c0 .22-.05.52-.05.52-.05.71-.26 1.63-.42 2.59-.03.09-.06.19-.08.29-.07.02-2.05.13-2.23.13-.07 0-2.95.08-3 .08l-11.07-.04.02-15.89s1.41-.05 1.8-.05c1.6 0 4.19-.01 6.84-.01 3.87 0 7.63.03 7.64.03.02.01 1.17.03 1.19.05.03.02 1.46.06 1.81.08 0 0 .03.12.04.27.16 1.68.29 3.66.35 4.37v.28h.59c0-1.03-.05-4.19-.06-6.2v-1.73Z"/></svg>