<svg width="295" height="66" viewBox="0 0 295 66" fill="none" xmlns="http://www.w3.org/2000/svg">
<g clip-path="url(#clip0_3215_3413)">
<path fill-rule="evenodd" clip-rule="evenodd" d="M51.082 1.20398C51.082 39.8675 51.082 39.8675 51.082 39.8675C51.082 49.3661 45.2906 55.208 35.4724 55.208C25.6541 55.208 19.908 49.3661 19.908 39.8675C19.908 1.20398 19.908 1.20398 19.908 1.20398C6.83203 1.20398 6.83203 1.20398 6.83203 1.20398C6.83203 38.3513 6.83203 38.3513 6.83203 38.3513C6.83203 55.431 18.4149 66.981 35.5176 66.981C52.8466 66.981 64.2032 55.431 64.2032 38.3513C64.2032 1.20398 64.2032 1.20398 64.2032 1.20398H51.082Z" fill="#72808A"/>
<path fill-rule="evenodd" clip-rule="evenodd" d="M108.77 0.178345C91.7573 0.178345 80.3555 11.5946 80.3555 28.9419C80.3555 66.4905 80.3555 66.4905 80.3555 66.4905C93.2957 66.4905 93.2956 66.4905 93.2956 66.4905C93.2956 27.4256 93.2956 27.4256 93.2956 27.4256C93.2956 17.704 99.0418 11.9959 108.77 11.9959C118.497 11.9959 124.244 17.704 124.244 27.4256C124.244 66.4905 124.244 66.4905 124.244 66.4905C137.184 66.4905 137.184 66.4905 137.184 66.4905C137.184 28.9419 137.184 28.9419 137.184 28.9419C137.184 11.5946 125.782 0.178345 108.77 0.178345Z" fill="#72808A"/>
<path d="M169.535 1.2041H156.504V66.4906H169.535V1.2041Z" fill="#72808A"/>
<path fill-rule="evenodd" clip-rule="evenodd" d="M186.729 1.2041V13.2892H206.139V66.4906H218.988V13.2892H238.399V1.2041H186.729Z" fill="#72808A"/>
<path fill-rule="evenodd" clip-rule="evenodd" d="M288.983 1.2041C275.092 1.2041 275.092 1.2041 275.092 1.2041C243.692 44.8622 243.692 44.8622 243.692 44.8622C242.968 46.2001 242.561 47.8946 242.742 49.4109C243.149 50.9271 243.918 52.2649 245.231 53.2014C246.181 53.9595 247.538 54.3609 248.669 54.3609C272.423 54.1825 272.423 54.1825 272.423 54.1825C272.423 66.5352 272.423 66.5352 272.423 66.5352C284.413 66.5352 284.413 66.5352 284.413 66.5352C284.413 44.1487 284.413 44.1487 284.413 44.1487C258.895 44.1487 258.895 44.1487 258.895 44.1487L288.983 1.2041Z" fill="#BFD22B"/>
</g>
<defs>
<clipPath id="clip0_3215_3413">
<rect width="295" height="66" fill="white"/>
</clipPath>
</defs>
</svg>
