<?xml version="1.0" encoding="UTF-8" standalone="no"?>
<svg
   xml:space="preserve"
   viewBox="0 0 204 78"
   version="1.1"
   id="svg2"
   sodipodi:docname="usa_today.svg"
   inkscape:version="1.4.1 (1:1.4.1+202503302257+93de688d07)"
   xmlns:inkscape="http://www.inkscape.org/namespaces/inkscape"
   xmlns:sodipodi="http://sodipodi.sourceforge.net/DTD/sodipodi-0.dtd"
   xmlns="http://www.w3.org/2000/svg"
   xmlns:svg="http://www.w3.org/2000/svg"><defs
     id="defs2" /><sodipodi:namedview
     id="namedview2"
     pagecolor="#ffffff"
     bordercolor="#000000"
     borderopacity="0.25"
     inkscape:showpageshadow="2"
     inkscape:pageopacity="0.0"
     inkscape:pagecheckerboard="0"
     inkscape:deskcolor="#d1d1d1"
     inkscape:zoom="3.9901961"
     inkscape:cx="101.87469"
     inkscape:cy="38.970516"
     inkscape:window-width="1366"
     inkscape:window-height="740"
     inkscape:window-x="0"
     inkscape:window-y="0"
     inkscape:window-maximized="1"
     inkscape:current-layer="svg2" /><g
     transform="matrix(3.4050448,0,0,3.4050448,16.275989,-7.4028561)"
     id="g2"><path
       fill="#00abe6"
       d="m 12.128,9.89 c 0,2.87 -2.385,5.197 -5.329,5.197 -2.943,0 -5.329,-2.327 -5.329,-5.197 0,-2.87 2.386,-5.197 5.33,-5.197 2.944,0 5.33,2.327 5.33,5.197 z"
       id="path1" /><path
       d="m 23.979,6.152 c -1.735,0 -2.948,0.922 -2.948,2.342 0,1.096 0.727,1.812 2.074,2.158 l 0.465,0.121 c 1.005,0.261 1.348,0.456 1.348,0.846 0,0.401 -0.355,0.608 -0.951,0.608 a 3.266,3.266 0 0 1 -2.21,-0.836 l -0.991,1.226 c 0.828,0.759 1.987,1.194 3.213,1.194 1.8,0 2.98,-0.944 2.98,-2.344 0,-0.999 -0.608,-1.768 -2.22,-2.201 L 24.176,9.113 C 23.371,8.897 23.072,8.659 23.072,8.311 c 0,-0.37 0.332,-0.575 0.916,-0.575 0.71,0 1.47,0.39 2,0.834 l 1.026,-1.267 a 4.581,4.581 0 0 0 -3.035,-1.15 z m -10.38,0.182 v 4.424 c 0,1.942 1.233,3.053 3.399,3.053 2.166,0 3.4,-1.11 3.4,-3.053 V 6.334 h -2.087 v 4.436 c 0,0.873 -0.47,1.369 -1.313,1.369 -0.842,0 -1.312,-0.496 -1.312,-1.37 V 6.335 Z m 16.169,0 -2.754,7.293 h 2.035 l 0.476,-1.36 h 2.82 l 0.477,1.36 h 2.094 L 32.158,6.334 Z m 1.173,1.898 0.885,2.553 h -1.781 z m -6.959,6.672 c -2.284,0 -3.95,1.596 -3.95,3.84 0,2.246 1.666,3.818 3.95,3.818 2.282,0 3.95,-1.572 3.95,-3.818 0,-2.244 -1.668,-3.84 -3.95,-3.84 z M 13.6,15.086 v 1.65 h 2.263 v 5.826 h 2.084 v -5.826 h 2.268 v -1.65 z m 15.068,0 v 7.476 h 2.895 c 2.173,0 3.72,-1.539 3.72,-3.736 0,-2.199 -1.547,-3.74 -3.72,-3.74 z m 9.002,0 -2.754,7.477 h 2.033 l 0.479,-1.395 h 2.82 l 0.475,1.395 h 2.093 l -2.755,-7.477 z m 3.861,0 2.64,4.785 v 2.692 h 2.071 V 19.87 l 2.639,-4.785 h -2.299 l -1.37,2.969 -1.38,-2.97 z m -17.549,1.49 c 1.085,0 1.834,0.888 1.834,2.168 0,1.28 -0.749,2.149 -1.834,2.149 -1.085,0 -1.836,-0.869 -1.836,-2.149 0,-1.28 0.751,-2.168 1.836,-2.168 z m 6.664,0.127 h 0.916 c 1.06,0 1.71,0.847 1.71,2.123 0,1.274 -0.65,2.121 -1.71,2.121 h -0.916 z m 8.198,0.33 0.885,2.615 h -1.782 z"
       id="path2" /></g></svg>
