<svg xmlns="http://www.w3.org/2000/svg" viewBox="0 0 204 78">
  <path fill="#00abe6" d="M58 26c0 10-9 18-19 18s-18-8-18-18S29 9 39 9s19 7 19 17"/>
  <path fill="#fff" d="M98 14c-6 0-10 3-10 8 0 3 2 6 7 7h2l4 3c0 1-1 2-3 2-3 0-6-1-8-3l-3 5c3 2 7 4 11 4 6 0 10-4 10-8s-2-6-7-8h-2l-4-3c0-1 1-2 3-2s5 1 7 3l3-5a16 16 0 0 0-10-3Zm-35 0v15c0 7 4 11 11 11s12-4 12-11V14h-7v15c0 3-2 5-5 5s-4-2-4-5V14h-7Zm55 0-10 25h7l2-5h9l2 5h7l-9-25h-8Zm4 7 3 8h-6zM98 43c-8 0-14 6-14 13s6 13 14 13 13-5 13-13-5-13-13-13m-35 1v6h7v19h7V50h8v-6H63Zm51 0v25h10c7 0 12-5 12-12s-5-13-12-13h-10Zm31 0-10 25h7l2-4h9l2 4h7l-9-25zm13 0 9 16v9h7v-9l9-16h-8l-5 10-4-10zm-60 5c4 0 6 3 6 7s-2 8-6 8-6-3-6-8 2-7 6-7m23 0h3c3 0 6 3 6 8s-3 7-6 7h-3zm28 2 3 9h-7l4-9Z"/>
</svg>
