<svg xmlns="http://www.w3.org/2000/svg" viewBox="0 0 900 150">
  <path fill="#fff" d="M844 100c-2 0-4 1-4 4s2 5 4 5 5-2 5-5-2-4-5-4m-153 8h19v-1l-2-1c-2 0-3-1-3-4V76h5c2 0 4 0 4 6l1 12c0 12 3 15 9 15s7-4 7-9v-3h-3v2l-1 6c-2 0-2-1-2-5l-1-9c0-11-2-15-10-17 8-2 13-8 13-16 0-11-9-16-17-16h-33v1l2 1c3 1 3 2 3 10v39c0 8-2 12-8 12-4 0-7-2-7-11V48c0-3 1-3 3-4l2-1v-1h-20v1l2 1c2 1 3 1 3 4v45c0 10 6 16 15 16s13-6 13-16V51c0-5 1-7 6-7 3 0 4 1 4 4v54c0 3 0 3-2 4l-2 1zm129-60c0-3 1-3 3-4h3v-2h-20v1l2 1c2 1 2 1 2 4v54c0 3-1 4-4 4s-4-1-5-7l-12-57h-4l-12 56c-1 6-2 7-5 8l-1 1v1h14v-1l-2-1c-3 0-4-2-3-9l7-36 8 38c1 5 1 6-3 7l-2 1v1h51V86h-2c-1 10-3 20-11 20h-4zm-30 42v-2h-13v2h13zm-54-41v46c0 7 0 11-3 11l-2 1v1h14v-1c-6-1-6-3-6-11V52l-2-2 23 58h4V55c0-8 0-10 4-11l2-1v-1h-15v1l2 1c5 1 5 3 5 10v34l1-1-18-45h-14v1l1 1c2 0 2 2 4 5m-31-5h4c4 0 7 3 7 15s-2 14-8 14h-3V44Zm-64 30c0 28-3 32-8 32s-7-4-7-31 3-31 7-31 8 4 8 30m10 1c0-19-6-34-18-34s-17 15-17 34 6 34 17 34 18-16 18-34m-41-27c0-3 1-3 3-4l2-1v-1h-20v1l2 1c2 1 3 1 3 4v46c0 7-1 12-5 12-3 0-6-2-6-4 1-3 6-3 6-8 0-3-2-5-4-5-3 0-7 2-7 7 0 7 4 13 12 13s14-6 14-16zm-323 0c0-3 1-3 3-4h3v-2h-21v1l3 1c1 1 2 1 2 4v54c0 3-1 4-4 4s-4-1-5-7l-12-57h-4l-12 56c-1 6-2 7-5 8l-1 1v1h13v-1l-2-1c-2 0-3-2-2-9l7-36 8 38c1 5 1 6-3 7l-2 1v1h51V86h-2c-1 10-3 20-11 20h-4V48zm269-4h2c6 0 8 10 9 20h2V42h-35v22h2c0-10 2-20 8-20h2v58c0 3 0 3-2 4l-3 1v1h21v-1l-3-1c-2-1-3-1-3-4zm-44 31h3c4 0 6 2 6 12h2V60h-2c-1 9-2 12-6 12l-3 1V44h7c7 0 9 9 10 20h2V42h-34v1l2 1c3 1 3 2 3 4v54c0 3-1 3-3 4l-2 1v1h35V86h-2c-1 10-3 20-11 20h-7zm-36 0h3c4 0 5 2 6 12h2V60h-2c-1 9-2 12-6 12l-3 1V44h6c8 0 9 10 10 20h2V42h-34v1l3 1c2 1 3 2 3 4v54c0 3-1 3-3 4l-2 1v1h34V86h-2c-1 10-2 20-11 20h-6V75zm-40-31h3c4 0 7 3 7 15s-3 14-8 14h-2zm-15 64h20v-1l-2-1c-2 0-3-1-3-4V76h3c3 0 5 1 5 6v12c1 12 4 15 9 15s7-4 7-9v-3h-2v2c0 4 0 6-2 6l-1-5-1-9c-1-12-2-15-10-17 8-2 13-8 13-16 0-11-9-16-17-16h-19v1l2 1c2 1 3 1 3 4v54c0 3-1 3-3 4l-2 1v1zm-15-64h3c6 0 8 10 8 20h2V42h-35v22h2c1-10 3-20 9-20h2v58c0 3-1 3-3 4l-3 1v1h21v-1l-3-1-3-4zm-22 47c0-20-22-25-22-39 0-4 2-8 6-8 7 0 10 9 11 20h2V42h-1l-3 3c-2 0-3-4-9-4-8 0-13 7-13 16 0 17 21 23 21 38 0 7-3 11-7 11-7 0-11-7-12-20h-2v22h1c1-3 3-3 4-3s3 4 9 4c9 0 15-8 15-18m-63-43c0-3 1-3 3-4h2v-2h-20v1l2 1c2 1 3 1 3 4v54c0 3-1 3-3 4l-2 1v1h32V86h-2c-1 10-3 20-11 20h-4V48Zm-64 42v-2h-13l-1 2h14zm-56 18h4l9-47h-1l9 47h4l12-56c1-5 2-7 4-8l2-1v-1h-14v1l2 1c3 0 4 2 2 9l-7 38h1l-8-40c-1-3-1-7 2-7l2-1v-1h-18v1l1 1c2 0 2 1 3 5l3 14-1-8-6 35h1l-8-39c-1-4-1-7 2-7l1-1v-1h-19v1l2 1c2 0 3 1 4 7l12 57Zm-52-33h3c5 0 6 2 7 12h2V60h-2c-1 9-2 12-7 12l-3 1V44h7c7 0 9 10 10 20h2V42h-33v1l2 1c2 1 3 2 3 4v54c0 3-1 3-3 4l-2 1v1h34V86h-2c-1 10-2 20-11 20h-7V75Zm-60 33h19v-1l-2-1c-2 0-3-1-3-4V75h15v27c0 3-1 4-3 4l-2 1v1h20v-1l-3-1c-2-1-2-2-2-4V48c0-3 0-3 2-4l3-1v-1h-20v1l2 1c2 1 3 1 3 4v25h-15V48c0-3 1-3 3-4l2-1v-1H89v1l2 1c2 1 3 1 3 4v54c0 3-1 3-3 4l-2 1v1ZM74 44h2c6 0 8 10 9 20h1V42H51v22h2c1-10 3-20 9-20h2v58c0 3-1 3-3 4l-2 1v1h21v-1l-3-1c-2-1-3-1-3-4z" shape-rendering="geometricPrecision" text-rendering="geometricPrecision"/>
</svg>
