<svg width="984" height="910" viewBox="0 0 984 910" fill="none" xmlns="http://www.w3.org/2000/svg">
<mask id="path-1-inside-1_3424_873" fill="white">
<path d="M1.66016 106.2C1.66016 76.8736 25.4338 53.1 54.7602 53.1H930.91C960.236 53.1 984.01 76.8737 984.01 106.2V856.238C984.01 885.564 960.236 909.338 930.91 909.338H54.7601C25.4338 909.338 1.66016 885.564 1.66016 856.238V106.2Z"/>
</mask>
<path d="M1.66016 106.2C1.66016 76.8736 25.4338 53.1 54.7602 53.1H930.91C960.236 53.1 984.01 76.8737 984.01 106.2V856.238C984.01 885.564 960.236 909.338 930.91 909.338H54.7601C25.4338 909.338 1.66016 885.564 1.66016 856.238V106.2Z" fill="white"/>
<path d="M54.7602 53.1V56.4188H930.91V53.1V49.7813H54.7602V53.1ZM984.01 106.2H980.691V856.238H984.01H987.329V106.2H984.01ZM930.91 909.338V906.019H54.7601V909.338V912.656H930.91V909.338ZM1.66016 856.238H4.97891V106.2H1.66016H-1.65859V856.238H1.66016ZM54.7601 909.338V906.019C27.2667 906.019 4.97891 883.731 4.97891 856.238H1.66016H-1.65859C-1.65859 887.397 23.6009 912.656 54.7601 912.656V909.338ZM984.01 856.238H980.691C980.691 883.731 958.404 906.019 930.91 906.019V909.338V912.656C962.069 912.656 987.329 887.397 987.329 856.238H984.01ZM930.91 53.1V56.4188C958.404 56.4188 980.691 78.7066 980.691 106.2H984.01H987.329C987.329 75.0408 962.069 49.7813 930.91 49.7813V53.1ZM54.7602 53.1V49.7813C23.601 49.7813 -1.65859 75.0407 -1.65859 106.2H1.66016H4.97891C4.97891 78.7065 27.2667 56.4188 54.7602 56.4188V53.1Z" fill="#E2E8F0" mask="url(#path-1-inside-1_3424_873)"/>
<path d="M111.178 235.631C111.178 209.971 131.98 189.169 157.64 189.169H224.015C249.676 189.169 270.478 209.971 270.478 235.631V302.006C270.478 327.667 249.676 348.469 224.015 348.469H157.64C131.98 348.469 111.178 327.667 111.178 302.006V235.631Z" fill="#DBEAFE"/>
<path d="M199.788 249.902C199.18 250.522 198.84 251.356 198.84 252.225C198.84 253.094 199.18 253.928 199.788 254.548L205.098 259.858C205.719 260.466 206.553 260.807 207.421 260.807C208.29 260.807 209.124 260.466 209.745 259.858L220.053 249.553C221.115 248.485 222.917 248.823 223.315 250.277C224.318 253.924 224.261 257.781 223.152 261.397C222.042 265.013 219.926 268.238 217.05 270.695C214.175 273.152 210.659 274.739 206.915 275.271C203.17 275.802 199.351 275.257 195.905 273.697L169.654 299.949C168.334 301.268 166.543 302.01 164.676 302.009C162.81 302.009 161.019 301.267 159.7 299.947C158.38 298.627 157.638 296.836 157.639 294.969C157.639 293.102 158.381 291.312 159.701 289.992L185.952 263.741C184.393 260.295 183.847 256.477 184.379 252.732C184.911 248.987 186.498 245.472 188.955 242.596C191.412 239.721 194.637 237.604 198.253 236.495C201.869 235.385 205.726 235.329 209.373 236.332C210.827 236.73 211.165 238.529 210.1 239.597L199.788 249.902Z" stroke="#6DA9C6" stroke-width="6.6375" stroke-linecap="round" stroke-linejoin="round"/>
<path d="M115.943 471.263V422.99H147.339V430.32H124.688V443.426H145.713V450.756H124.688V463.932H147.528V471.263H115.943Z" fill="#0F172B"/>
<path d="M161.37 435.058L168.677 448.423L176.102 435.058H185.129L174.216 453.16L185.318 471.263H176.337L168.677 458.228L161.087 471.263H152.036L163.067 453.16L152.319 435.058H161.37Z" fill="#0F172B"/>
<path d="M204.905 471.97C201.275 471.97 198.14 471.215 195.5 469.707C192.876 468.183 190.857 466.03 189.443 463.249C188.028 460.451 187.321 457.159 187.321 453.372C187.321 449.648 188.028 446.38 189.443 443.567C190.873 440.739 192.868 438.539 195.43 436.967C197.991 435.38 201 434.587 204.457 434.587C206.688 434.587 208.794 434.948 210.774 435.671C212.77 436.378 214.53 437.478 216.054 438.971C217.594 440.464 218.804 442.365 219.684 444.675C220.564 446.969 221.004 449.703 221.004 452.877V455.494H191.328V449.743H212.825C212.809 448.108 212.455 446.655 211.764 445.382C211.073 444.093 210.106 443.08 208.865 442.341C207.639 441.603 206.209 441.234 204.575 441.234C202.831 441.234 201.299 441.658 199.979 442.506C198.659 443.339 197.629 444.439 196.891 445.806C196.168 447.158 195.799 448.643 195.783 450.261V455.282C195.783 457.387 196.168 459.194 196.938 460.703C197.708 462.196 198.784 463.343 200.167 464.144C201.55 464.93 203.169 465.323 205.023 465.323C206.264 465.323 207.388 465.15 208.393 464.804C209.399 464.443 210.271 463.916 211.01 463.225C211.748 462.534 212.306 461.677 212.683 460.656L220.65 461.551C220.147 463.657 219.189 465.496 217.775 467.067C216.376 468.623 214.585 469.833 212.4 470.697C210.216 471.545 207.718 471.97 204.905 471.97Z" fill="#0F172B"/>
<path d="M242.524 471.97C238.91 471.97 235.806 471.176 233.213 469.589C230.636 468.002 228.648 465.81 227.25 463.013C225.867 460.2 225.176 456.963 225.176 453.302C225.176 449.625 225.883 446.38 227.297 443.567C228.711 440.739 230.707 438.539 233.284 436.967C235.877 435.38 238.941 434.587 242.477 434.587C245.415 434.587 248.016 435.129 250.278 436.213C252.557 437.282 254.372 438.798 255.723 440.762C257.075 442.711 257.845 444.989 258.033 447.598H249.878C249.548 445.853 248.762 444.4 247.521 443.237C246.295 442.059 244.653 441.469 242.594 441.469C240.85 441.469 239.318 441.941 237.998 442.883C236.678 443.811 235.649 445.146 234.91 446.89C234.188 448.635 233.826 450.725 233.826 453.16C233.826 455.627 234.188 457.749 234.91 459.524C235.633 461.284 236.647 462.644 237.951 463.602C239.271 464.545 240.819 465.016 242.594 465.016C243.852 465.016 244.975 464.781 245.965 464.309C246.971 463.822 247.811 463.123 248.487 462.211C249.163 461.3 249.626 460.192 249.878 458.888H258.033C257.829 461.449 257.075 463.72 255.77 465.7C254.466 467.664 252.691 469.204 250.443 470.32C248.196 471.42 245.556 471.97 242.524 471.97Z" fill="#0F172B"/>
<path d="M286.624 456.036V435.058H295.157V471.263H286.884V464.828H286.507C285.689 466.855 284.346 468.513 282.476 469.801C280.622 471.09 278.335 471.734 275.617 471.734C273.244 471.734 271.146 471.208 269.324 470.155C267.516 469.086 266.102 467.538 265.081 465.511C264.059 463.469 263.549 461.001 263.549 458.11V435.058H272.081V456.79C272.081 459.084 272.71 460.907 273.967 462.259C275.224 463.61 276.874 464.286 278.917 464.286C280.174 464.286 281.392 463.979 282.57 463.366C283.749 462.754 284.715 461.842 285.469 460.632C286.239 459.407 286.624 457.874 286.624 456.036Z" fill="#0F172B"/>
<path d="M320.519 435.058V441.658H299.706V435.058H320.519ZM304.845 426.384H313.377V460.373C313.377 461.52 313.55 462.4 313.896 463.013C314.257 463.61 314.729 464.019 315.31 464.239C315.891 464.459 316.536 464.568 317.243 464.568C317.777 464.568 318.264 464.529 318.704 464.451C319.16 464.372 319.506 464.301 319.741 464.239L321.179 470.909C320.723 471.066 320.071 471.239 319.223 471.428C318.39 471.616 317.368 471.726 316.158 471.758C314.021 471.82 312.096 471.498 310.384 470.791C308.671 470.068 307.312 468.953 306.306 467.444C305.316 465.936 304.829 464.05 304.845 461.787V426.384Z" fill="#0F172B"/>
<path d="M341.803 471.97C338.174 471.97 335.039 471.215 332.399 469.707C329.774 468.183 327.755 466.03 326.341 463.249C324.927 460.451 324.22 457.159 324.22 453.372C324.22 449.648 324.927 446.38 326.341 443.567C327.771 440.739 329.767 438.539 332.328 436.967C334.889 435.38 337.898 434.587 341.356 434.587C343.587 434.587 345.693 434.948 347.672 435.671C349.668 436.378 351.428 437.478 352.952 438.971C354.492 440.464 355.702 442.365 356.582 444.675C357.462 446.969 357.902 449.703 357.902 452.877V455.494H328.227V449.743H349.723C349.707 448.108 349.354 446.655 348.662 445.382C347.971 444.093 347.005 443.08 345.763 442.341C344.538 441.603 343.108 441.234 341.473 441.234C339.729 441.234 338.197 441.658 336.877 442.506C335.557 443.339 334.528 444.439 333.789 445.806C333.067 447.158 332.697 448.643 332.682 450.261V455.282C332.682 457.387 333.067 459.194 333.836 460.703C334.606 462.196 335.683 463.343 337.066 464.144C338.448 464.93 340.067 465.323 341.921 465.323C343.163 465.323 344.286 465.15 345.292 464.804C346.298 464.443 347.17 463.916 347.908 463.225C348.647 462.534 349.205 461.677 349.582 460.656L357.549 461.551C357.046 463.657 356.087 465.496 354.673 467.067C353.274 468.623 351.483 469.833 349.299 470.697C347.115 471.545 344.616 471.97 341.803 471.97Z" fill="#0F172B"/>
<path d="M116.655 585.759H112.365L124.773 551.968H128.997L141.404 585.759H137.114L127.017 557.314H126.753L116.655 585.759ZM118.239 572.56H135.53V576.19H118.239V572.56Z" fill="#45556C"/>
<path d="M149.534 551.968V585.759H145.641V551.968H149.534Z" fill="#45556C"/>
<path d="M160.061 551.968V585.759H156.167V551.968H160.061Z" fill="#45556C"/>
<path d="M179.262 585.759V560.416H183.156V585.759H179.262ZM181.242 556.192C180.483 556.192 179.829 555.934 179.279 555.417C178.74 554.9 178.47 554.278 178.47 553.552C178.47 552.826 178.74 552.205 179.279 551.688C179.829 551.171 180.483 550.913 181.242 550.913C182.001 550.913 182.65 551.171 183.189 551.688C183.739 552.205 184.014 552.826 184.014 553.552C184.014 554.278 183.739 554.9 183.189 555.417C182.65 555.934 182.001 556.192 181.242 556.192Z" fill="#45556C"/>
<path d="M193.683 570.514V585.759H189.789V560.416H193.551V564.376H193.881C194.475 563.089 195.377 562.055 196.587 561.274C197.797 560.482 199.359 560.086 201.273 560.086C202.989 560.086 204.49 560.438 205.777 561.142C207.064 561.835 208.065 562.891 208.78 564.31C209.495 565.718 209.852 567.5 209.852 569.656V585.759H205.958V569.92C205.958 567.929 205.441 566.378 204.408 565.267C203.374 564.145 201.955 563.584 200.151 563.584C198.908 563.584 197.797 563.854 196.818 564.393C195.85 564.932 195.085 565.718 194.524 566.752C193.963 567.786 193.683 569.04 193.683 570.514Z" fill="#45556C"/>
<path d="M227.49 560.416V563.716H214.357V560.416H227.49ZM218.185 554.344H222.078V578.5C222.078 579.6 222.238 580.425 222.557 580.975C222.887 581.514 223.305 581.877 223.811 582.064C224.328 582.239 224.872 582.327 225.444 582.327C225.873 582.327 226.225 582.305 226.5 582.261C226.775 582.206 226.995 582.162 227.16 582.129L227.952 585.627C227.688 585.726 227.32 585.825 226.847 585.924C226.374 586.034 225.774 586.089 225.048 586.089C223.948 586.089 222.87 585.853 221.814 585.38C220.769 584.907 219.901 584.186 219.208 583.218C218.526 582.25 218.185 581.03 218.185 579.556V554.344Z" fill="#45556C"/>
<path d="M243.202 586.287C240.76 586.287 238.654 585.748 236.883 584.67C235.123 583.581 233.764 582.064 232.807 580.117C231.861 578.159 231.388 575.882 231.388 573.286C231.388 570.69 231.861 568.402 232.807 566.422C233.764 564.431 235.095 562.88 236.8 561.769C238.516 560.647 240.518 560.086 242.806 560.086C244.126 560.086 245.429 560.306 246.716 560.746C248.003 561.186 249.175 561.901 250.231 562.891C251.287 563.87 252.128 565.168 252.755 566.785C253.382 568.402 253.696 570.393 253.696 572.758V574.408H234.16V571.042H249.736C249.736 569.612 249.45 568.336 248.878 567.214C248.317 566.092 247.514 565.207 246.469 564.558C245.435 563.909 244.214 563.584 242.806 563.584C241.255 563.584 239.913 563.969 238.78 564.739C237.658 565.498 236.795 566.488 236.19 567.709C235.585 568.93 235.282 570.239 235.282 571.636V573.88C235.282 575.794 235.612 577.416 236.272 578.747C236.943 580.067 237.873 581.074 239.061 581.767C240.248 582.448 241.629 582.789 243.202 582.789C244.225 582.789 245.149 582.646 245.974 582.36C246.81 582.064 247.53 581.624 248.135 581.041C248.74 580.447 249.208 579.71 249.538 578.83L253.3 579.886C252.904 581.162 252.238 582.283 251.303 583.251C250.368 584.208 249.213 584.956 247.838 585.495C246.463 586.023 244.918 586.287 243.202 586.287Z" fill="#45556C"/>
<path d="M269.349 595.791C267.468 595.791 265.852 595.549 264.499 595.065C263.146 594.592 262.018 593.965 261.116 593.184C260.225 592.414 259.516 591.589 258.988 590.709L262.09 588.531C262.442 588.993 262.887 589.521 263.426 590.115C263.965 590.72 264.702 591.243 265.637 591.683C266.583 592.134 267.82 592.359 269.349 592.359C271.395 592.359 273.084 591.864 274.415 590.874C275.746 589.884 276.411 588.333 276.411 586.221V581.074H276.081C275.795 581.536 275.388 582.108 274.86 582.789C274.343 583.46 273.595 584.06 272.616 584.588C271.648 585.105 270.339 585.363 268.689 585.363C266.644 585.363 264.807 584.879 263.179 583.911C261.562 582.943 260.28 581.536 259.334 579.688C258.399 577.84 257.932 575.596 257.932 572.956C257.932 570.36 258.388 568.099 259.301 566.175C260.214 564.239 261.485 562.743 263.113 561.687C264.741 560.62 266.622 560.086 268.755 560.086C270.405 560.086 271.714 560.361 272.682 560.911C273.661 561.45 274.409 562.066 274.926 562.759C275.454 563.441 275.861 564.002 276.147 564.442H276.543V560.416H280.305V586.485C280.305 588.663 279.81 590.434 278.82 591.798C277.841 593.173 276.521 594.18 274.86 594.818C273.21 595.467 271.373 595.791 269.349 595.791ZM269.217 581.866C270.779 581.866 272.099 581.508 273.177 580.793C274.255 580.078 275.075 579.05 275.636 577.708C276.197 576.366 276.477 574.76 276.477 572.89C276.477 571.064 276.202 569.452 275.652 568.055C275.102 566.658 274.288 565.564 273.21 564.772C272.132 563.98 270.801 563.584 269.217 563.584C267.567 563.584 266.193 564.002 265.093 564.838C264.004 565.674 263.184 566.796 262.634 568.204C262.095 569.612 261.826 571.174 261.826 572.89C261.826 574.65 262.101 576.206 262.651 577.559C263.212 578.901 264.037 579.957 265.126 580.727C266.226 581.486 267.589 581.866 269.217 581.866Z" fill="#45556C"/>
<path d="M286.934 585.759V560.416H290.696V564.244H290.96C291.422 562.99 292.258 561.973 293.468 561.192C294.677 560.411 296.041 560.02 297.559 560.02C297.845 560.02 298.203 560.026 298.632 560.037C299.061 560.048 299.385 560.064 299.605 560.086V564.046C299.473 564.013 299.171 563.964 298.698 563.898C298.236 563.821 297.746 563.782 297.229 563.782C295.997 563.782 294.897 564.041 293.93 564.558C292.973 565.064 292.214 565.768 291.653 566.669C291.103 567.56 290.828 568.578 290.828 569.722V585.759H286.934Z" fill="#45556C"/>
<path d="M311.18 586.353C309.574 586.353 308.116 586.051 306.807 585.446C305.498 584.83 304.459 583.944 303.689 582.789C302.919 581.624 302.534 580.216 302.534 578.566C302.534 577.114 302.82 575.937 303.392 575.035C303.964 574.122 304.728 573.407 305.685 572.89C306.642 572.373 307.698 571.988 308.853 571.735C310.019 571.471 311.191 571.262 312.368 571.108C313.908 570.91 315.156 570.761 316.113 570.662C317.081 570.552 317.785 570.371 318.225 570.118C318.676 569.865 318.901 569.425 318.901 568.798V568.666C318.901 567.038 318.456 565.773 317.565 564.871C316.685 563.969 315.349 563.518 313.556 563.518C311.697 563.518 310.239 563.925 309.183 564.739C308.127 565.553 307.385 566.422 306.956 567.346L303.26 566.026C303.92 564.486 304.8 563.287 305.9 562.429C307.011 561.56 308.221 560.955 309.53 560.614C310.85 560.262 312.148 560.086 313.424 560.086C314.238 560.086 315.173 560.185 316.229 560.383C317.296 560.57 318.324 560.961 319.314 561.555C320.315 562.149 321.145 563.045 321.805 564.244C322.465 565.443 322.795 567.049 322.795 569.062V585.759H318.901V582.327H318.703C318.439 582.877 317.999 583.466 317.383 584.093C316.768 584.72 315.948 585.253 314.925 585.693C313.902 586.133 312.654 586.353 311.18 586.353ZM311.774 582.855C313.314 582.855 314.612 582.553 315.668 581.948C316.735 581.343 317.538 580.562 318.076 579.605C318.626 578.648 318.901 577.642 318.901 576.586V573.022C318.736 573.22 318.373 573.401 317.812 573.566C317.263 573.72 316.625 573.858 315.899 573.979C315.184 574.089 314.485 574.188 313.803 574.276C313.132 574.353 312.588 574.419 312.17 574.474C311.158 574.606 310.212 574.82 309.332 575.117C308.463 575.403 307.759 575.838 307.22 576.421C306.692 576.993 306.428 577.774 306.428 578.764C306.428 580.117 306.928 581.14 307.929 581.833C308.941 582.514 310.223 582.855 311.774 582.855Z" fill="#45556C"/>
<path d="M340.425 560.416V563.716H327.291V560.416H340.425ZM331.119 554.344H335.013V578.5C335.013 579.6 335.173 580.425 335.492 580.975C335.822 581.514 336.24 581.877 336.746 582.064C337.263 582.239 337.807 582.327 338.379 582.327C338.808 582.327 339.16 582.305 339.435 582.261C339.71 582.206 339.93 582.162 340.095 582.129L340.887 585.627C340.623 585.726 340.255 585.825 339.782 585.924C339.309 586.034 338.709 586.089 337.983 586.089C336.883 586.089 335.805 585.853 334.749 585.38C333.704 584.907 332.835 584.186 332.142 583.218C331.46 582.25 331.119 581.03 331.119 579.556V554.344Z" fill="#45556C"/>
<path d="M345.783 585.759V560.416H349.677V585.759H345.783ZM347.763 556.192C347.004 556.192 346.35 555.934 345.8 555.417C345.261 554.9 344.991 554.278 344.991 553.552C344.991 552.826 345.261 552.205 345.8 551.688C346.35 551.171 347.004 550.913 347.763 550.913C348.522 550.913 349.171 551.171 349.71 551.688C350.26 552.205 350.535 552.826 350.535 553.552C350.535 554.278 350.26 554.9 349.71 555.417C349.171 555.934 348.522 556.192 347.763 556.192Z" fill="#45556C"/>
<path d="M366.606 586.287C364.318 586.287 362.31 585.743 360.583 584.654C358.867 583.565 357.525 582.042 356.557 580.084C355.6 578.126 355.122 575.838 355.122 573.22C355.122 570.58 355.6 568.275 356.557 566.307C357.525 564.338 358.867 562.809 360.583 561.72C362.31 560.631 364.318 560.086 366.606 560.086C368.893 560.086 370.895 560.631 372.611 561.72C374.338 562.809 375.68 564.338 376.637 566.307C377.605 568.275 378.089 570.58 378.089 573.22C378.089 575.838 377.605 578.126 376.637 580.084C375.68 582.042 374.338 583.565 372.611 584.654C370.895 585.743 368.893 586.287 366.606 586.287ZM366.606 582.789C368.343 582.789 369.773 582.344 370.895 581.453C372.017 580.562 372.848 579.391 373.387 577.939C373.926 576.487 374.195 574.914 374.195 573.22C374.195 571.526 373.926 569.947 373.387 568.484C372.848 567.021 372.017 565.839 370.895 564.937C369.773 564.035 368.343 563.584 366.606 563.584C364.868 563.584 363.438 564.035 362.316 564.937C361.194 565.839 360.363 567.021 359.824 568.484C359.285 569.947 359.016 571.526 359.016 573.22C359.016 574.914 359.285 576.487 359.824 577.939C360.363 579.391 361.194 580.562 362.316 581.453C363.438 582.344 364.868 582.789 366.606 582.789Z" fill="#45556C"/>
<path d="M387.428 570.514V585.759H383.534V560.416H387.296V564.376H387.626C388.22 563.089 389.122 562.055 390.332 561.274C391.542 560.482 393.104 560.086 395.018 560.086C396.734 560.086 398.235 560.438 399.522 561.142C400.809 561.835 401.81 562.891 402.525 564.31C403.24 565.718 403.597 567.5 403.597 569.656V585.759H399.703V569.92C399.703 567.929 399.186 566.378 398.153 565.267C397.119 564.145 395.7 563.584 393.896 563.584C392.653 563.584 391.542 563.854 390.563 564.393C389.595 564.932 388.83 565.718 388.269 566.752C387.708 567.786 387.428 569.04 387.428 570.514Z" fill="#45556C"/>
<path d="M428.165 566.092L424.667 567.082C424.447 566.499 424.123 565.933 423.694 565.383C423.276 564.822 422.704 564.36 421.978 563.997C421.252 563.634 420.322 563.452 419.189 563.452C417.638 563.452 416.346 563.81 415.312 564.525C414.289 565.229 413.778 566.125 413.778 567.214C413.778 568.182 414.13 568.946 414.833 569.507C415.537 570.068 416.637 570.536 418.133 570.91L421.895 571.834C424.161 572.384 425.85 573.225 426.961 574.358C428.072 575.48 428.627 576.927 428.627 578.698C428.627 580.15 428.209 581.448 427.373 582.591C426.548 583.735 425.393 584.637 423.908 585.297C422.423 585.957 420.696 586.287 418.727 586.287C416.142 586.287 414.003 585.726 412.309 584.604C410.615 583.482 409.543 581.844 409.092 579.688L412.788 578.764C413.14 580.128 413.805 581.151 414.784 581.833C415.774 582.514 417.066 582.855 418.661 582.855C420.476 582.855 421.917 582.47 422.984 581.701C424.062 580.92 424.601 579.985 424.601 578.896C424.601 578.016 424.293 577.279 423.677 576.685C423.061 576.08 422.115 575.629 420.839 575.332L416.615 574.342C414.295 573.792 412.59 572.939 411.501 571.784C410.423 570.618 409.884 569.161 409.884 567.412C409.884 565.982 410.285 564.717 411.088 563.617C411.902 562.517 413.008 561.654 414.404 561.027C415.812 560.4 417.407 560.086 419.189 560.086C421.697 560.086 423.666 560.636 425.096 561.736C426.537 562.836 427.56 564.288 428.165 566.092Z" fill="#45556C"/>
<path d="M454.016 586.353C452.41 586.353 450.952 586.051 449.643 585.446C448.334 584.83 447.295 583.944 446.525 582.789C445.755 581.624 445.37 580.216 445.37 578.566C445.37 577.114 445.656 575.937 446.228 575.035C446.8 574.122 447.564 573.407 448.521 572.89C449.478 572.373 450.534 571.988 451.689 571.735C452.855 571.471 454.027 571.262 455.204 571.108C456.744 570.91 457.992 570.761 458.949 570.662C459.917 570.552 460.621 570.371 461.061 570.118C461.512 569.865 461.737 569.425 461.737 568.798V568.666C461.737 567.038 461.292 565.773 460.401 564.871C459.521 563.969 458.184 563.518 456.392 563.518C454.533 563.518 453.075 563.925 452.019 564.739C450.963 565.553 450.221 566.422 449.792 567.346L446.096 566.026C446.756 564.486 447.636 563.287 448.736 562.429C449.847 561.56 451.057 560.955 452.366 560.614C453.686 560.262 454.984 560.086 456.26 560.086C457.074 560.086 458.008 560.185 459.064 560.383C460.131 560.57 461.16 560.961 462.15 561.555C463.151 562.149 463.981 563.045 464.641 564.244C465.301 565.443 465.631 567.049 465.631 569.062V585.759H461.737V582.327H461.539C461.275 582.877 460.835 583.466 460.219 584.093C459.603 584.72 458.784 585.253 457.761 585.693C456.738 586.133 455.49 586.353 454.016 586.353ZM454.61 582.855C456.15 582.855 457.447 582.553 458.503 581.948C459.57 581.343 460.373 580.562 460.912 579.605C461.462 578.648 461.737 577.642 461.737 576.586V573.022C461.572 573.22 461.209 573.401 460.648 573.566C460.098 573.72 459.46 573.858 458.734 573.979C458.019 574.089 457.321 574.188 456.639 574.276C455.968 574.353 455.424 574.419 455.006 574.474C453.994 574.606 453.048 574.82 452.168 575.117C451.299 575.403 450.595 575.838 450.056 576.421C449.528 576.993 449.264 577.774 449.264 578.764C449.264 580.117 449.764 581.14 450.765 581.833C451.777 582.514 453.059 582.855 454.61 582.855Z" fill="#45556C"/>
<path d="M472.239 585.759V560.416H476.001V564.244H476.265C476.727 562.99 477.563 561.973 478.773 561.192C479.983 560.411 481.347 560.02 482.865 560.02C483.151 560.02 483.508 560.026 483.937 560.037C484.366 560.048 484.691 560.064 484.911 560.086V564.046C484.779 564.013 484.476 563.964 484.003 563.898C483.541 563.821 483.052 563.782 482.535 563.782C481.303 563.782 480.203 564.041 479.235 564.558C478.278 565.064 477.519 565.768 476.958 566.669C476.408 567.56 476.133 568.578 476.133 569.722V585.759H472.239Z" fill="#45556C"/>
<path d="M498.882 586.287C496.44 586.287 494.333 585.748 492.562 584.67C490.803 583.581 489.444 582.064 488.487 580.117C487.541 578.159 487.068 575.882 487.068 573.286C487.068 570.69 487.541 568.402 488.487 566.422C489.444 564.431 490.775 562.88 492.48 561.769C494.196 560.647 496.198 560.086 498.486 560.086C499.806 560.086 501.109 560.306 502.396 560.746C503.683 561.186 504.855 561.901 505.911 562.891C506.967 563.87 507.808 565.168 508.435 566.785C509.062 568.402 509.375 570.393 509.375 572.758V574.408H489.84V571.042H505.416C505.416 569.612 505.13 568.336 504.558 567.214C503.997 566.092 503.194 565.207 502.149 564.558C501.115 563.909 499.894 563.584 498.486 563.584C496.935 563.584 495.593 563.969 494.46 564.739C493.338 565.498 492.474 566.488 491.869 567.709C491.265 568.93 490.962 570.239 490.962 571.636V573.88C490.962 575.794 491.292 577.416 491.952 578.747C492.623 580.067 493.552 581.074 494.74 581.767C495.928 582.448 497.309 582.789 498.882 582.789C499.905 582.789 500.829 582.646 501.654 582.36C502.49 582.064 503.21 581.624 503.815 581.041C504.42 580.447 504.888 579.71 505.218 578.83L508.979 579.886C508.583 581.162 507.918 582.283 506.983 583.251C506.048 584.208 504.893 584.956 503.518 585.495C502.143 586.023 500.598 586.287 498.882 586.287Z" fill="#45556C"/>
<path d="M548.091 560.416L538.72 585.759H534.76L525.388 560.416H529.612L536.608 580.612H536.872L543.868 560.416H548.091Z" fill="#45556C"/>
<path d="M559.418 586.353C557.812 586.353 556.355 586.051 555.046 585.446C553.737 584.83 552.698 583.944 551.928 582.789C551.158 581.624 550.773 580.216 550.773 578.566C550.773 577.114 551.059 575.937 551.631 575.035C552.203 574.122 552.967 573.407 553.924 572.89C554.881 572.373 555.937 571.988 557.092 571.735C558.258 571.471 559.429 571.262 560.606 571.108C562.146 570.91 563.395 570.761 564.352 570.662C565.32 570.552 566.024 570.371 566.464 570.118C566.915 569.865 567.14 569.425 567.14 568.798V568.666C567.14 567.038 566.695 565.773 565.804 564.871C564.924 563.969 563.587 563.518 561.794 563.518C559.935 563.518 558.478 563.925 557.422 564.739C556.366 565.553 555.623 566.422 555.194 567.346L551.499 566.026C552.159 564.486 553.039 563.287 554.139 562.429C555.249 561.56 556.459 560.955 557.768 560.614C559.088 560.262 560.386 560.086 561.662 560.086C562.476 560.086 563.411 560.185 564.467 560.383C565.534 560.57 566.563 560.961 567.553 561.555C568.554 562.149 569.384 563.045 570.044 564.244C570.704 565.443 571.034 567.049 571.034 569.062V585.759H567.14V582.327H566.942C566.678 582.877 566.238 583.466 565.622 584.093C565.006 584.72 564.187 585.253 563.164 585.693C562.141 586.133 560.892 586.353 559.418 586.353ZM560.012 582.855C561.552 582.855 562.85 582.553 563.906 581.948C564.973 581.343 565.776 580.562 566.315 579.605C566.865 578.648 567.14 577.642 567.14 576.586V573.022C566.975 573.22 566.612 573.401 566.051 573.566C565.501 573.72 564.863 573.858 564.137 573.979C563.422 574.089 562.724 574.188 562.042 574.276C561.371 574.353 560.826 574.419 560.408 574.474C559.396 574.606 558.45 574.82 557.57 575.117C556.701 575.403 555.997 575.838 555.458 576.421C554.93 576.993 554.666 577.774 554.666 578.764C554.666 580.117 555.167 581.14 556.168 581.833C557.18 582.514 558.461 582.855 560.012 582.855Z" fill="#45556C"/>
<path d="M581.536 551.968V585.759H577.642V551.968H581.536Z" fill="#45556C"/>
<path d="M588.169 585.759V560.416H592.063V585.759H588.169ZM590.149 556.192C589.39 556.192 588.735 555.934 588.185 555.417C587.646 554.9 587.377 554.278 587.377 553.552C587.377 552.826 587.646 552.205 588.185 551.688C588.735 551.171 589.39 550.913 590.149 550.913C590.908 550.913 591.557 551.171 592.096 551.688C592.646 552.205 592.92 552.826 592.92 553.552C592.92 554.278 592.646 554.9 592.096 555.417C591.557 555.934 590.908 556.192 590.149 556.192Z" fill="#45556C"/>
<path d="M608.265 586.287C606.153 586.287 604.289 585.754 602.672 584.687C601.055 583.609 599.79 582.091 598.877 580.133C597.964 578.164 597.507 575.838 597.507 573.154C597.507 570.492 597.964 568.182 598.877 566.224C599.79 564.266 601.06 562.754 602.688 561.687C604.316 560.62 606.197 560.086 608.331 560.086C609.981 560.086 611.284 560.361 612.241 560.911C613.209 561.45 613.946 562.066 614.452 562.759C614.969 563.441 615.371 564.002 615.657 564.442H615.987V551.968H619.881V585.759H616.119V581.866H615.657C615.371 582.327 614.964 582.91 614.436 583.614C613.908 584.307 613.154 584.929 612.175 585.479C611.196 586.018 609.893 586.287 608.265 586.287ZM608.793 582.789C610.355 582.789 611.675 582.382 612.753 581.569C613.831 580.744 614.65 579.605 615.211 578.153C615.772 576.69 616.053 575.002 616.053 573.088C616.053 571.196 615.778 569.54 615.228 568.121C614.678 566.691 613.864 565.581 612.786 564.789C611.708 563.986 610.377 563.584 608.793 563.584C607.143 563.584 605.768 564.008 604.668 564.855C603.579 565.691 602.76 566.829 602.21 568.27C601.671 569.7 601.401 571.306 601.401 573.088C601.401 574.892 601.676 576.531 602.226 578.005C602.787 579.468 603.612 580.634 604.701 581.503C605.801 582.36 607.165 582.789 608.793 582.789Z" fill="#45556C"/>
<path d="M634.512 586.353C632.906 586.353 631.448 586.051 630.139 585.446C628.83 584.83 627.791 583.944 627.021 582.789C626.251 581.624 625.866 580.216 625.866 578.566C625.866 577.114 626.152 575.937 626.724 575.035C627.296 574.122 628.06 573.407 629.017 572.89C629.974 572.373 631.03 571.988 632.185 571.735C633.351 571.471 634.523 571.262 635.7 571.108C637.239 570.91 638.488 570.761 639.445 570.662C640.413 570.552 641.117 570.371 641.557 570.118C642.008 569.865 642.233 569.425 642.233 568.798V568.666C642.233 567.038 641.788 565.773 640.897 564.871C640.017 563.969 638.68 563.518 636.887 563.518C635.028 563.518 633.571 563.925 632.515 564.739C631.459 565.553 630.717 566.422 630.288 567.346L626.592 566.026C627.252 564.486 628.132 563.287 629.232 562.429C630.343 561.56 631.553 560.955 632.862 560.614C634.182 560.262 635.479 560.086 636.755 560.086C637.569 560.086 638.504 560.185 639.56 560.383C640.627 560.57 641.656 560.961 642.646 561.555C643.647 562.149 644.477 563.045 645.137 564.244C645.797 565.443 646.127 567.049 646.127 569.062V585.759H642.233V582.327H642.035C641.771 582.877 641.331 583.466 640.715 584.093C640.099 584.72 639.28 585.253 638.257 585.693C637.234 586.133 635.985 586.353 634.512 586.353ZM635.106 582.855C636.645 582.855 637.943 582.553 638.999 581.948C640.066 581.343 640.869 580.562 641.408 579.605C641.958 578.648 642.233 577.642 642.233 576.586V573.022C642.068 573.22 641.705 573.401 641.144 573.566C640.594 573.72 639.956 573.858 639.23 573.979C638.515 574.089 637.817 574.188 637.135 574.276C636.464 574.353 635.919 574.419 635.502 574.474C634.49 574.606 633.544 574.82 632.664 575.117C631.795 575.403 631.091 575.838 630.552 576.421C630.024 576.993 629.76 577.774 629.76 578.764C629.76 580.117 630.26 581.14 631.261 581.833C632.273 582.514 633.555 582.855 635.106 582.855Z" fill="#45556C"/>
<path d="M663.757 560.416V563.716H650.623V560.416H663.757ZM654.451 554.344H658.345V578.5C658.345 579.6 658.505 580.425 658.824 580.975C659.153 581.514 659.571 581.877 660.077 582.064C660.594 582.239 661.139 582.327 661.711 582.327C662.14 582.327 662.492 582.305 662.767 582.261C663.042 582.206 663.262 582.162 663.427 582.129L664.219 585.627C663.955 585.726 663.586 585.825 663.113 585.924C662.64 586.034 662.041 586.089 661.315 586.089C660.215 586.089 659.137 585.853 658.081 585.38C657.036 584.907 656.167 584.186 655.474 583.218C654.792 582.25 654.451 581.03 654.451 579.556V554.344Z" fill="#45556C"/>
<path d="M679.468 586.287C677.027 586.287 674.92 585.748 673.149 584.67C671.389 583.581 670.031 582.064 669.074 580.117C668.128 578.159 667.655 575.882 667.655 573.286C667.655 570.69 668.128 568.402 669.074 566.422C670.031 564.431 671.362 562.88 673.067 561.769C674.783 560.647 676.785 560.086 679.072 560.086C680.392 560.086 681.696 560.306 682.983 560.746C684.27 561.186 685.441 561.901 686.497 562.891C687.553 563.87 688.395 565.168 689.022 566.785C689.649 568.402 689.962 570.393 689.962 572.758V574.408H670.427V571.042H686.002C686.002 569.612 685.716 568.336 685.144 567.214C684.583 566.092 683.78 565.207 682.735 564.558C681.701 563.909 680.48 563.584 679.072 563.584C677.522 563.584 676.18 563.969 675.047 564.739C673.925 565.498 673.061 566.488 672.456 567.709C671.851 568.93 671.549 570.239 671.549 571.636V573.88C671.549 575.794 671.879 577.416 672.539 578.747C673.21 580.067 674.139 581.074 675.327 581.767C676.515 582.448 677.896 582.789 679.468 582.789C680.491 582.789 681.415 582.646 682.24 582.36C683.076 582.064 683.797 581.624 684.402 581.041C685.007 580.447 685.474 579.71 685.804 578.83L689.566 579.886C689.17 581.162 688.505 582.283 687.57 583.251C686.635 584.208 685.48 584.956 684.105 585.495C682.73 586.023 681.184 586.287 679.468 586.287Z" fill="#45556C"/>
<path d="M704.956 586.287C702.844 586.287 700.98 585.754 699.363 584.687C697.746 583.609 696.481 582.091 695.568 580.133C694.655 578.164 694.198 575.838 694.198 573.154C694.198 570.492 694.655 568.182 695.568 566.224C696.481 564.266 697.751 562.754 699.379 561.687C701.007 560.62 702.888 560.086 705.022 560.086C706.672 560.086 707.975 560.361 708.932 560.911C709.9 561.45 710.637 562.066 711.143 562.759C711.66 563.441 712.062 564.002 712.348 564.442H712.678V551.968H716.572V585.759H712.81V581.866H712.348C712.062 582.327 711.655 582.91 711.127 583.614C710.599 584.307 709.845 584.929 708.866 585.479C707.887 586.018 706.584 586.287 704.956 586.287ZM705.484 582.789C707.046 582.789 708.366 582.382 709.444 581.569C710.522 580.744 711.341 579.605 711.902 578.153C712.463 576.69 712.744 575.002 712.744 573.088C712.744 571.196 712.469 569.54 711.919 568.121C711.369 566.691 710.555 565.581 709.477 564.789C708.399 563.986 707.068 563.584 705.484 563.584C703.834 563.584 702.459 564.008 701.359 564.855C700.27 565.691 699.451 566.829 698.901 568.27C698.362 569.7 698.092 571.306 698.092 573.088C698.092 574.892 698.367 576.531 698.917 578.005C699.478 579.468 700.303 580.634 701.392 581.503C702.492 582.36 703.856 582.789 705.484 582.789Z" fill="#45556C"/>
<path d="M736.313 585.759V560.416H740.207V585.759H736.313ZM738.293 556.192C737.534 556.192 736.88 555.934 736.33 555.417C735.791 554.9 735.521 554.278 735.521 553.552C735.521 552.826 735.791 552.205 736.33 551.688C736.88 551.171 737.534 550.913 738.293 550.913C739.052 550.913 739.701 551.171 740.24 551.688C740.79 552.205 741.065 552.826 741.065 553.552C741.065 554.278 740.79 554.9 740.24 555.417C739.701 555.934 739.052 556.192 738.293 556.192Z" fill="#45556C"/>
<path d="M750.734 570.514V585.759H746.84V560.416H750.602V564.376H750.932C751.526 563.089 752.428 562.055 753.638 561.274C754.848 560.482 756.41 560.086 758.324 560.086C760.039 560.086 761.541 560.438 762.828 561.142C764.115 561.835 765.116 562.891 765.831 564.31C766.546 565.718 766.903 567.5 766.903 569.656V585.759H763.009V569.92C763.009 567.929 762.492 566.378 761.458 565.267C760.424 564.145 759.006 563.584 757.202 563.584C755.959 563.584 754.848 563.854 753.869 564.393C752.901 564.932 752.136 565.718 751.575 566.752C751.014 567.786 750.734 569.04 750.734 570.514Z" fill="#45556C"/>
<path d="M118.635 636.889V652.134H114.741V626.791H118.503V630.751H118.833C119.427 629.464 120.329 628.43 121.539 627.649C122.749 626.857 124.311 626.461 126.225 626.461C127.941 626.461 129.442 626.813 130.729 627.517C132.016 628.21 133.017 629.266 133.732 630.685C134.447 632.093 134.805 633.875 134.805 636.031V652.134H130.911V636.295C130.911 634.304 130.394 632.753 129.36 631.642C128.326 630.52 126.907 629.959 125.103 629.959C123.86 629.959 122.749 630.229 121.77 630.768C120.802 631.307 120.037 632.093 119.477 633.127C118.916 634.161 118.635 635.415 118.635 636.889Z" fill="#45556C"/>
<path d="M151.716 652.662C149.429 652.662 147.421 652.118 145.694 651.029C143.978 649.94 142.636 648.417 141.668 646.459C140.711 644.501 140.233 642.213 140.233 639.595C140.233 636.955 140.711 634.65 141.668 632.682C142.636 630.713 143.978 629.184 145.694 628.095C147.421 627.006 149.429 626.461 151.716 626.461C154.004 626.461 156.006 627.006 157.722 628.095C159.449 629.184 160.791 630.713 161.748 632.682C162.716 634.65 163.2 636.955 163.2 639.595C163.2 642.213 162.716 644.501 161.748 646.459C160.791 648.417 159.449 649.94 157.722 651.029C156.006 652.118 154.004 652.662 151.716 652.662ZM151.716 649.164C153.454 649.164 154.884 648.719 156.006 647.828C157.128 646.937 157.959 645.766 158.498 644.314C159.037 642.862 159.306 641.289 159.306 639.595C159.306 637.901 159.037 636.322 158.498 634.859C157.959 633.396 157.128 632.214 156.006 631.312C154.884 630.41 153.454 629.959 151.716 629.959C149.979 629.959 148.549 630.41 147.427 631.312C146.305 632.214 145.474 633.396 144.935 634.859C144.396 636.322 144.127 637.901 144.127 639.595C144.127 641.289 144.396 642.862 144.935 644.314C145.474 645.766 146.305 646.937 147.427 647.828C148.549 648.719 149.979 649.164 151.716 649.164Z" fill="#45556C"/>
<path d="M172.539 636.889V652.134H168.645V626.791H172.407V630.751H172.737C173.331 629.464 174.233 628.43 175.443 627.649C176.653 626.857 178.215 626.461 180.129 626.461C181.844 626.461 183.346 626.813 184.633 627.517C185.92 628.21 186.921 629.266 187.636 630.685C188.351 632.093 188.708 633.875 188.708 636.031V652.134H184.814V636.295C184.814 634.304 184.297 632.753 183.263 631.642C182.229 630.52 180.811 629.959 179.007 629.959C177.764 629.959 176.653 630.229 175.674 630.768C174.706 631.307 173.941 632.093 173.38 633.127C172.819 634.161 172.539 635.415 172.539 636.889Z" fill="#45556C"/>
<path d="M209.844 635.833V639.463H195.061V635.833H209.844Z" fill="#45556C"/>
<path d="M216.196 661.638V626.791H219.958V630.817H220.42C220.706 630.377 221.102 629.816 221.608 629.134C222.125 628.441 222.862 627.825 223.819 627.286C224.787 626.736 226.096 626.461 227.746 626.461C229.88 626.461 231.761 626.995 233.389 628.062C235.017 629.129 236.287 630.641 237.2 632.599C238.113 634.557 238.57 636.867 238.57 639.529C238.57 642.213 238.113 644.539 237.2 646.508C236.287 648.466 235.022 649.984 233.405 651.062C231.788 652.129 229.924 652.662 227.812 652.662C226.184 652.662 224.881 652.393 223.902 651.854C222.923 651.304 222.169 650.682 221.641 649.989C221.113 649.285 220.706 648.702 220.42 648.241H220.09V661.638H216.196ZM220.024 639.463C220.024 641.377 220.305 643.065 220.866 644.528C221.427 645.98 222.246 647.119 223.324 647.944C224.402 648.757 225.722 649.164 227.284 649.164C228.912 649.164 230.27 648.735 231.359 647.878C232.459 647.009 233.284 645.843 233.834 644.38C234.395 642.906 234.676 641.267 234.676 639.463C234.676 637.681 234.401 636.075 233.851 634.645C233.312 633.204 232.492 632.066 231.392 631.23C230.303 630.383 228.934 629.959 227.284 629.959C225.7 629.959 224.369 630.361 223.291 631.164C222.213 631.956 221.399 633.067 220.849 634.496C220.299 635.915 220.024 637.571 220.024 639.463Z" fill="#45556C"/>
<path d="M244.01 652.134V626.791H247.772V630.619H248.036C248.498 629.365 249.334 628.348 250.544 627.567C251.754 626.786 253.118 626.395 254.636 626.395C254.922 626.395 255.28 626.401 255.708 626.412C256.137 626.423 256.462 626.439 256.682 626.461V630.421C256.55 630.388 256.247 630.339 255.774 630.273C255.313 630.196 254.823 630.157 254.306 630.157C253.074 630.157 251.974 630.416 251.006 630.933C250.049 631.439 249.29 632.143 248.729 633.045C248.179 633.935 247.904 634.953 247.904 636.097V652.134H244.01Z" fill="#45556C"/>
<path d="M270.323 652.662C268.035 652.662 266.028 652.118 264.301 651.029C262.585 649.94 261.243 648.417 260.275 646.459C259.318 644.501 258.839 642.213 258.839 639.595C258.839 636.955 259.318 634.65 260.275 632.682C261.243 630.713 262.585 629.184 264.301 628.095C266.028 627.006 268.035 626.461 270.323 626.461C272.611 626.461 274.613 627.006 276.329 628.095C278.056 629.184 279.398 630.713 280.355 632.682C281.323 634.65 281.807 636.955 281.807 639.595C281.807 642.213 281.323 644.501 280.355 646.459C279.398 648.417 278.056 649.94 276.329 651.029C274.613 652.118 272.611 652.662 270.323 652.662ZM270.323 649.164C272.061 649.164 273.491 648.719 274.613 647.828C275.735 646.937 276.565 645.766 277.104 644.314C277.643 642.862 277.913 641.289 277.913 639.595C277.913 637.901 277.643 636.322 277.104 634.859C276.565 633.396 275.735 632.214 274.613 631.312C273.491 630.41 272.061 629.959 270.323 629.959C268.585 629.959 267.155 630.41 266.033 631.312C264.911 632.214 264.081 633.396 263.542 634.859C263.003 636.322 262.733 637.901 262.733 639.595C262.733 641.289 263.003 642.862 263.542 644.314C264.081 645.766 264.911 646.937 266.033 647.828C267.155 648.719 268.585 649.164 270.323 649.164Z" fill="#45556C"/>
<path d="M296.821 652.662C294.709 652.662 292.845 652.129 291.228 651.062C289.611 649.984 288.346 648.466 287.433 646.508C286.52 644.539 286.063 642.213 286.063 639.529C286.063 636.867 286.52 634.557 287.433 632.599C288.346 630.641 289.616 629.129 291.244 628.062C292.872 626.995 294.753 626.461 296.887 626.461C298.537 626.461 299.84 626.736 300.797 627.286C301.765 627.825 302.502 628.441 303.008 629.134C303.525 629.816 303.927 630.377 304.213 630.817H304.543V618.343H308.437V652.134H304.675V648.241H304.213C303.927 648.702 303.52 649.285 302.992 649.989C302.464 650.682 301.71 651.304 300.731 651.854C299.752 652.393 298.449 652.662 296.821 652.662ZM297.349 649.164C298.911 649.164 300.231 648.757 301.309 647.944C302.387 647.119 303.206 645.98 303.767 644.528C304.328 643.065 304.609 641.377 304.609 639.463C304.609 637.571 304.334 635.915 303.784 634.496C303.234 633.067 302.42 631.956 301.342 631.164C300.264 630.361 298.933 629.959 297.349 629.959C295.699 629.959 294.324 630.383 293.224 631.23C292.135 632.066 291.316 633.204 290.766 634.645C290.227 636.075 289.957 637.681 289.957 639.463C289.957 641.267 290.232 642.906 290.782 644.38C291.343 645.843 292.168 647.009 293.257 647.878C294.357 648.735 295.721 649.164 297.349 649.164Z" fill="#45556C"/>
<path d="M331.581 641.773V626.791H335.475V652.134H331.581V647.845H331.317C330.723 649.131 329.799 650.226 328.545 651.128C327.291 652.019 325.707 652.464 323.794 652.464C322.21 652.464 320.802 652.118 319.57 651.425C318.338 650.721 317.37 649.665 316.666 648.257C315.962 646.838 315.61 645.051 315.61 642.895V626.791H319.504V642.631C319.504 644.479 320.021 645.953 321.055 647.053C322.1 648.153 323.431 648.702 325.048 648.702C326.015 648.702 327 648.455 328.001 647.96C329.013 647.465 329.86 646.706 330.542 645.683C331.235 644.66 331.581 643.357 331.581 641.773Z" fill="#45556C"/>
<path d="M352.404 652.662C350.028 652.662 347.982 652.101 346.266 650.979C344.55 649.857 343.23 648.312 342.306 646.343C341.382 644.374 340.92 642.125 340.92 639.595C340.92 637.021 341.393 634.749 342.339 632.781C343.296 630.801 344.627 629.255 346.332 628.144C348.048 627.022 350.05 626.461 352.338 626.461C354.12 626.461 355.726 626.791 357.155 627.451C358.585 628.111 359.757 629.035 360.67 630.223C361.583 631.411 362.149 632.797 362.369 634.381H358.475C358.178 633.226 357.518 632.203 356.495 631.312C355.484 630.41 354.12 629.959 352.404 629.959C350.886 629.959 349.555 630.355 348.411 631.147C347.278 631.928 346.392 633.034 345.754 634.463C345.127 635.882 344.814 637.549 344.814 639.463C344.814 641.421 345.122 643.126 345.738 644.578C346.365 646.03 347.245 647.157 348.378 647.96C349.522 648.763 350.864 649.164 352.404 649.164C353.416 649.164 354.334 648.988 355.159 648.636C355.984 648.285 356.682 647.779 357.254 647.119C357.826 646.459 358.233 645.667 358.475 644.743H362.369C362.149 646.239 361.605 647.586 360.736 648.785C359.878 649.973 358.739 650.919 357.32 651.623C355.912 652.316 354.274 652.662 352.404 652.662Z" fill="#45556C"/>
<path d="M378.584 626.791V630.091H365.451V626.791H378.584ZM369.278 620.719H373.172V644.875C373.172 645.975 373.332 646.8 373.651 647.35C373.981 647.889 374.399 648.252 374.905 648.439C375.422 648.614 375.966 648.702 376.538 648.702C376.967 648.702 377.319 648.68 377.594 648.636C377.869 648.581 378.089 648.538 378.254 648.505L379.046 652.002C378.782 652.101 378.414 652.2 377.941 652.299C377.468 652.409 376.868 652.464 376.142 652.464C375.042 652.464 373.964 652.228 372.908 651.755C371.863 651.282 370.994 650.561 370.301 649.593C369.619 648.625 369.278 647.405 369.278 645.931V620.719Z" fill="#45556C"/>
<path d="M383.942 652.134V626.791H387.836V652.134H383.942ZM385.922 622.567C385.163 622.567 384.509 622.309 383.959 621.792C383.42 621.275 383.15 620.653 383.15 619.927C383.15 619.201 383.42 618.58 383.959 618.063C384.509 617.546 385.163 617.288 385.922 617.288C386.681 617.288 387.33 617.546 387.869 618.063C388.419 618.58 388.694 619.201 388.694 619.927C388.694 620.653 388.419 621.275 387.869 621.792C387.33 622.309 386.681 622.567 385.922 622.567Z" fill="#45556C"/>
<path d="M404.765 652.662C402.477 652.662 400.469 652.118 398.742 651.029C397.026 649.94 395.684 648.417 394.717 646.459C393.76 644.501 393.281 642.213 393.281 639.595C393.281 636.955 393.76 634.65 394.717 632.682C395.684 630.713 397.026 629.184 398.742 628.095C400.469 627.006 402.477 626.461 404.765 626.461C407.053 626.461 409.055 627.006 410.77 628.095C412.497 629.184 413.839 630.713 414.796 632.682C415.764 634.65 416.248 636.955 416.248 639.595C416.248 642.213 415.764 644.501 414.796 646.459C413.839 648.417 412.497 649.94 410.77 651.029C409.055 652.118 407.053 652.662 404.765 652.662ZM404.765 649.164C406.503 649.164 407.933 648.719 409.055 647.828C410.177 646.937 411.007 645.766 411.546 644.314C412.085 642.862 412.354 641.289 412.354 639.595C412.354 637.901 412.085 636.322 411.546 634.859C411.007 633.396 410.177 632.214 409.055 631.312C407.933 630.41 406.503 629.959 404.765 629.959C403.027 629.959 401.597 630.41 400.475 631.312C399.353 632.214 398.522 633.396 397.983 634.859C397.444 636.322 397.175 637.901 397.175 639.595C397.175 641.289 397.444 642.862 397.983 644.314C398.522 645.766 399.353 646.937 400.475 647.828C401.597 648.719 403.027 649.164 404.765 649.164Z" fill="#45556C"/>
<path d="M425.587 636.889V652.134H421.693V626.791H425.455V630.751H425.785C426.379 629.464 427.281 628.43 428.491 627.649C429.701 626.857 431.263 626.461 433.177 626.461C434.893 626.461 436.394 626.813 437.681 627.517C438.968 628.21 439.969 629.266 440.684 630.685C441.399 632.093 441.756 633.875 441.756 636.031V652.134H437.863V636.295C437.863 634.304 437.346 632.753 436.312 631.642C435.278 630.52 433.859 629.959 432.055 629.959C430.812 629.959 429.701 630.229 428.722 630.768C427.754 631.307 426.989 632.093 426.428 633.127C425.867 634.161 425.587 635.415 425.587 636.889Z" fill="#45556C"/>
<path d="M471.567 652.662C469.125 652.662 467.019 652.123 465.248 651.045C463.488 649.956 462.129 648.439 461.172 646.492C460.226 644.534 459.753 642.257 459.753 639.661C459.753 637.065 460.226 634.777 461.172 632.797C462.129 630.806 463.46 629.255 465.165 628.144C466.881 627.022 468.883 626.461 471.171 626.461C472.491 626.461 473.794 626.681 475.081 627.121C476.368 627.561 477.54 628.276 478.596 629.266C479.652 630.245 480.493 631.543 481.12 633.16C481.747 634.777 482.061 636.768 482.061 639.133V640.783H462.525V637.417H478.101C478.101 635.987 477.815 634.711 477.243 633.589C476.682 632.467 475.879 631.582 474.834 630.933C473.8 630.284 472.579 629.959 471.171 629.959C469.62 629.959 468.278 630.344 467.145 631.114C466.023 631.873 465.16 632.863 464.555 634.084C463.95 635.305 463.647 636.614 463.647 638.011V640.255C463.647 642.169 463.977 643.791 464.637 645.122C465.308 646.442 466.238 647.449 467.426 648.142C468.614 648.823 469.994 649.164 471.567 649.164C472.59 649.164 473.514 649.021 474.339 648.735C475.175 648.439 475.895 647.999 476.5 647.416C477.105 646.822 477.573 646.085 477.903 645.205L481.665 646.261C481.269 647.537 480.603 648.658 479.668 649.626C478.733 650.583 477.578 651.331 476.203 651.87C474.828 652.398 473.283 652.662 471.567 652.662Z" fill="#45556C"/>
<path d="M491.379 636.889V652.134H487.485V626.791H491.247V630.751H491.577C492.171 629.464 493.073 628.43 494.283 627.649C495.493 626.857 497.054 626.461 498.968 626.461C500.684 626.461 502.186 626.813 503.473 627.517C504.76 628.21 505.761 629.266 506.476 630.685C507.191 632.093 507.548 633.875 507.548 636.031V652.134H503.654V636.295C503.654 634.304 503.137 632.753 502.103 631.642C501.069 630.52 499.65 629.959 497.846 629.959C496.603 629.959 495.493 630.229 494.514 630.768C493.546 631.307 492.781 632.093 492.22 633.127C491.659 634.161 491.379 635.415 491.379 636.889Z" fill="#45556C"/>
<path d="M533.98 626.791L524.609 652.134H520.649L511.277 626.791H515.501L522.497 646.987H522.761L529.756 626.791H533.98Z" fill="#45556C"/>
<path d="M538.621 652.134V626.791H542.515V652.134H538.621ZM540.601 622.567C539.842 622.567 539.187 622.309 538.637 621.792C538.098 621.275 537.829 620.653 537.829 619.927C537.829 619.201 538.098 618.58 538.637 618.063C539.187 617.546 539.842 617.288 540.601 617.288C541.36 617.288 542.009 617.546 542.548 618.063C543.098 618.58 543.373 619.201 543.373 619.927C543.373 620.653 543.098 621.275 542.548 621.792C542.009 622.309 541.36 622.567 540.601 622.567Z" fill="#45556C"/>
<path d="M549.147 652.134V626.791H552.909V630.619H553.173C553.635 629.365 554.471 628.348 555.681 627.567C556.891 626.786 558.255 626.395 559.773 626.395C560.059 626.395 560.417 626.401 560.846 626.412C561.275 626.423 561.599 626.439 561.819 626.461V630.421C561.687 630.388 561.384 630.339 560.912 630.273C560.45 630.196 559.96 630.157 559.443 630.157C558.211 630.157 557.111 630.416 556.143 630.933C555.186 631.439 554.427 632.143 553.866 633.045C553.316 633.935 553.041 634.953 553.041 636.097V652.134H549.147Z" fill="#45556C"/>
<path d="M575.46 652.662C573.172 652.662 571.165 652.118 569.438 651.029C567.722 649.94 566.38 648.417 565.412 646.459C564.455 644.501 563.976 642.213 563.976 639.595C563.976 636.955 564.455 634.65 565.412 632.682C566.38 630.713 567.722 629.184 569.438 628.095C571.165 627.006 573.172 626.461 575.46 626.461C577.748 626.461 579.75 627.006 581.466 628.095C583.193 629.184 584.535 630.713 585.492 632.682C586.46 634.65 586.944 636.955 586.944 639.595C586.944 642.213 586.46 644.501 585.492 646.459C584.535 648.417 583.193 649.94 581.466 651.029C579.75 652.118 577.748 652.662 575.46 652.662ZM575.46 649.164C577.198 649.164 578.628 648.719 579.75 647.828C580.872 646.937 581.702 645.766 582.241 644.314C582.78 642.862 583.05 641.289 583.05 639.595C583.05 637.901 582.78 636.322 582.241 634.859C581.702 633.396 580.872 632.214 579.75 631.312C578.628 630.41 577.198 629.959 575.46 629.959C573.722 629.959 572.292 630.41 571.17 631.312C570.048 632.214 569.218 633.396 568.679 634.859C568.14 636.322 567.87 637.901 567.87 639.595C567.87 641.289 568.14 642.862 568.679 644.314C569.218 645.766 570.048 646.937 571.17 647.828C572.292 648.719 573.722 649.164 575.46 649.164Z" fill="#45556C"/>
<path d="M596.282 636.889V652.134H592.388V626.791H596.15V630.751H596.48C597.074 629.464 597.976 628.43 599.186 627.649C600.396 626.857 601.958 626.461 603.872 626.461C605.588 626.461 607.089 626.813 608.376 627.517C609.663 628.21 610.664 629.266 611.379 630.685C612.094 632.093 612.452 633.875 612.452 636.031V652.134H608.558V636.295C608.558 634.304 608.041 632.753 607.007 631.642C605.973 630.52 604.554 629.959 602.75 629.959C601.507 629.959 600.396 630.229 599.417 630.768C598.449 631.307 597.685 632.093 597.124 633.127C596.563 634.161 596.282 635.415 596.282 636.889Z" fill="#45556C"/>
<path d="M619.068 652.134V626.791H622.83V630.751H623.16C623.688 629.398 624.54 628.348 625.717 627.6C626.894 626.841 628.308 626.461 629.958 626.461C631.63 626.461 633.021 626.841 634.132 627.6C635.254 628.348 636.128 629.398 636.755 630.751H637.019C637.668 629.442 638.642 628.403 639.94 627.633C641.238 626.852 642.794 626.461 644.609 626.461C646.875 626.461 648.729 627.171 650.17 628.59C651.61 629.998 652.331 632.192 652.331 635.173V652.134H648.437V635.173C648.437 633.303 647.926 631.967 646.903 631.164C645.88 630.361 644.675 629.959 643.289 629.959C641.507 629.959 640.127 630.498 639.148 631.576C638.169 632.643 637.679 633.996 637.679 635.635V652.134H633.72V634.777C633.72 633.336 633.252 632.176 632.317 631.296C631.382 630.405 630.178 629.959 628.704 629.959C627.692 629.959 626.746 630.229 625.866 630.768C624.997 631.307 624.293 632.055 623.754 633.012C623.226 633.957 622.962 635.052 622.962 636.295V652.134H619.068Z" fill="#45556C"/>
<path d="M669.577 652.662C667.135 652.662 665.029 652.123 663.258 651.045C661.498 649.956 660.139 648.439 659.182 646.492C658.236 644.534 657.763 642.257 657.763 639.661C657.763 637.065 658.236 634.777 659.182 632.797C660.139 630.806 661.47 629.255 663.175 628.144C664.891 627.022 666.893 626.461 669.181 626.461C670.501 626.461 671.804 626.681 673.091 627.121C674.378 627.561 675.55 628.276 676.606 629.266C677.662 630.245 678.503 631.543 679.13 633.16C679.757 634.777 680.071 636.768 680.071 639.133V640.783H660.535V637.417H676.111C676.111 635.987 675.825 634.711 675.253 633.589C674.692 632.467 673.889 631.582 672.844 630.933C671.81 630.284 670.589 629.959 669.181 629.959C667.63 629.959 666.288 630.344 665.155 631.114C664.033 631.873 663.17 632.863 662.565 634.084C661.96 635.305 661.657 636.614 661.657 638.011V640.255C661.657 642.169 661.987 643.791 662.647 645.122C663.318 646.442 664.248 647.449 665.436 648.142C666.624 648.823 668.004 649.164 669.577 649.164C670.6 649.164 671.524 649.021 672.349 648.735C673.185 648.439 673.905 647.999 674.51 647.416C675.115 646.822 675.583 646.085 675.913 645.205L679.675 646.261C679.279 647.537 678.613 648.658 677.678 649.626C676.743 650.583 675.588 651.331 674.213 651.87C672.838 652.398 671.293 652.662 669.577 652.662Z" fill="#45556C"/>
<path d="M689.389 636.889V652.134H685.495V626.791H689.257V630.751H689.587C690.181 629.464 691.083 628.43 692.293 627.649C693.503 626.857 695.065 626.461 696.978 626.461C698.694 626.461 700.196 626.813 701.483 627.517C702.77 628.21 703.771 629.266 704.486 630.685C705.201 632.093 705.558 633.875 705.558 636.031V652.134H701.664V636.295C701.664 634.304 701.147 632.753 700.113 631.642C699.079 630.52 697.661 629.959 695.857 629.959C694.614 629.959 693.503 630.229 692.524 630.768C691.556 631.307 690.791 632.093 690.23 633.127C689.669 634.161 689.389 635.415 689.389 636.889Z" fill="#45556C"/>
<path d="M723.196 626.791V630.091H710.063V626.791H723.196ZM713.89 620.719H717.784V644.875C717.784 645.975 717.944 646.8 718.263 647.35C718.593 647.889 719.011 648.252 719.517 648.439C720.034 648.614 720.578 648.702 721.15 648.702C721.579 648.702 721.931 648.68 722.206 648.636C722.481 648.581 722.701 648.538 722.866 648.505L723.658 652.002C723.394 652.101 723.026 652.2 722.553 652.299C722.08 652.409 721.48 652.464 720.754 652.464C719.654 652.464 718.576 652.228 717.52 651.755C716.475 651.282 715.606 650.561 714.913 649.593C714.231 648.625 713.89 647.405 713.89 645.931V620.719Z" fill="#45556C"/>
<path d="M746.052 632.467L742.554 633.457C742.334 632.874 742.01 632.308 741.581 631.758C741.163 631.197 740.591 630.735 739.865 630.372C739.139 630.009 738.209 629.827 737.076 629.827C735.525 629.827 734.233 630.185 733.199 630.9C732.176 631.604 731.665 632.5 731.665 633.589C731.665 634.557 732.017 635.321 732.72 635.882C733.424 636.443 734.524 636.911 736.02 637.285L739.782 638.209C742.048 638.759 743.737 639.6 744.848 640.733C745.959 641.855 746.514 643.302 746.514 645.073C746.514 646.525 746.096 647.823 745.26 648.966C744.435 650.11 743.28 651.012 741.795 651.672C740.31 652.332 738.583 652.662 736.614 652.662C734.029 652.662 731.89 652.101 730.196 650.979C728.502 649.857 727.43 648.219 726.979 646.063L730.675 645.139C731.027 646.503 731.692 647.526 732.671 648.208C733.661 648.889 734.953 649.23 736.548 649.23C738.363 649.23 739.804 648.845 740.871 648.076C741.949 647.295 742.488 646.36 742.488 645.271C742.488 644.391 742.18 643.654 741.564 643.06C740.948 642.455 740.002 642.004 738.726 641.707L734.502 640.717C732.181 640.167 730.477 639.314 729.388 638.159C728.31 636.993 727.771 635.536 727.771 633.787C727.771 632.357 728.172 631.092 728.975 629.992C729.789 628.892 730.895 628.029 732.292 627.402C733.699 626.775 735.294 626.461 737.076 626.461C739.584 626.461 741.553 627.011 742.983 628.111C744.424 629.211 745.447 630.663 746.052 632.467Z" fill="#45556C"/>
<path d="M775.466 626.791V630.091H762.333V626.791H775.466ZM766.161 620.719H770.055V644.875C770.055 645.975 770.214 646.8 770.533 647.35C770.863 647.889 771.281 648.252 771.787 648.439C772.304 648.614 772.849 648.702 773.421 648.702C773.85 648.702 774.202 648.68 774.476 648.636C774.751 648.581 774.971 648.538 775.136 648.505L775.928 652.002C775.664 652.101 775.296 652.2 774.823 652.299C774.35 652.409 773.751 652.464 773.025 652.464C771.925 652.464 770.847 652.228 769.791 651.755C768.746 651.282 767.877 650.561 767.184 649.593C766.502 648.625 766.161 647.405 766.161 645.931V620.719Z" fill="#45556C"/>
<path d="M790.848 652.662C788.56 652.662 786.553 652.118 784.826 651.029C783.11 649.94 781.768 648.417 780.8 646.459C779.843 644.501 779.364 642.213 779.364 639.595C779.364 636.955 779.843 634.65 780.8 632.682C781.768 630.713 783.11 629.184 784.826 628.095C786.553 627.006 788.56 626.461 790.848 626.461C793.136 626.461 795.138 627.006 796.854 628.095C798.581 629.184 799.923 630.713 800.88 632.682C801.848 634.65 802.332 636.955 802.332 639.595C802.332 642.213 801.848 644.501 800.88 646.459C799.923 648.417 798.581 649.94 796.854 651.029C795.138 652.118 793.136 652.662 790.848 652.662ZM790.848 649.164C792.586 649.164 794.016 648.719 795.138 647.828C796.26 646.937 797.09 645.766 797.629 644.314C798.168 642.862 798.438 641.289 798.438 639.595C798.438 637.901 798.168 636.322 797.629 634.859C797.09 633.396 796.26 632.214 795.138 631.312C794.016 630.41 792.586 629.959 790.848 629.959C789.11 629.959 787.68 630.41 786.558 631.312C785.436 632.214 784.606 633.396 784.067 634.859C783.528 636.322 783.258 637.901 783.258 639.595C783.258 641.289 783.528 642.862 784.067 644.314C784.606 645.766 785.436 646.937 786.558 647.828C787.68 648.719 789.11 649.164 790.848 649.164Z" fill="#45556C"/>
<path d="M125.367 719.037C122.925 719.037 120.818 718.498 119.048 717.42C117.288 716.331 115.929 714.814 114.972 712.867C114.026 710.909 113.553 708.632 113.553 706.036C113.553 703.44 114.026 701.152 114.972 699.172C115.929 697.181 117.26 695.63 118.965 694.519C120.681 693.397 122.683 692.836 124.971 692.836C126.291 692.836 127.594 693.056 128.881 693.496C130.168 693.936 131.34 694.651 132.396 695.641C133.452 696.62 134.293 697.918 134.92 699.535C135.547 701.152 135.86 703.143 135.86 705.508V707.158H116.325V703.792H131.901C131.901 702.362 131.615 701.086 131.043 699.964C130.482 698.842 129.679 697.957 128.634 697.308C127.6 696.659 126.379 696.334 124.971 696.334C123.42 696.334 122.078 696.719 120.945 697.489C119.823 698.248 118.96 699.238 118.355 700.459C117.75 701.68 117.447 702.989 117.447 704.386V706.63C117.447 708.544 117.777 710.166 118.437 711.497C119.108 712.817 120.037 713.824 121.225 714.517C122.413 715.198 123.794 715.539 125.367 715.539C126.39 715.539 127.314 715.396 128.139 715.111C128.975 714.814 129.695 714.374 130.3 713.791C130.905 713.197 131.373 712.46 131.703 711.58L135.464 712.636C135.069 713.912 134.403 715.034 133.468 716.001C132.533 716.958 131.378 717.706 130.003 718.245C128.628 718.773 127.083 719.037 125.367 719.037Z" fill="#45556C"/>
<path d="M145.179 703.264V718.509H141.285V693.166H145.047V697.126H145.377C145.971 695.839 146.872 694.805 148.082 694.024C149.292 693.232 150.854 692.836 152.768 692.836C154.484 692.836 155.986 693.188 157.273 693.892C158.56 694.585 159.561 695.641 160.276 697.06C160.991 698.468 161.348 700.25 161.348 702.406V718.509H157.454V702.67C157.454 700.679 156.937 699.128 155.903 698.017C154.869 696.895 153.45 696.334 151.646 696.334C150.403 696.334 149.292 696.604 148.313 697.143C147.345 697.682 146.581 698.468 146.02 699.502C145.459 700.536 145.179 701.79 145.179 703.264Z" fill="#45556C"/>
<path d="M185.916 698.842L182.418 699.832C182.198 699.249 181.873 698.683 181.444 698.133C181.026 697.572 180.454 697.11 179.728 696.747C179.002 696.384 178.073 696.202 176.94 696.202C175.389 696.202 174.097 696.56 173.063 697.275C172.04 697.979 171.528 698.875 171.528 699.964C171.528 700.932 171.88 701.696 172.584 702.257C173.288 702.818 174.388 703.286 175.884 703.66L179.646 704.584C181.912 705.134 183.6 705.975 184.711 707.108C185.822 708.23 186.378 709.677 186.378 711.448C186.378 712.9 185.96 714.198 185.124 715.341C184.299 716.485 183.144 717.387 181.659 718.047C180.174 718.707 178.447 719.037 176.478 719.037C173.893 719.037 171.754 718.476 170.06 717.354C168.366 716.232 167.293 714.594 166.842 712.438L170.538 711.514C170.89 712.878 171.556 713.901 172.535 714.583C173.525 715.264 174.817 715.605 176.412 715.605C178.227 715.605 179.668 715.22 180.735 714.451C181.813 713.67 182.352 712.735 182.352 711.646C182.352 710.766 182.044 710.029 181.428 709.435C180.812 708.83 179.866 708.379 178.59 708.082L174.366 707.092C172.045 706.542 170.34 705.689 169.251 704.534C168.173 703.368 167.634 701.911 167.634 700.162C167.634 698.732 168.036 697.467 168.839 696.367C169.653 695.267 170.758 694.404 172.155 693.777C173.563 693.15 175.158 692.836 176.94 692.836C179.448 692.836 181.417 693.386 182.847 694.486C184.288 695.586 185.311 697.038 185.916 698.842Z" fill="#45556C"/>
<path d="M207.712 708.148V693.166H211.605V718.509H207.712V714.22H207.448C206.854 715.506 205.93 716.601 204.676 717.503C203.422 718.394 201.838 718.839 199.924 718.839C198.34 718.839 196.932 718.493 195.7 717.8C194.468 717.096 193.5 716.04 192.796 714.632C192.092 713.213 191.74 711.426 191.74 709.27V693.166H195.634V709.006C195.634 710.854 196.151 712.328 197.185 713.428C198.23 714.528 199.561 715.077 201.178 715.077C202.146 715.077 203.13 714.83 204.131 714.335C205.143 713.84 205.99 713.081 206.672 712.058C207.365 711.035 207.712 709.732 207.712 708.148Z" fill="#45556C"/>
<path d="M218.238 718.509V693.166H222V696.994H222.264C222.726 695.74 223.562 694.723 224.772 693.942C225.982 693.161 227.346 692.77 228.864 692.77C229.15 692.77 229.507 692.776 229.936 692.787C230.365 692.798 230.69 692.814 230.91 692.836V696.796C230.778 696.763 230.475 696.714 230.002 696.648C229.54 696.571 229.051 696.532 228.534 696.532C227.302 696.532 226.202 696.791 225.234 697.308C224.277 697.814 223.518 698.518 222.957 699.419C222.407 700.31 222.132 701.328 222.132 702.472V718.509H218.238Z" fill="#45556C"/>
<path d="M244.881 719.037C242.439 719.037 240.332 718.498 238.561 717.42C236.801 716.331 235.443 714.814 234.486 712.867C233.54 710.909 233.067 708.632 233.067 706.036C233.067 703.44 233.54 701.152 234.486 699.172C235.443 697.181 236.774 695.63 238.479 694.519C240.195 693.397 242.197 692.836 244.485 692.836C245.805 692.836 247.108 693.056 248.395 693.496C249.682 693.936 250.854 694.651 251.909 695.641C252.965 696.62 253.807 697.918 254.434 699.535C255.061 701.152 255.374 703.143 255.374 705.508V707.158H235.839V703.792H251.415C251.415 702.362 251.129 701.086 250.557 699.964C249.996 698.842 249.193 697.957 248.148 697.308C247.114 696.659 245.893 696.334 244.485 696.334C242.934 696.334 241.592 696.719 240.459 697.489C239.337 698.248 238.473 699.238 237.868 700.459C237.263 701.68 236.961 702.989 236.961 704.386V706.63C236.961 708.544 237.291 710.166 237.951 711.497C238.622 712.817 239.551 713.824 240.739 714.517C241.927 715.198 243.308 715.539 244.881 715.539C245.904 715.539 246.828 715.396 247.653 715.111C248.489 714.814 249.209 714.374 249.814 713.791C250.419 713.197 250.887 712.46 251.217 711.58L254.978 712.636C254.582 713.912 253.917 715.034 252.982 716.001C252.047 716.958 250.892 717.706 249.517 718.245C248.142 718.773 246.597 719.037 244.881 719.037Z" fill="#45556C"/>
<path d="M291.318 698.842L287.821 699.832C287.601 699.249 287.276 698.683 286.847 698.133C286.429 697.572 285.857 697.11 285.131 696.747C284.405 696.384 283.476 696.202 282.343 696.202C280.792 696.202 279.499 696.56 278.465 697.275C277.442 697.979 276.931 698.875 276.931 699.964C276.931 700.932 277.283 701.696 277.987 702.257C278.691 702.818 279.791 703.286 281.287 703.66L285.049 704.584C287.315 705.134 289.003 705.975 290.114 707.108C291.225 708.23 291.78 709.677 291.78 711.448C291.78 712.9 291.362 714.198 290.526 715.341C289.702 716.485 288.547 717.387 287.062 718.047C285.577 718.707 283.85 719.037 281.881 719.037C279.296 719.037 277.156 718.476 275.462 717.354C273.769 716.232 272.696 714.594 272.245 712.438L275.941 711.514C276.293 712.878 276.958 713.901 277.937 714.583C278.927 715.264 280.22 715.605 281.815 715.605C283.63 715.605 285.071 715.22 286.138 714.451C287.216 713.67 287.755 712.735 287.755 711.646C287.755 710.766 287.447 710.029 286.831 709.435C286.215 708.83 285.269 708.379 283.993 708.082L279.769 707.092C277.448 706.542 275.743 705.689 274.654 704.534C273.576 703.368 273.037 701.911 273.037 700.162C273.037 698.732 273.439 697.467 274.242 696.367C275.055 695.267 276.161 694.404 277.558 693.777C278.966 693.15 280.561 692.836 282.343 692.836C284.851 692.836 286.82 693.386 288.25 694.486C289.691 695.586 290.713 697.038 291.318 698.842Z" fill="#45556C"/>
<path d="M304.601 719.103C302.995 719.103 301.537 718.801 300.228 718.196C298.919 717.58 297.88 716.694 297.11 715.539C296.34 714.374 295.955 712.966 295.955 711.316C295.955 709.864 296.241 708.687 296.813 707.785C297.385 706.872 298.149 706.157 299.106 705.64C300.063 705.123 301.119 704.738 302.274 704.485C303.44 704.221 304.612 704.012 305.788 703.858C307.328 703.66 308.577 703.511 309.534 703.412C310.502 703.302 311.206 703.121 311.646 702.868C312.097 702.615 312.322 702.175 312.322 701.548V701.416C312.322 699.788 311.877 698.523 310.986 697.621C310.106 696.719 308.769 696.268 306.976 696.268C305.118 696.268 303.66 696.675 302.604 697.489C301.548 698.303 300.806 699.172 300.377 700.096L296.681 698.776C297.341 697.236 298.221 696.037 299.321 695.179C300.432 694.31 301.642 693.705 302.951 693.364C304.271 693.012 305.569 692.836 306.844 692.836C307.658 692.836 308.593 692.935 309.649 693.133C310.716 693.32 311.745 693.711 312.735 694.305C313.736 694.899 314.566 695.795 315.226 696.994C315.886 698.193 316.216 699.799 316.216 701.812V718.509H312.322V715.077H312.124C311.86 715.627 311.42 716.216 310.804 716.843C310.188 717.47 309.369 718.003 308.346 718.443C307.323 718.883 306.074 719.103 304.601 719.103ZM305.195 715.605C306.734 715.605 308.032 715.303 309.088 714.698C310.155 714.093 310.958 713.312 311.497 712.355C312.047 711.398 312.322 710.392 312.322 709.336V705.772C312.157 705.97 311.794 706.151 311.233 706.316C310.683 706.47 310.045 706.608 309.319 706.729C308.604 706.839 307.906 706.938 307.224 707.026C306.553 707.103 306.008 707.169 305.591 707.224C304.579 707.356 303.633 707.57 302.753 707.867C301.884 708.153 301.18 708.588 300.641 709.171C300.113 709.743 299.849 710.524 299.849 711.514C299.849 712.867 300.349 713.89 301.35 714.583C302.362 715.264 303.644 715.605 305.195 715.605Z" fill="#45556C"/>
<path d="M334.11 693.166V696.466H320.448V693.166H334.11ZM324.54 718.509V689.668C324.54 688.216 324.881 687.006 325.563 686.038C326.245 685.07 327.131 684.344 328.22 683.861C329.308 683.377 330.458 683.135 331.668 683.135C332.625 683.135 333.406 683.212 334.011 683.366C334.616 683.52 335.067 683.663 335.364 683.795L334.242 687.16C334.044 687.094 333.769 687.012 333.417 686.913C333.076 686.814 332.625 686.764 332.064 686.764C330.777 686.764 329.847 687.089 329.275 687.738C328.714 688.387 328.434 689.338 328.434 690.592V718.509H324.54Z" fill="#45556C"/>
<path d="M348.65 719.037C346.208 719.037 344.102 718.498 342.331 717.42C340.571 716.331 339.212 714.814 338.255 712.867C337.309 710.909 336.836 708.632 336.836 706.036C336.836 703.44 337.309 701.152 338.255 699.172C339.212 697.181 340.543 695.63 342.248 694.519C343.964 693.397 345.966 692.836 348.254 692.836C349.574 692.836 350.877 693.056 352.164 693.496C353.451 693.936 354.623 694.651 355.679 695.641C356.735 696.62 357.576 697.918 358.203 699.535C358.83 701.152 359.144 703.143 359.144 705.508V707.158H339.608V703.792H355.184C355.184 702.362 354.898 701.086 354.326 699.964C353.765 698.842 352.962 697.957 351.917 697.308C350.883 696.659 349.662 696.334 348.254 696.334C346.703 696.334 345.361 696.719 344.228 697.489C343.106 698.248 342.243 699.238 341.638 700.459C341.033 701.68 340.73 702.989 340.73 704.386V706.63C340.73 708.544 341.06 710.166 341.72 711.497C342.391 712.817 343.321 713.824 344.509 714.517C345.697 715.198 347.077 715.539 348.65 715.539C349.673 715.539 350.597 715.396 351.422 715.111C352.258 714.814 352.978 714.374 353.583 713.791C354.188 713.197 354.656 712.46 354.986 711.58L358.748 712.636C358.352 713.912 357.686 715.034 356.751 716.001C355.816 716.958 354.661 717.706 353.286 718.245C351.911 718.773 350.366 719.037 348.65 719.037Z" fill="#45556C"/>
<path d="M375.59 693.166V696.466H362.456V693.166H375.59ZM366.284 687.094H370.178V711.25C370.178 712.35 370.337 713.175 370.656 713.725C370.986 714.264 371.404 714.627 371.91 714.814C372.427 714.99 372.972 715.077 373.544 715.077C373.973 715.077 374.325 715.055 374.6 715.011C374.875 714.957 375.095 714.913 375.26 714.88L376.051 718.377C375.788 718.476 375.419 718.575 374.946 718.674C374.473 718.784 373.874 718.839 373.148 718.839C372.048 718.839 370.97 718.603 369.914 718.13C368.869 717.657 368 716.936 367.307 715.968C366.625 715.001 366.284 713.78 366.284 712.306V687.094Z" fill="#45556C"/>
<path d="M383.456 728.013C382.796 728.013 382.207 727.958 381.69 727.848C381.173 727.749 380.816 727.65 380.618 727.551L381.608 724.119C382.554 724.361 383.39 724.449 384.116 724.383C384.842 724.317 385.485 723.993 386.046 723.41C386.618 722.838 387.141 721.908 387.613 720.621L388.339 718.641L378.968 693.166H383.192L390.187 713.362H390.451L397.447 693.166H401.671L390.913 722.205C390.429 723.514 389.83 724.598 389.115 725.456C388.4 726.325 387.569 726.968 386.624 727.386C385.689 727.804 384.633 728.013 383.456 728.013Z" fill="#45556C"/>
<path d="M410.531 713.89L410.267 715.671C410.08 716.925 409.794 718.267 409.409 719.697C409.035 721.127 408.645 722.475 408.238 723.74C407.831 725.005 407.495 726.011 407.231 726.759H404.261C404.404 726.055 404.591 725.126 404.822 723.971C405.053 722.816 405.284 721.523 405.515 720.093C405.757 718.674 405.955 717.222 406.109 715.737L406.307 713.89H410.531Z" fill="#45556C"/>
<path d="M437.273 719.103C435.667 719.103 434.209 718.801 432.9 718.196C431.591 717.58 430.552 716.694 429.782 715.539C429.012 714.374 428.627 712.966 428.627 711.316C428.627 709.864 428.913 708.687 429.485 707.785C430.057 706.872 430.821 706.157 431.778 705.64C432.735 705.123 433.791 704.738 434.946 704.485C436.112 704.221 437.284 704.012 438.461 703.858C440.001 703.66 441.249 703.511 442.206 703.412C443.174 703.302 443.878 703.121 444.318 702.868C444.769 702.615 444.995 702.175 444.995 701.548V701.416C444.995 699.788 444.549 698.523 443.658 697.621C442.778 696.719 441.442 696.268 439.649 696.268C437.79 696.268 436.332 696.675 435.276 697.489C434.22 698.303 433.478 699.172 433.049 700.096L429.353 698.776C430.013 697.236 430.893 696.037 431.993 695.179C433.104 694.31 434.314 693.705 435.623 693.364C436.943 693.012 438.241 692.836 439.517 692.836C440.331 692.836 441.266 692.935 442.322 693.133C443.389 693.32 444.417 693.711 445.407 694.305C446.408 694.899 447.238 695.795 447.898 696.994C448.558 698.193 448.888 699.799 448.888 701.812V718.509H444.995V715.077H444.797C444.533 715.627 444.093 716.216 443.477 716.843C442.861 717.47 442.041 718.003 441.018 718.443C439.995 718.883 438.747 719.103 437.273 719.103ZM437.867 715.605C439.407 715.605 440.705 715.303 441.761 714.698C442.828 714.093 443.631 713.312 444.17 712.355C444.72 711.398 444.995 710.392 444.995 709.336V705.772C444.83 705.97 444.467 706.151 443.906 706.316C443.356 706.47 442.718 706.608 441.992 706.729C441.277 706.839 440.578 706.938 439.896 707.026C439.225 707.103 438.681 707.169 438.263 707.224C437.251 707.356 436.305 707.57 435.425 707.867C434.556 708.153 433.852 708.588 433.313 709.171C432.785 709.743 432.521 710.524 432.521 711.514C432.521 712.867 433.021 713.89 434.022 714.583C435.034 715.264 436.316 715.605 437.867 715.605Z" fill="#45556C"/>
<path d="M465.792 719.037C463.416 719.037 461.37 718.476 459.654 717.354C457.938 716.232 456.618 714.687 455.694 712.718C454.77 710.749 454.308 708.5 454.308 705.97C454.308 703.396 454.781 701.124 455.727 699.156C456.684 697.176 458.015 695.63 459.72 694.519C461.436 693.397 463.438 692.836 465.726 692.836C467.508 692.836 469.114 693.166 470.544 693.826C471.974 694.486 473.145 695.41 474.058 696.598C474.971 697.786 475.538 699.172 475.758 700.756H471.864C471.567 699.601 470.907 698.578 469.884 697.687C468.872 696.785 467.508 696.334 465.792 696.334C464.274 696.334 462.943 696.73 461.799 697.522C460.666 698.303 459.781 699.409 459.143 700.838C458.516 702.257 458.202 703.924 458.202 705.838C458.202 707.796 458.51 709.501 459.126 710.953C459.753 712.405 460.633 713.532 461.766 714.335C462.91 715.138 464.252 715.539 465.792 715.539C466.804 715.539 467.723 715.363 468.548 715.011C469.372 714.66 470.071 714.154 470.643 713.494C471.215 712.834 471.622 712.042 471.864 711.118H475.758C475.538 712.614 474.993 713.961 474.124 715.16C473.266 716.348 472.128 717.294 470.709 717.998C469.301 718.691 467.662 719.037 465.792 719.037Z" fill="#45556C"/>
<path d="M491.247 719.037C488.871 719.037 486.825 718.476 485.109 717.354C483.393 716.232 482.073 714.687 481.149 712.718C480.225 710.749 479.763 708.5 479.763 705.97C479.763 703.396 480.236 701.124 481.182 699.156C482.139 697.176 483.47 695.63 485.175 694.519C486.891 693.397 488.893 692.836 491.181 692.836C492.963 692.836 494.569 693.166 495.998 693.826C497.428 694.486 498.6 695.41 499.513 696.598C500.426 697.786 500.992 699.172 501.212 700.756H497.318C497.021 699.601 496.361 698.578 495.339 697.687C494.327 696.785 492.963 696.334 491.247 696.334C489.729 696.334 488.398 696.73 487.254 697.522C486.121 698.303 485.235 699.409 484.597 700.838C483.97 702.257 483.657 703.924 483.657 705.838C483.657 707.796 483.965 709.501 484.581 710.953C485.208 712.405 486.088 713.532 487.221 714.335C488.365 715.138 489.707 715.539 491.247 715.539C492.259 715.539 493.177 715.363 494.002 715.011C494.827 714.66 495.526 714.154 496.097 713.494C496.669 712.834 497.076 712.042 497.318 711.118H501.212C500.992 712.614 500.448 713.961 499.579 715.16C498.721 716.348 497.582 717.294 496.163 717.998C494.756 718.691 493.117 719.037 491.247 719.037Z" fill="#45556C"/>
<path d="M522.377 708.148V693.166H526.271V718.509H522.377V714.22H522.113C521.519 715.506 520.595 716.601 519.341 717.503C518.087 718.394 516.503 718.839 514.589 718.839C513.005 718.839 511.597 718.493 510.365 717.8C509.133 717.096 508.165 716.04 507.461 714.632C506.758 713.213 506.406 711.426 506.406 709.27V693.166H510.299V709.006C510.299 710.854 510.816 712.328 511.85 713.428C512.895 714.528 514.226 715.077 515.843 715.077C516.811 715.077 517.796 714.83 518.797 714.335C519.809 713.84 520.656 713.081 521.338 712.058C522.031 711.035 522.377 709.732 522.377 708.148Z" fill="#45556C"/>
<path d="M532.904 718.509V693.166H536.666V696.994H536.93C537.392 695.74 538.228 694.723 539.437 693.942C540.647 693.161 542.011 692.77 543.529 692.77C543.815 692.77 544.173 692.776 544.602 692.787C545.031 692.798 545.355 692.814 545.575 692.836V696.796C545.443 696.763 545.141 696.714 544.668 696.648C544.206 696.571 543.716 696.532 543.199 696.532C541.967 696.532 540.867 696.791 539.899 697.308C538.942 697.814 538.184 698.518 537.623 699.419C537.073 700.31 536.798 701.328 536.798 702.472V718.509H532.904Z" fill="#45556C"/>
<path d="M557.15 719.103C555.544 719.103 554.086 718.801 552.777 718.196C551.468 717.58 550.429 716.694 549.659 715.539C548.889 714.374 548.504 712.966 548.504 711.316C548.504 709.864 548.79 708.687 549.362 707.785C549.934 706.872 550.698 706.157 551.655 705.64C552.612 705.123 553.668 704.738 554.823 704.485C555.989 704.221 557.161 704.012 558.338 703.858C559.878 703.66 561.126 703.511 562.083 703.412C563.051 703.302 563.755 703.121 564.195 702.868C564.646 702.615 564.871 702.175 564.871 701.548V701.416C564.871 699.788 564.426 698.523 563.535 697.621C562.655 696.719 561.318 696.268 559.526 696.268C557.667 696.268 556.209 696.675 555.153 697.489C554.097 698.303 553.355 699.172 552.926 700.096L549.23 698.776C549.89 697.236 550.77 696.037 551.87 695.179C552.981 694.31 554.191 693.705 555.5 693.364C556.82 693.012 558.118 692.836 559.394 692.836C560.208 692.836 561.143 692.935 562.198 693.133C563.265 693.32 564.294 693.711 565.284 694.305C566.285 694.899 567.115 695.795 567.775 696.994C568.435 698.193 568.765 699.799 568.765 701.812V718.509H564.871V715.077H564.673C564.409 715.627 563.969 716.216 563.353 716.843C562.737 717.47 561.918 718.003 560.895 718.443C559.872 718.883 558.624 719.103 557.15 719.103ZM557.744 715.605C559.284 715.605 560.582 715.303 561.637 714.698C562.704 714.093 563.507 713.312 564.046 712.355C564.596 711.398 564.871 710.392 564.871 709.336V705.772C564.706 705.97 564.343 706.151 563.782 706.316C563.232 706.47 562.594 706.608 561.869 706.729C561.154 706.839 560.455 706.938 559.773 707.026C559.102 707.103 558.558 707.169 558.14 707.224C557.128 707.356 556.182 707.57 555.302 707.867C554.433 708.153 553.729 708.588 553.19 709.171C552.662 709.743 552.398 710.524 552.398 711.514C552.398 712.867 552.898 713.89 553.899 714.583C554.911 715.264 556.193 715.605 557.744 715.605Z" fill="#45556C"/>
<path d="M585.669 719.037C583.293 719.037 581.247 718.476 579.531 717.354C577.815 716.232 576.495 714.687 575.571 712.718C574.647 710.749 574.185 708.5 574.185 705.97C574.185 703.396 574.658 701.124 575.604 699.156C576.561 697.176 577.892 695.63 579.597 694.519C581.313 693.397 583.315 692.836 585.603 692.836C587.385 692.836 588.991 693.166 590.421 693.826C591.851 694.486 593.022 695.41 593.935 696.598C594.848 697.786 595.415 699.172 595.635 700.756H591.741C591.444 699.601 590.784 698.578 589.761 697.687C588.749 696.785 587.385 696.334 585.669 696.334C584.151 696.334 582.82 696.73 581.676 697.522C580.543 698.303 579.658 699.409 579.02 700.838C578.393 702.257 578.079 703.924 578.079 705.838C578.079 707.796 578.387 709.501 579.003 710.953C579.63 712.405 580.51 713.532 581.643 714.335C582.787 715.138 584.129 715.539 585.669 715.539C586.681 715.539 587.599 715.363 588.424 715.011C589.249 714.66 589.948 714.154 590.52 713.494C591.092 712.834 591.499 712.042 591.741 711.118H595.635C595.415 712.614 594.87 713.961 594.001 715.16C593.143 716.348 592.005 717.294 590.586 717.998C589.178 718.691 587.539 719.037 585.669 719.037Z" fill="#45556C"/>
<path d="M603.336 728.013C602.676 728.013 602.087 727.958 601.57 727.848C601.053 727.749 600.696 727.65 600.498 727.551L601.488 724.119C602.434 724.361 603.27 724.449 603.996 724.383C604.722 724.317 605.365 723.993 605.926 723.41C606.498 722.838 607.021 721.908 607.494 720.621L608.22 718.641L598.848 693.166H603.072L610.068 713.362H610.332L617.327 693.166H621.551L610.794 722.205C610.31 723.514 609.71 724.598 608.995 725.456C608.28 726.325 607.45 726.968 606.504 727.386C605.569 727.804 604.513 728.013 603.336 728.013Z" fill="#45556C"/>
<path d="M630.411 713.89L630.147 715.671C629.96 716.925 629.674 718.267 629.289 719.697C628.915 721.127 628.525 722.475 628.118 723.74C627.711 725.005 627.375 726.011 627.112 726.759H624.142C624.285 726.055 624.472 725.126 624.703 723.971C624.934 722.816 625.165 721.523 625.396 720.093C625.638 718.674 625.836 717.222 625.99 715.737L626.188 713.89H630.411Z" fill="#45556C"/>
<path d="M657.153 719.103C655.547 719.103 654.09 718.801 652.781 718.196C651.472 717.58 650.432 716.694 649.662 715.539C648.892 714.374 648.507 712.966 648.507 711.316C648.507 709.864 648.793 708.687 649.365 707.785C649.937 706.872 650.702 706.157 651.659 705.64C652.616 705.123 653.672 704.738 654.826 704.485C655.992 704.221 657.164 704.012 658.341 703.858C659.881 703.66 661.129 703.511 662.086 703.412C663.054 703.302 663.758 703.121 664.198 702.868C664.649 702.615 664.875 702.175 664.875 701.548V701.416C664.875 699.788 664.429 698.523 663.538 697.621C662.658 696.719 661.322 696.268 659.529 696.268C657.67 696.268 656.212 696.675 655.157 697.489C654.101 698.303 653.358 699.172 652.929 700.096L649.233 698.776C649.893 697.236 650.773 696.037 651.873 695.179C652.984 694.31 654.194 693.705 655.503 693.364C656.823 693.012 658.121 692.836 659.397 692.836C660.211 692.836 661.146 692.935 662.202 693.133C663.269 693.32 664.297 693.711 665.287 694.305C666.288 694.899 667.119 695.795 667.779 696.994C668.439 698.193 668.769 699.799 668.769 701.812V718.509H664.875V715.077H664.677C664.413 715.627 663.973 716.216 663.357 716.843C662.741 717.47 661.921 718.003 660.898 718.443C659.875 718.883 658.627 719.103 657.153 719.103ZM657.747 715.605C659.287 715.605 660.585 715.303 661.641 714.698C662.708 714.093 663.511 713.312 664.05 712.355C664.6 711.398 664.875 710.392 664.875 709.336V705.772C664.71 705.97 664.347 706.151 663.786 706.316C663.236 706.47 662.598 706.608 661.872 706.729C661.157 706.839 660.458 706.938 659.776 707.026C659.105 707.103 658.561 707.169 658.143 707.224C657.131 707.356 656.185 707.57 655.305 707.867C654.436 708.153 653.732 708.588 653.193 709.171C652.665 709.743 652.401 710.524 652.401 711.514C652.401 712.867 652.902 713.89 653.903 714.583C654.914 715.264 656.196 715.605 657.747 715.605Z" fill="#45556C"/>
<path d="M679.27 703.264V718.509H675.377V693.166H679.138V697.126H679.468C680.062 695.839 680.964 694.805 682.174 694.024C683.384 693.232 684.946 692.836 686.86 692.836C688.576 692.836 690.078 693.188 691.365 693.892C692.652 694.585 693.653 695.641 694.367 697.06C695.082 698.468 695.44 700.25 695.44 702.406V718.509H691.546V702.67C691.546 700.679 691.029 699.128 689.995 698.017C688.961 696.895 687.542 696.334 685.738 696.334C684.495 696.334 683.384 696.604 682.405 697.143C681.437 697.682 680.673 698.468 680.112 699.502C679.551 700.536 679.27 701.79 679.27 703.264Z" fill="#45556C"/>
<path d="M711.626 719.037C709.514 719.037 707.65 718.504 706.033 717.437C704.416 716.359 703.151 714.841 702.238 712.883C701.325 710.914 700.868 708.588 700.868 705.904C700.868 703.242 701.325 700.932 702.238 698.974C703.151 697.016 704.421 695.504 706.049 694.437C707.677 693.37 709.558 692.836 711.692 692.836C713.342 692.836 714.645 693.111 715.602 693.661C716.57 694.2 717.307 694.816 717.813 695.509C718.33 696.191 718.732 696.752 719.018 697.192H719.348V684.718H723.242V718.509H719.48V714.616H719.018C718.732 715.078 718.325 715.66 717.797 716.364C717.269 717.057 716.515 717.679 715.536 718.229C714.557 718.768 713.254 719.037 711.626 719.037ZM712.154 715.539C713.716 715.539 715.036 715.133 716.114 714.319C717.192 713.494 718.011 712.355 718.572 710.903C719.133 709.44 719.414 707.752 719.414 705.838C719.414 703.946 719.139 702.29 718.589 700.871C718.039 699.441 717.225 698.331 716.147 697.539C715.069 696.736 713.738 696.334 712.154 696.334C710.504 696.334 709.129 696.758 708.029 697.605C706.94 698.441 706.121 699.579 705.571 701.02C705.032 702.45 704.762 704.056 704.762 705.838C704.762 707.642 705.037 709.281 705.587 710.755C706.148 712.218 706.973 713.384 708.062 714.253C709.162 715.111 710.526 715.539 712.154 715.539Z" fill="#45556C"/>
<path d="M125.037 785.412C122.661 785.412 120.615 784.851 118.899 783.729C117.183 782.607 115.863 781.062 114.939 779.093C114.015 777.124 113.553 774.875 113.553 772.345C113.553 769.771 114.026 767.499 114.972 765.531C115.929 763.551 117.26 762.005 118.965 760.894C120.681 759.772 122.683 759.211 124.971 759.211C126.753 759.211 128.359 759.541 129.789 760.201C131.219 760.861 132.39 761.785 133.303 762.973C134.216 764.161 134.783 765.547 135.003 767.131H131.109C130.812 765.976 130.152 764.953 129.129 764.062C128.117 763.16 126.753 762.709 125.037 762.709C123.519 762.709 122.188 763.105 121.044 763.897C119.911 764.678 119.026 765.783 118.388 767.213C117.761 768.632 117.447 770.299 117.447 772.213C117.447 774.171 117.755 775.876 118.371 777.328C118.998 778.78 119.878 779.907 121.011 780.71C122.155 781.513 123.497 781.914 125.037 781.914C126.049 781.914 126.967 781.738 127.792 781.387C128.617 781.035 129.316 780.529 129.888 779.869C130.46 779.209 130.867 778.417 131.109 777.493H135.003C134.783 778.989 134.238 780.336 133.369 781.535C132.511 782.723 131.373 783.669 129.954 784.373C128.546 785.066 126.907 785.412 125.037 785.412Z" fill="#45556C"/>
<path d="M150.491 785.412C148.203 785.412 146.196 784.868 144.469 783.779C142.753 782.69 141.411 781.167 140.443 779.209C139.486 777.251 139.008 774.963 139.008 772.345C139.008 769.705 139.486 767.4 140.443 765.432C141.411 763.463 142.753 761.934 144.469 760.845C146.196 759.756 148.203 759.211 150.491 759.211C152.779 759.211 154.781 759.756 156.497 760.845C158.224 761.934 159.566 763.463 160.523 765.432C161.491 767.4 161.975 769.705 161.975 772.345C161.975 774.963 161.491 777.251 160.523 779.209C159.566 781.167 158.224 782.69 156.497 783.779C154.781 784.868 152.779 785.412 150.491 785.412ZM150.491 781.914C152.229 781.914 153.659 781.469 154.781 780.578C155.903 779.687 156.734 778.516 157.273 777.064C157.812 775.612 158.081 774.039 158.081 772.345C158.081 770.651 157.812 769.072 157.273 767.609C156.734 766.147 155.903 764.964 154.781 764.062C153.659 763.16 152.229 762.709 150.491 762.709C148.753 762.709 147.323 763.16 146.202 764.062C145.08 764.964 144.249 766.147 143.71 767.609C143.171 769.072 142.902 770.651 142.902 772.345C142.902 774.039 143.171 775.612 143.71 777.064C144.249 778.516 145.08 779.687 146.202 780.578C147.323 781.469 148.753 781.914 150.491 781.914Z" fill="#45556C"/>
<path d="M167.42 784.884V759.541H171.182V763.501H171.512C172.04 762.148 172.892 761.098 174.069 760.35C175.246 759.591 176.66 759.211 178.309 759.211C179.981 759.211 181.373 759.591 182.484 760.35C183.606 761.098 184.48 762.148 185.107 763.501H185.371C186.02 762.192 186.994 761.153 188.292 760.383C189.59 759.602 191.146 759.211 192.961 759.211C195.227 759.211 197.08 759.921 198.521 761.34C199.962 762.748 200.683 764.942 200.683 767.923V784.884H196.789V767.923C196.789 766.053 196.277 764.717 195.254 763.914C194.231 763.111 193.027 762.709 191.641 762.709C189.859 762.709 188.479 763.248 187.5 764.326C186.521 765.393 186.031 766.746 186.031 768.385V784.884H182.071V767.527C182.071 766.086 181.604 764.926 180.669 764.046C179.734 763.155 178.529 762.709 177.056 762.709C176.044 762.709 175.098 762.979 174.218 763.518C173.349 764.057 172.645 764.805 172.106 765.761C171.578 766.707 171.314 767.802 171.314 769.045V784.884H167.42Z" fill="#45556C"/>
<path d="M207.303 794.388V759.541H211.065V763.567H211.527C211.813 763.127 212.209 762.566 212.715 761.884C213.232 761.191 213.969 760.575 214.926 760.036C215.894 759.486 217.203 759.211 218.853 759.211C220.987 759.211 222.868 759.745 224.496 760.812C226.124 761.879 227.394 763.391 228.307 765.349C229.22 767.307 229.676 769.617 229.676 772.279C229.676 774.963 229.22 777.289 228.307 779.258C227.394 781.216 226.129 782.734 224.512 783.812C222.895 784.879 221.031 785.412 218.919 785.412C217.291 785.412 215.987 785.143 215.008 784.604C214.029 784.054 213.276 783.432 212.748 782.739C212.22 782.035 211.813 781.453 211.527 780.991H211.197V794.388H207.303ZM211.131 772.213C211.131 774.127 211.412 775.815 211.973 777.278C212.534 778.73 213.353 779.869 214.431 780.694C215.509 781.507 216.829 781.914 218.391 781.914C220.019 781.914 221.377 781.486 222.466 780.628C223.566 779.759 224.391 778.593 224.941 777.13C225.502 775.656 225.783 774.017 225.783 772.213C225.783 770.431 225.508 768.825 224.958 767.395C224.419 765.954 223.599 764.816 222.499 763.98C221.41 763.133 220.041 762.709 218.391 762.709C216.807 762.709 215.476 763.111 214.398 763.914C213.32 764.706 212.506 765.817 211.956 767.246C211.406 768.665 211.131 770.321 211.131 772.213Z" fill="#45556C"/>
<path d="M239.011 751.093V784.884H235.117V751.093H239.011Z" fill="#45556C"/>
<path d="M245.644 784.884V759.541H249.538V784.884H245.644ZM247.624 755.317C246.865 755.317 246.21 755.059 245.66 754.542C245.121 754.025 244.852 753.403 244.852 752.677C244.852 751.951 245.121 751.33 245.66 750.813C246.21 750.296 246.865 750.038 247.624 750.038C248.383 750.038 249.032 750.296 249.571 750.813C250.121 751.33 250.396 751.951 250.396 752.677C250.396 753.403 250.121 754.025 249.571 754.542C249.032 755.059 248.383 755.317 247.624 755.317Z" fill="#45556C"/>
<path d="M263.628 785.478C262.022 785.478 260.565 785.176 259.256 784.571C257.947 783.955 256.907 783.069 256.137 781.914C255.368 780.749 254.983 779.341 254.983 777.691C254.983 776.239 255.269 775.062 255.84 774.16C256.412 773.247 257.177 772.532 258.134 772.015C259.091 771.498 260.147 771.113 261.302 770.86C262.468 770.596 263.639 770.387 264.816 770.233C266.356 770.035 267.605 769.886 268.562 769.787C269.53 769.677 270.234 769.496 270.674 769.243C271.124 768.99 271.35 768.55 271.35 767.923V767.791C271.35 766.163 270.904 764.898 270.014 763.996C269.134 763.094 267.797 762.643 266.004 762.643C264.145 762.643 262.688 763.05 261.632 763.864C260.576 764.678 259.833 765.547 259.404 766.471L255.708 765.151C256.368 763.611 257.248 762.412 258.348 761.554C259.459 760.685 260.669 760.08 261.978 759.739C263.298 759.387 264.596 759.211 265.872 759.211C266.686 759.211 267.621 759.31 268.677 759.508C269.744 759.695 270.773 760.086 271.762 760.68C272.763 761.274 273.594 762.17 274.254 763.369C274.914 764.568 275.244 766.174 275.244 768.187V784.884H271.35V781.453H271.152C270.888 782.002 270.448 782.591 269.832 783.218C269.216 783.845 268.397 784.378 267.374 784.818C266.351 785.258 265.102 785.478 263.628 785.478ZM264.222 781.98C265.762 781.98 267.06 781.678 268.116 781.073C269.183 780.468 269.986 779.687 270.525 778.73C271.075 777.773 271.35 776.767 271.35 775.711V772.147C271.185 772.345 270.822 772.526 270.261 772.691C269.711 772.845 269.073 772.983 268.347 773.104C267.632 773.214 266.934 773.313 266.252 773.401C265.581 773.478 265.036 773.544 264.618 773.599C263.606 773.731 262.66 773.945 261.78 774.242C260.911 774.528 260.207 774.963 259.668 775.546C259.14 776.118 258.876 776.899 258.876 777.889C258.876 779.242 259.377 780.265 260.378 780.958C261.39 781.64 262.671 781.98 264.222 781.98Z" fill="#45556C"/>
<path d="M285.746 769.639V784.884H281.852V759.541H285.614V763.501H285.944C286.538 762.214 287.44 761.18 288.65 760.399C289.86 759.607 291.422 759.211 293.336 759.211C295.051 759.211 296.553 759.563 297.84 760.267C299.127 760.96 300.128 762.016 300.843 763.435C301.558 764.843 301.915 766.625 301.915 768.781V784.884H298.021V769.045C298.021 767.054 297.504 765.503 296.47 764.392C295.436 763.27 294.018 762.709 292.214 762.709C290.971 762.709 289.86 762.979 288.881 763.518C287.913 764.057 287.148 764.843 286.587 765.877C286.026 766.911 285.746 768.165 285.746 769.639Z" fill="#45556C"/>
<path d="M318.827 785.412C316.451 785.412 314.405 784.851 312.689 783.729C310.973 782.607 309.654 781.062 308.73 779.093C307.806 777.124 307.344 774.875 307.344 772.345C307.344 769.771 307.817 767.499 308.763 765.531C309.719 763.551 311.05 762.005 312.755 760.894C314.471 759.772 316.473 759.211 318.761 759.211C320.543 759.211 322.149 759.541 323.579 760.201C325.009 760.861 326.18 761.785 327.093 762.973C328.006 764.161 328.573 765.547 328.793 767.131H324.899C324.602 765.976 323.942 764.953 322.919 764.062C321.907 763.16 320.543 762.709 318.827 762.709C317.309 762.709 315.978 763.105 314.834 763.897C313.701 764.678 312.816 765.783 312.178 767.213C311.551 768.632 311.237 770.299 311.237 772.213C311.237 774.171 311.545 775.876 312.161 777.328C312.788 778.78 313.668 779.907 314.801 780.71C315.945 781.513 317.287 781.914 318.827 781.914C319.839 781.914 320.758 781.738 321.583 781.387C322.408 781.035 323.106 780.529 323.678 779.869C324.25 779.209 324.657 778.417 324.899 777.493H328.793C328.573 778.989 328.028 780.336 327.159 781.535C326.301 782.723 325.163 783.669 323.744 784.373C322.336 785.066 320.697 785.412 318.827 785.412Z" fill="#45556C"/>
<path d="M344.612 785.412C342.17 785.412 340.063 784.873 338.292 783.795C336.533 782.706 335.174 781.189 334.217 779.242C333.271 777.284 332.798 775.007 332.798 772.411C332.798 769.815 333.271 767.527 334.217 765.547C335.174 763.556 336.505 762.005 338.21 760.894C339.926 759.772 341.928 759.211 344.216 759.211C345.536 759.211 346.839 759.431 348.126 759.871C349.413 760.311 350.585 761.026 351.641 762.016C352.696 762.995 353.538 764.293 354.165 765.91C354.792 767.527 355.105 769.518 355.105 771.883V773.533H335.57V770.167H351.146C351.146 768.737 350.86 767.461 350.288 766.339C349.727 765.217 348.924 764.332 347.879 763.683C346.845 763.034 345.624 762.709 344.216 762.709C342.665 762.709 341.323 763.094 340.19 763.864C339.068 764.623 338.204 765.613 337.599 766.834C336.994 768.055 336.692 769.364 336.692 770.761V773.005C336.692 774.919 337.022 776.541 337.682 777.872C338.353 779.192 339.282 780.199 340.47 780.892C341.658 781.573 343.039 781.914 344.612 781.914C345.635 781.914 346.559 781.771 347.384 781.486C348.22 781.189 348.94 780.749 349.545 780.166C350.15 779.572 350.618 778.835 350.948 777.955L354.709 779.011C354.313 780.287 353.648 781.408 352.713 782.376C351.778 783.333 350.623 784.081 349.248 784.62C347.873 785.148 346.328 785.412 344.612 785.412Z" fill="#45556C"/>
<path d="M363.368 785.148C362.554 785.148 361.855 784.857 361.272 784.274C360.689 783.691 360.398 782.992 360.398 782.178C360.398 781.365 360.689 780.666 361.272 780.083C361.855 779.5 362.554 779.209 363.368 779.209C364.181 779.209 364.88 779.5 365.463 780.083C366.046 780.666 366.337 781.365 366.337 782.178C366.337 782.717 366.2 783.212 365.925 783.663C365.661 784.114 365.303 784.477 364.852 784.752C364.412 785.016 363.917 785.148 363.368 785.148Z" fill="#45556C"/>
<path d="M107.859 33.1875C107.859 14.8586 122.718 0 141.047 0H180.872C199.201 0 214.059 14.8585 214.059 33.1875V73.0125C214.059 91.3414 199.201 106.2 180.872 106.2H141.047C122.718 106.2 107.859 91.3414 107.859 73.0125V33.1875Z" fill="#6DA9C6"/>
<path d="M160.911 72.9371C158.196 72.9371 155.782 72.472 153.67 71.5417C151.571 70.6114 149.912 69.3166 148.692 67.6573C147.473 65.9979 146.825 64.0808 146.75 61.906H153.84C153.903 62.9494 154.249 63.8608 154.877 64.6402C155.506 65.407 156.342 66.0042 157.385 66.4316C158.428 66.859 159.598 67.0727 160.892 67.0727C162.275 67.0727 163.501 66.8339 164.569 66.3562C165.638 65.8659 166.474 65.1871 167.077 64.3197C167.681 63.4523 167.976 62.4529 167.964 61.3215C167.976 60.1524 167.674 59.1215 167.058 58.229C166.443 57.3364 165.55 56.6388 164.381 56.1359C163.224 55.6331 161.829 55.3817 160.195 55.3817H156.782V49.9887H160.195C161.54 49.9887 162.715 49.7561 163.721 49.291C164.739 48.8259 165.537 48.1722 166.116 47.3299C166.694 46.4751 166.977 45.4883 166.964 44.3694C166.977 43.2758 166.732 42.3266 166.229 41.5221C165.739 40.705 165.041 40.0701 164.136 39.6176C163.243 39.165 162.194 38.9388 160.987 38.9388C159.805 38.9388 158.711 39.1525 157.706 39.5799C156.7 40.0073 155.889 40.617 155.273 41.409C154.657 42.1884 154.33 43.1186 154.293 44.1997H147.561C147.611 42.0375 148.233 40.1393 149.428 38.5051C150.634 36.8583 152.244 35.576 154.255 34.6583C156.266 33.7281 158.523 33.2629 161.024 33.2629C163.601 33.2629 165.839 33.7469 167.737 34.7149C169.648 35.6703 171.125 36.9588 172.169 38.5805C173.212 40.2021 173.734 41.9935 173.734 43.9546C173.746 46.1294 173.105 47.9522 171.81 49.423C170.528 50.8938 168.844 51.8555 166.757 52.308V52.6097C169.472 52.9869 171.553 53.9926 172.998 55.6268C174.457 57.2485 175.179 59.2661 175.167 61.6797C175.167 63.842 174.551 65.7779 173.319 67.4875C172.099 69.1846 170.415 70.5172 168.265 71.4851C166.128 72.4531 163.677 72.9371 160.911 72.9371Z" fill="white"/>
</svg>
