<svg width="64" height="64" viewBox="0 0 64 64" fill="none" xmlns="http://www.w3.org/2000/svg">
<path d="M0 16C0 7.16344 7.16344 0 16 0H48C56.8366 0 64 7.16344 64 16V48C64 56.8366 56.8366 64 48 64H16C7.16344 64 0 56.8366 0 48V16Z" fill="#6DA9C6"/>
<path d="M35.6 24.4C35.3557 24.6492 35.2188 24.9843 35.2188 25.3333C35.2188 25.6823 35.3557 26.0174 35.6 26.2667L37.7333 28.4C37.9825 28.6443 38.3176 28.7811 38.6666 28.7811C39.0156 28.7811 39.3507 28.6443 39.6 28.4L43.7413 24.26C44.168 23.8307 44.892 23.9667 45.052 24.5507C45.4548 26.0158 45.4321 27.5654 44.9863 29.0181C44.5406 30.4708 43.6904 31.7665 42.5352 32.7536C41.3799 33.7408 39.9674 34.3785 38.463 34.5921C36.9585 34.8057 35.4244 34.5865 34.04 33.96L23.4933 44.5067C22.9629 45.0369 22.2435 45.3347 21.4935 45.3346C20.7435 45.3345 20.0242 45.0364 19.494 44.506C18.9637 43.9756 18.6659 43.2562 18.666 42.5062C18.6661 41.7562 18.9642 41.0369 19.4946 40.5067L30.0413 29.96C29.4148 28.5756 29.1956 27.0414 29.4092 25.537C29.6229 24.0326 30.2605 22.6201 31.2477 21.4648C32.2348 20.3096 33.5305 19.4593 34.9832 19.0136C36.4359 18.5679 37.9855 18.5452 39.4506 18.948C40.0346 19.108 40.1706 19.8307 39.7426 20.26L35.6 24.4Z" stroke="white" stroke-width="2.66667" stroke-linecap="round" stroke-linejoin="round"/>
</svg>
