<svg xmlns="http://www.w3.org/2000/svg" fill="none" viewBox="0 0 2267 588">
  <g clip-path="url(#a)">
    <path fill="#A7A7A7" d="M1357 234c-9-1-13-2-23 0a64 64 0 0 0-46 57c1 4 0 7-2 10v189h-77V291l-4-16c-2-9-5-18-11-24l-8-9c-11-8-25-10-38-8-28 4-47 28-52 55l-1 201h-79V205c-2-10-1-19-1-30h65c5 0 3 16 4 18 3 7-1 16 4 29 17-27 38-44 69-51 12-3 30-2 44-2l6 1c15 4 31 12 42 22 10 9 17 21 23 33l3-1c2-7 7-10 11-16a124 124 0 0 1 69-39h37c23 4 42 15 57 32 17 20 26 47 29 73 0 5 2 9 1 14-1 3 2 5 0 9v192l-78 1V307c2-5 0-9-1-13-2-26-14-55-43-60Z"/>
    <path fill="silver" d="M219 49c10-2 20-1 30 0h14c1 1 5 2 8 1 4 0 7 0 10 2 18 1 41 7 57 15l-14 64-6-3-8-3-13-3-9-2c-3-2-15-2-18-4h-8c-1-2-5-2-8-1h-8a114 114 0 0 0-25 0c-3-1-6-1-9 1h-7l-7 2c-2 0-4 2-7 1l-7 3a127 127 0 0 0-91 92c-2 6-6 22-6 28l-2 14v31l3 26 5 20c16 53 57 85 111 93l21 2 2 1h18l1-1h8c3 0 6 1 8-1l9-1c18-2 35-6 51-13l3 16 5 22 5 25c-12 7-25 10-37 12l-8 2-9 1c-13 3-31 4-45 4h-41c-2-2-5-2-8-1l-10-2-9-1c-37-6-75-24-104-50-34-32-55-79-61-125-1-4-3-8-2-13 1-3-1-5-1-7v-38c1-3 2-6 1-9s2-6 2-9l1-10C17 153 65 93 138 65c16-6 33-11 51-13 4-1 7-3 10-2s5 0 7-1h13Z"/>
    <path fill="#A7A7A7" d="M545 495c-4-1-7 1-10 1-16 3-24-2-28-1a148 148 0 0 1-136-124v-11c-4-10-1-22-2-36 0-5-1-11 2-16-2-4 0-7 1-11 6-34 21-65 46-89 17-16 48-31 71-36l10-1 7-2h41l12 1 7 1a148 148 0 0 1 120 134l1 41-3 20-2 10c-5 32-23 61-48 82-21 18-45 29-71 35l-8 1c-3 0-6 3-10 1Z"/>
    <path fill="#838383" d="m1699 113 4 1c15 5 26 16 34 30 10 17 17 46 13 66l-3 3c3 3 1 6-2 8l1 3c0 4-1 6-4 8 0 1 2 2 3 1l2 1v1c2 1 2 5-1 6-3 3-10 1-5-4 2-1 2-1 0 0a28523 28523 0 0 0-12 22c2 4-4 9-7 11l5 1c1 2 0 4-4 6h-7l-1 6-12 11c2 2 1 3-3 4l-11 9v5c-1 2-10 7-13 6l1 2-54 40c-9 7-17 16-24 25-5 6-8 11-10 18l-11 23 2 3c-3 14-3 28 0 42l-1 3 8 18c2 8 5 12 9 11l6-1 4 1 14 13 1 4 2 3c-5 1-8 3-11 6l-9-7-18-18a256 256 0 0 1-62-193c5-54 28-104 65-144 5-6 9-11 15-15 16-15 35-26 55-33 23-9 33-3 41-6Z"/>
    <path fill="#A7A7A7" d="m2159 495-39 1-11-2c-6 0-32-6-39-9l-8-2-15-7c-4-2-4-5-3-9l14-52c18 11 41 18 60 21l11 2h18l9-1c18-3 32-13 32-32 1-13-5-24-16-31-25-15-60-22-81-38l-8-6a81 81 0 0 1-31-49l-1-7v-18l1-8c2-15 10-29 20-41 16-19 42-32 67-36l7-2h40l30 4c12 3 24 7 35 13 3 2 1 7 0 9l-13 44-1 3-3-1c-13-6-25-12-40-14l-7-1c-3-1-6 1-9-1-5-3-11 0-17 0-14 2-29 8-33 24-3 16-1 5 0 17 2 13 24 24 35 28l23 9c15 6 30 12 43 22 18 13 31 32 35 55 3 16 3 17 0 33-6 44-43 70-84 78l-21 4Zm-1298-2c-25 4-24 1-48 2-6 1-11 0-16-1-3-1-7 1-10-2-3 1-6-1-9-1-17-3-33-9-49-17l15-53 1-3c1-1 2-2 4-1 15 9 31 14 48 18l19 3c5 2 10 0 15 1l7-2c10 0 20-4 27-10 8-7 12-20 10-30s-8-18-17-24c-12-7-25-12-39-17-30-11-62-29-75-59l-4-12-2-9v-16c-1-3 0-6 1-9a89 89 0 0 1 34-57c16-13 37-21 57-24l10-1h40l10 2c3-1 30 7 35 9 6 2 10 4 15 8l-16 54c-14-7-28-12-43-15-2 0-5 0-7-2h-10c-5-3-11 0-16 0-9 1-18 4-24 10-7 6-13 21-9 28 0 0-1 12 14 21 31 18 55 18 88 42l9 7c4 2 6 6 9 10 9 10 13 24 17 38 0 3-2 6 0 9 2 5 2 9 0 14-2 3 0 7 0 10-4 14-8 27-17 39-19 23-45 34-74 40Z"/>
    <path fill="#D11E47" d="M674 74c-2 9 3 18 12 20 12 3 27-2 34-14h34c-9 24-28 34-52 36-24 3-60 1-64-29l-6 27-33-1 4-23a59 59 0 0 1-41 26c-13 2-29 1-39-9l-9 37h-33l7-30H378L400 5h111c-1 9-4 16-4 24l30 1v9c15-13 37-15 55-8 10 4 16 12 19 23l6-24h32l-4 25c16-26 46-30 74-29 20 2 40 10 38 34l-33-1c-6-15-27-13-38-6-7 5-10 12-12 21Z"/>
    <path fill="#838383" d="M2020 384a240 240 0 0 1-76 136 122 122 0 0 1-171-118c-2-3-1-4 2-5l1-2 18-4c1 1 2 2 4 1-3-4 10-6 10-2l1 1v1c7 1 5 10 2 15 3 36 19 64 52 79 29 12 63 6 87-14 34-30 37-78 11-115 1-2 2-5 5-7v-2l15-12 2 1 9-7c1 1 2 3 1 5l1 3c11 16 19 34 21 53 0-6 1-9 5-7Z"/>
    <path fill="#717171" d="M1748 405c4-2 4 3 0 4a149 149 0 0 0 134 147c4 1 3 4-3 8l-12 5a243 243 0 0 1-121 16c1-4 6-2 7 0l1-2c14 2 27 2 40 0-52-30-92-87-97-148-2-3-2-4 0-6-1-2 1-4 3-3 0-3 1-3 3-1 2-5 10-9 15-8 0-3 2-4 5-3 0-2 1-2 4-2-1-2 2-3 3-1 0-3 5-4 7-3 0-3 3-3 5-2 0-3 2-2 4-1 1-3 2-3 2 0Z"/>
    <path fill="#7B7B7B" d="M1940 156c7 7 11 17 15 26l6 5c-2 2-2 2-1 5-2 2-1 5 0 8l2 1c4 4-1 31-4 37l-2 1c-1 1-2 3-1 4-3 6-12 16-18 19l-4-1c-1 3-3 5-7 5-4 2-8 2-11 1-2 3-6 4-8 1l-2 2c-6 0-11-1-17-3l-1-2c-3 1-7-1-11-4-5-4-9-8-12-14-2 1-3 0-5-4-2-1-4-3-4-6-2-2-2-4-2-6v-1c-7-12-11-26-14-42-3-1-4-4 0-8l-2-7 2-2c-3-12-2-15 4-10h2c16-3 31-5 47-5l12-2c12 2 24 2 36 2Z"/>
    <path fill="#000" d="m1831 145 1 2c5 0 6 10 5 13l2 11c-1 4 3 8 1 11l-2 2c-1 2 3 2 3 4 3 12 5 25 11 37 1 2 2 3 1 5-2 2-4 1-4-2-11-7-23-12-37-15-2 3-6 3-11 0h-8l-2-2-6-1c-2 1-4 2-7 1 0 5-4 4-7 2-1 3-5 3-7 0-4 3-8 3-13 1-1 2-3 1-4-1 4-26 0-53-16-75-6-9-14-16-24-21l-6-2h-2v-2l13-4c1-3 16-6 17-6l2 2c6-2 13-3 19-3h2c1-2 2-2 2 0a269 269 0 0 1 52 0c12 8 21 26 26 39l-1 4Z"/>
    <path fill="#818181" d="m1775 397-2 1c3 2 4 6 3 9-1 5 1 9 1 14 0 6 3 17 5 22a118 118 0 0 0 86 82c5 1 8 3 13 3h22l18-2c2-1 18-5 20-7 0 0 6 0 3 1-19 17-40 34-65 44 0-3 3-2 5-6a149 149 0 0 1-108-60l-8-11c-8-15-14-29-18-45l-1-9c-3-10 0-19-3-25l3-1c0-1 1-2-1-2-1-2 0-3 3-1l1-3 21-6 2 2Z"/>
    <path fill="#696969" d="M1785 86h14a243 243 0 0 1 128 54l6 7 7 9c-1 3-4 2-7 2h-18c-6-2-12-3-19 0-5 2-12-1-18 0l-11 1-20 4c-3 1-6 0-9-3-1 4 2 7 1 11-2-5-3-18-7-24-2-1-2-2-1-2-4-16-13-31-26-41-7-3-16-1-23-2h-28l1-2 16-2-3-7-3-5a87 87 0 0 1 20 0Z"/>
    <path fill="#000" d="m1626 409 1 1c0 3 0 10-3 11 2 1 2 3 1 6v17c1 7 3 19 11 20 1-3 2-4 4-3l1 1 2 1 4 9c2 1 3 3 4 6 3 0 4 1 5 4l-2 18c1 19 10 38 24 51 2 3 1 4-2 3l-30-16c-9-3-20-10-25-18l-19-18h-2c-3-1-17-18-17-22v-2c-2-2-1-5 1-8-5-5-4-18-2-25 1-7 8-30 14-34 5-4 4 7 0 9 2 3 1 7 0 10 4 0 5 3 3 9v24l4-34c1-4 2-6 5-8-1-5 1-8 6-9 3-6 7-9 12-8v5Z"/>
    <path fill="#616161" d="M1753 585h-7c-8-1-17-3-25-6l-12-5 2-2 6 2c-26-28-45-62-55-98l-4-3c-11 4-8-13-1-4l5-8c2-5 4-7 7-6 6-7 9 0 10 6 10 48 39 89 75 121 1 1 0 2-1 3Z"/>
    <path fill="#585858" d="M1709 574c-15-5-25-17-33-20l2-1a74 74 0 0 1-25-52l-2 1-1-2 2-1c2-5 1-11 3-17l-4-4c-3-5-1-7 3-4 1-1 2-2 4-1 2-1 5 0 6 3 12 38 28 68 55 97 4 5-10 1-10 1Z"/>
    <path fill="#818181" d="m2020 384-4 2c2 3 1 7 0 10-4-3-3-6-4-9-2-15-8-29-16-42-2-4-7-8-4-15v-2c1-5 5-13 10-15 4-2 4 2 3 5l16 25v-32l1-2 2 8v32l-1 13-1 13-2 9Z"/>
    <path fill="#282828" d="M2001 232c8 20 15 42 9 65l-3 1-2-2c-4-18-10-36-17-53h-3c-2 2-5 0-6-2-3-2 0-5 3-6 2-4 1-6-3-4l-2-2v-3c-1-2-2 1-3 4 4 3-4 6-4 1-2-3 3-10 6-11v-5c-1-3 4-13 7-10 8 8 14 17 18 27Z"/>
    <path fill="#767676" d="M2022 309v17c1 4 2 18 1 19-4 2-7-10-15-19s-2-10-6-13l-1-2 3-8c0-3 1-5 3-5 6-16 2-44-4-60l-2-6c12 24 20 50 21 77Z"/>
    <path fill="#D3244C" d="M652 20h-33l4-20h33l-4 20Z"/>
    <path fill="#878787" d="m1785 86-19 1c8 5 3 11 13 13-4 0-22 0-25 2h-2c-4 1-16-8-14-11 3-4 19-5 17-3 0 0-3-1-2-2a279 279 0 0 1 32 0Z"/>
    <path fill="#9F9F9F" d="m1753 86 2 2c-6 0-10 0-16 3 3 3 5 6 9 8 1 1 4 1 4 3h-2c-6 0-13 1-19 3l-19 4c-1-2 10-12 11-13 10-5 20-9 30-10Z"/>
    <path fill="#646565" d="M1646 538c-12 1-24-2-34-9v-3c2-3 6-4 10-4l-1-2 25 18Z"/>
    <path fill="#424243" d="M1961 187c9 4 15 11 22 18-3 1-4 8-7 10l-3-1-11-17-2 3-3-14 4 1Z"/>
    <path fill="#CECECE" d="M249 49h-30c8-3 23-2 30 0Z"/>
    <path fill="#818181" d="M1867 569c0 3-3 2-6 3l-8 3c-4 1-21 7-24 6l19-6 19-6Z"/>
    <path fill="#C1C1C1" d="M246 428c1 1 0 2-1 2h-19l-1-2h21Z"/>
    <path fill="#626262" d="M1746 585h-3c-7 0-15-3-22-6 4 0 7 1 10 3 2 0 17 1 15 3Z"/>
    <path fill="#CECECE" d="M246 115h-20l1-1h18l1 1Zm-25 0-9 1c-2-3 9-2 9-1Z"/>
    <path fill="#7B7B7B" d="M1933 147c-3 0-5-4-6-7l6 7Z"/>
    <path fill="#CECECE" d="m262 116-8-1c1-1 10-2 8 1Zm9-66c2 1-10 2-8-1l8 1Z"/>
    <path fill="#C1C1C1" d="M262 427c-1 3-5 2-8 1l8-1Z"/>
    <path fill="#CECECE" d="m297 122-9-2h9v2Z"/>
    <path fill="#CDCDCD" d="M177 492c-2 3-6 0-9-1 1-1 2-2 3-1 2 3 4 1 6 2Zm18 3-8-1c3-2 7-2 8 1Z"/>
    <path fill="#CECECE" d="M206 49c0 4-4 2-7 1l7-1Zm112 79c-1 0-10-1-8-3 3 0 6 2 8 3Zm-127-9c-1 3-4 2-7 3-1-3 6-2 7-3Z"/>
    <path fill="#CDCDCD" d="M206 495c-2 2-7 2-10 0h10Z"/>
    <path fill="#FEFEFE" d="M601 366c-8 36-26 66-64 72h-17c-18-2-34-11-45-26a99 99 0 0 1-22-52l-1-10-1-16v-12l3-23c7-34 23-63 59-72h9c6-3 10-1 15 0l11 1c8 3 16 6 22 12l10 11c13 15 19 33 22 53 2 10 3 32 2 41l-1 14-2 7Z"/>
    <path fill="#1C011B" d="m1633 385 1 1-4 8v7l-4 8-1-4c-6 0-6 6-9 8-2 2-5 1-6 4l2 5c-5 1-6 4-7 8l-4 33-1 4 3 3c0 2-3 2-4 4l-2-8v-21c0-4-1-7 1-11l-1-2c-1-3-3 7-4 2s4-6 1-14c1-3 4-5 4-9a77 77 0 0 0-15 56c1 3 7 0 9 2-6 3-7 1-9 9-1 1-3 0-4-4-5-21-5-27-1-48l11-23c0-6 2-9 7-4l6-6c-2 1-3 0-3-2 0-3 11-16 14-18l4-2c-1-3 9-13 10-14 4-1 5 1 7 3l3-1c2-6 14-8 14 0 1 3-1 5-4 2-5 4-8 8-11 13 2 4 1 10-3 11Z"/>
    <path fill="#390841" d="M1677 330c2-5 8-4 5 1 3 4-2 10-6 8-1 2-3 2-4-1 2 2 1 4-3 6 0 2-1 4-3 4l1 2-12 14-1-1v3l-16 19h-1c-2 2-3 2-4 0 1-3 3-5 2-9-6 5-10 12-15 18-4 5-10 20-12 18 2-7 20-32 24-36 4-5 9-15 16-18l1 3c1-2-1-7-3-6l-6 2c-3 2 4 3-9 14l-1-3 2-1c2-2 6-4 6-7-6 4-9 9-14 14-2 2-3 6-7 5 3-5 6-4 4-8 3 0 4-1 5-3l1-5c2 0 5 1 5-1s-2-3-3-4l-9 10c-2 2-1 3 0 5-1 2-4-1-5 0-6 6-11 13-14 20 3-2 11-11 14-11-2 5-5 9-8 12 1-9-6 4-10 7-2 1-3-2-4-3l-3 3 1 2c-5 8-7 19-13 23 2-9 5-18 11-25l1-5c6-10 12-20 21-28 6-5 6-7 14-13l25-18 26-19c8-3 5 8-2 9l-1 3h4Z"/>
    <path fill="#020002" d="m1803 245-1 3c2 0 3 2 3 3 1 1 2 2 1 3l-7-1-1 1c3 2 1 3-6 2 0 3-1 3-2 0-5-3-14-1-20 0-13 0-27 2-40 6l-1-3 8-17c1-2 2-5 4-5v4c1-1 4-2 5 0 1-2 4 3 4 3-7-7 4-7 9-7 0-8 15-5 18 0 5-1 30 2 32 6 2 3-4 6-6 2Z"/>
    <path fill="#5A1352" d="m1799 253 5 1c0-3 8 2 8 2l-1 2c0 4-5 2-6-1-2 2-3 5-2 9 6 7 0 11-7 6l-7-1-1 2c-3-1-6-1-7 1l-9-1c-3 3-7 4-9 3l-7 2c-2 2-4 2-6 2l-8 2-1-1v-3l-21 2c-2 0-4 0-4-3 1-1 2-3 4-3l3 3c0-2 2-3 3-5-2-1-4 0-4-2 1-2 3-3 7-2l8-2c2-3 4-3 7-1 14-4 28-4 42-4 2-1 4-2 7-1l-1-4h6c-2-2-4-1-5-3h6Z"/>
    <path fill="#57165A" d="M1733 294c10-4 16 3 2 5l-13 5c-1-1-3-2-5-1-1 3-4 5-8 5-5 1-6 3-5 4 3-2 5-2 3 2l1 1-7 7-9 4c-3 3-6 4-9 3-1-3-5-2-6 1l-9 4c3-2 3-6 5-9l3-1c2-1 4-5 2-6h-2l13-9c0-2 3-5 4-3 8-4 15-7 23-9 0-2 3-3 5-4 3-1 11-2 12 1Z"/>
    <path fill="#280228" d="m1790 256-2 2h-9c4-1 7 0 7 3 5 3-16 1-23 3l-15 3c-3 0-6 2-8-3 0 6-16 7-18 6 0-5 5-7 7-11l1 1c11-3 22-6 33-6 4 0 8 1 12-2 5 5 17-1 15 4Z"/>
    <path fill="#350C40" d="M1791 211v2c13 0 11 9-2 6l-4 2c-4 0-6 1-6 3l-1 2c-5-1-10-1-11 5-4 3-14 4-17 0-1-2 1-2 6-2l1-1 1-1c1-1 2 2-1 0l-1-3c-4 1-9-2-4-4 1-2 0-3-2-5 3 2 4 3 2 5-2 3-3 2-7 1l2-8h16l-5-2h9c-3 2 0 2 2 2l1-2c2-1 4 2 5 2 2 0 1-2 0-4 6 0 11 0 16 2Z"/>
    <path fill="#3A0A3F" d="M1741 281c1 3-2 3-4 2l-15 3v2l-17 7-2-1c-3 1 9-14 11-11-1-3 0-4 2-6 3 2 6 2 9 0 4-2 7 0 10 0 5 0 10-3 16-1-4 2-8 2-10 5Z"/>
    <path fill="#A5A5A6" d="M1583 478c6 8 12 17 19 24 3 1-9 4-11 2-6-9-10-19-12-30l4 4Z"/>
    <path fill="#C486CA" d="m1693 306-4 3-1-1 11-11 4-3 19-8 13-4c4 2 3 4-5 7l-10 3c-2 1-3 2-3 4l-24 10Z"/>
    <path fill="#4D235F" d="M1757 228c4 4-6 0-7 3 2 3 0 4-3 4v-1l-5-2 3-11c4 1 6 2 6 5 3 0 5 0 6 2Z"/>
    <path fill="#180116" d="m1747 234-4 1-2-2 1-1 6-1-1 3Z"/>
    <path fill="#EFD9F5" d="m1741 237 1-2 2 1 1 3c-1 1-4-3-4-2Z"/>
    <path fill="#FDFDFD" d="M424 71h65l5-24h-65l3-17h73l-12 59h-72c0-7 2-11 3-18Z"/>
    <path fill="#FEFEFE" d="M568 86c-9 8-22 9-32 4-7-4-8-12-6-19 3-14 14-21 28-20 6 0 14 1 17 7 3 9 1 21-7 28Z"/>
    <path fill="#969696" d="M1809 391v-1a2369 2369 0 0 1 72-13c30-4 58-14 83-28l2 1c0 3-2 4-3 7 14 17 21 51 16 70l-3 10-8 16c-2 5-6 9-10 13a84 84 0 0 1-74 28l-18-5c-11-4-23-13-32-21-3-2-3-4-5-7l-8-11c-5-10-9-21-10-33-1-4-3-8-1-13 2-3 3-8 0-10-2-2-6 0-8-2 3 1 5-1 7-1Z"/>
    <path fill="#010000" d="M2007 298c-1 5-2 11-5 15l-10 15-9 9-17 13-20 10c-23 12-49 17-74 21-8 0-3-6 3-5 19-8 36-17 51-29l-2-2-3-1c-1 2-2 3-4 3l1 2c-8 6-19 10-28 13-11 7-23 12-36 17-5 0-10 2-14 4l-2-2-11 2c-4-3-3-4 3-5-1-3 1-3 2-1 1-2 2-3 5-3 5-3 11-5 18-6 1-5 3-7 8-9l3-4 1-3 25-14h2l4-4 34-26h3l1-3 28-28c3-8 8-14 14-20-3-3 3-11 5-14h2l4-4c9 19 14 39 18 59Z"/>
    <path fill="#540115" d="m1872 381-23 4-40 6-1-1c-1-2 1-3 3-4a419 419 0 0 1 34-7c3-2 6-1 9-2 13-4 24-12 37-17l10-4 16-9 1-2h6c2 1 3-2 5-2 11-4 18-12 28-20l34-25c-1 6-18 13-20 19l20-13-22 19c11-2 24-18 35-22-10 9-21 17-33 24-9 6-18 13-28 18l1-4c-10 1-15 9-21 13-15 11-31 18-47 26-2 0-4-1-6 1v2h2Z"/>
    <path fill="#5E0629" d="M1796 385c3 1 2 2 0 4l2 3-23 5-24 7c-3 0-7-3-8-6-5 0-8-2-9-5l-1-1c-7-1-11-9 0-6l1-1a12141 12141 0 0 0 19 7c4-3 8-3 13-2 5-2 11-3 16-2 0-3 1-3 2 0 3-3 7-4 12-3Z"/>
    <path fill="#22010B" d="m1830 378-4 3h12l-16 5c-5 2-11 0-14 4 1 0-12 1-10 2h-3l-1-3c-1 0-3-1-2-2h3l1-2 1-1c0-3 2-3 3 0 5-3 11-4 16-5-1-3 2-4 4-2 4-2 8-1 10 1Z"/>
    <path fill="#767676" d="m1992 330-4 4-5 3c2-4 7-6 9-9v2Z"/>
    <path fill="#626262" d="m1753 585-1-2-28-29-13-16-13-22-9-18-6-15c-3-8-6-25-9-29l-5 1c-2-2 2-9 5-7v-2c-1-1 8-9 10-10h2c-2-2 6-7 8-5-1-3 1-4 3-2l2 6a200 200 0 0 0 63 122l7 6 18 13 11 8c-6 3-12 1-17 2s-24 0-28-1Z"/>
    <path fill="#680D40" d="M1702 380c1-3 3-2 2 1 2 2 1 2-1 2v3c-5 6-8 7-8 0-2 1-1 9 0 11h2l1-1c5-1 4 5 4 8 5 4 9 10 1 13 2 3 1 6 0 8l-3 1-2 1c-5-2-14-16-16-20l1-3c-2-3-3-9 0-11l5-13c-1-4 3-6 6-3-2-11 11-8 7 1l1 2Z"/>
    <path fill="#84174E" d="M1721 383c2-2 3-2 4 0 3-1 8-1 8 3h-4l-1 2c1 2 3 1 4 2l1 2v1c-12 3 4 9 10 7 3 1 4 3 3 5l-4 1c-3-1-4 0-5 2s-5 2-7 3h-2c-4 2-7 1-12-3 2-3 0-5-5-7-3-4-8-7-13-5 0 0 0 2-1 1-3-1-4-9-2-11l2 4c1-3 4-5 6-7 1 1 1 2 0 0l5-1c1-4 4-4 10 0l3 1Z"/>
    <path fill="#1E010F" d="m1730 411-7 3c-2 0-4 1-5 3l-15 8-2-3c4-5-1-3-4-12 5 1 3 4 4 5 2 1 5-2 5-3-1-3-4-5-7-7-2-2 4-1-1-9 0-2 3-4 5-3s3 3 6 1c6 13 12 2 9 14 2 2 5 2 8 3l-1-4c2-1 6 1 5 4Z"/>
    <path fill="#A64885" d="M1686 373c-2-1-4 7-1 5 1-3 4-2 4 1-3 4-5 9-6 15-2 2-2 7 0 10l3 6 5 8c3 2 5 6 9 8l-3 3-3 2c-2 0-3-2-4-5-4-1-5-3-5-5l-10-14c-1-5-3-10-3-16h-3c-2-3-2-6 1-8 2-2 1-4-3-7l5-5c2-7 6-13 13-18 1-2 1-4 3-3 4 2 4 5 2 9l-1 13c0 2-1 2-3 1Z"/>
    <path fill="#B03468" d="m1733 392 1 1 1 3 8 2 8 6-3 1h-2l-4-4c-5 2-9 0-13-3-2-1-5 0-6-3l5-1c0-2-2-2-1-4 2 3 4 3 6 2Z"/>
    <path fill="#6F153E" d="m1723 414-5 3c0-8-11-2-10-10 2 1 4 4 6 3l3-1c3 0 2 5 6 5Z"/>
    <path fill="#B03468" d="M1742 406c-1 2-4 1-5 2v-3l3-1 2 2Z"/>
    <path fill="#380111" d="m1969 232 1 3c0 2-6 11-8 13-2 1-8 9-8 11l1 1c2-4 4-6 7-7l1 1v1l1 1c0 1-14 19-17 21l1 3c-1 4-29 27-35 31-2-2-3-2-5 2-5 6-11 9-18 11-4 6-9 11-16 13l-4 1c-5 4-12 5-5-1v-2l27-24 1 1 15-13v-3c-1-3 4-8 6-10 9-5 15-17 19-25 8-4 15-10 20-17 1-2 1-4 3-5l1 1 5-11c4-4 8-1 7 3Z"/>
    <path fill="#DC4675" d="M1908 296v2c-2 3-8 10-12 10-14 14-29 26-47 37l1 1c2 0 2 1 0 1 1 4-5 7-8 5 1 3-3 4-5 2-6 1-3-6 0-9-2-1-2-2 0-3-1-2 4-6 6-7h9c4-3 9-7 12-12l12-6h1v-3l8-9c2-5 4-8 8-7l9-10c1-4 3-8 6-11 2-5 4-8 7-10 6-2 13-3 18-6 1 1 2 3 1 4l-13 19-5 3c-4 2-5 6-8 9Z"/>
    <path fill="#C04D85" d="M1853 231c3 3 5 5 4 10 5 0 5 4 7 6v2h-1c4 11 4 20 1 31 1 3 2 8 0 11-1 3-4 3-7 3 2 4 0 5-4 6-5 8-9 3-6-4-7-3-1-10 4-8v6c0 1 1-9 5-9 0-2-1-2-2 0l-2-1c-4-3-2-8 3-9l1-3c-2-5-1-8 2-6 1 0 2 0 2-2-1-6-10-15-14-20-1-1-2-3-1-4-6-6-7-10-2-11v-2l10 4Z"/>
    <path fill="#010000" d="M1976 215c2 1 2 4 3 6 1 1-1 2-2 2l-1-1c-3 2-3 6-6 9 1 2 1 2-1 1-2 0-2-3-4-3-1 0-8 20-10 13l1-3c4-9 8-28 4-39v-8l16 23Z"/>
    <path fill="#5D0223" d="M1907 268c3 0 4 3 3 5 0 2-5 10-7 12-2 3-3 4-6 3-2 4-6 6-6 1l-6 5c-6 14-10 0-2-7-3-1-7-1-7-4-4-2 0-10 4-9 0-4 1-7 4-7 1-1 1-2 3-2 6 2 14 2 20 3Z"/>
    <path fill="#350317" d="M1887 265c-1 2 0 4-2 6-6-6 0 4-4 7l-2-2c-3 2-2 5-3 7 3 2 4 9-2 9l-2 1c-1 3-5 2-3-1-2-2-1-4 1-8-6 6-6-1-4-6 2-9 0-19-3-28l1-1v-2c7 7 14 14 23 18Z"/>
    <path fill="#870834" d="M1915 267c0 4-9 14-10 15-1 2 0 5-2 8l-9 10c-7-2-3 3-9 9l-8 8c-2 1-4 2-5-1v-2c8-10 8-9-2 0-4 4-7 7-13 7l-1 3-15 8c-2 4-16 16-20 12l-2-6 8-5c-1-2 4-6 5-3h1l16-15 2 1c4 2 7-6 3-3h-3c0 4-4 0-4-2-1-2 8-11 10-13 0-3 9-8 10-3l1-1c2 1 4 0 6-2l3-5c-2-1-1-3-1-4l3 2c0-4 1-4 2-1 5 3 7-10 8-4-3 3-3 6-5 9s-5 6-3 9c2 0 2-4 3-5 8-7 9-13 16-23 1 6-7 12-8 21 4-3 12-18 12-18 7-3-7 13-6 15 8-12 12-9 9-20l8-1Z"/>
    <path fill="#9B3A76" d="m1849 228 4 2v1l-3 2c-2-2-3-5-7-5l5 5c-3 2-4-2-8-2 4 4 7 7 9 12-2 1-2-2-4-2 1 4 5 3 7 6l6 11c1 2 4 8 2 9l-2-1-1-4-10-11c-2-4-4-6-7-8 0-5-4-8-11-8-3-1-4-2-4-4-1-1 0-2 1-3-10-2-5-12 2-7l3 1c7 0 12 2 18 6Z"/>
    <path fill="#5E1253" d="M1849 228c-8 0-3-4-16-3l-7-2 1-2c-1-1-4 1-5 2-1 2 8 2 13 7l-1 2-6-3c-2 0-2 2-3 2l-20-5c-2 2-4 2-7 0-3 1-5 0-6-2h-13c-2-3-6-2-10-4 11-4 10 3 18-2 3-3 7 0 11 0-2-7-14 1-15-7h8c4 0 9-1 13 1 2 0 5 3 7 1-2-1-3-1-3-3 12 2 33 8 41 18Z"/>
    <path fill="#321F42" d="m1831 145 1 2-31-8c4-2 7 2 11-1-4-1-9-1-14-4 9 0 18 3 27 6-1 2-3 0-5 2l11 3Z"/>
    <path fill="#7B76C8" d="M1755 130h-6l-1-6h7v6Z"/>
    <path fill="#4A315E" d="M1797 162v-2l-1-2c-1-1-2-2-1-3 3 3 5 2 8 1l-1 4 2 4c-3-1-4-3-7-2Z"/>
    <path fill="#878787" d="M1750 102c-6 2-12 2-19 3 0-2 17-3 19-3Z"/>
    <path fill="#58205B" d="M1825 178h3c2 1 1 2 0 3h-2c-2 0-2-2-1-3Z"/>
    <path fill="#AD7FCF" d="M1797 162h-3c1-2 3-3 2-4h4c1-1 2 1 1 3-1 1-4-1-4 1Z"/>
    <path fill="#5A0944" d="M1653 397c2 1 2 3 1 5 2 1 3 3 1 6-3 6-3 11-1 17-2 3-1 4 1 5-1 4 1 8 3 12l-5 8 6 10c-1 6-5 3-5-2-3 1-4-1-5-3l-5-1c-7-21-1 0 1 7 0 4-3 5-4 1l-1-1-3-1c-8-13-8-26-7-40-2 4-5 5-6 1 2-4 2-8 2-12 0-5 2-10 4-14l4-2 6-11 3 1 11-17h2c-2-2 0-4 2-3 1-2 2-1 3 3l-6 11c-3 3-4 9-1 11l-1 9Z"/>
    <path fill="#400329" d="M1640 461c-2 1-1 4-2 6-2-2-4-1-5-2-7-5-10-17-10-24 0-4 2-7 0-11-1-3 0-6 1-9 7 2 0-6 7-16 2 2-1 5-1 7 4 18-2 22 5 38l5 11Zm14-3 1 5c4 3 5 5 2 6l-3-2-1 2c-3 3 4 2 5 4l-4 5-4-4 1 4-5-5-2-5-3-6h2l-1-7c-2-4-3-7-3-11l-1-2 1-3c0-2-2-5 0-7 2 1 1 3 2 5l2-4c1 3-2 5-1 8l5 13c0-1 1-3 2-2l5 6Z"/>
    <path fill="#1E0010" d="m1674 448-5 7c-5 4-7 10-10 15-1 1-2-1-2-1 1-5-5-2-3-11 1 2 2 4 4 4l-7-11c1-4 3-6 5-9-3-7-4-5-2-11l-4-2 2-3c0-4-3-9-1-13s3-7 3-11v-8l3-6c2 0 3 1 4 3-1 8 0 17 1 26 10 2 10 8 5 15l3 3c-1 4 0 7 4 10v3Z"/>
    <path fill="#830323" d="m1985 243-7 12c3 0 4-3 6-4-3 6-8 12-13 17l-4 8c-4 7-11 11-16 17l-16 15c-2 1-3-1-4-3 0-4 12-16 15-18 5-4 9-8 12-14 0-2-2-1-5 3-3 3-5 3-6 1l7-9 3-6 6-7c1-5 3-7 6-6l8-9 2 1c2-1 4 1 6 2Z"/>
    <path fill="#9E1B41" d="m1979 231 1 2c-3 6-6 11-11 16l-6 6v-1l-1-2-7 8c-1 1-2 4-5 4l8-13 11-19 1-1 3 1 1-2c0-2 1-4 3-4h3l-1 5Z"/>
    <path fill="#010000" d="M1979 241c-4 2-5 8-10 8l10-18 2-5c2 2 5 4 4 6l-2 4h4l1 2-7-1-2 4Zm-2-15-3 4c-2-1 2-5 2-6l1 2Z"/>
    <path fill="#72296B" d="m1656 366-12 20c-2 3-1 7-3 10s-4 5-4 8c-5-5 6-15 5-21-4 3-6 8-8 12l-1 2-3-1v-2c2-4 4-7 7-9 9-13 5-10 17-22 2-1 3 0 2 3Z"/>
    <path fill="#5A0944" d="M1637 385c-2 3-3 7-7 9-1-3 3-6 3-9h4Z"/>
    <path fill="#7E2F6F" d="M1716 322c0 1-2 3-5 4l2 2-1 2c0 3-5 5-8 4 0 2 0 3-2 4-1 4-2 8-5 11-2 4-2 8 0 11-1 2 0 3 1 3 3-2 9-1 8 2l1 1c2 1 2 4 2 7 1 1 0 2-2 4l-5 3c-1 1-3 0-4-2 3-1 2-6 0-7-3 0-3 4-2 5 0 2-1 2-2 2-1 1-2 0-3-1-4 3-3 9-6 13-3 5-3 9-2 14-4-4-2-7-2-14 1 0 0 2 2 3 4-6-4-3 5-14l-3-1c-2-1-1-4 1-5 3-1 1-14 4-18 0-1-3-3-2-5v-1c12-12 12-11-1 0l-2 3v1c3 5-8 5-11 17-1 6-4 3-5 6l2 2 2-2c0 2-1 5-3 7l-8-5c-1 6-4 11-8 16v1l-1 2h-1l-1-7 1-1v-1c-2 0-2 2-3 3h-2c1-4 4-6 4-10v-3l2-1c0-2 9-15 5-14 0-5 8-13 13-11l2-3c-3 1-5 1-7-1 0-3 2-6 6-8-2-2-3 1-5 1 0-2 3-6 5-5 2 0 2 4 4 3 1 1 1 1 0 0 1-2 7-4 5-7l-3 1c0-2 3-2 4-5l-5 2-1-1 8-5-1 3c5 3 6-2 9-3 5-2 10-3 13-9 0 0 3-1 1-3h-2c-2-2 8-6 9-5v4c-5 4-3 4 5 2 6 3 4 10-2 9Z"/>
    <path fill="#7E2F6F" d="M1720 381c2-1 2 0 1 2l-3 3c-1-4-5-4-7-6l-1 4c2-2-11 4-7-1v-2c0-3 2-4 4-4 3-5 6-4 9 1l4 3Z"/>
    <path fill="#B770B2" d="m1658 363-2 3-2-3 12-15c16-1 12-9 21-12l10-8c2 0 3 4 1 4l-6 4-7 5-14 13-10 11c-3-4 10-9 8-13l-11 11Z"/>
    <path fill="#180116" d="M1779 224h13c3 1 6-1 9 1 2 1 3-1 4-1 7 1 15 3 20 7-1 2 0 4 2 6-1 2 1 2 6 1 5 3 8 7 8 11 5 4 4 10-2 6-2 2-4 3-5 1l-4-3c-1-2-3-2-5 1-2-1-5-2-8-1 4 4 0 4-3 5 0 2-2 2-3 0-3-4-7-2-12-5l5 1 1-3c-4-3-4-5-2-6l5-1c-5-4-12-2-17-4-11-3-11 0-16-2l-1-2-12-2c-2 0-1 4 1 4 3-2 6-1 8 1-3 0-22-1-22 1-1 3 5 3 2 6l-5-5 1-6 3-4c5 0 10 2 15-2l-2-2c3 0 6-3 9-4 3 0 5 2 7 1Z"/>
    <path fill="#8D407B" d="M1790 256h2c2 2 5 0 6 0 2 1 1 3 0 3h-2v4l-10-2c-5-2-10-1-16-2 13-3 4-6 20-3Z"/>
    <path fill="#410329" d="M1803 245c0 3 3 4 3 5l-1 1-5-2v-3l3-1Z"/>
    <path fill="#C26DAC" d="M1763 276c2 1 5 1 7-1 4 0 15 3 10 7v1c-1 1-1 3 2 4 1 3-1 5-6 7 4-1 12 1 7 5 0 2-1 2-2 0-4 0-10 2-16 5-4 4-7-2-6-6-4 4-3 6 1 9 0 2-2 3-6 3l-2 3c-4-1-10 2-8 8-2 2-5 3-9 3-6-1-12 2-17 6h-6l1-2v-1a737 737 0 0 1 20-12c0-3-1-5-3-6-1 0-3 1-3-1-2-2-3-4-2-5l19-6 1-3 23-7-1-2c-4 2-10 7-13 2-5-1-7-3-5-6l1-1c3-4 8-5 13-4Z"/>
    <path fill="#902D69" d="M1805 257c4 3 6 5 0 7l9 4c3 4 8 8 8 14 3 0 6 3 6 6 1 2 2 4 1 7 4 0 1 6-2 3h-1c-2-4-3-5-4-3-1 5-3 14-8 17 0 2-1 4-4 3 0 2-2 2-3 0-1-1 0-3 1-3 1-3 2-5 5-7-3-1-2-2 0-3-3-1-4-2-2-6-1-2-2-3 0-5l-10-10c-3 1-4-1-4-4-2 2-4 1-2 0 1 0 6 8-3 5h-12v-2c-12-8-14 3-17-4 3 0 6-4 9-5 5 0 10 2 15 1v-3h6v1c3 0 6 0 9 3 2-1 2-4 1-5h-6c0-2 3-1 4-3-1-3 0-10 3-9l1 1Z"/>
    <path fill="#410329" d="M1834 256c2 0 8 4 5 6 2 5 2 7-1 8 0 2-1 6-4 4l-1-1h-7l-9-11c0-3 0-3-2 2-3 2-7 3-10 0 0-1 3-2 2-4-1-1-3-1-2-3l6 1 7-2c0-3-12-1-11-5 2-3 7 1 9 1 3-2 5-2 8 0 2 1 2-2 3-3 3 0 7 4 7 7Z"/>
    <path fill="#A15C9F" d="m1741 281 9-1-1 1c0 2-2 3-4 3 0 2 0 3-2 4 2-1 5-1 6 1 3 6-6 6-10 4l-6 1h-5c-6 0-9 2-14 5-4 1-9 1-12 4l-9 3c1-3 10-5 13-7s6-4 10-3c-5-7 18-8 21-11-8-2-8 2-15 1 0-3 11 0 14-7 2 4 4 2 5 2Z"/>
    <path fill="#7E2F6F" d="M1727 308c-3 3-6 6-9 1-4-1-4-2-3-4 2 0 3-1 2-2 7-3 21-5 24-7 3-3-9-2-8-2-3-1 12-3 13-1l3-4c-1-3 4-4 5-2l11-2v-2c2-4 3 3 8 3-1 3-17 7-21 8-2 0-4 2-6 1v2l-1 2-8 1c-4 0-7 4-12 4l3 2-1 2Z"/>
    <path fill="#A45D9F" d="m1727 308 3 1c1 2-1 3-4 4l1 5c-2 0-1 3-3 4-8 4-5 5-11 6 0-1-4 0-2-2 3-1 4-2 5-4l4-3c1-1-1-3-1-3-1-2-3-1-4 0-3 2-5 0-7-2 0-2 3-4 5-6-4 0-6 2-9 4-1 1-4 0-6 2 1 0 2 0 2 2-3-2-5-1-8 1-1 0-3 0-2-1 9-6 18-9 27-13h4l-6 4c4-1 5 2 7 3 2 0 4-3 5-2Z"/>
    <path fill="#180116" d="M1752 220c-4 5 10 0 14 3-3 3-6 0-8 2l1 1 1 2h-3c-3 0-6 1-10-1l3-3h-4l-1-3c0-1 2 0 1-2 2 2 4 1 6 1Z"/>
    <path fill="#714488" d="m1752 220-2-6c2 2 4 2 7 2 1 2 0 3-1 3l-4 1Z"/>
    <path fill="#EC6B9B" d="m1840 317-2 2c-4 2-6 5-8 8 1 2 0 3-3 4 0 4-1 5-4 5s-4 1-3 3c-5 4-10 5-16 6 0 4-3 6-8 6-4 3-8 4-12 5l-1-1c-6 1-3 3 9 5 4-1 8 0 10 2-1 4-5 5-11 4 0 2-1 2-2 0-1 2 0 4 2 4 0 3-1 4-4 4-6-1-7 0-5 3 3 2-2 2-1 1 4-1 5 0 8 3 3 1 4 0 4-4-3 1-5 1-6-1s0-3 2-2c1-2 2-3 3 0l1-2c2-2 11-3 14-4 3 0 9-1 10 2a309 309 0 0 0 10-5l1 1 22-11 8-7 1 1a1059 1059 0 0 0 34-18c7 0 6 4 1 7-3 4-9 6-14 8s-9 7-14 9c-4 5-12 9-18 12h-4a453 453 0 0 0-24 10l-4 2c-5 1-11 2-16 5h-3c-5 0-10 2-13 4h-9c-6 2-12 2-18 0-1-3-11-3-9-1 2 3 2 5-2 3h-3c-3-1-23-12-23-15l1-2v-1c-1 0-1-2 1-3-1-3 0-5 2-7l5-2c1-3 3-4 4-3 7-7 7 5 2 7l5 7c2 4-3 6-5 2-2 1-4-2-3-4l-3-1c-2 2 3 10 6 9 3 0 6 1 7 3 3 0 4-1 5-2l12 3c0-4 3-5 5-2l1-1 3-2v-3c-2-2-6-5-10-4l-1-1c-4 1-2-3 1-4 7-1 10-4 10-9l2-2 16-7 2 2-1-2c5-5 14-10 21-11l7-3c1-4 4-8 9-11 1-5 3-7 6-9-1 2-2 2-2 0-2-2 5-7 6-6s3 6 1 8c5-3 10-3 5 3Z"/>
    <path fill="#CD2953" d="M1946 287c-2 3-13 16-13 18l2 3c-13 10-26 21-41 30l3-3-2-2c-2-1-17 9-24 12-3 2-6 5-10 6v-2h-2c-1-2-1-3 2-3h1c10-5 19-12 27-20 1-1 2 0 3 1 5-5 11-10 17-13 3 1 3 1 4-1 13-10 25-21 36-33 7-2 1 6-3 7Z"/>
    <path fill="#3B0111" d="M1866 355c-2 1-1 4-2 6-3 1-6 2-6 6-1 4-7 4-9 4-5 0-10 5-17 6l-2-3 14-7c7-5 15-9 22-12Z"/>
    <path fill="#730B2B" d="M1844 367c-3 2-7 5-12 6 0 1 2 3 0 4l-2 1c-3 1-6-1-10-1 4-2 9-5 14-6 3-2 7-4 10-4Z"/>
    <path fill="#B63654" d="M1924 345v2h-7c2-2 0-3 0-6 3 1 5 2 7 0v4Z"/>
    <path fill="#85152E" d="M1985 271c2-2 4-1 5 0s1 3-1 4h-4v-4Z"/>
    <path fill="#B2376D" d="M1782 388c-6 4-6-2-14 4-4 3-6-4-15 3l-7-5c5-2-5-2-2-5l7-2c3 0 5 3 8 3l8 2c5 1 14-5 15 0Zm-37 2c-2 1-4 1-7-1l-5-3c-2-2-6-3-9 1-1-2-1-4-3-4l-1-2c-6-1-4-9 1-8 2 5 8 6 12 9 2 1 2 3 5 4 3 0 6 2 7 4Z"/>
    <path fill="#84174E" d="M1743 398c-4 0-9 1-14-3 2-2 5 0 5-2l9 5Z"/>
    <path fill="#B2376D" d="m1797 384-1 1-6 1-6 2c-2-5 11-4 13-4Z"/>
    <path fill="#730B2B" d="M1816 379c-1 2-12 4-16 5 2-3 5-5 9-4 3-2 5-2 7-1Zm10 2c-4 3-7 2-10 3 3-2 6-5 10-3Z"/>
    <path fill="#48022A" d="m1670 383-1 8c1 10 4 24 10 33 6 3 9 7 7 12-3 5-8 7-12 12-12-12-4-9-6-13l-3-2c-1-3 3-6 3-8 1-4-4-7-7-6l-2-16v-13c-3 1-3 3-5 4 4-7-1-2 5-12l1-6c1-1 11 4 11 4l-1 3Z"/>
    <path fill="#D66FA9" d="m1694 431-8 5-1-2c1-6-6-7-8-10-5-11-7-14-9-25-1-2 1-4-2-6 2 0 2-1 3-2l5-5 1 15c3-2-1-5 3-6-2 5-2 10 1 14l8 11v3c2 2 4-1 7 8Z"/>
    <path fill="#C86AA0" d="M1695 386c-1 5 2 8 2 11l1 8c-5-5-7-13-5-20l2 1Z"/>
    <path fill="#84174E" d="m1722 369 1 3-2 1-3 4 2 4c-10-1-5-9-13-4l2-4c0-1 0-2 1-1 0-2 2-2 5-1l2-9c6-11 7 1 5 7Zm-15 8c0 2-2 3-3 4l-2-1c1-1 0-3 2-4l3 1Z"/>
    <path fill="#7E2F6F" d="M1713 391c0 1-5 1-5-1l2-6c2 2 2 5 3 7Z"/>
    <path fill="#EF96D4" d="m1686 373-1 5-5 12c-3 1 0-13-5-5-1-2-2-3-1-5 0-2 5-4 5-4l2 3c2-2 2-11 6-11l-1 5Z"/>
    <path fill="#9D0F35" d="m1946 287 5-7-12 11-13 14c-3 4-9 6-12 10-1 2-1 5-5 5 1-3 2-3 1-4-8 2-17 17-20 11-5 6-20 19-28 19v-2c1-2 9-7 12-7v-3c0-1 7 1 13-9 2-4 5-4 8-4 4-1 6-6 9-8l6-7 13-13 1-2 1 1c0 3-16 15-12 18 10-10 16-11 24-20 4-5 8-8 10-13 5 0 15-18 21-22 0 3-4 4-5 6-1 3-2 7-5 10 3 2 3-2 6-2-6 5-13 20-18 18Z"/>
    <path fill="#EF7B9F" d="M1896 308c2 2-1 4-3 4l-5 5c-5 6-17 13-23 20l-7 7-2-1c1 3-3 4-6 3l-7 2c4-4 15-10 21-14 9-6 24-20 32-27v1Z"/>
    <path fill="#740627" d="M1874 337c-3 4-10 6-12 9h-1c-2 4-9 0-5-3l9-6-2 4c4-3 7-6 11-4Z"/>
    <path fill="#9D0E37" d="M1947 262c3 4-13 23-12 18v-1l12-17Z"/>
    <path fill="#7C0729" d="m1893 312 3-4 12-12 2 3c-3 3-14 15-17 13Z"/>
    <path fill="#830323" d="m1963 254-8 6c1-4 4-9 7-11 2 1 3 4 1 5Z"/>
    <path fill="#A0194A" d="M1877 317c-2 2-4 6-7 6-6-1-8 9-18 14-10-1-6-2-15 5l-1 1c0 5-6 5-11 6l-11 6c0 6-10 10-12 4-6 0-11 1-16-1-5 2-10-3-3-3 3-1 7-2 10-5 2-2 5-1 8-2 2 0 1-4 2-4l7-2c6-1 10-7 16-8l-1-3 5-4c3-5 7-8 13-11l2 1c0 2-2 5-5 7l-8 5 1 1c-3 2-5-1-6 5l2 1c-1 5-5-2-9 2 1 2 3 1 4 2l-2 1c-1 1 1 2 1 2l10-5c2-1 3-5 6-6v-2h1l1 1 16-10c3-1 6-2 8-1 3-4 5-5 7-4s4-1 5 1Z"/>
    <path fill="#9D1342" d="M1844 356c-2 5-12 10-17 9h-1c-1 2-11 4-8 3l-1 2h-9c-5 0-11 2-16 4-2 1-2-1-2-4-2-1-3-3-1-4h2c12 1 24-4 35-9h3c0-3 6-5 8-3l5-2c3 0 4 1 2 4Z"/>
    <path fill="#F792B4" d="M1837 354c-2 2-5 2-8 3-2 1-3 0-4-3-5 0-4-5 0-5l12-7c-9 6 22-11 12-3-5 5-12 6-13 11v3l1 1Z"/>
    <path fill="#740627" d="M1848 355c-1 2-3 3-4 1l-2-4 8-5c2-1 6-3 8 0 1 2-8 7-10 8Z"/>
    <path fill="#9D0F35" d="m1856 343 2 3h3l-2 3-9 6h-2l9-7-7-1v-1l6-3Z"/>
    <path fill="#64083A" d="M1825 231c6 4 14 2 17 8v3h2c2 6 6 11 12 15 0 0 6 7 2 9s2 3-1 10l-2 2-2-1-1 7c2 1 1 2-1 1 0 2-2 3-5 4-2 5-6 7-6 0 0-2 1-7 3-6-1-1-1-4 1-3l-2-10-2 1c1 4-1 5-3 4-1 2-2 2-3 0-2 0-2-1 0-1 3 0 1-4 3-8 1 1 1 2 3 2-2-11-5-7-6-12l4-3c1-1 3 1 4 2 1-4-5-3-3-8l-6-7c-5 1-10 1-13-2 2-2 4 0 5 0-2-4-4-5-7-6 3-1 5 1 7-1Z"/>
    <path fill="#A2245A" d="m1841 275 2 8c0-1-2 7-1 8h2c1-7 5 0 7-6 3 1 3 2 0 3-1 1-3 0-5 2v3c7 0-2 5 3 10 2-3 4-6 8-5-1-2-3-2-2-3l2-3c2 1 6 0 6-3l1-9c-1-2 0-4 2-2v8c1-3 5-6 6-4 1 4-3 7-3 10 2 2 0 3-2 3-5-1-9 3-11 8-2 3-7 5-7 9l2 1c5-3 5 4 0 3l-9 7-9 7c-1 0-3-1 0-1l12-12c1-2 1-2 0 0-12 4-9 9-15 10-3-3 7-10 10-10 2-1 2-3 1-5-5 0-7-2-6-5l-2-1 4-10-2-3c-6 7-7 0-7-5-4-5-4-8 1-8-1-5-2-9 4-7l1 1v1c0 3 5 1 3 0l3-4c3 0 3 2 1 4Z"/>
    <path fill="#E97FAE" d="M1864 249c2 4 9 28 2 29l-2 2c-3 1 0-10 1-13 1-7-2-12-3-19l2 1Z"/>
    <path fill="#F695BE" d="M1851 288v-3l1-1c2-1 2-3 4-6 2 2 1 5 2 7l4-2v4s-7 6-7 4c1-2 3-2 2-4-4 1-6 5-4 9l-2-1v-7Z"/>
    <path fill="#5D0223" d="m1874 292-3 7c-1-2-2-4-4-4l2-3c1 4 1-1 4-1l1 1Z"/>
    <path fill="#350C40" d="M1792 224h-12c4-2 9-1 12 0Z"/>
    <path fill="#48022A" d="M1654 402v-2h-2l1-3 1-2c2 3 0 5 0 7Z"/>
    <path fill="#ECA0D6" d="M1781 299c1 2-2 4-6 4 11 3-8 13-13 12 2 1 1 3 0 5-1 1-13 9-14 5h-10v2c-5 1-10 7-12 11 2 2 2 4-1 7-1-1-2-1-1 1 0 6-9 9-7 0-2 2-4 3-6 2 2 2 0 5-3 5-5 11-18 10-11-4l4-6 3-9c2-3 6-2 8-4 2-1 5-1 6-3 4-3 12-7 18-5l3-2 1 2c3-1 1-3 1-4 0-2 7-10 9-6 2 0 3-3 3-5 2 1 4 3 5 0l-4-2c0-3 2-7 4-8s6 1 5 3c-1 1-2-1-3-1 2 3 1 3 1 4h3c3-3 20-7 17-4Z"/>
    <path fill="#C165A2" d="M1724 346c1-2 3-2 6-1 3 2 3 4-1 7 2 6 0 11-6 8-2-4-3-4-5 2l-6 3c0 3 0 6-2 7l-1 1c-1-1-1-10-8-9l-2 2-3-2-4 5c-1-2 6-12 1-10 0-3 1-7 4-10 2-4-2 7 0 9 4 3 9-5 11-5l4-1-1-4 7-6 3 2c-2 1-3 4-2 6 2-1 3-4 5-4Z"/>
    <path fill="#AD5E9E" d="m1697 349 1-6c1-1 3-2 3-5 0-2 2-3 3-4l1 2h2l-4 3c-1 2 0 4 2 4l4-2c1 0-4 7-6 7-1-1-1-3-2-2-2 0-3 2-4 3Zm-9 1v4c-2 0-2-2-3-1-7 1 12-14 12-13l-9 10Z"/>
    <path fill="#B770B2" d="M1676 339c1 0 3 0 2 1l-5 5c0-3 2-4 3-6Z"/>
    <path fill="#C26DAC" d="m1711 326 5-4 1 1-6 3Z"/>
    <path fill="#64083A" d="m1836 246-6 1c-1-1 0-3 1-3s3-1 5 2Z"/>
    <path fill="#FEF4F9" d="m1803 315-1 2c-2 3-3 5-2 7 8 2 5 8-1 9l-6 6c-8 1-14 4-19 10l-5 2-6 5c3 4 1 7-5 7-3 5-15 7-11-2l-4-6c5-14-4-11-6 0h-1c-8 8-6-2-3-7l2-10c-11 2-3-8 3-11l-1-2a125 125 0 0 1 11 0c4-1 6-2 9-5 1-1 4-1 4-4-2-1-4 3-6 3-3 0-7-2-10 1 0-3 2-4 4-5l5-1 3-3c7-1 2 6 13-1l8-4c-3-3-5 0-7 1s-5 0-6-2c2-1 3 1 5 1 2-1 3-5 5-5l6-2h2c0-3 5-3 7-3 4 1 9 1 9 6 1 1-5 12-7 14h3c-1-3 5-11 7-12 7-3 7 11 1 11Z"/>
    <path fill="#F29ACB" d="M1813 302v3c0 2-2 3-4 3 1 2 1 3-1 4l-1 3c1 2-3 2-4 0l3-1c1-1 1-7-1-8-1-1-3 0-4 1l-4 7c-1 1 1 5-2 5-2-1-4-2-6-1-2-5 2 0 6-11 1-2 4-6 2-7-4-2-10-2-14-1 1-5-9-2-10-3l1-3 7-4c0-1-5-3-3-5 0-1 1-2 2-1h1c3 1 6 1 7-1h8c5-2 7-1 8 2 6 5 8 8 3 15 3 0 4 1 6 3Z"/>
    <path fill="#BC5691" d="M1813 302c-3-1-6 0-10-2 5-2 7-9 3-13l-4-5c-10 4-6-1-14 0v2l-7-1h-1v-1l16-1c1-1-12-7-15-8 5-1 9 0 13 4 2-1 1-2 2-4 0 2 2 3 3 3v3c0 3 5-1 5 1l-1 3c0 2 8 4 11 8l-2 2 1 4c0 1-2 2-1 3l1 2Z"/>
    <path fill="#7E2F6F" d="m1727 318-3-1 1-2c-1-1-3-1-3-3 3-1 6-1 8-3l4-1c2-2 6-1 7 2-2 2-5 0-7 1l1 2 3 1c-2 3-7 4-11 4Z"/>
    <path fill="#E6A1DD" d="M1749 281c2 3 2 4 9 4-4-1-4 1-4 2l-5 2-18 2c3-4 7-4 12-5v-3l6-2Z"/>
    <path fill="#64083A" d="m1833 273-3 1c1 3 2 6 1 8-2 0-4-2-4 0l1 3 1 2c1 1 0 0-1 1-2-3-5-5-9-4 2-5 0-8-3-10l-2-1 2-1c-5-5-7-1-11-8 3 0 6 0 9-2l-1-4c4 0 9 0 11 4-2 2-3-1-5-2-1 4 5 3 8 12 2 0 5-1 6 1Z"/>
    <path fill="#BA4076" d="m1840 317 1-3c-3 0-6 2-9 1 1-3 3-5 2-8l-6 5c-1 3-3 7-7 6-1 3-2 5-5 4l-1 1-2-10c3-3 7-5 10-6 0-4 0-10 4-9 6-1-2-6 1-10l1 1h2c12-14-6 10 0 5 3-1 3-4 4-7 2 2 1 4 2 6l2 3-4 12c3 3 5-1 8 4 0 1-1 4-3 5Z"/>
    <path fill="#EB7CB0" d="M1827 298c-5 8 1 11-2 11-3-1-5 1-7 3h-3l1 3c1 3-2 6 0 7s3 2 1 3c-3 3-4-1-4-4l-3-6c8-10 5-3 8-13 1-2 3-3 2-6l2-4 3 1c2 2 2 3 2 5Z"/>
    <path fill="#64083A" d="M1819 295c-5-8 0-5-4-12 3-1 4 2 5 3 2 3 0 4-1 9Zm-4-13c-2 0-2-3-4-3s-5-2-3-4l6 1c2 0 2 5 1 6Z"/>
    <path fill="#CA5A90" d="M1808 312v-5c1-1 4 0 5-2 1 3-2 6-5 7Zm-1 3h3l2 3c-2 4-15 1-9-3h4Z"/>
    <path fill="#FDC3E1" d="m1757 368 8 2c7 2 2 7-3 4l-8 3-2-1v1c-3-2-5-2-6-1 5 2-1 4-4 5-1-3-4-4-6-4-3 2-4-4-1-4h4c2 0-12-14-6-11l3 1v-8c0 2-3 2-4 4-2 3-4 4-8 3-1 4-3 1-1-2l4-2c2 0-1-4 0-6 0-3 3-3 4-5l-7-1-1-1 3-5-7 2c9-6 0-3 13-15 3-3 7-3 11-3 2-2 4 0 5 1-1 1 1 4-10 0 7 4-5 6-7 12l4-1c4 2 1 4 0 7 0 4-1 9-4 12l2 1c6-1 2-14 12-13 2 3 2 9 0 12l5 7-1 1v2l6-1c1 0 2-3 4-2 2 0 3-1 3-2 1-1 0-2-1-2h-3c0-2 1-3-1-5 3 1 4 2 7 0 2 0 3-4 5-4 3-1 5-2 7-5s8-5 11-6c5 0 8-3 10-6 2-1 8-2 5-5 0-1-3 0-4-2v-3h-5c2-2 5-1 6-3s2-4 4-4c1 1-1 1-1 2l8 1v-3c1 0 7 6 4 9 2 0 3 0 2-2 2-1 3-4 4-7 4 3 0 3 8-3h2c-3 2-3 6-4 9-2 3-7 5-8 8-1 2 0 5-3 5l-7 3c-7 0-21 11-20 11l-11 4c-2 1-6 1-7 4 1 10-11 6-13 11v1Z"/>
    <path fill="#D74D7E" d="m1825 349-2 3c4-1 6-4 10-3-2 3-4 2-6 4l2 4c-9 5-19 9-30 11-3 0-5-3-8-2 3-1 7-1 10-4h-10c-2-1-4-4-6-2-1 0-2 2-3 1l-1-2c-1-2-4-2-4-5l6 1-3 1c3 2 20 2 25 0l-2 2 2 2c3 0 5-2 7-3 0-2-1-2-2-3l12-5h3Z"/>
    <path fill="#FB97C2" d="M1768 376v1h-3s2-1 0 1v3c0 1-1 3-2 1l1-2-2-1c-3 0 0 4-1 5l-13-5c-2 2-5 4-7 3-1-1 0-4-2-4-3 0-5 0-5 3-2-3-10-9-5-13l3 1c1 1 3 2 3 4 1 1-1 3 1 4l6 1 3 1c1-1 2-2 1-3 2-1 3 0 6 1v-1l11-4s2 3 3 2l1-2-6-2h-3l-1-2 6-2c1 7 11 4 5 9v1Z"/>
    <path fill="#FBA9C6" d="M1782 377c0-3 4-4 5-1 5 1 12-4 19-2-5 5-14 1-11 8-10 4-6-3-15-3 0-2 3-1 2-2Z"/>
    <path fill="#CD3564" d="M1850 355c-5 4-10 8-16 10-3 1-5 4-8 3l1-3c1-2 4-2 6-3l11-6 4-1h2Z"/>
    <path fill="#BA376B" d="M1792 374c-1 0-4 0-5 2-1-1-3 1-5 1s-3-1-4-4c3-2 7-1 11 0 1-2-2-2-3-3-1-2 2-4 3-4 0 2 2 3 4 2 3-1 3 2 1 2l-2 2v2Zm-24 2c1 0 13 0 10 2h-13s-2-1 0-2h3Z"/>
    <path fill="#CD3564" d="M1826 365c-2 3-6 5-9 5l-1-2 10-3Z"/>
    <path fill="#E95F8D" d="m1872 316-6 7c-4-4-7 0-9-2 12-6 21-19 23-18 5 0-7 12-8 13Z"/>
    <path fill="#A0194A" d="m1851 316 2-3h-2l7-5c1 2-1 2-1 4l4 1-1 2-2 1c-4 1-7 8-10 6 2-2 4-4 3-6Z"/>
    <path fill="#EC6B9B" d="M1808 348c-2 1-4 3-5 1-1-1 1-2 2-2s3-2 3 1Z"/>
    <path fill="#DD75A8" d="M1844 280c-1 2-2 0-3-5l-1-4c2-3 0-6-1-9 6 0 6 15 5 18Z"/>
    <path fill="#BA4076" d="m1844 280-1 3c-3-1-1-6-2-8 2-1 0 6 3 5Zm-10-5h5v6c-3-1-3-3-5-2 1 3 2 5-1 7 0-3-2-12 1-11Z"/>
    <path fill="#3A061C" d="M1846 295c2 3-5 15-7 13 1 1 5-12 7-13Z"/>
    <path fill="#870834" d="M1845 317c0-1-2-2-1-3l3-2 1 3-3 2Z"/>
    <path fill="#781E5C" d="m1708 353 3-5 4 5-4 1c-1 1-2 0-3-1Z"/>
    <path fill="#7E2F6F" d="M1723 360v2h1c2 4 2-1-2 7-1-1-2-2-1-4v-8c-3 7-2 13-5 15-1 2-4 0-6 0v-7l-2 1c-4-3 6-1 13-11 2 2 1 3 2 5Z"/>
    <path fill="#C26DAC" d="M1788 282c1 1 2 2 1 4-2-2-6-2-8-3l7-1Z"/>
    <path fill="#EC6B9B" d="M1752 376c1 1 2 2 0 3l-6-3s-2-1-1-2l7 2Z"/>
    <path fill="#FDC3E1" d="m1732 369-3 2v-3c-1 1 3-3 3-1v2Z"/>
  </g>
  <defs>
    <clipPath id="a">
      <path fill="#fff" d="M0 0h2266v588H0z"/>
    </clipPath>
  </defs>
</svg>
