<svg xmlns="http://www.w3.org/2000/svg" fill="none" viewBox="0 0 120 15">
  <g fill="#173E58" clip-path="url(#a)">
    <path d="m7.32 11.22 1.74.18c-.24.87-.81 1.68-1.71 2.46-.9.78-1.98 1.17-3.21 1.17-.78 0-1.5-.18-2.13-.54-.66-.39-1.17-.9-1.5-1.59-.33-.69-.51-1.47-.51-2.37 0-1.13998.27-2.24998.78-3.32998.54-1.08 1.2-1.89 2.07-2.4.84-.54 1.74-.78 2.73-.78 1.26 0 2.25.39 3 1.17.75.78 1.11 1.83 1.11 3.18 0 .51-.06 1.05-.15 1.59H1.83C1.8 10.14 1.8 10.32 1.8 10.5c0 .99.21 1.74.69 2.25.45.51.99.78 1.65.78.6 0 1.2-.21 1.8-.6.57-.39 1.05-.96 1.38-1.71ZM2.1 8.58002h5.88v-.39c0-.9-.21-1.59-.66-2.07-.45-.48-1.02-.72-1.74-.72-.75 0-1.47.27-2.1.81-.6.48-1.05 1.29-1.38 2.37ZM20.8805 9.66l1.92.21c-.6 1.68-1.5 2.97-2.64 3.84-1.17.87-2.46 1.29-3.9 1.29-1.77 0-3.15-.54-4.17-1.62s-1.53-2.61-1.53-4.62c0-2.61.78-4.77 2.34-6.48 1.41-1.53 3.12-2.28 5.19-2.28 1.53 0 2.76.42 3.72 1.23.96.84 1.5 1.95 1.65 3.33l-1.8.18c-.21-1.05-.6-1.83-1.2-2.34-.6-.51-1.38-.78-2.31-.78-1.77 0-3.21.78-4.29 2.37-.96 1.35-1.41 2.97-1.41 4.83 0 1.5.36 2.61 1.11 3.42.72.78 1.68 1.17 2.85 1.17.99 0 1.92-.33 2.7-.96.81-.69 1.41-1.59 1.77-2.79Zm2.1293 5.1 3.06-14.52001h1.8L24.8098 14.76h-1.8Zm3.7812 0 2.19-10.50001h1.8L28.591 14.76h-1.8Zm2.61-12.48001.42-2.04h1.8l-.42 2.04h-1.8ZM30.541 14.76l2.19-10.49998h1.65l-.36 1.86c.72-.72 1.38-1.26 1.98-1.59.63-.33 1.26-.51 1.89-.51.84 0 1.53.24 2.01.72.48.48.72 1.11.72 1.89 0 .39-.09.99-.27 1.83L38.941 14.79h-1.8l1.47-6.65998c.15-.66.21-1.11.21-1.44 0-.36-.12-.63-.36-.84-.24-.21-.6-.33-1.05-.33-.93 0-1.77.33-2.49.99-.72.66-1.26 1.8-1.59 3.39l-.99 4.88998h-1.8v-.03Zm10.3496 0 2.19-10.50001h1.8L42.6906 14.76h-1.8Zm2.58-12.48001.42-2.04h1.8l-.42 2.04h-1.8ZM51.84 10.92l1.77.18c-.45 1.32-1.08 2.31-1.92 2.94-.84.63-1.77.96-2.82.96-1.14 0-2.07-.36-2.79-1.11-.72-.75-1.08-1.77-1.08-3.09 0-1.13998.24-2.27998.69-3.38998.45-1.11 1.11-1.95 1.95-2.52.84-.57 1.83-.87 2.91-.87 1.14 0 2.04.33 2.7.96.66.63.99 1.47.99 2.52l-1.77.18c0-.69-.21-1.23-.57-1.59-.39-.39-.9-.57-1.5-.57-.72 0-1.35.24-1.89.69-.54.45-.96 1.14-1.26 2.07-.3.93-.45 1.82998-.45 2.66998 0 .9.21 1.56.6 2.01.39.45.9.69 1.5.69s1.14-.21 1.68-.66c.51-.48.96-1.14 1.26-2.07Zm9.0905 2.5201c-.63.54-1.2.93-1.8 1.17-.57.24-1.17.36-1.83.36-.96 0-1.74-.27-2.34-.87-.6-.57-.9-1.29-.9-2.19 0-.6.12-1.11.39-1.56.27-.45005.63-.81005 1.08-1.08005.45-.27.99-.48 1.62-.6.39-.09 1.14-.15 2.28-.18 1.14-.06 1.95-.15 2.43-.36.15-.48.21-.9.21-1.23 0-.42-.15-.75-.45-.99-.42-.33-1.02-.51-1.83-.51-.75 0-1.38.18-1.86.51-.48.33-.84.81-1.05 1.44l-1.8-.18c.36-1.05.96-1.83 1.77-2.4.81-.54 1.8-.84 3.03-.84 1.29 0 2.34.3 3.09.93.57.45.87 1.05.87 1.8 0 .57-.09 1.2-.24 1.95l-.6 2.61005c-.18.84-.27 1.5-.27 2.04 0 .33.06.81.21 1.44h-1.8c-.09-.3-.15-.72-.21-1.26Zm.69-3.99005c-.24.09-.54.18-.81.24-.3.06-.75.12-1.41.18-1.05.09-1.8.21005-2.22.36005-.42.15-.75.36-.96.69-.21.3-.33.66-.33 1.02 0 .51.18.93.51 1.23.36.33.84.48 1.47.48.6 0 1.17-.15 1.71-.48.54-.3.99-.75 1.29-1.32.3-.57.57-1.38.75-2.40005ZM64.1699 14.76l3.03-14.52001h1.8L65.9699 14.76h-1.8Zm6.6012 0-.9-14.52001h1.98l.3 7.2c.03.33.06 1.26.12 2.79001.03.42.03.72.03.9 0 .12 0 .45.03.99.81-1.65 1.38-2.79001 1.74-3.45001l4.41-8.37h1.98l.45 8.49c.06.96.09 2.13001.15 3.51001.12-.33.33-.84.63-1.5.48-1.08001.84-1.83001 1.08-2.31001l4.11-8.22h1.98L81.4811 14.79h-2.07l-.45-8.79001c-.06-.75-.12-1.68-.15-2.82-.42.93-.75 1.65-1.02 2.19l-4.98 9.42001h-2.04v-.03Zm14.85-3.99c0-2.03998.6-3.74998 1.8-5.09998.99-1.11 2.31-1.65 3.9-1.65 1.26 0 2.28.39 3.06 1.2.78.78 1.17 1.86 1.17 3.21 0 1.2-.24 2.33998-.72 3.35998-.48 1.05-1.17 1.83-2.07 2.4-.9.54-1.86.84-2.85.84-.81 0-1.56-.18-2.22-.51-.66-.36-1.17-.84-1.53-1.5-.36-.66-.54-1.41-.54-2.25Zm1.74-.18c0 .99.24 1.74.72 2.25s1.08.78 1.83.78c.39 0 .78-.09 1.14-.24.39-.15.72-.39 1.05-.72.33-.33.6-.69.84-1.08.24-.42.42-.84.54-1.32.21-.65998.3-1.28998.3-1.88998 0-.96-.24-1.71-.72-2.22-.48-.54-1.08-.78-1.83-.78-.57 0-1.08.12-1.53.39-.45.27-.87.66-1.26 1.17-.36.51-.66 1.11-.84 1.8-.15.72-.24 1.31998-.24 1.85998Zm8.3088 4.17 2.19-10.49998h1.59l-.45 2.16c.54-.81 1.0801-1.41 1.5901-1.8.51-.39 1.05-.6 1.59-.6.36 0 .78.15 1.32.42l-.72 1.65c-.3-.24-.66-.36-1.02-.36-.63 0-1.26.36-1.9201 1.05-.66.69-1.17 1.95-1.56 3.77998l-.87 4.2h-1.74Zm6.0601 0L104.76.23999h1.77l-1.86 9.03 5.25-5.01h2.34l-4.47 3.9 2.7 6.60001h-1.95l-2.1-5.40001-2.19 1.89001-.72 3.51h-1.8Z"/>
    <path d="m110.67 11.16 1.77-.12c0 .51.09.96.24 1.32.15.36.45.66.87.9s.93.36 1.5.36c.81 0 1.41-.15 1.8-.48.39-.33.6-.69.6-1.11 0-.3-.12-.6-.36-.87s-.84-.63-1.8-1.02c-.96-.38998-1.56-.68998-1.83-.83998-.45-.27-.78-.6-1.02-.96s-.33-.78-.33-1.26c0-.84.33-1.56.99-2.16.66-.6 1.59-.9 2.79-.9 1.32 0 2.34.3 3.03.93.69.6 1.05 1.41 1.08 2.43l-1.71.18c-.03-.66-.24-1.17-.69-1.56-.42-.39-1.02-.57-1.8-.57-.63 0-1.11.15-1.47.45-.36.3-.51.6-.51.96 0 .33.15.63.45.9.21.18.72.45 1.56.78 1.38.6 2.25 1.05 2.61 1.38.57.53998.84 1.19998.84 1.97998 0 .51-.15 1.02-.48 1.53-.33.51-.81.9-1.47 1.2-.66.3-1.44.45-2.31.45-1.2 0-2.25-.3-3.09-.9-.9-.66-1.29-1.65-1.26-3Z"/>
  </g>
  <defs>
    <clipPath id="a">
      <path fill="#fff" d="M0 0h120v15H0z"/>
    </clipPath>
  </defs>
</svg>
