<svg width="64" height="64" viewBox="0 0 64 64" fill="none" xmlns="http://www.w3.org/2000/svg">
<path d="M0 16C0 7.16344 7.16344 0 16 0H48C56.8366 0 64 7.16344 64 16V48C64 56.8366 56.8366 64 48 64H16C7.16344 64 0 56.8366 0 48V16Z" fill="#6DA9C6"/>
<path d="M32 26.6666C38.6274 26.6666 44 24.8758 44 22.6666C44 20.4575 38.6274 18.6666 32 18.6666C25.3726 18.6666 20 20.4575 20 22.6666C20 24.8758 25.3726 26.6666 32 26.6666Z" stroke="white" stroke-width="2.66667" stroke-linecap="round" stroke-linejoin="round"/>
<path d="M20 22.6666V41.3333C20 42.3942 21.2643 43.4116 23.5147 44.1617C25.7652 44.9119 28.8174 45.3333 32 45.3333C35.1826 45.3333 38.2348 44.9119 40.4853 44.1617C42.7357 43.4116 44 42.3942 44 41.3333V22.6666" stroke="white" stroke-width="2.66667" stroke-linecap="round" stroke-linejoin="round"/>
<path d="M20 32C20 33.0609 21.2643 34.0783 23.5147 34.8284C25.7652 35.5786 28.8174 36 32 36C35.1826 36 38.2348 35.5786 40.4853 34.8284C42.7357 34.0783 44 33.0609 44 32" stroke="white" stroke-width="2.66667" stroke-linecap="round" stroke-linejoin="round"/>
</svg>
