<svg width="48" height="48" viewBox="0 0 48 48" fill="none" xmlns="http://www.w3.org/2000/svg">
<path d="M0 14C0 6.26801 6.26801 0 14 0H34C41.732 0 48 6.26801 48 14V34C48 41.732 41.732 48 34 48H14C6.26801 48 0 41.732 0 34V14Z" fill="#6DA9C6"/>
<path d="M24 30V17" stroke="white" stroke-width="2" stroke-linecap="round" stroke-linejoin="round"/>
<path d="M27 25C26.1348 24.7471 25.3748 24.2206 24.834 23.4995C24.2932 22.7784 24.0005 21.9014 24 21C23.9995 21.9014 23.7068 22.7784 23.166 23.4995C22.6252 24.2206 21.8652 24.7471 21 25" stroke="white" stroke-width="2" stroke-linecap="round" stroke-linejoin="round"/>
<path d="M29.598 18.5C29.8281 18.1015 29.9635 17.6554 29.9936 17.1962C30.0237 16.737 29.9478 16.2771 29.7717 15.8519C29.5956 15.4268 29.324 15.0478 28.9781 14.7444C28.6321 14.441 28.221 14.2212 27.7765 14.1021C27.332 13.983 26.866 13.9677 26.4147 14.0575C25.9634 14.1473 25.5387 14.3397 25.1737 14.6199C24.8086 14.9 24.5129 15.2604 24.3093 15.6731C24.1058 16.0858 24 16.5398 24 17C24 16.5398 23.8942 16.0858 23.6907 15.6731C23.4871 15.2604 23.1914 14.9 22.8263 14.6199C22.4613 14.3397 22.0366 14.1473 21.5853 14.0575C21.134 13.9677 20.668 13.983 20.2235 14.1021C19.779 14.2212 19.3679 14.441 19.0219 14.7444C18.676 15.0478 18.4044 15.4268 18.2283 15.8519C18.0522 16.2771 17.9763 16.737 18.0064 17.1962C18.0365 17.6554 18.1719 18.1015 18.402 18.5" stroke="white" stroke-width="2" stroke-linecap="round" stroke-linejoin="round"/>
<path d="M29.9961 17.125C30.5839 17.2761 31.1296 17.559 31.5919 17.9523C32.0541 18.3456 32.4209 18.8389 32.6643 19.3948C32.9076 19.9508 33.0213 20.5549 32.9967 21.1613C32.9721 21.7677 32.8098 22.3606 32.5221 22.895" stroke="white" stroke-width="2" stroke-linecap="round" stroke-linejoin="round"/>
<path d="M30 30C30.8805 30 31.7364 29.7094 32.4349 29.1734C33.1335 28.6373 33.6356 27.8858 33.8635 27.0353C34.0914 26.1848 34.0323 25.2829 33.6954 24.4694C33.3585 23.6559 32.7625 22.9763 32 22.536" stroke="white" stroke-width="2" stroke-linecap="round" stroke-linejoin="round"/>
<path d="M31.967 29.483C32.0371 30.0252 31.9953 30.5761 31.8441 31.1015C31.693 31.6269 31.4357 32.1158 31.0882 32.5379C30.7407 32.96 30.3104 33.3064 29.8238 33.5557C29.3372 33.805 28.8046 33.9519 28.259 33.9873C27.7134 34.0227 27.1664 33.9459 26.6516 33.7616C26.1369 33.5773 25.6654 33.2894 25.2662 32.9157C24.8671 32.5421 24.5488 32.0905 24.331 31.589C24.1132 31.0875 24.0006 30.5467 24 30C23.9994 30.5467 23.8867 31.0875 23.669 31.589C23.4512 32.0905 23.1329 32.5421 22.7338 32.9157C22.3346 33.2894 21.8631 33.5773 21.3484 33.7616C20.8336 33.9459 20.2866 34.0227 19.741 33.9873C19.1954 33.9519 18.6628 33.805 18.1762 33.5557C17.6896 33.3064 17.2593 32.96 16.9118 32.5379C16.5643 32.1158 16.307 31.6269 16.1559 31.1015C16.0047 30.5761 15.9629 30.0252 16.033 29.483" stroke="white" stroke-width="2" stroke-linecap="round" stroke-linejoin="round"/>
<path d="M17.9998 30C17.1193 30 16.2634 29.7094 15.5649 29.1734C14.8664 28.6373 14.3642 27.8858 14.1363 27.0353C13.9084 26.1848 13.9675 25.2829 14.3044 24.4694C14.6414 23.6559 15.2373 22.9763 15.9998 22.536" stroke="white" stroke-width="2" stroke-linecap="round" stroke-linejoin="round"/>
<path d="M18.0039 17.125C17.4161 17.2761 16.8704 17.559 16.4081 17.9523C15.9459 18.3456 15.5791 18.8389 15.3357 19.3948C15.0924 19.9508 14.9787 20.5549 15.0033 21.1613C15.0279 21.7677 15.1902 22.3606 15.4779 22.895" stroke="white" stroke-width="2" stroke-linecap="round" stroke-linejoin="round"/>
</svg>
