<svg xmlns="http://www.w3.org/2000/svg" fill="none" viewBox="0 0 48 48">
  <path fill="#6DA9C6" d="M0 14C0 6.26801 6.26801 0 14 0h20c7.732 0 14 6.26801 14 14v20c0 7.732-6.268 14-14 14H14C6.26801 48 0 41.732 0 34V14Z"/>
  <path stroke="#fff" stroke-linecap="round" stroke-linejoin="round" stroke-width="2" d="M15.9995 26c-.1892.0006-.3748-.0524-.535-.153-.1603-.1006-.2888-.2447-.3704-.4154a.99984.99984 0 0 1-.0911-.549.999816.999816 0 0 1 .2165-.5126l9.9-10.2c.0743-.0857.1755-.1437.287-.1643a.499982.499982 0 0 1 .3267.0508c.1.0535.1789.1394.2236.2436.0448.1042.0528.2205.0227.3299l-1.92 6.02c-.0566.1515-.0756.3145-.0554.475.0202.1605.0791.3137.1715.4464.0924.1328.2157.2411.3592.3157.1435.0747.3029.1134.4647.1129h7c.1892-.0007.3748.0524.535.153.1603.1006.2888.2446.3705.4153.0816.1707.1132.3611.091.549-.0222.188-.0973.3657-.2165.5127l-9.9 10.2c-.0743.0857-.1755.1436-.287.1642-.1115.0207-.2267.0028-.3267-.0507-.1-.0535-.1789-.1394-.2236-.2436-.0448-.1042-.0528-.2206-.0227-.3299l1.92-6.02c.0566-.1515.0756-.3145.0554-.475-.0202-.1605-.0791-.3137-.1715-.4464-.0924-.1328-.2157-.2411-.3592-.3158A1.000597 1.000597 0 0 0 22.9995 26h-7Z"/>
</svg>
