<svg xmlns="http://www.w3.org/2000/svg" fill="none" viewBox="0 0 120 18">
  <g fill="#00BC6F" clip-path="url(#a)">
    <path d="M14.5424 5.11484 9.1162 12.5776h-.62401L3.17453 5.08689V17.6086H.027344V.419189H3.66288L8.87202 7.82602 14.0812.419189h3.6084V17.6086h-3.1472V5.11484Zm18.557 12.46596H20.6191V.391357h12.4803V3.54974h-9.3602v3.96895h9.0346v3.01861h-9.0346v3.8851h9.3602v3.1584Zm17.1468-8.74845c.0814 4.36025-2.496 8.74845-8.3563 8.74845h-6.5657V.391357h6.5657c5.7246 0 8.2749 4.192543 8.3563 8.440993ZM38.4443 14.4504h3.4456c3.7983 0 5.2905-2.851 5.2091-5.646-.0814-2.68323-1.6007-5.36646-5.2091-5.36646h-3.4456V14.4504Zm14.1631 3.1304V.391357h3.1201V17.5808h-3.1201ZM63.7847 3.32614h-5.2906V.391357h13.7283V3.32614h-5.2905V17.5808h-3.1472V3.32614Zm22.791 14.25466H74.0684V.391357h12.5073V3.54974h-9.3602v3.96895h9.0346v3.01861h-9.0346v3.8851h9.3602v3.1584Zm17.1453-2.1522c-1.71 1.7329-3.9343 2.5435-6.349 2.5435-6.213 0-8.8175-4.3882-8.8447-8.86029 0-4.50001 2.8217-9.083856 8.8719-9.083856 2.2518 0 4.4218.89441 6.1318 2.627326l-2.089 2.09628c-1.086-1.11802-2.5778-1.62112-4.0428-1.62112-4.0426 0-5.7789 3.10248-5.7518 5.98137.0271 2.85089 1.6279 5.81369 5.7518 5.81369 1.465 0 3.0928-.6149 4.2048-1.7329l2.117 2.236Zm13.159 2.18V10.649h-8.194v6.9596h-3.147V.419189h3.147V7.65832h8.194V.419189H120V17.6086h-3.12Z"/>
  </g>
  <defs>
    <clipPath id="a">
      <path fill="#fff" d="M0 0h120v18H0z"/>
    </clipPath>
  </defs>
</svg>
