<svg xmlns="http://www.w3.org/2000/svg" fill="none" viewBox="0 0 120 42">
  <g clip-path="url(#a)">
    <path fill="#C84634" d="M6.299 18.84C2.99003 18.16 0 14.56 0 11.2c0-1.96 1.47508-4.72 3.30897-6.15999L4.86379 3.8l6.73751-.12c6.299-.12 6.897-.07999 8.5715.76001 2.4717 1.16 3.8671 3.35999 4.0664 6.31999.2791 3.96-2.0332 7.12-5.9003 8-1.9934.48-9.76747.52-12.0399.08Zm12.2791-3.08c1.5548-.76 2.9501-2.8 2.9501-4.36 0-1.6-1.0365-3.55999-2.3521-4.31999C18.2193 6.52001 16.9435 6.4 12 6.4H6.01993L4.62459 7.8c-2.63123 2.6-1.87376 6.52 1.55481 8.04 1.83389.8 10.6445.76 12.3987-.08Zm7.615 3.16c-.1594-.12-.279-3.64-.279-7.8V3.59998h7.176c8.0133 0 9.01.24 10.3655 2.52.4385.72.7973 1.83999.7973 2.47999C44.2529 11.36 41.6217 14 38.8709 14h-1.196l1.5946 1.28c.8771.72 2.2326 1.88 2.9901 2.6l1.3953 1.28-2.0332.04c-1.9934 0-2.113-.04-6.5382-3.88l-4.505-3.92 4.1462-.08c5.2226-.16 5.701-.28 6.2591-1.56003.3987-.8.3987-1.23999 0-2.07999l-.5182-1.08-5.701-.12-5.6612-.12V19.2h-1.3156c-.7575 0-1.4751-.12-1.5947-.28Zm18.5774-.3199c.1196-.28 2.2325-3.72 4.7043-7.6 4.4252-7.00005 5.3422-8.00005 6.897-7.40005.6777.24 10.1661 14.48005 10.206 15.32005 0 .16-.7176.28-1.5947.28-1.4352 0-1.7143-.16-2.4319-1.4l-.8372-1.4h-8.093l-.917-1.4-.8771-1.4h7.9735l-2.0333-3.28c-1.1162-1.84004-2.1129-3.36004-2.1528-3.44004-.0399-.04-1.8339 2.72-3.9468 6.12004l-3.907 6.2h-1.5947c-1.2359 0-1.5548-.12-1.3953-.6Zm26.4309.1599c-5.1428-1.24-7.495-7.4-4.5448-11.88002 1.8339-2.76 3.5481-3.28 10.6046-3.28 3.3489 0 6.0598.12 6.0598.24s-.3588.76-.8372 1.4l-.7973 1.16H71.3609l-1.4352 1.32C67.3343 10.08 67.8526 14 71.0021 15.68c1.1163.6 2.2724.72 7.0565.72h5.7408l-.8372 1.32-.7973 1.28-4.7043.08c-2.5914.04-5.422-.12-6.2592-.32Zm14.8326 0c-.6379-.36-.7176-1.16-.7176-7.76V3.59998h2.7508l.1196 6.31999.1196 6.28003 6.6977.12c3.6678.04 6.6579.24 6.6579.44s-.359.8-.837 1.4l-.798 1.04h-6.6574c-3.7874 0-6.9768-.2-7.3356-.44Zm21.089-.12c-6.658-1.8-7.6149-11.12002-1.475-14.24002 1.355-.68 2.352-.8 7.814-.8h6.219l-.837 1.32-.798 1.28-5.302.2c-5.422.2-6.738.56-7.495 1.99999-.837 1.56-.598 1.6 6.618 1.6h7.016l-.837 1.32003-.797 1.28-6.219.12c-3.389.04-6.18.24-6.18.44 0 .84 1.754 2.44 3.11 2.84.797.2 3.867.4 6.777.4H120l-.877 1.4-.917 1.4-4.585-.04c-2.512 0-5.462-.24-6.498-.52Z"/>
    <path fill="#302D2A" d="M16.1463 39.28c-2.1528-.76-2.9901-2-2.9901-4.44 0-3.08 1.3555-4.56 4.1462-4.52 2.0333.04 3.4286 1.44 3.4286 3.52v1.36h-2.99c-2.6313 0-2.9901.08-2.9901.72 0 1.44 1.3954 2.2 3.5881 2 1.4751-.16 1.9933-.08 1.9933.32 0 .28-.1196.6-.3189.72-.598.36-3.1096.56-3.8671.32Zm2.99-6c0-1.64-2.5116-2.32-3.7475-1.04-1.2359 1.24-.7973 1.76 1.5548 1.76 1.8339 0 2.1927-.12 2.1927-.72Zm5.1837 6.0401c-1.794-.68-2.4718-2.44-1.5947-4.12.4385-.84 2.392-1.6 4.0664-1.6.9967 0 1.1562-.16 1.0366-.88-.1196-.84-.3189-.92-2.4319-.92-1.8339 0-2.2724-.12-2.1927-.56.2791-1.48 5.103-1.16 5.9003.36.1994.4.3987 2.28.3987 4.16 0 2.8-.1196 3.44-.598 3.44-.3189 0-.598-.28-.598-.68 0-.6-.0797-.6-.6777 0-.8373.72-2.4718 1.12-3.309.8Zm2.9103-2.04c.3588-.32.6777-1.04.6777-1.56 0-.76-.1993-.92-1.2359-.92-1.7142 0-2.7508.68-2.7508 1.8 0 1.72 1.6744 2.08 3.309.68ZM1.19727 33c0-5.92.03986-6.2.79734-6.2.71761 0 .79734.28.79734 2.6V32h6.77741v-2.6c0-2.36.07973-2.6.79734-2.6.7973 0 .7973.2.7176 6.08-.1196 5.44-.1993 6.12-.7973 6.24-.63791.12-.71764-.2-.71764-2.68V33.6H2.79195v2.8c0 2.52-.07973 2.8-.79734 2.8-.75748 0-.79734-.28-.79734-6.2Zm30.69843.44c0-3.44-.1594-5.88-.3986-6.04-.7974-.48-.3588-1 .7973-1h1.196v6.4c0 6.12-.0399 6.4-.7973 6.4-.7575 0-.7974-.28-.7974-5.76Zm5.0221 4.88c-.4385-.6-.6379-1.84-.6379-3.8 0-2.64-.0797-2.92-.7973-2.92-.9967 0-1.0366-.68-.0399-1 .4386-.12.9568-.76 1.196-1.4.5183-1.56 1.2359-1.52 1.2359 0 0 1 .1595 1.2.9967 1.2.6379 0 .9967.24.9967.6s-.3588.6-.9967.6c-1.0366 0-1.0366 0-.917 3.12.1196 2.84.1994 3.08 1.0366 3.2 1.3555.2 1.1163 1.28-.2791 1.28-.7973 0-1.3953-.32-1.794-.88Zm4.9435-5.52c0-6.12.0399-6.4.7974-6.4.7176 0 .7973.28.7973 2.4 0 1.32.0797 2.4.1595 2.4.0797 0 .6379-.24 1.2359-.56.7574-.4 1.4352-.44 2.2724-.2 1.9136.52 2.2724 1.36 2.3123 5.28 0 3.2-.0399 3.48-.7974 3.48-.7176 0-.7973-.28-.7973-3.32 0-3.6-.3189-4.28-1.9934-4.28-1.8338 0-2.392 1.08-2.392 4.52 0 2.8-.0797 3.08-.7973 3.08-.7575 0-.7974-.28-.7974-6.4Z"/>
  </g>
  <defs>
    <clipPath id="a">
      <path fill="#fff" d="M0 0h120v42H0z"/>
    </clipPath>
  </defs>
</svg>
