<svg width="470" height="353" viewBox="0 0 470 353" fill="none" xmlns="http://www.w3.org/2000/svg">
<rect y="56" width="470" height="297" rx="15" fill="#F0F8FC"/>
<path d="M54.0059 180L48.8496 163.198H48.7178C48.9033 166.616 48.9961 168.896 48.9961 170.039V180H44.9385V158.584H51.1201L56.1885 174.961H56.2764L61.6523 158.584H67.834V180H63.6006V169.863C63.6006 169.385 63.6055 168.833 63.6152 168.208C63.6348 167.583 63.7031 165.923 63.8203 163.228H63.6885L58.166 180H54.0059ZM86.3496 180L84.7969 174.902H76.9893L75.4365 180H70.5439L78.1025 158.496H83.6543L91.2422 180H86.3496ZM83.7129 171.094C82.2773 166.475 81.4668 163.862 81.2812 163.257C81.1055 162.651 80.9785 162.173 80.9004 161.821C80.5781 163.071 79.6553 166.162 78.1318 171.094H83.7129ZM111.179 180H106.022L100.412 170.977L98.4932 172.354V180H93.9521V158.584H98.4932V168.384L100.28 165.864L106.081 158.584H111.12L103.649 168.062L111.179 180ZM126.208 180H113.874V158.584H126.208V162.305H118.415V167.007H125.666V170.728H118.415V176.25H126.208V180ZM151.125 174.053C151.125 175.986 150.427 177.51 149.03 178.623C147.644 179.736 145.71 180.293 143.229 180.293C140.944 180.293 138.923 179.863 137.165 179.004V174.785C138.61 175.43 139.831 175.884 140.827 176.147C141.833 176.411 142.751 176.543 143.581 176.543C144.577 176.543 145.339 176.353 145.866 175.972C146.403 175.591 146.672 175.024 146.672 174.272C146.672 173.853 146.555 173.481 146.32 173.159C146.086 172.827 145.739 172.51 145.28 172.207C144.831 171.904 143.908 171.421 142.512 170.757C141.203 170.142 140.222 169.551 139.567 168.984C138.913 168.418 138.391 167.759 138 167.007C137.609 166.255 137.414 165.376 137.414 164.37C137.414 162.476 138.054 160.986 139.333 159.902C140.622 158.818 142.399 158.276 144.665 158.276C145.778 158.276 146.838 158.408 147.844 158.672C148.859 158.936 149.919 159.307 151.022 159.785L149.558 163.315C148.415 162.847 147.468 162.52 146.716 162.334C145.974 162.148 145.241 162.056 144.519 162.056C143.659 162.056 143 162.256 142.541 162.656C142.082 163.057 141.853 163.579 141.853 164.224C141.853 164.624 141.945 164.976 142.131 165.278C142.316 165.571 142.609 165.859 143.01 166.143C143.42 166.416 144.382 166.914 145.896 167.637C147.897 168.594 149.27 169.556 150.012 170.522C150.754 171.479 151.125 172.656 151.125 174.053ZM167.341 180H155.007V158.584H167.341V162.305H159.548V167.007H166.799V170.728H159.548V176.25H167.341V180ZM190.822 180H185.051L175.734 163.799H175.603C175.788 166.66 175.881 168.701 175.881 169.922V180H171.823V158.584H177.551L186.853 174.624H186.955C186.809 171.841 186.735 169.873 186.735 168.721V158.584H190.822V180ZM208.869 174.053C208.869 175.986 208.171 177.51 206.774 178.623C205.388 179.736 203.454 180.293 200.974 180.293C198.688 180.293 196.667 179.863 194.909 179.004V174.785C196.354 175.43 197.575 175.884 198.571 176.147C199.577 176.411 200.495 176.543 201.325 176.543C202.321 176.543 203.083 176.353 203.61 175.972C204.147 175.591 204.416 175.024 204.416 174.272C204.416 173.853 204.299 173.481 204.064 173.159C203.83 172.827 203.483 172.51 203.024 172.207C202.575 171.904 201.652 171.421 200.256 170.757C198.947 170.142 197.966 169.551 197.312 168.984C196.657 168.418 196.135 167.759 195.744 167.007C195.354 166.255 195.158 165.376 195.158 164.37C195.158 162.476 195.798 160.986 197.077 159.902C198.366 158.818 200.144 158.276 202.409 158.276C203.522 158.276 204.582 158.408 205.588 158.672C206.604 158.936 207.663 159.307 208.767 159.785L207.302 163.315C206.159 162.847 205.212 162.52 204.46 162.334C203.718 162.148 202.985 162.056 202.263 162.056C201.403 162.056 200.744 162.256 200.285 162.656C199.826 163.057 199.597 163.579 199.597 164.224C199.597 164.624 199.689 164.976 199.875 165.278C200.061 165.571 200.354 165.859 200.754 166.143C201.164 166.416 202.126 166.914 203.64 167.637C205.642 168.594 207.014 169.556 207.756 170.522C208.498 171.479 208.869 172.656 208.869 174.053ZM225.085 180H212.751V158.584H225.085V162.305H217.292V167.007H224.543V170.728H217.292V176.25H225.085V180ZM256.799 169.263C256.799 172.808 255.92 175.532 254.162 177.437C252.404 179.341 249.885 180.293 246.604 180.293C243.322 180.293 240.803 179.341 239.045 177.437C237.287 175.532 236.408 172.798 236.408 169.233C236.408 165.669 237.287 162.949 239.045 161.074C240.812 159.189 243.342 158.247 246.633 158.247C249.924 158.247 252.438 159.194 254.177 161.089C255.925 162.983 256.799 165.708 256.799 169.263ZM241.169 169.263C241.169 171.655 241.623 173.457 242.531 174.668C243.439 175.879 244.797 176.484 246.604 176.484C250.227 176.484 252.038 174.077 252.038 169.263C252.038 164.438 250.236 162.026 246.633 162.026C244.826 162.026 243.464 162.637 242.546 163.857C241.628 165.068 241.169 166.87 241.169 169.263ZM265.705 180H261.237V158.584H273.513V162.305H265.705V167.827H272.971V171.533H265.705V180ZM293.757 180H289.216V162.363H283.4V158.584H299.572V162.363H293.757V180ZM320.417 180H315.891V170.757H307.409V180H302.868V158.584H307.409V166.978H315.891V158.584H320.417V180ZM338.171 180H325.837V158.584H338.171V162.305H330.378V167.007H337.629V170.728H330.378V176.25H338.171V180ZM368.215 169.087C368.215 172.612 367.209 175.312 365.197 177.188C363.195 179.062 360.3 180 356.511 180H350.446V158.584H357.17C360.666 158.584 363.381 159.507 365.314 161.353C367.248 163.198 368.215 165.776 368.215 169.087ZM363.498 169.204C363.498 164.604 361.467 162.305 357.404 162.305H354.987V176.25H356.936C361.311 176.25 363.498 173.901 363.498 169.204ZM385.764 180L384.211 174.902H376.403L374.851 180H369.958L377.517 158.496H383.068L390.656 180H385.764ZM383.127 171.094C381.691 166.475 380.881 163.862 380.695 163.257C380.52 162.651 380.393 162.173 380.314 161.821C379.992 163.071 379.069 166.162 377.546 171.094H383.127ZM401.628 180H397.087V162.363H391.271V158.584H407.443V162.363H401.628V180ZM423.85 180L422.297 174.902H414.489L412.937 180H408.044L415.603 158.496H421.154L428.742 180H423.85ZM421.213 171.094C419.777 166.475 418.967 163.862 418.781 163.257C418.605 162.651 418.479 162.173 418.4 161.821C418.078 163.071 417.155 166.162 415.632 171.094H421.213Z" fill="black"/>
<path d="M61.5146 231H60.0205V219.478H55.9512V218.15H65.584V219.478H61.5146V231ZM73.8984 231V224.769C73.8984 223.983 73.7197 223.397 73.3623 223.011C73.0049 222.624 72.4453 222.431 71.6836 222.431C70.6699 222.431 69.9287 222.706 69.46 223.257C68.9971 223.808 68.7656 224.71 68.7656 225.964V231H67.3066V217.324H68.7656V221.464C68.7656 221.962 68.7422 222.375 68.6953 222.703H68.7832C69.0703 222.24 69.4775 221.877 70.0049 221.613C70.5381 221.344 71.1445 221.209 71.8242 221.209C73.002 221.209 73.8838 221.49 74.4697 222.053C75.0615 222.609 75.3574 223.497 75.3574 224.716V231H73.8984ZM82.4326 231.176C81.0088 231.176 79.8838 230.742 79.0576 229.875C78.2373 229.008 77.8271 227.804 77.8271 226.263C77.8271 224.71 78.208 223.477 78.9697 222.562C79.7373 221.648 80.7656 221.191 82.0547 221.191C83.2617 221.191 84.2168 221.59 84.9199 222.387C85.623 223.178 85.9746 224.224 85.9746 225.524V226.447H79.3389C79.3682 227.578 79.6523 228.437 80.1914 229.022C80.7363 229.608 81.501 229.901 82.4854 229.901C83.5225 229.901 84.5479 229.685 85.5615 229.251V230.552C85.0459 230.774 84.5566 230.933 84.0938 231.026C83.6367 231.126 83.083 231.176 82.4326 231.176ZM82.0371 222.413C81.2637 222.413 80.6455 222.665 80.1826 223.169C79.7256 223.673 79.4561 224.37 79.374 225.261H84.4102C84.4102 224.341 84.2051 223.638 83.7949 223.151C83.3848 222.659 82.7988 222.413 82.0371 222.413ZM96.2578 229.972C96.5156 229.972 96.7646 229.954 97.0049 229.919C97.2451 229.878 97.4355 229.837 97.5762 229.796V230.912C97.418 230.988 97.1836 231.05 96.873 231.097C96.5684 231.149 96.293 231.176 96.0469 231.176C94.1836 231.176 93.252 230.194 93.252 228.231V222.501H91.8721V221.798L93.252 221.191L93.8672 219.135H94.7109V221.367H97.5059V222.501H94.7109V228.17C94.7109 228.75 94.8486 229.195 95.124 229.506C95.3994 229.816 95.7773 229.972 96.2578 229.972ZM103.904 221.191C104.332 221.191 104.716 221.227 105.056 221.297L104.854 222.65C104.455 222.562 104.104 222.519 103.799 222.519C103.02 222.519 102.352 222.835 101.795 223.468C101.244 224.101 100.969 224.889 100.969 225.832V231H99.5098V221.367H100.714L100.881 223.151H100.951C101.309 222.524 101.739 222.041 102.243 221.701C102.747 221.361 103.301 221.191 103.904 221.191ZM108.316 231H106.857V221.367H108.316V231ZM106.734 218.757C106.734 218.423 106.816 218.18 106.98 218.027C107.145 217.869 107.35 217.79 107.596 217.79C107.83 217.79 108.032 217.869 108.202 218.027C108.372 218.186 108.457 218.429 108.457 218.757C108.457 219.085 108.372 219.331 108.202 219.495C108.032 219.653 107.83 219.732 107.596 219.732C107.35 219.732 107.145 219.653 106.98 219.495C106.816 219.331 106.734 219.085 106.734 218.757ZM115.26 231.176C113.865 231.176 112.784 230.748 112.017 229.893C111.255 229.031 110.874 227.815 110.874 226.245C110.874 224.634 111.261 223.389 112.034 222.51C112.813 221.631 113.921 221.191 115.356 221.191C115.819 221.191 116.282 221.241 116.745 221.341C117.208 221.44 117.571 221.558 117.835 221.692L117.387 222.932C117.064 222.803 116.713 222.697 116.332 222.615C115.951 222.527 115.614 222.483 115.321 222.483C113.364 222.483 112.386 223.731 112.386 226.228C112.386 227.411 112.623 228.319 113.098 228.952C113.578 229.585 114.287 229.901 115.225 229.901C116.027 229.901 116.851 229.729 117.694 229.383V230.675C117.05 231.009 116.238 231.176 115.26 231.176ZM121.43 226.069C121.682 225.712 122.065 225.243 122.581 224.663L125.692 221.367H127.424L123.521 225.472L127.696 231H125.93L122.528 226.447L121.43 227.396V231H119.988V217.324H121.43V224.575C121.43 224.897 121.406 225.396 121.359 226.069H121.43ZM130.904 231H129.445V221.367H130.904V231ZM129.322 218.757C129.322 218.423 129.404 218.18 129.568 218.027C129.732 217.869 129.938 217.79 130.184 217.79C130.418 217.79 130.62 217.869 130.79 218.027C130.96 218.186 131.045 218.429 131.045 218.757C131.045 219.085 130.96 219.331 130.79 219.495C130.62 219.653 130.418 219.732 130.184 219.732C129.938 219.732 129.732 219.653 129.568 219.495C129.404 219.331 129.322 219.085 129.322 218.757ZM138.067 231.176C136.644 231.176 135.519 230.742 134.692 229.875C133.872 229.008 133.462 227.804 133.462 226.263C133.462 224.71 133.843 223.477 134.604 222.562C135.372 221.648 136.4 221.191 137.689 221.191C138.896 221.191 139.852 221.59 140.555 222.387C141.258 223.178 141.609 224.224 141.609 225.524V226.447H134.974C135.003 227.578 135.287 228.437 135.826 229.022C136.371 229.608 137.136 229.901 138.12 229.901C139.157 229.901 140.183 229.685 141.196 229.251V230.552C140.681 230.774 140.191 230.933 139.729 231.026C139.271 231.126 138.718 231.176 138.067 231.176ZM137.672 222.413C136.898 222.413 136.28 222.665 135.817 223.169C135.36 223.673 135.091 224.37 135.009 225.261H140.045C140.045 224.341 139.84 223.638 139.43 223.151C139.02 222.659 138.434 222.413 137.672 222.413ZM150.319 228.372C150.319 229.269 149.985 229.96 149.317 230.446C148.649 230.933 147.712 231.176 146.505 231.176C145.228 231.176 144.231 230.974 143.517 230.569V229.216C143.979 229.45 144.475 229.635 145.002 229.77C145.535 229.904 146.048 229.972 146.54 229.972C147.302 229.972 147.888 229.852 148.298 229.611C148.708 229.365 148.913 228.993 148.913 228.495C148.913 228.12 148.749 227.801 148.421 227.537C148.099 227.268 147.466 226.951 146.522 226.588C145.626 226.254 144.987 225.964 144.606 225.718C144.231 225.466 143.95 225.182 143.763 224.865C143.581 224.549 143.49 224.171 143.49 223.731C143.49 222.946 143.81 222.328 144.448 221.877C145.087 221.42 145.963 221.191 147.076 221.191C148.113 221.191 149.127 221.402 150.117 221.824L149.599 223.011C148.632 222.612 147.756 222.413 146.971 222.413C146.279 222.413 145.758 222.521 145.406 222.738C145.055 222.955 144.879 223.254 144.879 223.635C144.879 223.893 144.943 224.112 145.072 224.294C145.207 224.476 145.421 224.648 145.714 224.812C146.007 224.977 146.569 225.214 147.401 225.524C148.544 225.94 149.314 226.359 149.713 226.781C150.117 227.203 150.319 227.733 150.319 228.372ZM155.812 229.972C156.07 229.972 156.319 229.954 156.56 229.919C156.8 229.878 156.99 229.837 157.131 229.796V230.912C156.973 230.988 156.738 231.05 156.428 231.097C156.123 231.149 155.848 231.176 155.602 231.176C153.738 231.176 152.807 230.194 152.807 228.231V222.501H151.427V221.798L152.807 221.191L153.422 219.135H154.266V221.367H157.061V222.501H154.266V228.17C154.266 228.75 154.403 229.195 154.679 229.506C154.954 229.816 155.332 229.972 155.812 229.972ZM168.223 231.176C167.596 231.176 167.021 231.062 166.5 230.833C165.984 230.599 165.551 230.241 165.199 229.761H165.094C165.164 230.323 165.199 230.856 165.199 231.36V235.324H163.74V221.367H164.927L165.129 222.686H165.199C165.574 222.158 166.011 221.777 166.509 221.543C167.007 221.309 167.578 221.191 168.223 221.191C169.5 221.191 170.484 221.628 171.176 222.501C171.873 223.374 172.222 224.599 172.222 226.175C172.222 227.757 171.867 228.987 171.158 229.866C170.455 230.739 169.477 231.176 168.223 231.176ZM168.012 222.431C167.027 222.431 166.315 222.703 165.876 223.248C165.437 223.793 165.211 224.66 165.199 225.85V226.175C165.199 227.528 165.425 228.498 165.876 229.084C166.327 229.664 167.051 229.954 168.047 229.954C168.879 229.954 169.529 229.617 169.998 228.943C170.473 228.27 170.71 227.341 170.71 226.157C170.71 224.956 170.473 224.036 169.998 223.397C169.529 222.753 168.867 222.431 168.012 222.431ZM180.703 231L180.413 229.629H180.343C179.862 230.232 179.382 230.643 178.901 230.859C178.427 231.07 177.832 231.176 177.117 231.176C176.162 231.176 175.412 230.93 174.867 230.438C174.328 229.945 174.059 229.245 174.059 228.337C174.059 226.392 175.614 225.372 178.726 225.278L180.36 225.226V224.628C180.36 223.872 180.196 223.315 179.868 222.958C179.546 222.595 179.027 222.413 178.312 222.413C177.51 222.413 176.602 222.659 175.588 223.151L175.14 222.035C175.614 221.777 176.133 221.575 176.695 221.429C177.264 221.282 177.832 221.209 178.4 221.209C179.549 221.209 180.398 221.464 180.949 221.974C181.506 222.483 181.784 223.301 181.784 224.426V231H180.703ZM177.407 229.972C178.315 229.972 179.027 229.723 179.543 229.225C180.064 228.727 180.325 228.029 180.325 227.133V226.263L178.866 226.324C177.706 226.365 176.868 226.547 176.353 226.869C175.843 227.186 175.588 227.681 175.588 228.354C175.588 228.882 175.746 229.283 176.062 229.559C176.385 229.834 176.833 229.972 177.407 229.972ZM189.193 221.191C189.621 221.191 190.005 221.227 190.345 221.297L190.143 222.65C189.744 222.562 189.393 222.519 189.088 222.519C188.309 222.519 187.641 222.835 187.084 223.468C186.533 224.101 186.258 224.889 186.258 225.832V231H184.799V221.367H186.003L186.17 223.151H186.24C186.598 222.524 187.028 222.041 187.532 221.701C188.036 221.361 188.59 221.191 189.193 221.191ZM195.258 229.972C195.516 229.972 195.765 229.954 196.005 229.919C196.245 229.878 196.436 229.837 196.576 229.796V230.912C196.418 230.988 196.184 231.05 195.873 231.097C195.568 231.149 195.293 231.176 195.047 231.176C193.184 231.176 192.252 230.194 192.252 228.231V222.501H190.872V221.798L192.252 221.191L192.867 219.135H193.711V221.367H196.506V222.501H193.711V228.17C193.711 228.75 193.849 229.195 194.124 229.506C194.399 229.816 194.777 229.972 195.258 229.972ZM211.5 226.175C211.5 227.745 211.104 228.973 210.313 229.857C209.522 230.736 208.43 231.176 207.035 231.176C206.174 231.176 205.409 230.974 204.741 230.569C204.073 230.165 203.558 229.585 203.194 228.829C202.831 228.073 202.649 227.188 202.649 226.175C202.649 224.604 203.042 223.383 203.827 222.51C204.612 221.631 205.702 221.191 207.097 221.191C208.444 221.191 209.514 221.64 210.305 222.536C211.102 223.433 211.5 224.646 211.5 226.175ZM204.161 226.175C204.161 227.405 204.407 228.343 204.899 228.987C205.392 229.632 206.115 229.954 207.07 229.954C208.025 229.954 208.749 229.635 209.241 228.996C209.739 228.352 209.988 227.411 209.988 226.175C209.988 224.95 209.739 224.021 209.241 223.389C208.749 222.75 208.02 222.431 207.053 222.431C206.098 222.431 205.377 222.744 204.891 223.371C204.404 223.998 204.161 224.933 204.161 226.175ZM218.408 222.501H215.956V231H214.497V222.501H212.774V221.842L214.497 221.314V220.778C214.497 218.411 215.531 217.228 217.6 217.228C218.109 217.228 218.707 217.33 219.393 217.535L219.015 218.704C218.452 218.522 217.972 218.432 217.573 218.432C217.022 218.432 216.615 218.616 216.352 218.985C216.088 219.349 215.956 219.935 215.956 220.743V221.367H218.408V222.501ZM231.398 229.708H231.319C230.646 230.687 229.638 231.176 228.296 231.176C227.036 231.176 226.055 230.745 225.352 229.884C224.654 229.022 224.306 227.798 224.306 226.21C224.306 224.622 224.657 223.389 225.36 222.51C226.063 221.631 227.042 221.191 228.296 221.191C229.603 221.191 230.604 221.666 231.302 222.615H231.416L231.354 221.921L231.319 221.244V217.324H232.778V231H231.592L231.398 229.708ZM228.48 229.954C229.477 229.954 230.197 229.685 230.643 229.146C231.094 228.601 231.319 227.725 231.319 226.518V226.21C231.319 224.845 231.091 223.872 230.634 223.292C230.183 222.706 229.459 222.413 228.463 222.413C227.607 222.413 226.951 222.747 226.494 223.415C226.043 224.077 225.817 225.015 225.817 226.228C225.817 227.458 226.043 228.387 226.494 229.014C226.945 229.641 227.607 229.954 228.48 229.954ZM241.805 231L241.515 229.629H241.444C240.964 230.232 240.483 230.643 240.003 230.859C239.528 231.07 238.934 231.176 238.219 231.176C237.264 231.176 236.514 230.93 235.969 230.438C235.43 229.945 235.16 229.245 235.16 228.337C235.16 226.392 236.716 225.372 239.827 225.278L241.462 225.226V224.628C241.462 223.872 241.298 223.315 240.97 222.958C240.647 222.595 240.129 222.413 239.414 222.413C238.611 222.413 237.703 222.659 236.689 223.151L236.241 222.035C236.716 221.777 237.234 221.575 237.797 221.429C238.365 221.282 238.934 221.209 239.502 221.209C240.65 221.209 241.5 221.464 242.051 221.974C242.607 222.483 242.886 223.301 242.886 224.426V231H241.805ZM238.509 229.972C239.417 229.972 240.129 229.723 240.645 229.225C241.166 228.727 241.427 228.029 241.427 227.133V226.263L239.968 226.324C238.808 226.365 237.97 226.547 237.454 226.869C236.944 227.186 236.689 227.681 236.689 228.354C236.689 228.882 236.848 229.283 237.164 229.559C237.486 229.834 237.935 229.972 238.509 229.972ZM249.012 229.972C249.27 229.972 249.519 229.954 249.759 229.919C249.999 229.878 250.189 229.837 250.33 229.796V230.912C250.172 230.988 249.938 231.05 249.627 231.097C249.322 231.149 249.047 231.176 248.801 231.176C246.938 231.176 246.006 230.194 246.006 228.231V222.501H244.626V221.798L246.006 221.191L246.621 219.135H247.465V221.367H250.26V222.501H247.465V228.17C247.465 228.75 247.603 229.195 247.878 229.506C248.153 229.816 248.531 229.972 249.012 229.972ZM258.188 231L257.897 229.629H257.827C257.347 230.232 256.866 230.643 256.386 230.859C255.911 231.07 255.316 231.176 254.602 231.176C253.646 231.176 252.896 230.93 252.352 230.438C251.812 229.945 251.543 229.245 251.543 228.337C251.543 226.392 253.099 225.372 256.21 225.278L257.845 225.226V224.628C257.845 223.872 257.681 223.315 257.353 222.958C257.03 222.595 256.512 222.413 255.797 222.413C254.994 222.413 254.086 222.659 253.072 223.151L252.624 222.035C253.099 221.777 253.617 221.575 254.18 221.429C254.748 221.282 255.316 221.209 255.885 221.209C257.033 221.209 257.883 221.464 258.434 221.974C258.99 222.483 259.269 223.301 259.269 224.426V231H258.188ZM254.892 229.972C255.8 229.972 256.512 229.723 257.027 229.225C257.549 228.727 257.81 228.029 257.81 227.133V226.263L256.351 226.324C255.19 226.365 254.353 226.547 253.837 226.869C253.327 227.186 253.072 227.681 253.072 228.354C253.072 228.882 253.23 229.283 253.547 229.559C253.869 229.834 254.317 229.972 254.892 229.972ZM272.883 231L272.593 229.629H272.522C272.042 230.232 271.562 230.643 271.081 230.859C270.606 231.07 270.012 231.176 269.297 231.176C268.342 231.176 267.592 230.93 267.047 230.438C266.508 229.945 266.238 229.245 266.238 228.337C266.238 226.392 267.794 225.372 270.905 225.278L272.54 225.226V224.628C272.54 223.872 272.376 223.315 272.048 222.958C271.726 222.595 271.207 222.413 270.492 222.413C269.689 222.413 268.781 222.659 267.768 223.151L267.319 222.035C267.794 221.777 268.312 221.575 268.875 221.429C269.443 221.282 270.012 221.209 270.58 221.209C271.729 221.209 272.578 221.464 273.129 221.974C273.686 222.483 273.964 223.301 273.964 224.426V231H272.883ZM269.587 229.972C270.495 229.972 271.207 229.723 271.723 229.225C272.244 228.727 272.505 228.029 272.505 227.133V226.263L271.046 226.324C269.886 226.365 269.048 226.547 268.532 226.869C268.022 227.186 267.768 227.681 267.768 228.354C267.768 228.882 267.926 229.283 268.242 229.559C268.564 229.834 269.013 229.972 269.587 229.972ZM283.57 231V224.769C283.57 223.983 283.392 223.397 283.034 223.011C282.677 222.624 282.117 222.431 281.355 222.431C280.348 222.431 279.609 222.703 279.141 223.248C278.672 223.793 278.438 224.692 278.438 225.946V231H276.979V221.367H278.165L278.402 222.686H278.473C278.771 222.211 279.19 221.845 279.729 221.587C280.269 221.323 280.869 221.191 281.531 221.191C282.691 221.191 283.564 221.473 284.15 222.035C284.736 222.592 285.029 223.485 285.029 224.716V231H283.57ZM293.959 231L293.669 229.629H293.599C293.118 230.232 292.638 230.643 292.157 230.859C291.683 231.07 291.088 231.176 290.373 231.176C289.418 231.176 288.668 230.93 288.123 230.438C287.584 229.945 287.314 229.245 287.314 228.337C287.314 226.392 288.87 225.372 291.981 225.278L293.616 225.226V224.628C293.616 223.872 293.452 223.315 293.124 222.958C292.802 222.595 292.283 222.413 291.568 222.413C290.766 222.413 289.857 222.659 288.844 223.151L288.396 222.035C288.87 221.777 289.389 221.575 289.951 221.429C290.52 221.282 291.088 221.209 291.656 221.209C292.805 221.209 293.654 221.464 294.205 221.974C294.762 222.483 295.04 223.301 295.04 224.426V231H293.959ZM290.663 229.972C291.571 229.972 292.283 229.723 292.799 229.225C293.32 228.727 293.581 228.029 293.581 227.133V226.263L292.122 226.324C290.962 226.365 290.124 226.547 289.608 226.869C289.099 227.186 288.844 227.681 288.844 228.354C288.844 228.882 289.002 229.283 289.318 229.559C289.641 229.834 290.089 229.972 290.663 229.972ZM299.514 231H298.055V217.324H299.514V231ZM301.078 221.367H302.643L304.752 226.86C305.215 228.114 305.502 229.02 305.613 229.576H305.684C305.76 229.277 305.918 228.768 306.158 228.047C306.404 227.32 307.201 225.094 308.549 221.367H310.113L305.974 232.336C305.563 233.42 305.083 234.188 304.532 234.639C303.987 235.096 303.316 235.324 302.52 235.324C302.074 235.324 301.635 235.274 301.201 235.175V234.006C301.523 234.076 301.884 234.111 302.282 234.111C303.284 234.111 303.999 233.549 304.427 232.424L304.963 231.053L301.078 221.367ZM317.892 228.372C317.892 229.269 317.558 229.96 316.89 230.446C316.222 230.933 315.284 231.176 314.077 231.176C312.8 231.176 311.804 230.974 311.089 230.569V229.216C311.552 229.45 312.047 229.635 312.574 229.77C313.107 229.904 313.62 229.972 314.112 229.972C314.874 229.972 315.46 229.852 315.87 229.611C316.28 229.365 316.485 228.993 316.485 228.495C316.485 228.12 316.321 227.801 315.993 227.537C315.671 227.268 315.038 226.951 314.095 226.588C313.198 226.254 312.56 225.964 312.179 225.718C311.804 225.466 311.522 225.182 311.335 224.865C311.153 224.549 311.062 224.171 311.062 223.731C311.062 222.946 311.382 222.328 312.021 221.877C312.659 221.42 313.535 221.191 314.648 221.191C315.686 221.191 316.699 221.402 317.689 221.824L317.171 223.011C316.204 222.612 315.328 222.413 314.543 222.413C313.852 222.413 313.33 222.521 312.979 222.738C312.627 222.955 312.451 223.254 312.451 223.635C312.451 223.893 312.516 224.112 312.645 224.294C312.779 224.476 312.993 224.648 313.286 224.812C313.579 224.977 314.142 225.214 314.974 225.524C316.116 225.94 316.887 226.359 317.285 226.781C317.689 227.203 317.892 227.733 317.892 228.372ZM321.732 231H320.273V221.367H321.732V231ZM320.15 218.757C320.15 218.423 320.232 218.18 320.396 218.027C320.561 217.869 320.766 217.79 321.012 217.79C321.246 217.79 321.448 217.869 321.618 218.027C321.788 218.186 321.873 218.429 321.873 218.757C321.873 219.085 321.788 219.331 321.618 219.495C321.448 219.653 321.246 219.732 321.012 219.732C320.766 219.732 320.561 219.653 320.396 219.495C320.232 219.331 320.15 219.085 320.15 218.757ZM331.04 228.372C331.04 229.269 330.706 229.96 330.038 230.446C329.37 230.933 328.433 231.176 327.226 231.176C325.948 231.176 324.952 230.974 324.237 230.569V229.216C324.7 229.45 325.195 229.635 325.723 229.77C326.256 229.904 326.769 229.972 327.261 229.972C328.022 229.972 328.608 229.852 329.019 229.611C329.429 229.365 329.634 228.993 329.634 228.495C329.634 228.12 329.47 227.801 329.142 227.537C328.819 227.268 328.187 226.951 327.243 226.588C326.347 226.254 325.708 225.964 325.327 225.718C324.952 225.466 324.671 225.182 324.483 224.865C324.302 224.549 324.211 224.171 324.211 223.731C324.211 222.946 324.53 222.328 325.169 221.877C325.808 221.42 326.684 221.191 327.797 221.191C328.834 221.191 329.848 221.402 330.838 221.824L330.319 223.011C329.353 222.612 328.477 222.413 327.691 222.413C327 222.413 326.479 222.521 326.127 222.738C325.775 222.955 325.6 223.254 325.6 223.635C325.6 223.893 325.664 224.112 325.793 224.294C325.928 224.476 326.142 224.648 326.435 224.812C326.728 224.977 327.29 225.214 328.122 225.524C329.265 225.94 330.035 226.359 330.434 226.781C330.838 227.203 331.04 227.733 331.04 228.372ZM339.557 231H338.098V221.367H339.557V231ZM337.975 218.757C337.975 218.423 338.057 218.18 338.221 218.027C338.385 217.869 338.59 217.79 338.836 217.79C339.07 217.79 339.272 217.869 339.442 218.027C339.612 218.186 339.697 218.429 339.697 218.757C339.697 219.085 339.612 219.331 339.442 219.495C339.272 219.653 339.07 219.732 338.836 219.732C338.59 219.732 338.385 219.653 338.221 219.495C338.057 219.331 337.975 219.085 337.975 218.757ZM348.864 228.372C348.864 229.269 348.53 229.96 347.862 230.446C347.194 230.933 346.257 231.176 345.05 231.176C343.772 231.176 342.776 230.974 342.062 230.569V229.216C342.524 229.45 343.02 229.635 343.547 229.77C344.08 229.904 344.593 229.972 345.085 229.972C345.847 229.972 346.433 229.852 346.843 229.611C347.253 229.365 347.458 228.993 347.458 228.495C347.458 228.12 347.294 227.801 346.966 227.537C346.644 227.268 346.011 226.951 345.067 226.588C344.171 226.254 343.532 225.964 343.151 225.718C342.776 225.466 342.495 225.182 342.308 224.865C342.126 224.549 342.035 224.171 342.035 223.731C342.035 222.946 342.354 222.328 342.993 221.877C343.632 221.42 344.508 221.191 345.621 221.191C346.658 221.191 347.672 221.402 348.662 221.824L348.144 223.011C347.177 222.612 346.301 222.413 345.516 222.413C344.824 222.413 344.303 222.521 343.951 222.738C343.6 222.955 343.424 223.254 343.424 223.635C343.424 223.893 343.488 224.112 343.617 224.294C343.752 224.476 343.966 224.648 344.259 224.812C344.552 224.977 345.114 225.214 345.946 225.524C347.089 225.94 347.859 226.359 348.258 226.781C348.662 227.203 348.864 227.733 348.864 228.372ZM359.771 231.176C358.377 231.176 357.296 230.748 356.528 229.893C355.767 229.031 355.386 227.815 355.386 226.245C355.386 224.634 355.772 223.389 356.546 222.51C357.325 221.631 358.433 221.191 359.868 221.191C360.331 221.191 360.794 221.241 361.257 221.341C361.72 221.44 362.083 221.558 362.347 221.692L361.898 222.932C361.576 222.803 361.225 222.697 360.844 222.615C360.463 222.527 360.126 222.483 359.833 222.483C357.876 222.483 356.897 223.731 356.897 226.228C356.897 227.411 357.135 228.319 357.609 228.952C358.09 229.585 358.799 229.901 359.736 229.901C360.539 229.901 361.362 229.729 362.206 229.383V230.675C361.562 231.009 360.75 231.176 359.771 231.176ZM365.871 221.367V227.616C365.871 228.401 366.05 228.987 366.407 229.374C366.765 229.761 367.324 229.954 368.086 229.954C369.094 229.954 369.829 229.679 370.292 229.128C370.761 228.577 370.995 227.678 370.995 226.43V221.367H372.454V231H371.25L371.039 229.708H370.96C370.661 230.183 370.245 230.546 369.712 230.798C369.185 231.05 368.581 231.176 367.901 231.176C366.729 231.176 365.851 230.897 365.265 230.341C364.685 229.784 364.395 228.894 364.395 227.669V221.367H365.871ZM378.668 229.972C378.926 229.972 379.175 229.954 379.415 229.919C379.655 229.878 379.846 229.837 379.986 229.796V230.912C379.828 230.988 379.594 231.05 379.283 231.097C378.979 231.149 378.703 231.176 378.457 231.176C376.594 231.176 375.662 230.194 375.662 228.231V222.501H374.282V221.798L375.662 221.191L376.277 219.135H377.121V221.367H379.916V222.501H377.121V228.17C377.121 228.75 377.259 229.195 377.534 229.506C377.81 229.816 378.188 229.972 378.668 229.972ZM385.031 229.972C385.289 229.972 385.538 229.954 385.778 229.919C386.019 229.878 386.209 229.837 386.35 229.796V230.912C386.191 230.988 385.957 231.05 385.646 231.097C385.342 231.149 385.066 231.176 384.82 231.176C382.957 231.176 382.025 230.194 382.025 228.231V222.501H380.646V221.798L382.025 221.191L382.641 219.135H383.484V221.367H386.279V222.501H383.484V228.17C383.484 228.75 383.622 229.195 383.897 229.506C384.173 229.816 384.551 229.972 385.031 229.972ZM389.742 231H388.283V221.367H389.742V231ZM388.16 218.757C388.16 218.423 388.242 218.18 388.406 218.027C388.57 217.869 388.775 217.79 389.021 217.79C389.256 217.79 389.458 217.869 389.628 218.027C389.798 218.186 389.883 218.429 389.883 218.757C389.883 219.085 389.798 219.331 389.628 219.495C389.458 219.653 389.256 219.732 389.021 219.732C388.775 219.732 388.57 219.653 388.406 219.495C388.242 219.331 388.16 219.085 388.16 218.757ZM399.428 231V224.769C399.428 223.983 399.249 223.397 398.892 223.011C398.534 222.624 397.975 222.431 397.213 222.431C396.205 222.431 395.467 222.703 394.998 223.248C394.529 223.793 394.295 224.692 394.295 225.946V231H392.836V221.367H394.022L394.26 222.686H394.33C394.629 222.211 395.048 221.845 395.587 221.587C396.126 221.323 396.727 221.191 397.389 221.191C398.549 221.191 399.422 221.473 400.008 222.035C400.594 222.592 400.887 223.485 400.887 224.716V231H399.428ZM411.776 221.367V222.29L409.992 222.501C410.156 222.706 410.303 222.976 410.432 223.31C410.561 223.638 410.625 224.01 410.625 224.426C410.625 225.369 410.303 226.122 409.658 226.685C409.014 227.247 408.129 227.528 407.004 227.528C406.717 227.528 406.447 227.505 406.195 227.458C405.574 227.786 405.264 228.199 405.264 228.697C405.264 228.961 405.372 229.157 405.589 229.286C405.806 229.409 406.178 229.471 406.705 229.471H408.41C409.453 229.471 410.253 229.69 410.81 230.13C411.372 230.569 411.653 231.208 411.653 232.046C411.653 233.112 411.226 233.924 410.37 234.48C409.515 235.043 408.267 235.324 406.626 235.324C405.366 235.324 404.394 235.09 403.708 234.621C403.028 234.152 402.688 233.49 402.688 232.635C402.688 232.049 402.876 231.542 403.251 231.114C403.626 230.687 404.153 230.396 404.833 230.244C404.587 230.133 404.379 229.96 404.209 229.726C404.045 229.491 403.963 229.219 403.963 228.908C403.963 228.557 404.057 228.249 404.244 227.985C404.432 227.722 404.728 227.467 405.132 227.221C404.634 227.016 404.227 226.667 403.91 226.175C403.6 225.683 403.444 225.12 403.444 224.487C403.444 223.433 403.761 222.621 404.394 222.053C405.026 221.479 405.923 221.191 407.083 221.191C407.587 221.191 408.041 221.25 408.445 221.367H411.776ZM404.095 232.617C404.095 233.139 404.314 233.534 404.754 233.804C405.193 234.073 405.823 234.208 406.644 234.208C407.868 234.208 408.773 234.023 409.359 233.654C409.951 233.291 410.247 232.796 410.247 232.169C410.247 231.647 410.086 231.284 409.764 231.079C409.441 230.88 408.835 230.78 407.944 230.78H406.195C405.533 230.78 405.018 230.938 404.648 231.255C404.279 231.571 404.095 232.025 404.095 232.617ZM404.886 224.452C404.886 225.126 405.076 225.636 405.457 225.981C405.838 226.327 406.368 226.5 407.048 226.5C408.472 226.5 409.184 225.809 409.184 224.426C409.184 222.979 408.463 222.255 407.021 222.255C406.336 222.255 405.809 222.439 405.439 222.809C405.07 223.178 404.886 223.726 404.886 224.452ZM41.4053 254.972C41.6631 254.972 41.9121 254.954 42.1523 254.919C42.3926 254.878 42.583 254.837 42.7236 254.796V255.912C42.5654 255.988 42.3311 256.05 42.0205 256.097C41.7158 256.149 41.4404 256.176 41.1943 256.176C39.3311 256.176 38.3994 255.194 38.3994 253.231V247.501H37.0195V246.798L38.3994 246.191L39.0146 244.135H39.8584V246.367H42.6533V247.501H39.8584V253.17C39.8584 253.75 39.9961 254.195 40.2715 254.506C40.5469 254.816 40.9248 254.972 41.4053 254.972ZM51.249 256V249.769C51.249 248.983 51.0703 248.397 50.7129 248.011C50.3555 247.624 49.7959 247.431 49.0342 247.431C48.0205 247.431 47.2793 247.706 46.8105 248.257C46.3477 248.808 46.1162 249.71 46.1162 250.964V256H44.6572V242.324H46.1162V246.464C46.1162 246.962 46.0928 247.375 46.0459 247.703H46.1338C46.4209 247.24 46.8281 246.877 47.3555 246.613C47.8887 246.344 48.4951 246.209 49.1748 246.209C50.3525 246.209 51.2344 246.49 51.8203 247.053C52.4121 247.609 52.708 248.497 52.708 249.716V256H51.249ZM60.1084 246.191C60.5361 246.191 60.9199 246.227 61.2598 246.297L61.0576 247.65C60.6592 247.562 60.3076 247.519 60.0029 247.519C59.2236 247.519 58.5557 247.835 57.999 248.468C57.4482 249.101 57.1729 249.889 57.1729 250.832V256H55.7139V246.367H56.918L57.085 248.151H57.1553C57.5127 247.524 57.9434 247.041 58.4473 246.701C58.9512 246.361 59.5049 246.191 60.1084 246.191ZM71.376 251.175C71.376 252.745 70.9805 253.973 70.1895 254.857C69.3984 255.736 68.3057 256.176 66.9111 256.176C66.0498 256.176 65.2852 255.974 64.6172 255.569C63.9492 255.165 63.4336 254.585 63.0703 253.829C62.707 253.073 62.5254 252.188 62.5254 251.175C62.5254 249.604 62.918 248.383 63.7031 247.51C64.4883 246.631 65.5781 246.191 66.9727 246.191C68.3203 246.191 69.3896 246.64 70.1807 247.536C70.9775 248.433 71.376 249.646 71.376 251.175ZM64.0371 251.175C64.0371 252.405 64.2832 253.343 64.7754 253.987C65.2676 254.632 65.9912 254.954 66.9463 254.954C67.9014 254.954 68.625 254.635 69.1172 253.996C69.6152 253.352 69.8643 252.411 69.8643 251.175C69.8643 249.95 69.6152 249.021 69.1172 248.389C68.625 247.75 67.8955 247.431 66.9287 247.431C65.9736 247.431 65.2529 247.744 64.7666 248.371C64.2803 248.998 64.0371 249.933 64.0371 251.175ZM75.3135 246.367V252.616C75.3135 253.401 75.4922 253.987 75.8496 254.374C76.207 254.761 76.7666 254.954 77.5283 254.954C78.5361 254.954 79.2715 254.679 79.7344 254.128C80.2031 253.577 80.4375 252.678 80.4375 251.43V246.367H81.8965V256H80.6924L80.4814 254.708H80.4023C80.1035 255.183 79.6875 255.546 79.1543 255.798C78.627 256.05 78.0234 256.176 77.3438 256.176C76.1719 256.176 75.293 255.897 74.707 255.341C74.127 254.784 73.8369 253.894 73.8369 252.669V246.367H75.3135ZM92.8828 246.367V247.29L91.0986 247.501C91.2627 247.706 91.4092 247.976 91.5381 248.31C91.667 248.638 91.7314 249.01 91.7314 249.426C91.7314 250.369 91.4092 251.122 90.7646 251.685C90.1201 252.247 89.2354 252.528 88.1104 252.528C87.8232 252.528 87.5537 252.505 87.3018 252.458C86.6807 252.786 86.3701 253.199 86.3701 253.697C86.3701 253.961 86.4785 254.157 86.6953 254.286C86.9121 254.409 87.2842 254.471 87.8115 254.471H89.5166C90.5596 254.471 91.3594 254.69 91.916 255.13C92.4785 255.569 92.7598 256.208 92.7598 257.046C92.7598 258.112 92.332 258.924 91.4766 259.48C90.6211 260.043 89.373 260.324 87.7324 260.324C86.4727 260.324 85.5 260.09 84.8145 259.621C84.1348 259.152 83.7949 258.49 83.7949 257.635C83.7949 257.049 83.9824 256.542 84.3574 256.114C84.7324 255.687 85.2598 255.396 85.9395 255.244C85.6934 255.133 85.4854 254.96 85.3154 254.726C85.1514 254.491 85.0693 254.219 85.0693 253.908C85.0693 253.557 85.1631 253.249 85.3506 252.985C85.5381 252.722 85.834 252.467 86.2383 252.221C85.7402 252.016 85.333 251.667 85.0166 251.175C84.7061 250.683 84.5508 250.12 84.5508 249.487C84.5508 248.433 84.8672 247.621 85.5 247.053C86.1328 246.479 87.0293 246.191 88.1895 246.191C88.6934 246.191 89.1475 246.25 89.5518 246.367H92.8828ZM85.2012 257.617C85.2012 258.139 85.4209 258.534 85.8604 258.804C86.2998 259.073 86.9297 259.208 87.75 259.208C88.9746 259.208 89.8799 259.023 90.4658 258.654C91.0576 258.291 91.3535 257.796 91.3535 257.169C91.3535 256.647 91.1924 256.284 90.8701 256.079C90.5479 255.88 89.9414 255.78 89.0508 255.78H87.3018C86.6396 255.78 86.124 255.938 85.7549 256.255C85.3857 256.571 85.2012 257.025 85.2012 257.617ZM85.9922 249.452C85.9922 250.126 86.1826 250.636 86.5635 250.981C86.9443 251.327 87.4746 251.5 88.1543 251.5C89.5781 251.5 90.29 250.809 90.29 249.426C90.29 247.979 89.5693 247.255 88.1279 247.255C87.4424 247.255 86.915 247.439 86.5459 247.809C86.1768 248.178 85.9922 248.726 85.9922 249.452ZM101.452 256V249.769C101.452 248.983 101.273 248.397 100.916 248.011C100.559 247.624 99.999 247.431 99.2373 247.431C98.2236 247.431 97.4824 247.706 97.0137 248.257C96.5508 248.808 96.3193 249.71 96.3193 250.964V256H94.8604V242.324H96.3193V246.464C96.3193 246.962 96.2959 247.375 96.249 247.703H96.3369C96.624 247.24 97.0312 246.877 97.5586 246.613C98.0918 246.344 98.6982 246.209 99.3779 246.209C100.556 246.209 101.438 246.49 102.023 247.053C102.615 247.609 102.911 248.497 102.911 249.716V256H101.452ZM113.704 254.972C113.962 254.972 114.211 254.954 114.451 254.919C114.691 254.878 114.882 254.837 115.022 254.796V255.912C114.864 255.988 114.63 256.05 114.319 256.097C114.015 256.149 113.739 256.176 113.493 256.176C111.63 256.176 110.698 255.194 110.698 253.231V247.501H109.318V246.798L110.698 246.191L111.313 244.135H112.157V246.367H114.952V247.501H112.157V253.17C112.157 253.75 112.295 254.195 112.57 254.506C112.846 254.816 113.224 254.972 113.704 254.972ZM123.548 256V249.769C123.548 248.983 123.369 248.397 123.012 248.011C122.654 247.624 122.095 247.431 121.333 247.431C120.319 247.431 119.578 247.706 119.109 248.257C118.646 248.808 118.415 249.71 118.415 250.964V256H116.956V242.324H118.415V246.464C118.415 246.962 118.392 247.375 118.345 247.703H118.433C118.72 247.24 119.127 246.877 119.654 246.613C120.188 246.344 120.794 246.209 121.474 246.209C122.651 246.209 123.533 246.49 124.119 247.053C124.711 247.609 125.007 248.497 125.007 249.716V256H123.548ZM132.082 256.176C130.658 256.176 129.533 255.742 128.707 254.875C127.887 254.008 127.477 252.804 127.477 251.263C127.477 249.71 127.857 248.477 128.619 247.562C129.387 246.648 130.415 246.191 131.704 246.191C132.911 246.191 133.866 246.59 134.569 247.387C135.272 248.178 135.624 249.224 135.624 250.524V251.447H128.988C129.018 252.578 129.302 253.437 129.841 254.022C130.386 254.608 131.15 254.901 132.135 254.901C133.172 254.901 134.197 254.685 135.211 254.251V255.552C134.695 255.774 134.206 255.933 133.743 256.026C133.286 256.126 132.732 256.176 132.082 256.176ZM131.687 247.413C130.913 247.413 130.295 247.665 129.832 248.169C129.375 248.673 129.105 249.37 129.023 250.261H134.06C134.06 249.341 133.854 248.638 133.444 248.151C133.034 247.659 132.448 247.413 131.687 247.413ZM144.255 256H142.796V246.367H144.255V256ZM142.673 243.757C142.673 243.423 142.755 243.18 142.919 243.027C143.083 242.869 143.288 242.79 143.534 242.79C143.769 242.79 143.971 242.869 144.141 243.027C144.311 243.186 144.396 243.429 144.396 243.757C144.396 244.085 144.311 244.331 144.141 244.495C143.971 244.653 143.769 244.732 143.534 244.732C143.288 244.732 143.083 244.653 142.919 244.495C142.755 244.331 142.673 244.085 142.673 243.757ZM153.94 256V249.769C153.94 248.983 153.762 248.397 153.404 248.011C153.047 247.624 152.487 247.431 151.726 247.431C150.718 247.431 149.979 247.703 149.511 248.248C149.042 248.793 148.808 249.692 148.808 250.946V256H147.349V246.367H148.535L148.772 247.686H148.843C149.142 247.211 149.561 246.845 150.1 246.587C150.639 246.323 151.239 246.191 151.901 246.191C153.062 246.191 153.935 246.473 154.521 247.035C155.106 247.592 155.399 248.485 155.399 249.716V256H153.94ZM162.747 247.501H160.295V256H158.836V247.501H157.113V246.842L158.836 246.314V245.778C158.836 243.411 159.87 242.228 161.938 242.228C162.448 242.228 163.046 242.33 163.731 242.535L163.354 243.704C162.791 243.522 162.311 243.432 161.912 243.432C161.361 243.432 160.954 243.616 160.69 243.985C160.427 244.349 160.295 244.935 160.295 245.743V246.367H162.747V247.501ZM165.964 256H164.505V246.367H165.964V256ZM164.382 243.757C164.382 243.423 164.464 243.18 164.628 243.027C164.792 242.869 164.997 242.79 165.243 242.79C165.478 242.79 165.68 242.869 165.85 243.027C166.02 243.186 166.104 243.429 166.104 243.757C166.104 244.085 166.02 244.331 165.85 244.495C165.68 244.653 165.478 244.732 165.243 244.732C164.997 244.732 164.792 244.653 164.628 244.495C164.464 244.331 164.382 244.085 164.382 243.757ZM175.649 256V249.769C175.649 248.983 175.471 248.397 175.113 248.011C174.756 247.624 174.196 247.431 173.435 247.431C172.427 247.431 171.688 247.703 171.22 248.248C170.751 248.793 170.517 249.692 170.517 250.946V256H169.058V246.367H170.244L170.481 247.686H170.552C170.851 247.211 171.27 246.845 171.809 246.587C172.348 246.323 172.948 246.191 173.61 246.191C174.771 246.191 175.644 246.473 176.229 247.035C176.815 247.592 177.108 248.485 177.108 249.716V256H175.649ZM181.573 256H180.114V246.367H181.573V256ZM179.991 243.757C179.991 243.423 180.073 243.18 180.237 243.027C180.401 242.869 180.606 242.79 180.853 242.79C181.087 242.79 181.289 242.869 181.459 243.027C181.629 243.186 181.714 243.429 181.714 243.757C181.714 244.085 181.629 244.331 181.459 244.495C181.289 244.653 181.087 244.732 180.853 244.732C180.606 244.732 180.401 244.653 180.237 244.495C180.073 244.331 179.991 244.085 179.991 243.757ZM187.778 254.972C188.036 254.972 188.285 254.954 188.525 254.919C188.766 254.878 188.956 254.837 189.097 254.796V255.912C188.938 255.988 188.704 256.05 188.394 256.097C188.089 256.149 187.813 256.176 187.567 256.176C185.704 256.176 184.772 255.194 184.772 253.231V247.501H183.393V246.798L184.772 246.191L185.388 244.135H186.231V246.367H189.026V247.501H186.231V253.17C186.231 253.75 186.369 254.195 186.645 254.506C186.92 254.816 187.298 254.972 187.778 254.972ZM195.1 256.176C193.676 256.176 192.551 255.742 191.725 254.875C190.904 254.008 190.494 252.804 190.494 251.263C190.494 249.71 190.875 248.477 191.637 247.562C192.404 246.648 193.433 246.191 194.722 246.191C195.929 246.191 196.884 246.59 197.587 247.387C198.29 248.178 198.642 249.224 198.642 250.524V251.447H192.006C192.035 252.578 192.319 253.437 192.858 254.022C193.403 254.608 194.168 254.901 195.152 254.901C196.189 254.901 197.215 254.685 198.229 254.251V255.552C197.713 255.774 197.224 255.933 196.761 256.026C196.304 256.126 195.75 256.176 195.1 256.176ZM194.704 247.413C193.931 247.413 193.312 247.665 192.85 248.169C192.393 248.673 192.123 249.37 192.041 250.261H197.077C197.077 249.341 196.872 248.638 196.462 248.151C196.052 247.659 195.466 247.413 194.704 247.413ZM212.027 253.372C212.027 254.269 211.693 254.96 211.025 255.446C210.357 255.933 209.42 256.176 208.213 256.176C206.936 256.176 205.939 255.974 205.225 255.569V254.216C205.688 254.45 206.183 254.635 206.71 254.77C207.243 254.904 207.756 254.972 208.248 254.972C209.01 254.972 209.596 254.852 210.006 254.611C210.416 254.365 210.621 253.993 210.621 253.495C210.621 253.12 210.457 252.801 210.129 252.537C209.807 252.268 209.174 251.951 208.23 251.588C207.334 251.254 206.695 250.964 206.314 250.718C205.939 250.466 205.658 250.182 205.471 249.865C205.289 249.549 205.198 249.171 205.198 248.731C205.198 247.946 205.518 247.328 206.156 246.877C206.795 246.42 207.671 246.191 208.784 246.191C209.821 246.191 210.835 246.402 211.825 246.824L211.307 248.011C210.34 247.612 209.464 247.413 208.679 247.413C207.987 247.413 207.466 247.521 207.114 247.738C206.763 247.955 206.587 248.254 206.587 248.635C206.587 248.893 206.651 249.112 206.78 249.294C206.915 249.476 207.129 249.648 207.422 249.812C207.715 249.977 208.277 250.214 209.109 250.524C210.252 250.94 211.022 251.359 211.421 251.781C211.825 252.203 212.027 252.733 212.027 253.372ZM217.521 254.972C217.778 254.972 218.027 254.954 218.268 254.919C218.508 254.878 218.698 254.837 218.839 254.796V255.912C218.681 255.988 218.446 256.05 218.136 256.097C217.831 256.149 217.556 256.176 217.31 256.176C215.446 256.176 214.515 255.194 214.515 253.231V247.501H213.135V246.798L214.515 246.191L215.13 244.135H215.974V246.367H218.769V247.501H215.974V253.17C215.974 253.75 216.111 254.195 216.387 254.506C216.662 254.816 217.04 254.972 217.521 254.972ZM225.167 246.191C225.595 246.191 225.979 246.227 226.318 246.297L226.116 247.65C225.718 247.562 225.366 247.519 225.062 247.519C224.282 247.519 223.614 247.835 223.058 248.468C222.507 249.101 222.231 249.889 222.231 250.832V256H220.772V246.367H221.977L222.144 248.151H222.214C222.571 247.524 223.002 247.041 223.506 246.701C224.01 246.361 224.563 246.191 225.167 246.191ZM232.189 256.176C230.766 256.176 229.641 255.742 228.814 254.875C227.994 254.008 227.584 252.804 227.584 251.263C227.584 249.71 227.965 248.477 228.727 247.562C229.494 246.648 230.522 246.191 231.812 246.191C233.019 246.191 233.974 246.59 234.677 247.387C235.38 248.178 235.731 249.224 235.731 250.524V251.447H229.096C229.125 252.578 229.409 253.437 229.948 254.022C230.493 254.608 231.258 254.901 232.242 254.901C233.279 254.901 234.305 254.685 235.318 254.251V255.552C234.803 255.774 234.313 255.933 233.851 256.026C233.394 256.126 232.84 256.176 232.189 256.176ZM231.794 247.413C231.021 247.413 230.402 247.665 229.939 248.169C229.482 248.673 229.213 249.37 229.131 250.261H234.167C234.167 249.341 233.962 248.638 233.552 248.151C233.142 247.659 232.556 247.413 231.794 247.413ZM244.151 256L243.861 254.629H243.791C243.311 255.232 242.83 255.643 242.35 255.859C241.875 256.07 241.28 256.176 240.565 256.176C239.61 256.176 238.86 255.93 238.315 255.438C237.776 254.945 237.507 254.245 237.507 253.337C237.507 251.392 239.062 250.372 242.174 250.278L243.809 250.226V249.628C243.809 248.872 243.645 248.315 243.316 247.958C242.994 247.595 242.476 247.413 241.761 247.413C240.958 247.413 240.05 247.659 239.036 248.151L238.588 247.035C239.062 246.777 239.581 246.575 240.144 246.429C240.712 246.282 241.28 246.209 241.849 246.209C242.997 246.209 243.847 246.464 244.397 246.974C244.954 247.483 245.232 248.301 245.232 249.426V256H244.151ZM240.855 254.972C241.764 254.972 242.476 254.723 242.991 254.225C243.513 253.727 243.773 253.029 243.773 252.133V251.263L242.314 251.324C241.154 251.365 240.316 251.547 239.801 251.869C239.291 252.186 239.036 252.681 239.036 253.354C239.036 253.882 239.194 254.283 239.511 254.559C239.833 254.834 240.281 254.972 240.855 254.972ZM260.525 256V249.733C260.525 248.966 260.361 248.392 260.033 248.011C259.705 247.624 259.195 247.431 258.504 247.431C257.596 247.431 256.925 247.691 256.491 248.213C256.058 248.734 255.841 249.537 255.841 250.621V256H254.382V249.733C254.382 248.966 254.218 248.392 253.89 248.011C253.562 247.624 253.049 247.431 252.352 247.431C251.438 247.431 250.767 247.706 250.339 248.257C249.917 248.802 249.706 249.698 249.706 250.946V256H248.247V246.367H249.434L249.671 247.686H249.741C250.017 247.217 250.403 246.851 250.901 246.587C251.405 246.323 251.968 246.191 252.589 246.191C254.095 246.191 255.079 246.736 255.542 247.826H255.612C255.899 247.322 256.315 246.924 256.86 246.631C257.405 246.338 258.026 246.191 258.724 246.191C259.813 246.191 260.628 246.473 261.167 247.035C261.712 247.592 261.984 248.485 261.984 249.716V256H260.525ZM277.989 251.175C277.989 252.745 277.594 253.973 276.803 254.857C276.012 255.736 274.919 256.176 273.524 256.176C272.663 256.176 271.898 255.974 271.23 255.569C270.562 255.165 270.047 254.585 269.684 253.829C269.32 253.073 269.139 252.188 269.139 251.175C269.139 249.604 269.531 248.383 270.316 247.51C271.102 246.631 272.191 246.191 273.586 246.191C274.934 246.191 276.003 246.64 276.794 247.536C277.591 248.433 277.989 249.646 277.989 251.175ZM270.65 251.175C270.65 252.405 270.896 253.343 271.389 253.987C271.881 254.632 272.604 254.954 273.56 254.954C274.515 254.954 275.238 254.635 275.73 253.996C276.229 253.352 276.478 252.411 276.478 251.175C276.478 249.95 276.229 249.021 275.73 248.389C275.238 247.75 274.509 247.431 273.542 247.431C272.587 247.431 271.866 247.744 271.38 248.371C270.894 248.998 270.65 249.933 270.65 251.175ZM284.897 247.501H282.445V256H280.986V247.501H279.264V246.842L280.986 246.314V245.778C280.986 243.411 282.021 242.228 284.089 242.228C284.599 242.228 285.196 242.33 285.882 242.535L285.504 243.704C284.941 243.522 284.461 243.432 284.062 243.432C283.512 243.432 283.104 243.616 282.841 243.985C282.577 244.349 282.445 244.935 282.445 245.743V246.367H284.897V247.501ZM292.79 256H291.331V246.367H292.79V256ZM291.208 243.757C291.208 243.423 291.29 243.18 291.454 243.027C291.618 242.869 291.823 242.79 292.069 242.79C292.304 242.79 292.506 242.869 292.676 243.027C292.846 243.186 292.931 243.429 292.931 243.757C292.931 244.085 292.846 244.331 292.676 244.495C292.506 244.653 292.304 244.732 292.069 244.732C291.823 244.732 291.618 244.653 291.454 244.495C291.29 244.331 291.208 244.085 291.208 243.757ZM302.476 256V249.769C302.476 248.983 302.297 248.397 301.939 248.011C301.582 247.624 301.022 247.431 300.261 247.431C299.253 247.431 298.515 247.703 298.046 248.248C297.577 248.793 297.343 249.692 297.343 250.946V256H295.884V246.367H297.07L297.308 247.686H297.378C297.677 247.211 298.096 246.845 298.635 246.587C299.174 246.323 299.774 246.191 300.437 246.191C301.597 246.191 302.47 246.473 303.056 247.035C303.642 247.592 303.935 248.485 303.935 249.716V256H302.476ZM311.282 247.501H308.83V256H307.371V247.501H305.648V246.842L307.371 246.314V245.778C307.371 243.411 308.405 242.228 310.474 242.228C310.983 242.228 311.581 242.33 312.267 242.535L311.889 243.704C311.326 243.522 310.846 243.432 310.447 243.432C309.896 243.432 309.489 243.616 309.226 243.985C308.962 244.349 308.83 244.935 308.83 245.743V246.367H311.282V247.501ZM321.354 251.175C321.354 252.745 320.959 253.973 320.168 254.857C319.377 255.736 318.284 256.176 316.89 256.176C316.028 256.176 315.264 255.974 314.596 255.569C313.928 255.165 313.412 254.585 313.049 253.829C312.686 253.073 312.504 252.188 312.504 251.175C312.504 249.604 312.896 248.383 313.682 247.51C314.467 246.631 315.557 246.191 316.951 246.191C318.299 246.191 319.368 246.64 320.159 247.536C320.956 248.433 321.354 249.646 321.354 251.175ZM314.016 251.175C314.016 252.405 314.262 253.343 314.754 253.987C315.246 254.632 315.97 254.954 316.925 254.954C317.88 254.954 318.604 254.635 319.096 253.996C319.594 253.352 319.843 252.411 319.843 251.175C319.843 249.95 319.594 249.021 319.096 248.389C318.604 247.75 317.874 247.431 316.907 247.431C315.952 247.431 315.231 247.744 314.745 248.371C314.259 248.998 314.016 249.933 314.016 251.175ZM328.315 246.191C328.743 246.191 329.127 246.227 329.467 246.297L329.265 247.65C328.866 247.562 328.515 247.519 328.21 247.519C327.431 247.519 326.763 247.835 326.206 248.468C325.655 249.101 325.38 249.889 325.38 250.832V256H323.921V246.367H325.125L325.292 248.151H325.362C325.72 247.524 326.15 247.041 326.654 246.701C327.158 246.361 327.712 246.191 328.315 246.191ZM343.547 256V249.733C343.547 248.966 343.383 248.392 343.055 248.011C342.727 247.624 342.217 247.431 341.525 247.431C340.617 247.431 339.946 247.691 339.513 248.213C339.079 248.734 338.862 249.537 338.862 250.621V256H337.403V249.733C337.403 248.966 337.239 248.392 336.911 248.011C336.583 247.624 336.07 247.431 335.373 247.431C334.459 247.431 333.788 247.706 333.36 248.257C332.938 248.802 332.728 249.698 332.728 250.946V256H331.269V246.367H332.455L332.692 247.686H332.763C333.038 247.217 333.425 246.851 333.923 246.587C334.427 246.323 334.989 246.191 335.61 246.191C337.116 246.191 338.101 246.736 338.563 247.826H338.634C338.921 247.322 339.337 246.924 339.882 246.631C340.427 246.338 341.048 246.191 341.745 246.191C342.835 246.191 343.649 246.473 344.188 247.035C344.733 247.592 345.006 248.485 345.006 249.716V256H343.547ZM353.944 256L353.654 254.629H353.584C353.104 255.232 352.623 255.643 352.143 255.859C351.668 256.07 351.073 256.176 350.358 256.176C349.403 256.176 348.653 255.93 348.108 255.438C347.569 254.945 347.3 254.245 347.3 253.337C347.3 251.392 348.855 250.372 351.967 250.278L353.602 250.226V249.628C353.602 248.872 353.438 248.315 353.109 247.958C352.787 247.595 352.269 247.413 351.554 247.413C350.751 247.413 349.843 247.659 348.829 248.151L348.381 247.035C348.855 246.777 349.374 246.575 349.937 246.429C350.505 246.282 351.073 246.209 351.642 246.209C352.79 246.209 353.64 246.464 354.19 246.974C354.747 247.483 355.025 248.301 355.025 249.426V256H353.944ZM350.648 254.972C351.557 254.972 352.269 254.723 352.784 254.225C353.306 253.727 353.566 253.029 353.566 252.133V251.263L352.107 251.324C350.947 251.365 350.109 251.547 349.594 251.869C349.084 252.186 348.829 252.681 348.829 253.354C348.829 253.882 348.987 254.283 349.304 254.559C349.626 254.834 350.074 254.972 350.648 254.972ZM361.151 254.972C361.409 254.972 361.658 254.954 361.898 254.919C362.139 254.878 362.329 254.837 362.47 254.796V255.912C362.312 255.988 362.077 256.05 361.767 256.097C361.462 256.149 361.187 256.176 360.94 256.176C359.077 256.176 358.146 255.194 358.146 253.231V247.501H356.766V246.798L358.146 246.191L358.761 244.135H359.604V246.367H362.399V247.501H359.604V253.17C359.604 253.75 359.742 254.195 360.018 254.506C360.293 254.816 360.671 254.972 361.151 254.972ZM365.862 256H364.403V246.367H365.862V256ZM364.28 243.757C364.28 243.423 364.362 243.18 364.526 243.027C364.69 242.869 364.896 242.79 365.142 242.79C365.376 242.79 365.578 242.869 365.748 243.027C365.918 243.186 366.003 243.429 366.003 243.757C366.003 244.085 365.918 244.331 365.748 244.495C365.578 244.653 365.376 244.732 365.142 244.732C364.896 244.732 364.69 244.653 364.526 244.495C364.362 244.331 364.28 244.085 364.28 243.757ZM377.271 251.175C377.271 252.745 376.875 253.973 376.084 254.857C375.293 255.736 374.2 256.176 372.806 256.176C371.944 256.176 371.18 255.974 370.512 255.569C369.844 255.165 369.328 254.585 368.965 253.829C368.602 253.073 368.42 252.188 368.42 251.175C368.42 249.604 368.812 248.383 369.598 247.51C370.383 246.631 371.473 246.191 372.867 246.191C374.215 246.191 375.284 246.64 376.075 247.536C376.872 248.433 377.271 249.646 377.271 251.175ZM369.932 251.175C369.932 252.405 370.178 253.343 370.67 253.987C371.162 254.632 371.886 254.954 372.841 254.954C373.796 254.954 374.52 254.635 375.012 253.996C375.51 253.352 375.759 252.411 375.759 251.175C375.759 249.95 375.51 249.021 375.012 248.389C374.52 247.75 373.79 247.431 372.823 247.431C371.868 247.431 371.147 247.744 370.661 248.371C370.175 248.998 369.932 249.933 369.932 251.175ZM386.429 256V249.769C386.429 248.983 386.25 248.397 385.893 248.011C385.535 247.624 384.976 247.431 384.214 247.431C383.206 247.431 382.468 247.703 381.999 248.248C381.53 248.793 381.296 249.692 381.296 250.946V256H379.837V246.367H381.023L381.261 247.686H381.331C381.63 247.211 382.049 246.845 382.588 246.587C383.127 246.323 383.728 246.191 384.39 246.191C385.55 246.191 386.423 246.473 387.009 247.035C387.595 247.592 387.888 248.485 387.888 249.716V256H386.429ZM390.683 255.068C390.683 254.676 390.771 254.38 390.946 254.181C391.128 253.976 391.386 253.873 391.72 253.873C392.06 253.873 392.323 253.976 392.511 254.181C392.704 254.38 392.801 254.676 392.801 255.068C392.801 255.449 392.704 255.742 392.511 255.947C392.317 256.152 392.054 256.255 391.72 256.255C391.421 256.255 391.172 256.164 390.973 255.982C390.779 255.795 390.683 255.49 390.683 255.068ZM411.741 249.558C411.741 251.614 411.22 253.231 410.177 254.409C409.14 255.587 407.695 256.176 405.844 256.176C403.951 256.176 402.489 255.599 401.458 254.444C400.433 253.284 399.92 251.649 399.92 249.54C399.92 247.448 400.436 245.828 401.467 244.68C402.498 243.525 403.963 242.948 405.861 242.948C407.707 242.948 409.148 243.534 410.186 244.706C411.223 245.878 411.741 247.495 411.741 249.558ZM401.502 249.558C401.502 251.298 401.871 252.619 402.609 253.521C403.354 254.418 404.432 254.866 405.844 254.866C407.268 254.866 408.343 254.418 409.069 253.521C409.796 252.625 410.159 251.304 410.159 249.558C410.159 247.829 409.796 246.52 409.069 245.629C408.349 244.732 407.279 244.284 405.861 244.284C404.438 244.284 403.354 244.735 402.609 245.638C401.871 246.534 401.502 247.841 401.502 249.558ZM415.767 246.367V252.616C415.767 253.401 415.945 253.987 416.303 254.374C416.66 254.761 417.22 254.954 417.981 254.954C418.989 254.954 419.725 254.679 420.188 254.128C420.656 253.577 420.891 252.678 420.891 251.43V246.367H422.35V256H421.146L420.935 254.708H420.855C420.557 255.183 420.141 255.546 419.607 255.798C419.08 256.05 418.477 256.176 417.797 256.176C416.625 256.176 415.746 255.897 415.16 255.341C414.58 254.784 414.29 253.894 414.29 252.669V246.367H415.767ZM429.847 246.191C430.274 246.191 430.658 246.227 430.998 246.297L430.796 247.65C430.397 247.562 430.046 247.519 429.741 247.519C428.962 247.519 428.294 247.835 427.737 248.468C427.187 249.101 426.911 249.889 426.911 250.832V256H425.452V246.367H426.656L426.823 248.151H426.894C427.251 247.524 427.682 247.041 428.186 246.701C428.689 246.361 429.243 246.191 429.847 246.191ZM32.4316 281.176C31.0078 281.176 29.8828 280.742 29.0566 279.875C28.2363 279.008 27.8262 277.804 27.8262 276.263C27.8262 274.71 28.207 273.477 28.9688 272.562C29.7363 271.648 30.7646 271.191 32.0537 271.191C33.2607 271.191 34.2158 271.59 34.9189 272.387C35.6221 273.178 35.9736 274.224 35.9736 275.524V276.447H29.3379C29.3672 277.578 29.6514 278.437 30.1904 279.022C30.7354 279.608 31.5 279.901 32.4844 279.901C33.5215 279.901 34.5469 279.685 35.5605 279.251V280.552C35.0449 280.774 34.5557 280.933 34.0928 281.026C33.6357 281.126 33.082 281.176 32.4316 281.176ZM32.0361 272.413C31.2627 272.413 30.6445 272.665 30.1816 273.169C29.7246 273.673 29.4551 274.37 29.373 275.261H34.4092C34.4092 274.341 34.2041 273.638 33.7939 273.151C33.3838 272.659 32.7979 272.413 32.0361 272.413ZM40.79 276.069L37.4414 271.367H39.1025L41.6426 275.059L44.1738 271.367H45.8174L42.4688 276.069L45.9932 281H44.3408L41.6426 277.098L38.918 281H37.2656L40.79 276.069ZM52.3916 281.176C51.7646 281.176 51.1904 281.062 50.6689 280.833C50.1533 280.599 49.7197 280.241 49.3682 279.761H49.2627C49.333 280.323 49.3682 280.856 49.3682 281.36V285.324H47.9092V271.367H49.0957L49.2979 272.686H49.3682C49.7432 272.158 50.1797 271.777 50.6777 271.543C51.1758 271.309 51.7471 271.191 52.3916 271.191C53.6689 271.191 54.6533 271.628 55.3447 272.501C56.042 273.374 56.3906 274.599 56.3906 276.175C56.3906 277.757 56.0361 278.987 55.3271 279.866C54.624 280.739 53.6455 281.176 52.3916 281.176ZM52.1807 272.431C51.1963 272.431 50.4844 272.703 50.0449 273.248C49.6055 273.793 49.3799 274.66 49.3682 275.85V276.175C49.3682 277.528 49.5938 278.498 50.0449 279.084C50.4961 279.664 51.2197 279.954 52.2158 279.954C53.0479 279.954 53.6982 279.617 54.167 278.943C54.6416 278.27 54.8789 277.341 54.8789 276.157C54.8789 274.956 54.6416 274.036 54.167 273.397C53.6982 272.753 53.0361 272.431 52.1807 272.431ZM63.0176 281.176C61.5938 281.176 60.4688 280.742 59.6426 279.875C58.8223 279.008 58.4121 277.804 58.4121 276.263C58.4121 274.71 58.793 273.477 59.5547 272.562C60.3223 271.648 61.3506 271.191 62.6396 271.191C63.8467 271.191 64.8018 271.59 65.5049 272.387C66.208 273.178 66.5596 274.224 66.5596 275.524V276.447H59.9238C59.9531 277.578 60.2373 278.437 60.7764 279.022C61.3213 279.608 62.0859 279.901 63.0703 279.901C64.1074 279.901 65.1328 279.685 66.1465 279.251V280.552C65.6309 280.774 65.1416 280.933 64.6787 281.026C64.2217 281.126 63.668 281.176 63.0176 281.176ZM62.6221 272.413C61.8486 272.413 61.2305 272.665 60.7676 273.169C60.3105 273.673 60.041 274.37 59.959 275.261H64.9951C64.9951 274.341 64.79 273.638 64.3799 273.151C63.9697 272.659 63.3838 272.413 62.6221 272.413ZM73.4502 271.191C73.8779 271.191 74.2617 271.227 74.6016 271.297L74.3994 272.65C74.001 272.562 73.6494 272.519 73.3447 272.519C72.5654 272.519 71.8975 272.835 71.3408 273.468C70.79 274.101 70.5146 274.889 70.5146 275.832V281H69.0557V271.367H70.2598L70.4268 273.151H70.4971C70.8545 272.524 71.2852 272.041 71.7891 271.701C72.293 271.361 72.8467 271.191 73.4502 271.191ZM79.5146 279.972C79.7725 279.972 80.0215 279.954 80.2617 279.919C80.502 279.878 80.6924 279.837 80.833 279.796V280.912C80.6748 280.988 80.4404 281.05 80.1299 281.097C79.8252 281.149 79.5498 281.176 79.3037 281.176C77.4404 281.176 76.5088 280.194 76.5088 278.231V272.501H75.1289V271.798L76.5088 271.191L77.124 269.135H77.9678V271.367H80.7627V272.501H77.9678V278.17C77.9678 278.75 78.1055 279.195 78.3809 279.506C78.6562 279.816 79.0342 279.972 79.5146 279.972ZM88.9805 278.372C88.9805 279.269 88.6465 279.96 87.9785 280.446C87.3105 280.933 86.373 281.176 85.166 281.176C83.8887 281.176 82.8926 280.974 82.1777 280.569V279.216C82.6406 279.45 83.1357 279.635 83.6631 279.77C84.1963 279.904 84.709 279.972 85.2012 279.972C85.9629 279.972 86.5488 279.852 86.959 279.611C87.3691 279.365 87.5742 278.993 87.5742 278.495C87.5742 278.12 87.4102 277.801 87.082 277.537C86.7598 277.268 86.127 276.951 85.1836 276.588C84.2871 276.254 83.6484 275.964 83.2676 275.718C82.8926 275.466 82.6113 275.182 82.4238 274.865C82.2422 274.549 82.1514 274.171 82.1514 273.731C82.1514 272.946 82.4707 272.328 83.1094 271.877C83.748 271.42 84.624 271.191 85.7373 271.191C86.7744 271.191 87.7881 271.402 88.7783 271.824L88.2598 273.011C87.293 272.612 86.417 272.413 85.6318 272.413C84.9404 272.413 84.4189 272.521 84.0674 272.738C83.7158 272.955 83.54 273.254 83.54 273.635C83.54 273.893 83.6045 274.112 83.7334 274.294C83.8682 274.476 84.082 274.648 84.375 274.812C84.668 274.977 85.2305 275.214 86.0625 275.524C87.2051 275.94 87.9756 276.359 88.374 276.781C88.7783 277.203 88.9805 277.733 88.9805 278.372ZM103.904 281L102.138 275.349C102.026 275.003 101.818 274.218 101.514 272.993H101.443C101.209 274.019 101.004 274.81 100.828 275.366L99.0088 281H97.3213L94.6934 271.367H96.2227C96.8438 273.787 97.3154 275.63 97.6377 276.896C97.9658 278.161 98.1533 279.014 98.2002 279.453H98.2705C98.335 279.119 98.4375 278.688 98.5781 278.161C98.7246 277.628 98.8506 277.206 98.9561 276.896L100.723 271.367H102.305L104.027 276.896C104.355 277.903 104.578 278.75 104.695 279.436H104.766C104.789 279.225 104.851 278.899 104.95 278.46C105.056 278.021 105.668 275.656 106.787 271.367H108.299L105.636 281H103.904ZM111.507 281H110.048V271.367H111.507V281ZM109.925 268.757C109.925 268.423 110.007 268.18 110.171 268.027C110.335 267.869 110.54 267.79 110.786 267.79C111.021 267.79 111.223 267.869 111.393 268.027C111.562 268.186 111.647 268.429 111.647 268.757C111.647 269.085 111.562 269.331 111.393 269.495C111.223 269.653 111.021 269.732 110.786 269.732C110.54 269.732 110.335 269.653 110.171 269.495C110.007 269.331 109.925 269.085 109.925 268.757ZM116.06 281H114.601V267.324H116.06V281ZM120.612 281H119.153V267.324H120.612V281ZM134.596 278.372C134.596 279.269 134.262 279.96 133.594 280.446C132.926 280.933 131.988 281.176 130.781 281.176C129.504 281.176 128.508 280.974 127.793 280.569V279.216C128.256 279.45 128.751 279.635 129.278 279.77C129.812 279.904 130.324 279.972 130.816 279.972C131.578 279.972 132.164 279.852 132.574 279.611C132.984 279.365 133.189 278.993 133.189 278.495C133.189 278.12 133.025 277.801 132.697 277.537C132.375 277.268 131.742 276.951 130.799 276.588C129.902 276.254 129.264 275.964 128.883 275.718C128.508 275.466 128.227 275.182 128.039 274.865C127.857 274.549 127.767 274.171 127.767 273.731C127.767 272.946 128.086 272.328 128.725 271.877C129.363 271.42 130.239 271.191 131.353 271.191C132.39 271.191 133.403 271.402 134.394 271.824L133.875 273.011C132.908 272.612 132.032 272.413 131.247 272.413C130.556 272.413 130.034 272.521 129.683 272.738C129.331 272.955 129.155 273.254 129.155 273.635C129.155 273.893 129.22 274.112 129.349 274.294C129.483 274.476 129.697 274.648 129.99 274.812C130.283 274.977 130.846 275.214 131.678 275.524C132.82 275.94 133.591 276.359 133.989 276.781C134.394 277.203 134.596 277.733 134.596 278.372ZM138.437 281H136.978V271.367H138.437V281ZM136.854 268.757C136.854 268.423 136.937 268.18 137.101 268.027C137.265 267.869 137.47 267.79 137.716 267.79C137.95 267.79 138.152 267.869 138.322 268.027C138.492 268.186 138.577 268.429 138.577 268.757C138.577 269.085 138.492 269.331 138.322 269.495C138.152 269.653 137.95 269.732 137.716 269.732C137.47 269.732 137.265 269.653 137.101 269.495C136.937 269.331 136.854 269.085 136.854 268.757ZM153.809 281V274.733C153.809 273.966 153.645 273.392 153.316 273.011C152.988 272.624 152.479 272.431 151.787 272.431C150.879 272.431 150.208 272.691 149.774 273.213C149.341 273.734 149.124 274.537 149.124 275.621V281H147.665V274.733C147.665 273.966 147.501 273.392 147.173 273.011C146.845 272.624 146.332 272.431 145.635 272.431C144.721 272.431 144.05 272.706 143.622 273.257C143.2 273.802 142.989 274.698 142.989 275.946V281H141.53V271.367H142.717L142.954 272.686H143.024C143.3 272.217 143.687 271.851 144.185 271.587C144.688 271.323 145.251 271.191 145.872 271.191C147.378 271.191 148.362 271.736 148.825 272.826H148.896C149.183 272.322 149.599 271.924 150.144 271.631C150.688 271.338 151.31 271.191 152.007 271.191C153.097 271.191 153.911 271.473 154.45 272.035C154.995 272.592 155.268 273.485 155.268 274.716V281H153.809ZM162.765 281.176C162.138 281.176 161.563 281.062 161.042 280.833C160.526 280.599 160.093 280.241 159.741 279.761H159.636C159.706 280.323 159.741 280.856 159.741 281.36V285.324H158.282V271.367H159.469L159.671 272.686H159.741C160.116 272.158 160.553 271.777 161.051 271.543C161.549 271.309 162.12 271.191 162.765 271.191C164.042 271.191 165.026 271.628 165.718 272.501C166.415 273.374 166.764 274.599 166.764 276.175C166.764 277.757 166.409 278.987 165.7 279.866C164.997 280.739 164.019 281.176 162.765 281.176ZM162.554 272.431C161.569 272.431 160.857 272.703 160.418 273.248C159.979 273.793 159.753 274.66 159.741 275.85V276.175C159.741 277.528 159.967 278.498 160.418 279.084C160.869 279.664 161.593 279.954 162.589 279.954C163.421 279.954 164.071 279.617 164.54 278.943C165.015 278.27 165.252 277.341 165.252 276.157C165.252 274.956 165.015 274.036 164.54 273.397C164.071 272.753 163.409 272.431 162.554 272.431ZM170.78 281H169.321V267.324H170.78V281ZM175.333 281H173.874V271.367H175.333V281ZM173.751 268.757C173.751 268.423 173.833 268.18 173.997 268.027C174.161 267.869 174.366 267.79 174.612 267.79C174.847 267.79 175.049 267.869 175.219 268.027C175.389 268.186 175.474 268.429 175.474 268.757C175.474 269.085 175.389 269.331 175.219 269.495C175.049 269.653 174.847 269.732 174.612 269.732C174.366 269.732 174.161 269.653 173.997 269.495C173.833 269.331 173.751 269.085 173.751 268.757ZM182.769 272.501H180.316V281H178.857V272.501H177.135V271.842L178.857 271.314V270.778C178.857 268.411 179.892 267.228 181.96 267.228C182.47 267.228 183.067 267.33 183.753 267.535L183.375 268.704C182.812 268.522 182.332 268.432 181.934 268.432C181.383 268.432 180.976 268.616 180.712 268.985C180.448 269.349 180.316 269.935 180.316 270.743V271.367H182.769V272.501ZM182.997 271.367H184.562L186.671 276.86C187.134 278.114 187.421 279.02 187.532 279.576H187.603C187.679 279.277 187.837 278.768 188.077 278.047C188.323 277.32 189.12 275.094 190.468 271.367H192.032L187.893 282.336C187.482 283.42 187.002 284.188 186.451 284.639C185.906 285.096 185.235 285.324 184.438 285.324C183.993 285.324 183.554 285.274 183.12 285.175V284.006C183.442 284.076 183.803 284.111 184.201 284.111C185.203 284.111 185.918 283.549 186.346 282.424L186.882 281.053L182.997 271.367ZM201.384 279.972C201.642 279.972 201.891 279.954 202.131 279.919C202.371 279.878 202.562 279.837 202.702 279.796V280.912C202.544 280.988 202.31 281.05 201.999 281.097C201.694 281.149 201.419 281.176 201.173 281.176C199.31 281.176 198.378 280.194 198.378 278.231V272.501H196.998V271.798L198.378 271.191L198.993 269.135H199.837V271.367H202.632V272.501H199.837V278.17C199.837 278.75 199.975 279.195 200.25 279.506C200.525 279.816 200.903 279.972 201.384 279.972ZM211.228 281V274.769C211.228 273.983 211.049 273.397 210.691 273.011C210.334 272.624 209.774 272.431 209.013 272.431C207.999 272.431 207.258 272.706 206.789 273.257C206.326 273.808 206.095 274.71 206.095 275.964V281H204.636V267.324H206.095V271.464C206.095 271.962 206.071 272.375 206.024 272.703H206.112C206.399 272.24 206.807 271.877 207.334 271.613C207.867 271.344 208.474 271.209 209.153 271.209C210.331 271.209 211.213 271.49 211.799 272.053C212.391 272.609 212.687 273.497 212.687 274.716V281H211.228ZM219.762 281.176C218.338 281.176 217.213 280.742 216.387 279.875C215.566 279.008 215.156 277.804 215.156 276.263C215.156 274.71 215.537 273.477 216.299 272.562C217.066 271.648 218.095 271.191 219.384 271.191C220.591 271.191 221.546 271.59 222.249 272.387C222.952 273.178 223.304 274.224 223.304 275.524V276.447H216.668C216.697 277.578 216.981 278.437 217.521 279.022C218.065 279.608 218.83 279.901 219.814 279.901C220.852 279.901 221.877 279.685 222.891 279.251V280.552C222.375 280.774 221.886 280.933 221.423 281.026C220.966 281.126 220.412 281.176 219.762 281.176ZM219.366 272.413C218.593 272.413 217.975 272.665 217.512 273.169C217.055 273.673 216.785 274.37 216.703 275.261H221.739C221.739 274.341 221.534 273.638 221.124 273.151C220.714 272.659 220.128 272.413 219.366 272.413ZM234.325 281.176C232.931 281.176 231.85 280.748 231.082 279.893C230.32 279.031 229.939 277.815 229.939 276.245C229.939 274.634 230.326 273.389 231.1 272.51C231.879 271.631 232.986 271.191 234.422 271.191C234.885 271.191 235.348 271.241 235.811 271.341C236.273 271.44 236.637 271.558 236.9 271.692L236.452 272.932C236.13 272.803 235.778 272.697 235.397 272.615C235.017 272.527 234.68 272.483 234.387 272.483C232.43 272.483 231.451 273.731 231.451 276.228C231.451 277.411 231.688 278.319 232.163 278.952C232.644 279.585 233.353 279.901 234.29 279.901C235.093 279.901 235.916 279.729 236.76 279.383V280.675C236.115 281.009 235.304 281.176 234.325 281.176ZM245.646 281V274.769C245.646 273.983 245.467 273.397 245.109 273.011C244.752 272.624 244.192 272.431 243.431 272.431C242.417 272.431 241.676 272.706 241.207 273.257C240.744 273.808 240.513 274.71 240.513 275.964V281H239.054V267.324H240.513V271.464C240.513 271.962 240.489 272.375 240.442 272.703H240.53C240.817 272.24 241.225 271.877 241.752 271.613C242.285 271.344 242.892 271.209 243.571 271.209C244.749 271.209 245.631 271.49 246.217 272.053C246.809 272.609 247.104 273.497 247.104 274.716V281H245.646ZM256.034 281L255.744 279.629H255.674C255.193 280.232 254.713 280.643 254.232 280.859C253.758 281.07 253.163 281.176 252.448 281.176C251.493 281.176 250.743 280.93 250.198 280.438C249.659 279.945 249.39 279.245 249.39 278.337C249.39 276.392 250.945 275.372 254.057 275.278L255.691 275.226V274.628C255.691 273.872 255.527 273.315 255.199 272.958C254.877 272.595 254.358 272.413 253.644 272.413C252.841 272.413 251.933 272.659 250.919 273.151L250.471 272.035C250.945 271.777 251.464 271.575 252.026 271.429C252.595 271.282 253.163 271.209 253.731 271.209C254.88 271.209 255.729 271.464 256.28 271.974C256.837 272.483 257.115 273.301 257.115 274.426V281H256.034ZM252.738 279.972C253.646 279.972 254.358 279.723 254.874 279.225C255.396 278.727 255.656 278.029 255.656 277.133V276.263L254.197 276.324C253.037 276.365 252.199 276.547 251.684 276.869C251.174 277.186 250.919 277.681 250.919 278.354C250.919 278.882 251.077 279.283 251.394 279.559C251.716 279.834 252.164 279.972 252.738 279.972ZM263.241 279.972C263.499 279.972 263.748 279.954 263.988 279.919C264.229 279.878 264.419 279.837 264.56 279.796V280.912C264.401 280.988 264.167 281.05 263.856 281.097C263.552 281.149 263.276 281.176 263.03 281.176C261.167 281.176 260.235 280.194 260.235 278.231V272.501H258.855V271.798L260.235 271.191L260.851 269.135H261.694V271.367H264.489V272.501H261.694V278.17C261.694 278.75 261.832 279.195 262.107 279.506C262.383 279.816 262.761 279.972 263.241 279.972ZM269.604 279.972C269.862 279.972 270.111 279.954 270.352 279.919C270.592 279.878 270.782 279.837 270.923 279.796V280.912C270.765 280.988 270.53 281.05 270.22 281.097C269.915 281.149 269.64 281.176 269.394 281.176C267.53 281.176 266.599 280.194 266.599 278.231V272.501H265.219V271.798L266.599 271.191L267.214 269.135H268.058V271.367H270.853V272.501H268.058V278.17C268.058 278.75 268.195 279.195 268.471 279.506C268.746 279.816 269.124 279.972 269.604 279.972ZM276.926 281.176C275.502 281.176 274.377 280.742 273.551 279.875C272.73 279.008 272.32 277.804 272.32 276.263C272.32 274.71 272.701 273.477 273.463 272.562C274.23 271.648 275.259 271.191 276.548 271.191C277.755 271.191 278.71 271.59 279.413 272.387C280.116 273.178 280.468 274.224 280.468 275.524V276.447H273.832C273.861 277.578 274.146 278.437 274.685 279.022C275.229 279.608 275.994 279.901 276.979 279.901C278.016 279.901 279.041 279.685 280.055 279.251V280.552C279.539 280.774 279.05 280.933 278.587 281.026C278.13 281.126 277.576 281.176 276.926 281.176ZM276.53 272.413C275.757 272.413 275.139 272.665 274.676 273.169C274.219 273.673 273.949 274.37 273.867 275.261H278.903C278.903 274.341 278.698 273.638 278.288 273.151C277.878 272.659 277.292 272.413 276.53 272.413ZM287.358 271.191C287.786 271.191 288.17 271.227 288.51 271.297L288.308 272.65C287.909 272.562 287.558 272.519 287.253 272.519C286.474 272.519 285.806 272.835 285.249 273.468C284.698 274.101 284.423 274.889 284.423 275.832V281H282.964V271.367H284.168L284.335 273.151H284.405C284.763 272.524 285.193 272.041 285.697 271.701C286.201 271.361 286.755 271.191 287.358 271.191ZM298.099 279.972C298.356 279.972 298.605 279.954 298.846 279.919C299.086 279.878 299.276 279.837 299.417 279.796V280.912C299.259 280.988 299.024 281.05 298.714 281.097C298.409 281.149 298.134 281.176 297.888 281.176C296.024 281.176 295.093 280.194 295.093 278.231V272.501H293.713V271.798L295.093 271.191L295.708 269.135H296.552V271.367H299.347V272.501H296.552V278.17C296.552 278.75 296.689 279.195 296.965 279.506C297.24 279.816 297.618 279.972 298.099 279.972ZM309.665 276.175C309.665 277.745 309.27 278.973 308.479 279.857C307.688 280.736 306.595 281.176 305.2 281.176C304.339 281.176 303.574 280.974 302.906 280.569C302.238 280.165 301.723 279.585 301.359 278.829C300.996 278.073 300.814 277.188 300.814 276.175C300.814 274.604 301.207 273.383 301.992 272.51C302.777 271.631 303.867 271.191 305.262 271.191C306.609 271.191 307.679 271.64 308.47 272.536C309.267 273.433 309.665 274.646 309.665 276.175ZM302.326 276.175C302.326 277.405 302.572 278.343 303.064 278.987C303.557 279.632 304.28 279.954 305.235 279.954C306.19 279.954 306.914 279.635 307.406 278.996C307.904 278.352 308.153 277.411 308.153 276.175C308.153 274.95 307.904 274.021 307.406 273.389C306.914 272.75 306.185 272.431 305.218 272.431C304.263 272.431 303.542 272.744 303.056 273.371C302.569 273.998 302.326 274.933 302.326 276.175ZM320.546 279.954C321.519 279.954 322.228 279.693 322.673 279.172C323.118 278.65 323.355 277.771 323.385 276.535V276.21C323.385 274.862 323.156 273.893 322.699 273.301C322.242 272.709 321.519 272.413 320.528 272.413C319.673 272.413 319.017 272.747 318.56 273.415C318.108 274.077 317.883 275.015 317.883 276.228C317.883 277.44 318.105 278.366 318.551 279.005C319.002 279.638 319.667 279.954 320.546 279.954ZM320.326 281.176C319.084 281.176 318.114 280.739 317.417 279.866C316.72 278.993 316.371 277.774 316.371 276.21C316.371 274.634 316.723 273.403 317.426 272.519C318.129 271.634 319.107 271.191 320.361 271.191C321.68 271.191 322.693 271.689 323.402 272.686H323.481L323.692 271.367H324.844V285.324H323.385V281.202C323.385 280.616 323.417 280.118 323.481 279.708H323.367C322.693 280.687 321.68 281.176 320.326 281.176ZM329.317 271.367V277.616C329.317 278.401 329.496 278.987 329.854 279.374C330.211 279.761 330.771 279.954 331.532 279.954C332.54 279.954 333.275 279.679 333.738 279.128C334.207 278.577 334.441 277.678 334.441 276.43V271.367H335.9V281H334.696L334.485 279.708H334.406C334.107 280.183 333.691 280.546 333.158 280.798C332.631 281.05 332.027 281.176 331.348 281.176C330.176 281.176 329.297 280.897 328.711 280.341C328.131 279.784 327.841 278.894 327.841 277.669V271.367H329.317ZM340.462 281H339.003V271.367H340.462V281ZM338.88 268.757C338.88 268.423 338.962 268.18 339.126 268.027C339.29 267.869 339.495 267.79 339.741 267.79C339.976 267.79 340.178 267.869 340.348 268.027C340.518 268.186 340.603 268.429 340.603 268.757C340.603 269.085 340.518 269.331 340.348 269.495C340.178 269.653 339.976 269.732 339.741 269.732C339.495 269.732 339.29 269.653 339.126 269.495C338.962 269.331 338.88 269.085 338.88 268.757ZM347.405 281.176C346.011 281.176 344.93 280.748 344.162 279.893C343.4 279.031 343.02 277.815 343.02 276.245C343.02 274.634 343.406 273.389 344.18 272.51C344.959 271.631 346.066 271.191 347.502 271.191C347.965 271.191 348.428 271.241 348.891 271.341C349.354 271.44 349.717 271.558 349.98 271.692L349.532 272.932C349.21 272.803 348.858 272.697 348.478 272.615C348.097 272.527 347.76 272.483 347.467 272.483C345.51 272.483 344.531 273.731 344.531 276.228C344.531 277.411 344.769 278.319 345.243 278.952C345.724 279.585 346.433 279.901 347.37 279.901C348.173 279.901 348.996 279.729 349.84 279.383V280.675C349.195 281.009 348.384 281.176 347.405 281.176ZM353.575 276.069C353.827 275.712 354.211 275.243 354.727 274.663L357.838 271.367H359.569L355.667 275.472L359.842 281H358.075L354.674 276.447L353.575 277.396V281H352.134V267.324H353.575V274.575C353.575 274.897 353.552 275.396 353.505 276.069H353.575ZM363.05 281H361.591V267.324H363.05V281ZM364.614 271.367H366.179L368.288 276.86C368.751 278.114 369.038 279.02 369.149 279.576H369.22C369.296 279.277 369.454 278.768 369.694 278.047C369.94 277.32 370.737 275.094 372.085 271.367H373.649L369.51 282.336C369.1 283.42 368.619 284.188 368.068 284.639C367.523 285.096 366.853 285.324 366.056 285.324C365.61 285.324 365.171 285.274 364.737 285.175V284.006C365.06 284.076 365.42 284.111 365.818 284.111C366.82 284.111 367.535 283.549 367.963 282.424L368.499 281.053L364.614 271.367ZM381.349 281H379.89V271.367H381.349V281ZM379.767 268.757C379.767 268.423 379.849 268.18 380.013 268.027C380.177 267.869 380.382 267.79 380.628 267.79C380.862 267.79 381.064 267.869 381.234 268.027C381.404 268.186 381.489 268.429 381.489 268.757C381.489 269.085 381.404 269.331 381.234 269.495C381.064 269.653 380.862 269.732 380.628 269.732C380.382 269.732 380.177 269.653 380.013 269.495C379.849 269.331 379.767 269.085 379.767 268.757ZM390.999 279.708H390.92C390.246 280.687 389.238 281.176 387.896 281.176C386.637 281.176 385.655 280.745 384.952 279.884C384.255 279.022 383.906 277.798 383.906 276.21C383.906 274.622 384.258 273.389 384.961 272.51C385.664 271.631 386.643 271.191 387.896 271.191C389.203 271.191 390.205 271.666 390.902 272.615H391.017L390.955 271.921L390.92 271.244V267.324H392.379V281H391.192L390.999 279.708ZM388.081 279.954C389.077 279.954 389.798 279.685 390.243 279.146C390.694 278.601 390.92 277.725 390.92 276.518V276.21C390.92 274.845 390.691 273.872 390.234 273.292C389.783 272.706 389.06 272.413 388.063 272.413C387.208 272.413 386.552 272.747 386.095 273.415C385.644 274.077 385.418 275.015 385.418 276.228C385.418 277.458 385.644 278.387 386.095 279.014C386.546 279.641 387.208 279.954 388.081 279.954ZM399.551 281.176C398.127 281.176 397.002 280.742 396.176 279.875C395.355 279.008 394.945 277.804 394.945 276.263C394.945 274.71 395.326 273.477 396.088 272.562C396.855 271.648 397.884 271.191 399.173 271.191C400.38 271.191 401.335 271.59 402.038 272.387C402.741 273.178 403.093 274.224 403.093 275.524V276.447H396.457C396.486 277.578 396.771 278.437 397.31 279.022C397.854 279.608 398.619 279.901 399.604 279.901C400.641 279.901 401.666 279.685 402.68 279.251V280.552C402.164 280.774 401.675 280.933 401.212 281.026C400.755 281.126 400.201 281.176 399.551 281.176ZM399.155 272.413C398.382 272.413 397.764 272.665 397.301 273.169C396.844 273.673 396.574 274.37 396.492 275.261H401.528C401.528 274.341 401.323 273.638 400.913 273.151C400.503 272.659 399.917 272.413 399.155 272.413ZM412.181 281V274.769C412.181 273.983 412.002 273.397 411.645 273.011C411.287 272.624 410.728 272.431 409.966 272.431C408.958 272.431 408.22 272.703 407.751 273.248C407.282 273.793 407.048 274.692 407.048 275.946V281H405.589V271.367H406.775L407.013 272.686H407.083C407.382 272.211 407.801 271.845 408.34 271.587C408.879 271.323 409.479 271.191 410.142 271.191C411.302 271.191 412.175 271.473 412.761 272.035C413.347 272.592 413.64 273.485 413.64 274.716V281H412.181ZM419.757 279.972C420.015 279.972 420.264 279.954 420.504 279.919C420.744 279.878 420.935 279.837 421.075 279.796V280.912C420.917 280.988 420.683 281.05 420.372 281.097C420.067 281.149 419.792 281.176 419.546 281.176C417.683 281.176 416.751 280.194 416.751 278.231V272.501H415.371V271.798L416.751 271.191L417.366 269.135H418.21V271.367H421.005V272.501H418.21V278.17C418.21 278.75 418.348 279.195 418.623 279.506C418.898 279.816 419.276 279.972 419.757 279.972ZM424.468 281H423.009V271.367H424.468V281ZM422.886 268.757C422.886 268.423 422.968 268.18 423.132 268.027C423.296 267.869 423.501 267.79 423.747 267.79C423.981 267.79 424.184 267.869 424.354 268.027C424.523 268.186 424.608 268.429 424.608 268.757C424.608 269.085 424.523 269.331 424.354 269.495C424.184 269.653 423.981 269.732 423.747 269.732C423.501 269.732 423.296 269.653 423.132 269.495C422.968 269.331 422.886 269.085 422.886 268.757ZM431.903 272.501H429.451V281H427.992V272.501H426.27V271.842L427.992 271.314V270.778C427.992 268.411 429.026 267.228 431.095 267.228C431.604 267.228 432.202 267.33 432.888 267.535L432.51 268.704C431.947 268.522 431.467 268.432 431.068 268.432C430.518 268.432 430.11 268.616 429.847 268.985C429.583 269.349 429.451 269.935 429.451 270.743V271.367H431.903V272.501ZM432.132 271.367H433.696L435.806 276.86C436.269 278.114 436.556 279.02 436.667 279.576H436.737C436.813 279.277 436.972 278.768 437.212 278.047C437.458 277.32 438.255 275.094 439.603 271.367H441.167L437.027 282.336C436.617 283.42 436.137 284.188 435.586 284.639C435.041 285.096 434.37 285.324 433.573 285.324C433.128 285.324 432.688 285.274 432.255 285.175V284.006C432.577 284.076 432.938 284.111 433.336 284.111C434.338 284.111 435.053 283.549 435.48 282.424L436.017 281.053L432.132 271.367ZM97.4268 304.972C97.6846 304.972 97.9336 304.954 98.1738 304.919C98.4141 304.878 98.6045 304.837 98.7451 304.796V305.912C98.5869 305.988 98.3525 306.05 98.042 306.097C97.7373 306.149 97.4619 306.176 97.2158 306.176C95.3525 306.176 94.4209 305.194 94.4209 303.231V297.501H93.041V296.798L94.4209 296.191L95.0361 294.135H95.8799V296.367H98.6748V297.501H95.8799V303.17C95.8799 303.75 96.0176 304.195 96.293 304.506C96.5684 304.816 96.9463 304.972 97.4268 304.972ZM107.271 306V299.769C107.271 298.983 107.092 298.397 106.734 298.011C106.377 297.624 105.817 297.431 105.056 297.431C104.042 297.431 103.301 297.706 102.832 298.257C102.369 298.808 102.138 299.71 102.138 300.964V306H100.679V292.324H102.138V296.464C102.138 296.962 102.114 297.375 102.067 297.703H102.155C102.442 297.24 102.85 296.877 103.377 296.613C103.91 296.344 104.517 296.209 105.196 296.209C106.374 296.209 107.256 296.49 107.842 297.053C108.434 297.609 108.729 298.497 108.729 299.716V306H107.271ZM115.805 306.176C114.381 306.176 113.256 305.742 112.43 304.875C111.609 304.008 111.199 302.804 111.199 301.263C111.199 299.71 111.58 298.477 112.342 297.562C113.109 296.648 114.138 296.191 115.427 296.191C116.634 296.191 117.589 296.59 118.292 297.387C118.995 298.178 119.347 299.224 119.347 300.524V301.447H112.711C112.74 302.578 113.024 303.437 113.563 304.022C114.108 304.608 114.873 304.901 115.857 304.901C116.895 304.901 117.92 304.685 118.934 304.251V305.552C118.418 305.774 117.929 305.933 117.466 306.026C117.009 306.126 116.455 306.176 115.805 306.176ZM115.409 297.413C114.636 297.413 114.018 297.665 113.555 298.169C113.098 298.673 112.828 299.37 112.746 300.261H117.782C117.782 299.341 117.577 298.638 117.167 298.151C116.757 297.659 116.171 297.413 115.409 297.413ZM133.075 304.708H132.996C132.322 305.687 131.314 306.176 129.973 306.176C128.713 306.176 127.731 305.745 127.028 304.884C126.331 304.022 125.982 302.798 125.982 301.21C125.982 299.622 126.334 298.389 127.037 297.51C127.74 296.631 128.719 296.191 129.973 296.191C131.279 296.191 132.281 296.666 132.979 297.615H133.093L133.031 296.921L132.996 296.244V292.324H134.455V306H133.269L133.075 304.708ZM130.157 304.954C131.153 304.954 131.874 304.685 132.319 304.146C132.771 303.601 132.996 302.725 132.996 301.518V301.21C132.996 299.845 132.768 298.872 132.311 298.292C131.859 297.706 131.136 297.413 130.14 297.413C129.284 297.413 128.628 297.747 128.171 298.415C127.72 299.077 127.494 300.015 127.494 301.228C127.494 302.458 127.72 303.387 128.171 304.014C128.622 304.641 129.284 304.954 130.157 304.954ZM143.481 306L143.191 304.629H143.121C142.641 305.232 142.16 305.643 141.68 305.859C141.205 306.07 140.61 306.176 139.896 306.176C138.94 306.176 138.19 305.93 137.646 305.438C137.106 304.945 136.837 304.245 136.837 303.337C136.837 301.392 138.393 300.372 141.504 300.278L143.139 300.226V299.628C143.139 298.872 142.975 298.315 142.646 297.958C142.324 297.595 141.806 297.413 141.091 297.413C140.288 297.413 139.38 297.659 138.366 298.151L137.918 297.035C138.393 296.777 138.911 296.575 139.474 296.429C140.042 296.282 140.61 296.209 141.179 296.209C142.327 296.209 143.177 296.464 143.728 296.974C144.284 297.483 144.562 298.301 144.562 299.426V306H143.481ZM140.186 304.972C141.094 304.972 141.806 304.723 142.321 304.225C142.843 303.727 143.104 303.029 143.104 302.133V301.263L141.645 301.324C140.484 301.365 139.646 301.547 139.131 301.869C138.621 302.186 138.366 302.681 138.366 303.354C138.366 303.882 138.524 304.283 138.841 304.559C139.163 304.834 139.611 304.972 140.186 304.972ZM150.688 304.972C150.946 304.972 151.195 304.954 151.436 304.919C151.676 304.878 151.866 304.837 152.007 304.796V305.912C151.849 305.988 151.614 306.05 151.304 306.097C150.999 306.149 150.724 306.176 150.478 306.176C148.614 306.176 147.683 305.194 147.683 303.231V297.501H146.303V296.798L147.683 296.191L148.298 294.135H149.142V296.367H151.937V297.501H149.142V303.17C149.142 303.75 149.279 304.195 149.555 304.506C149.83 304.816 150.208 304.972 150.688 304.972ZM159.864 306L159.574 304.629H159.504C159.023 305.232 158.543 305.643 158.062 305.859C157.588 306.07 156.993 306.176 156.278 306.176C155.323 306.176 154.573 305.93 154.028 305.438C153.489 304.945 153.22 304.245 153.22 303.337C153.22 301.392 154.775 300.372 157.887 300.278L159.521 300.226V299.628C159.521 298.872 159.357 298.315 159.029 297.958C158.707 297.595 158.188 297.413 157.474 297.413C156.671 297.413 155.763 297.659 154.749 298.151L154.301 297.035C154.775 296.777 155.294 296.575 155.856 296.429C156.425 296.282 156.993 296.209 157.562 296.209C158.71 296.209 159.56 296.464 160.11 296.974C160.667 297.483 160.945 298.301 160.945 299.426V306H159.864ZM156.568 304.972C157.477 304.972 158.188 304.723 158.704 304.225C159.226 303.727 159.486 303.029 159.486 302.133V301.263L158.027 301.324C156.867 301.365 156.029 301.547 155.514 301.869C155.004 302.186 154.749 302.681 154.749 303.354C154.749 303.882 154.907 304.283 155.224 304.559C155.546 304.834 155.994 304.972 156.568 304.972ZM170.007 296.367V302.616C170.007 303.401 170.186 303.987 170.543 304.374C170.9 304.761 171.46 304.954 172.222 304.954C173.229 304.954 173.965 304.679 174.428 304.128C174.896 303.577 175.131 302.678 175.131 301.43V296.367H176.59V306H175.386L175.175 304.708H175.096C174.797 305.183 174.381 305.546 173.848 305.798C173.32 306.05 172.717 306.176 172.037 306.176C170.865 306.176 169.986 305.897 169.4 305.341C168.82 304.784 168.53 303.894 168.53 302.669V296.367H170.007ZM186.284 306V299.769C186.284 298.983 186.105 298.397 185.748 298.011C185.391 297.624 184.831 297.431 184.069 297.431C183.062 297.431 182.323 297.703 181.854 298.248C181.386 298.793 181.151 299.692 181.151 300.946V306H179.692V296.367H180.879L181.116 297.686H181.187C181.485 297.211 181.904 296.845 182.443 296.587C182.982 296.323 183.583 296.191 184.245 296.191C185.405 296.191 186.278 296.473 186.864 297.035C187.45 297.592 187.743 298.485 187.743 299.716V306H186.284ZM192.208 306H190.749V296.367H192.208V306ZM190.626 293.757C190.626 293.423 190.708 293.18 190.872 293.027C191.036 292.869 191.241 292.79 191.487 292.79C191.722 292.79 191.924 292.869 192.094 293.027C192.264 293.186 192.349 293.429 192.349 293.757C192.349 294.085 192.264 294.331 192.094 294.495C191.924 294.653 191.722 294.732 191.487 294.732C191.241 294.732 191.036 294.653 190.872 294.495C190.708 294.331 190.626 294.085 190.626 293.757ZM198.94 304.954C199.913 304.954 200.622 304.693 201.067 304.172C201.513 303.65 201.75 302.771 201.779 301.535V301.21C201.779 299.862 201.551 298.893 201.094 298.301C200.637 297.709 199.913 297.413 198.923 297.413C198.067 297.413 197.411 297.747 196.954 298.415C196.503 299.077 196.277 300.015 196.277 301.228C196.277 302.44 196.5 303.366 196.945 304.005C197.396 304.638 198.062 304.954 198.94 304.954ZM198.721 306.176C197.479 306.176 196.509 305.739 195.812 304.866C195.114 303.993 194.766 302.774 194.766 301.21C194.766 299.634 195.117 298.403 195.82 297.519C196.523 296.634 197.502 296.191 198.756 296.191C200.074 296.191 201.088 296.689 201.797 297.686H201.876L202.087 296.367H203.238V310.324H201.779V306.202C201.779 305.616 201.812 305.118 201.876 304.708H201.762C201.088 305.687 200.074 306.176 198.721 306.176ZM207.712 296.367V302.616C207.712 303.401 207.891 303.987 208.248 304.374C208.605 304.761 209.165 304.954 209.927 304.954C210.935 304.954 211.67 304.679 212.133 304.128C212.602 303.577 212.836 302.678 212.836 301.43V296.367H214.295V306H213.091L212.88 304.708H212.801C212.502 305.183 212.086 305.546 211.553 305.798C211.025 306.05 210.422 306.176 209.742 306.176C208.57 306.176 207.691 305.897 207.105 305.341C206.525 304.784 206.235 303.894 206.235 302.669V296.367H207.712ZM221.467 306.176C220.043 306.176 218.918 305.742 218.092 304.875C217.271 304.008 216.861 302.804 216.861 301.263C216.861 299.71 217.242 298.477 218.004 297.562C218.771 296.648 219.8 296.191 221.089 296.191C222.296 296.191 223.251 296.59 223.954 297.387C224.657 298.178 225.009 299.224 225.009 300.524V301.447H218.373C218.402 302.578 218.687 303.437 219.226 304.022C219.771 304.608 220.535 304.901 221.52 304.901C222.557 304.901 223.582 304.685 224.596 304.251V305.552C224.08 305.774 223.591 305.933 223.128 306.026C222.671 306.126 222.117 306.176 221.467 306.176ZM221.071 297.413C220.298 297.413 219.68 297.665 219.217 298.169C218.76 298.673 218.49 299.37 218.408 300.261H223.444C223.444 299.341 223.239 298.638 222.829 298.151C222.419 297.659 221.833 297.413 221.071 297.413ZM228.964 306H227.505V292.324H228.964V306ZM230.528 296.367H232.093L234.202 301.86C234.665 303.114 234.952 304.02 235.063 304.576H235.134C235.21 304.277 235.368 303.768 235.608 303.047C235.854 302.32 236.651 300.094 237.999 296.367H239.563L235.424 307.336C235.014 308.42 234.533 309.188 233.982 309.639C233.438 310.096 232.767 310.324 231.97 310.324C231.524 310.324 231.085 310.274 230.651 310.175V309.006C230.974 309.076 231.334 309.111 231.732 309.111C232.734 309.111 233.449 308.549 233.877 307.424L234.413 306.053L230.528 296.367ZM250.198 296.191C250.626 296.191 251.01 296.227 251.35 296.297L251.147 297.65C250.749 297.562 250.397 297.519 250.093 297.519C249.313 297.519 248.646 297.835 248.089 298.468C247.538 299.101 247.263 299.889 247.263 300.832V306H245.804V296.367H247.008L247.175 298.151H247.245C247.603 297.524 248.033 297.041 248.537 296.701C249.041 296.361 249.595 296.191 250.198 296.191ZM257.221 306.176C255.797 306.176 254.672 305.742 253.846 304.875C253.025 304.008 252.615 302.804 252.615 301.263C252.615 299.71 252.996 298.477 253.758 297.562C254.525 296.648 255.554 296.191 256.843 296.191C258.05 296.191 259.005 296.59 259.708 297.387C260.411 298.178 260.763 299.224 260.763 300.524V301.447H254.127C254.156 302.578 254.44 303.437 254.979 304.022C255.524 304.608 256.289 304.901 257.273 304.901C258.311 304.901 259.336 304.685 260.35 304.251V305.552C259.834 305.774 259.345 305.933 258.882 306.026C258.425 306.126 257.871 306.176 257.221 306.176ZM256.825 297.413C256.052 297.413 255.434 297.665 254.971 298.169C254.514 298.673 254.244 299.37 254.162 300.261H259.198C259.198 299.341 258.993 298.638 258.583 298.151C258.173 297.659 257.587 297.413 256.825 297.413ZM264.718 306H263.259V292.324H264.718V306ZM271.881 306.176C270.457 306.176 269.332 305.742 268.506 304.875C267.686 304.008 267.275 302.804 267.275 301.263C267.275 299.71 267.656 298.477 268.418 297.562C269.186 296.648 270.214 296.191 271.503 296.191C272.71 296.191 273.665 296.59 274.368 297.387C275.071 298.178 275.423 299.224 275.423 300.524V301.447H268.787C268.816 302.578 269.101 303.437 269.64 304.022C270.185 304.608 270.949 304.901 271.934 304.901C272.971 304.901 273.996 304.685 275.01 304.251V305.552C274.494 305.774 274.005 305.933 273.542 306.026C273.085 306.126 272.531 306.176 271.881 306.176ZM271.485 297.413C270.712 297.413 270.094 297.665 269.631 298.169C269.174 298.673 268.904 299.37 268.822 300.261H273.858C273.858 299.341 273.653 298.638 273.243 298.151C272.833 297.659 272.247 297.413 271.485 297.413ZM280.028 306L276.372 296.367H277.937L280.011 302.08C280.479 303.416 280.755 304.283 280.837 304.682H280.907C280.972 304.371 281.174 303.729 281.514 302.757C281.859 301.778 282.63 299.648 283.825 296.367H285.39L281.733 306H280.028ZM292.86 306L292.57 304.629H292.5C292.02 305.232 291.539 305.643 291.059 305.859C290.584 306.07 289.989 306.176 289.274 306.176C288.319 306.176 287.569 305.93 287.024 305.438C286.485 304.945 286.216 304.245 286.216 303.337C286.216 301.392 287.771 300.372 290.883 300.278L292.518 300.226V299.628C292.518 298.872 292.354 298.315 292.025 297.958C291.703 297.595 291.185 297.413 290.47 297.413C289.667 297.413 288.759 297.659 287.745 298.151L287.297 297.035C287.771 296.777 288.29 296.575 288.853 296.429C289.421 296.282 289.989 296.209 290.558 296.209C291.706 296.209 292.556 296.464 293.106 296.974C293.663 297.483 293.941 298.301 293.941 299.426V306H292.86ZM289.564 304.972C290.473 304.972 291.185 304.723 291.7 304.225C292.222 303.727 292.482 303.029 292.482 302.133V301.263L291.023 301.324C289.863 301.365 289.025 301.547 288.51 301.869C288 302.186 287.745 302.681 287.745 303.354C287.745 303.882 287.903 304.283 288.22 304.559C288.542 304.834 288.99 304.972 289.564 304.972ZM303.548 306V299.769C303.548 298.983 303.369 298.397 303.012 298.011C302.654 297.624 302.095 297.431 301.333 297.431C300.325 297.431 299.587 297.703 299.118 298.248C298.649 298.793 298.415 299.692 298.415 300.946V306H296.956V296.367H298.143L298.38 297.686H298.45C298.749 297.211 299.168 296.845 299.707 296.587C300.246 296.323 300.847 296.191 301.509 296.191C302.669 296.191 303.542 296.473 304.128 297.035C304.714 297.592 305.007 298.485 305.007 299.716V306H303.548ZM311.124 304.972C311.382 304.972 311.631 304.954 311.871 304.919C312.111 304.878 312.302 304.837 312.442 304.796V305.912C312.284 305.988 312.05 306.05 311.739 306.097C311.435 306.149 311.159 306.176 310.913 306.176C309.05 306.176 308.118 305.194 308.118 303.231V297.501H306.738V296.798L308.118 296.191L308.733 294.135H309.577V296.367H312.372V297.501H309.577V303.17C309.577 303.75 309.715 304.195 309.99 304.506C310.266 304.816 310.644 304.972 311.124 304.972ZM322.163 304.972C322.421 304.972 322.67 304.954 322.91 304.919C323.15 304.878 323.341 304.837 323.481 304.796V305.912C323.323 305.988 323.089 306.05 322.778 306.097C322.474 306.149 322.198 306.176 321.952 306.176C320.089 306.176 319.157 305.194 319.157 303.231V297.501H317.777V296.798L319.157 296.191L319.772 294.135H320.616V296.367H323.411V297.501H320.616V303.17C320.616 303.75 320.754 304.195 321.029 304.506C321.305 304.816 321.683 304.972 322.163 304.972ZM333.729 301.175C333.729 302.745 333.334 303.973 332.543 304.857C331.752 305.736 330.659 306.176 329.265 306.176C328.403 306.176 327.639 305.974 326.971 305.569C326.303 305.165 325.787 304.585 325.424 303.829C325.061 303.073 324.879 302.188 324.879 301.175C324.879 299.604 325.271 298.383 326.057 297.51C326.842 296.631 327.932 296.191 329.326 296.191C330.674 296.191 331.743 296.64 332.534 297.536C333.331 298.433 333.729 299.646 333.729 301.175ZM326.391 301.175C326.391 302.405 326.637 303.343 327.129 303.987C327.621 304.632 328.345 304.954 329.3 304.954C330.255 304.954 330.979 304.635 331.471 303.996C331.969 303.352 332.218 302.411 332.218 301.175C332.218 299.95 331.969 299.021 331.471 298.389C330.979 297.75 330.249 297.431 329.282 297.431C328.327 297.431 327.606 297.744 327.12 298.371C326.634 298.998 326.391 299.933 326.391 301.175ZM339.442 296.367H341.007L343.116 301.86C343.579 303.114 343.866 304.02 343.978 304.576H344.048C344.124 304.277 344.282 303.768 344.522 303.047C344.769 302.32 345.565 300.094 346.913 296.367H348.478L344.338 307.336C343.928 308.42 343.447 309.188 342.896 309.639C342.352 310.096 341.681 310.324 340.884 310.324C340.438 310.324 339.999 310.274 339.565 310.175V309.006C339.888 309.076 340.248 309.111 340.646 309.111C341.648 309.111 342.363 308.549 342.791 307.424L343.327 306.053L339.442 296.367ZM358.356 301.175C358.356 302.745 357.961 303.973 357.17 304.857C356.379 305.736 355.286 306.176 353.892 306.176C353.03 306.176 352.266 305.974 351.598 305.569C350.93 305.165 350.414 304.585 350.051 303.829C349.688 303.073 349.506 302.188 349.506 301.175C349.506 299.604 349.898 298.383 350.684 297.51C351.469 296.631 352.559 296.191 353.953 296.191C355.301 296.191 356.37 296.64 357.161 297.536C357.958 298.433 358.356 299.646 358.356 301.175ZM351.018 301.175C351.018 302.405 351.264 303.343 351.756 303.987C352.248 304.632 352.972 304.954 353.927 304.954C354.882 304.954 355.605 304.635 356.098 303.996C356.596 303.352 356.845 302.411 356.845 301.175C356.845 299.95 356.596 299.021 356.098 298.389C355.605 297.75 354.876 297.431 353.909 297.431C352.954 297.431 352.233 297.744 351.747 298.371C351.261 298.998 351.018 299.933 351.018 301.175ZM362.294 296.367V302.616C362.294 303.401 362.473 303.987 362.83 304.374C363.188 304.761 363.747 304.954 364.509 304.954C365.517 304.954 366.252 304.679 366.715 304.128C367.184 303.577 367.418 302.678 367.418 301.43V296.367H368.877V306H367.673L367.462 304.708H367.383C367.084 305.183 366.668 305.546 366.135 305.798C365.607 306.05 365.004 306.176 364.324 306.176C363.152 306.176 362.273 305.897 361.688 305.341C361.107 304.784 360.817 303.894 360.817 302.669V296.367H362.294ZM371.769 305.068C371.769 304.676 371.856 304.38 372.032 304.181C372.214 303.976 372.472 303.873 372.806 303.873C373.146 303.873 373.409 303.976 373.597 304.181C373.79 304.38 373.887 304.676 373.887 305.068C373.887 305.449 373.79 305.742 373.597 305.947C373.403 306.152 373.14 306.255 372.806 306.255C372.507 306.255 372.258 306.164 372.059 305.982C371.865 305.795 371.769 305.49 371.769 305.068Z" fill="black"/>
<path d="M202.25 30H221V37.5H202.25V30Z" fill="#0166A3"/>
<path d="M202.25 45H221V52.5H202.25V45Z" fill="#0166A3"/>
<path d="M202.25 60H221V67.5H202.25V60Z" fill="#0166A3"/>
<path d="M251 30H269.75V37.5H251V30Z" fill="#0166A3"/>
<path d="M251 45H269.75V52.5H251V45Z" fill="#0166A3"/>
<path d="M251 60H269.75V67.5H251V60Z" fill="#0166A3"/>
<path d="M281 15H191C189.011 15.002 187.105 15.7928 185.699 17.1989C184.293 18.605 183.502 20.5115 183.5 22.5V105C183.502 106.989 184.293 108.895 185.699 110.301C187.105 111.707 189.011 112.498 191 112.5H281C282.989 112.498 284.895 111.707 286.301 110.301C287.707 108.895 288.498 106.989 288.5 105V22.5C288.498 20.5115 287.707 18.605 286.301 17.1989C284.895 15.7928 282.989 15.002 281 15ZM191 22.5H232.25V105H191V22.5ZM239.75 105V22.5H281V105H239.75Z" fill="#0166A3"/>
</svg>
