<svg width="470" height="365" viewBox="0 0 470 365" fill="none" xmlns="http://www.w3.org/2000/svg">
<rect y="30" width="470" height="335" rx="15" fill="#F0F8FC"/>
<path d="M68.2734 167.662H69.7676C71.1641 167.662 72.209 167.389 72.9023 166.842C73.5957 166.285 73.9424 165.479 73.9424 164.425C73.9424 163.36 73.6494 162.574 73.0635 162.066C72.4873 161.559 71.5791 161.305 70.3389 161.305H68.2734V167.662ZM78.5273 164.264C78.5273 166.568 77.8047 168.331 76.3594 169.552C74.9238 170.772 72.8779 171.383 70.2217 171.383H68.2734V179H63.7324V157.584H70.5732C73.1709 157.584 75.1436 158.146 76.4912 159.269C77.8486 160.382 78.5273 162.047 78.5273 164.264ZM87.1113 167.091H88.5762C90.0117 167.091 91.0713 166.852 91.7549 166.373C92.4385 165.895 92.7803 165.143 92.7803 164.117C92.7803 163.102 92.4287 162.379 91.7256 161.949C91.0322 161.52 89.9531 161.305 88.4883 161.305H87.1113V167.091ZM87.1113 170.782V179H82.5703V157.584H88.8105C91.7207 157.584 93.874 158.116 95.2705 159.181C96.667 160.235 97.3652 161.842 97.3652 164C97.3652 165.26 97.0186 166.383 96.3252 167.369C95.6318 168.346 94.6504 169.112 93.3809 169.669C96.6035 174.483 98.7031 177.594 99.6797 179H94.6406L89.5283 170.782H87.1113ZM114.709 179H102.375V157.584H114.709V161.305H106.916V166.007H114.167V169.728H106.916V175.25H114.709V179ZM131.833 173.053C131.833 174.986 131.135 176.51 129.738 177.623C128.352 178.736 126.418 179.293 123.938 179.293C121.652 179.293 119.631 178.863 117.873 178.004V173.785C119.318 174.43 120.539 174.884 121.535 175.147C122.541 175.411 123.459 175.543 124.289 175.543C125.285 175.543 126.047 175.353 126.574 174.972C127.111 174.591 127.38 174.024 127.38 173.272C127.38 172.853 127.263 172.481 127.028 172.159C126.794 171.827 126.447 171.51 125.988 171.207C125.539 170.904 124.616 170.421 123.22 169.757C121.911 169.142 120.93 168.551 120.275 167.984C119.621 167.418 119.099 166.759 118.708 166.007C118.317 165.255 118.122 164.376 118.122 163.37C118.122 161.476 118.762 159.986 120.041 158.902C121.33 157.818 123.107 157.276 125.373 157.276C126.486 157.276 127.546 157.408 128.552 157.672C129.567 157.936 130.627 158.307 131.73 158.785L130.266 162.315C129.123 161.847 128.176 161.52 127.424 161.334C126.682 161.148 125.949 161.056 125.227 161.056C124.367 161.056 123.708 161.256 123.249 161.656C122.79 162.057 122.561 162.579 122.561 163.224C122.561 163.624 122.653 163.976 122.839 164.278C123.024 164.571 123.317 164.859 123.718 165.143C124.128 165.416 125.09 165.914 126.604 166.637C128.605 167.594 129.978 168.556 130.72 169.522C131.462 170.479 131.833 171.656 131.833 173.053ZM148.049 179H135.715V157.584H148.049V161.305H140.256V166.007H147.507V169.728H140.256V175.25H148.049V179ZM171.53 179H165.759L156.442 162.799H156.311C156.496 165.66 156.589 167.701 156.589 168.922V179H152.531V157.584H158.259L167.561 173.624H167.663C167.517 170.841 167.443 168.873 167.443 167.721V157.584H171.53V179ZM185.197 179H180.656V161.363H174.841V157.584H191.013V161.363H185.197V179ZM210.363 179H205.822V161.363H200.007V157.584H216.179V161.363H210.363V179ZM237.023 179H232.497V169.757H224.016V179H219.475V157.584H224.016V165.978H232.497V157.584H237.023V179ZM254.777 179H242.443V157.584H254.777V161.305H246.984V166.007H254.235V169.728H246.984V175.25H254.777V179ZM271.521 179H267.053V157.584H279.328V161.305H271.521V166.827H278.786V170.533H271.521V179ZM283.518 179V157.584H288.059V179H283.518ZM312.448 179H306.677L297.36 162.799H297.229C297.414 165.66 297.507 167.701 297.507 168.922V179H293.449V157.584H299.177L308.479 173.624H308.581C308.435 170.841 308.361 168.873 308.361 167.721V157.584H312.448V179ZM335.622 168.087C335.622 171.612 334.616 174.312 332.604 176.188C330.603 178.062 327.707 179 323.918 179H317.854V157.584H324.577C328.073 157.584 330.788 158.507 332.722 160.353C334.655 162.198 335.622 164.776 335.622 168.087ZM330.905 168.204C330.905 163.604 328.874 161.305 324.812 161.305H322.395V175.25H324.343C328.718 175.25 330.905 172.901 330.905 168.204ZM340.061 179V157.584H344.602V179H340.061ZM368.991 179H363.22L353.903 162.799H353.771C353.957 165.66 354.05 167.701 354.05 168.922V179H349.992V157.584H355.72L365.021 173.624H365.124C364.978 170.841 364.904 168.873 364.904 167.721V157.584H368.991V179ZM382.526 166.974H391.022V178.077C389.646 178.526 388.347 178.839 387.126 179.015C385.915 179.2 384.675 179.293 383.405 179.293C380.173 179.293 377.702 178.346 375.993 176.451C374.294 174.547 373.444 171.817 373.444 168.263C373.444 164.806 374.431 162.11 376.403 160.177C378.386 158.243 381.13 157.276 384.636 157.276C386.833 157.276 388.952 157.716 390.993 158.595L389.484 162.228C387.922 161.446 386.296 161.056 384.606 161.056C382.644 161.056 381.071 161.715 379.89 163.033C378.708 164.352 378.117 166.124 378.117 168.351C378.117 170.675 378.591 172.452 379.538 173.683C380.495 174.903 381.882 175.514 383.698 175.514C384.646 175.514 385.607 175.416 386.584 175.221V170.753H382.526V166.974ZM408.776 173.053C408.776 174.986 408.078 176.51 406.682 177.623C405.295 178.736 403.361 179.293 400.881 179.293C398.596 179.293 396.574 178.863 394.816 178.004V173.785C396.262 174.43 397.482 174.884 398.479 175.147C399.484 175.411 400.402 175.543 401.232 175.543C402.229 175.543 402.99 175.353 403.518 174.972C404.055 174.591 404.323 174.024 404.323 173.272C404.323 172.853 404.206 172.481 403.972 172.159C403.737 171.827 403.391 171.51 402.932 171.207C402.482 170.904 401.56 170.421 400.163 169.757C398.854 169.142 397.873 168.551 397.219 167.984C396.564 167.418 396.042 166.759 395.651 166.007C395.261 165.255 395.065 164.376 395.065 163.37C395.065 161.476 395.705 159.986 396.984 158.902C398.273 157.818 400.051 157.276 402.316 157.276C403.43 157.276 404.489 157.408 405.495 157.672C406.511 157.936 407.57 158.307 408.674 158.785L407.209 162.315C406.066 161.847 405.119 161.52 404.367 161.334C403.625 161.148 402.893 161.056 402.17 161.056C401.311 161.056 400.651 161.256 400.192 161.656C399.733 162.057 399.504 162.579 399.504 163.224C399.504 163.624 399.597 163.976 399.782 164.278C399.968 164.571 400.261 164.859 400.661 165.143C401.071 165.416 402.033 165.914 403.547 166.637C405.549 167.594 406.921 168.556 407.663 169.522C408.405 170.479 408.776 171.656 408.776 173.053Z" fill="black"/>
<path d="M46.2012 215.15V223.465C46.2012 224.93 45.7588 226.081 44.874 226.919C43.9893 227.757 42.7734 228.176 41.2266 228.176C39.6797 228.176 38.4814 227.754 37.6318 226.91C36.7881 226.066 36.3662 224.906 36.3662 223.43V215.15H37.8604V223.535C37.8604 224.607 38.1533 225.431 38.7393 226.005C39.3252 226.579 40.1865 226.866 41.3232 226.866C42.4072 226.866 43.2422 226.579 43.8281 226.005C44.4141 225.425 44.707 224.596 44.707 223.518V215.15H46.2012ZM55.6055 225.372C55.6055 226.269 55.2715 226.96 54.6035 227.446C53.9355 227.933 52.998 228.176 51.791 228.176C50.5137 228.176 49.5176 227.974 48.8027 227.569V226.216C49.2656 226.45 49.7607 226.635 50.2881 226.77C50.8213 226.904 51.334 226.972 51.8262 226.972C52.5879 226.972 53.1738 226.852 53.584 226.611C53.9941 226.365 54.1992 225.993 54.1992 225.495C54.1992 225.12 54.0352 224.801 53.707 224.537C53.3848 224.268 52.752 223.951 51.8086 223.588C50.9121 223.254 50.2734 222.964 49.8926 222.718C49.5176 222.466 49.2363 222.182 49.0488 221.865C48.8672 221.549 48.7764 221.171 48.7764 220.731C48.7764 219.946 49.0957 219.328 49.7344 218.877C50.373 218.42 51.249 218.191 52.3623 218.191C53.3994 218.191 54.4131 218.402 55.4033 218.824L54.8848 220.011C53.918 219.612 53.042 219.413 52.2568 219.413C51.5654 219.413 51.0439 219.521 50.6924 219.738C50.3408 219.955 50.165 220.254 50.165 220.635C50.165 220.893 50.2295 221.112 50.3584 221.294C50.4932 221.476 50.707 221.648 51 221.812C51.293 221.977 51.8555 222.214 52.6875 222.524C53.8301 222.94 54.6006 223.359 54.999 223.781C55.4033 224.203 55.6055 224.733 55.6055 225.372ZM59.4463 228H57.9873V218.367H59.4463V228ZM57.8643 215.757C57.8643 215.423 57.9463 215.18 58.1104 215.027C58.2744 214.869 58.4795 214.79 58.7256 214.79C58.96 214.79 59.1621 214.869 59.332 215.027C59.502 215.186 59.5869 215.429 59.5869 215.757C59.5869 216.085 59.502 216.331 59.332 216.495C59.1621 216.653 58.96 216.732 58.7256 216.732C58.4795 216.732 58.2744 216.653 58.1104 216.495C57.9463 216.331 57.8643 216.085 57.8643 215.757ZM69.1318 228V221.769C69.1318 220.983 68.9531 220.397 68.5957 220.011C68.2383 219.624 67.6787 219.431 66.917 219.431C65.9092 219.431 65.1709 219.703 64.7021 220.248C64.2334 220.793 63.999 221.692 63.999 222.946V228H62.54V218.367H63.7266L63.9639 219.686H64.0342C64.333 219.211 64.752 218.845 65.291 218.587C65.8301 218.323 66.4307 218.191 67.0928 218.191C68.2529 218.191 69.126 218.473 69.7119 219.035C70.2979 219.592 70.5908 220.485 70.5908 221.716V228H69.1318ZM81.4805 218.367V219.29L79.6963 219.501C79.8604 219.706 80.0068 219.976 80.1357 220.31C80.2646 220.638 80.3291 221.01 80.3291 221.426C80.3291 222.369 80.0068 223.122 79.3623 223.685C78.7178 224.247 77.833 224.528 76.708 224.528C76.4209 224.528 76.1514 224.505 75.8994 224.458C75.2783 224.786 74.9678 225.199 74.9678 225.697C74.9678 225.961 75.0762 226.157 75.293 226.286C75.5098 226.409 75.8818 226.471 76.4092 226.471H78.1143C79.1572 226.471 79.957 226.69 80.5137 227.13C81.0762 227.569 81.3574 228.208 81.3574 229.046C81.3574 230.112 80.9297 230.924 80.0742 231.48C79.2188 232.043 77.9707 232.324 76.3301 232.324C75.0703 232.324 74.0977 232.09 73.4121 231.621C72.7324 231.152 72.3926 230.49 72.3926 229.635C72.3926 229.049 72.5801 228.542 72.9551 228.114C73.3301 227.687 73.8574 227.396 74.5371 227.244C74.291 227.133 74.083 226.96 73.9131 226.726C73.749 226.491 73.667 226.219 73.667 225.908C73.667 225.557 73.7607 225.249 73.9482 224.985C74.1357 224.722 74.4316 224.467 74.8359 224.221C74.3379 224.016 73.9307 223.667 73.6143 223.175C73.3037 222.683 73.1484 222.12 73.1484 221.487C73.1484 220.433 73.4648 219.621 74.0977 219.053C74.7305 218.479 75.627 218.191 76.7871 218.191C77.291 218.191 77.7451 218.25 78.1494 218.367H81.4805ZM73.7988 229.617C73.7988 230.139 74.0186 230.534 74.458 230.804C74.8975 231.073 75.5273 231.208 76.3477 231.208C77.5723 231.208 78.4775 231.023 79.0635 230.654C79.6553 230.291 79.9512 229.796 79.9512 229.169C79.9512 228.647 79.79 228.284 79.4678 228.079C79.1455 227.88 78.5391 227.78 77.6484 227.78H75.8994C75.2373 227.78 74.7217 227.938 74.3525 228.255C73.9834 228.571 73.7988 229.025 73.7988 229.617ZM74.5898 221.452C74.5898 222.126 74.7803 222.636 75.1611 222.981C75.542 223.327 76.0723 223.5 76.752 223.5C78.1758 223.5 78.8877 222.809 78.8877 221.426C78.8877 219.979 78.167 219.255 76.7256 219.255C76.04 219.255 75.5127 219.439 75.1436 219.809C74.7744 220.178 74.5898 220.726 74.5898 221.452ZM91.2451 226.972C91.5029 226.972 91.752 226.954 91.9922 226.919C92.2324 226.878 92.4229 226.837 92.5635 226.796V227.912C92.4053 227.988 92.1709 228.05 91.8604 228.097C91.5557 228.149 91.2803 228.176 91.0342 228.176C89.1709 228.176 88.2393 227.194 88.2393 225.231V219.501H86.8594V218.798L88.2393 218.191L88.8545 216.135H89.6982V218.367H92.4932V219.501H89.6982V225.17C89.6982 225.75 89.8359 226.195 90.1113 226.506C90.3867 226.816 90.7646 226.972 91.2451 226.972ZM95.9561 228H94.4971V218.367H95.9561V228ZM94.374 215.757C94.374 215.423 94.4561 215.18 94.6201 215.027C94.7842 214.869 94.9893 214.79 95.2354 214.79C95.4697 214.79 95.6719 214.869 95.8418 215.027C96.0117 215.186 96.0967 215.429 96.0967 215.757C96.0967 216.085 96.0117 216.331 95.8418 216.495C95.6719 216.653 95.4697 216.732 95.2354 216.732C94.9893 216.732 94.7842 216.653 94.6201 216.495C94.4561 216.331 94.374 216.085 94.374 215.757ZM111.328 228V221.733C111.328 220.966 111.164 220.392 110.836 220.011C110.508 219.624 109.998 219.431 109.307 219.431C108.398 219.431 107.728 219.691 107.294 220.213C106.86 220.734 106.644 221.537 106.644 222.621V228H105.185V221.733C105.185 220.966 105.021 220.392 104.692 220.011C104.364 219.624 103.852 219.431 103.154 219.431C102.24 219.431 101.569 219.706 101.142 220.257C100.72 220.802 100.509 221.698 100.509 222.946V228H99.0498V218.367H100.236L100.474 219.686H100.544C100.819 219.217 101.206 218.851 101.704 218.587C102.208 218.323 102.771 218.191 103.392 218.191C104.897 218.191 105.882 218.736 106.345 219.826H106.415C106.702 219.322 107.118 218.924 107.663 218.631C108.208 218.338 108.829 218.191 109.526 218.191C110.616 218.191 111.431 218.473 111.97 219.035C112.515 219.592 112.787 220.485 112.787 221.716V228H111.328ZM119.871 228.176C118.447 228.176 117.322 227.742 116.496 226.875C115.676 226.008 115.266 224.804 115.266 223.263C115.266 221.71 115.646 220.477 116.408 219.562C117.176 218.648 118.204 218.191 119.493 218.191C120.7 218.191 121.655 218.59 122.358 219.387C123.062 220.178 123.413 221.224 123.413 222.524V223.447H116.777C116.807 224.578 117.091 225.437 117.63 226.022C118.175 226.608 118.939 226.901 119.924 226.901C120.961 226.901 121.986 226.685 123 226.251V227.552C122.484 227.774 121.995 227.933 121.532 228.026C121.075 228.126 120.521 228.176 119.871 228.176ZM119.476 219.413C118.702 219.413 118.084 219.665 117.621 220.169C117.164 220.673 116.895 221.37 116.812 222.261H121.849C121.849 221.341 121.644 220.638 121.233 220.151C120.823 219.659 120.237 219.413 119.476 219.413ZM125.101 223.843V222.507H129.416V223.843H125.101ZM134.821 226.972C135.079 226.972 135.328 226.954 135.568 226.919C135.809 226.878 135.999 226.837 136.14 226.796V227.912C135.981 227.988 135.747 228.05 135.437 228.097C135.132 228.149 134.856 228.176 134.61 228.176C132.747 228.176 131.815 227.194 131.815 225.231V219.501H130.436V218.798L131.815 218.191L132.431 216.135H133.274V218.367H136.069V219.501H133.274V225.17C133.274 225.75 133.412 226.195 133.688 226.506C133.963 226.816 134.341 226.972 134.821 226.972ZM142.143 228.176C140.719 228.176 139.594 227.742 138.768 226.875C137.947 226.008 137.537 224.804 137.537 223.263C137.537 221.71 137.918 220.477 138.68 219.562C139.447 218.648 140.476 218.191 141.765 218.191C142.972 218.191 143.927 218.59 144.63 219.387C145.333 220.178 145.685 221.224 145.685 222.524V223.447H139.049C139.078 224.578 139.362 225.437 139.901 226.022C140.446 226.608 141.211 226.901 142.195 226.901C143.232 226.901 144.258 226.685 145.271 226.251V227.552C144.756 227.774 144.267 227.933 143.804 228.026C143.347 228.126 142.793 228.176 142.143 228.176ZM141.747 219.413C140.974 219.413 140.355 219.665 139.893 220.169C139.436 220.673 139.166 221.37 139.084 222.261H144.12C144.12 221.341 143.915 220.638 143.505 220.151C143.095 219.659 142.509 219.413 141.747 219.413ZM154.395 225.372C154.395 226.269 154.061 226.96 153.393 227.446C152.725 227.933 151.787 228.176 150.58 228.176C149.303 228.176 148.307 227.974 147.592 227.569V226.216C148.055 226.45 148.55 226.635 149.077 226.77C149.61 226.904 150.123 226.972 150.615 226.972C151.377 226.972 151.963 226.852 152.373 226.611C152.783 226.365 152.988 225.993 152.988 225.495C152.988 225.12 152.824 224.801 152.496 224.537C152.174 224.268 151.541 223.951 150.598 223.588C149.701 223.254 149.062 222.964 148.682 222.718C148.307 222.466 148.025 222.182 147.838 221.865C147.656 221.549 147.565 221.171 147.565 220.731C147.565 219.946 147.885 219.328 148.523 218.877C149.162 218.42 150.038 218.191 151.151 218.191C152.188 218.191 153.202 218.402 154.192 218.824L153.674 220.011C152.707 219.612 151.831 219.413 151.046 219.413C150.354 219.413 149.833 219.521 149.481 219.738C149.13 219.955 148.954 220.254 148.954 220.635C148.954 220.893 149.019 221.112 149.147 221.294C149.282 221.476 149.496 221.648 149.789 221.812C150.082 221.977 150.645 222.214 151.477 222.524C152.619 222.94 153.39 223.359 153.788 223.781C154.192 224.203 154.395 224.733 154.395 225.372ZM159.888 226.972C160.146 226.972 160.395 226.954 160.635 226.919C160.875 226.878 161.065 226.837 161.206 226.796V227.912C161.048 227.988 160.813 228.05 160.503 228.097C160.198 228.149 159.923 228.176 159.677 228.176C157.813 228.176 156.882 227.194 156.882 225.231V219.501H155.502V218.798L156.882 218.191L157.497 216.135H158.341V218.367H161.136V219.501H158.341V225.17C158.341 225.75 158.479 226.195 158.754 226.506C159.029 226.816 159.407 226.972 159.888 226.972ZM167.209 228.176C165.785 228.176 164.66 227.742 163.834 226.875C163.014 226.008 162.604 224.804 162.604 223.263C162.604 221.71 162.984 220.477 163.746 219.562C164.514 218.648 165.542 218.191 166.831 218.191C168.038 218.191 168.993 218.59 169.696 219.387C170.399 220.178 170.751 221.224 170.751 222.524V223.447H164.115C164.145 224.578 164.429 225.437 164.968 226.022C165.513 226.608 166.277 226.901 167.262 226.901C168.299 226.901 169.324 226.685 170.338 226.251V227.552C169.822 227.774 169.333 227.933 168.87 228.026C168.413 228.126 167.859 228.176 167.209 228.176ZM166.813 219.413C166.04 219.413 165.422 219.665 164.959 220.169C164.502 220.673 164.232 221.37 164.15 222.261H169.187C169.187 221.341 168.981 220.638 168.571 220.151C168.161 219.659 167.575 219.413 166.813 219.413ZM179.804 226.708H179.725C179.051 227.687 178.043 228.176 176.701 228.176C175.441 228.176 174.46 227.745 173.757 226.884C173.06 226.022 172.711 224.798 172.711 223.21C172.711 221.622 173.062 220.389 173.766 219.51C174.469 218.631 175.447 218.191 176.701 218.191C178.008 218.191 179.01 218.666 179.707 219.615H179.821L179.76 218.921L179.725 218.244V214.324H181.184V228H179.997L179.804 226.708ZM176.886 226.954C177.882 226.954 178.603 226.685 179.048 226.146C179.499 225.601 179.725 224.725 179.725 223.518V223.21C179.725 221.845 179.496 220.872 179.039 220.292C178.588 219.706 177.864 219.413 176.868 219.413C176.013 219.413 175.356 219.747 174.899 220.415C174.448 221.077 174.223 222.015 174.223 223.228C174.223 224.458 174.448 225.387 174.899 226.014C175.351 226.641 176.013 226.954 176.886 226.954ZM195.519 226.708H195.439C194.766 227.687 193.758 228.176 192.416 228.176C191.156 228.176 190.175 227.745 189.472 226.884C188.774 226.022 188.426 224.798 188.426 223.21C188.426 221.622 188.777 220.389 189.48 219.51C190.184 218.631 191.162 218.191 192.416 218.191C193.723 218.191 194.725 218.666 195.422 219.615H195.536L195.475 218.921L195.439 218.244V214.324H196.898V228H195.712L195.519 226.708ZM192.601 226.954C193.597 226.954 194.317 226.685 194.763 226.146C195.214 225.601 195.439 224.725 195.439 223.518V223.21C195.439 221.845 195.211 220.872 194.754 220.292C194.303 219.706 193.579 219.413 192.583 219.413C191.728 219.413 191.071 219.747 190.614 220.415C190.163 221.077 189.938 222.015 189.938 223.228C189.938 224.458 190.163 225.387 190.614 226.014C191.065 226.641 191.728 226.954 192.601 226.954ZM205.925 228L205.635 226.629H205.564C205.084 227.232 204.604 227.643 204.123 227.859C203.648 228.07 203.054 228.176 202.339 228.176C201.384 228.176 200.634 227.93 200.089 227.438C199.55 226.945 199.28 226.245 199.28 225.337C199.28 223.392 200.836 222.372 203.947 222.278L205.582 222.226V221.628C205.582 220.872 205.418 220.315 205.09 219.958C204.768 219.595 204.249 219.413 203.534 219.413C202.731 219.413 201.823 219.659 200.81 220.151L200.361 219.035C200.836 218.777 201.354 218.575 201.917 218.429C202.485 218.282 203.054 218.209 203.622 218.209C204.771 218.209 205.62 218.464 206.171 218.974C206.728 219.483 207.006 220.301 207.006 221.426V228H205.925ZM202.629 226.972C203.537 226.972 204.249 226.723 204.765 226.225C205.286 225.727 205.547 225.029 205.547 224.133V223.263L204.088 223.324C202.928 223.365 202.09 223.547 201.574 223.869C201.064 224.186 200.81 224.681 200.81 225.354C200.81 225.882 200.968 226.283 201.284 226.559C201.606 226.834 202.055 226.972 202.629 226.972ZM213.132 226.972C213.39 226.972 213.639 226.954 213.879 226.919C214.119 226.878 214.31 226.837 214.45 226.796V227.912C214.292 227.988 214.058 228.05 213.747 228.097C213.442 228.149 213.167 228.176 212.921 228.176C211.058 228.176 210.126 227.194 210.126 225.231V219.501H208.746V218.798L210.126 218.191L210.741 216.135H211.585V218.367H214.38V219.501H211.585V225.17C211.585 225.75 211.723 226.195 211.998 226.506C212.273 226.816 212.651 226.972 213.132 226.972ZM222.308 228L222.018 226.629H221.947C221.467 227.232 220.986 227.643 220.506 227.859C220.031 228.07 219.437 228.176 218.722 228.176C217.767 228.176 217.017 227.93 216.472 227.438C215.933 226.945 215.663 226.245 215.663 225.337C215.663 223.392 217.219 222.372 220.33 222.278L221.965 222.226V221.628C221.965 220.872 221.801 220.315 221.473 219.958C221.15 219.595 220.632 219.413 219.917 219.413C219.114 219.413 218.206 219.659 217.192 220.151L216.744 219.035C217.219 218.777 217.737 218.575 218.3 218.429C218.868 218.282 219.437 218.209 220.005 218.209C221.153 218.209 222.003 218.464 222.554 218.974C223.11 219.483 223.389 220.301 223.389 221.426V228H222.308ZM219.012 226.972C219.92 226.972 220.632 226.723 221.147 226.225C221.669 225.727 221.93 225.029 221.93 224.133V223.263L220.471 223.324C219.311 223.365 218.473 223.547 217.957 223.869C217.447 224.186 217.192 224.681 217.192 225.354C217.192 225.882 217.351 226.283 217.667 226.559C217.989 226.834 218.438 226.972 219.012 226.972ZM233.188 228L229.532 218.367H231.097L233.171 224.08C233.64 225.416 233.915 226.283 233.997 226.682H234.067C234.132 226.371 234.334 225.729 234.674 224.757C235.02 223.778 235.79 221.648 236.985 218.367H238.55L234.894 228H233.188ZM241.556 228H240.097V218.367H241.556V228ZM239.974 215.757C239.974 215.423 240.056 215.18 240.22 215.027C240.384 214.869 240.589 214.79 240.835 214.79C241.069 214.79 241.271 214.869 241.441 215.027C241.611 215.186 241.696 215.429 241.696 215.757C241.696 216.085 241.611 216.331 241.441 216.495C241.271 216.653 241.069 216.732 240.835 216.732C240.589 216.732 240.384 216.653 240.22 216.495C240.056 216.331 239.974 216.085 239.974 215.757ZM250.863 225.372C250.863 226.269 250.529 226.96 249.861 227.446C249.193 227.933 248.256 228.176 247.049 228.176C245.771 228.176 244.775 227.974 244.061 227.569V226.216C244.523 226.45 245.019 226.635 245.546 226.77C246.079 226.904 246.592 226.972 247.084 226.972C247.846 226.972 248.432 226.852 248.842 226.611C249.252 226.365 249.457 225.993 249.457 225.495C249.457 225.12 249.293 224.801 248.965 224.537C248.643 224.268 248.01 223.951 247.066 223.588C246.17 223.254 245.531 222.964 245.15 222.718C244.775 222.466 244.494 222.182 244.307 221.865C244.125 221.549 244.034 221.171 244.034 220.731C244.034 219.946 244.354 219.328 244.992 218.877C245.631 218.42 246.507 218.191 247.62 218.191C248.657 218.191 249.671 218.402 250.661 218.824L250.143 220.011C249.176 219.612 248.3 219.413 247.515 219.413C246.823 219.413 246.302 219.521 245.95 219.738C245.599 219.955 245.423 220.254 245.423 220.635C245.423 220.893 245.487 221.112 245.616 221.294C245.751 221.476 245.965 221.648 246.258 221.812C246.551 221.977 247.113 222.214 247.945 222.524C249.088 222.94 249.858 223.359 250.257 223.781C250.661 224.203 250.863 224.733 250.863 225.372ZM254.616 218.367V224.616C254.616 225.401 254.795 225.987 255.152 226.374C255.51 226.761 256.069 226.954 256.831 226.954C257.839 226.954 258.574 226.679 259.037 226.128C259.506 225.577 259.74 224.678 259.74 223.43V218.367H261.199V228H259.995L259.784 226.708H259.705C259.406 227.183 258.99 227.546 258.457 227.798C257.93 228.05 257.326 228.176 256.646 228.176C255.475 228.176 254.596 227.897 254.01 227.341C253.43 226.784 253.14 225.894 253.14 224.669V218.367H254.616ZM270.226 228L269.936 226.629H269.865C269.385 227.232 268.904 227.643 268.424 227.859C267.949 228.07 267.354 228.176 266.64 228.176C265.685 228.176 264.935 227.93 264.39 227.438C263.851 226.945 263.581 226.245 263.581 225.337C263.581 223.392 265.137 222.372 268.248 222.278L269.883 222.226V221.628C269.883 220.872 269.719 220.315 269.391 219.958C269.068 219.595 268.55 219.413 267.835 219.413C267.032 219.413 266.124 219.659 265.11 220.151L264.662 219.035C265.137 218.777 265.655 218.575 266.218 218.429C266.786 218.282 267.354 218.209 267.923 218.209C269.071 218.209 269.921 218.464 270.472 218.974C271.028 219.483 271.307 220.301 271.307 221.426V228H270.226ZM266.93 226.972C267.838 226.972 268.55 226.723 269.065 226.225C269.587 225.727 269.848 225.029 269.848 224.133V223.263L268.389 223.324C267.229 223.365 266.391 223.547 265.875 223.869C265.365 224.186 265.11 224.681 265.11 225.354C265.11 225.882 265.269 226.283 265.585 226.559C265.907 226.834 266.355 226.972 266.93 226.972ZM275.78 228H274.321V214.324H275.78V228ZM280.333 228H278.874V218.367H280.333V228ZM278.751 215.757C278.751 215.423 278.833 215.18 278.997 215.027C279.161 214.869 279.366 214.79 279.612 214.79C279.847 214.79 280.049 214.869 280.219 215.027C280.389 215.186 280.474 215.429 280.474 215.757C280.474 216.085 280.389 216.331 280.219 216.495C280.049 216.653 279.847 216.732 279.612 216.732C279.366 216.732 279.161 216.653 278.997 216.495C278.833 216.331 278.751 216.085 278.751 215.757ZM289.588 228H282.601V227.007L287.856 219.501H282.926V218.367H289.456V219.501L284.271 226.866H289.588V228ZM297.771 228L297.48 226.629H297.41C296.93 227.232 296.449 227.643 295.969 227.859C295.494 228.07 294.899 228.176 294.185 228.176C293.229 228.176 292.479 227.93 291.935 227.438C291.396 226.945 291.126 226.245 291.126 225.337C291.126 223.392 292.682 222.372 295.793 222.278L297.428 222.226V221.628C297.428 220.872 297.264 220.315 296.936 219.958C296.613 219.595 296.095 219.413 295.38 219.413C294.577 219.413 293.669 219.659 292.655 220.151L292.207 219.035C292.682 218.777 293.2 218.575 293.763 218.429C294.331 218.282 294.899 218.209 295.468 218.209C296.616 218.209 297.466 218.464 298.017 218.974C298.573 219.483 298.852 220.301 298.852 221.426V228H297.771ZM294.475 226.972C295.383 226.972 296.095 226.723 296.61 226.225C297.132 225.727 297.393 225.029 297.393 224.133V223.263L295.934 223.324C294.773 223.365 293.936 223.547 293.42 223.869C292.91 224.186 292.655 224.681 292.655 225.354C292.655 225.882 292.813 226.283 293.13 226.559C293.452 226.834 293.9 226.972 294.475 226.972ZM304.978 226.972C305.235 226.972 305.484 226.954 305.725 226.919C305.965 226.878 306.155 226.837 306.296 226.796V227.912C306.138 227.988 305.903 228.05 305.593 228.097C305.288 228.149 305.013 228.176 304.767 228.176C302.903 228.176 301.972 227.194 301.972 225.231V219.501H300.592V218.798L301.972 218.191L302.587 216.135H303.431V218.367H306.226V219.501H303.431V225.17C303.431 225.75 303.568 226.195 303.844 226.506C304.119 226.816 304.497 226.972 304.978 226.972ZM309.688 228H308.229V218.367H309.688V228ZM308.106 215.757C308.106 215.423 308.188 215.18 308.353 215.027C308.517 214.869 308.722 214.79 308.968 214.79C309.202 214.79 309.404 214.869 309.574 215.027C309.744 215.186 309.829 215.429 309.829 215.757C309.829 216.085 309.744 216.331 309.574 216.495C309.404 216.653 309.202 216.732 308.968 216.732C308.722 216.732 308.517 216.653 308.353 216.495C308.188 216.331 308.106 216.085 308.106 215.757ZM321.097 223.175C321.097 224.745 320.701 225.973 319.91 226.857C319.119 227.736 318.026 228.176 316.632 228.176C315.771 228.176 315.006 227.974 314.338 227.569C313.67 227.165 313.154 226.585 312.791 225.829C312.428 225.073 312.246 224.188 312.246 223.175C312.246 221.604 312.639 220.383 313.424 219.51C314.209 218.631 315.299 218.191 316.693 218.191C318.041 218.191 319.11 218.64 319.901 219.536C320.698 220.433 321.097 221.646 321.097 223.175ZM313.758 223.175C313.758 224.405 314.004 225.343 314.496 225.987C314.988 226.632 315.712 226.954 316.667 226.954C317.622 226.954 318.346 226.635 318.838 225.996C319.336 225.352 319.585 224.411 319.585 223.175C319.585 221.95 319.336 221.021 318.838 220.389C318.346 219.75 317.616 219.431 316.649 219.431C315.694 219.431 314.974 219.744 314.487 220.371C314.001 220.998 313.758 221.933 313.758 223.175ZM330.255 228V221.769C330.255 220.983 330.076 220.397 329.719 220.011C329.361 219.624 328.802 219.431 328.04 219.431C327.032 219.431 326.294 219.703 325.825 220.248C325.356 220.793 325.122 221.692 325.122 222.946V228H323.663V218.367H324.85L325.087 219.686H325.157C325.456 219.211 325.875 218.845 326.414 218.587C326.953 218.323 327.554 218.191 328.216 218.191C329.376 218.191 330.249 218.473 330.835 219.035C331.421 219.592 331.714 220.485 331.714 221.716V228H330.255ZM342.507 226.972C342.765 226.972 343.014 226.954 343.254 226.919C343.494 226.878 343.685 226.837 343.825 226.796V227.912C343.667 227.988 343.433 228.05 343.122 228.097C342.817 228.149 342.542 228.176 342.296 228.176C340.433 228.176 339.501 227.194 339.501 225.231V219.501H338.121V218.798L339.501 218.191L340.116 216.135H340.96V218.367H343.755V219.501H340.96V225.17C340.96 225.75 341.098 226.195 341.373 226.506C341.648 226.816 342.026 226.972 342.507 226.972ZM351.683 228L351.393 226.629H351.322C350.842 227.232 350.361 227.643 349.881 227.859C349.406 228.07 348.812 228.176 348.097 228.176C347.142 228.176 346.392 227.93 345.847 227.438C345.308 226.945 345.038 226.245 345.038 225.337C345.038 223.392 346.594 222.372 349.705 222.278L351.34 222.226V221.628C351.34 220.872 351.176 220.315 350.848 219.958C350.525 219.595 350.007 219.413 349.292 219.413C348.489 219.413 347.581 219.659 346.567 220.151L346.119 219.035C346.594 218.777 347.112 218.575 347.675 218.429C348.243 218.282 348.812 218.209 349.38 218.209C350.528 218.209 351.378 218.464 351.929 218.974C352.485 219.483 352.764 220.301 352.764 221.426V228H351.683ZM348.387 226.972C349.295 226.972 350.007 226.723 350.522 226.225C351.044 225.727 351.305 225.029 351.305 224.133V223.263L349.846 223.324C348.686 223.365 347.848 223.547 347.332 223.869C346.822 224.186 346.567 224.681 346.567 225.354C346.567 225.882 346.726 226.283 347.042 226.559C347.364 226.834 347.812 226.972 348.387 226.972ZM359.628 228.176C358.233 228.176 357.152 227.748 356.385 226.893C355.623 226.031 355.242 224.815 355.242 223.245C355.242 221.634 355.629 220.389 356.402 219.51C357.182 218.631 358.289 218.191 359.725 218.191C360.188 218.191 360.65 218.241 361.113 218.341C361.576 218.44 361.939 218.558 362.203 218.692L361.755 219.932C361.433 219.803 361.081 219.697 360.7 219.615C360.319 219.527 359.982 219.483 359.689 219.483C357.732 219.483 356.754 220.731 356.754 223.228C356.754 224.411 356.991 225.319 357.466 225.952C357.946 226.585 358.655 226.901 359.593 226.901C360.396 226.901 361.219 226.729 362.062 226.383V227.675C361.418 228.009 360.606 228.176 359.628 228.176ZM367.468 226.972C367.726 226.972 367.975 226.954 368.215 226.919C368.455 226.878 368.646 226.837 368.786 226.796V227.912C368.628 227.988 368.394 228.05 368.083 228.097C367.778 228.149 367.503 228.176 367.257 228.176C365.394 228.176 364.462 227.194 364.462 225.231V219.501H363.082V218.798L364.462 218.191L365.077 216.135H365.921V218.367H368.716V219.501H365.921V225.17C365.921 225.75 366.059 226.195 366.334 226.506C366.609 226.816 366.987 226.972 367.468 226.972ZM372.179 228H370.72V218.367H372.179V228ZM370.597 215.757C370.597 215.423 370.679 215.18 370.843 215.027C371.007 214.869 371.212 214.79 371.458 214.79C371.692 214.79 371.895 214.869 372.064 215.027C372.234 215.186 372.319 215.429 372.319 215.757C372.319 216.085 372.234 216.331 372.064 216.495C371.895 216.653 371.692 216.732 371.458 216.732C371.212 216.732 371.007 216.653 370.843 216.495C370.679 216.331 370.597 216.085 370.597 215.757ZM379.122 228.176C377.728 228.176 376.646 227.748 375.879 226.893C375.117 226.031 374.736 224.815 374.736 223.245C374.736 221.634 375.123 220.389 375.896 219.51C376.676 218.631 377.783 218.191 379.219 218.191C379.682 218.191 380.145 218.241 380.607 218.341C381.07 218.44 381.434 218.558 381.697 218.692L381.249 219.932C380.927 219.803 380.575 219.697 380.194 219.615C379.813 219.527 379.477 219.483 379.184 219.483C377.227 219.483 376.248 220.731 376.248 223.228C376.248 224.411 376.485 225.319 376.96 225.952C377.44 226.585 378.149 226.901 379.087 226.901C379.89 226.901 380.713 226.729 381.557 226.383V227.675C380.912 228.009 380.101 228.176 379.122 228.176ZM390.064 225.372C390.064 226.269 389.73 226.96 389.062 227.446C388.395 227.933 387.457 228.176 386.25 228.176C384.973 228.176 383.977 227.974 383.262 227.569V226.216C383.725 226.45 384.22 226.635 384.747 226.77C385.28 226.904 385.793 226.972 386.285 226.972C387.047 226.972 387.633 226.852 388.043 226.611C388.453 226.365 388.658 225.993 388.658 225.495C388.658 225.12 388.494 224.801 388.166 224.537C387.844 224.268 387.211 223.951 386.268 223.588C385.371 223.254 384.732 222.964 384.352 222.718C383.977 222.466 383.695 222.182 383.508 221.865C383.326 221.549 383.235 221.171 383.235 220.731C383.235 219.946 383.555 219.328 384.193 218.877C384.832 218.42 385.708 218.191 386.821 218.191C387.858 218.191 388.872 218.402 389.862 218.824L389.344 220.011C388.377 219.612 387.501 219.413 386.716 219.413C386.024 219.413 385.503 219.521 385.151 219.738C384.8 219.955 384.624 220.254 384.624 220.635C384.624 220.893 384.688 221.112 384.817 221.294C384.952 221.476 385.166 221.648 385.459 221.812C385.752 221.977 386.314 222.214 387.146 222.524C388.289 222.94 389.06 223.359 389.458 223.781C389.862 224.203 390.064 224.733 390.064 225.372ZM393.976 225.908L394.107 226.11C393.955 226.696 393.735 227.376 393.448 228.149C393.161 228.929 392.862 229.652 392.552 230.32H391.453C391.611 229.711 391.784 228.958 391.972 228.062C392.165 227.165 392.3 226.447 392.376 225.908H393.976ZM409.4 228L407.634 222.349C407.522 222.003 407.314 221.218 407.01 219.993H406.939C406.705 221.019 406.5 221.81 406.324 222.366L404.505 228H402.817L400.189 218.367H401.719C402.34 220.787 402.812 222.63 403.134 223.896C403.462 225.161 403.649 226.014 403.696 226.453H403.767C403.831 226.119 403.934 225.688 404.074 225.161C404.221 224.628 404.347 224.206 404.452 223.896L406.219 218.367H407.801L409.523 223.896C409.852 224.903 410.074 225.75 410.191 226.436H410.262C410.285 226.225 410.347 225.899 410.446 225.46C410.552 225.021 411.164 222.656 412.283 218.367H413.795L411.132 228H409.4ZM419.613 228.176C418.189 228.176 417.064 227.742 416.238 226.875C415.418 226.008 415.008 224.804 415.008 223.263C415.008 221.71 415.389 220.477 416.15 219.562C416.918 218.648 417.946 218.191 419.235 218.191C420.442 218.191 421.397 218.59 422.101 219.387C422.804 220.178 423.155 221.224 423.155 222.524V223.447H416.52C416.549 224.578 416.833 225.437 417.372 226.022C417.917 226.608 418.682 226.901 419.666 226.901C420.703 226.901 421.729 226.685 422.742 226.251V227.552C422.227 227.774 421.737 227.933 421.274 228.026C420.817 228.126 420.264 228.176 419.613 228.176ZM419.218 219.413C418.444 219.413 417.826 219.665 417.363 220.169C416.906 220.673 416.637 221.37 416.555 222.261H421.591C421.591 221.341 421.386 220.638 420.976 220.151C420.565 219.659 419.979 219.413 419.218 219.413ZM426.82 215.15L426.952 215.344C426.8 215.93 426.58 216.612 426.293 217.392C426.006 218.165 425.707 218.886 425.396 219.554H424.324C424.734 217.884 425.033 216.416 425.221 215.15H426.82ZM430.169 228H428.71V214.324H430.169V228ZM434.722 228H433.263V214.324H434.722V228ZM57.2842 253.176C56.6572 253.176 56.083 253.062 55.5615 252.833C55.0459 252.599 54.6123 252.241 54.2607 251.761H54.1553C54.2256 252.323 54.2607 252.856 54.2607 253.36V257.324H52.8018V243.367H53.9883L54.1904 244.686H54.2607C54.6357 244.158 55.0723 243.777 55.5703 243.543C56.0684 243.309 56.6396 243.191 57.2842 243.191C58.5615 243.191 59.5459 243.628 60.2373 244.501C60.9346 245.374 61.2832 246.599 61.2832 248.175C61.2832 249.757 60.9287 250.987 60.2197 251.866C59.5166 252.739 58.5381 253.176 57.2842 253.176ZM57.0732 244.431C56.0889 244.431 55.377 244.703 54.9375 245.248C54.498 245.793 54.2725 246.66 54.2607 247.85V248.175C54.2607 249.528 54.4863 250.498 54.9375 251.084C55.3887 251.664 56.1123 251.954 57.1084 251.954C57.9404 251.954 58.5908 251.617 59.0596 250.943C59.5342 250.27 59.7715 249.341 59.7715 248.157C59.7715 246.956 59.5342 246.036 59.0596 245.397C58.5908 244.753 57.9287 244.431 57.0732 244.431ZM68.2354 243.191C68.6631 243.191 69.0469 243.227 69.3867 243.297L69.1846 244.65C68.7861 244.562 68.4346 244.519 68.1299 244.519C67.3506 244.519 66.6826 244.835 66.126 245.468C65.5752 246.101 65.2998 246.889 65.2998 247.832V253H63.8408V243.367H65.0449L65.2119 245.151H65.2822C65.6396 244.524 66.0703 244.041 66.5742 243.701C67.0781 243.361 67.6318 243.191 68.2354 243.191ZM75.2578 253.176C73.834 253.176 72.709 252.742 71.8828 251.875C71.0625 251.008 70.6523 249.804 70.6523 248.263C70.6523 246.71 71.0332 245.477 71.7949 244.562C72.5625 243.648 73.5908 243.191 74.8799 243.191C76.0869 243.191 77.042 243.59 77.7451 244.387C78.4482 245.178 78.7998 246.224 78.7998 247.524V248.447H72.1641C72.1934 249.578 72.4775 250.437 73.0166 251.022C73.5615 251.608 74.3262 251.901 75.3105 251.901C76.3477 251.901 77.373 251.685 78.3867 251.251V252.552C77.8711 252.774 77.3818 252.933 76.9189 253.026C76.4619 253.126 75.9082 253.176 75.2578 253.176ZM74.8623 244.413C74.0889 244.413 73.4707 244.665 73.0078 245.169C72.5508 245.673 72.2812 246.37 72.1992 247.261H77.2354C77.2354 246.341 77.0303 245.638 76.6201 245.151C76.21 244.659 75.624 244.413 74.8623 244.413ZM87.5098 250.372C87.5098 251.269 87.1758 251.96 86.5078 252.446C85.8398 252.933 84.9023 253.176 83.6953 253.176C82.418 253.176 81.4219 252.974 80.707 252.569V251.216C81.1699 251.45 81.665 251.635 82.1924 251.77C82.7256 251.904 83.2383 251.972 83.7305 251.972C84.4922 251.972 85.0781 251.852 85.4883 251.611C85.8984 251.365 86.1035 250.993 86.1035 250.495C86.1035 250.12 85.9395 249.801 85.6113 249.537C85.2891 249.268 84.6562 248.951 83.7129 248.588C82.8164 248.254 82.1777 247.964 81.7969 247.718C81.4219 247.466 81.1406 247.182 80.9531 246.865C80.7715 246.549 80.6807 246.171 80.6807 245.731C80.6807 244.946 81 244.328 81.6387 243.877C82.2773 243.42 83.1533 243.191 84.2666 243.191C85.3037 243.191 86.3174 243.402 87.3076 243.824L86.7891 245.011C85.8223 244.612 84.9463 244.413 84.1611 244.413C83.4697 244.413 82.9482 244.521 82.5967 244.738C82.2451 244.955 82.0693 245.254 82.0693 245.635C82.0693 245.893 82.1338 246.112 82.2627 246.294C82.3975 246.476 82.6113 246.648 82.9043 246.812C83.1973 246.977 83.7598 247.214 84.5918 247.524C85.7344 247.94 86.5049 248.359 86.9033 248.781C87.3076 249.203 87.5098 249.733 87.5098 250.372ZM93.9609 253.176C92.5371 253.176 91.4121 252.742 90.5859 251.875C89.7656 251.008 89.3555 249.804 89.3555 248.263C89.3555 246.71 89.7363 245.477 90.498 244.562C91.2656 243.648 92.2939 243.191 93.583 243.191C94.79 243.191 95.7451 243.59 96.4482 244.387C97.1514 245.178 97.5029 246.224 97.5029 247.524V248.447H90.8672C90.8965 249.578 91.1807 250.437 91.7197 251.022C92.2646 251.608 93.0293 251.901 94.0137 251.901C95.0508 251.901 96.0762 251.685 97.0898 251.251V252.552C96.5742 252.774 96.085 252.933 95.6221 253.026C95.165 253.126 94.6113 253.176 93.9609 253.176ZM93.5654 244.413C92.792 244.413 92.1738 244.665 91.7109 245.169C91.2539 245.673 90.9844 246.37 90.9023 247.261H95.9385C95.9385 246.341 95.7334 245.638 95.3232 245.151C94.9131 244.659 94.3271 244.413 93.5654 244.413ZM106.591 253V246.769C106.591 245.983 106.412 245.397 106.055 245.011C105.697 244.624 105.138 244.431 104.376 244.431C103.368 244.431 102.63 244.703 102.161 245.248C101.692 245.793 101.458 246.692 101.458 247.946V253H99.999V243.367H101.186L101.423 244.686H101.493C101.792 244.211 102.211 243.845 102.75 243.587C103.289 243.323 103.89 243.191 104.552 243.191C105.712 243.191 106.585 243.473 107.171 244.035C107.757 244.592 108.05 245.485 108.05 246.716V253H106.591ZM114.167 251.972C114.425 251.972 114.674 251.954 114.914 251.919C115.154 251.878 115.345 251.837 115.485 251.796V252.912C115.327 252.988 115.093 253.05 114.782 253.097C114.478 253.149 114.202 253.176 113.956 253.176C112.093 253.176 111.161 252.194 111.161 250.231V244.501H109.781V243.798L111.161 243.191L111.776 241.135H112.62V243.367H115.415V244.501H112.62V250.17C112.62 250.75 112.758 251.195 113.033 251.506C113.309 251.816 113.687 251.972 114.167 251.972ZM130.409 248.175C130.409 249.745 130.014 250.973 129.223 251.857C128.432 252.736 127.339 253.176 125.944 253.176C125.083 253.176 124.318 252.974 123.65 252.569C122.982 252.165 122.467 251.585 122.104 250.829C121.74 250.073 121.559 249.188 121.559 248.175C121.559 246.604 121.951 245.383 122.736 244.51C123.521 243.631 124.611 243.191 126.006 243.191C127.354 243.191 128.423 243.64 129.214 244.536C130.011 245.433 130.409 246.646 130.409 248.175ZM123.07 248.175C123.07 249.405 123.316 250.343 123.809 250.987C124.301 251.632 125.024 251.954 125.979 251.954C126.935 251.954 127.658 251.635 128.15 250.996C128.648 250.352 128.897 249.411 128.897 248.175C128.897 246.95 128.648 246.021 128.15 245.389C127.658 244.75 126.929 244.431 125.962 244.431C125.007 244.431 124.286 244.744 123.8 245.371C123.313 245.998 123.07 246.933 123.07 248.175ZM134.347 243.367V249.616C134.347 250.401 134.525 250.987 134.883 251.374C135.24 251.761 135.8 251.954 136.562 251.954C137.569 251.954 138.305 251.679 138.768 251.128C139.236 250.577 139.471 249.678 139.471 248.43V243.367H140.93V253H139.726L139.515 251.708H139.436C139.137 252.183 138.721 252.546 138.188 252.798C137.66 253.05 137.057 253.176 136.377 253.176C135.205 253.176 134.326 252.897 133.74 252.341C133.16 251.784 132.87 250.894 132.87 249.669V243.367H134.347ZM148.427 243.191C148.854 243.191 149.238 243.227 149.578 243.297L149.376 244.65C148.978 244.562 148.626 244.519 148.321 244.519C147.542 244.519 146.874 244.835 146.317 245.468C145.767 246.101 145.491 246.889 145.491 247.832V253H144.032V243.367H145.236L145.403 245.151H145.474C145.831 244.524 146.262 244.041 146.766 243.701C147.27 243.361 147.823 243.191 148.427 243.191ZM160.397 244.501H157.945V253H156.486V244.501H154.764V243.842L156.486 243.314V242.778C156.486 240.411 157.521 239.228 159.589 239.228C160.099 239.228 160.696 239.33 161.382 239.535L161.004 240.704C160.441 240.522 159.961 240.432 159.562 240.432C159.012 240.432 158.604 240.616 158.341 240.985C158.077 241.349 157.945 241.935 157.945 242.743V243.367H160.397V244.501ZM163.614 253H162.155V243.367H163.614V253ZM162.032 240.757C162.032 240.423 162.114 240.18 162.278 240.027C162.442 239.869 162.647 239.79 162.894 239.79C163.128 239.79 163.33 239.869 163.5 240.027C163.67 240.186 163.755 240.429 163.755 240.757C163.755 241.085 163.67 241.331 163.5 241.495C163.33 241.653 163.128 241.732 162.894 241.732C162.647 241.732 162.442 241.653 162.278 241.495C162.114 241.331 162.032 241.085 162.032 240.757ZM173.3 253V246.769C173.3 245.983 173.121 245.397 172.764 245.011C172.406 244.624 171.847 244.431 171.085 244.431C170.077 244.431 169.339 244.703 168.87 245.248C168.401 245.793 168.167 246.692 168.167 247.946V253H166.708V243.367H167.895L168.132 244.686H168.202C168.501 244.211 168.92 243.845 169.459 243.587C169.998 243.323 170.599 243.191 171.261 243.191C172.421 243.191 173.294 243.473 173.88 244.035C174.466 244.592 174.759 245.485 174.759 246.716V253H173.3ZM184.321 251.708H184.242C183.568 252.687 182.561 253.176 181.219 253.176C179.959 253.176 178.978 252.745 178.274 251.884C177.577 251.022 177.229 249.798 177.229 248.21C177.229 246.622 177.58 245.389 178.283 244.51C178.986 243.631 179.965 243.191 181.219 243.191C182.525 243.191 183.527 243.666 184.225 244.615H184.339L184.277 243.921L184.242 243.244V239.324H185.701V253H184.515L184.321 251.708ZM181.403 251.954C182.399 251.954 183.12 251.685 183.565 251.146C184.017 250.601 184.242 249.725 184.242 248.518V248.21C184.242 246.845 184.014 245.872 183.557 245.292C183.105 244.706 182.382 244.413 181.386 244.413C180.53 244.413 179.874 244.747 179.417 245.415C178.966 246.077 178.74 247.015 178.74 248.228C178.74 249.458 178.966 250.387 179.417 251.014C179.868 251.641 180.53 251.954 181.403 251.954ZM190.263 253H188.804V243.367H190.263V253ZM188.681 240.757C188.681 240.423 188.763 240.18 188.927 240.027C189.091 239.869 189.296 239.79 189.542 239.79C189.776 239.79 189.979 239.869 190.148 240.027C190.318 240.186 190.403 240.429 190.403 240.757C190.403 241.085 190.318 241.331 190.148 241.495C189.979 241.653 189.776 241.732 189.542 241.732C189.296 241.732 189.091 241.653 188.927 241.495C188.763 241.331 188.681 241.085 188.681 240.757ZM199.948 253V246.769C199.948 245.983 199.77 245.397 199.412 245.011C199.055 244.624 198.495 244.431 197.733 244.431C196.726 244.431 195.987 244.703 195.519 245.248C195.05 245.793 194.815 246.692 194.815 247.946V253H193.356V243.367H194.543L194.78 244.686H194.851C195.149 244.211 195.568 243.845 196.107 243.587C196.646 243.323 197.247 243.191 197.909 243.191C199.069 243.191 199.942 243.473 200.528 244.035C201.114 244.592 201.407 245.485 201.407 246.716V253H199.948ZM212.297 243.367V244.29L210.513 244.501C210.677 244.706 210.823 244.976 210.952 245.31C211.081 245.638 211.146 246.01 211.146 246.426C211.146 247.369 210.823 248.122 210.179 248.685C209.534 249.247 208.649 249.528 207.524 249.528C207.237 249.528 206.968 249.505 206.716 249.458C206.095 249.786 205.784 250.199 205.784 250.697C205.784 250.961 205.893 251.157 206.109 251.286C206.326 251.409 206.698 251.471 207.226 251.471H208.931C209.974 251.471 210.773 251.69 211.33 252.13C211.893 252.569 212.174 253.208 212.174 254.046C212.174 255.112 211.746 255.924 210.891 256.48C210.035 257.043 208.787 257.324 207.146 257.324C205.887 257.324 204.914 257.09 204.229 256.621C203.549 256.152 203.209 255.49 203.209 254.635C203.209 254.049 203.396 253.542 203.771 253.114C204.146 252.687 204.674 252.396 205.354 252.244C205.107 252.133 204.899 251.96 204.729 251.726C204.565 251.491 204.483 251.219 204.483 250.908C204.483 250.557 204.577 250.249 204.765 249.985C204.952 249.722 205.248 249.467 205.652 249.221C205.154 249.016 204.747 248.667 204.431 248.175C204.12 247.683 203.965 247.12 203.965 246.487C203.965 245.433 204.281 244.621 204.914 244.053C205.547 243.479 206.443 243.191 207.604 243.191C208.107 243.191 208.562 243.25 208.966 243.367H212.297ZM204.615 254.617C204.615 255.139 204.835 255.534 205.274 255.804C205.714 256.073 206.344 256.208 207.164 256.208C208.389 256.208 209.294 256.023 209.88 255.654C210.472 255.291 210.768 254.796 210.768 254.169C210.768 253.647 210.606 253.284 210.284 253.079C209.962 252.88 209.355 252.78 208.465 252.78H206.716C206.054 252.78 205.538 252.938 205.169 253.255C204.8 253.571 204.615 254.025 204.615 254.617ZM205.406 246.452C205.406 247.126 205.597 247.636 205.978 247.981C206.358 248.327 206.889 248.5 207.568 248.5C208.992 248.5 209.704 247.809 209.704 246.426C209.704 244.979 208.983 244.255 207.542 244.255C206.856 244.255 206.329 244.439 205.96 244.809C205.591 245.178 205.406 245.726 205.406 246.452ZM220.488 250.372C220.488 251.269 220.154 251.96 219.486 252.446C218.818 252.933 217.881 253.176 216.674 253.176C215.396 253.176 214.4 252.974 213.686 252.569V251.216C214.148 251.45 214.644 251.635 215.171 251.77C215.704 251.904 216.217 251.972 216.709 251.972C217.471 251.972 218.057 251.852 218.467 251.611C218.877 251.365 219.082 250.993 219.082 250.495C219.082 250.12 218.918 249.801 218.59 249.537C218.268 249.268 217.635 248.951 216.691 248.588C215.795 248.254 215.156 247.964 214.775 247.718C214.4 247.466 214.119 247.182 213.932 246.865C213.75 246.549 213.659 246.171 213.659 245.731C213.659 244.946 213.979 244.328 214.617 243.877C215.256 243.42 216.132 243.191 217.245 243.191C218.282 243.191 219.296 243.402 220.286 243.824L219.768 245.011C218.801 244.612 217.925 244.413 217.14 244.413C216.448 244.413 215.927 244.521 215.575 244.738C215.224 244.955 215.048 245.254 215.048 245.635C215.048 245.893 215.112 246.112 215.241 246.294C215.376 246.476 215.59 246.648 215.883 246.812C216.176 246.977 216.738 247.214 217.57 247.524C218.713 247.94 219.483 248.359 219.882 248.781C220.286 249.203 220.488 249.733 220.488 250.372ZM233.47 253L233.18 251.629H233.109C232.629 252.232 232.148 252.643 231.668 252.859C231.193 253.07 230.599 253.176 229.884 253.176C228.929 253.176 228.179 252.93 227.634 252.438C227.095 251.945 226.825 251.245 226.825 250.337C226.825 248.392 228.381 247.372 231.492 247.278L233.127 247.226V246.628C233.127 245.872 232.963 245.315 232.635 244.958C232.312 244.595 231.794 244.413 231.079 244.413C230.276 244.413 229.368 244.659 228.354 245.151L227.906 244.035C228.381 243.777 228.899 243.575 229.462 243.429C230.03 243.282 230.599 243.209 231.167 243.209C232.315 243.209 233.165 243.464 233.716 243.974C234.272 244.483 234.551 245.301 234.551 246.426V253H233.47ZM230.174 251.972C231.082 251.972 231.794 251.723 232.31 251.225C232.831 250.727 233.092 250.029 233.092 249.133V248.263L231.633 248.324C230.473 248.365 229.635 248.547 229.119 248.869C228.609 249.186 228.354 249.681 228.354 250.354C228.354 250.882 228.513 251.283 228.829 251.559C229.151 251.834 229.6 251.972 230.174 251.972ZM244.157 253V246.769C244.157 245.983 243.979 245.397 243.621 245.011C243.264 244.624 242.704 244.431 241.942 244.431C240.935 244.431 240.196 244.703 239.728 245.248C239.259 245.793 239.024 246.692 239.024 247.946V253H237.565V243.367H238.752L238.989 244.686H239.06C239.358 244.211 239.777 243.845 240.316 243.587C240.855 243.323 241.456 243.191 242.118 243.191C243.278 243.191 244.151 243.473 244.737 244.035C245.323 244.592 245.616 245.485 245.616 246.716V253H244.157ZM255.179 251.708H255.1C254.426 252.687 253.418 253.176 252.076 253.176C250.816 253.176 249.835 252.745 249.132 251.884C248.435 251.022 248.086 249.798 248.086 248.21C248.086 246.622 248.438 245.389 249.141 244.51C249.844 243.631 250.822 243.191 252.076 243.191C253.383 243.191 254.385 243.666 255.082 244.615H255.196L255.135 243.921L255.1 243.244V239.324H256.559V253H255.372L255.179 251.708ZM252.261 251.954C253.257 251.954 253.978 251.685 254.423 251.146C254.874 250.601 255.1 249.725 255.1 248.518V248.21C255.1 246.845 254.871 245.872 254.414 245.292C253.963 244.706 253.239 244.413 252.243 244.413C251.388 244.413 250.731 244.747 250.274 245.415C249.823 246.077 249.598 247.015 249.598 248.228C249.598 249.458 249.823 250.387 250.274 251.014C250.726 251.641 251.388 251.954 252.261 251.954ZM270.261 253L269.971 251.629H269.9C269.42 252.232 268.939 252.643 268.459 252.859C267.984 253.07 267.39 253.176 266.675 253.176C265.72 253.176 264.97 252.93 264.425 252.438C263.886 251.945 263.616 251.245 263.616 250.337C263.616 248.392 265.172 247.372 268.283 247.278L269.918 247.226V246.628C269.918 245.872 269.754 245.315 269.426 244.958C269.104 244.595 268.585 244.413 267.87 244.413C267.067 244.413 266.159 244.659 265.146 245.151L264.697 244.035C265.172 243.777 265.69 243.575 266.253 243.429C266.821 243.282 267.39 243.209 267.958 243.209C269.106 243.209 269.956 243.464 270.507 243.974C271.063 244.483 271.342 245.301 271.342 246.426V253H270.261ZM266.965 251.972C267.873 251.972 268.585 251.723 269.101 251.225C269.622 250.727 269.883 250.029 269.883 249.133V248.263L268.424 248.324C267.264 248.365 266.426 248.547 265.91 248.869C265.4 249.186 265.146 249.681 265.146 250.354C265.146 250.882 265.304 251.283 265.62 251.559C265.942 251.834 266.391 251.972 266.965 251.972ZM280.913 251.708H280.834C280.16 252.687 279.152 253.176 277.811 253.176C276.551 253.176 275.569 252.745 274.866 251.884C274.169 251.022 273.82 249.798 273.82 248.21C273.82 246.622 274.172 245.389 274.875 244.51C275.578 243.631 276.557 243.191 277.811 243.191C279.117 243.191 280.119 243.666 280.816 244.615H280.931L280.869 243.921L280.834 243.244V239.324H282.293V253H281.106L280.913 251.708ZM277.995 251.954C278.991 251.954 279.712 251.685 280.157 251.146C280.608 250.601 280.834 249.725 280.834 248.518V248.21C280.834 246.845 280.605 245.872 280.148 245.292C279.697 244.706 278.974 244.413 277.978 244.413C277.122 244.413 276.466 244.747 276.009 245.415C275.558 246.077 275.332 247.015 275.332 248.228C275.332 249.458 275.558 250.387 276.009 251.014C276.46 251.641 277.122 251.954 277.995 251.954ZM287.505 253L283.849 243.367H285.413L287.487 249.08C287.956 250.416 288.231 251.283 288.313 251.682H288.384C288.448 251.371 288.65 250.729 288.99 249.757C289.336 248.778 290.106 246.648 291.302 243.367H292.866L289.21 253H287.505ZM295.872 253H294.413V243.367H295.872V253ZM294.29 240.757C294.29 240.423 294.372 240.18 294.536 240.027C294.7 239.869 294.905 239.79 295.151 239.79C295.386 239.79 295.588 239.869 295.758 240.027C295.928 240.186 296.013 240.429 296.013 240.757C296.013 241.085 295.928 241.331 295.758 241.495C295.588 241.653 295.386 241.732 295.151 241.732C294.905 241.732 294.7 241.653 294.536 241.495C294.372 241.331 294.29 241.085 294.29 240.757ZM302.815 253.176C301.421 253.176 300.34 252.748 299.572 251.893C298.811 251.031 298.43 249.815 298.43 248.245C298.43 246.634 298.816 245.389 299.59 244.51C300.369 243.631 301.477 243.191 302.912 243.191C303.375 243.191 303.838 243.241 304.301 243.341C304.764 243.44 305.127 243.558 305.391 243.692L304.942 244.932C304.62 244.803 304.269 244.697 303.888 244.615C303.507 244.527 303.17 244.483 302.877 244.483C300.92 244.483 299.941 245.731 299.941 248.228C299.941 249.411 300.179 250.319 300.653 250.952C301.134 251.585 301.843 251.901 302.78 251.901C303.583 251.901 304.406 251.729 305.25 251.383V252.675C304.605 253.009 303.794 253.176 302.815 253.176ZM311.613 253.176C310.189 253.176 309.064 252.742 308.238 251.875C307.418 251.008 307.008 249.804 307.008 248.263C307.008 246.71 307.389 245.477 308.15 244.562C308.918 243.648 309.946 243.191 311.235 243.191C312.442 243.191 313.397 243.59 314.101 244.387C314.804 245.178 315.155 246.224 315.155 247.524V248.447H308.52C308.549 249.578 308.833 250.437 309.372 251.022C309.917 251.608 310.682 251.901 311.666 251.901C312.703 251.901 313.729 251.685 314.742 251.251V252.552C314.227 252.774 313.737 252.933 313.274 253.026C312.817 253.126 312.264 253.176 311.613 253.176ZM311.218 244.413C310.444 244.413 309.826 244.665 309.363 245.169C308.906 245.673 308.637 246.37 308.555 247.261H313.591C313.591 246.341 313.386 245.638 312.976 245.151C312.565 244.659 311.979 244.413 311.218 244.413ZM325.438 251.972C325.696 251.972 325.945 251.954 326.186 251.919C326.426 251.878 326.616 251.837 326.757 251.796V252.912C326.599 252.988 326.364 253.05 326.054 253.097C325.749 253.149 325.474 253.176 325.228 253.176C323.364 253.176 322.433 252.194 322.433 250.231V244.501H321.053V243.798L322.433 243.191L323.048 241.135H323.892V243.367H326.687V244.501H323.892V250.17C323.892 250.75 324.029 251.195 324.305 251.506C324.58 251.816 324.958 251.972 325.438 251.972ZM337.005 248.175C337.005 249.745 336.609 250.973 335.818 251.857C335.027 252.736 333.935 253.176 332.54 253.176C331.679 253.176 330.914 252.974 330.246 252.569C329.578 252.165 329.062 251.585 328.699 250.829C328.336 250.073 328.154 249.188 328.154 248.175C328.154 246.604 328.547 245.383 329.332 244.51C330.117 243.631 331.207 243.191 332.602 243.191C333.949 243.191 335.019 243.64 335.81 244.536C336.606 245.433 337.005 246.646 337.005 248.175ZM329.666 248.175C329.666 249.405 329.912 250.343 330.404 250.987C330.896 251.632 331.62 251.954 332.575 251.954C333.53 251.954 334.254 251.635 334.746 250.996C335.244 250.352 335.493 249.411 335.493 248.175C335.493 246.95 335.244 246.021 334.746 245.389C334.254 244.75 333.524 244.431 332.558 244.431C331.603 244.431 330.882 244.744 330.396 245.371C329.909 245.998 329.666 246.933 329.666 248.175ZM342.718 243.367H344.282L346.392 248.86C346.854 250.114 347.142 251.02 347.253 251.576H347.323C347.399 251.277 347.558 250.768 347.798 250.047C348.044 249.32 348.841 247.094 350.188 243.367H351.753L347.613 254.336C347.203 255.42 346.723 256.188 346.172 256.639C345.627 257.096 344.956 257.324 344.159 257.324C343.714 257.324 343.274 257.274 342.841 257.175V256.006C343.163 256.076 343.523 256.111 343.922 256.111C344.924 256.111 345.639 255.549 346.066 254.424L346.603 253.053L342.718 243.367ZM361.632 248.175C361.632 249.745 361.236 250.973 360.445 251.857C359.654 252.736 358.562 253.176 357.167 253.176C356.306 253.176 355.541 252.974 354.873 252.569C354.205 252.165 353.689 251.585 353.326 250.829C352.963 250.073 352.781 249.188 352.781 248.175C352.781 246.604 353.174 245.383 353.959 244.51C354.744 243.631 355.834 243.191 357.229 243.191C358.576 243.191 359.646 243.64 360.437 244.536C361.233 245.433 361.632 246.646 361.632 248.175ZM354.293 248.175C354.293 249.405 354.539 250.343 355.031 250.987C355.523 251.632 356.247 251.954 357.202 251.954C358.157 251.954 358.881 251.635 359.373 250.996C359.871 250.352 360.12 249.411 360.12 248.175C360.12 246.95 359.871 246.021 359.373 245.389C358.881 244.75 358.151 244.431 357.185 244.431C356.229 244.431 355.509 244.744 355.022 245.371C354.536 245.998 354.293 246.933 354.293 248.175ZM365.569 243.367V249.616C365.569 250.401 365.748 250.987 366.105 251.374C366.463 251.761 367.022 251.954 367.784 251.954C368.792 251.954 369.527 251.679 369.99 251.128C370.459 250.577 370.693 249.678 370.693 248.43V243.367H372.152V253H370.948L370.737 251.708H370.658C370.359 252.183 369.943 252.546 369.41 252.798C368.883 253.05 368.279 253.176 367.6 253.176C366.428 253.176 365.549 252.897 364.963 252.341C364.383 251.784 364.093 250.894 364.093 249.669V243.367H365.569ZM381.39 253H379.931V243.367H381.39V253ZM379.808 240.757C379.808 240.423 379.89 240.18 380.054 240.027C380.218 239.869 380.423 239.79 380.669 239.79C380.903 239.79 381.105 239.869 381.275 240.027C381.445 240.186 381.53 240.429 381.53 240.757C381.53 241.085 381.445 241.331 381.275 241.495C381.105 241.653 380.903 241.732 380.669 241.732C380.423 241.732 380.218 241.653 380.054 241.495C379.89 241.331 379.808 241.085 379.808 240.757ZM391.075 253V246.769C391.075 245.983 390.896 245.397 390.539 245.011C390.182 244.624 389.622 244.431 388.86 244.431C387.853 244.431 387.114 244.703 386.646 245.248C386.177 245.793 385.942 246.692 385.942 247.946V253H384.483V243.367H385.67L385.907 244.686H385.978C386.276 244.211 386.695 243.845 387.234 243.587C387.773 243.323 388.374 243.191 389.036 243.191C390.196 243.191 391.069 243.473 391.655 244.035C392.241 244.592 392.534 245.485 392.534 246.716V253H391.075ZM406.14 253L405.85 251.629H405.779C405.299 252.232 404.818 252.643 404.338 252.859C403.863 253.07 403.269 253.176 402.554 253.176C401.599 253.176 400.849 252.93 400.304 252.438C399.765 251.945 399.495 251.245 399.495 250.337C399.495 248.392 401.051 247.372 404.162 247.278L405.797 247.226V246.628C405.797 245.872 405.633 245.315 405.305 244.958C404.982 244.595 404.464 244.413 403.749 244.413C402.946 244.413 402.038 244.659 401.024 245.151L400.576 244.035C401.051 243.777 401.569 243.575 402.132 243.429C402.7 243.282 403.269 243.209 403.837 243.209C404.985 243.209 405.835 243.464 406.386 243.974C406.942 244.483 407.221 245.301 407.221 246.426V253H406.14ZM402.844 251.972C403.752 251.972 404.464 251.723 404.979 251.225C405.501 250.727 405.762 250.029 405.762 249.133V248.263L404.303 248.324C403.143 248.365 402.305 248.547 401.789 248.869C401.279 249.186 401.024 249.681 401.024 250.354C401.024 250.882 401.183 251.283 401.499 251.559C401.821 251.834 402.27 251.972 402.844 251.972ZM416.827 253V246.769C416.827 245.983 416.648 245.397 416.291 245.011C415.934 244.624 415.374 244.431 414.612 244.431C413.604 244.431 412.866 244.703 412.397 245.248C411.929 245.793 411.694 246.692 411.694 247.946V253H410.235V243.367H411.422L411.659 244.686H411.729C412.028 244.211 412.447 243.845 412.986 243.587C413.525 243.323 414.126 243.191 414.788 243.191C415.948 243.191 416.821 243.473 417.407 244.035C417.993 244.592 418.286 245.485 418.286 246.716V253H416.827ZM65.9678 278.176C64.5439 278.176 63.4189 277.742 62.5928 276.875C61.7725 276.008 61.3623 274.804 61.3623 273.263C61.3623 271.71 61.7432 270.477 62.5049 269.562C63.2725 268.648 64.3008 268.191 65.5898 268.191C66.7969 268.191 67.752 268.59 68.4551 269.387C69.1582 270.178 69.5098 271.224 69.5098 272.524V273.447H62.874C62.9033 274.578 63.1875 275.437 63.7266 276.022C64.2715 276.608 65.0361 276.901 66.0205 276.901C67.0576 276.901 68.083 276.685 69.0967 276.251V277.552C68.5811 277.774 68.0918 277.933 67.6289 278.026C67.1719 278.126 66.6182 278.176 65.9678 278.176ZM65.5723 269.413C64.7988 269.413 64.1807 269.665 63.7178 270.169C63.2607 270.673 62.9912 271.37 62.9092 272.261H67.9453C67.9453 271.341 67.7402 270.638 67.3301 270.151C66.9199 269.659 66.334 269.413 65.5723 269.413ZM77.9297 278L77.6396 276.629H77.5693C77.0889 277.232 76.6084 277.643 76.1279 277.859C75.6533 278.07 75.0586 278.176 74.3438 278.176C73.3887 278.176 72.6387 277.93 72.0938 277.438C71.5547 276.945 71.2852 276.245 71.2852 275.337C71.2852 273.392 72.8408 272.372 75.9521 272.278L77.5869 272.226V271.628C77.5869 270.872 77.4229 270.315 77.0947 269.958C76.7725 269.595 76.2539 269.413 75.5391 269.413C74.7363 269.413 73.8281 269.659 72.8145 270.151L72.3662 269.035C72.8408 268.777 73.3594 268.575 73.9219 268.429C74.4902 268.282 75.0586 268.209 75.627 268.209C76.7754 268.209 77.625 268.464 78.1758 268.974C78.7324 269.483 79.0107 270.301 79.0107 271.426V278H77.9297ZM74.6338 276.972C75.542 276.972 76.2539 276.723 76.7695 276.225C77.291 275.727 77.5518 275.029 77.5518 274.133V273.263L76.0928 273.324C74.9326 273.365 74.0947 273.547 73.5791 273.869C73.0693 274.186 72.8145 274.681 72.8145 275.354C72.8145 275.882 72.9727 276.283 73.2891 276.559C73.6113 276.834 74.0596 276.972 74.6338 276.972ZM88.2393 275.372C88.2393 276.269 87.9053 276.96 87.2373 277.446C86.5693 277.933 85.6318 278.176 84.4248 278.176C83.1475 278.176 82.1514 277.974 81.4365 277.569V276.216C81.8994 276.45 82.3945 276.635 82.9219 276.77C83.4551 276.904 83.9678 276.972 84.46 276.972C85.2217 276.972 85.8076 276.852 86.2178 276.611C86.6279 276.365 86.833 275.993 86.833 275.495C86.833 275.12 86.6689 274.801 86.3408 274.537C86.0186 274.268 85.3857 273.951 84.4424 273.588C83.5459 273.254 82.9072 272.964 82.5264 272.718C82.1514 272.466 81.8701 272.182 81.6826 271.865C81.501 271.549 81.4102 271.171 81.4102 270.731C81.4102 269.946 81.7295 269.328 82.3682 268.877C83.0068 268.42 83.8828 268.191 84.9961 268.191C86.0332 268.191 87.0469 268.402 88.0371 268.824L87.5186 270.011C86.5518 269.612 85.6758 269.413 84.8906 269.413C84.1992 269.413 83.6777 269.521 83.3262 269.738C82.9746 269.955 82.7988 270.254 82.7988 270.635C82.7988 270.893 82.8633 271.112 82.9922 271.294C83.127 271.476 83.3408 271.648 83.6338 271.812C83.9268 271.977 84.4893 272.214 85.3213 272.524C86.4639 272.94 87.2344 273.359 87.6328 273.781C88.0371 274.203 88.2393 274.733 88.2393 275.372ZM92.0801 278H90.6211V268.367H92.0801V278ZM90.498 265.757C90.498 265.423 90.5801 265.18 90.7441 265.027C90.9082 264.869 91.1133 264.79 91.3594 264.79C91.5938 264.79 91.7959 264.869 91.9658 265.027C92.1357 265.186 92.2207 265.429 92.2207 265.757C92.2207 266.085 92.1357 266.331 91.9658 266.495C91.7959 266.653 91.5938 266.732 91.3594 266.732C91.1133 266.732 90.9082 266.653 90.7441 266.495C90.5801 266.331 90.498 266.085 90.498 265.757ZM96.6328 278H95.1738V264.324H96.6328V278ZM98.1973 268.367H99.7617L101.871 273.86C102.334 275.114 102.621 276.02 102.732 276.576H102.803C102.879 276.277 103.037 275.768 103.277 275.047C103.523 274.32 104.32 272.094 105.668 268.367H107.232L103.093 279.336C102.683 280.42 102.202 281.188 101.651 281.639C101.106 282.096 100.436 282.324 99.6387 282.324C99.1934 282.324 98.7539 282.274 98.3203 282.175V281.006C98.6426 281.076 99.0029 281.111 99.4014 281.111C100.403 281.111 101.118 280.549 101.546 279.424L102.082 278.053L98.1973 268.367ZM120.029 276.708H119.95C119.276 277.687 118.269 278.176 116.927 278.176C115.667 278.176 114.686 277.745 113.982 276.884C113.285 276.022 112.937 274.798 112.937 273.21C112.937 271.622 113.288 270.389 113.991 269.51C114.694 268.631 115.673 268.191 116.927 268.191C118.233 268.191 119.235 268.666 119.933 269.615H120.047L119.985 268.921L119.95 268.244V264.324H121.409V278H120.223L120.029 276.708ZM117.111 276.954C118.107 276.954 118.828 276.685 119.273 276.146C119.725 275.601 119.95 274.725 119.95 273.518V273.21C119.95 271.845 119.722 270.872 119.265 270.292C118.813 269.706 118.09 269.413 117.094 269.413C116.238 269.413 115.582 269.747 115.125 270.415C114.674 271.077 114.448 272.015 114.448 273.228C114.448 274.458 114.674 275.387 115.125 276.014C115.576 276.641 116.238 276.954 117.111 276.954ZM125.971 278H124.512V268.367H125.971V278ZM124.389 265.757C124.389 265.423 124.471 265.18 124.635 265.027C124.799 264.869 125.004 264.79 125.25 264.79C125.484 264.79 125.687 264.869 125.856 265.027C126.026 265.186 126.111 265.429 126.111 265.757C126.111 266.085 126.026 266.331 125.856 266.495C125.687 266.653 125.484 266.732 125.25 266.732C125.004 266.732 124.799 266.653 124.635 266.495C124.471 266.331 124.389 266.085 124.389 265.757ZM136.948 268.367V269.29L135.164 269.501C135.328 269.706 135.475 269.976 135.604 270.31C135.732 270.638 135.797 271.01 135.797 271.426C135.797 272.369 135.475 273.122 134.83 273.685C134.186 274.247 133.301 274.528 132.176 274.528C131.889 274.528 131.619 274.505 131.367 274.458C130.746 274.786 130.436 275.199 130.436 275.697C130.436 275.961 130.544 276.157 130.761 276.286C130.978 276.409 131.35 276.471 131.877 276.471H133.582C134.625 276.471 135.425 276.69 135.981 277.13C136.544 277.569 136.825 278.208 136.825 279.046C136.825 280.112 136.397 280.924 135.542 281.48C134.687 282.043 133.438 282.324 131.798 282.324C130.538 282.324 129.565 282.09 128.88 281.621C128.2 281.152 127.86 280.49 127.86 279.635C127.86 279.049 128.048 278.542 128.423 278.114C128.798 277.687 129.325 277.396 130.005 277.244C129.759 277.133 129.551 276.96 129.381 276.726C129.217 276.491 129.135 276.219 129.135 275.908C129.135 275.557 129.229 275.249 129.416 274.985C129.604 274.722 129.899 274.467 130.304 274.221C129.806 274.016 129.398 273.667 129.082 273.175C128.771 272.683 128.616 272.12 128.616 271.487C128.616 270.433 128.933 269.621 129.565 269.053C130.198 268.479 131.095 268.191 132.255 268.191C132.759 268.191 133.213 268.25 133.617 268.367H136.948ZM129.267 279.617C129.267 280.139 129.486 280.534 129.926 280.804C130.365 281.073 130.995 281.208 131.815 281.208C133.04 281.208 133.945 281.023 134.531 280.654C135.123 280.291 135.419 279.796 135.419 279.169C135.419 278.647 135.258 278.284 134.936 278.079C134.613 277.88 134.007 277.78 133.116 277.78H131.367C130.705 277.78 130.189 277.938 129.82 278.255C129.451 278.571 129.267 279.025 129.267 279.617ZM130.058 271.452C130.058 272.126 130.248 272.636 130.629 272.981C131.01 273.327 131.54 273.5 132.22 273.5C133.644 273.5 134.355 272.809 134.355 271.426C134.355 269.979 133.635 269.255 132.193 269.255C131.508 269.255 130.98 269.439 130.611 269.809C130.242 270.178 130.058 270.726 130.058 271.452ZM142.995 278.176C141.571 278.176 140.446 277.742 139.62 276.875C138.8 276.008 138.39 274.804 138.39 273.263C138.39 271.71 138.771 270.477 139.532 269.562C140.3 268.648 141.328 268.191 142.617 268.191C143.824 268.191 144.779 268.59 145.482 269.387C146.186 270.178 146.537 271.224 146.537 272.524V273.447H139.901C139.931 274.578 140.215 275.437 140.754 276.022C141.299 276.608 142.063 276.901 143.048 276.901C144.085 276.901 145.11 276.685 146.124 276.251V277.552C145.608 277.774 145.119 277.933 144.656 278.026C144.199 278.126 143.646 278.176 142.995 278.176ZM142.6 269.413C141.826 269.413 141.208 269.665 140.745 270.169C140.288 270.673 140.019 271.37 139.937 272.261H144.973C144.973 271.341 144.768 270.638 144.357 270.151C143.947 269.659 143.361 269.413 142.6 269.413ZM155.247 275.372C155.247 276.269 154.913 276.96 154.245 277.446C153.577 277.933 152.64 278.176 151.433 278.176C150.155 278.176 149.159 277.974 148.444 277.569V276.216C148.907 276.45 149.402 276.635 149.93 276.77C150.463 276.904 150.976 276.972 151.468 276.972C152.229 276.972 152.815 276.852 153.226 276.611C153.636 276.365 153.841 275.993 153.841 275.495C153.841 275.12 153.677 274.801 153.349 274.537C153.026 274.268 152.394 273.951 151.45 273.588C150.554 273.254 149.915 272.964 149.534 272.718C149.159 272.466 148.878 272.182 148.69 271.865C148.509 271.549 148.418 271.171 148.418 270.731C148.418 269.946 148.737 269.328 149.376 268.877C150.015 268.42 150.891 268.191 152.004 268.191C153.041 268.191 154.055 268.402 155.045 268.824L154.526 270.011C153.56 269.612 152.684 269.413 151.898 269.413C151.207 269.413 150.686 269.521 150.334 269.738C149.982 269.955 149.807 270.254 149.807 270.635C149.807 270.893 149.871 271.112 150 271.294C150.135 271.476 150.349 271.648 150.642 271.812C150.935 271.977 151.497 272.214 152.329 272.524C153.472 272.94 154.242 273.359 154.641 273.781C155.045 274.203 155.247 274.733 155.247 275.372ZM160.74 276.972C160.998 276.972 161.247 276.954 161.487 276.919C161.728 276.878 161.918 276.837 162.059 276.796V277.912C161.9 277.988 161.666 278.05 161.355 278.097C161.051 278.149 160.775 278.176 160.529 278.176C158.666 278.176 157.734 277.194 157.734 275.231V269.501H156.354V268.798L157.734 268.191L158.35 266.135H159.193V268.367H161.988V269.501H159.193V275.17C159.193 275.75 159.331 276.195 159.606 276.506C159.882 276.816 160.26 276.972 160.74 276.972ZM165.451 278H163.992V268.367H165.451V278ZM163.869 265.757C163.869 265.423 163.951 265.18 164.115 265.027C164.279 264.869 164.484 264.79 164.73 264.79C164.965 264.79 165.167 264.869 165.337 265.027C165.507 265.186 165.592 265.429 165.592 265.757C165.592 266.085 165.507 266.331 165.337 266.495C165.167 266.653 164.965 266.732 164.73 266.732C164.484 266.732 164.279 266.653 164.115 266.495C163.951 266.331 163.869 266.085 163.869 265.757ZM173.027 268.209C174.293 268.209 175.274 268.643 175.972 269.51C176.675 270.371 177.026 271.593 177.026 273.175C177.026 274.757 176.672 275.987 175.963 276.866C175.26 277.739 174.281 278.176 173.027 278.176C172.4 278.176 171.826 278.062 171.305 277.833C170.789 277.599 170.355 277.241 170.004 276.761H169.898L169.591 278H168.545V264.324H170.004V267.646C170.004 268.391 169.98 269.059 169.934 269.65H170.004C170.684 268.689 171.691 268.209 173.027 268.209ZM172.816 269.431C171.82 269.431 171.103 269.718 170.663 270.292C170.224 270.86 170.004 271.821 170.004 273.175C170.004 274.528 170.229 275.498 170.681 276.084C171.132 276.664 171.855 276.954 172.852 276.954C173.748 276.954 174.416 276.629 174.855 275.979C175.295 275.322 175.515 274.382 175.515 273.157C175.515 271.903 175.295 270.969 174.855 270.354C174.416 269.738 173.736 269.431 172.816 269.431ZM181.043 278H179.584V264.324H181.043V278ZM188.206 278.176C186.782 278.176 185.657 277.742 184.831 276.875C184.011 276.008 183.601 274.804 183.601 273.263C183.601 271.71 183.981 270.477 184.743 269.562C185.511 268.648 186.539 268.191 187.828 268.191C189.035 268.191 189.99 268.59 190.693 269.387C191.396 270.178 191.748 271.224 191.748 272.524V273.447H185.112C185.142 274.578 185.426 275.437 185.965 276.022C186.51 276.608 187.274 276.901 188.259 276.901C189.296 276.901 190.321 276.685 191.335 276.251V277.552C190.819 277.774 190.33 277.933 189.867 278.026C189.41 278.126 188.856 278.176 188.206 278.176ZM187.811 269.413C187.037 269.413 186.419 269.665 185.956 270.169C185.499 270.673 185.229 271.37 185.147 272.261H190.184C190.184 271.341 189.979 270.638 189.568 270.151C189.158 269.659 188.572 269.413 187.811 269.413ZM203.262 269.501H200.81V278H199.351V269.501H197.628V268.842L199.351 268.314V267.778C199.351 265.411 200.385 264.228 202.453 264.228C202.963 264.228 203.561 264.33 204.246 264.535L203.868 265.704C203.306 265.522 202.825 265.432 202.427 265.432C201.876 265.432 201.469 265.616 201.205 265.985C200.941 266.349 200.81 266.935 200.81 267.743V268.367H203.262V269.501ZM213.334 273.175C213.334 274.745 212.938 275.973 212.147 276.857C211.356 277.736 210.264 278.176 208.869 278.176C208.008 278.176 207.243 277.974 206.575 277.569C205.907 277.165 205.392 276.585 205.028 275.829C204.665 275.073 204.483 274.188 204.483 273.175C204.483 271.604 204.876 270.383 205.661 269.51C206.446 268.631 207.536 268.191 208.931 268.191C210.278 268.191 211.348 268.64 212.139 269.536C212.936 270.433 213.334 271.646 213.334 273.175ZM205.995 273.175C205.995 274.405 206.241 275.343 206.733 275.987C207.226 276.632 207.949 276.954 208.904 276.954C209.859 276.954 210.583 276.635 211.075 275.996C211.573 275.352 211.822 274.411 211.822 273.175C211.822 271.95 211.573 271.021 211.075 270.389C210.583 269.75 209.854 269.431 208.887 269.431C207.932 269.431 207.211 269.744 206.725 270.371C206.238 270.998 205.995 271.933 205.995 273.175ZM220.295 268.191C220.723 268.191 221.106 268.227 221.446 268.297L221.244 269.65C220.846 269.562 220.494 269.519 220.189 269.519C219.41 269.519 218.742 269.835 218.186 270.468C217.635 271.101 217.359 271.889 217.359 272.832V278H215.9V268.367H217.104L217.271 270.151H217.342C217.699 269.524 218.13 269.041 218.634 268.701C219.138 268.361 219.691 268.191 220.295 268.191ZM235.526 278V271.733C235.526 270.966 235.362 270.392 235.034 270.011C234.706 269.624 234.196 269.431 233.505 269.431C232.597 269.431 231.926 269.691 231.492 270.213C231.059 270.734 230.842 271.537 230.842 272.621V278H229.383V271.733C229.383 270.966 229.219 270.392 228.891 270.011C228.562 269.624 228.05 269.431 227.353 269.431C226.438 269.431 225.768 269.706 225.34 270.257C224.918 270.802 224.707 271.698 224.707 272.946V278H223.248V268.367H224.435L224.672 269.686H224.742C225.018 269.217 225.404 268.851 225.902 268.587C226.406 268.323 226.969 268.191 227.59 268.191C229.096 268.191 230.08 268.736 230.543 269.826H230.613C230.9 269.322 231.316 268.924 231.861 268.631C232.406 268.338 233.027 268.191 233.725 268.191C234.814 268.191 235.629 268.473 236.168 269.035C236.713 269.592 236.985 270.485 236.985 271.716V278H235.526ZM245.924 278L245.634 276.629H245.563C245.083 277.232 244.603 277.643 244.122 277.859C243.647 278.07 243.053 278.176 242.338 278.176C241.383 278.176 240.633 277.93 240.088 277.438C239.549 276.945 239.279 276.245 239.279 275.337C239.279 273.392 240.835 272.372 243.946 272.278L245.581 272.226V271.628C245.581 270.872 245.417 270.315 245.089 269.958C244.767 269.595 244.248 269.413 243.533 269.413C242.73 269.413 241.822 269.659 240.809 270.151L240.36 269.035C240.835 268.777 241.354 268.575 241.916 268.429C242.484 268.282 243.053 268.209 243.621 268.209C244.77 268.209 245.619 268.464 246.17 268.974C246.727 269.483 247.005 270.301 247.005 271.426V278H245.924ZM242.628 276.972C243.536 276.972 244.248 276.723 244.764 276.225C245.285 275.727 245.546 275.029 245.546 274.133V273.263L244.087 273.324C242.927 273.365 242.089 273.547 241.573 273.869C241.063 274.186 240.809 274.681 240.809 275.354C240.809 275.882 240.967 276.283 241.283 276.559C241.605 276.834 242.054 276.972 242.628 276.972ZM253.131 276.972C253.389 276.972 253.638 276.954 253.878 276.919C254.118 276.878 254.309 276.837 254.449 276.796V277.912C254.291 277.988 254.057 278.05 253.746 278.097C253.441 278.149 253.166 278.176 252.92 278.176C251.057 278.176 250.125 277.194 250.125 275.231V269.501H248.745V268.798L250.125 268.191L250.74 266.135H251.584V268.367H254.379V269.501H251.584V275.17C251.584 275.75 251.722 276.195 251.997 276.506C252.272 276.816 252.65 276.972 253.131 276.972ZM260.232 273.843V272.507H267.791V273.843H260.232ZM276.193 278H274.734V264.324H276.193V278ZM283.356 278.176C281.933 278.176 280.808 277.742 279.981 276.875C279.161 276.008 278.751 274.804 278.751 273.263C278.751 271.71 279.132 270.477 279.894 269.562C280.661 268.648 281.689 268.191 282.979 268.191C284.186 268.191 285.141 268.59 285.844 269.387C286.547 270.178 286.898 271.224 286.898 272.524V273.447H280.263C280.292 274.578 280.576 275.437 281.115 276.022C281.66 276.608 282.425 276.901 283.409 276.901C284.446 276.901 285.472 276.685 286.485 276.251V277.552C285.97 277.774 285.48 277.933 285.018 278.026C284.561 278.126 284.007 278.176 283.356 278.176ZM282.961 269.413C282.188 269.413 281.569 269.665 281.106 270.169C280.649 270.673 280.38 271.37 280.298 272.261H285.334C285.334 271.341 285.129 270.638 284.719 270.151C284.309 269.659 283.723 269.413 282.961 269.413ZM295.318 278L295.028 276.629H294.958C294.478 277.232 293.997 277.643 293.517 277.859C293.042 278.07 292.447 278.176 291.732 278.176C290.777 278.176 290.027 277.93 289.482 277.438C288.943 276.945 288.674 276.245 288.674 275.337C288.674 273.392 290.229 272.372 293.341 272.278L294.976 272.226V271.628C294.976 270.872 294.812 270.315 294.483 269.958C294.161 269.595 293.643 269.413 292.928 269.413C292.125 269.413 291.217 269.659 290.203 270.151L289.755 269.035C290.229 268.777 290.748 268.575 291.311 268.429C291.879 268.282 292.447 268.209 293.016 268.209C294.164 268.209 295.014 268.464 295.564 268.974C296.121 269.483 296.399 270.301 296.399 271.426V278H295.318ZM292.022 276.972C292.931 276.972 293.643 276.723 294.158 276.225C294.68 275.727 294.94 275.029 294.94 274.133V273.263L293.481 273.324C292.321 273.365 291.483 273.547 290.968 273.869C290.458 274.186 290.203 274.681 290.203 275.354C290.203 275.882 290.361 276.283 290.678 276.559C291 276.834 291.448 276.972 292.022 276.972ZM301.523 278L297.867 268.367H299.432L301.506 274.08C301.975 275.416 302.25 276.283 302.332 276.682H302.402C302.467 276.371 302.669 275.729 303.009 274.757C303.354 273.778 304.125 271.648 305.32 268.367H306.885L303.229 278H301.523ZM309.891 278H308.432V268.367H309.891V278ZM308.309 265.757C308.309 265.423 308.391 265.18 308.555 265.027C308.719 264.869 308.924 264.79 309.17 264.79C309.404 264.79 309.606 264.869 309.776 265.027C309.946 265.186 310.031 265.429 310.031 265.757C310.031 266.085 309.946 266.331 309.776 266.495C309.606 266.653 309.404 266.732 309.17 266.732C308.924 266.732 308.719 266.653 308.555 266.495C308.391 266.331 308.309 266.085 308.309 265.757ZM319.576 278V271.769C319.576 270.983 319.397 270.397 319.04 270.011C318.683 269.624 318.123 269.431 317.361 269.431C316.354 269.431 315.615 269.703 315.146 270.248C314.678 270.793 314.443 271.692 314.443 272.946V278H312.984V268.367H314.171L314.408 269.686H314.479C314.777 269.211 315.196 268.845 315.735 268.587C316.274 268.323 316.875 268.191 317.537 268.191C318.697 268.191 319.57 268.473 320.156 269.035C320.742 269.592 321.035 270.485 321.035 271.716V278H319.576ZM331.925 268.367V269.29L330.141 269.501C330.305 269.706 330.451 269.976 330.58 270.31C330.709 270.638 330.773 271.01 330.773 271.426C330.773 272.369 330.451 273.122 329.807 273.685C329.162 274.247 328.277 274.528 327.152 274.528C326.865 274.528 326.596 274.505 326.344 274.458C325.723 274.786 325.412 275.199 325.412 275.697C325.412 275.961 325.521 276.157 325.737 276.286C325.954 276.409 326.326 276.471 326.854 276.471H328.559C329.602 276.471 330.401 276.69 330.958 277.13C331.521 277.569 331.802 278.208 331.802 279.046C331.802 280.112 331.374 280.924 330.519 281.48C329.663 282.043 328.415 282.324 326.774 282.324C325.515 282.324 324.542 282.09 323.856 281.621C323.177 281.152 322.837 280.49 322.837 279.635C322.837 279.049 323.024 278.542 323.399 278.114C323.774 277.687 324.302 277.396 324.981 277.244C324.735 277.133 324.527 276.96 324.357 276.726C324.193 276.491 324.111 276.219 324.111 275.908C324.111 275.557 324.205 275.249 324.393 274.985C324.58 274.722 324.876 274.467 325.28 274.221C324.782 274.016 324.375 273.667 324.059 273.175C323.748 272.683 323.593 272.12 323.593 271.487C323.593 270.433 323.909 269.621 324.542 269.053C325.175 268.479 326.071 268.191 327.231 268.191C327.735 268.191 328.189 268.25 328.594 268.367H331.925ZM324.243 279.617C324.243 280.139 324.463 280.534 324.902 280.804C325.342 281.073 325.972 281.208 326.792 281.208C328.017 281.208 328.922 281.023 329.508 280.654C330.1 280.291 330.396 279.796 330.396 279.169C330.396 278.647 330.234 278.284 329.912 278.079C329.59 277.88 328.983 277.78 328.093 277.78H326.344C325.682 277.78 325.166 277.938 324.797 278.255C324.428 278.571 324.243 279.025 324.243 279.617ZM325.034 271.452C325.034 272.126 325.225 272.636 325.605 272.981C325.986 273.327 326.517 273.5 327.196 273.5C328.62 273.5 329.332 272.809 329.332 271.426C329.332 269.979 328.611 269.255 327.17 269.255C326.484 269.255 325.957 269.439 325.588 269.809C325.219 270.178 325.034 270.726 325.034 271.452ZM345.17 278V271.769C345.17 270.983 344.991 270.397 344.634 270.011C344.276 269.624 343.717 269.431 342.955 269.431C341.947 269.431 341.209 269.703 340.74 270.248C340.271 270.793 340.037 271.692 340.037 272.946V278H338.578V268.367H339.765L340.002 269.686H340.072C340.371 269.211 340.79 268.845 341.329 268.587C341.868 268.323 342.469 268.191 343.131 268.191C344.291 268.191 345.164 268.473 345.75 269.035C346.336 269.592 346.629 270.485 346.629 271.716V278H345.17ZM357.949 273.175C357.949 274.745 357.554 275.973 356.763 276.857C355.972 277.736 354.879 278.176 353.484 278.176C352.623 278.176 351.858 277.974 351.19 277.569C350.522 277.165 350.007 276.585 349.644 275.829C349.28 275.073 349.099 274.188 349.099 273.175C349.099 271.604 349.491 270.383 350.276 269.51C351.062 268.631 352.151 268.191 353.546 268.191C354.894 268.191 355.963 268.64 356.754 269.536C357.551 270.433 357.949 271.646 357.949 273.175ZM350.61 273.175C350.61 274.405 350.856 275.343 351.349 275.987C351.841 276.632 352.564 276.954 353.52 276.954C354.475 276.954 355.198 276.635 355.69 275.996C356.188 275.352 356.438 274.411 356.438 273.175C356.438 271.95 356.188 271.021 355.69 270.389C355.198 269.75 354.469 269.431 353.502 269.431C352.547 269.431 351.826 269.744 351.34 270.371C350.854 270.998 350.61 271.933 350.61 273.175ZM371.405 275.372C371.405 276.269 371.071 276.96 370.403 277.446C369.735 277.933 368.798 278.176 367.591 278.176C366.313 278.176 365.317 277.974 364.603 277.569V276.216C365.065 276.45 365.561 276.635 366.088 276.77C366.621 276.904 367.134 276.972 367.626 276.972C368.388 276.972 368.974 276.852 369.384 276.611C369.794 276.365 369.999 275.993 369.999 275.495C369.999 275.12 369.835 274.801 369.507 274.537C369.185 274.268 368.552 273.951 367.608 273.588C366.712 273.254 366.073 272.964 365.692 272.718C365.317 272.466 365.036 272.182 364.849 271.865C364.667 271.549 364.576 271.171 364.576 270.731C364.576 269.946 364.896 269.328 365.534 268.877C366.173 268.42 367.049 268.191 368.162 268.191C369.199 268.191 370.213 268.402 371.203 268.824L370.685 270.011C369.718 269.612 368.842 269.413 368.057 269.413C367.365 269.413 366.844 269.521 366.492 269.738C366.141 269.955 365.965 270.254 365.965 270.635C365.965 270.893 366.029 271.112 366.158 271.294C366.293 271.476 366.507 271.648 366.8 271.812C367.093 271.977 367.655 272.214 368.487 272.524C369.63 272.94 370.4 273.359 370.799 273.781C371.203 274.203 371.405 274.733 371.405 275.372ZM376.898 276.972C377.156 276.972 377.405 276.954 377.646 276.919C377.886 276.878 378.076 276.837 378.217 276.796V277.912C378.059 277.988 377.824 278.05 377.514 278.097C377.209 278.149 376.934 278.176 376.688 278.176C374.824 278.176 373.893 277.194 373.893 275.231V269.501H372.513V268.798L373.893 268.191L374.508 266.135H375.352V268.367H378.146V269.501H375.352V275.17C375.352 275.75 375.489 276.195 375.765 276.506C376.04 276.816 376.418 276.972 376.898 276.972ZM388.465 273.175C388.465 274.745 388.069 275.973 387.278 276.857C386.487 277.736 385.395 278.176 384 278.176C383.139 278.176 382.374 277.974 381.706 277.569C381.038 277.165 380.522 276.585 380.159 275.829C379.796 275.073 379.614 274.188 379.614 273.175C379.614 271.604 380.007 270.383 380.792 269.51C381.577 268.631 382.667 268.191 384.062 268.191C385.409 268.191 386.479 268.64 387.27 269.536C388.066 270.433 388.465 271.646 388.465 273.175ZM381.126 273.175C381.126 274.405 381.372 275.343 381.864 275.987C382.356 276.632 383.08 276.954 384.035 276.954C384.99 276.954 385.714 276.635 386.206 275.996C386.704 275.352 386.953 274.411 386.953 273.175C386.953 271.95 386.704 271.021 386.206 270.389C385.714 269.75 384.984 269.431 384.018 269.431C383.062 269.431 382.342 269.744 381.855 270.371C381.369 270.998 381.126 271.933 381.126 273.175ZM397.623 278V271.769C397.623 270.983 397.444 270.397 397.087 270.011C396.729 269.624 396.17 269.431 395.408 269.431C394.4 269.431 393.662 269.703 393.193 270.248C392.725 270.793 392.49 271.692 392.49 272.946V278H391.031V268.367H392.218L392.455 269.686H392.525C392.824 269.211 393.243 268.845 393.782 268.587C394.321 268.323 394.922 268.191 395.584 268.191C396.744 268.191 397.617 268.473 398.203 269.035C398.789 269.592 399.082 270.485 399.082 271.716V278H397.623ZM406.157 278.176C404.733 278.176 403.608 277.742 402.782 276.875C401.962 276.008 401.552 274.804 401.552 273.263C401.552 271.71 401.933 270.477 402.694 269.562C403.462 268.648 404.49 268.191 405.779 268.191C406.986 268.191 407.941 268.59 408.645 269.387C409.348 270.178 409.699 271.224 409.699 272.524V273.447H403.063C403.093 274.578 403.377 275.437 403.916 276.022C404.461 276.608 405.226 276.901 406.21 276.901C407.247 276.901 408.272 276.685 409.286 276.251V277.552C408.771 277.774 408.281 277.933 407.818 278.026C407.361 278.126 406.808 278.176 406.157 278.176ZM405.762 269.413C404.988 269.413 404.37 269.665 403.907 270.169C403.45 270.673 403.181 271.37 403.099 272.261H408.135C408.135 271.341 407.93 270.638 407.52 270.151C407.109 269.659 406.523 269.413 405.762 269.413ZM196.477 293.367V299.616C196.477 300.401 196.655 300.987 197.013 301.374C197.37 301.761 197.93 301.954 198.691 301.954C199.699 301.954 200.435 301.679 200.897 301.128C201.366 300.577 201.601 299.678 201.601 298.43V293.367H203.06V303H201.855L201.645 301.708H201.565C201.267 302.183 200.851 302.546 200.317 302.798C199.79 303.05 199.187 303.176 198.507 303.176C197.335 303.176 196.456 302.897 195.87 302.341C195.29 301.784 195 300.894 195 299.669V293.367H196.477ZM212.754 303V296.769C212.754 295.983 212.575 295.397 212.218 295.011C211.86 294.624 211.301 294.431 210.539 294.431C209.531 294.431 208.793 294.703 208.324 295.248C207.855 295.793 207.621 296.692 207.621 297.946V303H206.162V293.367H207.349L207.586 294.686H207.656C207.955 294.211 208.374 293.845 208.913 293.587C209.452 293.323 210.053 293.191 210.715 293.191C211.875 293.191 212.748 293.473 213.334 294.035C213.92 294.592 214.213 295.485 214.213 296.716V303H212.754ZM220.33 301.972C220.588 301.972 220.837 301.954 221.077 301.919C221.317 301.878 221.508 301.837 221.648 301.796V302.912C221.49 302.988 221.256 303.05 220.945 303.097C220.641 303.149 220.365 303.176 220.119 303.176C218.256 303.176 217.324 302.194 217.324 300.231V294.501H215.944V293.798L217.324 293.191L217.939 291.135H218.783V293.367H221.578V294.501H218.783V300.17C218.783 300.75 218.921 301.195 219.196 301.506C219.472 301.816 219.85 301.972 220.33 301.972ZM224.953 293.367V299.616C224.953 300.401 225.132 300.987 225.489 301.374C225.847 301.761 226.406 301.954 227.168 301.954C228.176 301.954 228.911 301.679 229.374 301.128C229.843 300.577 230.077 299.678 230.077 298.43V293.367H231.536V303H230.332L230.121 301.708H230.042C229.743 302.183 229.327 302.546 228.794 302.798C228.267 303.05 227.663 303.176 226.983 303.176C225.812 303.176 224.933 302.897 224.347 302.341C223.767 301.784 223.477 300.894 223.477 299.669V293.367H224.953ZM239.033 293.191C239.461 293.191 239.845 293.227 240.185 293.297L239.982 294.65C239.584 294.562 239.232 294.519 238.928 294.519C238.148 294.519 237.48 294.835 236.924 295.468C236.373 296.101 236.098 296.889 236.098 297.832V303H234.639V293.367H235.843L236.01 295.151H236.08C236.438 294.524 236.868 294.041 237.372 293.701C237.876 293.361 238.43 293.191 239.033 293.191ZM248.578 303V296.769C248.578 295.983 248.399 295.397 248.042 295.011C247.685 294.624 247.125 294.431 246.363 294.431C245.355 294.431 244.617 294.703 244.148 295.248C243.68 295.793 243.445 296.692 243.445 297.946V303H241.986V293.367H243.173L243.41 294.686H243.48C243.779 294.211 244.198 293.845 244.737 293.587C245.276 293.323 245.877 293.191 246.539 293.191C247.699 293.191 248.572 293.473 249.158 294.035C249.744 294.592 250.037 295.485 250.037 296.716V303H248.578ZM257.112 303.176C255.688 303.176 254.563 302.742 253.737 301.875C252.917 301.008 252.507 299.804 252.507 298.263C252.507 296.71 252.888 295.477 253.649 294.562C254.417 293.648 255.445 293.191 256.734 293.191C257.941 293.191 258.896 293.59 259.6 294.387C260.303 295.178 260.654 296.224 260.654 297.524V298.447H254.019C254.048 299.578 254.332 300.437 254.871 301.022C255.416 301.608 256.181 301.901 257.165 301.901C258.202 301.901 259.228 301.685 260.241 301.251V302.552C259.726 302.774 259.236 302.933 258.773 303.026C258.316 303.126 257.763 303.176 257.112 303.176ZM256.717 294.413C255.943 294.413 255.325 294.665 254.862 295.169C254.405 295.673 254.136 296.37 254.054 297.261H259.09C259.09 296.341 258.885 295.638 258.475 295.151C258.064 294.659 257.479 294.413 256.717 294.413ZM269.707 301.708H269.628C268.954 302.687 267.946 303.176 266.604 303.176C265.345 303.176 264.363 302.745 263.66 301.884C262.963 301.022 262.614 299.798 262.614 298.21C262.614 296.622 262.966 295.389 263.669 294.51C264.372 293.631 265.351 293.191 266.604 293.191C267.911 293.191 268.913 293.666 269.61 294.615H269.725L269.663 293.921L269.628 293.244V289.324H271.087V303H269.9L269.707 301.708ZM266.789 301.954C267.785 301.954 268.506 301.685 268.951 301.146C269.402 300.601 269.628 299.725 269.628 298.518V298.21C269.628 296.845 269.399 295.872 268.942 295.292C268.491 294.706 267.768 294.413 266.771 294.413C265.916 294.413 265.26 294.747 264.803 295.415C264.352 296.077 264.126 297.015 264.126 298.228C264.126 299.458 264.352 300.387 264.803 301.014C265.254 301.641 265.916 301.954 266.789 301.954ZM273.979 302.068C273.979 301.676 274.066 301.38 274.242 301.181C274.424 300.976 274.682 300.873 275.016 300.873C275.355 300.873 275.619 300.976 275.807 301.181C276 301.38 276.097 301.676 276.097 302.068C276.097 302.449 276 302.742 275.807 302.947C275.613 303.152 275.35 303.255 275.016 303.255C274.717 303.255 274.468 303.164 274.269 302.982C274.075 302.795 273.979 302.49 273.979 302.068Z" fill="black"/>
<path d="M210.797 43.9826L214.341 44.8669L217.008 40.6521L211.938 39.3911C211.333 39.2388 210.693 39.3346 210.158 39.6575C209.623 39.9803 209.238 40.5037 209.086 41.1126C208.935 41.7215 209.03 42.3659 209.351 42.9041C209.672 43.4424 210.192 43.8303 210.797 43.9826ZM257.05 44.6654L245.447 55.1722L231.806 44.5477C231.546 44.3463 231.246 44.2019 230.927 44.1239L229.113 43.6687L226.443 47.8834L229.302 48.5976L244.113 60.1299C244.553 60.4705 245.097 60.6457 245.652 60.6252C246.206 60.6046 246.736 60.3897 247.15 60.0174L260.222 48.1738C260.452 47.9662 260.639 47.7148 260.772 47.4341C260.905 47.1533 260.982 46.8489 260.997 46.5382C261.013 46.2276 260.967 45.917 260.862 45.6243C260.758 45.3315 260.597 45.0626 260.388 44.8329C259.967 44.367 259.379 44.088 258.753 44.0566C258.128 44.0252 257.516 44.2441 257.05 44.6654ZM231.58 33.1226L244.285 41.3088C244.801 41.6408 245.425 41.7593 246.026 41.6393C246.626 41.5194 247.158 41.1703 247.509 40.6652L260.578 21.7185C260.755 21.4628 260.88 21.1744 260.945 20.8699C261.011 20.5654 261.016 20.2508 260.96 19.9444C260.904 19.6379 260.789 19.3456 260.62 19.0843C260.451 18.823 260.233 18.598 259.977 18.4221C259.462 18.0636 258.826 17.9256 258.209 18.0384C257.593 18.1512 257.046 18.5056 256.689 19.0238L244.917 36.0842L232.136 27.851C231.606 27.5097 230.963 27.394 230.348 27.5292C229.735 27.6669 229.201 28.0431 228.863 28.5756L209.372 59.3608C209.144 59.7188 209.016 60.1324 209.001 60.5577C208.987 60.983 209.087 61.4044 209.291 61.7771C209.495 62.1499 209.795 62.4603 210.16 62.6756C210.525 62.8908 210.941 63.0029 211.364 62.9999C211.762 63.001 212.153 62.9007 212.502 62.7086C212.851 62.5165 213.147 62.2388 213.36 61.9011L231.58 33.1226Z" fill="#0166A3"/>
<path d="M262.273 98.1818H207.727V87.2727H218.636V81.8182H185.909C183.016 81.8182 180.241 80.6688 178.195 78.623C176.149 76.5771 175 73.8024 175 70.9091V10.9091C175 8.01582 176.149 5.24105 178.195 3.1952C180.241 1.14935 183.016 0 185.909 0H284.091C286.984 0 289.759 1.14935 291.805 3.1952C293.851 5.24105 295 8.01582 295 10.9091V70.9091C295 73.8024 293.851 76.5771 291.805 78.623C289.759 80.6688 286.984 81.8182 284.091 81.8182H251.364V87.2727H262.273V98.1818ZM185.909 10.9091V70.9091H284.091V10.9091H185.909Z" fill="#0166A3"/>
</svg>
