<svg width="471" height="397" viewBox="0 0 471 397" fill="none" xmlns="http://www.w3.org/2000/svg">
<path d="M0.5 87C0.5 78.7157 7.21573 72 15.5 72H455.5C463.784 72 470.5 78.7157 470.5 87V382C470.5 390.284 463.784 397 455.5 397H15.5C7.21573 397 0.5 390.284 0.5 382V87Z" fill="#F0F8FC"/>
<path d="M74.5156 222L69.3594 205.198H69.2275C69.4131 208.616 69.5059 210.896 69.5059 212.039V222H65.4482V200.584H71.6299L76.6982 216.961H76.7861L82.1621 200.584H88.3438V222H84.1104V211.863C84.1104 211.385 84.1152 210.833 84.125 210.208C84.1445 209.583 84.2129 207.923 84.3301 205.228H84.1982L78.6758 222H74.5156ZM93.749 222V200.584H98.29V222H93.749ZM111.942 222H107.401V204.363H101.586V200.584H117.758V204.363H111.942V222ZM121.054 222V200.584H125.595V222H121.054ZM139.115 209.974H147.611V221.077C146.234 221.526 144.936 221.839 143.715 222.015C142.504 222.2 141.264 222.293 139.994 222.293C136.762 222.293 134.291 221.346 132.582 219.451C130.883 217.547 130.033 214.817 130.033 211.263C130.033 207.806 131.02 205.11 132.992 203.177C134.975 201.243 137.719 200.276 141.225 200.276C143.422 200.276 145.541 200.716 147.582 201.595L146.073 205.228C144.511 204.446 142.885 204.056 141.195 204.056C139.232 204.056 137.66 204.715 136.479 206.033C135.297 207.352 134.706 209.124 134.706 211.351C134.706 213.675 135.18 215.452 136.127 216.683C137.084 217.903 138.471 218.514 140.287 218.514C141.234 218.514 142.196 218.416 143.173 218.221V213.753H139.115V209.974ZM165.834 222L164.281 216.902H156.474L154.921 222H150.028L157.587 200.496H163.139L170.727 222H165.834ZM163.197 213.094C161.762 208.475 160.951 205.862 160.766 205.257C160.59 204.651 160.463 204.173 160.385 203.821C160.062 205.071 159.14 208.162 157.616 213.094H163.197ZM181.698 222H177.157V204.363H171.342V200.584H187.514V204.363H181.698V222ZM203.144 222H190.81V200.584H203.144V204.305H195.351V209.007H202.602V212.728H195.351V218.25H203.144V222ZM223.681 222H219.14V204.363H213.324V200.584H229.496V204.363H223.681V222ZM250.341 222H245.814V212.757H237.333V222H232.792V200.584H237.333V208.978H245.814V200.584H250.341V222ZM268.095 222H255.761V200.584H268.095V204.305H260.302V209.007H267.553V212.728H260.302V218.25H268.095V222ZM288.632 222H284.091V204.363H278.275V200.584H294.447V204.363H288.632V222ZM315.292 222H310.766V212.757H302.284V222H297.743V200.584H302.284V208.978H310.766V200.584H315.292V222ZM325.253 210.091H326.718C328.153 210.091 329.213 209.852 329.896 209.373C330.58 208.895 330.922 208.143 330.922 207.117C330.922 206.102 330.57 205.379 329.867 204.949C329.174 204.52 328.095 204.305 326.63 204.305H325.253V210.091ZM325.253 213.782V222H320.712V200.584H326.952C329.862 200.584 332.016 201.116 333.412 202.181C334.809 203.235 335.507 204.842 335.507 207C335.507 208.26 335.16 209.383 334.467 210.369C333.773 211.346 332.792 212.112 331.522 212.669C334.745 217.483 336.845 220.594 337.821 222H332.782L327.67 213.782H325.253ZM352.851 222H340.517V200.584H352.851V204.305H345.058V209.007H352.309V212.728H345.058V218.25H352.851V222ZM370.443 222L368.891 216.902H361.083L359.53 222H354.638L362.196 200.496H367.748L375.336 222H370.443ZM367.807 213.094C366.371 208.475 365.561 205.862 365.375 205.257C365.199 204.651 365.072 204.173 364.994 203.821C364.672 205.071 363.749 208.162 362.226 213.094H367.807ZM386.308 222H381.767V204.363H375.951V200.584H392.123V204.363H386.308V222ZM408.061 216.053C408.061 217.986 407.362 219.51 405.966 220.623C404.579 221.736 402.646 222.293 400.165 222.293C397.88 222.293 395.858 221.863 394.101 221.004V216.785C395.546 217.43 396.767 217.884 397.763 218.147C398.769 218.411 399.687 218.543 400.517 218.543C401.513 218.543 402.274 218.353 402.802 217.972C403.339 217.591 403.607 217.024 403.607 216.272C403.607 215.853 403.49 215.481 403.256 215.159C403.021 214.827 402.675 214.51 402.216 214.207C401.767 213.904 400.844 213.421 399.447 212.757C398.139 212.142 397.157 211.551 396.503 210.984C395.849 210.418 395.326 209.759 394.936 209.007C394.545 208.255 394.35 207.376 394.35 206.37C394.35 204.476 394.989 202.986 396.269 201.902C397.558 200.818 399.335 200.276 401.601 200.276C402.714 200.276 403.773 200.408 404.779 200.672C405.795 200.936 406.854 201.307 407.958 201.785L406.493 205.315C405.351 204.847 404.403 204.52 403.651 204.334C402.909 204.148 402.177 204.056 401.454 204.056C400.595 204.056 399.936 204.256 399.477 204.656C399.018 205.057 398.788 205.579 398.788 206.224C398.788 206.624 398.881 206.976 399.066 207.278C399.252 207.571 399.545 207.859 399.945 208.143C400.355 208.416 401.317 208.914 402.831 209.637C404.833 210.594 406.205 211.556 406.947 212.522C407.689 213.479 408.061 214.656 408.061 216.053Z" fill="black"/>
<path d="M42.6436 260H41.167L38.5742 251.396C38.4512 251.015 38.3135 250.534 38.1611 249.954C38.0088 249.374 37.9297 249.025 37.9238 248.908C37.7949 249.682 37.5898 250.528 37.3086 251.448L34.7949 260H33.3184L29.8994 247.15H31.4814L33.5117 255.087C33.793 256.2 33.998 257.208 34.127 258.11C34.2852 257.038 34.5195 255.989 34.8301 254.964L37.1328 247.15H38.7148L41.1318 255.034C41.4131 255.942 41.6504 256.968 41.8438 258.11C41.9551 257.278 42.166 256.265 42.4766 255.069L44.498 247.15H46.0801L42.6436 260ZM51.9424 260.176C50.5186 260.176 49.3936 259.742 48.5674 258.875C47.7471 258.008 47.3369 256.804 47.3369 255.263C47.3369 253.71 47.7178 252.477 48.4795 251.562C49.2471 250.648 50.2754 250.191 51.5645 250.191C52.7715 250.191 53.7266 250.59 54.4297 251.387C55.1328 252.178 55.4844 253.224 55.4844 254.524V255.447H48.8486C48.8779 256.578 49.1621 257.437 49.7012 258.022C50.2461 258.608 51.0107 258.901 51.9951 258.901C53.0322 258.901 54.0576 258.685 55.0713 258.251V259.552C54.5557 259.774 54.0664 259.933 53.6035 260.026C53.1465 260.126 52.5928 260.176 51.9424 260.176ZM51.5469 251.413C50.7734 251.413 50.1553 251.665 49.6924 252.169C49.2354 252.673 48.9658 253.37 48.8838 254.261H53.9199C53.9199 253.341 53.7148 252.638 53.3047 252.151C52.8945 251.659 52.3086 251.413 51.5469 251.413ZM59.1494 247.15L59.2812 247.344C59.1289 247.93 58.9092 248.612 58.6221 249.392C58.335 250.165 58.0361 250.886 57.7256 251.554H56.6533C57.0635 249.884 57.3623 248.416 57.5498 247.15H59.1494ZM62.498 260H61.0391V246.324H62.498V260ZM67.0508 260H65.5918V246.324H67.0508V260ZM82.6865 260L80.9199 254.349C80.8086 254.003 80.6006 253.218 80.2959 251.993H80.2256C79.9912 253.019 79.7861 253.81 79.6104 254.366L77.791 260H76.1035L73.4756 250.367H75.0049C75.626 252.787 76.0977 254.63 76.4199 255.896C76.748 257.161 76.9355 258.014 76.9824 258.453H77.0527C77.1172 258.119 77.2197 257.688 77.3604 257.161C77.5068 256.628 77.6328 256.206 77.7383 255.896L79.5049 250.367H81.0869L82.8096 255.896C83.1377 256.903 83.3604 257.75 83.4775 258.436H83.5479C83.5713 258.225 83.6328 257.899 83.7324 257.46C83.8379 257.021 84.4502 254.656 85.5693 250.367H87.0811L84.418 260H82.6865ZM97.1445 255.175C97.1445 256.745 96.749 257.973 95.958 258.857C95.167 259.736 94.0742 260.176 92.6797 260.176C91.8184 260.176 91.0537 259.974 90.3857 259.569C89.7178 259.165 89.2021 258.585 88.8389 257.829C88.4756 257.073 88.2939 256.188 88.2939 255.175C88.2939 253.604 88.6865 252.383 89.4717 251.51C90.2568 250.631 91.3467 250.191 92.7412 250.191C94.0889 250.191 95.1582 250.64 95.9492 251.536C96.7461 252.433 97.1445 253.646 97.1445 255.175ZM89.8057 255.175C89.8057 256.405 90.0518 257.343 90.5439 257.987C91.0361 258.632 91.7598 258.954 92.7148 258.954C93.6699 258.954 94.3936 258.635 94.8857 257.996C95.3838 257.352 95.6328 256.411 95.6328 255.175C95.6328 253.95 95.3838 253.021 94.8857 252.389C94.3936 251.75 93.6641 251.431 92.6973 251.431C91.7422 251.431 91.0215 251.744 90.5352 252.371C90.0488 252.998 89.8057 253.933 89.8057 255.175ZM104.105 250.191C104.533 250.191 104.917 250.227 105.257 250.297L105.055 251.65C104.656 251.562 104.305 251.519 104 251.519C103.221 251.519 102.553 251.835 101.996 252.468C101.445 253.101 101.17 253.889 101.17 254.832V260H99.7109V250.367H100.915L101.082 252.151H101.152C101.51 251.524 101.94 251.041 102.444 250.701C102.948 250.361 103.502 250.191 104.105 250.191ZM108.5 255.069C108.752 254.712 109.136 254.243 109.651 253.663L112.763 250.367H114.494L110.592 254.472L114.767 260H113L109.599 255.447L108.5 256.396V260H107.059V246.324H108.5V253.575C108.5 253.897 108.477 254.396 108.43 255.069H108.5ZM125.041 260.176C123.646 260.176 122.565 259.748 121.798 258.893C121.036 258.031 120.655 256.815 120.655 255.245C120.655 253.634 121.042 252.389 121.815 251.51C122.595 250.631 123.702 250.191 125.138 250.191C125.601 250.191 126.063 250.241 126.526 250.341C126.989 250.44 127.353 250.558 127.616 250.692L127.168 251.932C126.846 251.803 126.494 251.697 126.113 251.615C125.732 251.527 125.396 251.483 125.103 251.483C123.146 251.483 122.167 252.731 122.167 255.228C122.167 256.411 122.404 257.319 122.879 257.952C123.359 258.585 124.068 258.901 125.006 258.901C125.809 258.901 126.632 258.729 127.476 258.383V259.675C126.831 260.009 126.02 260.176 125.041 260.176ZM131.229 260H129.77V246.324H131.229V260ZM142.637 255.175C142.637 256.745 142.241 257.973 141.45 258.857C140.659 259.736 139.566 260.176 138.172 260.176C137.311 260.176 136.546 259.974 135.878 259.569C135.21 259.165 134.694 258.585 134.331 257.829C133.968 257.073 133.786 256.188 133.786 255.175C133.786 253.604 134.179 252.383 134.964 251.51C135.749 250.631 136.839 250.191 138.233 250.191C139.581 250.191 140.65 250.64 141.441 251.536C142.238 252.433 142.637 253.646 142.637 255.175ZM135.298 255.175C135.298 256.405 135.544 257.343 136.036 257.987C136.528 258.632 137.252 258.954 138.207 258.954C139.162 258.954 139.886 258.635 140.378 257.996C140.876 257.352 141.125 256.411 141.125 255.175C141.125 253.95 140.876 253.021 140.378 252.389C139.886 251.75 139.156 251.431 138.189 251.431C137.234 251.431 136.514 251.744 136.027 252.371C135.541 252.998 135.298 253.933 135.298 255.175ZM151.417 257.372C151.417 258.269 151.083 258.96 150.415 259.446C149.747 259.933 148.81 260.176 147.603 260.176C146.325 260.176 145.329 259.974 144.614 259.569V258.216C145.077 258.45 145.572 258.635 146.1 258.77C146.633 258.904 147.146 258.972 147.638 258.972C148.399 258.972 148.985 258.852 149.396 258.611C149.806 258.365 150.011 257.993 150.011 257.495C150.011 257.12 149.847 256.801 149.519 256.537C149.196 256.268 148.563 255.951 147.62 255.588C146.724 255.254 146.085 254.964 145.704 254.718C145.329 254.466 145.048 254.182 144.86 253.865C144.679 253.549 144.588 253.171 144.588 252.731C144.588 251.946 144.907 251.328 145.546 250.877C146.185 250.42 147.061 250.191 148.174 250.191C149.211 250.191 150.225 250.402 151.215 250.824L150.696 252.011C149.729 251.612 148.854 251.413 148.068 251.413C147.377 251.413 146.855 251.521 146.504 251.738C146.152 251.955 145.977 252.254 145.977 252.635C145.977 252.893 146.041 253.112 146.17 253.294C146.305 253.476 146.519 253.648 146.812 253.812C147.104 253.977 147.667 254.214 148.499 254.524C149.642 254.94 150.412 255.359 150.811 255.781C151.215 256.203 151.417 256.733 151.417 257.372ZM157.868 260.176C156.444 260.176 155.319 259.742 154.493 258.875C153.673 258.008 153.263 256.804 153.263 255.263C153.263 253.71 153.644 252.477 154.405 251.562C155.173 250.648 156.201 250.191 157.49 250.191C158.697 250.191 159.652 250.59 160.355 251.387C161.059 252.178 161.41 253.224 161.41 254.524V255.447H154.774C154.804 256.578 155.088 257.437 155.627 258.022C156.172 258.608 156.937 258.901 157.921 258.901C158.958 258.901 159.983 258.685 160.997 258.251V259.552C160.481 259.774 159.992 259.933 159.529 260.026C159.072 260.126 158.519 260.176 157.868 260.176ZM157.473 251.413C156.699 251.413 156.081 251.665 155.618 252.169C155.161 252.673 154.892 253.37 154.81 254.261H159.846C159.846 253.341 159.641 252.638 159.23 252.151C158.82 251.659 158.234 251.413 157.473 251.413ZM165.365 260H163.906V246.324H165.365V260ZM166.93 250.367H168.494L170.604 255.86C171.066 257.114 171.354 258.02 171.465 258.576H171.535C171.611 258.277 171.77 257.768 172.01 257.047C172.256 256.32 173.053 254.094 174.4 250.367H175.965L171.825 261.336C171.415 262.42 170.935 263.188 170.384 263.639C169.839 264.096 169.168 264.324 168.371 264.324C167.926 264.324 167.486 264.274 167.053 264.175V263.006C167.375 263.076 167.735 263.111 168.134 263.111C169.136 263.111 169.851 262.549 170.278 261.424L170.814 260.053L166.93 250.367ZM190.071 260L188.305 254.349C188.193 254.003 187.985 253.218 187.681 251.993H187.61C187.376 253.019 187.171 253.81 186.995 254.366L185.176 260H183.488L180.86 250.367H182.39C183.011 252.787 183.482 254.63 183.805 255.896C184.133 257.161 184.32 258.014 184.367 258.453H184.438C184.502 258.119 184.604 257.688 184.745 257.161C184.892 256.628 185.018 256.206 185.123 255.896L186.89 250.367H188.472L190.194 255.896C190.522 256.903 190.745 257.75 190.862 258.436H190.933C190.956 258.225 191.018 257.899 191.117 257.46C191.223 257.021 191.835 254.656 192.954 250.367H194.466L191.803 260H190.071ZM197.674 260H196.215V250.367H197.674V260ZM196.092 247.757C196.092 247.423 196.174 247.18 196.338 247.027C196.502 246.869 196.707 246.79 196.953 246.79C197.188 246.79 197.39 246.869 197.56 247.027C197.729 247.186 197.814 247.429 197.814 247.757C197.814 248.085 197.729 248.331 197.56 248.495C197.39 248.653 197.188 248.732 196.953 248.732C196.707 248.732 196.502 248.653 196.338 248.495C196.174 248.331 196.092 248.085 196.092 247.757ZM203.879 258.972C204.137 258.972 204.386 258.954 204.626 258.919C204.866 258.878 205.057 258.837 205.197 258.796V259.912C205.039 259.988 204.805 260.05 204.494 260.097C204.189 260.149 203.914 260.176 203.668 260.176C201.805 260.176 200.873 259.194 200.873 257.231V251.501H199.493V250.798L200.873 250.191L201.488 248.135H202.332V250.367H205.127V251.501H202.332V257.17C202.332 257.75 202.47 258.195 202.745 258.506C203.021 258.816 203.398 258.972 203.879 258.972ZM213.723 260V253.769C213.723 252.983 213.544 252.397 213.187 252.011C212.829 251.624 212.27 251.431 211.508 251.431C210.494 251.431 209.753 251.706 209.284 252.257C208.821 252.808 208.59 253.71 208.59 254.964V260H207.131V246.324H208.59V250.464C208.59 250.962 208.566 251.375 208.52 251.703H208.607C208.895 251.24 209.302 250.877 209.829 250.613C210.362 250.344 210.969 250.209 211.648 250.209C212.826 250.209 213.708 250.49 214.294 251.053C214.886 251.609 215.182 252.497 215.182 253.716V260H213.723ZM221.334 250.367H222.898L225.008 255.86C225.471 257.114 225.758 258.02 225.869 258.576H225.939C226.016 258.277 226.174 257.768 226.414 257.047C226.66 256.32 227.457 254.094 228.805 250.367H230.369L226.229 261.336C225.819 262.42 225.339 263.188 224.788 263.639C224.243 264.096 223.572 264.324 222.775 264.324C222.33 264.324 221.891 264.274 221.457 264.175V263.006C221.779 263.076 222.14 263.111 222.538 263.111C223.54 263.111 224.255 262.549 224.683 261.424L225.219 260.053L221.334 250.367ZM240.248 255.175C240.248 256.745 239.853 257.973 239.062 258.857C238.271 259.736 237.178 260.176 235.783 260.176C234.922 260.176 234.157 259.974 233.489 259.569C232.821 259.165 232.306 258.585 231.942 257.829C231.579 257.073 231.397 256.188 231.397 255.175C231.397 253.604 231.79 252.383 232.575 251.51C233.36 250.631 234.45 250.191 235.845 250.191C237.192 250.191 238.262 250.64 239.053 251.536C239.85 252.433 240.248 253.646 240.248 255.175ZM232.909 255.175C232.909 256.405 233.155 257.343 233.647 257.987C234.14 258.632 234.863 258.954 235.818 258.954C236.773 258.954 237.497 258.635 237.989 257.996C238.487 257.352 238.736 256.411 238.736 255.175C238.736 253.95 238.487 253.021 237.989 252.389C237.497 251.75 236.768 251.431 235.801 251.431C234.846 251.431 234.125 251.744 233.639 252.371C233.152 252.998 232.909 253.933 232.909 255.175ZM244.186 250.367V256.616C244.186 257.401 244.364 257.987 244.722 258.374C245.079 258.761 245.639 258.954 246.4 258.954C247.408 258.954 248.144 258.679 248.606 258.128C249.075 257.577 249.31 256.678 249.31 255.43V250.367H250.769V260H249.564L249.354 258.708H249.274C248.976 259.183 248.56 259.546 248.026 259.798C247.499 260.05 246.896 260.176 246.216 260.176C245.044 260.176 244.165 259.897 243.579 259.341C242.999 258.784 242.709 257.894 242.709 256.669V250.367H244.186ZM261.658 258.972C261.916 258.972 262.165 258.954 262.405 258.919C262.646 258.878 262.836 258.837 262.977 258.796V259.912C262.818 259.988 262.584 260.05 262.273 260.097C261.969 260.149 261.693 260.176 261.447 260.176C259.584 260.176 258.652 259.194 258.652 257.231V251.501H257.272V250.798L258.652 250.191L259.268 248.135H260.111V250.367H262.906V251.501H260.111V257.17C260.111 257.75 260.249 258.195 260.524 258.506C260.8 258.816 261.178 258.972 261.658 258.972ZM273.225 255.175C273.225 256.745 272.829 257.973 272.038 258.857C271.247 259.736 270.154 260.176 268.76 260.176C267.898 260.176 267.134 259.974 266.466 259.569C265.798 259.165 265.282 258.585 264.919 257.829C264.556 257.073 264.374 256.188 264.374 255.175C264.374 253.604 264.767 252.383 265.552 251.51C266.337 250.631 267.427 250.191 268.821 250.191C270.169 250.191 271.238 250.64 272.029 251.536C272.826 252.433 273.225 253.646 273.225 255.175ZM265.886 255.175C265.886 256.405 266.132 257.343 266.624 257.987C267.116 258.632 267.84 258.954 268.795 258.954C269.75 258.954 270.474 258.635 270.966 257.996C271.464 257.352 271.713 256.411 271.713 255.175C271.713 253.95 271.464 253.021 270.966 252.389C270.474 251.75 269.744 251.431 268.777 251.431C267.822 251.431 267.102 251.744 266.615 252.371C266.129 252.998 265.886 253.933 265.886 255.175ZM287.023 258.708H286.944C286.271 259.687 285.263 260.176 283.921 260.176C282.661 260.176 281.68 259.745 280.977 258.884C280.279 258.022 279.931 256.798 279.931 255.21C279.931 253.622 280.282 252.389 280.985 251.51C281.688 250.631 282.667 250.191 283.921 250.191C285.228 250.191 286.229 250.666 286.927 251.615H287.041L286.979 250.921L286.944 250.244V246.324H288.403V260H287.217L287.023 258.708ZM284.105 258.954C285.102 258.954 285.822 258.685 286.268 258.146C286.719 257.601 286.944 256.725 286.944 255.518V255.21C286.944 253.845 286.716 252.872 286.259 252.292C285.808 251.706 285.084 251.413 284.088 251.413C283.232 251.413 282.576 251.747 282.119 252.415C281.668 253.077 281.442 254.015 281.442 255.228C281.442 256.458 281.668 257.387 282.119 258.014C282.57 258.641 283.232 258.954 284.105 258.954ZM295.575 260.176C294.151 260.176 293.026 259.742 292.2 258.875C291.38 258.008 290.97 256.804 290.97 255.263C290.97 253.71 291.351 252.477 292.112 251.562C292.88 250.648 293.908 250.191 295.197 250.191C296.404 250.191 297.359 250.59 298.062 251.387C298.766 252.178 299.117 253.224 299.117 254.524V255.447H292.481C292.511 256.578 292.795 257.437 293.334 258.022C293.879 258.608 294.644 258.901 295.628 258.901C296.665 258.901 297.69 258.685 298.704 258.251V259.552C298.188 259.774 297.699 259.933 297.236 260.026C296.779 260.126 296.226 260.176 295.575 260.176ZM295.18 251.413C294.406 251.413 293.788 251.665 293.325 252.169C292.868 252.673 292.599 253.37 292.517 254.261H297.553C297.553 253.341 297.348 252.638 296.938 252.151C296.527 251.659 295.941 251.413 295.18 251.413ZM304.725 258.972C304.982 258.972 305.231 258.954 305.472 258.919C305.712 258.878 305.902 258.837 306.043 258.796V259.912C305.885 259.988 305.65 260.05 305.34 260.097C305.035 260.149 304.76 260.176 304.514 260.176C302.65 260.176 301.719 259.194 301.719 257.231V251.501H300.339V250.798L301.719 250.191L302.334 248.135H303.178V250.367H305.973V251.501H303.178V257.17C303.178 257.75 303.315 258.195 303.591 258.506C303.866 258.816 304.244 258.972 304.725 258.972ZM312.046 260.176C310.622 260.176 309.497 259.742 308.671 258.875C307.851 258.008 307.44 256.804 307.44 255.263C307.44 253.71 307.821 252.477 308.583 251.562C309.351 250.648 310.379 250.191 311.668 250.191C312.875 250.191 313.83 250.59 314.533 251.387C315.236 252.178 315.588 253.224 315.588 254.524V255.447H308.952C308.981 256.578 309.266 257.437 309.805 258.022C310.35 258.608 311.114 258.901 312.099 258.901C313.136 258.901 314.161 258.685 315.175 258.251V259.552C314.659 259.774 314.17 259.933 313.707 260.026C313.25 260.126 312.696 260.176 312.046 260.176ZM311.65 251.413C310.877 251.413 310.259 251.665 309.796 252.169C309.339 252.673 309.069 253.37 308.987 254.261H314.023C314.023 253.341 313.818 252.638 313.408 252.151C312.998 251.659 312.412 251.413 311.65 251.413ZM322.479 250.191C322.906 250.191 323.29 250.227 323.63 250.297L323.428 251.65C323.029 251.562 322.678 251.519 322.373 251.519C321.594 251.519 320.926 251.835 320.369 252.468C319.818 253.101 319.543 253.889 319.543 254.832V260H318.084V250.367H319.288L319.455 252.151H319.525C319.883 251.524 320.313 251.041 320.817 250.701C321.321 250.361 321.875 250.191 322.479 250.191ZM337.71 260V253.733C337.71 252.966 337.546 252.392 337.218 252.011C336.89 251.624 336.38 251.431 335.688 251.431C334.78 251.431 334.109 251.691 333.676 252.213C333.242 252.734 333.025 253.537 333.025 254.621V260H331.566V253.733C331.566 252.966 331.402 252.392 331.074 252.011C330.746 251.624 330.233 251.431 329.536 251.431C328.622 251.431 327.951 251.706 327.523 252.257C327.102 252.802 326.891 253.698 326.891 254.946V260H325.432V250.367H326.618L326.855 251.686H326.926C327.201 251.217 327.588 250.851 328.086 250.587C328.59 250.323 329.152 250.191 329.773 250.191C331.279 250.191 332.264 250.736 332.727 251.826H332.797C333.084 251.322 333.5 250.924 334.045 250.631C334.59 250.338 335.211 250.191 335.908 250.191C336.998 250.191 337.812 250.473 338.352 251.035C338.896 251.592 339.169 252.485 339.169 253.716V260H337.71ZM343.643 260H342.184V250.367H343.643V260ZM342.061 247.757C342.061 247.423 342.143 247.18 342.307 247.027C342.471 246.869 342.676 246.79 342.922 246.79C343.156 246.79 343.358 246.869 343.528 247.027C343.698 247.186 343.783 247.429 343.783 247.757C343.783 248.085 343.698 248.331 343.528 248.495C343.358 248.653 343.156 248.732 342.922 248.732C342.676 248.732 342.471 248.653 342.307 248.495C342.143 248.331 342.061 248.085 342.061 247.757ZM353.328 260V253.769C353.328 252.983 353.149 252.397 352.792 252.011C352.435 251.624 351.875 251.431 351.113 251.431C350.105 251.431 349.367 251.703 348.898 252.248C348.43 252.793 348.195 253.692 348.195 254.946V260H346.736V250.367H347.923L348.16 251.686H348.23C348.529 251.211 348.948 250.845 349.487 250.587C350.026 250.323 350.627 250.191 351.289 250.191C352.449 250.191 353.322 250.473 353.908 251.035C354.494 251.592 354.787 252.485 354.787 253.716V260H353.328ZM361.862 260.176C360.438 260.176 359.313 259.742 358.487 258.875C357.667 258.008 357.257 256.804 357.257 255.263C357.257 253.71 357.638 252.477 358.399 251.562C359.167 250.648 360.195 250.191 361.484 250.191C362.691 250.191 363.646 250.59 364.35 251.387C365.053 252.178 365.404 253.224 365.404 254.524V255.447H358.769C358.798 256.578 359.082 257.437 359.621 258.022C360.166 258.608 360.931 258.901 361.915 258.901C362.952 258.901 363.978 258.685 364.991 258.251V259.552C364.476 259.774 363.986 259.933 363.523 260.026C363.066 260.126 362.513 260.176 361.862 260.176ZM361.467 251.413C360.693 251.413 360.075 251.665 359.612 252.169C359.155 252.673 358.886 253.37 358.804 254.261H363.84C363.84 253.341 363.635 252.638 363.225 252.151C362.814 251.659 362.229 251.413 361.467 251.413ZM375.688 258.972C375.945 258.972 376.194 258.954 376.435 258.919C376.675 258.878 376.865 258.837 377.006 258.796V259.912C376.848 259.988 376.613 260.05 376.303 260.097C375.998 260.149 375.723 260.176 375.477 260.176C373.613 260.176 372.682 259.194 372.682 257.231V251.501H371.302V250.798L372.682 250.191L373.297 248.135H374.141V250.367H376.936V251.501H374.141V257.17C374.141 257.75 374.278 258.195 374.554 258.506C374.829 258.816 375.207 258.972 375.688 258.972ZM385.531 260V253.769C385.531 252.983 385.353 252.397 384.995 252.011C384.638 251.624 384.078 251.431 383.316 251.431C382.303 251.431 381.562 251.706 381.093 252.257C380.63 252.808 380.398 253.71 380.398 254.964V260H378.939V246.324H380.398V250.464C380.398 250.962 380.375 251.375 380.328 251.703H380.416C380.703 251.24 381.11 250.877 381.638 250.613C382.171 250.344 382.777 250.209 383.457 250.209C384.635 250.209 385.517 250.49 386.103 251.053C386.694 251.609 386.99 252.497 386.99 253.716V260H385.531ZM394.065 260.176C392.642 260.176 391.517 259.742 390.69 258.875C389.87 258.008 389.46 256.804 389.46 255.263C389.46 253.71 389.841 252.477 390.603 251.562C391.37 250.648 392.398 250.191 393.688 250.191C394.895 250.191 395.85 250.59 396.553 251.387C397.256 252.178 397.607 253.224 397.607 254.524V255.447H390.972C391.001 256.578 391.285 257.437 391.824 258.022C392.369 258.608 393.134 258.901 394.118 258.901C395.155 258.901 396.181 258.685 397.194 258.251V259.552C396.679 259.774 396.189 259.933 395.727 260.026C395.27 260.126 394.716 260.176 394.065 260.176ZM393.67 251.413C392.896 251.413 392.278 251.665 391.815 252.169C391.358 252.673 391.089 253.37 391.007 254.261H396.043C396.043 253.341 395.838 252.638 395.428 252.151C395.018 251.659 394.432 251.413 393.67 251.413ZM409.262 250.209C410.527 250.209 411.509 250.643 412.206 251.51C412.909 252.371 413.261 253.593 413.261 255.175C413.261 256.757 412.906 257.987 412.197 258.866C411.494 259.739 410.516 260.176 409.262 260.176C408.635 260.176 408.061 260.062 407.539 259.833C407.023 259.599 406.59 259.241 406.238 258.761H406.133L405.825 260H404.779V246.324H406.238V249.646C406.238 250.391 406.215 251.059 406.168 251.65H406.238C406.918 250.689 407.926 250.209 409.262 250.209ZM409.051 251.431C408.055 251.431 407.337 251.718 406.897 252.292C406.458 252.86 406.238 253.821 406.238 255.175C406.238 256.528 406.464 257.498 406.915 258.084C407.366 258.664 408.09 258.954 409.086 258.954C409.982 258.954 410.65 258.629 411.09 257.979C411.529 257.322 411.749 256.382 411.749 255.157C411.749 253.903 411.529 252.969 411.09 252.354C410.65 251.738 409.971 251.431 409.051 251.431ZM419.888 260.176C418.464 260.176 417.339 259.742 416.513 258.875C415.692 258.008 415.282 256.804 415.282 255.263C415.282 253.71 415.663 252.477 416.425 251.562C417.192 250.648 418.221 250.191 419.51 250.191C420.717 250.191 421.672 250.59 422.375 251.387C423.078 252.178 423.43 253.224 423.43 254.524V255.447H416.794C416.823 256.578 417.107 257.437 417.646 258.022C418.191 258.608 418.956 258.901 419.94 258.901C420.978 258.901 422.003 258.685 423.017 258.251V259.552C422.501 259.774 422.012 259.933 421.549 260.026C421.092 260.126 420.538 260.176 419.888 260.176ZM419.492 251.413C418.719 251.413 418.101 251.665 417.638 252.169C417.181 252.673 416.911 253.37 416.829 254.261H421.865C421.865 253.341 421.66 252.638 421.25 252.151C420.84 251.659 420.254 251.413 419.492 251.413ZM432.14 257.372C432.14 258.269 431.806 258.96 431.138 259.446C430.47 259.933 429.532 260.176 428.325 260.176C427.048 260.176 426.052 259.974 425.337 259.569V258.216C425.8 258.45 426.295 258.635 426.822 258.77C427.355 258.904 427.868 258.972 428.36 258.972C429.122 258.972 429.708 258.852 430.118 258.611C430.528 258.365 430.733 257.993 430.733 257.495C430.733 257.12 430.569 256.801 430.241 256.537C429.919 256.268 429.286 255.951 428.343 255.588C427.446 255.254 426.808 254.964 426.427 254.718C426.052 254.466 425.771 254.182 425.583 253.865C425.401 253.549 425.311 253.171 425.311 252.731C425.311 251.946 425.63 251.328 426.269 250.877C426.907 250.42 427.783 250.191 428.896 250.191C429.934 250.191 430.947 250.402 431.938 250.824L431.419 252.011C430.452 251.612 429.576 251.413 428.791 251.413C428.1 251.413 427.578 251.521 427.227 251.738C426.875 251.955 426.699 252.254 426.699 252.635C426.699 252.893 426.764 253.112 426.893 253.294C427.027 253.476 427.241 253.648 427.534 253.812C427.827 253.977 428.39 254.214 429.222 254.524C430.364 254.94 431.135 255.359 431.533 255.781C431.938 256.203 432.14 256.733 432.14 257.372ZM437.633 258.972C437.891 258.972 438.14 258.954 438.38 258.919C438.62 258.878 438.811 258.837 438.951 258.796V259.912C438.793 259.988 438.559 260.05 438.248 260.097C437.943 260.149 437.668 260.176 437.422 260.176C435.559 260.176 434.627 259.194 434.627 257.231V251.501H433.247V250.798L434.627 250.191L435.242 248.135H436.086V250.367H438.881V251.501H436.086V257.17C436.086 257.75 436.224 258.195 436.499 258.506C436.774 258.816 437.152 258.972 437.633 258.972ZM56.5742 285.176C55.1797 285.176 54.0986 284.748 53.3311 283.893C52.5693 283.031 52.1885 281.815 52.1885 280.245C52.1885 278.634 52.5752 277.389 53.3486 276.51C54.1279 275.631 55.2354 275.191 56.6709 275.191C57.1338 275.191 57.5967 275.241 58.0596 275.341C58.5225 275.44 58.8857 275.558 59.1494 275.692L58.7012 276.932C58.3789 276.803 58.0273 276.697 57.6465 276.615C57.2656 276.527 56.9287 276.483 56.6357 276.483C54.6787 276.483 53.7002 277.731 53.7002 280.228C53.7002 281.411 53.9375 282.319 54.4121 282.952C54.8926 283.585 55.6016 283.901 56.5391 283.901C57.3418 283.901 58.165 283.729 59.0088 283.383V284.675C58.3643 285.009 57.5527 285.176 56.5742 285.176ZM69.6172 280.175C69.6172 281.745 69.2217 282.973 68.4307 283.857C67.6396 284.736 66.5469 285.176 65.1523 285.176C64.291 285.176 63.5264 284.974 62.8584 284.569C62.1904 284.165 61.6748 283.585 61.3115 282.829C60.9482 282.073 60.7666 281.188 60.7666 280.175C60.7666 278.604 61.1592 277.383 61.9443 276.51C62.7295 275.631 63.8193 275.191 65.2139 275.191C66.5615 275.191 67.6309 275.64 68.4219 276.536C69.2188 277.433 69.6172 278.646 69.6172 280.175ZM62.2783 280.175C62.2783 281.405 62.5244 282.343 63.0166 282.987C63.5088 283.632 64.2324 283.954 65.1875 283.954C66.1426 283.954 66.8662 283.635 67.3584 282.996C67.8564 282.352 68.1055 281.411 68.1055 280.175C68.1055 278.95 67.8564 278.021 67.3584 277.389C66.8662 276.75 66.1367 276.431 65.1699 276.431C64.2148 276.431 63.4941 276.744 63.0078 277.371C62.5215 277.998 62.2783 278.933 62.2783 280.175ZM73.5547 275.367V281.616C73.5547 282.401 73.7334 282.987 74.0908 283.374C74.4482 283.761 75.0078 283.954 75.7695 283.954C76.7773 283.954 77.5127 283.679 77.9756 283.128C78.4443 282.577 78.6787 281.678 78.6787 280.43V275.367H80.1377V285H78.9336L78.7227 283.708H78.6436C78.3447 284.183 77.9287 284.546 77.3955 284.798C76.8682 285.05 76.2646 285.176 75.585 285.176C74.4131 285.176 73.5342 284.897 72.9482 284.341C72.3682 283.784 72.0781 282.894 72.0781 281.669V275.367H73.5547ZM87.6348 275.191C88.0625 275.191 88.4463 275.227 88.7861 275.297L88.584 276.65C88.1855 276.562 87.834 276.519 87.5293 276.519C86.75 276.519 86.082 276.835 85.5254 277.468C84.9746 278.101 84.6992 278.889 84.6992 279.832V285H83.2402V275.367H84.4443L84.6113 277.151H84.6816C85.0391 276.524 85.4697 276.041 85.9736 275.701C86.4775 275.361 87.0312 275.191 87.6348 275.191ZM96.8018 282.372C96.8018 283.269 96.4678 283.96 95.7998 284.446C95.1318 284.933 94.1943 285.176 92.9873 285.176C91.71 285.176 90.7139 284.974 89.999 284.569V283.216C90.4619 283.45 90.957 283.635 91.4844 283.77C92.0176 283.904 92.5303 283.972 93.0225 283.972C93.7842 283.972 94.3701 283.852 94.7803 283.611C95.1904 283.365 95.3955 282.993 95.3955 282.495C95.3955 282.12 95.2314 281.801 94.9033 281.537C94.5811 281.268 93.9482 280.951 93.0049 280.588C92.1084 280.254 91.4697 279.964 91.0889 279.718C90.7139 279.466 90.4326 279.182 90.2451 278.865C90.0635 278.549 89.9727 278.171 89.9727 277.731C89.9727 276.946 90.292 276.328 90.9307 275.877C91.5693 275.42 92.4453 275.191 93.5586 275.191C94.5957 275.191 95.6094 275.402 96.5996 275.824L96.0811 277.011C95.1143 276.612 94.2383 276.413 93.4531 276.413C92.7617 276.413 92.2402 276.521 91.8887 276.738C91.5371 276.955 91.3613 277.254 91.3613 277.635C91.3613 277.893 91.4258 278.112 91.5547 278.294C91.6895 278.476 91.9033 278.648 92.1963 278.812C92.4893 278.977 93.0518 279.214 93.8838 279.524C95.0264 279.94 95.7969 280.359 96.1953 280.781C96.5996 281.203 96.8018 281.733 96.8018 282.372ZM103.253 285.176C101.829 285.176 100.704 284.742 99.8779 283.875C99.0576 283.008 98.6475 281.804 98.6475 280.263C98.6475 278.71 99.0283 277.477 99.79 276.562C100.558 275.648 101.586 275.191 102.875 275.191C104.082 275.191 105.037 275.59 105.74 276.387C106.443 277.178 106.795 278.224 106.795 279.524V280.447H100.159C100.188 281.578 100.473 282.437 101.012 283.022C101.557 283.608 102.321 283.901 103.306 283.901C104.343 283.901 105.368 283.685 106.382 283.251V284.552C105.866 284.774 105.377 284.933 104.914 285.026C104.457 285.126 103.903 285.176 103.253 285.176ZM102.857 276.413C102.084 276.413 101.466 276.665 101.003 277.169C100.546 277.673 100.276 278.37 100.194 279.261H105.23C105.23 278.341 105.025 277.638 104.615 277.151C104.205 276.659 103.619 276.413 102.857 276.413ZM122.281 280.175C122.281 281.745 121.886 282.973 121.095 283.857C120.304 284.736 119.211 285.176 117.816 285.176C116.955 285.176 116.19 284.974 115.522 284.569C114.854 284.165 114.339 283.585 113.976 282.829C113.612 282.073 113.431 281.188 113.431 280.175C113.431 278.604 113.823 277.383 114.608 276.51C115.394 275.631 116.483 275.191 117.878 275.191C119.226 275.191 120.295 275.64 121.086 276.536C121.883 277.433 122.281 278.646 122.281 280.175ZM114.942 280.175C114.942 281.405 115.188 282.343 115.681 282.987C116.173 283.632 116.896 283.954 117.852 283.954C118.807 283.954 119.53 283.635 120.022 282.996C120.521 282.352 120.77 281.411 120.77 280.175C120.77 278.95 120.521 278.021 120.022 277.389C119.53 276.75 118.801 276.431 117.834 276.431C116.879 276.431 116.158 276.744 115.672 277.371C115.186 277.998 114.942 278.933 114.942 280.175ZM129.189 276.501H126.737V285H125.278V276.501H123.556V275.842L125.278 275.314V274.778C125.278 272.411 126.312 271.228 128.381 271.228C128.891 271.228 129.488 271.33 130.174 271.535L129.796 272.704C129.233 272.522 128.753 272.432 128.354 272.432C127.804 272.432 127.396 272.616 127.133 272.985C126.869 273.349 126.737 273.935 126.737 274.743V275.367H129.189V276.501ZM141.547 285L141.257 283.629H141.187C140.706 284.232 140.226 284.643 139.745 284.859C139.271 285.07 138.676 285.176 137.961 285.176C137.006 285.176 136.256 284.93 135.711 284.438C135.172 283.945 134.902 283.245 134.902 282.337C134.902 280.392 136.458 279.372 139.569 279.278L141.204 279.226V278.628C141.204 277.872 141.04 277.315 140.712 276.958C140.39 276.595 139.871 276.413 139.156 276.413C138.354 276.413 137.445 276.659 136.432 277.151L135.983 276.035C136.458 275.777 136.977 275.575 137.539 275.429C138.107 275.282 138.676 275.209 139.244 275.209C140.393 275.209 141.242 275.464 141.793 275.974C142.35 276.483 142.628 277.301 142.628 278.426V285H141.547ZM138.251 283.972C139.159 283.972 139.871 283.723 140.387 283.225C140.908 282.727 141.169 282.029 141.169 281.133V280.263L139.71 280.324C138.55 280.365 137.712 280.547 137.196 280.869C136.687 281.186 136.432 281.681 136.432 282.354C136.432 282.882 136.59 283.283 136.906 283.559C137.229 283.834 137.677 283.972 138.251 283.972ZM149.492 285.176C148.098 285.176 147.017 284.748 146.249 283.893C145.487 283.031 145.106 281.815 145.106 280.245C145.106 278.634 145.493 277.389 146.267 276.51C147.046 275.631 148.153 275.191 149.589 275.191C150.052 275.191 150.515 275.241 150.978 275.341C151.44 275.44 151.804 275.558 152.067 275.692L151.619 276.932C151.297 276.803 150.945 276.697 150.564 276.615C150.184 276.527 149.847 276.483 149.554 276.483C147.597 276.483 146.618 277.731 146.618 280.228C146.618 281.411 146.855 282.319 147.33 282.952C147.811 283.585 148.52 283.901 149.457 283.901C150.26 283.901 151.083 283.729 151.927 283.383V284.675C151.282 285.009 150.471 285.176 149.492 285.176ZM157.332 283.972C157.59 283.972 157.839 283.954 158.079 283.919C158.319 283.878 158.51 283.837 158.65 283.796V284.912C158.492 284.988 158.258 285.05 157.947 285.097C157.643 285.149 157.367 285.176 157.121 285.176C155.258 285.176 154.326 284.194 154.326 282.231V276.501H152.946V275.798L154.326 275.191L154.941 273.135H155.785V275.367H158.58V276.501H155.785V282.17C155.785 282.75 155.923 283.195 156.198 283.506C156.474 283.816 156.852 283.972 157.332 283.972ZM162.043 285H160.584V275.367H162.043V285ZM160.461 272.757C160.461 272.423 160.543 272.18 160.707 272.027C160.871 271.869 161.076 271.79 161.322 271.79C161.557 271.79 161.759 271.869 161.929 272.027C162.099 272.186 162.184 272.429 162.184 272.757C162.184 273.085 162.099 273.331 161.929 273.495C161.759 273.653 161.557 273.732 161.322 273.732C161.076 273.732 160.871 273.653 160.707 273.495C160.543 273.331 160.461 273.085 160.461 272.757ZM173.451 280.175C173.451 281.745 173.056 282.973 172.265 283.857C171.474 284.736 170.381 285.176 168.986 285.176C168.125 285.176 167.36 284.974 166.692 284.569C166.024 284.165 165.509 283.585 165.146 282.829C164.782 282.073 164.601 281.188 164.601 280.175C164.601 278.604 164.993 277.383 165.778 276.51C166.563 275.631 167.653 275.191 169.048 275.191C170.396 275.191 171.465 275.64 172.256 276.536C173.053 277.433 173.451 278.646 173.451 280.175ZM166.112 280.175C166.112 281.405 166.358 282.343 166.851 282.987C167.343 283.632 168.066 283.954 169.021 283.954C169.977 283.954 170.7 283.635 171.192 282.996C171.69 282.352 171.939 281.411 171.939 280.175C171.939 278.95 171.69 278.021 171.192 277.389C170.7 276.75 169.971 276.431 169.004 276.431C168.049 276.431 167.328 276.744 166.842 277.371C166.355 277.998 166.112 278.933 166.112 280.175ZM182.609 285V278.769C182.609 277.983 182.431 277.397 182.073 277.011C181.716 276.624 181.156 276.431 180.395 276.431C179.387 276.431 178.648 276.703 178.18 277.248C177.711 277.793 177.477 278.692 177.477 279.946V285H176.018V275.367H177.204L177.441 276.686H177.512C177.811 276.211 178.229 275.845 178.769 275.587C179.308 275.323 179.908 275.191 180.57 275.191C181.73 275.191 182.604 275.473 183.189 276.035C183.775 276.592 184.068 277.485 184.068 278.716V285H182.609ZM199.616 285L197.85 279.349C197.738 279.003 197.53 278.218 197.226 276.993H197.155C196.921 278.019 196.716 278.81 196.54 279.366L194.721 285H193.033L190.405 275.367H191.935C192.556 277.787 193.027 279.63 193.35 280.896C193.678 282.161 193.865 283.014 193.912 283.453H193.982C194.047 283.119 194.149 282.688 194.29 282.161C194.437 281.628 194.562 281.206 194.668 280.896L196.435 275.367H198.017L199.739 280.896C200.067 281.903 200.29 282.75 200.407 283.436H200.478C200.501 283.225 200.562 282.899 200.662 282.46C200.768 282.021 201.38 279.656 202.499 275.367H204.011L201.348 285H199.616ZM207.219 285H205.76V275.367H207.219V285ZM205.637 272.757C205.637 272.423 205.719 272.18 205.883 272.027C206.047 271.869 206.252 271.79 206.498 271.79C206.732 271.79 206.935 271.869 207.104 272.027C207.274 272.186 207.359 272.429 207.359 272.757C207.359 273.085 207.274 273.331 207.104 273.495C206.935 273.653 206.732 273.732 206.498 273.732C206.252 273.732 206.047 273.653 205.883 273.495C205.719 273.331 205.637 273.085 205.637 272.757ZM213.424 283.972C213.682 283.972 213.931 283.954 214.171 283.919C214.411 283.878 214.602 283.837 214.742 283.796V284.912C214.584 284.988 214.35 285.05 214.039 285.097C213.734 285.149 213.459 285.176 213.213 285.176C211.35 285.176 210.418 284.194 210.418 282.231V276.501H209.038V275.798L210.418 275.191L211.033 273.135H211.877V275.367H214.672V276.501H211.877V282.17C211.877 282.75 212.015 283.195 212.29 283.506C212.565 283.816 212.943 283.972 213.424 283.972ZM223.268 285V278.769C223.268 277.983 223.089 277.397 222.731 277.011C222.374 276.624 221.814 276.431 221.053 276.431C220.039 276.431 219.298 276.706 218.829 277.257C218.366 277.808 218.135 278.71 218.135 279.964V285H216.676V271.324H218.135V275.464C218.135 275.962 218.111 276.375 218.064 276.703H218.152C218.439 276.24 218.847 275.877 219.374 275.613C219.907 275.344 220.514 275.209 221.193 275.209C222.371 275.209 223.253 275.49 223.839 276.053C224.431 276.609 224.727 277.497 224.727 278.716V285H223.268ZM240.723 280.175C240.723 281.745 240.327 282.973 239.536 283.857C238.745 284.736 237.652 285.176 236.258 285.176C235.396 285.176 234.632 284.974 233.964 284.569C233.296 284.165 232.78 283.585 232.417 282.829C232.054 282.073 231.872 281.188 231.872 280.175C231.872 278.604 232.265 277.383 233.05 276.51C233.835 275.631 234.925 275.191 236.319 275.191C237.667 275.191 238.736 275.64 239.527 276.536C240.324 277.433 240.723 278.646 240.723 280.175ZM233.384 280.175C233.384 281.405 233.63 282.343 234.122 282.987C234.614 283.632 235.338 283.954 236.293 283.954C237.248 283.954 237.972 283.635 238.464 282.996C238.962 282.352 239.211 281.411 239.211 280.175C239.211 278.95 238.962 278.021 238.464 277.389C237.972 276.75 237.242 276.431 236.275 276.431C235.32 276.431 234.6 276.744 234.113 277.371C233.627 277.998 233.384 278.933 233.384 280.175ZM244.66 275.367V281.616C244.66 282.401 244.839 282.987 245.196 283.374C245.554 283.761 246.113 283.954 246.875 283.954C247.883 283.954 248.618 283.679 249.081 283.128C249.55 282.577 249.784 281.678 249.784 280.43V275.367H251.243V285H250.039L249.828 283.708H249.749C249.45 284.183 249.034 284.546 248.501 284.798C247.974 285.05 247.37 285.176 246.69 285.176C245.519 285.176 244.64 284.897 244.054 284.341C243.474 283.784 243.184 282.894 243.184 281.669V275.367H244.66ZM258.74 275.191C259.168 275.191 259.552 275.227 259.892 275.297L259.689 276.65C259.291 276.562 258.939 276.519 258.635 276.519C257.855 276.519 257.188 276.835 256.631 277.468C256.08 278.101 255.805 278.889 255.805 279.832V285H254.346V275.367H255.55L255.717 277.151H255.787C256.145 276.524 256.575 276.041 257.079 275.701C257.583 275.361 258.137 275.191 258.74 275.191ZM272.926 283.708H272.847C272.173 284.687 271.165 285.176 269.823 285.176C268.563 285.176 267.582 284.745 266.879 283.884C266.182 283.022 265.833 281.798 265.833 280.21C265.833 278.622 266.185 277.389 266.888 276.51C267.591 275.631 268.569 275.191 269.823 275.191C271.13 275.191 272.132 275.666 272.829 276.615H272.943L272.882 275.921L272.847 275.244V271.324H274.306V285H273.119L272.926 283.708ZM270.008 283.954C271.004 283.954 271.725 283.685 272.17 283.146C272.621 282.601 272.847 281.725 272.847 280.518V280.21C272.847 278.845 272.618 277.872 272.161 277.292C271.71 276.706 270.986 276.413 269.99 276.413C269.135 276.413 268.479 276.747 268.021 277.415C267.57 278.077 267.345 279.015 267.345 280.228C267.345 281.458 267.57 282.387 268.021 283.014C268.473 283.641 269.135 283.954 270.008 283.954ZM278.867 285H277.408V275.367H278.867V285ZM277.285 272.757C277.285 272.423 277.367 272.18 277.531 272.027C277.695 271.869 277.9 271.79 278.146 271.79C278.381 271.79 278.583 271.869 278.753 272.027C278.923 272.186 279.008 272.429 279.008 272.757C279.008 273.085 278.923 273.331 278.753 273.495C278.583 273.653 278.381 273.732 278.146 273.732C277.9 273.732 277.695 273.653 277.531 273.495C277.367 273.331 277.285 273.085 277.285 272.757ZM288.175 282.372C288.175 283.269 287.841 283.96 287.173 284.446C286.505 284.933 285.567 285.176 284.36 285.176C283.083 285.176 282.087 284.974 281.372 284.569V283.216C281.835 283.45 282.33 283.635 282.857 283.77C283.391 283.904 283.903 283.972 284.396 283.972C285.157 283.972 285.743 283.852 286.153 283.611C286.563 283.365 286.769 282.993 286.769 282.495C286.769 282.12 286.604 281.801 286.276 281.537C285.954 281.268 285.321 280.951 284.378 280.588C283.481 280.254 282.843 279.964 282.462 279.718C282.087 279.466 281.806 279.182 281.618 278.865C281.437 278.549 281.346 278.171 281.346 277.731C281.346 276.946 281.665 276.328 282.304 275.877C282.942 275.42 283.818 275.191 284.932 275.191C285.969 275.191 286.982 275.402 287.973 275.824L287.454 277.011C286.487 276.612 285.611 276.413 284.826 276.413C284.135 276.413 283.613 276.521 283.262 276.738C282.91 276.955 282.734 277.254 282.734 277.635C282.734 277.893 282.799 278.112 282.928 278.294C283.062 278.476 283.276 278.648 283.569 278.812C283.862 278.977 284.425 279.214 285.257 279.524C286.399 279.94 287.17 280.359 287.568 280.781C287.973 281.203 288.175 281.733 288.175 282.372ZM294.406 285.176C293.012 285.176 291.931 284.748 291.163 283.893C290.401 283.031 290.021 281.815 290.021 280.245C290.021 278.634 290.407 277.389 291.181 276.51C291.96 275.631 293.067 275.191 294.503 275.191C294.966 275.191 295.429 275.241 295.892 275.341C296.354 275.44 296.718 275.558 296.981 275.692L296.533 276.932C296.211 276.803 295.859 276.697 295.479 276.615C295.098 276.527 294.761 276.483 294.468 276.483C292.511 276.483 291.532 277.731 291.532 280.228C291.532 281.411 291.77 282.319 292.244 282.952C292.725 283.585 293.434 283.901 294.371 283.901C295.174 283.901 295.997 283.729 296.841 283.383V284.675C296.196 285.009 295.385 285.176 294.406 285.176ZM307.449 280.175C307.449 281.745 307.054 282.973 306.263 283.857C305.472 284.736 304.379 285.176 302.984 285.176C302.123 285.176 301.358 284.974 300.69 284.569C300.022 284.165 299.507 283.585 299.144 282.829C298.78 282.073 298.599 281.188 298.599 280.175C298.599 278.604 298.991 277.383 299.776 276.51C300.562 275.631 301.651 275.191 303.046 275.191C304.394 275.191 305.463 275.64 306.254 276.536C307.051 277.433 307.449 278.646 307.449 280.175ZM300.11 280.175C300.11 281.405 300.356 282.343 300.849 282.987C301.341 283.632 302.064 283.954 303.02 283.954C303.975 283.954 304.698 283.635 305.19 282.996C305.688 282.352 305.938 281.411 305.938 280.175C305.938 278.95 305.688 278.021 305.19 277.389C304.698 276.75 303.969 276.431 303.002 276.431C302.047 276.431 301.326 276.744 300.84 277.371C300.354 277.998 300.11 278.933 300.11 280.175ZM312.125 285L308.469 275.367H310.033L312.107 281.08C312.576 282.416 312.852 283.283 312.934 283.682H313.004C313.068 283.371 313.271 282.729 313.61 281.757C313.956 280.778 314.727 278.648 315.922 275.367H317.486L313.83 285H312.125ZM323.103 285.176C321.679 285.176 320.554 284.742 319.728 283.875C318.907 283.008 318.497 281.804 318.497 280.263C318.497 278.71 318.878 277.477 319.64 276.562C320.407 275.648 321.436 275.191 322.725 275.191C323.932 275.191 324.887 275.59 325.59 276.387C326.293 277.178 326.645 278.224 326.645 279.524V280.447H320.009C320.038 281.578 320.322 282.437 320.861 283.022C321.406 283.608 322.171 283.901 323.155 283.901C324.192 283.901 325.218 283.685 326.231 283.251V284.552C325.716 284.774 325.227 284.933 324.764 285.026C324.307 285.126 323.753 285.176 323.103 285.176ZM322.707 276.413C321.934 276.413 321.315 276.665 320.853 277.169C320.396 277.673 320.126 278.37 320.044 279.261H325.08C325.08 278.341 324.875 277.638 324.465 277.151C324.055 276.659 323.469 276.413 322.707 276.413ZM333.535 275.191C333.963 275.191 334.347 275.227 334.687 275.297L334.484 276.65C334.086 276.562 333.734 276.519 333.43 276.519C332.65 276.519 331.982 276.835 331.426 277.468C330.875 278.101 330.6 278.889 330.6 279.832V285H329.141V275.367H330.345L330.512 277.151H330.582C330.939 276.524 331.37 276.041 331.874 275.701C332.378 275.361 332.932 275.191 333.535 275.191ZM337.947 285H336.488V275.367H337.947V285ZM336.365 272.757C336.365 272.423 336.447 272.18 336.611 272.027C336.775 271.869 336.98 271.79 337.227 271.79C337.461 271.79 337.663 271.869 337.833 272.027C338.003 272.186 338.088 272.429 338.088 272.757C338.088 273.085 338.003 273.331 337.833 273.495C337.663 273.653 337.461 273.732 337.227 273.732C336.98 273.732 336.775 273.653 336.611 273.495C336.447 273.331 336.365 273.085 336.365 272.757ZM345.11 285.176C343.687 285.176 342.562 284.742 341.735 283.875C340.915 283.008 340.505 281.804 340.505 280.263C340.505 278.71 340.886 277.477 341.647 276.562C342.415 275.648 343.443 275.191 344.732 275.191C345.939 275.191 346.895 275.59 347.598 276.387C348.301 277.178 348.652 278.224 348.652 279.524V280.447H342.017C342.046 281.578 342.33 282.437 342.869 283.022C343.414 283.608 344.179 283.901 345.163 283.901C346.2 283.901 347.226 283.685 348.239 283.251V284.552C347.724 284.774 347.234 284.933 346.771 285.026C346.314 285.126 345.761 285.176 345.11 285.176ZM344.715 276.413C343.941 276.413 343.323 276.665 342.86 277.169C342.403 277.673 342.134 278.37 342.052 279.261H347.088C347.088 278.341 346.883 277.638 346.473 277.151C346.062 276.659 345.477 276.413 344.715 276.413ZM357.362 282.372C357.362 283.269 357.028 283.96 356.36 284.446C355.692 284.933 354.755 285.176 353.548 285.176C352.271 285.176 351.274 284.974 350.56 284.569V283.216C351.022 283.45 351.518 283.635 352.045 283.77C352.578 283.904 353.091 283.972 353.583 283.972C354.345 283.972 354.931 283.852 355.341 283.611C355.751 283.365 355.956 282.993 355.956 282.495C355.956 282.12 355.792 281.801 355.464 281.537C355.142 281.268 354.509 280.951 353.565 280.588C352.669 280.254 352.03 279.964 351.649 279.718C351.274 279.466 350.993 279.182 350.806 278.865C350.624 278.549 350.533 278.171 350.533 277.731C350.533 276.946 350.853 276.328 351.491 275.877C352.13 275.42 353.006 275.191 354.119 275.191C355.156 275.191 356.17 275.402 357.16 275.824L356.642 277.011C355.675 276.612 354.799 276.413 354.014 276.413C353.322 276.413 352.801 276.521 352.449 276.738C352.098 276.955 351.922 277.254 351.922 277.635C351.922 277.893 351.986 278.112 352.115 278.294C352.25 278.476 352.464 278.648 352.757 278.812C353.05 278.977 353.612 279.214 354.444 279.524C355.587 279.94 356.357 280.359 356.756 280.781C357.16 281.203 357.362 281.733 357.362 282.372ZM359.533 284.068C359.533 283.676 359.621 283.38 359.797 283.181C359.979 282.976 360.236 282.873 360.57 282.873C360.91 282.873 361.174 282.976 361.361 283.181C361.555 283.38 361.651 283.676 361.651 284.068C361.651 284.449 361.555 284.742 361.361 284.947C361.168 285.152 360.904 285.255 360.57 285.255C360.271 285.255 360.022 285.164 359.823 284.982C359.63 284.795 359.533 284.49 359.533 284.068ZM369.438 285V272.15H370.933V283.646H376.602V285H369.438ZM382.64 285.176C381.216 285.176 380.091 284.742 379.265 283.875C378.444 283.008 378.034 281.804 378.034 280.263C378.034 278.71 378.415 277.477 379.177 276.562C379.944 275.648 380.973 275.191 382.262 275.191C383.469 275.191 384.424 275.59 385.127 276.387C385.83 277.178 386.182 278.224 386.182 279.524V280.447H379.546C379.575 281.578 379.859 282.437 380.398 283.022C380.943 283.608 381.708 283.901 382.692 283.901C383.729 283.901 384.755 283.685 385.769 283.251V284.552C385.253 284.774 384.764 284.933 384.301 285.026C383.844 285.126 383.29 285.176 382.64 285.176ZM382.244 276.413C381.471 276.413 380.853 276.665 380.39 277.169C379.933 277.673 379.663 278.37 379.581 279.261H384.617C384.617 278.341 384.412 277.638 384.002 277.151C383.592 276.659 383.006 276.413 382.244 276.413ZM391.789 283.972C392.047 283.972 392.296 283.954 392.536 283.919C392.776 283.878 392.967 283.837 393.107 283.796V284.912C392.949 284.988 392.715 285.05 392.404 285.097C392.1 285.149 391.824 285.176 391.578 285.176C389.715 285.176 388.783 284.194 388.783 282.231V276.501H387.403V275.798L388.783 275.191L389.398 273.135H390.242V275.367H393.037V276.501H390.242V282.17C390.242 282.75 390.38 283.195 390.655 283.506C390.931 283.816 391.309 283.972 391.789 283.972ZM401.088 275.367V281.616C401.088 282.401 401.267 282.987 401.624 283.374C401.981 283.761 402.541 283.954 403.303 283.954C404.311 283.954 405.046 283.679 405.509 283.128C405.978 282.577 406.212 281.678 406.212 280.43V275.367H407.671V285H406.467L406.256 283.708H406.177C405.878 284.183 405.462 284.546 404.929 284.798C404.401 285.05 403.798 285.176 403.118 285.176C401.946 285.176 401.067 284.897 400.481 284.341C399.901 283.784 399.611 282.894 399.611 281.669V275.367H401.088ZM416.987 282.372C416.987 283.269 416.653 283.96 415.985 284.446C415.317 284.933 414.38 285.176 413.173 285.176C411.896 285.176 410.899 284.974 410.185 284.569V283.216C410.647 283.45 411.143 283.635 411.67 283.77C412.203 283.904 412.716 283.972 413.208 283.972C413.97 283.972 414.556 283.852 414.966 283.611C415.376 283.365 415.581 282.993 415.581 282.495C415.581 282.12 415.417 281.801 415.089 281.537C414.767 281.268 414.134 280.951 413.19 280.588C412.294 280.254 411.655 279.964 411.274 279.718C410.899 279.466 410.618 279.182 410.431 278.865C410.249 278.549 410.158 278.171 410.158 277.731C410.158 276.946 410.478 276.328 411.116 275.877C411.755 275.42 412.631 275.191 413.744 275.191C414.781 275.191 415.795 275.402 416.785 275.824L416.267 277.011C415.3 276.612 414.424 276.413 413.639 276.413C412.947 276.413 412.426 276.521 412.074 276.738C411.723 276.955 411.547 277.254 411.547 277.635C411.547 277.893 411.611 278.112 411.74 278.294C411.875 278.476 412.089 278.648 412.382 278.812C412.675 278.977 413.237 279.214 414.069 279.524C415.212 279.94 415.982 280.359 416.381 280.781C416.785 281.203 416.987 281.733 416.987 282.372ZM36.333 310H34.874V296.324H36.333V310ZM43.4961 310.176C42.0723 310.176 40.9473 309.742 40.1211 308.875C39.3008 308.008 38.8906 306.804 38.8906 305.263C38.8906 303.71 39.2715 302.477 40.0332 301.562C40.8008 300.648 41.8291 300.191 43.1182 300.191C44.3252 300.191 45.2803 300.59 45.9834 301.387C46.6865 302.178 47.0381 303.224 47.0381 304.524V305.447H40.4023C40.4316 306.578 40.7158 307.437 41.2549 308.022C41.7998 308.608 42.5645 308.901 43.5488 308.901C44.5859 308.901 45.6113 308.685 46.625 308.251V309.552C46.1094 309.774 45.6201 309.933 45.1572 310.026C44.7002 310.126 44.1465 310.176 43.4961 310.176ZM43.1006 301.413C42.3271 301.413 41.709 301.665 41.2461 302.169C40.7891 302.673 40.5195 303.37 40.4375 304.261H45.4736C45.4736 303.341 45.2686 302.638 44.8584 302.151C44.4482 301.659 43.8623 301.413 43.1006 301.413ZM51.6436 310L47.9873 300.367H49.5518L51.626 306.08C52.0947 307.416 52.3701 308.283 52.4521 308.682H52.5225C52.5869 308.371 52.7891 307.729 53.1289 306.757C53.4746 305.778 54.2451 303.648 55.4404 300.367H57.0049L53.3486 310H51.6436ZM62.6211 310.176C61.1973 310.176 60.0723 309.742 59.2461 308.875C58.4258 308.008 58.0156 306.804 58.0156 305.263C58.0156 303.71 58.3965 302.477 59.1582 301.562C59.9258 300.648 60.9541 300.191 62.2432 300.191C63.4502 300.191 64.4053 300.59 65.1084 301.387C65.8115 302.178 66.1631 303.224 66.1631 304.524V305.447H59.5273C59.5566 306.578 59.8408 307.437 60.3799 308.022C60.9248 308.608 61.6895 308.901 62.6738 308.901C63.7109 308.901 64.7363 308.685 65.75 308.251V309.552C65.2344 309.774 64.7451 309.933 64.2822 310.026C63.8252 310.126 63.2715 310.176 62.6211 310.176ZM62.2256 301.413C61.4521 301.413 60.834 301.665 60.3711 302.169C59.9141 302.673 59.6445 303.37 59.5625 304.261H64.5986C64.5986 303.341 64.3936 302.638 63.9834 302.151C63.5732 301.659 62.9873 301.413 62.2256 301.413ZM73.0537 300.191C73.4814 300.191 73.8652 300.227 74.2051 300.297L74.0029 301.65C73.6045 301.562 73.2529 301.519 72.9482 301.519C72.1689 301.519 71.501 301.835 70.9443 302.468C70.3936 303.101 70.1182 303.889 70.1182 304.832V310H68.6592V300.367H69.8633L70.0303 302.151H70.1006C70.458 301.524 70.8887 301.041 71.3926 300.701C71.8965 300.361 72.4502 300.191 73.0537 300.191ZM81.9307 310L81.6406 308.629H81.5703C81.0898 309.232 80.6094 309.643 80.1289 309.859C79.6543 310.07 79.0596 310.176 78.3447 310.176C77.3896 310.176 76.6396 309.93 76.0947 309.438C75.5557 308.945 75.2861 308.245 75.2861 307.337C75.2861 305.392 76.8418 304.372 79.9531 304.278L81.5879 304.226V303.628C81.5879 302.872 81.4238 302.315 81.0957 301.958C80.7734 301.595 80.2549 301.413 79.54 301.413C78.7373 301.413 77.8291 301.659 76.8154 302.151L76.3672 301.035C76.8418 300.777 77.3604 300.575 77.9229 300.429C78.4912 300.282 79.0596 300.209 79.6279 300.209C80.7764 300.209 81.626 300.464 82.1768 300.974C82.7334 301.483 83.0117 302.301 83.0117 303.426V310H81.9307ZM78.6348 308.972C79.543 308.972 80.2549 308.723 80.7705 308.225C81.292 307.727 81.5527 307.029 81.5527 306.133V305.263L80.0938 305.324C78.9336 305.365 78.0957 305.547 77.5801 305.869C77.0703 306.186 76.8154 306.681 76.8154 307.354C76.8154 307.882 76.9736 308.283 77.29 308.559C77.6123 308.834 78.0605 308.972 78.6348 308.972ZM93.9102 300.367V301.29L92.126 301.501C92.29 301.706 92.4365 301.976 92.5654 302.31C92.6943 302.638 92.7588 303.01 92.7588 303.426C92.7588 304.369 92.4365 305.122 91.792 305.685C91.1475 306.247 90.2627 306.528 89.1377 306.528C88.8506 306.528 88.5811 306.505 88.3291 306.458C87.708 306.786 87.3975 307.199 87.3975 307.697C87.3975 307.961 87.5059 308.157 87.7227 308.286C87.9395 308.409 88.3115 308.471 88.8389 308.471H90.5439C91.5869 308.471 92.3867 308.69 92.9434 309.13C93.5059 309.569 93.7871 310.208 93.7871 311.046C93.7871 312.112 93.3594 312.924 92.5039 313.48C91.6484 314.043 90.4004 314.324 88.7598 314.324C87.5 314.324 86.5273 314.09 85.8418 313.621C85.1621 313.152 84.8223 312.49 84.8223 311.635C84.8223 311.049 85.0098 310.542 85.3848 310.114C85.7598 309.687 86.2871 309.396 86.9668 309.244C86.7207 309.133 86.5127 308.96 86.3428 308.726C86.1787 308.491 86.0967 308.219 86.0967 307.908C86.0967 307.557 86.1904 307.249 86.3779 306.985C86.5654 306.722 86.8613 306.467 87.2656 306.221C86.7676 306.016 86.3604 305.667 86.0439 305.175C85.7334 304.683 85.5781 304.12 85.5781 303.487C85.5781 302.433 85.8945 301.621 86.5273 301.053C87.1602 300.479 88.0566 300.191 89.2168 300.191C89.7207 300.191 90.1748 300.25 90.5791 300.367H93.9102ZM86.2285 311.617C86.2285 312.139 86.4482 312.534 86.8877 312.804C87.3271 313.073 87.957 313.208 88.7773 313.208C90.002 313.208 90.9072 313.023 91.4932 312.654C92.085 312.291 92.3809 311.796 92.3809 311.169C92.3809 310.647 92.2197 310.284 91.8975 310.079C91.5752 309.88 90.9688 309.78 90.0781 309.78H88.3291C87.667 309.78 87.1514 309.938 86.7822 310.255C86.4131 310.571 86.2285 311.025 86.2285 311.617ZM87.0195 303.452C87.0195 304.126 87.21 304.636 87.5908 304.981C87.9717 305.327 88.502 305.5 89.1816 305.5C90.6055 305.5 91.3174 304.809 91.3174 303.426C91.3174 301.979 90.5967 301.255 89.1553 301.255C88.4697 301.255 87.9424 301.439 87.5732 301.809C87.2041 302.178 87.0195 302.726 87.0195 303.452ZM99.957 310.176C98.5332 310.176 97.4082 309.742 96.582 308.875C95.7617 308.008 95.3516 306.804 95.3516 305.263C95.3516 303.71 95.7324 302.477 96.4941 301.562C97.2617 300.648 98.29 300.191 99.5791 300.191C100.786 300.191 101.741 300.59 102.444 301.387C103.147 302.178 103.499 303.224 103.499 304.524V305.447H96.8633C96.8926 306.578 97.1768 307.437 97.7158 308.022C98.2607 308.608 99.0254 308.901 100.01 308.901C101.047 308.901 102.072 308.685 103.086 308.251V309.552C102.57 309.774 102.081 309.933 101.618 310.026C101.161 310.126 100.607 310.176 99.957 310.176ZM99.5615 301.413C98.7881 301.413 98.1699 301.665 97.707 302.169C97.25 302.673 96.9805 303.37 96.8984 304.261H101.935C101.935 303.341 101.729 302.638 101.319 302.151C100.909 301.659 100.323 301.413 99.5615 301.413ZM118.985 305.175C118.985 306.745 118.59 307.973 117.799 308.857C117.008 309.736 115.915 310.176 114.521 310.176C113.659 310.176 112.895 309.974 112.227 309.569C111.559 309.165 111.043 308.585 110.68 307.829C110.316 307.073 110.135 306.188 110.135 305.175C110.135 303.604 110.527 302.383 111.312 301.51C112.098 300.631 113.188 300.191 114.582 300.191C115.93 300.191 116.999 300.64 117.79 301.536C118.587 302.433 118.985 303.646 118.985 305.175ZM111.646 305.175C111.646 306.405 111.893 307.343 112.385 307.987C112.877 308.632 113.601 308.954 114.556 308.954C115.511 308.954 116.234 308.635 116.727 307.996C117.225 307.352 117.474 306.411 117.474 305.175C117.474 303.95 117.225 303.021 116.727 302.389C116.234 301.75 115.505 301.431 114.538 301.431C113.583 301.431 112.862 301.744 112.376 302.371C111.89 302.998 111.646 303.933 111.646 305.175ZM122.923 300.367V306.616C122.923 307.401 123.102 307.987 123.459 308.374C123.816 308.761 124.376 308.954 125.138 308.954C126.146 308.954 126.881 308.679 127.344 308.128C127.812 307.577 128.047 306.678 128.047 305.43V300.367H129.506V310H128.302L128.091 308.708H128.012C127.713 309.183 127.297 309.546 126.764 309.798C126.236 310.05 125.633 310.176 124.953 310.176C123.781 310.176 122.902 309.897 122.316 309.341C121.736 308.784 121.446 307.894 121.446 306.669V300.367H122.923ZM137.003 300.191C137.431 300.191 137.814 300.227 138.154 300.297L137.952 301.65C137.554 301.562 137.202 301.519 136.897 301.519C136.118 301.519 135.45 301.835 134.894 302.468C134.343 303.101 134.067 303.889 134.067 304.832V310H132.608V300.367H133.812L133.979 302.151H134.05C134.407 301.524 134.838 301.041 135.342 300.701C135.846 300.361 136.399 300.191 137.003 300.191ZM146.091 310H144.632V300.367H146.091V310ZM144.509 297.757C144.509 297.423 144.591 297.18 144.755 297.027C144.919 296.869 145.124 296.79 145.37 296.79C145.604 296.79 145.807 296.869 145.977 297.027C146.146 297.186 146.231 297.429 146.231 297.757C146.231 298.085 146.146 298.331 145.977 298.495C145.807 298.653 145.604 298.732 145.37 298.732C145.124 298.732 144.919 298.653 144.755 298.495C144.591 298.331 144.509 298.085 144.509 297.757ZM155.776 310V303.769C155.776 302.983 155.598 302.397 155.24 302.011C154.883 301.624 154.323 301.431 153.562 301.431C152.554 301.431 151.815 301.703 151.347 302.248C150.878 302.793 150.644 303.692 150.644 304.946V310H149.185V300.367H150.371L150.608 301.686H150.679C150.978 301.211 151.396 300.845 151.936 300.587C152.475 300.323 153.075 300.191 153.737 300.191C154.897 300.191 155.771 300.473 156.356 301.035C156.942 301.592 157.235 302.485 157.235 303.716V310H155.776ZM159.433 305.843V304.507H163.748V305.843H159.433ZM172.599 308.708H172.52C171.846 309.687 170.838 310.176 169.496 310.176C168.236 310.176 167.255 309.745 166.552 308.884C165.854 308.022 165.506 306.798 165.506 305.21C165.506 303.622 165.857 302.389 166.561 301.51C167.264 300.631 168.242 300.191 169.496 300.191C170.803 300.191 171.805 300.666 172.502 301.615H172.616L172.555 300.921L172.52 300.244V296.324H173.979V310H172.792L172.599 308.708ZM169.681 308.954C170.677 308.954 171.397 308.685 171.843 308.146C172.294 307.601 172.52 306.725 172.52 305.518V305.21C172.52 303.845 172.291 302.872 171.834 302.292C171.383 301.706 170.659 301.413 169.663 301.413C168.808 301.413 168.151 301.747 167.694 302.415C167.243 303.077 167.018 304.015 167.018 305.228C167.018 306.458 167.243 307.387 167.694 308.014C168.146 308.641 168.808 308.954 169.681 308.954ZM181.15 310.176C179.727 310.176 178.602 309.742 177.775 308.875C176.955 308.008 176.545 306.804 176.545 305.263C176.545 303.71 176.926 302.477 177.688 301.562C178.455 300.648 179.483 300.191 180.772 300.191C181.979 300.191 182.935 300.59 183.638 301.387C184.341 302.178 184.692 303.224 184.692 304.524V305.447H178.057C178.086 306.578 178.37 307.437 178.909 308.022C179.454 308.608 180.219 308.901 181.203 308.901C182.24 308.901 183.266 308.685 184.279 308.251V309.552C183.764 309.774 183.274 309.933 182.812 310.026C182.354 310.126 181.801 310.176 181.15 310.176ZM180.755 301.413C179.981 301.413 179.363 301.665 178.9 302.169C178.443 302.673 178.174 303.37 178.092 304.261H183.128C183.128 303.341 182.923 302.638 182.513 302.151C182.103 301.659 181.517 301.413 180.755 301.413ZM191.671 310.176C191.044 310.176 190.47 310.062 189.948 309.833C189.433 309.599 188.999 309.241 188.647 308.761H188.542C188.612 309.323 188.647 309.856 188.647 310.36V314.324H187.188V300.367H188.375L188.577 301.686H188.647C189.022 301.158 189.459 300.777 189.957 300.543C190.455 300.309 191.026 300.191 191.671 300.191C192.948 300.191 193.933 300.628 194.624 301.501C195.321 302.374 195.67 303.599 195.67 305.175C195.67 306.757 195.315 307.987 194.606 308.866C193.903 309.739 192.925 310.176 191.671 310.176ZM191.46 301.431C190.476 301.431 189.764 301.703 189.324 302.248C188.885 302.793 188.659 303.66 188.647 304.85V305.175C188.647 306.528 188.873 307.498 189.324 308.084C189.775 308.664 190.499 308.954 191.495 308.954C192.327 308.954 192.978 308.617 193.446 307.943C193.921 307.27 194.158 306.341 194.158 305.157C194.158 303.956 193.921 303.036 193.446 302.397C192.978 301.753 192.315 301.431 191.46 301.431ZM201.339 308.972C201.597 308.972 201.846 308.954 202.086 308.919C202.326 308.878 202.517 308.837 202.657 308.796V309.912C202.499 309.988 202.265 310.05 201.954 310.097C201.649 310.149 201.374 310.176 201.128 310.176C199.265 310.176 198.333 309.194 198.333 307.231V301.501H196.953V300.798L198.333 300.191L198.948 298.135H199.792V300.367H202.587V301.501H199.792V307.17C199.792 307.75 199.93 308.195 200.205 308.506C200.48 308.816 200.858 308.972 201.339 308.972ZM211.183 310V303.769C211.183 302.983 211.004 302.397 210.646 302.011C210.289 301.624 209.729 301.431 208.968 301.431C207.954 301.431 207.213 301.706 206.744 302.257C206.281 302.808 206.05 303.71 206.05 304.964V310H204.591V296.324H206.05V300.464C206.05 300.962 206.026 301.375 205.979 301.703H206.067C206.354 301.24 206.762 300.877 207.289 300.613C207.822 300.344 208.429 300.209 209.108 300.209C210.286 300.209 211.168 300.49 211.754 301.053C212.346 301.609 212.642 302.497 212.642 303.716V310H211.183ZM224.665 301.501H222.213V310H220.754V301.501H219.031V300.842L220.754 300.314V299.778C220.754 297.411 221.788 296.228 223.856 296.228C224.366 296.228 224.964 296.33 225.649 296.535L225.271 297.704C224.709 297.522 224.229 297.432 223.83 297.432C223.279 297.432 222.872 297.616 222.608 297.985C222.345 298.349 222.213 298.935 222.213 299.743V300.367H224.665V301.501ZM227.882 310H226.423V300.367H227.882V310ZM226.3 297.757C226.3 297.423 226.382 297.18 226.546 297.027C226.71 296.869 226.915 296.79 227.161 296.79C227.396 296.79 227.598 296.869 227.768 297.027C227.938 297.186 228.022 297.429 228.022 297.757C228.022 298.085 227.938 298.331 227.768 298.495C227.598 298.653 227.396 298.732 227.161 298.732C226.915 298.732 226.71 298.653 226.546 298.495C226.382 298.331 226.3 298.085 226.3 297.757ZM237.567 310V303.769C237.567 302.983 237.389 302.397 237.031 302.011C236.674 301.624 236.114 301.431 235.353 301.431C234.345 301.431 233.606 301.703 233.138 302.248C232.669 302.793 232.435 303.692 232.435 304.946V310H230.976V300.367H232.162L232.399 301.686H232.47C232.769 301.211 233.188 300.845 233.727 300.587C234.266 300.323 234.866 300.191 235.528 300.191C236.688 300.191 237.562 300.473 238.147 301.035C238.733 301.592 239.026 302.485 239.026 303.716V310H237.567ZM248.589 308.708H248.51C247.836 309.687 246.828 310.176 245.486 310.176C244.227 310.176 243.245 309.745 242.542 308.884C241.845 308.022 241.496 306.798 241.496 305.21C241.496 303.622 241.848 302.389 242.551 301.51C243.254 300.631 244.232 300.191 245.486 300.191C246.793 300.191 247.795 300.666 248.492 301.615H248.606L248.545 300.921L248.51 300.244V296.324H249.969V310H248.782L248.589 308.708ZM245.671 308.954C246.667 308.954 247.388 308.685 247.833 308.146C248.284 307.601 248.51 306.725 248.51 305.518V305.21C248.51 303.845 248.281 302.872 247.824 302.292C247.373 301.706 246.649 301.413 245.653 301.413C244.798 301.413 244.142 301.747 243.685 302.415C243.233 303.077 243.008 304.015 243.008 305.228C243.008 306.458 243.233 307.387 243.685 308.014C244.136 308.641 244.798 308.954 245.671 308.954ZM254.53 310H253.071V300.367H254.53V310ZM252.948 297.757C252.948 297.423 253.03 297.18 253.194 297.027C253.358 296.869 253.563 296.79 253.81 296.79C254.044 296.79 254.246 296.869 254.416 297.027C254.586 297.186 254.671 297.429 254.671 297.757C254.671 298.085 254.586 298.331 254.416 298.495C254.246 298.653 254.044 298.732 253.81 298.732C253.563 298.732 253.358 298.653 253.194 298.495C253.03 298.331 252.948 298.085 252.948 297.757ZM264.216 310V303.769C264.216 302.983 264.037 302.397 263.68 302.011C263.322 301.624 262.763 301.431 262.001 301.431C260.993 301.431 260.255 301.703 259.786 302.248C259.317 302.793 259.083 303.692 259.083 304.946V310H257.624V300.367H258.811L259.048 301.686H259.118C259.417 301.211 259.836 300.845 260.375 300.587C260.914 300.323 261.515 300.191 262.177 300.191C263.337 300.191 264.21 300.473 264.796 301.035C265.382 301.592 265.675 302.485 265.675 303.716V310H264.216ZM276.564 300.367V301.29L274.78 301.501C274.944 301.706 275.091 301.976 275.22 302.31C275.349 302.638 275.413 303.01 275.413 303.426C275.413 304.369 275.091 305.122 274.446 305.685C273.802 306.247 272.917 306.528 271.792 306.528C271.505 306.528 271.235 306.505 270.983 306.458C270.362 306.786 270.052 307.199 270.052 307.697C270.052 307.961 270.16 308.157 270.377 308.286C270.594 308.409 270.966 308.471 271.493 308.471H273.198C274.241 308.471 275.041 308.69 275.598 309.13C276.16 309.569 276.441 310.208 276.441 311.046C276.441 312.112 276.014 312.924 275.158 313.48C274.303 314.043 273.055 314.324 271.414 314.324C270.154 314.324 269.182 314.09 268.496 313.621C267.816 313.152 267.477 312.49 267.477 311.635C267.477 311.049 267.664 310.542 268.039 310.114C268.414 309.687 268.941 309.396 269.621 309.244C269.375 309.133 269.167 308.96 268.997 308.726C268.833 308.491 268.751 308.219 268.751 307.908C268.751 307.557 268.845 307.249 269.032 306.985C269.22 306.722 269.516 306.467 269.92 306.221C269.422 306.016 269.015 305.667 268.698 305.175C268.388 304.683 268.232 304.12 268.232 303.487C268.232 302.433 268.549 301.621 269.182 301.053C269.814 300.479 270.711 300.191 271.871 300.191C272.375 300.191 272.829 300.25 273.233 300.367H276.564ZM268.883 311.617C268.883 312.139 269.103 312.534 269.542 312.804C269.981 313.073 270.611 313.208 271.432 313.208C272.656 313.208 273.562 313.023 274.147 312.654C274.739 312.291 275.035 311.796 275.035 311.169C275.035 310.647 274.874 310.284 274.552 310.079C274.229 309.88 273.623 309.78 272.732 309.78H270.983C270.321 309.78 269.806 309.938 269.437 310.255C269.067 310.571 268.883 311.025 268.883 311.617ZM269.674 303.452C269.674 304.126 269.864 304.636 270.245 304.981C270.626 305.327 271.156 305.5 271.836 305.5C273.26 305.5 273.972 304.809 273.972 303.426C273.972 301.979 273.251 301.255 271.81 301.255C271.124 301.255 270.597 301.439 270.228 301.809C269.858 302.178 269.674 302.726 269.674 303.452ZM284.756 307.372C284.756 308.269 284.422 308.96 283.754 309.446C283.086 309.933 282.148 310.176 280.941 310.176C279.664 310.176 278.668 309.974 277.953 309.569V308.216C278.416 308.45 278.911 308.635 279.438 308.77C279.972 308.904 280.484 308.972 280.977 308.972C281.738 308.972 282.324 308.852 282.734 308.611C283.145 308.365 283.35 307.993 283.35 307.495C283.35 307.12 283.186 306.801 282.857 306.537C282.535 306.268 281.902 305.951 280.959 305.588C280.062 305.254 279.424 304.964 279.043 304.718C278.668 304.466 278.387 304.182 278.199 303.865C278.018 303.549 277.927 303.171 277.927 302.731C277.927 301.946 278.246 301.328 278.885 300.877C279.523 300.42 280.399 300.191 281.513 300.191C282.55 300.191 283.563 300.402 284.554 300.824L284.035 302.011C283.068 301.612 282.192 301.413 281.407 301.413C280.716 301.413 280.194 301.521 279.843 301.738C279.491 301.955 279.315 302.254 279.315 302.635C279.315 302.893 279.38 303.112 279.509 303.294C279.644 303.476 279.857 303.648 280.15 303.812C280.443 303.977 281.006 304.214 281.838 304.524C282.98 304.94 283.751 305.359 284.149 305.781C284.554 306.203 284.756 306.733 284.756 307.372ZM293.272 310H291.813V300.367H293.272V310ZM291.69 297.757C291.69 297.423 291.772 297.18 291.937 297.027C292.101 296.869 292.306 296.79 292.552 296.79C292.786 296.79 292.988 296.869 293.158 297.027C293.328 297.186 293.413 297.429 293.413 297.757C293.413 298.085 293.328 298.331 293.158 298.495C292.988 298.653 292.786 298.732 292.552 298.732C292.306 298.732 292.101 298.653 291.937 298.495C291.772 298.331 291.69 298.085 291.69 297.757ZM302.958 310V303.769C302.958 302.983 302.779 302.397 302.422 302.011C302.064 301.624 301.505 301.431 300.743 301.431C299.735 301.431 298.997 301.703 298.528 302.248C298.06 302.793 297.825 303.692 297.825 304.946V310H296.366V300.367H297.553L297.79 301.686H297.86C298.159 301.211 298.578 300.845 299.117 300.587C299.656 300.323 300.257 300.191 300.919 300.191C302.079 300.191 302.952 300.473 303.538 301.035C304.124 301.592 304.417 302.485 304.417 303.716V310H302.958ZM310.534 308.972C310.792 308.972 311.041 308.954 311.281 308.919C311.521 308.878 311.712 308.837 311.853 308.796V309.912C311.694 309.988 311.46 310.05 311.149 310.097C310.845 310.149 310.569 310.176 310.323 310.176C308.46 310.176 307.528 309.194 307.528 307.231V301.501H306.148V300.798L307.528 300.191L308.144 298.135H308.987V300.367H311.782V301.501H308.987V307.17C308.987 307.75 309.125 308.195 309.4 308.506C309.676 308.816 310.054 308.972 310.534 308.972ZM322.101 305.175C322.101 306.745 321.705 307.973 320.914 308.857C320.123 309.736 319.03 310.176 317.636 310.176C316.774 310.176 316.01 309.974 315.342 309.569C314.674 309.165 314.158 308.585 313.795 307.829C313.432 307.073 313.25 306.188 313.25 305.175C313.25 303.604 313.643 302.383 314.428 301.51C315.213 300.631 316.303 300.191 317.697 300.191C319.045 300.191 320.114 300.64 320.905 301.536C321.702 302.433 322.101 303.646 322.101 305.175ZM314.762 305.175C314.762 306.405 315.008 307.343 315.5 307.987C315.992 308.632 316.716 308.954 317.671 308.954C318.626 308.954 319.35 308.635 319.842 307.996C320.34 307.352 320.589 306.411 320.589 305.175C320.589 303.95 320.34 303.021 319.842 302.389C319.35 301.75 318.62 301.431 317.653 301.431C316.698 301.431 315.978 301.744 315.491 302.371C315.005 302.998 314.762 303.933 314.762 305.175ZM333.412 310.176C331.988 310.176 330.863 309.742 330.037 308.875C329.217 308.008 328.807 306.804 328.807 305.263C328.807 303.71 329.188 302.477 329.949 301.562C330.717 300.648 331.745 300.191 333.034 300.191C334.241 300.191 335.196 300.59 335.899 301.387C336.603 302.178 336.954 303.224 336.954 304.524V305.447H330.318C330.348 306.578 330.632 307.437 331.171 308.022C331.716 308.608 332.48 308.901 333.465 308.901C334.502 308.901 335.527 308.685 336.541 308.251V309.552C336.025 309.774 335.536 309.933 335.073 310.026C334.616 310.126 334.062 310.176 333.412 310.176ZM333.017 301.413C332.243 301.413 331.625 301.665 331.162 302.169C330.705 302.673 330.436 303.37 330.354 304.261H335.39C335.39 303.341 335.185 302.638 334.774 302.151C334.364 301.659 333.778 301.413 333.017 301.413ZM346.042 310V303.769C346.042 302.983 345.863 302.397 345.506 302.011C345.148 301.624 344.589 301.431 343.827 301.431C342.819 301.431 342.081 301.703 341.612 302.248C341.144 302.793 340.909 303.692 340.909 304.946V310H339.45V300.367H340.637L340.874 301.686H340.944C341.243 301.211 341.662 300.845 342.201 300.587C342.74 300.323 343.341 300.191 344.003 300.191C345.163 300.191 346.036 300.473 346.622 301.035C347.208 301.592 347.501 302.485 347.501 303.716V310H346.042ZM357.063 308.708H356.984C356.311 309.687 355.303 310.176 353.961 310.176C352.701 310.176 351.72 309.745 351.017 308.884C350.319 308.022 349.971 306.798 349.971 305.21C349.971 303.622 350.322 302.389 351.025 301.51C351.729 300.631 352.707 300.191 353.961 300.191C355.268 300.191 356.27 300.666 356.967 301.615H357.081L357.02 300.921L356.984 300.244V296.324H358.443V310H357.257L357.063 308.708ZM354.146 308.954C355.142 308.954 355.862 308.685 356.308 308.146C356.759 307.601 356.984 306.725 356.984 305.518V305.21C356.984 303.845 356.756 302.872 356.299 302.292C355.848 301.706 355.124 301.413 354.128 301.413C353.272 301.413 352.616 301.747 352.159 302.415C351.708 303.077 351.482 304.015 351.482 305.228C351.482 306.458 351.708 307.387 352.159 308.014C352.61 308.641 353.272 308.954 354.146 308.954ZM360.737 305.843V304.507H365.053V305.843H360.737ZM373.271 310L372.98 308.629H372.91C372.43 309.232 371.949 309.643 371.469 309.859C370.994 310.07 370.399 310.176 369.685 310.176C368.729 310.176 367.979 309.93 367.435 309.438C366.896 308.945 366.626 308.245 366.626 307.337C366.626 305.392 368.182 304.372 371.293 304.278L372.928 304.226V303.628C372.928 302.872 372.764 302.315 372.436 301.958C372.113 301.595 371.595 301.413 370.88 301.413C370.077 301.413 369.169 301.659 368.155 302.151L367.707 301.035C368.182 300.777 368.7 300.575 369.263 300.429C369.831 300.282 370.399 300.209 370.968 300.209C372.116 300.209 372.966 300.464 373.517 300.974C374.073 301.483 374.352 302.301 374.352 303.426V310H373.271ZM369.975 308.972C370.883 308.972 371.595 308.723 372.11 308.225C372.632 307.727 372.893 307.029 372.893 306.133V305.263L371.434 305.324C370.273 305.365 369.436 305.547 368.92 305.869C368.41 306.186 368.155 306.681 368.155 307.354C368.155 307.882 368.313 308.283 368.63 308.559C368.952 308.834 369.4 308.972 369.975 308.972ZM378.825 310H377.366V296.324H378.825V310ZM383.378 310H381.919V296.324H383.378V310ZM395.63 300.209C396.896 300.209 397.877 300.643 398.574 301.51C399.277 302.371 399.629 303.593 399.629 305.175C399.629 306.757 399.274 307.987 398.565 308.866C397.862 309.739 396.884 310.176 395.63 310.176C395.003 310.176 394.429 310.062 393.907 309.833C393.392 309.599 392.958 309.241 392.606 308.761H392.501L392.193 310H391.147V296.324H392.606V299.646C392.606 300.391 392.583 301.059 392.536 301.65H392.606C393.286 300.689 394.294 300.209 395.63 300.209ZM395.419 301.431C394.423 301.431 393.705 301.718 393.266 302.292C392.826 302.86 392.606 303.821 392.606 305.175C392.606 306.528 392.832 307.498 393.283 308.084C393.734 308.664 394.458 308.954 395.454 308.954C396.351 308.954 397.019 308.629 397.458 307.979C397.897 307.322 398.117 306.382 398.117 305.157C398.117 303.903 397.897 302.969 397.458 302.354C397.019 301.738 396.339 301.431 395.419 301.431ZM406.256 310.176C404.832 310.176 403.707 309.742 402.881 308.875C402.061 308.008 401.65 306.804 401.65 305.263C401.65 303.71 402.031 302.477 402.793 301.562C403.561 300.648 404.589 300.191 405.878 300.191C407.085 300.191 408.04 300.59 408.743 301.387C409.446 302.178 409.798 303.224 409.798 304.524V305.447H403.162C403.191 306.578 403.476 307.437 404.015 308.022C404.56 308.608 405.324 308.901 406.309 308.901C407.346 308.901 408.371 308.685 409.385 308.251V309.552C408.869 309.774 408.38 309.933 407.917 310.026C407.46 310.126 406.906 310.176 406.256 310.176ZM405.86 301.413C405.087 301.413 404.469 301.665 404.006 302.169C403.549 302.673 403.279 303.37 403.197 304.261H408.233C408.233 303.341 408.028 302.638 407.618 302.151C407.208 301.659 406.622 301.413 405.86 301.413ZM411.485 305.843V304.507H415.801V305.843H411.485ZM424.019 310L423.729 308.629H423.658C423.178 309.232 422.697 309.643 422.217 309.859C421.742 310.07 421.147 310.176 420.433 310.176C419.478 310.176 418.728 309.93 418.183 309.438C417.644 308.945 417.374 308.245 417.374 307.337C417.374 305.392 418.93 304.372 422.041 304.278L423.676 304.226V303.628C423.676 302.872 423.512 302.315 423.184 301.958C422.861 301.595 422.343 301.413 421.628 301.413C420.825 301.413 419.917 301.659 418.903 302.151L418.455 301.035C418.93 300.777 419.448 300.575 420.011 300.429C420.579 300.282 421.147 300.209 421.716 300.209C422.864 300.209 423.714 300.464 424.265 300.974C424.821 301.483 425.1 302.301 425.1 303.426V310H424.019ZM420.723 308.972C421.631 308.972 422.343 308.723 422.858 308.225C423.38 307.727 423.641 307.029 423.641 306.133V305.263L422.182 305.324C421.021 305.365 420.184 305.547 419.668 305.869C419.158 306.186 418.903 306.681 418.903 307.354C418.903 307.882 419.062 308.283 419.378 308.559C419.7 308.834 420.148 308.972 420.723 308.972ZM429.573 310H428.114V296.324H429.573V310ZM434.126 310H432.667V296.324H434.126V310ZM190.766 335L190.476 333.629H190.405C189.925 334.232 189.444 334.643 188.964 334.859C188.489 335.07 187.895 335.176 187.18 335.176C186.225 335.176 185.475 334.93 184.93 334.438C184.391 333.945 184.121 333.245 184.121 332.337C184.121 330.392 185.677 329.372 188.788 329.278L190.423 329.226V328.628C190.423 327.872 190.259 327.315 189.931 326.958C189.608 326.595 189.09 326.413 188.375 326.413C187.572 326.413 186.664 326.659 185.65 327.151L185.202 326.035C185.677 325.777 186.195 325.575 186.758 325.429C187.326 325.282 187.895 325.209 188.463 325.209C189.611 325.209 190.461 325.464 191.012 325.974C191.568 326.483 191.847 327.301 191.847 328.426V335H190.766ZM187.47 333.972C188.378 333.972 189.09 333.723 189.605 333.225C190.127 332.727 190.388 332.029 190.388 331.133V330.263L188.929 330.324C187.769 330.365 186.931 330.547 186.415 330.869C185.905 331.186 185.65 331.681 185.65 332.354C185.65 332.882 185.809 333.283 186.125 333.559C186.447 333.834 186.896 333.972 187.47 333.972ZM199.344 325.209C200.609 325.209 201.591 325.643 202.288 326.51C202.991 327.371 203.343 328.593 203.343 330.175C203.343 331.757 202.988 332.987 202.279 333.866C201.576 334.739 200.598 335.176 199.344 335.176C198.717 335.176 198.143 335.062 197.621 334.833C197.105 334.599 196.672 334.241 196.32 333.761H196.215L195.907 335H194.861V321.324H196.32V324.646C196.32 325.391 196.297 326.059 196.25 326.65H196.32C197 325.689 198.008 325.209 199.344 325.209ZM199.133 326.431C198.137 326.431 197.419 326.718 196.979 327.292C196.54 327.86 196.32 328.821 196.32 330.175C196.32 331.528 196.546 332.498 196.997 333.084C197.448 333.664 198.172 333.954 199.168 333.954C200.064 333.954 200.732 333.629 201.172 332.979C201.611 332.322 201.831 331.382 201.831 330.157C201.831 328.903 201.611 327.969 201.172 327.354C200.732 326.738 200.053 326.431 199.133 326.431ZM212.114 332.372C212.114 333.269 211.78 333.96 211.112 334.446C210.444 334.933 209.507 335.176 208.3 335.176C207.022 335.176 206.026 334.974 205.312 334.569V333.216C205.774 333.45 206.27 333.635 206.797 333.77C207.33 333.904 207.843 333.972 208.335 333.972C209.097 333.972 209.683 333.852 210.093 333.611C210.503 333.365 210.708 332.993 210.708 332.495C210.708 332.12 210.544 331.801 210.216 331.537C209.894 331.268 209.261 330.951 208.317 330.588C207.421 330.254 206.782 329.964 206.401 329.718C206.026 329.466 205.745 329.182 205.558 328.865C205.376 328.549 205.285 328.171 205.285 327.731C205.285 326.946 205.604 326.328 206.243 325.877C206.882 325.42 207.758 325.191 208.871 325.191C209.908 325.191 210.922 325.402 211.912 325.824L211.394 327.011C210.427 326.612 209.551 326.413 208.766 326.413C208.074 326.413 207.553 326.521 207.201 326.738C206.85 326.955 206.674 327.254 206.674 327.635C206.674 327.893 206.738 328.112 206.867 328.294C207.002 328.476 207.216 328.648 207.509 328.812C207.802 328.977 208.364 329.214 209.196 329.524C210.339 329.94 211.109 330.359 211.508 330.781C211.912 331.203 212.114 331.733 212.114 332.372ZM222.811 330.175C222.811 331.745 222.415 332.973 221.624 333.857C220.833 334.736 219.74 335.176 218.346 335.176C217.484 335.176 216.72 334.974 216.052 334.569C215.384 334.165 214.868 333.585 214.505 332.829C214.142 332.073 213.96 331.188 213.96 330.175C213.96 328.604 214.353 327.383 215.138 326.51C215.923 325.631 217.013 325.191 218.407 325.191C219.755 325.191 220.824 325.64 221.615 326.536C222.412 327.433 222.811 328.646 222.811 330.175ZM215.472 330.175C215.472 331.405 215.718 332.343 216.21 332.987C216.702 333.632 217.426 333.954 218.381 333.954C219.336 333.954 220.06 333.635 220.552 332.996C221.05 332.352 221.299 331.411 221.299 330.175C221.299 328.95 221.05 328.021 220.552 327.389C220.06 326.75 219.33 326.431 218.363 326.431C217.408 326.431 216.688 326.744 216.201 327.371C215.715 327.998 215.472 328.933 215.472 330.175ZM226.836 335H225.377V321.324H226.836V335ZM231.301 325.367V331.616C231.301 332.401 231.479 332.987 231.837 333.374C232.194 333.761 232.754 333.954 233.516 333.954C234.523 333.954 235.259 333.679 235.722 333.128C236.19 332.577 236.425 331.678 236.425 330.43V325.367H237.884V335H236.68L236.469 333.708H236.39C236.091 334.183 235.675 334.546 235.142 334.798C234.614 335.05 234.011 335.176 233.331 335.176C232.159 335.176 231.28 334.897 230.694 334.341C230.114 333.784 229.824 332.894 229.824 331.669V325.367H231.301ZM244.098 333.972C244.355 333.972 244.604 333.954 244.845 333.919C245.085 333.878 245.275 333.837 245.416 333.796V334.912C245.258 334.988 245.023 335.05 244.713 335.097C244.408 335.149 244.133 335.176 243.887 335.176C242.023 335.176 241.092 334.194 241.092 332.231V326.501H239.712V325.798L241.092 325.191L241.707 323.135H242.551V325.367H245.346V326.501H242.551V332.17C242.551 332.75 242.688 333.195 242.964 333.506C243.239 333.816 243.617 333.972 244.098 333.972ZM248.809 335H247.35V325.367H248.809V335ZM247.227 322.757C247.227 322.423 247.309 322.18 247.473 322.027C247.637 321.869 247.842 321.79 248.088 321.79C248.322 321.79 248.524 321.869 248.694 322.027C248.864 322.186 248.949 322.429 248.949 322.757C248.949 323.085 248.864 323.331 248.694 323.495C248.524 323.653 248.322 323.732 248.088 323.732C247.842 323.732 247.637 323.653 247.473 323.495C247.309 323.331 247.227 323.085 247.227 322.757ZM260.217 330.175C260.217 331.745 259.821 332.973 259.03 333.857C258.239 334.736 257.146 335.176 255.752 335.176C254.891 335.176 254.126 334.974 253.458 334.569C252.79 334.165 252.274 333.585 251.911 332.829C251.548 332.073 251.366 331.188 251.366 330.175C251.366 328.604 251.759 327.383 252.544 326.51C253.329 325.631 254.419 325.191 255.813 325.191C257.161 325.191 258.23 325.64 259.021 326.536C259.818 327.433 260.217 328.646 260.217 330.175ZM252.878 330.175C252.878 331.405 253.124 332.343 253.616 332.987C254.108 333.632 254.832 333.954 255.787 333.954C256.742 333.954 257.466 333.635 257.958 332.996C258.456 332.352 258.705 331.411 258.705 330.175C258.705 328.95 258.456 328.021 257.958 327.389C257.466 326.75 256.736 326.431 255.77 326.431C254.814 326.431 254.094 326.744 253.607 327.371C253.121 327.998 252.878 328.933 252.878 330.175ZM269.375 335V328.769C269.375 327.983 269.196 327.397 268.839 327.011C268.481 326.624 267.922 326.431 267.16 326.431C266.152 326.431 265.414 326.703 264.945 327.248C264.477 327.793 264.242 328.692 264.242 329.946V335H262.783V325.367H263.97L264.207 326.686H264.277C264.576 326.211 264.995 325.845 265.534 325.587C266.073 325.323 266.674 325.191 267.336 325.191C268.496 325.191 269.369 325.473 269.955 326.035C270.541 326.592 270.834 327.485 270.834 328.716V335H269.375ZM280.054 332.372C280.054 333.269 279.72 333.96 279.052 334.446C278.384 334.933 277.446 335.176 276.239 335.176C274.962 335.176 273.966 334.974 273.251 334.569V333.216C273.714 333.45 274.209 333.635 274.736 333.77C275.27 333.904 275.782 333.972 276.274 333.972C277.036 333.972 277.622 333.852 278.032 333.611C278.442 333.365 278.647 332.993 278.647 332.495C278.647 332.12 278.483 331.801 278.155 331.537C277.833 331.268 277.2 330.951 276.257 330.588C275.36 330.254 274.722 329.964 274.341 329.718C273.966 329.466 273.685 329.182 273.497 328.865C273.315 328.549 273.225 328.171 273.225 327.731C273.225 326.946 273.544 326.328 274.183 325.877C274.821 325.42 275.697 325.191 276.811 325.191C277.848 325.191 278.861 325.402 279.852 325.824L279.333 327.011C278.366 326.612 277.49 326.413 276.705 326.413C276.014 326.413 275.492 326.521 275.141 326.738C274.789 326.955 274.613 327.254 274.613 327.635C274.613 327.893 274.678 328.112 274.807 328.294C274.941 328.476 275.155 328.648 275.448 328.812C275.741 328.977 276.304 329.214 277.136 329.524C278.278 329.94 279.049 330.359 279.447 330.781C279.852 331.203 280.054 331.733 280.054 332.372ZM283.754 331.458H282.831L282.383 322.15H284.202L283.754 331.458ZM282.225 334.068C282.225 333.271 282.576 332.873 283.279 332.873C283.619 332.873 283.88 332.976 284.062 333.181C284.249 333.386 284.343 333.682 284.343 334.068C284.343 334.443 284.249 334.736 284.062 334.947C283.874 335.152 283.613 335.255 283.279 335.255C282.975 335.255 282.723 335.164 282.523 334.982C282.324 334.795 282.225 334.49 282.225 334.068Z" fill="black"/>
<path fill-rule="evenodd" clip-rule="evenodd" d="M252.972 110.921C243.99 118.522 232.6 122.685 220.833 122.667C193.31 122.667 171 100.357 171 72.8333C171 45.31 193.31 23 220.833 23C248.357 23 270.667 45.31 270.667 72.8333C270.667 85.0808 266.251 96.2933 258.921 104.972L267.385 103.5L306.807 142.922C309.732 145.847 309.732 150.589 306.807 153.51L301.51 158.807C298.585 161.732 293.843 161.732 290.922 158.807L251.5 119.385L252.972 110.921ZM263 72.8333C263 96.1208 244.121 115 220.833 115C197.546 115 178.667 96.1208 178.667 72.8333C178.667 49.5458 197.546 30.6667 220.833 30.6667C244.121 30.6667 263 49.5458 263 72.8333ZM290.788 137.743L264.779 111.734L260.485 112.481L259.734 116.779L285.82 142.865L290.788 137.743ZM291.24 148.285L296.216 153.26L301.26 148.216L296.208 143.163L291.24 148.285Z" fill="#0166A3"/>
<g clip-path="url(#clip0)">
<path d="M211.121 49.035C211.485 48.9248 211.878 48.9637 212.214 49.1432C212.55 49.3227 212.801 49.6281 212.912 49.9924L213.748 52.7409C216.083 51.2155 218.812 50.4051 221.6 50.4092C224.495 50.4092 227.195 51.266 229.452 52.7409L230.285 49.9924C230.339 49.8105 230.428 49.641 230.548 49.4938C230.667 49.3465 230.815 49.2243 230.982 49.1343C231.149 49.0442 231.332 48.9881 231.52 48.9691C231.709 48.9502 231.9 48.9687 232.081 49.0237C232.263 49.0787 232.431 49.1691 232.578 49.2896C232.724 49.4101 232.845 49.5584 232.934 49.7259C233.023 49.8935 233.078 50.0769 233.095 50.2658C233.113 50.4546 233.093 50.645 233.037 50.8261L231.858 54.7131C234.501 57.3985 235.98 61.0165 235.975 64.7842H237.413C237.794 64.7842 238.159 64.6328 238.429 64.3632C238.699 64.0936 238.85 63.728 238.85 63.3467V61.9092C238.85 61.528 239.002 61.1624 239.271 60.8928C239.541 60.6232 239.906 60.4717 240.288 60.4717C240.669 60.4717 241.034 60.6232 241.304 60.8928C241.574 61.1624 241.725 61.528 241.725 61.9092V63.3467C241.725 64.4905 241.271 65.5874 240.462 66.3961C239.653 67.2049 238.556 67.6592 237.413 67.6592H235.975V70.5342H240.288C240.669 70.5342 241.034 70.6857 241.304 70.9553C241.574 71.2249 241.725 71.5905 241.725 71.9717C241.725 72.353 241.574 72.7186 241.304 72.9882C241.034 73.2578 240.669 73.4092 240.288 73.4092H235.975V76.2842H237.413C238.556 76.2842 239.653 76.7386 240.462 77.5473C241.271 78.3561 241.725 79.453 241.725 80.5967V82.0342C241.725 82.4155 241.574 82.7811 241.304 83.0507C241.034 83.3203 240.669 83.4717 240.288 83.4717C239.906 83.4717 239.541 83.3203 239.271 83.0507C239.002 82.7811 238.85 82.4155 238.85 82.0342V80.5967C238.85 80.2155 238.699 79.8499 238.429 79.5803C238.159 79.3107 237.794 79.1592 237.413 79.1592H235.975C235.975 82.9717 234.461 86.6281 231.765 89.3239C229.069 92.0197 225.413 93.5342 221.6 93.5342C217.788 93.5342 214.131 92.0197 211.435 89.3239C208.74 86.6281 207.225 82.9717 207.225 79.1592H205.788C205.406 79.1592 205.041 79.3107 204.771 79.5803C204.502 79.8499 204.35 80.2155 204.35 80.5967V82.0342C204.35 82.4155 204.199 82.7811 203.929 83.0507C203.659 83.3203 203.294 83.4717 202.913 83.4717C202.531 83.4717 202.166 83.3203 201.896 83.0507C201.627 82.7811 201.475 82.4155 201.475 82.0342V80.5967C201.475 79.453 201.929 78.3561 202.738 77.5473C203.547 76.7386 204.644 76.2842 205.788 76.2842H207.225V73.4092H202.913C202.531 73.4092 202.166 73.2578 201.896 72.9882C201.627 72.7186 201.475 72.353 201.475 71.9717C201.475 71.5905 201.627 71.2249 201.896 70.9553C202.166 70.6857 202.531 70.5342 202.913 70.5342H207.225V67.6592H205.788C204.644 67.6592 203.547 67.2049 202.738 66.3961C201.929 65.5874 201.475 64.4905 201.475 63.3467V61.9092C201.475 61.528 201.627 61.1624 201.896 60.8928C202.166 60.6232 202.531 60.4717 202.913 60.4717C203.294 60.4717 203.659 60.6232 203.929 60.8928C204.199 61.1624 204.35 61.528 204.35 61.9092V63.3467C204.35 63.728 204.502 64.0936 204.771 64.3632C205.041 64.6328 205.406 64.7842 205.788 64.7842H207.225C207.225 60.8627 208.798 57.3064 211.342 54.7131L210.163 50.8261C210.053 50.4616 210.092 50.0683 210.272 49.7325C210.451 49.3967 210.756 49.1459 211.121 49.035ZM210.1 67.6592V79.1592C210.099 81.9609 211.121 84.6666 212.974 86.7682C214.827 88.8698 217.383 90.2228 220.163 90.573V67.6592H210.1ZM223.038 67.6592V90.573C225.817 90.2228 228.374 88.8698 230.226 86.7682C232.079 84.6666 233.101 81.9609 233.1 79.1592V67.6592H223.038ZM233.1 64.7842C233.102 63.1655 232.761 61.5646 232.1 60.087C231.439 58.6094 230.473 57.2884 229.265 56.211C227.159 54.3222 224.429 53.2796 221.6 53.2842C218.77 53.2789 216.039 54.3215 213.932 56.211C212.725 57.2887 211.759 58.6097 211.099 60.0874C210.438 61.565 210.098 63.1657 210.1 64.7842H233.1Z" fill="#0166A3"/>
</g>
<defs>
<clipPath id="clip0">
<rect width="46" height="46" fill="white" transform="translate(198.6 47.5332)"/>
</clipPath>
</defs>
</svg>
