<svg width="91" height="90" viewBox="0 0 91 90" fill="none" xmlns="http://www.w3.org/2000/svg">
<path d="M43.0782 40.5301C41.9131 41.0223 40.9789 41.7556 40.2858 42.74C39.5927 43.7243 39.2412 44.9096 39.2412 46.3058C39.2412 48.0938 39.9945 49.4699 41.4912 50.4442C42.9075 51.3583 44.3941 51.5893 45.951 51.1272C47.749 50.6049 48.9644 49.3292 49.6072 47.3002C49.9086 46.3661 50.0593 45.3214 50.0593 44.1562V39.1138C48.7936 39.154 47.6084 39.2746 46.4934 39.4855C45.3785 39.6964 44.2434 40.048 43.0782 40.5301ZM45.7903 0C20.9398 0 0.790283 20.1496 0.790283 45C0.790283 69.8504 20.9398 90 45.7903 90C70.6407 90 90.7903 69.8504 90.7903 45C90.7903 20.1496 70.6407 0 45.7903 0ZM49.3863 26.3873C48.663 25.2924 47.3673 24.74 45.499 24.74C45.3684 24.74 45.1976 24.75 44.9666 24.7701C44.7456 24.7902 44.3037 24.9208 43.6709 25.1417C43.0353 25.3691 42.4311 25.6763 41.8729 26.0558C41.3204 26.4375 40.7177 27.0603 40.0648 27.904C39.422 28.7578 38.9097 29.7522 38.528 30.8973L29.086 30.0536C29.086 28.808 29.3271 27.5725 29.7892 26.3471C30.2613 25.1217 30.9744 23.9464 31.9387 22.8315C32.903 21.7065 34.0581 20.7221 35.4041 19.8783C36.7501 19.0246 38.3773 18.3516 40.2657 17.8393C42.1642 17.327 44.1932 17.0759 46.3829 17.0759C48.5224 17.0759 50.461 17.3371 52.1887 17.8493C53.9164 18.3717 55.3126 19.0045 56.3472 19.7679C57.3441 20.487 58.2219 21.3581 58.9488 22.3493C59.6418 23.3136 60.124 24.2076 60.3952 25.0312C60.6664 25.8549 60.797 26.6083 60.797 27.3214V45.6529C60.797 46.2958 60.9376 46.9587 61.2289 47.6417C61.5202 48.3248 61.8617 48.9275 62.2535 49.4498C62.6452 49.9721 63.047 50.4442 63.4588 50.8862C63.8706 51.3181 64.2222 51.6596 64.5235 51.8806L64.9354 52.2221L57.653 59.1931C56.7992 58.4196 55.9555 57.6462 55.1218 56.8426C54.2881 56.0391 53.6653 55.4364 53.2635 55.0246L52.6508 54.4018C52.4097 54.1708 52.1485 53.8292 51.8472 53.3772C51.0336 54.6027 49.9889 55.6674 48.7233 56.5714C47.4477 57.4754 46.0816 58.1384 44.6351 58.5502C43.1787 58.9621 41.682 59.2031 40.1452 59.2634C38.6084 59.3237 37.1318 59.1127 35.7356 58.6105C34.3394 58.1083 33.0738 57.4353 31.9588 56.5714C30.8439 55.7076 29.9599 54.5424 29.297 53.0558C28.634 51.5692 28.3026 49.8917 28.3026 47.9933C28.3026 46.2455 28.6039 44.6484 29.1965 43.202C29.7992 41.7455 30.5626 40.5402 31.5068 39.5759C32.451 38.6116 33.586 37.7478 34.922 36.9944C36.2579 36.2411 37.5738 35.6484 38.8595 35.2165C40.1452 34.7946 41.5314 34.433 43.028 34.1417C44.5247 33.8504 45.8003 33.6596 46.8651 33.5692C47.9298 33.4788 48.9945 33.4085 50.0593 33.3683V29.4107C50.0593 28.0547 49.8282 27.0502 49.3863 26.3873ZM67.5168 64.5167C67.2356 64.8482 66.7635 65.3002 66.1005 65.8728C65.4376 66.4453 64.4131 67.1484 63.0369 67.9922C61.6608 68.8359 60.1441 69.5993 58.5168 70.2924C56.8796 70.9855 54.8706 71.5882 52.48 72.1004C50.0994 72.6127 47.6385 72.8638 45.1173 72.8638C42.5659 72.8638 40.0247 72.5424 37.4733 71.8996C34.922 71.2567 32.6921 70.4632 30.7635 69.519C28.845 68.5748 26.9867 67.49 25.2289 66.2846C23.461 65.0692 22.0447 63.9844 20.97 63.0201C19.9052 62.0558 19.0012 61.1417 18.278 60.298C18.1072 60.1071 17.9968 59.9364 17.9566 59.7857C17.9164 59.635 17.9264 59.5045 17.9867 59.4141C18.047 59.3237 18.1374 59.2533 18.2479 59.1931C18.3679 59.1398 18.4998 59.1192 18.6303 59.1333C18.7609 59.1474 18.8853 59.1958 18.9912 59.2734C23.0994 61.7042 26.3137 63.4219 28.624 64.4364C36.951 68.0926 45.499 69.0268 54.268 67.2388C58.336 66.4051 62.5146 65.0089 66.8137 63.0402C67.1351 62.9196 67.4164 62.8895 67.6474 62.9498C67.8784 63.01 67.999 63.1908 67.999 63.4922C67.999 63.7734 67.8383 64.125 67.5168 64.5167ZM73.5336 61.6038C73.3528 62.7187 73.0414 63.7734 72.6195 64.798C71.8963 66.5156 70.9822 67.8114 69.8974 68.6551C69.5358 68.9464 69.2546 69.0368 69.0637 68.9364C68.8729 68.8359 68.8729 68.5848 69.0637 68.1931C69.5157 67.2589 69.9878 66.0033 70.4901 64.4062C70.9923 62.8192 71.0626 61.7946 70.701 61.3426C70.5905 61.192 70.4298 61.0815 70.1988 60.981C69.9778 60.8906 69.6865 60.8304 69.3349 60.7902C68.9834 60.75 68.6619 60.7299 68.3907 60.7098C68.1095 60.6897 67.7378 60.6897 67.2657 60.7098C66.7936 60.7299 66.4622 60.75 66.2512 60.7701C65.6792 60.8259 65.1066 60.8762 64.5336 60.9208C64.403 60.9408 64.2624 60.9609 64.1218 60.971C63.9711 60.981 63.8505 60.9911 63.7702 61.0011L63.499 61.0312C63.3985 61.0413 63.3282 61.0513 63.278 61.0513H62.9566L62.8561 61.0312L62.7959 60.981L62.7456 60.8906C62.6151 60.5592 63.1173 60.1473 64.2523 59.6451C65.3874 59.1429 66.4923 58.8315 67.557 58.7109C68.5414 58.5603 69.6965 58.5603 71.0224 58.6808C72.3483 58.8013 73.1619 59.0525 73.4633 59.4241C73.6943 59.7757 73.7144 60.4989 73.5336 61.6038Z" fill="black"/>
</svg>
