<svg width="73" height="20" viewBox="0 0 73 20" fill="none" xmlns="http://www.w3.org/2000/svg">
<path d="M13.927 6.952C12.839 5.624 11.495 4.96 9.89502 4.96C9.19102 4.96 8.53502 5.088 7.92702 5.344C7.33502 5.6 6.82302 5.952 6.39102 6.4C5.95902 6.832 5.61502 7.352 5.35902 7.96C5.11902 8.568 4.99902 9.224 4.99902 9.928C4.99902 10.648 5.11902 11.312 5.35902 11.92C5.61502 12.528 5.95902 13.056 6.39102 13.504C6.83902 13.952 7.35902 14.304 7.95102 14.56C8.54302 14.816 9.18302 14.944 9.87102 14.944C11.375 14.944 12.727 14.304 13.927 13.024V18.592L13.447 18.76C12.727 19.016 12.055 19.2 11.431 19.312C10.807 19.44 10.191 19.504 9.58302 19.504C8.33502 19.504 7.13502 19.272 5.98302 18.808C4.84702 18.328 3.83902 17.664 2.95902 16.816C2.09502 15.952 1.39902 14.936 0.871023 13.768C0.343023 12.584 0.0790235 11.296 0.0790235 9.904C0.0790235 8.512 0.335024 7.24 0.847024 6.088C1.37502 4.92 2.07102 3.92 2.93502 3.088C3.81502 2.24 4.83102 1.584 5.98302 1.12C7.13502 0.639999 8.34302 0.399999 9.60702 0.399999C10.327 0.399999 11.031 0.479999 11.719 0.639999C12.423 0.783999 13.159 1.016 13.927 1.336V6.952ZM25.7108 8.872H35.0468C35.0468 9.832 35.0068 10.704 34.9268 11.488C34.8468 12.272 34.6868 13 34.4468 13.672C34.1108 14.616 33.6548 15.456 33.0788 16.192C32.5028 16.912 31.8228 17.52 31.0388 18.016C30.2708 18.496 29.4228 18.864 28.4948 19.12C27.5668 19.376 26.5908 19.504 25.5668 19.504C24.1588 19.504 22.8708 19.272 21.7028 18.808C20.5508 18.344 19.5588 17.696 18.7268 16.864C17.8948 16.016 17.2468 15.008 16.7828 13.84C16.3188 12.656 16.0868 11.352 16.0868 9.928C16.0868 8.52 16.3108 7.232 16.7588 6.064C17.2228 4.88 17.8708 3.872 18.7028 3.04C19.5508 2.208 20.5668 1.56 21.7508 1.096C22.9348 0.631999 24.2548 0.399999 25.7108 0.399999C27.5988 0.399999 29.2548 0.807999 30.6788 1.624C32.1028 2.44 33.2308 3.704 34.0628 5.416L29.5988 7.264C29.1828 6.272 28.6388 5.56 27.9668 5.128C27.3108 4.696 26.5588 4.48 25.7108 4.48C25.0068 4.48 24.3668 4.616 23.7908 4.888C23.2148 5.144 22.7188 5.52 22.3028 6.016C21.9028 6.496 21.5828 7.08 21.3428 7.768C21.1188 8.456 21.0068 9.224 21.0068 10.072C21.0068 10.84 21.1028 11.552 21.2948 12.208C21.5028 12.864 21.8068 13.432 22.2068 13.912C22.6068 14.392 23.1028 14.768 23.6948 15.04C24.2868 15.296 24.9748 15.424 25.7588 15.424C26.2228 15.424 26.6708 15.376 27.1028 15.28C27.5348 15.168 27.9188 15 28.2548 14.776C28.6068 14.536 28.8948 14.232 29.1188 13.864C29.3428 13.496 29.4948 13.048 29.5748 12.52H25.7108V8.872ZM51.052 6.952C49.964 5.624 48.62 4.96 47.02 4.96C46.316 4.96 45.66 5.088 45.052 5.344C44.46 5.6 43.948 5.952 43.516 6.4C43.084 6.832 42.74 7.352 42.484 7.96C42.244 8.568 42.124 9.224 42.124 9.928C42.124 10.648 42.244 11.312 42.484 11.92C42.74 12.528 43.084 13.056 43.516 13.504C43.964 13.952 44.484 14.304 45.076 14.56C45.668 14.816 46.308 14.944 46.996 14.944C48.5 14.944 49.852 14.304 51.052 13.024V18.592L50.572 18.76C49.852 19.016 49.18 19.2 48.556 19.312C47.932 19.44 47.316 19.504 46.708 19.504C45.46 19.504 44.26 19.272 43.108 18.808C41.972 18.328 40.964 17.664 40.084 16.816C39.22 15.952 38.524 14.936 37.996 13.768C37.468 12.584 37.204 11.296 37.204 9.904C37.204 8.512 37.46 7.24 37.972 6.088C38.5 4.92 39.196 3.92 40.06 3.088C40.94 2.24 41.956 1.584 43.108 1.12C44.26 0.639999 45.468 0.399999 46.732 0.399999C47.452 0.399999 48.156 0.479999 48.844 0.639999C49.548 0.783999 50.284 1.016 51.052 1.336V6.952ZM62.8358 8.872H72.1718C72.1718 9.832 72.1318 10.704 72.0518 11.488C71.9718 12.272 71.8118 13 71.5718 13.672C71.2358 14.616 70.7798 15.456 70.2038 16.192C69.6278 16.912 68.9478 17.52 68.1638 18.016C67.3958 18.496 66.5478 18.864 65.6198 19.12C64.6918 19.376 63.7158 19.504 62.6918 19.504C61.2838 19.504 59.9958 19.272 58.8278 18.808C57.6758 18.344 56.6838 17.696 55.8518 16.864C55.0198 16.016 54.3718 15.008 53.9078 13.84C53.4438 12.656 53.2118 11.352 53.2118 9.928C53.2118 8.52 53.4358 7.232 53.8838 6.064C54.3478 4.88 54.9958 3.872 55.8278 3.04C56.6758 2.208 57.6918 1.56 58.8758 1.096C60.0598 0.631999 61.3798 0.399999 62.8358 0.399999C64.7238 0.399999 66.3798 0.807999 67.8038 1.624C69.2278 2.44 70.3558 3.704 71.1878 5.416L66.7238 7.264C66.3078 6.272 65.7638 5.56 65.0918 5.128C64.4358 4.696 63.6838 4.48 62.8358 4.48C62.1318 4.48 61.4918 4.616 60.9158 4.888C60.3398 5.144 59.8438 5.52 59.4278 6.016C59.0278 6.496 58.7078 7.08 58.4678 7.768C58.2438 8.456 58.1318 9.224 58.1318 10.072C58.1318 10.84 58.2278 11.552 58.4198 12.208C58.6278 12.864 58.9318 13.432 59.3318 13.912C59.7318 14.392 60.2278 14.768 60.8198 15.04C61.4118 15.296 62.0998 15.424 62.8838 15.424C63.3478 15.424 63.7958 15.376 64.2278 15.28C64.6598 15.168 65.0438 15 65.3798 14.776C65.7318 14.536 66.0198 14.232 66.2438 13.864C66.4678 13.496 66.6198 13.048 66.6998 12.52H62.8358V8.872Z" fill="black"/>
</svg>