<svg width="498" height="220" viewBox="0 0 498 220" fill="none" xmlns="http://www.w3.org/2000/svg">
<rect width="466" height="180" rx="20" fill="#2DD8A3"/>
<path d="M52.792 54.0557C51.083 54.0557 49.7598 54.7002 48.8223 55.9893C47.8848 57.2686 47.416 59.0557 47.416 61.3506C47.416 66.126 49.208 68.5137 52.792 68.5137C54.2959 68.5137 56.1172 68.1377 58.2559 67.3857V71.1943C56.498 71.9268 54.5352 72.293 52.3672 72.293C49.252 72.293 46.8691 71.3506 45.2188 69.4658C43.5684 67.5713 42.7432 64.8564 42.7432 61.3213C42.7432 59.0947 43.1484 57.1465 43.959 55.4766C44.7695 53.7969 45.9316 52.5127 47.4453 51.624C48.9688 50.7256 50.751 50.2764 52.792 50.2764C54.8721 50.2764 56.9619 50.7793 59.0615 51.7852L57.5967 55.4766C56.7959 55.0957 55.9902 54.7637 55.1797 54.4805C54.3691 54.1973 53.5732 54.0557 52.792 54.0557ZM60.1309 55.623H65.0234L68.1143 64.8369C68.3779 65.6377 68.5586 66.585 68.6562 67.6787H68.7441C68.8516 66.6729 69.0615 65.7256 69.374 64.8369L72.4062 55.623H77.1963L70.2676 74.0947C69.6328 75.8037 68.7246 77.083 67.543 77.9326C66.3711 78.7822 64.999 79.207 63.4268 79.207C62.6553 79.207 61.8984 79.124 61.1562 78.958V75.4131C61.6934 75.54 62.2793 75.6035 62.9141 75.6035C63.7051 75.6035 64.3936 75.3594 64.9795 74.8711C65.5752 74.3926 66.0391 73.665 66.3711 72.6885L66.6348 71.8828L60.1309 55.623ZM88.666 55.3154C90.5996 55.3154 92.1133 56.0723 93.207 57.5859C94.3008 59.0898 94.8477 61.1553 94.8477 63.7822C94.8477 66.4873 94.2812 68.582 93.1484 70.0664C92.0254 71.5508 90.4922 72.293 88.5488 72.293C86.625 72.293 85.1162 71.5947 84.0225 70.1982H83.7148L82.9678 72H79.5547V49.207H84.0225V54.5098C84.0225 55.1836 83.9639 56.2627 83.8467 57.7471H84.0225C85.0674 56.126 86.6152 55.3154 88.666 55.3154ZM87.2305 58.8896C86.127 58.8896 85.3213 59.2314 84.8135 59.915C84.3057 60.5889 84.042 61.707 84.0225 63.2695V63.7529C84.0225 65.5107 84.2812 66.7705 84.7988 67.5322C85.3262 68.2939 86.1562 68.6748 87.2891 68.6748C88.207 68.6748 88.9346 68.2549 89.4717 67.415C90.0186 66.5654 90.292 65.335 90.292 63.7236C90.292 62.1123 90.0186 60.9062 89.4717 60.1055C88.9248 59.2949 88.1777 58.8896 87.2305 58.8896ZM105.321 58.4941C104.374 58.4941 103.632 58.7969 103.095 59.4023C102.558 59.998 102.25 60.8477 102.172 61.9512H108.441C108.422 60.8477 108.134 59.998 107.577 59.4023C107.021 58.7969 106.269 58.4941 105.321 58.4941ZM105.951 72.293C103.314 72.293 101.254 71.5654 99.7695 70.1104C98.2852 68.6553 97.543 66.5947 97.543 63.9287C97.543 61.1846 98.2266 59.0654 99.5938 57.5713C100.971 56.0674 102.87 55.3154 105.292 55.3154C107.606 55.3154 109.408 55.9746 110.697 57.293C111.986 58.6113 112.631 60.4326 112.631 62.7568V64.9248H102.069C102.118 66.1943 102.494 67.1855 103.197 67.8984C103.9 68.6113 104.887 68.9678 106.156 68.9678C107.143 68.9678 108.075 68.8652 108.954 68.6602C109.833 68.4551 110.751 68.1279 111.708 67.6787V71.1357C110.927 71.5264 110.092 71.8145 109.203 72C108.314 72.1953 107.23 72.293 105.951 72.293ZM125.404 55.3154C126.01 55.3154 126.513 55.3594 126.913 55.4473L126.576 59.6367C126.215 59.5391 125.775 59.4902 125.258 59.4902C123.832 59.4902 122.719 59.8564 121.918 60.5889C121.127 61.3213 120.731 62.3467 120.731 63.665V72H116.264V55.623H119.647L120.307 58.377H120.526C121.034 57.459 121.718 56.7217 122.577 56.165C123.446 55.5986 124.389 55.3154 125.404 55.3154ZM150.673 66.0527C150.673 67.9863 149.975 69.5098 148.578 70.623C147.191 71.7363 145.258 72.293 142.777 72.293C140.492 72.293 138.471 71.8633 136.713 71.0039V66.7852C138.158 67.4297 139.379 67.8838 140.375 68.1475C141.381 68.4111 142.299 68.543 143.129 68.543C144.125 68.543 144.887 68.3525 145.414 67.9717C145.951 67.5908 146.22 67.0244 146.22 66.2725C146.22 65.8525 146.103 65.4814 145.868 65.1592C145.634 64.8271 145.287 64.5098 144.828 64.207C144.379 63.9043 143.456 63.4209 142.06 62.7568C140.751 62.1416 139.77 61.5508 139.115 60.9844C138.461 60.418 137.938 59.7588 137.548 59.0068C137.157 58.2549 136.962 57.376 136.962 56.3701C136.962 54.4756 137.602 52.9863 138.881 51.9023C140.17 50.8184 141.947 50.2764 144.213 50.2764C145.326 50.2764 146.386 50.4082 147.392 50.6719C148.407 50.9355 149.467 51.3066 150.57 51.7852L149.105 55.3154C147.963 54.8467 147.016 54.5195 146.264 54.334C145.521 54.1484 144.789 54.0557 144.066 54.0557C143.207 54.0557 142.548 54.2559 142.089 54.6562C141.63 55.0566 141.4 55.5791 141.4 56.2236C141.4 56.624 141.493 56.9756 141.679 57.2783C141.864 57.5713 142.157 57.8594 142.558 58.1426C142.968 58.416 143.93 58.9141 145.443 59.6367C147.445 60.5938 148.817 61.5557 149.56 62.5225C150.302 63.4795 150.673 64.6562 150.673 66.0527ZM160.985 58.4941C160.038 58.4941 159.296 58.7969 158.759 59.4023C158.222 59.998 157.914 60.8477 157.836 61.9512H164.105C164.086 60.8477 163.798 59.998 163.241 59.4023C162.685 58.7969 161.933 58.4941 160.985 58.4941ZM161.615 72.293C158.979 72.293 156.918 71.5654 155.434 70.1104C153.949 68.6553 153.207 66.5947 153.207 63.9287C153.207 61.1846 153.891 59.0654 155.258 57.5713C156.635 56.0674 158.534 55.3154 160.956 55.3154C163.271 55.3154 165.072 55.9746 166.361 57.293C167.65 58.6113 168.295 60.4326 168.295 62.7568V64.9248H157.733C157.782 66.1943 158.158 67.1855 158.861 67.8984C159.564 68.6113 160.551 68.9678 161.82 68.9678C162.807 68.9678 163.739 68.8652 164.618 68.6602C165.497 68.4551 166.415 68.1279 167.372 67.6787V71.1357C166.591 71.5264 165.756 71.8145 164.867 72C163.979 72.1953 162.895 72.293 161.615 72.293ZM178.578 72.293C173.48 72.293 170.932 69.4951 170.932 63.8994C170.932 61.1162 171.625 58.9922 173.012 57.5273C174.398 56.0527 176.386 55.3154 178.974 55.3154C180.868 55.3154 182.567 55.6865 184.071 56.4287L182.753 59.8857C182.05 59.6025 181.396 59.373 180.79 59.1973C180.185 59.0117 179.579 58.9189 178.974 58.9189C176.649 58.9189 175.487 60.5693 175.487 63.8701C175.487 67.0732 176.649 68.6748 178.974 68.6748C179.833 68.6748 180.629 68.5625 181.361 68.3379C182.094 68.1035 182.826 67.7422 183.559 67.2539V71.0771C182.836 71.5361 182.104 71.8535 181.361 72.0293C180.629 72.2051 179.701 72.293 178.578 72.293ZM198.969 72L198.368 69.9053H198.134C197.655 70.667 196.977 71.2578 196.098 71.6777C195.219 72.0879 194.218 72.293 193.095 72.293C191.171 72.293 189.721 71.7803 188.744 70.7549C187.768 69.7197 187.279 68.2354 187.279 66.3018V55.623H191.747V65.1885C191.747 66.3701 191.957 67.2588 192.377 67.8545C192.797 68.4404 193.466 68.7334 194.384 68.7334C195.634 68.7334 196.537 68.3184 197.094 67.4883C197.65 66.6484 197.929 65.2617 197.929 63.3281V55.623H202.396V72H198.969ZM216.225 55.3154C216.83 55.3154 217.333 55.3594 217.733 55.4473L217.396 59.6367C217.035 59.5391 216.596 59.4902 216.078 59.4902C214.652 59.4902 213.539 59.8564 212.738 60.5889C211.947 61.3213 211.552 62.3467 211.552 63.665V72H207.084V55.623H210.468L211.127 58.377H211.347C211.854 57.459 212.538 56.7217 213.397 56.165C214.267 55.5986 215.209 55.3154 216.225 55.3154ZM220.517 51.3896C220.517 49.9346 221.327 49.207 222.948 49.207C224.569 49.207 225.38 49.9346 225.38 51.3896C225.38 52.083 225.175 52.625 224.765 53.0156C224.364 53.3965 223.759 53.5869 222.948 53.5869C221.327 53.5869 220.517 52.8545 220.517 51.3896ZM225.175 72H220.707V55.623H225.175V72ZM236.776 68.7334C237.558 68.7334 238.495 68.5625 239.589 68.2207V71.5459C238.476 72.0439 237.108 72.293 235.487 72.293C233.7 72.293 232.396 71.8438 231.576 70.9453C230.766 70.0371 230.36 68.6797 230.36 66.873V58.9775H228.222V57.0879L230.683 55.5938L231.972 52.1367H234.828V55.623H239.413V58.9775H234.828V66.873C234.828 67.5078 235.004 67.9766 235.355 68.2793C235.717 68.582 236.19 68.7334 236.776 68.7334ZM240.57 55.623H245.463L248.554 64.8369C248.817 65.6377 248.998 66.585 249.096 67.6787H249.184C249.291 66.6729 249.501 65.7256 249.813 64.8369L252.846 55.623H257.636L250.707 74.0947C250.072 75.8037 249.164 77.083 247.982 77.9326C246.811 78.7822 245.438 79.207 243.866 79.207C243.095 79.207 242.338 79.124 241.596 78.958V75.4131C242.133 75.54 242.719 75.6035 243.354 75.6035C244.145 75.6035 244.833 75.3594 245.419 74.8711C246.015 74.3926 246.479 73.665 246.811 72.6885L247.074 71.8828L240.57 55.623Z" fill="white"/>
<rect x="41" y="90" width="256" height="40" rx="5" fill="#0166A3"/>
<path d="M101.656 118V100.867H105.289V115H112.238V118H101.656ZM120.371 107.195C119.613 107.195 119.02 107.438 118.59 107.922C118.16 108.398 117.914 109.078 117.852 109.961H122.867C122.852 109.078 122.621 108.398 122.176 107.922C121.73 107.438 121.129 107.195 120.371 107.195ZM120.875 118.234C118.766 118.234 117.117 117.652 115.93 116.488C114.742 115.324 114.148 113.676 114.148 111.543C114.148 109.348 114.695 107.652 115.789 106.457C116.891 105.254 118.41 104.652 120.348 104.652C122.199 104.652 123.641 105.18 124.672 106.234C125.703 107.289 126.219 108.746 126.219 110.605V112.34H117.77C117.809 113.355 118.109 114.148 118.672 114.719C119.234 115.289 120.023 115.574 121.039 115.574C121.828 115.574 122.574 115.492 123.277 115.328C123.98 115.164 124.715 114.902 125.48 114.543V117.309C124.855 117.621 124.188 117.852 123.477 118C122.766 118.156 121.898 118.234 120.875 118.234ZM137.445 118L136.754 116.219H136.66C136.059 116.977 135.438 117.504 134.797 117.801C134.164 118.09 133.336 118.234 132.312 118.234C131.055 118.234 130.062 117.875 129.336 117.156C128.617 116.438 128.258 115.414 128.258 114.086C128.258 112.695 128.742 111.672 129.711 111.016C130.688 110.352 132.156 109.984 134.117 109.914L136.391 109.844V109.27C136.391 107.941 135.711 107.277 134.352 107.277C133.305 107.277 132.074 107.594 130.66 108.227L129.477 105.812C130.984 105.023 132.656 104.629 134.492 104.629C136.25 104.629 137.598 105.012 138.535 105.777C139.473 106.543 139.941 107.707 139.941 109.27V118H137.445ZM136.391 111.93L135.008 111.977C133.969 112.008 133.195 112.195 132.688 112.539C132.18 112.883 131.926 113.406 131.926 114.109C131.926 115.117 132.504 115.621 133.66 115.621C134.488 115.621 135.148 115.383 135.641 114.906C136.141 114.43 136.391 113.797 136.391 113.008V111.93ZM150.945 104.652C151.43 104.652 151.832 104.688 152.152 104.758L151.883 108.109C151.594 108.031 151.242 107.992 150.828 107.992C149.688 107.992 148.797 108.285 148.156 108.871C147.523 109.457 147.207 110.277 147.207 111.332V118H143.633V104.898H146.34L146.867 107.102H147.043C147.449 106.367 147.996 105.777 148.684 105.332C149.379 104.879 150.133 104.652 150.945 104.652ZM166.625 118H163.051V110.348C163.051 109.402 162.883 108.695 162.547 108.227C162.211 107.75 161.676 107.512 160.941 107.512C159.941 107.512 159.219 107.848 158.773 108.52C158.328 109.184 158.105 110.289 158.105 111.836V118H154.531V104.898H157.262L157.742 106.574H157.941C158.34 105.941 158.887 105.465 159.582 105.145C160.285 104.816 161.082 104.652 161.973 104.652C163.496 104.652 164.652 105.066 165.441 105.895C166.23 106.715 166.625 107.902 166.625 109.457V118ZM188.27 118H184.695V110.348C184.695 109.402 184.535 108.695 184.215 108.227C183.902 107.75 183.406 107.512 182.727 107.512C181.812 107.512 181.148 107.848 180.734 108.52C180.32 109.191 180.113 110.297 180.113 111.836V118H176.539V104.898H179.27L179.75 106.574H179.949C180.301 105.973 180.809 105.504 181.473 105.168C182.137 104.824 182.898 104.652 183.758 104.652C185.719 104.652 187.047 105.293 187.742 106.574H188.059C188.41 105.965 188.926 105.492 189.605 105.156C190.293 104.82 191.066 104.652 191.926 104.652C193.41 104.652 194.531 105.035 195.289 105.801C196.055 106.559 196.438 107.777 196.438 109.457V118H192.852V110.348C192.852 109.402 192.691 108.695 192.371 108.227C192.059 107.75 191.562 107.512 190.883 107.512C190.008 107.512 189.352 107.824 188.914 108.449C188.484 109.074 188.27 110.066 188.27 111.426V118ZM202.965 111.426C202.965 112.723 203.176 113.703 203.598 114.367C204.027 115.031 204.723 115.363 205.684 115.363C206.637 115.363 207.32 115.035 207.734 114.379C208.156 113.715 208.367 112.73 208.367 111.426C208.367 110.129 208.156 109.156 207.734 108.508C207.312 107.859 206.621 107.535 205.66 107.535C204.707 107.535 204.02 107.859 203.598 108.508C203.176 109.148 202.965 110.121 202.965 111.426ZM212.023 111.426C212.023 113.559 211.461 115.227 210.336 116.43C209.211 117.633 207.645 118.234 205.637 118.234C204.379 118.234 203.27 117.961 202.309 117.414C201.348 116.859 200.609 116.066 200.094 115.035C199.578 114.004 199.32 112.801 199.32 111.426C199.32 109.285 199.879 107.621 200.996 106.434C202.113 105.246 203.684 104.652 205.707 104.652C206.965 104.652 208.074 104.926 209.035 105.473C209.996 106.02 210.734 106.805 211.25 107.828C211.766 108.852 212.023 110.051 212.023 111.426ZM222.289 104.652C222.773 104.652 223.176 104.688 223.496 104.758L223.227 108.109C222.938 108.031 222.586 107.992 222.172 107.992C221.031 107.992 220.141 108.285 219.5 108.871C218.867 109.457 218.551 110.277 218.551 111.332V118H214.977V104.898H217.684L218.211 107.102H218.387C218.793 106.367 219.34 105.777 220.027 105.332C220.723 104.879 221.477 104.652 222.289 104.652ZM231.301 107.195C230.543 107.195 229.949 107.438 229.52 107.922C229.09 108.398 228.844 109.078 228.781 109.961H233.797C233.781 109.078 233.551 108.398 233.105 107.922C232.66 107.438 232.059 107.195 231.301 107.195ZM231.805 118.234C229.695 118.234 228.047 117.652 226.859 116.488C225.672 115.324 225.078 113.676 225.078 111.543C225.078 109.348 225.625 107.652 226.719 106.457C227.82 105.254 229.34 104.652 231.277 104.652C233.129 104.652 234.57 105.18 235.602 106.234C236.633 107.289 237.148 108.746 237.148 110.605V112.34H228.699C228.738 113.355 229.039 114.148 229.602 114.719C230.164 115.289 230.953 115.574 231.969 115.574C232.758 115.574 233.504 115.492 234.207 115.328C234.91 115.164 235.645 114.902 236.41 114.543V117.309C235.785 117.621 235.117 117.852 234.406 118C233.695 118.156 232.828 118.234 231.805 118.234Z" fill="white"/>
<path d="M414.492 68.7893V67.8181V57.8041C414.492 57.4085 414.334 57.0291 414.055 56.7494C413.775 56.4696 413.396 56.3125 413 56.3125C412.604 56.3125 412.225 56.4696 411.945 56.7494C411.666 57.0291 411.508 57.4085 411.508 57.8041V67.8181V68.7893L410.538 68.8177C374.205 69.8811 343.952 94.3916 335.068 127.356C336.986 125.824 339.109 124.56 341.382 123.604C344.682 122.216 348.227 121.506 351.808 121.516C355.9 121.503 359.94 122.432 363.615 124.233C366.913 125.849 369.837 128.127 372.208 130.921C374.577 128.127 377.5 125.848 380.797 124.232C384.472 122.432 388.512 121.502 392.604 121.516C392.605 121.516 392.605 121.516 392.606 121.516L392.603 122.516C399.607 122.516 405.91 125.305 410.511 129.765L414.492 68.7893ZM414.492 68.7893L415.462 68.8177C451.8 69.8811 482.053 94.3914 490.932 127.356C489.016 125.824 486.893 124.56 484.621 123.604C481.322 122.216 477.777 121.506 474.198 121.516C470.105 121.502 466.065 122.431 462.39 124.232C459.091 125.848 456.167 128.127 453.797 130.921C451.427 128.127 448.503 125.849 445.205 124.233C441.53 122.432 437.49 121.502 433.397 121.516C426.451 121.504 419.775 124.207 414.792 129.047L414.489 129.342V129.765V179.824V180.824H415.489H416.98M414.492 68.7893L416.98 180.824M416.98 180.824V194.766C416.98 205.2 408.495 213.688 398.059 213.688C387.627 213.688 379.137 205.2 379.137 194.766C379.137 193.71 379.556 192.697 380.303 191.951C381.049 191.205 382.062 190.785 383.117 190.785C384.173 190.785 385.185 191.205 385.932 191.951C386.678 192.697 387.098 193.71 387.098 194.766V194.767C387.102 197.672 388.258 200.457 390.313 202.512C392.367 204.566 395.152 205.722 398.057 205.727H398.06C400.965 205.723 403.751 204.567 405.805 202.512C407.86 200.458 409.016 197.672 409.02 194.767V194.766V180.824H416.98Z" fill="#0166A3" stroke="white" stroke-width="2"/>
</svg>
