<svg xmlns="http://www.w3.org/2000/svg" id="Слой_2" data-name="Слой 2" viewBox="0 0 4146 2756">
  <defs/>
  <defs>
    <style>
      .cls-190{fill:none}.cls-125,.cls-190{stroke-miterlimit:10}.cls-125{stroke:#fff;fill:#002b32}.cls-167,.cls-170{font-size:100.81px;fill:#0166a3;font-family:FuturaPT-Book,Futura PT}.cls-170{font-size:48px;fill:#b3b3b3}.cls-173{letter-spacing:0}.cls-175{letter-spacing:-.02em}.cls-179{letter-spacing:-.04em}.cls-182{letter-spacing:-.02em}.cls-189{fill:#fff}.cls-190{stroke:#e6e6e6}text{letter-spacing:1px;}
    </style>
  </defs>
  <path fill="none" stroke="#007bca" stroke-miterlimit="10" d="M2761.5 917.5l-21 14-10-3-27 6-23 3-81 58-20-16-6 12-26-2-88 30-25 1540-78-1595-38-12-19 5-61-52-70 25-21-2v10l-26 2-75 905-42-824-20 3-30-16-48 44-13-7-63 50-18-13-39-6-16 253-74-298-21-16-20-8-49-55-70-31-85-50"/>
  <path fill="none" stroke="#027eca" stroke-miterlimit="10" d="M2762.9 913.6l-20.6 13.8-9.8-3-26.5 6-22.5 2.9-79.4 56.8-19.6-15.5-5.9 11.7-25.5-1.9-86.2 29.4-30.6 1505.6-6.1-120.2-25-452.9-24.5-449.1-14-245.5-16.5-290.1-37.3-11.5-18.6 5-60.1-50.4-68.7 24.7-20.7-1.8v9.8l-25.6 2.1-49.9 560.2-28.9 323.5-1.6-28.5-27.5-471.8-17.5-303.4-19.6 2.8-29.5-15.7-47.2 42.6-12.8-6.9-62 48.4-17.7-12.8-38.3-6-17.3 245.7-74.1-292.1-20.7-15.8-19.7-7.9-48.2-54-68.8-30.6-83.6-49.2"/>
  <path fill="none" stroke="#0581ca" stroke-miterlimit="10" d="M2764.3 909.8l-20.2 13.4-9.6-2.8-25.9 5.8-22.1 3-77.8 55.5-19.2-15.1-5.9 11.5-24.9-1.8-84.4 28.9-36.2 1471-6.2-118.1-27.2-439-26.5-440.5-15.7-239.3-18.5-283.5-36.7-11.1-18.3 5-59.1-48.8-67.5 24.5-20.2-1.7-.2 9.6-25 2.1-52.5 548.9-30.2 313.6-1.7-27.9-30.4-458.3-19-297.2-19.3 2.7-29-15.6-46.5 41.3-12.5-6.8-61 46.9-17.4-12.6-37.6-6.1-18.5 238.4-74.4-286.3-20.3-15.4-19.3-7.8-47.6-53-67.6-30.2-82.1-48.5"/>
  <path fill="none" stroke="#0785c9" stroke-miterlimit="10" d="M2765.7 905.9l-19.8 13.2-9.4-2.8-25.4 5.8-21.5 2.9-76.3 54.3-18.9-14.6-5.7 11.2-24.4-1.7-82.7 28.3-41.6 1436.6-6.5-116.1-29.3-425.1-28.6-431.9-17.4-233.2-20.5-276.9-35.9-10.5-18 4.9-58.1-47.1-66.3 24.1-19.9-1.5-.2 9.4-24.6 2.2-55 537.6-31.4 303.6-1.9-27.4-33.2-444.6-20.7-291.1-18.9 2.5-28.4-15.3-45.8 39.9-12.3-6.7-60 45.3-17.1-12.4-36.9-6.1-19.8 231.1-74.6-280.4-19.9-15.2-19-7.7-46.8-52-66.4-29.8-80.7-47.7"/>
  <path fill="none" stroke="#0988c9" stroke-miterlimit="10" d="M2767 902.1l-19.3 12.8-9.2-2.6-24.8 5.6-21.1 2.9-74.7 53.1-18.5-14.2-5.6 10.9-23.9-1.6-80.9 27.9-47.2 1402-6.6-114-31.5-411.2-30.6-423.2-19.1-227.1-22.5-270.3-35.3-10.1-17.7 4.8-57.1-45.4-65.1 23.9-19.5-1.4-.2 9.2-24.2 2.3-57.6 526.2-32.6 293.7-2-26.8-36-431-22.3-285-18.6 2.4-27.9-15.1-45 38.5-12.1-6.6-59 43.7-16.8-12.1-36.2-6.2-21 223.7-74.8-274.5-19.6-14.9-18.6-7.6-46.2-51-65.1-29.3-79.3-47"/>
  <path fill="none" stroke="#0c8bc9" stroke-miterlimit="10" d="M2768.4 898.2l-18.9 12.6-9-2.6-24.3 5.6-20.6 2.8-73.1 52-18.1-13.8-5.5 10.6-23.4-1.5-79.1 27.3-52.8 1367.6-6.7-112-33.7-397.3-32.7-414.6-20.8-221-24.5-263.7-34.6-9.6-17.3 4.8-56.2-43.8-63.8 23.6-19.2-1.2-.3 9-23.6 2.3-60.2 515-33.9 283.7-2.2-26.3-38.8-417.4-23.9-278.8-18.2 2.2-27.4-14.8-44.3 37.1-11.9-6.4-57.9 42-16.5-11.9-35.5-6.2-22.3 216.4-75-268.6-19.2-14.7-18.3-7.5-45.4-49.9-64-29-77.8-46.1"/>
  <path fill="none" stroke="#0e8ec9" stroke-miterlimit="10" d="M2769.8 894.4l-18.5 12.2-8.8-2.4-23.7 5.4-20.2 2.9-71.5 50.7-17.7-13.4-5.5 10.4-22.8-1.4-77.3 26.7-58.4 1333.1-6.8-109.9-35.9-383.4-34.8-406-22.5-214.9-26.4-257-34-9.2-17 4.8-55.1-42.2-62.7 23.4-18.7-1.1-.4 8.8-23.2 2.4-62.7 503.6-35.2 273.8-2.3-25.8-41.6-403.7-25.5-272.7-17.9 2-26.9-14.5-43.5 35.7-11.7-6.3-56.9 40.5-16.2-11.7-34.8-6.2-23.6 209-75.1-262.8-19-14.3-17.9-7.4-44.7-49-62.7-28.6-76.4-45.3"/>
  <path fill="none" stroke="#1192c8" stroke-miterlimit="10" d="M2771.2 890.5l-18.1 12-8.6-2.4-23.2 5.4-19.7 2.8-69.9 49.5-17.3-12.9-5.4 10.1-22.3-1.3-75.5 26.2-63.9 1298.6-7-107.9-38.1-369.5-36.8-397.3-24.2-208.8-28.5-250.5-33.3-8.7-16.6 4.8-54.2-40.6-61.4 23.1-18.4-.9-.5 8.6-22.7 2.5-65.3 492.3-36.4 263.7-2.4-25.1-44.4-390.1-27.2-266.6-17.5 1.9L1886 995l-42.7 34.4-11.5-6.2-55.9 38.9-15.9-11.5-34.1-6.2-24.8 201.7-75.4-256.9-18.6-14.1-17.5-7.3-44-48-61.5-28.1-75-44.6"/>
  <path fill="none" stroke="#1395c8" stroke-miterlimit="10" d="M2772.6 886.7l-17.7 11.6-8.4-2.2-22.6 5.2-19.3 2.8-68.3 48.3-17-12.5-5.2 9.9-21.8-1.2-73.8 25.6-69.4 1264.1-7.2-105.8-40.2-355.6-38.9-388.7-25.9-202.7-30.4-243.8-32.7-8.3-16.3 4.8-53.2-38.9-60.2 22.8-18-.9-.5 8.5-22.3 2.5-67.8 481-37.7 253.8-2.5-24.6-47.2-376.5-28.8-260.4-17.2 1.7-25.9-14.1-42 33.1-11.2-6.2-54.9 37.3-15.6-11.3-33.4-6.2-26.1 194.4-75.5-251-18.3-13.9-17.2-7.2-43.3-46.9-60.3-27.8-73.5-43.8"/>
  <path fill="none" stroke="#1598c8" stroke-miterlimit="10" d="M2773.9 882.8l-17.2 11.4-8.2-2.2-22.1 5.2-18.7 2.7-66.9 47.1-16.5-12-5.1 9.6-21.3-1.1-72 25.1-75 1229.6-7.3-103.8-42.4-341.7-41-380.1-27.6-196.5-32.4-237.3-31.9-7.7-16 4.7-52.3-37.3-58.9 22.5-17.6-.7-.6 8.3-21.8 2.6-70.4 469.6-38.9 243.9-2.7-24-50.1-362.9-30.4-254.3-16.8 1.5-25.4-13.8-41.2 31.7-11-6.1-53.9 35.7-15.3-11-32.8-6.3-27.3 187.1-75.7-245.2-17.9-13.5-16.8-7.2-42.6-45.9-59.1-27.3-72.1-43.1"/>
  <path fill="none" stroke="#189bc8" stroke-miterlimit="10" d="M2775.3 878.9l-16.8 11.1-8-2-21.5 5-18.3 2.8-65.3 45.8-16.1-11.6-5.1 9.4-20.7-1-70.2 24.5-80.6 1195.1-7.4-101.7-44.6-327.8-43-371.4-29.3-190.5-34.4-230.7-31.3-7.2-15.6 4.7-51.3-35.7L2138 920l-17.2-.6-.7 8-21.3 2.7-72.9 458.4-40.2 233.9-2.8-23.5-52.9-349.3-32-248.1-16.5 1.4-24.8-13.6-40.5 30.3-10.8-6-52.9 34.2-15-10.9-32.1-6.3-28.5 179.8-75.9-239.3-17.6-13.3-16.5-7-41.8-45-57.9-26.9-70.7-42.3"/>
  <path fill="none" stroke="#1a9ec8" stroke-miterlimit="10" d="M2776.7 875.1l-16.4 10.8-7.8-2-21 5-17.8 2.7-63.7 44.6-15.7-11.1-5 9-20.2-.9-68.4 24-86.2 1160.7-7.5-99.7-46.8-313.9-45.1-362.8-31-184.3-36.4-224.1-30.6-6.8-15.3 4.6-50.3-34-56.5 22-16.9-.4-.7 7.8-20.9 2.8-75.5 447-41.4 224-2.9-23-55.7-335.6-33.7-242-16 1.2-24.4-13.4-39.8 29-10.5-5.9-51.9 32.6-14.7-10.6-31.4-6.4-29.8 172.4-76.1-233.4-17.2-13-16.2-6.9-41.1-44-56.7-26.5-69.2-41.5"/>
  <path fill="none" stroke="#1ca2c7" stroke-miterlimit="10" d="M2778.1 871.2l-16.1 10.5-7.5-1.8-20.4 4.9-17.4 2.6-62.1 43.4-15.3-10.7-4.9 8.8-19.6-.8-66.7 23.5-91.7 1126.1-7.8-97.6-48.9-300-47.1-354.2-32.8-178.2-38.3-217.5-30-6.3-14.9 4.6-49.4-32.4-55.3 21.8-16.5-.3-.7 7.6-20.4 2.9-78.1 435.7-42.7 214-3.1-22.4-58.4-322-35.3-235.9-15.7 1.1-23.9-13.2-39 27.6-10.3-5.8-50.9 31-14.4-10.4-30.7-6.4-31 165.1-76.3-227.5-16.9-12.8-15.8-6.8-40.4-42.9-55.5-26.1-67.8-40.8"/>
  <path fill="none" stroke="#1fa5c7" stroke-miterlimit="10" d="M2779.5 867.4l-15.7 10.2-7.3-1.8-19.9 4.8-16.9 2.7-60.5 42.1-15-10.2-4.7 8.5-19.1-.7-65 22.9-97.2 1091.7-7.9-95.6-51.1-286.1-49.2-345.6-34.4-172.1-40.4-210.8-29.3-5.9-14.6 4.6-48.4-30.7-54 21.4-16.1-.1-.9 7.4-19.9 2.9-80.6 424.4-44 204.1-3.2-21.9-61.3-308.4-36.9-229.7-15.3.9-23.4-12.9-38.2 26.2-10.2-5.7-49.8 29.4-14.1-10.1-30-6.5-32.3 157.8-76.5-221.6-16.5-12.5-15.5-6.8-39.7-41.9-54.3-25.7-66.3-40"/>
  <path fill="none" stroke="#21a8c7" stroke-miterlimit="10" d="M2780.9 863.5l-15.3 9.9-7.1-1.7-19.3 4.8-16.5 2.6-58.9 41-14.6-9.9-4.7 8.3-18.5-.6-63.2 22.3L2460 1997.4l-8-93.4-53.3-272.3-51.3-336.9-36.1-166-42.3-204.3-28.6-5.3-14.3 4.5-47.4-29.1-52.9 21.2h-15.7l-.9 7.2-19.5 3-83.1 413.1-45.3 194.1-3.3-21.3-64.1-294.8-38.5-223.6-15 .7-22.9-12.6-37.5 24.8-9.9-5.6-48.8 27.9-13.8-10-29.3-6.5-33.6 150.5-76.6-215.8-16.2-12.2-15.1-6.6-39-41-53.1-25.3-64.9-39.2"/>
  <path fill="none" stroke="#23abc7" stroke-miterlimit="10" d="M2782.3 859.7l-14.9 9.6-6.9-1.6-18.8 4.6-15.9 2.6-57.4 39.8-14.2-9.4-4.6 8-18-.5-61.4 21.8-108.4 1022.7-8.1-91.4-55.5-258.4-53.3-328.3-37.8-159.9-44.4-197.6-27.9-4.9-14 4.5-46.4-27.5-51.6 20.9-15.4.2-.9 7-19 3.1-85.8 401.7-46.4 184.2-3.5-20.8-66.9-281.1-40.2-217.4-14.6.5-22.4-12.5-36.7 23.5-9.7-5.4-47.8 26.2-13.5-9.8-28.6-6.5-34.8 143.2-76.9-209.9-15.8-12-14.8-6.5-38.3-39.9-51.8-24.9-63.5-38.4"/>
  <path fill="none" stroke="#26afc6" stroke-miterlimit="10" d="M2783.6 855.8l-14.4 9.3-6.7-1.5-18.2 4.6-15.5 2.5-55.8 38.6-13.8-9-4.5 7.8-17.5-.4-59.6 21.2-113.9 988.2-8.4-89.3-57.6-244.5-55.4-319.7-39.5-153.7-46.3-191.1-27.3-4.4-13.6 4.5-45.5-25.9-50.4 20.7-14.9.3-1.1 6.8-18.5 3.1-88.3 390.4-47.7 174.3-3.6-20.2-69.7-267.6-41.8-211.2-14.3.3-21.8-12.2-36 22.1-9.5-5.3-46.8 24.6-13.2-9.5-27.9-6.5-36.1 135.8-77-204.1-15.5-11.6-14.5-6.5-37.5-38.9-50.7-24.5-62-37.6"/>
  <path fill="none" stroke="#28b2c6" stroke-miterlimit="10" d="M2785 852l-14 9-6.5-1.4-17.7 4.4-15 2.6-54.2 37.3-13.4-8.5-4.4 7.5-17-.3-57.8 20.7-119.5 953.7-8.5-87.3-59.8-230.5-57.5-311.1-41.2-147.7-48.3-184.4-26.6-4-13.3 4.5-44.5-24.3-49.1 20.4-14.6.5-1.1 6.6-18.1 3.2-90.8 379.1-49 164.3-3.7-19.7-72.6-253.9-43.4-205.1-13.9.2-21.3-12-35.3 20.7-9.2-5.2-45.8 23-12.9-9.3-27.2-6.5-37.4 128.5-77.2-198.2-15.2-11.4-14-6.4-36.9-37.9-49.4-24-60.6-36.9"/>
  <path fill="none" stroke="#2bb5c6" stroke-miterlimit="10" d="M2786.4 848.1l-13.6 8.7-6.3-1.3-17.1 4.4-14.6 2.5-52.6 36.1-13.1-8.1-4.3 7.2-16.4-.2-56.1 20.2-125 919.2-8.6-85.2-62-216.6-59.5-302.5-42.9-141.5-50.3-177.9-26-3.5-12.9 4.4-43.5-22.5-48 20.1-14.2.6-1.1 6.4-17.7 3.3-93.4 367.7L1937 1444l-3.8-19.2-75.4-240.2-45-199h-13.6l-20.8-11.7-34.5 19.3-9-5.1-44.7 21.5-12.7-9.1-26.5-6.6-38.6 121.1-77.4-192.3-14.9-11.1-13.7-6.2-36.1-36.9-48.2-23.7-59.2-36.1"/>
  <path fill="none" stroke="#2db8c6" stroke-miterlimit="10" d="M2787.8 844.2l-13.2 8.5-6.1-1.2-16.6 4.2-14.1 2.5-51 34.9-12.7-7.6-4.2 6.9-15.9-.1-54.3 19.6-130.6 884.8-8.7-83.2-64.2-202.7-61.6-293.9-44.6-135.4-52.3-171.3-25.2-2.9-12.6 4.3-42.6-20.9-46.7 19.8-13.9.8-1.2 6.2-17.1 3.3-96 356.5-51.5 144.4-4-18.6-78.1-226.7-46.7-192.8-13.2-.2-20.3-11.5-33.8 18-8.7-5-43.7 19.9-12.4-8.9-25.8-6.6-39.9 113.8-77.6-186.4-14.5-10.9-13.3-6.1-35.4-35.9-47.1-23.3-57.7-35.3"/>
  <path fill="none" stroke="#2fbbc6" stroke-miterlimit="10" d="M2789.2 840.4l-12.8 8.2-5.9-1.2-16 4.2-13.7 2.4-49.4 33.7-12.3-7.2-4.1 6.7h-15.4l-52.5 19.1-136.2 850.2-8.9-81.1-66.3-188.8-63.7-285.2-46.3-129.4-54.2-164.6-24.6-2.5-12.3 4.3-41.6-19.3-45.5 19.6-13.4.9-1.3 6-16.7 3.4-98.5 345.1-52.8 134.4-4.1-18-80.9-213-48.4-186.7-12.8-.3-19.8-11.3-33 16.6-8.5-4.9-42.7 18.3-12.1-8.7-25.1-6.6-41.1 106.5-77.8-180.5-14.2-10.6-13-6.1-34.7-34.9-45.8-22.8-56.3-34.6"/>
  <path fill="none" stroke="#32bfc5" stroke-miterlimit="10" d="M2790.6 836.5l-12.4 7.9-5.7-1-15.5 4-13.2 2.5-47.8 32.4-11.9-6.7-4 6.4-14.9.1-50.7 18.5-141.7 815.8-9.1-79.1-68.5-174.9-65.7-276.6-48-123.2-56.3-158.1-23.9-2-11.9 4.3-40.7-17.7-44.2 19.3-13.1 1.1-1.4 5.8-16.2 3.5-101 333.8-54 124.4-4.3-17.4-83.8-199.5-49.9-180.5-12.5-.5-19.3-11-32.2 15.2-8.4-4.8-41.6 16.7-11.8-8.4-24.4-6.7-42.4 99.2-78-174.7-13.8-10.3-12.7-6-33.9-33.8-44.6-22.5-54.9-33.8"/>
  <path fill="none" stroke="#34c2c5" stroke-miterlimit="10" d="M2791.9 832.7l-11.9 7.6-5.5-1-15 4-12.6 2.4-46.3 31.2-11.5-6.3-4 6.2-14.3.2-48.9 18-147.3 781.2-9.2-77-70.7-161-67.8-268-49.7-117.1-58.2-151.4-23.3-1.6-11.6 4.3-39.6-16.1-43.1 19.1-12.7 1.2-1.4 5.6-15.7 3.5-103.7 322.5-55.2 114.5-4.4-16.9-86.6-185.8-51.6-174.4-12.1-.6-18.7-10.8-31.6 13.8-8.1-4.7-40.6 15.2-11.5-8.3-23.7-6.7-43.7 91.9-78.1-168.8-13.5-10.1-12.3-5.8-33.3-32.9-43.4-22-53.4-33.1"/>
  <path fill="none" stroke="#36c5c5" stroke-miterlimit="10" d="M2793.3 828.8l-11.5 7.3-5.3-.8-14.4 3.9-12.2 2.3-44.7 30-11.2-5.8-3.8 5.9-13.8.3-47.2 17.4-152.8 746.8-9.3-75-72.9-147.1-69.8-259.3-51.4-111-60.3-144.9-22.6-1.1-11.2 4.3-38.7-14.5-41.8 18.8-12.4 1.3-1.4 5.5-15.3 3.6-106.2 311.1-56.5 104.6-4.5-16.3-89.4-172.2-53.2-168.3-11.8-.8-18.2-10.6-30.8 12.6-7.9-4.7-39.6 13.6-11.2-8-23-6.8-44.9 84.6-78.4-163-13.1-9.7-12-5.8-32.5-31.9-42.2-21.6-52-32.3"/>
  <path fill="none" stroke="#39c8c5" stroke-miterlimit="10" d="M2794.7 825l-11.1 7-5.1-.8-13.9 3.8-11.7 2.3-43.1 28.9-10.8-5.5-3.7 5.6-13.3.5-45.4 16.8-158.4 712.3-9.5-72.9-75-133.2-71.9-250.7-53.1-104.9-62.2-138.2-21.9-.7-11 4.3-37.7-12.8-40.6 18.5-11.9 1.4-1.6 5.3-14.8 3.6-108.7 299.9-57.8 94.6-4.6-15.8-92.2-158.6-54.9-162.1-11.4-1-17.7-10.3-30 11.2-7.7-4.5-38.6 11.9-10.9-7.8-22.3-6.8-46.2 77.3-78.5-157.1-12.8-9.5-11.6-5.7-31.9-30.8-40.9-21.3-50.6-31.5"/>
  <path fill="none" stroke="#3bcbc5" stroke-miterlimit="10" d="M2796.1 821.1l-10.7 6.7-4.9-.6-13.3 3.7-11.3 2.3-41.5 27.6-10.4-5-3.7 5.3-12.7.5L2644 878l-163.9 677.8-9.7-70.9-77.2-119.3-74-242.1-54.8-98.8-64.2-131.6-21.2-.1-10.6 4.1-36.8-11.1-39.3 18.2-11.6 1.6-1.6 5.1-14.3 3.7-111.3 288.5-59.1 84.7-4.7-15.3-95.1-144.9-56.4-156-11.1-1.1-17.2-10.1-29.3 9.8-7.4-4.4-37.6 10.3-10.6-7.5-21.6-6.8-47.4 69.8-78.8-151.2-12.4-9.2-11.3-5.5-31.1-29.9-39.8-20.8-49.2-30.7"/>
  <path fill="none" stroke="#3ecfc4" stroke-miterlimit="10" d="M2797.5 817.3l-10.3 6.4-4.7-.6-12.8 3.6-10.8 2.3-40 26.4-9.9-4.6-3.6 5.1-12.2.6-41.8 15.8-169.5 643.3-9.8-68.8-79.4-105.4-76-233.4-56.5-92.7-66.2-125-20.6.3-10.3 4.1-35.7-9.5-38.2 18-11.2 1.7-1.6 4.9-13.9 3.8-113.9 277.2-60.3 74.7-4.9-14.7-97.8-131.3-58.1-149.9-10.7-1.3-16.7-9.8-28.5 8.4-7.2-4.3-36.6 8.8-10.3-7.4-20.9-6.8-48.7 62.5-78.9-145.3-12.1-9-11-5.4-30.4-28.9-38.5-20.4-47.8-29.9"/>
  <path fill="none" stroke="#40d2c4" stroke-miterlimit="10" d="M2798.8 813.4l-9.8 6.1-4.5-.5-12.2 3.6-10.3 2.2-38.5 25.2-9.5-4.1-3.5 4.8-11.7.7-40 15.3-175.1 608.8-9.9-66.8-81.6-91.5-78.1-224.8-58.2-86.6-68.2-118.4-19.9.8-9.9 4.1-34.8-7.9-36.9 17.7-10.8 1.9-1.8 4.7-13.4 3.8-116.4 265.9-61.5 64.8-5.1-14.2-100.6-117.7-59.7-143.7-10.4-1.5-16.2-9.6-27.7 7.1-7-4.2-35.6 7.2-10-7.2-20.3-6.8-49.9 55.2-79.1-139.4-11.7-8.7-10.6-5.4-29.7-27.8-37.3-20-46.4-29.2"/>
  <path fill="none" stroke="#42d5c4" stroke-miterlimit="10" d="M2800.2 809.5l-9.4 5.9-4.3-.4-11.7 3.4-9.8 2.3-36.9 23.9-9.2-3.7-3.3 4.6-11.2.8-38.3 14.7-180.6 574.3-10.1-64.7-83.7-77.6-80.2-216.2-59.9-80.4-70.1-111.9-19.3 1.3-9.5 4.1-33.9-6.3-35.6 17.5-10.5 2-1.8 4.5-13 3.9-118.9 254.6-62.8 54.8-5.2-13.6-103.4-104.1-61.4-137.6-10-1.6-15.6-9.4-27.1 5.7-6.7-4.1-34.6 5.6-9.7-6.9-19.6-6.9-51.1 47.9-79.3-133.6-11.5-8.4-10.2-5.3-28.9-26.8-36.2-19.6-44.9-28.4"/>
  <path fill="none" stroke="#45d8c4" stroke-miterlimit="10" d="M2801.6 805.7l-9 5.5-4.1-.3-11.1 3.4-9.4 2.2-35.3 22.7-8.8-3.2-3.3 4.3-10.6.9-36.5 14.1-186.2 539.9-10.2-62.7-85.9-63.7-82.2-207.6-61.6-74.3-72.2-105.2-18.6 1.7-9.2 4.1-32.9-4.6-34.4 17.1-10.1 2.2-1.8 4.2-12.5 4.1-121.6 243.2-64 44.9-5.3-13.1-106.3-90.4-62.9-131.5-9.7-1.8-15.1-9.1-26.3 4.3-6.6-4-33.5 4-9.4-6.7-18.9-6.9-52.4 40.6-79.5-127.7-11.1-8.2-9.8-5.1-28.3-25.9-34.9-19.2-43.5-27.6"/>
  <path fill="none" stroke="#47dcc3" stroke-miterlimit="10" d="M2803 801.8l-8.6 5.3-3.9-.2-10.6 3.2-8.9 2.2-33.7 21.5-8.4-2.7-3.2 4-10.1 1-34.7 13.6-191.7 505.3-10.4-60.5-88.1-49.9-84.3-198.9-63.3-68.2-74.1-98.7-17.9 2.3-8.9 4-31.9-3-33.2 16.9-9.8 2.3-1.9 4-12 4.1-124.1 231.9-65.3 35-5.4-12.5-109.1-76.9-64.6-125.3-9.3-1.9-14.6-8.9-25.5 2.9-6.4-3.9-32.5 2.5-9.1-6.5-18.2-7-53.7 33.3-79.6-121.9-10.8-7.8-9.5-5.1-27.5-24.8-33.7-18.8-42.1-26.9"/>
  <path fill="none" stroke="#49dfc3" stroke-miterlimit="10" d="M2804.4 798l-8.2 4.9-3.7-.1-10 3.2-8.5 2.1-32.1 20.3-8-2.3-3.1 3.7-9.6 1.2-32.9 13-197.3 470.9-10.5-58.5-90.3-36-86.4-190.3-65-62.1-76.1-92-17.2 2.7-8.6 4-30.9-1.4-32 16.6-9.3 2.5-2 3.8-11.6 4.2-126.6 220.6-66.6 25-5.5-12-111.9-63.2-66.2-119.2-9-2.1-14.1-8.7-24.8 1.6-6.1-3.8-31.5.9-8.9-6.3-17.4-7-54.9 26-79.9-116-10.4-7.6-9.2-5-26.8-23.8-32.5-18.4-40.6-26.1"/>
  <path fill="none" stroke="#4ce2c3" stroke-miterlimit="10" d="M2805.8 794.1l-7.8 4.7h-3.5l-9.5 3-8 2.2-30.5 19-7.6-1.8-3 3.4-9.1 1.2-31.2 12.5-202.8 436.5-10.7-56.5-92.4-22.1-88.4-181.7-66.7-56-78.1-85.4-16.6 3.2-8.2 3.9-30 .3-30.7 16.4-9 2.6-2 3.6-11.1 4.3-129.2 209.2-67.9 15.1-5.7-11.5-114.7-49.6-67.8-113-8.6-2.3-13.6-8.4-24 .2-5.9-3.7-30.5-.7-8.6-6-16.7-7.1-56.2 18.6-80-110-10.1-7.4-8.8-4.9-26.1-22.8-31.3-17.9-39.2-25.4"/>
  <path fill="none" stroke="#4ee5c3" stroke-miterlimit="10" d="M2807.1 790.3l-7.3 4.3-3.3.1-8.9 3-7.5 2.1-29 17.9-7.2-1.5-3 3.2-8.5 1.3-29.4 12-208.4 401.9-10.8-54.4-94.6-8.2-90.5-173-68.4-49.9-80.1-78.8-15.9 3.6-7.9 3.9-29 1.9-29.5 16.1-8.6 2.8-2.1 3.4-10.6 4.3-131.8 198-69 5.1-5.9-10.9-117.5-36-69.4-106.9-8.2-2.4-13.2-8.2-23.2-1.2-5.7-3.5-29.5-2.3-8.3-5.9-16-7.1-57.4 11.3-80.3-104.2-9.7-7.1-8.5-4.7-25.4-21.9-30.1-17.5-37.7-24.6"/>
  <path fill="none" stroke="#50e8c3" stroke-miterlimit="10" d="M2808.5 786.4l-7 4.1-3 .2-8.4 2.9-7 2-27.4 16.7-6.9-1-2.8 2.9-7.9 1.4-27.7 11.4-213.9 367.5-11-52.4-96.8 5.7-92.5-164.4-70.1-43.8-82.1-72.2-15.3 4.1-7.5 3.9-28 3.6-28.3 15.8-8.2 2.9-2.2 3.2-10.2 4.4-134.3 186.6-70.3-4.9-6-10.3-120.3-22.3-71.1-100.8-7.8-2.6-12.6-7.9-22.6-2.6-5.4-3.4-28.5-3.9-8-5.7-15.3-7.1-58.7 4-80.4-98.3-9.4-6.8-8.1-4.7-24.7-20.8-28.9-17.2-36.3-23.8"/>
  <path fill="none" stroke="#53ecc2" stroke-miterlimit="10" d="M2809.9 782.5l-6.6 3.8-2.9.3-7.7 2.8-6.6 2-25.8 15.5-6.5-.6-2.7 2.7-7.4 1.5-25.9 10.9-219.5 332.9-11.1-50.3-99 19.6-94.6-155.8-71.8-37.6-84.1-65.7-14.5 4.6-7.3 3.9-27 5.2-27.1 15.5-7.8 3.1-2.3 3-9.6 4.5-136.9 175.3-71.6-14.9-6.1-9.7-123.1-8.8-72.7-94.6-7.5-2.7-12.1-7.8-21.8-3.9-5.2-3.3-27.5-5.5-7.7-5.4-14.6-7.1-60-3.4-80.6-92.5-9-6.5-7.8-4.6-24-19.8-27.6-16.7-34.9-23"/>
  <path fill="none" stroke="#55efc2" stroke-miterlimit="10" d="M2811.3 778.7l-6.2 3.5-2.7.4-7.2 2.7-6.1 2-24.2 14.2-6.1-.1-2.6 2.4-6.9 1.6-24.1 10.3-225.1 298.5-11.3-48.3-101.1 33.5-96.7-147.1-73.5-31.6-86-59-13.9 5.1-6.9 3.8-26.1 6.8-25.8 15.3-7.5 3.2-2.3 2.8-9.2 4.5-139.4 164-72.9-24.8-6.2-9.2-126 4.9-74.3-88.5-7.1-2.9-11.6-7.5-21-5.3-5-3.2-26.5-7.1-7.4-5.2-13.9-7.1-61.2-10.7-80.8-86.6-8.7-6.3-7.5-4.5-23.2-18.8-26.5-16.3-33.4-22.2"/>
  <path fill="none" stroke="#58f2c2" stroke-miterlimit="10" d="M2812.7 774.2l-5.8 3.3-2.5.4-6.6 2.6-5.7 2-22.6 13-5.7.3-2.6 2.2-6.3 1.7-22.4 9.7-230.6 264-11.4-46.2-103.3 47.4-98.7-138.5-75.2-25.5-88.1-52.4-13.2 5.6-6.5 3.8-25.2 8.4-24.6 15-7.1 3.4-2.3 2.6-8.8 4.6-142 152.6-74.1-34.7-6.3-8.7-128.8 18.6-75.9-82.4-6.8-3.1-11.1-7.2-20.3-6.7-4.8-3.1-25.4-8.6-7.1-5-13.2-7.2-62.5-18-81-80.8-8.3-5.9-7.1-4.4-22.5-17.8-25.3-15.9-32-21.5"/>
  <path fill="none" stroke="#5af5c2" stroke-miterlimit="10" d="M2814.1 762.4l-5.4 2.9-2.3.6-6.1 2.5-5.2 2-21 11.7-5.3.8-2.5 1.9-5.8 1.8-20.6 9.2-236.2 229.5-11.5-44.2-105.5 61.3-100.8-129.9-76.9-19.3-90-45.8-12.6 6-6.2 3.8-24.1 10.1-23.4 14.7-6.7 3.5-2.5 2.4-8.3 4.7-144.5 141.3-75.4-44.7-6.4-8.1-131.6 32.2-77.6-76.2-6.4-3.3-10.6-7-19.5-8-4.6-3.1-24.4-10.2-6.8-4.8-12.5-7.2-63.7-25.3-81.2-74.9-8-5.7-6.8-4.3-21.8-16.8-24-15.5-30.6-20.7"/>
  <path fill="none" stroke="#5cf9c1" stroke-miterlimit="10" d="M2828.5 755.1l-4.9 2.6-2.1.6-5.6 2.5-4.7 1.9-19.4 10.6-5 1.2-2.3 1.6-5.3 1.9-18.8 8.7-241.7 194.9-11.8-42.1-107.6 75.2-102.9-121.2-78.6-13.2-92-39.2-11.9 6.5-5.8 3.7-23.2 11.7-22.2 14.4-6.3 3.7-2.5 2.2-7.8 4.8-147.1 130-76.7-54.7-6.6-7.5-134.3 45.7-79.3-70-6-3.4-10.1-6.8-18.8-9.4-4.3-3-23.4-11.8-6.5-4.5-11.8-7.3-65-32.6-81.4-69-7.7-5.5-6.4-4.1-21-15.8-22.9-15.1-29.1-20"/>
  <path fill="none" stroke="#5ffcc1" stroke-miterlimit="10" d="M2849 746.3l-4.5 2.3-1.9.8-5 2.3-4.2 1.9-18 9.3-4.5 1.7-2.3 1.3-4.7 2-17 8.2-247.3 160.5-11.9-40.1-109.8 89.1L2313 873l-80.3-7.1-94-32.6-11.3 6.9-5.5 3.7-22.2 13.4-20.9 14.2-6 3.7-2.5 2.1-7.4 4.8-149.7 118.7-77.8-64.6-6.8-7-137.2 59.4-80.8-64-5.7-3.5-9.6-6.6-18-10.7-4.1-2.9-22.4-13.4-6.2-4.3-11.1-7.3-66.3-40-81.5-63.1-7.4-5.2-6-4-20.4-14.8-21.6-14.7-27.7-19.2"/>
  <path fill="none" stroke="#61ffc1" stroke-miterlimit="10" d="M2869.5 737.5l-309 154-12-38-112 103-107-104-82-1-96-26-224 158-86-81-140 73-384-269"/>
  <path fill="#1672ff" stroke="#62fec2" stroke-miterlimit="10" d="M2850.1 744.1L2541 888.9l-12.6-37.7-112.6 98.1-107.7-103.8-81.8-2.2-50.6-14.3-44.7-10.7-221.2 161-85-76-15.9 8.6-123.8 60.6-190.6-134.1-189.6-126"/>
  <path fill="#1672ff" stroke="#63fec3" stroke-miterlimit="10" d="M2830.7 750.8l-309.2 135.6-13.1-37.4-113.3 93.2-108.3-103.6-81.7-3.6-50.5-14.7-44-9.3-218.5 164.1-84.1-71-15.6 8.8-123.7 56.7-190.8-135-185.7-116.3"/>
  <path fill="#1672ff" stroke="#64fdc4" stroke-miterlimit="10" d="M2811.3 757.4L2502 883.8l-13.7-37.1-113.9 88.3-109-103.4-81.4-4.8-50.5-15.2-43.4-7.8L1874.4 971l-83.1-66.2-15.4 9.2-123.6 52.6-191-135.7-181.7-106.7"/>
  <path fill="#1672ff" stroke="#65fcc5" stroke-miterlimit="10" d="M2791.8 764l-309.2 117.3-14.4-36.8-114.5 83.4L2244 824.6l-81.2-6-50.4-15.7-42.7-6.4-212.9 170.3-82.3-61.2-15.2 9.4-123.5 48.6-191.1-136.5-177.8-97"/>
  <path fill="#1672ff" stroke="#67fcc6" stroke-miterlimit="10" d="M2772.4 770.6l-309.3 108.1-15-36.5-115.1 78.5-110.4-103-81-7.4-50.3-16.1-42.1-4.9-210.1 173.3-81.3-56.2-15 9.6-123.4 44.6-191.3-137.3-173.8-87.3"/>
  <path fill="#1672ff" stroke="#68fbc7" stroke-miterlimit="10" d="M2753 777.3l-309.4 98.9-15.5-36.2-115.8 73.6-111-102.9-80.9-8.6-50.3-16.7-41.4-3.3-207.3 176.3-80.4-51.2-14.7 9.9-123.3 40.6-191.5-138.1-169.9-77.7"/>
  <path fill="#1672ff" stroke="#69fac8" stroke-miterlimit="10" d="M2733.6 783.7l-309.5 89.7-16.1-35.9-116.4 68.7-111.7-102.7-80.7-9.8-50.2-17.2-40.7-1.9L1803.7 954l-79.4-46.3-14.6 10.2-123.1 36.6-191.7-138.9-165.9-68"/>
  <path fill="#1672ff" stroke="#6afac9" stroke-miterlimit="10" d="M2727.2 783.6l-309.6 80.6-16.6-35.6-117 63.8-112.5-102.5-80.4-11.1-50.1-17.7-40.1-.4-201.8 182.5-78.5-41.3-14.4 10.3-123 32.6-191.9-139.6-161.9-58.3"/>
  <path fill="#1672ff" stroke="#6bf9ca" stroke-miterlimit="10" d="M2734.8 777.3l-309.6 71.4-17.3-35.3-117.6 58.8L2177.2 770l-80.3-12.4-50-18.2-39.5 1.1-199 185.6-77.6-36.4-14.1 10.6-122.9 28.6-192-140.4-158-48.7"/>
  <path fill="#1672ff" stroke="#6cf8cb" stroke-miterlimit="10" d="M2742.5 778.1l-309.8 62.2-17.8-35-118.3 53.9-113.7-102.1-80.1-13.6-50-18.6-38.8 2.5L1817.7 916l-76.6-31.4-13.9 10.9-122.8 24.6-192.2-141.2-154.1-39"/>
  <path fill="#1672ff" stroke="#6df8cc" stroke-miterlimit="10" d="M2750.1 778.9l-309.8 53-18.5-34.7-118.8 49-114.5-101.9-79.9-14.9-49.8-19.1-38.2 4L1827.1 906l-75.7-26.5-13.7 11.2-122.6 20.6-192.5-142-150.1-29.4"/>
  <path fill="#1672ff" stroke="#6ef7cd" stroke-miterlimit="10" d="M2757.7 779.6l-309.9 43.8-19-34.3-119.5 44.1-115.1-101.7-79.7-16.1-49.8-19.7-37.6 5.5L1836.4 896l-74.7-21.5-13.5 11.4-122.5 16.6-192.6-142.8-146.2-19.7"/>
  <path fill="#1672ff" stroke="#70f6ce" stroke-miterlimit="10" d="M2765.3 780.4l-310 34.6-19.6-34-120.1 39.2-115.8-101.5-79.5-17.4-49.7-20.1-36.9 7L1845.8 886l-73.8-16.6-13.3 11.7-122.4 12.5-192.8-143.5-142.2-10"/>
  <path fill="#1672ff" stroke="#71f6cf" stroke-miterlimit="10" d="M2772.9 781.2l-310 25.4-20.2-33.7-120.7 34.3-116.5-101.3-79.3-18.7-49.7-20.6-36.2 8.5-185.2 200.8-72.9-11.6-13 11.9-122.3 8.6-193-144.3-138.2-.4"/>
  <path fill="#1672ff" stroke="#72f5d0" stroke-miterlimit="10" d="M2780.5 782l-310.1 16.2-20.8-33.4-121.3 29.4-117.2-101.1-79.1-20-49.5-21.1-35.7 10-182.4 203.9-71.9-6.6-12.8 12.1-122.2 4.6-193.1-145.1-134.3 9.3"/>
  <path fill="#1672ff" stroke="#73f4d1" stroke-miterlimit="10" d="M2788.1 782.8l-310.1 7-21.4-33.1-122 24.5-117.8-100.9-78.9-21.3-49.5-21.6-35 11.5-179.6 207-71-1.7-12.6 12.4-122.1.6-193.3-145.9-130.4 18.9"/>
  <path fill="#1672ff" stroke="#74f4d2" stroke-miterlimit="10" d="M2795.8 781.8l-310.3-2.1-21.9-32.9-122.6 19.7-118.6-100.8-78.7-22.4-49.4-22.1-34.3 12.9-176.9 210.1-70 3.2-12.4 12.7-122-3.4L1485.2 710l-126.4 28.6"/>
  <path fill="#1672ff" stroke="#75f3d3" stroke-miterlimit="10" d="M2803.4 780.6L2493 769.3l-22.5-32.6-123.2 14.8-119.2-100.6-78.6-23.7-49.3-22.6-33.6 14.4-174.1 213.1-69.1 8.3-12.2 12.9-121.8-7.5-193.8-147.4-122.4 38.2"/>
  <path fill="#1672ff" stroke="#76f2d4" stroke-miterlimit="10" d="M2811 779.4l-310.4-20.5-23.1-32.3-123.9 9.9-119.9-100.4-78.3-25-49.2-23.1-33.1 15.9-171.3 216.2-68.2 13.2-12 13.2L1700 835l-193.9-148.2-118.5 47.9"/>
  <path fill="#1672ff" stroke="#77f2d5" stroke-miterlimit="10" d="M2818.6 778.2l-310.5-29.7-23.7-32-124.4 5-120.6-100.2-78.2-26.3-49.1-23.5-32.4 17.3-168.5 219.3-67.3 18.1-11.8 13.4-121.5-15.4-194.1-149-114.5 57.6"/>
  <path fill="#1672ff" stroke="#79f1d6" stroke-miterlimit="10" d="M2826.2 776.9l-310.5-38.8-24.3-31.7-125.1.1-121.3-100-77.9-27.6-49.1-24-31.7 18.9-165.8 222.3-66.3 23-11.6 13.7-121.4-19.4-194.3-149.8-110.5 67.2"/>
  <path fill="#1672ff" stroke="#7af1d7" stroke-miterlimit="10" d="M2833.8 775.7l-310.6-48-24.9-31.4-125.7-4.8-121.9-99.8-77.8-28.8-49-24.6-31.1 20.4-163 225.3-65.3 28.1-11.4 13.9-121.3-23.4L1537.4 652l-106.7 76.9"/>
  <path fill="#1672ff" stroke="#7bf0d8" stroke-miterlimit="10" d="M2841.4 774.5l-310.7-57.2-25.4-31.1-126.3-9.8-122.6-99.5-77.6-30.1-48.9-25-30.5 21.8L1939.2 772l-64.4 33-11.2 14.2-121.2-27.5-194.6-151.4-102.7 86.6"/>
  <path fill="#1672ff" stroke="#7cefd9" stroke-miterlimit="10" d="M2849.1 773.3l-310.8-66.4-26.1-30.8-126.9-14.7L2262 562l-77.4-31.3-48.8-25.5-29.8 23.3L1948.5 760l-63.5 37.9-10.9 14.5-121.1-31.5-194.8-152.2-98.7 96.3"/>
  <path fill="#1672ff" stroke="#7defda" stroke-miterlimit="10" d="M2856.7 772l-310.9-75.5-26.6-30.5-127.6-19.6-123.9-99.2-77.2-32.6-48.8-26-29.2 24.8L1957.9 748l-62.6 42.9-10.7 14.7-121-35.5-195-153-94.7 106"/>
  <path fill="#1672ff" stroke="#7eeedb" stroke-miterlimit="10" d="M2864.3 770.8l-310.9-84.7-27.2-30.2-128.2-24.5-124.7-99-77-33.9-48.7-26.5-28.5 26.3-151.9 237.6-61.6 47.9-10.5 14.9-120.8-39.4-195.2-153.8-90.8 115.6"/>
  <path fill="#1672ff" stroke="#7feddc" stroke-miterlimit="10" d="M2871.9 769.6l-311-93.9-27.8-29.9-128.8-29.4-125.3-98.8-76.8-35.1-48.6-27-27.9 27.7-149.2 240.7-60.6 52.8-10.3 15.2-120.7-43.4-195.4-154.6-86.9 125.3"/>
  <path fill="#1672ff" stroke="#80eddd" stroke-miterlimit="10" d="M2879.5 768.4l-311.1-103.1-28.3-29.6-129.5-34.3-126-98.6-76.6-36.4-48.5-27.5-27.3 29.2-146.3 243.8-59.8 57.8-10 15.4-120.6-47.5-195.6-155.3-82.9 134.9"/>
  <path fill="#1672ff" stroke="#82ecde" stroke-miterlimit="10" d="M2887.1 767.2L2576 654.9l-29-29.3-130-39.2-126.7-98.4-76.4-37.7-48.5-28-26.6 30.8-143.6 246.8-58.8 62.7-9.8 15.7-120.5-51.5-195.7-156.1-79 144.6"/>
  <path fill="#1672ff" stroke="#83ebdf" stroke-miterlimit="10" d="M2894.7 765.9l-311.2-121.4-29.5-29-130.7-44.1-127.4-98.2-76.2-39-48.4-28.4-25.9 32.2-140.8 249.8-57.9 67.7-9.6 16-120.4-55.5-195.9-156.9-75 154.3"/>
  <path fill="#1672ff" stroke="#84ebe0" stroke-miterlimit="10" d="M2902.4 764.7L2591.1 634l-30.2-28.6-131.3-49-128-98.1-76.1-40.2-48.2-28.9-25.4 33.6-138 253-56.9 72.6-9.4 16.2-120.3-59.5-196.1-157.6-71 163.9"/>
  <path fill="#1672ff" stroke="#85eae1" stroke-miterlimit="10" d="M2910 760.7l-311.4-139.9-30.7-28.3-131.9-53.9-128.8-97.9-75.8-41.4-48.2-29.5-24.7 35.2-135.2 256-56 77.6-9.2 16.4-120.2-63.5-196.3-158.4-67 173.5"/>
  <path fill="#1672ff" stroke="#86e9e2" stroke-miterlimit="10" d="M2917.6 756.6l-311.5-149-31.3-28-132.5-58.8-129.4-97.7-75.7-42.7-48.1-30-24 36.7-132.5 259-55.1 82.6-8.9 16.7-120.1-67.5-196.4-159.2-63.2 183.2"/>
  <path fill="#1672ff" stroke="#87e9e3" stroke-miterlimit="10" d="M2925.2 752.6l-311.5-158.2-31.9-27.7-133.2-63.7-130.1-97.5-75.4-44-48.1-30.4-23.3 38.1-129.8 262.1-54.1 87.5-8.8 17-119.8-71.5-196.7-160-59.2 192.9"/>
  <path fill="#1672ff" stroke="#88e8e4" stroke-miterlimit="10" d="M2932.8 748.6l-311.6-167.4-32.5-27.4-133.7-68.6-130.8-97.3-75.3-45.3-47.9-30.9-22.8 39.6-126.9 265.2-53.2 92.5-8.6 17.2-119.7-75.5-196.9-160.8-55.2 202.5"/>
  <path fill="#1672ff" stroke="#89e7e5" stroke-miterlimit="10" d="M2940.4 744.6L2628.8 568l-33.1-27.1-134.4-73.5-131.5-97.1-75-46.6-47.9-31.4-22.1 41.1-124.2 268.3-52.2 97.4-8.4 17.5-119.6-79.5-197-161.6-51.3 212.2"/>
  <path fill="#1672ff" stroke="#8be7e6" stroke-miterlimit="10" d="M2948 740.6l-311.7-185.8-33.6-26.8-135.1-78.4-132.1-97-74.9-47.7-47.8-31.9-21.4 42.5L2070 586.8l-51.3 102.4-8.2 17.8-119.5-83.6-197.2-162.3-47.3 221.9"/>
  <path fill="#1672ff" stroke="#8ce6e7" stroke-miterlimit="10" d="M2955.7 736.6l-311.9-195-34.2-26.5-135.6-83.4-132.8-96.7-74.7-49-47.8-32.4-20.8 44.1L2079.3 572l-50.4 107.4-7.9 17.9-119.4-87.5-197.4-163.1-43.3 231.5"/>
  <path fill="#1672ff" stroke="#8de5e8" stroke-miterlimit="10" d="M2963.3 732.5l-311.9-204.1-34.8-26.2-136.3-88.3-133.5-96.5-74.5-50.3-47.6-32.9-20.2 45.6-115.9 277.4-49.4 112.3-7.7 18.2-119.3-91.5-197.6-163.9-39.4 241.2"/>
  <path fill="#1672ff" stroke="#8ee5e9" stroke-miterlimit="10" d="M2970.9 728.5l-312-213.3-35.4-25.9-136.9-93.2-134.1-96.3-74.3-51.6-47.6-33.3-19.5 47L2098 542.4l-48.5 117.2-7.5 18.5-119.2-95.5-197.7-164.7-35.5 250.8"/>
  <path fill="#1672ff" stroke="#8fe4ea" stroke-miterlimit="10" d="M2978.5 724.5l-742-529-184 473-317-265L1704 664"/>
  <path fill="#1672ff" stroke="#92e5eb" stroke-miterlimit="10" d="M2979.1 724.6l-743.8-515.9-190.6 461.6-318.4-258.4-36.4 254.2"/>
  <path fill="#1672ff" stroke="#94e5eb" stroke-miterlimit="10" d="M2979.7 724.8L2234 222l-197.2 450.1-319.6-251.9-41.4 247.9"/>
  <path fill="#1672ff" stroke="#97e6ec" stroke-miterlimit="10" d="M2980.3 724.9l-747.5-489.7L2029 673.9l-321-245.3-46.4 241.6"/>
  <path fill="#1672ff" stroke="#9ae7ec" stroke-miterlimit="10" d="M2980.9 725l-749.3-476.6-210.5 427.3L1698.9 437l-51.4 235.3"/>
  <path fill="#1672ff" stroke="#9de7ed" stroke-miterlimit="10" d="M2981.5 725.2l-751.2-463.5-217 415.9-323.6-232.3-56.3 229.1"/>
  <path fill="#1672ff" stroke="#9fe8ed" stroke-miterlimit="10" d="M2982.1 725.3l-753-450.4-223.7 404.5-324.8-225.7-61.3 222.7"/>
  <path fill="#1672ff" stroke="#a2e9ee" stroke-miterlimit="10" d="M2982.7 725.4l-754.8-437.3-230.3 393.1-326.2-219.1-66.3 216.4"/>
  <path fill="#1672ff" stroke="#a5e9ee" stroke-miterlimit="10" d="M2983.3 725.5l-756.7-424.1L1989.7 683l-327.4-212.6-71.3 210.2"/>
  <path fill="#1672ff" stroke="#a8eaef" stroke-miterlimit="10" d="M2983.9 725.7l-758.5-411.1-243.5 370.2-328.8-206-76.2 203.8"/>
  <path fill="#1672ff" stroke="#aaebef" stroke-miterlimit="10" d="M2984.5 725.8l-760.3-397.9L1974 686.6l-330-199.4-81.2 197.5"/>
  <path fill="#1672ff" stroke="#adebf0" stroke-miterlimit="10" d="M2985.1 725.9l-762.2-384.8-256.7 347.3-331.4-192.9-86.1 191.3"/>
  <path fill="#1672ff" stroke="#b0ecf0" stroke-miterlimit="10" d="M2985.7 726.1l-764-371.8-263.4 335.9-332.6-186.3-91.2 184.9"/>
  <path fill="#1672ff" stroke="#b3edf1" stroke-miterlimit="10" d="M2986.3 726.2l-765.9-358.6L1950.5 692l-334-179.7-96.1 178.6"/>
  <path fill="#1672ff" stroke="#b5edf1" stroke-miterlimit="10" d="M2986.9 726.3l-767.7-345.5-276.5 313-335.3-173.2L1506.3 693"/>
  <path fill="#1672ff" stroke="#b8eef2" stroke-miterlimit="10" d="M2987.5 726.5L2218 394l-283.2 301.7L1598.2 529l-106 166"/>
  <path fill="#1672ff" stroke="#bbeff2" stroke-miterlimit="10" d="M2988.1 726.6l-771.4-319.3L1927 697.5l-337.9-160.2L1478 697.1"/>
  <path fill="#1672ff" stroke="#bdeff3" stroke-miterlimit="10" d="M2988.7 726.7l-773.2-306.2-296.4 278.8-339.2-153.6-116 153.5"/>
  <path fill="#1672ff" stroke="#c0f0f3" stroke-miterlimit="10" d="M2989.3 726.9l-775-293.2-303 267.4-340.5-147-121 147.2"/>
  <path fill="#1672ff" stroke="#c3f1f4" stroke-miterlimit="10" d="M2989.9 727L2213 447l-309.6 255.9-341.8-140.5-125.9 140.9"/>
  <path fill="#1672ff" stroke="#c6f1f4" stroke-miterlimit="10" d="M2990.5 727.1l-778.7-266.9-316.2 244.5-343.1-133.9-130.9 134.6"/>
  <path fill="#1672ff" stroke="#c8f2f5" stroke-miterlimit="10" d="M2991 727.2l-780.4-253.8-322.9 233.1-344.4-127.3-135.9 128.3"/>
  <path fill="#1672ff" stroke="#cbf2f5" stroke-miterlimit="10" d="M2991.6 727.4l-782.3-240.7-329.4 221.6-345.7-120.8-140.9 122"/>
  <path fill="#1672ff" stroke="#cef3f6" stroke-miterlimit="10" d="M2992.2 727.5l-784.1-227.6L1872 710.1l-347-114.2-145.8 115.7"/>
  <path fill="#1672ff" stroke="#d1f4f6" stroke-miterlimit="10" d="M2992.8 727.6l-785.9-214.5L1864.2 712l-348.4-107.7-150.7 109.4"/>
  <path fill="#1672ff" stroke="#d3f4f7" stroke-miterlimit="10" d="M2993.4 727.8l-787.8-201.4-349.3 187.4-349.6-101.2L1351 715.7"/>
  <path fill="#1672ff" stroke="#d6f5f7" stroke-miterlimit="10" d="M2994 727.9l-789.6-188.3-355.9 176-351-94.6-160.7 96.8"/>
  <path fill="#1672ff" stroke="#d9f6f8" stroke-miterlimit="10" d="M2994.6 728l-791.4-175.2-362.5 164.6-352.3-88-165.7 90.5"/>
  <path fill="#1672ff" stroke="#dbf6f8" stroke-miterlimit="10" d="M2995.2 728.2l-793.3-162.1-369.1 153.1-353.6-81.5-170.6 84.3"/>
  <path fill="#1672ff" stroke="#def7f9" stroke-miterlimit="10" d="M2995.8 728.3l-795.1-149L1825 721l-354.9-74.9-175.6 77.9"/>
  <path fill="#1672ff" stroke="#e1f8f9" stroke-miterlimit="10" d="M2996.4 728.4l-796.9-135.9-382.4 130.3-356.2-68.3-180.6 71.6"/>
  <path fill="#1672ff" stroke="#e4f8fa" stroke-miterlimit="10" d="M2997 728.6l-798.8-122.8-388.9 118.8-357.5-61.8-185.6 65.4"/>
  <path fill="#1672ff" stroke="#e6f9fa" stroke-miterlimit="10" d="M2997.6 727.9L2197 618.2l-395.6 107.5-358.8-55.3-190.5 59.1"/>
  <path fill="#1672ff" stroke="#e9fafb" stroke-miterlimit="10" d="M2998.2 727.1l-802.5-96.6-402.1 96-360.1-48.7-195.5 52.8"/>
  <path fill="#1672ff" stroke="#ecfafb" stroke-miterlimit="10" d="M2998.8 726.2l-804.3-83.4-408.8 84.5-361.4-42.1-200.4 46.5"/>
  <path fill="#1672ff" stroke="#effbfc" stroke-miterlimit="10" d="M2999.4 725.4L2193.3 655l-415.4 73.2-362.7-35.6-205.5 40.2"/>
  <path fill="#1672ff" stroke="#f1fcfc" stroke-miterlimit="10" d="M3000 724.6l-808-57.3-422 61.7-364-29-210.4 33.9"/>
  <path fill="#1672ff" stroke="#f4fcfd" stroke-miterlimit="10" d="M3000.6 723.7l-809.8-44.1-428.6 50.3-365.3-22.5-215.4 27.6"/>
  <path fill="#1672ff" stroke="#f7fdfd" stroke-miterlimit="10" d="M3001.2 722.9l-811.6-31.1-435.3 38.9-366.6-15.9-220.3 21.3"/>
  <path fill="#1672ff" stroke="#fafefe" stroke-miterlimit="10" d="M3001.8 722l-813.5-17.9-441.8 27.5-367.9-9.4-225.4 15"/>
  <path fill="#1672ff" stroke="#fcfefe" stroke-miterlimit="10" d="M3002.4 721.2l-815.3-4.8-448.4 16-369.3-2.8-230.3 8.7"/>
  <path fill="none" stroke="#fff" stroke-miterlimit="10" d="M3003 724.5l-1878 19"/>
  <path d="M3017.2 724.5l-1906 19M3031.3 724.5l-1933.8 19M3045.5 724.5l-1961.8 19M3059.7 724.5l-1989.7 19M3073.9 724.5l-2017.7 19M3088 724.5l-2045.5 19M3102.2 724.5l-2073.5 19M3116.4 724.5l-2101.4 19M3130.5 724.5l-2129.3 19M3144.7 724.5l-2157.3 19M3158.9 724.5l-2185.2 19M3173 724.5l-2213.1 19M3187.2 724.5l-2241 19M3201.4 724.5l-2269 19M3215.6 724.5l-2296.9 19M3229.7 724.5l-2324.8 19M3243.9 724.5l-2352.8 19M3258.1 724.5l-2380.7 19M3272.2 724.5l-2408.6 19M3286.4 724.5l-2436.5 19M3300.6 724.5l-2464.5 19M3314.8 724.5l-2492.4 19M3328.9 724.5l-2520.3 19M3343.1 724.5l-2548.2 19M3357.3 724.5l-2576.2 19M3371.4 724.5l-2604.1 19M3385.6 724.5l-2632 19M3399.8 724.5l-2660 19M3414 724.5l-2687.9 19M3428.1 724.5l-2715.8 19M3442.3 724.5l-2743.7 19M3456.5 724.5l-2771.7 19M3470.6 724.5L671 743.5M3484.8 724.5l-2827.5 19M3499 724.5l-2855.5 19M3513.1 724.5l-2883.3 19M3527.3 724.5L616 743.5M3541.5 724.5l-2939.2 19M3555.7 724.5l-2967.2 19M3569.8 724.5l-2995 19M3584 724.5l-3023 19M3584 724.5l-3023 19M3584 724.5l-3023 19M3584 724.5l-3023 19M3584 724.5l-3023 19M3584 724.5l-3023 19M3584 724.5l-3023 19M3584 724.5l-3023 19M3584 724.5l-3023 19M3584 724.5l-3023 19M3584 724.5l-3023 19M3584 724.5l-3023 19M3584 724.5l-3023 19M3584 724.5l-3023 19M3584 724.5l-3023 19M3584 724.5l-3023 19M3584 724.5l-3023 19M3584 724.5l-3023 19M3584 724.5l-3023 19M3584 724.5l-3023 19M3584 724.5l-3023 19M3584 724.5l-3023 19M3584 724.5l-3023 19M3584 724.5l-3023 19M3584 724.5l-3023 19M3584 724.5l-3023 19M3584 724.5l-3023 19M3584 724.5l-3023 19M3584 724.5l-3023 19M3584 724.5l-3023 19M3584 724.5l-3023 19M3584 724.5l-3023 19M3584 724.5l-3023 19M3584 724.5l-3023 19M3584 724.5l-3023 19M3584 724.5l-3023 19M3584 724.5l-3023 19M3584 724.5l-3023 19M3584 724.5l-3023 19M3584 724.5l-3023 19M3584 724.5l-3023 19M3584 724.5l-3023 19" class="cls-125"/>
  <path fill="#002a33" stroke="#fcfeff" stroke-miterlimit="10" d="M3598.2 724.5l-3051.4 19"/>
  <path fill="#002934" stroke="#f9fcff" stroke-miterlimit="10" d="M3612.3 724.5l-3079.6 19"/>
  <path fill="#002835" stroke="#f6fbff" stroke-miterlimit="10" d="M3626.5 724.5l-3108 19"/>
  <path fill="#002736" stroke="#f3faff" stroke-miterlimit="10" d="M3640.7 724.5l-3136.4 19"/>
  <path fill="#002637" stroke="#eff8ff" stroke-miterlimit="10" d="M3654.9 724.5l-3164.8 19"/>
  <path fill="#002538" stroke="#ecf7ff" stroke-miterlimit="10" d="M3669 724.5l-3193 19"/>
  <path fill="#012438" stroke="#e9f6ff" stroke-miterlimit="10" d="M3683.2 724.5l-3221.4 19"/>
  <path fill="#012339" stroke="#e6f4ff" stroke-miterlimit="10" d="M3697.4 724.5l-3249.8 19"/>
  <path fill="#01223a" stroke="#e3f3ff" stroke-miterlimit="10" d="M3711.5 724.5l-3278 19"/>
  <path fill="#01213b" stroke="#e0f2ff" stroke-miterlimit="10" d="M3725.7 724.5l-3306.4 19"/>
  <path fill="#011f3c" stroke="#ddf1ff" stroke-miterlimit="10" d="M3739.9 724.5l-3334.8 19"/>
  <path fill="#011e3d" stroke="#daefff" stroke-miterlimit="10" d="M3754 724.5l-3363 19"/>
  <path fill="#011d3e" stroke="#d6eeff" stroke-miterlimit="10" d="M3768.2 724.5l-3391.4 19"/>
  <path fill="#011c3f" stroke="#d3edff" stroke-miterlimit="10" d="M3782.4 724.5l-3419.8 19"/>
  <path fill="#011b40" stroke="#d0ebff" stroke-miterlimit="10" d="M3796.6 724.5l-3448.2 19"/>
  <path fill="#011a41" stroke="#cdeaff" stroke-miterlimit="10" d="M3810.7 724.5l-3476.4 19"/>
  <path fill="#011942" stroke="#cae9ff" stroke-miterlimit="10" d="M3824.9 724.5l-3504.8 19"/>
  <path fill="#011843" stroke="#c7e7ff" stroke-miterlimit="10" d="M3839.1 724.5l-3533.2 19"/>
  <path fill="#011744" stroke="#c4e6ff" stroke-miterlimit="10" d="M3853.2 724.5l-3561.4 19"/>
  <path fill="#011645" stroke="#c1e5ff" stroke-miterlimit="10" d="M3867.4 724.5l-3589.8 19"/>
  <path fill="#021545" stroke="#bde3ff" stroke-miterlimit="10" d="M3881.6 724.5l-3618.2 19"/>
  <path fill="#021446" stroke="#bae2ff" stroke-miterlimit="10" d="M3895.8 724.5l-3646.6 19"/>
  <path fill="#021347" stroke="#b7e1ff" stroke-miterlimit="10" d="M3909.9 724.5l-3674.8 19"/>
  <path fill="#021248" stroke="#b4dfff" stroke-miterlimit="10" d="M3924.1 724.5l-3703.2 19"/>
  <path fill="#021149" stroke="#b1deff" stroke-miterlimit="10" d="M3938.3 724.5l-3731.6 19"/>
  <path fill="#02104a" stroke="#aeddff" stroke-miterlimit="10" d="M3952.4 724.5l-3759.8 19"/>
  <path fill="#020f4b" stroke="#abdbff" stroke-miterlimit="10" d="M3966.6 724.5l-3788.2 19"/>
  <path fill="#020e4c" stroke="#a8daff" stroke-miterlimit="10" d="M3980.8 724.5l-3816.6 19"/>
  <path fill="#020d4d" stroke="#a4d9ff" stroke-miterlimit="10" d="M3995 724.5l-3845 19"/>
  <path fill="#020c4e" stroke="#a1d7ff" stroke-miterlimit="10" d="M4009.1 724.5l-3873.2 19"/>
  <path fill="#020a4f" stroke="#9ed6ff" stroke-miterlimit="10" d="M4023.3 724.5l-3901.6 19"/>
  <path fill="#020950" stroke="#9bd5ff" stroke-miterlimit="10" d="M4037.5 724.5l-3930 19"/>
  <path fill="#020851" stroke="#98d4ff" stroke-miterlimit="10" d="M4051.6 724.5l-3958.2 19"/>
  <path fill="#020752" stroke="#95d2ff" stroke-miterlimit="10" d="M4065.8 724.5l-3986.6 19"/>
  <path fill="#030652" stroke="#92d1ff" stroke-miterlimit="10" d="M4080 724.5l-4015 19"/>
  <path fill="#030553" stroke="#8fd0ff" stroke-miterlimit="10" d="M4094.1 724.5l-4043.2 19"/>
  <path fill="#030454" stroke="#8bceff" stroke-miterlimit="10" d="M4108.3 724.5l-4071.6 19"/>
  <path fill="#030355" stroke="#88cdff" stroke-miterlimit="10" d="M4122.5 724.5l-4100 19"/>
  <path fill="#030256" stroke="#85ccff" stroke-miterlimit="10" d="M4136.7 724.5L8.3 743.5"/>
  <path fill="#030157" stroke="#82caff" stroke-miterlimit="10" d="M4150.8 724.5l-4156.6 19"/>
  <path fill="#030058" stroke="#7fc9ff" stroke-miterlimit="10" d="M4165 724.5l-4185 19"/>
  <text class="cls-167" transform="translate(904.6 1405)">
    Deep <tspan x="237.2" y="0" letter-spacing="-.04em">Web</tspan>
  </text>
  <text class="cls-170" transform="translate(917 1479.2)">
    Medical Records<tspan x="0" y="57.6">Legal Documents</tspan><tspan x="0" y="115.2">Specific Reports</tspan><tspan x="0" y="172.8">Competitor Websites</tspan>
  </text>
  <text class="cls-167" transform="translate(575.6 426)">
    Surface<tspan x="324.5" y="0" class="cls-179">Web</tspan>
  </text>
  <text class="cls-170" transform="translate(588 500.2)">
    Google<tspan x="0" y="57.6">Bing</tspan><tspan x="0" y="115.2" letter-spacing="-.1em">Yahoo!</tspan>
  </text>
  <text class="cls-167" transform="translate(1254.6 2198)">
    Dark <tspan x="212.6" y="0" class="cls-179">Web</tspan>
  </text>
  <text class="cls-170" transform="translate(1267 2272.2)">
    Academic Information<tspan x="0" y="57.6">Multilingual Database</tspan><tspan x="0" y="115.2">Financial Records </tspan><tspan x="0" y="172.8">Government Resources</tspan><tspan x="0" y="230.4">Organization-specific Repositories</tspan>
  </text>
  <text class="cls-167" transform="translate(2913.6 1916)">
    <tspan letter-spacing="-.03em">TOR Encrypted Sites</tspan>
  </text>
  <text class="cls-170" transform="translate(2922 2012.2)">
    Drug Trafficking<tspan x="0" y="57.6">Private Communications</tspan><tspan x="0" y="115.2" letter-spacing="-.01em">Political Protests</tspan><tspan x="0" y="172.8">Illegal Information</tspan>
  </text>
  <circle cx="1758" cy="1333" r="4" class="cls-189"/>
  <circle cx="2048" cy="1845" r="4" class="cls-189"/>
  <circle cx="2435" cy="2558" r="4" class="cls-189"/>
  <path d="M1758 1337l-402 88H905M2048 1849l-256.5 358.5h-536.9M2439 2558l444-622h833" class="cls-190"/>
</svg>
