<svg id="Слой_2" data-name="Слой 2" xmlns="http://www.w3.org/2000/svg" viewBox="0 0 699 410"><defs><style>.cls-1{fill:#21618f;}</style></defs><polygon class="cls-1" points="99 143 85 123 205 140 309 111 306 116 213 151 135 153 99 143"/><polygon class="cls-1" points="69 98 83 120 206 137 302 110 209 127 69 98"/><polygon class="cls-1" points="66 95 36 51 208 114 301 107 210 124 66 95"/><polygon class="cls-1" points="0 0 33 47 208 110 305 104 209 102 17 5 0 0"/><polygon class="cls-1" points="36 11 210 98 308 101 36 11"/><polygon class="cls-1" points="145 156 189 169 233 162 306 121 306 118 213 154 145 156"/><polygon class="cls-1" points="196 170 227 179 253 166 306 127 306 124 233 165 196 170"/><polygon class="cls-1" points="231 180 247 184 276 169 306 130 258 166 231 180"/><polygon class="cls-1" points="250 186 265 190 292 168 305 136 278 171 250 186"/><polygon class="cls-1" points="268 191 282 195 306 183 307 141 294 170 268 191"/><polygon class="cls-1" points="600 144 614 124 494 141 390 112 393 117 486 152 564 154 600 144"/><polygon class="cls-1" points="630 99 616 121 493 138 397 111 490 128 630 99"/><polygon class="cls-1" points="633 96 663 52 491 115 398 108 489 125 633 96"/><polygon class="cls-1" points="699 1 666 48 491 111 394 105 490 103 682 6 699 1"/><polygon class="cls-1" points="663 12 489 99 391 102 663 12"/><polygon class="cls-1" points="554 157 510 170 466 163 393 122 393 119 486 155 554 157"/><polygon class="cls-1" points="503 171 472 180 446 167 393 128 393 125 466 166 503 171"/><polygon class="cls-1" points="468 181 452 185 423 170 393 131 441 167 468 181"/><polygon class="cls-1" points="449 187 434 191 407 169 394 137 421 172 449 187"/><polygon class="cls-1" points="431 192 417 196 393 184 392 142 405 171 431 192"/><path class="cls-1" d="M387,198V115l-20,22v16l-18,13-18-13V137l-20-22v83l29,33v30h-5l2,6,3-3h6l3,4,3-4h6l3,3,2-6h-5V230Zm-35-4v67h-5V194l-19-17V158l21,15,21.5-16v18.5Z"/><polygon class="cls-1" points="312 112 332 134 347 120 347 110 336 95 312 112"/><polygon class="cls-1" points="386 112 366 134 351 120 351 110 362 95 386 112"/><polygon class="cls-1" points="311 202 329 243 326 257 337 255 337 232 311 202"/><polygon class="cls-1" points="387 202 369 243 372 257 361 255 361 232 387 202"/><path class="cls-1" d="M367,53l13,12L360,37,337,25,311,5l-10,5h7l12,17-4,68,33-17,34,21ZM342,38l-4-1V33l8,7Z"/><polygon class="cls-1" points="172 304 202 323 331 261 172 304"/><polygon class="cls-1" points="237 311 255 324 333 265 237 311"/><polygon class="cls-1" points="235 344 256 357 335 268 235 344"/><polygon class="cls-1" points="269 349 287 357 337 271 269 349"/><polygon class="cls-1" points="283 372 303 384 341 272 283 372"/><polygon class="cls-1" points="344 274 327 323 337 326 344 274"/><polygon class="cls-1" points="348 270 332 402 347 410 348 270"/><polygon class="cls-1" points="352 270 352 381 365 376 352 270"/><polygon class="cls-1" points="356 274 372 399 394 386 356 274"/><polygon class="cls-1" points="360 273 377 324 385 316 360 273"/><polygon class="cls-1" points="363 270 420 370 440 358 363 270"/><polygon class="cls-1" points="366 268 414 323 425 313 366 268"/><polygon class="cls-1" points="368 264 468 341 494 325 368 264"/><polygon class="cls-1" points="369 261 474 311 495 295 369 261"/></svg>