<svg width="115" height="133" viewBox="0 0 115 133" fill="none" xmlns="http://www.w3.org/2000/svg">
<rect x="8.00003" width="100" height="100" fill="#E5E5E5"/>
<path d="M57.5 133L7.70354 99.25L107.296 99.25L57.5 133Z" fill="#E5E5E5"/>
<path d="M35.9482 55.7676V60.6631H36.291C36.8184 60.6631 37.249 60.584 37.583 60.4258C37.917 60.2676 38.1982 60.001 38.4268 59.626C38.6611 59.251 38.8135 58.7441 38.8838 58.1055H39.1914V64.0908H38.8838C38.7725 62.96 38.4678 62.2158 37.9697 61.8584C37.4775 61.4951 36.918 61.3135 36.291 61.3135H35.9482V64.9609C35.9482 65.5703 35.9805 65.9512 36.0449 66.1035C36.1152 66.2559 36.2471 66.3906 36.4404 66.5078C36.6396 66.6191 36.9062 66.6748 37.2402 66.6748H37.6357V67H31.4043V66.6748H31.7998C32.1455 66.6748 32.4238 66.6133 32.6348 66.4902C32.7871 66.4082 32.9043 66.2676 32.9863 66.0684C33.0508 65.9277 33.083 65.5586 33.083 64.9609V57.1211C33.083 56.5117 33.0508 56.1309 32.9863 55.9785C32.9219 55.8262 32.79 55.6943 32.5908 55.583C32.3975 55.4658 32.1338 55.4072 31.7998 55.4072H31.4043V55.082H41.459V58.501H41.0986C41.0166 57.6982 40.8057 57.1035 40.4658 56.7168C40.1318 56.3301 39.6455 56.0576 39.0068 55.8994C38.6553 55.8115 38.0049 55.7676 37.0557 55.7676H35.9482ZM46.4863 58.5361C47.2012 58.5361 47.8662 58.7207 48.4814 59.0898C49.0967 59.459 49.5625 59.9834 49.8789 60.6631C50.2012 61.3428 50.3623 62.0869 50.3623 62.8955C50.3623 64.0615 50.0664 65.0371 49.4746 65.8223C48.7598 66.7715 47.7725 67.2461 46.5127 67.2461C45.2764 67.2461 44.3242 66.8125 43.6562 65.9453C42.9883 65.0781 42.6543 64.0732 42.6543 62.9307C42.6543 61.7529 42.9941 60.7275 43.6738 59.8545C44.3594 58.9756 45.2969 58.5361 46.4863 58.5361ZM46.5215 59.1602C46.2227 59.1602 45.9648 59.2744 45.748 59.5029C45.5371 59.7256 45.3965 60.1709 45.3262 60.8389C45.2617 61.501 45.2295 62.4238 45.2295 63.6074C45.2295 64.2344 45.2705 64.8203 45.3525 65.3652C45.417 65.7812 45.5547 66.0977 45.7656 66.3145C45.9766 66.5312 46.2168 66.6396 46.4863 66.6396C46.75 66.6396 46.9697 66.5664 47.1455 66.4199C47.374 66.2207 47.5264 65.9424 47.6025 65.585C47.7197 65.0283 47.7783 63.9033 47.7783 62.21C47.7783 61.2139 47.7227 60.5312 47.6113 60.1621C47.5 59.7871 47.3359 59.5146 47.1191 59.3447C46.9668 59.2217 46.7676 59.1602 46.5215 59.1602ZM55.0205 58.7822V60.6455C55.5654 59.7959 56.043 59.2334 56.4531 58.958C56.8633 58.6768 57.2588 58.5361 57.6396 58.5361C57.9678 58.5361 58.2285 58.6387 58.4219 58.8438C58.6211 59.043 58.7207 59.3271 58.7207 59.6963C58.7207 60.0889 58.624 60.3936 58.4307 60.6104C58.2432 60.8271 58.0146 60.9355 57.7451 60.9355C57.4346 60.9355 57.165 60.8359 56.9365 60.6367C56.708 60.4375 56.5732 60.3262 56.5322 60.3027C56.4736 60.2676 56.4062 60.25 56.3301 60.25C56.1602 60.25 55.999 60.3145 55.8467 60.4434C55.6064 60.6426 55.4248 60.9268 55.3018 61.2959C55.1143 61.8643 55.0205 62.4912 55.0205 63.1768V65.0664L55.0293 65.5586C55.0293 65.8926 55.0498 66.1064 55.0908 66.2002C55.1611 66.3584 55.2637 66.4756 55.3984 66.5518C55.5391 66.6221 55.7734 66.666 56.1016 66.6836V67H51.6631V66.6836C52.0205 66.6543 52.2607 66.5576 52.3838 66.3936C52.5127 66.2236 52.5771 65.7812 52.5771 65.0664V60.5225C52.5771 60.0537 52.5537 59.7549 52.5068 59.626C52.4482 59.4619 52.3633 59.3418 52.252 59.2656C52.1406 59.1895 51.9443 59.1367 51.6631 59.1074V58.7822H55.0205ZM62.79 55.082V59.6084C63.4814 58.8936 64.2373 58.5361 65.0576 58.5361C65.6201 58.5361 66.1504 58.7031 66.6484 59.0371C67.1465 59.3652 67.5361 59.834 67.8174 60.4434C68.0986 61.0527 68.2393 61.7559 68.2393 62.5527C68.2393 63.4492 68.0605 64.2637 67.7031 64.9961C67.3457 65.7285 66.8682 66.2881 66.2705 66.6748C65.6729 67.0557 64.9902 67.2461 64.2227 67.2461C63.7773 67.2461 63.3818 67.1758 63.0361 67.0352C62.6904 66.8945 62.3506 66.666 62.0166 66.3496L60.6543 67.2373H60.3555V56.7871C60.3555 56.3125 60.335 56.0195 60.2939 55.9082C60.2354 55.7441 60.1416 55.624 60.0127 55.5479C59.8896 55.4658 59.6787 55.4189 59.3799 55.4072V55.082H62.79ZM62.79 60.3906V64.0469C62.79 64.791 62.8076 65.2656 62.8428 65.4707C62.9014 65.8164 63.042 66.0977 63.2646 66.3145C63.4873 66.5254 63.7715 66.6309 64.1172 66.6309C64.416 66.6309 64.6709 66.5459 64.8818 66.376C65.0986 66.2061 65.2773 65.8691 65.418 65.3652C65.5645 64.8613 65.6377 63.9531 65.6377 62.6406C65.6377 61.3809 65.4795 60.5166 65.1631 60.0479C64.9346 59.708 64.627 59.5381 64.2402 59.5381C63.7363 59.5381 63.2529 59.8223 62.79 60.3906ZM76.5889 62.5967H72.0801C72.1328 63.6865 72.4229 64.5479 72.9502 65.1807C73.3545 65.667 73.8408 65.9102 74.4092 65.9102C74.7607 65.9102 75.0801 65.8135 75.3672 65.6201C75.6543 65.4209 75.9619 65.0664 76.29 64.5566L76.5889 64.75C76.1436 65.6582 75.6514 66.3027 75.1123 66.6836C74.5732 67.0586 73.9492 67.2461 73.2402 67.2461C72.0215 67.2461 71.0986 66.7773 70.4717 65.8398C69.9678 65.084 69.7158 64.1465 69.7158 63.0273C69.7158 61.6562 70.085 60.5664 70.8232 59.7578C71.5674 58.9434 72.4375 58.5361 73.4336 58.5361C74.2656 58.5361 74.9863 58.8789 75.5957 59.5645C76.2109 60.2441 76.542 61.2549 76.5889 62.5967ZM74.4268 62.0078C74.4268 61.0645 74.374 60.417 74.2686 60.0654C74.1689 59.7139 74.0107 59.4473 73.7939 59.2656C73.6709 59.1602 73.5068 59.1074 73.3018 59.1074C72.9971 59.1074 72.748 59.2568 72.5547 59.5557C72.209 60.0771 72.0361 60.792 72.0361 61.7002V62.0078H74.4268ZM82.8203 58.5537L82.9521 61.3574H82.6533C82.2959 60.5254 81.9238 59.957 81.5371 59.6523C81.1562 59.3477 80.7754 59.1953 80.3945 59.1953C80.1543 59.1953 79.9492 59.2773 79.7793 59.4414C79.6094 59.5996 79.5244 59.7842 79.5244 59.9951C79.5244 60.1533 79.583 60.3057 79.7002 60.4521C79.8877 60.6924 80.4121 61.1055 81.2734 61.6914C82.1348 62.2715 82.7002 62.7666 82.9697 63.1768C83.2451 63.5811 83.3828 64.0352 83.3828 64.5391C83.3828 64.9961 83.2686 65.4443 83.04 65.8838C82.8115 66.3232 82.4893 66.6602 82.0732 66.8945C81.6572 67.1289 81.1973 67.2461 80.6934 67.2461C80.3008 67.2461 79.7764 67.123 79.1201 66.877C78.9443 66.8125 78.8242 66.7803 78.7598 66.7803C78.5664 66.7803 78.4053 66.9268 78.2764 67.2197H77.9863L77.8457 64.2666H78.1445C78.4082 65.04 78.7686 65.6201 79.2256 66.0068C79.6885 66.3936 80.125 66.5869 80.5352 66.5869C80.8164 66.5869 81.0449 66.502 81.2207 66.332C81.4023 66.1562 81.4932 65.9453 81.4932 65.6992C81.4932 65.418 81.4053 65.1748 81.2295 64.9697C81.0537 64.7646 80.6611 64.4541 80.0518 64.0381C79.1553 63.417 78.5752 62.9424 78.3115 62.6143C77.9248 62.1338 77.7314 61.6035 77.7314 61.0234C77.7314 60.3906 77.9482 59.8193 78.3818 59.3096C78.8213 58.7939 79.4541 58.5361 80.2803 58.5361C80.7256 58.5361 81.1562 58.6445 81.5723 58.8613C81.7305 58.9492 81.8594 58.9932 81.959 58.9932C82.0645 58.9932 82.1494 58.9727 82.2139 58.9316C82.2783 58.8848 82.3809 58.7588 82.5215 58.5537H82.8203Z" fill="#0166A3"/>
<path d="M37 72L37 91" stroke="#0166A3"/>
<path d="M46.6191 75.6211C47.0781 75.7188 47.4215 75.875 47.6494 76.0898C47.9652 76.3893 48.123 76.7555 48.123 77.1885C48.123 77.5173 48.0189 77.833 47.8105 78.1357C47.6022 78.4352 47.3158 78.6549 46.9512 78.7949C46.5898 78.9316 46.0365 79 45.291 79H42.166V78.8193H42.415C42.6917 78.8193 42.8903 78.7314 43.0107 78.5557C43.0856 78.4417 43.123 78.1992 43.123 77.8281V73.5508C43.123 73.1406 43.0758 72.8818 42.9814 72.7744C42.8545 72.6312 42.6657 72.5596 42.415 72.5596H42.166V72.3789H45.0273C45.5612 72.3789 45.9893 72.418 46.3115 72.4961C46.7998 72.6133 47.1725 72.8216 47.4297 73.1211C47.6868 73.4173 47.8154 73.7591 47.8154 74.1465C47.8154 74.4785 47.7145 74.7764 47.5127 75.04C47.3109 75.3005 47.013 75.4941 46.6191 75.6211ZM44.0605 75.3574C44.181 75.3802 44.3177 75.3981 44.4707 75.4111C44.627 75.4209 44.7979 75.4258 44.9834 75.4258C45.4587 75.4258 45.8151 75.3753 46.0527 75.2744C46.2936 75.1702 46.4775 75.0124 46.6045 74.8008C46.7314 74.5892 46.7949 74.3581 46.7949 74.1074C46.7949 73.7201 46.637 73.3896 46.3213 73.1162C46.0055 72.8428 45.5449 72.7061 44.9395 72.7061C44.6139 72.7061 44.321 72.7419 44.0605 72.8135V75.3574ZM44.0605 78.5215C44.4382 78.6094 44.8109 78.6533 45.1787 78.6533C45.7679 78.6533 46.2171 78.5215 46.5264 78.2578C46.8356 77.9909 46.9902 77.6621 46.9902 77.2715C46.9902 77.0143 46.9202 76.7669 46.7803 76.5293C46.6403 76.2917 46.4124 76.1045 46.0967 75.9678C45.7809 75.8311 45.3903 75.7627 44.9248 75.7627C44.723 75.7627 44.5505 75.766 44.4072 75.7725C44.264 75.779 44.1484 75.7904 44.0605 75.8066V78.5215ZM52.9033 74.5273V77.2373C52.9033 77.7549 52.9147 78.0723 52.9375 78.1895C52.9635 78.3034 53.0026 78.3831 53.0547 78.4287C53.11 78.4743 53.1735 78.4971 53.2451 78.4971C53.346 78.4971 53.46 78.4694 53.5869 78.4141L53.6553 78.585L52.3174 79.1367H52.0977V78.1895C51.7135 78.6061 51.4206 78.8682 51.2188 78.9756C51.0169 79.083 50.8037 79.1367 50.5791 79.1367C50.3285 79.1367 50.1104 79.0651 49.9248 78.9219C49.7425 78.7754 49.6156 78.5882 49.5439 78.3604C49.4723 78.1325 49.4365 77.8102 49.4365 77.3936V75.3965C49.4365 75.1849 49.4137 75.0384 49.3682 74.957C49.3226 74.8757 49.2542 74.8138 49.1631 74.7715C49.0752 74.7259 48.9141 74.7048 48.6797 74.708V74.5273H50.2471V77.5205C50.2471 77.9372 50.3187 78.2106 50.4619 78.3408C50.6084 78.471 50.7842 78.5361 50.9893 78.5361C51.1292 78.5361 51.2871 78.4922 51.4629 78.4043C51.6419 78.3164 51.8535 78.1488 52.0977 77.9014V75.3672C52.0977 75.1133 52.0505 74.9424 51.9561 74.8545C51.8649 74.7633 51.6729 74.7145 51.3799 74.708V74.5273H52.9033ZM56.873 74.3955V75.9189H56.7119C56.5882 75.4404 56.4287 75.1149 56.2334 74.9424C56.0413 74.7699 55.7956 74.6836 55.4961 74.6836C55.2682 74.6836 55.0843 74.7438 54.9443 74.8643C54.8044 74.9847 54.7344 75.1182 54.7344 75.2646C54.7344 75.4469 54.7865 75.6032 54.8906 75.7334C54.9915 75.8669 55.1966 76.0085 55.5059 76.1582L56.2188 76.5049C56.8796 76.8271 57.21 77.252 57.21 77.7793C57.21 78.1862 57.0553 78.515 56.7461 78.7656C56.4401 79.013 56.0967 79.1367 55.7158 79.1367C55.4424 79.1367 55.1299 79.0879 54.7783 78.9902C54.6709 78.9577 54.583 78.9414 54.5146 78.9414C54.4398 78.9414 54.3812 78.9837 54.3389 79.0684H54.1777V77.4717H54.3389C54.43 77.9274 54.6042 78.2708 54.8613 78.502C55.1185 78.7331 55.4066 78.8486 55.7256 78.8486C55.9502 78.8486 56.1325 78.7835 56.2725 78.6533C56.4157 78.5199 56.4873 78.3604 56.4873 78.1748C56.4873 77.9502 56.4076 77.7614 56.248 77.6084C56.0918 77.4554 55.7777 77.2617 55.3057 77.0273C54.8337 76.793 54.5244 76.5814 54.3779 76.3926C54.2314 76.207 54.1582 75.9727 54.1582 75.6895C54.1582 75.3216 54.2835 75.014 54.5342 74.7666C54.7881 74.5192 55.1152 74.3955 55.5156 74.3955C55.6914 74.3955 55.9046 74.4329 56.1553 74.5078C56.3213 74.5566 56.432 74.5811 56.4873 74.5811C56.5394 74.5811 56.5801 74.5697 56.6094 74.5469C56.6387 74.5241 56.6729 74.4736 56.7119 74.3955H56.873ZM59.0166 72.0566C59.1533 72.0566 59.2689 72.1055 59.3633 72.2031C59.4609 72.2975 59.5098 72.4131 59.5098 72.5498C59.5098 72.6865 59.4609 72.8037 59.3633 72.9014C59.2689 72.999 59.1533 73.0479 59.0166 73.0479C58.8799 73.0479 58.7627 72.999 58.665 72.9014C58.5674 72.8037 58.5186 72.6865 58.5186 72.5498C58.5186 72.4131 58.5658 72.2975 58.6602 72.2031C58.7578 72.1055 58.8766 72.0566 59.0166 72.0566ZM59.4219 74.3955V77.9893C59.4219 78.2692 59.4414 78.4564 59.4805 78.5508C59.5228 78.6419 59.583 78.7103 59.6611 78.7559C59.7425 78.8014 59.889 78.8242 60.1006 78.8242V79H57.9277V78.8242C58.1458 78.8242 58.2923 78.8031 58.3672 78.7607C58.4421 78.7184 58.5007 78.6484 58.543 78.5508C58.5885 78.4531 58.6113 78.266 58.6113 77.9893V76.2656C58.6113 75.7806 58.5967 75.4665 58.5674 75.3232C58.5446 75.2191 58.5088 75.1475 58.46 75.1084C58.4111 75.0661 58.3444 75.0449 58.2598 75.0449C58.1686 75.0449 58.0579 75.0693 57.9277 75.1182L57.8594 74.9424L59.207 74.3955H59.4219ZM61.9658 75.3428C62.4899 74.7113 62.9896 74.3955 63.4648 74.3955C63.709 74.3955 63.9189 74.4574 64.0947 74.5811C64.2705 74.7015 64.4105 74.9017 64.5146 75.1816C64.5863 75.377 64.6221 75.6764 64.6221 76.0801V77.9893C64.6221 78.2725 64.6449 78.4645 64.6904 78.5654C64.7262 78.6468 64.7832 78.7103 64.8613 78.7559C64.9427 78.8014 65.0908 78.8242 65.3057 78.8242V79H63.0938V78.8242H63.1865C63.3949 78.8242 63.5397 78.7933 63.6211 78.7314C63.7057 78.6663 63.7643 78.5719 63.7969 78.4482C63.8099 78.3994 63.8164 78.2464 63.8164 77.9893V76.1582C63.8164 75.7513 63.7627 75.4567 63.6553 75.2744C63.5511 75.0889 63.3737 74.9961 63.123 74.9961C62.7357 74.9961 62.3499 75.2077 61.9658 75.6309V77.9893C61.9658 78.292 61.9837 78.4792 62.0195 78.5508C62.0651 78.6452 62.127 78.7152 62.2051 78.7607C62.2865 78.8031 62.4492 78.8242 62.6934 78.8242V79H60.4814V78.8242H60.5791C60.807 78.8242 60.96 78.7673 61.0381 78.6533C61.1195 78.5361 61.1602 78.3148 61.1602 77.9893V76.3291C61.1602 75.792 61.1471 75.4648 61.1211 75.3477C61.0983 75.2305 61.0609 75.1507 61.0088 75.1084C60.96 75.0661 60.8932 75.0449 60.8086 75.0449C60.7174 75.0449 60.6084 75.0693 60.4814 75.1182L60.4082 74.9424L61.7559 74.3955H61.9658V75.3428ZM66.4141 76.2119C66.4108 76.876 66.5719 77.3968 66.8975 77.7744C67.223 78.152 67.6055 78.3408 68.0449 78.3408C68.3379 78.3408 68.5918 78.2611 68.8066 78.1016C69.0247 77.9388 69.207 77.6621 69.3535 77.2715L69.5049 77.3691C69.4365 77.8151 69.238 78.222 68.9092 78.5898C68.5804 78.9544 68.1686 79.1367 67.6738 79.1367C67.1367 79.1367 66.6761 78.9284 66.292 78.5117C65.9111 78.0918 65.7207 77.5286 65.7207 76.8223C65.7207 76.0573 65.916 75.4616 66.3066 75.0352C66.7005 74.6055 67.1937 74.3906 67.7861 74.3906C68.2874 74.3906 68.6992 74.5566 69.0215 74.8887C69.3438 75.2174 69.5049 75.6585 69.5049 76.2119H66.4141ZM66.4141 75.9287H68.4844C68.4681 75.6423 68.4339 75.4404 68.3818 75.3232C68.3005 75.141 68.1784 74.9977 68.0156 74.8936C67.8561 74.7894 67.6885 74.7373 67.5127 74.7373C67.2425 74.7373 67 74.8431 66.7852 75.0547C66.5736 75.263 66.4499 75.5544 66.4141 75.9287ZM72.9961 74.3955V75.9189H72.835C72.7113 75.4404 72.5518 75.1149 72.3564 74.9424C72.1644 74.7699 71.9186 74.6836 71.6191 74.6836C71.3913 74.6836 71.2074 74.7438 71.0674 74.8643C70.9274 74.9847 70.8574 75.1182 70.8574 75.2646C70.8574 75.4469 70.9095 75.6032 71.0137 75.7334C71.1146 75.8669 71.3197 76.0085 71.6289 76.1582L72.3418 76.5049C73.0026 76.8271 73.333 77.252 73.333 77.7793C73.333 78.1862 73.1784 78.515 72.8691 78.7656C72.5632 79.013 72.2197 79.1367 71.8389 79.1367C71.5654 79.1367 71.2529 79.0879 70.9014 78.9902C70.7939 78.9577 70.7061 78.9414 70.6377 78.9414C70.5628 78.9414 70.5042 78.9837 70.4619 79.0684H70.3008V77.4717H70.4619C70.5531 77.9274 70.7272 78.2708 70.9844 78.502C71.2415 78.7331 71.5296 78.8486 71.8486 78.8486C72.0732 78.8486 72.2555 78.7835 72.3955 78.6533C72.5387 78.5199 72.6104 78.3604 72.6104 78.1748C72.6104 77.9502 72.5306 77.7614 72.3711 77.6084C72.2148 77.4554 71.9007 77.2617 71.4287 77.0273C70.9567 76.793 70.6475 76.5814 70.501 76.3926C70.3545 76.207 70.2812 75.9727 70.2812 75.6895C70.2812 75.3216 70.4066 75.014 70.6572 74.7666C70.9111 74.5192 71.2383 74.3955 71.6387 74.3955C71.8145 74.3955 72.0277 74.4329 72.2783 74.5078C72.4443 74.5566 72.555 74.5811 72.6104 74.5811C72.6624 74.5811 72.7031 74.5697 72.7324 74.5469C72.7617 74.5241 72.7959 74.4736 72.835 74.3955H72.9961ZM76.8926 74.3955V75.9189H76.7314C76.6077 75.4404 76.4482 75.1149 76.2529 74.9424C76.0609 74.7699 75.8151 74.6836 75.5156 74.6836C75.2878 74.6836 75.1038 74.7438 74.9639 74.8643C74.8239 74.9847 74.7539 75.1182 74.7539 75.2646C74.7539 75.4469 74.806 75.6032 74.9102 75.7334C75.0111 75.8669 75.2161 76.0085 75.5254 76.1582L76.2383 76.5049C76.8991 76.8271 77.2295 77.252 77.2295 77.7793C77.2295 78.1862 77.0749 78.515 76.7656 78.7656C76.4596 79.013 76.1162 79.1367 75.7354 79.1367C75.4619 79.1367 75.1494 79.0879 74.7979 78.9902C74.6904 78.9577 74.6025 78.9414 74.5342 78.9414C74.4593 78.9414 74.4007 78.9837 74.3584 79.0684H74.1973V77.4717H74.3584C74.4495 77.9274 74.6237 78.2708 74.8809 78.502C75.138 78.7331 75.4261 78.8486 75.7451 78.8486C75.9697 78.8486 76.152 78.7835 76.292 78.6533C76.4352 78.5199 76.5068 78.3604 76.5068 78.1748C76.5068 77.9502 76.4271 77.7614 76.2676 77.6084C76.1113 77.4554 75.7972 77.2617 75.3252 77.0273C74.8532 76.793 74.5439 76.5814 74.3975 76.3926C74.251 76.207 74.1777 75.9727 74.1777 75.6895C74.1777 75.3216 74.3031 75.014 74.5537 74.7666C74.8076 74.5192 75.1348 74.3955 75.5352 74.3955C75.7109 74.3955 75.9242 74.4329 76.1748 74.5078C76.3408 74.5566 76.4515 74.5811 76.5068 74.5811C76.5589 74.5811 76.5996 74.5697 76.6289 74.5469C76.6582 74.5241 76.6924 74.4736 76.7314 74.3955H76.8926ZM48.0205 83.2275L48.1719 85.4785H48.0205C47.8187 84.8047 47.5306 84.3197 47.1562 84.0234C46.7819 83.7272 46.3327 83.5791 45.8086 83.5791C45.3691 83.5791 44.972 83.6914 44.6172 83.916C44.2624 84.1374 43.9824 84.4922 43.7773 84.9805C43.5755 85.4688 43.4746 86.0758 43.4746 86.8018C43.4746 87.4007 43.5706 87.9199 43.7627 88.3594C43.9548 88.7988 44.2428 89.1357 44.627 89.3701C45.0143 89.6045 45.4554 89.7217 45.9502 89.7217C46.3799 89.7217 46.7591 89.6305 47.0879 89.4482C47.4167 89.2627 47.778 88.8965 48.1719 88.3496L48.3232 88.4473C47.9912 89.0365 47.6038 89.4678 47.1611 89.7412C46.7184 90.0146 46.1927 90.1514 45.584 90.1514C44.487 90.1514 43.6374 89.7445 43.0352 88.9307C42.5859 88.3252 42.3613 87.6123 42.3613 86.792C42.3613 86.1312 42.5094 85.5241 42.8057 84.9707C43.1019 84.4173 43.5088 83.9893 44.0264 83.6865C44.5472 83.3805 45.1152 83.2275 45.7305 83.2275C46.209 83.2275 46.681 83.3447 47.1465 83.5791C47.2832 83.6507 47.3809 83.6865 47.4395 83.6865C47.5273 83.6865 47.6038 83.6556 47.6689 83.5938C47.7536 83.5059 47.8138 83.3838 47.8496 83.2275H48.0205ZM51.1699 85.3955C51.847 85.3955 52.3906 85.6527 52.8008 86.167C53.1491 86.6064 53.3232 87.111 53.3232 87.6807C53.3232 88.0811 53.2272 88.4863 53.0352 88.8965C52.8431 89.3066 52.5778 89.6159 52.2393 89.8242C51.904 90.0326 51.5296 90.1367 51.1162 90.1367C50.4424 90.1367 49.9069 89.8682 49.5098 89.3311C49.1745 88.8786 49.0068 88.3708 49.0068 87.8076C49.0068 87.3975 49.1077 86.9906 49.3096 86.5869C49.5146 86.18 49.7832 85.8805 50.1152 85.6885C50.4473 85.4932 50.7988 85.3955 51.1699 85.3955ZM51.0186 85.7129C50.846 85.7129 50.6719 85.765 50.4961 85.8691C50.3236 85.9701 50.1836 86.1491 50.0762 86.4062C49.9688 86.6634 49.915 86.9938 49.915 87.3975C49.915 88.0485 50.0436 88.61 50.3008 89.082C50.5612 89.554 50.903 89.79 51.3262 89.79C51.6419 89.79 51.9023 89.6598 52.1074 89.3994C52.3125 89.139 52.415 88.6914 52.415 88.0566C52.415 87.2624 52.2441 86.6374 51.9023 86.1816C51.6712 85.8691 51.3766 85.7129 51.0186 85.7129ZM57.9033 85.5273V88.2373C57.9033 88.7549 57.9147 89.0723 57.9375 89.1895C57.9635 89.3034 58.0026 89.3831 58.0547 89.4287C58.11 89.4743 58.1735 89.4971 58.2451 89.4971C58.346 89.4971 58.46 89.4694 58.5869 89.4141L58.6553 89.585L57.3174 90.1367H57.0977V89.1895C56.7135 89.6061 56.4206 89.8682 56.2188 89.9756C56.0169 90.083 55.8037 90.1367 55.5791 90.1367C55.3285 90.1367 55.1104 90.0651 54.9248 89.9219C54.7425 89.7754 54.6156 89.5882 54.5439 89.3604C54.4723 89.1325 54.4365 88.8102 54.4365 88.3936V86.3965C54.4365 86.1849 54.4137 86.0384 54.3682 85.957C54.3226 85.8757 54.2542 85.8138 54.1631 85.7715C54.0752 85.7259 53.9141 85.7048 53.6797 85.708V85.5273H55.2471V88.5205C55.2471 88.9372 55.3187 89.2106 55.4619 89.3408C55.6084 89.471 55.7842 89.5361 55.9893 89.5361C56.1292 89.5361 56.2871 89.4922 56.4629 89.4043C56.6419 89.3164 56.8535 89.1488 57.0977 88.9014V86.3672C57.0977 86.1133 57.0505 85.9424 56.9561 85.8545C56.8649 85.7633 56.6729 85.7145 56.3799 85.708V85.5273H57.9033ZM60.2861 86.3428C60.8102 85.7113 61.3099 85.3955 61.7852 85.3955C62.0293 85.3955 62.2393 85.4574 62.415 85.5811C62.5908 85.7015 62.7308 85.9017 62.835 86.1816C62.9066 86.377 62.9424 86.6764 62.9424 87.0801V88.9893C62.9424 89.2725 62.9652 89.4645 63.0107 89.5654C63.0465 89.6468 63.1035 89.7103 63.1816 89.7559C63.263 89.8014 63.4111 89.8242 63.626 89.8242V90H61.4141V89.8242H61.5068C61.7152 89.8242 61.86 89.7933 61.9414 89.7314C62.026 89.6663 62.0846 89.5719 62.1172 89.4482C62.1302 89.3994 62.1367 89.2464 62.1367 88.9893V87.1582C62.1367 86.7513 62.083 86.4567 61.9756 86.2744C61.8714 86.0889 61.694 85.9961 61.4434 85.9961C61.056 85.9961 60.6702 86.2077 60.2861 86.6309V88.9893C60.2861 89.292 60.304 89.4792 60.3398 89.5508C60.3854 89.6452 60.4473 89.7152 60.5254 89.7607C60.6068 89.8031 60.7695 89.8242 61.0137 89.8242V90H58.8018V89.8242H58.8994C59.1273 89.8242 59.2803 89.7673 59.3584 89.6533C59.4398 89.5361 59.4805 89.3148 59.4805 88.9893V87.3291C59.4805 86.792 59.4674 86.4648 59.4414 86.3477C59.4186 86.2305 59.3812 86.1507 59.3291 86.1084C59.2803 86.0661 59.2135 86.0449 59.1289 86.0449C59.0378 86.0449 58.9287 86.0693 58.8018 86.1182L58.7285 85.9424L60.0762 85.3955H60.2861V86.3428ZM67.7812 88.3008C67.6608 88.89 67.4248 89.3441 67.0732 89.6631C66.7217 89.9788 66.3327 90.1367 65.9062 90.1367C65.3984 90.1367 64.9557 89.9235 64.5781 89.4971C64.2005 89.0706 64.0117 88.4945 64.0117 87.7686C64.0117 87.0654 64.2201 86.4941 64.6367 86.0547C65.0566 85.6152 65.5596 85.3955 66.1455 85.3955C66.585 85.3955 66.9463 85.5127 67.2295 85.7471C67.5127 85.9782 67.6543 86.2191 67.6543 86.4697C67.6543 86.5934 67.6136 86.6943 67.5322 86.7725C67.4541 86.8473 67.3434 86.8848 67.2002 86.8848C67.0081 86.8848 66.8633 86.8229 66.7656 86.6992C66.7103 86.6309 66.6729 86.5007 66.6533 86.3086C66.637 86.1165 66.5719 85.9701 66.458 85.8691C66.3441 85.7715 66.1862 85.7227 65.9844 85.7227C65.6589 85.7227 65.3968 85.8431 65.1982 86.084C64.9346 86.403 64.8027 86.8245 64.8027 87.3486C64.8027 87.8825 64.9329 88.3545 65.1934 88.7646C65.457 89.1715 65.8118 89.375 66.2578 89.375C66.5768 89.375 66.8633 89.266 67.1172 89.0479C67.2962 88.8981 67.4704 88.6263 67.6396 88.2324L67.7812 88.3008ZM69.5635 83.0566C69.7002 83.0566 69.8158 83.1055 69.9102 83.2031C70.0078 83.2975 70.0566 83.4131 70.0566 83.5498C70.0566 83.6865 70.0078 83.8037 69.9102 83.9014C69.8158 83.999 69.7002 84.0479 69.5635 84.0479C69.4268 84.0479 69.3096 83.999 69.2119 83.9014C69.1143 83.8037 69.0654 83.6865 69.0654 83.5498C69.0654 83.4131 69.1126 83.2975 69.207 83.2031C69.3047 83.1055 69.4235 83.0566 69.5635 83.0566ZM69.9688 85.3955V88.9893C69.9688 89.2692 69.9883 89.4564 70.0273 89.5508C70.0697 89.6419 70.1299 89.7103 70.208 89.7559C70.2894 89.8014 70.4359 89.8242 70.6475 89.8242V90H68.4746V89.8242C68.6927 89.8242 68.8392 89.8031 68.9141 89.7607C68.9889 89.7184 69.0475 89.6484 69.0898 89.5508C69.1354 89.4531 69.1582 89.266 69.1582 88.9893V87.2656C69.1582 86.7806 69.1436 86.4665 69.1143 86.3232C69.0915 86.2191 69.0557 86.1475 69.0068 86.1084C68.958 86.0661 68.8913 86.0449 68.8066 86.0449C68.7155 86.0449 68.6048 86.0693 68.4746 86.1182L68.4062 85.9424L69.7539 85.3955H69.9688ZM72.7471 83.0566V88.9893C72.7471 89.2692 72.7666 89.4548 72.8057 89.5459C72.848 89.637 72.9115 89.707 72.9961 89.7559C73.0807 89.8014 73.2386 89.8242 73.4697 89.8242V90H71.2773V89.8242C71.4824 89.8242 71.6224 89.8031 71.6973 89.7607C71.7721 89.7184 71.8307 89.6484 71.873 89.5508C71.9154 89.4531 71.9365 89.266 71.9365 88.9893V84.9268C71.9365 84.4222 71.9251 84.113 71.9023 83.999C71.8796 83.8818 71.8421 83.8021 71.79 83.7598C71.7412 83.7174 71.6777 83.6963 71.5996 83.6963C71.515 83.6963 71.4076 83.7223 71.2773 83.7744L71.1943 83.6035L72.5273 83.0566H72.7471Z" fill="#505050"/>
<path d="M30.2915 26.9048C31.0649 26.9048 31.7344 27.1992 32.2998 27.7881C32.8682 28.374 33.1523 29.1064 33.1523 29.9854C33.1523 30.8906 32.8667 31.6421 32.2954 32.2397C31.7241 32.8374 31.0327 33.1362 30.2212 33.1362C29.4009 33.1362 28.7109 32.8447 28.1514 32.2617C27.5947 31.6787 27.3164 30.9243 27.3164 29.9985C27.3164 29.0522 27.6387 28.2803 28.2832 27.6826C28.8428 27.1641 29.5122 26.9048 30.2915 26.9048ZM30.208 27.2256C29.6748 27.2256 29.2471 27.4233 28.9248 27.8188C28.5234 28.311 28.3228 29.0317 28.3228 29.981C28.3228 30.9536 28.5308 31.7021 28.9468 32.2266C29.2661 32.625 29.688 32.8242 30.2124 32.8242C30.772 32.8242 31.2334 32.606 31.5967 32.1694C31.9629 31.7329 32.146 31.0444 32.146 30.104C32.146 29.0845 31.9453 28.3242 31.5439 27.8232C31.2217 27.4248 30.7764 27.2256 30.208 27.2256ZM35.3584 29.291V31.9365C35.3584 32.3115 35.3994 32.5488 35.4814 32.6484C35.5898 32.7773 35.7349 32.8418 35.9165 32.8418H36.2812V33H33.8774V32.8418H34.0576C34.1748 32.8418 34.2817 32.8125 34.3784 32.7539C34.4751 32.6953 34.541 32.6162 34.5762 32.5166C34.6143 32.417 34.6333 32.2236 34.6333 31.9365V29.291H33.8511V28.9746H34.6333V28.7109C34.6333 28.3096 34.6978 27.9697 34.8267 27.6914C34.9556 27.4131 35.1519 27.189 35.4155 27.019C35.6821 26.8462 35.981 26.7598 36.312 26.7598C36.6196 26.7598 36.9023 26.8594 37.1602 27.0586C37.3301 27.1904 37.415 27.3384 37.415 27.5024C37.415 27.5903 37.377 27.6738 37.3008 27.7529C37.2246 27.8291 37.1426 27.8672 37.0547 27.8672C36.9873 27.8672 36.9155 27.8438 36.8394 27.7969C36.7661 27.7471 36.6753 27.6431 36.5669 27.4849C36.4585 27.3237 36.3589 27.2153 36.2681 27.1597C36.1772 27.104 36.0762 27.0762 35.9648 27.0762C35.8301 27.0762 35.7158 27.1128 35.6221 27.186C35.5283 27.2563 35.4609 27.3677 35.4199 27.52C35.3789 27.6694 35.3584 28.0576 35.3584 28.6846V28.9746H36.3955V29.291H35.3584ZM38.1885 29.291V31.9365C38.1885 32.3115 38.2295 32.5488 38.3115 32.6484C38.4199 32.7773 38.5649 32.8418 38.7466 32.8418H39.1113V33H36.7075V32.8418H36.8877C37.0049 32.8418 37.1118 32.8125 37.2085 32.7539C37.3052 32.6953 37.3711 32.6162 37.4062 32.5166C37.4443 32.417 37.4634 32.2236 37.4634 31.9365V29.291H36.6812V28.9746H37.4634V28.7109C37.4634 28.3096 37.5278 27.9697 37.6567 27.6914C37.7856 27.4131 37.9819 27.189 38.2456 27.019C38.5122 26.8462 38.811 26.7598 39.1421 26.7598C39.4497 26.7598 39.7324 26.8594 39.9902 27.0586C40.1602 27.1904 40.2451 27.3384 40.2451 27.5024C40.2451 27.5903 40.207 27.6738 40.1309 27.7529C40.0547 27.8291 39.9727 27.8672 39.8848 27.8672C39.8174 27.8672 39.7456 27.8438 39.6694 27.7969C39.5962 27.7471 39.5054 27.6431 39.397 27.4849C39.2886 27.3237 39.189 27.2153 39.0981 27.1597C39.0073 27.104 38.9062 27.0762 38.7949 27.0762C38.6602 27.0762 38.5459 27.1128 38.4521 27.186C38.3584 27.2563 38.291 27.3677 38.25 27.52C38.209 27.6694 38.1885 28.0576 38.1885 28.6846V28.9746H39.2256V29.291H38.1885ZM40.6362 26.751C40.7593 26.751 40.8633 26.7949 40.9482 26.8828C41.0361 26.9678 41.0801 27.0718 41.0801 27.1948C41.0801 27.3179 41.0361 27.4233 40.9482 27.5112C40.8633 27.5991 40.7593 27.6431 40.6362 27.6431C40.5132 27.6431 40.4077 27.5991 40.3198 27.5112C40.2319 27.4233 40.188 27.3179 40.188 27.1948C40.188 27.0718 40.2305 26.9678 40.3154 26.8828C40.4033 26.7949 40.5103 26.751 40.6362 26.751ZM41.001 28.856V32.0903C41.001 32.3423 41.0186 32.5107 41.0537 32.5957C41.0918 32.6777 41.146 32.7393 41.2163 32.7803C41.2896 32.8213 41.4214 32.8418 41.6118 32.8418V33H39.6562V32.8418C39.8525 32.8418 39.9844 32.8228 40.0518 32.7847C40.1191 32.7466 40.1719 32.6836 40.21 32.5957C40.251 32.5078 40.2715 32.3394 40.2715 32.0903V30.5391C40.2715 30.1025 40.2583 29.8198 40.2319 29.6909C40.2114 29.5972 40.1792 29.5327 40.1353 29.4976C40.0913 29.4595 40.0312 29.4404 39.9551 29.4404C39.873 29.4404 39.7734 29.4624 39.6562 29.5063L39.5947 29.3481L40.8076 28.856H41.001ZM45.5361 31.4707C45.4277 32.001 45.2153 32.4097 44.8989 32.6968C44.5825 32.981 44.2324 33.123 43.8486 33.123C43.3916 33.123 42.9932 32.9312 42.6533 32.5474C42.3135 32.1636 42.1436 31.645 42.1436 30.9917C42.1436 30.3589 42.3311 29.8447 42.7061 29.4492C43.084 29.0537 43.5366 28.856 44.064 28.856C44.4595 28.856 44.7847 28.9614 45.0396 29.1724C45.2944 29.3804 45.4219 29.5972 45.4219 29.8228C45.4219 29.9341 45.3853 30.0249 45.312 30.0952C45.2417 30.1626 45.1421 30.1963 45.0132 30.1963C44.8403 30.1963 44.71 30.1406 44.6221 30.0293C44.5723 29.9678 44.5386 29.8506 44.521 29.6777C44.5063 29.5049 44.4478 29.373 44.3452 29.2822C44.2427 29.1943 44.1006 29.1504 43.9189 29.1504C43.626 29.1504 43.3901 29.2588 43.2114 29.4756C42.9741 29.7627 42.8555 30.1421 42.8555 30.6138C42.8555 31.0942 42.9727 31.519 43.207 31.8882C43.4443 32.2544 43.7637 32.4375 44.165 32.4375C44.4521 32.4375 44.71 32.3394 44.9385 32.1431C45.0996 32.0083 45.2563 31.7637 45.4087 31.4092L45.5361 31.4707ZM47.1401 26.751C47.2632 26.751 47.3672 26.7949 47.4521 26.8828C47.54 26.9678 47.584 27.0718 47.584 27.1948C47.584 27.3179 47.54 27.4233 47.4521 27.5112C47.3672 27.5991 47.2632 27.6431 47.1401 27.6431C47.0171 27.6431 46.9116 27.5991 46.8237 27.5112C46.7358 27.4233 46.6919 27.3179 46.6919 27.1948C46.6919 27.0718 46.7344 26.9678 46.8193 26.8828C46.9072 26.7949 47.0142 26.751 47.1401 26.751ZM47.5049 28.856V32.0903C47.5049 32.3423 47.5225 32.5107 47.5576 32.5957C47.5957 32.6777 47.6499 32.7393 47.7202 32.7803C47.7935 32.8213 47.9253 32.8418 48.1157 32.8418V33H46.1602V32.8418C46.3564 32.8418 46.4883 32.8228 46.5557 32.7847C46.623 32.7466 46.6758 32.6836 46.7139 32.5957C46.7549 32.5078 46.7754 32.3394 46.7754 32.0903V30.5391C46.7754 30.1025 46.7622 29.8198 46.7358 29.6909C46.7153 29.5972 46.6831 29.5327 46.6392 29.4976C46.5952 29.4595 46.5352 29.4404 46.459 29.4404C46.377 29.4404 46.2773 29.4624 46.1602 29.5063L46.0986 29.3481L47.3115 28.856H47.5049ZM50.9019 32.4199C50.4888 32.7393 50.2295 32.9238 50.124 32.9736C49.9658 33.0469 49.7974 33.0835 49.6187 33.0835C49.3403 33.0835 49.1104 32.9883 48.9287 32.7979C48.75 32.6074 48.6606 32.3569 48.6606 32.0464C48.6606 31.8501 48.7046 31.6802 48.7925 31.5366C48.9126 31.3374 49.1206 31.1499 49.4165 30.9741C49.7153 30.7983 50.2104 30.5845 50.9019 30.3325V30.1743C50.9019 29.7729 50.8374 29.4976 50.7085 29.3481C50.5825 29.1987 50.3979 29.124 50.1548 29.124C49.9702 29.124 49.8237 29.1738 49.7153 29.2734C49.604 29.373 49.5483 29.4873 49.5483 29.6162L49.5571 29.8711C49.5571 30.0059 49.522 30.1099 49.4517 30.1831C49.3843 30.2563 49.2949 30.293 49.1836 30.293C49.0752 30.293 48.9858 30.2549 48.9155 30.1787C48.8481 30.1025 48.8145 29.9985 48.8145 29.8667C48.8145 29.6147 48.9434 29.3833 49.2012 29.1724C49.459 28.9614 49.8208 28.856 50.2866 28.856C50.644 28.856 50.937 28.916 51.1655 29.0361C51.3384 29.127 51.4658 29.269 51.5479 29.4624C51.6006 29.5884 51.627 29.8462 51.627 30.2358V31.6025C51.627 31.9863 51.6343 32.2222 51.6489 32.3101C51.6636 32.395 51.687 32.4521 51.7192 32.4814C51.7544 32.5107 51.7939 32.5254 51.8379 32.5254C51.8848 32.5254 51.9258 32.5151 51.9609 32.4946C52.0225 32.4565 52.1411 32.3496 52.3169 32.1738V32.4199C51.9888 32.8594 51.6753 33.0791 51.3765 33.0791C51.2329 33.0791 51.1187 33.0293 51.0337 32.9297C50.9487 32.8301 50.9048 32.6602 50.9019 32.4199ZM50.9019 32.1343V30.6006C50.4595 30.7764 50.1738 30.9009 50.0449 30.9741C49.8135 31.103 49.6479 31.2378 49.5483 31.3784C49.4487 31.519 49.3989 31.6729 49.3989 31.8398C49.3989 32.0508 49.4619 32.2266 49.5879 32.3672C49.7139 32.5049 49.8589 32.5737 50.0229 32.5737C50.2456 32.5737 50.5386 32.4272 50.9019 32.1343ZM54.0044 26.751V32.0903C54.0044 32.3423 54.022 32.5093 54.0571 32.5913C54.0952 32.6733 54.1523 32.7363 54.2285 32.7803C54.3047 32.8213 54.4468 32.8418 54.6548 32.8418V33H52.6816V32.8418C52.8662 32.8418 52.9922 32.8228 53.0596 32.7847C53.127 32.7466 53.1797 32.6836 53.2178 32.5957C53.2559 32.5078 53.2749 32.3394 53.2749 32.0903V28.4341C53.2749 27.98 53.2646 27.7017 53.2441 27.5991C53.2236 27.4937 53.1899 27.4219 53.1431 27.3838C53.0991 27.3457 53.042 27.3267 52.9717 27.3267C52.8955 27.3267 52.7988 27.3501 52.6816 27.397L52.6069 27.2432L53.8066 26.751H54.0044ZM60.7764 33L58.4736 27.9858V31.9673C58.4736 32.3335 58.5132 32.562 58.5923 32.6528C58.7007 32.7759 58.8721 32.8374 59.1064 32.8374H59.3174V33H57.2432V32.8374H57.4541C57.7061 32.8374 57.8848 32.7612 57.9902 32.6089C58.0547 32.5151 58.0869 32.3013 58.0869 31.9673V28.0737C58.0869 27.8101 58.0576 27.6196 57.999 27.5024C57.958 27.4175 57.8818 27.3472 57.7705 27.2915C57.6621 27.2329 57.4863 27.2036 57.2432 27.2036V27.041H58.9307L61.0928 31.7036L63.2197 27.041H64.9072V27.2036H64.7007C64.4458 27.2036 64.2656 27.2798 64.1602 27.4321C64.0957 27.5259 64.0635 27.7397 64.0635 28.0737V31.9673C64.0635 32.3335 64.1045 32.562 64.1865 32.6528C64.2949 32.7759 64.4663 32.8374 64.7007 32.8374H64.9072V33H62.376V32.8374H62.5869C62.8418 32.8374 63.0205 32.7612 63.123 32.6089C63.1875 32.5151 63.2197 32.3013 63.2197 31.9673V27.9858L60.9214 33H60.7764ZM66.0586 30.4907C66.0557 31.0884 66.2007 31.5571 66.4937 31.897C66.7866 32.2368 67.1309 32.4067 67.5264 32.4067C67.79 32.4067 68.0186 32.335 68.2119 32.1914C68.4082 32.0449 68.5723 31.7959 68.7041 31.4443L68.8403 31.5322C68.7788 31.9336 68.6001 32.2998 68.3042 32.6309C68.0083 32.959 67.6377 33.123 67.1924 33.123C66.709 33.123 66.2944 32.9355 65.9487 32.5605C65.606 32.1826 65.4346 31.6758 65.4346 31.04C65.4346 30.3516 65.6104 29.8154 65.9619 29.4316C66.3164 29.0449 66.7603 28.8516 67.2935 28.8516C67.7446 28.8516 68.1152 29.001 68.4053 29.2998C68.6953 29.5957 68.8403 29.9927 68.8403 30.4907H66.0586ZM66.0586 30.2358H67.9219C67.9072 29.978 67.8765 29.7964 67.8296 29.6909C67.7563 29.5269 67.6465 29.3979 67.5 29.3042C67.3564 29.2104 67.2056 29.1636 67.0474 29.1636C66.8042 29.1636 66.5859 29.2588 66.3926 29.4492C66.2021 29.6367 66.0908 29.8989 66.0586 30.2358ZM70.5762 29.7129C70.8691 29.4199 71.042 29.2515 71.0947 29.2075C71.2266 29.0962 71.3687 29.0098 71.521 28.9482C71.6733 28.8867 71.8242 28.856 71.9736 28.856C72.2256 28.856 72.4424 28.9292 72.624 29.0757C72.8057 29.2222 72.9272 29.4346 72.9888 29.7129C73.2905 29.3613 73.5454 29.1313 73.7534 29.0229C73.9614 28.9116 74.1753 28.856 74.395 28.856C74.6089 28.856 74.7979 28.9116 74.9619 29.0229C75.1289 29.1313 75.2607 29.3101 75.3574 29.5591C75.4219 29.729 75.4541 29.9956 75.4541 30.3589V32.0903C75.4541 32.3423 75.4731 32.5151 75.5112 32.6089C75.5405 32.6733 75.5947 32.729 75.6738 32.7759C75.7529 32.8198 75.8818 32.8418 76.0605 32.8418V33H74.0742V32.8418H74.1577C74.3306 32.8418 74.4653 32.8081 74.562 32.7407C74.6294 32.6938 74.6777 32.6191 74.707 32.5166C74.7188 32.4668 74.7246 32.3247 74.7246 32.0903V30.3589C74.7246 30.0308 74.6851 29.7993 74.606 29.6646C74.4917 29.4771 74.3086 29.3833 74.0566 29.3833C73.9014 29.3833 73.7446 29.4229 73.5864 29.502C73.4312 29.5781 73.2422 29.7217 73.0195 29.9326L73.0107 29.981L73.0195 30.1699V32.0903C73.0195 32.3657 73.0342 32.5371 73.0635 32.6045C73.0957 32.6719 73.1543 32.729 73.2393 32.7759C73.3242 32.8198 73.4692 32.8418 73.6743 32.8418V33H71.6396V32.8418C71.8623 32.8418 72.0146 32.8154 72.0967 32.7627C72.1816 32.71 72.2402 32.6309 72.2725 32.5254C72.2871 32.4756 72.2944 32.3306 72.2944 32.0903V30.3589C72.2944 30.0308 72.2461 29.7949 72.1494 29.6514C72.0205 29.4639 71.8403 29.3701 71.6089 29.3701C71.4507 29.3701 71.2939 29.4126 71.1387 29.4976C70.8955 29.6265 70.708 29.7715 70.5762 29.9326V32.0903C70.5762 32.354 70.5938 32.5254 70.6289 32.6045C70.667 32.6836 70.7212 32.7437 70.7915 32.7847C70.8647 32.8228 71.0112 32.8418 71.231 32.8418V33H69.2402V32.8418C69.4248 32.8418 69.5537 32.8228 69.627 32.7847C69.7002 32.7437 69.7559 32.6807 69.7939 32.5957C69.832 32.5078 69.8511 32.3394 69.8511 32.0903V30.5522C69.8511 30.1099 69.8379 29.8242 69.8115 29.6953C69.791 29.5986 69.7588 29.5327 69.7148 29.4976C69.6709 29.4595 69.6108 29.4404 69.5347 29.4404C69.4526 29.4404 69.3545 29.4624 69.2402 29.5063L69.1743 29.3481L70.3872 28.856H70.5762V29.7129ZM77.4888 29.6689C77.8784 29.127 78.2988 28.856 78.75 28.856C79.1631 28.856 79.5234 29.0332 79.8311 29.3877C80.1387 29.7393 80.2925 30.2212 80.2925 30.8335C80.2925 31.5483 80.0552 32.124 79.5806 32.5605C79.1733 32.9355 78.7192 33.123 78.2183 33.123C77.9839 33.123 77.7451 33.0806 77.502 32.9956C77.2617 32.9106 77.0156 32.7832 76.7637 32.6133V28.4429C76.7637 27.9858 76.752 27.7046 76.7285 27.5991C76.708 27.4937 76.6743 27.4219 76.6274 27.3838C76.5806 27.3457 76.522 27.3267 76.4517 27.3267C76.3696 27.3267 76.2671 27.3501 76.144 27.397L76.0825 27.2432L77.291 26.751H77.4888V29.6689ZM77.4888 29.9502V32.3584C77.6382 32.5049 77.792 32.6162 77.9502 32.6924C78.1113 32.7656 78.2754 32.8022 78.4424 32.8022C78.709 32.8022 78.9565 32.6558 79.1851 32.3628C79.4165 32.0698 79.5322 31.6436 79.5322 31.084C79.5322 30.5684 79.4165 30.1729 79.1851 29.8975C78.9565 29.6191 78.6958 29.48 78.4028 29.48C78.2476 29.48 78.0923 29.5195 77.937 29.5986C77.8198 29.6572 77.6704 29.7744 77.4888 29.9502ZM81.5625 30.4907C81.5596 31.0884 81.7046 31.5571 81.9976 31.897C82.2905 32.2368 82.6348 32.4067 83.0303 32.4067C83.2939 32.4067 83.5225 32.335 83.7158 32.1914C83.9121 32.0449 84.0762 31.7959 84.208 31.4443L84.3442 31.5322C84.2827 31.9336 84.104 32.2998 83.8081 32.6309C83.5122 32.959 83.1416 33.123 82.6963 33.123C82.2129 33.123 81.7983 32.9355 81.4526 32.5605C81.1099 32.1826 80.9385 31.6758 80.9385 31.04C80.9385 30.3516 81.1143 29.8154 81.4658 29.4316C81.8203 29.0449 82.2642 28.8516 82.7974 28.8516C83.2485 28.8516 83.6191 29.001 83.9092 29.2998C84.1992 29.5957 84.3442 29.9927 84.3442 30.4907H81.5625ZM81.5625 30.2358H83.4258C83.4111 29.978 83.3804 29.7964 83.3335 29.6909C83.2603 29.5269 83.1504 29.3979 83.0039 29.3042C82.8604 29.2104 82.7095 29.1636 82.5513 29.1636C82.3081 29.1636 82.0898 29.2588 81.8965 29.4492C81.7061 29.6367 81.5947 29.8989 81.5625 30.2358ZM86.0625 28.856V29.7612C86.3994 29.1577 86.7451 28.856 87.0996 28.856C87.2607 28.856 87.394 28.9058 87.4995 29.0054C87.605 29.1021 87.6577 29.2148 87.6577 29.3438C87.6577 29.458 87.6196 29.5547 87.5435 29.6338C87.4673 29.7129 87.3765 29.7524 87.271 29.7524C87.1685 29.7524 87.0527 29.7026 86.9238 29.603C86.7979 29.5005 86.7041 29.4492 86.6426 29.4492C86.5898 29.4492 86.5327 29.4785 86.4712 29.5371C86.3394 29.6572 86.2031 29.855 86.0625 30.1304V32.0596C86.0625 32.2822 86.0903 32.4507 86.146 32.5649C86.1841 32.644 86.2515 32.71 86.3481 32.7627C86.4448 32.8154 86.584 32.8418 86.7656 32.8418V33H84.7046V32.8418C84.9097 32.8418 85.062 32.8096 85.1616 32.7451C85.2349 32.6982 85.2861 32.6235 85.3154 32.521C85.3301 32.4712 85.3374 32.3291 85.3374 32.0947V30.5347C85.3374 30.0659 85.3271 29.7876 85.3066 29.6997C85.2891 29.6089 85.2539 29.543 85.2012 29.502C85.1514 29.4609 85.0884 29.4404 85.0122 29.4404C84.9214 29.4404 84.8188 29.4624 84.7046 29.5063L84.6606 29.3481L85.8779 28.856H86.0625Z" fill="#757575"/>
<path d="M47.7969 22H42.3418V21.8496C44.0143 19.8581 45.0283 18.5182 45.3838 17.8301C45.7438 17.1419 45.9238 16.4697 45.9238 15.8135C45.9238 15.335 45.7757 14.9385 45.4795 14.624C45.1833 14.305 44.821 14.1455 44.3926 14.1455C43.6908 14.1455 43.1462 14.4964 42.7588 15.1982L42.5059 15.1094C42.752 14.2344 43.1257 13.5872 43.627 13.168C44.1283 12.7487 44.707 12.5391 45.3633 12.5391C45.8327 12.5391 46.2611 12.6484 46.6484 12.8672C47.0358 13.0859 47.3389 13.3867 47.5576 13.7695C47.7764 14.1478 47.8857 14.5033 47.8857 14.8359C47.8857 15.4421 47.7171 16.0573 47.3799 16.6816C46.9196 17.5247 45.9147 18.7005 44.3652 20.209H46.3682C46.8604 20.209 47.1794 20.1885 47.3252 20.1475C47.4756 20.1064 47.5986 20.0381 47.6943 19.9424C47.79 19.8421 47.9154 19.6348 48.0703 19.3203H48.3164L47.7969 22ZM55.4873 17.3652C55.4873 18.2904 55.3574 19.154 55.0977 19.9561C54.9427 20.4482 54.7331 20.8516 54.4688 21.166C54.209 21.4805 53.9128 21.7311 53.5801 21.918C53.2474 22.1003 52.8851 22.1914 52.4932 22.1914C52.0465 22.1914 51.6432 22.0775 51.2832 21.8496C50.9232 21.6217 50.6042 21.2959 50.3262 20.8721C50.1257 20.5622 49.9502 20.1497 49.7998 19.6348C49.6038 18.9375 49.5059 18.2174 49.5059 17.4746C49.5059 16.4674 49.6471 15.5423 49.9297 14.6992C50.1621 14.002 50.5153 13.4688 50.9893 13.0996C51.4632 12.7259 51.9645 12.5391 52.4932 12.5391C53.0309 12.5391 53.5322 12.7236 53.9971 13.0928C54.4665 13.4574 54.8105 13.9495 55.0293 14.5693C55.3346 15.4215 55.4873 16.3535 55.4873 17.3652ZM53.3818 17.3516C53.3818 15.7292 53.3727 14.7835 53.3545 14.5146C53.3089 13.8812 53.1995 13.4528 53.0264 13.2295C52.9124 13.0837 52.7279 13.0107 52.4727 13.0107C52.2767 13.0107 52.1217 13.0654 52.0078 13.1748C51.8392 13.3343 51.7253 13.6169 51.666 14.0225C51.6068 14.4235 51.5771 15.8294 51.5771 18.2402C51.5771 19.5527 51.6227 20.4323 51.7139 20.8789C51.7822 21.2025 51.8802 21.4189 52.0078 21.5283C52.1354 21.6377 52.304 21.6924 52.5137 21.6924C52.7415 21.6924 52.9124 21.6195 53.0264 21.4736C53.2178 21.2184 53.3271 20.8242 53.3545 20.291L53.3818 17.3516ZM61.7969 22H56.3418V21.8496C58.0143 19.8581 59.0283 18.5182 59.3838 17.8301C59.7438 17.1419 59.9238 16.4697 59.9238 15.8135C59.9238 15.335 59.7757 14.9385 59.4795 14.624C59.1833 14.305 58.821 14.1455 58.3926 14.1455C57.6908 14.1455 57.1462 14.4964 56.7588 15.1982L56.5059 15.1094C56.752 14.2344 57.1257 13.5872 57.627 13.168C58.1283 12.7487 58.707 12.5391 59.3633 12.5391C59.8327 12.5391 60.2611 12.6484 60.6484 12.8672C61.0358 13.0859 61.3389 13.3867 61.5576 13.7695C61.7764 14.1478 61.8857 14.5033 61.8857 14.8359C61.8857 15.4421 61.7171 16.0573 61.3799 16.6816C60.9196 17.5247 59.9147 18.7005 58.3652 20.209H60.3682C60.8604 20.209 61.1794 20.1885 61.3252 20.1475C61.4756 20.1064 61.5986 20.0381 61.6943 19.9424C61.79 19.8421 61.9154 19.6348 62.0703 19.3203H62.3164L61.7969 22ZM69.4873 17.3652C69.4873 18.2904 69.3574 19.154 69.0977 19.9561C68.9427 20.4482 68.7331 20.8516 68.4688 21.166C68.209 21.4805 67.9128 21.7311 67.5801 21.918C67.2474 22.1003 66.8851 22.1914 66.4932 22.1914C66.0465 22.1914 65.6432 22.0775 65.2832 21.8496C64.9232 21.6217 64.6042 21.2959 64.3262 20.8721C64.1257 20.5622 63.9502 20.1497 63.7998 19.6348C63.6038 18.9375 63.5059 18.2174 63.5059 17.4746C63.5059 16.4674 63.6471 15.5423 63.9297 14.6992C64.1621 14.002 64.5153 13.4688 64.9893 13.0996C65.4632 12.7259 65.9645 12.5391 66.4932 12.5391C67.0309 12.5391 67.5322 12.7236 67.9971 13.0928C68.4665 13.4574 68.8105 13.9495 69.0293 14.5693C69.3346 15.4215 69.4873 16.3535 69.4873 17.3652ZM67.3818 17.3516C67.3818 15.7292 67.3727 14.7835 67.3545 14.5146C67.3089 13.8812 67.1995 13.4528 67.0264 13.2295C66.9124 13.0837 66.7279 13.0107 66.4727 13.0107C66.2767 13.0107 66.1217 13.0654 66.0078 13.1748C65.8392 13.3343 65.7253 13.6169 65.666 14.0225C65.6068 14.4235 65.5771 15.8294 65.5771 18.2402C65.5771 19.5527 65.6227 20.4323 65.7139 20.8789C65.7822 21.2025 65.8802 21.4189 66.0078 21.5283C66.1354 21.6377 66.304 21.6924 66.5137 21.6924C66.7415 21.6924 66.9124 21.6195 67.0264 21.4736C67.2178 21.2184 67.3271 20.8242 67.3545 20.291L67.3818 17.3516Z" fill="#0166A3"/>
</svg>
