<svg width="470" height="342" viewBox="0 0 470 342" fill="none" xmlns="http://www.w3.org/2000/svg">
<rect y="49" width="470" height="284" rx="15" fill="#F0F8FC"/>
<path d="M136.975 154L131.818 137.198H131.687C131.872 140.616 131.965 142.896 131.965 144.039V154H127.907V132.584H134.089L139.157 148.961H139.245L144.621 132.584H150.803V154H146.569V143.863C146.569 143.385 146.574 142.833 146.584 142.208C146.604 141.583 146.672 139.923 146.789 137.228H146.657L141.135 154H136.975ZM169.318 154L167.766 148.902H159.958L158.405 154H153.513L161.071 132.496H166.623L174.211 154H169.318ZM166.682 145.094C165.246 140.475 164.436 137.862 164.25 137.257C164.074 136.651 163.947 136.173 163.869 135.821C163.547 137.071 162.624 140.162 161.101 145.094H166.682ZM195.92 154H190.148L180.832 137.799H180.7C180.886 140.66 180.979 142.701 180.979 143.922V154H176.921V132.584H182.648L191.95 148.624H192.053C191.906 145.841 191.833 143.873 191.833 142.721V132.584H195.92V154ZM218.757 132.584V146.441C218.757 148.023 218.4 149.41 217.688 150.602C216.984 151.793 215.964 152.706 214.626 153.341C213.288 153.976 211.706 154.293 209.88 154.293C207.126 154.293 204.987 153.59 203.464 152.184C201.94 150.768 201.179 148.834 201.179 146.383V132.584H205.705V145.694C205.705 147.345 206.037 148.556 206.701 149.327C207.365 150.099 208.464 150.484 209.997 150.484C211.481 150.484 212.556 150.099 213.22 149.327C213.894 148.546 214.23 147.325 214.23 145.665V132.584H218.757ZM237.111 154L235.559 148.902H227.751L226.198 154H221.306L228.864 132.496H234.416L242.004 154H237.111ZM234.475 145.094C233.039 140.475 232.229 137.862 232.043 137.257C231.867 136.651 231.74 136.173 231.662 135.821C231.34 137.071 230.417 140.162 228.894 145.094H234.475ZM244.714 154V132.584H249.255V150.25H257.941V154H244.714ZM269.47 154V132.584H274.011V150.25H282.697V154H269.47ZM286.433 154V132.584H290.974V154H286.433ZM315.363 154H309.592L300.275 137.799H300.144C300.329 140.66 300.422 142.701 300.422 143.922V154H296.364V132.584H302.092L311.394 148.624H311.496C311.35 145.841 311.276 143.873 311.276 142.721V132.584H315.363V154ZM337.995 154H332.839L327.229 144.977L325.31 146.354V154H320.769V132.584H325.31V142.384L327.097 139.864L332.897 132.584H337.937L330.466 142.062L337.995 154ZM179.06 195L177.507 189.902H169.699L168.146 195H163.254L170.812 173.496H176.364L183.952 195H179.06ZM176.423 186.094C174.987 181.475 174.177 178.862 173.991 178.257C173.815 177.651 173.688 177.173 173.61 176.821C173.288 178.071 172.365 181.162 170.842 186.094H176.423ZM205.661 195H199.89L190.573 178.799H190.441C190.627 181.66 190.72 183.701 190.72 184.922V195H186.662V173.584H192.39L201.691 189.624H201.794C201.647 186.841 201.574 184.873 201.574 183.721V173.584H205.661V195ZM224.177 195L222.624 189.902H214.816L213.264 195H208.371L215.93 173.496H221.481L229.069 195H224.177ZM221.54 186.094C220.104 181.475 219.294 178.862 219.108 178.257C218.933 177.651 218.806 177.173 218.728 176.821C218.405 178.071 217.482 181.162 215.959 186.094H221.54ZM231.779 195V173.584H236.32V191.25H245.007V195H231.779ZM255.407 182.402L259.875 173.584H264.768L257.663 186.665V195H253.151V186.812L246.047 173.584H250.969L255.407 182.402ZM280.104 189.053C280.104 190.986 279.406 192.51 278.01 193.623C276.623 194.736 274.689 195.293 272.209 195.293C269.924 195.293 267.902 194.863 266.145 194.004V189.785C267.59 190.43 268.811 190.884 269.807 191.147C270.812 191.411 271.73 191.543 272.561 191.543C273.557 191.543 274.318 191.353 274.846 190.972C275.383 190.591 275.651 190.024 275.651 189.272C275.651 188.853 275.534 188.481 275.3 188.159C275.065 187.827 274.719 187.51 274.26 187.207C273.811 186.904 272.888 186.421 271.491 185.757C270.183 185.142 269.201 184.551 268.547 183.984C267.893 183.418 267.37 182.759 266.979 182.007C266.589 181.255 266.394 180.376 266.394 179.37C266.394 177.476 267.033 175.986 268.312 174.902C269.602 173.818 271.379 173.276 273.645 173.276C274.758 173.276 275.817 173.408 276.823 173.672C277.839 173.936 278.898 174.307 280.002 174.785L278.537 178.315C277.395 177.847 276.447 177.52 275.695 177.334C274.953 177.148 274.221 177.056 273.498 177.056C272.639 177.056 271.979 177.256 271.521 177.656C271.062 178.057 270.832 178.579 270.832 179.224C270.832 179.624 270.925 179.976 271.11 180.278C271.296 180.571 271.589 180.859 271.989 181.143C272.399 181.416 273.361 181.914 274.875 182.637C276.877 183.594 278.249 184.556 278.991 185.522C279.733 186.479 280.104 187.656 280.104 189.053ZM283.986 195V173.584H288.527V195H283.986ZM306.56 189.053C306.56 190.986 305.861 192.51 304.465 193.623C303.078 194.736 301.145 195.293 298.664 195.293C296.379 195.293 294.357 194.863 292.6 194.004V189.785C294.045 190.43 295.266 190.884 296.262 191.147C297.268 191.411 298.186 191.543 299.016 191.543C300.012 191.543 300.773 191.353 301.301 190.972C301.838 190.591 302.106 190.024 302.106 189.272C302.106 188.853 301.989 188.481 301.755 188.159C301.521 187.827 301.174 187.51 300.715 187.207C300.266 186.904 299.343 186.421 297.946 185.757C296.638 185.142 295.656 184.551 295.002 183.984C294.348 183.418 293.825 182.759 293.435 182.007C293.044 181.255 292.849 180.376 292.849 179.37C292.849 177.476 293.488 175.986 294.768 174.902C296.057 173.818 297.834 173.276 300.1 173.276C301.213 173.276 302.272 173.408 303.278 173.672C304.294 173.936 305.354 174.307 306.457 174.785L304.992 178.315C303.85 177.847 302.902 177.52 302.15 177.334C301.408 177.148 300.676 177.056 299.953 177.056C299.094 177.056 298.435 177.256 297.976 177.656C297.517 178.057 297.287 178.579 297.287 179.224C297.287 179.624 297.38 179.976 297.565 180.278C297.751 180.571 298.044 180.859 298.444 181.143C298.854 181.416 299.816 181.914 301.33 182.637C303.332 183.594 304.704 184.556 305.446 185.522C306.188 186.479 306.56 187.656 306.56 189.053Z" fill="black"/>
<path d="M64.168 235L62.5684 230.913H57.418L55.8359 235H54.3242L59.4043 222.098H60.6611L65.7148 235H64.168ZM62.1025 229.568L60.6084 225.587C60.415 225.083 60.2158 224.465 60.0107 223.732C59.8818 224.295 59.6973 224.913 59.457 225.587L57.9453 229.568H62.1025ZM68.7207 235H67.2617V221.324H68.7207V235ZM73.2734 235H71.8145V221.324H73.2734V235ZM85.5254 225.209C86.791 225.209 87.7725 225.643 88.4697 226.51C89.1729 227.371 89.5244 228.593 89.5244 230.175C89.5244 231.757 89.1699 232.987 88.4609 233.866C87.7578 234.739 86.7793 235.176 85.5254 235.176C84.8984 235.176 84.3242 235.062 83.8027 234.833C83.2871 234.599 82.8535 234.241 82.502 233.761H82.3965L82.0889 235H81.043V221.324H82.502V224.646C82.502 225.391 82.4785 226.059 82.4316 226.65H82.502C83.1816 225.689 84.1895 225.209 85.5254 225.209ZM85.3145 226.431C84.3184 226.431 83.6006 226.718 83.1611 227.292C82.7217 227.86 82.502 228.821 82.502 230.175C82.502 231.528 82.7275 232.498 83.1787 233.084C83.6299 233.664 84.3535 233.954 85.3496 233.954C86.2461 233.954 86.9141 233.629 87.3535 232.979C87.793 232.322 88.0127 231.382 88.0127 230.157C88.0127 228.903 87.793 227.969 87.3535 227.354C86.9141 226.738 86.2344 226.431 85.3145 226.431ZM98.0059 235L97.7158 233.629H97.6455C97.165 234.232 96.6846 234.643 96.2041 234.859C95.7295 235.07 95.1348 235.176 94.4199 235.176C93.4648 235.176 92.7148 234.93 92.1699 234.438C91.6309 233.945 91.3613 233.245 91.3613 232.337C91.3613 230.392 92.917 229.372 96.0283 229.278L97.6631 229.226V228.628C97.6631 227.872 97.499 227.315 97.1709 226.958C96.8486 226.595 96.3301 226.413 95.6152 226.413C94.8125 226.413 93.9043 226.659 92.8906 227.151L92.4424 226.035C92.917 225.777 93.4355 225.575 93.998 225.429C94.5664 225.282 95.1348 225.209 95.7031 225.209C96.8516 225.209 97.7012 225.464 98.252 225.974C98.8086 226.483 99.0869 227.301 99.0869 228.426V235H98.0059ZM94.71 233.972C95.6182 233.972 96.3301 233.723 96.8457 233.225C97.3672 232.727 97.6279 232.029 97.6279 231.133V230.263L96.1689 230.324C95.0088 230.365 94.1709 230.547 93.6553 230.869C93.1455 231.186 92.8906 231.681 92.8906 232.354C92.8906 232.882 93.0488 233.283 93.3652 233.559C93.6875 233.834 94.1357 233.972 94.71 233.972ZM105.951 235.176C104.557 235.176 103.476 234.748 102.708 233.893C101.946 233.031 101.565 231.815 101.565 230.245C101.565 228.634 101.952 227.389 102.726 226.51C103.505 225.631 104.612 225.191 106.048 225.191C106.511 225.191 106.974 225.241 107.437 225.341C107.899 225.44 108.263 225.558 108.526 225.692L108.078 226.932C107.756 226.803 107.404 226.697 107.023 226.615C106.643 226.527 106.306 226.483 106.013 226.483C104.056 226.483 103.077 227.731 103.077 230.228C103.077 231.411 103.314 232.319 103.789 232.952C104.27 233.585 104.979 233.901 105.916 233.901C106.719 233.901 107.542 233.729 108.386 233.383V234.675C107.741 235.009 106.93 235.176 105.951 235.176ZM112.121 230.069C112.373 229.712 112.757 229.243 113.272 228.663L116.384 225.367H118.115L114.213 229.472L118.388 235H116.621L113.22 230.447L112.121 231.396V235H110.68V221.324H112.121V228.575C112.121 228.897 112.098 229.396 112.051 230.069H112.121ZM121.596 235H120.137V221.324H121.596V235ZM126.148 235H124.689V225.367H126.148V235ZM124.566 222.757C124.566 222.423 124.648 222.18 124.812 222.027C124.977 221.869 125.182 221.79 125.428 221.79C125.662 221.79 125.864 221.869 126.034 222.027C126.204 222.186 126.289 222.429 126.289 222.757C126.289 223.085 126.204 223.331 126.034 223.495C125.864 223.653 125.662 223.732 125.428 223.732C125.182 223.732 124.977 223.653 124.812 223.495C124.648 223.331 124.566 223.085 124.566 222.757ZM135.834 235V228.769C135.834 227.983 135.655 227.397 135.298 227.011C134.94 226.624 134.381 226.431 133.619 226.431C132.611 226.431 131.873 226.703 131.404 227.248C130.936 227.793 130.701 228.692 130.701 229.946V235H129.242V225.367H130.429L130.666 226.686H130.736C131.035 226.211 131.454 225.845 131.993 225.587C132.532 225.323 133.133 225.191 133.795 225.191C134.955 225.191 135.828 225.473 136.414 226.035C137 226.592 137.293 227.485 137.293 228.716V235H135.834ZM141.74 230.069C141.992 229.712 142.376 229.243 142.892 228.663L146.003 225.367H147.734L143.832 229.472L148.007 235H146.24L142.839 230.447L141.74 231.396V235H140.299V221.324H141.74V228.575C141.74 228.897 141.717 229.396 141.67 230.069H141.74ZM155.97 232.372C155.97 233.269 155.636 233.96 154.968 234.446C154.3 234.933 153.362 235.176 152.155 235.176C150.878 235.176 149.882 234.974 149.167 234.569V233.216C149.63 233.45 150.125 233.635 150.652 233.77C151.186 233.904 151.698 233.972 152.19 233.972C152.952 233.972 153.538 233.852 153.948 233.611C154.358 233.365 154.563 232.993 154.563 232.495C154.563 232.12 154.399 231.801 154.071 231.537C153.749 231.268 153.116 230.951 152.173 230.588C151.276 230.254 150.638 229.964 150.257 229.718C149.882 229.466 149.601 229.182 149.413 228.865C149.231 228.549 149.141 228.171 149.141 227.731C149.141 226.946 149.46 226.328 150.099 225.877C150.737 225.42 151.613 225.191 152.727 225.191C153.764 225.191 154.777 225.402 155.768 225.824L155.249 227.011C154.282 226.612 153.406 226.413 152.621 226.413C151.93 226.413 151.408 226.521 151.057 226.738C150.705 226.955 150.529 227.254 150.529 227.635C150.529 227.893 150.594 228.112 150.723 228.294C150.857 228.476 151.071 228.648 151.364 228.812C151.657 228.977 152.22 229.214 153.052 229.524C154.194 229.94 154.965 230.359 155.363 230.781C155.768 231.203 155.97 231.733 155.97 232.372ZM168.951 235L168.661 233.629H168.591C168.11 234.232 167.63 234.643 167.149 234.859C166.675 235.07 166.08 235.176 165.365 235.176C164.41 235.176 163.66 234.93 163.115 234.438C162.576 233.945 162.307 233.245 162.307 232.337C162.307 230.392 163.862 229.372 166.974 229.278L168.608 229.226V228.628C168.608 227.872 168.444 227.315 168.116 226.958C167.794 226.595 167.275 226.413 166.561 226.413C165.758 226.413 164.85 226.659 163.836 227.151L163.388 226.035C163.862 225.777 164.381 225.575 164.943 225.429C165.512 225.282 166.08 225.209 166.648 225.209C167.797 225.209 168.646 225.464 169.197 225.974C169.754 226.483 170.032 227.301 170.032 228.426V235H168.951ZM165.655 233.972C166.563 233.972 167.275 233.723 167.791 233.225C168.312 232.727 168.573 232.029 168.573 231.133V230.263L167.114 230.324C165.954 230.365 165.116 230.547 164.601 230.869C164.091 231.186 163.836 231.681 163.836 232.354C163.836 232.882 163.994 233.283 164.311 233.559C164.633 233.834 165.081 233.972 165.655 233.972ZM177.441 225.191C177.869 225.191 178.253 225.227 178.593 225.297L178.391 226.65C177.992 226.562 177.641 226.519 177.336 226.519C176.557 226.519 175.889 226.835 175.332 227.468C174.781 228.101 174.506 228.889 174.506 229.832V235H173.047V225.367H174.251L174.418 227.151H174.488C174.846 226.524 175.276 226.041 175.78 225.701C176.284 225.361 176.838 225.191 177.441 225.191ZM184.464 235.176C183.04 235.176 181.915 234.742 181.089 233.875C180.269 233.008 179.858 231.804 179.858 230.263C179.858 228.71 180.239 227.477 181.001 226.562C181.769 225.648 182.797 225.191 184.086 225.191C185.293 225.191 186.248 225.59 186.951 226.387C187.654 227.178 188.006 228.224 188.006 229.524V230.447H181.37C181.399 231.578 181.684 232.437 182.223 233.022C182.768 233.608 183.532 233.901 184.517 233.901C185.554 233.901 186.579 233.685 187.593 233.251V234.552C187.077 234.774 186.588 234.933 186.125 235.026C185.668 235.126 185.114 235.176 184.464 235.176ZM184.068 226.413C183.295 226.413 182.677 226.665 182.214 227.169C181.757 227.673 181.487 228.37 181.405 229.261H186.441C186.441 228.341 186.236 227.638 185.826 227.151C185.416 226.659 184.83 226.413 184.068 226.413ZM201.102 235L200.812 233.629H200.741C200.261 234.232 199.78 234.643 199.3 234.859C198.825 235.07 198.23 235.176 197.516 235.176C196.561 235.176 195.811 234.93 195.266 234.438C194.727 233.945 194.457 233.245 194.457 232.337C194.457 230.392 196.013 229.372 199.124 229.278L200.759 229.226V228.628C200.759 227.872 200.595 227.315 200.267 226.958C199.944 226.595 199.426 226.413 198.711 226.413C197.908 226.413 197 226.659 195.986 227.151L195.538 226.035C196.013 225.777 196.531 225.575 197.094 225.429C197.662 225.282 198.23 225.209 198.799 225.209C199.947 225.209 200.797 225.464 201.348 225.974C201.904 226.483 202.183 227.301 202.183 228.426V235H201.102ZM197.806 233.972C198.714 233.972 199.426 233.723 199.941 233.225C200.463 232.727 200.724 232.029 200.724 231.133V230.263L199.265 230.324C198.104 230.365 197.267 230.547 196.751 230.869C196.241 231.186 195.986 231.681 195.986 232.354C195.986 232.882 196.145 233.283 196.461 233.559C196.783 233.834 197.231 233.972 197.806 233.972ZM211.789 235V228.769C211.789 227.983 211.61 227.397 211.253 227.011C210.896 226.624 210.336 226.431 209.574 226.431C208.566 226.431 207.828 226.703 207.359 227.248C206.891 227.793 206.656 228.692 206.656 229.946V235H205.197V225.367H206.384L206.621 226.686H206.691C206.99 226.211 207.409 225.845 207.948 225.587C208.487 225.323 209.088 225.191 209.75 225.191C210.91 225.191 211.783 225.473 212.369 226.035C212.955 226.592 213.248 227.485 213.248 228.716V235H211.789ZM222.178 235L221.888 233.629H221.817C221.337 234.232 220.856 234.643 220.376 234.859C219.901 235.07 219.307 235.176 218.592 235.176C217.637 235.176 216.887 234.93 216.342 234.438C215.803 233.945 215.533 233.245 215.533 232.337C215.533 230.392 217.089 229.372 220.2 229.278L221.835 229.226V228.628C221.835 227.872 221.671 227.315 221.343 226.958C221.021 226.595 220.502 226.413 219.787 226.413C218.984 226.413 218.076 226.659 217.062 227.151L216.614 226.035C217.089 225.777 217.607 225.575 218.17 225.429C218.738 225.282 219.307 225.209 219.875 225.209C221.023 225.209 221.873 225.464 222.424 225.974C222.98 226.483 223.259 227.301 223.259 228.426V235H222.178ZM218.882 233.972C219.79 233.972 220.502 233.723 221.018 233.225C221.539 232.727 221.8 232.029 221.8 231.133V230.263L220.341 230.324C219.181 230.365 218.343 230.547 217.827 230.869C217.317 231.186 217.062 231.681 217.062 232.354C217.062 232.882 217.221 233.283 217.537 233.559C217.859 233.834 218.308 233.972 218.882 233.972ZM227.732 235H226.273V221.324H227.732V235ZM229.297 225.367H230.861L232.971 230.86C233.434 232.114 233.721 233.02 233.832 233.576H233.902C233.979 233.277 234.137 232.768 234.377 232.047C234.623 231.32 235.42 229.094 236.768 225.367H238.332L234.192 236.336C233.782 237.42 233.302 238.188 232.751 238.639C232.206 239.096 231.535 239.324 230.738 239.324C230.293 239.324 229.854 239.274 229.42 239.175V238.006C229.742 238.076 230.103 238.111 230.501 238.111C231.503 238.111 232.218 237.549 232.646 236.424L233.182 235.053L229.297 225.367ZM246.058 235H239.07V234.007L244.326 226.501H239.396V225.367H245.926V226.501L240.74 233.866H246.058V235ZM252.386 235.176C250.962 235.176 249.837 234.742 249.011 233.875C248.19 233.008 247.78 231.804 247.78 230.263C247.78 228.71 248.161 227.477 248.923 226.562C249.69 225.648 250.719 225.191 252.008 225.191C253.215 225.191 254.17 225.59 254.873 226.387C255.576 227.178 255.928 228.224 255.928 229.524V230.447H249.292C249.321 231.578 249.605 232.437 250.145 233.022C250.689 233.608 251.454 233.901 252.438 233.901C253.476 233.901 254.501 233.685 255.515 233.251V234.552C254.999 234.774 254.51 234.933 254.047 235.026C253.59 235.126 253.036 235.176 252.386 235.176ZM251.99 226.413C251.217 226.413 250.599 226.665 250.136 227.169C249.679 227.673 249.409 228.37 249.327 229.261H254.363C254.363 228.341 254.158 227.638 253.748 227.151C253.338 226.659 252.752 226.413 251.99 226.413ZM264.98 233.708H264.901C264.228 234.687 263.22 235.176 261.878 235.176C260.618 235.176 259.637 234.745 258.934 233.884C258.236 233.022 257.888 231.798 257.888 230.21C257.888 228.622 258.239 227.389 258.942 226.51C259.646 225.631 260.624 225.191 261.878 225.191C263.185 225.191 264.187 225.666 264.884 226.615H264.998L264.937 225.921L264.901 225.244V221.324H266.36V235H265.174L264.98 233.708ZM262.062 233.954C263.059 233.954 263.779 233.685 264.225 233.146C264.676 232.601 264.901 231.725 264.901 230.518V230.21C264.901 228.845 264.673 227.872 264.216 227.292C263.765 226.706 263.041 226.413 262.045 226.413C261.189 226.413 260.533 226.747 260.076 227.415C259.625 228.077 259.399 229.015 259.399 230.228C259.399 231.458 259.625 232.387 260.076 233.014C260.527 233.641 261.189 233.954 262.062 233.954ZM280.062 235L279.772 233.629H279.702C279.222 234.232 278.741 234.643 278.261 234.859C277.786 235.07 277.191 235.176 276.477 235.176C275.521 235.176 274.771 234.93 274.227 234.438C273.688 233.945 273.418 233.245 273.418 232.337C273.418 230.392 274.974 229.372 278.085 229.278L279.72 229.226V228.628C279.72 227.872 279.556 227.315 279.228 226.958C278.905 226.595 278.387 226.413 277.672 226.413C276.869 226.413 275.961 226.659 274.947 227.151L274.499 226.035C274.974 225.777 275.492 225.575 276.055 225.429C276.623 225.282 277.191 225.209 277.76 225.209C278.908 225.209 279.758 225.464 280.309 225.974C280.865 226.483 281.144 227.301 281.144 228.426V235H280.062ZM276.767 233.972C277.675 233.972 278.387 233.723 278.902 233.225C279.424 232.727 279.685 232.029 279.685 231.133V230.263L278.226 230.324C277.065 230.365 276.228 230.547 275.712 230.869C275.202 231.186 274.947 231.681 274.947 232.354C274.947 232.882 275.105 233.283 275.422 233.559C275.744 233.834 276.192 233.972 276.767 233.972ZM290.75 235V228.769C290.75 227.983 290.571 227.397 290.214 227.011C289.856 226.624 289.297 226.431 288.535 226.431C287.527 226.431 286.789 226.703 286.32 227.248C285.852 227.793 285.617 228.692 285.617 229.946V235H284.158V225.367H285.345L285.582 226.686H285.652C285.951 226.211 286.37 225.845 286.909 225.587C287.448 225.323 288.049 225.191 288.711 225.191C289.871 225.191 290.744 225.473 291.33 226.035C291.916 226.592 292.209 227.485 292.209 228.716V235H290.75ZM301.771 233.708H301.692C301.019 234.687 300.011 235.176 298.669 235.176C297.409 235.176 296.428 234.745 295.725 233.884C295.027 233.022 294.679 231.798 294.679 230.21C294.679 228.622 295.03 227.389 295.733 226.51C296.437 225.631 297.415 225.191 298.669 225.191C299.976 225.191 300.978 225.666 301.675 226.615H301.789L301.728 225.921L301.692 225.244V221.324H303.151V235H301.965L301.771 233.708ZM298.854 233.954C299.85 233.954 300.57 233.685 301.016 233.146C301.467 232.601 301.692 231.725 301.692 230.518V230.21C301.692 228.845 301.464 227.872 301.007 227.292C300.556 226.706 299.832 226.413 298.836 226.413C297.98 226.413 297.324 226.747 296.867 227.415C296.416 228.077 296.19 229.015 296.19 230.228C296.19 231.458 296.416 232.387 296.867 233.014C297.318 233.641 297.98 233.954 298.854 233.954ZM315.324 225.191C315.752 225.191 316.136 225.227 316.476 225.297L316.273 226.65C315.875 226.562 315.523 226.519 315.219 226.519C314.439 226.519 313.771 226.835 313.215 227.468C312.664 228.101 312.389 228.889 312.389 229.832V235H310.93V225.367H312.134L312.301 227.151H312.371C312.729 226.524 313.159 226.041 313.663 225.701C314.167 225.361 314.721 225.191 315.324 225.191ZM322.347 235.176C320.923 235.176 319.798 234.742 318.972 233.875C318.151 233.008 317.741 231.804 317.741 230.263C317.741 228.71 318.122 227.477 318.884 226.562C319.651 225.648 320.68 225.191 321.969 225.191C323.176 225.191 324.131 225.59 324.834 226.387C325.537 227.178 325.889 228.224 325.889 229.524V230.447H319.253C319.282 231.578 319.566 232.437 320.105 233.022C320.65 233.608 321.415 233.901 322.399 233.901C323.437 233.901 324.462 233.685 325.476 233.251V234.552C324.96 234.774 324.471 234.933 324.008 235.026C323.551 235.126 322.997 235.176 322.347 235.176ZM321.951 226.413C321.178 226.413 320.56 226.665 320.097 227.169C319.64 227.673 319.37 228.37 319.288 229.261H324.324C324.324 228.341 324.119 227.638 323.709 227.151C323.299 226.659 322.713 226.413 321.951 226.413ZM330.494 235L326.838 225.367H328.402L330.477 231.08C330.945 232.416 331.221 233.283 331.303 233.682H331.373C331.438 233.371 331.64 232.729 331.979 231.757C332.325 230.778 333.096 228.648 334.291 225.367H335.855L332.199 235H330.494ZM338.861 235H337.402V225.367H338.861V235ZM337.279 222.757C337.279 222.423 337.361 222.18 337.525 222.027C337.689 221.869 337.895 221.79 338.141 221.79C338.375 221.79 338.577 221.869 338.747 222.027C338.917 222.186 339.002 222.429 339.002 222.757C339.002 223.085 338.917 223.331 338.747 223.495C338.577 223.653 338.375 223.732 338.141 223.732C337.895 223.732 337.689 223.653 337.525 223.495C337.361 223.331 337.279 223.085 337.279 222.757ZM346.024 235.176C344.601 235.176 343.476 234.742 342.649 233.875C341.829 233.008 341.419 231.804 341.419 230.263C341.419 228.71 341.8 227.477 342.562 226.562C343.329 225.648 344.357 225.191 345.646 225.191C346.854 225.191 347.809 225.59 348.512 226.387C349.215 227.178 349.566 228.224 349.566 229.524V230.447H342.931C342.96 231.578 343.244 232.437 343.783 233.022C344.328 233.608 345.093 233.901 346.077 233.901C347.114 233.901 348.14 233.685 349.153 233.251V234.552C348.638 234.774 348.148 234.933 347.686 235.026C347.229 235.126 346.675 235.176 346.024 235.176ZM345.629 226.413C344.855 226.413 344.237 226.665 343.774 227.169C343.317 227.673 343.048 228.37 342.966 229.261H348.002C348.002 228.341 347.797 227.638 347.387 227.151C346.977 226.659 346.391 226.413 345.629 226.413ZM359.929 235L358.162 229.349C358.051 229.003 357.843 228.218 357.538 226.993H357.468C357.233 228.019 357.028 228.81 356.853 229.366L355.033 235H353.346L350.718 225.367H352.247C352.868 227.787 353.34 229.63 353.662 230.896C353.99 232.161 354.178 233.014 354.225 233.453H354.295C354.359 233.119 354.462 232.688 354.603 232.161C354.749 231.628 354.875 231.206 354.98 230.896L356.747 225.367H358.329L360.052 230.896C360.38 231.903 360.603 232.75 360.72 233.436H360.79C360.813 233.225 360.875 232.899 360.975 232.46C361.08 232.021 361.692 229.656 362.812 225.367H364.323L361.66 235H359.929ZM370.142 235.176C368.718 235.176 367.593 234.742 366.767 233.875C365.946 233.008 365.536 231.804 365.536 230.263C365.536 228.71 365.917 227.477 366.679 226.562C367.446 225.648 368.475 225.191 369.764 225.191C370.971 225.191 371.926 225.59 372.629 226.387C373.332 227.178 373.684 228.224 373.684 229.524V230.447H367.048C367.077 231.578 367.361 232.437 367.9 233.022C368.445 233.608 369.21 233.901 370.194 233.901C371.231 233.901 372.257 233.685 373.271 233.251V234.552C372.755 234.774 372.266 234.933 371.803 235.026C371.346 235.126 370.792 235.176 370.142 235.176ZM369.746 226.413C368.973 226.413 368.354 226.665 367.892 227.169C367.435 227.673 367.165 228.37 367.083 229.261H372.119C372.119 228.341 371.914 227.638 371.504 227.151C371.094 226.659 370.508 226.413 369.746 226.413ZM382.736 233.708H382.657C381.983 234.687 380.976 235.176 379.634 235.176C378.374 235.176 377.393 234.745 376.689 233.884C375.992 233.022 375.644 231.798 375.644 230.21C375.644 228.622 375.995 227.389 376.698 226.51C377.401 225.631 378.38 225.191 379.634 225.191C380.94 225.191 381.942 225.666 382.64 226.615H382.754L382.692 225.921L382.657 225.244V221.324H384.116V235H382.93L382.736 233.708ZM379.818 233.954C380.814 233.954 381.535 233.685 381.98 233.146C382.432 232.601 382.657 231.725 382.657 230.518V230.21C382.657 228.845 382.429 227.872 381.972 227.292C381.521 226.706 380.797 226.413 379.801 226.413C378.945 226.413 378.289 226.747 377.832 227.415C377.381 228.077 377.155 229.015 377.155 230.228C377.155 231.458 377.381 232.387 377.832 233.014C378.283 233.641 378.945 233.954 379.818 233.954ZM396.236 226.501H393.784V235H392.325V226.501H390.603V225.842L392.325 225.314V224.778C392.325 222.411 393.359 221.228 395.428 221.228C395.938 221.228 396.535 221.33 397.221 221.535L396.843 222.704C396.28 222.522 395.8 222.432 395.401 222.432C394.851 222.432 394.443 222.616 394.18 222.985C393.916 223.349 393.784 223.935 393.784 224.743V225.367H396.236V226.501ZM406.309 230.175C406.309 231.745 405.913 232.973 405.122 233.857C404.331 234.736 403.238 235.176 401.844 235.176C400.982 235.176 400.218 234.974 399.55 234.569C398.882 234.165 398.366 233.585 398.003 232.829C397.64 232.073 397.458 231.188 397.458 230.175C397.458 228.604 397.851 227.383 398.636 226.51C399.421 225.631 400.511 225.191 401.905 225.191C403.253 225.191 404.322 225.64 405.113 226.536C405.91 227.433 406.309 228.646 406.309 230.175ZM398.97 230.175C398.97 231.405 399.216 232.343 399.708 232.987C400.2 233.632 400.924 233.954 401.879 233.954C402.834 233.954 403.558 233.635 404.05 232.996C404.548 232.352 404.797 231.411 404.797 230.175C404.797 228.95 404.548 228.021 404.05 227.389C403.558 226.75 402.828 226.431 401.861 226.431C400.906 226.431 400.186 226.744 399.699 227.371C399.213 227.998 398.97 228.933 398.97 230.175ZM413.27 225.191C413.697 225.191 414.081 225.227 414.421 225.297L414.219 226.65C413.82 226.562 413.469 226.519 413.164 226.519C412.385 226.519 411.717 226.835 411.16 227.468C410.609 228.101 410.334 228.889 410.334 229.832V235H408.875V225.367H410.079L410.246 227.151H410.316C410.674 226.524 411.104 226.041 411.608 225.701C412.112 225.361 412.666 225.191 413.27 225.191ZM136.265 260.176C135.638 260.176 135.063 260.062 134.542 259.833C134.026 259.599 133.593 259.241 133.241 258.761H133.136C133.206 259.323 133.241 259.856 133.241 260.36V264.324H131.782V250.367H132.969L133.171 251.686H133.241C133.616 251.158 134.053 250.777 134.551 250.543C135.049 250.309 135.62 250.191 136.265 250.191C137.542 250.191 138.526 250.628 139.218 251.501C139.915 252.374 140.264 253.599 140.264 255.175C140.264 256.757 139.909 257.987 139.2 258.866C138.497 259.739 137.519 260.176 136.265 260.176ZM136.054 251.431C135.069 251.431 134.357 251.703 133.918 252.248C133.479 252.793 133.253 253.66 133.241 254.85V255.175C133.241 256.528 133.467 257.498 133.918 258.084C134.369 258.664 135.093 258.954 136.089 258.954C136.921 258.954 137.571 258.617 138.04 257.943C138.515 257.27 138.752 256.341 138.752 255.157C138.752 253.956 138.515 253.036 138.04 252.397C137.571 251.753 136.909 251.431 136.054 251.431ZM147.216 250.191C147.644 250.191 148.027 250.227 148.367 250.297L148.165 251.65C147.767 251.562 147.415 251.519 147.11 251.519C146.331 251.519 145.663 251.835 145.106 252.468C144.556 253.101 144.28 253.889 144.28 254.832V260H142.821V250.367H144.025L144.192 252.151H144.263C144.62 251.524 145.051 251.041 145.555 250.701C146.059 250.361 146.612 250.191 147.216 250.191ZM158.483 255.175C158.483 256.745 158.088 257.973 157.297 258.857C156.506 259.736 155.413 260.176 154.019 260.176C153.157 260.176 152.393 259.974 151.725 259.569C151.057 259.165 150.541 258.585 150.178 257.829C149.814 257.073 149.633 256.188 149.633 255.175C149.633 253.604 150.025 252.383 150.811 251.51C151.596 250.631 152.686 250.191 154.08 250.191C155.428 250.191 156.497 250.64 157.288 251.536C158.085 252.433 158.483 253.646 158.483 255.175ZM151.145 255.175C151.145 256.405 151.391 257.343 151.883 257.987C152.375 258.632 153.099 258.954 154.054 258.954C155.009 258.954 155.732 258.635 156.225 257.996C156.723 257.352 156.972 256.411 156.972 255.175C156.972 253.95 156.723 253.021 156.225 252.389C155.732 251.75 155.003 251.431 154.036 251.431C153.081 251.431 152.36 251.744 151.874 252.371C151.388 252.998 151.145 253.933 151.145 255.175ZM165.532 260.176C164.905 260.176 164.331 260.062 163.81 259.833C163.294 259.599 162.86 259.241 162.509 258.761H162.403C162.474 259.323 162.509 259.856 162.509 260.36V264.324H161.05V250.367H162.236L162.438 251.686H162.509C162.884 251.158 163.32 250.777 163.818 250.543C164.316 250.309 164.888 250.191 165.532 250.191C166.81 250.191 167.794 250.628 168.485 251.501C169.183 252.374 169.531 253.599 169.531 255.175C169.531 256.757 169.177 257.987 168.468 258.866C167.765 259.739 166.786 260.176 165.532 260.176ZM165.321 251.431C164.337 251.431 163.625 251.703 163.186 252.248C162.746 252.793 162.521 253.66 162.509 254.85V255.175C162.509 256.528 162.734 257.498 163.186 258.084C163.637 258.664 164.36 258.954 165.356 258.954C166.188 258.954 166.839 258.617 167.308 257.943C167.782 257.27 168.02 256.341 168.02 255.157C168.02 253.956 167.782 253.036 167.308 252.397C166.839 251.753 166.177 251.431 165.321 251.431ZM176.158 260.176C174.734 260.176 173.609 259.742 172.783 258.875C171.963 258.008 171.553 256.804 171.553 255.263C171.553 253.71 171.934 252.477 172.695 251.562C173.463 250.648 174.491 250.191 175.78 250.191C176.987 250.191 177.942 250.59 178.646 251.387C179.349 252.178 179.7 253.224 179.7 254.524V255.447H173.064C173.094 256.578 173.378 257.437 173.917 258.022C174.462 258.608 175.227 258.901 176.211 258.901C177.248 258.901 178.273 258.685 179.287 258.251V259.552C178.771 259.774 178.282 259.933 177.819 260.026C177.362 260.126 176.809 260.176 176.158 260.176ZM175.763 251.413C174.989 251.413 174.371 251.665 173.908 252.169C173.451 252.673 173.182 253.37 173.1 254.261H178.136C178.136 253.341 177.931 252.638 177.521 252.151C177.11 251.659 176.524 251.413 175.763 251.413ZM186.591 250.191C187.019 250.191 187.402 250.227 187.742 250.297L187.54 251.65C187.142 251.562 186.79 251.519 186.485 251.519C185.706 251.519 185.038 251.835 184.481 252.468C183.931 253.101 183.655 253.889 183.655 254.832V260H182.196V250.367H183.4L183.567 252.151H183.638C183.995 251.524 184.426 251.041 184.93 250.701C185.434 250.361 185.987 250.191 186.591 250.191ZM195.679 260H194.22V246.324H195.679V260ZM200.231 260H198.772V250.367H200.231V260ZM198.649 247.757C198.649 247.423 198.731 247.18 198.896 247.027C199.06 246.869 199.265 246.79 199.511 246.79C199.745 246.79 199.947 246.869 200.117 247.027C200.287 247.186 200.372 247.429 200.372 247.757C200.372 248.085 200.287 248.331 200.117 248.495C199.947 248.653 199.745 248.732 199.511 248.732C199.265 248.732 199.06 248.653 198.896 248.495C198.731 248.331 198.649 248.085 198.649 247.757ZM209.917 260V253.769C209.917 252.983 209.738 252.397 209.381 252.011C209.023 251.624 208.464 251.431 207.702 251.431C206.694 251.431 205.956 251.703 205.487 252.248C205.019 252.793 204.784 253.692 204.784 254.946V260H203.325V250.367H204.512L204.749 251.686H204.819C205.118 251.211 205.537 250.845 206.076 250.587C206.615 250.323 207.216 250.191 207.878 250.191C209.038 250.191 209.911 250.473 210.497 251.035C211.083 251.592 211.376 252.485 211.376 253.716V260H209.917ZM215.823 255.069C216.075 254.712 216.459 254.243 216.975 253.663L220.086 250.367H221.817L217.915 254.472L222.09 260H220.323L216.922 255.447L215.823 256.396V260H214.382V246.324H215.823V253.575C215.823 253.897 215.8 254.396 215.753 255.069H215.823ZM232.364 260.176C230.97 260.176 229.889 259.748 229.121 258.893C228.359 258.031 227.979 256.815 227.979 255.245C227.979 253.634 228.365 252.389 229.139 251.51C229.918 250.631 231.025 250.191 232.461 250.191C232.924 250.191 233.387 250.241 233.85 250.341C234.312 250.44 234.676 250.558 234.939 250.692L234.491 251.932C234.169 251.803 233.817 251.697 233.437 251.615C233.056 251.527 232.719 251.483 232.426 251.483C230.469 251.483 229.49 252.731 229.49 255.228C229.49 256.411 229.728 257.319 230.202 257.952C230.683 258.585 231.392 258.901 232.329 258.901C233.132 258.901 233.955 258.729 234.799 258.383V259.675C234.154 260.009 233.343 260.176 232.364 260.176ZM238.552 260H237.093V246.324H238.552V260ZM247.569 260L247.279 258.629H247.209C246.729 259.232 246.248 259.643 245.768 259.859C245.293 260.07 244.698 260.176 243.983 260.176C243.028 260.176 242.278 259.93 241.733 259.438C241.194 258.945 240.925 258.245 240.925 257.337C240.925 255.392 242.48 254.372 245.592 254.278L247.227 254.226V253.628C247.227 252.872 247.062 252.315 246.734 251.958C246.412 251.595 245.894 251.413 245.179 251.413C244.376 251.413 243.468 251.659 242.454 252.151L242.006 251.035C242.48 250.777 242.999 250.575 243.562 250.429C244.13 250.282 244.698 250.209 245.267 250.209C246.415 250.209 247.265 250.464 247.815 250.974C248.372 251.483 248.65 252.301 248.65 253.426V260H247.569ZM244.273 258.972C245.182 258.972 245.894 258.723 246.409 258.225C246.931 257.727 247.191 257.029 247.191 256.133V255.263L245.732 255.324C244.572 255.365 243.734 255.547 243.219 255.869C242.709 256.186 242.454 256.681 242.454 257.354C242.454 257.882 242.612 258.283 242.929 258.559C243.251 258.834 243.699 258.972 244.273 258.972ZM257.879 257.372C257.879 258.269 257.545 258.96 256.877 259.446C256.209 259.933 255.271 260.176 254.064 260.176C252.787 260.176 251.791 259.974 251.076 259.569V258.216C251.539 258.45 252.034 258.635 252.562 258.77C253.095 258.904 253.607 258.972 254.1 258.972C254.861 258.972 255.447 258.852 255.857 258.611C256.268 258.365 256.473 257.993 256.473 257.495C256.473 257.12 256.309 256.801 255.98 256.537C255.658 256.268 255.025 255.951 254.082 255.588C253.186 255.254 252.547 254.964 252.166 254.718C251.791 254.466 251.51 254.182 251.322 253.865C251.141 253.549 251.05 253.171 251.05 252.731C251.05 251.946 251.369 251.328 252.008 250.877C252.646 250.42 253.522 250.191 254.636 250.191C255.673 250.191 256.687 250.402 257.677 250.824L257.158 252.011C256.191 251.612 255.315 251.413 254.53 251.413C253.839 251.413 253.317 251.521 252.966 251.738C252.614 251.955 252.438 252.254 252.438 252.635C252.438 252.893 252.503 253.112 252.632 253.294C252.767 253.476 252.98 253.648 253.273 253.812C253.566 253.977 254.129 254.214 254.961 254.524C256.104 254.94 256.874 255.359 257.272 255.781C257.677 256.203 257.879 256.733 257.879 257.372ZM266.475 257.372C266.475 258.269 266.141 258.96 265.473 259.446C264.805 259.933 263.867 260.176 262.66 260.176C261.383 260.176 260.387 259.974 259.672 259.569V258.216C260.135 258.45 260.63 258.635 261.157 258.77C261.69 258.904 262.203 258.972 262.695 258.972C263.457 258.972 264.043 258.852 264.453 258.611C264.863 258.365 265.068 257.993 265.068 257.495C265.068 257.12 264.904 256.801 264.576 256.537C264.254 256.268 263.621 255.951 262.678 255.588C261.781 255.254 261.143 254.964 260.762 254.718C260.387 254.466 260.105 254.182 259.918 253.865C259.736 253.549 259.646 253.171 259.646 252.731C259.646 251.946 259.965 251.328 260.604 250.877C261.242 250.42 262.118 250.191 263.231 250.191C264.269 250.191 265.282 250.402 266.272 250.824L265.754 252.011C264.787 251.612 263.911 251.413 263.126 251.413C262.435 251.413 261.913 251.521 261.562 251.738C261.21 251.955 261.034 252.254 261.034 252.635C261.034 252.893 261.099 253.112 261.228 253.294C261.362 253.476 261.576 253.648 261.869 253.812C262.162 253.977 262.725 254.214 263.557 254.524C264.699 254.94 265.47 255.359 265.868 255.781C266.272 256.203 266.475 256.733 266.475 257.372ZM270.315 260H268.856V250.367H270.315V260ZM268.733 247.757C268.733 247.423 268.815 247.18 268.979 247.027C269.144 246.869 269.349 246.79 269.595 246.79C269.829 246.79 270.031 246.869 270.201 247.027C270.371 247.186 270.456 247.429 270.456 247.757C270.456 248.085 270.371 248.331 270.201 248.495C270.031 248.653 269.829 248.732 269.595 248.732C269.349 248.732 269.144 248.653 268.979 248.495C268.815 248.331 268.733 248.085 268.733 247.757ZM277.751 251.501H275.299V260H273.84V251.501H272.117V250.842L273.84 250.314V249.778C273.84 247.411 274.874 246.228 276.942 246.228C277.452 246.228 278.05 246.33 278.735 246.535L278.357 247.704C277.795 247.522 277.314 247.432 276.916 247.432C276.365 247.432 275.958 247.616 275.694 247.985C275.431 248.349 275.299 248.935 275.299 249.743V250.367H277.751V251.501ZM280.968 260H279.509V250.367H280.968V260ZM279.386 247.757C279.386 247.423 279.468 247.18 279.632 247.027C279.796 246.869 280.001 246.79 280.247 246.79C280.481 246.79 280.684 246.869 280.854 247.027C281.023 247.186 281.108 247.429 281.108 247.757C281.108 248.085 281.023 248.331 280.854 248.495C280.684 248.653 280.481 248.732 280.247 248.732C280.001 248.732 279.796 248.653 279.632 248.495C279.468 248.331 279.386 248.085 279.386 247.757ZM287.911 260.176C286.517 260.176 285.436 259.748 284.668 258.893C283.906 258.031 283.525 256.815 283.525 255.245C283.525 253.634 283.912 252.389 284.686 251.51C285.465 250.631 286.572 250.191 288.008 250.191C288.471 250.191 288.934 250.241 289.396 250.341C289.859 250.44 290.223 250.558 290.486 250.692L290.038 251.932C289.716 251.803 289.364 251.697 288.983 251.615C288.603 251.527 288.266 251.483 287.973 251.483C286.016 251.483 285.037 252.731 285.037 255.228C285.037 256.411 285.274 257.319 285.749 257.952C286.229 258.585 286.938 258.901 287.876 258.901C288.679 258.901 289.502 258.729 290.346 258.383V259.675C289.701 260.009 288.89 260.176 287.911 260.176ZM298.563 260L298.273 258.629H298.203C297.723 259.232 297.242 259.643 296.762 259.859C296.287 260.07 295.692 260.176 294.978 260.176C294.022 260.176 293.272 259.93 292.728 259.438C292.188 258.945 291.919 258.245 291.919 257.337C291.919 255.392 293.475 254.372 296.586 254.278L298.221 254.226V253.628C298.221 252.872 298.057 252.315 297.729 251.958C297.406 251.595 296.888 251.413 296.173 251.413C295.37 251.413 294.462 251.659 293.448 252.151L293 251.035C293.475 250.777 293.993 250.575 294.556 250.429C295.124 250.282 295.692 250.209 296.261 250.209C297.409 250.209 298.259 250.464 298.81 250.974C299.366 251.483 299.645 252.301 299.645 253.426V260H298.563ZM295.268 258.972C296.176 258.972 296.888 258.723 297.403 258.225C297.925 257.727 298.186 257.029 298.186 256.133V255.263L296.727 255.324C295.566 255.365 294.729 255.547 294.213 255.869C293.703 256.186 293.448 256.681 293.448 257.354C293.448 257.882 293.606 258.283 293.923 258.559C294.245 258.834 294.693 258.972 295.268 258.972ZM305.771 258.972C306.028 258.972 306.277 258.954 306.518 258.919C306.758 258.878 306.948 258.837 307.089 258.796V259.912C306.931 259.988 306.696 260.05 306.386 260.097C306.081 260.149 305.806 260.176 305.56 260.176C303.696 260.176 302.765 259.194 302.765 257.231V251.501H301.385V250.798L302.765 250.191L303.38 248.135H304.224V250.367H307.019V251.501H304.224V257.17C304.224 257.75 304.361 258.195 304.637 258.506C304.912 258.816 305.29 258.972 305.771 258.972ZM310.481 260H309.022V250.367H310.481V260ZM308.899 247.757C308.899 247.423 308.981 247.18 309.146 247.027C309.31 246.869 309.515 246.79 309.761 246.79C309.995 246.79 310.197 246.869 310.367 247.027C310.537 247.186 310.622 247.429 310.622 247.757C310.622 248.085 310.537 248.331 310.367 248.495C310.197 248.653 309.995 248.732 309.761 248.732C309.515 248.732 309.31 248.653 309.146 248.495C308.981 248.331 308.899 248.085 308.899 247.757ZM321.89 255.175C321.89 256.745 321.494 257.973 320.703 258.857C319.912 259.736 318.819 260.176 317.425 260.176C316.563 260.176 315.799 259.974 315.131 259.569C314.463 259.165 313.947 258.585 313.584 257.829C313.221 257.073 313.039 256.188 313.039 255.175C313.039 253.604 313.432 252.383 314.217 251.51C315.002 250.631 316.092 250.191 317.486 250.191C318.834 250.191 319.903 250.64 320.694 251.536C321.491 252.433 321.89 253.646 321.89 255.175ZM314.551 255.175C314.551 256.405 314.797 257.343 315.289 257.987C315.781 258.632 316.505 258.954 317.46 258.954C318.415 258.954 319.139 258.635 319.631 257.996C320.129 257.352 320.378 256.411 320.378 255.175C320.378 253.95 320.129 253.021 319.631 252.389C319.139 251.75 318.409 251.431 317.442 251.431C316.487 251.431 315.767 251.744 315.28 252.371C314.794 252.998 314.551 253.933 314.551 255.175ZM331.048 260V253.769C331.048 252.983 330.869 252.397 330.512 252.011C330.154 251.624 329.595 251.431 328.833 251.431C327.825 251.431 327.087 251.703 326.618 252.248C326.149 252.793 325.915 253.692 325.915 254.946V260H324.456V250.367H325.643L325.88 251.686H325.95C326.249 251.211 326.668 250.845 327.207 250.587C327.746 250.323 328.347 250.191 329.009 250.191C330.169 250.191 331.042 250.473 331.628 251.035C332.214 251.592 332.507 252.485 332.507 253.716V260H331.048ZM335.302 259.068C335.302 258.676 335.39 258.38 335.565 258.181C335.747 257.976 336.005 257.873 336.339 257.873C336.679 257.873 336.942 257.976 337.13 258.181C337.323 258.38 337.42 258.676 337.42 259.068C337.42 259.449 337.323 259.742 337.13 259.947C336.937 260.152 336.673 260.255 336.339 260.255C336.04 260.255 335.791 260.164 335.592 259.982C335.398 259.795 335.302 259.49 335.302 259.068Z" fill="black"/>
<path d="M279.84 6.15991H191.093C184.967 6.15991 180 11.1266 180 17.2532V72.7199C180 78.8466 184.967 83.8133 191.093 83.8133H279.84C285.967 83.8133 290.933 78.8466 290.933 72.7199V17.2532C290.933 11.1266 285.967 6.15991 279.84 6.15991Z" stroke="#0166A3" stroke-width="12" stroke-linecap="round" stroke-linejoin="round"/>
<path d="M213.28 106H257.654" stroke="#0166A3" stroke-width="12" stroke-linecap="round" stroke-linejoin="round"/>
<path d="M235.467 83.8132V106" stroke="#0166A3" stroke-width="12" stroke-linecap="round" stroke-linejoin="round"/>
<path d="M262.637 39.2715C261.923 38.5575 261.067 38.2005 260.067 38.2005L248.928 38.2005C247.929 38.2005 247.072 38.5575 246.358 39.2715C245.608 40.0212 245.251 40.9495 245.287 42.0562C245.394 42.0562 245.729 42.0517 246.291 42.0428C246.853 42.0339 247.237 42.0339 247.442 42.0428C247.648 42.0517 247.951 42.0874 248.353 42.1499C248.754 42.2124 249.098 42.3239 249.384 42.4846C249.669 42.6452 249.946 42.8594 250.214 43.1272C250.928 43.8412 251.285 44.698 251.285 45.6976C251.285 46.6973 250.928 47.5541 250.214 48.2681C249.946 48.5358 249.669 48.75 249.384 48.9107C249.098 49.0713 248.754 49.1829 248.353 49.2454C247.951 49.3079 247.648 49.3436 247.442 49.3525C247.237 49.3614 246.853 49.3614 246.291 49.3525C245.729 49.3436 245.394 49.3391 245.287 49.3391C245.251 50.4815 245.608 51.4276 246.358 52.1773C247.072 52.8913 247.929 53.2483 248.928 53.2483L259.987 53.2751C260.951 53.2751 261.799 52.9092 262.53 52.1773C263.244 51.4633 263.619 50.6243 263.655 49.6604L263.682 41.8152C263.682 40.8156 263.334 39.9677 262.637 39.2715ZM224.938 39.218C224.224 38.504 223.367 38.1469 222.367 38.1469L211.309 38.1202C210.309 38.1202 209.452 38.4772 208.738 39.1912C208.042 39.8874 207.676 40.7352 207.641 41.7349L207.614 49.5801C207.614 50.5797 207.962 51.4276 208.658 52.1237C209.372 52.8378 210.229 53.1948 211.229 53.1948L222.367 53.1948C223.331 53.1948 224.179 52.8288 224.911 52.097C225.661 51.3473 226.026 50.428 226.009 49.3391C225.902 49.3391 225.567 49.3436 225.005 49.3525C224.442 49.3614 224.058 49.3614 223.853 49.3525C223.648 49.3436 223.344 49.3079 222.943 49.2454C222.541 49.1829 222.198 49.0713 221.912 48.9107C221.626 48.75 221.35 48.5358 221.082 48.2681C220.368 47.5541 220.011 46.6973 220.011 45.6976C220.011 44.698 220.368 43.8412 221.082 43.1272C221.35 42.8594 221.626 42.6452 221.912 42.4846C222.198 42.3239 222.541 42.2124 222.943 42.1499C223.344 42.0874 223.648 42.0517 223.853 42.0428C224.058 42.0339 224.442 42.0339 225.005 42.0428C225.567 42.0517 225.902 42.0562 226.009 42.0562C226.044 40.9137 225.687 39.9677 224.938 39.218ZM267.778 34.1306C269.92 36.2727 270.974 38.8431 270.938 41.842L270.911 49.6872C270.911 52.6503 269.84 55.2029 267.698 57.345C265.538 59.5049 262.959 60.567 259.96 60.5313L248.902 60.5045C245.938 60.5045 243.386 59.4335 241.244 57.2914C239.048 55.0958 237.968 52.4451 238.004 49.3391L233.292 49.3391C233.327 52.4451 232.256 55.0869 230.078 57.2646C227.936 59.4067 225.366 60.4777 222.367 60.4777L211.229 60.4777C208.23 60.4777 205.659 59.4067 203.517 57.2646C201.375 55.1226 200.322 52.5522 200.358 49.5533L200.384 41.7081C200.384 38.7449 201.455 36.1923 203.598 34.0503C205.757 31.8904 208.337 30.8283 211.336 30.864L222.394 30.8908C225.357 30.8908 227.91 31.9618 230.052 34.1039C232.247 36.2994 233.327 38.9502 233.292 42.0562L238.004 42.0562C237.968 38.9502 239.039 36.3084 241.217 34.1306C243.359 31.9886 245.93 30.9176 248.928 30.9176L260.067 30.9176C263.066 30.9176 265.636 31.9886 267.778 34.1306Z" fill="#0166A3"/>
</svg>
