<svg width="470" height="340" viewBox="0 0 470 340" fill="none" xmlns="http://www.w3.org/2000/svg">
<rect y="55.3254" width="470" height="284.675" rx="15" fill="#F0F8FC"/>
<path d="M76.0186 145.831C74.3096 145.831 72.9863 146.475 72.0488 147.764C71.1113 149.044 70.6426 150.831 70.6426 153.126C70.6426 157.901 72.4346 160.289 76.0186 160.289C77.5225 160.289 79.3438 159.913 81.4824 159.161V162.969C79.7246 163.702 77.7617 164.068 75.5938 164.068C72.4785 164.068 70.0957 163.126 68.4453 161.241C66.7949 159.346 65.9697 156.632 65.9697 153.096C65.9697 150.87 66.375 148.922 67.1855 147.252C67.9961 145.572 69.1582 144.288 70.6719 143.399C72.1953 142.501 73.9775 142.052 76.0186 142.052C78.0986 142.052 80.1885 142.554 82.2881 143.56L80.8232 147.252C80.0225 146.871 79.2168 146.539 78.4062 146.256C77.5957 145.972 76.7998 145.831 76.0186 145.831ZM105.491 153.038C105.491 156.583 104.612 159.307 102.854 161.212C101.097 163.116 98.5771 164.068 95.2959 164.068C92.0146 164.068 89.4951 163.116 87.7373 161.212C85.9795 159.307 85.1006 156.573 85.1006 153.009C85.1006 149.444 85.9795 146.724 87.7373 144.849C89.5049 142.965 92.0342 142.022 95.3252 142.022C98.6162 142.022 101.131 142.969 102.869 144.864C104.617 146.759 105.491 149.483 105.491 153.038ZM89.8613 153.038C89.8613 155.43 90.3154 157.232 91.2236 158.443C92.1318 159.654 93.4893 160.26 95.2959 160.26C98.9189 160.26 100.73 157.852 100.73 153.038C100.73 148.214 98.9287 145.802 95.3252 145.802C93.5186 145.802 92.1562 146.412 91.2383 147.633C90.3203 148.844 89.8613 150.645 89.8613 153.038ZM118.997 163.775L113.841 146.973H113.709C113.895 150.391 113.987 152.672 113.987 153.814V163.775H109.93V142.359H116.111L121.18 158.736H121.268L126.644 142.359H132.825V163.775H128.592V153.638C128.592 153.16 128.597 152.608 128.606 151.983C128.626 151.358 128.694 149.698 128.812 147.003H128.68L123.157 163.775H118.997ZM142.771 152.437H144.266C145.662 152.437 146.707 152.164 147.4 151.617C148.094 151.06 148.44 150.255 148.44 149.2C148.44 148.135 148.147 147.349 147.562 146.842C146.985 146.334 146.077 146.08 144.837 146.08H142.771V152.437ZM153.025 149.039C153.025 151.344 152.303 153.106 150.857 154.327C149.422 155.548 147.376 156.158 144.72 156.158H142.771V163.775H138.23V142.359H145.071C147.669 142.359 149.642 142.921 150.989 144.044C152.347 145.157 153.025 146.822 153.025 149.039ZM161.609 151.866H163.074C164.51 151.866 165.569 151.627 166.253 151.148C166.937 150.67 167.278 149.918 167.278 148.892C167.278 147.877 166.927 147.154 166.224 146.724C165.53 146.295 164.451 146.08 162.986 146.08H161.609V151.866ZM161.609 155.557V163.775H157.068V142.359H163.309C166.219 142.359 168.372 142.891 169.769 143.956C171.165 145.01 171.863 146.617 171.863 148.775C171.863 150.035 171.517 151.158 170.823 152.144C170.13 153.121 169.148 153.887 167.879 154.444C171.102 159.259 173.201 162.369 174.178 163.775H169.139L164.026 155.557H161.609ZM189.207 163.775H176.873V142.359H189.207V146.08H181.414V150.782H188.665V154.503H181.414V160.025H189.207V163.775ZM211.238 163.775H206.712V154.532H198.23V163.775H193.689V142.359H198.23V150.753H206.712V142.359H211.238V163.775ZM228.992 163.775H216.658V142.359H228.992V146.08H221.199V150.782H228.45V154.503H221.199V160.025H228.992V163.775ZM252.474 163.775H246.702L237.386 147.574H237.254C237.439 150.435 237.532 152.476 237.532 153.697V163.775H233.475V142.359H239.202L248.504 158.399H248.606C248.46 155.616 248.387 153.648 248.387 152.496V142.359H252.474V163.775ZM270.521 157.828C270.521 159.761 269.822 161.285 268.426 162.398C267.039 163.511 265.105 164.068 262.625 164.068C260.34 164.068 258.318 163.638 256.561 162.779V158.56C258.006 159.205 259.227 159.659 260.223 159.923C261.229 160.186 262.146 160.318 262.977 160.318C263.973 160.318 264.734 160.128 265.262 159.747C265.799 159.366 266.067 158.8 266.067 158.048C266.067 157.628 265.95 157.257 265.716 156.934C265.481 156.602 265.135 156.285 264.676 155.982C264.227 155.679 263.304 155.196 261.907 154.532C260.599 153.917 259.617 153.326 258.963 152.76C258.309 152.193 257.786 151.534 257.396 150.782C257.005 150.03 256.81 149.151 256.81 148.145C256.81 146.251 257.449 144.761 258.729 143.677C260.018 142.594 261.795 142.052 264.061 142.052C265.174 142.052 266.233 142.183 267.239 142.447C268.255 142.711 269.314 143.082 270.418 143.56L268.953 147.091C267.811 146.622 266.863 146.295 266.111 146.109C265.369 145.924 264.637 145.831 263.914 145.831C263.055 145.831 262.396 146.031 261.937 146.431C261.478 146.832 261.248 147.354 261.248 147.999C261.248 148.399 261.341 148.751 261.526 149.053C261.712 149.346 262.005 149.635 262.405 149.918C262.815 150.191 263.777 150.689 265.291 151.412C267.293 152.369 268.665 153.331 269.407 154.298C270.149 155.255 270.521 156.431 270.521 157.828ZM274.402 163.775V142.359H278.943V163.775H274.402ZM296.551 142.359H301.136L293.855 163.775H288.904L281.639 142.359H286.224L290.252 155.103C290.477 155.855 290.706 156.734 290.94 157.74C291.185 158.736 291.336 159.429 291.395 159.82C291.502 158.922 291.868 157.349 292.493 155.103L296.551 142.359ZM316.18 163.775H303.846V142.359H316.18V146.08H308.387V150.782H315.638V154.503H308.387V160.025H316.18V163.775ZM328.455 163.775V142.359H332.996V160.025H341.683V163.775H328.455ZM345.418 163.775V142.359H349.959V163.775H345.418ZM374.349 163.775H368.577L359.261 147.574H359.129C359.314 150.435 359.407 152.476 359.407 153.697V163.775H355.35V142.359H361.077L370.379 158.399H370.481C370.335 155.616 370.262 153.648 370.262 152.496V142.359H374.349V163.775ZM396.98 163.775H391.824L386.214 154.752L384.295 156.129V163.775H379.754V142.359H384.295V152.159L386.082 149.639L391.883 142.359H396.922L389.451 151.837L396.98 163.775ZM105.579 192.866H107.044C108.479 192.866 109.539 192.627 110.223 192.148C110.906 191.67 111.248 190.918 111.248 189.892C111.248 188.877 110.896 188.154 110.193 187.724C109.5 187.295 108.421 187.08 106.956 187.08H105.579V192.866ZM105.579 196.557V204.775H101.038V183.359H107.278C110.188 183.359 112.342 183.891 113.738 184.956C115.135 186.01 115.833 187.617 115.833 189.775C115.833 191.035 115.486 192.158 114.793 193.144C114.1 194.121 113.118 194.887 111.849 195.444C115.071 200.259 117.171 203.369 118.147 204.775H113.108L107.996 196.557H105.579ZM133.177 204.775H120.843V183.359H133.177V187.08H125.384V191.782H132.635V195.503H125.384V201.025H133.177V204.775ZM146.727 204.775L141.57 187.973H141.438C141.624 191.391 141.717 193.672 141.717 194.814V204.775H137.659V183.359H143.841L148.909 199.736H148.997L154.373 183.359H160.555V204.775H156.321V194.638C156.321 194.16 156.326 193.608 156.336 192.983C156.355 192.358 156.424 190.698 156.541 188.003H156.409L150.887 204.775H146.727ZM185.398 194.038C185.398 197.583 184.52 200.307 182.762 202.212C181.004 204.116 178.484 205.068 175.203 205.068C171.922 205.068 169.402 204.116 167.645 202.212C165.887 200.307 165.008 197.573 165.008 194.009C165.008 190.444 165.887 187.724 167.645 185.849C169.412 183.965 171.941 183.022 175.232 183.022C178.523 183.022 181.038 183.969 182.776 185.864C184.524 187.759 185.398 190.483 185.398 194.038ZM169.769 194.038C169.769 196.43 170.223 198.232 171.131 199.443C172.039 200.654 173.396 201.26 175.203 201.26C178.826 201.26 180.638 198.852 180.638 194.038C180.638 189.214 178.836 186.802 175.232 186.802C173.426 186.802 172.063 187.412 171.146 188.633C170.228 189.844 169.769 191.645 169.769 194.038ZM202.054 183.359H206.639L199.358 204.775H194.407L187.142 183.359H191.727L195.755 196.103C195.979 196.855 196.209 197.734 196.443 198.74C196.688 199.736 196.839 200.429 196.897 200.82C197.005 199.922 197.371 198.349 197.996 196.103L202.054 183.359ZM222.459 204.775L220.906 199.677H213.099L211.546 204.775H206.653L214.212 183.271H219.764L227.352 204.775H222.459ZM219.822 195.869C218.387 191.25 217.576 188.637 217.391 188.032C217.215 187.427 217.088 186.948 217.01 186.596C216.688 187.846 215.765 190.937 214.241 195.869H219.822ZM230.062 204.775V183.359H234.603V201.025H243.289V204.775H230.062ZM267.459 198.828C267.459 200.761 266.761 202.285 265.364 203.398C263.978 204.511 262.044 205.068 259.563 205.068C257.278 205.068 255.257 204.638 253.499 203.779V199.56C254.944 200.205 256.165 200.659 257.161 200.923C258.167 201.186 259.085 201.318 259.915 201.318C260.911 201.318 261.673 201.128 262.2 200.747C262.737 200.366 263.006 199.8 263.006 199.048C263.006 198.628 262.889 198.257 262.654 197.934C262.42 197.602 262.073 197.285 261.614 196.982C261.165 196.679 260.242 196.196 258.846 195.532C257.537 194.917 256.556 194.326 255.901 193.76C255.247 193.193 254.725 192.534 254.334 191.782C253.943 191.03 253.748 190.151 253.748 189.145C253.748 187.251 254.388 185.761 255.667 184.677C256.956 183.594 258.733 183.052 260.999 183.052C262.112 183.052 263.172 183.183 264.178 183.447C265.193 183.711 266.253 184.082 267.356 184.56L265.892 188.091C264.749 187.622 263.802 187.295 263.05 187.109C262.308 186.924 261.575 186.831 260.853 186.831C259.993 186.831 259.334 187.031 258.875 187.431C258.416 187.832 258.187 188.354 258.187 188.999C258.187 189.399 258.279 189.751 258.465 190.053C258.65 190.346 258.943 190.635 259.344 190.918C259.754 191.191 260.716 191.689 262.229 192.412C264.231 193.369 265.604 194.331 266.346 195.298C267.088 196.255 267.459 197.431 267.459 198.828ZM283.675 204.775H271.341V183.359H283.675V187.08H275.882V191.782H283.133V195.503H275.882V201.025H283.675V204.775ZM292.698 192.866H294.163C295.599 192.866 296.658 192.627 297.342 192.148C298.025 191.67 298.367 190.918 298.367 189.892C298.367 188.877 298.016 188.154 297.312 187.724C296.619 187.295 295.54 187.08 294.075 187.08H292.698V192.866ZM292.698 196.557V204.775H288.157V183.359H294.397C297.308 183.359 299.461 183.891 300.857 184.956C302.254 186.01 302.952 187.617 302.952 189.775C302.952 191.035 302.605 192.158 301.912 193.144C301.219 194.121 300.237 194.887 298.968 195.444C302.19 200.259 304.29 203.369 305.267 204.775H300.228L295.115 196.557H292.698ZM320.179 183.359H324.764L317.483 204.775H312.532L305.267 183.359H309.852L313.88 196.103C314.104 196.855 314.334 197.734 314.568 198.74C314.812 199.736 314.964 200.429 315.022 200.82C315.13 199.922 315.496 198.349 316.121 196.103L320.179 183.359ZM327.474 204.775V183.359H332.015V204.775H327.474ZM346.502 186.831C344.793 186.831 343.47 187.475 342.532 188.764C341.595 190.044 341.126 191.831 341.126 194.126C341.126 198.901 342.918 201.289 346.502 201.289C348.006 201.289 349.827 200.913 351.966 200.161V203.969C350.208 204.702 348.245 205.068 346.077 205.068C342.962 205.068 340.579 204.126 338.929 202.241C337.278 200.346 336.453 197.632 336.453 194.096C336.453 191.87 336.858 189.922 337.669 188.252C338.479 186.572 339.642 185.288 341.155 184.399C342.679 183.501 344.461 183.052 346.502 183.052C348.582 183.052 350.672 183.554 352.771 184.56L351.307 188.252C350.506 187.871 349.7 187.539 348.89 187.256C348.079 186.972 347.283 186.831 346.502 186.831ZM368.87 204.775H356.536V183.359H368.87V187.08H361.077V191.782H368.328V195.503H361.077V201.025H368.87V204.775Z" fill="black"/>
<path d="M54.8262 243.32H53.3496L50.7568 234.715C50.6338 234.334 50.4961 233.854 50.3438 233.274C50.1914 232.694 50.1123 232.345 50.1064 232.228C49.9775 233.001 49.7725 233.848 49.4912 234.768L46.9775 243.32H45.501L42.082 230.47H43.6641L45.6943 238.406C45.9756 239.52 46.1807 240.528 46.3096 241.43C46.4678 240.358 46.7021 239.309 47.0127 238.283L49.3154 230.47H50.8975L53.3145 238.354C53.5957 239.262 53.833 240.287 54.0264 241.43C54.1377 240.598 54.3486 239.584 54.6592 238.389L56.6807 230.47H58.2627L54.8262 243.32ZM64.125 243.495C62.7012 243.495 61.5762 243.062 60.75 242.195C59.9297 241.327 59.5195 240.123 59.5195 238.582C59.5195 237.03 59.9004 235.796 60.6621 234.882C61.4297 233.968 62.458 233.511 63.7471 233.511C64.9541 233.511 65.9092 233.909 66.6123 234.706C67.3154 235.497 67.667 236.543 67.667 237.844V238.767H61.0312C61.0605 239.898 61.3447 240.756 61.8838 241.342C62.4287 241.928 63.1934 242.221 64.1777 242.221C65.2148 242.221 66.2402 242.004 67.2539 241.571V242.871C66.7383 243.094 66.249 243.252 65.7861 243.346C65.3291 243.446 64.7754 243.495 64.125 243.495ZM63.7295 234.733C62.9561 234.733 62.3379 234.985 61.875 235.489C61.418 235.992 61.1484 236.69 61.0664 237.58H66.1025C66.1025 236.66 65.8975 235.957 65.4873 235.471C65.0771 234.979 64.4912 234.733 63.7295 234.733ZM71.332 230.47L71.4639 230.663C71.3115 231.249 71.0918 231.932 70.8047 232.711C70.5176 233.485 70.2188 234.205 69.9082 234.873H68.8359C69.2461 233.203 69.5449 231.736 69.7324 230.47H71.332ZM74.6807 243.32H73.2217V229.644H74.6807V243.32ZM79.2334 243.32H77.7744V229.644H79.2334V243.32ZM99.2812 243.32V237.053C99.2812 236.285 99.1172 235.711 98.7891 235.33C98.4609 234.944 97.9512 234.75 97.2598 234.75C96.3516 234.75 95.6807 235.011 95.2471 235.532C94.8135 236.054 94.5967 236.857 94.5967 237.941V243.32H93.1377V237.053C93.1377 236.285 92.9736 235.711 92.6455 235.33C92.3174 234.944 91.8047 234.75 91.1074 234.75C90.1934 234.75 89.5225 235.026 89.0947 235.576C88.6729 236.121 88.4619 237.018 88.4619 238.266V243.32H87.0029V233.687H88.1895L88.4268 235.005H88.4971C88.7725 234.536 89.1592 234.17 89.6572 233.906C90.1611 233.643 90.7236 233.511 91.3447 233.511C92.8506 233.511 93.835 234.056 94.2979 235.146H94.3682C94.6553 234.642 95.0713 234.243 95.6162 233.95C96.1611 233.657 96.7822 233.511 97.4795 233.511C98.5693 233.511 99.3838 233.792 99.9229 234.355C100.468 234.911 100.74 235.805 100.74 237.035V243.32H99.2812ZM109.679 243.32L109.389 241.948H109.318C108.838 242.552 108.357 242.962 107.877 243.179C107.402 243.39 106.808 243.495 106.093 243.495C105.138 243.495 104.388 243.249 103.843 242.757C103.304 242.265 103.034 241.565 103.034 240.656C103.034 238.711 104.59 237.692 107.701 237.598L109.336 237.545V236.948C109.336 236.192 109.172 235.635 108.844 235.278C108.521 234.914 108.003 234.733 107.288 234.733C106.485 234.733 105.577 234.979 104.563 235.471L104.115 234.355C104.59 234.097 105.108 233.895 105.671 233.748C106.239 233.602 106.808 233.529 107.376 233.529C108.524 233.529 109.374 233.783 109.925 234.293C110.481 234.803 110.76 235.62 110.76 236.745V243.32H109.679ZM106.383 242.291C107.291 242.291 108.003 242.042 108.519 241.544C109.04 241.046 109.301 240.349 109.301 239.452V238.582L107.842 238.644C106.682 238.685 105.844 238.866 105.328 239.189C104.818 239.505 104.563 240 104.563 240.674C104.563 241.201 104.722 241.603 105.038 241.878C105.36 242.154 105.809 242.291 106.383 242.291ZM120.366 243.32V237.088C120.366 236.303 120.188 235.717 119.83 235.33C119.473 234.944 118.913 234.75 118.151 234.75C117.144 234.75 116.405 235.023 115.937 235.568C115.468 236.113 115.233 237.012 115.233 238.266V243.32H113.774V233.687H114.961L115.198 235.005H115.269C115.567 234.531 115.986 234.164 116.525 233.906C117.064 233.643 117.665 233.511 118.327 233.511C119.487 233.511 120.36 233.792 120.946 234.355C121.532 234.911 121.825 235.805 121.825 237.035V243.32H120.366ZM130.755 243.32L130.465 241.948H130.395C129.914 242.552 129.434 242.962 128.953 243.179C128.479 243.39 127.884 243.495 127.169 243.495C126.214 243.495 125.464 243.249 124.919 242.757C124.38 242.265 124.11 241.565 124.11 240.656C124.11 238.711 125.666 237.692 128.777 237.598L130.412 237.545V236.948C130.412 236.192 130.248 235.635 129.92 235.278C129.598 234.914 129.079 234.733 128.364 234.733C127.562 234.733 126.653 234.979 125.64 235.471L125.191 234.355C125.666 234.097 126.185 233.895 126.747 233.748C127.315 233.602 127.884 233.529 128.452 233.529C129.601 233.529 130.45 233.783 131.001 234.293C131.558 234.803 131.836 235.62 131.836 236.745V243.32H130.755ZM127.459 242.291C128.367 242.291 129.079 242.042 129.595 241.544C130.116 241.046 130.377 240.349 130.377 239.452V238.582L128.918 238.644C127.758 238.685 126.92 238.866 126.404 239.189C125.895 239.505 125.64 240 125.64 240.674C125.64 241.201 125.798 241.603 126.114 241.878C126.437 242.154 126.885 242.291 127.459 242.291ZM142.734 233.687V234.61L140.95 234.821C141.114 235.026 141.261 235.295 141.39 235.629C141.519 235.957 141.583 236.329 141.583 236.745C141.583 237.689 141.261 238.442 140.616 239.004C139.972 239.567 139.087 239.848 137.962 239.848C137.675 239.848 137.405 239.824 137.153 239.778C136.532 240.106 136.222 240.519 136.222 241.017C136.222 241.281 136.33 241.477 136.547 241.606C136.764 241.729 137.136 241.79 137.663 241.79H139.368C140.411 241.79 141.211 242.01 141.768 242.449C142.33 242.889 142.611 243.528 142.611 244.365C142.611 245.432 142.184 246.243 141.328 246.8C140.473 247.363 139.225 247.644 137.584 247.644C136.324 247.644 135.352 247.409 134.666 246.941C133.986 246.472 133.646 245.81 133.646 244.954C133.646 244.368 133.834 243.862 134.209 243.434C134.584 243.006 135.111 242.716 135.791 242.564C135.545 242.452 135.337 242.28 135.167 242.045C135.003 241.811 134.921 241.538 134.921 241.228C134.921 240.876 135.015 240.569 135.202 240.305C135.39 240.041 135.686 239.786 136.09 239.54C135.592 239.335 135.185 238.987 134.868 238.494C134.558 238.002 134.402 237.44 134.402 236.807C134.402 235.752 134.719 234.941 135.352 234.372C135.984 233.798 136.881 233.511 138.041 233.511C138.545 233.511 138.999 233.57 139.403 233.687H142.734ZM135.053 244.937C135.053 245.458 135.272 245.854 135.712 246.123C136.151 246.393 136.781 246.528 137.602 246.528C138.826 246.528 139.731 246.343 140.317 245.974C140.909 245.611 141.205 245.115 141.205 244.489C141.205 243.967 141.044 243.604 140.722 243.399C140.399 243.199 139.793 243.1 138.902 243.1H137.153C136.491 243.1 135.976 243.258 135.606 243.574C135.237 243.891 135.053 244.345 135.053 244.937ZM135.844 236.772C135.844 237.446 136.034 237.955 136.415 238.301C136.796 238.647 137.326 238.82 138.006 238.82C139.43 238.82 140.142 238.128 140.142 236.745C140.142 235.298 139.421 234.574 137.979 234.574C137.294 234.574 136.767 234.759 136.397 235.128C136.028 235.497 135.844 236.045 135.844 236.772ZM148.781 243.495C147.357 243.495 146.232 243.062 145.406 242.195C144.586 241.327 144.176 240.123 144.176 238.582C144.176 237.03 144.557 235.796 145.318 234.882C146.086 233.968 147.114 233.511 148.403 233.511C149.61 233.511 150.565 233.909 151.269 234.706C151.972 235.497 152.323 236.543 152.323 237.844V238.767H145.688C145.717 239.898 146.001 240.756 146.54 241.342C147.085 241.928 147.85 242.221 148.834 242.221C149.871 242.221 150.896 242.004 151.91 241.571V242.871C151.395 243.094 150.905 243.252 150.442 243.346C149.985 243.446 149.432 243.495 148.781 243.495ZM148.386 234.733C147.612 234.733 146.994 234.985 146.531 235.489C146.074 235.992 145.805 236.69 145.723 237.58H150.759C150.759 236.66 150.554 235.957 150.144 235.471C149.733 234.979 149.147 234.733 148.386 234.733ZM162.606 242.291C162.864 242.291 163.113 242.274 163.354 242.239C163.594 242.198 163.784 242.156 163.925 242.115V243.232C163.767 243.308 163.532 243.369 163.222 243.416C162.917 243.469 162.642 243.495 162.396 243.495C160.532 243.495 159.601 242.514 159.601 240.551V234.821H158.221V234.117L159.601 233.511L160.216 231.454H161.06V233.687H163.854V234.821H161.06V240.49C161.06 241.07 161.197 241.515 161.473 241.825C161.748 242.136 162.126 242.291 162.606 242.291ZM172.45 243.32V237.088C172.45 236.303 172.271 235.717 171.914 235.33C171.557 234.944 170.997 234.75 170.235 234.75C169.222 234.75 168.48 235.026 168.012 235.576C167.549 236.127 167.317 237.03 167.317 238.283V243.32H165.858V229.644H167.317V233.783C167.317 234.281 167.294 234.695 167.247 235.023H167.335C167.622 234.56 168.029 234.197 168.557 233.933C169.09 233.663 169.696 233.529 170.376 233.529C171.554 233.529 172.436 233.81 173.021 234.372C173.613 234.929 173.909 235.817 173.909 237.035V243.32H172.45ZM180.984 243.495C179.561 243.495 178.436 243.062 177.609 242.195C176.789 241.327 176.379 240.123 176.379 238.582C176.379 237.03 176.76 235.796 177.521 234.882C178.289 233.968 179.317 233.511 180.606 233.511C181.813 233.511 182.769 233.909 183.472 234.706C184.175 235.497 184.526 236.543 184.526 237.844V238.767H177.891C177.92 239.898 178.204 240.756 178.743 241.342C179.288 241.928 180.053 242.221 181.037 242.221C182.074 242.221 183.1 242.004 184.113 241.571V242.871C183.598 243.094 183.108 243.252 182.646 243.346C182.188 243.446 181.635 243.495 180.984 243.495ZM180.589 234.733C179.815 234.733 179.197 234.985 178.734 235.489C178.277 235.992 178.008 236.69 177.926 237.58H182.962C182.962 236.66 182.757 235.957 182.347 235.471C181.937 234.979 181.351 234.733 180.589 234.733ZM195.768 243.495C194.344 243.495 193.219 243.062 192.393 242.195C191.572 241.327 191.162 240.123 191.162 238.582C191.162 237.03 191.543 235.796 192.305 234.882C193.072 233.968 194.101 233.511 195.39 233.511C196.597 233.511 197.552 233.909 198.255 234.706C198.958 235.497 199.31 236.543 199.31 237.844V238.767H192.674C192.703 239.898 192.987 240.756 193.526 241.342C194.071 241.928 194.836 242.221 195.82 242.221C196.857 242.221 197.883 242.004 198.896 241.571V242.871C198.381 243.094 197.892 243.252 197.429 243.346C196.972 243.446 196.418 243.495 195.768 243.495ZM195.372 234.733C194.599 234.733 193.98 234.985 193.518 235.489C193.061 235.992 192.791 236.69 192.709 237.58H197.745C197.745 236.66 197.54 235.957 197.13 235.471C196.72 234.979 196.134 234.733 195.372 234.733ZM208.397 243.32V237.088C208.397 236.303 208.219 235.717 207.861 235.33C207.504 234.944 206.944 234.75 206.183 234.75C205.175 234.75 204.437 235.023 203.968 235.568C203.499 236.113 203.265 237.012 203.265 238.266V243.32H201.806V233.687H202.992L203.229 235.005H203.3C203.599 234.531 204.018 234.164 204.557 233.906C205.096 233.643 205.696 233.511 206.358 233.511C207.519 233.511 208.392 233.792 208.978 234.355C209.563 234.911 209.856 235.805 209.856 237.035V243.32H208.397ZM215.974 242.291C216.231 242.291 216.48 242.274 216.721 242.239C216.961 242.198 217.151 242.156 217.292 242.115V243.232C217.134 243.308 216.899 243.369 216.589 243.416C216.284 243.469 216.009 243.495 215.763 243.495C213.899 243.495 212.968 242.514 212.968 240.551V234.821H211.588V234.117L212.968 233.511L213.583 231.454H214.427V233.687H217.222V234.821H214.427V240.49C214.427 241.07 214.564 241.515 214.84 241.825C215.115 242.136 215.493 242.291 215.974 242.291ZM220.685 243.32H219.226V233.687H220.685V243.32ZM219.103 231.076C219.103 230.742 219.185 230.499 219.349 230.347C219.513 230.189 219.718 230.11 219.964 230.11C220.198 230.11 220.4 230.189 220.57 230.347C220.74 230.505 220.825 230.748 220.825 231.076C220.825 231.405 220.74 231.651 220.57 231.815C220.4 231.973 220.198 232.052 219.964 232.052C219.718 232.052 219.513 231.973 219.349 231.815C219.185 231.651 219.103 231.405 219.103 231.076ZM228.173 233.511C228.601 233.511 228.984 233.546 229.324 233.616L229.122 234.97C228.724 234.882 228.372 234.838 228.067 234.838C227.288 234.838 226.62 235.155 226.063 235.787C225.513 236.42 225.237 237.208 225.237 238.152V243.32H223.778V233.687H224.982L225.149 235.471H225.22C225.577 234.844 226.008 234.361 226.512 234.021C227.016 233.681 227.569 233.511 228.173 233.511ZM235.195 243.495C233.771 243.495 232.646 243.062 231.82 242.195C231 241.327 230.59 240.123 230.59 238.582C230.59 237.03 230.971 235.796 231.732 234.882C232.5 233.968 233.528 233.511 234.817 233.511C236.024 233.511 236.979 233.909 237.683 234.706C238.386 235.497 238.737 236.543 238.737 237.844V238.767H232.102C232.131 239.898 232.415 240.756 232.954 241.342C233.499 241.928 234.264 242.221 235.248 242.221C236.285 242.221 237.311 242.004 238.324 241.571V242.871C237.809 243.094 237.319 243.252 236.856 243.346C236.399 243.446 235.846 243.495 235.195 243.495ZM234.8 234.733C234.026 234.733 233.408 234.985 232.945 235.489C232.488 235.992 232.219 236.69 232.137 237.58H237.173C237.173 236.66 236.968 235.957 236.558 235.471C236.147 234.979 235.562 234.733 234.8 234.733ZM247.368 243.32H245.909V229.644H247.368V243.32ZM251.921 243.32H250.462V233.687H251.921V243.32ZM250.339 231.076C250.339 230.742 250.421 230.499 250.585 230.347C250.749 230.189 250.954 230.11 251.2 230.11C251.435 230.11 251.637 230.189 251.807 230.347C251.977 230.505 252.062 230.748 252.062 231.076C252.062 231.405 251.977 231.651 251.807 231.815C251.637 231.973 251.435 232.052 251.2 232.052C250.954 232.052 250.749 231.973 250.585 231.815C250.421 231.651 250.339 231.405 250.339 231.076ZM261.606 243.32V237.088C261.606 236.303 261.428 235.717 261.07 235.33C260.713 234.944 260.153 234.75 259.392 234.75C258.384 234.75 257.646 235.023 257.177 235.568C256.708 236.113 256.474 237.012 256.474 238.266V243.32H255.015V233.687H256.201L256.438 235.005H256.509C256.808 234.531 257.227 234.164 257.766 233.906C258.305 233.643 258.905 233.511 259.567 233.511C260.728 233.511 261.601 233.792 262.187 234.355C262.772 234.911 263.065 235.805 263.065 237.035V243.32H261.606ZM267.513 238.389C267.765 238.031 268.148 237.563 268.664 236.983L271.775 233.687H273.507L269.604 237.791L273.779 243.32H272.013L268.611 238.767L267.513 239.716V243.32H266.071V229.644H267.513V236.895C267.513 237.217 267.489 237.715 267.442 238.389H267.513ZM284.599 233.511C285.026 233.511 285.41 233.546 285.75 233.616L285.548 234.97C285.149 234.882 284.798 234.838 284.493 234.838C283.714 234.838 283.046 235.155 282.489 235.787C281.938 236.42 281.663 237.208 281.663 238.152V243.32H280.204V233.687H281.408L281.575 235.471H281.646C282.003 234.844 282.434 234.361 282.938 234.021C283.441 233.681 283.995 233.511 284.599 233.511ZM291.621 243.495C290.197 243.495 289.072 243.062 288.246 242.195C287.426 241.327 287.016 240.123 287.016 238.582C287.016 237.03 287.396 235.796 288.158 234.882C288.926 233.968 289.954 233.511 291.243 233.511C292.45 233.511 293.405 233.909 294.108 234.706C294.812 235.497 295.163 236.543 295.163 237.844V238.767H288.527C288.557 239.898 288.841 240.756 289.38 241.342C289.925 241.928 290.689 242.221 291.674 242.221C292.711 242.221 293.736 242.004 294.75 241.571V242.871C294.234 243.094 293.745 243.252 293.282 243.346C292.825 243.446 292.271 243.495 291.621 243.495ZM291.226 234.733C290.452 234.733 289.834 234.985 289.371 235.489C288.914 235.992 288.645 236.69 288.562 237.58H293.599C293.599 236.66 293.394 235.957 292.983 235.471C292.573 234.979 291.987 234.733 291.226 234.733ZM309.938 243.32V237.053C309.938 236.285 309.773 235.711 309.445 235.33C309.117 234.944 308.607 234.75 307.916 234.75C307.008 234.75 306.337 235.011 305.903 235.532C305.47 236.054 305.253 236.857 305.253 237.941V243.32H303.794V237.053C303.794 236.285 303.63 235.711 303.302 235.33C302.974 234.944 302.461 234.75 301.764 234.75C300.85 234.75 300.179 235.026 299.751 235.576C299.329 236.121 299.118 237.018 299.118 238.266V243.32H297.659V233.687H298.846L299.083 235.005H299.153C299.429 234.536 299.815 234.17 300.313 233.906C300.817 233.643 301.38 233.511 302.001 233.511C303.507 233.511 304.491 234.056 304.954 235.146H305.024C305.312 234.642 305.728 234.243 306.272 233.95C306.817 233.657 307.438 233.511 308.136 233.511C309.226 233.511 310.04 233.792 310.579 234.355C311.124 234.911 311.396 235.805 311.396 237.035V243.32H309.938ZM322.726 238.494C322.726 240.065 322.33 241.292 321.539 242.177C320.748 243.056 319.655 243.495 318.261 243.495C317.399 243.495 316.635 243.293 315.967 242.889C315.299 242.485 314.783 241.905 314.42 241.149C314.057 240.393 313.875 239.508 313.875 238.494C313.875 236.924 314.268 235.702 315.053 234.829C315.838 233.95 316.928 233.511 318.322 233.511C319.67 233.511 320.739 233.959 321.53 234.856C322.327 235.752 322.726 236.965 322.726 238.494ZM315.387 238.494C315.387 239.725 315.633 240.662 316.125 241.307C316.617 241.951 317.341 242.274 318.296 242.274C319.251 242.274 319.975 241.954 320.467 241.316C320.965 240.671 321.214 239.731 321.214 238.494C321.214 237.27 320.965 236.341 320.467 235.708C319.975 235.07 319.245 234.75 318.278 234.75C317.323 234.75 316.603 235.064 316.116 235.691C315.63 236.318 315.387 237.252 315.387 238.494ZM327.401 243.32L323.745 233.687H325.31L327.384 239.4C327.853 240.736 328.128 241.603 328.21 242.001H328.28C328.345 241.691 328.547 241.049 328.887 240.076C329.232 239.098 330.003 236.968 331.198 233.687H332.763L329.106 243.32H327.401ZM340.233 243.32L339.943 241.948H339.873C339.393 242.552 338.912 242.962 338.432 243.179C337.957 243.39 337.362 243.495 336.647 243.495C335.692 243.495 334.942 243.249 334.397 242.757C333.858 242.265 333.589 241.565 333.589 240.656C333.589 238.711 335.145 237.692 338.256 237.598L339.891 237.545V236.948C339.891 236.192 339.727 235.635 339.398 235.278C339.076 234.914 338.558 234.733 337.843 234.733C337.04 234.733 336.132 234.979 335.118 235.471L334.67 234.355C335.145 234.097 335.663 233.895 336.226 233.748C336.794 233.602 337.362 233.529 337.931 233.529C339.079 233.529 339.929 233.783 340.479 234.293C341.036 234.803 341.314 235.62 341.314 236.745V243.32H340.233ZM336.938 242.291C337.846 242.291 338.558 242.042 339.073 241.544C339.595 241.046 339.855 240.349 339.855 239.452V238.582L338.396 238.644C337.236 238.685 336.398 238.866 335.883 239.189C335.373 239.505 335.118 240 335.118 240.674C335.118 241.201 335.276 241.603 335.593 241.878C335.915 242.154 336.363 242.291 336.938 242.291ZM345.788 243.32H344.329V229.644H345.788V243.32ZM358.04 243.495C357.413 243.495 356.839 243.381 356.317 243.153C355.802 242.918 355.368 242.561 355.017 242.08H354.911C354.981 242.643 355.017 243.176 355.017 243.68V247.644H353.558V233.687H354.744L354.946 235.005H355.017C355.392 234.478 355.828 234.097 356.326 233.863C356.824 233.628 357.396 233.511 358.04 233.511C359.317 233.511 360.302 233.948 360.993 234.821C361.69 235.694 362.039 236.918 362.039 238.494C362.039 240.076 361.685 241.307 360.976 242.186C360.272 243.059 359.294 243.495 358.04 243.495ZM357.829 234.75C356.845 234.75 356.133 235.023 355.693 235.568C355.254 236.113 355.028 236.98 355.017 238.169V238.494C355.017 239.848 355.242 240.818 355.693 241.404C356.145 241.984 356.868 242.274 357.864 242.274C358.696 242.274 359.347 241.937 359.815 241.263C360.29 240.589 360.527 239.66 360.527 238.477C360.527 237.276 360.29 236.356 359.815 235.717C359.347 235.073 358.685 234.75 357.829 234.75ZM368.991 233.511C369.419 233.511 369.803 233.546 370.143 233.616L369.94 234.97C369.542 234.882 369.19 234.838 368.886 234.838C368.106 234.838 367.438 235.155 366.882 235.787C366.331 236.42 366.056 237.208 366.056 238.152V243.32H364.597V233.687H365.801L365.968 235.471H366.038C366.396 234.844 366.826 234.361 367.33 234.021C367.834 233.681 368.388 233.511 368.991 233.511ZM380.259 238.494C380.259 240.065 379.863 241.292 379.072 242.177C378.281 243.056 377.188 243.495 375.794 243.495C374.933 243.495 374.168 243.293 373.5 242.889C372.832 242.485 372.316 241.905 371.953 241.149C371.59 240.393 371.408 239.508 371.408 238.494C371.408 236.924 371.801 235.702 372.586 234.829C373.371 233.95 374.461 233.511 375.855 233.511C377.203 233.511 378.272 233.959 379.063 234.856C379.86 235.752 380.259 236.965 380.259 238.494ZM372.92 238.494C372.92 239.725 373.166 240.662 373.658 241.307C374.15 241.951 374.874 242.274 375.829 242.274C376.784 242.274 377.508 241.954 378 241.316C378.498 240.671 378.747 239.731 378.747 238.494C378.747 237.27 378.498 236.341 378 235.708C377.508 235.07 376.778 234.75 375.812 234.75C374.856 234.75 374.136 235.064 373.649 235.691C373.163 236.318 372.92 237.252 372.92 238.494ZM386.675 243.495C385.28 243.495 384.199 243.068 383.432 242.212C382.67 241.351 382.289 240.135 382.289 238.565C382.289 236.953 382.676 235.708 383.449 234.829C384.229 233.95 385.336 233.511 386.771 233.511C387.234 233.511 387.697 233.561 388.16 233.66C388.623 233.76 388.986 233.877 389.25 234.012L388.802 235.251C388.479 235.122 388.128 235.017 387.747 234.935C387.366 234.847 387.029 234.803 386.736 234.803C384.779 234.803 383.801 236.051 383.801 238.547C383.801 239.731 384.038 240.639 384.513 241.272C384.993 241.905 385.702 242.221 386.64 242.221C387.442 242.221 388.266 242.048 389.109 241.702V242.994C388.465 243.328 387.653 243.495 386.675 243.495ZM395.473 243.495C394.049 243.495 392.924 243.062 392.098 242.195C391.277 241.327 390.867 240.123 390.867 238.582C390.867 237.03 391.248 235.796 392.01 234.882C392.777 233.968 393.806 233.511 395.095 233.511C396.302 233.511 397.257 233.909 397.96 234.706C398.663 235.497 399.015 236.543 399.015 237.844V238.767H392.379C392.408 239.898 392.692 240.756 393.231 241.342C393.776 241.928 394.541 242.221 395.525 242.221C396.562 242.221 397.588 242.004 398.602 241.571V242.871C398.086 243.094 397.597 243.252 397.134 243.346C396.677 243.446 396.123 243.495 395.473 243.495ZM395.077 234.733C394.304 234.733 393.686 234.985 393.223 235.489C392.766 235.992 392.496 236.69 392.414 237.58H397.45C397.45 236.66 397.245 235.957 396.835 235.471C396.425 234.979 395.839 234.733 395.077 234.733ZM407.725 240.692C407.725 241.588 407.391 242.28 406.723 242.766C406.055 243.252 405.117 243.495 403.91 243.495C402.633 243.495 401.637 243.293 400.922 242.889V241.535C401.385 241.77 401.88 241.954 402.407 242.089C402.94 242.224 403.453 242.291 403.945 242.291C404.707 242.291 405.293 242.171 405.703 241.931C406.113 241.685 406.318 241.313 406.318 240.815C406.318 240.44 406.154 240.12 405.826 239.857C405.504 239.587 404.871 239.271 403.928 238.907C403.031 238.573 402.393 238.283 402.012 238.037C401.637 237.785 401.355 237.501 401.168 237.185C400.986 236.868 400.896 236.49 400.896 236.051C400.896 235.266 401.215 234.648 401.854 234.197C402.492 233.74 403.368 233.511 404.481 233.511C405.519 233.511 406.532 233.722 407.522 234.144L407.004 235.33C406.037 234.932 405.161 234.733 404.376 234.733C403.685 234.733 403.163 234.841 402.812 235.058C402.46 235.275 402.284 235.573 402.284 235.954C402.284 236.212 402.349 236.432 402.478 236.614C402.612 236.795 402.826 236.968 403.119 237.132C403.412 237.296 403.975 237.533 404.807 237.844C405.949 238.26 406.72 238.679 407.118 239.101C407.522 239.523 407.725 240.053 407.725 240.692ZM416.32 240.692C416.32 241.588 415.986 242.28 415.318 242.766C414.65 243.252 413.713 243.495 412.506 243.495C411.229 243.495 410.232 243.293 409.518 242.889V241.535C409.98 241.77 410.476 241.954 411.003 242.089C411.536 242.224 412.049 242.291 412.541 242.291C413.303 242.291 413.889 242.171 414.299 241.931C414.709 241.685 414.914 241.313 414.914 240.815C414.914 240.44 414.75 240.12 414.422 239.857C414.1 239.587 413.467 239.271 412.523 238.907C411.627 238.573 410.988 238.283 410.607 238.037C410.232 237.785 409.951 237.501 409.764 237.185C409.582 236.868 409.491 236.49 409.491 236.051C409.491 235.266 409.811 234.648 410.449 234.197C411.088 233.74 411.964 233.511 413.077 233.511C414.114 233.511 415.128 233.722 416.118 234.144L415.6 235.33C414.633 234.932 413.757 234.733 412.972 234.733C412.28 234.733 411.759 234.841 411.407 235.058C411.056 235.275 410.88 235.573 410.88 235.954C410.88 236.212 410.944 236.432 411.073 236.614C411.208 236.795 411.422 236.968 411.715 237.132C412.008 237.296 412.57 237.533 413.402 237.844C414.545 238.26 415.315 238.679 415.714 239.101C416.118 239.523 416.32 240.053 416.32 240.692ZM154.512 259.821H152.06V268.32H150.601V259.821H148.878V259.161L150.601 258.634V258.098C150.601 255.731 151.635 254.547 153.703 254.547C154.213 254.547 154.811 254.65 155.496 254.855L155.118 256.024C154.556 255.842 154.075 255.751 153.677 255.751C153.126 255.751 152.719 255.936 152.455 256.305C152.191 256.668 152.06 257.254 152.06 258.063V258.687H154.512V259.821ZM160.664 258.511C161.092 258.511 161.476 258.546 161.815 258.616L161.613 259.97C161.215 259.882 160.863 259.838 160.559 259.838C159.779 259.838 159.111 260.155 158.555 260.787C158.004 261.42 157.729 262.208 157.729 263.152V268.32H156.27V258.687H157.474L157.641 260.471H157.711C158.068 259.844 158.499 259.361 159.003 259.021C159.507 258.681 160.061 258.511 160.664 258.511ZM171.932 263.494C171.932 265.065 171.536 266.292 170.745 267.177C169.954 268.056 168.861 268.495 167.467 268.495C166.605 268.495 165.841 268.293 165.173 267.889C164.505 267.485 163.989 266.905 163.626 266.149C163.263 265.393 163.081 264.508 163.081 263.494C163.081 261.924 163.474 260.702 164.259 259.829C165.044 258.95 166.134 258.511 167.528 258.511C168.876 258.511 169.945 258.959 170.736 259.856C171.533 260.752 171.932 261.965 171.932 263.494ZM164.593 263.494C164.593 264.725 164.839 265.662 165.331 266.307C165.823 266.951 166.547 267.274 167.502 267.274C168.457 267.274 169.181 266.954 169.673 266.316C170.171 265.671 170.42 264.731 170.42 263.494C170.42 262.27 170.171 261.341 169.673 260.708C169.181 260.07 168.451 259.75 167.484 259.75C166.529 259.75 165.809 260.064 165.322 260.691C164.836 261.318 164.593 262.252 164.593 263.494ZM186.776 268.32V262.053C186.776 261.285 186.612 260.711 186.284 260.33C185.956 259.944 185.446 259.75 184.755 259.75C183.847 259.75 183.176 260.011 182.742 260.532C182.309 261.054 182.092 261.857 182.092 262.941V268.32H180.633V262.053C180.633 261.285 180.469 260.711 180.141 260.33C179.812 259.944 179.3 259.75 178.603 259.75C177.688 259.75 177.018 260.026 176.59 260.576C176.168 261.121 175.957 262.018 175.957 263.266V268.32H174.498V258.687H175.685L175.922 260.005H175.992C176.268 259.536 176.654 259.17 177.152 258.906C177.656 258.643 178.219 258.511 178.84 258.511C180.346 258.511 181.33 259.056 181.793 260.146H181.863C182.15 259.642 182.566 259.243 183.111 258.95C183.656 258.657 184.277 258.511 184.975 258.511C186.064 258.511 186.879 258.792 187.418 259.355C187.963 259.911 188.235 260.805 188.235 262.035V268.32H186.776ZM202.14 265.692C202.14 266.588 201.806 267.28 201.138 267.766C200.47 268.252 199.532 268.495 198.325 268.495C197.048 268.495 196.052 268.293 195.337 267.889V266.535C195.8 266.77 196.295 266.954 196.822 267.089C197.355 267.224 197.868 267.291 198.36 267.291C199.122 267.291 199.708 267.171 200.118 266.931C200.528 266.685 200.733 266.313 200.733 265.815C200.733 265.44 200.569 265.12 200.241 264.857C199.919 264.587 199.286 264.271 198.343 263.907C197.446 263.573 196.808 263.283 196.427 263.037C196.052 262.785 195.771 262.501 195.583 262.185C195.401 261.868 195.311 261.49 195.311 261.051C195.311 260.266 195.63 259.648 196.269 259.197C196.907 258.74 197.783 258.511 198.896 258.511C199.934 258.511 200.947 258.722 201.938 259.144L201.419 260.33C200.452 259.932 199.576 259.733 198.791 259.733C198.1 259.733 197.578 259.841 197.227 260.058C196.875 260.275 196.699 260.573 196.699 260.954C196.699 261.212 196.764 261.432 196.893 261.614C197.027 261.795 197.241 261.968 197.534 262.132C197.827 262.296 198.39 262.533 199.222 262.844C200.364 263.26 201.135 263.679 201.533 264.101C201.938 264.523 202.14 265.053 202.14 265.692ZM207.633 267.291C207.891 267.291 208.14 267.274 208.38 267.239C208.62 267.198 208.811 267.156 208.951 267.115V268.232C208.793 268.308 208.559 268.369 208.248 268.416C207.943 268.469 207.668 268.495 207.422 268.495C205.559 268.495 204.627 267.514 204.627 265.551V259.821H203.247V259.117L204.627 258.511L205.242 256.454H206.086V258.687H208.881V259.821H206.086V265.49C206.086 266.07 206.224 266.515 206.499 266.825C206.774 267.136 207.152 267.291 207.633 267.291ZM216.809 268.32L216.519 266.948H216.448C215.968 267.552 215.487 267.962 215.007 268.179C214.532 268.39 213.938 268.495 213.223 268.495C212.268 268.495 211.518 268.249 210.973 267.757C210.434 267.265 210.164 266.565 210.164 265.656C210.164 263.711 211.72 262.692 214.831 262.598L216.466 262.545V261.948C216.466 261.192 216.302 260.635 215.974 260.278C215.651 259.914 215.133 259.733 214.418 259.733C213.615 259.733 212.707 259.979 211.693 260.471L211.245 259.355C211.72 259.097 212.238 258.895 212.801 258.748C213.369 258.602 213.938 258.529 214.506 258.529C215.654 258.529 216.504 258.783 217.055 259.293C217.611 259.803 217.89 260.62 217.89 261.745V268.32H216.809ZM213.513 267.291C214.421 267.291 215.133 267.042 215.648 266.544C216.17 266.046 216.431 265.349 216.431 264.452V263.582L214.972 263.644C213.812 263.685 212.974 263.866 212.458 264.189C211.948 264.505 211.693 265 211.693 265.674C211.693 266.201 211.852 266.603 212.168 266.878C212.49 267.154 212.938 267.291 213.513 267.291ZM225.299 258.511C225.727 258.511 226.11 258.546 226.45 258.616L226.248 259.97C225.85 259.882 225.498 259.838 225.193 259.838C224.414 259.838 223.746 260.155 223.189 260.787C222.639 261.42 222.363 262.208 222.363 263.152V268.32H220.904V258.687H222.108L222.275 260.471H222.346C222.703 259.844 223.134 259.361 223.638 259.021C224.142 258.681 224.695 258.511 225.299 258.511ZM231.363 267.291C231.621 267.291 231.87 267.274 232.11 267.239C232.351 267.198 232.541 267.156 232.682 267.115V268.232C232.523 268.308 232.289 268.369 231.979 268.416C231.674 268.469 231.398 268.495 231.152 268.495C229.289 268.495 228.357 267.514 228.357 265.551V259.821H226.978V259.117L228.357 258.511L228.973 256.454H229.816V258.687H232.611V259.821H229.816V265.49C229.816 266.07 229.954 266.515 230.229 266.825C230.505 267.136 230.883 267.291 231.363 267.291ZM242.402 267.291C242.66 267.291 242.909 267.274 243.149 267.239C243.39 267.198 243.58 267.156 243.721 267.115V268.232C243.562 268.308 243.328 268.369 243.018 268.416C242.713 268.469 242.438 268.495 242.191 268.495C240.328 268.495 239.396 267.514 239.396 265.551V259.821H238.017V259.117L239.396 258.511L240.012 256.454H240.855V258.687H243.65V259.821H240.855V265.49C240.855 266.07 240.993 266.515 241.269 266.825C241.544 267.136 241.922 267.291 242.402 267.291ZM253.969 263.494C253.969 265.065 253.573 266.292 252.782 267.177C251.991 268.056 250.898 268.495 249.504 268.495C248.643 268.495 247.878 268.293 247.21 267.889C246.542 267.485 246.026 266.905 245.663 266.149C245.3 265.393 245.118 264.508 245.118 263.494C245.118 261.924 245.511 260.702 246.296 259.829C247.081 258.95 248.171 258.511 249.565 258.511C250.913 258.511 251.982 258.959 252.773 259.856C253.57 260.752 253.969 261.965 253.969 263.494ZM246.63 263.494C246.63 264.725 246.876 265.662 247.368 266.307C247.86 266.951 248.584 267.274 249.539 267.274C250.494 267.274 251.218 266.954 251.71 266.316C252.208 265.671 252.457 264.731 252.457 263.494C252.457 262.27 252.208 261.341 251.71 260.708C251.218 260.07 250.488 259.75 249.521 259.75C248.566 259.75 247.846 260.064 247.359 260.691C246.873 261.318 246.63 262.252 246.63 263.494ZM265.553 259.821H263.101V268.32H261.642V259.821H259.919V259.161L261.642 258.634V258.098C261.642 255.731 262.676 254.547 264.744 254.547C265.254 254.547 265.852 254.65 266.537 254.855L266.159 256.024C265.597 255.842 265.116 255.751 264.718 255.751C264.167 255.751 263.76 255.936 263.496 256.305C263.232 256.668 263.101 257.254 263.101 258.063V258.687H265.553V259.821ZM268.77 268.32H267.311V258.687H268.77V268.32ZM267.188 256.076C267.188 255.742 267.27 255.499 267.434 255.347C267.598 255.189 267.803 255.11 268.049 255.11C268.283 255.11 268.485 255.189 268.655 255.347C268.825 255.505 268.91 255.748 268.91 256.076C268.91 256.405 268.825 256.651 268.655 256.815C268.485 256.973 268.283 257.052 268.049 257.052C267.803 257.052 267.598 256.973 267.434 256.815C267.27 256.651 267.188 256.405 267.188 256.076ZM278.455 268.32V262.088C278.455 261.303 278.276 260.717 277.919 260.33C277.562 259.944 277.002 259.75 276.24 259.75C275.232 259.75 274.494 260.023 274.025 260.568C273.557 261.113 273.322 262.012 273.322 263.266V268.32H271.863V258.687H273.05L273.287 260.005H273.357C273.656 259.531 274.075 259.164 274.614 258.906C275.153 258.643 275.754 258.511 276.416 258.511C277.576 258.511 278.449 258.792 279.035 259.355C279.621 259.911 279.914 260.805 279.914 262.035V268.32H278.455ZM284.379 268.32H282.92V258.687H284.379V268.32ZM282.797 256.076C282.797 255.742 282.879 255.499 283.043 255.347C283.207 255.189 283.412 255.11 283.658 255.11C283.893 255.11 284.095 255.189 284.265 255.347C284.435 255.505 284.52 255.748 284.52 256.076C284.52 256.405 284.435 256.651 284.265 256.815C284.095 256.973 283.893 257.052 283.658 257.052C283.412 257.052 283.207 256.973 283.043 256.815C282.879 256.651 282.797 256.405 282.797 256.076ZM293.687 265.692C293.687 266.588 293.353 267.28 292.685 267.766C292.017 268.252 291.079 268.495 289.872 268.495C288.595 268.495 287.599 268.293 286.884 267.889V266.535C287.347 266.77 287.842 266.954 288.369 267.089C288.902 267.224 289.415 267.291 289.907 267.291C290.669 267.291 291.255 267.171 291.665 266.931C292.075 266.685 292.28 266.313 292.28 265.815C292.28 265.44 292.116 265.12 291.788 264.857C291.466 264.587 290.833 264.271 289.89 263.907C288.993 263.573 288.354 263.283 287.974 263.037C287.599 262.785 287.317 262.501 287.13 262.185C286.948 261.868 286.857 261.49 286.857 261.051C286.857 260.266 287.177 259.648 287.815 259.197C288.454 258.74 289.33 258.511 290.443 258.511C291.48 258.511 292.494 258.722 293.484 259.144L292.966 260.33C291.999 259.932 291.123 259.733 290.338 259.733C289.646 259.733 289.125 259.841 288.773 260.058C288.422 260.275 288.246 260.573 288.246 260.954C288.246 261.212 288.311 261.432 288.439 261.614C288.574 261.795 288.788 261.968 289.081 262.132C289.374 262.296 289.937 262.533 290.769 262.844C291.911 263.26 292.682 263.679 293.08 264.101C293.484 264.523 293.687 265.053 293.687 265.692ZM302.66 268.32V262.088C302.66 261.303 302.481 260.717 302.124 260.33C301.767 259.944 301.207 259.75 300.445 259.75C299.432 259.75 298.69 260.026 298.222 260.576C297.759 261.127 297.527 262.03 297.527 263.283V268.32H296.068V254.644H297.527V258.783C297.527 259.281 297.504 259.695 297.457 260.023H297.545C297.832 259.56 298.239 259.197 298.767 258.933C299.3 258.663 299.906 258.529 300.586 258.529C301.764 258.529 302.646 258.81 303.231 259.372C303.823 259.929 304.119 260.817 304.119 262.035V268.32H302.66ZM306.914 267.388C306.914 266.995 307.002 266.699 307.178 266.5C307.359 266.295 307.617 266.193 307.951 266.193C308.291 266.193 308.555 266.295 308.742 266.5C308.936 266.699 309.032 266.995 309.032 267.388C309.032 267.769 308.936 268.062 308.742 268.267C308.549 268.472 308.285 268.574 307.951 268.574C307.652 268.574 307.403 268.484 307.204 268.302C307.011 268.115 306.914 267.81 306.914 267.388Z" fill="black"/>
<path d="M224.75 66.4179C222 69.3698 218 71.3377 213.5 71.3377H206C197.75 71.3377 191 64.696 191 56.5782C191 48.4605 197.75 41.8187 206 41.8187H213.5C218 41.8187 222 43.7866 224.75 46.7385H236.5C232.75 38.1288 223.75 31.979 213.5 31.979H206C192.25 31.979 181 43.0487 181 56.5782C181 70.1078 192.25 81.1774 206 81.1774H213.5C223.75 81.1774 232.5 75.0276 236.5 66.4179H224.75Z" fill="#0166A3"/>
<path d="M275.999 31.979H268.5C258.25 31.979 249.5 38.1288 245.5 46.7385H257.25C260 43.7866 264 41.8187 268.5 41.8187H275.999C284.249 41.8187 290.999 48.4605 290.999 56.5782C290.999 64.696 284.249 71.3377 275.999 71.3377H268.5C264 71.3377 260 69.3698 257.25 66.4179H245.5C249.25 75.0276 258.25 81.1774 268.5 81.1774H275.999C289.749 81.1774 300.999 70.1078 300.999 56.5782C300.999 43.0487 289.749 31.979 275.999 31.979Z" fill="#0166A3"/>
<path d="M229.75 9.83972L221 14.7596L236.25 34.6849L239.5 32.717L229.75 9.83972Z" fill="#0166A3"/>
<path d="M252.25 9.83972L261 14.7596L245.75 34.6849L242.5 32.717L252.25 9.83972Z" fill="#0166A3"/>
<path d="M252.25 108.236L261 103.316L245.75 83.3911L242.5 85.359L252.25 108.236Z" fill="#0166A3"/>
<path d="M229.75 108.236L221 103.316L236.25 83.3911L239.5 85.359L229.75 108.236Z" fill="#0166A3"/>
</svg>
