<svg width="471" height="402" viewBox="0 0 471 402" fill="none" xmlns="http://www.w3.org/2000/svg">
<rect x="0.5" y="49" width="470" height="353" rx="15" fill="#F0F8FC"/>
<path d="M136.975 176L131.818 159.198H131.687C131.872 162.616 131.965 164.896 131.965 166.039V176H127.907V154.584H134.089L139.157 170.961H139.245L144.621 154.584H150.803V176H146.569V165.863C146.569 165.385 146.574 164.833 146.584 164.208C146.604 163.583 146.672 161.923 146.789 159.228H146.657L141.135 176H136.975ZM169.318 176L167.766 170.902H159.958L158.405 176H153.513L161.071 154.496H166.623L174.211 176H169.318ZM166.682 167.094C165.246 162.475 164.436 159.862 164.25 159.257C164.074 158.651 163.947 158.173 163.869 157.821C163.547 159.071 162.624 162.162 161.101 167.094H166.682ZM195.92 176H190.148L180.832 159.799H180.7C180.886 162.66 180.979 164.701 180.979 165.922V176H176.921V154.584H182.648L191.95 170.624H192.053C191.906 167.841 191.833 165.873 191.833 164.721V154.584H195.92V176ZM218.757 154.584V168.441C218.757 170.023 218.4 171.41 217.688 172.602C216.984 173.793 215.964 174.706 214.626 175.341C213.288 175.976 211.706 176.293 209.88 176.293C207.126 176.293 204.987 175.59 203.464 174.184C201.94 172.768 201.179 170.834 201.179 168.383V154.584H205.705V167.694C205.705 169.345 206.037 170.556 206.701 171.327C207.365 172.099 208.464 172.484 209.997 172.484C211.481 172.484 212.556 172.099 213.22 171.327C213.894 170.546 214.23 169.325 214.23 167.665V154.584H218.757ZM237.111 176L235.559 170.902H227.751L226.198 176H221.306L228.864 154.496H234.416L242.004 176H237.111ZM234.475 167.094C233.039 162.475 232.229 159.862 232.043 159.257C231.867 158.651 231.74 158.173 231.662 157.821C231.34 159.071 230.417 162.162 228.894 167.094H234.475ZM244.714 176V154.584H249.255V172.25H257.941V176H244.714ZM269.47 176V154.584H274.011V172.25H282.697V176H269.47ZM286.433 176V154.584H290.974V176H286.433ZM315.363 176H309.592L300.275 159.799H300.144C300.329 162.66 300.422 164.701 300.422 165.922V176H296.364V154.584H302.092L311.394 170.624H311.496C311.35 167.841 311.276 165.873 311.276 164.721V154.584H315.363V176ZM337.995 176H332.839L327.229 166.977L325.31 168.354V176H320.769V154.584H325.31V164.384L327.097 161.864L332.897 154.584H337.937L330.466 164.062L337.995 176ZM84.167 205.091H85.6318C87.0674 205.091 88.127 204.852 88.8105 204.373C89.4941 203.895 89.8359 203.143 89.8359 202.117C89.8359 201.102 89.4844 200.379 88.7812 199.949C88.0879 199.52 87.0088 199.305 85.5439 199.305H84.167V205.091ZM84.167 208.782V217H79.626V195.584H85.8662C88.7764 195.584 90.9297 196.116 92.3262 197.181C93.7227 198.235 94.4209 199.842 94.4209 202C94.4209 203.26 94.0742 204.383 93.3809 205.369C92.6875 206.346 91.7061 207.112 90.4365 207.669C93.6592 212.483 95.7588 215.594 96.7354 217H91.6963L86.584 208.782H84.167ZM111.765 217H99.4307V195.584H111.765V199.305H103.972V204.007H111.223V207.728H103.972V213.25H111.765V217ZM125.314 217L120.158 200.198H120.026C120.212 203.616 120.305 205.896 120.305 207.039V217H116.247V195.584H122.429L127.497 211.961H127.585L132.961 195.584H139.143V217H134.909V206.863C134.909 206.385 134.914 205.833 134.924 205.208C134.943 204.583 135.012 202.923 135.129 200.228H134.997L129.475 217H125.314ZM163.986 206.263C163.986 209.808 163.107 212.532 161.35 214.437C159.592 216.341 157.072 217.293 153.791 217.293C150.51 217.293 147.99 216.341 146.232 214.437C144.475 212.532 143.596 209.798 143.596 206.233C143.596 202.669 144.475 199.949 146.232 198.074C148 196.189 150.529 195.247 153.82 195.247C157.111 195.247 159.626 196.194 161.364 198.089C163.112 199.983 163.986 202.708 163.986 206.263ZM148.356 206.263C148.356 208.655 148.811 210.457 149.719 211.668C150.627 212.879 151.984 213.484 153.791 213.484C157.414 213.484 159.226 211.077 159.226 206.263C159.226 201.438 157.424 199.026 153.82 199.026C152.014 199.026 150.651 199.637 149.733 200.857C148.815 202.068 148.356 203.87 148.356 206.263ZM180.642 195.584H185.227L177.946 217H172.995L165.729 195.584H170.314L174.343 208.328C174.567 209.08 174.797 209.959 175.031 210.965C175.275 211.961 175.427 212.654 175.485 213.045C175.593 212.146 175.959 210.574 176.584 208.328L180.642 195.584ZM201.047 217L199.494 211.902H191.687L190.134 217H185.241L192.8 195.496H198.352L205.939 217H201.047ZM198.41 208.094C196.975 203.475 196.164 200.862 195.979 200.257C195.803 199.651 195.676 199.173 195.598 198.821C195.275 200.071 194.353 203.162 192.829 208.094H198.41ZM208.649 217V195.584H213.19V213.25H221.877V217H208.649ZM252.844 206.263C252.844 209.808 251.965 212.532 250.207 214.437C248.449 216.341 245.93 217.293 242.648 217.293C239.367 217.293 236.848 216.341 235.09 214.437C233.332 212.532 232.453 209.798 232.453 206.233C232.453 202.669 233.332 199.949 235.09 198.074C236.857 196.189 239.387 195.247 242.678 195.247C245.969 195.247 248.483 196.194 250.222 198.089C251.97 199.983 252.844 202.708 252.844 206.263ZM237.214 206.263C237.214 208.655 237.668 210.457 238.576 211.668C239.484 212.879 240.842 213.484 242.648 213.484C246.271 213.484 248.083 211.077 248.083 206.263C248.083 201.438 246.281 199.026 242.678 199.026C240.871 199.026 239.509 199.637 238.591 200.857C237.673 202.068 237.214 203.87 237.214 206.263ZM274.714 195.584V209.441C274.714 211.023 274.357 212.41 273.645 213.602C272.941 214.793 271.921 215.706 270.583 216.341C269.245 216.976 267.663 217.293 265.837 217.293C263.083 217.293 260.944 216.59 259.421 215.184C257.897 213.768 257.136 211.834 257.136 209.383V195.584H261.662V208.694C261.662 210.345 261.994 211.556 262.658 212.327C263.322 213.099 264.421 213.484 265.954 213.484C267.438 213.484 268.513 213.099 269.177 212.327C269.851 211.546 270.188 210.325 270.188 208.665V195.584H274.714ZM288.22 217H283.679V199.363H277.863V195.584H294.035V199.363H288.22V217ZM301.872 205.091H303.337C304.772 205.091 305.832 204.852 306.516 204.373C307.199 203.895 307.541 203.143 307.541 202.117C307.541 201.102 307.189 200.379 306.486 199.949C305.793 199.52 304.714 199.305 303.249 199.305H301.872V205.091ZM301.872 208.782V217H297.331V195.584H303.571C306.481 195.584 308.635 196.116 310.031 197.181C311.428 198.235 312.126 199.842 312.126 202C312.126 203.26 311.779 204.383 311.086 205.369C310.393 206.346 309.411 207.112 308.142 207.669C311.364 212.483 313.464 215.594 314.44 217H309.401L304.289 208.782H301.872ZM329.47 217H317.136V195.584H329.47V199.305H321.677V204.007H328.928V207.728H321.677V213.25H329.47V217ZM347.062 217L345.51 211.902H337.702L336.149 217H331.257L338.815 195.496H344.367L351.955 217H347.062ZM344.426 208.094C342.99 203.475 342.18 200.862 341.994 200.257C341.818 199.651 341.691 199.173 341.613 198.821C341.291 200.071 340.368 203.162 338.845 208.094H344.426ZM363.762 199.056C362.053 199.056 360.729 199.7 359.792 200.989C358.854 202.269 358.386 204.056 358.386 206.351C358.386 211.126 360.178 213.514 363.762 213.514C365.266 213.514 367.087 213.138 369.226 212.386V216.194C367.468 216.927 365.505 217.293 363.337 217.293C360.222 217.293 357.839 216.351 356.188 214.466C354.538 212.571 353.713 209.856 353.713 206.321C353.713 204.095 354.118 202.146 354.929 200.477C355.739 198.797 356.901 197.513 358.415 196.624C359.938 195.726 361.721 195.276 363.762 195.276C365.842 195.276 367.932 195.779 370.031 196.785L368.566 200.477C367.766 200.096 366.96 199.764 366.149 199.48C365.339 199.197 364.543 199.056 363.762 199.056ZM391.345 217H386.818V207.757H378.337V217H373.796V195.584H378.337V203.978H386.818V195.584H391.345V217Z" fill="black"/>
<path d="M65.9316 259.558C65.9316 261.614 65.4102 263.231 64.3672 264.409C63.3301 265.587 61.8857 266.176 60.0342 266.176C58.1416 266.176 56.6797 265.599 55.6484 264.444C54.623 263.284 54.1104 261.649 54.1104 259.54C54.1104 257.448 54.626 255.828 55.6572 254.68C56.6885 253.525 58.1533 252.948 60.0518 252.948C61.8975 252.948 63.3389 253.534 64.376 254.706C65.4131 255.878 65.9316 257.495 65.9316 259.558ZM55.6924 259.558C55.6924 261.298 56.0615 262.619 56.7998 263.521C57.5439 264.418 58.6221 264.866 60.0342 264.866C61.458 264.866 62.5332 264.418 63.2598 263.521C63.9863 262.625 64.3496 261.304 64.3496 259.558C64.3496 257.829 63.9863 256.52 63.2598 255.629C62.5391 254.732 61.4697 254.284 60.0518 254.284C58.6279 254.284 57.5439 254.735 56.7998 255.638C56.0615 256.534 55.6924 257.841 55.6924 259.558ZM69.957 256.367V262.616C69.957 263.401 70.1357 263.987 70.4932 264.374C70.8506 264.761 71.4102 264.954 72.1719 264.954C73.1797 264.954 73.915 264.679 74.3779 264.128C74.8467 263.577 75.0811 262.678 75.0811 261.43V256.367H76.54V266H75.3359L75.125 264.708H75.0459C74.7471 265.183 74.3311 265.546 73.7979 265.798C73.2705 266.05 72.667 266.176 71.9873 266.176C70.8154 266.176 69.9365 265.897 69.3506 265.341C68.7705 264.784 68.4805 263.894 68.4805 262.669V256.367H69.957ZM84.0371 256.191C84.4648 256.191 84.8486 256.227 85.1885 256.297L84.9863 257.65C84.5879 257.562 84.2363 257.519 83.9316 257.519C83.1523 257.519 82.4844 257.835 81.9277 258.468C81.377 259.101 81.1016 259.889 81.1016 260.832V266H79.6426V256.367H80.8467L81.0137 258.151H81.084C81.4414 257.524 81.8721 257.041 82.376 256.701C82.8799 256.361 83.4336 256.191 84.0371 256.191ZM94.7773 264.972C95.0352 264.972 95.2842 264.954 95.5244 264.919C95.7646 264.878 95.9551 264.837 96.0957 264.796V265.912C95.9375 265.988 95.7031 266.05 95.3926 266.097C95.0879 266.149 94.8125 266.176 94.5664 266.176C92.7031 266.176 91.7715 265.194 91.7715 263.231V257.501H90.3916V256.798L91.7715 256.191L92.3867 254.135H93.2305V256.367H96.0254V257.501H93.2305V263.17C93.2305 263.75 93.3682 264.195 93.6436 264.506C93.9189 264.816 94.2969 264.972 94.7773 264.972ZM102.099 266.176C100.675 266.176 99.5498 265.742 98.7236 264.875C97.9033 264.008 97.4932 262.804 97.4932 261.263C97.4932 259.71 97.874 258.477 98.6357 257.562C99.4033 256.648 100.432 256.191 101.721 256.191C102.928 256.191 103.883 256.59 104.586 257.387C105.289 258.178 105.641 259.224 105.641 260.524V261.447H99.0049C99.0342 262.578 99.3184 263.437 99.8574 264.022C100.402 264.608 101.167 264.901 102.151 264.901C103.188 264.901 104.214 264.685 105.228 264.251V265.552C104.712 265.774 104.223 265.933 103.76 266.026C103.303 266.126 102.749 266.176 102.099 266.176ZM101.703 257.413C100.93 257.413 100.312 257.665 99.8486 258.169C99.3916 258.673 99.1221 259.37 99.04 260.261H104.076C104.076 259.341 103.871 258.638 103.461 258.151C103.051 257.659 102.465 257.413 101.703 257.413ZM114.061 266L113.771 264.629H113.7C113.22 265.232 112.739 265.643 112.259 265.859C111.784 266.07 111.189 266.176 110.475 266.176C109.52 266.176 108.77 265.93 108.225 265.438C107.686 264.945 107.416 264.245 107.416 263.337C107.416 261.392 108.972 260.372 112.083 260.278L113.718 260.226V259.628C113.718 258.872 113.554 258.315 113.226 257.958C112.903 257.595 112.385 257.413 111.67 257.413C110.867 257.413 109.959 257.659 108.945 258.151L108.497 257.035C108.972 256.777 109.49 256.575 110.053 256.429C110.621 256.282 111.189 256.209 111.758 256.209C112.906 256.209 113.756 256.464 114.307 256.974C114.863 257.483 115.142 258.301 115.142 259.426V266H114.061ZM110.765 264.972C111.673 264.972 112.385 264.723 112.9 264.225C113.422 263.727 113.683 263.029 113.683 262.133V261.263L112.224 261.324C111.063 261.365 110.226 261.547 109.71 261.869C109.2 262.186 108.945 262.681 108.945 263.354C108.945 263.882 109.104 264.283 109.42 264.559C109.742 264.834 110.19 264.972 110.765 264.972ZM130.435 266V259.733C130.435 258.966 130.271 258.392 129.942 258.011C129.614 257.624 129.104 257.431 128.413 257.431C127.505 257.431 126.834 257.691 126.4 258.213C125.967 258.734 125.75 259.537 125.75 260.621V266H124.291V259.733C124.291 258.966 124.127 258.392 123.799 258.011C123.471 257.624 122.958 257.431 122.261 257.431C121.347 257.431 120.676 257.706 120.248 258.257C119.826 258.802 119.615 259.698 119.615 260.946V266H118.156V256.367H119.343L119.58 257.686H119.65C119.926 257.217 120.312 256.851 120.811 256.587C121.314 256.323 121.877 256.191 122.498 256.191C124.004 256.191 124.988 256.736 125.451 257.826H125.521C125.809 257.322 126.225 256.924 126.77 256.631C127.314 256.338 127.936 256.191 128.633 256.191C129.723 256.191 130.537 256.473 131.076 257.035C131.621 257.592 131.894 258.485 131.894 259.716V266H130.435ZM147.898 261.175C147.898 262.745 147.503 263.973 146.712 264.857C145.921 265.736 144.828 266.176 143.434 266.176C142.572 266.176 141.808 265.974 141.14 265.569C140.472 265.165 139.956 264.585 139.593 263.829C139.229 263.073 139.048 262.188 139.048 261.175C139.048 259.604 139.44 258.383 140.226 257.51C141.011 256.631 142.101 256.191 143.495 256.191C144.843 256.191 145.912 256.64 146.703 257.536C147.5 258.433 147.898 259.646 147.898 261.175ZM140.56 261.175C140.56 262.405 140.806 263.343 141.298 263.987C141.79 264.632 142.514 264.954 143.469 264.954C144.424 264.954 145.147 264.635 145.64 263.996C146.138 263.352 146.387 262.411 146.387 261.175C146.387 259.95 146.138 259.021 145.64 258.389C145.147 257.75 144.418 257.431 143.451 257.431C142.496 257.431 141.775 257.744 141.289 258.371C140.803 258.998 140.56 259.933 140.56 261.175ZM154.807 257.501H152.354V266H150.896V257.501H149.173V256.842L150.896 256.314V255.778C150.896 253.411 151.93 252.228 153.998 252.228C154.508 252.228 155.105 252.33 155.791 252.535L155.413 253.704C154.851 253.522 154.37 253.432 153.972 253.432C153.421 253.432 153.014 253.616 152.75 253.985C152.486 254.349 152.354 254.935 152.354 255.743V256.367H154.807V257.501ZM165.31 266.176C163.886 266.176 162.761 265.742 161.935 264.875C161.114 264.008 160.704 262.804 160.704 261.263C160.704 259.71 161.085 258.477 161.847 257.562C162.614 256.648 163.643 256.191 164.932 256.191C166.139 256.191 167.094 256.59 167.797 257.387C168.5 258.178 168.852 259.224 168.852 260.524V261.447H162.216C162.245 262.578 162.529 263.437 163.068 264.022C163.613 264.608 164.378 264.901 165.362 264.901C166.399 264.901 167.425 264.685 168.438 264.251V265.552C167.923 265.774 167.434 265.933 166.971 266.026C166.514 266.126 165.96 266.176 165.31 266.176ZM164.914 257.413C164.141 257.413 163.522 257.665 163.06 258.169C162.603 258.673 162.333 259.37 162.251 260.261H167.287C167.287 259.341 167.082 258.638 166.672 258.151C166.262 257.659 165.676 257.413 164.914 257.413ZM173.668 261.069L170.319 256.367H171.98L174.521 260.059L177.052 256.367H178.695L175.347 261.069L178.871 266H177.219L174.521 262.098L171.796 266H170.144L173.668 261.069ZM185.27 266.176C184.643 266.176 184.068 266.062 183.547 265.833C183.031 265.599 182.598 265.241 182.246 264.761H182.141C182.211 265.323 182.246 265.856 182.246 266.36V270.324H180.787V256.367H181.974L182.176 257.686H182.246C182.621 257.158 183.058 256.777 183.556 256.543C184.054 256.309 184.625 256.191 185.27 256.191C186.547 256.191 187.531 256.628 188.223 257.501C188.92 258.374 189.269 259.599 189.269 261.175C189.269 262.757 188.914 263.987 188.205 264.866C187.502 265.739 186.523 266.176 185.27 266.176ZM185.059 257.431C184.074 257.431 183.362 257.703 182.923 258.248C182.483 258.793 182.258 259.66 182.246 260.85V261.175C182.246 262.528 182.472 263.498 182.923 264.084C183.374 264.664 184.098 264.954 185.094 264.954C185.926 264.954 186.576 264.617 187.045 263.943C187.52 263.27 187.757 262.341 187.757 261.157C187.757 259.956 187.52 259.036 187.045 258.397C186.576 257.753 185.914 257.431 185.059 257.431ZM195.896 266.176C194.472 266.176 193.347 265.742 192.521 264.875C191.7 264.008 191.29 262.804 191.29 261.263C191.29 259.71 191.671 258.477 192.433 257.562C193.2 256.648 194.229 256.191 195.518 256.191C196.725 256.191 197.68 256.59 198.383 257.387C199.086 258.178 199.438 259.224 199.438 260.524V261.447H192.802C192.831 262.578 193.115 263.437 193.654 264.022C194.199 264.608 194.964 264.901 195.948 264.901C196.985 264.901 198.011 264.685 199.024 264.251V265.552C198.509 265.774 198.02 265.933 197.557 266.026C197.1 266.126 196.546 266.176 195.896 266.176ZM195.5 257.413C194.727 257.413 194.108 257.665 193.646 258.169C193.188 258.673 192.919 259.37 192.837 260.261H197.873C197.873 259.341 197.668 258.638 197.258 258.151C196.848 257.659 196.262 257.413 195.5 257.413ZM206.328 256.191C206.756 256.191 207.14 256.227 207.479 256.297L207.277 257.65C206.879 257.562 206.527 257.519 206.223 257.519C205.443 257.519 204.775 257.835 204.219 258.468C203.668 259.101 203.393 259.889 203.393 260.832V266H201.934V256.367H203.138L203.305 258.151H203.375C203.732 257.524 204.163 257.041 204.667 256.701C205.171 256.361 205.725 256.191 206.328 256.191ZM212.393 264.972C212.65 264.972 212.899 264.954 213.14 264.919C213.38 264.878 213.57 264.837 213.711 264.796V265.912C213.553 265.988 213.318 266.05 213.008 266.097C212.703 266.149 212.428 266.176 212.182 266.176C210.318 266.176 209.387 265.194 209.387 263.231V257.501H208.007V256.798L209.387 256.191L210.002 254.135H210.846V256.367H213.641V257.501H210.846V263.17C210.846 263.75 210.983 264.195 211.259 264.506C211.534 264.816 211.912 264.972 212.393 264.972ZM221.858 263.372C221.858 264.269 221.524 264.96 220.856 265.446C220.188 265.933 219.251 266.176 218.044 266.176C216.767 266.176 215.771 265.974 215.056 265.569V264.216C215.519 264.45 216.014 264.635 216.541 264.77C217.074 264.904 217.587 264.972 218.079 264.972C218.841 264.972 219.427 264.852 219.837 264.611C220.247 264.365 220.452 263.993 220.452 263.495C220.452 263.12 220.288 262.801 219.96 262.537C219.638 262.268 219.005 261.951 218.062 261.588C217.165 261.254 216.526 260.964 216.146 260.718C215.771 260.466 215.489 260.182 215.302 259.865C215.12 259.549 215.029 259.171 215.029 258.731C215.029 257.946 215.349 257.328 215.987 256.877C216.626 256.42 217.502 256.191 218.615 256.191C219.652 256.191 220.666 256.402 221.656 256.824L221.138 258.011C220.171 257.612 219.295 257.413 218.51 257.413C217.818 257.413 217.297 257.521 216.945 257.738C216.594 257.955 216.418 258.254 216.418 258.635C216.418 258.893 216.482 259.112 216.611 259.294C216.746 259.476 216.96 259.648 217.253 259.812C217.546 259.977 218.108 260.214 218.94 260.524C220.083 260.94 220.854 261.359 221.252 261.781C221.656 262.203 221.858 262.733 221.858 263.372ZM236.782 266L235.016 260.349C234.904 260.003 234.696 259.218 234.392 257.993H234.321C234.087 259.019 233.882 259.81 233.706 260.366L231.887 266H230.199L227.571 256.367H229.101C229.722 258.787 230.193 260.63 230.516 261.896C230.844 263.161 231.031 264.014 231.078 264.453H231.148C231.213 264.119 231.315 263.688 231.456 263.161C231.603 262.628 231.729 262.206 231.834 261.896L233.601 256.367H235.183L236.905 261.896C237.233 262.903 237.456 263.75 237.573 264.436H237.644C237.667 264.225 237.729 263.899 237.828 263.46C237.934 263.021 238.546 260.656 239.665 256.367H241.177L238.514 266H236.782ZM244.385 266H242.926V256.367H244.385V266ZM242.803 253.757C242.803 253.423 242.885 253.18 243.049 253.027C243.213 252.869 243.418 252.79 243.664 252.79C243.898 252.79 244.101 252.869 244.271 253.027C244.44 253.186 244.525 253.429 244.525 253.757C244.525 254.085 244.44 254.331 244.271 254.495C244.101 254.653 243.898 254.732 243.664 254.732C243.418 254.732 243.213 254.653 243.049 254.495C242.885 254.331 242.803 254.085 242.803 253.757ZM248.938 266H247.479V252.324H248.938V266ZM253.49 266H252.031V252.324H253.49V266ZM273.538 266V259.733C273.538 258.966 273.374 258.392 273.046 258.011C272.718 257.624 272.208 257.431 271.517 257.431C270.608 257.431 269.938 257.691 269.504 258.213C269.07 258.734 268.854 259.537 268.854 260.621V266H267.395V259.733C267.395 258.966 267.23 258.392 266.902 258.011C266.574 257.624 266.062 257.431 265.364 257.431C264.45 257.431 263.779 257.706 263.352 258.257C262.93 258.802 262.719 259.698 262.719 260.946V266H261.26V256.367H262.446L262.684 257.686H262.754C263.029 257.217 263.416 256.851 263.914 256.587C264.418 256.323 264.98 256.191 265.602 256.191C267.107 256.191 268.092 256.736 268.555 257.826H268.625C268.912 257.322 269.328 256.924 269.873 256.631C270.418 256.338 271.039 256.191 271.736 256.191C272.826 256.191 273.641 256.473 274.18 257.035C274.725 257.592 274.997 258.485 274.997 259.716V266H273.538ZM283.936 266L283.646 264.629H283.575C283.095 265.232 282.614 265.643 282.134 265.859C281.659 266.07 281.064 266.176 280.35 266.176C279.395 266.176 278.645 265.93 278.1 265.438C277.561 264.945 277.291 264.245 277.291 263.337C277.291 261.392 278.847 260.372 281.958 260.278L283.593 260.226V259.628C283.593 258.872 283.429 258.315 283.101 257.958C282.778 257.595 282.26 257.413 281.545 257.413C280.742 257.413 279.834 257.659 278.82 258.151L278.372 257.035C278.847 256.777 279.365 256.575 279.928 256.429C280.496 256.282 281.064 256.209 281.633 256.209C282.781 256.209 283.631 256.464 284.182 256.974C284.738 257.483 285.017 258.301 285.017 259.426V266H283.936ZM280.64 264.972C281.548 264.972 282.26 264.723 282.775 264.225C283.297 263.727 283.558 263.029 283.558 262.133V261.263L282.099 261.324C280.938 261.365 280.101 261.547 279.585 261.869C279.075 262.186 278.82 262.681 278.82 263.354C278.82 263.882 278.979 264.283 279.295 264.559C279.617 264.834 280.065 264.972 280.64 264.972ZM294.623 266V259.769C294.623 258.983 294.444 258.397 294.087 258.011C293.729 257.624 293.17 257.431 292.408 257.431C291.4 257.431 290.662 257.703 290.193 258.248C289.725 258.793 289.49 259.692 289.49 260.946V266H288.031V256.367H289.218L289.455 257.686H289.525C289.824 257.211 290.243 256.845 290.782 256.587C291.321 256.323 291.922 256.191 292.584 256.191C293.744 256.191 294.617 256.473 295.203 257.035C295.789 257.592 296.082 258.485 296.082 259.716V266H294.623ZM300.459 256.367V262.616C300.459 263.401 300.638 263.987 300.995 264.374C301.353 264.761 301.912 264.954 302.674 264.954C303.682 264.954 304.417 264.679 304.88 264.128C305.349 263.577 305.583 262.678 305.583 261.43V256.367H307.042V266H305.838L305.627 264.708H305.548C305.249 265.183 304.833 265.546 304.3 265.798C303.772 266.05 303.169 266.176 302.489 266.176C301.317 266.176 300.438 265.897 299.853 265.341C299.272 264.784 298.982 263.894 298.982 262.669V256.367H300.459ZM316.068 266L315.778 264.629H315.708C315.228 265.232 314.747 265.643 314.267 265.859C313.792 266.07 313.197 266.176 312.482 266.176C311.527 266.176 310.777 265.93 310.232 265.438C309.693 264.945 309.424 264.245 309.424 263.337C309.424 261.392 310.979 260.372 314.091 260.278L315.726 260.226V259.628C315.726 258.872 315.562 258.315 315.233 257.958C314.911 257.595 314.393 257.413 313.678 257.413C312.875 257.413 311.967 257.659 310.953 258.151L310.505 257.035C310.979 256.777 311.498 256.575 312.061 256.429C312.629 256.282 313.197 256.209 313.766 256.209C314.914 256.209 315.764 256.464 316.314 256.974C316.871 257.483 317.149 258.301 317.149 259.426V266H316.068ZM312.772 264.972C313.681 264.972 314.393 264.723 314.908 264.225C315.43 263.727 315.69 263.029 315.69 262.133V261.263L314.231 261.324C313.071 261.365 312.233 261.547 311.718 261.869C311.208 262.186 310.953 262.681 310.953 263.354C310.953 263.882 311.111 264.283 311.428 264.559C311.75 264.834 312.198 264.972 312.772 264.972ZM321.623 266H320.164V252.324H321.623V266ZM326.176 266H324.717V252.324H326.176V266ZM327.74 256.367H329.305L331.414 261.86C331.877 263.114 332.164 264.02 332.275 264.576H332.346C332.422 264.277 332.58 263.768 332.82 263.047C333.066 262.32 333.863 260.094 335.211 256.367H336.775L332.636 267.336C332.226 268.42 331.745 269.188 331.194 269.639C330.649 270.096 329.979 270.324 329.182 270.324C328.736 270.324 328.297 270.274 327.863 270.175V269.006C328.186 269.076 328.546 269.111 328.944 269.111C329.946 269.111 330.661 268.549 331.089 267.424L331.625 266.053L327.74 256.367ZM345.125 266L341.469 256.367H343.033L345.107 262.08C345.576 263.416 345.852 264.283 345.934 264.682H346.004C346.068 264.371 346.271 263.729 346.61 262.757C346.956 261.778 347.727 259.648 348.922 256.367H350.486L346.83 266H345.125ZM353.492 266H352.033V256.367H353.492V266ZM351.91 253.757C351.91 253.423 351.992 253.18 352.156 253.027C352.32 252.869 352.525 252.79 352.771 252.79C353.006 252.79 353.208 252.869 353.378 253.027C353.548 253.186 353.633 253.429 353.633 253.757C353.633 254.085 353.548 254.331 353.378 254.495C353.208 254.653 353.006 254.732 352.771 254.732C352.525 254.732 352.32 254.653 352.156 254.495C351.992 254.331 351.91 254.085 351.91 253.757ZM362.8 263.372C362.8 264.269 362.466 264.96 361.798 265.446C361.13 265.933 360.192 266.176 358.985 266.176C357.708 266.176 356.712 265.974 355.997 265.569V264.216C356.46 264.45 356.955 264.635 357.482 264.77C358.016 264.904 358.528 264.972 359.021 264.972C359.782 264.972 360.368 264.852 360.778 264.611C361.188 264.365 361.394 263.993 361.394 263.495C361.394 263.12 361.229 262.801 360.901 262.537C360.579 262.268 359.946 261.951 359.003 261.588C358.106 261.254 357.468 260.964 357.087 260.718C356.712 260.466 356.431 260.182 356.243 259.865C356.062 259.549 355.971 259.171 355.971 258.731C355.971 257.946 356.29 257.328 356.929 256.877C357.567 256.42 358.443 256.191 359.557 256.191C360.594 256.191 361.607 256.402 362.598 256.824L362.079 258.011C361.112 257.612 360.236 257.413 359.451 257.413C358.76 257.413 358.238 257.521 357.887 257.738C357.535 257.955 357.359 258.254 357.359 258.635C357.359 258.893 357.424 259.112 357.553 259.294C357.688 259.476 357.901 259.648 358.194 259.812C358.487 259.977 359.05 260.214 359.882 260.524C361.024 260.94 361.795 261.359 362.193 261.781C362.598 262.203 362.8 262.733 362.8 263.372ZM366.641 266H365.182V256.367H366.641V266ZM365.059 253.757C365.059 253.423 365.141 253.18 365.305 253.027C365.469 252.869 365.674 252.79 365.92 252.79C366.154 252.79 366.356 252.869 366.526 253.027C366.696 253.186 366.781 253.429 366.781 253.757C366.781 254.085 366.696 254.331 366.526 254.495C366.356 254.653 366.154 254.732 365.92 254.732C365.674 254.732 365.469 254.653 365.305 254.495C365.141 254.331 365.059 254.085 365.059 253.757ZM372.846 264.972C373.104 264.972 373.353 264.954 373.593 264.919C373.833 264.878 374.023 264.837 374.164 264.796V265.912C374.006 265.988 373.771 266.05 373.461 266.097C373.156 266.149 372.881 266.176 372.635 266.176C370.771 266.176 369.84 265.194 369.84 263.231V257.501H368.46V256.798L369.84 256.191L370.455 254.135H371.299V256.367H374.094V257.501H371.299V263.17C371.299 263.75 371.437 264.195 371.712 264.506C371.987 264.816 372.365 264.972 372.846 264.972ZM384.843 266.176C383.419 266.176 382.294 265.742 381.468 264.875C380.647 264.008 380.237 262.804 380.237 261.263C380.237 259.71 380.618 258.477 381.38 257.562C382.147 256.648 383.176 256.191 384.465 256.191C385.672 256.191 386.627 256.59 387.33 257.387C388.033 258.178 388.385 259.224 388.385 260.524V261.447H381.749C381.778 262.578 382.062 263.437 382.602 264.022C383.146 264.608 383.911 264.901 384.896 264.901C385.933 264.901 386.958 264.685 387.972 264.251V265.552C387.456 265.774 386.967 265.933 386.504 266.026C386.047 266.126 385.493 266.176 384.843 266.176ZM384.447 257.413C383.674 257.413 383.056 257.665 382.593 258.169C382.136 258.673 381.866 259.37 381.784 260.261H386.82C386.82 259.341 386.615 258.638 386.205 258.151C385.795 257.659 385.209 257.413 384.447 257.413ZM396.805 266L396.515 264.629H396.444C395.964 265.232 395.483 265.643 395.003 265.859C394.528 266.07 393.934 266.176 393.219 266.176C392.264 266.176 391.514 265.93 390.969 265.438C390.43 264.945 390.16 264.245 390.16 263.337C390.16 261.392 391.716 260.372 394.827 260.278L396.462 260.226V259.628C396.462 258.872 396.298 258.315 395.97 257.958C395.647 257.595 395.129 257.413 394.414 257.413C393.611 257.413 392.703 257.659 391.689 258.151L391.241 257.035C391.716 256.777 392.234 256.575 392.797 256.429C393.365 256.282 393.934 256.209 394.502 256.209C395.65 256.209 396.5 256.464 397.051 256.974C397.607 257.483 397.886 258.301 397.886 259.426V266H396.805ZM393.509 264.972C394.417 264.972 395.129 264.723 395.645 264.225C396.166 263.727 396.427 263.029 396.427 262.133V261.263L394.968 261.324C393.808 261.365 392.97 261.547 392.454 261.869C391.944 262.186 391.689 262.681 391.689 263.354C391.689 263.882 391.848 264.283 392.164 264.559C392.486 264.834 392.935 264.972 393.509 264.972ZM404.75 266.176C403.355 266.176 402.274 265.748 401.507 264.893C400.745 264.031 400.364 262.815 400.364 261.245C400.364 259.634 400.751 258.389 401.524 257.51C402.304 256.631 403.411 256.191 404.847 256.191C405.31 256.191 405.772 256.241 406.235 256.341C406.698 256.44 407.062 256.558 407.325 256.692L406.877 257.932C406.555 257.803 406.203 257.697 405.822 257.615C405.441 257.527 405.104 257.483 404.812 257.483C402.854 257.483 401.876 258.731 401.876 261.228C401.876 262.411 402.113 263.319 402.588 263.952C403.068 264.585 403.777 264.901 404.715 264.901C405.518 264.901 406.341 264.729 407.185 264.383V265.675C406.54 266.009 405.729 266.176 404.75 266.176ZM416.07 266V259.769C416.07 258.983 415.892 258.397 415.534 258.011C415.177 257.624 414.617 257.431 413.855 257.431C412.842 257.431 412.101 257.706 411.632 258.257C411.169 258.808 410.938 259.71 410.938 260.964V266H409.479V252.324H410.938V256.464C410.938 256.962 410.914 257.375 410.867 257.703H410.955C411.242 257.24 411.649 256.877 412.177 256.613C412.71 256.344 413.316 256.209 413.996 256.209C415.174 256.209 416.056 256.49 416.642 257.053C417.233 257.609 417.529 258.497 417.529 259.716V266H416.07ZM51.5264 291L49.7598 285.349C49.6484 285.003 49.4404 284.218 49.1357 282.993H49.0654C48.8311 284.019 48.626 284.81 48.4502 285.366L46.6309 291H44.9434L42.3154 281.367H43.8447C44.4658 283.787 44.9375 285.63 45.2598 286.896C45.5879 288.161 45.7754 289.014 45.8223 289.453H45.8926C45.957 289.119 46.0596 288.688 46.2002 288.161C46.3467 287.628 46.4727 287.206 46.5781 286.896L48.3447 281.367H49.9268L51.6494 286.896C51.9775 287.903 52.2002 288.75 52.3174 289.436H52.3877C52.4111 289.225 52.4727 288.899 52.5723 288.46C52.6777 288.021 53.29 285.656 54.4092 281.367H55.9209L53.2578 291H51.5264ZM61.7393 291.176C60.3154 291.176 59.1904 290.742 58.3643 289.875C57.5439 289.008 57.1338 287.804 57.1338 286.263C57.1338 284.71 57.5146 283.477 58.2764 282.562C59.0439 281.648 60.0723 281.191 61.3613 281.191C62.5684 281.191 63.5234 281.59 64.2266 282.387C64.9297 283.178 65.2812 284.224 65.2812 285.524V286.447H58.6455C58.6748 287.578 58.959 288.437 59.498 289.022C60.043 289.608 60.8076 289.901 61.792 289.901C62.8291 289.901 63.8545 289.685 64.8682 289.251V290.552C64.3525 290.774 63.8633 290.933 63.4004 291.026C62.9434 291.126 62.3896 291.176 61.7393 291.176ZM61.3438 282.413C60.5703 282.413 59.9521 282.665 59.4893 283.169C59.0322 283.673 58.7627 284.37 58.6807 285.261H63.7168C63.7168 284.341 63.5117 283.638 63.1016 283.151C62.6914 282.659 62.1055 282.413 61.3438 282.413ZM72.2598 281.209C73.5254 281.209 74.5068 281.643 75.2041 282.51C75.9072 283.371 76.2588 284.593 76.2588 286.175C76.2588 287.757 75.9043 288.987 75.1953 289.866C74.4922 290.739 73.5137 291.176 72.2598 291.176C71.6328 291.176 71.0586 291.062 70.5371 290.833C70.0215 290.599 69.5879 290.241 69.2363 289.761H69.1309L68.8232 291H67.7773V277.324H69.2363V280.646C69.2363 281.391 69.2129 282.059 69.166 282.65H69.2363C69.916 281.689 70.9238 281.209 72.2598 281.209ZM72.0488 282.431C71.0527 282.431 70.335 282.718 69.8955 283.292C69.4561 283.86 69.2363 284.821 69.2363 286.175C69.2363 287.528 69.4619 288.498 69.9131 289.084C70.3643 289.664 71.0879 289.954 72.084 289.954C72.9805 289.954 73.6484 289.629 74.0879 288.979C74.5273 288.322 74.7471 287.382 74.7471 286.157C74.7471 284.903 74.5273 283.969 74.0879 283.354C73.6484 282.738 72.9688 282.431 72.0488 282.431ZM85.0303 288.372C85.0303 289.269 84.6963 289.96 84.0283 290.446C83.3604 290.933 82.4229 291.176 81.2158 291.176C79.9385 291.176 78.9424 290.974 78.2275 290.569V289.216C78.6904 289.45 79.1855 289.635 79.7129 289.77C80.2461 289.904 80.7588 289.972 81.251 289.972C82.0127 289.972 82.5986 289.852 83.0088 289.611C83.4189 289.365 83.624 288.993 83.624 288.495C83.624 288.12 83.46 287.801 83.1318 287.537C82.8096 287.268 82.1768 286.951 81.2334 286.588C80.3369 286.254 79.6982 285.964 79.3174 285.718C78.9424 285.466 78.6611 285.182 78.4736 284.865C78.292 284.549 78.2012 284.171 78.2012 283.731C78.2012 282.946 78.5205 282.328 79.1592 281.877C79.7979 281.42 80.6738 281.191 81.7871 281.191C82.8242 281.191 83.8379 281.402 84.8281 281.824L84.3096 283.011C83.3428 282.612 82.4668 282.413 81.6816 282.413C80.9902 282.413 80.4688 282.521 80.1172 282.738C79.7656 282.955 79.5898 283.254 79.5898 283.635C79.5898 283.893 79.6543 284.112 79.7832 284.294C79.918 284.476 80.1318 284.648 80.4248 284.812C80.7178 284.977 81.2803 285.214 82.1123 285.524C83.2549 285.94 84.0254 286.359 84.4238 286.781C84.8281 287.203 85.0303 287.733 85.0303 288.372ZM88.8711 291H87.4121V281.367H88.8711V291ZM87.2891 278.757C87.2891 278.423 87.3711 278.18 87.5352 278.027C87.6992 277.869 87.9043 277.79 88.1504 277.79C88.3848 277.79 88.5869 277.869 88.7568 278.027C88.9268 278.186 89.0117 278.429 89.0117 278.757C89.0117 279.085 88.9268 279.331 88.7568 279.495C88.5869 279.653 88.3848 279.732 88.1504 279.732C87.9043 279.732 87.6992 279.653 87.5352 279.495C87.3711 279.331 87.2891 279.085 87.2891 278.757ZM95.0762 289.972C95.334 289.972 95.583 289.954 95.8232 289.919C96.0635 289.878 96.2539 289.837 96.3945 289.796V290.912C96.2363 290.988 96.002 291.05 95.6914 291.097C95.3867 291.149 95.1113 291.176 94.8652 291.176C93.002 291.176 92.0703 290.194 92.0703 288.231V282.501H90.6904V281.798L92.0703 281.191L92.6855 279.135H93.5293V281.367H96.3242V282.501H93.5293V288.17C93.5293 288.75 93.667 289.195 93.9424 289.506C94.2178 289.816 94.5957 289.972 95.0762 289.972ZM102.397 291.176C100.974 291.176 99.8486 290.742 99.0225 289.875C98.2021 289.008 97.792 287.804 97.792 286.263C97.792 284.71 98.1729 283.477 98.9346 282.562C99.7021 281.648 100.73 281.191 102.02 281.191C103.227 281.191 104.182 281.59 104.885 282.387C105.588 283.178 105.939 284.224 105.939 285.524V286.447H99.3037C99.333 287.578 99.6172 288.437 100.156 289.022C100.701 289.608 101.466 289.901 102.45 289.901C103.487 289.901 104.513 289.685 105.526 289.251V290.552C105.011 290.774 104.521 290.933 104.059 291.026C103.602 291.126 103.048 291.176 102.397 291.176ZM102.002 282.413C101.229 282.413 100.61 282.665 100.147 283.169C99.6904 283.673 99.4209 284.37 99.3389 285.261H104.375C104.375 284.341 104.17 283.638 103.76 283.151C103.35 282.659 102.764 282.413 102.002 282.413ZM119.035 291L118.745 289.629H118.675C118.194 290.232 117.714 290.643 117.233 290.859C116.759 291.07 116.164 291.176 115.449 291.176C114.494 291.176 113.744 290.93 113.199 290.438C112.66 289.945 112.391 289.245 112.391 288.337C112.391 286.392 113.946 285.372 117.058 285.278L118.692 285.226V284.628C118.692 283.872 118.528 283.315 118.2 282.958C117.878 282.595 117.359 282.413 116.645 282.413C115.842 282.413 114.934 282.659 113.92 283.151L113.472 282.035C113.946 281.777 114.465 281.575 115.027 281.429C115.596 281.282 116.164 281.209 116.732 281.209C117.881 281.209 118.73 281.464 119.281 281.974C119.838 282.483 120.116 283.301 120.116 284.426V291H119.035ZM115.739 289.972C116.647 289.972 117.359 289.723 117.875 289.225C118.396 288.727 118.657 288.029 118.657 287.133V286.263L117.198 286.324C116.038 286.365 115.2 286.547 114.685 286.869C114.175 287.186 113.92 287.681 113.92 288.354C113.92 288.882 114.078 289.283 114.395 289.559C114.717 289.834 115.165 289.972 115.739 289.972ZM129.723 291V284.769C129.723 283.983 129.544 283.397 129.187 283.011C128.829 282.624 128.27 282.431 127.508 282.431C126.5 282.431 125.762 282.703 125.293 283.248C124.824 283.793 124.59 284.692 124.59 285.946V291H123.131V281.367H124.317L124.555 282.686H124.625C124.924 282.211 125.343 281.845 125.882 281.587C126.421 281.323 127.021 281.191 127.684 281.191C128.844 281.191 129.717 281.473 130.303 282.035C130.889 282.592 131.182 283.485 131.182 284.716V291H129.723ZM140.744 289.708H140.665C139.991 290.687 138.983 291.176 137.642 291.176C136.382 291.176 135.4 290.745 134.697 289.884C134 289.022 133.651 287.798 133.651 286.21C133.651 284.622 134.003 283.389 134.706 282.51C135.409 281.631 136.388 281.191 137.642 281.191C138.948 281.191 139.95 281.666 140.647 282.615H140.762L140.7 281.921L140.665 281.244V277.324H142.124V291H140.938L140.744 289.708ZM137.826 289.954C138.822 289.954 139.543 289.685 139.988 289.146C140.439 288.601 140.665 287.725 140.665 286.518V286.21C140.665 284.845 140.437 283.872 139.979 283.292C139.528 282.706 138.805 282.413 137.809 282.413C136.953 282.413 136.297 282.747 135.84 283.415C135.389 284.077 135.163 285.015 135.163 286.228C135.163 287.458 135.389 288.387 135.84 289.014C136.291 289.641 136.953 289.954 137.826 289.954ZM151.361 291H149.902V281.367H151.361V291ZM149.779 278.757C149.779 278.423 149.861 278.18 150.025 278.027C150.189 277.869 150.395 277.79 150.641 277.79C150.875 277.79 151.077 277.869 151.247 278.027C151.417 278.186 151.502 278.429 151.502 278.757C151.502 279.085 151.417 279.331 151.247 279.495C151.077 279.653 150.875 279.732 150.641 279.732C150.395 279.732 150.189 279.653 150.025 279.495C149.861 279.331 149.779 279.085 149.779 278.757ZM161.012 289.708H160.933C160.259 290.687 159.251 291.176 157.909 291.176C156.649 291.176 155.668 290.745 154.965 289.884C154.268 289.022 153.919 287.798 153.919 286.21C153.919 284.622 154.271 283.389 154.974 282.51C155.677 281.631 156.655 281.191 157.909 281.191C159.216 281.191 160.218 281.666 160.915 282.615H161.029L160.968 281.921L160.933 281.244V277.324H162.392V291H161.205L161.012 289.708ZM158.094 289.954C159.09 289.954 159.811 289.685 160.256 289.146C160.707 288.601 160.933 287.725 160.933 286.518V286.21C160.933 284.845 160.704 283.872 160.247 283.292C159.796 282.706 159.072 282.413 158.076 282.413C157.221 282.413 156.564 282.747 156.107 283.415C155.656 284.077 155.431 285.015 155.431 286.228C155.431 287.458 155.656 288.387 156.107 289.014C156.559 289.641 157.221 289.954 158.094 289.954ZM169.563 291.176C168.14 291.176 167.015 290.742 166.188 289.875C165.368 289.008 164.958 287.804 164.958 286.263C164.958 284.71 165.339 283.477 166.101 282.562C166.868 281.648 167.896 281.191 169.186 281.191C170.393 281.191 171.348 281.59 172.051 282.387C172.754 283.178 173.105 284.224 173.105 285.524V286.447H166.47C166.499 287.578 166.783 288.437 167.322 289.022C167.867 289.608 168.632 289.901 169.616 289.901C170.653 289.901 171.679 289.685 172.692 289.251V290.552C172.177 290.774 171.688 290.933 171.225 291.026C170.768 291.126 170.214 291.176 169.563 291.176ZM169.168 282.413C168.395 282.413 167.776 282.665 167.313 283.169C166.856 283.673 166.587 284.37 166.505 285.261H171.541C171.541 284.341 171.336 283.638 170.926 283.151C170.516 282.659 169.93 282.413 169.168 282.413ZM182.193 291V284.769C182.193 283.983 182.015 283.397 181.657 283.011C181.3 282.624 180.74 282.431 179.979 282.431C178.971 282.431 178.232 282.703 177.764 283.248C177.295 283.793 177.061 284.692 177.061 285.946V291H175.602V281.367H176.788L177.025 282.686H177.096C177.395 282.211 177.813 281.845 178.353 281.587C178.892 281.323 179.492 281.191 180.154 281.191C181.314 281.191 182.188 281.473 182.773 282.035C183.359 282.592 183.652 283.485 183.652 284.716V291H182.193ZM189.77 289.972C190.027 289.972 190.276 289.954 190.517 289.919C190.757 289.878 190.947 289.837 191.088 289.796V290.912C190.93 290.988 190.695 291.05 190.385 291.097C190.08 291.149 189.805 291.176 189.559 291.176C187.695 291.176 186.764 290.194 186.764 288.231V282.501H185.384V281.798L186.764 281.191L187.379 279.135H188.223V281.367H191.018V282.501H188.223V288.17C188.223 288.75 188.36 289.195 188.636 289.506C188.911 289.816 189.289 289.972 189.77 289.972ZM194.48 291H193.021V281.367H194.48V291ZM192.898 278.757C192.898 278.423 192.98 278.18 193.145 278.027C193.309 277.869 193.514 277.79 193.76 277.79C193.994 277.79 194.196 277.869 194.366 278.027C194.536 278.186 194.621 278.429 194.621 278.757C194.621 279.085 194.536 279.331 194.366 279.495C194.196 279.653 193.994 279.732 193.76 279.732C193.514 279.732 193.309 279.653 193.145 279.495C192.98 279.331 192.898 279.085 192.898 278.757ZM201.916 282.501H199.464V291H198.005V282.501H196.282V281.842L198.005 281.314V280.778C198.005 278.411 199.039 277.228 201.107 277.228C201.617 277.228 202.215 277.33 202.9 277.535L202.522 278.704C201.96 278.522 201.479 278.432 201.081 278.432C200.53 278.432 200.123 278.616 199.859 278.985C199.596 279.349 199.464 279.935 199.464 280.743V281.367H201.916V282.501ZM202.145 281.367H203.709L205.818 286.86C206.281 288.114 206.568 289.02 206.68 289.576H206.75C206.826 289.277 206.984 288.768 207.225 288.047C207.471 287.32 208.268 285.094 209.615 281.367H211.18L207.04 292.336C206.63 293.42 206.149 294.188 205.599 294.639C205.054 295.096 204.383 295.324 203.586 295.324C203.141 295.324 202.701 295.274 202.268 295.175V294.006C202.59 294.076 202.95 294.111 203.349 294.111C204.351 294.111 205.065 293.549 205.493 292.424L206.029 291.053L202.145 281.367ZM220.531 289.972C220.789 289.972 221.038 289.954 221.278 289.919C221.519 289.878 221.709 289.837 221.85 289.796V290.912C221.691 290.988 221.457 291.05 221.146 291.097C220.842 291.149 220.566 291.176 220.32 291.176C218.457 291.176 217.525 290.194 217.525 288.231V282.501H216.146V281.798L217.525 281.191L218.141 279.135H218.984V281.367H221.779V282.501H218.984V288.17C218.984 288.75 219.122 289.195 219.397 289.506C219.673 289.816 220.051 289.972 220.531 289.972ZM230.375 291V284.769C230.375 283.983 230.196 283.397 229.839 283.011C229.481 282.624 228.922 282.431 228.16 282.431C227.146 282.431 226.405 282.706 225.937 283.257C225.474 283.808 225.242 284.71 225.242 285.964V291H223.783V277.324H225.242V281.464C225.242 281.962 225.219 282.375 225.172 282.703H225.26C225.547 282.24 225.954 281.877 226.481 281.613C227.015 281.344 227.621 281.209 228.301 281.209C229.479 281.209 230.36 281.49 230.946 282.053C231.538 282.609 231.834 283.497 231.834 284.716V291H230.375ZM238.909 291.176C237.485 291.176 236.36 290.742 235.534 289.875C234.714 289.008 234.304 287.804 234.304 286.263C234.304 284.71 234.685 283.477 235.446 282.562C236.214 281.648 237.242 281.191 238.531 281.191C239.738 281.191 240.693 281.59 241.396 282.387C242.1 283.178 242.451 284.224 242.451 285.524V286.447H235.815C235.845 287.578 236.129 288.437 236.668 289.022C237.213 289.608 237.978 289.901 238.962 289.901C239.999 289.901 241.024 289.685 242.038 289.251V290.552C241.522 290.774 241.033 290.933 240.57 291.026C240.113 291.126 239.56 291.176 238.909 291.176ZM238.514 282.413C237.74 282.413 237.122 282.665 236.659 283.169C236.202 283.673 235.933 284.37 235.851 285.261H240.887C240.887 284.341 240.682 283.638 240.271 283.151C239.861 282.659 239.275 282.413 238.514 282.413ZM254.105 281.209C255.371 281.209 256.353 281.643 257.05 282.51C257.753 283.371 258.104 284.593 258.104 286.175C258.104 287.757 257.75 288.987 257.041 289.866C256.338 290.739 255.359 291.176 254.105 291.176C253.479 291.176 252.904 291.062 252.383 290.833C251.867 290.599 251.434 290.241 251.082 289.761H250.977L250.669 291H249.623V277.324H251.082V280.646C251.082 281.391 251.059 282.059 251.012 282.65H251.082C251.762 281.689 252.77 281.209 254.105 281.209ZM253.895 282.431C252.898 282.431 252.181 282.718 251.741 283.292C251.302 283.86 251.082 284.821 251.082 286.175C251.082 287.528 251.308 288.498 251.759 289.084C252.21 289.664 252.934 289.954 253.93 289.954C254.826 289.954 255.494 289.629 255.934 288.979C256.373 288.322 256.593 287.382 256.593 286.157C256.593 284.903 256.373 283.969 255.934 283.354C255.494 282.738 254.814 282.431 253.895 282.431ZM264.731 291.176C263.308 291.176 262.183 290.742 261.356 289.875C260.536 289.008 260.126 287.804 260.126 286.263C260.126 284.71 260.507 283.477 261.269 282.562C262.036 281.648 263.064 281.191 264.354 281.191C265.561 281.191 266.516 281.59 267.219 282.387C267.922 283.178 268.273 284.224 268.273 285.524V286.447H261.638C261.667 287.578 261.951 288.437 262.49 289.022C263.035 289.608 263.8 289.901 264.784 289.901C265.821 289.901 266.847 289.685 267.86 289.251V290.552C267.345 290.774 266.855 290.933 266.393 291.026C265.936 291.126 265.382 291.176 264.731 291.176ZM264.336 282.413C263.562 282.413 262.944 282.665 262.481 283.169C262.024 283.673 261.755 284.37 261.673 285.261H266.709C266.709 284.341 266.504 283.638 266.094 283.151C265.684 282.659 265.098 282.413 264.336 282.413ZM276.983 288.372C276.983 289.269 276.649 289.96 275.981 290.446C275.313 290.933 274.376 291.176 273.169 291.176C271.892 291.176 270.896 290.974 270.181 290.569V289.216C270.644 289.45 271.139 289.635 271.666 289.77C272.199 289.904 272.712 289.972 273.204 289.972C273.966 289.972 274.552 289.852 274.962 289.611C275.372 289.365 275.577 288.993 275.577 288.495C275.577 288.12 275.413 287.801 275.085 287.537C274.763 287.268 274.13 286.951 273.187 286.588C272.29 286.254 271.651 285.964 271.271 285.718C270.896 285.466 270.614 285.182 270.427 284.865C270.245 284.549 270.154 284.171 270.154 283.731C270.154 282.946 270.474 282.328 271.112 281.877C271.751 281.42 272.627 281.191 273.74 281.191C274.777 281.191 275.791 281.402 276.781 281.824L276.263 283.011C275.296 282.612 274.42 282.413 273.635 282.413C272.943 282.413 272.422 282.521 272.07 282.738C271.719 282.955 271.543 283.254 271.543 283.635C271.543 283.893 271.607 284.112 271.736 284.294C271.871 284.476 272.085 284.648 272.378 284.812C272.671 284.977 273.233 285.214 274.065 285.524C275.208 285.94 275.979 286.359 276.377 286.781C276.781 287.203 276.983 287.733 276.983 288.372ZM282.477 289.972C282.734 289.972 282.983 289.954 283.224 289.919C283.464 289.878 283.654 289.837 283.795 289.796V290.912C283.637 290.988 283.402 291.05 283.092 291.097C282.787 291.149 282.512 291.176 282.266 291.176C280.402 291.176 279.471 290.194 279.471 288.231V282.501H278.091V281.798L279.471 281.191L280.086 279.135H280.93V281.367H283.725V282.501H280.93V288.17C280.93 288.75 281.067 289.195 281.343 289.506C281.618 289.816 281.996 289.972 282.477 289.972ZM302.683 291V284.733C302.683 283.966 302.519 283.392 302.19 283.011C301.862 282.624 301.353 282.431 300.661 282.431C299.753 282.431 299.082 282.691 298.648 283.213C298.215 283.734 297.998 284.537 297.998 285.621V291H296.539V284.733C296.539 283.966 296.375 283.392 296.047 283.011C295.719 282.624 295.206 282.431 294.509 282.431C293.595 282.431 292.924 282.706 292.496 283.257C292.074 283.802 291.863 284.698 291.863 285.946V291H290.404V281.367H291.591L291.828 282.686H291.898C292.174 282.217 292.561 281.851 293.059 281.587C293.562 281.323 294.125 281.191 294.746 281.191C296.252 281.191 297.236 281.736 297.699 282.826H297.77C298.057 282.322 298.473 281.924 299.018 281.631C299.562 281.338 300.184 281.191 300.881 281.191C301.971 281.191 302.785 281.473 303.324 282.035C303.869 282.592 304.142 283.485 304.142 284.716V291H302.683ZM311.226 291.176C309.802 291.176 308.677 290.742 307.851 289.875C307.03 289.008 306.62 287.804 306.62 286.263C306.62 284.71 307.001 283.477 307.763 282.562C308.53 281.648 309.559 281.191 310.848 281.191C312.055 281.191 313.01 281.59 313.713 282.387C314.416 283.178 314.768 284.224 314.768 285.524V286.447H308.132C308.161 287.578 308.445 288.437 308.984 289.022C309.529 289.608 310.294 289.901 311.278 289.901C312.315 289.901 313.341 289.685 314.354 289.251V290.552C313.839 290.774 313.35 290.933 312.887 291.026C312.43 291.126 311.876 291.176 311.226 291.176ZM310.83 282.413C310.057 282.413 309.438 282.665 308.976 283.169C308.519 283.673 308.249 284.37 308.167 285.261H313.203C313.203 284.341 312.998 283.638 312.588 283.151C312.178 282.659 311.592 282.413 310.83 282.413ZM323.188 291L322.897 289.629H322.827C322.347 290.232 321.866 290.643 321.386 290.859C320.911 291.07 320.316 291.176 319.602 291.176C318.646 291.176 317.896 290.93 317.352 290.438C316.812 289.945 316.543 289.245 316.543 288.337C316.543 286.392 318.099 285.372 321.21 285.278L322.845 285.226V284.628C322.845 283.872 322.681 283.315 322.353 282.958C322.03 282.595 321.512 282.413 320.797 282.413C319.994 282.413 319.086 282.659 318.072 283.151L317.624 282.035C318.099 281.777 318.617 281.575 319.18 281.429C319.748 281.282 320.316 281.209 320.885 281.209C322.033 281.209 322.883 281.464 323.434 281.974C323.99 282.483 324.269 283.301 324.269 284.426V291H323.188ZM319.892 289.972C320.8 289.972 321.512 289.723 322.027 289.225C322.549 288.727 322.81 288.029 322.81 287.133V286.263L321.351 286.324C320.19 286.365 319.353 286.547 318.837 286.869C318.327 287.186 318.072 287.681 318.072 288.354C318.072 288.882 318.23 289.283 318.547 289.559C318.869 289.834 319.317 289.972 319.892 289.972ZM333.875 291V284.769C333.875 283.983 333.696 283.397 333.339 283.011C332.981 282.624 332.422 282.431 331.66 282.431C330.652 282.431 329.914 282.703 329.445 283.248C328.977 283.793 328.742 284.692 328.742 285.946V291H327.283V281.367H328.47L328.707 282.686H328.777C329.076 282.211 329.495 281.845 330.034 281.587C330.573 281.323 331.174 281.191 331.836 281.191C332.996 281.191 333.869 281.473 334.455 282.035C335.041 282.592 335.334 283.485 335.334 284.716V291H333.875ZM344.554 288.372C344.554 289.269 344.22 289.96 343.552 290.446C342.884 290.933 341.946 291.176 340.739 291.176C339.462 291.176 338.466 290.974 337.751 290.569V289.216C338.214 289.45 338.709 289.635 339.236 289.77C339.77 289.904 340.282 289.972 340.774 289.972C341.536 289.972 342.122 289.852 342.532 289.611C342.942 289.365 343.147 288.993 343.147 288.495C343.147 288.12 342.983 287.801 342.655 287.537C342.333 287.268 341.7 286.951 340.757 286.588C339.86 286.254 339.222 285.964 338.841 285.718C338.466 285.466 338.185 285.182 337.997 284.865C337.815 284.549 337.725 284.171 337.725 283.731C337.725 282.946 338.044 282.328 338.683 281.877C339.321 281.42 340.197 281.191 341.311 281.191C342.348 281.191 343.361 281.402 344.352 281.824L343.833 283.011C342.866 282.612 341.99 282.413 341.205 282.413C340.514 282.413 339.992 282.521 339.641 282.738C339.289 282.955 339.113 283.254 339.113 283.635C339.113 283.893 339.178 284.112 339.307 284.294C339.441 284.476 339.655 284.648 339.948 284.812C340.241 284.977 340.804 285.214 341.636 285.524C342.778 285.94 343.549 286.359 343.947 286.781C344.352 287.203 344.554 287.733 344.554 288.372ZM359.926 286.175C359.926 287.745 359.53 288.973 358.739 289.857C357.948 290.736 356.855 291.176 355.461 291.176C354.6 291.176 353.835 290.974 353.167 290.569C352.499 290.165 351.983 289.585 351.62 288.829C351.257 288.073 351.075 287.188 351.075 286.175C351.075 284.604 351.468 283.383 352.253 282.51C353.038 281.631 354.128 281.191 355.522 281.191C356.87 281.191 357.939 281.64 358.73 282.536C359.527 283.433 359.926 284.646 359.926 286.175ZM352.587 286.175C352.587 287.405 352.833 288.343 353.325 288.987C353.817 289.632 354.541 289.954 355.496 289.954C356.451 289.954 357.175 289.635 357.667 288.996C358.165 288.352 358.414 287.411 358.414 286.175C358.414 284.95 358.165 284.021 357.667 283.389C357.175 282.75 356.445 282.431 355.479 282.431C354.523 282.431 353.803 282.744 353.316 283.371C352.83 283.998 352.587 284.933 352.587 286.175ZM366.834 282.501H364.382V291H362.923V282.501H361.2V281.842L362.923 281.314V280.778C362.923 278.411 363.957 277.228 366.025 277.228C366.535 277.228 367.133 277.33 367.818 277.535L367.44 278.704C366.878 278.522 366.397 278.432 365.999 278.432C365.448 278.432 365.041 278.616 364.777 278.985C364.514 279.349 364.382 279.935 364.382 280.743V281.367H366.834V282.501ZM381.151 281.367V282.29L379.367 282.501C379.531 282.706 379.678 282.976 379.807 283.31C379.936 283.638 380 284.01 380 284.426C380 285.369 379.678 286.122 379.033 286.685C378.389 287.247 377.504 287.528 376.379 287.528C376.092 287.528 375.822 287.505 375.57 287.458C374.949 287.786 374.639 288.199 374.639 288.697C374.639 288.961 374.747 289.157 374.964 289.286C375.181 289.409 375.553 289.471 376.08 289.471H377.785C378.828 289.471 379.628 289.69 380.185 290.13C380.747 290.569 381.028 291.208 381.028 292.046C381.028 293.112 380.601 293.924 379.745 294.48C378.89 295.043 377.642 295.324 376.001 295.324C374.741 295.324 373.769 295.09 373.083 294.621C372.403 294.152 372.063 293.49 372.063 292.635C372.063 292.049 372.251 291.542 372.626 291.114C373.001 290.687 373.528 290.396 374.208 290.244C373.962 290.133 373.754 289.96 373.584 289.726C373.42 289.491 373.338 289.219 373.338 288.908C373.338 288.557 373.432 288.249 373.619 287.985C373.807 287.722 374.103 287.467 374.507 287.221C374.009 287.016 373.602 286.667 373.285 286.175C372.975 285.683 372.819 285.12 372.819 284.487C372.819 283.433 373.136 282.621 373.769 282.053C374.401 281.479 375.298 281.191 376.458 281.191C376.962 281.191 377.416 281.25 377.82 281.367H381.151ZM373.47 292.617C373.47 293.139 373.689 293.534 374.129 293.804C374.568 294.073 375.198 294.208 376.019 294.208C377.243 294.208 378.148 294.023 378.734 293.654C379.326 293.291 379.622 292.796 379.622 292.169C379.622 291.647 379.461 291.284 379.139 291.079C378.816 290.88 378.21 290.78 377.319 290.78H375.57C374.908 290.78 374.393 290.938 374.023 291.255C373.654 291.571 373.47 292.025 373.47 292.617ZM374.261 284.452C374.261 285.126 374.451 285.636 374.832 285.981C375.213 286.327 375.743 286.5 376.423 286.5C377.847 286.5 378.559 285.809 378.559 284.426C378.559 282.979 377.838 282.255 376.396 282.255C375.711 282.255 375.184 282.439 374.814 282.809C374.445 283.178 374.261 283.726 374.261 284.452ZM387.198 291.176C385.774 291.176 384.649 290.742 383.823 289.875C383.003 289.008 382.593 287.804 382.593 286.263C382.593 284.71 382.974 283.477 383.735 282.562C384.503 281.648 385.531 281.191 386.82 281.191C388.027 281.191 388.982 281.59 389.686 282.387C390.389 283.178 390.74 284.224 390.74 285.524V286.447H384.104C384.134 287.578 384.418 288.437 384.957 289.022C385.502 289.608 386.267 289.901 387.251 289.901C388.288 289.901 389.313 289.685 390.327 289.251V290.552C389.812 290.774 389.322 290.933 388.859 291.026C388.402 291.126 387.849 291.176 387.198 291.176ZM386.803 282.413C386.029 282.413 385.411 282.665 384.948 283.169C384.491 283.673 384.222 284.37 384.14 285.261H389.176C389.176 284.341 388.971 283.638 388.561 283.151C388.15 282.659 387.564 282.413 386.803 282.413ZM396.348 289.972C396.605 289.972 396.854 289.954 397.095 289.919C397.335 289.878 397.525 289.837 397.666 289.796V290.912C397.508 290.988 397.273 291.05 396.963 291.097C396.658 291.149 396.383 291.176 396.137 291.176C394.273 291.176 393.342 290.194 393.342 288.231V282.501H391.962V281.798L393.342 281.191L393.957 279.135H394.801V281.367H397.596V282.501H394.801V288.17C394.801 288.75 394.938 289.195 395.214 289.506C395.489 289.816 395.867 289.972 396.348 289.972ZM402.711 289.972C402.969 289.972 403.218 289.954 403.458 289.919C403.698 289.878 403.889 289.837 404.029 289.796V290.912C403.871 290.988 403.637 291.05 403.326 291.097C403.021 291.149 402.746 291.176 402.5 291.176C400.637 291.176 399.705 290.194 399.705 288.231V282.501H398.325V281.798L399.705 281.191L400.32 279.135H401.164V281.367H403.959V282.501H401.164V288.17C401.164 288.75 401.302 289.195 401.577 289.506C401.853 289.816 402.23 289.972 402.711 289.972ZM407.422 291H405.963V281.367H407.422V291ZM405.84 278.757C405.84 278.423 405.922 278.18 406.086 278.027C406.25 277.869 406.455 277.79 406.701 277.79C406.936 277.79 407.138 277.869 407.308 278.027C407.478 278.186 407.562 278.429 407.562 278.757C407.562 279.085 407.478 279.331 407.308 279.495C407.138 279.653 406.936 279.732 406.701 279.732C406.455 279.732 406.25 279.653 406.086 279.495C405.922 279.331 405.84 279.085 405.84 278.757ZM417.107 291V284.769C417.107 283.983 416.929 283.397 416.571 283.011C416.214 282.624 415.654 282.431 414.893 282.431C413.885 282.431 413.146 282.703 412.678 283.248C412.209 283.793 411.975 284.692 411.975 285.946V291H410.516V281.367H411.702L411.939 282.686H412.01C412.309 282.211 412.728 281.845 413.267 281.587C413.806 281.323 414.406 281.191 415.068 281.191C416.229 281.191 417.102 281.473 417.688 282.035C418.273 282.592 418.566 283.485 418.566 284.716V291H417.107ZM429.456 281.367V282.29L427.672 282.501C427.836 282.706 427.982 282.976 428.111 283.31C428.24 283.638 428.305 284.01 428.305 284.426C428.305 285.369 427.982 286.122 427.338 286.685C426.693 287.247 425.809 287.528 424.684 287.528C424.396 287.528 424.127 287.505 423.875 287.458C423.254 287.786 422.943 288.199 422.943 288.697C422.943 288.961 423.052 289.157 423.269 289.286C423.485 289.409 423.857 289.471 424.385 289.471H426.09C427.133 289.471 427.933 289.69 428.489 290.13C429.052 290.569 429.333 291.208 429.333 292.046C429.333 293.112 428.905 293.924 428.05 294.48C427.194 295.043 425.946 295.324 424.306 295.324C423.046 295.324 422.073 295.09 421.388 294.621C420.708 294.152 420.368 293.49 420.368 292.635C420.368 292.049 420.556 291.542 420.931 291.114C421.306 290.687 421.833 290.396 422.513 290.244C422.267 290.133 422.059 289.96 421.889 289.726C421.725 289.491 421.643 289.219 421.643 288.908C421.643 288.557 421.736 288.249 421.924 287.985C422.111 287.722 422.407 287.467 422.812 287.221C422.313 287.016 421.906 286.667 421.59 286.175C421.279 285.683 421.124 285.12 421.124 284.487C421.124 283.433 421.44 282.621 422.073 282.053C422.706 281.479 423.603 281.191 424.763 281.191C425.267 281.191 425.721 281.25 426.125 281.367H429.456ZM421.774 292.617C421.774 293.139 421.994 293.534 422.434 293.804C422.873 294.073 423.503 294.208 424.323 294.208C425.548 294.208 426.453 294.023 427.039 293.654C427.631 293.291 427.927 292.796 427.927 292.169C427.927 291.647 427.766 291.284 427.443 291.079C427.121 290.88 426.515 290.78 425.624 290.78H423.875C423.213 290.78 422.697 290.938 422.328 291.255C421.959 291.571 421.774 292.025 421.774 292.617ZM422.565 284.452C422.565 285.126 422.756 285.636 423.137 285.981C423.518 286.327 424.048 286.5 424.728 286.5C426.151 286.5 426.863 285.809 426.863 284.426C426.863 282.979 426.143 282.255 424.701 282.255C424.016 282.255 423.488 282.439 423.119 282.809C422.75 283.178 422.565 283.726 422.565 284.452ZM40.6631 316H39.2041V306.367H40.6631V316ZM39.0811 303.757C39.0811 303.423 39.1631 303.18 39.3271 303.027C39.4912 302.869 39.6963 302.79 39.9424 302.79C40.1768 302.79 40.3789 302.869 40.5488 303.027C40.7188 303.186 40.8037 303.429 40.8037 303.757C40.8037 304.085 40.7188 304.331 40.5488 304.495C40.3789 304.653 40.1768 304.732 39.9424 304.732C39.6963 304.732 39.4912 304.653 39.3271 304.495C39.1631 304.331 39.0811 304.085 39.0811 303.757ZM50.3486 316V309.769C50.3486 308.983 50.1699 308.397 49.8125 308.011C49.4551 307.624 48.8955 307.431 48.1338 307.431C47.126 307.431 46.3877 307.703 45.9189 308.248C45.4502 308.793 45.2158 309.692 45.2158 310.946V316H43.7568V306.367H44.9434L45.1807 307.686H45.251C45.5498 307.211 45.9688 306.845 46.5078 306.587C47.0469 306.323 47.6475 306.191 48.3096 306.191C49.4697 306.191 50.3428 306.473 50.9287 307.035C51.5146 307.592 51.8076 308.485 51.8076 309.716V316H50.3486ZM62.6006 314.972C62.8584 314.972 63.1074 314.954 63.3477 314.919C63.5879 314.878 63.7783 314.837 63.9189 314.796V315.912C63.7607 315.988 63.5264 316.05 63.2158 316.097C62.9111 316.149 62.6357 316.176 62.3896 316.176C60.5264 316.176 59.5947 315.194 59.5947 313.231V307.501H58.2148V306.798L59.5947 306.191L60.21 304.135H61.0537V306.367H63.8486V307.501H61.0537V313.17C61.0537 313.75 61.1914 314.195 61.4668 314.506C61.7422 314.816 62.1201 314.972 62.6006 314.972ZM74.167 311.175C74.167 312.745 73.7715 313.973 72.9805 314.857C72.1895 315.736 71.0967 316.176 69.7021 316.176C68.8408 316.176 68.0762 315.974 67.4082 315.569C66.7402 315.165 66.2246 314.585 65.8613 313.829C65.498 313.073 65.3164 312.188 65.3164 311.175C65.3164 309.604 65.709 308.383 66.4941 307.51C67.2793 306.631 68.3691 306.191 69.7637 306.191C71.1113 306.191 72.1807 306.64 72.9717 307.536C73.7686 308.433 74.167 309.646 74.167 311.175ZM66.8281 311.175C66.8281 312.405 67.0742 313.343 67.5664 313.987C68.0586 314.632 68.7822 314.954 69.7373 314.954C70.6924 314.954 71.416 314.635 71.9082 313.996C72.4062 313.352 72.6553 312.411 72.6553 311.175C72.6553 309.95 72.4062 309.021 71.9082 308.389C71.416 307.75 70.6865 307.431 69.7197 307.431C68.7646 307.431 68.0439 307.744 67.5576 308.371C67.0713 308.998 66.8281 309.933 66.8281 311.175ZM78.1045 306.367V312.616C78.1045 313.401 78.2832 313.987 78.6406 314.374C78.998 314.761 79.5576 314.954 80.3193 314.954C81.3271 314.954 82.0625 314.679 82.5254 314.128C82.9941 313.577 83.2285 312.678 83.2285 311.43V306.367H84.6875V316H83.4834L83.2725 314.708H83.1934C82.8945 315.183 82.4785 315.546 81.9453 315.798C81.418 316.05 80.8145 316.176 80.1348 316.176C78.9629 316.176 78.084 315.897 77.498 315.341C76.918 314.784 76.6279 313.894 76.6279 312.669V306.367H78.1045ZM91.6396 316.176C90.2451 316.176 89.1641 315.748 88.3965 314.893C87.6348 314.031 87.2539 312.815 87.2539 311.245C87.2539 309.634 87.6406 308.389 88.4141 307.51C89.1934 306.631 90.3008 306.191 91.7363 306.191C92.1992 306.191 92.6621 306.241 93.125 306.341C93.5879 306.44 93.9512 306.558 94.2148 306.692L93.7666 307.932C93.4443 307.803 93.0928 307.697 92.7119 307.615C92.3311 307.527 91.9941 307.483 91.7012 307.483C89.7441 307.483 88.7656 308.731 88.7656 311.228C88.7656 312.411 89.0029 313.319 89.4775 313.952C89.958 314.585 90.667 314.901 91.6045 314.901C92.4072 314.901 93.2305 314.729 94.0742 314.383V315.675C93.4297 316.009 92.6182 316.176 91.6396 316.176ZM102.96 316V309.769C102.96 308.983 102.781 308.397 102.424 308.011C102.066 307.624 101.507 307.431 100.745 307.431C99.7314 307.431 98.9902 307.706 98.5215 308.257C98.0586 308.808 97.8271 309.71 97.8271 310.964V316H96.3682V302.324H97.8271V306.464C97.8271 306.962 97.8037 307.375 97.7568 307.703H97.8447C98.1318 307.24 98.5391 306.877 99.0664 306.613C99.5996 306.344 100.206 306.209 100.886 306.209C102.063 306.209 102.945 306.49 103.531 307.053C104.123 307.609 104.419 308.497 104.419 309.716V316H102.96ZM119.967 316L118.2 310.349C118.089 310.003 117.881 309.218 117.576 307.993H117.506C117.271 309.019 117.066 309.81 116.891 310.366L115.071 316H113.384L110.756 306.367H112.285C112.906 308.787 113.378 310.63 113.7 311.896C114.028 313.161 114.216 314.014 114.263 314.453H114.333C114.397 314.119 114.5 313.688 114.641 313.161C114.787 312.628 114.913 312.206 115.019 311.896L116.785 306.367H118.367L120.09 311.896C120.418 312.903 120.641 313.75 120.758 314.436H120.828C120.852 314.225 120.913 313.899 121.013 313.46C121.118 313.021 121.73 310.656 122.85 306.367H124.361L121.698 316H119.967ZM127.569 316H126.11V306.367H127.569V316ZM125.987 303.757C125.987 303.423 126.069 303.18 126.233 303.027C126.397 302.869 126.603 302.79 126.849 302.79C127.083 302.79 127.285 302.869 127.455 303.027C127.625 303.186 127.71 303.429 127.71 303.757C127.71 304.085 127.625 304.331 127.455 304.495C127.285 304.653 127.083 304.732 126.849 304.732C126.603 304.732 126.397 304.653 126.233 304.495C126.069 304.331 125.987 304.085 125.987 303.757ZM133.774 314.972C134.032 314.972 134.281 314.954 134.521 314.919C134.762 314.878 134.952 314.837 135.093 314.796V315.912C134.935 315.988 134.7 316.05 134.39 316.097C134.085 316.149 133.81 316.176 133.563 316.176C131.7 316.176 130.769 315.194 130.769 313.231V307.501H129.389V306.798L130.769 306.191L131.384 304.135H132.228V306.367H135.022V307.501H132.228V313.17C132.228 313.75 132.365 314.195 132.641 314.506C132.916 314.816 133.294 314.972 133.774 314.972ZM143.618 316V309.769C143.618 308.983 143.439 308.397 143.082 308.011C142.725 307.624 142.165 307.431 141.403 307.431C140.39 307.431 139.648 307.706 139.18 308.257C138.717 308.808 138.485 309.71 138.485 310.964V316H137.026V302.324H138.485V306.464C138.485 306.962 138.462 307.375 138.415 307.703H138.503C138.79 307.24 139.197 306.877 139.725 306.613C140.258 306.344 140.864 306.209 141.544 306.209C142.722 306.209 143.604 306.49 144.189 307.053C144.781 307.609 145.077 308.497 145.077 309.716V316H143.618ZM160.625 316L158.858 310.349C158.747 310.003 158.539 309.218 158.234 307.993H158.164C157.93 309.019 157.725 309.81 157.549 310.366L155.729 316H154.042L151.414 306.367H152.943C153.564 308.787 154.036 310.63 154.358 311.896C154.687 313.161 154.874 314.014 154.921 314.453H154.991C155.056 314.119 155.158 313.688 155.299 313.161C155.445 312.628 155.571 312.206 155.677 311.896L157.443 306.367H159.025L160.748 311.896C161.076 312.903 161.299 313.75 161.416 314.436H161.486C161.51 314.225 161.571 313.899 161.671 313.46C161.776 313.021 162.389 310.656 163.508 306.367H165.02L162.356 316H160.625ZM170.838 316.176C169.414 316.176 168.289 315.742 167.463 314.875C166.643 314.008 166.232 312.804 166.232 311.263C166.232 309.71 166.613 308.477 167.375 307.562C168.143 306.648 169.171 306.191 170.46 306.191C171.667 306.191 172.622 306.59 173.325 307.387C174.028 308.178 174.38 309.224 174.38 310.524V311.447H167.744C167.773 312.578 168.058 313.437 168.597 314.022C169.142 314.608 169.906 314.901 170.891 314.901C171.928 314.901 172.953 314.685 173.967 314.251V315.552C173.451 315.774 172.962 315.933 172.499 316.026C172.042 316.126 171.488 316.176 170.838 316.176ZM170.442 307.413C169.669 307.413 169.051 307.665 168.588 308.169C168.131 308.673 167.861 309.37 167.779 310.261H172.815C172.815 309.341 172.61 308.638 172.2 308.151C171.79 307.659 171.204 307.413 170.442 307.413ZM181.358 306.209C182.624 306.209 183.605 306.643 184.303 307.51C185.006 308.371 185.357 309.593 185.357 311.175C185.357 312.757 185.003 313.987 184.294 314.866C183.591 315.739 182.612 316.176 181.358 316.176C180.731 316.176 180.157 316.062 179.636 315.833C179.12 315.599 178.687 315.241 178.335 314.761H178.229L177.922 316H176.876V302.324H178.335V305.646C178.335 306.391 178.312 307.059 178.265 307.65H178.335C179.015 306.689 180.022 306.209 181.358 306.209ZM181.147 307.431C180.151 307.431 179.434 307.718 178.994 308.292C178.555 308.86 178.335 309.821 178.335 311.175C178.335 312.528 178.561 313.498 179.012 314.084C179.463 314.664 180.187 314.954 181.183 314.954C182.079 314.954 182.747 314.629 183.187 313.979C183.626 313.322 183.846 312.382 183.846 311.157C183.846 309.903 183.626 308.969 183.187 308.354C182.747 307.738 182.067 307.431 181.147 307.431ZM200.193 316V309.733C200.193 308.966 200.029 308.392 199.701 308.011C199.373 307.624 198.863 307.431 198.172 307.431C197.264 307.431 196.593 307.691 196.159 308.213C195.726 308.734 195.509 309.537 195.509 310.621V316H194.05V309.733C194.05 308.966 193.886 308.392 193.558 308.011C193.229 307.624 192.717 307.431 192.02 307.431C191.105 307.431 190.435 307.706 190.007 308.257C189.585 308.802 189.374 309.698 189.374 310.946V316H187.915V306.367H189.102L189.339 307.686H189.409C189.685 307.217 190.071 306.851 190.569 306.587C191.073 306.323 191.636 306.191 192.257 306.191C193.763 306.191 194.747 306.736 195.21 307.826H195.28C195.567 307.322 195.983 306.924 196.528 306.631C197.073 306.338 197.694 306.191 198.392 306.191C199.481 306.191 200.296 306.473 200.835 307.035C201.38 307.592 201.652 308.485 201.652 309.716V316H200.193ZM210.591 316L210.301 314.629H210.23C209.75 315.232 209.27 315.643 208.789 315.859C208.314 316.07 207.72 316.176 207.005 316.176C206.05 316.176 205.3 315.93 204.755 315.438C204.216 314.945 203.946 314.245 203.946 313.337C203.946 311.392 205.502 310.372 208.613 310.278L210.248 310.226V309.628C210.248 308.872 210.084 308.315 209.756 307.958C209.434 307.595 208.915 307.413 208.2 307.413C207.397 307.413 206.489 307.659 205.476 308.151L205.027 307.035C205.502 306.777 206.021 306.575 206.583 306.429C207.151 306.282 207.72 306.209 208.288 306.209C209.437 306.209 210.286 306.464 210.837 306.974C211.394 307.483 211.672 308.301 211.672 309.426V316H210.591ZM207.295 314.972C208.203 314.972 208.915 314.723 209.431 314.225C209.952 313.727 210.213 313.029 210.213 312.133V311.263L208.754 311.324C207.594 311.365 206.756 311.547 206.24 311.869C205.73 312.186 205.476 312.681 205.476 313.354C205.476 313.882 205.634 314.283 205.95 314.559C206.272 314.834 206.721 314.972 207.295 314.972ZM220.9 313.372C220.9 314.269 220.566 314.96 219.898 315.446C219.23 315.933 218.293 316.176 217.086 316.176C215.809 316.176 214.812 315.974 214.098 315.569V314.216C214.561 314.45 215.056 314.635 215.583 314.77C216.116 314.904 216.629 314.972 217.121 314.972C217.883 314.972 218.469 314.852 218.879 314.611C219.289 314.365 219.494 313.993 219.494 313.495C219.494 313.12 219.33 312.801 219.002 312.537C218.68 312.268 218.047 311.951 217.104 311.588C216.207 311.254 215.568 310.964 215.188 310.718C214.812 310.466 214.531 310.182 214.344 309.865C214.162 309.549 214.071 309.171 214.071 308.731C214.071 307.946 214.391 307.328 215.029 306.877C215.668 306.42 216.544 306.191 217.657 306.191C218.694 306.191 219.708 306.402 220.698 306.824L220.18 308.011C219.213 307.612 218.337 307.413 217.552 307.413C216.86 307.413 216.339 307.521 215.987 307.738C215.636 307.955 215.46 308.254 215.46 308.635C215.46 308.893 215.524 309.112 215.653 309.294C215.788 309.476 216.002 309.648 216.295 309.812C216.588 309.977 217.15 310.214 217.982 310.524C219.125 310.94 219.896 311.359 220.294 311.781C220.698 312.203 220.9 312.733 220.9 313.372ZM226.394 314.972C226.651 314.972 226.9 314.954 227.141 314.919C227.381 314.878 227.571 314.837 227.712 314.796V315.912C227.554 315.988 227.319 316.05 227.009 316.097C226.704 316.149 226.429 316.176 226.183 316.176C224.319 316.176 223.388 315.194 223.388 313.231V307.501H222.008V306.798L223.388 306.191L224.003 304.135H224.847V306.367H227.642V307.501H224.847V313.17C224.847 313.75 224.984 314.195 225.26 314.506C225.535 314.816 225.913 314.972 226.394 314.972ZM233.715 316.176C232.291 316.176 231.166 315.742 230.34 314.875C229.52 314.008 229.109 312.804 229.109 311.263C229.109 309.71 229.49 308.477 230.252 307.562C231.02 306.648 232.048 306.191 233.337 306.191C234.544 306.191 235.499 306.59 236.202 307.387C236.905 308.178 237.257 309.224 237.257 310.524V311.447H230.621C230.65 312.578 230.935 313.437 231.474 314.022C232.019 314.608 232.783 314.901 233.768 314.901C234.805 314.901 235.83 314.685 236.844 314.251V315.552C236.328 315.774 235.839 315.933 235.376 316.026C234.919 316.126 234.365 316.176 233.715 316.176ZM233.319 307.413C232.546 307.413 231.928 307.665 231.465 308.169C231.008 308.673 230.738 309.37 230.656 310.261H235.692C235.692 309.341 235.487 308.638 235.077 308.151C234.667 307.659 234.081 307.413 233.319 307.413ZM244.147 306.191C244.575 306.191 244.959 306.227 245.299 306.297L245.097 307.65C244.698 307.562 244.347 307.519 244.042 307.519C243.263 307.519 242.595 307.835 242.038 308.468C241.487 309.101 241.212 309.889 241.212 310.832V316H239.753V306.367H240.957L241.124 308.151H241.194C241.552 307.524 241.982 307.041 242.486 306.701C242.99 306.361 243.544 306.191 244.147 306.191ZM253.314 313.372C253.314 314.269 252.98 314.96 252.312 315.446C251.645 315.933 250.707 316.176 249.5 316.176C248.223 316.176 247.227 315.974 246.512 315.569V314.216C246.975 314.45 247.47 314.635 247.997 314.77C248.53 314.904 249.043 314.972 249.535 314.972C250.297 314.972 250.883 314.852 251.293 314.611C251.703 314.365 251.908 313.993 251.908 313.495C251.908 313.12 251.744 312.801 251.416 312.537C251.094 312.268 250.461 311.951 249.518 311.588C248.621 311.254 247.982 310.964 247.602 310.718C247.227 310.466 246.945 310.182 246.758 309.865C246.576 309.549 246.485 309.171 246.485 308.731C246.485 307.946 246.805 307.328 247.443 306.877C248.082 306.42 248.958 306.191 250.071 306.191C251.108 306.191 252.122 306.402 253.112 306.824L252.594 308.011C251.627 307.612 250.751 307.413 249.966 307.413C249.274 307.413 248.753 307.521 248.401 307.738C248.05 307.955 247.874 308.254 247.874 308.635C247.874 308.893 247.938 309.112 248.067 309.294C248.202 309.476 248.416 309.648 248.709 309.812C249.002 309.977 249.564 310.214 250.396 310.524C251.539 310.94 252.31 311.359 252.708 311.781C253.112 312.203 253.314 312.733 253.314 313.372ZM263.483 314.972C263.741 314.972 263.99 314.954 264.23 314.919C264.471 314.878 264.661 314.837 264.802 314.796V315.912C264.644 315.988 264.409 316.05 264.099 316.097C263.794 316.149 263.519 316.176 263.272 316.176C261.409 316.176 260.478 315.194 260.478 313.231V307.501H259.098V306.798L260.478 306.191L261.093 304.135H261.937V306.367H264.731V307.501H261.937V313.17C261.937 313.75 262.074 314.195 262.35 314.506C262.625 314.816 263.003 314.972 263.483 314.972ZM275.05 311.175C275.05 312.745 274.654 313.973 273.863 314.857C273.072 315.736 271.979 316.176 270.585 316.176C269.724 316.176 268.959 315.974 268.291 315.569C267.623 315.165 267.107 314.585 266.744 313.829C266.381 313.073 266.199 312.188 266.199 311.175C266.199 309.604 266.592 308.383 267.377 307.51C268.162 306.631 269.252 306.191 270.646 306.191C271.994 306.191 273.063 306.64 273.854 307.536C274.651 308.433 275.05 309.646 275.05 311.175ZM267.711 311.175C267.711 312.405 267.957 313.343 268.449 313.987C268.941 314.632 269.665 314.954 270.62 314.954C271.575 314.954 272.299 314.635 272.791 313.996C273.289 313.352 273.538 312.411 273.538 311.175C273.538 309.95 273.289 309.021 272.791 308.389C272.299 307.75 271.569 307.431 270.603 307.431C269.647 307.431 268.927 307.744 268.44 308.371C267.954 308.998 267.711 309.933 267.711 311.175ZM286.687 306.191C287.114 306.191 287.498 306.227 287.838 306.297L287.636 307.65C287.237 307.562 286.886 307.519 286.581 307.519C285.802 307.519 285.134 307.835 284.577 308.468C284.026 309.101 283.751 309.889 283.751 310.832V316H282.292V306.367H283.496L283.663 308.151H283.733C284.091 307.524 284.521 307.041 285.025 306.701C285.529 306.361 286.083 306.191 286.687 306.191ZM293.709 316.176C292.285 316.176 291.16 315.742 290.334 314.875C289.514 314.008 289.104 312.804 289.104 311.263C289.104 309.71 289.484 308.477 290.246 307.562C291.014 306.648 292.042 306.191 293.331 306.191C294.538 306.191 295.493 306.59 296.196 307.387C296.899 308.178 297.251 309.224 297.251 310.524V311.447H290.615C290.645 312.578 290.929 313.437 291.468 314.022C292.013 314.608 292.777 314.901 293.762 314.901C294.799 314.901 295.824 314.685 296.838 314.251V315.552C296.322 315.774 295.833 315.933 295.37 316.026C294.913 316.126 294.359 316.176 293.709 316.176ZM293.313 307.413C292.54 307.413 291.922 307.665 291.459 308.169C291.002 308.673 290.732 309.37 290.65 310.261H295.687C295.687 309.341 295.481 308.638 295.071 308.151C294.661 307.659 294.075 307.413 293.313 307.413ZM312.025 316V309.733C312.025 308.966 311.861 308.392 311.533 308.011C311.205 307.624 310.695 307.431 310.004 307.431C309.096 307.431 308.425 307.691 307.991 308.213C307.558 308.734 307.341 309.537 307.341 310.621V316H305.882V309.733C305.882 308.966 305.718 308.392 305.39 308.011C305.062 307.624 304.549 307.431 303.852 307.431C302.938 307.431 302.267 307.706 301.839 308.257C301.417 308.802 301.206 309.698 301.206 310.946V316H299.747V306.367H300.934L301.171 307.686H301.241C301.517 307.217 301.903 306.851 302.401 306.587C302.905 306.323 303.468 306.191 304.089 306.191C305.595 306.191 306.579 306.736 307.042 307.826H307.112C307.399 307.322 307.815 306.924 308.36 306.631C308.905 306.338 309.526 306.191 310.224 306.191C311.313 306.191 312.128 306.473 312.667 307.035C313.212 307.592 313.484 308.485 313.484 309.716V316H312.025ZM324.813 311.175C324.813 312.745 324.418 313.973 323.627 314.857C322.836 315.736 321.743 316.176 320.349 316.176C319.487 316.176 318.723 315.974 318.055 315.569C317.387 315.165 316.871 314.585 316.508 313.829C316.145 313.073 315.963 312.188 315.963 311.175C315.963 309.604 316.355 308.383 317.141 307.51C317.926 306.631 319.016 306.191 320.41 306.191C321.758 306.191 322.827 306.64 323.618 307.536C324.415 308.433 324.813 309.646 324.813 311.175ZM317.475 311.175C317.475 312.405 317.721 313.343 318.213 313.987C318.705 314.632 319.429 314.954 320.384 314.954C321.339 314.954 322.062 314.635 322.555 313.996C323.053 313.352 323.302 312.411 323.302 311.175C323.302 309.95 323.053 309.021 322.555 308.389C322.062 307.75 321.333 307.431 320.366 307.431C319.411 307.431 318.69 307.744 318.204 308.371C317.718 308.998 317.475 309.933 317.475 311.175ZM329.489 316L325.833 306.367H327.397L329.472 312.08C329.94 313.416 330.216 314.283 330.298 314.682H330.368C330.433 314.371 330.635 313.729 330.975 312.757C331.32 311.778 332.091 309.648 333.286 306.367H334.851L331.194 316H329.489ZM340.467 316.176C339.043 316.176 337.918 315.742 337.092 314.875C336.271 314.008 335.861 312.804 335.861 311.263C335.861 309.71 336.242 308.477 337.004 307.562C337.771 306.648 338.8 306.191 340.089 306.191C341.296 306.191 342.251 306.59 342.954 307.387C343.657 308.178 344.009 309.224 344.009 310.524V311.447H337.373C337.402 312.578 337.687 313.437 338.226 314.022C338.771 314.608 339.535 314.901 340.52 314.901C341.557 314.901 342.582 314.685 343.596 314.251V315.552C343.08 315.774 342.591 315.933 342.128 316.026C341.671 316.126 341.117 316.176 340.467 316.176ZM340.071 307.413C339.298 307.413 338.68 307.665 338.217 308.169C337.76 308.673 337.49 309.37 337.408 310.261H342.444C342.444 309.341 342.239 308.638 341.829 308.151C341.419 307.659 340.833 307.413 340.071 307.413ZM352.552 306.367V312.616C352.552 313.401 352.73 313.987 353.088 314.374C353.445 314.761 354.005 314.954 354.767 314.954C355.774 314.954 356.51 314.679 356.973 314.128C357.441 313.577 357.676 312.678 357.676 311.43V306.367H359.135V316H357.931L357.72 314.708H357.641C357.342 315.183 356.926 315.546 356.393 315.798C355.865 316.05 355.262 316.176 354.582 316.176C353.41 316.176 352.531 315.897 351.945 315.341C351.365 314.784 351.075 313.894 351.075 312.669V306.367H352.552ZM368.829 316V309.769C368.829 308.983 368.65 308.397 368.293 308.011C367.936 307.624 367.376 307.431 366.614 307.431C365.606 307.431 364.868 307.703 364.399 308.248C363.931 308.793 363.696 309.692 363.696 310.946V316H362.237V306.367H363.424L363.661 307.686H363.731C364.03 307.211 364.449 306.845 364.988 306.587C365.527 306.323 366.128 306.191 366.79 306.191C367.95 306.191 368.823 306.473 369.409 307.035C369.995 307.592 370.288 308.485 370.288 309.716V316H368.829ZM381.16 316L379.394 310.349C379.282 310.003 379.074 309.218 378.77 307.993H378.699C378.465 309.019 378.26 309.81 378.084 310.366L376.265 316H374.577L371.949 306.367H373.479C374.1 308.787 374.571 310.63 374.894 311.896C375.222 313.161 375.409 314.014 375.456 314.453H375.526C375.591 314.119 375.693 313.688 375.834 313.161C375.98 312.628 376.106 312.206 376.212 311.896L377.979 306.367H379.561L381.283 311.896C381.611 312.903 381.834 313.75 381.951 314.436H382.021C382.045 314.225 382.106 313.899 382.206 313.46C382.312 313.021 382.924 310.656 384.043 306.367H385.555L382.892 316H381.16ZM393.228 316L392.938 314.629H392.867C392.387 315.232 391.906 315.643 391.426 315.859C390.951 316.07 390.356 316.176 389.642 316.176C388.687 316.176 387.937 315.93 387.392 315.438C386.853 314.945 386.583 314.245 386.583 313.337C386.583 311.392 388.139 310.372 391.25 310.278L392.885 310.226V309.628C392.885 308.872 392.721 308.315 392.393 307.958C392.07 307.595 391.552 307.413 390.837 307.413C390.034 307.413 389.126 307.659 388.112 308.151L387.664 307.035C388.139 306.777 388.657 306.575 389.22 306.429C389.788 306.282 390.356 306.209 390.925 306.209C392.073 306.209 392.923 306.464 393.474 306.974C394.03 307.483 394.309 308.301 394.309 309.426V316H393.228ZM389.932 314.972C390.84 314.972 391.552 314.723 392.067 314.225C392.589 313.727 392.85 313.029 392.85 312.133V311.263L391.391 311.324C390.23 311.365 389.393 311.547 388.877 311.869C388.367 312.186 388.112 312.681 388.112 313.354C388.112 313.882 388.271 314.283 388.587 314.559C388.909 314.834 389.357 314.972 389.932 314.972ZM403.915 316V309.769C403.915 308.983 403.736 308.397 403.379 308.011C403.021 307.624 402.462 307.431 401.7 307.431C400.692 307.431 399.954 307.703 399.485 308.248C399.017 308.793 398.782 309.692 398.782 310.946V316H397.323V306.367H398.51L398.747 307.686H398.817C399.116 307.211 399.535 306.845 400.074 306.587C400.613 306.323 401.214 306.191 401.876 306.191C403.036 306.191 403.909 306.473 404.495 307.035C405.081 307.592 405.374 308.485 405.374 309.716V316H403.915ZM411.491 314.972C411.749 314.972 411.998 314.954 412.238 314.919C412.479 314.878 412.669 314.837 412.81 314.796V315.912C412.651 315.988 412.417 316.05 412.106 316.097C411.802 316.149 411.526 316.176 411.28 316.176C409.417 316.176 408.485 315.194 408.485 313.231V307.501H407.105V306.798L408.485 306.191L409.101 304.135H409.944V306.367H412.739V307.501H409.944V313.17C409.944 313.75 410.082 314.195 410.357 314.506C410.633 314.816 411.011 314.972 411.491 314.972ZM418.812 316.176C417.389 316.176 416.264 315.742 415.438 314.875C414.617 314.008 414.207 312.804 414.207 311.263C414.207 309.71 414.588 308.477 415.35 307.562C416.117 306.648 417.146 306.191 418.435 306.191C419.642 306.191 420.597 306.59 421.3 307.387C422.003 308.178 422.354 309.224 422.354 310.524V311.447H415.719C415.748 312.578 416.032 313.437 416.571 314.022C417.116 314.608 417.881 314.901 418.865 314.901C419.902 314.901 420.928 314.685 421.941 314.251V315.552C421.426 315.774 420.937 315.933 420.474 316.026C420.017 316.126 419.463 316.176 418.812 316.176ZM418.417 307.413C417.644 307.413 417.025 307.665 416.562 308.169C416.105 308.673 415.836 309.37 415.754 310.261H420.79C420.79 309.341 420.585 308.638 420.175 308.151C419.765 307.659 419.179 307.413 418.417 307.413ZM431.407 314.708H431.328C430.654 315.687 429.646 316.176 428.305 316.176C427.045 316.176 426.063 315.745 425.36 314.884C424.663 314.022 424.314 312.798 424.314 311.21C424.314 309.622 424.666 308.389 425.369 307.51C426.072 306.631 427.051 306.191 428.305 306.191C429.611 306.191 430.613 306.666 431.311 307.615H431.425L431.363 306.921L431.328 306.244V302.324H432.787V316H431.601L431.407 314.708ZM428.489 314.954C429.485 314.954 430.206 314.685 430.651 314.146C431.103 313.601 431.328 312.725 431.328 311.518V311.21C431.328 309.845 431.1 308.872 430.643 308.292C430.191 307.706 429.468 307.413 428.472 307.413C427.616 307.413 426.96 307.747 426.503 308.415C426.052 309.077 425.826 310.015 425.826 311.228C425.826 312.458 426.052 313.387 426.503 314.014C426.954 314.641 427.616 314.954 428.489 314.954ZM217.499 341H216.04V327.324H217.499V341ZM222.052 341H220.593V331.367H222.052V341ZM220.47 328.757C220.47 328.423 220.552 328.18 220.716 328.027C220.88 327.869 221.085 327.79 221.331 327.79C221.565 327.79 221.768 327.869 221.938 328.027C222.107 328.186 222.192 328.429 222.192 328.757C222.192 329.085 222.107 329.331 221.938 329.495C221.768 329.653 221.565 329.732 221.331 329.732C221.085 329.732 220.88 329.653 220.716 329.495C220.552 329.331 220.47 329.085 220.47 328.757ZM231.737 341V334.769C231.737 333.983 231.559 333.397 231.201 333.011C230.844 332.624 230.284 332.431 229.522 332.431C228.515 332.431 227.776 332.703 227.308 333.248C226.839 333.793 226.604 334.692 226.604 335.946V341H225.146V331.367H226.332L226.569 332.686H226.64C226.938 332.211 227.357 331.845 227.896 331.587C228.436 331.323 229.036 331.191 229.698 331.191C230.858 331.191 231.731 331.473 232.317 332.035C232.903 332.592 233.196 333.485 233.196 334.716V341H231.737ZM237.644 336.069C237.896 335.712 238.279 335.243 238.795 334.663L241.906 331.367H243.638L239.735 335.472L243.91 341H242.144L238.742 336.447L237.644 337.396V341H236.202V327.324H237.644V334.575C237.644 334.897 237.62 335.396 237.573 336.069H237.644ZM251.873 338.372C251.873 339.269 251.539 339.96 250.871 340.446C250.203 340.933 249.266 341.176 248.059 341.176C246.781 341.176 245.785 340.974 245.07 340.569V339.216C245.533 339.45 246.028 339.635 246.556 339.77C247.089 339.904 247.602 339.972 248.094 339.972C248.855 339.972 249.441 339.852 249.852 339.611C250.262 339.365 250.467 338.993 250.467 338.495C250.467 338.12 250.303 337.801 249.975 337.537C249.652 337.268 249.02 336.951 248.076 336.588C247.18 336.254 246.541 335.964 246.16 335.718C245.785 335.466 245.504 335.182 245.316 334.865C245.135 334.549 245.044 334.171 245.044 333.731C245.044 332.946 245.363 332.328 246.002 331.877C246.641 331.42 247.517 331.191 248.63 331.191C249.667 331.191 250.681 331.402 251.671 331.824L251.152 333.011C250.186 332.612 249.31 332.413 248.524 332.413C247.833 332.413 247.312 332.521 246.96 332.738C246.608 332.955 246.433 333.254 246.433 333.635C246.433 333.893 246.497 334.112 246.626 334.294C246.761 334.476 246.975 334.648 247.268 334.812C247.561 334.977 248.123 335.214 248.955 335.524C250.098 335.94 250.868 336.359 251.267 336.781C251.671 337.203 251.873 337.733 251.873 338.372ZM254.044 340.068C254.044 339.676 254.132 339.38 254.308 339.181C254.489 338.976 254.747 338.873 255.081 338.873C255.421 338.873 255.685 338.976 255.872 339.181C256.065 339.38 256.162 339.676 256.162 340.068C256.162 340.449 256.065 340.742 255.872 340.947C255.679 341.152 255.415 341.255 255.081 341.255C254.782 341.255 254.533 341.164 254.334 340.982C254.141 340.795 254.044 340.49 254.044 340.068Z" fill="black"/>
<path d="M269.4 81.1H292M212.9 50.9667L189.004 74.8624C185.008 78.8583 182.763 84.278 182.763 89.9291C182.763 92.7272 183.315 95.4979 184.385 98.0831C185.456 100.668 187.026 103.017 189.004 104.996C190.983 106.974 193.332 108.544 195.917 109.615C198.502 110.685 201.273 111.237 204.071 111.237C209.722 111.237 215.142 108.992 219.138 104.996L243.033 81.1L212.9 50.9667ZM258.1 66.0333L281.996 42.1376C285.86 38.1148 287.993 32.7374 287.937 27.1597C287.88 21.5821 285.64 16.2487 281.696 12.3045C277.751 8.36025 272.418 6.1196 266.84 6.06347C261.263 6.00734 255.885 8.14022 251.862 12.0043L227.967 35.9L258.1 66.0333ZM212.9 81.1L258.1 35.9L212.9 81.1ZM201.6 35.9H179H201.6ZM212.9 2V24.6V2ZM258.1 92.4V115V92.4Z" stroke="#0166A3" stroke-width="12"/>
</svg>
