<svg width="470" height="296" viewBox="0 0 470 296" fill="none" xmlns="http://www.w3.org/2000/svg">
<path d="M0 57C0 48.7157 6.71573 42 15 42H455C463.284 42 470 48.7157 470 57V281C470 289.284 463.284 296 455 296H15C6.71573 296 0 289.284 0 281V57Z" fill="#F0F8FC"/>
<path d="M76.2402 179.974H84.7363V191.077C83.3594 191.526 82.0605 191.839 80.8398 192.015C79.6289 192.2 78.3887 192.293 77.1191 192.293C73.8867 192.293 71.416 191.346 69.707 189.451C68.0078 187.547 67.1582 184.817 67.1582 181.263C67.1582 177.806 68.1445 175.11 70.1172 173.177C72.0996 171.243 74.8438 170.276 78.3496 170.276C80.5469 170.276 82.666 170.716 84.707 171.595L83.1982 175.228C81.6357 174.446 80.0098 174.056 78.3203 174.056C76.3574 174.056 74.7852 174.715 73.6035 176.033C72.4219 177.352 71.8311 179.124 71.8311 181.351C71.8311 183.675 72.3047 185.452 73.252 186.683C74.209 187.903 75.5957 188.514 77.4121 188.514C78.3594 188.514 79.3213 188.416 80.2979 188.221V183.753H76.2402V179.974ZM109.287 181.263C109.287 184.808 108.408 187.532 106.65 189.437C104.893 191.341 102.373 192.293 99.0918 192.293C95.8105 192.293 93.291 191.341 91.5332 189.437C89.7754 187.532 88.8965 184.798 88.8965 181.233C88.8965 177.669 89.7754 174.949 91.5332 173.074C93.3008 171.189 95.8301 170.247 99.1211 170.247C102.412 170.247 104.927 171.194 106.665 173.089C108.413 174.983 109.287 177.708 109.287 181.263ZM93.6572 181.263C93.6572 183.655 94.1113 185.457 95.0195 186.668C95.9277 187.879 97.2852 188.484 99.0918 188.484C102.715 188.484 104.526 186.077 104.526 181.263C104.526 176.438 102.725 174.026 99.1211 174.026C97.3145 174.026 95.9521 174.637 95.0342 175.857C94.1162 177.068 93.6572 178.87 93.6572 181.263ZM133.164 181.263C133.164 184.808 132.285 187.532 130.527 189.437C128.77 191.341 126.25 192.293 122.969 192.293C119.688 192.293 117.168 191.341 115.41 189.437C113.652 187.532 112.773 184.798 112.773 181.233C112.773 177.669 113.652 174.949 115.41 173.074C117.178 171.189 119.707 170.247 122.998 170.247C126.289 170.247 128.804 171.194 130.542 173.089C132.29 174.983 133.164 177.708 133.164 181.263ZM117.534 181.263C117.534 183.655 117.988 185.457 118.896 186.668C119.805 187.879 121.162 188.484 122.969 188.484C126.592 188.484 128.403 186.077 128.403 181.263C128.403 176.438 126.602 174.026 122.998 174.026C121.191 174.026 119.829 174.637 118.911 175.857C117.993 177.068 117.534 178.87 117.534 181.263ZM145.732 179.974H154.229V191.077C152.852 191.526 151.553 191.839 150.332 192.015C149.121 192.2 147.881 192.293 146.611 192.293C143.379 192.293 140.908 191.346 139.199 189.451C137.5 187.547 136.65 184.817 136.65 181.263C136.65 177.806 137.637 175.11 139.609 173.177C141.592 171.243 144.336 170.276 147.842 170.276C150.039 170.276 152.158 170.716 154.199 171.595L152.69 175.228C151.128 174.446 149.502 174.056 147.812 174.056C145.85 174.056 144.277 174.715 143.096 176.033C141.914 177.352 141.323 179.124 141.323 181.351C141.323 183.675 141.797 185.452 142.744 186.683C143.701 187.903 145.088 188.514 146.904 188.514C147.852 188.514 148.813 188.416 149.79 188.221V183.753H145.732V179.974ZM159.341 192V170.584H163.882V188.25H172.568V192H159.341ZM188.638 192H176.304V170.584H188.638V174.305H180.845V179.007H188.096V182.728H180.845V188.25H188.638V192ZM200.913 192V170.584H205.454V192H200.913ZM229.844 192H224.072L214.756 175.799H214.624C214.81 178.66 214.902 180.701 214.902 181.922V192H210.845V170.584H216.572L225.874 186.624H225.977C225.83 183.841 225.757 181.873 225.757 180.721V170.584H229.844V192ZM243.511 192H238.97V174.363H233.154V170.584H249.326V174.363H243.511V192ZM264.956 192H252.622V170.584H264.956V174.305H257.163V179.007H264.414V182.728H257.163V188.25H264.956V192ZM277.568 179.974H286.064V191.077C284.688 191.526 283.389 191.839 282.168 192.015C280.957 192.2 279.717 192.293 278.447 192.293C275.215 192.293 272.744 191.346 271.035 189.451C269.336 187.547 268.486 184.817 268.486 181.263C268.486 177.806 269.473 175.11 271.445 173.177C273.428 171.243 276.172 170.276 279.678 170.276C281.875 170.276 283.994 170.716 286.035 171.595L284.526 175.228C282.964 174.446 281.338 174.056 279.648 174.056C277.686 174.056 276.113 174.715 274.932 176.033C273.75 177.352 273.159 179.124 273.159 181.351C273.159 183.675 273.633 185.452 274.58 186.683C275.537 187.903 276.924 188.514 278.74 188.514C279.688 188.514 280.649 188.416 281.626 188.221V183.753H277.568V179.974ZM295.718 180.091H297.183C298.618 180.091 299.678 179.852 300.361 179.373C301.045 178.895 301.387 178.143 301.387 177.117C301.387 176.102 301.035 175.379 300.332 174.949C299.639 174.52 298.56 174.305 297.095 174.305H295.718V180.091ZM295.718 183.782V192H291.177V170.584H297.417C300.327 170.584 302.48 171.116 303.877 172.181C305.273 173.235 305.972 174.842 305.972 177C305.972 178.26 305.625 179.383 304.932 180.369C304.238 181.346 303.257 182.112 301.987 182.669C305.21 187.483 307.31 190.594 308.286 192H303.247L298.135 183.782H295.718ZM324.092 192L322.539 186.902H314.731L313.179 192H308.286L315.845 170.496H321.396L328.984 192H324.092ZM321.455 183.094C320.02 178.475 319.209 175.862 319.023 175.257C318.848 174.651 318.721 174.173 318.643 173.821C318.32 175.071 317.397 178.162 315.874 183.094H321.455ZM339.956 192H335.415V174.363H329.6V170.584H345.771V174.363H339.956V192ZM349.067 192V170.584H353.608V192H349.067ZM378.438 181.263C378.438 184.808 377.559 187.532 375.801 189.437C374.043 191.341 371.523 192.293 368.242 192.293C364.961 192.293 362.441 191.341 360.684 189.437C358.926 187.532 358.047 184.798 358.047 181.233C358.047 177.669 358.926 174.949 360.684 173.074C362.451 171.189 364.98 170.247 368.271 170.247C371.562 170.247 374.077 171.194 375.815 173.089C377.563 174.983 378.438 177.708 378.438 181.263ZM362.808 181.263C362.808 183.655 363.262 185.457 364.17 186.668C365.078 187.879 366.436 188.484 368.242 188.484C371.865 188.484 373.677 186.077 373.677 181.263C373.677 176.438 371.875 174.026 368.271 174.026C366.465 174.026 365.103 174.637 364.185 175.857C363.267 177.068 362.808 178.87 362.808 181.263ZM401.875 192H396.104L386.787 175.799H386.655C386.841 178.66 386.934 180.701 386.934 181.922V192H382.876V170.584H388.604L397.905 186.624H398.008C397.861 183.841 397.788 181.873 397.788 180.721V170.584H401.875V192Z" fill="black"/>
<path d="M53.3145 223.452C53.3145 225.573 52.7373 227.196 51.583 228.321C50.4346 229.44 48.7793 230 46.6172 230H43.0576V217.15H46.9951C48.9932 217.15 50.5459 217.704 51.6533 218.812C52.7607 219.919 53.3145 221.466 53.3145 223.452ZM51.7324 223.505C51.7324 221.829 51.3105 220.566 50.4668 219.717C49.6289 218.867 48.3809 218.442 46.7227 218.442H44.5518V228.708H46.3711C48.1523 228.708 49.4912 228.271 50.3877 227.398C51.2842 226.52 51.7324 225.222 51.7324 223.505ZM57.4277 230H55.9688V220.367H57.4277V230ZM55.8457 217.757C55.8457 217.423 55.9277 217.18 56.0918 217.027C56.2559 216.869 56.4609 216.79 56.707 216.79C56.9414 216.79 57.1436 216.869 57.3135 217.027C57.4834 217.186 57.5684 217.429 57.5684 217.757C57.5684 218.085 57.4834 218.331 57.3135 218.495C57.1436 218.653 56.9414 218.732 56.707 218.732C56.4609 218.732 56.2559 218.653 56.0918 218.495C55.9277 218.331 55.8457 218.085 55.8457 217.757ZM64.916 220.191C65.3438 220.191 65.7275 220.227 66.0674 220.297L65.8652 221.65C65.4668 221.562 65.1152 221.519 64.8105 221.519C64.0312 221.519 63.3633 221.835 62.8066 222.468C62.2559 223.101 61.9805 223.889 61.9805 224.832V230H60.5215V220.367H61.7256L61.8926 222.151H61.9629C62.3203 221.524 62.751 221.041 63.2549 220.701C63.7588 220.361 64.3125 220.191 64.916 220.191ZM71.9385 230.176C70.5146 230.176 69.3896 229.742 68.5635 228.875C67.7432 228.008 67.333 226.804 67.333 225.263C67.333 223.71 67.7139 222.477 68.4756 221.562C69.2432 220.648 70.2715 220.191 71.5605 220.191C72.7676 220.191 73.7227 220.59 74.4258 221.387C75.1289 222.178 75.4805 223.224 75.4805 224.524V225.447H68.8447C68.874 226.578 69.1582 227.437 69.6973 228.022C70.2422 228.608 71.0068 228.901 71.9912 228.901C73.0283 228.901 74.0537 228.685 75.0674 228.251V229.552C74.5518 229.774 74.0625 229.933 73.5996 230.026C73.1426 230.126 72.5889 230.176 71.9385 230.176ZM71.543 221.413C70.7695 221.413 70.1514 221.665 69.6885 222.169C69.2314 222.673 68.9619 223.37 68.8799 224.261H73.916C73.916 223.341 73.7109 222.638 73.3008 222.151C72.8906 221.659 72.3047 221.413 71.543 221.413ZM81.8262 230.176C80.4316 230.176 79.3506 229.748 78.583 228.893C77.8213 228.031 77.4404 226.815 77.4404 225.245C77.4404 223.634 77.8271 222.389 78.6006 221.51C79.3799 220.631 80.4873 220.191 81.9229 220.191C82.3857 220.191 82.8486 220.241 83.3115 220.341C83.7744 220.44 84.1377 220.558 84.4014 220.692L83.9531 221.932C83.6309 221.803 83.2793 221.697 82.8984 221.615C82.5176 221.527 82.1807 221.483 81.8877 221.483C79.9307 221.483 78.9521 222.731 78.9521 225.228C78.9521 226.411 79.1895 227.319 79.6641 227.952C80.1445 228.585 80.8535 228.901 81.791 228.901C82.5938 228.901 83.417 228.729 84.2607 228.383V229.675C83.6162 230.009 82.8047 230.176 81.8262 230.176ZM89.666 228.972C89.9238 228.972 90.1729 228.954 90.4131 228.919C90.6533 228.878 90.8438 228.837 90.9844 228.796V229.912C90.8262 229.988 90.5918 230.05 90.2812 230.097C89.9766 230.149 89.7012 230.176 89.4551 230.176C87.5918 230.176 86.6602 229.194 86.6602 227.231V221.501H85.2803V220.798L86.6602 220.191L87.2754 218.135H88.1191V220.367H90.9141V221.501H88.1191V227.17C88.1191 227.75 88.2568 228.195 88.5322 228.506C88.8076 228.816 89.1855 228.972 89.666 228.972ZM99.0527 230H97.5938V220.367H99.0527V230ZM97.4707 217.757C97.4707 217.423 97.5527 217.18 97.7168 217.027C97.8809 216.869 98.0859 216.79 98.332 216.79C98.5664 216.79 98.7686 216.869 98.9385 217.027C99.1084 217.186 99.1934 217.429 99.1934 217.757C99.1934 218.085 99.1084 218.331 98.9385 218.495C98.7686 218.653 98.5664 218.732 98.332 218.732C98.0859 218.732 97.8809 218.653 97.7168 218.495C97.5527 218.331 97.4707 218.085 97.4707 217.757ZM108.738 230V223.769C108.738 222.983 108.56 222.397 108.202 222.011C107.845 221.624 107.285 221.431 106.523 221.431C105.516 221.431 104.777 221.703 104.309 222.248C103.84 222.793 103.605 223.692 103.605 224.946V230H102.146V220.367H103.333L103.57 221.686H103.641C103.939 221.211 104.358 220.845 104.897 220.587C105.437 220.323 106.037 220.191 106.699 220.191C107.859 220.191 108.732 220.473 109.318 221.035C109.904 221.592 110.197 222.485 110.197 223.716V230H108.738ZM116.314 228.972C116.572 228.972 116.821 228.954 117.062 228.919C117.302 228.878 117.492 228.837 117.633 228.796V229.912C117.475 229.988 117.24 230.05 116.93 230.097C116.625 230.149 116.35 230.176 116.104 230.176C114.24 230.176 113.309 229.194 113.309 227.231V221.501H111.929V220.798L113.309 220.191L113.924 218.135H114.768V220.367H117.562V221.501H114.768V227.17C114.768 227.75 114.905 228.195 115.181 228.506C115.456 228.816 115.834 228.972 116.314 228.972ZM123.636 230.176C122.212 230.176 121.087 229.742 120.261 228.875C119.44 228.008 119.03 226.804 119.03 225.263C119.03 223.71 119.411 222.477 120.173 221.562C120.94 220.648 121.969 220.191 123.258 220.191C124.465 220.191 125.42 220.59 126.123 221.387C126.826 222.178 127.178 223.224 127.178 224.524V225.447H120.542C120.571 226.578 120.855 227.437 121.395 228.022C121.939 228.608 122.704 228.901 123.688 228.901C124.726 228.901 125.751 228.685 126.765 228.251V229.552C126.249 229.774 125.76 229.933 125.297 230.026C124.84 230.126 124.286 230.176 123.636 230.176ZM123.24 221.413C122.467 221.413 121.849 221.665 121.386 222.169C120.929 222.673 120.659 223.37 120.577 224.261H125.613C125.613 223.341 125.408 222.638 124.998 222.151C124.588 221.659 124.002 221.413 123.24 221.413ZM137.558 220.367V221.29L135.773 221.501C135.938 221.706 136.084 221.976 136.213 222.31C136.342 222.638 136.406 223.01 136.406 223.426C136.406 224.369 136.084 225.122 135.439 225.685C134.795 226.247 133.91 226.528 132.785 226.528C132.498 226.528 132.229 226.505 131.977 226.458C131.355 226.786 131.045 227.199 131.045 227.697C131.045 227.961 131.153 228.157 131.37 228.286C131.587 228.409 131.959 228.471 132.486 228.471H134.191C135.234 228.471 136.034 228.69 136.591 229.13C137.153 229.569 137.435 230.208 137.435 231.046C137.435 232.112 137.007 232.924 136.151 233.48C135.296 234.043 134.048 234.324 132.407 234.324C131.147 234.324 130.175 234.09 129.489 233.621C128.81 233.152 128.47 232.49 128.47 231.635C128.47 231.049 128.657 230.542 129.032 230.114C129.407 229.687 129.935 229.396 130.614 229.244C130.368 229.133 130.16 228.96 129.99 228.726C129.826 228.491 129.744 228.219 129.744 227.908C129.744 227.557 129.838 227.249 130.025 226.985C130.213 226.722 130.509 226.467 130.913 226.221C130.415 226.016 130.008 225.667 129.691 225.175C129.381 224.683 129.226 224.12 129.226 223.487C129.226 222.433 129.542 221.621 130.175 221.053C130.808 220.479 131.704 220.191 132.864 220.191C133.368 220.191 133.822 220.25 134.227 220.367H137.558ZM129.876 231.617C129.876 232.139 130.096 232.534 130.535 232.804C130.975 233.073 131.604 233.208 132.425 233.208C133.649 233.208 134.555 233.023 135.141 232.654C135.732 232.291 136.028 231.796 136.028 231.169C136.028 230.647 135.867 230.284 135.545 230.079C135.223 229.88 134.616 229.78 133.726 229.78H131.977C131.314 229.78 130.799 229.938 130.43 230.255C130.061 230.571 129.876 231.025 129.876 231.617ZM130.667 223.452C130.667 224.126 130.857 224.636 131.238 224.981C131.619 225.327 132.149 225.5 132.829 225.5C134.253 225.5 134.965 224.809 134.965 223.426C134.965 221.979 134.244 221.255 132.803 221.255C132.117 221.255 131.59 221.439 131.221 221.809C130.852 222.178 130.667 222.726 130.667 223.452ZM143.93 220.191C144.357 220.191 144.741 220.227 145.081 220.297L144.879 221.65C144.48 221.562 144.129 221.519 143.824 221.519C143.045 221.519 142.377 221.835 141.82 222.468C141.27 223.101 140.994 223.889 140.994 224.832V230H139.535V220.367H140.739L140.906 222.151H140.977C141.334 221.524 141.765 221.041 142.269 220.701C142.772 220.361 143.326 220.191 143.93 220.191ZM152.807 230L152.517 228.629H152.446C151.966 229.232 151.485 229.643 151.005 229.859C150.53 230.07 149.936 230.176 149.221 230.176C148.266 230.176 147.516 229.93 146.971 229.438C146.432 228.945 146.162 228.245 146.162 227.337C146.162 225.392 147.718 224.372 150.829 224.278L152.464 224.226V223.628C152.464 222.872 152.3 222.315 151.972 221.958C151.649 221.595 151.131 221.413 150.416 221.413C149.613 221.413 148.705 221.659 147.691 222.151L147.243 221.035C147.718 220.777 148.236 220.575 148.799 220.429C149.367 220.282 149.936 220.209 150.504 220.209C151.652 220.209 152.502 220.464 153.053 220.974C153.609 221.483 153.888 222.301 153.888 223.426V230H152.807ZM149.511 228.972C150.419 228.972 151.131 228.723 151.646 228.225C152.168 227.727 152.429 227.029 152.429 226.133V225.263L150.97 225.324C149.81 225.365 148.972 225.547 148.456 225.869C147.946 226.186 147.691 226.681 147.691 227.354C147.691 227.882 147.85 228.283 148.166 228.559C148.488 228.834 148.937 228.972 149.511 228.972ZM160.014 228.972C160.271 228.972 160.521 228.954 160.761 228.919C161.001 228.878 161.191 228.837 161.332 228.796V229.912C161.174 229.988 160.939 230.05 160.629 230.097C160.324 230.149 160.049 230.176 159.803 230.176C157.939 230.176 157.008 229.194 157.008 227.231V221.501H155.628V220.798L157.008 220.191L157.623 218.135H158.467V220.367H161.262V221.501H158.467V227.17C158.467 227.75 158.604 228.195 158.88 228.506C159.155 228.816 159.533 228.972 160.014 228.972ZM164.725 230H163.266V220.367H164.725V230ZM163.143 217.757C163.143 217.423 163.225 217.18 163.389 217.027C163.553 216.869 163.758 216.79 164.004 216.79C164.238 216.79 164.44 216.869 164.61 217.027C164.78 217.186 164.865 217.429 164.865 217.757C164.865 218.085 164.78 218.331 164.61 218.495C164.44 218.653 164.238 218.732 164.004 218.732C163.758 218.732 163.553 218.653 163.389 218.495C163.225 218.331 163.143 218.085 163.143 217.757ZM176.133 225.175C176.133 226.745 175.737 227.973 174.946 228.857C174.155 229.736 173.062 230.176 171.668 230.176C170.807 230.176 170.042 229.974 169.374 229.569C168.706 229.165 168.19 228.585 167.827 227.829C167.464 227.073 167.282 226.188 167.282 225.175C167.282 223.604 167.675 222.383 168.46 221.51C169.245 220.631 170.335 220.191 171.729 220.191C173.077 220.191 174.146 220.64 174.938 221.536C175.734 222.433 176.133 223.646 176.133 225.175ZM168.794 225.175C168.794 226.405 169.04 227.343 169.532 227.987C170.024 228.632 170.748 228.954 171.703 228.954C172.658 228.954 173.382 228.635 173.874 227.996C174.372 227.352 174.621 226.411 174.621 225.175C174.621 223.95 174.372 223.021 173.874 222.389C173.382 221.75 172.652 221.431 171.686 221.431C170.73 221.431 170.01 221.744 169.523 222.371C169.037 222.998 168.794 223.933 168.794 225.175ZM185.291 230V223.769C185.291 222.983 185.112 222.397 184.755 222.011C184.397 221.624 183.838 221.431 183.076 221.431C182.068 221.431 181.33 221.703 180.861 222.248C180.393 222.793 180.158 223.692 180.158 224.946V230H178.699V220.367H179.886L180.123 221.686H180.193C180.492 221.211 180.911 220.845 181.45 220.587C181.989 220.323 182.59 220.191 183.252 220.191C184.412 220.191 185.285 220.473 185.871 221.035C186.457 221.592 186.75 222.485 186.75 223.716V230H185.291ZM202.298 230L200.531 224.349C200.42 224.003 200.212 223.218 199.907 221.993H199.837C199.603 223.019 199.397 223.81 199.222 224.366L197.402 230H195.715L193.087 220.367H194.616C195.237 222.787 195.709 224.63 196.031 225.896C196.359 227.161 196.547 228.014 196.594 228.453H196.664C196.729 228.119 196.831 227.688 196.972 227.161C197.118 226.628 197.244 226.206 197.35 225.896L199.116 220.367H200.698L202.421 225.896C202.749 226.903 202.972 227.75 203.089 228.436H203.159C203.183 228.225 203.244 227.899 203.344 227.46C203.449 227.021 204.062 224.656 205.181 220.367H206.692L204.029 230H202.298ZM209.9 230H208.441V220.367H209.9V230ZM208.318 217.757C208.318 217.423 208.4 217.18 208.564 217.027C208.729 216.869 208.934 216.79 209.18 216.79C209.414 216.79 209.616 216.869 209.786 217.027C209.956 217.186 210.041 217.429 210.041 217.757C210.041 218.085 209.956 218.331 209.786 218.495C209.616 218.653 209.414 218.732 209.18 218.732C208.934 218.732 208.729 218.653 208.564 218.495C208.4 218.331 208.318 218.085 208.318 217.757ZM216.105 228.972C216.363 228.972 216.612 228.954 216.853 228.919C217.093 228.878 217.283 228.837 217.424 228.796V229.912C217.266 229.988 217.031 230.05 216.721 230.097C216.416 230.149 216.141 230.176 215.895 230.176C214.031 230.176 213.1 229.194 213.1 227.231V221.501H211.72V220.798L213.1 220.191L213.715 218.135H214.559V220.367H217.354V221.501H214.559V227.17C214.559 227.75 214.696 228.195 214.972 228.506C215.247 228.816 215.625 228.972 216.105 228.972ZM225.949 230V223.769C225.949 222.983 225.771 222.397 225.413 222.011C225.056 221.624 224.496 221.431 223.734 221.431C222.721 221.431 221.979 221.706 221.511 222.257C221.048 222.808 220.816 223.71 220.816 224.964V230H219.357V216.324H220.816V220.464C220.816 220.962 220.793 221.375 220.746 221.703H220.834C221.121 221.24 221.528 220.877 222.056 220.613C222.589 220.344 223.195 220.209 223.875 220.209C225.053 220.209 225.935 220.49 226.521 221.053C227.112 221.609 227.408 222.497 227.408 223.716V230H225.949ZM240.961 223.268H245.329V229.517C244.649 229.733 243.958 229.897 243.255 230.009C242.552 230.12 241.737 230.176 240.812 230.176C238.866 230.176 237.352 229.599 236.268 228.444C235.184 227.284 234.642 225.661 234.642 223.575C234.642 222.239 234.908 221.07 235.441 220.068C235.98 219.061 236.754 218.293 237.762 217.766C238.77 217.232 239.95 216.966 241.304 216.966C242.675 216.966 243.952 217.218 245.136 217.722L244.556 219.04C243.396 218.548 242.279 218.302 241.207 218.302C239.643 218.302 238.421 218.768 237.542 219.699C236.663 220.631 236.224 221.923 236.224 223.575C236.224 225.31 236.646 226.625 237.489 227.521C238.339 228.418 239.584 228.866 241.225 228.866C242.115 228.866 242.985 228.764 243.835 228.559V224.604H240.961V223.268ZM256.518 225.175C256.518 226.745 256.122 227.973 255.331 228.857C254.54 229.736 253.447 230.176 252.053 230.176C251.191 230.176 250.427 229.974 249.759 229.569C249.091 229.165 248.575 228.585 248.212 227.829C247.849 227.073 247.667 226.188 247.667 225.175C247.667 223.604 248.06 222.383 248.845 221.51C249.63 220.631 250.72 220.191 252.114 220.191C253.462 220.191 254.531 220.64 255.322 221.536C256.119 222.433 256.518 223.646 256.518 225.175ZM249.179 225.175C249.179 226.405 249.425 227.343 249.917 227.987C250.409 228.632 251.133 228.954 252.088 228.954C253.043 228.954 253.767 228.635 254.259 227.996C254.757 227.352 255.006 226.411 255.006 225.175C255.006 223.95 254.757 223.021 254.259 222.389C253.767 221.75 253.037 221.431 252.07 221.431C251.115 221.431 250.395 221.744 249.908 222.371C249.422 222.998 249.179 223.933 249.179 225.175ZM267.398 225.175C267.398 226.745 267.003 227.973 266.212 228.857C265.421 229.736 264.328 230.176 262.934 230.176C262.072 230.176 261.308 229.974 260.64 229.569C259.972 229.165 259.456 228.585 259.093 227.829C258.729 227.073 258.548 226.188 258.548 225.175C258.548 223.604 258.94 222.383 259.726 221.51C260.511 220.631 261.601 220.191 262.995 220.191C264.343 220.191 265.412 220.64 266.203 221.536C267 222.433 267.398 223.646 267.398 225.175ZM260.06 225.175C260.06 226.405 260.306 227.343 260.798 227.987C261.29 228.632 262.014 228.954 262.969 228.954C263.924 228.954 264.647 228.635 265.14 227.996C265.638 227.352 265.887 226.411 265.887 225.175C265.887 223.95 265.638 223.021 265.14 222.389C264.647 221.75 263.918 221.431 262.951 221.431C261.996 221.431 261.275 221.744 260.789 222.371C260.303 222.998 260.06 223.933 260.06 225.175ZM277.849 220.367V221.29L276.064 221.501C276.229 221.706 276.375 221.976 276.504 222.31C276.633 222.638 276.697 223.01 276.697 223.426C276.697 224.369 276.375 225.122 275.73 225.685C275.086 226.247 274.201 226.528 273.076 226.528C272.789 226.528 272.52 226.505 272.268 226.458C271.646 226.786 271.336 227.199 271.336 227.697C271.336 227.961 271.444 228.157 271.661 228.286C271.878 228.409 272.25 228.471 272.777 228.471H274.482C275.525 228.471 276.325 228.69 276.882 229.13C277.444 229.569 277.726 230.208 277.726 231.046C277.726 232.112 277.298 232.924 276.442 233.48C275.587 234.043 274.339 234.324 272.698 234.324C271.438 234.324 270.466 234.09 269.78 233.621C269.101 233.152 268.761 232.49 268.761 231.635C268.761 231.049 268.948 230.542 269.323 230.114C269.698 229.687 270.226 229.396 270.905 229.244C270.659 229.133 270.451 228.96 270.281 228.726C270.117 228.491 270.035 228.219 270.035 227.908C270.035 227.557 270.129 227.249 270.316 226.985C270.504 226.722 270.8 226.467 271.204 226.221C270.706 226.016 270.299 225.667 269.982 225.175C269.672 224.683 269.517 224.12 269.517 223.487C269.517 222.433 269.833 221.621 270.466 221.053C271.099 220.479 271.995 220.191 273.155 220.191C273.659 220.191 274.113 220.25 274.518 220.367H277.849ZM270.167 231.617C270.167 232.139 270.387 232.534 270.826 232.804C271.266 233.073 271.896 233.208 272.716 233.208C273.94 233.208 274.846 233.023 275.432 232.654C276.023 232.291 276.319 231.796 276.319 231.169C276.319 230.647 276.158 230.284 275.836 230.079C275.514 229.88 274.907 229.78 274.017 229.78H272.268C271.605 229.78 271.09 229.938 270.721 230.255C270.352 230.571 270.167 231.025 270.167 231.617ZM270.958 223.452C270.958 224.126 271.148 224.636 271.529 224.981C271.91 225.327 272.44 225.5 273.12 225.5C274.544 225.5 275.256 224.809 275.256 223.426C275.256 221.979 274.535 221.255 273.094 221.255C272.408 221.255 271.881 221.439 271.512 221.809C271.143 222.178 270.958 222.726 270.958 223.452ZM281.285 230H279.826V216.324H281.285V230ZM288.448 230.176C287.024 230.176 285.899 229.742 285.073 228.875C284.253 228.008 283.843 226.804 283.843 225.263C283.843 223.71 284.224 222.477 284.985 221.562C285.753 220.648 286.781 220.191 288.07 220.191C289.277 220.191 290.232 220.59 290.936 221.387C291.639 222.178 291.99 223.224 291.99 224.524V225.447H285.354C285.384 226.578 285.668 227.437 286.207 228.022C286.752 228.608 287.517 228.901 288.501 228.901C289.538 228.901 290.563 228.685 291.577 228.251V229.552C291.062 229.774 290.572 229.933 290.109 230.026C289.652 230.126 289.099 230.176 288.448 230.176ZM288.053 221.413C287.279 221.413 286.661 221.665 286.198 222.169C285.741 222.673 285.472 223.37 285.39 224.261H290.426C290.426 223.341 290.221 222.638 289.811 222.151C289.4 221.659 288.814 221.413 288.053 221.413ZM306.633 226.581C306.633 227.712 306.223 228.594 305.402 229.227C304.582 229.859 303.469 230.176 302.062 230.176C300.539 230.176 299.367 229.979 298.547 229.587V228.146C299.074 228.368 299.648 228.544 300.27 228.673C300.891 228.802 301.506 228.866 302.115 228.866C303.111 228.866 303.861 228.679 304.365 228.304C304.869 227.923 305.121 227.396 305.121 226.722C305.121 226.276 305.03 225.913 304.849 225.632C304.673 225.345 304.374 225.081 303.952 224.841C303.536 224.601 302.9 224.328 302.045 224.023C300.85 223.596 299.994 223.089 299.479 222.503C298.969 221.917 298.714 221.152 298.714 220.209C298.714 219.219 299.086 218.431 299.83 217.845C300.574 217.259 301.559 216.966 302.783 216.966C304.061 216.966 305.235 217.2 306.308 217.669L305.842 218.97C304.781 218.524 303.75 218.302 302.748 218.302C301.957 218.302 301.339 218.472 300.894 218.812C300.448 219.151 300.226 219.623 300.226 220.227C300.226 220.672 300.308 221.038 300.472 221.325C300.636 221.606 300.911 221.867 301.298 222.107C301.69 222.342 302.288 222.603 303.091 222.89C304.438 223.37 305.364 223.886 305.868 224.437C306.378 224.987 306.633 225.702 306.633 226.581ZM313.11 230.176C311.687 230.176 310.562 229.742 309.735 228.875C308.915 228.008 308.505 226.804 308.505 225.263C308.505 223.71 308.886 222.477 309.647 221.562C310.415 220.648 311.443 220.191 312.732 220.191C313.939 220.191 314.895 220.59 315.598 221.387C316.301 222.178 316.652 223.224 316.652 224.524V225.447H310.017C310.046 226.578 310.33 227.437 310.869 228.022C311.414 228.608 312.179 228.901 313.163 228.901C314.2 228.901 315.226 228.685 316.239 228.251V229.552C315.724 229.774 315.234 229.933 314.771 230.026C314.314 230.126 313.761 230.176 313.11 230.176ZM312.715 221.413C311.941 221.413 311.323 221.665 310.86 222.169C310.403 222.673 310.134 223.37 310.052 224.261H315.088C315.088 223.341 314.883 222.638 314.473 222.151C314.062 221.659 313.477 221.413 312.715 221.413ZM325.072 230L324.782 228.629H324.712C324.231 229.232 323.751 229.643 323.271 229.859C322.796 230.07 322.201 230.176 321.486 230.176C320.531 230.176 319.781 229.93 319.236 229.438C318.697 228.945 318.428 228.245 318.428 227.337C318.428 225.392 319.983 224.372 323.095 224.278L324.729 224.226V223.628C324.729 222.872 324.565 222.315 324.237 221.958C323.915 221.595 323.396 221.413 322.682 221.413C321.879 221.413 320.971 221.659 319.957 222.151L319.509 221.035C319.983 220.777 320.502 220.575 321.064 220.429C321.633 220.282 322.201 220.209 322.77 220.209C323.918 220.209 324.768 220.464 325.318 220.974C325.875 221.483 326.153 222.301 326.153 223.426V230H325.072ZM321.776 228.972C322.685 228.972 323.396 228.723 323.912 228.225C324.434 227.727 324.694 227.029 324.694 226.133V225.263L323.235 225.324C322.075 225.365 321.237 225.547 320.722 225.869C320.212 226.186 319.957 226.681 319.957 227.354C319.957 227.882 320.115 228.283 320.432 228.559C320.754 228.834 321.202 228.972 321.776 228.972ZM333.562 220.191C333.99 220.191 334.374 220.227 334.714 220.297L334.512 221.65C334.113 221.562 333.762 221.519 333.457 221.519C332.678 221.519 332.01 221.835 331.453 222.468C330.902 223.101 330.627 223.889 330.627 224.832V230H329.168V220.367H330.372L330.539 222.151H330.609C330.967 221.524 331.397 221.041 331.901 220.701C332.405 220.361 332.959 220.191 333.562 220.191ZM340.365 230.176C338.971 230.176 337.89 229.748 337.122 228.893C336.36 228.031 335.979 226.815 335.979 225.245C335.979 223.634 336.366 222.389 337.14 221.51C337.919 220.631 339.026 220.191 340.462 220.191C340.925 220.191 341.388 220.241 341.851 220.341C342.313 220.44 342.677 220.558 342.94 220.692L342.492 221.932C342.17 221.803 341.818 221.697 341.438 221.615C341.057 221.527 340.72 221.483 340.427 221.483C338.47 221.483 337.491 222.731 337.491 225.228C337.491 226.411 337.729 227.319 338.203 227.952C338.684 228.585 339.393 228.901 340.33 228.901C341.133 228.901 341.956 228.729 342.8 228.383V229.675C342.155 230.009 341.344 230.176 340.365 230.176ZM351.686 230V223.769C351.686 222.983 351.507 222.397 351.149 222.011C350.792 221.624 350.232 221.431 349.471 221.431C348.457 221.431 347.716 221.706 347.247 222.257C346.784 222.808 346.553 223.71 346.553 224.964V230H345.094V216.324H346.553V220.464C346.553 220.962 346.529 221.375 346.482 221.703H346.57C346.857 221.24 347.265 220.877 347.792 220.613C348.325 220.344 348.932 220.209 349.611 220.209C350.789 220.209 351.671 220.49 352.257 221.053C352.849 221.609 353.145 222.497 353.145 223.716V230H351.686ZM366.548 218.302C365.136 218.302 364.02 218.773 363.199 219.717C362.385 220.654 361.978 221.94 361.978 223.575C361.978 225.257 362.37 226.558 363.155 227.478C363.946 228.392 365.071 228.849 366.53 228.849C367.427 228.849 368.449 228.688 369.598 228.365V229.675C368.707 230.009 367.608 230.176 366.302 230.176C364.409 230.176 362.947 229.602 361.916 228.453C360.891 227.305 360.378 225.673 360.378 223.558C360.378 222.233 360.624 221.073 361.116 220.077C361.614 219.081 362.329 218.313 363.261 217.774C364.198 217.235 365.3 216.966 366.565 216.966C367.913 216.966 369.091 217.212 370.099 217.704L369.466 218.987C368.493 218.53 367.521 218.302 366.548 218.302ZM380.496 225.175C380.496 226.745 380.101 227.973 379.31 228.857C378.519 229.736 377.426 230.176 376.031 230.176C375.17 230.176 374.405 229.974 373.737 229.569C373.069 229.165 372.554 228.585 372.19 227.829C371.827 227.073 371.646 226.188 371.646 225.175C371.646 223.604 372.038 222.383 372.823 221.51C373.608 220.631 374.698 220.191 376.093 220.191C377.44 220.191 378.51 220.64 379.301 221.536C380.098 222.433 380.496 223.646 380.496 225.175ZM373.157 225.175C373.157 226.405 373.403 227.343 373.896 227.987C374.388 228.632 375.111 228.954 376.066 228.954C377.021 228.954 377.745 228.635 378.237 227.996C378.735 227.352 378.984 226.411 378.984 225.175C378.984 223.95 378.735 223.021 378.237 222.389C377.745 221.75 377.016 221.431 376.049 221.431C375.094 221.431 374.373 221.744 373.887 222.371C373.4 222.998 373.157 223.933 373.157 225.175ZM389.654 230V223.769C389.654 222.983 389.476 222.397 389.118 222.011C388.761 221.624 388.201 221.431 387.439 221.431C386.432 221.431 385.693 221.703 385.225 222.248C384.756 222.793 384.521 223.692 384.521 224.946V230H383.062V220.367H384.249L384.486 221.686H384.557C384.855 221.211 385.274 220.845 385.813 220.587C386.353 220.323 386.953 220.191 387.615 220.191C388.775 220.191 389.648 220.473 390.234 221.035C390.82 221.592 391.113 222.485 391.113 223.716V230H389.654ZM400.333 227.372C400.333 228.269 399.999 228.96 399.331 229.446C398.663 229.933 397.726 230.176 396.519 230.176C395.241 230.176 394.245 229.974 393.53 229.569V228.216C393.993 228.45 394.488 228.635 395.016 228.77C395.549 228.904 396.062 228.972 396.554 228.972C397.315 228.972 397.901 228.852 398.312 228.611C398.722 228.365 398.927 227.993 398.927 227.495C398.927 227.12 398.763 226.801 398.435 226.537C398.112 226.268 397.479 225.951 396.536 225.588C395.64 225.254 395.001 224.964 394.62 224.718C394.245 224.466 393.964 224.182 393.776 223.865C393.595 223.549 393.504 223.171 393.504 222.731C393.504 221.946 393.823 221.328 394.462 220.877C395.101 220.42 395.977 220.191 397.09 220.191C398.127 220.191 399.141 220.402 400.131 220.824L399.612 222.011C398.646 221.612 397.77 221.413 396.984 221.413C396.293 221.413 395.771 221.521 395.42 221.738C395.068 221.955 394.893 222.254 394.893 222.635C394.893 222.893 394.957 223.112 395.086 223.294C395.221 223.476 395.435 223.648 395.728 223.812C396.021 223.977 396.583 224.214 397.415 224.524C398.558 224.94 399.328 225.359 399.727 225.781C400.131 226.203 400.333 226.733 400.333 227.372ZM411.029 225.175C411.029 226.745 410.634 227.973 409.843 228.857C409.052 229.736 407.959 230.176 406.564 230.176C405.703 230.176 404.938 229.974 404.271 229.569C403.603 229.165 403.087 228.585 402.724 227.829C402.36 227.073 402.179 226.188 402.179 225.175C402.179 223.604 402.571 222.383 403.356 221.51C404.142 220.631 405.231 220.191 406.626 220.191C407.974 220.191 409.043 220.64 409.834 221.536C410.631 222.433 411.029 223.646 411.029 225.175ZM403.69 225.175C403.69 226.405 403.937 227.343 404.429 227.987C404.921 228.632 405.645 228.954 406.6 228.954C407.555 228.954 408.278 228.635 408.771 227.996C409.269 227.352 409.518 226.411 409.518 225.175C409.518 223.95 409.269 223.021 408.771 222.389C408.278 221.75 407.549 221.431 406.582 221.431C405.627 221.431 404.906 221.744 404.42 222.371C403.934 222.998 403.69 223.933 403.69 225.175ZM415.055 230H413.596V216.324H415.055V230ZM422.218 230.176C420.794 230.176 419.669 229.742 418.843 228.875C418.022 228.008 417.612 226.804 417.612 225.263C417.612 223.71 417.993 222.477 418.755 221.562C419.522 220.648 420.551 220.191 421.84 220.191C423.047 220.191 424.002 220.59 424.705 221.387C425.408 222.178 425.76 223.224 425.76 224.524V225.447H419.124C419.153 226.578 419.438 227.437 419.977 228.022C420.521 228.608 421.286 228.901 422.271 228.901C423.308 228.901 424.333 228.685 425.347 228.251V229.552C424.831 229.774 424.342 229.933 423.879 230.026C423.422 230.126 422.868 230.176 422.218 230.176ZM421.822 221.413C421.049 221.413 420.431 221.665 419.968 222.169C419.511 222.673 419.241 223.37 419.159 224.261H424.195C424.195 223.341 423.99 222.638 423.58 222.151C423.17 221.659 422.584 221.413 421.822 221.413ZM94.7549 255.176C93.3311 255.176 92.2061 254.742 91.3799 253.875C90.5596 253.008 90.1494 251.804 90.1494 250.263C90.1494 248.71 90.5303 247.477 91.292 246.562C92.0596 245.648 93.0879 245.191 94.377 245.191C95.584 245.191 96.5391 245.59 97.2422 246.387C97.9453 247.178 98.2969 248.224 98.2969 249.524V250.447H91.6611C91.6904 251.578 91.9746 252.437 92.5137 253.022C93.0586 253.608 93.8232 253.901 94.8076 253.901C95.8447 253.901 96.8701 253.685 97.8838 253.251V254.552C97.3682 254.774 96.8789 254.933 96.416 255.026C95.959 255.126 95.4053 255.176 94.7549 255.176ZM94.3594 246.413C93.5859 246.413 92.9678 246.665 92.5049 247.169C92.0479 247.673 91.7783 248.37 91.6963 249.261H96.7324C96.7324 248.341 96.5273 247.638 96.1172 247.151C95.707 246.659 95.1211 246.413 94.3594 246.413ZM107.385 255V248.769C107.385 247.983 107.206 247.397 106.849 247.011C106.491 246.624 105.932 246.431 105.17 246.431C104.162 246.431 103.424 246.703 102.955 247.248C102.486 247.793 102.252 248.692 102.252 249.946V255H100.793V245.367H101.979L102.217 246.686H102.287C102.586 246.211 103.005 245.845 103.544 245.587C104.083 245.323 104.684 245.191 105.346 245.191C106.506 245.191 107.379 245.473 107.965 246.035C108.551 246.592 108.844 247.485 108.844 248.716V255H107.385ZM118.063 252.372C118.063 253.269 117.729 253.96 117.062 254.446C116.394 254.933 115.456 255.176 114.249 255.176C112.972 255.176 111.976 254.974 111.261 254.569V253.216C111.724 253.45 112.219 253.635 112.746 253.77C113.279 253.904 113.792 253.972 114.284 253.972C115.046 253.972 115.632 253.852 116.042 253.611C116.452 253.365 116.657 252.993 116.657 252.495C116.657 252.12 116.493 251.801 116.165 251.537C115.843 251.268 115.21 250.951 114.267 250.588C113.37 250.254 112.731 249.964 112.351 249.718C111.976 249.466 111.694 249.182 111.507 248.865C111.325 248.549 111.234 248.171 111.234 247.731C111.234 246.946 111.554 246.328 112.192 245.877C112.831 245.42 113.707 245.191 114.82 245.191C115.857 245.191 116.871 245.402 117.861 245.824L117.343 247.011C116.376 246.612 115.5 246.413 114.715 246.413C114.023 246.413 113.502 246.521 113.15 246.738C112.799 246.955 112.623 247.254 112.623 247.635C112.623 247.893 112.688 248.112 112.816 248.294C112.951 248.476 113.165 248.648 113.458 248.812C113.751 248.977 114.313 249.214 115.146 249.524C116.288 249.94 117.059 250.359 117.457 250.781C117.861 251.203 118.063 251.733 118.063 252.372ZM121.816 245.367V251.616C121.816 252.401 121.995 252.987 122.353 253.374C122.71 253.761 123.27 253.954 124.031 253.954C125.039 253.954 125.774 253.679 126.237 253.128C126.706 252.577 126.94 251.678 126.94 250.43V245.367H128.399V255H127.195L126.984 253.708H126.905C126.606 254.183 126.19 254.546 125.657 254.798C125.13 255.05 124.526 255.176 123.847 255.176C122.675 255.176 121.796 254.897 121.21 254.341C120.63 253.784 120.34 252.894 120.34 251.669V245.367H121.816ZM135.896 245.191C136.324 245.191 136.708 245.227 137.048 245.297L136.846 246.65C136.447 246.562 136.096 246.519 135.791 246.519C135.012 246.519 134.344 246.835 133.787 247.468C133.236 248.101 132.961 248.889 132.961 249.832V255H131.502V245.367H132.706L132.873 247.151H132.943C133.301 246.524 133.731 246.041 134.235 245.701C134.739 245.361 135.293 245.191 135.896 245.191ZM142.919 255.176C141.495 255.176 140.37 254.742 139.544 253.875C138.724 253.008 138.313 251.804 138.313 250.263C138.313 248.71 138.694 247.477 139.456 246.562C140.224 245.648 141.252 245.191 142.541 245.191C143.748 245.191 144.703 245.59 145.406 246.387C146.109 247.178 146.461 248.224 146.461 249.524V250.447H139.825C139.854 251.578 140.139 252.437 140.678 253.022C141.223 253.608 141.987 253.901 142.972 253.901C144.009 253.901 145.034 253.685 146.048 253.251V254.552C145.532 254.774 145.043 254.933 144.58 255.026C144.123 255.126 143.569 255.176 142.919 255.176ZM142.523 246.413C141.75 246.413 141.132 246.665 140.669 247.169C140.212 247.673 139.942 248.37 139.86 249.261H144.896C144.896 248.341 144.691 247.638 144.281 247.151C143.871 246.659 143.285 246.413 142.523 246.413ZM155.171 252.372C155.171 253.269 154.837 253.96 154.169 254.446C153.501 254.933 152.563 255.176 151.356 255.176C150.079 255.176 149.083 254.974 148.368 254.569V253.216C148.831 253.45 149.326 253.635 149.854 253.77C150.387 253.904 150.899 253.972 151.392 253.972C152.153 253.972 152.739 253.852 153.149 253.611C153.56 253.365 153.765 252.993 153.765 252.495C153.765 252.12 153.601 251.801 153.272 251.537C152.95 251.268 152.317 250.951 151.374 250.588C150.478 250.254 149.839 249.964 149.458 249.718C149.083 249.466 148.802 249.182 148.614 248.865C148.433 248.549 148.342 248.171 148.342 247.731C148.342 246.946 148.661 246.328 149.3 245.877C149.938 245.42 150.814 245.191 151.928 245.191C152.965 245.191 153.979 245.402 154.969 245.824L154.45 247.011C153.483 246.612 152.607 246.413 151.822 246.413C151.131 246.413 150.609 246.521 150.258 246.738C149.906 246.955 149.73 247.254 149.73 247.635C149.73 247.893 149.795 248.112 149.924 248.294C150.059 248.476 150.272 248.648 150.565 248.812C150.858 248.977 151.421 249.214 152.253 249.524C153.396 249.94 154.166 250.359 154.564 250.781C154.969 251.203 155.171 251.733 155.171 252.372ZM168.1 248.268H172.468V254.517C171.788 254.733 171.097 254.897 170.394 255.009C169.69 255.12 168.876 255.176 167.95 255.176C166.005 255.176 164.49 254.599 163.406 253.444C162.322 252.284 161.78 250.661 161.78 248.575C161.78 247.239 162.047 246.07 162.58 245.068C163.119 244.061 163.893 243.293 164.9 242.766C165.908 242.232 167.089 241.966 168.442 241.966C169.813 241.966 171.091 242.218 172.274 242.722L171.694 244.04C170.534 243.548 169.418 243.302 168.346 243.302C166.781 243.302 165.56 243.768 164.681 244.699C163.802 245.631 163.362 246.923 163.362 248.575C163.362 250.31 163.784 251.625 164.628 252.521C165.478 253.418 166.723 253.866 168.363 253.866C169.254 253.866 170.124 253.764 170.974 253.559V249.604H168.1V248.268ZM183.656 250.175C183.656 251.745 183.261 252.973 182.47 253.857C181.679 254.736 180.586 255.176 179.191 255.176C178.33 255.176 177.565 254.974 176.897 254.569C176.229 254.165 175.714 253.585 175.351 252.829C174.987 252.073 174.806 251.188 174.806 250.175C174.806 248.604 175.198 247.383 175.983 246.51C176.769 245.631 177.858 245.191 179.253 245.191C180.601 245.191 181.67 245.64 182.461 246.536C183.258 247.433 183.656 248.646 183.656 250.175ZM176.317 250.175C176.317 251.405 176.563 252.343 177.056 252.987C177.548 253.632 178.271 253.954 179.227 253.954C180.182 253.954 180.905 253.635 181.397 252.996C181.896 252.352 182.145 251.411 182.145 250.175C182.145 248.95 181.896 248.021 181.397 247.389C180.905 246.75 180.176 246.431 179.209 246.431C178.254 246.431 177.533 246.744 177.047 247.371C176.561 247.998 176.317 248.933 176.317 250.175ZM194.537 250.175C194.537 251.745 194.142 252.973 193.351 253.857C192.56 254.736 191.467 255.176 190.072 255.176C189.211 255.176 188.446 254.974 187.778 254.569C187.11 254.165 186.595 253.585 186.231 252.829C185.868 252.073 185.687 251.188 185.687 250.175C185.687 248.604 186.079 247.383 186.864 246.51C187.649 245.631 188.739 245.191 190.134 245.191C191.481 245.191 192.551 245.64 193.342 246.536C194.139 247.433 194.537 248.646 194.537 250.175ZM187.198 250.175C187.198 251.405 187.444 252.343 187.937 252.987C188.429 253.632 189.152 253.954 190.107 253.954C191.062 253.954 191.786 253.635 192.278 252.996C192.776 252.352 193.025 251.411 193.025 250.175C193.025 248.95 192.776 248.021 192.278 247.389C191.786 246.75 191.057 246.431 190.09 246.431C189.135 246.431 188.414 246.744 187.928 247.371C187.441 247.998 187.198 248.933 187.198 250.175ZM204.987 245.367V246.29L203.203 246.501C203.367 246.706 203.514 246.976 203.643 247.31C203.771 247.638 203.836 248.01 203.836 248.426C203.836 249.369 203.514 250.122 202.869 250.685C202.225 251.247 201.34 251.528 200.215 251.528C199.928 251.528 199.658 251.505 199.406 251.458C198.785 251.786 198.475 252.199 198.475 252.697C198.475 252.961 198.583 253.157 198.8 253.286C199.017 253.409 199.389 253.471 199.916 253.471H201.621C202.664 253.471 203.464 253.69 204.021 254.13C204.583 254.569 204.864 255.208 204.864 256.046C204.864 257.112 204.437 257.924 203.581 258.48C202.726 259.043 201.478 259.324 199.837 259.324C198.577 259.324 197.604 259.09 196.919 258.621C196.239 258.152 195.899 257.49 195.899 256.635C195.899 256.049 196.087 255.542 196.462 255.114C196.837 254.687 197.364 254.396 198.044 254.244C197.798 254.133 197.59 253.96 197.42 253.726C197.256 253.491 197.174 253.219 197.174 252.908C197.174 252.557 197.268 252.249 197.455 251.985C197.643 251.722 197.938 251.467 198.343 251.221C197.845 251.016 197.438 250.667 197.121 250.175C196.811 249.683 196.655 249.12 196.655 248.487C196.655 247.433 196.972 246.621 197.604 246.053C198.237 245.479 199.134 245.191 200.294 245.191C200.798 245.191 201.252 245.25 201.656 245.367H204.987ZM197.306 256.617C197.306 257.139 197.525 257.534 197.965 257.804C198.404 258.073 199.034 258.208 199.854 258.208C201.079 258.208 201.984 258.023 202.57 257.654C203.162 257.291 203.458 256.796 203.458 256.169C203.458 255.647 203.297 255.284 202.975 255.079C202.652 254.88 202.046 254.78 201.155 254.78H199.406C198.744 254.78 198.229 254.938 197.859 255.255C197.49 255.571 197.306 256.025 197.306 256.617ZM198.097 248.452C198.097 249.126 198.287 249.636 198.668 249.981C199.049 250.327 199.579 250.5 200.259 250.5C201.683 250.5 202.395 249.809 202.395 248.426C202.395 246.979 201.674 246.255 200.232 246.255C199.547 246.255 199.02 246.439 198.65 246.809C198.281 247.178 198.097 247.726 198.097 248.452ZM208.424 255H206.965V241.324H208.424V255ZM215.587 255.176C214.163 255.176 213.038 254.742 212.212 253.875C211.392 253.008 210.981 251.804 210.981 250.263C210.981 248.71 211.362 247.477 212.124 246.562C212.892 245.648 213.92 245.191 215.209 245.191C216.416 245.191 217.371 245.59 218.074 246.387C218.777 247.178 219.129 248.224 219.129 249.524V250.447H212.493C212.522 251.578 212.807 252.437 213.346 253.022C213.891 253.608 214.655 253.901 215.64 253.901C216.677 253.901 217.702 253.685 218.716 253.251V254.552C218.2 254.774 217.711 254.933 217.248 255.026C216.791 255.126 216.237 255.176 215.587 255.176ZM215.191 246.413C214.418 246.413 213.8 246.665 213.337 247.169C212.88 247.673 212.61 248.37 212.528 249.261H217.564C217.564 248.341 217.359 247.638 216.949 247.151C216.539 246.659 215.953 246.413 215.191 246.413ZM227.76 255H226.301V245.367H227.76V255ZM226.178 242.757C226.178 242.423 226.26 242.18 226.424 242.027C226.588 241.869 226.793 241.79 227.039 241.79C227.273 241.79 227.476 241.869 227.646 242.027C227.815 242.186 227.9 242.429 227.9 242.757C227.9 243.085 227.815 243.331 227.646 243.495C227.476 243.653 227.273 243.732 227.039 243.732C226.793 243.732 226.588 243.653 226.424 243.495C226.26 243.331 226.178 243.085 226.178 242.757ZM237.067 252.372C237.067 253.269 236.733 253.96 236.065 254.446C235.397 254.933 234.46 255.176 233.253 255.176C231.976 255.176 230.979 254.974 230.265 254.569V253.216C230.728 253.45 231.223 253.635 231.75 253.77C232.283 253.904 232.796 253.972 233.288 253.972C234.05 253.972 234.636 253.852 235.046 253.611C235.456 253.365 235.661 252.993 235.661 252.495C235.661 252.12 235.497 251.801 235.169 251.537C234.847 251.268 234.214 250.951 233.271 250.588C232.374 250.254 231.735 249.964 231.354 249.718C230.979 249.466 230.698 249.182 230.511 248.865C230.329 248.549 230.238 248.171 230.238 247.731C230.238 246.946 230.558 246.328 231.196 245.877C231.835 245.42 232.711 245.191 233.824 245.191C234.861 245.191 235.875 245.402 236.865 245.824L236.347 247.011C235.38 246.612 234.504 246.413 233.719 246.413C233.027 246.413 232.506 246.521 232.154 246.738C231.803 246.955 231.627 247.254 231.627 247.635C231.627 247.893 231.691 248.112 231.82 248.294C231.955 248.476 232.169 248.648 232.462 248.812C232.755 248.977 233.317 249.214 234.149 249.524C235.292 249.94 236.062 250.359 236.461 250.781C236.865 251.203 237.067 251.733 237.067 252.372ZM245.566 250.069C245.818 249.712 246.202 249.243 246.718 248.663L249.829 245.367H251.561L247.658 249.472L251.833 255H250.066L246.665 250.447L245.566 251.396V255H244.125V241.324H245.566V248.575C245.566 248.897 245.543 249.396 245.496 250.069H245.566ZM257.651 255.176C256.228 255.176 255.103 254.742 254.276 253.875C253.456 253.008 253.046 251.804 253.046 250.263C253.046 248.71 253.427 247.477 254.188 246.562C254.956 245.648 255.984 245.191 257.273 245.191C258.48 245.191 259.436 245.59 260.139 246.387C260.842 247.178 261.193 248.224 261.193 249.524V250.447H254.558C254.587 251.578 254.871 252.437 255.41 253.022C255.955 253.608 256.72 253.901 257.704 253.901C258.741 253.901 259.767 253.685 260.78 253.251V254.552C260.265 254.774 259.775 254.933 259.312 255.026C258.855 255.126 258.302 255.176 257.651 255.176ZM257.256 246.413C256.482 246.413 255.864 246.665 255.401 247.169C254.944 247.673 254.675 248.37 254.593 249.261H259.629C259.629 248.341 259.424 247.638 259.014 247.151C258.604 246.659 258.018 246.413 257.256 246.413ZM268.172 255.176C267.545 255.176 266.971 255.062 266.449 254.833C265.934 254.599 265.5 254.241 265.148 253.761H265.043C265.113 254.323 265.148 254.856 265.148 255.36V259.324H263.689V245.367H264.876L265.078 246.686H265.148C265.523 246.158 265.96 245.777 266.458 245.543C266.956 245.309 267.527 245.191 268.172 245.191C269.449 245.191 270.434 245.628 271.125 246.501C271.822 247.374 272.171 248.599 272.171 250.175C272.171 251.757 271.816 252.987 271.107 253.866C270.404 254.739 269.426 255.176 268.172 255.176ZM267.961 246.431C266.977 246.431 266.265 246.703 265.825 247.248C265.386 247.793 265.16 248.66 265.148 249.85V250.175C265.148 251.528 265.374 252.498 265.825 253.084C266.276 253.664 267 253.954 267.996 253.954C268.828 253.954 269.479 253.617 269.947 252.943C270.422 252.27 270.659 251.341 270.659 250.157C270.659 248.956 270.422 248.036 269.947 247.397C269.479 246.753 268.816 246.431 267.961 246.431ZM277.84 253.972C278.098 253.972 278.347 253.954 278.587 253.919C278.827 253.878 279.018 253.837 279.158 253.796V254.912C279 254.988 278.766 255.05 278.455 255.097C278.15 255.149 277.875 255.176 277.629 255.176C275.766 255.176 274.834 254.194 274.834 252.231V246.501H273.454V245.798L274.834 245.191L275.449 243.135H276.293V245.367H279.088V246.501H276.293V252.17C276.293 252.75 276.431 253.195 276.706 253.506C276.981 253.816 277.359 253.972 277.84 253.972ZM287.227 255H285.768V245.367H287.227V255ZM285.645 242.757C285.645 242.423 285.727 242.18 285.891 242.027C286.055 241.869 286.26 241.79 286.506 241.79C286.74 241.79 286.942 241.869 287.112 242.027C287.282 242.186 287.367 242.429 287.367 242.757C287.367 243.085 287.282 243.331 287.112 243.495C286.942 243.653 286.74 243.732 286.506 243.732C286.26 243.732 286.055 243.653 285.891 243.495C285.727 243.331 285.645 243.085 285.645 242.757ZM296.912 255V248.769C296.912 247.983 296.733 247.397 296.376 247.011C296.019 246.624 295.459 246.431 294.697 246.431C293.689 246.431 292.951 246.703 292.482 247.248C292.014 247.793 291.779 248.692 291.779 249.946V255H290.32V245.367H291.507L291.744 246.686H291.814C292.113 246.211 292.532 245.845 293.071 245.587C293.61 245.323 294.211 245.191 294.873 245.191C296.033 245.191 296.906 245.473 297.492 246.035C298.078 246.592 298.371 247.485 298.371 248.716V255H296.912ZM309.164 253.972C309.422 253.972 309.671 253.954 309.911 253.919C310.151 253.878 310.342 253.837 310.482 253.796V254.912C310.324 254.988 310.09 255.05 309.779 255.097C309.475 255.149 309.199 255.176 308.953 255.176C307.09 255.176 306.158 254.194 306.158 252.231V246.501H304.778V245.798L306.158 245.191L306.773 243.135H307.617V245.367H310.412V246.501H307.617V252.17C307.617 252.75 307.755 253.195 308.03 253.506C308.306 253.816 308.684 253.972 309.164 253.972ZM319.008 255V248.769C319.008 247.983 318.829 247.397 318.472 247.011C318.114 246.624 317.555 246.431 316.793 246.431C315.779 246.431 315.038 246.706 314.569 247.257C314.106 247.808 313.875 248.71 313.875 249.964V255H312.416V241.324H313.875V245.464C313.875 245.962 313.852 246.375 313.805 246.703H313.893C314.18 246.24 314.587 245.877 315.114 245.613C315.647 245.344 316.254 245.209 316.934 245.209C318.111 245.209 318.993 245.49 319.579 246.053C320.171 246.609 320.467 247.497 320.467 248.716V255H319.008ZM327.542 255.176C326.118 255.176 324.993 254.742 324.167 253.875C323.347 253.008 322.937 251.804 322.937 250.263C322.937 248.71 323.317 247.477 324.079 246.562C324.847 245.648 325.875 245.191 327.164 245.191C328.371 245.191 329.326 245.59 330.029 246.387C330.732 247.178 331.084 248.224 331.084 249.524V250.447H324.448C324.478 251.578 324.762 252.437 325.301 253.022C325.846 253.608 326.61 253.901 327.595 253.901C328.632 253.901 329.657 253.685 330.671 253.251V254.552C330.155 254.774 329.666 254.933 329.203 255.026C328.746 255.126 328.192 255.176 327.542 255.176ZM327.146 246.413C326.373 246.413 325.755 246.665 325.292 247.169C324.835 247.673 324.565 248.37 324.483 249.261H329.52C329.52 248.341 329.314 247.638 328.904 247.151C328.494 246.659 327.908 246.413 327.146 246.413ZM339.715 255H338.256V241.324H339.715V255ZM351.123 250.175C351.123 251.745 350.728 252.973 349.937 253.857C349.146 254.736 348.053 255.176 346.658 255.176C345.797 255.176 345.032 254.974 344.364 254.569C343.696 254.165 343.181 253.585 342.817 252.829C342.454 252.073 342.272 251.188 342.272 250.175C342.272 248.604 342.665 247.383 343.45 246.51C344.235 245.631 345.325 245.191 346.72 245.191C348.067 245.191 349.137 245.64 349.928 246.536C350.725 247.433 351.123 248.646 351.123 250.175ZM343.784 250.175C343.784 251.405 344.03 252.343 344.522 252.987C345.015 253.632 345.738 253.954 346.693 253.954C347.648 253.954 348.372 253.635 348.864 252.996C349.362 252.352 349.611 251.411 349.611 250.175C349.611 248.95 349.362 248.021 348.864 247.389C348.372 246.75 347.643 246.431 346.676 246.431C345.721 246.431 345 246.744 344.514 247.371C344.027 247.998 343.784 248.933 343.784 250.175ZM362.004 250.175C362.004 251.745 361.608 252.973 360.817 253.857C360.026 254.736 358.934 255.176 357.539 255.176C356.678 255.176 355.913 254.974 355.245 254.569C354.577 254.165 354.062 253.585 353.698 252.829C353.335 252.073 353.153 251.188 353.153 250.175C353.153 248.604 353.546 247.383 354.331 246.51C355.116 245.631 356.206 245.191 357.601 245.191C358.948 245.191 360.018 245.64 360.809 246.536C361.605 247.433 362.004 248.646 362.004 250.175ZM354.665 250.175C354.665 251.405 354.911 252.343 355.403 252.987C355.896 253.632 356.619 253.954 357.574 253.954C358.529 253.954 359.253 253.635 359.745 252.996C360.243 252.352 360.492 251.411 360.492 250.175C360.492 248.95 360.243 248.021 359.745 247.389C359.253 246.75 358.523 246.431 357.557 246.431C356.602 246.431 355.881 246.744 355.395 247.371C354.908 247.998 354.665 248.933 354.665 250.175ZM369.053 255.176C368.426 255.176 367.852 255.062 367.33 254.833C366.814 254.599 366.381 254.241 366.029 253.761H365.924C365.994 254.323 366.029 254.856 366.029 255.36V259.324H364.57V245.367H365.757L365.959 246.686H366.029C366.404 246.158 366.841 245.777 367.339 245.543C367.837 245.309 368.408 245.191 369.053 245.191C370.33 245.191 371.314 245.628 372.006 246.501C372.703 247.374 373.052 248.599 373.052 250.175C373.052 251.757 372.697 252.987 371.988 253.866C371.285 254.739 370.307 255.176 369.053 255.176ZM368.842 246.431C367.857 246.431 367.146 246.703 366.706 247.248C366.267 247.793 366.041 248.66 366.029 249.85V250.175C366.029 251.528 366.255 252.498 366.706 253.084C367.157 253.664 367.881 253.954 368.877 253.954C369.709 253.954 370.359 253.617 370.828 252.943C371.303 252.27 371.54 251.341 371.54 250.157C371.54 248.956 371.303 248.036 370.828 247.397C370.359 246.753 369.697 246.431 368.842 246.431ZM375.398 254.068C375.398 253.676 375.486 253.38 375.662 253.181C375.844 252.976 376.102 252.873 376.436 252.873C376.775 252.873 377.039 252.976 377.227 253.181C377.42 253.38 377.517 253.676 377.517 254.068C377.517 254.449 377.42 254.742 377.227 254.947C377.033 255.152 376.77 255.255 376.436 255.255C376.137 255.255 375.888 255.164 375.688 254.982C375.495 254.795 375.398 254.49 375.398 254.068Z" fill="black"/>
<path d="M243.613 100H225.413C224.272 100 223.166 99.6106 222.278 98.8958C221.389 98.181 220.772 97.1839 220.528 96.07L218.493 86.65C215.778 85.4605 213.204 83.9731 210.818 82.215L201.633 85.14C200.545 85.4867 199.372 85.4511 198.308 85.0391C197.244 84.627 196.353 83.8634 195.783 82.875L186.663 67.12C186.098 66.1307 185.887 64.9791 186.062 63.8538C186.237 62.7284 186.789 61.6958 187.628 60.925L194.753 54.425C194.429 51.4806 194.429 48.5094 194.753 45.565L187.628 39.08C186.788 38.3089 186.235 37.2754 186.06 36.1489C185.885 35.0225 186.097 33.8699 186.663 32.88L195.763 17.115C196.333 16.1266 197.224 15.363 198.288 14.9509C199.352 14.5389 200.525 14.5033 201.613 14.85L210.798 17.775C212.018 16.875 213.288 16.035 214.598 15.275C215.863 14.565 217.163 13.92 218.493 13.345L220.533 3.935C220.775 2.82099 221.392 1.82344 222.279 1.10774C223.167 0.392049 224.272 0.00119983 225.413 0H243.613C244.753 0.00119983 245.858 0.392049 246.746 1.10774C247.633 1.82344 248.25 2.82099 248.493 3.935L250.553 13.35C251.953 13.97 253.323 14.665 254.648 15.44C255.883 16.155 257.078 16.94 258.228 17.785L267.418 14.86C268.504 14.5146 269.676 14.5509 270.739 14.9628C271.802 15.3748 272.693 16.1376 273.263 17.125L282.363 32.89C283.523 34.925 283.123 37.5 281.398 39.085L274.273 45.585C274.597 48.5294 274.597 51.5006 274.273 54.445L281.398 60.945C283.123 62.535 283.523 65.105 282.363 67.14L273.263 82.905C272.692 83.8934 271.801 84.6571 270.737 85.0691C269.673 85.4811 268.5 85.5167 267.413 85.17L258.228 82.245C255.843 84.0017 253.271 85.4876 250.558 86.675L248.493 96.07C248.249 97.1831 247.632 98.1795 246.745 98.8942C245.857 99.6089 244.752 99.999 243.613 100ZM234.493 30C229.188 30 224.101 32.1071 220.35 35.8579C216.6 39.6086 214.493 44.6957 214.493 50C214.493 55.3043 216.6 60.3914 220.35 64.1421C224.101 67.8929 229.188 70 234.493 70C239.797 70 244.884 67.8929 248.635 64.1421C252.385 60.3914 254.493 55.3043 254.493 50C254.493 44.6957 252.385 39.6086 248.635 35.8579C244.884 32.1071 239.797 30 234.493 30Z" fill="#0166A3"/>
</svg>
