<svg width="470" height="294" viewBox="0 0 470 294" fill="none" xmlns="http://www.w3.org/2000/svg">
<path d="M0 55C0 46.7157 6.71573 40 15 40H455C463.284 40 470 46.7157 470 55V279C470 287.284 463.284 294 455 294H15C6.71573 294 0 287.284 0 279V55Z" fill="#F0F8FC"/>
<path d="M93.7598 179.087C93.7598 182.612 92.7539 185.312 90.7422 187.188C88.7402 189.062 85.8447 190 82.0557 190H75.9912V168.584H82.7148C86.2109 168.584 88.9258 169.507 90.8594 171.353C92.793 173.198 93.7598 175.776 93.7598 179.087ZM89.043 179.204C89.043 174.604 87.0117 172.305 82.9492 172.305H80.5322V186.25H82.4805C86.8555 186.25 89.043 183.901 89.043 179.204ZM110.532 190H98.1982V168.584H110.532V172.305H102.739V177.007H109.99V180.728H102.739V186.25H110.532V190ZM123.276 190H118.735V172.363H112.92V168.584H129.092V172.363H123.276V190ZM145.498 190L143.945 184.902H136.138L134.585 190H129.692L137.251 168.496H142.803L150.391 190H145.498ZM142.861 181.094C141.426 176.475 140.615 173.862 140.43 173.257C140.254 172.651 140.127 172.173 140.049 171.821C139.727 173.071 138.804 176.162 137.28 181.094H142.861ZM153.101 190V168.584H157.642V190H153.101ZM163.032 190V168.584H167.573V186.25H176.26V190H163.032ZM192.329 190H179.995V168.584H192.329V172.305H184.536V177.007H191.787V180.728H184.536V186.25H192.329V190ZM214.58 179.087C214.58 182.612 213.574 185.312 211.562 187.188C209.561 189.062 206.665 190 202.876 190H196.812V168.584H203.535C207.031 168.584 209.746 169.507 211.68 171.353C213.613 173.198 214.58 175.776 214.58 179.087ZM209.863 179.204C209.863 174.604 207.832 172.305 203.77 172.305H201.353V186.25H203.301C207.676 186.25 209.863 183.901 209.863 179.204ZM231.353 178.091H232.817C234.253 178.091 235.312 177.852 235.996 177.373C236.68 176.895 237.021 176.143 237.021 175.117C237.021 174.102 236.67 173.379 235.967 172.949C235.273 172.52 234.194 172.305 232.729 172.305H231.353V178.091ZM231.353 181.782V190H226.812V168.584H233.052C235.962 168.584 238.115 169.116 239.512 170.181C240.908 171.235 241.606 172.842 241.606 175C241.606 176.26 241.26 177.383 240.566 178.369C239.873 179.346 238.892 180.112 237.622 180.669C240.845 185.483 242.944 188.594 243.921 190H238.882L233.77 181.782H231.353ZM258.95 190H246.616V168.584H258.95V172.305H251.157V177.007H258.408V180.728H251.157V186.25H258.95V190ZM267.974 178.662H269.468C270.864 178.662 271.909 178.389 272.603 177.842C273.296 177.285 273.643 176.479 273.643 175.425C273.643 174.36 273.35 173.574 272.764 173.066C272.188 172.559 271.279 172.305 270.039 172.305H267.974V178.662ZM278.228 175.264C278.228 177.568 277.505 179.331 276.06 180.552C274.624 181.772 272.578 182.383 269.922 182.383H267.974V190H263.433V168.584H270.273C272.871 168.584 274.844 169.146 276.191 170.269C277.549 171.382 278.228 173.047 278.228 175.264ZM301.709 179.263C301.709 182.808 300.83 185.532 299.072 187.437C297.314 189.341 294.795 190.293 291.514 190.293C288.232 190.293 285.713 189.341 283.955 187.437C282.197 185.532 281.318 182.798 281.318 179.233C281.318 175.669 282.197 172.949 283.955 171.074C285.723 169.189 288.252 168.247 291.543 168.247C294.834 168.247 297.349 169.194 299.087 171.089C300.835 172.983 301.709 175.708 301.709 179.263ZM286.079 179.263C286.079 181.655 286.533 183.457 287.441 184.668C288.35 185.879 289.707 186.484 291.514 186.484C295.137 186.484 296.948 184.077 296.948 179.263C296.948 174.438 295.146 172.026 291.543 172.026C289.736 172.026 288.374 172.637 287.456 173.857C286.538 175.068 286.079 176.87 286.079 179.263ZM310.688 178.091H312.153C313.589 178.091 314.648 177.852 315.332 177.373C316.016 176.895 316.357 176.143 316.357 175.117C316.357 174.102 316.006 173.379 315.303 172.949C314.609 172.52 313.53 172.305 312.065 172.305H310.688V178.091ZM310.688 181.782V190H306.147V168.584H312.388C315.298 168.584 317.451 169.116 318.848 170.181C320.244 171.235 320.942 172.842 320.942 175C320.942 176.26 320.596 177.383 319.902 178.369C319.209 179.346 318.228 180.112 316.958 180.669C320.181 185.483 322.28 188.594 323.257 190H318.218L313.105 181.782H310.688ZM334.214 190H329.673V172.363H323.857V168.584H340.029V172.363H334.214V190ZM343.325 190V168.584H347.866V190H343.325ZM372.256 190H366.484L357.168 173.799H357.036C357.222 176.66 357.314 178.701 357.314 179.922V190H353.257V168.584H358.984L368.286 184.624H368.389C368.242 181.841 368.169 179.873 368.169 178.721V168.584H372.256V190ZM385.791 177.974H394.287V189.077C392.91 189.526 391.611 189.839 390.391 190.015C389.18 190.2 387.939 190.293 386.67 190.293C383.438 190.293 380.967 189.346 379.258 187.451C377.559 185.547 376.709 182.817 376.709 179.263C376.709 175.806 377.695 173.11 379.668 171.177C381.65 169.243 384.395 168.276 387.9 168.276C390.098 168.276 392.217 168.716 394.258 169.595L392.749 173.228C391.187 172.446 389.561 172.056 387.871 172.056C385.908 172.056 384.336 172.715 383.154 174.033C381.973 175.352 381.382 177.124 381.382 179.351C381.382 181.675 381.855 183.452 382.803 184.683C383.76 185.903 385.146 186.514 386.963 186.514C387.91 186.514 388.872 186.416 389.849 186.221V181.753H385.791V177.974Z" fill="black"/>
<path d="M55.9424 228L54.3428 223.913H49.1924L47.6104 228H46.0986L51.1787 215.098H52.4355L57.4893 228H55.9424ZM53.877 222.568L52.3828 218.587C52.1895 218.083 51.9902 217.465 51.7852 216.732C51.6562 217.295 51.4717 217.913 51.2314 218.587L49.7197 222.568H53.877ZM68.0537 219.501H65.6016V228H64.1426V219.501H62.4199V218.842L64.1426 218.314V217.778C64.1426 215.411 65.1768 214.228 67.2451 214.228C67.7549 214.228 68.3525 214.33 69.0381 214.535L68.6602 215.704C68.0977 215.522 67.6172 215.432 67.2188 215.432C66.668 215.432 66.2607 215.616 65.9971 215.985C65.7334 216.349 65.6016 216.935 65.6016 217.743V218.367H68.0537V219.501ZM71.2705 228H69.8115V218.367H71.2705V228ZM69.6885 215.757C69.6885 215.423 69.7705 215.18 69.9346 215.027C70.0986 214.869 70.3037 214.79 70.5498 214.79C70.7842 214.79 70.9863 214.869 71.1562 215.027C71.3262 215.186 71.4111 215.429 71.4111 215.757C71.4111 216.085 71.3262 216.331 71.1562 216.495C70.9863 216.653 70.7842 216.732 70.5498 216.732C70.3037 216.732 70.0986 216.653 69.9346 216.495C69.7705 216.331 69.6885 216.085 69.6885 215.757ZM80.9561 228V221.769C80.9561 220.983 80.7773 220.397 80.4199 220.011C80.0625 219.624 79.5029 219.431 78.7412 219.431C77.7334 219.431 76.9951 219.703 76.5264 220.248C76.0576 220.793 75.8232 221.692 75.8232 222.946V228H74.3643V218.367H75.5508L75.7881 219.686H75.8584C76.1572 219.211 76.5762 218.845 77.1152 218.587C77.6543 218.323 78.2549 218.191 78.917 218.191C80.0771 218.191 80.9502 218.473 81.5361 219.035C82.1221 219.592 82.415 220.485 82.415 221.716V228H80.9561ZM91.3447 228L91.0547 226.629H90.9844C90.5039 227.232 90.0234 227.643 89.543 227.859C89.0684 228.07 88.4736 228.176 87.7588 228.176C86.8037 228.176 86.0537 227.93 85.5088 227.438C84.9697 226.945 84.7002 226.245 84.7002 225.337C84.7002 223.392 86.2559 222.372 89.3672 222.278L91.002 222.226V221.628C91.002 220.872 90.8379 220.315 90.5098 219.958C90.1875 219.595 89.6689 219.413 88.9541 219.413C88.1514 219.413 87.2432 219.659 86.2295 220.151L85.7812 219.035C86.2559 218.777 86.7744 218.575 87.3369 218.429C87.9053 218.282 88.4736 218.209 89.042 218.209C90.1904 218.209 91.04 218.464 91.5908 218.974C92.1475 219.483 92.4258 220.301 92.4258 221.426V228H91.3447ZM88.0488 226.972C88.957 226.972 89.6689 226.723 90.1846 226.225C90.7061 225.727 90.9668 225.029 90.9668 224.133V223.263L89.5078 223.324C88.3477 223.365 87.5098 223.547 86.9941 223.869C86.4844 224.186 86.2295 224.681 86.2295 225.354C86.2295 225.882 86.3877 226.283 86.7041 226.559C87.0264 226.834 87.4746 226.972 88.0488 226.972ZM96.8994 228H95.4404V214.324H96.8994V228ZM109.063 218.191C109.491 218.191 109.875 218.227 110.215 218.297L110.013 219.65C109.614 219.562 109.263 219.519 108.958 219.519C108.179 219.519 107.511 219.835 106.954 220.468C106.403 221.101 106.128 221.889 106.128 222.832V228H104.669V218.367H105.873L106.04 220.151H106.11C106.468 219.524 106.898 219.041 107.402 218.701C107.906 218.361 108.46 218.191 109.063 218.191ZM116.086 228.176C114.662 228.176 113.537 227.742 112.711 226.875C111.891 226.008 111.48 224.804 111.48 223.263C111.48 221.71 111.861 220.477 112.623 219.562C113.391 218.648 114.419 218.191 115.708 218.191C116.915 218.191 117.87 218.59 118.573 219.387C119.276 220.178 119.628 221.224 119.628 222.524V223.447H112.992C113.021 224.578 113.306 225.437 113.845 226.022C114.39 226.608 115.154 226.901 116.139 226.901C117.176 226.901 118.201 226.685 119.215 226.251V227.552C118.699 227.774 118.21 227.933 117.747 228.026C117.29 228.126 116.736 228.176 116.086 228.176ZM115.69 219.413C114.917 219.413 114.299 219.665 113.836 220.169C113.379 220.673 113.109 221.37 113.027 222.261H118.063C118.063 221.341 117.858 220.638 117.448 220.151C117.038 219.659 116.452 219.413 115.69 219.413ZM126.606 228.176C125.979 228.176 125.405 228.062 124.884 227.833C124.368 227.599 123.935 227.241 123.583 226.761H123.478C123.548 227.323 123.583 227.856 123.583 228.36V232.324H122.124V218.367H123.311L123.513 219.686H123.583C123.958 219.158 124.395 218.777 124.893 218.543C125.391 218.309 125.962 218.191 126.606 218.191C127.884 218.191 128.868 218.628 129.56 219.501C130.257 220.374 130.605 221.599 130.605 223.175C130.605 224.757 130.251 225.987 129.542 226.866C128.839 227.739 127.86 228.176 126.606 228.176ZM126.396 219.431C125.411 219.431 124.699 219.703 124.26 220.248C123.82 220.793 123.595 221.66 123.583 222.85V223.175C123.583 224.528 123.809 225.498 124.26 226.084C124.711 226.664 125.435 226.954 126.431 226.954C127.263 226.954 127.913 226.617 128.382 225.943C128.856 225.27 129.094 224.341 129.094 223.157C129.094 221.956 128.856 221.036 128.382 220.397C127.913 219.753 127.251 219.431 126.396 219.431ZM141.478 223.175C141.478 224.745 141.082 225.973 140.291 226.857C139.5 227.736 138.407 228.176 137.013 228.176C136.151 228.176 135.387 227.974 134.719 227.569C134.051 227.165 133.535 226.585 133.172 225.829C132.809 225.073 132.627 224.188 132.627 223.175C132.627 221.604 133.02 220.383 133.805 219.51C134.59 218.631 135.68 218.191 137.074 218.191C138.422 218.191 139.491 218.64 140.282 219.536C141.079 220.433 141.478 221.646 141.478 223.175ZM134.139 223.175C134.139 224.405 134.385 225.343 134.877 225.987C135.369 226.632 136.093 226.954 137.048 226.954C138.003 226.954 138.727 226.635 139.219 225.996C139.717 225.352 139.966 224.411 139.966 223.175C139.966 221.95 139.717 221.021 139.219 220.389C138.727 219.75 137.997 219.431 137.03 219.431C136.075 219.431 135.354 219.744 134.868 220.371C134.382 220.998 134.139 221.933 134.139 223.175ZM148.438 218.191C148.866 218.191 149.25 218.227 149.59 218.297L149.388 219.65C148.989 219.562 148.638 219.519 148.333 219.519C147.554 219.519 146.886 219.835 146.329 220.468C145.778 221.101 145.503 221.889 145.503 222.832V228H144.044V218.367H145.248L145.415 220.151H145.485C145.843 219.524 146.273 219.041 146.777 218.701C147.281 218.361 147.835 218.191 148.438 218.191ZM154.503 226.972C154.761 226.972 155.01 226.954 155.25 226.919C155.49 226.878 155.681 226.837 155.821 226.796V227.912C155.663 227.988 155.429 228.05 155.118 228.097C154.813 228.149 154.538 228.176 154.292 228.176C152.429 228.176 151.497 227.194 151.497 225.231V219.501H150.117V218.798L151.497 218.191L152.112 216.135H152.956V218.367H155.751V219.501H152.956V225.17C152.956 225.75 153.094 226.195 153.369 226.506C153.645 226.816 154.022 226.972 154.503 226.972ZM163.89 228H162.431V218.367H163.89V228ZM162.308 215.757C162.308 215.423 162.39 215.18 162.554 215.027C162.718 214.869 162.923 214.79 163.169 214.79C163.403 214.79 163.605 214.869 163.775 215.027C163.945 215.186 164.03 215.429 164.03 215.757C164.03 216.085 163.945 216.331 163.775 216.495C163.605 216.653 163.403 216.732 163.169 216.732C162.923 216.732 162.718 216.653 162.554 216.495C162.39 216.331 162.308 216.085 162.308 215.757ZM173.197 225.372C173.197 226.269 172.863 226.96 172.195 227.446C171.527 227.933 170.59 228.176 169.383 228.176C168.105 228.176 167.109 227.974 166.395 227.569V226.216C166.857 226.45 167.353 226.635 167.88 226.77C168.413 226.904 168.926 226.972 169.418 226.972C170.18 226.972 170.766 226.852 171.176 226.611C171.586 226.365 171.791 225.993 171.791 225.495C171.791 225.12 171.627 224.801 171.299 224.537C170.977 224.268 170.344 223.951 169.4 223.588C168.504 223.254 167.865 222.964 167.484 222.718C167.109 222.466 166.828 222.182 166.641 221.865C166.459 221.549 166.368 221.171 166.368 220.731C166.368 219.946 166.688 219.328 167.326 218.877C167.965 218.42 168.841 218.191 169.954 218.191C170.991 218.191 172.005 218.402 172.995 218.824L172.477 220.011C171.51 219.612 170.634 219.413 169.849 219.413C169.157 219.413 168.636 219.521 168.284 219.738C167.933 219.955 167.757 220.254 167.757 220.635C167.757 220.893 167.821 221.112 167.95 221.294C168.085 221.476 168.299 221.648 168.592 221.812C168.885 221.977 169.447 222.214 170.279 222.524C171.422 222.94 172.192 223.359 172.591 223.781C172.995 224.203 173.197 224.733 173.197 225.372ZM188.139 218.367V219.29L186.354 219.501C186.519 219.706 186.665 219.976 186.794 220.31C186.923 220.638 186.987 221.01 186.987 221.426C186.987 222.369 186.665 223.122 186.021 223.685C185.376 224.247 184.491 224.528 183.366 224.528C183.079 224.528 182.81 224.505 182.558 224.458C181.937 224.786 181.626 225.199 181.626 225.697C181.626 225.961 181.734 226.157 181.951 226.286C182.168 226.409 182.54 226.471 183.067 226.471H184.772C185.815 226.471 186.615 226.69 187.172 227.13C187.734 227.569 188.016 228.208 188.016 229.046C188.016 230.112 187.588 230.924 186.732 231.48C185.877 232.043 184.629 232.324 182.988 232.324C181.729 232.324 180.756 232.09 180.07 231.621C179.391 231.152 179.051 230.49 179.051 229.635C179.051 229.049 179.238 228.542 179.613 228.114C179.988 227.687 180.516 227.396 181.195 227.244C180.949 227.133 180.741 226.96 180.571 226.726C180.407 226.491 180.325 226.219 180.325 225.908C180.325 225.557 180.419 225.249 180.606 224.985C180.794 224.722 181.09 224.467 181.494 224.221C180.996 224.016 180.589 223.667 180.272 223.175C179.962 222.683 179.807 222.12 179.807 221.487C179.807 220.433 180.123 219.621 180.756 219.053C181.389 218.479 182.285 218.191 183.445 218.191C183.949 218.191 184.403 218.25 184.808 218.367H188.139ZM180.457 229.617C180.457 230.139 180.677 230.534 181.116 230.804C181.556 231.073 182.186 231.208 183.006 231.208C184.23 231.208 185.136 231.023 185.722 230.654C186.313 230.291 186.609 229.796 186.609 229.169C186.609 228.647 186.448 228.284 186.126 228.079C185.804 227.88 185.197 227.78 184.307 227.78H182.558C181.896 227.78 181.38 227.938 181.011 228.255C180.642 228.571 180.457 229.025 180.457 229.617ZM181.248 221.452C181.248 222.126 181.438 222.636 181.819 222.981C182.2 223.327 182.73 223.5 183.41 223.5C184.834 223.5 185.546 222.809 185.546 221.426C185.546 219.979 184.825 219.255 183.384 219.255C182.698 219.255 182.171 219.439 181.802 219.809C181.433 220.178 181.248 220.726 181.248 221.452ZM194.186 228.176C192.762 228.176 191.637 227.742 190.811 226.875C189.99 226.008 189.58 224.804 189.58 223.263C189.58 221.71 189.961 220.477 190.723 219.562C191.49 218.648 192.519 218.191 193.808 218.191C195.015 218.191 195.97 218.59 196.673 219.387C197.376 220.178 197.728 221.224 197.728 222.524V223.447H191.092C191.121 224.578 191.405 225.437 191.944 226.022C192.489 226.608 193.254 226.901 194.238 226.901C195.275 226.901 196.301 226.685 197.314 226.251V227.552C196.799 227.774 196.31 227.933 195.847 228.026C195.39 228.126 194.836 228.176 194.186 228.176ZM193.79 219.413C193.017 219.413 192.398 219.665 191.936 220.169C191.479 220.673 191.209 221.37 191.127 222.261H196.163C196.163 221.341 195.958 220.638 195.548 220.151C195.138 219.659 194.552 219.413 193.79 219.413ZM206.815 228V221.769C206.815 220.983 206.637 220.397 206.279 220.011C205.922 219.624 205.362 219.431 204.601 219.431C203.593 219.431 202.854 219.703 202.386 220.248C201.917 220.793 201.683 221.692 201.683 222.946V228H200.224V218.367H201.41L201.647 219.686H201.718C202.017 219.211 202.436 218.845 202.975 218.587C203.514 218.323 204.114 218.191 204.776 218.191C205.937 218.191 206.81 218.473 207.396 219.035C207.981 219.592 208.274 220.485 208.274 221.716V228H206.815ZM215.35 228.176C213.926 228.176 212.801 227.742 211.975 226.875C211.154 226.008 210.744 224.804 210.744 223.263C210.744 221.71 211.125 220.477 211.887 219.562C212.654 218.648 213.683 218.191 214.972 218.191C216.179 218.191 217.134 218.59 217.837 219.387C218.54 220.178 218.892 221.224 218.892 222.524V223.447H212.256C212.285 224.578 212.569 225.437 213.108 226.022C213.653 226.608 214.418 226.901 215.402 226.901C216.439 226.901 217.465 226.685 218.479 226.251V227.552C217.963 227.774 217.474 227.933 217.011 228.026C216.554 228.126 216 228.176 215.35 228.176ZM214.954 219.413C214.181 219.413 213.562 219.665 213.1 220.169C212.643 220.673 212.373 221.37 212.291 222.261H217.327C217.327 221.341 217.122 220.638 216.712 220.151C216.302 219.659 215.716 219.413 214.954 219.413ZM225.782 218.191C226.21 218.191 226.594 218.227 226.934 218.297L226.731 219.65C226.333 219.562 225.981 219.519 225.677 219.519C224.897 219.519 224.229 219.835 223.673 220.468C223.122 221.101 222.847 221.889 222.847 222.832V228H221.388V218.367H222.592L222.759 220.151H222.829C223.187 219.524 223.617 219.041 224.121 218.701C224.625 218.361 225.179 218.191 225.782 218.191ZM234.659 228L234.369 226.629H234.299C233.818 227.232 233.338 227.643 232.857 227.859C232.383 228.07 231.788 228.176 231.073 228.176C230.118 228.176 229.368 227.93 228.823 227.438C228.284 226.945 228.015 226.245 228.015 225.337C228.015 223.392 229.57 222.372 232.682 222.278L234.316 222.226V221.628C234.316 220.872 234.152 220.315 233.824 219.958C233.502 219.595 232.983 219.413 232.269 219.413C231.466 219.413 230.558 219.659 229.544 220.151L229.096 219.035C229.57 218.777 230.089 218.575 230.651 218.429C231.22 218.282 231.788 218.209 232.356 218.209C233.505 218.209 234.354 218.464 234.905 218.974C235.462 219.483 235.74 220.301 235.74 221.426V228H234.659ZM231.363 226.972C232.271 226.972 232.983 226.723 233.499 226.225C234.021 225.727 234.281 225.029 234.281 224.133V223.263L232.822 223.324C231.662 223.365 230.824 223.547 230.309 223.869C229.799 224.186 229.544 224.681 229.544 225.354C229.544 225.882 229.702 226.283 230.019 226.559C230.341 226.834 230.789 226.972 231.363 226.972ZM241.866 226.972C242.124 226.972 242.373 226.954 242.613 226.919C242.854 226.878 243.044 226.837 243.185 226.796V227.912C243.026 227.988 242.792 228.05 242.481 228.097C242.177 228.149 241.901 228.176 241.655 228.176C239.792 228.176 238.86 227.194 238.86 225.231V219.501H237.48V218.798L238.86 218.191L239.476 216.135H240.319V218.367H243.114V219.501H240.319V225.17C240.319 225.75 240.457 226.195 240.732 226.506C241.008 226.816 241.386 226.972 241.866 226.972ZM249.188 228.176C247.764 228.176 246.639 227.742 245.812 226.875C244.992 226.008 244.582 224.804 244.582 223.263C244.582 221.71 244.963 220.477 245.725 219.562C246.492 218.648 247.521 218.191 248.81 218.191C250.017 218.191 250.972 218.59 251.675 219.387C252.378 220.178 252.729 221.224 252.729 222.524V223.447H246.094C246.123 224.578 246.407 225.437 246.946 226.022C247.491 226.608 248.256 226.901 249.24 226.901C250.277 226.901 251.303 226.685 252.316 226.251V227.552C251.801 227.774 251.312 227.933 250.849 228.026C250.392 228.126 249.838 228.176 249.188 228.176ZM248.792 219.413C248.019 219.413 247.4 219.665 246.938 220.169C246.48 220.673 246.211 221.37 246.129 222.261H251.165C251.165 221.341 250.96 220.638 250.55 220.151C250.14 219.659 249.554 219.413 248.792 219.413ZM261.782 226.708H261.703C261.029 227.687 260.021 228.176 258.68 228.176C257.42 228.176 256.438 227.745 255.735 226.884C255.038 226.022 254.689 224.798 254.689 223.21C254.689 221.622 255.041 220.389 255.744 219.51C256.447 218.631 257.426 218.191 258.68 218.191C259.986 218.191 260.988 218.666 261.686 219.615H261.8L261.738 218.921L261.703 218.244V214.324H263.162V228H261.976L261.782 226.708ZM258.864 226.954C259.86 226.954 260.581 226.685 261.026 226.146C261.478 225.601 261.703 224.725 261.703 223.518V223.21C261.703 221.845 261.475 220.872 261.018 220.292C260.566 219.706 259.843 219.413 258.847 219.413C257.991 219.413 257.335 219.747 256.878 220.415C256.427 221.077 256.201 222.015 256.201 223.228C256.201 224.458 256.427 225.387 256.878 226.014C257.329 226.641 257.991 226.954 258.864 226.954ZM279.255 223.175C279.255 224.745 278.859 225.973 278.068 226.857C277.277 227.736 276.185 228.176 274.79 228.176C273.929 228.176 273.164 227.974 272.496 227.569C271.828 227.165 271.312 226.585 270.949 225.829C270.586 225.073 270.404 224.188 270.404 223.175C270.404 221.604 270.797 220.383 271.582 219.51C272.367 218.631 273.457 218.191 274.852 218.191C276.199 218.191 277.269 218.64 278.06 219.536C278.856 220.433 279.255 221.646 279.255 223.175ZM271.916 223.175C271.916 224.405 272.162 225.343 272.654 225.987C273.146 226.632 273.87 226.954 274.825 226.954C275.78 226.954 276.504 226.635 276.996 225.996C277.494 225.352 277.743 224.411 277.743 223.175C277.743 221.95 277.494 221.021 276.996 220.389C276.504 219.75 275.774 219.431 274.808 219.431C273.853 219.431 273.132 219.744 272.646 220.371C272.159 220.998 271.916 221.933 271.916 223.175ZM283.192 218.367V224.616C283.192 225.401 283.371 225.987 283.729 226.374C284.086 226.761 284.646 226.954 285.407 226.954C286.415 226.954 287.15 226.679 287.613 226.128C288.082 225.577 288.316 224.678 288.316 223.43V218.367H289.775V228H288.571L288.36 226.708H288.281C287.982 227.183 287.566 227.546 287.033 227.798C286.506 228.05 285.902 228.176 285.223 228.176C284.051 228.176 283.172 227.897 282.586 227.341C282.006 226.784 281.716 225.894 281.716 224.669V218.367H283.192ZM295.989 226.972C296.247 226.972 296.496 226.954 296.736 226.919C296.977 226.878 297.167 226.837 297.308 226.796V227.912C297.149 227.988 296.915 228.05 296.604 228.097C296.3 228.149 296.024 228.176 295.778 228.176C293.915 228.176 292.983 227.194 292.983 225.231V219.501H291.604V218.798L292.983 218.191L293.599 216.135H294.442V218.367H297.237V219.501H294.442V225.17C294.442 225.75 294.58 226.195 294.855 226.506C295.131 226.816 295.509 226.972 295.989 226.972ZM300.7 228H299.241V214.324H300.7V228ZM305.253 228H303.794V218.367H305.253V228ZM303.671 215.757C303.671 215.423 303.753 215.18 303.917 215.027C304.081 214.869 304.286 214.79 304.532 214.79C304.767 214.79 304.969 214.869 305.139 215.027C305.309 215.186 305.394 215.429 305.394 215.757C305.394 216.085 305.309 216.331 305.139 216.495C304.969 216.653 304.767 216.732 304.532 216.732C304.286 216.732 304.081 216.653 303.917 216.495C303.753 216.331 303.671 216.085 303.671 215.757ZM314.938 228V221.769C314.938 220.983 314.76 220.397 314.402 220.011C314.045 219.624 313.485 219.431 312.724 219.431C311.716 219.431 310.978 219.703 310.509 220.248C310.04 220.793 309.806 221.692 309.806 222.946V228H308.347V218.367H309.533L309.771 219.686H309.841C310.14 219.211 310.559 218.845 311.098 218.587C311.637 218.323 312.237 218.191 312.899 218.191C314.06 218.191 314.933 218.473 315.519 219.035C316.104 219.592 316.397 220.485 316.397 221.716V228H314.938ZM320.862 228H319.403V218.367H320.862V228ZM319.28 215.757C319.28 215.423 319.362 215.18 319.526 215.027C319.69 214.869 319.896 214.79 320.142 214.79C320.376 214.79 320.578 214.869 320.748 215.027C320.918 215.186 321.003 215.429 321.003 215.757C321.003 216.085 320.918 216.331 320.748 216.495C320.578 216.653 320.376 216.732 320.142 216.732C319.896 216.732 319.69 216.653 319.526 216.495C319.362 216.331 319.28 216.085 319.28 215.757ZM330.548 228V221.769C330.548 220.983 330.369 220.397 330.012 220.011C329.654 219.624 329.095 219.431 328.333 219.431C327.325 219.431 326.587 219.703 326.118 220.248C325.649 220.793 325.415 221.692 325.415 222.946V228H323.956V218.367H325.143L325.38 219.686H325.45C325.749 219.211 326.168 218.845 326.707 218.587C327.246 218.323 327.847 218.191 328.509 218.191C329.669 218.191 330.542 218.473 331.128 219.035C331.714 219.592 332.007 220.485 332.007 221.716V228H330.548ZM342.896 218.367V219.29L341.112 219.501C341.276 219.706 341.423 219.976 341.552 220.31C341.681 220.638 341.745 221.01 341.745 221.426C341.745 222.369 341.423 223.122 340.778 223.685C340.134 224.247 339.249 224.528 338.124 224.528C337.837 224.528 337.567 224.505 337.315 224.458C336.694 224.786 336.384 225.199 336.384 225.697C336.384 225.961 336.492 226.157 336.709 226.286C336.926 226.409 337.298 226.471 337.825 226.471H339.53C340.573 226.471 341.373 226.69 341.93 227.13C342.492 227.569 342.773 228.208 342.773 229.046C342.773 230.112 342.346 230.924 341.49 231.48C340.635 232.043 339.387 232.324 337.746 232.324C336.486 232.324 335.514 232.09 334.828 231.621C334.148 231.152 333.809 230.49 333.809 229.635C333.809 229.049 333.996 228.542 334.371 228.114C334.746 227.687 335.273 227.396 335.953 227.244C335.707 227.133 335.499 226.96 335.329 226.726C335.165 226.491 335.083 226.219 335.083 225.908C335.083 225.557 335.177 225.249 335.364 224.985C335.552 224.722 335.848 224.467 336.252 224.221C335.754 224.016 335.347 223.667 335.03 223.175C334.72 222.683 334.564 222.12 334.564 221.487C334.564 220.433 334.881 219.621 335.514 219.053C336.146 218.479 337.043 218.191 338.203 218.191C338.707 218.191 339.161 218.25 339.565 218.367H342.896ZM335.215 229.617C335.215 230.139 335.435 230.534 335.874 230.804C336.313 231.073 336.943 231.208 337.764 231.208C338.988 231.208 339.894 231.023 340.479 230.654C341.071 230.291 341.367 229.796 341.367 229.169C341.367 228.647 341.206 228.284 340.884 228.079C340.562 227.88 339.955 227.78 339.064 227.78H337.315C336.653 227.78 336.138 227.938 335.769 228.255C335.399 228.571 335.215 229.025 335.215 229.617ZM336.006 221.452C336.006 222.126 336.196 222.636 336.577 222.981C336.958 223.327 337.488 223.5 338.168 223.5C339.592 223.5 340.304 222.809 340.304 221.426C340.304 219.979 339.583 219.255 338.142 219.255C337.456 219.255 336.929 219.439 336.56 219.809C336.19 220.178 336.006 220.726 336.006 221.452ZM352.661 226.972C352.919 226.972 353.168 226.954 353.408 226.919C353.648 226.878 353.839 226.837 353.979 226.796V227.912C353.821 227.988 353.587 228.05 353.276 228.097C352.972 228.149 352.696 228.176 352.45 228.176C350.587 228.176 349.655 227.194 349.655 225.231V219.501H348.275V218.798L349.655 218.191L350.271 216.135H351.114V218.367H353.909V219.501H351.114V225.17C351.114 225.75 351.252 226.195 351.527 226.506C351.803 226.816 352.181 226.972 352.661 226.972ZM362.505 228V221.769C362.505 220.983 362.326 220.397 361.969 220.011C361.611 219.624 361.052 219.431 360.29 219.431C359.276 219.431 358.535 219.706 358.066 220.257C357.604 220.808 357.372 221.71 357.372 222.964V228H355.913V214.324H357.372V218.464C357.372 218.962 357.349 219.375 357.302 219.703H357.39C357.677 219.24 358.084 218.877 358.611 218.613C359.145 218.344 359.751 218.209 360.431 218.209C361.608 218.209 362.49 218.49 363.076 219.053C363.668 219.609 363.964 220.497 363.964 221.716V228H362.505ZM371.039 228.176C369.615 228.176 368.49 227.742 367.664 226.875C366.844 226.008 366.434 224.804 366.434 223.263C366.434 221.71 366.814 220.477 367.576 219.562C368.344 218.648 369.372 218.191 370.661 218.191C371.868 218.191 372.823 218.59 373.526 219.387C374.229 220.178 374.581 221.224 374.581 222.524V223.447H367.945C367.975 224.578 368.259 225.437 368.798 226.022C369.343 226.608 370.107 226.901 371.092 226.901C372.129 226.901 373.154 226.685 374.168 226.251V227.552C373.652 227.774 373.163 227.933 372.7 228.026C372.243 228.126 371.689 228.176 371.039 228.176ZM370.644 219.413C369.87 219.413 369.252 219.665 368.789 220.169C368.332 220.673 368.062 221.37 367.98 222.261H373.017C373.017 221.341 372.812 220.638 372.401 220.151C371.991 219.659 371.405 219.413 370.644 219.413ZM389.619 228L387.853 222.349C387.741 222.003 387.533 221.218 387.229 219.993H387.158C386.924 221.019 386.719 221.81 386.543 222.366L384.724 228H383.036L380.408 218.367H381.938C382.559 220.787 383.03 222.63 383.353 223.896C383.681 225.161 383.868 226.014 383.915 226.453H383.985C384.05 226.119 384.152 225.688 384.293 225.161C384.439 224.628 384.565 224.206 384.671 223.896L386.438 218.367H388.02L389.742 223.896C390.07 224.903 390.293 225.75 390.41 226.436H390.48C390.504 226.225 390.565 225.899 390.665 225.46C390.771 225.021 391.383 222.656 392.502 218.367H394.014L391.351 228H389.619ZM404.077 223.175C404.077 224.745 403.682 225.973 402.891 226.857C402.1 227.736 401.007 228.176 399.612 228.176C398.751 228.176 397.986 227.974 397.318 227.569C396.65 227.165 396.135 226.585 395.771 225.829C395.408 225.073 395.227 224.188 395.227 223.175C395.227 221.604 395.619 220.383 396.404 219.51C397.189 218.631 398.279 218.191 399.674 218.191C401.021 218.191 402.091 218.64 402.882 219.536C403.679 220.433 404.077 221.646 404.077 223.175ZM396.738 223.175C396.738 224.405 396.984 225.343 397.477 225.987C397.969 226.632 398.692 226.954 399.647 226.954C400.603 226.954 401.326 226.635 401.818 225.996C402.316 225.352 402.565 224.411 402.565 223.175C402.565 221.95 402.316 221.021 401.818 220.389C401.326 219.75 400.597 219.431 399.63 219.431C398.675 219.431 397.954 219.744 397.468 220.371C396.981 220.998 396.738 221.933 396.738 223.175ZM411.038 218.191C411.466 218.191 411.85 218.227 412.189 218.297L411.987 219.65C411.589 219.562 411.237 219.519 410.933 219.519C410.153 219.519 409.485 219.835 408.929 220.468C408.378 221.101 408.103 221.889 408.103 222.832V228H406.644V218.367H407.848L408.015 220.151H408.085C408.442 219.524 408.873 219.041 409.377 218.701C409.881 218.361 410.435 218.191 411.038 218.191ZM415.433 223.069C415.685 222.712 416.068 222.243 416.584 221.663L419.695 218.367H421.427L417.524 222.472L421.699 228H419.933L416.531 223.447L415.433 224.396V228H413.991V214.324H415.433V221.575C415.433 221.897 415.409 222.396 415.362 223.069H415.433ZM73.5381 253.176C72.1436 253.176 71.0625 252.748 70.2949 251.893C69.5332 251.031 69.1523 249.815 69.1523 248.245C69.1523 246.634 69.5391 245.389 70.3125 244.51C71.0918 243.631 72.1992 243.191 73.6348 243.191C74.0977 243.191 74.5605 243.241 75.0234 243.341C75.4863 243.44 75.8496 243.558 76.1133 243.692L75.665 244.932C75.3428 244.803 74.9912 244.697 74.6104 244.615C74.2295 244.527 73.8926 244.483 73.5996 244.483C71.6426 244.483 70.6641 245.731 70.6641 248.228C70.6641 249.411 70.9014 250.319 71.376 250.952C71.8564 251.585 72.5654 251.901 73.5029 251.901C74.3057 251.901 75.1289 251.729 75.9727 251.383V252.675C75.3281 253.009 74.5166 253.176 73.5381 253.176ZM86.5811 248.175C86.5811 249.745 86.1855 250.973 85.3945 251.857C84.6035 252.736 83.5107 253.176 82.1162 253.176C81.2549 253.176 80.4902 252.974 79.8223 252.569C79.1543 252.165 78.6387 251.585 78.2754 250.829C77.9121 250.073 77.7305 249.188 77.7305 248.175C77.7305 246.604 78.123 245.383 78.9082 244.51C79.6934 243.631 80.7832 243.191 82.1777 243.191C83.5254 243.191 84.5947 243.64 85.3857 244.536C86.1826 245.433 86.5811 246.646 86.5811 248.175ZM79.2422 248.175C79.2422 249.405 79.4883 250.343 79.9805 250.987C80.4727 251.632 81.1963 251.954 82.1514 251.954C83.1064 251.954 83.8301 251.635 84.3223 250.996C84.8203 250.352 85.0693 249.411 85.0693 248.175C85.0693 246.95 84.8203 246.021 84.3223 245.389C83.8301 244.75 83.1006 244.431 82.1338 244.431C81.1787 244.431 80.458 244.744 79.9717 245.371C79.4854 245.998 79.2422 246.933 79.2422 248.175ZM101.426 253V246.733C101.426 245.966 101.262 245.392 100.934 245.011C100.605 244.624 100.096 244.431 99.4043 244.431C98.4961 244.431 97.8252 244.691 97.3916 245.213C96.958 245.734 96.7412 246.537 96.7412 247.621V253H95.2822V246.733C95.2822 245.966 95.1182 245.392 94.79 245.011C94.4619 244.624 93.9492 244.431 93.252 244.431C92.3379 244.431 91.667 244.706 91.2393 245.257C90.8174 245.802 90.6064 246.698 90.6064 247.946V253H89.1475V243.367H90.334L90.5713 244.686H90.6416C90.917 244.217 91.3037 243.851 91.8018 243.587C92.3057 243.323 92.8682 243.191 93.4893 243.191C94.9951 243.191 95.9795 243.736 96.4424 244.826H96.5127C96.7998 244.322 97.2158 243.924 97.7607 243.631C98.3057 243.338 98.9268 243.191 99.624 243.191C100.714 243.191 101.528 243.473 102.067 244.035C102.612 244.592 102.885 245.485 102.885 246.716V253H101.426ZM110.382 253.176C109.755 253.176 109.181 253.062 108.659 252.833C108.144 252.599 107.71 252.241 107.358 251.761H107.253C107.323 252.323 107.358 252.856 107.358 253.36V257.324H105.899V243.367H107.086L107.288 244.686H107.358C107.733 244.158 108.17 243.777 108.668 243.543C109.166 243.309 109.737 243.191 110.382 243.191C111.659 243.191 112.644 243.628 113.335 244.501C114.032 245.374 114.381 246.599 114.381 248.175C114.381 249.757 114.026 250.987 113.317 251.866C112.614 252.739 111.636 253.176 110.382 253.176ZM110.171 244.431C109.187 244.431 108.475 244.703 108.035 245.248C107.596 245.793 107.37 246.66 107.358 247.85V248.175C107.358 249.528 107.584 250.498 108.035 251.084C108.486 251.664 109.21 251.954 110.206 251.954C111.038 251.954 111.688 251.617 112.157 250.943C112.632 250.27 112.869 249.341 112.869 248.157C112.869 246.956 112.632 246.036 112.157 245.397C111.688 244.753 111.026 244.431 110.171 244.431ZM118.397 253H116.938V239.324H118.397V253ZM125.561 253.176C124.137 253.176 123.012 252.742 122.186 251.875C121.365 251.008 120.955 249.804 120.955 248.263C120.955 246.71 121.336 245.477 122.098 244.562C122.865 243.648 123.894 243.191 125.183 243.191C126.39 243.191 127.345 243.59 128.048 244.387C128.751 245.178 129.103 246.224 129.103 247.524V248.447H122.467C122.496 249.578 122.78 250.437 123.319 251.022C123.864 251.608 124.629 251.901 125.613 251.901C126.65 251.901 127.676 251.685 128.689 251.251V252.552C128.174 252.774 127.685 252.933 127.222 253.026C126.765 253.126 126.211 253.176 125.561 253.176ZM125.165 244.413C124.392 244.413 123.773 244.665 123.311 245.169C122.854 245.673 122.584 246.37 122.502 247.261H127.538C127.538 246.341 127.333 245.638 126.923 245.151C126.513 244.659 125.927 244.413 125.165 244.413ZM134.71 251.972C134.968 251.972 135.217 251.954 135.457 251.919C135.697 251.878 135.888 251.837 136.028 251.796V252.912C135.87 252.988 135.636 253.05 135.325 253.097C135.021 253.149 134.745 253.176 134.499 253.176C132.636 253.176 131.704 252.194 131.704 250.231V244.501H130.324V243.798L131.704 243.191L132.319 241.135H133.163V243.367H135.958V244.501H133.163V250.17C133.163 250.75 133.301 251.195 133.576 251.506C133.852 251.816 134.229 251.972 134.71 251.972ZM142.031 253.176C140.607 253.176 139.482 252.742 138.656 251.875C137.836 251.008 137.426 249.804 137.426 248.263C137.426 246.71 137.807 245.477 138.568 244.562C139.336 243.648 140.364 243.191 141.653 243.191C142.86 243.191 143.815 243.59 144.519 244.387C145.222 245.178 145.573 246.224 145.573 247.524V248.447H138.938C138.967 249.578 139.251 250.437 139.79 251.022C140.335 251.608 141.1 251.901 142.084 251.901C143.121 251.901 144.146 251.685 145.16 251.251V252.552C144.645 252.774 144.155 252.933 143.692 253.026C143.235 253.126 142.682 253.176 142.031 253.176ZM141.636 244.413C140.862 244.413 140.244 244.665 139.781 245.169C139.324 245.673 139.055 246.37 138.973 247.261H144.009C144.009 246.341 143.804 245.638 143.394 245.151C142.983 244.659 142.397 244.413 141.636 244.413ZM154.626 251.708H154.547C153.873 252.687 152.865 253.176 151.523 253.176C150.264 253.176 149.282 252.745 148.579 251.884C147.882 251.022 147.533 249.798 147.533 248.21C147.533 246.622 147.885 245.389 148.588 244.51C149.291 243.631 150.27 243.191 151.523 243.191C152.83 243.191 153.832 243.666 154.529 244.615H154.644L154.582 243.921L154.547 243.244V239.324H156.006V253H154.819L154.626 251.708ZM151.708 251.954C152.704 251.954 153.425 251.685 153.87 251.146C154.321 250.601 154.547 249.725 154.547 248.518V248.21C154.547 246.845 154.318 245.872 153.861 245.292C153.41 244.706 152.687 244.413 151.69 244.413C150.835 244.413 150.179 244.747 149.722 245.415C149.271 246.077 149.045 247.015 149.045 248.228C149.045 249.458 149.271 250.387 149.722 251.014C150.173 251.641 150.835 251.954 151.708 251.954ZM169.708 253L169.418 251.629H169.348C168.867 252.232 168.387 252.643 167.906 252.859C167.432 253.07 166.837 253.176 166.122 253.176C165.167 253.176 164.417 252.93 163.872 252.438C163.333 251.945 163.063 251.245 163.063 250.337C163.063 248.392 164.619 247.372 167.73 247.278L169.365 247.226V246.628C169.365 245.872 169.201 245.315 168.873 244.958C168.551 244.595 168.032 244.413 167.317 244.413C166.515 244.413 165.606 244.659 164.593 245.151L164.145 244.035C164.619 243.777 165.138 243.575 165.7 243.429C166.269 243.282 166.837 243.209 167.405 243.209C168.554 243.209 169.403 243.464 169.954 243.974C170.511 244.483 170.789 245.301 170.789 246.426V253H169.708ZM166.412 251.972C167.32 251.972 168.032 251.723 168.548 251.225C169.069 250.727 169.33 250.029 169.33 249.133V248.263L167.871 248.324C166.711 248.365 165.873 248.547 165.357 248.869C164.848 249.186 164.593 249.681 164.593 250.354C164.593 250.882 164.751 251.283 165.067 251.559C165.39 251.834 165.838 251.972 166.412 251.972ZM180.396 253V246.769C180.396 245.983 180.217 245.397 179.859 245.011C179.502 244.624 178.942 244.431 178.181 244.431C177.173 244.431 176.435 244.703 175.966 245.248C175.497 245.793 175.263 246.692 175.263 247.946V253H173.804V243.367H174.99L175.228 244.686H175.298C175.597 244.211 176.016 243.845 176.555 243.587C177.094 243.323 177.694 243.191 178.356 243.191C179.517 243.191 180.39 243.473 180.976 244.035C181.562 244.592 181.854 245.485 181.854 246.716V253H180.396ZM191.417 251.708H191.338C190.664 252.687 189.656 253.176 188.314 253.176C187.055 253.176 186.073 252.745 185.37 251.884C184.673 251.022 184.324 249.798 184.324 248.21C184.324 246.622 184.676 245.389 185.379 244.51C186.082 243.631 187.061 243.191 188.314 243.191C189.621 243.191 190.623 243.666 191.32 244.615H191.435L191.373 243.921L191.338 243.244V239.324H192.797V253H191.61L191.417 251.708ZM188.499 251.954C189.495 251.954 190.216 251.685 190.661 251.146C191.112 250.601 191.338 249.725 191.338 248.518V248.21C191.338 246.845 191.109 245.872 190.652 245.292C190.201 244.706 189.478 244.413 188.481 244.413C187.626 244.413 186.97 244.747 186.513 245.415C186.062 246.077 185.836 247.015 185.836 248.228C185.836 249.458 186.062 250.387 186.513 251.014C186.964 251.641 187.626 251.954 188.499 251.954ZM203.687 251.972C203.944 251.972 204.193 251.954 204.434 251.919C204.674 251.878 204.864 251.837 205.005 251.796V252.912C204.847 252.988 204.612 253.05 204.302 253.097C203.997 253.149 203.722 253.176 203.476 253.176C201.612 253.176 200.681 252.194 200.681 250.231V244.501H199.301V243.798L200.681 243.191L201.296 241.135H202.14V243.367H204.935V244.501H202.14V250.17C202.14 250.75 202.277 251.195 202.553 251.506C202.828 251.816 203.206 251.972 203.687 251.972ZM213.53 253V246.769C213.53 245.983 213.352 245.397 212.994 245.011C212.637 244.624 212.077 244.431 211.315 244.431C210.302 244.431 209.561 244.706 209.092 245.257C208.629 245.808 208.397 246.71 208.397 247.964V253H206.938V239.324H208.397V243.464C208.397 243.962 208.374 244.375 208.327 244.703H208.415C208.702 244.24 209.109 243.877 209.637 243.613C210.17 243.344 210.776 243.209 211.456 243.209C212.634 243.209 213.516 243.49 214.102 244.053C214.693 244.609 214.989 245.497 214.989 246.716V253H213.53ZM222.064 253.176C220.641 253.176 219.516 252.742 218.689 251.875C217.869 251.008 217.459 249.804 217.459 248.263C217.459 246.71 217.84 245.477 218.602 244.562C219.369 243.648 220.397 243.191 221.687 243.191C222.894 243.191 223.849 243.59 224.552 244.387C225.255 245.178 225.606 246.224 225.606 247.524V248.447H218.971C219 249.578 219.284 250.437 219.823 251.022C220.368 251.608 221.133 251.901 222.117 251.901C223.154 251.901 224.18 251.685 225.193 251.251V252.552C224.678 252.774 224.188 252.933 223.726 253.026C223.269 253.126 222.715 253.176 222.064 253.176ZM221.669 244.413C220.896 244.413 220.277 244.665 219.814 245.169C219.357 245.673 219.088 246.37 219.006 247.261H224.042C224.042 246.341 223.837 245.638 223.427 245.151C223.017 244.659 222.431 244.413 221.669 244.413ZM237.173 243.191C237.601 243.191 237.984 243.227 238.324 243.297L238.122 244.65C237.724 244.562 237.372 244.519 237.067 244.519C236.288 244.519 235.62 244.835 235.063 245.468C234.513 246.101 234.237 246.889 234.237 247.832V253H232.778V243.367H233.982L234.149 245.151H234.22C234.577 244.524 235.008 244.041 235.512 243.701C236.016 243.361 236.569 243.191 237.173 243.191ZM244.195 253.176C242.771 253.176 241.646 252.742 240.82 251.875C240 251.008 239.59 249.804 239.59 248.263C239.59 246.71 239.971 245.477 240.732 244.562C241.5 243.648 242.528 243.191 243.817 243.191C245.024 243.191 245.979 243.59 246.683 244.387C247.386 245.178 247.737 246.224 247.737 247.524V248.447H241.102C241.131 249.578 241.415 250.437 241.954 251.022C242.499 251.608 243.264 251.901 244.248 251.901C245.285 251.901 246.311 251.685 247.324 251.251V252.552C246.809 252.774 246.319 252.933 245.856 253.026C245.399 253.126 244.846 253.176 244.195 253.176ZM243.8 244.413C243.026 244.413 242.408 244.665 241.945 245.169C241.488 245.673 241.219 246.37 241.137 247.261H246.173C246.173 246.341 245.968 245.638 245.558 245.151C245.147 244.659 244.562 244.413 243.8 244.413ZM256.447 250.372C256.447 251.269 256.113 251.96 255.445 252.446C254.777 252.933 253.84 253.176 252.633 253.176C251.355 253.176 250.359 252.974 249.645 252.569V251.216C250.107 251.45 250.603 251.635 251.13 251.77C251.663 251.904 252.176 251.972 252.668 251.972C253.43 251.972 254.016 251.852 254.426 251.611C254.836 251.365 255.041 250.993 255.041 250.495C255.041 250.12 254.877 249.801 254.549 249.537C254.227 249.268 253.594 248.951 252.65 248.588C251.754 248.254 251.115 247.964 250.734 247.718C250.359 247.466 250.078 247.182 249.891 246.865C249.709 246.549 249.618 246.171 249.618 245.731C249.618 244.946 249.938 244.328 250.576 243.877C251.215 243.42 252.091 243.191 253.204 243.191C254.241 243.191 255.255 243.402 256.245 243.824L255.727 245.011C254.76 244.612 253.884 244.413 253.099 244.413C252.407 244.413 251.886 244.521 251.534 244.738C251.183 244.955 251.007 245.254 251.007 245.635C251.007 245.893 251.071 246.112 251.2 246.294C251.335 246.476 251.549 246.648 251.842 246.812C252.135 246.977 252.697 247.214 253.529 247.524C254.672 247.94 255.442 248.359 255.841 248.781C256.245 249.203 256.447 249.733 256.447 250.372ZM260.2 243.367V249.616C260.2 250.401 260.379 250.987 260.736 251.374C261.094 251.761 261.653 251.954 262.415 251.954C263.423 251.954 264.158 251.679 264.621 251.128C265.09 250.577 265.324 249.678 265.324 248.43V243.367H266.783V253H265.579L265.368 251.708H265.289C264.99 252.183 264.574 252.546 264.041 252.798C263.514 253.05 262.91 253.176 262.23 253.176C261.059 253.176 260.18 252.897 259.594 252.341C259.014 251.784 258.724 250.894 258.724 249.669V243.367H260.2ZM271.345 253H269.886V239.324H271.345V253ZM277.55 251.972C277.808 251.972 278.057 251.954 278.297 251.919C278.537 251.878 278.728 251.837 278.868 251.796V252.912C278.71 252.988 278.476 253.05 278.165 253.097C277.86 253.149 277.585 253.176 277.339 253.176C275.476 253.176 274.544 252.194 274.544 250.231V244.501H273.164V243.798L274.544 243.191L275.159 241.135H276.003V243.367H278.798V244.501H276.003V250.17C276.003 250.75 276.141 251.195 276.416 251.506C276.691 251.816 277.069 251.972 277.55 251.972ZM293.792 248.175C293.792 249.745 293.396 250.973 292.605 251.857C291.814 252.736 290.722 253.176 289.327 253.176C288.466 253.176 287.701 252.974 287.033 252.569C286.365 252.165 285.85 251.585 285.486 250.829C285.123 250.073 284.941 249.188 284.941 248.175C284.941 246.604 285.334 245.383 286.119 244.51C286.904 243.631 287.994 243.191 289.389 243.191C290.736 243.191 291.806 243.64 292.597 244.536C293.394 245.433 293.792 246.646 293.792 248.175ZM286.453 248.175C286.453 249.405 286.699 250.343 287.191 250.987C287.684 251.632 288.407 251.954 289.362 251.954C290.317 251.954 291.041 251.635 291.533 250.996C292.031 250.352 292.28 249.411 292.28 248.175C292.28 246.95 292.031 246.021 291.533 245.389C291.041 244.75 290.312 244.431 289.345 244.431C288.39 244.431 287.669 244.744 287.183 245.371C286.696 245.998 286.453 246.933 286.453 248.175ZM300.7 244.501H298.248V253H296.789V244.501H295.066V243.842L296.789 243.314V242.778C296.789 240.411 297.823 239.228 299.892 239.228C300.401 239.228 300.999 239.33 301.685 239.535L301.307 240.704C300.744 240.522 300.264 240.432 299.865 240.432C299.314 240.432 298.907 240.616 298.644 240.985C298.38 241.349 298.248 241.935 298.248 242.743V243.367H300.7V244.501ZM315.448 248.175C315.448 249.745 315.053 250.973 314.262 251.857C313.471 252.736 312.378 253.176 310.983 253.176C310.122 253.176 309.357 252.974 308.689 252.569C308.021 252.165 307.506 251.585 307.143 250.829C306.779 250.073 306.598 249.188 306.598 248.175C306.598 246.604 306.99 245.383 307.775 244.51C308.561 243.631 309.65 243.191 311.045 243.191C312.393 243.191 313.462 243.64 314.253 244.536C315.05 245.433 315.448 246.646 315.448 248.175ZM308.109 248.175C308.109 249.405 308.355 250.343 308.848 250.987C309.34 251.632 310.063 251.954 311.019 251.954C311.974 251.954 312.697 251.635 313.189 250.996C313.688 250.352 313.937 249.411 313.937 248.175C313.937 246.95 313.688 246.021 313.189 245.389C312.697 244.75 311.968 244.431 311.001 244.431C310.046 244.431 309.325 244.744 308.839 245.371C308.353 245.998 308.109 246.933 308.109 248.175ZM319.386 243.367V249.616C319.386 250.401 319.564 250.987 319.922 251.374C320.279 251.761 320.839 251.954 321.601 251.954C322.608 251.954 323.344 251.679 323.807 251.128C324.275 250.577 324.51 249.678 324.51 248.43V243.367H325.969V253H324.765L324.554 251.708H324.475C324.176 252.183 323.76 252.546 323.227 252.798C322.699 253.05 322.096 253.176 321.416 253.176C320.244 253.176 319.365 252.897 318.779 252.341C318.199 251.784 317.909 250.894 317.909 249.669V243.367H319.386ZM333.466 243.191C333.894 243.191 334.277 243.227 334.617 243.297L334.415 244.65C334.017 244.562 333.665 244.519 333.36 244.519C332.581 244.519 331.913 244.835 331.356 245.468C330.806 246.101 330.53 246.889 330.53 247.832V253H329.071V243.367H330.275L330.442 245.151H330.513C330.87 244.524 331.301 244.041 331.805 243.701C332.309 243.361 332.862 243.191 333.466 243.191ZM345.164 253.176C343.74 253.176 342.615 252.742 341.789 251.875C340.969 251.008 340.559 249.804 340.559 248.263C340.559 246.71 340.939 245.477 341.701 244.562C342.469 243.648 343.497 243.191 344.786 243.191C345.993 243.191 346.948 243.59 347.651 244.387C348.354 245.178 348.706 246.224 348.706 247.524V248.447H342.07C342.1 249.578 342.384 250.437 342.923 251.022C343.468 251.608 344.232 251.901 345.217 251.901C346.254 251.901 347.279 251.685 348.293 251.251V252.552C347.777 252.774 347.288 252.933 346.825 253.026C346.368 253.126 345.814 253.176 345.164 253.176ZM344.769 244.413C343.995 244.413 343.377 244.665 342.914 245.169C342.457 245.673 342.188 246.37 342.105 247.261H347.142C347.142 246.341 346.937 245.638 346.526 245.151C346.116 244.659 345.53 244.413 344.769 244.413ZM361.644 244.501H359.191V253H357.732V244.501H356.01V243.842L357.732 243.314V242.778C357.732 240.411 358.767 239.228 360.835 239.228C361.345 239.228 361.942 239.33 362.628 239.535L362.25 240.704C361.688 240.522 361.207 240.432 360.809 240.432C360.258 240.432 359.851 240.616 359.587 240.985C359.323 241.349 359.191 241.935 359.191 242.743V243.367H361.644V244.501ZM355.544 244.501H353.092V253H351.633V244.501H349.91V243.842L351.633 243.314V242.778C351.633 240.411 352.667 239.228 354.735 239.228C355.245 239.228 355.843 239.33 356.528 239.535L356.15 240.704C355.588 240.522 355.107 240.432 354.709 240.432C354.158 240.432 353.751 240.616 353.487 240.985C353.224 241.349 353.092 241.935 353.092 242.743V243.367H355.544V244.501ZM371.733 248.175C371.733 249.745 371.338 250.973 370.547 251.857C369.756 252.736 368.663 253.176 367.269 253.176C366.407 253.176 365.643 252.974 364.975 252.569C364.307 252.165 363.791 251.585 363.428 250.829C363.064 250.073 362.883 249.188 362.883 248.175C362.883 246.604 363.275 245.383 364.061 244.51C364.846 243.631 365.936 243.191 367.33 243.191C368.678 243.191 369.747 243.64 370.538 244.536C371.335 245.433 371.733 246.646 371.733 248.175ZM364.395 248.175C364.395 249.405 364.641 250.343 365.133 250.987C365.625 251.632 366.349 251.954 367.304 251.954C368.259 251.954 368.982 251.635 369.475 250.996C369.973 250.352 370.222 249.411 370.222 248.175C370.222 246.95 369.973 246.021 369.475 245.389C368.982 244.75 368.253 244.431 367.286 244.431C366.331 244.431 365.61 244.744 365.124 245.371C364.638 245.998 364.395 246.933 364.395 248.175ZM378.694 243.191C379.122 243.191 379.506 243.227 379.846 243.297L379.644 244.65C379.245 244.562 378.894 244.519 378.589 244.519C377.81 244.519 377.142 244.835 376.585 245.468C376.034 246.101 375.759 246.889 375.759 247.832V253H374.3V243.367H375.504L375.671 245.151H375.741C376.099 244.524 376.529 244.041 377.033 243.701C377.537 243.361 378.091 243.191 378.694 243.191ZM384.759 251.972C385.017 251.972 385.266 251.954 385.506 251.919C385.746 251.878 385.937 251.837 386.077 251.796V252.912C385.919 252.988 385.685 253.05 385.374 253.097C385.069 253.149 384.794 253.176 384.548 253.176C382.685 253.176 381.753 252.194 381.753 250.231V244.501H380.373V243.798L381.753 243.191L382.368 241.135H383.212V243.367H386.007V244.501H383.212V250.17C383.212 250.75 383.35 251.195 383.625 251.506C383.9 251.816 384.278 251.972 384.759 251.972ZM394.225 250.372C394.225 251.269 393.891 251.96 393.223 252.446C392.555 252.933 391.617 253.176 390.41 253.176C389.133 253.176 388.137 252.974 387.422 252.569V251.216C387.885 251.45 388.38 251.635 388.907 251.77C389.44 251.904 389.953 251.972 390.445 251.972C391.207 251.972 391.793 251.852 392.203 251.611C392.613 251.365 392.818 250.993 392.818 250.495C392.818 250.12 392.654 249.801 392.326 249.537C392.004 249.268 391.371 248.951 390.428 248.588C389.531 248.254 388.893 247.964 388.512 247.718C388.137 247.466 387.855 247.182 387.668 246.865C387.486 246.549 387.396 246.171 387.396 245.731C387.396 244.946 387.715 244.328 388.354 243.877C388.992 243.42 389.868 243.191 390.981 243.191C392.019 243.191 393.032 243.402 394.022 243.824L393.504 245.011C392.537 244.612 391.661 244.413 390.876 244.413C390.185 244.413 389.663 244.521 389.312 244.738C388.96 244.955 388.784 245.254 388.784 245.635C388.784 245.893 388.849 246.112 388.978 246.294C389.112 246.476 389.326 246.648 389.619 246.812C389.912 246.977 390.475 247.214 391.307 247.524C392.449 247.94 393.22 248.359 393.618 248.781C394.022 249.203 394.225 249.733 394.225 250.372ZM396.396 252.068C396.396 251.676 396.483 251.38 396.659 251.181C396.841 250.976 397.099 250.873 397.433 250.873C397.772 250.873 398.036 250.976 398.224 251.181C398.417 251.38 398.514 251.676 398.514 252.068C398.514 252.449 398.417 252.742 398.224 252.947C398.03 253.152 397.767 253.255 397.433 253.255C397.134 253.255 396.885 253.164 396.686 252.982C396.492 252.795 396.396 252.49 396.396 252.068Z" fill="black"/>
<path d="M207.5 67.5H237.5V75H207.5V67.5Z" fill="#0166A3"/>
<path d="M207.5 48.75H252.5V56.25H207.5V48.75Z" fill="#0166A3"/>
<path d="M207.5 86.25H226.25V93.75H207.5V86.25Z" fill="#0166A3"/>
<path d="M263.75 18.75H252.5V15C252.5 13.0109 251.71 11.1032 250.303 9.6967C248.897 8.29018 246.989 7.5 245 7.5H215C213.011 7.5 211.103 8.29018 209.697 9.6967C208.29 11.1032 207.5 13.0109 207.5 15V18.75H196.25C194.261 18.75 192.353 19.5402 190.947 20.9467C189.54 22.3532 188.75 24.2609 188.75 26.25V105C188.75 106.989 189.54 108.897 190.947 110.303C192.353 111.71 194.261 112.5 196.25 112.5H263.75C265.739 112.5 267.647 111.71 269.053 110.303C270.46 108.897 271.25 106.989 271.25 105V26.25C271.25 24.2609 270.46 22.3532 269.053 20.9467C267.647 19.5402 265.739 18.75 263.75 18.75ZM215 15H245V30H215V15ZM263.75 105H196.25V26.25H207.5V37.5H252.5V26.25H263.75V105Z" fill="#0166A3"/>
</svg>
