<svg width="470" height="300" viewBox="0 0 470 300" fill="none" xmlns="http://www.w3.org/2000/svg">
<rect y="40" width="470" height="260" rx="15" fill="#F0F8FC"/>
<path d="M102.329 191.263C102.329 194.808 101.45 197.532 99.6924 199.437C97.9346 201.341 95.415 202.293 92.1338 202.293C88.8525 202.293 86.333 201.341 84.5752 199.437C82.8174 197.532 81.9385 194.798 81.9385 191.233C81.9385 187.669 82.8174 184.949 84.5752 183.074C86.3428 181.189 88.8721 180.247 92.1631 180.247C95.4541 180.247 97.9688 181.194 99.707 183.089C101.455 184.983 102.329 187.708 102.329 191.263ZM86.6992 191.263C86.6992 193.655 87.1533 195.457 88.0615 196.668C88.9697 197.879 90.3271 198.484 92.1338 198.484C95.7568 198.484 97.5684 196.077 97.5684 191.263C97.5684 186.438 95.7666 184.026 92.1631 184.026C90.3564 184.026 88.9941 184.637 88.0762 185.857C87.1582 187.068 86.6992 188.87 86.6992 191.263ZM111.235 202H106.768V180.584H119.043V184.305H111.235V189.827H118.501V193.533H111.235V202ZM127.7 202H123.232V180.584H135.508V184.305H127.7V189.827H134.966V193.533H127.7V202ZM139.697 202V180.584H144.238V202H139.697ZM158.726 184.056C157.017 184.056 155.693 184.7 154.756 185.989C153.818 187.269 153.35 189.056 153.35 191.351C153.35 196.126 155.142 198.514 158.726 198.514C160.229 198.514 162.051 198.138 164.189 197.386V201.194C162.432 201.927 160.469 202.293 158.301 202.293C155.186 202.293 152.803 201.351 151.152 199.466C149.502 197.571 148.677 194.856 148.677 191.321C148.677 189.095 149.082 187.146 149.893 185.477C150.703 183.797 151.865 182.513 153.379 181.624C154.902 180.726 156.685 180.276 158.726 180.276C160.806 180.276 162.896 180.779 164.995 181.785L163.53 185.477C162.729 185.096 161.924 184.764 161.113 184.48C160.303 184.197 159.507 184.056 158.726 184.056ZM181.094 202H168.76V180.584H181.094V184.305H173.301V189.007H180.552V192.728H173.301V198.25H181.094V202ZM206.011 185.374C206.011 186.712 205.605 187.85 204.795 188.787C203.984 189.725 202.847 190.369 201.382 190.721V190.809C203.11 191.023 204.419 191.551 205.308 192.391C206.196 193.221 206.641 194.344 206.641 195.76C206.641 197.82 205.894 199.427 204.399 200.579C202.905 201.722 200.771 202.293 197.998 202.293C195.674 202.293 193.613 201.907 191.816 201.136V197.283C192.646 197.703 193.56 198.045 194.556 198.309C195.552 198.572 196.538 198.704 197.515 198.704C199.009 198.704 200.112 198.45 200.825 197.942C201.538 197.435 201.895 196.619 201.895 195.496C201.895 194.49 201.484 193.777 200.664 193.357C199.844 192.938 198.535 192.728 196.738 192.728H195.112V189.256H196.768C198.428 189.256 199.639 189.041 200.4 188.611C201.172 188.172 201.558 187.425 201.558 186.37C201.558 184.749 200.542 183.938 198.511 183.938C197.808 183.938 197.09 184.056 196.357 184.29C195.635 184.524 194.829 184.93 193.94 185.506L191.846 182.386C193.799 180.979 196.128 180.276 198.833 180.276C201.05 180.276 202.798 180.726 204.077 181.624C205.366 182.522 206.011 183.772 206.011 185.374ZM208.867 192.903C208.867 188.665 209.761 185.511 211.548 183.44C213.345 181.37 216.03 180.335 219.604 180.335C220.825 180.335 221.782 180.408 222.476 180.555V184.173C221.606 183.978 220.747 183.88 219.897 183.88C218.345 183.88 217.075 184.114 216.089 184.583C215.112 185.052 214.38 185.745 213.892 186.663C213.403 187.581 213.115 188.885 213.027 190.574H213.218C214.185 188.914 215.732 188.084 217.861 188.084C219.775 188.084 221.274 188.685 222.358 189.886C223.442 191.087 223.984 192.747 223.984 194.866C223.984 197.151 223.34 198.963 222.051 200.301C220.762 201.629 218.975 202.293 216.689 202.293C215.107 202.293 213.726 201.927 212.544 201.194C211.372 200.462 210.464 199.393 209.819 197.986C209.185 196.58 208.867 194.886 208.867 192.903ZM216.602 198.675C217.568 198.675 218.311 198.353 218.828 197.708C219.346 197.054 219.604 196.126 219.604 194.925C219.604 193.88 219.36 193.06 218.872 192.464C218.394 191.858 217.666 191.556 216.689 191.556C215.771 191.556 214.985 191.854 214.331 192.449C213.687 193.045 213.364 193.738 213.364 194.529C213.364 195.691 213.667 196.673 214.272 197.474C214.888 198.274 215.664 198.675 216.602 198.675ZM233.945 188.318C236.016 188.318 237.661 188.899 238.882 190.062C240.112 191.224 240.728 192.815 240.728 194.837C240.728 197.229 239.99 199.07 238.516 200.359C237.041 201.648 234.932 202.293 232.188 202.293C229.805 202.293 227.881 201.907 226.416 201.136V197.225C227.188 197.635 228.086 197.972 229.111 198.235C230.137 198.489 231.108 198.616 232.026 198.616C234.79 198.616 236.172 197.483 236.172 195.218C236.172 193.06 234.741 191.98 231.88 191.98C231.362 191.98 230.791 192.034 230.166 192.142C229.541 192.239 229.033 192.347 228.643 192.464L226.841 191.497L227.646 180.584H239.263V184.422H231.616L231.221 188.626L231.733 188.523C232.329 188.387 233.066 188.318 233.945 188.318ZM248.813 198.851C248.306 200.823 247.446 203.162 246.235 205.867H243.013C243.647 203.27 244.141 200.818 244.492 198.514H248.594L248.813 198.851ZM269.409 189.974H277.905V201.077C276.528 201.526 275.229 201.839 274.009 202.015C272.798 202.2 271.558 202.293 270.288 202.293C267.056 202.293 264.585 201.346 262.876 199.451C261.177 197.547 260.327 194.817 260.327 191.263C260.327 187.806 261.313 185.11 263.286 183.177C265.269 181.243 268.013 180.276 271.519 180.276C273.716 180.276 275.835 180.716 277.876 181.595L276.367 185.228C274.805 184.446 273.179 184.056 271.489 184.056C269.526 184.056 267.954 184.715 266.772 186.033C265.591 187.352 265 189.124 265 191.351C265 193.675 265.474 195.452 266.421 196.683C267.378 197.903 268.765 198.514 270.581 198.514C271.528 198.514 272.49 198.416 273.467 198.221V193.753H269.409V189.974ZM281.216 195.789V192.127H289.082V195.789H281.216ZM305.327 196.053C305.327 197.986 304.629 199.51 303.232 200.623C301.846 201.736 299.912 202.293 297.432 202.293C295.146 202.293 293.125 201.863 291.367 201.004V196.785C292.812 197.43 294.033 197.884 295.029 198.147C296.035 198.411 296.953 198.543 297.783 198.543C298.779 198.543 299.541 198.353 300.068 197.972C300.605 197.591 300.874 197.024 300.874 196.272C300.874 195.853 300.757 195.481 300.522 195.159C300.288 194.827 299.941 194.51 299.482 194.207C299.033 193.904 298.11 193.421 296.714 192.757C295.405 192.142 294.424 191.551 293.77 190.984C293.115 190.418 292.593 189.759 292.202 189.007C291.812 188.255 291.616 187.376 291.616 186.37C291.616 184.476 292.256 182.986 293.535 181.902C294.824 180.818 296.602 180.276 298.867 180.276C299.98 180.276 301.04 180.408 302.046 180.672C303.062 180.936 304.121 181.307 305.225 181.785L303.76 185.315C302.617 184.847 301.67 184.52 300.918 184.334C300.176 184.148 299.443 184.056 298.721 184.056C297.861 184.056 297.202 184.256 296.743 184.656C296.284 185.057 296.055 185.579 296.055 186.224C296.055 186.624 296.147 186.976 296.333 187.278C296.519 187.571 296.812 187.859 297.212 188.143C297.622 188.416 298.584 188.914 300.098 189.637C302.1 190.594 303.472 191.556 304.214 192.522C304.956 193.479 305.327 194.656 305.327 196.053ZM326.641 180.584V194.441C326.641 196.023 326.284 197.41 325.571 198.602C324.868 199.793 323.848 200.706 322.51 201.341C321.172 201.976 319.59 202.293 317.764 202.293C315.01 202.293 312.871 201.59 311.348 200.184C309.824 198.768 309.062 196.834 309.062 194.383V180.584H313.589V193.694C313.589 195.345 313.921 196.556 314.585 197.327C315.249 198.099 316.348 198.484 317.881 198.484C319.365 198.484 320.439 198.099 321.104 197.327C321.777 196.546 322.114 195.325 322.114 193.665V180.584H326.641ZM331.885 202V180.584H336.426V202H331.885ZM350.078 202H345.537V184.363H339.722V180.584H355.894V184.363H350.078V202ZM371.523 202H359.189V180.584H371.523V184.305H363.73V189.007H370.981V192.728H363.73V198.25H371.523V202ZM380.034 198.851C379.526 200.823 378.667 203.162 377.456 205.867H374.233C374.868 203.27 375.361 200.818 375.713 198.514H379.814L380.034 198.851ZM142.231 221.584H148.896C151.934 221.584 154.136 222.019 155.503 222.888C156.88 223.747 157.568 225.119 157.568 227.004C157.568 228.283 157.266 229.333 156.66 230.153C156.064 230.974 155.269 231.467 154.272 231.633V231.779C155.63 232.082 156.606 232.648 157.202 233.479C157.808 234.309 158.11 235.412 158.11 236.789C158.11 238.742 157.402 240.266 155.986 241.359C154.58 242.453 152.666 243 150.244 243H142.231V221.584ZM146.772 230.065H149.409C150.64 230.065 151.528 229.875 152.075 229.494C152.632 229.113 152.91 228.483 152.91 227.604C152.91 226.784 152.607 226.198 152.002 225.847C151.406 225.485 150.459 225.305 149.16 225.305H146.772V230.065ZM146.772 233.669V239.25H149.731C150.981 239.25 151.904 239.011 152.5 238.532C153.096 238.054 153.394 237.321 153.394 236.335C153.394 234.558 152.124 233.669 149.585 233.669H146.772ZM181.826 232.263C181.826 235.808 180.947 238.532 179.189 240.437C177.432 242.341 174.912 243.293 171.631 243.293C168.35 243.293 165.83 242.341 164.072 240.437C162.314 238.532 161.436 235.798 161.436 232.233C161.436 228.669 162.314 225.949 164.072 224.074C165.84 222.189 168.369 221.247 171.66 221.247C174.951 221.247 177.466 222.194 179.204 224.089C180.952 225.983 181.826 228.708 181.826 232.263ZM166.196 232.263C166.196 234.655 166.65 236.457 167.559 237.668C168.467 238.879 169.824 239.484 171.631 239.484C175.254 239.484 177.065 237.077 177.065 232.263C177.065 227.438 175.264 225.026 171.66 225.026C169.854 225.026 168.491 225.637 167.573 226.857C166.655 228.068 166.196 229.87 166.196 232.263ZM203.579 243H198.394L193.413 234.899L188.433 243H183.569L190.674 231.955L184.023 221.584H189.033L193.647 229.289L198.174 221.584H203.066L196.343 232.204L203.579 243ZM233.872 243H228.35L226.665 241.345C224.8 242.644 222.69 243.293 220.337 243.293C217.954 243.293 216.064 242.746 214.668 241.652C213.271 240.559 212.573 239.079 212.573 237.214C212.573 235.876 212.866 234.738 213.452 233.801C214.048 232.854 215.063 231.97 216.499 231.149C215.767 230.31 215.234 229.509 214.902 228.747C214.57 227.976 214.404 227.136 214.404 226.228C214.404 224.743 214.971 223.547 216.104 222.639C217.246 221.73 218.77 221.276 220.674 221.276C222.49 221.276 223.94 221.701 225.024 222.551C226.118 223.391 226.665 224.519 226.665 225.935C226.665 227.097 226.328 228.161 225.654 229.128C224.98 230.085 223.892 230.998 222.388 231.867L226.548 235.925C227.241 234.782 227.842 233.312 228.35 231.516H233.008C232.656 232.834 232.173 234.123 231.558 235.383C230.942 236.633 230.244 237.741 229.463 238.708L233.872 243ZM217.275 236.789C217.275 237.629 217.588 238.298 218.213 238.796C218.848 239.294 219.658 239.543 220.645 239.543C221.875 239.543 222.983 239.245 223.97 238.649L219.106 233.815C218.54 234.245 218.091 234.694 217.759 235.163C217.437 235.632 217.275 236.174 217.275 236.789ZM222.534 226.403C222.534 225.886 222.358 225.48 222.007 225.188C221.655 224.885 221.201 224.733 220.645 224.733C219.99 224.733 219.473 224.89 219.092 225.202C218.721 225.515 218.535 225.959 218.535 226.535C218.535 227.395 218.999 228.342 219.927 229.377C220.767 228.908 221.411 228.449 221.86 228C222.31 227.541 222.534 227.009 222.534 226.403ZM253.428 243L248.271 226.198H248.14C248.325 229.616 248.418 231.896 248.418 233.039V243H244.36V221.584H250.542L255.61 237.961H255.698L261.074 221.584H267.256V243H263.022V232.863C263.022 232.385 263.027 231.833 263.037 231.208C263.057 230.583 263.125 228.923 263.242 226.228H263.11L257.588 243H253.428ZM292.1 232.263C292.1 235.808 291.221 238.532 289.463 240.437C287.705 242.341 285.186 243.293 281.904 243.293C278.623 243.293 276.104 242.341 274.346 240.437C272.588 238.532 271.709 235.798 271.709 232.233C271.709 228.669 272.588 225.949 274.346 224.074C276.113 222.189 278.643 221.247 281.934 221.247C285.225 221.247 287.739 222.194 289.478 224.089C291.226 225.983 292.1 228.708 292.1 232.263ZM276.47 232.263C276.47 234.655 276.924 236.457 277.832 237.668C278.74 238.879 280.098 239.484 281.904 239.484C285.527 239.484 287.339 237.077 287.339 232.263C287.339 227.438 285.537 225.026 281.934 225.026C280.127 225.026 278.765 225.637 277.847 226.857C276.929 228.068 276.47 229.87 276.47 232.263ZM301.079 231.091H302.544C303.979 231.091 305.039 230.852 305.723 230.373C306.406 229.895 306.748 229.143 306.748 228.117C306.748 227.102 306.396 226.379 305.693 225.949C305 225.52 303.921 225.305 302.456 225.305H301.079V231.091ZM301.079 234.782V243H296.538V221.584H302.778C305.688 221.584 307.842 222.116 309.238 223.181C310.635 224.235 311.333 225.842 311.333 228C311.333 229.26 310.986 230.383 310.293 231.369C309.6 232.346 308.618 233.112 307.349 233.669C310.571 238.483 312.671 241.594 313.647 243H308.608L303.496 234.782H301.079ZM328.677 243H316.343V221.584H328.677V225.305H320.884V230.007H328.135V233.728H320.884V239.25H328.677V243Z" fill="black"/>
<path d="M257.273 105H202.727V94.1111H213.636V88.6667H180.909C178.016 88.6667 175.241 87.5194 173.195 85.4774C171.149 83.4353 170 80.6657 170 77.7778V17.8889C170 15.001 171.149 12.2313 173.195 10.1893C175.241 8.14722 178.016 7 180.909 7H279.091C281.984 7 284.759 8.14722 286.805 10.1893C288.851 12.2313 290 15.001 290 17.8889V77.7778C290 80.6657 288.851 83.4353 286.805 85.4774C284.759 87.5194 281.984 88.6667 279.091 88.6667H246.364V94.1111H257.273V105ZM180.909 17.8889V77.7778H279.091V17.8889H180.909Z" fill="#0166A3"/>
<path d="M210 47L216.5 40.5C216.5 36.9101 213.59 34 210 34C206.41 34 203.5 36.9101 203.5 40.5L210 47Z" stroke="#0166A3" stroke-width="4" stroke-linecap="round" stroke-linejoin="round"/>
<path d="M203.5 53.5L210 47L203.5 40.5C199.91 40.5 197 43.4101 197 47C197 50.5899 199.91 53.5 203.5 53.5ZM216.5 53.5C220.09 53.5 223 50.5899 223 47C223 43.4101 220.09 40.5 216.5 40.5L210 47L216.5 53.5Z" stroke="#0166A3" stroke-width="4" stroke-linecap="round" stroke-linejoin="round"/>
<path d="M210 60C213.59 60 216.5 57.0899 216.5 53.5L210 47L203.5 53.5C203.5 57.0899 206.41 60 210 60Z" stroke="#0166A3" stroke-width="4" stroke-linecap="round" stroke-linejoin="round"/>
<path d="M249 47L255.5 40.5C255.5 36.9101 252.59 34 249 34C245.41 34 242.5 36.9101 242.5 40.5L249 47Z" stroke="#0166A3" stroke-width="4" stroke-linecap="round" stroke-linejoin="round"/>
<path d="M242.5 53.5L249 47L242.5 40.5C238.91 40.5 236 43.4101 236 47C236 50.5899 238.91 53.5 242.5 53.5ZM255.5 53.5C259.09 53.5 262 50.5899 262 47C262 43.4101 259.09 40.5 255.5 40.5L249 47L255.5 53.5Z" stroke="#0166A3" stroke-width="4" stroke-linecap="round" stroke-linejoin="round"/>
<path d="M249 60C252.59 60 255.5 57.0899 255.5 53.5L249 47L242.5 53.5C242.5 57.0899 245.41 60 249 60Z" stroke="#0166A3" stroke-width="4" stroke-linecap="round" stroke-linejoin="round"/>
</svg>
