<svg width="470" height="300" viewBox="0 0 470 300" fill="none" xmlns="http://www.w3.org/2000/svg">
<rect y="40" width="470" height="260" rx="15" fill="#F0F8FC"/>
<path d="M100.573 191.263C100.573 194.808 99.6943 197.532 97.9365 199.437C96.1787 201.341 93.6592 202.293 90.3779 202.293C87.0967 202.293 84.5771 201.341 82.8193 199.437C81.0615 197.532 80.1826 194.798 80.1826 191.233C80.1826 187.669 81.0615 184.949 82.8193 183.074C84.5869 181.189 87.1162 180.247 90.4072 180.247C93.6982 180.247 96.2129 181.194 97.9512 183.089C99.6992 184.983 100.573 187.708 100.573 191.263ZM84.9434 191.263C84.9434 193.655 85.3975 195.457 86.3057 196.668C87.2139 197.879 88.5713 198.484 90.3779 198.484C94.001 198.484 95.8125 196.077 95.8125 191.263C95.8125 186.438 94.0107 184.026 90.4072 184.026C88.6006 184.026 87.2383 184.637 86.3203 185.857C85.4023 187.068 84.9434 188.87 84.9434 191.263ZM124.011 202H118.239L108.923 185.799H108.791C108.977 188.66 109.069 190.701 109.069 191.922V202H105.012V180.584H110.739L120.041 196.624H120.144C119.997 193.841 119.924 191.873 119.924 190.721V180.584H124.011V202ZM127.614 195.789V192.127H135.48V195.789H127.614ZM143.625 190.662H145.119C146.516 190.662 147.561 190.389 148.254 189.842C148.947 189.285 149.294 188.479 149.294 187.425C149.294 186.36 149.001 185.574 148.415 185.066C147.839 184.559 146.931 184.305 145.69 184.305H143.625V190.662ZM153.879 187.264C153.879 189.568 153.156 191.331 151.711 192.552C150.275 193.772 148.229 194.383 145.573 194.383H143.625V202H139.084V180.584H145.925C148.522 180.584 150.495 181.146 151.843 182.269C153.2 183.382 153.879 185.047 153.879 187.264ZM162.463 190.091H163.928C165.363 190.091 166.423 189.852 167.106 189.373C167.79 188.895 168.132 188.143 168.132 187.117C168.132 186.102 167.78 185.379 167.077 184.949C166.384 184.52 165.305 184.305 163.84 184.305H162.463V190.091ZM162.463 193.782V202H157.922V180.584H164.162C167.072 180.584 169.226 181.116 170.622 182.181C172.019 183.235 172.717 184.842 172.717 187C172.717 188.26 172.37 189.383 171.677 190.369C170.983 191.346 170.002 192.112 168.732 192.669C171.955 197.483 174.055 200.594 175.031 202H169.992L164.88 193.782H162.463ZM190.061 202H177.727V180.584H190.061V184.305H182.268V189.007H189.519V192.728H182.268V198.25H190.061V202ZM203.61 202L198.454 185.198H198.322C198.508 188.616 198.601 190.896 198.601 192.039V202H194.543V180.584H200.725L205.793 196.961H205.881L211.257 180.584H217.438V202H213.205V191.863C213.205 191.385 213.21 190.833 213.22 190.208C213.239 189.583 213.308 187.923 213.425 185.228H213.293L207.771 202H203.61ZM222.844 202V180.584H227.385V202H222.844ZM245.417 196.053C245.417 197.986 244.719 199.51 243.322 200.623C241.936 201.736 240.002 202.293 237.521 202.293C235.236 202.293 233.215 201.863 231.457 201.004V196.785C232.902 197.43 234.123 197.884 235.119 198.147C236.125 198.411 237.043 198.543 237.873 198.543C238.869 198.543 239.631 198.353 240.158 197.972C240.695 197.591 240.964 197.024 240.964 196.272C240.964 195.853 240.847 195.481 240.612 195.159C240.378 194.827 240.031 194.51 239.572 194.207C239.123 193.904 238.2 193.421 236.804 192.757C235.495 192.142 234.514 191.551 233.859 190.984C233.205 190.418 232.683 189.759 232.292 189.007C231.901 188.255 231.706 187.376 231.706 186.37C231.706 184.476 232.346 182.986 233.625 181.902C234.914 180.818 236.691 180.276 238.957 180.276C240.07 180.276 241.13 180.408 242.136 180.672C243.151 180.936 244.211 181.307 245.314 181.785L243.85 185.315C242.707 184.847 241.76 184.52 241.008 184.334C240.266 184.148 239.533 184.056 238.811 184.056C237.951 184.056 237.292 184.256 236.833 184.656C236.374 185.057 236.145 185.579 236.145 186.224C236.145 186.624 236.237 186.976 236.423 187.278C236.608 187.571 236.901 187.859 237.302 188.143C237.712 188.416 238.674 188.914 240.188 189.637C242.189 190.594 243.562 191.556 244.304 192.522C245.046 193.479 245.417 194.656 245.417 196.053ZM261.633 202H249.299V180.584H261.633V184.305H253.84V189.007H261.091V192.728H253.84V198.25H261.633V202ZM270.144 198.851C269.636 200.823 268.776 203.162 267.565 205.867H264.343C264.978 203.27 265.471 200.818 265.822 198.514H269.924L270.144 198.851ZM291.706 184.056C289.997 184.056 288.674 184.7 287.736 185.989C286.799 187.269 286.33 189.056 286.33 191.351C286.33 196.126 288.122 198.514 291.706 198.514C293.21 198.514 295.031 198.138 297.17 197.386V201.194C295.412 201.927 293.449 202.293 291.281 202.293C288.166 202.293 285.783 201.351 284.133 199.466C282.482 197.571 281.657 194.856 281.657 191.321C281.657 189.095 282.062 187.146 282.873 185.477C283.684 183.797 284.846 182.513 286.359 181.624C287.883 180.726 289.665 180.276 291.706 180.276C293.786 180.276 295.876 180.779 297.976 181.785L296.511 185.477C295.71 185.096 294.904 184.764 294.094 184.48C293.283 184.197 292.487 184.056 291.706 184.056ZM301.74 202V180.584H306.281V198.25H314.968V202H301.74ZM338.142 191.263C338.142 194.808 337.263 197.532 335.505 199.437C333.747 201.341 331.228 202.293 327.946 202.293C324.665 202.293 322.146 201.341 320.388 199.437C318.63 197.532 317.751 194.798 317.751 191.233C317.751 187.669 318.63 184.949 320.388 183.074C322.155 181.189 324.685 180.247 327.976 180.247C331.267 180.247 333.781 181.194 335.52 183.089C337.268 184.983 338.142 187.708 338.142 191.263ZM322.512 191.263C322.512 193.655 322.966 195.457 323.874 196.668C324.782 197.879 326.14 198.484 327.946 198.484C331.569 198.484 333.381 196.077 333.381 191.263C333.381 186.438 331.579 184.026 327.976 184.026C326.169 184.026 324.807 184.637 323.889 185.857C322.971 187.068 322.512 188.87 322.512 191.263ZM360.012 180.584V194.441C360.012 196.023 359.655 197.41 358.942 198.602C358.239 199.793 357.219 200.706 355.881 201.341C354.543 201.976 352.961 202.293 351.135 202.293C348.381 202.293 346.242 201.59 344.719 200.184C343.195 198.768 342.434 196.834 342.434 194.383V180.584H346.96V193.694C346.96 195.345 347.292 196.556 347.956 197.327C348.62 198.099 349.719 198.484 351.252 198.484C352.736 198.484 353.811 198.099 354.475 197.327C355.148 196.546 355.485 195.325 355.485 193.665V180.584H360.012ZM383.024 191.087C383.024 194.612 382.019 197.312 380.007 199.188C378.005 201.062 375.109 202 371.32 202H365.256V180.584H371.979C375.476 180.584 378.19 181.507 380.124 183.353C382.058 185.198 383.024 187.776 383.024 191.087ZM378.308 191.204C378.308 186.604 376.276 184.305 372.214 184.305H369.797V198.25H371.745C376.12 198.25 378.308 195.901 378.308 191.204ZM69.0938 243L67.541 237.902H59.7334L58.1807 243H53.2881L60.8467 221.496H66.3984L73.9863 243H69.0938ZM66.457 234.094C65.0215 229.475 64.2109 226.862 64.0254 226.257C63.8496 225.651 63.7227 225.173 63.6445 224.821C63.3223 226.071 62.3994 229.162 60.876 234.094H66.457ZM95.6953 243H89.9238L80.6074 226.799H80.4756C80.6611 229.66 80.7539 231.701 80.7539 232.922V243H76.6963V221.584H82.4238L91.7256 237.624H91.8281C91.6816 234.841 91.6084 232.873 91.6084 231.721V221.584H95.6953V243ZM118.869 232.087C118.869 235.612 117.863 238.312 115.852 240.188C113.85 242.062 110.954 243 107.165 243H101.101V221.584H107.824C111.32 221.584 114.035 222.507 115.969 224.353C117.902 226.198 118.869 228.776 118.869 232.087ZM114.152 232.204C114.152 227.604 112.121 225.305 108.059 225.305H105.642V239.25H107.59C111.965 239.25 114.152 236.901 114.152 232.204ZM148.649 243H144.123V233.757H135.642V243H131.101V221.584H135.642V229.978H144.123V221.584H148.649V243ZM160.734 230.402L165.202 221.584H170.095L162.99 234.665V243H158.479V234.812L151.374 221.584H156.296L160.734 230.402ZM172.79 221.584H179.455C182.492 221.584 184.694 222.019 186.062 222.888C187.438 223.747 188.127 225.119 188.127 227.004C188.127 228.283 187.824 229.333 187.219 230.153C186.623 230.974 185.827 231.467 184.831 231.633V231.779C186.188 232.082 187.165 232.648 187.761 233.479C188.366 234.309 188.669 235.412 188.669 236.789C188.669 238.742 187.961 240.266 186.545 241.359C185.139 242.453 183.225 243 180.803 243H172.79V221.584ZM177.331 230.065H179.968C181.198 230.065 182.087 229.875 182.634 229.494C183.19 229.113 183.469 228.483 183.469 227.604C183.469 226.784 183.166 226.198 182.561 225.847C181.965 225.485 181.018 225.305 179.719 225.305H177.331V230.065ZM177.331 233.669V239.25H180.29C181.54 239.25 182.463 239.011 183.059 238.532C183.654 238.054 183.952 237.321 183.952 236.335C183.952 234.558 182.683 233.669 180.144 233.669H177.331ZM197.487 231.091H198.952C200.388 231.091 201.447 230.852 202.131 230.373C202.814 229.895 203.156 229.143 203.156 228.117C203.156 227.102 202.805 226.379 202.102 225.949C201.408 225.52 200.329 225.305 198.864 225.305H197.487V231.091ZM197.487 234.782V243H192.946V221.584H199.187C202.097 221.584 204.25 222.116 205.646 223.181C207.043 224.235 207.741 225.842 207.741 228C207.741 229.26 207.395 230.383 206.701 231.369C206.008 232.346 205.026 233.112 203.757 233.669C206.979 238.483 209.079 241.594 210.056 243H205.017L199.904 234.782H197.487ZM212.751 243V221.584H217.292V243H212.751ZM240.451 232.087C240.451 235.612 239.445 238.312 237.434 240.188C235.432 242.062 232.536 243 228.747 243H222.683V221.584H229.406C232.902 221.584 235.617 222.507 237.551 224.353C239.484 226.198 240.451 228.776 240.451 232.087ZM235.734 232.204C235.734 227.604 233.703 225.305 229.641 225.305H227.224V239.25H229.172C233.547 239.25 235.734 236.901 235.734 232.204ZM271.682 243H265.91L256.594 226.799H256.462C256.647 229.66 256.74 231.701 256.74 232.922V243H252.683V221.584H258.41L267.712 237.624H267.814C267.668 234.841 267.595 232.873 267.595 231.721V221.584H271.682V243ZM289.421 243H277.087V221.584H289.421V225.305H281.628V230.007H288.879V233.728H281.628V239.25H289.421V243ZM302.165 243H297.624V225.363H291.809V221.584H307.98V225.363H302.165V243ZM332.136 243H326.965L324.064 231.75C323.957 231.35 323.771 230.524 323.508 229.274C323.254 228.015 323.107 227.17 323.068 226.74C323.01 227.268 322.863 228.117 322.629 229.289C322.395 230.451 322.214 231.281 322.087 231.779L319.201 243H314.045L308.581 221.584H313.049L315.788 233.273C316.267 235.432 316.613 237.302 316.828 238.884C316.887 238.327 317.019 237.468 317.224 236.306C317.438 235.134 317.639 234.226 317.824 233.581L320.944 221.584H325.236L328.356 233.581C328.493 234.118 328.664 234.938 328.869 236.042C329.074 237.146 329.23 238.093 329.338 238.884C329.436 238.122 329.592 237.175 329.807 236.042C330.021 234.899 330.217 233.977 330.393 233.273L333.117 221.584H337.585L332.136 243ZM359.719 232.263C359.719 235.808 358.84 238.532 357.082 240.437C355.324 242.341 352.805 243.293 349.523 243.293C346.242 243.293 343.723 242.341 341.965 240.437C340.207 238.532 339.328 235.798 339.328 232.233C339.328 228.669 340.207 225.949 341.965 224.074C343.732 222.189 346.262 221.247 349.553 221.247C352.844 221.247 355.358 222.194 357.097 224.089C358.845 225.983 359.719 228.708 359.719 232.263ZM344.089 232.263C344.089 234.655 344.543 236.457 345.451 237.668C346.359 238.879 347.717 239.484 349.523 239.484C353.146 239.484 354.958 237.077 354.958 232.263C354.958 227.438 353.156 225.026 349.553 225.026C347.746 225.026 346.384 225.637 345.466 226.857C344.548 228.068 344.089 229.87 344.089 232.263ZM368.698 231.091H370.163C371.599 231.091 372.658 230.852 373.342 230.373C374.025 229.895 374.367 229.143 374.367 228.117C374.367 227.102 374.016 226.379 373.312 225.949C372.619 225.52 371.54 225.305 370.075 225.305H368.698V231.091ZM368.698 234.782V243H364.157V221.584H370.397C373.308 221.584 375.461 222.116 376.857 223.181C378.254 224.235 378.952 225.842 378.952 228C378.952 229.26 378.605 230.383 377.912 231.369C377.219 232.346 376.237 233.112 374.968 233.669C378.19 238.483 380.29 241.594 381.267 243H376.228L371.115 234.782H368.698ZM401.188 243H396.032L390.422 233.977L388.503 235.354V243H383.962V221.584H388.503V231.384L390.29 228.864L396.091 221.584H401.13L393.659 231.062L401.188 243ZM416.525 237.053C416.525 238.986 415.827 240.51 414.431 241.623C413.044 242.736 411.11 243.293 408.63 243.293C406.345 243.293 404.323 242.863 402.565 242.004V237.785C404.011 238.43 405.231 238.884 406.228 239.147C407.233 239.411 408.151 239.543 408.981 239.543C409.978 239.543 410.739 239.353 411.267 238.972C411.804 238.591 412.072 238.024 412.072 237.272C412.072 236.853 411.955 236.481 411.721 236.159C411.486 235.827 411.14 235.51 410.681 235.207C410.231 234.904 409.309 234.421 407.912 233.757C406.604 233.142 405.622 232.551 404.968 231.984C404.313 231.418 403.791 230.759 403.4 230.007C403.01 229.255 402.814 228.376 402.814 227.37C402.814 225.476 403.454 223.986 404.733 222.902C406.022 221.818 407.8 221.276 410.065 221.276C411.179 221.276 412.238 221.408 413.244 221.672C414.26 221.936 415.319 222.307 416.423 222.785L414.958 226.315C413.815 225.847 412.868 225.52 412.116 225.334C411.374 225.148 410.642 225.056 409.919 225.056C409.06 225.056 408.4 225.256 407.941 225.656C407.482 226.057 407.253 226.579 407.253 227.224C407.253 227.624 407.346 227.976 407.531 228.278C407.717 228.571 408.01 228.859 408.41 229.143C408.82 229.416 409.782 229.914 411.296 230.637C413.298 231.594 414.67 232.556 415.412 233.522C416.154 234.479 416.525 235.656 416.525 237.053Z" fill="black"/>
<path d="M207.647 142.224H184.118V137.518H188.824V135.165H174.706C173.458 135.165 172.261 134.669 171.378 133.787C170.496 132.904 170 131.707 170 130.459V104.577C170 103.329 170.496 102.132 171.378 101.249C172.261 100.367 173.458 99.8711 174.706 99.8711H217.059C218.307 99.8711 219.504 100.367 220.386 101.249C221.269 102.132 221.765 103.329 221.765 104.577V130.459C221.765 131.707 221.269 132.904 220.386 133.787C219.504 134.669 218.307 135.165 217.059 135.165H202.941V137.518H207.647V142.224ZM174.706 104.577V130.459H217.059V104.577H174.706Z" fill="#0166A3"/>
<path d="M275.882 142.224H252.353V137.518H257.059V135.165H242.941C241.693 135.165 240.496 134.669 239.614 133.787C238.731 132.904 238.235 131.707 238.235 130.459V104.577C238.235 103.329 238.731 102.132 239.614 101.249C240.496 100.367 241.693 99.8711 242.941 99.8711H285.294C286.542 99.8711 287.739 100.367 288.622 101.249C289.504 102.132 290 103.329 290 104.577V130.459C290 131.707 289.504 132.904 288.622 133.787C287.739 134.669 286.542 135.165 285.294 135.165H271.177V137.518H275.882V142.224ZM242.941 104.577V130.459H285.294V104.577H242.941Z" fill="#0166A3"/>
<path d="M198.645 23.2256H203.806V28.3869H198.645V23.2256Z" fill="#0166A3"/>
<path d="M208.968 23.2256H245.097V28.3869H208.968V23.2256Z" fill="#0166A3"/>
<path d="M198.645 43.8711H203.806V49.0324H198.645V43.8711Z" fill="#0166A3"/>
<path d="M208.968 43.8711H245.097V49.0324H208.968V43.8711Z" fill="#0166A3"/>
<path d="M265.742 12.9033H193.484C192.115 12.9033 190.802 13.4471 189.834 14.415C188.866 15.383 188.322 16.6958 188.322 18.0646V74.8388C188.322 76.2077 188.866 77.5205 189.834 78.4884C190.802 79.4563 192.115 80.0001 193.484 80.0001H265.742C267.11 80.0001 268.423 79.4563 269.391 78.4884C270.359 77.5205 270.903 76.2077 270.903 74.8388V18.0646C270.903 16.6958 270.359 15.383 269.391 14.415C268.423 13.4471 267.11 12.9033 265.742 12.9033ZM193.484 18.0646H265.742V33.5485H193.484V18.0646ZM193.484 38.7098H265.742V54.1937H193.484V38.7098ZM193.484 74.8388V59.3549H265.742V74.8388H193.484Z" fill="#0166A3"/>
<path d="M198.645 64.5161H203.806V69.6774H198.645V64.5161Z" fill="#0166A3"/>
<path d="M208.968 64.5161H245.097V69.6774H208.968V64.5161Z" fill="#0166A3"/>
<path d="M226.516 78.1934V93.8565H193.226V102.193" stroke="#0166A3" stroke-width="3"/>
<path d="M234.258 78.1934V93.8565H267.548V102.193" stroke="#0166A3" stroke-width="3"/>
</svg>
