<svg width="470" height="288" viewBox="0 0 470 288" fill="none" xmlns="http://www.w3.org/2000/svg">
<rect y="28" width="470" height="260" rx="15" fill="#F0F8FC"/>
<path d="M64.4922 190H52.1582V168.584H64.4922V172.305H56.6992V177.007H63.9502V180.728H56.6992V186.25H64.4922V190ZM87.9736 190H82.2021L72.8857 173.799H72.7539C72.9395 176.66 73.0322 178.701 73.0322 179.922V190H68.9746V168.584H74.7021L84.0039 184.624H84.1064C83.96 181.841 83.8867 179.873 83.8867 178.721V168.584H87.9736V190ZM111.147 179.087C111.147 182.612 110.142 185.312 108.13 187.188C106.128 189.062 103.232 190 99.4434 190H93.3789V168.584H100.103C103.599 168.584 106.313 169.507 108.247 171.353C110.181 173.198 111.147 175.776 111.147 179.087ZM106.431 179.204C106.431 174.604 104.399 172.305 100.337 172.305H97.9199V186.25H99.8682C104.243 186.25 106.431 183.901 106.431 179.204ZM120.127 178.662H121.621C123.018 178.662 124.062 178.389 124.756 177.842C125.449 177.285 125.796 176.479 125.796 175.425C125.796 174.36 125.503 173.574 124.917 173.066C124.341 172.559 123.433 172.305 122.192 172.305H120.127V178.662ZM130.381 175.264C130.381 177.568 129.658 179.331 128.213 180.552C126.777 181.772 124.731 182.383 122.075 182.383H120.127V190H115.586V168.584H122.427C125.024 168.584 126.997 169.146 128.345 170.269C129.702 171.382 130.381 173.047 130.381 175.264ZM153.862 179.263C153.862 182.808 152.983 185.532 151.226 187.437C149.468 189.341 146.948 190.293 143.667 190.293C140.386 190.293 137.866 189.341 136.108 187.437C134.351 185.532 133.472 182.798 133.472 179.233C133.472 175.669 134.351 172.949 136.108 171.074C137.876 169.189 140.405 168.247 143.696 168.247C146.987 168.247 149.502 169.194 151.24 171.089C152.988 172.983 153.862 175.708 153.862 179.263ZM138.232 179.263C138.232 181.655 138.687 183.457 139.595 184.668C140.503 185.879 141.86 186.484 143.667 186.484C147.29 186.484 149.102 184.077 149.102 179.263C149.102 174.438 147.3 172.026 143.696 172.026C141.89 172.026 140.527 172.637 139.609 173.857C138.691 175.068 138.232 176.87 138.232 179.263ZM158.301 190V168.584H162.842V190H158.301ZM187.231 190H181.46L172.144 173.799H172.012C172.197 176.66 172.29 178.701 172.29 179.922V190H168.232V168.584H173.96L183.262 184.624H183.364C183.218 181.841 183.145 179.873 183.145 178.721V168.584H187.231V190ZM200.898 190H196.357V172.363H190.542V168.584H206.714V172.363H200.898V190ZM222.651 184.053C222.651 185.986 221.953 187.51 220.557 188.623C219.17 189.736 217.236 190.293 214.756 190.293C212.471 190.293 210.449 189.863 208.691 189.004V184.785C210.137 185.43 211.357 185.884 212.354 186.147C213.359 186.411 214.277 186.543 215.107 186.543C216.104 186.543 216.865 186.353 217.393 185.972C217.93 185.591 218.198 185.024 218.198 184.272C218.198 183.853 218.081 183.481 217.847 183.159C217.612 182.827 217.266 182.51 216.807 182.207C216.357 181.904 215.435 181.421 214.038 180.757C212.729 180.142 211.748 179.551 211.094 178.984C210.439 178.418 209.917 177.759 209.526 177.007C209.136 176.255 208.94 175.376 208.94 174.37C208.94 172.476 209.58 170.986 210.859 169.902C212.148 168.818 213.926 168.276 216.191 168.276C217.305 168.276 218.364 168.408 219.37 168.672C220.386 168.936 221.445 169.307 222.549 169.785L221.084 173.315C219.941 172.847 218.994 172.52 218.242 172.334C217.5 172.148 216.768 172.056 216.045 172.056C215.186 172.056 214.526 172.256 214.067 172.656C213.608 173.057 213.379 173.579 213.379 174.224C213.379 174.624 213.472 174.976 213.657 175.278C213.843 175.571 214.136 175.859 214.536 176.143C214.946 176.416 215.908 176.914 217.422 177.637C219.424 178.594 220.796 179.556 221.538 180.522C222.28 181.479 222.651 182.656 222.651 184.053ZM232.524 183.789V180.127H240.391V183.789H232.524ZM272.646 190H267.476L264.575 178.75C264.468 178.35 264.282 177.524 264.019 176.274C263.765 175.015 263.618 174.17 263.579 173.74C263.521 174.268 263.374 175.117 263.14 176.289C262.905 177.451 262.725 178.281 262.598 178.779L259.712 190H254.556L249.092 168.584H253.56L256.299 180.273C256.777 182.432 257.124 184.302 257.339 185.884C257.397 185.327 257.529 184.468 257.734 183.306C257.949 182.134 258.149 181.226 258.335 180.581L261.455 168.584H265.747L268.867 180.581C269.004 181.118 269.175 181.938 269.38 183.042C269.585 184.146 269.741 185.093 269.849 185.884C269.946 185.122 270.103 184.175 270.317 183.042C270.532 181.899 270.728 180.977 270.903 180.273L273.628 168.584H278.096L272.646 190ZM280.791 190V168.584H285.332V190H280.791ZM309.722 190H303.95L294.634 173.799H294.502C294.688 176.66 294.78 178.701 294.78 179.922V190H290.723V168.584H296.45L305.752 184.624H305.854C305.708 181.841 305.635 179.873 305.635 178.721V168.584H309.722V190ZM332.896 179.087C332.896 182.612 331.89 185.312 329.878 187.188C327.876 189.062 324.98 190 321.191 190H315.127V168.584H321.851C325.347 168.584 328.062 169.507 329.995 171.353C331.929 173.198 332.896 175.776 332.896 179.087ZM328.179 179.204C328.179 174.604 326.147 172.305 322.085 172.305H319.668V186.25H321.616C325.991 186.25 328.179 183.901 328.179 179.204ZM356.772 179.263C356.772 182.808 355.894 185.532 354.136 187.437C352.378 189.341 349.858 190.293 346.577 190.293C343.296 190.293 340.776 189.341 339.019 187.437C337.261 185.532 336.382 182.798 336.382 179.233C336.382 175.669 337.261 172.949 339.019 171.074C340.786 169.189 343.315 168.247 346.606 168.247C349.897 168.247 352.412 169.194 354.15 171.089C355.898 172.983 356.772 175.708 356.772 179.263ZM341.143 179.263C341.143 181.655 341.597 183.457 342.505 184.668C343.413 185.879 344.771 186.484 346.577 186.484C350.2 186.484 352.012 184.077 352.012 179.263C352.012 174.438 350.21 172.026 346.606 172.026C344.8 172.026 343.438 172.637 342.52 173.857C341.602 175.068 341.143 176.87 341.143 179.263ZM382.07 190H376.899L373.999 178.75C373.892 178.35 373.706 177.524 373.442 176.274C373.188 175.015 373.042 174.17 373.003 173.74C372.944 174.268 372.798 175.117 372.563 176.289C372.329 177.451 372.148 178.281 372.021 178.779L369.136 190H363.979L358.516 168.584H362.983L365.723 180.273C366.201 182.432 366.548 184.302 366.763 185.884C366.821 185.327 366.953 184.468 367.158 183.306C367.373 182.134 367.573 181.226 367.759 180.581L370.879 168.584H375.171L378.291 180.581C378.428 181.118 378.599 181.938 378.804 183.042C379.009 184.146 379.165 185.093 379.272 185.884C379.37 185.122 379.526 184.175 379.741 183.042C379.956 181.899 380.151 180.977 380.327 180.273L383.052 168.584H387.52L382.07 190ZM402.856 184.053C402.856 185.986 402.158 187.51 400.762 188.623C399.375 189.736 397.441 190.293 394.961 190.293C392.676 190.293 390.654 189.863 388.896 189.004V184.785C390.342 185.43 391.562 185.884 392.559 186.147C393.564 186.411 394.482 186.543 395.312 186.543C396.309 186.543 397.07 186.353 397.598 185.972C398.135 185.591 398.403 185.024 398.403 184.272C398.403 183.853 398.286 183.481 398.052 183.159C397.817 182.827 397.471 182.51 397.012 182.207C396.562 181.904 395.64 181.421 394.243 180.757C392.935 180.142 391.953 179.551 391.299 178.984C390.645 178.418 390.122 177.759 389.731 177.007C389.341 176.255 389.146 175.376 389.146 174.37C389.146 172.476 389.785 170.986 391.064 169.902C392.354 168.818 394.131 168.276 396.396 168.276C397.51 168.276 398.569 168.408 399.575 168.672C400.591 168.936 401.65 169.307 402.754 169.785L401.289 173.315C400.146 172.847 399.199 172.52 398.447 172.334C397.705 172.148 396.973 172.056 396.25 172.056C395.391 172.056 394.731 172.256 394.272 172.656C393.813 173.057 393.584 173.579 393.584 174.224C393.584 174.624 393.677 174.976 393.862 175.278C394.048 175.571 394.341 175.859 394.741 176.143C395.151 176.416 396.113 176.914 397.627 177.637C399.629 178.594 401.001 179.556 401.743 180.522C402.485 181.479 402.856 182.656 402.856 184.053ZM410.767 186.851C410.259 188.823 409.399 191.162 408.188 193.867H404.966C405.601 191.27 406.094 188.818 406.445 186.514H410.547L410.767 186.851ZM128.184 231V209.584H132.725V227.25H141.411V231H128.184ZM145.146 231V209.584H149.688V231H145.146ZM174.077 231H168.306L158.989 214.799H158.857C159.043 217.66 159.136 219.701 159.136 220.922V231H155.078V209.584H160.806L170.107 225.624H170.21C170.063 222.841 169.99 220.873 169.99 219.721V209.584H174.077V231ZM196.914 209.584V223.441C196.914 225.023 196.558 226.41 195.845 227.602C195.142 228.793 194.121 229.706 192.783 230.341C191.445 230.976 189.863 231.293 188.037 231.293C185.283 231.293 183.145 230.59 181.621 229.184C180.098 227.768 179.336 225.834 179.336 223.383V209.584H183.862V222.694C183.862 224.345 184.194 225.556 184.858 226.327C185.522 227.099 186.621 227.484 188.154 227.484C189.639 227.484 190.713 227.099 191.377 226.327C192.051 225.546 192.388 224.325 192.388 222.665V209.584H196.914ZM219.473 231H214.287L209.307 222.899L204.326 231H199.463L206.567 219.955L199.917 209.584H204.927L209.541 217.289L214.067 209.584H218.96L212.236 220.204L219.473 231ZM226.196 227.851C225.688 229.823 224.829 232.162 223.618 234.867H220.396C221.03 232.27 221.523 229.818 221.875 227.514H225.977L226.196 227.851ZM247.729 231L242.573 214.198H242.441C242.627 217.616 242.72 219.896 242.72 221.039V231H238.662V209.584H244.844L249.912 225.961H250L255.376 209.584H261.558V231H257.324V220.863C257.324 220.385 257.329 219.833 257.339 219.208C257.358 218.583 257.427 216.923 257.544 214.228H257.412L251.89 231H247.729ZM280.073 231L278.521 225.902H270.713L269.16 231H264.268L271.826 209.496H277.378L284.966 231H280.073ZM277.437 222.094C276.001 217.475 275.19 214.862 275.005 214.257C274.829 213.651 274.702 213.173 274.624 212.821C274.302 214.071 273.379 217.162 271.855 222.094H277.437ZM296.772 213.056C295.063 213.056 293.74 213.7 292.803 214.989C291.865 216.269 291.396 218.056 291.396 220.351C291.396 225.126 293.188 227.514 296.772 227.514C298.276 227.514 300.098 227.138 302.236 226.386V230.194C300.479 230.927 298.516 231.293 296.348 231.293C293.232 231.293 290.85 230.351 289.199 228.466C287.549 226.571 286.724 223.856 286.724 220.321C286.724 218.095 287.129 216.146 287.939 214.477C288.75 212.797 289.912 211.513 291.426 210.624C292.949 209.726 294.731 209.276 296.772 209.276C298.853 209.276 300.942 209.779 303.042 210.785L301.577 214.477C300.776 214.096 299.971 213.764 299.16 213.48C298.35 213.197 297.554 213.056 296.772 213.056ZM326.245 220.263C326.245 223.808 325.366 226.532 323.608 228.437C321.851 230.341 319.331 231.293 316.05 231.293C312.769 231.293 310.249 230.341 308.491 228.437C306.733 226.532 305.854 223.798 305.854 220.233C305.854 216.669 306.733 213.949 308.491 212.074C310.259 210.189 312.788 209.247 316.079 209.247C319.37 209.247 321.885 210.194 323.623 212.089C325.371 213.983 326.245 216.708 326.245 220.263ZM310.615 220.263C310.615 222.655 311.069 224.457 311.978 225.668C312.886 226.879 314.243 227.484 316.05 227.484C319.673 227.484 321.484 225.077 321.484 220.263C321.484 215.438 319.683 213.026 316.079 213.026C314.272 213.026 312.91 213.637 311.992 214.857C311.074 216.068 310.615 217.87 310.615 220.263ZM343.325 225.053C343.325 226.986 342.627 228.51 341.23 229.623C339.844 230.736 337.91 231.293 335.43 231.293C333.145 231.293 331.123 230.863 329.365 230.004V225.785C330.811 226.43 332.031 226.884 333.027 227.147C334.033 227.411 334.951 227.543 335.781 227.543C336.777 227.543 337.539 227.353 338.066 226.972C338.604 226.591 338.872 226.024 338.872 225.272C338.872 224.853 338.755 224.481 338.521 224.159C338.286 223.827 337.939 223.51 337.48 223.207C337.031 222.904 336.108 222.421 334.712 221.757C333.403 221.142 332.422 220.551 331.768 219.984C331.113 219.418 330.591 218.759 330.2 218.007C329.81 217.255 329.614 216.376 329.614 215.37C329.614 213.476 330.254 211.986 331.533 210.902C332.822 209.818 334.6 209.276 336.865 209.276C337.979 209.276 339.038 209.408 340.044 209.672C341.06 209.936 342.119 210.307 343.223 210.785L341.758 214.315C340.615 213.847 339.668 213.52 338.916 213.334C338.174 213.148 337.441 213.056 336.719 213.056C335.859 213.056 335.2 213.256 334.741 213.656C334.282 214.057 334.053 214.579 334.053 215.224C334.053 215.624 334.146 215.976 334.331 216.278C334.517 216.571 334.81 216.859 335.21 217.143C335.62 217.416 336.582 217.914 338.096 218.637C340.098 219.594 341.47 220.556 342.212 221.522C342.954 222.479 343.325 223.656 343.325 225.053Z" fill="black"/>
<path d="M249.106 98.1818H194.561V87.2727H205.47V81.8182H172.743C169.849 81.8182 167.075 80.6688 165.029 78.623C162.983 76.5771 161.833 73.8024 161.833 70.9091V10.9091C161.833 8.01582 162.983 5.24105 165.029 3.1952C167.075 1.14935 169.849 0 172.743 0H270.924C273.818 0 276.592 1.14935 278.638 3.1952C280.684 5.24105 281.833 8.01582 281.833 10.9091V70.9091C281.833 73.8024 280.684 76.5771 278.638 78.623C276.592 80.6688 273.818 81.8182 270.924 81.8182H238.197V87.2727H249.106V98.1818ZM172.743 10.9091V70.9091H270.924V10.9091H172.743Z" fill="#0166A3"/>
<path d="M233.073 49.4162C230.079 46.8114 226.169 45.2347 221.887 45.2347C217.604 45.2347 213.694 46.8114 210.695 49.4215C210.612 49.4962 210.562 49.6 210.554 49.7112C210.546 49.8225 210.581 49.9324 210.653 50.0181L212.57 52.3033C212.725 52.4844 212.996 52.5057 213.178 52.3512C215.5 50.3058 218.547 49.07 221.887 49.07C225.227 49.07 228.273 50.3058 230.596 52.3459C230.777 52.5004 231.049 52.479 231.203 52.2979L233.121 50.0128C233.27 49.837 233.249 49.5707 233.073 49.4162ZM239.326 41.9535C234.602 38.017 228.524 35.6467 221.887 35.6467C215.25 35.6467 209.172 38.017 204.442 41.9535C204.355 42.0265 204.301 42.1307 204.291 42.2435C204.281 42.3562 204.316 42.4684 204.388 42.5554L206.306 44.8406C206.455 45.0217 206.727 45.043 206.903 44.8938C210.967 41.5167 216.192 39.4819 221.887 39.4819C227.581 39.4819 232.806 41.5167 236.865 44.8938C237.046 45.043 237.313 45.0217 237.462 44.8406L239.38 42.5554C239.529 42.3743 239.507 42.1026 239.326 41.9535ZM245.543 34.5494C239.076 29.244 230.798 26.0586 221.78 26.0586C212.821 26.0586 204.596 29.2013 198.146 34.4428C198.101 34.4784 198.065 34.5225 198.037 34.5726C198.01 34.6226 197.994 34.6775 197.988 34.7341C197.983 34.7907 197.989 34.8478 198.006 34.9021C198.023 34.9563 198.05 35.0066 198.087 35.0501L200.005 37.3352C200.154 37.511 200.42 37.5376 200.596 37.3938C206.386 32.701 213.753 29.8938 221.78 29.8938C229.866 29.8938 237.281 32.7436 243.087 37.495C243.268 37.6442 243.534 37.6175 243.684 37.4364L245.601 35.1513C245.756 34.9702 245.729 34.6985 245.543 34.5494ZM218.424 57.8058C218.424 58.7099 218.784 59.577 219.423 60.2163C220.062 60.8557 220.929 61.2148 221.833 61.2148C222.738 61.2148 223.605 60.8557 224.244 60.2163C224.883 59.577 225.243 58.7099 225.243 57.8058C225.243 56.9016 224.883 56.0345 224.244 55.3952C223.605 54.7558 222.738 54.3967 221.833 54.3967C220.929 54.3967 220.062 54.7558 219.423 55.3952C218.784 56.0345 218.424 56.9016 218.424 57.8058Z" fill="#0166A3"/>
</svg>
