<svg width="465" height="299" viewBox="0 0 465 299" fill="none" xmlns="http://www.w3.org/2000/svg">
<rect x="5" y="65" width="416" height="180" rx="15" fill="#F0F8FC"/>
<rect x="5" y="65" width="460" height="234" rx="15" fill="#F0F8FC"/>
<g clip-path="url(#clip0)">
<path d="M111.913 15.712H111.89C111.892 15.6532 111.908 15.598 111.908 15.538C111.908 13.8696 111.246 12.2694 110.067 11.0892C108.887 9.90895 107.288 9.24527 105.619 9.244C105.571 9.244 105.528 9.2572 105.48 9.2584H88.0104V5.1736C88.0104 4.1164 87.1536 3.262 86.0988 3.2596V3.25H63.96V3.2572C63.942 3.2572 63.9264 3.2524 63.9084 3.2524C62.8524 3.2524 61.9956 4.108 61.9956 5.1652L61.9992 5.2012V9.2572H44.4012L44.3772 9.2548C42.7093 9.25671 41.1102 9.92022 39.9309 11.0997C38.7516 12.2793 38.0884 13.8785 38.0868 15.5464C38.0868 15.6028 38.1024 15.6544 38.1036 15.7108H38.0868V100.397H38.0904L38.0868 100.43C38.0871 101.255 38.2501 102.073 38.5665 102.836C38.8828 103.599 39.3464 104.292 39.9306 104.876C40.5149 105.459 41.2084 105.922 41.9715 106.238C42.7347 106.553 43.5525 106.716 44.3784 106.715C44.472 106.715 44.5596 106.691 44.6532 106.688V106.713H105.253C105.371 106.719 105.482 106.748 105.601 106.748C107.268 106.747 108.867 106.085 110.046 104.906C111.225 103.728 111.887 102.129 111.888 100.462C111.888 100.439 111.882 100.419 111.882 100.396H111.916V15.712H111.913ZM99.9864 94.822H50.0136V21.1708H56.01V24.8536C56.0076 24.8932 55.998 24.9292 55.998 24.97C55.998 26.1676 56.97 27.1468 58.1748 27.1468L58.1916 27.1456V27.1552H91.824C92.4008 27.1546 92.9538 26.9251 93.3617 26.5173C93.7695 26.1094 93.999 25.5564 93.9996 24.9796C93.9996 24.9616 93.9948 24.9448 93.9948 24.9268V21.1708H99.9852V94.822H99.9864Z" fill="#0166A3"/>
<path d="M61.98 44.3427C61.98 43.5531 61.3356 42.9087 60.5424 42.9087C60.5052 42.9087 60.4728 42.9267 60.4368 42.9303V42.9087H57.4344C57.0533 42.909 56.6879 43.0604 56.4182 43.3296C56.1485 43.5988 55.9966 43.964 55.9956 44.3451V47.4615C55.9956 48.2487 56.64 48.8931 57.4344 48.8931H60.438V48.8715C60.474 48.8739 60.5052 48.8931 60.5412 48.8931C61.3368 48.8931 61.9812 48.2487 61.9812 47.4615V44.3451H61.98V44.3427Z" fill="#0166A3"/>
<path d="M93.9972 44.3427C93.9972 43.5531 93.3528 42.9087 92.5596 42.9087H69.4044C69.0233 42.909 68.6579 43.0604 68.3882 43.3296C68.1185 43.5988 67.9665 43.964 67.9656 44.3451V47.4615C67.9656 48.2487 68.61 48.8931 69.4044 48.8931H92.5584C93.354 48.8931 93.9984 48.2487 93.9984 47.4615V44.3451H93.9972V44.3427Z" fill="#0166A3"/>
<path d="M61.98 56.3129C61.98 55.5233 61.3356 54.8789 60.5424 54.8789C60.5052 54.8789 60.4728 54.8969 60.4368 54.9005V54.8789H57.4344C57.0533 54.8792 56.6879 55.0306 56.4182 55.2998C56.1485 55.5691 55.9966 55.9342 55.9956 56.3153V59.4317C55.9956 60.2189 56.64 60.8633 57.4344 60.8633H60.438V60.8417C60.474 60.8441 60.5052 60.8633 60.5412 60.8633C61.3368 60.8633 61.9812 60.2189 61.9812 59.4317V56.3153H61.98V56.3129Z" fill="#0166A3"/>
<path d="M93.9972 56.3129C93.9972 55.5233 93.3528 54.8789 92.5596 54.8789H69.4044C69.0233 54.8792 68.6579 55.0306 68.3882 55.2998C68.1185 55.5691 67.9665 55.9342 67.9656 56.3153V59.4317C67.9656 60.2189 68.61 60.8633 69.4044 60.8633H92.5584C93.354 60.8633 93.9984 60.2189 93.9984 59.4317V56.3153H93.9972V56.3129Z" fill="#0166A3"/>
<path d="M61.98 68.2826C61.98 67.493 61.3356 66.8486 60.5424 66.8486C60.5052 66.8486 60.4728 66.8666 60.4368 66.8702V66.8486H57.4344C57.0533 66.8489 56.6879 67.0003 56.4182 67.2695C56.1485 67.5388 55.9966 67.904 55.9956 68.285V71.4014C55.9956 72.1886 56.64 72.833 57.4344 72.833H60.438V72.8114C60.474 72.8138 60.5052 72.833 60.5412 72.833C61.3368 72.833 61.9812 72.1886 61.9812 71.4014V68.285H61.98V68.2826Z" fill="#0166A3"/>
<path d="M93.9972 68.2826C93.9972 67.493 93.3528 66.8486 92.5596 66.8486H69.4044C69.0233 66.8489 68.6579 67.0003 68.3882 67.2695C68.1185 67.5388 67.9665 67.904 67.9656 68.285V71.4014C67.9656 72.1886 68.61 72.833 69.4044 72.833H92.5584C93.354 72.833 93.9984 72.1886 93.9984 71.4014V68.285H93.9972V68.2826Z" fill="#0166A3"/>
</g>
<path d="M104.25 168H102.773L100.181 159.396C100.058 159.015 99.9199 158.534 99.7676 157.954C99.6152 157.374 99.5361 157.025 99.5303 156.908C99.4014 157.682 99.1963 158.528 98.915 159.448L96.4014 168H94.9248L91.5059 155.15H93.0879L95.1182 163.087C95.3994 164.2 95.6045 165.208 95.7334 166.11C95.8916 165.038 96.126 163.989 96.4365 162.964L98.7393 155.15H100.321L102.738 163.034C103.02 163.942 103.257 164.968 103.45 166.11C103.562 165.278 103.772 164.265 104.083 163.069L106.104 155.15H107.687L104.25 168ZM113.549 168.176C112.125 168.176 111 167.742 110.174 166.875C109.354 166.008 108.943 164.804 108.943 163.263C108.943 161.71 109.324 160.477 110.086 159.562C110.854 158.648 111.882 158.191 113.171 158.191C114.378 158.191 115.333 158.59 116.036 159.387C116.739 160.178 117.091 161.224 117.091 162.524V163.447H110.455C110.484 164.578 110.769 165.437 111.308 166.022C111.853 166.608 112.617 166.901 113.602 166.901C114.639 166.901 115.664 166.685 116.678 166.251V167.552C116.162 167.774 115.673 167.933 115.21 168.026C114.753 168.126 114.199 168.176 113.549 168.176ZM113.153 159.413C112.38 159.413 111.762 159.665 111.299 160.169C110.842 160.673 110.572 161.37 110.49 162.261H115.526C115.526 161.341 115.321 160.638 114.911 160.151C114.501 159.659 113.915 159.413 113.153 159.413ZM128.745 168.176C128.118 168.176 127.544 168.062 127.022 167.833C126.507 167.599 126.073 167.241 125.722 166.761H125.616C125.687 167.323 125.722 167.856 125.722 168.36V172.324H124.263V158.367H125.449L125.651 159.686H125.722C126.097 159.158 126.533 158.777 127.031 158.543C127.529 158.309 128.101 158.191 128.745 158.191C130.022 158.191 131.007 158.628 131.698 159.501C132.396 160.374 132.744 161.599 132.744 163.175C132.744 164.757 132.39 165.987 131.681 166.866C130.978 167.739 129.999 168.176 128.745 168.176ZM128.534 159.431C127.55 159.431 126.838 159.703 126.398 160.248C125.959 160.793 125.733 161.66 125.722 162.85V163.175C125.722 164.528 125.947 165.498 126.398 166.084C126.85 166.664 127.573 166.954 128.569 166.954C129.401 166.954 130.052 166.617 130.521 165.943C130.995 165.27 131.232 164.341 131.232 163.157C131.232 161.956 130.995 161.036 130.521 160.397C130.052 159.753 129.39 159.431 128.534 159.431ZM139.371 168.176C137.947 168.176 136.822 167.742 135.996 166.875C135.176 166.008 134.766 164.804 134.766 163.263C134.766 161.71 135.146 160.477 135.908 159.562C136.676 158.648 137.704 158.191 138.993 158.191C140.2 158.191 141.155 158.59 141.858 159.387C142.562 160.178 142.913 161.224 142.913 162.524V163.447H136.277C136.307 164.578 136.591 165.437 137.13 166.022C137.675 166.608 138.439 166.901 139.424 166.901C140.461 166.901 141.486 166.685 142.5 166.251V167.552C141.984 167.774 141.495 167.933 141.032 168.026C140.575 168.126 140.021 168.176 139.371 168.176ZM138.976 159.413C138.202 159.413 137.584 159.665 137.121 160.169C136.664 160.673 136.395 161.37 136.312 162.261H141.349C141.349 161.341 141.144 160.638 140.733 160.151C140.323 159.659 139.737 159.413 138.976 159.413ZM149.804 158.191C150.231 158.191 150.615 158.227 150.955 158.297L150.753 159.65C150.354 159.562 150.003 159.519 149.698 159.519C148.919 159.519 148.251 159.835 147.694 160.468C147.144 161.101 146.868 161.889 146.868 162.832V168H145.409V158.367H146.613L146.78 160.151H146.851C147.208 159.524 147.639 159.041 148.143 158.701C148.646 158.361 149.2 158.191 149.804 158.191ZM157.099 159.501H154.646V168H153.188V159.501H151.465V158.842L153.188 158.314V157.778C153.188 155.411 154.222 154.228 156.29 154.228C156.8 154.228 157.397 154.33 158.083 154.535L157.705 155.704C157.143 155.522 156.662 155.432 156.264 155.432C155.713 155.432 155.306 155.616 155.042 155.985C154.778 156.349 154.646 156.935 154.646 157.743V158.367H157.099V159.501ZM167.171 163.175C167.171 164.745 166.775 165.973 165.984 166.857C165.193 167.736 164.101 168.176 162.706 168.176C161.845 168.176 161.08 167.974 160.412 167.569C159.744 167.165 159.229 166.585 158.865 165.829C158.502 165.073 158.32 164.188 158.32 163.175C158.32 161.604 158.713 160.383 159.498 159.51C160.283 158.631 161.373 158.191 162.768 158.191C164.115 158.191 165.185 158.64 165.976 159.536C166.772 160.433 167.171 161.646 167.171 163.175ZM159.832 163.175C159.832 164.405 160.078 165.343 160.57 165.987C161.062 166.632 161.786 166.954 162.741 166.954C163.696 166.954 164.42 166.635 164.912 165.996C165.41 165.352 165.659 164.411 165.659 163.175C165.659 161.95 165.41 161.021 164.912 160.389C164.42 159.75 163.69 159.431 162.724 159.431C161.769 159.431 161.048 159.744 160.562 160.371C160.075 160.998 159.832 161.933 159.832 163.175ZM174.132 158.191C174.56 158.191 174.943 158.227 175.283 158.297L175.081 159.65C174.683 159.562 174.331 159.519 174.026 159.519C173.247 159.519 172.579 159.835 172.022 160.468C171.472 161.101 171.196 161.889 171.196 162.832V168H169.737V158.367H170.941L171.108 160.151H171.179C171.536 159.524 171.967 159.041 172.471 158.701C172.975 158.361 173.528 158.191 174.132 158.191ZM189.363 168V161.733C189.363 160.966 189.199 160.392 188.871 160.011C188.543 159.624 188.033 159.431 187.342 159.431C186.434 159.431 185.763 159.691 185.329 160.213C184.896 160.734 184.679 161.537 184.679 162.621V168H183.22V161.733C183.22 160.966 183.056 160.392 182.728 160.011C182.399 159.624 181.887 159.431 181.189 159.431C180.275 159.431 179.604 159.706 179.177 160.257C178.755 160.802 178.544 161.698 178.544 162.946V168H177.085V158.367H178.271L178.509 159.686H178.579C178.854 159.217 179.241 158.851 179.739 158.587C180.243 158.323 180.806 158.191 181.427 158.191C182.933 158.191 183.917 158.736 184.38 159.826H184.45C184.737 159.322 185.153 158.924 185.698 158.631C186.243 158.338 186.864 158.191 187.562 158.191C188.651 158.191 189.466 158.473 190.005 159.035C190.55 159.592 190.822 160.485 190.822 161.716V168H189.363ZM204.437 168L204.146 166.629H204.076C203.596 167.232 203.115 167.643 202.635 167.859C202.16 168.07 201.565 168.176 200.851 168.176C199.896 168.176 199.146 167.93 198.601 167.438C198.062 166.945 197.792 166.245 197.792 165.337C197.792 163.392 199.348 162.372 202.459 162.278L204.094 162.226V161.628C204.094 160.872 203.93 160.315 203.602 159.958C203.279 159.595 202.761 159.413 202.046 159.413C201.243 159.413 200.335 159.659 199.321 160.151L198.873 159.035C199.348 158.777 199.866 158.575 200.429 158.429C200.997 158.282 201.565 158.209 202.134 158.209C203.282 158.209 204.132 158.464 204.683 158.974C205.239 159.483 205.518 160.301 205.518 161.426V168H204.437ZM201.141 166.972C202.049 166.972 202.761 166.723 203.276 166.225C203.798 165.727 204.059 165.029 204.059 164.133V163.263L202.6 163.324C201.439 163.365 200.602 163.547 200.086 163.869C199.576 164.186 199.321 164.681 199.321 165.354C199.321 165.882 199.479 166.283 199.796 166.559C200.118 166.834 200.566 166.972 201.141 166.972ZM215.124 168V161.769C215.124 160.983 214.945 160.397 214.588 160.011C214.23 159.624 213.671 159.431 212.909 159.431C211.901 159.431 211.163 159.703 210.694 160.248C210.226 160.793 209.991 161.692 209.991 162.946V168H208.532V158.367H209.719L209.956 159.686H210.026C210.325 159.211 210.744 158.845 211.283 158.587C211.822 158.323 212.423 158.191 213.085 158.191C214.245 158.191 215.118 158.473 215.704 159.035C216.29 159.592 216.583 160.485 216.583 161.716V168H215.124ZM225.724 168H224.265V158.367H225.724V168ZM224.142 155.757C224.142 155.423 224.224 155.18 224.388 155.027C224.552 154.869 224.757 154.79 225.003 154.79C225.237 154.79 225.439 154.869 225.609 155.027C225.779 155.186 225.864 155.429 225.864 155.757C225.864 156.085 225.779 156.331 225.609 156.495C225.439 156.653 225.237 156.732 225.003 156.732C224.757 156.732 224.552 156.653 224.388 156.495C224.224 156.331 224.142 156.085 224.142 155.757ZM235.409 168V161.769C235.409 160.983 235.23 160.397 234.873 160.011C234.516 159.624 233.956 159.431 233.194 159.431C232.187 159.431 231.448 159.703 230.979 160.248C230.511 160.793 230.276 161.692 230.276 162.946V168H228.817V158.367H230.004L230.241 159.686H230.312C230.61 159.211 231.029 158.845 231.568 158.587C232.107 158.323 232.708 158.191 233.37 158.191C234.53 158.191 235.403 158.473 235.989 159.035C236.575 159.592 236.868 160.485 236.868 161.716V168H235.409ZM239.065 163.843V162.507H243.381V163.843H239.065ZM252.231 166.708H252.152C251.479 167.687 250.471 168.176 249.129 168.176C247.869 168.176 246.888 167.745 246.185 166.884C245.487 166.022 245.139 164.798 245.139 163.21C245.139 161.622 245.49 160.389 246.193 159.51C246.896 158.631 247.875 158.191 249.129 158.191C250.436 158.191 251.438 158.666 252.135 159.615H252.249L252.188 158.921L252.152 158.244V154.324H253.611V168H252.425L252.231 166.708ZM249.313 166.954C250.31 166.954 251.03 166.685 251.476 166.146C251.927 165.601 252.152 164.725 252.152 163.518V163.21C252.152 161.845 251.924 160.872 251.467 160.292C251.016 159.706 250.292 159.413 249.296 159.413C248.44 159.413 247.784 159.747 247.327 160.415C246.876 161.077 246.65 162.015 246.65 163.228C246.65 164.458 246.876 165.387 247.327 166.014C247.778 166.641 248.44 166.954 249.313 166.954ZM260.783 168.176C259.359 168.176 258.234 167.742 257.408 166.875C256.588 166.008 256.178 164.804 256.178 163.263C256.178 161.71 256.559 160.477 257.32 159.562C258.088 158.648 259.116 158.191 260.405 158.191C261.612 158.191 262.567 158.59 263.271 159.387C263.974 160.178 264.325 161.224 264.325 162.524V163.447H257.689C257.719 164.578 258.003 165.437 258.542 166.022C259.087 166.608 259.852 166.901 260.836 166.901C261.873 166.901 262.898 166.685 263.912 166.251V167.552C263.396 167.774 262.907 167.933 262.444 168.026C261.987 168.126 261.434 168.176 260.783 168.176ZM260.388 159.413C259.614 159.413 258.996 159.665 258.533 160.169C258.076 160.673 257.807 161.37 257.725 162.261H262.761C262.761 161.341 262.556 160.638 262.146 160.151C261.735 159.659 261.149 159.413 260.388 159.413ZM271.304 168.176C270.677 168.176 270.103 168.062 269.581 167.833C269.065 167.599 268.632 167.241 268.28 166.761H268.175C268.245 167.323 268.28 167.856 268.28 168.36V172.324H266.821V158.367H268.008L268.21 159.686H268.28C268.655 159.158 269.092 158.777 269.59 158.543C270.088 158.309 270.659 158.191 271.304 158.191C272.581 158.191 273.565 158.628 274.257 159.501C274.954 160.374 275.303 161.599 275.303 163.175C275.303 164.757 274.948 165.987 274.239 166.866C273.536 167.739 272.558 168.176 271.304 168.176ZM271.093 159.431C270.108 159.431 269.396 159.703 268.957 160.248C268.518 160.793 268.292 161.66 268.28 162.85V163.175C268.28 164.528 268.506 165.498 268.957 166.084C269.408 166.664 270.132 166.954 271.128 166.954C271.96 166.954 272.61 166.617 273.079 165.943C273.554 165.27 273.791 164.341 273.791 163.157C273.791 161.956 273.554 161.036 273.079 160.397C272.61 159.753 271.948 159.431 271.093 159.431ZM280.972 166.972C281.229 166.972 281.479 166.954 281.719 166.919C281.959 166.878 282.149 166.837 282.29 166.796V167.912C282.132 167.988 281.897 168.05 281.587 168.097C281.282 168.149 281.007 168.176 280.761 168.176C278.897 168.176 277.966 167.194 277.966 165.231V159.501H276.586V158.798L277.966 158.191L278.581 156.135H279.425V158.367H282.22V159.501H279.425V165.17C279.425 165.75 279.562 166.195 279.838 166.506C280.113 166.816 280.491 166.972 280.972 166.972ZM290.815 168V161.769C290.815 160.983 290.637 160.397 290.279 160.011C289.922 159.624 289.362 159.431 288.601 159.431C287.587 159.431 286.846 159.706 286.377 160.257C285.914 160.808 285.683 161.71 285.683 162.964V168H284.224V154.324H285.683V158.464C285.683 158.962 285.659 159.375 285.612 159.703H285.7C285.987 159.24 286.395 158.877 286.922 158.613C287.455 158.344 288.062 158.209 288.741 158.209C289.919 158.209 290.801 158.49 291.387 159.053C291.979 159.609 292.274 160.497 292.274 161.716V168H290.815ZM305.88 168L305.59 166.629H305.52C305.039 167.232 304.559 167.643 304.078 167.859C303.604 168.07 303.009 168.176 302.294 168.176C301.339 168.176 300.589 167.93 300.044 167.438C299.505 166.945 299.235 166.245 299.235 165.337C299.235 163.392 300.791 162.372 303.902 162.278L305.537 162.226V161.628C305.537 160.872 305.373 160.315 305.045 159.958C304.723 159.595 304.204 159.413 303.489 159.413C302.687 159.413 301.778 159.659 300.765 160.151L300.316 159.035C300.791 158.777 301.31 158.575 301.872 158.429C302.44 158.282 303.009 158.209 303.577 158.209C304.726 158.209 305.575 158.464 306.126 158.974C306.683 159.483 306.961 160.301 306.961 161.426V168H305.88ZM302.584 166.972C303.492 166.972 304.204 166.723 304.72 166.225C305.241 165.727 305.502 165.029 305.502 164.133V163.263L304.043 163.324C302.883 163.365 302.045 163.547 301.529 163.869C301.02 164.186 300.765 164.681 300.765 165.354C300.765 165.882 300.923 166.283 301.239 166.559C301.562 166.834 302.01 166.972 302.584 166.972ZM316.567 168V161.769C316.567 160.983 316.389 160.397 316.031 160.011C315.674 159.624 315.114 159.431 314.353 159.431C313.345 159.431 312.606 159.703 312.138 160.248C311.669 160.793 311.435 161.692 311.435 162.946V168H309.976V158.367H311.162L311.399 159.686H311.47C311.769 159.211 312.188 158.845 312.727 158.587C313.266 158.323 313.866 158.191 314.528 158.191C315.688 158.191 316.562 158.473 317.147 159.035C317.733 159.592 318.026 160.485 318.026 161.716V168H316.567ZM326.956 168L326.666 166.629H326.596C326.115 167.232 325.635 167.643 325.154 167.859C324.68 168.07 324.085 168.176 323.37 168.176C322.415 168.176 321.665 167.93 321.12 167.438C320.581 166.945 320.312 166.245 320.312 165.337C320.312 163.392 321.867 162.372 324.979 162.278L326.613 162.226V161.628C326.613 160.872 326.449 160.315 326.121 159.958C325.799 159.595 325.28 159.413 324.565 159.413C323.763 159.413 322.854 159.659 321.841 160.151L321.393 159.035C321.867 158.777 322.386 158.575 322.948 158.429C323.517 158.282 324.085 158.209 324.653 158.209C325.802 158.209 326.651 158.464 327.202 158.974C327.759 159.483 328.037 160.301 328.037 161.426V168H326.956ZM323.66 166.972C324.568 166.972 325.28 166.723 325.796 166.225C326.317 165.727 326.578 165.029 326.578 164.133V163.263L325.119 163.324C323.959 163.365 323.121 163.547 322.605 163.869C322.096 164.186 321.841 164.681 321.841 165.354C321.841 165.882 321.999 166.283 322.315 166.559C322.638 166.834 323.086 166.972 323.66 166.972ZM332.511 168H331.052V154.324H332.511V168ZM334.075 158.367H335.64L337.749 163.86C338.212 165.114 338.499 166.02 338.61 166.576H338.681C338.757 166.277 338.915 165.768 339.155 165.047C339.401 164.32 340.198 162.094 341.546 158.367H343.11L338.971 169.336C338.561 170.42 338.08 171.188 337.529 171.639C336.984 172.096 336.313 172.324 335.517 172.324C335.071 172.324 334.632 172.274 334.198 172.175V171.006C334.521 171.076 334.881 171.111 335.279 171.111C336.281 171.111 336.996 170.549 337.424 169.424L337.96 168.053L334.075 158.367ZM350.889 165.372C350.889 166.269 350.555 166.96 349.887 167.446C349.219 167.933 348.281 168.176 347.074 168.176C345.797 168.176 344.801 167.974 344.086 167.569V166.216C344.549 166.45 345.044 166.635 345.571 166.77C346.104 166.904 346.617 166.972 347.109 166.972C347.871 166.972 348.457 166.852 348.867 166.611C349.277 166.365 349.482 165.993 349.482 165.495C349.482 165.12 349.318 164.801 348.99 164.537C348.668 164.268 348.035 163.951 347.092 163.588C346.195 163.254 345.557 162.964 345.176 162.718C344.801 162.466 344.52 162.182 344.332 161.865C344.15 161.549 344.06 161.171 344.06 160.731C344.06 159.946 344.379 159.328 345.018 158.877C345.656 158.42 346.532 158.191 347.646 158.191C348.683 158.191 349.696 158.402 350.687 158.824L350.168 160.011C349.201 159.612 348.325 159.413 347.54 159.413C346.849 159.413 346.327 159.521 345.976 159.738C345.624 159.955 345.448 160.254 345.448 160.635C345.448 160.893 345.513 161.112 345.642 161.294C345.776 161.476 345.99 161.648 346.283 161.812C346.576 161.977 347.139 162.214 347.971 162.524C349.113 162.94 349.884 163.359 350.282 163.781C350.687 164.203 350.889 164.733 350.889 165.372ZM354.729 168H353.271V158.367H354.729V168ZM353.147 155.757C353.147 155.423 353.229 155.18 353.394 155.027C353.558 154.869 353.763 154.79 354.009 154.79C354.243 154.79 354.445 154.869 354.615 155.027C354.785 155.186 354.87 155.429 354.87 155.757C354.87 156.085 354.785 156.331 354.615 156.495C354.445 156.653 354.243 156.732 354.009 156.732C353.763 156.732 353.558 156.653 353.394 156.495C353.229 156.331 353.147 156.085 353.147 155.757ZM364.037 165.372C364.037 166.269 363.703 166.96 363.035 167.446C362.367 167.933 361.43 168.176 360.223 168.176C358.945 168.176 357.949 167.974 357.234 167.569V166.216C357.697 166.45 358.192 166.635 358.72 166.77C359.253 166.904 359.766 166.972 360.258 166.972C361.02 166.972 361.605 166.852 362.016 166.611C362.426 166.365 362.631 165.993 362.631 165.495C362.631 165.12 362.467 164.801 362.139 164.537C361.816 164.268 361.184 163.951 360.24 163.588C359.344 163.254 358.705 162.964 358.324 162.718C357.949 162.466 357.668 162.182 357.48 161.865C357.299 161.549 357.208 161.171 357.208 160.731C357.208 159.946 357.527 159.328 358.166 158.877C358.805 158.42 359.681 158.191 360.794 158.191C361.831 158.191 362.845 158.402 363.835 158.824L363.316 160.011C362.35 159.612 361.474 159.413 360.688 159.413C359.997 159.413 359.476 159.521 359.124 159.738C358.772 159.955 358.597 160.254 358.597 160.635C358.597 160.893 358.661 161.112 358.79 161.294C358.925 161.476 359.139 161.648 359.432 161.812C359.725 161.977 360.287 162.214 361.119 162.524C362.262 162.94 363.032 163.359 363.431 163.781C363.835 164.203 364.037 164.733 364.037 165.372ZM379.409 163.175C379.409 164.745 379.014 165.973 378.223 166.857C377.432 167.736 376.339 168.176 374.944 168.176C374.083 168.176 373.318 167.974 372.65 167.569C371.982 167.165 371.467 166.585 371.104 165.829C370.74 165.073 370.559 164.188 370.559 163.175C370.559 161.604 370.951 160.383 371.736 159.51C372.521 158.631 373.611 158.191 375.006 158.191C376.354 158.191 377.423 158.64 378.214 159.536C379.011 160.433 379.409 161.646 379.409 163.175ZM372.07 163.175C372.07 164.405 372.316 165.343 372.809 165.987C373.301 166.632 374.024 166.954 374.979 166.954C375.935 166.954 376.658 166.635 377.15 165.996C377.648 165.352 377.897 164.411 377.897 163.175C377.897 161.95 377.648 161.021 377.15 160.389C376.658 159.75 375.929 159.431 374.962 159.431C374.007 159.431 373.286 159.744 372.8 160.371C372.313 160.998 372.07 161.933 372.07 163.175ZM386.317 159.501H383.865V168H382.406V159.501H380.684V158.842L382.406 158.314V157.778C382.406 155.411 383.44 154.228 385.509 154.228C386.019 154.228 386.616 154.33 387.302 154.535L386.924 155.704C386.361 155.522 385.881 155.432 385.482 155.432C384.932 155.432 384.524 155.616 384.261 155.985C383.997 156.349 383.865 156.935 383.865 157.743V158.367H386.317V159.501ZM395.862 166.972C396.12 166.972 396.369 166.954 396.609 166.919C396.85 166.878 397.04 166.837 397.181 166.796V167.912C397.022 167.988 396.788 168.05 396.478 168.097C396.173 168.149 395.897 168.176 395.651 168.176C393.788 168.176 392.856 167.194 392.856 165.231V159.501H391.477V158.798L392.856 158.191L393.472 156.135H394.315V158.367H397.11V159.501H394.315V165.17C394.315 165.75 394.453 166.195 394.729 166.506C395.004 166.816 395.382 166.972 395.862 166.972ZM405.706 168V161.769C405.706 160.983 405.527 160.397 405.17 160.011C404.812 159.624 404.253 159.431 403.491 159.431C402.478 159.431 401.736 159.706 401.268 160.257C400.805 160.808 400.573 161.71 400.573 162.964V168H399.114V154.324H400.573V158.464C400.573 158.962 400.55 159.375 400.503 159.703H400.591C400.878 159.24 401.285 158.877 401.812 158.613C402.346 158.344 402.952 158.209 403.632 158.209C404.81 158.209 405.691 158.49 406.277 159.053C406.869 159.609 407.165 160.497 407.165 161.716V168H405.706ZM414.24 168.176C412.816 168.176 411.691 167.742 410.865 166.875C410.045 166.008 409.635 164.804 409.635 163.263C409.635 161.71 410.016 160.477 410.777 159.562C411.545 158.648 412.573 158.191 413.862 158.191C415.069 158.191 416.024 158.59 416.728 159.387C417.431 160.178 417.782 161.224 417.782 162.524V163.447H411.146C411.176 164.578 411.46 165.437 411.999 166.022C412.544 166.608 413.309 166.901 414.293 166.901C415.33 166.901 416.355 166.685 417.369 166.251V167.552C416.854 167.774 416.364 167.933 415.901 168.026C415.444 168.126 414.891 168.176 414.24 168.176ZM413.845 159.413C413.071 159.413 412.453 159.665 411.99 160.169C411.533 160.673 411.264 161.37 411.182 162.261H416.218C416.218 161.341 416.013 160.638 415.603 160.151C415.192 159.659 414.606 159.413 413.845 159.413ZM95.0918 193.176C93.668 193.176 92.543 192.742 91.7168 191.875C90.8965 191.008 90.4863 189.804 90.4863 188.263C90.4863 186.71 90.8672 185.477 91.6289 184.562C92.3965 183.648 93.4248 183.191 94.7139 183.191C95.9209 183.191 96.876 183.59 97.5791 184.387C98.2822 185.178 98.6338 186.224 98.6338 187.524V188.447H91.998C92.0273 189.578 92.3115 190.437 92.8506 191.022C93.3955 191.608 94.1602 191.901 95.1445 191.901C96.1816 191.901 97.207 191.685 98.2207 191.251V192.552C97.7051 192.774 97.2158 192.933 96.7529 193.026C96.2959 193.126 95.7422 193.176 95.0918 193.176ZM94.6963 184.413C93.9229 184.413 93.3047 184.665 92.8418 185.169C92.3848 185.673 92.1152 186.37 92.0332 187.261H97.0693C97.0693 186.341 96.8643 185.638 96.4541 185.151C96.0439 184.659 95.458 184.413 94.6963 184.413ZM107.722 193V186.769C107.722 185.983 107.543 185.397 107.186 185.011C106.828 184.624 106.269 184.431 105.507 184.431C104.499 184.431 103.761 184.703 103.292 185.248C102.823 185.793 102.589 186.692 102.589 187.946V193H101.13V183.367H102.316L102.554 184.686H102.624C102.923 184.211 103.342 183.845 103.881 183.587C104.42 183.323 105.021 183.191 105.683 183.191C106.843 183.191 107.716 183.473 108.302 184.035C108.888 184.592 109.181 185.485 109.181 186.716V193H107.722ZM115.298 191.972C115.556 191.972 115.805 191.954 116.045 191.919C116.285 191.878 116.476 191.837 116.616 191.796V192.912C116.458 192.988 116.224 193.05 115.913 193.097C115.608 193.149 115.333 193.176 115.087 193.176C113.224 193.176 112.292 192.194 112.292 190.231V184.501H110.912V183.798L112.292 183.191L112.907 181.135H113.751V183.367H116.546V184.501H113.751V190.17C113.751 190.75 113.889 191.195 114.164 191.506C114.439 191.816 114.817 191.972 115.298 191.972ZM120.009 193H118.55V183.367H120.009V193ZM118.427 180.757C118.427 180.423 118.509 180.18 118.673 180.027C118.837 179.869 119.042 179.79 119.288 179.79C119.522 179.79 119.725 179.869 119.895 180.027C120.064 180.186 120.149 180.429 120.149 180.757C120.149 181.085 120.064 181.331 119.895 181.495C119.725 181.653 119.522 181.732 119.288 181.732C119.042 181.732 118.837 181.653 118.673 181.495C118.509 181.331 118.427 181.085 118.427 180.757ZM127.497 183.191C127.925 183.191 128.309 183.227 128.648 183.297L128.446 184.65C128.048 184.562 127.696 184.519 127.392 184.519C126.612 184.519 125.944 184.835 125.388 185.468C124.837 186.101 124.562 186.889 124.562 187.832V193H123.103V183.367H124.307L124.474 185.151H124.544C124.901 184.524 125.332 184.041 125.836 183.701C126.34 183.361 126.894 183.191 127.497 183.191ZM134.52 193.176C133.096 193.176 131.971 192.742 131.145 191.875C130.324 191.008 129.914 189.804 129.914 188.263C129.914 186.71 130.295 185.477 131.057 184.562C131.824 183.648 132.853 183.191 134.142 183.191C135.349 183.191 136.304 183.59 137.007 184.387C137.71 185.178 138.062 186.224 138.062 187.524V188.447H131.426C131.455 189.578 131.739 190.437 132.278 191.022C132.823 191.608 133.588 191.901 134.572 191.901C135.609 191.901 136.635 191.685 137.648 191.251V192.552C137.133 192.774 136.644 192.933 136.181 193.026C135.724 193.126 135.17 193.176 134.52 193.176ZM134.124 184.413C133.351 184.413 132.732 184.665 132.27 185.169C131.812 185.673 131.543 186.37 131.461 187.261H136.497C136.497 186.341 136.292 185.638 135.882 185.151C135.472 184.659 134.886 184.413 134.124 184.413ZM146.692 193H145.233V183.367H146.692V193ZM145.11 180.757C145.11 180.423 145.192 180.18 145.356 180.027C145.521 179.869 145.726 179.79 145.972 179.79C146.206 179.79 146.408 179.869 146.578 180.027C146.748 180.186 146.833 180.429 146.833 180.757C146.833 181.085 146.748 181.331 146.578 181.495C146.408 181.653 146.206 181.732 145.972 181.732C145.726 181.732 145.521 181.653 145.356 181.495C145.192 181.331 145.11 181.085 145.11 180.757ZM156.378 193V186.769C156.378 185.983 156.199 185.397 155.842 185.011C155.484 184.624 154.925 184.431 154.163 184.431C153.155 184.431 152.417 184.703 151.948 185.248C151.479 185.793 151.245 186.692 151.245 187.946V193H149.786V183.367H150.973L151.21 184.686H151.28C151.579 184.211 151.998 183.845 152.537 183.587C153.076 183.323 153.677 183.191 154.339 183.191C155.499 183.191 156.372 183.473 156.958 184.035C157.544 184.592 157.837 185.485 157.837 186.716V193H156.378ZM165.185 184.501H162.732V193H161.273V184.501H159.551V183.842L161.273 183.314V182.778C161.273 180.411 162.308 179.228 164.376 179.228C164.886 179.228 165.483 179.33 166.169 179.535L165.791 180.704C165.229 180.522 164.748 180.432 164.35 180.432C163.799 180.432 163.392 180.616 163.128 180.985C162.864 181.349 162.732 181.935 162.732 182.743V183.367H165.185V184.501ZM175.257 188.175C175.257 189.745 174.861 190.973 174.07 191.857C173.279 192.736 172.187 193.176 170.792 193.176C169.931 193.176 169.166 192.974 168.498 192.569C167.83 192.165 167.314 191.585 166.951 190.829C166.588 190.073 166.406 189.188 166.406 188.175C166.406 186.604 166.799 185.383 167.584 184.51C168.369 183.631 169.459 183.191 170.854 183.191C172.201 183.191 173.271 183.64 174.062 184.536C174.858 185.433 175.257 186.646 175.257 188.175ZM167.918 188.175C167.918 189.405 168.164 190.343 168.656 190.987C169.148 191.632 169.872 191.954 170.827 191.954C171.782 191.954 172.506 191.635 172.998 190.996C173.496 190.352 173.745 189.411 173.745 188.175C173.745 186.95 173.496 186.021 172.998 185.389C172.506 184.75 171.776 184.431 170.81 184.431C169.854 184.431 169.134 184.744 168.647 185.371C168.161 185.998 167.918 186.933 167.918 188.175ZM182.218 183.191C182.646 183.191 183.029 183.227 183.369 183.297L183.167 184.65C182.769 184.562 182.417 184.519 182.112 184.519C181.333 184.519 180.665 184.835 180.108 185.468C179.558 186.101 179.282 186.889 179.282 187.832V193H177.823V183.367H179.027L179.194 185.151H179.265C179.622 184.524 180.053 184.041 180.557 183.701C181.061 183.361 181.614 183.191 182.218 183.191ZM197.449 193V186.733C197.449 185.966 197.285 185.392 196.957 185.011C196.629 184.624 196.119 184.431 195.428 184.431C194.52 184.431 193.849 184.691 193.415 185.213C192.981 185.734 192.765 186.537 192.765 187.621V193H191.306V186.733C191.306 185.966 191.142 185.392 190.813 185.011C190.485 184.624 189.973 184.431 189.275 184.431C188.361 184.431 187.69 184.706 187.263 185.257C186.841 185.802 186.63 186.698 186.63 187.946V193H185.171V183.367H186.357L186.595 184.686H186.665C186.94 184.217 187.327 183.851 187.825 183.587C188.329 183.323 188.892 183.191 189.513 183.191C191.019 183.191 192.003 183.736 192.466 184.826H192.536C192.823 184.322 193.239 183.924 193.784 183.631C194.329 183.338 194.95 183.191 195.647 183.191C196.737 183.191 197.552 183.473 198.091 184.035C198.636 184.592 198.908 185.485 198.908 186.716V193H197.449ZM207.847 193L207.557 191.629H207.486C207.006 192.232 206.525 192.643 206.045 192.859C205.57 193.07 204.976 193.176 204.261 193.176C203.306 193.176 202.556 192.93 202.011 192.438C201.472 191.945 201.202 191.245 201.202 190.337C201.202 188.392 202.758 187.372 205.869 187.278L207.504 187.226V186.628C207.504 185.872 207.34 185.315 207.012 184.958C206.689 184.595 206.171 184.413 205.456 184.413C204.653 184.413 203.745 184.659 202.731 185.151L202.283 184.035C202.758 183.777 203.276 183.575 203.839 183.429C204.407 183.282 204.976 183.209 205.544 183.209C206.692 183.209 207.542 183.464 208.093 183.974C208.649 184.483 208.928 185.301 208.928 186.426V193H207.847ZM204.551 191.972C205.459 191.972 206.171 191.723 206.687 191.225C207.208 190.727 207.469 190.029 207.469 189.133V188.263L206.01 188.324C204.85 188.365 204.012 188.547 203.496 188.869C202.986 189.186 202.731 189.681 202.731 190.354C202.731 190.882 202.89 191.283 203.206 191.559C203.528 191.834 203.977 191.972 204.551 191.972ZM215.054 191.972C215.312 191.972 215.561 191.954 215.801 191.919C216.041 191.878 216.231 191.837 216.372 191.796V192.912C216.214 192.988 215.979 193.05 215.669 193.097C215.364 193.149 215.089 193.176 214.843 193.176C212.979 193.176 212.048 192.194 212.048 190.231V184.501H210.668V183.798L212.048 183.191L212.663 181.135H213.507V183.367H216.302V184.501H213.507V190.17C213.507 190.75 213.645 191.195 213.92 191.506C214.195 191.816 214.573 191.972 215.054 191.972ZM219.765 193H218.306V183.367H219.765V193ZM218.183 180.757C218.183 180.423 218.265 180.18 218.429 180.027C218.593 179.869 218.798 179.79 219.044 179.79C219.278 179.79 219.48 179.869 219.65 180.027C219.82 180.186 219.905 180.429 219.905 180.757C219.905 181.085 219.82 181.331 219.65 181.495C219.48 181.653 219.278 181.732 219.044 181.732C218.798 181.732 218.593 181.653 218.429 181.495C218.265 181.331 218.183 181.085 218.183 180.757ZM231.173 188.175C231.173 189.745 230.777 190.973 229.986 191.857C229.195 192.736 228.103 193.176 226.708 193.176C225.847 193.176 225.082 192.974 224.414 192.569C223.746 192.165 223.23 191.585 222.867 190.829C222.504 190.073 222.322 189.188 222.322 188.175C222.322 186.604 222.715 185.383 223.5 184.51C224.285 183.631 225.375 183.191 226.77 183.191C228.117 183.191 229.187 183.64 229.978 184.536C230.774 185.433 231.173 186.646 231.173 188.175ZM223.834 188.175C223.834 189.405 224.08 190.343 224.572 190.987C225.064 191.632 225.788 191.954 226.743 191.954C227.698 191.954 228.422 191.635 228.914 190.996C229.412 190.352 229.661 189.411 229.661 188.175C229.661 186.95 229.412 186.021 228.914 185.389C228.422 184.75 227.692 184.431 226.726 184.431C225.771 184.431 225.05 184.744 224.563 185.371C224.077 185.998 223.834 186.933 223.834 188.175ZM240.331 193V186.769C240.331 185.983 240.152 185.397 239.795 185.011C239.438 184.624 238.878 184.431 238.116 184.431C237.108 184.431 236.37 184.703 235.901 185.248C235.433 185.793 235.198 186.692 235.198 187.946V193H233.739V183.367H234.926L235.163 184.686H235.233C235.532 184.211 235.951 183.845 236.49 183.587C237.029 183.323 237.63 183.191 238.292 183.191C239.452 183.191 240.325 183.473 240.911 184.035C241.497 184.592 241.79 185.485 241.79 186.716V193H240.331ZM255.686 190.372C255.686 191.269 255.352 191.96 254.684 192.446C254.016 192.933 253.078 193.176 251.871 193.176C250.594 193.176 249.598 192.974 248.883 192.569V191.216C249.346 191.45 249.841 191.635 250.368 191.77C250.901 191.904 251.414 191.972 251.906 191.972C252.668 191.972 253.254 191.852 253.664 191.611C254.074 191.365 254.279 190.993 254.279 190.495C254.279 190.12 254.115 189.801 253.787 189.537C253.465 189.268 252.832 188.951 251.889 188.588C250.992 188.254 250.354 187.964 249.973 187.718C249.598 187.466 249.316 187.182 249.129 186.865C248.947 186.549 248.856 186.171 248.856 185.731C248.856 184.946 249.176 184.328 249.814 183.877C250.453 183.42 251.329 183.191 252.442 183.191C253.479 183.191 254.493 183.402 255.483 183.824L254.965 185.011C253.998 184.612 253.122 184.413 252.337 184.413C251.646 184.413 251.124 184.521 250.772 184.738C250.421 184.955 250.245 185.254 250.245 185.635C250.245 185.893 250.31 186.112 250.438 186.294C250.573 186.476 250.787 186.648 251.08 186.812C251.373 186.977 251.936 187.214 252.768 187.524C253.91 187.94 254.681 188.359 255.079 188.781C255.483 189.203 255.686 189.733 255.686 190.372ZM262.137 193.176C260.713 193.176 259.588 192.742 258.762 191.875C257.941 191.008 257.531 189.804 257.531 188.263C257.531 186.71 257.912 185.477 258.674 184.562C259.441 183.648 260.47 183.191 261.759 183.191C262.966 183.191 263.921 183.59 264.624 184.387C265.327 185.178 265.679 186.224 265.679 187.524V188.447H259.043C259.072 189.578 259.356 190.437 259.896 191.022C260.44 191.608 261.205 191.901 262.189 191.901C263.227 191.901 264.252 191.685 265.266 191.251V192.552C264.75 192.774 264.261 192.933 263.798 193.026C263.341 193.126 262.787 193.176 262.137 193.176ZM261.741 184.413C260.968 184.413 260.35 184.665 259.887 185.169C259.43 185.673 259.16 186.37 259.078 187.261H264.114C264.114 186.341 263.909 185.638 263.499 185.151C263.089 184.659 262.503 184.413 261.741 184.413ZM272.024 193.176C270.63 193.176 269.549 192.748 268.781 191.893C268.02 191.031 267.639 189.815 267.639 188.245C267.639 186.634 268.025 185.389 268.799 184.51C269.578 183.631 270.686 183.191 272.121 183.191C272.584 183.191 273.047 183.241 273.51 183.341C273.973 183.44 274.336 183.558 274.6 183.692L274.151 184.932C273.829 184.803 273.478 184.697 273.097 184.615C272.716 184.527 272.379 184.483 272.086 184.483C270.129 184.483 269.15 185.731 269.15 188.228C269.15 189.411 269.388 190.319 269.862 190.952C270.343 191.585 271.052 191.901 271.989 191.901C272.792 191.901 273.615 191.729 274.459 191.383V192.675C273.814 193.009 273.003 193.176 272.024 193.176ZM278.124 183.367V189.616C278.124 190.401 278.303 190.987 278.66 191.374C279.018 191.761 279.577 191.954 280.339 191.954C281.347 191.954 282.082 191.679 282.545 191.128C283.014 190.577 283.248 189.678 283.248 188.43V183.367H284.707V193H283.503L283.292 191.708H283.213C282.914 192.183 282.498 192.546 281.965 192.798C281.438 193.05 280.834 193.176 280.154 193.176C278.982 193.176 278.104 192.897 277.518 192.341C276.938 191.784 276.647 190.894 276.647 189.669V183.367H278.124ZM292.204 183.191C292.632 183.191 293.016 183.227 293.355 183.297L293.153 184.65C292.755 184.562 292.403 184.519 292.099 184.519C291.319 184.519 290.651 184.835 290.095 185.468C289.544 186.101 289.269 186.889 289.269 187.832V193H287.81V183.367H289.014L289.181 185.151H289.251C289.608 184.524 290.039 184.041 290.543 183.701C291.047 183.361 291.601 183.191 292.204 183.191ZM296.616 193H295.157V183.367H296.616V193ZM295.034 180.757C295.034 180.423 295.116 180.18 295.28 180.027C295.444 179.869 295.649 179.79 295.896 179.79C296.13 179.79 296.332 179.869 296.502 180.027C296.672 180.186 296.757 180.429 296.757 180.757C296.757 181.085 296.672 181.331 296.502 181.495C296.332 181.653 296.13 181.732 295.896 181.732C295.649 181.732 295.444 181.653 295.28 181.495C295.116 181.331 295.034 181.085 295.034 180.757ZM302.821 191.972C303.079 191.972 303.328 191.954 303.568 191.919C303.809 191.878 303.999 191.837 304.14 191.796V192.912C303.981 192.988 303.747 193.05 303.437 193.097C303.132 193.149 302.856 193.176 302.61 193.176C300.747 193.176 299.815 192.194 299.815 190.231V184.501H298.436V183.798L299.815 183.191L300.431 181.135H301.274V183.367H304.069V184.501H301.274V190.17C301.274 190.75 301.412 191.195 301.688 191.506C301.963 191.816 302.341 191.972 302.821 191.972ZM304.544 183.367H306.108L308.218 188.86C308.681 190.114 308.968 191.02 309.079 191.576H309.149C309.226 191.277 309.384 190.768 309.624 190.047C309.87 189.32 310.667 187.094 312.015 183.367H313.579L309.439 194.336C309.029 195.42 308.549 196.188 307.998 196.639C307.453 197.096 306.782 197.324 305.985 197.324C305.54 197.324 305.101 197.274 304.667 197.175V196.006C304.989 196.076 305.35 196.111 305.748 196.111C306.75 196.111 307.465 195.549 307.893 194.424L308.429 193.053L304.544 183.367ZM324.302 193.176C323.675 193.176 323.101 193.062 322.579 192.833C322.063 192.599 321.63 192.241 321.278 191.761H321.173C321.243 192.323 321.278 192.856 321.278 193.36V197.324H319.819V183.367H321.006L321.208 184.686H321.278C321.653 184.158 322.09 183.777 322.588 183.543C323.086 183.309 323.657 183.191 324.302 183.191C325.579 183.191 326.563 183.628 327.255 184.501C327.952 185.374 328.301 186.599 328.301 188.175C328.301 189.757 327.946 190.987 327.237 191.866C326.534 192.739 325.556 193.176 324.302 193.176ZM324.091 184.431C323.106 184.431 322.395 184.703 321.955 185.248C321.516 185.793 321.29 186.66 321.278 187.85V188.175C321.278 189.528 321.504 190.498 321.955 191.084C322.406 191.664 323.13 191.954 324.126 191.954C324.958 191.954 325.608 191.617 326.077 190.943C326.552 190.27 326.789 189.341 326.789 188.157C326.789 186.956 326.552 186.036 326.077 185.397C325.608 184.753 324.946 184.431 324.091 184.431ZM335.253 183.191C335.681 183.191 336.064 183.227 336.404 183.297L336.202 184.65C335.804 184.562 335.452 184.519 335.147 184.519C334.368 184.519 333.7 184.835 333.144 185.468C332.593 186.101 332.317 186.889 332.317 187.832V193H330.858V183.367H332.062L332.229 185.151H332.3C332.657 184.524 333.088 184.041 333.592 183.701C334.096 183.361 334.649 183.191 335.253 183.191ZM346.521 188.175C346.521 189.745 346.125 190.973 345.334 191.857C344.543 192.736 343.45 193.176 342.056 193.176C341.194 193.176 340.43 192.974 339.762 192.569C339.094 192.165 338.578 191.585 338.215 190.829C337.852 190.073 337.67 189.188 337.67 188.175C337.67 186.604 338.062 185.383 338.848 184.51C339.633 183.631 340.723 183.191 342.117 183.191C343.465 183.191 344.534 183.64 345.325 184.536C346.122 185.433 346.521 186.646 346.521 188.175ZM339.182 188.175C339.182 189.405 339.428 190.343 339.92 190.987C340.412 191.632 341.136 191.954 342.091 191.954C343.046 191.954 343.77 191.635 344.262 190.996C344.76 190.352 345.009 189.411 345.009 188.175C345.009 186.95 344.76 186.021 344.262 185.389C343.77 184.75 343.04 184.431 342.073 184.431C341.118 184.431 340.397 184.744 339.911 185.371C339.425 185.998 339.182 186.933 339.182 188.175ZM356.971 183.367V184.29L355.187 184.501C355.351 184.706 355.497 184.976 355.626 185.31C355.755 185.638 355.819 186.01 355.819 186.426C355.819 187.369 355.497 188.122 354.853 188.685C354.208 189.247 353.323 189.528 352.198 189.528C351.911 189.528 351.642 189.505 351.39 189.458C350.769 189.786 350.458 190.199 350.458 190.697C350.458 190.961 350.566 191.157 350.783 191.286C351 191.409 351.372 191.471 351.899 191.471H353.604C354.647 191.471 355.447 191.69 356.004 192.13C356.566 192.569 356.848 193.208 356.848 194.046C356.848 195.112 356.42 195.924 355.564 196.48C354.709 197.043 353.461 197.324 351.82 197.324C350.561 197.324 349.588 197.09 348.902 196.621C348.223 196.152 347.883 195.49 347.883 194.635C347.883 194.049 348.07 193.542 348.445 193.114C348.82 192.687 349.348 192.396 350.027 192.244C349.781 192.133 349.573 191.96 349.403 191.726C349.239 191.491 349.157 191.219 349.157 190.908C349.157 190.557 349.251 190.249 349.438 189.985C349.626 189.722 349.922 189.467 350.326 189.221C349.828 189.016 349.421 188.667 349.104 188.175C348.794 187.683 348.639 187.12 348.639 186.487C348.639 185.433 348.955 184.621 349.588 184.053C350.221 183.479 351.117 183.191 352.277 183.191C352.781 183.191 353.235 183.25 353.64 183.367H356.971ZM349.289 194.617C349.289 195.139 349.509 195.534 349.948 195.804C350.388 196.073 351.018 196.208 351.838 196.208C353.062 196.208 353.968 196.023 354.554 195.654C355.146 195.291 355.441 194.796 355.441 194.169C355.441 193.647 355.28 193.284 354.958 193.079C354.636 192.88 354.029 192.78 353.139 192.78H351.39C350.728 192.78 350.212 192.938 349.843 193.255C349.474 193.571 349.289 194.025 349.289 194.617ZM350.08 186.452C350.08 187.126 350.271 187.636 350.651 187.981C351.032 188.327 351.562 188.5 352.242 188.5C353.666 188.5 354.378 187.809 354.378 186.426C354.378 184.979 353.657 184.255 352.216 184.255C351.53 184.255 351.003 184.439 350.634 184.809C350.265 185.178 350.08 185.726 350.08 186.452ZM363.343 183.191C363.771 183.191 364.154 183.227 364.494 183.297L364.292 184.65C363.894 184.562 363.542 184.519 363.237 184.519C362.458 184.519 361.79 184.835 361.233 185.468C360.683 186.101 360.407 186.889 360.407 187.832V193H358.948V183.367H360.152L360.319 185.151H360.39C360.747 184.524 361.178 184.041 361.682 183.701C362.186 183.361 362.739 183.191 363.343 183.191ZM372.22 193L371.93 191.629H371.859C371.379 192.232 370.898 192.643 370.418 192.859C369.943 193.07 369.349 193.176 368.634 193.176C367.679 193.176 366.929 192.93 366.384 192.438C365.845 191.945 365.575 191.245 365.575 190.337C365.575 188.392 367.131 187.372 370.242 187.278L371.877 187.226V186.628C371.877 185.872 371.713 185.315 371.385 184.958C371.062 184.595 370.544 184.413 369.829 184.413C369.026 184.413 368.118 184.659 367.104 185.151L366.656 184.035C367.131 183.777 367.649 183.575 368.212 183.429C368.78 183.282 369.349 183.209 369.917 183.209C371.065 183.209 371.915 183.464 372.466 183.974C373.022 184.483 373.301 185.301 373.301 186.426V193H372.22ZM368.924 191.972C369.832 191.972 370.544 191.723 371.06 191.225C371.581 190.727 371.842 190.029 371.842 189.133V188.263L370.383 188.324C369.223 188.365 368.385 188.547 367.869 188.869C367.359 189.186 367.104 189.681 367.104 190.354C367.104 190.882 367.263 191.283 367.579 191.559C367.901 191.834 368.35 191.972 368.924 191.972ZM388.594 193V186.733C388.594 185.966 388.43 185.392 388.102 185.011C387.773 184.624 387.264 184.431 386.572 184.431C385.664 184.431 384.993 184.691 384.56 185.213C384.126 185.734 383.909 186.537 383.909 187.621V193H382.45V186.733C382.45 185.966 382.286 185.392 381.958 185.011C381.63 184.624 381.117 184.431 380.42 184.431C379.506 184.431 378.835 184.706 378.407 185.257C377.985 185.802 377.774 186.698 377.774 187.946V193H376.315V183.367H377.502L377.739 184.686H377.81C378.085 184.217 378.472 183.851 378.97 183.587C379.474 183.323 380.036 183.191 380.657 183.191C382.163 183.191 383.147 183.736 383.61 184.826H383.681C383.968 184.322 384.384 183.924 384.929 183.631C385.474 183.338 386.095 183.191 386.792 183.191C387.882 183.191 388.696 183.473 389.235 184.035C389.78 184.592 390.053 185.485 390.053 186.716V193H388.594ZM402.085 184.501H399.633V193H398.174V184.501H396.451V183.842L398.174 183.314V182.778C398.174 180.411 399.208 179.228 401.276 179.228C401.786 179.228 402.384 179.33 403.069 179.535L402.691 180.704C402.129 180.522 401.648 180.432 401.25 180.432C400.699 180.432 400.292 180.616 400.028 180.985C399.765 181.349 399.633 181.935 399.633 182.743V183.367H402.085V184.501ZM412.157 188.175C412.157 189.745 411.762 190.973 410.971 191.857C410.18 192.736 409.087 193.176 407.692 193.176C406.831 193.176 406.066 192.974 405.398 192.569C404.73 192.165 404.215 191.585 403.852 190.829C403.488 190.073 403.307 189.188 403.307 188.175C403.307 186.604 403.699 185.383 404.484 184.51C405.27 183.631 406.359 183.191 407.754 183.191C409.102 183.191 410.171 183.64 410.962 184.536C411.759 185.433 412.157 186.646 412.157 188.175ZM404.818 188.175C404.818 189.405 405.064 190.343 405.557 190.987C406.049 191.632 406.772 191.954 407.728 191.954C408.683 191.954 409.406 191.635 409.898 190.996C410.396 190.352 410.646 189.411 410.646 188.175C410.646 186.95 410.396 186.021 409.898 185.389C409.406 184.75 408.677 184.431 407.71 184.431C406.755 184.431 406.034 184.744 405.548 185.371C405.062 185.998 404.818 186.933 404.818 188.175ZM419.118 183.191C419.546 183.191 419.93 183.227 420.27 183.297L420.067 184.65C419.669 184.562 419.317 184.519 419.013 184.519C418.233 184.519 417.565 184.835 417.009 185.468C416.458 186.101 416.183 186.889 416.183 187.832V193H414.724V183.367H415.928L416.095 185.151H416.165C416.522 184.524 416.953 184.041 417.457 183.701C417.961 183.361 418.515 183.191 419.118 183.191ZM111.589 208.367H113.153L115.263 213.86C115.726 215.114 116.013 216.02 116.124 216.576H116.194C116.271 216.277 116.429 215.768 116.669 215.047C116.915 214.32 117.712 212.094 119.06 208.367H120.624L116.484 219.336C116.074 220.42 115.594 221.188 115.043 221.639C114.498 222.096 113.827 222.324 113.03 222.324C112.585 222.324 112.146 222.274 111.712 222.175V221.006C112.034 221.076 112.395 221.111 112.793 221.111C113.795 221.111 114.51 220.549 114.938 219.424L115.474 218.053L111.589 208.367ZM130.503 213.175C130.503 214.745 130.107 215.973 129.316 216.857C128.525 217.736 127.433 218.176 126.038 218.176C125.177 218.176 124.412 217.974 123.744 217.569C123.076 217.165 122.561 216.585 122.197 215.829C121.834 215.073 121.652 214.188 121.652 213.175C121.652 211.604 122.045 210.383 122.83 209.51C123.615 208.631 124.705 208.191 126.1 208.191C127.447 208.191 128.517 208.64 129.308 209.536C130.104 210.433 130.503 211.646 130.503 213.175ZM123.164 213.175C123.164 214.405 123.41 215.343 123.902 215.987C124.395 216.632 125.118 216.954 126.073 216.954C127.028 216.954 127.752 216.635 128.244 215.996C128.742 215.352 128.991 214.411 128.991 213.175C128.991 211.95 128.742 211.021 128.244 210.389C127.752 209.75 127.022 209.431 126.056 209.431C125.101 209.431 124.38 209.744 123.894 210.371C123.407 210.998 123.164 211.933 123.164 213.175ZM134.44 208.367V214.616C134.44 215.401 134.619 215.987 134.977 216.374C135.334 216.761 135.894 216.954 136.655 216.954C137.663 216.954 138.398 216.679 138.861 216.128C139.33 215.577 139.564 214.678 139.564 213.43V208.367H141.023V218H139.819L139.608 216.708H139.529C139.23 217.183 138.814 217.546 138.281 217.798C137.754 218.05 137.15 218.176 136.471 218.176C135.299 218.176 134.42 217.897 133.834 217.341C133.254 216.784 132.964 215.894 132.964 214.669V208.367H134.44ZM148.521 208.191C148.948 208.191 149.332 208.227 149.672 208.297L149.47 209.65C149.071 209.562 148.72 209.519 148.415 209.519C147.636 209.519 146.968 209.835 146.411 210.468C145.86 211.101 145.585 211.889 145.585 212.832V218H144.126V208.367H145.33L145.497 210.151H145.567C145.925 209.524 146.355 209.041 146.859 208.701C147.363 208.361 147.917 208.191 148.521 208.191ZM160.219 218.176C158.795 218.176 157.67 217.742 156.844 216.875C156.023 216.008 155.613 214.804 155.613 213.263C155.613 211.71 155.994 210.477 156.756 209.562C157.523 208.648 158.552 208.191 159.841 208.191C161.048 208.191 162.003 208.59 162.706 209.387C163.409 210.178 163.761 211.224 163.761 212.524V213.447H157.125C157.154 214.578 157.438 215.437 157.978 216.022C158.522 216.608 159.287 216.901 160.271 216.901C161.309 216.901 162.334 216.685 163.348 216.251V217.552C162.832 217.774 162.343 217.933 161.88 218.026C161.423 218.126 160.869 218.176 160.219 218.176ZM159.823 209.413C159.05 209.413 158.432 209.665 157.969 210.169C157.512 210.673 157.242 211.37 157.16 212.261H162.196C162.196 211.341 161.991 210.638 161.581 210.151C161.171 209.659 160.585 209.413 159.823 209.413ZM172.849 218V211.769C172.849 210.983 172.67 210.397 172.312 210.011C171.955 209.624 171.396 209.431 170.634 209.431C169.626 209.431 168.888 209.703 168.419 210.248C167.95 210.793 167.716 211.692 167.716 212.946V218H166.257V208.367H167.443L167.681 209.686H167.751C168.05 209.211 168.469 208.845 169.008 208.587C169.547 208.323 170.147 208.191 170.81 208.191C171.97 208.191 172.843 208.473 173.429 209.035C174.015 209.592 174.308 210.485 174.308 211.716V218H172.849ZM180.425 216.972C180.683 216.972 180.932 216.954 181.172 216.919C181.412 216.878 181.603 216.837 181.743 216.796V217.912C181.585 217.988 181.351 218.05 181.04 218.097C180.735 218.149 180.46 218.176 180.214 218.176C178.351 218.176 177.419 217.194 177.419 215.231V209.501H176.039V208.798L177.419 208.191L178.034 206.135H178.878V208.367H181.673V209.501H178.878V215.17C178.878 215.75 179.016 216.195 179.291 216.506C179.566 216.816 179.944 216.972 180.425 216.972ZM187.746 218.176C186.322 218.176 185.197 217.742 184.371 216.875C183.551 216.008 183.141 214.804 183.141 213.263C183.141 211.71 183.521 210.477 184.283 209.562C185.051 208.648 186.079 208.191 187.368 208.191C188.575 208.191 189.53 208.59 190.233 209.387C190.937 210.178 191.288 211.224 191.288 212.524V213.447H184.652C184.682 214.578 184.966 215.437 185.505 216.022C186.05 216.608 186.814 216.901 187.799 216.901C188.836 216.901 189.861 216.685 190.875 216.251V217.552C190.359 217.774 189.87 217.933 189.407 218.026C188.95 218.126 188.396 218.176 187.746 218.176ZM187.351 209.413C186.577 209.413 185.959 209.665 185.496 210.169C185.039 210.673 184.77 211.37 184.688 212.261H189.724C189.724 211.341 189.519 210.638 189.108 210.151C188.698 209.659 188.112 209.413 187.351 209.413ZM198.179 208.191C198.606 208.191 198.99 208.227 199.33 208.297L199.128 209.65C198.729 209.562 198.378 209.519 198.073 209.519C197.294 209.519 196.626 209.835 196.069 210.468C195.519 211.101 195.243 211.889 195.243 212.832V218H193.784V208.367H194.988L195.155 210.151H195.226C195.583 209.524 196.014 209.041 196.518 208.701C197.021 208.361 197.575 208.191 198.179 208.191ZM205.614 218.176C204.987 218.176 204.413 218.062 203.892 217.833C203.376 217.599 202.942 217.241 202.591 216.761H202.485C202.556 217.323 202.591 217.856 202.591 218.36V222.324H201.132V208.367H202.318L202.521 209.686H202.591C202.966 209.158 203.402 208.777 203.9 208.543C204.398 208.309 204.97 208.191 205.614 208.191C206.892 208.191 207.876 208.628 208.567 209.501C209.265 210.374 209.613 211.599 209.613 213.175C209.613 214.757 209.259 215.987 208.55 216.866C207.847 217.739 206.868 218.176 205.614 218.176ZM205.403 209.431C204.419 209.431 203.707 209.703 203.268 210.248C202.828 210.793 202.603 211.66 202.591 212.85V213.175C202.591 214.528 202.816 215.498 203.268 216.084C203.719 216.664 204.442 216.954 205.438 216.954C206.271 216.954 206.921 216.617 207.39 215.943C207.864 215.27 208.102 214.341 208.102 213.157C208.102 211.956 207.864 211.036 207.39 210.397C206.921 209.753 206.259 209.431 205.403 209.431ZM216.565 208.191C216.993 208.191 217.377 208.227 217.717 208.297L217.515 209.65C217.116 209.562 216.765 209.519 216.46 209.519C215.681 209.519 215.013 209.835 214.456 210.468C213.905 211.101 213.63 211.889 213.63 212.832V218H212.171V208.367H213.375L213.542 210.151H213.612C213.97 209.524 214.4 209.041 214.904 208.701C215.408 208.361 215.962 208.191 216.565 208.191ZM220.978 218H219.519V208.367H220.978V218ZM219.396 205.757C219.396 205.423 219.478 205.18 219.642 205.027C219.806 204.869 220.011 204.79 220.257 204.79C220.491 204.79 220.693 204.869 220.863 205.027C221.033 205.186 221.118 205.429 221.118 205.757C221.118 206.085 221.033 206.331 220.863 206.495C220.693 206.653 220.491 206.732 220.257 206.732C220.011 206.732 219.806 206.653 219.642 206.495C219.478 206.331 219.396 206.085 219.396 205.757ZM230.285 215.372C230.285 216.269 229.951 216.96 229.283 217.446C228.615 217.933 227.678 218.176 226.471 218.176C225.193 218.176 224.197 217.974 223.482 217.569V216.216C223.945 216.45 224.44 216.635 224.968 216.77C225.501 216.904 226.014 216.972 226.506 216.972C227.268 216.972 227.854 216.852 228.264 216.611C228.674 216.365 228.879 215.993 228.879 215.495C228.879 215.12 228.715 214.801 228.387 214.537C228.064 214.268 227.432 213.951 226.488 213.588C225.592 213.254 224.953 212.964 224.572 212.718C224.197 212.466 223.916 212.182 223.729 211.865C223.547 211.549 223.456 211.171 223.456 210.731C223.456 209.946 223.775 209.328 224.414 208.877C225.053 208.42 225.929 208.191 227.042 208.191C228.079 208.191 229.093 208.402 230.083 208.824L229.564 210.011C228.598 209.612 227.722 209.413 226.937 209.413C226.245 209.413 225.724 209.521 225.372 209.738C225.021 209.955 224.845 210.254 224.845 210.635C224.845 210.893 224.909 211.112 225.038 211.294C225.173 211.476 225.387 211.648 225.68 211.812C225.973 211.977 226.535 212.214 227.367 212.524C228.51 212.94 229.28 213.359 229.679 213.781C230.083 214.203 230.285 214.733 230.285 215.372ZM236.736 218.176C235.312 218.176 234.188 217.742 233.361 216.875C232.541 216.008 232.131 214.804 232.131 213.263C232.131 211.71 232.512 210.477 233.273 209.562C234.041 208.648 235.069 208.191 236.358 208.191C237.565 208.191 238.521 208.59 239.224 209.387C239.927 210.178 240.278 211.224 240.278 212.524V213.447H233.643C233.672 214.578 233.956 215.437 234.495 216.022C235.04 216.608 235.805 216.901 236.789 216.901C237.826 216.901 238.852 216.685 239.865 216.251V217.552C239.35 217.774 238.86 217.933 238.397 218.026C237.94 218.126 237.387 218.176 236.736 218.176ZM236.341 209.413C235.567 209.413 234.949 209.665 234.486 210.169C234.029 210.673 233.76 211.37 233.678 212.261H238.714C238.714 211.341 238.509 210.638 238.099 210.151C237.688 209.659 237.103 209.413 236.341 209.413ZM244.304 215.908L244.436 216.11C244.283 216.696 244.063 217.376 243.776 218.149C243.489 218.929 243.19 219.652 242.88 220.32H241.781C241.939 219.711 242.112 218.958 242.3 218.062C242.493 217.165 242.628 216.447 242.704 215.908H244.304ZM257.786 218L257.496 216.629H257.426C256.945 217.232 256.465 217.643 255.984 217.859C255.51 218.07 254.915 218.176 254.2 218.176C253.245 218.176 252.495 217.93 251.95 217.438C251.411 216.945 251.142 216.245 251.142 215.337C251.142 213.392 252.697 212.372 255.809 212.278L257.443 212.226V211.628C257.443 210.872 257.279 210.315 256.951 209.958C256.629 209.595 256.11 209.413 255.396 209.413C254.593 209.413 253.685 209.659 252.671 210.151L252.223 209.035C252.697 208.777 253.216 208.575 253.778 208.429C254.347 208.282 254.915 208.209 255.483 208.209C256.632 208.209 257.481 208.464 258.032 208.974C258.589 209.483 258.867 210.301 258.867 211.426V218H257.786ZM254.49 216.972C255.398 216.972 256.11 216.723 256.626 216.225C257.147 215.727 257.408 215.029 257.408 214.133V213.263L255.949 213.324C254.789 213.365 253.951 213.547 253.436 213.869C252.926 214.186 252.671 214.681 252.671 215.354C252.671 215.882 252.829 216.283 253.146 216.559C253.468 216.834 253.916 216.972 254.49 216.972ZM268.096 215.372C268.096 216.269 267.762 216.96 267.094 217.446C266.426 217.933 265.488 218.176 264.281 218.176C263.004 218.176 262.008 217.974 261.293 217.569V216.216C261.756 216.45 262.251 216.635 262.778 216.77C263.312 216.904 263.824 216.972 264.316 216.972C265.078 216.972 265.664 216.852 266.074 216.611C266.484 216.365 266.689 215.993 266.689 215.495C266.689 215.12 266.525 214.801 266.197 214.537C265.875 214.268 265.242 213.951 264.299 213.588C263.402 213.254 262.764 212.964 262.383 212.718C262.008 212.466 261.727 212.182 261.539 211.865C261.357 211.549 261.267 211.171 261.267 210.731C261.267 209.946 261.586 209.328 262.225 208.877C262.863 208.42 263.739 208.191 264.853 208.191C265.89 208.191 266.903 208.402 267.894 208.824L267.375 210.011C266.408 209.612 265.532 209.413 264.747 209.413C264.056 209.413 263.534 209.521 263.183 209.738C262.831 209.955 262.655 210.254 262.655 210.635C262.655 210.893 262.72 211.112 262.849 211.294C262.983 211.476 263.197 211.648 263.49 211.812C263.783 211.977 264.346 212.214 265.178 212.524C266.32 212.94 267.091 213.359 267.489 213.781C267.894 214.203 268.096 214.733 268.096 215.372ZM283.02 218L281.253 212.349C281.142 212.003 280.934 211.218 280.629 209.993H280.559C280.324 211.019 280.119 211.81 279.943 212.366L278.124 218H276.437L273.809 208.367H275.338C275.959 210.787 276.431 212.63 276.753 213.896C277.081 215.161 277.269 216.014 277.315 216.453H277.386C277.45 216.119 277.553 215.688 277.693 215.161C277.84 214.628 277.966 214.206 278.071 213.896L279.838 208.367H281.42L283.143 213.896C283.471 214.903 283.693 215.75 283.811 216.436H283.881C283.904 216.225 283.966 215.899 284.065 215.46C284.171 215.021 284.783 212.656 285.902 208.367H287.414L284.751 218H283.02ZM293.232 218.176C291.809 218.176 290.684 217.742 289.857 216.875C289.037 216.008 288.627 214.804 288.627 213.263C288.627 211.71 289.008 210.477 289.77 209.562C290.537 208.648 291.565 208.191 292.854 208.191C294.062 208.191 295.017 208.59 295.72 209.387C296.423 210.178 296.774 211.224 296.774 212.524V213.447H290.139C290.168 214.578 290.452 215.437 290.991 216.022C291.536 216.608 292.301 216.901 293.285 216.901C294.322 216.901 295.348 216.685 296.361 216.251V217.552C295.846 217.774 295.356 217.933 294.894 218.026C294.437 218.126 293.883 218.176 293.232 218.176ZM292.837 209.413C292.063 209.413 291.445 209.665 290.982 210.169C290.525 210.673 290.256 211.37 290.174 212.261H295.21C295.21 211.341 295.005 210.638 294.595 210.151C294.185 209.659 293.599 209.413 292.837 209.413ZM300.729 218H299.271V204.324H300.729V218ZM305.282 218H303.823V204.324H305.282V218ZM318.976 218L318.686 216.629H318.615C318.135 217.232 317.654 217.643 317.174 217.859C316.699 218.07 316.104 218.176 315.39 218.176C314.435 218.176 313.685 217.93 313.14 217.438C312.601 216.945 312.331 216.245 312.331 215.337C312.331 213.392 313.887 212.372 316.998 212.278L318.633 212.226V211.628C318.633 210.872 318.469 210.315 318.141 209.958C317.818 209.595 317.3 209.413 316.585 209.413C315.782 209.413 314.874 209.659 313.86 210.151L313.412 209.035C313.887 208.777 314.405 208.575 314.968 208.429C315.536 208.282 316.104 208.209 316.673 208.209C317.821 208.209 318.671 208.464 319.222 208.974C319.778 209.483 320.057 210.301 320.057 211.426V218H318.976ZM315.68 216.972C316.588 216.972 317.3 216.723 317.815 216.225C318.337 215.727 318.598 215.029 318.598 214.133V213.263L317.139 213.324C315.979 213.365 315.141 213.547 314.625 213.869C314.115 214.186 313.86 214.681 313.86 215.354C313.86 215.882 314.019 216.283 314.335 216.559C314.657 216.834 315.105 216.972 315.68 216.972ZM329.285 215.372C329.285 216.269 328.951 216.96 328.283 217.446C327.615 217.933 326.678 218.176 325.471 218.176C324.193 218.176 323.197 217.974 322.482 217.569V216.216C322.945 216.45 323.44 216.635 323.968 216.77C324.501 216.904 325.014 216.972 325.506 216.972C326.268 216.972 326.854 216.852 327.264 216.611C327.674 216.365 327.879 215.993 327.879 215.495C327.879 215.12 327.715 214.801 327.387 214.537C327.064 214.268 326.432 213.951 325.488 213.588C324.592 213.254 323.953 212.964 323.572 212.718C323.197 212.466 322.916 212.182 322.729 211.865C322.547 211.549 322.456 211.171 322.456 210.731C322.456 209.946 322.775 209.328 323.414 208.877C324.053 208.42 324.929 208.191 326.042 208.191C327.079 208.191 328.093 208.402 329.083 208.824L328.564 210.011C327.598 209.612 326.722 209.413 325.937 209.413C325.245 209.413 324.724 209.521 324.372 209.738C324.021 209.955 323.845 210.254 323.845 210.635C323.845 210.893 323.909 211.112 324.038 211.294C324.173 211.476 324.387 211.648 324.68 211.812C324.973 211.977 325.535 212.214 326.367 212.524C327.51 212.94 328.28 213.359 328.679 213.781C329.083 214.203 329.285 214.733 329.285 215.372ZM339.454 216.972C339.712 216.972 339.961 216.954 340.201 216.919C340.441 216.878 340.632 216.837 340.772 216.796V217.912C340.614 217.988 340.38 218.05 340.069 218.097C339.765 218.149 339.489 218.176 339.243 218.176C337.38 218.176 336.448 217.194 336.448 215.231V209.501H335.068V208.798L336.448 208.191L337.063 206.135H337.907V208.367H340.702V209.501H337.907V215.17C337.907 215.75 338.045 216.195 338.32 216.506C338.596 216.816 338.974 216.972 339.454 216.972ZM346.775 218.176C345.352 218.176 344.227 217.742 343.4 216.875C342.58 216.008 342.17 214.804 342.17 213.263C342.17 211.71 342.551 210.477 343.312 209.562C344.08 208.648 345.108 208.191 346.397 208.191C347.604 208.191 348.56 208.59 349.263 209.387C349.966 210.178 350.317 211.224 350.317 212.524V213.447H343.682C343.711 214.578 343.995 215.437 344.534 216.022C345.079 216.608 345.844 216.901 346.828 216.901C347.865 216.901 348.891 216.685 349.904 216.251V217.552C349.389 217.774 348.899 217.933 348.437 218.026C347.979 218.126 347.426 218.176 346.775 218.176ZM346.38 209.413C345.606 209.413 344.988 209.665 344.525 210.169C344.068 210.673 343.799 211.37 343.717 212.261H348.753C348.753 211.341 348.548 210.638 348.138 210.151C347.728 209.659 347.142 209.413 346.38 209.413ZM359.027 215.372C359.027 216.269 358.693 216.96 358.025 217.446C357.357 217.933 356.42 218.176 355.213 218.176C353.936 218.176 352.939 217.974 352.225 217.569V216.216C352.688 216.45 353.183 216.635 353.71 216.77C354.243 216.904 354.756 216.972 355.248 216.972C356.01 216.972 356.596 216.852 357.006 216.611C357.416 216.365 357.621 215.993 357.621 215.495C357.621 215.12 357.457 214.801 357.129 214.537C356.807 214.268 356.174 213.951 355.23 213.588C354.334 213.254 353.695 212.964 353.314 212.718C352.939 212.466 352.658 212.182 352.471 211.865C352.289 211.549 352.198 211.171 352.198 210.731C352.198 209.946 352.518 209.328 353.156 208.877C353.795 208.42 354.671 208.191 355.784 208.191C356.821 208.191 357.835 208.402 358.825 208.824L358.307 210.011C357.34 209.612 356.464 209.413 355.679 209.413C354.987 209.413 354.466 209.521 354.114 209.738C353.763 209.955 353.587 210.254 353.587 210.635C353.587 210.893 353.651 211.112 353.78 211.294C353.915 211.476 354.129 211.648 354.422 211.812C354.715 211.977 355.277 212.214 356.109 212.524C357.252 212.94 358.022 213.359 358.421 213.781C358.825 214.203 359.027 214.733 359.027 215.372ZM364.521 216.972C364.778 216.972 365.027 216.954 365.268 216.919C365.508 216.878 365.698 216.837 365.839 216.796V217.912C365.681 217.988 365.446 218.05 365.136 218.097C364.831 218.149 364.556 218.176 364.31 218.176C362.446 218.176 361.515 217.194 361.515 215.231V209.501H360.135V208.798L361.515 208.191L362.13 206.135H362.974V208.367H365.769V209.501H362.974V215.17C362.974 215.75 363.111 216.195 363.387 216.506C363.662 216.816 364.04 216.972 364.521 216.972ZM375.56 216.972C375.817 216.972 376.066 216.954 376.307 216.919C376.547 216.878 376.737 216.837 376.878 216.796V217.912C376.72 217.988 376.485 218.05 376.175 218.097C375.87 218.149 375.595 218.176 375.349 218.176C373.485 218.176 372.554 217.194 372.554 215.231V209.501H371.174V208.798L372.554 208.191L373.169 206.135H374.013V208.367H376.808V209.501H374.013V215.17C374.013 215.75 374.15 216.195 374.426 216.506C374.701 216.816 375.079 216.972 375.56 216.972ZM385.403 218V211.769C385.403 210.983 385.225 210.397 384.867 210.011C384.51 209.624 383.95 209.431 383.188 209.431C382.175 209.431 381.434 209.706 380.965 210.257C380.502 210.808 380.271 211.71 380.271 212.964V218H378.812V204.324H380.271V208.464C380.271 208.962 380.247 209.375 380.2 209.703H380.288C380.575 209.24 380.982 208.877 381.51 208.613C382.043 208.344 382.649 208.209 383.329 208.209C384.507 208.209 385.389 208.49 385.975 209.053C386.566 209.609 386.862 210.497 386.862 211.716V218H385.403ZM393.938 218.176C392.514 218.176 391.389 217.742 390.562 216.875C389.742 216.008 389.332 214.804 389.332 213.263C389.332 211.71 389.713 210.477 390.475 209.562C391.242 208.648 392.271 208.191 393.56 208.191C394.767 208.191 395.722 208.59 396.425 209.387C397.128 210.178 397.479 211.224 397.479 212.524V213.447H390.844C390.873 214.578 391.157 215.437 391.696 216.022C392.241 216.608 393.006 216.901 393.99 216.901C395.027 216.901 396.053 216.685 397.066 216.251V217.552C396.551 217.774 396.062 217.933 395.599 218.026C395.142 218.126 394.588 218.176 393.938 218.176ZM393.542 209.413C392.769 209.413 392.15 209.665 391.688 210.169C391.23 210.673 390.961 211.37 390.879 212.261H395.915C395.915 211.341 395.71 210.638 395.3 210.151C394.89 209.659 394.304 209.413 393.542 209.413ZM147.65 243H146.191V233.367H147.65V243ZM146.068 230.757C146.068 230.423 146.15 230.18 146.314 230.027C146.479 229.869 146.684 229.79 146.93 229.79C147.164 229.79 147.366 229.869 147.536 230.027C147.706 230.186 147.791 230.429 147.791 230.757C147.791 231.085 147.706 231.331 147.536 231.495C147.366 231.653 147.164 231.732 146.93 231.732C146.684 231.732 146.479 231.653 146.314 231.495C146.15 231.331 146.068 231.085 146.068 230.757ZM157.336 243V236.769C157.336 235.983 157.157 235.397 156.8 235.011C156.442 234.624 155.883 234.431 155.121 234.431C154.113 234.431 153.375 234.703 152.906 235.248C152.438 235.793 152.203 236.692 152.203 237.946V243H150.744V233.367H151.931L152.168 234.686H152.238C152.537 234.211 152.956 233.845 153.495 233.587C154.034 233.323 154.635 233.191 155.297 233.191C156.457 233.191 157.33 233.473 157.916 234.035C158.502 234.592 158.795 235.485 158.795 236.716V243H157.336ZM168.015 240.372C168.015 241.269 167.681 241.96 167.013 242.446C166.345 242.933 165.407 243.176 164.2 243.176C162.923 243.176 161.927 242.974 161.212 242.569V241.216C161.675 241.45 162.17 241.635 162.697 241.77C163.23 241.904 163.743 241.972 164.235 241.972C164.997 241.972 165.583 241.852 165.993 241.611C166.403 241.365 166.608 240.993 166.608 240.495C166.608 240.12 166.444 239.801 166.116 239.537C165.794 239.268 165.161 238.951 164.218 238.588C163.321 238.254 162.683 237.964 162.302 237.718C161.927 237.466 161.646 237.182 161.458 236.865C161.276 236.549 161.186 236.171 161.186 235.731C161.186 234.946 161.505 234.328 162.144 233.877C162.782 233.42 163.658 233.191 164.771 233.191C165.809 233.191 166.822 233.402 167.812 233.824L167.294 235.011C166.327 234.612 165.451 234.413 164.666 234.413C163.975 234.413 163.453 234.521 163.102 234.738C162.75 234.955 162.574 235.254 162.574 235.635C162.574 235.893 162.639 236.112 162.768 236.294C162.902 236.476 163.116 236.648 163.409 236.812C163.702 236.977 164.265 237.214 165.097 237.524C166.239 237.94 167.01 238.359 167.408 238.781C167.812 239.203 168.015 239.733 168.015 240.372ZM174.738 234.501H172.286V243H170.827V234.501H169.104V233.842L170.827 233.314V232.778C170.827 230.411 171.861 229.228 173.93 229.228C174.439 229.228 175.037 229.33 175.723 229.535L175.345 230.704C174.782 230.522 174.302 230.432 173.903 230.432C173.353 230.432 172.945 230.616 172.682 230.985C172.418 231.349 172.286 231.935 172.286 232.743V233.367H174.738V234.501ZM180.891 233.191C181.318 233.191 181.702 233.227 182.042 233.297L181.84 234.65C181.441 234.562 181.09 234.519 180.785 234.519C180.006 234.519 179.338 234.835 178.781 235.468C178.23 236.101 177.955 236.889 177.955 237.832V243H176.496V233.367H177.7L177.867 235.151H177.938C178.295 234.524 178.726 234.041 179.229 233.701C179.733 233.361 180.287 233.191 180.891 233.191ZM189.768 243L189.478 241.629H189.407C188.927 242.232 188.446 242.643 187.966 242.859C187.491 243.07 186.896 243.176 186.182 243.176C185.227 243.176 184.477 242.93 183.932 242.438C183.393 241.945 183.123 241.245 183.123 240.337C183.123 238.392 184.679 237.372 187.79 237.278L189.425 237.226V236.628C189.425 235.872 189.261 235.315 188.933 234.958C188.61 234.595 188.092 234.413 187.377 234.413C186.574 234.413 185.666 234.659 184.652 235.151L184.204 234.035C184.679 233.777 185.197 233.575 185.76 233.429C186.328 233.282 186.896 233.209 187.465 233.209C188.613 233.209 189.463 233.464 190.014 233.974C190.57 234.483 190.849 235.301 190.849 236.426V243H189.768ZM186.472 241.972C187.38 241.972 188.092 241.723 188.607 241.225C189.129 240.727 189.39 240.029 189.39 239.133V238.263L187.931 238.324C186.771 238.365 185.933 238.547 185.417 238.869C184.907 239.186 184.652 239.681 184.652 240.354C184.652 240.882 184.811 241.283 185.127 241.559C185.449 241.834 185.897 241.972 186.472 241.972ZM200.077 240.372C200.077 241.269 199.743 241.96 199.075 242.446C198.407 242.933 197.47 243.176 196.263 243.176C194.985 243.176 193.989 242.974 193.274 242.569V241.216C193.737 241.45 194.232 241.635 194.76 241.77C195.293 241.904 195.806 241.972 196.298 241.972C197.06 241.972 197.646 241.852 198.056 241.611C198.466 241.365 198.671 240.993 198.671 240.495C198.671 240.12 198.507 239.801 198.179 239.537C197.856 239.268 197.224 238.951 196.28 238.588C195.384 238.254 194.745 237.964 194.364 237.718C193.989 237.466 193.708 237.182 193.521 236.865C193.339 236.549 193.248 236.171 193.248 235.731C193.248 234.946 193.567 234.328 194.206 233.877C194.845 233.42 195.721 233.191 196.834 233.191C197.871 233.191 198.885 233.402 199.875 233.824L199.356 235.011C198.39 234.612 197.514 234.413 196.729 234.413C196.037 234.413 195.516 234.521 195.164 234.738C194.812 234.955 194.637 235.254 194.637 235.635C194.637 235.893 194.701 236.112 194.83 236.294C194.965 236.476 195.179 236.648 195.472 236.812C195.765 236.977 196.327 237.214 197.159 237.524C198.302 237.94 199.072 238.359 199.471 238.781C199.875 239.203 200.077 239.733 200.077 240.372ZM205.57 241.972C205.828 241.972 206.077 241.954 206.317 241.919C206.558 241.878 206.748 241.837 206.889 241.796V242.912C206.73 242.988 206.496 243.05 206.186 243.097C205.881 243.149 205.605 243.176 205.359 243.176C203.496 243.176 202.564 242.194 202.564 240.231V234.501H201.185V233.798L202.564 233.191L203.18 231.135H204.023V233.367H206.818V234.501H204.023V240.17C204.023 240.75 204.161 241.195 204.437 241.506C204.712 241.816 205.09 241.972 205.57 241.972ZM213.217 233.191C213.645 233.191 214.028 233.227 214.368 233.297L214.166 234.65C213.768 234.562 213.416 234.519 213.111 234.519C212.332 234.519 211.664 234.835 211.107 235.468C210.557 236.101 210.281 236.889 210.281 237.832V243H208.822V233.367H210.026L210.193 235.151H210.264C210.621 234.524 211.052 234.041 211.556 233.701C212.06 233.361 212.613 233.191 213.217 233.191ZM217.541 233.367V239.616C217.541 240.401 217.72 240.987 218.077 241.374C218.435 241.761 218.994 241.954 219.756 241.954C220.764 241.954 221.499 241.679 221.962 241.128C222.431 240.577 222.665 239.678 222.665 238.43V233.367H224.124V243H222.92L222.709 241.708H222.63C222.331 242.183 221.915 242.546 221.382 242.798C220.854 243.05 220.251 243.176 219.571 243.176C218.399 243.176 217.521 242.897 216.935 242.341C216.354 241.784 216.064 240.894 216.064 239.669V233.367H217.541ZM231.076 243.176C229.682 243.176 228.601 242.748 227.833 241.893C227.071 241.031 226.69 239.815 226.69 238.245C226.69 236.634 227.077 235.389 227.851 234.51C228.63 233.631 229.737 233.191 231.173 233.191C231.636 233.191 232.099 233.241 232.562 233.341C233.024 233.44 233.388 233.558 233.651 233.692L233.203 234.932C232.881 234.803 232.529 234.697 232.148 234.615C231.768 234.527 231.431 234.483 231.138 234.483C229.181 234.483 228.202 235.731 228.202 238.228C228.202 239.411 228.439 240.319 228.914 240.952C229.395 241.585 230.104 241.901 231.041 241.901C231.844 241.901 232.667 241.729 233.511 241.383V242.675C232.866 243.009 232.055 243.176 231.076 243.176ZM238.916 241.972C239.174 241.972 239.423 241.954 239.663 241.919C239.903 241.878 240.094 241.837 240.234 241.796V242.912C240.076 242.988 239.842 243.05 239.531 243.097C239.227 243.149 238.951 243.176 238.705 243.176C236.842 243.176 235.91 242.194 235.91 240.231V234.501H234.53V233.798L235.91 233.191L236.525 231.135H237.369V233.367H240.164V234.501H237.369V240.17C237.369 240.75 237.507 241.195 237.782 241.506C238.058 241.816 238.436 241.972 238.916 241.972ZM243.539 233.367V239.616C243.539 240.401 243.718 240.987 244.075 241.374C244.433 241.761 244.992 241.954 245.754 241.954C246.762 241.954 247.497 241.679 247.96 241.128C248.429 240.577 248.663 239.678 248.663 238.43V233.367H250.122V243H248.918L248.707 241.708H248.628C248.329 242.183 247.913 242.546 247.38 242.798C246.853 243.05 246.249 243.176 245.569 243.176C244.397 243.176 243.519 242.897 242.933 242.341C242.353 241.784 242.062 240.894 242.062 239.669V233.367H243.539ZM257.619 233.191C258.047 233.191 258.431 233.227 258.771 233.297L258.568 234.65C258.17 234.562 257.818 234.519 257.514 234.519C256.734 234.519 256.066 234.835 255.51 235.468C254.959 236.101 254.684 236.889 254.684 237.832V243H253.225V233.367H254.429L254.596 235.151H254.666C255.023 234.524 255.454 234.041 255.958 233.701C256.462 233.361 257.016 233.191 257.619 233.191ZM264.642 243.176C263.218 243.176 262.093 242.742 261.267 241.875C260.446 241.008 260.036 239.804 260.036 238.263C260.036 236.71 260.417 235.477 261.179 234.562C261.946 233.648 262.975 233.191 264.264 233.191C265.471 233.191 266.426 233.59 267.129 234.387C267.832 235.178 268.184 236.224 268.184 237.524V238.447H261.548C261.577 239.578 261.861 240.437 262.4 241.022C262.945 241.608 263.71 241.901 264.694 241.901C265.731 241.901 266.757 241.685 267.771 241.251V242.552C267.255 242.774 266.766 242.933 266.303 243.026C265.846 243.126 265.292 243.176 264.642 243.176ZM264.246 234.413C263.473 234.413 262.854 234.665 262.392 235.169C261.935 235.673 261.665 236.37 261.583 237.261H266.619C266.619 236.341 266.414 235.638 266.004 235.151C265.594 234.659 265.008 234.413 264.246 234.413ZM281.279 243L280.989 241.629H280.919C280.438 242.232 279.958 242.643 279.478 242.859C279.003 243.07 278.408 243.176 277.693 243.176C276.738 243.176 275.988 242.93 275.443 242.438C274.904 241.945 274.635 241.245 274.635 240.337C274.635 238.392 276.19 237.372 279.302 237.278L280.937 237.226V236.628C280.937 235.872 280.772 235.315 280.444 234.958C280.122 234.595 279.604 234.413 278.889 234.413C278.086 234.413 277.178 234.659 276.164 235.151L275.716 234.035C276.19 233.777 276.709 233.575 277.271 233.429C277.84 233.282 278.408 233.209 278.977 233.209C280.125 233.209 280.975 233.464 281.525 233.974C282.082 234.483 282.36 235.301 282.36 236.426V243H281.279ZM277.983 241.972C278.892 241.972 279.604 241.723 280.119 241.225C280.641 240.727 280.901 240.029 280.901 239.133V238.263L279.442 238.324C278.282 238.365 277.444 238.547 276.929 238.869C276.419 239.186 276.164 239.681 276.164 240.354C276.164 240.882 276.322 241.283 276.639 241.559C276.961 241.834 277.409 241.972 277.983 241.972ZM291.589 240.372C291.589 241.269 291.255 241.96 290.587 242.446C289.919 242.933 288.981 243.176 287.774 243.176C286.497 243.176 285.501 242.974 284.786 242.569V241.216C285.249 241.45 285.744 241.635 286.271 241.77C286.805 241.904 287.317 241.972 287.81 241.972C288.571 241.972 289.157 241.852 289.567 241.611C289.978 241.365 290.183 240.993 290.183 240.495C290.183 240.12 290.019 239.801 289.69 239.537C289.368 239.268 288.735 238.951 287.792 238.588C286.896 238.254 286.257 237.964 285.876 237.718C285.501 237.466 285.22 237.182 285.032 236.865C284.851 236.549 284.76 236.171 284.76 235.731C284.76 234.946 285.079 234.328 285.718 233.877C286.356 233.42 287.232 233.191 288.346 233.191C289.383 233.191 290.396 233.402 291.387 233.824L290.868 235.011C289.901 234.612 289.025 234.413 288.24 234.413C287.549 234.413 287.027 234.521 286.676 234.738C286.324 234.955 286.148 235.254 286.148 235.635C286.148 235.893 286.213 236.112 286.342 236.294C286.477 236.476 286.69 236.648 286.983 236.812C287.276 236.977 287.839 237.214 288.671 237.524C289.813 237.94 290.584 238.359 290.982 238.781C291.387 239.203 291.589 239.733 291.589 240.372ZM305.238 243V236.769C305.238 235.983 305.06 235.397 304.702 235.011C304.345 234.624 303.785 234.431 303.023 234.431C302.016 234.431 301.277 234.703 300.809 235.248C300.34 235.793 300.105 236.692 300.105 237.946V243H298.646V233.367H299.833L300.07 234.686H300.141C300.439 234.211 300.858 233.845 301.397 233.587C301.937 233.323 302.537 233.191 303.199 233.191C304.359 233.191 305.232 233.473 305.818 234.035C306.404 234.592 306.697 235.485 306.697 236.716V243H305.238ZM313.772 243.176C312.349 243.176 311.224 242.742 310.397 241.875C309.577 241.008 309.167 239.804 309.167 238.263C309.167 236.71 309.548 235.477 310.31 234.562C311.077 233.648 312.105 233.191 313.395 233.191C314.602 233.191 315.557 233.59 316.26 234.387C316.963 235.178 317.314 236.224 317.314 237.524V238.447H310.679C310.708 239.578 310.992 240.437 311.531 241.022C312.076 241.608 312.841 241.901 313.825 241.901C314.862 241.901 315.888 241.685 316.901 241.251V242.552C316.386 242.774 315.896 242.933 315.434 243.026C314.977 243.126 314.423 243.176 313.772 243.176ZM313.377 234.413C312.604 234.413 311.985 234.665 311.522 235.169C311.065 235.673 310.796 236.37 310.714 237.261H315.75C315.75 236.341 315.545 235.638 315.135 235.151C314.725 234.659 314.139 234.413 313.377 234.413ZM323.88 243.176C322.456 243.176 321.331 242.742 320.505 241.875C319.685 241.008 319.274 239.804 319.274 238.263C319.274 236.71 319.655 235.477 320.417 234.562C321.185 233.648 322.213 233.191 323.502 233.191C324.709 233.191 325.664 233.59 326.367 234.387C327.07 235.178 327.422 236.224 327.422 237.524V238.447H320.786C320.815 239.578 321.1 240.437 321.639 241.022C322.184 241.608 322.948 241.901 323.933 241.901C324.97 241.901 325.995 241.685 327.009 241.251V242.552C326.493 242.774 326.004 242.933 325.541 243.026C325.084 243.126 324.53 243.176 323.88 243.176ZM323.484 234.413C322.711 234.413 322.093 234.665 321.63 235.169C321.173 235.673 320.903 236.37 320.821 237.261H325.857C325.857 236.341 325.652 235.638 325.242 235.151C324.832 234.659 324.246 234.413 323.484 234.413ZM336.475 241.708H336.396C335.722 242.687 334.714 243.176 333.372 243.176C332.112 243.176 331.131 242.745 330.428 241.884C329.73 241.022 329.382 239.798 329.382 238.21C329.382 236.622 329.733 235.389 330.437 234.51C331.14 233.631 332.118 233.191 333.372 233.191C334.679 233.191 335.681 233.666 336.378 234.615H336.492L336.431 233.921L336.396 233.244V229.324H337.854V243H336.668L336.475 241.708ZM333.557 241.954C334.553 241.954 335.273 241.685 335.719 241.146C336.17 240.601 336.396 239.725 336.396 238.518V238.21C336.396 236.845 336.167 235.872 335.71 235.292C335.259 234.706 334.535 234.413 333.539 234.413C332.684 234.413 332.027 234.747 331.57 235.415C331.119 236.077 330.894 237.015 330.894 238.228C330.894 239.458 331.119 240.387 331.57 241.014C332.021 241.641 332.684 241.954 333.557 241.954ZM345.026 243.176C343.603 243.176 342.478 242.742 341.651 241.875C340.831 241.008 340.421 239.804 340.421 238.263C340.421 236.71 340.802 235.477 341.563 234.562C342.331 233.648 343.359 233.191 344.648 233.191C345.855 233.191 346.811 233.59 347.514 234.387C348.217 235.178 348.568 236.224 348.568 237.524V238.447H341.933C341.962 239.578 342.246 240.437 342.785 241.022C343.33 241.608 344.095 241.901 345.079 241.901C346.116 241.901 347.142 241.685 348.155 241.251V242.552C347.64 242.774 347.15 242.933 346.688 243.026C346.23 243.126 345.677 243.176 345.026 243.176ZM344.631 234.413C343.857 234.413 343.239 234.665 342.776 235.169C342.319 235.673 342.05 236.37 341.968 237.261H347.004C347.004 236.341 346.799 235.638 346.389 235.151C345.979 234.659 345.393 234.413 344.631 234.413ZM357.621 241.708H357.542C356.868 242.687 355.86 243.176 354.519 243.176C353.259 243.176 352.277 242.745 351.574 241.884C350.877 241.022 350.528 239.798 350.528 238.21C350.528 236.622 350.88 235.389 351.583 234.51C352.286 233.631 353.265 233.191 354.519 233.191C355.825 233.191 356.827 233.666 357.524 234.615H357.639L357.577 233.921L357.542 233.244V229.324H359.001V243H357.814L357.621 241.708ZM354.703 241.954C355.699 241.954 356.42 241.685 356.865 241.146C357.316 240.601 357.542 239.725 357.542 238.518V238.21C357.542 236.845 357.313 235.872 356.856 235.292C356.405 234.706 355.682 234.413 354.686 234.413C353.83 234.413 353.174 234.747 352.717 235.415C352.266 236.077 352.04 237.015 352.04 238.228C352.04 239.458 352.266 240.387 352.717 241.014C353.168 241.641 353.83 241.954 354.703 241.954ZM361.893 242.068C361.893 241.676 361.98 241.38 362.156 241.181C362.338 240.976 362.596 240.873 362.93 240.873C363.27 240.873 363.533 240.976 363.721 241.181C363.914 241.38 364.011 241.676 364.011 242.068C364.011 242.449 363.914 242.742 363.721 242.947C363.527 243.152 363.264 243.255 362.93 243.255C362.631 243.255 362.382 243.164 362.183 242.982C361.989 242.795 361.893 242.49 361.893 242.068Z" fill="black"/>
<path d="M216.953 130H207.262V112.867H216.953V115.234H210.062V119.898H216.52V122.242H210.062V127.621H216.953V130ZM223.328 130L218.406 117.039H221.312L223.949 124.574C224.402 125.84 224.676 126.863 224.77 127.645H224.863C224.934 127.082 225.207 126.059 225.684 124.574L228.32 117.039H231.25L226.305 130H223.328ZM241.328 130L240.777 128.195H240.684C240.059 128.984 239.43 129.523 238.797 129.812C238.164 130.094 237.352 130.234 236.359 130.234C235.086 130.234 234.09 129.891 233.371 129.203C232.66 128.516 232.305 127.543 232.305 126.285C232.305 124.949 232.801 123.941 233.793 123.262C234.785 122.582 236.297 122.211 238.328 122.148L240.566 122.078V121.387C240.566 120.559 240.371 119.941 239.98 119.535C239.598 119.121 239 118.914 238.188 118.914C237.523 118.914 236.887 119.012 236.277 119.207C235.668 119.402 235.082 119.633 234.52 119.898L233.629 117.93C234.332 117.562 235.102 117.285 235.938 117.098C236.773 116.902 237.562 116.805 238.305 116.805C239.953 116.805 241.195 117.164 242.031 117.883C242.875 118.602 243.297 119.73 243.297 121.27V130H241.328ZM237.227 128.125C238.227 128.125 239.027 127.848 239.629 127.293C240.238 126.73 240.543 125.945 240.543 124.938V123.812L238.879 123.883C237.582 123.93 236.637 124.148 236.043 124.539C235.457 124.922 235.164 125.512 235.164 126.309C235.164 126.887 235.336 127.336 235.68 127.656C236.023 127.969 236.539 128.125 237.227 128.125ZM249.895 130H247.141V111.766H249.895V130ZM262.984 130L262.598 128.301H262.457C262.074 128.902 261.527 129.375 260.816 129.719C260.113 130.062 259.309 130.234 258.402 130.234C256.832 130.234 255.66 129.844 254.887 129.062C254.113 128.281 253.727 127.098 253.727 125.512V117.039H256.504V125.031C256.504 126.023 256.707 126.77 257.113 127.27C257.52 127.762 258.156 128.008 259.023 128.008C260.18 128.008 261.027 127.664 261.566 126.977C262.113 126.281 262.387 125.121 262.387 123.496V117.039H265.152V130H262.984ZM277.188 130L276.637 128.195H276.543C275.918 128.984 275.289 129.523 274.656 129.812C274.023 130.094 273.211 130.234 272.219 130.234C270.945 130.234 269.949 129.891 269.23 129.203C268.52 128.516 268.164 127.543 268.164 126.285C268.164 124.949 268.66 123.941 269.652 123.262C270.645 122.582 272.156 122.211 274.188 122.148L276.426 122.078V121.387C276.426 120.559 276.23 119.941 275.84 119.535C275.457 119.121 274.859 118.914 274.047 118.914C273.383 118.914 272.746 119.012 272.137 119.207C271.527 119.402 270.941 119.633 270.379 119.898L269.488 117.93C270.191 117.562 270.961 117.285 271.797 117.098C272.633 116.902 273.422 116.805 274.164 116.805C275.812 116.805 277.055 117.164 277.891 117.883C278.734 118.602 279.156 119.73 279.156 121.27V130H277.188ZM273.086 128.125C274.086 128.125 274.887 127.848 275.488 127.293C276.098 126.73 276.402 125.945 276.402 124.938V123.812L274.738 123.883C273.441 123.93 272.496 124.148 271.902 124.539C271.316 124.922 271.023 125.512 271.023 126.309C271.023 126.887 271.195 127.336 271.539 127.656C271.883 127.969 272.398 128.125 273.086 128.125ZM287.828 128.008C288.5 128.008 289.172 127.902 289.844 127.691V129.766C289.539 129.898 289.145 130.008 288.66 130.094C288.184 130.188 287.688 130.234 287.172 130.234C284.562 130.234 283.258 128.859 283.258 126.109V119.125H281.488V117.906L283.387 116.898L284.324 114.156H286.023V117.039H289.715V119.125H286.023V126.062C286.023 126.727 286.188 127.219 286.516 127.539C286.852 127.852 287.289 128.008 287.828 128.008ZM298.105 130.234C296.09 130.234 294.512 129.648 293.371 128.477C292.238 127.297 291.672 125.676 291.672 123.613C291.672 121.496 292.199 119.832 293.254 118.621C294.309 117.41 295.758 116.805 297.602 116.805C299.312 116.805 300.664 117.324 301.656 118.363C302.648 119.402 303.145 120.832 303.145 122.652V124.141H294.508C294.547 125.398 294.887 126.367 295.527 127.047C296.168 127.719 297.07 128.055 298.234 128.055C299 128.055 299.711 127.984 300.367 127.844C301.031 127.695 301.742 127.453 302.5 127.117V129.355C301.828 129.676 301.148 129.902 300.461 130.035C299.773 130.168 298.988 130.234 298.105 130.234ZM297.602 118.891C296.727 118.891 296.023 119.168 295.492 119.723C294.969 120.277 294.656 121.086 294.555 122.148H300.438C300.422 121.078 300.164 120.27 299.664 119.723C299.164 119.168 298.477 118.891 297.602 118.891Z" fill="black"/>
<defs>
<clipPath id="clip0">
<rect width="120" height="120" fill="white"/>
</clipPath>
</defs>
</svg>
