<svg width="473" height="300" viewBox="0 0 473 300" fill="none" xmlns="http://www.w3.org/2000/svg">
<rect x="7" y="66" width="466" height="234" rx="15" fill="#F0F8FC"/>
<path d="M236.195 121.27C236.195 124.098 235.41 126.262 233.84 127.762C232.27 129.254 230.008 130 227.055 130H222.262V112.867H227.559C230.285 112.867 232.406 113.602 233.922 115.07C235.438 116.539 236.195 118.605 236.195 121.27ZM233.242 121.363C233.242 117.262 231.324 115.211 227.488 115.211H225.062V127.645H227.055C231.18 127.645 233.242 125.551 233.242 121.363ZM245.254 130.234C243.238 130.234 241.66 129.648 240.52 128.477C239.387 127.297 238.82 125.676 238.82 123.613C238.82 121.496 239.348 119.832 240.402 118.621C241.457 117.41 242.906 116.805 244.75 116.805C246.461 116.805 247.812 117.324 248.805 118.363C249.797 119.402 250.293 120.832 250.293 122.652V124.141H241.656C241.695 125.398 242.035 126.367 242.676 127.047C243.316 127.719 244.219 128.055 245.383 128.055C246.148 128.055 246.859 127.984 247.516 127.844C248.18 127.695 248.891 127.453 249.648 127.117V129.355C248.977 129.676 248.297 129.902 247.609 130.035C246.922 130.168 246.137 130.234 245.254 130.234ZM244.75 118.891C243.875 118.891 243.172 119.168 242.641 119.723C242.117 120.277 241.805 121.086 241.703 122.148H247.586C247.57 121.078 247.312 120.27 246.812 119.723C246.312 119.168 245.625 118.891 244.75 118.891ZM262.129 126.309C262.129 127.574 261.668 128.547 260.746 129.227C259.824 129.898 258.504 130.234 256.785 130.234C255.059 130.234 253.672 129.973 252.625 129.449V127.07C254.148 127.773 255.566 128.125 256.879 128.125C258.574 128.125 259.422 127.613 259.422 126.59C259.422 126.262 259.328 125.988 259.141 125.77C258.953 125.551 258.645 125.324 258.215 125.09C257.785 124.855 257.188 124.59 256.422 124.293C254.93 123.715 253.918 123.137 253.387 122.559C252.863 121.98 252.602 121.23 252.602 120.309C252.602 119.199 253.047 118.34 253.938 117.73C254.836 117.113 256.055 116.805 257.594 116.805C259.117 116.805 260.559 117.113 261.918 117.73L261.027 119.805C259.629 119.227 258.453 118.938 257.5 118.938C256.047 118.938 255.32 119.352 255.32 120.18C255.32 120.586 255.508 120.93 255.883 121.211C256.266 121.492 257.094 121.879 258.367 122.371C259.438 122.785 260.215 123.164 260.699 123.508C261.184 123.852 261.543 124.25 261.777 124.703C262.012 125.148 262.129 125.684 262.129 126.309ZM267.871 130H265.117V117.039H267.871V130ZM264.953 113.605C264.953 113.113 265.086 112.734 265.352 112.469C265.625 112.203 266.012 112.07 266.512 112.07C266.996 112.07 267.371 112.203 267.637 112.469C267.91 112.734 268.047 113.113 268.047 113.605C268.047 114.074 267.91 114.445 267.637 114.719C267.371 114.984 266.996 115.117 266.512 115.117C266.012 115.117 265.625 114.984 265.352 114.719C265.086 114.445 264.953 114.074 264.953 113.605ZM282.766 117.039V118.551L280.551 118.961C280.754 119.234 280.922 119.57 281.055 119.969C281.188 120.367 281.254 120.789 281.254 121.234C281.254 122.57 280.793 123.621 279.871 124.387C278.949 125.152 277.68 125.535 276.062 125.535C275.648 125.535 275.273 125.504 274.938 125.441C274.344 125.809 274.047 126.238 274.047 126.73C274.047 127.027 274.184 127.25 274.457 127.398C274.738 127.547 275.25 127.621 275.992 127.621H278.254C279.684 127.621 280.77 127.926 281.512 128.535C282.254 129.145 282.625 130.023 282.625 131.172C282.625 132.641 282.02 133.773 280.809 134.57C279.598 135.367 277.848 135.766 275.559 135.766C273.793 135.766 272.445 135.453 271.516 134.828C270.586 134.203 270.121 133.312 270.121 132.156C270.121 131.359 270.371 130.688 270.871 130.141C271.379 129.602 272.086 129.227 272.992 129.016C272.625 128.859 272.32 128.609 272.078 128.266C271.844 127.914 271.727 127.547 271.727 127.164C271.727 126.68 271.863 126.27 272.137 125.934C272.41 125.598 272.816 125.266 273.355 124.938C272.684 124.648 272.137 124.18 271.715 123.531C271.301 122.875 271.094 122.109 271.094 121.234C271.094 119.828 271.535 118.738 272.418 117.965C273.309 117.191 274.574 116.805 276.215 116.805C276.582 116.805 276.965 116.832 277.363 116.887C277.77 116.934 278.074 116.984 278.277 117.039H282.766ZM272.582 132.016C272.582 132.609 272.848 133.066 273.379 133.387C273.918 133.707 274.672 133.867 275.641 133.867C277.141 133.867 278.258 133.652 278.992 133.223C279.727 132.793 280.094 132.223 280.094 131.512C280.094 130.949 279.891 130.547 279.484 130.305C279.086 130.07 278.34 129.953 277.246 129.953H275.16C274.371 129.953 273.742 130.137 273.273 130.504C272.812 130.879 272.582 131.383 272.582 132.016ZM273.766 121.234C273.766 122.047 273.973 122.672 274.387 123.109C274.809 123.547 275.41 123.766 276.191 123.766C277.785 123.766 278.582 122.914 278.582 121.211C278.582 120.367 278.383 119.719 277.984 119.266C277.594 118.805 276.996 118.574 276.191 118.574C275.395 118.574 274.789 118.801 274.375 119.254C273.969 119.707 273.766 120.367 273.766 121.234ZM296.582 130H293.816V122.031C293.816 121.031 293.613 120.285 293.207 119.793C292.809 119.301 292.172 119.055 291.297 119.055C290.133 119.055 289.281 119.398 288.742 120.086C288.203 120.773 287.934 121.926 287.934 123.543V130H285.18V117.039H287.336L287.723 118.738H287.863C288.254 118.121 288.809 117.645 289.527 117.309C290.246 116.973 291.043 116.805 291.918 116.805C295.027 116.805 296.582 118.387 296.582 121.551V130Z" fill="black"/>
<path d="M165.245 169H163.769L161.176 160.396C161.053 160.015 160.915 159.534 160.763 158.954C160.61 158.374 160.531 158.025 160.525 157.908C160.396 158.682 160.191 159.528 159.91 160.448L157.396 169H155.92L152.501 156.15H154.083L156.113 164.087C156.395 165.2 156.6 166.208 156.729 167.11C156.887 166.038 157.121 164.989 157.432 163.964L159.734 156.15H161.316L163.733 164.034C164.015 164.942 164.252 165.968 164.445 167.11C164.557 166.278 164.768 165.265 165.078 164.069L167.1 156.15H168.682L165.245 169ZM174.544 169.176C173.12 169.176 171.995 168.742 171.169 167.875C170.349 167.008 169.938 165.804 169.938 164.263C169.938 162.71 170.319 161.477 171.081 160.562C171.849 159.648 172.877 159.191 174.166 159.191C175.373 159.191 176.328 159.59 177.031 160.387C177.734 161.178 178.086 162.224 178.086 163.524V164.447H171.45C171.479 165.578 171.764 166.437 172.303 167.022C172.848 167.608 173.612 167.901 174.597 167.901C175.634 167.901 176.659 167.685 177.673 167.251V168.552C177.157 168.774 176.668 168.933 176.205 169.026C175.748 169.126 175.194 169.176 174.544 169.176ZM174.148 160.413C173.375 160.413 172.757 160.665 172.294 161.169C171.837 161.673 171.567 162.37 171.485 163.261H176.521C176.521 162.341 176.316 161.638 175.906 161.151C175.496 160.659 174.91 160.413 174.148 160.413ZM189.107 169.176C187.713 169.176 186.632 168.748 185.864 167.893C185.103 167.031 184.722 165.815 184.722 164.245C184.722 162.634 185.108 161.389 185.882 160.51C186.661 159.631 187.769 159.191 189.204 159.191C189.667 159.191 190.13 159.241 190.593 159.341C191.056 159.44 191.419 159.558 191.683 159.692L191.234 160.932C190.912 160.803 190.561 160.697 190.18 160.615C189.799 160.527 189.462 160.483 189.169 160.483C187.212 160.483 186.233 161.731 186.233 164.228C186.233 165.411 186.471 166.319 186.945 166.952C187.426 167.585 188.135 167.901 189.072 167.901C189.875 167.901 190.698 167.729 191.542 167.383V168.675C190.897 169.009 190.086 169.176 189.107 169.176ZM198.23 159.191C198.658 159.191 199.042 159.227 199.382 159.297L199.18 160.65C198.781 160.562 198.43 160.519 198.125 160.519C197.346 160.519 196.678 160.835 196.121 161.468C195.57 162.101 195.295 162.889 195.295 163.832V169H193.836V159.367H195.04L195.207 161.151H195.277C195.635 160.524 196.065 160.041 196.569 159.701C197.073 159.361 197.627 159.191 198.23 159.191ZM205.253 169.176C203.829 169.176 202.704 168.742 201.878 167.875C201.058 167.008 200.647 165.804 200.647 164.263C200.647 162.71 201.028 161.477 201.79 160.562C202.558 159.648 203.586 159.191 204.875 159.191C206.082 159.191 207.037 159.59 207.74 160.387C208.443 161.178 208.795 162.224 208.795 163.524V164.447H202.159C202.188 165.578 202.473 166.437 203.012 167.022C203.557 167.608 204.321 167.901 205.306 167.901C206.343 167.901 207.368 167.685 208.382 167.251V168.552C207.866 168.774 207.377 168.933 206.914 169.026C206.457 169.126 205.903 169.176 205.253 169.176ZM204.857 160.413C204.084 160.413 203.466 160.665 203.003 161.169C202.546 161.673 202.276 162.37 202.194 163.261H207.23C207.23 162.341 207.025 161.638 206.615 161.151C206.205 160.659 205.619 160.413 204.857 160.413ZM217.215 169L216.925 167.629H216.854C216.374 168.232 215.894 168.643 215.413 168.859C214.938 169.07 214.344 169.176 213.629 169.176C212.674 169.176 211.924 168.93 211.379 168.438C210.84 167.945 210.57 167.245 210.57 166.337C210.57 164.392 212.126 163.372 215.237 163.278L216.872 163.226V162.628C216.872 161.872 216.708 161.315 216.38 160.958C216.058 160.595 215.539 160.413 214.824 160.413C214.021 160.413 213.113 160.659 212.1 161.151L211.651 160.035C212.126 159.777 212.645 159.575 213.207 159.429C213.775 159.282 214.344 159.209 214.912 159.209C216.061 159.209 216.91 159.464 217.461 159.974C218.018 160.483 218.296 161.301 218.296 162.426V169H217.215ZM213.919 167.972C214.827 167.972 215.539 167.723 216.055 167.225C216.576 166.727 216.837 166.029 216.837 165.133V164.263L215.378 164.324C214.218 164.365 213.38 164.547 212.864 164.869C212.354 165.186 212.1 165.681 212.1 166.354C212.1 166.882 212.258 167.283 212.574 167.559C212.896 167.834 213.345 167.972 213.919 167.972ZM224.422 167.972C224.68 167.972 224.929 167.954 225.169 167.919C225.409 167.878 225.6 167.837 225.74 167.796V168.912C225.582 168.988 225.348 169.05 225.037 169.097C224.732 169.149 224.457 169.176 224.211 169.176C222.348 169.176 221.416 168.194 221.416 166.231V160.501H220.036V159.798L221.416 159.191L222.031 157.135H222.875V159.367H225.67V160.501H222.875V166.17C222.875 166.75 223.013 167.195 223.288 167.506C223.563 167.816 223.941 167.972 224.422 167.972ZM231.743 169.176C230.319 169.176 229.194 168.742 228.368 167.875C227.548 167.008 227.138 165.804 227.138 164.263C227.138 162.71 227.519 161.477 228.28 160.562C229.048 159.648 230.076 159.191 231.365 159.191C232.572 159.191 233.527 159.59 234.23 160.387C234.934 161.178 235.285 162.224 235.285 163.524V164.447H228.649C228.679 165.578 228.963 166.437 229.502 167.022C230.047 167.608 230.812 167.901 231.796 167.901C232.833 167.901 233.858 167.685 234.872 167.251V168.552C234.356 168.774 233.867 168.933 233.404 169.026C232.947 169.126 232.394 169.176 231.743 169.176ZM231.348 160.413C230.574 160.413 229.956 160.665 229.493 161.169C229.036 161.673 228.767 162.37 228.685 163.261H233.721C233.721 162.341 233.516 161.638 233.105 161.151C232.695 160.659 232.109 160.413 231.348 160.413ZM248.381 169L248.091 167.629H248.021C247.54 168.232 247.06 168.643 246.579 168.859C246.104 169.07 245.51 169.176 244.795 169.176C243.84 169.176 243.09 168.93 242.545 168.438C242.006 167.945 241.736 167.245 241.736 166.337C241.736 164.392 243.292 163.372 246.403 163.278L248.038 163.226V162.628C248.038 161.872 247.874 161.315 247.546 160.958C247.224 160.595 246.705 160.413 245.99 160.413C245.188 160.413 244.279 160.659 243.266 161.151L242.817 160.035C243.292 159.777 243.811 159.575 244.373 159.429C244.941 159.282 245.51 159.209 246.078 159.209C247.227 159.209 248.076 159.464 248.627 159.974C249.184 160.483 249.462 161.301 249.462 162.426V169H248.381ZM245.085 167.972C245.993 167.972 246.705 167.723 247.221 167.225C247.742 166.727 248.003 166.029 248.003 165.133V164.263L246.544 164.324C245.384 164.365 244.546 164.547 244.03 164.869C243.521 165.186 243.266 165.681 243.266 166.354C243.266 166.882 243.424 167.283 243.74 167.559C244.062 167.834 244.511 167.972 245.085 167.972ZM261.635 169.176C261.008 169.176 260.434 169.062 259.912 168.833C259.396 168.599 258.963 168.241 258.611 167.761H258.506C258.576 168.323 258.611 168.856 258.611 169.36V173.324H257.152V159.367H258.339L258.541 160.686H258.611C258.986 160.158 259.423 159.777 259.921 159.543C260.419 159.309 260.99 159.191 261.635 159.191C262.912 159.191 263.896 159.628 264.588 160.501C265.285 161.374 265.634 162.599 265.634 164.175C265.634 165.757 265.279 166.987 264.57 167.866C263.867 168.739 262.889 169.176 261.635 169.176ZM261.424 160.431C260.439 160.431 259.728 160.703 259.288 161.248C258.849 161.793 258.623 162.66 258.611 163.85V164.175C258.611 165.528 258.837 166.498 259.288 167.084C259.739 167.664 260.463 167.954 261.459 167.954C262.291 167.954 262.941 167.617 263.41 166.943C263.885 166.27 264.122 165.341 264.122 164.157C264.122 162.956 263.885 162.036 263.41 161.397C262.941 160.753 262.279 160.431 261.424 160.431ZM272.261 169.176C270.837 169.176 269.712 168.742 268.886 167.875C268.065 167.008 267.655 165.804 267.655 164.263C267.655 162.71 268.036 161.477 268.798 160.562C269.565 159.648 270.594 159.191 271.883 159.191C273.09 159.191 274.045 159.59 274.748 160.387C275.451 161.178 275.803 162.224 275.803 163.524V164.447H269.167C269.196 165.578 269.48 166.437 270.02 167.022C270.564 167.608 271.329 167.901 272.313 167.901C273.351 167.901 274.376 167.685 275.39 167.251V168.552C274.874 168.774 274.385 168.933 273.922 169.026C273.465 169.126 272.911 169.176 272.261 169.176ZM271.865 160.413C271.092 160.413 270.474 160.665 270.011 161.169C269.554 161.673 269.284 162.37 269.202 163.261H274.238C274.238 162.341 274.033 161.638 273.623 161.151C273.213 160.659 272.627 160.413 271.865 160.413ZM282.693 159.191C283.121 159.191 283.505 159.227 283.845 159.297L283.643 160.65C283.244 160.562 282.893 160.519 282.588 160.519C281.809 160.519 281.141 160.835 280.584 161.468C280.033 162.101 279.758 162.889 279.758 163.832V169H278.299V159.367H279.503L279.67 161.151H279.74C280.098 160.524 280.528 160.041 281.032 159.701C281.536 159.361 282.09 159.191 282.693 159.191ZM291.86 166.372C291.86 167.269 291.526 167.96 290.858 168.446C290.19 168.933 289.253 169.176 288.046 169.176C286.769 169.176 285.772 168.974 285.058 168.569V167.216C285.521 167.45 286.016 167.635 286.543 167.77C287.076 167.904 287.589 167.972 288.081 167.972C288.843 167.972 289.429 167.852 289.839 167.611C290.249 167.365 290.454 166.993 290.454 166.495C290.454 166.12 290.29 165.801 289.962 165.537C289.64 165.268 289.007 164.951 288.063 164.588C287.167 164.254 286.528 163.964 286.147 163.718C285.772 163.466 285.491 163.182 285.304 162.865C285.122 162.549 285.031 162.171 285.031 161.731C285.031 160.946 285.351 160.328 285.989 159.877C286.628 159.42 287.504 159.191 288.617 159.191C289.654 159.191 290.668 159.402 291.658 159.824L291.14 161.011C290.173 160.612 289.297 160.413 288.512 160.413C287.82 160.413 287.299 160.521 286.947 160.738C286.596 160.955 286.42 161.254 286.42 161.635C286.42 161.893 286.484 162.112 286.613 162.294C286.748 162.476 286.962 162.648 287.255 162.812C287.548 162.977 288.11 163.214 288.942 163.524C290.085 163.94 290.855 164.359 291.254 164.781C291.658 165.203 291.86 165.733 291.86 166.372ZM302.557 164.175C302.557 165.745 302.161 166.973 301.37 167.857C300.579 168.736 299.486 169.176 298.092 169.176C297.23 169.176 296.466 168.974 295.798 168.569C295.13 168.165 294.614 167.585 294.251 166.829C293.888 166.073 293.706 165.188 293.706 164.175C293.706 162.604 294.099 161.383 294.884 160.51C295.669 159.631 296.759 159.191 298.153 159.191C299.501 159.191 300.57 159.64 301.361 160.536C302.158 161.433 302.557 162.646 302.557 164.175ZM295.218 164.175C295.218 165.405 295.464 166.343 295.956 166.987C296.448 167.632 297.172 167.954 298.127 167.954C299.082 167.954 299.806 167.635 300.298 166.996C300.796 166.352 301.045 165.411 301.045 164.175C301.045 162.95 300.796 162.021 300.298 161.389C299.806 160.75 299.076 160.431 298.109 160.431C297.154 160.431 296.434 160.744 295.947 161.371C295.461 161.998 295.218 162.933 295.218 164.175ZM311.715 169V162.769C311.715 161.983 311.536 161.397 311.179 161.011C310.821 160.624 310.262 160.431 309.5 160.431C308.492 160.431 307.754 160.703 307.285 161.248C306.816 161.793 306.582 162.692 306.582 163.946V169H305.123V159.367H306.31L306.547 160.686H306.617C306.916 160.211 307.335 159.845 307.874 159.587C308.413 159.323 309.014 159.191 309.676 159.191C310.836 159.191 311.709 159.473 312.295 160.035C312.881 160.592 313.174 161.485 313.174 162.716V169H311.715ZM322.104 169L321.813 167.629H321.743C321.263 168.232 320.782 168.643 320.302 168.859C319.827 169.07 319.232 169.176 318.518 169.176C317.562 169.176 316.812 168.93 316.268 168.438C315.729 167.945 315.459 167.245 315.459 166.337C315.459 164.392 317.015 163.372 320.126 163.278L321.761 163.226V162.628C321.761 161.872 321.597 161.315 321.269 160.958C320.946 160.595 320.428 160.413 319.713 160.413C318.91 160.413 318.002 160.659 316.988 161.151L316.54 160.035C317.015 159.777 317.533 159.575 318.096 159.429C318.664 159.282 319.232 159.209 319.801 159.209C320.949 159.209 321.799 159.464 322.35 159.974C322.906 160.483 323.185 161.301 323.185 162.426V169H322.104ZM318.808 167.972C319.716 167.972 320.428 167.723 320.943 167.225C321.465 166.727 321.726 166.029 321.726 165.133V164.263L320.267 164.324C319.106 164.365 318.269 164.547 317.753 164.869C317.243 165.186 316.988 165.681 316.988 166.354C316.988 166.882 317.146 167.283 317.463 167.559C317.785 167.834 318.233 167.972 318.808 167.972ZM327.658 169H326.199V155.324H327.658V169ZM332.211 169H330.752V159.367H332.211V169ZM330.629 156.757C330.629 156.423 330.711 156.18 330.875 156.027C331.039 155.869 331.244 155.79 331.49 155.79C331.725 155.79 331.927 155.869 332.097 156.027C332.267 156.186 332.352 156.429 332.352 156.757C332.352 157.085 332.267 157.331 332.097 157.495C331.927 157.653 331.725 157.732 331.49 157.732C331.244 157.732 331.039 157.653 330.875 157.495C330.711 157.331 330.629 157.085 330.629 156.757ZM341.466 169H334.479V168.007L339.734 160.501H334.804V159.367H341.334V160.501L336.148 167.866H341.466V169ZM347.794 169.176C346.37 169.176 345.245 168.742 344.419 167.875C343.599 167.008 343.188 165.804 343.188 164.263C343.188 162.71 343.569 161.477 344.331 160.562C345.099 159.648 346.127 159.191 347.416 159.191C348.623 159.191 349.578 159.59 350.281 160.387C350.984 161.178 351.336 162.224 351.336 163.524V164.447H344.7C344.729 165.578 345.014 166.437 345.553 167.022C346.098 167.608 346.862 167.901 347.847 167.901C348.884 167.901 349.909 167.685 350.923 167.251V168.552C350.407 168.774 349.918 168.933 349.455 169.026C348.998 169.126 348.444 169.176 347.794 169.176ZM347.398 160.413C346.625 160.413 346.007 160.665 345.544 161.169C345.087 161.673 344.817 162.37 344.735 163.261H349.771C349.771 162.341 349.566 161.638 349.156 161.151C348.746 160.659 348.16 160.413 347.398 160.413ZM360.389 167.708H360.31C359.636 168.687 358.628 169.176 357.286 169.176C356.026 169.176 355.045 168.745 354.342 167.884C353.645 167.022 353.296 165.798 353.296 164.21C353.296 162.622 353.647 161.389 354.351 160.51C355.054 159.631 356.032 159.191 357.286 159.191C358.593 159.191 359.595 159.666 360.292 160.615H360.406L360.345 159.921L360.31 159.244V155.324H361.769V169H360.582L360.389 167.708ZM357.471 167.954C358.467 167.954 359.188 167.685 359.633 167.146C360.084 166.601 360.31 165.725 360.31 164.518V164.21C360.31 162.845 360.081 161.872 359.624 161.292C359.173 160.706 358.449 160.413 357.453 160.413C356.598 160.413 355.941 160.747 355.484 161.415C355.033 162.077 354.808 163.015 354.808 164.228C354.808 165.458 355.033 166.387 355.484 167.014C355.936 167.641 356.598 167.954 357.471 167.954ZM366.4 166.908L366.532 167.11C366.38 167.696 366.16 168.376 365.873 169.149C365.586 169.929 365.287 170.652 364.977 171.32H363.878C364.036 170.711 364.209 169.958 364.396 169.062C364.59 168.165 364.725 167.447 364.801 166.908H366.4ZM117.257 184.191C117.685 184.191 118.068 184.227 118.408 184.297L118.206 185.65C117.808 185.562 117.456 185.519 117.151 185.519C116.372 185.519 115.704 185.835 115.147 186.468C114.597 187.101 114.321 187.889 114.321 188.832V194H112.862V184.367H114.066L114.233 186.151H114.304C114.661 185.524 115.092 185.041 115.596 184.701C116.1 184.361 116.653 184.191 117.257 184.191ZM121.669 194H120.21V184.367H121.669V194ZM120.087 181.757C120.087 181.423 120.169 181.18 120.333 181.027C120.497 180.869 120.702 180.79 120.948 180.79C121.183 180.79 121.385 180.869 121.555 181.027C121.725 181.186 121.81 181.429 121.81 181.757C121.81 182.085 121.725 182.331 121.555 182.495C121.385 182.653 121.183 182.732 120.948 182.732C120.702 182.732 120.497 182.653 120.333 182.495C120.169 182.331 120.087 182.085 120.087 181.757ZM130.977 191.372C130.977 192.269 130.643 192.96 129.975 193.446C129.307 193.933 128.369 194.176 127.162 194.176C125.885 194.176 124.889 193.974 124.174 193.569V192.216C124.637 192.45 125.132 192.635 125.659 192.77C126.192 192.904 126.705 192.972 127.197 192.972C127.959 192.972 128.545 192.852 128.955 192.611C129.365 192.365 129.57 191.993 129.57 191.495C129.57 191.12 129.406 190.801 129.078 190.537C128.756 190.268 128.123 189.951 127.18 189.588C126.283 189.254 125.645 188.964 125.264 188.718C124.889 188.466 124.607 188.182 124.42 187.865C124.238 187.549 124.147 187.171 124.147 186.731C124.147 185.946 124.467 185.328 125.105 184.877C125.744 184.42 126.62 184.191 127.733 184.191C128.771 184.191 129.784 184.402 130.774 184.824L130.256 186.011C129.289 185.612 128.413 185.413 127.628 185.413C126.937 185.413 126.415 185.521 126.063 185.738C125.712 185.955 125.536 186.254 125.536 186.635C125.536 186.893 125.601 187.112 125.729 187.294C125.864 187.476 126.078 187.648 126.371 187.812C126.664 187.977 127.227 188.214 128.059 188.524C129.201 188.94 129.972 189.359 130.37 189.781C130.774 190.203 130.977 190.733 130.977 191.372ZM134.8 189.069C135.052 188.712 135.436 188.243 135.951 187.663L139.062 184.367H140.794L136.892 188.472L141.066 194H139.3L135.898 189.447L134.8 190.396V194H133.358V180.324H134.8V187.575C134.8 187.897 134.776 188.396 134.729 189.069H134.8ZM142.007 189.843V188.507H146.322V189.843H142.007ZM153.099 184.209C154.364 184.209 155.346 184.643 156.043 185.51C156.746 186.371 157.098 187.593 157.098 189.175C157.098 190.757 156.743 191.987 156.034 192.866C155.331 193.739 154.353 194.176 153.099 194.176C152.472 194.176 151.897 194.062 151.376 193.833C150.86 193.599 150.427 193.241 150.075 192.761H149.97L149.662 194H148.616V180.324H150.075V183.646C150.075 184.391 150.052 185.059 150.005 185.65H150.075C150.755 184.689 151.763 184.209 153.099 184.209ZM152.888 185.431C151.892 185.431 151.174 185.718 150.734 186.292C150.295 186.86 150.075 187.821 150.075 189.175C150.075 190.528 150.301 191.498 150.752 192.084C151.203 192.664 151.927 192.954 152.923 192.954C153.819 192.954 154.487 192.629 154.927 191.979C155.366 191.322 155.586 190.382 155.586 189.157C155.586 187.903 155.366 186.969 154.927 186.354C154.487 185.738 153.808 185.431 152.888 185.431ZM165.579 194L165.289 192.629H165.219C164.738 193.232 164.258 193.643 163.777 193.859C163.303 194.07 162.708 194.176 161.993 194.176C161.038 194.176 160.288 193.93 159.743 193.438C159.204 192.945 158.935 192.245 158.935 191.337C158.935 189.392 160.49 188.372 163.602 188.278L165.236 188.226V187.628C165.236 186.872 165.072 186.315 164.744 185.958C164.422 185.595 163.903 185.413 163.188 185.413C162.386 185.413 161.478 185.659 160.464 186.151L160.016 185.035C160.49 184.777 161.009 184.575 161.571 184.429C162.14 184.282 162.708 184.209 163.276 184.209C164.425 184.209 165.274 184.464 165.825 184.974C166.382 185.483 166.66 186.301 166.66 187.426V194H165.579ZM162.283 192.972C163.191 192.972 163.903 192.723 164.419 192.225C164.94 191.727 165.201 191.029 165.201 190.133V189.263L163.742 189.324C162.582 189.365 161.744 189.547 161.229 189.869C160.719 190.186 160.464 190.681 160.464 191.354C160.464 191.882 160.622 192.283 160.938 192.559C161.261 192.834 161.709 192.972 162.283 192.972ZM175.889 191.372C175.889 192.269 175.555 192.96 174.887 193.446C174.219 193.933 173.281 194.176 172.074 194.176C170.797 194.176 169.801 193.974 169.086 193.569V192.216C169.549 192.45 170.044 192.635 170.571 192.77C171.104 192.904 171.617 192.972 172.109 192.972C172.871 192.972 173.457 192.852 173.867 192.611C174.277 192.365 174.482 191.993 174.482 191.495C174.482 191.12 174.318 190.801 173.99 190.537C173.668 190.268 173.035 189.951 172.092 189.588C171.195 189.254 170.557 188.964 170.176 188.718C169.801 188.466 169.52 188.182 169.332 187.865C169.15 187.549 169.06 187.171 169.06 186.731C169.06 185.946 169.379 185.328 170.018 184.877C170.656 184.42 171.532 184.191 172.646 184.191C173.683 184.191 174.696 184.402 175.687 184.824L175.168 186.011C174.201 185.612 173.325 185.413 172.54 185.413C171.849 185.413 171.327 185.521 170.976 185.738C170.624 185.955 170.448 186.254 170.448 186.635C170.448 186.893 170.513 187.112 170.642 187.294C170.776 187.476 170.99 187.648 171.283 187.812C171.576 187.977 172.139 188.214 172.971 188.524C174.113 188.94 174.884 189.359 175.282 189.781C175.687 190.203 175.889 190.733 175.889 191.372ZM182.34 194.176C180.916 194.176 179.791 193.742 178.965 192.875C178.145 192.008 177.734 190.804 177.734 189.263C177.734 187.71 178.115 186.477 178.877 185.562C179.645 184.648 180.673 184.191 181.962 184.191C183.169 184.191 184.124 184.59 184.827 185.387C185.53 186.178 185.882 187.224 185.882 188.524V189.447H179.246C179.275 190.578 179.56 191.437 180.099 192.022C180.644 192.608 181.408 192.901 182.393 192.901C183.43 192.901 184.455 192.685 185.469 192.251V193.552C184.953 193.774 184.464 193.933 184.001 194.026C183.544 194.126 182.99 194.176 182.34 194.176ZM181.944 185.413C181.171 185.413 180.553 185.665 180.09 186.169C179.633 186.673 179.363 187.37 179.281 188.261H184.317C184.317 187.341 184.112 186.638 183.702 186.151C183.292 185.659 182.706 185.413 181.944 185.413ZM194.935 192.708H194.855C194.182 193.687 193.174 194.176 191.832 194.176C190.572 194.176 189.591 193.745 188.888 192.884C188.19 192.022 187.842 190.798 187.842 189.21C187.842 187.622 188.193 186.389 188.896 185.51C189.6 184.631 190.578 184.191 191.832 184.191C193.139 184.191 194.141 184.666 194.838 185.615H194.952L194.891 184.921L194.855 184.244V180.324H196.314V194H195.128L194.935 192.708ZM192.017 192.954C193.013 192.954 193.733 192.685 194.179 192.146C194.63 191.601 194.855 190.725 194.855 189.518V189.21C194.855 187.845 194.627 186.872 194.17 186.292C193.719 185.706 192.995 185.413 191.999 185.413C191.144 185.413 190.487 185.747 190.03 186.415C189.579 187.077 189.354 188.015 189.354 189.228C189.354 190.458 189.579 191.387 190.03 192.014C190.481 192.641 191.144 192.954 192.017 192.954ZM210.017 194L209.727 192.629H209.656C209.176 193.232 208.695 193.643 208.215 193.859C207.74 194.07 207.146 194.176 206.431 194.176C205.476 194.176 204.726 193.93 204.181 193.438C203.642 192.945 203.372 192.245 203.372 191.337C203.372 189.392 204.928 188.372 208.039 188.278L209.674 188.226V187.628C209.674 186.872 209.51 186.315 209.182 185.958C208.859 185.595 208.341 185.413 207.626 185.413C206.823 185.413 205.915 185.659 204.901 186.151L204.453 185.035C204.928 184.777 205.446 184.575 206.009 184.429C206.577 184.282 207.146 184.209 207.714 184.209C208.862 184.209 209.712 184.464 210.263 184.974C210.819 185.483 211.098 186.301 211.098 187.426V194H210.017ZM206.721 192.972C207.629 192.972 208.341 192.723 208.856 192.225C209.378 191.727 209.639 191.029 209.639 190.133V189.263L208.18 189.324C207.02 189.365 206.182 189.547 205.666 189.869C205.156 190.186 204.901 190.681 204.901 191.354C204.901 191.882 205.06 192.283 205.376 192.559C205.698 192.834 206.146 192.972 206.721 192.972ZM218.595 194.176C217.968 194.176 217.394 194.062 216.872 193.833C216.356 193.599 215.923 193.241 215.571 192.761H215.466C215.536 193.323 215.571 193.856 215.571 194.36V198.324H214.112V184.367H215.299L215.501 185.686H215.571C215.946 185.158 216.383 184.777 216.881 184.543C217.379 184.309 217.95 184.191 218.595 184.191C219.872 184.191 220.856 184.628 221.548 185.501C222.245 186.374 222.594 187.599 222.594 189.175C222.594 190.757 222.239 191.987 221.53 192.866C220.827 193.739 219.849 194.176 218.595 194.176ZM218.384 185.431C217.399 185.431 216.688 185.703 216.248 186.248C215.809 186.793 215.583 187.66 215.571 188.85V189.175C215.571 190.528 215.797 191.498 216.248 192.084C216.699 192.664 217.423 192.954 218.419 192.954C219.251 192.954 219.901 192.617 220.37 191.943C220.845 191.27 221.082 190.341 221.082 189.157C221.082 187.956 220.845 187.036 220.37 186.397C219.901 185.753 219.239 185.431 218.384 185.431ZM229.634 194.176C229.007 194.176 228.433 194.062 227.911 193.833C227.396 193.599 226.962 193.241 226.61 192.761H226.505C226.575 193.323 226.61 193.856 226.61 194.36V198.324H225.151V184.367H226.338L226.54 185.686H226.61C226.985 185.158 227.422 184.777 227.92 184.543C228.418 184.309 228.989 184.191 229.634 184.191C230.911 184.191 231.896 184.628 232.587 185.501C233.284 186.374 233.633 187.599 233.633 189.175C233.633 190.757 233.278 191.987 232.569 192.866C231.866 193.739 230.888 194.176 229.634 194.176ZM229.423 185.431C228.438 185.431 227.727 185.703 227.287 186.248C226.848 186.793 226.622 187.66 226.61 188.85V189.175C226.61 190.528 226.836 191.498 227.287 192.084C227.738 192.664 228.462 192.954 229.458 192.954C230.29 192.954 230.94 192.617 231.409 191.943C231.884 191.27 232.121 190.341 232.121 189.157C232.121 187.956 231.884 187.036 231.409 186.397C230.94 185.753 230.278 185.431 229.423 185.431ZM240.585 184.191C241.013 184.191 241.396 184.227 241.736 184.297L241.534 185.65C241.136 185.562 240.784 185.519 240.479 185.519C239.7 185.519 239.032 185.835 238.476 186.468C237.925 187.101 237.649 187.889 237.649 188.832V194H236.19V184.367H237.395L237.562 186.151H237.632C237.989 185.524 238.42 185.041 238.924 184.701C239.428 184.361 239.981 184.191 240.585 184.191ZM251.853 189.175C251.853 190.745 251.457 191.973 250.666 192.857C249.875 193.736 248.782 194.176 247.388 194.176C246.526 194.176 245.762 193.974 245.094 193.569C244.426 193.165 243.91 192.585 243.547 191.829C243.184 191.073 243.002 190.188 243.002 189.175C243.002 187.604 243.395 186.383 244.18 185.51C244.965 184.631 246.055 184.191 247.449 184.191C248.797 184.191 249.866 184.64 250.657 185.536C251.454 186.433 251.853 187.646 251.853 189.175ZM244.514 189.175C244.514 190.405 244.76 191.343 245.252 191.987C245.744 192.632 246.468 192.954 247.423 192.954C248.378 192.954 249.102 192.635 249.594 191.996C250.092 191.352 250.341 190.411 250.341 189.175C250.341 187.95 250.092 187.021 249.594 186.389C249.102 185.75 248.372 185.431 247.405 185.431C246.45 185.431 245.729 185.744 245.243 186.371C244.757 186.998 244.514 187.933 244.514 189.175ZM260.343 194L260.053 192.629H259.982C259.502 193.232 259.021 193.643 258.541 193.859C258.066 194.07 257.472 194.176 256.757 194.176C255.802 194.176 255.052 193.93 254.507 193.438C253.968 192.945 253.698 192.245 253.698 191.337C253.698 189.392 255.254 188.372 258.365 188.278L260 188.226V187.628C260 186.872 259.836 186.315 259.508 185.958C259.186 185.595 258.667 185.413 257.952 185.413C257.149 185.413 256.241 185.659 255.228 186.151L254.779 185.035C255.254 184.777 255.772 184.575 256.335 184.429C256.903 184.282 257.472 184.209 258.04 184.209C259.188 184.209 260.038 184.464 260.589 184.974C261.146 185.483 261.424 186.301 261.424 187.426V194H260.343ZM257.047 192.972C257.955 192.972 258.667 192.723 259.183 192.225C259.704 191.727 259.965 191.029 259.965 190.133V189.263L258.506 189.324C257.346 189.365 256.508 189.547 255.992 189.869C255.482 190.186 255.228 190.681 255.228 191.354C255.228 191.882 255.386 192.283 255.702 192.559C256.024 192.834 256.473 192.972 257.047 192.972ZM268.288 194.176C266.894 194.176 265.812 193.748 265.045 192.893C264.283 192.031 263.902 190.815 263.902 189.245C263.902 187.634 264.289 186.389 265.062 185.51C265.842 184.631 266.949 184.191 268.385 184.191C268.848 184.191 269.311 184.241 269.773 184.341C270.236 184.44 270.6 184.558 270.863 184.692L270.415 185.932C270.093 185.803 269.741 185.697 269.36 185.615C268.979 185.527 268.643 185.483 268.35 185.483C266.393 185.483 265.414 186.731 265.414 189.228C265.414 190.411 265.651 191.319 266.126 191.952C266.606 192.585 267.315 192.901 268.253 192.901C269.056 192.901 269.879 192.729 270.723 192.383V193.675C270.078 194.009 269.267 194.176 268.288 194.176ZM279.608 194V187.769C279.608 186.983 279.43 186.397 279.072 186.011C278.715 185.624 278.155 185.431 277.394 185.431C276.38 185.431 275.639 185.706 275.17 186.257C274.707 186.808 274.476 187.71 274.476 188.964V194H273.017V180.324H274.476V184.464C274.476 184.962 274.452 185.375 274.405 185.703H274.493C274.78 185.24 275.188 184.877 275.715 184.613C276.248 184.344 276.854 184.209 277.534 184.209C278.712 184.209 279.594 184.49 280.18 185.053C280.771 185.609 281.067 186.497 281.067 187.716V194H279.608ZM291.86 192.972C292.118 192.972 292.367 192.954 292.607 192.919C292.848 192.878 293.038 192.837 293.179 192.796V193.912C293.021 193.988 292.786 194.05 292.476 194.097C292.171 194.149 291.896 194.176 291.649 194.176C289.786 194.176 288.854 193.194 288.854 191.231V185.501H287.475V184.798L288.854 184.191L289.47 182.135H290.313V184.367H293.108V185.501H290.313V191.17C290.313 191.75 290.451 192.195 290.727 192.506C291.002 192.816 291.38 192.972 291.86 192.972ZM303.427 189.175C303.427 190.745 303.031 191.973 302.24 192.857C301.449 193.736 300.356 194.176 298.962 194.176C298.101 194.176 297.336 193.974 296.668 193.569C296 193.165 295.484 192.585 295.121 191.829C294.758 191.073 294.576 190.188 294.576 189.175C294.576 187.604 294.969 186.383 295.754 185.51C296.539 184.631 297.629 184.191 299.023 184.191C300.371 184.191 301.44 184.64 302.231 185.536C303.028 186.433 303.427 187.646 303.427 189.175ZM296.088 189.175C296.088 190.405 296.334 191.343 296.826 191.987C297.318 192.632 298.042 192.954 298.997 192.954C299.952 192.954 300.676 192.635 301.168 191.996C301.666 191.352 301.915 190.411 301.915 189.175C301.915 187.95 301.666 187.021 301.168 186.389C300.676 185.75 299.946 185.431 298.979 185.431C298.024 185.431 297.304 185.744 296.817 186.371C296.331 186.998 296.088 187.933 296.088 189.175ZM312.128 194H310.669V184.367H312.128V194ZM310.546 181.757C310.546 181.423 310.628 181.18 310.792 181.027C310.956 180.869 311.161 180.79 311.407 180.79C311.642 180.79 311.844 180.869 312.014 181.027C312.184 181.186 312.269 181.429 312.269 181.757C312.269 182.085 312.184 182.331 312.014 182.495C311.844 182.653 311.642 182.732 311.407 182.732C311.161 182.732 310.956 182.653 310.792 182.495C310.628 182.331 310.546 182.085 310.546 181.757ZM321.813 194V187.769C321.813 186.983 321.635 186.397 321.277 186.011C320.92 185.624 320.36 185.431 319.599 185.431C318.591 185.431 317.853 185.703 317.384 186.248C316.915 186.793 316.681 187.692 316.681 188.946V194H315.222V184.367H316.408L316.646 185.686H316.716C317.015 185.211 317.434 184.845 317.973 184.587C318.512 184.323 319.112 184.191 319.774 184.191C320.935 184.191 321.808 184.473 322.394 185.035C322.979 185.592 323.272 186.485 323.272 187.716V194H321.813ZM330.62 185.501H328.168V194H326.709V185.501H324.986V184.842L326.709 184.314V183.778C326.709 181.411 327.743 180.228 329.812 180.228C330.321 180.228 330.919 180.33 331.604 180.535L331.227 181.704C330.664 181.522 330.184 181.432 329.785 181.432C329.234 181.432 328.827 181.616 328.563 181.985C328.3 182.349 328.168 182.935 328.168 183.743V184.367H330.62V185.501ZM340.692 189.175C340.692 190.745 340.297 191.973 339.506 192.857C338.715 193.736 337.622 194.176 336.228 194.176C335.366 194.176 334.602 193.974 333.934 193.569C333.266 193.165 332.75 192.585 332.387 191.829C332.023 191.073 331.842 190.188 331.842 189.175C331.842 187.604 332.234 186.383 333.02 185.51C333.805 184.631 334.895 184.191 336.289 184.191C337.637 184.191 338.706 184.64 339.497 185.536C340.294 186.433 340.692 187.646 340.692 189.175ZM333.354 189.175C333.354 190.405 333.6 191.343 334.092 191.987C334.584 192.632 335.308 192.954 336.263 192.954C337.218 192.954 337.941 192.635 338.434 191.996C338.932 191.352 339.181 190.411 339.181 189.175C339.181 187.95 338.932 187.021 338.434 186.389C337.941 185.75 337.212 185.431 336.245 185.431C335.29 185.431 334.569 185.744 334.083 186.371C333.597 186.998 333.354 187.933 333.354 189.175ZM347.653 184.191C348.081 184.191 348.465 184.227 348.805 184.297L348.603 185.65C348.204 185.562 347.853 185.519 347.548 185.519C346.769 185.519 346.101 185.835 345.544 186.468C344.993 187.101 344.718 187.889 344.718 188.832V194H343.259V184.367H344.463L344.63 186.151H344.7C345.058 185.524 345.488 185.041 345.992 184.701C346.496 184.361 347.05 184.191 347.653 184.191ZM362.885 194V187.733C362.885 186.966 362.721 186.392 362.393 186.011C362.064 185.624 361.555 185.431 360.863 185.431C359.955 185.431 359.284 185.691 358.851 186.213C358.417 186.734 358.2 187.537 358.2 188.621V194H356.741V187.733C356.741 186.966 356.577 186.392 356.249 186.011C355.921 185.624 355.408 185.431 354.711 185.431C353.797 185.431 353.126 185.706 352.698 186.257C352.276 186.802 352.065 187.698 352.065 188.946V194H350.606V184.367H351.793L352.03 185.686H352.101C352.376 185.217 352.763 184.851 353.261 184.587C353.765 184.323 354.327 184.191 354.948 184.191C356.454 184.191 357.438 184.736 357.901 185.826H357.972C358.259 185.322 358.675 184.924 359.22 184.631C359.765 184.338 360.386 184.191 361.083 184.191C362.173 184.191 362.987 184.473 363.526 185.035C364.071 185.592 364.344 186.485 364.344 187.716V194H362.885ZM373.282 194L372.992 192.629H372.922C372.441 193.232 371.961 193.643 371.48 193.859C371.006 194.07 370.411 194.176 369.696 194.176C368.741 194.176 367.991 193.93 367.446 193.438C366.907 192.945 366.638 192.245 366.638 191.337C366.638 189.392 368.193 188.372 371.305 188.278L372.939 188.226V187.628C372.939 186.872 372.775 186.315 372.447 185.958C372.125 185.595 371.606 185.413 370.892 185.413C370.089 185.413 369.181 185.659 368.167 186.151L367.719 185.035C368.193 184.777 368.712 184.575 369.274 184.429C369.843 184.282 370.411 184.209 370.979 184.209C372.128 184.209 372.978 184.464 373.528 184.974C374.085 185.483 374.363 186.301 374.363 187.426V194H373.282ZM369.986 192.972C370.895 192.972 371.606 192.723 372.122 192.225C372.644 191.727 372.904 191.029 372.904 190.133V189.263L371.445 189.324C370.285 189.365 369.447 189.547 368.932 189.869C368.422 190.186 368.167 190.681 368.167 191.354C368.167 191.882 368.325 192.283 368.642 192.559C368.964 192.834 369.412 192.972 369.986 192.972ZM380.489 192.972C380.747 192.972 380.996 192.954 381.236 192.919C381.477 192.878 381.667 192.837 381.808 192.796V193.912C381.649 193.988 381.415 194.05 381.104 194.097C380.8 194.149 380.524 194.176 380.278 194.176C378.415 194.176 377.483 193.194 377.483 191.231V185.501H376.104V184.798L377.483 184.191L378.099 182.135H378.942V184.367H381.737V185.501H378.942V191.17C378.942 191.75 379.08 192.195 379.355 192.506C379.631 192.816 380.009 192.972 380.489 192.972ZM385.2 194H383.741V184.367H385.2V194ZM383.618 181.757C383.618 181.423 383.7 181.18 383.864 181.027C384.028 180.869 384.233 180.79 384.479 180.79C384.714 180.79 384.916 180.869 385.086 181.027C385.256 181.186 385.341 181.429 385.341 181.757C385.341 182.085 385.256 182.331 385.086 182.495C384.916 182.653 384.714 182.732 384.479 182.732C384.233 182.732 384.028 182.653 383.864 182.495C383.7 182.331 383.618 182.085 383.618 181.757ZM396.608 189.175C396.608 190.745 396.213 191.973 395.422 192.857C394.631 193.736 393.538 194.176 392.144 194.176C391.282 194.176 390.518 193.974 389.85 193.569C389.182 193.165 388.666 192.585 388.303 191.829C387.939 191.073 387.758 190.188 387.758 189.175C387.758 187.604 388.15 186.383 388.936 185.51C389.721 184.631 390.811 184.191 392.205 184.191C393.553 184.191 394.622 184.64 395.413 185.536C396.21 186.433 396.608 187.646 396.608 189.175ZM389.27 189.175C389.27 190.405 389.516 191.343 390.008 191.987C390.5 192.632 391.224 192.954 392.179 192.954C393.134 192.954 393.857 192.635 394.35 191.996C394.848 191.352 395.097 190.411 395.097 189.175C395.097 187.95 394.848 187.021 394.35 186.389C393.857 185.75 393.128 185.431 392.161 185.431C391.206 185.431 390.485 185.744 389.999 186.371C389.513 186.998 389.27 187.933 389.27 189.175ZM405.767 194V187.769C405.767 186.983 405.588 186.397 405.23 186.011C404.873 185.624 404.313 185.431 403.552 185.431C402.544 185.431 401.806 185.703 401.337 186.248C400.868 186.793 400.634 187.692 400.634 188.946V194H399.175V184.367H400.361L400.599 185.686H400.669C400.968 185.211 401.387 184.845 401.926 184.587C402.465 184.323 403.065 184.191 403.728 184.191C404.888 184.191 405.761 184.473 406.347 185.035C406.933 185.592 407.226 186.485 407.226 187.716V194H405.767ZM154.285 216.372C154.285 217.269 153.951 217.96 153.283 218.446C152.615 218.933 151.678 219.176 150.471 219.176C149.193 219.176 148.197 218.974 147.482 218.569V217.216C147.945 217.45 148.44 217.635 148.968 217.77C149.501 217.904 150.014 217.972 150.506 217.972C151.268 217.972 151.854 217.852 152.264 217.611C152.674 217.365 152.879 216.993 152.879 216.495C152.879 216.12 152.715 215.801 152.387 215.537C152.064 215.268 151.432 214.951 150.488 214.588C149.592 214.254 148.953 213.964 148.572 213.718C148.197 213.466 147.916 213.182 147.729 212.865C147.547 212.549 147.456 212.171 147.456 211.731C147.456 210.946 147.775 210.328 148.414 209.877C149.053 209.42 149.929 209.191 151.042 209.191C152.079 209.191 153.093 209.402 154.083 209.824L153.564 211.011C152.598 210.612 151.722 210.413 150.937 210.413C150.245 210.413 149.724 210.521 149.372 210.738C149.021 210.955 148.845 211.254 148.845 211.635C148.845 211.893 148.909 212.112 149.038 212.294C149.173 212.476 149.387 212.648 149.68 212.812C149.973 212.977 150.535 213.214 151.367 213.524C152.51 213.94 153.28 214.359 153.679 214.781C154.083 215.203 154.285 215.733 154.285 216.372ZM160.736 219.176C159.312 219.176 158.188 218.742 157.361 217.875C156.541 217.008 156.131 215.804 156.131 214.263C156.131 212.71 156.512 211.477 157.273 210.562C158.041 209.648 159.069 209.191 160.358 209.191C161.565 209.191 162.521 209.59 163.224 210.387C163.927 211.178 164.278 212.224 164.278 213.524V214.447H157.643C157.672 215.578 157.956 216.437 158.495 217.022C159.04 217.608 159.805 217.901 160.789 217.901C161.826 217.901 162.852 217.685 163.865 217.251V218.552C163.35 218.774 162.86 218.933 162.397 219.026C161.94 219.126 161.387 219.176 160.736 219.176ZM160.341 210.413C159.567 210.413 158.949 210.665 158.486 211.169C158.029 211.673 157.76 212.37 157.678 213.261H162.714C162.714 212.341 162.509 211.638 162.099 211.151C161.688 210.659 161.103 210.413 160.341 210.413ZM170.624 219.176C169.229 219.176 168.148 218.748 167.381 217.893C166.619 217.031 166.238 215.815 166.238 214.245C166.238 212.634 166.625 211.389 167.398 210.51C168.178 209.631 169.285 209.191 170.721 209.191C171.184 209.191 171.646 209.241 172.109 209.341C172.572 209.44 172.936 209.558 173.199 209.692L172.751 210.932C172.429 210.803 172.077 210.697 171.696 210.615C171.315 210.527 170.979 210.483 170.686 210.483C168.729 210.483 167.75 211.731 167.75 214.228C167.75 215.411 167.987 216.319 168.462 216.952C168.942 217.585 169.651 217.901 170.589 217.901C171.392 217.901 172.215 217.729 173.059 217.383V218.675C172.414 219.009 171.603 219.176 170.624 219.176ZM176.724 209.367V215.616C176.724 216.401 176.902 216.987 177.26 217.374C177.617 217.761 178.177 217.954 178.938 217.954C179.946 217.954 180.682 217.679 181.145 217.128C181.613 216.577 181.848 215.678 181.848 214.43V209.367H183.307V219H182.103L181.892 217.708H181.812C181.514 218.183 181.098 218.546 180.564 218.798C180.037 219.05 179.434 219.176 178.754 219.176C177.582 219.176 176.703 218.897 176.117 218.341C175.537 217.784 175.247 216.894 175.247 215.669V209.367H176.724ZM190.804 209.191C191.231 209.191 191.615 209.227 191.955 209.297L191.753 210.65C191.354 210.562 191.003 210.519 190.698 210.519C189.919 210.519 189.251 210.835 188.694 211.468C188.144 212.101 187.868 212.889 187.868 213.832V219H186.409V209.367H187.613L187.78 211.151H187.851C188.208 210.524 188.639 210.041 189.143 209.701C189.646 209.361 190.2 209.191 190.804 209.191ZM195.216 219H193.757V209.367H195.216V219ZM193.634 206.757C193.634 206.423 193.716 206.18 193.88 206.027C194.044 205.869 194.249 205.79 194.495 205.79C194.729 205.79 194.932 205.869 195.102 206.027C195.271 206.186 195.356 206.429 195.356 206.757C195.356 207.085 195.271 207.331 195.102 207.495C194.932 207.653 194.729 207.732 194.495 207.732C194.249 207.732 194.044 207.653 193.88 207.495C193.716 207.331 193.634 207.085 193.634 206.757ZM201.421 217.972C201.679 217.972 201.928 217.954 202.168 217.919C202.408 217.878 202.599 217.837 202.739 217.796V218.912C202.581 218.988 202.347 219.05 202.036 219.097C201.731 219.149 201.456 219.176 201.21 219.176C199.347 219.176 198.415 218.194 198.415 216.231V210.501H197.035V209.798L198.415 209.191L199.03 207.135H199.874V209.367H202.669V210.501H199.874V216.17C199.874 216.75 200.012 217.195 200.287 217.506C200.562 217.816 200.94 217.972 201.421 217.972ZM203.144 209.367H204.708L206.817 214.86C207.28 216.114 207.567 217.02 207.679 217.576H207.749C207.825 217.277 207.983 216.768 208.224 216.047C208.47 215.32 209.267 213.094 210.614 209.367H212.179L208.039 220.336C207.629 221.42 207.148 222.188 206.598 222.639C206.053 223.096 205.382 223.324 204.585 223.324C204.14 223.324 203.7 223.274 203.267 223.175V222.006C203.589 222.076 203.949 222.111 204.348 222.111C205.35 222.111 206.064 221.549 206.492 220.424L207.028 219.053L203.144 209.367ZM222.761 210.501H220.309V219H218.85V210.501H217.127V209.842L218.85 209.314V208.778C218.85 206.411 219.884 205.228 221.952 205.228C222.462 205.228 223.06 205.33 223.745 205.535L223.367 206.704C222.805 206.522 222.324 206.432 221.926 206.432C221.375 206.432 220.968 206.616 220.704 206.985C220.44 207.349 220.309 207.935 220.309 208.743V209.367H222.761V210.501ZM228.588 219.176C227.164 219.176 226.039 218.742 225.213 217.875C224.393 217.008 223.982 215.804 223.982 214.263C223.982 212.71 224.363 211.477 225.125 210.562C225.893 209.648 226.921 209.191 228.21 209.191C229.417 209.191 230.372 209.59 231.075 210.387C231.778 211.178 232.13 212.224 232.13 213.524V214.447H225.494C225.523 215.578 225.808 216.437 226.347 217.022C226.892 217.608 227.656 217.901 228.641 217.901C229.678 217.901 230.703 217.685 231.717 217.251V218.552C231.201 218.774 230.712 218.933 230.249 219.026C229.792 219.126 229.238 219.176 228.588 219.176ZM228.192 210.413C227.419 210.413 226.801 210.665 226.338 211.169C225.881 211.673 225.611 212.37 225.529 213.261H230.565C230.565 212.341 230.36 211.638 229.95 211.151C229.54 210.659 228.954 210.413 228.192 210.413ZM240.55 219L240.26 217.629H240.189C239.709 218.232 239.229 218.643 238.748 218.859C238.273 219.07 237.679 219.176 236.964 219.176C236.009 219.176 235.259 218.93 234.714 218.438C234.175 217.945 233.905 217.245 233.905 216.337C233.905 214.392 235.461 213.372 238.572 213.278L240.207 213.226V212.628C240.207 211.872 240.043 211.315 239.715 210.958C239.393 210.595 238.874 210.413 238.159 210.413C237.356 210.413 236.448 210.659 235.435 211.151L234.986 210.035C235.461 209.777 235.979 209.575 236.542 209.429C237.11 209.282 237.679 209.209 238.247 209.209C239.396 209.209 240.245 209.464 240.796 209.974C241.353 210.483 241.631 211.301 241.631 212.426V219H240.55ZM237.254 217.972C238.162 217.972 238.874 217.723 239.39 217.225C239.911 216.727 240.172 216.029 240.172 215.133V214.263L238.713 214.324C237.553 214.365 236.715 214.547 236.199 214.869C235.689 215.186 235.435 215.681 235.435 216.354C235.435 216.882 235.593 217.283 235.909 217.559C236.231 217.834 236.68 217.972 237.254 217.972ZM247.757 217.972C248.015 217.972 248.264 217.954 248.504 217.919C248.744 217.878 248.935 217.837 249.075 217.796V218.912C248.917 218.988 248.683 219.05 248.372 219.097C248.067 219.149 247.792 219.176 247.546 219.176C245.683 219.176 244.751 218.194 244.751 216.231V210.501H243.371V209.798L244.751 209.191L245.366 207.135H246.21V209.367H249.005V210.501H246.21V216.17C246.21 216.75 246.348 217.195 246.623 217.506C246.898 217.816 247.276 217.972 247.757 217.972ZM252.38 209.367V215.616C252.38 216.401 252.559 216.987 252.916 217.374C253.273 217.761 253.833 217.954 254.595 217.954C255.603 217.954 256.338 217.679 256.801 217.128C257.27 216.577 257.504 215.678 257.504 214.43V209.367H258.963V219H257.759L257.548 217.708H257.469C257.17 218.183 256.754 218.546 256.221 218.798C255.693 219.05 255.09 219.176 254.41 219.176C253.238 219.176 252.359 218.897 251.773 218.341C251.193 217.784 250.903 216.894 250.903 215.669V209.367H252.38ZM266.46 209.191C266.888 209.191 267.271 209.227 267.611 209.297L267.409 210.65C267.011 210.562 266.659 210.519 266.354 210.519C265.575 210.519 264.907 210.835 264.351 211.468C263.8 212.101 263.524 212.889 263.524 213.832V219H262.065V209.367H263.27L263.437 211.151H263.507C263.864 210.524 264.295 210.041 264.799 209.701C265.303 209.361 265.856 209.191 266.46 209.191ZM270.872 219H269.413V209.367H270.872V219ZM269.29 206.757C269.29 206.423 269.372 206.18 269.536 206.027C269.7 205.869 269.905 205.79 270.151 205.79C270.386 205.79 270.588 205.869 270.758 206.027C270.928 206.186 271.013 206.429 271.013 206.757C271.013 207.085 270.928 207.331 270.758 207.495C270.588 207.653 270.386 207.732 270.151 207.732C269.905 207.732 269.7 207.653 269.536 207.495C269.372 207.331 269.29 207.085 269.29 206.757ZM280.558 219V212.769C280.558 211.983 280.379 211.397 280.021 211.011C279.664 210.624 279.104 210.431 278.343 210.431C277.335 210.431 276.597 210.703 276.128 211.248C275.659 211.793 275.425 212.692 275.425 213.946V219H273.966V209.367H275.152L275.39 210.686H275.46C275.759 210.211 276.178 209.845 276.717 209.587C277.256 209.323 277.856 209.191 278.519 209.191C279.679 209.191 280.552 209.473 281.138 210.035C281.724 210.592 282.017 211.485 282.017 212.716V219H280.558ZM292.906 209.367V210.29L291.122 210.501C291.286 210.706 291.433 210.976 291.562 211.31C291.69 211.638 291.755 212.01 291.755 212.426C291.755 213.369 291.433 214.122 290.788 214.685C290.144 215.247 289.259 215.528 288.134 215.528C287.847 215.528 287.577 215.505 287.325 215.458C286.704 215.786 286.394 216.199 286.394 216.697C286.394 216.961 286.502 217.157 286.719 217.286C286.936 217.409 287.308 217.471 287.835 217.471H289.54C290.583 217.471 291.383 217.69 291.939 218.13C292.502 218.569 292.783 219.208 292.783 220.046C292.783 221.112 292.355 221.924 291.5 222.48C290.645 223.043 289.396 223.324 287.756 223.324C286.496 223.324 285.523 223.09 284.838 222.621C284.158 222.152 283.818 221.49 283.818 220.635C283.818 220.049 284.006 219.542 284.381 219.114C284.756 218.687 285.283 218.396 285.963 218.244C285.717 218.133 285.509 217.96 285.339 217.726C285.175 217.491 285.093 217.219 285.093 216.908C285.093 216.557 285.187 216.249 285.374 215.985C285.562 215.722 285.857 215.467 286.262 215.221C285.764 215.016 285.356 214.667 285.04 214.175C284.729 213.683 284.574 213.12 284.574 212.487C284.574 211.433 284.891 210.621 285.523 210.053C286.156 209.479 287.053 209.191 288.213 209.191C288.717 209.191 289.171 209.25 289.575 209.367H292.906ZM285.225 220.617C285.225 221.139 285.444 221.534 285.884 221.804C286.323 222.073 286.953 222.208 287.773 222.208C288.998 222.208 289.903 222.023 290.489 221.654C291.081 221.291 291.377 220.796 291.377 220.169C291.377 219.647 291.216 219.284 290.894 219.079C290.571 218.88 289.965 218.78 289.074 218.78H287.325C286.663 218.78 286.147 218.938 285.778 219.255C285.409 219.571 285.225 220.025 285.225 220.617ZM286.016 212.452C286.016 213.126 286.206 213.636 286.587 213.981C286.968 214.327 287.498 214.5 288.178 214.5C289.602 214.5 290.313 213.809 290.313 212.426C290.313 210.979 289.593 210.255 288.151 210.255C287.466 210.255 286.938 210.439 286.569 210.809C286.2 211.178 286.016 211.726 286.016 212.452ZM304.042 219.176C303.415 219.176 302.841 219.062 302.319 218.833C301.804 218.599 301.37 218.241 301.019 217.761H300.913C300.983 218.323 301.019 218.856 301.019 219.36V223.324H299.56V209.367H300.746L300.948 210.686H301.019C301.394 210.158 301.83 209.777 302.328 209.543C302.826 209.309 303.397 209.191 304.042 209.191C305.319 209.191 306.304 209.628 306.995 210.501C307.692 211.374 308.041 212.599 308.041 214.175C308.041 215.757 307.687 216.987 306.978 217.866C306.274 218.739 305.296 219.176 304.042 219.176ZM303.831 210.431C302.847 210.431 302.135 210.703 301.695 211.248C301.256 211.793 301.03 212.66 301.019 213.85V214.175C301.019 215.528 301.244 216.498 301.695 217.084C302.146 217.664 302.87 217.954 303.866 217.954C304.698 217.954 305.349 217.617 305.817 216.943C306.292 216.27 306.529 215.341 306.529 214.157C306.529 212.956 306.292 212.036 305.817 211.397C305.349 210.753 304.687 210.431 303.831 210.431ZM314.993 209.191C315.421 209.191 315.805 209.227 316.145 209.297L315.942 210.65C315.544 210.562 315.192 210.519 314.888 210.519C314.108 210.519 313.44 210.835 312.884 211.468C312.333 212.101 312.058 212.889 312.058 213.832V219H310.599V209.367H311.803L311.97 211.151H312.04C312.397 210.524 312.828 210.041 313.332 209.701C313.836 209.361 314.39 209.191 314.993 209.191ZM323.87 219L323.58 217.629H323.51C323.029 218.232 322.549 218.643 322.068 218.859C321.594 219.07 320.999 219.176 320.284 219.176C319.329 219.176 318.579 218.93 318.034 218.438C317.495 217.945 317.226 217.245 317.226 216.337C317.226 214.392 318.781 213.372 321.893 213.278L323.527 213.226V212.628C323.527 211.872 323.363 211.315 323.035 210.958C322.713 210.595 322.194 210.413 321.479 210.413C320.677 210.413 319.769 210.659 318.755 211.151L318.307 210.035C318.781 209.777 319.3 209.575 319.862 209.429C320.431 209.282 320.999 209.209 321.567 209.209C322.716 209.209 323.565 209.464 324.116 209.974C324.673 210.483 324.951 211.301 324.951 212.426V219H323.87ZM320.574 217.972C321.482 217.972 322.194 217.723 322.71 217.225C323.231 216.727 323.492 216.029 323.492 215.133V214.263L322.033 214.324C320.873 214.365 320.035 214.547 319.52 214.869C319.01 215.186 318.755 215.681 318.755 216.354C318.755 216.882 318.913 217.283 319.229 217.559C319.552 217.834 320 217.972 320.574 217.972ZM331.815 219.176C330.421 219.176 329.34 218.748 328.572 217.893C327.811 217.031 327.43 215.815 327.43 214.245C327.43 212.634 327.816 211.389 328.59 210.51C329.369 209.631 330.477 209.191 331.912 209.191C332.375 209.191 332.838 209.241 333.301 209.341C333.764 209.44 334.127 209.558 334.391 209.692L333.942 210.932C333.62 210.803 333.269 210.697 332.888 210.615C332.507 210.527 332.17 210.483 331.877 210.483C329.92 210.483 328.941 211.731 328.941 214.228C328.941 215.411 329.179 216.319 329.653 216.952C330.134 217.585 330.843 217.901 331.78 217.901C332.583 217.901 333.406 217.729 334.25 217.383V218.675C333.605 219.009 332.794 219.176 331.815 219.176ZM339.655 217.972C339.913 217.972 340.162 217.954 340.402 217.919C340.643 217.878 340.833 217.837 340.974 217.796V218.912C340.815 218.988 340.581 219.05 340.271 219.097C339.966 219.149 339.69 219.176 339.444 219.176C337.581 219.176 336.649 218.194 336.649 216.231V210.501H335.27V209.798L336.649 209.191L337.265 207.135H338.108V209.367H340.903V210.501H338.108V216.17C338.108 216.75 338.246 217.195 338.521 217.506C338.797 217.816 339.175 217.972 339.655 217.972ZM344.366 219H342.907V209.367H344.366V219ZM342.784 206.757C342.784 206.423 342.866 206.18 343.03 206.027C343.194 205.869 343.399 205.79 343.646 205.79C343.88 205.79 344.082 205.869 344.252 206.027C344.422 206.186 344.507 206.429 344.507 206.757C344.507 207.085 344.422 207.331 344.252 207.495C344.082 207.653 343.88 207.732 343.646 207.732C343.399 207.732 343.194 207.653 343.03 207.495C342.866 207.331 342.784 207.085 342.784 206.757ZM351.31 219.176C349.915 219.176 348.834 218.748 348.066 217.893C347.305 217.031 346.924 215.815 346.924 214.245C346.924 212.634 347.311 211.389 348.084 210.51C348.863 209.631 349.971 209.191 351.406 209.191C351.869 209.191 352.332 209.241 352.795 209.341C353.258 209.44 353.621 209.558 353.885 209.692L353.437 210.932C353.114 210.803 352.763 210.697 352.382 210.615C352.001 210.527 351.664 210.483 351.371 210.483C349.414 210.483 348.436 211.731 348.436 214.228C348.436 215.411 348.673 216.319 349.147 216.952C349.628 217.585 350.337 217.901 351.274 217.901C352.077 217.901 352.9 217.729 353.744 217.383V218.675C353.1 219.009 352.288 219.176 351.31 219.176ZM361.962 219L361.672 217.629H361.602C361.121 218.232 360.641 218.643 360.16 218.859C359.686 219.07 359.091 219.176 358.376 219.176C357.421 219.176 356.671 218.93 356.126 218.438C355.587 217.945 355.317 217.245 355.317 216.337C355.317 214.392 356.873 213.372 359.984 213.278L361.619 213.226V212.628C361.619 211.872 361.455 211.315 361.127 210.958C360.805 210.595 360.286 210.413 359.571 210.413C358.769 210.413 357.86 210.659 356.847 211.151L356.398 210.035C356.873 209.777 357.392 209.575 357.954 209.429C358.522 209.282 359.091 209.209 359.659 209.209C360.808 209.209 361.657 209.464 362.208 209.974C362.765 210.483 363.043 211.301 363.043 212.426V219H361.962ZM358.666 217.972C359.574 217.972 360.286 217.723 360.802 217.225C361.323 216.727 361.584 216.029 361.584 215.133V214.263L360.125 214.324C358.965 214.365 358.127 214.547 357.611 214.869C357.102 215.186 356.847 215.681 356.847 216.354C356.847 216.882 357.005 217.283 357.321 217.559C357.644 217.834 358.092 217.972 358.666 217.972ZM367.517 219H366.058V205.324H367.517V219ZM372.14 216.908L372.271 217.11C372.119 217.696 371.899 218.376 371.612 219.149C371.325 219.929 371.026 220.652 370.716 221.32H369.617C369.775 220.711 369.948 219.958 370.136 219.062C370.329 218.165 370.464 217.447 370.54 216.908H372.14ZM148.889 244.176C147.465 244.176 146.34 243.742 145.514 242.875C144.693 242.008 144.283 240.804 144.283 239.263C144.283 237.71 144.664 236.477 145.426 235.562C146.193 234.648 147.222 234.191 148.511 234.191C149.718 234.191 150.673 234.59 151.376 235.387C152.079 236.178 152.431 237.224 152.431 238.524V239.447H145.795C145.824 240.578 146.108 241.437 146.647 242.022C147.192 242.608 147.957 242.901 148.941 242.901C149.979 242.901 151.004 242.685 152.018 242.251V243.552C151.502 243.774 151.013 243.933 150.55 244.026C150.093 244.126 149.539 244.176 148.889 244.176ZM148.493 235.413C147.72 235.413 147.102 235.665 146.639 236.169C146.182 236.673 145.912 237.37 145.83 238.261H150.866C150.866 237.341 150.661 236.638 150.251 236.151C149.841 235.659 149.255 235.413 148.493 235.413ZM165.368 235.501H162.916V244H161.457V235.501H159.734V234.842L161.457 234.314V233.778C161.457 231.411 162.491 230.228 164.56 230.228C165.069 230.228 165.667 230.33 166.353 230.535L165.975 231.704C165.412 231.522 164.932 231.432 164.533 231.432C163.982 231.432 163.575 231.616 163.312 231.985C163.048 232.349 162.916 232.935 162.916 233.743V234.367H165.368V235.501ZM159.269 235.501H156.816V244H155.357V235.501H153.635V234.842L155.357 234.314V233.778C155.357 231.411 156.392 230.228 158.46 230.228C158.97 230.228 159.567 230.33 160.253 230.535L159.875 231.704C159.312 231.522 158.832 231.432 158.434 231.432C157.883 231.432 157.476 231.616 157.212 231.985C156.948 232.349 156.816 232.935 156.816 233.743V234.367H159.269V235.501ZM171.213 244.176C169.789 244.176 168.664 243.742 167.838 242.875C167.018 242.008 166.607 240.804 166.607 239.263C166.607 237.71 166.988 236.477 167.75 235.562C168.518 234.648 169.546 234.191 170.835 234.191C172.042 234.191 172.997 234.59 173.7 235.387C174.403 236.178 174.755 237.224 174.755 238.524V239.447H168.119C168.148 240.578 168.433 241.437 168.972 242.022C169.517 242.608 170.281 242.901 171.266 242.901C172.303 242.901 173.328 242.685 174.342 242.251V243.552C173.826 243.774 173.337 243.933 172.874 244.026C172.417 244.126 171.863 244.176 171.213 244.176ZM170.817 235.413C170.044 235.413 169.426 235.665 168.963 236.169C168.506 236.673 168.236 237.37 168.154 238.261H173.19C173.19 237.341 172.985 236.638 172.575 236.151C172.165 235.659 171.579 235.413 170.817 235.413ZM181.101 244.176C179.706 244.176 178.625 243.748 177.857 242.893C177.096 242.031 176.715 240.815 176.715 239.245C176.715 237.634 177.102 236.389 177.875 235.51C178.654 234.631 179.762 234.191 181.197 234.191C181.66 234.191 182.123 234.241 182.586 234.341C183.049 234.44 183.412 234.558 183.676 234.692L183.228 235.932C182.905 235.803 182.554 235.697 182.173 235.615C181.792 235.527 181.455 235.483 181.162 235.483C179.205 235.483 178.227 236.731 178.227 239.228C178.227 240.411 178.464 241.319 178.938 241.952C179.419 242.585 180.128 242.901 181.065 242.901C181.868 242.901 182.691 242.729 183.535 242.383V243.675C182.891 244.009 182.079 244.176 181.101 244.176ZM188.94 242.972C189.198 242.972 189.447 242.954 189.688 242.919C189.928 242.878 190.118 242.837 190.259 242.796V243.912C190.101 243.988 189.866 244.05 189.556 244.097C189.251 244.149 188.976 244.176 188.729 244.176C186.866 244.176 185.935 243.194 185.935 241.231V235.501H184.555V234.798L185.935 234.191L186.55 232.135H187.394V234.367H190.188V235.501H187.394V241.17C187.394 241.75 187.531 242.195 187.807 242.506C188.082 242.816 188.46 242.972 188.94 242.972ZM193.651 244H192.192V234.367H193.651V244ZM192.069 231.757C192.069 231.423 192.151 231.18 192.315 231.027C192.479 230.869 192.685 230.79 192.931 230.79C193.165 230.79 193.367 230.869 193.537 231.027C193.707 231.186 193.792 231.429 193.792 231.757C193.792 232.085 193.707 232.331 193.537 232.495C193.367 232.653 193.165 232.732 192.931 232.732C192.685 232.732 192.479 232.653 192.315 232.495C192.151 232.331 192.069 232.085 192.069 231.757ZM198.854 244L195.198 234.367H196.763L198.837 240.08C199.306 241.416 199.581 242.283 199.663 242.682H199.733C199.798 242.371 200 241.729 200.34 240.757C200.686 239.778 201.456 237.648 202.651 234.367H204.216L200.56 244H198.854ZM209.832 244.176C208.408 244.176 207.283 243.742 206.457 242.875C205.637 242.008 205.227 240.804 205.227 239.263C205.227 237.71 205.607 236.477 206.369 235.562C207.137 234.648 208.165 234.191 209.454 234.191C210.661 234.191 211.616 234.59 212.319 235.387C213.022 236.178 213.374 237.224 213.374 238.524V239.447H206.738C206.768 240.578 207.052 241.437 207.591 242.022C208.136 242.608 208.9 242.901 209.885 242.901C210.922 242.901 211.947 242.685 212.961 242.251V243.552C212.445 243.774 211.956 243.933 211.493 244.026C211.036 244.126 210.482 244.176 209.832 244.176ZM209.437 235.413C208.663 235.413 208.045 235.665 207.582 236.169C207.125 236.673 206.855 237.37 206.773 238.261H211.81C211.81 237.341 211.604 236.638 211.194 236.151C210.784 235.659 210.198 235.413 209.437 235.413ZM226.76 241.372C226.76 242.269 226.426 242.96 225.758 243.446C225.09 243.933 224.152 244.176 222.945 244.176C221.668 244.176 220.672 243.974 219.957 243.569V242.216C220.42 242.45 220.915 242.635 221.442 242.77C221.976 242.904 222.488 242.972 222.98 242.972C223.742 242.972 224.328 242.852 224.738 242.611C225.148 242.365 225.354 241.993 225.354 241.495C225.354 241.12 225.189 240.801 224.861 240.537C224.539 240.268 223.906 239.951 222.963 239.588C222.066 239.254 221.428 238.964 221.047 238.718C220.672 238.466 220.391 238.182 220.203 237.865C220.021 237.549 219.931 237.171 219.931 236.731C219.931 235.946 220.25 235.328 220.889 234.877C221.527 234.42 222.403 234.191 223.517 234.191C224.554 234.191 225.567 234.402 226.558 234.824L226.039 236.011C225.072 235.612 224.196 235.413 223.411 235.413C222.72 235.413 222.198 235.521 221.847 235.738C221.495 235.955 221.319 236.254 221.319 236.635C221.319 236.893 221.384 237.112 221.513 237.294C221.647 237.476 221.861 237.648 222.154 237.812C222.447 237.977 223.01 238.214 223.842 238.524C224.984 238.94 225.755 239.359 226.153 239.781C226.558 240.203 226.76 240.733 226.76 241.372ZM233.211 244.176C231.787 244.176 230.662 243.742 229.836 242.875C229.016 242.008 228.605 240.804 228.605 239.263C228.605 237.71 228.986 236.477 229.748 235.562C230.516 234.648 231.544 234.191 232.833 234.191C234.04 234.191 234.995 234.59 235.698 235.387C236.401 236.178 236.753 237.224 236.753 238.524V239.447H230.117C230.146 240.578 230.431 241.437 230.97 242.022C231.515 242.608 232.279 242.901 233.264 242.901C234.301 242.901 235.326 242.685 236.34 242.251V243.552C235.824 243.774 235.335 243.933 234.872 244.026C234.415 244.126 233.861 244.176 233.211 244.176ZM232.815 235.413C232.042 235.413 231.424 235.665 230.961 236.169C230.504 236.673 230.234 237.37 230.152 238.261H235.188C235.188 237.341 234.983 236.638 234.573 236.151C234.163 235.659 233.577 235.413 232.815 235.413ZM243.099 244.176C241.704 244.176 240.623 243.748 239.855 242.893C239.094 242.031 238.713 240.815 238.713 239.245C238.713 237.634 239.1 236.389 239.873 235.51C240.652 234.631 241.76 234.191 243.195 234.191C243.658 234.191 244.121 234.241 244.584 234.341C245.047 234.44 245.41 234.558 245.674 234.692L245.226 235.932C244.903 235.803 244.552 235.697 244.171 235.615C243.79 235.527 243.453 235.483 243.16 235.483C241.203 235.483 240.225 236.731 240.225 239.228C240.225 240.411 240.462 241.319 240.937 241.952C241.417 242.585 242.126 242.901 243.063 242.901C243.866 242.901 244.689 242.729 245.533 242.383V243.675C244.889 244.009 244.077 244.176 243.099 244.176ZM249.198 234.367V240.616C249.198 241.401 249.377 241.987 249.734 242.374C250.092 242.761 250.651 242.954 251.413 242.954C252.421 242.954 253.156 242.679 253.619 242.128C254.088 241.577 254.322 240.678 254.322 239.43V234.367H255.781V244H254.577L254.366 242.708H254.287C253.988 243.183 253.572 243.546 253.039 243.798C252.512 244.05 251.908 244.176 251.229 244.176C250.057 244.176 249.178 243.897 248.592 243.341C248.012 242.784 247.722 241.894 247.722 240.669V234.367H249.198ZM263.278 234.191C263.706 234.191 264.09 234.227 264.43 234.297L264.228 235.65C263.829 235.562 263.478 235.519 263.173 235.519C262.394 235.519 261.726 235.835 261.169 236.468C260.618 237.101 260.343 237.889 260.343 238.832V244H258.884V234.367H260.088L260.255 236.151H260.325C260.683 235.524 261.113 235.041 261.617 234.701C262.121 234.361 262.675 234.191 263.278 234.191ZM267.69 244H266.231V234.367H267.69V244ZM266.108 231.757C266.108 231.423 266.19 231.18 266.354 231.027C266.519 230.869 266.724 230.79 266.97 230.79C267.204 230.79 267.406 230.869 267.576 231.027C267.746 231.186 267.831 231.429 267.831 231.757C267.831 232.085 267.746 232.331 267.576 232.495C267.406 232.653 267.204 232.732 266.97 232.732C266.724 232.732 266.519 232.653 266.354 232.495C266.19 232.331 266.108 232.085 266.108 231.757ZM273.896 242.972C274.153 242.972 274.402 242.954 274.643 242.919C274.883 242.878 275.073 242.837 275.214 242.796V243.912C275.056 243.988 274.821 244.05 274.511 244.097C274.206 244.149 273.931 244.176 273.685 244.176C271.821 244.176 270.89 243.194 270.89 241.231V235.501H269.51V234.798L270.89 234.191L271.505 232.135H272.349V234.367H275.144V235.501H272.349V241.17C272.349 241.75 272.486 242.195 272.762 242.506C273.037 242.816 273.415 242.972 273.896 242.972ZM275.618 234.367H277.183L279.292 239.86C279.755 241.114 280.042 242.02 280.153 242.576H280.224C280.3 242.277 280.458 241.768 280.698 241.047C280.944 240.32 281.741 238.094 283.089 234.367H284.653L280.514 245.336C280.104 246.42 279.623 247.188 279.072 247.639C278.527 248.096 277.856 248.324 277.06 248.324C276.614 248.324 276.175 248.274 275.741 248.175V247.006C276.063 247.076 276.424 247.111 276.822 247.111C277.824 247.111 278.539 246.549 278.967 245.424L279.503 244.053L275.618 234.367ZM303.172 244V237.733C303.172 236.966 303.008 236.392 302.68 236.011C302.352 235.624 301.842 235.431 301.15 235.431C300.242 235.431 299.571 235.691 299.138 236.213C298.704 236.734 298.487 237.537 298.487 238.621V244H297.028V237.733C297.028 236.966 296.864 236.392 296.536 236.011C296.208 235.624 295.695 235.431 294.998 235.431C294.084 235.431 293.413 235.706 292.985 236.257C292.563 236.802 292.353 237.698 292.353 238.946V244H290.894V234.367H292.08L292.317 235.686H292.388C292.663 235.217 293.05 234.851 293.548 234.587C294.052 234.323 294.614 234.191 295.235 234.191C296.741 234.191 297.726 234.736 298.188 235.826H298.259C298.546 235.322 298.962 234.924 299.507 234.631C300.052 234.338 300.673 234.191 301.37 234.191C302.46 234.191 303.274 234.473 303.813 235.035C304.358 235.592 304.631 236.485 304.631 237.716V244H303.172ZM311.715 244.176C310.291 244.176 309.166 243.742 308.34 242.875C307.52 242.008 307.109 240.804 307.109 239.263C307.109 237.71 307.49 236.477 308.252 235.562C309.02 234.648 310.048 234.191 311.337 234.191C312.544 234.191 313.499 234.59 314.202 235.387C314.905 236.178 315.257 237.224 315.257 238.524V239.447H308.621C308.65 240.578 308.935 241.437 309.474 242.022C310.019 242.608 310.783 242.901 311.768 242.901C312.805 242.901 313.83 242.685 314.844 242.251V243.552C314.328 243.774 313.839 243.933 313.376 244.026C312.919 244.126 312.365 244.176 311.715 244.176ZM311.319 235.413C310.546 235.413 309.928 235.665 309.465 236.169C309.008 236.673 308.738 237.37 308.656 238.261H313.692C313.692 237.341 313.487 236.638 313.077 236.151C312.667 235.659 312.081 235.413 311.319 235.413ZM323.677 244L323.387 242.629H323.316C322.836 243.232 322.355 243.643 321.875 243.859C321.4 244.07 320.806 244.176 320.091 244.176C319.136 244.176 318.386 243.93 317.841 243.438C317.302 242.945 317.032 242.245 317.032 241.337C317.032 239.392 318.588 238.372 321.699 238.278L323.334 238.226V237.628C323.334 236.872 323.17 236.315 322.842 235.958C322.52 235.595 322.001 235.413 321.286 235.413C320.483 235.413 319.575 235.659 318.562 236.151L318.113 235.035C318.588 234.777 319.106 234.575 319.669 234.429C320.237 234.282 320.806 234.209 321.374 234.209C322.522 234.209 323.372 234.464 323.923 234.974C324.479 235.483 324.758 236.301 324.758 237.426V244H323.677ZM320.381 242.972C321.289 242.972 322.001 242.723 322.517 242.225C323.038 241.727 323.299 241.029 323.299 240.133V239.263L321.84 239.324C320.68 239.365 319.842 239.547 319.326 239.869C318.816 240.186 318.562 240.681 318.562 241.354C318.562 241.882 318.72 242.283 319.036 242.559C319.358 242.834 319.807 242.972 320.381 242.972ZM333.986 241.372C333.986 242.269 333.652 242.96 332.984 243.446C332.316 243.933 331.379 244.176 330.172 244.176C328.895 244.176 327.898 243.974 327.184 243.569V242.216C327.646 242.45 328.142 242.635 328.669 242.77C329.202 242.904 329.715 242.972 330.207 242.972C330.969 242.972 331.555 242.852 331.965 242.611C332.375 242.365 332.58 241.993 332.58 241.495C332.58 241.12 332.416 240.801 332.088 240.537C331.766 240.268 331.133 239.951 330.189 239.588C329.293 239.254 328.654 238.964 328.273 238.718C327.898 238.466 327.617 238.182 327.43 237.865C327.248 237.549 327.157 237.171 327.157 236.731C327.157 235.946 327.477 235.328 328.115 234.877C328.754 234.42 329.63 234.191 330.743 234.191C331.78 234.191 332.794 234.402 333.784 234.824L333.266 236.011C332.299 235.612 331.423 235.413 330.638 235.413C329.946 235.413 329.425 235.521 329.073 235.738C328.722 235.955 328.546 236.254 328.546 236.635C328.546 236.893 328.61 237.112 328.739 237.294C328.874 237.476 329.088 237.648 329.381 237.812C329.674 237.977 330.236 238.214 331.068 238.524C332.211 238.94 332.981 239.359 333.38 239.781C333.784 240.203 333.986 240.733 333.986 241.372ZM337.739 234.367V240.616C337.739 241.401 337.918 241.987 338.275 242.374C338.633 242.761 339.192 242.954 339.954 242.954C340.962 242.954 341.697 242.679 342.16 242.128C342.629 241.577 342.863 240.678 342.863 239.43V234.367H344.322V244H343.118L342.907 242.708H342.828C342.529 243.183 342.113 243.546 341.58 243.798C341.053 244.05 340.449 244.176 339.77 244.176C338.598 244.176 337.719 243.897 337.133 243.341C336.553 242.784 336.263 241.894 336.263 240.669V234.367H337.739ZM351.819 234.191C352.247 234.191 352.631 234.227 352.971 234.297L352.769 235.65C352.37 235.562 352.019 235.519 351.714 235.519C350.935 235.519 350.267 235.835 349.71 236.468C349.159 237.101 348.884 237.889 348.884 238.832V244H347.425V234.367H348.629L348.796 236.151H348.866C349.224 235.524 349.654 235.041 350.158 234.701C350.662 234.361 351.216 234.191 351.819 234.191ZM358.842 244.176C357.418 244.176 356.293 243.742 355.467 242.875C354.646 242.008 354.236 240.804 354.236 239.263C354.236 237.71 354.617 236.477 355.379 235.562C356.146 234.648 357.175 234.191 358.464 234.191C359.671 234.191 360.626 234.59 361.329 235.387C362.032 236.178 362.384 237.224 362.384 238.524V239.447H355.748C355.777 240.578 356.062 241.437 356.601 242.022C357.146 242.608 357.91 242.901 358.895 242.901C359.932 242.901 360.957 242.685 361.971 242.251V243.552C361.455 243.774 360.966 243.933 360.503 244.026C360.046 244.126 359.492 244.176 358.842 244.176ZM358.446 235.413C357.673 235.413 357.055 235.665 356.592 236.169C356.135 236.673 355.865 237.37 355.783 238.261H360.819C360.819 237.341 360.614 236.638 360.204 236.151C359.794 235.659 359.208 235.413 358.446 235.413ZM371.094 241.372C371.094 242.269 370.76 242.96 370.092 243.446C369.424 243.933 368.486 244.176 367.279 244.176C366.002 244.176 365.006 243.974 364.291 243.569V242.216C364.754 242.45 365.249 242.635 365.776 242.77C366.31 242.904 366.822 242.972 367.314 242.972C368.076 242.972 368.662 242.852 369.072 242.611C369.482 242.365 369.688 241.993 369.688 241.495C369.688 241.12 369.523 240.801 369.195 240.537C368.873 240.268 368.24 239.951 367.297 239.588C366.4 239.254 365.762 238.964 365.381 238.718C365.006 238.466 364.725 238.182 364.537 237.865C364.355 237.549 364.265 237.171 364.265 236.731C364.265 235.946 364.584 235.328 365.223 234.877C365.861 234.42 366.737 234.191 367.851 234.191C368.888 234.191 369.901 234.402 370.892 234.824L370.373 236.011C369.406 235.612 368.53 235.413 367.745 235.413C367.054 235.413 366.532 235.521 366.181 235.738C365.829 235.955 365.653 236.254 365.653 236.635C365.653 236.893 365.718 237.112 365.847 237.294C365.981 237.476 366.195 237.648 366.488 237.812C366.781 237.977 367.344 238.214 368.176 238.524C369.318 238.94 370.089 239.359 370.487 239.781C370.892 240.203 371.094 240.733 371.094 241.372ZM373.265 243.068C373.265 242.676 373.353 242.38 373.528 242.181C373.71 241.976 373.968 241.873 374.302 241.873C374.642 241.873 374.905 241.976 375.093 242.181C375.286 242.38 375.383 242.676 375.383 243.068C375.383 243.449 375.286 243.742 375.093 243.947C374.899 244.152 374.636 244.255 374.302 244.255C374.003 244.255 373.754 244.164 373.555 243.982C373.361 243.795 373.265 243.49 373.265 243.068Z" fill="black"/>
<path d="M52.4997 82.2955C49.8997 82.007 47.3424 81.4155 44.8798 80.533C44.9548 78.763 44.9997 76.918 44.9997 74.998V74.398V72.4705C47.3247 73.5805 49.8522 74.353 52.4997 74.7355V56.248C52.4997 53.2643 53.685 50.4028 55.7948 48.293C57.9046 46.1833 60.7661 44.998 63.7497 44.998H82.2372C81.6391 40.8421 80.0529 36.8904 77.6116 33.4744C75.1703 30.0584 71.9452 27.2779 68.207 25.3662C64.4688 23.4545 60.3265 22.4674 56.1279 22.4877C51.9293 22.508 47.7968 23.5352 44.0772 25.483C43.484 23.03 42.507 20.6861 41.1823 18.538C46.0443 16.1112 51.4204 14.8943 56.8536 14.9907C62.2867 15.0871 67.6163 16.4939 72.3892 19.0917C77.162 21.6895 81.2371 25.4013 84.2678 29.9116C87.2986 34.4219 89.1955 39.5974 89.7972 44.998H101.25C104.233 44.998 107.095 46.1833 109.205 48.293C111.314 50.4028 112.5 53.2643 112.5 56.248V93.748C112.5 96.7317 111.314 99.5932 109.205 101.703C107.095 103.813 104.233 104.998 101.25 104.998H63.7497C60.7661 104.998 57.9046 103.813 55.7948 101.703C53.685 99.5932 52.4997 96.7317 52.4997 93.748V82.2955ZM89.7972 52.498C88.9451 60.1075 85.5318 67.2014 80.1175 72.6157C74.7031 78.0301 67.6092 81.4433 59.9997 82.2955V93.748C59.9997 94.7426 60.3948 95.6964 61.0981 96.3997C61.8014 97.1029 62.7552 97.498 63.7497 97.498H101.25C102.244 97.498 103.198 97.1029 103.901 96.3997C104.605 95.6964 105 94.7426 105 93.748V56.248C105 55.2534 104.605 54.2996 103.901 53.5964C103.198 52.8931 102.244 52.498 101.25 52.498H89.7972ZM82.2372 52.498H63.7497C62.7552 52.498 61.8014 52.8931 61.0981 53.5964C60.3948 54.2996 59.9997 55.2534 59.9997 56.248V74.7355C65.6096 73.9246 70.8066 71.3208 74.8146 67.3128C78.8225 63.3048 81.4264 58.1078 82.2372 52.498Z" fill="#0166A3"/>
<path d="M35.9625 56.7064C35.175 53.8114 33.9 50.9089 31.71 48.6814C35.25 45.3289 37.5 39.9889 37.5 33.7489C37.5 28.5214 36.4425 24.9289 34.53 22.0564C33.6814 20.821 32.7006 19.6817 31.605 18.6589C31.1851 18.2535 30.7601 17.8535 30.33 17.4589C29.8725 17.0314 29.4525 16.6414 28.905 16.0939C27.78 14.9689 27.6525 14.0689 27.6525 13.5964C27.6537 13.3338 27.6968 13.073 27.78 12.8239C28.1229 12.0824 28.2143 11.2491 28.0401 10.4509C27.866 9.65264 27.436 8.93311 26.8155 8.40169C26.1949 7.87027 25.4178 7.55605 24.6023 7.50682C23.7868 7.45758 22.9775 7.67602 22.2975 8.12892L22.2825 8.13642L22.26 8.15142L22.1925 8.19642L21.9675 8.34642C20.8425 9.14885 19.7586 10.0074 18.72 10.9189C16.845 12.5764 14.4 15.0289 12.6675 17.9539C11.1551 20.3789 9.94133 22.9777 9.0525 25.6939C8.1525 28.3864 7.5 31.3039 7.5 33.7489C7.5 39.9889 9.75 45.3214 13.29 48.6889C11.1 50.9089 9.825 53.8114 9.0375 56.7139C7.5 62.3539 7.5 69.3289 7.5 74.7214V74.9989C7.5 90.4339 10.3875 99.5989 13.6575 105.051C15.3 107.781 17.01 109.544 18.4425 110.654C19.2058 111.249 20.0365 111.753 20.9175 112.154C21.427 112.34 21.9593 112.456 22.5 112.499C23.13 112.499 24.0825 112.154 24.0825 112.154C24.9635 111.753 25.7942 111.249 26.5575 110.654C27.9825 109.544 29.7075 107.781 31.3425 105.051C34.6125 99.6064 37.5 90.4339 37.5 74.9989V74.7289C37.5 69.3289 37.5 62.3614 35.9625 56.7064ZM18.6525 53.9314C19.5 53.0764 20.6325 52.4989 22.5 52.4989C24.375 52.4989 25.5 53.0839 26.3475 53.9239C27.2925 54.8764 28.11 56.4214 28.725 58.6789C29.97 63.2614 30 69.2764 30 74.9989C30 89.5639 27.2625 97.2739 24.9075 101.196C24.0075 102.696 23.16 103.664 22.5 104.271C21.557 103.365 20.7465 102.329 20.0925 101.196C17.7375 97.2664 15 89.5639 15 74.9989C15 69.2764 15.03 63.2614 16.275 58.6789C16.89 56.4289 17.7075 54.8764 18.6525 53.9239V53.9314ZM22.5 44.9989C19.6125 44.9989 15 41.7889 15 33.7489C15 32.4514 15.39 30.3964 16.17 28.0714C16.8808 25.8764 17.8608 23.778 19.0875 21.8239C19.74 20.7214 20.5875 19.6489 21.5025 18.6664C22.02 19.5814 22.7025 20.5039 23.6025 21.4039C24.15 21.9514 24.8625 22.6114 25.47 23.1814L26.4 24.0514C27.1875 24.8164 27.795 25.4839 28.2825 26.2264C29.1825 27.5689 30 29.6014 30 33.7489C30 41.7889 25.3875 44.9989 22.5 44.9989Z" fill="#0166A3"/>
</svg>
