<svg width="465" height="299" viewBox="0 0 465 299" fill="none" xmlns="http://www.w3.org/2000/svg">
<rect x="5" y="65" width="416" height="180" rx="15" fill="#F0F8FC"/>
<rect x="5" y="65" width="460" height="234" rx="15" fill="#F0F8FC"/>
<path d="M193.262 129V111.867H196.062V129H193.262ZM211.227 129H208.461V121.008C208.461 120.016 208.273 119.277 207.898 118.793C207.523 118.301 206.938 118.055 206.141 118.055C205.078 118.055 204.297 118.402 203.797 119.098C203.305 119.785 203.059 120.934 203.059 122.543V129H200.305V116.039H202.461L202.848 117.738H202.988C203.348 117.121 203.867 116.645 204.547 116.309C205.234 115.973 205.988 115.805 206.809 115.805C208.801 115.805 210.121 116.484 210.77 117.844H210.957C211.34 117.203 211.879 116.703 212.574 116.344C213.27 115.984 214.066 115.805 214.965 115.805C216.512 115.805 217.637 116.195 218.34 116.977C219.051 117.758 219.406 118.949 219.406 120.551V129H216.652V121.008C216.652 120.016 216.461 119.277 216.078 118.793C215.703 118.301 215.117 118.055 214.32 118.055C213.25 118.055 212.465 118.391 211.965 119.062C211.473 119.727 211.227 120.75 211.227 122.133V129ZM229.824 129.234C228.184 129.234 226.91 128.645 226.004 127.465H225.84C225.949 128.559 226.004 129.223 226.004 129.457V134.766H223.25V116.039H225.477C225.539 116.281 225.668 116.859 225.863 117.773H226.004C226.863 116.461 228.152 115.805 229.871 115.805C231.488 115.805 232.746 116.391 233.645 117.562C234.551 118.734 235.004 120.379 235.004 122.496C235.004 124.613 234.543 126.266 233.621 127.453C232.707 128.641 231.441 129.234 229.824 129.234ZM229.156 118.055C228.062 118.055 227.262 118.375 226.754 119.016C226.254 119.656 226.004 120.68 226.004 122.086V122.496C226.004 124.074 226.254 125.219 226.754 125.93C227.254 126.633 228.07 126.984 229.203 126.984C230.156 126.984 230.891 126.594 231.406 125.812C231.922 125.031 232.18 123.918 232.18 122.473C232.18 121.02 231.922 119.922 231.406 119.18C230.898 118.43 230.148 118.055 229.156 118.055ZM240.957 129H238.203V110.766H240.957V129ZM250.566 129.234C248.551 129.234 246.973 128.648 245.832 127.477C244.699 126.297 244.133 124.676 244.133 122.613C244.133 120.496 244.66 118.832 245.715 117.621C246.77 116.41 248.219 115.805 250.062 115.805C251.773 115.805 253.125 116.324 254.117 117.363C255.109 118.402 255.605 119.832 255.605 121.652V123.141H246.969C247.008 124.398 247.348 125.367 247.988 126.047C248.629 126.719 249.531 127.055 250.695 127.055C251.461 127.055 252.172 126.984 252.828 126.844C253.492 126.695 254.203 126.453 254.961 126.117V128.355C254.289 128.676 253.609 128.902 252.922 129.035C252.234 129.168 251.449 129.234 250.566 129.234ZM250.062 117.891C249.188 117.891 248.484 118.168 247.953 118.723C247.43 119.277 247.117 120.086 247.016 121.148H252.898C252.883 120.078 252.625 119.27 252.125 118.723C251.625 118.168 250.938 117.891 250.062 117.891ZM269.656 129H266.891V121.008C266.891 120.016 266.703 119.277 266.328 118.793C265.953 118.301 265.367 118.055 264.57 118.055C263.508 118.055 262.727 118.402 262.227 119.098C261.734 119.785 261.488 120.934 261.488 122.543V129H258.734V116.039H260.891L261.277 117.738H261.418C261.777 117.121 262.297 116.645 262.977 116.309C263.664 115.973 264.418 115.805 265.238 115.805C267.23 115.805 268.551 116.484 269.199 117.844H269.387C269.77 117.203 270.309 116.703 271.004 116.344C271.699 115.984 272.496 115.805 273.395 115.805C274.941 115.805 276.066 116.195 276.77 116.977C277.48 117.758 277.836 118.949 277.836 120.551V129H275.082V121.008C275.082 120.016 274.891 119.277 274.508 118.793C274.133 118.301 273.547 118.055 272.75 118.055C271.68 118.055 270.895 118.391 270.395 119.062C269.902 119.727 269.656 120.75 269.656 122.133V129ZM287.34 129.234C285.324 129.234 283.746 128.648 282.605 127.477C281.473 126.297 280.906 124.676 280.906 122.613C280.906 120.496 281.434 118.832 282.488 117.621C283.543 116.41 284.992 115.805 286.836 115.805C288.547 115.805 289.898 116.324 290.891 117.363C291.883 118.402 292.379 119.832 292.379 121.652V123.141H283.742C283.781 124.398 284.121 125.367 284.762 126.047C285.402 126.719 286.305 127.055 287.469 127.055C288.234 127.055 288.945 126.984 289.602 126.844C290.266 126.695 290.977 126.453 291.734 126.117V128.355C291.062 128.676 290.383 128.902 289.695 129.035C289.008 129.168 288.223 129.234 287.34 129.234ZM286.836 117.891C285.961 117.891 285.258 118.168 284.727 118.723C284.203 119.277 283.891 120.086 283.789 121.148H289.672C289.656 120.078 289.398 119.27 288.898 118.723C288.398 118.168 287.711 117.891 286.836 117.891ZM306.91 129H304.145V121.031C304.145 120.031 303.941 119.285 303.535 118.793C303.137 118.301 302.5 118.055 301.625 118.055C300.461 118.055 299.609 118.398 299.07 119.086C298.531 119.773 298.262 120.926 298.262 122.543V129H295.508V116.039H297.664L298.051 117.738H298.191C298.582 117.121 299.137 116.645 299.855 116.309C300.574 115.973 301.371 115.805 302.246 115.805C305.355 115.805 306.91 117.387 306.91 120.551V129ZM315.57 127.008C316.242 127.008 316.914 126.902 317.586 126.691V128.766C317.281 128.898 316.887 129.008 316.402 129.094C315.926 129.188 315.43 129.234 314.914 129.234C312.305 129.234 311 127.859 311 125.109V118.125H309.23V116.906L311.129 115.898L312.066 113.156H313.766V116.039H317.457V118.125H313.766V125.062C313.766 125.727 313.93 126.219 314.258 126.539C314.594 126.852 315.031 127.008 315.57 127.008Z" fill="black"/>
<path d="M117.592 168H116.115L113.522 159.396C113.399 159.015 113.262 158.534 113.109 157.954C112.957 157.374 112.878 157.025 112.872 156.908C112.743 157.682 112.538 158.528 112.257 159.448L109.743 168H108.267L104.848 155.15H106.43L108.46 163.087C108.741 164.2 108.946 165.208 109.075 166.11C109.233 165.038 109.468 163.989 109.778 162.964L112.081 155.15H113.663L116.08 163.034C116.361 163.942 116.599 164.968 116.792 166.11C116.903 165.278 117.114 164.265 117.425 163.069L119.446 155.15H121.028L117.592 168ZM126.891 168.176C125.467 168.176 124.342 167.742 123.516 166.875C122.695 166.008 122.285 164.804 122.285 163.263C122.285 161.71 122.666 160.477 123.428 159.562C124.195 158.648 125.224 158.191 126.513 158.191C127.72 158.191 128.675 158.59 129.378 159.387C130.081 160.178 130.433 161.224 130.433 162.524V163.447H123.797C123.826 164.578 124.11 165.437 124.649 166.022C125.194 166.608 125.959 166.901 126.943 166.901C127.98 166.901 129.006 166.685 130.02 166.251V167.552C129.504 167.774 129.015 167.933 128.552 168.026C128.095 168.126 127.541 168.176 126.891 168.176ZM126.495 159.413C125.722 159.413 125.104 159.665 124.641 160.169C124.184 160.673 123.914 161.37 123.832 162.261H128.868C128.868 161.341 128.663 160.638 128.253 160.151C127.843 159.659 127.257 159.413 126.495 159.413ZM145.471 168L143.704 162.349C143.593 162.003 143.385 161.218 143.08 159.993H143.01C142.775 161.019 142.57 161.81 142.395 162.366L140.575 168H138.888L136.26 158.367H137.789C138.41 160.787 138.882 162.63 139.204 163.896C139.532 165.161 139.72 166.014 139.767 166.453H139.837C139.901 166.119 140.004 165.688 140.145 165.161C140.291 164.628 140.417 164.206 140.522 163.896L142.289 158.367H143.871L145.594 163.896C145.922 164.903 146.145 165.75 146.262 166.436H146.332C146.355 166.225 146.417 165.899 146.517 165.46C146.622 165.021 147.234 162.656 148.354 158.367H149.865L147.202 168H145.471ZM153.073 168H151.614V158.367H153.073V168ZM151.491 155.757C151.491 155.423 151.573 155.18 151.737 155.027C151.901 154.869 152.106 154.79 152.353 154.79C152.587 154.79 152.789 154.869 152.959 155.027C153.129 155.186 153.214 155.429 153.214 155.757C153.214 156.085 153.129 156.331 152.959 156.495C152.789 156.653 152.587 156.732 152.353 156.732C152.106 156.732 151.901 156.653 151.737 156.495C151.573 156.331 151.491 156.085 151.491 155.757ZM157.626 168H156.167V154.324H157.626V168ZM162.179 168H160.72V154.324H162.179V168ZM176.162 165.372C176.162 166.269 175.828 166.96 175.16 167.446C174.492 167.933 173.555 168.176 172.348 168.176C171.07 168.176 170.074 167.974 169.359 167.569V166.216C169.822 166.45 170.317 166.635 170.845 166.77C171.378 166.904 171.891 166.972 172.383 166.972C173.145 166.972 173.73 166.852 174.141 166.611C174.551 166.365 174.756 165.993 174.756 165.495C174.756 165.12 174.592 164.801 174.264 164.537C173.941 164.268 173.309 163.951 172.365 163.588C171.469 163.254 170.83 162.964 170.449 162.718C170.074 162.466 169.793 162.182 169.605 161.865C169.424 161.549 169.333 161.171 169.333 160.731C169.333 159.946 169.652 159.328 170.291 158.877C170.93 158.42 171.806 158.191 172.919 158.191C173.956 158.191 174.97 158.402 175.96 158.824L175.441 160.011C174.475 159.612 173.599 159.413 172.813 159.413C172.122 159.413 171.601 159.521 171.249 159.738C170.897 159.955 170.722 160.254 170.722 160.635C170.722 160.893 170.786 161.112 170.915 161.294C171.05 161.476 171.264 161.648 171.557 161.812C171.85 161.977 172.412 162.214 173.244 162.524C174.387 162.94 175.157 163.359 175.556 163.781C175.96 164.203 176.162 164.733 176.162 165.372ZM182.613 168.176C181.189 168.176 180.064 167.742 179.238 166.875C178.418 166.008 178.008 164.804 178.008 163.263C178.008 161.71 178.389 160.477 179.15 159.562C179.918 158.648 180.946 158.191 182.235 158.191C183.442 158.191 184.397 158.59 185.101 159.387C185.804 160.178 186.155 161.224 186.155 162.524V163.447H179.52C179.549 164.578 179.833 165.437 180.372 166.022C180.917 166.608 181.682 166.901 182.666 166.901C183.703 166.901 184.729 166.685 185.742 166.251V167.552C185.227 167.774 184.737 167.933 184.274 168.026C183.817 168.126 183.264 168.176 182.613 168.176ZM182.218 159.413C181.444 159.413 180.826 159.665 180.363 160.169C179.906 160.673 179.637 161.37 179.555 162.261H184.591C184.591 161.341 184.386 160.638 183.976 160.151C183.565 159.659 182.979 159.413 182.218 159.413ZM190.11 168H188.651V154.324H190.11V168ZM197.273 168.176C195.85 168.176 194.725 167.742 193.898 166.875C193.078 166.008 192.668 164.804 192.668 163.263C192.668 161.71 193.049 160.477 193.811 159.562C194.578 158.648 195.606 158.191 196.896 158.191C198.103 158.191 199.058 158.59 199.761 159.387C200.464 160.178 200.815 161.224 200.815 162.524V163.447H194.18C194.209 164.578 194.493 165.437 195.032 166.022C195.577 166.608 196.342 166.901 197.326 166.901C198.363 166.901 199.389 166.685 200.402 166.251V167.552C199.887 167.774 199.397 167.933 198.935 168.026C198.478 168.126 197.924 168.176 197.273 168.176ZM196.878 159.413C196.104 159.413 195.486 159.665 195.023 160.169C194.566 160.673 194.297 161.37 194.215 162.261H199.251C199.251 161.341 199.046 160.638 198.636 160.151C198.226 159.659 197.64 159.413 196.878 159.413ZM207.161 168.176C205.767 168.176 204.686 167.748 203.918 166.893C203.156 166.031 202.775 164.815 202.775 163.245C202.775 161.634 203.162 160.389 203.936 159.51C204.715 158.631 205.822 158.191 207.258 158.191C207.721 158.191 208.184 158.241 208.646 158.341C209.109 158.44 209.473 158.558 209.736 158.692L209.288 159.932C208.966 159.803 208.614 159.697 208.233 159.615C207.853 159.527 207.516 159.483 207.223 159.483C205.266 159.483 204.287 160.731 204.287 163.228C204.287 164.411 204.524 165.319 204.999 165.952C205.479 166.585 206.188 166.901 207.126 166.901C207.929 166.901 208.752 166.729 209.596 166.383V167.675C208.951 168.009 208.14 168.176 207.161 168.176ZM215.001 166.972C215.259 166.972 215.508 166.954 215.748 166.919C215.988 166.878 216.179 166.837 216.319 166.796V167.912C216.161 167.988 215.927 168.05 215.616 168.097C215.312 168.149 215.036 168.176 214.79 168.176C212.927 168.176 211.995 167.194 211.995 165.231V159.501H210.615V158.798L211.995 158.191L212.61 156.135H213.454V158.367H216.249V159.501H213.454V165.17C213.454 165.75 213.592 166.195 213.867 166.506C214.143 166.816 214.521 166.972 215.001 166.972ZM228.853 168L228.562 166.629H228.492C228.012 167.232 227.531 167.643 227.051 167.859C226.576 168.07 225.981 168.176 225.267 168.176C224.312 168.176 223.562 167.93 223.017 167.438C222.478 166.945 222.208 166.245 222.208 165.337C222.208 163.392 223.764 162.372 226.875 162.278L228.51 162.226V161.628C228.51 160.872 228.346 160.315 228.018 159.958C227.695 159.595 227.177 159.413 226.462 159.413C225.659 159.413 224.751 159.659 223.737 160.151L223.289 159.035C223.764 158.777 224.282 158.575 224.845 158.429C225.413 158.282 225.981 158.209 226.55 158.209C227.698 158.209 228.548 158.464 229.099 158.974C229.655 159.483 229.934 160.301 229.934 161.426V168H228.853ZM225.557 166.972C226.465 166.972 227.177 166.723 227.692 166.225C228.214 165.727 228.475 165.029 228.475 164.133V163.263L227.016 163.324C225.855 163.365 225.018 163.547 224.502 163.869C223.992 164.186 223.737 164.681 223.737 165.354C223.737 165.882 223.896 166.283 224.212 166.559C224.534 166.834 224.982 166.972 225.557 166.972ZM239.54 168V161.769C239.54 160.983 239.361 160.397 239.004 160.011C238.646 159.624 238.087 159.431 237.325 159.431C236.317 159.431 235.579 159.703 235.11 160.248C234.642 160.793 234.407 161.692 234.407 162.946V168H232.948V158.367H234.135L234.372 159.686H234.442C234.741 159.211 235.16 158.845 235.699 158.587C236.238 158.323 236.839 158.191 237.501 158.191C238.661 158.191 239.534 158.473 240.12 159.035C240.706 159.592 240.999 160.485 240.999 161.716V168H239.54ZM250.562 166.708H250.482C249.809 167.687 248.801 168.176 247.459 168.176C246.199 168.176 245.218 167.745 244.515 166.884C243.817 166.022 243.469 164.798 243.469 163.21C243.469 161.622 243.82 160.389 244.523 159.51C245.227 158.631 246.205 158.191 247.459 158.191C248.766 158.191 249.768 158.666 250.465 159.615H250.579L250.518 158.921L250.482 158.244V154.324H251.941V168H250.755L250.562 166.708ZM247.644 166.954C248.64 166.954 249.36 166.685 249.806 166.146C250.257 165.601 250.482 164.725 250.482 163.518V163.21C250.482 161.845 250.254 160.872 249.797 160.292C249.346 159.706 248.622 159.413 247.626 159.413C246.771 159.413 246.114 159.747 245.657 160.415C245.206 161.077 244.98 162.015 244.98 163.228C244.98 164.458 245.206 165.387 245.657 166.014C246.108 166.641 246.771 166.954 247.644 166.954ZM261.179 168H259.72V158.367H261.179V168ZM259.597 155.757C259.597 155.423 259.679 155.18 259.843 155.027C260.007 154.869 260.212 154.79 260.458 154.79C260.692 154.79 260.895 154.869 261.064 155.027C261.234 155.186 261.319 155.429 261.319 155.757C261.319 156.085 261.234 156.331 261.064 156.495C260.895 156.653 260.692 156.732 260.458 156.732C260.212 156.732 260.007 156.653 259.843 156.495C259.679 156.331 259.597 156.085 259.597 155.757ZM276.551 168V161.733C276.551 160.966 276.387 160.392 276.059 160.011C275.73 159.624 275.221 159.431 274.529 159.431C273.621 159.431 272.95 159.691 272.517 160.213C272.083 160.734 271.866 161.537 271.866 162.621V168H270.407V161.733C270.407 160.966 270.243 160.392 269.915 160.011C269.587 159.624 269.074 159.431 268.377 159.431C267.463 159.431 266.792 159.706 266.364 160.257C265.942 160.802 265.731 161.698 265.731 162.946V168H264.272V158.367H265.459L265.696 159.686H265.767C266.042 159.217 266.429 158.851 266.927 158.587C267.431 158.323 267.993 158.191 268.614 158.191C270.12 158.191 271.104 158.736 271.567 159.826H271.638C271.925 159.322 272.341 158.924 272.886 158.631C273.431 158.338 274.052 158.191 274.749 158.191C275.839 158.191 276.653 158.473 277.192 159.035C277.737 159.592 278.01 160.485 278.01 161.716V168H276.551ZM285.507 168.176C284.88 168.176 284.306 168.062 283.784 167.833C283.269 167.599 282.835 167.241 282.483 166.761H282.378C282.448 167.323 282.483 167.856 282.483 168.36V172.324H281.024V158.367H282.211L282.413 159.686H282.483C282.858 159.158 283.295 158.777 283.793 158.543C284.291 158.309 284.862 158.191 285.507 158.191C286.784 158.191 287.769 158.628 288.46 159.501C289.157 160.374 289.506 161.599 289.506 163.175C289.506 164.757 289.151 165.987 288.442 166.866C287.739 167.739 286.761 168.176 285.507 168.176ZM285.296 159.431C284.312 159.431 283.6 159.703 283.16 160.248C282.721 160.793 282.495 161.66 282.483 162.85V163.175C282.483 164.528 282.709 165.498 283.16 166.084C283.611 166.664 284.335 166.954 285.331 166.954C286.163 166.954 286.813 166.617 287.282 165.943C287.757 165.27 287.994 164.341 287.994 163.157C287.994 161.956 287.757 161.036 287.282 160.397C286.813 159.753 286.151 159.431 285.296 159.431ZM293.522 168H292.063V154.324H293.522V168ZM300.686 168.176C299.262 168.176 298.137 167.742 297.311 166.875C296.49 166.008 296.08 164.804 296.08 163.263C296.08 161.71 296.461 160.477 297.223 159.562C297.99 158.648 299.019 158.191 300.308 158.191C301.515 158.191 302.47 158.59 303.173 159.387C303.876 160.178 304.228 161.224 304.228 162.524V163.447H297.592C297.621 164.578 297.905 165.437 298.444 166.022C298.989 166.608 299.754 166.901 300.738 166.901C301.775 166.901 302.801 166.685 303.814 166.251V167.552C303.299 167.774 302.81 167.933 302.347 168.026C301.89 168.126 301.336 168.176 300.686 168.176ZM300.29 159.413C299.517 159.413 298.898 159.665 298.436 160.169C297.979 160.673 297.709 161.37 297.627 162.261H302.663C302.663 161.341 302.458 160.638 302.048 160.151C301.638 159.659 301.052 159.413 300.29 159.413ZM319.002 168V161.733C319.002 160.966 318.838 160.392 318.51 160.011C318.182 159.624 317.672 159.431 316.98 159.431C316.072 159.431 315.401 159.691 314.968 160.213C314.534 160.734 314.317 161.537 314.317 162.621V168H312.858V161.733C312.858 160.966 312.694 160.392 312.366 160.011C312.038 159.624 311.525 159.431 310.828 159.431C309.914 159.431 309.243 159.706 308.815 160.257C308.394 160.802 308.183 161.698 308.183 162.946V168H306.724V158.367H307.91L308.147 159.686H308.218C308.493 159.217 308.88 158.851 309.378 158.587C309.882 158.323 310.444 158.191 311.065 158.191C312.571 158.191 313.556 158.736 314.019 159.826H314.089C314.376 159.322 314.792 158.924 315.337 158.631C315.882 158.338 316.503 158.191 317.2 158.191C318.29 158.191 319.104 158.473 319.644 159.035C320.188 159.592 320.461 160.485 320.461 161.716V168H319.002ZM327.545 168.176C326.121 168.176 324.996 167.742 324.17 166.875C323.35 166.008 322.939 164.804 322.939 163.263C322.939 161.71 323.32 160.477 324.082 159.562C324.85 158.648 325.878 158.191 327.167 158.191C328.374 158.191 329.329 158.59 330.032 159.387C330.735 160.178 331.087 161.224 331.087 162.524V163.447H324.451C324.48 164.578 324.765 165.437 325.304 166.022C325.849 166.608 326.613 166.901 327.598 166.901C328.635 166.901 329.66 166.685 330.674 166.251V167.552C330.158 167.774 329.669 167.933 329.206 168.026C328.749 168.126 328.195 168.176 327.545 168.176ZM327.149 159.413C326.376 159.413 325.758 159.665 325.295 160.169C324.838 160.673 324.568 161.37 324.486 162.261H329.522C329.522 161.341 329.317 160.638 328.907 160.151C328.497 159.659 327.911 159.413 327.149 159.413ZM340.175 168V161.769C340.175 160.983 339.996 160.397 339.639 160.011C339.281 159.624 338.722 159.431 337.96 159.431C336.952 159.431 336.214 159.703 335.745 160.248C335.276 160.793 335.042 161.692 335.042 162.946V168H333.583V158.367H334.77L335.007 159.686H335.077C335.376 159.211 335.795 158.845 336.334 158.587C336.873 158.323 337.474 158.191 338.136 158.191C339.296 158.191 340.169 158.473 340.755 159.035C341.341 159.592 341.634 160.485 341.634 161.716V168H340.175ZM347.751 166.972C348.009 166.972 348.258 166.954 348.498 166.919C348.738 166.878 348.929 166.837 349.069 166.796V167.912C348.911 167.988 348.677 168.05 348.366 168.097C348.062 168.149 347.786 168.176 347.54 168.176C345.677 168.176 344.745 167.194 344.745 165.231V159.501H343.365V158.798L344.745 158.191L345.36 156.135H346.204V158.367H348.999V159.501H346.204V165.17C346.204 165.75 346.342 166.195 346.617 166.506C346.893 166.816 347.271 166.972 347.751 166.972ZM358.79 166.972C359.048 166.972 359.297 166.954 359.537 166.919C359.777 166.878 359.968 166.837 360.108 166.796V167.912C359.95 167.988 359.716 168.05 359.405 168.097C359.101 168.149 358.825 168.176 358.579 168.176C356.716 168.176 355.784 167.194 355.784 165.231V159.501H354.404V158.798L355.784 158.191L356.399 156.135H357.243V158.367H360.038V159.501H357.243V165.17C357.243 165.75 357.381 166.195 357.656 166.506C357.932 166.816 358.31 166.972 358.79 166.972ZM368.634 168V161.769C368.634 160.983 368.455 160.397 368.098 160.011C367.74 159.624 367.181 159.431 366.419 159.431C365.405 159.431 364.664 159.706 364.195 160.257C363.732 160.808 363.501 161.71 363.501 162.964V168H362.042V154.324H363.501V158.464C363.501 158.962 363.478 159.375 363.431 159.703H363.519C363.806 159.24 364.213 158.877 364.74 158.613C365.273 158.344 365.88 158.209 366.56 158.209C367.737 158.209 368.619 158.49 369.205 159.053C369.797 159.609 370.093 160.497 370.093 161.716V168H368.634ZM377.493 158.191C377.921 158.191 378.305 158.227 378.645 158.297L378.442 159.65C378.044 159.562 377.692 159.519 377.388 159.519C376.608 159.519 375.94 159.835 375.384 160.468C374.833 161.101 374.558 161.889 374.558 162.832V168H373.099V158.367H374.303L374.47 160.151H374.54C374.897 159.524 375.328 159.041 375.832 158.701C376.336 158.361 376.89 158.191 377.493 158.191ZM384.516 168.176C383.092 168.176 381.967 167.742 381.141 166.875C380.32 166.008 379.91 164.804 379.91 163.263C379.91 161.71 380.291 160.477 381.053 159.562C381.82 158.648 382.849 158.191 384.138 158.191C385.345 158.191 386.3 158.59 387.003 159.387C387.706 160.178 388.058 161.224 388.058 162.524V163.447H381.422C381.451 164.578 381.735 165.437 382.274 166.022C382.819 166.608 383.584 166.901 384.568 166.901C385.605 166.901 386.631 166.685 387.645 166.251V167.552C387.129 167.774 386.64 167.933 386.177 168.026C385.72 168.126 385.166 168.176 384.516 168.176ZM384.12 159.413C383.347 159.413 382.729 159.665 382.266 160.169C381.809 160.673 381.539 161.37 381.457 162.261H386.493C386.493 161.341 386.288 160.638 385.878 160.151C385.468 159.659 384.882 159.413 384.12 159.413ZM396.478 168L396.188 166.629H396.117C395.637 167.232 395.156 167.643 394.676 167.859C394.201 168.07 393.606 168.176 392.892 168.176C391.937 168.176 391.187 167.93 390.642 167.438C390.103 166.945 389.833 166.245 389.833 165.337C389.833 163.392 391.389 162.372 394.5 162.278L396.135 162.226V161.628C396.135 160.872 395.971 160.315 395.643 159.958C395.32 159.595 394.802 159.413 394.087 159.413C393.284 159.413 392.376 159.659 391.362 160.151L390.914 159.035C391.389 158.777 391.907 158.575 392.47 158.429C393.038 158.282 393.606 158.209 394.175 158.209C395.323 158.209 396.173 158.464 396.724 158.974C397.28 159.483 397.559 160.301 397.559 161.426V168H396.478ZM393.182 166.972C394.09 166.972 394.802 166.723 395.317 166.225C395.839 165.727 396.1 165.029 396.1 164.133V163.263L394.641 163.324C393.48 163.365 392.643 163.547 392.127 163.869C391.617 164.186 391.362 164.681 391.362 165.354C391.362 165.882 391.521 166.283 391.837 166.559C392.159 166.834 392.607 166.972 393.182 166.972ZM403.685 166.972C403.942 166.972 404.191 166.954 404.432 166.919C404.672 166.878 404.862 166.837 405.003 166.796V167.912C404.845 167.988 404.61 168.05 404.3 168.097C403.995 168.149 403.72 168.176 403.474 168.176C401.61 168.176 400.679 167.194 400.679 165.231V159.501H399.299V158.798L400.679 158.191L401.294 156.135H402.138V158.367H404.933V159.501H402.138V165.17C402.138 165.75 402.275 166.195 402.551 166.506C402.826 166.816 403.204 166.972 403.685 166.972ZM103.942 191.708H103.863C103.189 192.687 102.182 193.176 100.84 193.176C99.5801 193.176 98.5986 192.745 97.8955 191.884C97.1982 191.022 96.8496 189.798 96.8496 188.21C96.8496 186.622 97.2012 185.389 97.9043 184.51C98.6074 183.631 99.5859 183.191 100.84 183.191C102.146 183.191 103.148 183.666 103.846 184.615H103.96L103.898 183.921L103.863 183.244V179.324H105.322V193H104.136L103.942 191.708ZM101.024 191.954C102.021 191.954 102.741 191.685 103.187 191.146C103.638 190.601 103.863 189.725 103.863 188.518V188.21C103.863 186.845 103.635 185.872 103.178 185.292C102.727 184.706 102.003 184.413 101.007 184.413C100.151 184.413 99.4951 184.747 99.0381 185.415C98.5869 186.077 98.3613 187.015 98.3613 188.228C98.3613 189.458 98.5869 190.387 99.0381 191.014C99.4893 191.641 100.151 191.954 101.024 191.954ZM112.494 193.176C111.07 193.176 109.945 192.742 109.119 191.875C108.299 191.008 107.889 189.804 107.889 188.263C107.889 186.71 108.27 185.477 109.031 184.562C109.799 183.648 110.827 183.191 112.116 183.191C113.323 183.191 114.278 183.59 114.981 184.387C115.685 185.178 116.036 186.224 116.036 187.524V188.447H109.4C109.43 189.578 109.714 190.437 110.253 191.022C110.798 191.608 111.562 191.901 112.547 191.901C113.584 191.901 114.609 191.685 115.623 191.251V192.552C115.107 192.774 114.618 192.933 114.155 193.026C113.698 193.126 113.145 193.176 112.494 193.176ZM112.099 184.413C111.325 184.413 110.707 184.665 110.244 185.169C109.787 185.673 109.518 186.37 109.436 187.261H114.472C114.472 186.341 114.267 185.638 113.856 185.151C113.446 184.659 112.86 184.413 112.099 184.413ZM121.644 191.972C121.901 191.972 122.15 191.954 122.391 191.919C122.631 191.878 122.821 191.837 122.962 191.796V192.912C122.804 192.988 122.569 193.05 122.259 193.097C121.954 193.149 121.679 193.176 121.433 193.176C119.569 193.176 118.638 192.194 118.638 190.231V184.501H117.258V183.798L118.638 183.191L119.253 181.135H120.097V183.367H122.892V184.501H120.097V190.17C120.097 190.75 120.234 191.195 120.51 191.506C120.785 191.816 121.163 191.972 121.644 191.972ZM128.965 193.176C127.541 193.176 126.416 192.742 125.59 191.875C124.77 191.008 124.359 189.804 124.359 188.263C124.359 186.71 124.74 185.477 125.502 184.562C126.27 183.648 127.298 183.191 128.587 183.191C129.794 183.191 130.749 183.59 131.452 184.387C132.155 185.178 132.507 186.224 132.507 187.524V188.447H125.871C125.9 189.578 126.185 190.437 126.724 191.022C127.269 191.608 128.033 191.901 129.018 191.901C130.055 191.901 131.08 191.685 132.094 191.251V192.552C131.578 192.774 131.089 192.933 130.626 193.026C130.169 193.126 129.615 193.176 128.965 193.176ZM128.569 184.413C127.796 184.413 127.178 184.665 126.715 185.169C126.258 185.673 125.988 186.37 125.906 187.261H130.942C130.942 186.341 130.737 185.638 130.327 185.151C129.917 184.659 129.331 184.413 128.569 184.413ZM138.853 193.176C137.458 193.176 136.377 192.748 135.609 191.893C134.848 191.031 134.467 189.815 134.467 188.245C134.467 186.634 134.854 185.389 135.627 184.51C136.406 183.631 137.514 183.191 138.949 183.191C139.412 183.191 139.875 183.241 140.338 183.341C140.801 183.44 141.164 183.558 141.428 183.692L140.979 184.932C140.657 184.803 140.306 184.697 139.925 184.615C139.544 184.527 139.207 184.483 138.914 184.483C136.957 184.483 135.979 185.731 135.979 188.228C135.979 189.411 136.216 190.319 136.69 190.952C137.171 191.585 137.88 191.901 138.817 191.901C139.62 191.901 140.443 191.729 141.287 191.383V192.675C140.643 193.009 139.831 193.176 138.853 193.176ZM146.692 191.972C146.95 191.972 147.199 191.954 147.439 191.919C147.68 191.878 147.87 191.837 148.011 191.796V192.912C147.853 192.988 147.618 193.05 147.308 193.097C147.003 193.149 146.728 193.176 146.481 193.176C144.618 193.176 143.687 192.194 143.687 190.231V184.501H142.307V183.798L143.687 183.191L144.302 181.135H145.146V183.367H147.94V184.501H145.146V190.17C145.146 190.75 145.283 191.195 145.559 191.506C145.834 191.816 146.212 191.972 146.692 191.972ZM151.403 193H149.944V183.367H151.403V193ZM149.821 180.757C149.821 180.423 149.903 180.18 150.067 180.027C150.231 179.869 150.437 179.79 150.683 179.79C150.917 179.79 151.119 179.869 151.289 180.027C151.459 180.186 151.544 180.429 151.544 180.757C151.544 181.085 151.459 181.331 151.289 181.495C151.119 181.653 150.917 181.732 150.683 181.732C150.437 181.732 150.231 181.653 150.067 181.495C149.903 181.331 149.821 181.085 149.821 180.757ZM162.812 188.175C162.812 189.745 162.416 190.973 161.625 191.857C160.834 192.736 159.741 193.176 158.347 193.176C157.485 193.176 156.721 192.974 156.053 192.569C155.385 192.165 154.869 191.585 154.506 190.829C154.143 190.073 153.961 189.188 153.961 188.175C153.961 186.604 154.354 185.383 155.139 184.51C155.924 183.631 157.014 183.191 158.408 183.191C159.756 183.191 160.825 183.64 161.616 184.536C162.413 185.433 162.812 186.646 162.812 188.175ZM155.473 188.175C155.473 189.405 155.719 190.343 156.211 190.987C156.703 191.632 157.427 191.954 158.382 191.954C159.337 191.954 160.061 191.635 160.553 190.996C161.051 190.352 161.3 189.411 161.3 188.175C161.3 186.95 161.051 186.021 160.553 185.389C160.061 184.75 159.331 184.431 158.364 184.431C157.409 184.431 156.688 184.744 156.202 185.371C155.716 185.998 155.473 186.933 155.473 188.175ZM171.97 193V186.769C171.97 185.983 171.791 185.397 171.434 185.011C171.076 184.624 170.517 184.431 169.755 184.431C168.747 184.431 168.009 184.703 167.54 185.248C167.071 185.793 166.837 186.692 166.837 187.946V193H165.378V183.367H166.564L166.802 184.686H166.872C167.171 184.211 167.59 183.845 168.129 183.587C168.668 183.323 169.269 183.191 169.931 183.191C171.091 183.191 171.964 183.473 172.55 184.035C173.136 184.592 173.429 185.485 173.429 186.716V193H171.97ZM187.034 193L186.744 191.629H186.674C186.193 192.232 185.713 192.643 185.232 192.859C184.758 193.07 184.163 193.176 183.448 193.176C182.493 193.176 181.743 192.93 181.198 192.438C180.659 191.945 180.39 191.245 180.39 190.337C180.39 188.392 181.945 187.372 185.057 187.278L186.691 187.226V186.628C186.691 185.872 186.527 185.315 186.199 184.958C185.877 184.595 185.358 184.413 184.644 184.413C183.841 184.413 182.933 184.659 181.919 185.151L181.471 184.035C181.945 183.777 182.464 183.575 183.026 183.429C183.595 183.282 184.163 183.209 184.731 183.209C185.88 183.209 186.729 183.464 187.28 183.974C187.837 184.483 188.115 185.301 188.115 186.426V193H187.034ZM183.738 191.972C184.646 191.972 185.358 191.723 185.874 191.225C186.396 190.727 186.656 190.029 186.656 189.133V188.263L185.197 188.324C184.037 188.365 183.199 188.547 182.684 188.869C182.174 189.186 181.919 189.681 181.919 190.354C181.919 190.882 182.077 191.283 182.394 191.559C182.716 191.834 183.164 191.972 183.738 191.972ZM197.722 193V186.769C197.722 185.983 197.543 185.397 197.186 185.011C196.828 184.624 196.269 184.431 195.507 184.431C194.499 184.431 193.761 184.703 193.292 185.248C192.823 185.793 192.589 186.692 192.589 187.946V193H191.13V183.367H192.316L192.554 184.686H192.624C192.923 184.211 193.342 183.845 193.881 183.587C194.42 183.323 195.021 183.191 195.683 183.191C196.843 183.191 197.716 183.473 198.302 184.035C198.888 184.592 199.181 185.485 199.181 186.716V193H197.722ZM208.743 191.708H208.664C207.99 192.687 206.982 193.176 205.641 193.176C204.381 193.176 203.399 192.745 202.696 191.884C201.999 191.022 201.65 189.798 201.65 188.21C201.65 186.622 202.002 185.389 202.705 184.51C203.408 183.631 204.387 183.191 205.641 183.191C206.947 183.191 207.949 183.666 208.646 184.615H208.761L208.699 183.921L208.664 183.244V179.324H210.123V193H208.937L208.743 191.708ZM205.825 191.954C206.821 191.954 207.542 191.685 207.987 191.146C208.438 190.601 208.664 189.725 208.664 188.518V188.21C208.664 186.845 208.436 185.872 207.979 185.292C207.527 184.706 206.804 184.413 205.808 184.413C204.952 184.413 204.296 184.747 203.839 185.415C203.388 186.077 203.162 187.015 203.162 188.228C203.162 189.458 203.388 190.387 203.839 191.014C204.29 191.641 204.952 191.954 205.825 191.954ZM230.18 193V186.733C230.18 185.966 230.016 185.392 229.688 185.011C229.359 184.624 228.85 184.431 228.158 184.431C227.25 184.431 226.579 184.691 226.146 185.213C225.712 185.734 225.495 186.537 225.495 187.621V193H224.036V186.733C224.036 185.966 223.872 185.392 223.544 185.011C223.216 184.624 222.703 184.431 222.006 184.431C221.092 184.431 220.421 184.706 219.993 185.257C219.571 185.802 219.36 186.698 219.36 187.946V193H217.901V183.367H219.088L219.325 184.686H219.396C219.671 184.217 220.058 183.851 220.556 183.587C221.06 183.323 221.622 183.191 222.243 183.191C223.749 183.191 224.733 183.736 225.196 184.826H225.267C225.554 184.322 225.97 183.924 226.515 183.631C227.06 183.338 227.681 183.191 228.378 183.191C229.468 183.191 230.282 183.473 230.821 184.035C231.366 184.592 231.639 185.485 231.639 186.716V193H230.18ZM242.968 188.175C242.968 189.745 242.572 190.973 241.781 191.857C240.99 192.736 239.897 193.176 238.503 193.176C237.642 193.176 236.877 192.974 236.209 192.569C235.541 192.165 235.025 191.585 234.662 190.829C234.299 190.073 234.117 189.188 234.117 188.175C234.117 186.604 234.51 185.383 235.295 184.51C236.08 183.631 237.17 183.191 238.564 183.191C239.912 183.191 240.981 183.64 241.772 184.536C242.569 185.433 242.968 186.646 242.968 188.175ZM235.629 188.175C235.629 189.405 235.875 190.343 236.367 190.987C236.859 191.632 237.583 191.954 238.538 191.954C239.493 191.954 240.217 191.635 240.709 190.996C241.207 190.352 241.456 189.411 241.456 188.175C241.456 186.95 241.207 186.021 240.709 185.389C240.217 184.75 239.487 184.431 238.521 184.431C237.565 184.431 236.845 184.744 236.358 185.371C235.872 185.998 235.629 186.933 235.629 188.175ZM252.126 193V186.769C252.126 185.983 251.947 185.397 251.59 185.011C251.232 184.624 250.673 184.431 249.911 184.431C248.903 184.431 248.165 184.703 247.696 185.248C247.228 185.793 246.993 186.692 246.993 187.946V193H245.534V183.367H246.721L246.958 184.686H247.028C247.327 184.211 247.746 183.845 248.285 183.587C248.824 183.323 249.425 183.191 250.087 183.191C251.247 183.191 252.12 183.473 252.706 184.035C253.292 184.592 253.585 185.485 253.585 186.716V193H252.126ZM258.05 193H256.591V183.367H258.05V193ZM256.468 180.757C256.468 180.423 256.55 180.18 256.714 180.027C256.878 179.869 257.083 179.79 257.329 179.79C257.563 179.79 257.766 179.869 257.936 180.027C258.105 180.186 258.19 180.429 258.19 180.757C258.19 181.085 258.105 181.331 257.936 181.495C257.766 181.653 257.563 181.732 257.329 181.732C257.083 181.732 256.878 181.653 256.714 181.495C256.55 181.331 256.468 181.085 256.468 180.757ZM264.255 191.972C264.513 191.972 264.762 191.954 265.002 191.919C265.242 191.878 265.433 191.837 265.573 191.796V192.912C265.415 192.988 265.181 193.05 264.87 193.097C264.565 193.149 264.29 193.176 264.044 193.176C262.181 193.176 261.249 192.194 261.249 190.231V184.501H259.869V183.798L261.249 183.191L261.864 181.135H262.708V183.367H265.503V184.501H262.708V190.17C262.708 190.75 262.846 191.195 263.121 191.506C263.396 191.816 263.774 191.972 264.255 191.972ZM275.821 188.175C275.821 189.745 275.426 190.973 274.635 191.857C273.844 192.736 272.751 193.176 271.356 193.176C270.495 193.176 269.73 192.974 269.062 192.569C268.395 192.165 267.879 191.585 267.516 190.829C267.152 190.073 266.971 189.188 266.971 188.175C266.971 186.604 267.363 185.383 268.148 184.51C268.934 183.631 270.023 183.191 271.418 183.191C272.766 183.191 273.835 183.64 274.626 184.536C275.423 185.433 275.821 186.646 275.821 188.175ZM268.482 188.175C268.482 189.405 268.729 190.343 269.221 190.987C269.713 191.632 270.437 191.954 271.392 191.954C272.347 191.954 273.07 191.635 273.562 190.996C274.061 190.352 274.31 189.411 274.31 188.175C274.31 186.95 274.061 186.021 273.562 185.389C273.07 184.75 272.341 184.431 271.374 184.431C270.419 184.431 269.698 184.744 269.212 185.371C268.726 185.998 268.482 186.933 268.482 188.175ZM282.782 183.191C283.21 183.191 283.594 183.227 283.934 183.297L283.731 184.65C283.333 184.562 282.981 184.519 282.677 184.519C281.897 184.519 281.229 184.835 280.673 185.468C280.122 186.101 279.847 186.889 279.847 187.832V193H278.388V183.367H279.592L279.759 185.151H279.829C280.187 184.524 280.617 184.041 281.121 183.701C281.625 183.361 282.179 183.191 282.782 183.191ZM287.194 193H285.735V183.367H287.194V193ZM285.612 180.757C285.612 180.423 285.694 180.18 285.858 180.027C286.022 179.869 286.228 179.79 286.474 179.79C286.708 179.79 286.91 179.869 287.08 180.027C287.25 180.186 287.335 180.429 287.335 180.757C287.335 181.085 287.25 181.331 287.08 181.495C286.91 181.653 286.708 181.732 286.474 181.732C286.228 181.732 286.022 181.653 285.858 181.495C285.694 181.331 285.612 181.085 285.612 180.757ZM296.88 193V186.769C296.88 185.983 296.701 185.397 296.344 185.011C295.986 184.624 295.427 184.431 294.665 184.431C293.657 184.431 292.919 184.703 292.45 185.248C291.981 185.793 291.747 186.692 291.747 187.946V193H290.288V183.367H291.475L291.712 184.686H291.782C292.081 184.211 292.5 183.845 293.039 183.587C293.578 183.323 294.179 183.191 294.841 183.191C296.001 183.191 296.874 183.473 297.46 184.035C298.046 184.592 298.339 185.485 298.339 186.716V193H296.88ZM309.229 183.367V184.29L307.444 184.501C307.608 184.706 307.755 184.976 307.884 185.31C308.013 185.638 308.077 186.01 308.077 186.426C308.077 187.369 307.755 188.122 307.11 188.685C306.466 189.247 305.581 189.528 304.456 189.528C304.169 189.528 303.899 189.505 303.647 189.458C303.026 189.786 302.716 190.199 302.716 190.697C302.716 190.961 302.824 191.157 303.041 191.286C303.258 191.409 303.63 191.471 304.157 191.471H305.862C306.905 191.471 307.705 191.69 308.262 192.13C308.824 192.569 309.105 193.208 309.105 194.046C309.105 195.112 308.678 195.924 307.822 196.48C306.967 197.043 305.719 197.324 304.078 197.324C302.818 197.324 301.846 197.09 301.16 196.621C300.48 196.152 300.141 195.49 300.141 194.635C300.141 194.049 300.328 193.542 300.703 193.114C301.078 192.687 301.605 192.396 302.285 192.244C302.039 192.133 301.831 191.96 301.661 191.726C301.497 191.491 301.415 191.219 301.415 190.908C301.415 190.557 301.509 190.249 301.696 189.985C301.884 189.722 302.18 189.467 302.584 189.221C302.086 189.016 301.679 188.667 301.362 188.175C301.052 187.683 300.896 187.12 300.896 186.487C300.896 185.433 301.213 184.621 301.846 184.053C302.479 183.479 303.375 183.191 304.535 183.191C305.039 183.191 305.493 183.25 305.897 183.367H309.229ZM301.547 194.617C301.547 195.139 301.767 195.534 302.206 195.804C302.646 196.073 303.275 196.208 304.096 196.208C305.32 196.208 306.226 196.023 306.812 195.654C307.403 195.291 307.699 194.796 307.699 194.169C307.699 193.647 307.538 193.284 307.216 193.079C306.894 192.88 306.287 192.78 305.396 192.78H303.647C302.985 192.78 302.47 192.938 302.101 193.255C301.731 193.571 301.547 194.025 301.547 194.617ZM302.338 186.452C302.338 187.126 302.528 187.636 302.909 187.981C303.29 188.327 303.82 188.5 304.5 188.5C305.924 188.5 306.636 187.809 306.636 186.426C306.636 184.979 305.915 184.255 304.474 184.255C303.788 184.255 303.261 184.439 302.892 184.809C302.522 185.178 302.338 185.726 302.338 186.452ZM322.096 190.372C322.096 191.269 321.762 191.96 321.094 192.446C320.426 192.933 319.488 193.176 318.281 193.176C317.004 193.176 316.008 192.974 315.293 192.569V191.216C315.756 191.45 316.251 191.635 316.778 191.77C317.312 191.904 317.824 191.972 318.316 191.972C319.078 191.972 319.664 191.852 320.074 191.611C320.484 191.365 320.689 190.993 320.689 190.495C320.689 190.12 320.525 189.801 320.197 189.537C319.875 189.268 319.242 188.951 318.299 188.588C317.402 188.254 316.764 187.964 316.383 187.718C316.008 187.466 315.727 187.182 315.539 186.865C315.357 186.549 315.267 186.171 315.267 185.731C315.267 184.946 315.586 184.328 316.225 183.877C316.863 183.42 317.739 183.191 318.853 183.191C319.89 183.191 320.903 183.402 321.894 183.824L321.375 185.011C320.408 184.612 319.532 184.413 318.747 184.413C318.056 184.413 317.534 184.521 317.183 184.738C316.831 184.955 316.655 185.254 316.655 185.635C316.655 185.893 316.72 186.112 316.849 186.294C316.983 186.476 317.197 186.648 317.49 186.812C317.783 186.977 318.346 187.214 319.178 187.524C320.32 187.94 321.091 188.359 321.489 188.781C321.894 189.203 322.096 189.733 322.096 190.372ZM332.792 188.175C332.792 189.745 332.396 190.973 331.605 191.857C330.814 192.736 329.722 193.176 328.327 193.176C327.466 193.176 326.701 192.974 326.033 192.569C325.365 192.165 324.85 191.585 324.486 190.829C324.123 190.073 323.941 189.188 323.941 188.175C323.941 186.604 324.334 185.383 325.119 184.51C325.904 183.631 326.994 183.191 328.389 183.191C329.736 183.191 330.806 183.64 331.597 184.536C332.394 185.433 332.792 186.646 332.792 188.175ZM325.453 188.175C325.453 189.405 325.699 190.343 326.191 190.987C326.684 191.632 327.407 191.954 328.362 191.954C329.317 191.954 330.041 191.635 330.533 190.996C331.031 190.352 331.28 189.411 331.28 188.175C331.28 186.95 331.031 186.021 330.533 185.389C330.041 184.75 329.312 184.431 328.345 184.431C327.39 184.431 326.669 184.744 326.183 185.371C325.696 185.998 325.453 186.933 325.453 188.175ZM336.817 193H335.358V179.324H336.817V193ZM341.282 183.367V189.616C341.282 190.401 341.461 190.987 341.818 191.374C342.176 191.761 342.735 191.954 343.497 191.954C344.505 191.954 345.24 191.679 345.703 191.128C346.172 190.577 346.406 189.678 346.406 188.43V183.367H347.865V193H346.661L346.45 191.708H346.371C346.072 192.183 345.656 192.546 345.123 192.798C344.596 193.05 343.992 193.176 343.312 193.176C342.141 193.176 341.262 192.897 340.676 192.341C340.096 191.784 339.806 190.894 339.806 189.669V183.367H341.282ZM354.079 191.972C354.337 191.972 354.586 191.954 354.826 191.919C355.066 191.878 355.257 191.837 355.397 191.796V192.912C355.239 192.988 355.005 193.05 354.694 193.097C354.39 193.149 354.114 193.176 353.868 193.176C352.005 193.176 351.073 192.194 351.073 190.231V184.501H349.693V183.798L351.073 183.191L351.688 181.135H352.532V183.367H355.327V184.501H352.532V190.17C352.532 190.75 352.67 191.195 352.945 191.506C353.221 191.816 353.599 191.972 354.079 191.972ZM358.79 193H357.331V183.367H358.79V193ZM357.208 180.757C357.208 180.423 357.29 180.18 357.454 180.027C357.618 179.869 357.823 179.79 358.069 179.79C358.304 179.79 358.506 179.869 358.676 180.027C358.846 180.186 358.931 180.429 358.931 180.757C358.931 181.085 358.846 181.331 358.676 181.495C358.506 181.653 358.304 181.732 358.069 181.732C357.823 181.732 357.618 181.653 357.454 181.495C357.29 181.331 357.208 181.085 357.208 180.757ZM370.198 188.175C370.198 189.745 369.803 190.973 369.012 191.857C368.221 192.736 367.128 193.176 365.733 193.176C364.872 193.176 364.107 192.974 363.439 192.569C362.771 192.165 362.256 191.585 361.893 190.829C361.529 190.073 361.348 189.188 361.348 188.175C361.348 186.604 361.74 185.383 362.525 184.51C363.311 183.631 364.4 183.191 365.795 183.191C367.143 183.191 368.212 183.64 369.003 184.536C369.8 185.433 370.198 186.646 370.198 188.175ZM362.859 188.175C362.859 189.405 363.105 190.343 363.598 190.987C364.09 191.632 364.813 191.954 365.769 191.954C366.724 191.954 367.447 191.635 367.939 190.996C368.438 190.352 368.687 189.411 368.687 188.175C368.687 186.95 368.438 186.021 367.939 185.389C367.447 184.75 366.718 184.431 365.751 184.431C364.796 184.431 364.075 184.744 363.589 185.371C363.103 185.998 362.859 186.933 362.859 188.175ZM379.356 193V186.769C379.356 185.983 379.178 185.397 378.82 185.011C378.463 184.624 377.903 184.431 377.142 184.431C376.134 184.431 375.396 184.703 374.927 185.248C374.458 185.793 374.224 186.692 374.224 187.946V193H372.765V183.367H373.951L374.188 184.686H374.259C374.558 184.211 374.977 183.845 375.516 183.587C376.055 183.323 376.655 183.191 377.317 183.191C378.478 183.191 379.351 183.473 379.937 184.035C380.522 184.592 380.815 185.485 380.815 186.716V193H379.356ZM390.035 190.372C390.035 191.269 389.701 191.96 389.033 192.446C388.365 192.933 387.428 193.176 386.221 193.176C384.943 193.176 383.947 192.974 383.232 192.569V191.216C383.695 191.45 384.19 191.635 384.718 191.77C385.251 191.904 385.764 191.972 386.256 191.972C387.018 191.972 387.604 191.852 388.014 191.611C388.424 191.365 388.629 190.993 388.629 190.495C388.629 190.12 388.465 189.801 388.137 189.537C387.814 189.268 387.182 188.951 386.238 188.588C385.342 188.254 384.703 187.964 384.322 187.718C383.947 187.466 383.666 187.182 383.479 186.865C383.297 186.549 383.206 186.171 383.206 185.731C383.206 184.946 383.525 184.328 384.164 183.877C384.803 183.42 385.679 183.191 386.792 183.191C387.829 183.191 388.843 183.402 389.833 183.824L389.314 185.011C388.348 184.612 387.472 184.413 386.687 184.413C385.995 184.413 385.474 184.521 385.122 184.738C384.771 184.955 384.595 185.254 384.595 185.635C384.595 185.893 384.659 186.112 384.788 186.294C384.923 186.476 385.137 186.648 385.43 186.812C385.723 186.977 386.285 187.214 387.117 187.524C388.26 187.94 389.03 188.359 389.429 188.781C389.833 189.203 390.035 189.733 390.035 190.372ZM403.017 193L402.727 191.629H402.656C402.176 192.232 401.695 192.643 401.215 192.859C400.74 193.07 400.146 193.176 399.431 193.176C398.476 193.176 397.726 192.93 397.181 192.438C396.642 191.945 396.372 191.245 396.372 190.337C396.372 188.392 397.928 187.372 401.039 187.278L402.674 187.226V186.628C402.674 185.872 402.51 185.315 402.182 184.958C401.859 184.595 401.341 184.413 400.626 184.413C399.823 184.413 398.915 184.659 397.901 185.151L397.453 184.035C397.928 183.777 398.446 183.575 399.009 183.429C399.577 183.282 400.146 183.209 400.714 183.209C401.862 183.209 402.712 183.464 403.263 183.974C403.819 184.483 404.098 185.301 404.098 186.426V193H403.017ZM399.721 191.972C400.629 191.972 401.341 191.723 401.856 191.225C402.378 190.727 402.639 190.029 402.639 189.133V188.263L401.18 188.324C400.02 188.365 399.182 188.547 398.666 188.869C398.156 189.186 397.901 189.681 397.901 190.354C397.901 190.882 398.06 191.283 398.376 191.559C398.698 191.834 399.146 191.972 399.721 191.972ZM413.326 190.372C413.326 191.269 412.992 191.96 412.324 192.446C411.656 192.933 410.719 193.176 409.512 193.176C408.234 193.176 407.238 192.974 406.523 192.569V191.216C406.986 191.45 407.481 191.635 408.009 191.77C408.542 191.904 409.055 191.972 409.547 191.972C410.309 191.972 410.895 191.852 411.305 191.611C411.715 191.365 411.92 190.993 411.92 190.495C411.92 190.12 411.756 189.801 411.428 189.537C411.105 189.268 410.473 188.951 409.529 188.588C408.633 188.254 407.994 187.964 407.613 187.718C407.238 187.466 406.957 187.182 406.77 186.865C406.588 186.549 406.497 186.171 406.497 185.731C406.497 184.946 406.816 184.328 407.455 183.877C408.094 183.42 408.97 183.191 410.083 183.191C411.12 183.191 412.134 183.402 413.124 183.824L412.605 185.011C411.639 184.612 410.763 184.413 409.978 184.413C409.286 184.413 408.765 184.521 408.413 184.738C408.062 184.955 407.886 185.254 407.886 185.635C407.886 185.893 407.95 186.112 408.079 186.294C408.214 186.476 408.428 186.648 408.721 186.812C409.014 186.977 409.576 187.214 410.408 187.524C411.551 187.94 412.321 188.359 412.72 188.781C413.124 189.203 413.326 189.733 413.326 190.372ZM106.474 218L104.707 212.349C104.596 212.003 104.388 211.218 104.083 209.993H104.013C103.778 211.019 103.573 211.81 103.397 212.366L101.578 218H99.8906L97.2627 208.367H98.792C99.4131 210.787 99.8848 212.63 100.207 213.896C100.535 215.161 100.723 216.014 100.77 216.453H100.84C100.904 216.119 101.007 215.688 101.147 215.161C101.294 214.628 101.42 214.206 101.525 213.896L103.292 208.367H104.874L106.597 213.896C106.925 214.903 107.147 215.75 107.265 216.436H107.335C107.358 216.225 107.42 215.899 107.52 215.46C107.625 215.021 108.237 212.656 109.356 208.367H110.868L108.205 218H106.474ZM116.687 218.176C115.263 218.176 114.138 217.742 113.312 216.875C112.491 216.008 112.081 214.804 112.081 213.263C112.081 211.71 112.462 210.477 113.224 209.562C113.991 208.648 115.02 208.191 116.309 208.191C117.516 208.191 118.471 208.59 119.174 209.387C119.877 210.178 120.229 211.224 120.229 212.524V213.447H113.593C113.622 214.578 113.906 215.437 114.445 216.022C114.99 216.608 115.755 216.901 116.739 216.901C117.776 216.901 118.802 216.685 119.815 216.251V217.552C119.3 217.774 118.811 217.933 118.348 218.026C117.891 218.126 117.337 218.176 116.687 218.176ZM116.291 209.413C115.518 209.413 114.899 209.665 114.437 210.169C113.979 210.673 113.71 211.37 113.628 212.261H118.664C118.664 211.341 118.459 210.638 118.049 210.151C117.639 209.659 117.053 209.413 116.291 209.413ZM124.184 218H122.725V204.324H124.184V218ZM128.736 218H127.277V204.324H128.736V218ZM142.43 218L142.14 216.629H142.069C141.589 217.232 141.108 217.643 140.628 217.859C140.153 218.07 139.559 218.176 138.844 218.176C137.889 218.176 137.139 217.93 136.594 217.438C136.055 216.945 135.785 216.245 135.785 215.337C135.785 213.392 137.341 212.372 140.452 212.278L142.087 212.226V211.628C142.087 210.872 141.923 210.315 141.595 209.958C141.272 209.595 140.754 209.413 140.039 209.413C139.236 209.413 138.328 209.659 137.314 210.151L136.866 209.035C137.341 208.777 137.859 208.575 138.422 208.429C138.99 208.282 139.559 208.209 140.127 208.209C141.275 208.209 142.125 208.464 142.676 208.974C143.232 209.483 143.511 210.301 143.511 211.426V218H142.43ZM139.134 216.972C140.042 216.972 140.754 216.723 141.27 216.225C141.791 215.727 142.052 215.029 142.052 214.133V213.263L140.593 213.324C139.433 213.365 138.595 213.547 138.079 213.869C137.569 214.186 137.314 214.681 137.314 215.354C137.314 215.882 137.473 216.283 137.789 216.559C138.111 216.834 138.56 216.972 139.134 216.972ZM152.739 215.372C152.739 216.269 152.405 216.96 151.737 217.446C151.069 217.933 150.132 218.176 148.925 218.176C147.647 218.176 146.651 217.974 145.937 217.569V216.216C146.399 216.45 146.895 216.635 147.422 216.77C147.955 216.904 148.468 216.972 148.96 216.972C149.722 216.972 150.308 216.852 150.718 216.611C151.128 216.365 151.333 215.993 151.333 215.495C151.333 215.12 151.169 214.801 150.841 214.537C150.519 214.268 149.886 213.951 148.942 213.588C148.046 213.254 147.407 212.964 147.026 212.718C146.651 212.466 146.37 212.182 146.183 211.865C146.001 211.549 145.91 211.171 145.91 210.731C145.91 209.946 146.229 209.328 146.868 208.877C147.507 208.42 148.383 208.191 149.496 208.191C150.533 208.191 151.547 208.402 152.537 208.824L152.019 210.011C151.052 209.612 150.176 209.413 149.391 209.413C148.699 209.413 148.178 209.521 147.826 209.738C147.475 209.955 147.299 210.254 147.299 210.635C147.299 210.893 147.363 211.112 147.492 211.294C147.627 211.476 147.841 211.648 148.134 211.812C148.427 211.977 148.989 212.214 149.821 212.524C150.964 212.94 151.734 213.359 152.133 213.781C152.537 214.203 152.739 214.733 152.739 215.372ZM161.256 218H159.797V208.367H161.256V218ZM159.674 205.757C159.674 205.423 159.756 205.18 159.92 205.027C160.084 204.869 160.289 204.79 160.535 204.79C160.77 204.79 160.972 204.869 161.142 205.027C161.312 205.186 161.396 205.429 161.396 205.757C161.396 206.085 161.312 206.331 161.142 206.495C160.972 206.653 160.77 206.732 160.535 206.732C160.289 206.732 160.084 206.653 159.92 206.495C159.756 206.331 159.674 206.085 159.674 205.757ZM170.941 218V211.769C170.941 210.983 170.763 210.397 170.405 210.011C170.048 209.624 169.488 209.431 168.727 209.431C167.719 209.431 166.98 209.703 166.512 210.248C166.043 210.793 165.809 211.692 165.809 212.946V218H164.35V208.367H165.536L165.773 209.686H165.844C166.143 209.211 166.562 208.845 167.101 208.587C167.64 208.323 168.24 208.191 168.902 208.191C170.062 208.191 170.936 208.473 171.521 209.035C172.107 209.592 172.4 210.485 172.4 211.716V218H170.941ZM178.518 216.972C178.775 216.972 179.024 216.954 179.265 216.919C179.505 216.878 179.695 216.837 179.836 216.796V217.912C179.678 217.988 179.443 218.05 179.133 218.097C178.828 218.149 178.553 218.176 178.307 218.176C176.443 218.176 175.512 217.194 175.512 215.231V209.501H174.132V208.798L175.512 208.191L176.127 206.135H176.971V208.367H179.766V209.501H176.971V215.17C176.971 215.75 177.108 216.195 177.384 216.506C177.659 216.816 178.037 216.972 178.518 216.972ZM185.839 218.176C184.415 218.176 183.29 217.742 182.464 216.875C181.644 216.008 181.233 214.804 181.233 213.263C181.233 211.71 181.614 210.477 182.376 209.562C183.144 208.648 184.172 208.191 185.461 208.191C186.668 208.191 187.623 208.59 188.326 209.387C189.029 210.178 189.381 211.224 189.381 212.524V213.447H182.745C182.774 214.578 183.059 215.437 183.598 216.022C184.143 216.608 184.907 216.901 185.892 216.901C186.929 216.901 187.954 216.685 188.968 216.251V217.552C188.452 217.774 187.963 217.933 187.5 218.026C187.043 218.126 186.489 218.176 185.839 218.176ZM185.443 209.413C184.67 209.413 184.052 209.665 183.589 210.169C183.132 210.673 182.862 211.37 182.78 212.261H187.816C187.816 211.341 187.611 210.638 187.201 210.151C186.791 209.659 186.205 209.413 185.443 209.413ZM199.761 208.367V209.29L197.977 209.501C198.141 209.706 198.287 209.976 198.416 210.31C198.545 210.638 198.609 211.01 198.609 211.426C198.609 212.369 198.287 213.122 197.643 213.685C196.998 214.247 196.113 214.528 194.988 214.528C194.701 214.528 194.432 214.505 194.18 214.458C193.559 214.786 193.248 215.199 193.248 215.697C193.248 215.961 193.356 216.157 193.573 216.286C193.79 216.409 194.162 216.471 194.689 216.471H196.395C197.438 216.471 198.237 216.69 198.794 217.13C199.356 217.569 199.638 218.208 199.638 219.046C199.638 220.112 199.21 220.924 198.354 221.48C197.499 222.043 196.251 222.324 194.61 222.324C193.351 222.324 192.378 222.09 191.692 221.621C191.013 221.152 190.673 220.49 190.673 219.635C190.673 219.049 190.86 218.542 191.235 218.114C191.61 217.687 192.138 217.396 192.817 217.244C192.571 217.133 192.363 216.96 192.193 216.726C192.029 216.491 191.947 216.219 191.947 215.908C191.947 215.557 192.041 215.249 192.229 214.985C192.416 214.722 192.712 214.467 193.116 214.221C192.618 214.016 192.211 213.667 191.895 213.175C191.584 212.683 191.429 212.12 191.429 211.487C191.429 210.433 191.745 209.621 192.378 209.053C193.011 208.479 193.907 208.191 195.067 208.191C195.571 208.191 196.025 208.25 196.43 208.367H199.761ZM192.079 219.617C192.079 220.139 192.299 220.534 192.738 220.804C193.178 221.073 193.808 221.208 194.628 221.208C195.853 221.208 196.758 221.023 197.344 220.654C197.936 220.291 198.231 219.796 198.231 219.169C198.231 218.647 198.07 218.284 197.748 218.079C197.426 217.88 196.819 217.78 195.929 217.78H194.18C193.518 217.78 193.002 217.938 192.633 218.255C192.264 218.571 192.079 219.025 192.079 219.617ZM192.87 211.452C192.87 212.126 193.061 212.636 193.441 212.981C193.822 213.327 194.353 213.5 195.032 213.5C196.456 213.5 197.168 212.809 197.168 211.426C197.168 209.979 196.447 209.255 195.006 209.255C194.32 209.255 193.793 209.439 193.424 209.809C193.055 210.178 192.87 210.726 192.87 211.452ZM206.133 208.191C206.561 208.191 206.944 208.227 207.284 208.297L207.082 209.65C206.684 209.562 206.332 209.519 206.027 209.519C205.248 209.519 204.58 209.835 204.023 210.468C203.473 211.101 203.197 211.889 203.197 212.832V218H201.738V208.367H202.942L203.109 210.151H203.18C203.537 209.524 203.968 209.041 204.472 208.701C204.976 208.361 205.529 208.191 206.133 208.191ZM215.01 218L214.72 216.629H214.649C214.169 217.232 213.688 217.643 213.208 217.859C212.733 218.07 212.139 218.176 211.424 218.176C210.469 218.176 209.719 217.93 209.174 217.438C208.635 216.945 208.365 216.245 208.365 215.337C208.365 213.392 209.921 212.372 213.032 212.278L214.667 212.226V211.628C214.667 210.872 214.503 210.315 214.175 209.958C213.853 209.595 213.334 209.413 212.619 209.413C211.816 209.413 210.908 209.659 209.895 210.151L209.446 209.035C209.921 208.777 210.439 208.575 211.002 208.429C211.57 208.282 212.139 208.209 212.707 208.209C213.855 208.209 214.705 208.464 215.256 208.974C215.812 209.483 216.091 210.301 216.091 211.426V218H215.01ZM211.714 216.972C212.622 216.972 213.334 216.723 213.85 216.225C214.371 215.727 214.632 215.029 214.632 214.133V213.263L213.173 213.324C212.013 213.365 211.175 213.547 210.659 213.869C210.149 214.186 209.895 214.681 209.895 215.354C209.895 215.882 210.053 216.283 210.369 216.559C210.691 216.834 211.14 216.972 211.714 216.972ZM222.217 216.972C222.475 216.972 222.724 216.954 222.964 216.919C223.204 216.878 223.395 216.837 223.535 216.796V217.912C223.377 217.988 223.143 218.05 222.832 218.097C222.527 218.149 222.252 218.176 222.006 218.176C220.143 218.176 219.211 217.194 219.211 215.231V209.501H217.831V208.798L219.211 208.191L219.826 206.135H220.67V208.367H223.465V209.501H220.67V215.17C220.67 215.75 220.808 216.195 221.083 216.506C221.358 216.816 221.736 216.972 222.217 216.972ZM229.538 218.176C228.114 218.176 226.989 217.742 226.163 216.875C225.343 216.008 224.933 214.804 224.933 213.263C224.933 211.71 225.313 210.477 226.075 209.562C226.843 208.648 227.871 208.191 229.16 208.191C230.367 208.191 231.322 208.59 232.025 209.387C232.729 210.178 233.08 211.224 233.08 212.524V213.447H226.444C226.474 214.578 226.758 215.437 227.297 216.022C227.842 216.608 228.606 216.901 229.591 216.901C230.628 216.901 231.653 216.685 232.667 216.251V217.552C232.151 217.774 231.662 217.933 231.199 218.026C230.742 218.126 230.188 218.176 229.538 218.176ZM229.143 209.413C228.369 209.413 227.751 209.665 227.288 210.169C226.831 210.673 226.562 211.37 226.479 212.261H231.516C231.516 211.341 231.311 210.638 230.9 210.151C230.49 209.659 229.904 209.413 229.143 209.413ZM246.466 215.372C246.466 216.269 246.132 216.96 245.464 217.446C244.796 217.933 243.858 218.176 242.651 218.176C241.374 218.176 240.378 217.974 239.663 217.569V216.216C240.126 216.45 240.621 216.635 241.148 216.77C241.682 216.904 242.194 216.972 242.687 216.972C243.448 216.972 244.034 216.852 244.444 216.611C244.854 216.365 245.06 215.993 245.06 215.495C245.06 215.12 244.896 214.801 244.567 214.537C244.245 214.268 243.612 213.951 242.669 213.588C241.772 213.254 241.134 212.964 240.753 212.718C240.378 212.466 240.097 212.182 239.909 211.865C239.728 211.549 239.637 211.171 239.637 210.731C239.637 209.946 239.956 209.328 240.595 208.877C241.233 208.42 242.109 208.191 243.223 208.191C244.26 208.191 245.273 208.402 246.264 208.824L245.745 210.011C244.778 209.612 243.902 209.413 243.117 209.413C242.426 209.413 241.904 209.521 241.553 209.738C241.201 209.955 241.025 210.254 241.025 210.635C241.025 210.893 241.09 211.112 241.219 211.294C241.354 211.476 241.567 211.648 241.86 211.812C242.153 211.977 242.716 212.214 243.548 212.524C244.69 212.94 245.461 213.359 245.859 213.781C246.264 214.203 246.466 214.733 246.466 215.372ZM252.917 218.176C251.493 218.176 250.368 217.742 249.542 216.875C248.722 216.008 248.312 214.804 248.312 213.263C248.312 211.71 248.692 210.477 249.454 209.562C250.222 208.648 251.25 208.191 252.539 208.191C253.746 208.191 254.701 208.59 255.404 209.387C256.107 210.178 256.459 211.224 256.459 212.524V213.447H249.823C249.853 214.578 250.137 215.437 250.676 216.022C251.221 216.608 251.985 216.901 252.97 216.901C254.007 216.901 255.032 216.685 256.046 216.251V217.552C255.53 217.774 255.041 217.933 254.578 218.026C254.121 218.126 253.567 218.176 252.917 218.176ZM252.521 209.413C251.748 209.413 251.13 209.665 250.667 210.169C250.21 210.673 249.94 211.37 249.858 212.261H254.895C254.895 211.341 254.689 210.638 254.279 210.151C253.869 209.659 253.283 209.413 252.521 209.413ZM263.35 208.191C263.777 208.191 264.161 208.227 264.501 208.297L264.299 209.65C263.9 209.562 263.549 209.519 263.244 209.519C262.465 209.519 261.797 209.835 261.24 210.468C260.689 211.101 260.414 211.889 260.414 212.832V218H258.955V208.367H260.159L260.326 210.151H260.396C260.754 209.524 261.185 209.041 261.688 208.701C262.192 208.361 262.746 208.191 263.35 208.191ZM268.412 218L264.756 208.367H266.32L268.395 214.08C268.863 215.416 269.139 216.283 269.221 216.682H269.291C269.355 216.371 269.558 215.729 269.897 214.757C270.243 213.778 271.014 211.648 272.209 208.367H273.773L270.117 218H268.412ZM276.779 218H275.32V208.367H276.779V218ZM275.197 205.757C275.197 205.423 275.279 205.18 275.443 205.027C275.607 204.869 275.812 204.79 276.059 204.79C276.293 204.79 276.495 204.869 276.665 205.027C276.835 205.186 276.92 205.429 276.92 205.757C276.92 206.085 276.835 206.331 276.665 206.495C276.495 206.653 276.293 206.732 276.059 206.732C275.812 206.732 275.607 206.653 275.443 206.495C275.279 206.331 275.197 206.085 275.197 205.757ZM283.723 218.176C282.328 218.176 281.247 217.748 280.479 216.893C279.718 216.031 279.337 214.815 279.337 213.245C279.337 211.634 279.724 210.389 280.497 209.51C281.276 208.631 282.384 208.191 283.819 208.191C284.282 208.191 284.745 208.241 285.208 208.341C285.671 208.44 286.034 208.558 286.298 208.692L285.85 209.932C285.527 209.803 285.176 209.697 284.795 209.615C284.414 209.527 284.077 209.483 283.784 209.483C281.827 209.483 280.849 210.731 280.849 213.228C280.849 214.411 281.086 215.319 281.561 215.952C282.041 216.585 282.75 216.901 283.688 216.901C284.49 216.901 285.313 216.729 286.157 216.383V217.675C285.513 218.009 284.701 218.176 283.723 218.176ZM292.521 218.176C291.097 218.176 289.972 217.742 289.146 216.875C288.325 216.008 287.915 214.804 287.915 213.263C287.915 211.71 288.296 210.477 289.058 209.562C289.825 208.648 290.854 208.191 292.143 208.191C293.35 208.191 294.305 208.59 295.008 209.387C295.711 210.178 296.062 211.224 296.062 212.524V213.447H289.427C289.456 214.578 289.74 215.437 290.279 216.022C290.824 216.608 291.589 216.901 292.573 216.901C293.61 216.901 294.636 216.685 295.649 216.251V217.552C295.134 217.774 294.645 217.933 294.182 218.026C293.725 218.126 293.171 218.176 292.521 218.176ZM292.125 209.413C291.352 209.413 290.733 209.665 290.271 210.169C289.813 210.673 289.544 211.37 289.462 212.261H294.498C294.498 211.341 294.293 210.638 293.883 210.151C293.473 209.659 292.887 209.413 292.125 209.413ZM304.772 215.372C304.772 216.269 304.438 216.96 303.771 217.446C303.103 217.933 302.165 218.176 300.958 218.176C299.681 218.176 298.685 217.974 297.97 217.569V216.216C298.433 216.45 298.928 216.635 299.455 216.77C299.988 216.904 300.501 216.972 300.993 216.972C301.755 216.972 302.341 216.852 302.751 216.611C303.161 216.365 303.366 215.993 303.366 215.495C303.366 215.12 303.202 214.801 302.874 214.537C302.552 214.268 301.919 213.951 300.976 213.588C300.079 213.254 299.44 212.964 299.06 212.718C298.685 212.466 298.403 212.182 298.216 211.865C298.034 211.549 297.943 211.171 297.943 210.731C297.943 209.946 298.263 209.328 298.901 208.877C299.54 208.42 300.416 208.191 301.529 208.191C302.566 208.191 303.58 208.402 304.57 208.824L304.052 210.011C303.085 209.612 302.209 209.413 301.424 209.413C300.732 209.413 300.211 209.521 299.859 209.738C299.508 209.955 299.332 210.254 299.332 210.635C299.332 210.893 299.396 211.112 299.525 211.294C299.66 211.476 299.874 211.648 300.167 211.812C300.46 211.977 301.022 212.214 301.854 212.524C302.997 212.94 303.768 213.359 304.166 213.781C304.57 214.203 304.772 214.733 304.772 215.372ZM318.387 216.708H318.308C317.634 217.687 316.626 218.176 315.284 218.176C314.024 218.176 313.043 217.745 312.34 216.884C311.643 216.022 311.294 214.798 311.294 213.21C311.294 211.622 311.646 210.389 312.349 209.51C313.052 208.631 314.03 208.191 315.284 208.191C316.591 208.191 317.593 208.666 318.29 209.615H318.404L318.343 208.921L318.308 208.244V204.324H319.767V218H318.58L318.387 216.708ZM315.469 216.954C316.465 216.954 317.186 216.685 317.631 216.146C318.082 215.601 318.308 214.725 318.308 213.518V213.21C318.308 211.845 318.079 210.872 317.622 210.292C317.171 209.706 316.447 209.413 315.451 209.413C314.596 209.413 313.939 209.747 313.482 210.415C313.031 211.077 312.806 212.015 312.806 213.228C312.806 214.458 313.031 215.387 313.482 216.014C313.934 216.641 314.596 216.954 315.469 216.954ZM326.938 218.176C325.515 218.176 324.39 217.742 323.563 216.875C322.743 216.008 322.333 214.804 322.333 213.263C322.333 211.71 322.714 210.477 323.476 209.562C324.243 208.648 325.271 208.191 326.561 208.191C327.768 208.191 328.723 208.59 329.426 209.387C330.129 210.178 330.48 211.224 330.48 212.524V213.447H323.845C323.874 214.578 324.158 215.437 324.697 216.022C325.242 216.608 326.007 216.901 326.991 216.901C328.028 216.901 329.054 216.685 330.067 216.251V217.552C329.552 217.774 329.062 217.933 328.6 218.026C328.143 218.126 327.589 218.176 326.938 218.176ZM326.543 209.413C325.77 209.413 325.151 209.665 324.688 210.169C324.231 210.673 323.962 211.37 323.88 212.261H328.916C328.916 211.341 328.711 210.638 328.301 210.151C327.891 209.659 327.305 209.413 326.543 209.413ZM334.436 218H332.977V204.324H334.436V218ZM338.988 218H337.529V208.367H338.988V218ZM337.406 205.757C337.406 205.423 337.488 205.18 337.652 205.027C337.816 204.869 338.021 204.79 338.268 204.79C338.502 204.79 338.704 204.869 338.874 205.027C339.044 205.186 339.129 205.429 339.129 205.757C339.129 206.085 339.044 206.331 338.874 206.495C338.704 206.653 338.502 206.732 338.268 206.732C338.021 206.732 337.816 206.653 337.652 206.495C337.488 206.331 337.406 206.085 337.406 205.757ZM344.191 218L340.535 208.367H342.1L344.174 214.08C344.643 215.416 344.918 216.283 345 216.682H345.07C345.135 216.371 345.337 215.729 345.677 214.757C346.022 213.778 346.793 211.648 347.988 208.367H349.553L345.896 218H344.191ZM355.169 218.176C353.745 218.176 352.62 217.742 351.794 216.875C350.974 216.008 350.563 214.804 350.563 213.263C350.563 211.71 350.944 210.477 351.706 209.562C352.474 208.648 353.502 208.191 354.791 208.191C355.998 208.191 356.953 208.59 357.656 209.387C358.359 210.178 358.711 211.224 358.711 212.524V213.447H352.075C352.104 214.578 352.389 215.437 352.928 216.022C353.473 216.608 354.237 216.901 355.222 216.901C356.259 216.901 357.284 216.685 358.298 216.251V217.552C357.782 217.774 357.293 217.933 356.83 218.026C356.373 218.126 355.819 218.176 355.169 218.176ZM354.773 209.413C354 209.413 353.382 209.665 352.919 210.169C352.462 210.673 352.192 211.37 352.11 212.261H357.146C357.146 211.341 356.941 210.638 356.531 210.151C356.121 209.659 355.535 209.413 354.773 209.413ZM365.602 208.191C366.029 208.191 366.413 208.227 366.753 208.297L366.551 209.65C366.152 209.562 365.801 209.519 365.496 209.519C364.717 209.519 364.049 209.835 363.492 210.468C362.941 211.101 362.666 211.889 362.666 212.832V218H361.207V208.367H362.411L362.578 210.151H362.648C363.006 209.524 363.437 209.041 363.94 208.701C364.444 208.361 364.998 208.191 365.602 208.191ZM372.624 218.176C371.2 218.176 370.075 217.742 369.249 216.875C368.429 216.008 368.019 214.804 368.019 213.263C368.019 211.71 368.399 210.477 369.161 209.562C369.929 208.648 370.957 208.191 372.246 208.191C373.453 208.191 374.408 208.59 375.111 209.387C375.814 210.178 376.166 211.224 376.166 212.524V213.447H369.53C369.56 214.578 369.844 215.437 370.383 216.022C370.928 216.608 371.692 216.901 372.677 216.901C373.714 216.901 374.739 216.685 375.753 216.251V217.552C375.237 217.774 374.748 217.933 374.285 218.026C373.828 218.126 373.274 218.176 372.624 218.176ZM372.229 209.413C371.455 209.413 370.837 209.665 370.374 210.169C369.917 210.673 369.647 211.37 369.565 212.261H374.602C374.602 211.341 374.396 210.638 373.986 210.151C373.576 209.659 372.99 209.413 372.229 209.413ZM385.219 216.708H385.14C384.466 217.687 383.458 218.176 382.116 218.176C380.856 218.176 379.875 217.745 379.172 216.884C378.475 216.022 378.126 214.798 378.126 213.21C378.126 211.622 378.478 210.389 379.181 209.51C379.884 208.631 380.862 208.191 382.116 208.191C383.423 208.191 384.425 208.666 385.122 209.615H385.236L385.175 208.921L385.14 208.244V204.324H386.599V218H385.412L385.219 216.708ZM382.301 216.954C383.297 216.954 384.018 216.685 384.463 216.146C384.914 215.601 385.14 214.725 385.14 213.518V213.21C385.14 211.845 384.911 210.872 384.454 210.292C384.003 209.706 383.279 209.413 382.283 209.413C381.428 209.413 380.771 209.747 380.314 210.415C379.863 211.077 379.638 212.015 379.638 213.228C379.638 214.458 379.863 215.387 380.314 216.014C380.766 216.641 381.428 216.954 382.301 216.954ZM398.859 208.209C400.125 208.209 401.106 208.643 401.804 209.51C402.507 210.371 402.858 211.593 402.858 213.175C402.858 214.757 402.504 215.987 401.795 216.866C401.092 217.739 400.113 218.176 398.859 218.176C398.232 218.176 397.658 218.062 397.137 217.833C396.621 217.599 396.188 217.241 395.836 216.761H395.73L395.423 218H394.377V204.324H395.836V207.646C395.836 208.391 395.812 209.059 395.766 209.65H395.836C396.516 208.689 397.523 208.209 398.859 208.209ZM398.648 209.431C397.652 209.431 396.935 209.718 396.495 210.292C396.056 210.86 395.836 211.821 395.836 213.175C395.836 214.528 396.062 215.498 396.513 216.084C396.964 216.664 397.688 216.954 398.684 216.954C399.58 216.954 400.248 216.629 400.688 215.979C401.127 215.322 401.347 214.382 401.347 213.157C401.347 211.903 401.127 210.969 400.688 210.354C400.248 209.738 399.568 209.431 398.648 209.431ZM403.887 208.367H405.451L407.561 213.86C408.023 215.114 408.311 216.02 408.422 216.576H408.492C408.568 216.277 408.727 215.768 408.967 215.047C409.213 214.32 410.01 212.094 411.357 208.367H412.922L408.782 219.336C408.372 220.42 407.892 221.188 407.341 221.639C406.796 222.096 406.125 222.324 405.328 222.324C404.883 222.324 404.443 222.274 404.01 222.175V221.006C404.332 221.076 404.692 221.111 405.091 221.111C406.093 221.111 406.808 220.549 407.235 219.424L407.771 218.053L403.887 208.367ZM90.2666 241.972C90.5244 241.972 90.7734 241.954 91.0137 241.919C91.2539 241.878 91.4443 241.837 91.585 241.796V242.912C91.4268 242.988 91.1924 243.05 90.8818 243.097C90.5771 243.149 90.3018 243.176 90.0557 243.176C88.1924 243.176 87.2607 242.194 87.2607 240.231V234.501H85.8809V233.798L87.2607 233.191L87.876 231.135H88.7197V233.367H91.5146V234.501H88.7197V240.17C88.7197 240.75 88.8574 241.195 89.1328 241.506C89.4082 241.816 89.7861 241.972 90.2666 241.972ZM100.11 243V236.769C100.11 235.983 99.9316 235.397 99.5742 235.011C99.2168 234.624 98.6572 234.431 97.8955 234.431C96.8818 234.431 96.1406 234.706 95.6719 235.257C95.209 235.808 94.9775 236.71 94.9775 237.964V243H93.5186V229.324H94.9775V233.464C94.9775 233.962 94.9541 234.375 94.9072 234.703H94.9951C95.2822 234.24 95.6895 233.877 96.2168 233.613C96.75 233.344 97.3564 233.209 98.0361 233.209C99.2139 233.209 100.096 233.49 100.682 234.053C101.273 234.609 101.569 235.497 101.569 236.716V243H100.11ZM106.034 243H104.575V233.367H106.034V243ZM104.452 230.757C104.452 230.423 104.534 230.18 104.698 230.027C104.862 229.869 105.067 229.79 105.313 229.79C105.548 229.79 105.75 229.869 105.92 230.027C106.09 230.186 106.175 230.429 106.175 230.757C106.175 231.085 106.09 231.331 105.92 231.495C105.75 231.653 105.548 231.732 105.313 231.732C105.067 231.732 104.862 231.653 104.698 231.495C104.534 231.331 104.452 231.085 104.452 230.757ZM113.522 233.191C113.95 233.191 114.334 233.227 114.674 233.297L114.472 234.65C114.073 234.562 113.722 234.519 113.417 234.519C112.638 234.519 111.97 234.835 111.413 235.468C110.862 236.101 110.587 236.889 110.587 237.832V243H109.128V233.367H110.332L110.499 235.151H110.569C110.927 234.524 111.357 234.041 111.861 233.701C112.365 233.361 112.919 233.191 113.522 233.191ZM123.032 241.708H122.953C122.279 242.687 121.271 243.176 119.93 243.176C118.67 243.176 117.688 242.745 116.985 241.884C116.288 241.022 115.939 239.798 115.939 238.21C115.939 236.622 116.291 235.389 116.994 234.51C117.697 233.631 118.676 233.191 119.93 233.191C121.236 233.191 122.238 233.666 122.936 234.615H123.05L122.988 233.921L122.953 233.244V229.324H124.412V243H123.226L123.032 241.708ZM120.114 241.954C121.11 241.954 121.831 241.685 122.276 241.146C122.728 240.601 122.953 239.725 122.953 238.518V238.21C122.953 236.845 122.725 235.872 122.268 235.292C121.816 234.706 121.093 234.413 120.097 234.413C119.241 234.413 118.585 234.747 118.128 235.415C117.677 236.077 117.451 237.015 117.451 238.228C117.451 239.458 117.677 240.387 118.128 241.014C118.579 241.641 119.241 241.954 120.114 241.954ZM136.673 243.176C136.046 243.176 135.472 243.062 134.95 242.833C134.435 242.599 134.001 242.241 133.649 241.761H133.544C133.614 242.323 133.649 242.856 133.649 243.36V247.324H132.19V233.367H133.377L133.579 234.686H133.649C134.024 234.158 134.461 233.777 134.959 233.543C135.457 233.309 136.028 233.191 136.673 233.191C137.95 233.191 138.935 233.628 139.626 234.501C140.323 235.374 140.672 236.599 140.672 238.175C140.672 239.757 140.317 240.987 139.608 241.866C138.905 242.739 137.927 243.176 136.673 243.176ZM136.462 234.431C135.478 234.431 134.766 234.703 134.326 235.248C133.887 235.793 133.661 236.66 133.649 237.85V238.175C133.649 239.528 133.875 240.498 134.326 241.084C134.777 241.664 135.501 241.954 136.497 241.954C137.329 241.954 137.979 241.617 138.448 240.943C138.923 240.27 139.16 239.341 139.16 238.157C139.16 236.956 138.923 236.036 138.448 235.397C137.979 234.753 137.317 234.431 136.462 234.431ZM149.153 243L148.863 241.629H148.793C148.312 242.232 147.832 242.643 147.352 242.859C146.877 243.07 146.282 243.176 145.567 243.176C144.612 243.176 143.862 242.93 143.317 242.438C142.778 241.945 142.509 241.245 142.509 240.337C142.509 238.392 144.064 237.372 147.176 237.278L148.811 237.226V236.628C148.811 235.872 148.646 235.315 148.318 234.958C147.996 234.595 147.478 234.413 146.763 234.413C145.96 234.413 145.052 234.659 144.038 235.151L143.59 234.035C144.064 233.777 144.583 233.575 145.146 233.429C145.714 233.282 146.282 233.209 146.851 233.209C147.999 233.209 148.849 233.464 149.399 233.974C149.956 234.483 150.234 235.301 150.234 236.426V243H149.153ZM145.857 241.972C146.766 241.972 147.478 241.723 147.993 241.225C148.515 240.727 148.775 240.029 148.775 239.133V238.263L147.316 238.324C146.156 238.365 145.318 238.547 144.803 238.869C144.293 239.186 144.038 239.681 144.038 240.354C144.038 240.882 144.196 241.283 144.513 241.559C144.835 241.834 145.283 241.972 145.857 241.972ZM157.644 233.191C158.071 233.191 158.455 233.227 158.795 233.297L158.593 234.65C158.194 234.562 157.843 234.519 157.538 234.519C156.759 234.519 156.091 234.835 155.534 235.468C154.983 236.101 154.708 236.889 154.708 237.832V243H153.249V233.367H154.453L154.62 235.151H154.69C155.048 234.524 155.479 234.041 155.982 233.701C156.486 233.361 157.04 233.191 157.644 233.191ZM163.708 241.972C163.966 241.972 164.215 241.954 164.455 241.919C164.695 241.878 164.886 241.837 165.026 241.796V242.912C164.868 242.988 164.634 243.05 164.323 243.097C164.019 243.149 163.743 243.176 163.497 243.176C161.634 243.176 160.702 242.194 160.702 240.231V234.501H159.322V233.798L160.702 233.191L161.317 231.135H162.161V233.367H164.956V234.501H162.161V240.17C162.161 240.75 162.299 241.195 162.574 241.506C162.85 241.816 163.228 241.972 163.708 241.972ZM168.419 243H166.96V233.367H168.419V243ZM166.837 230.757C166.837 230.423 166.919 230.18 167.083 230.027C167.247 229.869 167.452 229.79 167.698 229.79C167.933 229.79 168.135 229.869 168.305 230.027C168.475 230.186 168.56 230.429 168.56 230.757C168.56 231.085 168.475 231.331 168.305 231.495C168.135 231.653 167.933 231.732 167.698 231.732C167.452 231.732 167.247 231.653 167.083 231.495C166.919 231.331 166.837 231.085 166.837 230.757ZM175.582 243.176C174.158 243.176 173.033 242.742 172.207 241.875C171.387 241.008 170.977 239.804 170.977 238.263C170.977 236.71 171.357 235.477 172.119 234.562C172.887 233.648 173.915 233.191 175.204 233.191C176.411 233.191 177.366 233.59 178.069 234.387C178.772 235.178 179.124 236.224 179.124 237.524V238.447H172.488C172.518 239.578 172.802 240.437 173.341 241.022C173.886 241.608 174.65 241.901 175.635 241.901C176.672 241.901 177.697 241.685 178.711 241.251V242.552C178.195 242.774 177.706 242.933 177.243 243.026C176.786 243.126 176.232 243.176 175.582 243.176ZM175.187 234.413C174.413 234.413 173.795 234.665 173.332 235.169C172.875 235.673 172.605 236.37 172.523 237.261H177.56C177.56 236.341 177.354 235.638 176.944 235.151C176.534 234.659 175.948 234.413 175.187 234.413ZM187.834 240.372C187.834 241.269 187.5 241.96 186.832 242.446C186.164 242.933 185.227 243.176 184.02 243.176C182.742 243.176 181.746 242.974 181.031 242.569V241.216C181.494 241.45 181.989 241.635 182.517 241.77C183.05 241.904 183.562 241.972 184.055 241.972C184.816 241.972 185.402 241.852 185.812 241.611C186.223 241.365 186.428 240.993 186.428 240.495C186.428 240.12 186.264 239.801 185.936 239.537C185.613 239.268 184.98 238.951 184.037 238.588C183.141 238.254 182.502 237.964 182.121 237.718C181.746 237.466 181.465 237.182 181.277 236.865C181.096 236.549 181.005 236.171 181.005 235.731C181.005 234.946 181.324 234.328 181.963 233.877C182.602 233.42 183.478 233.191 184.591 233.191C185.628 233.191 186.642 233.402 187.632 233.824L187.113 235.011C186.146 234.612 185.271 234.413 184.485 234.413C183.794 234.413 183.272 234.521 182.921 234.738C182.569 234.955 182.394 235.254 182.394 235.635C182.394 235.893 182.458 236.112 182.587 236.294C182.722 236.476 182.936 236.648 183.229 236.812C183.521 236.977 184.084 237.214 184.916 237.524C186.059 237.94 186.829 238.359 187.228 238.781C187.632 239.203 187.834 239.733 187.834 240.372ZM196.351 243H194.892V233.367H196.351V243ZM194.769 230.757C194.769 230.423 194.851 230.18 195.015 230.027C195.179 229.869 195.384 229.79 195.63 229.79C195.864 229.79 196.066 229.869 196.236 230.027C196.406 230.186 196.491 230.429 196.491 230.757C196.491 231.085 196.406 231.331 196.236 231.495C196.066 231.653 195.864 231.732 195.63 231.732C195.384 231.732 195.179 231.653 195.015 231.495C194.851 231.331 194.769 231.085 194.769 230.757ZM206.036 243V236.769C206.036 235.983 205.857 235.397 205.5 235.011C205.143 234.624 204.583 234.431 203.821 234.431C202.813 234.431 202.075 234.703 201.606 235.248C201.138 235.793 200.903 236.692 200.903 237.946V243H199.444V233.367H200.631L200.868 234.686H200.938C201.237 234.211 201.656 233.845 202.195 233.587C202.734 233.323 203.335 233.191 203.997 233.191C205.157 233.191 206.03 233.473 206.616 234.035C207.202 234.592 207.495 235.485 207.495 236.716V243H206.036ZM213.612 241.972C213.87 241.972 214.119 241.954 214.359 241.919C214.6 241.878 214.79 241.837 214.931 241.796V242.912C214.772 242.988 214.538 243.05 214.228 243.097C213.923 243.149 213.647 243.176 213.401 243.176C211.538 243.176 210.606 242.194 210.606 240.231V234.501H209.227V233.798L210.606 233.191L211.222 231.135H212.065V233.367H214.86V234.501H212.065V240.17C212.065 240.75 212.203 241.195 212.479 241.506C212.754 241.816 213.132 241.972 213.612 241.972ZM225.179 238.175C225.179 239.745 224.783 240.973 223.992 241.857C223.201 242.736 222.108 243.176 220.714 243.176C219.853 243.176 219.088 242.974 218.42 242.569C217.752 242.165 217.236 241.585 216.873 240.829C216.51 240.073 216.328 239.188 216.328 238.175C216.328 236.604 216.721 235.383 217.506 234.51C218.291 233.631 219.381 233.191 220.775 233.191C222.123 233.191 223.192 233.64 223.983 234.536C224.78 235.433 225.179 236.646 225.179 238.175ZM217.84 238.175C217.84 239.405 218.086 240.343 218.578 240.987C219.07 241.632 219.794 241.954 220.749 241.954C221.704 241.954 222.428 241.635 222.92 240.996C223.418 240.352 223.667 239.411 223.667 238.175C223.667 236.95 223.418 236.021 222.92 235.389C222.428 234.75 221.698 234.431 220.731 234.431C219.776 234.431 219.056 234.744 218.569 235.371C218.083 235.998 217.84 236.933 217.84 238.175ZM238.345 243L238.055 241.629H237.984C237.504 242.232 237.023 242.643 236.543 242.859C236.068 243.07 235.474 243.176 234.759 243.176C233.804 243.176 233.054 242.93 232.509 242.438C231.97 241.945 231.7 241.245 231.7 240.337C231.7 238.392 233.256 237.372 236.367 237.278L238.002 237.226V236.628C238.002 235.872 237.838 235.315 237.51 234.958C237.188 234.595 236.669 234.413 235.954 234.413C235.151 234.413 234.243 234.659 233.229 235.151L232.781 234.035C233.256 233.777 233.774 233.575 234.337 233.429C234.905 233.282 235.474 233.209 236.042 233.209C237.19 233.209 238.04 233.464 238.591 233.974C239.147 234.483 239.426 235.301 239.426 236.426V243H238.345ZM235.049 241.972C235.957 241.972 236.669 241.723 237.185 241.225C237.706 240.727 237.967 240.029 237.967 239.133V238.263L236.508 238.324C235.348 238.365 234.51 238.547 233.994 238.869C233.484 239.186 233.229 239.681 233.229 240.354C233.229 240.882 233.388 241.283 233.704 241.559C234.026 241.834 234.475 241.972 235.049 241.972ZM253.33 240.372C253.33 241.269 252.996 241.96 252.328 242.446C251.66 242.933 250.723 243.176 249.516 243.176C248.238 243.176 247.242 242.974 246.527 242.569V241.216C246.99 241.45 247.485 241.635 248.013 241.77C248.546 241.904 249.059 241.972 249.551 241.972C250.312 241.972 250.898 241.852 251.309 241.611C251.719 241.365 251.924 240.993 251.924 240.495C251.924 240.12 251.76 239.801 251.432 239.537C251.109 239.268 250.477 238.951 249.533 238.588C248.637 238.254 247.998 237.964 247.617 237.718C247.242 237.466 246.961 237.182 246.773 236.865C246.592 236.549 246.501 236.171 246.501 235.731C246.501 234.946 246.82 234.328 247.459 233.877C248.098 233.42 248.974 233.191 250.087 233.191C251.124 233.191 252.138 233.402 253.128 233.824L252.609 235.011C251.643 234.612 250.767 234.413 249.981 234.413C249.29 234.413 248.769 234.521 248.417 234.738C248.065 234.955 247.89 235.254 247.89 235.635C247.89 235.893 247.954 236.112 248.083 236.294C248.218 236.476 248.432 236.648 248.725 236.812C249.018 236.977 249.58 237.214 250.412 237.524C251.555 237.94 252.325 238.359 252.724 238.781C253.128 239.203 253.33 239.733 253.33 240.372ZM259.781 243.176C258.357 243.176 257.232 242.742 256.406 241.875C255.586 241.008 255.176 239.804 255.176 238.263C255.176 236.71 255.557 235.477 256.318 234.562C257.086 233.648 258.114 233.191 259.403 233.191C260.61 233.191 261.565 233.59 262.269 234.387C262.972 235.178 263.323 236.224 263.323 237.524V238.447H256.688C256.717 239.578 257.001 240.437 257.54 241.022C258.085 241.608 258.85 241.901 259.834 241.901C260.871 241.901 261.896 241.685 262.91 241.251V242.552C262.395 242.774 261.905 242.933 261.442 243.026C260.985 243.126 260.432 243.176 259.781 243.176ZM259.386 234.413C258.612 234.413 257.994 234.665 257.531 235.169C257.074 235.673 256.805 236.37 256.723 237.261H261.759C261.759 236.341 261.554 235.638 261.144 235.151C260.733 234.659 260.147 234.413 259.386 234.413ZM271.743 243L271.453 241.629H271.383C270.902 242.232 270.422 242.643 269.941 242.859C269.467 243.07 268.872 243.176 268.157 243.176C267.202 243.176 266.452 242.93 265.907 242.438C265.368 241.945 265.099 241.245 265.099 240.337C265.099 238.392 266.654 237.372 269.766 237.278L271.4 237.226V236.628C271.4 235.872 271.236 235.315 270.908 234.958C270.586 234.595 270.067 234.413 269.353 234.413C268.55 234.413 267.642 234.659 266.628 235.151L266.18 234.035C266.654 233.777 267.173 233.575 267.735 233.429C268.304 233.282 268.872 233.209 269.44 233.209C270.589 233.209 271.438 233.464 271.989 233.974C272.546 234.483 272.824 235.301 272.824 236.426V243H271.743ZM268.447 241.972C269.355 241.972 270.067 241.723 270.583 241.225C271.104 240.727 271.365 240.029 271.365 239.133V238.263L269.906 238.324C268.746 238.365 267.908 238.547 267.393 238.869C266.883 239.186 266.628 239.681 266.628 240.354C266.628 240.882 266.786 241.283 267.103 241.559C267.425 241.834 267.873 241.972 268.447 241.972ZM288.117 243V236.733C288.117 235.966 287.953 235.392 287.625 235.011C287.297 234.624 286.787 234.431 286.096 234.431C285.188 234.431 284.517 234.691 284.083 235.213C283.649 235.734 283.433 236.537 283.433 237.621V243H281.974V236.733C281.974 235.966 281.81 235.392 281.481 235.011C281.153 234.624 280.641 234.431 279.943 234.431C279.029 234.431 278.358 234.706 277.931 235.257C277.509 235.802 277.298 236.698 277.298 237.946V243H275.839V233.367H277.025L277.263 234.686H277.333C277.608 234.217 277.995 233.851 278.493 233.587C278.997 233.323 279.56 233.191 280.181 233.191C281.687 233.191 282.671 233.736 283.134 234.826H283.204C283.491 234.322 283.907 233.924 284.452 233.631C284.997 233.338 285.618 233.191 286.315 233.191C287.405 233.191 288.22 233.473 288.759 234.035C289.304 234.592 289.576 235.485 289.576 236.716V243H288.117ZM294.05 243H292.591V229.324H294.05V243ZM301.213 243.176C299.789 243.176 298.664 242.742 297.838 241.875C297.018 241.008 296.607 239.804 296.607 238.263C296.607 236.71 296.988 235.477 297.75 234.562C298.518 233.648 299.546 233.191 300.835 233.191C302.042 233.191 302.997 233.59 303.7 234.387C304.403 235.178 304.755 236.224 304.755 237.524V238.447H298.119C298.148 239.578 298.433 240.437 298.972 241.022C299.517 241.608 300.281 241.901 301.266 241.901C302.303 241.901 303.328 241.685 304.342 241.251V242.552C303.826 242.774 303.337 242.933 302.874 243.026C302.417 243.126 301.863 243.176 301.213 243.176ZM300.817 234.413C300.044 234.413 299.426 234.665 298.963 235.169C298.506 235.673 298.236 236.37 298.154 237.261H303.19C303.19 236.341 302.985 235.638 302.575 235.151C302.165 234.659 301.579 234.413 300.817 234.413ZM313.465 240.372C313.465 241.269 313.131 241.96 312.463 242.446C311.795 242.933 310.857 243.176 309.65 243.176C308.373 243.176 307.377 242.974 306.662 242.569V241.216C307.125 241.45 307.62 241.635 308.147 241.77C308.681 241.904 309.193 241.972 309.686 241.972C310.447 241.972 311.033 241.852 311.443 241.611C311.854 241.365 312.059 240.993 312.059 240.495C312.059 240.12 311.895 239.801 311.566 239.537C311.244 239.268 310.611 238.951 309.668 238.588C308.771 238.254 308.133 237.964 307.752 237.718C307.377 237.466 307.096 237.182 306.908 236.865C306.727 236.549 306.636 236.171 306.636 235.731C306.636 234.946 306.955 234.328 307.594 233.877C308.232 233.42 309.108 233.191 310.222 233.191C311.259 233.191 312.272 233.402 313.263 233.824L312.744 235.011C311.777 234.612 310.901 234.413 310.116 234.413C309.425 234.413 308.903 234.521 308.552 234.738C308.2 234.955 308.024 235.254 308.024 235.635C308.024 235.893 308.089 236.112 308.218 236.294C308.353 236.476 308.566 236.648 308.859 236.812C309.152 236.977 309.715 237.214 310.547 237.524C311.689 237.94 312.46 238.359 312.858 238.781C313.263 239.203 313.465 239.733 313.465 240.372ZM322.061 240.372C322.061 241.269 321.727 241.96 321.059 242.446C320.391 242.933 319.453 243.176 318.246 243.176C316.969 243.176 315.973 242.974 315.258 242.569V241.216C315.721 241.45 316.216 241.635 316.743 241.77C317.276 241.904 317.789 241.972 318.281 241.972C319.043 241.972 319.629 241.852 320.039 241.611C320.449 241.365 320.654 240.993 320.654 240.495C320.654 240.12 320.49 239.801 320.162 239.537C319.84 239.268 319.207 238.951 318.264 238.588C317.367 238.254 316.729 237.964 316.348 237.718C315.973 237.466 315.691 237.182 315.504 236.865C315.322 236.549 315.231 236.171 315.231 235.731C315.231 234.946 315.551 234.328 316.189 233.877C316.828 233.42 317.704 233.191 318.817 233.191C319.854 233.191 320.868 233.402 321.858 233.824L321.34 235.011C320.373 234.612 319.497 234.413 318.712 234.413C318.021 234.413 317.499 234.521 317.147 234.738C316.796 234.955 316.62 235.254 316.62 235.635C316.62 235.893 316.685 236.112 316.813 236.294C316.948 236.476 317.162 236.648 317.455 236.812C317.748 236.977 318.311 237.214 319.143 237.524C320.285 237.94 321.056 238.359 321.454 238.781C321.858 239.203 322.061 239.733 322.061 240.372ZM333.46 234.501H331.008V243H329.549V234.501H327.826V233.842L329.549 233.314V232.778C329.549 230.411 330.583 229.228 332.651 229.228C333.161 229.228 333.759 229.33 334.444 229.535L334.066 230.704C333.504 230.522 333.023 230.432 332.625 230.432C332.074 230.432 331.667 230.616 331.403 230.985C331.14 231.349 331.008 231.935 331.008 232.743V233.367H333.46V234.501ZM339.612 233.191C340.04 233.191 340.424 233.227 340.764 233.297L340.562 234.65C340.163 234.562 339.812 234.519 339.507 234.519C338.728 234.519 338.06 234.835 337.503 235.468C336.952 236.101 336.677 236.889 336.677 237.832V243H335.218V233.367H336.422L336.589 235.151H336.659C337.017 234.524 337.447 234.041 337.951 233.701C338.455 233.361 339.009 233.191 339.612 233.191ZM348.489 243L348.199 241.629H348.129C347.648 242.232 347.168 242.643 346.688 242.859C346.213 243.07 345.618 243.176 344.903 243.176C343.948 243.176 343.198 242.93 342.653 242.438C342.114 241.945 341.845 241.245 341.845 240.337C341.845 238.392 343.4 237.372 346.512 237.278L348.146 237.226V236.628C348.146 235.872 347.982 235.315 347.654 234.958C347.332 234.595 346.813 234.413 346.099 234.413C345.296 234.413 344.388 234.659 343.374 235.151L342.926 234.035C343.4 233.777 343.919 233.575 344.481 233.429C345.05 233.282 345.618 233.209 346.187 233.209C347.335 233.209 348.185 233.464 348.735 233.974C349.292 234.483 349.57 235.301 349.57 236.426V243H348.489ZM345.193 241.972C346.102 241.972 346.813 241.723 347.329 241.225C347.851 240.727 348.111 240.029 348.111 239.133V238.263L346.652 238.324C345.492 238.365 344.654 238.547 344.139 238.869C343.629 239.186 343.374 239.681 343.374 240.354C343.374 240.882 343.532 241.283 343.849 241.559C344.171 241.834 344.619 241.972 345.193 241.972ZM364.863 243V236.733C364.863 235.966 364.699 235.392 364.371 235.011C364.043 234.624 363.533 234.431 362.842 234.431C361.934 234.431 361.263 234.691 360.829 235.213C360.396 235.734 360.179 236.537 360.179 237.621V243H358.72V236.733C358.72 235.966 358.556 235.392 358.228 235.011C357.899 234.624 357.387 234.431 356.689 234.431C355.775 234.431 355.104 234.706 354.677 235.257C354.255 235.802 354.044 236.698 354.044 237.946V243H352.585V233.367H353.771L354.009 234.686H354.079C354.354 234.217 354.741 233.851 355.239 233.587C355.743 233.323 356.306 233.191 356.927 233.191C358.433 233.191 359.417 233.736 359.88 234.826H359.95C360.237 234.322 360.653 233.924 361.198 233.631C361.743 233.338 362.364 233.191 363.062 233.191C364.151 233.191 364.966 233.473 365.505 234.035C366.05 234.592 366.322 235.485 366.322 236.716V243H364.863ZM373.406 243.176C371.982 243.176 370.857 242.742 370.031 241.875C369.211 241.008 368.801 239.804 368.801 238.263C368.801 236.71 369.182 235.477 369.943 234.562C370.711 233.648 371.739 233.191 373.028 233.191C374.235 233.191 375.19 233.59 375.894 234.387C376.597 235.178 376.948 236.224 376.948 237.524V238.447H370.312C370.342 239.578 370.626 240.437 371.165 241.022C371.71 241.608 372.475 241.901 373.459 241.901C374.496 241.901 375.521 241.685 376.535 241.251V242.552C376.02 242.774 375.53 242.933 375.067 243.026C374.61 243.126 374.057 243.176 373.406 243.176ZM373.011 234.413C372.237 234.413 371.619 234.665 371.156 235.169C370.699 235.673 370.43 236.37 370.348 237.261H375.384C375.384 236.341 375.179 235.638 374.769 235.151C374.358 234.659 373.772 234.413 373.011 234.413ZM387.311 243L385.544 237.349C385.433 237.003 385.225 236.218 384.92 234.993H384.85C384.615 236.019 384.41 236.81 384.234 237.366L382.415 243H380.728L378.1 233.367H379.629C380.25 235.787 380.722 237.63 381.044 238.896C381.372 240.161 381.56 241.014 381.606 241.453H381.677C381.741 241.119 381.844 240.688 381.984 240.161C382.131 239.628 382.257 239.206 382.362 238.896L384.129 233.367H385.711L387.434 238.896C387.762 239.903 387.984 240.75 388.102 241.436H388.172C388.195 241.225 388.257 240.899 388.356 240.46C388.462 240.021 389.074 237.656 390.193 233.367H391.705L389.042 243H387.311ZM401.769 238.175C401.769 239.745 401.373 240.973 400.582 241.857C399.791 242.736 398.698 243.176 397.304 243.176C396.442 243.176 395.678 242.974 395.01 242.569C394.342 242.165 393.826 241.585 393.463 240.829C393.1 240.073 392.918 239.188 392.918 238.175C392.918 236.604 393.311 235.383 394.096 234.51C394.881 233.631 395.971 233.191 397.365 233.191C398.713 233.191 399.782 233.64 400.573 234.536C401.37 235.433 401.769 236.646 401.769 238.175ZM394.43 238.175C394.43 239.405 394.676 240.343 395.168 240.987C395.66 241.632 396.384 241.954 397.339 241.954C398.294 241.954 399.018 241.635 399.51 240.996C400.008 240.352 400.257 239.411 400.257 238.175C400.257 236.95 400.008 236.021 399.51 235.389C399.018 234.75 398.288 234.431 397.321 234.431C396.366 234.431 395.646 234.744 395.159 235.371C394.673 235.998 394.43 236.933 394.43 238.175ZM408.729 233.191C409.157 233.191 409.541 233.227 409.881 233.297L409.679 234.65C409.28 234.562 408.929 234.519 408.624 234.519C407.845 234.519 407.177 234.835 406.62 235.468C406.069 236.101 405.794 236.889 405.794 237.832V243H404.335V233.367H405.539L405.706 235.151H405.776C406.134 234.524 406.564 234.041 407.068 233.701C407.572 233.361 408.126 233.191 408.729 233.191ZM413.124 238.069C413.376 237.712 413.76 237.243 414.275 236.663L417.387 233.367H419.118L415.216 237.472L419.391 243H417.624L414.223 238.447L413.124 239.396V243H411.683V229.324H413.124V236.575C413.124 236.897 413.101 237.396 413.054 238.069H413.124ZM420.929 242.068C420.929 241.676 421.017 241.38 421.192 241.181C421.374 240.976 421.632 240.873 421.966 240.873C422.306 240.873 422.569 240.976 422.757 241.181C422.95 241.38 423.047 241.676 423.047 242.068C423.047 242.449 422.95 242.742 422.757 242.947C422.563 243.152 422.3 243.255 421.966 243.255C421.667 243.255 421.418 243.164 421.219 242.982C421.025 242.795 420.929 242.49 420.929 242.068Z" fill="black"/>
<path d="M112.5 30H97.125C95.25 21.375 87.75 15 78.75 15C69.75 15 62.25 21.375 60.375 30H7.5V37.5H60.375C62.25 46.125 69.75 52.5 78.75 52.5C87.75 52.5 95.25 46.125 97.125 37.5H112.5V30ZM78.75 45C72.375 45 67.5 40.125 67.5 33.75C67.5 27.375 72.375 22.5 78.75 22.5C85.125 22.5 90 27.375 90 33.75C90 40.125 85.125 45 78.75 45Z" fill="#0166A3"/>
<path d="M7.5 90H22.875C24.75 98.625 32.25 105 41.25 105C50.25 105 57.75 98.625 59.625 90H112.5V82.5H59.625C57.75 73.875 50.25 67.5 41.25 67.5C32.25 67.5 24.75 73.875 22.875 82.5H7.5V90ZM41.25 75C47.625 75 52.5 79.875 52.5 86.25C52.5 92.625 47.625 97.5 41.25 97.5C34.875 97.5 30 92.625 30 86.25C30 79.875 34.875 75 41.25 75Z" fill="#0166A3"/>
</svg>
