<svg width="231" height="155" viewBox="0 0 231 155" fill="none" xmlns="http://www.w3.org/2000/svg">
<path d="M12.4249 53.9385C8.4782 54.7322 5.27773 56.8206 3.14668 60.0263C1.82342 61.9991 0.961796 64.3263 0.430956 67.2393C0.000128746 69.7052 0.107822 73.1498 0.754062 76.4635C1.76958 81.6959 4.62383 87.2828 8.65513 91.945C11.5094 95.2355 16.4331 98.5029 20.5567 99.8361C24.7034 101.185 29.3579 101.1 33.4892 99.628C36.0203 98.7264 39.4823 96.6997 41.7749 94.804C43.0136 93.7791 45.5985 91.1436 45.7139 90.7814C45.7447 90.6812 45.9755 90.3653 46.214 90.057C49.1221 86.4506 51.4608 81.6265 52.4456 77.2264C53.1688 74.0052 53.515 70.6377 53.2688 69.3893C53.1842 69.0117 53.0149 68.0407 52.8918 67.2393C51.8455 60.4425 48.0219 55.8342 41.998 54.162C41.0671 53.9154 40.5517 53.8692 38.1437 53.8692C35.5741 53.8537 35.251 53.8846 33.8739 54.2313C31.6197 54.8016 29.2117 55.7957 27.2115 56.9901L26.7268 57.283L25.1265 56.4507C23.0955 55.3718 21.703 54.8247 19.7182 54.3007C18.2872 53.9385 17.8717 53.8846 15.6176 53.846C14.2482 53.8152 12.8172 53.8692 12.4249 53.9385ZM18.0487 58.724C19.1335 58.9475 20.426 59.3867 21.7492 59.957L22.5416 60.3192L21.0568 61.8604C20.2336 62.7081 19.472 63.5634 19.3489 63.7638C19.2258 63.9641 18.7103 64.6808 18.1949 65.3744C16.3562 67.8711 14.7867 70.7532 13.7558 73.5583C13.5019 74.2364 13.2404 74.876 13.1711 74.9608C12.9942 75.2074 12.6864 76.3325 12.2633 78.2744C11.9171 79.9543 11.8863 80.3165 11.8863 83.5454C11.871 86.281 11.9248 87.1904 12.094 87.8762C12.2171 88.3617 12.2864 88.747 12.2326 88.747C12.1095 88.7316 10.4938 86.7357 9.71682 85.6106C6.17019 80.5169 4.33146 73.8588 5.03156 68.5878C5.28544 66.7152 6.07786 64.2185 6.82412 62.9855C7.80886 61.3056 9.85527 59.6256 11.6632 58.9937C13.3711 58.3772 15.833 58.2848 18.0487 58.724ZM41.0056 58.7934C46.3986 60.2344 49.2913 66.145 48.3066 73.6507C47.7603 77.7966 46.3294 81.5572 43.9291 85.1945C43.052 86.5122 41.2749 88.7701 41.1902 88.693C41.1595 88.6622 41.2287 88.0997 41.3441 87.4138C41.8134 84.5163 41.7365 81.4108 41.0826 78.1357C40.7517 76.4866 40.0978 74.1824 39.9132 74.0437C39.8747 74.0052 39.6208 73.4504 39.3592 72.7953C39.0976 72.1403 38.6514 71.1308 38.3437 70.5375C37.7898 69.4124 37.4359 69.135 36.8974 69.343C36.7281 69.397 34.4509 70.7841 31.8198 72.4255C29.1886 74.0592 26.7883 75.531 26.4652 75.6851C26.1575 75.8393 25.8267 76.0704 25.7266 76.186C25.4343 76.5328 25.6266 77.419 26.119 78.0972C26.3575 78.4285 26.7576 79.0142 27.0268 79.3995C27.4884 80.0776 27.75 80.2857 28.127 80.2857C28.2808 80.2857 31.4659 78.3129 33.9431 76.6638C34.5817 76.2477 35.1817 75.847 35.2818 75.8007C35.4895 75.6774 35.9049 76.9644 36.3819 79.2377C37.4282 84.2852 36.605 89.3481 34.2278 92.4845C33.3815 93.6096 32.1967 94.5497 30.8504 95.1893C29.3656 95.8982 28.0654 96.1294 26.219 96.0524C23.5494 95.9137 21.8954 95.1893 20.0182 93.3167C19.0335 92.3303 18.7103 91.8911 18.2487 90.9432C16.3408 86.9746 16.0946 83.0676 17.3871 77.8197C19.4027 69.5819 25.9959 61.9066 33.3123 59.2865C34.2278 58.9706 35.8972 58.5776 36.9974 58.4389C37.8898 58.3387 39.967 58.5159 41.0056 58.7934ZM76.8873 63.4401C75.4025 63.5943 74.1177 63.8177 73.7561 63.9796C73.533 64.0797 72.7791 64.3803 72.1174 64.6577C70.1864 65.4206 68.9324 66.2837 67.2245 67.9867C65.9474 69.2737 65.5858 69.736 65.0396 70.7764C63.7702 73.2346 63.3009 75.5079 63.4394 78.4747C63.5625 81.0101 64.1779 83.1369 65.4012 85.1713C66.0243 86.2117 67.7938 88.0457 68.9786 88.8626C70.4095 89.8644 72.6252 90.8893 74.0254 91.2052C75.3871 91.5135 78.4029 91.4981 79.8646 91.1744C81.8418 90.7429 84.4422 89.3404 85.8347 87.9687L86.4886 87.3136V88.6853C86.4886 89.795 86.5424 90.1264 86.7655 90.4886L87.0425 90.9432H88.9505C90.0045 90.9432 90.943 90.8893 91.02 90.8353C91.4662 90.5425 91.4893 90.1033 91.4893 84.578C91.4893 79.7231 91.4585 78.9988 91.2662 78.8215C91.0892 78.6289 90.3738 78.598 85.65 78.598H80.2416L79.9647 78.9602C79.7108 79.2762 79.6723 79.5305 79.6723 80.9022C79.6723 82.4434 79.6877 82.4819 80.0493 82.8287C80.4262 83.1601 80.5109 83.1755 82.2034 83.1755C83.1881 83.1755 83.9806 83.2294 83.9806 83.2988C83.9806 83.5608 82.642 84.5857 81.7034 85.0635C80.3801 85.7031 78.726 86.0036 77.1258 85.8957C73.4407 85.6491 70.7942 83.4991 69.8402 79.9697C69.671 79.3455 69.6017 78.5672 69.6017 77.3497C69.6017 75.8238 69.6556 75.4771 69.9941 74.5061C70.8865 71.9246 72.6098 70.1522 75.0256 69.2891C76.1642 68.8884 78.4183 68.7882 79.8108 69.081C81.9803 69.5357 83.9267 70.8996 84.9422 72.672C85.5577 73.7432 85.7193 73.8126 86.7809 73.4504C88.6735 72.7954 90.5815 71.9785 90.7046 71.7704C90.8892 71.493 90.443 70.4219 89.6044 69.1195C88.2119 66.985 86.4348 65.5516 83.919 64.5806C83.3036 64.3417 82.7112 64.0951 82.5727 64.0258C81.9496 63.7021 78.2106 63.3168 76.8873 63.4401ZM115.362 64.0643L115 64.3417V77.3111C115 89.0167 115.031 90.3113 115.223 90.6119L115.446 90.9586L121.593 90.9432C127.933 90.9432 128.14 90.9278 130.233 90.3576C134.603 89.1939 137.395 86.99 139.065 83.4221C140.027 81.3722 140.234 80.2857 140.25 77.3574C140.25 74.3212 140.042 73.304 138.942 71.0461C137.218 67.5398 134.28 65.3744 129.748 64.2878C127.771 63.8332 126.963 63.7715 121.247 63.7715C115.877 63.7792 115.723 63.7869 115.362 64.0643ZM128.533 69.5203C130.441 70.0443 131.818 71.0615 132.995 72.7799C133.356 73.3194 133.787 74.1362 133.926 74.614C134.287 75.7545 134.395 77.4884 134.203 78.7368C134.049 79.7617 133.587 81.2489 133.395 81.3876C133.326 81.4262 133.033 81.8346 132.741 82.2739C131.687 83.8382 130.294 84.8092 128.402 85.287C127.486 85.5258 126.856 85.5644 124.078 85.5644H120.839V77.4807C120.839 73.0265 120.878 69.3353 120.947 69.2814C121.001 69.212 122.547 69.1966 124.386 69.2428C126.863 69.266 127.933 69.3507 128.533 69.5203ZM178.839 63.8717C178.309 64.0798 178.301 64.2724 178.285 69.1735V73.9436L177.593 73.2885C175.316 71.154 171.085 70.9844 167.93 72.9032C167.469 73.1807 166.722 73.7894 166.245 74.2595C163.322 77.157 162.591 82.2199 164.522 86.1732C166.153 89.533 169.807 91.7216 173.369 91.475C175.216 91.3517 176.278 90.8662 177.708 89.5176L178.293 88.9628V89.6178C178.293 89.9954 178.393 90.4192 178.516 90.6196C178.739 90.9663 178.755 90.9664 181.009 90.9664C182.886 90.9664 183.317 90.9278 183.502 90.7429C183.694 90.5502 183.725 89.1631 183.725 77.4576C183.725 64.5036 183.725 64.388 183.448 64.0875C183.171 63.7946 183.048 63.7792 181.109 63.7946C179.963 63.7869 178.947 63.8332 178.839 63.8717ZM175.639 77.0491C176.485 77.4344 177.555 78.521 177.993 79.4457C178.301 80.1007 178.355 80.4013 178.355 81.5264C178.355 82.7439 178.316 82.9289 177.893 83.7765C177.101 85.3871 175.708 86.2425 173.9 86.2425C171.146 86.2425 169.23 84.0771 169.407 81.1796C169.492 79.8618 169.977 78.8215 170.938 77.9045C171.969 76.9027 172.662 76.6561 174.108 76.7255C174.639 76.7563 175.277 76.8796 175.639 77.0491ZM200.604 64.1183L200.258 64.4496V69.1812C200.258 71.7781 200.227 73.8973 200.188 73.8973C200.158 73.8973 199.858 73.6199 199.504 73.2885C198.865 72.6644 197.819 72.1095 196.765 71.8013C195.849 71.5393 193.403 71.5624 192.341 71.8552C190.464 72.3715 188.556 73.6199 187.502 75.0609C187.156 75.5156 186.833 75.9317 186.764 75.978C186.587 76.1013 186.194 76.949 185.856 77.9893C185.356 79.4997 185.171 81.2181 185.34 82.6669C185.51 83.9153 186.063 85.8264 186.456 86.4274C187.61 88.1459 188.902 89.4097 190.472 90.3113C191.81 91.0742 192.741 91.3671 194.211 91.475C196.326 91.6291 197.934 91.0434 199.481 89.5638C199.804 89.2556 200.096 89.0244 200.15 89.0244C200.204 89.0244 200.25 89.271 200.25 89.5947C200.25 90.1649 200.442 90.6735 200.719 90.8585C200.927 90.9972 205.143 90.9972 205.351 90.8585C205.781 90.581 205.812 89.9029 205.812 77.3651C205.812 63.9642 205.828 64.1183 205.189 63.8717C205.066 63.8332 204.05 63.7869 202.95 63.7869C200.996 63.7792 200.919 63.7869 200.604 64.1183ZM197.503 77.0337C198.38 77.4807 199.242 78.3206 199.642 79.1298C199.865 79.5767 200.111 79.9774 200.188 80.0314C200.273 80.0853 200.327 80.7095 200.327 81.4185C200.327 82.5667 200.288 82.7902 199.927 83.5145C199.019 85.2869 197.857 86.1192 196.088 86.2194C194.172 86.3196 192.726 85.4873 191.887 83.7765C191.472 82.9289 191.426 82.7516 191.426 81.5264C191.441 80.3782 191.48 80.1084 191.818 79.4457C192.218 78.6443 192.403 78.4054 193.195 77.6579C194.218 76.7178 196.28 76.4095 197.503 77.0337ZM228.861 67.8943C228.808 67.9328 228.761 68.4106 228.761 68.9346C228.761 69.6821 228.8 69.8748 228.969 69.8748C229.123 69.8748 229.177 69.7206 229.177 69.2814V68.6957L229.454 69.1427C229.608 69.3893 229.777 69.5973 229.846 69.5973C229.915 69.5973 230.069 69.3893 230.192 69.1427L230.416 68.6957V69.2814C230.431 69.7823 230.469 69.8748 230.708 69.8748C230.969 69.8748 231 69.8054 230.962 68.8652C230.923 67.979 230.893 67.8634 230.639 67.8634C230.469 67.8634 230.262 68.0561 230.069 68.4029L229.762 68.9269L229.608 68.4414C229.508 68.1794 229.346 67.9174 229.231 67.8712C228.977 67.7864 228.977 67.7864 228.861 67.8943ZM101.298 71.7396C97.7132 72.4486 94.859 74.8221 93.7742 77.997C93.5665 78.6058 93.3434 79.176 93.2741 79.2762C92.9279 79.7231 92.9125 83.4914 93.2741 83.9384C93.3434 84.0386 93.4819 84.3545 93.5819 84.6627C93.9127 85.7416 94.7513 87.121 95.6514 88.092C96.513 89.0244 98.4056 90.4192 98.7979 90.4192C98.8979 90.4192 99.0518 90.504 99.1287 90.6119C99.2134 90.712 99.7673 90.9432 100.367 91.1282C101.783 91.5597 104.26 91.5828 105.822 91.1975C107.045 90.8893 109.045 89.8259 110.123 88.9242C113.361 86.1809 114.354 81.6959 112.654 77.5192C111.792 75.4077 109.984 73.5506 107.815 72.5642C105.976 71.7088 103.191 71.362 101.298 71.7396ZM104.737 77.0337C105.014 77.1339 105.422 77.3497 105.63 77.5346C107.476 79.0758 107.83 79.7154 107.838 81.5264C107.838 82.5821 107.784 82.8133 107.391 83.607C106.768 84.8862 105.545 85.7724 104.014 86.0884C102.106 86.4737 100.09 85.4488 99.1287 83.5762C98.6594 82.6592 98.5979 80.9022 99.0211 79.7925C99.3519 78.9063 100.521 77.5885 101.383 77.157C102.298 76.6715 103.583 76.633 104.737 77.0337ZM149.836 71.624C148.405 71.9169 147.943 72.0402 147.12 72.3715C144.689 73.3733 142.95 75.2305 142.096 77.7504C141.557 79.3147 141.357 80.6479 141.457 82.1506C141.557 83.7457 141.834 84.7861 142.527 86.1732C143.442 88.0457 145.158 89.7796 146.674 90.3499C146.997 90.4731 147.258 90.6273 147.258 90.6966C147.258 91.0588 150.136 91.5828 151.49 91.475C153.298 91.3208 154.328 90.8508 155.721 89.5176L156.306 88.9628V89.6178C156.306 89.9954 156.406 90.4192 156.529 90.6196C156.752 90.9663 156.767 90.9664 159.091 90.9664C161.16 90.9664 161.445 90.9355 161.637 90.7198C161.845 90.4809 161.876 89.6486 161.876 81.5109C161.876 73.0188 161.86 72.5488 161.622 72.3407C161.399 72.148 161.006 72.1018 159.144 72.1018C156.459 72.1018 156.306 72.1558 156.306 73.2423V73.9513L155.621 73.3117C154.775 72.5179 153.759 72.0093 152.559 71.7473C151.705 71.5547 150.466 71.5007 149.836 71.624ZM153.444 76.9952C153.79 77.0954 154.305 77.4652 154.921 78.0663C155.767 78.8832 155.898 79.0758 156.175 79.9928C156.929 82.4357 155.967 84.8169 153.821 85.8187C152.705 86.335 151.151 86.3196 150.02 85.7879C149.092 85.3247 148.347 84.5619 147.904 83.6224C147.666 83.0984 147.612 82.7208 147.612 81.5264C147.612 80.2472 147.651 79.9851 147.958 79.3918C148.497 78.3129 149.728 77.1878 150.597 76.9489C151.728 76.6715 152.344 76.6715 153.444 76.9952ZM207.336 72.2328C206.874 72.4948 206.92 72.9957 207.612 75.2459C211.398 87.4524 212.298 90.2574 212.521 90.5733C212.782 90.9586 212.813 90.9586 214.26 90.9586C215.375 90.9586 215.706 90.9972 215.652 91.1282C215.621 91.2284 215.483 91.6522 215.375 92.0837C214.906 93.7097 214.152 94.3339 212.636 94.3416C211.79 94.3416 211.551 94.2877 210.69 93.8253C209.551 93.2319 209.051 93.1857 208.643 93.6173C208.028 94.28 206.935 96.1294 206.935 96.4993C206.935 97.0156 207.482 97.5088 208.659 98.0945C211.09 99.2889 214.737 99.2735 216.975 98.0637C217.96 97.5242 219.199 96.2296 219.768 95.1354C220.314 94.095 220.476 93.5787 221.176 91.0819C221.437 90.1264 222.245 87.3214 222.968 84.84C225.038 77.7812 226.407 72.9803 226.407 72.7337C226.407 72.6258 226.307 72.4178 226.184 72.3022C226.007 72.1249 225.569 72.0787 223.615 72.0787C221.514 72.0787 221.237 72.1095 221.014 72.3253C220.737 72.6027 220.583 73.1036 219.314 77.9739C217.968 83.1601 217.16 86.0884 217.091 86.0884C217.037 86.0884 215.967 82.4126 214.075 75.6851C213.813 74.7296 213.536 73.8819 213.475 73.8126C213.421 73.7278 213.282 73.4118 213.182 73.0805C212.905 72.1249 212.782 72.0787 209.997 72.0787C208.659 72.0941 207.459 72.1635 207.336 72.2328Z" fill="black"/>
</svg>
