<svg width="334" height="55" viewBox="0 0 334 55" fill="none" xmlns="http://www.w3.org/2000/svg">
<path d="M323.902 5.34138C323.902 3.8931 325.305 3.27241 327.572 3.27241C329.799 3.27241 331.242 3.81035 331.242 5.34138C331.242 7.20345 328.974 7.41035 327.572 7.41035C325.305 7.41035 323.902 6.83104 323.902 5.34138ZM333.387 5.34138C333.387 2.48621 331.242 0.5 327.572 0.5C324.933 0.5 321.758 1.82414 321.758 5.34138C321.758 8.6931 324.562 10.2241 327.572 10.2241C330.624 10.2241 333.387 8.6931 333.387 5.34138ZM323.902 18.7483V16.7207C323.902 15.4793 324.686 15.0241 325.346 15.0241C326.047 15.0241 326.789 15.5207 326.789 16.7207V18.7483H323.902ZM328.768 18.7483V16.8035L333.263 15.0655V12.1276L328.273 14.2379C327.82 12.9966 326.624 12.2517 325.346 12.2517C323.243 12.2517 321.923 13.6172 321.923 16.3483V21.3966H333.263V18.7483H328.768ZM326.129 23.9207C323.408 24.2103 321.758 25.6586 321.758 28.5138C321.758 31.9483 324.439 33.6035 327.572 33.6035C330.665 33.6035 333.387 31.9483 333.387 28.5966C333.387 25.9897 331.861 24.169 329.263 23.9207L329.098 26.4862C330.17 26.6517 331.242 27.231 331.242 28.4724C331.242 30.4586 329.263 30.6655 327.696 30.6655C326.335 30.6655 323.861 30.5 323.861 28.5966C323.861 27.1483 325.016 26.6931 326.294 26.6931L326.129 23.9207ZM333.222 36.2104H321.882V38.8586H333.222V36.2104ZM333.222 47.631V49.4517L323.985 52.1828V52.2655H333.222V54.5H321.882V50.3207L328.686 48.3345L321.882 46.2655V42.0862H333.222V44.7345H323.985V44.8172L333.222 47.631ZM99.8268 54.5H56.9415C53.6014 42.1276 46.5913 16.0172 46.5913 16.0172H46.4675V54.5H28.9423V1.32759H59.3744C62.5908 13.5759 69.3122 38.8172 69.3122 38.8172H69.4359V1.32759H87.0024V9.39655C82.7139 13.9483 80.116 19.7414 80.116 27.0241C80.116 37.4931 85.9715 50.4448 99.8268 54.5ZM308.274 1.32759V54.5H289.883V12.8724H289.635L279.079 54.5H262.131L251.575 12.8724H251.327V54.5H219.163L215.947 43.0379H198.669L195.453 54.5H164.732C164.732 54.5 163.701 46.6793 163.412 44.6931C162.505 38.1138 160.526 36.5 156.609 36.5H151.248V54.4586H119.785C128.857 52.3897 137.022 48.2517 141.722 45.4379L135.125 20.3207L117.558 24.9552L121.311 39.1897C120.197 39.9759 116.569 41.2586 114.053 41.2586C105.682 41.2586 101.682 32.8172 101.682 25.5759C101.682 13.8655 113.558 9.39655 124.032 9.39655C126.465 9.39655 129.599 9.60345 130.053 9.64483L127.908 1.32759H164.526C179.165 1.32759 184.855 8.27931 184.855 15.7276C184.855 26.9414 174.175 29.0517 172.154 29.4241C172.113 29.4241 172.113 29.7552 172.154 29.7552C176.402 30.5828 179.536 32.6517 181.556 36.2517C181.474 36.0862 192.731 4.26552 193.762 1.32759H221.885L233.761 34.6793H233.926V1.32759H264.193C264.193 1.32759 271.203 30.4586 271.244 30.4586C273.553 20.7345 278.131 1.32759 278.131 1.32759H308.274ZM0.613257 1.32759H20.9838C20.9838 1.32759 20.9425 36.6655 20.9425 54.5H0.572021L0.613257 1.32759ZM207.164 12.7483L201.473 30.2931H213.225L207.494 12.7483H207.164ZM151.33 24.5414H157.392C162.34 24.5414 164.402 21.9759 164.402 18.831C164.402 14.8172 160.98 13.2448 157.392 13.2448H151.33V24.5414Z" fill="#3F71C0"/>
</svg>
