<svg id="Слой_2" data-name="Слой 2" xmlns="http://www.w3.org/2000/svg" viewBox="0 0 375 410" width="400"><defs><style>.cls-1{fill:#21618f;}</style></defs><polygon class="cls-1" points="273 144 287 124 167 141 63 112 66 117 159 152 237 154 273 144"/><polygon class="cls-1" points="303 99 289 121 166 138 70 111 163 128 303 99"/><polygon class="cls-1" points="306 96 336 52 164 115 71 108 162 125 306 96"/><polygon class="cls-1" points="372 1 339 48 164 111 67 105 163 103 355 6 372 1"/><polygon class="cls-1" points="336 12 162 99 64 102 336 12"/><polygon class="cls-1" points="227 157 183 170 139 163 66 122 66 119 159 155 227 157"/><polygon class="cls-1" points="176 171 145 180 119 167 66 128 66 125 139 166 176 171"/><polygon class="cls-1" points="141 181 125 185 96 170 66 131 114 167 141 181"/><polygon class="cls-1" points="122 187 107 191 80 169 67 137 94 172 122 187"/><polygon class="cls-1" points="104 192 90 196 66 184 65 142 78 171 104 192"/><path class="cls-1" d="M60,198V115L40,137v16L22,166,4,153V137l-20-22v83l29,33v30H8l2,6,3-3h6l3,4,3-4h6l3,3,2-6H31V230Zm-35-4v67H20V194L1,177V158l21,15,21.5-16v18.5Z"/><polygon class="cls-1" points="-15 112 5 134 20 120 20 110 9 95 -15 112"/><polygon class="cls-1" points="59 112 39 134 24 120 24 110 35 95 59 112"/><polygon class="cls-1" points="-16 202 2 243 -1 257 10 255 10 232 -16 202"/><polygon class="cls-1" points="60 202 42 243 45 257 34 255 34 232 60 202"/><path class="cls-1" d="M40,53,53,65,33,37,10,25-16,5l-10,5h7L-7,27l-4,68L22,78,56,99ZM15,38l-4-1V33l8,7Z"/><polygon class="cls-1" points="-155 304 -125 323 4 261 -155 304"/><polygon class="cls-1" points="-90 311 -72 324 6 265 -90 311"/><polygon class="cls-1" points="-92 344 -71 357 8 268 -92 344"/><polygon class="cls-1" points="-58 349 -40 357 10 271 -58 349"/><polygon class="cls-1" points="-44 372 -24 384 14 272 -44 372"/><polygon class="cls-1" points="17 274 0 323 10 326 17 274"/><polygon class="cls-1" points="21 270 5 402 20 410 21 270"/><polygon class="cls-1" points="25 270 25 381 38 376 25 270"/><polygon class="cls-1" points="29 274 45 399 67 386 29 274"/><polygon class="cls-1" points="33 273 50 324 58 316 33 273"/><polygon class="cls-1" points="36 270 93 370 113 358 36 270"/><polygon class="cls-1" points="39 268 87 323 98 313 39 268"/><polygon class="cls-1" points="41 264 141 341 167 325 41 264"/><polygon class="cls-1" points="42 261 147 311 168 295 42 261"/></svg>