<svg width="180" height="73" viewBox="0 0 180 73" fill="none" xmlns="http://www.w3.org/2000/svg">
<path d="M35.0002 67.2527V72.2481H0V67.2527H35.0002ZM89.697 67.2527C86.186 70.4773 81.5873 72.2609 76.8182 72.2478L40.0001 72.1986V67.2527H89.697ZM141.738 67.2527L139.992 72.2478L138.262 67.2527H141.738ZM125 67.2527V72.2481H100V67.2527H125H125ZM180 67.2527V72.2481H155V67.2527H180ZM95.3603 57.7171C94.9312 59.4693 94.2538 61.1513 93.3486 62.7122H40.0001V57.7171H95.3603ZM145.089 57.7171L143.334 62.7125H136.666L134.911 57.7171H145.089ZM125 57.7171V62.7122H100V57.7171H125H125ZM180 57.7171V62.7122H155V57.7171H180ZM35.0002 57.7171V62.7122H0V57.7171H35.0002ZM24.9996 48.1805V53.1759H9.99984V48.1805H25H24.9996ZM64.9997 48.1805V53.1759H49.9996V48.1805H64.9997ZM95.24 48.1805C95.6831 49.8087 95.9079 51.4885 95.9087 53.1759H79.091V48.1805H95.24ZM148.44 48.1805L146.685 53.1759H133.315L131.559 48.1805H148.44ZM125 48.1805V53.1759H110V48.1805H125ZM170 48.1805V53.1759H155V48.1805H170ZM24.9996 38.6445V43.6396H9.99984V38.6445H25H24.9996ZM125 38.6445V43.6396H110V38.6445H125ZM170 38.6445V43.6396H155V38.6445H170ZM89.1721 38.6445C90.8372 40.0596 92.2477 41.7489 93.3427 43.6392H49.9999V38.6442L89.1721 38.6445ZM151.791 38.6445L150.036 43.6396H129.964L128.209 38.6442H151.791V38.6445ZM138.594 29.1086L140 33.1462L141.405 29.1086H169.999V34.1036H155V29.5142L153.387 34.104H126.613L125 29.5135V34.104H110V29.1086H138.594H138.594ZM49.9996 29.1086H93.3434C92.2484 30.999 90.8377 32.6884 89.1724 34.1036H49.9999V29.1082L49.9996 29.1086ZM24.9996 29.1086V34.1036H9.99984V29.1082H25L24.9996 29.1086ZM24.9996 19.5723V24.5673H9.99984V19.5723H25H24.9996ZM64.9997 19.5723V24.5673H49.9996V19.5723H64.9997ZM95.9091 19.5723C95.9081 21.2595 95.6832 22.9392 95.24 24.5673H79.091V19.5723H95.9091ZM135.275 19.5723L137.013 24.5673H110V19.5723H135.275H135.275ZM169.999 19.5723V24.5673H142.986L144.725 19.5723H169.999ZM34.9995 10.036V15.0314H0V10.0356H35.0002L34.9995 10.036ZM93.3483 10.036C94.2534 11.5968 94.9308 13.2788 95.3599 15.031H39.9994V10.036H93.3483ZM180 10.036V15.031H146.305L148.044 10.036H180H180ZM131.955 10.036L133.694 15.031H99.9998V10.036H131.955H131.955ZM35.0005 0.500369V5.49506H0V0.500017H35.0002L35.0005 0.500369ZM76.8182 0.500017C81.586 0.493569 86.1824 2.27628 89.697 5.49506H40.0001V0.500017H76.8182ZM180 0.500017V5.49541H149.625L151.364 0.500369H180V0.500017ZM128.637 0.500017L130.375 5.49541H100V0.500369H128.636L128.637 0.500017Z" fill="black"/>
</svg>
