<svg width="467" height="215" viewBox="0 0 467 215" fill="none" xmlns="http://www.w3.org/2000/svg">
<rect width="467" height="180" rx="20" fill="#0166A3"/>
<path d="M175.763 72L170.606 55.1982H170.475C170.66 58.6162 170.753 60.8965 170.753 62.0391V72H166.695V50.584H172.877L177.945 66.9609H178.033L183.409 50.584H189.591V72H185.357V61.8633C185.357 61.3848 185.362 60.833 185.372 60.208C185.392 59.583 185.46 57.9229 185.577 55.2275H185.445L179.923 72H175.763ZM205.045 72L204.181 69.7734H204.063C203.312 70.7207 202.535 71.3799 201.734 71.751C200.943 72.1123 199.908 72.293 198.629 72.293C197.057 72.293 195.816 71.8438 194.908 70.9453C194.01 70.0469 193.561 68.7676 193.561 67.1074C193.561 65.3691 194.166 64.0898 195.377 63.2695C196.598 62.4395 198.434 61.9805 200.885 61.8926L203.727 61.8047V61.0869C203.727 59.4268 202.877 58.5967 201.178 58.5967C199.869 58.5967 198.331 58.9922 196.563 59.7832L195.084 56.7656C196.969 55.7793 199.059 55.2861 201.354 55.2861C203.551 55.2861 205.235 55.7646 206.407 56.7217C207.579 57.6787 208.165 59.1338 208.165 61.0869V72H205.045ZM203.727 64.4121L201.998 64.4707C200.699 64.5098 199.732 64.7441 199.098 65.1738C198.463 65.6035 198.146 66.2578 198.146 67.1367C198.146 68.3965 198.868 69.0264 200.313 69.0264C201.349 69.0264 202.174 68.7285 202.789 68.1328C203.414 67.5371 203.727 66.7461 203.727 65.7598V64.4121ZM227.896 72H223.429V62.4346C223.429 61.2529 223.219 60.3691 222.799 59.7832C222.379 59.1875 221.71 58.8896 220.792 58.8896C219.542 58.8896 218.639 59.3096 218.082 60.1494C217.525 60.9795 217.247 62.3613 217.247 64.2949V72H212.779V55.623H216.192L216.793 57.7178H217.042C217.54 56.9268 218.224 56.3311 219.093 55.9307C219.972 55.5205 220.968 55.3154 222.081 55.3154C223.985 55.3154 225.431 55.833 226.417 56.8682C227.403 57.8936 227.896 59.3779 227.896 61.3213V72ZM242.896 72L242.032 69.7734H241.915C241.163 70.7207 240.387 71.3799 239.586 71.751C238.795 72.1123 237.76 72.293 236.48 72.293C234.908 72.293 233.668 71.8438 232.76 70.9453C231.861 70.0469 231.412 68.7676 231.412 67.1074C231.412 65.3691 232.018 64.0898 233.229 63.2695C234.449 62.4395 236.285 61.9805 238.736 61.8926L241.578 61.8047V61.0869C241.578 59.4268 240.729 58.5967 239.029 58.5967C237.721 58.5967 236.183 58.9922 234.415 59.7832L232.936 56.7656C234.82 55.7793 236.91 55.2861 239.205 55.2861C241.402 55.2861 243.087 55.7646 244.259 56.7217C245.431 57.6787 246.017 59.1338 246.017 61.0869V72H242.896ZM241.578 64.4121L239.85 64.4707C238.551 64.5098 237.584 64.7441 236.949 65.1738C236.314 65.6035 235.997 66.2578 235.997 67.1367C235.997 68.3965 236.72 69.0264 238.165 69.0264C239.2 69.0264 240.025 68.7285 240.641 68.1328C241.266 67.5371 241.578 66.7461 241.578 65.7598V64.4121ZM264.884 55.623V57.8936L262.32 58.5527C262.789 59.2852 263.023 60.1055 263.023 61.0137C263.023 62.7715 262.408 64.1436 261.178 65.1299C259.957 66.1064 258.258 66.5947 256.08 66.5947L255.274 66.5508L254.615 66.4775C254.156 66.8291 253.927 67.2197 253.927 67.6494C253.927 68.2939 254.747 68.6162 256.388 68.6162H259.171C260.968 68.6162 262.335 69.002 263.272 69.7734C264.22 70.5449 264.693 71.6777 264.693 73.1719C264.693 75.0859 263.893 76.5703 262.291 77.625C260.699 78.6797 258.409 79.207 255.421 79.207C253.136 79.207 251.388 78.8066 250.177 78.0059C248.976 77.2148 248.375 76.1016 248.375 74.666C248.375 73.6797 248.683 72.8545 249.298 72.1904C249.913 71.5264 250.816 71.0527 252.008 70.7695C251.549 70.5742 251.148 70.2568 250.807 69.8174C250.465 69.3682 250.294 68.8945 250.294 68.3965C250.294 67.7715 250.475 67.2539 250.836 66.8438C251.197 66.4238 251.72 66.0137 252.403 65.6133C251.544 65.2422 250.86 64.6465 250.353 63.8262C249.854 63.0059 249.605 62.0391 249.605 60.9258C249.605 59.1387 250.187 57.7568 251.349 56.7803C252.511 55.8037 254.171 55.3154 256.329 55.3154C256.788 55.3154 257.33 55.3594 257.955 55.4473C258.59 55.5254 258.995 55.584 259.171 55.623H264.884ZM252.242 74.3145C252.242 74.9297 252.535 75.4131 253.121 75.7646C253.717 76.1162 254.547 76.292 255.611 76.292C257.213 76.292 258.468 76.0723 259.376 75.6328C260.284 75.1934 260.738 74.5928 260.738 73.8311C260.738 73.2158 260.47 72.791 259.933 72.5566C259.396 72.3223 258.565 72.2051 257.442 72.2051H255.128C254.308 72.2051 253.619 72.3955 253.062 72.7764C252.516 73.167 252.242 73.6797 252.242 74.3145ZM253.868 60.9844C253.868 61.873 254.068 62.5762 254.469 63.0938C254.879 63.6113 255.499 63.8701 256.329 63.8701C257.169 63.8701 257.784 63.6113 258.175 63.0938C258.565 62.5762 258.761 61.873 258.761 60.9844C258.761 59.0117 257.95 58.0254 256.329 58.0254C254.688 58.0254 253.868 59.0117 253.868 60.9844ZM274.376 58.4941C273.429 58.4941 272.687 58.7969 272.149 59.4023C271.612 59.998 271.305 60.8477 271.227 61.9512H277.496C277.477 60.8477 277.188 59.998 276.632 59.4023C276.075 58.7969 275.323 58.4941 274.376 58.4941ZM275.006 72.293C272.369 72.293 270.309 71.5654 268.824 70.1104C267.34 68.6553 266.598 66.5947 266.598 63.9287C266.598 61.1846 267.281 59.0654 268.648 57.5713C270.025 56.0674 271.925 55.3154 274.347 55.3154C276.661 55.3154 278.463 55.9746 279.752 57.293C281.041 58.6113 281.686 60.4326 281.686 62.7568V64.9248H271.124C271.173 66.1943 271.549 67.1855 272.252 67.8984C272.955 68.6113 273.941 68.9678 275.211 68.9678C276.197 68.9678 277.13 68.8652 278.009 68.6602C278.888 68.4551 279.806 68.1279 280.763 67.6787V71.1357C279.981 71.5264 279.146 71.8145 278.258 72C277.369 72.1953 276.285 72.293 275.006 72.293ZM290.504 72.293C288.58 72.293 287.066 71.5459 285.963 70.0518C284.869 68.5576 284.322 66.4873 284.322 63.8408C284.322 61.1553 284.879 59.0654 285.992 57.5713C287.115 56.0674 288.658 55.3154 290.621 55.3154C292.682 55.3154 294.254 56.1162 295.338 57.7178H295.484C295.26 56.4971 295.147 55.4082 295.147 54.4512V49.207H299.63V72H296.202L295.338 69.876H295.147C294.132 71.4873 292.584 72.293 290.504 72.293ZM292.071 68.7334C293.214 68.7334 294.049 68.4014 294.576 67.7373C295.113 67.0732 295.406 65.9453 295.455 64.3535V63.8701C295.455 62.1123 295.182 60.8525 294.635 60.0908C294.098 59.3291 293.219 58.9482 291.998 58.9482C291.002 58.9482 290.226 59.373 289.669 60.2227C289.122 61.0625 288.849 62.2881 288.849 63.8994C288.849 65.5107 289.127 66.7217 289.684 67.5322C290.24 68.333 291.036 68.7334 292.071 68.7334ZM325.089 66.0527C325.089 67.9863 324.391 69.5098 322.994 70.623C321.607 71.7363 319.674 72.293 317.193 72.293C314.908 72.293 312.887 71.8633 311.129 71.0039V66.7852C312.574 67.4297 313.795 67.8838 314.791 68.1475C315.797 68.4111 316.715 68.543 317.545 68.543C318.541 68.543 319.303 68.3525 319.83 67.9717C320.367 67.5908 320.636 67.0244 320.636 66.2725C320.636 65.8525 320.519 65.4814 320.284 65.1592C320.05 64.8271 319.703 64.5098 319.244 64.207C318.795 63.9043 317.872 63.4209 316.476 62.7568C315.167 62.1416 314.186 61.5508 313.531 60.9844C312.877 60.418 312.354 59.7588 311.964 59.0068C311.573 58.2549 311.378 57.376 311.378 56.3701C311.378 54.4756 312.018 52.9863 313.297 51.9023C314.586 50.8184 316.363 50.2764 318.629 50.2764C319.742 50.2764 320.802 50.4082 321.808 50.6719C322.823 50.9355 323.883 51.3066 324.986 51.7852L323.521 55.3154C322.379 54.8467 321.432 54.5195 320.68 54.334C319.938 54.1484 319.205 54.0557 318.482 54.0557C317.623 54.0557 316.964 54.2559 316.505 54.6562C316.046 55.0566 315.816 55.5791 315.816 56.2236C315.816 56.624 315.909 56.9756 316.095 57.2783C316.28 57.5713 316.573 57.8594 316.974 58.1426C317.384 58.416 318.346 58.9141 319.859 59.6367C321.861 60.5938 323.233 61.5557 323.976 62.5225C324.718 63.4795 325.089 64.6562 325.089 66.0527ZM335.401 58.4941C334.454 58.4941 333.712 58.7969 333.175 59.4023C332.638 59.998 332.33 60.8477 332.252 61.9512H338.521C338.502 60.8477 338.214 59.998 337.657 59.4023C337.101 58.7969 336.349 58.4941 335.401 58.4941ZM336.031 72.293C333.395 72.293 331.334 71.5654 329.85 70.1104C328.365 68.6553 327.623 66.5947 327.623 63.9287C327.623 61.1846 328.307 59.0654 329.674 57.5713C331.051 56.0674 332.95 55.3154 335.372 55.3154C337.687 55.3154 339.488 55.9746 340.777 57.293C342.066 58.6113 342.711 60.4326 342.711 62.7568V64.9248H332.149C332.198 66.1943 332.574 67.1855 333.277 67.8984C333.98 68.6113 334.967 68.9678 336.236 68.9678C337.223 68.9678 338.155 68.8652 339.034 68.6602C339.913 68.4551 340.831 68.1279 341.788 67.6787V71.1357C341.007 71.5264 340.172 71.8145 339.283 72C338.395 72.1953 337.311 72.293 336.031 72.293ZM355.484 55.3154C356.09 55.3154 356.593 55.3594 356.993 55.4473L356.656 59.6367C356.295 59.5391 355.855 59.4902 355.338 59.4902C353.912 59.4902 352.799 59.8564 351.998 60.5889C351.207 61.3213 350.812 62.3467 350.812 63.665V72H346.344V55.623H349.728L350.387 58.377H350.606C351.114 57.459 351.798 56.7217 352.657 56.165C353.526 55.5986 354.469 55.3154 355.484 55.3154ZM363.863 72L357.623 55.623H362.296L365.46 64.9541C365.812 66.1357 366.031 67.2539 366.119 68.3086H366.207C366.256 67.3711 366.476 66.2529 366.866 64.9541L370.016 55.623H374.688L368.448 72H363.863ZM376.856 51.3896C376.856 49.9346 377.667 49.207 379.288 49.207C380.909 49.207 381.72 49.9346 381.72 51.3896C381.72 52.083 381.515 52.625 381.104 53.0156C380.704 53.3965 380.099 53.5869 379.288 53.5869C377.667 53.5869 376.856 52.8545 376.856 51.3896ZM381.515 72H377.047V55.623H381.515V72ZM392.867 72.293C387.77 72.293 385.221 69.4951 385.221 63.8994C385.221 61.1162 385.914 58.9922 387.301 57.5273C388.688 56.0527 390.675 55.3154 393.263 55.3154C395.157 55.3154 396.856 55.6865 398.36 56.4287L397.042 59.8857C396.339 59.6025 395.685 59.373 395.079 59.1973C394.474 59.0117 393.868 58.9189 393.263 58.9189C390.938 58.9189 389.776 60.5693 389.776 63.8701C389.776 67.0732 390.938 68.6748 393.263 68.6748C394.122 68.6748 394.918 68.5625 395.65 68.3379C396.383 68.1035 397.115 67.7422 397.848 67.2539V71.0771C397.125 71.5361 396.393 71.8535 395.65 72.0293C394.918 72.2051 393.99 72.293 392.867 72.293ZM408.438 58.4941C407.491 58.4941 406.749 58.7969 406.212 59.4023C405.675 59.998 405.367 60.8477 405.289 61.9512H411.559C411.539 60.8477 411.251 59.998 410.694 59.4023C410.138 58.7969 409.386 58.4941 408.438 58.4941ZM409.068 72.293C406.432 72.293 404.371 71.5654 402.887 70.1104C401.402 68.6553 400.66 66.5947 400.66 63.9287C400.66 61.1846 401.344 59.0654 402.711 57.5713C404.088 56.0674 405.987 55.3154 408.409 55.3154C410.724 55.3154 412.525 55.9746 413.814 57.293C415.104 58.6113 415.748 60.4326 415.748 62.7568V64.9248H405.187C405.235 66.1943 405.611 67.1855 406.314 67.8984C407.018 68.6113 408.004 68.9678 409.273 68.9678C410.26 68.9678 411.192 68.8652 412.071 68.6602C412.95 68.4551 413.868 68.1279 414.825 67.6787V71.1357C414.044 71.5264 413.209 71.8145 412.32 72C411.432 72.1953 410.348 72.293 409.068 72.293ZM430.807 67.1367C430.807 68.8164 430.221 70.0957 429.049 70.9746C427.887 71.8535 426.144 72.293 423.819 72.293C422.628 72.293 421.612 72.21 420.772 72.0439C419.933 71.8877 419.146 71.6533 418.414 71.3408V67.6494C419.244 68.04 420.177 68.3672 421.212 68.6309C422.257 68.8945 423.175 69.0264 423.966 69.0264C425.587 69.0264 426.397 68.5576 426.397 67.6201C426.397 67.2686 426.29 66.9854 426.075 66.7705C425.86 66.5459 425.489 66.2969 424.962 66.0234C424.435 65.7402 423.731 65.4131 422.853 65.042C421.593 64.5146 420.665 64.0264 420.069 63.5771C419.483 63.1279 419.054 62.6152 418.78 62.0391C418.517 61.4531 418.385 60.7354 418.385 59.8857C418.385 58.4307 418.946 57.3076 420.069 56.5166C421.202 55.7158 422.804 55.3154 424.874 55.3154C426.847 55.3154 428.766 55.7451 430.631 56.6045L429.283 59.8271C428.463 59.4756 427.696 59.1875 426.983 58.9629C426.271 58.7383 425.543 58.626 424.801 58.626C423.482 58.626 422.823 58.9824 422.823 59.6953C422.823 60.0957 423.033 60.4424 423.453 60.7354C423.883 61.0283 424.815 61.4629 426.251 62.0391C427.53 62.5566 428.468 63.04 429.063 63.4893C429.659 63.9385 430.099 64.4561 430.382 65.042C430.665 65.6279 430.807 66.3262 430.807 67.1367Z" fill="white"/>
<rect x="177" y="90" width="256" height="40" rx="5" fill="#2DD8A3"/>
<path d="M237.656 118V100.867H241.289V115H248.238V118H237.656ZM256.371 107.195C255.613 107.195 255.02 107.438 254.59 107.922C254.16 108.398 253.914 109.078 253.852 109.961H258.867C258.852 109.078 258.621 108.398 258.176 107.922C257.73 107.438 257.129 107.195 256.371 107.195ZM256.875 118.234C254.766 118.234 253.117 117.652 251.93 116.488C250.742 115.324 250.148 113.676 250.148 111.543C250.148 109.348 250.695 107.652 251.789 106.457C252.891 105.254 254.41 104.652 256.348 104.652C258.199 104.652 259.641 105.18 260.672 106.234C261.703 107.289 262.219 108.746 262.219 110.605V112.34H253.77C253.809 113.355 254.109 114.148 254.672 114.719C255.234 115.289 256.023 115.574 257.039 115.574C257.828 115.574 258.574 115.492 259.277 115.328C259.98 115.164 260.715 114.902 261.48 114.543V117.309C260.855 117.621 260.188 117.852 259.477 118C258.766 118.156 257.898 118.234 256.875 118.234ZM273.445 118L272.754 116.219H272.66C272.059 116.977 271.438 117.504 270.797 117.801C270.164 118.09 269.336 118.234 268.312 118.234C267.055 118.234 266.062 117.875 265.336 117.156C264.617 116.438 264.258 115.414 264.258 114.086C264.258 112.695 264.742 111.672 265.711 111.016C266.688 110.352 268.156 109.984 270.117 109.914L272.391 109.844V109.27C272.391 107.941 271.711 107.277 270.352 107.277C269.305 107.277 268.074 107.594 266.66 108.227L265.477 105.812C266.984 105.023 268.656 104.629 270.492 104.629C272.25 104.629 273.598 105.012 274.535 105.777C275.473 106.543 275.941 107.707 275.941 109.27V118H273.445ZM272.391 111.93L271.008 111.977C269.969 112.008 269.195 112.195 268.688 112.539C268.18 112.883 267.926 113.406 267.926 114.109C267.926 115.117 268.504 115.621 269.66 115.621C270.488 115.621 271.148 115.383 271.641 114.906C272.141 114.43 272.391 113.797 272.391 113.008V111.93ZM286.945 104.652C287.43 104.652 287.832 104.688 288.152 104.758L287.883 108.109C287.594 108.031 287.242 107.992 286.828 107.992C285.688 107.992 284.797 108.285 284.156 108.871C283.523 109.457 283.207 110.277 283.207 111.332V118H279.633V104.898H282.34L282.867 107.102H283.043C283.449 106.367 283.996 105.777 284.684 105.332C285.379 104.879 286.133 104.652 286.945 104.652ZM302.625 118H299.051V110.348C299.051 109.402 298.883 108.695 298.547 108.227C298.211 107.75 297.676 107.512 296.941 107.512C295.941 107.512 295.219 107.848 294.773 108.52C294.328 109.184 294.105 110.289 294.105 111.836V118H290.531V104.898H293.262L293.742 106.574H293.941C294.34 105.941 294.887 105.465 295.582 105.145C296.285 104.816 297.082 104.652 297.973 104.652C299.496 104.652 300.652 105.066 301.441 105.895C302.23 106.715 302.625 107.902 302.625 109.457V118ZM324.27 118H320.695V110.348C320.695 109.402 320.535 108.695 320.215 108.227C319.902 107.75 319.406 107.512 318.727 107.512C317.812 107.512 317.148 107.848 316.734 108.52C316.32 109.191 316.113 110.297 316.113 111.836V118H312.539V104.898H315.27L315.75 106.574H315.949C316.301 105.973 316.809 105.504 317.473 105.168C318.137 104.824 318.898 104.652 319.758 104.652C321.719 104.652 323.047 105.293 323.742 106.574H324.059C324.41 105.965 324.926 105.492 325.605 105.156C326.293 104.82 327.066 104.652 327.926 104.652C329.41 104.652 330.531 105.035 331.289 105.801C332.055 106.559 332.438 107.777 332.438 109.457V118H328.852V110.348C328.852 109.402 328.691 108.695 328.371 108.227C328.059 107.75 327.562 107.512 326.883 107.512C326.008 107.512 325.352 107.824 324.914 108.449C324.484 109.074 324.27 110.066 324.27 111.426V118ZM338.965 111.426C338.965 112.723 339.176 113.703 339.598 114.367C340.027 115.031 340.723 115.363 341.684 115.363C342.637 115.363 343.32 115.035 343.734 114.379C344.156 113.715 344.367 112.73 344.367 111.426C344.367 110.129 344.156 109.156 343.734 108.508C343.312 107.859 342.621 107.535 341.66 107.535C340.707 107.535 340.02 107.859 339.598 108.508C339.176 109.148 338.965 110.121 338.965 111.426ZM348.023 111.426C348.023 113.559 347.461 115.227 346.336 116.43C345.211 117.633 343.645 118.234 341.637 118.234C340.379 118.234 339.27 117.961 338.309 117.414C337.348 116.859 336.609 116.066 336.094 115.035C335.578 114.004 335.32 112.801 335.32 111.426C335.32 109.285 335.879 107.621 336.996 106.434C338.113 105.246 339.684 104.652 341.707 104.652C342.965 104.652 344.074 104.926 345.035 105.473C345.996 106.02 346.734 106.805 347.25 107.828C347.766 108.852 348.023 110.051 348.023 111.426ZM358.289 104.652C358.773 104.652 359.176 104.688 359.496 104.758L359.227 108.109C358.938 108.031 358.586 107.992 358.172 107.992C357.031 107.992 356.141 108.285 355.5 108.871C354.867 109.457 354.551 110.277 354.551 111.332V118H350.977V104.898H353.684L354.211 107.102H354.387C354.793 106.367 355.34 105.777 356.027 105.332C356.723 104.879 357.477 104.652 358.289 104.652ZM367.301 107.195C366.543 107.195 365.949 107.438 365.52 107.922C365.09 108.398 364.844 109.078 364.781 109.961H369.797C369.781 109.078 369.551 108.398 369.105 107.922C368.66 107.438 368.059 107.195 367.301 107.195ZM367.805 118.234C365.695 118.234 364.047 117.652 362.859 116.488C361.672 115.324 361.078 113.676 361.078 111.543C361.078 109.348 361.625 107.652 362.719 106.457C363.82 105.254 365.34 104.652 367.277 104.652C369.129 104.652 370.57 105.18 371.602 106.234C372.633 107.289 373.148 108.746 373.148 110.605V112.34H364.699C364.738 113.355 365.039 114.148 365.602 114.719C366.164 115.289 366.953 115.574 367.969 115.574C368.758 115.574 369.504 115.492 370.207 115.328C370.91 115.164 371.645 114.902 372.41 114.543V117.309C371.785 117.621 371.117 117.852 370.406 118C369.695 118.156 368.828 118.234 367.805 118.234Z" fill="white"/>
<path d="M84.875 83.75V101.25L76.125 105.625L63 92.5L45.5 110L58.625 123.125L54.25 131.875H36.75V158.125H54.25L58.625 166.875L45.5 180L63 197.5L76.125 184.375L84.875 188.75V206.25H111.125V188.75L119.875 184.375L133 197.5L150.5 180L137.375 166.875L141.75 158.125H159.25V131.875H141.75L137.375 123.125L150.5 110L133 92.5L119.875 105.625L111.125 101.25V83.75H84.875Z" fill="#2DD8A3" stroke="white" stroke-width="2" stroke-linecap="round" stroke-linejoin="round"/>
<path d="M98 162.5C107.665 162.5 115.5 154.665 115.5 145C115.5 135.335 107.665 127.5 98 127.5C88.335 127.5 80.5 135.335 80.5 145C80.5 154.665 88.335 162.5 98 162.5Z" fill="white" stroke="#2DD8A3" stroke-width="6" stroke-linecap="round" stroke-linejoin="round"/>
</svg>
