<svg width="47" height="46" viewBox="0 0 47 46" fill="none" xmlns="http://www.w3.org/2000/svg">
<path d="M30.7584 23.9748V20.6025H35.8169V23.9748L37.5031 24.8179L40.0324 22.2887L43.4048 25.661L40.8755 28.1903L41.7186 29.8765H45.0909V34.935H41.7186L40.8755 36.6212L43.4048 39.1505L40.0324 42.5229L37.5031 39.9936L35.8169 40.8367V44.209H30.7584V40.8367L29.0722 39.9936L26.5429 42.5229L23.1706 39.1505L25.6998 36.6212L24.8567 34.935H21.4844" stroke="#0166A3" stroke-width="2" stroke-linecap="round" stroke-linejoin="round"/>
<path d="M33.2877 35.7781C35.1502 35.7781 36.66 34.2683 36.66 32.4058C36.66 30.5432 35.1502 29.0334 33.2877 29.0334C31.4252 29.0334 29.9153 30.5432 29.9153 32.4058C29.9153 34.2683 31.4252 35.7781 33.2877 35.7781Z" stroke="#0166A3" stroke-width="2" stroke-linecap="round" stroke-linejoin="round"/>
<path d="M15.9443 17.6516C20.3241 17.6516 23.8746 14.1011 23.8746 9.72128C23.8746 5.34148 20.3241 1.79095 15.9443 1.79095C11.5645 1.79095 8.01393 5.34148 8.01393 9.72128C8.01393 14.1011 11.5645 17.6516 15.9443 17.6516Z" stroke="#0166A3" stroke-width="3"/>
<path d="M23.8747 20.8238H24.433C25.5925 20.8241 26.712 21.2478 27.5812 22.0154C28.4503 22.7829 29.0093 23.8414 29.1531 24.992L29.7732 29.9468C29.829 30.3932 29.7892 30.8463 29.6565 31.2761C29.5238 31.7059 29.3011 32.1026 29.0034 32.4398C28.7057 32.777 28.3396 33.047 27.9295 33.2319C27.5194 33.4168 27.0747 33.5124 26.6249 33.5123H5.26376C4.81393 33.5124 4.36921 33.4168 3.95914 33.2319C3.54906 33.047 3.18301 32.777 2.88526 32.4398C2.58752 32.1026 2.36489 31.7059 2.23217 31.2761C2.09944 30.8463 2.05964 30.3932 2.11542 29.9468L2.73399 24.992C2.87784 23.8408 3.43728 22.7819 4.3071 22.0143C5.17692 21.2467 6.29721 20.8233 7.45729 20.8238H8.014" stroke="#0166A3" stroke-width="3" stroke-linecap="round" stroke-linejoin="round"/>
</svg>
