<svg width="52" height="52" viewBox="0 0 52 52" fill="none" xmlns="http://www.w3.org/2000/svg">
<path d="M32.0938 45.0938H19.9062C19.6828 45.0938 19.5 45.2766 19.5 45.5V47.125C19.5 48.0238 20.2262 48.75 21.125 48.75H30.875C31.7738 48.75 32.5 48.0238 32.5 47.125V45.5C32.5 45.2766 32.3172 45.0938 32.0938 45.0938ZM26 3.25C16.8035 3.25 9.34375 10.7098 9.34375 19.9062C9.34375 26.0711 12.6953 31.4539 17.6719 34.3332V40.2188C17.6719 41.1176 18.398 41.8438 19.2969 41.8438H32.7031C33.602 41.8438 34.3281 41.1176 34.3281 40.2188V34.3332C39.3047 31.4539 42.6562 26.0711 42.6562 19.9062C42.6562 10.7098 35.1965 3.25 26 3.25ZM32.4949 31.1695L30.6719 32.2258V38.1875H21.3281V32.2258L19.5051 31.1695C15.5086 28.859 13 24.6035 13 19.9062C13 12.7258 18.8195 6.90625 26 6.90625C33.1805 6.90625 39 12.7258 39 19.9062C39 24.6035 36.4914 28.859 32.4949 31.1695Z" fill="#0166A3"/>
</svg>
