<svg width="91" height="102" viewBox="0 0 91 102" fill="none" xmlns="http://www.w3.org/2000/svg">
<path d="M26.834 3.57C33.7509 1.68938 41.1012 0 45.5 0C49.8988 0 57.2491 1.68938 64.166 3.57C71.2423 5.4825 78.3759 7.74563 82.5706 9.11625C84.3244 9.69543 85.8793 10.7576 87.0566 12.1807C88.2339 13.6038 88.9859 15.3302 89.2261 17.1615C93.0256 45.7024 84.209 66.8546 73.5118 80.8477C68.9756 86.8337 63.5667 92.1051 57.4659 96.4856C55.3563 98.0015 53.1212 99.3344 50.7849 100.47C48.9999 101.312 47.081 102 45.5 102C43.919 102 42.0065 101.312 40.2151 100.47C37.8788 99.3345 35.6437 98.0015 33.5341 96.4856C27.4334 92.1049 22.0246 86.8336 17.4882 80.8477C6.791 66.8546 -2.02562 45.7024 1.77388 17.1615C2.01413 15.3302 2.7661 13.6038 3.9434 12.1807C5.12069 10.7576 6.67556 9.69543 8.42937 9.11625C14.5187 7.11966 20.6554 5.27037 26.834 3.57Z" fill="#0166A3"/>
<path d="M80.2211 39.3188L73.4965 26.441C72.9617 25.4281 72.0527 24.664 70.963 24.3113C69.8732 23.9586 68.6889 24.0453 67.6621 24.5529L61.2965 27.7357H56.8157L47.7931 23.6528C46.8415 23.2227 45.7676 23.1467 44.765 23.4387L31.4563 27.3187L25.3381 24.2598C24.3112 23.7526 23.1269 23.666 22.0373 24.0187C20.9476 24.3713 20.0385 25.1352 19.5035 26.1479L12.7788 39.026C12.51 39.541 12.3464 40.1044 12.2976 40.6833C12.2488 41.2622 12.3158 41.8451 12.4946 42.3978C12.6735 42.9506 12.9606 43.4621 13.3393 43.9027C13.718 44.3433 14.1807 44.7041 14.7003 44.9639L21.2628 48.2452L36.0361 59.7974C36.5184 60.1755 37.0753 60.4474 37.6701 60.5953L53.5177 64.5574C53.8616 64.6432 54.2147 64.6866 54.5691 64.6864C55.732 64.6866 56.8478 64.2265 57.6726 63.4068L67.7343 53.3448C67.7452 53.3341 67.7545 53.3224 67.7649 53.3117L67.8057 53.268C67.8204 53.2516 67.8357 53.2362 67.8502 53.2196L71.9373 48.4382L78.2997 45.2571C78.8193 44.9972 79.2819 44.6364 79.6606 44.1958C80.0393 43.7552 80.3265 43.2435 80.5053 42.6908C80.6842 42.138 80.7512 41.5551 80.7024 40.9762C80.6536 40.3973 80.49 39.8339 80.2211 39.3188ZM65.8386 48.8396L55.4427 41.2791C55.0644 41.0039 54.6079 40.8572 54.1401 40.8607C53.6723 40.8641 53.2179 41.0175 52.8437 41.2982L49.3437 43.9232C48.2056 44.77 46.8248 45.2273 45.4062 45.2273C43.9876 45.2273 42.6069 44.77 41.4687 43.9232L39.9867 42.8114L50.6874 32.1105H56.3322L56.3423 32.111L56.3497 32.1105H60.4868L67.9391 46.3823L65.8386 48.8396ZM23.3819 28.1727L28.2179 30.591L21.4933 43.4688L16.657 41.0508L23.3819 28.1727ZM54.579 60.3131L38.7313 56.351L25.2194 45.7853L32.6668 31.5228L45.9897 27.6389L48.0952 28.5916C47.9177 28.7208 47.7501 28.863 47.5937 29.0171L36.8927 39.718C36.4495 40.1613 36.1068 40.6946 35.8876 41.2818C35.6685 41.869 35.578 42.4965 35.6225 43.1217C35.6669 43.7469 35.8452 44.3553 36.1452 44.9056C36.4452 45.4559 36.86 45.9354 37.3614 46.3114L38.8437 47.4227C40.7406 48.834 43.0419 49.5962 45.4062 49.5962C47.7705 49.5962 50.0718 48.834 51.9687 47.4227L54.1762 45.7673L62.8305 52.0613L54.579 60.3131ZM76.3429 41.3439L71.5066 43.7622L64.782 30.8838L69.6183 28.4661L76.3454 41.3425L76.3429 41.3439ZM44.2468 68.735C44.1775 69.0138 44.0538 69.2762 43.8829 69.5072C43.712 69.7381 43.4972 69.9331 43.2508 70.0809C43.0045 70.2288 42.7313 70.3265 42.4471 70.3686C42.1629 70.4108 41.8732 70.3964 41.5945 70.3264L33.3531 68.2663C32.6845 68.0981 32.0647 67.7753 31.5438 67.3237L25.3775 61.9636C24.9423 61.5822 24.6759 61.044 24.6367 60.4667C24.5975 59.8894 24.7885 59.3201 25.1681 58.8833C25.5477 58.4466 26.0849 58.1781 26.662 58.1365C27.2391 58.0949 27.8092 58.2837 28.2475 58.6615L34.4143 64.0217L42.6557 66.0823C43.2185 66.223 43.7023 66.5815 44.0007 67.0789C44.2992 67.5763 44.3878 68.1719 44.2471 68.7347L44.2468 68.735Z" fill="white"/>
</svg>
