<svg width="309" height="177" viewBox="0 0 309 177" fill="none" xmlns="http://www.w3.org/2000/svg">
<rect width="309" height="177" fill="#F0F8FC"/>
<path d="M44.4336 45.6445C43.0664 45.6445 42.0078 46.1602 41.2578 47.1914C40.5078 48.2148 40.1328 49.6445 40.1328 51.4805C40.1328 55.3008 41.5664 57.2109 44.4336 57.2109C45.6367 57.2109 47.0938 56.9102 48.8047 56.3086V59.3555C47.3984 59.9414 45.8281 60.2344 44.0938 60.2344C41.6016 60.2344 39.6953 59.4805 38.375 57.9727C37.0547 56.457 36.3945 54.2852 36.3945 51.457C36.3945 49.6758 36.7188 48.1172 37.3672 46.7812C38.0156 45.4375 38.9453 44.4102 40.1562 43.6992C41.375 42.9805 42.8008 42.6211 44.4336 42.6211C46.0977 42.6211 47.7695 43.0234 49.4492 43.8281L48.2773 46.7812C47.6367 46.4766 46.9922 46.2109 46.3438 45.9844C45.6953 45.7578 45.0586 45.6445 44.4336 45.6445ZM55.0273 53.4258C55.0273 54.7227 55.2383 55.7031 55.6602 56.3672C56.0898 57.0312 56.7852 57.3633 57.7461 57.3633C58.6992 57.3633 59.3828 57.0352 59.7969 56.3789C60.2188 55.7148 60.4297 54.7305 60.4297 53.4258C60.4297 52.1289 60.2188 51.1562 59.7969 50.5078C59.375 49.8594 58.6836 49.5352 57.7227 49.5352C56.7695 49.5352 56.082 49.8594 55.6602 50.5078C55.2383 51.1484 55.0273 52.1211 55.0273 53.4258ZM64.0859 53.4258C64.0859 55.5586 63.5234 57.2266 62.3984 58.4297C61.2734 59.6328 59.707 60.2344 57.6992 60.2344C56.4414 60.2344 55.332 59.9609 54.3711 59.4141C53.4102 58.8594 52.6719 58.0664 52.1562 57.0352C51.6406 56.0039 51.3828 54.8008 51.3828 53.4258C51.3828 51.2852 51.9414 49.6211 53.0586 48.4336C54.1758 47.2461 55.7461 46.6523 57.7695 46.6523C59.0273 46.6523 60.1367 46.9258 61.0977 47.4727C62.0586 48.0195 62.7969 48.8047 63.3125 49.8281C63.8281 50.8516 64.0859 52.0508 64.0859 53.4258ZM79.1328 60H75.5586V52.3477C75.5586 51.4023 75.3906 50.6953 75.0547 50.2266C74.7188 49.75 74.1836 49.5117 73.4492 49.5117C72.4492 49.5117 71.7266 49.8477 71.2812 50.5195C70.8359 51.1836 70.6133 52.2891 70.6133 53.8359V60H67.0391V46.8984H69.7695L70.25 48.5742H70.4492C70.8477 47.9414 71.3945 47.4648 72.0898 47.1445C72.793 46.8164 73.5898 46.6523 74.4805 46.6523C76.0039 46.6523 77.1602 47.0664 77.9492 47.8945C78.7383 48.7148 79.1328 49.9023 79.1328 51.457V60ZM88.332 57.3867C88.957 57.3867 89.707 57.25 90.582 56.9766V59.6367C89.6914 60.0352 88.5977 60.2344 87.3008 60.2344C85.8711 60.2344 84.8281 59.875 84.1719 59.1562C83.5234 58.4297 83.1992 57.3438 83.1992 55.8984V49.582H81.4883V48.0703L83.457 46.875L84.4883 44.1094H86.7734V46.8984H90.4414V49.582H86.7734V55.8984C86.7734 56.4062 86.9141 56.7812 87.1953 57.0234C87.4844 57.2656 87.8633 57.3867 88.332 57.3867ZM100.555 46.6523C101.039 46.6523 101.441 46.6875 101.762 46.7578L101.492 50.1094C101.203 50.0312 100.852 49.9922 100.438 49.9922C99.2969 49.9922 98.4062 50.2852 97.7656 50.8711C97.1328 51.457 96.8164 52.2773 96.8164 53.332V60H93.2422V46.8984H95.9492L96.4766 49.1016H96.6523C97.0586 48.3672 97.6055 47.7773 98.293 47.332C98.9883 46.8789 99.7422 46.6523 100.555 46.6523ZM113.422 60L112.941 58.3242H112.754C112.371 58.9336 111.828 59.4062 111.125 59.7422C110.422 60.0703 109.621 60.2344 108.723 60.2344C107.184 60.2344 106.023 59.8242 105.242 59.0039C104.461 58.1758 104.07 56.9883 104.07 55.4414V46.8984H107.645V54.5508C107.645 55.4961 107.812 56.207 108.148 56.6836C108.484 57.1523 109.02 57.3867 109.754 57.3867C110.754 57.3867 111.477 57.0547 111.922 56.3906C112.367 55.7188 112.59 54.6094 112.59 53.0625V46.8984H116.164V60H113.422ZM125.234 60.2344C121.156 60.2344 119.117 57.9961 119.117 53.5195C119.117 51.293 119.672 49.5938 120.781 48.4219C121.891 47.2422 123.48 46.6523 125.551 46.6523C127.066 46.6523 128.426 46.9492 129.629 47.543L128.574 50.3086C128.012 50.082 127.488 49.8984 127.004 49.7578C126.52 49.6094 126.035 49.5352 125.551 49.5352C123.691 49.5352 122.762 50.8555 122.762 53.4961C122.762 56.0586 123.691 57.3398 125.551 57.3398C126.238 57.3398 126.875 57.25 127.461 57.0703C128.047 56.8828 128.633 56.5938 129.219 56.2031V59.2617C128.641 59.6289 128.055 59.8828 127.461 60.0234C126.875 60.1641 126.133 60.2344 125.234 60.2344ZM137.785 57.3867C138.41 57.3867 139.16 57.25 140.035 56.9766V59.6367C139.145 60.0352 138.051 60.2344 136.754 60.2344C135.324 60.2344 134.281 59.875 133.625 59.1562C132.977 58.4297 132.652 57.3438 132.652 55.8984V49.582H130.941V48.0703L132.91 46.875L133.941 44.1094H136.227V46.8984H139.895V49.582H136.227V55.8984C136.227 56.4062 136.367 56.7812 136.648 57.0234C136.938 57.2656 137.316 57.3867 137.785 57.3867ZM142.543 43.5117C142.543 42.3477 143.191 41.7656 144.488 41.7656C145.785 41.7656 146.434 42.3477 146.434 43.5117C146.434 44.0664 146.27 44.5 145.941 44.8125C145.621 45.1172 145.137 45.2695 144.488 45.2695C143.191 45.2695 142.543 44.6836 142.543 43.5117ZM146.27 60H142.695V46.8984H146.27V60ZM152.879 53.4258C152.879 54.7227 153.09 55.7031 153.512 56.3672C153.941 57.0312 154.637 57.3633 155.598 57.3633C156.551 57.3633 157.234 57.0352 157.648 56.3789C158.07 55.7148 158.281 54.7305 158.281 53.4258C158.281 52.1289 158.07 51.1562 157.648 50.5078C157.227 49.8594 156.535 49.5352 155.574 49.5352C154.621 49.5352 153.934 49.8594 153.512 50.5078C153.09 51.1484 152.879 52.1211 152.879 53.4258ZM161.938 53.4258C161.938 55.5586 161.375 57.2266 160.25 58.4297C159.125 59.6328 157.559 60.2344 155.551 60.2344C154.293 60.2344 153.184 59.9609 152.223 59.4141C151.262 58.8594 150.523 58.0664 150.008 57.0352C149.492 56.0039 149.234 54.8008 149.234 53.4258C149.234 51.2852 149.793 49.6211 150.91 48.4336C152.027 47.2461 153.598 46.6523 155.621 46.6523C156.879 46.6523 157.988 46.9258 158.949 47.4727C159.91 48.0195 160.648 48.8047 161.164 49.8281C161.68 50.8516 161.938 52.0508 161.938 53.4258ZM176.984 60H173.41V52.3477C173.41 51.4023 173.242 50.6953 172.906 50.2266C172.57 49.75 172.035 49.5117 171.301 49.5117C170.301 49.5117 169.578 49.8477 169.133 50.5195C168.688 51.1836 168.465 52.2891 168.465 53.8359V60H164.891V46.8984H167.621L168.102 48.5742H168.301C168.699 47.9414 169.246 47.4648 169.941 47.1445C170.645 46.8164 171.441 46.6523 172.332 46.6523C173.855 46.6523 175.012 47.0664 175.801 47.8945C176.59 48.7148 176.984 49.9023 176.984 51.457V60ZM53 93H48.582L47.2344 91.6758C45.7422 92.7148 44.0547 93.2344 42.1719 93.2344C40.2656 93.2344 38.7539 92.7969 37.6367 91.9219C36.5195 91.0469 35.9609 89.8633 35.9609 88.3711C35.9609 87.3008 36.1953 86.3906 36.6641 85.6406C37.1406 84.8828 37.9531 84.1758 39.1016 83.5195C38.5156 82.8477 38.0898 82.207 37.8242 81.5977C37.5586 80.9805 37.4258 80.3086 37.4258 79.582C37.4258 78.3945 37.8789 77.4375 38.7852 76.7109C39.6992 75.9844 40.918 75.6211 42.4414 75.6211C43.8945 75.6211 45.0547 75.9609 45.9219 76.6406C46.7969 77.3125 47.2344 78.2148 47.2344 79.3477C47.2344 80.2773 46.9648 81.1289 46.4258 81.9023C45.8867 82.668 45.0156 83.3984 43.8125 84.0938L47.1406 87.3398C47.6953 86.4258 48.1758 85.25 48.582 83.8125H52.3086C52.0273 84.8672 51.6406 85.8984 51.1484 86.9062C50.6562 87.9062 50.0977 88.793 49.4727 89.5664L53 93ZM39.7227 88.0312C39.7227 88.7031 39.9727 89.2383 40.4727 89.6367C40.9805 90.0352 41.6289 90.2344 42.418 90.2344C43.4023 90.2344 44.2891 89.9961 45.0781 89.5195L41.1875 85.6523C40.7344 85.9961 40.375 86.3555 40.1094 86.7305C39.8516 87.1055 39.7227 87.5391 39.7227 88.0312ZM43.9297 79.7227C43.9297 79.3086 43.7891 78.9844 43.5078 78.75C43.2266 78.5078 42.8633 78.3867 42.418 78.3867C41.8945 78.3867 41.4805 78.5117 41.1758 78.7617C40.8789 79.0117 40.7305 79.3672 40.7305 79.8281C40.7305 80.5156 41.1016 81.2734 41.8438 82.1016C42.5156 81.7266 43.0312 81.3594 43.3906 81C43.75 80.6328 43.9297 80.207 43.9297 79.7227ZM75.6055 84.2695C75.6055 87.0898 74.8008 89.25 73.1914 90.75C71.5898 92.25 69.2734 93 66.2422 93H61.3906V75.8672H66.7695C69.5664 75.8672 71.7383 76.6055 73.2852 78.082C74.832 79.5586 75.6055 81.6211 75.6055 84.2695ZM71.832 84.3633C71.832 80.6836 70.207 78.8438 66.957 78.8438H65.0234V90H66.582C70.082 90 71.832 88.1211 71.832 84.3633ZM84.3008 82.1953C83.543 82.1953 82.9492 82.4375 82.5195 82.9219C82.0898 83.3984 81.8438 84.0781 81.7812 84.9609H86.7969C86.7812 84.0781 86.5508 83.3984 86.1055 82.9219C85.6602 82.4375 85.0586 82.1953 84.3008 82.1953ZM84.8047 93.2344C82.6953 93.2344 81.0469 92.6523 79.8594 91.4883C78.6719 90.3242 78.0781 88.6758 78.0781 86.543C78.0781 84.3477 78.625 82.6523 79.7188 81.457C80.8203 80.2539 82.3398 79.6523 84.2773 79.6523C86.1289 79.6523 87.5703 80.1797 88.6016 81.2344C89.6328 82.2891 90.1484 83.7461 90.1484 85.6055V87.3398H81.6992C81.7383 88.3555 82.0391 89.1484 82.6016 89.7188C83.1641 90.2891 83.9531 90.5742 84.9688 90.5742C85.7578 90.5742 86.5039 90.4922 87.207 90.3281C87.9102 90.1641 88.6445 89.9023 89.4102 89.543V92.3086C88.7852 92.6211 88.1172 92.8516 87.4062 93C86.6953 93.1562 85.8281 93.2344 84.8047 93.2344ZM102.195 89.1094C102.195 90.4531 101.727 91.4766 100.789 92.1797C99.8594 92.8828 98.4648 93.2344 96.6055 93.2344C95.6523 93.2344 94.8398 93.168 94.168 93.0352C93.4961 92.9102 92.8672 92.7227 92.2812 92.4727V89.5195C92.9453 89.832 93.6914 90.0938 94.5195 90.3047C95.3555 90.5156 96.0898 90.6211 96.7227 90.6211C98.0195 90.6211 98.668 90.2461 98.668 89.4961C98.668 89.2148 98.582 88.9883 98.4102 88.8164C98.2383 88.6367 97.9414 88.4375 97.5195 88.2188C97.0977 87.9922 96.5352 87.7305 95.832 87.4336C94.8242 87.0117 94.082 86.6211 93.6055 86.2617C93.1367 85.9023 92.793 85.4922 92.5742 85.0312C92.3633 84.5625 92.2578 83.9883 92.2578 83.3086C92.2578 82.1445 92.707 81.2461 93.6055 80.6133C94.5117 79.9727 95.793 79.6523 97.4492 79.6523C99.0273 79.6523 100.562 79.9961 102.055 80.6836L100.977 83.2617C100.32 82.9805 99.707 82.75 99.1367 82.5703C98.5664 82.3906 97.9844 82.3008 97.3906 82.3008C96.3359 82.3008 95.8086 82.5859 95.8086 83.1562C95.8086 83.4766 95.9766 83.7539 96.3125 83.9883C96.6562 84.2227 97.4023 84.5703 98.5508 85.0312C99.5742 85.4453 100.324 85.832 100.801 86.1914C101.277 86.5508 101.629 86.9648 101.855 87.4336C102.082 87.9023 102.195 88.4609 102.195 89.1094ZM104.832 76.5117C104.832 75.3477 105.48 74.7656 106.777 74.7656C108.074 74.7656 108.723 75.3477 108.723 76.5117C108.723 77.0664 108.559 77.5 108.23 77.8125C107.91 78.1172 107.426 78.2695 106.777 78.2695C105.48 78.2695 104.832 77.6836 104.832 76.5117ZM108.559 93H104.984V79.8984H108.559V93ZM123.723 79.8984V81.7148L121.672 82.2422C122.047 82.8281 122.234 83.4844 122.234 84.2109C122.234 85.6172 121.742 86.7148 120.758 87.5039C119.781 88.2852 118.422 88.6758 116.68 88.6758L116.035 88.6406L115.508 88.582C115.141 88.8633 114.957 89.1758 114.957 89.5195C114.957 90.0352 115.613 90.293 116.926 90.293H119.152C120.59 90.293 121.684 90.6016 122.434 91.2188C123.191 91.8359 123.57 92.7422 123.57 93.9375C123.57 95.4688 122.93 96.6562 121.648 97.5C120.375 98.3438 118.543 98.7656 116.152 98.7656C114.324 98.7656 112.926 98.4453 111.957 97.8047C110.996 97.1719 110.516 96.2812 110.516 95.1328C110.516 94.3438 110.762 93.6836 111.254 93.1523C111.746 92.6211 112.469 92.2422 113.422 92.0156C113.055 91.8594 112.734 91.6055 112.461 91.2539C112.188 90.8945 112.051 90.5156 112.051 90.1172C112.051 89.6172 112.195 89.2031 112.484 88.875C112.773 88.5391 113.191 88.2109 113.738 87.8906C113.051 87.5938 112.504 87.1172 112.098 86.4609C111.699 85.8047 111.5 85.0312 111.5 84.1406C111.5 82.7109 111.965 81.6055 112.895 80.8242C113.824 80.043 115.152 79.6523 116.879 79.6523C117.246 79.6523 117.68 79.6875 118.18 79.7578C118.688 79.8203 119.012 79.8672 119.152 79.8984H123.723ZM113.609 94.8516C113.609 95.3438 113.844 95.7305 114.312 96.0117C114.789 96.293 115.453 96.4336 116.305 96.4336C117.586 96.4336 118.59 96.2578 119.316 95.9062C120.043 95.5547 120.406 95.0742 120.406 94.4648C120.406 93.9727 120.191 93.6328 119.762 93.4453C119.332 93.2578 118.668 93.1641 117.77 93.1641H115.918C115.262 93.1641 114.711 93.3164 114.266 93.6211C113.828 93.9336 113.609 94.3438 113.609 94.8516ZM114.91 84.1875C114.91 84.8984 115.07 85.4609 115.391 85.875C115.719 86.2891 116.215 86.4961 116.879 86.4961C117.551 86.4961 118.043 86.2891 118.355 85.875C118.668 85.4609 118.824 84.8984 118.824 84.1875C118.824 82.6094 118.176 81.8203 116.879 81.8203C115.566 81.8203 114.91 82.6094 114.91 84.1875ZM137.984 93H134.41V85.3477C134.41 84.4023 134.242 83.6953 133.906 83.2266C133.57 82.75 133.035 82.5117 132.301 82.5117C131.301 82.5117 130.578 82.8477 130.133 83.5195C129.688 84.1836 129.465 85.2891 129.465 86.8359V93H125.891V79.8984H128.621L129.102 81.5742H129.301C129.699 80.9414 130.246 80.4648 130.941 80.1445C131.645 79.8164 132.441 79.6523 133.332 79.6523C134.855 79.6523 136.012 80.0664 136.801 80.8945C137.59 81.7148 137.984 82.9023 137.984 84.457V93ZM151.754 93H148.18V75.8672H158V78.8438H151.754V83.2617H157.566V86.2266H151.754V93ZM160.918 76.5117C160.918 75.3477 161.566 74.7656 162.863 74.7656C164.16 74.7656 164.809 75.3477 164.809 76.5117C164.809 77.0664 164.645 77.5 164.316 77.8125C163.996 78.1172 163.512 78.2695 162.863 78.2695C161.566 78.2695 160.918 77.6836 160.918 76.5117ZM164.645 93H161.07V79.8984H164.645V93ZM175.719 79.6523C176.203 79.6523 176.605 79.6875 176.926 79.7578L176.656 83.1094C176.367 83.0312 176.016 82.9922 175.602 82.9922C174.461 82.9922 173.57 83.2852 172.93 83.8711C172.297 84.457 171.98 85.2773 171.98 86.332V93H168.406V79.8984H171.113L171.641 82.1016H171.816C172.223 81.3672 172.77 80.7773 173.457 80.332C174.152 79.8789 174.906 79.6523 175.719 79.6523ZM191.035 93H187.461V85.3477C187.461 84.4023 187.301 83.6953 186.98 83.2266C186.668 82.75 186.172 82.5117 185.492 82.5117C184.578 82.5117 183.914 82.8477 183.5 83.5195C183.086 84.1914 182.879 85.2969 182.879 86.8359V93H179.305V79.8984H182.035L182.516 81.5742H182.715C183.066 80.9727 183.574 80.5039 184.238 80.168C184.902 79.8242 185.664 79.6523 186.523 79.6523C188.484 79.6523 189.812 80.293 190.508 81.5742H190.824C191.176 80.9648 191.691 80.4922 192.371 80.1562C193.059 79.8203 193.832 79.6523 194.691 79.6523C196.176 79.6523 197.297 80.0352 198.055 80.8008C198.82 81.5586 199.203 82.7773 199.203 84.457V93H195.617V85.3477C195.617 84.4023 195.457 83.6953 195.137 83.2266C194.824 82.75 194.328 82.5117 193.648 82.5117C192.773 82.5117 192.117 82.8242 191.68 83.4492C191.25 84.0742 191.035 85.0664 191.035 86.4258V93Z" fill="black"/>
<path d="M44.7383 120.699C42.5898 120.699 40.8984 121.387 39.6641 122.762C38.4297 124.137 37.8125 126.02 37.8125 128.41C37.8125 130.855 38.3945 132.754 39.5586 134.105C40.7227 135.457 42.3867 136.133 44.5508 136.133C45.9883 136.133 47.3086 135.949 48.5117 135.582V136.637C47.3789 137.035 45.9648 137.234 44.2695 137.234C41.8633 137.234 39.9688 136.457 38.5859 134.902C37.2031 133.348 36.5117 131.176 36.5117 128.387C36.5117 126.645 36.8398 125.109 37.4961 123.781C38.1602 122.453 39.1094 121.43 40.3438 120.711C41.5859 119.984 43.0273 119.621 44.668 119.621C46.3398 119.621 47.8359 119.934 49.1562 120.559L48.6758 121.637C47.4258 121.012 46.1133 120.699 44.7383 120.699ZM59.7734 137L59.4805 134.984H59.3867C58.7461 135.805 58.0859 136.387 57.4062 136.73C56.7344 137.066 55.9375 137.234 55.0156 137.234C53.7656 137.234 52.793 136.914 52.0977 136.273C51.4023 135.633 51.0547 134.746 51.0547 133.613C51.0547 132.371 51.5703 131.406 52.6016 130.719C53.6406 130.031 55.1406 129.668 57.1016 129.629L59.5273 129.559V128.715C59.5273 127.504 59.2812 126.59 58.7891 125.973C58.2969 125.355 57.5039 125.047 56.4102 125.047C55.2305 125.047 54.0078 125.375 52.7422 126.031L52.3086 125.023C53.707 124.367 55.0898 124.039 56.457 124.039C57.8555 124.039 58.8984 124.402 59.5859 125.129C60.2812 125.855 60.6289 126.988 60.6289 128.527V137H59.7734ZM55.0859 136.18C56.4453 136.18 57.5156 135.793 58.2969 135.02C59.0859 134.238 59.4805 133.156 59.4805 131.773V130.52L57.2539 130.613C55.4648 130.699 54.1875 130.98 53.4219 131.457C52.6641 131.926 52.2852 132.66 52.2852 133.66C52.2852 134.457 52.5273 135.078 53.0117 135.523C53.5039 135.961 54.1953 136.18 55.0859 136.18ZM72.6641 133.684C72.6641 134.824 72.2305 135.703 71.3633 136.32C70.4961 136.93 69.2656 137.234 67.6719 137.234C65.9688 137.234 64.6172 136.973 63.6172 136.449V135.195C64.8984 135.836 66.25 136.156 67.6719 136.156C68.9297 136.156 69.8828 135.949 70.5312 135.535C71.1875 135.113 71.5156 134.555 71.5156 133.859C71.5156 133.219 71.2539 132.68 70.7305 132.242C70.2148 131.805 69.3633 131.375 68.1758 130.953C66.9023 130.492 66.0078 130.098 65.4922 129.77C64.9766 129.434 64.5859 129.059 64.3203 128.645C64.0625 128.223 63.9336 127.711 63.9336 127.109C63.9336 126.156 64.332 125.402 65.1289 124.848C65.9336 124.293 67.0547 124.016 68.4922 124.016C69.8672 124.016 71.1719 124.273 72.4062 124.789L71.9727 125.844C70.7227 125.328 69.5625 125.07 68.4922 125.07C67.4531 125.07 66.6289 125.242 66.0195 125.586C65.4102 125.93 65.1055 126.406 65.1055 127.016C65.1055 127.68 65.3398 128.211 65.8086 128.609C66.2852 129.008 67.2109 129.453 68.5859 129.945C69.7344 130.359 70.5703 130.734 71.0938 131.07C71.6172 131.398 72.0078 131.773 72.2656 132.195C72.5312 132.617 72.6641 133.113 72.6641 133.684ZM81.0898 137.234C79.2383 137.234 77.793 136.664 76.7539 135.523C75.7227 134.383 75.207 132.785 75.207 130.73C75.207 128.699 75.707 127.074 76.707 125.855C77.707 124.629 79.0547 124.016 80.75 124.016C82.25 124.016 83.4336 124.539 84.3008 125.586C85.168 126.633 85.6016 128.055 85.6016 129.852V130.789H76.4258C76.4414 132.539 76.8477 133.875 77.6445 134.797C78.4492 135.719 79.5977 136.18 81.0898 136.18C81.8164 136.18 82.4531 136.129 83 136.027C83.5547 135.926 84.2539 135.707 85.0977 135.371V136.426C84.3789 136.738 83.7148 136.949 83.1055 137.059C82.4961 137.176 81.8242 137.234 81.0898 137.234ZM80.75 125.047C79.5234 125.047 78.5391 125.453 77.7969 126.266C77.0547 127.07 76.6211 128.234 76.4961 129.758H84.3711C84.3711 128.281 84.0508 127.129 83.4102 126.301C82.7695 125.465 81.8828 125.047 80.75 125.047ZM105.102 132.582C105.102 134.012 104.574 135.145 103.52 135.98C102.473 136.816 101.078 137.234 99.3359 137.234C97.2422 137.234 95.6367 137.004 94.5195 136.543V135.348C95.7539 135.871 97.3281 136.133 99.2422 136.133C100.648 136.133 101.762 135.812 102.582 135.172C103.41 134.523 103.824 133.676 103.824 132.629C103.824 131.98 103.688 131.445 103.414 131.023C103.141 130.594 102.695 130.203 102.078 129.852C101.461 129.5 100.555 129.121 99.3594 128.715C97.6094 128.113 96.3984 127.465 95.7266 126.77C95.0625 126.066 94.7305 125.133 94.7305 123.969C94.7305 122.688 95.2305 121.645 96.2305 120.84C97.2383 120.027 98.5312 119.621 100.109 119.621C101.719 119.621 103.23 119.926 104.645 120.535L104.211 121.566C102.789 120.973 101.43 120.676 100.133 120.676C98.8672 120.676 97.8594 120.969 97.1094 121.555C96.3594 122.141 95.9844 122.938 95.9844 123.945C95.9844 124.578 96.0977 125.098 96.3242 125.504C96.5586 125.91 96.9375 126.277 97.4609 126.605C97.9844 126.926 98.8828 127.312 100.156 127.766C101.492 128.227 102.496 128.676 103.168 129.113C103.84 129.543 104.328 130.035 104.633 130.59C104.945 131.137 105.102 131.801 105.102 132.582ZM111.793 136.203C112.527 136.203 113.168 136.141 113.715 136.016V136.953C113.152 137.141 112.504 137.234 111.77 137.234C110.645 137.234 109.812 136.934 109.273 136.332C108.742 135.73 108.477 134.785 108.477 133.496V125.27H106.59V124.59L108.477 124.062L109.062 121.18H109.66V124.262H113.398V125.27H109.66V133.332C109.66 134.309 109.832 135.031 110.176 135.5C110.52 135.969 111.059 136.203 111.793 136.203ZM117.477 124.262V132.512C117.477 133.793 117.746 134.727 118.285 135.312C118.824 135.891 119.66 136.18 120.793 136.18C122.309 136.18 123.422 135.797 124.133 135.031C124.852 134.266 125.211 133.02 125.211 131.293V124.262H126.359V137H125.375L125.164 135.242H125.094C124.266 136.57 122.793 137.234 120.676 137.234C117.777 137.234 116.328 135.684 116.328 132.582V124.262H117.477ZM135.289 124.016C136.211 124.016 137.008 124.184 137.68 124.52C138.352 124.855 138.953 125.43 139.484 126.242H139.555C139.508 125.258 139.484 124.293 139.484 123.348V118.766H140.633V137H139.871L139.578 135.055H139.484C138.516 136.508 137.125 137.234 135.312 137.234C133.555 137.234 132.211 136.688 131.281 135.594C130.352 134.5 129.887 132.906 129.887 130.812C129.887 128.609 130.348 126.926 131.27 125.762C132.191 124.598 133.531 124.016 135.289 124.016ZM135.289 125.07C133.898 125.07 132.852 125.559 132.148 126.535C131.453 127.512 131.105 128.93 131.105 130.789C131.105 134.398 132.508 136.203 135.312 136.203C136.75 136.203 137.805 135.785 138.477 134.949C139.148 134.113 139.484 132.734 139.484 130.812V130.613C139.484 128.645 139.152 127.23 138.488 126.371C137.832 125.504 136.766 125.07 135.289 125.07ZM142.789 124.262H143.984L146.68 131.41C147.5 133.605 148.02 135.086 148.238 135.852H148.309C148.637 134.844 149.172 133.34 149.914 131.34L152.609 124.262H153.805L148.098 139.062C147.637 140.266 147.25 141.078 146.938 141.5C146.625 141.922 146.258 142.238 145.836 142.449C145.422 142.66 144.918 142.766 144.324 142.766C143.879 142.766 143.383 142.684 142.836 142.52V141.512C143.289 141.637 143.777 141.699 144.301 141.699C144.699 141.699 145.051 141.605 145.355 141.418C145.66 141.23 145.934 140.938 146.176 140.539C146.426 140.148 146.711 139.523 147.031 138.664C147.359 137.812 147.57 137.258 147.664 137L142.789 124.262Z" fill="black"/>
<path d="M254.222 127.467L260.711 120.978M254.222 127.467V108V127.467ZM254.222 127.467L247.733 120.978L254.222 127.467Z" stroke="#757575" stroke-width="3" stroke-linecap="round" stroke-linejoin="round"/>
<path d="M238 130.711L239.007 134.742C239.183 135.444 239.588 136.067 240.158 136.513C240.728 136.958 241.431 137.2 242.155 137.2H266.29C267.013 137.2 267.716 136.958 268.286 136.513C268.857 136.067 269.262 135.444 269.437 134.742L270.444 130.711" stroke="#757575" stroke-width="3" stroke-linecap="round" stroke-linejoin="round"/>
</svg>
