<svg width="309" height="177" viewBox="0 0 309 177" fill="none" xmlns="http://www.w3.org/2000/svg">
<rect y="1" width="309" height="176" fill="#F0F8FC"/>
<path d="M47.4336 46.6445C46.0664 46.6445 45.0078 47.1602 44.2578 48.1914C43.5078 49.2148 43.1328 50.6445 43.1328 52.4805C43.1328 56.3008 44.5664 58.2109 47.4336 58.2109C48.6367 58.2109 50.0938 57.9102 51.8047 57.3086V60.3555C50.3984 60.9414 48.8281 61.2344 47.0938 61.2344C44.6016 61.2344 42.6953 60.4805 41.375 58.9727C40.0547 57.457 39.3945 55.2852 39.3945 52.457C39.3945 50.6758 39.7188 49.1172 40.3672 47.7812C41.0156 46.4375 41.9453 45.4102 43.1562 44.6992C44.375 43.9805 45.8008 43.6211 47.4336 43.6211C49.0977 43.6211 50.7695 44.0234 52.4492 44.8281L51.2773 47.7812C50.6367 47.4766 49.9922 47.2109 49.3438 46.9844C48.6953 46.7578 48.0586 46.6445 47.4336 46.6445ZM58.0273 54.4258C58.0273 55.7227 58.2383 56.7031 58.6602 57.3672C59.0898 58.0312 59.7852 58.3633 60.7461 58.3633C61.6992 58.3633 62.3828 58.0352 62.7969 57.3789C63.2188 56.7148 63.4297 55.7305 63.4297 54.4258C63.4297 53.1289 63.2188 52.1562 62.7969 51.5078C62.375 50.8594 61.6836 50.5352 60.7227 50.5352C59.7695 50.5352 59.082 50.8594 58.6602 51.5078C58.2383 52.1484 58.0273 53.1211 58.0273 54.4258ZM67.0859 54.4258C67.0859 56.5586 66.5234 58.2266 65.3984 59.4297C64.2734 60.6328 62.707 61.2344 60.6992 61.2344C59.4414 61.2344 58.332 60.9609 57.3711 60.4141C56.4102 59.8594 55.6719 59.0664 55.1562 58.0352C54.6406 57.0039 54.3828 55.8008 54.3828 54.4258C54.3828 52.2852 54.9414 50.6211 56.0586 49.4336C57.1758 48.2461 58.7461 47.6523 60.7695 47.6523C62.0273 47.6523 63.1367 47.9258 64.0977 48.4727C65.0586 49.0195 65.7969 49.8047 66.3125 50.8281C66.8281 51.8516 67.0859 53.0508 67.0859 54.4258ZM81.7695 61H78.1953V53.3477C78.1953 52.4023 78.0352 51.6953 77.7148 51.2266C77.4023 50.75 76.9062 50.5117 76.2266 50.5117C75.3125 50.5117 74.6484 50.8477 74.2344 51.5195C73.8203 52.1914 73.6133 53.2969 73.6133 54.8359V61H70.0391V47.8984H72.7695L73.25 49.5742H73.4492C73.8008 48.9727 74.3086 48.5039 74.9727 48.168C75.6367 47.8242 76.3984 47.6523 77.2578 47.6523C79.2188 47.6523 80.5469 48.293 81.2422 49.5742H81.5586C81.9102 48.9648 82.4258 48.4922 83.1055 48.1562C83.793 47.8203 84.5664 47.6523 85.4258 47.6523C86.9102 47.6523 88.0312 48.0352 88.7891 48.8008C89.5547 49.5586 89.9375 50.7773 89.9375 52.457V61H86.3516V53.3477C86.3516 52.4023 86.1914 51.6953 85.8711 51.2266C85.5586 50.75 85.0625 50.5117 84.3828 50.5117C83.5078 50.5117 82.8516 50.8242 82.4141 51.4492C81.9844 52.0742 81.7695 53.0664 81.7695 54.4258V61ZM105.348 61H101.773V53.3477C101.773 52.4023 101.613 51.6953 101.293 51.2266C100.98 50.75 100.484 50.5117 99.8047 50.5117C98.8906 50.5117 98.2266 50.8477 97.8125 51.5195C97.3984 52.1914 97.1914 53.2969 97.1914 54.8359V61H93.6172V47.8984H96.3477L96.8281 49.5742H97.0273C97.3789 48.9727 97.8867 48.5039 98.5508 48.168C99.2148 47.8242 99.9766 47.6523 100.836 47.6523C102.797 47.6523 104.125 48.293 104.82 49.5742H105.137C105.488 48.9648 106.004 48.4922 106.684 48.1562C107.371 47.8203 108.145 47.6523 109.004 47.6523C110.488 47.6523 111.609 48.0352 112.367 48.8008C113.133 49.5586 113.516 50.7773 113.516 52.457V61H109.93V53.3477C109.93 52.4023 109.77 51.6953 109.449 51.2266C109.137 50.75 108.641 50.5117 107.961 50.5117C107.086 50.5117 106.43 50.8242 105.992 51.4492C105.562 52.0742 105.348 53.0664 105.348 54.4258V61ZM126.477 61L125.996 59.3242H125.809C125.426 59.9336 124.883 60.4062 124.18 60.7422C123.477 61.0703 122.676 61.2344 121.777 61.2344C120.238 61.2344 119.078 60.8242 118.297 60.0039C117.516 59.1758 117.125 57.9883 117.125 56.4414V47.8984H120.699V55.5508C120.699 56.4961 120.867 57.207 121.203 57.6836C121.539 58.1523 122.074 58.3867 122.809 58.3867C123.809 58.3867 124.531 58.0547 124.977 57.3906C125.422 56.7188 125.645 55.6094 125.645 54.0625V47.8984H129.219V61H126.477ZM145.062 61H141.488V53.3477C141.488 52.4023 141.32 51.6953 140.984 51.2266C140.648 50.75 140.113 50.5117 139.379 50.5117C138.379 50.5117 137.656 50.8477 137.211 51.5195C136.766 52.1836 136.543 53.2891 136.543 54.8359V61H132.969V47.8984H135.699L136.18 49.5742H136.379C136.777 48.9414 137.324 48.4648 138.02 48.1445C138.723 47.8164 139.52 47.6523 140.41 47.6523C141.934 47.6523 143.09 48.0664 143.879 48.8945C144.668 49.7148 145.062 50.9023 145.062 52.457V61ZM148.59 44.5117C148.59 43.3477 149.238 42.7656 150.535 42.7656C151.832 42.7656 152.48 43.3477 152.48 44.5117C152.48 45.0664 152.316 45.5 151.988 45.8125C151.668 46.1172 151.184 46.2695 150.535 46.2695C149.238 46.2695 148.59 45.6836 148.59 44.5117ZM152.316 61H148.742V47.8984H152.316V61ZM161.598 58.3867C162.223 58.3867 162.973 58.25 163.848 57.9766V60.6367C162.957 61.0352 161.863 61.2344 160.566 61.2344C159.137 61.2344 158.094 60.875 157.438 60.1562C156.789 59.4297 156.465 58.3438 156.465 56.8984V50.582H154.754V49.0703L156.723 47.875L157.754 45.1094H160.039V47.8984H163.707V50.582H160.039V56.8984C160.039 57.4062 160.18 57.7812 160.461 58.0234C160.75 58.2656 161.129 58.3867 161.598 58.3867ZM164.633 47.8984H168.547L171.02 55.2695C171.23 55.9102 171.375 56.668 171.453 57.543H171.523C171.609 56.7383 171.777 55.9805 172.027 55.2695L174.453 47.8984H178.285L172.742 62.6758C172.234 64.043 171.508 65.0664 170.562 65.7461C169.625 66.4258 168.527 66.7656 167.27 66.7656C166.652 66.7656 166.047 66.6992 165.453 66.5664V63.7305C165.883 63.832 166.352 63.8828 166.859 63.8828C167.492 63.8828 168.043 63.6875 168.512 63.2969C168.988 62.9141 169.359 62.332 169.625 61.5508L169.836 60.9062L164.633 47.8984ZM47.4336 79.6445C46.0664 79.6445 45.0078 80.1602 44.2578 81.1914C43.5078 82.2148 43.1328 83.6445 43.1328 85.4805C43.1328 89.3008 44.5664 91.2109 47.4336 91.2109C48.6367 91.2109 50.0938 90.9102 51.8047 90.3086V93.3555C50.3984 93.9414 48.8281 94.2344 47.0938 94.2344C44.6016 94.2344 42.6953 93.4805 41.375 91.9727C40.0547 90.457 39.3945 88.2852 39.3945 85.457C39.3945 83.6758 39.7188 82.1172 40.3672 80.7812C41.0156 79.4375 41.9453 78.4102 43.1562 77.6992C44.375 76.9805 45.8008 76.6211 47.4336 76.6211C49.0977 76.6211 50.7695 77.0234 52.4492 77.8281L51.2773 80.7812C50.6367 80.4766 49.9922 80.2109 49.3438 79.9844C48.6953 79.7578 48.0586 79.6445 47.4336 79.6445ZM60.6055 83.1953C59.8477 83.1953 59.2539 83.4375 58.8242 83.9219C58.3945 84.3984 58.1484 85.0781 58.0859 85.9609H63.1016C63.0859 85.0781 62.8555 84.3984 62.4102 83.9219C61.9648 83.4375 61.3633 83.1953 60.6055 83.1953ZM61.1094 94.2344C59 94.2344 57.3516 93.6523 56.1641 92.4883C54.9766 91.3242 54.3828 89.6758 54.3828 87.543C54.3828 85.3477 54.9297 83.6523 56.0234 82.457C57.125 81.2539 58.6445 80.6523 60.582 80.6523C62.4336 80.6523 63.875 81.1797 64.9062 82.2344C65.9375 83.2891 66.4531 84.7461 66.4531 86.6055V88.3398H58.0039C58.043 89.3555 58.3438 90.1484 58.9062 90.7188C59.4688 91.2891 60.2578 91.5742 61.2734 91.5742C62.0625 91.5742 62.8086 91.4922 63.5117 91.3281C64.2148 91.1641 64.9492 90.9023 65.7148 90.543V93.3086C65.0898 93.6211 64.4219 93.8516 63.7109 94C63 94.1562 62.1328 94.2344 61.1094 94.2344ZM81.4531 94H77.8789V86.3477C77.8789 85.4023 77.7109 84.6953 77.375 84.2266C77.0391 83.75 76.5039 83.5117 75.7695 83.5117C74.7695 83.5117 74.0469 83.8477 73.6016 84.5195C73.1562 85.1836 72.9336 86.2891 72.9336 87.8359V94H69.3594V80.8984H72.0898L72.5703 82.5742H72.7695C73.168 81.9414 73.7148 81.4648 74.4102 81.1445C75.1133 80.8164 75.9102 80.6523 76.8008 80.6523C78.3242 80.6523 79.4805 81.0664 80.2695 81.8945C81.0586 82.7148 81.4531 83.9023 81.4531 85.457V94ZM90.6523 91.3867C91.2773 91.3867 92.0273 91.25 92.9023 90.9766V93.6367C92.0117 94.0352 90.918 94.2344 89.6211 94.2344C88.1914 94.2344 87.1484 93.875 86.4922 93.1562C85.8438 92.4297 85.5195 91.3438 85.5195 89.8984V83.582H83.8086V82.0703L85.7773 80.875L86.8086 78.1094H89.0938V80.8984H92.7617V83.582H89.0938V89.8984C89.0938 90.4062 89.2344 90.7812 89.5156 91.0234C89.8047 91.2656 90.1836 91.3867 90.6523 91.3867ZM100.988 83.1953C100.23 83.1953 99.6367 83.4375 99.207 83.9219C98.7773 84.3984 98.5312 85.0781 98.4688 85.9609H103.484C103.469 85.0781 103.238 84.3984 102.793 83.9219C102.348 83.4375 101.746 83.1953 100.988 83.1953ZM101.492 94.2344C99.3828 94.2344 97.7344 93.6523 96.5469 92.4883C95.3594 91.3242 94.7656 89.6758 94.7656 87.543C94.7656 85.3477 95.3125 83.6523 96.4062 82.457C97.5078 81.2539 99.0273 80.6523 100.965 80.6523C102.816 80.6523 104.258 81.1797 105.289 82.2344C106.32 83.2891 106.836 84.7461 106.836 86.6055V88.3398H98.3867C98.4258 89.3555 98.7266 90.1484 99.2891 90.7188C99.8516 91.2891 100.641 91.5742 101.656 91.5742C102.445 91.5742 103.191 91.4922 103.895 91.3281C104.598 91.1641 105.332 90.9023 106.098 90.543V93.3086C105.473 93.6211 104.805 93.8516 104.094 94C103.383 94.1562 102.516 94.2344 101.492 94.2344ZM117.055 80.6523C117.539 80.6523 117.941 80.6875 118.262 80.7578L117.992 84.1094C117.703 84.0312 117.352 83.9922 116.938 83.9922C115.797 83.9922 114.906 84.2852 114.266 84.8711C113.633 85.457 113.316 86.2773 113.316 87.332V94H109.742V80.8984H112.449L112.977 83.1016H113.152C113.559 82.3672 114.105 81.7773 114.793 81.332C115.488 80.8789 116.242 80.6523 117.055 80.6523Z" fill="black"/>
<path d="M47.7383 121.699C45.5898 121.699 43.8984 122.387 42.6641 123.762C41.4297 125.137 40.8125 127.02 40.8125 129.41C40.8125 131.855 41.3945 133.754 42.5586 135.105C43.7227 136.457 45.3867 137.133 47.5508 137.133C48.9883 137.133 50.3086 136.949 51.5117 136.582V137.637C50.3789 138.035 48.9648 138.234 47.2695 138.234C44.8633 138.234 42.9688 137.457 41.5859 135.902C40.2031 134.348 39.5117 132.176 39.5117 129.387C39.5117 127.645 39.8398 126.109 40.4961 124.781C41.1602 123.453 42.1094 122.43 43.3438 121.711C44.5859 120.984 46.0273 120.621 47.668 120.621C49.3398 120.621 50.8359 120.934 52.1562 121.559L51.6758 122.637C50.4258 122.012 49.1133 121.699 47.7383 121.699ZM62.7734 138L62.4805 135.984H62.3867C61.7461 136.805 61.0859 137.387 60.4062 137.73C59.7344 138.066 58.9375 138.234 58.0156 138.234C56.7656 138.234 55.793 137.914 55.0977 137.273C54.4023 136.633 54.0547 135.746 54.0547 134.613C54.0547 133.371 54.5703 132.406 55.6016 131.719C56.6406 131.031 58.1406 130.668 60.1016 130.629L62.5273 130.559V129.715C62.5273 128.504 62.2812 127.59 61.7891 126.973C61.2969 126.355 60.5039 126.047 59.4102 126.047C58.2305 126.047 57.0078 126.375 55.7422 127.031L55.3086 126.023C56.707 125.367 58.0898 125.039 59.457 125.039C60.8555 125.039 61.8984 125.402 62.5859 126.129C63.2812 126.855 63.6289 127.988 63.6289 129.527V138H62.7734ZM58.0859 137.18C59.4453 137.18 60.5156 136.793 61.2969 136.02C62.0859 135.238 62.4805 134.156 62.4805 132.773V131.52L60.2539 131.613C58.4648 131.699 57.1875 131.98 56.4219 132.457C55.6641 132.926 55.2852 133.66 55.2852 134.66C55.2852 135.457 55.5273 136.078 56.0117 136.523C56.5039 136.961 57.1953 137.18 58.0859 137.18ZM75.6641 134.684C75.6641 135.824 75.2305 136.703 74.3633 137.32C73.4961 137.93 72.2656 138.234 70.6719 138.234C68.9688 138.234 67.6172 137.973 66.6172 137.449V136.195C67.8984 136.836 69.25 137.156 70.6719 137.156C71.9297 137.156 72.8828 136.949 73.5312 136.535C74.1875 136.113 74.5156 135.555 74.5156 134.859C74.5156 134.219 74.2539 133.68 73.7305 133.242C73.2148 132.805 72.3633 132.375 71.1758 131.953C69.9023 131.492 69.0078 131.098 68.4922 130.77C67.9766 130.434 67.5859 130.059 67.3203 129.645C67.0625 129.223 66.9336 128.711 66.9336 128.109C66.9336 127.156 67.332 126.402 68.1289 125.848C68.9336 125.293 70.0547 125.016 71.4922 125.016C72.8672 125.016 74.1719 125.273 75.4062 125.789L74.9727 126.844C73.7227 126.328 72.5625 126.07 71.4922 126.07C70.4531 126.07 69.6289 126.242 69.0195 126.586C68.4102 126.93 68.1055 127.406 68.1055 128.016C68.1055 128.68 68.3398 129.211 68.8086 129.609C69.2852 130.008 70.2109 130.453 71.5859 130.945C72.7344 131.359 73.5703 131.734 74.0938 132.07C74.6172 132.398 75.0078 132.773 75.2656 133.195C75.5312 133.617 75.6641 134.113 75.6641 134.684ZM84.0898 138.234C82.2383 138.234 80.793 137.664 79.7539 136.523C78.7227 135.383 78.207 133.785 78.207 131.73C78.207 129.699 78.707 128.074 79.707 126.855C80.707 125.629 82.0547 125.016 83.75 125.016C85.25 125.016 86.4336 125.539 87.3008 126.586C88.168 127.633 88.6016 129.055 88.6016 130.852V131.789H79.4258C79.4414 133.539 79.8477 134.875 80.6445 135.797C81.4492 136.719 82.5977 137.18 84.0898 137.18C84.8164 137.18 85.4531 137.129 86 137.027C86.5547 136.926 87.2539 136.707 88.0977 136.371V137.426C87.3789 137.738 86.7148 137.949 86.1055 138.059C85.4961 138.176 84.8242 138.234 84.0898 138.234ZM83.75 126.047C82.5234 126.047 81.5391 126.453 80.7969 127.266C80.0547 128.07 79.6211 129.234 79.4961 130.758H87.3711C87.3711 129.281 87.0508 128.129 86.4102 127.301C85.7695 126.465 84.8828 126.047 83.75 126.047ZM108.102 133.582C108.102 135.012 107.574 136.145 106.52 136.98C105.473 137.816 104.078 138.234 102.336 138.234C100.242 138.234 98.6367 138.004 97.5195 137.543V136.348C98.7539 136.871 100.328 137.133 102.242 137.133C103.648 137.133 104.762 136.812 105.582 136.172C106.41 135.523 106.824 134.676 106.824 133.629C106.824 132.98 106.688 132.445 106.414 132.023C106.141 131.594 105.695 131.203 105.078 130.852C104.461 130.5 103.555 130.121 102.359 129.715C100.609 129.113 99.3984 128.465 98.7266 127.77C98.0625 127.066 97.7305 126.133 97.7305 124.969C97.7305 123.688 98.2305 122.645 99.2305 121.84C100.238 121.027 101.531 120.621 103.109 120.621C104.719 120.621 106.23 120.926 107.645 121.535L107.211 122.566C105.789 121.973 104.43 121.676 103.133 121.676C101.867 121.676 100.859 121.969 100.109 122.555C99.3594 123.141 98.9844 123.938 98.9844 124.945C98.9844 125.578 99.0977 126.098 99.3242 126.504C99.5586 126.91 99.9375 127.277 100.461 127.605C100.984 127.926 101.883 128.312 103.156 128.766C104.492 129.227 105.496 129.676 106.168 130.113C106.84 130.543 107.328 131.035 107.633 131.59C107.945 132.137 108.102 132.801 108.102 133.582ZM114.793 137.203C115.527 137.203 116.168 137.141 116.715 137.016V137.953C116.152 138.141 115.504 138.234 114.77 138.234C113.645 138.234 112.812 137.934 112.273 137.332C111.742 136.73 111.477 135.785 111.477 134.496V126.27H109.59V125.59L111.477 125.062L112.062 122.18H112.66V125.262H116.398V126.27H112.66V134.332C112.66 135.309 112.832 136.031 113.176 136.5C113.52 136.969 114.059 137.203 114.793 137.203ZM120.477 125.262V133.512C120.477 134.793 120.746 135.727 121.285 136.312C121.824 136.891 122.66 137.18 123.793 137.18C125.309 137.18 126.422 136.797 127.133 136.031C127.852 135.266 128.211 134.02 128.211 132.293V125.262H129.359V138H128.375L128.164 136.242H128.094C127.266 137.57 125.793 138.234 123.676 138.234C120.777 138.234 119.328 136.684 119.328 133.582V125.262H120.477ZM138.289 125.016C139.211 125.016 140.008 125.184 140.68 125.52C141.352 125.855 141.953 126.43 142.484 127.242H142.555C142.508 126.258 142.484 125.293 142.484 124.348V119.766H143.633V138H142.871L142.578 136.055H142.484C141.516 137.508 140.125 138.234 138.312 138.234C136.555 138.234 135.211 137.688 134.281 136.594C133.352 135.5 132.887 133.906 132.887 131.812C132.887 129.609 133.348 127.926 134.27 126.762C135.191 125.598 136.531 125.016 138.289 125.016ZM138.289 126.07C136.898 126.07 135.852 126.559 135.148 127.535C134.453 128.512 134.105 129.93 134.105 131.789C134.105 135.398 135.508 137.203 138.312 137.203C139.75 137.203 140.805 136.785 141.477 135.949C142.148 135.113 142.484 133.734 142.484 131.812V131.613C142.484 129.645 142.152 128.23 141.488 127.371C140.832 126.504 139.766 126.07 138.289 126.07ZM145.789 125.262H146.984L149.68 132.41C150.5 134.605 151.02 136.086 151.238 136.852H151.309C151.637 135.844 152.172 134.34 152.914 132.34L155.609 125.262H156.805L151.098 140.062C150.637 141.266 150.25 142.078 149.938 142.5C149.625 142.922 149.258 143.238 148.836 143.449C148.422 143.66 147.918 143.766 147.324 143.766C146.879 143.766 146.383 143.684 145.836 143.52V142.512C146.289 142.637 146.777 142.699 147.301 142.699C147.699 142.699 148.051 142.605 148.355 142.418C148.66 142.23 148.934 141.938 149.176 141.539C149.426 141.148 149.711 140.523 150.031 139.664C150.359 138.812 150.57 138.258 150.664 138L145.789 125.262Z" fill="black"/>
<path d="M261.222 127.467L267.711 120.978M261.222 127.467V108V127.467ZM261.222 127.467L254.733 120.978L261.222 127.467Z" stroke="#757575" stroke-width="3" stroke-linecap="round" stroke-linejoin="round"/>
<path d="M245 130.711L246.007 134.742C246.183 135.444 246.588 136.067 247.158 136.513C247.728 136.958 248.431 137.2 249.155 137.2H273.29C274.013 137.2 274.716 136.958 275.286 136.513C275.857 136.067 276.262 135.444 276.437 134.742L277.444 130.711" stroke="#757575" stroke-width="3" stroke-linecap="round" stroke-linejoin="round"/>
</svg>
