<svg width="309" height="177" viewBox="0 0 309 177" fill="none" xmlns="http://www.w3.org/2000/svg">
<rect width="309" height="177" fill="#F0F8FC"/>
<path d="M43.7891 51.4727H44.9609C46.1094 51.4727 46.957 51.2812 47.5039 50.8984C48.0508 50.5156 48.3242 49.9141 48.3242 49.0938C48.3242 48.2812 48.043 47.7031 47.4805 47.3594C46.9258 47.0156 46.0625 46.8438 44.8906 46.8438H43.7891V51.4727ZM43.7891 54.4258V61H40.1562V43.8672H45.1484C47.4766 43.8672 49.1992 44.293 50.3164 45.1445C51.4336 45.9883 51.9922 47.2734 51.9922 49C51.9922 50.0078 51.7148 50.9062 51.1602 51.6953C50.6055 52.4766 49.8203 53.0898 48.8047 53.5352C51.3828 57.3867 53.0625 59.875 53.8438 61H49.8125L45.7227 54.4258H43.7891ZM61.1445 50.1953C60.3867 50.1953 59.793 50.4375 59.3633 50.9219C58.9336 51.3984 58.6875 52.0781 58.625 52.9609H63.6406C63.625 52.0781 63.3945 51.3984 62.9492 50.9219C62.5039 50.4375 61.9023 50.1953 61.1445 50.1953ZM61.6484 61.2344C59.5391 61.2344 57.8906 60.6523 56.7031 59.4883C55.5156 58.3242 54.9219 56.6758 54.9219 54.543C54.9219 52.3477 55.4688 50.6523 56.5625 49.457C57.6641 48.2539 59.1836 47.6523 61.1211 47.6523C62.9727 47.6523 64.4141 48.1797 65.4453 49.2344C66.4766 50.2891 66.9922 51.7461 66.9922 53.6055V55.3398H58.543C58.582 56.3555 58.8828 57.1484 59.4453 57.7188C60.0078 58.2891 60.7969 58.5742 61.8125 58.5742C62.6016 58.5742 63.3477 58.4922 64.0508 58.3281C64.7539 58.1641 65.4883 57.9023 66.2539 57.543V60.3086C65.6289 60.6211 64.9609 60.8516 64.25 61C63.5391 61.1562 62.6719 61.2344 61.6484 61.2344ZM78.2188 61L77.5273 59.2188H77.4336C76.832 59.9766 76.2109 60.5039 75.5703 60.8008C74.9375 61.0898 74.1094 61.2344 73.0859 61.2344C71.8281 61.2344 70.8359 60.875 70.1094 60.1562C69.3906 59.4375 69.0312 58.4141 69.0312 57.0859C69.0312 55.6953 69.5156 54.6719 70.4844 54.0156C71.4609 53.3516 72.9297 52.9844 74.8906 52.9141L77.1641 52.8438V52.2695C77.1641 50.9414 76.4844 50.2773 75.125 50.2773C74.0781 50.2773 72.8477 50.5938 71.4336 51.2266L70.25 48.8125C71.7578 48.0234 73.4297 47.6289 75.2656 47.6289C77.0234 47.6289 78.3711 48.0117 79.3086 48.7773C80.2461 49.543 80.7148 50.707 80.7148 52.2695V61H78.2188ZM77.1641 54.9297L75.7812 54.9766C74.7422 55.0078 73.9688 55.1953 73.4609 55.5391C72.9531 55.8828 72.6992 56.4062 72.6992 57.1094C72.6992 58.1172 73.2773 58.6211 74.4336 58.6211C75.2617 58.6211 75.9219 58.3828 76.4141 57.9062C76.9141 57.4297 77.1641 56.7969 77.1641 56.0078V54.9297ZM87.9805 61H84.4062V42.7656H87.9805V61ZM108.125 61H98.2578V43.8672H108.125V46.8438H101.891V50.6055H107.691V53.582H101.891V58H108.125V61ZM120.57 57.1094C120.57 58.4531 120.102 59.4766 119.164 60.1797C118.234 60.8828 116.84 61.2344 114.98 61.2344C114.027 61.2344 113.215 61.168 112.543 61.0352C111.871 60.9102 111.242 60.7227 110.656 60.4727V57.5195C111.32 57.832 112.066 58.0938 112.895 58.3047C113.73 58.5156 114.465 58.6211 115.098 58.6211C116.395 58.6211 117.043 58.2461 117.043 57.4961C117.043 57.2148 116.957 56.9883 116.785 56.8164C116.613 56.6367 116.316 56.4375 115.895 56.2188C115.473 55.9922 114.91 55.7305 114.207 55.4336C113.199 55.0117 112.457 54.6211 111.98 54.2617C111.512 53.9023 111.168 53.4922 110.949 53.0312C110.738 52.5625 110.633 51.9883 110.633 51.3086C110.633 50.1445 111.082 49.2461 111.98 48.6133C112.887 47.9727 114.168 47.6523 115.824 47.6523C117.402 47.6523 118.938 47.9961 120.43 48.6836L119.352 51.2617C118.695 50.9805 118.082 50.75 117.512 50.5703C116.941 50.3906 116.359 50.3008 115.766 50.3008C114.711 50.3008 114.184 50.5859 114.184 51.1562C114.184 51.4766 114.352 51.7539 114.688 51.9883C115.031 52.2227 115.777 52.5703 116.926 53.0312C117.949 53.4453 118.699 53.832 119.176 54.1914C119.652 54.5508 120.004 54.9648 120.23 55.4336C120.457 55.9023 120.57 56.4609 120.57 57.1094ZM128.879 58.3867C129.504 58.3867 130.254 58.25 131.129 57.9766V60.6367C130.238 61.0352 129.145 61.2344 127.848 61.2344C126.418 61.2344 125.375 60.875 124.719 60.1562C124.07 59.4297 123.746 58.3438 123.746 56.8984V50.582H122.035V49.0703L124.004 47.875L125.035 45.1094H127.32V47.8984H130.988V50.582H127.32V56.8984C127.32 57.4062 127.461 57.7812 127.742 58.0234C128.031 58.2656 128.41 58.3867 128.879 58.3867ZM142.109 61L141.418 59.2188H141.324C140.723 59.9766 140.102 60.5039 139.461 60.8008C138.828 61.0898 138 61.2344 136.977 61.2344C135.719 61.2344 134.727 60.875 134 60.1562C133.281 59.4375 132.922 58.4141 132.922 57.0859C132.922 55.6953 133.406 54.6719 134.375 54.0156C135.352 53.3516 136.82 52.9844 138.781 52.9141L141.055 52.8438V52.2695C141.055 50.9414 140.375 50.2773 139.016 50.2773C137.969 50.2773 136.738 50.5938 135.324 51.2266L134.141 48.8125C135.648 48.0234 137.32 47.6289 139.156 47.6289C140.914 47.6289 142.262 48.0117 143.199 48.7773C144.137 49.543 144.605 50.707 144.605 52.2695V61H142.109ZM141.055 54.9297L139.672 54.9766C138.633 55.0078 137.859 55.1953 137.352 55.5391C136.844 55.8828 136.59 56.4062 136.59 57.1094C136.59 58.1172 137.168 58.6211 138.324 58.6211C139.152 58.6211 139.812 58.3828 140.305 57.9062C140.805 57.4297 141.055 56.7969 141.055 56.0078V54.9297ZM153.816 58.3867C154.441 58.3867 155.191 58.25 156.066 57.9766V60.6367C155.176 61.0352 154.082 61.2344 152.785 61.2344C151.355 61.2344 150.312 60.875 149.656 60.1562C149.008 59.4297 148.684 58.3438 148.684 56.8984V50.582H146.973V49.0703L148.941 47.875L149.973 45.1094H152.258V47.8984H155.926V50.582H152.258V56.8984C152.258 57.4062 152.398 57.7812 152.68 58.0234C152.969 58.2656 153.348 58.3867 153.816 58.3867ZM164.152 50.1953C163.395 50.1953 162.801 50.4375 162.371 50.9219C161.941 51.3984 161.695 52.0781 161.633 52.9609H166.648C166.633 52.0781 166.402 51.3984 165.957 50.9219C165.512 50.4375 164.91 50.1953 164.152 50.1953ZM164.656 61.2344C162.547 61.2344 160.898 60.6523 159.711 59.4883C158.523 58.3242 157.93 56.6758 157.93 54.543C157.93 52.3477 158.477 50.6523 159.57 49.457C160.672 48.2539 162.191 47.6523 164.129 47.6523C165.98 47.6523 167.422 48.1797 168.453 49.2344C169.484 50.2891 170 51.7461 170 53.6055V55.3398H161.551C161.59 56.3555 161.891 57.1484 162.453 57.7188C163.016 58.2891 163.805 58.5742 164.82 58.5742C165.609 58.5742 166.355 58.4922 167.059 58.3281C167.762 58.1641 168.496 57.9023 169.262 57.543V60.3086C168.637 60.6211 167.969 60.8516 167.258 61C166.547 61.1562 165.68 61.2344 164.656 61.2344ZM50.6445 94L49.4023 89.9219H43.1562L41.9141 94H38L44.0469 76.7969H48.4883L54.5586 94H50.6445ZM48.5352 86.875C47.3867 83.1797 46.7383 81.0898 46.5898 80.6055C46.4492 80.1211 46.3477 79.7383 46.2852 79.457C46.0273 80.457 45.2891 82.9297 44.0703 86.875H48.5352ZM67.8477 80.8984V82.7148L65.7969 83.2422C66.1719 83.8281 66.3594 84.4844 66.3594 85.2109C66.3594 86.6172 65.8672 87.7148 64.8828 88.5039C63.9062 89.2852 62.5469 89.6758 60.8047 89.6758L60.1602 89.6406L59.6328 89.582C59.2656 89.8633 59.082 90.1758 59.082 90.5195C59.082 91.0352 59.7383 91.293 61.0508 91.293H63.2773C64.7148 91.293 65.8086 91.6016 66.5586 92.2188C67.3164 92.8359 67.6953 93.7422 67.6953 94.9375C67.6953 96.4688 67.0547 97.6562 65.7734 98.5C64.5 99.3438 62.668 99.7656 60.2773 99.7656C58.4492 99.7656 57.0508 99.4453 56.082 98.8047C55.1211 98.1719 54.6406 97.2812 54.6406 96.1328C54.6406 95.3438 54.8867 94.6836 55.3789 94.1523C55.8711 93.6211 56.5938 93.2422 57.5469 93.0156C57.1797 92.8594 56.8594 92.6055 56.5859 92.2539C56.3125 91.8945 56.1758 91.5156 56.1758 91.1172C56.1758 90.6172 56.3203 90.2031 56.6094 89.875C56.8984 89.5391 57.3164 89.2109 57.8633 88.8906C57.1758 88.5938 56.6289 88.1172 56.2227 87.4609C55.8242 86.8047 55.625 86.0312 55.625 85.1406C55.625 83.7109 56.0898 82.6055 57.0195 81.8242C57.9492 81.043 59.2773 80.6523 61.0039 80.6523C61.3711 80.6523 61.8047 80.6875 62.3047 80.7578C62.8125 80.8203 63.1367 80.8672 63.2773 80.8984H67.8477ZM57.7344 95.8516C57.7344 96.3438 57.9688 96.7305 58.4375 97.0117C58.9141 97.293 59.5781 97.4336 60.4297 97.4336C61.7109 97.4336 62.7148 97.2578 63.4414 96.9062C64.168 96.5547 64.5312 96.0742 64.5312 95.4648C64.5312 94.9727 64.3164 94.6328 63.8867 94.4453C63.457 94.2578 62.793 94.1641 61.8945 94.1641H60.043C59.3867 94.1641 58.8359 94.3164 58.3906 94.6211C57.9531 94.9336 57.7344 95.3438 57.7344 95.8516ZM59.0352 85.1875C59.0352 85.8984 59.1953 86.4609 59.5156 86.875C59.8438 87.2891 60.3398 87.4961 61.0039 87.4961C61.6758 87.4961 62.168 87.2891 62.4805 86.875C62.793 86.4609 62.9492 85.8984 62.9492 85.1875C62.9492 83.6094 62.3008 82.8203 61.0039 82.8203C59.6914 82.8203 59.0352 83.6094 59.0352 85.1875ZM75.4414 83.1953C74.6836 83.1953 74.0898 83.4375 73.6602 83.9219C73.2305 84.3984 72.9844 85.0781 72.9219 85.9609H77.9375C77.9219 85.0781 77.6914 84.3984 77.2461 83.9219C76.8008 83.4375 76.1992 83.1953 75.4414 83.1953ZM75.9453 94.2344C73.8359 94.2344 72.1875 93.6523 71 92.4883C69.8125 91.3242 69.2188 89.6758 69.2188 87.543C69.2188 85.3477 69.7656 83.6523 70.8594 82.457C71.9609 81.2539 73.4805 80.6523 75.418 80.6523C77.2695 80.6523 78.7109 81.1797 79.7422 82.2344C80.7734 83.2891 81.2891 84.7461 81.2891 86.6055V88.3398H72.8398C72.8789 89.3555 73.1797 90.1484 73.7422 90.7188C74.3047 91.2891 75.0938 91.5742 76.1094 91.5742C76.8984 91.5742 77.6445 91.4922 78.3477 91.3281C79.0508 91.1641 79.7852 90.9023 80.5508 90.543V93.3086C79.9258 93.6211 79.2578 93.8516 78.5469 94C77.8359 94.1562 76.9688 94.2344 75.9453 94.2344ZM96.2891 94H92.7148V86.3477C92.7148 85.4023 92.5469 84.6953 92.2109 84.2266C91.875 83.75 91.3398 83.5117 90.6055 83.5117C89.6055 83.5117 88.8828 83.8477 88.4375 84.5195C87.9922 85.1836 87.7695 86.2891 87.7695 87.8359V94H84.1953V80.8984H86.9258L87.4062 82.5742H87.6055C88.0039 81.9414 88.5508 81.4648 89.2461 81.1445C89.9492 80.8164 90.7461 80.6523 91.6367 80.6523C93.1602 80.6523 94.3164 81.0664 95.1055 81.8945C95.8945 82.7148 96.2891 83.9023 96.2891 85.457V94ZM105.289 94.2344C101.211 94.2344 99.1719 91.9961 99.1719 87.5195C99.1719 85.293 99.7266 83.5938 100.836 82.4219C101.945 81.2422 103.535 80.6523 105.605 80.6523C107.121 80.6523 108.48 80.9492 109.684 81.543L108.629 84.3086C108.066 84.082 107.543 83.8984 107.059 83.7578C106.574 83.6094 106.09 83.5352 105.605 83.5352C103.746 83.5352 102.816 84.8555 102.816 87.4961C102.816 90.0586 103.746 91.3398 105.605 91.3398C106.293 91.3398 106.93 91.25 107.516 91.0703C108.102 90.8828 108.688 90.5938 109.273 90.2031V93.2617C108.695 93.6289 108.109 93.8828 107.516 94.0234C106.93 94.1641 106.188 94.2344 105.289 94.2344ZM110.445 80.8984H114.359L116.832 88.2695C117.043 88.9102 117.188 89.668 117.266 90.543H117.336C117.422 89.7383 117.59 88.9805 117.84 88.2695L120.266 80.8984H124.098L118.555 95.6758C118.047 97.043 117.32 98.0664 116.375 98.7461C115.438 99.4258 114.34 99.7656 113.082 99.7656C112.465 99.7656 111.859 99.6992 111.266 99.5664V96.7305C111.695 96.832 112.164 96.8828 112.672 96.8828C113.305 96.8828 113.855 96.6875 114.324 96.2969C114.801 95.9141 115.172 95.332 115.438 94.5508L115.648 93.9062L110.445 80.8984Z" fill="black"/>
<path d="M47.7383 121.699C45.5898 121.699 43.8984 122.387 42.6641 123.762C41.4297 125.137 40.8125 127.02 40.8125 129.41C40.8125 131.855 41.3945 133.754 42.5586 135.105C43.7227 136.457 45.3867 137.133 47.5508 137.133C48.9883 137.133 50.3086 136.949 51.5117 136.582V137.637C50.3789 138.035 48.9648 138.234 47.2695 138.234C44.8633 138.234 42.9688 137.457 41.5859 135.902C40.2031 134.348 39.5117 132.176 39.5117 129.387C39.5117 127.645 39.8398 126.109 40.4961 124.781C41.1602 123.453 42.1094 122.43 43.3438 121.711C44.5859 120.984 46.0273 120.621 47.668 120.621C49.3398 120.621 50.8359 120.934 52.1562 121.559L51.6758 122.637C50.4258 122.012 49.1133 121.699 47.7383 121.699ZM62.7734 138L62.4805 135.984H62.3867C61.7461 136.805 61.0859 137.387 60.4062 137.73C59.7344 138.066 58.9375 138.234 58.0156 138.234C56.7656 138.234 55.793 137.914 55.0977 137.273C54.4023 136.633 54.0547 135.746 54.0547 134.613C54.0547 133.371 54.5703 132.406 55.6016 131.719C56.6406 131.031 58.1406 130.668 60.1016 130.629L62.5273 130.559V129.715C62.5273 128.504 62.2812 127.59 61.7891 126.973C61.2969 126.355 60.5039 126.047 59.4102 126.047C58.2305 126.047 57.0078 126.375 55.7422 127.031L55.3086 126.023C56.707 125.367 58.0898 125.039 59.457 125.039C60.8555 125.039 61.8984 125.402 62.5859 126.129C63.2812 126.855 63.6289 127.988 63.6289 129.527V138H62.7734ZM58.0859 137.18C59.4453 137.18 60.5156 136.793 61.2969 136.02C62.0859 135.238 62.4805 134.156 62.4805 132.773V131.52L60.2539 131.613C58.4648 131.699 57.1875 131.98 56.4219 132.457C55.6641 132.926 55.2852 133.66 55.2852 134.66C55.2852 135.457 55.5273 136.078 56.0117 136.523C56.5039 136.961 57.1953 137.18 58.0859 137.18ZM75.6641 134.684C75.6641 135.824 75.2305 136.703 74.3633 137.32C73.4961 137.93 72.2656 138.234 70.6719 138.234C68.9688 138.234 67.6172 137.973 66.6172 137.449V136.195C67.8984 136.836 69.25 137.156 70.6719 137.156C71.9297 137.156 72.8828 136.949 73.5312 136.535C74.1875 136.113 74.5156 135.555 74.5156 134.859C74.5156 134.219 74.2539 133.68 73.7305 133.242C73.2148 132.805 72.3633 132.375 71.1758 131.953C69.9023 131.492 69.0078 131.098 68.4922 130.77C67.9766 130.434 67.5859 130.059 67.3203 129.645C67.0625 129.223 66.9336 128.711 66.9336 128.109C66.9336 127.156 67.332 126.402 68.1289 125.848C68.9336 125.293 70.0547 125.016 71.4922 125.016C72.8672 125.016 74.1719 125.273 75.4062 125.789L74.9727 126.844C73.7227 126.328 72.5625 126.07 71.4922 126.07C70.4531 126.07 69.6289 126.242 69.0195 126.586C68.4102 126.93 68.1055 127.406 68.1055 128.016C68.1055 128.68 68.3398 129.211 68.8086 129.609C69.2852 130.008 70.2109 130.453 71.5859 130.945C72.7344 131.359 73.5703 131.734 74.0938 132.07C74.6172 132.398 75.0078 132.773 75.2656 133.195C75.5312 133.617 75.6641 134.113 75.6641 134.684ZM84.0898 138.234C82.2383 138.234 80.793 137.664 79.7539 136.523C78.7227 135.383 78.207 133.785 78.207 131.73C78.207 129.699 78.707 128.074 79.707 126.855C80.707 125.629 82.0547 125.016 83.75 125.016C85.25 125.016 86.4336 125.539 87.3008 126.586C88.168 127.633 88.6016 129.055 88.6016 130.852V131.789H79.4258C79.4414 133.539 79.8477 134.875 80.6445 135.797C81.4492 136.719 82.5977 137.18 84.0898 137.18C84.8164 137.18 85.4531 137.129 86 137.027C86.5547 136.926 87.2539 136.707 88.0977 136.371V137.426C87.3789 137.738 86.7148 137.949 86.1055 138.059C85.4961 138.176 84.8242 138.234 84.0898 138.234ZM83.75 126.047C82.5234 126.047 81.5391 126.453 80.7969 127.266C80.0547 128.07 79.6211 129.234 79.4961 130.758H87.3711C87.3711 129.281 87.0508 128.129 86.4102 127.301C85.7695 126.465 84.8828 126.047 83.75 126.047ZM108.102 133.582C108.102 135.012 107.574 136.145 106.52 136.98C105.473 137.816 104.078 138.234 102.336 138.234C100.242 138.234 98.6367 138.004 97.5195 137.543V136.348C98.7539 136.871 100.328 137.133 102.242 137.133C103.648 137.133 104.762 136.812 105.582 136.172C106.41 135.523 106.824 134.676 106.824 133.629C106.824 132.98 106.688 132.445 106.414 132.023C106.141 131.594 105.695 131.203 105.078 130.852C104.461 130.5 103.555 130.121 102.359 129.715C100.609 129.113 99.3984 128.465 98.7266 127.77C98.0625 127.066 97.7305 126.133 97.7305 124.969C97.7305 123.688 98.2305 122.645 99.2305 121.84C100.238 121.027 101.531 120.621 103.109 120.621C104.719 120.621 106.23 120.926 107.645 121.535L107.211 122.566C105.789 121.973 104.43 121.676 103.133 121.676C101.867 121.676 100.859 121.969 100.109 122.555C99.3594 123.141 98.9844 123.938 98.9844 124.945C98.9844 125.578 99.0977 126.098 99.3242 126.504C99.5586 126.91 99.9375 127.277 100.461 127.605C100.984 127.926 101.883 128.312 103.156 128.766C104.492 129.227 105.496 129.676 106.168 130.113C106.84 130.543 107.328 131.035 107.633 131.59C107.945 132.137 108.102 132.801 108.102 133.582ZM114.793 137.203C115.527 137.203 116.168 137.141 116.715 137.016V137.953C116.152 138.141 115.504 138.234 114.77 138.234C113.645 138.234 112.812 137.934 112.273 137.332C111.742 136.73 111.477 135.785 111.477 134.496V126.27H109.59V125.59L111.477 125.062L112.062 122.18H112.66V125.262H116.398V126.27H112.66V134.332C112.66 135.309 112.832 136.031 113.176 136.5C113.52 136.969 114.059 137.203 114.793 137.203ZM120.477 125.262V133.512C120.477 134.793 120.746 135.727 121.285 136.312C121.824 136.891 122.66 137.18 123.793 137.18C125.309 137.18 126.422 136.797 127.133 136.031C127.852 135.266 128.211 134.02 128.211 132.293V125.262H129.359V138H128.375L128.164 136.242H128.094C127.266 137.57 125.793 138.234 123.676 138.234C120.777 138.234 119.328 136.684 119.328 133.582V125.262H120.477ZM138.289 125.016C139.211 125.016 140.008 125.184 140.68 125.52C141.352 125.855 141.953 126.43 142.484 127.242H142.555C142.508 126.258 142.484 125.293 142.484 124.348V119.766H143.633V138H142.871L142.578 136.055H142.484C141.516 137.508 140.125 138.234 138.312 138.234C136.555 138.234 135.211 137.688 134.281 136.594C133.352 135.5 132.887 133.906 132.887 131.812C132.887 129.609 133.348 127.926 134.27 126.762C135.191 125.598 136.531 125.016 138.289 125.016ZM138.289 126.07C136.898 126.07 135.852 126.559 135.148 127.535C134.453 128.512 134.105 129.93 134.105 131.789C134.105 135.398 135.508 137.203 138.312 137.203C139.75 137.203 140.805 136.785 141.477 135.949C142.148 135.113 142.484 133.734 142.484 131.812V131.613C142.484 129.645 142.152 128.23 141.488 127.371C140.832 126.504 139.766 126.07 138.289 126.07ZM145.789 125.262H146.984L149.68 132.41C150.5 134.605 151.02 136.086 151.238 136.852H151.309C151.637 135.844 152.172 134.34 152.914 132.34L155.609 125.262H156.805L151.098 140.062C150.637 141.266 150.25 142.078 149.938 142.5C149.625 142.922 149.258 143.238 148.836 143.449C148.422 143.66 147.918 143.766 147.324 143.766C146.879 143.766 146.383 143.684 145.836 143.52V142.512C146.289 142.637 146.777 142.699 147.301 142.699C147.699 142.699 148.051 142.605 148.355 142.418C148.66 142.23 148.934 141.938 149.176 141.539C149.426 141.148 149.711 140.523 150.031 139.664C150.359 138.812 150.57 138.258 150.664 138L145.789 125.262Z" fill="black"/>
<path d="M256.222 127.467L262.711 120.978M256.222 127.467V108V127.467ZM256.222 127.467L249.733 120.978L256.222 127.467Z" stroke="#757575" stroke-width="3" stroke-linecap="round" stroke-linejoin="round"/>
<path d="M240 130.711L241.007 134.742C241.183 135.444 241.588 136.067 242.158 136.513C242.728 136.958 243.431 137.2 244.155 137.2H268.29C269.013 137.2 269.716 136.958 270.286 136.513C270.857 136.067 271.262 135.444 271.437 134.742L272.444 130.711" stroke="#757575" stroke-width="3" stroke-linecap="round" stroke-linejoin="round"/>
</svg>
