<svg width="470" height="317" viewBox="0 0 470 317" fill="none" xmlns="http://www.w3.org/2000/svg">
<rect width="470" height="317" fill="#F0F8FC"/>
<path d="M47.2695 73.5919C47.2695 74.6622 46.9453 75.5723 46.2969 76.3223C45.6484 77.0723 44.7383 77.588 43.5664 77.8692V77.9395C44.9492 78.1114 45.9961 78.5333 46.707 79.2051C47.418 79.8692 47.7734 80.7676 47.7734 81.9005C47.7734 83.5489 47.1758 84.834 45.9805 85.7559C44.7852 86.67 43.0781 87.127 40.8594 87.127C39 87.127 37.3516 86.8184 35.9141 86.2012V83.1192C36.5781 83.4551 37.3086 83.7286 38.1055 83.9395C38.9023 84.1505 39.6914 84.2559 40.4727 84.2559C41.668 84.2559 42.5508 84.0528 43.1211 83.6465C43.6914 83.2403 43.9766 82.588 43.9766 81.6895C43.9766 80.8848 43.6484 80.3145 42.9922 79.9786C42.3359 79.6426 41.2891 79.4747 39.8516 79.4747H38.5508V76.6973H39.875C41.2031 76.6973 42.1719 76.5255 42.7812 76.1817C43.3984 75.8301 43.707 75.2325 43.707 74.3887C43.707 73.0919 42.8945 72.4434 41.2695 72.4434C40.707 72.4434 40.1328 72.5372 39.5469 72.7247C38.9688 72.9122 38.3242 73.2364 37.6133 73.6973L35.9375 71.2012C37.5 70.0762 39.3633 69.5137 41.5273 69.5137C43.3008 69.5137 44.6992 69.8731 45.7227 70.5919C46.7539 71.3106 47.2695 72.3106 47.2695 73.5919ZM67.2148 82.1348C67.2148 83.6817 66.6562 84.9005 65.5391 85.7911C64.4297 86.6817 62.8828 87.127 60.8984 87.127C59.0703 87.127 57.4531 86.7833 56.0469 86.0958V82.7208C57.2031 83.2364 58.1797 83.5997 58.9766 83.8106C59.7812 84.0215 60.5156 84.127 61.1797 84.127C61.9766 84.127 62.5859 83.9747 63.0078 83.67C63.4375 83.3653 63.6523 82.9122 63.6523 82.3106C63.6523 81.9747 63.5586 81.6778 63.3711 81.42C63.1836 81.1544 62.9062 80.9005 62.5391 80.6583C62.1797 80.4161 61.4414 80.0294 60.3242 79.4981C59.2773 79.0059 58.4922 78.5333 57.9688 78.0801C57.4453 77.627 57.0273 77.0997 56.7148 76.4981C56.4023 75.8965 56.2461 75.1934 56.2461 74.3887C56.2461 72.8731 56.7578 71.6817 57.7812 70.8145C58.8125 69.9473 60.2344 69.5137 62.0469 69.5137C62.9375 69.5137 63.7852 69.6192 64.5898 69.8301C65.4023 70.0411 66.25 70.338 67.1328 70.7208L65.9609 73.545C65.0469 73.17 64.2891 72.9083 63.6875 72.7598C63.0938 72.6114 62.5078 72.5372 61.9297 72.5372C61.2422 72.5372 60.7148 72.6973 60.3477 73.0176C59.9805 73.338 59.7969 73.7559 59.7969 74.2715C59.7969 74.5919 59.8711 74.8731 60.0195 75.1153C60.168 75.3497 60.4023 75.5801 60.7227 75.8067C61.0508 76.0255 61.8203 76.4239 63.0312 77.002C64.6328 77.7676 65.7305 78.5372 66.3242 79.3106C66.918 80.0762 67.2148 81.0176 67.2148 82.1348ZM75.5586 84.2794C76.1836 84.2794 76.9336 84.1426 77.8086 83.8692V86.5294C76.918 86.9278 75.8242 87.127 74.5273 87.127C73.0977 87.127 72.0547 86.7676 71.3984 86.0489C70.75 85.3223 70.4258 84.2364 70.4258 82.7911V76.4747H68.7148V74.963L70.6836 73.7676L71.7148 71.002H74V73.7911H77.668V76.4747H74V82.7911C74 83.2989 74.1406 83.6739 74.4219 83.9161C74.7109 84.1583 75.0898 84.2794 75.5586 84.2794ZM85.8945 76.088C85.1367 76.088 84.543 76.3301 84.1133 76.8145C83.6836 77.2911 83.4375 77.9708 83.375 78.8536H88.3906C88.375 77.9708 88.1445 77.2911 87.6992 76.8145C87.2539 76.3301 86.6523 76.088 85.8945 76.088ZM86.3984 87.127C84.2891 87.127 82.6406 86.545 81.4531 85.3809C80.2656 84.2169 79.6719 82.5684 79.6719 80.4356C79.6719 78.2403 80.2188 76.545 81.3125 75.3497C82.4141 74.1465 83.9336 73.545 85.8711 73.545C87.7227 73.545 89.1641 74.0723 90.1953 75.127C91.2266 76.1817 91.7422 77.6387 91.7422 79.4981V81.2325H83.293C83.332 82.2481 83.6328 83.0411 84.1953 83.6114C84.7578 84.1817 85.5469 84.4669 86.5625 84.4669C87.3516 84.4669 88.0977 84.3848 88.8008 84.2208C89.5039 84.0567 90.2383 83.795 91.0039 83.4356V86.2012C90.3789 86.5137 89.7109 86.7442 89 86.8926C88.2891 87.0489 87.4219 87.127 86.3984 87.127ZM101.844 87.127C100.305 87.127 99.0977 86.5684 98.2227 85.4512H98.0352C98.1602 86.545 98.2227 87.1778 98.2227 87.3497V92.6583H94.6484V73.7911H97.5547L98.0586 75.4903H98.2227C99.0586 74.1934 100.297 73.545 101.938 73.545C103.484 73.545 104.695 74.1426 105.57 75.338C106.445 76.5333 106.883 78.1934 106.883 80.3184C106.883 81.7169 106.676 82.9317 106.262 83.963C105.855 84.9942 105.273 85.7794 104.516 86.3184C103.758 86.8575 102.867 87.127 101.844 87.127ZM100.789 76.4044C99.9062 76.4044 99.2617 76.6778 98.8555 77.2247C98.4492 77.7637 98.2383 78.6583 98.2227 79.9083V80.295C98.2227 81.7012 98.4297 82.709 98.8438 83.3184C99.2656 83.9278 99.9297 84.2325 100.836 84.2325C102.438 84.2325 103.238 82.9122 103.238 80.2715C103.238 78.9825 103.039 78.0176 102.641 77.377C102.25 76.7286 101.633 76.4044 100.789 76.4044ZM118.977 83.002C118.977 84.3458 118.508 85.3692 117.57 86.0723C116.641 86.7755 115.246 87.127 113.387 87.127C112.434 87.127 111.621 87.0606 110.949 86.9278C110.277 86.8028 109.648 86.6153 109.062 86.3653V83.4122C109.727 83.7247 110.473 83.9864 111.301 84.1973C112.137 84.4083 112.871 84.5137 113.504 84.5137C114.801 84.5137 115.449 84.1387 115.449 83.3887C115.449 83.1075 115.363 82.8809 115.191 82.709C115.02 82.5294 114.723 82.3301 114.301 82.1114C113.879 81.8848 113.316 81.6231 112.613 81.3262C111.605 80.9044 110.863 80.5137 110.387 80.1544C109.918 79.795 109.574 79.3848 109.355 78.9239C109.145 78.4551 109.039 77.8809 109.039 77.2012C109.039 76.0372 109.488 75.1387 110.387 74.5059C111.293 73.8653 112.574 73.545 114.23 73.545C115.809 73.545 117.344 73.8887 118.836 74.5762L117.758 77.1544C117.102 76.8731 116.488 76.6426 115.918 76.463C115.348 76.2833 114.766 76.1934 114.172 76.1934C113.117 76.1934 112.59 76.4786 112.59 77.0489C112.59 77.3692 112.758 77.6465 113.094 77.8809C113.438 78.1153 114.184 78.463 115.332 78.9239C116.355 79.338 117.105 79.7247 117.582 80.084C118.059 80.4434 118.41 80.8575 118.637 81.3262C118.863 81.795 118.977 82.3536 118.977 83.002ZM133.613 76.8145L137.188 69.7598H141.102L135.418 80.2247V86.8926H131.809V80.3419L126.125 69.7598H130.062L133.613 76.8145ZM145.824 80.3184C145.824 81.6153 146.035 82.5958 146.457 83.2598C146.887 83.9239 147.582 84.2559 148.543 84.2559C149.496 84.2559 150.18 83.9278 150.594 83.2715C151.016 82.6075 151.227 81.6231 151.227 80.3184C151.227 79.0215 151.016 78.0489 150.594 77.4005C150.172 76.752 149.48 76.4278 148.52 76.4278C147.566 76.4278 146.879 76.752 146.457 77.4005C146.035 78.0411 145.824 79.0137 145.824 80.3184ZM154.883 80.3184C154.883 82.4512 154.32 84.1192 153.195 85.3223C152.07 86.5255 150.504 87.127 148.496 87.127C147.238 87.127 146.129 86.8536 145.168 86.3067C144.207 85.752 143.469 84.959 142.953 83.9278C142.438 82.8965 142.18 81.6934 142.18 80.3184C142.18 78.1778 142.738 76.5137 143.855 75.3262C144.973 74.1387 146.543 73.545 148.566 73.545C149.824 73.545 150.934 73.8184 151.895 74.3653C152.855 74.9122 153.594 75.6973 154.109 76.7208C154.625 77.7442 154.883 78.9434 154.883 80.3184ZM167.117 86.8926L166.637 85.2169H166.449C166.066 85.8262 165.523 86.2989 164.82 86.6348C164.117 86.963 163.316 87.127 162.418 87.127C160.879 87.127 159.719 86.7169 158.938 85.8965C158.156 85.0684 157.766 83.8809 157.766 82.334V73.7911H161.34V81.4434C161.34 82.3887 161.508 83.0997 161.844 83.5762C162.18 84.045 162.715 84.2794 163.449 84.2794C164.449 84.2794 165.172 83.9473 165.617 83.2833C166.062 82.6114 166.285 81.502 166.285 79.9551V73.7911H169.859V86.8926H167.117ZM187.402 72.5372C186.035 72.5372 184.977 73.0528 184.227 74.084C183.477 75.1075 183.102 76.5372 183.102 78.3731C183.102 82.1934 184.535 84.1036 187.402 84.1036C188.605 84.1036 190.062 83.8028 191.773 83.2012V86.2481C190.367 86.834 188.797 87.127 187.062 87.127C184.57 87.127 182.664 86.3731 181.344 84.8653C180.023 83.3497 179.363 81.1778 179.363 78.3497C179.363 76.5684 179.688 75.0098 180.336 73.6739C180.984 72.3301 181.914 71.3028 183.125 70.5919C184.344 69.8731 185.77 69.5137 187.402 69.5137C189.066 69.5137 190.738 69.9161 192.418 70.7208L191.246 73.6739C190.605 73.3692 189.961 73.1036 189.312 72.877C188.664 72.6505 188.027 72.5372 187.402 72.5372ZM203.469 86.8926L202.777 85.1114H202.684C202.082 85.8692 201.461 86.3965 200.82 86.6934C200.188 86.9825 199.359 87.127 198.336 87.127C197.078 87.127 196.086 86.7676 195.359 86.0489C194.641 85.3301 194.281 84.3067 194.281 82.9786C194.281 81.588 194.766 80.5645 195.734 79.9083C196.711 79.2442 198.18 78.877 200.141 78.8067L202.414 78.7364V78.1622C202.414 76.834 201.734 76.17 200.375 76.17C199.328 76.17 198.098 76.4864 196.684 77.1192L195.5 74.7051C197.008 73.9161 198.68 73.5215 200.516 73.5215C202.273 73.5215 203.621 73.9044 204.559 74.67C205.496 75.4356 205.965 76.5997 205.965 78.1622V86.8926H203.469ZM202.414 80.8223L201.031 80.8692C199.992 80.9005 199.219 81.088 198.711 81.4317C198.203 81.7755 197.949 82.2989 197.949 83.002C197.949 84.0098 198.527 84.5137 199.684 84.5137C200.512 84.5137 201.172 84.2755 201.664 83.7989C202.164 83.3223 202.414 82.6895 202.414 81.9005V80.8223ZM221.75 86.8926H218.176V79.2403C218.176 78.295 218.008 77.588 217.672 77.1192C217.336 76.6426 216.801 76.4044 216.066 76.4044C215.066 76.4044 214.344 76.7403 213.898 77.4122C213.453 78.0762 213.23 79.1817 213.23 80.7286V86.8926H209.656V73.7911H212.387L212.867 75.4669H213.066C213.465 74.834 214.012 74.3575 214.707 74.0372C215.41 73.709 216.207 73.545 217.098 73.545C218.621 73.545 219.777 73.959 220.566 74.7872C221.355 75.6075 221.75 76.795 221.75 78.3497V86.8926ZM238.555 86.8926H234.922V72.7833H230.27V69.7598H243.207V72.7833H238.555V86.8926ZM253.883 86.8926L253.191 85.1114H253.098C252.496 85.8692 251.875 86.3965 251.234 86.6934C250.602 86.9825 249.773 87.127 248.75 87.127C247.492 87.127 246.5 86.7676 245.773 86.0489C245.055 85.3301 244.695 84.3067 244.695 82.9786C244.695 81.588 245.18 80.5645 246.148 79.9083C247.125 79.2442 248.594 78.877 250.555 78.8067L252.828 78.7364V78.1622C252.828 76.834 252.148 76.17 250.789 76.17C249.742 76.17 248.512 76.4864 247.098 77.1192L245.914 74.7051C247.422 73.9161 249.094 73.5215 250.93 73.5215C252.688 73.5215 254.035 73.9044 254.973 74.67C255.91 75.4356 256.379 76.5997 256.379 78.1622V86.8926H253.883ZM252.828 80.8223L251.445 80.8692C250.406 80.9005 249.633 81.088 249.125 81.4317C248.617 81.7755 248.363 82.2989 248.363 83.002C248.363 84.0098 248.941 84.5137 250.098 84.5137C250.926 84.5137 251.586 84.2755 252.078 83.7989C252.578 83.3223 252.828 82.6895 252.828 81.9005V80.8223ZM263.504 79.7676L265.062 77.7755L268.73 73.7911H272.762L267.559 79.4747L273.078 86.8926H268.953L265.18 81.584L263.645 82.8145V86.8926H260.07V68.6583H263.645V76.7911L263.457 79.7676H263.504ZM280.379 76.088C279.621 76.088 279.027 76.3301 278.598 76.8145C278.168 77.2911 277.922 77.9708 277.859 78.8536H282.875C282.859 77.9708 282.629 77.2911 282.184 76.8145C281.738 76.3301 281.137 76.088 280.379 76.088ZM280.883 87.127C278.773 87.127 277.125 86.545 275.938 85.3809C274.75 84.2169 274.156 82.5684 274.156 80.4356C274.156 78.2403 274.703 76.545 275.797 75.3497C276.898 74.1465 278.418 73.545 280.355 73.545C282.207 73.545 283.648 74.0723 284.68 75.127C285.711 76.1817 286.227 77.6387 286.227 79.4981V81.2325H277.777C277.816 82.2481 278.117 83.0411 278.68 83.6114C279.242 84.1817 280.031 84.4669 281.047 84.4669C281.836 84.4669 282.582 84.3848 283.285 84.2208C283.988 84.0567 284.723 83.795 285.488 83.4356V86.2012C284.863 86.5137 284.195 86.7442 283.484 86.8926C282.773 87.0489 281.906 87.127 280.883 87.127ZM302.258 86.8926H298.625V72.7833H293.973V69.7598H306.91V72.7833H302.258V86.8926ZM312.113 80.3184C312.113 81.6153 312.324 82.5958 312.746 83.2598C313.176 83.9239 313.871 84.2559 314.832 84.2559C315.785 84.2559 316.469 83.9278 316.883 83.2715C317.305 82.6075 317.516 81.6231 317.516 80.3184C317.516 79.0215 317.305 78.0489 316.883 77.4005C316.461 76.752 315.77 76.4278 314.809 76.4278C313.855 76.4278 313.168 76.752 312.746 77.4005C312.324 78.0411 312.113 79.0137 312.113 80.3184ZM321.172 80.3184C321.172 82.4512 320.609 84.1192 319.484 85.3223C318.359 86.5255 316.793 87.127 314.785 87.127C313.527 87.127 312.418 86.8536 311.457 86.3067C310.496 85.752 309.758 84.959 309.242 83.9278C308.727 82.8965 308.469 81.6934 308.469 80.3184C308.469 78.1778 309.027 76.5137 310.145 75.3262C311.262 74.1387 312.832 73.545 314.855 73.545C316.113 73.545 317.223 73.8184 318.184 74.3653C319.145 74.9122 319.883 75.6973 320.398 76.7208C320.914 77.7442 321.172 78.9434 321.172 80.3184ZM328.273 87.127C326.734 87.127 325.523 86.5294 324.641 85.334C323.766 84.1387 323.328 82.4825 323.328 80.3653C323.328 78.2169 323.773 76.545 324.664 75.3497C325.562 74.1465 326.797 73.545 328.367 73.545C330.016 73.545 331.273 74.1856 332.141 75.4669H332.258C332.078 74.4903 331.988 73.6192 331.988 72.8536V68.6583H335.574V86.8926H332.832L332.141 85.1934H331.988C331.176 86.4825 329.938 87.127 328.273 87.127ZM329.527 84.2794C330.441 84.2794 331.109 84.0137 331.531 83.4825C331.961 82.9512 332.195 82.0489 332.234 80.7755V80.3887C332.234 78.9825 332.016 77.9747 331.578 77.3653C331.148 76.7559 330.445 76.4512 329.469 76.4512C328.672 76.4512 328.051 76.7911 327.605 77.4708C327.168 78.1426 326.949 79.1231 326.949 80.4122C326.949 81.7012 327.172 82.67 327.617 83.3184C328.062 83.959 328.699 84.2794 329.527 84.2794ZM347.633 86.8926L346.941 85.1114H346.848C346.246 85.8692 345.625 86.3965 344.984 86.6934C344.352 86.9825 343.523 87.127 342.5 87.127C341.242 87.127 340.25 86.7676 339.523 86.0489C338.805 85.3301 338.445 84.3067 338.445 82.9786C338.445 81.588 338.93 80.5645 339.898 79.9083C340.875 79.2442 342.344 78.877 344.305 78.8067L346.578 78.7364V78.1622C346.578 76.834 345.898 76.17 344.539 76.17C343.492 76.17 342.262 76.4864 340.848 77.1192L339.664 74.7051C341.172 73.9161 342.844 73.5215 344.68 73.5215C346.438 73.5215 347.785 73.9044 348.723 74.67C349.66 75.4356 350.129 76.5997 350.129 78.1622V86.8926H347.633ZM346.578 80.8223L345.195 80.8692C344.156 80.9005 343.383 81.088 342.875 81.4317C342.367 81.7755 342.113 82.2989 342.113 83.002C342.113 84.0098 342.691 84.5137 343.848 84.5137C344.676 84.5137 345.336 84.2755 345.828 83.7989C346.328 83.3223 346.578 82.6895 346.578 81.9005V80.8223ZM351.945 73.7911H355.859L358.332 81.1622C358.543 81.8028 358.688 82.5606 358.766 83.4356H358.836C358.922 82.6309 359.09 81.8731 359.34 81.1622L361.766 73.7911H365.598L360.055 88.5684C359.547 89.9356 358.82 90.959 357.875 91.6387C356.938 92.3184 355.84 92.6583 354.582 92.6583C353.965 92.6583 353.359 92.5919 352.766 92.459V89.6231C353.195 89.7247 353.664 89.7755 354.172 89.7755C354.805 89.7755 355.355 89.5801 355.824 89.1895C356.301 88.8067 356.672 88.2247 356.938 87.4434L357.148 86.7989L351.945 73.7911ZM42.3945 117.279C43.0195 117.279 43.7695 117.143 44.6445 116.869V119.529C43.7539 119.928 42.6602 120.127 41.3633 120.127C39.9336 120.127 38.8906 119.768 38.2344 119.049C37.5859 118.322 37.2617 117.236 37.2617 115.791V109.475H35.5508V107.963L37.5195 106.768L38.5508 104.002H40.8359V106.791H44.5039V109.475H40.8359V115.791C40.8359 116.299 40.9766 116.674 41.2578 116.916C41.5469 117.158 41.9258 117.279 42.3945 117.279ZM50.1523 113.318C50.1523 114.615 50.3633 115.596 50.7852 116.26C51.2148 116.924 51.9102 117.256 52.8711 117.256C53.8242 117.256 54.5078 116.928 54.9219 116.272C55.3438 115.607 55.5547 114.623 55.5547 113.318C55.5547 112.022 55.3438 111.049 54.9219 110.4C54.5 109.752 53.8086 109.428 52.8477 109.428C51.8945 109.428 51.207 109.752 50.7852 110.4C50.3633 111.041 50.1523 112.014 50.1523 113.318ZM59.2109 113.318C59.2109 115.451 58.6484 117.119 57.5234 118.322C56.3984 119.525 54.832 120.127 52.8242 120.127C51.5664 120.127 50.457 119.854 49.4961 119.307C48.5352 118.752 47.7969 117.959 47.2812 116.928C46.7656 115.897 46.5078 114.693 46.5078 113.318C46.5078 111.178 47.0664 109.514 48.1836 108.326C49.3008 107.139 50.8711 106.545 52.8945 106.545C54.1523 106.545 55.2617 106.818 56.2227 107.365C57.1836 107.912 57.9219 108.697 58.4375 109.721C58.9531 110.744 59.2109 111.943 59.2109 113.318ZM72.3125 110.822H73.5078C74.625 110.822 75.4609 110.604 76.0156 110.166C76.5703 109.721 76.8477 109.076 76.8477 108.232C76.8477 107.381 76.6133 106.752 76.1445 106.346C75.6836 105.94 74.957 105.736 73.9648 105.736H72.3125V110.822ZM80.5156 108.104C80.5156 109.947 79.9375 111.357 78.7812 112.334C77.6328 113.311 75.9961 113.799 73.8711 113.799H72.3125V119.893H68.6797V102.76H74.1523C76.2305 102.76 77.8086 103.209 78.8867 104.107C79.9727 104.998 80.5156 106.33 80.5156 108.104ZM90.7812 106.545C91.2656 106.545 91.668 106.58 91.9883 106.65L91.7188 110.002C91.4297 109.924 91.0781 109.885 90.6641 109.885C89.5234 109.885 88.6328 110.178 87.9922 110.764C87.3594 111.35 87.043 112.17 87.043 113.225V119.893H83.4688V106.791H86.1758L86.7031 108.994H86.8789C87.2852 108.26 87.832 107.67 88.5195 107.225C89.2148 106.772 89.9688 106.545 90.7812 106.545ZM97.2148 113.318C97.2148 114.615 97.4258 115.596 97.8477 116.26C98.2773 116.924 98.9727 117.256 99.9336 117.256C100.887 117.256 101.57 116.928 101.984 116.272C102.406 115.607 102.617 114.623 102.617 113.318C102.617 112.022 102.406 111.049 101.984 110.4C101.562 109.752 100.871 109.428 99.9102 109.428C98.957 109.428 98.2695 109.752 97.8477 110.4C97.4258 111.041 97.2148 112.014 97.2148 113.318ZM106.273 113.318C106.273 115.451 105.711 117.119 104.586 118.322C103.461 119.525 101.895 120.127 99.8867 120.127C98.6289 120.127 97.5195 119.854 96.5586 119.307C95.5977 118.752 94.8594 117.959 94.3438 116.928C93.8281 115.897 93.5703 114.693 93.5703 113.318C93.5703 111.178 94.1289 109.514 95.2461 108.326C96.3633 107.139 97.9336 106.545 99.957 106.545C101.215 106.545 102.324 106.818 103.285 107.365C104.246 107.912 104.984 108.697 105.5 109.721C106.016 110.744 106.273 111.943 106.273 113.318ZM114.746 117.279C115.371 117.279 116.121 117.143 116.996 116.869V119.529C116.105 119.928 115.012 120.127 113.715 120.127C112.285 120.127 111.242 119.768 110.586 119.049C109.938 118.322 109.613 117.236 109.613 115.791V109.475H107.902V107.963L109.871 106.768L110.902 104.002H113.188V106.791H116.855V109.475H113.188V115.791C113.188 116.299 113.328 116.674 113.609 116.916C113.898 117.158 114.277 117.279 114.746 117.279ZM125.082 109.088C124.324 109.088 123.73 109.33 123.301 109.815C122.871 110.291 122.625 110.971 122.562 111.854H127.578C127.562 110.971 127.332 110.291 126.887 109.815C126.441 109.33 125.84 109.088 125.082 109.088ZM125.586 120.127C123.477 120.127 121.828 119.545 120.641 118.381C119.453 117.217 118.859 115.568 118.859 113.436C118.859 111.24 119.406 109.545 120.5 108.35C121.602 107.147 123.121 106.545 125.059 106.545C126.91 106.545 128.352 107.072 129.383 108.127C130.414 109.182 130.93 110.639 130.93 112.498V114.232H122.48C122.52 115.248 122.82 116.041 123.383 116.611C123.945 117.182 124.734 117.467 125.75 117.467C126.539 117.467 127.285 117.385 127.988 117.221C128.691 117.057 129.426 116.795 130.191 116.436V119.201C129.566 119.514 128.898 119.744 128.188 119.893C127.477 120.049 126.609 120.127 125.586 120.127ZM139.156 120.127C135.078 120.127 133.039 117.889 133.039 113.412C133.039 111.186 133.594 109.486 134.703 108.315C135.812 107.135 137.402 106.545 139.473 106.545C140.988 106.545 142.348 106.842 143.551 107.436L142.496 110.201C141.934 109.975 141.41 109.791 140.926 109.65C140.441 109.502 139.957 109.428 139.473 109.428C137.613 109.428 136.684 110.748 136.684 113.389C136.684 115.951 137.613 117.232 139.473 117.232C140.16 117.232 140.797 117.143 141.383 116.963C141.969 116.775 142.555 116.486 143.141 116.096V119.154C142.562 119.522 141.977 119.775 141.383 119.916C140.797 120.057 140.055 120.127 139.156 120.127ZM151.707 117.279C152.332 117.279 153.082 117.143 153.957 116.869V119.529C153.066 119.928 151.973 120.127 150.676 120.127C149.246 120.127 148.203 119.768 147.547 119.049C146.898 118.322 146.574 117.236 146.574 115.791V109.475H144.863V107.963L146.832 106.768L147.863 104.002H150.148V106.791H153.816V109.475H150.148V115.791C150.148 116.299 150.289 116.674 150.57 116.916C150.859 117.158 151.238 117.279 151.707 117.279ZM168.465 109.815L172.039 102.76H175.953L170.27 113.225V119.893H166.66V113.342L160.977 102.76H164.914L168.465 109.815ZM180.676 113.318C180.676 114.615 180.887 115.596 181.309 116.26C181.738 116.924 182.434 117.256 183.395 117.256C184.348 117.256 185.031 116.928 185.445 116.272C185.867 115.607 186.078 114.623 186.078 113.318C186.078 112.022 185.867 111.049 185.445 110.4C185.023 109.752 184.332 109.428 183.371 109.428C182.418 109.428 181.73 109.752 181.309 110.4C180.887 111.041 180.676 112.014 180.676 113.318ZM189.734 113.318C189.734 115.451 189.172 117.119 188.047 118.322C186.922 119.525 185.355 120.127 183.348 120.127C182.09 120.127 180.98 119.854 180.02 119.307C179.059 118.752 178.32 117.959 177.805 116.928C177.289 115.897 177.031 114.693 177.031 113.318C177.031 111.178 177.59 109.514 178.707 108.326C179.824 107.139 181.395 106.545 183.418 106.545C184.676 106.545 185.785 106.818 186.746 107.365C187.707 107.912 188.445 108.697 188.961 109.721C189.477 110.744 189.734 111.943 189.734 113.318ZM201.969 119.893L201.488 118.217H201.301C200.918 118.826 200.375 119.299 199.672 119.635C198.969 119.963 198.168 120.127 197.27 120.127C195.73 120.127 194.57 119.717 193.789 118.897C193.008 118.068 192.617 116.881 192.617 115.334V106.791H196.191V114.443C196.191 115.389 196.359 116.1 196.695 116.576C197.031 117.045 197.566 117.279 198.301 117.279C199.301 117.279 200.023 116.947 200.469 116.283C200.914 115.611 201.137 114.502 201.137 112.955V106.791H204.711V119.893H201.969ZM215.773 106.545C216.258 106.545 216.66 106.58 216.98 106.65L216.711 110.002C216.422 109.924 216.07 109.885 215.656 109.885C214.516 109.885 213.625 110.178 212.984 110.764C212.352 111.35 212.035 112.17 212.035 113.225V119.893H208.461V106.791H211.168L211.695 108.994H211.871C212.277 108.26 212.824 107.67 213.512 107.225C214.207 106.772 214.961 106.545 215.773 106.545ZM225.875 102.76H231.207C233.637 102.76 235.398 103.107 236.492 103.803C237.594 104.49 238.145 105.588 238.145 107.096C238.145 108.119 237.902 108.959 237.418 109.615C236.941 110.272 236.305 110.666 235.508 110.799V110.916C236.594 111.158 237.375 111.611 237.852 112.275C238.336 112.94 238.578 113.822 238.578 114.924C238.578 116.486 238.012 117.705 236.879 118.58C235.754 119.455 234.223 119.893 232.285 119.893H225.875V102.76ZM229.508 109.545H231.617C232.602 109.545 233.312 109.393 233.75 109.088C234.195 108.783 234.418 108.279 234.418 107.576C234.418 106.92 234.176 106.451 233.691 106.17C233.215 105.881 232.457 105.736 231.418 105.736H229.508V109.545ZM229.508 112.428V116.893H231.875C232.875 116.893 233.613 116.701 234.09 116.318C234.566 115.936 234.805 115.35 234.805 114.561C234.805 113.139 233.789 112.428 231.758 112.428H229.508ZM251 119.893L250.52 118.217H250.332C249.949 118.826 249.406 119.299 248.703 119.635C248 119.963 247.199 120.127 246.301 120.127C244.762 120.127 243.602 119.717 242.82 118.897C242.039 118.068 241.648 116.881 241.648 115.334V106.791H245.223V114.443C245.223 115.389 245.391 116.1 245.727 116.576C246.062 117.045 246.598 117.279 247.332 117.279C248.332 117.279 249.055 116.947 249.5 116.283C249.945 115.611 250.168 114.502 250.168 112.955V106.791H253.742V119.893H251ZM266.633 116.002C266.633 117.346 266.164 118.369 265.227 119.072C264.297 119.775 262.902 120.127 261.043 120.127C260.09 120.127 259.277 120.061 258.605 119.928C257.934 119.803 257.305 119.615 256.719 119.365V116.412C257.383 116.725 258.129 116.986 258.957 117.197C259.793 117.408 260.527 117.514 261.16 117.514C262.457 117.514 263.105 117.139 263.105 116.389C263.105 116.107 263.02 115.881 262.848 115.709C262.676 115.529 262.379 115.33 261.957 115.111C261.535 114.885 260.973 114.623 260.27 114.326C259.262 113.904 258.52 113.514 258.043 113.154C257.574 112.795 257.23 112.385 257.012 111.924C256.801 111.455 256.695 110.881 256.695 110.201C256.695 109.037 257.145 108.139 258.043 107.506C258.949 106.865 260.23 106.545 261.887 106.545C263.465 106.545 265 106.889 266.492 107.576L265.414 110.154C264.758 109.873 264.145 109.643 263.574 109.463C263.004 109.283 262.422 109.193 261.828 109.193C260.773 109.193 260.246 109.479 260.246 110.049C260.246 110.369 260.414 110.647 260.75 110.881C261.094 111.115 261.84 111.463 262.988 111.924C264.012 112.338 264.762 112.725 265.238 113.084C265.715 113.443 266.066 113.857 266.293 114.326C266.52 114.795 266.633 115.354 266.633 116.002ZM269.27 103.404C269.27 102.24 269.918 101.658 271.215 101.658C272.512 101.658 273.16 102.24 273.16 103.404C273.16 103.959 272.996 104.393 272.668 104.705C272.348 105.01 271.863 105.162 271.215 105.162C269.918 105.162 269.27 104.576 269.27 103.404ZM272.996 119.893H269.422V106.791H272.996V119.893ZM288.852 119.893H285.277V112.24C285.277 111.295 285.109 110.588 284.773 110.119C284.438 109.643 283.902 109.404 283.168 109.404C282.168 109.404 281.445 109.74 281 110.412C280.555 111.076 280.332 112.182 280.332 113.729V119.893H276.758V106.791H279.488L279.969 108.467H280.168C280.566 107.834 281.113 107.357 281.809 107.037C282.512 106.709 283.309 106.545 284.199 106.545C285.723 106.545 286.879 106.959 287.668 107.787C288.457 108.607 288.852 109.795 288.852 111.35V119.893ZM297.957 109.088C297.199 109.088 296.605 109.33 296.176 109.815C295.746 110.291 295.5 110.971 295.438 111.854H300.453C300.438 110.971 300.207 110.291 299.762 109.815C299.316 109.33 298.715 109.088 297.957 109.088ZM298.461 120.127C296.352 120.127 294.703 119.545 293.516 118.381C292.328 117.217 291.734 115.568 291.734 113.436C291.734 111.24 292.281 109.545 293.375 108.35C294.477 107.147 295.996 106.545 297.934 106.545C299.785 106.545 301.227 107.072 302.258 108.127C303.289 109.182 303.805 110.639 303.805 112.498V114.232H295.355C295.395 115.248 295.695 116.041 296.258 116.611C296.82 117.182 297.609 117.467 298.625 117.467C299.414 117.467 300.16 117.385 300.863 117.221C301.566 117.057 302.301 116.795 303.066 116.436V119.201C302.441 119.514 301.773 119.744 301.062 119.893C300.352 120.049 299.484 120.127 298.461 120.127ZM315.852 116.002C315.852 117.346 315.383 118.369 314.445 119.072C313.516 119.775 312.121 120.127 310.262 120.127C309.309 120.127 308.496 120.061 307.824 119.928C307.152 119.803 306.523 119.615 305.938 119.365V116.412C306.602 116.725 307.348 116.986 308.176 117.197C309.012 117.408 309.746 117.514 310.379 117.514C311.676 117.514 312.324 117.139 312.324 116.389C312.324 116.107 312.238 115.881 312.066 115.709C311.895 115.529 311.598 115.33 311.176 115.111C310.754 114.885 310.191 114.623 309.488 114.326C308.48 113.904 307.738 113.514 307.262 113.154C306.793 112.795 306.449 112.385 306.23 111.924C306.02 111.455 305.914 110.881 305.914 110.201C305.914 109.037 306.363 108.139 307.262 107.506C308.168 106.865 309.449 106.545 311.105 106.545C312.684 106.545 314.219 106.889 315.711 107.576L314.633 110.154C313.977 109.873 313.363 109.643 312.793 109.463C312.223 109.283 311.641 109.193 311.047 109.193C309.992 109.193 309.465 109.479 309.465 110.049C309.465 110.369 309.633 110.647 309.969 110.881C310.312 111.115 311.059 111.463 312.207 111.924C313.23 112.338 313.98 112.725 314.457 113.084C314.934 113.443 315.285 113.857 315.512 114.326C315.738 114.795 315.852 115.354 315.852 116.002ZM327.781 116.002C327.781 117.346 327.312 118.369 326.375 119.072C325.445 119.775 324.051 120.127 322.191 120.127C321.238 120.127 320.426 120.061 319.754 119.928C319.082 119.803 318.453 119.615 317.867 119.365V116.412C318.531 116.725 319.277 116.986 320.105 117.197C320.941 117.408 321.676 117.514 322.309 117.514C323.605 117.514 324.254 117.139 324.254 116.389C324.254 116.107 324.168 115.881 323.996 115.709C323.824 115.529 323.527 115.33 323.105 115.111C322.684 114.885 322.121 114.623 321.418 114.326C320.41 113.904 319.668 113.514 319.191 113.154C318.723 112.795 318.379 112.385 318.16 111.924C317.949 111.455 317.844 110.881 317.844 110.201C317.844 109.037 318.293 108.139 319.191 107.506C320.098 106.865 321.379 106.545 323.035 106.545C324.613 106.545 326.148 106.889 327.641 107.576L326.562 110.154C325.906 109.873 325.293 109.643 324.723 109.463C324.152 109.283 323.57 109.193 322.977 109.193C321.922 109.193 321.395 109.479 321.395 110.049C321.395 110.369 321.562 110.647 321.898 110.881C322.242 111.115 322.988 111.463 324.137 111.924C325.16 112.338 325.91 112.725 326.387 113.084C326.863 113.443 327.215 113.857 327.441 114.326C327.668 114.795 327.781 115.354 327.781 116.002ZM40.7305 152.893H37.1562V135.76H46.9766V138.736H40.7305V143.154H46.543V146.119H40.7305V152.893ZM57.3594 139.545C57.8438 139.545 58.2461 139.58 58.5664 139.65L58.2969 143.002C58.0078 142.924 57.6562 142.885 57.2422 142.885C56.1016 142.885 55.2109 143.178 54.5703 143.764C53.9375 144.35 53.6211 145.17 53.6211 146.225V152.893H50.0469V139.791H52.7539L53.2812 141.994H53.457C53.8633 141.26 54.4102 140.67 55.0977 140.225C55.793 139.772 56.5469 139.545 57.3594 139.545ZM63.793 146.318C63.793 147.615 64.0039 148.596 64.4258 149.26C64.8555 149.924 65.5508 150.256 66.5117 150.256C67.4648 150.256 68.1484 149.928 68.5625 149.272C68.9844 148.607 69.1953 147.623 69.1953 146.318C69.1953 145.022 68.9844 144.049 68.5625 143.4C68.1406 142.752 67.4492 142.428 66.4883 142.428C65.5352 142.428 64.8477 142.752 64.4258 143.4C64.0039 144.041 63.793 145.014 63.793 146.318ZM72.8516 146.318C72.8516 148.451 72.2891 150.119 71.1641 151.322C70.0391 152.525 68.4727 153.127 66.4648 153.127C65.207 153.127 64.0977 152.854 63.1367 152.307C62.1758 151.752 61.4375 150.959 60.9219 149.928C60.4062 148.897 60.1484 147.693 60.1484 146.318C60.1484 144.178 60.707 142.514 61.8242 141.326C62.9414 140.139 64.5117 139.545 66.5352 139.545C67.793 139.545 68.9023 139.818 69.8633 140.365C70.8242 140.912 71.5625 141.697 72.0781 142.721C72.5938 143.744 72.8516 144.943 72.8516 146.318ZM87.5352 152.893H83.9609V145.24C83.9609 144.295 83.8008 143.588 83.4805 143.119C83.168 142.643 82.6719 142.404 81.9922 142.404C81.0781 142.404 80.4141 142.74 80 143.412C79.5859 144.084 79.3789 145.19 79.3789 146.729V152.893H75.8047V139.791H78.5352L79.0156 141.467H79.2148C79.5664 140.865 80.0742 140.397 80.7383 140.061C81.4023 139.717 82.1641 139.545 83.0234 139.545C84.9844 139.545 86.3125 140.186 87.0078 141.467H87.3242C87.6758 140.857 88.1914 140.385 88.8711 140.049C89.5586 139.713 90.332 139.545 91.1914 139.545C92.6758 139.545 93.7969 139.928 94.5547 140.693C95.3203 141.451 95.7031 142.67 95.7031 144.35V152.893H92.1172V145.24C92.1172 144.295 91.957 143.588 91.6367 143.119C91.3242 142.643 90.8281 142.404 90.1484 142.404C89.2734 142.404 88.6172 142.717 88.1797 143.342C87.75 143.967 87.5352 144.959 87.5352 146.318V152.893ZM119.844 135.76V146.846C119.844 148.111 119.559 149.221 118.988 150.174C118.426 151.127 117.609 151.857 116.539 152.365C115.469 152.873 114.203 153.127 112.742 153.127C110.539 153.127 108.828 152.565 107.609 151.44C106.391 150.307 105.781 148.76 105.781 146.799V135.76H109.402V146.248C109.402 147.568 109.668 148.537 110.199 149.154C110.73 149.772 111.609 150.08 112.836 150.08C114.023 150.08 114.883 149.772 115.414 149.154C115.953 148.529 116.223 147.553 116.223 146.225V135.76H119.844ZM130.953 153.127C129.414 153.127 128.207 152.568 127.332 151.451H127.145C127.27 152.545 127.332 153.178 127.332 153.35V158.658H123.758V139.791H126.664L127.168 141.49H127.332C128.168 140.193 129.406 139.545 131.047 139.545C132.594 139.545 133.805 140.143 134.68 141.338C135.555 142.533 135.992 144.193 135.992 146.318C135.992 147.717 135.785 148.932 135.371 149.963C134.965 150.994 134.383 151.779 133.625 152.318C132.867 152.857 131.977 153.127 130.953 153.127ZM129.898 142.404C129.016 142.404 128.371 142.678 127.965 143.225C127.559 143.764 127.348 144.658 127.332 145.908V146.295C127.332 147.701 127.539 148.709 127.953 149.318C128.375 149.928 129.039 150.232 129.945 150.232C131.547 150.232 132.348 148.912 132.348 146.272C132.348 144.982 132.148 144.018 131.75 143.377C131.359 142.729 130.742 142.404 129.898 142.404ZM150.699 150.279C151.324 150.279 152.074 150.143 152.949 149.869V152.529C152.059 152.928 150.965 153.127 149.668 153.127C148.238 153.127 147.195 152.768 146.539 152.049C145.891 151.322 145.566 150.236 145.566 148.791V142.475H143.855V140.963L145.824 139.768L146.855 137.002H149.141V139.791H152.809V142.475H149.141V148.791C149.141 149.299 149.281 149.674 149.562 149.916C149.852 150.158 150.23 150.279 150.699 150.279ZM158.457 146.318C158.457 147.615 158.668 148.596 159.09 149.26C159.52 149.924 160.215 150.256 161.176 150.256C162.129 150.256 162.812 149.928 163.227 149.272C163.648 148.607 163.859 147.623 163.859 146.318C163.859 145.022 163.648 144.049 163.227 143.4C162.805 142.752 162.113 142.428 161.152 142.428C160.199 142.428 159.512 142.752 159.09 143.4C158.668 144.041 158.457 145.014 158.457 146.318ZM167.516 146.318C167.516 148.451 166.953 150.119 165.828 151.322C164.703 152.525 163.137 153.127 161.129 153.127C159.871 153.127 158.762 152.854 157.801 152.307C156.84 151.752 156.102 150.959 155.586 149.928C155.07 148.897 154.812 147.693 154.812 146.318C154.812 144.178 155.371 142.514 156.488 141.326C157.605 140.139 159.176 139.545 161.199 139.545C162.457 139.545 163.566 139.818 164.527 140.365C165.488 140.912 166.227 141.697 166.742 142.721C167.258 143.744 167.516 144.943 167.516 146.318ZM187.695 143.072C187.695 146.447 186.984 148.967 185.562 150.631C184.141 152.295 181.988 153.127 179.105 153.127C178.09 153.127 177.32 153.072 176.797 152.963V150.057C177.453 150.221 178.141 150.303 178.859 150.303C180.07 150.303 181.066 150.127 181.848 149.775C182.629 149.416 183.227 148.857 183.641 148.1C184.055 147.334 184.293 146.283 184.355 144.947H184.215C183.762 145.682 183.238 146.197 182.645 146.494C182.051 146.791 181.309 146.94 180.418 146.94C178.926 146.94 177.75 146.463 176.891 145.51C176.031 144.549 175.602 143.217 175.602 141.514C175.602 139.678 176.121 138.229 177.16 137.166C178.207 136.096 179.629 135.561 181.426 135.561C182.691 135.561 183.797 135.857 184.742 136.451C185.695 137.045 186.426 137.908 186.934 139.041C187.441 140.166 187.695 141.51 187.695 143.072ZM181.496 138.467C180.746 138.467 180.16 138.725 179.738 139.24C179.316 139.756 179.105 140.498 179.105 141.467C179.105 142.295 179.297 142.951 179.68 143.436C180.062 143.92 180.645 144.162 181.426 144.162C182.16 144.162 182.789 143.924 183.312 143.447C183.836 142.963 184.098 142.408 184.098 141.783C184.098 140.854 183.852 140.068 183.359 139.428C182.875 138.787 182.254 138.467 181.496 138.467ZM201.383 144.326C201.383 147.318 200.891 149.533 199.906 150.971C198.93 152.408 197.422 153.127 195.383 153.127C193.406 153.127 191.914 152.385 190.906 150.9C189.906 149.416 189.406 147.225 189.406 144.326C189.406 141.303 189.895 139.076 190.871 137.647C191.848 136.209 193.352 135.49 195.383 135.49C197.359 135.49 198.852 136.24 199.859 137.74C200.875 139.24 201.383 141.436 201.383 144.326ZM193.004 144.326C193.004 146.428 193.184 147.936 193.543 148.85C193.91 149.756 194.523 150.209 195.383 150.209C196.227 150.209 196.836 149.748 197.211 148.826C197.586 147.904 197.773 146.404 197.773 144.326C197.773 142.225 197.582 140.717 197.199 139.803C196.824 138.881 196.219 138.42 195.383 138.42C194.531 138.42 193.922 138.881 193.555 139.803C193.188 140.717 193.004 142.225 193.004 144.326ZM205.941 140.893C205.941 141.885 206.027 142.627 206.199 143.119C206.379 143.604 206.664 143.846 207.055 143.846C207.805 143.846 208.18 142.861 208.18 140.893C208.18 138.94 207.805 137.963 207.055 137.963C206.664 137.963 206.379 138.205 206.199 138.69C206.027 139.166 205.941 139.9 205.941 140.893ZM211.133 140.869C211.133 142.666 210.785 144.018 210.09 144.924C209.395 145.822 208.375 146.272 207.031 146.272C205.742 146.272 204.746 145.811 204.043 144.889C203.34 143.959 202.988 142.619 202.988 140.869C202.988 137.299 204.336 135.514 207.031 135.514C208.352 135.514 209.363 135.979 210.066 136.908C210.777 137.83 211.133 139.15 211.133 140.869ZM219.195 135.76L209.691 152.893H206.879L216.383 135.76H219.195ZM217.941 147.736C217.941 148.729 218.027 149.471 218.199 149.963C218.379 150.447 218.664 150.69 219.055 150.69C219.805 150.69 220.18 149.705 220.18 147.736C220.18 145.783 219.805 144.807 219.055 144.807C218.664 144.807 218.379 145.049 218.199 145.533C218.027 146.01 217.941 146.744 217.941 147.736ZM223.133 147.713C223.133 149.502 222.785 150.85 222.09 151.756C221.395 152.654 220.375 153.104 219.031 153.104C217.742 153.104 216.746 152.643 216.043 151.721C215.34 150.791 214.988 149.455 214.988 147.713C214.988 144.143 216.336 142.357 219.031 142.357C220.352 142.357 221.363 142.822 222.066 143.752C222.777 144.674 223.133 145.994 223.133 147.713ZM234.84 146.318C234.84 147.615 235.051 148.596 235.473 149.26C235.902 149.924 236.598 150.256 237.559 150.256C238.512 150.256 239.195 149.928 239.609 149.272C240.031 148.607 240.242 147.623 240.242 146.318C240.242 145.022 240.031 144.049 239.609 143.4C239.188 142.752 238.496 142.428 237.535 142.428C236.582 142.428 235.895 142.752 235.473 143.4C235.051 144.041 234.84 145.014 234.84 146.318ZM243.898 146.318C243.898 148.451 243.336 150.119 242.211 151.322C241.086 152.525 239.52 153.127 237.512 153.127C236.254 153.127 235.145 152.854 234.184 152.307C233.223 151.752 232.484 150.959 231.969 149.928C231.453 148.897 231.195 147.693 231.195 146.318C231.195 144.178 231.754 142.514 232.871 141.326C233.988 140.139 235.559 139.545 237.582 139.545C238.84 139.545 239.949 139.818 240.91 140.365C241.871 140.912 242.609 141.697 243.125 142.721C243.641 143.744 243.898 144.943 243.898 146.318ZM254.094 142.475H251V152.893H247.426V142.475H245.457V140.752L247.426 139.791V138.83C247.426 137.338 247.793 136.248 248.527 135.561C249.262 134.873 250.438 134.529 252.055 134.529C253.289 134.529 254.387 134.713 255.348 135.08L254.434 137.705C253.715 137.479 253.051 137.365 252.441 137.365C251.934 137.365 251.566 137.518 251.34 137.822C251.113 138.119 251 138.502 251 138.971V139.791H254.094V142.475ZM47.6445 185.893L46.4023 181.815H40.1562L38.9141 185.893H35L41.0469 168.69H45.4883L51.5586 185.893H47.6445ZM45.5352 178.768C44.3867 175.072 43.7383 172.982 43.5898 172.498C43.4492 172.014 43.3477 171.631 43.2852 171.35C43.0273 172.35 42.2891 174.822 41.0703 178.768H45.5352ZM57.0195 185.893H53.4453V167.658H57.0195V185.893ZM64.3555 185.893H60.7812V167.658H64.3555V185.893ZM81.9102 171.537C80.543 171.537 79.4844 172.053 78.7344 173.084C77.9844 174.107 77.6094 175.537 77.6094 177.373C77.6094 181.193 79.043 183.104 81.9102 183.104C83.1133 183.104 84.5703 182.803 86.2812 182.201V185.248C84.875 185.834 83.3047 186.127 81.5703 186.127C79.0781 186.127 77.1719 185.373 75.8516 183.865C74.5312 182.35 73.8711 180.178 73.8711 177.35C73.8711 175.568 74.1953 174.01 74.8438 172.674C75.4922 171.33 76.4219 170.303 77.6328 169.592C78.8516 168.873 80.2773 168.514 81.9102 168.514C83.5742 168.514 85.2461 168.916 86.9258 169.721L85.7539 172.674C85.1133 172.369 84.4688 172.104 83.8203 171.877C83.1719 171.65 82.5352 171.537 81.9102 171.537ZM87.7812 172.791H91.6953L94.168 180.162C94.3789 180.803 94.5234 181.561 94.6016 182.436H94.6719C94.7578 181.631 94.9258 180.873 95.1758 180.162L97.6016 172.791H101.434L95.8906 187.568C95.3828 188.936 94.6562 189.959 93.7109 190.639C92.7734 191.318 91.6758 191.658 90.418 191.658C89.8008 191.658 89.1953 191.592 88.6016 191.459V188.623C89.0312 188.725 89.5 188.775 90.0078 188.775C90.6406 188.775 91.1914 188.58 91.6602 188.19C92.1367 187.807 92.5078 187.225 92.7734 186.443L92.9844 185.799L87.7812 172.791ZM110.609 172.545C112.156 172.545 113.367 173.15 114.242 174.361C115.117 175.565 115.555 177.217 115.555 179.318C115.555 181.482 115.102 183.158 114.195 184.346C113.297 185.533 112.07 186.127 110.516 186.127C108.977 186.127 107.77 185.568 106.895 184.451H106.648L106.051 185.893H103.32V167.658H106.895V171.9C106.895 172.44 106.848 173.303 106.754 174.49H106.895C107.73 173.193 108.969 172.545 110.609 172.545ZM109.461 175.404C108.578 175.404 107.934 175.678 107.527 176.225C107.121 176.764 106.91 177.658 106.895 178.908V179.295C106.895 180.701 107.102 181.709 107.516 182.318C107.938 182.928 108.602 183.232 109.508 183.232C110.242 183.232 110.824 182.897 111.254 182.225C111.691 181.545 111.91 180.561 111.91 179.272C111.91 177.982 111.691 177.018 111.254 176.377C110.816 175.729 110.219 175.404 109.461 175.404ZM123.934 175.088C123.176 175.088 122.582 175.33 122.152 175.815C121.723 176.291 121.477 176.971 121.414 177.854H126.43C126.414 176.971 126.184 176.291 125.738 175.815C125.293 175.33 124.691 175.088 123.934 175.088ZM124.438 186.127C122.328 186.127 120.68 185.545 119.492 184.381C118.305 183.217 117.711 181.568 117.711 179.436C117.711 177.24 118.258 175.545 119.352 174.35C120.453 173.147 121.973 172.545 123.91 172.545C125.762 172.545 127.203 173.072 128.234 174.127C129.266 175.182 129.781 176.639 129.781 178.498V180.232H121.332C121.371 181.248 121.672 182.041 122.234 182.611C122.797 183.182 123.586 183.467 124.602 183.467C125.391 183.467 126.137 183.385 126.84 183.221C127.543 183.057 128.277 182.795 129.043 182.436V185.201C128.418 185.514 127.75 185.744 127.039 185.893C126.328 186.049 125.461 186.127 124.438 186.127ZM140 172.545C140.484 172.545 140.887 172.58 141.207 172.65L140.938 176.002C140.648 175.924 140.297 175.885 139.883 175.885C138.742 175.885 137.852 176.178 137.211 176.764C136.578 177.35 136.262 178.17 136.262 179.225V185.893H132.688V172.791H135.395L135.922 174.994H136.098C136.504 174.26 137.051 173.67 137.738 173.225C138.434 172.772 139.188 172.545 140 172.545ZM160.59 185.893L159.348 181.815H153.102L151.859 185.893H147.945L153.992 168.69H158.434L164.504 185.893H160.59ZM158.48 178.768C157.332 175.072 156.684 172.982 156.535 172.498C156.395 172.014 156.293 171.631 156.23 171.35C155.973 172.35 155.234 174.822 154.016 178.768H158.48ZM171.91 183.279C172.535 183.279 173.285 183.143 174.16 182.869V185.529C173.27 185.928 172.176 186.127 170.879 186.127C169.449 186.127 168.406 185.768 167.75 185.049C167.102 184.322 166.777 183.236 166.777 181.791V175.475H165.066V173.963L167.035 172.768L168.066 170.002H170.352V172.791H174.02V175.475H170.352V181.791C170.352 182.299 170.492 182.674 170.773 182.916C171.062 183.158 171.441 183.279 171.91 183.279ZM182.34 183.279C182.965 183.279 183.715 183.143 184.59 182.869V185.529C183.699 185.928 182.605 186.127 181.309 186.127C179.879 186.127 178.836 185.768 178.18 185.049C177.531 184.322 177.207 183.236 177.207 181.791V175.475H175.496V173.963L177.465 172.768L178.496 170.002H180.781V172.791H184.449V175.475H180.781V181.791C180.781 182.299 180.922 182.674 181.203 182.916C181.492 183.158 181.871 183.279 182.34 183.279ZM195.57 185.893L194.879 184.111H194.785C194.184 184.869 193.562 185.397 192.922 185.693C192.289 185.982 191.461 186.127 190.438 186.127C189.18 186.127 188.188 185.768 187.461 185.049C186.742 184.33 186.383 183.307 186.383 181.979C186.383 180.588 186.867 179.565 187.836 178.908C188.812 178.244 190.281 177.877 192.242 177.807L194.516 177.736V177.162C194.516 175.834 193.836 175.17 192.477 175.17C191.43 175.17 190.199 175.486 188.785 176.119L187.602 173.705C189.109 172.916 190.781 172.522 192.617 172.522C194.375 172.522 195.723 172.904 196.66 173.67C197.598 174.436 198.066 175.6 198.066 177.162V185.893H195.57ZM194.516 179.822L193.133 179.869C192.094 179.9 191.32 180.088 190.812 180.432C190.305 180.775 190.051 181.299 190.051 182.002C190.051 183.01 190.629 183.514 191.785 183.514C192.613 183.514 193.273 183.275 193.766 182.799C194.266 182.322 194.516 181.69 194.516 180.9V179.822ZM207.078 186.127C203 186.127 200.961 183.889 200.961 179.412C200.961 177.186 201.516 175.486 202.625 174.315C203.734 173.135 205.324 172.545 207.395 172.545C208.91 172.545 210.27 172.842 211.473 173.436L210.418 176.201C209.855 175.975 209.332 175.791 208.848 175.65C208.363 175.502 207.879 175.428 207.395 175.428C205.535 175.428 204.605 176.748 204.605 179.389C204.605 181.951 205.535 183.232 207.395 183.232C208.082 183.232 208.719 183.143 209.305 182.963C209.891 182.775 210.477 182.486 211.062 182.096V185.154C210.484 185.522 209.898 185.775 209.305 185.916C208.719 186.057 207.977 186.127 207.078 186.127ZM217.543 178.768L219.102 176.775L222.77 172.791H226.801L221.598 178.475L227.117 185.893H222.992L219.219 180.584L217.684 181.815V185.893H214.109V167.658H217.684V175.791L217.496 178.768H217.543ZM238.133 182.002C238.133 183.346 237.664 184.369 236.727 185.072C235.797 185.775 234.402 186.127 232.543 186.127C231.59 186.127 230.777 186.061 230.105 185.928C229.434 185.803 228.805 185.615 228.219 185.365V182.412C228.883 182.725 229.629 182.986 230.457 183.197C231.293 183.408 232.027 183.514 232.66 183.514C233.957 183.514 234.605 183.139 234.605 182.389C234.605 182.107 234.52 181.881 234.348 181.709C234.176 181.529 233.879 181.33 233.457 181.111C233.035 180.885 232.473 180.623 231.77 180.326C230.762 179.904 230.02 179.514 229.543 179.154C229.074 178.795 228.73 178.385 228.512 177.924C228.301 177.455 228.195 176.881 228.195 176.201C228.195 175.037 228.645 174.139 229.543 173.506C230.449 172.865 231.73 172.545 233.387 172.545C234.965 172.545 236.5 172.889 237.992 173.576L236.914 176.154C236.258 175.873 235.645 175.643 235.074 175.463C234.504 175.283 233.922 175.193 233.328 175.193C232.273 175.193 231.746 175.479 231.746 176.049C231.746 176.369 231.914 176.647 232.25 176.881C232.594 177.115 233.34 177.463 234.488 177.924C235.512 178.338 236.262 178.725 236.738 179.084C237.215 179.443 237.566 179.857 237.793 180.326C238.02 180.795 238.133 181.354 238.133 182.002Z" fill="black"/>
<path d="M44.7383 213.592C42.5898 213.592 40.8984 214.279 39.6641 215.654C38.4297 217.029 37.8125 218.912 37.8125 221.303C37.8125 223.748 38.3945 225.647 39.5586 226.998C40.7227 228.35 42.3867 229.025 44.5508 229.025C45.9883 229.025 47.3086 228.842 48.5117 228.475V229.529C47.3789 229.928 45.9648 230.127 44.2695 230.127C41.8633 230.127 39.9688 229.35 38.5859 227.795C37.2031 226.24 36.5117 224.068 36.5117 221.279C36.5117 219.537 36.8398 218.002 37.4961 216.674C38.1602 215.346 39.1094 214.322 40.3438 213.604C41.5859 212.877 43.0273 212.514 44.668 212.514C46.3398 212.514 47.8359 212.826 49.1562 213.451L48.6758 214.529C47.4258 213.904 46.1133 213.592 44.7383 213.592ZM59.7734 229.893L59.4805 227.877H59.3867C58.7461 228.697 58.0859 229.279 57.4062 229.623C56.7344 229.959 55.9375 230.127 55.0156 230.127C53.7656 230.127 52.793 229.807 52.0977 229.166C51.4023 228.525 51.0547 227.639 51.0547 226.506C51.0547 225.264 51.5703 224.299 52.6016 223.611C53.6406 222.924 55.1406 222.561 57.1016 222.522L59.5273 222.451V221.607C59.5273 220.397 59.2812 219.482 58.7891 218.865C58.2969 218.248 57.5039 217.94 56.4102 217.94C55.2305 217.94 54.0078 218.268 52.7422 218.924L52.3086 217.916C53.707 217.26 55.0898 216.932 56.457 216.932C57.8555 216.932 58.8984 217.295 59.5859 218.022C60.2812 218.748 60.6289 219.881 60.6289 221.42V229.893H59.7734ZM55.0859 229.072C56.4453 229.072 57.5156 228.686 58.2969 227.912C59.0859 227.131 59.4805 226.049 59.4805 224.666V223.412L57.2539 223.506C55.4648 223.592 54.1875 223.873 53.4219 224.35C52.6641 224.818 52.2852 225.553 52.2852 226.553C52.2852 227.35 52.5273 227.971 53.0117 228.416C53.5039 228.854 54.1953 229.072 55.0859 229.072ZM72.6641 226.576C72.6641 227.717 72.2305 228.596 71.3633 229.213C70.4961 229.822 69.2656 230.127 67.6719 230.127C65.9688 230.127 64.6172 229.865 63.6172 229.342V228.088C64.8984 228.729 66.25 229.049 67.6719 229.049C68.9297 229.049 69.8828 228.842 70.5312 228.428C71.1875 228.006 71.5156 227.447 71.5156 226.752C71.5156 226.111 71.2539 225.572 70.7305 225.135C70.2148 224.697 69.3633 224.268 68.1758 223.846C66.9023 223.385 66.0078 222.99 65.4922 222.662C64.9766 222.326 64.5859 221.951 64.3203 221.537C64.0625 221.115 63.9336 220.604 63.9336 220.002C63.9336 219.049 64.332 218.295 65.1289 217.74C65.9336 217.186 67.0547 216.908 68.4922 216.908C69.8672 216.908 71.1719 217.166 72.4062 217.682L71.9727 218.736C70.7227 218.221 69.5625 217.963 68.4922 217.963C67.4531 217.963 66.6289 218.135 66.0195 218.479C65.4102 218.822 65.1055 219.299 65.1055 219.908C65.1055 220.572 65.3398 221.104 65.8086 221.502C66.2852 221.9 67.2109 222.346 68.5859 222.838C69.7344 223.252 70.5703 223.627 71.0938 223.963C71.6172 224.291 72.0078 224.666 72.2656 225.088C72.5312 225.51 72.6641 226.006 72.6641 226.576ZM81.0898 230.127C79.2383 230.127 77.793 229.557 76.7539 228.416C75.7227 227.275 75.207 225.678 75.207 223.623C75.207 221.592 75.707 219.967 76.707 218.748C77.707 217.522 79.0547 216.908 80.75 216.908C82.25 216.908 83.4336 217.432 84.3008 218.479C85.168 219.525 85.6016 220.947 85.6016 222.744V223.682H76.4258C76.4414 225.432 76.8477 226.768 77.6445 227.69C78.4492 228.611 79.5977 229.072 81.0898 229.072C81.8164 229.072 82.4531 229.022 83 228.92C83.5547 228.818 84.2539 228.6 85.0977 228.264V229.318C84.3789 229.631 83.7148 229.842 83.1055 229.951C82.4961 230.068 81.8242 230.127 81.0898 230.127ZM80.75 217.94C79.5234 217.94 78.5391 218.346 77.7969 219.158C77.0547 219.963 76.6211 221.127 76.4961 222.65H84.3711C84.3711 221.174 84.0508 220.022 83.4102 219.193C82.7695 218.357 81.8828 217.94 80.75 217.94ZM105.102 225.475C105.102 226.904 104.574 228.037 103.52 228.873C102.473 229.709 101.078 230.127 99.3359 230.127C97.2422 230.127 95.6367 229.897 94.5195 229.436V228.24C95.7539 228.764 97.3281 229.025 99.2422 229.025C100.648 229.025 101.762 228.705 102.582 228.065C103.41 227.416 103.824 226.568 103.824 225.522C103.824 224.873 103.688 224.338 103.414 223.916C103.141 223.486 102.695 223.096 102.078 222.744C101.461 222.393 100.555 222.014 99.3594 221.607C97.6094 221.006 96.3984 220.357 95.7266 219.662C95.0625 218.959 94.7305 218.025 94.7305 216.861C94.7305 215.58 95.2305 214.537 96.2305 213.732C97.2383 212.92 98.5312 212.514 100.109 212.514C101.719 212.514 103.23 212.818 104.645 213.428L104.211 214.459C102.789 213.865 101.43 213.568 100.133 213.568C98.8672 213.568 97.8594 213.861 97.1094 214.447C96.3594 215.033 95.9844 215.83 95.9844 216.838C95.9844 217.471 96.0977 217.99 96.3242 218.397C96.5586 218.803 96.9375 219.17 97.4609 219.498C97.9844 219.818 98.8828 220.205 100.156 220.658C101.492 221.119 102.496 221.568 103.168 222.006C103.84 222.436 104.328 222.928 104.633 223.482C104.945 224.029 105.102 224.693 105.102 225.475ZM111.793 229.096C112.527 229.096 113.168 229.033 113.715 228.908V229.846C113.152 230.033 112.504 230.127 111.77 230.127C110.645 230.127 109.812 229.826 109.273 229.225C108.742 228.623 108.477 227.678 108.477 226.389V218.162H106.59V217.482L108.477 216.955L109.062 214.072H109.66V217.154H113.398V218.162H109.66V226.225C109.66 227.201 109.832 227.924 110.176 228.393C110.52 228.861 111.059 229.096 111.793 229.096ZM117.477 217.154V225.404C117.477 226.686 117.746 227.619 118.285 228.205C118.824 228.783 119.66 229.072 120.793 229.072C122.309 229.072 123.422 228.69 124.133 227.924C124.852 227.158 125.211 225.912 125.211 224.186V217.154H126.359V229.893H125.375L125.164 228.135H125.094C124.266 229.463 122.793 230.127 120.676 230.127C117.777 230.127 116.328 228.576 116.328 225.475V217.154H117.477ZM135.289 216.908C136.211 216.908 137.008 217.076 137.68 217.412C138.352 217.748 138.953 218.322 139.484 219.135H139.555C139.508 218.15 139.484 217.186 139.484 216.24V211.658H140.633V229.893H139.871L139.578 227.947H139.484C138.516 229.4 137.125 230.127 135.312 230.127C133.555 230.127 132.211 229.58 131.281 228.486C130.352 227.393 129.887 225.799 129.887 223.705C129.887 221.502 130.348 219.818 131.27 218.654C132.191 217.49 133.531 216.908 135.289 216.908ZM135.289 217.963C133.898 217.963 132.852 218.451 132.148 219.428C131.453 220.404 131.105 221.822 131.105 223.682C131.105 227.291 132.508 229.096 135.312 229.096C136.75 229.096 137.805 228.678 138.477 227.842C139.148 227.006 139.484 225.627 139.484 223.705V223.506C139.484 221.537 139.152 220.123 138.488 219.264C137.832 218.397 136.766 217.963 135.289 217.963ZM142.789 217.154H143.984L146.68 224.303C147.5 226.498 148.02 227.979 148.238 228.744H148.309C148.637 227.736 149.172 226.232 149.914 224.232L152.609 217.154H153.805L148.098 231.955C147.637 233.158 147.25 233.971 146.938 234.393C146.625 234.815 146.258 235.131 145.836 235.342C145.422 235.553 144.918 235.658 144.324 235.658C143.879 235.658 143.383 235.576 142.836 235.412V234.404C143.289 234.529 143.777 234.592 144.301 234.592C144.699 234.592 145.051 234.498 145.355 234.311C145.66 234.123 145.934 233.83 146.176 233.432C146.426 233.041 146.711 232.416 147.031 231.557C147.359 230.705 147.57 230.15 147.664 229.893L142.789 217.154Z" fill="black"/>
<path d="M386.681 228.288L396.551 216.666M386.681 228.288V193.424V228.288ZM386.681 228.288L376.812 216.666L386.681 228.288Z" stroke="#757575" stroke-width="3" stroke-linecap="round" stroke-linejoin="round"/>
<path d="M362.007 234.098L363.539 241.318C363.806 242.575 364.422 243.691 365.289 244.489C366.157 245.286 367.226 245.72 368.326 245.72H405.037C406.137 245.72 407.206 245.286 408.073 244.489C408.941 243.691 409.557 242.575 409.824 241.318L411.356 234.098" stroke="#757575" stroke-width="3" stroke-linecap="round" stroke-linejoin="round"/>
</svg>
