<svg width="50" height="54" viewBox="0 0 50 54" fill="none" xmlns="http://www.w3.org/2000/svg">
<g clip-path="url(#clip0)">
<path d="M44.7911 28.2917V27V25.6913L47.9693 22.8359C48.5552 22.3057 48.9396 21.5799 49.0547 20.7869C49.1698 19.9938 49.0082 19.1844 48.5983 18.5019L44.6917 11.7034C44.4015 11.1872 43.9841 10.7584 43.4814 10.4601C42.9788 10.1618 42.4086 10.0044 41.828 10.0038C41.4682 10.001 41.1104 10.0584 40.7686 10.1738L36.7461 11.5675C36.0516 11.0936 35.3272 10.6678 34.5776 10.2927L33.7334 6.00971C33.582 5.22722 33.1674 4.52432 32.5622 4.02405C31.9569 3.52379 31.1996 3.25804 30.4227 3.27333H22.6757C21.8988 3.25804 21.1415 3.52379 20.5362 4.02405C19.931 4.52432 19.5164 5.22722 19.365 6.00971L18.5208 10.2927C17.7659 10.6677 17.0359 11.0935 16.3357 11.5675L12.396 10.1058C12.0506 10.0134 11.6928 9.97893 11.3366 10.0038C10.756 10.0044 10.1858 10.1618 9.6832 10.4601C9.18056 10.7584 8.76316 11.1872 8.47288 11.7034L4.56627 18.5019C4.17989 19.1834 4.03632 19.9817 4.16013 20.7599C4.28395 21.5382 4.66745 22.2481 5.24496 22.7679L8.37355 25.7083V28.3087L5.24496 31.164C4.65114 31.6875 4.25714 32.4101 4.1329 33.2035C4.00866 33.9969 4.16219 34.8098 4.56627 35.4981L8.47288 42.2965C8.76316 42.8128 9.18056 43.2416 9.6832 43.5399C10.1858 43.8382 10.756 43.9955 11.3366 43.9961C11.6964 43.999 12.0542 43.9416 12.396 43.8262L16.4185 42.4325C17.113 42.9063 17.8374 43.3322 18.587 43.7072L19.4312 47.9902C19.5826 48.7727 19.9972 49.4756 20.6025 49.9759C21.2077 50.4762 21.9651 50.7419 22.7419 50.7266H30.5551C31.332 50.7419 32.0893 50.4762 32.6946 49.9759C33.2998 49.4756 33.7144 48.7727 33.8658 47.9902L34.71 43.7072C35.465 43.3323 36.1949 42.9064 36.8951 42.4325L40.901 43.8262C41.2428 43.9416 41.6006 43.999 41.9604 43.9961C42.541 43.9955 43.1112 43.8382 43.6138 43.5399C44.1165 43.2416 44.5339 42.8128 44.8242 42.2965L48.5983 35.4981C48.9847 34.8165 49.1283 34.0183 49.0045 33.24C48.8807 32.4617 48.4972 31.7519 47.9197 31.232L44.7911 28.2917ZM41.828 40.5969L36.1502 38.6254C34.821 39.7813 33.302 40.6849 31.6642 41.2938L30.4889 47.3954H22.6757L21.5004 41.3617C19.8756 40.7356 18.3647 39.8335 17.031 38.6933L11.3366 40.5969L7.43001 33.7984L11.9325 29.7194C11.6265 27.96 11.6265 26.1589 11.9325 24.3996L7.43001 20.2015L11.3366 13.403L17.0144 15.3746C18.3436 14.2187 19.8626 13.3151 21.5004 12.7062L22.6757 6.60458H30.4889L31.6642 12.6382C33.289 13.2644 34.7999 14.1664 36.1336 15.3066L41.828 13.403L45.7346 20.2015L41.2321 24.2806C41.5382 26.0399 41.5382 27.841 41.2321 29.6004L45.7346 33.7984L41.828 40.5969Z" fill="#0166A3"/>
<path d="M26.5907 36.8177C24.5679 36.8177 22.5907 36.2419 20.9088 35.1631C19.227 34.0843 17.9162 32.5509 17.1421 30.7569C16.3681 28.9629 16.1655 26.9889 16.5602 25.0844C16.9548 23.1799 17.9288 21.4305 19.3591 20.0574C20.7893 18.6844 22.6116 17.7493 24.5955 17.3705C26.5793 16.9916 28.6356 17.1861 30.5044 17.9292C32.3731 18.6723 33.9703 19.9307 35.0941 21.5452C36.2179 23.1598 36.8177 25.058 36.8177 26.9998C36.8313 28.2927 36.5762 29.5753 36.067 30.7724C35.5579 31.9695 34.8051 33.057 33.8527 33.9713C32.9003 34.8856 31.7675 35.6083 30.5205 36.0971C29.2735 36.5858 27.9375 36.8308 26.5907 36.8177ZM26.5907 20.4545C25.6896 20.4343 24.7936 20.5898 23.9569 20.9116C23.1202 21.2334 22.3602 21.7148 21.7229 22.3267C21.0855 22.9385 20.5841 23.6681 20.2489 24.4713C19.9137 25.2746 19.7517 26.1347 19.7727 26.9998C19.7517 27.8648 19.9137 28.725 20.2489 29.5282C20.5841 30.3314 21.0855 31.061 21.7229 31.6728C22.3602 32.2847 23.1202 32.7661 23.9569 33.0879C24.7936 33.4097 25.6896 33.5652 26.5907 33.545C27.4918 33.5652 28.3877 33.4097 29.2244 33.0879C30.0611 32.7661 30.8211 32.2847 31.4585 31.6728C32.0958 31.061 32.5972 30.3314 32.9324 29.5282C33.2677 28.725 33.4297 27.8648 33.4087 26.9998C33.4297 26.1347 33.2677 25.2746 32.9324 24.4713C32.5972 23.6681 32.0958 22.9385 31.4585 22.3267C30.8211 21.7148 30.0611 21.2334 29.2244 20.9116C28.3877 20.5898 27.4918 20.4343 26.5907 20.4545Z" fill="#0166A3"/>
</g>
<defs>
<clipPath id="clip0">
<rect width="49.0909" height="54" fill="white"/>
</clipPath>
</defs>
</svg>
