<svg width="60" height="66" viewBox="0 0 60 66" fill="none" xmlns="http://www.w3.org/2000/svg">
<path d="M22.5075 16.5001C22.5075 14.3142 23.2969 12.2179 24.702 10.6723C26.1071 9.12663 28.0129 8.2583 30 8.2583C31.9872 8.2583 33.8929 9.12663 35.298 10.6723C36.7031 12.2179 37.4925 14.3142 37.4925 16.5001C37.4925 18.6859 36.7031 20.7822 35.298 22.3278C33.8929 23.8735 31.9872 24.7418 30 24.7418C28.0129 24.7418 26.1071 23.8735 24.702 22.3278C23.2969 20.7822 22.5075 18.6859 22.5075 16.5001ZM30 12.3833C29.5086 12.3833 29.0219 12.4898 28.5678 12.6967C28.1138 12.9036 27.7012 13.2068 27.3537 13.5891C27.0062 13.9713 26.7305 14.4252 26.5424 14.9246C26.3543 15.4241 26.2575 15.9594 26.2575 16.5001C26.2575 17.0407 26.3543 17.576 26.5424 18.0755C26.7305 18.5749 27.0062 19.0288 27.3537 19.411C27.7012 19.7933 28.1138 20.0965 28.5678 20.3034C29.0219 20.5103 29.5086 20.6168 30 20.6168C30.9926 20.6168 31.9445 20.1831 32.6464 19.411C33.3482 18.639 33.7425 17.5919 33.7425 16.5001C33.7425 15.4082 33.3482 14.3611 32.6464 13.5891C31.9445 12.817 30.9926 12.3833 30 12.3833Z" fill="#0166A3"/>
<path d="M41.25 18.5625C41.25 17.7499 41.3955 16.9453 41.6782 16.1946C41.9609 15.4439 42.3752 14.7618 42.8975 14.1873C43.4199 13.6127 44.0399 13.1569 44.7224 12.846C45.4049 12.535 46.1363 12.375 46.875 12.375C47.6137 12.375 48.3451 12.535 49.0276 12.846C49.7101 13.1569 50.3301 13.6127 50.8525 14.1873C51.3748 14.7618 51.7891 15.4439 52.0718 16.1946C52.3545 16.9453 52.5 17.7499 52.5 18.5625C52.5 20.2035 51.9074 21.7773 50.8525 22.9377C49.7976 24.0981 48.3668 24.75 46.875 24.75C45.3832 24.75 43.9524 24.0981 42.8975 22.9377C41.8426 21.7773 41.25 20.2035 41.25 18.5625ZM46.875 16.5C46.3777 16.5 45.9008 16.7173 45.5492 17.1041C45.1975 17.4909 45 18.0155 45 18.5625C45 19.1095 45.1975 19.6341 45.5492 20.0209C45.9008 20.4077 46.3777 20.625 46.875 20.625C47.3723 20.625 47.8492 20.4077 48.2008 20.0209C48.5525 19.6341 48.75 19.1095 48.75 18.5625C48.75 18.0155 48.5525 17.4909 48.2008 17.1041C47.8492 16.7173 47.3723 16.5 46.875 16.5Z" fill="#0166A3"/>
<path d="M13.125 12.375C11.6332 12.375 10.2024 13.0269 9.14752 14.1873C8.09263 15.3477 7.5 16.9215 7.5 18.5625C7.5 20.2035 8.09263 21.7773 9.14752 22.9377C10.2024 24.0981 11.6332 24.75 13.125 24.75C14.6168 24.75 16.0476 24.0981 17.1025 22.9377C18.1574 21.7773 18.75 20.2035 18.75 18.5625C18.75 16.9215 18.1574 15.3477 17.1025 14.1873C16.0476 13.0269 14.6168 12.375 13.125 12.375ZM11.25 18.5625C11.25 18.0155 11.4475 17.4909 11.7992 17.1041C12.1508 16.7173 12.6277 16.5 13.125 16.5C13.6223 16.5 14.0992 16.7173 14.4508 17.1041C14.8025 17.4909 15 18.0155 15 18.5625C15 19.1095 14.8025 19.6341 14.4508 20.0209C14.0992 20.4077 13.6223 20.625 13.125 20.625C12.6277 20.625 12.1508 20.4077 11.7992 20.0209C11.4475 19.6341 11.25 19.1095 11.25 18.5625Z" fill="#0166A3"/>
<path d="M16.005 28.875C15.345 30.1284 14.9983 31.5515 15 33H7.5V43.3125C7.4997 44.3385 7.73136 45.3486 8.17413 46.2516C8.6169 47.1547 9.25688 47.9225 10.0365 48.4859C10.816 49.0492 11.7107 49.3905 12.64 49.479C13.5693 49.5674 14.504 49.4003 15.36 48.9926C15.6375 50.358 16.0725 51.6615 16.635 52.8784C15.2117 53.5105 13.6692 53.7486 12.1427 53.5717C10.6163 53.3948 9.15265 52.8083 7.88041 51.8638C6.60816 50.9193 5.5662 49.6456 4.84602 48.1546C4.12585 46.6636 3.74949 45.0009 3.75 43.3125V33C3.75 31.906 4.14509 30.8568 4.84835 30.0832C5.55161 29.3096 6.50544 28.875 7.5 28.875H16.005Z" fill="#0166A3"/>
<path d="M43.3651 52.8784C44.7883 53.5105 46.3309 53.7486 47.8573 53.5717C49.3838 53.3948 50.8474 52.8083 52.1196 51.8638C53.3919 50.9193 54.4339 49.6456 55.154 48.1546C55.8742 46.6636 56.2506 45.0009 56.2501 43.3125V33C56.2501 31.906 55.855 30.8568 55.1517 30.0832C54.4484 29.3096 53.4946 28.875 52.5001 28.875H43.9951C44.6326 30.0878 45.0001 31.4944 45.0001 33H52.5001V43.3125C52.5004 44.3385 52.2687 45.3486 51.8259 46.2516C51.3832 47.1547 50.7432 47.9225 49.9636 48.4859C49.184 49.0492 48.2893 49.3905 47.36 49.479C46.4307 49.5674 45.496 49.4003 44.6401 48.9926C44.3588 50.358 43.9276 51.6615 43.3651 52.8784Z" fill="#0166A3"/>
<path d="M22.5 28.875C21.5054 28.875 20.5516 29.3096 19.8484 30.0832C19.1451 30.8568 18.75 31.906 18.75 33V45.375C18.75 48.6571 19.9353 51.8047 22.045 54.1254C24.1548 56.4462 27.0163 57.75 30 57.75C32.9837 57.75 35.8452 56.4462 37.955 54.1254C40.0647 51.8047 41.25 48.6571 41.25 45.375V33C41.25 31.906 40.8549 30.8568 40.1516 30.0832C39.4484 29.3096 38.4946 28.875 37.5 28.875H22.5ZM22.5 33H37.5V45.375C37.5 47.563 36.7098 49.6615 35.3033 51.2086C33.8968 52.7558 31.9891 53.625 30 53.625C28.0109 53.625 26.1032 52.7558 24.6967 51.2086C23.2902 49.6615 22.5 47.563 22.5 45.375V33Z" fill="#0166A3"/>
</svg>
