<svg width="91" height="102" viewBox="0 0 91 102" fill="none" xmlns="http://www.w3.org/2000/svg">
<path d="M26.834 3.57C33.7509 1.68938 41.1013 0 45.5 0C49.8988 0 57.2491 1.68938 64.166 3.57C71.2423 5.4825 78.3759 7.74563 82.5706 9.11625C84.3244 9.69543 85.8793 10.7576 87.0566 12.1807C88.2339 13.6038 88.9859 15.3302 89.2261 17.1615C93.0256 45.7024 84.209 66.8546 73.5118 80.8477C68.9756 86.8337 63.5667 92.1051 57.4659 96.4856C55.3563 98.0015 53.1212 99.3344 50.7849 100.47C48.9999 101.312 47.081 102 45.5 102C43.919 102 42.0065 101.312 40.2151 100.47C37.8788 99.3345 35.6437 98.0015 33.5341 96.4856C27.4334 92.1049 22.0246 86.8336 17.4883 80.8477C6.791 66.8546 -2.02562 45.7024 1.77388 17.1615C2.01414 15.3302 2.7661 13.6038 3.9434 12.1807C5.12069 10.7576 6.67556 9.69543 8.42938 9.11625C14.5187 7.11966 20.6554 5.27037 26.834 3.57Z" fill="#0166A3"/>
<path d="M45.5 71.25L51.3333 65.4167M58.625 65.4167C60.5588 65.4167 62.4135 64.6484 63.781 63.281C65.1484 61.9135 65.9166 60.0589 65.9166 58.125C65.9166 56.1911 65.1484 54.3365 63.781 52.969C62.4135 51.6016 60.5588 50.8333 58.625 50.8333C56.6911 50.8333 54.8364 51.6016 53.469 52.969C52.1015 54.3365 51.3333 56.1911 51.3333 58.125C51.3333 60.0589 52.1015 61.9135 53.469 63.281C54.8364 64.6484 56.6911 65.4167 58.625 65.4167V65.4167ZM39.6666 24.5833L45.5 18.75L39.6666 24.5833ZM32.375 39.1667C34.3088 39.1667 36.1635 38.3984 37.531 37.031C38.8984 35.6635 39.6666 33.8089 39.6666 31.875C39.6666 29.9411 38.8984 28.0865 37.531 26.719C36.1635 25.3516 34.3088 24.5833 32.375 24.5833C30.4411 24.5833 28.5864 25.3516 27.219 26.719C25.8515 28.0865 25.0833 29.9411 25.0833 31.875C25.0833 33.8089 25.8515 35.6635 27.219 37.031C28.5864 38.3984 30.4411 39.1667 32.375 39.1667V39.1667ZM33.8333 56.6667L57.1666 33.3333L33.8333 56.6667ZM26.5416 71.25C28.4755 71.25 30.3302 70.4818 31.6976 69.1143C33.0651 67.7469 33.8333 65.8922 33.8333 63.9583C33.8333 62.0245 33.0651 60.1698 31.6976 58.8023C30.3302 57.4349 28.4755 56.6667 26.5416 56.6667C24.6078 56.6667 22.7531 57.4349 21.3856 58.8023C20.0182 60.1698 19.25 62.0245 19.25 63.9583C19.25 65.8922 20.0182 67.7469 21.3856 69.1143C22.7531 70.4818 24.6078 71.25 26.5416 71.25V71.25ZM64.4583 33.3333C66.3922 33.3333 68.2468 32.5651 69.6143 31.1977C70.9817 29.8302 71.75 27.9755 71.75 26.0417C71.75 24.1078 70.9817 22.2531 69.6143 20.8857C68.2468 19.5182 66.3922 18.75 64.4583 18.75C62.5244 18.75 60.6698 19.5182 59.3023 20.8857C57.9349 22.2531 57.1666 24.1078 57.1666 26.0417C57.1666 27.9755 57.9349 29.8302 59.3023 31.1977C60.6698 32.5651 62.5244 33.3333 64.4583 33.3333Z" stroke="white" stroke-width="4" stroke-linecap="round" stroke-linejoin="round"/>
</svg>
