<svg width="91" height="102" viewBox="0 0 91 102" fill="none" xmlns="http://www.w3.org/2000/svg">
<path d="M26.834 3.57C33.7509 1.68938 41.1013 0 45.5 0C49.8988 0 57.2491 1.68938 64.166 3.57C71.2423 5.4825 78.3759 7.74563 82.5706 9.11625C84.3244 9.69543 85.8793 10.7576 87.0566 12.1807C88.2339 13.6038 88.9859 15.3302 89.2261 17.1615C93.0256 45.7024 84.209 66.8546 73.5118 80.8477C68.9756 86.8337 63.5667 92.1051 57.4659 96.4856C55.3563 98.0015 53.1212 99.3344 50.7849 100.47C48.9999 101.312 47.081 102 45.5 102C43.919 102 42.0065 101.312 40.2151 100.47C37.8788 99.3345 35.6437 98.0015 33.5341 96.4856C27.4334 92.1049 22.0246 86.8336 17.4883 80.8477C6.791 66.8546 -2.02562 45.7024 1.77388 17.1615C2.01414 15.3302 2.7661 13.6038 3.9434 12.1807C5.12069 10.7576 6.67556 9.69543 8.42938 9.11625C14.5187 7.11966 20.6554 5.27037 26.834 3.57Z" fill="#0166A3"/>
<path d="M44.9167 41.7917C38.2958 40.0708 36.1667 38.2917 36.1667 35.5208C36.1667 32.3417 39.1125 30.125 44.0417 30.125C49.2333 30.125 51.1583 32.6042 51.3333 36.25H57.7792C57.575 31.2333 54.5125 26.625 48.4167 25.1375V18.75H39.6667V25.05C34.0083 26.275 29.4583 29.95 29.4583 35.5792C29.4583 42.3167 35.0292 45.6708 43.1667 47.625C50.4583 49.375 51.9167 51.9417 51.9167 54.6542C51.9167 56.6667 50.4875 59.875 44.0417 59.875C38.0333 59.875 35.6708 57.1917 35.35 53.75H28.9333C29.2833 60.1375 34.0667 63.725 39.6667 64.9208V71.25H48.4167V64.9792C54.1042 63.9 58.625 60.6042 58.625 54.625C58.625 46.3417 51.5375 43.5125 44.9167 41.7917Z" fill="white"/>
</svg>
