<svg width="38" height="38" viewBox="0 0 38 38" fill="none" xmlns="http://www.w3.org/2000/svg">
<g filter="url(#filter0_d)">
<path d="M32.8 0H5.2C4.53625 0 4 0.53625 4 1.2V28.8C4 29.4638 4.53625 30 5.2 30H32.8C33.4638 30 34 29.4638 34 28.8V1.2C34 0.53625 33.4638 0 32.8 0ZM27.0737 10.8638C27.085 11.04 27.085 11.2238 27.085 11.4038C27.085 16.9088 22.8925 23.25 15.2313 23.25C12.8688 23.25 10.6788 22.5638 8.83375 21.3825C9.17125 21.42 9.49375 21.435 9.83875 21.435C11.7888 21.435 13.5813 20.775 15.01 19.6575C13.18 19.62 11.6425 18.42 11.1175 16.77C11.7587 16.8638 12.3363 16.8638 12.9963 16.695C12.054 16.5036 11.207 15.9918 10.5993 15.2467C9.99159 14.5016 9.66057 13.569 9.6625 12.6075V12.555C10.2138 12.8663 10.8625 13.0575 11.5413 13.0838C10.9707 12.7035 10.5027 12.1883 10.1789 11.5839C9.85512 10.9794 9.68546 10.3044 9.685 9.61875C9.685 8.8425 9.8875 8.13375 10.2513 7.51875C11.2971 8.80626 12.6022 9.85928 14.0817 10.6094C15.5612 11.3595 17.182 11.7898 18.8388 11.8725C18.25 9.04125 20.365 6.75 22.9075 6.75C24.1075 6.75 25.1875 7.2525 25.9487 8.0625C26.89 7.88625 27.79 7.53375 28.5925 7.06125C28.2812 8.025 27.6288 8.83875 26.7625 9.3525C27.6025 9.2625 28.4125 9.03 29.1625 8.70375C28.5963 9.53625 27.8875 10.275 27.0737 10.8638Z" fill="#0166A3"/>
</g>
<defs>
<filter id="filter0_d" x="0" y="0" width="38" height="38" filterUnits="userSpaceOnUse" color-interpolation-filters="sRGB">
<feFlood flood-opacity="0" result="BackgroundImageFix"/>
<feColorMatrix in="SourceAlpha" type="matrix" values="0 0 0 0 0 0 0 0 0 0 0 0 0 0 0 0 0 0 127 0"/>
<feOffset dy="4"/>
<feGaussianBlur stdDeviation="2"/>
<feColorMatrix type="matrix" values="0 0 0 0 0 0 0 0 0 0 0 0 0 0 0 0 0 0 0.25 0"/>
<feBlend mode="normal" in2="BackgroundImageFix" result="effect1_dropShadow"/>
<feBlend mode="normal" in="SourceGraphic" in2="effect1_dropShadow" result="shape"/>
</filter>
</defs>
</svg>
