<svg width="984" height="910" viewBox="0 0 984 910" fill="none" xmlns="http://www.w3.org/2000/svg">
<mask id="path-1-inside-1_3424_847" fill="white">
<path d="M1.66016 106.2C1.66016 76.8736 25.4338 53.1 54.7602 53.1H930.91C960.236 53.1 984.01 76.8737 984.01 106.2V856.238C984.01 885.564 960.236 909.338 930.91 909.338H54.7601C25.4338 909.338 1.66016 885.564 1.66016 856.238V106.2Z"/>
</mask>
<path d="M1.66016 106.2C1.66016 76.8736 25.4338 53.1 54.7602 53.1H930.91C960.236 53.1 984.01 76.8737 984.01 106.2V856.238C984.01 885.564 960.236 909.338 930.91 909.338H54.7601C25.4338 909.338 1.66016 885.564 1.66016 856.238V106.2Z" fill="white"/>
<path d="M54.7602 53.1V56.4188H930.91V53.1V49.7813H54.7602V53.1ZM984.01 106.2H980.691V856.238H984.01H987.329V106.2H984.01ZM930.91 909.338V906.019H54.7601V909.338V912.656H930.91V909.338ZM1.66016 856.238H4.97891V106.2H1.66016H-1.65859V856.238H1.66016ZM54.7601 909.338V906.019C27.2667 906.019 4.97891 883.731 4.97891 856.238H1.66016H-1.65859C-1.65859 887.397 23.6009 912.656 54.7601 912.656V909.338ZM984.01 856.238H980.691C980.691 883.731 958.404 906.019 930.91 906.019V909.338V912.656C962.069 912.656 987.329 887.397 987.329 856.238H984.01ZM930.91 53.1V56.4188C958.404 56.4188 980.691 78.7066 980.691 106.2H984.01H987.329C987.329 75.0408 962.069 49.7813 930.91 49.7813V53.1ZM54.7602 53.1V49.7813C23.601 49.7813 -1.65859 75.0407 -1.65859 106.2H1.66016H4.97891C4.97891 78.7065 27.2667 56.4188 54.7602 56.4188V53.1Z" fill="#E2E8F0" mask="url(#path-1-inside-1_3424_847)"/>
<path d="M111.178 235.631C111.178 209.971 131.98 189.169 157.64 189.169H224.015C249.676 189.169 270.478 209.971 270.478 235.631V302.006C270.478 327.667 249.676 348.469 224.015 348.469H157.64C131.98 348.469 111.178 327.667 111.178 302.006V235.631Z" fill="#DBEAFE"/>
<path d="M220.696 298.688L206.293 284.284" stroke="#6DA9C6" stroke-width="6.6375" stroke-linecap="round" stroke-linejoin="round"/>
<path d="M187.507 292.05C202.17 292.05 214.057 280.163 214.057 265.5C214.057 250.837 202.17 238.95 187.507 238.95C172.844 238.95 160.957 250.837 160.957 265.5C160.957 280.163 172.844 292.05 187.507 292.05Z" stroke="#6DA9C6" stroke-width="6.6375" stroke-linecap="round" stroke-linejoin="round"/>
<path d="M122.139 471.263H112.805L129.799 422.99H140.595L157.613 471.263H148.279L135.385 432.89H135.008L122.139 471.263ZM122.445 452.335H147.901V459.359H122.445V452.335Z" fill="#0F172B"/>
<path d="M190.134 444.628L182.356 445.476C182.136 444.691 181.751 443.952 181.201 443.261C180.667 442.569 179.944 442.011 179.032 441.587C178.121 441.163 177.005 440.951 175.685 440.951C173.91 440.951 172.417 441.336 171.207 442.106C170.013 442.876 169.423 443.873 169.439 445.099C169.423 446.152 169.808 447.008 170.594 447.668C171.395 448.328 172.715 448.87 174.554 449.295L180.729 450.615C184.155 451.353 186.701 452.524 188.366 454.127C190.048 455.729 190.896 457.827 190.912 460.42C190.896 462.699 190.228 464.71 188.908 466.454C187.604 468.183 185.789 469.534 183.464 470.508C181.138 471.483 178.467 471.97 175.45 471.97C171.018 471.97 167.451 471.043 164.749 469.188C162.046 467.318 160.435 464.718 159.917 461.386L168.237 460.585C168.614 462.219 169.416 463.453 170.641 464.286C171.867 465.118 173.462 465.535 175.426 465.535C177.453 465.535 179.08 465.118 180.305 464.286C181.547 463.453 182.167 462.424 182.167 461.198C182.167 460.161 181.767 459.304 180.965 458.629C180.179 457.953 178.954 457.434 177.288 457.073L171.113 455.777C167.64 455.054 165.071 453.836 163.405 452.123C161.739 450.395 160.914 448.21 160.93 445.571C160.914 443.339 161.519 441.406 162.745 439.772C163.986 438.122 165.707 436.849 167.907 435.954C170.123 435.042 172.676 434.587 175.567 434.587C179.81 434.587 183.149 435.49 185.585 437.297C188.036 439.104 189.553 441.548 190.134 444.628Z" fill="#0F172B"/>
<path d="M225.072 444.628L217.293 445.476C217.073 444.691 216.688 443.952 216.138 443.261C215.604 442.569 214.881 442.011 213.97 441.587C213.059 441.163 211.943 440.951 210.623 440.951C208.847 440.951 207.354 441.336 206.145 442.106C204.95 442.876 204.361 443.873 204.377 445.099C204.361 446.152 204.746 447.008 205.532 447.668C206.333 448.328 207.653 448.87 209.492 449.295L215.667 450.615C219.093 451.353 221.638 452.524 223.304 454.127C224.985 455.729 225.834 457.827 225.85 460.42C225.834 462.699 225.166 464.71 223.846 466.454C222.542 468.183 220.727 469.534 218.401 470.508C216.076 471.483 213.404 471.97 210.387 471.97C205.956 471.97 202.389 471.043 199.686 469.188C196.983 467.318 195.373 464.718 194.854 461.386L203.175 460.585C203.552 462.219 204.353 463.453 205.579 464.286C206.805 465.118 208.399 465.535 210.364 465.535C212.391 465.535 214.017 465.118 215.243 464.286C216.484 463.453 217.105 462.424 217.105 461.198C217.105 460.161 216.704 459.304 215.903 458.629C215.117 457.953 213.891 457.434 212.226 457.073L206.05 455.777C202.577 455.054 200.008 453.836 198.343 452.123C196.677 450.395 195.852 448.21 195.868 445.571C195.852 443.339 196.457 441.406 197.683 439.772C198.924 438.122 200.645 436.849 202.845 435.954C205.06 435.042 207.614 434.587 210.505 434.587C214.748 434.587 218.087 435.49 220.523 437.297C222.974 439.104 224.49 441.548 225.072 444.628Z" fill="#0F172B"/>
<path d="M247.423 471.97C243.793 471.97 240.658 471.215 238.018 469.707C235.394 468.183 233.375 466.03 231.96 463.249C230.546 460.451 229.839 457.159 229.839 453.372C229.839 449.648 230.546 446.38 231.96 443.567C233.39 440.739 235.386 438.539 237.947 436.967C240.509 435.38 243.518 434.587 246.975 434.587C249.206 434.587 251.312 434.948 253.292 435.671C255.287 436.378 257.047 437.478 258.572 438.971C260.112 440.464 261.321 442.365 262.201 444.675C263.081 446.969 263.521 449.703 263.521 452.877V455.494H233.846V449.743H255.342C255.327 448.108 254.973 446.655 254.282 445.382C253.59 444.093 252.624 443.08 251.383 442.341C250.157 441.603 248.727 441.234 247.093 441.234C245.348 441.234 243.816 441.658 242.496 442.506C241.176 443.339 240.147 444.439 239.409 445.806C238.686 447.158 238.317 448.643 238.301 450.261V455.282C238.301 457.387 238.686 459.194 239.456 460.703C240.226 462.196 241.302 463.343 242.685 464.144C244.068 464.93 245.686 465.323 247.541 465.323C248.782 465.323 249.905 465.15 250.911 464.804C251.917 464.443 252.789 463.916 253.527 463.225C254.266 462.534 254.824 461.677 255.201 460.656L263.168 461.551C262.665 463.657 261.706 465.496 260.292 467.067C258.894 468.623 257.102 469.833 254.918 470.697C252.734 471.545 250.235 471.97 247.423 471.97Z" fill="#0F172B"/>
<path d="M297.864 444.628L290.086 445.476C289.866 444.691 289.481 443.952 288.931 443.261C288.396 442.569 287.674 442.011 286.762 441.587C285.851 441.163 284.735 440.951 283.415 440.951C281.639 440.951 280.147 441.336 278.937 442.106C277.742 442.876 277.153 443.873 277.169 445.099C277.153 446.152 277.538 447.008 278.324 447.668C279.125 448.328 280.445 448.87 282.284 449.295L288.459 450.615C291.885 451.353 294.43 452.524 296.096 454.127C297.777 455.729 298.626 457.827 298.642 460.42C298.626 462.699 297.958 464.71 296.638 466.454C295.334 468.183 293.519 469.534 291.193 470.508C288.868 471.483 286.196 471.97 283.179 471.97C278.748 471.97 275.181 471.043 272.478 469.188C269.776 467.318 268.165 464.718 267.646 461.386L275.967 460.585C276.344 462.219 277.145 463.453 278.371 464.286C279.597 465.118 281.192 465.535 283.156 465.535C285.183 465.535 286.809 465.118 288.035 464.286C289.276 463.453 289.897 462.424 289.897 461.198C289.897 460.161 289.496 459.304 288.695 458.629C287.909 457.953 286.684 457.434 285.018 457.073L278.842 455.777C275.37 455.054 272.8 453.836 271.135 452.123C269.469 450.395 268.644 448.21 268.66 445.571C268.644 443.339 269.249 441.406 270.475 439.772C271.716 438.122 273.437 436.849 275.637 435.954C277.852 435.042 280.406 434.587 283.297 434.587C287.54 434.587 290.879 435.49 293.315 437.297C295.766 439.104 297.282 441.548 297.864 444.628Z" fill="#0F172B"/>
<path d="M332.802 444.628L325.023 445.476C324.803 444.691 324.418 443.952 323.868 443.261C323.334 442.569 322.611 442.011 321.7 441.587C320.788 441.163 319.673 440.951 318.353 440.951C316.577 440.951 315.084 441.336 313.874 442.106C312.68 442.876 312.091 443.873 312.106 445.099C312.091 446.152 312.476 447.008 313.261 447.668C314.063 448.328 315.383 448.87 317.221 449.295L323.397 450.615C326.822 451.353 329.368 452.524 331.034 454.127C332.715 455.729 333.564 457.827 333.579 460.42C333.564 462.699 332.896 464.71 331.576 466.454C330.272 468.183 328.457 469.534 326.131 470.508C323.805 471.483 321.134 471.97 318.117 471.97C313.686 471.97 310.119 471.043 307.416 469.188C304.713 467.318 303.102 464.718 302.584 461.386L310.904 460.585C311.281 462.219 312.083 463.453 313.309 464.286C314.534 465.118 316.129 465.535 318.093 465.535C320.12 465.535 321.747 465.118 322.973 464.286C324.214 463.453 324.835 462.424 324.835 461.198C324.835 460.161 324.434 459.304 323.633 458.629C322.847 457.953 321.621 457.434 319.955 457.073L313.78 455.777C310.307 455.054 307.738 453.836 306.072 452.123C304.407 450.395 303.582 448.21 303.597 445.571C303.582 443.339 304.187 441.406 305.412 439.772C306.654 438.122 308.374 436.849 310.574 435.954C312.79 435.042 315.343 434.587 318.235 434.587C322.478 434.587 325.817 435.49 328.252 437.297C330.704 439.104 332.22 441.548 332.802 444.628Z" fill="#0F172B"/>
<path d="M121.41 585.759L112.17 551.968H116.328L123.39 579.49H123.72L130.913 551.968H135.533L142.727 579.49H143.057L150.119 551.968H154.277L145.037 585.759H140.813L133.355 558.832H133.091L125.633 585.759H121.41Z" fill="#45556C"/>
<path d="M166.614 586.287C164.172 586.287 162.066 585.748 160.295 584.67C158.535 583.581 157.176 582.064 156.219 580.117C155.273 578.159 154.8 575.882 154.8 573.286C154.8 570.69 155.273 568.402 156.219 566.422C157.176 564.431 158.507 562.88 160.212 561.769C161.928 560.647 163.93 560.086 166.218 560.086C167.538 560.086 168.841 560.306 170.128 560.746C171.415 561.186 172.587 561.901 173.643 562.891C174.699 563.87 175.54 565.168 176.167 566.785C176.794 568.402 177.108 570.393 177.108 572.758V574.408H157.572V571.042H173.148C173.148 569.612 172.862 568.336 172.29 567.214C171.729 566.092 170.926 565.207 169.881 564.558C168.847 563.909 167.626 563.584 166.218 563.584C164.667 563.584 163.325 563.969 162.192 564.739C161.07 565.498 160.207 566.488 159.602 567.709C158.997 568.93 158.694 570.239 158.694 571.636V573.88C158.694 575.794 159.024 577.416 159.684 578.747C160.355 580.067 161.285 581.074 162.473 581.767C163.661 582.449 165.041 582.789 166.614 582.789C167.637 582.789 168.561 582.646 169.386 582.361C170.222 582.064 170.942 581.624 171.547 581.041C172.152 580.447 172.62 579.71 172.95 578.83L176.712 579.886C176.316 581.162 175.65 582.284 174.715 583.251C173.78 584.208 172.625 584.956 171.25 585.495C169.875 586.023 168.33 586.287 166.614 586.287Z" fill="#45556C"/>
<path d="M205.726 586.287C203.284 586.287 201.178 585.748 199.407 584.67C197.647 583.581 196.288 582.064 195.331 580.117C194.385 578.159 193.912 575.882 193.912 573.286C193.912 570.69 194.385 568.402 195.331 566.422C196.288 564.431 197.619 562.88 199.324 561.769C201.04 560.647 203.042 560.086 205.33 560.086C206.65 560.086 207.953 560.306 209.24 560.746C210.527 561.186 211.699 561.901 212.755 562.891C213.811 563.87 214.652 565.168 215.279 566.785C215.906 568.402 216.22 570.393 216.22 572.758V574.408H196.684V571.042H212.26C212.26 569.612 211.974 568.336 211.402 567.214C210.841 566.092 210.038 565.207 208.993 564.558C207.959 563.909 206.738 563.584 205.33 563.584C203.779 563.584 202.437 563.969 201.304 564.739C200.182 565.498 199.319 566.488 198.714 567.709C198.109 568.93 197.806 570.239 197.806 571.636V573.88C197.806 575.794 198.136 577.416 198.796 578.747C199.467 580.067 200.397 581.074 201.585 581.767C202.773 582.449 204.153 582.789 205.726 582.789C206.749 582.789 207.673 582.646 208.498 582.361C209.334 582.064 210.054 581.624 210.659 581.041C211.264 580.447 211.732 579.71 212.062 578.83L215.824 579.886C215.428 581.162 214.762 582.284 213.827 583.251C212.892 584.208 211.737 584.956 210.362 585.495C208.987 586.023 207.442 586.287 205.726 586.287Z" fill="#45556C"/>
<path d="M241.596 560.416L232.224 585.759H228.264L218.893 560.416H223.116L230.112 580.612H230.376L237.372 560.416H241.596Z" fill="#45556C"/>
<path d="M252.923 586.353C251.317 586.353 249.859 586.051 248.55 585.446C247.241 584.83 246.202 583.944 245.432 582.789C244.662 581.624 244.277 580.216 244.277 578.566C244.277 577.114 244.563 575.937 245.135 575.035C245.707 574.122 246.471 573.407 247.428 572.89C248.385 572.373 249.441 571.988 250.596 571.735C251.762 571.471 252.934 571.262 254.111 571.108C255.651 570.91 256.899 570.761 257.856 570.662C258.824 570.552 259.528 570.371 259.968 570.118C260.419 569.865 260.645 569.425 260.645 568.798V568.666C260.645 567.038 260.199 565.773 259.308 564.871C258.428 563.969 257.092 563.518 255.299 563.518C253.44 563.518 251.982 563.925 250.926 564.739C249.87 565.553 249.128 566.422 248.699 567.346L245.003 566.026C245.663 564.486 246.543 563.287 247.643 562.429C248.754 561.56 249.964 560.955 251.273 560.614C252.593 560.262 253.891 560.086 255.167 560.086C255.981 560.086 256.916 560.185 257.972 560.383C259.039 560.57 260.067 560.961 261.057 561.555C262.058 562.149 262.888 563.045 263.548 564.244C264.208 565.443 264.538 567.049 264.538 569.062V585.759H260.645V582.328H260.447C260.183 582.877 259.743 583.466 259.127 584.093C258.511 584.72 257.691 585.253 256.668 585.693C255.645 586.133 254.397 586.353 252.923 586.353ZM253.517 582.855C255.057 582.855 256.355 582.553 257.411 581.948C258.478 581.343 259.281 580.562 259.82 579.605C260.37 578.648 260.645 577.642 260.645 576.586V573.022C260.48 573.22 260.117 573.401 259.556 573.566C259.006 573.72 258.368 573.858 257.642 573.979C256.927 574.089 256.228 574.188 255.546 574.276C254.875 574.353 254.331 574.419 253.913 574.474C252.901 574.606 251.955 574.82 251.075 575.117C250.206 575.403 249.502 575.838 248.963 576.421C248.435 576.993 248.171 577.774 248.171 578.764C248.171 580.117 248.671 581.14 249.672 581.833C250.684 582.515 251.966 582.855 253.517 582.855Z" fill="#45556C"/>
<path d="M275.04 551.968V585.759H271.146V551.968H275.04Z" fill="#45556C"/>
<path d="M297.645 575.398V560.416H301.538V585.759H297.645V581.47H297.381C296.787 582.756 295.863 583.851 294.609 584.753C293.355 585.644 291.771 586.089 289.857 586.089C288.273 586.089 286.865 585.743 285.633 585.05C284.401 584.346 283.433 583.29 282.729 581.882C282.025 580.463 281.673 578.676 281.673 576.52V560.416H285.567V576.256C285.567 578.104 286.084 579.578 287.118 580.678C288.163 581.778 289.494 582.328 291.111 582.328C292.079 582.328 293.063 582.08 294.064 581.585C295.076 581.09 295.923 580.331 296.605 579.308C297.298 578.285 297.645 576.982 297.645 575.398Z" fill="#45556C"/>
<path d="M315.629 586.353C314.023 586.353 312.566 586.051 311.257 585.446C309.948 584.83 308.908 583.944 308.138 582.789C307.368 581.624 306.983 580.216 306.983 578.566C306.983 577.114 307.269 575.937 307.841 575.035C308.413 574.122 309.178 573.407 310.135 572.89C311.092 572.373 312.148 571.988 313.303 571.735C314.469 571.471 315.64 571.262 316.817 571.108C318.357 570.91 319.605 570.761 320.562 570.662C321.53 570.552 322.234 570.371 322.674 570.118C323.125 569.865 323.351 569.425 323.351 568.798V568.666C323.351 567.038 322.905 565.773 322.014 564.871C321.134 563.969 319.798 563.518 318.005 563.518C316.146 563.518 314.689 563.925 313.633 564.739C312.577 565.553 311.834 566.422 311.405 567.346L307.709 566.026C308.369 564.486 309.249 563.287 310.349 562.429C311.46 561.56 312.67 560.955 313.979 560.614C315.299 560.262 316.597 560.086 317.873 560.086C318.687 560.086 319.622 560.185 320.678 560.383C321.745 560.57 322.773 560.961 323.763 561.555C324.764 562.149 325.595 563.045 326.255 564.244C326.915 565.443 327.245 567.049 327.245 569.062V585.759H323.351V582.328H323.153C322.889 582.877 322.449 583.466 321.833 584.093C321.217 584.72 320.397 585.253 319.374 585.693C318.351 586.133 317.103 586.353 315.629 586.353ZM316.223 582.855C317.763 582.855 319.061 582.553 320.117 581.948C321.184 581.343 321.987 580.562 322.526 579.605C323.076 578.648 323.351 577.642 323.351 576.586V573.022C323.186 573.22 322.823 573.401 322.262 573.566C321.712 573.72 321.074 573.858 320.348 573.979C319.633 574.089 318.934 574.188 318.252 574.276C317.581 574.353 317.037 574.419 316.619 574.474C315.607 574.606 314.661 574.82 313.781 575.117C312.912 575.403 312.208 575.838 311.669 576.421C311.141 576.993 310.877 577.774 310.877 578.764C310.877 580.117 311.378 581.14 312.379 581.833C313.391 582.515 314.672 582.855 316.223 582.855Z" fill="#45556C"/>
<path d="M344.874 560.416V563.716H331.741V560.416H344.874ZM335.569 554.344H339.462V578.5C339.462 579.6 339.622 580.425 339.941 580.975C340.271 581.514 340.689 581.877 341.195 582.064C341.712 582.24 342.256 582.328 342.828 582.328C343.257 582.328 343.609 582.306 343.884 582.262C344.159 582.207 344.379 582.163 344.544 582.13L345.336 585.627C345.072 585.726 344.704 585.825 344.231 585.924C343.758 586.034 343.158 586.089 342.432 586.089C341.332 586.089 340.254 585.853 339.198 585.38C338.153 584.907 337.285 584.186 336.592 583.218C335.91 582.251 335.569 581.03 335.569 579.556V554.344Z" fill="#45556C"/>
<path d="M360.586 586.287C358.144 586.287 356.038 585.748 354.267 584.67C352.507 583.581 351.148 582.064 350.191 580.117C349.245 578.159 348.772 575.882 348.772 573.286C348.772 570.69 349.245 568.402 350.191 566.422C351.148 564.431 352.479 562.88 354.184 561.769C355.9 560.647 357.902 560.086 360.19 560.086C361.51 560.086 362.813 560.306 364.1 560.746C365.387 561.186 366.559 561.901 367.615 562.891C368.671 563.87 369.512 565.168 370.139 566.785C370.766 568.402 371.08 570.393 371.08 572.758V574.408H351.544V571.042H367.12C367.12 569.612 366.834 568.336 366.262 567.214C365.701 566.092 364.898 565.207 363.853 564.558C362.819 563.909 361.598 563.584 360.19 563.584C358.639 563.584 357.297 563.969 356.164 564.739C355.042 565.498 354.179 566.488 353.574 567.709C352.969 568.93 352.666 570.239 352.666 571.636V573.88C352.666 575.794 352.996 577.416 353.656 578.747C354.327 580.067 355.257 581.074 356.445 581.767C357.632 582.449 359.013 582.789 360.586 582.789C361.609 582.789 362.533 582.646 363.358 582.361C364.194 582.064 364.914 581.624 365.519 581.041C366.124 580.447 366.592 579.71 366.922 578.83L370.684 579.886C370.288 581.162 369.622 582.284 368.687 583.251C367.752 584.208 366.597 584.956 365.222 585.495C363.847 586.023 362.302 586.287 360.586 586.287Z" fill="#45556C"/>
<path d="M394.814 585.759L387.092 560.416H391.184L396.662 579.82H396.926L402.338 560.416H406.496L411.841 579.754H412.106L417.583 560.416H421.675L413.953 585.759H410.126L404.582 566.29H404.186L398.642 585.759H394.814Z" fill="#45556C"/>
<path d="M435.757 586.287C433.47 586.287 431.462 585.743 429.735 584.654C428.019 583.565 426.677 582.042 425.709 580.084C424.752 578.126 424.274 575.838 424.274 573.22C424.274 570.58 424.752 568.275 425.709 566.307C426.677 564.338 428.019 562.809 429.735 561.72C431.462 560.631 433.47 560.086 435.757 560.086C438.045 560.086 440.047 560.631 441.763 561.72C443.49 562.809 444.832 564.338 445.789 566.307C446.757 568.275 447.241 570.58 447.241 573.22C447.241 575.838 446.757 578.126 445.789 580.084C444.832 582.042 443.49 583.565 441.763 584.654C440.047 585.743 438.045 586.287 435.757 586.287ZM435.757 582.789C437.495 582.789 438.925 582.344 440.047 581.453C441.169 580.562 442 579.391 442.539 577.939C443.078 576.487 443.347 574.914 443.347 573.22C443.347 571.526 443.078 569.947 442.539 568.484C442 567.022 441.169 565.839 440.047 564.937C438.925 564.035 437.495 563.584 435.757 563.584C434.02 563.584 432.59 564.035 431.468 564.937C430.346 565.839 429.515 567.022 428.976 568.484C428.437 569.947 428.168 571.526 428.168 573.22C428.168 574.914 428.437 576.487 428.976 577.939C429.515 579.391 430.346 580.562 431.468 581.453C432.59 582.344 434.02 582.789 435.757 582.789Z" fill="#45556C"/>
<path d="M452.686 585.759V560.416H456.448V564.244H456.712C457.174 562.99 458.01 561.973 459.22 561.192C460.43 560.411 461.794 560.02 463.312 560.02C463.598 560.02 463.955 560.026 464.384 560.037C464.813 560.048 465.138 560.064 465.358 560.086V564.046C465.226 564.013 464.923 563.964 464.45 563.898C463.988 563.821 463.499 563.782 462.982 563.782C461.75 563.782 460.65 564.041 459.682 564.558C458.725 565.064 457.966 565.768 457.405 566.67C456.855 567.56 456.58 568.578 456.58 569.722V585.759H452.686Z" fill="#45556C"/>
<path d="M473.104 576.52L473.038 571.702H473.83L484.918 560.416H489.736L477.922 572.362H477.592L473.104 576.52ZM469.474 585.759V551.968H473.368V585.759H469.474ZM485.578 585.759L475.678 573.22L478.45 570.514L490.527 585.759H485.578Z" fill="#45556C"/>
<path d="M505.534 560.416V563.716H491.872V560.416H505.534ZM495.964 585.759V556.918C495.964 555.466 496.305 554.256 496.987 553.288C497.669 552.32 498.554 551.594 499.643 551.111C500.732 550.627 501.882 550.385 503.092 550.385C504.049 550.385 504.83 550.462 505.435 550.616C506.04 550.77 506.491 550.913 506.788 551.045L505.666 554.41C505.468 554.344 505.193 554.262 504.841 554.163C504.5 554.064 504.049 554.014 503.488 554.014C502.201 554.014 501.271 554.339 500.699 554.988C500.138 555.637 499.858 556.588 499.858 557.842V585.759H495.964Z" fill="#45556C"/>
<path d="M514.386 551.968V585.759H510.492V551.968H514.386Z" fill="#45556C"/>
<path d="M531.314 586.287C529.026 586.287 527.019 585.743 525.292 584.654C523.576 583.565 522.234 582.042 521.266 580.084C520.309 578.126 519.831 575.838 519.831 573.22C519.831 570.58 520.309 568.275 521.266 566.307C522.234 564.338 523.576 562.809 525.292 561.72C527.019 560.631 529.026 560.086 531.314 560.086C533.602 560.086 535.604 560.631 537.32 561.72C539.047 562.809 540.389 564.338 541.346 566.307C542.314 568.275 542.798 570.58 542.798 573.22C542.798 575.838 542.314 578.126 541.346 580.084C540.389 582.042 539.047 583.565 537.32 584.654C535.604 585.743 533.602 586.287 531.314 586.287ZM531.314 582.789C533.052 582.789 534.482 582.344 535.604 581.453C536.726 580.562 537.556 579.391 538.095 577.939C538.634 576.487 538.904 574.914 538.904 573.22C538.904 571.526 538.634 569.947 538.095 568.484C537.556 567.022 536.726 565.839 535.604 564.937C534.482 564.035 533.052 563.584 531.314 563.584C529.576 563.584 528.146 564.035 527.024 564.937C525.902 565.839 525.072 567.022 524.533 568.484C523.994 569.947 523.724 571.526 523.724 573.22C523.724 574.914 523.994 576.487 524.533 577.939C525.072 579.391 525.902 580.562 527.024 581.453C528.146 582.344 529.576 582.789 531.314 582.789Z" fill="#45556C"/>
<path d="M553.122 585.759L545.401 560.416H549.492L554.97 579.82H555.234L560.646 560.416H564.804L570.15 579.754H570.414L575.892 560.416H579.983L572.262 585.759H568.434L562.89 566.29H562.494L556.95 585.759H553.122Z" fill="#45556C"/>
<path d="M602.584 566.092L599.086 567.082C598.866 566.499 598.541 565.933 598.112 565.383C597.694 564.822 597.122 564.36 596.396 563.997C595.67 563.634 594.741 563.452 593.608 563.452C592.057 563.452 590.764 563.81 589.731 564.525C588.708 565.229 588.196 566.125 588.196 567.214C588.196 568.182 588.548 568.946 589.252 569.507C589.956 570.068 591.056 570.536 592.552 570.91L596.314 571.834C598.58 572.384 600.268 573.225 601.379 574.358C602.49 575.48 603.046 576.927 603.046 578.698C603.046 580.15 602.628 581.448 601.792 582.592C600.967 583.735 599.812 584.637 598.327 585.297C596.842 585.957 595.115 586.287 593.146 586.287C590.561 586.287 588.422 585.726 586.728 584.604C585.034 583.482 583.961 581.844 583.51 579.688L587.206 578.764C587.558 580.128 588.224 581.151 589.203 581.833C590.192 582.515 591.485 582.855 593.08 582.855C594.895 582.855 596.336 582.471 597.403 581.701C598.481 580.92 599.02 579.985 599.02 578.896C599.02 578.016 598.712 577.279 598.096 576.685C597.48 576.08 596.534 575.629 595.258 575.332L591.034 574.342C588.713 573.792 587.008 572.939 585.919 571.784C584.841 570.618 584.302 569.161 584.302 567.412C584.302 565.982 584.704 564.717 585.507 563.617C586.321 562.517 587.426 561.654 588.823 561.027C590.231 560.4 591.826 560.086 593.608 560.086C596.116 560.086 598.085 560.636 599.515 561.736C600.956 562.836 601.979 564.288 602.584 566.092Z" fill="#45556C"/>
<path d="M614.216 581.14L613.952 582.921C613.765 584.175 613.479 585.517 613.094 586.947C612.72 588.377 612.329 589.725 611.922 590.99C611.515 592.255 611.18 593.261 610.916 594.009H607.946C608.089 593.305 608.276 592.376 608.507 591.221C608.738 590.066 608.969 588.773 609.2 587.343C609.442 585.924 609.64 584.472 609.794 582.987L609.992 581.14H614.216Z" fill="#45556C"/>
<path d="M643.069 586.287C640.957 586.287 639.093 585.754 637.476 584.687C635.859 583.609 634.594 582.091 633.681 580.133C632.768 578.164 632.312 575.838 632.312 573.154C632.312 570.492 632.768 568.182 633.681 566.224C634.594 564.266 635.864 562.754 637.492 561.687C639.12 560.62 641.001 560.086 643.135 560.086C644.785 560.086 646.089 560.361 647.046 560.911C648.014 561.45 648.75 562.066 649.256 562.759C649.773 563.441 650.175 564.002 650.461 564.442H650.791V551.968H654.685V585.759H650.923V581.866H650.461C650.175 582.328 649.768 582.91 649.24 583.614C648.712 584.307 647.959 584.929 646.98 585.479C646.001 586.018 644.697 586.287 643.069 586.287ZM643.597 582.789C645.159 582.789 646.479 582.383 647.557 581.569C648.635 580.744 649.454 579.605 650.015 578.153C650.576 576.69 650.857 575.002 650.857 573.088C650.857 571.196 650.582 569.54 650.032 568.121C649.482 566.692 648.668 565.581 647.59 564.789C646.512 563.986 645.181 563.584 643.597 563.584C641.947 563.584 640.572 564.008 639.472 564.855C638.383 565.691 637.564 566.829 637.014 568.27C636.475 569.7 636.205 571.306 636.205 573.088C636.205 574.892 636.48 576.531 637.03 578.005C637.591 579.468 638.416 580.634 639.505 581.503C640.605 582.361 641.969 582.789 643.597 582.789Z" fill="#45556C"/>
<path d="M669.316 586.353C667.71 586.353 666.252 586.051 664.943 585.446C663.634 584.83 662.595 583.944 661.825 582.789C661.055 581.624 660.67 580.216 660.67 578.566C660.67 577.114 660.956 575.937 661.528 575.035C662.1 574.122 662.864 573.407 663.821 572.89C664.778 572.373 665.834 571.988 666.989 571.735C668.155 571.471 669.327 571.262 670.504 571.108C672.044 570.91 673.292 570.761 674.249 570.662C675.217 570.552 675.921 570.371 676.361 570.118C676.812 569.865 677.037 569.425 677.037 568.798V568.666C677.037 567.038 676.592 565.773 675.701 564.871C674.821 563.969 673.485 563.518 671.692 563.518C669.833 563.518 668.375 563.925 667.319 564.739C666.263 565.553 665.521 566.422 665.092 567.346L661.396 566.026C662.056 564.486 662.936 563.287 664.036 562.429C665.147 561.56 666.357 560.955 667.666 560.614C668.986 560.262 670.284 560.086 671.56 560.086C672.374 560.086 673.309 560.185 674.365 560.383C675.432 560.57 676.46 560.961 677.45 561.555C678.451 562.149 679.281 563.045 679.941 564.244C680.601 565.443 680.931 567.049 680.931 569.062V585.759H677.037V582.328H676.839C676.575 582.877 676.135 583.466 675.52 584.093C674.904 584.72 674.084 585.253 673.061 585.693C672.038 586.133 670.79 586.353 669.316 586.353ZM669.91 582.855C671.45 582.855 672.748 582.553 673.804 581.948C674.871 581.343 675.673 580.562 676.212 579.605C676.762 578.648 677.037 577.642 677.037 576.586V573.022C676.872 573.22 676.509 573.401 675.948 573.566C675.398 573.72 674.761 573.858 674.035 573.979C673.32 574.089 672.621 574.188 671.939 574.276C671.268 574.353 670.724 574.419 670.306 574.474C669.294 574.606 668.348 574.82 667.468 575.117C666.599 575.403 665.895 575.838 665.356 576.421C664.828 576.993 664.564 577.774 664.564 578.764C664.564 580.117 665.064 581.14 666.065 581.833C667.077 582.515 668.359 582.855 669.91 582.855Z" fill="#45556C"/>
<path d="M698.561 560.416V563.716H685.427V560.416H698.561ZM689.255 554.344H693.149V578.5C693.149 579.6 693.309 580.425 693.628 580.975C693.958 581.514 694.376 581.877 694.882 582.064C695.399 582.24 695.943 582.328 696.515 582.328C696.944 582.328 697.296 582.306 697.571 582.262C697.846 582.207 698.066 582.163 698.231 582.13L699.023 585.627C698.759 585.726 698.391 585.825 697.918 585.924C697.445 586.034 696.845 586.089 696.119 586.089C695.019 586.089 693.941 585.853 692.885 585.38C691.84 584.907 690.971 584.186 690.278 583.218C689.596 582.251 689.255 581.03 689.255 579.556V554.344Z" fill="#45556C"/>
<path d="M711.377 586.353C709.771 586.353 708.314 586.051 707.005 585.446C705.696 584.83 704.656 583.944 703.886 582.789C703.116 581.624 702.731 580.216 702.731 578.566C702.731 577.114 703.017 575.937 703.589 575.035C704.161 574.122 704.926 573.407 705.883 572.89C706.84 572.373 707.896 571.988 709.051 571.735C710.217 571.471 711.388 571.262 712.565 571.108C714.105 570.91 715.353 570.761 716.31 570.662C717.278 570.552 717.982 570.371 718.422 570.118C718.873 569.865 719.099 569.425 719.099 568.798V568.666C719.099 567.038 718.653 565.773 717.762 564.871C716.882 563.969 715.546 563.518 713.753 563.518C711.894 563.518 710.436 563.925 709.381 564.739C708.325 565.553 707.582 566.422 707.153 567.346L703.457 566.026C704.117 564.486 704.997 563.287 706.097 562.429C707.208 561.56 708.418 560.955 709.727 560.614C711.047 560.262 712.345 560.086 713.621 560.086C714.435 560.086 715.37 560.185 716.426 560.383C717.493 560.57 718.521 560.961 719.511 561.555C720.512 562.149 721.343 563.045 722.003 564.244C722.663 565.443 722.993 567.049 722.993 569.062V585.759H719.099V582.328H718.901C718.637 582.877 718.197 583.466 717.581 584.093C716.965 584.72 716.145 585.253 715.122 585.693C714.099 586.133 712.851 586.353 711.377 586.353ZM711.971 582.855C713.511 582.855 714.809 582.553 715.865 581.948C716.932 581.343 717.735 580.562 718.274 579.605C718.824 578.648 719.099 577.642 719.099 576.586V573.022C718.934 573.22 718.571 573.401 718.01 573.566C717.46 573.72 716.822 573.858 716.096 573.979C715.381 574.089 714.682 574.188 714 574.276C713.329 574.353 712.785 574.419 712.367 574.474C711.355 574.606 710.409 574.82 709.529 575.117C708.66 575.403 707.956 575.838 707.417 576.421C706.889 576.993 706.625 577.774 706.625 578.764C706.625 580.117 707.126 581.14 708.127 581.833C709.139 582.515 710.42 582.855 711.971 582.855Z" fill="#45556C"/>
<path d="M114.744 652.134V626.791H118.506V630.619H118.77C119.232 629.365 120.068 628.348 121.278 627.567C122.488 626.786 123.852 626.395 125.369 626.395C125.655 626.395 126.013 626.401 126.442 626.412C126.871 626.423 127.195 626.439 127.415 626.461V630.421C127.283 630.388 126.981 630.339 126.508 630.273C126.046 630.196 125.556 630.157 125.04 630.157C123.808 630.157 122.708 630.416 121.74 630.933C120.783 631.439 120.024 632.143 119.463 633.045C118.913 633.935 118.638 634.953 118.638 636.097V652.134H114.744Z" fill="#45556C"/>
<path d="M141.386 652.662C138.944 652.662 136.838 652.123 135.067 651.045C133.307 649.956 131.949 648.439 130.992 646.492C130.046 644.534 129.573 642.257 129.573 639.661C129.573 637.065 130.046 634.777 130.992 632.797C131.949 630.806 133.28 629.255 134.985 628.144C136.701 627.022 138.702 626.461 140.99 626.461C142.31 626.461 143.614 626.681 144.901 627.121C146.188 627.561 147.359 628.276 148.415 629.266C149.471 630.245 150.313 631.543 150.94 633.16C151.567 634.777 151.88 636.768 151.88 639.133V640.783H132.345V637.417H147.92C147.92 635.987 147.634 634.711 147.062 633.589C146.501 632.467 145.698 631.582 144.653 630.933C143.619 630.284 142.398 629.959 140.99 629.959C139.439 629.959 138.097 630.344 136.964 631.114C135.843 631.873 134.979 632.863 134.374 634.084C133.769 635.305 133.467 636.614 133.467 638.011V640.255C133.467 642.169 133.797 643.791 134.457 645.122C135.128 646.442 136.057 647.449 137.245 648.142C138.433 648.824 139.813 649.164 141.386 649.164C142.409 649.164 143.333 649.021 144.158 648.736C144.994 648.439 145.715 647.999 146.32 647.416C146.925 646.822 147.392 646.085 147.722 645.205L151.484 646.261C151.088 647.537 150.423 648.659 149.488 649.626C148.553 650.583 147.398 651.331 146.023 651.87C144.648 652.398 143.102 652.662 141.386 652.662Z" fill="#45556C"/>
<path d="M164.762 652.728C163.156 652.728 161.699 652.426 160.39 651.821C159.081 651.205 158.041 650.319 157.271 649.164C156.501 647.999 156.116 646.591 156.116 644.941C156.116 643.489 156.402 642.312 156.974 641.41C157.546 640.497 158.311 639.782 159.268 639.265C160.225 638.748 161.281 638.363 162.436 638.11C163.602 637.846 164.773 637.637 165.95 637.483C167.49 637.285 168.738 637.136 169.695 637.037C170.663 636.927 171.367 636.746 171.807 636.493C172.258 636.24 172.484 635.8 172.484 635.173V635.041C172.484 633.413 172.038 632.148 171.147 631.246C170.267 630.344 168.931 629.893 167.138 629.893C165.279 629.893 163.822 630.3 162.766 631.114C161.71 631.928 160.967 632.797 160.538 633.721L156.842 632.401C157.502 630.861 158.382 629.662 159.482 628.804C160.593 627.935 161.803 627.33 163.112 626.989C164.432 626.637 165.73 626.461 167.006 626.461C167.82 626.461 168.755 626.56 169.811 626.758C170.878 626.945 171.906 627.336 172.896 627.93C173.897 628.524 174.728 629.42 175.388 630.619C176.048 631.818 176.378 633.424 176.378 635.437V652.134H172.484V648.703H172.286C172.022 649.252 171.582 649.841 170.966 650.468C170.35 651.095 169.53 651.628 168.507 652.068C167.484 652.508 166.236 652.728 164.762 652.728ZM165.356 649.23C166.896 649.23 168.194 648.928 169.25 648.323C170.317 647.718 171.12 646.937 171.659 645.98C172.209 645.023 172.484 644.017 172.484 642.961V639.397C172.319 639.595 171.956 639.776 171.395 639.941C170.845 640.095 170.207 640.233 169.481 640.354C168.766 640.464 168.067 640.563 167.385 640.651C166.714 640.728 166.17 640.794 165.752 640.849C164.74 640.981 163.794 641.195 162.914 641.492C162.045 641.778 161.341 642.213 160.802 642.796C160.274 643.368 160.01 644.149 160.01 645.139C160.01 646.492 160.511 647.515 161.512 648.208C162.524 648.89 163.805 649.23 165.356 649.23Z" fill="#45556C"/>
<path d="M192.555 652.662C190.443 652.662 188.579 652.129 186.962 651.062C185.345 649.984 184.08 648.466 183.167 646.508C182.254 644.539 181.798 642.213 181.798 639.529C181.798 636.867 182.254 634.557 183.167 632.599C184.08 630.641 185.351 629.129 186.979 628.062C188.606 626.995 190.487 626.461 192.621 626.461C194.271 626.461 195.575 626.736 196.532 627.286C197.5 627.825 198.237 628.441 198.743 629.134C199.26 629.816 199.661 630.377 199.947 630.817H200.277V618.343H204.171V652.134H200.409V648.241H199.947C199.661 648.703 199.254 649.285 198.726 649.989C198.198 650.682 197.445 651.304 196.466 651.854C195.487 652.393 194.183 652.662 192.555 652.662ZM193.083 649.164C194.645 649.164 195.965 648.758 197.043 647.944C198.121 647.119 198.941 645.98 199.502 644.528C200.063 643.065 200.343 641.377 200.343 639.463C200.343 637.571 200.068 635.915 199.518 634.496C198.968 633.067 198.154 631.956 197.076 631.164C195.998 630.361 194.667 629.959 193.083 629.959C191.433 629.959 190.058 630.383 188.958 631.23C187.869 632.066 187.05 633.204 186.5 634.645C185.961 636.075 185.692 637.681 185.692 639.463C185.692 641.267 185.967 642.906 186.517 644.38C187.078 645.843 187.902 647.009 188.991 647.878C190.091 648.736 191.455 649.164 193.083 649.164Z" fill="#45556C"/>
<path d="M211.344 652.134V626.791H215.238V652.134H211.344ZM213.324 622.567C212.565 622.567 211.911 622.309 211.361 621.792C210.822 621.275 210.552 620.653 210.552 619.927C210.552 619.201 210.822 618.58 211.361 618.063C211.911 617.546 212.565 617.288 213.324 617.288C214.083 617.288 214.732 617.546 215.271 618.063C215.821 618.58 216.096 619.201 216.096 619.927C216.096 620.653 215.821 621.275 215.271 621.792C214.732 622.309 214.083 622.567 213.324 622.567Z" fill="#45556C"/>
<path d="M225.765 636.889V652.134H221.871V626.791H225.633V630.751H225.963C226.557 629.464 227.459 628.43 228.669 627.649C229.879 626.857 231.44 626.461 233.354 626.461C235.07 626.461 236.572 626.813 237.859 627.517C239.146 628.21 240.147 629.266 240.862 630.685C241.577 632.093 241.934 633.875 241.934 636.031V652.134H238.04V636.295C238.04 634.304 237.523 632.753 236.489 631.642C235.455 630.52 234.036 629.959 232.232 629.959C230.989 629.959 229.879 630.229 228.9 630.768C227.932 631.307 227.167 632.093 226.606 633.127C226.045 634.161 225.765 635.415 225.765 636.889Z" fill="#45556C"/>
<path d="M259.176 652.662C256.734 652.662 254.628 652.123 252.857 651.045C251.097 649.956 249.738 648.439 248.781 646.492C247.835 644.534 247.362 642.257 247.362 639.661C247.362 637.065 247.835 634.777 248.781 632.797C249.738 630.806 251.069 629.255 252.774 628.144C254.49 627.022 256.492 626.461 258.78 626.461C260.1 626.461 261.403 626.681 262.69 627.121C263.977 627.561 265.149 628.276 266.205 629.266C267.261 630.245 268.102 631.543 268.729 633.16C269.356 634.777 269.67 636.768 269.67 639.133V640.783H250.134V637.417H265.71C265.71 635.987 265.424 634.711 264.852 633.589C264.291 632.467 263.488 631.582 262.443 630.933C261.409 630.284 260.188 629.959 258.78 629.959C257.229 629.959 255.887 630.344 254.754 631.114C253.632 631.873 252.769 632.863 252.164 634.084C251.559 635.305 251.256 636.614 251.256 638.011V640.255C251.256 642.169 251.586 643.791 252.246 645.122C252.917 646.442 253.847 647.449 255.035 648.142C256.223 648.824 257.603 649.164 259.176 649.164C260.199 649.164 261.123 649.021 261.948 648.736C262.784 648.439 263.504 647.999 264.109 647.416C264.714 646.822 265.182 646.085 265.512 645.205L269.274 646.261C268.878 647.537 268.212 648.659 267.277 649.626C266.342 650.583 265.187 651.331 263.812 651.87C262.437 652.398 260.892 652.662 259.176 652.662Z" fill="#45556C"/>
<path d="M293.045 632.467L289.547 633.457C289.327 632.874 289.003 632.308 288.574 631.758C288.156 631.197 287.584 630.735 286.858 630.372C286.132 630.009 285.203 629.827 284.07 629.827C282.519 629.827 281.226 630.185 280.192 630.9C279.169 631.604 278.658 632.5 278.658 633.589C278.658 634.557 279.01 635.321 279.714 635.882C280.418 636.443 281.518 636.911 283.014 637.285L286.776 638.209C289.041 638.759 290.73 639.6 291.841 640.733C292.952 641.855 293.507 643.302 293.507 645.073C293.507 646.525 293.089 647.823 292.253 648.967C291.428 650.11 290.273 651.012 288.788 651.672C287.304 652.332 285.577 652.662 283.608 652.662C281.023 652.662 278.883 652.101 277.189 650.979C275.495 649.857 274.423 648.219 273.972 646.063L277.668 645.139C278.02 646.503 278.685 647.526 279.664 648.208C280.654 648.89 281.947 649.23 283.542 649.23C285.357 649.23 286.798 648.846 287.865 648.076C288.942 647.295 289.481 646.36 289.481 645.271C289.481 644.391 289.173 643.654 288.557 643.06C287.942 642.455 286.996 642.004 285.72 641.707L281.496 640.717C279.175 640.167 277.47 639.314 276.381 638.159C275.303 636.993 274.764 635.536 274.764 633.787C274.764 632.357 275.165 631.092 275.968 629.992C276.782 628.892 277.888 628.029 279.285 627.402C280.693 626.775 282.288 626.461 284.07 626.461C286.578 626.461 288.546 627.011 289.976 628.111C291.417 629.211 292.44 630.663 293.045 632.467Z" fill="#45556C"/>
<path d="M316.821 632.467L313.323 633.457C313.103 632.874 312.779 632.308 312.35 631.758C311.932 631.197 311.36 630.735 310.634 630.372C309.908 630.009 308.978 629.827 307.845 629.827C306.294 629.827 305.002 630.185 303.968 630.9C302.945 631.604 302.434 632.5 302.434 633.589C302.434 634.557 302.786 635.321 303.49 635.882C304.193 636.443 305.293 636.911 306.789 637.285L310.551 638.209C312.817 638.759 314.506 639.6 315.617 640.733C316.728 641.855 317.283 643.302 317.283 645.073C317.283 646.525 316.865 647.823 316.029 648.967C315.204 650.11 314.049 651.012 312.564 651.672C311.079 652.332 309.352 652.662 307.383 652.662C304.798 652.662 302.659 652.101 300.965 650.979C299.271 649.857 298.199 648.219 297.748 646.063L301.444 645.139C301.796 646.503 302.461 647.526 303.44 648.208C304.43 648.89 305.722 649.23 307.317 649.23C309.132 649.23 310.573 648.846 311.64 648.076C312.718 647.295 313.257 646.36 313.257 645.271C313.257 644.391 312.949 643.654 312.333 643.06C311.717 642.455 310.771 642.004 309.495 641.707L305.271 640.717C302.951 640.167 301.246 639.314 300.157 638.159C299.079 636.993 298.54 635.536 298.54 633.787C298.54 632.357 298.941 631.092 299.744 629.992C300.558 628.892 301.664 628.029 303.061 627.402C304.468 626.775 306.063 626.461 307.845 626.461C310.353 626.461 312.322 627.011 313.752 628.111C315.193 629.211 316.216 630.663 316.821 632.467Z" fill="#45556C"/>
<path d="M328.453 647.515L328.189 649.296C328.002 650.55 327.716 651.892 327.331 653.322C326.957 654.752 326.567 656.1 326.16 657.365C325.753 658.63 325.417 659.636 325.153 660.384H322.183C322.326 659.68 322.513 658.751 322.744 657.596C322.975 656.441 323.206 655.148 323.437 653.718C323.679 652.299 323.877 650.847 324.031 649.362L324.229 647.515H328.453Z" fill="#45556C"/>
<path d="M355.195 652.728C353.589 652.728 352.131 652.426 350.822 651.821C349.513 651.205 348.474 650.319 347.704 649.164C346.934 647.999 346.549 646.591 346.549 644.941C346.549 643.489 346.835 642.312 347.407 641.41C347.979 640.497 348.743 639.782 349.7 639.265C350.657 638.748 351.713 638.363 352.868 638.11C354.034 637.846 355.206 637.637 356.383 637.483C357.923 637.285 359.171 637.136 360.128 637.037C361.096 636.927 361.8 636.746 362.24 636.493C362.691 636.24 362.916 635.8 362.916 635.173V635.041C362.916 633.413 362.471 632.148 361.58 631.246C360.7 630.344 359.364 629.893 357.571 629.893C355.712 629.893 354.254 630.3 353.198 631.114C352.142 631.928 351.4 632.797 350.971 633.721L347.275 632.401C347.935 630.861 348.815 629.662 349.915 628.804C351.026 627.935 352.236 627.33 353.545 626.989C354.865 626.637 356.163 626.461 357.439 626.461C358.253 626.461 359.188 626.56 360.244 626.758C361.311 626.945 362.339 627.336 363.329 627.93C364.33 628.524 365.16 629.42 365.82 630.619C366.48 631.818 366.81 633.424 366.81 635.437V652.134H362.916V648.703H362.718C362.454 649.252 362.014 649.841 361.399 650.468C360.783 651.095 359.963 651.628 358.94 652.068C357.917 652.508 356.669 652.728 355.195 652.728ZM355.789 649.23C357.329 649.23 358.627 648.928 359.683 648.323C360.75 647.718 361.553 646.937 362.091 645.98C362.641 645.023 362.916 644.017 362.916 642.961V639.397C362.751 639.595 362.388 639.776 361.828 639.941C361.278 640.095 360.64 640.233 359.914 640.354C359.199 640.464 358.5 640.563 357.818 640.651C357.147 640.728 356.603 640.794 356.185 640.849C355.173 640.981 354.227 641.195 353.347 641.492C352.478 641.778 351.774 642.213 351.235 642.796C350.707 643.368 350.443 644.149 350.443 645.139C350.443 646.492 350.943 647.515 351.944 648.208C352.956 648.89 354.238 649.23 355.789 649.23Z" fill="#45556C"/>
<path d="M377.312 636.889V652.134H373.418V626.791H377.18V630.751H377.51C378.104 629.464 379.006 628.43 380.216 627.649C381.426 626.857 382.988 626.461 384.902 626.461C386.618 626.461 388.119 626.813 389.406 627.517C390.693 628.21 391.694 629.266 392.409 630.685C393.124 632.093 393.482 633.875 393.482 636.031V652.134H389.588V636.295C389.588 634.304 389.071 632.753 388.037 631.642C387.003 630.52 385.584 629.959 383.78 629.959C382.537 629.959 381.426 630.229 380.447 630.768C379.479 631.307 378.715 632.093 378.154 633.127C377.593 634.161 377.312 635.415 377.312 636.889Z" fill="#45556C"/>
<path d="M409.668 652.662C407.556 652.662 405.691 652.129 404.074 651.062C402.457 649.984 401.192 648.466 400.28 646.508C399.367 644.539 398.91 642.213 398.91 639.529C398.91 636.867 399.367 634.557 400.28 632.599C401.192 630.641 402.463 629.129 404.091 628.062C405.719 626.995 407.6 626.461 409.734 626.461C411.384 626.461 412.687 626.736 413.644 627.286C414.612 627.825 415.349 628.441 415.855 629.134C416.372 629.816 416.773 630.377 417.059 630.817H417.389V618.343H421.283V652.134H417.521V648.241H417.059C416.773 648.703 416.366 649.285 415.838 649.989C415.311 650.682 414.557 651.304 413.578 651.854C412.599 652.393 411.296 652.662 409.668 652.662ZM410.196 649.164C411.758 649.164 413.078 648.758 414.156 647.944C415.234 647.119 416.053 645.98 416.614 644.528C417.175 643.065 417.455 641.377 417.455 639.463C417.455 637.571 417.18 635.915 416.63 634.496C416.081 633.067 415.267 631.956 414.189 631.164C413.111 630.361 411.78 629.959 410.196 629.959C408.546 629.959 407.171 630.383 406.071 631.23C404.982 632.066 404.162 633.204 403.612 634.645C403.073 636.075 402.804 637.681 402.804 639.463C402.804 641.267 403.079 642.906 403.629 644.38C404.19 645.843 405.015 647.009 406.104 647.878C407.204 648.736 408.568 649.164 410.196 649.164Z" fill="#45556C"/>
<path d="M458.976 632.467L455.478 633.457C455.258 632.874 454.934 632.308 454.505 631.758C454.087 631.197 453.515 630.735 452.789 630.372C452.063 630.009 451.134 629.827 450.001 629.827C448.45 629.827 447.157 630.185 446.123 630.9C445.1 631.604 444.589 632.5 444.589 633.589C444.589 634.557 444.941 635.321 445.645 635.882C446.349 636.443 447.449 636.911 448.945 637.285L452.707 638.209C454.972 638.759 456.661 639.6 457.772 640.733C458.883 641.855 459.438 643.302 459.438 645.073C459.438 646.525 459.02 647.823 458.184 648.967C457.359 650.11 456.204 651.012 454.719 651.672C453.235 652.332 451.508 652.662 449.539 652.662C446.954 652.662 444.814 652.101 443.12 650.979C441.426 649.857 440.354 648.219 439.903 646.063L443.599 645.139C443.951 646.503 444.616 647.526 445.595 648.208C446.585 648.89 447.878 649.23 449.473 649.23C451.288 649.23 452.729 648.846 453.796 648.076C454.874 647.295 455.412 646.36 455.412 645.271C455.412 644.391 455.105 643.654 454.489 643.06C453.873 642.455 452.927 642.004 451.651 641.707L447.427 640.717C445.106 640.167 443.401 639.314 442.312 638.159C441.234 636.993 440.695 635.536 440.695 633.787C440.695 632.357 441.096 631.092 441.899 629.992C442.713 628.892 443.819 628.029 445.216 627.402C446.624 626.775 448.219 626.461 450.001 626.461C452.509 626.461 454.478 627.011 455.907 628.111C457.348 629.211 458.371 630.663 458.976 632.467Z" fill="#45556C"/>
<path d="M475.426 652.662C472.984 652.662 470.878 652.123 469.107 651.045C467.347 649.956 465.989 648.439 465.032 646.492C464.086 644.534 463.613 642.257 463.613 639.661C463.613 637.065 464.086 634.777 465.032 632.797C465.989 630.806 467.32 629.255 469.025 628.144C470.74 627.022 472.742 626.461 475.03 626.461C476.35 626.461 477.654 626.681 478.941 627.121C480.228 627.561 481.399 628.276 482.455 629.266C483.511 630.245 484.353 631.543 484.98 633.16C485.607 634.777 485.92 636.768 485.92 639.133V640.783H466.385V637.417H481.96C481.96 635.987 481.674 634.711 481.102 633.589C480.541 632.467 479.738 631.582 478.693 630.933C477.659 630.284 476.438 629.959 475.03 629.959C473.479 629.959 472.137 630.344 471.004 631.114C469.883 631.873 469.019 632.863 468.414 634.084C467.809 635.305 467.507 636.614 467.507 638.011V640.255C467.507 642.169 467.837 643.791 468.497 645.122C469.168 646.442 470.097 647.449 471.285 648.142C472.473 648.824 473.853 649.164 475.426 649.164C476.449 649.164 477.373 649.021 478.198 648.736C479.034 648.439 479.755 647.999 480.36 647.416C480.965 646.822 481.432 646.085 481.762 645.205L485.524 646.261C485.128 647.537 484.463 648.659 483.528 649.626C482.593 650.583 481.438 651.331 480.063 651.87C478.688 652.398 477.142 652.662 475.426 652.662Z" fill="#45556C"/>
<path d="M501.64 652.662C499.264 652.662 497.218 652.101 495.502 650.979C493.786 649.857 492.466 648.312 491.542 646.343C490.618 644.374 490.156 642.125 490.156 639.595C490.156 637.021 490.629 634.749 491.575 632.781C492.532 630.801 493.863 629.255 495.568 628.144C497.284 627.022 499.286 626.461 501.574 626.461C503.356 626.461 504.962 626.791 506.392 627.451C507.822 628.111 508.993 629.035 509.906 630.223C510.819 631.411 511.386 632.797 511.606 634.381H507.712C507.415 633.226 506.755 632.203 505.732 631.312C504.72 630.41 503.356 629.959 501.64 629.959C500.122 629.959 498.791 630.355 497.647 631.147C496.514 631.928 495.629 633.034 494.991 634.463C494.364 635.882 494.05 637.549 494.05 639.463C494.05 641.421 494.358 643.126 494.974 644.578C495.601 646.03 496.481 647.157 497.614 647.96C498.758 648.763 500.1 649.164 501.64 649.164C502.652 649.164 503.57 648.989 504.395 648.637C505.22 648.285 505.919 647.779 506.491 647.119C507.063 646.459 507.47 645.667 507.712 644.743H511.606C511.386 646.239 510.841 647.586 509.972 648.785C509.114 649.973 507.976 650.919 506.557 651.623C505.149 652.316 503.51 652.662 501.64 652.662Z" fill="#45556C"/>
<path d="M532.77 641.773V626.791H536.664V652.134H532.77V647.845H532.506C531.912 649.131 530.988 650.226 529.734 651.128C528.48 652.019 526.896 652.464 524.982 652.464C523.399 652.464 521.991 652.118 520.759 651.425C519.527 650.721 518.559 649.665 517.855 648.257C517.151 646.838 516.799 645.051 516.799 642.895V626.791H520.693V642.631C520.693 644.479 521.21 645.953 522.244 647.053C523.289 648.153 524.619 648.703 526.236 648.703C527.204 648.703 528.189 648.455 529.19 647.96C530.202 647.465 531.049 646.706 531.731 645.683C532.424 644.66 532.77 643.357 532.77 641.773Z" fill="#45556C"/>
<path d="M543.297 652.134V626.791H547.059V630.619H547.323C547.785 629.365 548.621 628.348 549.831 627.567C551.041 626.786 552.405 626.395 553.923 626.395C554.209 626.395 554.566 626.401 554.995 626.412C555.424 626.423 555.748 626.439 555.968 626.461V630.421C555.836 630.388 555.534 630.339 555.061 630.273C554.599 630.196 554.11 630.157 553.593 630.157C552.361 630.157 551.261 630.416 550.293 630.933C549.336 631.439 548.577 632.143 548.016 633.045C547.466 633.935 547.191 634.953 547.191 636.097V652.134H543.297Z" fill="#45556C"/>
<path d="M560.085 652.134V626.791H563.979V652.134H560.085ZM562.065 622.567C561.306 622.567 560.652 622.309 560.102 621.792C559.563 621.275 559.293 620.653 559.293 619.927C559.293 619.201 559.563 618.58 560.102 618.063C560.652 617.546 561.306 617.288 562.065 617.288C562.824 617.288 563.473 617.546 564.012 618.063C564.562 618.58 564.837 619.201 564.837 619.927C564.837 620.653 564.562 621.275 564.012 621.792C563.473 622.309 562.824 622.567 562.065 622.567Z" fill="#45556C"/>
<path d="M581.633 626.791V630.091H568.5V626.791H581.633ZM572.328 620.719H576.222V644.875C576.222 645.975 576.381 646.8 576.7 647.35C577.03 647.889 577.448 648.252 577.954 648.439C578.471 648.615 579.016 648.703 579.587 648.703C580.016 648.703 580.368 648.681 580.643 648.637C580.918 648.582 581.138 648.538 581.303 648.505L582.095 652.002C581.831 652.101 581.463 652.2 580.99 652.299C580.517 652.409 579.917 652.464 579.191 652.464C578.092 652.464 577.014 652.228 575.958 651.755C574.913 651.282 574.044 650.561 573.351 649.593C572.669 648.626 572.328 647.405 572.328 645.931V620.719Z" fill="#45556C"/>
<path d="M589.5 661.638C588.84 661.638 588.251 661.583 587.734 661.473C587.217 661.374 586.86 661.275 586.662 661.176L587.652 657.744C588.598 657.986 589.434 658.074 590.16 658.008C590.886 657.942 591.529 657.618 592.09 657.035C592.662 656.463 593.184 655.533 593.657 654.246L594.383 652.266L585.012 626.791H589.236L596.231 646.987H596.495L603.491 626.791H607.715L596.957 655.83C596.473 657.139 595.874 658.223 595.159 659.081C594.444 659.95 593.613 660.593 592.667 661.011C591.732 661.429 590.676 661.638 589.5 661.638Z" fill="#45556C"/>
<path d="M624.924 661.638V626.791H628.686V630.817H629.148C629.434 630.377 629.83 629.816 630.336 629.134C630.853 628.441 631.59 627.825 632.547 627.286C633.515 626.736 634.824 626.461 636.473 626.461C638.607 626.461 640.488 626.995 642.116 628.062C643.744 629.129 645.015 630.641 645.928 632.599C646.841 634.557 647.297 636.867 647.297 639.529C647.297 642.213 646.841 644.539 645.928 646.508C645.015 648.466 643.75 649.984 642.133 651.062C640.516 652.129 638.651 652.662 636.54 652.662C634.912 652.662 633.608 652.393 632.629 651.854C631.65 651.304 630.897 650.682 630.369 649.989C629.841 649.285 629.434 648.703 629.148 648.241H628.818V661.638H624.924ZM628.752 639.463C628.752 641.377 629.032 643.065 629.593 644.528C630.154 645.98 630.974 647.119 632.052 647.944C633.13 648.758 634.45 649.164 636.012 649.164C637.639 649.164 638.998 648.736 640.087 647.878C641.187 647.009 642.012 645.843 642.562 644.38C643.123 642.906 643.403 641.267 643.403 639.463C643.403 637.681 643.128 636.075 642.578 634.645C642.039 633.204 641.22 632.066 640.12 631.23C639.031 630.383 637.661 629.959 636.012 629.959C634.428 629.959 633.097 630.361 632.019 631.164C630.941 631.956 630.127 633.067 629.577 634.496C629.027 635.915 628.752 637.571 628.752 639.463Z" fill="#45556C"/>
<path d="M663.034 652.662C660.746 652.662 658.738 652.118 657.011 651.029C655.295 649.94 653.953 648.417 652.985 646.459C652.028 644.501 651.55 642.213 651.55 639.595C651.55 636.955 652.028 634.65 652.985 632.682C653.953 630.713 655.295 629.184 657.011 628.095C658.738 627.006 660.746 626.461 663.034 626.461C665.321 626.461 667.323 627.006 669.039 628.095C670.766 629.184 672.108 630.713 673.065 632.682C674.033 634.65 674.517 636.955 674.517 639.595C674.517 642.213 674.033 644.501 673.065 646.459C672.108 648.417 670.766 649.94 669.039 651.029C667.323 652.118 665.321 652.662 663.034 652.662ZM663.034 649.164C664.771 649.164 666.201 648.719 667.323 647.828C668.445 646.937 669.276 645.766 669.815 644.314C670.354 642.862 670.623 641.289 670.623 639.595C670.623 637.901 670.354 636.322 669.815 634.859C669.276 633.397 668.445 632.214 667.323 631.312C666.201 630.41 664.771 629.959 663.034 629.959C661.296 629.959 659.866 630.41 658.744 631.312C657.622 632.214 656.791 633.397 656.252 634.859C655.713 636.322 655.444 637.901 655.444 639.595C655.444 641.289 655.713 642.862 656.252 644.314C656.791 645.766 657.622 646.937 658.744 647.828C659.866 648.719 661.296 649.164 663.034 649.164Z" fill="#45556C"/>
<path d="M697.913 632.467L694.416 633.457C694.196 632.874 693.871 632.308 693.442 631.758C693.024 631.197 692.452 630.735 691.726 630.372C691 630.009 690.071 629.827 688.938 629.827C687.387 629.827 686.094 630.185 685.06 630.9C684.037 631.604 683.526 632.5 683.526 633.589C683.526 634.557 683.878 635.321 684.582 635.882C685.286 636.443 686.386 636.911 687.882 637.285L691.644 638.209C693.91 638.759 695.598 639.6 696.709 640.733C697.82 641.855 698.375 643.302 698.375 645.073C698.375 646.525 697.957 647.823 697.121 648.967C696.296 650.11 695.142 651.012 693.657 651.672C692.172 652.332 690.445 652.662 688.476 652.662C685.891 652.662 683.751 652.101 682.057 650.979C680.364 649.857 679.291 648.219 678.84 646.063L682.536 645.139C682.888 646.503 683.553 647.526 684.532 648.208C685.522 648.89 686.815 649.23 688.41 649.23C690.225 649.23 691.666 648.846 692.733 648.076C693.811 647.295 694.35 646.36 694.35 645.271C694.35 644.391 694.042 643.654 693.426 643.06C692.81 642.455 691.864 642.004 690.588 641.707L686.364 640.717C684.043 640.167 682.338 639.314 681.249 638.159C680.171 636.993 679.632 635.536 679.632 633.787C679.632 632.357 680.033 631.092 680.836 629.992C681.65 628.892 682.756 628.029 684.153 627.402C685.561 626.775 687.156 626.461 688.938 626.461C691.446 626.461 693.415 627.011 694.845 628.111C696.285 629.211 697.308 630.663 697.913 632.467Z" fill="#45556C"/>
<path d="M714.759 626.791V630.091H701.626V626.791H714.759ZM705.454 620.719H709.348V644.875C709.348 645.975 709.507 646.8 709.826 647.35C710.156 647.889 710.574 648.252 711.08 648.439C711.597 648.615 712.141 648.703 712.713 648.703C713.142 648.703 713.494 648.681 713.769 648.637C714.044 648.582 714.264 648.538 714.429 648.505L715.221 652.002C714.957 652.101 714.589 652.2 714.116 652.299C713.643 652.409 713.043 652.464 712.317 652.464C711.217 652.464 710.14 652.228 709.084 651.755C708.039 651.282 707.17 650.561 706.477 649.593C705.795 648.626 705.454 647.405 705.454 645.931V620.719Z" fill="#45556C"/>
<path d="M736.089 641.773V626.791H739.983V652.134H736.089V647.845H735.825C735.231 649.131 734.307 650.226 733.053 651.128C731.799 652.019 730.215 652.464 728.301 652.464C726.717 652.464 725.309 652.118 724.077 651.425C722.845 650.721 721.878 649.665 721.174 648.257C720.47 646.838 720.118 645.051 720.118 642.895V626.791H724.011V642.631C724.011 644.479 724.528 645.953 725.562 647.053C726.607 648.153 727.938 648.703 729.555 648.703C730.523 648.703 731.508 648.455 732.509 647.96C733.521 647.465 734.368 646.706 735.05 645.683C735.743 644.66 736.089 643.357 736.089 641.773Z" fill="#45556C"/>
<path d="M746.616 652.134V626.791H750.378V630.619H750.642C751.104 629.365 751.94 628.348 753.15 627.567C754.359 626.786 755.723 626.395 757.241 626.395C757.527 626.395 757.885 626.401 758.314 626.412C758.743 626.423 759.067 626.439 759.287 626.461V630.421C759.155 630.388 758.853 630.339 758.38 630.273C757.918 630.196 757.428 630.157 756.911 630.157C755.679 630.157 754.579 630.416 753.612 630.933C752.655 631.439 751.896 632.143 751.335 633.045C750.785 633.935 750.51 634.953 750.51 636.097V652.134H746.616Z" fill="#45556C"/>
<path d="M773.258 652.662C770.816 652.662 768.71 652.123 766.939 651.045C765.179 649.956 763.821 648.439 762.864 646.492C761.918 644.534 761.445 642.257 761.445 639.661C761.445 637.065 761.918 634.777 762.864 632.797C763.821 630.806 765.151 629.255 766.856 628.144C768.572 627.022 770.574 626.461 772.862 626.461C774.182 626.461 775.486 626.681 776.773 627.121C778.06 627.561 779.231 628.276 780.287 629.266C781.343 630.245 782.184 631.543 782.811 633.16C783.438 634.777 783.752 636.768 783.752 639.133V640.783H764.217V637.417H779.792C779.792 635.987 779.506 634.711 778.934 633.589C778.373 632.467 777.57 631.582 776.525 630.933C775.491 630.284 774.27 629.959 772.862 629.959C771.311 629.959 769.969 630.344 768.836 631.114C767.714 631.873 766.851 632.863 766.246 634.084C765.641 635.305 765.338 636.614 765.338 638.011V640.255C765.338 642.169 765.668 643.791 766.328 645.122C766.999 646.442 767.929 647.449 769.117 648.142C770.305 648.824 771.685 649.164 773.258 649.164C774.281 649.164 775.205 649.021 776.03 648.736C776.866 648.439 777.587 647.999 778.192 647.416C778.797 646.822 779.264 646.085 779.594 645.205L783.356 646.261C782.96 647.537 782.294 648.659 781.359 649.626C780.424 650.583 779.27 651.331 777.895 651.87C776.52 652.398 774.974 652.662 773.258 652.662Z" fill="#45556C"/>
<path d="M125.765 693.166V696.466H112.632V693.166H125.765ZM116.46 687.094H120.354V711.25C120.354 712.35 120.513 713.175 120.832 713.725C121.162 714.264 121.58 714.627 122.086 714.814C122.603 714.99 123.148 715.078 123.72 715.078C124.149 715.078 124.501 715.056 124.776 715.012C125.051 714.957 125.271 714.913 125.435 714.88L126.227 718.377C125.963 718.476 125.595 718.575 125.122 718.674C124.649 718.784 124.05 718.839 123.324 718.839C122.224 718.839 121.146 718.603 120.09 718.13C119.045 717.657 118.176 716.936 117.483 715.968C116.801 715.001 116.46 713.78 116.46 712.306V687.094Z" fill="#45556C"/>
<path d="M141.147 719.037C138.859 719.037 136.852 718.493 135.125 717.404C133.409 716.315 132.067 714.792 131.099 712.834C130.142 710.876 129.663 708.588 129.663 705.97C129.663 703.33 130.142 701.025 131.099 699.057C132.067 697.088 133.409 695.559 135.125 694.47C136.852 693.381 138.859 692.836 141.147 692.836C143.435 692.836 145.437 693.381 147.153 694.47C148.88 695.559 150.222 697.088 151.179 699.057C152.147 701.025 152.631 703.33 152.631 705.97C152.631 708.588 152.147 710.876 151.179 712.834C150.222 714.792 148.88 716.315 147.153 717.404C145.437 718.493 143.435 719.037 141.147 719.037ZM141.147 715.54C142.885 715.54 144.315 715.094 145.437 714.203C146.559 713.312 147.389 712.141 147.928 710.689C148.467 709.237 148.737 707.664 148.737 705.97C148.737 704.276 148.467 702.697 147.928 701.234C147.389 699.772 146.559 698.589 145.437 697.687C144.315 696.785 142.885 696.334 141.147 696.334C139.409 696.334 137.979 696.785 136.857 697.687C135.735 698.589 134.905 699.772 134.366 701.234C133.827 702.697 133.557 704.276 133.557 705.97C133.557 707.664 133.827 709.237 134.366 710.689C134.905 712.141 135.735 713.312 136.857 714.203C137.979 715.094 139.409 715.54 141.147 715.54Z" fill="#45556C"/>
<path d="M170.644 718.509V693.166H174.538V718.509H170.644ZM172.624 688.942C171.865 688.942 171.211 688.684 170.661 688.167C170.122 687.65 169.852 687.028 169.852 686.302C169.852 685.576 170.122 684.955 170.661 684.438C171.211 683.921 171.865 683.663 172.624 683.663C173.383 683.663 174.032 683.921 174.571 684.438C175.121 684.955 175.396 685.576 175.396 686.302C175.396 687.028 175.121 687.65 174.571 688.167C174.032 688.684 173.383 688.942 172.624 688.942Z" fill="#45556C"/>
<path d="M190.74 719.037C188.628 719.037 186.764 718.504 185.147 717.437C183.53 716.359 182.265 714.841 181.352 712.883C180.439 710.914 179.983 708.588 179.983 705.904C179.983 703.242 180.439 700.932 181.352 698.974C182.265 697.016 183.536 695.504 185.164 694.437C186.792 693.37 188.672 692.836 190.806 692.836C192.456 692.836 193.76 693.111 194.717 693.661C195.685 694.2 196.422 694.816 196.928 695.509C197.445 696.191 197.846 696.752 198.132 697.192H198.462V684.718H202.356V718.509H198.594V714.616H198.132C197.846 715.078 197.439 715.66 196.911 716.364C196.383 717.057 195.63 717.679 194.651 718.229C193.672 718.768 192.368 719.037 190.74 719.037ZM191.268 715.54C192.83 715.54 194.15 715.133 195.228 714.319C196.306 713.494 197.126 712.355 197.687 710.903C198.248 709.44 198.528 707.752 198.528 705.838C198.528 703.946 198.253 702.29 197.703 700.871C197.153 699.442 196.339 698.331 195.261 697.539C194.183 696.736 192.852 696.334 191.268 696.334C189.618 696.334 188.243 696.758 187.144 697.605C186.055 698.441 185.235 699.579 184.685 701.02C184.146 702.45 183.877 704.056 183.877 705.838C183.877 707.642 184.152 709.281 184.702 710.755C185.263 712.218 186.088 713.384 187.177 714.253C188.276 715.111 189.64 715.54 191.268 715.54Z" fill="#45556C"/>
<path d="M220.155 719.037C217.713 719.037 215.606 718.498 213.836 717.42C212.076 716.331 210.717 714.814 209.76 712.867C208.814 710.909 208.341 708.632 208.341 706.036C208.341 703.44 208.814 701.152 209.76 699.172C210.717 697.181 212.048 695.63 213.753 694.519C215.469 693.397 217.471 692.836 219.759 692.836C221.079 692.836 222.382 693.056 223.669 693.496C224.956 693.936 226.128 694.651 227.184 695.641C228.24 696.62 229.081 697.918 229.708 699.535C230.335 701.152 230.648 703.143 230.648 705.508V707.158H211.113V703.792H226.689C226.689 702.362 226.403 701.086 225.831 699.964C225.27 698.842 224.467 697.957 223.422 697.308C222.388 696.659 221.167 696.334 219.759 696.334C218.208 696.334 216.866 696.719 215.733 697.489C214.611 698.248 213.748 699.238 213.143 700.459C212.538 701.68 212.235 702.989 212.235 704.386V706.63C212.235 708.544 212.565 710.166 213.225 711.497C213.896 712.817 214.825 713.824 216.013 714.517C217.201 715.199 218.582 715.54 220.155 715.54C221.178 715.54 222.102 715.397 222.927 715.111C223.763 714.814 224.483 714.374 225.088 713.791C225.693 713.197 226.161 712.46 226.491 711.58L230.252 712.636C229.857 713.912 229.191 715.034 228.256 716.001C227.321 716.958 226.166 717.706 224.791 718.245C223.416 718.773 221.871 719.037 220.155 719.037Z" fill="#45556C"/>
<path d="M239.967 703.264V718.509H236.073V693.166H239.835V697.126H240.165C240.759 695.839 241.66 694.805 242.87 694.024C244.08 693.232 245.642 692.836 247.556 692.836C249.272 692.836 250.774 693.188 252.061 693.892C253.348 694.585 254.349 695.641 255.064 697.06C255.779 698.468 256.136 700.25 256.136 702.406V718.509H252.242V702.67C252.242 700.679 251.725 699.128 250.691 698.017C249.657 696.895 248.238 696.334 246.434 696.334C245.191 696.334 244.08 696.604 243.101 697.143C242.133 697.682 241.369 698.468 240.808 699.502C240.247 700.536 239.967 701.79 239.967 703.264Z" fill="#45556C"/>
<path d="M273.774 693.166V696.466H260.64V693.166H273.774ZM264.468 687.094H268.362V711.25C268.362 712.35 268.522 713.175 268.841 713.725C269.171 714.264 269.589 714.627 270.095 714.814C270.612 714.99 271.156 715.078 271.728 715.078C272.157 715.078 272.509 715.056 272.784 715.012C273.059 714.957 273.279 714.913 273.444 714.88L274.236 718.377C273.972 718.476 273.603 718.575 273.13 718.674C272.657 718.784 272.058 718.839 271.332 718.839C270.232 718.839 269.154 718.603 268.098 718.13C267.053 717.657 266.184 716.936 265.491 715.968C264.809 715.001 264.468 713.78 264.468 712.306V687.094Z" fill="#45556C"/>
<path d="M279.132 718.509V693.166H283.026V718.509H279.132ZM281.112 688.942C280.353 688.942 279.699 688.684 279.149 688.167C278.61 687.65 278.34 687.028 278.34 686.302C278.34 685.576 278.61 684.955 279.149 684.438C279.699 683.921 280.353 683.663 281.112 683.663C281.871 683.663 282.52 683.921 283.059 684.438C283.609 684.955 283.884 685.576 283.884 686.302C283.884 687.028 283.609 687.65 283.059 688.167C282.52 688.684 281.871 688.942 281.112 688.942Z" fill="#45556C"/>
<path d="M300.944 693.166V696.466H287.283V693.166H300.944ZM291.375 718.509V689.668C291.375 688.216 291.716 687.006 292.398 686.038C293.08 685.07 293.965 684.345 295.054 683.861C296.143 683.377 297.293 683.135 298.503 683.135C299.46 683.135 300.24 683.212 300.845 683.366C301.45 683.52 301.901 683.663 302.198 683.795L301.076 687.16C300.878 687.094 300.603 687.012 300.251 686.913C299.91 686.814 299.46 686.764 298.899 686.764C297.612 686.764 296.682 687.089 296.11 687.738C295.549 688.387 295.269 689.338 295.269 690.592V718.509H291.375Z" fill="#45556C"/>
<path d="M308.41 728.013C307.75 728.013 307.162 727.958 306.645 727.848C306.128 727.749 305.771 727.65 305.573 727.551L306.563 724.119C307.508 724.361 308.344 724.449 309.07 724.383C309.796 724.317 310.44 723.993 311.001 723.41C311.573 722.838 312.095 721.908 312.568 720.621L313.294 718.641L303.923 693.166H308.146L315.142 713.362H315.406L322.402 693.166H326.626L315.868 722.205C315.384 723.514 314.785 724.598 314.07 725.456C313.355 726.325 312.524 726.968 311.578 727.386C310.643 727.804 309.587 728.013 308.41 728.013Z" fill="#45556C"/>
<path d="M347.729 703.264V718.509H343.835V684.718H347.729V697.126H348.059C348.653 695.817 349.544 694.778 350.732 694.008C351.931 693.227 353.526 692.836 355.516 692.836C357.243 692.836 358.756 693.183 360.054 693.876C361.352 694.558 362.358 695.608 363.073 697.027C363.799 698.435 364.162 700.228 364.162 702.406V718.509H360.268V702.67C360.268 700.657 359.746 699.101 358.701 698.001C357.667 696.89 356.231 696.334 354.394 696.334C353.119 696.334 351.975 696.604 350.963 697.143C349.962 697.682 349.17 698.468 348.587 699.502C348.015 700.536 347.729 701.79 347.729 703.264Z" fill="#45556C"/>
<path d="M370.787 718.509V693.166H374.681V718.509H370.787ZM372.767 688.942C372.008 688.942 371.353 688.684 370.803 688.167C370.264 687.65 369.995 687.028 369.995 686.302C369.995 685.576 370.264 684.955 370.803 684.438C371.353 683.921 372.008 683.663 372.767 683.663C373.526 683.663 374.175 683.921 374.714 684.438C375.264 684.955 375.539 685.576 375.539 686.302C375.539 687.028 375.264 687.65 374.714 688.167C374.175 688.684 373.526 688.942 372.767 688.942Z" fill="#45556C"/>
<path d="M391.543 728.541C389.662 728.541 388.045 728.299 386.692 727.815C385.339 727.342 384.212 726.715 383.31 725.934C382.419 725.164 381.709 724.339 381.181 723.459L384.283 721.281C384.635 721.743 385.081 722.271 385.62 722.865C386.159 723.47 386.896 723.993 387.831 724.433C388.777 724.884 390.014 725.109 391.543 725.109C393.589 725.109 395.277 724.614 396.608 723.624C397.939 722.634 398.605 721.083 398.605 718.971V713.824H398.275C397.989 714.286 397.582 714.858 397.054 715.54C396.537 716.21 395.789 716.81 394.81 717.338C393.842 717.855 392.533 718.113 390.883 718.113C388.837 718.113 387 717.629 385.372 716.661C383.755 715.693 382.474 714.286 381.528 712.438C380.593 710.59 380.125 708.346 380.125 705.706C380.125 703.11 380.582 700.849 381.495 698.925C382.408 696.989 383.678 695.493 385.306 694.437C386.934 693.37 388.815 692.836 390.949 692.836C392.599 692.836 393.908 693.111 394.876 693.661C395.855 694.2 396.603 694.816 397.12 695.509C397.648 696.191 398.055 696.752 398.341 697.192H398.737V693.166H402.499V719.235C402.499 721.413 402.004 723.184 401.014 724.548C400.035 725.923 398.715 726.93 397.054 727.568C395.404 728.217 393.567 728.541 391.543 728.541ZM391.411 714.616C392.973 714.616 394.293 714.258 395.371 713.543C396.449 712.828 397.268 711.8 397.829 710.458C398.39 709.116 398.671 707.51 398.671 705.64C398.671 703.814 398.396 702.202 397.846 700.805C397.296 699.409 396.482 698.314 395.404 697.522C394.326 696.73 392.995 696.334 391.411 696.334C389.761 696.334 388.386 696.752 387.286 697.588C386.197 698.424 385.378 699.546 384.828 700.954C384.289 702.362 384.019 703.924 384.019 705.64C384.019 707.4 384.294 708.956 384.844 710.309C385.405 711.651 386.23 712.707 387.319 713.477C388.419 714.236 389.783 714.616 391.411 714.616Z" fill="#45556C"/>
<path d="M413.021 703.264V718.509H409.127V684.718H413.021V697.126H413.351C413.945 695.817 414.836 694.778 416.024 694.008C417.223 693.227 418.818 692.836 420.809 692.836C422.536 692.836 424.048 693.183 425.346 693.876C426.644 694.558 427.651 695.608 428.366 697.027C429.092 698.435 429.455 700.228 429.455 702.406V718.509H425.561V702.67C425.561 700.657 425.038 699.101 423.993 698.001C422.959 696.89 421.524 696.334 419.687 696.334C418.411 696.334 417.267 696.604 416.255 697.143C415.254 697.682 414.462 698.468 413.879 699.502C413.307 700.536 413.021 701.79 413.021 703.264Z" fill="#45556C"/>
<path d="M450.599 702.208V705.838H435.815V702.208H450.599Z" fill="#45556C"/>
<path d="M456.951 718.509V693.166H460.845V718.509H456.951ZM458.931 688.942C458.172 688.942 457.518 688.684 456.968 688.167C456.429 687.65 456.159 687.028 456.159 686.302C456.159 685.576 456.429 684.955 456.968 684.438C457.518 683.921 458.172 683.663 458.931 683.663C459.69 683.663 460.339 683.921 460.878 684.438C461.428 684.955 461.703 685.576 461.703 686.302C461.703 687.028 461.428 687.65 460.878 688.167C460.339 688.684 459.69 688.942 458.931 688.942Z" fill="#45556C"/>
<path d="M467.478 718.509V693.166H471.24V697.126H471.57C472.098 695.773 472.95 694.723 474.127 693.975C475.304 693.216 476.717 692.836 478.367 692.836C480.039 692.836 481.431 693.216 482.542 693.975C483.664 694.723 484.538 695.773 485.165 697.126H485.429C486.078 695.817 487.052 694.778 488.35 694.008C489.647 693.227 491.204 692.836 493.019 692.836C495.285 692.836 497.138 693.546 498.579 694.965C500.02 696.373 500.741 698.567 500.741 701.548V718.509H496.847V701.548C496.847 699.678 496.335 698.342 495.312 697.539C494.289 696.736 493.085 696.334 491.699 696.334C489.917 696.334 488.537 696.873 487.558 697.951C486.579 699.018 486.089 700.371 486.089 702.01V718.509H482.129V701.152C482.129 699.711 481.662 698.551 480.727 697.671C479.792 696.78 478.587 696.334 477.113 696.334C476.101 696.334 475.155 696.604 474.275 697.143C473.407 697.682 472.703 698.43 472.164 699.387C471.636 700.332 471.372 701.427 471.372 702.67V718.509H467.478Z" fill="#45556C"/>
<path d="M507.361 728.013V693.166H511.123V697.192H511.585C511.871 696.752 512.267 696.191 512.773 695.509C513.29 694.816 514.027 694.2 514.984 693.661C515.952 693.111 517.261 692.836 518.911 692.836C521.045 692.836 522.926 693.37 524.553 694.437C526.181 695.504 527.452 697.016 528.365 698.974C529.278 700.932 529.734 703.242 529.734 705.904C529.734 708.588 529.278 710.914 528.365 712.883C527.452 714.841 526.187 716.359 524.57 717.437C522.953 718.504 521.089 719.037 518.977 719.037C517.349 719.037 516.045 718.768 515.066 718.229C514.087 717.679 513.334 717.057 512.806 716.364C512.278 715.66 511.871 715.078 511.585 714.616H511.255V728.013H507.361ZM511.189 705.838C511.189 707.752 511.469 709.44 512.03 710.903C512.591 712.355 513.411 713.494 514.489 714.319C515.567 715.133 516.887 715.54 518.449 715.54C520.077 715.54 521.435 715.111 522.524 714.253C523.624 713.384 524.449 712.218 524.999 710.755C525.56 709.281 525.84 707.642 525.84 705.838C525.84 704.056 525.565 702.45 525.015 701.02C524.476 699.579 523.657 698.441 522.557 697.605C521.468 696.758 520.099 696.334 518.449 696.334C516.865 696.334 515.534 696.736 514.456 697.539C513.378 698.331 512.564 699.442 512.014 700.871C511.464 702.29 511.189 703.946 511.189 705.838Z" fill="#45556C"/>
<path d="M542.633 719.103C541.027 719.103 539.569 718.801 538.26 718.196C536.951 717.58 535.912 716.694 535.142 715.54C534.372 714.374 533.987 712.966 533.987 711.316C533.987 709.864 534.273 708.687 534.845 707.785C535.417 706.872 536.182 706.157 537.138 705.64C538.095 705.123 539.151 704.738 540.306 704.485C541.472 704.221 542.644 704.012 543.821 703.858C545.361 703.66 546.609 703.511 547.566 703.412C548.534 703.302 549.238 703.121 549.678 702.868C550.129 702.615 550.355 702.175 550.355 701.548V701.416C550.355 699.788 549.909 698.523 549.018 697.621C548.138 696.719 546.802 696.268 545.009 696.268C543.15 696.268 541.692 696.675 540.636 697.489C539.58 698.303 538.838 699.172 538.409 700.096L534.713 698.776C535.373 697.236 536.253 696.037 537.353 695.179C538.464 694.31 539.674 693.705 540.983 693.364C542.303 693.012 543.601 692.836 544.877 692.836C545.691 692.836 546.626 692.935 547.682 693.133C548.749 693.32 549.777 693.711 550.767 694.305C551.768 694.899 552.598 695.795 553.258 696.994C553.918 698.193 554.248 699.799 554.248 701.812V718.509H550.355V715.078H550.157C549.893 715.627 549.453 716.216 548.837 716.843C548.221 717.47 547.401 718.003 546.378 718.443C545.355 718.883 544.107 719.103 542.633 719.103ZM543.227 715.605C544.767 715.605 546.065 715.303 547.121 714.698C548.188 714.093 548.991 713.312 549.53 712.355C550.08 711.398 550.355 710.392 550.355 709.336V705.772C550.19 705.97 549.827 706.151 549.266 706.316C548.716 706.47 548.078 706.608 547.352 706.729C546.637 706.839 545.938 706.938 545.256 707.026C544.585 707.103 544.041 707.169 543.623 707.224C542.611 707.356 541.665 707.57 540.785 707.867C539.916 708.153 539.212 708.588 538.673 709.171C538.145 709.743 537.881 710.524 537.881 711.514C537.881 712.867 538.381 713.89 539.382 714.583C540.394 715.265 541.676 715.605 543.227 715.605Z" fill="#45556C"/>
<path d="M571.152 719.037C568.776 719.037 566.73 718.476 565.014 717.354C563.298 716.232 561.978 714.687 561.054 712.718C560.13 710.749 559.669 708.5 559.669 705.97C559.669 703.396 560.141 701.124 561.087 699.156C562.044 697.176 563.375 695.63 565.08 694.519C566.796 693.397 568.798 692.836 571.086 692.836C572.868 692.836 574.474 693.166 575.904 693.826C577.334 694.486 578.505 695.41 579.418 696.598C580.331 697.786 580.898 699.172 581.118 700.756H577.224C576.927 699.601 576.267 698.578 575.244 697.687C574.232 696.785 572.868 696.334 571.152 696.334C569.634 696.334 568.303 696.73 567.159 697.522C566.026 698.303 565.141 699.409 564.503 700.838C563.876 702.257 563.562 703.924 563.562 705.838C563.562 707.796 563.87 709.501 564.486 710.953C565.113 712.405 565.993 713.532 567.126 714.335C568.27 715.138 569.612 715.54 571.152 715.54C572.164 715.54 573.083 715.364 573.908 715.012C574.733 714.66 575.431 714.154 576.003 713.494C576.575 712.834 576.982 712.042 577.224 711.118H581.118C580.898 712.614 580.353 713.961 579.484 715.16C578.626 716.348 577.488 717.294 576.069 717.998C574.661 718.691 573.022 719.037 571.152 719.037Z" fill="#45556C"/>
<path d="M597.333 693.166V696.466H584.199V693.166H597.333ZM588.027 687.094H591.921V711.25C591.921 712.35 592.08 713.175 592.399 713.725C592.729 714.264 593.147 714.627 593.653 714.814C594.17 714.99 594.715 715.078 595.287 715.078C595.716 715.078 596.068 715.056 596.343 715.012C596.618 714.957 596.838 714.913 597.003 714.88L597.795 718.377C597.531 718.476 597.162 718.575 596.689 718.674C596.216 718.784 595.617 718.839 594.891 718.839C593.791 718.839 592.713 718.603 591.657 718.13C590.612 717.657 589.743 716.936 589.05 715.968C588.368 715.001 588.027 713.78 588.027 712.306V687.094Z" fill="#45556C"/>
<path d="M617.173 718.509H612.883L625.291 684.718H629.515L641.922 718.509H637.633L627.535 690.064H627.271L617.173 718.509ZM618.757 705.31H636.049V708.94H618.757V705.31Z" fill="#45556C"/>
<path d="M650.779 684.718V718.509H646.687V684.718H650.779Z" fill="#45556C"/>
<path d="M125.04 785.412C122.752 785.412 120.744 784.868 119.017 783.779C117.301 782.69 115.959 781.167 114.991 779.209C114.034 777.251 113.556 774.963 113.556 772.345C113.556 769.705 114.034 767.4 114.991 765.432C115.959 763.463 117.301 761.934 119.017 760.845C120.744 759.756 122.752 759.211 125.04 759.211C127.327 759.211 129.329 759.756 131.045 760.845C132.772 761.934 134.114 763.463 135.071 765.432C136.039 767.4 136.523 769.705 136.523 772.345C136.523 774.963 136.039 777.251 135.071 779.209C134.114 781.167 132.772 782.69 131.045 783.779C129.329 784.868 127.327 785.412 125.04 785.412ZM125.04 781.915C126.777 781.915 128.207 781.469 129.329 780.578C130.451 779.687 131.282 778.516 131.821 777.064C132.36 775.612 132.629 774.039 132.629 772.345C132.629 770.651 132.36 769.072 131.821 767.609C131.282 766.147 130.451 764.964 129.329 764.062C128.207 763.16 126.777 762.709 125.04 762.709C123.302 762.709 121.872 763.16 120.75 764.062C119.628 764.964 118.797 766.147 118.258 767.609C117.719 769.072 117.45 770.651 117.45 772.345C117.45 774.039 117.719 775.612 118.258 777.064C118.797 778.516 119.628 779.687 120.75 780.578C121.872 781.469 123.302 781.915 125.04 781.915Z" fill="#45556C"/>
<path d="M141.968 794.388V759.541H145.73V763.567H146.192C146.478 763.127 146.874 762.566 147.38 761.884C147.897 761.191 148.634 760.575 149.591 760.036C150.559 759.486 151.868 759.211 153.518 759.211C155.652 759.211 157.532 759.745 159.16 760.812C160.788 761.879 162.059 763.391 162.972 765.349C163.885 767.307 164.341 769.617 164.341 772.279C164.341 774.963 163.885 777.289 162.972 779.258C162.059 781.216 160.794 782.734 159.177 783.812C157.56 784.879 155.696 785.412 153.584 785.412C151.956 785.412 150.652 785.143 149.673 784.604C148.694 784.054 147.941 783.432 147.413 782.739C146.885 782.036 146.478 781.453 146.192 780.991H145.862V794.388H141.968ZM145.796 772.213C145.796 774.127 146.076 775.815 146.637 777.278C147.198 778.73 148.018 779.869 149.096 780.694C150.174 781.508 151.494 781.915 153.056 781.915C154.684 781.915 156.042 781.486 157.131 780.628C158.231 779.759 159.056 778.593 159.606 777.13C160.167 775.656 160.447 774.017 160.447 772.213C160.447 770.431 160.172 768.825 159.622 767.395C159.083 765.954 158.264 764.816 157.164 763.98C156.075 763.133 154.706 762.709 153.056 762.709C151.472 762.709 150.141 763.111 149.063 763.914C147.985 764.706 147.171 765.817 146.621 767.246C146.071 768.665 145.796 770.321 145.796 772.213Z" fill="#45556C"/>
<path d="M169.782 794.388V759.541H173.544V763.567H174.006C174.292 763.127 174.688 762.566 175.194 761.884C175.711 761.191 176.448 760.575 177.405 760.036C178.373 759.486 179.682 759.211 181.332 759.211C183.465 759.211 185.346 759.745 186.974 760.812C188.602 761.879 189.873 763.391 190.786 765.349C191.699 767.307 192.155 769.617 192.155 772.279C192.155 774.963 191.699 777.289 190.786 779.258C189.873 781.216 188.608 782.734 186.991 783.812C185.374 784.879 183.509 785.412 181.398 785.412C179.77 785.412 178.466 785.143 177.487 784.604C176.508 784.054 175.755 783.432 175.227 782.739C174.699 782.036 174.292 781.453 174.006 780.991H173.676V794.388H169.782ZM173.61 772.213C173.61 774.127 173.89 775.815 174.451 777.278C175.012 778.73 175.832 779.869 176.91 780.694C177.988 781.508 179.308 781.915 180.87 781.915C182.498 781.915 183.856 781.486 184.945 780.628C186.045 779.759 186.87 778.593 187.42 777.13C187.981 775.656 188.261 774.017 188.261 772.213C188.261 770.431 187.986 768.825 187.436 767.395C186.897 765.954 186.078 764.816 184.978 763.98C183.889 763.133 182.52 762.709 180.87 762.709C179.286 762.709 177.955 763.111 176.877 763.914C175.799 764.706 174.985 765.817 174.435 767.246C173.885 768.665 173.61 770.321 173.61 772.213Z" fill="#45556C"/>
<path d="M207.892 785.412C205.604 785.412 203.596 784.868 201.869 783.779C200.153 782.69 198.811 781.167 197.843 779.209C196.886 777.251 196.408 774.963 196.408 772.345C196.408 769.705 196.886 767.4 197.843 765.432C198.811 763.463 200.153 761.934 201.869 760.845C203.596 759.756 205.604 759.211 207.892 759.211C210.18 759.211 212.181 759.756 213.897 760.845C215.624 761.934 216.966 763.463 217.923 765.432C218.891 767.4 219.375 769.705 219.375 772.345C219.375 774.963 218.891 777.251 217.923 779.209C216.966 781.167 215.624 782.69 213.897 783.779C212.181 784.868 210.18 785.412 207.892 785.412ZM207.892 781.915C209.63 781.915 211.059 781.469 212.181 780.578C213.303 779.687 214.134 778.516 214.673 777.064C215.212 775.612 215.481 774.039 215.481 772.345C215.481 770.651 215.212 769.072 214.673 767.609C214.134 766.147 213.303 764.964 212.181 764.062C211.059 763.16 209.63 762.709 207.892 762.709C206.154 762.709 204.724 763.16 203.602 764.062C202.48 764.964 201.649 766.147 201.11 767.609C200.571 769.072 200.302 770.651 200.302 772.345C200.302 774.039 200.571 775.612 201.11 777.064C201.649 778.516 202.48 779.687 203.602 780.578C204.724 781.469 206.154 781.915 207.892 781.915Z" fill="#45556C"/>
<path d="M224.82 784.884V759.541H228.582V763.369H228.846C229.308 762.115 230.144 761.098 231.354 760.317C232.564 759.536 233.928 759.145 235.446 759.145C235.732 759.145 236.089 759.151 236.518 759.162C236.947 759.173 237.272 759.189 237.492 759.211V763.171C237.36 763.138 237.057 763.089 236.584 763.023C236.122 762.946 235.633 762.907 235.116 762.907C233.884 762.907 232.784 763.166 231.816 763.683C230.859 764.189 230.1 764.893 229.539 765.795C228.989 766.685 228.714 767.703 228.714 768.847V784.884H224.82Z" fill="#45556C"/>
<path d="M254.218 759.541V762.841H241.084V759.541H254.218ZM244.912 753.469H248.806V777.625C248.806 778.725 248.966 779.55 249.285 780.1C249.615 780.639 250.033 781.002 250.539 781.189C251.056 781.365 251.6 781.453 252.172 781.453C252.601 781.453 252.953 781.431 253.228 781.387C253.503 781.332 253.723 781.288 253.888 781.255L254.68 784.752C254.416 784.851 254.047 784.95 253.574 785.049C253.102 785.159 252.502 785.214 251.776 785.214C250.676 785.214 249.598 784.978 248.542 784.505C247.497 784.032 246.628 783.311 245.935 782.343C245.253 781.376 244.912 780.155 244.912 778.681V753.469Z" fill="#45556C"/>
<path d="M275.548 774.523V759.541H279.442V784.884H275.548V780.595H275.284C274.69 781.882 273.766 782.976 272.512 783.878C271.258 784.769 269.674 785.214 267.76 785.214C266.176 785.214 264.768 784.868 263.536 784.175C262.304 783.471 261.336 782.415 260.632 781.007C259.928 779.588 259.576 777.801 259.576 775.645V759.541H263.47V775.381C263.47 777.229 263.987 778.703 265.021 779.803C266.066 780.903 267.397 781.453 269.014 781.453C269.982 781.453 270.966 781.205 271.967 780.71C272.979 780.215 273.826 779.456 274.508 778.433C275.201 777.41 275.548 776.107 275.548 774.523Z" fill="#45556C"/>
<path d="M289.968 769.639V784.884H286.074V759.541H289.836V763.501H290.166C290.76 762.214 291.662 761.18 292.872 760.399C294.082 759.607 295.644 759.211 297.558 759.211C299.274 759.211 300.775 759.563 302.062 760.267C303.349 760.96 304.35 762.016 305.065 763.435C305.78 764.843 306.138 766.625 306.138 768.781V784.884H302.244V769.045C302.244 767.054 301.727 765.503 300.693 764.392C299.659 763.27 298.24 762.709 296.436 762.709C295.193 762.709 294.082 762.979 293.103 763.518C292.135 764.057 291.371 764.843 290.81 765.877C290.249 766.911 289.968 768.165 289.968 769.639Z" fill="#45556C"/>
<path d="M312.754 784.884V759.541H316.648V784.884H312.754ZM314.734 755.317C313.975 755.317 313.32 755.059 312.77 754.542C312.231 754.025 311.962 753.403 311.962 752.677C311.962 751.951 312.231 751.33 312.77 750.813C313.32 750.296 313.975 750.038 314.734 750.038C315.493 750.038 316.142 750.296 316.681 750.813C317.231 751.33 317.506 751.951 317.506 752.677C317.506 753.403 317.231 754.025 316.681 754.542C316.142 755.059 315.493 755.317 314.734 755.317Z" fill="#45556C"/>
<path d="M334.302 759.541V762.841H321.169V759.541H334.302ZM324.997 753.469H328.89V777.625C328.89 778.725 329.05 779.55 329.369 780.1C329.699 780.639 330.117 781.002 330.623 781.189C331.14 781.365 331.684 781.453 332.256 781.453C332.685 781.453 333.037 781.431 333.312 781.387C333.587 781.332 333.807 781.288 333.972 781.255L334.764 784.752C334.5 784.851 334.132 784.95 333.659 785.049C333.186 785.159 332.586 785.214 331.86 785.214C330.76 785.214 329.682 784.978 328.626 784.505C327.581 784.032 326.713 783.311 326.02 782.343C325.338 781.376 324.997 780.155 324.997 778.681V753.469Z" fill="#45556C"/>
<path d="M339.66 784.884V759.541H343.554V784.884H339.66ZM341.64 755.317C340.881 755.317 340.227 755.059 339.677 754.542C339.138 754.025 338.868 753.403 338.868 752.677C338.868 751.951 339.138 751.33 339.677 750.813C340.227 750.296 340.881 750.038 341.64 750.038C342.399 750.038 343.048 750.296 343.587 750.813C344.137 751.33 344.412 751.951 344.412 752.677C344.412 753.403 344.137 754.025 343.587 754.542C343.048 755.059 342.399 755.317 341.64 755.317Z" fill="#45556C"/>
<path d="M360.813 785.412C358.371 785.412 356.264 784.873 354.493 783.795C352.734 782.706 351.375 781.189 350.418 779.242C349.472 777.284 348.999 775.007 348.999 772.411C348.999 769.815 349.472 767.527 350.418 765.547C351.375 763.556 352.706 762.005 354.411 760.894C356.127 759.772 358.129 759.211 360.417 759.211C361.737 759.211 363.04 759.431 364.327 759.871C365.614 760.311 366.786 761.026 367.842 762.016C368.898 762.995 369.739 764.293 370.366 765.91C370.993 767.527 371.306 769.518 371.306 771.883V773.533H351.771V770.167H367.347C367.347 768.737 367.061 767.461 366.489 766.339C365.928 765.217 365.125 764.332 364.08 763.683C363.046 763.034 361.825 762.709 360.417 762.709C358.866 762.709 357.524 763.094 356.391 763.864C355.269 764.623 354.405 765.613 353.801 766.834C353.196 768.055 352.893 769.364 352.893 770.761V773.005C352.893 774.919 353.223 776.541 353.883 777.872C354.554 779.192 355.483 780.199 356.671 780.892C357.859 781.574 359.24 781.915 360.813 781.915C361.836 781.915 362.76 781.771 363.585 781.486C364.421 781.189 365.141 780.749 365.746 780.166C366.351 779.572 366.819 778.835 367.149 777.955L370.91 779.011C370.514 780.287 369.849 781.409 368.914 782.376C367.979 783.333 366.824 784.081 365.449 784.62C364.074 785.148 362.529 785.412 360.813 785.412Z" fill="#45556C"/>
<path d="M394.682 765.217L391.184 766.207C390.964 765.624 390.64 765.058 390.211 764.508C389.793 763.947 389.221 763.485 388.495 763.122C387.769 762.759 386.839 762.577 385.706 762.577C384.155 762.577 382.863 762.935 381.829 763.65C380.806 764.354 380.295 765.25 380.295 766.339C380.295 767.307 380.647 768.071 381.35 768.632C382.054 769.193 383.154 769.661 384.65 770.035L388.412 770.959C390.678 771.509 392.367 772.35 393.478 773.483C394.589 774.605 395.144 776.052 395.144 777.823C395.144 779.275 394.726 780.573 393.89 781.717C393.065 782.86 391.91 783.762 390.425 784.422C388.94 785.082 387.213 785.412 385.244 785.412C382.659 785.412 380.52 784.851 378.826 783.729C377.132 782.607 376.06 780.969 375.609 778.813L379.305 777.889C379.657 779.253 380.322 780.276 381.301 780.958C382.291 781.64 383.583 781.98 385.178 781.98C386.993 781.98 388.434 781.596 389.501 780.826C390.579 780.045 391.118 779.11 391.118 778.021C391.118 777.141 390.81 776.404 390.194 775.81C389.578 775.205 388.632 774.754 387.356 774.457L383.132 773.467C380.812 772.917 379.107 772.064 378.018 770.909C376.94 769.743 376.401 768.286 376.401 766.537C376.401 765.107 376.802 763.842 377.605 762.742C378.419 761.642 379.525 760.779 380.922 760.152C382.329 759.525 383.924 759.211 385.706 759.211C388.214 759.211 390.183 759.761 391.613 760.861C393.054 761.961 394.077 763.413 394.682 765.217Z" fill="#45556C"/>
<path d="M403.344 785.148C402.53 785.148 401.832 784.857 401.249 784.274C400.666 783.691 400.374 782.992 400.374 782.178C400.374 781.365 400.666 780.666 401.249 780.083C401.832 779.5 402.53 779.209 403.344 779.209C404.158 779.209 404.857 779.5 405.44 780.083C406.023 780.666 406.314 781.365 406.314 782.178C406.314 782.717 406.177 783.212 405.902 783.663C405.638 784.114 405.28 784.477 404.829 784.752C404.389 785.016 403.894 785.148 403.344 785.148Z" fill="#45556C"/>
<path d="M107.859 33.1875C107.859 14.8586 122.718 0 141.047 0H180.872C199.201 0 214.059 14.8585 214.059 33.1875V73.0125C214.059 91.3414 199.201 106.2 180.872 106.2H141.047C122.718 106.2 107.859 91.3414 107.859 73.0125V33.1875Z" fill="#6DA9C6"/>
<path d="M169.086 33.7909V72.4091H162.091V40.5981H161.864L152.832 46.3682V39.957L162.43 33.7909H169.086Z" fill="white"/>
</svg>
