<svg width="985" height="910" viewBox="0 0 985 910" fill="none" xmlns="http://www.w3.org/2000/svg">
<mask id="path-1-inside-1_3424_860" fill="white">
<path d="M0 106.2C0 76.8736 23.7737 53.1 53.1 53.1H929.25C958.576 53.1 982.35 76.8737 982.35 106.2V856.238C982.35 885.564 958.576 909.338 929.25 909.338H53.1C23.7736 909.338 0 885.564 0 856.238V106.2Z"/>
</mask>
<path d="M0 106.2C0 76.8736 23.7737 53.1 53.1 53.1H929.25C958.576 53.1 982.35 76.8737 982.35 106.2V856.238C982.35 885.564 958.576 909.338 929.25 909.338H53.1C23.7736 909.338 0 885.564 0 856.238V106.2Z" fill="white"/>
<path d="M53.1 53.1V56.4188H929.25V53.1V49.7813H53.1V53.1ZM982.35 106.2H979.031V856.238H982.35H985.669V106.2H982.35ZM929.25 909.338V906.019H53.1V909.338V912.656H929.25V909.338ZM0 856.238H3.31875V106.2H0H-3.31875V856.238H0ZM53.1 909.338V906.019C25.6065 906.019 3.31875 883.731 3.31875 856.238H0H-3.31875C-3.31875 887.397 21.9407 912.656 53.1 912.656V909.338ZM982.35 856.238H979.031C979.031 883.731 956.743 906.019 929.25 906.019V909.338V912.656C960.409 912.656 985.669 887.397 985.669 856.238H982.35ZM929.25 53.1V56.4188C956.743 56.4188 979.031 78.7066 979.031 106.2H982.35H985.669C985.669 75.0408 960.409 49.7813 929.25 49.7813V53.1ZM53.1 53.1V49.7813C21.9408 49.7813 -3.31875 75.0407 -3.31875 106.2H0H3.31875C3.31875 78.7065 25.6066 56.4188 53.1 56.4188V53.1Z" fill="#E2E8F0" mask="url(#path-1-inside-1_3424_860)"/>
<path d="M109.52 235.631C109.52 209.971 130.322 189.169 155.982 189.169H222.357C248.018 189.169 268.82 209.971 268.82 235.631V302.006C268.82 327.667 248.018 348.469 222.357 348.469H155.982C130.322 348.469 109.52 327.667 109.52 302.006V235.631Z" fill="#DBEAFE"/>
<path d="M203.241 254.747L197.254 272.705C196.928 273.683 196.379 274.571 195.65 275.3C194.921 276.028 194.033 276.577 193.055 276.903L175.098 282.89L181.085 264.933C181.411 263.955 181.96 263.067 182.688 262.338C183.417 261.609 184.305 261.06 185.283 260.734L203.241 254.747Z" stroke="#6DA9C6" stroke-width="6.6375" stroke-linecap="round" stroke-linejoin="round"/>
<path d="M189.17 302.006C207.499 302.006 222.357 287.148 222.357 268.819C222.357 250.49 207.499 235.631 189.17 235.631C170.841 235.631 155.982 250.49 155.982 268.819C155.982 287.148 170.841 302.006 189.17 302.006Z" stroke="#6DA9C6" stroke-width="6.6375" stroke-linecap="round" stroke-linejoin="round"/>
<path d="M120.48 471.263H111.146L128.141 422.99H138.936L155.954 471.263H146.62L133.727 432.89H133.35L120.48 471.263ZM120.787 452.335H146.243V459.359H120.787V452.335Z" fill="#0F172B"/>
<path d="M160.445 471.263V435.058H168.718V441.092H169.095C169.755 439.002 170.886 437.392 172.489 436.26C174.108 435.113 175.954 434.539 178.028 434.539C178.5 434.539 179.026 434.563 179.607 434.61C180.205 434.642 180.7 434.697 181.092 434.775V442.624C180.731 442.498 180.157 442.388 179.372 442.294C178.602 442.184 177.855 442.129 177.133 442.129C175.577 442.129 174.178 442.467 172.937 443.143C171.711 443.803 170.745 444.722 170.038 445.901C169.331 447.079 168.977 448.438 168.977 449.978V471.263H160.445Z" fill="#0F172B"/>
<path d="M199.572 471.97C195.958 471.97 192.854 471.176 190.261 469.589C187.684 468.002 185.697 465.81 184.298 463.013C182.915 460.2 182.224 456.963 182.224 453.302C182.224 449.625 182.931 446.38 184.345 443.567C185.759 440.739 187.755 438.539 190.332 436.967C192.925 435.38 195.989 434.587 199.525 434.587C202.463 434.587 205.064 435.129 207.327 436.213C209.605 437.282 211.42 438.798 212.771 440.762C214.123 442.711 214.893 444.989 215.081 447.598H206.926C206.596 445.853 205.81 444.4 204.569 443.237C203.343 442.059 201.701 441.469 199.643 441.469C197.898 441.469 196.366 441.941 195.046 442.883C193.726 443.811 192.697 445.146 191.959 446.89C191.236 448.635 190.874 450.725 190.874 453.16C190.874 455.627 191.236 457.749 191.959 459.524C192.681 461.284 193.695 462.644 194.999 463.602C196.319 464.545 197.867 465.016 199.643 465.016C200.9 465.016 202.023 464.781 203.013 464.309C204.019 463.822 204.86 463.123 205.535 462.211C206.211 461.3 206.674 460.192 206.926 458.888H215.081C214.877 461.449 214.123 463.72 212.819 465.7C211.514 467.664 209.739 469.204 207.492 470.32C205.245 471.42 202.605 471.97 199.572 471.97Z" fill="#0F172B"/>
<path d="M229.129 450.049V471.263H220.597V422.99H228.941V441.21H229.365C230.214 439.167 231.526 437.557 233.301 436.378C235.093 435.184 237.371 434.587 240.137 434.587C242.651 434.587 244.843 435.113 246.713 436.166C248.583 437.219 250.029 438.759 251.05 440.786C252.087 442.813 252.606 445.288 252.606 448.21V471.263H244.073V449.53C244.073 447.095 243.445 445.201 242.188 443.85C240.946 442.483 239.202 441.799 236.955 441.799C235.446 441.799 234.095 442.129 232.901 442.789C231.722 443.433 230.795 444.368 230.119 445.594C229.459 446.82 229.129 448.305 229.129 450.049Z" fill="#0F172B"/>
<path d="M259.813 471.263V435.058H268.345V471.263H259.813ZM264.102 429.92C262.751 429.92 261.588 429.472 260.614 428.576C259.64 427.665 259.153 426.573 259.153 425.3C259.153 424.011 259.64 422.919 260.614 422.023C261.588 421.112 262.751 420.656 264.102 420.656C265.47 420.656 266.632 421.112 267.591 422.023C268.565 422.919 269.052 424.011 269.052 425.3C269.052 426.573 268.565 427.665 267.591 428.576C266.632 429.472 265.47 429.92 264.102 429.92Z" fill="#0F172B"/>
<path d="M293.707 435.058V441.658H272.894V435.058H293.707ZM278.033 426.384H286.565V460.373C286.565 461.52 286.738 462.4 287.084 463.013C287.445 463.61 287.917 464.019 288.498 464.239C289.079 464.459 289.724 464.568 290.431 464.568C290.965 464.568 291.452 464.529 291.892 464.451C292.348 464.372 292.694 464.301 292.929 464.239L294.367 470.909C293.911 471.066 293.259 471.239 292.411 471.428C291.578 471.616 290.557 471.726 289.347 471.758C287.21 471.82 285.285 471.498 283.572 470.791C281.859 470.068 280.5 468.953 279.494 467.444C278.504 465.936 278.017 464.05 278.033 461.787V426.384Z" fill="#0F172B"/>
<path d="M314.992 471.97C311.362 471.97 308.227 471.215 305.587 469.707C302.963 468.183 300.943 466.03 299.529 463.249C298.115 460.451 297.408 457.159 297.408 453.372C297.408 449.648 298.115 446.38 299.529 443.567C300.959 440.739 302.955 438.539 305.516 436.967C308.077 435.38 311.087 434.587 314.544 434.587C316.775 434.587 318.881 434.948 320.861 435.671C322.856 436.378 324.616 437.478 326.14 438.971C327.68 440.464 328.89 442.365 329.77 444.675C330.65 446.969 331.09 449.703 331.09 452.877V455.494H301.415V449.743H322.911C322.896 448.108 322.542 446.655 321.851 445.382C321.159 444.093 320.193 443.08 318.951 442.341C317.726 441.603 316.296 441.234 314.662 441.234C312.917 441.234 311.385 441.658 310.065 442.506C308.745 443.339 307.716 444.439 306.977 445.806C306.255 447.158 305.885 448.643 305.87 450.261V455.282C305.87 457.387 306.255 459.194 307.025 460.703C307.795 462.196 308.871 463.343 310.254 464.144C311.637 464.93 313.255 465.323 315.109 465.323C316.351 465.323 317.474 465.15 318.48 464.804C319.486 464.443 320.358 463.916 321.096 463.225C321.835 462.534 322.393 461.677 322.77 460.656L330.737 461.551C330.234 463.657 329.275 465.496 327.861 467.067C326.463 468.623 324.671 469.833 322.487 470.697C320.303 471.545 317.804 471.97 314.992 471.97Z" fill="#0F172B"/>
<path d="M352.61 471.97C348.996 471.97 345.893 471.176 343.3 469.589C340.723 468.002 338.735 465.81 337.337 463.013C335.954 460.2 335.262 456.963 335.262 453.302C335.262 449.625 335.969 446.38 337.384 443.567C338.798 440.739 340.794 438.539 343.371 436.967C345.963 435.38 349.028 434.587 352.563 434.587C355.502 434.587 358.102 435.129 360.365 436.213C362.644 437.282 364.459 438.798 365.81 440.762C367.161 442.711 367.931 444.989 368.12 447.598H359.964C359.634 445.853 358.849 444.4 357.607 443.237C356.382 442.059 354.74 441.469 352.681 441.469C350.937 441.469 349.405 441.941 348.085 442.883C346.765 443.811 345.736 445.146 344.997 446.89C344.274 448.635 343.913 450.725 343.913 453.16C343.913 455.627 344.274 457.749 344.997 459.524C345.72 461.284 346.733 462.644 348.038 463.602C349.358 464.545 350.905 465.016 352.681 465.016C353.938 465.016 355.062 464.781 356.052 464.309C357.057 463.822 357.898 463.123 358.574 462.211C359.249 461.3 359.713 460.192 359.964 458.888H368.12C367.916 461.449 367.161 463.72 365.857 465.7C364.553 467.664 362.777 469.204 360.53 470.32C358.283 471.42 355.643 471.97 352.61 471.97Z" fill="#0F172B"/>
<path d="M391.714 435.058V441.658H370.901V435.058H391.714ZM376.04 426.384H384.572V460.373C384.572 461.52 384.745 462.4 385.091 463.013C385.452 463.61 385.924 464.019 386.505 464.239C387.086 464.459 387.731 464.568 388.438 464.568C388.972 464.568 389.459 464.529 389.899 464.451C390.355 464.372 390.701 464.301 390.936 464.239L392.374 470.909C391.918 471.066 391.266 471.239 390.418 471.428C389.585 471.616 388.563 471.726 387.353 471.758C385.216 471.82 383.291 471.498 381.579 470.791C379.866 470.068 378.507 468.953 377.501 467.444C376.511 465.936 376.024 464.05 376.04 461.787V426.384Z" fill="#0F172B"/>
<path d="M119.751 585.759L110.512 551.968H114.67L121.731 579.49H122.061L129.255 551.968H133.875L141.069 579.49H141.399L148.46 551.968H152.618L143.379 585.759H139.155L131.697 558.832H131.433L123.975 585.759H119.751Z" fill="#45556C"/>
<path d="M164.956 586.287C162.514 586.287 160.407 585.748 158.637 584.67C156.877 583.581 155.518 582.064 154.561 580.117C153.615 578.159 153.142 575.882 153.142 573.286C153.142 570.69 153.615 568.402 154.561 566.422C155.518 564.431 156.849 562.88 158.554 561.769C160.27 560.647 162.272 560.086 164.56 560.086C165.88 560.086 167.183 560.306 168.47 560.746C169.757 561.186 170.929 561.901 171.985 562.891C173.041 563.87 173.882 565.168 174.509 566.785C175.136 568.402 175.449 570.393 175.449 572.758V574.408H155.914V571.042H171.49C171.49 569.612 171.204 568.336 170.632 567.214C170.071 566.092 169.268 565.207 168.223 564.558C167.189 563.909 165.968 563.584 164.56 563.584C163.009 563.584 161.667 563.969 160.534 564.739C159.412 565.498 158.549 566.488 157.944 567.709C157.339 568.93 157.036 570.239 157.036 571.636V573.88C157.036 575.794 157.366 577.416 158.026 578.747C158.697 580.067 159.627 581.074 160.814 581.767C162.002 582.448 163.383 582.789 164.956 582.789C165.979 582.789 166.903 582.646 167.728 582.36C168.564 582.064 169.284 581.624 169.889 581.041C170.494 580.447 170.962 579.71 171.292 578.83L175.054 579.886C174.658 581.162 173.992 582.283 173.057 583.251C172.122 584.208 170.967 584.956 169.592 585.495C168.217 586.023 166.672 586.287 164.956 586.287Z" fill="#45556C"/>
<path d="M203.012 586.287C200.9 586.287 199.035 585.754 197.419 584.687C195.802 583.609 194.537 582.091 193.624 580.133C192.711 578.164 192.254 575.838 192.254 573.154C192.254 570.492 192.711 568.182 193.624 566.224C194.537 564.266 195.807 562.754 197.435 561.687C199.063 560.62 200.944 560.086 203.078 560.086C204.728 560.086 206.031 560.361 206.988 560.911C207.956 561.45 208.693 562.066 209.199 562.759C209.716 563.441 210.118 564.002 210.404 564.442H210.734V551.968H214.627V585.759H210.866V581.866H210.404C210.118 582.327 209.711 582.91 209.183 583.614C208.655 584.307 207.901 584.929 206.922 585.479C205.943 586.018 204.64 586.287 203.012 586.287ZM203.54 582.789C205.102 582.789 206.422 582.382 207.5 581.569C208.578 580.744 209.397 579.605 209.958 578.153C210.519 576.69 210.8 575.002 210.8 573.088C210.8 571.196 210.525 569.54 209.975 568.121C209.425 566.691 208.611 565.581 207.533 564.789C206.455 563.986 205.124 563.584 203.54 563.584C201.89 563.584 200.515 564.008 199.415 564.855C198.326 565.691 197.507 566.829 196.957 568.27C196.418 569.7 196.148 571.306 196.148 573.088C196.148 574.892 196.423 576.531 196.973 578.005C197.534 579.468 198.359 580.634 199.448 581.503C200.548 582.36 201.912 582.789 203.54 582.789Z" fill="#45556C"/>
<path d="M232.426 586.287C229.984 586.287 227.878 585.748 226.107 584.67C224.347 583.581 222.989 582.064 222.032 580.117C221.086 578.159 220.613 575.882 220.613 573.286C220.613 570.69 221.086 568.402 222.032 566.422C222.989 564.431 224.32 562.88 226.024 561.769C227.74 560.647 229.742 560.086 232.03 560.086C233.35 560.086 234.654 560.306 235.941 560.746C237.228 561.186 238.399 561.901 239.455 562.891C240.511 563.87 241.352 565.168 241.979 566.785C242.606 568.402 242.92 570.393 242.92 572.758V574.408H223.385V571.042H238.96C238.96 569.612 238.674 568.336 238.102 567.214C237.541 566.092 236.738 565.207 235.693 564.558C234.659 563.909 233.438 563.584 232.03 563.584C230.479 563.584 229.137 563.969 228.004 564.739C226.882 565.498 226.019 566.488 225.414 567.709C224.809 568.93 224.507 570.239 224.507 571.636V573.88C224.507 575.794 224.837 577.416 225.497 578.747C226.167 580.067 227.097 581.074 228.285 581.767C229.473 582.448 230.853 582.789 232.426 582.789C233.449 582.789 234.373 582.646 235.198 582.36C236.034 582.064 236.755 581.624 237.36 581.041C237.965 580.447 238.432 579.71 238.762 578.83L242.524 579.886C242.128 581.162 241.462 582.283 240.528 583.251C239.593 584.208 238.438 584.956 237.063 585.495C235.688 586.023 234.142 586.287 232.426 586.287Z" fill="#45556C"/>
<path d="M266.296 566.092L262.798 567.082C262.578 566.499 262.253 565.933 261.824 565.383C261.406 564.822 260.834 564.36 260.108 563.997C259.382 563.634 258.453 563.452 257.32 563.452C255.769 563.452 254.476 563.81 253.442 564.525C252.42 565.229 251.908 566.125 251.908 567.214C251.908 568.182 252.26 568.946 252.964 569.507C253.668 570.068 254.768 570.536 256.264 570.91L260.026 571.834C262.292 572.384 263.98 573.225 265.091 574.358C266.202 575.48 266.758 576.927 266.758 578.698C266.758 580.15 266.34 581.448 265.504 582.591C264.679 583.735 263.524 584.637 262.039 585.297C260.554 585.957 258.827 586.287 256.858 586.287C254.273 586.287 252.134 585.726 250.44 584.604C248.746 583.482 247.673 581.844 247.222 579.688L250.918 578.764C251.27 580.128 251.936 581.151 252.914 581.833C253.904 582.514 255.197 582.855 256.792 582.855C258.607 582.855 260.048 582.47 261.115 581.701C262.193 580.92 262.732 579.985 262.732 578.896C262.732 578.016 262.424 577.279 261.808 576.685C261.192 576.08 260.246 575.629 258.97 575.332L254.746 574.342C252.425 573.792 250.72 572.939 249.631 571.784C248.553 570.618 248.014 569.161 248.014 567.412C248.014 565.982 248.416 564.717 249.219 563.617C250.033 562.517 251.138 561.654 252.535 561.027C253.943 560.4 255.538 560.086 257.32 560.086C259.828 560.086 261.797 560.636 263.227 561.736C264.668 562.836 265.691 564.288 266.296 566.092Z" fill="#45556C"/>
<path d="M272.12 585.759V560.416H276.014V585.759H272.12ZM274.1 556.192C273.341 556.192 272.686 555.934 272.136 555.417C271.597 554.9 271.328 554.278 271.328 553.552C271.328 552.826 271.597 552.205 272.136 551.688C272.686 551.171 273.341 550.913 274.1 550.913C274.859 550.913 275.508 551.171 276.047 551.688C276.597 552.205 276.872 552.826 276.872 553.552C276.872 554.278 276.597 554.9 276.047 555.417C275.508 555.934 274.859 556.192 274.1 556.192Z" fill="#45556C"/>
<path d="M292.876 595.791C290.995 595.791 289.378 595.549 288.025 595.065C286.672 594.592 285.545 593.965 284.643 593.184C283.752 592.414 283.043 591.589 282.515 590.709L285.616 588.531C285.968 588.993 286.414 589.521 286.953 590.115C287.492 590.72 288.229 591.243 289.164 591.683C290.11 592.134 291.347 592.359 292.876 592.359C294.922 592.359 296.611 591.864 297.942 590.874C299.272 589.884 299.938 588.333 299.938 586.221V581.074H299.608C299.322 581.536 298.915 582.108 298.387 582.789C297.87 583.46 297.122 584.06 296.143 584.588C295.175 585.105 293.866 585.363 292.216 585.363C290.17 585.363 288.333 584.879 286.705 583.911C285.088 582.943 283.807 581.536 282.861 579.688C281.926 577.84 281.459 575.596 281.459 572.956C281.459 570.36 281.915 568.099 282.828 566.175C283.741 564.239 285.011 562.743 286.639 561.687C288.267 560.62 290.148 560.086 292.282 560.086C293.932 560.086 295.241 560.361 296.209 560.911C297.188 561.45 297.936 562.066 298.453 562.759C298.981 563.441 299.388 564.002 299.674 564.442H300.07V560.416H303.832V586.485C303.832 588.663 303.337 590.434 302.347 591.798C301.368 593.173 300.048 594.18 298.387 594.818C296.737 595.467 294.9 595.791 292.876 595.791ZM292.744 581.866C294.306 581.866 295.626 581.508 296.704 580.793C297.782 580.078 298.602 579.05 299.163 577.708C299.723 576.366 300.004 574.76 300.004 572.89C300.004 571.064 299.729 569.452 299.179 568.055C298.629 566.658 297.815 565.564 296.737 564.772C295.659 563.98 294.328 563.584 292.744 563.584C291.094 563.584 289.719 564.002 288.619 564.838C287.53 565.674 286.711 566.796 286.161 568.204C285.622 569.612 285.352 571.174 285.352 572.89C285.352 574.65 285.627 576.206 286.177 577.559C286.738 578.901 287.563 579.957 288.652 580.727C289.752 581.486 291.116 581.866 292.744 581.866Z" fill="#45556C"/>
<path d="M314.354 570.514V585.759H310.461V560.416H314.222V564.376H314.552C315.146 563.089 316.048 562.055 317.258 561.274C318.468 560.482 320.03 560.086 321.944 560.086C323.66 560.086 325.162 560.438 326.448 561.142C327.735 561.835 328.736 562.891 329.451 564.31C330.166 565.718 330.524 567.5 330.524 569.656V585.759H326.63V569.92C326.63 567.929 326.113 566.378 325.079 565.267C324.045 564.145 322.626 563.584 320.822 563.584C319.579 563.584 318.468 563.854 317.489 564.393C316.521 564.932 315.757 565.718 315.196 566.752C314.635 567.786 314.354 569.04 314.354 570.514Z" fill="#45556C"/>
<path d="M357.166 586.353C355.56 586.353 354.103 586.051 352.794 585.446C351.485 584.83 350.446 583.944 349.676 582.789C348.906 581.624 348.521 580.216 348.521 578.566C348.521 577.114 348.807 575.937 349.379 575.035C349.951 574.122 350.715 573.407 351.672 572.89C352.629 572.373 353.685 571.988 354.84 571.735C356.006 571.471 357.177 571.262 358.354 571.108C359.894 570.91 361.143 570.761 362.1 570.662C363.068 570.552 363.772 570.371 364.212 570.118C364.663 569.865 364.888 569.425 364.888 568.798V568.666C364.888 567.038 364.443 565.773 363.552 564.871C362.672 563.969 361.335 563.518 359.542 563.518C357.683 563.518 356.226 563.925 355.17 564.739C354.114 565.553 353.371 566.422 352.943 567.346L349.247 566.026C349.907 564.486 350.787 563.287 351.887 562.429C352.998 561.56 354.207 560.955 355.516 560.614C356.836 560.262 358.134 560.086 359.41 560.086C360.224 560.086 361.159 560.185 362.215 560.383C363.282 560.57 364.311 560.961 365.301 561.555C366.302 562.149 367.132 563.045 367.792 564.244C368.452 565.443 368.782 567.049 368.782 569.062V585.759H364.888V582.327H364.69C364.426 582.877 363.986 583.466 363.37 584.093C362.754 584.72 361.935 585.253 360.912 585.693C359.889 586.133 358.64 586.353 357.166 586.353ZM357.76 582.855C359.3 582.855 360.598 582.553 361.654 581.948C362.721 581.343 363.524 580.562 364.063 579.605C364.613 578.648 364.888 577.642 364.888 576.586V573.022C364.723 573.22 364.36 573.401 363.799 573.566C363.249 573.72 362.611 573.858 361.885 573.979C361.17 574.089 360.472 574.188 359.79 574.276C359.119 574.353 358.574 574.419 358.156 574.474C357.144 574.606 356.198 574.82 355.318 575.117C354.449 575.403 353.745 575.838 353.206 576.421C352.679 576.993 352.415 577.774 352.415 578.764C352.415 580.117 352.915 581.14 353.916 581.833C354.928 582.514 356.209 582.855 357.76 582.855Z" fill="#45556C"/>
<path d="M387.958 595.263V560.416H391.72V564.442H392.182C392.468 564.002 392.864 563.441 393.37 562.759C393.887 562.066 394.624 561.45 395.581 560.911C396.549 560.361 397.858 560.086 399.508 560.086C401.642 560.086 403.523 560.62 405.151 561.687C406.779 562.754 408.049 564.266 408.962 566.224C409.875 568.182 410.332 570.492 410.332 573.154C410.332 575.838 409.875 578.164 408.962 580.133C408.049 582.091 406.784 583.609 405.167 584.687C403.55 585.754 401.686 586.287 399.574 586.287C397.946 586.287 396.643 586.018 395.664 585.479C394.685 584.929 393.931 584.307 393.403 583.614C392.875 582.91 392.468 582.327 392.182 581.866H391.852V595.263H387.958ZM391.786 573.088C391.786 575.002 392.067 576.69 392.628 578.153C393.189 579.605 394.008 580.744 395.086 581.569C396.164 582.382 397.484 582.789 399.046 582.789C400.674 582.789 402.033 582.36 403.122 581.503C404.221 580.634 405.046 579.468 405.596 578.005C406.157 576.531 406.438 574.892 406.438 573.088C406.438 571.306 406.163 569.7 405.613 568.27C405.074 566.829 404.254 565.691 403.155 564.855C402.066 564.008 400.696 563.584 399.046 563.584C397.462 563.584 396.131 563.986 395.053 564.789C393.975 565.581 393.161 566.691 392.611 568.121C392.061 569.54 391.786 571.196 391.786 573.088Z" fill="#45556C"/>
<path d="M419.666 570.514V585.759H415.772V551.968H419.666V564.376H419.996C420.59 563.067 421.481 562.028 422.669 561.258C423.868 560.477 425.463 560.086 427.454 560.086C429.181 560.086 430.694 560.433 431.991 561.126C433.289 561.808 434.296 562.858 435.011 564.277C435.737 565.685 436.1 567.478 436.1 569.656V585.759H432.206V569.92C432.206 567.907 431.683 566.351 430.639 565.251C429.605 564.14 428.169 563.584 426.332 563.584C425.056 563.584 423.912 563.854 422.9 564.393C421.899 564.932 421.107 565.718 420.524 566.752C419.952 567.786 419.666 569.04 419.666 570.514Z" fill="#45556C"/>
<path d="M450.182 586.353C448.576 586.353 447.119 586.051 445.81 585.446C444.501 584.83 443.461 583.944 442.691 582.789C441.921 581.624 441.536 580.216 441.536 578.566C441.536 577.114 441.822 575.937 442.394 575.035C442.966 574.122 443.731 573.407 444.688 572.89C445.645 572.373 446.701 571.988 447.856 571.735C449.022 571.471 450.193 571.262 451.37 571.108C452.91 570.91 454.158 570.761 455.115 570.662C456.083 570.552 456.787 570.371 457.227 570.118C457.678 569.865 457.904 569.425 457.904 568.798V568.666C457.904 567.038 457.458 565.773 456.567 564.871C455.687 563.969 454.351 563.518 452.558 563.518C450.699 563.518 449.242 563.925 448.186 564.739C447.13 565.553 446.387 566.422 445.958 567.346L442.262 566.026C442.922 564.486 443.802 563.287 444.902 562.429C446.013 561.56 447.223 560.955 448.532 560.614C449.852 560.262 451.15 560.086 452.426 560.086C453.24 560.086 454.175 560.185 455.231 560.383C456.298 560.57 457.326 560.961 458.316 561.555C459.317 562.149 460.148 563.045 460.808 564.244C461.468 565.443 461.798 567.049 461.798 569.062V585.759H457.904V582.327H457.706C457.442 582.877 457.002 583.466 456.386 584.093C455.77 584.72 454.95 585.253 453.927 585.693C452.905 586.133 451.656 586.353 450.182 586.353ZM450.776 582.855C452.316 582.855 453.614 582.553 454.67 581.948C455.737 581.343 456.54 580.562 457.079 579.605C457.629 578.648 457.904 577.642 457.904 576.586V573.022C457.739 573.22 457.376 573.401 456.815 573.566C456.265 573.72 455.627 573.858 454.901 573.979C454.186 574.089 453.488 574.188 452.806 574.276C452.135 574.353 451.59 574.419 451.172 574.474C450.16 574.606 449.214 574.82 448.334 575.117C447.465 575.403 446.761 575.838 446.222 576.421C445.694 576.993 445.43 577.774 445.43 578.764C445.43 580.117 445.931 581.14 446.932 581.833C447.944 582.514 449.225 582.855 450.776 582.855Z" fill="#45556C"/>
<path d="M486.357 566.092L482.859 567.082C482.639 566.499 482.315 565.933 481.886 565.383C481.468 564.822 480.896 564.36 480.17 563.997C479.444 563.634 478.514 563.452 477.381 563.452C475.831 563.452 474.538 563.81 473.504 564.525C472.481 565.229 471.97 566.125 471.97 567.214C471.97 568.182 472.322 568.946 473.026 569.507C473.73 570.068 474.83 570.536 476.326 570.91L480.087 571.834C482.353 572.384 484.042 573.225 485.153 574.358C486.264 575.48 486.819 576.927 486.819 578.698C486.819 580.15 486.401 581.448 485.565 582.591C484.74 583.735 483.585 584.637 482.1 585.297C480.615 585.957 478.888 586.287 476.92 586.287C474.335 586.287 472.195 585.726 470.501 584.604C468.807 583.482 467.735 581.844 467.284 579.688L470.98 578.764C471.332 580.128 471.997 581.151 472.976 581.833C473.966 582.514 475.259 582.855 476.854 582.855C478.668 582.855 480.109 582.47 481.176 581.701C482.254 580.92 482.793 579.985 482.793 578.896C482.793 578.016 482.485 577.279 481.869 576.685C481.253 576.08 480.307 575.629 479.031 575.332L474.808 574.342C472.487 573.792 470.782 572.939 469.693 571.784C468.615 570.618 468.076 569.161 468.076 567.412C468.076 565.982 468.477 564.717 469.28 563.617C470.094 562.517 471.2 561.654 472.597 561.027C474.005 560.4 475.6 560.086 477.381 560.086C479.889 560.086 481.858 560.636 483.288 561.736C484.729 562.836 485.752 564.288 486.357 566.092Z" fill="#45556C"/>
<path d="M502.807 586.287C500.365 586.287 498.259 585.748 496.488 584.67C494.728 583.581 493.369 582.064 492.412 580.117C491.467 578.159 490.994 575.882 490.994 573.286C490.994 570.69 491.467 568.402 492.412 566.422C493.369 564.431 494.7 562.88 496.405 561.769C498.121 560.647 500.123 560.086 502.411 560.086C503.731 560.086 505.035 560.306 506.322 560.746C507.609 561.186 508.78 561.901 509.836 562.891C510.892 563.87 511.733 565.168 512.36 566.785C512.987 568.402 513.301 570.393 513.301 572.758V574.408H493.765V571.042H509.341C509.341 569.612 509.055 568.336 508.483 567.214C507.922 566.092 507.119 565.207 506.074 564.558C505.04 563.909 503.819 563.584 502.411 563.584C500.86 563.584 499.518 563.969 498.385 564.739C497.263 565.498 496.4 566.488 495.795 567.709C495.19 568.93 494.887 570.239 494.887 571.636V573.88C494.887 575.794 495.217 577.416 495.877 578.747C496.548 580.067 497.478 581.074 498.666 581.767C499.854 582.448 501.234 582.789 502.807 582.789C503.83 582.789 504.754 582.646 505.579 582.36C506.415 582.064 507.136 581.624 507.74 581.041C508.345 580.447 508.813 579.71 509.143 578.83L512.905 579.886C512.509 581.162 511.843 582.283 510.908 583.251C509.973 584.208 508.818 584.956 507.444 585.495C506.069 586.023 504.523 586.287 502.807 586.287Z" fill="#45556C"/>
<path d="M528.295 586.287C526.183 586.287 524.318 585.754 522.701 584.687C521.084 583.609 519.819 582.091 518.907 580.133C517.994 578.164 517.537 575.838 517.537 573.154C517.537 570.492 517.994 568.182 518.907 566.224C519.819 564.266 521.09 562.754 522.718 561.687C524.346 560.62 526.227 560.086 528.361 560.086C530.011 560.086 531.314 560.361 532.271 560.911C533.239 561.45 533.976 562.066 534.482 562.759C534.999 563.441 535.401 564.002 535.686 564.442H536.016V551.968H539.91V585.759H536.148V581.866H535.686C535.401 582.327 534.993 582.91 534.466 583.614C533.938 584.307 533.184 584.929 532.205 585.479C531.226 586.018 529.923 586.287 528.295 586.287ZM528.823 582.789C530.385 582.789 531.705 582.382 532.783 581.569C533.861 580.744 534.68 579.605 535.241 578.153C535.802 576.69 536.082 575.002 536.082 573.088C536.082 571.196 535.807 569.54 535.257 568.121C534.708 566.691 533.894 565.581 532.816 564.789C531.738 563.986 530.407 563.584 528.823 563.584C527.173 563.584 525.798 564.008 524.698 564.855C523.609 565.691 522.789 566.829 522.239 568.27C521.7 569.7 521.431 571.306 521.431 573.088C521.431 574.892 521.706 576.531 522.256 578.005C522.817 579.468 523.642 580.634 524.731 581.503C525.831 582.36 527.195 582.789 528.823 582.789Z" fill="#45556C"/>
<path d="M559.652 585.759V560.416H563.414V564.244H563.678C564.14 562.99 564.976 561.973 566.186 561.192C567.396 560.411 568.76 560.02 570.278 560.02C570.564 560.02 570.921 560.026 571.35 560.037C571.779 560.048 572.104 560.064 572.324 560.086V564.046C572.192 564.013 571.889 563.964 571.416 563.898C570.954 563.821 570.465 563.782 569.948 563.782C568.716 563.782 567.616 564.041 566.648 564.558C565.691 565.064 564.932 565.768 564.371 566.669C563.821 567.56 563.546 568.578 563.546 569.722V585.759H559.652Z" fill="#45556C"/>
<path d="M585.964 586.287C583.677 586.287 581.669 585.743 579.942 584.654C578.226 583.565 576.884 582.042 575.916 580.084C574.959 578.126 574.481 575.838 574.481 573.22C574.481 570.58 574.959 568.275 575.916 566.307C576.884 564.338 578.226 562.809 579.942 561.72C581.669 560.631 583.677 560.086 585.964 560.086C588.252 560.086 590.254 560.631 591.97 561.72C593.697 562.809 595.039 564.338 595.996 566.307C596.964 568.275 597.448 570.58 597.448 573.22C597.448 575.838 596.964 578.126 595.996 580.084C595.039 582.042 593.697 583.565 591.97 584.654C590.254 585.743 588.252 586.287 585.964 586.287ZM585.964 582.789C587.702 582.789 589.132 582.344 590.254 581.453C591.376 580.562 592.207 579.391 592.746 577.939C593.285 576.487 593.554 574.914 593.554 573.22C593.554 571.526 593.285 569.947 592.746 568.484C592.207 567.021 591.376 565.839 590.254 564.937C589.132 564.035 587.702 563.584 585.964 563.584C584.227 563.584 582.797 564.035 581.675 564.937C580.553 565.839 579.722 567.021 579.183 568.484C578.644 569.947 578.375 571.526 578.375 573.22C578.375 574.914 578.644 576.487 579.183 577.939C579.722 579.391 580.553 580.562 581.675 581.453C582.797 582.344 584.227 582.789 585.964 582.789Z" fill="#45556C"/>
<path d="M610.351 586.353C608.745 586.353 607.287 586.051 605.978 585.446C604.669 584.83 603.63 583.944 602.86 582.789C602.09 581.624 601.705 580.216 601.705 578.566C601.705 577.114 601.991 575.937 602.563 575.035C603.135 574.122 603.899 573.407 604.856 572.89C605.813 572.373 606.869 571.988 608.024 571.735C609.19 571.471 610.362 571.262 611.539 571.108C613.079 570.91 614.327 570.761 615.284 570.662C616.252 570.552 616.956 570.371 617.396 570.118C617.847 569.865 618.072 569.425 618.072 568.798V568.666C618.072 567.038 617.627 565.773 616.736 564.871C615.856 563.969 614.52 563.518 612.727 563.518C610.868 563.518 609.41 563.925 608.354 564.739C607.298 565.553 606.556 566.422 606.127 567.346L602.431 566.026C603.091 564.486 603.971 563.287 605.071 562.429C606.182 561.56 607.392 560.955 608.701 560.614C610.021 560.262 611.319 560.086 612.595 560.086C613.409 560.086 614.344 560.185 615.4 560.383C616.467 560.57 617.495 560.961 618.485 561.555C619.486 562.149 620.316 563.045 620.976 564.244C621.636 565.443 621.966 567.049 621.966 569.062V585.759H618.072V582.327H617.874C617.61 582.877 617.17 583.466 616.554 584.093C615.939 584.72 615.119 585.253 614.096 585.693C613.073 586.133 611.825 586.353 610.351 586.353ZM610.945 582.855C612.485 582.855 613.783 582.553 614.839 581.948C615.906 581.343 616.708 580.562 617.247 579.605C617.797 578.648 618.072 577.642 618.072 576.586V573.022C617.907 573.22 617.544 573.401 616.983 573.566C616.433 573.72 615.795 573.858 615.07 573.979C614.355 574.089 613.656 574.188 612.974 574.276C612.303 574.353 611.759 574.419 611.341 574.474C610.329 574.606 609.383 574.82 608.503 575.117C607.634 575.403 606.93 575.838 606.391 576.421C605.863 576.993 605.599 577.774 605.599 578.764C605.599 580.117 606.099 581.14 607.1 581.833C608.112 582.514 609.394 582.855 610.945 582.855Z" fill="#45556C"/>
<path d="M638.144 586.287C636.032 586.287 634.168 585.754 632.551 584.687C630.934 583.609 629.669 582.091 628.756 580.133C627.843 578.164 627.386 575.838 627.386 573.154C627.386 570.492 627.843 568.182 628.756 566.224C629.669 564.266 630.939 562.754 632.567 561.687C634.195 560.62 636.076 560.086 638.21 560.086C639.86 560.086 641.163 560.361 642.12 560.911C643.088 561.45 643.825 562.066 644.331 562.759C644.848 563.441 645.25 564.002 645.536 564.442H645.866V551.968H649.76V585.759H645.998V581.866H645.536C645.25 582.327 644.843 582.91 644.315 583.614C643.787 584.307 643.033 584.929 642.054 585.479C641.075 586.018 639.772 586.287 638.144 586.287ZM638.672 582.789C640.234 582.789 641.554 582.382 642.632 581.569C643.71 580.744 644.529 579.605 645.09 578.153C645.651 576.69 645.932 575.002 645.932 573.088C645.932 571.196 645.657 569.54 645.107 568.121C644.557 566.691 643.743 565.581 642.665 564.789C641.587 563.986 640.256 563.584 638.672 563.584C637.022 563.584 635.647 564.008 634.547 564.855C633.458 565.691 632.639 566.829 632.089 568.27C631.55 569.7 631.28 571.306 631.28 573.088C631.28 574.892 631.555 576.531 632.105 578.005C632.666 579.468 633.491 580.634 634.58 581.503C635.68 582.36 637.044 582.789 638.672 582.789Z" fill="#45556C"/>
<path d="M656.933 585.759V560.416H660.695V564.376H661.025C661.553 563.023 662.405 561.973 663.582 561.225C664.759 560.466 666.173 560.086 667.822 560.086C669.494 560.086 670.886 560.466 671.997 561.225C673.119 561.973 673.993 563.023 674.62 564.376H674.884C675.533 563.067 676.507 562.028 677.805 561.258C679.103 560.477 680.659 560.086 682.474 560.086C684.74 560.086 686.593 560.796 688.034 562.215C689.475 563.623 690.196 565.817 690.196 568.798V585.759H686.302V568.798C686.302 566.928 685.79 565.592 684.767 564.789C683.744 563.986 682.54 563.584 681.154 563.584C679.372 563.584 677.992 564.123 677.013 565.201C676.034 566.268 675.544 567.621 675.544 569.26V585.759H671.584V568.402C671.584 566.961 671.117 565.801 670.182 564.921C669.247 564.03 668.042 563.584 666.568 563.584C665.557 563.584 664.611 563.854 663.731 564.393C662.862 564.932 662.158 565.68 661.619 566.636C661.091 567.582 660.827 568.677 660.827 569.92V585.759H656.933Z" fill="#45556C"/>
<path d="M704.274 586.353C702.668 586.353 701.211 586.051 699.902 585.446C698.593 584.83 697.553 583.944 696.783 582.789C696.013 581.624 695.628 580.216 695.628 578.566C695.628 577.114 695.914 575.937 696.486 575.035C697.058 574.122 697.823 573.407 698.78 572.89C699.737 572.373 700.793 571.988 701.947 571.735C703.113 571.471 704.285 571.262 705.462 571.108C707.002 570.91 708.25 570.761 709.207 570.662C710.175 570.552 710.879 570.371 711.319 570.118C711.77 569.865 711.996 569.425 711.996 568.798V568.666C711.996 567.038 711.55 565.773 710.659 564.871C709.779 563.969 708.443 563.518 706.65 563.518C704.791 563.518 703.333 563.925 702.277 564.739C701.221 565.553 700.479 566.422 700.05 567.346L696.354 566.026C697.014 564.486 697.894 563.287 698.994 562.429C700.105 561.56 701.315 560.955 702.624 560.614C703.944 560.262 705.242 560.086 706.518 560.086C707.332 560.086 708.267 560.185 709.323 560.383C710.39 560.57 711.418 560.961 712.408 561.555C713.409 562.149 714.24 563.045 714.9 564.244C715.56 565.443 715.89 567.049 715.89 569.062V585.759H711.996V582.327H711.798C711.534 582.877 711.094 583.466 710.478 584.093C709.862 584.72 709.042 585.253 708.019 585.693C706.996 586.133 705.748 586.353 704.274 586.353ZM704.868 582.855C706.408 582.855 707.706 582.553 708.762 581.948C709.829 581.343 710.632 580.562 711.171 579.605C711.721 578.648 711.996 577.642 711.996 576.586V573.022C711.831 573.22 711.468 573.401 710.907 573.566C710.357 573.72 709.719 573.858 708.993 573.979C708.278 574.089 707.579 574.188 706.897 574.276C706.226 574.353 705.682 574.419 705.264 574.474C704.252 574.606 703.306 574.82 702.426 575.117C701.557 575.403 700.853 575.838 700.314 576.421C699.786 576.993 699.522 577.774 699.522 578.764C699.522 580.117 700.023 581.14 701.023 581.833C702.035 582.514 703.317 582.855 704.868 582.855Z" fill="#45556C"/>
<path d="M722.498 595.263V560.416H726.259V564.442H726.721C727.007 564.002 727.403 563.441 727.909 562.759C728.426 562.066 729.163 561.45 730.12 560.911C731.088 560.361 732.397 560.086 734.047 560.086C736.181 560.086 738.062 560.62 739.69 561.687C741.318 562.754 742.588 564.266 743.501 566.224C744.414 568.182 744.871 570.492 744.871 573.154C744.871 575.838 744.414 578.164 743.501 580.133C742.588 582.091 741.323 583.609 739.707 584.687C738.09 585.754 736.225 586.287 734.113 586.287C732.485 586.287 731.182 586.018 730.203 585.479C729.224 584.929 728.47 584.307 727.942 583.614C727.414 582.91 727.007 582.327 726.721 581.866H726.391V595.263H722.498ZM726.325 573.088C726.325 575.002 726.606 576.69 727.167 578.153C727.728 579.605 728.547 580.744 729.625 581.569C730.703 582.382 732.023 582.789 733.585 582.789C735.213 582.789 736.572 582.36 737.661 581.503C738.761 580.634 739.586 579.468 740.135 578.005C740.696 576.531 740.977 574.892 740.977 573.088C740.977 571.306 740.702 569.7 740.152 568.27C739.613 566.829 738.794 565.691 737.694 564.855C736.605 564.008 735.235 563.584 733.585 563.584C732.001 563.584 730.67 563.986 729.592 564.789C728.514 565.581 727.7 566.691 727.15 568.121C726.6 569.54 726.325 571.196 726.325 573.088Z" fill="#45556C"/>
<path d="M120.543 652.728C118.937 652.728 117.48 652.426 116.171 651.821C114.862 651.205 113.823 650.319 113.053 649.164C112.283 647.999 111.898 646.591 111.898 644.941C111.898 643.489 112.184 642.312 112.756 641.41C113.328 640.497 114.092 639.782 115.049 639.265C116.006 638.748 117.062 638.363 118.217 638.11C119.383 637.846 120.554 637.637 121.731 637.483C123.271 637.285 124.52 637.136 125.477 637.037C126.445 636.927 127.149 636.746 127.589 636.493C128.04 636.24 128.265 635.8 128.265 635.173V635.041C128.265 633.413 127.82 632.148 126.929 631.246C126.049 630.344 124.712 629.893 122.919 629.893C121.06 629.893 119.603 630.3 118.547 631.114C117.491 631.928 116.749 632.797 116.32 633.721L112.624 632.401C113.284 630.861 114.164 629.662 115.264 628.804C116.375 627.935 117.584 627.33 118.893 626.989C120.213 626.637 121.511 626.461 122.787 626.461C123.601 626.461 124.536 626.56 125.592 626.758C126.659 626.945 127.688 627.336 128.678 627.93C129.679 628.524 130.509 629.42 131.169 630.619C131.829 631.818 132.159 633.424 132.159 635.437V652.134H128.265V648.702H128.067C127.803 649.252 127.363 649.841 126.747 650.468C126.131 651.095 125.312 651.628 124.289 652.068C123.266 652.508 122.017 652.728 120.543 652.728ZM121.137 649.23C122.677 649.23 123.975 648.928 125.031 648.323C126.098 647.718 126.901 646.937 127.44 645.98C127.99 645.023 128.265 644.017 128.265 642.961V639.397C128.1 639.595 127.737 639.776 127.176 639.941C126.626 640.095 125.988 640.233 125.262 640.354C124.547 640.464 123.849 640.563 123.167 640.651C122.496 640.728 121.951 640.794 121.533 640.849C120.521 640.981 119.575 641.195 118.695 641.492C117.826 641.778 117.123 642.213 116.584 642.796C116.056 643.368 115.792 644.149 115.792 645.139C115.792 646.492 116.292 647.515 117.293 648.208C118.305 648.889 119.586 649.23 121.137 649.23Z" fill="#45556C"/>
<path d="M142.661 618.343V652.134H138.767V618.343H142.661Z" fill="#45556C"/>
<path d="M149.294 652.134V626.791H153.188V652.134H149.294ZM151.274 622.567C150.515 622.567 149.86 622.309 149.31 621.792C148.771 621.275 148.502 620.653 148.502 619.927C148.502 619.201 148.771 618.58 149.31 618.063C149.86 617.546 150.515 617.288 151.274 617.288C152.033 617.288 152.682 617.546 153.221 618.063C153.771 618.58 154.046 619.201 154.046 619.927C154.046 620.653 153.771 621.275 153.221 621.792C152.682 622.309 152.033 622.567 151.274 622.567Z" fill="#45556C"/>
<path d="M170.05 662.166C168.169 662.166 166.552 661.924 165.199 661.44C163.846 660.967 162.719 660.34 161.817 659.559C160.926 658.789 160.216 657.964 159.688 657.084L162.79 654.906C163.142 655.368 163.588 655.896 164.127 656.49C164.666 657.095 165.403 657.618 166.338 658.058C167.284 658.509 168.521 658.734 170.05 658.734C172.096 658.734 173.784 658.239 175.115 657.249C176.446 656.259 177.112 654.708 177.112 652.596V647.449H176.782C176.496 647.911 176.089 648.483 175.561 649.164C175.044 649.835 174.296 650.435 173.317 650.963C172.349 651.48 171.04 651.738 169.39 651.738C167.344 651.738 165.507 651.254 163.879 650.286C162.262 649.318 160.981 647.911 160.035 646.063C159.1 644.215 158.632 641.971 158.632 639.331C158.632 636.735 159.089 634.474 160.002 632.55C160.915 630.614 162.185 629.118 163.813 628.062C165.441 626.995 167.322 626.461 169.456 626.461C171.106 626.461 172.415 626.736 173.383 627.286C174.362 627.825 175.11 628.441 175.627 629.134C176.155 629.816 176.562 630.377 176.848 630.817H177.244V626.791H181.006V652.86C181.006 655.038 180.511 656.809 179.521 658.173C178.542 659.548 177.222 660.555 175.561 661.193C173.911 661.842 172.074 662.166 170.05 662.166ZM169.918 648.241C171.48 648.241 172.8 647.883 173.878 647.168C174.956 646.453 175.775 645.425 176.336 644.083C176.897 642.741 177.178 641.135 177.178 639.265C177.178 637.439 176.903 635.827 176.353 634.43C175.803 633.034 174.989 631.939 173.911 631.147C172.833 630.355 171.502 629.959 169.918 629.959C168.268 629.959 166.893 630.377 165.793 631.213C164.704 632.049 163.885 633.171 163.335 634.579C162.796 635.987 162.526 637.549 162.526 639.265C162.526 641.025 162.801 642.581 163.351 643.934C163.912 645.276 164.737 646.332 165.826 647.102C166.926 647.861 168.29 648.241 169.918 648.241Z" fill="#45556C"/>
<path d="M191.528 636.889V652.134H187.634V626.791H191.396V630.751H191.726C192.32 629.464 193.222 628.43 194.432 627.649C195.642 626.857 197.204 626.461 199.118 626.461C200.834 626.461 202.335 626.813 203.622 627.517C204.909 628.21 205.91 629.266 206.625 630.685C207.34 632.093 207.698 633.875 207.698 636.031V652.134H203.804V636.295C203.804 634.304 203.287 632.753 202.253 631.642C201.219 630.52 199.8 629.959 197.996 629.959C196.753 629.959 195.642 630.229 194.663 630.768C193.695 631.307 192.931 632.093 192.37 633.127C191.809 634.161 191.528 635.415 191.528 636.889Z" fill="#45556C"/>
<path d="M224.94 652.662C222.498 652.662 220.391 652.123 218.62 651.045C216.86 649.956 215.502 648.439 214.545 646.492C213.599 644.534 213.126 642.257 213.126 639.661C213.126 637.065 213.599 634.777 214.545 632.797C215.502 630.806 216.833 629.255 218.538 628.144C220.254 627.022 222.256 626.461 224.544 626.461C225.864 626.461 227.167 626.681 228.454 627.121C229.741 627.561 230.912 628.276 231.968 629.266C233.024 630.245 233.866 631.543 234.493 633.16C235.12 634.777 235.433 636.768 235.433 639.133V640.783H215.898V637.417H231.473C231.473 635.987 231.187 634.711 230.615 633.589C230.054 632.467 229.252 631.582 228.207 630.933C227.173 630.284 225.952 629.959 224.544 629.959C222.993 629.959 221.651 630.344 220.518 631.114C219.396 631.873 218.532 632.863 217.927 634.084C217.322 635.305 217.02 636.614 217.02 638.011V640.255C217.02 642.169 217.35 643.791 218.01 645.122C218.681 646.442 219.61 647.449 220.798 648.142C221.986 648.823 223.367 649.164 224.94 649.164C225.963 649.164 226.887 649.021 227.712 648.735C228.548 648.439 229.268 647.999 229.873 647.416C230.478 646.822 230.945 646.085 231.275 645.205L235.037 646.261C234.641 647.537 233.976 648.658 233.041 649.626C232.106 650.583 230.951 651.331 229.576 651.87C228.201 652.398 226.656 652.662 224.94 652.662Z" fill="#45556C"/>
<path d="M250.427 652.662C248.315 652.662 246.451 652.129 244.834 651.062C243.217 649.984 241.952 648.466 241.039 646.508C240.126 644.539 239.67 642.213 239.67 639.529C239.67 636.867 240.126 634.557 241.039 632.599C241.952 630.641 243.222 629.129 244.85 628.062C246.478 626.995 248.359 626.461 250.493 626.461C252.143 626.461 253.447 626.736 254.404 627.286C255.372 627.825 256.109 628.441 256.614 629.134C257.131 629.816 257.533 630.377 257.819 630.817H258.149V618.343H262.043V652.134H258.281V648.241H257.819C257.533 648.702 257.126 649.285 256.598 649.989C256.07 650.682 255.317 651.304 254.338 651.854C253.359 652.393 252.055 652.662 250.427 652.662ZM250.955 649.164C252.517 649.164 253.837 648.757 254.915 647.944C255.993 647.119 256.812 645.98 257.373 644.528C257.934 643.065 258.215 641.377 258.215 639.463C258.215 637.571 257.94 635.915 257.39 634.496C256.84 633.067 256.026 631.956 254.948 631.164C253.87 630.361 252.539 629.959 250.955 629.959C249.305 629.959 247.93 630.383 246.83 631.23C245.741 632.066 244.922 633.204 244.372 634.645C243.833 636.075 243.563 637.681 243.563 639.463C243.563 641.267 243.838 642.906 244.388 644.38C244.949 645.843 245.774 647.009 246.863 647.878C247.963 648.735 249.327 649.164 250.955 649.164Z" fill="#45556C"/>
<path d="M287.526 652.134L279.805 626.791H283.896L289.374 646.195H289.638L295.05 626.791H299.208L304.554 646.129H304.818L310.296 626.791H314.387L306.666 652.134H302.838L297.294 632.665H296.898L291.354 652.134H287.526Z" fill="#45556C"/>
<path d="M319.036 652.134V626.791H322.93V652.134H319.036ZM321.016 622.567C320.257 622.567 319.603 622.309 319.053 621.792C318.514 621.275 318.244 620.653 318.244 619.927C318.244 619.201 318.514 618.58 319.053 618.063C319.603 617.546 320.257 617.288 321.016 617.288C321.775 617.288 322.424 617.546 322.963 618.063C323.513 618.58 323.788 619.201 323.788 619.927C323.788 620.653 323.513 621.275 322.963 621.792C322.424 622.309 321.775 622.567 321.016 622.567Z" fill="#45556C"/>
<path d="M340.584 626.791V630.091H327.451V626.791H340.584ZM331.279 620.719H335.173V644.875C335.173 645.975 335.332 646.8 335.651 647.35C335.981 647.889 336.399 648.252 336.905 648.439C337.422 648.614 337.966 648.702 338.538 648.702C338.967 648.702 339.319 648.68 339.594 648.636C339.869 648.581 340.089 648.538 340.254 648.505L341.046 652.002C340.782 652.101 340.414 652.2 339.941 652.299C339.468 652.409 338.868 652.464 338.142 652.464C337.043 652.464 335.965 652.228 334.909 651.755C333.864 651.282 332.995 650.561 332.302 649.593C331.62 648.625 331.279 647.405 331.279 645.931V620.719Z" fill="#45556C"/>
<path d="M350.381 636.889V652.134H346.487V618.343H350.381V630.751H350.711C351.305 629.442 352.196 628.403 353.384 627.633C354.583 626.852 356.178 626.461 358.169 626.461C359.896 626.461 361.408 626.808 362.706 627.501C364.004 628.183 365.01 629.233 365.725 630.652C366.451 632.06 366.814 633.853 366.814 636.031V652.134H362.921V636.295C362.921 634.282 362.398 632.726 361.353 631.626C360.319 630.515 358.884 629.959 357.047 629.959C355.771 629.959 354.627 630.229 353.615 630.768C352.614 631.307 351.822 632.093 351.239 633.127C350.667 634.161 350.381 635.415 350.381 636.889Z" fill="#45556C"/>
<path d="M396.303 652.662C393.927 652.662 391.881 652.101 390.165 650.979C388.449 649.857 387.129 648.312 386.205 646.343C385.281 644.374 384.819 642.125 384.819 639.595C384.819 637.021 385.292 634.749 386.238 632.781C387.195 630.801 388.526 629.255 390.231 628.144C391.947 627.022 393.949 626.461 396.237 626.461C398.019 626.461 399.625 626.791 401.055 627.451C402.485 628.111 403.656 629.035 404.569 630.223C405.482 631.411 406.049 632.797 406.269 634.381H402.375C402.078 633.226 401.418 632.203 400.395 631.312C399.383 630.41 398.019 629.959 396.303 629.959C394.785 629.959 393.454 630.355 392.31 631.147C391.177 631.928 390.292 633.034 389.654 634.463C389.027 635.882 388.713 637.549 388.713 639.463C388.713 641.421 389.021 643.126 389.637 644.578C390.264 646.03 391.144 647.157 392.277 647.96C393.421 648.763 394.763 649.164 396.303 649.164C397.315 649.164 398.234 648.988 399.059 648.636C399.884 648.285 400.582 647.779 401.154 647.119C401.726 646.459 402.133 645.667 402.375 644.743H406.269C406.049 646.239 405.504 647.586 404.635 648.785C403.777 649.973 402.639 650.919 401.22 651.623C399.812 652.316 398.173 652.662 396.303 652.662Z" fill="#45556C"/>
<path d="M415.356 618.343V652.134H411.462V618.343H415.356Z" fill="#45556C"/>
<path d="M421.989 652.134V626.791H425.883V652.134H421.989ZM423.969 622.567C423.21 622.567 422.555 622.309 422.005 621.792C421.466 621.275 421.197 620.653 421.197 619.927C421.197 619.201 421.466 618.58 422.005 618.063C422.555 617.546 423.21 617.288 423.969 617.288C424.728 617.288 425.377 617.546 425.916 618.063C426.466 618.58 426.741 619.201 426.741 619.927C426.741 620.653 426.466 621.275 425.916 621.792C425.377 622.309 424.728 622.567 423.969 622.567Z" fill="#45556C"/>
<path d="M436.409 636.889V652.134H432.515V626.791H436.277V630.751H436.607C437.201 629.464 438.103 628.43 439.313 627.649C440.523 626.857 442.085 626.461 443.999 626.461C445.715 626.461 447.216 626.813 448.503 627.517C449.79 628.21 450.791 629.266 451.506 630.685C452.221 632.093 452.579 633.875 452.579 636.031V652.134H448.685V636.295C448.685 634.304 448.168 632.753 447.134 631.642C446.1 630.52 444.681 629.959 442.877 629.959C441.634 629.959 440.523 630.229 439.544 630.768C438.576 631.307 437.812 632.093 437.251 633.127C436.69 634.161 436.409 635.415 436.409 636.889Z" fill="#45556C"/>
<path d="M459.195 652.134V626.791H463.089V652.134H459.195ZM461.175 622.567C460.416 622.567 459.761 622.309 459.211 621.792C458.672 621.275 458.403 620.653 458.403 619.927C458.403 619.201 458.672 618.58 459.211 618.063C459.761 617.546 460.416 617.288 461.175 617.288C461.934 617.288 462.583 617.546 463.122 618.063C463.672 618.58 463.947 619.201 463.947 619.927C463.947 620.653 463.672 621.275 463.122 621.792C462.583 622.309 461.934 622.567 461.175 622.567Z" fill="#45556C"/>
<path d="M480.017 652.662C477.641 652.662 475.595 652.101 473.879 650.979C472.164 649.857 470.844 648.312 469.92 646.343C468.996 644.374 468.534 642.125 468.534 639.595C468.534 637.021 469.007 634.749 469.953 632.781C470.91 630.801 472.241 629.255 473.945 628.144C475.661 627.022 477.663 626.461 479.951 626.461C481.733 626.461 483.339 626.791 484.769 627.451C486.199 628.111 487.371 629.035 488.284 630.223C489.196 631.411 489.763 632.797 489.983 634.381H486.089C485.792 633.226 485.132 632.203 484.109 631.312C483.097 630.41 481.733 629.959 480.017 629.959C478.499 629.959 477.168 630.355 476.024 631.147C474.891 631.928 474.006 633.034 473.368 634.463C472.741 635.882 472.428 637.549 472.428 639.463C472.428 641.421 472.736 643.126 473.351 644.578C473.978 646.03 474.858 647.157 475.991 647.96C477.135 648.763 478.477 649.164 480.017 649.164C481.029 649.164 481.948 648.988 482.773 648.636C483.598 648.285 484.296 647.779 484.868 647.119C485.44 646.459 485.847 645.667 486.089 644.743H489.983C489.763 646.239 489.218 647.586 488.35 648.785C487.492 649.973 486.353 650.919 484.934 651.623C483.526 652.316 481.887 652.662 480.017 652.662Z" fill="#45556C"/>
<path d="M502.634 652.728C501.028 652.728 499.571 652.426 498.262 651.821C496.953 651.205 495.913 650.319 495.143 649.164C494.373 647.999 493.988 646.591 493.988 644.941C493.988 643.489 494.274 642.312 494.846 641.41C495.418 640.497 496.183 639.782 497.14 639.265C498.097 638.748 499.153 638.363 500.307 638.11C501.473 637.846 502.645 637.637 503.822 637.483C505.362 637.285 506.61 637.136 507.567 637.037C508.535 636.927 509.239 636.746 509.679 636.493C510.13 636.24 510.356 635.8 510.356 635.173V635.041C510.356 633.413 509.91 632.148 509.019 631.246C508.139 630.344 506.803 629.893 505.01 629.893C503.151 629.893 501.693 630.3 500.637 631.114C499.582 631.928 498.839 632.797 498.41 633.721L494.714 632.401C495.374 630.861 496.254 629.662 497.354 628.804C498.465 627.935 499.675 627.33 500.984 626.989C502.304 626.637 503.602 626.461 504.878 626.461C505.692 626.461 506.627 626.56 507.683 626.758C508.75 626.945 509.778 627.336 510.768 627.93C511.769 628.524 512.6 629.42 513.26 630.619C513.92 631.818 514.25 633.424 514.25 635.437V652.134H510.356V648.702H510.158C509.894 649.252 509.454 649.841 508.838 650.468C508.222 651.095 507.402 651.628 506.379 652.068C505.356 652.508 504.108 652.728 502.634 652.728ZM503.228 649.23C504.768 649.23 506.066 648.928 507.122 648.323C508.189 647.718 508.992 646.937 509.531 645.98C510.081 645.023 510.356 644.017 510.356 642.961V639.397C510.191 639.595 509.828 639.776 509.267 639.941C508.717 640.095 508.079 640.233 507.353 640.354C506.638 640.464 505.939 640.563 505.257 640.651C504.586 640.728 504.042 640.794 503.624 640.849C502.612 640.981 501.666 641.195 500.786 641.492C499.917 641.778 499.213 642.213 498.674 642.796C498.146 643.368 497.882 644.149 497.882 645.139C497.882 646.492 498.383 647.515 499.384 648.208C500.396 648.889 501.677 649.23 503.228 649.23Z" fill="#45556C"/>
<path d="M524.751 618.343V652.134H520.858V618.343H524.751Z" fill="#45556C"/>
<path d="M543.953 661.638V626.791H547.715V630.817H548.177C548.463 630.377 548.859 629.816 549.365 629.134C549.882 628.441 550.619 627.825 551.575 627.286C552.543 626.736 553.852 626.461 555.502 626.461C557.636 626.461 559.517 626.995 561.145 628.062C562.773 629.129 564.044 630.641 564.957 632.599C565.869 634.557 566.326 636.867 566.326 639.529C566.326 642.213 565.869 644.539 564.957 646.508C564.044 648.466 562.779 649.984 561.162 651.062C559.545 652.129 557.68 652.662 555.568 652.662C553.94 652.662 552.637 652.393 551.658 651.854C550.679 651.304 549.926 650.682 549.398 649.989C548.87 649.285 548.463 648.702 548.177 648.241H547.847V661.638H543.953ZM547.781 639.463C547.781 641.377 548.061 643.065 548.622 644.528C549.183 645.98 550.003 647.119 551.08 647.944C552.158 648.757 553.478 649.164 555.04 649.164C556.668 649.164 558.027 648.735 559.116 647.878C560.216 647.009 561.041 645.843 561.591 644.38C562.152 642.906 562.432 641.267 562.432 639.463C562.432 637.681 562.157 636.075 561.607 634.645C561.068 633.204 560.249 632.066 559.149 631.23C558.06 630.383 556.69 629.959 555.04 629.959C553.456 629.959 552.125 630.361 551.047 631.164C549.969 631.956 549.156 633.067 548.606 634.496C548.056 635.915 547.781 637.571 547.781 639.463Z" fill="#45556C"/>
<path d="M571.767 652.134V626.791H575.529V630.619H575.793C576.255 629.365 577.091 628.348 578.3 627.567C579.51 626.786 580.874 626.395 582.392 626.395C582.678 626.395 583.036 626.401 583.465 626.412C583.894 626.423 584.218 626.439 584.438 626.461V630.421C584.306 630.388 584.004 630.339 583.531 630.273C583.069 630.196 582.579 630.157 582.062 630.157C580.83 630.157 579.73 630.416 578.762 630.933C577.806 631.439 577.047 632.143 576.486 633.045C575.936 633.935 575.661 634.953 575.661 636.097V652.134H571.767Z" fill="#45556C"/>
<path d="M588.555 652.134V626.791H592.449V652.134H588.555ZM590.535 622.567C589.776 622.567 589.121 622.309 588.571 621.792C588.032 621.275 587.763 620.653 587.763 619.927C587.763 619.201 588.032 618.58 588.571 618.063C589.121 617.546 589.776 617.288 590.535 617.288C591.294 617.288 591.943 617.546 592.482 618.063C593.032 618.58 593.307 619.201 593.307 619.927C593.307 620.653 593.032 621.275 592.482 621.792C591.943 622.309 591.294 622.567 590.535 622.567Z" fill="#45556C"/>
<path d="M609.377 652.662C607.089 652.662 605.082 652.118 603.355 651.029C601.639 649.94 600.297 648.417 599.329 646.459C598.372 644.501 597.894 642.213 597.894 639.595C597.894 636.955 598.372 634.65 599.329 632.682C600.297 630.713 601.639 629.184 603.355 628.095C605.082 627.006 607.089 626.461 609.377 626.461C611.665 626.461 613.667 627.006 615.383 628.095C617.11 629.184 618.452 630.713 619.409 632.682C620.377 634.65 620.861 636.955 620.861 639.595C620.861 642.213 620.377 644.501 619.409 646.459C618.452 648.417 617.11 649.94 615.383 651.029C613.667 652.118 611.665 652.662 609.377 652.662ZM609.377 649.164C611.115 649.164 612.545 648.719 613.667 647.828C614.789 646.937 615.619 645.766 616.158 644.314C616.697 642.862 616.967 641.289 616.967 639.595C616.967 637.901 616.697 636.322 616.158 634.859C615.619 633.396 614.789 632.214 613.667 631.312C612.545 630.41 611.115 629.959 609.377 629.959C607.639 629.959 606.209 630.41 605.087 631.312C603.965 632.214 603.135 633.396 602.596 634.859C602.057 636.322 601.787 637.901 601.787 639.595C601.787 641.289 602.057 642.862 602.596 644.314C603.135 645.766 603.965 646.937 605.087 647.828C606.209 648.719 607.639 649.164 609.377 649.164Z" fill="#45556C"/>
<path d="M626.306 652.134V626.791H630.068V630.619H630.332C630.794 629.365 631.63 628.348 632.839 627.567C634.049 626.786 635.413 626.395 636.931 626.395C637.217 626.395 637.575 626.401 638.004 626.412C638.433 626.423 638.757 626.439 638.977 626.461V630.421C638.845 630.388 638.543 630.339 638.07 630.273C637.608 630.196 637.118 630.157 636.601 630.157C635.369 630.157 634.269 630.416 633.301 630.933C632.345 631.439 631.586 632.143 631.025 633.045C630.475 633.935 630.2 634.953 630.2 636.097V652.134H626.306Z" fill="#45556C"/>
<path d="M643.094 652.134V626.791H646.988V652.134H643.094ZM645.074 622.567C644.315 622.567 643.66 622.309 643.11 621.792C642.571 621.275 642.302 620.653 642.302 619.927C642.302 619.201 642.571 618.58 643.11 618.063C643.66 617.546 644.315 617.288 645.074 617.288C645.833 617.288 646.482 617.546 647.021 618.063C647.571 618.58 647.846 619.201 647.846 619.927C647.846 620.653 647.571 621.275 647.021 621.792C646.482 622.309 645.833 622.567 645.074 622.567Z" fill="#45556C"/>
<path d="M664.642 626.791V630.091H651.509V626.791H664.642ZM655.337 620.719H659.23V644.875C659.23 645.975 659.39 646.8 659.709 647.35C660.039 647.889 660.457 648.252 660.963 648.439C661.48 648.614 662.024 648.702 662.596 648.702C663.025 648.702 663.377 648.68 663.652 648.636C663.927 648.581 664.147 648.538 664.312 648.505L665.104 652.002C664.84 652.101 664.472 652.2 663.999 652.299C663.526 652.409 662.926 652.464 662.2 652.464C661.1 652.464 660.022 652.228 658.966 651.755C657.921 651.282 657.052 650.561 656.359 649.593C655.677 648.625 655.337 647.405 655.337 645.931V620.719Z" fill="#45556C"/>
<path d="M670 652.134V626.791H673.894V652.134H670ZM671.98 622.567C671.221 622.567 670.567 622.309 670.017 621.792C669.478 621.275 669.208 620.653 669.208 619.927C669.208 619.201 669.478 618.58 670.017 618.063C670.567 617.546 671.221 617.288 671.98 617.288C672.739 617.288 673.388 617.546 673.927 618.063C674.477 618.58 674.752 619.201 674.752 619.927C674.752 620.653 674.477 621.275 673.927 621.792C673.388 622.309 672.739 622.567 671.98 622.567Z" fill="#45556C"/>
<path d="M691.153 652.662C688.711 652.662 686.604 652.123 684.833 651.045C683.073 649.956 681.715 648.439 680.758 646.492C679.812 644.534 679.339 642.257 679.339 639.661C679.339 637.065 679.812 634.777 680.758 632.797C681.715 630.806 683.046 629.255 684.751 628.144C686.467 627.022 688.469 626.461 690.757 626.461C692.077 626.461 693.38 626.681 694.667 627.121C695.954 627.561 697.126 628.276 698.181 629.266C699.237 630.245 700.079 631.543 700.706 633.16C701.333 634.777 701.646 636.768 701.646 639.133V640.783H682.111V637.417H697.687C697.687 635.987 697.401 634.711 696.829 633.589C696.268 632.467 695.465 631.582 694.42 630.933C693.386 630.284 692.165 629.959 690.757 629.959C689.206 629.959 687.864 630.344 686.731 631.114C685.609 631.873 684.745 632.863 684.14 634.084C683.535 635.305 683.233 636.614 683.233 638.011V640.255C683.233 642.169 683.563 643.791 684.223 645.122C684.894 646.442 685.823 647.449 687.011 648.142C688.199 648.823 689.58 649.164 691.153 649.164C692.176 649.164 693.1 649.021 693.925 648.735C694.761 648.439 695.481 647.999 696.086 647.416C696.691 646.822 697.159 646.085 697.489 645.205L701.25 646.261C700.854 647.537 700.189 648.658 699.254 649.626C698.319 650.583 697.164 651.331 695.789 651.87C694.414 652.398 692.869 652.662 691.153 652.662Z" fill="#45556C"/>
<path d="M725.022 632.467L721.524 633.457C721.304 632.874 720.98 632.308 720.551 631.758C720.133 631.197 719.561 630.735 718.835 630.372C718.109 630.009 717.179 629.827 716.046 629.827C714.495 629.827 713.203 630.185 712.169 630.9C711.146 631.604 710.634 632.5 710.634 633.589C710.634 634.557 710.986 635.321 711.69 635.882C712.394 636.443 713.494 636.911 714.99 637.285L718.752 638.209C721.018 638.759 722.707 639.6 723.818 640.733C724.928 641.855 725.484 643.302 725.484 645.073C725.484 646.525 725.066 647.823 724.23 648.966C723.405 650.11 722.25 651.012 720.765 651.672C719.28 652.332 717.553 652.662 715.584 652.662C712.999 652.662 710.86 652.101 709.166 650.979C707.472 649.857 706.4 648.219 705.949 646.063L709.644 645.139C709.996 646.503 710.662 647.526 711.641 648.208C712.631 648.889 713.923 649.23 715.518 649.23C717.333 649.23 718.774 648.845 719.841 648.076C720.919 647.295 721.458 646.36 721.458 645.271C721.458 644.391 721.15 643.654 720.534 643.06C719.918 642.455 718.972 642.004 717.696 641.707L713.472 640.717C711.151 640.167 709.446 639.314 708.358 638.159C707.28 636.993 706.741 635.536 706.741 633.787C706.741 632.357 707.142 631.092 707.945 629.992C708.759 628.892 709.864 628.029 711.261 627.402C712.669 626.775 714.264 626.461 716.046 626.461C718.554 626.461 720.523 627.011 721.953 628.111C723.394 629.211 724.417 630.663 725.022 632.467Z" fill="#45556C"/>
<path d="M736.654 647.515L736.39 649.296C736.203 650.55 735.917 651.892 735.532 653.322C735.158 654.752 734.768 656.1 734.361 657.365C733.954 658.63 733.618 659.636 733.354 660.384H730.384C730.527 659.68 730.714 658.751 730.945 657.596C731.176 656.441 731.407 655.148 731.638 653.718C731.88 652.299 732.078 650.847 732.232 649.362L732.43 647.515H736.654Z" fill="#45556C"/>
<path d="M755.344 652.134V649.164L773.559 621.973H755.146V618.343H778.443V621.313L760.228 648.505H778.641V652.134H755.344Z" fill="#45556C"/>
<path d="M795.103 652.662C792.662 652.662 790.555 652.123 788.784 651.045C787.024 649.956 785.666 648.439 784.709 646.492C783.763 644.534 783.29 642.257 783.29 639.661C783.29 637.065 783.763 634.777 784.709 632.797C785.666 630.806 786.997 629.255 788.702 628.144C790.418 627.022 792.42 626.461 794.707 626.461C796.027 626.461 797.331 626.681 798.618 627.121C799.905 627.561 801.076 628.276 802.132 629.266C803.188 630.245 804.03 631.543 804.657 633.16C805.284 634.777 805.597 636.768 805.597 639.133V640.783H786.062V637.417H801.637C801.637 635.987 801.351 634.711 800.779 633.589C800.218 632.467 799.415 631.582 798.37 630.933C797.336 630.284 796.115 629.959 794.707 629.959C793.157 629.959 791.815 630.344 790.682 631.114C789.56 631.873 788.696 632.863 788.091 634.084C787.486 635.305 787.184 636.614 787.184 638.011V640.255C787.184 642.169 787.514 643.791 788.174 645.122C788.845 646.442 789.774 647.449 790.962 648.142C792.15 648.823 793.531 649.164 795.103 649.164C796.126 649.164 797.05 649.021 797.875 648.735C798.711 648.439 799.432 647.999 800.037 647.416C800.642 646.822 801.109 646.085 801.439 645.205L805.201 646.261C804.805 647.537 804.14 648.658 803.205 649.626C802.27 650.583 801.115 651.331 799.74 651.87C798.365 652.398 796.819 652.662 795.103 652.662Z" fill="#45556C"/>
<path d="M811.021 652.134V626.791H814.783V630.619H815.047C815.509 629.365 816.345 628.348 817.555 627.567C818.765 626.786 820.129 626.395 821.647 626.395C821.933 626.395 822.29 626.401 822.719 626.412C823.148 626.423 823.473 626.439 823.693 626.461V630.421C823.561 630.388 823.258 630.339 822.785 630.273C822.323 630.196 821.834 630.157 821.317 630.157C820.085 630.157 818.985 630.416 818.017 630.933C817.06 631.439 816.301 632.143 815.74 633.045C815.19 633.935 814.915 634.953 814.915 636.097V652.134H811.021Z" fill="#45556C"/>
<path d="M837.334 652.662C835.046 652.662 833.039 652.118 831.312 651.029C829.596 649.94 828.254 648.417 827.286 646.459C826.329 644.501 825.85 642.213 825.85 639.595C825.85 636.955 826.329 634.65 827.286 632.682C828.254 630.713 829.596 629.184 831.312 628.095C833.039 627.006 835.046 626.461 837.334 626.461C839.622 626.461 841.624 627.006 843.34 628.095C845.067 629.184 846.409 630.713 847.366 632.682C848.334 634.65 848.818 636.955 848.818 639.595C848.818 642.213 848.334 644.501 847.366 646.459C846.409 648.417 845.067 649.94 843.34 651.029C841.624 652.118 839.622 652.662 837.334 652.662ZM837.334 649.164C839.072 649.164 840.502 648.719 841.624 647.828C842.746 646.937 843.576 645.766 844.115 644.314C844.654 642.862 844.924 641.289 844.924 639.595C844.924 637.901 844.654 636.322 844.115 634.859C843.576 633.396 842.746 632.214 841.624 631.312C840.502 630.41 839.072 629.959 837.334 629.959C835.596 629.959 834.166 630.41 833.044 631.312C831.922 632.214 831.092 633.396 830.553 634.859C830.014 636.322 829.744 637.901 829.744 639.595C829.744 641.289 830.014 642.862 830.553 644.314C831.092 645.766 831.922 646.937 833.044 647.828C834.166 648.719 835.596 649.164 837.334 649.164Z" fill="#45556C"/>
<path d="M111.766 688.348V684.718H137.109V688.348H126.483V718.509H122.391V688.348H111.766Z" fill="#45556C"/>
<path d="M139.765 718.509V693.166H143.527V696.994H143.791C144.253 695.74 145.089 694.723 146.299 693.942C147.509 693.161 148.873 692.77 150.391 692.77C150.677 692.77 151.034 692.776 151.463 692.787C151.892 692.798 152.217 692.814 152.437 692.836V696.796C152.305 696.763 152.002 696.714 151.529 696.648C151.067 696.571 150.578 696.532 150.061 696.532C148.829 696.532 147.729 696.791 146.761 697.308C145.804 697.814 145.045 698.518 144.484 699.419C143.934 700.31 143.659 701.328 143.659 702.472V718.509H139.765Z" fill="#45556C"/>
<path d="M172.525 708.148V693.166H176.419V718.509H172.525V714.22H172.261C171.667 715.506 170.743 716.601 169.489 717.503C168.235 718.394 166.651 718.839 164.737 718.839C163.153 718.839 161.745 718.493 160.513 717.8C159.281 717.096 158.313 716.04 157.609 714.632C156.905 713.213 156.553 711.426 156.553 709.27V693.166H160.447V709.006C160.447 710.854 160.964 712.328 161.998 713.428C163.043 714.528 164.374 715.077 165.991 715.077C166.959 715.077 167.944 714.83 168.945 714.335C169.957 713.84 170.804 713.081 171.486 712.058C172.178 711.035 172.525 709.732 172.525 708.148Z" fill="#45556C"/>
<path d="M201.003 698.842L197.505 699.832C197.285 699.249 196.961 698.683 196.532 698.133C196.114 697.572 195.542 697.11 194.816 696.747C194.09 696.384 193.16 696.202 192.027 696.202C190.476 696.202 189.184 696.56 188.15 697.275C187.127 697.979 186.616 698.875 186.616 699.964C186.616 700.932 186.967 701.696 187.671 702.257C188.375 702.818 189.475 703.286 190.971 703.66L194.733 704.584C196.999 705.134 198.688 705.975 199.799 707.108C200.91 708.23 201.465 709.677 201.465 711.448C201.465 712.9 201.047 714.198 200.211 715.341C199.386 716.485 198.231 717.387 196.746 718.047C195.261 718.707 193.534 719.037 191.565 719.037C188.98 719.037 186.841 718.476 185.147 717.354C183.453 716.232 182.381 714.594 181.93 712.438L185.626 711.514C185.978 712.878 186.643 713.901 187.622 714.583C188.612 715.264 189.904 715.605 191.499 715.605C193.314 715.605 194.755 715.22 195.822 714.451C196.9 713.67 197.439 712.735 197.439 711.646C197.439 710.766 197.131 710.029 196.515 709.435C195.899 708.83 194.953 708.379 193.677 708.082L189.453 707.092C187.132 706.542 185.428 705.689 184.339 704.534C183.261 703.368 182.722 701.911 182.722 700.162C182.722 698.732 183.123 697.467 183.926 696.367C184.74 695.267 185.846 694.404 187.242 693.777C188.65 693.15 190.245 692.836 192.027 692.836C194.535 692.836 196.504 693.386 197.934 694.486C199.375 695.586 200.398 697.038 201.003 698.842Z" fill="#45556C"/>
<path d="M217.849 693.166V696.466H204.715V693.166H217.849ZM208.543 687.094H212.437V711.25C212.437 712.35 212.597 713.175 212.916 713.725C213.246 714.264 213.664 714.627 214.17 714.814C214.687 714.99 215.231 715.077 215.803 715.077C216.232 715.077 216.584 715.055 216.859 715.011C217.134 714.957 217.354 714.913 217.519 714.88L218.311 718.377C218.047 718.476 217.679 718.575 217.206 718.674C216.733 718.784 216.133 718.839 215.407 718.839C214.307 718.839 213.229 718.603 212.173 718.13C211.128 717.657 210.259 716.936 209.566 715.968C208.884 715.001 208.543 713.78 208.543 712.306V687.094Z" fill="#45556C"/>
<path d="M253.727 698.842L250.229 699.832C250.009 699.249 249.685 698.683 249.256 698.133C248.838 697.572 248.266 697.11 247.54 696.747C246.814 696.384 245.884 696.202 244.751 696.202C243.2 696.202 241.908 696.56 240.874 697.275C239.851 697.979 239.34 698.875 239.34 699.964C239.34 700.932 239.692 701.696 240.396 702.257C241.1 702.818 242.199 703.286 243.695 703.66L247.457 704.584C249.723 705.134 251.412 705.975 252.523 707.108C253.634 708.23 254.189 709.677 254.189 711.448C254.189 712.9 253.771 714.198 252.935 715.341C252.11 716.485 250.955 717.387 249.47 718.047C247.985 718.707 246.258 719.037 244.289 719.037C241.704 719.037 239.565 718.476 237.871 717.354C236.177 716.232 235.105 714.594 234.654 712.438L238.35 711.514C238.702 712.878 239.367 713.901 240.346 714.583C241.336 715.264 242.628 715.605 244.223 715.605C246.038 715.605 247.479 715.22 248.546 714.451C249.624 713.67 250.163 712.735 250.163 711.646C250.163 710.766 249.855 710.029 249.239 709.435C248.623 708.83 247.677 708.379 246.401 708.082L242.177 707.092C239.857 706.542 238.152 705.689 237.063 704.534C235.985 703.368 235.446 701.911 235.446 700.162C235.446 698.732 235.847 697.467 236.65 696.367C237.464 695.267 238.57 694.404 239.967 693.777C241.374 693.15 242.969 692.836 244.751 692.836C247.259 692.836 249.228 693.386 250.658 694.486C252.099 695.586 253.122 697.038 253.727 698.842Z" fill="#45556C"/>
<path d="M270.177 719.037C267.735 719.037 265.629 718.498 263.858 717.42C262.098 716.331 260.739 714.814 259.782 712.867C258.836 710.909 258.363 708.632 258.363 706.036C258.363 703.44 258.836 701.152 259.782 699.172C260.739 697.181 262.07 695.63 263.775 694.519C265.491 693.397 267.493 692.836 269.781 692.836C271.101 692.836 272.404 693.056 273.691 693.496C274.978 693.936 276.15 694.651 277.206 695.641C278.262 696.62 279.103 697.918 279.73 699.535C280.357 701.152 280.671 703.143 280.671 705.508V707.158H261.135V703.792H276.711C276.711 702.362 276.425 701.086 275.853 699.964C275.292 698.842 274.489 697.957 273.444 697.308C272.41 696.659 271.189 696.334 269.781 696.334C268.23 696.334 266.888 696.719 265.755 697.489C264.633 698.248 263.77 699.238 263.165 700.459C262.56 701.68 262.257 702.989 262.257 704.386V706.63C262.257 708.544 262.587 710.166 263.247 711.497C263.918 712.817 264.848 713.824 266.036 714.517C267.224 715.198 268.604 715.539 270.177 715.539C271.2 715.539 272.124 715.396 272.949 715.111C273.785 714.814 274.505 714.374 275.11 713.791C275.715 713.197 276.183 712.46 276.513 711.58L280.275 712.636C279.879 713.912 279.213 715.034 278.278 716.001C277.343 716.958 276.188 717.706 274.813 718.245C273.438 718.773 271.893 719.037 270.177 719.037Z" fill="#45556C"/>
<path d="M296.391 719.037C294.015 719.037 291.969 718.476 290.253 717.354C288.537 716.232 287.217 714.687 286.293 712.718C285.369 710.749 284.907 708.5 284.907 705.97C284.907 703.396 285.38 701.124 286.326 699.156C287.283 697.176 288.614 695.63 290.319 694.519C292.035 693.397 294.037 692.836 296.325 692.836C298.107 692.836 299.712 693.166 301.142 693.826C302.572 694.486 303.744 695.41 304.657 696.598C305.57 697.786 306.136 699.172 306.356 700.756H302.462C302.165 699.601 301.505 698.578 300.482 697.687C299.47 696.785 298.107 696.334 296.391 696.334C294.873 696.334 293.542 696.73 292.398 697.522C291.265 698.303 290.379 699.409 289.741 700.838C289.114 702.257 288.801 703.924 288.801 705.838C288.801 707.796 289.109 709.501 289.725 710.953C290.352 712.405 291.232 713.532 292.365 714.335C293.509 715.138 294.851 715.539 296.391 715.539C297.403 715.539 298.321 715.363 299.146 715.011C299.971 714.66 300.669 714.154 301.241 713.494C301.813 712.834 302.22 712.042 302.462 711.118H306.356C306.136 712.614 305.592 713.961 304.723 715.16C303.865 716.348 302.726 717.294 301.307 717.998C299.899 718.691 298.261 719.037 296.391 719.037Z" fill="#45556C"/>
<path d="M327.521 708.148V693.166H331.415V718.509H327.521V714.22H327.257C326.663 715.506 325.739 716.601 324.485 717.503C323.231 718.394 321.647 718.839 319.733 718.839C318.149 718.839 316.741 718.493 315.509 717.8C314.277 717.096 313.309 716.04 312.605 714.632C311.901 713.213 311.549 711.426 311.549 709.27V693.166H315.443V709.006C315.443 710.854 315.96 712.328 316.994 713.428C318.039 714.528 319.37 715.077 320.987 715.077C321.955 715.077 322.94 714.83 323.941 714.335C324.953 713.84 325.8 713.081 326.481 712.058C327.174 711.035 327.521 709.732 327.521 708.148Z" fill="#45556C"/>
<path d="M338.048 718.509V693.166H341.809V696.994H342.073C342.535 695.74 343.371 694.723 344.581 693.942C345.791 693.161 347.155 692.77 348.673 692.77C348.959 692.77 349.317 692.776 349.746 692.787C350.175 692.798 350.499 692.814 350.719 692.836V696.796C350.587 696.763 350.285 696.714 349.812 696.648C349.35 696.571 348.86 696.532 348.343 696.532C347.111 696.532 346.011 696.791 345.043 697.308C344.086 697.814 343.327 698.518 342.766 699.419C342.216 700.31 341.941 701.328 341.941 702.472V718.509H338.048Z" fill="#45556C"/>
<path d="M354.836 718.509V693.166H358.73V718.509H354.836ZM356.816 688.942C356.057 688.942 355.402 688.684 354.852 688.167C354.313 687.65 354.044 687.028 354.044 686.302C354.044 685.576 354.313 684.955 354.852 684.438C355.402 683.921 356.057 683.663 356.816 683.663C357.575 683.663 358.224 683.921 358.763 684.438C359.313 684.955 359.588 685.576 359.588 686.302C359.588 687.028 359.313 687.65 358.763 688.167C358.224 688.684 357.575 688.942 356.816 688.942Z" fill="#45556C"/>
<path d="M376.384 693.166V696.466H363.251V693.166H376.384ZM367.078 687.094H370.972V711.25C370.972 712.35 371.132 713.175 371.451 713.725C371.781 714.264 372.199 714.627 372.705 714.814C373.222 714.99 373.766 715.077 374.338 715.077C374.767 715.077 375.119 715.055 375.394 715.011C375.669 714.957 375.889 714.913 376.054 714.88L376.846 718.377C376.582 718.476 376.214 718.575 375.741 718.674C375.268 718.784 374.668 718.839 373.942 718.839C372.842 718.839 371.764 718.603 370.708 718.13C369.663 717.657 368.794 716.936 368.101 715.968C367.419 715.001 367.078 713.78 367.078 712.306V687.094Z" fill="#45556C"/>
<path d="M384.25 728.013C383.59 728.013 383.002 727.958 382.485 727.848C381.968 727.749 381.61 727.65 381.412 727.551L382.402 724.119C383.348 724.361 384.184 724.449 384.91 724.383C385.636 724.317 386.28 723.993 386.841 723.41C387.413 722.838 387.935 721.908 388.408 720.621L389.134 718.641L379.762 693.166H383.986L390.982 713.362H391.246L398.242 693.166H402.466L391.708 722.205C391.224 723.514 390.625 724.598 389.91 725.456C389.195 726.325 388.364 726.968 387.418 727.386C386.483 727.804 385.427 728.013 384.25 728.013Z" fill="#45556C"/>
<path d="M411.326 713.89L411.062 715.671C410.875 716.925 410.589 718.267 410.204 719.697C409.83 721.127 409.439 722.475 409.032 723.74C408.625 725.005 408.29 726.011 408.026 726.759H405.056C405.199 726.055 405.386 725.126 405.617 723.971C405.848 722.816 406.079 721.523 406.31 720.093C406.552 718.674 406.75 717.222 406.904 715.737L407.102 713.89H411.326Z" fill="#45556C"/>
<path d="M438.067 719.103C436.461 719.103 435.004 718.801 433.695 718.196C432.386 717.58 431.347 716.694 430.577 715.539C429.807 714.374 429.422 712.966 429.422 711.316C429.422 709.864 429.708 708.687 430.28 707.785C430.852 706.872 431.616 706.157 432.573 705.64C433.53 705.123 434.586 704.738 435.741 704.485C436.907 704.221 438.078 704.012 439.255 703.858C440.795 703.66 442.044 703.511 443.001 703.412C443.969 703.302 444.673 703.121 445.113 702.868C445.564 702.615 445.789 702.175 445.789 701.548V701.416C445.789 699.788 445.344 698.523 444.453 697.621C443.573 696.719 442.236 696.268 440.443 696.268C438.584 696.268 437.127 696.675 436.071 697.489C435.015 698.303 434.273 699.172 433.844 700.096L430.148 698.776C430.808 697.236 431.688 696.037 432.788 695.179C433.899 694.31 435.108 693.705 436.417 693.364C437.737 693.012 439.035 692.836 440.311 692.836C441.125 692.836 442.06 692.935 443.116 693.133C444.183 693.32 445.212 693.711 446.202 694.305C447.203 694.899 448.033 695.795 448.693 696.994C449.353 698.193 449.683 699.799 449.683 701.812V718.509H445.789V715.077H445.591C445.327 715.627 444.887 716.216 444.271 716.843C443.655 717.47 442.836 718.003 441.813 718.443C440.79 718.883 439.541 719.103 438.067 719.103ZM438.661 715.605C440.201 715.605 441.499 715.303 442.555 714.698C443.622 714.093 444.425 713.312 444.964 712.355C445.514 711.398 445.789 710.392 445.789 709.336V705.772C445.624 705.97 445.261 706.151 444.7 706.316C444.15 706.47 443.512 706.608 442.786 706.729C442.071 706.839 441.373 706.938 440.691 707.026C440.02 707.103 439.475 707.169 439.057 707.224C438.045 707.356 437.099 707.57 436.219 707.867C435.35 708.153 434.646 708.588 434.108 709.171C433.58 709.743 433.316 710.524 433.316 711.514C433.316 712.867 433.816 713.89 434.817 714.583C435.829 715.264 437.11 715.605 438.661 715.605Z" fill="#45556C"/>
<path d="M460.185 703.264V718.509H456.291V693.166H460.053V697.126H460.383C460.977 695.839 461.879 694.805 463.089 694.024C464.299 693.232 465.861 692.836 467.775 692.836C469.491 692.836 470.992 693.188 472.279 693.892C473.566 694.585 474.567 695.641 475.282 697.06C475.997 698.468 476.354 700.25 476.354 702.406V718.509H472.461V702.67C472.461 700.679 471.944 699.128 470.91 698.017C469.876 696.895 468.457 696.334 466.653 696.334C465.41 696.334 464.299 696.604 463.32 697.143C462.352 697.682 461.587 698.468 461.026 699.502C460.465 700.536 460.185 701.79 460.185 703.264Z" fill="#45556C"/>
<path d="M492.54 719.037C490.428 719.037 488.564 718.504 486.947 717.437C485.33 716.359 484.065 714.841 483.152 712.883C482.239 710.914 481.783 708.588 481.783 705.904C481.783 703.242 482.239 700.932 483.152 698.974C484.065 697.016 485.336 695.504 486.964 694.437C488.591 693.37 490.472 692.836 492.606 692.836C494.256 692.836 495.56 693.111 496.517 693.661C497.485 694.2 498.222 694.816 498.728 695.509C499.245 696.191 499.646 696.752 499.932 697.192H500.262V684.718H504.156V718.509H500.394V714.616H499.932C499.646 715.078 499.239 715.66 498.711 716.364C498.183 717.057 497.43 717.679 496.451 718.229C495.472 718.768 494.168 719.037 492.54 719.037ZM493.068 715.539C494.63 715.539 495.95 715.133 497.028 714.319C498.106 713.494 498.926 712.355 499.487 710.903C500.048 709.44 500.328 707.752 500.328 705.838C500.328 703.946 500.053 702.29 499.503 700.871C498.953 699.441 498.139 698.331 497.061 697.539C495.983 696.736 494.652 696.334 493.068 696.334C491.418 696.334 490.043 696.758 488.943 697.605C487.855 698.441 487.035 699.579 486.485 701.02C485.946 702.45 485.677 704.056 485.677 705.838C485.677 707.642 485.952 709.281 486.502 710.755C487.063 712.218 487.888 713.384 488.976 714.253C490.076 715.111 491.44 715.539 493.068 715.539Z" fill="#45556C"/>
<path d="M524.426 718.509V684.718H528.319V697.192H528.649C528.935 696.752 529.331 696.191 529.837 695.509C530.354 694.816 531.091 694.2 532.048 693.661C533.016 693.111 534.325 692.836 535.975 692.836C538.109 692.836 539.99 693.37 541.618 694.437C543.246 695.504 544.516 697.016 545.429 698.974C546.342 700.932 546.799 703.242 546.799 705.904C546.799 708.588 546.342 710.914 545.429 712.883C544.516 714.841 543.251 716.359 541.635 717.437C540.018 718.504 538.153 719.037 536.041 719.037C534.413 719.037 533.11 718.768 532.131 718.229C531.152 717.679 530.398 717.057 529.87 716.364C529.342 715.66 528.935 715.078 528.649 714.616H528.187V718.509H524.426ZM528.253 705.838C528.253 707.752 528.534 709.44 529.095 710.903C529.656 712.355 530.475 713.494 531.553 714.319C532.631 715.133 533.951 715.539 535.513 715.539C537.141 715.539 538.5 715.111 539.589 714.253C540.689 713.384 541.514 712.218 542.064 710.755C542.624 709.281 542.905 707.642 542.905 705.838C542.905 704.056 542.63 702.45 542.08 701.02C541.541 699.579 540.722 698.441 539.622 697.605C538.533 696.758 537.163 696.334 535.513 696.334C533.929 696.334 532.598 696.736 531.52 697.539C530.442 698.331 529.628 699.441 529.078 700.871C528.528 702.29 528.253 703.946 528.253 705.838Z" fill="#45556C"/>
<path d="M568.228 708.148V693.166H572.121V718.509H568.228V714.22H567.964C567.37 715.506 566.446 716.601 565.192 717.503C563.938 718.394 562.354 718.839 560.44 718.839C558.856 718.839 557.448 718.493 556.216 717.8C554.984 717.096 554.016 716.04 553.312 714.632C552.608 713.213 552.256 711.426 552.256 709.27V693.166H556.15V709.006C556.15 710.854 556.667 712.328 557.701 713.428C558.746 714.528 560.077 715.077 561.694 715.077C562.662 715.077 563.646 714.83 564.647 714.335C565.659 713.84 566.506 713.081 567.188 712.058C567.881 711.035 568.228 709.732 568.228 708.148Z" fill="#45556C"/>
<path d="M588.324 719.037C586.212 719.037 584.348 718.504 582.731 717.437C581.114 716.359 579.849 714.841 578.936 712.883C578.023 710.914 577.566 708.588 577.566 705.904C577.566 703.242 578.023 700.932 578.936 698.974C579.849 697.016 581.119 695.504 582.747 694.437C584.375 693.37 586.256 692.836 588.39 692.836C590.04 692.836 591.343 693.111 592.3 693.661C593.268 694.2 594.005 694.816 594.511 695.509C595.028 696.191 595.43 696.752 595.716 697.192H596.046V684.718H599.94V718.509H596.178V714.616H595.716C595.43 715.078 595.023 715.66 594.495 716.364C593.967 717.057 593.213 717.679 592.234 718.229C591.255 718.768 589.952 719.037 588.324 719.037ZM588.852 715.539C590.414 715.539 591.734 715.133 592.812 714.319C593.89 713.494 594.709 712.355 595.27 710.903C595.831 709.44 596.112 707.752 596.112 705.838C596.112 703.946 595.837 702.29 595.287 700.871C594.737 699.441 593.923 698.331 592.845 697.539C591.767 696.736 590.436 696.334 588.852 696.334C587.202 696.334 585.827 696.758 584.727 697.605C583.638 698.441 582.819 699.579 582.269 701.02C581.73 702.45 581.46 704.056 581.46 705.838C581.46 707.642 581.735 709.281 582.285 710.755C582.846 712.218 583.671 713.384 584.76 714.253C585.86 715.111 587.224 715.539 588.852 715.539Z" fill="#45556C"/>
<path d="M617.342 728.541C615.461 728.541 613.844 728.299 612.491 727.815C611.139 727.342 610.011 726.715 609.109 725.934C608.218 725.164 607.509 724.339 606.981 723.459L610.083 721.281C610.435 721.743 610.88 722.271 611.419 722.865C611.958 723.47 612.695 723.993 613.63 724.433C614.576 724.884 615.813 725.109 617.342 725.109C619.388 725.109 621.077 724.614 622.408 723.624C623.739 722.634 624.404 721.083 624.404 718.971V713.824H624.074C623.788 714.286 623.381 714.858 622.853 715.539C622.336 716.21 621.588 716.81 620.609 717.338C619.641 717.855 618.332 718.113 616.682 718.113C614.636 718.113 612.799 717.629 611.172 716.661C609.555 715.693 608.273 714.286 607.327 712.438C606.392 710.59 605.925 708.346 605.925 705.706C605.925 703.11 606.381 700.849 607.294 698.925C608.207 696.989 609.478 695.493 611.106 694.437C612.734 693.37 614.614 692.836 616.748 692.836C618.398 692.836 619.707 693.111 620.675 693.661C621.654 694.2 622.402 694.816 622.919 695.509C623.447 696.191 623.854 696.752 624.14 697.192H624.536V693.166H628.298V719.235C628.298 721.413 627.803 723.184 626.813 724.548C625.834 725.923 624.514 726.93 622.853 727.568C621.203 728.217 619.366 728.541 617.342 728.541ZM617.21 714.616C618.772 714.616 620.092 714.258 621.17 713.543C622.248 712.828 623.068 711.8 623.629 710.458C624.19 709.116 624.47 707.51 624.47 705.64C624.47 703.814 624.195 702.202 623.645 700.805C623.095 699.408 622.281 698.314 621.203 697.522C620.125 696.73 618.794 696.334 617.21 696.334C615.56 696.334 614.185 696.752 613.085 697.588C611.997 698.424 611.177 699.546 610.627 700.954C610.088 702.362 609.819 703.924 609.819 705.64C609.819 707.4 610.094 708.956 610.644 710.309C611.205 711.651 612.029 712.707 613.118 713.477C614.218 714.236 615.582 714.616 617.21 714.616Z" fill="#45556C"/>
<path d="M645.552 719.037C643.11 719.037 641.004 718.498 639.233 717.42C637.473 716.331 636.115 714.814 635.158 712.867C634.212 710.909 633.739 708.632 633.739 706.036C633.739 703.44 634.212 701.152 635.158 699.172C636.115 697.181 637.446 695.63 639.151 694.519C640.866 693.397 642.868 692.836 645.156 692.836C646.476 692.836 647.78 693.056 649.067 693.496C650.354 693.936 651.525 694.651 652.581 695.641C653.637 696.62 654.479 697.918 655.105 699.535C655.732 701.152 656.046 703.143 656.046 705.508V707.158H636.511V703.792H652.086C652.086 702.362 651.8 701.086 651.228 699.964C650.667 698.842 649.864 697.957 648.819 697.308C647.785 696.659 646.564 696.334 645.156 696.334C643.605 696.334 642.263 696.719 641.13 697.489C640.008 698.248 639.145 699.238 638.54 700.459C637.935 701.68 637.633 702.989 637.633 704.386V706.63C637.633 708.544 637.963 710.166 638.623 711.497C639.294 712.817 640.223 713.824 641.411 714.517C642.599 715.198 643.979 715.539 645.552 715.539C646.575 715.539 647.499 715.396 648.324 715.111C649.16 714.814 649.881 714.374 650.486 713.791C651.091 713.197 651.558 712.46 651.888 711.58L655.65 712.636C655.254 713.912 654.588 715.034 653.654 716.001C652.719 716.958 651.564 717.706 650.189 718.245C648.814 718.773 647.268 719.037 645.552 719.037Z" fill="#45556C"/>
<path d="M672.492 693.166V696.466H659.358V693.166H672.492ZM663.186 687.094H667.08V711.25C667.08 712.35 667.24 713.175 667.558 713.725C667.888 714.264 668.306 714.627 668.812 714.814C669.329 714.99 669.874 715.077 670.446 715.077C670.875 715.077 671.227 715.055 671.502 715.011C671.777 714.957 671.997 714.913 672.162 714.88L672.954 718.377C672.69 718.476 672.321 718.575 671.848 718.674C671.375 718.784 670.776 718.839 670.05 718.839C668.95 718.839 667.872 718.603 666.816 718.13C665.771 717.657 664.902 716.936 664.209 715.968C663.527 715.001 663.186 713.78 663.186 712.306V687.094Z" fill="#45556C"/>
<path d="M690.418 718.509V693.166H694.18V696.994H694.444C694.906 695.74 695.742 694.723 696.952 693.942C698.162 693.161 699.526 692.77 701.044 692.77C701.33 692.77 701.688 692.776 702.117 692.787C702.546 692.798 702.87 692.814 703.09 692.836V696.796C702.958 696.763 702.656 696.714 702.183 696.648C701.721 696.571 701.231 696.532 700.714 696.532C699.482 696.532 698.382 696.791 697.414 697.308C696.457 697.814 695.698 698.518 695.137 699.419C694.587 700.31 694.312 701.328 694.312 702.472V718.509H690.418Z" fill="#45556C"/>
<path d="M717.061 719.037C714.619 719.037 712.513 718.498 710.742 717.42C708.982 716.331 707.623 714.814 706.666 712.867C705.72 710.909 705.247 708.632 705.247 706.036C705.247 703.44 705.72 701.152 706.666 699.172C707.623 697.181 708.954 695.63 710.659 694.519C712.375 693.397 714.377 692.836 716.665 692.836C717.985 692.836 719.288 693.056 720.575 693.496C721.862 693.936 723.034 694.651 724.09 695.641C725.146 696.62 725.987 697.918 726.614 699.535C727.241 701.152 727.555 703.143 727.555 705.508V707.158H708.019V703.792H723.595C723.595 702.362 723.309 701.086 722.737 699.964C722.176 698.842 721.373 697.957 720.328 697.308C719.294 696.659 718.073 696.334 716.665 696.334C715.114 696.334 713.772 696.719 712.639 697.489C711.517 698.248 710.654 699.238 710.049 700.459C709.444 701.68 709.141 702.989 709.141 704.386V706.63C709.141 708.544 709.471 710.166 710.131 711.497C710.802 712.817 711.732 713.824 712.92 714.517C714.108 715.198 715.488 715.539 717.061 715.539C718.084 715.539 719.008 715.396 719.833 715.111C720.669 714.814 721.389 714.374 721.994 713.791C722.599 713.197 723.067 712.46 723.397 711.58L727.159 712.636C726.763 713.912 726.097 715.034 725.162 716.001C724.227 716.958 723.072 717.706 721.697 718.245C720.322 718.773 718.777 719.037 717.061 719.037Z" fill="#45556C"/>
<path d="M740.437 719.103C738.831 719.103 737.373 718.801 736.064 718.196C734.755 717.58 733.716 716.694 732.946 715.539C732.176 714.374 731.791 712.966 731.791 711.316C731.791 709.864 732.077 708.687 732.649 707.785C733.221 706.872 733.985 706.157 734.942 705.64C735.899 705.123 736.955 704.738 738.11 704.485C739.276 704.221 740.448 704.012 741.625 703.858C743.165 703.66 744.413 703.511 745.37 703.412C746.338 703.302 747.042 703.121 747.482 702.868C747.933 702.615 748.158 702.175 748.158 701.548V701.416C748.158 699.788 747.713 698.523 746.822 697.621C745.942 696.719 744.605 696.268 742.813 696.268C740.954 696.268 739.496 696.675 738.44 697.489C737.384 698.303 736.642 699.172 736.213 700.096L732.517 698.776C733.177 697.236 734.057 696.037 735.157 695.179C736.268 694.31 737.478 693.705 738.787 693.364C740.107 693.012 741.405 692.836 742.681 692.836C743.495 692.836 744.429 692.935 745.485 693.133C746.552 693.32 747.581 693.711 748.571 694.305C749.572 694.899 750.402 695.795 751.062 696.994C751.722 698.193 752.052 699.799 752.052 701.812V718.509H748.158V715.077H747.96C747.696 715.627 747.256 716.216 746.64 716.843C746.024 717.47 745.205 718.003 744.182 718.443C743.159 718.883 741.911 719.103 740.437 719.103ZM741.031 715.605C742.571 715.605 743.869 715.303 744.924 714.698C745.991 714.093 746.794 713.312 747.333 712.355C747.883 711.398 748.158 710.392 748.158 709.336V705.772C747.993 705.97 747.63 706.151 747.069 706.316C746.519 706.47 745.881 706.608 745.155 706.729C744.44 706.839 743.742 706.938 743.06 707.026C742.389 707.103 741.845 707.169 741.427 707.224C740.415 707.356 739.469 707.57 738.589 707.867C737.72 708.153 737.016 708.588 736.477 709.171C735.949 709.743 735.685 710.524 735.685 711.514C735.685 712.867 736.185 713.89 737.186 714.583C738.198 715.264 739.48 715.605 741.031 715.605Z" fill="#45556C"/>
<path d="M762.554 684.718V718.509H758.66V684.718H762.554Z" fill="#45556C"/>
<path d="M769.187 718.509V693.166H773.081V718.509H769.187ZM771.167 688.942C770.408 688.942 769.753 688.684 769.203 688.167C768.664 687.65 768.395 687.028 768.395 686.302C768.395 685.576 768.664 684.955 769.203 684.438C769.753 683.921 770.408 683.663 771.167 683.663C771.926 683.663 772.575 683.921 773.114 684.438C773.664 684.955 773.939 685.576 773.939 686.302C773.939 687.028 773.664 687.65 773.114 688.167C772.575 688.684 771.926 688.942 771.167 688.942Z" fill="#45556C"/>
<path d="M790.735 693.166V696.466H777.602V693.166H790.735ZM781.43 687.094H785.323V711.25C785.323 712.35 785.483 713.175 785.802 713.725C786.132 714.264 786.55 714.627 787.056 714.814C787.573 714.99 788.117 715.077 788.689 715.077C789.118 715.077 789.47 715.055 789.745 715.011C790.02 714.957 790.24 714.913 790.405 714.88L791.197 718.377C790.933 718.476 790.565 718.575 790.092 718.674C789.619 718.784 789.019 718.839 788.293 718.839C787.193 718.839 786.115 718.603 785.059 718.13C784.014 717.657 783.145 716.936 782.452 715.968C781.771 715.001 781.43 713.78 781.43 712.306V687.094Z" fill="#45556C"/>
<path d="M796.093 718.509V693.166H799.987V718.509H796.093ZM798.073 688.942C797.314 688.942 796.66 688.684 796.11 688.167C795.571 687.65 795.301 687.028 795.301 686.302C795.301 685.576 795.571 684.955 796.11 684.438C796.66 683.921 797.314 683.663 798.073 683.663C798.832 683.663 799.481 683.921 800.02 684.438C800.57 684.955 800.845 685.576 800.845 686.302C800.845 687.028 800.57 687.65 800.02 688.167C799.481 688.684 798.832 688.942 798.073 688.942Z" fill="#45556C"/>
<path d="M817.246 719.037C814.804 719.037 812.697 718.498 810.926 717.42C809.167 716.331 807.808 714.814 806.851 712.867C805.905 710.909 805.432 708.632 805.432 706.036C805.432 703.44 805.905 701.152 806.851 699.172C807.808 697.181 809.139 695.63 810.844 694.519C812.56 693.397 814.562 692.836 816.85 692.836C818.17 692.836 819.473 693.056 820.76 693.496C822.047 693.936 823.219 694.651 824.275 695.641C825.33 696.62 826.172 697.918 826.799 699.535C827.426 701.152 827.739 703.143 827.739 705.508V707.158H808.204V703.792H823.78C823.78 702.362 823.494 701.086 822.922 699.964C822.361 698.842 821.558 697.957 820.513 697.308C819.479 696.659 818.258 696.334 816.85 696.334C815.299 696.334 813.957 696.719 812.824 697.489C811.702 698.248 810.838 699.238 810.233 700.459C809.629 701.68 809.326 702.989 809.326 704.386V706.63C809.326 708.544 809.656 710.166 810.316 711.497C810.987 712.817 811.916 713.824 813.104 714.517C814.292 715.198 815.673 715.539 817.246 715.539C818.269 715.539 819.193 715.396 820.018 715.111C820.854 714.814 821.574 714.374 822.179 713.791C822.784 713.197 823.252 712.46 823.582 711.58L827.343 712.636C826.947 713.912 826.282 715.034 825.347 716.001C824.412 716.958 823.257 717.706 821.882 718.245C820.507 718.773 818.962 719.037 817.246 719.037Z" fill="#45556C"/>
<path d="M851.115 698.842L847.617 699.832C847.397 699.249 847.073 698.683 846.644 698.133C846.226 697.572 845.654 697.11 844.928 696.747C844.202 696.384 843.272 696.202 842.139 696.202C840.588 696.202 839.296 696.56 838.262 697.275C837.239 697.979 836.727 698.875 836.727 699.964C836.727 700.932 837.08 701.696 837.783 702.257C838.487 702.818 839.587 703.286 841.083 703.66L844.845 704.584C847.111 705.134 848.8 705.975 849.911 707.108C851.022 708.23 851.577 709.677 851.577 711.448C851.577 712.9 851.159 714.198 850.323 715.341C849.498 716.485 848.343 717.387 846.858 718.047C845.373 718.707 843.646 719.037 841.677 719.037C839.092 719.037 836.953 718.476 835.259 717.354C833.565 716.232 832.493 714.594 832.042 712.438L835.738 711.514C836.09 712.878 836.755 713.901 837.734 714.583C838.724 715.264 840.016 715.605 841.611 715.605C843.426 715.605 844.867 715.22 845.934 714.451C847.012 713.67 847.551 712.735 847.551 711.646C847.551 710.766 847.243 710.029 846.627 709.435C846.011 708.83 845.065 708.379 843.789 708.082L839.565 707.092C837.244 706.542 835.54 705.689 834.451 704.534C833.373 703.368 832.834 701.911 832.834 700.162C832.834 698.732 833.235 697.467 834.038 696.367C834.852 695.267 835.958 694.404 837.354 693.777C838.762 693.15 840.357 692.836 842.139 692.836C844.647 692.836 846.616 693.386 848.046 694.486C849.487 695.586 850.51 697.038 851.115 698.842Z" fill="#45556C"/>
<path d="M859.777 718.773C858.963 718.773 858.265 718.482 857.682 717.899C857.099 717.316 856.807 716.617 856.807 715.803C856.807 714.989 857.099 714.291 857.682 713.708C858.265 713.125 858.963 712.834 859.777 712.834C860.591 712.834 861.29 713.125 861.873 713.708C862.456 714.291 862.747 714.989 862.747 715.803C862.747 716.342 862.61 716.837 862.335 717.288C862.071 717.739 861.713 718.102 861.262 718.377C860.822 718.641 860.327 718.773 859.777 718.773Z" fill="#45556C"/>
<path d="M106.201 33.1875C106.201 14.8586 121.06 0 139.389 0H179.214C197.543 0 212.401 14.8585 212.401 33.1875V73.0125C212.401 91.3414 197.543 106.2 179.214 106.2H139.389C121.06 106.2 106.201 91.3414 106.201 73.0125V33.1875Z" fill="#6DA9C6"/>
<path d="M146.177 72.6731V67.6195L159.584 54.4765C160.867 53.1817 161.935 52.0315 162.79 51.0258C163.645 50.0201 164.286 49.0458 164.713 48.103C165.141 47.1602 165.355 46.1545 165.355 45.086C165.355 43.8666 165.078 42.8232 164.525 41.9558C163.972 41.0758 163.211 40.397 162.243 39.9193C161.275 39.4416 160.175 39.2027 158.943 39.2027C157.674 39.2027 156.561 39.4667 155.606 39.9947C154.65 40.5101 153.909 41.2455 153.381 42.2009C152.865 43.1563 152.608 44.294 152.608 45.614H145.951C145.951 43.1626 146.511 41.0318 147.629 39.2216C148.748 37.4114 150.288 36.0097 152.249 35.0166C154.223 34.0235 156.486 33.5269 159.038 33.5269C161.627 33.5269 163.903 34.0109 165.864 34.9789C167.825 35.9468 169.346 37.2731 170.427 38.9576C171.521 40.6421 172.067 42.5655 172.067 44.7277C172.067 46.1734 171.791 47.5939 171.238 48.9893C170.685 50.3847 169.71 51.9309 168.315 53.628C166.932 55.3251 164.99 57.3804 162.488 59.7941L155.832 66.5636V66.8276H172.652V72.6731H146.177Z" fill="white"/>
</svg>
