<svg width="984" height="910" viewBox="0 0 984 910" fill="none" xmlns="http://www.w3.org/2000/svg">
<mask id="path-1-inside-1_3424_885" fill="white">
<path d="M1.6582 106.2C1.6582 76.8736 25.4319 53.1 54.7582 53.1H930.908C960.235 53.1 984.008 76.8737 984.008 106.2V856.238C984.008 885.564 960.234 909.338 930.908 909.338H54.7582C25.4318 909.338 1.6582 885.564 1.6582 856.238V106.2Z"/>
</mask>
<path d="M1.6582 106.2C1.6582 76.8736 25.4319 53.1 54.7582 53.1H930.908C960.235 53.1 984.008 76.8737 984.008 106.2V856.238C984.008 885.564 960.234 909.338 930.908 909.338H54.7582C25.4318 909.338 1.6582 885.564 1.6582 856.238V106.2Z" fill="white"/>
<path d="M54.7582 53.1V56.4188H930.908V53.1V49.7813H54.7582V53.1ZM984.008 106.2H980.689V856.238H984.008H987.327V106.2H984.008ZM930.908 909.338V906.019H54.7582V909.338V912.656H930.908V909.338ZM1.6582 856.238H4.97695V106.2H1.6582H-1.66055V856.238H1.6582ZM54.7582 909.338V906.019C27.2647 906.019 4.97695 883.731 4.97695 856.238H1.6582H-1.66055C-1.66055 887.397 23.599 912.656 54.7582 912.656V909.338ZM984.008 856.238H980.689C980.689 883.731 958.402 906.019 930.908 906.019V909.338V912.656C962.067 912.656 987.327 887.397 987.327 856.238H984.008ZM930.908 53.1V56.4188C958.402 56.4188 980.689 78.7066 980.689 106.2H984.008H987.327C987.327 75.0408 962.067 49.7813 930.908 49.7813V53.1ZM54.7582 53.1V49.7813C23.599 49.7813 -1.66055 75.0407 -1.66055 106.2H1.6582H4.97695C4.97695 78.7065 27.2648 56.4188 54.7582 56.4188V53.1Z" fill="#E2E8F0" mask="url(#path-1-inside-1_3424_885)"/>
<path d="M111.178 235.631C111.178 209.971 131.98 189.169 157.64 189.169H224.015C249.676 189.169 270.478 209.971 270.478 235.631V302.006C270.478 327.667 249.676 348.469 224.015 348.469H157.64C131.98 348.469 111.178 327.667 111.178 302.006V235.631Z" fill="#DBEAFE"/>
<path d="M190.828 295.369V262.181" stroke="#6DA9C6" stroke-width="6.6375" stroke-linecap="round" stroke-linejoin="round"/>
<path d="M210.74 295.369V242.269" stroke="#6DA9C6" stroke-width="6.6375" stroke-linecap="round" stroke-linejoin="round"/>
<path d="M170.916 295.369V282.094" stroke="#6DA9C6" stroke-width="6.6375" stroke-linecap="round" stroke-linejoin="round"/>
<path d="M142.17 436.26C141.95 434.202 141.023 432.599 139.388 431.452C137.77 430.305 135.664 429.731 133.072 429.731C131.249 429.731 129.685 430.006 128.381 430.556C127.077 431.106 126.079 431.852 125.387 432.795C124.696 433.738 124.343 434.814 124.327 436.024C124.327 437.03 124.555 437.902 125.01 438.641C125.482 439.379 126.118 440.008 126.92 440.526C127.721 441.029 128.609 441.454 129.583 441.799C130.557 442.145 131.539 442.436 132.529 442.671L137.055 443.803C138.878 444.227 140.63 444.801 142.311 445.523C144.008 446.246 145.525 447.158 146.86 448.258C148.212 449.358 149.28 450.685 150.066 452.241C150.852 453.797 151.244 455.619 151.244 457.709C151.244 460.538 150.522 463.029 149.076 465.181C147.63 467.318 145.54 468.992 142.806 470.202C140.088 471.396 136.796 471.993 132.93 471.993C129.174 471.993 125.914 471.412 123.148 470.249C120.398 469.086 118.246 467.389 116.69 465.158C115.15 462.926 114.317 460.208 114.191 457.002H122.795C122.92 458.684 123.439 460.082 124.35 461.198C125.262 462.314 126.448 463.146 127.91 463.696C129.387 464.246 131.037 464.521 132.859 464.521C134.761 464.521 136.426 464.239 137.856 463.673C139.302 463.091 140.433 462.29 141.251 461.269C142.068 460.231 142.484 459.022 142.5 457.639C142.484 456.382 142.115 455.345 141.392 454.527C140.669 453.695 139.656 453.003 138.351 452.453C137.063 451.887 135.554 451.385 133.826 450.945L128.334 449.53C124.358 448.509 121.215 446.961 118.906 444.887C116.611 442.797 115.464 440.024 115.464 436.567C115.464 433.722 116.234 431.232 117.774 429.095C119.33 426.958 121.443 425.3 124.115 424.121C126.786 422.927 129.811 422.33 133.189 422.33C136.615 422.33 139.616 422.927 142.193 424.121C144.786 425.3 146.821 426.942 148.298 429.047C149.775 431.137 150.537 433.542 150.585 436.26H142.17Z" fill="#0F172B"/>
<path d="M180.248 456.036V435.058H188.781V471.263H180.507V464.828H180.13C179.313 466.855 177.97 468.513 176.1 469.801C174.246 471.09 171.959 471.734 169.241 471.734C166.868 471.734 164.77 471.208 162.947 470.155C161.14 469.086 159.726 467.538 158.705 465.511C157.683 463.469 157.173 461.001 157.173 458.11V435.058H165.705V456.79C165.705 459.084 166.334 460.907 167.591 462.259C168.848 463.61 170.498 464.286 172.541 464.286C173.798 464.286 175.016 463.979 176.194 463.366C177.373 462.754 178.339 461.842 179.093 460.632C179.863 459.407 180.248 457.874 180.248 456.036Z" fill="#0F172B"/>
<path d="M224.679 444.628L216.901 445.476C216.681 444.691 216.296 443.952 215.746 443.261C215.211 442.569 214.489 442.011 213.577 441.587C212.666 441.163 211.55 440.951 210.23 440.951C208.454 440.951 206.962 441.336 205.752 442.106C204.557 442.876 203.968 443.873 203.984 445.099C203.968 446.152 204.353 447.008 205.139 447.668C205.94 448.328 207.26 448.87 209.099 449.295L215.274 450.615C218.7 451.353 221.245 452.524 222.911 454.127C224.592 455.729 225.441 457.827 225.457 460.42C225.441 462.699 224.773 464.71 223.453 466.454C222.149 468.183 220.334 469.534 218.008 470.508C215.683 471.483 213.011 471.97 209.994 471.97C205.563 471.97 201.996 471.043 199.293 469.188C196.591 467.318 194.98 464.718 194.461 461.386L202.782 460.585C203.159 462.219 203.96 463.453 205.186 464.286C206.412 465.118 208.007 465.535 209.971 465.535C211.998 465.535 213.624 465.118 214.85 464.286C216.091 463.453 216.712 462.424 216.712 461.198C216.712 460.161 216.311 459.304 215.51 458.629C214.724 457.953 213.499 457.434 211.833 457.073L205.657 455.777C202.185 455.054 199.615 453.836 197.95 452.123C196.284 450.395 195.459 448.21 195.475 445.571C195.459 443.339 196.064 441.406 197.29 439.772C198.531 438.122 200.252 436.849 202.452 435.954C204.667 435.042 207.221 434.587 210.112 434.587C214.355 434.587 217.694 435.49 220.13 437.297C222.581 439.104 224.098 441.548 224.679 444.628Z" fill="#0F172B"/>
<path d="M249.08 435.058V441.658H228.268V435.058H249.08ZM233.406 426.384H241.939V460.373C241.939 461.52 242.111 462.4 242.457 463.013C242.818 463.61 243.29 464.019 243.871 464.239C244.453 464.459 245.097 464.568 245.804 464.568C246.338 464.568 246.826 464.529 247.265 464.451C247.721 464.372 248.067 464.301 248.303 464.239L249.74 470.909C249.285 471.066 248.633 471.239 247.784 471.428C246.951 471.616 245.93 471.726 244.72 471.758C242.583 471.82 240.658 471.498 238.945 470.791C237.232 470.068 235.873 468.953 234.867 467.444C233.877 465.936 233.39 464.05 233.406 461.787V426.384Z" fill="#0F172B"/>
<path d="M265.144 471.993C262.85 471.993 260.783 471.585 258.945 470.768C257.122 469.935 255.676 468.709 254.608 467.091C253.555 465.472 253.029 463.476 253.029 461.104C253.029 459.061 253.406 457.372 254.16 456.036C254.914 454.7 255.943 453.632 257.248 452.83C258.552 452.029 260.021 451.424 261.655 451.015C263.305 450.591 265.01 450.285 266.77 450.096C268.892 449.876 270.612 449.68 271.932 449.507C273.252 449.318 274.211 449.035 274.808 448.658C275.421 448.265 275.727 447.66 275.727 446.843V446.702C275.727 444.926 275.201 443.551 274.148 442.577C273.095 441.603 271.579 441.116 269.599 441.116C267.509 441.116 265.851 441.571 264.625 442.483C263.415 443.394 262.598 444.471 262.174 445.712L254.207 444.581C254.836 442.381 255.873 440.542 257.318 439.065C258.764 437.572 260.532 436.457 262.622 435.718C264.712 434.964 267.022 434.587 269.552 434.587C271.296 434.587 273.032 434.791 274.761 435.199C276.489 435.608 278.068 436.284 279.498 437.227C280.928 438.154 282.075 439.419 282.94 441.021C283.82 442.624 284.26 444.628 284.26 447.032V471.263H276.057V466.289H275.774C275.256 467.295 274.525 468.238 273.582 469.118C272.655 469.982 271.484 470.681 270.07 471.215C268.672 471.734 267.03 471.993 265.144 471.993ZM267.359 465.723C269.072 465.723 270.557 465.386 271.814 464.71C273.071 464.019 274.038 463.107 274.714 461.976C275.405 460.844 275.751 459.611 275.751 458.275V454.009C275.484 454.229 275.028 454.433 274.384 454.622C273.755 454.81 273.048 454.975 272.262 455.117C271.476 455.258 270.699 455.384 269.929 455.494C269.159 455.604 268.491 455.698 267.925 455.777C266.652 455.949 265.513 456.232 264.507 456.625C263.502 457.018 262.708 457.568 262.127 458.275C261.545 458.967 261.255 459.862 261.255 460.962C261.255 462.534 261.828 463.72 262.975 464.521C264.122 465.323 265.584 465.723 267.359 465.723Z" fill="#0F172B"/>
<path d="M291.349 471.263V435.058H299.881V471.263H291.349ZM295.638 429.92C294.287 429.92 293.124 429.472 292.15 428.576C291.176 427.665 290.689 426.573 290.689 425.3C290.689 424.011 291.176 422.919 292.15 422.023C293.124 421.112 294.287 420.656 295.638 420.656C297.005 420.656 298.168 421.112 299.127 422.023C300.101 422.919 300.588 424.011 300.588 425.3C300.588 426.573 300.101 427.665 299.127 428.576C298.168 429.472 297.005 429.92 295.638 429.92Z" fill="#0F172B"/>
<path d="M315.697 450.049V471.263H307.164V435.058H315.32V441.21H315.744C316.577 439.183 317.905 437.572 319.728 436.378C321.566 435.184 323.837 434.587 326.54 434.587C329.038 434.587 331.214 435.121 333.069 436.189C334.939 437.258 336.384 438.806 337.406 440.833C338.443 442.86 338.953 445.319 338.938 448.21V471.263H330.405V449.53C330.405 447.11 329.777 445.217 328.519 443.85C327.278 442.483 325.557 441.799 323.358 441.799C321.865 441.799 320.537 442.129 319.374 442.789C318.227 443.433 317.323 444.368 316.663 445.594C316.019 446.82 315.697 448.305 315.697 450.049Z" fill="#0F172B"/>
<path d="M121.41 585.759L112.17 551.968H116.328L123.39 579.49H123.72L130.913 551.968H135.533L142.727 579.49H143.057L150.119 551.968H154.277L145.037 585.759H140.813L133.355 558.832H133.091L125.633 585.759H121.41Z" fill="#45556C"/>
<path d="M166.614 586.287C164.172 586.287 162.066 585.748 160.295 584.67C158.535 583.581 157.176 582.064 156.219 580.117C155.273 578.159 154.8 575.882 154.8 573.286C154.8 570.69 155.273 568.402 156.219 566.422C157.176 564.431 158.507 562.88 160.212 561.769C161.928 560.647 163.93 560.086 166.218 560.086C167.538 560.086 168.841 560.306 170.128 560.746C171.415 561.186 172.587 561.901 173.643 562.891C174.699 563.87 175.54 565.168 176.167 566.785C176.794 568.402 177.108 570.393 177.108 572.758V574.408H157.572V571.042H173.148C173.148 569.612 172.862 568.336 172.29 567.214C171.729 566.092 170.926 565.207 169.881 564.558C168.847 563.909 167.626 563.584 166.218 563.584C164.667 563.584 163.325 563.969 162.192 564.739C161.07 565.498 160.207 566.488 159.602 567.709C158.997 568.93 158.694 570.239 158.694 571.636V573.88C158.694 575.794 159.024 577.416 159.684 578.747C160.355 580.067 161.285 581.074 162.473 581.767C163.661 582.449 165.041 582.789 166.614 582.789C167.637 582.789 168.561 582.646 169.386 582.361C170.222 582.064 170.942 581.624 171.547 581.041C172.152 580.447 172.62 579.71 172.95 578.83L176.712 579.886C176.316 581.162 175.65 582.284 174.715 583.251C173.78 584.208 172.625 584.956 171.25 585.495C169.875 586.023 168.33 586.287 166.614 586.287Z" fill="#45556C"/>
<path d="M195.1 585.759V560.416H198.862V564.376H199.192C199.72 563.023 200.573 561.973 201.75 561.225C202.927 560.466 204.34 560.086 205.99 560.086C207.662 560.086 209.053 560.466 210.164 561.225C211.286 561.973 212.161 563.023 212.788 564.376H213.052C213.701 563.067 214.674 562.028 215.972 561.258C217.27 560.477 218.827 560.086 220.642 560.086C222.907 560.086 224.761 560.796 226.202 562.215C227.643 563.623 228.363 565.817 228.363 568.798V585.759H224.469V568.798C224.469 566.928 223.958 565.592 222.935 564.789C221.912 563.986 220.708 563.584 219.322 563.584C217.54 563.584 216.159 564.123 215.18 565.201C214.201 566.268 213.712 567.621 213.712 569.26V585.759H209.752V568.402C209.752 566.961 209.284 565.801 208.349 564.921C207.414 564.03 206.21 563.584 204.736 563.584C203.724 563.584 202.778 563.854 201.898 564.393C201.029 564.932 200.325 565.68 199.786 566.637C199.258 567.582 198.994 568.677 198.994 569.92V585.759H195.1Z" fill="#45556C"/>
<path d="M245.279 586.287C242.991 586.287 240.984 585.743 239.257 584.654C237.541 583.565 236.199 582.042 235.231 580.084C234.274 578.126 233.796 575.838 233.796 573.22C233.796 570.58 234.274 568.275 235.231 566.307C236.199 564.338 237.541 562.809 239.257 561.72C240.984 560.631 242.991 560.086 245.279 560.086C247.567 560.086 249.569 560.631 251.285 561.72C253.012 562.809 254.354 564.338 255.311 566.307C256.279 568.275 256.763 570.58 256.763 573.22C256.763 575.838 256.279 578.126 255.311 580.084C254.354 582.042 253.012 583.565 251.285 584.654C249.569 585.743 247.567 586.287 245.279 586.287ZM245.279 582.789C247.017 582.789 248.447 582.344 249.569 581.453C250.691 580.562 251.522 579.391 252.061 577.939C252.6 576.487 252.869 574.914 252.869 573.22C252.869 571.526 252.6 569.947 252.061 568.484C251.522 567.022 250.691 565.839 249.569 564.937C248.447 564.035 247.017 563.584 245.279 563.584C243.541 563.584 242.111 564.035 240.99 564.937C239.868 565.839 239.037 567.022 238.498 568.484C237.959 569.947 237.69 571.526 237.69 573.22C237.69 574.914 237.959 576.487 238.498 577.939C239.037 579.391 239.868 580.562 240.99 581.453C242.111 582.344 243.541 582.789 245.279 582.789Z" fill="#45556C"/>
<path d="M266.102 570.514V585.759H262.208V560.416H265.97V564.376H266.3C266.894 563.089 267.796 562.055 269.006 561.274C270.216 560.482 271.778 560.086 273.691 560.086C275.407 560.086 276.909 560.438 278.196 561.142C279.483 561.835 280.484 562.891 281.199 564.31C281.914 565.718 282.271 567.5 282.271 569.656V585.759H278.377V569.92C278.377 567.929 277.86 566.378 276.826 565.267C275.792 564.145 274.373 563.584 272.57 563.584C271.327 563.584 270.216 563.854 269.237 564.393C268.269 564.932 267.504 565.718 266.943 566.752C266.382 567.786 266.102 569.04 266.102 570.514Z" fill="#45556C"/>
<path d="M288.887 585.759V560.416H292.781V585.759H288.887ZM290.867 556.192C290.108 556.192 289.454 555.934 288.904 555.417C288.365 554.9 288.095 554.278 288.095 553.552C288.095 552.826 288.365 552.205 288.904 551.688C289.454 551.171 290.108 550.913 290.867 550.913C291.626 550.913 292.275 551.171 292.814 551.688C293.364 552.205 293.639 552.826 293.639 553.552C293.639 554.278 293.364 554.9 292.814 555.417C292.275 555.934 291.626 556.192 290.867 556.192Z" fill="#45556C"/>
<path d="M310.436 560.416V563.716H297.302V560.416H310.436ZM301.13 554.344H305.024V578.5C305.024 579.6 305.183 580.425 305.502 580.975C305.832 581.514 306.25 581.877 306.756 582.064C307.273 582.24 307.818 582.328 308.39 582.328C308.819 582.328 309.171 582.306 309.446 582.262C309.721 582.207 309.941 582.163 310.106 582.13L310.898 585.627C310.634 585.726 310.265 585.825 309.792 585.924C309.319 586.034 308.72 586.089 307.994 586.089C306.894 586.089 305.816 585.853 304.76 585.38C303.715 584.907 302.846 584.186 302.153 583.218C301.471 582.251 301.13 581.03 301.13 579.556V554.344Z" fill="#45556C"/>
<path d="M325.817 586.287C323.529 586.287 321.522 585.743 319.795 584.654C318.079 583.565 316.737 582.042 315.769 580.084C314.812 578.126 314.334 575.838 314.334 573.22C314.334 570.58 314.812 568.275 315.769 566.307C316.737 564.338 318.079 562.809 319.795 561.72C321.522 560.631 323.529 560.086 325.817 560.086C328.105 560.086 330.107 560.631 331.823 561.72C333.55 562.809 334.892 564.338 335.849 566.307C336.817 568.275 337.301 570.58 337.301 573.22C337.301 575.838 336.817 578.126 335.849 580.084C334.892 582.042 333.55 583.565 331.823 584.654C330.107 585.743 328.105 586.287 325.817 586.287ZM325.817 582.789C327.555 582.789 328.985 582.344 330.107 581.453C331.229 580.562 332.06 579.391 332.599 577.939C333.138 576.487 333.407 574.914 333.407 573.22C333.407 571.526 333.138 569.947 332.599 568.484C332.06 567.022 331.229 565.839 330.107 564.937C328.985 564.035 327.555 563.584 325.817 563.584C324.079 563.584 322.65 564.035 321.528 564.937C320.406 565.839 319.575 567.022 319.036 568.484C318.497 569.947 318.228 571.526 318.228 573.22C318.228 574.914 318.497 576.487 319.036 577.939C319.575 579.391 320.406 580.562 321.528 581.453C322.65 582.344 324.079 582.789 325.817 582.789Z" fill="#45556C"/>
<path d="M342.746 585.759V560.416H346.508V564.244H346.772C347.234 562.99 348.07 561.973 349.28 561.192C350.49 560.411 351.854 560.02 353.372 560.02C353.658 560.02 354.015 560.026 354.444 560.037C354.873 560.048 355.197 560.064 355.417 560.086V564.046C355.285 564.013 354.983 563.964 354.51 563.898C354.048 563.821 353.559 563.782 353.042 563.782C351.81 563.782 350.71 564.041 349.742 564.558C348.785 565.064 348.026 565.768 347.465 566.67C346.915 567.56 346.64 568.578 346.64 569.722V585.759H342.746Z" fill="#45556C"/>
<path d="M374.016 585.759H369.727L382.134 551.968H386.358L398.766 585.759H394.476L384.378 557.314H384.114L374.016 585.759ZM375.6 572.56H392.892V576.19H375.6V572.56Z" fill="#45556C"/>
<path d="M407.622 551.968V585.759H403.53V551.968H407.622Z" fill="#45556C"/>
<path d="M427.368 595.263V560.416H431.129V564.442H431.591C431.877 564.002 432.273 563.441 432.779 562.759C433.296 562.066 434.033 561.45 434.99 560.911C435.958 560.361 437.267 560.086 438.917 560.086C441.051 560.086 442.932 560.62 444.56 561.687C446.188 562.754 447.458 564.266 448.371 566.224C449.284 568.182 449.741 570.492 449.741 573.154C449.741 575.838 449.284 578.164 448.371 580.133C447.458 582.091 446.193 583.609 444.576 584.687C442.96 585.754 441.095 586.287 438.983 586.287C437.355 586.287 436.052 586.018 435.073 585.479C434.094 584.929 433.34 584.307 432.812 583.614C432.284 582.91 431.877 582.328 431.591 581.866H431.261V595.263H427.368ZM431.195 573.088C431.195 575.002 431.476 576.69 432.037 578.153C432.598 579.605 433.417 580.744 434.495 581.569C435.573 582.383 436.893 582.789 438.455 582.789C440.083 582.789 441.442 582.361 442.531 581.503C443.63 580.634 444.455 579.468 445.005 578.005C445.566 576.531 445.847 574.892 445.847 573.088C445.847 571.306 445.572 569.7 445.022 568.27C444.483 566.829 443.663 565.691 442.564 564.855C441.475 564.008 440.105 563.584 438.455 563.584C436.871 563.584 435.54 563.986 434.462 564.789C433.384 565.581 432.57 566.692 432.02 568.121C431.47 569.54 431.195 571.196 431.195 573.088Z" fill="#45556C"/>
<path d="M465.807 586.287C463.365 586.287 461.259 585.748 459.488 584.67C457.728 583.581 456.369 582.064 455.412 580.117C454.467 578.159 453.994 575.882 453.994 573.286C453.994 570.69 454.467 568.402 455.412 566.422C456.369 564.431 457.7 562.88 459.405 561.769C461.121 560.647 463.123 560.086 465.411 560.086C466.731 560.086 468.035 560.306 469.322 560.746C470.609 561.186 471.78 561.901 472.836 562.891C473.892 563.87 474.733 565.168 475.36 566.785C475.987 568.402 476.301 570.393 476.301 572.758V574.408H456.765V571.042H472.341C472.341 569.612 472.055 568.336 471.483 567.214C470.922 566.092 470.119 565.207 469.074 564.558C468.04 563.909 466.819 563.584 465.411 563.584C463.86 563.584 462.518 563.969 461.385 564.739C460.263 565.498 459.4 566.488 458.795 567.709C458.19 568.93 457.887 570.239 457.887 571.636V573.88C457.887 575.794 458.217 577.416 458.877 578.747C459.548 580.067 460.478 581.074 461.666 581.767C462.854 582.449 464.234 582.789 465.807 582.789C466.83 582.789 467.754 582.646 468.579 582.361C469.415 582.064 470.135 581.624 470.74 581.041C471.345 580.447 471.813 579.71 472.143 578.83L475.905 579.886C475.509 581.162 474.843 582.284 473.908 583.251C472.973 584.208 471.818 584.956 470.443 585.495C469.069 586.023 467.523 586.287 465.807 586.287Z" fill="#45556C"/>
<path d="M481.725 585.759V560.416H485.487V564.244H485.751C486.213 562.99 487.049 561.973 488.259 561.192C489.469 560.411 490.833 560.02 492.351 560.02C492.637 560.02 492.994 560.026 493.423 560.037C493.852 560.048 494.177 560.064 494.397 560.086V564.046C494.265 564.013 493.962 563.964 493.489 563.898C493.027 563.821 492.538 563.782 492.021 563.782C490.789 563.782 489.689 564.041 488.721 564.558C487.764 565.064 487.005 565.768 486.444 566.67C485.894 567.56 485.619 568.578 485.619 569.722V585.759H481.725Z" fill="#45556C"/>
<path d="M511.387 560.416V563.716H497.725V560.416H511.387ZM501.817 585.759V556.918C501.817 555.466 502.158 554.256 502.84 553.288C503.522 552.32 504.408 551.594 505.497 551.111C506.586 550.627 507.735 550.385 508.945 550.385C509.902 550.385 510.683 550.462 511.288 550.616C511.893 550.77 512.344 550.913 512.641 551.045L511.519 554.41C511.321 554.344 511.046 554.262 510.694 554.163C510.353 554.064 509.902 554.014 509.341 554.014C508.054 554.014 507.125 554.339 506.553 554.988C505.992 555.637 505.711 556.588 505.711 557.842V585.759H501.817Z" fill="#45556C"/>
<path d="M525.597 586.287C523.309 586.287 521.302 585.743 519.575 584.654C517.859 583.565 516.517 582.042 515.549 580.084C514.592 578.126 514.113 575.838 514.113 573.22C514.113 570.58 514.592 568.275 515.549 566.307C516.517 564.338 517.859 562.809 519.575 561.72C521.302 560.631 523.309 560.086 525.597 560.086C527.885 560.086 529.887 560.631 531.603 561.72C533.33 562.809 534.672 564.338 535.629 566.307C536.597 568.275 537.081 570.58 537.081 573.22C537.081 575.838 536.597 578.126 535.629 580.084C534.672 582.042 533.33 583.565 531.603 584.654C529.887 585.743 527.885 586.287 525.597 586.287ZM525.597 582.789C527.335 582.789 528.765 582.344 529.887 581.453C531.009 580.562 531.839 579.391 532.378 577.939C532.917 576.487 533.187 574.914 533.187 573.22C533.187 571.526 532.917 569.947 532.378 568.484C531.839 567.022 531.009 565.839 529.887 564.937C528.765 564.035 527.335 563.584 525.597 563.584C523.859 563.584 522.429 564.035 521.307 564.937C520.185 565.839 519.355 567.022 518.816 568.484C518.277 569.947 518.007 571.526 518.007 573.22C518.007 574.914 518.277 576.487 518.816 577.939C519.355 579.391 520.185 580.562 521.307 581.453C522.429 582.344 523.859 582.789 525.597 582.789Z" fill="#45556C"/>
<path d="M542.526 585.759V560.416H546.287V564.244H546.551C547.013 562.99 547.849 561.973 549.059 561.192C550.269 560.411 551.633 560.02 553.151 560.02C553.437 560.02 553.795 560.026 554.224 560.037C554.653 560.048 554.977 560.064 555.197 560.086V564.046C555.065 564.013 554.763 563.964 554.29 563.898C553.828 563.821 553.338 563.782 552.821 563.782C551.589 563.782 550.489 564.041 549.521 564.558C548.564 565.064 547.805 565.768 547.244 566.67C546.694 567.56 546.419 568.578 546.419 569.722V585.759H542.526Z" fill="#45556C"/>
<path d="M559.314 585.759V560.416H563.076V564.376H563.406C563.934 563.023 564.786 561.973 565.963 561.225C567.14 560.466 568.553 560.086 570.203 560.086C571.875 560.086 573.267 560.466 574.378 561.225C575.5 561.973 576.374 563.023 577.001 564.376H577.265C577.914 563.067 578.888 562.028 580.186 561.258C581.484 560.477 583.04 560.086 584.855 560.086C587.121 560.086 588.974 560.796 590.415 562.215C591.856 563.623 592.577 565.817 592.577 568.798V585.759H588.683V568.798C588.683 566.928 588.171 565.592 587.148 564.789C586.125 563.986 584.921 563.584 583.535 563.584C581.753 563.584 580.373 564.123 579.394 565.201C578.415 566.268 577.925 567.621 577.925 569.26V585.759H573.965V568.402C573.965 566.961 573.498 565.801 572.563 564.921C571.628 564.03 570.423 563.584 568.949 563.584C567.937 563.584 566.992 563.854 566.112 564.393C565.243 564.932 564.539 565.68 564 566.637C563.472 567.582 563.208 568.677 563.208 569.92V585.759H559.314Z" fill="#45556C"/>
<path d="M606.655 586.353C605.049 586.353 603.591 586.051 602.283 585.446C600.974 584.83 599.934 583.944 599.164 582.789C598.394 581.624 598.009 580.216 598.009 578.566C598.009 577.114 598.295 575.937 598.867 575.035C599.439 574.122 600.204 573.407 601.161 572.89C602.118 572.373 603.173 571.988 604.328 571.735C605.494 571.471 606.666 571.262 607.843 571.108C609.383 570.91 610.631 570.761 611.588 570.662C612.556 570.552 613.26 570.371 613.7 570.118C614.151 569.865 614.377 569.425 614.377 568.798V568.666C614.377 567.038 613.931 565.773 613.04 564.871C612.16 563.969 610.824 563.518 609.031 563.518C607.172 563.518 605.714 563.925 604.658 564.739C603.602 565.553 602.86 566.422 602.431 567.346L598.735 566.026C599.395 564.486 600.275 563.287 601.375 562.429C602.486 561.56 603.696 560.955 605.005 560.614C606.325 560.262 607.623 560.086 608.899 560.086C609.713 560.086 610.648 560.185 611.704 560.383C612.771 560.57 613.799 560.961 614.789 561.555C615.79 562.149 616.621 563.045 617.28 564.244C617.94 565.443 618.27 567.049 618.27 569.062V585.759H614.377V582.328H614.179C613.915 582.877 613.475 583.466 612.859 584.093C612.243 584.72 611.423 585.253 610.4 585.693C609.377 586.133 608.129 586.353 606.655 586.353ZM607.249 582.855C608.789 582.855 610.087 582.553 611.143 581.948C612.21 581.343 613.013 580.562 613.552 579.605C614.102 578.648 614.377 577.642 614.377 576.586V573.022C614.212 573.22 613.849 573.401 613.288 573.566C612.738 573.72 612.1 573.858 611.374 573.979C610.659 574.089 609.96 574.188 609.278 574.276C608.607 574.353 608.063 574.419 607.645 574.474C606.633 574.606 605.687 574.82 604.807 575.117C603.938 575.403 603.234 575.838 602.695 576.421C602.167 576.993 601.903 577.774 601.903 578.764C601.903 580.117 602.403 581.14 603.404 581.833C604.416 582.515 605.698 582.855 607.249 582.855Z" fill="#45556C"/>
<path d="M628.772 570.514V585.759H624.879V560.416H628.64V564.376H628.97C629.564 563.089 630.466 562.055 631.676 561.274C632.886 560.482 634.448 560.086 636.362 560.086C638.078 560.086 639.58 560.438 640.866 561.142C642.153 561.835 643.154 562.891 643.869 564.31C644.584 565.718 644.942 567.5 644.942 569.656V585.759H641.048V569.92C641.048 567.929 640.531 566.378 639.497 565.267C638.463 564.145 637.044 563.584 635.24 563.584C633.997 563.584 632.886 563.854 631.907 564.393C630.939 564.932 630.175 565.718 629.614 566.752C629.053 567.786 628.772 569.04 628.772 570.514Z" fill="#45556C"/>
<path d="M661.854 586.287C659.478 586.287 657.432 585.726 655.716 584.604C654 583.482 652.68 581.937 651.756 579.968C650.832 577.999 650.37 575.75 650.37 573.22C650.37 570.646 650.843 568.374 651.789 566.406C652.746 564.426 654.077 562.88 655.782 561.769C657.498 560.647 659.5 560.086 661.788 560.086C663.57 560.086 665.176 560.416 666.606 561.076C668.036 561.736 669.207 562.66 670.12 563.848C671.033 565.036 671.599 566.422 671.819 568.006H667.926C667.629 566.851 666.969 565.828 665.946 564.937C664.934 564.035 663.57 563.584 661.854 563.584C660.336 563.584 659.005 563.98 657.861 564.772C656.728 565.553 655.842 566.659 655.205 568.088C654.578 569.507 654.264 571.174 654.264 573.088C654.264 575.046 654.572 576.751 655.188 578.203C655.815 579.655 656.695 580.782 657.828 581.585C658.972 582.388 660.314 582.789 661.854 582.789C662.866 582.789 663.784 582.613 664.609 582.262C665.434 581.91 666.133 581.404 666.705 580.744C667.277 580.084 667.684 579.292 667.926 578.368H671.819C671.599 579.864 671.055 581.211 670.186 582.41C669.328 583.598 668.19 584.544 666.771 585.248C665.363 585.941 663.724 586.287 661.854 586.287Z" fill="#45556C"/>
<path d="M687.638 586.287C685.196 586.287 683.09 585.748 681.319 584.67C679.559 583.581 678.201 582.064 677.244 580.117C676.298 578.159 675.825 575.882 675.825 573.286C675.825 570.69 676.298 568.402 677.244 566.422C678.201 564.431 679.532 562.88 681.237 561.769C682.953 560.647 684.954 560.086 687.242 560.086C688.562 560.086 689.866 560.306 691.153 560.746C692.44 561.186 693.611 561.901 694.667 562.891C695.723 563.87 696.565 565.168 697.192 566.785C697.819 568.402 698.132 570.393 698.132 572.758V574.408H678.597V571.042H694.172C694.172 569.612 693.886 568.336 693.314 567.214C692.753 566.092 691.95 565.207 690.905 564.558C689.871 563.909 688.65 563.584 687.242 563.584C685.691 563.584 684.349 563.969 683.216 564.739C682.095 565.498 681.231 566.488 680.626 567.709C680.021 568.93 679.719 570.239 679.719 571.636V573.88C679.719 575.794 680.049 577.416 680.709 578.747C681.38 580.067 682.309 581.074 683.497 581.767C684.685 582.449 686.065 582.789 687.638 582.789C688.661 582.789 689.585 582.646 690.41 582.361C691.246 582.064 691.967 581.624 692.572 581.041C693.177 580.447 693.644 579.71 693.974 578.83L697.736 579.886C697.34 581.162 696.675 582.284 695.74 583.251C694.805 584.208 693.65 584.956 692.275 585.495C690.9 586.023 689.354 586.287 687.638 586.287Z" fill="#45556C"/>
<path d="M709.364 581.14L709.1 582.921C708.913 584.175 708.627 585.517 708.242 586.947C707.868 588.377 707.478 589.725 707.071 590.99C706.664 592.255 706.328 593.261 706.064 594.009H703.094C703.237 593.305 703.424 592.376 703.655 591.221C703.886 590.066 704.117 588.773 704.348 587.343C704.59 585.924 704.788 584.472 704.942 582.987L705.14 581.14H709.364Z" fill="#45556C"/>
<path d="M114.744 652.134V626.791H118.506V630.751H118.836C119.364 629.398 120.216 628.348 121.393 627.6C122.57 626.841 123.984 626.461 125.633 626.461C127.305 626.461 128.697 626.841 129.808 627.6C130.93 628.348 131.804 629.398 132.431 630.751H132.695C133.344 629.442 134.318 628.403 135.616 627.633C136.914 626.852 138.47 626.461 140.285 626.461C142.551 626.461 144.404 627.171 145.845 628.59C147.286 629.998 148.007 632.192 148.007 635.173V652.134H144.113V635.173C144.113 633.303 143.601 631.967 142.578 631.164C141.555 630.361 140.351 629.959 138.965 629.959C137.183 629.959 135.803 630.498 134.824 631.576C133.845 632.643 133.355 633.996 133.355 635.635V652.134H129.395V634.777C129.395 633.336 128.928 632.176 127.993 631.296C127.058 630.405 125.853 629.959 124.38 629.959C123.368 629.959 122.422 630.229 121.542 630.768C120.673 631.307 119.969 632.055 119.43 633.012C118.902 633.957 118.638 635.052 118.638 636.295V652.134H114.744Z" fill="#45556C"/>
<path d="M162.085 652.728C160.479 652.728 159.022 652.426 157.713 651.821C156.404 651.205 155.364 650.319 154.594 649.164C153.824 647.999 153.439 646.591 153.439 644.941C153.439 643.489 153.725 642.312 154.297 641.41C154.869 640.497 155.634 639.782 156.591 639.265C157.548 638.748 158.604 638.363 159.759 638.11C160.924 637.846 162.096 637.637 163.273 637.483C164.813 637.285 166.061 637.136 167.018 637.037C167.986 636.927 168.69 636.746 169.13 636.493C169.581 636.24 169.807 635.8 169.807 635.173V635.041C169.807 633.413 169.361 632.148 168.47 631.246C167.59 630.344 166.254 629.893 164.461 629.893C162.602 629.893 161.144 630.3 160.089 631.114C159.033 631.928 158.29 632.797 157.861 633.721L154.165 632.401C154.825 630.861 155.705 629.662 156.805 628.804C157.916 627.935 159.126 627.33 160.435 626.989C161.755 626.637 163.053 626.461 164.329 626.461C165.143 626.461 166.078 626.56 167.134 626.758C168.201 626.945 169.229 627.336 170.219 627.93C171.22 628.524 172.051 629.42 172.711 630.619C173.371 631.818 173.701 633.424 173.701 635.437V652.134H169.807V648.703H169.609C169.345 649.252 168.905 649.841 168.289 650.468C167.673 651.095 166.853 651.628 165.83 652.068C164.807 652.508 163.559 652.728 162.085 652.728ZM162.679 649.23C164.219 649.23 165.517 648.928 166.573 648.323C167.64 647.718 168.443 646.937 168.982 645.98C169.532 645.023 169.807 644.017 169.807 642.961V639.397C169.642 639.595 169.279 639.776 168.718 639.941C168.168 640.095 167.53 640.233 166.804 640.354C166.089 640.464 165.39 640.563 164.708 640.651C164.037 640.728 163.493 640.794 163.075 640.849C162.063 640.981 161.117 641.195 160.237 641.492C159.368 641.778 158.664 642.213 158.125 642.796C157.597 643.368 157.333 644.149 157.333 645.139C157.333 646.492 157.834 647.515 158.835 648.208C159.847 648.889 161.128 649.23 162.679 649.23Z" fill="#45556C"/>
<path d="M184.202 636.889V652.134H180.309V626.791H184.07V630.751H184.4C184.994 629.464 185.896 628.43 187.106 627.649C188.316 626.857 189.878 626.461 191.792 626.461C193.508 626.461 195.01 626.813 196.297 627.517C197.584 628.21 198.585 629.266 199.299 630.685C200.014 632.093 200.372 633.875 200.372 636.031V652.134H196.478V636.295C196.478 634.304 195.961 632.753 194.927 631.642C193.893 630.52 192.474 629.959 190.67 629.959C189.427 629.959 188.316 630.229 187.337 630.768C186.369 631.307 185.605 632.093 185.044 633.127C184.483 634.161 184.202 635.415 184.202 636.889Z" fill="#45556C"/>
<path d="M214.446 652.728C212.84 652.728 211.383 652.426 210.074 651.821C208.765 651.205 207.725 650.319 206.955 649.164C206.185 647.999 205.8 646.591 205.8 644.941C205.8 643.489 206.086 642.312 206.658 641.41C207.23 640.497 207.995 639.782 208.952 639.265C209.909 638.748 210.965 638.363 212.12 638.11C213.286 637.846 214.457 637.637 215.634 637.483C217.174 637.285 218.422 637.136 219.379 637.037C220.347 636.927 221.051 636.746 221.491 636.493C221.942 636.24 222.168 635.8 222.168 635.173V635.041C222.168 633.413 221.722 632.148 220.831 631.246C219.951 630.344 218.615 629.893 216.822 629.893C214.963 629.893 213.506 630.3 212.45 631.114C211.394 631.928 210.651 632.797 210.222 633.721L206.526 632.401C207.186 630.861 208.066 629.662 209.166 628.804C210.277 627.935 211.487 627.33 212.796 626.989C214.116 626.637 215.414 626.461 216.69 626.461C217.504 626.461 218.439 626.56 219.495 626.758C220.562 626.945 221.59 627.336 222.58 627.93C223.581 628.524 224.412 629.42 225.072 630.619C225.732 631.818 226.062 633.424 226.062 635.437V652.134H222.168V648.703H221.97C221.706 649.252 221.266 649.841 220.65 650.468C220.034 651.095 219.214 651.628 218.191 652.068C217.168 652.508 215.92 652.728 214.446 652.728ZM215.04 649.23C216.58 649.23 217.878 648.928 218.934 648.323C220.001 647.718 220.804 646.937 221.343 645.98C221.893 645.023 222.168 644.017 222.168 642.961V639.397C222.003 639.595 221.64 639.776 221.079 639.941C220.529 640.095 219.891 640.233 219.165 640.354C218.45 640.464 217.751 640.563 217.069 640.651C216.398 640.728 215.854 640.794 215.436 640.849C214.424 640.981 213.478 641.195 212.598 641.492C211.729 641.778 211.025 642.213 210.486 642.796C209.958 643.368 209.694 644.149 209.694 645.139C209.694 646.492 210.195 647.515 211.196 648.208C212.208 648.889 213.489 649.23 215.04 649.23Z" fill="#45556C"/>
<path d="M242.899 662.166C241.018 662.166 239.401 661.924 238.048 661.44C236.696 660.967 235.568 660.34 234.666 659.559C233.775 658.789 233.066 657.964 232.538 657.084L235.64 654.906C235.992 655.368 236.437 655.896 236.976 656.49C237.515 657.095 238.252 657.618 239.187 658.058C240.133 658.509 241.37 658.734 242.899 658.734C244.945 658.734 246.634 658.239 247.965 657.249C249.296 656.259 249.961 654.708 249.961 652.596V647.449H249.631C249.345 647.911 248.938 648.483 248.41 649.164C247.893 649.835 247.145 650.435 246.166 650.963C245.198 651.48 243.889 651.738 242.239 651.738C240.193 651.738 238.356 651.254 236.729 650.286C235.112 649.318 233.83 647.911 232.884 646.063C231.949 644.215 231.482 641.971 231.482 639.331C231.482 636.735 231.938 634.474 232.851 632.55C233.764 630.614 235.035 629.118 236.663 628.062C238.29 626.995 240.171 626.461 242.305 626.461C243.955 626.461 245.264 626.736 246.232 627.286C247.211 627.825 247.959 628.441 248.476 629.134C249.004 629.816 249.411 630.377 249.697 630.817H250.093V626.791H253.855V652.86C253.855 655.038 253.36 656.809 252.37 658.173C251.391 659.548 250.071 660.555 248.41 661.193C246.76 661.842 244.923 662.166 242.899 662.166ZM242.767 648.241C244.329 648.241 245.649 647.883 246.727 647.168C247.805 646.453 248.625 645.425 249.186 644.083C249.747 642.741 250.027 641.135 250.027 639.265C250.027 637.439 249.752 635.827 249.202 634.43C248.652 633.034 247.838 631.939 246.76 631.147C245.682 630.355 244.351 629.959 242.767 629.959C241.117 629.959 239.742 630.377 238.642 631.213C237.554 632.049 236.734 633.171 236.184 634.579C235.645 635.987 235.376 637.549 235.376 639.265C235.376 641.025 235.651 642.581 236.201 643.934C236.762 645.276 237.587 646.332 238.675 647.102C239.775 647.861 241.139 648.241 242.767 648.241Z" fill="#45556C"/>
<path d="M271.109 652.662C268.667 652.662 266.561 652.123 264.79 651.045C263.03 649.956 261.672 648.439 260.715 646.492C259.769 644.534 259.296 642.257 259.296 639.661C259.296 637.065 259.769 634.777 260.715 632.797C261.672 630.806 263.003 629.255 264.707 628.144C266.423 627.022 268.425 626.461 270.713 626.461C272.033 626.461 273.337 626.681 274.624 627.121C275.911 627.561 277.082 628.276 278.138 629.266C279.194 630.245 280.036 631.543 280.662 633.16C281.289 634.777 281.603 636.768 281.603 639.133V640.783H262.068V637.417H277.643C277.643 635.987 277.357 634.711 276.785 633.589C276.224 632.467 275.421 631.582 274.376 630.933C273.342 630.284 272.121 629.959 270.713 629.959C269.162 629.959 267.82 630.344 266.687 631.114C265.565 631.873 264.702 632.863 264.097 634.084C263.492 635.305 263.19 636.614 263.19 638.011V640.255C263.19 642.169 263.52 643.791 264.18 645.122C264.851 646.442 265.78 647.449 266.968 648.142C268.156 648.824 269.536 649.164 271.109 649.164C272.132 649.164 273.056 649.021 273.881 648.736C274.717 648.439 275.438 647.999 276.043 647.416C276.648 646.822 277.115 646.085 277.445 645.205L281.207 646.261C280.811 647.537 280.146 648.659 279.211 649.626C278.276 650.583 277.121 651.331 275.746 651.87C274.371 652.398 272.825 652.662 271.109 652.662Z" fill="#45556C"/>
<path d="M309.165 652.662C307.053 652.662 305.189 652.129 303.572 651.062C301.955 649.984 300.69 648.466 299.777 646.508C298.864 644.539 298.408 642.213 298.408 639.529C298.408 636.867 298.864 634.557 299.777 632.599C300.69 630.641 301.961 629.129 303.589 628.062C305.216 626.995 307.097 626.461 309.231 626.461C310.881 626.461 312.185 626.736 313.142 627.286C314.11 627.825 314.847 628.441 315.353 629.134C315.87 629.816 316.271 630.377 316.557 630.817H316.887V618.343H320.781V652.134H317.019V648.241H316.557C316.271 648.703 315.864 649.285 315.336 649.989C314.808 650.682 314.055 651.304 313.076 651.854C312.097 652.393 310.793 652.662 309.165 652.662ZM309.693 649.164C311.255 649.164 312.575 648.758 313.653 647.944C314.731 647.119 315.551 645.98 316.112 644.528C316.673 643.065 316.953 641.377 316.953 639.463C316.953 637.571 316.678 635.915 316.128 634.496C315.578 633.067 314.764 631.956 313.686 631.164C312.608 630.361 311.277 629.959 309.693 629.959C308.043 629.959 306.668 630.383 305.568 631.23C304.479 632.066 303.66 633.204 303.11 634.645C302.571 636.075 302.302 637.681 302.302 639.463C302.302 641.267 302.577 642.906 303.127 644.38C303.687 645.843 304.512 647.009 305.601 647.878C306.701 648.736 308.065 649.164 309.693 649.164Z" fill="#45556C"/>
<path d="M327.954 652.134V626.791H331.716V630.619H331.98C332.442 629.365 333.278 628.348 334.488 627.567C335.698 626.786 337.062 626.395 338.58 626.395C338.866 626.395 339.223 626.401 339.652 626.412C340.081 626.423 340.406 626.439 340.626 626.461V630.421C340.494 630.388 340.191 630.339 339.718 630.273C339.256 630.196 338.767 630.157 338.25 630.157C337.018 630.157 335.918 630.416 334.95 630.933C333.993 631.439 333.234 632.143 332.673 633.045C332.123 633.935 331.848 634.953 331.848 636.097V652.134H327.954Z" fill="#45556C"/>
<path d="M344.742 652.134V626.791H348.636V652.134H344.742ZM346.722 622.567C345.963 622.567 345.309 622.309 344.759 621.792C344.22 621.275 343.95 620.653 343.95 619.927C343.95 619.201 344.22 618.58 344.759 618.063C345.309 617.546 345.963 617.288 346.722 617.288C347.481 617.288 348.13 617.546 348.669 618.063C349.219 618.58 349.494 619.201 349.494 619.927C349.494 620.653 349.219 621.275 348.669 621.792C348.13 622.309 347.481 622.567 346.722 622.567Z" fill="#45556C"/>
<path d="M366.555 626.791V630.091H352.893V626.791H366.555ZM356.985 652.134V623.293C356.985 621.841 357.326 620.631 358.008 619.663C358.69 618.695 359.575 617.969 360.664 617.486C361.753 617.002 362.903 616.76 364.113 616.76C365.07 616.76 365.851 616.837 366.456 616.991C367.061 617.145 367.512 617.288 367.809 617.42L366.687 620.785C366.489 620.719 366.214 620.637 365.862 620.538C365.521 620.439 365.07 620.389 364.509 620.389C363.222 620.389 362.292 620.714 361.72 621.363C361.159 622.012 360.879 622.963 360.879 624.217V652.134H356.985Z" fill="#45556C"/>
<path d="M382.534 626.791V630.091H369.401V626.791H382.534ZM373.229 620.719H377.123V644.875C377.123 645.975 377.282 646.8 377.601 647.35C377.931 647.889 378.349 648.252 378.855 648.439C379.372 648.615 379.916 648.703 380.488 648.703C380.917 648.703 381.269 648.681 381.544 648.637C381.819 648.582 382.039 648.538 382.204 648.505L382.996 652.002C382.732 652.101 382.364 652.2 381.891 652.299C381.418 652.409 380.818 652.464 380.092 652.464C378.992 652.464 377.914 652.228 376.859 651.755C375.814 651.282 374.945 650.561 374.252 649.593C373.57 648.626 373.229 647.405 373.229 645.931V620.719Z" fill="#45556C"/>
<path d="M407.919 652.728C406.313 652.728 404.855 652.426 403.546 651.821C402.237 651.205 401.198 650.319 400.428 649.164C399.658 647.999 399.273 646.591 399.273 644.941C399.273 643.489 399.559 642.312 400.131 641.41C400.703 640.497 401.467 639.782 402.424 639.265C403.381 638.748 404.437 638.363 405.592 638.11C406.758 637.846 407.93 637.637 409.107 637.483C410.647 637.285 411.895 637.136 412.852 637.037C413.82 636.927 414.524 636.746 414.964 636.493C415.415 636.24 415.641 635.8 415.641 635.173V635.041C415.641 633.413 415.195 632.148 414.304 631.246C413.424 630.344 412.088 629.893 410.295 629.893C408.436 629.893 406.978 630.3 405.922 631.114C404.866 631.928 404.124 632.797 403.695 633.721L399.999 632.401C400.659 630.861 401.539 629.662 402.639 628.804C403.75 627.935 404.96 627.33 406.269 626.989C407.589 626.637 408.887 626.461 410.163 626.461C410.977 626.461 411.912 626.56 412.968 626.758C414.035 626.945 415.063 627.336 416.053 627.93C417.054 628.524 417.884 629.42 418.544 630.619C419.204 631.818 419.534 633.424 419.534 635.437V652.134H415.641V648.703H415.443C415.179 649.252 414.739 649.841 414.123 650.468C413.507 651.095 412.687 651.628 411.664 652.068C410.641 652.508 409.393 652.728 407.919 652.728ZM408.513 649.23C410.053 649.23 411.351 648.928 412.407 648.323C413.474 647.718 414.277 646.937 414.816 645.98C415.366 645.023 415.641 644.017 415.641 642.961V639.397C415.476 639.595 415.113 639.776 414.552 639.941C414.002 640.095 413.364 640.233 412.638 640.354C411.923 640.464 411.224 640.563 410.542 640.651C409.871 640.728 409.327 640.794 408.909 640.849C407.897 640.981 406.951 641.195 406.071 641.492C405.202 641.778 404.498 642.213 403.959 642.796C403.431 643.368 403.167 644.149 403.167 645.139C403.167 646.492 403.667 647.515 404.668 648.208C405.68 648.889 406.962 649.23 408.513 649.23Z" fill="#45556C"/>
<path d="M430.036 636.889V652.134H426.142V626.791H429.904V630.751H430.234C430.828 629.464 431.73 628.43 432.94 627.649C434.15 626.857 435.712 626.461 437.626 626.461C439.342 626.461 440.843 626.813 442.13 627.517C443.417 628.21 444.418 629.266 445.133 630.685C445.848 632.093 446.206 633.875 446.206 636.031V652.134H442.312V636.295C442.312 634.304 441.795 632.753 440.761 631.642C439.727 630.52 438.308 629.959 436.504 629.959C435.261 629.959 434.15 630.229 433.171 630.768C432.203 631.307 431.439 632.093 430.878 633.127C430.317 634.161 430.036 635.415 430.036 636.889Z" fill="#45556C"/>
<path d="M462.392 652.662C460.28 652.662 458.415 652.129 456.798 651.062C455.181 649.984 453.917 648.466 453.004 646.508C452.091 644.539 451.634 642.213 451.634 639.529C451.634 636.867 452.091 634.557 453.004 632.599C453.917 630.641 455.187 629.129 456.815 628.062C458.443 626.995 460.324 626.461 462.458 626.461C464.108 626.461 465.411 626.736 466.368 627.286C467.336 627.825 468.073 628.441 468.579 629.134C469.096 629.816 469.498 630.377 469.784 630.817H470.114V618.343H474.007V652.134H470.245V648.241H469.784C469.498 648.703 469.091 649.285 468.563 649.989C468.035 650.682 467.281 651.304 466.302 651.854C465.323 652.393 464.02 652.662 462.392 652.662ZM462.92 649.164C464.482 649.164 465.802 648.758 466.88 647.944C467.958 647.119 468.777 645.98 469.338 644.528C469.899 643.065 470.18 641.377 470.18 639.463C470.18 637.571 469.905 635.915 469.355 634.496C468.805 633.067 467.991 631.956 466.913 631.164C465.835 630.361 464.504 629.959 462.92 629.959C461.27 629.959 459.895 630.383 458.795 631.23C457.706 632.066 456.886 633.204 456.336 634.645C455.797 636.075 455.528 637.681 455.528 639.463C455.528 641.267 455.803 642.906 456.353 644.38C456.914 645.843 457.739 647.009 458.828 647.878C459.928 648.736 461.292 649.164 462.92 649.164Z" fill="#45556C"/>
<path d="M494.277 652.134V618.343H498.171V630.817H498.501C498.787 630.377 499.183 629.816 499.689 629.134C500.206 628.441 500.943 627.825 501.9 627.286C502.868 626.736 504.177 626.461 505.827 626.461C507.961 626.461 509.841 626.995 511.469 628.062C513.097 629.129 514.368 630.641 515.281 632.599C516.194 634.557 516.65 636.867 516.65 639.529C516.65 642.213 516.194 644.539 515.281 646.508C514.368 648.466 513.103 649.984 511.486 651.062C509.869 652.129 508.005 652.662 505.893 652.662C504.265 652.662 502.961 652.393 501.982 651.854C501.003 651.304 500.25 650.682 499.722 649.989C499.194 649.285 498.787 648.703 498.501 648.241H498.039V652.134H494.277ZM498.105 639.463C498.105 641.377 498.385 643.065 498.946 644.528C499.507 645.98 500.327 647.119 501.405 647.944C502.483 648.758 503.803 649.164 505.365 649.164C506.993 649.164 508.351 648.736 509.44 647.878C510.54 647.009 511.365 645.843 511.915 644.38C512.476 642.906 512.756 641.267 512.756 639.463C512.756 637.681 512.481 636.075 511.931 634.645C511.392 633.204 510.573 632.066 509.473 631.23C508.384 630.383 507.015 629.959 505.365 629.959C503.781 629.959 502.45 630.361 501.372 631.164C500.294 631.956 499.48 633.067 498.93 634.496C498.38 635.915 498.105 637.571 498.105 639.463Z" fill="#45556C"/>
<path d="M522.107 652.134V626.791H526.001V652.134H522.107ZM524.087 622.567C523.328 622.567 522.674 622.309 522.124 621.792C521.585 621.275 521.315 620.653 521.315 619.927C521.315 619.201 521.585 618.58 522.124 618.063C522.674 617.546 523.328 617.288 524.087 617.288C524.846 617.288 525.495 617.546 526.034 618.063C526.584 618.58 526.859 619.201 526.859 619.927C526.859 620.653 526.584 621.275 526.034 621.792C525.495 622.309 524.846 622.567 524.087 622.567Z" fill="#45556C"/>
<path d="M540.092 652.728C538.486 652.728 537.028 652.426 535.72 651.821C534.411 651.205 533.371 650.319 532.601 649.164C531.831 647.999 531.446 646.591 531.446 644.941C531.446 643.489 531.732 642.312 532.304 641.41C532.876 640.497 533.641 639.782 534.598 639.265C535.555 638.748 536.61 638.363 537.765 638.11C538.931 637.846 540.103 637.637 541.28 637.483C542.82 637.285 544.068 637.136 545.025 637.037C545.993 636.927 546.697 636.746 547.137 636.493C547.588 636.24 547.814 635.8 547.814 635.173V635.041C547.814 633.413 547.368 632.148 546.477 631.246C545.597 630.344 544.261 629.893 542.468 629.893C540.609 629.893 539.151 630.3 538.095 631.114C537.039 631.928 536.297 632.797 535.868 633.721L532.172 632.401C532.832 630.861 533.712 629.662 534.812 628.804C535.923 627.935 537.133 627.33 538.442 626.989C539.762 626.637 541.06 626.461 542.336 626.461C543.15 626.461 544.085 626.56 545.141 626.758C546.208 626.945 547.236 627.336 548.226 627.93C549.227 628.524 550.058 629.42 550.718 630.619C551.377 631.818 551.707 633.424 551.707 635.437V652.134H547.814V648.703H547.616C547.352 649.252 546.912 649.841 546.296 650.468C545.68 651.095 544.86 651.628 543.837 652.068C542.814 652.508 541.566 652.728 540.092 652.728ZM540.686 649.23C542.226 649.23 543.524 648.928 544.58 648.323C545.647 647.718 546.45 646.937 546.989 645.98C547.539 645.023 547.814 644.017 547.814 642.961V639.397C547.649 639.595 547.286 639.776 546.725 639.941C546.175 640.095 545.537 640.233 544.811 640.354C544.096 640.464 543.397 640.563 542.715 640.651C542.044 640.728 541.5 640.794 541.082 640.849C540.07 640.981 539.124 641.195 538.244 641.492C537.375 641.778 536.671 642.213 536.132 642.796C535.604 643.368 535.34 644.149 535.34 645.139C535.34 646.492 535.841 647.515 536.841 648.208C537.853 648.889 539.135 649.23 540.686 649.23Z" fill="#45556C"/>
<path d="M576.267 632.467L572.769 633.457C572.549 632.874 572.225 632.308 571.796 631.758C571.378 631.197 570.806 630.735 570.08 630.372C569.354 630.009 568.424 629.827 567.291 629.827C565.74 629.827 564.448 630.185 563.414 630.9C562.391 631.604 561.879 632.5 561.879 633.589C561.879 634.557 562.231 635.321 562.935 635.882C563.639 636.443 564.739 636.911 566.235 637.285L569.997 638.209C572.263 638.759 573.952 639.6 575.062 640.733C576.173 641.855 576.729 643.302 576.729 645.073C576.729 646.525 576.311 647.823 575.475 648.966C574.65 650.11 573.495 651.012 572.01 651.672C570.525 652.332 568.798 652.662 566.829 652.662C564.244 652.662 562.105 652.101 560.411 650.979C558.717 649.857 557.645 648.219 557.194 646.063L560.889 645.139C561.241 646.503 561.907 647.526 562.886 648.208C563.876 648.889 565.168 649.23 566.763 649.23C568.578 649.23 570.019 648.846 571.086 648.076C572.164 647.295 572.703 646.36 572.703 645.271C572.703 644.391 572.395 643.654 571.779 643.06C571.163 642.455 570.217 642.004 568.941 641.707L564.717 640.717C562.396 640.167 560.691 639.314 559.602 638.159C558.525 636.993 557.986 635.536 557.986 633.787C557.986 632.357 558.387 631.092 559.19 629.992C560.004 628.892 561.109 628.029 562.506 627.402C563.914 626.775 565.509 626.461 567.291 626.461C569.799 626.461 571.768 627.011 573.198 628.111C574.639 629.211 575.662 630.663 576.267 632.467Z" fill="#45556C"/>
<path d="M587.899 647.515L587.635 649.296C587.448 650.55 587.162 651.892 586.777 653.322C586.403 654.752 586.013 656.1 585.606 657.365C585.199 658.63 584.863 659.636 584.599 660.384H581.629C581.772 659.68 581.959 658.751 582.19 657.596C582.421 656.441 582.652 655.148 582.883 653.718C583.125 652.299 583.323 650.847 583.477 649.362L583.675 647.515H587.899Z" fill="#45556C"/>
<path d="M614.641 652.728C613.035 652.728 611.577 652.426 610.268 651.821C608.959 651.205 607.92 650.319 607.15 649.164C606.38 647.999 605.995 646.591 605.995 644.941C605.995 643.489 606.281 642.312 606.853 641.41C607.425 640.497 608.189 639.782 609.146 639.265C610.103 638.748 611.159 638.363 612.314 638.11C613.48 637.846 614.652 637.637 615.829 637.483C617.368 637.285 618.617 637.136 619.574 637.037C620.542 636.927 621.246 636.746 621.686 636.493C622.137 636.24 622.362 635.8 622.362 635.173V635.041C622.362 633.413 621.917 632.148 621.026 631.246C620.146 630.344 618.809 629.893 617.017 629.893C615.158 629.893 613.7 630.3 612.644 631.114C611.588 631.928 610.846 632.797 610.417 633.721L606.721 632.401C607.381 630.861 608.261 629.662 609.361 628.804C610.472 627.935 611.682 627.33 612.991 626.989C614.311 626.637 615.609 626.461 616.885 626.461C617.699 626.461 618.633 626.56 619.689 626.758C620.756 626.945 621.785 627.336 622.775 627.93C623.776 628.524 624.606 629.42 625.266 630.619C625.926 631.818 626.256 633.424 626.256 635.437V652.134H622.362V648.703H622.164C621.9 649.252 621.46 649.841 620.844 650.468C620.228 651.095 619.409 651.628 618.386 652.068C617.363 652.508 616.115 652.728 614.641 652.728ZM615.235 649.23C616.775 649.23 618.072 648.928 619.128 648.323C620.195 647.718 620.998 646.937 621.537 645.98C622.087 645.023 622.362 644.017 622.362 642.961V639.397C622.197 639.595 621.834 639.776 621.273 639.941C620.723 640.095 620.085 640.233 619.359 640.354C618.644 640.464 617.946 640.563 617.264 640.651C616.593 640.728 616.049 640.794 615.631 640.849C614.619 640.981 613.673 641.195 612.793 641.492C611.924 641.778 611.22 642.213 610.681 642.796C610.153 643.368 609.889 644.149 609.889 645.139C609.889 646.492 610.389 647.515 611.39 648.208C612.402 648.889 613.684 649.23 615.235 649.23Z" fill="#45556C"/>
<path d="M636.758 636.889V652.134H632.864V626.791H636.626V630.751H636.956C637.55 629.464 638.452 628.43 639.662 627.649C640.872 626.857 642.434 626.461 644.348 626.461C646.064 626.461 647.565 626.813 648.852 627.517C650.139 628.21 651.14 629.266 651.855 630.685C652.57 632.093 652.928 633.875 652.928 636.031V652.134H649.034V636.295C649.034 634.304 648.517 632.753 647.483 631.642C646.449 630.52 645.03 629.959 643.226 629.959C641.983 629.959 640.872 630.229 639.893 630.768C638.925 631.307 638.161 632.093 637.6 633.127C637.039 634.161 636.758 635.415 636.758 636.889Z" fill="#45556C"/>
<path d="M669.114 652.662C667.002 652.662 665.137 652.129 663.52 651.062C661.903 649.984 660.638 648.466 659.725 646.508C658.812 644.539 658.356 642.213 658.356 639.529C658.356 636.867 658.812 634.557 659.725 632.599C660.638 630.641 661.909 629.129 663.537 628.062C665.165 626.995 667.046 626.461 669.18 626.461C670.83 626.461 672.133 626.736 673.09 627.286C674.058 627.825 674.795 628.441 675.301 629.134C675.818 629.816 676.219 630.377 676.505 630.817H676.835V618.343H680.729V652.134H676.967V648.241H676.505C676.219 648.703 675.812 649.285 675.284 649.989C674.756 650.682 674.003 651.304 673.024 651.854C672.045 652.393 670.742 652.662 669.114 652.662ZM669.642 649.164C671.204 649.164 672.523 648.758 673.601 647.944C674.679 647.119 675.499 645.98 676.06 644.528C676.621 643.065 676.901 641.377 676.901 639.463C676.901 637.571 676.626 635.915 676.076 634.496C675.526 633.067 674.712 631.956 673.634 631.164C672.556 630.361 671.226 629.959 669.642 629.959C667.992 629.959 666.617 630.383 665.517 631.23C664.428 632.066 663.608 633.204 663.058 634.645C662.519 636.075 662.25 637.681 662.25 639.463C662.25 641.267 662.525 642.906 663.075 644.38C663.636 645.843 664.461 647.009 665.55 647.878C666.65 648.736 668.014 649.164 669.642 649.164Z" fill="#45556C"/>
<path d="M125.04 719.037C122.664 719.037 120.618 718.476 118.902 717.354C117.186 716.232 115.866 714.687 114.942 712.718C114.018 710.749 113.556 708.5 113.556 705.97C113.556 703.396 114.029 701.124 114.975 699.156C115.932 697.176 117.263 695.63 118.968 694.519C120.684 693.397 122.686 692.836 124.974 692.836C126.755 692.836 128.361 693.166 129.791 693.826C131.221 694.486 132.393 695.41 133.306 696.598C134.219 697.786 134.785 699.172 135.005 700.756H131.111C130.814 699.601 130.154 698.578 129.131 697.687C128.119 696.785 126.755 696.334 125.04 696.334C123.522 696.334 122.191 696.73 121.047 697.522C119.914 698.303 119.028 699.409 118.39 700.838C117.763 702.257 117.45 703.924 117.45 705.838C117.45 707.796 117.758 709.501 118.374 710.953C119.001 712.405 119.881 713.532 121.014 714.335C122.158 715.138 123.5 715.539 125.04 715.539C126.051 715.539 126.97 715.363 127.795 715.012C128.62 714.66 129.318 714.154 129.89 713.494C130.462 712.834 130.869 712.042 131.111 711.118H135.005C134.785 712.614 134.241 713.961 133.372 715.16C132.514 716.348 131.375 717.294 129.956 717.998C128.548 718.691 126.909 719.037 125.04 719.037Z" fill="#45556C"/>
<path d="M150.494 719.037C148.206 719.037 146.199 718.493 144.472 717.404C142.756 716.315 141.414 714.792 140.446 712.834C139.489 710.876 139.01 708.588 139.01 705.97C139.01 703.33 139.489 701.025 140.446 699.057C141.414 697.088 142.756 695.559 144.472 694.47C146.199 693.381 148.206 692.836 150.494 692.836C152.782 692.836 154.784 693.381 156.5 694.47C158.227 695.559 159.569 697.088 160.526 699.057C161.494 701.025 161.978 703.33 161.978 705.97C161.978 708.588 161.494 710.876 160.526 712.834C159.569 714.792 158.227 716.315 156.5 717.404C154.784 718.493 152.782 719.037 150.494 719.037ZM150.494 715.539C152.232 715.539 153.662 715.094 154.784 714.203C155.906 713.312 156.736 712.141 157.275 710.689C157.814 709.237 158.084 707.664 158.084 705.97C158.084 704.276 157.814 702.697 157.275 701.234C156.736 699.771 155.906 698.589 154.784 697.687C153.662 696.785 152.232 696.334 150.494 696.334C148.756 696.334 147.326 696.785 146.204 697.687C145.082 698.589 144.252 699.771 143.713 701.234C143.174 702.697 142.904 704.276 142.904 705.97C142.904 707.664 143.174 709.237 143.713 710.689C144.252 712.141 145.082 713.312 146.204 714.203C147.326 715.094 148.756 715.539 150.494 715.539Z" fill="#45556C"/>
<path d="M171.316 703.264V718.509H167.423V693.166H171.184V697.126H171.514C172.108 695.839 173.01 694.805 174.22 694.024C175.43 693.232 176.992 692.836 178.906 692.836C180.622 692.836 182.124 693.188 183.411 693.892C184.697 694.585 185.698 695.641 186.413 697.06C187.128 698.468 187.486 700.25 187.486 702.406V718.509H183.592V702.67C183.592 700.679 183.075 699.128 182.041 698.017C181.007 696.895 179.588 696.334 177.784 696.334C176.541 696.334 175.43 696.604 174.451 697.143C173.483 697.682 172.719 698.468 172.158 699.502C171.597 700.536 171.316 701.79 171.316 703.264Z" fill="#45556C"/>
<path d="M205.124 693.166V696.466H191.99V693.166H205.124ZM195.818 687.094H199.712V711.25C199.712 712.35 199.871 713.175 200.19 713.725C200.52 714.264 200.938 714.627 201.444 714.814C201.961 714.99 202.506 715.078 203.078 715.078C203.507 715.078 203.859 715.056 204.134 715.012C204.409 714.957 204.629 714.913 204.794 714.88L205.586 718.377C205.322 718.476 204.953 718.575 204.48 718.674C204.007 718.784 203.408 718.839 202.682 718.839C201.582 718.839 200.504 718.603 199.448 718.13C198.403 717.657 197.534 716.936 196.841 715.968C196.159 715.001 195.818 713.78 195.818 712.306V687.094Z" fill="#45556C"/>
<path d="M210.482 718.509V693.166H214.376V718.509H210.482ZM212.462 688.942C211.703 688.942 211.048 688.684 210.499 688.167C209.96 687.65 209.69 687.028 209.69 686.302C209.69 685.576 209.96 684.955 210.499 684.438C211.048 683.921 211.703 683.663 212.462 683.663C213.221 683.663 213.87 683.921 214.409 684.438C214.959 684.955 215.234 685.576 215.234 686.302C215.234 687.028 214.959 687.65 214.409 688.167C213.87 688.684 213.221 688.942 212.462 688.942Z" fill="#45556C"/>
<path d="M224.903 703.264V718.509H221.009V693.166H224.771V697.126H225.101C225.695 695.839 226.596 694.805 227.806 694.024C229.016 693.232 230.578 692.836 232.492 692.836C234.208 692.836 235.71 693.188 236.997 693.892C238.284 694.585 239.285 695.641 240 697.06C240.715 698.468 241.072 700.25 241.072 702.406V718.509H237.178V702.67C237.178 700.679 236.661 699.128 235.627 698.017C234.593 696.895 233.174 696.334 231.37 696.334C230.127 696.334 229.016 696.604 228.037 697.143C227.069 697.682 226.305 698.468 225.744 699.502C225.183 700.536 224.903 701.79 224.903 703.264Z" fill="#45556C"/>
<path d="M263.66 708.148V693.166H267.554V718.509H263.66V714.22H263.396C262.802 715.506 261.878 716.601 260.624 717.503C259.37 718.394 257.786 718.839 255.872 718.839C254.288 718.839 252.88 718.493 251.648 717.8C250.416 717.096 249.448 716.04 248.744 714.632C248.04 713.213 247.688 711.426 247.688 709.27V693.166H251.582V709.006C251.582 710.854 252.099 712.328 253.133 713.428C254.178 714.528 255.509 715.078 257.126 715.078C258.094 715.078 259.078 714.83 260.079 714.335C261.091 713.84 261.938 713.081 262.62 712.058C263.313 711.035 263.66 709.732 263.66 708.148Z" fill="#45556C"/>
<path d="M284.482 719.037C282.194 719.037 280.187 718.493 278.46 717.404C276.744 716.315 275.402 714.792 274.434 712.834C273.477 710.876 272.998 708.588 272.998 705.97C272.998 703.33 273.477 701.025 274.434 699.057C275.402 697.088 276.744 695.559 278.46 694.47C280.187 693.381 282.194 692.836 284.482 692.836C286.77 692.836 288.772 693.381 290.488 694.47C292.215 695.559 293.557 697.088 294.514 699.057C295.482 701.025 295.966 703.33 295.966 705.97C295.966 708.588 295.482 710.876 294.514 712.834C293.557 714.792 292.215 716.315 290.488 717.404C288.772 718.493 286.77 719.037 284.482 719.037ZM284.482 715.539C286.22 715.539 287.65 715.094 288.772 714.203C289.894 713.312 290.724 712.141 291.263 710.689C291.802 709.237 292.072 707.664 292.072 705.97C292.072 704.276 291.802 702.697 291.263 701.234C290.724 699.771 289.894 698.589 288.772 697.687C287.65 696.785 286.22 696.334 284.482 696.334C282.744 696.334 281.314 696.785 280.192 697.687C279.07 698.589 278.24 699.771 277.701 701.234C277.162 702.697 276.892 704.276 276.892 705.97C276.892 707.664 277.162 709.237 277.701 710.689C278.24 712.141 279.07 713.312 280.192 714.203C281.314 715.094 282.744 715.539 284.482 715.539Z" fill="#45556C"/>
<path d="M317.382 708.148V693.166H321.276V718.509H317.382V714.22H317.118C316.524 715.506 315.6 716.601 314.346 717.503C313.092 718.394 311.508 718.839 309.594 718.839C308.01 718.839 306.602 718.493 305.37 717.8C304.138 717.096 303.171 716.04 302.467 714.632C301.763 713.213 301.411 711.426 301.411 709.27V693.166H305.304V709.006C305.304 710.854 305.821 712.328 306.855 713.428C307.9 714.528 309.231 715.078 310.848 715.078C311.816 715.078 312.801 714.83 313.802 714.335C314.814 713.84 315.661 713.081 316.343 712.058C317.036 711.035 317.382 709.732 317.382 708.148Z" fill="#45556C"/>
<path d="M345.86 698.842L342.362 699.832C342.142 699.249 341.818 698.683 341.389 698.133C340.971 697.572 340.399 697.11 339.673 696.747C338.947 696.384 338.017 696.202 336.884 696.202C335.333 696.202 334.041 696.56 333.007 697.275C331.984 697.979 331.473 698.875 331.473 699.964C331.473 700.932 331.825 701.696 332.529 702.257C333.233 702.818 334.333 703.286 335.828 703.66L339.59 704.584C341.856 705.134 343.545 705.975 344.656 707.108C345.767 708.23 346.322 709.677 346.322 711.448C346.322 712.9 345.904 714.198 345.068 715.342C344.243 716.485 343.088 717.387 341.603 718.047C340.118 718.707 338.391 719.037 336.422 719.037C333.838 719.037 331.698 718.476 330.004 717.354C328.31 716.232 327.238 714.594 326.787 712.438L330.483 711.514C330.835 712.878 331.5 713.901 332.479 714.583C333.469 715.264 334.761 715.605 336.356 715.605C338.171 715.605 339.612 715.221 340.679 714.451C341.757 713.67 342.296 712.735 342.296 711.646C342.296 710.766 341.988 710.029 341.372 709.435C340.756 708.83 339.81 708.379 338.534 708.082L334.311 707.092C331.99 706.542 330.285 705.689 329.196 704.534C328.118 703.368 327.579 701.911 327.579 700.162C327.579 698.732 327.98 697.467 328.783 696.367C329.597 695.267 330.703 694.404 332.1 693.777C333.508 693.15 335.102 692.836 336.884 692.836C339.392 692.836 341.361 693.386 342.791 694.486C344.232 695.586 345.255 697.038 345.86 698.842Z" fill="#45556C"/>
<path d="M355.578 684.718V718.509H351.684V684.718H355.578Z" fill="#45556C"/>
<path d="M364.719 728.013C364.059 728.013 363.471 727.958 362.954 727.848C362.437 727.749 362.079 727.65 361.881 727.551L362.871 724.119C363.817 724.361 364.653 724.449 365.379 724.383C366.105 724.317 366.748 723.993 367.309 723.41C367.881 722.838 368.404 721.908 368.877 720.621L369.603 718.641L360.231 693.166H364.455L371.451 713.362H371.715L378.711 693.166H382.934L372.177 722.205C371.693 723.514 371.093 724.598 370.378 725.456C369.663 726.325 368.833 726.968 367.887 727.386C366.952 727.804 365.896 728.013 364.719 728.013Z" fill="#45556C"/>
<path d="M404.037 703.264V718.509H400.143V684.718H404.037V697.126H404.367C404.961 695.817 405.852 694.778 407.04 694.008C408.239 693.227 409.834 692.836 411.825 692.836C413.552 692.836 415.064 693.183 416.362 693.876C417.66 694.558 418.667 695.608 419.382 697.027C420.108 698.435 420.471 700.228 420.471 702.406V718.509H416.577V702.67C416.577 700.657 416.054 699.101 415.009 698.001C413.975 696.89 412.54 696.334 410.703 696.334C409.427 696.334 408.283 696.604 407.271 697.143C406.27 697.682 405.478 698.468 404.895 699.502C404.323 700.536 404.037 701.79 404.037 703.264Z" fill="#45556C"/>
<path d="M434.553 719.103C432.947 719.103 431.49 718.801 430.181 718.196C428.872 717.58 427.832 716.694 427.062 715.539C426.292 714.374 425.907 712.966 425.907 711.316C425.907 709.864 426.193 708.687 426.765 707.785C427.337 706.872 428.102 706.157 429.059 705.64C430.016 705.123 431.072 704.738 432.227 704.485C433.393 704.221 434.564 704.012 435.741 703.858C437.281 703.66 438.529 703.511 439.486 703.412C440.454 703.302 441.158 703.121 441.598 702.868C442.049 702.615 442.275 702.175 442.275 701.548V701.416C442.275 699.788 441.829 698.523 440.938 697.621C440.058 696.719 438.722 696.268 436.929 696.268C435.07 696.268 433.613 696.675 432.557 697.489C431.501 698.303 430.758 699.172 430.329 700.096L426.633 698.776C427.293 697.236 428.173 696.037 429.273 695.179C430.384 694.31 431.594 693.705 432.903 693.364C434.223 693.012 435.521 692.836 436.797 692.836C437.611 692.836 438.546 692.935 439.602 693.133C440.669 693.32 441.697 693.711 442.687 694.305C443.688 694.899 444.519 695.795 445.179 696.994C445.839 698.193 446.169 699.799 446.169 701.812V718.509H442.275V715.078H442.077C441.813 715.627 441.373 716.216 440.757 716.843C440.141 717.47 439.321 718.003 438.298 718.443C437.275 718.883 436.027 719.103 434.553 719.103ZM435.147 715.605C436.687 715.605 437.985 715.303 439.041 714.698C440.108 714.093 440.911 713.312 441.45 712.355C442 711.398 442.275 710.392 442.275 709.336V705.772C442.11 705.97 441.747 706.151 441.186 706.316C440.636 706.47 439.998 706.608 439.272 706.729C438.557 706.839 437.858 706.938 437.176 707.026C436.505 707.103 435.961 707.169 435.543 707.224C434.531 707.356 433.585 707.57 432.705 707.867C431.836 708.153 431.132 708.588 430.593 709.171C430.065 709.743 429.801 710.524 429.801 711.514C429.801 712.867 430.302 713.89 431.303 714.583C432.315 715.264 433.596 715.605 435.147 715.605Z" fill="#45556C"/>
<path d="M452.777 718.509V693.166H456.539V696.994H456.803C457.265 695.74 458.101 694.723 459.31 693.942C460.52 693.161 461.884 692.77 463.402 692.77C463.688 692.77 464.046 692.776 464.475 692.787C464.904 692.798 465.228 692.814 465.448 692.836V696.796C465.316 696.763 465.014 696.714 464.541 696.648C464.079 696.571 463.589 696.532 463.072 696.532C461.84 696.532 460.74 696.791 459.772 697.308C458.815 697.814 458.057 698.518 457.496 699.42C456.946 700.31 456.671 701.328 456.671 702.472V718.509H452.777Z" fill="#45556C"/>
<path d="M478.363 719.037C476.251 719.037 474.387 718.504 472.77 717.437C471.153 716.359 469.888 714.841 468.975 712.883C468.062 710.914 467.606 708.588 467.606 705.904C467.606 703.242 468.062 700.932 468.975 698.974C469.888 697.016 471.158 695.504 472.786 694.437C474.414 693.37 476.295 692.836 478.429 692.836C480.079 692.836 481.383 693.111 482.34 693.661C483.308 694.2 484.045 694.816 484.551 695.509C485.068 696.191 485.469 696.752 485.755 697.192H486.085V684.718H489.979V718.509H486.217V714.616H485.755C485.469 715.078 485.062 715.66 484.534 716.364C484.006 717.057 483.253 717.679 482.274 718.229C481.295 718.768 479.991 719.037 478.363 719.037ZM478.891 715.539C480.453 715.539 481.773 715.133 482.851 714.319C483.929 713.494 484.749 712.355 485.31 710.903C485.87 709.44 486.151 707.752 486.151 705.838C486.151 703.946 485.876 702.29 485.326 700.871C484.776 699.442 483.962 698.331 482.884 697.539C481.806 696.736 480.475 696.334 478.891 696.334C477.241 696.334 475.866 696.758 474.766 697.605C473.677 698.441 472.858 699.579 472.308 701.02C471.769 702.45 471.499 704.056 471.499 705.838C471.499 707.642 471.774 709.281 472.324 710.755C472.885 712.218 473.71 713.384 474.799 714.253C475.899 715.111 477.263 715.539 478.891 715.539Z" fill="#45556C"/>
<path d="M507.778 719.037C505.336 719.037 503.229 718.498 501.458 717.42C499.698 716.331 498.34 714.814 497.383 712.867C496.437 710.909 495.964 708.632 495.964 706.036C495.964 703.44 496.437 701.152 497.383 699.172C498.34 697.181 499.671 695.63 501.376 694.519C503.092 693.397 505.094 692.836 507.382 692.836C508.702 692.836 510.005 693.056 511.292 693.496C512.579 693.936 513.75 694.651 514.806 695.641C515.862 696.62 516.704 697.918 517.331 699.535C517.958 701.152 518.271 703.143 518.271 705.508V707.158H498.736V703.792H514.311C514.311 702.362 514.025 701.086 513.453 699.964C512.893 698.842 512.09 697.957 511.045 697.308C510.011 696.659 508.79 696.334 507.382 696.334C505.831 696.334 504.489 696.719 503.356 697.489C502.234 698.248 501.37 699.238 500.765 700.459C500.16 701.68 499.858 702.989 499.858 704.386V706.63C499.858 708.544 500.188 710.166 500.848 711.497C501.519 712.817 502.448 713.824 503.636 714.517C504.824 715.199 506.205 715.539 507.778 715.539C508.801 715.539 509.725 715.396 510.55 715.111C511.386 714.814 512.106 714.374 512.711 713.791C513.316 713.197 513.783 712.46 514.113 711.58L517.875 712.636C517.479 713.912 516.814 715.033 515.879 716.001C514.944 716.958 513.789 717.706 512.414 718.245C511.039 718.773 509.494 719.037 507.778 719.037Z" fill="#45556C"/>
<path d="M527.589 703.264V718.509H523.696V693.166H527.457V697.126H527.787C528.381 695.839 529.283 694.805 530.493 694.024C531.703 693.232 533.265 692.836 535.179 692.836C536.895 692.836 538.397 693.188 539.683 693.892C540.97 694.585 541.971 695.641 542.686 697.06C543.401 698.468 543.759 700.25 543.759 702.406V718.509H539.865V702.67C539.865 700.679 539.348 699.128 538.314 698.017C537.28 696.895 535.861 696.334 534.057 696.334C532.814 696.334 531.703 696.604 530.724 697.143C529.756 697.682 528.992 698.468 528.431 699.502C527.87 700.536 527.589 701.79 527.589 703.264Z" fill="#45556C"/>
<path d="M580.895 698.842L577.397 699.832C577.177 699.249 576.853 698.683 576.424 698.133C576.006 697.572 575.434 697.11 574.708 696.747C573.982 696.384 573.052 696.202 571.919 696.202C570.368 696.202 569.076 696.56 568.042 697.275C567.019 697.979 566.508 698.875 566.508 699.964C566.508 700.932 566.86 701.696 567.564 702.257C568.267 702.818 569.367 703.286 570.863 703.66L574.625 704.584C576.891 705.134 578.58 705.975 579.691 707.108C580.802 708.23 581.357 709.677 581.357 711.448C581.357 712.9 580.939 714.198 580.103 715.342C579.278 716.485 578.123 717.387 576.638 718.047C575.153 718.707 573.426 719.037 571.457 719.037C568.872 719.037 566.733 718.476 565.039 717.354C563.345 716.232 562.273 714.594 561.822 712.438L565.518 711.514C565.87 712.878 566.535 713.901 567.514 714.583C568.504 715.264 569.796 715.605 571.391 715.605C573.206 715.605 574.647 715.221 575.714 714.451C576.792 713.67 577.331 712.735 577.331 711.646C577.331 710.766 577.023 710.029 576.407 709.435C575.791 708.83 574.845 708.379 573.569 708.082L569.345 707.092C567.025 706.542 565.32 705.689 564.231 704.534C563.153 703.368 562.614 701.911 562.614 700.162C562.614 698.732 563.015 697.467 563.818 696.367C564.632 695.267 565.738 694.404 567.134 693.777C568.542 693.15 570.137 692.836 571.919 692.836C574.427 692.836 576.396 693.386 577.826 694.486C579.267 695.586 580.29 697.038 580.895 698.842Z" fill="#45556C"/>
<path d="M597.345 719.037C594.903 719.037 592.797 718.498 591.026 717.42C589.266 716.331 587.907 714.814 586.95 712.867C586.004 710.909 585.531 708.632 585.531 706.036C585.531 703.44 586.004 701.152 586.95 699.172C587.907 697.181 589.238 695.63 590.943 694.519C592.659 693.397 594.661 692.836 596.949 692.836C598.269 692.836 599.572 693.056 600.859 693.496C602.146 693.936 603.318 694.651 604.374 695.641C605.43 696.62 606.271 697.918 606.898 699.535C607.525 701.152 607.839 703.143 607.839 705.508V707.158H588.303V703.792H603.879C603.879 702.362 603.593 701.086 603.021 699.964C602.46 698.842 601.657 697.957 600.612 697.308C599.578 696.659 598.357 696.334 596.949 696.334C595.398 696.334 594.056 696.719 592.923 697.489C591.801 698.248 590.938 699.238 590.333 700.459C589.728 701.68 589.425 702.989 589.425 704.386V706.63C589.425 708.544 589.755 710.166 590.415 711.497C591.086 712.817 592.016 713.824 593.204 714.517C594.392 715.199 595.772 715.539 597.345 715.539C598.368 715.539 599.292 715.396 600.117 715.111C600.953 714.814 601.673 714.374 602.278 713.791C602.883 713.197 603.351 712.46 603.681 711.58L607.443 712.636C607.047 713.912 606.381 715.033 605.446 716.001C604.511 716.958 603.356 717.706 601.981 718.245C600.606 718.773 599.061 719.037 597.345 719.037Z" fill="#45556C"/>
<path d="M623.559 719.037C621.183 719.037 619.137 718.476 617.421 717.354C615.705 716.232 614.385 714.687 613.461 712.718C612.537 710.749 612.075 708.5 612.075 705.97C612.075 703.396 612.548 701.124 613.494 699.156C614.451 697.176 615.782 695.63 617.487 694.519C619.203 693.397 621.205 692.836 623.493 692.836C625.275 692.836 626.88 693.166 628.31 693.826C629.74 694.486 630.912 695.41 631.825 696.598C632.738 697.786 633.304 699.172 633.524 700.756H629.63C629.333 699.601 628.673 698.578 627.65 697.687C626.638 696.785 625.274 696.334 623.559 696.334C622.041 696.334 620.71 696.73 619.566 697.522C618.433 698.303 617.547 699.409 616.909 700.838C616.282 702.257 615.969 703.924 615.969 705.838C615.969 707.796 616.277 709.501 616.893 710.953C617.52 712.405 618.4 713.532 619.533 714.335C620.677 715.138 622.019 715.539 623.559 715.539C624.571 715.539 625.489 715.363 626.314 715.012C627.139 714.66 627.837 714.154 628.409 713.494C628.981 712.834 629.388 712.042 629.63 711.118H633.524C633.304 712.614 632.76 713.961 631.891 715.16C631.033 716.348 629.894 717.294 628.475 717.998C627.067 718.691 625.428 719.037 623.559 719.037Z" fill="#45556C"/>
<path d="M654.689 708.148V693.166H658.583V718.509H654.689V714.22H654.425C653.831 715.506 652.907 716.601 651.653 717.503C650.399 718.394 648.815 718.839 646.901 718.839C645.317 718.839 643.909 718.493 642.677 717.8C641.445 717.096 640.477 716.04 639.773 714.632C639.069 713.213 638.717 711.426 638.717 709.27V693.166H642.611V709.006C642.611 710.854 643.128 712.328 644.162 713.428C645.207 714.528 646.538 715.078 648.155 715.078C649.123 715.078 650.108 714.83 651.109 714.335C652.121 713.84 652.967 713.081 653.649 712.058C654.342 711.035 654.689 709.732 654.689 708.148Z" fill="#45556C"/>
<path d="M665.216 718.509V693.166H668.977V696.994H669.241C669.703 695.74 670.539 694.723 671.749 693.942C672.959 693.161 674.323 692.77 675.841 692.77C676.127 692.77 676.485 692.776 676.914 692.787C677.343 692.798 677.667 692.814 677.887 692.836V696.796C677.755 696.763 677.453 696.714 676.98 696.648C676.518 696.571 676.028 696.532 675.511 696.532C674.279 696.532 673.179 696.791 672.211 697.308C671.254 697.814 670.495 698.518 669.934 699.42C669.384 700.31 669.109 701.328 669.109 702.472V718.509H665.216Z" fill="#45556C"/>
<path d="M682.004 718.509V693.166H685.898V718.509H682.004ZM683.984 688.942C683.225 688.942 682.57 688.684 682.02 688.167C681.481 687.65 681.212 687.028 681.212 686.302C681.212 685.576 681.481 684.955 682.02 684.438C682.57 683.921 683.225 683.663 683.984 683.663C684.743 683.663 685.392 683.921 685.931 684.438C686.481 684.955 686.756 685.576 686.756 686.302C686.756 687.028 686.481 687.65 685.931 688.167C685.392 688.684 684.743 688.942 683.984 688.942Z" fill="#45556C"/>
<path d="M703.552 693.166V696.466H690.419V693.166H703.552ZM694.246 687.094H698.14V711.25C698.14 712.35 698.3 713.175 698.619 713.725C698.949 714.264 699.367 714.627 699.873 714.814C700.39 714.99 700.934 715.078 701.506 715.078C701.935 715.078 702.287 715.056 702.562 715.012C702.837 714.957 703.057 714.913 703.222 714.88L704.014 718.377C703.75 718.476 703.382 718.575 702.909 718.674C702.436 718.784 701.836 718.839 701.11 718.839C700.01 718.839 698.932 718.603 697.876 718.13C696.831 717.657 695.962 716.936 695.269 715.968C694.587 715.001 694.246 713.78 694.246 712.306V687.094Z" fill="#45556C"/>
<path d="M711.418 728.013C710.758 728.013 710.17 727.958 709.653 727.848C709.136 727.749 708.778 727.65 708.58 727.551L709.57 724.119C710.516 724.361 711.352 724.449 712.078 724.383C712.804 724.317 713.448 723.993 714.009 723.41C714.581 722.838 715.103 721.908 715.576 720.621L716.302 718.641L706.93 693.166H711.154L718.15 713.362H718.414L725.41 693.166H729.634L718.876 722.205C718.392 723.514 717.793 724.598 717.078 725.456C716.363 726.325 715.532 726.968 714.586 727.386C713.651 727.804 712.595 728.013 711.418 728.013Z" fill="#45556C"/>
<path d="M125.04 785.412C122.664 785.412 120.618 784.851 118.902 783.729C117.186 782.607 115.866 781.062 114.942 779.093C114.018 777.124 113.556 774.875 113.556 772.345C113.556 769.771 114.029 767.499 114.975 765.531C115.932 763.551 117.263 762.005 118.968 760.894C120.684 759.772 122.686 759.211 124.974 759.211C126.755 759.211 128.361 759.541 129.791 760.201C131.221 760.861 132.393 761.785 133.306 762.973C134.219 764.161 134.785 765.547 135.005 767.131H131.111C130.814 765.976 130.154 764.953 129.131 764.062C128.119 763.16 126.755 762.709 125.04 762.709C123.522 762.709 122.191 763.105 121.047 763.897C119.914 764.678 119.028 765.784 118.39 767.213C117.763 768.632 117.45 770.299 117.45 772.213C117.45 774.171 117.758 775.876 118.374 777.328C119.001 778.78 119.881 779.907 121.014 780.71C122.158 781.513 123.5 781.914 125.04 781.914C126.051 781.914 126.97 781.739 127.795 781.387C128.62 781.035 129.318 780.529 129.89 779.869C130.462 779.209 130.869 778.417 131.111 777.493H135.005C134.785 778.989 134.241 780.336 133.372 781.535C132.514 782.723 131.375 783.669 129.956 784.373C128.548 785.066 126.909 785.412 125.04 785.412Z" fill="#45556C"/>
<path d="M150.494 785.412C148.206 785.412 146.199 784.868 144.472 783.779C142.756 782.69 141.414 781.167 140.446 779.209C139.489 777.251 139.01 774.963 139.01 772.345C139.01 769.705 139.489 767.4 140.446 765.432C141.414 763.463 142.756 761.934 144.472 760.845C146.199 759.756 148.206 759.211 150.494 759.211C152.782 759.211 154.784 759.756 156.5 760.845C158.227 761.934 159.569 763.463 160.526 765.432C161.494 767.4 161.978 769.705 161.978 772.345C161.978 774.963 161.494 777.251 160.526 779.209C159.569 781.167 158.227 782.69 156.5 783.779C154.784 784.868 152.782 785.412 150.494 785.412ZM150.494 781.914C152.232 781.914 153.662 781.469 154.784 780.578C155.906 779.687 156.736 778.516 157.275 777.064C157.814 775.612 158.084 774.039 158.084 772.345C158.084 770.651 157.814 769.072 157.275 767.609C156.736 766.146 155.906 764.964 154.784 764.062C153.662 763.16 152.232 762.709 150.494 762.709C148.756 762.709 147.326 763.16 146.204 764.062C145.082 764.964 144.252 766.146 143.713 767.609C143.174 769.072 142.904 770.651 142.904 772.345C142.904 774.039 143.174 775.612 143.713 777.064C144.252 778.516 145.082 779.687 146.204 780.578C147.326 781.469 148.756 781.914 150.494 781.914Z" fill="#45556C"/>
<path d="M171.316 769.639V784.884H167.423V759.541H171.184V763.501H171.514C172.108 762.214 173.01 761.18 174.22 760.399C175.43 759.607 176.992 759.211 178.906 759.211C180.622 759.211 182.124 759.563 183.411 760.267C184.697 760.96 185.698 762.016 186.413 763.435C187.128 764.843 187.486 766.625 187.486 768.781V784.884H183.592V769.045C183.592 767.054 183.075 765.503 182.041 764.392C181.007 763.27 179.588 762.709 177.784 762.709C176.541 762.709 175.43 762.979 174.451 763.518C173.483 764.057 172.719 764.843 172.158 765.877C171.597 766.911 171.316 768.165 171.316 769.639Z" fill="#45556C"/>
<path d="M205.124 759.541V762.841H191.99V759.541H205.124ZM195.818 753.469H199.712V777.625C199.712 778.725 199.871 779.55 200.19 780.1C200.52 780.639 200.938 781.002 201.444 781.189C201.961 781.365 202.506 781.452 203.078 781.452C203.507 781.452 203.859 781.431 204.134 781.387C204.409 781.332 204.629 781.287 204.794 781.254L205.586 784.752C205.322 784.851 204.953 784.95 204.48 785.049C204.007 785.159 203.408 785.214 202.682 785.214C201.582 785.214 200.504 784.978 199.448 784.505C198.403 784.032 197.534 783.311 196.841 782.343C196.159 781.375 195.818 780.155 195.818 778.681V753.469Z" fill="#45556C"/>
<path d="M210.482 784.884V759.541H214.244V763.369H214.508C214.97 762.115 215.806 761.098 217.016 760.317C218.226 759.536 219.59 759.145 221.108 759.145C221.394 759.145 221.751 759.151 222.18 759.162C222.609 759.173 222.934 759.189 223.154 759.211V763.171C223.022 763.138 222.719 763.089 222.246 763.023C221.784 762.946 221.295 762.907 220.778 762.907C219.546 762.907 218.446 763.166 217.478 763.683C216.521 764.189 215.762 764.893 215.201 765.795C214.651 766.685 214.376 767.703 214.376 768.847V784.884H210.482Z" fill="#45556C"/>
<path d="M236.795 785.412C234.507 785.412 232.499 784.868 230.772 783.779C229.056 782.69 227.714 781.167 226.746 779.209C225.789 777.251 225.311 774.963 225.311 772.345C225.311 769.705 225.789 767.4 226.746 765.432C227.714 763.463 229.056 761.934 230.772 760.845C232.499 759.756 234.507 759.211 236.795 759.211C239.082 759.211 241.084 759.756 242.8 760.845C244.527 761.934 245.869 763.463 246.826 765.432C247.794 767.4 248.278 769.705 248.278 772.345C248.278 774.963 247.794 777.251 246.826 779.209C245.869 781.167 244.527 782.69 242.8 783.779C241.084 784.868 239.082 785.412 236.795 785.412ZM236.795 781.914C238.532 781.914 239.962 781.469 241.084 780.578C242.206 779.687 243.037 778.516 243.576 777.064C244.115 775.612 244.384 774.039 244.384 772.345C244.384 770.651 244.115 769.072 243.576 767.609C243.037 766.146 242.206 764.964 241.084 764.062C239.962 763.16 238.532 762.709 236.795 762.709C235.057 762.709 233.627 763.16 232.505 764.062C231.383 764.964 230.552 766.146 230.013 767.609C229.474 769.072 229.205 770.651 229.205 772.345C229.205 774.039 229.474 775.612 230.013 777.064C230.552 778.516 231.383 779.687 232.505 780.578C233.627 781.469 235.057 781.914 236.795 781.914Z" fill="#45556C"/>
<path d="M257.617 751.093V784.884H253.723V751.093H257.617Z" fill="#45556C"/>
<path d="M282.201 765.217L278.703 766.207C278.483 765.624 278.159 765.058 277.73 764.508C277.312 763.947 276.74 763.485 276.014 763.122C275.288 762.759 274.358 762.577 273.225 762.577C271.674 762.577 270.382 762.935 269.348 763.65C268.325 764.354 267.814 765.25 267.814 766.339C267.814 767.307 268.166 768.071 268.869 768.632C269.573 769.193 270.673 769.661 272.169 770.035L275.931 770.959C278.197 771.509 279.886 772.35 280.997 773.483C282.108 774.605 282.663 776.052 282.663 777.823C282.663 779.275 282.245 780.573 281.409 781.716C280.584 782.86 279.429 783.762 277.944 784.422C276.459 785.082 274.732 785.412 272.763 785.412C270.178 785.412 268.039 784.851 266.345 783.729C264.651 782.607 263.579 780.969 263.128 778.813L266.824 777.889C267.176 779.253 267.841 780.276 268.82 780.958C269.81 781.639 271.102 781.98 272.697 781.98C274.512 781.98 275.953 781.595 277.02 780.826C278.098 780.045 278.637 779.11 278.637 778.021C278.637 777.141 278.329 776.404 277.713 775.81C277.097 775.205 276.151 774.754 274.875 774.457L270.651 773.467C268.331 772.917 266.626 772.064 265.537 770.909C264.459 769.743 263.92 768.286 263.92 766.537C263.92 765.107 264.321 763.842 265.124 762.742C265.938 761.642 267.044 760.779 268.441 760.152C269.848 759.525 271.443 759.211 273.225 759.211C275.733 759.211 277.702 759.761 279.132 760.861C280.573 761.961 281.596 763.413 282.201 765.217Z" fill="#45556C"/>
<path d="M290.863 785.148C290.049 785.148 289.351 784.857 288.768 784.274C288.185 783.691 287.893 782.992 287.893 782.178C287.893 781.365 288.185 780.666 288.768 780.083C289.351 779.5 290.049 779.209 290.863 779.209C291.677 779.209 292.376 779.5 292.959 780.083C293.542 780.666 293.833 781.365 293.833 782.178C293.833 782.717 293.696 783.212 293.421 783.663C293.157 784.114 292.799 784.477 292.348 784.752C291.908 785.016 291.413 785.148 290.863 785.148Z" fill="#45556C"/>
<path d="M107.859 33.1875C107.859 14.8586 122.718 0 141.047 0H180.872C199.201 0 214.059 14.8585 214.059 33.1875V73.0125C214.059 91.3414 199.201 106.2 180.872 106.2H141.047C122.718 106.2 107.859 91.3414 107.859 73.0125V33.1875Z" fill="#6DA9C6"/>
<path d="M145.939 65.2437V59.681L162.326 33.791H166.964V41.7107H164.136L153.105 59.1907V59.4924H175.978V65.2437H145.939ZM164.362 72.4091V63.5466L164.438 61.0575V33.791H171.038V72.4091H164.362Z" fill="white"/>
</svg>
