<svg xmlns="http://www.w3.org/2000/svg" xmlns:xlink="http://www.w3.org/1999/xlink" fill="none" viewBox="0 0 120 25">
  <defs>
    <path id="b" fill="#73C92D" d="M19.2602 15.5566c-.1204-.0607-.0602-.4928.1279-1.0538.1806-.4928.489-.9325.6094-.8643.3085.2426-.5492 2.0394-.7373 1.9181ZM.865204 6.13317c-.1279.18952-.248276.4397-.376176.62165.1279-.49278.376176-.93248.616932-1.36461-.06019.25018-.12038.50036-.240756.74296ZM19.3204 5.39021c.2483.43213.4965.87183.6169 1.36461-.1204-.18195-.2483-.43213-.3686-.62165-.0602-.2426-.1806-.49278-.2483-.74296ZM7.38809.492776c-.24828.12888-.49655.12888-.74483.12888 0-.06065 1.35423-.500357 1.48213-.432127-.24827.181948-.43636.242598-.7373.303247Zm-4.8 2.918754c.06019.06065-.1279.43212-.43637.8036-.30846.37148-.61692.6823-.61692.62166-.12038-.12888.92539-1.49349 1.05329-1.42526Zm2.46019 3.03246c.61692.25018.7373 1.11444.36865 1.92562-.36865.8036-1.17367 1.23573-1.72289.9249-.55674-.31083-.7373-1.17508-.30846-1.91803.36865-.80361 1.10596-1.24331 1.6627-.93249ZM.737304 8.43026c.1279-.68231.496556-1.18266.737306-1.11443.24827.06065.30846.61407.18809 1.29638-.1279.6823-.49656 1.18266-.737308 1.11443-.248276 0-.368652-.61408-.188088-1.29638ZM10.1868 15.6854c-.94041 0-1.69276-.7657-1.69276-1.7133 0-.9401.75235-1.7058 1.69276-1.7058.9329 0 1.6928.7657 1.6928 1.7058 0 .9476-.7599 1.7133-1.6928 1.7133Zm-8.71219-1.3722c-.30847.0683-.609406-.4321-.797494-1.1144-.120376-.6141-.060188-1.2357.188088-1.2964.300936-.0682.609406.4322.797496 1.1145.18056.6216.12037 1.2357-.18809 1.2963Zm.8652-2.0393c-.4815 0-.8652-.652-.8652-1.4556 0-.8112.3837-1.46314.8652-1.46314.47398 0 .85768.65194.85768 1.46314 0 .8036-.3837 1.4556-.85768 1.4556ZM.616928 10.8487c0 .614-.1279 1.1144-.308464 1.1144C.120376 11.9631 0 11.4021 0 10.8487c0-.5611.120376-1.05383.308464-1.05383.120376 0 .308464.43213.308464 1.05383ZM6.83135 3.84365c.79749-.43212 1.66269-.25018 1.97116.31083.30846.55343-.06771 1.36461-.86521 1.79674-.79749.43212-1.66269.25018-1.97116-.31083-.30094-.56101.06772-1.36461.86521-1.79674Zm-.30847-1.17508c.18809.30325-.12037.86425-.7373 1.29638-.61693.43213-1.29404.56101-1.47461.25018-.18809-.31083.12038-.87183.73731-1.30396.61692-.43213 1.22633-.49278 1.4746-.2426ZM3.69404 4.76856c.24076.18952.18057.87183-.18808 1.49348-.42884.61408-.98558.92491-1.29405.74296-.30094-.18953-.24075-.87183.18809-1.48591.42884-.62165.98558-.93248 1.29404-.75053ZM.55674 6.94435c.180564-.56101.48903-.93248.6094-.87183.1279.06065.06772.50035-.12037 1.05378-.248278.561-.48903.93248-.61693.87183-.120376-.06823-.060188-.50035.1279-1.05378ZM6.71097 17.6641c-.80501-.4321-1.17367-1.2433-.8652-1.7967.30846-.561 1.16614-.743 1.97116-.3108.79749.4321 1.16614 1.2357.85768 1.7967-.30847.561-1.16615.7429-1.96364.3108ZM.42884 13.6385c.1279-.0682.436364.3715.61693.8643.18809.561.24827.9931.18809 1.0538-.24828.1213-1.113484-1.6755-.80502-1.9181ZM1.6627 5.64039c-.1279-.1213.06018-.56101.42884-1.05378.30846-.49278.7373-.80361.8652-.68231.12038.06065-.06771.56101-.43636 1.05378-.36866.49278-.73731.74296-.85768.68231Zm8.5843-1.98627c-.79747 0-1.44449-.38664-1.44449-.86425s.64702-.87183 1.44449-.87183c.7975 0 1.4445.39422 1.4445.87183s-.647.86425-1.4445.86425ZM6.4627 18.8392c-.24828.2502-.86521.1895-1.47461-.2426-.61693-.4397-.92539-.9931-.74483-1.304.18809-.2501.80502-.1895 1.42194.2502.60941.4321.91787.9856.7975 1.2964Zm-4.00251-2.2895c.36865.4928.55674.9931.42884 1.0538-.12038.1213-.48903-.1896-.85768-.6823-.36865-.5004-.55674-.9325-.42884-1.0538.18056-.0607.54921.2502.85768.6823Zm7.81691 3.0325c-.78243 0-1.4144-.3867-1.4144-.8643 0-.4776.63197-.8718 1.4144-.8718.7825 0 1.4144.3942 1.4144.8718s-.6319.8643-1.4144.8643ZM9.17116 1.36461c.06019.25018-.43636.55343-1.10596.74295-.61692.1213-1.23385.06065-1.29404-.18952-.06019-.2426.42884-.55343 1.10596-.74296.67711-.1213 1.23385-.06065 1.29404.18953Zm-4.0627.74295c.12038.1213-.18808.49278-.67711.86426-.49655.37148-.92539.561-1.04577.43971-.06019-.12888.24828-.56101.7373-.87184.42884-.37148.9254-.55342.98558-.43213ZM9.11097 20.0825c-.06771.2426-.61693.3715-1.29404.182-.67712-.1213-1.17367-.4928-1.10596-.743.06019-.2502.60941-.3715 1.28652-.1819.61693.1819 1.17367.4927 1.11348.7429Zm-4.61943-.8112c-.24577-.1819-.49154-.3664-.73731-.5534-.30846-.2502-.48903-.5004-.36865-.6217.12038-.1212.54922.0607 1.04577.4322.48903.3715.79749.7429.67711.8718-.06018.1213-.30846.0607-.61692-.1289ZM10.2169.432127c.5492 0 1.0458.128879 1.0458.310828 0 .189529-.4966.310825-1.0458.310825-.55671 0-1.04574-.121296-1.04574-.310825 0-.121299.48903-.310828 1.04574-.310828Zm-3.81439.621653c.54921-.189527.98558-.250176 1.04577-.121296.06018.121296-.30847.432126-.86521.614076-.54921.18953-.98558.25018-1.04577.12888 0-.12888.36866-.43213.86521-.62166ZM3.01693 3.1007c-.06019-.06065.24827-.37148.61693-.68231.36865-.31083.7373-.561.79749-.50035.06019.06823-.24828.37147-.61693.6823-.42884.31083-.7373.50036-.79749.50036Zm7.44827 17.9067h-.1881c-.55672 0-1.04575-.1213-1.04575-.3108 0-.182.42884-.3033 1.04575-.3033.5568 0 1.0458.1213 1.0458.3033 0 .1895-.3687.2502-.8577.3108Zm9.8408-8.4909c0-.3108.1279-.6141.2482-.8642.1204-.0607-.3084 1.7967-.3084 1.6754 0-.2502 0-.561.0602-.8112ZM7.56865.621656c0-.12888.42884-.250179.92539-.310828.48903-.060649.91787-.060649.91787 0 .06771.121299-.36865.250178-.85768.310828-.48903.060649-.92539.060649-.98558 0ZM4.8 1.61479c-.06019 0 .24828-.25018.7373-.43971.42884-.242596.7975-.371476.7975-.310827 0 .068231-.30094.310827-.73731.500357-.42884.18195-.79749.31083-.79749.25018ZM9.90846 0h.67714c.3084 0 .4288 0 .4288.06065 0 .060649-.3686.128879-.7975.128879-.42881 0-.80499-.06823-.80499-.12888 0 0 .24828-.060649.49655-.060649Zm7.20004 7.37648c.3686.74295.1805 1.6072-.3687 1.91803-.5567.31083-1.3542-.1213-1.7229-.9249-.3686-.74295-.1881-1.61479.3687-1.92562.5492-.31082 1.3542.12888 1.7229.93249Zm2.6482 1.05378c.1806.6823.0602 1.23573-.188 1.29638-.2483.06823-.617-.43213-.7374-1.11443-.188-.68231-.0601-1.23573.1806-1.29638.2483-.06823.5568.43212.7448 1.11443Zm0 4.76854c-.188.6823-.5567 1.1827-.805 1.1144-.2407-.0606-.3686-.614-.1805-1.2963.1805-.6823.5492-1.1827.7975-1.1145.2482.0607.3084.6823.188 1.2964Zm-1.6025-.9249c-.4739 0-.8652-.652-.8652-1.4556 0-.8112.3913-1.46314.8652-1.46314.474 0 .8577.65194.8577 1.46314 0 .8036-.3837 1.4556-.8577 1.4556Zm2.3398-1.3646c0 .5534-.1279 1.0538-.3084 1.0538-.1881 0-.3085-.5004-.3085-1.1144 0-.5611.1204-1.05383.3085-1.05383.1204 0 .3084.49273.3084 1.11443Zm-6.8313-7.06565c.7975.43213 1.1661 1.23573.8577 1.79674-.3085.56101-1.1662.74295-1.9637.31083-.805-.43213-1.1736-1.24331-.8652-1.79674.3085-.56101 1.1737-.6823 1.9712-.31083Zm1.7831-.93248c.6169.43213.9254.99313.7373 1.30396-.2483.25018-.8577.18195-1.4746-.25018-.617-.43213-.9254-.99313-.7373-1.29638.1805-.25018.8576-.18953 1.4746.2426Zm1.5423 3.35087c-.3762-.62165-.4966-1.30396-.1279-1.49348.2483-.18195.805.12888 1.2338.75053.3687.61408.4891 1.29638.1806 1.48591-.3085.18195-.8577-.12888-1.2865-.74296Zm2.4602.86426c-.1881-.55343-.2483-.99313-.1279-1.05378.1279-.06065.4363.37147.6169.87183.1881.55343.2483.98555.1279 1.05378-.1279.06065-.4364-.37147-.6169-.87183Zm-5.7254 10.5378c-.7975.4321-1.6627.2502-1.9712-.3108-.3084-.561.0602-1.3646.8652-1.7967.7975-.4322 1.6627-.2502 1.9712.3108.3009.5534-.0677 1.3646-.8652 1.7967Zm4.2432-12.70602c-.3686-.49277-.5492-.93248-.4288-1.05378.1279-.1213.4966.18953.8652.68231.3687.49277.5492.93248.4288 1.05378-.1203.06065-.4965-.18953-.8652-.68231Zm-1.783 12.33452c.1881.3109-.1204.8643-.7373 1.304-.5568.4321-1.2339.5534-1.4145.2426-.188-.3108.1204-.8643.7374-1.2964.6169-.379 1.294-.5003 1.4144-.2502Zm2.6482-1.3646c.1204.1213-.0601.561-.4288 1.0538-.3085.4928-.7373.8036-.8652.6823-.1204-.1213.0602-.561.4288-1.0538.3687-.4927.7449-.8036.8652-.6823Zm.0602-11.09121c0 .06064-.3084-.25018-.6169-.62166-.3085-.43213-.489-.74295-.4288-.8036.1881-.06823 1.1661 1.29638 1.0457 1.42526Zm-5.2288-2.91875c-.0602.25017-.6169.37147-1.294.18952-.6772-.12129-1.1662-.49277-1.106-.74295.0602-.25018.6169-.371477 1.294-.18953.6772.18953 1.1662.50036 1.106.74296Zm3.3856 1.49349c-.1279.12129-.5568-.06823-1.0458-.43971-.4965-.37148-.805-.74296-.6771-.86426.1204-.12129.5492.06065 1.0458.43213.489.37148.7975.74296.6771.87184ZM13.7831 19.5215c.0602.2502-.4891.561-1.106.743-.6771.1288-1.2338.0606-1.294-.182-.0602-.2502.4288-.561 1.1059-.7429.617-.1896 1.2339-.0683 1.2941.1819Zm2.8965-.8036c-.2483.182-.4363.3715-.7448.5534-.2408.1289-.489.1896-.5492.1289-.1204-.1289.1805-.5003.6771-.8718.489-.3715.9254-.5534 1.0458-.4322.0602.1213-.1204.3715-.4289.6217ZM12.9856.864253c.0602-.121299.489-.060649 1.0457.12888.4891.250177.9254.492777.8577.621657-.0602.1213-.5492.06065-1.0457-.12888-.4891-.18195-.8577-.492777-.8577-.621657Zm3.0771 1.053787c.0602-.06065.4288.12888.7975.4397.3686.31083.6771.61408.6169.68231-.0602.06065-.4288-.12888-.7975-.43971-.3686-.31083-.6771-.61407-.6169-.6823ZM15.0169 19.7717l-1.9109.8036c-.0602-.1213.3686-.4321.8652-.6217.5492-.2426 1.0457-.3108 1.0457-.1819Zm0 0c0 .1213-1.8508.9249-1.9109.8036-.0602-.1213.3686-.4321.8652-.6217.5492-.2426 1.1059-.3108 1.0457-.1819ZM10.9542.310828c0-.060649.4289-.060649.9254 0 .5492.121299.9179.250178.9179.310828 0 .060649-.4288.060649-.9179 0-.4965-.12888-.8652-.250179-.9254-.310828Zm3.1975.553425c0-.060649.3687.068231.805.310827.4289.25018.7373.43971.7373.50036 0 0-.3686-.12888-.805-.31083-.4288-.25018-.7373-.432126-.7373-.500357ZM12.3085.189529c.1203-.06823 1.4746.371477 1.4746.432127-.2483 0-.4891 0-.7373-.12888-.2483-.060649-.4891-.121299-.7373-.303247ZM20.306 9.11256c-.0602-.50035-.0602-.93248 0-.93248.188-.06065.3686 1.79674.3084 1.85742-.0602 0-.2483-.43216-.3084-.92494ZM6.4627 19.9536c.48902.1896.92539.5004.85768.6217-.06019.1213-1.90345-.6823-1.90345-.8036 0-.1289.54921 0 1.04577.1819Zm5.7254.8112c.2407-.0682.489-.1289.7975-.0682 0 .0682-1.4144.379-1.4746.3108.1805-.1819.4288-.2426.6771-.2426Zm-3.14484.2426c-.06019.0682-1.47461-.2426-1.47461-.3108.30847-.0607.55674 0 .79749.0682.24828 0 .49656.0607.67712.2426Z"/>
  </defs>
  <g clip-path="url(#a)">
    <use xlink:href="#b"/>
    <path fill="#0C203D" d="M10.2773 9.17324c-.98557 0-1.78306-.76569-1.78306-1.70576 0-.94006.79749-1.70576 1.78306-1.70576.9856 0 1.7831.7657 1.7831 1.70576 0 .94007-.7975 1.70576-1.7831 1.70576ZM3.38577 14.192c-.42884-.743-.24827-1.6072.30847-1.9181.54921-.2501 1.35423.2426 1.72288.9856.36865.7505.18057 1.6148-.36865 1.9256-.55674.2502-1.29404-.1895-1.6627-.9931Zm1.97116-3.4115c-.06771-.92495.67712-1.72855 1.65518-1.79678.92539 0 1.72288.81118 1.66269 1.79678.06019.9324-.67711 1.736-1.66269 1.8043-.97806 0-1.72289-.8112-1.65518-1.8043Zm-1.91097 4.5259c.36865.6217.48903 1.304.18809 1.4859-.30846.1895-.8652-.1213-1.29404-.7429-.36866-.6141-.49656-1.2964-.18809-1.4859.30846-.182.8652.1213 1.29404.7429Zm11.57114-2.0469c.3687-.8036 1.1662-1.2357 1.7229-.9249.6169.2502.7373 1.1144.3687 1.918-.3687.8112-1.106 1.2433-1.7229.9325-.5568-.3108-.7373-1.1751-.3687-1.9256Zm-3.205-2.479v-.2426c.0677-.93253.8652-1.61483 1.7906-1.55418.9179.06823 1.595.87183 1.5348 1.79678.0602.9324-.6771 1.736-1.6627 1.8043-.9856 0-1.7229-.8112-1.6627-1.8043Zm4.9881 6.0118c-.3085-.2426-.2483-.8642.1881-1.4859.4288-.6216.978-.9249 1.2865-.7429.3085.2501.2483.8718-.1806 1.4859-.4288.6216-.9855.9324-1.294.7429Z"/>
    <use xlink:href="#b"/>
    <path fill="#0C203D" fill-rule="evenodd" d="M117.968 7.99815c.798-.25018 1.663.1213 1.911.9249.121.31083.121.68231 0 .99313-.127.43212-.496.80362-.925.93252-.797.2426-1.663-.1289-1.911-.93252-.12-.31082-.12-.6823 0-.99313.188-.43213.497-.8036.925-.9249Zm.189 2.66095c.677.1896 1.354-.2501 1.534-.93245.188-.67472-.248-1.35703-.925-1.54655-.677-.18195-1.354.25017-1.535.93248-.06.18195-.06.43213 0 .61407.181.43975.489.81115.926.93245Zm-.249-2.10753h.677c.429 0 .617.18953.617.50036 0 .2426-.128.43213-.368.49278l.428.74299h-.308l-.429-.68235h-.248v.68235h-.309l-.06-1.73613Zm.309.74296h.248c.181 0 .429 0 .429-.25018 0-.2426-.248-.2426-.429-.2426h-.248v.49278ZM33.9082 2.22888 41.6048 19.15c.0602.1213 0 .2426-.1279.3033h-1.9035c-.1279 0-.188-.0607-.2482-.1213l-1.7229-3.783c-.0602-.0607-.1279-.1213-.2483-.1213h-7.4483c-.1203 0-.1805.0606-.2407.1213l-1.7229 3.783c-.0677.0606-.1279.1213-.2483.1213h-1.7229c-.1203 0-.2482-.1213-.2482-.2426v-.1289l7.7567-16.85292c.0602-.12888.1806-.18953.3085-.12888.0601.06823.1203.12888.1203.12888Zm2.7085 10.90932-2.7085-5.95124c-.0602-.12888-.1805-.18953-.3084-.12888-.0602 0-.1204.06823-.1204.12888l-2.7085 5.95124c-.0602.1213 0 .2426.1204.3032h5.5373c.1279 0 .2483-.1213.2483-.2426-.0602 0-.0602-.0606-.0602-.0606Zm7.2-9.11259 1.6025-.8036c.1204-.06823.2408 0 .3085.1213V19.332c0 .1213-.1279.2502-.2483.2502h-1.6025c-.1204 0-.2483-.1289-.2483-.2502V4.20756c.0677-.06065.0677-.18195.1881-.18195Zm4.8-2.29709 1.6025-.803604c.1204-.060649.2408 0 .3085.121294V19.2713c0 .1213-.1279.2502-.2483.2502h-1.6025c-.1204 0-.2483-.1289-.2483-.2502V1.9787c.0677-.1213.1279-.18195.1881-.25018Zm10.2771 9.36278c-.1204.0606-.2483.0606-.3084 0-.5568-.6217-1.2941-.9325-2.0916-.9325-.9856 0-1.8432.4321-1.8432 1.2433 0 1.2964 1.8432 1.4859 2.7686 1.7361 1.7831.4321 3.1975 1.1144 3.1975 3.222 0 2.479-2.2796 3.4722-4.4313 3.4722-1.7229 0-3.017-.4398-4.0627-1.7361-.0602-.1289-.0602-.2502.0601-.3109l1.2339-.9931c.1204-.0606.2483-.0606.3085 0 .6169.6217 1.4144 1.1751 2.5203 1.1751 1.0458 0 2.2195-.4321 2.2195-1.3646 0-1.2358-1.7229-1.4859-2.6483-1.6679-1.7831-.4397-3.3254-.9931-3.3254-3.1613 0-2.29712 2.0915-3.41156 4.1229-3.41156 1.3542 0 2.7686.43213 3.6338 1.61479.0602.12127.0602.24257-.0601.31087l-1.2941.8036Zm11.6314.1819c-.1279.0607-.2483.0607-.3085 0-.6771-.6823-1.6025-1.1144-2.5881-1.0538-2.2721 0-3.3856 1.8574-3.3856 3.9043s1.3543 3.7224 3.5135 3.7224c.9179.0606 1.8433-.3715 2.4602-1.0538.0602-.1289.2408-.1289.3687 0l1.1059 1.1144c.0602.1213.0602.2502 0 .3109-1.0458 1.0537-2.4 1.4859-3.8746 1.5465-3.1373.0607-5.7856-2.479-5.8458-5.701v-.0607c0-3.4115 2.2721-5.82989 5.7179-5.82989 1.4821-.06065 2.9567.50036 4.0025 1.55414.1254.1213.1254.24513 0 .37145l-1.1661 1.1751Zm3.5059-2.78986h1.6025c.1204 0 .2483.1213.2483.25018v1.42528h.0602c.5492-1.18268 1.9034-1.98629 3.2577-1.98629.2482 0 .4965 0 .7448.06065.1204 0 .1806.12888.1806.25018l-.0602 1.79676c0 .1213-.1204.2502-.2483.2502h-.0602c-.2483-.0683-.489-.0683-.7373-.0683-2.0313 0-3.1373 1.122-3.1373 3.5329v5.2689c0 .1288-.1279.2501-.2483.2501h-1.6025c-.1204 0-.2407-.1213-.2407-.2501V8.73352c0-.12888.1203-.25018.2407-.25018Zm8.6144-5.39021c.8051-.25018 1.6627.18195 1.911.9249.2483.81119-.1881 1.67544-.9254 1.92562-.7975.2426-1.6627-.18953-1.9034-.93248-.1279-.31083-.1279-.68231 0-.99314.1204-.43212.489-.8036.9178-.9249Zm-.3009 5.39021h1.595c.1279 0 .2483.1213.2483.25018V19.2638c0 .1288-.1204.2501-.2483.2501h-1.595c-.1279 0-.2483-.1213-.2483-.2501V8.73352c0-.12888.1204-.25018.2483-.25018Zm4.6119 0h1.6025c.1204 0 .2408.1213.2408.25018v1.35708h.0677c.7975-1.17513 2.3323-1.85744 3.8144-1.85744 3.3856 0 5.5373 2.53974 5.5373 5.76174 0 3.2902-2.2194 5.7692-5.5373 5.7692-1.5423 0-3.0771-.7429-3.8144-1.8649h-.0677v5.8299c0 .0606-.0602.1819-.1204.1819l-1.6025.8112c-.1204.0607-.2408 0-.3085-.1289V8.73352c0-.12888.0677-.25018.1881-.25018Zm1.8433 5.14006c-.1204 2.4184 1.294 4.2151 3.6338 4.1545 1.911-.0607 3.4458-1.5466 3.5662-3.4722.1279-2.4108-1.2865-4.2152-3.6264-4.1469-1.9109.0606-3.4457 1.5465-3.5736 3.4646Zm25.6622-2.5397c-.12.0606-.248.0606-.308 0-.549-.6217-1.287-.9249-2.092-.9249-.985 0-1.843.4321-1.843 1.2357 0 1.304 1.843 1.4859 2.769 1.7361 1.783.4321 3.197 1.1144 3.197 3.222 0 2.479-2.272 3.4722-4.431 3.4722-1.723 0-3.009-.4322-4.063-1.7361-.06-.1213-.06-.2502.068-.3108l1.226-.9932c.128-.0606.249-.0606.309 0 .617.6217 1.414 1.1827 2.52 1.1827 1.053 0 2.22-.4397 2.22-1.3646 0-1.2433-1.723-1.4859-2.649-1.6755-1.783-.4321-3.318-.9931-3.318-3.1613 0-2.28953 2.092-3.40396 4.123-3.40396 1.355 0 2.769.43213 3.627 1.60721.06.12125.06.25015-.06.31085l-1.295.8036Zm-10.089 6.6335c.429 0 .798-.0606 1.167-.1895h.06c.12 0 .248.1289.248.2502v1.3646c0 .1213-.06.1819-.128.2426-.549.1895-1.166.3108-1.723.3108-3.197 0-3.257-1.9787-3.257-3.7148v-5.2689c0-.1213-.121-.2502-.249-.2502h-1.1056c-.1204 0-.2483-.1213-.2483-.2426V8.60464c0-.1213.1279-.25018.2483-.25018h1.1056c.128 0 .249-.1213.249-.2426V6.1256c0-.06065.06-.1213.12-.18953l1.602-.80361h.121c.128 0 .248.12888.248.25018v2.85052c0 .1213.12.25018.248.25018h2.769c.12.06065.181.18195.12.30325l-.797 1.61481c0 .0606-.12.1213-.188.1213h-1.843c-.121 0-.249.1289-.249.2502v4.5259c0 1.2357 0 2.5397 1.482 2.4184Z" clip-rule="evenodd"/>
  </g>
  <defs>
    <clipPath id="a">
      <path fill="#fff" d="M0 0h120v24.7904H0z"/>
    </clipPath>
  </defs>
</svg>
