<svg width="396" height="503" viewBox="0 0 396 503" fill="none" xmlns="http://www.w3.org/2000/svg">
<path d="M183.341 310.405C183.222 310.669 183.529 310.635 183.676 310.668C186.626 312.35 189.956 313.582 193.308 314.06L193.639 314.107L194.862 314.348L195.202 314.413C195.589 314.488 195.993 314.446 196.389 314.454C196.276 314.726 196.604 314.667 196.743 314.698C197.371 317.953 196.428 326.072 197.568 325.617C197.769 325.536 197.86 325.295 197.867 324.979L198.086 314.833L203.533 314.704C203.946 314.695 204.62 314.905 204.828 314.46C205.325 314.472 205.832 314.461 206.326 314.413C206.741 314.371 207.415 314.591 207.625 314.149C208.114 314.171 208.608 314.11 209.096 314.095C209.338 314.087 209.749 314.177 209.773 313.836C209.873 313.816 209.982 313.824 210.084 313.822C210.629 313.816 211.217 313.864 211.664 313.507C211.854 313.487 212.053 313.524 212.241 313.487C212.453 313.445 212.955 313.535 212.907 313.202L213.485 313.176C213.636 313.169 213.957 313.183 213.838 312.911L214.436 312.887C214.739 312.874 215.318 312.969 215.391 312.572C221.247 311.257 226.754 308.494 231.956 305.271C233.703 304.189 235.369 303.246 236.795 301.958C236.961 301.936 237.165 301.868 237.163 301.671C237.873 301.439 238.426 300.918 238.956 300.405C239.094 300.323 239.213 300.214 239.303 300.08C242.174 297.813 245.037 295.478 247.358 292.648C247.492 292.56 247.604 292.443 247.689 292.306C254.506 285.427 261.848 273.592 265.91 264.523C268.524 259.365 270.316 254.136 272.183 248.68L272.285 294.354L255.382 304.636L243.827 311.692C243.351 311.728 243.151 312.339 242.783 312.503C240.918 313.331 239.082 314.41 237.449 315.651C237.037 315.645 236.533 315.78 236.466 316.242C231.817 318.74 227.345 321.599 222.828 324.347C222.696 324.427 222.586 324.577 222.446 324.639C220.938 325.306 219.56 326.25 218.191 327.167C218.06 327.254 217.927 327.339 217.816 327.454C216.387 328.081 214.941 328.841 213.78 329.886C213.541 329.922 213.365 330.098 213.16 330.199C211.969 330.789 202.44 336.184 202.501 336.645C202.526 336.831 202.646 337.476 202.855 337.367C204.236 336.652 205.304 336.002 206.34 335.256C206.623 335.261 206.794 335.07 206.982 334.9C207.942 334.037 208.989 334.351 210.053 334.954C210.232 335.056 210.535 335.164 210.676 335.293C211.398 335.953 212.214 336.537 213.16 336.812C213.368 336.873 213.528 337.164 213.783 337.158C213.855 337.263 214.001 337.329 214.061 337.442C214.265 337.82 214.628 338.066 215.063 338.059C216.598 339.418 218.576 340.146 220.38 341.111C220.531 341.192 220.624 341.414 220.792 341.341C221.007 341.247 221.166 341.172 221.376 340.827C221.75 341.026 221.921 341.385 221.909 341.767C221.529 341.739 221.516 342.083 221.898 342.088C222.274 342.341 222.668 342.56 223.099 342.703C222.971 342.919 223.29 343.002 223.445 343.055C223.555 343.092 223.684 343.044 223.799 343.059C224.876 344.121 226.412 344.591 227.68 345.618C228.229 346.063 228.825 346.335 229.43 346.355C229.689 346.363 229.858 346.525 229.97 346.741C230.073 346.864 230.163 347.005 230.282 347.113C230.735 347.52 231.378 347.675 231.852 348.039C232.939 348.873 234.101 349.574 235.324 350.182L236.45 350.741C236.899 350.965 237.201 351.614 237.738 351.761C238.046 351.847 238.327 352.032 238.666 351.984C238.824 352.26 239.07 352.525 239.463 352.761L258.875 364.462L270.365 371.326C270.869 371.628 271.397 371.923 271.546 372.484L230.492 397.055L197.808 416.714L189.167 411.558L180.9 406.679L127.061 374.903C125.545 374.008 124.496 373.497 122.996 372.497L156.951 351.735L168.726 344.827C168.863 344.746 168.995 344.661 169.066 344.513C169.26 344.407 169.464 344.319 169.674 344.25C169.799 344.154 169.911 344.04 170.008 343.914C170.101 343.874 170.22 343.93 170.318 343.904C170.77 343.782 171.35 343.558 171.286 343.014C171.452 343.031 171.628 342.946 171.796 342.951C171.939 342.955 172.06 342.871 172.172 342.775C172.302 342.661 172.38 342.534 172.235 342.392L172.768 342.332C172.921 342.315 173.045 342.196 173.116 342.064L173.719 341.45C173.874 341.418 174.191 341.41 174.061 341.175L175.226 340.796C175.456 340.721 175.816 340.572 175.663 340.276C176.758 339.827 177.788 339.16 178.7 338.411C178.863 338.277 179.196 338.1 179.388 337.999C180.543 337.399 181.757 336.795 182.711 335.908C182.881 335.751 183.12 335.67 183.3 335.525C184.537 335.536 185.947 332.946 187.44 334.522C188.141 335.262 189.244 335.334 189.898 335.819C192.205 337.531 194.758 338.904 197.303 340.558C198.588 340.129 199.785 339.435 200.523 338.616C200.972 338.484 201.718 338.139 202.002 337.769C202.088 337.657 202.52 337.828 202.677 337.548C202.726 337.461 202.409 337.417 202.322 337.38C201.904 336.445 201.003 337.428 200.385 337.825C199.767 338.221 199.108 338.588 198.143 338.694C197.694 335.936 198.462 331.805 197.744 329.636C197.435 328.703 198.039 327.709 197.334 326.596C196.781 327.59 197.035 328.487 197.022 329.328L196.86 339.098C194.335 337.58 192.028 336.463 189.965 334.995L188.054 333.636L169.128 322.448C167.079 321.237 165.232 319.998 163.206 319.065C163.102 318.616 162.639 318.431 162.21 318.435L149.463 310.683L122.694 294.737L122.561 228.502L122.455 207.351L158.671 228.962L181.865 242.766C187.055 245.856 192.055 248.777 196.964 252.202C197.054 253.873 196.959 255.311 196.829 256.879C197.132 258.656 196.874 260.372 196.861 262.168L196.736 280.467C190.821 289.713 185.812 299.307 181.464 309.334C181.939 310.034 182.702 310.267 183.331 310.405H183.341Z" fill="#6DA9C6"/>
<path d="M197.496 339.497V311.997" stroke="white" stroke-width="2"/>
<path d="M122.812 206.357C125.143 204.389 127.559 203.204 129.937 201.768L138.833 196.393L152.61 188.123L154.928 186.741L162.277 182.301L166.127 179.841C168.359 178.414 170.53 176.948 173.026 175.954C173.511 175.413 173.976 175.034 174.623 174.641L197.401 160.807L250.357 192.638L272.408 206.191L261.729 212.516L230.053 231.465L197.724 251.151L157.571 227.11L122.814 206.357H122.812Z" fill="#6DA9C6"/>
<path d="M384.178 131.574L365.563 142.655L319.651 170.157L278.344 145.345L253.802 130.726L245.412 125.531L268.391 111.511L285.888 101.014L296.945 94.4146L312.075 85.2743C314.729 83.6714 317.053 81.9021 319.958 80.7733C322.947 82.8536 326.235 84.1533 329.238 86.2958C330.338 87.0809 331.276 87.7339 332.505 88.2951C334.89 89.3819 336.879 90.8154 339.209 92.2006L394.693 125.158C392.838 126.958 390.84 127.291 389.135 128.544C387.594 129.678 385.966 130.509 384.175 131.574H384.178Z" fill="#6DA9C6"/>
<path d="M0.357422 125.371L20.1534 113.74L26.2605 110.156C27.157 110.209 27.5982 109.502 28.2585 109.098L40.8007 101.398L47.0352 97.7231L50.1362 95.803C53.5199 93.7072 56.9984 92.0405 60.32 89.8483L62.9441 88.1164L68.5712 84.7379L71.7234 82.9344L75.031 80.7142L86.551 87.5784L106.903 99.8126L108.879 100.983L124.24 110.166L149.245 125.722C146.79 127.504 144.398 128.955 141.839 130.485L123.161 141.655L75.769 170.113L59.972 160.575L27.9011 141.665L0.357422 125.371Z" fill="#6DA9C6"/>
<path d="M123.495 310.172L75.7298 339.053L50.9593 324.093L17.5492 304.122L0.705078 293.939C2.52745 292.236 4.37933 291.358 6.36328 290.167L39.1178 270.487L49.0142 264.523C50.0799 263.881 50.9266 263.111 52.0794 262.642C54.0602 261.837 55.8127 260.389 57.7159 259.218L67.4398 253.24L74.9825 257.735C75.7562 258.197 76.5532 257.263 77.1265 256.886C79.0825 255.601 80.8582 254.448 83.0084 253.237L100.994 264.023L121.522 276.465L121.538 295.128L134.9 303.081C131.061 305.753 127.399 307.809 123.495 310.17V310.172Z" fill="#6DA9C6"/>
<path d="M375.993 282.538C378.516 283.982 380.836 285.444 383.281 286.877L394.993 293.748L366.687 310.677L350.272 320.435L331.374 331.957L319.559 338.958L266.815 307.44C264.443 306.022 262.34 304.869 259.977 303.098L273.339 295.004L273.351 276.715L281.534 271.705L302.36 259.296C304.448 258.052 306.401 257.028 308.397 255.767L312.107 253.424C313.548 253.993 314.627 255.203 316.051 255.89C317.388 256.535 318.438 257.367 319.896 258.2L326.189 254.25C327.407 253.485 328.22 253.718 329.374 254.375C332.122 255.94 334.841 257.569 337.447 259.292L341.045 261.67C342.359 262.539 343.653 263.062 344.983 263.861L354.171 269.39C354.951 269.859 355.444 270.599 356.435 270.818C357.294 271.008 357.869 271.737 358.572 272.126L361.964 273.996L366.398 276.776C368.324 277.983 370.169 279.208 372.16 280.349L375.99 282.541L375.993 282.538Z" fill="#6DA9C6"/>
<path d="M224.741 70.5696L219.561 73.6557L216.429 75.4872L208.7 80.1903C205.127 82.3638 201.532 84.2622 198.1 86.6052C195.359 85.307 193.19 83.7211 190.715 82.3016L183.591 78.2158L177.039 74.2699L167.419 68.5873L153 60.0564L146.564 56.2116C143.713 54.5091 140.932 52.9575 138.075 51.2924L133.169 48.4332C130.349 46.7899 127.433 45.658 124.566 43.5467L145.093 31.3715L160.133 22.4675C162.268 21.2035 164.251 20.0359 166.381 18.761L175.74 13.1593L194.766 1.79883C195.779 1.19404 196.468 0.390239 197.609 0C198.283 0.814683 199.176 1.16761 200.018 1.66979L209.157 7.13936L219.358 13.1236L233.857 21.9389C235.955 23.2138 238.052 24.2461 240.073 25.7278C241.863 27.04 244.164 27.6401 245.854 29.1902C246.897 30.1448 248.259 30.4667 249.446 31.1632L256.917 35.5475L268.827 42.5283C269.152 42.718 269.554 42.8377 269.744 43.1922C270.101 43.8576 264.943 46.5442 264.101 47.0495L257.927 50.7513L253.585 53.3011C252.699 53.8219 251.728 54.3055 250.866 54.8387L245.843 57.9467L238.417 62.359L229.967 67.5207L224.744 70.5727L224.741 70.5696Z" fill="#6DA9C6"/>
<path d="M198.154 478.308C203.88 477.211 209.051 475.61 213.906 472.616C209.633 462.653 204.503 453.452 198.218 444.593L198.228 417.649L250.521 386.259L263.445 378.594C265.028 377.655 266.452 376.653 268.123 375.852C269.45 375.216 270.381 373.922 271.951 373.482L271.838 399.199L271.589 458.366L257.36 467.205L198.222 502.997L198.152 478.309L198.154 478.308Z" fill="#6DA9C6"/>
<path d="M208.566 166.388L198.249 160.102L198.114 150.576C198.086 150.026 197.901 148.893 198.393 148.403C203.621 147.426 208.644 145.89 213.452 143.101C209.228 133.019 204.111 123.802 198.263 114.824L198.238 87.681L226.158 71.0515L270.699 44.4421L270.684 108.864L251.547 120.756L244.218 125.345L244.224 145.755L220.753 159.992L210.65 166.046C210.066 166.814 209.36 166.868 208.568 166.387L208.566 166.388Z" fill="#6DA9C6"/>
<path d="M45.8351 239.21L41.9946 236.93L21.571 224.762L13.8963 220.092L11.078 218.296L8.63111 216.933L2.46023 213.321C1.84345 212.96 0.667376 212.203 0.353549 211.404L0.345781 171.718C0.345781 170.58 -0.118744 169.639 0.515123 168.478L4.86675 178.775C8.45245 187.259 13.1785 195.022 18.7062 202.408C25.3851 211.329 33.5726 218.607 43.1815 224.201C52.817 229.618 64.0106 233.037 75.2835 232.241L75.1732 256.849L66.4436 251.393C63.7931 250.134 61.4177 248.652 58.9288 247.144L45.8335 239.21H45.8351Z" fill="#6DA9C6"/>
<path d="M64.7042 418.64L54.1522 412.259C51.2392 410.564 48.5219 408.834 45.6509 407.125L40.7602 404.215C39.0792 403.215 37.5862 402.285 35.8865 401.259L9.609 385.404L0 379.566L0.0699118 335.688C3.261 343.106 6.07612 350.276 10.0362 357.206C13.9964 364.135 17.7063 370 22.7602 375.619C29.4111 383.602 37.4867 389.565 46.6949 394.322C55.6343 398.943 65.3536 401.382 75.4877 401.071C75.0542 404.277 75.3945 407.071 75.3525 410.017L75.1335 425.011L64.7057 418.638L64.7042 418.64Z" fill="#6DA9C6"/>
<path d="M334.277 231.337C338.815 230.366 342.73 228.948 346.887 227.102C367.395 217.483 378.963 202.212 389.025 182.445C391.612 177.531 393.326 172.428 395.244 167.257L395.324 211.485L320.063 256.748L319.973 232.323C324.935 232.807 329.501 232.46 334.277 231.339V231.337Z" fill="#6DA9C6"/>
<path d="M196.82 499.615C196.82 500.808 197.395 501.657 196.696 502.75L175.761 490.285L142.796 470.462C141.738 469.826 140.706 469.547 139.884 468.601C138.834 468.648 138.32 467.913 137.555 467.443L122.756 458.365L122.897 415.019C124.249 416.886 124.73 418.966 125.565 421.087C131.611 436.473 140.644 450.866 153.13 461.908C164.568 472.061 181.055 479.261 196.796 478.507L196.822 499.615H196.82Z" fill="#6DA9C6"/>
<path d="M341.672 342.409C333.216 350.244 326.267 358.907 320.086 368.722L319.959 340.068L351.357 321.058L395.299 294.732L395.29 330.242C389.936 326.355 383.753 324.911 377.237 325.254C371.061 325.432 365.346 327.232 359.768 329.877C353.097 333.168 347.444 337.453 341.67 342.411L341.672 342.409Z" fill="#6DA9C6"/>
<path d="M351.32 406.043L340.098 412.848L319.799 425.299L319.805 400.948C328.309 401.519 336.54 399.751 344.52 396.435C350.978 393.797 356.608 389.955 362.114 385.726C372.994 377.296 381.985 364.392 388.188 352.176C391.104 346.811 393.161 341.463 395.221 335.708L395.277 379.176L379.096 389.059C375.693 391.138 372.623 393.363 369.065 395.185C367.266 396.623 365.24 397.545 363.267 398.748L351.32 406.042V406.043Z" fill="#6DA9C6"/>
<path d="M230.075 246.608C219.298 253.699 210.23 262.412 202.547 272.566L198.005 278.315L197.984 251.992L229.676 232.911L272.462 207.183L272.366 242.765C266.043 238.733 259.202 237.412 252.014 238.22C244.078 239.181 236.961 242.242 230.075 246.606V246.608Z" fill="#6DA9C6"/>
<path d="M352.514 165.245C340.216 173.302 330.417 183.748 322.154 195.843L320.002 199.171L320.027 171.113L350.653 152.857L358.161 148.392L395.33 126.288L395.294 161.694C389.533 157.896 383.375 156.247 376.589 156.705C367.864 157.284 359.825 160.471 352.514 165.244V165.245Z" fill="#6DA9C6"/>
<path d="M74.7646 368.024C63.6097 349.765 44.9883 329.743 23.1401 325.584C9.30999 322.95 0.54771 329.959 0.507316 329.939C0.269616 329.814 0.157757 329.575 0.0303619 329.23L0.0117188 294.864L47.5658 323.32L68.0375 335.52L74.9137 339.905C75.1266 344.19 75.3456 348.173 75.1685 352.385C75.0535 355.129 75.4466 357.809 75.1592 360.539C74.8733 362.946 75.4652 365.085 74.7646 368.025V368.024Z" fill="#6DA9C6"/>
<path d="M69.8806 167.789L75.2126 170.982L75.1753 198.599C67.8672 186.862 59.0365 176.771 48.2313 168.54C40.6435 162.93 32.3271 158.813 23.077 157.049C14.8554 155.48 6.95066 157.211 0.0449219 162.116L0.0495827 126.382C0.950669 126.567 1.41053 127.156 2.16713 127.607L34.2458 146.674L36.0651 147.733L51.4394 156.878L69.8791 167.791L69.8806 167.789Z" fill="#6DA9C6"/>
<path d="M186.134 429.196C184.212 426.836 182.108 425.008 179.924 422.917C174.713 417.928 169.116 413.648 162.761 410.221C156.362 406.987 149.851 404.518 142.681 403.932C135.51 403.088 128.921 404.807 122.829 409.381L122.697 373.664L132.499 379.342L197.051 417.551L197.101 442.908C193.476 438.147 190.142 433.491 186.134 429.196Z" fill="#6DA9C6"/>
<path d="M197.176 107.774C197.187 109.727 197.415 111.378 197.095 113.019C196.129 112.361 195.806 111.413 195.136 110.449C186.063 97.3717 172.688 84.2498 157.876 77.8085C146.922 73.4303 134.579 71.375 124.047 78.9839V44.4578L133.528 49.9196L146.568 57.6373L159.298 65.128L167.403 69.8233L177.543 75.8044L197.057 87.5318L197.176 107.771V107.774Z" fill="#6DA9C6"/>
<path d="M164.738 463.2C160.668 461.631 157.846 458.971 154.923 456.067C147.012 448.206 141.075 432.06 146.055 421.228C146.887 419.419 148.284 417.982 149.706 416.619C152.698 413.747 156.718 413.274 160.533 415.054C166.703 417.935 172.286 422.312 175.964 428.138C179.994 434.52 182.34 441.742 182.048 449.175C181.887 453.275 180.796 457.087 178.245 460.075C174.79 464.124 169.717 465.12 164.737 463.2H164.738ZM176.806 442.553C178.287 441.564 178.77 439.563 178.665 437.817C178.298 431.729 171.841 427.463 168.673 429.727C166.638 431.18 166.273 426.656 160.074 425.69C157.355 425.268 154.904 426.497 153.572 428.909C149.184 436.861 156.035 450.31 165.004 453.133C167.971 454.068 170.766 452.653 172.29 450.03C173.563 447.841 173.516 445.471 173.351 442.859C174.51 442.883 175.758 443.254 176.806 442.553Z" fill="#6DA9C6"/>
<path d="M240.572 291.601C239.802 292.263 239.101 292.807 238.795 293.729L234.14 297.149L229.588 299.351C227.596 300.313 224.839 300.301 222.661 299.592C217.787 298.006 214.577 293.642 213.734 288.549C212.603 281.722 213.905 274.956 216.937 268.766C221.702 259.043 225.998 254.907 235.285 249.702C239.474 247.356 245.039 249.273 247.757 253.125C248.842 254.663 249.859 256.111 250.433 257.947C253.354 267.317 250.212 277.908 245.022 285.91C243.703 287.944 242.503 289.942 240.572 291.601ZM223.128 284.935C224.418 288.087 227.174 289.495 230.419 288.721C233.222 288.053 235.762 286.45 237.724 284.214C242.166 279.155 245.533 271.631 243.137 264.878C241.84 261.221 237.864 259.464 234.299 260.817C231.962 261.704 230.18 263.161 228.384 264.99C226.038 263.576 223.534 263.856 221.412 265.521C218.486 267.815 215.662 272.801 218.391 276.658C219.196 277.796 220.987 278.228 222.473 278.452C222.692 280.509 222.258 282.808 223.128 284.934V284.935Z" fill="#6DA9C6"/>
<path d="M363.517 209.206C357.68 215.406 348.141 221.575 340.751 214.044C337.853 211.091 336.534 207.105 336.339 202.872C336.043 196.486 337.954 190.421 340.836 184.759C342.12 182.239 343.395 180.022 345.276 177.915C348.837 173.93 352.827 170.567 357.559 168.07C360.685 166.421 364.016 166.237 367.151 168.108C374.932 172.752 375.463 184.268 372.969 192.271C370.995 198.61 368.032 204.409 363.517 209.206ZM345.286 200.154C345.298 202.343 346.589 204.165 348.026 205.155C352.299 208.102 357.589 205.073 360.752 201.53C365.034 196.732 368.194 188.414 365.717 182.554C364.552 179.798 361.94 178.133 358.92 178.535C355.738 178.96 353.068 180.616 351.039 183.232C348.621 181.904 345.982 181.929 343.844 183.697C341.414 185.709 339.845 188.933 340.101 192.083C340.333 194.928 342.576 196.52 345.266 196.405L345.287 200.154H345.286Z" fill="#6DA9C6"/>
<path d="M50.7381 216.685C47.0686 218.249 43.2855 217.167 39.9997 215.323C33.3285 211.58 28.514 205.628 25.2328 198.714C20.847 189.477 18.8615 176.781 27.0194 169.148C29.8827 166.469 33.6346 166.029 37.1846 167.731C42.7884 170.421 47.7226 174.18 51.6688 179.138C57.4979 186.464 61.1923 198.117 58.4611 207.394C57.2974 211.345 54.7107 214.994 50.7397 216.685H50.7381ZM50.126 196.262C51.8567 196.021 53.1338 195.981 54.2446 195.079C57.2586 192.634 55.8837 186.076 51.4093 183.215C49.3772 181.915 47.196 182.113 45.0831 183.252C43.0649 180.699 40.3073 178.882 37.0168 178.529C33.5771 178.16 30.7775 180.404 29.7863 183.694C28.037 189.498 30.5787 195.483 34.0214 200.168C36.0132 202.878 38.5424 204.955 41.718 206.048C44.4678 206.995 47.356 205.998 48.9453 203.551C50.3342 201.412 50.5129 198.814 50.126 196.262Z" fill="#6DA9C6"/>
<path d="M50.3575 385.106C47.1928 386.426 43.8868 385.676 40.9862 384.331C36.518 382.262 33.1545 378.927 30.0318 375.168C27.1436 371.693 25.1286 367.834 23.5502 363.566C21.6284 358.367 20.8951 353.014 21.5973 347.497C22.0665 343.813 23.7444 340.53 26.3575 337.961C29.4212 334.947 33.6346 334.592 37.5015 336.598C47.0685 341.561 54.4869 350.326 57.4745 360.751C58.8494 365.552 59.314 370.239 58.2063 375.009C57.1964 379.356 54.6423 383.319 50.359 385.106H50.3575ZM49.806 364.55C52.4999 364.737 54.4403 363.161 54.7852 360.743C55.3399 356.836 52.9442 353.232 49.6226 351.298C47.8966 350.292 46.0882 350.838 44.3622 351.509C42.0566 349.344 39.4575 346.98 36.0411 346.812C33.1141 346.669 30.5895 348.683 29.6201 351.433C26.6651 359.813 33.7138 372.652 42.6516 374.647C45.1436 375.204 47.4787 374.078 48.7977 371.906C50.1167 369.734 50.0654 367.15 49.8075 364.552L49.806 364.55Z" fill="#6DA9C6"/>
<path d="M177.885 130.091C172.034 136.906 163.457 133.823 157.582 128.721C148.871 121.155 142.006 106.181 145.179 94.5965C147.316 88.3978 152.856 81.9643 160.056 84.8996C165.728 87.2115 170.431 91.0533 174.31 95.8916C179.922 102.889 182.633 111.905 181.744 120.836C181.394 124.351 180.093 127.52 177.883 130.091H177.885ZM173.498 112.907C175.037 112.998 176.51 112.516 177.47 111.495C180.493 108.275 177.857 101.403 172.617 99.2032C168.966 97.6702 168.346 101.321 166.531 99.2732C164.586 97.0794 161.9 95.5698 158.825 95.6739C156.77 95.7439 154.876 97.0732 153.678 98.8472C152.613 100.427 152.243 102.776 152.244 104.743C152.246 108.922 153.754 112.669 155.978 116.103C158.097 119.376 160.93 121.86 164.748 123.138C167.701 124.127 171.172 122.439 172.545 119.576C173.619 117.339 173.061 114.849 173.496 112.908L173.498 112.907Z" fill="#6DA9C6"/>
<path d="M349.963 385.822C345.793 386.446 342.15 384.269 339.689 381.192C335.876 375.759 336.13 367.777 337.899 361.561C339.234 356.872 341.35 352.815 344.179 348.799C347.67 343.843 352.326 339.976 357.537 336.92C361.916 334.351 366.773 335.219 370.163 338.967C374.932 344.239 375.159 352.197 373.368 358.901C371.087 367.441 366.76 375.078 359.861 380.668C357.064 383.165 353.892 385.235 349.963 385.822ZM345.877 370.945C347.766 374.939 352.397 375.886 356.079 373.692C362.073 370.121 366.153 363.767 366.712 356.749C366.888 354.554 366.714 352.529 365.837 350.674C364.32 347.462 360.875 346.043 357.566 347.293C355.195 348.188 353.191 349.577 351.467 351.612C349.518 350.519 347.558 350.549 345.606 351.612C342.436 353.344 340.445 357.123 340.873 360.804C341.159 363.263 343.382 364.454 345.505 365.025C345.471 366.973 344.987 369.062 345.877 370.945Z" fill="#6DA9C6"/>
<path d="M197.098 159.987L185.985 166.682L174.206 159.724L150.666 145.547L150.736 130.132C161.226 139.755 177.397 148.257 191.406 148.631L197.014 148.782L197.098 159.987Z" fill="#6DA9C6"/>
<path d="M142.05 119.925L127.761 111.097L123.895 108.819L124.073 85.296C127.398 94.3804 130.845 102.924 135.851 110.957C137.65 114.217 139.758 116.815 142.048 119.925H142.05Z" fill="#6DA9C6"/>
<path d="M365.72 208.99L366.006 209.005C365.128 209.677 364.681 210.746 363.584 211.074C364.392 210.415 364.776 209.388 365.72 208.99Z" fill="#6DA9C6"/>
<path d="M220.992 259.302C221.079 259.057 220.797 259.125 220.67 259.111C221.256 258.427 221.782 257.933 222.457 257.505C222.224 258.387 221.391 258.712 220.992 259.302Z" fill="#6DA9C6"/>
<path d="M152.625 126.543L152.923 126.276C153.229 126.716 154.039 126.879 154.115 127.824C153.424 127.496 152.959 127.105 152.625 126.543Z" fill="#6DA9C6"/>
<path d="M152.902 456.23L152.924 455.95C153.322 456.479 154.03 456.597 154.022 457.348C153.485 457.092 153.097 456.718 152.902 456.229V456.23Z" fill="#6DA9C6"/>
<path d="M165.067 134.326L165.07 134.65C164.646 134.351 164.267 134.326 164.197 133.955C164.649 133.885 164.876 134.107 165.069 134.326H165.067Z" fill="#6DA9C6"/>
<path d="M164.791 464.247L164.825 464.559C164.275 464.201 163.637 464.363 163.469 463.719C164.137 463.466 164.55 463.813 164.791 464.247Z" fill="#6DA9C6"/>
<path d="M344.841 345.838L344.602 345.603C344.858 345.189 345.079 345.001 345.447 344.979C345.514 345.522 345.033 345.581 344.841 345.838Z" fill="#6DA9C6"/>
<path d="M352.951 386.573L352.898 386.264C353.13 385.797 353.49 385.801 353.636 386.082C353.722 386.247 353.653 386.461 353.481 386.541C353.363 386.595 353.161 386.542 352.951 386.575V386.573Z" fill="#6DA9C6"/>
<path d="M154.622 457.751C154.708 457.751 154.778 457.681 154.778 457.595C154.778 457.51 154.708 457.44 154.622 457.44C154.536 457.44 154.467 457.51 154.467 457.595C154.467 457.681 154.536 457.751 154.622 457.751Z" fill="#6DA9C6"/>
<path d="M241.468 293.216C241.616 293.216 241.736 293.096 241.736 292.948C241.736 292.801 241.616 292.681 241.468 292.681C241.321 292.681 241.201 292.801 241.201 292.948C241.201 293.096 241.321 293.216 241.468 293.216Z" fill="#6DA9C6"/>
<path d="M154.622 128.146C154.708 128.146 154.778 128.077 154.778 127.991C154.778 127.905 154.708 127.835 154.622 127.835C154.536 127.835 154.467 127.905 154.467 127.991C154.467 128.077 154.536 128.146 154.622 128.146Z" fill="#6DA9C6"/>
<path d="M230.285 347.116C230.165 347.008 230.075 346.867 229.973 346.744C230.044 346.882 230.22 346.969 230.285 347.116Z" fill="#040608"/>
<path d="M223.448 343.058C223.292 343.006 222.975 342.922 223.101 342.706C223.253 342.758 223.348 342.946 223.448 343.058Z" fill="#040608"/>
<path d="M221.899 342.091C221.517 342.086 221.531 341.742 221.91 341.77L221.899 342.091Z" fill="#040608"/>
<path d="M176.806 442.553C175.755 443.254 174.509 442.883 173.35 442.86C173.515 445.47 173.56 447.841 172.289 450.03C170.765 452.653 167.969 454.068 165.003 453.133C156.036 450.308 149.183 436.861 153.572 428.909C154.903 426.497 157.356 425.268 160.073 425.691C166.272 426.656 166.639 431.18 168.673 429.727C171.84 427.463 178.297 431.729 178.664 437.818C178.769 439.565 178.286 441.564 176.806 442.553ZM172.477 430.036C171.34 429.532 170.159 429.498 169.089 430.131C168.379 430.551 167.562 431.496 167.336 432.726C166.588 436.819 169.311 441.165 173.343 442.308C174.553 442.651 175.788 442.393 176.7 441.692C179.382 439.632 178.002 432.48 172.477 430.036Z" fill="#040608"/>
<path d="M223.13 284.935C222.26 282.809 222.693 280.511 222.474 278.454C220.989 278.231 219.198 277.798 218.393 276.66C215.665 272.802 218.489 267.815 221.413 265.523C223.537 263.859 226.04 263.578 228.386 264.991C230.182 263.163 231.964 261.706 234.3 260.818C237.864 259.464 241.841 261.221 243.139 264.879C245.534 271.633 242.168 279.156 237.726 284.216C235.762 286.451 233.224 288.056 230.421 288.723C227.177 289.495 224.419 288.088 223.13 284.937V284.935ZM223.462 277.46C226.879 275.845 229.013 272.314 228.816 268.729C228.729 267.143 227.98 265.829 226.877 265.29C222.917 263.353 219.191 268.203 218.054 272.082C217.573 273.729 217.972 275.318 219.062 276.387C220.074 277.378 221.833 278.23 223.462 277.46Z" fill="#040608"/>
<path d="M345.287 200.154L345.266 196.405C342.576 196.521 340.335 194.928 340.102 192.083C339.845 188.933 341.414 185.709 343.844 183.697C345.98 181.928 348.62 181.903 351.039 183.232C353.068 180.616 355.74 178.96 358.92 178.535C361.942 178.133 364.554 179.799 365.717 182.554C368.194 188.414 365.034 196.732 360.752 201.53C357.589 205.073 352.299 208.103 348.026 205.156C346.589 204.164 345.3 202.341 345.286 200.154H345.287ZM346.286 195.446C349.967 193.724 351.993 189.701 351.224 185.888C350.994 184.746 350.309 183.751 349.56 183.355C348.558 182.825 347.388 182.794 346.234 183.231C342.758 184.544 340.409 188.422 340.827 192.114C340.986 193.517 341.797 194.638 342.604 195.166C343.647 195.85 344.997 196.046 346.285 195.445L346.286 195.446Z" fill="#040608"/>
<path d="M50.1262 196.262C50.513 198.814 50.3344 201.413 48.9454 203.551C47.3561 206 44.468 206.995 41.7181 206.048C38.5426 204.955 36.0133 202.878 34.0216 200.168C30.5788 195.483 28.0371 189.498 29.7865 183.694C30.7777 180.404 33.5773 178.161 37.0169 178.529C40.3059 178.882 43.0651 180.701 45.0832 183.252C47.1961 182.113 49.3773 181.917 51.4095 183.215C55.8838 186.074 57.2587 192.634 54.2448 195.079C53.1339 195.981 51.8569 196.021 50.1262 196.262ZM55.006 192.872C55.7813 188.594 53.2644 184.414 49.3028 183.094C47.0003 182.326 44.8642 184.058 44.5861 186.379C44.1184 190.298 46.5545 194.171 50.3406 195.298C52.295 195.88 54.6021 195.095 55.006 192.873V192.872Z" fill="#040608"/>
<path d="M49.8064 364.55C50.0643 367.15 50.1544 369.67 48.7966 371.904C47.4388 374.139 45.1425 375.202 42.6506 374.645C33.7127 372.651 26.6641 359.812 29.619 351.432C30.5884 348.683 33.113 346.668 36.04 346.811C39.4579 346.979 42.0555 349.34 44.3611 351.508C46.0871 350.835 47.8955 350.29 49.6216 351.296C52.9432 353.23 55.3404 356.834 54.7842 360.741C54.4408 363.159 52.4988 364.735 49.8049 364.549L49.8064 364.55ZM48.8261 351.744C47.7215 351.259 46.387 351.166 45.4098 351.794C44.7821 352.196 44.0845 353.101 43.8577 354.232C43.0778 358.117 45.4703 362.187 49.1446 363.717C50.431 364.252 51.8712 363.989 52.8981 363.196C56.1125 360.718 53.4978 353.798 48.8261 351.744Z" fill="#040608"/>
<path d="M173.498 112.907C173.064 114.845 173.62 117.338 172.547 119.575C171.174 122.439 167.703 124.126 164.749 123.137C160.932 121.859 158.098 119.376 155.979 116.102C153.755 112.667 152.248 108.92 152.246 104.741C152.246 102.774 152.614 100.427 153.68 98.8455C154.876 97.0731 156.772 95.7423 158.827 95.6723C161.902 95.5681 164.588 97.0762 166.533 99.2715C168.348 101.319 168.967 97.6686 172.618 99.2016C177.859 101.402 180.494 108.273 177.472 111.493C176.512 112.516 175.039 112.997 173.499 112.905L173.498 112.907ZM178.009 108.298C177.834 104.324 175.054 100.517 171.17 99.5794C168.848 99.0181 167.165 101.444 167.159 103.589C167.147 107.431 169.483 110.921 173.112 112.188C174.335 112.616 175.805 112.243 176.681 111.416C177.354 110.78 178.075 109.744 178.011 108.298H178.009Z" fill="#040608"/>
<path d="M345.876 370.945C344.986 369.062 345.471 366.973 345.505 365.025C343.381 364.454 341.158 363.263 340.872 360.804C340.445 357.123 342.435 353.344 345.606 351.612C347.556 350.547 349.518 350.517 351.466 351.612C353.19 349.578 355.195 348.188 357.565 347.293C360.875 346.043 364.319 347.462 365.837 350.674C366.713 352.529 366.885 354.555 366.711 356.749C366.152 363.768 362.072 370.123 356.079 373.692C352.398 375.885 347.765 374.939 345.876 370.945ZM346.484 363.874C350.226 362.333 352.348 358.378 351.989 354.619C351.862 353.282 351.076 352.176 350.279 351.736C347.102 349.981 341.198 354.438 341.461 360.434C341.566 362.848 344.046 364.877 346.482 363.874H346.484Z" fill="#040608"/>
<path d="M124.996 372.497L185.997 333.497L197.497 340.497L208.497 333.997L271.497 371.997" stroke="#6DA9C6" stroke-width="2"/>
</svg>
