<svg xmlns="http://www.w3.org/2000/svg" fill="none" viewBox="0 0 48 48">
  <path fill="#6DA9C6" d="M0 14C0 6.26801 6.26801 0 14 0h20c7.732 0 14 6.26801 14 14v20c0 7.732-6.268 14-14 14H14C6.26801 48 0 41.732 0 34V14Z"/>
  <path stroke="#fff" stroke-linecap="round" stroke-linejoin="round" stroke-width="2" d="M32 25c0 5-3.5 7.5-7.66 8.95-.2178.0738-.4545.0703-.67-.01C19.5 32.5 16 30 16 25v-7c0-.2652.1054-.5195.2929-.7071.1875-.1875.4419-.2929.7071-.2929 2 0 4.5-1.2 6.24-2.72.2119-.181.4814-.2804.76-.2804s.5481.0994.76.2804C26.51 15.81 29 17 31 17c.2652 0 .5196.1054.7071.2929.1875.1876.2929.4419.2929.7071v7Z"/>
  <path stroke="#fff" stroke-linecap="round" stroke-linejoin="round" stroke-width="2" d="m21 24 2 2 4-4"/>
</svg>
