<svg xmlns="http://www.w3.org/2000/svg" fill="none" viewBox="0 0 48 48">
  <path fill="#6DA9C6" d="M0 14C0 6.26801 6.26801 0 14 0h20c7.732 0 14 6.26801 14 14v20c0 7.732-6.268 14-14 14H14C6.26801 48 0 41.732 0 34V14Z"/>
  <path stroke="#fff" stroke-linecap="round" stroke-linejoin="round" stroke-width="2" d="M24 34c5.5228 0 10-4.4772 10-10s-4.4772-10-10-10-10 4.4772-10 10 4.4772 10 10 10Z"/>
  <path stroke="#fff" stroke-linecap="round" stroke-linejoin="round" stroke-width="2" d="M24 30c3.3137 0 6-2.6863 6-6s-2.6863-6-6-6-6 2.6863-6 6 2.6863 6 6 6Z"/>
  <path stroke="#fff" stroke-linecap="round" stroke-linejoin="round" stroke-width="2" d="M24 26c1.1046 0 2-.8954 2-2s-.8954-2-2-2-2 .8954-2 2 .8954 2 2 2Z"/>
</svg>
