<svg xmlns="http://www.w3.org/2000/svg" xmlns:xlink="http://www.w3.org/1999/xlink" fill="none" viewBox="0 0 120 38">
  <defs>
    <path id="c" fill="#fff" d="M0 .000236V38.5118l120.507.0001V.000282"/>
  </defs>
  <g clip-path="url(#a)">
    <mask id="b" width="120" height="38" x="0" y="0" maskUnits="userSpaceOnUse" style="mask-type:luminance">
      <path fill="#fff" d="M0 37.9999h120V.000292L0 .000247V37.9999Z"/>
    </mask>
    <g mask="url(#b)">
      <mask id="d" width="121" height="39" x="0" y="0" maskUnits="userSpaceOnUse" style="mask-type:luminance">
        <use xlink:href="#c"/>
      </mask>
      <g mask="url(#d)">
        <path fill="#000" d="M12.0752 29.4506H6.55857l-.18385.6919-1.34847 5.0971-.67427 2.7059H0l.612951-2.2025 1.593719-6.4818.49035-1.8241H13.7911c3.4939 0 5.5171.6921 6.1912 2.0135l-1.5321 6.4183-.429 2.0766h-4.5978l1.9006-7.803c-.2452-.4405-.7354-.6919-1.4103-.6919h-1.8385Zm16.1206 4.2788h8.949c1.349 0 2.207-.5034 2.5134-1.4473l.4289-2.8315c.3065-1.3843-.3064-2.0135-1.7159-2.0135H26.4186c-2.5747-.0637-3.9229.5656-4.0455 1.8241l-1.6554 6.4818c0 .2517 0 .4405.0613.6922.4289 1.0069 2.0844 1.5103 4.9647 1.5103h12.505l.4902-2.0766-5.7622.0629-6.0678-.0629c-.9201 0-1.5329-.1888-1.7168-.6293l.429-1.5102h2.5747Zm7.6007-3.2093-.3677 1.0698h-9.44l.5524-1.4474c.3064-.4405.9805-.6919 1.961-.6919h6.13c1.2256-.0629 1.5933.2514 1.103 1.0066l.0613.0629Zm24.5181-1.0695-1.4708 6.4183c-.3064 1.3844-2.0845 2.1395-5.4558 2.1395h-7.4782c-2.8803 0-4.4744-.5663-4.9034-1.5732-.1226-.1888-.1226-.4405-.0613-.6922l1.5942-6.4181 1.5933-6.0414h4.2906l-.9805 4.1536h6.7428c3.4318 0 5.5162.6921 6.1291 2.0135Zm-7.9071 0h-3.7391c-.9805 0-1.5934.2515-1.8998.6919l-1.349 5.16c.1838.3776.7362.6293 1.7167.6293h6.0065c.5516-.0629.9201-.2517 1.1652-.6293l1.4095-5.16c-.3064-.4404-.7354-.6919-1.4707-.6919h-1.8393Zm23.4762.692-1.4095 5.097c-.1839.3776-.6137.6293-1.1652.6922l-6.0066-.0629c-.9192 0-1.5328-.1888-1.7167-.6293l1.3491-5.097.8579-2.7055h-4.597l-.4903 1.8241-1.5942 6.4818c-.0612.2517 0 .5035.0613.6922.429 1.0069 2.0845 1.5103 4.9043 1.5103h7.4773c3.3714 0 5.1494-.6922 5.4558-2.0766l1.4708-6.4183.429-2.0135h-4.2906l-.7354 2.7055Zm9.1932 7.8029h-4.3511l3.8037-14.662h4.2898l-3.7424 14.662Zm14.6507-6.3556h-9.2578c-1.0377 0-1.6505.3146-1.8385.9439l-.7354 3.2092c-.0572.2518-.0572.5035.0654.6923.3677 1.0068 2.0183 1.5102 4.9026 1.5102h7.4761c3.31 0 5.148-.6922 5.393-2.0766l1.536-6.4183c-.678-1.3214-2.696-2.0135-6.193-2.0135H89.7998l-.4331 2.0135h11.8313c.679 0 1.169.2515 1.414.692l-.368 1.4473h-2.5164Zm1.5934 3.6497c-.245.3776-.67.6293-1.226.6922l-6.0054-.0629c-.9805 0-1.5362-.1888-1.7813-.6293l.4903-1.5731h9.0124l-.49 1.5731Z"/>
      </g>
      <mask id="e" width="121" height="39" x="0" y="0" maskUnits="userSpaceOnUse" style="mask-type:luminance">
        <use xlink:href="#c"/>
      </mask>
      <g mask="url(#e)">
        <path fill="#0098DB" d="M95.7402 17.4315v-1.2586l.0654-1.0071.0572-.755.0654-.9443.1225-.8807.0572-.9435.188-1.0072.1225-1.06999.2452-1.38424.3023-1.25856.3105-1.50993.3677 1.38425.6128 1.50993.5475 1.25855.5556 1.06999.67 1.0701.621.8178.915 1.1328.924 1.0064 1.282.9443.924-.5036 1.037-.4407 1.046-.3142.858-.3151.793-.2514 1.103-.315.98-.1886 1.046-.2513 1.226-.2523 1.348-.1256 1.226-.1257h1.226l-1.226 1.07-.981.8178-.98.8178-1.046 1.07-.793.9435-.8.9444-.858 1.07-2.386 3.2721 10.663 13.4662h.057l-8.702-13.7813 2.884-3.2092 1.103-1.2586 1.161-1.1957 1.046-1.0692 1.103-1.07 1.16-1.07 1.046-.9435 1.413-1.1329-.923-.1257-1.413-.0628-1.594-.0629-1.895.1257-.981.0629-1.291.1885-1.471.2522-1.038.2514-1.168.2514-1.348.3779-1.348.4407-1.283.6293-1.594-1.4479-1.046-1.4471-1.16-1.57279-.735-1.19572-.7438-1.51076-.7354-1.44709-.5475-1.6993-.433-1.69846-.2451-2.013525-.7926 1.824145-.5557 1.51077-.4249 1.82499-.3105 1.38424-.2451 1.38425-.1798 1.19571-.1879 1.13286-.1226 1.25858-.1797 1.0063-.0654 1.1957-.0572.8178-.0654 1.2586-.0571.9443-3.3093 1.0072-3.1867.9435-3.8649 1.0072-5.0252 1.3842.6128.1257 16.3012-3.3349Z"/>
      </g>
    </g>
  </g>
  <defs>
    <clipPath id="a">
      <path fill="#fff" d="M0 0h120v38H0z"/>
    </clipPath>
  </defs>
</svg>
