<svg width="36" height="36" viewBox="0 0 36 36" fill="none" xmlns="http://www.w3.org/2000/svg">
<path d="M30.6583 29C27.9963 29 25.3662 28.4451 22.7681 27.3353C20.1699 26.2256 17.806 24.6517 15.6764 22.6139C13.5468 20.576 11.9018 18.3149 10.7416 15.8306C9.58139 13.3462 9.00085 10.8304 9 8.28333C9 7.91667 9.12778 7.61111 9.38333 7.36667C9.63889 7.12222 9.95833 7 10.3417 7H15.5167C15.8148 7 16.081 7.09696 16.3153 7.29089C16.5495 7.48481 16.688 7.71378 16.7306 7.97778L17.5611 12.2556C17.6037 12.5815 17.5931 12.8565 17.5292 13.0806C17.4653 13.3046 17.3481 13.4981 17.1778 13.6611L14.0792 16.6556C14.5051 17.4093 15.0107 18.1373 15.5959 18.8397C16.1811 19.542 16.8255 20.2196 17.5292 20.8722C18.1894 21.5037 18.8815 22.0896 19.6056 22.6298C20.3296 23.17 21.0963 23.6638 21.9056 24.1111L24.9083 21.2389C25.1 21.0556 25.3504 20.9183 25.6597 20.827C25.9689 20.7357 26.2721 20.7101 26.5694 20.75L30.9778 21.6056C31.2759 21.687 31.5208 21.8349 31.7125 22.0492C31.9042 22.2635 32 22.5027 32 22.7667V27.7167C32 28.0833 31.8722 28.3889 31.6167 28.6333C31.3611 28.8778 31.0417 29 30.6583 29Z" fill="#375E74"/>
</svg>
