<svg xmlns="http://www.w3.org/2000/svg" width="226" height="50" fill="none" viewBox="0 0 226 50"><g fill="#fff" clip-path="url(#a)"><path d="M4.777 9.56q-.001-1.101.484-1.697a2.02 2.02 0 0 1 1.222-.733l.067-.046q.436-.137.568-.595l.202-.734q0-.092.033-.183V5.48q0-.229-.135-.321a.6.6 0 0 0-.334-.091H-.143q-.4 0-.569.32l-.268.825a1 1 0 0 0-.067.322q0 .412.436.503 1.305.366 1.723.803.418.434.418 1.718v15.355q0 2.75.451 5.04.453 2.294 1.457 4.034a7.26 7.26 0 0 0 2.727 2.727q1.723.987 4.166.987 1.707 0 3.18-.688 1.471-.687 2.642-2.2 1.172-1.514 1.84-4.011.67-2.499.67-6.027V9.559q0-1.1.486-1.696.485-.594 1.22-.733l.067-.046q.435-.137.57-.595l.2-.734q0-.092.033-.183V5.48q0-.229-.133-.321a.6.6 0 0 0-.335-.091h-5.855q-.403 0-.57.32l-.267.825a1 1 0 0 0-.067.322q0 .412.435.503 1.305.366 1.723.803.418.434.418 1.718v15.309q0 4.904-1.472 7.31-1.472 2.407-4.718 2.407-1.506 0-2.593-.848-1.087-.849-1.757-2.292a12.7 12.7 0 0 1-.971-3.163 20.3 20.3 0 0 1-.3-3.506zm31.153 1.511.067-.09q.134-.276.134-.413V7.176q0-.596-.351-.963-.352-.366-1.12-.78-1.675-.916-3.75-.916a6.1 6.1 0 0 0-2.91.711 7.4 7.4 0 0 0-2.275 1.856 8.8 8.8 0 0 0-1.439 2.476q-.501 1.327-.501 2.566-.001 1.42.35 2.613.352 1.191.938 2.108.585.916 1.205 1.581.618.664 1.623 1.627.502.459.6.596.102.093.503.505a57 57 0 0 1 1.807 1.787 14 14 0 0 1 1.405 1.764 9.3 9.3 0 0 1 1.121 2.27q.418 1.237.418 2.658-.065 2.475-1.287 4.102t-3.196 1.627a3.76 3.76 0 0 1-2.276-.733q-1.004-.735-1.473-2.2-.367-.872-.734-2.43-.336-1.329-.57-1.329l-.903.412q-.234.139-.234.642 0 .138.033.367v4.813q0 .916.234 1.168t1.506.802q1.941.825 4.317.826 1.438-.001 2.81-.55 1.373-.55 2.51-1.673 1.139-1.124 1.806-2.82.67-1.695.67-3.85-.099-3.574-1.422-5.774t-4.434-5.042q-2.175-2.016-3.162-3.483t-.987-3.346v-.413q.033-.32.033-.458.203-1.697 1.272-2.705 1.07-1.008 2.376-1.008 1.17.001 1.923.596.753.596 1.256 1.971.1.229.134.366.4 1.1.685 1.765.284.665.453.665.033 0 .033-.046h.034zm10.272 13.843L50.15 11.07l3.883 13.843zM62.7 35.776q-.001-.55-.47-.733a9 9 0 0 1-.569-.23q-1.002-.32-1.272-.64a2.3 2.3 0 0 1-.367-.643 13 13 0 0 1-.402-1.237 14 14 0 0 1-.268-.871q-2.274-7.562-3.948-13.36A326 326 0 0 1 52.26 6.35q-.202-1.282-.838-1.282h-4.818q-.67 0-.804.458l-.166.641a.76.76 0 0 0-.1.368q0 .228.199.366.201.137.637.321.836.32 1.137.688l.134.137q.301.367.485.755.184.39.184.987 0 .595-.2 1.328l-6.158 21.176q-.535 1.557-.902 2.017-.369.457-1.44.78h-.033q-.736.273-.837.64l-.167.596a1.4 1.4 0 0 0-.067.367q0 .459 1.104.458h5.02q.267 0 .4-.16.135-.16.235-.435l.033-.138.201-.458q0-.047.034-.137a.16.16 0 0 0 .033-.093q0-.274-.67-.64a3.7 3.7 0 0 1-.786-.551q-.284-.274-.285-.78 0-.32.102-.641l1.64-5.73h9.168l1.406 5.272q.166.595.166 1.1 0 .641-.267.94a1.9 1.9 0 0 1-.736.48q-.468.276-.535.458l-.302.872a.6.6 0 0 0-.067.275q0 .367.502.366h6.626q.267 0 .469-.068a.5.5 0 0 0 .3-.298zm3.278.688q0 .09-.033.183v.092q0 .229.133.32.133.093.336.092h14.221q.701 0 1.121-.298.419-.297.418-.848v-4.17q0-.367-.2-.413l-.837-.367q-.134 0-.47.688-.633 1.236-1.471 2.086-.836.846-2.443.847H73.81q-1.17 0-1.606-.779-.436-.78-.435-3.483V9.56q-.001-1.1.485-1.696.485-.594 1.22-.733l.068-.046q.436-.137.568-.595l.202-.734q0-.092.033-.183V5.48q0-.229-.134-.321a.6.6 0 0 0-.334-.091h-7.028q-.401 0-.569.32l-.268.825a1 1 0 0 0-.066.322q0 .412.435.503 1.305.366 1.724.803.418.434.418 1.718v23.1q-.001 1.055-.485 1.65a2.24 2.24 0 0 1-1.222.78l-.067.046q-.435.137-.57.595zM88.399 7.542h4.884q.939 0 1.507.665.567.665 1.103 1.719.37.78.536.78h.068l.031-.047.604-.687q.166-.229.166-.413V6.213q.001-1.146-.97-1.145H83.246q-.401 0-.569.504l-.268.778q0 .046-.033.139v.09q0 .369.669.551 1.105.229 1.606.87.502.643.502 1.926v24.062q0 2.11.402 2.636t1.372.527h10.34q.702 0 1.12-.297.419-.299.418-.848v-4.17q0-.368-.2-.414l-.837-.366q-.133 0-.468.687-.637 1.236-1.472 2.086-.836.846-2.443.847H90.44q-1.173 0-1.606-.779-.436-.78-.435-3.483v-9.443h6.625q.802 0 1.07-.641l.469-1.146a.6.6 0 0 0 .067-.275q0-.412-.502-.412h-7.73zm38.547 2.384q0-1.283.436-1.833.434-.55 1.271-.78l.067-.046q.636-.228.77-.641l.2-.825q0-.092.034-.184V5.48q0-.412-.502-.412h-3.849q-.4 0-.753.297-.35.298-.652 1.17l-8.632 24.382-8.132-23.97q-.435-1.284-.753-1.582-.318-.297-1.155-.297h-4.45q-.402 0-.569.32l-.267.825a1 1 0 0 0-.068.322q0 .412.67.595.602.183 1.406.78.802.595 1.572 1.74v23.01q0 1.054-.486 1.65-.484.594-1.221.78l-.067.045q-.435.137-.569.595l-.2.734a.5.5 0 0 1-.033.183v.092q-.001.229.133.32a.6.6 0 0 0 .334.092h5.856q.4 0 .57-.321l.266-.824a1 1 0 0 0 .068-.322q0-.413-.435-.504-1.305-.367-1.723-.802t-.418-1.718v-19.8h.066l7.697 22.824q.469 1.467.735 1.467h.671q.266 0 .635-1.008l8.165-23.283h.066v19.8q.001 1.054-.485 1.65a2.24 2.24 0 0 1-1.221.779l-.068.046q-.434.137-.568.595l-.201.734q0 .092-.033.183v.092q0 .229.134.32.135.093.334.092h7.028q.402 0 .568-.321l.268-.824a1 1 0 0 0 .067-.322q0-.413-.435-.504-1.304-.367-1.724-.802-.418-.435-.418-1.718zm19.871-2.594h2.869q2.093 0 3.426 1.627t1.334 4.973q0 3.484-1.468 5.524-1.47 2.039-4.204 2.038-.37 0-.371.276 0 .137.068.321l.472 1.053h.81a7.5 7.5 0 0 0 2.938-.595 7.5 7.5 0 0 0 2.547-1.78q1.132-1.193 1.79-3.063c.439-1.252.669-2.697.692-4.347q0-2.19-.574-3.82c-.382-1.076-.9-1.963-1.553-2.65a6.4 6.4 0 0 0-2.228-1.527 6.9 6.9 0 0 0-2.6-.505h-9.147q-.406 0-.574.505l-.271.778a.4.4 0 0 1-.033.138v.091q0 .368.676.55 1.113.23 1.619.871.508.643.507 1.925V32.45q0 1.055-.489 1.65a2.26 2.26 0 0 1-1.233.78l-.068.046a.83.83 0 0 0-.574.595l-.202.734a.5.5 0 0 1-.033.183v.092q0 .229.135.32.135.092.338.092h7.088q.405 0 .575-.321l.269-.825a1 1 0 0 0 .067-.32q.001-.414-.439-.505-1.315-.367-1.737-.802t-.422-1.719zm25.518 30.159q2.634 0 4.963-1.26t4.084-3.575q1.756-2.316 2.718-5.478.961-3.162.961-6.92 0-3.3-.859-6.211-.861-2.91-2.431-5.11t-3.679-3.416a9 9 0 0 0-4.575-1.214q-2.904 0-5.283 1.375T164.2 9.486q-1.654 2.43-2.532 5.547a24 24 0 0 0-.877 6.508q0 3.713 1.029 6.714 1.03 3.003 2.717 5.065 1.69 2.063 3.73 3.117 2.043 1.053 4.068 1.054m.878-2.475q-2.06 0-3.713-1.1-1.655-1.1-2.801-3.117-1.149-2.016-1.74-4.743-.59-2.728-.591-5.936 0-3.025.625-5.523.626-2.497 1.772-4.24 1.149-1.742 2.701-2.658a6.46 6.46 0 0 1 3.343-.916q3.916 0 6.295 3.78 2.38 3.781 2.38 10.198 0 2.52-.507 5.042-.505 2.52-1.535 4.607-1.03 2.086-2.616 3.345a5.65 5.65 0 0 1-3.613 1.26m26.366-24.154.067-.09q.136-.276.136-.413V6.966q0-.596-.354-.963-.354-.366-1.132-.78-1.688-.916-3.78-.916a6.2 6.2 0 0 0-2.938.711 7.4 7.4 0 0 0-2.295 1.856 8.8 8.8 0 0 0-1.451 2.475q-.507 1.328-.506 2.567 0 1.42.353 2.612.356 1.192.946 2.109.59.916 1.216 1.581.623.664 1.637 1.627.507.458.607.596.1.092.507.504 1.113 1.054 1.822 1.787.708.734 1.418 1.765a9.2 9.2 0 0 1 1.131 2.269q.422 1.238.423 2.658-.07 2.476-1.301 4.102-1.232 1.628-3.223 1.628a3.82 3.82 0 0 1-2.296-.734q-1.012-.733-1.486-2.2-.371-.87-.742-2.43-.338-1.328-.574-1.328l-.911.412q-.237.138-.237.641 0 .139.033.368v4.813q0 .915.238 1.168.236.252 1.519.802 1.957.825 4.354.825 1.452 0 2.836-.55t2.531-1.672q1.149-1.125 1.824-2.82.674-1.696.674-3.85-.1-3.575-1.433-5.775-1.335-2.2-4.475-5.042-2.193-2.016-3.188-3.483t-.997-3.346v-.412q.034-.321.034-.458.203-1.697 1.283-2.705t2.397-1.009q1.18 0 1.941.597.758.595 1.265 1.971.102.228.136.366.404 1.1.692 1.765.286.665.456.665.033 0 .033-.046h.034zM214.533 7.7h6.111q.471 0 .743-.093.269-.092.54-.458l.641-1.329q.202-.322.202-.504 0-.459-.674-.459h-16.947q-.473 0-.743.091-.27.093-.54.459l-.641 1.33q-.203.32-.203.504 0 .458.676.458h7.561v24.75q0 1.055-.49 1.65a2.26 2.26 0 0 1-1.231.78l-.068.046a.83.83 0 0 0-.574.595l-.202.733a.5.5 0 0 1-.035.184v.092q0 .229.136.32.135.092.337.092h7.089q.406 0 .574-.321l.27-.825a1 1 0 0 0 .068-.321q0-.413-.439-.504-1.316-.367-1.738-.802t-.423-1.719z"/></g><defs><clipPath id="a"><path fill="#fff" d="M-104 0h330v50h-330z"/></clipPath></defs></svg>