<svg xmlns="http://www.w3.org/2000/svg" width="373" height="28" fill="none" viewBox="0 0 373 28"><g fill="#fff" clip-path="url(#a)"><path d="M70.357 5.411c-.052-.53-.123-1.058-.163-1.59.193.503.353 1.019.532 1.527.052.194.219.308.35.44.52.482 1.02.988 1.544 1.464.77.471 1.591.845 2.36 1.317.866 1.234 1.688 2.507 2.55 3.746.334.335.693.647 1.058.945-.14-.225-.3-.434-.455-.645.35-.11.709-.182 1.052-.313-.323-.033-.647-.042-.968-.074.46-.12.934-.17 1.396-.288-.567-.08-1.142-.074-1.707-.173q.94-.163 1.878-.337c.38-.085.74.124 1.112.17-.277-.15-.554-.307-.848-.414-.438-.015-.877.031-1.314.016q.691-.174 1.396-.287c.316.056.608.218.918.303a9 9 0 0 0-.797-.547c-.325-.054-.656-.026-.981-.067.357-.073.716-.148 1.08-.18.322.12.615.317.937.441-.24-.258-.485-.514-.746-.747-.285-.064-.586-.005-.877-.03.338-.121.691-.182 1.038-.267.3.258.591.53.903.775-.219-.367-.457-.72-.685-1.078-.257-.05-.515-.098-.766-.174.317-.028.637-.038.956-.065.299.362.57.751.877 1.106-.192-.466-.403-.922-.605-1.382-.278-.103-.56-.19-.835-.296.35-.013.7.046 1.05.07.277.478.522.978.812 1.45-.152-.542-.322-1.078-.49-1.614-.015-.117-.135-.13-.213-.17-.283-.108-.572-.198-.844-.33.417.05.828.151 1.244.225.242.578.44 1.178.71 1.742-.134-.654-.298-1.3-.446-1.95-.356-.23-.737-.415-1.075-.672.437.15.861.343 1.293.512.218.646.4 1.305.639 1.944-.11-.714-.256-1.42-.38-2.131-.39-.318-.812-.595-1.182-.942.472.252.928.54 1.393.806.191.677.336 1.368.558 2.034a50 50 0 0 0-.331-2.157c-.374-.442-.85-.784-1.236-1.216.5.325.972.7 1.462 1.043.14.693.29 1.384.41 2.082-.002-.738-.105-1.475-.182-2.206-.387-.508-.844-.952-1.234-1.458.496.422.992.855 1.45 1.322.143.656.182 1.336.341 1.989-.02-.708-.086-1.413-.128-2.12-.391-.543-.794-1.078-1.169-1.635.477.49.933 1.006 1.38 1.525.104.544.147 1.101.217 1.65l.049.006c-.038-.526-.042-1.054-.065-1.58a.53.53 0 0 0-.07-.276c-.332-.555-.686-1.095-1.009-1.657.438.528.836 1.095 1.24 1.652.11.418.093.863.21 1.28-.013-.457-.015-.918-.065-1.373-.225-.604-.514-1.181-.736-1.787.306.468.548.98.832 1.464.192.282.152.647.223.972.038-.374.103-.763-.003-1.13-.112-.48-.233-.96-.328-1.444.219.48.375.99.586 1.474.133-.469.222-.95.344-1.423.031.473-.06.942-.067 1.414.338-.463.612-.975.962-1.427-.19.452-.422.884-.613 1.337.495-.351.961-.746 1.462-1.09-.498.73-1.01 1.45-1.512 2.175-.246.397-.593.734-.734 1.195q-.385 1.115-.774 2.227c-.048.146-.137.279-.278.335-.527.238-1.065.446-1.593.682-.219.099-.357.319-.552.454-.487.1-.989.104-1.474.213.49.063.987-.01 1.48.037.28.085.544.225.82.331.215.095.463.172.602.39.088.13.091.298.113.452.207.256.543.487.513.869-.019.269-.267.398-.468.495.147-.277-.114-.792-.416-.524q.13.221.255.447c-.215.03-.435-.006-.604-.156-.398-.006-.796-.013-1.193.003.24.074.486.114.731.164-.744.966-1.53 1.894-2.27 2.863.286-.218.531-.489.798-.73.009.486-.07.966-.008 1.452.254.238.507.479.783.688.142.102.214.274.31.42a.6.6 0 0 0-.232-.534l.232-.054c.165.125.276.305.38.487.01-.215-.057-.457-.275-.521.737-.127 1.46-.329 2.196-.462.476.307.961.598 1.437.908.238.148.362.505.206.765-.152.254-.457.295-.715.305-.874.017-1.746.117-2.608.27.217-.223.452-.426.66-.66-.536.361-1.068.737-1.652 1.006-.514.23-1.027.463-1.534.709.317-.343.672-.648.972-1.01-.853.658-1.677 1.393-2.664 1.816-.466.197-.91.544-1.433.504-.39-.062-.75-.247-1.122-.377-.244-.102-.506-.169-.73-.317-.183-.133-.198-.474.009-.59.275-.14.577-.208.865-.313.41.19.822.375 1.227.577.192.097.202.34.2.536a.495.495 0 0 0-.188-.634c-.61-.377-1.223-.746-1.834-1.122a81 81 0 0 1 2.988-.924q.155.061.316.122c-.254-.225-.493-.484-.808-.608l-.14-.402-.174-.085c-.075-.318-.128-.642-.21-.959.002.345.04.687.067 1.03q-.262.159-.525.313c-.006-.44.012-.88-.013-1.32-.08.46-.107.93-.168 1.393l-.7.14c.075-.501.175-1 .232-1.505-.189.497-.302 1.023-.457 1.532l-.687.05c.16-.547.363-1.08.5-1.634-.273.51-.482 1.055-.741 1.573-.03.11-.15.074-.227.093l-.481.032c.261-.566.549-1.12.793-1.694-.394.56-.74 1.157-1.12 1.727q-.36.056-.717.116c.387-.621.802-1.223 1.17-1.857-.477.53-.905 1.11-1.363 1.66-.233.271-.428.582-.701.812-.044-.171.085-.3.156-.436.538-.867 1.037-1.762 1.59-2.616.95-.415 1.927-.762 2.88-1.17.494-.163.914-.616.938-1.186-.098.24-.168.509-.362.686-.277.284-.674.354-1.02.498q-.088-.184-.172-.369c.128-.122.257-.246.377-.38-.335.2-.655.425-.983.636q-.113-.234-.223-.47c.428-.353.89-.663 1.294-1.048-.67.398-1.318.835-1.98 1.248l-.171-.502c.606-.442 1.235-.849 1.825-1.314-.802.433-1.579.916-2.372 1.366l-.111-.46c.673-.466 1.363-.906 2.028-1.385-.843.41-1.653.892-2.488 1.324a12 12 0 0 1-.066-.553q1.024-.572 2.037-1.164c-.859.314-1.682.734-2.526 1.092q-.011-.267-.018-.53c.678-.308 1.382-.551 2.053-.877-.838.203-1.659.479-2.491.707q.011-.293.025-.584c.64-.17 1.292-.29 1.923-.494-.817.109-1.633.236-2.449.351l.07-.505c.6-.086 1.21-.105 1.803-.229-.832-.007-1.665.033-2.498.034q.017-.214.039-.43c.662 0 1.326.006 1.989-.02-1.193-.15-2.397-.189-3.594-.305.205-.095.417-.17.629-.246-.503-.235-1.025-.413-1.53-.64.22-.025.44-.043.662-.064-.432-.312-.893-.577-1.324-.893.32.006.64.03.96.046-.34-.371-.72-.697-1.051-1.076.177.03.353.066.53.1-.182-.297-.461-.531-.561-.88q-.119-.365-.233-.731c.196.201.33.465.537.656q.505.328 1.03.62c-.256-.492-.704-.893-.773-1.476-.056-.269-.116-.536-.164-.806.28.358.442.825.81 1.099.283.236.555.486.841.72-.228-.588-.691-1.085-.719-1.747-.047-.355-.115-.706-.139-1.064.25.425.413.906.678 1.32.43.394.862.786 1.314 1.151-.27-.504-.577-.984-.86-1.48-.074-.119-.073-.266-.091-.4m.727.76c.254.515.568.995.844 1.498.077.2.289.236.457.311.515.196 1.015.44 1.539.613-.55-.38-1.187-.596-1.75-.95-.387-.47-.683-1.02-1.09-1.473m-.811.734c.252.431.543.839.835 1.24.283.144.593.216.887.33.393.127.775.301 1.178.39-.604-.33-1.257-.546-1.871-.852-.373-.335-.654-.775-1.03-1.108m-.891.475c.332.45.677.896 1.044 1.313.807.234 1.617.473 2.437.651-.745-.345-1.554-.52-2.307-.843-.408-.353-.745-.795-1.174-1.12m-.568.656c.35.443.748.845 1.139 1.247.942.234 1.89.462 2.844.644-.887-.337-1.82-.526-2.714-.835-.443-.325-.823-.737-1.27-1.056M73.41 9.41l-.09-.305a8 8 0 0 0-.007.53c.336-.232.692-.436 1.008-.7-.317.127-.608.316-.91.475m.15.72c-.017-.075-.055-.224-.073-.3a3 3 0 0 0-.024.521c.429-.286.88-.54 1.282-.868-.406.191-.789.433-1.184.647m-4.557-.542c.462.226.943.436 1.453.493l2.302.375.012-.061c-1.257-.261-2.506-.572-3.767-.807m4.883 1.173c-.01-.058-.026-.173-.035-.23l-.056.004q.002.22.009.44c.45-.308.928-.576 1.349-.929-.435.213-.843.482-1.267.715m-3.855-.294c.51.225 1.05.389 1.606.41.472.018.944.145 1.416.091a73 73 0 0 0-3.022-.5m4.347.826-.078-.313a3.4 3.4 0 0 0-.023.534c.45-.292.917-.56 1.343-.893-.425.2-.829.447-1.242.672m.613.457q-.042-.157-.086-.31a9 9 0 0 0-.018.532c.404-.265.824-.51 1.204-.815-.377.175-.734.394-1.1.593m.654.446-.075-.327a4 4 0 0 0-.03.546c.34-.23.701-.427 1.01-.7-.312.136-.605.317-.905.48m.644.416-.09-.28a10 10 0 0 0-.008.503c.26-.176.526-.342.766-.548-.228.095-.448.211-.668.325m3.576.078a.22.22 0 0 0 .08.197.34.34 0 0 0 .18-.165c-.032-.102-.191-.074-.26-.032m.917-.001.172.09-.078.2q.179-.148.352-.305-.224.002-.446.015m-4.07.565c.204-.126.407-.257.588-.42a7 7 0 0 0-.48.211c-.02-.056-.055-.167-.073-.223q-.022.216-.035.432m5.006-.408.032.254q.12-.108.247-.211zm-2.749.257.201.128q-.053.114-.104.229.216-.168.422-.352a23 23 0 0 0-.519-.005m3.852.211c.009.188.299.242.373.073.03-.07.01-.152.015-.226l-.166.198c-.176-.017-.063-.208-.059-.312-.08.067-.203.133-.163.267m-2.783-.08.21.117-.107.225q.217-.162.422-.343a4 4 0 0 0-.525.001m-2.813.271-.084-.218q-.012.213-.022.428c.234-.147.47-.293.685-.47a6 6 0 0 0-.579.26m3.77-.07.208.121q-.052.114-.097.226.211-.163.412-.345a14 14 0 0 0-.522-.002m2.528.126-.08.106c.246.183.51.369.578.706.031-.374-.269-.593-.498-.812m-6.095.435-.06-.14-.031.343c.181-.129.364-.259.53-.409a5 5 0 0 0-.44.206m1.692-.057q.125.053.256.105a10 10 0 0 0-.091.297q.232-.242.451-.495-.311.031-.616.093m-.852.091.188.066-.063.207q.16-.174.315-.353-.221.038-.44.08m1.906.073q.127.04.26.079-.041.144-.08.29a6 6 0 0 0 .408-.497 9 9 0 0 0-.588.128m2.658-.06c-.092.09-.06.218-.02.325.026-.23.2-.295.394-.294-.115-.059-.263-.152-.374-.032m-1.77.32.18.087q-.029.1-.055.203.157-.158.317-.314-.223.011-.442.025m-3.598.12q-.012.134-.02.267.195-.154.387-.313a.9.9 0 0 1-.367.046m.884.324.212.073-.045.222q.172-.198.332-.406-.251.049-.499.111m.916.114.282.052-.04.282c.137-.165.258-.344.371-.528a6 6 0 0 0-.613.194m1 .113.25.05q-.034.128-.061.254.18-.211.346-.439-.271.058-.535.135m.99.171q.04.102.085.204l.198-.242zm-2.777.438.225.046a7 7 0 0 0-.04.257q.165-.222.32-.455-.256.067-.505.152m1.002.225q.14.022.284.042-.022.149-.038.298a6 6 0 0 0 .357-.558 7 7 0 0 0-.603.218m1.102.006.18.086-.054.191q.156-.171.31-.347-.22.032-.436.07m-2.764.138q.14.093.15.266.126-.137.262-.269-.207.005-.412.003m.947.408.22.06a7 7 0 0 0-.057.25q.18-.21.345-.433a6 6 0 0 0-.509.123m-1.456.107a.17.17 0 0 0 .04.19c.09.023.182-.073.21-.157-.053-.075-.177-.063-.25-.033m2.667.076.193.075-.06.206q.155-.173.307-.35-.222.032-.44.069m-1.962.067.196.102-.084.205q.177-.148.353-.3zm1.29.37q.044.105.093.209.096-.127.195-.25zm-3.44.006a.4.4 0 0 1 .022.267q.132-.134.274-.257zm.826 0q.073.12.034.254.136-.125.277-.242zm.849.19c-.01.068.025.16.08.2a.3.3 0 0 0 .18-.166c-.038-.096-.19-.076-.26-.035m.895.047.075.268q.129-.131.267-.253zm.497.419c.057.396.115.793.194 1.185.168.434.634.617.822 1.04a.54.54 0 0 0-.264-.543l.282-.038c.144.13.258.294.376.45a.58.58 0 0 0-.252-.502q.303-.072.608-.153c-.315-.153-.594-.449-.963-.412-.273-.338-.523-.695-.803-1.027m3.7 1.481c.525-.055 1.058-.136 1.557-.323-.525.036-1.07.109-1.557.323m-1.388-.236c.195.135.33.335.46.537.03-.294-.171-.56-.46-.537m1.483.56c.258.042.516-.017.772-.055.456-.08.922-.118 1.368-.253-.722-.014-1.434.16-2.14.308m-3.587.01c.18.131.316.314.434.509.04-.282-.158-.55-.434-.509m1.918.41c.418-.055.843-.137 1.233-.314-.42.03-.857.1-1.233.314m-3.156.526c-.356.134-.72.254-1.056.439.377-.047.726-.223 1.09-.333.41-.157.84-.265 1.23-.47-.435.055-.848.223-1.264.364m1.224.094c-.56.228-1.144.412-1.663.736.496-.151.972-.367 1.46-.545.558-.23 1.139-.398 1.685-.658-.51.086-.993.295-1.482.467m-3.45 1.45c.442.154.88.324 1.328.46-.33-.198-.684-.344-1.027-.51.146-.086.293-.17.434-.265-.242.094-.58.065-.736.315M-.093.032C7.22.032 14.534.03 21.848.034l-.001 8.578q-.181-.007-.363-.018c-.315-.86-.642-1.714-.964-2.572-.41-1.074-.801-2.168-1.39-3.151-.394-.653-.887-1.256-1.512-1.667-.712-.481-1.554-.697-2.388-.76-.765-.056-1.533-.025-2.3-.033l.001 21.603c.007.87.107 1.797.599 2.522.508.738 1.344 1.124 2.17 1.282.35.069.702.122 1.053.184l-.008.373c-3.917-.002-7.833.003-11.75-.002l.009-.372c.758-.135 1.548-.208 2.239-.598.65-.33 1.16-.951 1.364-1.687.212-.678.22-1.402.217-2.109q-.002-10.598 0-21.195c-.91.01-1.824-.043-2.73.08-.911.125-1.81.492-2.498 1.154-.891.852-1.434 2.021-1.902 3.174C1.202 6.078.746 7.35.261 8.61l-.354-.005zM92.815.031h12.206l.001.199c-.792.172-1.611.299-2.332.713a2.93 2.93 0 0 0-1.271 1.346c-.317.698-.368 1.486-.372 2.248.005 5.638-.002 11.277.003 16.916.011.845-.036 1.693.05 2.535.087.81.411 1.622 1.028 2.134.819.706 1.89.882 2.893 1.092l.001.189-12.208-.001v-.188c.755-.169 1.538-.28 2.236-.655.67-.334 1.256-.922 1.49-1.683.205-.584.245-1.215.25-1.833V5.733c-.016-.851.053-1.713-.1-2.556-.115-.727-.465-1.413-1.016-1.87-.81-.695-1.87-.87-2.86-1.078zm12.924.003c2.983-.005 5.966 0 8.95-.003.806 1.528 1.843 2.896 2.876 4.253 1.689 2.187 3.423 4.334 5.137 6.498 2.566 3.219 5.126 6.445 7.692 9.664-.039-4.56-.072-9.119-.112-13.678-.004-1.375-.064-2.795-.58-4.077-.301-.758-.841-1.414-1.537-1.784-.826-.447-1.763-.542-2.667-.676l.002-.2 19.049.001c1.65.009 3.299-.024 4.948.025 2.018.096 4.053.46 5.916 1.317 2.437 1.055 4.588 2.917 5.932 5.337 1.418 2.514 1.947 5.54 1.654 8.44-.282 2.844-1.397 5.617-3.263 7.692-1.955 2.24-4.657 3.655-7.466 4.207-2.096.463-4.244.336-6.369.352-3.387-.002-6.774.003-10.161-.003l.03-.18c.575-.128 1.168-.18 1.728-.384.7-.237 1.372-.677 1.755-1.363.383-.707.479-1.54.478-2.343q.003-8.698-.001-17.395c-.013-1.456-.235-3.037-1.189-4.155C137.684.56 136.34.205 135.096.233c-.994.007-2.024.244-2.829.893-.853.678-1.326 1.767-1.51 2.86-.184.996-.144 2.017-.148 3.026l-.001 20.978-.245.003c-3.776-4.702-7.523-9.43-11.289-14.14l-7.433-9.32.107 13.81c.006 1.752.048 3.536.531 5.225.237.819.605 1.617 1.198 2.212.83.86 2 1.138 3.086 1.433l.001.189h-9.967v-.187c.859-.236 1.75-.435 2.511-.944.914-.604 1.493-1.637 1.798-2.712.494-1.74.528-3.575.513-5.378.001-4.61-.005-9.22.004-13.828-.9-1.063-1.818-2.13-2.929-2.949a6.6 6.6 0 0 0-2.566-1.13c-.139-.006-.209-.09-.189-.24m38.258.197v22.734c.001.747.029 1.505.227 2.227.153.696.58 1.33 1.183 1.658.656.371 1.422.37 2.146.363 1.735.024 3.504-.27 5.077-1.076 1.376-.701 2.559-1.805 3.417-3.143.91-1.395 1.471-3.015 1.813-4.664.335-1.647.456-3.337.429-5.02-.032-1.856-.256-3.722-.803-5.49-.469-1.524-1.187-2.976-2.19-4.178-.951-1.132-2.147-2.029-3.477-2.581-1.4-.591-2.914-.836-4.416-.83zm19.948-.197c7.249-.005 14.498-.001 21.748-.002v7.745l-.18.006c-.495-.933-.979-1.872-1.464-2.81-.313-.59-.613-1.19-1.003-1.726-.594-.859-1.377-1.575-2.283-2.037-1.044-.547-2.206-.766-3.354-.886-1.736-.15-3.478-.073-5.218-.093-.001 4.315.008 8.63 0 12.945 1.311-.04 2.624-.017 3.931-.136.8-.08 1.629-.225 2.317-.694.693-.47 1.165-1.224 1.498-2.007.427-.985.699-2.034 1.007-3.065l.185-.003q-.002 6.001.001 12.002l-.183.002c-.358-1.138-.658-2.304-1.175-3.377-.378-.796-.946-1.533-1.73-1.897-.976-.464-2.07-.478-3.119-.531-.911-.03-1.822-.034-2.732-.06.005 3.24.002 6.48.003 9.718.011.892.092 1.818.498 2.617.302.578.818 1.01 1.404 1.222.844.318 1.752.235 2.631.246 1.524-.008 3.089-.159 4.498-.823a6.7 6.7 0 0 0 2.262-1.748c.576-.656 1.03-1.418 1.456-2.188.49-.886.993-1.764 1.48-2.652q.067-.167.255-.155c.006 2.585-.003 5.17-.001 7.755-7.578-.002-15.156.004-22.734-.003l.031-.181c.647-.136 1.317-.186 1.935-.449a2.96 2.96 0 0 0 1.644-1.515c.298-.688.378-1.455.375-2.204l-.001-17.954c-.01-.848.053-1.724-.22-2.538-.192-.669-.676-1.21-1.244-1.543-.766-.458-1.648-.582-2.491-.79zM189.704.03c3.35.004 6.7 0 10.05.002 1.798-.029 3.629.087 5.34.727 1.422.509 2.764 1.353 3.767 2.552a7.44 7.44 0 0 1 1.738 4.505c.119 1.976-.548 3.992-1.832 5.429-.879 1.036-2.03 1.771-3.239 2.288-1.571.65-3.268.895-4.945.882l-1.36-.001-.001-.226c1.692.02 3.457-.53 4.672-1.83 1.158-1.196 1.755-2.881 1.959-4.558.201-1.82.097-3.717-.54-5.434-.466-1.224-1.242-2.34-2.299-3.052-.732-.514-1.577-.825-2.439-.97-.862-.156-1.739-.103-2.609-.113.005 7.526-.001 15.052.005 22.577.016.863.029 1.779.434 2.554.332.615.943.983 1.556 1.212.785.297 1.607.456 2.421.639l-.001.19-12.684-.001v-.189c.834-.179 1.702-.315 2.453-.774a2.88 2.88 0 0 0 1.32-1.727c.226-.743.192-1.534.196-2.305-.004-5.878.002-11.757-.004-17.635.018-.967-.018-2.007-.545-2.835-.531-.839-1.46-1.257-2.356-1.47-.356-.086-.713-.157-1.068-.236zm21.927.004Q222.506.03 233.379.032v7.746l-.182.002c-.677-1.265-1.31-2.554-2.001-3.81-.722-1.277-1.779-2.368-3.091-2.927-1.655-.724-3.476-.795-5.241-.812l-2.977.001.001 12.944c1.092-.033 2.186-.025 3.278-.088.758-.048 1.528-.113 2.251-.379a3.32 3.32 0 0 0 1.7-1.408c.779-1.206 1.082-2.657 1.526-4.018l.171-.026c-.001 4.002.011 8.005-.007 12.006l-.168.026c-.426-1.355-.765-2.77-1.506-3.98-.37-.59-.883-1.094-1.508-1.358-.807-.355-1.692-.407-2.553-.463-1.061-.048-2.123-.047-3.185-.077q-.001 4.897.001 9.797c.004.907.113 1.852.557 2.645.378.665 1.051 1.088 1.756 1.24.758.174 1.538.107 2.308.118 1.699-.012 3.463-.222 4.968-1.123 1.195-.701 2.118-1.827 2.823-3.052.638-1.114 1.248-2.248 1.894-3.357l.172-.03c.003 2.584-.004 5.168-.002 7.753-7.578-.001-15.156.003-22.734-.003l.03-.183c.689-.138 1.405-.194 2.056-.496.76-.32 1.411-.98 1.661-1.82.238-.722.249-1.498.244-2.255V5.414c-.017-.96.075-1.955-.23-2.878-.186-.64-.648-1.153-1.181-1.486-.779-.488-1.688-.612-2.553-.824zm24.61-.003 8.935.001c.8 1.518 1.828 2.879 2.857 4.227 1.775 2.304 3.605 4.561 5.408 6.84l7.439 9.349c-.037-4.266-.068-8.532-.104-12.798-.012-1.237.016-2.487-.221-3.704-.152-.758-.398-1.514-.853-2.128-.432-.59-1.059-.99-1.725-1.202-.604-.185-1.229-.28-1.85-.365q-.19 0-.156-.217c6.266-.005 12.532-.001 18.798-.002 1.722.01 3.445-.023 5.168.024 2.033.09 4.084.455 5.961 1.318a12.5 12.5 0 0 1 6.027 5.494c2.487 4.613 2.131 10.79-.921 15.013a12.96 12.96 0 0 1-5.8 4.453c-1.988.779-4.121 1.085-6.233 1.069-4.245-.003-8.49.003-12.735-.004l.029-.182c.596-.126 1.21-.184 1.787-.404.681-.24 1.331-.685 1.697-1.36.385-.699.465-1.53.468-2.326.002-5.69-.001-11.382.001-17.073.012-1.532-.164-3.205-1.138-4.414-.884-1.096-2.314-1.459-3.622-1.404-1.221.019-2.521.452-3.299 1.505-.506.666-.791 1.494-.927 2.33-.146.863-.137 1.743-.135 2.616.003 7.104-.005 14.209.002 21.313a10 10 0 0 1-.291-.036c-3.8-4.8-7.631-9.573-11.445-14.36-2.411-3.025-4.826-6.046-7.236-9.07l.104 13.404c.007 1.87.013 3.776.518 5.584.288 1.035.812 2.048 1.677 2.657.682.5 1.498.72 2.29.943.15.054.398.03.357.277q-4.998.008-9.998 0c-.044-.235.186-.221.331-.27.843-.23 1.72-.463 2.426-1.035.881-.687 1.389-1.78 1.652-2.885.508-2.03.414-4.147.421-6.226-.012-4.217.02-8.437-.015-12.652-.949-1.115-1.918-2.25-3.116-3.07-.766-.535-1.647-.845-2.539-1.036zm38.243.2V23.05c-.002.859.057 1.735.348 2.544.231.62.705 1.128 1.29 1.37.735.313 1.543.243 2.318.248 1.235-.014 2.475-.203 3.646-.627a8.6 8.6 0 0 0 3.558-2.418c1.124-1.253 1.884-2.831 2.365-4.475.535-1.828.746-3.748.769-5.657.017-1.877-.148-3.769-.626-5.581-.406-1.55-1.043-3.05-1.985-4.318a9.3 9.3 0 0 0-3.379-2.86C281.266.537 279.58.228 277.914.232zm19.962-.2c7.243 0 14.486.003 21.729-.001.009 2.58-.002 5.16.006 7.74l-.179.014c-.677-1.262-1.311-2.55-2.002-3.804-.732-1.303-1.817-2.412-3.16-2.964-1.566-.667-3.281-.76-4.948-.784h-3.205v12.943c1.094-.03 2.19-.025 3.285-.087.761-.047 1.535-.114 2.261-.384.693-.25 1.297-.764 1.693-1.417.771-1.205 1.074-2.647 1.518-4.003l.169-.028c.006 4.003-.004 8.008.005 12.011l-.181.013c-.43-1.35-.758-2.77-1.504-3.974-.37-.586-.878-1.087-1.499-1.352-.775-.346-1.627-.404-2.455-.46-1.097-.056-2.195-.051-3.292-.083v9.793c.003.891.11 1.815.531 2.602.343.631.951 1.062 1.608 1.242.812.23 1.66.152 2.492.163 1.677-.014 3.418-.218 4.91-1.094 1.232-.717 2.189-1.87 2.902-3.14.565-1 1.122-2.004 1.688-3.003.086-.146.148-.357.353-.326.004 2.584 0 5.169.002 7.754-7.581-.001-15.162.003-22.743-.003l.029-.182c.708-.14 1.443-.201 2.11-.52a2.92 2.92 0 0 0 1.484-1.464c.292-.683.367-1.443.368-2.186V4.932c-.003-.787.026-1.598-.218-2.352-.195-.69-.691-1.253-1.282-1.584-.766-.442-1.638-.576-2.478-.768zm24.616.003c2.981-.007 5.963.002 8.944-.005.784 1.476 1.784 2.803 2.779 4.121 1.76 2.275 3.564 4.51 5.347 6.763 2.531 3.175 5.054 6.357 7.585 9.532-.039-4.452-.071-8.903-.111-13.355-.012-1.076-.093-2.158-.341-3.204-.262-1.118-.805-2.227-1.744-2.859-.802-.551-1.772-.678-2.699-.796v-.2l9.892.001-.001.2c-.596.086-1.199.143-1.772.346-.679.223-1.312.64-1.755 1.235-.518.66-.796 1.487-.975 2.314-.365 1.705-.258 3.465-.277 5.199.002 6.222-.005 12.443.002 18.664l-.252.002c-6.251-7.81-12.478-15.641-18.72-23.459.034 4.575.073 9.15.106 13.725.009 1.875.042 3.795.618 5.588.333 1.041.964 2.015 1.894 2.54.716.417 1.52.61 2.304.827l.001.189h-9.958v-.189c.715-.197 1.447-.367 2.117-.714a3.96 3.96 0 0 0 1.634-1.607c.672-1.207.874-2.625.998-4 .125-2.018.038-4.043.064-6.065-.004-3.489.006-6.978-.005-10.466-.114-.194-.283-.34-.42-.511-1.04-1.194-2.141-2.41-3.563-3.079-.529-.268-1.103-.398-1.665-.547zM350.11.032h22.794l.003 8.93-.181-.03c-.576-1.449-1.076-2.933-1.679-4.37-.558-1.293-1.273-2.588-2.409-3.397-.997-.716-2.226-.935-3.407-.933q-.798-.002-1.591 0c.004 7.444.002 14.889.003 22.334-.008.835.002 1.697.297 2.487a2.9 2.9 0 0 0 1.576 1.654c.664.305 1.392.38 2.1.506l-.001.189h-12.207l-.001-.19c.685-.121 1.388-.192 2.036-.478a2.94 2.94 0 0 0 1.551-1.465c.307-.691.385-1.466.382-2.222 0-7.606.002-15.21-.002-22.816-1.024.019-2.058-.067-3.07.138a4.82 4.82 0 0 0-2.794 1.609c-.942 1.088-1.509 2.463-2.025 3.816q-.532 1.404-1.055 2.81c-.069.159-.094.403-.313.36-.01-2.977-.004-5.955-.007-8.932M23.3.032h6.089c-.001 3.779.003 7.556-.005 11.335a7.85 7.85 0 0 1 2.504-2.605 5.4 5.4 0 0 1 3.3-.926c1.343.051 2.71.55 3.675 1.571.92.97 1.409 2.319 1.571 3.667.115.82.099 1.652.1 2.478l-.001 7.968c-.009.576.065 1.206.453 1.644.445.531 1.132.66 1.747.837q-.005.186-.006.373l-8.278.001q-.002-.188-.001-.373c.604-.173 1.272-.3 1.72-.807.355-.404.474-.978.474-1.516q.002-3.585 0-7.17c-.014-1.178.08-2.385-.253-3.526-.246-.912-.789-1.756-1.572-2.232-.922-.565-2.064-.653-3.074-.324-.87.259-1.634.786-2.354 1.35-.002 3.941.002 7.884-.001 11.827-.009.619.132 1.301.598 1.716.445.412 1.044.517 1.594.682l-.001.373h-8.28v-.373c.613-.18 1.301-.303 1.743-.836.363-.417.456-1.008.452-1.557V2.777c.008-.567-.11-1.175-.502-1.588C24.543.706 23.89.582 23.3.41zm24.772 8.894a7.34 7.34 0 0 1 3.764-1.092c1.347-.032 2.722.24 3.912.93a6.2 6.2 0 0 1 2.616 2.959c.445.986.618 2.088.615 3.175-3.716.01-7.434-.018-11.15.015-.119 1.696.051 3.438.627 5.033.483 1.3 1.267 2.512 2.374 3.292 1.075.787 2.414 1.112 3.708 1.01 1.854-.154 3.595-1.415 4.391-3.204q.165.065.33.136c-.258 1.165-.886 2.203-1.624 3.09-1.11 1.32-2.637 2.244-4.281 2.541a8.2 8.2 0 0 1-4.078-.329 7.17 7.17 0 0 1-3.328-2.44c-.954-1.241-1.543-2.768-1.808-4.339-.458-2.625-.165-5.465 1.14-7.78.677-1.225 1.635-2.281 2.792-2.997m2.828-.514c-.86.28-1.533.997-1.957 1.82-.676 1.302-.937 2.788-1.116 4.248h7.183c0-1.468.047-3.001-.518-4.375-.234-.662-.684-1.252-1.284-1.571-.713-.371-1.56-.363-2.308-.122"/><path d="M77.153.05a12.3 12.3 0 0 1 5.734.843 13.3 13.3 0 0 1 4.545 3.123c2.016 2.147 3.382 5.005 3.715 8.027.378 3.387-.514 6.894-2.395 9.648-1.248 1.86-2.932 3.387-4.856 4.403-3.383 1.842-7.575 2.002-11.018.25-1.689-.812-3.195-2.03-4.414-3.514a14.24 14.24 0 0 1-3.053-7.202c-.388-3.07.216-6.28 1.745-8.923 2.075-3.747 5.92-6.31 9.997-6.655m-6.796 5.361c.018.135.017.282.092.4.282.497.589.977.859 1.481a29 29 0 0 1-1.314-1.15c-.265-.415-.428-.896-.678-1.32.023.357.092.708.14 1.063.027.662.49 1.159.718 1.746-.285-.233-.558-.483-.84-.72-.369-.274-.53-.74-.81-1.098.047.27.108.537.163.806.069.583.517.984.773 1.477a19 19 0 0 1-1.03-.62c-.207-.192-.34-.456-.537-.657q.114.366.233.732c.1.348.38.582.562.878-.178-.033-.354-.07-.531-.099.331.379.712.704 1.05 1.076-.319-.016-.64-.04-.959-.046.43.316.892.58 1.324.893-.221.021-.442.039-.662.064.505.227 1.027.405 1.53.64-.212.076-.424.151-.63.246 1.198.116 2.402.154 3.595.306-.663.025-1.327.019-1.99.02l-.038.429c.833 0 1.666-.04 2.498-.034-.594.124-1.203.143-1.802.23q-.037.252-.07.504c.815-.115 1.63-.242 2.448-.351-.63.204-1.283.324-1.923.494q-.014.293-.025.584c.832-.228 1.654-.504 2.491-.707-.67.326-1.374.569-2.053.876q.007.266.018.53c.844-.357 1.667-.777 2.526-1.09q-1.013.591-2.037 1.163.027.277.067.553c.834-.432 1.644-.913 2.487-1.324-.665.48-1.355.92-2.028 1.385l.111.46c.793-.45 1.57-.933 2.372-1.366-.59.465-1.219.872-1.825 1.314l.17.502c.663-.413 1.311-.85 1.981-1.248-.404.385-.866.695-1.294 1.048l.223.47c.328-.211.648-.435.983-.636-.12.134-.25.258-.377.38l.172.369c.347-.144.743-.214 1.02-.498.194-.177.264-.445.362-.686-.023.57-.444 1.022-.937 1.187-.954.407-1.93.754-2.88 1.17-.554.853-1.053 1.749-1.59 2.615-.072.135-.2.265-.157.436.273-.23.468-.54.7-.812.46-.55.887-1.13 1.365-1.66-.369.634-.784 1.236-1.17 1.857q.356-.06.716-.116c.38-.57.726-1.167 1.12-1.727-.244.575-.531 1.128-.793 1.694l.48-.032c.078-.02.198.017.228-.093.259-.518.468-1.063.742-1.573-.138.554-.342 1.087-.501 1.633q.342-.023.687-.05c.155-.508.268-1.034.457-1.53-.057.504-.157 1.003-.231 1.505q.348-.071.699-.14c.061-.464.087-.933.168-1.394.025.44.007.88.013 1.32l.525-.312c-.027-.344-.065-.686-.067-1.03.082.316.135.64.21.958l.174.085.14.402c.315.124.554.383.808.608q-.162-.06-.316-.122c-1.002.286-1.996.6-2.988.924.611.376 1.225.745 1.834 1.122.209.125.3.406.188.634.002-.197-.008-.44-.2-.536-.405-.202-.817-.386-1.227-.577-.288.105-.59.172-.865.313-.207.116-.192.457-.009.59.224.148.486.215.73.317.371.13.732.315 1.122.377.522.04.967-.307 1.433-.504.987-.423 1.81-1.158 2.664-1.816-.3.362-.654.667-.972 1.01a55 55 0 0 1 1.534-.71c.584-.268 1.116-.644 1.652-1.005-.208.234-.443.437-.66.66a17 17 0 0 1 2.608-.27c.258-.01.563-.051.715-.305.156-.26.032-.617-.206-.765-.475-.31-.96-.601-1.437-.908-.736.133-1.459.335-2.196.462.218.064.285.306.274.521-.103-.181-.214-.362-.379-.487l-.232.053a.6.6 0 0 1 .232.535c-.096-.146-.168-.318-.31-.42-.276-.21-.529-.45-.782-.688-.064-.486.016-.966.007-1.453-.267.242-.511.513-.797.731.74-.97 1.525-1.897 2.27-2.863-.246-.05-.493-.09-.732-.164.397-.016.795-.009 1.193-.003.17.15.389.185.604.156-.082-.15-.17-.3-.255-.447.303-.268.563.247.417.524.2-.097.448-.226.467-.495.03-.382-.305-.613-.513-.87-.022-.153-.025-.32-.113-.45-.138-.22-.388-.296-.603-.391-.275-.106-.54-.246-.82-.331-.492-.048-.988.026-1.479-.037.486-.109.987-.112 1.474-.213.195-.135.333-.356.552-.454.528-.236 1.066-.444 1.593-.682.14-.056.23-.189.278-.335q.389-1.112.774-2.227c.141-.46.488-.798.734-1.195.503-.725 1.014-1.444 1.512-2.174-.5.343-.967.738-1.462 1.089.191-.453.422-.885.613-1.337-.35.452-.624.964-.962 1.427.007-.472.098-.94.067-1.414-.123.473-.211.954-.344 1.423-.21-.485-.367-.993-.585-1.474.094.485.215.963.327 1.443.106.368.041.757.003 1.13-.071-.324-.03-.689-.223-.97-.284-.485-.526-.997-.832-1.465.222.606.511 1.183.736 1.787.05.455.052.916.064 1.374-.116-.418-.1-.863-.21-1.281-.403-.557-.8-1.124-1.239-1.652.323.562.677 1.102 1.009 1.657.054.08.066.179.07.275.023.527.027 1.055.065 1.581l-.049-.005c-.07-.55-.113-1.107-.217-1.65a34 34 0 0 0-1.38-1.526c.375.557.778 1.092 1.169 1.636.042.705.107 1.411.128 2.119-.159-.653-.198-1.333-.342-1.989-.457-.467-.953-.9-1.449-1.322.39.506.847.95 1.234 1.458.077.731.18 1.468.183 2.206-.122-.698-.272-1.39-.41-2.082-.491-.343-.962-.718-1.463-1.043.386.432.862.774 1.236 1.216.124.715.238 1.436.33 2.157-.22-.666-.366-1.357-.556-2.034-.466-.267-.922-.554-1.394-.806.37.347.791.624 1.183.942.124.71.269 1.417.379 2.13-.239-.638-.421-1.297-.639-1.943-.432-.17-.856-.363-1.293-.513.338.258.72.443 1.075.672.148.65.312 1.297.447 1.95-.271-.563-.469-1.163-.711-1.74-.416-.075-.827-.176-1.244-.226.273.132.561.222.844.33.078.04.198.053.212.17.17.536.339 1.072.49 1.613-.289-.471-.534-.97-.811-1.45-.35-.023-.7-.082-1.05-.07.276.108.558.194.835.297.202.46.413.916.605 1.382-.308-.355-.578-.744-.877-1.106-.319.027-.638.037-.956.065.252.076.509.124.766.174.228.359.467.711.685 1.078-.311-.245-.603-.517-.903-.775-.347.085-.7.146-1.038.266.29.026.592-.033.877.03.261.234.506.49.746.748-.322-.124-.615-.32-.937-.44-.364.031-.723.106-1.08.178.325.042.656.014.981.068.276.163.538.354.797.547-.31-.085-.602-.247-.918-.303q-.704.113-1.396.287c.438.015.876-.031 1.314-.016.294.107.571.263.848.414-.373-.046-.732-.255-1.112-.17q-.938.172-1.878.337c.565.1 1.14.093 1.707.173-.462.118-.936.168-1.396.288.322.032.646.041.968.074-.343.13-.703.203-1.052.313.156.21.316.42.455.645-.365-.298-.724-.61-1.058-.945-.862-1.24-1.683-2.512-2.55-3.746-.769-.472-1.59-.846-2.36-1.317-.524-.476-1.024-.982-1.543-1.465-.132-.13-.299-.245-.35-.44-.18-.507-.34-1.023-.533-1.525.04.53.11 1.059.163 1.59"/><path d="M71.084 6.17c.407.452.703 1.004 1.09 1.473.563.354 1.2.57 1.75.95-.524-.173-1.024-.417-1.54-.613-.167-.075-.379-.112-.456-.311-.276-.503-.59-.983-.844-1.499m-.811.735c.375.333.656.773 1.029 1.108.614.306 1.267.522 1.871.852-.403-.089-.785-.263-1.178-.39-.294-.114-.604-.186-.887-.33a15 15 0 0 1-.835-1.24m-.891.475c.429.326.766.768 1.174 1.12.753.325 1.562.5 2.307.844-.82-.178-1.63-.417-2.437-.65a19 19 0 0 1-1.044-1.314m-.568.656c.446.319.826.731 1.269 1.056.895.309 1.827.498 2.714.835a53 53 0 0 1-2.844-.644c-.39-.402-.789-.804-1.14-1.247M73.41 9.41c.303-.16.594-.348.912-.474-.317.263-.672.467-1.01.698a8 8 0 0 1 .008-.53q.047.152.09.306m.151.72c.395-.214.778-.456 1.184-.647-.402.328-.853.582-1.282.868a3 3 0 0 1 .024-.52zm-4.557-.542c1.26.235 2.51.546 3.766.807l-.012.06-2.302-.374c-.51-.057-.991-.267-1.453-.493m4.883 1.172c.424-.232.832-.501 1.267-.714-.421.353-.899.621-1.349.93l-.009-.441.055-.005zm-3.855-.293c1.01.143 2.019.316 3.022.501-.472.054-.944-.072-1.416-.09-.555-.022-1.097-.186-1.606-.41m4.348.825c.412-.225.816-.473 1.24-.672-.425.333-.892.6-1.343.893a3.4 3.4 0 0 1 .024-.534zm.611.457c.367-.199.724-.418 1.101-.593-.38.306-.8.55-1.204.815q.001-.267.018-.532.044.153.086.31m.654.446c.3-.164.593-.345.906-.481-.31.273-.672.47-1.01.7 0-.183.005-.366.03-.546.017.081.055.245.074.327m.644.416c.22-.114.44-.23.668-.325-.24.206-.507.372-.766.548q-.003-.251.008-.502zm3.576.077c.069-.042.228-.07.26.032a.34.34 0 0 1-.18.165.22.22 0 0 1-.08-.197m.917-.001q.222-.014.446-.015-.173.157-.352.305.037-.1.078-.2zm-4.07.565a12 12 0 0 1 .034-.432l.073.223c.158-.074.317-.148.481-.21a4 4 0 0 1-.588.42m5.006-.409q.138.023.28.043-.127.105-.248.21zm-2.748.257q.257 0 .518.005-.206.184-.422.352.05-.115.104-.229zm3.85.211c-.039-.134.083-.2.164-.267-.003.104-.117.295.059.312l.166-.198c-.005.074.015.155-.015.226-.074.17-.364.114-.373-.073m-2.783-.08q.262-.016.525-.001-.205.181-.422.343l.107-.225zm-2.813.272a6 6 0 0 1 .58-.261c-.216.178-.452.323-.686.47q.01-.215.022-.428zm3.771-.071q.26-.004.522.002a7 7 0 0 1-.412.345q.046-.112.097-.226zm2.528.126c.228.219.528.438.497.812-.068-.337-.332-.523-.578-.706zm-6.096.435c.144-.074.29-.147.44-.206-.167.15-.35.28-.531.409l.031-.343zm1.692-.056q.306-.062.616-.094-.22.254-.451.495.044-.15.09-.297zm-.851.09q.217-.042.439-.08-.155.18-.315.353l.063-.207zm1.905.073q.291-.074.588-.128-.19.261-.407.497.037-.146.079-.29a8 8 0 0 1-.26-.08m2.658-.06c.111-.12.259-.027.374.032-.195-.001-.368.065-.394.294-.04-.107-.072-.236.02-.326m-1.77.322q.219-.014.442-.025l-.317.313q.026-.101.056-.202zm-3.598.119a.9.9 0 0 0 .367-.046q-.192.159-.388.313.009-.134.021-.267m.884.324q.248-.062.5-.111a9 9 0 0 1-.333.406l.044-.222zm.916.113q.301-.113.613-.193a4.5 4.5 0 0 1-.37.528l.039-.282zm1.001.114q.262-.077.534-.135-.165.226-.346.439.029-.128.062-.254zm.989.171.283-.038-.198.242zm-2.777.438q.249-.085.505-.152-.155.233-.32.455.018-.13.04-.257zm1.003.225q.295-.123.602-.218-.165.29-.357.558.016-.15.038-.298-.144-.02-.284-.042m1.102.006q.216-.038.436-.07-.154.176-.31.347l.054-.191zm-2.764.138q.205.002.412-.003-.136.131-.262.27a.33.33 0 0 0-.15-.267m.947.408q.25-.073.508-.123-.165.225-.345.433.026-.126.056-.25zm-1.456.107c.073-.03.197-.042.25.033-.028.084-.12.18-.21.157a.17.17 0 0 1-.04-.19m2.667.076q.219-.037.44-.07a25 25 0 0 1-.307.351l.06-.206zm-1.961.067q.23.002.464.008-.176.151-.353.299l.084-.205zm1.29.37.287-.041q-.099.123-.195.25zm-3.441.006.296.01a5 5 0 0 0-.274.257.4.4 0 0 0-.022-.267m.826 0 .311.012a6 6 0 0 0-.277.242.3.3 0 0 0-.034-.255m.849.19c.07-.041.222-.061.26.035a.3.3 0 0 1-.18.166.23.23 0 0 1-.08-.2m.895.047.342.015a5 5 0 0 0-.267.253zm.497.419c.28.332.53.69.803 1.027.37-.037.648.259.963.412q-.304.081-.608.153a.58.58 0 0 1 .252.503c-.118-.157-.232-.32-.376-.451l-.282.038a.54.54 0 0 1 .264.543c-.188-.423-.654-.606-.822-1.04a22 22 0 0 1-.194-1.185m3.7 1.481c.488-.214 1.032-.287 1.557-.323-.5.187-1.032.267-1.557.323m-1.388-.236c.289-.022.49.244.46.537-.13-.202-.265-.402-.46-.537m1.484.56c.704-.147 1.417-.322 2.14-.308-.447.135-.913.173-1.37.253-.255.038-.513.097-.77.055m-3.588.011c.276-.041.473.226.434.508a1.7 1.7 0 0 0-.434-.509m1.919.41c.375-.213.811-.284 1.232-.315-.39.178-.815.26-1.233.315m-3.156.526c.416-.141.829-.31 1.265-.364-.392.206-.822.313-1.231.47-.364.11-.713.286-1.09.333.336-.185.7-.305 1.056-.439m1.224.094c.489-.172.972-.381 1.482-.467-.546.26-1.127.427-1.684.658-.489.178-.965.394-1.461.545.519-.324 1.103-.508 1.663-.736m-3.451 1.45c.156-.25.494-.221.736-.315-.141.095-.288.18-.434.265.343.166.697.312 1.027.51-.448-.136-.886-.306-1.329-.46"/></g><defs><clipPath id="a"><path fill="#fff" d="M0 0h373v28H0z"/></clipPath></defs></svg>