<svg xmlns="http://www.w3.org/2000/svg" width="227" height="70" fill="none" viewBox="0 0 227 70"><g clip-path="url(#a)"><path fill="#fff" d="M108.373.721s-2.536.053-4.006.028c-.061.614-.77 6.18-1.379 10.656-.701 4.142-6.254 34.869-8.135 44.067-.496 2.777-2.027 10.623-2.171 11.407-1.768.21-3.855.404-5.218.457-.183.006-.488.065-.633.065v1.593c.168-.007 1.051.06 1.676.034 1.5-.048 5.759-.249 6.566-.249 3.063 0 5.104.202 7.938.258.038 0 .815-.003 1.158-.046v-1.61c-.237 0-.549-.007-.732-.007-.799.025-3.747-.2-5.24-.403.175-1.052 2.78-16.966 4.029-23.33 2.377-11.779 4.022-20.127 4.022-20.127l.442 1.037 18.777 44.547 3.428.017s1.958-4.823 4.281-10.234a50 50 0 0 0 .465-1.07c2.437-5.618 14.518-34.132 14.518-34.132s.115.513.305 1.431c1.15 5.59 5.043 25.73 5.873 30.59.389 2.5.754 5.035.968 6.52.312 2.104.518 4.163.518 4.754-.381.018-4.205.362-5.653.424a8 8 0 0 0-.617.016v1.62c.518 0 1.021.023 1.524.012 2.955-.056 5.797-.287 8.752-.286 3.322.003 8.707.292 12.158.314.388 0 1.081-.034 1.081-.034v-1.637a37 37 0 0 1-1.386-.069c-1.546-.12-4.151-.36-4.814-.405 0 0-.427-2.352-.99-5.07-2.255-10.87-8.677-43.913-9.659-52.044-.336-2.794-1.288-9.069-1.288-9.069h-3.862l-3.77 10.771c-1.227 3.51-2.895 7.845-4.167 11.168-6.277 16.42-13.315 31.721-13.315 31.721s-14.961-35.532-15.753-37.587c-.8-2.055-5.691-16.098-5.691-16.098M.83.736l.033 3.756L.8 13.637l.995-.028.105-8.134s5.458-.047 6.163-.046l10.178.004 6.569.033.01 56.569.002 4.886-.139.019c-.874.067-4.239.272-5.605.321-.307.01-.503.018-.536.014l.006 1.655c.247.012.912.028 1 .025 3.232-.042 7.607-.322 10.709-.319 3.151.002 7.586.307 10.33.339.273.001.595-.025.856-.025v-1.552l-.34.003c-.875-.004-5.711-.314-6.212-.38-.02-.758-.11-4.422-.11-4.503l.023-57.058 5.001-.013 13.048.008 4.355.06c.03.31.25 4.43.245 4.542-.01.3.163 3.369.157 4.124l1.032.012-.074-9.25.047-4.161c-3.834.104-13.607.234-28.773.226C16.834 1 4.299.892.83.736m60.746.015.016 1.62c.515.028 3.543.294 4.278.33.588.072 1.407.145 1.994.202 0 .518.009 4.098.017 5.51.099 13.39.015 42.982-.025 53.452l-.02 4.979c-.371.11-1.206.152-2.109.213-.772.052-3.537.283-4.154.296v1.62c.256 0 .726.054.993.052 3.13 0 7.482-.386 10.688-.384 3.24.002 7.567.395 10.119.396l-.008.002c.221.003.747-.055.968-.054v-1.62h-.221c-.1-.021-3.39-.159-4.19-.242-.419-.026-2.232-.182-2.254-.242a29 29 0 0 1-.016-1.324c.008-.767.008-2.041.008-3.423.008-10.561.038-41.928.046-53.918 0-2.317.007-4.2.007-5.21.709-.044 3.603-.346 4.64-.437.045-.004 1.416-.083 1.98-.117V.764c-3.542-.001-8.23.274-11.686.273-3.615-.003-8.07-.285-11.07-.286m163.928.046L224.437.8c-2.369.01-8.432.054-15.524.093-4.357.025-7.762.06-12.249.058-3.146.036-7.549.157-10.268.152-4.342-.007-7.884-.273-9.811-.281-.914-.004-1.425.03-1.676.015.015.023.015 1.6.015 1.6.168.028.503.065.815.058 1.089.073 3.131.237 4.167.373.206.038.556.096 1.531.203-.008.36.046 4.418.038 6.857l-.023 52.674c0 .082-.114 4.054-.114 4.375-1.722.293-5.028.474-6.155.478h-.335v1.604c.16 0 .899.028 1.318.028 1.82 0 6.513-.289 11.304-.292 3.359-.003 7.054.122 10.794.175 4.608.064 9.27.067 13.46.126 6.909.097 12.508.106 14.328.108 0 0 .221-12.756.221-13.784l-.998.011c0 1.086-.403 5.126-.419 5.303-.129 1.52-.266 3.114-.373 3.9 0 0-.487.039-.723.034-1.135-.021-4.761.11-4.838.11l-16.171.007-11.358-.19-.076-3.136-.008-24.348c2.026-.068 5.119-.175 7.001-.171 1.599.003 5.37-.087 7.48-.082 5.127.01 9.682.042 10.047.052.846.025 2.415.076 3.009.113.023.214.092.55.099.644.305 1.864.473 3.156.678 4.986.031.165.046.324.069.474h1.165s.031-.654.016-1.062c-.023-1.435-.115-4.298-.115-7.471-.007-2.2.122-5.562.137-7.18.008-.437-.045-.748-.045-.873l-1.067.02c-.007.35-.091.866-.091.866-.092 1.205-.434 2.746-.709 4.371-.076.203-.129.486-.129.486-.122.04-3.466.218-3.763.216-.114-.001-4.982.135-5.066.135l-18.708-.07.03-26.849s2.377-.083 3.04-.08c2.696 0 7.084-.024 11.555-.017 6.544.007 12.897.048 12.912.057.038.019 1.973.046 2.011.079.046.036 2.468.108 3.062.127 0 0 .046.2.076.452.267 2.83.488 6.193.587 7.384l.007.477.998-.003c0-1.744-.091-7.082-.106-10.478-.008-1.091.015-1.98.015-2.485z"/></g><defs><clipPath id="a"><path fill="#fff" d="M0 0h227v70H0z"/></clipPath></defs></svg>