<svg width="515" height="298" viewBox="0 0 515 298" fill="none" xmlns="http://www.w3.org/2000/svg">
<g clip-path="url(#clip0_3290_8066)">
<path d="M-107.262 210.663L-127.871 181.2L48.7813 206.244L201.88 163.522L197.464 170.888L60.5581 222.449L-54.2659 225.395L-107.262 210.663Z" fill="white"/>
<path d="M-151.425 144.371L-130.815 176.78L50.2533 201.824L191.575 162.049L54.6696 187.093L-151.425 144.371Z" fill="white"/>
<path d="M-155.841 139.951L-200.004 75.1316L53.1973 167.941L190.103 157.629L56.1415 182.673L-155.841 139.951Z" fill="white"/>
<path d="M-253 0L-204.421 69.239L53.1974 162.049L195.991 153.21L54.6695 150.263L-227.974 7.36585L-253 0Z" fill="white"/>
<path d="M-200.004 16.2048L56.1415 144.371L200.408 148.79L-200.004 16.2048Z" fill="white"/>
<path d="M-39.5449 229.815L25.2276 248.966L90.0002 238.654L197.464 178.254V173.834L60.5581 226.868L-39.5449 229.815Z" fill="white"/>
<path d="M35.5322 250.439L81.1674 263.697L119.442 244.546L197.464 187.093V182.673L90 243.073L35.5322 250.439Z" fill="white"/>
<path d="M87.0557 265.171L110.609 271.063L153.3 248.966L197.463 191.512L126.802 244.546L87.0557 265.171Z" fill="white"/>
<path d="M115.026 274.01L137.107 279.903L176.854 247.493L195.992 200.351L156.245 251.912L115.026 274.01Z" fill="white"/>
<path d="M141.523 281.376L162.133 287.268L197.463 269.59L198.935 207.717L179.798 250.439L141.523 281.376Z" fill="white"/>
<path d="M630.262 212.137L650.871 182.673L474.219 207.717L321.12 164.995L325.536 172.361L462.442 223.922L577.266 226.868L630.262 212.137Z" fill="white"/>
<path d="M674.425 145.844L653.815 178.254L472.747 203.298L331.425 163.522L468.33 188.566L674.425 145.844Z" fill="white"/>
<path d="M678.841 141.424L723.004 76.605L469.803 169.415L332.897 159.103L466.858 184.146L678.841 141.424Z" fill="white"/>
<path d="M776 1.47314L727.421 70.7122L469.803 163.522L327.009 154.683L468.331 151.737L750.974 8.839L776 1.47314Z" fill="white"/>
<path d="M723.004 17.678L466.858 145.844L322.592 150.263L723.004 17.678Z" fill="white"/>
<path d="M562.545 231.288L497.773 250.439L433 240.127L325.537 179.727V175.307L462.442 228.342L562.545 231.288Z" fill="white"/>
<path d="M487.468 251.912L441.833 265.171L403.558 246.019L325.537 188.566V184.146L433 244.546L487.468 251.912Z" fill="white"/>
<path d="M435.944 266.644L412.391 272.537L369.7 250.439L325.537 192.985L396.198 246.019L435.944 266.644Z" fill="white"/>
<path d="M407.974 275.483L385.893 281.376L346.146 248.966L327.009 201.824L366.756 253.385L407.974 275.483Z" fill="white"/>
<path d="M381.476 282.849L360.867 288.741L325.537 271.063L324.064 209.19L343.202 251.912L381.476 282.849Z" fill="white"/>
<path d="M316.704 291.688V169.415L287.262 201.824V225.395L260.764 244.546L234.266 225.395V201.824L204.824 169.415V291.688L247.515 340.302V384.497H240.155L243.099 393.336L247.515 388.917H256.348L260.764 394.81L265.18 388.917H274.013L278.429 393.336L281.374 384.497H274.013V338.829L316.704 291.688ZM265.18 285.795V384.497H257.82V285.795L229.85 260.751V232.761L260.764 254.858L292.414 231.288V258.541L265.18 285.795Z" fill="white"/>
<path d="M206.296 164.995L235.738 197.405L257.819 176.78V162.049L241.626 139.951L206.296 164.995Z" fill="white"/>
<path d="M315.232 164.995L285.79 197.405L263.708 176.78V162.049L279.901 139.951L315.232 164.995Z" fill="white"/>
<path d="M204.824 297.581L231.322 357.981L226.906 378.605L243.099 375.659V341.776L204.824 297.581Z" fill="white"/>
<path d="M316.704 297.581L290.206 357.981L294.622 378.605L278.429 375.659V341.776L316.704 297.581Z" fill="white"/>
<path d="M287.262 78.0782L306.399 95.7562L276.957 54.5074L243.099 36.8294L204.824 7.36597L190.103 14.7318H200.408L218.073 39.7757L212.185 139.951L260.764 114.907L310.815 145.844L287.262 78.0782ZM250.459 55.9806L244.571 54.5074V48.6147L256.348 58.9269L250.459 55.9806Z" fill="white"/>
</g>
<defs>
<clipPath id="clip0_3290_8066">
<rect width="515" height="298" fill="white"/>
</clipPath>
</defs>
</svg>
