<svg xmlns="http://www.w3.org/2000/svg" width="515" height="298" fill="none" viewBox="0 0 515 298"><g fill="#fff" clip-path="url(#a)"><path d="m-107.262 210.663-20.609-29.463 176.652 25.044 153.099-42.722-4.416 7.366-136.906 51.561-114.824 2.946z"/><path d="m-151.425 144.371 20.61 32.409 181.068 25.044 141.322-39.775L54.67 187.093z"/><path d="m-155.841 139.951-44.163-64.82 253.201 92.81 136.906-10.312-133.961 25.044z"/><path d="m-253 0 48.579 69.239 257.618 92.81 142.794-8.839-141.321-2.947L-227.974 7.366z"/><path d="M-200.004 16.205 56.141 144.37l144.267 4.419zm160.459 213.61 64.773 19.151L90 238.654l107.464-60.4v-4.42L60.558 226.868z"/><path d="m35.532 250.439 45.635 13.258 38.275-19.151 78.022-57.453v-4.42L90 243.073z"/><path d="m87.056 265.171 23.553 5.892 42.691-22.097 44.163-57.454-70.661 53.034z"/><path d="m115.026 274.01 22.081 5.893 39.747-32.41 19.138-47.142-39.747 51.561z"/><path d="m141.523 281.376 20.61 5.892 35.33-17.678 1.472-61.873-19.137 42.722zm488.739-69.239 20.609-29.464-176.652 25.044-153.099-42.722 4.416 7.366 136.906 51.561 114.824 2.946z"/><path d="m674.425 145.844-20.61 32.41-181.068 25.044-141.322-39.776 136.905 25.044z"/><path d="m678.841 141.424 44.163-64.819-253.201 92.81-136.906-10.312 133.961 25.043z"/><path d="m776 1.473-48.579 69.24-257.618 92.809-142.794-8.839 141.322-2.946L750.974 8.839z"/><path d="M723.004 17.678 466.858 145.844l-144.266 4.419zm-160.459 213.61-64.772 19.151L433 240.127l-107.463-60.4v-4.42l136.905 53.035z"/><path d="m487.468 251.912-45.635 13.259-38.275-19.152-78.021-57.453v-4.42L433 244.546z"/><path d="m435.944 266.644-23.553 5.893-42.691-22.098-44.163-57.454 70.661 53.034z"/><path d="m407.974 275.483-22.081 5.893-39.747-32.41-19.137-47.142 39.747 51.561z"/><path d="m381.476 282.849-20.609 5.892-35.33-17.678-1.473-61.873 19.138 42.722zm-64.772 8.839V169.415l-29.442 32.409v23.571l-26.498 19.151-26.498-19.151v-23.571l-29.442-32.409v122.273l42.691 48.614v44.195h-7.36l2.944 8.839 4.416-4.419h8.833l4.416 5.893 4.416-5.893h8.833l4.416 4.419 2.945-8.839h-7.361v-45.668zm-51.524-5.893v98.702h-7.36v-98.702l-27.97-25.044v-27.99l30.914 22.097 31.65-23.57v27.253z"/><path d="m206.296 164.995 29.442 32.41 22.081-20.625v-14.731l-16.193-22.098zm108.936 0-29.442 32.41-22.082-20.625v-14.731l16.193-22.098zM204.824 297.581l26.498 60.4-4.416 20.624 16.193-2.946v-33.883zm111.88 0-26.498 60.4 4.416 20.624-16.193-2.946v-33.883z"/><path d="m287.262 78.078 19.137 17.678-29.442-41.249-33.858-17.678-38.275-29.463-14.721 7.366h10.305l17.665 25.044-5.888 100.175 48.579-25.044 50.051 30.937zm-36.803-22.097-5.888-1.474v-5.892l11.777 10.312z"/></g><defs><clipPath id="a"><path fill="#fff" d="M0 0h515v298H0z"/></clipPath></defs></svg>