<svg width="48" height="48" viewBox="0 0 48 48" fill="none" xmlns="http://www.w3.org/2000/svg">
<path d="M35.0003 38H18.0003C15.404 37.9993 12.8591 37.2767 10.6499 35.9129C8.44064 34.5491 6.65416 32.5979 5.49006 30.2772C4.32596 27.9566 3.83011 25.3579 4.05791 22.7716C4.2857 20.1854 5.22818 17.7134 6.78001 15.632C8.33185 13.5505 10.4319 11.9416 12.8455 10.985C15.2591 10.0284 17.8912 9.76175 20.4476 10.2149C23.004 10.6681 25.3841 11.8232 27.3218 13.5512C29.2595 15.2792 30.6785 17.512 31.4203 20H35.0003C37.3873 20 39.6765 20.9482 41.3643 22.636C43.0521 24.3239 44.0003 26.6131 44.0003 29C44.0003 31.387 43.0521 33.6761 41.3643 35.364C39.6765 37.0518 37.3873 38 35.0003 38Z" stroke="black" stroke-width="4" stroke-linecap="round" stroke-linejoin="round"/>
</svg>
