<svg width="501" height="488" viewBox="0 0 501 488" fill="none" xmlns="http://www.w3.org/2000/svg">
<path d="M251.87 261.676L240.064 255.937L225.031 249.011L215.44 244.652L203.37 239.112L174.743 225.97L163.975 221.107L139.774 210.113L117.308 199.778L76.1608 181.11L57.2831 172.544L27.3772 159.165L0.0921869 146.537L0.0380859 119.644C2.88225 120.52 5.13457 121.846 7.70141 123.053L35.1826 135.367L52.5181 143.152L85.9446 158.397L103.926 166.551L147.17 186.139L174.57 198.662L200.776 210.596L221 219.839L241.524 229.109L251.741 233.996L251.863 254.314C251.876 256.746 252.208 259.035 251.87 261.683V261.676Z" fill="#6DA9C6"/>
<path d="M251.766 462.215L268.909 454.227L279.403 449.127L304.185 437.341L349.681 415.592L376.953 402.626L389.763 396.485L408.147 387.786L424.637 379.93L442.565 371.452L461.091 362.331L475.707 355.334L488.081 349.392C487.76 346.96 487.716 344.782 487.882 342.273L499.384 347.938C500.314 348.394 501.01 348.54 501 349.808L500.865 366.802C498.474 368.418 496.11 369.369 493.59 370.573L465.717 383.904L425.266 403.262L400.092 415.345L327.868 449.942L284.32 470.954L264.661 480.409C260.271 482.52 256.081 484.461 251.543 487.072L251.583 469.168C251.59 466.824 251.292 464.748 251.766 462.218V462.215Z" fill="#6DA9C6"/>
<path d="M372.661 176.531L343.445 190.224L309.568 174.204L278.895 159.889L260.159 151.238L273.386 145.245L295.195 135.306L303.694 131.457L318.909 124.375C323.955 122.028 328.859 119.878 333.708 117.311C336.732 118.914 339.468 120.145 342.39 121.497L358.748 129.076L381.887 139.817L402.567 149.533C404.924 150.639 414.096 154.765 416.098 155.33C416.378 155.408 416.507 155.675 416.514 155.823C416.52 155.986 416.392 156.209 416.128 156.31C407.271 159.763 399.364 164.623 390.375 168.208L372.668 176.531H372.661Z" fill="#6DA9C6"/>
<path d="M376.147 127.395L355.92 118.132L344.145 112.782C346.197 111.927 347.767 111.281 349.542 110.479L357.567 106.864L370.087 101.135L379.309 96.8604L406.023 84.7364C409.949 82.9541 413.625 81.5033 417.481 79.535L435.117 87.6042L499.839 117.689L491.226 121.568L467.434 132.617L426.933 151.336L418.684 147.342L406.04 141.359L376.144 127.385L376.147 127.395Z" fill="#6DA9C6"/>
<path d="M72.7654 150.669L26.7381 129.766L5.26651 120.074L0.498047 118.098L6.28782 115.224L18.7467 109.4L36.975 100.861L48.6898 95.3689L71.7982 84.5739C75.3661 82.9067 78.589 81.1819 82.2516 79.7074C85.4779 81.4694 88.5622 82.5549 91.7851 84.0125L118.776 96.1974L154.715 112.332L141.685 118.244L130.501 123.452L96.6313 138.9L77.0841 148.116C75.596 148.816 74.3786 149.381 72.762 150.669H72.7654Z" fill="#6DA9C6"/>
<path d="M271.53 223.958L252.706 232.89C248.77 230.732 245.756 227.736 242.462 224.756L232.168 215.443L222.164 206.214L212.316 197.086C206.574 191.766 201.085 186.592 194.92 181.387L225.079 167.342L236.439 162.043L249.99 155.587C251.756 156.317 253.044 157.328 254.725 158.11L298.703 178.6L317.019 187.082L324.96 190.88C327.845 192.26 330.821 193.112 333.807 194.864L319.654 201.371L271.533 223.965L271.53 223.958Z" fill="#6DA9C6"/>
<path d="M279.882 55.199L266.703 61.3676C260.974 64.0494 255.238 66.3423 249.858 69.4638C246.638 67.7221 243.838 66.4336 240.592 64.9591L175.277 35.2527L196.198 25.3709L213.097 17.2611L222.174 13.0811L237.95 5.57334L249.493 0L260.21 5.14722L273.572 11.3496L302.629 25.1544L313.478 30.2678L321.405 33.9338C322.081 34.2449 322.707 34.6135 323.045 35.1512L294.891 48.3541L279.879 55.2058L279.882 55.199Z" fill="#6DA9C6"/>
<path d="M276.544 134.287L257.268 143.229C254.921 144.318 252.797 145.35 250.561 146.756L246.388 144.717L233.831 138.904L193.516 120.459L175.379 112.397L208.657 97.1443L220.27 91.7908C221.166 91.3782 221.924 91.0265 222.86 90.597L249.702 78.2362C251.951 79.5247 254.16 80.4987 256.49 81.5876L268.029 86.9817L279.48 92.1425L320.008 110.712C321.415 111.355 322.775 111.406 323.911 112.745L318.639 115.028L288.77 128.734L276.541 134.287H276.544Z" fill="#6DA9C6"/>
<path d="M334.357 108.173L325.639 103.742L308.635 95.9742L275.016 80.6137L260.007 73.9379L290.214 60.2143L322.744 45.3881C326.528 43.6633 330.106 42.3715 333.911 40.3593L376.898 60.1974L407.524 74.2795L388.396 82.9743L372.576 90.1506L343.475 103.638C340.367 105.078 337.428 106.147 334.357 108.169V108.173Z" fill="#6DA9C6"/>
<path d="M175.64 102.687C171.947 104.385 168.578 105.711 165.251 107.662L128.016 90.6614L115.767 85.2673L92.1582 74.6888L133.011 55.5473L150.746 47.2381L164.923 40.4912L208.42 59.9742L224.437 67.2689L238.84 73.7283L198.383 92.2272L175.64 102.691V102.687Z" fill="#6DA9C6"/>
<path d="M221.606 426.468C220.29 427.442 218.488 427.858 217.601 429.255C217.064 430.104 216.469 435.051 218.315 435.985C224.68 439.204 231.034 442.231 237.639 444.967C238.833 445.048 239.739 444.483 240.764 444.044C244.393 442.498 247.829 440.919 251.211 439.042L274.042 450.097L258.789 457.274C256.145 458.332 253.872 459.668 251.275 461.092L242.289 456.584L228.244 449.908L201.088 436.638L191.115 431.994L166.623 420.29L146.47 410.702L114.809 395.676L93.1247 385.561L69.2047 374.286L48.6969 365.114C45.6228 363.738 42.7685 362.26 39.3663 361.587C39.5185 362.882 40.7292 362.923 41.6457 363.332C42.1158 363.542 53.1204 368.8 52.3798 367.958C52.5489 368.151 52.2175 368.682 51.9841 368.868L44.7131 374.753C42.2544 376.741 39.806 378.605 37.3169 380.556C35.4535 382.017 37.9493 385.828 35.5042 384.658L0.0790489 367.688L0.0553733 352.821C0.0553733 350.91 -0.167816 349.101 0.281974 347.275L14.0192 340.264C17.2894 342.114 20.5462 343.578 23.9822 345.171L40.3775 352.78C47.3882 356.034 54.0876 359.253 61.3688 361.878C65.9749 360.194 70.2801 358.256 74.4601 355.794C75.451 355.212 75.9921 354.387 75.867 353.136C76.0158 352.818 76.4588 352.628 76.8375 352.811L89.2626 358.804C89.4756 360.251 89.5433 361.692 89.4993 363.203C89.4722 364.15 85.4174 364.779 84.8086 367.174C84.4028 368.773 84.5246 370.66 84.8458 372.291C85.1096 373.633 103.071 381.06 105.536 382.081C109.858 380.346 113.724 378.503 117.613 376.295C118.996 375.51 119.828 374.55 119.554 372.615L133.274 379.119C133.254 380.857 133.423 382.298 133.197 383.897C131.306 384.709 129.091 385.693 128.445 387.773C127.924 389.447 128.161 391.347 128.628 392.957C133.531 395.737 138.449 397.868 143.501 400.198C145.415 401.08 147.154 402.061 149.237 402.633C153.542 401.016 157.512 399.018 161.452 396.819C162.845 396.041 163.427 394.895 163.654 393.228C168.314 395.751 172.704 397.759 177.313 399.677L177.249 404.885C175.331 405.616 173.133 406.617 172.443 408.774C172.007 410.141 172.281 412.467 172.778 413.759C175.304 415.656 178.186 416.789 181.023 418.081L190.526 422.403C194.75 424.324 194.348 423.036 198.474 421.392C201.111 420.344 203.438 418.988 205.86 417.547C207.131 416.789 207.581 415.68 207.52 413.878L214.72 417.483L222.113 420.949L222.028 423.441C221.998 424.348 222.62 425.707 221.592 426.465L221.606 426.468Z" fill="#6DA9C6"/>
<path d="M245.705 269.39L245.64 431.166C245.64 436.874 223.692 435.84 223.689 427.439L223.658 262.315C224.389 261.866 224.571 262.627 225.008 262.84L236.388 268.42C240.656 270.513 240.899 269.766 245.6 267.493C246.3 267.997 245.708 268.396 245.708 269.39H245.705Z" fill="#6DA9C6"/>
<path d="M199.6 411.118C195.873 415.887 181.054 412.917 178.998 407.486L178.927 242.082C180.374 242.332 181.199 243.35 182.451 243.884C186.323 245.541 189.938 247.638 193.969 248.943C195.867 249.556 197.419 248.152 199.576 247.55L199.604 411.121L199.6 411.118Z" fill="#6DA9C6"/>
<path d="M155.334 390.272C151.824 395.088 134.738 391.368 134.755 386.204L134.918 326.355L134.911 308.329L134.816 263.232L134.887 256.985L134.745 221.51C136.571 222.098 137.43 222.964 138.783 223.606L147.928 227.959C151.942 229.87 151.431 228.767 155.31 227.563L155.334 390.272Z" fill="#6DA9C6"/>
<path d="M109.036 371.696C103.696 372.781 98.2211 371.824 93.6657 369.257C91.968 368.3 91.0177 366.961 91.0244 364.939L91.2443 305.279L91.1665 291.538L91.0921 201.547C94.3522 203.379 97.3959 204.851 100.676 206.305C106.091 208.703 106.172 210.005 111.657 207.252V368.547C111.657 370.251 110.7 371.357 109.036 371.696Z" fill="#6DA9C6"/>
<path d="M67.7465 254.585L67.7093 350.231C62.6602 353.393 54.3475 351.851 49.7076 348.898C48.7437 348.283 47.4248 347.471 47.4248 345.993L47.4553 182.368C47.905 181.485 48.3954 182.341 48.9162 182.584L62.2476 188.854C64.0806 189.717 65.8831 187.718 67.7296 187.809L67.7397 254.585H67.7465Z" fill="#6DA9C6"/>
<path d="M309.521 433.09L283.328 445.566C280.917 446.716 278.682 447.764 276.399 449.178C275.76 448.64 276.365 448.106 276.365 447.392L276.318 394.496C276.318 392.666 275.716 391.118 276.368 389.271L290.914 382.494L316.586 370.353L329.744 364.029L329.714 390.864C329.714 393.218 329.41 395.463 329.633 397.81C329.812 399.708 329.69 401.429 329.673 403.309L329.484 423.475L320.519 427.74L309.524 433.093L309.521 433.09Z" fill="#6DA9C6"/>
<path d="M276.578 376.592C275.753 376.427 276.335 375.338 276.335 374.746L276.321 322.158C276.321 321.488 275.695 320.477 276.477 320.146C280.995 318.245 285.307 316.29 289.683 314.085L304.096 307.399L329.833 295.13L329.775 349.365C329.775 349.984 329.663 351.211 329.17 351.452L315.696 357.965L284.772 372.663C282.03 373.965 279.598 375.405 276.582 376.596L276.578 376.592Z" fill="#6DA9C6"/>
<path d="M158.328 189.541L113.68 169.331L98.296 162.303L85.8169 156.574C84.6873 156.057 83.5747 156.087 82.293 155.039L115.77 139.739L137.746 129.577C138.814 130.094 139.582 130.855 140.465 131.69L160.387 150.561L177.002 166.415C180.232 169.496 183.215 172.394 186.986 175.415L162.552 186.896C161.043 187.603 159.856 188.178 158.328 189.541Z" fill="#6DA9C6"/>
<path d="M276.368 307.436L276.318 254.513C276.318 253.982 276.02 253.712 276.233 253.367C276.466 252.988 276.849 252.856 277.336 252.626L294.543 244.533L318.875 232.984C322.558 231.469 325.869 229.917 329.782 227.817L329.789 282.339L293.978 299.296C288.864 301.718 284.076 303.885 279.148 306.489C278.262 306.716 277.745 307.335 276.365 307.433L276.368 307.436Z" fill="#6DA9C6"/>
<path d="M186.5 175.99C181.089 170.099 175.303 169.58 170 163.99L157 150.987L147.5 140.49L142 134.308C140.6 132.999 138.843 131.272 137 129.99C140.338 128.661 145.113 126.256 148.106 124.849L161.028 118.778L165.164 116.81C169.351 119.073 173.511 120.763 177.85 122.749L203.099 134.308L226.796 145.056L239.84 150.987L222.075 159.151L202.555 168.353L187.948 174.961L186.5 175.99Z" fill="#6DA9C6"/>
<path d="M261.39 230.323L274.64 224.198L284.072 219.71L293.775 215.223C297.522 213.488 300.989 211.591 304.868 210.119L319.268 203.258L334.824 195.794L334.878 223.887L302.013 239.373L283.244 248.372L253.47 262.461L253.338 234.1C256.24 233.032 258.705 231.672 261.394 230.326L261.39 230.323Z" fill="#6DA9C6"/>
<path d="M344.216 219.552C343.759 219.765 343.515 219.501 343.444 219.399C343.333 219.237 343.624 219 343.624 218.736L343.664 193.274C343.664 192.706 343.282 192.277 343.536 191.83C343.762 191.435 344.172 191.316 344.706 191.073L365.281 181.637L386.408 171.691L400.646 165.195L417.744 157.109L417.775 184.711L402.641 191.979L388.653 198.628L377.872 203.758L365.004 209.812L344.219 219.552H344.216Z" fill="#6DA9C6"/>
<path d="M447.705 171.248L426.446 181.147C425.929 179.016 426.463 177.068 426.463 174.934L426.456 153.186L447.57 143.452L493.333 122.333L500.831 118.741C501.071 119.468 500.679 119.901 500.679 120.517L500.672 146.408C496.343 148.13 492.691 150.24 488.659 152.134L472.548 159.702L457.712 166.524L447.708 171.245L447.705 171.248Z" fill="#6DA9C6"/>
<path d="M339.37 279.729C343.685 277.094 353.58 273.269 357.155 271.125C357.93 270.662 358.599 270.459 359.441 270.057L370.064 264.95L370.162 256.357L376.902 260.364C377.937 260.98 378.745 260.902 379.77 260.411L386.652 257.111C389.543 255.724 392.313 254.547 395.215 253.171L408.729 246.762L408.681 238.784C411.465 239.944 413.852 241.348 416.51 243.086L441.347 231.341C443.173 230.478 444.901 229.826 446.684 228.828L446.873 220.637C449.524 221.797 451.875 223.153 454.344 224.604C454.973 224.976 455.94 224.459 456.552 224.164L473.011 216.275C475.561 215.054 477.949 213.687 480.573 212.659C480.983 214.293 480.127 216.072 480.918 217.401C481.71 218.73 483.698 218.838 485.102 219.677L441.574 240.377L428.587 246.688L417.704 251.69L395.069 262.552L341.166 288.068L329.153 293.75L287.143 313.517L276.2 318.81L276.152 309.276C279.003 308.241 281.377 307.01 284.063 305.742L311.665 292.708L321.913 287.805L329.61 284.335C332.944 282.83 330.587 280.571 331.284 275.254L339.356 279.735L339.37 279.729Z" fill="#6DA9C6"/>
<path d="M331.108 352.409L331.344 343.907L339.326 348.79L369.191 334.688C371.629 333.535 369.556 328.374 370.253 325.513C372.018 326.69 373.408 327.41 375.018 328.286C376.033 328.837 377.169 330.115 378.484 330.112C382.404 328.57 385.979 326.656 389.817 324.846L408.583 316.006L408.644 307.386C410.497 308.515 412.08 309.432 413.937 310.352C414.813 310.785 415.695 311.867 416.859 312.016L440.467 300.784C442.645 299.746 444.685 298.877 446.802 297.66L446.866 289.127L454.955 293.977L480.411 281.738C480.993 283.506 479.914 286.523 481.733 287.111C482.978 287.514 484.148 287.866 485.132 288.884C479.532 291.197 474.496 293.872 469.146 296.391L459.761 300.808L447.81 306.54L401.106 328.712L398.333 330.082L318.652 367.617L302.105 375.399L284.188 383.904C281.536 385.162 278.99 386.163 276.318 387.858C275.817 386.086 276.206 384.696 276.21 383.008C276.21 381.554 275.78 379.437 276.626 378.185L283.613 374.935L315.044 360.032L331.104 352.412L331.108 352.409Z" fill="#6DA9C6"/>
<path d="M201.859 451.755C200.916 453.5 195.552 456.28 195.41 457.477L195.014 460.821C191.822 458.718 188.68 457.504 185.403 455.941L147.387 437.835L117.81 423.786L87.819 409.478L62.6612 397.462L38.0885 385.832C37.8078 384.445 37.8721 383.136 38.1291 381.696L44.7644 377.407C46.8036 377.925 48.3965 379.169 50.2362 380.028L63.8956 386.403L94.6978 400.969L119.277 412.569L161.368 432.613L179.556 441.284L201.856 451.755H201.859Z" fill="#6DA9C6"/>
<path d="M455.733 363.254L455.635 304.406C457.285 303.943 458.432 303.368 459.734 302.742L471.648 297.041L486.373 289.834L486.396 348.448L474.57 354.15L455.729 363.254H455.733Z" fill="#6DA9C6"/>
<path d="M457.127 291.23C456.836 291.548 456.619 291.741 456.443 291.836C456.21 291.961 455.706 291.707 455.706 291.193L455.669 235.5C458.78 233.738 461.966 232.589 465.142 231.036L473.708 226.843L486.414 220.742L486.451 277.05L470.573 284.879L457.127 291.23Z" fill="#6DA9C6"/>
<path d="M203.397 450.608C198.175 448.505 193.667 445.985 188.672 443.604L157.982 428.964L109.662 405.994L89.7998 396.667L51.3309 378.476C49.3897 377.556 47.6413 377.002 45.9199 375.466L49.8057 372.483C51.3073 371.33 52.7953 370.404 54.148 369.095L85.0009 383.552L101.139 391.209L161.256 419.576L180.326 428.639L203.36 439.631L211.5 443.57L203.4 450.608H203.397Z" fill="#6DA9C6"/>
<path d="M368.534 404.446C367.915 405.416 366.931 405.602 365.974 405.954L340.062 418.409L339.991 359.514L368.744 345.946L368.703 397.428C368.385 399.826 368.369 401.872 368.531 404.449L368.534 404.446Z" fill="#6DA9C6"/>
<path d="M465.169 218.371L455.704 222.818L455.693 169.087L472.268 161.451L486.34 154.87L486.424 208.314L465.169 218.371Z" fill="#6DA9C6"/>
<path d="M379.048 388.25C379.292 385.118 379.035 382.129 379.025 378.96L378.957 353.244C378.957 352.25 378.987 351.33 379.129 350.346C378.913 347.258 378.744 344.279 379.011 341.103L406.956 327.839L407.006 386.484L389.847 394.598L379.316 399.704C378.883 395.879 378.744 392.122 379.045 388.25H379.048Z" fill="#6DA9C6"/>
<path d="M445.161 368.307L417.457 381.554L417.413 324.481C417.295 323.859 417.146 323.443 417.298 323.064C417.504 322.557 418.123 322.496 418.668 322.242L433.602 315.208L445.479 309.506L445.364 333.862C445.351 336.436 445.215 338.77 445.347 341.33C445.591 346.058 445.412 350.677 445.381 355.381L445.161 368.307Z" fill="#6DA9C6"/>
<path d="M45.7137 286.746C44.4759 287.243 43.4952 286.364 42.3994 285.867L23.329 277.199C20.7013 276.005 18.1886 275.096 15.6183 273.597L15.6116 224.699C15.6116 222.727 15.2226 221.192 15.4222 219.136L31.6653 226.633L40.1268 230.62C41.9564 231.483 43.7183 232.142 45.7475 232.92L45.717 286.75L45.7137 286.746Z" fill="#6DA9C6"/>
<path d="M348.531 342.797C345.629 343.856 343.174 345.283 340.046 346.845L340.025 290.486L360.293 280.862C363.185 279.489 365.829 278.197 368.724 276.688L368.673 331.444C368.673 332.611 368.294 333.345 367.273 333.825L358.791 337.792C355.298 339.426 351.862 340.832 348.531 342.801V342.797Z" fill="#6DA9C6"/>
<path d="M253.239 438.42C249.617 436.705 255.542 434.507 247.632 430.594L247.622 377.942C247.179 377.651 247.551 376.308 248.001 376.521L274.65 389.136L274.67 448.738L267.524 445.187L253.239 438.423V438.42Z" fill="#6DA9C6"/>
<path d="M389.557 323.24L379.113 328.316C378.603 326.233 379.042 324.376 379.1 322.384C379.232 317.826 379.046 313.524 379.029 308.945L378.88 272.004L386.743 268.322L403 260.53C404.325 259.894 405.401 258.981 407.071 258.673C407.518 261.179 407.115 263.661 407.048 266.218C406.939 270.297 406.98 274.182 407.115 278.227C407.322 284.379 407.146 290.371 407.109 296.537L407.014 313.52C407.014 313.957 407.426 314.833 406.781 315.137L389.557 323.237V323.24Z" fill="#6DA9C6"/>
<path d="M430.274 303.936L417.484 310.132L417.379 253.702C419.405 252.954 421.058 252.021 422.989 251.101L445.432 240.411L445.361 289.38C445.357 291.93 445.06 294.166 445.215 296.878L430.274 303.939V303.936Z" fill="#6DA9C6"/>
<path d="M41.3078 346.325C39.8232 348.526 42.0315 352.561 40.0903 351.33C37.5573 349.72 34.9025 348.641 32.2072 347.356L23.1167 343.024C20.5668 341.81 18.0371 340.876 15.6123 339.226L15.6225 285.924L36.9621 295.728C39.9483 297.101 42.6031 298.623 45.7313 299.746L45.7144 343.393C44.0268 344.157 42.3731 344.752 41.3112 346.328L41.3078 346.325Z" fill="#6DA9C6"/>
<path d="M340.139 277.581C339.822 273.097 340.163 269.022 340.16 264.717L340.143 234.341L340.2 223.008L353.691 216.765L368.72 209.822L368.639 259.336C368.639 261.024 368.317 262.474 368.395 264.165L360.941 267.561L340.139 277.581Z" fill="#6DA9C6"/>
<path d="M274.67 376.227L254.808 366.984L247.615 363.481L247.646 307.629L261.234 313.909C265.749 315.996 269.983 318.181 274.653 320.024L274.67 376.224V376.227Z" fill="#6DA9C6"/>
<path d="M433.099 233.502C427.847 235.987 422.686 238.196 417.465 241.104L417.4 186.947C423.985 183.589 429.342 181.786 435.693 178.299L445.446 174.089L445.375 201.151L445.287 216.19L445.091 227.83L433.102 233.505L433.099 233.502Z" fill="#6DA9C6"/>
<path d="M407.021 245.612L379.191 259.14L379.104 206.095C379.104 204.661 379.58 204.553 380.649 204.056L400.041 195.043C402.425 193.934 404.42 192.753 407.156 191.671L407.092 231.706L407.021 245.612Z" fill="#6DA9C6"/>
<path d="M45.6937 180.761L45.7174 219.508C45.7174 220.028 45.2169 220.292 44.8483 220.11C34.9258 215.145 25.4329 211.848 15.5781 206.724L15.6221 155.492L39.7957 166.456C39.9682 170.061 40.09 173.504 39.816 177.149C41.3074 178.857 43.2148 179.723 45.687 180.761H45.6937Z" fill="#6DA9C6"/>
<path d="M243.07 483.625L212.231 468.755L196.867 461.41C196.603 460.074 196.687 458.667 197.431 457.46L213.059 444.183L250.013 462.134L250.037 487.203L243.067 483.625H243.07Z" fill="#6DA9C6"/>
<path d="M255.231 298.441C252.59 297.233 250.226 296.293 247.673 294.707L247.629 266.955L261.373 260.29L274.647 253.857L274.687 307.507L271.579 305.921L255.228 298.441H255.231Z" fill="#6DA9C6"/>
<path d="M244.43 228.879C242.458 228.111 241.112 227.276 239.357 226.474L200.895 208.875L169.193 194.468L168.405 194.384C168.202 194.363 168.101 194.042 168.25 193.744C168.358 193.531 168.75 193.501 169.065 193.427L180.364 188.164C184.79 186.101 192.965 182.469 197.5 179.99L213 189.99L226 199.99L247.5 223.49C248.264 224.187 252.355 231.725 252.5 232.99L244.43 228.879Z" fill="#6DA9C6"/>
<path d="M244.67 265.319C239.232 268.383 240.953 268.494 235.857 266.266C231.054 264.165 226.57 262.055 221.957 259.519C220.652 258.802 218.416 258.054 217.831 256.661C217.334 253.648 217.625 250.577 217.696 247.462L238.819 257.145C240.787 258.048 242.58 258.934 244.48 259.955L244.67 265.322V265.319Z" fill="#6DA9C6"/>
<path d="M194.141 247.317C187.431 244.31 181.411 241.287 175.101 238.057C174.505 237.753 174.147 237.137 173.339 236.904L173.099 227.063L199.051 238.97L199.061 244.605C198.601 246.194 195.794 246.678 194.137 247.317H194.141Z" fill="#6DA9C6"/>
<path d="M110.859 204.992C106.429 207.668 106.808 207.421 101.444 204.84L87.0744 197.921C86.3744 197.583 85.3429 196.72 85.3395 195.97C85.326 192.831 85.1129 190.011 85.4613 186.876L92.4685 190.19L110.944 198.601C111.028 200.836 111.079 202.71 110.856 204.989L110.859 204.992Z" fill="#6DA9C6"/>
<path d="M154.756 224.448C154.174 226.072 151.756 226.457 150.19 227.215L136.602 220.769C134.069 219.568 131.651 218.486 129.358 216.755L129.341 206.934L144.803 214.168L154.975 218.875C154.725 220.711 155.415 222.605 154.752 224.452L154.756 224.448Z" fill="#6DA9C6"/>
<path d="M62.9009 187.001C58.4876 185.452 54.7811 183.288 50.6856 181.505C47.5675 180.149 44.6828 178.671 41.7371 176.886L41.585 167.115L67.0133 178.851C66.8949 180.792 67.5274 183.115 66.9389 185.043C66.293 185.909 64.2064 187.271 62.9009 187.001Z" fill="#6DA9C6"/>
<path d="M274.634 387.303L247.528 374.34L247.657 365.277L274.577 377.986L274.634 387.303Z" fill="#6DA9C6"/>
<path d="M265.905 305.029C268.996 306.408 271.759 307.737 274.651 309.205L274.617 318.357L247.711 305.695L247.572 297.849C247.569 297.622 247.366 297.308 247.437 297.196C247.538 297.034 248.012 296.831 248.34 296.986L256.385 300.781L265.905 305.032V305.029Z" fill="#6DA9C6"/>
<path d="M221.927 365.425L205.018 357.607L204.936 346.801C204.93 345.821 204.395 344.881 204.97 343.89L212.086 347.173C215.342 349.03 218.565 350.515 222.133 352.037L221.924 365.425H221.927Z" fill="#6DA9C6"/>
<path d="M41.5983 229.295L23.069 220.982C22.21 220.596 21.5032 220.481 20.7321 219.893C19.7683 219.156 18.2228 219.217 17.2285 218.151C18.2431 217.184 19.8799 217.225 20.7626 216.2C21.9158 214.857 21.2293 212.876 21.1177 211.171C22.3013 211.073 23.1671 211.949 24.1918 212.416L41.6085 220.37C42.9849 220.999 44.1347 221.716 45.7005 222.037L45.7107 230.799C44.1787 230.965 43.083 229.964 41.6017 229.298L41.5983 229.295Z" fill="#6DA9C6"/>
<path d="M21.7294 287.067C20.3226 286.428 19.3723 285.759 17.9925 285.498C17.7354 285.451 17.4919 285.133 17.4209 284.977C16.9508 283.912 20.4748 283.902 21.185 282.336C21.7836 281.017 21.0429 279.553 21.469 277.98L45.6325 289.005L45.6731 297.94L21.7261 287.067H21.7294Z" fill="#6DA9C6"/>
<path d="M177.273 345.161L160.735 337.258L160.722 323.578L177.327 331.522L177.273 345.161Z" fill="#6DA9C6"/>
<path d="M133.318 325.161L117.051 317.444L116.967 303.97L133.386 311.525L133.318 325.161Z" fill="#6DA9C6"/>
<path d="M89.5499 303.162C89.6074 303.666 89.7528 305.34 89.1238 305.035L75.2344 298.295C74.6325 298.004 73.2222 297.774 73.2087 296.983L72.999 284.071C75.7011 284.974 77.6356 286.1 79.8981 287.169C83.1988 288.728 86.4386 290.206 89.6074 291.954C89.8847 295.965 89.0629 298.88 89.5466 303.162H89.5499Z" fill="#6DA9C6"/>
<path d="M249.82 437.551C246.255 439.85 242.596 441.464 238.832 443.124C237.101 443.462 235.105 441.92 233.587 441.274C228.626 439.171 223.871 437.128 219.302 434.287C218.561 433.54 218.781 431.321 219.079 430.418C219.528 429.066 220.844 428.322 222.18 427.98C221.97 430.878 223.935 432.586 226.279 433.743C231.947 436.536 238.213 437.314 244.186 435.298C245.721 434.781 246.506 433.361 247.747 432.84C249.668 432.035 251.474 436.489 249.82 437.554V437.551Z" fill="#6DA9C6"/>
<path d="M73.8402 351.37C76.2481 353.849 68.7775 356.687 67.0392 357.498L61.3036 360.18L58.2565 358.929C53.1364 356.825 47.9655 354.948 43.2917 351.837C41.939 350.937 42.4192 347.975 43.0448 346.832C43.5149 345.969 44.7053 345.726 45.3445 345.31C46.0141 346.064 45.5204 346.903 46.0209 347.572C48.8008 351.286 49.653 351.015 53.8838 352.442C58.3411 353.944 62.9032 353.94 67.2658 352.351C68.7572 351.807 69.7042 350.822 70.411 349.304C71.6792 349.845 72.8358 350.332 73.8436 351.37H73.8402Z" fill="#6DA9C6"/>
<path d="M201.983 410.661C203.305 411.331 204.269 411.882 205.476 412.691C205.95 413.526 205.838 415.18 204.827 415.846C201.236 418.206 197.336 419.975 193.261 421.741C187.12 419.18 181.492 416.536 175.76 413.57C174.377 412.853 173.714 411.615 174.055 410.032C174.089 408.091 175.652 406.556 177.633 406.911C176.808 412.444 187.87 414.825 191.851 415.051C194.475 415.2 201.415 414.327 201.983 410.661Z" fill="#6DA9C6"/>
<path d="M161.25 391.763C162.308 392.67 161.588 394.33 160.617 394.983C157.57 397.046 154.314 398.436 151.057 400.002C149.498 400.753 148.375 400.604 146.819 399.887L135.45 394.658C133.732 393.867 131.564 393.187 130.421 391.618C128.824 389.427 130.492 386.271 133.157 385.5C133.289 387.543 134.022 389.403 135.896 390.603C140.834 393.769 149.927 395.632 155.332 392.69C156.576 392.014 157.452 391.216 157.824 389.63C158.974 390.279 160.114 390.786 161.247 391.757L161.25 391.763Z" fill="#6DA9C6"/>
<path d="M114.096 369.355C116.203 369.886 119.176 373.048 117.34 374.1C113.606 376.241 109.511 378.912 105.229 379.991C103.224 380.218 87.9816 372.406 87.1124 371.628C86.1215 370.738 85.9998 369.003 86.7134 367.708C87.1834 366.853 88.127 365.74 89.473 365.463C89.4561 368.611 91.2045 370.289 93.6361 371.293C99.0843 373.542 106.075 375.01 111.509 372.27C112.75 371.645 113.586 370.803 114.096 369.359V369.355Z" fill="#6DA9C6"/>
<path d="M378.037 400.256L370.201 404.388C369.995 401.324 370.035 398.636 370.235 395.545L378.037 400.256Z" fill="#6DA9C6"/>
<path d="M454.567 363.721L447.005 367.61L446.714 359.223L454.567 363.721Z" fill="#6DA9C6"/>
<path d="M338.782 419.099L331.386 422.704C330.993 419.955 331.254 417.577 331.217 414.618L338.782 419.099Z" fill="#6DA9C6"/>
<path d="M416.378 382.01L408.806 385.852C408.492 383.153 408.664 380.833 408.705 377.962L416.375 382.01H416.378Z" fill="#6DA9C6"/>
</svg>
